<?xml version="1.0" encoding="UTF-8"?>
<svg version="1.1" xmlns="http://www.w3.org/2000/svg" width="212" height="534">
<path d="M0 0 C10.52850253 8.42676756 14.53469109 20.68111816 16.02294922 33.69433594 C16.42702781 38.26226512 16.63981866 42.826713 16.76171875 47.41015625 C17.51066406 47.51714844 18.25960937 47.62414063 19.03125 47.734375 C21.9317732 48.45224412 23.24086674 49.26243368 25.44921875 51.22265625 C26.32126953 51.97482422 26.32126953 51.97482422 27.2109375 52.7421875 C31.16559448 56.99568506 31.19369217 61.11452742 31.07421875 66.71484375 C30.62791871 70.56418157 29.41625982 72.61590249 26.76171875 75.41015625 C23.00951694 77.75528238 21.2321002 78.41015625 16.76171875 78.41015625 C16.76171875 83.03015625 16.76171875 87.65015625 16.76171875 92.41015625 C19.73171875 93.40015625 19.73171875 93.40015625 22.76171875 94.41015625 C26.47919257 97.62070182 29.31071333 100.57301751 30.09765625 105.5234375 C30.20141989 111.36533027 29.25980036 114.68301894 25.76171875 119.41015625 C22.34691106 122.05663221 21.17631353 122.41015625 16.76171875 122.41015625 C16.58406832 125.607864 16.72942161 128.36313426 17.76171875 131.41015625 C19.88753736 133.35001856 22.00946266 134.65363951 24.53515625 136.0234375 C27.03976827 137.58332745 28.28457165 138.86126204 29.76171875 141.41015625 C30.63793313 146.19381316 30.26307925 150.30298515 28.26171875 154.72265625 C25.16839476 158.04797954 21.84130403 160.41451496 17.76171875 162.41015625 C17.10171875 162.41015625 16.44171875 162.41015625 15.76171875 162.41015625 C15.76171875 165.05015625 15.76171875 167.69015625 15.76171875 170.41015625 C16.46296875 170.47203125 17.16421875 170.53390625 17.88671875 170.59765625 C23.21227493 172.10270474 25.99924297 175.06311571 28.63671875 179.72265625 C30.26653012 185.06481573 30.53914182 189.1236178 28.69921875 194.53515625 C25.89963306 198.68938018 22.27395558 202.15403784 17.76171875 204.41015625 C17.10399447 207.43950116 17.10399447 207.43950116 16.76171875 210.41015625 C17.48359375 210.65765625 18.20546875 210.90515625 18.94921875 211.16015625 C24.40260117 213.58388177 27.62832683 216.74857873 30.09765625 222.12890625 C31.69333273 227.61052428 30.64142573 232.65074229 28.13671875 237.66015625 C26.08731502 240.03315004 24.45526788 241.33191704 21.94921875 243.09765625 C19.63353645 245.0026513 18.83704624 245.80059829 18.46484375 248.8125 C18.71583761 251.72821198 19.23372603 254.53259592 19.76171875 257.41015625 C19.78492188 258.83908203 19.78492188 258.83908203 19.80859375 260.296875 C20.25986776 269.68588154 25.70538018 274.21069405 32.28125 280.18359375 C43.31278 290.28812947 46.48321919 302.06203163 49.47106934 316.27786255 C50.40584385 320.72099628 51.38200789 325.1550535 52.35546875 329.58984375 C52.55299744 330.49362259 52.75052612 331.39740143 52.95404053 332.3285675 C54.95587347 341.42392937 57.21316235 350.44856822 59.51171875 359.47265625 C76.88321529 428.00346412 76.88321529 428.00346412 63.5625 452.5625 C56.71954591 463.38357056 47.74337475 471.92561294 37.8515625 479.890625 C34.43762219 482.67443221 31.09637539 485.53241388 27.76171875 488.41015625 C22.70183166 492.76876797 17.59621586 497.05867321 12.40234375 501.2578125 C10.60377949 502.723802 8.82302101 504.21184753 7.05859375 505.71875 C-4.47503415 515.48938049 -17.02054604 523.43634404 -32.7421875 522.6796875 C-61.79923989 519.54207151 -102.95044455 508.3794596 -125.23828125 488.41015625 C-142.35590696 466.3603333 -143.31274044 437.36392831 -140.11328125 410.78515625 C-137.56254165 391.45323506 -132.75338225 372.77391656 -127.08331299 354.15182495 C-123.72793018 343.05436162 -121.6527863 332.05387338 -119.90771484 320.59936523 C-117.70282176 306.35919211 -114.23251644 293.44932672 -104.59765625 282.30859375 C-104.13705811 281.77516357 -103.67645996 281.2417334 -103.2019043 280.69213867 C-101.86138503 279.16662354 -100.48990802 277.66848006 -99.1171875 276.171875 C-96.96877397 273.61506325 -96.96877397 273.61506325 -97.37890625 270.8671875 C-97.6625 270.05636719 -97.94609375 269.24554688 -98.23828125 268.41015625 C-100.41686744 259.41470358 -100.41686744 259.41470358 -99.73828125 255.59765625 C-96.68691115 251.14774151 -93.4477021 248.71251146 -88.23828125 247.41015625 C-88.23828125 240.15015625 -88.23828125 232.89015625 -88.23828125 225.41015625 C-90.87828125 224.09015625 -93.51828125 222.77015625 -96.23828125 221.41015625 C-100.45580397 216.11121745 -101.72819808 211.64383505 -101.640625 204.98828125 C-101.07061957 201.33581925 -99.66572685 199.35313323 -97.10546875 196.75 C-93.97001909 194.50008529 -91.02559775 193.99784329 -87.23828125 193.41015625 C-86.94036783 185.99959411 -86.94036783 185.99959411 -89.7578125 179.453125 C-91.54053485 178.03070022 -93.3710573 176.71848323 -95.23828125 175.41015625 C-98.57146536 171.53936181 -98.81476913 167.80553654 -98.65234375 162.8515625 C-97.95015801 158.71131641 -96.40464834 157.16351894 -93.23828125 154.41015625 C-89.92578125 153.03515625 -89.92578125 153.03515625 -87.23828125 152.41015625 C-87.23828125 149.11015625 -87.23828125 145.81015625 -87.23828125 142.41015625 C-88.55828125 142.08015625 -89.87828125 141.75015625 -91.23828125 141.41015625 C-95.91666788 137.28872041 -98.04934507 134.75296493 -98.55078125 128.53515625 C-98.40751267 124.46331249 -97.60759904 121.81605057 -95.23828125 118.41015625 C-93.85895179 117.46883871 -92.46137231 116.55394669 -91.05078125 115.66015625 C-88.5555542 113.89636867 -87.4288928 112.97083314 -86.4375 110.0546875 C-86.21548544 107.17720468 -86.34219438 105.15961304 -87.23828125 102.41015625 C-89.07583275 100.26985026 -91.0118862 98.68962011 -93.2578125 96.98828125 C-96.00722239 94.79742998 -97.13332142 92.72503574 -98.23828125 89.41015625 C-98.80130294 84.15528712 -98.15056218 80.82554991 -95.23828125 76.41015625 C-93.05556376 74.20217583 -90.80910253 72.15707577 -88.23828125 70.41015625 C-87.57828125 70.41015625 -86.91828125 70.41015625 -86.23828125 70.41015625 C-86.06075273 67.21464285 -86.20499843 64.4548294 -87.23828125 61.41015625 C-89.36240125 59.59132475 -91.5873225 58.32647629 -94.00390625 56.92578125 C-97.613426 54.47736576 -99.09814702 51.55541247 -100.23828125 47.41015625 C-101.00241612 42.67252006 -100.73983 39.4325441 -98.61328125 35.09765625 C-95.33421768 31.38713695 -92.43553332 28.60122165 -87.36328125 28.16015625 C-86.66203125 28.24265625 -85.96078125 28.32515625 -85.23828125 28.41015625 C-85.19703125 27.17265625 -85.15578125 25.93515625 -85.11328125 24.66015625 C-84.0236889 15.05055709 -78.42587345 5.7706049 -71.23828125 -0.58984375 C-49.87702911 -16.31816296 -21.22912995 -15.07898061 0 0 Z " fill="#C1BFBE" transform="translate(141.23828125,11.58984375)"/>
<path d="M0 0 C0.92194153 -0.00556915 1.84388306 -0.01113831 2.79376221 -0.01687622 C3.80355133 -0.00766144 4.81334045 0.00155334 5.85372925 0.01104736 C7.45202576 0.0079808 7.45202576 0.0079808 9.08261108 0.00485229 C12.62090999 0.00183438 16.15874701 0.02036842 19.69699097 0.03936768 C22.16304408 0.04242678 24.62909891 0.04430175 27.09515381 0.04504395 C32.27874311 0.04965514 37.46217779 0.06410035 42.64572144 0.08624268 C49.24781104 0.11431862 55.84977784 0.12543325 62.45192146 0.12992477 C68.78362672 0.13512235 75.11530203 0.14964936 81.44699097 0.16436768 C82.63731052 0.1662484 83.82763008 0.16812912 85.05401993 0.17006683 C125.48555964 0.25247339 125.48555964 0.25247339 131.084198 4.62481689 C136.58234342 11.38433499 137.69563256 22.05230093 139.39398193 30.32589722 C140.12534348 33.87934019 140.88607935 37.42641994 141.65011597 40.97296143 C141.80425461 41.68856735 141.95839325 42.40417328 142.11720276 43.14146423 C143.54602775 49.70242588 145.20713201 56.19272735 146.93917847 62.67999268 C149.55142585 72.52363263 151.98941683 82.39725468 154.2824707 92.31948853 C154.63001328 93.82154348 154.97991039 95.3230561 155.3324585 96.82394409 C160.17909028 117.5014417 164.89687561 140.28907301 154.05636597 159.94952393 C145.80804903 172.77793644 134.08349526 182.62505308 122.30636597 192.09796143 C119.20930526 194.60407879 116.16431573 197.1650213 113.12667847 199.74249268 C112.58269409 200.20188232 112.03870972 200.66127197 111.47824097 201.13458252 C108.7108624 203.47526916 105.96320041 205.83439111 103.24386597 208.23077393 C91.21638415 218.76455222 79.05007714 227.83945643 62.31417847 227.49249268 C35.47746526 224.70006359 -3.71022013 213.42145273 -24.49832153 195.36749268 C-40.12951917 175.9501918 -41.18826445 149.76540681 -38.77761841 126.00274658 C-36.26890251 104.3668639 -30.48251796 83.40457051 -24.27566528 62.58233643 C-21.72699166 53.78691372 -20.16160084 45.04699812 -18.86257935 35.99346924 C-13.57366574 -0.02484967 -13.57366574 -0.02484967 0 0 Z " fill="#FFFFFF" transform="translate(45.498321533203125,300.63250732421875)"/>
<path d="M0 0 C10.52850253 8.42676756 14.53469109 20.68111816 16.02294922 33.69433594 C16.42702781 38.26226512 16.63981866 42.826713 16.76171875 47.41015625 C17.51066406 47.51714844 18.25960937 47.62414063 19.03125 47.734375 C21.9317732 48.45224412 23.24086674 49.26243368 25.44921875 51.22265625 C26.32126953 51.97482422 26.32126953 51.97482422 27.2109375 52.7421875 C31.16559448 56.99568506 31.19369217 61.11452742 31.07421875 66.71484375 C30.62791871 70.56418157 29.41625982 72.61590249 26.76171875 75.41015625 C23.00951694 77.75528238 21.2321002 78.41015625 16.76171875 78.41015625 C16.76171875 83.03015625 16.76171875 87.65015625 16.76171875 92.41015625 C19.73171875 93.40015625 19.73171875 93.40015625 22.76171875 94.41015625 C26.47919257 97.62070182 29.31071333 100.57301751 30.09765625 105.5234375 C30.20141989 111.36533027 29.25980036 114.68301894 25.76171875 119.41015625 C22.34691106 122.05663221 21.17631353 122.41015625 16.76171875 122.41015625 C16.58406832 125.607864 16.72942161 128.36313426 17.76171875 131.41015625 C19.88753736 133.35001856 22.00946266 134.65363951 24.53515625 136.0234375 C27.03976827 137.58332745 28.28457165 138.86126204 29.76171875 141.41015625 C30.63793313 146.19381316 30.26307925 150.30298515 28.26171875 154.72265625 C25.16839476 158.04797954 21.84130403 160.41451496 17.76171875 162.41015625 C17.10171875 162.41015625 16.44171875 162.41015625 15.76171875 162.41015625 C15.76171875 165.05015625 15.76171875 167.69015625 15.76171875 170.41015625 C16.46296875 170.47203125 17.16421875 170.53390625 17.88671875 170.59765625 C23.21227493 172.10270474 25.99924297 175.06311571 28.63671875 179.72265625 C30.26653012 185.06481573 30.53914182 189.1236178 28.69921875 194.53515625 C25.89963306 198.68938018 22.27395558 202.15403784 17.76171875 204.41015625 C17.10399447 207.43950116 17.10399447 207.43950116 16.76171875 210.41015625 C17.48359375 210.65765625 18.20546875 210.90515625 18.94921875 211.16015625 C24.40260117 213.58388177 27.62832683 216.74857873 30.09765625 222.12890625 C31.69333273 227.61052428 30.64142573 232.65074229 28.13671875 237.66015625 C26.08731502 240.03315004 24.45526788 241.33191704 21.94921875 243.09765625 C19.63353645 245.0026513 18.83704624 245.80059829 18.46484375 248.8125 C18.71583761 251.72821198 19.23372603 254.53259592 19.76171875 257.41015625 C19.78492188 258.83908203 19.78492188 258.83908203 19.80859375 260.296875 C20.25986776 269.68588154 25.70538018 274.21069405 32.28125 280.18359375 C43.31278 290.28812947 46.48321919 302.06203163 49.47106934 316.27786255 C50.40584385 320.72099628 51.38200789 325.1550535 52.35546875 329.58984375 C52.55299744 330.49362259 52.75052612 331.39740143 52.95404053 332.3285675 C54.95587347 341.42392937 57.21316235 350.44856822 59.51171875 359.47265625 C76.88321529 428.00346412 76.88321529 428.00346412 63.5625 452.5625 C56.71954591 463.38357056 47.74337475 471.92561294 37.8515625 479.890625 C34.43762219 482.67443221 31.09637539 485.53241388 27.76171875 488.41015625 C22.70183166 492.76876797 17.59621586 497.05867321 12.40234375 501.2578125 C10.60377949 502.723802 8.82302101 504.21184753 7.05859375 505.71875 C-4.47503415 515.48938049 -17.02054604 523.43634404 -32.7421875 522.6796875 C-61.79923989 519.54207151 -102.95044455 508.3794596 -125.23828125 488.41015625 C-142.35590696 466.3603333 -143.31274044 437.36392831 -140.11328125 410.78515625 C-137.56254165 391.45323506 -132.75338225 372.77391656 -127.08331299 354.15182495 C-123.72793018 343.05436162 -121.6527863 332.05387338 -119.90771484 320.59936523 C-117.70282176 306.35919211 -114.23251644 293.44932672 -104.59765625 282.30859375 C-104.13705811 281.77516357 -103.67645996 281.2417334 -103.2019043 280.69213867 C-101.86138503 279.16662354 -100.48990802 277.66848006 -99.1171875 276.171875 C-96.96877397 273.61506325 -96.96877397 273.61506325 -97.37890625 270.8671875 C-97.6625 270.05636719 -97.94609375 269.24554688 -98.23828125 268.41015625 C-100.41686744 259.41470358 -100.41686744 259.41470358 -99.73828125 255.59765625 C-96.68691115 251.14774151 -93.4477021 248.71251146 -88.23828125 247.41015625 C-88.23828125 240.15015625 -88.23828125 232.89015625 -88.23828125 225.41015625 C-90.87828125 224.09015625 -93.51828125 222.77015625 -96.23828125 221.41015625 C-100.45580397 216.11121745 -101.72819808 211.64383505 -101.640625 204.98828125 C-101.07061957 201.33581925 -99.66572685 199.35313323 -97.10546875 196.75 C-93.97001909 194.50008529 -91.02559775 193.99784329 -87.23828125 193.41015625 C-86.94036783 185.99959411 -86.94036783 185.99959411 -89.7578125 179.453125 C-91.54053485 178.03070022 -93.3710573 176.71848323 -95.23828125 175.41015625 C-98.57146536 171.53936181 -98.81476913 167.80553654 -98.65234375 162.8515625 C-97.95015801 158.71131641 -96.40464834 157.16351894 -93.23828125 154.41015625 C-89.92578125 153.03515625 -89.92578125 153.03515625 -87.23828125 152.41015625 C-87.23828125 149.11015625 -87.23828125 145.81015625 -87.23828125 142.41015625 C-88.55828125 142.08015625 -89.87828125 141.75015625 -91.23828125 141.41015625 C-95.91666788 137.28872041 -98.04934507 134.75296493 -98.55078125 128.53515625 C-98.40751267 124.46331249 -97.60759904 121.81605057 -95.23828125 118.41015625 C-93.85895179 117.46883871 -92.46137231 116.55394669 -91.05078125 115.66015625 C-88.5555542 113.89636867 -87.4288928 112.97083314 -86.4375 110.0546875 C-86.21548544 107.17720468 -86.34219438 105.15961304 -87.23828125 102.41015625 C-89.07583275 100.26985026 -91.0118862 98.68962011 -93.2578125 96.98828125 C-96.00722239 94.79742998 -97.13332142 92.72503574 -98.23828125 89.41015625 C-98.80130294 84.15528712 -98.15056218 80.82554991 -95.23828125 76.41015625 C-93.05556376 74.20217583 -90.80910253 72.15707577 -88.23828125 70.41015625 C-87.57828125 70.41015625 -86.91828125 70.41015625 -86.23828125 70.41015625 C-86.06075273 67.21464285 -86.20499843 64.4548294 -87.23828125 61.41015625 C-89.36240125 59.59132475 -91.5873225 58.32647629 -94.00390625 56.92578125 C-97.613426 54.47736576 -99.09814702 51.55541247 -100.23828125 47.41015625 C-101.00241612 42.67252006 -100.73983 39.4325441 -98.61328125 35.09765625 C-95.33421768 31.38713695 -92.43553332 28.60122165 -87.36328125 28.16015625 C-86.66203125 28.24265625 -85.96078125 28.32515625 -85.23828125 28.41015625 C-85.19703125 27.17265625 -85.15578125 25.93515625 -85.11328125 24.66015625 C-84.0236889 15.05055709 -78.42587345 5.7706049 -71.23828125 -0.58984375 C-49.87702911 -16.31816296 -21.22912995 -15.07898061 0 0 Z M-70.23828125 7.41015625 C-76.22949739 15.24383241 -80.23828125 23.41538724 -80.23828125 33.41015625 C-80.91375 33.49652344 -81.58921875 33.58289062 -82.28515625 33.671875 C-88.04640157 34.55941438 -88.04640157 34.55941438 -92.86328125 37.66015625 C-94.53128772 40.99616919 -94.84010924 42.7239598 -94.23828125 46.41015625 C-91.5508879 51.78494295 -88.50849765 53.91878123 -83.23828125 56.41015625 C-82.24828125 56.41015625 -81.25828125 56.41015625 -80.23828125 56.41015625 C-80.23828125 62.35015625 -80.23828125 68.29015625 -80.23828125 74.41015625 C-83.20828125 75.40015625 -83.20828125 75.40015625 -86.23828125 76.41015625 C-88.82060195 78.38732705 -90.63667387 80.58007582 -92.23828125 83.41015625 C-92.89456716 86.98727748 -92.89456716 86.98727748 -91.23828125 90.41015625 C-88.31184957 93.59685626 -85.12519475 96.4666995 -81.23828125 98.41015625 C-80.90828125 104.68015625 -80.57828125 110.95015625 -80.23828125 117.41015625 C-83.20828125 118.40015625 -83.20828125 118.40015625 -86.23828125 119.41015625 C-89.91390961 121.61553326 -91.02865036 122.68955008 -92.23828125 126.84765625 C-92.23828125 130.82864565 -91.75602485 132.37150018 -89.23828125 135.41015625 C-86.23170007 137.44687254 -85.04731529 137.41015625 -81.23828125 137.41015625 C-81.56828125 143.68015625 -81.89828125 149.95015625 -82.23828125 156.41015625 C-86.19828125 158.39015625 -86.19828125 158.39015625 -90.23828125 160.41015625 C-92.49238284 162.27277276 -92.49238284 162.27277276 -92.67578125 165.16015625 C-92.08497867 169.54897543 -90.33705145 171.31138605 -87.23828125 174.41015625 C-85.93890625 174.89355469 -85.93890625 174.89355469 -84.61328125 175.38671875 C-82.23828125 177.41015625 -82.23828125 177.41015625 -81.74291992 179.70922852 C-81.51883561 182.68021946 -81.44265596 185.61833175 -81.42578125 188.59765625 C-81.40064453 189.63341797 -81.37550781 190.66917969 -81.34960938 191.73632812 C-81.29066182 194.29465204 -81.25443868 196.8512623 -81.23828125 199.41015625 C-82.32367188 199.38179687 -83.4090625 199.3534375 -84.52734375 199.32421875 C-88.62223785 199.41904788 -90.78537069 200.27264019 -94.23828125 202.41015625 C-95.83955199 205.61269772 -95.64529732 207.86330189 -95.23828125 211.41015625 C-93.67842895 214.32840391 -92.00619818 216.58209171 -89.23828125 218.41015625 C-86.59828125 218.74015625 -83.95828125 219.07015625 -81.23828125 219.41015625 C-81.56828125 229.97015625 -81.89828125 240.53015625 -82.23828125 251.41015625 C-84.21828125 252.07015625 -86.19828125 252.73015625 -88.23828125 253.41015625 C-92.23852933 256.1387731 -92.23852933 256.1387731 -94.23828125 260.41015625 C-93.32918031 262.47421561 -92.36235263 264.51311225 -91.36328125 266.53515625 C-89.921875 270.02734375 -89.921875 270.02734375 -89.23828125 273.41015625 C-90.87459135 277.18464793 -93.27428836 279.61572817 -96.23828125 282.41015625 C-96.23828125 282.74015625 -96.23828125 283.07015625 -96.23828125 283.41015625 C-55.97828125 283.41015625 -15.71828125 283.41015625 25.76171875 283.41015625 C21.38799314 278.29322224 21.38799314 278.29322224 16.76171875 273.41015625 C16.08569336 271.42407227 16.08569336 271.42407227 15.6640625 269.1640625 C15.42284668 267.91544434 15.42284668 267.91544434 15.17675781 266.64160156 C15.01916992 265.76084961 14.86158203 264.88009766 14.69921875 263.97265625 C14.5300293 263.07772461 14.36083984 262.18279297 14.18652344 261.26074219 C12.95037548 254.66080774 11.78681515 248.04630663 10.76171875 241.41015625 C11.52226562 241.2915625 12.2828125 241.17296875 13.06640625 241.05078125 C17.78209528 239.92995081 20.7053049 236.70511516 23.69921875 233.03515625 C25.17619102 229.38616594 24.77293088 227.18534821 23.76171875 223.41015625 C20.95819605 218.77356102 17.49268009 216.77563692 12.76171875 214.41015625 C12.10171875 214.41015625 11.44171875 214.41015625 10.76171875 214.41015625 C11.09171875 209.46015625 11.42171875 204.51015625 11.76171875 199.41015625 C12.83421875 198.99765625 13.90671875 198.58515625 15.01171875 198.16015625 C18.33156098 196.70184499 20.62831151 195.44615886 22.76171875 192.41015625 C24.19872847 188.05247094 24.17050519 185.2767835 22.19921875 181.09765625 C19.53338208 178.15840043 17.46356461 176.79834845 13.76171875 175.41015625 C12.44171875 175.41015625 11.12171875 175.41015625 9.76171875 175.41015625 C10.09171875 169.47015625 10.42171875 163.53015625 10.76171875 157.41015625 C14.22671875 156.42015625 14.22671875 156.42015625 17.76171875 155.41015625 C21.47308206 153.23174735 22.53834355 152.09269159 23.88671875 147.97265625 C24.098098 144.31288424 24.098098 144.31288424 21.69921875 141.66015625 C16.73124482 137.78097319 16.73124482 137.78097319 10.76171875 136.41015625 C10.76171875 130.14015625 10.76171875 123.87015625 10.76171875 117.41015625 C13.40171875 117.08015625 16.04171875 116.75015625 18.76171875 116.41015625 C22.01717344 114.23985312 22.64628934 112.77681439 23.82421875 109.03515625 C24.07668259 105.26293358 24.07668259 105.26293358 21.63671875 102.09765625 C18.03366285 98.72958225 15.68173347 97.41015625 10.76171875 97.41015625 C10.76171875 89.16015625 10.76171875 80.91015625 10.76171875 72.41015625 C13.73171875 72.41015625 16.70171875 72.41015625 19.76171875 72.41015625 C22.97184922 70.53374455 22.97184922 70.53374455 24.76171875 67.41015625 C25.59987083 62.80031983 25.16603636 61.02240863 22.57421875 57.09765625 C18.5725015 53.2737931 16.2650804 52.41015625 10.76171875 52.41015625 C10.7359375 51.22421875 10.71015625 50.03828125 10.68359375 48.81640625 C10.18864417 32.83019922 9.03110934 17.41338553 -3.046875 5.6484375 C-21.28463007 -9.40434579 -53.57549419 -10.97636741 -70.23828125 7.41015625 Z M-107.7421875 298.83984375 C-112.84283719 310.62215632 -114.76771613 323.7736295 -116.69482422 336.40185547 C-117.85543195 343.99890131 -119.77585541 351.18164832 -121.98828125 358.53515625 C-132.54805619 394.72771973 -144.57520117 438.47836503 -126.75390625 474.40234375 C-115.33651307 494.23565046 -89.65257844 500.4549799 -69.17578125 507.28515625 C-68.47403778 507.52003754 -67.77229431 507.75491882 -67.04928589 507.99691772 C-41.41331918 516.95172781 -41.41331918 516.95172781 -15.23828125 513.41015625 C-5.04048491 508.05422101 3.41305131 500.66930272 11.94775391 493.02246094 C14.76234648 490.52076923 17.63301744 488.08751571 20.51171875 485.66015625 C21.04547119 485.20842041 21.57922363 484.75668457 22.12915039 484.29125977 C25.4702834 481.47174475 28.8562194 478.71378795 32.26171875 475.97265625 C47.84022495 463.18738075 60.11704705 451.41862419 64.51171875 430.91015625 C65.88822855 411.63901909 61.46583534 392.98754107 57.01171875 374.34765625 C56.56513666 372.45223661 56.11893368 370.55672762 55.6730957 368.66113281 C52.97146043 357.22688528 50.13257658 345.83658928 47.10131836 334.48486328 C44.9456928 326.35371214 43.12253888 318.17411043 41.53393555 309.91308594 C39.89433782 301.62785167 39.89433782 301.62785167 35.76171875 294.41015625 C30.80569415 291.14482248 27.4892279 289.88893326 21.44604492 289.68164062 C20.3625956 289.63941502 20.3625956 289.63941502 19.25725842 289.59633636 C16.75879275 289.50935239 14.26125766 289.45665039 11.76171875 289.41015625 C10.82917393 289.39002472 9.8966291 289.36989319 8.93582535 289.34915161 C-6.38767815 289.03564092 -21.71656583 289.00955526 -37.04272461 288.95019531 C-42.3181127 288.92775835 -47.59281132 288.88570759 -52.86791992 288.82714844 C-59.27423783 288.75622404 -65.67989766 288.71939568 -72.08658791 288.70707703 C-74.51832975 288.6966749 -76.95005145 288.67424741 -79.381567 288.63948059 C-82.77039117 288.5934412 -86.15658843 288.59125258 -89.5456543 288.59960938 C-91.04415924 288.56421555 -91.04415924 288.56421555 -92.57293701 288.52810669 C-100.96861355 288.62844706 -103.53636536 292.04498305 -107.7421875 298.83984375 Z " fill="#11110E" transform="translate(141.23828125,11.58984375)"/>
</svg>
