<?xml version="1.0" encoding="UTF-8"?>
<svg version="1.1" xmlns="http://www.w3.org/2000/svg" width="259" height="568">
<path d="M0 0 C8.59725361 5.79380135 11.37793501 13.82145106 13.4609375 23.72265625 C14.10424508 28.7173934 14.1568809 33.74049566 14.21679688 38.7734375 C14.39381199 43.91099253 15.32271514 47.35702472 17.83213842 51.82804185 C21.24292262 58.72723793 21.28794923 66.7906706 21.63290405 74.33027649 C21.68937992 75.43042583 21.74585579 76.53057518 21.80404305 77.66406238 C21.98794689 81.28393207 22.16082089 84.90423692 22.33349609 88.5246582 C22.46133174 91.08904954 22.58979279 93.65340977 22.71884727 96.21774006 C23.05007778 102.84154538 23.37168193 109.46576106 23.6898489 116.09020281 C23.86561208 119.74242626 24.04336103 123.39454586 24.22205353 127.04662704 C24.9533117 141.99751103 25.66391697 156.94932246 26.36747026 171.90153289 C26.66330047 178.17947839 26.96117731 184.4573268 27.25888062 190.73518372 C28.10347935 208.5531135 28.94503879 226.37118665 29.78633241 244.18927274 C29.94575654 247.56571702 30.10519712 250.94216052 30.26464844 254.31860352 C30.29615182 254.98570861 30.32765519 255.65281371 30.36011322 256.34013411 C30.88673061 267.4907654 31.41468025 278.64133331 31.94356 289.79185754 C32.29516008 297.20664879 32.64518346 304.62151217 32.99394631 312.03643739 C33.2103598 316.6303358 33.42817155 321.22416715 33.64635658 325.81798172 C33.74650964 327.93263437 33.84609262 330.04731412 33.94503975 332.16202354 C34.4421216 354.42678501 34.4421216 354.42678501 39.15625 376.00390625 C39.65060043 377.48829445 39.65060043 377.48829445 40.15493774 379.00267029 C40.85443381 381.09704645 41.561231 383.18899695 42.27496338 385.27856445 C43.39248505 388.55120461 44.48972808 391.83002875 45.58154297 395.11132812 C47.02237153 399.43957185 48.46890505 403.76582141 49.92089844 408.09033203 C75.90367553 485.64337513 75.90367553 485.64337513 59.30859375 520.19921875 C55.38345373 527.31182746 50.59619924 533.19741891 44.875 538.9375 C44.11445313 539.72125 43.35390625 540.505 42.5703125 541.3125 C29.50874632 553.98864292 13.65133013 558.48301549 -4.19995117 558.35522461 C-16.32334349 558.0098319 -26.63428211 554.92171028 -36.94091797 548.4921875 C-41.51165326 545.76278001 -44.00269785 545.8764517 -49.125 546.9375 C-51.71509607 547.85548479 -54.19889795 548.80995725 -56.71875 549.88671875 C-57.78252869 550.32936821 -57.78252869 550.32936821 -58.86779785 550.78096008 C-61.12346783 551.72137407 -63.37429964 552.67276199 -65.625 553.625 C-67.10384271 554.244914 -68.58300736 554.86406061 -70.0625 555.48242188 C-70.79082031 555.78705353 -71.51914063 556.09168518 -72.26953125 556.4055481 C-73.73401876 557.01730248 -75.1988622 557.6282055 -76.6640625 558.23825073 C-80.21243403 559.71599366 -83.75333022 561.2069299 -87.28125 562.73291016 C-88.59355112 563.28725489 -89.90604224 563.84115014 -91.21875 564.39453125 C-92.93094727 565.13086792 -92.93094727 565.13086792 -94.67773438 565.88208008 C-103.49955294 568.58298105 -111.55174952 566.35115998 -119.5 562.15625 C-128.80837125 556.81963431 -137.53596343 550.59179537 -146.22119141 544.30957031 C-147.90288304 543.09757917 -149.59702681 541.90290656 -151.29296875 540.7109375 C-157.65843132 536.20393861 -163.45334042 531.28776554 -169.125 525.9375 C-170.19234375 524.96683594 -170.19234375 524.96683594 -171.28125 523.9765625 C-183.73479033 512.24149565 -190.87302046 496.12376898 -191.40893555 479.09692383 C-191.59940619 464.69766878 -188.72138136 451.40550817 -184.6171875 437.65625 C-184.09534378 435.90249557 -184.09534378 435.90249557 -183.56295776 434.11331177 C-179.47894563 420.56010242 -174.87268377 407.1893465 -170.25 393.8125 C-168.96585936 390.09313712 -167.683538 386.37320038 -166.40719604 382.65115356 C-165.62381877 380.36675197 -164.83612904 378.08382266 -164.04324341 375.80270386 C-160.995128 366.91576676 -158.97085648 358.48980661 -158.265625 349.125 C-158.19612137 348.27178665 -158.12661774 347.4185733 -158.05500793 346.539505 C-157.90327699 344.66666681 -157.7544524 342.7935914 -157.60818481 340.9203186 C-157.36787361 337.84634168 -157.11928207 334.77312311 -156.86889648 331.69995117 C-156.1645524 323.02868487 -155.47587636 314.35617421 -154.78717041 305.68365479 C-138.8651082 105.23502194 -138.8651082 105.23502194 -99.125 57.9375 C-98.45984375 57.12667969 -97.7946875 56.31585938 -97.109375 55.48046875 C-88.6796899 45.61045976 -77.81492939 36.55306647 -65.125 32.9375 C-63.32422234 33.02944805 -61.52462017 33.14618245 -59.7265625 33.28125 C-56.43105613 33.35262978 -54.68991386 33.30349266 -51.90356445 31.49829102 C-49.79782454 29.43262618 -47.92615811 27.28614748 -46.0625 25 C-44.68490922 23.42999105 -43.3047138 21.86226355 -41.921875 20.296875 C-41.26896484 19.54083984 -40.61605469 18.78480469 -39.94335938 18.00585938 C-30.46556826 7.22499924 -15.19438255 -5.16609007 0 0 Z " fill="#FFFFFF" transform="translate(191.125,1.0625)"/>
<path d="M0 0 C59.73 0 119.46 0 181 0 C181.99 6.435 181.99 6.435 183 13 C183.8713481 16.58284001 183.8713481 16.58284001 184.93603516 19.61523438 C185.3104776 20.74191528 185.68492004 21.86859619 186.07070923 23.02941895 C186.47276581 24.20564819 186.87482239 25.38187744 187.2890625 26.59375 C187.71657467 27.87295437 188.14292703 29.15254684 188.56820679 30.43249512 C189.90880303 34.45895872 191.26643671 38.47957085 192.625 42.5 C194.39835061 47.75698286 196.16360048 53.01659821 197.9140625 58.28125 C198.23745983 59.2537523 198.23745983 59.2537523 198.56739044 60.24590111 C221.28739044 128.82649626 221.28739044 128.82649626 206 160 C197.09631048 176.00230303 183.64799594 188.23990617 165.96484375 193.52734375 C165.31644531 193.68332031 164.66804687 193.83929687 164 194 C163.25621094 194.18046875 162.51242188 194.3609375 161.74609375 194.546875 C143.06128228 197.63000179 128.6740032 191.89280171 112 183 C112 170.13 112 157.26 112 144 C110.02 144 108.04 144 106 144 C106 156.54 106 169.08 106 182 C89.16759566 188.94670655 89.16759566 188.94670655 82.96318054 191.48765564 C77.15827572 193.86501807 71.36400812 196.257836 65.60546875 198.74609375 C64.71118164 199.12507812 63.81689453 199.5040625 62.89550781 199.89453125 C61.31630513 200.5646101 59.74331316 201.24962897 58.17871094 201.953125 C51.7151032 204.65646716 46.67534345 204.47717608 40.16992188 201.86254883 C32.76088194 198.33532175 26.0990371 193.88647989 19.4375 189.125 C18.48681641 188.45597656 17.53613281 187.78695312 16.55664062 187.09765625 C13.69480762 185.07822548 10.84550676 183.04235919 8 181 C7.01692871 180.29721924 6.03385742 179.59443848 5.02099609 178.87036133 C-1.37929587 174.26333337 -7.25901471 169.40617654 -13 164 C-13.63808594 163.42636719 -14.27617187 162.85273437 -14.93359375 162.26171875 C-26.79669611 151.19125129 -32.71547339 135.91965655 -33.4375 119.9375 C-32.97342814 100.3564379 -26.55056636 81.18919517 -20.3125 62.8125 C-19.59936081 60.67437191 -18.88762577 58.53577502 -18.17724609 56.39672852 C-16.44832073 51.20100308 -14.70367862 46.01075439 -12.9520874 40.82263184 C-11.3218942 35.98963518 -9.70450153 31.15236402 -8.08937073 26.3143158 C-7.03880667 23.16741588 -5.98422238 20.02217894 -4.91918945 16.88012695 C-4.55656006 15.804646 -4.19393066 14.72916504 -3.8203125 13.62109375 C-3.51367676 12.7180249 -3.20704102 11.81495605 -2.89111328 10.88452148 C-1.78306824 7.29779488 -0.91047407 3.64189628 0 0 Z " fill="#FFFFFF" transform="translate(39,358)"/>
<path d="M0 0 C8.59725361 5.79380135 11.37793501 13.82145106 13.4609375 23.72265625 C14.10424508 28.7173934 14.1568809 33.74049566 14.21679688 38.7734375 C14.39381199 43.91099253 15.32271514 47.35702472 17.83213842 51.82804185 C21.24292262 58.72723793 21.28794923 66.7906706 21.63290405 74.33027649 C21.68937992 75.43042583 21.74585579 76.53057518 21.80404305 77.66406238 C21.98794689 81.28393207 22.16082089 84.90423692 22.33349609 88.5246582 C22.46133174 91.08904954 22.58979279 93.65340977 22.71884727 96.21774006 C23.05007778 102.84154538 23.37168193 109.46576106 23.6898489 116.09020281 C23.86561208 119.74242626 24.04336103 123.39454586 24.22205353 127.04662704 C24.9533117 141.99751103 25.66391697 156.94932246 26.36747026 171.90153289 C26.66330047 178.17947839 26.96117731 184.4573268 27.25888062 190.73518372 C28.10347935 208.5531135 28.94503879 226.37118665 29.78633241 244.18927274 C29.94575654 247.56571702 30.10519712 250.94216052 30.26464844 254.31860352 C30.29615182 254.98570861 30.32765519 255.65281371 30.36011322 256.34013411 C30.88673061 267.4907654 31.41468025 278.64133331 31.94356 289.79185754 C32.29516008 297.20664879 32.64518346 304.62151217 32.99394631 312.03643739 C33.2103598 316.6303358 33.42817155 321.22416715 33.64635658 325.81798172 C33.74650964 327.93263437 33.84609262 330.04731412 33.94503975 332.16202354 C34.4421216 354.42678501 34.4421216 354.42678501 39.15625 376.00390625 C39.65060043 377.48829445 39.65060043 377.48829445 40.15493774 379.00267029 C40.85443381 381.09704645 41.561231 383.18899695 42.27496338 385.27856445 C43.39248505 388.55120461 44.48972808 391.83002875 45.58154297 395.11132812 C47.02237153 399.43957185 48.46890505 403.76582141 49.92089844 408.09033203 C75.90367553 485.64337513 75.90367553 485.64337513 59.30859375 520.19921875 C55.38345373 527.31182746 50.59619924 533.19741891 44.875 538.9375 C44.11445313 539.72125 43.35390625 540.505 42.5703125 541.3125 C29.50874632 553.98864292 13.65133013 558.48301549 -4.19995117 558.35522461 C-16.32334349 558.0098319 -26.63428211 554.92171028 -36.94091797 548.4921875 C-41.51165326 545.76278001 -44.00269785 545.8764517 -49.125 546.9375 C-51.71509607 547.85548479 -54.19889795 548.80995725 -56.71875 549.88671875 C-57.78252869 550.32936821 -57.78252869 550.32936821 -58.86779785 550.78096008 C-61.12346783 551.72137407 -63.37429964 552.67276199 -65.625 553.625 C-67.10384271 554.244914 -68.58300736 554.86406061 -70.0625 555.48242188 C-70.79082031 555.78705353 -71.51914063 556.09168518 -72.26953125 556.4055481 C-73.73401876 557.01730248 -75.1988622 557.6282055 -76.6640625 558.23825073 C-80.21243403 559.71599366 -83.75333022 561.2069299 -87.28125 562.73291016 C-88.59355112 563.28725489 -89.90604224 563.84115014 -91.21875 564.39453125 C-92.93094727 565.13086792 -92.93094727 565.13086792 -94.67773438 565.88208008 C-103.49955294 568.58298105 -111.55174952 566.35115998 -119.5 562.15625 C-128.80837125 556.81963431 -137.53596343 550.59179537 -146.22119141 544.30957031 C-147.90288304 543.09757917 -149.59702681 541.90290656 -151.29296875 540.7109375 C-157.65843132 536.20393861 -163.45334042 531.28776554 -169.125 525.9375 C-170.19234375 524.96683594 -170.19234375 524.96683594 -171.28125 523.9765625 C-183.73479033 512.24149565 -190.87302046 496.12376898 -191.40893555 479.09692383 C-191.59940619 464.69766878 -188.72138136 451.40550817 -184.6171875 437.65625 C-184.09534378 435.90249557 -184.09534378 435.90249557 -183.56295776 434.11331177 C-179.47894563 420.56010242 -174.87268377 407.1893465 -170.25 393.8125 C-168.96585936 390.09313712 -167.683538 386.37320038 -166.40719604 382.65115356 C-165.62381877 380.36675197 -164.83612904 378.08382266 -164.04324341 375.80270386 C-160.995128 366.91576676 -158.97085648 358.48980661 -158.265625 349.125 C-158.19612137 348.27178665 -158.12661774 347.4185733 -158.05500793 346.539505 C-157.90327699 344.66666681 -157.7544524 342.7935914 -157.60818481 340.9203186 C-157.36787361 337.84634168 -157.11928207 334.77312311 -156.86889648 331.69995117 C-156.1645524 323.02868487 -155.47587636 314.35617421 -154.78717041 305.68365479 C-138.8651082 105.23502194 -138.8651082 105.23502194 -99.125 57.9375 C-98.45984375 57.12667969 -97.7946875 56.31585938 -97.109375 55.48046875 C-88.6796899 45.61045976 -77.81492939 36.55306647 -65.125 32.9375 C-63.32422234 33.02944805 -61.52462017 33.14618245 -59.7265625 33.28125 C-56.43105613 33.35262978 -54.68991386 33.30349266 -51.90356445 31.49829102 C-49.79782454 29.43262618 -47.92615811 27.28614748 -46.0625 25 C-44.68490922 23.42999105 -43.3047138 21.86226355 -41.921875 20.296875 C-41.26896484 19.54083984 -40.61605469 18.78480469 -39.94335938 18.00585938 C-30.46556826 7.22499924 -15.19438255 -5.16609007 0 0 Z M-95.78515625 63.00390625 C-99.7841974 68.01772912 -103.01857771 73.33585818 -106.125 78.9375 C-106.44678223 79.51000488 -106.76856445 80.08250977 -107.10009766 80.67236328 C-118.6929538 101.55795146 -124.97071881 124.76163084 -130.125 147.9375 C-130.3513916 148.94699707 -130.5777832 149.95649414 -130.81103516 150.99658203 C-145.09322323 216.10306449 -147.20191665 285.29638869 -152.125 350.9375 C-92.725 350.9375 -33.325 350.9375 27.875 350.9375 C27.91897508 334.98107963 27.91897508 334.98107963 27.42616272 319.06645203 C27.37786566 318.03089182 27.32956859 316.99533162 27.27980798 315.9283908 C27.12078201 312.54277012 26.95509764 309.15751236 26.78930664 305.7722168 C26.67230051 303.31089663 26.55571006 300.84955668 26.4394989 298.38819885 C26.15799581 292.44873879 25.87215592 286.50949724 25.58423907 280.57034554 C25.24809026 273.63190433 24.91718149 266.69321597 24.58647233 259.75451372 C23.99581004 247.36504696 23.40072205 234.97579689 22.80297852 222.58666992 C22.22482303 210.60341205 21.64946707 198.62002437 21.07739258 186.63647461 C21.04211403 185.89748724 21.00683549 185.15849987 20.9704879 184.39711895 C20.89940476 182.90807708 20.82832215 181.41903518 20.75724008 179.92999326 C20.72216387 179.19521328 20.68708765 178.4604333 20.65094852 177.70338726 C20.61595405 176.97029206 20.58095957 176.23719687 20.54490465 175.48188667 C19.99686117 164.00293214 19.44659899 152.52408383 18.89597462 141.04525286 C18.73034322 137.59214562 18.56481959 134.13903328 18.39954305 130.68590903 C18.02293846 122.81766559 17.64501951 114.94948715 17.264925 107.08141136 C17.15037429 104.70597094 17.03628567 102.33050817 16.92271042 99.9550209 C16.58751277 92.94842326 16.24188216 85.94251341 15.875 78.9375 C15.83444764 78.15051358 15.79389528 77.36352715 15.75211406 76.55269265 C15.64239038 74.47954898 15.52370251 72.40718098 15.40061951 70.33479309 C15.33762382 69.24360578 15.27462812 68.15241846 15.20972347 67.02816486 C14.01999532 56.04282531 9.99447127 46.86292809 1.3125 39.875 C-1.80899526 38.6744249 -3.80094001 38.46263429 -7.125 38.9375 C-16.09362123 43.23496434 -19.72239296 52.45617777 -22.94091797 61.32641602 C-32.92738953 90.23859715 -34.67846617 120.73076541 -36.22924805 151.03729248 C-37.46763422 175.12448079 -39.02980895 199.40569654 -45.25 222.8125 C-45.53496338 223.92399414 -45.81992676 225.03548828 -46.11352539 226.18066406 C-49.76188434 239.97677003 -54.4206965 253.47223188 -59.125 266.9375 C-81.69549174 201.55350357 -72.87045601 130.62064695 -55.87768555 64.96313477 C-54.54848827 59.62004626 -53.96475791 54.84040497 -53.9375 49.3125 C-53.92332031 48.00023437 -53.90914063 46.68796875 -53.89453125 45.3359375 C-53.85075171 41.81031283 -53.85075171 41.81031283 -56.125 38.9375 C-71.54545521 37.15098385 -86.53904075 52.4723908 -95.78515625 63.00390625 Z M-152.125 356.9375 C-154.105 363.8675 -156.085 370.7975 -158.125 377.9375 C-159.36890141 381.80162289 -160.62340312 385.63364887 -161.96484375 389.4609375 C-162.29488907 390.41988922 -162.62493439 391.37884094 -162.96498108 392.36685181 C-163.9923188 395.35055145 -165.02658565 398.33176841 -166.0625 401.3125 C-170.19861704 413.23268912 -174.27405353 425.159375 -177.9765625 437.22265625 C-178.4000724 438.59210892 -178.4000724 438.59210892 -178.83213806 439.98922729 C-185.35657732 461.5529746 -188.96877582 483.72413278 -178.5625 504.6875 C-174.66169909 511.22477188 -169.48135398 516.59403515 -164.125 521.9375 C-162.89330078 523.18660156 -162.89330078 523.18660156 -161.63671875 524.4609375 C-153.99343415 531.8070493 -145.29123834 537.53261474 -136.47900391 543.37109375 C-134.27976707 544.83451457 -132.0963519 546.31827588 -129.91796875 547.8125 C-116.22996505 557.63043165 -116.22996505 557.63043165 -100.125 560.9375 C-96.31834516 560.00344735 -92.80814744 558.52630065 -89.2109375 556.984375 C-87.6901207 556.36033783 -87.6901207 556.36033783 -86.13858032 555.72369385 C-82.91763369 554.39691278 -79.7090506 553.04276461 -76.5 551.6875 C-74.33669299 550.79114323 -72.17263631 549.89659349 -70.0078125 549.00390625 C-62.02320638 545.70262088 -54.06658335 542.34103572 -46.125 538.9375 C-46.125 526.3975 -46.125 513.8575 -46.125 500.9375 C-44.145 500.9375 -42.165 500.9375 -40.125 500.9375 C-40.125 513.8075 -40.125 526.6775 -40.125 539.9375 C-21.75834663 549.73304847 -4.4622773 556.05481455 15.9765625 550.03515625 C32.72889463 543.69094422 46.96694612 531.103135 54.875 514.9375 C69.48006814 478.62655711 54.94990547 443.27050826 43.32421875 408.1484375 C42.9202034 406.92498627 42.51618805 405.70153503 42.09992981 404.44100952 C40.05115816 398.23907216 37.99066303 392.04153843 35.9074707 385.85107422 C35.13589692 383.53103538 34.3646433 381.21089004 33.59375 378.890625 C33.05369576 377.30621109 33.05369576 377.30621109 32.50273132 375.68978882 C32.17118546 374.68517609 31.83963959 373.68056335 31.49804688 372.64550781 C31.06244446 371.34894257 31.06244446 371.34894257 30.61804199 370.02618408 C29.58856885 365.74686025 29.31295686 361.3170686 28.875 356.9375 C-30.855 356.9375 -90.585 356.9375 -152.125 356.9375 Z " fill="#11110E" transform="translate(191.125,1.0625)"/>
<path d="M0 0 C6.63600799 4.9544856 8.00187825 12.46308296 9.6875 20.125 C10.08462701 23.77856846 10.06335502 27.32540892 10 31 C9.236875 30.690625 8.47375 30.38125 7.6875 30.0625 C1.24486966 27.51541358 -4.05686985 26.88364029 -10.625 29.375 C-23.84778267 38.30190166 -27.6521087 58.75392723 -31.25 73.1875 C-31.60106812 74.56240601 -31.60106812 74.56240601 -31.95922852 75.96508789 C-37.17009326 98.06878827 -37.8533063 121.02703534 -39.11462402 143.61523438 C-41.59471669 187.90900419 -41.59471669 187.90900419 -46.8125 209.1875 C-47.06531738 210.25339355 -47.31813477 211.31928711 -47.57861328 212.41748047 C-49.99422193 222.3969358 -52.88665106 232.2183434 -56 242 C-58.40276574 239.59723426 -58.548711 238.29874767 -59.21875 235.00390625 C-59.42798096 233.98143799 -59.63721191 232.95896973 -59.8527832 231.90551758 C-70.41637131 177.34225394 -64.1215338 122.12752038 -50.50408936 68.62286377 C-47.88235391 58.25144361 -46.49270069 49.08212914 -47.15234375 38.32910156 C-47.36094057 32.99401118 -46.56876794 30.14997934 -43.125 25.8125 C-41.45754244 24.16588566 -39.74806691 22.56077403 -38 21 C-37.195625 20.1440625 -36.39125 19.288125 -35.5625 18.40625 C-26.97166604 9.26472156 -13.64707834 -4.25072932 0 0 Z " fill="#FFFFFF" transform="translate(189,7)"/>
</svg>
