<?xml version="1.0" encoding="UTF-8"?>
<svg version="1.1" xmlns="http://www.w3.org/2000/svg" width="276" height="516">
<path d="M0 0 C8.02650737 6.73471866 15.41683276 15.07732485 17 25.8125 C17.061875 26.76125 17.12375 27.71 17.1875 28.6875 C18.38375 28.77 19.58 28.8525 20.8125 28.9375 C25.98216732 29.58713961 29.27406106 31.84004172 33 35.4375 C35.13559707 39.48389445 35.83880719 43.38420174 34.59765625 47.7734375 C31.73942717 54.17685199 27.23760788 58.46745685 20.75 61.0625 C19.904375 61.26875 19.05875 61.475 18.1875 61.6875 C18.1875 64.6575 18.1875 67.6275 18.1875 70.6875 C19.033125 70.873125 19.87875 71.05875 20.75 71.25 C25.23113618 73.12392967 28.14906122 75.92921071 31.1875 79.6875 C32.85081237 84.6774371 32.72402699 88.35784616 30.75 93.25 C28.8310995 96.40397464 26.62649565 97.71215362 23.4375 99.5 C20.66820266 101.20842224 19.42673614 102.01633979 18.32421875 105.109375 C18.1069471 107.98928947 18.21558477 109.96339956 19.1875 112.6875 C21.56781456 114.97903826 24.25122271 116.2277828 27.1875 117.6875 C31.12606652 121.12112209 32.06683319 123.21536498 32.5 128.5 C32.42728205 132.90347578 31.09716369 135.31841573 28.1875 138.6875 C25.18459822 140.95499726 22.75250652 142.49916449 19.1875 143.6875 C19.1875 146.6575 19.1875 149.6275 19.1875 152.6875 C19.88875 152.77 20.59 152.8525 21.3125 152.9375 C26.17107846 154.20495525 29.41673754 156.53135631 32.1875 160.6875 C33.07464542 165.10752542 33.14715771 169.08088204 30.796875 173.015625 C28.24302059 176.013628 26.05440068 178.25656972 22.5 180.0234375 C19.89314691 181.51829958 19.89314691 181.51829958 19.48046875 184.60546875 C19.44566406 185.68441406 19.41085938 186.76335937 19.375 187.875 C19.32730469 188.96167969 19.27960938 190.04835937 19.23046875 191.16796875 C19.21628906 191.99941406 19.20210937 192.83085937 19.1875 193.6875 C19.85136719 193.78546875 20.51523438 193.8834375 21.19921875 193.984375 C27.4258707 195.03881533 31.56093948 196.1854193 35.5 201.4375 C36.93858637 206.14560083 36.67912254 210.24155135 35.125 214.8125 C31.05289688 220.8549756 27.12983946 223.37338685 20.1875 225.6875 C20.1875 232.6175 20.1875 239.5475 20.1875 246.6875 C22.53875 247.7703125 22.53875 247.7703125 24.9375 248.875 C29.01960221 250.93917916 32.00063849 252.51258258 34.1875 256.6875 C34.72061279 260.80008439 34.33830523 263.67077065 32.625 267.375 C31.12555856 270.83023463 30.90433756 271.37432653 32.1875 274.6875 C33.44605087 276.32379399 33.44605087 276.32379399 35.05859375 277.78125 C35.63287109 278.33683594 36.20714844 278.89242188 36.79882812 279.46484375 C37.40146484 280.03332031 38.00410156 280.60179687 38.625 281.1875 C39.81581706 282.3180712 41.0021839 283.45335214 42.18359375 284.59375 C42.71138428 285.09197266 43.2391748 285.59019531 43.78295898 286.10351562 C45.33298245 287.8515692 46.1796411 289.58918796 47.1875 291.6875 C48.68118842 293.46072557 50.20622774 295.20770197 51.75 296.9375 C55.68035839 301.51325859 58.93089838 306.23644033 61.875 311.5 C62.20636963 312.09006836 62.53773926 312.68013672 62.87915039 313.28808594 C64.02593341 315.40103435 65.1115514 317.53751768 66.1875 319.6875 C66.7141626 320.72914307 67.2408252 321.77078613 67.78344727 322.84399414 C72.82528239 333.0691983 76.38151575 343.6256582 79.75 354.5 C80.03064301 355.40034973 80.31128601 356.30069946 80.60043335 357.22833252 C82.508619 363.36797232 84.36926841 369.52063799 86.1875 375.6875 C86.39044678 376.37483215 86.59339355 377.06216431 86.80249023 377.77032471 C94.70733158 404.78543943 95.91612994 431.86972426 82.2734375 457.11328125 C79.68144033 461.68464352 76.62264207 465.71991091 73.1875 469.6875 C72.465625 470.6775 71.74375 471.6675 71 472.6875 C59.45754869 486.21615235 41.23720643 493.59663601 24 495.5 C6.52278803 496.48139661 -9.97699751 492.43204565 -24.6171875 482.75 C-28.11536896 481.58679052 -28.66575328 481.71682796 -31.95483398 482.90869141 C-32.75145447 483.19359436 -33.54807495 483.47849731 -34.36883545 483.77203369 C-35.5784494 484.22518951 -35.5784494 484.22518951 -36.8125 484.6875 C-37.54172668 484.95818298 -38.27095337 485.22886597 -39.02227783 485.50775146 C-41.26412137 486.35281758 -43.49787518 487.21674286 -45.73046875 488.0859375 C-46.55017654 488.40277496 -47.36988434 488.71961243 -48.21443176 489.04605103 C-50.81038626 490.0495707 -53.40530578 491.05572667 -56 492.0625 C-62.59755296 494.62161119 -69.19841097 497.17138616 -75.8125 499.6875 C-76.52051758 499.95725647 -77.22853516 500.22701294 -77.95800781 500.50494385 C-79.87854921 501.23166481 -81.80436701 501.94439699 -83.73046875 502.65625 C-84.79160889 503.05005859 -85.85274902 503.44386719 -86.94604492 503.84960938 C-95.75089902 506.4233475 -103.99718028 502.68688896 -111.8125 498.6875 C-121.72757811 493.10314566 -131.04236191 486.57247782 -140.21044922 479.8515625 C-141.74354571 478.73760272 -143.29524808 477.64938551 -144.84765625 476.5625 C-165.82862124 461.78635959 -176.97914317 440.50160875 -181.8125 415.6875 C-187.36926175 379.37911358 -176.9154991 340.73393687 -155.88671875 310.9609375 C-149.16818625 302.19763423 -141.12777699 293.74340003 -132.08203125 287.3828125 C-128.1636778 284.45584968 -124.5167021 281.20255601 -120.82275391 278 C-120.24831543 277.50242187 -119.67387695 277.00484375 -119.08203125 276.4921875 C-118.24828979 275.75355469 -118.24828979 275.75355469 -117.39770508 275 C-115.8125 273.6875 -115.8125 273.6875 -113.0625 272.0546875 C-109.3243244 268.12181525 -108.96392119 263.15215562 -108 257.9375 C-107.78408203 256.85855469 -107.56816406 255.77960938 -107.34570312 254.66796875 C-106.81662069 252.01079919 -106.30634485 249.35140394 -105.8125 246.6875 C-106.59351074 246.38730957 -107.37452148 246.08711914 -108.17919922 245.77783203 C-113.74802557 243.4720302 -118.51005089 239.28926885 -120.875 233.6875 C-122.41959683 228.49203794 -121.68576781 224.47042178 -119.3125 219.625 C-115.59086289 215.25207639 -110.93587593 212.24918796 -105.8125 209.6875 C-105.8125 208.0375 -105.8125 206.3875 -105.8125 204.6875 C-106.33199219 204.46835938 -106.85148437 204.24921875 -107.38671875 204.0234375 C-113.08440952 201.43262062 -117.21143769 198.64608985 -119.6640625 192.58203125 C-121.01835924 187.84199267 -121.09728243 184.07729429 -119.05859375 179.546875 C-115.94548699 174.90161225 -111.67116714 172.15216678 -106.3125 170.8125 C-105.4875 170.77125 -104.6625 170.73 -103.8125 170.6875 C-103.8125 168.0475 -103.8125 165.4075 -103.8125 162.6875 C-104.39257812 162.52894531 -104.97265625 162.37039062 -105.5703125 162.20703125 C-111.82272202 160.3395624 -116.15185632 158.19471212 -120.1875 152.875 C-121.41896715 148.56486498 -121.91562627 144.76372624 -119.78515625 140.75390625 C-116.02663396 135.91259638 -111.49759894 133.72150206 -105.8125 131.6875 C-105.8125 129.0475 -105.8125 126.4075 -105.8125 123.6875 C-106.48796875 123.45675781 -107.1634375 123.22601563 -107.859375 122.98828125 C-117.34182349 119.52143231 -117.34182349 119.52143231 -119.8125 114.6875 C-121.19741753 109.8999043 -121.29716558 105.96613285 -119.25 101.375 C-117.09214257 97.65251055 -114.69944863 95.63097431 -110.8125 93.6875 C-108.8325 93.3575 -106.8525 93.0275 -104.8125 92.6875 C-104.8125 88.0675 -104.8125 83.4475 -104.8125 78.6875 C-106.854375 78.5946875 -106.854375 78.5946875 -108.9375 78.5 C-114.07655061 77.93349048 -116.26797773 76.4049258 -119.8125 72.6875 C-122.35448916 68.4508514 -122.49244151 64.5142453 -121.8125 59.6875 C-118.99151885 54.15001848 -114.66367707 49.95247177 -108.8125 47.6875 C-107.4925 47.6875 -106.1725 47.6875 -104.8125 47.6875 C-104.71453125 46.38296875 -104.6165625 45.0784375 -104.515625 43.734375 C-103.07438671 26.23170909 -100.16756128 13.32055209 -86.34375 1.5703125 C-63.44913854 -15.45932133 -23.32221418 -17.23645122 0 0 Z " fill="#FFFFFF" transform="translate(182.8125,11.3125)"/>
<path d="M0 0 C8.02650737 6.73471866 15.41683276 15.07732485 17 25.8125 C17.061875 26.76125 17.12375 27.71 17.1875 28.6875 C18.38375 28.77 19.58 28.8525 20.8125 28.9375 C25.98216732 29.58713961 29.27406106 31.84004172 33 35.4375 C35.13559707 39.48389445 35.83880719 43.38420174 34.59765625 47.7734375 C31.73942717 54.17685199 27.23760788 58.46745685 20.75 61.0625 C19.904375 61.26875 19.05875 61.475 18.1875 61.6875 C18.1875 64.6575 18.1875 67.6275 18.1875 70.6875 C19.033125 70.873125 19.87875 71.05875 20.75 71.25 C25.23113618 73.12392967 28.14906122 75.92921071 31.1875 79.6875 C32.85081237 84.6774371 32.72402699 88.35784616 30.75 93.25 C28.8310995 96.40397464 26.62649565 97.71215362 23.4375 99.5 C20.66820266 101.20842224 19.42673614 102.01633979 18.32421875 105.109375 C18.1069471 107.98928947 18.21558477 109.96339956 19.1875 112.6875 C21.56781456 114.97903826 24.25122271 116.2277828 27.1875 117.6875 C31.12606652 121.12112209 32.06683319 123.21536498 32.5 128.5 C32.42728205 132.90347578 31.09716369 135.31841573 28.1875 138.6875 C25.18459822 140.95499726 22.75250652 142.49916449 19.1875 143.6875 C19.1875 146.6575 19.1875 149.6275 19.1875 152.6875 C19.88875 152.77 20.59 152.8525 21.3125 152.9375 C26.17107846 154.20495525 29.41673754 156.53135631 32.1875 160.6875 C33.07464542 165.10752542 33.14715771 169.08088204 30.796875 173.015625 C28.24302059 176.013628 26.05440068 178.25656972 22.5 180.0234375 C19.89314691 181.51829958 19.89314691 181.51829958 19.48046875 184.60546875 C19.44566406 185.68441406 19.41085938 186.76335937 19.375 187.875 C19.32730469 188.96167969 19.27960938 190.04835937 19.23046875 191.16796875 C19.21628906 191.99941406 19.20210937 192.83085937 19.1875 193.6875 C19.85136719 193.78546875 20.51523438 193.8834375 21.19921875 193.984375 C27.4258707 195.03881533 31.56093948 196.1854193 35.5 201.4375 C36.93858637 206.14560083 36.67912254 210.24155135 35.125 214.8125 C31.05289688 220.8549756 27.12983946 223.37338685 20.1875 225.6875 C20.1875 232.6175 20.1875 239.5475 20.1875 246.6875 C22.53875 247.7703125 22.53875 247.7703125 24.9375 248.875 C29.01960221 250.93917916 32.00063849 252.51258258 34.1875 256.6875 C34.72061279 260.80008439 34.33830523 263.67077065 32.625 267.375 C31.12555856 270.83023463 30.90433756 271.37432653 32.1875 274.6875 C33.44605087 276.32379399 33.44605087 276.32379399 35.05859375 277.78125 C35.63287109 278.33683594 36.20714844 278.89242188 36.79882812 279.46484375 C37.40146484 280.03332031 38.00410156 280.60179687 38.625 281.1875 C39.81581706 282.3180712 41.0021839 283.45335214 42.18359375 284.59375 C42.71138428 285.09197266 43.2391748 285.59019531 43.78295898 286.10351562 C45.33298245 287.8515692 46.1796411 289.58918796 47.1875 291.6875 C48.68118842 293.46072557 50.20622774 295.20770197 51.75 296.9375 C55.68035839 301.51325859 58.93089838 306.23644033 61.875 311.5 C62.20636963 312.09006836 62.53773926 312.68013672 62.87915039 313.28808594 C64.02593341 315.40103435 65.1115514 317.53751768 66.1875 319.6875 C66.7141626 320.72914307 67.2408252 321.77078613 67.78344727 322.84399414 C72.82528239 333.0691983 76.38151575 343.6256582 79.75 354.5 C80.03064301 355.40034973 80.31128601 356.30069946 80.60043335 357.22833252 C82.508619 363.36797232 84.36926841 369.52063799 86.1875 375.6875 C86.39044678 376.37483215 86.59339355 377.06216431 86.80249023 377.77032471 C94.70733158 404.78543943 95.91612994 431.86972426 82.2734375 457.11328125 C79.68144033 461.68464352 76.62264207 465.71991091 73.1875 469.6875 C72.465625 470.6775 71.74375 471.6675 71 472.6875 C59.45754869 486.21615235 41.23720643 493.59663601 24 495.5 C6.52278803 496.48139661 -9.97699751 492.43204565 -24.6171875 482.75 C-28.11536896 481.58679052 -28.66575328 481.71682796 -31.95483398 482.90869141 C-32.75145447 483.19359436 -33.54807495 483.47849731 -34.36883545 483.77203369 C-35.5784494 484.22518951 -35.5784494 484.22518951 -36.8125 484.6875 C-37.54172668 484.95818298 -38.27095337 485.22886597 -39.02227783 485.50775146 C-41.26412137 486.35281758 -43.49787518 487.21674286 -45.73046875 488.0859375 C-46.55017654 488.40277496 -47.36988434 488.71961243 -48.21443176 489.04605103 C-50.81038626 490.0495707 -53.40530578 491.05572667 -56 492.0625 C-62.59755296 494.62161119 -69.19841097 497.17138616 -75.8125 499.6875 C-76.52051758 499.95725647 -77.22853516 500.22701294 -77.95800781 500.50494385 C-79.87854921 501.23166481 -81.80436701 501.94439699 -83.73046875 502.65625 C-84.79160889 503.05005859 -85.85274902 503.44386719 -86.94604492 503.84960938 C-95.75089902 506.4233475 -103.99718028 502.68688896 -111.8125 498.6875 C-121.72757811 493.10314566 -131.04236191 486.57247782 -140.21044922 479.8515625 C-141.74354571 478.73760272 -143.29524808 477.64938551 -144.84765625 476.5625 C-165.82862124 461.78635959 -176.97914317 440.50160875 -181.8125 415.6875 C-187.36926175 379.37911358 -176.9154991 340.73393687 -155.88671875 310.9609375 C-149.16818625 302.19763423 -141.12777699 293.74340003 -132.08203125 287.3828125 C-128.1636778 284.45584968 -124.5167021 281.20255601 -120.82275391 278 C-120.24831543 277.50242187 -119.67387695 277.00484375 -119.08203125 276.4921875 C-118.24828979 275.75355469 -118.24828979 275.75355469 -117.39770508 275 C-115.8125 273.6875 -115.8125 273.6875 -113.0625 272.0546875 C-109.3243244 268.12181525 -108.96392119 263.15215562 -108 257.9375 C-107.78408203 256.85855469 -107.56816406 255.77960938 -107.34570312 254.66796875 C-106.81662069 252.01079919 -106.30634485 249.35140394 -105.8125 246.6875 C-106.59351074 246.38730957 -107.37452148 246.08711914 -108.17919922 245.77783203 C-113.74802557 243.4720302 -118.51005089 239.28926885 -120.875 233.6875 C-122.41959683 228.49203794 -121.68576781 224.47042178 -119.3125 219.625 C-115.59086289 215.25207639 -110.93587593 212.24918796 -105.8125 209.6875 C-105.8125 208.0375 -105.8125 206.3875 -105.8125 204.6875 C-106.33199219 204.46835938 -106.85148437 204.24921875 -107.38671875 204.0234375 C-113.08440952 201.43262062 -117.21143769 198.64608985 -119.6640625 192.58203125 C-121.01835924 187.84199267 -121.09728243 184.07729429 -119.05859375 179.546875 C-115.94548699 174.90161225 -111.67116714 172.15216678 -106.3125 170.8125 C-105.4875 170.77125 -104.6625 170.73 -103.8125 170.6875 C-103.8125 168.0475 -103.8125 165.4075 -103.8125 162.6875 C-104.39257812 162.52894531 -104.97265625 162.37039062 -105.5703125 162.20703125 C-111.82272202 160.3395624 -116.15185632 158.19471212 -120.1875 152.875 C-121.41896715 148.56486498 -121.91562627 144.76372624 -119.78515625 140.75390625 C-116.02663396 135.91259638 -111.49759894 133.72150206 -105.8125 131.6875 C-105.8125 129.0475 -105.8125 126.4075 -105.8125 123.6875 C-106.48796875 123.45675781 -107.1634375 123.22601563 -107.859375 122.98828125 C-117.34182349 119.52143231 -117.34182349 119.52143231 -119.8125 114.6875 C-121.19741753 109.8999043 -121.29716558 105.96613285 -119.25 101.375 C-117.09214257 97.65251055 -114.69944863 95.63097431 -110.8125 93.6875 C-108.8325 93.3575 -106.8525 93.0275 -104.8125 92.6875 C-104.8125 88.0675 -104.8125 83.4475 -104.8125 78.6875 C-106.854375 78.5946875 -106.854375 78.5946875 -108.9375 78.5 C-114.07655061 77.93349048 -116.26797773 76.4049258 -119.8125 72.6875 C-122.35448916 68.4508514 -122.49244151 64.5142453 -121.8125 59.6875 C-118.99151885 54.15001848 -114.66367707 49.95247177 -108.8125 47.6875 C-107.4925 47.6875 -106.1725 47.6875 -104.8125 47.6875 C-104.71453125 46.38296875 -104.6165625 45.0784375 -104.515625 43.734375 C-103.07438671 26.23170909 -100.16756128 13.32055209 -86.34375 1.5703125 C-63.44913854 -15.45932133 -23.32221418 -17.23645122 0 0 Z M-112.87963867 290.03051758 C-113.89943219 290.05417483 -114.91922571 290.07783209 -115.96992207 290.10220623 C-123.89540167 290.39647697 -129.02935557 292.06473641 -134.8125 297.6875 C-135.87023644 298.63117015 -136.92889418 299.57380826 -137.98828125 300.515625 C-161.81015644 322.39834986 -175.11245588 356.96467837 -176.9387207 388.89428711 C-177.88683267 415.96213138 -171.50329732 441.3002932 -152.8125 461.6875 C-146.67073663 467.90994335 -139.96837052 472.81348086 -132.62011719 477.50976562 C-130.57071662 478.84503147 -128.55485419 480.22390826 -126.5390625 481.609375 C-110.4558905 493.27906835 -110.4558905 493.27906835 -91.8125 498.6875 C-88.6557579 498.02053741 -85.71010027 496.92084658 -82.69921875 495.7734375 C-81.83237961 495.4561972 -80.96554047 495.13895691 -80.07243347 494.81210327 C-77.31052358 493.79191727 -74.56036144 492.74490521 -71.8125 491.6875 C-70.92387268 491.34593872 -70.03524536 491.00437744 -69.11968994 490.65246582 C-63.81925781 488.60243271 -58.53922633 486.50429643 -53.26879883 484.37841797 C-50.56221666 483.28718722 -47.85260067 482.20374884 -45.14257812 481.12109375 C-43.41388529 480.42752487 -41.68536256 479.7335318 -39.95703125 479.0390625 C-39.14998245 478.7162027 -38.34293365 478.3933429 -37.51142883 478.06069946 C-33.89750546 476.80946156 -33.89750546 476.80946156 -30.8125 474.6875 C-30.65220312 471.73220496 -30.55292672 468.79767543 -30.49609375 465.83984375 C-30.47531265 464.9534169 -30.45453156 464.06699005 -30.43312073 463.15370178 C-30.367526 460.310883 -30.30869448 457.46796883 -30.25 454.625 C-30.2068242 452.70246394 -30.16321022 450.77993766 -30.11914062 448.85742188 C-30.01183457 444.13421332 -29.91059549 439.41090847 -29.8125 434.6875 C-27.8325 434.6875 -25.8525 434.6875 -23.8125 434.6875 C-23.96074219 435.83992187 -24.10898438 436.99234375 -24.26171875 438.1796875 C-24.96570367 444.66142256 -25.36223746 451.13914246 -25.54711914 457.65380859 C-25.59920566 459.09753594 -25.67457267 460.54060376 -25.77270508 461.98193359 C-26.08842893 466.72908646 -26.13516603 471.06014994 -24.8125 475.6875 C-21.26274605 479.2039772 -17.44271471 480.92381743 -12.8125 482.6875 C-12.10778564 483.00170898 -11.40307129 483.31591797 -10.67700195 483.63964844 C6.9509715 491.22146704 26.0246972 491.13151515 43.84765625 484.21484375 C63.02826578 475.44336033 75.81034172 459.50482342 83.1796875 440.05078125 C91.64499753 411.80026988 82.57755133 384.89573864 74.125 357.875 C73.86996704 357.05948669 73.61493408 356.24397339 73.35217285 355.40374756 C67.06621206 335.424632 59.44599704 317.08161924 46.1875 300.6875 C45.35025391 299.62015625 45.35025391 299.62015625 44.49609375 298.53125 C40.90292329 294.10311303 37.47429206 290.15000777 31.58681297 289.32153893 C28.28306547 289.18750277 25.00043262 289.1817207 21.6940918 289.2175293 C20.43614807 289.2153389 19.17820435 289.2131485 17.88214111 289.21089172 C14.43650068 289.20548032 10.99139998 289.22488062 7.54585624 289.24899268 C3.91273483 289.27040649 0.27961309 289.26970009 -3.3535614 289.27168274 C-9.47432606 289.27813183 -15.59489111 289.29935352 -21.71557617 289.33081055 C-29.49271403 289.3707366 -37.26972054 289.38845396 -45.04694843 289.39811993 C-51.80602322 289.40653924 -58.56507194 289.42374941 -65.32412314 289.44315743 C-66.75563859 289.44716678 -68.1871548 289.45091183 -69.61867166 289.4543798 C-84.04134686 289.48955738 -98.46300437 289.58147798 -112.87963867 290.03051758 Z " fill="#C1BFBE" transform="translate(182.8125,11.3125)"/>
<path d="M0 0 C8.02650737 6.73471866 15.41683276 15.07732485 17 25.8125 C17.061875 26.76125 17.12375 27.71 17.1875 28.6875 C18.38375 28.77 19.58 28.8525 20.8125 28.9375 C25.98216732 29.58713961 29.27406106 31.84004172 33 35.4375 C35.13559707 39.48389445 35.83880719 43.38420174 34.59765625 47.7734375 C31.73942717 54.17685199 27.23760788 58.46745685 20.75 61.0625 C19.904375 61.26875 19.05875 61.475 18.1875 61.6875 C18.1875 64.6575 18.1875 67.6275 18.1875 70.6875 C19.033125 70.873125 19.87875 71.05875 20.75 71.25 C25.23113618 73.12392967 28.14906122 75.92921071 31.1875 79.6875 C32.85081237 84.6774371 32.72402699 88.35784616 30.75 93.25 C28.8310995 96.40397464 26.62649565 97.71215362 23.4375 99.5 C20.66820266 101.20842224 19.42673614 102.01633979 18.32421875 105.109375 C18.1069471 107.98928947 18.21558477 109.96339956 19.1875 112.6875 C21.56781456 114.97903826 24.25122271 116.2277828 27.1875 117.6875 C31.12606652 121.12112209 32.06683319 123.21536498 32.5 128.5 C32.42728205 132.90347578 31.09716369 135.31841573 28.1875 138.6875 C25.18459822 140.95499726 22.75250652 142.49916449 19.1875 143.6875 C19.1875 146.6575 19.1875 149.6275 19.1875 152.6875 C19.88875 152.77 20.59 152.8525 21.3125 152.9375 C26.17107846 154.20495525 29.41673754 156.53135631 32.1875 160.6875 C33.07464542 165.10752542 33.14715771 169.08088204 30.796875 173.015625 C28.24302059 176.013628 26.05440068 178.25656972 22.5 180.0234375 C19.89314691 181.51829958 19.89314691 181.51829958 19.48046875 184.60546875 C19.44566406 185.68441406 19.41085938 186.76335937 19.375 187.875 C19.32730469 188.96167969 19.27960938 190.04835937 19.23046875 191.16796875 C19.21628906 191.99941406 19.20210937 192.83085937 19.1875 193.6875 C19.85136719 193.78546875 20.51523438 193.8834375 21.19921875 193.984375 C27.4258707 195.03881533 31.56093948 196.1854193 35.5 201.4375 C36.93858637 206.14560083 36.67912254 210.24155135 35.125 214.8125 C31.05289688 220.8549756 27.12983946 223.37338685 20.1875 225.6875 C20.1875 232.6175 20.1875 239.5475 20.1875 246.6875 C22.53875 247.7703125 22.53875 247.7703125 24.9375 248.875 C29.01960221 250.93917916 32.00063849 252.51258258 34.1875 256.6875 C34.72061279 260.80008439 34.33830523 263.67077065 32.625 267.375 C31.12555856 270.83023463 30.90433756 271.37432653 32.1875 274.6875 C33.44605087 276.32379399 33.44605087 276.32379399 35.05859375 277.78125 C35.63287109 278.33683594 36.20714844 278.89242188 36.79882812 279.46484375 C37.40146484 280.03332031 38.00410156 280.60179687 38.625 281.1875 C39.81581706 282.3180712 41.0021839 283.45335214 42.18359375 284.59375 C42.71138428 285.09197266 43.2391748 285.59019531 43.78295898 286.10351562 C45.33298245 287.8515692 46.1796411 289.58918796 47.1875 291.6875 C48.68118842 293.46072557 50.20622774 295.20770197 51.75 296.9375 C55.68035839 301.51325859 58.93089838 306.23644033 61.875 311.5 C62.20636963 312.09006836 62.53773926 312.68013672 62.87915039 313.28808594 C64.02593341 315.40103435 65.1115514 317.53751768 66.1875 319.6875 C66.7141626 320.72914307 67.2408252 321.77078613 67.78344727 322.84399414 C72.82528239 333.0691983 76.38151575 343.6256582 79.75 354.5 C80.03064301 355.40034973 80.31128601 356.30069946 80.60043335 357.22833252 C82.508619 363.36797232 84.36926841 369.52063799 86.1875 375.6875 C86.39044678 376.37483215 86.59339355 377.06216431 86.80249023 377.77032471 C94.70733158 404.78543943 95.91612994 431.86972426 82.2734375 457.11328125 C79.68144033 461.68464352 76.62264207 465.71991091 73.1875 469.6875 C72.465625 470.6775 71.74375 471.6675 71 472.6875 C59.45754869 486.21615235 41.23720643 493.59663601 24 495.5 C6.52278803 496.48139661 -9.97699751 492.43204565 -24.6171875 482.75 C-28.11536896 481.58679052 -28.66575328 481.71682796 -31.95483398 482.90869141 C-32.75145447 483.19359436 -33.54807495 483.47849731 -34.36883545 483.77203369 C-35.5784494 484.22518951 -35.5784494 484.22518951 -36.8125 484.6875 C-37.54172668 484.95818298 -38.27095337 485.22886597 -39.02227783 485.50775146 C-41.26412137 486.35281758 -43.49787518 487.21674286 -45.73046875 488.0859375 C-46.55017654 488.40277496 -47.36988434 488.71961243 -48.21443176 489.04605103 C-50.81038626 490.0495707 -53.40530578 491.05572667 -56 492.0625 C-62.59755296 494.62161119 -69.19841097 497.17138616 -75.8125 499.6875 C-76.52051758 499.95725647 -77.22853516 500.22701294 -77.95800781 500.50494385 C-79.87854921 501.23166481 -81.80436701 501.94439699 -83.73046875 502.65625 C-84.79160889 503.05005859 -85.85274902 503.44386719 -86.94604492 503.84960938 C-95.75089902 506.4233475 -103.99718028 502.68688896 -111.8125 498.6875 C-121.72757811 493.10314566 -131.04236191 486.57247782 -140.21044922 479.8515625 C-141.74354571 478.73760272 -143.29524808 477.64938551 -144.84765625 476.5625 C-165.82862124 461.78635959 -176.97914317 440.50160875 -181.8125 415.6875 C-187.36926175 379.37911358 -176.9154991 340.73393687 -155.88671875 310.9609375 C-149.16818625 302.19763423 -141.12777699 293.74340003 -132.08203125 287.3828125 C-128.1636778 284.45584968 -124.5167021 281.20255601 -120.82275391 278 C-120.24831543 277.50242187 -119.67387695 277.00484375 -119.08203125 276.4921875 C-118.24828979 275.75355469 -118.24828979 275.75355469 -117.39770508 275 C-115.8125 273.6875 -115.8125 273.6875 -113.0625 272.0546875 C-109.3243244 268.12181525 -108.96392119 263.15215562 -108 257.9375 C-107.78408203 256.85855469 -107.56816406 255.77960938 -107.34570312 254.66796875 C-106.81662069 252.01079919 -106.30634485 249.35140394 -105.8125 246.6875 C-106.59351074 246.38730957 -107.37452148 246.08711914 -108.17919922 245.77783203 C-113.74802557 243.4720302 -118.51005089 239.28926885 -120.875 233.6875 C-122.41959683 228.49203794 -121.68576781 224.47042178 -119.3125 219.625 C-115.59086289 215.25207639 -110.93587593 212.24918796 -105.8125 209.6875 C-105.8125 208.0375 -105.8125 206.3875 -105.8125 204.6875 C-106.33199219 204.46835938 -106.85148437 204.24921875 -107.38671875 204.0234375 C-113.08440952 201.43262062 -117.21143769 198.64608985 -119.6640625 192.58203125 C-121.01835924 187.84199267 -121.09728243 184.07729429 -119.05859375 179.546875 C-115.94548699 174.90161225 -111.67116714 172.15216678 -106.3125 170.8125 C-105.4875 170.77125 -104.6625 170.73 -103.8125 170.6875 C-103.8125 168.0475 -103.8125 165.4075 -103.8125 162.6875 C-104.39257812 162.52894531 -104.97265625 162.37039062 -105.5703125 162.20703125 C-111.82272202 160.3395624 -116.15185632 158.19471212 -120.1875 152.875 C-121.41896715 148.56486498 -121.91562627 144.76372624 -119.78515625 140.75390625 C-116.02663396 135.91259638 -111.49759894 133.72150206 -105.8125 131.6875 C-105.8125 129.0475 -105.8125 126.4075 -105.8125 123.6875 C-106.48796875 123.45675781 -107.1634375 123.22601563 -107.859375 122.98828125 C-117.34182349 119.52143231 -117.34182349 119.52143231 -119.8125 114.6875 C-121.19741753 109.8999043 -121.29716558 105.96613285 -119.25 101.375 C-117.09214257 97.65251055 -114.69944863 95.63097431 -110.8125 93.6875 C-108.8325 93.3575 -106.8525 93.0275 -104.8125 92.6875 C-104.8125 88.0675 -104.8125 83.4475 -104.8125 78.6875 C-106.854375 78.5946875 -106.854375 78.5946875 -108.9375 78.5 C-114.07655061 77.93349048 -116.26797773 76.4049258 -119.8125 72.6875 C-122.35448916 68.4508514 -122.49244151 64.5142453 -121.8125 59.6875 C-118.99151885 54.15001848 -114.66367707 49.95247177 -108.8125 47.6875 C-107.4925 47.6875 -106.1725 47.6875 -104.8125 47.6875 C-104.71453125 46.38296875 -104.6165625 45.0784375 -104.515625 43.734375 C-103.07438671 26.23170909 -100.16756128 13.32055209 -86.34375 1.5703125 C-63.44913854 -15.45932133 -23.32221418 -17.23645122 0 0 Z M-89.125 13.0625 C-98.24804515 24.40944536 -98.20177039 38.83358102 -98.8125 52.6875 C-101.77575684 52.98962402 -101.77575684 52.98962402 -104.73901367 53.29174805 C-108.91191928 54.0882016 -111.7314626 56.67620695 -114.75 59.5 C-116.36952683 62.83431995 -115.7078238 65.17015651 -114.8125 68.6875 C-112.91716125 71.27205285 -111.92423483 71.65025506 -108.8125 72.6875 C-105.5125 72.6875 -102.2125 72.6875 -98.8125 72.6875 C-98.8125 80.9375 -98.8125 89.1875 -98.8125 97.6875 C-103.7625 98.6775 -103.7625 98.6775 -108.8125 99.6875 C-111.90894428 102.0256314 -113.38071787 103.60804467 -114.8125 107.1875 C-114.8125 110.68683166 -114.11489948 112.03625211 -111.8125 114.6875 C-107.34729851 117.10815998 -103.93869702 117.6875 -98.8125 117.6875 C-98.8125 123.9575 -98.8125 130.2275 -98.8125 136.6875 C-100.4625 137.0175 -102.1125 137.3475 -103.8125 137.6875 C-105.94760176 138.52162102 -105.94760176 138.52162102 -107.9375 139.5625 C-108.93136719 140.05363281 -108.93136719 140.05363281 -109.9453125 140.5546875 C-111.92366171 141.75494121 -113.33951644 142.90274999 -114.8125 144.6875 C-115.28483383 147.63028399 -115.28483383 147.63028399 -113.8125 150.6875 C-109.02842387 155.00215738 -105.22715483 156.61839086 -98.8125 157.6875 C-98.4825 163.6275 -98.1525 169.5675 -97.8125 175.6875 C-100.4525 176.0175 -103.0925 176.3475 -105.8125 176.6875 C-109.84779361 178.45206219 -112.3125536 180.78375073 -114.4375 184.625 C-114.93210289 188.66425694 -114.0715716 190.33532924 -111.8125 193.6875 C-107.823939 197.676061 -105.67500012 198.01249997 -99.8125 199.6875 C-99.4825 204.6375 -99.1525 209.5875 -98.8125 214.6875 C-100.4625 215.0175 -102.1125 215.3475 -103.8125 215.6875 C-108.73356905 218.27065253 -113.8629859 221.25671073 -115.8125 226.6875 C-115.70189003 231.1118987 -113.84627116 233.57593984 -110.8125 236.6875 C-106.7041088 239.76668437 -104.05423894 241.6875 -98.8125 241.6875 C-99.59976738 245.7285003 -100.39971138 249.76676676 -101.21118164 253.80297852 C-101.48513613 255.17469049 -101.75569443 256.5470855 -102.02270508 257.92016602 C-102.40840687 259.90038918 -102.80758675 261.87797191 -103.20703125 263.85546875 C-103.44268799 265.04422607 -103.67834473 266.2329834 -103.92114258 267.45776367 C-105.38762097 272.77138805 -107.7916092 275.97266823 -112 279.4375 C-113.2857108 280.50313418 -114.56111275 281.58176114 -115.8125 282.6875 C-115.8125 283.0175 -115.8125 283.3475 -115.8125 283.6875 C-67.3025 283.6875 -18.7925 283.6875 31.1875 283.6875 C27.30052122 279.08283883 27.30052122 279.08283883 23.1875 274.6875 C23.435304 270.47483201 25.38852353 267.23399351 27.4453125 263.65234375 C28.37244167 261.19789125 28.18523533 260.09204215 27.1875 257.6875 C23.01723593 254.41086395 19.17700143 252.82585776 14.1875 250.6875 C13.8575 240.4575 13.5275 230.2275 13.1875 219.6875 C16.1575 219.3575 19.1275 219.0275 22.1875 218.6875 C26.60033401 216.5246307 28.82310826 213.72601646 30.4375 209.125 C30.49165622 205.54413602 30.49165622 205.54413602 28 202.8125 C24.08786514 199.85666477 21.80868476 199.66134878 17.05078125 199.67578125 C15.13845703 199.68158203 15.13845703 199.68158203 13.1875 199.6875 C13.09353621 196.1438513 13.1004154 192.60715296 13.125 189.0625 C13.09728516 188.06347656 13.06957031 187.06445312 13.04101562 186.03515625 C13.16246569 178.69957206 13.16246569 178.69957206 16.15673828 175.74316406 C18.56640625 174.1640625 18.56640625 174.1640625 20.96313477 172.89306641 C23.18709222 171.68772101 24.62989545 170.67454194 26.1875 168.6875 C26.59052902 165.16938593 26.59052902 165.16938593 25.1875 161.6875 C21.8589508 159.20406129 18.09388865 157.98962955 14.1875 156.6875 C13.2547582 152.588139 12.89924738 148.56706712 12.625 144.375 C12.54121094 143.12074219 12.45742187 141.86648437 12.37109375 140.57421875 C12.31050781 139.62160156 12.24992188 138.66898438 12.1875 137.6875 C13.57195312 137.74357422 13.57195312 137.74357422 14.984375 137.80078125 C19.12846461 137.65422198 20.98195446 136.23736577 24.1875 133.6875 C26.45329384 130.88973445 26.45329384 130.88973445 26.1875 127.8125 C24.912366 123.82770626 22.7815525 121.66351293 19.1875 119.6875 C16.86789686 118.97452724 14.53538295 118.3009611 12.1875 117.6875 C11.60763268 100.46202955 11.60763268 100.46202955 15.375 96.23046875 C18.0625 94.75 18.0625 94.75 20.7421875 93.72265625 C23.61584013 92.50617391 24.63710726 91.36498747 26.1875 88.6875 C26.32960191 85.4191561 25.92479023 83.53992871 23.76171875 81.0390625 C19.87227286 77.5032026 17.47235132 76.44911711 12.1875 74.6875 C12.1875 68.7475 12.1875 62.8075 12.1875 56.6875 C15.1575 56.1925 15.1575 56.1925 18.1875 55.6875 C23.09150785 52.9412556 26.71224763 49.83470506 29.125 44.6875 C29.22157577 41.59707542 28.04656126 40.10427964 26.1875 37.6875 C21.79077144 33.95694243 16.7169819 33.99886888 11.1875 33.6875 C11.25066406 32.676875 11.31382812 31.66625 11.37890625 30.625 C10.99982733 22.82680498 6.21895298 14.41653374 0.9375 8.6875 C-12.09801022 -2.81271679 -29.93905144 -6.10284644 -46.79980469 -5.44873047 C-62.98270431 -4.35338137 -78.00516267 1.11282406 -89.125 13.0625 Z M-112.87963867 290.03051758 C-113.89943219 290.05417483 -114.91922571 290.07783209 -115.96992207 290.10220623 C-123.89540167 290.39647697 -129.02935557 292.06473641 -134.8125 297.6875 C-135.87023644 298.63117015 -136.92889418 299.57380826 -137.98828125 300.515625 C-161.81015644 322.39834986 -175.11245588 356.96467837 -176.9387207 388.89428711 C-177.88683267 415.96213138 -171.50329732 441.3002932 -152.8125 461.6875 C-146.67073663 467.90994335 -139.96837052 472.81348086 -132.62011719 477.50976562 C-130.57071662 478.84503147 -128.55485419 480.22390826 -126.5390625 481.609375 C-110.4558905 493.27906835 -110.4558905 493.27906835 -91.8125 498.6875 C-88.6557579 498.02053741 -85.71010027 496.92084658 -82.69921875 495.7734375 C-81.83237961 495.4561972 -80.96554047 495.13895691 -80.07243347 494.81210327 C-77.31052358 493.79191727 -74.56036144 492.74490521 -71.8125 491.6875 C-70.92387268 491.34593872 -70.03524536 491.00437744 -69.11968994 490.65246582 C-63.81925781 488.60243271 -58.53922633 486.50429643 -53.26879883 484.37841797 C-50.56221666 483.28718722 -47.85260067 482.20374884 -45.14257812 481.12109375 C-43.41388529 480.42752487 -41.68536256 479.7335318 -39.95703125 479.0390625 C-39.14998245 478.7162027 -38.34293365 478.3933429 -37.51142883 478.06069946 C-33.89750546 476.80946156 -33.89750546 476.80946156 -30.8125 474.6875 C-30.65220312 471.73220496 -30.55292672 468.79767543 -30.49609375 465.83984375 C-30.47531265 464.9534169 -30.45453156 464.06699005 -30.43312073 463.15370178 C-30.367526 460.310883 -30.30869448 457.46796883 -30.25 454.625 C-30.2068242 452.70246394 -30.16321022 450.77993766 -30.11914062 448.85742188 C-30.01183457 444.13421332 -29.91059549 439.41090847 -29.8125 434.6875 C-27.8325 434.6875 -25.8525 434.6875 -23.8125 434.6875 C-23.96074219 435.83992187 -24.10898438 436.99234375 -24.26171875 438.1796875 C-24.96570367 444.66142256 -25.36223746 451.13914246 -25.54711914 457.65380859 C-25.59920566 459.09753594 -25.67457267 460.54060376 -25.77270508 461.98193359 C-26.08842893 466.72908646 -26.13516603 471.06014994 -24.8125 475.6875 C-21.26274605 479.2039772 -17.44271471 480.92381743 -12.8125 482.6875 C-12.10778564 483.00170898 -11.40307129 483.31591797 -10.67700195 483.63964844 C6.9509715 491.22146704 26.0246972 491.13151515 43.84765625 484.21484375 C63.02826578 475.44336033 75.81034172 459.50482342 83.1796875 440.05078125 C91.64499753 411.80026988 82.57755133 384.89573864 74.125 357.875 C73.86996704 357.05948669 73.61493408 356.24397339 73.35217285 355.40374756 C67.06621206 335.424632 59.44599704 317.08161924 46.1875 300.6875 C45.35025391 299.62015625 45.35025391 299.62015625 44.49609375 298.53125 C40.90292329 294.10311303 37.47429206 290.15000777 31.58681297 289.32153893 C28.28306547 289.18750277 25.00043262 289.1817207 21.6940918 289.2175293 C20.43614807 289.2153389 19.17820435 289.2131485 17.88214111 289.21089172 C14.43650068 289.20548032 10.99139998 289.22488062 7.54585624 289.24899268 C3.91273483 289.27040649 0.27961309 289.26970009 -3.3535614 289.27168274 C-9.47432606 289.27813183 -15.59489111 289.29935352 -21.71557617 289.33081055 C-29.49271403 289.3707366 -37.26972054 289.38845396 -45.04694843 289.39811993 C-51.80602322 289.40653924 -58.56507194 289.42374941 -65.32412314 289.44315743 C-66.75563859 289.44716678 -68.1871548 289.45091183 -69.61867166 289.4543798 C-84.04134686 289.48955738 -98.46300437 289.58147798 -112.87963867 290.03051758 Z " fill="#11110E" transform="translate(182.8125,11.3125)"/>
</svg>
