<?xml version="1.0" encoding="UTF-8"?>
<svg version="1.1" xmlns="http://www.w3.org/2000/svg" width="276" height="516">
<path d="M0 0 C9.73555901 8.77691535 12.40389166 21.04761376 14.03515625 33.484375 C14.08501446 35.23416078 14.12843913 36.9841664 14.16015625 38.734375 C14.59141171 42.49255493 14.59141171 42.49255493 16.91796875 43.76953125 C18.50433164 44.45800227 20.11589008 45.0909284 21.74609375 45.66796875 C26.03681491 47.19827715 28.41543817 49.52274349 30.84765625 53.296875 C32.80483554 58.55035625 32.64631299 61.98194801 30.53515625 67.171875 C28.02656142 71.13563339 24.47599013 73.15295181 20.03515625 74.484375 C18.38515625 74.484375 16.73515625 74.484375 15.03515625 74.484375 C15.03515625 79.104375 15.03515625 83.724375 15.03515625 88.484375 C16.68515625 88.814375 18.33515625 89.144375 20.03515625 89.484375 C28.36848958 94.484375 28.36848958 94.484375 30.03515625 99.484375 C30.61706395 103.69768139 30.9068429 107.69109597 29.01171875 111.58984375 C25.27547142 116.43045148 20.87319209 118.12216664 15.03515625 119.484375 C14.70515625 122.124375 14.37515625 124.764375 14.03515625 127.484375 C14.61523438 127.64292969 15.1953125 127.80148438 15.79296875 127.96484375 C22.03521025 129.82927562 26.53131756 131.95623866 30.41015625 137.421875 C31.80556398 142.02672051 31.40182433 145.34077694 29.16015625 149.546875 C25.94988072 154.36691405 21.36396971 156.52261712 16.03515625 158.484375 C15.37515625 158.484375 14.71515625 158.484375 14.03515625 158.484375 C14.03515625 161.124375 14.03515625 163.764375 14.03515625 166.484375 C14.86015625 166.505 15.68515625 166.525625 16.53515625 166.546875 C21.92297527 167.99004081 26.30162468 171.67717227 29.24609375 176.4453125 C30.86961431 180.64074681 30.7970517 185.18956417 29.3828125 189.44921875 C26.54803213 195.00928154 21.90020603 198.52935841 16.03515625 200.484375 C15.70515625 202.464375 15.37515625 204.444375 15.03515625 206.484375 C15.57140625 206.566875 16.10765625 206.649375 16.66015625 206.734375 C22.63270975 208.62044453 27.97096725 213.02303134 31.03515625 218.484375 C32.40431661 223.9975274 31.49959204 228.40594402 28.59765625 233.234375 C25.46211117 237.91535968 20.71573145 240.53135417 16.03515625 243.484375 C18.3808586 260.67637319 18.3808586 260.67637319 29.0703125 273.46484375 C30.04871094 274.13128906 31.02710938 274.79773438 32.03515625 275.484375 C33.90052295 277.01247095 35.75487358 278.5541187 37.59765625 280.109375 C40.27114349 282.27634685 42.95690658 284.42319165 45.66796875 286.54296875 C72.6500783 307.7078345 87.87569321 341.80123139 92.03515625 375.484375 C92.88476287 392.46830435 93.57382825 410.22002071 88.03515625 426.484375 C87.81553223 427.14518066 87.5959082 427.80598633 87.36962891 428.48681641 C82.80510974 441.83149346 75.81377712 452.40064895 66.03515625 462.484375 C65.54160645 463.04189453 65.04805664 463.59941406 64.53955078 464.17382812 C58.52244074 470.67290321 51.3473712 475.32426794 43.99169922 480.15771484 C41.79607747 481.60219005 39.61243341 483.06350448 37.4296875 484.52734375 C11.5626114 501.74695727 11.5626114 501.74695727 -2.35241699 500.01318359 C-7.55307896 498.96046327 -12.36998605 496.83912976 -17.26171875 494.828125 C-18.41351624 494.36579468 -19.56531372 493.90346436 -20.75201416 493.42712402 C-24.41063778 491.95672645 -28.06296229 490.47142922 -31.71484375 488.984375 C-35.38137443 487.49841777 -39.05026118 486.01835237 -42.72052002 484.54162598 C-44.99859817 483.62415943 -47.27468762 482.70173571 -49.54852295 481.77380371 C-50.58019592 481.35667114 -51.6118689 480.93953857 -52.67480469 480.50976562 C-53.57809509 480.1419397 -54.4813855 479.77411377 -55.41204834 479.3951416 C-60.87583848 477.42209658 -60.87583848 477.42209658 -66.3125 478.99609375 C-67.55675058 479.71106481 -68.79478511 480.43693124 -70.02734375 481.171875 C-88.16611423 491.33840776 -107.28995039 493.66990293 -127.52734375 488.859375 C-147.54138462 483.08769102 -162.74831107 469.58012942 -173.1796875 451.828125 C-188.82726993 422.51886776 -182.77060451 392.83784541 -173.61425781 362.59619141 C-173.08668293 360.8709916 -172.55772689 359.14621352 -172.02734375 357.421875 C-171.77480835 356.60015808 -171.52227295 355.77844116 -171.26208496 354.93182373 C-162.30848665 325.98060165 -162.30848665 325.98060165 -155.15234375 312.734375 C-154.72856445 311.93999023 -154.30478516 311.14560547 -153.86816406 310.32714844 C-150.15968066 303.53607437 -145.91453808 297.44498956 -140.96484375 291.484375 C-140.40925781 290.81277344 -139.85367188 290.14117187 -139.28125 289.44921875 C-137.86383921 287.7740969 -136.41727354 286.12909831 -134.96484375 284.484375 C-134.00648217 283.33856529 -133.0481496 282.19273132 -132.08984375 281.046875 C-129.12440345 277.53579369 -125.81239779 274.45886678 -122.40625 271.37890625 C-120.71207188 269.5989917 -120.71207188 269.5989917 -121.17578125 267.3828125 C-121.74968415 266.00203622 -122.37404336 264.64190521 -123.02734375 263.296875 C-124.36015251 259.29844872 -124.68587501 255.65117668 -123.96484375 251.484375 C-120.38561118 246.45107919 -116.81020119 245.40705372 -110.96484375 242.484375 C-110.96484375 235.554375 -110.96484375 228.624375 -110.96484375 221.484375 C-113.93484375 220.164375 -116.90484375 218.844375 -119.96484375 217.484375 C-124.28976356 213.0693527 -126.09514403 209.79877954 -126.33984375 203.671875 C-126.28355318 199.8103417 -125.98218775 198.514185 -123.96484375 195.046875 C-119.27649834 191.04224663 -115.11674498 189.484375 -108.96484375 189.484375 C-108.96484375 185.524375 -108.96484375 181.564375 -108.96484375 177.484375 C-110.61484375 176.824375 -112.26484375 176.164375 -113.96484375 175.484375 C-118.55749788 172.45994423 -120.68109323 169.39020946 -122.96484375 164.484375 C-123.60221023 160.58050528 -123.17606013 158.90680776 -121.40234375 155.359375 C-118.06531229 151.42338918 -114.55642256 149.78016441 -109.96484375 147.484375 C-109.96484375 144.844375 -109.96484375 142.204375 -109.96484375 139.484375 C-110.83109375 139.13375 -111.69734375 138.783125 -112.58984375 138.421875 C-116.73162337 136.0441867 -119.65991514 133.71533985 -121.96484375 129.484375 C-123.00856614 124.48715873 -122.54820479 120.695971 -120.33984375 116.109375 C-117.00520916 112.42372624 -113.68380356 110.0573616 -108.96484375 108.484375 C-108.48292491 105.03731662 -108.26903394 101.91071118 -108.96484375 98.484375 C-110.81381979 96.6794222 -112.61632083 95.72104927 -114.921875 94.5703125 C-118.3494796 92.74837353 -120.26196697 89.89012855 -121.96484375 86.484375 C-122.51135852 82.00474571 -122.39485586 78.43788012 -120.52734375 74.296875 C-118.13722464 71.67357354 -116.2779894 70.39160562 -113.27734375 68.609375 C-109.95521026 66.61388269 -109.95521026 66.61388269 -108.16015625 63.328125 C-107.82618244 60.88138136 -107.82618244 60.88138136 -107.96484375 57.484375 C-108.81046875 57.2575 -109.65609375 57.030625 -110.52734375 56.796875 C-116.60776108 54.47526111 -121.31863933 51.29437642 -124.30859375 45.37890625 C-125.81595143 41.02730818 -125.6321184 37.07842001 -123.83984375 32.796875 C-119.94767698 27.99653598 -117.27414355 25.36226067 -111.08984375 24.671875 C-109.71598242 24.58799238 -108.34085243 24.51801077 -106.96484375 24.484375 C-106.92359375 23.39125 -106.88234375 22.298125 -106.83984375 21.171875 C-105.44048591 10.59272975 -98.08772501 1.90177917 -89.96484375 -4.515625 C-62.79539559 -21.23286367 -25.3626762 -19.56405242 0 0 Z " fill="#FFFFFF" transform="translate(182.96484375,15.515625)"/>
<path d="M0 0 C9.73555901 8.77691535 12.40389166 21.04761376 14.03515625 33.484375 C14.08501446 35.23416078 14.12843913 36.9841664 14.16015625 38.734375 C14.59141171 42.49255493 14.59141171 42.49255493 16.91796875 43.76953125 C18.50433164 44.45800227 20.11589008 45.0909284 21.74609375 45.66796875 C26.03681491 47.19827715 28.41543817 49.52274349 30.84765625 53.296875 C32.80483554 58.55035625 32.64631299 61.98194801 30.53515625 67.171875 C28.02656142 71.13563339 24.47599013 73.15295181 20.03515625 74.484375 C18.38515625 74.484375 16.73515625 74.484375 15.03515625 74.484375 C15.03515625 79.104375 15.03515625 83.724375 15.03515625 88.484375 C16.68515625 88.814375 18.33515625 89.144375 20.03515625 89.484375 C28.36848958 94.484375 28.36848958 94.484375 30.03515625 99.484375 C30.61706395 103.69768139 30.9068429 107.69109597 29.01171875 111.58984375 C25.27547142 116.43045148 20.87319209 118.12216664 15.03515625 119.484375 C14.70515625 122.124375 14.37515625 124.764375 14.03515625 127.484375 C14.61523438 127.64292969 15.1953125 127.80148438 15.79296875 127.96484375 C22.03521025 129.82927562 26.53131756 131.95623866 30.41015625 137.421875 C31.80556398 142.02672051 31.40182433 145.34077694 29.16015625 149.546875 C25.94988072 154.36691405 21.36396971 156.52261712 16.03515625 158.484375 C15.37515625 158.484375 14.71515625 158.484375 14.03515625 158.484375 C14.03515625 161.124375 14.03515625 163.764375 14.03515625 166.484375 C14.86015625 166.505 15.68515625 166.525625 16.53515625 166.546875 C21.92297527 167.99004081 26.30162468 171.67717227 29.24609375 176.4453125 C30.86961431 180.64074681 30.7970517 185.18956417 29.3828125 189.44921875 C26.54803213 195.00928154 21.90020603 198.52935841 16.03515625 200.484375 C15.70515625 202.464375 15.37515625 204.444375 15.03515625 206.484375 C15.57140625 206.566875 16.10765625 206.649375 16.66015625 206.734375 C22.63270975 208.62044453 27.97096725 213.02303134 31.03515625 218.484375 C32.40431661 223.9975274 31.49959204 228.40594402 28.59765625 233.234375 C25.46211117 237.91535968 20.71573145 240.53135417 16.03515625 243.484375 C18.3808586 260.67637319 18.3808586 260.67637319 29.0703125 273.46484375 C30.04871094 274.13128906 31.02710938 274.79773438 32.03515625 275.484375 C33.90052295 277.01247095 35.75487358 278.5541187 37.59765625 280.109375 C40.27114349 282.27634685 42.95690658 284.42319165 45.66796875 286.54296875 C72.6500783 307.7078345 87.87569321 341.80123139 92.03515625 375.484375 C92.88476287 392.46830435 93.57382825 410.22002071 88.03515625 426.484375 C87.81553223 427.14518066 87.5959082 427.80598633 87.36962891 428.48681641 C82.80510974 441.83149346 75.81377712 452.40064895 66.03515625 462.484375 C65.54160645 463.04189453 65.04805664 463.59941406 64.53955078 464.17382812 C58.52244074 470.67290321 51.3473712 475.32426794 43.99169922 480.15771484 C41.79607747 481.60219005 39.61243341 483.06350448 37.4296875 484.52734375 C11.5626114 501.74695727 11.5626114 501.74695727 -2.35241699 500.01318359 C-7.55307896 498.96046327 -12.36998605 496.83912976 -17.26171875 494.828125 C-18.41351624 494.36579468 -19.56531372 493.90346436 -20.75201416 493.42712402 C-24.41063778 491.95672645 -28.06296229 490.47142922 -31.71484375 488.984375 C-35.38137443 487.49841777 -39.05026118 486.01835237 -42.72052002 484.54162598 C-44.99859817 483.62415943 -47.27468762 482.70173571 -49.54852295 481.77380371 C-50.58019592 481.35667114 -51.6118689 480.93953857 -52.67480469 480.50976562 C-53.57809509 480.1419397 -54.4813855 479.77411377 -55.41204834 479.3951416 C-60.87583848 477.42209658 -60.87583848 477.42209658 -66.3125 478.99609375 C-67.55675058 479.71106481 -68.79478511 480.43693124 -70.02734375 481.171875 C-88.16611423 491.33840776 -107.28995039 493.66990293 -127.52734375 488.859375 C-147.54138462 483.08769102 -162.74831107 469.58012942 -173.1796875 451.828125 C-188.82726993 422.51886776 -182.77060451 392.83784541 -173.61425781 362.59619141 C-173.08668293 360.8709916 -172.55772689 359.14621352 -172.02734375 357.421875 C-171.77480835 356.60015808 -171.52227295 355.77844116 -171.26208496 354.93182373 C-162.30848665 325.98060165 -162.30848665 325.98060165 -155.15234375 312.734375 C-154.72856445 311.93999023 -154.30478516 311.14560547 -153.86816406 310.32714844 C-150.15968066 303.53607437 -145.91453808 297.44498956 -140.96484375 291.484375 C-140.40925781 290.81277344 -139.85367188 290.14117187 -139.28125 289.44921875 C-137.86383921 287.7740969 -136.41727354 286.12909831 -134.96484375 284.484375 C-134.00648217 283.33856529 -133.0481496 282.19273132 -132.08984375 281.046875 C-129.12440345 277.53579369 -125.81239779 274.45886678 -122.40625 271.37890625 C-120.71207188 269.5989917 -120.71207188 269.5989917 -121.17578125 267.3828125 C-121.74968415 266.00203622 -122.37404336 264.64190521 -123.02734375 263.296875 C-124.36015251 259.29844872 -124.68587501 255.65117668 -123.96484375 251.484375 C-120.38561118 246.45107919 -116.81020119 245.40705372 -110.96484375 242.484375 C-110.96484375 235.554375 -110.96484375 228.624375 -110.96484375 221.484375 C-113.93484375 220.164375 -116.90484375 218.844375 -119.96484375 217.484375 C-124.28976356 213.0693527 -126.09514403 209.79877954 -126.33984375 203.671875 C-126.28355318 199.8103417 -125.98218775 198.514185 -123.96484375 195.046875 C-119.27649834 191.04224663 -115.11674498 189.484375 -108.96484375 189.484375 C-108.96484375 185.524375 -108.96484375 181.564375 -108.96484375 177.484375 C-110.61484375 176.824375 -112.26484375 176.164375 -113.96484375 175.484375 C-118.55749788 172.45994423 -120.68109323 169.39020946 -122.96484375 164.484375 C-123.60221023 160.58050528 -123.17606013 158.90680776 -121.40234375 155.359375 C-118.06531229 151.42338918 -114.55642256 149.78016441 -109.96484375 147.484375 C-109.96484375 144.844375 -109.96484375 142.204375 -109.96484375 139.484375 C-110.83109375 139.13375 -111.69734375 138.783125 -112.58984375 138.421875 C-116.73162337 136.0441867 -119.65991514 133.71533985 -121.96484375 129.484375 C-123.00856614 124.48715873 -122.54820479 120.695971 -120.33984375 116.109375 C-117.00520916 112.42372624 -113.68380356 110.0573616 -108.96484375 108.484375 C-108.48292491 105.03731662 -108.26903394 101.91071118 -108.96484375 98.484375 C-110.81381979 96.6794222 -112.61632083 95.72104927 -114.921875 94.5703125 C-118.3494796 92.74837353 -120.26196697 89.89012855 -121.96484375 86.484375 C-122.51135852 82.00474571 -122.39485586 78.43788012 -120.52734375 74.296875 C-118.13722464 71.67357354 -116.2779894 70.39160562 -113.27734375 68.609375 C-109.95521026 66.61388269 -109.95521026 66.61388269 -108.16015625 63.328125 C-107.82618244 60.88138136 -107.82618244 60.88138136 -107.96484375 57.484375 C-108.81046875 57.2575 -109.65609375 57.030625 -110.52734375 56.796875 C-116.60776108 54.47526111 -121.31863933 51.29437642 -124.30859375 45.37890625 C-125.81595143 41.02730818 -125.6321184 37.07842001 -123.83984375 32.796875 C-119.94767698 27.99653598 -117.27414355 25.36226067 -111.08984375 24.671875 C-109.71598242 24.58799238 -108.34085243 24.51801077 -106.96484375 24.484375 C-106.92359375 23.39125 -106.88234375 22.298125 -106.83984375 21.171875 C-105.44048591 10.59272975 -98.08772501 1.90177917 -89.96484375 -4.515625 C-62.79539559 -21.23286367 -25.3626762 -19.56405242 0 0 Z M-148.71484375 314.484375 C-149.24380249 315.40778687 -149.24380249 315.40778687 -149.78344727 316.34985352 C-155.73792349 327.13160392 -159.58097328 338.80336575 -163.33984375 350.484375 C-163.57684998 351.21661285 -163.8138562 351.94885071 -164.05804443 352.70327759 C-174.06159822 383.72101657 -183.71897149 415.36364655 -168.96484375 446.484375 C-159.95243048 463.56549334 -145.67250518 476.16573102 -127.4375 482.546875 C-104.37487882 488.77300445 -85.60698416 482.59937368 -64.96484375 471.484375 C-65.29484375 457.954375 -65.62484375 444.424375 -65.96484375 430.484375 C-63.98484375 430.484375 -62.00484375 430.484375 -59.96484375 430.484375 C-59.97269897 432.13421387 -59.97269897 432.13421387 -59.98071289 433.81738281 C-59.99882839 437.90249822 -60.01029974 441.98761007 -60.01977539 446.07275391 C-60.02480062 447.84001259 -60.03162184 449.60726712 -60.0402832 451.37451172 C-60.05242803 453.91635157 -60.0580902 456.4581364 -60.0625 459 C-60.06766129 459.78868469 -60.07282257 460.57736938 -60.07814026 461.38995361 C-60.18403733 466.55294514 -60.18403733 466.55294514 -58.96484375 471.484375 C-57.02347961 472.76418188 -57.02347961 472.76418188 -54.52783203 473.61914062 C-53.10967697 474.16991272 -53.10967697 474.16991272 -51.66287231 474.73181152 C-50.63072601 475.11421997 -49.59857971 475.49662842 -48.53515625 475.890625 C-47.47505341 476.29720337 -46.41495056 476.70378174 -45.32272339 477.12268066 C-41.91718518 478.4246999 -38.50380304 479.70462083 -35.08984375 480.984375 C-32.82628212 481.84623726 -30.56325407 482.70950229 -28.30078125 483.57421875 C-23.14833358 485.53817797 -17.99394001 487.49619208 -12.82476807 489.41577148 C-10.86265846 490.1489088 -8.90594677 490.89660832 -6.95404053 491.65649414 C-5.98806946 492.02572998 -5.02209839 492.39496582 -4.02685547 492.77539062 C-3.16712128 493.10978149 -2.30738708 493.44417236 -1.42160034 493.78869629 C5.99453756 495.88872088 13.0355511 491.89475228 19.44116211 488.42260742 C26.10933584 484.61398021 32.48135509 480.33463313 38.84765625 476.046875 C39.89703369 475.34361084 40.94641113 474.64034668 42.02758789 473.91577148 C48.8568267 469.2408054 55.01595958 464.15753721 61.03515625 458.484375 C61.70144043 457.87650146 62.36772461 457.26862793 63.05419922 456.64233398 C76.72022358 444.08614918 85.20259186 422.58077706 86.2121582 404.27490234 C86.50194019 387.93858738 86.50284017 372.34150666 82.03515625 356.484375 C81.84211914 355.75605469 81.64908203 355.02773438 81.45019531 354.27734375 C76.37536634 335.51130952 66.96413788 317.04018214 54.03515625 302.484375 C53.2978125 301.6490625 52.56046875 300.81375 51.80078125 299.953125 C49.64177549 297.65631036 47.40237882 295.56429363 45.03515625 293.484375 C44.33261719 292.80117188 43.63007813 292.11796875 42.90625 291.4140625 C36.63623054 286.31127895 30.9287952 285.98370123 23.09155273 285.82275391 C22.00109115 285.7902334 20.91062956 285.7577129 19.78712368 285.72420692 C16.20330155 285.62512908 12.61971925 285.55116701 9.03515625 285.484375 C7.83105732 285.46080681 6.62695839 285.43723862 5.38637161 285.41295624 C-11.37858586 285.10408738 -28.14688658 285.01079374 -44.91429806 284.93593407 C-53.50439469 284.8968145 -62.09320674 284.82775861 -70.6827392 284.72138631 C-76.78523794 284.64840568 -82.88738401 284.61008697 -88.99030119 284.59690821 C-92.61271255 284.58809871 -96.23349768 284.56429168 -99.85542107 284.50223923 C-103.87961791 284.43400723 -107.90077203 284.43750932 -111.92553711 284.44677734 C-113.10330719 284.41599091 -114.28107727 284.38520447 -115.49453735 284.35348511 C-132.093381 284.56101887 -141.25243962 301.41382316 -148.71484375 314.484375 Z " fill="#C1BFBE" transform="translate(182.96484375,15.515625)"/>
<path d="M0 0 C9.73555901 8.77691535 12.40389166 21.04761376 14.03515625 33.484375 C14.08501446 35.23416078 14.12843913 36.9841664 14.16015625 38.734375 C14.59141171 42.49255493 14.59141171 42.49255493 16.91796875 43.76953125 C18.50433164 44.45800227 20.11589008 45.0909284 21.74609375 45.66796875 C26.03681491 47.19827715 28.41543817 49.52274349 30.84765625 53.296875 C32.80483554 58.55035625 32.64631299 61.98194801 30.53515625 67.171875 C28.02656142 71.13563339 24.47599013 73.15295181 20.03515625 74.484375 C18.38515625 74.484375 16.73515625 74.484375 15.03515625 74.484375 C15.03515625 79.104375 15.03515625 83.724375 15.03515625 88.484375 C16.68515625 88.814375 18.33515625 89.144375 20.03515625 89.484375 C28.36848958 94.484375 28.36848958 94.484375 30.03515625 99.484375 C30.61706395 103.69768139 30.9068429 107.69109597 29.01171875 111.58984375 C25.27547142 116.43045148 20.87319209 118.12216664 15.03515625 119.484375 C14.70515625 122.124375 14.37515625 124.764375 14.03515625 127.484375 C14.61523438 127.64292969 15.1953125 127.80148438 15.79296875 127.96484375 C22.03521025 129.82927562 26.53131756 131.95623866 30.41015625 137.421875 C31.80556398 142.02672051 31.40182433 145.34077694 29.16015625 149.546875 C25.94988072 154.36691405 21.36396971 156.52261712 16.03515625 158.484375 C15.37515625 158.484375 14.71515625 158.484375 14.03515625 158.484375 C14.03515625 161.124375 14.03515625 163.764375 14.03515625 166.484375 C14.86015625 166.505 15.68515625 166.525625 16.53515625 166.546875 C21.92297527 167.99004081 26.30162468 171.67717227 29.24609375 176.4453125 C30.86961431 180.64074681 30.7970517 185.18956417 29.3828125 189.44921875 C26.54803213 195.00928154 21.90020603 198.52935841 16.03515625 200.484375 C15.70515625 202.464375 15.37515625 204.444375 15.03515625 206.484375 C15.57140625 206.566875 16.10765625 206.649375 16.66015625 206.734375 C22.63270975 208.62044453 27.97096725 213.02303134 31.03515625 218.484375 C32.40431661 223.9975274 31.49959204 228.40594402 28.59765625 233.234375 C25.46211117 237.91535968 20.71573145 240.53135417 16.03515625 243.484375 C18.3808586 260.67637319 18.3808586 260.67637319 29.0703125 273.46484375 C30.04871094 274.13128906 31.02710938 274.79773438 32.03515625 275.484375 C33.90052295 277.01247095 35.75487358 278.5541187 37.59765625 280.109375 C40.27114349 282.27634685 42.95690658 284.42319165 45.66796875 286.54296875 C72.6500783 307.7078345 87.87569321 341.80123139 92.03515625 375.484375 C92.88476287 392.46830435 93.57382825 410.22002071 88.03515625 426.484375 C87.81553223 427.14518066 87.5959082 427.80598633 87.36962891 428.48681641 C82.80510974 441.83149346 75.81377712 452.40064895 66.03515625 462.484375 C65.54160645 463.04189453 65.04805664 463.59941406 64.53955078 464.17382812 C58.52244074 470.67290321 51.3473712 475.32426794 43.99169922 480.15771484 C41.79607747 481.60219005 39.61243341 483.06350448 37.4296875 484.52734375 C11.5626114 501.74695727 11.5626114 501.74695727 -2.35241699 500.01318359 C-7.55307896 498.96046327 -12.36998605 496.83912976 -17.26171875 494.828125 C-18.41351624 494.36579468 -19.56531372 493.90346436 -20.75201416 493.42712402 C-24.41063778 491.95672645 -28.06296229 490.47142922 -31.71484375 488.984375 C-35.38137443 487.49841777 -39.05026118 486.01835237 -42.72052002 484.54162598 C-44.99859817 483.62415943 -47.27468762 482.70173571 -49.54852295 481.77380371 C-50.58019592 481.35667114 -51.6118689 480.93953857 -52.67480469 480.50976562 C-53.57809509 480.1419397 -54.4813855 479.77411377 -55.41204834 479.3951416 C-60.87583848 477.42209658 -60.87583848 477.42209658 -66.3125 478.99609375 C-67.55675058 479.71106481 -68.79478511 480.43693124 -70.02734375 481.171875 C-88.16611423 491.33840776 -107.28995039 493.66990293 -127.52734375 488.859375 C-147.54138462 483.08769102 -162.74831107 469.58012942 -173.1796875 451.828125 C-188.82726993 422.51886776 -182.77060451 392.83784541 -173.61425781 362.59619141 C-173.08668293 360.8709916 -172.55772689 359.14621352 -172.02734375 357.421875 C-171.77480835 356.60015808 -171.52227295 355.77844116 -171.26208496 354.93182373 C-162.30848665 325.98060165 -162.30848665 325.98060165 -155.15234375 312.734375 C-154.72856445 311.93999023 -154.30478516 311.14560547 -153.86816406 310.32714844 C-150.15968066 303.53607437 -145.91453808 297.44498956 -140.96484375 291.484375 C-140.40925781 290.81277344 -139.85367188 290.14117187 -139.28125 289.44921875 C-137.86383921 287.7740969 -136.41727354 286.12909831 -134.96484375 284.484375 C-134.00648217 283.33856529 -133.0481496 282.19273132 -132.08984375 281.046875 C-129.12440345 277.53579369 -125.81239779 274.45886678 -122.40625 271.37890625 C-120.71207188 269.5989917 -120.71207188 269.5989917 -121.17578125 267.3828125 C-121.74968415 266.00203622 -122.37404336 264.64190521 -123.02734375 263.296875 C-124.36015251 259.29844872 -124.68587501 255.65117668 -123.96484375 251.484375 C-120.38561118 246.45107919 -116.81020119 245.40705372 -110.96484375 242.484375 C-110.96484375 235.554375 -110.96484375 228.624375 -110.96484375 221.484375 C-113.93484375 220.164375 -116.90484375 218.844375 -119.96484375 217.484375 C-124.28976356 213.0693527 -126.09514403 209.79877954 -126.33984375 203.671875 C-126.28355318 199.8103417 -125.98218775 198.514185 -123.96484375 195.046875 C-119.27649834 191.04224663 -115.11674498 189.484375 -108.96484375 189.484375 C-108.96484375 185.524375 -108.96484375 181.564375 -108.96484375 177.484375 C-110.61484375 176.824375 -112.26484375 176.164375 -113.96484375 175.484375 C-118.55749788 172.45994423 -120.68109323 169.39020946 -122.96484375 164.484375 C-123.60221023 160.58050528 -123.17606013 158.90680776 -121.40234375 155.359375 C-118.06531229 151.42338918 -114.55642256 149.78016441 -109.96484375 147.484375 C-109.96484375 144.844375 -109.96484375 142.204375 -109.96484375 139.484375 C-110.83109375 139.13375 -111.69734375 138.783125 -112.58984375 138.421875 C-116.73162337 136.0441867 -119.65991514 133.71533985 -121.96484375 129.484375 C-123.00856614 124.48715873 -122.54820479 120.695971 -120.33984375 116.109375 C-117.00520916 112.42372624 -113.68380356 110.0573616 -108.96484375 108.484375 C-108.48292491 105.03731662 -108.26903394 101.91071118 -108.96484375 98.484375 C-110.81381979 96.6794222 -112.61632083 95.72104927 -114.921875 94.5703125 C-118.3494796 92.74837353 -120.26196697 89.89012855 -121.96484375 86.484375 C-122.51135852 82.00474571 -122.39485586 78.43788012 -120.52734375 74.296875 C-118.13722464 71.67357354 -116.2779894 70.39160562 -113.27734375 68.609375 C-109.95521026 66.61388269 -109.95521026 66.61388269 -108.16015625 63.328125 C-107.82618244 60.88138136 -107.82618244 60.88138136 -107.96484375 57.484375 C-108.81046875 57.2575 -109.65609375 57.030625 -110.52734375 56.796875 C-116.60776108 54.47526111 -121.31863933 51.29437642 -124.30859375 45.37890625 C-125.81595143 41.02730818 -125.6321184 37.07842001 -123.83984375 32.796875 C-119.94767698 27.99653598 -117.27414355 25.36226067 -111.08984375 24.671875 C-109.71598242 24.58799238 -108.34085243 24.51801077 -106.96484375 24.484375 C-106.92359375 23.39125 -106.88234375 22.298125 -106.83984375 21.171875 C-105.44048591 10.59272975 -98.08772501 1.90177917 -89.96484375 -4.515625 C-62.79539559 -21.23286367 -25.3626762 -19.56405242 0 0 Z M-92.96484375 7.484375 C-98.17231564 13.77077341 -101.96484375 21.16688028 -101.96484375 29.484375 C-102.77308594 29.57074219 -103.58132812 29.65710937 -104.4140625 29.74609375 C-109.36042212 30.39645949 -113.06810037 30.89218597 -117.27734375 33.671875 C-119.24564678 36.43859467 -119.24564678 36.43859467 -119.08984375 39.984375 C-117.27477109 45.63126773 -113.93034915 48.11568799 -108.83984375 50.796875 C-106.1806608 52.10577245 -105.0095494 52.484375 -101.96484375 52.484375 C-101.96484375 58.424375 -101.96484375 64.364375 -101.96484375 70.484375 C-104.93484375 71.474375 -104.93484375 71.474375 -107.96484375 72.484375 C-112.25329323 74.63262268 -114.5822063 76.35660146 -116.15234375 80.984375 C-115.91584966 85.39893133 -115.23544712 86.52525767 -111.96484375 89.484375 C-109.03960873 91.30887725 -106.0450035 92.93771359 -102.96484375 94.484375 C-102.93787238 97.08861092 -102.91801886 99.69256744 -102.90234375 102.296875 C-102.89396484 103.03486328 -102.88558594 103.77285156 -102.87695312 104.53320312 C-102.86224547 107.78359568 -102.92952673 110.37842395 -103.96484375 113.484375 C-106.1796875 114.765625 -106.1796875 114.765625 -108.90234375 115.984375 C-113.10857838 117.86312643 -113.10857838 117.86312643 -115.96484375 121.484375 C-116.63205911 124.39878199 -116.63205911 124.39878199 -115.96484375 127.484375 C-111.42397776 132.4682523 -110.25870465 132.44239487 -102.96484375 133.484375 C-103.29484375 139.754375 -103.62484375 146.024375 -103.96484375 152.484375 C-106.47135417 153.39583333 -108.97786458 154.30729167 -111.484375 155.21875 C-114.24010766 156.62482462 -115.42794417 157.82076187 -116.96484375 160.484375 C-116.31004029 165.3299206 -112.52555704 167.97880824 -109.03515625 171.03125 C-106.81135609 172.77691709 -106.81135609 172.77691709 -102.96484375 173.484375 C-102.96484375 180.744375 -102.96484375 188.004375 -102.96484375 195.484375 C-105.60484375 195.484375 -108.24484375 195.484375 -110.96484375 195.484375 C-114.49916443 196.40797796 -117.35838915 197.8779204 -119.96484375 200.484375 C-120.48013062 204.26314538 -120.09052935 206.22797637 -118.40234375 209.671875 C-115.48500194 213.03803863 -113.1893435 214.15032245 -108.96484375 215.484375 C-107.31484375 215.484375 -105.66484375 215.484375 -103.96484375 215.484375 C-103.96484375 226.044375 -103.96484375 236.604375 -103.96484375 247.484375 C-106.93484375 248.474375 -109.90484375 249.464375 -112.96484375 250.484375 C-115.88646035 252.0332591 -115.88646035 252.0332591 -117.96484375 253.484375 C-117.62053706 257.70213201 -117.1024615 260.56729086 -114.83984375 264.171875 C-112.96484375 267.484375 -112.96484375 267.484375 -113.125 269.4609375 C-114.17025746 271.97927873 -115.53789883 273.31907882 -117.52734375 275.171875 C-118.6869916 276.26152399 -119.8367092 277.36213149 -120.96484375 278.484375 C-120.96484375 278.814375 -120.96484375 279.144375 -120.96484375 279.484375 C-72.45484375 279.484375 -23.94484375 279.484375 26.03515625 279.484375 C24.38515625 277.834375 22.73515625 276.184375 21.03515625 274.484375 C20.31328125 273.72125 19.59140625 272.958125 18.84765625 272.171875 C17.20393352 270.25723549 17.20393352 270.25723549 15.03515625 270.484375 C14.89416504 269.73341553 14.75317383 268.98245605 14.60791016 268.20874023 C13.96203337 264.77913978 13.31113968 261.35050966 12.66015625 257.921875 C12.4384375 256.74044922 12.21671875 255.55902344 11.98828125 254.34179688 C10.90098352 248.6334838 9.77799978 243.03052661 8.03515625 237.484375 C9.00453125 237.484375 9.97390625 237.484375 10.97265625 237.484375 C16.55347499 236.74254838 20.30463293 232.39902286 24.03515625 228.484375 C25.55661585 225.44145581 25.61142704 223.87796963 25.03515625 220.484375 C21.21891302 216.01473032 16.47756204 212.68725354 11.03515625 210.484375 C10.37515625 210.484375 9.71515625 210.484375 9.03515625 210.484375 C9.36515625 205.534375 9.69515625 200.584375 10.03515625 195.484375 C11.60265625 194.9275 13.17015625 194.370625 14.78515625 193.796875 C19.0703322 192.06702352 21.81481161 190.72321476 24.03515625 186.484375 C24.83060266 182.33037707 24.28441148 180.86958762 21.97265625 177.296875 C19.03162948 174.11354773 16.13398029 172.82580832 12.03515625 171.484375 C10.71515625 171.484375 9.39515625 171.484375 8.03515625 171.484375 C8.36515625 165.544375 8.69515625 159.604375 9.03515625 153.484375 C10.56140625 153.13375 12.08765625 152.783125 13.66015625 152.421875 C19.17863364 150.80709326 21.87296309 148.17624696 25.03515625 143.484375 C24.09678928 140.1062539 23.16941704 138.59898787 20.47265625 136.296875 C16.30819124 133.90819626 16.30819124 133.90819626 8.03515625 132.484375 C8.03515625 126.214375 8.03515625 119.944375 8.03515625 113.484375 C9.56140625 113.4225 11.08765625 113.360625 12.66015625 113.296875 C18.0527544 112.74535928 20.5260862 111.63985269 24.03515625 107.484375 C24.81583459 103.73711898 24.39260304 102.1248005 22.53515625 98.796875 C18.66107889 95.21335344 14.32001469 93.484375 9.03515625 93.484375 C9.03515625 85.234375 9.03515625 76.984375 9.03515625 68.484375 C12.33515625 68.484375 15.63515625 68.484375 19.03515625 68.484375 C23.00831322 66.67205779 24.56611743 65.68302976 26.16015625 61.609375 C25.98774853 57.29918209 24.94632981 55.67280319 22.03515625 52.484375 C17.41393819 49.69615405 13.46406136 48.2354305 8.03515625 48.484375 C8.05835938 47.61296875 8.0815625 46.7415625 8.10546875 45.84375 C8.33260088 30.85302955 7.04371196 16.7996085 -3.69921875 5.51953125 C-7.44945942 2.15078058 -11.46853014 -0.26746819 -15.96484375 -2.515625 C-16.7228125 -2.89460937 -17.48078125 -3.27359375 -18.26171875 -3.6640625 C-42.12879563 -14.31614715 -74.71608144 -12.39083671 -92.96484375 7.484375 Z M-148.71484375 314.484375 C-149.24380249 315.40778687 -149.24380249 315.40778687 -149.78344727 316.34985352 C-155.73792349 327.13160392 -159.58097328 338.80336575 -163.33984375 350.484375 C-163.57684998 351.21661285 -163.8138562 351.94885071 -164.05804443 352.70327759 C-174.06159822 383.72101657 -183.71897149 415.36364655 -168.96484375 446.484375 C-159.95243048 463.56549334 -145.67250518 476.16573102 -127.4375 482.546875 C-104.37487882 488.77300445 -85.60698416 482.59937368 -64.96484375 471.484375 C-65.29484375 457.954375 -65.62484375 444.424375 -65.96484375 430.484375 C-63.98484375 430.484375 -62.00484375 430.484375 -59.96484375 430.484375 C-59.97269897 432.13421387 -59.97269897 432.13421387 -59.98071289 433.81738281 C-59.99882839 437.90249822 -60.01029974 441.98761007 -60.01977539 446.07275391 C-60.02480062 447.84001259 -60.03162184 449.60726712 -60.0402832 451.37451172 C-60.05242803 453.91635157 -60.0580902 456.4581364 -60.0625 459 C-60.06766129 459.78868469 -60.07282257 460.57736938 -60.07814026 461.38995361 C-60.18403733 466.55294514 -60.18403733 466.55294514 -58.96484375 471.484375 C-57.02347961 472.76418188 -57.02347961 472.76418188 -54.52783203 473.61914062 C-53.10967697 474.16991272 -53.10967697 474.16991272 -51.66287231 474.73181152 C-50.63072601 475.11421997 -49.59857971 475.49662842 -48.53515625 475.890625 C-47.47505341 476.29720337 -46.41495056 476.70378174 -45.32272339 477.12268066 C-41.91718518 478.4246999 -38.50380304 479.70462083 -35.08984375 480.984375 C-32.82628212 481.84623726 -30.56325407 482.70950229 -28.30078125 483.57421875 C-23.14833358 485.53817797 -17.99394001 487.49619208 -12.82476807 489.41577148 C-10.86265846 490.1489088 -8.90594677 490.89660832 -6.95404053 491.65649414 C-5.98806946 492.02572998 -5.02209839 492.39496582 -4.02685547 492.77539062 C-3.16712128 493.10978149 -2.30738708 493.44417236 -1.42160034 493.78869629 C5.99453756 495.88872088 13.0355511 491.89475228 19.44116211 488.42260742 C26.10933584 484.61398021 32.48135509 480.33463313 38.84765625 476.046875 C39.89703369 475.34361084 40.94641113 474.64034668 42.02758789 473.91577148 C48.8568267 469.2408054 55.01595958 464.15753721 61.03515625 458.484375 C61.70144043 457.87650146 62.36772461 457.26862793 63.05419922 456.64233398 C76.72022358 444.08614918 85.20259186 422.58077706 86.2121582 404.27490234 C86.50194019 387.93858738 86.50284017 372.34150666 82.03515625 356.484375 C81.84211914 355.75605469 81.64908203 355.02773438 81.45019531 354.27734375 C76.37536634 335.51130952 66.96413788 317.04018214 54.03515625 302.484375 C53.2978125 301.6490625 52.56046875 300.81375 51.80078125 299.953125 C49.64177549 297.65631036 47.40237882 295.56429363 45.03515625 293.484375 C44.33261719 292.80117188 43.63007813 292.11796875 42.90625 291.4140625 C36.63623054 286.31127895 30.9287952 285.98370123 23.09155273 285.82275391 C22.00109115 285.7902334 20.91062956 285.7577129 19.78712368 285.72420692 C16.20330155 285.62512908 12.61971925 285.55116701 9.03515625 285.484375 C7.83105732 285.46080681 6.62695839 285.43723862 5.38637161 285.41295624 C-11.37858586 285.10408738 -28.14688658 285.01079374 -44.91429806 284.93593407 C-53.50439469 284.8968145 -62.09320674 284.82775861 -70.6827392 284.72138631 C-76.78523794 284.64840568 -82.88738401 284.61008697 -88.99030119 284.59690821 C-92.61271255 284.58809871 -96.23349768 284.56429168 -99.85542107 284.50223923 C-103.87961791 284.43400723 -107.90077203 284.43750932 -111.92553711 284.44677734 C-113.10330719 284.41599091 -114.28107727 284.38520447 -115.49453735 284.35348511 C-132.093381 284.56101887 -141.25243962 301.41382316 -148.71484375 314.484375 Z " fill="#11110E" transform="translate(182.96484375,15.515625)"/>
</svg>
