<?xml version="1.0" encoding="UTF-8"?>
<svg version="1.1" xmlns="http://www.w3.org/2000/svg" width="213" height="639">
<path d="M0 0 C3.34575594 1.22433227 5.88394049 1.61604189 9.4375 1.4375 C17.94860766 1.21247849 26.05008462 3.65697273 32.625 9.125 C49.29783108 25.73687009 51.74207983 53.6098713 51.92578125 75.99609375 C51.93534851 76.99882828 51.94491577 78.00156281 51.95477295 79.03468323 C51.97953413 82.33565424 51.9919673 85.63644718 52 88.9375 C52.00361542 90.07662842 52.00723083 91.21575684 52.01095581 92.3894043 C52.04418546 118.84295828 50.25358562 145.08784409 48.16821289 171.44921875 C48.05136642 172.94654541 48.05136642 172.94654541 47.93215942 174.47412109 C47.76718964 176.5144209 47.59105771 178.55384495 47.4045105 180.59228516 C45.98802705 196.79276028 47.11253849 211.67292269 49.5009346 227.70793152 C50.03570273 231.30003201 50.55614306 234.89397622 51.07333374 238.48864746 C51.81885143 243.66165564 52.56958891 248.83387217 53.32528687 254.00540161 C55.3141643 267.62399416 57.26614823 281.24782642 59.1953125 294.875 C59.29254632 295.56110769 59.38978014 296.24721537 59.48996043 296.9541142 C62.27576013 316.62803273 64.83178008 336.31563812 67.0546875 356.0625 C67.24158803 357.7177686 67.24158803 357.7177686 67.43226433 359.40647697 C68.60020156 369.7824643 69.7354273 380.16132284 70.80825806 390.54758644 C71.19890149 394.29703341 71.60512005 398.04469966 72.01405716 401.79219055 C72.28029308 404.29117778 72.52317039 406.79162221 72.76473999 409.29309082 C74.34308812 424.37325074 79.61367632 437.03262563 86.625 450.4375 C88.65609614 454.45319054 90.67155499 458.47668542 92.6875 462.5 C93.05053223 463.21639648 93.41356445 463.93279297 93.78759766 464.67089844 C98.91470456 474.99884567 101.43480034 485.94753775 104 497.125 C104.1714856 497.87012848 104.34297119 498.61525696 104.51965332 499.38296509 C110.23630912 524.50134238 113.98295547 549.40520592 99.6875 572.5 C96.92796723 576.1042877 93.90500981 579.30362326 90.6875 582.5 C89.89214844 583.33144531 89.09679687 584.16289063 88.27734375 585.01953125 C83.33412036 590.11943367 78.14965219 594.71856094 72.60546875 599.15234375 C69.41923924 601.71582961 66.30042916 604.34855135 63.1875 607 C58.26738383 611.17912609 53.31530741 615.31384083 48.296875 619.375 C46.58222239 620.7713638 44.88356334 622.18764394 43.203125 623.625 C31.42848267 633.52469928 19.84976367 638.15037809 4.54296875 637.86328125 C-24.28793453 635.14669158 -60.37772073 602.72188718 -78.53491211 581.71020508 C-81.44875277 578.08721381 -83.88368869 574.20834627 -86.3125 570.25 C-86.82868896 569.41879639 -87.34487793 568.58759277 -87.87670898 567.73120117 C-89.36459981 565.32635708 -90.84047453 562.91457902 -92.3125 560.5 C-92.89475342 559.55278076 -92.89475342 559.55278076 -93.48876953 558.58642578 C-104.05847288 541.33852443 -105.45330807 524.50714016 -100.9375 504.95800781 C-95.32384915 482.88057159 -85.68877397 462.36192143 -74.9375 442.375 C-74.39899414 441.37114258 -73.86048828 440.36728516 -73.30566406 439.33300781 C-70.67319795 434.5133295 -67.94876335 429.87458293 -64.80859375 425.3671875 C-54.0272576 409.58099045 -51.81945443 393.54058187 -49.61535645 374.99859619 C-49.21616775 371.70524921 -48.77943314 368.41730021 -48.34389591 365.12859821 C-45.75471343 345.40372918 -43.88000349 325.62306758 -42.36328125 305.7890625 C-42.27870855 304.69078251 -42.19413586 303.59250252 -42.10700035 302.46094131 C-40.06261571 275.7099707 -38.65875665 248.92906656 -37.3147583 222.13531494 C-37.05886872 217.06452017 -36.79667214 211.99405975 -36.53429127 206.92359734 C-36.21448734 200.73824914 -35.89804882 194.55273013 -35.58203125 188.3671875 C-35.49546233 186.67920359 -35.49546233 186.67920359 -35.40714455 184.95711899 C-34.21015916 161.52282154 -33.25960074 138.08475092 -32.75 114.625 C-32.72815643 113.66573608 -32.70631287 112.70647217 -32.68380737 111.71813965 C-32.4345292 100.60518008 -32.2784358 89.49873218 -32.3203125 78.3828125 C-32.32360062 77.39987213 -32.32688873 76.41693176 -32.33027649 75.40420532 C-32.34897009 70.73284144 -32.38196509 66.06218514 -32.43725586 61.39111328 C-32.81813944 17.76632175 -32.81813944 17.76632175 -20.31640625 4.359375 C-13.93280466 -1.40343598 -8.36004243 -3.13686548 0 0 Z " fill="#FFFFFF" transform="translate(103.3125,1.5)"/>
<path d="M0 0 C2.63171977 0.02172067 5.26349139 0.03782552 7.89527893 0.04855347 C13.39967494 0.07972041 18.90170018 0.15732488 24.4050293 0.26904297 C32.17522405 0.42677472 39.94468339 0.50504389 47.71616828 0.56525445 C58.68570897 0.65361924 69.65474869 0.78223549 80.62280273 0.98486328 C81.71002625 1.00169159 82.79724976 1.0185199 83.91741943 1.03585815 C84.900103 1.0560199 85.88278656 1.07618164 86.89524841 1.09695435 C88.18353877 1.12089862 88.18353877 1.12089862 89.49785519 1.14532661 C91.44140625 1.3046875 91.44140625 1.3046875 92.44140625 2.3046875 C92.66780128 3.96899692 92.87147057 5.63640076 93.06640625 7.3046875 C95.12333768 19.71870323 101.18397538 30.8460964 106.68457031 42.03393555 C117.65146894 64.35105364 117.65146894 64.35105364 120.44140625 76.3046875 C120.68294434 77.30741699 120.92448242 78.31014648 121.17333984 79.34326172 C133.69096841 131.74246184 133.69096841 131.74246184 121.234375 152.71875 C118.04772323 157.31474885 114.3434281 161.31176997 110.44140625 165.3046875 C109.71824219 166.06652344 108.99507812 166.82835937 108.25 167.61328125 C103.58073252 172.43290081 98.62751068 176.7267211 93.39453125 180.921875 C90.19928118 183.50005297 87.06702509 186.14304572 83.94140625 188.8046875 C79.02340558 192.98190752 74.07259913 197.11371023 69.05859375 201.17578125 C67.32116238 202.58906498 65.59693381 204.01874447 63.88671875 205.46484375 C53.65584847 213.99056898 43.34265963 218.98266857 29.8125 218.66015625 C7.00217272 216.25489578 -17.46638664 192.54489822 -34.55859375 178.3046875 C-35.38617188 177.62277344 -36.21375 176.94085937 -37.06640625 176.23828125 C-52.9144957 162.84509193 -70.46878212 138.48118864 -72.89453125 117.3828125 C-73.37934061 82.28261477 -54.24260396 46.85429281 -36.4276886 17.66366577 C-34.47467831 14.38551905 -34.47467831 14.38551905 -33.38676453 10.89530945 C-27.5059361 -3.43153937 -13.36881835 -0.34492015 0 0 Z " fill="#FFFFFF" transform="translate(78.55859375,414.6953125)"/>
<path d="M0 0 C3.34575594 1.22433227 5.88394049 1.61604189 9.4375 1.4375 C17.94860766 1.21247849 26.05008462 3.65697273 32.625 9.125 C49.29783108 25.73687009 51.74207983 53.6098713 51.92578125 75.99609375 C51.93534851 76.99882828 51.94491577 78.00156281 51.95477295 79.03468323 C51.97953413 82.33565424 51.9919673 85.63644718 52 88.9375 C52.00361542 90.07662842 52.00723083 91.21575684 52.01095581 92.3894043 C52.04418546 118.84295828 50.25358562 145.08784409 48.16821289 171.44921875 C48.05136642 172.94654541 48.05136642 172.94654541 47.93215942 174.47412109 C47.76718964 176.5144209 47.59105771 178.55384495 47.4045105 180.59228516 C45.98802705 196.79276028 47.11253849 211.67292269 49.5009346 227.70793152 C50.03570273 231.30003201 50.55614306 234.89397622 51.07333374 238.48864746 C51.81885143 243.66165564 52.56958891 248.83387217 53.32528687 254.00540161 C55.3141643 267.62399416 57.26614823 281.24782642 59.1953125 294.875 C59.29254632 295.56110769 59.38978014 296.24721537 59.48996043 296.9541142 C62.27576013 316.62803273 64.83178008 336.31563812 67.0546875 356.0625 C67.24158803 357.7177686 67.24158803 357.7177686 67.43226433 359.40647697 C68.60020156 369.7824643 69.7354273 380.16132284 70.80825806 390.54758644 C71.19890149 394.29703341 71.60512005 398.04469966 72.01405716 401.79219055 C72.28029308 404.29117778 72.52317039 406.79162221 72.76473999 409.29309082 C74.34308812 424.37325074 79.61367632 437.03262563 86.625 450.4375 C88.65609614 454.45319054 90.67155499 458.47668542 92.6875 462.5 C93.05053223 463.21639648 93.41356445 463.93279297 93.78759766 464.67089844 C98.91470456 474.99884567 101.43480034 485.94753775 104 497.125 C104.1714856 497.87012848 104.34297119 498.61525696 104.51965332 499.38296509 C110.23630912 524.50134238 113.98295547 549.40520592 99.6875 572.5 C96.92796723 576.1042877 93.90500981 579.30362326 90.6875 582.5 C89.89214844 583.33144531 89.09679687 584.16289063 88.27734375 585.01953125 C83.33412036 590.11943367 78.14965219 594.71856094 72.60546875 599.15234375 C69.41923924 601.71582961 66.30042916 604.34855135 63.1875 607 C58.26738383 611.17912609 53.31530741 615.31384083 48.296875 619.375 C46.58222239 620.7713638 44.88356334 622.18764394 43.203125 623.625 C31.42848267 633.52469928 19.84976367 638.15037809 4.54296875 637.86328125 C-24.28793453 635.14669158 -60.37772073 602.72188718 -78.53491211 581.71020508 C-81.44875277 578.08721381 -83.88368869 574.20834627 -86.3125 570.25 C-86.82868896 569.41879639 -87.34487793 568.58759277 -87.87670898 567.73120117 C-89.36459981 565.32635708 -90.84047453 562.91457902 -92.3125 560.5 C-92.89475342 559.55278076 -92.89475342 559.55278076 -93.48876953 558.58642578 C-104.05847288 541.33852443 -105.45330807 524.50714016 -100.9375 504.95800781 C-95.32384915 482.88057159 -85.68877397 462.36192143 -74.9375 442.375 C-74.39899414 441.37114258 -73.86048828 440.36728516 -73.30566406 439.33300781 C-70.67319795 434.5133295 -67.94876335 429.87458293 -64.80859375 425.3671875 C-54.0272576 409.58099045 -51.81945443 393.54058187 -49.61535645 374.99859619 C-49.21616775 371.70524921 -48.77943314 368.41730021 -48.34389591 365.12859821 C-45.75471343 345.40372918 -43.88000349 325.62306758 -42.36328125 305.7890625 C-42.27870855 304.69078251 -42.19413586 303.59250252 -42.10700035 302.46094131 C-40.06261571 275.7099707 -38.65875665 248.92906656 -37.3147583 222.13531494 C-37.05886872 217.06452017 -36.79667214 211.99405975 -36.53429127 206.92359734 C-36.21448734 200.73824914 -35.89804882 194.55273013 -35.58203125 188.3671875 C-35.49546233 186.67920359 -35.49546233 186.67920359 -35.40714455 184.95711899 C-34.21015916 161.52282154 -33.25960074 138.08475092 -32.75 114.625 C-32.72815643 113.66573608 -32.70631287 112.70647217 -32.68380737 111.71813965 C-32.4345292 100.60518008 -32.2784358 89.49873218 -32.3203125 78.3828125 C-32.32360062 77.39987213 -32.32688873 76.41693176 -32.33027649 75.40420532 C-32.34897009 70.73284144 -32.38196509 66.06218514 -32.43725586 61.39111328 C-32.81813944 17.76632175 -32.81813944 17.76632175 -20.31640625 4.359375 C-13.93280466 -1.40343598 -8.36004243 -3.13686548 0 0 Z M-15.6796875 8.45703125 C-27.71225261 23.51213066 -26.45283408 46.69816543 -26.32971191 64.91726685 C-26.02216526 116.64999494 -28.53078367 168.21931268 -31.17786407 219.86816406 C-31.30993391 222.44983852 -31.44120984 225.03155204 -31.57220459 227.61328125 C-37.60655381 346.46090656 -37.60655381 346.46090656 -48.0246582 402.47753906 C-48.40643511 404.81954206 -48.40643511 404.81954206 -48.3125 408.5 C-10.3625 408.5 27.5875 408.5 66.6875 408.5 C64.00096162 383.50645687 64.00096162 383.50645687 61.1875 358.52734375 C61.04030518 357.25642034 61.04030518 357.25642034 60.89013672 355.9598217 C58.65837659 336.77147316 56.10438497 317.63217626 53.4375 298.5 C53.31885841 297.64830734 53.20021683 296.79661469 53.07798004 295.91911316 C51.46313935 284.33535153 49.8307353 272.75408003 48.19461632 261.17330742 C46.88980094 251.93670985 45.58814497 242.69967036 44.28808594 233.46240234 C44.18320358 232.71719904 44.07832123 231.97199574 43.97026062 231.20421052 C42.76045457 222.60755214 41.55194788 214.01071217 40.34533691 205.41360474 C40.23467675 204.62515384 40.12401659 203.83670294 40.01000309 203.02435958 C39.56109559 199.82569639 39.11222322 196.62702829 38.663517 193.42833686 C37.44719385 184.75757738 36.22882251 176.08711959 35.00280762 167.41772461 C33.7390259 158.48101073 32.48016141 149.54361678 31.2265625 140.60546875 C31.12586393 139.88816511 31.02516537 139.17086146 30.92141533 138.43182135 C27.88977186 116.82456527 25.07261762 95.20128416 22.68203735 73.51200867 C21.67101475 64.49462367 20.45910128 55.57812035 18.70166016 46.67260742 C18.54526251 45.87563352 18.38886486 45.07865961 18.22772789 44.25753498 C15.18283212 29.56161739 9.72441389 14.14900318 -3.3125 5.5 C-8.84751887 3.46078252 -11.64728103 4.50599621 -15.6796875 8.45703125 Z M-63.89289284 435.31625557 C-65.81773791 439.63309403 -68.12297744 443.68808373 -70.47441387 447.78409481 C-84.55191734 472.41311713 -103.648205 509.03218 -96.3125 538.375 C-87.22375937 564.31318674 -68.90577832 585.29784925 -47.3125 601.5 C-46.71421387 601.95375 -46.11592773 602.4075 -45.49951172 602.875 C-18.12083987 624.60505546 -18.12083987 624.60505546 14.6875 631.5 C28.27831777 628.72158159 37.81421156 619.73933827 48.00537109 610.94824219 C50.7615376 608.57529883 53.5365652 606.22475737 56.3125 603.875 C56.85148926 603.41786621 57.39047852 602.96073242 57.94580078 602.48974609 C61.38901509 599.57609669 64.87006807 596.71443853 68.375 593.875 C73.63866442 589.58156109 78.70639804 585.11722276 83.6875 580.5 C84.4609375 579.81550781 85.234375 579.13101563 86.03125 578.42578125 C97.28301443 568.00248578 102.50473114 555.80079611 103.9609375 540.65625 C105.00439763 512.08149562 94.91890243 480.46241256 82.14941406 455.38037109 C80.30360441 451.74362054 78.53809722 448.07215034 76.78881836 444.38818359 C76.04811427 442.82846308 75.29974787 441.27234144 74.54125977 439.72119141 C71.45045506 433.31928866 68.54892878 426.66842408 68.0625 419.5 C68.04768226 416.70419702 68.04768226 416.70419702 66.6875 414.5 C65.18990897 414.35225536 63.68562849 414.27170064 62.18171692 414.21824646 C61.20770432 414.18218796 60.23369171 414.14612946 59.23016357 414.10897827 C58.15236633 414.07486847 57.07456909 414.04075867 55.96411133 414.00561523 C54.83553207 413.96691818 53.70695282 413.92822113 52.54417419 413.88835144 C42.08999598 413.54804258 31.63313006 413.33771156 21.17487049 413.17437649 C14.14748767 413.06197234 7.12699619 412.90488636 0.10375977 412.63452148 C-6.68678522 412.37317197 -13.47037857 412.24019659 -20.26568031 412.18400764 C-22.84806052 412.14237372 -25.43013548 412.05894063 -28.00972557 411.93191338 C-48.68361938 410.95821115 -55.81271781 416.36780198 -63.89289284 435.31625557 Z " fill="#11110E" transform="translate(103.3125,1.5)"/>
<path d="M0 0 C9.38080936 0.3844594 15.60083664 2.18036015 22.1875 9.0625 C38.3211612 28.54286979 37.38674815 58.79178147 37.3125 82.6875 C37.31200653 83.78074585 37.31151306 84.8739917 37.31100464 86.00036621 C37.28309648 106.40843566 36.27819579 126.70005073 34.75390625 147.046875 C34.69342102 147.85504166 34.63293579 148.66320831 34.57061768 149.49586487 C34.2117112 154.03129384 33.69259196 158.50319271 33 163 C32.67 163 32.34 163 32 163 C30.54741911 152.71092275 29.10224104 142.42082023 27.66289902 132.12988281 C27.42984342 130.46384804 27.19665162 128.79783231 26.96332169 127.13183594 C24.15958887 107.10938562 21.44000881 87.09334999 19.1875 67 C16.5856039 44.01700344 13.70864263 21.82709119 1 2 C0.67 1.34 0.34 0.68 0 0 Z " fill="#FFFFFF" transform="translate(112,9)"/>
</svg>
