<?xml version="1.0" encoding="UTF-8"?>
<svg version="1.1" xmlns="http://www.w3.org/2000/svg" width="308" height="532">
<path d="M0 0 C10.77679161 9.61338797 13.77303315 22.75731375 14.625 36.5625 C14.76217933 39.04133058 14.88436936 41.52002704 15 44 C16.07765625 44.11859375 17.1553125 44.2371875 18.265625 44.359375 C23.92060329 45.32947588 27.35167669 47.9121238 30.875 52.375 C32.92244431 57.15237006 33.41071295 60.59874406 31.9375 65.625 C29.691065 69.53814484 27.80039926 71.56200802 24 74 C21.26654602 74.66489421 18.83135771 74.85355046 16 75 C15.67 79.62 15.34 84.24 15 89 C17.97 89.495 17.97 89.495 21 90 C25.72885396 92.55358114 28.62236836 95.15328935 31 100 C31.81940711 104.65724245 31.45876794 108.02741196 29.4375 112.3125 C25.7837574 116.34098543 21.49103708 119.12143407 16 120 C15.67 122.64 15.34 125.28 15 128 C16.5159375 128.3403125 16.5159375 128.3403125 18.0625 128.6875 C23.58172913 130.25801236 27.82705348 133.24058022 31 138 C31.87857559 142.37732793 31.88901735 146.34420519 29.75 150.328125 C25.64825436 155.45530705 21.34986147 157.61771723 15 159 C15 161.64 15 164.28 15 167 C15.70125 167.0825 16.4025 167.165 17.125 167.25 C22.87949761 168.75117329 26.66727036 172.18605718 30 177 C31.66666583 181.9999975 31.57623861 186.28654087 29.5 191.125 C26.57547045 196.52332515 21.67503639 199.1083212 16 201 C15.60834475 203.37592855 15.60834475 203.37592855 16 206 C18.02180549 207.70721911 18.02180549 207.70721911 20.6875 208.9375 C25.90061156 211.79511214 29.2937577 214.5875154 32 220 C32.374046 225.61068999 32.27826061 229.23162093 29 234 C20.9802255 242.21723107 20.9802255 242.21723107 16 243 C16.18175781 243.72703125 16.36351562 244.4540625 16.55078125 245.203125 C16.80214844 246.20859375 17.05351562 247.2140625 17.3125 248.25 C17.59738281 249.34441406 17.88226563 250.43882812 18.17578125 251.56640625 C19 255 19 255 19.48046875 258.15234375 C20.81237992 265.93350903 23.60597623 269.20428901 29.92578125 273.828125 C30.94027344 274.54484375 31.95476562 275.2615625 33 276 C35.09123072 277.61329027 37.13696301 279.27160449 39.1875 280.9375 C40.10917969 281.66839844 41.03085938 282.39929688 41.98046875 283.15234375 C42.64691406 283.76207031 43.31335938 284.37179687 44 285 C44 285.66 44 286.32 44 287 C45.07894531 287.37125 45.07894531 287.37125 46.1796875 287.75 C51.49179754 290.1043978 55.62721557 294.23710393 60 298 C60.9384375 298.80179687 61.876875 299.60359375 62.84375 300.4296875 C69.30616667 306.11153137 74.80733253 312.14567894 80 319 C80.4007373 319.52577637 80.80147461 320.05155273 81.21435547 320.59326172 C88.02035489 329.58908681 93.79644746 338.9964551 99 349 C99.34804688 349.66870117 99.69609375 350.33740234 100.0546875 351.02636719 C105.97874112 362.59052073 110.26819485 374.56845662 114 387 C114.36351562 388.20785156 114.72703125 389.41570312 115.1015625 390.66015625 C122.74736435 419.49268938 110.84659417 453.35329868 96.640625 478.36328125 C86.10014068 495.30334534 71.54927702 511.03296753 51.68359375 516.375 C23.71169159 521.12102794 -4.66806004 510.30478136 -30.5703125 500.93359375 C-31.27759491 500.67845505 -31.98487732 500.42331635 -32.71359253 500.16044617 C-36.15413891 498.91633261 -39.58726854 497.65601091 -43.01123047 496.36694336 C-44.24502441 495.91327393 -45.47881836 495.45960449 -46.75 494.9921875 C-47.83796875 494.58339355 -48.9259375 494.17459961 -50.046875 493.75341797 C-54.49733715 492.61799087 -56.96973446 493.42056207 -60.91015625 495.63671875 C-61.95042969 496.31347656 -62.99070313 496.99023438 -64.0625 497.6875 C-82.56188997 509.41458018 -102.02111275 516.30037432 -124.0859375 512.38671875 C-138.51742663 508.89423684 -151.11282081 502.04264252 -162 492 C-162.94552734 491.17435547 -162.94552734 491.17435547 -163.91015625 490.33203125 C-180.31116999 475.20125547 -190.03184575 451.34906425 -191.19067383 429.38623047 C-191.26769305 425.50516418 -191.27828339 421.63171704 -191.25 417.75 C-191.24590118 417.06280884 -191.24180237 416.37561768 -191.23757935 415.66760254 C-191.05378338 389.37064076 -185.17716139 364.27870618 -175 340 C-174.69481445 339.27135742 -174.38962891 338.54271484 -174.07519531 337.79199219 C-165.82518045 318.47926309 -154.01209169 299.73945986 -136.3359375 287.90234375 C-133.86288353 286.28059574 -133.86288353 286.28059574 -133.5378418 284.08325195 C-132.88417656 281.55137475 -131.92213075 280.57488422 -130.05859375 278.765625 C-129.47529297 278.19199219 -128.89199219 277.61835938 -128.29101562 277.02734375 C-127.67935547 276.44082031 -127.06769531 275.85429687 -126.4375 275.25 C-125.82197266 274.64800781 -125.20644531 274.04601562 -124.57226562 273.42578125 C-123.05485187 271.94365619 -121.52829404 270.4709033 -120 269 C-120.30035156 268.27554687 -120.60070312 267.55109375 -120.91015625 266.8046875 C-124.83681837 256.82164822 -124.83681837 256.82164822 -123 252 C-119.66826243 246.16945926 -116.89125748 246.0627811 -110 243 C-110 236.07 -110 229.14 -110 222 C-112.64 221.01 -115.28 220.02 -118 219 C-122.1888372 215.66025142 -125.00987762 211.28065272 -126 206 C-125.9130907 201.13307909 -124.93954878 197.93299197 -121.59765625 194.2890625 C-117.93288628 191.33215763 -113.65842421 190 -109 190 C-108.36576781 186.16641874 -108.1600675 182.81238824 -109 179 C-111.30285329 176.46389269 -113.65909922 174.72549633 -116.51953125 172.8515625 C-119.27480528 170.79486976 -120.51638104 169.08209874 -122 166 C-122.58118727 161.99626547 -122.88386626 159.57654159 -120.8984375 156.03515625 C-117.50279534 151.74066764 -114.14070604 149.74784005 -109 148 C-109 145.36 -109 142.72 -109 140 C-109.53109375 139.78085938 -110.0621875 139.56171875 -110.609375 139.3359375 C-115.6378139 137.07864559 -118.52648661 135.14490784 -121 130 C-122.1914373 125.86306492 -122.30749759 122.92249277 -120.9375 118.8125 C-118.14975077 114.76576724 -115.27001336 111.53624953 -110.3046875 110.36328125 C-109.54414062 110.24339844 -108.78359375 110.12351562 -108 110 C-107.66546424 103.03718946 -107.66546424 103.03718946 -110.70703125 97.109375 C-112.76257199 95.66019971 -114.86544591 94.32890527 -117 93 C-120.50510486 89.58476962 -121.73913513 86.77348652 -122.08984375 81.98046875 C-121.90417065 77.88758789 -120.2157187 75.22450702 -117.37890625 72.3671875 C-114.96375756 70.21692609 -112.82388488 68.3461204 -109.82421875 67.0859375 C-107.81382854 66.16386117 -107.81382854 66.16386117 -107.390625 64.0546875 C-107.34421875 63.33539063 -107.2978125 62.61609375 -107.25 61.875 C-107.1675 60.59625 -107.085 59.3175 -107 58 C-107.99 57.814375 -108.98 57.62875 -110 57.4375 C-115.46671558 55.8898962 -120.200497 51.86522808 -123.20703125 47.078125 C-125.17052265 41.93242339 -124.69905809 36.57288069 -122.5 31.625 C-118.67658074 27.61040978 -114.57322317 25.21443526 -109 24.75 C-108.34 24.8325 -107.68 24.915 -107 25 C-106.79375 23.72125 -106.5875 22.4425 -106.375 21.125 C-103.99495244 10.52296995 -96.48644161 0.60666918 -87.375 -5.1875 C-60.58949233 -20.08186563 -24.70083145 -18.96105491 0 0 Z " fill="#FFFFFF" transform="translate(191,15)"/>
<path d="M0 0 C10.77679161 9.61338797 13.77303315 22.75731375 14.625 36.5625 C14.76217933 39.04133058 14.88436936 41.52002704 15 44 C16.07765625 44.11859375 17.1553125 44.2371875 18.265625 44.359375 C23.92060329 45.32947588 27.35167669 47.9121238 30.875 52.375 C32.92244431 57.15237006 33.41071295 60.59874406 31.9375 65.625 C29.691065 69.53814484 27.80039926 71.56200802 24 74 C21.26654602 74.66489421 18.83135771 74.85355046 16 75 C15.67 79.62 15.34 84.24 15 89 C17.97 89.495 17.97 89.495 21 90 C25.72885396 92.55358114 28.62236836 95.15328935 31 100 C31.81940711 104.65724245 31.45876794 108.02741196 29.4375 112.3125 C25.7837574 116.34098543 21.49103708 119.12143407 16 120 C15.67 122.64 15.34 125.28 15 128 C16.5159375 128.3403125 16.5159375 128.3403125 18.0625 128.6875 C23.58172913 130.25801236 27.82705348 133.24058022 31 138 C31.87857559 142.37732793 31.88901735 146.34420519 29.75 150.328125 C25.64825436 155.45530705 21.34986147 157.61771723 15 159 C15 161.64 15 164.28 15 167 C15.70125 167.0825 16.4025 167.165 17.125 167.25 C22.87949761 168.75117329 26.66727036 172.18605718 30 177 C31.66666583 181.9999975 31.57623861 186.28654087 29.5 191.125 C26.57547045 196.52332515 21.67503639 199.1083212 16 201 C15.60834475 203.37592855 15.60834475 203.37592855 16 206 C18.02180549 207.70721911 18.02180549 207.70721911 20.6875 208.9375 C25.90061156 211.79511214 29.2937577 214.5875154 32 220 C32.374046 225.61068999 32.27826061 229.23162093 29 234 C20.9802255 242.21723107 20.9802255 242.21723107 16 243 C16.18175781 243.72703125 16.36351562 244.4540625 16.55078125 245.203125 C16.80214844 246.20859375 17.05351562 247.2140625 17.3125 248.25 C17.59738281 249.34441406 17.88226563 250.43882812 18.17578125 251.56640625 C19 255 19 255 19.48046875 258.15234375 C20.81237992 265.93350903 23.60597623 269.20428901 29.92578125 273.828125 C30.94027344 274.54484375 31.95476562 275.2615625 33 276 C35.09123072 277.61329027 37.13696301 279.27160449 39.1875 280.9375 C40.10917969 281.66839844 41.03085938 282.39929688 41.98046875 283.15234375 C42.64691406 283.76207031 43.31335938 284.37179687 44 285 C44 285.66 44 286.32 44 287 C45.07894531 287.37125 45.07894531 287.37125 46.1796875 287.75 C51.49179754 290.1043978 55.62721557 294.23710393 60 298 C60.9384375 298.80179687 61.876875 299.60359375 62.84375 300.4296875 C69.30616667 306.11153137 74.80733253 312.14567894 80 319 C80.4007373 319.52577637 80.80147461 320.05155273 81.21435547 320.59326172 C88.02035489 329.58908681 93.79644746 338.9964551 99 349 C99.34804688 349.66870117 99.69609375 350.33740234 100.0546875 351.02636719 C105.97874112 362.59052073 110.26819485 374.56845662 114 387 C114.36351562 388.20785156 114.72703125 389.41570312 115.1015625 390.66015625 C122.74736435 419.49268938 110.84659417 453.35329868 96.640625 478.36328125 C86.10014068 495.30334534 71.54927702 511.03296753 51.68359375 516.375 C23.71169159 521.12102794 -4.66806004 510.30478136 -30.5703125 500.93359375 C-31.27759491 500.67845505 -31.98487732 500.42331635 -32.71359253 500.16044617 C-36.15413891 498.91633261 -39.58726854 497.65601091 -43.01123047 496.36694336 C-44.24502441 495.91327393 -45.47881836 495.45960449 -46.75 494.9921875 C-47.83796875 494.58339355 -48.9259375 494.17459961 -50.046875 493.75341797 C-54.49733715 492.61799087 -56.96973446 493.42056207 -60.91015625 495.63671875 C-61.95042969 496.31347656 -62.99070313 496.99023438 -64.0625 497.6875 C-82.56188997 509.41458018 -102.02111275 516.30037432 -124.0859375 512.38671875 C-138.51742663 508.89423684 -151.11282081 502.04264252 -162 492 C-162.94552734 491.17435547 -162.94552734 491.17435547 -163.91015625 490.33203125 C-180.31116999 475.20125547 -190.03184575 451.34906425 -191.19067383 429.38623047 C-191.26769305 425.50516418 -191.27828339 421.63171704 -191.25 417.75 C-191.24590118 417.06280884 -191.24180237 416.37561768 -191.23757935 415.66760254 C-191.05378338 389.37064076 -185.17716139 364.27870618 -175 340 C-174.69481445 339.27135742 -174.38962891 338.54271484 -174.07519531 337.79199219 C-165.82518045 318.47926309 -154.01209169 299.73945986 -136.3359375 287.90234375 C-133.86288353 286.28059574 -133.86288353 286.28059574 -133.5378418 284.08325195 C-132.88417656 281.55137475 -131.92213075 280.57488422 -130.05859375 278.765625 C-129.47529297 278.19199219 -128.89199219 277.61835938 -128.29101562 277.02734375 C-127.67935547 276.44082031 -127.06769531 275.85429687 -126.4375 275.25 C-125.82197266 274.64800781 -125.20644531 274.04601562 -124.57226562 273.42578125 C-123.05485187 271.94365619 -121.52829404 270.4709033 -120 269 C-120.30035156 268.27554687 -120.60070312 267.55109375 -120.91015625 266.8046875 C-124.83681837 256.82164822 -124.83681837 256.82164822 -123 252 C-119.66826243 246.16945926 -116.89125748 246.0627811 -110 243 C-110 236.07 -110 229.14 -110 222 C-112.64 221.01 -115.28 220.02 -118 219 C-122.1888372 215.66025142 -125.00987762 211.28065272 -126 206 C-125.9130907 201.13307909 -124.93954878 197.93299197 -121.59765625 194.2890625 C-117.93288628 191.33215763 -113.65842421 190 -109 190 C-108.36576781 186.16641874 -108.1600675 182.81238824 -109 179 C-111.30285329 176.46389269 -113.65909922 174.72549633 -116.51953125 172.8515625 C-119.27480528 170.79486976 -120.51638104 169.08209874 -122 166 C-122.58118727 161.99626547 -122.88386626 159.57654159 -120.8984375 156.03515625 C-117.50279534 151.74066764 -114.14070604 149.74784005 -109 148 C-109 145.36 -109 142.72 -109 140 C-109.53109375 139.78085938 -110.0621875 139.56171875 -110.609375 139.3359375 C-115.6378139 137.07864559 -118.52648661 135.14490784 -121 130 C-122.1914373 125.86306492 -122.30749759 122.92249277 -120.9375 118.8125 C-118.14975077 114.76576724 -115.27001336 111.53624953 -110.3046875 110.36328125 C-109.54414062 110.24339844 -108.78359375 110.12351562 -108 110 C-107.66546424 103.03718946 -107.66546424 103.03718946 -110.70703125 97.109375 C-112.76257199 95.66019971 -114.86544591 94.32890527 -117 93 C-120.50510486 89.58476962 -121.73913513 86.77348652 -122.08984375 81.98046875 C-121.90417065 77.88758789 -120.2157187 75.22450702 -117.37890625 72.3671875 C-114.96375756 70.21692609 -112.82388488 68.3461204 -109.82421875 67.0859375 C-107.81382854 66.16386117 -107.81382854 66.16386117 -107.390625 64.0546875 C-107.34421875 63.33539063 -107.2978125 62.61609375 -107.25 61.875 C-107.1675 60.59625 -107.085 59.3175 -107 58 C-107.99 57.814375 -108.98 57.62875 -110 57.4375 C-115.46671558 55.8898962 -120.200497 51.86522808 -123.20703125 47.078125 C-125.17052265 41.93242339 -124.69905809 36.57288069 -122.5 31.625 C-118.67658074 27.61040978 -114.57322317 25.21443526 -109 24.75 C-108.34 24.8325 -107.68 24.915 -107 25 C-106.79375 23.72125 -106.5875 22.4425 -106.375 21.125 C-103.99495244 10.52296995 -96.48644161 0.60666918 -87.375 -5.1875 C-60.58949233 -20.08186563 -24.70083145 -18.96105491 0 0 Z M-144 303 C-144.81726563 303.81726563 -145.63453125 304.63453125 -146.4765625 305.4765625 C-176.09924254 336.72798096 -186.04044284 386.277407 -185.13183594 427.72558594 C-184.16910176 451.63705027 -173.07125263 472.68852495 -156 489 C-141.09763247 501.79540541 -123.69515169 508.43402828 -104.10205078 507.19384766 C-90.89712027 505.97611074 -79.14053256 499.84442443 -68 493 C-67.15872559 492.5268335 -66.31745117 492.05366699 -65.45068359 491.56616211 C-61.81846375 489.23984071 -59.41073261 487.54960731 -58.27685547 483.27172852 C-58.06744982 479.86741387 -58.1704296 476.59216884 -58.375 473.1875 C-58.41302734 471.94460205 -58.45105469 470.7017041 -58.49023438 469.42114258 C-58.57680532 466.72595604 -58.67947531 464.03675754 -58.80761719 461.34375 C-59.02187841 456.74094581 -59.14455879 452.13749735 -59.2578125 447.53125 C-59.46388877 439.35255194 -59.71792467 431.17643359 -60 423 C-58.02 423 -56.04 423 -54 423 C-54.00523682 423.84256348 -54.01047363 424.68512695 -54.01586914 425.55322266 C-54.12363721 445.72904229 -53.82980765 465.83964648 -53 486 C1.97679976 509.98738882 1.97679976 509.98738882 59 507 C81.61220278 495.77208742 95.63123437 471.08315277 103.6875 448.046875 C115.16636513 413.57691082 110.05686336 384.91327128 94.12304688 352.91479492 C87.02773548 339.14428926 78.59558743 326.34474705 67.9375 315.05859375 C66.22975114 313.24411058 64.6779548 311.3831053 63.125 309.4375 C56.71440875 301.95847688 41.64448433 287.93444331 31.14587784 286.79957485 C30.38700146 286.76488126 29.62812508 286.73018766 28.84625244 286.69444275 C27.9733746 286.65406922 27.10049675 286.6136957 26.20116806 286.57209873 C25.23791737 286.5340459 24.27466667 286.49599306 23.28222656 286.45678711 C21.75443258 286.39415255 21.75443258 286.39415255 20.19577408 286.33025265 C6.63021861 285.81911723 -6.94200369 285.75372916 -20.515625 285.69140625 C-21.56726916 285.68646027 -21.56726916 285.68646027 -22.64015865 285.68141437 C-29.28006221 285.65076309 -35.91997209 285.62415487 -42.55992508 285.60699558 C-50.96018613 285.58499599 -59.35981736 285.54262386 -67.7598269 285.47355801 C-73.72558966 285.42620241 -79.69118245 285.40205028 -85.65712714 285.3947987 C-89.19816364 285.38987713 -92.7384766 285.37512383 -96.2793045 285.3350544 C-100.21666298 285.29104368 -104.15320804 285.2951106 -108.09082031 285.30297852 C-109.81471733 285.2729776 -109.81471733 285.2729776 -111.57344055 285.24237061 C-125.65180065 285.36824365 -134.55597981 293.50296075 -144 303 Z " fill="#C1BFBE" transform="translate(191,15)"/>
<path d="M0 0 C10.77679161 9.61338797 13.77303315 22.75731375 14.625 36.5625 C14.76217933 39.04133058 14.88436936 41.52002704 15 44 C16.07765625 44.11859375 17.1553125 44.2371875 18.265625 44.359375 C23.92060329 45.32947588 27.35167669 47.9121238 30.875 52.375 C32.92244431 57.15237006 33.41071295 60.59874406 31.9375 65.625 C29.691065 69.53814484 27.80039926 71.56200802 24 74 C21.26654602 74.66489421 18.83135771 74.85355046 16 75 C15.67 79.62 15.34 84.24 15 89 C17.97 89.495 17.97 89.495 21 90 C25.72885396 92.55358114 28.62236836 95.15328935 31 100 C31.81940711 104.65724245 31.45876794 108.02741196 29.4375 112.3125 C25.7837574 116.34098543 21.49103708 119.12143407 16 120 C15.67 122.64 15.34 125.28 15 128 C16.5159375 128.3403125 16.5159375 128.3403125 18.0625 128.6875 C23.58172913 130.25801236 27.82705348 133.24058022 31 138 C31.87857559 142.37732793 31.88901735 146.34420519 29.75 150.328125 C25.64825436 155.45530705 21.34986147 157.61771723 15 159 C15 161.64 15 164.28 15 167 C15.70125 167.0825 16.4025 167.165 17.125 167.25 C22.87949761 168.75117329 26.66727036 172.18605718 30 177 C31.66666583 181.9999975 31.57623861 186.28654087 29.5 191.125 C26.57547045 196.52332515 21.67503639 199.1083212 16 201 C15.60834475 203.37592855 15.60834475 203.37592855 16 206 C18.02180549 207.70721911 18.02180549 207.70721911 20.6875 208.9375 C25.90061156 211.79511214 29.2937577 214.5875154 32 220 C32.374046 225.61068999 32.27826061 229.23162093 29 234 C20.9802255 242.21723107 20.9802255 242.21723107 16 243 C16.18175781 243.72703125 16.36351562 244.4540625 16.55078125 245.203125 C16.80214844 246.20859375 17.05351562 247.2140625 17.3125 248.25 C17.59738281 249.34441406 17.88226563 250.43882812 18.17578125 251.56640625 C19 255 19 255 19.48046875 258.15234375 C20.81237992 265.93350903 23.60597623 269.20428901 29.92578125 273.828125 C30.94027344 274.54484375 31.95476562 275.2615625 33 276 C35.09123072 277.61329027 37.13696301 279.27160449 39.1875 280.9375 C40.10917969 281.66839844 41.03085938 282.39929688 41.98046875 283.15234375 C42.64691406 283.76207031 43.31335938 284.37179687 44 285 C44 285.66 44 286.32 44 287 C45.07894531 287.37125 45.07894531 287.37125 46.1796875 287.75 C51.49179754 290.1043978 55.62721557 294.23710393 60 298 C60.9384375 298.80179687 61.876875 299.60359375 62.84375 300.4296875 C69.30616667 306.11153137 74.80733253 312.14567894 80 319 C80.4007373 319.52577637 80.80147461 320.05155273 81.21435547 320.59326172 C88.02035489 329.58908681 93.79644746 338.9964551 99 349 C99.34804688 349.66870117 99.69609375 350.33740234 100.0546875 351.02636719 C105.97874112 362.59052073 110.26819485 374.56845662 114 387 C114.36351562 388.20785156 114.72703125 389.41570312 115.1015625 390.66015625 C122.74736435 419.49268938 110.84659417 453.35329868 96.640625 478.36328125 C86.10014068 495.30334534 71.54927702 511.03296753 51.68359375 516.375 C23.71169159 521.12102794 -4.66806004 510.30478136 -30.5703125 500.93359375 C-31.27759491 500.67845505 -31.98487732 500.42331635 -32.71359253 500.16044617 C-36.15413891 498.91633261 -39.58726854 497.65601091 -43.01123047 496.36694336 C-44.24502441 495.91327393 -45.47881836 495.45960449 -46.75 494.9921875 C-47.83796875 494.58339355 -48.9259375 494.17459961 -50.046875 493.75341797 C-54.49733715 492.61799087 -56.96973446 493.42056207 -60.91015625 495.63671875 C-61.95042969 496.31347656 -62.99070313 496.99023438 -64.0625 497.6875 C-82.56188997 509.41458018 -102.02111275 516.30037432 -124.0859375 512.38671875 C-138.51742663 508.89423684 -151.11282081 502.04264252 -162 492 C-162.94552734 491.17435547 -162.94552734 491.17435547 -163.91015625 490.33203125 C-180.31116999 475.20125547 -190.03184575 451.34906425 -191.19067383 429.38623047 C-191.26769305 425.50516418 -191.27828339 421.63171704 -191.25 417.75 C-191.24590118 417.06280884 -191.24180237 416.37561768 -191.23757935 415.66760254 C-191.05378338 389.37064076 -185.17716139 364.27870618 -175 340 C-174.69481445 339.27135742 -174.38962891 338.54271484 -174.07519531 337.79199219 C-165.82518045 318.47926309 -154.01209169 299.73945986 -136.3359375 287.90234375 C-133.86288353 286.28059574 -133.86288353 286.28059574 -133.5378418 284.08325195 C-132.88417656 281.55137475 -131.92213075 280.57488422 -130.05859375 278.765625 C-129.47529297 278.19199219 -128.89199219 277.61835938 -128.29101562 277.02734375 C-127.67935547 276.44082031 -127.06769531 275.85429687 -126.4375 275.25 C-125.82197266 274.64800781 -125.20644531 274.04601562 -124.57226562 273.42578125 C-123.05485187 271.94365619 -121.52829404 270.4709033 -120 269 C-120.30035156 268.27554687 -120.60070312 267.55109375 -120.91015625 266.8046875 C-124.83681837 256.82164822 -124.83681837 256.82164822 -123 252 C-119.66826243 246.16945926 -116.89125748 246.0627811 -110 243 C-110 236.07 -110 229.14 -110 222 C-112.64 221.01 -115.28 220.02 -118 219 C-122.1888372 215.66025142 -125.00987762 211.28065272 -126 206 C-125.9130907 201.13307909 -124.93954878 197.93299197 -121.59765625 194.2890625 C-117.93288628 191.33215763 -113.65842421 190 -109 190 C-108.36576781 186.16641874 -108.1600675 182.81238824 -109 179 C-111.30285329 176.46389269 -113.65909922 174.72549633 -116.51953125 172.8515625 C-119.27480528 170.79486976 -120.51638104 169.08209874 -122 166 C-122.58118727 161.99626547 -122.88386626 159.57654159 -120.8984375 156.03515625 C-117.50279534 151.74066764 -114.14070604 149.74784005 -109 148 C-109 145.36 -109 142.72 -109 140 C-109.53109375 139.78085938 -110.0621875 139.56171875 -110.609375 139.3359375 C-115.6378139 137.07864559 -118.52648661 135.14490784 -121 130 C-122.1914373 125.86306492 -122.30749759 122.92249277 -120.9375 118.8125 C-118.14975077 114.76576724 -115.27001336 111.53624953 -110.3046875 110.36328125 C-109.54414062 110.24339844 -108.78359375 110.12351562 -108 110 C-107.66546424 103.03718946 -107.66546424 103.03718946 -110.70703125 97.109375 C-112.76257199 95.66019971 -114.86544591 94.32890527 -117 93 C-120.50510486 89.58476962 -121.73913513 86.77348652 -122.08984375 81.98046875 C-121.90417065 77.88758789 -120.2157187 75.22450702 -117.37890625 72.3671875 C-114.96375756 70.21692609 -112.82388488 68.3461204 -109.82421875 67.0859375 C-107.81382854 66.16386117 -107.81382854 66.16386117 -107.390625 64.0546875 C-107.34421875 63.33539063 -107.2978125 62.61609375 -107.25 61.875 C-107.1675 60.59625 -107.085 59.3175 -107 58 C-107.99 57.814375 -108.98 57.62875 -110 57.4375 C-115.46671558 55.8898962 -120.200497 51.86522808 -123.20703125 47.078125 C-125.17052265 41.93242339 -124.69905809 36.57288069 -122.5 31.625 C-118.67658074 27.61040978 -114.57322317 25.21443526 -109 24.75 C-108.34 24.8325 -107.68 24.915 -107 25 C-106.79375 23.72125 -106.5875 22.4425 -106.375 21.125 C-103.99495244 10.52296995 -96.48644161 0.60666918 -87.375 -5.1875 C-60.58949233 -20.08186563 -24.70083145 -18.96105491 0 0 Z M-90.4765625 5.20703125 C-96.81213104 12.66350807 -101.1509138 20.10676185 -101 30 C-101.80824219 30.08636719 -102.61648437 30.17273437 -103.44921875 30.26171875 C-110.2482 31.13890839 -110.2482 31.13890839 -116.25 34.25 C-118.39869084 37.62651418 -118.80147642 39.07276553 -118 43 C-114.54326935 48.57537202 -110.20515281 51.02457682 -104 53 C-103.01 53 -102.02 53 -101 53 C-101 58.94 -101 64.88 -101 71 C-103.475 71.495 -103.475 71.495 -106 72 C-108.20036992 73.26567317 -108.20036992 73.26567317 -110.1875 74.875 C-111.19876953 75.64457031 -111.19876953 75.64457031 -112.23046875 76.4296875 C-114.23074492 78.07078261 -114.23074492 78.07078261 -116 81 C-115.82277557 84.09158166 -115.3320541 85.60587971 -113.328125 87.984375 C-112.64234375 88.56703125 -111.9565625 89.1496875 -111.25 89.75 C-110.57453125 90.34296875 -109.8990625 90.9359375 -109.203125 91.546875 C-106.72190301 93.38165088 -106.72190301 93.38165088 -102 94 C-102 100.6 -102 107.2 -102 114 C-105.465 114.99 -105.465 114.99 -109 116 C-112.25199606 117.84625274 -114.5746778 119.99924188 -116.0625 123.5 C-115.97760393 126.89584278 -115.14523868 128.37035258 -113 131 C-108.84376189 133.62023707 -107.05689498 134 -102 134 C-102 140.27 -102 146.54 -102 153 C-104.35125 153.61875 -104.35125 153.61875 -106.75 154.25 C-112.24560017 155.86871856 -112.24560017 155.86871856 -116 160 C-116.55552039 162.94740009 -116.55552039 162.94740009 -115 166 C-111.21859693 169.70547128 -107.32137328 173.06236672 -102 174 C-102.16371094 174.81726563 -102.32742187 175.63453125 -102.49609375 176.4765625 C-103.06974606 180.48768176 -103.11001604 184.33248121 -103.0625 188.375 C-103.05798828 189.11105469 -103.05347656 189.84710938 -103.04882812 190.60546875 C-103.03715142 192.40368158 -103.01922011 194.20185197 -103 196 C-104.06605469 195.97679687 -105.13210937 195.95359375 -106.23046875 195.9296875 C-110.70609142 196.01317062 -114.1764405 196.62583631 -118 199 C-119.9087987 201.72618375 -119.9087987 201.72618375 -120 205 C-118.41235779 209.6695359 -116.25110232 212.50478777 -112 215 C-109.03 215.33 -106.06 215.66 -103 216 C-103 226.56 -103 237.12 -103 248 C-106.3 248.99 -109.6 249.98 -113 251 C-116.06856138 253.47744355 -116.06856138 253.47744355 -118 256 C-117.37720331 257.58420129 -116.75166599 259.16732531 -116.125 260.75 C-115.77695313 261.63171875 -115.42890625 262.5134375 -115.0703125 263.421875 C-114.1353291 265.6740248 -113.12219206 267.83649459 -112 270 C-112.6496875 270.63808594 -113.299375 271.27617187 -113.96875 271.93359375 C-115.22171875 273.17302734 -115.22171875 273.17302734 -116.5 274.4375 C-117.3353125 275.26121094 -118.170625 276.08492188 -119.03125 276.93359375 C-121.11496531 278.64498098 -121.11496531 278.64498098 -121 280 C-72.16 280 -23.32 280 27 280 C22.48297159 275.23369721 22.48297159 275.23369721 18.81982422 272.65551758 C15.48098822 269.51123021 14.67147427 266.86444376 13.8828125 262.51171875 C13.73592987 261.80852005 13.58904724 261.10532135 13.43771362 260.3808136 C12.97777107 258.1535677 12.55102018 255.92145537 12.125 253.6875 C11.81728087 252.1681773 11.50740608 250.64928952 11.1953125 249.13085938 C10.43851788 245.42513707 9.71139838 241.71469263 9 238 C10.10102051 237.86803223 11.20204102 237.73606445 12.33642578 237.60009766 C18.08179672 236.65899931 21.32441583 233.36086257 25 229 C26.64707813 225.48804446 26.64707813 225.48804446 26 222 C22.69960984 216.49934973 17.86418427 213.48184578 12 211 C11.01 211 10.02 211 9 211 C9.33 206.05 9.66 201.1 10 196 C11.381875 195.608125 12.76375 195.21625 14.1875 194.8125 C18.53828589 193.3462509 21.1981985 191.76492077 24 188 C25.1721243 184.48362709 25.33052672 182.81659542 23.9375 179.375 C19.47833501 173.90892679 16.05173517 173.00739074 9 172 C9 165.73 9 159.46 9 153 C11.97 152.67 14.94 152.34 18 152 C20.93613778 150.49624062 22.96638537 148.592231 25 146 C26.08361039 143.45434867 26.08361039 143.45434867 25 141 C21.09201989 136.9967033 17.23995315 134.87847377 12 133 C11.01 133 10.02 133 9 133 C9 126.73 9 120.46 9 114 C13.455 113.505 13.455 113.505 18 113 C21.59953076 111.31511326 22.77518918 110.33721622 25 107 C24.92456848 102.85126621 24.70153289 100.74162049 21.8125 97.6875 C17.45278101 95.07166861 14.09416591 94 9 94 C9.33 85.75 9.66 77.5 10 69 C12.97 69 15.94 69 19 69 C21.96912882 67.61019502 23.69657028 66.30342972 26 64 C26.56471058 59.72433417 26.55977096 57.74636128 23.9375 54.25 C19.13604987 50.57229352 15.03264097 48.80373257 9 49 C9.02320313 48.45214844 9.04640625 47.90429688 9.0703125 47.33984375 C9.38025653 33.72444509 7.92069868 19.32654655 -0.625 8.1875 C-12.82118326 -4.53491451 -31.29783104 -8.88801761 -48.3125 -9.3125 C-63.278498 -9.03761432 -79.23724272 -5.4332385 -90.4765625 5.20703125 Z M-144 303 C-144.81726563 303.81726563 -145.63453125 304.63453125 -146.4765625 305.4765625 C-176.09924254 336.72798096 -186.04044284 386.277407 -185.13183594 427.72558594 C-184.16910176 451.63705027 -173.07125263 472.68852495 -156 489 C-141.09763247 501.79540541 -123.69515169 508.43402828 -104.10205078 507.19384766 C-90.89712027 505.97611074 -79.14053256 499.84442443 -68 493 C-67.15872559 492.5268335 -66.31745117 492.05366699 -65.45068359 491.56616211 C-61.81846375 489.23984071 -59.41073261 487.54960731 -58.27685547 483.27172852 C-58.06744982 479.86741387 -58.1704296 476.59216884 -58.375 473.1875 C-58.41302734 471.94460205 -58.45105469 470.7017041 -58.49023438 469.42114258 C-58.57680532 466.72595604 -58.67947531 464.03675754 -58.80761719 461.34375 C-59.02187841 456.74094581 -59.14455879 452.13749735 -59.2578125 447.53125 C-59.46388877 439.35255194 -59.71792467 431.17643359 -60 423 C-58.02 423 -56.04 423 -54 423 C-54.00523682 423.84256348 -54.01047363 424.68512695 -54.01586914 425.55322266 C-54.12363721 445.72904229 -53.82980765 465.83964648 -53 486 C1.97679976 509.98738882 1.97679976 509.98738882 59 507 C81.61220278 495.77208742 95.63123437 471.08315277 103.6875 448.046875 C115.16636513 413.57691082 110.05686336 384.91327128 94.12304688 352.91479492 C87.02773548 339.14428926 78.59558743 326.34474705 67.9375 315.05859375 C66.22975114 313.24411058 64.6779548 311.3831053 63.125 309.4375 C56.71440875 301.95847688 41.64448433 287.93444331 31.14587784 286.79957485 C30.38700146 286.76488126 29.62812508 286.73018766 28.84625244 286.69444275 C27.9733746 286.65406922 27.10049675 286.6136957 26.20116806 286.57209873 C25.23791737 286.5340459 24.27466667 286.49599306 23.28222656 286.45678711 C21.75443258 286.39415255 21.75443258 286.39415255 20.19577408 286.33025265 C6.63021861 285.81911723 -6.94200369 285.75372916 -20.515625 285.69140625 C-21.56726916 285.68646027 -21.56726916 285.68646027 -22.64015865 285.68141437 C-29.28006221 285.65076309 -35.91997209 285.62415487 -42.55992508 285.60699558 C-50.96018613 285.58499599 -59.35981736 285.54262386 -67.7598269 285.47355801 C-73.72558966 285.42620241 -79.69118245 285.40205028 -85.65712714 285.3947987 C-89.19816364 285.38987713 -92.7384766 285.37512383 -96.2793045 285.3350544 C-100.21666298 285.29104368 -104.15320804 285.2951106 -108.09082031 285.30297852 C-109.81471733 285.2729776 -109.81471733 285.2729776 -111.57344055 285.24237061 C-125.65180065 285.36824365 -134.55597981 293.50296075 -144 303 Z " fill="#11110E" transform="translate(191,15)"/>
</svg>
