<?xml version="1.0" encoding="UTF-8"?>
<svg version="1.1" xmlns="http://www.w3.org/2000/svg" width="214" height="739">
<path d="M0 0 C7.96965667 3.77510053 12.11217126 11.05324876 15.15234375 19.01953125 C25.69548992 52.55867172 23.51084133 90.9115171 24.5 125.6875 C25.59657359 164.1189657 27.25201068 202.20942211 31.59031296 240.42614746 C31.88121141 242.99229364 32.16936794 245.55873685 32.45706177 248.12524414 C40.54396414 320.10444978 49.48370944 392.41293198 62.875 463.625 C63.07556503 464.69580307 63.07556503 464.69580307 63.28018188 465.78823853 C66.28228107 481.64564345 70.64577951 496.33270131 76.62408447 511.27758789 C77.71463833 514.00538088 78.7940934 516.73734031 79.87060547 519.47070312 C81.28770044 523.06854054 82.70716925 526.66541799 84.12939453 530.26123047 C90.23125623 545.70403529 95.87803194 561.2914322 101.31121826 576.98071289 C101.9230538 578.74481682 102.53785936 580.50789434 103.15606689 582.26977539 C106.49167031 591.79718032 109.48959833 601.32750225 111.859375 611.14453125 C112.06355042 611.98376633 112.26772583 612.8230014 112.47808838 613.68766785 C117.0574405 633.49620847 115.57966198 652.59785324 105.11914062 670.25341797 C102.27192091 674.69691925 98.80275084 678.3709789 95 682 C94.31035156 682.68578125 93.62070313 683.3715625 92.91015625 684.078125 C71.45378769 704.44093523 30.63929142 738.67375249 -0.23046875 738.2109375 C-15.15455042 737.07426555 -26.00594933 729.52332336 -37 720 C-38.13875847 719.02277936 -39.27810676 718.04624572 -40.41796875 717.0703125 C-42.21546999 715.53040709 -44.01211062 713.98957104 -45.80566406 712.44506836 C-49.35286821 709.39344377 -52.93266755 706.39103179 -56.5625 703.4375 C-96.28984265 671.06059079 -96.28984265 671.06059079 -99 646 C-100.15091064 626.83834746 -96.02903952 608.71474097 -91.72247314 590.16531372 C-82.71699527 551.37260506 -76.48872282 512.54139094 -72.75 472.875 C-72.67286774 472.06651611 -72.59573547 471.25803223 -72.51626587 470.42504883 C-69.45202068 437.81657124 -68.47434285 405.09707233 -67.5 372.375 C-65.95912432 320.83053157 -63.74197338 269.60678089 -57.28071213 218.41536713 C-56.99285011 216.13075502 -56.70746217 213.84584476 -56.42263794 211.56085205 C-32.11571514 16.77719833 -32.11571514 16.77719833 -14.8125 2 C-9.70302271 -1.63340608 -6.04652073 -1.40080685 0 0 Z " fill="#FFFFFF" transform="translate(99,1)"/>
<path d="M0 0 C45.87 0 91.74 0 139 0 C168.98836817 75.76008801 168.98836817 75.76008801 175.85546875 104.265625 C176.06074188 105.11525314 176.26601501 105.96488129 176.47750854 106.84025574 C180.54046317 124.38277625 179.71415338 140.89940536 170.43359375 156.66015625 C162.23055189 168.97423533 150.74459303 177.33297379 139 186 C138.25476074 186.55268555 137.50952148 187.10537109 136.74169922 187.67480469 C123.41915115 197.52984025 109.80270171 206.82981212 95.375 215 C94.7361084 215.3619043 94.0972168 215.72380859 93.43896484 216.09667969 C82.83872815 221.97918258 73.68768577 224.76851242 61.6875 221.4375 C49.77002611 217.47870695 41.01671249 209.70147862 31.76416016 201.54638672 C28.97516514 199.10167395 26.14576735 196.70561942 23.3125 194.3125 C22.50752075 193.6304248 22.50752075 193.6304248 21.6862793 192.93457031 C18.3057026 190.07745438 14.88285591 187.27899051 11.4375 184.5 C-3.36159422 172.41910676 -19.90660178 158.7219134 -22.78515625 138.63671875 C-24.44703295 118.24095919 -19.49923542 98.63508281 -14.78564453 78.91430664 C-9.0924358 54.96560166 -4.46549131 30.89496737 -1.36962891 6.46899414 C-1 4 -1 4 0 0 Z " fill="#FFFFFF" transform="translate(29,510)"/>
<path d="M0 0 C7.96965667 3.77510053 12.11217126 11.05324876 15.15234375 19.01953125 C25.69548992 52.55867172 23.51084133 90.9115171 24.5 125.6875 C25.59657359 164.1189657 27.25201068 202.20942211 31.59031296 240.42614746 C31.88121141 242.99229364 32.16936794 245.55873685 32.45706177 248.12524414 C40.54396414 320.10444978 49.48370944 392.41293198 62.875 463.625 C63.07556503 464.69580307 63.07556503 464.69580307 63.28018188 465.78823853 C66.28228107 481.64564345 70.64577951 496.33270131 76.62408447 511.27758789 C77.71463833 514.00538088 78.7940934 516.73734031 79.87060547 519.47070312 C81.28770044 523.06854054 82.70716925 526.66541799 84.12939453 530.26123047 C90.23125623 545.70403529 95.87803194 561.2914322 101.31121826 576.98071289 C101.9230538 578.74481682 102.53785936 580.50789434 103.15606689 582.26977539 C106.49167031 591.79718032 109.48959833 601.32750225 111.859375 611.14453125 C112.06355042 611.98376633 112.26772583 612.8230014 112.47808838 613.68766785 C117.0574405 633.49620847 115.57966198 652.59785324 105.11914062 670.25341797 C102.27192091 674.69691925 98.80275084 678.3709789 95 682 C94.31035156 682.68578125 93.62070313 683.3715625 92.91015625 684.078125 C71.45378769 704.44093523 30.63929142 738.67375249 -0.23046875 738.2109375 C-15.15455042 737.07426555 -26.00594933 729.52332336 -37 720 C-38.13875847 719.02277936 -39.27810676 718.04624572 -40.41796875 717.0703125 C-42.21546999 715.53040709 -44.01211062 713.98957104 -45.80566406 712.44506836 C-49.35286821 709.39344377 -52.93266755 706.39103179 -56.5625 703.4375 C-96.28984265 671.06059079 -96.28984265 671.06059079 -99 646 C-100.15091064 626.83834746 -96.02903952 608.71474097 -91.72247314 590.16531372 C-82.71699527 551.37260506 -76.48872282 512.54139094 -72.75 472.875 C-72.67286774 472.06651611 -72.59573547 471.25803223 -72.51626587 470.42504883 C-69.45202068 437.81657124 -68.47434285 405.09707233 -67.5 372.375 C-65.95912432 320.83053157 -63.74197338 269.60678089 -57.28071213 218.41536713 C-56.99285011 216.13075502 -56.70746217 213.84584476 -56.42263794 211.56085205 C-32.11571514 16.77719833 -32.11571514 16.77719833 -14.8125 2 C-9.70302271 -1.63340608 -6.04652073 -1.40080685 0 0 Z M-12 7.5 C-42.80832365 48.8184549 -40.30662144 135.01567313 -46.85301971 184.85712433 C-47.24275006 187.8198854 -47.63447196 190.78237701 -48.02667236 193.74481201 C-55.97958476 253.90642209 -59.63218524 313.59590415 -61.46484375 374.23828125 C-62.67717762 413.97747812 -64.1989138 453.67950311 -68.7722168 493.19726562 C-69.03697742 496.45498471 -69 499.73153984 -69 503 C-24.45 503 20.1 503 66 503 C65.01 499.37 64.02 495.74 63 492 C41.202312 407.89564629 33.82705014 317.83386725 24.4375 231.625 C24.32112183 230.57444427 24.20474365 229.52388855 24.08483887 228.4414978 C20.25464714 193.58584812 19.40765332 158.59798848 18.41143799 123.57391357 C21.16039497 63.61972596 21.16039497 63.61972596 2.2890625 10.13671875 C-0.41590302 7.78098587 -2.74385308 6.10977725 -6.0625 4.6875 C-9.26897152 4.75365911 -9.26897152 4.75365911 -12 7.5 Z M-70 509 C-71.32 517.25 -72.64 525.5 -74 534 C-77.06657273 553.08089698 -81.19136525 571.85766563 -85.38639832 590.71443176 C-86.96571988 597.82191447 -88.50649469 604.93641158 -90 612.0625 C-90.1952124 612.981521 -90.3904248 613.90054199 -90.59155273 614.84741211 C-94.21317092 632.24609682 -95.24329013 650.42179335 -85.9140625 666.25390625 C-77.1275468 678.85986652 -64.7046076 689.13661434 -52.83203125 698.69921875 C-50.31367307 700.74516767 -47.83232477 702.82805738 -45.36474609 704.93481445 C-43.17002331 706.80733043 -40.96467586 708.66699622 -38.75634766 710.5234375 C-37.55379107 711.53442752 -36.35302929 712.54755522 -35.15380859 713.5625 C-23.90808618 723.03502592 -11.65565462 732.8097581 3.89453125 732.23828125 C33.52234478 728.88522629 68.52590215 697.1091091 90 678 C90.68191406 677.42507813 91.36382812 676.85015625 92.06640625 676.2578125 C102.25401549 667.09580151 107.49546213 653.37432932 108.875 640.0625 C109.70517018 621.57737734 103.74299766 604.33610444 98 587 C97.57630348 585.70345739 97.15313707 584.40674144 96.73046875 583.10986328 C88.48929577 557.94572116 78.75790413 533.6817575 69 509 C23.13 509 -22.74 509 -70 509 Z " fill="#11110E" transform="translate(99,1)"/>
</svg>
