<?xml version="1.0" encoding="UTF-8"?>
<svg version="1.1" xmlns="http://www.w3.org/2000/svg" width="211" height="629">
<path d="M0 0 C13.96286085 8.14277736 18.82018231 23.8718296 22.73965454 38.69030762 C25.31626888 49.04050723 26.96301978 59.59786656 28.74461126 70.10708857 C29.33308885 73.56594788 29.93230088 77.02295016 30.53018188 80.48019409 C31.56415491 86.4670568 32.59165397 92.45500112 33.61514282 98.44366455 C35.11682001 107.22841357 36.63350038 116.01053072 38.15330493 124.79215932 C43.32835935 154.69925727 48.45982161 184.61346641 53.5040819 214.54291165 C56.26936504 230.94973273 59.05207972 247.353552 61.85546875 263.75390625 C62.05281357 264.90884378 62.05281357 264.90884378 62.25414515 266.08711338 C70.61774455 315.01279887 79.90984884 363.68977498 90.16796875 412.25390625 C90.31751526 412.96194932 90.46706178 413.66999239 90.62114 414.39949131 C96.50132149 442.22454329 102.47637222 470.03111216 108.76687622 497.76663208 C108.91700291 498.43277653 109.06712959 499.09892097 109.22180557 499.78525162 C109.61230319 501.51719493 110.0056981 503.24848434 110.39938354 504.97970581 C113.2814281 519.08216794 114.36610295 536.53662846 109.04296875 550.12890625 C108.66398438 551.10472656 108.285 552.08054687 107.89453125 553.0859375 C104.14061065 561.53768359 98.46106612 567.66592708 92.04296875 574.12890625 C91.27597656 574.93328125 90.50898438 575.73765625 89.71875 576.56640625 C85.09725174 581.34554988 80.18051173 585.5898704 74.99609375 589.74609375 C71.80083628 592.32427768 68.66875156 594.96744905 65.54296875 597.62890625 C59.76481616 602.53137527 53.96230452 607.39680568 48.04296875 612.12890625 C47.06457031 612.91523437 46.08617187 613.7015625 45.078125 614.51171875 C32.44432194 624.36510955 19.92819827 629.47143915 3.78125 627.7890625 C-21.68808542 623.34572348 -67.94079779 613.47185104 -84.80078125 591.75390625 C-104.15265276 561.08301556 -100.67812111 525.24215554 -93.39453125 491.25390625 C-91.09902168 481.22684523 -88.37233102 471.35452818 -85.4453125 461.49609375 C-85.23168816 460.77274841 -85.01806381 460.04940308 -84.797966 459.30413818 C-81.42885959 447.90052096 -77.93711518 436.53729462 -74.37890625 425.19140625 C-74.14630663 424.44905605 -73.91370701 423.70670586 -73.67405891 422.9418602 C-71.54379415 416.1444766 -69.41066289 409.34801551 -67.25976562 402.55712891 C-55.88470204 366.6154967 -48.68514589 330.977433 -44.8203125 293.4765625 C-44.71873589 292.49785627 -44.61715927 291.51915005 -44.51250458 290.51078606 C-40.92645255 255.85723803 -37.76358823 221.1600085 -34.52732378 186.4724803 C-33.79313988 178.60630988 -33.05486838 170.74052695 -32.31568408 162.87482506 C-31.592404 155.17704067 -30.87142593 147.47904305 -30.15229535 139.7808699 C-29.72713262 135.22969105 -29.30119483 130.67858869 -28.87306976 126.12768745 C-28.47309331 121.87480334 -28.07603476 117.6216561 -27.68109512 113.36830139 C-27.53739363 111.82563914 -27.39273306 110.28306581 -27.24695206 108.74059868 C-25.76547413 93.05238414 -24.89904022 77.38122607 -24.45703125 61.62890625 C-24.29822868 56.46199008 -24.12819378 51.29542558 -23.95703125 46.12890625 C-23.92641602 45.19820312 -23.89580078 44.2675 -23.86425781 43.30859375 C-22.78443044 13.12195896 -22.78443044 13.12195896 -13.39453125 2.12890625 C-9.34808403 -1.19125557 -4.91078136 -2.18583681 0 0 Z " fill="#FFFFFF" transform="translate(98.95703125,0.87109375)"/>
<path d="M0 0 C1.01673766 0.00092179 2.03347532 0.00184359 3.08102322 0.00279331 C4.24355114 0.00141865 5.40607906 0.00004398 6.60383511 -0.00137234 C7.89064175 0.00222294 9.17744839 0.00581821 10.50324917 0.00952244 C11.86298527 0.00980431 13.22272153 0.00964658 14.58245754 0.00907993 C18.28477281 0.00879196 21.98705595 0.01468871 25.68936372 0.02165389 C29.55444283 0.0278874 33.41952261 0.02849123 37.28460598 0.0296793 C44.60860185 0.03279262 51.93258287 0.04100602 59.25657219 0.05102879 C67.5925895 0.06218989 75.92860751 0.06770037 84.26463044 0.07272422 C101.4170139 0.08318864 118.5693829 0.1007881 135.72175503 0.12304783 C138.22099866 9.85032412 140.5369336 19.58701196 142.5540266 29.42815876 C142.98128929 31.51235313 143.41286704 33.59561924 143.8453207 35.67874241 C144.76609364 40.1177647 145.68174747 44.55783411 146.59675503 48.99804783 C147.79878135 54.82954767 149.00389394 60.66039459 150.21394253 66.49023533 C150.36116505 67.20070766 150.50838757 67.91118 150.66007137 68.6431818 C152.87041798 79.29188087 155.2169266 89.90127294 157.77519131 100.47287083 C160.27377646 110.95984813 162.10917883 121.44381874 162.03425503 132.24804783 C162.0268832 133.53751316 162.0268832 133.53751316 162.01936245 134.8530283 C161.90010979 141.32202628 161.16736402 147.08389092 158.72175503 153.12304783 C158.41624722 153.93386814 158.1107394 154.74468845 157.79597378 155.58007908 C154.40454757 163.41119051 148.60586795 169.12241782 142.72175503 175.12304783 C142.02695034 175.85652439 141.33214565 176.59000095 140.61628628 177.34570408 C136.27493885 181.84817368 131.58231505 185.78973473 126.71003628 189.70507908 C123.50569101 192.2978761 120.36023915 194.95139583 117.22175503 197.62304783 C81.71532598 227.74765854 81.71532598 227.74765854 63.97175503 227.12304783 C39.01127859 224.56001174 -6.36623604 213.23462602 -23.27824497 193.12304783 C-38.09211652 174.21848253 -39.05656366 148.87436445 -36.50944614 125.95434666 C-33.36272322 100.94232074 -26.43985277 76.87539582 -19.10405064 52.83416843 C-18.1909876 49.83658182 -17.28263241 46.83759238 -16.37492466 43.83837986 C-14.32823115 37.07715981 -12.27337746 30.31844586 -10.21574497 23.56054783 C-9.8784235 22.45064487 -9.54110203 21.34074192 -9.19355869 20.19720554 C-8.23436264 17.04511436 -7.27071099 13.89442257 -6.30558872 10.74414158 C-6.01437138 9.78540638 -5.72315403 8.82667118 -5.42311192 7.8388834 C-5.15479557 6.96642475 -4.88647923 6.0939661 -4.61003208 5.19506931 C-4.25889599 4.04650707 -4.25889599 4.04650707 -3.90066624 2.87474155 C-2.98429183 0.29576909 -2.80589143 0.15154597 0 0 Z " fill="#FFFFFF" transform="translate(43.278244972229004,395.8769521713257)"/>
<path d="M0 0 C13.96286085 8.14277736 18.82018231 23.8718296 22.73965454 38.69030762 C25.31626888 49.04050723 26.96301978 59.59786656 28.74461126 70.10708857 C29.33308885 73.56594788 29.93230088 77.02295016 30.53018188 80.48019409 C31.56415491 86.4670568 32.59165397 92.45500112 33.61514282 98.44366455 C35.11682001 107.22841357 36.63350038 116.01053072 38.15330493 124.79215932 C43.32835935 154.69925727 48.45982161 184.61346641 53.5040819 214.54291165 C56.26936504 230.94973273 59.05207972 247.353552 61.85546875 263.75390625 C62.05281357 264.90884378 62.05281357 264.90884378 62.25414515 266.08711338 C70.61774455 315.01279887 79.90984884 363.68977498 90.16796875 412.25390625 C90.31751526 412.96194932 90.46706178 413.66999239 90.62114 414.39949131 C96.50132149 442.22454329 102.47637222 470.03111216 108.76687622 497.76663208 C108.91700291 498.43277653 109.06712959 499.09892097 109.22180557 499.78525162 C109.61230319 501.51719493 110.0056981 503.24848434 110.39938354 504.97970581 C113.2814281 519.08216794 114.36610295 536.53662846 109.04296875 550.12890625 C108.66398438 551.10472656 108.285 552.08054687 107.89453125 553.0859375 C104.14061065 561.53768359 98.46106612 567.66592708 92.04296875 574.12890625 C91.27597656 574.93328125 90.50898438 575.73765625 89.71875 576.56640625 C85.09725174 581.34554988 80.18051173 585.5898704 74.99609375 589.74609375 C71.80083628 592.32427768 68.66875156 594.96744905 65.54296875 597.62890625 C59.76481616 602.53137527 53.96230452 607.39680568 48.04296875 612.12890625 C47.06457031 612.91523437 46.08617187 613.7015625 45.078125 614.51171875 C32.44432194 624.36510955 19.92819827 629.47143915 3.78125 627.7890625 C-21.68808542 623.34572348 -67.94079779 613.47185104 -84.80078125 591.75390625 C-104.15265276 561.08301556 -100.67812111 525.24215554 -93.39453125 491.25390625 C-91.09902168 481.22684523 -88.37233102 471.35452818 -85.4453125 461.49609375 C-85.23168816 460.77274841 -85.01806381 460.04940308 -84.797966 459.30413818 C-81.42885959 447.90052096 -77.93711518 436.53729462 -74.37890625 425.19140625 C-74.14630663 424.44905605 -73.91370701 423.70670586 -73.67405891 422.9418602 C-71.54379415 416.1444766 -69.41066289 409.34801551 -67.25976562 402.55712891 C-55.88470204 366.6154967 -48.68514589 330.977433 -44.8203125 293.4765625 C-44.71873589 292.49785627 -44.61715927 291.51915005 -44.51250458 290.51078606 C-40.92645255 255.85723803 -37.76358823 221.1600085 -34.52732378 186.4724803 C-33.79313988 178.60630988 -33.05486838 170.74052695 -32.31568408 162.87482506 C-31.592404 155.17704067 -30.87142593 147.47904305 -30.15229535 139.7808699 C-29.72713262 135.22969105 -29.30119483 130.67858869 -28.87306976 126.12768745 C-28.47309331 121.87480334 -28.07603476 117.6216561 -27.68109512 113.36830139 C-27.53739363 111.82563914 -27.39273306 110.28306581 -27.24695206 108.74059868 C-25.76547413 93.05238414 -24.89904022 77.38122607 -24.45703125 61.62890625 C-24.29822868 56.46199008 -24.12819378 51.29542558 -23.95703125 46.12890625 C-23.92641602 45.19820312 -23.89580078 44.2675 -23.86425781 43.30859375 C-22.78443044 13.12195896 -22.78443044 13.12195896 -13.39453125 2.12890625 C-9.34808403 -1.19125557 -4.91078136 -2.18583681 0 0 Z M-9.58203125 7.25390625 C-18.83643528 19.97124857 -17.73969439 39.20855813 -18.171875 54.1875 C-18.20925781 55.47213135 -18.24664062 56.7567627 -18.28515625 58.08032227 C-18.35496503 60.58455656 -18.41932725 63.08895265 -18.4765625 65.59350586 C-19.20493217 92.23677827 -22.15102116 118.82884953 -24.62988496 145.35259724 C-24.91756238 148.43199519 -25.20456723 151.51145515 -25.49136925 154.59093475 C-26.49932402 165.41245014 -27.5102427 176.23368439 -28.52368164 187.0546875 C-29.45637466 197.01448168 -30.38209973 206.97490699 -31.30461866 216.9356482 C-32.10668452 225.59196213 -32.91410092 234.24776725 -33.72533625 242.90322661 C-34.20539026 248.02622285 -34.68349535 253.149379 -35.15598488 258.27307892 C-37.01469103 278.40801069 -39.00560395 298.50790506 -41.58081055 318.56542969 C-41.68297807 319.36418282 -41.7851456 320.16293595 -41.89040911 320.98589373 C-44.70376823 342.82153668 -49.06071372 363.91054864 -55.39379883 385.01953125 C-56.04302319 387.08707739 -56.04302319 387.08707739 -55.95703125 389.12890625 C-11.40703125 389.12890625 33.14296875 389.12890625 79.04296875 389.12890625 C75.41296875 370.97890625 71.78296875 352.82890625 68.04296875 334.12890625 C65.81893254 321.8228181 63.61621559 309.52227334 61.52667546 297.19402838 C60.7906269 292.86249917 60.04525601 288.53257095 59.3011322 284.2024231 C58.0400798 276.85787543 56.78405538 269.5124848 55.53173828 262.16644287 C53.73930127 251.653354 51.93580685 241.14218231 50.12940621 230.63148475 C47.32519685 214.3147027 44.52524646 197.99719475 41.73095703 181.67871094 C41.5734095 180.75864565 41.41586197 179.83858036 41.25354028 178.8906343 C38.97263179 165.56904091 36.69611359 152.24670075 34.4216007 138.92401409 C32.43656732 127.29788091 30.44309168 115.67322474 28.4411211 104.04999542 C27.19674419 96.82216994 25.96326933 89.59260875 24.73899174 82.36135292 C23.99159769 77.96227882 23.23385732 73.56503377 22.47317696 69.16823959 C22.13383554 67.19475629 21.79860183 65.22056045 21.46827507 63.24554825 C16.49825046 31.78092435 16.49825046 31.78092435 -0.95703125 6.12890625 C-5.07648302 4.31634747 -6.08278173 4.42118045 -9.58203125 7.25390625 Z M-57.95703125 395.12890625 C-59.68528751 399.73758961 -61.35843076 404.21187835 -62.82299805 408.88525391 C-63.15757523 409.95004471 -63.4921524 411.01483551 -63.83686829 412.1118927 C-64.18976425 413.2441478 -64.54266022 414.37640289 -64.90625 415.54296875 C-65.28029465 416.73866989 -65.65433929 417.93437103 -66.03971863 419.16630554 C-67.24528394 423.02761981 -68.44608781 426.89037742 -69.64453125 430.75390625 C-69.84789345 431.40908108 -70.05125565 432.06425591 -70.26078033 432.73928452 C-82.55158102 471.94902219 -82.55158102 471.94902219 -90.95703125 512.12890625 C-91.07272461 512.86318848 -91.18841797 513.5974707 -91.30761719 514.35400391 C-94.9976422 538.67860501 -94.99889552 566.41617871 -79.95703125 587.12890625 C-62.44321163 607.86895579 -18.06334483 619.00456032 8.04296875 622.12890625 C25.43222169 622.63233456 38.40003224 612.72048001 50.59375 601.37109375 C53.98125727 598.26993079 57.54588671 595.40982825 61.11328125 592.51953125 C66.48850524 588.13334847 71.76452744 583.6307019 77.04296875 579.12890625 C78.15671875 578.18724609 78.15671875 578.18724609 79.29296875 577.2265625 C90.70928261 567.44443873 101.34920417 557.18810029 105.04296875 542.12890625 C105.22472656 541.40316406 105.40648437 540.67742187 105.59375 539.9296875 C107.3411913 529.03477084 106.43691569 517.66377217 104.34375 506.8984375 C104.16623199 505.95596161 103.98871399 505.01348572 103.80581665 504.04244995 C101.93413023 494.26508153 99.79183188 484.54798293 97.61004639 474.8359375 C92.90399386 453.87846079 88.4380198 432.87683289 84.12841797 411.83447266 C83.92744507 410.85805817 83.72647217 409.88164368 83.51940918 408.87564087 C83.143774 407.04996266 82.77051208 405.22379397 82.40002441 403.39706421 C81.58650196 399.14552608 81.58650196 399.14552608 80.04296875 395.12890625 C34.50296875 395.12890625 -11.03703125 395.12890625 -57.95703125 395.12890625 Z " fill="#11110E" transform="translate(98.95703125,0.87109375)"/>
</svg>
