<?xml version="1.0" encoding="UTF-8"?>
<svg version="1.1" xmlns="http://www.w3.org/2000/svg" width="273" height="591">
<path d="M0 0 C9.69092978 8.15711355 10.88612612 21.15131956 12 33 C12.12927313 35.29142959 12.25451416 37.58309157 12.375 39.875 C12.70595828 44.80326966 13.75511917 48.34866115 15.96867847 52.72724915 C20.26034871 62.18491774 19.63121643 73.60376531 20.10668945 83.80078125 C20.20098461 85.70512973 20.29592699 87.60944625 20.39146233 89.51373291 C20.64930497 94.69208074 20.89771988 99.87084292 21.14441466 105.04973221 C21.40930422 110.57695606 21.68285946 116.10375219 21.95515442 121.63061523 C22.59081772 134.57301848 23.2123615 147.51608178 23.83075809 160.45932007 C23.99751012 163.94790957 24.16460935 167.43648226 24.33184052 170.92504883 C25.52731995 195.86505135 26.7130132 220.80551885 27.89648438 245.74609375 C27.94954546 246.8638085 28.00260654 247.98152325 28.05727553 249.13310814 C28.65907092 261.81138216 29.25797353 274.48978455 29.85131836 287.16845703 C30.33702472 297.54642424 30.82793357 307.92413112 31.32484514 318.30156803 C31.58361246 323.7099956 31.83980911 329.11851513 32.08940697 334.52737427 C32.3203853 339.53248437 32.55819198 344.53722318 32.80123711 349.5417614 C32.88844903 351.36251789 32.97317014 353.18339579 33.05512619 355.00439644 C33.56977155 366.40161497 34.21645161 377.41725711 37.93603516 388.31225586 C38.3104776 389.42229477 38.68492004 390.53233368 39.07070923 391.67601013 C39.6737941 393.42773277 39.6737941 393.42773277 40.2890625 395.21484375 C40.93492032 397.12707753 41.58076987 399.03931413 42.22620201 400.95169163 C43.35272731 404.28247834 44.48934248 407.60981839 45.625 410.9375 C47.39648512 416.13126751 49.162213 421.32691655 50.9140625 426.52734375 C51.12982689 427.16782843 51.34559128 427.8083131 51.56789398 428.46820641 C76.81292543 503.66316838 76.81292543 503.66316838 60.25 537.375 C50.54403583 555.98241726 36.2068054 570.01643086 16 576.4375 C-2.634932 581.73799724 -21.65797673 579.46192341 -39 571 C-41.32522647 569.65287342 -43.6191243 568.2925735 -45.8671875 566.8203125 C-50.37779468 565.08546359 -55.14285911 567.28773405 -59.40356445 569.04125977 C-60.4351619 569.46162003 -61.46675934 569.88198029 -62.52961731 570.31507874 C-63.62972641 570.76926682 -64.72983551 571.2234549 -65.86328125 571.69140625 C-68.21787702 572.64573007 -70.57270195 573.59948862 -72.92773438 574.55273438 C-76.62347183 576.05622255 -80.31696447 577.5643373 -84.0065918 579.08276367 C-87.57832914 580.54957813 -91.15754368 581.99672831 -94.73828125 583.44140625 C-96.37933586 584.12572472 -96.37933586 584.12572472 -98.05354309 584.8238678 C-107.59344941 588.64703784 -114.89724336 589.04567328 -124.66015625 585.5 C-138.01908777 579.50019918 -149.9592016 569.99814634 -161.82666016 561.54345703 C-163.64081235 560.25508698 -165.46301111 558.98056932 -167.29296875 557.71484375 C-185.76318597 544.73505185 -200.16461195 528.46912355 -204.49609375 505.72265625 C-208.42425923 476.70295313 -196.76981865 447.83920994 -187.5625 420.875 C-187.2327417 419.9076593 -186.9029834 418.9403186 -186.56323242 417.94366455 C-179.9011719 398.43118409 -179.9011719 398.43118409 -176.34057617 389.49072266 C-173.24797065 381.00976952 -171.36515385 373.04301995 -170.51171875 364.046875 C-170.39175034 362.85813782 -170.27178192 361.66940063 -170.1481781 360.44464111 C-168.24043867 340.9605953 -166.8403746 321.42683659 -165.34472656 301.90795898 C-163.72040859 280.7223944 -162.04140001 259.54966725 -159.9296875 238.40625 C-159.85042589 237.60711937 -159.77116428 236.80798874 -159.68950081 235.98464203 C-155.10498497 190.0294723 -148.85934175 143.26825915 -132 100 C-131.70770508 99.24847656 -131.41541016 98.49695313 -131.11425781 97.72265625 C-120.11901689 69.99007596 -101.80785101 45.35904489 -74 33 C-70.713178 31.91350375 -68.11184746 32.12267315 -64.6875 32.4375 C-60.54433028 32.47222204 -60.54433028 32.47222204 -57.0078125 30.5390625 C-55.20470873 28.43682631 -53.60067279 26.25977334 -52 24 C-40.74648301 10.2537685 -19.1107296 -10.9709744 0 0 Z " fill="#FFFFFF" transform="translate(205,3)"/>
<path d="M0 0 C63.69 0 127.38 0 193 0 C194.65 5.61 196.3 11.22 198 17 C199.35618439 21.17454214 200.728255 25.33479519 202.14453125 29.48828125 C202.90843756 31.75111411 203.6720168 34.01405741 204.43530273 36.27709961 C205.01911209 38.00354202 205.01911209 38.00354202 205.61471558 39.76486206 C219.03173059 79.50382557 219.03173059 79.50382557 224 99 C224.29414795 100.10819092 224.29414795 100.10819092 224.59423828 101.23876953 C230.33715987 123.21921189 227.50928123 145.63710579 216.09863281 165.22216797 C206.23693293 181.18058986 191.15965132 191.55198056 173.0637207 195.86645508 C153.80654232 199.97126866 137.66028076 194.07798341 121 185 C120.34 184.67 119.68 184.34 119 184 C118.97500774 179.76823299 118.95700377 175.53650677 118.94506836 171.3046875 C118.94008493 169.86945852 118.93329575 168.43423449 118.92456055 166.99902344 C118.87684423 158.94899983 118.93138249 150.99716237 120 143 C118.02 143 116.04 143 114 143 C113.67 156.2 113.34 169.4 113 183 C106.47570729 185.9655876 100.07226684 188.85517502 93.40234375 191.41015625 C92.26267906 191.85143105 92.26267906 191.85143105 91.09999084 192.30162048 C88.71365095 193.22494316 86.32566185 194.1439015 83.9375 195.0625 C81.55152121 195.98353574 79.1658989 196.90548724 76.78045654 197.82791138 C75.25212333 198.41845411 73.72336343 199.00789388 72.19415283 199.59616089 C67.41688231 201.43691039 62.67092876 203.33943034 57.9597168 205.34448242 C51.36649423 207.5498895 45.56199031 204.62166498 39.625 201.75 C30.62596024 197.1712783 22.41755185 191.41431218 14.20849609 185.56787109 C12.20918062 184.14850298 10.19682303 182.75144457 8.17578125 181.36328125 C-11.27553248 167.91222142 -28.83024767 152.64852289 -33.56640625 128.26171875 C-37.59572572 97.95107229 -23.33727497 66.7127848 -13.8125 38.625 C-13.41723114 37.45907318 -13.02196228 36.29314636 -12.61471558 35.09188843 C-11.46182684 31.69795606 -10.30424422 28.30566849 -9.14453125 24.9140625 C-8.6306636 23.40415993 -8.6306636 23.40415993 -8.10641479 21.86375427 C-5.57526956 14.49269988 -2.80280868 7.28730258 0 0 Z " fill="#FFFFFF" transform="translate(40,379)"/>
<path d="M0 0 C9.69092978 8.15711355 10.88612612 21.15131956 12 33 C12.12927313 35.29142959 12.25451416 37.58309157 12.375 39.875 C12.70595828 44.80326966 13.75511917 48.34866115 15.96867847 52.72724915 C20.26034871 62.18491774 19.63121643 73.60376531 20.10668945 83.80078125 C20.20098461 85.70512973 20.29592699 87.60944625 20.39146233 89.51373291 C20.64930497 94.69208074 20.89771988 99.87084292 21.14441466 105.04973221 C21.40930422 110.57695606 21.68285946 116.10375219 21.95515442 121.63061523 C22.59081772 134.57301848 23.2123615 147.51608178 23.83075809 160.45932007 C23.99751012 163.94790957 24.16460935 167.43648226 24.33184052 170.92504883 C25.52731995 195.86505135 26.7130132 220.80551885 27.89648438 245.74609375 C27.94954546 246.8638085 28.00260654 247.98152325 28.05727553 249.13310814 C28.65907092 261.81138216 29.25797353 274.48978455 29.85131836 287.16845703 C30.33702472 297.54642424 30.82793357 307.92413112 31.32484514 318.30156803 C31.58361246 323.7099956 31.83980911 329.11851513 32.08940697 334.52737427 C32.3203853 339.53248437 32.55819198 344.53722318 32.80123711 349.5417614 C32.88844903 351.36251789 32.97317014 353.18339579 33.05512619 355.00439644 C33.56977155 366.40161497 34.21645161 377.41725711 37.93603516 388.31225586 C38.3104776 389.42229477 38.68492004 390.53233368 39.07070923 391.67601013 C39.6737941 393.42773277 39.6737941 393.42773277 40.2890625 395.21484375 C40.93492032 397.12707753 41.58076987 399.03931413 42.22620201 400.95169163 C43.35272731 404.28247834 44.48934248 407.60981839 45.625 410.9375 C47.39648512 416.13126751 49.162213 421.32691655 50.9140625 426.52734375 C51.12982689 427.16782843 51.34559128 427.8083131 51.56789398 428.46820641 C76.81292543 503.66316838 76.81292543 503.66316838 60.25 537.375 C50.54403583 555.98241726 36.2068054 570.01643086 16 576.4375 C-2.634932 581.73799724 -21.65797673 579.46192341 -39 571 C-41.32522647 569.65287342 -43.6191243 568.2925735 -45.8671875 566.8203125 C-50.37779468 565.08546359 -55.14285911 567.28773405 -59.40356445 569.04125977 C-60.4351619 569.46162003 -61.46675934 569.88198029 -62.52961731 570.31507874 C-63.62972641 570.76926682 -64.72983551 571.2234549 -65.86328125 571.69140625 C-68.21787702 572.64573007 -70.57270195 573.59948862 -72.92773438 574.55273438 C-76.62347183 576.05622255 -80.31696447 577.5643373 -84.0065918 579.08276367 C-87.57832914 580.54957813 -91.15754368 581.99672831 -94.73828125 583.44140625 C-96.37933586 584.12572472 -96.37933586 584.12572472 -98.05354309 584.8238678 C-107.59344941 588.64703784 -114.89724336 589.04567328 -124.66015625 585.5 C-138.01908777 579.50019918 -149.9592016 569.99814634 -161.82666016 561.54345703 C-163.64081235 560.25508698 -165.46301111 558.98056932 -167.29296875 557.71484375 C-185.76318597 544.73505185 -200.16461195 528.46912355 -204.49609375 505.72265625 C-208.42425923 476.70295313 -196.76981865 447.83920994 -187.5625 420.875 C-187.2327417 419.9076593 -186.9029834 418.9403186 -186.56323242 417.94366455 C-179.9011719 398.43118409 -179.9011719 398.43118409 -176.34057617 389.49072266 C-173.24797065 381.00976952 -171.36515385 373.04301995 -170.51171875 364.046875 C-170.39175034 362.85813782 -170.27178192 361.66940063 -170.1481781 360.44464111 C-168.24043867 340.9605953 -166.8403746 321.42683659 -165.34472656 301.90795898 C-163.72040859 280.7223944 -162.04140001 259.54966725 -159.9296875 238.40625 C-159.85042589 237.60711937 -159.77116428 236.80798874 -159.68950081 235.98464203 C-155.10498497 190.0294723 -148.85934175 143.26825915 -132 100 C-131.70770508 99.24847656 -131.41541016 98.49695313 -131.11425781 97.72265625 C-120.11901689 69.99007596 -101.80785101 45.35904489 -74 33 C-70.713178 31.91350375 -68.11184746 32.12267315 -64.6875 32.4375 C-60.54433028 32.47222204 -60.54433028 32.47222204 -57.0078125 30.5390625 C-55.20470873 28.43682631 -53.60067279 26.25977334 -52 24 C-40.74648301 10.2537685 -19.1107296 -10.9709744 0 0 Z M-76.75 41.5 C-77.45519775 41.8616626 -78.16039551 42.2233252 -78.88696289 42.59594727 C-84.85579294 45.74948483 -90.02333131 49.42495721 -95 54 C-95.75539063 54.67546875 -96.51078125 55.3509375 -97.2890625 56.046875 C-103.59640913 61.9857512 -108.34541827 68.75668221 -113 76 C-113.91072266 77.40185547 -113.91072266 77.40185547 -114.83984375 78.83203125 C-157.73585952 148.37999332 -155.21353206 249.15346427 -161.45175743 328.08131027 C-161.84608738 333.06979218 -162.24673023 338.0577141 -162.65087891 343.04541016 C-162.83646998 345.37010067 -163.02187093 347.69480638 -163.20703125 350.01953125 C-163.28974777 351.02586105 -163.37246429 352.03219086 -163.45768738 353.0690155 C-163.56721489 354.46341606 -163.56721489 354.46341606 -163.67895508 355.88598633 C-163.74166092 356.66516922 -163.80436676 357.44435211 -163.86897278 358.24714661 C-164.05523986 362.1605775 -164 366.08213875 -164 370 C-100.97 370 -37.94 370 27 370 C27.0233849 354.2843619 27.0233849 354.2843619 26.51319885 338.61054993 C26.46081824 337.50712932 26.40843762 336.40370872 26.35446972 335.26685113 C26.18147143 331.64553254 26.00203126 328.02456503 25.82250977 324.40356445 C25.69566506 321.77652754 25.56918365 319.14947541 25.44314575 316.5223999 C25.13775422 310.17404603 24.82755922 303.82593594 24.51569552 297.47789709 C24.15166104 290.06366923 23.79270873 282.64919777 23.43396913 275.23471215 C22.7932355 261.99508028 22.14826606 248.75565831 21.50073242 235.51635742 C20.87430919 222.70854621 20.25044163 209.90061419 19.62963867 197.0925293 C19.59137313 196.30306568 19.55310759 195.51360207 19.51368249 194.70021532 C19.35981163 191.52556649 19.20594489 188.35091746 19.05208692 185.176268 C18.42177279 172.1721502 17.78936501 159.16813411 17.15669131 146.16413093 C17.0131982 143.2146012 16.86979553 140.26506709 16.72647214 137.31552911 C16.31776005 128.90499939 15.90791748 120.49452631 15.49632645 112.08413696 C15.37220303 109.5446319 15.24844274 107.00510905 15.12508583 104.46556664 C14.35860934 88.61234188 14.35860934 88.61234188 13.49253845 72.764328 C13.4252954 71.59050159 13.35805235 70.41667517 13.28877163 69.20727825 C12.28024177 58.00591509 8.78074226 49.23113547 0.5 41.5 C-2.59802902 39.05562106 -4.95074681 37.91384568 -9 38 C-15.86629099 40.28876366 -19.47921435 45.10671393 -22.72265625 51.27734375 C-38.17779454 83.78084573 -39.64816265 120.57736463 -41.7109375 155.88671875 C-44.21773601 198.6962884 -44.21773601 198.6962884 -48 216 C-48.23170898 217.06992188 -48.46341797 218.13984375 -48.70214844 219.2421875 C-59.6927294 268.6927294 -59.6927294 268.6927294 -66 275 C-69.49937343 264.23732227 -72.50824573 253.47387299 -74.75 242.375 C-74.94811279 241.41279541 -75.14622559 240.45059082 -75.3503418 239.45922852 C-78.60642518 222.73372543 -79.40704836 206.13149031 -79.375 189.125 C-79.37478851 188.08185638 -79.37457703 187.03871277 -79.37435913 185.96395874 C-79.33510539 166.41169145 -77.90627722 147.32405959 -75 128 C-74.71116943 126.0509375 -74.71116943 126.0509375 -74.41650391 124.0625 C-71.70888384 106.25599609 -67.74451325 88.85519053 -63.34521484 71.40234375 C-58.82503864 55.40962093 -58.82503864 55.40962093 -61.15234375 39.6171875 C-62.94084616 37.76877349 -62.94084616 37.76877349 -65.703125 37.53125 C-69.87534825 38.1244571 -73.03697342 39.56688139 -76.75 41.5 Z M-165 376 C-173.73872513 400.42750704 -173.73872513 400.42750704 -182.26074219 424.92944336 C-182.92375101 426.86169192 -183.5904585 428.79267508 -184.26074219 430.72241211 C-199.91679651 474.8084261 -199.91679651 474.8084261 -193.8203125 519.96484375 C-186.94641176 533.81433016 -175.36151874 544.14980968 -163 553 C-162.2359082 553.55187988 -161.47181641 554.10375977 -160.68457031 554.67236328 C-136.64890238 574.14783666 -136.64890238 574.14783666 -108.38996887 581.42433167 C-104.74572519 580.77730734 -101.49739529 579.51798491 -98.09765625 578.0859375 C-97.02297844 577.6497686 -97.02297844 577.6497686 -95.92658997 577.20478821 C-93.63415867 576.27189726 -91.348434 575.32368512 -89.0625 574.375 C-87.4895806 573.7316404 -85.91617343 573.08947207 -84.34228516 572.44848633 C-82.0171632 571.5011926 -79.69244965 570.55301007 -77.36956787 569.60023499 C-70.85268736 566.927412 -64.29695395 564.3648789 -57.71118164 561.86669922 C-54.61820812 560.83232988 -54.61820812 560.83232988 -52 559 C-51.83970312 556.04470496 -51.74042672 553.11017543 -51.68359375 550.15234375 C-51.66281265 549.2659169 -51.64203156 548.37949005 -51.62062073 547.46620178 C-51.555026 544.623383 -51.49619448 541.78046883 -51.4375 538.9375 C-51.3943242 537.01496394 -51.35071022 535.09243766 -51.30664062 533.16992188 C-51.19933457 528.44671332 -51.09809549 523.72340847 -51 519 C-49.02 519 -47.04 519 -45 519 C-45.0714624 519.5347998 -45.1429248 520.06959961 -45.21655273 520.62060547 C-46.17905278 528.78630453 -46.11244227 536.91939011 -46.0625 545.125 C-46.05747252 546.57291511 -46.05291183 548.02083192 -46.04882812 549.46875 C-46.03792705 552.97920259 -46.02073202 556.48959007 -46 560 C-27.47311003 570.55750853 -9.12660793 576.47744745 12.16625977 570.83398438 C29.33096035 565.87913945 43.2008868 554.77773826 52.1953125 539.33984375 C64.92676576 516.19043077 63.88789768 492.85211587 57 468 C56.5970874 466.52490967 56.5970874 466.52490967 56.18603516 465.02001953 C50.29816184 443.79472438 43.06733572 422.95932559 36.03127098 402.09385872 C35.39950481 400.21986123 34.76900048 398.34543849 34.13851929 396.4710083 C33.35514017 394.14330439 32.56914999 391.81647711 31.78018188 389.49066162 C31.4286203 388.44565491 31.07705872 387.40064819 30.71484375 386.32397461 C30.25259399 384.9574601 30.25259399 384.9574601 29.78100586 383.56333923 C29 381 29 381 28 376 C-35.69 376 -99.38 376 -165 376 Z " fill="#11110E" transform="translate(205,3)"/>
<path d="M0 0 C5.31903397 3.92843685 7.73880628 9.68567912 9 16 C9.86278857 21.9787602 10.44853691 27.98580846 11 34 C9.94683594 33.360625 8.89367187 32.72125 7.80859375 32.0625 C2.71606334 29.1634583 -2.43622988 28.04125122 -8.20703125 29.59375 C-17.72824406 33.81730903 -22.23613887 42.83675921 -25.81689453 52.1171875 C-32.53424359 70.18014288 -36.50524129 88.6496879 -38.51953125 107.796875 C-38.64679092 108.9969368 -38.7740506 110.1969986 -38.90516663 111.4334259 C-40.50554779 127.16278694 -41.3112899 142.95104276 -42.15405273 158.7355957 C-43.32851315 180.57272598 -45.25202197 202.22767436 -50.875 223.4375 C-51.12330566 224.40558594 -51.37161133 225.37367188 -51.62744141 226.37109375 C-53.99361307 235.39073243 -56.87321688 244.21839633 -60 253 C-62.98712739 248.51930891 -63.47450945 243.67371692 -64.5 238.4375 C-64.71269531 237.40947266 -64.92539063 236.38144531 -65.14453125 235.32226562 C-68.46455113 218.63050921 -69.41018817 202.11271148 -69.375 185.125 C-69.37445618 184.12754761 -69.37391235 183.13009521 -69.37335205 182.10241699 C-69.32552238 162.84274579 -67.8793965 144.0334096 -65 125 C-64.89345093 124.2879541 -64.78690186 123.5759082 -64.67712402 122.84228516 C-61.57163072 102.23806266 -57.1016197 82.09830846 -51.75268555 61.96557617 C-50.63362405 57.55648115 -49.85844851 53.82205195 -50.21875 49.26953125 C-51.03359804 34.92112012 -51.03359804 34.92112012 -48.17578125 29.609375 C-45.91456116 27.17248988 -43.58447606 25.08510272 -41 23 C-40.11399195 21.96390315 -39.25366011 20.90446594 -38.4375 19.8125 C-30.14126729 10.23992379 -13.80938133 -5.27929267 0 0 Z " fill="#FFFFFF" transform="translate(200,7)"/>
</svg>
