<?xml version="1.0" encoding="UTF-8"?>
<svg version="1.1" xmlns="http://www.w3.org/2000/svg" width="273" height="586">
<path d="M0 0 C12.33269021 7.22370018 23.05929056 18.14777334 32.46875 28.79296875 C34.76786375 31.20530953 34.76786375 31.20530953 37.54296875 31.34765625 C38.41566406 31.25355469 39.28835937 31.15945312 40.1875 31.0625 C53.38399873 30.51558628 64.65421946 39.70008374 74.0625 48.125 C85.12119935 58.41191115 93.2331452 70.57375096 100 84 C100.50394287 84.99580078 100.50394287 84.99580078 101.01806641 86.01171875 C136.53822763 157.64086884 136.0820452 248.18754949 142.03042793 326.12900066 C142.36046177 330.44537749 142.69471101 334.76142331 143.02931595 339.07744789 C143.25981845 342.07678782 143.48347198 345.07658636 143.70687866 348.07646179 C143.84883711 349.91420108 143.99112246 351.75191516 144.13378906 353.58959961 C144.19199263 354.39929577 144.25019619 355.20899193 144.3101635 356.04322433 C144.90046666 363.47442278 146.07829742 370.86115866 148.52124023 377.92602539 C148.80629929 378.76090988 149.09135834 379.59579437 149.38505554 380.45597839 C149.68982315 381.32773209 149.99459076 382.19948578 150.30859375 383.09765625 C150.63136795 384.0378511 150.95414215 384.97804596 151.28669739 385.94673157 C151.9756214 387.95141425 152.66735366 389.95513376 153.36169434 391.95794678 C154.45100261 395.10146574 155.53188972 398.24776416 156.61035156 401.39501953 C158.05751658 405.61746477 159.50677653 409.83917705 160.95849609 414.06005859 C186.58052337 488.58449498 186.58052337 488.58449498 172.875 518.0625 C169.35810529 524.78466583 165.09831119 530.40652909 160 536 C159.44828125 536.62132812 158.8965625 537.24265625 158.328125 537.8828125 C149.34991726 547.43882568 137.82416194 554.61315878 126.91162109 561.73681641 C124.99386672 563.00405282 123.0985298 564.29942242 121.20703125 565.60546875 C94.97140472 583.63695528 94.97140472 583.63695528 80 581 C72.01066332 578.71785657 64.35669694 575.35282277 56.6875 572.1875 C54.59914393 571.3436297 52.5099557 570.50181572 50.41992188 569.66210938 C46.58278388 568.11845336 42.75138601 566.56194842 38.92456055 564.99291992 C37.28387896 564.32654484 35.64240085 563.66212633 34 563 C33.23632111 562.69202988 32.47264221 562.38405975 31.68582153 562.0667572 C27.24615348 560.33006929 24.63192782 559.57431254 20 561 C17.80046878 562.03715519 15.63476703 563.1478549 13.5 564.3125 C-3.90980804 573.34220524 -22.53647901 575.21892867 -41.421875 570.06640625 C-61.40458659 563.64973553 -75.96766627 550.36207561 -85.65234375 531.83984375 C-98.76780825 504.9355046 -93.90621701 479.05744078 -86.01069641 451.59542847 C-85.81789187 450.92321821 -85.62508732 450.25100795 -85.42644022 449.55842768 C-82.61958484 439.84126914 -79.39565635 430.38805696 -75.71232605 420.9614563 C-61.06588419 383.05749053 -56.27747198 348.1678185 -54.9860714 307.73750525 C-54.71617296 299.41155959 -54.33572068 291.09148452 -53.95189001 282.77014269 C-53.2699923 267.93079047 -52.6662174 253.08944264 -52.11694336 238.24462891 C-51.58623304 223.90687547 -51.0201419 209.57125084 -50.40600586 195.23681641 C-50.36784893 194.34586945 -50.32969199 193.4549225 -50.29037879 192.53697716 C-50.06042673 187.17533382 -49.82905092 181.81375265 -49.59710456 176.45219526 C-49.25918626 168.63967061 -48.92277444 160.8270816 -48.58769226 153.01443481 C-48.5335474 151.75356464 -48.5335474 151.75356464 -48.4783087 150.46722235 C-47.98283547 138.9108881 -47.51346826 127.35377347 -47.06686802 115.79545042 C-46.97602563 113.4520656 -46.88419127 111.10872207 -46.79193437 108.76539254 C-46.74733226 107.63247803 -46.74733226 107.63247803 -46.7018291 106.47667636 C-46.64283094 104.97919625 -46.5837815 103.48171817 -46.52467874 101.98424219 C-46.35749842 97.73286464 -46.196991 93.48130621 -46.0418637 89.22947275 C-45.92336697 86.03368121 -45.79516677 82.83827451 -45.6686554 79.64279175 C-45.63044137 78.52940709 -45.59222734 77.41602243 -45.55285531 76.26889884 C-44.49188637 50.49188637 -44.49188637 50.49188637 -38 44 C-37.90428741 41.99003571 -37.81529425 39.97951986 -37.76074219 37.96801758 C-37.40851814 25.79867664 -36.69814469 10.47297942 -28 1 C-18.71461835 -6.24259769 -10.08673687 -4.76827561 0 0 Z " fill="#FFFFFF" transform="translate(94,4)"/>
<path d="M0 0 C63.69 0 127.38 0 193 0 C232.7292445 116.53911719 232.7292445 116.53911719 220.59765625 143.06640625 C211.61437506 159.91280399 196.03591632 171.64716656 180.328125 181.83203125 C177.7529212 183.50954077 175.2081726 185.21446611 172.671875 186.94921875 C147.38225514 204.18378426 147.38225514 204.18378426 135 203 C131.77396273 202.17443758 128.75523851 200.97879694 125.6796875 199.7109375 C124.81795929 199.37003082 123.95623108 199.02912415 123.06838989 198.67788696 C120.33129607 197.59121931 117.60326195 196.48362861 114.875 195.375 C113.06826986 194.6535401 111.2609815 193.93347651 109.453125 193.21484375 C106.07315134 191.86839417 102.69645785 190.51439827 99.32373047 189.14990234 C92.55578926 186.41677888 85.77692536 183.71077014 79 181 C79 167.8 79 154.6 79 141 C77.02 141 75.04 141 73 141 C73 154.53 73 168.06 73 182 C53.08241618 191.95879191 36.38469393 198.64100318 14.25 192.25 C-4.59603931 185.86887747 -18.24952886 173.84981869 -27.44140625 156.23828125 C-48.30273359 112.58517539 -20.0298832 58.45402195 -5.65080261 16.72349548 C-5.34580338 15.83803543 -5.04080414 14.95257538 -4.7265625 14.0402832 C-4.46439941 13.28060745 -4.20223633 12.5209317 -3.93212891 11.73823547 C-2.6023721 7.83192247 -1.30489595 3.91468785 0 0 Z " fill="#FFFFFF" transform="translate(41,376)"/>
<path d="M0 0 C12.33269021 7.22370018 23.05929056 18.14777334 32.46875 28.79296875 C34.76786375 31.20530953 34.76786375 31.20530953 37.54296875 31.34765625 C38.41566406 31.25355469 39.28835937 31.15945312 40.1875 31.0625 C53.38399873 30.51558628 64.65421946 39.70008374 74.0625 48.125 C85.12119935 58.41191115 93.2331452 70.57375096 100 84 C100.50394287 84.99580078 100.50394287 84.99580078 101.01806641 86.01171875 C136.53822763 157.64086884 136.0820452 248.18754949 142.03042793 326.12900066 C142.36046177 330.44537749 142.69471101 334.76142331 143.02931595 339.07744789 C143.25981845 342.07678782 143.48347198 345.07658636 143.70687866 348.07646179 C143.84883711 349.91420108 143.99112246 351.75191516 144.13378906 353.58959961 C144.19199263 354.39929577 144.25019619 355.20899193 144.3101635 356.04322433 C144.90046666 363.47442278 146.07829742 370.86115866 148.52124023 377.92602539 C148.80629929 378.76090988 149.09135834 379.59579437 149.38505554 380.45597839 C149.68982315 381.32773209 149.99459076 382.19948578 150.30859375 383.09765625 C150.63136795 384.0378511 150.95414215 384.97804596 151.28669739 385.94673157 C151.9756214 387.95141425 152.66735366 389.95513376 153.36169434 391.95794678 C154.45100261 395.10146574 155.53188972 398.24776416 156.61035156 401.39501953 C158.05751658 405.61746477 159.50677653 409.83917705 160.95849609 414.06005859 C186.58052337 488.58449498 186.58052337 488.58449498 172.875 518.0625 C169.35810529 524.78466583 165.09831119 530.40652909 160 536 C159.44828125 536.62132812 158.8965625 537.24265625 158.328125 537.8828125 C149.34991726 547.43882568 137.82416194 554.61315878 126.91162109 561.73681641 C124.99386672 563.00405282 123.0985298 564.29942242 121.20703125 565.60546875 C94.97140472 583.63695528 94.97140472 583.63695528 80 581 C72.01066332 578.71785657 64.35669694 575.35282277 56.6875 572.1875 C54.59914393 571.3436297 52.5099557 570.50181572 50.41992188 569.66210938 C46.58278388 568.11845336 42.75138601 566.56194842 38.92456055 564.99291992 C37.28387896 564.32654484 35.64240085 563.66212633 34 563 C33.23632111 562.69202988 32.47264221 562.38405975 31.68582153 562.0667572 C27.24615348 560.33006929 24.63192782 559.57431254 20 561 C17.80046878 562.03715519 15.63476703 563.1478549 13.5 564.3125 C-3.90980804 573.34220524 -22.53647901 575.21892867 -41.421875 570.06640625 C-61.40458659 563.64973553 -75.96766627 550.36207561 -85.65234375 531.83984375 C-98.76780825 504.9355046 -93.90621701 479.05744078 -86.01069641 451.59542847 C-85.81789187 450.92321821 -85.62508732 450.25100795 -85.42644022 449.55842768 C-82.61958484 439.84126914 -79.39565635 430.38805696 -75.71232605 420.9614563 C-61.06588419 383.05749053 -56.27747198 348.1678185 -54.9860714 307.73750525 C-54.71617296 299.41155959 -54.33572068 291.09148452 -53.95189001 282.77014269 C-53.2699923 267.93079047 -52.6662174 253.08944264 -52.11694336 238.24462891 C-51.58623304 223.90687547 -51.0201419 209.57125084 -50.40600586 195.23681641 C-50.36784893 194.34586945 -50.32969199 193.4549225 -50.29037879 192.53697716 C-50.06042673 187.17533382 -49.82905092 181.81375265 -49.59710456 176.45219526 C-49.25918626 168.63967061 -48.92277444 160.8270816 -48.58769226 153.01443481 C-48.5335474 151.75356464 -48.5335474 151.75356464 -48.4783087 150.46722235 C-47.98283547 138.9108881 -47.51346826 127.35377347 -47.06686802 115.79545042 C-46.97602563 113.4520656 -46.88419127 111.10872207 -46.79193437 108.76539254 C-46.74733226 107.63247803 -46.74733226 107.63247803 -46.7018291 106.47667636 C-46.64283094 104.97919625 -46.5837815 103.48171817 -46.52467874 101.98424219 C-46.35749842 97.73286464 -46.196991 93.48130621 -46.0418637 89.22947275 C-45.92336697 86.03368121 -45.79516677 82.83827451 -45.6686554 79.64279175 C-45.63044137 78.52940709 -45.59222734 77.41602243 -45.55285531 76.26889884 C-44.49188637 50.49188637 -44.49188637 50.49188637 -38 44 C-37.90428741 41.99003571 -37.81529425 39.97951986 -37.76074219 37.96801758 C-37.40851814 25.79867664 -36.69814469 10.47297942 -28 1 C-18.71461835 -6.24259769 -10.08673687 -4.76827561 0 0 Z M-31.6171875 46.09765625 C-38.92017033 56.14441512 -39.22429488 68.1768663 -39.77200317 80.2199707 C-39.83088176 81.38965299 -39.88976034 82.55933527 -39.95042312 83.76446247 C-40.11061053 86.97481296 -40.26455632 90.18538892 -40.4157331 93.39617395 C-40.5809962 96.87295979 -40.75446914 100.34933776 -40.92687988 103.82577515 C-41.26264216 110.62180025 -41.59093819 117.41816609 -41.91667022 124.21467853 C-42.29683679 132.14093361 -42.68453497 140.06681506 -43.07252882 147.99269021 C-43.76487794 162.14100942 -44.45052167 176.28964553 -45.13232422 190.43847656 C-45.7928868 204.14639541 -46.45804616 217.85408074 -47.12841797 231.56152344 C-47.16971046 232.40586665 -47.21100295 233.25020987 -47.25354673 234.12013924 C-47.29477096 234.96306837 -47.33599519 235.80599751 -47.37846863 236.67446995 C-47.46148276 238.37193351 -47.54449467 240.06939718 -47.62750435 241.76686096 C-47.66844894 242.60413194 -47.70939354 243.44140291 -47.75157887 244.30404574 C-48.3916741 257.39735021 -49.02743368 270.49086564 -49.66280643 283.5844 C-49.8925707 288.31807011 -50.12299634 293.05170748 -50.35391368 297.78532147 C-50.72027924 305.29566059 -51.08477024 312.80608538 -51.44540347 320.31670213 C-51.61005846 323.74509477 -51.77559118 327.1734384 -51.94366074 330.6016655 C-52.12580669 334.32766195 -52.30433597 338.05381511 -52.48196411 341.7800293 C-52.53507315 342.84970098 -52.58818218 343.91937265 -52.64290059 345.02145863 C-52.9722546 352.03854312 -53 358.95758003 -53 366 C10.36 366 73.72 366 139 366 C137.783125 350.16 136.56625 334.32 135.3125 318 C134.94036377 313.111875 134.56822754 308.22375 134.18481445 303.1875 C132.50736565 281.42891856 130.67526867 259.69825216 128.41015625 237.9921875 C128.31015131 237.02888519 128.21014637 236.06558289 128.10711098 235.0730896 C118.73096251 132.5991265 118.73096251 132.5991265 65.375 48.73046875 C57.43542834 42.94555058 47.11093106 35.68932375 37 37 C34.60433771 39.24110343 34.0828787 41.04577217 33.80175781 44.2824707 C33.70101407 51.65242033 34.90542939 58.24510337 36.6875 65.375 C36.96078125 66.51928467 37.2340625 67.66356934 37.515625 68.8425293 C38.73365543 73.92603594 39.99368324 78.9973052 41.30078125 84.05859375 C47.33942916 107.77246149 51.31294903 132.5854019 53 157 C53.08241943 158.09538086 53.08241943 158.09538086 53.16650391 159.21289062 C55.78265847 194.61972588 56.26263876 239.47472249 40 272 C26.6466793 233.20345251 18.24777376 196.56694862 16.04595947 155.39886475 C15.36837158 92.95368161 15.36837158 92.95368161 -11 39 C-19.69781168 33.94747002 -26.03759786 39.18889735 -31.6171875 46.09765625 Z M-53 372 C-63.6586956 403.00913732 -63.6586956 403.00913732 -74 434.125 C-74.26382477 434.93625336 -74.52764954 435.74750671 -74.79946899 436.58334351 C-89.98557459 482.6842471 -89.98557459 482.6842471 -80 529 C-71.59167026 545.3999201 -57.44085723 558.29767924 -39.90625 564.18359375 C-18.72736735 570.13303794 -0.72679743 564.96676808 18 555 C18.66 554.67 19.32 554.34 20 554 C20 540.47 20 526.94 20 513 C21.98 513 23.96 513 26 513 C26 526.2 26 539.4 26 553 C31.89875 555.330625 37.7975 557.66125 43.875 560.0625 C49.39013672 562.24243164 49.39013672 562.24243164 51.68850708 563.15122986 C53.26783145 563.7741188 54.84805634 564.39472689 56.42892456 565.01368713 C60.62233693 566.65675267 64.80082747 568.32520833 68.95800781 570.05810547 C69.75538361 570.38419296 70.5527594 570.71028046 71.3742981 571.04624939 C72.86556834 571.65653196 74.35215707 572.27845409 75.83248901 572.91481018 C82.54559365 575.63117094 89.44437219 576.17857624 96.25 573.375 C105.28256192 569.31956403 113.31315191 563.37292618 121.43164062 557.76611328 C123.75905206 556.16568606 126.10077135 554.59077225 128.453125 553.02734375 C147.62320141 540.22383068 166.39655468 525.33644719 172.33984375 501.94921875 C180.4721533 459.25185733 152.25460336 407.59670499 140 372 C76.31 372 12.62 372 -53 372 Z " fill="#11110E" transform="translate(94,4)"/>
<path d="M0 0 C11.21335577 6.0499966 20.53185287 15.98264772 29.25 25.125 C29.85328125 25.73472656 30.4565625 26.34445313 31.078125 26.97265625 C32.5 28.5 32.5 28.5 34.25 31.125 C33.8828125 33.453125 33.8828125 33.453125 33.25 36.125 C31.71998588 50.24484457 36.20956838 64.36046287 39.7421875 77.890625 C47.6556984 108.21932891 52.40263918 139.75852713 53.25 171.125 C53.28287109 172.26050293 53.28287109 172.26050293 53.31640625 173.41894531 C53.94166654 198.71072418 51.90353832 224.88879532 44.25 249.125 C42.40845163 246.36267745 41.62293757 244.48306502 40.69921875 241.35546875 C40.41530273 240.39552002 40.13138672 239.43557129 39.83886719 238.4465332 C39.39269043 236.89518677 39.39269043 236.89518677 38.9375 235.3125 C38.62844727 234.2402417 38.31939453 233.1679834 38.00097656 232.06323242 C36.0127995 225.05671103 34.15223932 218.03088005 32.5 210.9375 C32.22095825 209.76900513 32.22095825 209.76900513 31.9362793 208.5769043 C27.41743722 188.43318008 26.37280737 167.9191464 25.25 147.375 C24.309237 84.30008898 24.309237 84.30008898 -2.75 30.125 C-7.5429461 26.82319269 -12.09033492 26.24645722 -17.75 27.125 C-20.88578071 28.22252325 -23.81586539 29.57122659 -26.75 31.125 C-27.4190539 20.1475601 -25.70003919 9.962523 -19.34765625 0.83203125 C-13.88830997 -5.00106001 -6.58156251 -2.94776822 0 0 Z " fill="#FFFFFF" transform="translate(89.75,8.875)"/>
</svg>
