<?xml version="1.0" encoding="UTF-8"?>
<svg version="1.1" xmlns="http://www.w3.org/2000/svg" width="188" height="640">
<path d="M0 0 C5.10285017 4.6389547 6.20801076 10.77933339 6.75 17.5 C7.00464726 28.31565283 6.48568307 39.09724878 5.95043945 49.89624023 C5.81222793 52.69300552 5.68015981 55.49001344 5.54882812 58.28710938 C4.83789895 73.11323659 4.83789895 73.11323659 4.19921875 79.3828125 C0.78911672 113.82518098 7.92239898 146.99470696 15.26435852 180.3989563 C24.34585874 221.78193978 29.3140968 263.39159967 33.75 305.5 C33.82077507 306.17181557 33.89155014 306.84363113 33.96446991 307.53580475 C34.33791511 311.08121251 34.71105295 314.62665248 35.0839386 318.17211914 C35.39066264 321.08833925 35.6977992 324.00451545 36.0052948 326.9206543 C36.15922126 328.38085821 36.31313668 329.84106329 36.46704102 331.30126953 C36.54308784 332.02262714 36.61913465 332.74398476 36.69748592 333.48720169 C37.06788448 337.00482477 37.43629367 340.52263474 37.80001831 344.04095459 C38.6151176 351.92513389 39.46095556 359.80513032 40.33880615 367.68258667 C40.738247 371.39088831 41.0921531 375.10142739 41.44189453 378.81469727 C43.71883595 401.08866584 49.54273642 422.16628569 55.56726074 443.6706543 C56.90378701 448.45564861 58.21904344 453.24646782 59.53515625 458.03710938 C61.09135203 463.69721233 62.64855345 469.35701708 64.2137146 475.01464844 C67.44627939 486.70531046 70.63497906 498.4066288 73.737957 510.13241386 C74.16544778 511.74712208 74.59429367 513.36147229 75.02464676 514.97542 C81.49103217 539.25392556 87.09287738 565.49757318 74.39453125 588.82421875 C57.62363868 616.11177555 15.3573332 625.88857839 -13.72241211 632.88525391 C-37.33615701 638.47057307 -69.22367267 645.51944217 -91.25390625 631.9375 C-99.24370197 626.18359623 -103.13605504 619.55088599 -105.5 610.0625 C-108.03111922 594.1819197 -105.62422147 577.8374575 -103.99536133 561.97285461 C-103.82168985 560.27619553 -103.64808595 558.57952952 -103.47454262 556.88285732 C-103.38566694 556.01423498 -103.29679125 555.14561264 -103.20522237 554.25066841 C-102.9447753 551.69635198 -102.68663971 549.14181452 -102.42946434 546.58716679 C-100.42504603 526.6825975 -98.33659799 506.79649167 -95.87704408 486.94247198 C-88.40197432 426.4595526 -84.92536907 366.3602604 -83.39656979 305.45560944 C-83.09465025 293.48858641 -82.74601972 281.52303775 -82.39436316 269.55738902 C-81.90327997 252.8395267 -81.42817 236.12140209 -80.98734093 219.40213776 C-79.59080578 166.45314005 -79.59080578 166.45314005 -77.796875 152.2578125 C-77.654776 151.07363739 -77.512677 149.88946228 -77.36627197 148.66940308 C-77.06878405 146.21110792 -76.76623835 143.75341925 -76.45849609 141.29638672 C-76.00129219 137.63534716 -75.56393485 133.97232732 -75.12890625 130.30859375 C-73.63137541 117.94231363 -71.87116483 105.64964301 -69.69921875 93.3828125 C-69.40038788 91.68984543 -69.40038788 91.68984543 -69.09552002 89.962677 C-67.19784975 79.58624238 -64.53372176 69.51939747 -61.25 59.5 C-61.01700195 58.77925293 -60.78400391 58.05850586 -60.54394531 57.31591797 C-52.8709702 34.03184753 -38.71004688 11.84906963 -16.25 0.5 C-10.58127193 -1.94533368 -5.72228965 -2.64105676 0 0 Z " fill="#FFFFFF" transform="translate(106.25,1.5)"/>
<path d="M0 0 C39.27 0 78.54 0 119 0 C122.58875 13.261875 126.1775 26.52375 129.875 40.1875 C132.25508641 48.98267062 132.25508641 48.98267062 134.63537598 57.77778625 C135.59007445 61.30578812 136.54375729 64.83406308 137.49694824 68.36247253 C139.71604736 76.57468803 141.93791166 84.78601406 144.18664742 92.99017239 C145.10830018 96.35376386 146.02648364 99.71829798 146.94440079 103.08291054 C147.36861649 104.63390847 147.79455467 106.18443659 148.22243881 107.7344265 C154.68665617 131.15411131 161.94921117 158.15981479 149.35546875 180.8359375 C133.35767583 206.37708239 91.99555505 215.96428116 64.76660156 222.37109375 C13.60312338 234.00161968 13.60312338 234.00161968 -6.375 222.75 C-13.81903633 217.56548405 -17.79440809 211.16210547 -19.52371216 202.32316589 C-21.2801746 190.06793793 -19.66672461 177.40212998 -18.3828125 165.16796875 C-18.20766595 163.4428878 -18.03315524 161.7177422 -17.85922241 159.99253845 C-17.38919098 155.3536581 -16.90858788 150.71593189 -16.42538452 146.07840729 C-16.12359619 143.17398967 -15.82482004 140.26927817 -15.52709961 137.36444092 C-12.41004921 106.9520948 -9.15749093 76.55414126 -5.83235931 46.16388321 C-5.49981039 43.12326629 -5.16812206 40.08255629 -4.83648682 37.0418396 C-4.31549079 32.27000282 -3.79056285 27.49861447 -3.26234818 22.72757149 C-3.06838192 20.97204769 -2.87546816 19.21640725 -2.68366623 17.46064568 C-2.42185201 15.06731091 -2.15586639 12.6744775 -1.88867188 10.28173828 C-1.81287966 9.58122943 -1.73708744 8.88072058 -1.65899849 8.15898418 C-1.33355317 5.2812463 -0.91975003 2.7592501 0 0 Z " fill="#FFFFFF" transform="translate(26,406)"/>
<path d="M0 0 C5.10285017 4.6389547 6.20801076 10.77933339 6.75 17.5 C7.00464726 28.31565283 6.48568307 39.09724878 5.95043945 49.89624023 C5.81222793 52.69300552 5.68015981 55.49001344 5.54882812 58.28710938 C4.83789895 73.11323659 4.83789895 73.11323659 4.19921875 79.3828125 C0.78911672 113.82518098 7.92239898 146.99470696 15.26435852 180.3989563 C24.34585874 221.78193978 29.3140968 263.39159967 33.75 305.5 C33.82077507 306.17181557 33.89155014 306.84363113 33.96446991 307.53580475 C34.33791511 311.08121251 34.71105295 314.62665248 35.0839386 318.17211914 C35.39066264 321.08833925 35.6977992 324.00451545 36.0052948 326.9206543 C36.15922126 328.38085821 36.31313668 329.84106329 36.46704102 331.30126953 C36.54308784 332.02262714 36.61913465 332.74398476 36.69748592 333.48720169 C37.06788448 337.00482477 37.43629367 340.52263474 37.80001831 344.04095459 C38.6151176 351.92513389 39.46095556 359.80513032 40.33880615 367.68258667 C40.738247 371.39088831 41.0921531 375.10142739 41.44189453 378.81469727 C43.71883595 401.08866584 49.54273642 422.16628569 55.56726074 443.6706543 C56.90378701 448.45564861 58.21904344 453.24646782 59.53515625 458.03710938 C61.09135203 463.69721233 62.64855345 469.35701708 64.2137146 475.01464844 C67.44627939 486.70531046 70.63497906 498.4066288 73.737957 510.13241386 C74.16544778 511.74712208 74.59429367 513.36147229 75.02464676 514.97542 C81.49103217 539.25392556 87.09287738 565.49757318 74.39453125 588.82421875 C57.62363868 616.11177555 15.3573332 625.88857839 -13.72241211 632.88525391 C-37.33615701 638.47057307 -69.22367267 645.51944217 -91.25390625 631.9375 C-99.24370197 626.18359623 -103.13605504 619.55088599 -105.5 610.0625 C-108.03111922 594.1819197 -105.62422147 577.8374575 -103.99536133 561.97285461 C-103.82168985 560.27619553 -103.64808595 558.57952952 -103.47454262 556.88285732 C-103.38566694 556.01423498 -103.29679125 555.14561264 -103.20522237 554.25066841 C-102.9447753 551.69635198 -102.68663971 549.14181452 -102.42946434 546.58716679 C-100.42504603 526.6825975 -98.33659799 506.79649167 -95.87704408 486.94247198 C-88.40197432 426.4595526 -84.92536907 366.3602604 -83.39656979 305.45560944 C-83.09465025 293.48858641 -82.74601972 281.52303775 -82.39436316 269.55738902 C-81.90327997 252.8395267 -81.42817 236.12140209 -80.98734093 219.40213776 C-79.59080578 166.45314005 -79.59080578 166.45314005 -77.796875 152.2578125 C-77.654776 151.07363739 -77.512677 149.88946228 -77.36627197 148.66940308 C-77.06878405 146.21110792 -76.76623835 143.75341925 -76.45849609 141.29638672 C-76.00129219 137.63534716 -75.56393485 133.97232732 -75.12890625 130.30859375 C-73.63137541 117.94231363 -71.87116483 105.64964301 -69.69921875 93.3828125 C-69.40038788 91.68984543 -69.40038788 91.68984543 -69.09552002 89.962677 C-67.19784975 79.58624238 -64.53372176 69.51939747 -61.25 59.5 C-61.01700195 58.77925293 -60.78400391 58.05850586 -60.54394531 57.31591797 C-52.8709702 34.03184753 -38.71004688 11.84906963 -16.25 0.5 C-10.58127193 -1.94533368 -5.72228965 -2.64105676 0 0 Z M-29.25 17.5 C-29.86617187 18.02078125 -30.48234375 18.5415625 -31.1171875 19.078125 C-61.43151095 46.73819893 -65.14647792 98.0918555 -69.605896 136.20031738 C-70.01283688 139.63079125 -70.46565176 143.05002774 -70.9569397 146.46936035 C-73.92713752 168.15806762 -74.28875866 189.99651749 -74.96768546 211.8497889 C-75.14848038 217.60031268 -75.34110543 223.35044204 -75.53218079 229.10063171 C-75.85094558 238.74338001 -76.1617734 248.38635642 -76.46704102 258.02954102 C-76.85700173 270.34688934 -77.26010337 282.66377083 -77.66737652 294.98055744 C-78.02028536 305.65620505 -78.3672451 316.3320449 -78.71322274 327.00791907 C-78.82337191 330.39970488 -78.93429677 333.79146466 -79.04532433 337.18322182 C-79.22030873 342.54073057 -79.39154697 347.8983477 -79.56007004 353.25606346 C-79.62180681 355.20333364 -79.68463883 357.15056951 -79.74874687 359.09776306 C-79.79346972 360.45968529 -79.79346972 360.45968529 -79.83909607 361.84912109 C-79.87811633 363.02164413 -79.87811633 363.02164413 -79.91792488 364.2178545 C-80.2527579 375.67114949 -80.25 387.02090865 -80.25 398.5 C-41.31 398.5 -2.37 398.5 37.75 398.5 C35.3720835 377.22387548 35.3720835 377.22387548 32.99414062 355.94775391 C31.241217 340.20779651 29.51875379 324.46595384 27.90625 308.7109375 C23.29385055 263.70381619 17.78710848 219.28831616 7.79150391 175.11669922 C-0.59610198 138.03409417 -4.13453446 103.09341792 -1.04125977 65.17504883 C-0.32256214 56.20908605 0.1302325 47.25258817 0.42288208 38.26391602 C0.47349505 36.73707477 0.52826895 35.2103646 0.58761597 33.68383789 C1.61071084 19.09477904 1.61071084 19.09477904 -3.125 5.8125 C-11.51093544 0.63295164 -23.34134582 12.33243126 -29.25 17.5 Z M-80.25 404.5 C-81.45814303 412.35292968 -82.62362181 420.12862469 -83.48339844 428.01367188 C-83.59119755 428.98184436 -83.69899666 429.95001684 -83.81006241 430.94752789 C-84.16260406 434.12096873 -84.51109908 437.2948384 -84.859375 440.46875 C-85.10937288 442.72978 -85.35953941 444.99079135 -85.60986328 447.25178528 C-86.41112011 454.50069342 -87.20578553 461.75031748 -88 469 C-88.27215367 471.48009483 -88.54432981 473.96018719 -88.81652832 476.4402771 C-91.97309209 505.22095612 -95.11697446 534.00295196 -98 562.8125 C-98.12242065 564.01116699 -98.24484131 565.20983398 -98.37097168 566.44482422 C-101.92120174 593.25403143 -101.92120174 593.25403143 -95.5 618.875 C-88.52901712 627.00781336 -80.80174275 630.63259033 -70.25 632.5 C-28.66208957 635.58011391 28.85256767 622.01641948 61.4609375 594.6875 C70.1083586 586.42375288 74.91328874 575.42313539 75.75 563.5 C75.84474609 562.27796875 75.84474609 562.27796875 75.94140625 561.03125 C77.00624438 534.92554089 67.15924924 508.27972725 60.3526001 483.43115234 C58.94114857 478.26832555 57.54359132 473.10174239 56.14453125 467.93554688 C50.40699924 446.77356579 44.58079291 425.63662431 38.75 404.5 C-0.52 404.5 -39.79 404.5 -80.25 404.5 Z " fill="#11110E" transform="translate(106.25,1.5)"/>
</svg>
