<?xml version="1.0" encoding="UTF-8"?>
<svg version="1.1" xmlns="http://www.w3.org/2000/svg" width="211" height="629">
<path d="M0 0 C8.59453336 6.44590002 10.3614866 16.96019177 12 27 C12.76685537 33.32763058 13.13412094 39.58861222 13.20556641 45.95800781 C14.08792787 91.59418955 19.01677153 136.96013909 23.38014722 182.36411047 C24.38077416 192.78551991 25.36295448 203.20862854 26.34322166 213.63196945 C27.29561671 223.75786819 28.25572555 233.88303359 29.21728945 244.00806522 C29.51865879 247.1840151 29.81912187 250.36004976 30.11948776 253.53609467 C31.94940464 272.85523142 33.80219403 292.1677406 36.12744141 311.43457031 C36.28057989 312.70914974 36.43371838 313.98372917 36.59149742 315.29693222 C40.58247813 347.43607611 48.9995725 377.7662671 58.6875 408.5625 C64.46260608 426.93458378 70.17631882 445.31582899 75.48828125 463.828125 C75.69343542 464.538958 75.89858959 465.24979099 76.10996056 465.98216438 C80.10295294 479.84856829 83.36523003 493.80671579 86 508 C86.14405273 508.75087891 86.28810547 509.50175781 86.43652344 510.27539062 C91.32872261 536.72181477 90.30710901 567.83554791 74.78515625 590.640625 C57.97306095 612.86054964 11.33470402 623.3800021 -14.83203125 627.62109375 C-29.01027938 629.31688915 -41.23820592 625.24277828 -52.8125 616.99609375 C-55.61148049 614.73441755 -58.31117179 612.39168008 -61 610 C-63.43269721 607.86947526 -65.87283716 605.74754087 -68.3125 603.625 C-68.94921631 603.0678833 -69.58593262 602.5107666 -70.24194336 601.93676758 C-74.38901893 598.32790609 -78.63662702 594.9047633 -83 591.5625 C-90.80614177 585.54496503 -97.96206641 578.89139976 -105 572 C-105.81726563 571.20851563 -106.63453125 570.41703125 -107.4765625 569.6015625 C-118.8143898 557.82598125 -123.56730378 542.00930351 -123.34724045 525.9061985 C-123.1536694 520.39638856 -122.5665577 515.02650454 -121.72753906 509.57958984 C-121.59505894 508.71165991 -121.46257881 507.84372997 -121.32608414 506.94949913 C-120.06295669 498.9485956 -118.38615399 491.072649 -116.54404449 483.187603 C-115.95385862 480.65828036 -115.37432675 478.12669164 -114.79705811 475.59439087 C-113.96102788 471.92811467 -113.12243774 468.26244237 -112.28149414 464.59729004 C-108.14557053 446.55054234 -104.13710765 428.47698538 -100.25 410.375 C-99.99518734 409.18860302 -99.74037468 408.00220604 -99.47784042 406.77985764 C-82.21980042 326.15981103 -69.18225923 244.6950145 -55.37081909 163.43267822 C-46.47573036 111.09771342 -46.47573036 111.09771342 -42.09818077 85.84794426 C-41.50816782 82.44307797 -40.92200702 79.03758752 -40.33960915 75.6314106 C-30.05636717 15.53410014 -30.05636717 15.53410014 -15.2578125 2.4609375 C-10.30051729 -0.96724177 -5.77391922 -1.61896166 0 0 Z " fill="#FFFFFF" transform="translate(123,1)"/>
<path d="M0 0 C45.87 0 91.74 0 139 0 C151.30948358 39.32841295 151.30948358 39.32841295 154.7421875 50.5703125 C154.97146816 51.32116245 155.20074883 52.07201241 155.43697739 52.84561539 C183.74549284 145.72129703 183.74549284 145.72129703 165 185 C158.84994741 196.21480178 149.26753762 201.9422033 137.75 206.8125 C136.78054443 207.22773926 135.81108887 207.64297852 134.81225586 208.07080078 C76.4337403 232.45508232 76.4337403 232.45508232 54 224 C42.88787645 218.66750554 33.80776941 209.88249602 24.60107422 201.8515625 C20.92760031 198.6512787 17.22167393 195.50725761 13.4375 192.4375 C-22.87972172 162.95008415 -22.87972172 162.95008415 -26 140 C-27.33884074 123.01208634 -23.28385986 106.07621656 -19.375 89.65234375 C-16.75866927 78.47965593 -14.30676826 67.27701955 -11.9140625 56.0546875 C-11.67805832 54.94817243 -11.67805832 54.94817243 -11.43728638 53.81930351 C-10.16272511 47.83867186 -8.89439268 41.85673463 -7.625 35.875 C-5.10875 24.03625 -2.5925 12.1975 0 0 Z " fill="#FFFFFF" transform="translate(32,396)"/>
<path d="M0 0 C8.59453336 6.44590002 10.3614866 16.96019177 12 27 C12.76685537 33.32763058 13.13412094 39.58861222 13.20556641 45.95800781 C14.08792787 91.59418955 19.01677153 136.96013909 23.38014722 182.36411047 C24.38077416 192.78551991 25.36295448 203.20862854 26.34322166 213.63196945 C27.29561671 223.75786819 28.25572555 233.88303359 29.21728945 244.00806522 C29.51865879 247.1840151 29.81912187 250.36004976 30.11948776 253.53609467 C31.94940464 272.85523142 33.80219403 292.1677406 36.12744141 311.43457031 C36.28057989 312.70914974 36.43371838 313.98372917 36.59149742 315.29693222 C40.58247813 347.43607611 48.9995725 377.7662671 58.6875 408.5625 C64.46260608 426.93458378 70.17631882 445.31582899 75.48828125 463.828125 C75.69343542 464.538958 75.89858959 465.24979099 76.10996056 465.98216438 C80.10295294 479.84856829 83.36523003 493.80671579 86 508 C86.14405273 508.75087891 86.28810547 509.50175781 86.43652344 510.27539062 C91.32872261 536.72181477 90.30710901 567.83554791 74.78515625 590.640625 C57.97306095 612.86054964 11.33470402 623.3800021 -14.83203125 627.62109375 C-29.01027938 629.31688915 -41.23820592 625.24277828 -52.8125 616.99609375 C-55.61148049 614.73441755 -58.31117179 612.39168008 -61 610 C-63.43269721 607.86947526 -65.87283716 605.74754087 -68.3125 603.625 C-68.94921631 603.0678833 -69.58593262 602.5107666 -70.24194336 601.93676758 C-74.38901893 598.32790609 -78.63662702 594.9047633 -83 591.5625 C-90.80614177 585.54496503 -97.96206641 578.89139976 -105 572 C-105.81726563 571.20851563 -106.63453125 570.41703125 -107.4765625 569.6015625 C-118.8143898 557.82598125 -123.56730378 542.00930351 -123.34724045 525.9061985 C-123.1536694 520.39638856 -122.5665577 515.02650454 -121.72753906 509.57958984 C-121.59505894 508.71165991 -121.46257881 507.84372997 -121.32608414 506.94949913 C-120.06295669 498.9485956 -118.38615399 491.072649 -116.54404449 483.187603 C-115.95385862 480.65828036 -115.37432675 478.12669164 -114.79705811 475.59439087 C-113.96102788 471.92811467 -113.12243774 468.26244237 -112.28149414 464.59729004 C-108.14557053 446.55054234 -104.13710765 428.47698538 -100.25 410.375 C-99.99518734 409.18860302 -99.74037468 408.00220604 -99.47784042 406.77985764 C-82.21980042 326.15981103 -69.18225923 244.6950145 -55.37081909 163.43267822 C-46.47573036 111.09771342 -46.47573036 111.09771342 -42.09818077 85.84794426 C-41.50816782 82.44307797 -40.92200702 79.03758752 -40.33960915 75.6314106 C-30.05636717 15.53410014 -30.05636717 15.53410014 -15.2578125 2.4609375 C-10.30051729 -0.96724177 -5.77391922 -1.61896166 0 0 Z M-13 9 C-25.77825276 25.55813327 -29.10947342 46.36891806 -32.52075195 66.43188477 C-32.85109063 68.34389761 -33.18203639 70.25580564 -33.51353455 72.1676178 C-34.40879071 77.34072619 -35.29565745 82.51524116 -36.18104959 87.6900456 C-37.12719483 93.21065691 -38.08140436 98.72987447 -39.03471375 104.24925232 C-40.85313358 114.78432883 -42.66473087 125.32056619 -44.47372168 135.85726541 C-46.67051161 148.651205 -48.87506884 161.44380302 -51.08007812 174.23632812 C-51.67199315 177.67088249 -52.26388034 181.10544165 -52.85576588 184.54000109 C-53.2491423 186.82263955 -53.64253083 189.10527592 -54.03593153 191.38791019 C-55.21208103 198.21236802 -56.38790803 205.03688133 -57.56348199 211.86143833 C-60.04051888 226.24126988 -62.51910792 240.62083305 -65 255 C-65.18266088 256.05874722 -65.36532176 257.11749444 -65.55351782 258.20832491 C-67.81804335 271.33243385 -70.08811881 284.45556408 -72.36688805 297.57720757 C-72.996195 301.2016976 -73.62366983 304.82649642 -74.24933815 308.45161629 C-78.43648366 332.70355283 -82.90943112 356.85483252 -88.41186523 380.84985352 C-89.15294125 384.28508203 -89.15294125 384.28508203 -89 389 C-44.78 389 -0.56 389 45 389 C43.81522425 383.07612124 42.63799574 377.53389389 40.99584961 371.77929688 C34.50236284 348.67056097 31.33740998 324.77398075 28.859375 300.9453125 C28.75956518 299.99688099 28.65975536 299.04844948 28.55692101 298.07127762 C25.15089466 265.63867022 22.10342914 233.16771455 19.04391575 200.70096207 C18.08480791 190.52485021 17.12010196 180.34934926 16.1394043 170.17529297 C8.1947767 87.7055262 8.1947767 87.7055262 7.40093136 50.70536995 C7.64602883 27.23786955 7.64602883 27.23786955 -1.5625 6.75 C-6.06188967 3.51966896 -9.34802787 5.56935951 -13 9 Z M-91 395 C-95.90707254 418.06065259 -95.90707254 418.06065259 -100.81054688 441.12207031 C-101.44623783 444.10750298 -102.0822694 447.09286084 -102.71875 450.078125 C-102.97418831 451.27774242 -102.97418831 451.27774242 -103.23478699 452.50159454 C-105.19218615 461.68685018 -107.18092538 470.8637141 -109.24609375 480.02539062 C-109.42866982 480.83731747 -109.61124588 481.64924431 -109.79935455 482.48577499 C-110.66276536 486.32261495 -111.53184388 490.15799169 -112.4119873 493.99102783 C-117.11583892 514.67780074 -121.29080338 536.93022166 -109.91796875 556.25 C-101.35473554 568.52803703 -89.42751588 578.32536768 -77.87890625 587.65625 C-74.73977739 590.21185016 -71.64766133 592.81730741 -68.5625 595.4375 C-68.01754883 595.89858154 -67.47259766 596.35966309 -66.91113281 596.8347168 C-64.22929209 599.10411931 -61.55530934 601.38171567 -58.89453125 603.67578125 C-46.71214718 614.06153946 -35.48112847 622.24971407 -19 622 C6.15791138 619.55329237 51.92980471 608.06901339 69 588 C84.20796439 567.60922187 84.11256816 539.79703161 81.02612305 515.66699219 C77.46000596 491.78771633 70.77855368 468.61305475 63.7421875 445.5703125 C63.52957401 444.87401608 63.31696053 444.17771965 63.09790421 443.46032333 C58.14808948 427.28122637 53.05380504 411.14674818 48 395 C2.13 395 -43.74 395 -91 395 Z " fill="#11110E" transform="translate(123,1)"/>
</svg>
