<?xml version="1.0" encoding="UTF-8"?>
<svg version="1.1" xmlns="http://www.w3.org/2000/svg" width="212" height="534">
<path d="M0 0 C7.64564837 5.87865408 12.98058279 15.29751041 15.0078125 24.6640625 C15.1953125 27.7265625 15.1953125 27.7265625 15.0078125 29.6640625 C16.0390625 29.7259375 17.0703125 29.7878125 18.1328125 29.8515625 C22.98995116 30.8699948 24.53446509 32.19071509 28.0078125 35.6640625 C30.57929994 39.93817303 30.6250698 43.79815104 30.0078125 48.6640625 C28.53024605 54.12808341 26.1805072 56.78450698 21.3203125 59.6015625 C17.89593989 61.59341113 17.89593989 61.59341113 16.203125 65.03515625 C15.97167351 67.28304113 15.88255936 69.40950606 16.0078125 71.6640625 C16.7090625 71.8496875 17.4103125 72.0353125 18.1328125 72.2265625 C22.0726071 74.1964598 24.48996146 77.08648301 27.0078125 80.6640625 C28.53471663 85.24477488 28.53883503 89.07099491 27.0078125 93.6640625 C25.07250714 96.56702054 23.54852335 97.84738242 20.8203125 99.9140625 C18.40889287 101.93178097 17.18710399 103.11394372 16.20703125 106.12109375 C15.98911812 108.97105561 16.08621848 110.9532274 17.0078125 113.6640625 C18.86753148 115.58336058 20.77138075 116.88314456 23.02734375 118.30859375 C25.94414504 120.30490548 26.92392032 122.3446427 28.0078125 125.6640625 C28.76706137 131.52112524 27.346381 135.89774605 24.0078125 140.6640625 C20.0703125 143.6640625 20.0703125 143.6640625 17.0078125 143.6640625 C17.0078125 146.9640625 17.0078125 150.2640625 17.0078125 153.6640625 C18.3690625 154.0353125 18.3690625 154.0353125 19.7578125 154.4140625 C23.15802989 155.72183842 24.72450862 156.87335776 27.0078125 159.6640625 C28.45065687 163.99259561 28.88034575 168.2359271 27.32421875 172.56640625 C25.51445741 175.99819435 24.09755261 177.60247615 20.8203125 179.8515625 C16.53838389 184.13349111 17.02643931 188.82455751 17.0078125 194.6640625 C18.2246875 194.8909375 19.4415625 195.1178125 20.6953125 195.3515625 C24.97860553 196.41479127 27.2082442 198.18581098 30.0078125 201.6640625 C31.7175493 206.7932729 31.65398845 211.72553466 29.9453125 216.8515625 C26.86683025 221.32032705 23.20606756 224.93131081 18.0078125 226.6640625 C17.77465611 230.05872987 17.63316625 233.45134212 17.5078125 236.8515625 C17.44078125 237.81126953 17.37375 238.77097656 17.3046875 239.75976562 C17.22614375 242.5971587 17.25649577 244.92300107 18.0078125 247.6640625 C19.89479452 249.48480628 21.70572451 250.51709511 24.04614258 251.68457031 C26.53801281 252.92879973 27.74283137 254.18741362 29.0078125 256.6640625 C29.82401896 262.06155685 29.20104784 266.69272906 27.0078125 271.6640625 C27.40833332 275.57748463 29.50947056 277.61702887 32.0703125 280.4765625 C43.50060841 294.18199693 47.81113023 309.07143146 50.6027832 326.48510742 C52.53211436 338.46413138 54.98635759 349.88429611 58.5078125 361.4765625 C62.43698216 374.41703089 65.60793665 387.3505295 68.0078125 400.6640625 C68.13236816 401.35145508 68.25692383 402.03884766 68.38525391 402.74707031 C73.15076868 429.6739938 74.14453584 461.74812266 57.90625 485.21484375 C40.05292481 508.24783736 -4.62965451 519.55318682 -32.5 523.421875 C-46.82232947 524.81370012 -59.89251775 521.12933314 -71.28515625 512.1796875 C-74.02908609 509.91292665 -76.68369067 507.55152181 -79.32275391 505.1640625 C-82.23119198 502.55080665 -85.20856453 500.01801415 -88.1796875 497.4765625 C-89.06720703 496.71339722 -89.06720703 496.71339722 -89.97265625 495.93481445 C-93.26335006 493.11192436 -96.59037796 490.353218 -99.9921875 487.6640625 C-106.48785754 482.51897732 -112.77275443 477.13810268 -118.9921875 471.6640625 C-120.15814453 470.64699219 -120.15814453 470.64699219 -121.34765625 469.609375 C-133.39282964 458.40568079 -140.24094272 443.53635293 -141.1953125 427.18359375 C-141.28846817 419.81653269 -140.89349512 412.71506804 -139.7734375 405.4296875 C-139.64209412 404.56843765 -139.51075073 403.70718781 -139.37542725 402.81983948 C-137.80961048 392.97012602 -135.55894336 383.29687727 -133.2421875 373.6015625 C-132.79560541 371.70614286 -132.34940243 369.81063387 -131.90356445 367.91503906 C-129.20123117 356.47783734 -126.36113152 345.08476695 -123.32958984 333.72998047 C-121.70390215 327.597013 -120.27090481 321.45626293 -118.99072266 315.24194336 C-118.05186884 310.70169923 -117.03878284 306.18054595 -115.9921875 301.6640625 C-115.73308594 300.52195312 -115.47398438 299.37984375 -115.20703125 298.203125 C-112.47692496 289.57551639 -105.77488393 284.42336493 -99.38818359 278.38134766 C-92.90533765 272.05619617 -90.40412673 267.8600001 -89.9921875 258.6640625 C-89.78335938 257.67535156 -89.57453125 256.68664062 -89.359375 255.66796875 C-88.80226093 252.77646825 -88.51467497 250.57127111 -88.9921875 247.6640625 C-90.76349803 245.47828275 -92.64728855 244.0003936 -94.91015625 242.3359375 C-98.72938112 239.26909276 -100.43358819 235.39321913 -101.40234375 230.66015625 C-101.77006863 225.84201749 -100.31759442 222.49088653 -97.63671875 218.54296875 C-95.29673857 215.86949971 -92.58506083 214.03049701 -89.56640625 212.18359375 C-87.73833113 210.72508616 -87.73833113 210.72508616 -87.59375 208.109375 C-87.74603209 205.36054831 -87.74603209 205.36054831 -90.6796875 203.7265625 C-91.7728125 203.0459375 -92.8659375 202.3653125 -93.9921875 201.6640625 C-97.98253172 197.67371828 -100.11555027 194.10808863 -100.3046875 188.4140625 C-100.22458607 182.25626543 -97.98549458 178.60625914 -93.5546875 174.2890625 C-90.94340359 172.63312636 -89.04244096 172.0126629 -85.9921875 171.6640625 C-86.56600841 166.27650227 -86.56600841 166.27650227 -89.765625 162.23046875 C-91.17740071 161.43011263 -92.59419364 160.63854821 -94.015625 159.85546875 C-97.18646439 157.94419204 -98.47430493 156.01605317 -99.9921875 152.6640625 C-100.80769226 148.34331796 -100.99757306 144.50956475 -98.8515625 140.5703125 C-96.33322427 137.44227133 -94.43077192 135.84611641 -90.6796875 134.2890625 C-87.80902283 132.97421624 -87.80902283 132.97421624 -87.39453125 130.48828125 C-87.14188201 128.20020431 -87.00183574 125.96516833 -86.9921875 123.6640625 C-87.8790625 123.6021875 -88.7659375 123.5403125 -89.6796875 123.4765625 C-94.8447488 122.20966067 -97.12512882 118.96465053 -99.9921875 114.6640625 C-100.71125085 109.88145511 -100.63415279 105.16014819 -98.4296875 100.7890625 C-95.49867936 97.03135976 -93.28417836 95.65109531 -88.9921875 93.6640625 C-88.3321875 93.6640625 -87.6721875 93.6640625 -86.9921875 93.6640625 C-86.9921875 89.0440625 -86.9921875 84.4240625 -86.9921875 79.6640625 C-88.0440625 79.5815625 -89.0959375 79.4990625 -90.1796875 79.4140625 C-94.33801884 78.5960301 -96.02953256 77.62671744 -98.9921875 74.6640625 C-101.88902963 69.97829331 -101.61929892 64.9983806 -100.9921875 59.6640625 C-98.82073987 55.24074325 -96.10206452 52.37056688 -91.9921875 49.6640625 C-90.33489996 49.28685315 -88.66820242 48.94666268 -86.9921875 48.6640625 C-86.95351562 47.08431641 -86.95351562 47.08431641 -86.9140625 45.47265625 C-86.35316614 29.40175629 -83.93140292 13.91734362 -71.7421875 2.3515625 C-51.2370847 -14.54899486 -21.60040121 -14.48497493 0 0 Z " fill="#C1BFBE" transform="translate(140.9921875,10.3359375)"/>
<path d="M0 0 C5.27538809 -0.02243696 10.55008671 -0.06448773 15.82519531 -0.12304688 C22.23151322 -0.19397127 28.63717305 -0.23079963 35.0438633 -0.24311829 C37.47560514 -0.25352041 39.90732685 -0.2759479 42.33884239 -0.31071472 C45.72766656 -0.35675411 49.11386382 -0.35894274 52.50292969 -0.35058594 C53.50193298 -0.37418182 54.50093628 -0.39777771 55.5302124 -0.42208862 C62.17126546 -0.34271852 62.17126546 -0.34271852 65.13479042 1.97962952 C75.68645472 14.01816439 77.18181854 32.87556385 79.61474609 48.07958984 C80.91220003 55.97473506 83.11822111 63.57386692 85.33544922 71.24710083 C95.7185833 107.33697163 107.42185532 150.90584309 89.19555664 186.45996094 C74.04379053 211.17939157 32.87000219 219.48863106 6.80834961 225.87353516 C-5.0958084 228.54535234 -16.08564358 227.93021546 -26.86694336 221.83496094 C-36.03738849 215.88144973 -44.10299847 208.35985837 -52.32446289 201.19042969 C-56.53252681 197.52993915 -60.82463262 194.00945202 -65.20288086 190.55371094 C-70.34016923 186.41919657 -75.34120233 182.12560732 -80.29956055 177.77880859 C-81.50601263 176.72149936 -82.72036502 175.67320771 -83.93725586 174.62792969 C-94.73332626 164.7106092 -101.14742509 151.12604137 -101.96459961 136.61621094 C-102.45974552 118.18817177 -97.79642048 100.16445726 -93.42944336 82.39746094 C-92.95473796 80.43344865 -92.48077781 78.46925607 -92.00756836 76.50488281 C-89.81898929 67.45997915 -87.55359378 58.44183257 -85.14819336 49.45214844 C-82.72221026 40.37116417 -80.78982937 31.23240245 -78.95678711 22.01269531 C-78.59907227 20.27536133 -78.59907227 20.27536133 -78.23413086 18.50292969 C-78.03029785 17.48223389 -77.82646484 16.46153809 -77.61645508 15.40991211 C-76.01182421 9.58046089 -73.84030433 5.85916709 -68.80444336 2.45996094 C-48.75640463 -4.22271864 -20.86109208 0.08079737 0 0 Z " fill="#FFFFFF" transform="translate(107.804443359375,300.5400390625)"/>
<path d="M0 0 C7.64564837 5.87865408 12.98058279 15.29751041 15.0078125 24.6640625 C15.1953125 27.7265625 15.1953125 27.7265625 15.0078125 29.6640625 C16.0390625 29.7259375 17.0703125 29.7878125 18.1328125 29.8515625 C22.98995116 30.8699948 24.53446509 32.19071509 28.0078125 35.6640625 C30.57929994 39.93817303 30.6250698 43.79815104 30.0078125 48.6640625 C28.53024605 54.12808341 26.1805072 56.78450698 21.3203125 59.6015625 C17.89593989 61.59341113 17.89593989 61.59341113 16.203125 65.03515625 C15.97167351 67.28304113 15.88255936 69.40950606 16.0078125 71.6640625 C16.7090625 71.8496875 17.4103125 72.0353125 18.1328125 72.2265625 C22.0726071 74.1964598 24.48996146 77.08648301 27.0078125 80.6640625 C28.53471663 85.24477488 28.53883503 89.07099491 27.0078125 93.6640625 C25.07250714 96.56702054 23.54852335 97.84738242 20.8203125 99.9140625 C18.40889287 101.93178097 17.18710399 103.11394372 16.20703125 106.12109375 C15.98911812 108.97105561 16.08621848 110.9532274 17.0078125 113.6640625 C18.86753148 115.58336058 20.77138075 116.88314456 23.02734375 118.30859375 C25.94414504 120.30490548 26.92392032 122.3446427 28.0078125 125.6640625 C28.76706137 131.52112524 27.346381 135.89774605 24.0078125 140.6640625 C20.0703125 143.6640625 20.0703125 143.6640625 17.0078125 143.6640625 C17.0078125 146.9640625 17.0078125 150.2640625 17.0078125 153.6640625 C18.3690625 154.0353125 18.3690625 154.0353125 19.7578125 154.4140625 C23.15802989 155.72183842 24.72450862 156.87335776 27.0078125 159.6640625 C28.45065687 163.99259561 28.88034575 168.2359271 27.32421875 172.56640625 C25.51445741 175.99819435 24.09755261 177.60247615 20.8203125 179.8515625 C16.53838389 184.13349111 17.02643931 188.82455751 17.0078125 194.6640625 C18.2246875 194.8909375 19.4415625 195.1178125 20.6953125 195.3515625 C24.97860553 196.41479127 27.2082442 198.18581098 30.0078125 201.6640625 C31.7175493 206.7932729 31.65398845 211.72553466 29.9453125 216.8515625 C26.86683025 221.32032705 23.20606756 224.93131081 18.0078125 226.6640625 C17.77465611 230.05872987 17.63316625 233.45134212 17.5078125 236.8515625 C17.44078125 237.81126953 17.37375 238.77097656 17.3046875 239.75976562 C17.22614375 242.5971587 17.25649577 244.92300107 18.0078125 247.6640625 C19.89479452 249.48480628 21.70572451 250.51709511 24.04614258 251.68457031 C26.53801281 252.92879973 27.74283137 254.18741362 29.0078125 256.6640625 C29.82401896 262.06155685 29.20104784 266.69272906 27.0078125 271.6640625 C27.40833332 275.57748463 29.50947056 277.61702887 32.0703125 280.4765625 C43.50060841 294.18199693 47.81113023 309.07143146 50.6027832 326.48510742 C52.53211436 338.46413138 54.98635759 349.88429611 58.5078125 361.4765625 C62.43698216 374.41703089 65.60793665 387.3505295 68.0078125 400.6640625 C68.13236816 401.35145508 68.25692383 402.03884766 68.38525391 402.74707031 C73.15076868 429.6739938 74.14453584 461.74812266 57.90625 485.21484375 C40.05292481 508.24783736 -4.62965451 519.55318682 -32.5 523.421875 C-46.82232947 524.81370012 -59.89251775 521.12933314 -71.28515625 512.1796875 C-74.02908609 509.91292665 -76.68369067 507.55152181 -79.32275391 505.1640625 C-82.23119198 502.55080665 -85.20856453 500.01801415 -88.1796875 497.4765625 C-89.06720703 496.71339722 -89.06720703 496.71339722 -89.97265625 495.93481445 C-93.26335006 493.11192436 -96.59037796 490.353218 -99.9921875 487.6640625 C-106.48785754 482.51897732 -112.77275443 477.13810268 -118.9921875 471.6640625 C-120.15814453 470.64699219 -120.15814453 470.64699219 -121.34765625 469.609375 C-133.39282964 458.40568079 -140.24094272 443.53635293 -141.1953125 427.18359375 C-141.28846817 419.81653269 -140.89349512 412.71506804 -139.7734375 405.4296875 C-139.64209412 404.56843765 -139.51075073 403.70718781 -139.37542725 402.81983948 C-137.80961048 392.97012602 -135.55894336 383.29687727 -133.2421875 373.6015625 C-132.79560541 371.70614286 -132.34940243 369.81063387 -131.90356445 367.91503906 C-129.20123117 356.47783734 -126.36113152 345.08476695 -123.32958984 333.72998047 C-121.70390215 327.597013 -120.27090481 321.45626293 -118.99072266 315.24194336 C-118.05186884 310.70169923 -117.03878284 306.18054595 -115.9921875 301.6640625 C-115.73308594 300.52195312 -115.47398438 299.37984375 -115.20703125 298.203125 C-112.47692496 289.57551639 -105.77488393 284.42336493 -99.38818359 278.38134766 C-92.90533765 272.05619617 -90.40412673 267.8600001 -89.9921875 258.6640625 C-89.78335938 257.67535156 -89.57453125 256.68664062 -89.359375 255.66796875 C-88.80226093 252.77646825 -88.51467497 250.57127111 -88.9921875 247.6640625 C-90.76349803 245.47828275 -92.64728855 244.0003936 -94.91015625 242.3359375 C-98.72938112 239.26909276 -100.43358819 235.39321913 -101.40234375 230.66015625 C-101.77006863 225.84201749 -100.31759442 222.49088653 -97.63671875 218.54296875 C-95.29673857 215.86949971 -92.58506083 214.03049701 -89.56640625 212.18359375 C-87.73833113 210.72508616 -87.73833113 210.72508616 -87.59375 208.109375 C-87.74603209 205.36054831 -87.74603209 205.36054831 -90.6796875 203.7265625 C-91.7728125 203.0459375 -92.8659375 202.3653125 -93.9921875 201.6640625 C-97.98253172 197.67371828 -100.11555027 194.10808863 -100.3046875 188.4140625 C-100.22458607 182.25626543 -97.98549458 178.60625914 -93.5546875 174.2890625 C-90.94340359 172.63312636 -89.04244096 172.0126629 -85.9921875 171.6640625 C-86.56600841 166.27650227 -86.56600841 166.27650227 -89.765625 162.23046875 C-91.17740071 161.43011263 -92.59419364 160.63854821 -94.015625 159.85546875 C-97.18646439 157.94419204 -98.47430493 156.01605317 -99.9921875 152.6640625 C-100.80769226 148.34331796 -100.99757306 144.50956475 -98.8515625 140.5703125 C-96.33322427 137.44227133 -94.43077192 135.84611641 -90.6796875 134.2890625 C-87.80902283 132.97421624 -87.80902283 132.97421624 -87.39453125 130.48828125 C-87.14188201 128.20020431 -87.00183574 125.96516833 -86.9921875 123.6640625 C-87.8790625 123.6021875 -88.7659375 123.5403125 -89.6796875 123.4765625 C-94.8447488 122.20966067 -97.12512882 118.96465053 -99.9921875 114.6640625 C-100.71125085 109.88145511 -100.63415279 105.16014819 -98.4296875 100.7890625 C-95.49867936 97.03135976 -93.28417836 95.65109531 -88.9921875 93.6640625 C-88.3321875 93.6640625 -87.6721875 93.6640625 -86.9921875 93.6640625 C-86.9921875 89.0440625 -86.9921875 84.4240625 -86.9921875 79.6640625 C-88.0440625 79.5815625 -89.0959375 79.4990625 -90.1796875 79.4140625 C-94.33801884 78.5960301 -96.02953256 77.62671744 -98.9921875 74.6640625 C-101.88902963 69.97829331 -101.61929892 64.9983806 -100.9921875 59.6640625 C-98.82073987 55.24074325 -96.10206452 52.37056688 -91.9921875 49.6640625 C-90.33489996 49.28685315 -88.66820242 48.94666268 -86.9921875 48.6640625 C-86.95351562 47.08431641 -86.95351562 47.08431641 -86.9140625 45.47265625 C-86.35316614 29.40175629 -83.93140292 13.91734362 -71.7421875 2.3515625 C-51.2370847 -14.54899486 -21.60040121 -14.48497493 0 0 Z M-70.9921875 10.6640625 C-80.70746432 23.27325157 -80.55215134 38.44488099 -80.9921875 53.6640625 C-82.07757813 53.77878906 -83.16296875 53.89351562 -84.28125 54.01171875 C-89.15224328 54.86798809 -90.52813488 56.28248732 -93.9921875 59.6640625 C-95.56154344 62.80277438 -95.34419853 65.20262072 -94.9921875 68.6640625 C-93.20231797 71.7876508 -93.20231797 71.7876508 -89.9921875 73.6640625 C-87.0221875 73.6640625 -84.0521875 73.6640625 -80.9921875 73.6640625 C-80.9921875 81.9140625 -80.9921875 90.1640625 -80.9921875 98.6640625 C-83.9621875 99.1590625 -83.9621875 99.1590625 -86.9921875 99.6640625 C-89.75253522 100.98150119 -91.507805 101.99515333 -93.3046875 104.4765625 C-94.24588536 107.47128295 -94.43883108 109.53755742 -93.9921875 112.6640625 C-92.09832837 115.64197891 -92.09832837 115.64197891 -88.9921875 117.6640625 C-86.3521875 117.9940625 -83.7121875 118.3240625 -80.9921875 118.6640625 C-80.9921875 124.9340625 -80.9921875 131.2040625 -80.9921875 137.6640625 C-83.9621875 138.6540625 -86.9321875 139.6440625 -89.9921875 140.6640625 C-92.62356956 142.29131196 -92.62356956 142.29131196 -93.9921875 144.6640625 C-94.64627892 148.50684959 -94.34304889 150.11270889 -92.2421875 153.4140625 C-89.30233759 156.35391241 -87.55803668 157.63846913 -83.36328125 157.70703125 C-82.58082031 157.69285156 -81.79835938 157.67867187 -80.9921875 157.6640625 C-81.00378906 158.28152344 -81.01539063 158.89898437 -81.02734375 159.53515625 C-81.08918413 165.33931794 -80.73497706 170.90744338 -79.9921875 176.6640625 C-81.0440625 176.7465625 -82.0959375 176.8290625 -83.1796875 176.9140625 C-87.98540207 177.85944897 -90.37247908 179.60261542 -93.3671875 183.4140625 C-94.36837196 187.01832657 -94.26002969 190.18750575 -92.9921875 193.6640625 C-89.79437204 197.55669127 -86.88039611 199.44201035 -81.9921875 200.6640625 C-81.6621875 205.6140625 -81.3321875 210.5640625 -80.9921875 215.6640625 C-83.9621875 216.6540625 -83.9621875 216.6540625 -86.9921875 217.6640625 C-90.49035357 219.86162836 -93.90751966 222.56642843 -94.9921875 226.6640625 C-94.9921875 232.32968664 -93.22617627 235.16091403 -89.5625 239.18359375 C-86.51915429 242.05281769 -85.26759573 242.6640625 -80.9921875 242.6640625 C-81.63579473 246.7048464 -82.29336366 250.74309006 -82.96362305 254.77954102 C-83.18942388 256.15131746 -83.41148413 257.52371532 -83.62963867 258.89672852 C-83.94492427 260.87677952 -84.27504982 262.85444931 -84.60546875 264.83203125 C-84.79923096 266.02078857 -84.99299316 267.2095459 -85.19262695 268.43432617 C-86.4591046 273.55012245 -88.90546851 276.83765373 -92.6796875 280.4140625 C-93.79983201 281.4808668 -94.90882563 282.55992383 -95.9921875 283.6640625 C-95.9921875 283.9940625 -95.9921875 284.3240625 -95.9921875 284.6640625 C-55.7321875 284.6640625 -15.4721875 284.6640625 26.0078125 284.6640625 C24.0278125 282.0240625 22.0478125 279.3840625 20.0078125 276.6640625 C19.0078125 273.6640625 19.0078125 273.6640625 19.78515625 271.61328125 C20.16800781 270.86691406 20.55085938 270.12054688 20.9453125 269.3515625 C22.68510697 265.60431287 23.88365363 262.84863677 23.0078125 258.6640625 C20.35051733 256.00676733 17.50064832 254.06119683 14.0078125 252.6640625 C13.0178125 252.6640625 12.0278125 252.6640625 11.0078125 252.6640625 C11.0078125 242.1040625 11.0078125 231.5440625 11.0078125 220.6640625 C12.9878125 220.6640625 14.9678125 220.6640625 17.0078125 220.6640625 C20.7366703 218.88008738 23.4169757 216.32471543 24.8125 212.40234375 C25.44535168 208.49545328 25.57041826 206.46778501 23.2578125 203.1640625 C19.17774846 200.44401981 15.79569534 200.57372509 11.0078125 200.6640625 C10.94307355 197.12050409 10.96759284 193.58286169 11.0078125 190.0390625 C10.98847656 189.04003906 10.96914062 188.04101562 10.94921875 187.01171875 C11.09559844 179.64394078 11.09559844 179.64394078 13.78515625 176.75488281 C15.9453125 175.203125 15.9453125 175.203125 18.09765625 173.96728516 C20.36497133 172.42038742 21.0678374 171.22008116 22.0078125 168.6640625 C22.16592638 165.61135787 22.16592638 165.61135787 21.0078125 162.6640625 C18.053998 160.28816823 15.59811139 158.8608288 12.0078125 157.6640625 C11.6778125 151.3940625 11.3478125 145.1240625 11.0078125 138.6640625 C12.9878125 138.3340625 14.9678125 138.0040625 17.0078125 137.6640625 C20.0744131 135.10086491 20.0744131 135.10086491 22.0078125 131.6640625 C22.1733988 127.60719826 21.34384113 126.0864985 18.8203125 122.9140625 C15.88941397 120.56934368 13.55851599 119.74449786 10.0078125 118.6640625 C9.73485538 101.43364415 9.73485538 101.43364415 12.75 97.2421875 C14.7780137 95.86046388 16.8188716 94.76511293 19.0078125 93.6640625 C21.22520243 90.90912349 22.0332975 89.68346251 21.9453125 86.1640625 C20.02813984 81.05160208 16.83630877 78.07831064 12.0078125 75.6640625 C11.3478125 75.6640625 10.6878125 75.6640625 10.0078125 75.6640625 C10.0078125 69.7240625 10.0078125 63.7840625 10.0078125 57.6640625 C11.6578125 57.3340625 13.3078125 57.0040625 15.0078125 56.6640625 C19.16433904 54.83924597 21.29306895 52.51793474 23.33984375 48.56640625 C24.50600134 45.24524399 24.06431807 42.95787397 23.0078125 39.6640625 C20.19298086 36.42274122 17.8354375 35.45727039 13.6953125 34.9140625 C12.4784375 34.8315625 11.2615625 34.7490625 10.0078125 34.6640625 C9.89566406 33.55611328 9.89566406 33.55611328 9.78125 32.42578125 C8.45295869 22.1771022 4.46197862 11.81654806 -3.8515625 5.1796875 C-23.66305075 -9.01152039 -54.11644979 -8.15724898 -70.9921875 10.6640625 Z M-84.64644623 290.70716858 C-86.99356734 290.75631145 -89.33733506 290.83438834 -91.68310547 290.92675781 C-92.94460419 290.97133118 -94.20610291 291.01590454 -95.50582886 291.06182861 C-100.4032235 291.90780498 -104.10371685 293.9075374 -107.78125 297.328125 C-109.7079279 301.04474881 -110.47257364 304.96821692 -111.3671875 309.0390625 C-111.58141357 309.97387451 -111.79563965 310.90868652 -112.01635742 311.87182617 C-112.68528034 314.80035261 -113.34048751 317.7316596 -113.9921875 320.6640625 C-114.7602717 324.1021842 -115.53115141 327.53966332 -116.3046875 330.9765625 C-116.50376709 331.86432373 -116.70284668 332.75208496 -116.90795898 333.66674805 C-118.62488045 341.23839141 -120.5054528 348.76563994 -122.40896606 356.29190063 C-136.74215481 403.19494281 -136.74215481 403.19494281 -128.9921875 449.6640625 C-122.08021281 460.18880503 -113.80109889 468.34388437 -104.046875 476.1796875 C-100.64200533 478.94886539 -97.31420103 481.79661176 -93.9921875 484.6640625 C-88.95672512 489.00257979 -83.8729413 493.26758323 -78.69921875 497.44140625 C-76.79450046 499.00530915 -74.91913562 500.60531094 -73.06640625 502.23046875 C-62.3592225 511.54891271 -51.44546613 518.04305765 -36.9921875 517.7265625 C-10.81978578 515.26064028 31.20677306 503.90801281 50.2890625 484.75 C63.50179201 468.714551 66.16131438 446.79484209 65.0078125 426.6640625 C64.97059082 425.98037598 64.93336914 425.29668945 64.89501953 424.59228516 C63.48357379 402.06602477 57.62394079 380.20175866 51.21426392 358.66802979 C48.10239604 348.17105028 45.79085337 337.86786431 44.27075195 327.00512695 C42.53589719 314.74377066 40.21998972 298.96821706 30.0078125 290.6640625 C27.8894508 290.21996037 27.8894508 290.21996037 25.50949097 290.29656982 C24.12657867 290.28821609 24.12657867 290.28821609 22.71572876 290.2796936 C21.70593964 290.28890839 20.69615051 290.29812317 19.65576172 290.30761719 C18.59023071 290.30557281 17.52469971 290.30352844 16.42687988 290.30142212 C12.88858098 290.2984042 9.35074395 290.31693824 5.8125 290.3359375 C3.34644689 290.3389966 0.88039205 290.34087157 -1.58566284 290.34161377 C-6.76925215 290.34622497 -11.95268682 290.36067017 -17.13623047 290.3828125 C-23.73832008 290.41088845 -30.34028688 290.42200308 -36.9424305 290.4264946 C-43.27413575 290.43169218 -49.60581106 290.44621918 -55.9375 290.4609375 C-57.12781956 290.46281822 -58.31813911 290.46469894 -59.54452896 290.46663666 C-67.91340268 290.48369389 -76.27876613 290.57127456 -84.64644623 290.70716858 Z " fill="#11110E" transform="translate(140.9921875,10.3359375)"/>
</svg>
