<?xml version="1.0" encoding="UTF-8"?>
<svg version="1.1" xmlns="http://www.w3.org/2000/svg" width="214" height="530">
<path d="M0 0 C6.59594143 6.21069175 10.88825902 13.64794853 12.75 22.5 C13.49212295 26.17852479 13.49212295 26.17852479 16.08984375 28.61328125 C18.17514823 29.33935143 18.17514823 29.33935143 20.30859375 29.8359375 C23.52587388 30.80174869 25.22493383 32.90711677 27.3125 35.4375 C29.04821036 40.64463108 29.4442203 45.8345433 27.21875 50.953125 C24.78768766 54.85834217 22.71738179 57.50308108 18.5 59.4375 C15.1620918 61.04280413 15.1620918 61.04280413 14.6484375 63.671875 C14.40106659 65.94768735 14.27828074 68.14969777 14.3125 70.4375 C15.01375 70.623125 15.715 70.80875 16.4375 71 C20.84378888 73.20314444 24.10750745 77.02751489 26.3125 81.4375 C26.86624136 85.97636362 26.77980004 89.48420792 24.75 93.625 C22.70345229 95.9864012 21.03516258 97.38692015 18.5625 99.1875 C16.33747336 101.02157836 15.43159053 102.04774917 14.58203125 104.828125 C14.35581934 107.67924869 14.43988371 109.70834802 15.3125 112.4375 C17.16640479 114.39770667 19.0603328 115.70879612 21.33203125 117.15625 C24.06160866 118.92213045 25.17800095 120.38853381 26.3125 123.4375 C27.28553357 129.95312983 26.1342117 134.12956709 22.3125 139.4375 C19.67091695 141.9189871 18.98076173 142.4375 15.3125 142.4375 C15.3125 145.7375 15.3125 149.0375 15.3125 152.4375 C16.6325 152.7675 17.9525 153.0975 19.3125 153.4375 C22.12472818 155.32768615 24.77780389 157.36810778 26.3125 160.4375 C26.84999296 165.33661617 26.87924874 169.2822045 24.6875 173.75 C22.3125 176.4375 22.3125 176.4375 19.125 178.5625 C16.68008916 180.41619814 16.33392359 181.33204067 15.70703125 184.41796875 C15.46306653 187.43393836 15.32214988 190.41226302 15.3125 193.4375 C16.6428125 193.5921875 16.6428125 193.5921875 18 193.75 C22.43286977 194.67002957 25.08363233 196.08150809 28.125 199.4375 C30.23139699 204.75892397 30.41424277 210.36690209 28.46875 215.7890625 C25.222194 221.646025 23.14804819 222.01972591 16.3125 225.4375 C16.3125 232.6975 16.3125 239.9575 16.3125 247.4375 C18.2925 248.0975 20.2725 248.7575 22.3125 249.4375 C25.96146263 252.19449399 27.14447274 253.79689607 28.3125 258.25 C28.60900321 262.17125497 27.58802926 265.06958551 25.90625 268.578125 C25.14721265 270.9551104 25.53131587 272.08564596 26.3125 274.4375 C28.07860162 276.65717507 29.85698012 278.77030826 31.75 280.875 C35.08133144 284.58169273 37.72720896 287.62952813 39.3125 292.4375 C39.76367188 293.49839844 40.21484375 294.55929687 40.6796875 295.65234375 C46.82304975 310.54583531 48.82336686 325.95647652 50.65625 341.87573242 C50.81241562 343.22966468 50.96866623 344.58358714 51.125 345.9375 C51.20218262 346.61068268 51.27936523 347.28386536 51.35888672 347.97744751 C52.85831164 360.83352139 55.56741266 373.18898738 58.7265625 385.73046875 C61.27747491 396.12238037 62.68825421 406.29720354 62.625 417 C62.61762817 418.49696411 62.61762817 418.49696411 62.61010742 420.02416992 C62.27742023 440.92886822 52.71230478 454.51293185 38.15625 468.7890625 C34.65194449 472.05268768 31.00451878 475.07396434 27.26171875 478.05859375 C23.88366273 480.7834098 20.59678887 483.60108894 17.3125 486.4375 C12.22748268 490.81728083 7.10369765 495.13826638 1.87890625 499.3515625 C0.19913909 500.7168527 -1.46090447 502.10686465 -3.09765625 503.5234375 C-13.60665115 512.44326732 -26.39459432 519.23381335 -40.52734375 518.671875 C-67.27544519 515.76973018 -94.11782689 492.56592076 -114.6875 476.4375 C-115.62207031 475.71433594 -116.55664062 474.99117188 -117.51953125 474.24609375 C-123.47720268 469.56964198 -129.18993847 464.64773253 -134.6875 459.4375 C-135.24179688 458.921875 -135.79609375 458.40625 -136.3671875 457.875 C-147.38186009 446.44355602 -152.21339724 429.07561696 -152.03955078 413.65136719 C-151.65522163 402.48196683 -149.24314921 391.8207263 -146.00390625 381.16015625 C-145.74330917 380.2975972 -145.4827121 379.43503815 -145.21421814 378.54634094 C-142.5620142 369.86681621 -139.63075046 361.28918128 -136.65112305 352.71762085 C-132.43330993 340.58255198 -128.27343669 328.4640022 -124.6875 316.125 C-119.08468515 296.96520453 -107.61170404 283.36170404 -93.6875 269.4375 C-93.05295079 266.67808419 -92.52177374 263.97594774 -92.0625 261.1875 C-91.9284375 260.43597656 -91.794375 259.68445313 -91.65625 258.91015625 C-90.56096777 252.70084562 -90.56096777 252.70084562 -90.6875 246.4375 C-92.28403993 244.40577442 -92.28403993 244.40577442 -94.5 242.875 C-99.41301212 238.88209263 -101.62166041 235.95375743 -102.625 229.625 C-102.98752223 224.32114212 -102.00213011 220.61875846 -98.6875 216.4375 C-92.1875 210.4375 -92.1875 210.4375 -88.6875 210.4375 C-88.7186941 207.57015479 -88.7186941 207.57015479 -89.6875 204.4375 C-92.46920896 202.36043518 -92.46920896 202.36043518 -95.6875 200.4375 C-98.63267413 197.56263506 -101.3032646 194.66408945 -101.6875 190.4375 C-101.790625 189.365 -101.89375 188.2925 -102 187.1875 C-101.55100053 181.79950641 -99.96364423 177.5791448 -95.96875 173.8203125 C-93.11170422 171.67752816 -91.31555916 170.4375 -87.6875 170.4375 C-87.6875 167.7975 -87.6875 165.1575 -87.6875 162.4375 C-89.0178125 162.06625 -89.0178125 162.06625 -90.375 161.6875 C-94.78836417 160.02207956 -97.50448151 157.86528094 -100.5 154.25 C-102.19602365 150.23310188 -102.34892568 146.73296562 -101.6875 142.4375 C-99.68598336 138.10088062 -97.59320364 136.29285471 -93.5 134.125 C-90.86683245 132.63987396 -89.88089873 132.04327803 -88.94921875 129.125 C-88.71292462 126.867862 -88.60848427 124.70426372 -88.6875 122.4375 C-89.574375 122.375625 -90.46125 122.31375 -91.375 122.25 C-95.50261055 121.23756722 -96.98733793 119.66269358 -99.6875 116.4375 C-102.2029061 112.17186377 -102.37032373 108.28470553 -101.6875 103.4375 C-99.45336758 99.0519808 -96.75862515 96.18550948 -92.6875 93.4375 C-90.7075 92.9425 -90.7075 92.9425 -88.6875 92.4375 C-88.6875 87.8175 -88.6875 83.1975 -88.6875 78.4375 C-89.739375 78.375625 -90.79125 78.31375 -91.875 78.25 C-96.3924319 77.28726861 -97.81007842 75.97261794 -100.6875 72.4375 C-103.21875701 68.14498373 -103.22214713 64.30872937 -102.6875 59.4375 C-100.8961051 54.26235918 -98.09612225 51.61170802 -93.6875 48.4375 C-92.03437933 47.7379185 -90.36943094 47.06466069 -88.6875 46.4375 C-88.64786133 45.86418945 -88.60822266 45.29087891 -88.56738281 44.70019531 C-87.33662293 27.74834792 -85.85252315 12.38076136 -72.3671875 0.37109375 C-51.43009137 -15.2139151 -20.70023601 -16.82548695 0 0 Z " fill="#C1BFBE" transform="translate(151.6875,11.5625)"/>
<path d="M0 0 C6.62147406 -0.03600174 13.24167643 -0.09005971 19.86252117 -0.18544579 C26.31658044 -0.27807016 32.769581 -0.32687603 39.22426701 -0.34439278 C41.67281364 -0.35848216 44.12132285 -0.38811026 46.56948566 -0.43369484 C49.98013472 -0.49423187 53.38650583 -0.49844536 56.79757977 -0.48915672 C57.80279171 -0.51994316 58.80800365 -0.5507296 59.84367657 -0.58244896 C66.52299384 -0.48338272 66.52299384 -0.48338272 69.49190617 2.49868584 C80.11140148 18.06753028 81.14535169 39.36892269 83.44089031 57.51328468 C85.29400979 71.99860128 87.77998324 86.10558582 91.17648602 100.29697609 C95.72239854 119.33541314 97.69826342 139.01012679 87.86276531 156.73594093 C79.16282696 170.17539794 66.23179505 180.86925803 53.64132977 190.54429054 C49.95170828 193.39426524 46.46849468 196.37079076 43.05026531 199.54844093 C29.97302396 211.60792341 15.74762923 223.95117781 -3.01223469 223.67344093 C-11.34911113 222.74595025 -18.30012581 218.65383611 -25.44973469 214.54844093 C-26.17499348 214.13239601 -26.90025227 213.71635109 -27.64748859 213.28769875 C-48.71402528 201.05313328 -68.998076 186.46337404 -87.44973469 170.54844093 C-88.16516438 169.9412925 -88.88059406 169.33414406 -89.61770344 168.70859718 C-100.50898409 158.74423403 -106.56237847 144.45676142 -107.64504719 129.92734718 C-108.31270664 112.45692492 -102.47521604 95.45209869 -96.94973469 79.11094093 C-96.32946954 77.25063841 -95.71034969 75.38995368 -95.09231281 73.52890968 C-94.14628415 70.68063654 -93.1994264 67.83267489 -92.24795246 64.98621559 C-90.13216703 58.64834009 -88.08261556 52.29234951 -86.07473469 45.91953468 C-85.54169625 44.23710945 -85.00849642 42.55473534 -84.47512531 40.87241554 C-83.72150855 38.49484496 -82.97088773 36.11661022 -82.23171711 33.73450661 C-79.46339629 24.82521457 -76.39758652 16.53110346 -71.44973469 8.54844093 C-71.03699299 7.82962746 -70.62425129 7.11081398 -70.19900227 6.37021828 C-68.42939157 3.97244841 -67.10491045 2.94788008 -64.44973469 1.54844093 C-61.68218633 1.18078871 -59.10448797 0.97384473 -56.32790852 0.89463234 C-55.08673252 0.84500564 -55.08673252 0.84500564 -53.82048225 0.79437637 C-35.89178893 0.13651444 -17.9383738 0.09691864 0 0 Z " fill="#FFFFFF" transform="translate(113.44973468780518,300.45155906677246)"/>
<path d="M0 0 C6.59594143 6.21069175 10.88825902 13.64794853 12.75 22.5 C13.49212295 26.17852479 13.49212295 26.17852479 16.08984375 28.61328125 C18.17514823 29.33935143 18.17514823 29.33935143 20.30859375 29.8359375 C23.52587388 30.80174869 25.22493383 32.90711677 27.3125 35.4375 C29.04821036 40.64463108 29.4442203 45.8345433 27.21875 50.953125 C24.78768766 54.85834217 22.71738179 57.50308108 18.5 59.4375 C15.1620918 61.04280413 15.1620918 61.04280413 14.6484375 63.671875 C14.40106659 65.94768735 14.27828074 68.14969777 14.3125 70.4375 C15.01375 70.623125 15.715 70.80875 16.4375 71 C20.84378888 73.20314444 24.10750745 77.02751489 26.3125 81.4375 C26.86624136 85.97636362 26.77980004 89.48420792 24.75 93.625 C22.70345229 95.9864012 21.03516258 97.38692015 18.5625 99.1875 C16.33747336 101.02157836 15.43159053 102.04774917 14.58203125 104.828125 C14.35581934 107.67924869 14.43988371 109.70834802 15.3125 112.4375 C17.16640479 114.39770667 19.0603328 115.70879612 21.33203125 117.15625 C24.06160866 118.92213045 25.17800095 120.38853381 26.3125 123.4375 C27.28553357 129.95312983 26.1342117 134.12956709 22.3125 139.4375 C19.67091695 141.9189871 18.98076173 142.4375 15.3125 142.4375 C15.3125 145.7375 15.3125 149.0375 15.3125 152.4375 C16.6325 152.7675 17.9525 153.0975 19.3125 153.4375 C22.12472818 155.32768615 24.77780389 157.36810778 26.3125 160.4375 C26.84999296 165.33661617 26.87924874 169.2822045 24.6875 173.75 C22.3125 176.4375 22.3125 176.4375 19.125 178.5625 C16.68008916 180.41619814 16.33392359 181.33204067 15.70703125 184.41796875 C15.46306653 187.43393836 15.32214988 190.41226302 15.3125 193.4375 C16.6428125 193.5921875 16.6428125 193.5921875 18 193.75 C22.43286977 194.67002957 25.08363233 196.08150809 28.125 199.4375 C30.23139699 204.75892397 30.41424277 210.36690209 28.46875 215.7890625 C25.222194 221.646025 23.14804819 222.01972591 16.3125 225.4375 C16.3125 232.6975 16.3125 239.9575 16.3125 247.4375 C18.2925 248.0975 20.2725 248.7575 22.3125 249.4375 C25.96146263 252.19449399 27.14447274 253.79689607 28.3125 258.25 C28.60900321 262.17125497 27.58802926 265.06958551 25.90625 268.578125 C25.14721265 270.9551104 25.53131587 272.08564596 26.3125 274.4375 C28.07860162 276.65717507 29.85698012 278.77030826 31.75 280.875 C35.08133144 284.58169273 37.72720896 287.62952813 39.3125 292.4375 C39.76367188 293.49839844 40.21484375 294.55929687 40.6796875 295.65234375 C46.82304975 310.54583531 48.82336686 325.95647652 50.65625 341.87573242 C50.81241562 343.22966468 50.96866623 344.58358714 51.125 345.9375 C51.20218262 346.61068268 51.27936523 347.28386536 51.35888672 347.97744751 C52.85831164 360.83352139 55.56741266 373.18898738 58.7265625 385.73046875 C61.27747491 396.12238037 62.68825421 406.29720354 62.625 417 C62.61762817 418.49696411 62.61762817 418.49696411 62.61010742 420.02416992 C62.27742023 440.92886822 52.71230478 454.51293185 38.15625 468.7890625 C34.65194449 472.05268768 31.00451878 475.07396434 27.26171875 478.05859375 C23.88366273 480.7834098 20.59678887 483.60108894 17.3125 486.4375 C12.22748268 490.81728083 7.10369765 495.13826638 1.87890625 499.3515625 C0.19913909 500.7168527 -1.46090447 502.10686465 -3.09765625 503.5234375 C-13.60665115 512.44326732 -26.39459432 519.23381335 -40.52734375 518.671875 C-67.27544519 515.76973018 -94.11782689 492.56592076 -114.6875 476.4375 C-115.62207031 475.71433594 -116.55664062 474.99117188 -117.51953125 474.24609375 C-123.47720268 469.56964198 -129.18993847 464.64773253 -134.6875 459.4375 C-135.24179688 458.921875 -135.79609375 458.40625 -136.3671875 457.875 C-147.38186009 446.44355602 -152.21339724 429.07561696 -152.03955078 413.65136719 C-151.65522163 402.48196683 -149.24314921 391.8207263 -146.00390625 381.16015625 C-145.74330917 380.2975972 -145.4827121 379.43503815 -145.21421814 378.54634094 C-142.5620142 369.86681621 -139.63075046 361.28918128 -136.65112305 352.71762085 C-132.43330993 340.58255198 -128.27343669 328.4640022 -124.6875 316.125 C-119.08468515 296.96520453 -107.61170404 283.36170404 -93.6875 269.4375 C-93.05295079 266.67808419 -92.52177374 263.97594774 -92.0625 261.1875 C-91.9284375 260.43597656 -91.794375 259.68445313 -91.65625 258.91015625 C-90.56096777 252.70084562 -90.56096777 252.70084562 -90.6875 246.4375 C-92.28403993 244.40577442 -92.28403993 244.40577442 -94.5 242.875 C-99.41301212 238.88209263 -101.62166041 235.95375743 -102.625 229.625 C-102.98752223 224.32114212 -102.00213011 220.61875846 -98.6875 216.4375 C-92.1875 210.4375 -92.1875 210.4375 -88.6875 210.4375 C-88.7186941 207.57015479 -88.7186941 207.57015479 -89.6875 204.4375 C-92.46920896 202.36043518 -92.46920896 202.36043518 -95.6875 200.4375 C-98.63267413 197.56263506 -101.3032646 194.66408945 -101.6875 190.4375 C-101.790625 189.365 -101.89375 188.2925 -102 187.1875 C-101.55100053 181.79950641 -99.96364423 177.5791448 -95.96875 173.8203125 C-93.11170422 171.67752816 -91.31555916 170.4375 -87.6875 170.4375 C-87.6875 167.7975 -87.6875 165.1575 -87.6875 162.4375 C-89.0178125 162.06625 -89.0178125 162.06625 -90.375 161.6875 C-94.78836417 160.02207956 -97.50448151 157.86528094 -100.5 154.25 C-102.19602365 150.23310188 -102.34892568 146.73296562 -101.6875 142.4375 C-99.68598336 138.10088062 -97.59320364 136.29285471 -93.5 134.125 C-90.86683245 132.63987396 -89.88089873 132.04327803 -88.94921875 129.125 C-88.71292462 126.867862 -88.60848427 124.70426372 -88.6875 122.4375 C-89.574375 122.375625 -90.46125 122.31375 -91.375 122.25 C-95.50261055 121.23756722 -96.98733793 119.66269358 -99.6875 116.4375 C-102.2029061 112.17186377 -102.37032373 108.28470553 -101.6875 103.4375 C-99.45336758 99.0519808 -96.75862515 96.18550948 -92.6875 93.4375 C-90.7075 92.9425 -90.7075 92.9425 -88.6875 92.4375 C-88.6875 87.8175 -88.6875 83.1975 -88.6875 78.4375 C-89.739375 78.375625 -90.79125 78.31375 -91.875 78.25 C-96.3924319 77.28726861 -97.81007842 75.97261794 -100.6875 72.4375 C-103.21875701 68.14498373 -103.22214713 64.30872937 -102.6875 59.4375 C-100.8961051 54.26235918 -98.09612225 51.61170802 -93.6875 48.4375 C-92.03437933 47.7379185 -90.36943094 47.06466069 -88.6875 46.4375 C-88.64786133 45.86418945 -88.60822266 45.29087891 -88.56738281 44.70019531 C-87.33662293 27.74834792 -85.85252315 12.38076136 -72.3671875 0.37109375 C-51.43009137 -15.2139151 -20.70023601 -16.82548695 0 0 Z M-66.6875 4.4375 C-67.595 5.035625 -68.5025 5.63375 -69.4375 6.25 C-82.00742726 18.47076262 -82.32927956 35.95935966 -82.6875 52.4375 C-83.77289063 52.56125 -84.85828125 52.685 -85.9765625 52.8125 C-90.69368607 53.60696292 -92.54258183 54.8433078 -95.6875 58.4375 C-96.79188247 61.53201332 -97.11785845 64.17738733 -96.6875 67.4375 C-95.00116812 70.70727606 -95.00116812 70.70727606 -91.6875 72.4375 C-88.7175 72.4375 -85.7475 72.4375 -82.6875 72.4375 C-82.6875 80.6875 -82.6875 88.9375 -82.6875 97.4375 C-85.6575 97.9325 -85.6575 97.9325 -88.6875 98.4375 C-92.68142425 100.99964009 -94.39283152 102.38774353 -95.6875 107 C-95.75053943 111.12038449 -95.75053943 111.12038449 -93.6875 114.4375 C-89.54434971 117.01546018 -87.71139824 117.4375 -82.6875 117.4375 C-82.6875 123.7075 -82.6875 129.9775 -82.6875 136.4375 C-86.1525 137.4275 -86.1525 137.4275 -89.6875 138.4375 C-93.39886331 140.6159089 -94.4641248 141.75496466 -95.8125 145.875 C-96.03759098 149.57349754 -96.03759098 149.57349754 -93.4375 152.25 C-89.53985534 155.35039916 -87.72181674 156.43063665 -82.6875 157.4375 C-82.3575 163.3775 -82.0275 169.3175 -81.6875 175.4375 C-83.9975 175.7675 -86.3075 176.0975 -88.6875 176.4375 C-92.56080118 178.84755407 -94.62187742 180.96188514 -95.6875 185.4375 C-95.57216858 190.85807691 -93.51250494 193.69749517 -89.6875 197.4375 C-87.7075 198.0975 -85.7275 198.7575 -83.6875 199.4375 C-83.3575 204.3875 -83.0275 209.3375 -82.6875 214.4375 C-85.6575 215.4275 -85.6575 215.4275 -88.6875 216.4375 C-92.84631081 219.14556286 -95.00022994 221.75063873 -96.6875 226.4375 C-96.7972169 231.59419427 -94.54417313 234.25568374 -91.2578125 237.921875 C-88.23997489 240.83461378 -86.96808773 241.4375 -82.6875 241.4375 C-83.23471671 245.56946617 -83.82000621 249.69378654 -84.43920898 253.81542969 C-84.64409165 255.21436145 -84.83899652 256.61479612 -85.02319336 258.01660156 C-86.06199511 265.86781481 -87.02243248 272.24055813 -93.06420898 277.84179688 C-95.04938161 279.62068588 -95.04938161 279.62068588 -96.6875 283.4375 C-56.7575 283.4375 -16.8275 283.4375 24.3125 283.4375 C22.06383687 279.68972812 19.75384476 276.05742499 17.3125 272.4375 C17.58964844 271.91800781 17.86679688 271.39851563 18.15234375 270.86328125 C21.18009194 265.41939143 21.18009194 265.41939143 22.3125 259.4375 C19.77489123 255.17431727 16.84760944 253.31069738 12.3125 251.4375 C11.6525 251.4375 10.9925 251.4375 10.3125 251.4375 C10.32410156 250.38433594 10.33570313 249.33117187 10.34765625 248.24609375 C10.41970641 238.5902468 10.09712809 229.06320532 9.3125 219.4375 C10.24707031 219.46199219 11.18164062 219.48648438 12.14453125 219.51171875 C15.87846515 219.42424064 17.39263447 218.72604325 20.3125 216.4375 C22.69359359 213.48165968 23.28431553 211.66700211 23.75 207.875 C23.60001069 204.40266511 23.60001069 204.40266511 21.5 202.0625 C17.22711604 198.88835763 15.01631321 199.4375 9.3125 199.4375 C9.3125 192.1775 9.3125 184.9175 9.3125 177.4375 C10.6325 176.7775 11.9525 176.1175 13.3125 175.4375 C16.3093237 173.2255587 18.23317404 171.55648894 20.3125 168.4375 C20.89595476 165.48003508 20.89595476 165.48003508 20.3125 162.4375 C17.15146999 159.18615484 14.61709915 158.15933966 10.3125 156.4375 C9.9825 150.1675 9.6525 143.8975 9.3125 137.4375 C11.2925 137.1075 13.2725 136.7775 15.3125 136.4375 C18.49471864 134.20134636 19.21902264 132.75882843 20.3125 129 C20.60581809 125.42659063 20.60581809 125.42659063 18.75 122.6875 C16.11187103 120.25230403 13.549751 118.94821713 10.3125 117.4375 C8.68182999 114.17615998 8.96124598 110.64319513 8.875 107.0625 C8.82923828 106.29421875 8.78347656 105.5259375 8.73632812 104.734375 C8.69161224 102.4869156 8.734632 100.61205652 9.3125 98.4375 C12.15625 96.07421875 12.15625 96.07421875 15.3125 94.4375 C17.59231974 92.50043221 18.62737762 91.04178005 20.3125 88.4375 C20.58037845 84.68720168 20.30342719 82.58543124 17.80859375 79.6953125 C14.58267238 76.7829256 12.63230559 75.5174514 8.3125 74.4375 C8.3125 68.4975 8.3125 62.5575 8.3125 56.4375 C9.9625 56.1075 11.6125 55.7775 13.3125 55.4375 C17.57856549 53.04850333 20.3648926 50.98191727 22.3125 46.4375 C22.84297478 42.79995866 22.58347641 40.97945283 20.9375 37.6875 C17.14227657 34.43445134 13.17531713 34.05927242 8.3125 33.4375 C8.23 32.15875 8.1475 30.88 8.0625 29.5625 C6.87210881 19.29939755 2.14377637 10.38691983 -5.75390625 3.68359375 C-24.17991795 -9.46842534 -48.43527325 -8.52371161 -66.6875 4.4375 Z M-94.53881836 289.75146484 C-95.30344926 289.77079889 -96.06808016 289.79013294 -96.85588169 289.81005287 C-101.3406062 290.02208763 -104.13428326 290.67049479 -107.5 293.6875 C-114.52117944 302.73544839 -117.97528135 314.59122392 -121.4375 325.34765625 C-121.86233373 326.64900185 -122.28780493 327.95013948 -122.71386719 329.25108337 C-123.59920588 331.95971743 -124.47946435 334.66992479 -125.35546875 337.3815918 C-126.45771528 340.79346128 -127.56878523 344.20236799 -128.6831646 347.61029148 C-132.62131607 359.65612597 -136.52953096 371.71171388 -140.1953125 383.84375 C-140.42742432 384.60812881 -140.65953613 385.37250763 -140.89868164 386.16004944 C-146.78802173 405.94528301 -148.11340604 424.56068552 -138.6875 443.4375 C-130.61634521 457.18462897 -118.26940415 466.1358395 -105.6875 475.4375 C-104.96884766 475.9742334 -104.25019531 476.5109668 -103.50976562 477.06396484 C-71.29126644 503.13597119 -71.29126644 503.13597119 -32.7890625 512.0234375 C-16.77076174 508.99731015 -5.07870441 496.90389384 6.75390625 486.53125 C9.74512079 483.91622384 12.78819349 481.37708105 15.875 478.875 C42.84122254 457.8548879 42.84122254 457.8548879 56.3125 427.4375 C57.25341526 412.47879228 55.5390234 398.36389799 51.953125 383.8671875 C48.30050905 369.02903438 45.89486906 354.37902149 44.13720703 339.21191406 C43.20349883 331.29881771 42.04300756 323.52236296 40.3203125 315.73828125 C40.15977386 315.0124585 39.99923523 314.28663574 39.83383179 313.53881836 C36.81227467 300.29165554 36.81227467 300.29165554 29.3125 289.4375 C25.81242089 288.68689115 22.35392672 288.79620196 18.78686523 288.85400391 C17.71464722 288.85166748 16.6424292 288.84933105 15.53771973 288.84692383 C11.98168705 288.84530538 8.42694355 288.87941698 4.87109375 288.9140625 C2.38884447 288.92085641 -0.09341127 288.9255759 -2.57566833 288.92831421 C-8.46049807 288.94037982 -14.34485534 288.97539788 -20.22951406 289.02086294 C-26.1976923 289.0655298 -32.16581031 289.08281462 -38.13414097 289.09630775 C-44.50742917 289.11123717 -50.88066222 289.1363486 -57.25390625 289.1640625 C-58.44845491 289.16897327 -59.64300358 289.17388405 -60.87375069 289.17894363 C-72.09680917 289.23294562 -83.32293671 289.32085964 -94.53881836 289.75146484 Z " fill="#11110E" transform="translate(151.6875,11.5625)"/>
</svg>
