<?xml version="1.0" encoding="UTF-8"?>
<svg version="1.1" xmlns="http://www.w3.org/2000/svg" width="274" height="568">
<path d="M0 0 C11.04888827 9.59603121 14.30235578 22.96319737 15.40625 37.08984375 C15.5180888 39.78554442 15.51634125 42.39260817 15.40625 45.08984375 C16.251875 45.15171875 17.0975 45.21359375 17.96875 45.27734375 C23.24183202 46.52370859 26.72665907 49.24771176 30.34375 53.21484375 C32.05731053 57.85153695 32.27598539 62.22628347 31.40625 67.08984375 C29.07663756 71.33441268 25.94120282 74.33464905 21.40625 76.08984375 C18.65625 76.21484375 18.65625 76.21484375 16.40625 76.08984375 C16.41785156 76.7653125 16.42945313 77.44078125 16.44140625 78.13671875 C16.45042969 79.02875 16.45945313 79.92078125 16.46875 80.83984375 C16.48035156 81.7215625 16.49195313 82.60328125 16.50390625 83.51171875 C16.41451198 85.87172755 16.07537821 87.83482899 15.40625 90.08984375 C16.251875 90.13109375 17.0975 90.17234375 17.96875 90.21484375 C23.02576441 91.50208378 26.84507124 94.54129697 29.5859375 99.015625 C31.0353354 102.68053113 30.94451704 106.22104943 30.40625 110.08984375 C28.02185029 114.95035085 25.09383582 117.45307673 20.40625 120.08984375 C18.03125 120.83984375 18.03125 120.83984375 16.40625 121.08984375 C16.07625 123.72984375 15.74625 126.36984375 15.40625 129.08984375 C16.6746875 129.43015625 16.6746875 129.43015625 17.96875 129.77734375 C23.22287263 131.7834633 27.27037909 134.38603738 30.40625 139.08984375 C31.29112411 143.49855279 31.34877878 147.47097588 29.05078125 151.41796875 C25.6972628 155.41554041 22.36646022 158.24418413 17.40625 160.08984375 C16.74625 160.08984375 16.08625 160.08984375 15.40625 160.08984375 C15.40625 162.72984375 15.40625 165.36984375 15.40625 168.08984375 C16.14488281 168.1878125 16.88351563 168.28578125 17.64453125 168.38671875 C22.94111161 169.73521163 27.13556997 173.9720437 29.90625 178.58984375 C31.09602701 184.5387288 30.63066215 188.9345836 27.75 194.22265625 C25.43476519 197.43975579 22.82679614 199.09970781 19.40625 201.08984375 C18.41625 201.08984375 17.42625 201.08984375 16.40625 201.08984375 C16.40625 203.39984375 16.40625 205.70984375 16.40625 208.08984375 C17.06625 208.27546875 17.72625 208.46109375 18.40625 208.65234375 C23.49012573 211.08836754 27.98827426 214.72655085 30.90625 219.58984375 C32.12022031 225.65969529 31.63445767 229.78635972 28.40625 235.08984375 C25.61255974 239.13587791 22.64681485 241.60081656 18.40625 244.08984375 C17.74625 244.08984375 17.08625 244.08984375 16.40625 244.08984375 C16.59960938 244.91226562 16.79296875 245.7346875 16.9921875 246.58203125 C17.25257813 247.69835937 17.51296875 248.8146875 17.78125 249.96484375 C18.03648437 251.05539062 18.29171875 252.1459375 18.5546875 253.26953125 C19.40625 257.08984375 19.40625 257.08984375 19.64208984 259.44580078 C20.61963844 267.36287018 24.49360044 271.02497959 30.28125 276.21484375 C31.91294631 277.70734322 33.53559912 279.20979807 35.1484375 280.72265625 C36.22907471 281.69549561 36.22907471 281.69549561 37.33154297 282.68798828 C43.55478803 289.89254052 45.08654006 298.94734659 47.171875 307.96484375 C47.52527029 309.46046264 47.87945281 310.95589571 48.23435974 312.45115662 C49.18910429 316.48665791 50.13056358 320.52514731 51.06875229 324.5645256 C51.6585176 327.09959088 52.25181624 329.63380279 52.84634399 332.16775513 C93.11540126 503.81357573 93.11540126 503.81357573 77.40625 530.08984375 C68.69969291 542.77654122 53.5962193 547.85896184 39.15299988 550.73913574 C22.40068226 553.82998892 5.53064257 554.46691953 -11.46875 554.40234375 C-12.45121704 554.40085327 -13.43368408 554.39936279 -14.44592285 554.39782715 C-65.96902607 554.25900671 -130.80460447 552.59034764 -170.78125 515.46484375 C-184.9796138 500.72472997 -189.10469015 481.91218837 -188.80078125 462.046875 C-187.368283 417.37577928 -164.78467604 373.12360287 -145.82702637 333.46884155 C-141.56598528 324.55232553 -137.73640166 315.58264231 -134.21875 306.33984375 C-130.48366739 296.63713679 -126.39516508 289.21623437 -119.18164062 281.59863281 C-113.13160328 275.94465495 -113.13160328 275.94465495 -110.6328125 268.65234375 C-111.42806827 266.38232639 -111.42806827 266.38232639 -112.55859375 264.25 C-114.30087895 260.61421239 -114.26013404 257.01921169 -113.59375 253.08984375 C-110.66453378 247.59756335 -107.65827945 247.12210847 -101.59375 244.08984375 C-101.59375 237.15984375 -101.59375 230.22984375 -101.59375 223.08984375 C-104.23375 221.76984375 -106.87375 220.44984375 -109.59375 219.08984375 C-114.55951431 213.91277032 -115.91780348 210.28394337 -115.8046875 203.3046875 C-115.5052856 200.16096759 -114.6454934 198.48354438 -112.59375 196.08984375 C-108.35542555 192.62212375 -105.02919554 191.52467939 -99.59375 191.08984375 C-99.17937575 183.60944163 -99.17937575 183.60944163 -102.30078125 177.203125 C-103.70720763 176.25072123 -105.13367671 175.32728118 -106.578125 174.43359375 C-110.04286524 172.12376692 -111.07699758 169.98064345 -112.59375 166.08984375 C-112.9716773 162.81447383 -112.76314933 160.18200544 -111.59375 157.08984375 C-109.04733714 153.97314051 -106.15294557 151.71184842 -102.41015625 150.21875 C-100.37211496 149.23514781 -100.37211496 149.23514781 -99.984375 146.92578125 C-99.93796875 146.11367187 -99.8915625 145.3015625 -99.84375 144.46484375 C-99.75867188 143.23894531 -99.75867188 143.23894531 -99.671875 141.98828125 C-99.64609375 141.36179688 -99.6203125 140.7353125 -99.59375 140.08984375 C-100.315625 140.00734375 -101.0375 139.92484375 -101.78125 139.83984375 C-105.75611356 138.77988013 -108.5288045 136.81617645 -110.70703125 133.28515625 C-112.44037194 128.99380177 -112.32179181 124.61136656 -111.59375 120.08984375 C-109.36103628 115.74760052 -106.67606689 113.55083057 -102.21875 111.65234375 C-101.3525 111.46671875 -100.48625 111.28109375 -99.59375 111.08984375 C-99.24685854 107.36397247 -99.07539915 103.80469152 -99.59375 100.08984375 C-102.18828773 97.69273327 -102.18828773 97.69273327 -105.59375 96.08984375 C-109.08715534 92.93373272 -111.28119281 90.11944389 -112.65625 85.58984375 C-112.56736652 80.61236859 -111.47144069 77.02067663 -107.9375 73.38671875 C-105.2712557 71.05940381 -102.5404534 69.05431268 -99.59375 67.08984375 C-99.01626197 65.12622511 -99.01626197 65.12622511 -98.90625 62.96484375 C-98.803125 61.68609375 -98.7 60.40734375 -98.59375 59.08984375 C-99.439375 58.88359375 -100.285 58.67734375 -101.15625 58.46484375 C-106.86741901 56.18037614 -110.50913422 53.01416207 -113.53125 47.65234375 C-115.08922625 42.42854102 -115.47820414 38.34898812 -113.03125 33.40234375 C-110.56544787 29.51127301 -107.75303207 27.98706013 -103.59375 26.08984375 C-101.93410406 25.7231501 -100.26799205 25.38276431 -98.59375 25.08984375 C-98.44679688 24.48398437 -98.29984375 23.878125 -98.1484375 23.25390625 C-96.32243257 16.43262346 -93.50775482 10.94511101 -89.59375 5.08984375 C-88.7275 3.75953125 -88.7275 3.75953125 -87.84375 2.40234375 C-65.39451823 -20.67047779 -24.27021295 -18.72572465 0 0 Z " fill="#FFFFFF" transform="translate(188.59375,13.91015625)"/>
<path d="M0 0 C11.04888827 9.59603121 14.30235578 22.96319737 15.40625 37.08984375 C15.5180888 39.78554442 15.51634125 42.39260817 15.40625 45.08984375 C16.251875 45.15171875 17.0975 45.21359375 17.96875 45.27734375 C23.24183202 46.52370859 26.72665907 49.24771176 30.34375 53.21484375 C32.05731053 57.85153695 32.27598539 62.22628347 31.40625 67.08984375 C29.07663756 71.33441268 25.94120282 74.33464905 21.40625 76.08984375 C18.65625 76.21484375 18.65625 76.21484375 16.40625 76.08984375 C16.41785156 76.7653125 16.42945313 77.44078125 16.44140625 78.13671875 C16.45042969 79.02875 16.45945313 79.92078125 16.46875 80.83984375 C16.48035156 81.7215625 16.49195313 82.60328125 16.50390625 83.51171875 C16.41451198 85.87172755 16.07537821 87.83482899 15.40625 90.08984375 C16.251875 90.13109375 17.0975 90.17234375 17.96875 90.21484375 C23.02576441 91.50208378 26.84507124 94.54129697 29.5859375 99.015625 C31.0353354 102.68053113 30.94451704 106.22104943 30.40625 110.08984375 C28.02185029 114.95035085 25.09383582 117.45307673 20.40625 120.08984375 C18.03125 120.83984375 18.03125 120.83984375 16.40625 121.08984375 C16.07625 123.72984375 15.74625 126.36984375 15.40625 129.08984375 C16.6746875 129.43015625 16.6746875 129.43015625 17.96875 129.77734375 C23.22287263 131.7834633 27.27037909 134.38603738 30.40625 139.08984375 C31.29112411 143.49855279 31.34877878 147.47097588 29.05078125 151.41796875 C25.6972628 155.41554041 22.36646022 158.24418413 17.40625 160.08984375 C16.74625 160.08984375 16.08625 160.08984375 15.40625 160.08984375 C15.40625 162.72984375 15.40625 165.36984375 15.40625 168.08984375 C16.14488281 168.1878125 16.88351563 168.28578125 17.64453125 168.38671875 C22.94111161 169.73521163 27.13556997 173.9720437 29.90625 178.58984375 C31.09602701 184.5387288 30.63066215 188.9345836 27.75 194.22265625 C25.43476519 197.43975579 22.82679614 199.09970781 19.40625 201.08984375 C18.41625 201.08984375 17.42625 201.08984375 16.40625 201.08984375 C16.40625 203.39984375 16.40625 205.70984375 16.40625 208.08984375 C17.06625 208.27546875 17.72625 208.46109375 18.40625 208.65234375 C23.49012573 211.08836754 27.98827426 214.72655085 30.90625 219.58984375 C32.12022031 225.65969529 31.63445767 229.78635972 28.40625 235.08984375 C25.61255974 239.13587791 22.64681485 241.60081656 18.40625 244.08984375 C17.74625 244.08984375 17.08625 244.08984375 16.40625 244.08984375 C16.59960938 244.91226562 16.79296875 245.7346875 16.9921875 246.58203125 C17.25257813 247.69835937 17.51296875 248.8146875 17.78125 249.96484375 C18.03648437 251.05539062 18.29171875 252.1459375 18.5546875 253.26953125 C19.40625 257.08984375 19.40625 257.08984375 19.64208984 259.44580078 C20.61963844 267.36287018 24.49360044 271.02497959 30.28125 276.21484375 C31.91294631 277.70734322 33.53559912 279.20979807 35.1484375 280.72265625 C36.22907471 281.69549561 36.22907471 281.69549561 37.33154297 282.68798828 C43.55478803 289.89254052 45.08654006 298.94734659 47.171875 307.96484375 C47.52527029 309.46046264 47.87945281 310.95589571 48.23435974 312.45115662 C49.18910429 316.48665791 50.13056358 320.52514731 51.06875229 324.5645256 C51.6585176 327.09959088 52.25181624 329.63380279 52.84634399 332.16775513 C93.11540126 503.81357573 93.11540126 503.81357573 77.40625 530.08984375 C68.69969291 542.77654122 53.5962193 547.85896184 39.15299988 550.73913574 C22.40068226 553.82998892 5.53064257 554.46691953 -11.46875 554.40234375 C-12.45121704 554.40085327 -13.43368408 554.39936279 -14.44592285 554.39782715 C-65.96902607 554.25900671 -130.80460447 552.59034764 -170.78125 515.46484375 C-184.9796138 500.72472997 -189.10469015 481.91218837 -188.80078125 462.046875 C-187.368283 417.37577928 -164.78467604 373.12360287 -145.82702637 333.46884155 C-141.56598528 324.55232553 -137.73640166 315.58264231 -134.21875 306.33984375 C-130.48366739 296.63713679 -126.39516508 289.21623437 -119.18164062 281.59863281 C-113.13160328 275.94465495 -113.13160328 275.94465495 -110.6328125 268.65234375 C-111.42806827 266.38232639 -111.42806827 266.38232639 -112.55859375 264.25 C-114.30087895 260.61421239 -114.26013404 257.01921169 -113.59375 253.08984375 C-110.66453378 247.59756335 -107.65827945 247.12210847 -101.59375 244.08984375 C-101.59375 237.15984375 -101.59375 230.22984375 -101.59375 223.08984375 C-104.23375 221.76984375 -106.87375 220.44984375 -109.59375 219.08984375 C-114.55951431 213.91277032 -115.91780348 210.28394337 -115.8046875 203.3046875 C-115.5052856 200.16096759 -114.6454934 198.48354438 -112.59375 196.08984375 C-108.35542555 192.62212375 -105.02919554 191.52467939 -99.59375 191.08984375 C-99.17937575 183.60944163 -99.17937575 183.60944163 -102.30078125 177.203125 C-103.70720763 176.25072123 -105.13367671 175.32728118 -106.578125 174.43359375 C-110.04286524 172.12376692 -111.07699758 169.98064345 -112.59375 166.08984375 C-112.9716773 162.81447383 -112.76314933 160.18200544 -111.59375 157.08984375 C-109.04733714 153.97314051 -106.15294557 151.71184842 -102.41015625 150.21875 C-100.37211496 149.23514781 -100.37211496 149.23514781 -99.984375 146.92578125 C-99.93796875 146.11367187 -99.8915625 145.3015625 -99.84375 144.46484375 C-99.75867188 143.23894531 -99.75867188 143.23894531 -99.671875 141.98828125 C-99.64609375 141.36179688 -99.6203125 140.7353125 -99.59375 140.08984375 C-100.315625 140.00734375 -101.0375 139.92484375 -101.78125 139.83984375 C-105.75611356 138.77988013 -108.5288045 136.81617645 -110.70703125 133.28515625 C-112.44037194 128.99380177 -112.32179181 124.61136656 -111.59375 120.08984375 C-109.36103628 115.74760052 -106.67606689 113.55083057 -102.21875 111.65234375 C-101.3525 111.46671875 -100.48625 111.28109375 -99.59375 111.08984375 C-99.24685854 107.36397247 -99.07539915 103.80469152 -99.59375 100.08984375 C-102.18828773 97.69273327 -102.18828773 97.69273327 -105.59375 96.08984375 C-109.08715534 92.93373272 -111.28119281 90.11944389 -112.65625 85.58984375 C-112.56736652 80.61236859 -111.47144069 77.02067663 -107.9375 73.38671875 C-105.2712557 71.05940381 -102.5404534 69.05431268 -99.59375 67.08984375 C-99.01626197 65.12622511 -99.01626197 65.12622511 -98.90625 62.96484375 C-98.803125 61.68609375 -98.7 60.40734375 -98.59375 59.08984375 C-99.439375 58.88359375 -100.285 58.67734375 -101.15625 58.46484375 C-106.86741901 56.18037614 -110.50913422 53.01416207 -113.53125 47.65234375 C-115.08922625 42.42854102 -115.47820414 38.34898812 -113.03125 33.40234375 C-110.56544787 29.51127301 -107.75303207 27.98706013 -103.59375 26.08984375 C-101.93410406 25.7231501 -100.26799205 25.38276431 -98.59375 25.08984375 C-98.44679688 24.48398437 -98.29984375 23.878125 -98.1484375 23.25390625 C-96.32243257 16.43262346 -93.50775482 10.94511101 -89.59375 5.08984375 C-88.7275 3.75953125 -88.7275 3.75953125 -87.84375 2.40234375 C-65.39451823 -20.67047779 -24.27021295 -18.72572465 0 0 Z M-123.89884377 298.29108143 C-124.95147052 300.22902652 -125.84689261 302.18963241 -126.71875 304.21484375 C-127.01394531 304.859375 -127.30914062 305.50390625 -127.61328125 306.16796875 C-129.68291734 310.7613383 -131.52307635 315.4373188 -133.3671875 320.125 C-136.33320603 327.62653015 -139.67244734 334.92681927 -143.08416748 342.23403931 C-178.26859931 413.0371823 -178.26859931 413.0371823 -179.59375 489.08984375 C-175.89021222 498.59458704 -170.89153062 506.00895521 -163.59375 513.08984375 C-162.98015625 513.71246094 -162.3665625 514.33507812 -161.734375 514.9765625 C-126.34916806 548.62275286 -58.52577701 548.30659986 -13.21875 548.33984375 C-12.25796539 548.34085083 -11.29718079 548.34185791 -10.30728149 548.34289551 C30.27568423 548.57303289 30.27568423 548.57303289 66.78125 532.77734375 C77.07589785 522.23758524 79.78586541 509.95720917 79.78027344 495.57885742 C78.69469833 441.08792142 58.52487054 383.46755426 45.93975353 330.57948399 C44.91715614 326.27303363 43.9137299 321.96268381 42.92714596 317.64784336 C42.45804625 315.60106006 41.98377379 313.55555175 41.50752258 311.51042175 C40.93016444 309.02705764 40.36178768 306.54158035 39.80436707 304.05366516 C38.16157224 297.05863088 36.54942507 292.23301882 31.40625 287.08984375 C28.78762023 286.76459259 28.78762023 286.76459259 25.67684937 286.78877258 C24.45719482 286.77301682 23.23754028 286.75726105 21.98092651 286.74102783 C20.62188856 286.73375198 19.26284916 286.72674193 17.90380859 286.7199707 C16.47808091 286.70580634 15.05236051 286.69089068 13.62664795 286.67527771 C8.93605624 286.62798511 4.24544597 286.60233894 -0.4453125 286.578125 C-2.06039861 286.56871783 -3.67548422 286.5592234 -5.29056931 286.54964256 C-12.0108961 286.51113487 -18.73121024 286.47792545 -25.45162392 286.45927143 C-35.07916576 286.43248356 -44.70536104 286.37500114 -54.33241522 286.27350646 C-61.10280542 286.20457459 -67.87283831 286.17029892 -74.64357126 286.16170663 C-78.68644704 286.15570928 -82.72793856 286.13481701 -86.77043533 286.07714272 C-90.57789815 286.02364618 -94.38311297 286.01327979 -98.19086456 286.03528786 C-99.58406188 286.0360022 -100.97736841 286.0214545 -102.37021255 285.99007797 C-113.6182925 285.75077092 -118.23155952 288.7323509 -123.89884377 298.29108143 Z " fill="#C1BFBE" transform="translate(188.59375,13.91015625)"/>
<path d="M0 0 C11.04888827 9.59603121 14.30235578 22.96319737 15.40625 37.08984375 C15.5180888 39.78554442 15.51634125 42.39260817 15.40625 45.08984375 C16.251875 45.15171875 17.0975 45.21359375 17.96875 45.27734375 C23.24183202 46.52370859 26.72665907 49.24771176 30.34375 53.21484375 C32.05731053 57.85153695 32.27598539 62.22628347 31.40625 67.08984375 C29.07663756 71.33441268 25.94120282 74.33464905 21.40625 76.08984375 C18.65625 76.21484375 18.65625 76.21484375 16.40625 76.08984375 C16.41785156 76.7653125 16.42945313 77.44078125 16.44140625 78.13671875 C16.45042969 79.02875 16.45945313 79.92078125 16.46875 80.83984375 C16.48035156 81.7215625 16.49195313 82.60328125 16.50390625 83.51171875 C16.41451198 85.87172755 16.07537821 87.83482899 15.40625 90.08984375 C16.251875 90.13109375 17.0975 90.17234375 17.96875 90.21484375 C23.02576441 91.50208378 26.84507124 94.54129697 29.5859375 99.015625 C31.0353354 102.68053113 30.94451704 106.22104943 30.40625 110.08984375 C28.02185029 114.95035085 25.09383582 117.45307673 20.40625 120.08984375 C18.03125 120.83984375 18.03125 120.83984375 16.40625 121.08984375 C16.07625 123.72984375 15.74625 126.36984375 15.40625 129.08984375 C16.6746875 129.43015625 16.6746875 129.43015625 17.96875 129.77734375 C23.22287263 131.7834633 27.27037909 134.38603738 30.40625 139.08984375 C31.29112411 143.49855279 31.34877878 147.47097588 29.05078125 151.41796875 C25.6972628 155.41554041 22.36646022 158.24418413 17.40625 160.08984375 C16.74625 160.08984375 16.08625 160.08984375 15.40625 160.08984375 C15.40625 162.72984375 15.40625 165.36984375 15.40625 168.08984375 C16.14488281 168.1878125 16.88351563 168.28578125 17.64453125 168.38671875 C22.94111161 169.73521163 27.13556997 173.9720437 29.90625 178.58984375 C31.09602701 184.5387288 30.63066215 188.9345836 27.75 194.22265625 C25.43476519 197.43975579 22.82679614 199.09970781 19.40625 201.08984375 C18.41625 201.08984375 17.42625 201.08984375 16.40625 201.08984375 C16.40625 203.39984375 16.40625 205.70984375 16.40625 208.08984375 C17.06625 208.27546875 17.72625 208.46109375 18.40625 208.65234375 C23.49012573 211.08836754 27.98827426 214.72655085 30.90625 219.58984375 C32.12022031 225.65969529 31.63445767 229.78635972 28.40625 235.08984375 C25.61255974 239.13587791 22.64681485 241.60081656 18.40625 244.08984375 C17.74625 244.08984375 17.08625 244.08984375 16.40625 244.08984375 C16.59960938 244.91226562 16.79296875 245.7346875 16.9921875 246.58203125 C17.25257813 247.69835937 17.51296875 248.8146875 17.78125 249.96484375 C18.03648437 251.05539062 18.29171875 252.1459375 18.5546875 253.26953125 C19.40625 257.08984375 19.40625 257.08984375 19.64208984 259.44580078 C20.61963844 267.36287018 24.49360044 271.02497959 30.28125 276.21484375 C31.91294631 277.70734322 33.53559912 279.20979807 35.1484375 280.72265625 C36.22907471 281.69549561 36.22907471 281.69549561 37.33154297 282.68798828 C43.55478803 289.89254052 45.08654006 298.94734659 47.171875 307.96484375 C47.52527029 309.46046264 47.87945281 310.95589571 48.23435974 312.45115662 C49.18910429 316.48665791 50.13056358 320.52514731 51.06875229 324.5645256 C51.6585176 327.09959088 52.25181624 329.63380279 52.84634399 332.16775513 C93.11540126 503.81357573 93.11540126 503.81357573 77.40625 530.08984375 C68.69969291 542.77654122 53.5962193 547.85896184 39.15299988 550.73913574 C22.40068226 553.82998892 5.53064257 554.46691953 -11.46875 554.40234375 C-12.45121704 554.40085327 -13.43368408 554.39936279 -14.44592285 554.39782715 C-65.96902607 554.25900671 -130.80460447 552.59034764 -170.78125 515.46484375 C-184.9796138 500.72472997 -189.10469015 481.91218837 -188.80078125 462.046875 C-187.368283 417.37577928 -164.78467604 373.12360287 -145.82702637 333.46884155 C-141.56598528 324.55232553 -137.73640166 315.58264231 -134.21875 306.33984375 C-130.48366739 296.63713679 -126.39516508 289.21623437 -119.18164062 281.59863281 C-113.13160328 275.94465495 -113.13160328 275.94465495 -110.6328125 268.65234375 C-111.42806827 266.38232639 -111.42806827 266.38232639 -112.55859375 264.25 C-114.30087895 260.61421239 -114.26013404 257.01921169 -113.59375 253.08984375 C-110.66453378 247.59756335 -107.65827945 247.12210847 -101.59375 244.08984375 C-101.59375 237.15984375 -101.59375 230.22984375 -101.59375 223.08984375 C-104.23375 221.76984375 -106.87375 220.44984375 -109.59375 219.08984375 C-114.55951431 213.91277032 -115.91780348 210.28394337 -115.8046875 203.3046875 C-115.5052856 200.16096759 -114.6454934 198.48354438 -112.59375 196.08984375 C-108.35542555 192.62212375 -105.02919554 191.52467939 -99.59375 191.08984375 C-99.17937575 183.60944163 -99.17937575 183.60944163 -102.30078125 177.203125 C-103.70720763 176.25072123 -105.13367671 175.32728118 -106.578125 174.43359375 C-110.04286524 172.12376692 -111.07699758 169.98064345 -112.59375 166.08984375 C-112.9716773 162.81447383 -112.76314933 160.18200544 -111.59375 157.08984375 C-109.04733714 153.97314051 -106.15294557 151.71184842 -102.41015625 150.21875 C-100.37211496 149.23514781 -100.37211496 149.23514781 -99.984375 146.92578125 C-99.93796875 146.11367187 -99.8915625 145.3015625 -99.84375 144.46484375 C-99.75867188 143.23894531 -99.75867188 143.23894531 -99.671875 141.98828125 C-99.64609375 141.36179688 -99.6203125 140.7353125 -99.59375 140.08984375 C-100.315625 140.00734375 -101.0375 139.92484375 -101.78125 139.83984375 C-105.75611356 138.77988013 -108.5288045 136.81617645 -110.70703125 133.28515625 C-112.44037194 128.99380177 -112.32179181 124.61136656 -111.59375 120.08984375 C-109.36103628 115.74760052 -106.67606689 113.55083057 -102.21875 111.65234375 C-101.3525 111.46671875 -100.48625 111.28109375 -99.59375 111.08984375 C-99.24685854 107.36397247 -99.07539915 103.80469152 -99.59375 100.08984375 C-102.18828773 97.69273327 -102.18828773 97.69273327 -105.59375 96.08984375 C-109.08715534 92.93373272 -111.28119281 90.11944389 -112.65625 85.58984375 C-112.56736652 80.61236859 -111.47144069 77.02067663 -107.9375 73.38671875 C-105.2712557 71.05940381 -102.5404534 69.05431268 -99.59375 67.08984375 C-99.01626197 65.12622511 -99.01626197 65.12622511 -98.90625 62.96484375 C-98.803125 61.68609375 -98.7 60.40734375 -98.59375 59.08984375 C-99.439375 58.88359375 -100.285 58.67734375 -101.15625 58.46484375 C-106.86741901 56.18037614 -110.50913422 53.01416207 -113.53125 47.65234375 C-115.08922625 42.42854102 -115.47820414 38.34898812 -113.03125 33.40234375 C-110.56544787 29.51127301 -107.75303207 27.98706013 -103.59375 26.08984375 C-101.93410406 25.7231501 -100.26799205 25.38276431 -98.59375 25.08984375 C-98.44679688 24.48398437 -98.29984375 23.878125 -98.1484375 23.25390625 C-96.32243257 16.43262346 -93.50775482 10.94511101 -89.59375 5.08984375 C-88.7275 3.75953125 -88.7275 3.75953125 -87.84375 2.40234375 C-65.39451823 -20.67047779 -24.27021295 -18.72572465 0 0 Z M-83.6171875 7.53515625 C-89.18776734 14.73507565 -92.29074791 21.99978111 -92.59375 31.08984375 C-93.48126953 31.14591797 -93.48126953 31.14591797 -94.38671875 31.203125 C-99.13341249 31.59803753 -102.78402074 31.97279254 -106.59375 35.08984375 C-108.50422312 37.60819469 -108.60414491 38.84556345 -108.46875 42.02734375 C-107.23732967 46.3373149 -105.51269776 48.90210794 -101.65625 51.2890625 C-98.42011931 52.98446185 -96.29861144 54.08984375 -92.59375 54.08984375 C-92.59375 60.02984375 -92.59375 65.96984375 -92.59375 72.08984375 C-95.56375 73.07984375 -95.56375 73.07984375 -98.59375 74.08984375 C-100.68255236 75.39428815 -100.68255236 75.39428815 -102.40625 76.96484375 C-102.99019531 77.45726563 -103.57414062 77.9496875 -104.17578125 78.45703125 C-105.82233314 80.3530607 -106.29660432 81.60867729 -106.59375 84.08984375 C-104.06680697 89.88694835 -99.1845266 93.44539434 -93.59375 96.08984375 C-93.54526329 99.09601967 -93.55391594 102.08458523 -93.59375 105.08984375 C-93.56474609 106.41822266 -93.56474609 106.41822266 -93.53515625 107.7734375 C-93.59437561 110.43041284 -93.72888224 112.57262337 -94.59375 115.08984375 C-96.53194557 116.62388643 -98.34917254 117.4185557 -100.6484375 118.30859375 C-103.30241163 119.37444682 -104.38008597 120.51080768 -105.59375 123.08984375 C-106.26055368 126.04705003 -106.26055368 126.04705003 -105.59375 129.08984375 C-103.63648417 132.04740865 -103.63648417 132.04740865 -100.59375 134.08984375 C-98.28375 134.41984375 -95.97375 134.74984375 -93.59375 135.08984375 C-93.92375 141.35984375 -94.25375 147.62984375 -94.59375 154.08984375 C-97.23375 155.07984375 -99.87375 156.06984375 -102.59375 157.08984375 C-105.20481131 158.77901006 -105.20481131 158.77901006 -106.59375 161.08984375 C-106.59375 165.47842828 -104.53599702 167.98855635 -101.59375 171.08984375 C-97.95610636 174.06614379 -97.95610636 174.06614379 -93.59375 175.08984375 C-93.59375 182.34984375 -93.59375 189.60984375 -93.59375 197.08984375 C-96.23375 197.08984375 -98.87375 197.08984375 -101.59375 197.08984375 C-104.90592963 198.43925027 -107.0730273 199.56912105 -109.59375 202.08984375 C-110.11412088 205.90589688 -109.72948363 207.82359701 -107.96875 211.27734375 C-105.33534289 214.39585217 -103.40768425 215.68880668 -99.59375 217.08984375 C-97.94375 217.08984375 -96.29375 217.08984375 -94.59375 217.08984375 C-94.59375 227.64984375 -94.59375 238.20984375 -94.59375 249.08984375 C-97.56375 250.07984375 -100.53375 251.06984375 -103.59375 252.08984375 C-106.04955941 253.61097183 -106.04955941 253.61097183 -107.59375 255.08984375 C-107.20981699 260.69836265 -107.20981699 260.69836265 -104.96875 265.71484375 C-103.59375 268.08984375 -103.59375 268.08984375 -103.59375 271.02734375 C-104.88396862 274.97863827 -106.81145679 277.02218714 -109.59375 280.08984375 C-109.59375 280.41984375 -109.59375 280.74984375 -109.59375 281.08984375 C-95.96134113 281.11321468 -82.32893719 281.13088308 -68.69651222 281.14165592 C-62.36358548 281.14683139 -56.03067265 281.15382959 -49.69775391 281.1652832 C-43.56390627 281.17630488 -37.43007184 281.18216053 -31.29621506 281.18472099 C-28.97877164 281.18654108 -26.66132879 281.19009315 -24.34389114 281.19557381 C-8.07036459 281.23246066 8.14948842 280.83400474 24.40625 280.08984375 C23.99371381 279.61365695 23.58117762 279.13747015 23.15614033 278.64685345 C22.3448481 277.70630218 22.3448481 277.70630218 21.51716614 276.74674988 C20.98087995 276.12618808 20.44459375 275.50562628 19.89205647 274.86625957 C16.28614142 270.55506246 14.8894884 266.74973526 13.80078125 261.2578125 C13.53974609 259.96552734 13.27871094 258.67324219 13.00976562 257.34179688 C12.74588626 255.98701956 12.48221699 254.63220132 12.21875 253.27734375 C11.94423391 251.90281984 11.6688519 250.52846857 11.39257812 249.15429688 C10.72193448 245.80107865 10.06016569 242.44635713 9.40625 239.08984375 C10.34952148 238.95626465 11.29279297 238.82268555 12.26464844 238.68505859 C15.76613001 238.02166008 17.08559275 237.11344914 19.65625 234.71484375 C20.65398437 233.80605469 20.65398437 233.80605469 21.671875 232.87890625 C24.30550436 230.16223452 25.38362946 228.67797787 25.53125 224.83984375 C23.97053732 219.63746814 20.91857298 216.99335888 16.40625 214.08984375 C14.42625 213.42984375 12.44625 212.76984375 10.40625 212.08984375 C10.40625 206.80984375 10.40625 201.52984375 10.40625 196.08984375 C12.71625 195.75984375 15.02625 195.42984375 17.40625 195.08984375 C20.74418291 192.93873143 23.29534835 190.97799952 24.40625 187.08984375 C24.47161413 183.56018094 24.25647073 181.16279837 22.01953125 178.33984375 C17.60324851 174.21136371 16.03299401 174.03652147 9.40625 173.08984375 C9.73625 167.14984375 10.06625 161.20984375 10.40625 155.08984375 C11.788125 154.69796875 13.17 154.30609375 14.59375 153.90234375 C18.93264065 152.42862892 21.75125831 150.98383156 24.40625 147.08984375 C24.97979142 143.51767679 24.97979142 143.51767679 23.40625 140.08984375 C19.04877948 136.08179303 15.27958962 135.06873369 9.40625 134.08984375 C9.40625 127.81984375 9.40625 121.54984375 9.40625 115.08984375 C13.86125 114.59484375 13.86125 114.59484375 18.40625 114.08984375 C22.26546163 111.99943745 23.16926601 110.85655666 24.46875 106.65234375 C24.68145428 103.08917295 24.68145428 103.08917295 22.90625 100.33984375 C18.75650882 96.60507669 14.97259151 95.08984375 9.40625 95.08984375 C9.4784375 94.54199219 9.550625 93.99414062 9.625 93.4296875 C10.53813961 85.62995332 10.50035386 77.93183184 10.40625 70.08984375 C11.00953125 70.11304687 11.6128125 70.13625 12.234375 70.16015625 C13.03359375 70.17820312 13.8328125 70.19625 14.65625 70.21484375 C15.83960938 70.24964844 15.83960938 70.24964844 17.046875 70.28515625 C19.68273974 70.06695553 21.19073383 69.51951444 23.40625 68.08984375 C25.90656654 64.33936893 25.94228554 62.53128109 25.40625 58.08984375 C22.36026783 54.14798447 19.01975953 51.91602461 14.40625 50.08984375 C12.74021852 50.04383416 11.07205894 50.03638029 9.40625 50.08984375 C9.42945313 49.38601562 9.45265625 48.6821875 9.4765625 47.95703125 C9.73580787 33.7726059 8.62483565 17.47915059 -1.76171875 6.671875 C-23.81256054 -12.36989669 -62.93120404 -14.80570588 -83.6171875 7.53515625 Z M-123.89884377 298.29108143 C-124.95147052 300.22902652 -125.84689261 302.18963241 -126.71875 304.21484375 C-127.01394531 304.859375 -127.30914062 305.50390625 -127.61328125 306.16796875 C-129.68291734 310.7613383 -131.52307635 315.4373188 -133.3671875 320.125 C-136.33320603 327.62653015 -139.67244734 334.92681927 -143.08416748 342.23403931 C-178.26859931 413.0371823 -178.26859931 413.0371823 -179.59375 489.08984375 C-175.89021222 498.59458704 -170.89153062 506.00895521 -163.59375 513.08984375 C-162.98015625 513.71246094 -162.3665625 514.33507812 -161.734375 514.9765625 C-126.34916806 548.62275286 -58.52577701 548.30659986 -13.21875 548.33984375 C-12.25796539 548.34085083 -11.29718079 548.34185791 -10.30728149 548.34289551 C30.27568423 548.57303289 30.27568423 548.57303289 66.78125 532.77734375 C77.07589785 522.23758524 79.78586541 509.95720917 79.78027344 495.57885742 C78.69469833 441.08792142 58.52487054 383.46755426 45.93975353 330.57948399 C44.91715614 326.27303363 43.9137299 321.96268381 42.92714596 317.64784336 C42.45804625 315.60106006 41.98377379 313.55555175 41.50752258 311.51042175 C40.93016444 309.02705764 40.36178768 306.54158035 39.80436707 304.05366516 C38.16157224 297.05863088 36.54942507 292.23301882 31.40625 287.08984375 C28.78762023 286.76459259 28.78762023 286.76459259 25.67684937 286.78877258 C24.45719482 286.77301682 23.23754028 286.75726105 21.98092651 286.74102783 C20.62188856 286.73375198 19.26284916 286.72674193 17.90380859 286.7199707 C16.47808091 286.70580634 15.05236051 286.69089068 13.62664795 286.67527771 C8.93605624 286.62798511 4.24544597 286.60233894 -0.4453125 286.578125 C-2.06039861 286.56871783 -3.67548422 286.5592234 -5.29056931 286.54964256 C-12.0108961 286.51113487 -18.73121024 286.47792545 -25.45162392 286.45927143 C-35.07916576 286.43248356 -44.70536104 286.37500114 -54.33241522 286.27350646 C-61.10280542 286.20457459 -67.87283831 286.17029892 -74.64357126 286.16170663 C-78.68644704 286.15570928 -82.72793856 286.13481701 -86.77043533 286.07714272 C-90.57789815 286.02364618 -94.38311297 286.01327979 -98.19086456 286.03528786 C-99.58406188 286.0360022 -100.97736841 286.0214545 -102.37021255 285.99007797 C-113.6182925 285.75077092 -118.23155952 288.7323509 -123.89884377 298.29108143 Z " fill="#11110E" transform="translate(188.59375,13.91015625)"/>
</svg>
