<?xml version="1.0" encoding="UTF-8"?>
<svg version="1.1" xmlns="http://www.w3.org/2000/svg" width="214" height="530">
<path d="M0 0 C8.69260762 7.03749343 14.43510315 17.20252683 16.15234375 28.30859375 C16.76559718 34.91910503 17.12562669 41.54032625 17.41796875 48.171875 C18.16691406 48.27886719 18.91585937 48.38585938 19.6875 48.49609375 C22.5880232 49.21396287 23.89711674 50.02415243 26.10546875 51.984375 C26.97751953 52.73654297 26.97751953 52.73654297 27.8671875 53.50390625 C31.82247905 57.75808633 31.84638408 61.87610845 31.734375 67.4765625 C31.28697163 71.28777637 30.00516672 73.37490423 27.41796875 76.171875 C23.60951671 79.10145349 22.47414078 79.171875 17.41796875 79.171875 C17.41796875 83.791875 17.41796875 88.411875 17.41796875 93.171875 C19.06796875 93.501875 20.71796875 93.831875 22.41796875 94.171875 C26.15574841 96.66372811 28.726159 98.98687194 30.41796875 103.171875 C31.08764958 108.51298793 31.08925785 112.77957168 28.73046875 117.671875 C26.39542545 120.19624613 24.54893511 121.76294014 21.41796875 123.171875 C20.09796875 123.171875 18.77796875 123.171875 17.41796875 123.171875 C17.30776064 126.33347004 17.45335155 129.14532473 18.41796875 132.171875 C20.29492318 133.85984546 22.18119322 134.89591262 24.41015625 136.0703125 C27.27413979 137.64160308 28.75543985 139.37882645 30.41796875 142.171875 C31.57129492 146.3238492 31.57087766 148.65018578 30.35546875 152.796875 C27.84356541 157.17244857 25.01312821 160.26006222 20.10546875 161.984375 C18.23403359 163.02497894 18.23403359 163.02497894 17.953125 165.06640625 C17.69404973 167.09287173 17.54949912 169.1331543 17.41796875 171.171875 C18.28421875 171.3575 19.15046875 171.543125 20.04296875 171.734375 C24.40876164 173.59387938 26.76574523 176.29289011 29.41796875 180.171875 C31.09084345 185.19049911 31.45144224 190.45147618 29.546875 195.46484375 C26.70421331 200.43251156 23.55252116 202.75561504 18.41796875 205.171875 C18.06256095 207.52965811 18.06256095 207.52965811 18.41796875 210.171875 C20.23935463 212.04811289 20.23935463 212.04811289 22.66796875 213.546875 C27.10130522 216.77937073 29.35611137 219.06205454 31.41796875 224.171875 C32.20391049 230.36116622 31.21191725 235.12364298 27.41796875 240.171875 C25.97387591 241.19233175 24.51463988 242.19160963 23.04296875 243.171875 C20.82713207 244.77960551 20.82713207 244.77960551 19.41796875 247.171875 C19.15389094 252.69990378 20.06432269 257.82640516 21.41796875 263.171875 C21.5763623 263.90027588 21.73475586 264.62867676 21.89794922 265.37915039 C23.71780148 272.29294409 27.75074877 276.11916235 32.91796875 280.859375 C42.02308935 289.34887393 42.02308935 289.34887393 44.41796875 295.171875 C45.18173828 296.52539062 45.18173828 296.52539062 45.9609375 297.90625 C50.4881388 306.2079113 53.27219485 314.68147316 55.9375 323.73535156 C59.44103191 335.53828785 63.45593472 347.15279807 67.51443481 358.77481079 C87.47799821 415.94322792 87.47799821 415.94322792 75.09765625 444.18359375 C69.3156074 455.51072223 61.36174613 463.45319066 51.41796875 471.171875 C50.29146062 472.09292776 49.1678763 473.01756533 48.046875 473.9453125 C38.99112138 481.40277331 29.52881545 488.11868454 19.76269531 494.61230469 C18.24584851 495.62121945 16.73196037 496.63460275 15.22167969 497.65332031 C7.1863218 503.07303067 -0.99053135 508.1243093 -9.51953125 512.734375 C-10.65455078 513.36122192 -10.65455078 513.36122192 -11.8125 514.00073242 C-22.80278418 519.78047868 -33.72209363 520.36762456 -45.578125 517.1328125 C-58.7666392 512.91385997 -69.10641095 503.59802909 -79.1328125 494.37890625 C-82.539801 491.30881294 -86.09843663 488.44229634 -89.66015625 485.5546875 C-94.51279784 481.59731936 -99.29537455 477.55959578 -104.04931641 473.484375 C-105.46615964 472.2710986 -106.88906769 471.06491423 -108.3125 469.859375 C-123.30194554 456.84528275 -132.2435008 442.34991588 -133.8984375 422.34765625 C-134.50157145 408.31061559 -131.82981408 394.07678857 -128.42944336 380.51074219 C-125.22394579 367.70465782 -123.11680964 355.01978612 -121.51953125 341.921875 C-117.22285156 306.96788682 -117.22285156 306.96788682 -110.95703125 294.359375 C-110.62582275 293.66416748 -110.29461426 292.96895996 -109.95336914 292.25268555 C-106.95387552 286.26954677 -103.04208464 281.56102343 -98.390625 276.78515625 C-96.25105593 274.26083624 -96.25105593 274.26083624 -96.7421875 270.96484375 C-97.47196485 268.24975015 -97.47196485 268.24975015 -98.58203125 266.171875 C-99.08918084 262.14365825 -99.46913456 258.01873232 -97.67578125 254.28515625 C-94.72033627 250.52454197 -92.00912791 249.38542333 -87.58203125 247.171875 C-87.58203125 240.241875 -87.58203125 233.311875 -87.58203125 226.171875 C-89.56203125 225.181875 -91.54203125 224.191875 -93.58203125 223.171875 C-95.4453125 221.453125 -95.4453125 221.453125 -96.89453125 219.671875 C-97.38566406 219.0840625 -97.87679687 218.49625 -98.3828125 217.890625 C-101.2558436 213.77292571 -101.18314009 208.98898012 -100.58203125 204.171875 C-98.56497076 200.28182976 -96.4361049 197.32562204 -92.58203125 195.171875 C-89.33203125 194.484375 -89.33203125 194.484375 -86.58203125 194.171875 C-86.35663035 185.98683681 -86.35663035 185.98683681 -90.39453125 179.359375 C-91.44640625 178.6375 -92.49828125 177.915625 -93.58203125 177.171875 C-96.35572488 173.79960311 -97.83173075 170.48129041 -98.08203125 166.109375 C-97.50478629 161.56357093 -96.61132309 159.58953759 -93.58203125 156.171875 C-91.30818841 154.60404332 -89.06458502 153.41315188 -86.58203125 152.171875 C-86.16751563 148.13225958 -86.16751563 148.13225958 -86.58203125 144.171875 C-89.30591722 141.88353477 -89.30591722 141.88353477 -92.58203125 140.171875 C-96.30632671 136.64889281 -97.40576073 133.50783954 -97.73828125 128.51171875 C-97.46770551 124.4598471 -96.09343231 121.34639881 -93.58203125 118.171875 C-91.75390625 116.9140625 -91.75390625 116.9140625 -89.83203125 115.796875 C-87.47986073 114.28658764 -86.71504103 113.58726382 -85.8515625 110.890625 C-85.62152488 108.00864428 -85.73126256 105.9412139 -86.58203125 103.171875 C-88.41551537 101.02720321 -90.35670468 99.45071441 -92.59765625 97.7421875 C-95.42088972 95.50805393 -96.54956522 93.61342844 -97.58203125 90.171875 C-97.82186856 84.13233551 -96.51419636 79.86862777 -92.58203125 75.171875 C-88.16097862 71.171875 -88.16097862 71.171875 -85.58203125 71.171875 C-85.59527413 68.07303999 -85.78181959 65.17397625 -86.58203125 62.171875 C-89.27022393 59.9346862 -89.27022393 59.9346862 -92.58203125 58.171875 C-97.2634121 53.61993326 -99.34669776 50.3488771 -99.83203125 43.796875 C-99.47388535 38.60375945 -97.94602348 35.5737559 -94.33203125 31.859375 C-91.05166044 29.84642019 -88.3882039 29.47039835 -84.58203125 29.171875 C-84.56140625 28.140625 -84.54078125 27.109375 -84.51953125 26.046875 C-83.39643908 16.81439669 -77.38922961 6.22847572 -70.35546875 0.29296875 C-64.6765154 -3.69339753 -59.19423625 -6.69895219 -52.58203125 -8.828125 C-51.54175781 -9.16650391 -51.54175781 -9.16650391 -50.48046875 -9.51171875 C-33.69480827 -14.06962281 -14.04272071 -9.9425012 0 0 Z " fill="#C1BFBE" transform="translate(133.58203125,10.828125)"/>
<path d="M0 0 C0.92471603 -0.00281982 1.84943207 -0.00563965 2.8021698 -0.00854492 C3.82535812 -0.00652069 4.84854645 -0.00449646 5.90274048 -0.00241089 C6.97452042 -0.00416321 8.04630035 -0.00591553 9.15055847 -0.00772095 C12.72242824 -0.01214905 16.29424904 -0.00919443 19.86611938 -0.00582886 C22.35266123 -0.00650251 24.83920301 -0.00747305 27.32574463 -0.00872803 C32.55991109 -0.01020701 37.79406481 -0.00814273 43.02822876 -0.00338745 C49.68845906 0.00259461 56.34865491 -0.00093387 63.00888634 -0.00695992 C68.15838924 -0.01060579 73.3078828 -0.00940771 78.45738602 -0.00683212 C80.90900299 -0.00617115 83.36062085 -0.0069618 85.81223679 -0.00931168 C93.44840336 -0.01501481 101.08216633 0.02811587 108.71768188 0.12698364 C110.14745739 0.13881557 110.14745739 0.13881557 111.60611725 0.15088654 C114.23932963 0.18111519 116.86917438 0.24549174 119.50137329 0.32278442 C120.63279283 0.33059339 120.63279283 0.33059339 121.78706932 0.3385601 C127.48640542 0.56976793 129.8249989 2.25115983 133.71768188 6.12698364 C139.78270814 13.64400358 142.33998581 23.07461874 145.21768188 32.12698364 C145.72487883 33.69217329 146.23337417 35.25694271 146.74307251 36.82131958 C147.5506659 39.30103827 148.35713111 41.78107733 149.15896606 44.26266479 C151.2130134 50.61448303 153.32803321 56.94416061 155.46768188 63.26760864 C156.09862096 65.13737342 156.72948075 67.00716495 157.36026001 68.87698364 C158.27680811 71.59339022 159.19466177 74.30930312 160.11782837 77.02346802 C168.38026747 101.34500495 177.19602198 127.81510549 165.10440063 152.40823364 C159.21884305 162.95264722 152.17665919 169.72536433 142.71768188 177.12698364 C141.72639282 177.91073364 140.73510376 178.69448364 139.71377563 179.50198364 C123.02691671 192.53402365 105.52861876 204.69541491 87.09268188 215.12698364 C86.45387085 215.48880737 85.81505981 215.8506311 85.15689087 216.22341919 C75.08514148 221.81323347 65.70923931 224.6943183 54.17080688 221.90042114 C41.2565586 217.8287314 30.95841654 208.33716398 21.16690063 199.33401489 C17.75991213 196.26392158 14.2012765 193.39740498 10.63955688 190.50979614 C5.78853409 186.55374814 1.00725222 182.51762288 -3.74520874 178.44387817 C-5.17587756 177.21817493 -6.61170842 175.99850402 -8.04794312 174.77932739 C-19.97702511 164.40541713 -30.06517921 151.44244094 -31.28231812 135.12698364 C-32.17380929 119.61079195 -29.28575199 104.76626954 -25.40731812 89.81448364 C-22.56428156 78.77474317 -21.06481739 67.73522515 -19.71981812 56.43948364 C-12.931155 0.00603611 -12.931155 0.00603611 0 0 Z " fill="#FFFFFF" transform="translate(37.282318115234375,300.8730163574219)"/>
<path d="M0 0 C8.69260762 7.03749343 14.43510315 17.20252683 16.15234375 28.30859375 C16.76559718 34.91910503 17.12562669 41.54032625 17.41796875 48.171875 C18.16691406 48.27886719 18.91585937 48.38585938 19.6875 48.49609375 C22.5880232 49.21396287 23.89711674 50.02415243 26.10546875 51.984375 C26.97751953 52.73654297 26.97751953 52.73654297 27.8671875 53.50390625 C31.82247905 57.75808633 31.84638408 61.87610845 31.734375 67.4765625 C31.28697163 71.28777637 30.00516672 73.37490423 27.41796875 76.171875 C23.60951671 79.10145349 22.47414078 79.171875 17.41796875 79.171875 C17.41796875 83.791875 17.41796875 88.411875 17.41796875 93.171875 C19.06796875 93.501875 20.71796875 93.831875 22.41796875 94.171875 C26.15574841 96.66372811 28.726159 98.98687194 30.41796875 103.171875 C31.08764958 108.51298793 31.08925785 112.77957168 28.73046875 117.671875 C26.39542545 120.19624613 24.54893511 121.76294014 21.41796875 123.171875 C20.09796875 123.171875 18.77796875 123.171875 17.41796875 123.171875 C17.30776064 126.33347004 17.45335155 129.14532473 18.41796875 132.171875 C20.29492318 133.85984546 22.18119322 134.89591262 24.41015625 136.0703125 C27.27413979 137.64160308 28.75543985 139.37882645 30.41796875 142.171875 C31.57129492 146.3238492 31.57087766 148.65018578 30.35546875 152.796875 C27.84356541 157.17244857 25.01312821 160.26006222 20.10546875 161.984375 C18.23403359 163.02497894 18.23403359 163.02497894 17.953125 165.06640625 C17.69404973 167.09287173 17.54949912 169.1331543 17.41796875 171.171875 C18.28421875 171.3575 19.15046875 171.543125 20.04296875 171.734375 C24.40876164 173.59387938 26.76574523 176.29289011 29.41796875 180.171875 C31.09084345 185.19049911 31.45144224 190.45147618 29.546875 195.46484375 C26.70421331 200.43251156 23.55252116 202.75561504 18.41796875 205.171875 C18.06256095 207.52965811 18.06256095 207.52965811 18.41796875 210.171875 C20.23935463 212.04811289 20.23935463 212.04811289 22.66796875 213.546875 C27.10130522 216.77937073 29.35611137 219.06205454 31.41796875 224.171875 C32.20391049 230.36116622 31.21191725 235.12364298 27.41796875 240.171875 C25.97387591 241.19233175 24.51463988 242.19160963 23.04296875 243.171875 C20.82713207 244.77960551 20.82713207 244.77960551 19.41796875 247.171875 C19.15389094 252.69990378 20.06432269 257.82640516 21.41796875 263.171875 C21.5763623 263.90027588 21.73475586 264.62867676 21.89794922 265.37915039 C23.71780148 272.29294409 27.75074877 276.11916235 32.91796875 280.859375 C42.02308935 289.34887393 42.02308935 289.34887393 44.41796875 295.171875 C45.18173828 296.52539062 45.18173828 296.52539062 45.9609375 297.90625 C50.4881388 306.2079113 53.27219485 314.68147316 55.9375 323.73535156 C59.44103191 335.53828785 63.45593472 347.15279807 67.51443481 358.77481079 C87.47799821 415.94322792 87.47799821 415.94322792 75.09765625 444.18359375 C69.3156074 455.51072223 61.36174613 463.45319066 51.41796875 471.171875 C50.29146062 472.09292776 49.1678763 473.01756533 48.046875 473.9453125 C38.99112138 481.40277331 29.52881545 488.11868454 19.76269531 494.61230469 C18.24584851 495.62121945 16.73196037 496.63460275 15.22167969 497.65332031 C7.1863218 503.07303067 -0.99053135 508.1243093 -9.51953125 512.734375 C-10.65455078 513.36122192 -10.65455078 513.36122192 -11.8125 514.00073242 C-22.80278418 519.78047868 -33.72209363 520.36762456 -45.578125 517.1328125 C-58.7666392 512.91385997 -69.10641095 503.59802909 -79.1328125 494.37890625 C-82.539801 491.30881294 -86.09843663 488.44229634 -89.66015625 485.5546875 C-94.51279784 481.59731936 -99.29537455 477.55959578 -104.04931641 473.484375 C-105.46615964 472.2710986 -106.88906769 471.06491423 -108.3125 469.859375 C-123.30194554 456.84528275 -132.2435008 442.34991588 -133.8984375 422.34765625 C-134.50157145 408.31061559 -131.82981408 394.07678857 -128.42944336 380.51074219 C-125.22394579 367.70465782 -123.11680964 355.01978612 -121.51953125 341.921875 C-117.22285156 306.96788682 -117.22285156 306.96788682 -110.95703125 294.359375 C-110.62582275 293.66416748 -110.29461426 292.96895996 -109.95336914 292.25268555 C-106.95387552 286.26954677 -103.04208464 281.56102343 -98.390625 276.78515625 C-96.25105593 274.26083624 -96.25105593 274.26083624 -96.7421875 270.96484375 C-97.47196485 268.24975015 -97.47196485 268.24975015 -98.58203125 266.171875 C-99.08918084 262.14365825 -99.46913456 258.01873232 -97.67578125 254.28515625 C-94.72033627 250.52454197 -92.00912791 249.38542333 -87.58203125 247.171875 C-87.58203125 240.241875 -87.58203125 233.311875 -87.58203125 226.171875 C-89.56203125 225.181875 -91.54203125 224.191875 -93.58203125 223.171875 C-95.4453125 221.453125 -95.4453125 221.453125 -96.89453125 219.671875 C-97.38566406 219.0840625 -97.87679687 218.49625 -98.3828125 217.890625 C-101.2558436 213.77292571 -101.18314009 208.98898012 -100.58203125 204.171875 C-98.56497076 200.28182976 -96.4361049 197.32562204 -92.58203125 195.171875 C-89.33203125 194.484375 -89.33203125 194.484375 -86.58203125 194.171875 C-86.35663035 185.98683681 -86.35663035 185.98683681 -90.39453125 179.359375 C-91.44640625 178.6375 -92.49828125 177.915625 -93.58203125 177.171875 C-96.35572488 173.79960311 -97.83173075 170.48129041 -98.08203125 166.109375 C-97.50478629 161.56357093 -96.61132309 159.58953759 -93.58203125 156.171875 C-91.30818841 154.60404332 -89.06458502 153.41315188 -86.58203125 152.171875 C-86.16751563 148.13225958 -86.16751563 148.13225958 -86.58203125 144.171875 C-89.30591722 141.88353477 -89.30591722 141.88353477 -92.58203125 140.171875 C-96.30632671 136.64889281 -97.40576073 133.50783954 -97.73828125 128.51171875 C-97.46770551 124.4598471 -96.09343231 121.34639881 -93.58203125 118.171875 C-91.75390625 116.9140625 -91.75390625 116.9140625 -89.83203125 115.796875 C-87.47986073 114.28658764 -86.71504103 113.58726382 -85.8515625 110.890625 C-85.62152488 108.00864428 -85.73126256 105.9412139 -86.58203125 103.171875 C-88.41551537 101.02720321 -90.35670468 99.45071441 -92.59765625 97.7421875 C-95.42088972 95.50805393 -96.54956522 93.61342844 -97.58203125 90.171875 C-97.82186856 84.13233551 -96.51419636 79.86862777 -92.58203125 75.171875 C-88.16097862 71.171875 -88.16097862 71.171875 -85.58203125 71.171875 C-85.59527413 68.07303999 -85.78181959 65.17397625 -86.58203125 62.171875 C-89.27022393 59.9346862 -89.27022393 59.9346862 -92.58203125 58.171875 C-97.2634121 53.61993326 -99.34669776 50.3488771 -99.83203125 43.796875 C-99.47388535 38.60375945 -97.94602348 35.5737559 -94.33203125 31.859375 C-91.05166044 29.84642019 -88.3882039 29.47039835 -84.58203125 29.171875 C-84.56140625 28.140625 -84.54078125 27.109375 -84.51953125 26.046875 C-83.39643908 16.81439669 -77.38922961 6.22847572 -70.35546875 0.29296875 C-64.6765154 -3.69339753 -59.19423625 -6.69895219 -52.58203125 -8.828125 C-51.54175781 -9.16650391 -51.54175781 -9.16650391 -50.48046875 -9.51171875 C-33.69480827 -14.06962281 -14.04272071 -9.9425012 0 0 Z M-69.984375 9.0703125 C-75.72299767 16.61891641 -78.51590666 24.83409408 -79.58203125 34.171875 C-80.2575 34.25824219 -80.93296875 34.34460937 -81.62890625 34.43359375 C-85.92352285 35.11005793 -88.8473369 35.57386797 -92.26953125 38.359375 C-94.08231319 42.24390772 -93.85169027 44.0807515 -92.58203125 48.171875 C-89.91589859 52.20776388 -87.13013418 55.34012431 -82.58203125 57.171875 C-81.59203125 57.171875 -80.60203125 57.171875 -79.58203125 57.171875 C-79.58203125 63.111875 -79.58203125 69.051875 -79.58203125 75.171875 C-82.05703125 76.161875 -82.05703125 76.161875 -84.58203125 77.171875 C-87.83135119 79.4388424 -90.40771378 81.29662734 -91.58203125 85.171875 C-91.45326656 90.06493327 -88.86666096 92.73794394 -85.58203125 96.171875 C-84.71707031 96.52636719 -83.85210937 96.88085938 -82.9609375 97.24609375 C-80.58203125 99.171875 -80.58203125 99.171875 -80.08642578 101.18945312 C-79.86331384 103.7554981 -79.78648831 106.28378577 -79.76953125 108.859375 C-79.73182617 110.19838867 -79.73182617 110.19838867 -79.69335938 111.56445312 C-79.63445787 113.76736939 -79.59820371 115.96829819 -79.58203125 118.171875 C-80.51402344 118.45417969 -81.44601563 118.73648438 -82.40625 119.02734375 C-86.23840788 120.40842894 -88.0223962 122.02718051 -90.58203125 125.171875 C-91.73677737 127.60997655 -91.73677737 127.60997655 -91.58203125 130.171875 C-89.94416535 133.79242068 -88.06587868 136.22501908 -84.58203125 138.171875 C-82.91602641 138.21883953 -81.24787934 138.22410456 -79.58203125 138.171875 C-79.72332412 140.58888487 -79.86989612 143.00537929 -80.01953125 145.421875 C-80.07850586 146.44474609 -80.07850586 146.44474609 -80.13867188 147.48828125 C-80.60751465 154.91763606 -80.60751465 154.91763606 -81.58203125 157.171875 C-83.359375 158.33203125 -83.359375 158.33203125 -85.51953125 159.234375 C-88.81461444 160.62775864 -89.48590819 161.02769041 -91.58203125 164.171875 C-91.49536611 168.15847132 -90.89161673 169.81208646 -88.26953125 172.859375 C-85.7668016 175.13237028 -85.7668016 175.13237028 -83.45214844 176.49731445 C-81.58203125 178.171875 -81.58203125 178.171875 -81.03613281 180.53198242 C-81.01518555 181.43795166 -80.99423828 182.3439209 -80.97265625 183.27734375 C-80.94042969 184.26025391 -80.90820312 185.24316406 -80.875 186.25585938 C-80.86082031 187.28001953 -80.84664062 188.30417969 -80.83203125 189.359375 C-80.80238281 190.39513672 -80.77273437 191.43089844 -80.7421875 192.49804688 C-80.6714588 195.05606812 -80.61877868 197.61317658 -80.58203125 200.171875 C-81.67902344 200.14480469 -82.77601562 200.11773437 -83.90625 200.08984375 C-87.89528029 200.17886568 -89.46748521 200.7692252 -92.58203125 203.171875 C-94.89966268 206.03049958 -94.89966268 206.03049958 -94.51953125 209.484375 C-93.3731909 213.99331369 -92.05154501 216.07145845 -88.58203125 219.171875 C-85.94203125 219.501875 -83.30203125 219.831875 -80.58203125 220.171875 C-80.58203125 230.731875 -80.58203125 241.291875 -80.58203125 252.171875 C-83.55203125 253.161875 -86.52203125 254.151875 -89.58203125 255.171875 C-92.77941005 257.78801561 -92.77941005 257.78801561 -93.01953125 260.796875 C-92.50886777 264.73627901 -91.12706624 267.54877061 -89.26171875 271.0234375 C-88.58203125 273.171875 -88.58203125 273.171875 -89.15234375 275.0078125 C-91.2092541 278.1212779 -93.41310551 281.13537897 -95.58203125 284.171875 C-55.32203125 284.171875 -15.06203125 284.171875 26.41796875 284.171875 C22.04424314 279.05494099 22.04424314 279.05494099 17.41796875 274.171875 C16.74841397 271.70950523 16.23599937 269.38304039 15.8125 266.87890625 C15.68356857 266.17287766 15.55463715 265.46684906 15.42179871 264.73942566 C15.01356849 262.48957689 14.62183814 260.23721159 14.23046875 257.984375 C13.9561617 256.45618531 13.68078342 254.92818749 13.40429688 253.40039062 C12.72974874 249.65966281 12.0699807 245.91659382 11.41796875 242.171875 C12.20276611 242.03305908 12.98756348 241.89424316 13.79614258 241.7512207 C16.67301638 241.11551705 17.92553171 240.29437529 20.10546875 238.359375 C20.68683594 237.85792969 21.26820313 237.35648438 21.8671875 236.83984375 C24.68082796 233.81358563 25.4441196 231.89102328 25.29296875 227.734375 C24.17229203 223.17161978 22.57489839 220.64513498 18.66796875 217.9765625 C15.27179668 215.85571019 15.27179668 215.85571019 11.41796875 215.171875 C11.74796875 210.221875 12.07796875 205.271875 12.41796875 200.171875 C13.49046875 199.759375 14.56296875 199.346875 15.66796875 198.921875 C19.64451535 197.22339052 22.44798231 195.11184789 24.41796875 191.171875 C24.58900692 187.38672587 24.48126109 183.65561953 22.22265625 180.50390625 C18.59333481 177.26411931 16.40048875 177.002295 11.41796875 176.171875 C11.74796875 170.231875 12.07796875 164.291875 12.41796875 158.171875 C15.05796875 157.181875 17.69796875 156.191875 20.41796875 155.171875 C23.03237016 152.49043765 24.23693406 150.71497908 25.41796875 147.171875 C23.4019177 142.06454568 19.22585102 139.44980309 14.41796875 137.171875 C13.42796875 137.171875 12.43796875 137.171875 11.41796875 137.171875 C11.41796875 130.901875 11.41796875 124.631875 11.41796875 118.171875 C14.05796875 117.841875 16.69796875 117.511875 19.41796875 117.171875 C23.12931081 114.54300771 24.24082821 113.16386204 25.04296875 108.671875 C24.25513227 104.25999072 22.92100045 102.89645521 19.41796875 100.171875 C16.42845252 98.67711688 14.77104985 98.171875 11.41796875 98.171875 C11.41796875 89.921875 11.41796875 81.671875 11.41796875 73.171875 C14.38796875 73.171875 17.35796875 73.171875 20.41796875 73.171875 C23.62809922 71.2954633 23.62809922 71.2954633 25.41796875 68.171875 C26.25612083 63.56203858 25.82228636 61.78412738 23.23046875 57.859375 C19.2287515 54.03551185 16.9213304 53.171875 11.41796875 53.171875 C11.44117188 52.635625 11.464375 52.099375 11.48828125 51.546875 C11.8376582 36.37393335 10.32397411 19.65987136 -0.58203125 8.171875 C-11.01331122 -1.5028506 -24.45160898 -5.37943075 -38.4375 -5.07421875 C-50.70841423 -4.11388633 -61.48195085 -0.05522075 -69.984375 9.0703125 Z M-104.73776436 296.18149185 C-105.01637243 296.83831829 -105.29498051 297.49514473 -105.58203125 298.171875 C-106.00291016 299.09395752 -106.42378906 300.01604004 -106.85742188 300.96606445 C-109.1039243 307.35875859 -110.79091266 313.70907216 -112.08203125 320.359375 C-112.39938232 321.95519409 -112.39938232 321.95519409 -112.72314453 323.58325195 C-114.51058657 332.96563894 -115.61691476 342.39864569 -116.68499756 351.8838501 C-118.00732789 363.43419205 -120.24492916 374.5479895 -123.12060547 385.81323242 C-127.14996409 401.72054697 -130.18983707 419.07134418 -125.58203125 435.171875 C-125.24945313 436.34943359 -125.24945313 436.34943359 -124.91015625 437.55078125 C-120.0875053 451.72300549 -108.00189431 462.52926921 -96.671875 471.65234375 C-93.25793469 474.43615096 -89.91668789 477.29413263 -86.58203125 480.171875 C-81.52646896 484.52676131 -76.42305695 488.8105255 -71.23828125 493.01171875 C-69.39408715 494.51148248 -67.56150065 496.0255881 -65.73828125 497.55078125 C-54.58220596 506.85261875 -44.62618847 513.55481718 -29.58203125 513.171875 C-23.75087157 512.30324803 -18.5870908 510.60897665 -13.39453125 507.796875 C-12.70238525 507.42602783 -12.01023926 507.05518066 -11.29711914 506.6730957 C7.4727762 496.25065092 25.63483831 483.53083115 42.41796875 470.171875 C42.94358398 469.75373535 43.46919922 469.3355957 44.01074219 468.90478516 C46.39732944 466.99536554 48.76012937 465.06222682 51.1015625 463.09765625 C52.47923578 461.95230562 53.88111951 460.83374653 55.328125 459.77734375 C65.61478106 452.02134568 72.47183653 437.66997181 74.41796875 425.171875 C74.63487292 422.27519113 74.69461704 419.38836352 74.73046875 416.484375 C74.75947266 415.75154297 74.78847656 415.01871094 74.81835938 414.26367188 C74.98945654 398.40428094 68.87537292 382.63310948 63.91796875 367.796875 C63.29892539 365.92542157 62.68052789 364.05375439 62.06274414 362.18188477 C60.80451056 358.374071 59.54105588 354.56804552 58.27392578 350.76318359 C56.77804139 346.26618296 55.30085295 341.7633904 53.83346558 337.25701904 C52.76521814 333.97800679 51.69043093 330.70116213 50.61425781 327.42474365 C50.1153666 325.90242719 49.61871796 324.37937363 49.12451172 322.85552979 C43.68285919 304.79890586 43.68285919 304.79890586 31.41796875 291.171875 C28.71058886 290.86374837 26.09699572 290.67298124 23.38037109 290.57055664 C22.54706961 290.53345361 21.71376812 290.49635057 20.85521507 290.45812321 C2.89079905 289.72446051 -15.1073046 289.75856856 -33.08357811 289.67524624 C-39.7127558 289.64448518 -46.34105914 289.59870834 -52.96972656 289.51342773 C-59.43023892 289.43171278 -65.8899093 289.38884624 -72.35091019 289.37391853 C-74.80304283 289.36166485 -77.25514711 289.33561891 -79.70698166 289.29546928 C-83.11996865 289.24225844 -86.52956009 289.23897154 -89.94287109 289.24780273 C-90.95167831 289.22061157 -91.96048553 289.19342041 -92.99986267 289.16540527 C-99.38288121 289.250784 -101.82630576 290.39799937 -104.73776436 296.18149185 Z " fill="#11110E" transform="translate(133.58203125,10.828125)"/>
</svg>
