<?xml version="1.0" encoding="UTF-8"?>
<svg version="1.1" xmlns="http://www.w3.org/2000/svg" width="188" height="535">
<path d="M0 0 C10.12072102 7.84048925 14.36137802 18.76186358 16.54296875 31.0859375 C17.28178725 37.41325493 17.2436809 43.63722092 17 50 C17.77085937 50.13019531 18.54171875 50.26039062 19.3359375 50.39453125 C23.82422956 51.41459763 26.20261964 53.87266915 28.8125 57.5625 C30.78824593 63.28176452 31.10221899 69.27345829 28.8125 74.9375 C26.69632971 77.34555584 24.6824391 79.23351572 22 81 C20.68 81 19.36 81 18 81 C18 85.62 18 90.24 18 95 C19.65 95.66 21.3 96.32 23 97 C26.10314208 99.883728 28.84224517 103.11604333 29.203125 107.42578125 C29.36143309 117.17492097 29.36143309 117.17492097 26 121 C21.67567568 125 21.67567568 125 18 125 C18 128.3 18 131.6 18 135 C19.0828125 135.3403125 19.0828125 135.3403125 20.1875 135.6875 C24.37987526 137.64394179 27.01824356 140.34886416 29.375 144.3125 C30.43042109 148.85081069 30.08215536 152.82270342 28.0234375 156.96484375 C25.84337909 160.29119094 24.46486982 161.7943845 20.75 163.4375 C17.85902211 164.66447057 17.85902211 164.66447057 17.3984375 166.953125 C17.06006775 169.44357774 17.06006775 169.44357774 17 173 C18.36125 173.3403125 18.36125 173.3403125 19.75 173.6875 C24.0826072 175.43720675 25.74905849 177.9016465 28.08984375 181.828125 C30.25536839 186.99564302 29.60777209 193.17668373 27.875 198.375 C25.544766 201.6373276 23.25089203 203.64829087 20 206 C19.34 206 18.68 206 18 206 C18 208.31 18 210.62 18 213 C18.556875 213.226875 19.11375 213.45375 19.6875 213.6875 C24.74269784 216.55666634 28.01794898 220.57543931 30 226 C30.98445803 232.45900515 29.8117174 237.69244395 26 243 C24.78584273 243.89149217 23.55031492 244.75448483 22.296875 245.58984375 C20.02218854 247.48903018 19.0971975 248.35811826 18.64868164 251.32006836 C18.84422516 254.06991539 19.27008065 256.67241938 19.8125 259.375 C19.95365234 260.2825 20.09480469 261.19 20.24023438 262.125 C21.97835341 272.21918083 26.70672651 282.35302229 35.25 288.4375 C41.79715331 294.5382565 41.01218443 307.87601238 41.953125 316.5234375 C42.13538241 318.16608723 42.31801885 319.80869495 42.50100708 321.45126343 C42.98932585 325.8478295 43.47106317 330.24509274 43.95116425 334.64256287 C44.25073338 337.38170578 44.55219424 340.12063384 44.85430908 342.85949707 C48.06616777 371.98081636 51.14408242 401.11405367 54.02305603 430.27029419 C54.5950264 436.0430957 55.19090259 441.81252434 55.8137207 447.58007812 C55.95069366 448.86126526 56.08766663 450.14245239 56.22879028 451.46246338 C56.49099953 453.90706876 56.75724427 456.35124649 57.02853394 458.79486084 C61.15612391 497.46015401 61.15612391 497.46015401 51.375 512.4375 C44.43178918 520.72737891 33.45877615 524.66609288 23 526 C7.7630051 526.76928968 -7.05521878 526.01407352 -22 523 C-22.97485352 522.80664062 -23.94970703 522.61328125 -24.95410156 522.4140625 C-49.2700106 517.47620319 -72.72361643 509.97000671 -95 499 C-96.09570312 498.46632813 -97.19140625 497.93265625 -98.3203125 497.3828125 C-111.99232972 490.33734402 -122.37527667 480.33553676 -127.5 465.625 C-131.34151224 452.99780698 -130.75445181 439.49855034 -128.76782227 426.58911133 C-128.63572389 425.72438863 -128.50362551 424.85966593 -128.36752415 423.96873951 C-126.9226732 414.92793579 -124.7633543 406.11686049 -122.46484375 397.26171875 C-122.02141264 395.52306913 -121.57885464 393.78419663 -121.13710022 392.04512024 C-119.98076258 387.50259927 -118.81279123 382.96315352 -117.64208984 378.42431641 C-116.48667946 373.9363918 -115.34236546 369.4456424 -114.19726562 364.95507812 C-112.83573105 359.61716884 -111.471158 354.28011258 -110.09286499 348.94650269 C-108.01042003 340.88411457 -105.94395677 332.81972918 -103.96747875 324.7305975 C-103.09311069 321.15560309 -102.20700924 317.5835605 -101.32019234 314.01163673 C-100.90755703 312.33519947 -100.50070545 310.65732583 -100.10023308 308.97794151 C-97.40770828 297.69504226 -93.9248017 288.79469278 -86.5625 279.6875 C-84.28002577 276.81871149 -84.28002577 276.81871149 -84.0625 273.1875 C-84.5265625 272.1046875 -84.5265625 272.1046875 -85 271 C-86.46039363 266.61881912 -86.73960555 262.5689651 -86 258 C-84.42963696 255.15083969 -82.60466859 252.95350144 -80 251 C-78.68 250.67 -77.36 250.34 -76 250 C-76 242.41 -76 234.82 -76 227 C-77.32 226.67 -78.64 226.34 -80 226 C-85.19218355 221.69428681 -87.66789394 217.15500758 -88.375 210.4375 C-87.81838933 205.33523553 -86.29856538 202.26439261 -82.625 198.6875 C-79.94605281 196.96531967 -78.0926578 196.52233852 -75 196 C-74.77332615 188.50292043 -74.77332615 188.50292043 -77.5546875 181.78515625 C-79.39014916 179.99547926 -79.39014916 179.99547926 -81.30859375 178.5 C-83.89706694 176.20444872 -84.81701489 174.05040494 -85.40625 170.66796875 C-85.58838087 165.8490894 -85.37315497 162.75468941 -82.25 158.9375 C-79.72149704 156.2238289 -78.85285509 155.96321377 -75 155 C-75 151.7 -75 148.4 -75 145 C-76.11375 144.6596875 -76.11375 144.6596875 -77.25 144.3125 C-80.55765809 142.733845 -81.94858409 141.00385901 -84 138 C-85.66619387 133.0014184 -85.62822535 128.6862891 -83.8125 123.8125 C-81.83441958 120.74306486 -79.75078128 118.39811702 -77 116 C-76.34 116 -75.68 116 -75 116 C-75 112.04 -75 108.08 -75 104 C-76.32 103.34 -77.64 102.68 -79 102 C-83.41683368 97.06353883 -85.59194238 93.08428452 -85.44921875 86.453125 C-84.62387583 81.94603496 -82.17031258 78.25283699 -79 75 C-76.29296875 73.74609375 -76.29296875 73.74609375 -74 73 C-74.01324604 69.90042571 -74.19241507 67.00108979 -75 64 C-77.75954128 61.66030012 -77.75954128 61.66030012 -81 60 C-85.18504125 55.58245645 -86.7737165 51.5343752 -87.3125 45.5 C-86.87453077 40.59474461 -85.19396967 37.52334062 -82.1875 33.6875 C-79.48492196 31.60265409 -77.35987976 31.30544361 -74 31 C-73.92523438 30.34515625 -73.85046875 29.6903125 -73.7734375 29.015625 C-72.21814777 18.2200845 -67.7936378 7.35912464 -59.0390625 0.453125 C-41.02991164 -12.31125561 -18.32092182 -12.39273448 0 0 Z " fill="#C1BFBE" transform="translate(130,9)"/>
<path d="M0 0 C0.93727432 -0.0021904 1.87454865 -0.0043808 2.84022522 -0.00663757 C5.94641171 -0.00895268 9.05165406 0.01735653 12.15771484 0.04418945 C14.32847799 0.04911733 16.49924539 0.05241362 18.67001343 0.05415344 C23.23148077 0.06180394 27.79263555 0.08237741 32.35400391 0.11328125 C38.15221318 0.15252719 43.95021788 0.17083932 49.74854469 0.18059063 C55.32246157 0.19066671 60.8963308 0.21047342 66.47021484 0.23168945 C68.03350462 0.23678308 68.03350462 0.23678308 69.62837601 0.2419796 C79.7823829 0.28179502 89.9290545 0.3834681 100.07324219 0.85986328 C100.82573053 0.88980472 101.57821888 0.91974615 102.3535099 0.9505949 C107.5065409 1.23285926 107.5065409 1.23285926 109.74365234 3.4699707 C110.26846313 6.29994202 110.26846313 6.29994202 110.66015625 9.97021484 C110.77110186 10.97317124 110.77110186 10.97317124 110.88428879 11.99638939 C111.12931283 14.2276733 111.36210291 16.46006967 111.59521484 18.69262695 C111.76695245 20.27451937 111.93962821 21.85631019 112.1131897 23.43800354 C112.47787457 26.76804291 112.83845545 30.09849112 113.19641113 33.42926025 C113.96997261 40.59487218 114.79746475 47.75424272 115.62077904 54.91427231 C119.18729936 85.99411055 122.70534399 117.08328374 125.91558838 148.20217896 C126.17083819 150.66458773 126.43006831 153.12658803 126.69378662 155.58810425 C127.97104663 167.55660017 128.96942146 179.4589584 129.08349609 191.5012207 C129.09949356 192.46040405 129.11549103 193.4195874 129.13197327 194.40783691 C129.1029884 202.71188696 127.65695768 211.20288301 122.36865234 217.8762207 C112.14054236 227.90763626 98.63172182 228.97803187 85.05566406 228.88745117 C49.25901186 227.98214376 -4.16140709 216.90369927 -31.25634766 191.4699707 C-32.31015625 190.54958008 -32.31015625 190.54958008 -33.38525391 189.6105957 C-42.86826287 180.87854325 -46.50858295 169.63777087 -47.54150391 156.97387695 C-47.99006329 138.8559783 -43.17853821 121.17295482 -38.70556641 103.7668457 C-38.16299875 101.62967967 -37.62116996 99.49232594 -37.08003235 97.35479736 C-35.66460821 91.77236274 -34.23892924 86.19259829 -32.81103516 80.61334229 C-31.37540524 74.99561167 -29.95030017 69.37521317 -28.52392578 63.75512695 C-23.17488591 42.70019842 -23.17488591 42.70019842 -20.72689819 33.22277832 C-19.68334535 29.1726073 -18.67921021 25.11449869 -17.69229126 21.0501709 C-17.17305049 18.95605076 -16.65379436 16.86193444 -16.13452148 14.76782227 C-15.9048125 13.79391415 -15.67510351 12.82000603 -15.43843365 11.81658554 C-14.52055194 8.15957101 -13.63098986 5.08157776 -11.65498352 1.85572815 C-7.8763822 -0.32727303 -4.28856931 -0.06221166 0 0 Z " fill="#FFFFFF" transform="translate(53.25634765625,300.530029296875)"/>
<path d="M0 0 C10.12072102 7.84048925 14.36137802 18.76186358 16.54296875 31.0859375 C17.28178725 37.41325493 17.2436809 43.63722092 17 50 C17.77085937 50.13019531 18.54171875 50.26039062 19.3359375 50.39453125 C23.82422956 51.41459763 26.20261964 53.87266915 28.8125 57.5625 C30.78824593 63.28176452 31.10221899 69.27345829 28.8125 74.9375 C26.69632971 77.34555584 24.6824391 79.23351572 22 81 C20.68 81 19.36 81 18 81 C18 85.62 18 90.24 18 95 C19.65 95.66 21.3 96.32 23 97 C26.10314208 99.883728 28.84224517 103.11604333 29.203125 107.42578125 C29.36143309 117.17492097 29.36143309 117.17492097 26 121 C21.67567568 125 21.67567568 125 18 125 C18 128.3 18 131.6 18 135 C19.0828125 135.3403125 19.0828125 135.3403125 20.1875 135.6875 C24.37987526 137.64394179 27.01824356 140.34886416 29.375 144.3125 C30.43042109 148.85081069 30.08215536 152.82270342 28.0234375 156.96484375 C25.84337909 160.29119094 24.46486982 161.7943845 20.75 163.4375 C17.85902211 164.66447057 17.85902211 164.66447057 17.3984375 166.953125 C17.06006775 169.44357774 17.06006775 169.44357774 17 173 C18.36125 173.3403125 18.36125 173.3403125 19.75 173.6875 C24.0826072 175.43720675 25.74905849 177.9016465 28.08984375 181.828125 C30.25536839 186.99564302 29.60777209 193.17668373 27.875 198.375 C25.544766 201.6373276 23.25089203 203.64829087 20 206 C19.34 206 18.68 206 18 206 C18 208.31 18 210.62 18 213 C18.556875 213.226875 19.11375 213.45375 19.6875 213.6875 C24.74269784 216.55666634 28.01794898 220.57543931 30 226 C30.98445803 232.45900515 29.8117174 237.69244395 26 243 C24.78584273 243.89149217 23.55031492 244.75448483 22.296875 245.58984375 C20.02218854 247.48903018 19.0971975 248.35811826 18.64868164 251.32006836 C18.84422516 254.06991539 19.27008065 256.67241938 19.8125 259.375 C19.95365234 260.2825 20.09480469 261.19 20.24023438 262.125 C21.97835341 272.21918083 26.70672651 282.35302229 35.25 288.4375 C41.79715331 294.5382565 41.01218443 307.87601238 41.953125 316.5234375 C42.13538241 318.16608723 42.31801885 319.80869495 42.50100708 321.45126343 C42.98932585 325.8478295 43.47106317 330.24509274 43.95116425 334.64256287 C44.25073338 337.38170578 44.55219424 340.12063384 44.85430908 342.85949707 C48.06616777 371.98081636 51.14408242 401.11405367 54.02305603 430.27029419 C54.5950264 436.0430957 55.19090259 441.81252434 55.8137207 447.58007812 C55.95069366 448.86126526 56.08766663 450.14245239 56.22879028 451.46246338 C56.49099953 453.90706876 56.75724427 456.35124649 57.02853394 458.79486084 C61.15612391 497.46015401 61.15612391 497.46015401 51.375 512.4375 C44.43178918 520.72737891 33.45877615 524.66609288 23 526 C7.7630051 526.76928968 -7.05521878 526.01407352 -22 523 C-22.97485352 522.80664062 -23.94970703 522.61328125 -24.95410156 522.4140625 C-49.2700106 517.47620319 -72.72361643 509.97000671 -95 499 C-96.09570312 498.46632813 -97.19140625 497.93265625 -98.3203125 497.3828125 C-111.99232972 490.33734402 -122.37527667 480.33553676 -127.5 465.625 C-131.34151224 452.99780698 -130.75445181 439.49855034 -128.76782227 426.58911133 C-128.63572389 425.72438863 -128.50362551 424.85966593 -128.36752415 423.96873951 C-126.9226732 414.92793579 -124.7633543 406.11686049 -122.46484375 397.26171875 C-122.02141264 395.52306913 -121.57885464 393.78419663 -121.13710022 392.04512024 C-119.98076258 387.50259927 -118.81279123 382.96315352 -117.64208984 378.42431641 C-116.48667946 373.9363918 -115.34236546 369.4456424 -114.19726562 364.95507812 C-112.83573105 359.61716884 -111.471158 354.28011258 -110.09286499 348.94650269 C-108.01042003 340.88411457 -105.94395677 332.81972918 -103.96747875 324.7305975 C-103.09311069 321.15560309 -102.20700924 317.5835605 -101.32019234 314.01163673 C-100.90755703 312.33519947 -100.50070545 310.65732583 -100.10023308 308.97794151 C-97.40770828 297.69504226 -93.9248017 288.79469278 -86.5625 279.6875 C-84.28002577 276.81871149 -84.28002577 276.81871149 -84.0625 273.1875 C-84.5265625 272.1046875 -84.5265625 272.1046875 -85 271 C-86.46039363 266.61881912 -86.73960555 262.5689651 -86 258 C-84.42963696 255.15083969 -82.60466859 252.95350144 -80 251 C-78.68 250.67 -77.36 250.34 -76 250 C-76 242.41 -76 234.82 -76 227 C-77.32 226.67 -78.64 226.34 -80 226 C-85.19218355 221.69428681 -87.66789394 217.15500758 -88.375 210.4375 C-87.81838933 205.33523553 -86.29856538 202.26439261 -82.625 198.6875 C-79.94605281 196.96531967 -78.0926578 196.52233852 -75 196 C-74.77332615 188.50292043 -74.77332615 188.50292043 -77.5546875 181.78515625 C-79.39014916 179.99547926 -79.39014916 179.99547926 -81.30859375 178.5 C-83.89706694 176.20444872 -84.81701489 174.05040494 -85.40625 170.66796875 C-85.58838087 165.8490894 -85.37315497 162.75468941 -82.25 158.9375 C-79.72149704 156.2238289 -78.85285509 155.96321377 -75 155 C-75 151.7 -75 148.4 -75 145 C-76.11375 144.6596875 -76.11375 144.6596875 -77.25 144.3125 C-80.55765809 142.733845 -81.94858409 141.00385901 -84 138 C-85.66619387 133.0014184 -85.62822535 128.6862891 -83.8125 123.8125 C-81.83441958 120.74306486 -79.75078128 118.39811702 -77 116 C-76.34 116 -75.68 116 -75 116 C-75 112.04 -75 108.08 -75 104 C-76.32 103.34 -77.64 102.68 -79 102 C-83.41683368 97.06353883 -85.59194238 93.08428452 -85.44921875 86.453125 C-84.62387583 81.94603496 -82.17031258 78.25283699 -79 75 C-76.29296875 73.74609375 -76.29296875 73.74609375 -74 73 C-74.01324604 69.90042571 -74.19241507 67.00108979 -75 64 C-77.75954128 61.66030012 -77.75954128 61.66030012 -81 60 C-85.18504125 55.58245645 -86.7737165 51.5343752 -87.3125 45.5 C-86.87453077 40.59474461 -85.19396967 37.52334062 -82.1875 33.6875 C-79.48492196 31.60265409 -77.35987976 31.30544361 -74 31 C-73.92523438 30.34515625 -73.85046875 29.6903125 -73.7734375 29.015625 C-72.21814777 18.2200845 -67.7936378 7.35912464 -59.0390625 0.453125 C-41.02991164 -12.31125561 -18.32092182 -12.39273448 0 0 Z M-59.3984375 9.984375 C-65.27565095 17.38106314 -68.47192449 26.56151012 -68 36 C-69.8253125 36.061875 -69.8253125 36.061875 -71.6875 36.125 C-75.30346758 36.59468974 -76.07837351 37.06557783 -79.0625 39.5625 C-81.17883038 43.31727971 -81.54128887 44.93044964 -80.71484375 49.0390625 C-79.21085869 53.1647483 -76.56819559 55.98528521 -72.875 58.375 C-70.85506227 59.15811388 -70.85506227 59.15811388 -68 59 C-67.88054728 74.47765941 -67.88054728 74.47765941 -70.51953125 78.06640625 C-72.30015086 79.20225413 -74.09495324 80.09488729 -76 81 C-78.61754132 84.10833031 -79.01054685 85.40937614 -78.9375 89.5 C-77.90590992 93.35126964 -76.84629644 95.23276735 -74 98 C-72.35 98.66 -70.7 99.32 -69 100 C-69 106.6 -69 113.2 -69 120 C-71.475 120.99 -71.475 120.99 -74 122 C-77.44125535 125.21682565 -78.95753295 126.78968911 -79.125 131.5625 C-77.80038743 135.60992729 -76.36481789 137.4176979 -73 140 C-71.68 140 -70.36 140 -69 140 C-69.33 146.27 -69.66 152.54 -70 159 C-71.98 159.99 -73.96 160.98 -76 162 C-78.53669398 163.77568578 -78.91663908 164.64154804 -79.625 167.6875 C-78.69441564 172.61959712 -75.68424661 175.69443398 -72 179 C-71.01 179.33 -70.02 179.66 -69 180 C-69 187.26 -69 194.52 -69 202 C-71.31 202 -73.62 202 -76 202 C-78.60248618 202.84404957 -79.64196906 203.5396745 -81.3125 205.6875 C-82.60461036 210.03368939 -81.56418792 213.79102588 -79.6875 217.8125 C-77.86231148 220.17848512 -76.82495107 221.08604524 -74 222 C-71.33290931 222.16750414 -71.33290931 222.16750414 -69 222 C-69.16371094 222.88816406 -69.32742187 223.77632812 -69.49609375 224.69140625 C-70.31302746 230.40994221 -70.10509035 236.174698 -70.0625 241.9375 C-70.05798828 243.09830078 -70.05347656 244.25910156 -70.04882812 245.45507812 C-70.03710647 248.30343934 -70.0206976 251.15169222 -70 254 C-70.93972656 254.29777344 -71.87945312 254.59554688 -72.84765625 254.90234375 C-76.40835663 256.14219109 -77.95905718 256.8161292 -80 260 C-80.18049488 264.19062036 -79.42689865 267.93275337 -77.875 271.8125 C-77 274 -77 274 -78 278 C-80.475 281.96 -80.475 281.96 -83 286 C-48.02 286 -13.04 286 23 286 C21.02 282.7 19.04 279.4 17 276 C15.85986328 272.01904297 15.85986328 272.01904297 15.3203125 268.2421875 C15.21782196 267.56825958 15.11533142 266.89433167 15.00973511 266.19998169 C14.69418682 264.09404988 14.40903459 261.98538673 14.125 259.875 C13.91347784 258.42678693 13.6999495 256.9788654 13.484375 255.53125 C12.96645305 252.0238856 12.47564364 248.51337845 12 245 C12.93199219 244.55914062 13.86398438 244.11828125 14.82421875 243.6640625 C19.34327272 241.29614492 22.03026735 238.63143533 23.77734375 233.890625 C24.53927523 230.23839146 24.57698879 227.98695451 22.6640625 224.71484375 C19.45051255 220.84876073 16.79707623 218.65158853 12 217 C12.00600826 214.55764178 12.05328457 212.12806579 12.125 209.6875 C12.12113281 208.65206055 12.12113281 208.65206055 12.1171875 207.59570312 C12.1953125 205.57421875 12.1953125 205.57421875 13 202 C15.94140625 200.11328125 15.94140625 200.11328125 19 199 C21.4656856 196.95943261 21.95657975 196.13026076 23 193 C23.40109454 188.74839783 23.26378256 186.4993027 21.25 182.6875 C19.14793939 180.17670539 18.07365268 178.96051646 15 178 C13.68 178 12.36 178 11 178 C11.33 172.06 11.66 166.12 12 160 C14.31 159.01 16.62 158.02 19 157 C21.58623374 154.95823652 22.75745495 153.63061714 23.9375 150.5625 C24.0232736 147.04578252 23.23088111 145.71888635 21 143 C16.86039305 140.02071572 16.86039305 140.02071572 12 139 C12 132.73 12 126.46 12 120 C15.465 119.505 15.465 119.505 19 119 C22.11898986 116.28088063 22.89409552 114.64719407 23.5625 110.5625 C22.83873125 105.97863124 21.40778595 104.11145673 18 101 C16.02 100.67 14.04 100.34 12 100 C12 91.75 12 83.5 12 75 C14.64 75 17.28 75 20 75 C22.68620182 73.73061576 22.68620182 73.73061576 24 71 C24.82060796 66.41827221 24.64985679 63.09083105 22.25 59.0625 C18.63697567 55.75056103 16.97034428 55 12 55 C11.94392578 53.18628906 11.94392578 53.18628906 11.88671875 51.3359375 C11.32050932 36.16494702 10.59142431 20.14817825 -0.0625 8.25 C-8.85064037 0.15112554 -20.61171442 -3.54264374 -32.390625 -3.25 C-43.21837131 -2.21261113 -51.93399581 2.14500702 -59.3984375 9.984375 Z M-88.45402527 293.6289978 C-90.33834504 296.51890682 -91.14604739 299.0571961 -91.99194336 302.40600586 C-92.2398432 303.36337458 -92.2398432 303.36337458 -92.49275112 304.34008408 C-93.03851092 306.46183503 -93.5641599 308.58803771 -94.08984375 310.71484375 C-94.47381317 312.22489276 -94.85898161 313.73463733 -95.24526978 315.24409485 C-96.27882323 319.29798621 -97.2947954 323.3560912 -98.30699539 327.4153595 C-99.35892319 331.62327435 -100.42553512 335.827467 -101.48999023 340.03222656 C-103.41073099 347.63087016 -105.31588684 355.23331873 -107.21254253 362.83800697 C-108.51191358 368.04775687 -109.81648652 373.25616368 -111.12597656 378.46337891 C-112.67125176 384.61015645 -114.20721073 390.75919689 -115.7336731 396.91067505 C-116.28008557 399.1121586 -116.82812346 401.31323944 -117.37789917 403.5138855 C-125.91511754 437.30211436 -125.91511754 437.30211436 -118.71484375 470.69140625 C-117.28823626 472.97636254 -115.76257028 474.96413231 -114 477 C-113.37480469 477.74507812 -112.74960938 478.49015625 -112.10546875 479.2578125 C-87.52971702 506.15891365 -33.01795215 518.18949311 1.90136719 520.1640625 C17.06385627 520.75080829 31.49497917 520.74656035 44 511 C50.44060668 504.68325114 52.35041355 495.35843057 52.46485901 486.62039185 C52.44938271 485.25755569 52.44938271 485.25755569 52.43359375 483.8671875 C52.42653915 482.85365204 52.41948456 481.84011658 52.41221619 480.79586792 C52.10025201 464.77848689 50.10079281 448.82960014 48.36568069 432.91827393 C47.85119313 428.17818088 47.35031346 423.43664609 46.84741211 418.6953125 C45.90123363 409.7973172 44.94089291 400.90090899 43.9750967 392.00502396 C43.21736848 385.02068162 42.46757996 378.03552376 41.72265625 371.04980469 C40.60837967 360.60124735 39.48455214 350.15375024 38.35465622 339.70687103 C38.06329582 337.00737335 37.77366571 334.30769466 37.48440552 331.60797119 C37.03050212 327.37640894 36.57021623 323.14558735 36.10498047 318.9152565 C35.93594277 317.3697178 35.76895762 315.82395297 35.60421753 314.27795029 C35.37867863 312.16509524 35.14550229 310.05321557 34.91040039 307.94140625 C34.71795494 306.17325562 34.71795494 306.17325562 34.5216217 304.36938477 C33.81527126 298.22668855 33.81527126 298.22668855 31 293 C28.45727748 292.75652937 25.94159395 292.58079588 23.39208984 292.45239258 C22.59148825 292.41049459 21.79088665 292.36859659 20.9660244 292.32542896 C10.55789228 291.82658698 0.14463548 291.79566366 -10.2734375 291.76171875 C-11.34416126 291.75764322 -12.41488503 291.7535677 -13.51805496 291.74936867 C-19.15721682 291.7287268 -24.79635574 291.71431767 -30.43554688 291.70483398 C-36.25056631 291.69365264 -42.06521534 291.65905887 -47.88010216 291.61966228 C-52.37186414 291.59359828 -56.86353479 291.58515261 -61.35536575 291.58155251 C-63.5012228 291.57668117 -65.64707562 291.56505169 -67.79285812 291.54651451 C-70.77676864 291.52228165 -73.75967451 291.52305578 -76.74365234 291.5300293 C-77.62671555 291.51721924 -78.50977875 291.50440918 -79.41960144 291.49121094 C-83.13034356 291.52292432 -85.31500026 291.54529275 -88.45402527 293.6289978 Z " fill="#11110E" transform="translate(130,9)"/>
</svg>
