<?xml version="1.0" encoding="UTF-8"?>
<svg version="1.1" xmlns="http://www.w3.org/2000/svg" width="213" height="524">
<path d="M0 0 C10.76270584 9.09207688 14.85778754 19.33209856 16.9296875 33.0234375 C17.32562079 38.01219695 17.32492818 42.95972324 17.2421875 47.9609375 C18.00402344 48.09371094 18.76585937 48.22648437 19.55078125 48.36328125 C23.81251799 49.30964659 26.95850239 51.14402934 29.51171875 54.7578125 C31.95743866 59.21714633 32.90939901 62.81387731 32.2421875 67.9609375 C30.50830208 72.615051 28.45627955 75.3148797 24.2421875 77.9609375 C21.2721875 78.4559375 21.2721875 78.4559375 18.2421875 78.9609375 C18.2421875 83.5809375 18.2421875 88.2009375 18.2421875 92.9609375 C21.2121875 93.9509375 21.2121875 93.9509375 24.2421875 94.9609375 C28.35967178 99.07842178 31.10543823 102.9549883 31.30859375 108.90625 C30.9731601 114.25285908 29.22433066 117.23849933 25.2421875 120.9609375 C22.93288263 122.22794742 20.74104324 123.07898842 18.2421875 123.9609375 C18.2421875 126.6009375 18.2421875 129.2409375 18.2421875 131.9609375 C19.2940625 132.5178125 20.3459375 133.0746875 21.4296875 133.6484375 C29.45488118 138.3365831 29.45488118 138.3365831 30.875 143.0703125 C31.68452104 148.20302035 31.33252354 151.61515244 28.2421875 155.9609375 C25.14544159 159.0722907 22.44061995 161.56146002 18.2421875 162.9609375 C17.9121875 165.6009375 17.5821875 168.2409375 17.2421875 170.9609375 C18.1084375 171.1465625 18.9746875 171.3321875 19.8671875 171.5234375 C24.7020147 173.58271575 27.89336295 177.26328839 30.2421875 181.9609375 C30.96437258 189.09991459 30.69178985 194.22329236 26.2421875 199.9609375 C21.11398237 203.9609375 21.11398237 203.9609375 18.2421875 203.9609375 C18.2421875 206.2709375 18.2421875 208.5809375 18.2421875 210.9609375 C18.9228125 211.1259375 19.6034375 211.2909375 20.3046875 211.4609375 C24.99374547 213.85535008 28.87808619 218.23273489 31.2421875 222.9609375 C32.00500863 229.68876979 31.48399735 235.50718198 27.2421875 240.9609375 C24.72246404 243.21137753 22.08472933 245.13950293 19.2421875 246.9609375 C19.53008138 249.08645192 19.82273123 251.21132225 20.1171875 253.3359375 C20.27960938 254.51929688 20.44203125 255.70265625 20.609375 256.921875 C20.71338623 257.56133057 20.81739746 258.20078613 20.92456055 258.85961914 C21.14934579 260.34672645 21.31717422 261.84295862 21.44458008 263.34155273 C22.41891394 271.26003401 26.43138371 275.05299351 32.1796875 280.2734375 C33.81800558 281.80671877 35.45227412 283.34434096 37.08203125 284.88671875 C37.80769287 285.55098877 38.53335449 286.21525879 39.28100586 286.8996582 C41.37245796 289.0978569 42.75517367 291.32546742 44.2421875 293.9609375 C45.43896152 295.55302601 46.64820342 297.13578935 47.8671875 298.7109375 C65.84886759 323.41104752 74.65483815 355.12481733 79.2421875 384.9609375 C79.37238281 385.73050781 79.50257813 386.50007813 79.63671875 387.29296875 C80.37715259 392.45626069 80.40547449 397.69033694 80.4921875 402.8984375 C80.52445435 404.00807861 80.52445435 404.00807861 80.55737305 405.14013672 C80.61656996 415.31083703 76.82719935 423.46716323 71.7421875 432.0859375 C71.21391357 432.9924707 70.68563965 433.89900391 70.14135742 434.83300781 C60.19048908 451.70512274 49.75450958 464.81987562 34.2421875 476.9609375 C33.29762695 477.7041626 33.29762695 477.7041626 32.33398438 478.46240234 C20.0012662 488.13598859 7.43073597 497.1303313 -6.1953125 504.8984375 C-6.833479 505.26420898 -7.47164551 505.62998047 -8.12915039 506.00683594 C-20.10934513 512.67792758 -31.31034546 514.36442297 -44.7578125 510.9609375 C-55.2811986 507.49359447 -64.22706387 500.742163 -72.23828125 493.2734375 C-75.65048715 490.14161441 -79.24120587 487.25717475 -82.83984375 484.34375 C-86.5713192 481.29662815 -90.23978233 478.17890548 -93.90795898 475.05615234 C-97.44171578 472.05459101 -101.02172615 469.11959335 -104.6328125 466.2109375 C-118.4238073 454.9110906 -129.81432822 441.19298053 -132.47265625 423.0234375 C-134.33547694 403.01725367 -130.03596217 383.76202279 -125.39648438 364.38574219 C-123.56610011 356.67069501 -121.89473434 348.93261477 -120.2890625 341.16796875 C-120.07126129 340.11475433 -119.85346008 339.06153992 -119.62905884 337.97640991 C-118.53247528 332.66150119 -117.44366489 327.34507103 -116.36083984 322.02734375 C-109.67999667 289.38511212 -109.67999667 289.38511212 -100.7109375 279.765625 C-98.77444002 277.55141277 -97.10913349 275.57624922 -95.7578125 272.9609375 C-96.01647574 270.60175036 -96.74886812 269.03772635 -97.828125 266.93359375 C-99.47528044 263.43857905 -99.1900603 260.78941804 -98.7578125 256.9609375 C-95.95206258 251.12497767 -93.82658318 250.42880646 -87.7578125 246.9609375 C-87.7578125 240.0309375 -87.7578125 233.1009375 -87.7578125 225.9609375 C-90.0678125 224.6409375 -92.3778125 223.3209375 -94.7578125 221.9609375 C-98.52686837 218.09001526 -100.70535657 214.25400438 -100.79296875 208.75390625 C-100.54137466 205.05363212 -99.98417535 202.39479963 -98.2578125 199.0859375 C-94.79120236 196.13931888 -91.11006599 195.10479899 -86.7578125 193.9609375 C-86.76941406 193.26226562 -86.78101563 192.56359375 -86.79296875 191.84375 C-86.80199219 190.93367187 -86.81101563 190.02359375 -86.8203125 189.0859375 C-86.83191406 188.18101562 -86.84351563 187.27609375 -86.85546875 186.34375 C-86.7578125 183.9609375 -86.7578125 183.9609375 -85.7578125 181.9609375 C-86.34175781 181.70441406 -86.92570312 181.44789063 -87.52734375 181.18359375 C-92.08923281 178.68294353 -95.8162378 174.60458953 -97.5703125 169.6796875 C-98.34433368 164.97105863 -97.78758949 161.46464915 -95.1484375 157.46875 C-92.72245205 154.83832757 -89.96673628 153.50368932 -86.7578125 151.9609375 C-86.34292222 147.92140546 -86.34292222 147.92140546 -86.7578125 143.9609375 C-89.50092256 141.74302311 -89.50092256 141.74302311 -92.7578125 139.9609375 C-96.84301915 135.55321453 -97.54682392 131.55819178 -97.34765625 125.7265625 C-96.34278913 121.01500009 -93.54235788 117.83780736 -89.7578125 114.9609375 C-87.5234375 114.25 -87.5234375 114.25 -85.7578125 113.9609375 C-85.48623738 106.90389241 -85.48623738 106.90389241 -88.53515625 100.8125 C-90.65284339 99.01339974 -90.65284339 99.01339974 -92.84765625 97.49609375 C-95.76664881 95.15015495 -96.59495856 93.08034407 -97.12890625 89.41015625 C-97.26778088 83.63460543 -96.93574129 79.82364393 -93.1953125 75.296875 C-91.7578125 73.9609375 -91.7578125 73.9609375 -89.0703125 72.5859375 C-86.22725432 70.58811284 -86.17706978 69.58695814 -85.4453125 66.2734375 C-85.19599585 64.83929496 -84.9602876 63.4024393 -84.7578125 61.9609375 C-85.6034375 61.7959375 -86.4490625 61.6309375 -87.3203125 61.4609375 C-93.02456833 58.97180768 -96.50469375 54.46717499 -99.2578125 48.9609375 C-100.15945761 43.55106686 -99.56397173 39.54339821 -97.0703125 34.6484375 C-94.48255341 31.6410418 -92.45709541 30.34816859 -88.7578125 28.9609375 C-87.4378125 28.9609375 -86.1178125 28.9609375 -84.7578125 28.9609375 C-84.6753125 28.0121875 -84.5928125 27.0634375 -84.5078125 26.0859375 C-82.77820605 14.35778416 -76.13370747 5.33470731 -67.30859375 -2.21484375 C-47.86789835 -16.11806696 -18.69718155 -13.82426171 0 0 Z " fill="#C1BFBE" transform="translate(132.7578125,11.0390625)"/>
<path d="M0 0 C1.21016958 0.00081715 1.21016958 0.00081715 2.44478703 0.00165081 C3.37087772 -0.00254368 4.29696842 -0.00673817 5.25112247 -0.01105976 C6.27071552 -0.00544025 7.29030857 0.00017925 8.34079838 0.00596905 C9.41272434 0.0040707 10.48465031 0.00217236 11.58905888 0.00021648 C15.15554833 -0.00350588 18.72183654 0.00724512 22.28830814 0.01842022 C24.77342041 0.01961277 27.25853313 0.02006502 29.74364567 0.01980877 C34.97185441 0.02137687 40.20001138 0.02943864 45.42820072 0.04307842 C52.08055588 0.06037267 58.73285036 0.06389706 65.38523102 0.06313324 C70.53044688 0.0634076 75.67564661 0.06893345 80.82085705 0.07613468 C83.26968164 0.0792871 85.71850805 0.08128061 88.16733456 0.08202839 C99.41600842 0.08921257 110.66488286 0.12242423 121.90573978 0.57969952 C123.05385592 0.61401561 123.05385592 0.61401561 124.22516632 0.64902496 C128.49638032 0.86161895 131.33714802 1.47424058 134.72971439 4.12388897 C136.42893314 6.05357647 136.42893314 6.05357647 138.04221439 8.24888897 C139.01094486 9.42838116 139.01094486 9.42838116 139.99924564 10.63170147 C162.02773544 38.85175532 176.51856847 85.43435746 173.04221439 121.24888897 C172.22640604 124.93634272 170.83920101 127.93736891 169.04221439 131.24888897 C168.43248783 132.41420147 167.82276127 133.57951397 167.19455814 134.78013897 C159.95832134 148.28416909 151.90256084 163.30001583 140.04221439 173.24888897 C138.93813236 174.20795147 138.93813236 174.20795147 137.81174564 175.18638897 C123.45186538 187.29766783 108.15554775 198.58709236 92.04221439 208.24888897 C91.04544682 208.86280499 91.04544682 208.86280499 90.02854252 209.48912334 C78.94362375 216.20496193 68.99866815 218.56403212 56.13596439 215.57310772 C53.59930184 214.66199633 51.38407057 213.58146033 49.04221439 212.24888897 C48.15276127 211.75131084 47.26330814 211.25373272 46.34690189 210.74107647 C40.50670744 207.24346698 35.53139477 203.19451067 30.56174564 198.56138897 C27.14554737 195.42590156 23.54989571 192.53855838 19.94846439 189.61998272 C15.16515645 185.71747208 10.46755656 181.71579206 5.76877689 177.71226788 C3.98226137 176.19807472 2.1849669 174.69743529 0.38596439 173.19810772 C-15.38533948 159.98861872 -26.17268946 146.89927788 -28.30544186 125.81138897 C-28.77735093 108.41230665 -24.16295856 91.26477148 -20.22023678 74.45714092 C-17.1562961 61.36022618 -14.4363426 48.2056822 -11.83595943 35.00938702 C-10.21436606 26.85566733 -8.41795217 18.76947476 -6.34450436 10.71763897 C-6.0341399 9.49059246 -6.0341399 9.49059246 -5.71750546 8.23875713 C-3.66382562 0.46577408 -3.66382562 0.46577408 0 0 Z " fill="#FFFFFF" transform="translate(33.95778560638428,300.7511110305786)"/>
<path d="M0 0 C10.76270584 9.09207688 14.85778754 19.33209856 16.9296875 33.0234375 C17.32562079 38.01219695 17.32492818 42.95972324 17.2421875 47.9609375 C18.00402344 48.09371094 18.76585937 48.22648437 19.55078125 48.36328125 C23.81251799 49.30964659 26.95850239 51.14402934 29.51171875 54.7578125 C31.95743866 59.21714633 32.90939901 62.81387731 32.2421875 67.9609375 C30.50830208 72.615051 28.45627955 75.3148797 24.2421875 77.9609375 C21.2721875 78.4559375 21.2721875 78.4559375 18.2421875 78.9609375 C18.2421875 83.5809375 18.2421875 88.2009375 18.2421875 92.9609375 C21.2121875 93.9509375 21.2121875 93.9509375 24.2421875 94.9609375 C28.35967178 99.07842178 31.10543823 102.9549883 31.30859375 108.90625 C30.9731601 114.25285908 29.22433066 117.23849933 25.2421875 120.9609375 C22.93288263 122.22794742 20.74104324 123.07898842 18.2421875 123.9609375 C18.2421875 126.6009375 18.2421875 129.2409375 18.2421875 131.9609375 C19.2940625 132.5178125 20.3459375 133.0746875 21.4296875 133.6484375 C29.45488118 138.3365831 29.45488118 138.3365831 30.875 143.0703125 C31.68452104 148.20302035 31.33252354 151.61515244 28.2421875 155.9609375 C25.14544159 159.0722907 22.44061995 161.56146002 18.2421875 162.9609375 C17.9121875 165.6009375 17.5821875 168.2409375 17.2421875 170.9609375 C18.1084375 171.1465625 18.9746875 171.3321875 19.8671875 171.5234375 C24.7020147 173.58271575 27.89336295 177.26328839 30.2421875 181.9609375 C30.96437258 189.09991459 30.69178985 194.22329236 26.2421875 199.9609375 C21.11398237 203.9609375 21.11398237 203.9609375 18.2421875 203.9609375 C18.2421875 206.2709375 18.2421875 208.5809375 18.2421875 210.9609375 C18.9228125 211.1259375 19.6034375 211.2909375 20.3046875 211.4609375 C24.99374547 213.85535008 28.87808619 218.23273489 31.2421875 222.9609375 C32.00500863 229.68876979 31.48399735 235.50718198 27.2421875 240.9609375 C24.72246404 243.21137753 22.08472933 245.13950293 19.2421875 246.9609375 C19.53008138 249.08645192 19.82273123 251.21132225 20.1171875 253.3359375 C20.27960938 254.51929688 20.44203125 255.70265625 20.609375 256.921875 C20.71338623 257.56133057 20.81739746 258.20078613 20.92456055 258.85961914 C21.14934579 260.34672645 21.31717422 261.84295862 21.44458008 263.34155273 C22.41891394 271.26003401 26.43138371 275.05299351 32.1796875 280.2734375 C33.81800558 281.80671877 35.45227412 283.34434096 37.08203125 284.88671875 C37.80769287 285.55098877 38.53335449 286.21525879 39.28100586 286.8996582 C41.37245796 289.0978569 42.75517367 291.32546742 44.2421875 293.9609375 C45.43896152 295.55302601 46.64820342 297.13578935 47.8671875 298.7109375 C65.84886759 323.41104752 74.65483815 355.12481733 79.2421875 384.9609375 C79.37238281 385.73050781 79.50257813 386.50007813 79.63671875 387.29296875 C80.37715259 392.45626069 80.40547449 397.69033694 80.4921875 402.8984375 C80.52445435 404.00807861 80.52445435 404.00807861 80.55737305 405.14013672 C80.61656996 415.31083703 76.82719935 423.46716323 71.7421875 432.0859375 C71.21391357 432.9924707 70.68563965 433.89900391 70.14135742 434.83300781 C60.19048908 451.70512274 49.75450958 464.81987562 34.2421875 476.9609375 C33.29762695 477.7041626 33.29762695 477.7041626 32.33398438 478.46240234 C20.0012662 488.13598859 7.43073597 497.1303313 -6.1953125 504.8984375 C-6.833479 505.26420898 -7.47164551 505.62998047 -8.12915039 506.00683594 C-20.10934513 512.67792758 -31.31034546 514.36442297 -44.7578125 510.9609375 C-55.2811986 507.49359447 -64.22706387 500.742163 -72.23828125 493.2734375 C-75.65048715 490.14161441 -79.24120587 487.25717475 -82.83984375 484.34375 C-86.5713192 481.29662815 -90.23978233 478.17890548 -93.90795898 475.05615234 C-97.44171578 472.05459101 -101.02172615 469.11959335 -104.6328125 466.2109375 C-118.4238073 454.9110906 -129.81432822 441.19298053 -132.47265625 423.0234375 C-134.33547694 403.01725367 -130.03596217 383.76202279 -125.39648438 364.38574219 C-123.56610011 356.67069501 -121.89473434 348.93261477 -120.2890625 341.16796875 C-120.07126129 340.11475433 -119.85346008 339.06153992 -119.62905884 337.97640991 C-118.53247528 332.66150119 -117.44366489 327.34507103 -116.36083984 322.02734375 C-109.67999667 289.38511212 -109.67999667 289.38511212 -100.7109375 279.765625 C-98.77444002 277.55141277 -97.10913349 275.57624922 -95.7578125 272.9609375 C-96.01647574 270.60175036 -96.74886812 269.03772635 -97.828125 266.93359375 C-99.47528044 263.43857905 -99.1900603 260.78941804 -98.7578125 256.9609375 C-95.95206258 251.12497767 -93.82658318 250.42880646 -87.7578125 246.9609375 C-87.7578125 240.0309375 -87.7578125 233.1009375 -87.7578125 225.9609375 C-90.0678125 224.6409375 -92.3778125 223.3209375 -94.7578125 221.9609375 C-98.52686837 218.09001526 -100.70535657 214.25400438 -100.79296875 208.75390625 C-100.54137466 205.05363212 -99.98417535 202.39479963 -98.2578125 199.0859375 C-94.79120236 196.13931888 -91.11006599 195.10479899 -86.7578125 193.9609375 C-86.76941406 193.26226562 -86.78101563 192.56359375 -86.79296875 191.84375 C-86.80199219 190.93367187 -86.81101563 190.02359375 -86.8203125 189.0859375 C-86.83191406 188.18101562 -86.84351563 187.27609375 -86.85546875 186.34375 C-86.7578125 183.9609375 -86.7578125 183.9609375 -85.7578125 181.9609375 C-86.34175781 181.70441406 -86.92570312 181.44789063 -87.52734375 181.18359375 C-92.08923281 178.68294353 -95.8162378 174.60458953 -97.5703125 169.6796875 C-98.34433368 164.97105863 -97.78758949 161.46464915 -95.1484375 157.46875 C-92.72245205 154.83832757 -89.96673628 153.50368932 -86.7578125 151.9609375 C-86.34292222 147.92140546 -86.34292222 147.92140546 -86.7578125 143.9609375 C-89.50092256 141.74302311 -89.50092256 141.74302311 -92.7578125 139.9609375 C-96.84301915 135.55321453 -97.54682392 131.55819178 -97.34765625 125.7265625 C-96.34278913 121.01500009 -93.54235788 117.83780736 -89.7578125 114.9609375 C-87.5234375 114.25 -87.5234375 114.25 -85.7578125 113.9609375 C-85.48623738 106.90389241 -85.48623738 106.90389241 -88.53515625 100.8125 C-90.65284339 99.01339974 -90.65284339 99.01339974 -92.84765625 97.49609375 C-95.76664881 95.15015495 -96.59495856 93.08034407 -97.12890625 89.41015625 C-97.26778088 83.63460543 -96.93574129 79.82364393 -93.1953125 75.296875 C-91.7578125 73.9609375 -91.7578125 73.9609375 -89.0703125 72.5859375 C-86.22725432 70.58811284 -86.17706978 69.58695814 -85.4453125 66.2734375 C-85.19599585 64.83929496 -84.9602876 63.4024393 -84.7578125 61.9609375 C-85.6034375 61.7959375 -86.4490625 61.6309375 -87.3203125 61.4609375 C-93.02456833 58.97180768 -96.50469375 54.46717499 -99.2578125 48.9609375 C-100.15945761 43.55106686 -99.56397173 39.54339821 -97.0703125 34.6484375 C-94.48255341 31.6410418 -92.45709541 30.34816859 -88.7578125 28.9609375 C-87.4378125 28.9609375 -86.1178125 28.9609375 -84.7578125 28.9609375 C-84.6753125 28.0121875 -84.5928125 27.0634375 -84.5078125 26.0859375 C-82.77820605 14.35778416 -76.13370747 5.33470731 -67.30859375 -2.21484375 C-47.86789835 -16.11806696 -18.69718155 -13.82426171 0 0 Z M-69.93359375 8.57421875 C-75.90059939 16.38115761 -78.94496102 24.22921434 -78.7578125 33.9609375 C-79.77101563 34.10789062 -79.77101563 34.10789062 -80.8046875 34.2578125 C-86.39022516 35.16382656 -86.39022516 35.16382656 -91.3203125 37.7734375 C-93.02132291 40.3619316 -93.68374278 41.85000946 -93.7578125 44.9609375 C-91.94434481 50.08131686 -89.20655782 52.90787698 -84.7578125 55.9609375 C-82.7778125 56.2909375 -80.7978125 56.6209375 -78.7578125 56.9609375 C-79.0878125 62.9009375 -79.4178125 68.8409375 -79.7578125 74.9609375 C-82.2328125 75.9509375 -82.2328125 75.9509375 -84.7578125 76.9609375 C-87.487371 79.44000719 -87.487371 79.44000719 -89.7578125 81.9609375 C-90.2528125 82.4559375 -90.2528125 82.4559375 -90.7578125 82.9609375 C-91.13655271 86.89983564 -91.2059843 89.21973029 -89.1328125 92.6484375 C-86.84029798 95.11692237 -86.84029798 95.11692237 -83.6640625 96.49609375 C-80.45915352 99.21423564 -80.31507522 99.57700166 -79.953125 103.5078125 C-79.90018682 105.24153783 -79.87768835 106.97641171 -79.8828125 108.7109375 C-79.8621875 109.59910156 -79.8415625 110.48726563 -79.8203125 111.40234375 C-79.77327732 113.58947944 -79.7533637 115.77340018 -79.7578125 117.9609375 C-81.15386719 118.38826172 -81.15386719 118.38826172 -82.578125 118.82421875 C-86.47852743 120.21858866 -88.26303718 121.65902899 -90.7578125 124.9609375 C-91.42131971 129.08942681 -91.19295588 131.16027368 -89.1953125 134.8359375 C-86.4030216 137.65915894 -86.4030216 137.65915894 -79.7578125 137.9609375 C-79.7578125 144.2309375 -79.7578125 150.5009375 -79.7578125 156.9609375 C-83.2228125 157.9509375 -83.2228125 157.9509375 -86.7578125 158.9609375 C-89.84358754 161.04551421 -89.84358754 161.04551421 -91.7578125 163.9609375 C-92.39658936 166.91271228 -92.39658936 166.91271228 -90.7578125 169.9609375 C-87.98609808 172.92565331 -85.04819212 175.58220434 -81.7578125 177.9609375 C-81.0978125 177.9609375 -80.4378125 177.9609375 -79.7578125 177.9609375 C-79.92152344 178.95222656 -80.08523437 179.94351563 -80.25390625 180.96484375 C-80.82385476 184.95448329 -80.85598755 188.86715691 -80.8203125 192.8984375 C-80.81580078 193.58228516 -80.81128906 194.26613281 -80.80664062 194.97070312 C-80.7950081 196.63415354 -80.77707944 198.297558 -80.7578125 199.9609375 C-81.78841797 200.01701172 -81.78841797 200.01701172 -82.83984375 200.07421875 C-83.74089844 200.13996094 -84.64195313 200.20570313 -85.5703125 200.2734375 C-86.91029297 200.36044922 -86.91029297 200.36044922 -88.27734375 200.44921875 C-91.11226685 201.03406115 -92.03532751 201.67522726 -93.7578125 203.9609375 C-94.88699599 207.59045585 -94.92512946 209.4688288 -93.6953125 213.0859375 C-91.40627187 216.48257843 -89.38354463 218.07555679 -85.7578125 219.9609375 C-84.1078125 219.9609375 -82.4578125 219.9609375 -80.7578125 219.9609375 C-80.7578125 230.5209375 -80.7578125 241.0809375 -80.7578125 251.9609375 C-82.7378125 252.6209375 -84.7178125 253.2809375 -86.7578125 253.9609375 C-90.1227604 255.4564699 -91.42644528 256.14226556 -92.8203125 259.5859375 C-92.74442423 263.68390408 -91.47676305 266.23790522 -89.5703125 269.8125 C-88.7578125 271.9609375 -88.7578125 271.9609375 -89.7578125 275.9609375 C-92.7278125 279.9209375 -92.7278125 279.9209375 -95.7578125 283.9609375 C-55.4978125 283.9609375 -15.2378125 283.9609375 26.2421875 283.9609375 C21.86846189 278.84400349 21.86846189 278.84400349 17.2421875 273.9609375 C16.45849609 271.00585937 16.45849609 271.00585937 15.890625 267.4296875 C15.57351562 265.50189453 15.57351562 265.50189453 15.25 263.53515625 C15.03855999 262.17716148 14.82762791 260.81908753 14.6171875 259.4609375 C14.19157298 256.80401354 13.75968676 254.1481571 13.328125 251.4921875 C13.1429834 250.31205078 12.9578418 249.13191406 12.76708984 247.91601562 C12.30819678 244.9165667 12.30819678 244.9165667 11.2421875 241.9609375 C12.0878125 241.9403125 12.9334375 241.9196875 13.8046875 241.8984375 C18.59376975 240.59232416 21.1058067 237.70213003 24.2421875 233.9609375 C25.84345824 230.75839603 25.64920357 228.50779186 25.2421875 224.9609375 C22.54677398 220.53792672 18.93910336 217.17892555 14.2421875 214.9609375 C13.5821875 214.9609375 12.9221875 214.9609375 12.2421875 214.9609375 C12.14031698 209.8419437 12.20279176 204.9883306 13.2421875 199.9609375 C15.61212792 197.58568332 18.08921841 196.92962077 21.2421875 195.9609375 C24.18223256 193.38839807 24.2318731 192.04087409 24.7421875 188.0859375 C24.56286856 183.28019004 22.66405056 181.22726133 19.2421875 177.9609375 C16.16228438 175.90766875 15.14380578 175.9609375 11.2421875 175.9609375 C11.5721875 170.0209375 11.9021875 164.0809375 12.2421875 157.9609375 C15.7071875 156.9709375 15.7071875 156.9709375 19.2421875 155.9609375 C21.81821118 153.9942425 23.61429569 151.76115437 25.2421875 148.9609375 C25.73928269 146.27954534 25.73928269 146.27954534 24.2421875 143.9609375 C20.29015312 140.18454909 16.83136569 136.9609375 11.2421875 136.9609375 C11.2421875 130.6909375 11.2421875 124.4209375 11.2421875 117.9609375 C13.8821875 117.6309375 16.5221875 117.3009375 19.2421875 116.9609375 C22.35583221 115.10600023 23.83585327 113.92598129 25.2421875 110.5859375 C25.2421875 106.23688567 23.47303107 103.23573977 20.4921875 100.1484375 C17.47092104 98.5538802 14.61638417 98.28537949 11.2421875 97.9609375 C11.7371875 96.4759375 11.7371875 96.4759375 12.2421875 94.9609375 C12.32396864 93.26076906 12.34968251 91.55757453 12.33984375 89.85546875 C12.33662109 88.87255859 12.33339844 87.88964844 12.33007812 86.87695312 C12.32169922 85.85279297 12.31332031 84.82863281 12.3046875 83.7734375 C12.30017578 82.73767578 12.29566406 81.70191406 12.29101562 80.63476562 C12.2792276 78.07676484 12.26277265 75.51888017 12.2421875 72.9609375 C14.22989909 73.01383464 16.21761068 73.06673177 18.20532227 73.11962891 C21.57083576 72.85742301 23.08127476 71.44926126 25.2421875 68.9609375 C26.49591072 65.35648324 26.40068242 63.48925391 25.3046875 59.8359375 C22.61440581 56.08584787 19.60298498 54.38384647 15.2421875 52.9609375 C13.9221875 52.9609375 12.6021875 52.9609375 11.2421875 52.9609375 C11.26539063 52.11273438 11.28859375 51.26453125 11.3125 50.390625 C11.56455786 34.00686422 10.38329349 19.40602567 -1.41015625 7.15234375 C-11.47040283 -2.23833567 -25.04962179 -5.40415992 -38.5390625 -5.25390625 C-50.40269076 -4.46203786 -61.72255606 -0.1697869 -69.93359375 8.57421875 Z M-102.85505676 292.32849121 C-103.80377006 295.09495028 -104.6429626 297.78906417 -105.30078125 300.640625 C-105.56576416 301.77725586 -105.83074707 302.91388672 -106.10375977 304.08496094 C-106.38147217 305.3227832 -106.65918457 306.56060547 -106.9453125 307.8359375 C-107.24707378 309.15402648 -107.54908218 310.4720589 -107.85131836 311.79003906 C-110.71716502 324.39405561 -113.27812146 337.06200534 -115.83325195 349.73193359 C-117.77800045 359.35030668 -119.85897963 368.91410502 -122.1328125 378.4609375 C-126.95688007 398.91460452 -131.11539468 421.71723729 -119.6328125 440.7734375 C-113.35025092 449.68932808 -105.9488344 457.10533395 -97.41015625 463.84765625 C-94.94523846 465.81160401 -92.59545309 467.84831044 -90.2578125 469.9609375 C-86.20583624 473.60413031 -82.01431819 477.04361541 -77.77734375 480.46875 C-75.59600999 482.26912638 -73.45520422 484.08682096 -71.33203125 485.953125 C-64.50098922 491.95385908 -57.77191764 497.56175746 -49.7578125 501.9609375 C-48.99726562 502.39277344 -48.23671875 502.82460938 -47.453125 503.26953125 C-39.46287394 507.15704397 -29.12399148 507.99978856 -20.60351562 505.27099609 C-15.73252073 503.28497297 -11.23868432 500.6985558 -6.7578125 497.9609375 C-5.29601562 497.10048828 -5.29601562 497.10048828 -3.8046875 496.22265625 C11.14067387 487.06752991 25.24074861 476.1343788 38.6171875 464.8359375 C39.17599609 464.36945801 39.73480469 463.90297852 40.31054688 463.42236328 C47.55009828 457.22225995 53.11574994 450.10346094 58.1171875 442.0234375 C58.62677002 441.2080249 59.13635254 440.3926123 59.66137695 439.55249023 C63.10467148 433.97483769 66.35036305 428.30965887 69.4296875 422.5234375 C69.80399902 421.82033447 70.17831055 421.11723145 70.56396484 420.39282227 C81.26774705 399.78159498 70.55779291 368.70362487 64.2421875 347.9609375 C57.92672621 328.24428422 49.64469429 305.59182957 33.2421875 291.9609375 C30.10643955 290.39306352 26.72230167 290.58274109 23.27148438 290.41552734 C22.43381279 290.37370016 21.5961412 290.33187298 20.73308563 290.28877831 C9.08634361 289.75889298 -2.5698457 289.73535991 -14.2265625 289.6875 C-15.45207321 289.68217632 -16.67758392 289.67685265 -17.94023132 289.67136765 C-24.39520638 289.64490067 -30.85016363 289.62542171 -37.30517578 289.61083984 C-42.63575967 289.5973823 -47.96596695 289.56992145 -53.29638672 289.52880859 C-59.76979455 289.47969952 -66.24285978 289.45475125 -72.71644592 289.44761276 C-75.17574333 289.44088673 -77.63503263 289.42562989 -80.09422302 289.40172195 C-83.51180016 289.37031952 -86.92802138 289.36999306 -90.34570312 289.37744141 C-91.3617009 289.36103607 -92.37769867 289.34463074 -93.42448425 289.32772827 C-98.81796176 289.18554446 -98.81796176 289.18554446 -102.85505676 292.32849121 Z " fill="#11110E" transform="translate(132.7578125,11.0390625)"/>
</svg>
