<?xml version="1.0" encoding="UTF-8"?>
<svg version="1.1" xmlns="http://www.w3.org/2000/svg" width="306" height="630">
<path d="M0 0 C5.68955293 4.0881632 10.65661956 8.58470557 15.375 13.75 C19.65944638 18.16450993 23.99165364 19.86632382 29.7421875 21.84765625 C51.02687771 29.37641358 65.60695112 47.75167357 76 67 C76.34272949 67.63470215 76.68545898 68.2694043 77.03857422 68.92333984 C111.53844861 134.27326947 108.16950641 220.84164585 111.74029541 292.76831055 C111.78316933 293.63187164 111.82604324 294.49543274 111.87021637 295.38516235 C111.95662557 297.12610635 112.04298536 298.86705279 112.12929535 300.60800171 C113.63775535 331.1305461 113.63775535 331.1305461 115.625 361.625 C115.68139648 362.41455078 115.73779297 363.20410156 115.79589844 364.01757812 C116.74329194 377.10169907 118.52153492 389.67278746 121.8125 402.375 C135.86033273 459.20977609 145.12998065 536.54123506 113.625 589 C104.67875652 602.06435556 93.81126183 611.36056558 79 617 C78.16855469 617.32097656 77.33710938 617.64195312 76.48046875 617.97265625 C44.10719251 628.16336546 7.52422697 611.49468186 -22.61328125 600.62890625 C-23.54567627 600.2942334 -24.47807129 599.95956055 -25.4387207 599.61474609 C-27.08596109 599.01840456 -28.72943254 598.41149037 -30.36791992 597.79150391 C-34.04763966 596.44568634 -36.28553194 595.70000356 -40 597 C-41.90826723 598.01897978 -41.90826723 598.01897978 -43.80078125 599.29296875 C-44.52281738 599.75574219 -45.24485352 600.21851563 -45.98876953 600.6953125 C-47.13901611 601.43394531 -47.13901611 601.43394531 -48.3125 602.1875 C-66.76990344 613.6922556 -85.78898194 619.69817601 -107.55859375 615.27734375 C-120.56708148 611.92733186 -132.06603 606.03959328 -142 597 C-142.90492188 596.18789063 -143.80984375 595.37578125 -144.7421875 594.5390625 C-161.81844467 578.40885836 -172.19295967 555.6727062 -173.15698242 532.17333984 C-173.16877206 530.81091848 -173.17197118 529.44840399 -173.16796875 528.0859375 C-173.16613083 527.32123138 -173.16429291 526.55652527 -173.16239929 525.76864624 C-173.0537944 514.69614808 -172.15994437 503.66057431 -171.3125 492.625 C-171.2228598 491.4463739 -171.1332196 490.2677478 -171.04086304 489.05340576 C-168.44796956 455.24603112 -164.90031871 422.01061573 -158.12231445 388.76025391 C-152.17777388 359.32643958 -151.93634134 329.49247106 -151.58500862 299.55596542 C-151.53419345 295.2293169 -151.47714956 290.90276176 -151.41929626 286.57620239 C-151.26599699 275.04927597 -151.11894037 263.52227288 -150.97827697 251.99518526 C-150.59489559 220.59679049 -150.19367599 189.20904682 -149.01953125 157.828125 C-148.97936449 156.74201809 -148.93919773 155.65591118 -148.8978138 154.53689194 C-144.83892206 46.89274746 -144.83892206 46.89274746 -123.69140625 25.4140625 C-118.03157661 20.68228807 -111.69283191 19.60733641 -104.52734375 19.7265625 C-95.89270488 20.66075836 -88.66370974 24.47597993 -83 31 C-79.57218081 35.78268843 -76.60527752 40.72861319 -74 46 C-73.731875 44.741875 -73.46375 43.48375 -73.1875 42.1875 C-69.14135391 24.15683934 -62.80548599 5.99109058 -46.6015625 -4.55859375 C-31.11440738 -13.13931483 -14.4139916 -8.67106441 0 0 Z " fill="#FFFFFF" transform="translate(173,9)"/>
<path d="M0 0 C87.12 0 174.24 0 264 0 C271.14192749 28.56770995 271.14192749 28.56770995 273.1875 40.875 C273.30973938 41.59958405 273.43197876 42.32416809 273.55792236 43.07070923 C281.81451787 92.47633753 287.95920712 156.86973942 257.765625 200.20703125 C255.61033064 202.92344534 253.38270944 205.48186125 251 208 C250.38769531 208.65355469 249.77539062 209.30710937 249.14453125 209.98046875 C238.11743616 220.63137296 223.02253124 225.17528416 208.0625 225.4375 C207.27157959 225.45997803 206.48065918 225.48245605 205.66577148 225.50561523 C189.92860215 225.44581307 174.34079875 220.53093552 159.55493164 215.58349609 C157.06994211 214.75248872 154.57965081 213.93935804 152.08789062 213.12890625 C139.8856835 209.10767009 128.03211844 204.58366417 116 200 C116 179.54 116 159.08 116 138 C114.02 138 112.04 138 110 138 C110.02442673 138.77150391 110.04885345 139.54300781 110.07402039 140.33789062 C110.29508891 147.63432627 110.46221411 154.92912393 110.56993389 162.2280426 C110.62718152 165.98014953 110.7047044 169.72947491 110.82983398 173.47998047 C110.95000225 177.10476611 111.01524812 180.72689107 111.04364967 184.35351562 C111.0638658 185.73170884 111.10335302 187.10976745 111.16303062 188.48681641 C111.61026544 199.24152399 111.61026544 199.24152399 107.62268066 203.59613037 C104.82975997 205.65771578 102.06309539 207.3731286 99 209 C98.24203629 209.44156937 97.48407257 209.88313873 96.70314026 210.33808899 C94.87599841 211.39456499 93.02656207 212.3350276 91.125 213.25 C90.44791992 213.58008057 89.77083984 213.91016113 89.07324219 214.25024414 C72.7560342 221.99728083 56.83792698 224.15052476 39.5 218.3125 C27.34820391 213.48000054 18.10439746 207.19622856 9 198 C7.90558594 196.93845703 7.90558594 196.93845703 6.7890625 195.85546875 C-8.56483606 179.98572775 -15.3332806 157.35391948 -15.12719727 135.72021484 C-14.9186911 125.56888828 -14.06415361 115.43469354 -13.3125 105.3125 C-13.22385681 104.10802216 -13.13521362 102.90354431 -13.04388428 101.66256714 C-11.82607021 85.26832333 -10.42895463 68.90302725 -8.625 52.5625 C-8.5381192 51.74286774 -8.4512384 50.92323547 -8.36172485 50.07876587 C-6.54482855 33.15796887 -3.150762 16.80406398 0 0 Z " fill="#FFFFFF" transform="translate(21,398)"/>
<path d="M0 0 C5.68955293 4.0881632 10.65661956 8.58470557 15.375 13.75 C19.65944638 18.16450993 23.99165364 19.86632382 29.7421875 21.84765625 C51.02687771 29.37641358 65.60695112 47.75167357 76 67 C76.34272949 67.63470215 76.68545898 68.2694043 77.03857422 68.92333984 C111.53844861 134.27326947 108.16950641 220.84164585 111.74029541 292.76831055 C111.78316933 293.63187164 111.82604324 294.49543274 111.87021637 295.38516235 C111.95662557 297.12610635 112.04298536 298.86705279 112.12929535 300.60800171 C113.63775535 331.1305461 113.63775535 331.1305461 115.625 361.625 C115.68139648 362.41455078 115.73779297 363.20410156 115.79589844 364.01757812 C116.74329194 377.10169907 118.52153492 389.67278746 121.8125 402.375 C135.86033273 459.20977609 145.12998065 536.54123506 113.625 589 C104.67875652 602.06435556 93.81126183 611.36056558 79 617 C78.16855469 617.32097656 77.33710938 617.64195312 76.48046875 617.97265625 C44.10719251 628.16336546 7.52422697 611.49468186 -22.61328125 600.62890625 C-23.54567627 600.2942334 -24.47807129 599.95956055 -25.4387207 599.61474609 C-27.08596109 599.01840456 -28.72943254 598.41149037 -30.36791992 597.79150391 C-34.04763966 596.44568634 -36.28553194 595.70000356 -40 597 C-41.90826723 598.01897978 -41.90826723 598.01897978 -43.80078125 599.29296875 C-44.52281738 599.75574219 -45.24485352 600.21851563 -45.98876953 600.6953125 C-47.13901611 601.43394531 -47.13901611 601.43394531 -48.3125 602.1875 C-66.76990344 613.6922556 -85.78898194 619.69817601 -107.55859375 615.27734375 C-120.56708148 611.92733186 -132.06603 606.03959328 -142 597 C-142.90492188 596.18789063 -143.80984375 595.37578125 -144.7421875 594.5390625 C-161.81844467 578.40885836 -172.19295967 555.6727062 -173.15698242 532.17333984 C-173.16877206 530.81091848 -173.17197118 529.44840399 -173.16796875 528.0859375 C-173.16613083 527.32123138 -173.16429291 526.55652527 -173.16239929 525.76864624 C-173.0537944 514.69614808 -172.15994437 503.66057431 -171.3125 492.625 C-171.2228598 491.4463739 -171.1332196 490.2677478 -171.04086304 489.05340576 C-168.44796956 455.24603112 -164.90031871 422.01061573 -158.12231445 388.76025391 C-152.17777388 359.32643958 -151.93634134 329.49247106 -151.58500862 299.55596542 C-151.53419345 295.2293169 -151.47714956 290.90276176 -151.41929626 286.57620239 C-151.26599699 275.04927597 -151.11894037 263.52227288 -150.97827697 251.99518526 C-150.59489559 220.59679049 -150.19367599 189.20904682 -149.01953125 157.828125 C-148.97936449 156.74201809 -148.93919773 155.65591118 -148.8978138 154.53689194 C-144.83892206 46.89274746 -144.83892206 46.89274746 -123.69140625 25.4140625 C-118.03157661 20.68228807 -111.69283191 19.60733641 -104.52734375 19.7265625 C-95.89270488 20.66075836 -88.66370974 24.47597993 -83 31 C-79.57218081 35.78268843 -76.60527752 40.72861319 -74 46 C-73.731875 44.741875 -73.46375 43.48375 -73.1875 42.1875 C-69.14135391 24.15683934 -62.80548599 5.99109058 -46.6015625 -4.55859375 C-31.11440738 -13.13931483 -14.4139916 -8.67106441 0 0 Z M8 29 C1.51927443 40.41966563 5.16157401 56.02911539 6.875 68.25 C16.37416254 136.23980421 13.16910682 210.42793505 -11 275.125 C-11.3079248 275.95386719 -11.61584961 276.78273438 -11.93310547 277.63671875 C-14.4210033 284.06475546 -17.5934707 290.01444414 -21 296 C-42.68829141 242.5599263 -57.30077154 192.90295153 -62 135.1875 C-65.56019353 83.33842169 -65.56019353 83.33842169 -87 37 C-87.928125 35.63875 -87.928125 35.63875 -88.875 34.25 C-93.73224561 29.10703406 -99.22720256 26.29021519 -106.25 25.75 C-112.279195 26.15194633 -116.97495103 27.49581303 -121.1875 32 C-142.06582484 59.2546781 -140.31909742 105.59557961 -142.125 138.3125 C-142.16361145 138.99951996 -142.2022229 139.68653992 -142.24200439 140.39437866 C-142.5463791 145.92761224 -142.78467894 151.46263136 -143 157 C-143.03944733 158.00977905 -143.07889465 159.01955811 -143.11953735 160.05993652 C-143.89518754 180.84866106 -144.18490007 201.64524912 -144.46484375 222.4453125 C-144.48440127 223.88829498 -144.50396816 225.33127734 -144.52354431 226.77425957 C-144.70581469 240.24004249 -144.88347822 253.70588225 -145.04956055 267.171875 C-145.77761045 325.94944981 -145.77761045 325.94944981 -146.94140625 349.1796875 C-146.99765325 350.33455847 -146.99765325 350.33455847 -147.05503654 351.51276016 C-147.58605123 362.08059396 -148.76084146 372.46715242 -150 383 C-63.87 383 22.26 383 111 383 C109.02 350.825 109.02 350.825 107 318 C106.38718487 306.22458706 105.77672816 294.4519616 105.2180481 282.67437744 C102.36465598 176.18385553 102.36465598 176.18385553 73 75 C72.68450195 74.32791504 72.36900391 73.65583008 72.04394531 72.96337891 C61.97712776 51.86478979 46.36608781 35.18336715 24.625 26 C18.19793977 24.22701787 12.72481172 23.46522056 8 29 Z M-152 389 C-157.02431996 415.21896353 -157.02431996 415.21896353 -160.625 441.5625 C-160.7219516 442.44070404 -160.8189032 443.31890808 -160.91879272 444.22372437 C-162.75314443 460.88873884 -164.08206263 477.59339756 -165.3125 494.3125 C-165.39985413 495.48886017 -165.48720825 496.66522034 -165.57720947 497.87722778 C-167.8519331 528.90412092 -168.17287243 556.1606757 -147.83984375 581.71484375 C-145.63830034 584.23477616 -143.35987227 586.62820919 -141 589 C-140.27554688 589.75925781 -139.55109375 590.51851562 -138.8046875 591.30078125 C-125.7490859 604.11297333 -108.18566617 610.95617912 -90 611 C-74.22892555 610.03270743 -59.89020173 602.63533612 -47 594 C-45.68084343 593.13649933 -45.68084343 593.13649933 -44.33503723 592.2555542 C-41.75902088 590.1897591 -41.75902088 590.1897591 -41.39872742 587.1272583 C-41.40983047 586.01695251 -41.42093353 584.90664673 -41.43237305 583.76269531 C-41.4327507 582.50169006 -41.43312836 581.24068481 -41.43351746 579.94146729 C-41.45904876 578.57034311 -41.48512871 577.19922905 -41.51171875 575.828125 C-41.52104851 574.42137916 -41.52816386 573.01461704 -41.53315735 571.60784912 C-41.5522151 567.91175189 -41.60130299 564.21664282 -41.65667725 560.52093506 C-41.70789754 556.7471656 -41.73067718 552.97323589 -41.75585938 549.19921875 C-41.80942494 541.79902949 -41.89472038 534.39965339 -42 527 C-40.02 527 -38.04 527 -36 527 C-36 547.46 -36 567.92 -36 589 C22.3565482 613.78801692 22.3565482 613.78801692 82.91015625 608.75 C100.91362108 599.83689224 111.90776191 582.45794678 118.4765625 564.03515625 C132.42419335 521.54413958 128.51749639 473.32416049 121.1875 429.875 C121.07492859 429.19770844 120.96235718 428.52041687 120.84637451 427.82260132 C118.62537909 414.66090119 115.25070528 402.00282112 112 389 C24.88 389 -62.24 389 -152 389 Z " fill="#11110E" transform="translate(173,9)"/>
<path d="M0 0 C4.85040078 3.69521207 9.53022317 7.63851103 13.72265625 12.07421875 C13.72265625 12.73421875 13.72265625 13.39421875 13.72265625 14.07421875 C12.98015625 14.48671875 12.23765625 14.89921875 11.47265625 15.32421875 C5.92516079 18.85444313 4.19968622 23.90619229 2.72265625 30.07421875 C2.47947601 32.81423793 2.34223447 35.39902251 2.34765625 38.13671875 C2.34781738 38.94052979 2.34797852 39.74434082 2.34814453 40.57250977 C2.48424328 48.30220232 3.51338071 55.86596003 4.59765625 63.51171875 C14.36265372 132.70419421 11.074704 210.11310534 -16.27734375 275.07421875 C-16.93734375 275.07421875 -17.59734375 275.07421875 -18.27734375 275.07421875 C-38.41067614 225.39653236 -50.39592992 178.35743783 -54.59753418 124.86297607 C-56.12367914 105.43700536 -57.95638448 86.13595204 -63.02734375 67.26171875 C-68.01898581 48.59216217 -64.75123774 29.29236536 -55.796875 12.2578125 C-49.97775316 2.22020131 -43.61391475 -4.14294398 -32.65234375 -8.30078125 C-20.71726263 -10.51098146 -9.91825835 -6.73389853 0 0 Z " fill="#FFFFFF" transform="translate(170.27734375,14.92578125)"/>
</svg>
