<?xml version="1.0" encoding="UTF-8"?>
<svg version="1.1" xmlns="http://www.w3.org/2000/svg" width="306" height="630">
<path d="M0 0 C14.73354834 12.59825148 19.52908589 29.8173569 23.3125 48 C23.67601562 47.28714844 24.03953125 46.57429688 24.4140625 45.83984375 C30.08495498 35.03606655 36.1448109 27.20873501 47.8125 22.625 C56.349594 21.10051893 63.43564394 21.89312705 71.15234375 25.97265625 C85.64323105 36.19185341 88.65680038 61.2764253 91.4375 77.3125 C94.66678454 97.19868381 96.26431039 117.2767705 97.4375 137.375 C97.51307129 138.65930908 97.58864258 139.94361816 97.66650391 141.2668457 C99.02747906 165.78246404 99.441926 190.35559921 99.72749138 214.90298462 C99.77858636 219.28523248 99.83550103 223.66739536 99.89320374 228.04956055 C100.05622121 240.48396814 100.21367793 252.91843623 100.36206055 265.35302734 C100.7803831 307.41679773 100.7803831 307.41679773 102.234375 349.453125 C102.27053862 350.22904999 102.30670223 351.00497498 102.34396172 351.80441284 C102.98050068 365.01373409 104.94007353 377.77270271 107.63476562 390.71533203 C137.18205133 533.91748689 137.18205133 533.91748689 107.3125 581 C94.13100162 599.71016216 77.03066059 612.65255625 54.6796875 617.84375 C34.98794702 621.19178641 15.02802865 616.0319927 -1.41650391 604.82128906 C-3.89984533 603.01535747 -6.35006745 601.19454353 -8.74609375 599.2734375 C-16.38216027 595.9675176 -27.25309044 602.21666534 -34.75436401 604.93725586 C-47.93971215 609.70931799 -61.12310888 614.40880871 -74.6875 618 C-75.81406006 618.3088916 -75.81406006 618.3088916 -76.96337891 618.62402344 C-97.24236946 624.05980621 -119.40026679 624.95903105 -138.5 615.25 C-161.34564237 601.73950124 -172.15521858 579.6447105 -178.58984375 554.7578125 C-190.04046149 507.35482377 -184.62848644 451.38374057 -172.32276917 404.52450562 C-169.62076633 394.18141856 -167.99461729 384.11725575 -167.13671875 373.45703125 C-167.01102653 371.96517771 -166.88525144 370.47333115 -166.75939941 368.98149109 C-165.45688004 353.22327341 -164.60671629 337.44147391 -163.80697632 321.6511879 C-163.60124964 317.62419321 -163.38716935 313.59764213 -163.17382812 309.57104492 C-162.52969476 297.38267969 -161.8994576 285.19361349 -161.28125 273.00390625 C-152.20581594 94.1335512 -152.20581594 94.1335512 -111.6875 47 C-111.15898438 46.32710937 -110.63046875 45.65421875 -110.0859375 44.9609375 C-100.2973819 32.85784658 -87.32296711 26.07654949 -73.0390625 20.6015625 C-69.48515045 18.90330616 -67.57265967 17.20663226 -64.9375 14.3125 C-48.13080289 -3.12889111 -22.25329409 -15.82886484 0 0 Z " fill="#FFFFFF" transform="translate(183.6875,7)"/>
<path d="M0 0 C87.12 0 174.24 0 264 0 C271.01144876 37.39439338 271.01144876 37.39439338 272.625 52.6875 C272.7219516 53.56992371 272.8189032 54.45234741 272.91879272 55.36151123 C274.698858 71.58844435 276.05760503 87.8500017 277.3125 104.125 C277.44353119 105.79857071 277.44353119 105.79857071 277.57720947 107.50595093 C278.39030288 118.02008641 279.14274703 128.51667792 279.1796875 139.06640625 C279.18510307 140.11291855 279.18510307 140.11291855 279.19062805 141.18057251 C279.01232011 164.35989544 267.88804601 184.58306752 252.375 201.0625 C238.781657 214.2817143 221.90737486 221.21775745 203 222 C186.87198249 221.41524147 172.14271838 213.80450074 159 205 C158.12056229 204.42433289 157.24112457 203.84866577 156.33503723 203.2555542 C154 201 154 201 153.39872742 198.1272583 C153.415382 196.46179962 153.415382 196.46179962 153.43237305 194.76269531 C153.4327507 193.50169006 153.43312836 192.24068481 153.43351746 190.94146729 C153.45904876 189.57034311 153.48512871 188.19922905 153.51171875 186.828125 C153.52104851 185.42137916 153.52816386 184.01461704 153.53315735 182.60784912 C153.5522151 178.91175189 153.60130299 175.21664282 153.65667725 171.52093506 C153.70789754 167.7471656 153.73067718 163.97323589 153.75585938 160.19921875 C153.80942494 152.79902949 153.89472038 145.39965339 154 138 C152.02 138 150.04 138 148 138 C148 158.46 148 178.92 148 200 C119.54637097 210.67011089 119.54637097 210.67011089 108.75 214.25 C107.81982056 214.55984329 107.81982056 214.55984329 106.87084961 214.87594604 C80.52949951 223.62331445 52.56245906 231.35250785 26.3125 218.375 C7.81451889 207.53229531 -2.77014883 188.28677862 -8.44140625 168.14892578 C-19.19095741 126.79510178 -16.01012152 83.10102453 -9.1875 41.375 C-9.07492859 40.67397156 -8.96235718 39.97294312 -8.84637451 39.25067139 C-6.67498213 25.9199813 -3.29254837 13.17019349 0 0 Z " fill="#FFFFFF" transform="translate(21,398)"/>
<path d="M0 0 C14.73354834 12.59825148 19.52908589 29.8173569 23.3125 48 C23.67601562 47.28714844 24.03953125 46.57429688 24.4140625 45.83984375 C30.08495498 35.03606655 36.1448109 27.20873501 47.8125 22.625 C56.349594 21.10051893 63.43564394 21.89312705 71.15234375 25.97265625 C85.64323105 36.19185341 88.65680038 61.2764253 91.4375 77.3125 C94.66678454 97.19868381 96.26431039 117.2767705 97.4375 137.375 C97.51307129 138.65930908 97.58864258 139.94361816 97.66650391 141.2668457 C99.02747906 165.78246404 99.441926 190.35559921 99.72749138 214.90298462 C99.77858636 219.28523248 99.83550103 223.66739536 99.89320374 228.04956055 C100.05622121 240.48396814 100.21367793 252.91843623 100.36206055 265.35302734 C100.7803831 307.41679773 100.7803831 307.41679773 102.234375 349.453125 C102.27053862 350.22904999 102.30670223 351.00497498 102.34396172 351.80441284 C102.98050068 365.01373409 104.94007353 377.77270271 107.63476562 390.71533203 C137.18205133 533.91748689 137.18205133 533.91748689 107.3125 581 C94.13100162 599.71016216 77.03066059 612.65255625 54.6796875 617.84375 C34.98794702 621.19178641 15.02802865 616.0319927 -1.41650391 604.82128906 C-3.89984533 603.01535747 -6.35006745 601.19454353 -8.74609375 599.2734375 C-16.38216027 595.9675176 -27.25309044 602.21666534 -34.75436401 604.93725586 C-47.93971215 609.70931799 -61.12310888 614.40880871 -74.6875 618 C-75.81406006 618.3088916 -75.81406006 618.3088916 -76.96337891 618.62402344 C-97.24236946 624.05980621 -119.40026679 624.95903105 -138.5 615.25 C-161.34564237 601.73950124 -172.15521858 579.6447105 -178.58984375 554.7578125 C-190.04046149 507.35482377 -184.62848644 451.38374057 -172.32276917 404.52450562 C-169.62076633 394.18141856 -167.99461729 384.11725575 -167.13671875 373.45703125 C-167.01102653 371.96517771 -166.88525144 370.47333115 -166.75939941 368.98149109 C-165.45688004 353.22327341 -164.60671629 337.44147391 -163.80697632 321.6511879 C-163.60124964 317.62419321 -163.38716935 313.59764213 -163.17382812 309.57104492 C-162.52969476 297.38267969 -161.8994576 285.19361349 -161.28125 273.00390625 C-152.20581594 94.1335512 -152.20581594 94.1335512 -111.6875 47 C-111.15898438 46.32710937 -110.63046875 45.65421875 -110.0859375 44.9609375 C-100.2973819 32.85784658 -87.32296711 26.07654949 -73.0390625 20.6015625 C-69.48515045 18.90330616 -67.57265967 17.20663226 -64.9375 14.3125 C-48.13080289 -3.12889111 -22.25329409 -15.82886484 0 0 Z M-113.10302734 58.39599609 C-121.74045271 71.38526113 -127.8563184 85.2056124 -132.6875 100 C-133.07566895 101.18142578 -133.07566895 101.18142578 -133.47167969 102.38671875 C-152.1376128 160.39542343 -152.64904695 223.94710169 -155.7996769 284.28280258 C-156.70694997 301.64336572 -157.71370954 318.99762514 -158.74383545 336.35128021 C-158.8734104 338.53570186 -159.00257582 340.72014732 -159.1315918 342.90460205 C-159.96048153 356.93792281 -160.81059581 370.96953292 -161.6875 385 C-75.5575 385 10.5725 385 99.3125 385 C98.6525 379.06 97.9925 373.12 97.3125 367 C96.89707324 361.18741943 96.52671305 355.39582232 96.25 349.578125 C96.2089212 348.73786018 96.16784241 347.89759537 96.1255188 347.03186798 C94.75963819 318.37810738 94.67221206 289.66868719 94.33854675 260.9881134 C94.19305816 248.48674819 94.04300871 235.9854604 93.875 223.484375 C93.86542157 222.76956388 93.85584313 222.05475276 93.84597445 221.3182807 C93.57129863 201.03357799 93.11127554 180.76510732 92.3359375 160.4921875 C92.2755127 158.89644016 92.2755127 158.89644016 92.21386719 157.26845551 C92.58361882 91.55504123 92.58361882 91.55504123 69.3125 33 C65.21570106 29.35049424 61.42629658 28.16259974 56.0625 27.75 C48.9906826 28.22145449 43.18061984 30.7251443 38.3125 36 C15.54951042 63.74077317 13.60852506 106.05583876 11.0586853 140.228302 C9.17531018 165.44312459 6.5473821 190.42978515 0.3125 215 C0.08256348 215.91249512 -0.14737305 216.82499023 -0.38427734 217.76513672 C-5.27815901 236.72105886 -12.490186 254.82970526 -19.6875 273 C-20.07953613 273.99093658 -20.07953613 273.99093658 -20.47949219 275.00189209 C-23.51851156 282.68015849 -26.58487025 290.34720142 -29.6875 298 C-47.34642566 264.74617894 -54.89896405 228.12053139 -58.9375 190.9375 C-59.02067474 190.17488861 -59.10384949 189.41227722 -59.18954468 188.6265564 C-61.08626777 170.96917762 -61.89818547 153.38120512 -61.875 135.625 C-61.87439575 134.75804504 -61.8737915 133.89109009 -61.87316895 132.99786377 C-61.83176276 110.93089299 -60.10370977 89.41355568 -57.02416992 67.55371094 C-54.22582846 48.9112131 -54.22582846 48.9112131 -58.6875 31 C-61.48890755 27.79839137 -63.04317801 27.10173505 -67.25 26.4375 C-85.5952974 27.47200925 -103.12864071 44.01146316 -113.10302734 58.39599609 Z M-162.6875 391 C-167.88647207 411.59741507 -167.88647207 411.59741507 -171.875 432.375 C-171.99723938 433.12259583 -172.11947876 433.87019165 -172.24542236 434.64044189 C-180.31137424 484.36029731 -186.33007628 547.27158027 -156.55859375 591.13671875 C-148.7694378 601.12746082 -139.60742873 608.61387904 -127.6875 613 C-126.90761719 613.31839844 -126.12773438 613.63679687 -125.32421875 613.96484375 C-93.16571893 625.09465948 -53.50115051 605.12655031 -23.546875 594.4765625 C-22.88333008 594.24144455 -22.21978516 594.0063266 -21.53613281 593.76408386 C-19.19661351 592.92916714 -16.91163828 592.11206914 -14.6875 591 C-14.6875 570.54 -14.6875 550.08 -14.6875 529 C-12.7075 529 -10.7275 529 -8.6875 529 C-8.71192673 529.77150391 -8.73635345 530.54300781 -8.76152039 531.33789062 C-8.98258891 538.63432627 -9.14971411 545.92912393 -9.25743389 553.2280426 C-9.31468152 556.98014953 -9.3922044 560.72947491 -9.51733398 564.47998047 C-9.63750225 568.10476611 -9.70274812 571.72689107 -9.73114967 575.35351562 C-9.7513658 576.73170884 -9.79085302 578.10976745 -9.85053062 579.48681641 C-10.254923 587.72707312 -10.254923 587.72707312 -6.31018066 594.59613037 C-3.51725997 596.65771578 -0.75059539 598.3731286 2.3125 600 C3.07046371 600.44156937 3.82842743 600.88313873 4.60935974 601.33808899 C6.43650159 602.39456499 8.28593793 603.3350276 10.1875 604.25 C10.86458008 604.58008057 11.54166016 604.91016113 12.23925781 605.25024414 C29.4291828 613.41162688 45.30194628 614.81148775 63.4375 608.8125 C74.41432568 604.63838558 82.98918241 598.1881988 91.3125 590 C92.0859375 589.23945312 92.859375 588.47890625 93.65625 587.6953125 C108.24891177 572.45297743 116.6011913 551.13044061 116.4921875 530.06640625 C116.48950363 529.29992767 116.48681976 528.5334491 116.48405457 527.7437439 C116.36582857 516.84526027 115.47534918 505.98592161 114.625 495.125 C114.53635681 493.97536774 114.44771362 492.82573547 114.35638428 491.64126587 C113.11361931 475.6322839 111.69116057 459.64878043 109.9375 443.6875 C109.8506192 442.8640509 109.7637384 442.04060181 109.67422485 441.19219971 C107.86217424 424.22833067 104.47193785 407.8503352 101.3125 391 C14.1925 391 -72.9275 391 -162.6875 391 Z " fill="#11110E" transform="translate(183.6875,7)"/>
<path d="M0 0 C13.86247779 9.79808639 18.96713843 27.68705801 22.0234375 43.5390625 C23.52237544 54.25788285 22.2238629 63.46564855 19.53244019 73.83668518 C17.7944796 80.65399327 16.4816709 87.4645616 15.421875 94.41796875 C15.1656134 96.09487793 15.1656134 96.09487793 14.9041748 97.80566406 C12.99343689 110.81819116 11.95933255 123.89327089 10.9375 137 C7.0173865 187.28207975 -5.09264983 232.18215446 -24.5625 278.5 C-25.2225 278.5 -25.8825 278.5 -26.5625 278.5 C-38.13149458 247.9546085 -45.18952688 217.38543007 -48.8125 184.9375 C-48.89558411 184.19907867 -48.97866821 183.46065735 -49.06427002 182.69985962 C-50.96965282 165.5267531 -51.77393164 148.40009627 -51.75 131.125 C-51.74939575 130.30539795 -51.7487915 129.4857959 -51.74816895 128.64135742 C-51.70772746 108.22925883 -50.30252334 88.21735839 -47.4375 68 C-46.21955776 59.38602757 -45.17334341 50.895982 -45.125 42.1875 C-45.1151709 41.424375 -45.1053418 40.66125 -45.09521484 39.875 C-45.22507291 31.48880355 -47.60327412 24.45922588 -53.5625 18.5 C-54.5525 18.17 -55.5425 17.84 -56.5625 17.5 C-52.86037952 8.84893089 -42.61635759 2.69140151 -34.5625 -1.5 C-21.92928126 -6.55627055 -11.86963984 -7.05652128 0 0 Z " fill="#FFFFFF" transform="translate(178.5625,11.5)"/>
</svg>
