<?xml version="1.0" encoding="UTF-8"?>
<svg version="1.1" xmlns="http://www.w3.org/2000/svg" width="214" height="739">
<path d="M0 0 C34.10100354 29.74768394 31.65357638 123.97775522 37.26088715 166.10795975 C37.67928434 169.25078734 38.09892487 172.39344724 38.51861572 175.53610229 C46.13895633 232.70650413 51.66926503 289.46147708 53.27389526 347.13555908 C53.55331433 357.1484623 53.87214681 367.16017562 54.19140625 377.171875 C54.22260118 378.15397068 54.25379612 379.13606636 54.28593636 380.14792252 C55.5279943 419.04334927 57.49831502 457.88657157 61.9375 496.5625 C62.03613342 497.42993835 62.13476685 498.29737671 62.23638916 499.19110107 C66.16453811 533.4867724 73.02158349 567.00316422 80.67333984 600.63891602 C80.9255127 601.74807373 81.17768555 602.85723145 81.4375 604 C81.67549316 605.04663818 81.91348633 606.09327637 82.15869141 607.17163086 C86.65452452 627.37301823 89.5167569 650.77156933 77.87304688 669.25195312 C70.68050322 679.71056001 61.74526415 688.27556107 51.8828125 696.1875 C48.73547446 698.72540654 45.64390781 701.32040129 42.5625 703.9375 C42.01956299 704.39737305 41.47662598 704.85724609 40.91723633 705.33105469 C38.15181341 707.67520023 35.39392427 710.02769941 32.64453125 712.390625 C3.14418102 737.68606472 3.14418102 737.68606472 -17.3125 737.828125 C-25.29736196 737.05685992 -31.77531449 734.59328348 -38.8125 730.8125 C-39.71427979 730.33369385 -40.61605957 729.8548877 -41.54516602 729.36157227 C-51.83572557 723.77633831 -61.47010235 717.25702626 -71.0625 710.5625 C-71.73925781 710.09424805 -72.41601562 709.62599609 -73.11328125 709.14355469 C-81.40775179 703.39495424 -89.44652487 697.33707354 -97.29052734 690.98779297 C-98.4843692 690.02752171 -99.68542386 689.07615747 -100.89306641 688.13330078 C-114.92001768 677.17230922 -124.96969965 663.68700047 -127.7421875 645.640625 C-130.38058069 620.28630998 -121.67632632 597.21932952 -113.484375 573.66650391 C-112.31792445 570.31075229 -111.18117761 566.94624962 -110.0625 563.57421875 C-104.88900154 548.1122859 -98.83734452 532.97872748 -92.86239624 517.8135376 C-91.25598791 513.73237081 -89.65829035 509.6478278 -88.0625 505.5625 C-87.77215881 504.82256805 -87.48181763 504.08263611 -87.18267822 503.32028198 C-83.92748127 494.99517155 -81.03232237 486.76905566 -79.1875 478 C-78.94467285 476.86425537 -78.7018457 475.72851074 -78.45166016 474.55834961 C-60.37345705 387.53506448 -49.73076265 297.48170539 -37.93566895 127.72070312 C-34.95923266 19.87936643 -34.95923266 19.87936643 -21.0625 5.5625 C-14.76687543 -0.02696136 -8.42860683 -3.95628484 0 0 Z " fill="#FFFFFF" transform="translate(128.0625,1.4375)"/>
<path d="M0 0 C45.87 0 91.74 0 139 0 C141.31 14.52 143.62 29.04 146 44 C147.46015798 51.49424933 148.93840001 58.93694504 150.625 66.375 C151.00971056 68.12205818 151.3932288 69.86937929 151.77563477 71.61694336 C153.5549433 79.71421991 155.40846336 87.79281959 157.30566406 95.86328125 C161.90295157 115.50300716 165.53155644 136.15400687 156 155 C149.40956615 165.50962312 140.68144535 173.75719009 131.08984375 181.48046875 C127.6759049 184.26427476 124.33462502 187.1222227 121 190 C115.96448976 194.33846412 110.88075626 198.60351874 105.70703125 202.77734375 C103.80231296 204.34124665 101.92694812 205.94124844 100.07421875 207.56640625 C91.40143536 215.11431501 81.78007871 221.94855496 70 223 C68.66001953 223.13535156 68.66001953 223.13535156 67.29296875 223.2734375 C49.43439153 223.50268753 31.99639049 208.79873201 18 199 C16.53155429 197.98653813 15.06280428 196.97351702 13.59375 195.9609375 C5.05719335 190.04146922 -3.25963617 183.89498216 -11.32373047 177.34570312 C-13.01099357 175.99117441 -14.72337637 174.67456657 -16.44140625 173.359375 C-29.66674329 163.0183577 -37.63932586 149.84958238 -40 133 C-41.78281699 110.96321297 -33.36877195 90.14456777 -26.29693604 69.69311523 C-25.02549896 66.01354242 -23.77340812 62.32998268 -22.5703125 58.62744141 C-19.02013579 47.71601823 -15.02711681 37.01986801 -10.82128906 26.34472656 C-9.73256436 23.5807354 -8.65096044 20.81403279 -7.5703125 18.046875 C-6.87540304 16.27327953 -6.18010555 14.49983604 -5.484375 12.7265625 C-5.16353943 11.90684967 -4.84270386 11.08713684 -4.512146 10.24258423 C-4.21133118 9.48013397 -3.91051636 8.71768372 -3.60058594 7.93212891 C-3.33888611 7.26694244 -3.07718628 6.60175598 -2.80755615 5.91641235 C-1.95988261 3.90479739 -0.97623206 1.95246412 0 0 Z " fill="#FFFFFF" transform="translate(46,510)"/>
<path d="M0 0 C34.10100354 29.74768394 31.65357638 123.97775522 37.26088715 166.10795975 C37.67928434 169.25078734 38.09892487 172.39344724 38.51861572 175.53610229 C46.13895633 232.70650413 51.66926503 289.46147708 53.27389526 347.13555908 C53.55331433 357.1484623 53.87214681 367.16017562 54.19140625 377.171875 C54.22260118 378.15397068 54.25379612 379.13606636 54.28593636 380.14792252 C55.5279943 419.04334927 57.49831502 457.88657157 61.9375 496.5625 C62.03613342 497.42993835 62.13476685 498.29737671 62.23638916 499.19110107 C66.16453811 533.4867724 73.02158349 567.00316422 80.67333984 600.63891602 C80.9255127 601.74807373 81.17768555 602.85723145 81.4375 604 C81.67549316 605.04663818 81.91348633 606.09327637 82.15869141 607.17163086 C86.65452452 627.37301823 89.5167569 650.77156933 77.87304688 669.25195312 C70.68050322 679.71056001 61.74526415 688.27556107 51.8828125 696.1875 C48.73547446 698.72540654 45.64390781 701.32040129 42.5625 703.9375 C42.01956299 704.39737305 41.47662598 704.85724609 40.91723633 705.33105469 C38.15181341 707.67520023 35.39392427 710.02769941 32.64453125 712.390625 C3.14418102 737.68606472 3.14418102 737.68606472 -17.3125 737.828125 C-25.29736196 737.05685992 -31.77531449 734.59328348 -38.8125 730.8125 C-39.71427979 730.33369385 -40.61605957 729.8548877 -41.54516602 729.36157227 C-51.83572557 723.77633831 -61.47010235 717.25702626 -71.0625 710.5625 C-71.73925781 710.09424805 -72.41601562 709.62599609 -73.11328125 709.14355469 C-81.40775179 703.39495424 -89.44652487 697.33707354 -97.29052734 690.98779297 C-98.4843692 690.02752171 -99.68542386 689.07615747 -100.89306641 688.13330078 C-114.92001768 677.17230922 -124.96969965 663.68700047 -127.7421875 645.640625 C-130.38058069 620.28630998 -121.67632632 597.21932952 -113.484375 573.66650391 C-112.31792445 570.31075229 -111.18117761 566.94624962 -110.0625 563.57421875 C-104.88900154 548.1122859 -98.83734452 532.97872748 -92.86239624 517.8135376 C-91.25598791 513.73237081 -89.65829035 509.6478278 -88.0625 505.5625 C-87.77215881 504.82256805 -87.48181763 504.08263611 -87.18267822 503.32028198 C-83.92748127 494.99517155 -81.03232237 486.76905566 -79.1875 478 C-78.94467285 476.86425537 -78.7018457 475.72851074 -78.45166016 474.55834961 C-60.37345705 387.53506448 -49.73076265 297.48170539 -37.93566895 127.72070312 C-34.95923266 19.87936643 -34.95923266 19.87936643 -21.0625 5.5625 C-14.76687543 -0.02696136 -8.42860683 -3.95628484 0 0 Z M-15.0625 8.5625 C-37.6980032 33.45082579 -30.66690189 89.32240965 -31.5625 120.4375 C-33.69928023 194.20280562 -33.69928023 194.20280562 -37.5 228.875 C-37.62266235 230.01739136 -37.74532471 231.15978271 -37.8717041 232.33679199 C-45.55661426 303.70352718 -54.97296836 375.0129486 -66.8125 445.8125 C-66.98541565 446.85899719 -67.1583313 447.90549438 -67.33648682 448.98370361 C-73.46189153 485.82522601 -73.46189153 485.82522601 -78.1473999 497.19512939 C-79.24277406 499.60585692 -79.24277406 499.60585692 -79.0625 502.5625 C-34.5125 502.5625 10.0375 502.5625 55.9375 502.5625 C55.2775 494.9725 54.6175 487.3825 53.9375 479.5625 C52.31350482 460.61047624 50.84042295 441.66887872 49.93359375 422.66796875 C49.89178419 421.80596674 49.84997463 420.94396473 49.80689812 420.05584145 C49.13153129 406.03469049 48.61805212 392.0112289 48.19140625 377.98046875 C48.14794382 376.55565186 48.14794382 376.55565186 48.10360336 375.10205078 C47.83886433 366.38038009 47.58159623 357.65850174 47.33569336 348.9362793 C45.77686987 293.98821166 40.89649722 239.82101238 33.63824081 185.35234451 C33.2431392 182.38599029 32.84954231 179.41943929 32.45620728 176.45285034 C28.40679751 84.97125268 28.40679751 84.97125268 -3.0546875 5.7890625 C-7.51996114 3.06124942 -11.37086101 5.67202521 -15.0625 8.5625 Z M-82.0625 508.5625 C-117.03520789 581.35198054 -117.03520789 581.35198054 -117.80859375 657.69140625 C-103.66368857 687.86977342 -65.06138414 708.53598939 -37.0625 724.5625 C-36.02609375 725.17351562 -34.9896875 725.78453125 -33.921875 726.4140625 C-24.74025825 731.48558379 -16.15979715 732.68601322 -5.875 730.5 C8.54034111 726.28133718 19.39862079 714.93805355 30.4597168 705.29077148 C33.89491634 702.30217848 37.35848677 699.37926083 40.9375 696.5625 C67.01979275 675.92839894 67.01979275 675.92839894 79.51171875 646.0078125 C81.40861903 626.05976441 75.92627473 606.5110226 71.48999023 587.22973633 C68.85641552 575.76856595 66.38074364 564.29160082 64.125 552.75 C63.92299988 551.73471222 63.92299988 551.73471222 63.71691895 550.69891357 C60.94263721 536.71408548 59.03071833 522.69172376 56.9375 508.5625 C11.0675 508.5625 -34.8025 508.5625 -82.0625 508.5625 Z " fill="#11110E" transform="translate(128.0625,1.4375)"/>
</svg>
