<?xml version="1.0" encoding="UTF-8"?>
<svg version="1.1" xmlns="http://www.w3.org/2000/svg" width="187" height="636">
<path d="M0 0 C24.21938175 13.30315581 38.02571154 37.86821724 45.94970703 63.515625 C59.80617833 111.60720877 62.74893651 163.57077773 64.08659196 213.31843996 C64.24714838 219.10191285 64.43401262 224.88454853 64.61759949 230.66732788 C64.95952543 241.55411245 65.27963591 252.44141278 65.5909068 263.32911241 C65.97942056 276.88015908 66.39699928 290.43028828 66.81445312 303.98046875 C67.27393697 318.9224004 67.72815077 333.86444145 68.16447395 348.80706871 C68.443386 358.34710193 68.73148869 367.88683285 69.02622509 377.42638969 C69.09184842 379.56825243 69.15567297 381.71015915 69.21880341 383.85209656 C69.65182552 398.21458577 70.70008297 412.3764515 72.35546875 426.6484375 C72.5826458 428.66772991 72.80893856 430.68712198 73.03442383 432.706604 C73.51010719 436.9544476 73.99075359 441.20168431 74.47564697 445.44848633 C75.61868367 455.46574732 76.73203977 465.48633124 77.84814072 475.50662231 C78.22202261 478.86150175 78.596829 482.21627703 78.97171021 485.57104492 C81.07371669 504.40705576 83.08464448 523.25128819 85.00301361 542.1068573 C85.21961664 544.22804569 85.43855075 546.34898035 85.65826416 548.46984863 C86.92001557 560.66593867 88.16735941 572.8546988 88.8125 585.1015625 C88.85404205 585.87592651 88.89558411 586.65029053 88.93838501 587.44812012 C89.46283581 599.34982053 88.12105223 610.77165633 81.09765625 620.7578125 C71.47078811 630.91848404 57.84920159 633.6183317 44.36547852 634.04345703 C24.17820484 634.30406026 4.49334534 629.93539294 -14.90234375 624.7578125 C-15.77987305 624.52723145 -16.65740234 624.29665039 -17.56152344 624.05908203 C-43.94893794 617.02005263 -77.05961565 606.32390183 -91.90234375 581.7578125 C-93.56577811 578.49530284 -94.83469802 575.25856666 -95.90234375 571.7578125 C-96.12664062 571.02691406 -96.3509375 570.29601562 -96.58203125 569.54296875 C-99.58949175 557.4925277 -98.30374529 544.68916602 -96.25927734 532.60375977 C-96.0834934 531.56205659 -95.90770947 530.52035341 -95.72659874 529.44708347 C-93.75059314 518.22983691 -90.85319908 507.31605687 -87.81640625 496.34765625 C-87.2300891 494.19532156 -86.64485835 492.04269067 -86.06063843 489.88978577 C-84.53776322 484.28844732 -83.00122676 478.69095457 -81.46124268 473.09429932 C-79.6037021 466.33365773 -77.7625927 459.56852709 -75.91892052 452.80409336 C-74.48196797 447.5331635 -73.04287608 442.26285642 -71.59609985 436.99461365 C-70.02011557 431.25207972 -68.45555509 425.50654784 -66.90234375 419.7578125 C-66.62770357 418.74194817 -66.35306339 417.72608383 -66.07010078 416.67943573 C-65.24154128 413.60140689 -64.42155586 410.52121918 -63.60424805 407.44018555 C-63.2315639 406.05742007 -63.2315639 406.05742007 -62.85135078 404.64671993 C-60.82270705 396.9373224 -59.53869121 389.20327672 -58.69921875 381.27783203 C-58.60060547 380.36600159 -58.50199219 379.45417114 -58.40039062 378.51470947 C-58.24666992 377.08817047 -58.24666992 377.08817047 -58.08984375 375.6328125 C-57.85268689 373.55439613 -57.61435269 371.47611386 -57.375 369.39794922 C-55.31707579 351.31680259 -53.47363029 333.21107309 -51.57861328 315.11230469 C-51.28485763 312.30740397 -50.99106378 309.50250725 -50.69721222 306.69761658 C-50.50056578 304.82043655 -50.30398685 302.94324945 -50.10747528 301.0660553 C-45.67593701 258.75116081 -40.57886482 216.99472955 -31.40625 175.40234375 C-31.07525803 173.89670868 -31.07525803 173.89670868 -30.73757935 172.36065674 C-29.64486909 167.39352213 -28.54250578 162.42904714 -27.41699219 157.46923828 C-23.15916487 138.50770159 -20.38182256 119.96777078 -20.62109375 100.50268555 C-20.65290438 97.89943319 -20.66215698 95.29678916 -20.66796875 92.69335938 C-20.67711998 90.99999269 -20.68748966 89.30663204 -20.69921875 87.61328125 C-20.70346863 86.85379684 -20.70771851 86.09431244 -20.71209717 85.31181335 C-20.77218008 80.75196779 -21.12203378 76.29704365 -21.66677856 71.76994324 C-23.3186472 57.66015175 -23.03072097 43.15781439 -23.1335144 28.96115112 C-23.1459656 27.46282979 -23.16339953 25.96454073 -23.18606567 24.46633911 C-23.43305026 7.06086106 -23.43305026 7.06086106 -17.90234375 0.3203125 C-12.55909232 -3.85410268 -5.85422413 -2.50557641 0 0 Z " fill="#FFFFFF" transform="translate(97.90234375,2.2421875)"/>
<path d="M0 0 C38.94 0 77.88 0 118 0 C122.99768113 44.74846792 122.99768113 44.74846792 124.546875 58.75 C124.64854729 59.66889008 124.75021957 60.58778015 124.85497284 61.53451538 C127.87423728 88.83743283 130.82392441 116.14727757 133.63677979 143.47229004 C133.87558282 145.79162087 134.11510448 148.11087784 134.35540771 150.43005371 C134.99658072 156.62235455 135.62536357 162.81560962 136.2305603 169.01153564 C136.40578833 170.79247479 136.58464888 172.57306154 136.76773071 174.35321045 C138.31553616 189.4807625 139.2779835 204.13425933 131.375 217.8125 C120.72513341 227.62158765 107.27077026 229.63225984 93.171875 229.28125 C56.49318247 227.14669951 0.08354848 216.56233063 -26 188 C-35.86899964 175.94239264 -38.14611065 161.15919204 -37 146 C-35.19823719 128.24754592 -30.01065345 111.1183261 -25.33880615 93.95922852 C-24.28343239 90.07557968 -23.23892113 86.18903667 -22.19335938 82.30273438 C-19.47048388 72.19959741 -16.73487502 62.09989536 -14 52 C-9.38 34.84 -4.76 17.68 0 0 Z " fill="#FFFFFF" transform="translate(43,401)"/>
<path d="M0 0 C24.21938175 13.30315581 38.02571154 37.86821724 45.94970703 63.515625 C59.80617833 111.60720877 62.74893651 163.57077773 64.08659196 213.31843996 C64.24714838 219.10191285 64.43401262 224.88454853 64.61759949 230.66732788 C64.95952543 241.55411245 65.27963591 252.44141278 65.5909068 263.32911241 C65.97942056 276.88015908 66.39699928 290.43028828 66.81445312 303.98046875 C67.27393697 318.9224004 67.72815077 333.86444145 68.16447395 348.80706871 C68.443386 358.34710193 68.73148869 367.88683285 69.02622509 377.42638969 C69.09184842 379.56825243 69.15567297 381.71015915 69.21880341 383.85209656 C69.65182552 398.21458577 70.70008297 412.3764515 72.35546875 426.6484375 C72.5826458 428.66772991 72.80893856 430.68712198 73.03442383 432.706604 C73.51010719 436.9544476 73.99075359 441.20168431 74.47564697 445.44848633 C75.61868367 455.46574732 76.73203977 465.48633124 77.84814072 475.50662231 C78.22202261 478.86150175 78.596829 482.21627703 78.97171021 485.57104492 C81.07371669 504.40705576 83.08464448 523.25128819 85.00301361 542.1068573 C85.21961664 544.22804569 85.43855075 546.34898035 85.65826416 548.46984863 C86.92001557 560.66593867 88.16735941 572.8546988 88.8125 585.1015625 C88.85404205 585.87592651 88.89558411 586.65029053 88.93838501 587.44812012 C89.46283581 599.34982053 88.12105223 610.77165633 81.09765625 620.7578125 C71.47078811 630.91848404 57.84920159 633.6183317 44.36547852 634.04345703 C24.17820484 634.30406026 4.49334534 629.93539294 -14.90234375 624.7578125 C-15.77987305 624.52723145 -16.65740234 624.29665039 -17.56152344 624.05908203 C-43.94893794 617.02005263 -77.05961565 606.32390183 -91.90234375 581.7578125 C-93.56577811 578.49530284 -94.83469802 575.25856666 -95.90234375 571.7578125 C-96.12664062 571.02691406 -96.3509375 570.29601562 -96.58203125 569.54296875 C-99.58949175 557.4925277 -98.30374529 544.68916602 -96.25927734 532.60375977 C-96.0834934 531.56205659 -95.90770947 530.52035341 -95.72659874 529.44708347 C-93.75059314 518.22983691 -90.85319908 507.31605687 -87.81640625 496.34765625 C-87.2300891 494.19532156 -86.64485835 492.04269067 -86.06063843 489.88978577 C-84.53776322 484.28844732 -83.00122676 478.69095457 -81.46124268 473.09429932 C-79.6037021 466.33365773 -77.7625927 459.56852709 -75.91892052 452.80409336 C-74.48196797 447.5331635 -73.04287608 442.26285642 -71.59609985 436.99461365 C-70.02011557 431.25207972 -68.45555509 425.50654784 -66.90234375 419.7578125 C-66.62770357 418.74194817 -66.35306339 417.72608383 -66.07010078 416.67943573 C-65.24154128 413.60140689 -64.42155586 410.52121918 -63.60424805 407.44018555 C-63.2315639 406.05742007 -63.2315639 406.05742007 -62.85135078 404.64671993 C-60.82270705 396.9373224 -59.53869121 389.20327672 -58.69921875 381.27783203 C-58.60060547 380.36600159 -58.50199219 379.45417114 -58.40039062 378.51470947 C-58.24666992 377.08817047 -58.24666992 377.08817047 -58.08984375 375.6328125 C-57.85268689 373.55439613 -57.61435269 371.47611386 -57.375 369.39794922 C-55.31707579 351.31680259 -53.47363029 333.21107309 -51.57861328 315.11230469 C-51.28485763 312.30740397 -50.99106378 309.50250725 -50.69721222 306.69761658 C-50.50056578 304.82043655 -50.30398685 302.94324945 -50.10747528 301.0660553 C-45.67593701 258.75116081 -40.57886482 216.99472955 -31.40625 175.40234375 C-31.07525803 173.89670868 -31.07525803 173.89670868 -30.73757935 172.36065674 C-29.64486909 167.39352213 -28.54250578 162.42904714 -27.41699219 157.46923828 C-23.15916487 138.50770159 -20.38182256 119.96777078 -20.62109375 100.50268555 C-20.65290438 97.89943319 -20.66215698 95.29678916 -20.66796875 92.69335938 C-20.67711998 90.99999269 -20.68748966 89.30663204 -20.69921875 87.61328125 C-20.70346863 86.85379684 -20.70771851 86.09431244 -20.71209717 85.31181335 C-20.77218008 80.75196779 -21.12203378 76.29704365 -21.66677856 71.76994324 C-23.3186472 57.66015175 -23.03072097 43.15781439 -23.1335144 28.96115112 C-23.1459656 27.46282979 -23.16339953 25.96454073 -23.18606567 24.46633911 C-23.43305026 7.06086106 -23.43305026 7.06086106 -17.90234375 0.3203125 C-12.55909232 -3.85410268 -5.85422413 -2.50557641 0 0 Z M-14.27734375 5.9453125 C-16.85383028 10.40461611 -17.03001842 13.96131818 -17.03515625 19.0859375 C-17.03717041 20.34970215 -17.03918457 21.6134668 -17.04125977 22.91552734 C-17.03716604 24.27962414 -17.0325155 25.64371936 -17.02734375 27.0078125 C-17.02612518 27.69611145 -17.02490662 28.3844104 -17.02365112 29.09356689 C-17.00425306 38.44668703 -16.85116113 47.78661671 -16.46484375 57.1328125 C-16.42568848 58.0805957 -16.3865332 59.02837891 -16.34619141 60.00488281 C-16.15737007 64.02583671 -15.87933797 67.99487333 -15.39746094 71.99145508 C-14.86525222 76.68708284 -14.70733209 81.33571951 -14.6640625 86.05859375 C-14.65599075 86.93388229 -14.64791901 87.80917084 -14.63960266 88.71098328 C-14.62584351 90.56405718 -14.61508528 92.41715556 -14.60717773 94.27026367 C-14.59583184 96.10302558 -14.57566894 97.9357593 -14.5456543 99.76831055 C-14.13712331 124.8484615 -18.86593634 148.91191807 -24.41690063 173.27355957 C-34.992817 219.94037663 -40.34596481 266.78732768 -45.42590332 314.30548096 C-45.88563481 318.60476436 -46.34812152 322.90374756 -46.81152344 327.20263672 C-47.87911612 337.10845945 -48.9466833 347.01427813 -50 356.92163086 C-50.11453522 357.99888931 -50.22907043 359.07614777 -50.34707642 360.18605042 C-50.55354262 362.1302083 -50.75963344 364.07440612 -50.96517944 366.0186615 C-51.91148691 374.93564984 -52.91204679 383.84513988 -53.90234375 392.7578125 C-15.29234375 392.7578125 23.31765625 392.7578125 63.09765625 392.7578125 C62.24133005 355.61328033 62.24133005 355.61328033 61.24911499 318.47251892 C61.22422166 317.60310982 61.19932833 316.73370071 61.17368066 315.83794588 C60.80739941 303.10838909 60.42232883 290.37937592 60.0313015 277.65055752 C59.71752307 267.41982989 59.41362653 257.18900594 59.13427734 246.95727539 C56.9817265 161.73566379 56.9817265 161.73566379 43.09765625 77.7578125 C42.86224121 76.77296875 42.62682617 75.788125 42.38427734 74.7734375 C35.81874028 48.13328709 23.92717831 22.6130743 0.03515625 7.3828125 C-7.1994546 3.07310395 -7.1994546 3.07310395 -14.27734375 5.9453125 Z M-54.90234375 398.7578125 C-59.86634866 417.48655352 -59.86634866 417.48655352 -64.82836914 436.21582031 C-68.54460003 450.22740295 -72.28820063 464.23046789 -76.12021828 478.21087837 C-76.70777239 480.35563384 -77.29402583 482.50074038 -77.87980652 484.64598083 C-78.07059815 485.34458505 -78.26138979 486.04318926 -78.45796299 486.76296329 C-78.8386091 488.15675843 -79.21921642 489.55056415 -79.5997839 490.94438076 C-80.52053891 494.31351055 -81.44540646 497.6814099 -82.37936401 501.04690552 C-93.67968639 539.97713122 -93.67968639 539.97713122 -86.46484375 578.89453125 C-72.43843042 603.06986384 -36.36940297 612.54102981 -11.33178711 619.41308594 C29.51553607 630.31119742 29.51553607 630.31119742 69.66015625 622.1328125 C75.54569892 618.18626725 78.74966573 613.03150375 81.41015625 606.5703125 C83.61667963 594.33413738 82.85797986 582.76411774 81.59765625 570.5078125 C81.41573908 568.65729362 81.2345321 566.80670482 81.05395508 564.95605469 C80.42294877 558.55443731 79.76142075 552.15610369 79.09765625 545.7578125 C78.97308044 544.55125 78.84850464 543.3446875 78.72015381 542.1015625 C74.63570088 502.55787946 70.28564389 463.04346218 65.85620117 423.53710938 C64.93206229 415.27785981 64.01542951 407.01777183 63.09765625 398.7578125 C24.15765625 398.7578125 -14.78234375 398.7578125 -54.90234375 398.7578125 Z " fill="#11110E" transform="translate(97.90234375,2.2421875)"/>
</svg>
