<?xml version="1.0" encoding="UTF-8"?>
<svg version="1.1" xmlns="http://www.w3.org/2000/svg" width="273" height="671">
<path d="M0 0 C8.86676961 6.64072407 10.7675426 16.92760212 12.42822266 27.24072266 C13.04584404 31.83049724 13.18932237 36.32232017 13.1640625 40.94921875 C13.16212891 42.56026489 13.16212891 42.56026489 13.16015625 44.20385742 C13.04263483 55.1428981 12.27728981 66.03382174 11.56314087 76.94708252 C10.29114919 96.49865685 9.52302042 115.9793598 9.4765625 135.57421875 C9.46906982 136.65136139 9.46157715 137.72850403 9.45385742 138.83828735 C9.33847401 158.89250192 10.9770497 178.68654382 15.7890625 198.19921875 C16.07773193 199.4102124 16.36640137 200.62120605 16.66381836 201.86889648 C18.52778057 209.57333415 20.6144037 217.21117783 22.765625 224.83984375 C23.02346268 225.7551738 23.28130035 226.67050385 23.54695129 227.61357117 C24.81603419 232.10537824 26.10013246 236.59199462 27.41186523 241.0715332 C36.08834836 271.00343586 40.3903017 301.70999058 44.98382568 332.46643066 C46.28759148 341.18565714 47.60524516 349.90279466 48.92295456 358.61992264 C49.37322736 361.60723258 49.81962423 364.59509904 50.26528931 367.58309937 C51.10441193 373.18797873 51.97124842 378.78817382 52.8515625 384.38671875 C53.00834473 385.39648333 53.16512695 386.4062479 53.32666016 387.4466114 C53.81074857 390.53173851 54.31241498 393.61353811 54.81884766 396.69506836 C54.96285318 397.62312223 55.10685871 398.55117611 55.25522804 399.50735283 C56.76230273 408.45419457 60.23187367 416.13788999 64.35913086 424.15859985 C66.09752118 427.53849487 67.76712345 430.95113575 69.44311523 434.36228943 C70.30785335 436.12070335 71.17584777 437.87751973 72.04711914 439.63270569 C76.38437058 448.38444772 80.41040032 457.26331519 84.3515625 466.19921875 C84.68088776 466.94496155 85.01021301 467.69070435 85.34951782 468.45904541 C117.93804257 542.39269383 117.93804257 542.39269383 118.1015625 579.51171875 C118.1221875 580.65898438 118.1428125 581.80625 118.1640625 582.98828125 C118.24152937 600.18592633 113.36835949 615.571058 101.2265625 628.08203125 C100.4428125 628.84257813 99.6590625 629.603125 98.8515625 630.38671875 C98.0678125 631.16789063 97.2840625 631.9490625 96.4765625 632.75390625 C57.64259906 669.72085222 -16.63977325 669.17433744 -66.96118164 668.34008789 C-123.89875386 666.92378199 -123.89875386 666.92378199 -143.1796875 648.5859375 C-154.92671528 635.46376163 -155.99698383 619.20231035 -155.1484375 602.38671875 C-154.82976976 599.10576194 -154.37822568 595.85350893 -153.890625 592.59375 C-153.7572171 591.68638596 -153.6238092 590.77902191 -153.48635864 589.84416199 C-151.98318635 579.89777702 -150.05693299 570.04885553 -148.0234375 560.19921875 C-147.81723785 559.19214874 -147.61103821 558.18507874 -147.39859009 557.14749146 C-143.68004147 539.04256358 -139.62745411 521.01701758 -135.48305893 503.00574207 C-134.37254771 498.17643901 -133.2746123 493.34448719 -132.18620682 488.51015568 C-128.89887057 473.9251876 -125.60776598 459.42808377 -121.19921875 445.1328125 C-108.4672972 402.52403153 -110.79176506 358.69124076 -111.13218117 314.63680267 C-111.26149282 296.95236249 -110.9400842 279.31955555 -110.2421875 261.6484375 C-110.19951563 260.56000864 -110.15684376 259.47157978 -110.1128788 258.35016823 C-108.1738959 210.02487908 -104.68178459 160.51869696 -89.1484375 114.38671875 C-88.7762207 113.28086426 -88.40400391 112.17500977 -88.02050781 111.03564453 C-63.15917799 37.91120515 -63.15917799 37.91120515 -43.1484375 15.38671875 C-42.39949219 14.53980469 -41.65054688 13.69289063 -40.87890625 12.8203125 C-30.92854079 2.24260351 -14.39035252 -8.16982165 0 0 Z " fill="#FFFFFF" transform="translate(155.1484375,2.61328125)"/>
<path d="M0 0 C8.86676961 6.64072407 10.7675426 16.92760212 12.42822266 27.24072266 C13.04584404 31.83049724 13.18932237 36.32232017 13.1640625 40.94921875 C13.16212891 42.56026489 13.16212891 42.56026489 13.16015625 44.20385742 C13.04263483 55.1428981 12.27728981 66.03382174 11.56314087 76.94708252 C10.29114919 96.49865685 9.52302042 115.9793598 9.4765625 135.57421875 C9.46906982 136.65136139 9.46157715 137.72850403 9.45385742 138.83828735 C9.33847401 158.89250192 10.9770497 178.68654382 15.7890625 198.19921875 C16.07773193 199.4102124 16.36640137 200.62120605 16.66381836 201.86889648 C18.52778057 209.57333415 20.6144037 217.21117783 22.765625 224.83984375 C23.02346268 225.7551738 23.28130035 226.67050385 23.54695129 227.61357117 C24.81603419 232.10537824 26.10013246 236.59199462 27.41186523 241.0715332 C36.08834836 271.00343586 40.3903017 301.70999058 44.98382568 332.46643066 C46.28759148 341.18565714 47.60524516 349.90279466 48.92295456 358.61992264 C49.37322736 361.60723258 49.81962423 364.59509904 50.26528931 367.58309937 C51.10441193 373.18797873 51.97124842 378.78817382 52.8515625 384.38671875 C53.00834473 385.39648333 53.16512695 386.4062479 53.32666016 387.4466114 C53.81074857 390.53173851 54.31241498 393.61353811 54.81884766 396.69506836 C54.96285318 397.62312223 55.10685871 398.55117611 55.25522804 399.50735283 C56.76230273 408.45419457 60.23187367 416.13788999 64.35913086 424.15859985 C66.09752118 427.53849487 67.76712345 430.95113575 69.44311523 434.36228943 C70.30785335 436.12070335 71.17584777 437.87751973 72.04711914 439.63270569 C76.38437058 448.38444772 80.41040032 457.26331519 84.3515625 466.19921875 C84.68088776 466.94496155 85.01021301 467.69070435 85.34951782 468.45904541 C117.93804257 542.39269383 117.93804257 542.39269383 118.1015625 579.51171875 C118.1221875 580.65898438 118.1428125 581.80625 118.1640625 582.98828125 C118.24152937 600.18592633 113.36835949 615.571058 101.2265625 628.08203125 C100.4428125 628.84257813 99.6590625 629.603125 98.8515625 630.38671875 C98.0678125 631.16789063 97.2840625 631.9490625 96.4765625 632.75390625 C57.64259906 669.72085222 -16.63977325 669.17433744 -66.96118164 668.34008789 C-123.89875386 666.92378199 -123.89875386 666.92378199 -143.1796875 648.5859375 C-154.92671528 635.46376163 -155.99698383 619.20231035 -155.1484375 602.38671875 C-154.82976976 599.10576194 -154.37822568 595.85350893 -153.890625 592.59375 C-153.7572171 591.68638596 -153.6238092 590.77902191 -153.48635864 589.84416199 C-151.98318635 579.89777702 -150.05693299 570.04885553 -148.0234375 560.19921875 C-147.81723785 559.19214874 -147.61103821 558.18507874 -147.39859009 557.14749146 C-143.68004147 539.04256358 -139.62745411 521.01701758 -135.48305893 503.00574207 C-134.37254771 498.17643901 -133.2746123 493.34448719 -132.18620682 488.51015568 C-128.89887057 473.9251876 -125.60776598 459.42808377 -121.19921875 445.1328125 C-108.4672972 402.52403153 -110.79176506 358.69124076 -111.13218117 314.63680267 C-111.26149282 296.95236249 -110.9400842 279.31955555 -110.2421875 261.6484375 C-110.19951563 260.56000864 -110.15684376 259.47157978 -110.1128788 258.35016823 C-108.1738959 210.02487908 -104.68178459 160.51869696 -89.1484375 114.38671875 C-88.7762207 113.28086426 -88.40400391 112.17500977 -88.02050781 111.03564453 C-63.15917799 37.91120515 -63.15917799 37.91120515 -43.1484375 15.38671875 C-42.39949219 14.53980469 -41.65054688 13.69289063 -40.87890625 12.8203125 C-30.92854079 2.24260351 -14.39035252 -8.16982165 0 0 Z M-105.1484375 400.38671875 C-113.66341994 436.40732976 -113.66341994 436.40732976 -122.12109375 472.44140625 C-122.37653521 473.53492275 -122.63197666 474.62843925 -122.89515877 475.75509262 C-127.46002173 495.31323229 -131.91939454 514.8918225 -136.2109375 534.51171875 C-136.47940491 535.73213867 -136.74787231 536.95255859 -137.0244751 538.20996094 C-140.04141655 551.95716923 -142.8443877 565.73732455 -145.45703125 579.56640625 C-145.58647692 580.24722385 -145.71592258 580.92804146 -145.84929085 581.6294899 C-149.48623054 600.82215912 -153.07235509 621.9258824 -142.1484375 639.38671875 C-132.96935257 652.52311325 -118.35340305 656.53875852 -103.3203125 659.328125 C-48.70391517 668.37391653 23.81185311 665.04152506 73.8515625 640.38671875 C75.37330078 639.64615234 75.37330078 639.64615234 76.92578125 638.890625 C91.68447193 631.29514821 102.84311563 620.01931504 108.8515625 604.38671875 C126.10372368 548.46431839 84.05317506 480.23264872 61.140625 431.39453125 C60.34060059 429.68185059 60.34060059 429.68185059 59.52441406 427.93457031 C58.34955077 425.44287251 57.16057138 422.96249668 55.95214844 420.48730469 C55.63660004 419.83245087 55.32105164 419.17759705 54.99594116 418.50289917 C54.11842648 416.68242987 53.23211571 414.86620799 52.34521484 413.05029297 C50.8515625 409.38671875 50.8515625 409.38671875 48.8515625 400.38671875 C-1.9684375 400.38671875 -52.7884375 400.38671875 -105.1484375 400.38671875 Z " fill="#FFFFFF" transform="translate(155.1484375,2.61328125)"/>
<path d="M0 0 C8.86676961 6.64072407 10.7675426 16.92760212 12.42822266 27.24072266 C13.04584404 31.83049724 13.18932237 36.32232017 13.1640625 40.94921875 C13.16212891 42.56026489 13.16212891 42.56026489 13.16015625 44.20385742 C13.04263483 55.1428981 12.27728981 66.03382174 11.56314087 76.94708252 C10.29114919 96.49865685 9.52302042 115.9793598 9.4765625 135.57421875 C9.46906982 136.65136139 9.46157715 137.72850403 9.45385742 138.83828735 C9.33847401 158.89250192 10.9770497 178.68654382 15.7890625 198.19921875 C16.07773193 199.4102124 16.36640137 200.62120605 16.66381836 201.86889648 C18.52778057 209.57333415 20.6144037 217.21117783 22.765625 224.83984375 C23.02346268 225.7551738 23.28130035 226.67050385 23.54695129 227.61357117 C24.81603419 232.10537824 26.10013246 236.59199462 27.41186523 241.0715332 C36.08834836 271.00343586 40.3903017 301.70999058 44.98382568 332.46643066 C46.28759148 341.18565714 47.60524516 349.90279466 48.92295456 358.61992264 C49.37322736 361.60723258 49.81962423 364.59509904 50.26528931 367.58309937 C51.10441193 373.18797873 51.97124842 378.78817382 52.8515625 384.38671875 C53.00834473 385.39648333 53.16512695 386.4062479 53.32666016 387.4466114 C53.81074857 390.53173851 54.31241498 393.61353811 54.81884766 396.69506836 C54.96285318 397.62312223 55.10685871 398.55117611 55.25522804 399.50735283 C56.76230273 408.45419457 60.23187367 416.13788999 64.35913086 424.15859985 C66.09752118 427.53849487 67.76712345 430.95113575 69.44311523 434.36228943 C70.30785335 436.12070335 71.17584777 437.87751973 72.04711914 439.63270569 C76.38437058 448.38444772 80.41040032 457.26331519 84.3515625 466.19921875 C84.68088776 466.94496155 85.01021301 467.69070435 85.34951782 468.45904541 C117.93804257 542.39269383 117.93804257 542.39269383 118.1015625 579.51171875 C118.1221875 580.65898438 118.1428125 581.80625 118.1640625 582.98828125 C118.24152937 600.18592633 113.36835949 615.571058 101.2265625 628.08203125 C100.4428125 628.84257813 99.6590625 629.603125 98.8515625 630.38671875 C98.0678125 631.16789063 97.2840625 631.9490625 96.4765625 632.75390625 C57.64259906 669.72085222 -16.63977325 669.17433744 -66.96118164 668.34008789 C-123.89875386 666.92378199 -123.89875386 666.92378199 -143.1796875 648.5859375 C-154.92671528 635.46376163 -155.99698383 619.20231035 -155.1484375 602.38671875 C-154.82976976 599.10576194 -154.37822568 595.85350893 -153.890625 592.59375 C-153.7572171 591.68638596 -153.6238092 590.77902191 -153.48635864 589.84416199 C-151.98318635 579.89777702 -150.05693299 570.04885553 -148.0234375 560.19921875 C-147.81723785 559.19214874 -147.61103821 558.18507874 -147.39859009 557.14749146 C-143.68004147 539.04256358 -139.62745411 521.01701758 -135.48305893 503.00574207 C-134.37254771 498.17643901 -133.2746123 493.34448719 -132.18620682 488.51015568 C-128.89887057 473.9251876 -125.60776598 459.42808377 -121.19921875 445.1328125 C-108.4672972 402.52403153 -110.79176506 358.69124076 -111.13218117 314.63680267 C-111.26149282 296.95236249 -110.9400842 279.31955555 -110.2421875 261.6484375 C-110.19951563 260.56000864 -110.15684376 259.47157978 -110.1128788 258.35016823 C-108.1738959 210.02487908 -104.68178459 160.51869696 -89.1484375 114.38671875 C-88.7762207 113.28086426 -88.40400391 112.17500977 -88.02050781 111.03564453 C-63.15917799 37.91120515 -63.15917799 37.91120515 -43.1484375 15.38671875 C-42.39949219 14.53980469 -41.65054688 13.69289063 -40.87890625 12.8203125 C-30.92854079 2.24260351 -14.39035252 -8.16982165 0 0 Z M-43.1484375 25.38671875 C-56.6305236 43.46443768 -64.76730128 65.31078796 -72.40313721 86.33630371 C-73.21581962 88.57209544 -74.0335638 90.80600843 -74.85107422 93.04003906 C-82.0907233 112.88170941 -89.18158336 132.58816666 -93.1484375 153.38671875 C-93.36258301 154.47839355 -93.57672852 155.57006836 -93.79736328 156.69482422 C-99.16108285 184.57282533 -101.68963324 212.94354779 -103.3359375 241.26171875 C-103.40772217 242.49108154 -103.47950684 243.72044434 -103.5534668 244.98706055 C-103.78720884 249.45264387 -103.97468753 253.91845437 -104.1484375 258.38671875 C-104.19147003 259.44715393 -104.23450256 260.50758911 -104.27883911 261.60015869 C-105.37478679 289.56686211 -105.26173316 317.52735691 -105.2109375 345.51171875 C-105.1903125 361.64046875 -105.1696875 377.76921875 -105.1484375 394.38671875 C-54.6584375 394.38671875 -4.1684375 394.38671875 47.8515625 394.38671875 C45.23532035 376.07302368 42.56939251 357.76913427 39.83107281 339.47367764 C39.11359826 334.67938181 38.39950426 329.88463783 37.69360352 325.08862305 C33.44927323 296.27419473 28.53947566 267.96828788 20.61227417 239.89694214 C19.28744593 235.19868354 17.99467126 230.49158324 16.69921875 225.78515625 C16.32241722 224.4187928 16.32241722 224.4187928 15.93800354 223.02482605 C9.35603492 199.09197363 3.75856954 175.10637886 3.6484375 150.171875 C3.63825592 148.56898621 3.63825592 148.56898621 3.62786865 146.93371582 C3.61083863 143.4388538 3.60465257 139.94411972 3.6015625 136.44921875 C3.59922607 135.2461911 3.59688965 134.04316345 3.59448242 132.80368042 C3.57993429 112.75784749 4.35497237 92.83495094 5.78417969 72.84204102 C6.50058884 62.68867529 6.99455352 52.58774767 7.01953125 42.40625 C7.02380127 41.41839005 7.02807129 40.43053009 7.0324707 39.41273499 C6.98395311 28.14349256 5.402171 16.88788462 -1.1484375 7.38671875 C-4.32620617 4.48527779 -6.17122928 3.53705848 -10.3984375 2.88671875 C-24.67960238 4.79087407 -34.42740002 14.62017644 -43.1484375 25.38671875 Z M-105.1484375 400.38671875 C-113.66341994 436.40732976 -113.66341994 436.40732976 -122.12109375 472.44140625 C-122.37653521 473.53492275 -122.63197666 474.62843925 -122.89515877 475.75509262 C-127.46002173 495.31323229 -131.91939454 514.8918225 -136.2109375 534.51171875 C-136.47940491 535.73213867 -136.74787231 536.95255859 -137.0244751 538.20996094 C-140.04141655 551.95716923 -142.8443877 565.73732455 -145.45703125 579.56640625 C-145.58647692 580.24722385 -145.71592258 580.92804146 -145.84929085 581.6294899 C-149.48623054 600.82215912 -153.07235509 621.9258824 -142.1484375 639.38671875 C-132.96935257 652.52311325 -118.35340305 656.53875852 -103.3203125 659.328125 C-48.70391517 668.37391653 23.81185311 665.04152506 73.8515625 640.38671875 C75.37330078 639.64615234 75.37330078 639.64615234 76.92578125 638.890625 C91.68447193 631.29514821 102.84311563 620.01931504 108.8515625 604.38671875 C126.10372368 548.46431839 84.05317506 480.23264872 61.140625 431.39453125 C60.34060059 429.68185059 60.34060059 429.68185059 59.52441406 427.93457031 C58.34955077 425.44287251 57.16057138 422.96249668 55.95214844 420.48730469 C55.63660004 419.83245087 55.32105164 419.17759705 54.99594116 418.50289917 C54.11842648 416.68242987 53.23211571 414.86620799 52.34521484 413.05029297 C50.8515625 409.38671875 50.8515625 409.38671875 48.8515625 400.38671875 C-1.9684375 400.38671875 -52.7884375 400.38671875 -105.1484375 400.38671875 Z " fill="#11110E" transform="translate(155.1484375,2.61328125)"/>
</svg>
