<?xml version="1.0" encoding="UTF-8"?>
<svg version="1.1" xmlns="http://www.w3.org/2000/svg" width="274" height="568">
<path d="M0 0 C8.54794979 6.97460799 12.76736886 15.78012777 15.55859375 26.3046875 C15.55859375 26.9646875 15.55859375 27.6246875 15.55859375 28.3046875 C16.58984375 28.3871875 17.62109375 28.4696875 18.68359375 28.5546875 C23.87234934 29.55896277 27.0012161 31.48774691 30.43359375 35.4921875 C32.4743821 40.59415838 32.21965937 45.32149065 30.49609375 50.4921875 C26.65121973 56.07345623 22.23269901 59.67685695 15.55859375 61.3046875 C15.55859375 64.36691861 15.58413791 66.45350191 16.55859375 69.3046875 C18.4185969 71.14766545 20.37631102 72.49567503 22.55078125 73.94921875 C26.71040211 76.75736746 28.2935862 79.29434623 29.55859375 84.1171875 C29.91024106 88.90500089 28.50241239 92.54577929 25.55859375 96.3046875 C24.1933914 97.28625741 22.79522671 98.22326231 21.37109375 99.1171875 C18.54531919 100.99928966 17.69506852 101.78406152 16.8203125 105.12109375 C16.58490704 107.87217547 16.48004824 110.54577654 16.55859375 113.3046875 C17.14382812 113.41296875 17.7290625 113.52125 18.33203125 113.6328125 C22.91776424 115.01657754 26.49475198 118.6645981 29.05859375 122.6171875 C29.92222169 127.25918768 29.86831177 131.87908972 27.58203125 136.11328125 C24.81776884 139.68898844 21.67376743 141.58205666 17.55859375 143.3046875 C16.81805602 147.38701745 16.81805602 147.38701745 17.55859375 151.3046875 C19.97130847 153.23660762 22.39705025 154.53698837 25.17578125 155.8828125 C27.85271731 157.48019729 28.56915018 158.39132588 29.55859375 161.3046875 C30.00600161 165.92790207 30.07608576 168.26970349 27.99609375 172.4296875 C25.16221437 175.77221189 22.16831926 178.79743973 18.55859375 181.3046875 C17.89859375 181.3046875 17.23859375 181.3046875 16.55859375 181.3046875 C16.88859375 185.2646875 17.21859375 189.2246875 17.55859375 193.3046875 C18.75484375 193.5315625 19.95109375 193.7584375 21.18359375 193.9921875 C25.75017018 195.1196371 28.21133278 197.03906704 31.55859375 200.3046875 C33.53295587 204.25341174 32.99689068 209.00085517 32.55859375 213.3046875 C29.40227291 219.73422996 25.10223528 222.68723089 18.55859375 225.3046875 C18.55859375 232.2346875 18.55859375 239.1646875 18.55859375 246.3046875 C21.52859375 247.9546875 24.49859375 249.6046875 27.55859375 251.3046875 C31.3853654 256.4070497 31.3853654 256.4070497 31.55859375 260.3046875 C30.75500851 263.38328771 29.68347647 266.33098763 28.55859375 269.3046875 C28.22859375 270.2946875 27.89859375 271.2846875 27.55859375 272.3046875 C28.87766522 274.45733789 28.87766522 274.45733789 30.87109375 276.6796875 C31.60714844 277.56785156 32.34320313 278.45601563 33.1015625 279.37109375 C34.31779297 280.82322266 34.31779297 280.82322266 35.55859375 282.3046875 C42.37059618 290.50689451 47.5231829 298.35367732 51.55859375 308.3046875 C53.01200514 311.84839014 54.47192244 315.38938464 55.93359375 318.9296875 C56.34681885 319.93515625 56.76004395 320.940625 57.18579102 321.9765625 C60.73810286 330.53478779 64.5646037 338.94885112 68.45220947 347.35873413 C75.60746049 362.83918643 82.39551841 378.39600903 88.55859375 394.3046875 C88.9345166 395.27148438 89.31043945 396.23828125 89.69775391 397.234375 C101.97356193 429.08276187 114.06987484 467.7298013 99.78515625 500.93359375 C97.48414511 505.38172674 94.60227005 509.34051749 91.55859375 513.3046875 C91.10871094 513.92085937 90.65882813 514.53703125 90.1953125 515.171875 C69.31122249 541.90843861 26.58132393 548.96202008 -4.64746094 552.86669922 C-117.86029968 565.93644392 -117.86029968 565.93644392 -151.19140625 541.26953125 C-161.24449738 532.78723561 -166.66691828 522.25533652 -168.44140625 509.3046875 C-171.70444803 456.88204913 -150.76546662 399.49776109 -138.929492 348.70463181 C-137.56331542 342.83794954 -136.21194405 336.96795767 -134.86338806 331.09719849 C-133.87409453 326.80157727 -132.87404134 322.50852854 -131.86984253 318.21636963 C-131.4248681 316.30664851 -130.98391066 314.39598601 -130.5473938 312.48431396 C-127.27244738 298.16955335 -124.26238378 288.24343651 -112.87890625 278.3671875 C-103.84307091 270.01976053 -101.28936904 262.37919993 -100.44140625 250.3046875 C-100.44140625 248.9846875 -100.44140625 247.6646875 -100.44140625 246.3046875 C-101.84410334 245.33615856 -103.25592737 244.37766645 -104.71484375 243.49609375 C-109.63992538 240.09756457 -113.35652085 235.21128579 -114.44140625 229.3046875 C-114.54560281 222.8445006 -112.85447956 219.72413107 -108.4296875 215.0703125 C-105.62474498 212.57947946 -102.80568441 210.95249721 -99.44140625 209.3046875 C-99.44140625 207.6546875 -99.44140625 206.0046875 -99.44140625 204.3046875 C-99.96089844 204.09714844 -100.48039062 203.88960937 -101.015625 203.67578125 C-106.39830511 201.29785048 -109.95085657 198.74541619 -112.44140625 193.3046875 C-113.74951619 188.71411537 -113.69117021 185.22569209 -112.44140625 180.6171875 C-109.49421581 175.73590333 -106.05758204 172.08397391 -100.50390625 170.4296875 C-99.82328125 170.3884375 -99.14265625 170.3471875 -98.44140625 170.3046875 C-98.42740478 166.18626605 -98.42740478 166.18626605 -99.44140625 162.3046875 C-101.3333865 160.93432797 -103.20319105 160.17494819 -105.3671875 159.3046875 C-109.21758904 157.44837339 -111.54848808 154.09052385 -113.44140625 150.3046875 C-114.0088812 146.1904941 -114.28355335 143.71159793 -112.125 140.10546875 C-108.39007067 135.58511804 -104.99805875 133.11910464 -99.44140625 131.3046875 C-99.44140625 128.6646875 -99.44140625 126.0246875 -99.44140625 123.3046875 C-101.26671875 122.7478125 -101.26671875 122.7478125 -103.12890625 122.1796875 C-107.72623806 120.46791502 -109.68153201 118.31905003 -112.44140625 114.3046875 C-114.12015351 109.26844571 -113.97724005 105.59961917 -111.94140625 100.6796875 C-109.41279551 96.66472493 -105.73453137 94.21764058 -101.44140625 92.3046875 C-100.45140625 92.3046875 -99.46140625 92.3046875 -98.44140625 92.3046875 C-98.44140625 87.6846875 -98.44140625 83.0646875 -98.44140625 78.3046875 C-99.61703125 78.2634375 -100.79265625 78.2221875 -102.00390625 78.1796875 C-107.01572485 77.57327529 -110.19912942 75.08264485 -113.44140625 71.3046875 C-115.18355505 66.07824109 -115.44487772 60.58368746 -112.94140625 55.5546875 C-110.39431484 51.6521796 -106.70094862 49.11000136 -102.44140625 47.3046875 C-101.12140625 47.3046875 -99.80140625 47.3046875 -98.44140625 47.3046875 C-98.40402344 46.28890625 -98.36664063 45.273125 -98.328125 44.2265625 C-97.59698931 27.75994053 -94.80552348 13.39371809 -82.37890625 1.6328125 C-59.36248446 -16.60892604 -23.73848025 -16.48400069 0 0 Z " fill="#FFFFFF" transform="translate(168.44140625,11.6953125)"/>
<path d="M0 0 C8.54794979 6.97460799 12.76736886 15.78012777 15.55859375 26.3046875 C15.55859375 26.9646875 15.55859375 27.6246875 15.55859375 28.3046875 C16.58984375 28.3871875 17.62109375 28.4696875 18.68359375 28.5546875 C23.87234934 29.55896277 27.0012161 31.48774691 30.43359375 35.4921875 C32.4743821 40.59415838 32.21965937 45.32149065 30.49609375 50.4921875 C26.65121973 56.07345623 22.23269901 59.67685695 15.55859375 61.3046875 C15.55859375 64.36691861 15.58413791 66.45350191 16.55859375 69.3046875 C18.4185969 71.14766545 20.37631102 72.49567503 22.55078125 73.94921875 C26.71040211 76.75736746 28.2935862 79.29434623 29.55859375 84.1171875 C29.91024106 88.90500089 28.50241239 92.54577929 25.55859375 96.3046875 C24.1933914 97.28625741 22.79522671 98.22326231 21.37109375 99.1171875 C18.54531919 100.99928966 17.69506852 101.78406152 16.8203125 105.12109375 C16.58490704 107.87217547 16.48004824 110.54577654 16.55859375 113.3046875 C17.14382812 113.41296875 17.7290625 113.52125 18.33203125 113.6328125 C22.91776424 115.01657754 26.49475198 118.6645981 29.05859375 122.6171875 C29.92222169 127.25918768 29.86831177 131.87908972 27.58203125 136.11328125 C24.81776884 139.68898844 21.67376743 141.58205666 17.55859375 143.3046875 C16.81805602 147.38701745 16.81805602 147.38701745 17.55859375 151.3046875 C19.97130847 153.23660762 22.39705025 154.53698837 25.17578125 155.8828125 C27.85271731 157.48019729 28.56915018 158.39132588 29.55859375 161.3046875 C30.00600161 165.92790207 30.07608576 168.26970349 27.99609375 172.4296875 C25.16221437 175.77221189 22.16831926 178.79743973 18.55859375 181.3046875 C17.89859375 181.3046875 17.23859375 181.3046875 16.55859375 181.3046875 C16.88859375 185.2646875 17.21859375 189.2246875 17.55859375 193.3046875 C18.75484375 193.5315625 19.95109375 193.7584375 21.18359375 193.9921875 C25.75017018 195.1196371 28.21133278 197.03906704 31.55859375 200.3046875 C33.53295587 204.25341174 32.99689068 209.00085517 32.55859375 213.3046875 C29.40227291 219.73422996 25.10223528 222.68723089 18.55859375 225.3046875 C18.55859375 232.2346875 18.55859375 239.1646875 18.55859375 246.3046875 C21.52859375 247.9546875 24.49859375 249.6046875 27.55859375 251.3046875 C31.3853654 256.4070497 31.3853654 256.4070497 31.55859375 260.3046875 C30.75500851 263.38328771 29.68347647 266.33098763 28.55859375 269.3046875 C28.22859375 270.2946875 27.89859375 271.2846875 27.55859375 272.3046875 C28.87766522 274.45733789 28.87766522 274.45733789 30.87109375 276.6796875 C31.60714844 277.56785156 32.34320313 278.45601563 33.1015625 279.37109375 C34.31779297 280.82322266 34.31779297 280.82322266 35.55859375 282.3046875 C42.37059618 290.50689451 47.5231829 298.35367732 51.55859375 308.3046875 C53.01200514 311.84839014 54.47192244 315.38938464 55.93359375 318.9296875 C56.34681885 319.93515625 56.76004395 320.940625 57.18579102 321.9765625 C60.73810286 330.53478779 64.5646037 338.94885112 68.45220947 347.35873413 C75.60746049 362.83918643 82.39551841 378.39600903 88.55859375 394.3046875 C88.9345166 395.27148438 89.31043945 396.23828125 89.69775391 397.234375 C101.97356193 429.08276187 114.06987484 467.7298013 99.78515625 500.93359375 C97.48414511 505.38172674 94.60227005 509.34051749 91.55859375 513.3046875 C91.10871094 513.92085937 90.65882813 514.53703125 90.1953125 515.171875 C69.31122249 541.90843861 26.58132393 548.96202008 -4.64746094 552.86669922 C-117.86029968 565.93644392 -117.86029968 565.93644392 -151.19140625 541.26953125 C-161.24449738 532.78723561 -166.66691828 522.25533652 -168.44140625 509.3046875 C-171.70444803 456.88204913 -150.76546662 399.49776109 -138.929492 348.70463181 C-137.56331542 342.83794954 -136.21194405 336.96795767 -134.86338806 331.09719849 C-133.87409453 326.80157727 -132.87404134 322.50852854 -131.86984253 318.21636963 C-131.4248681 316.30664851 -130.98391066 314.39598601 -130.5473938 312.48431396 C-127.27244738 298.16955335 -124.26238378 288.24343651 -112.87890625 278.3671875 C-103.84307091 270.01976053 -101.28936904 262.37919993 -100.44140625 250.3046875 C-100.44140625 248.9846875 -100.44140625 247.6646875 -100.44140625 246.3046875 C-101.84410334 245.33615856 -103.25592737 244.37766645 -104.71484375 243.49609375 C-109.63992538 240.09756457 -113.35652085 235.21128579 -114.44140625 229.3046875 C-114.54560281 222.8445006 -112.85447956 219.72413107 -108.4296875 215.0703125 C-105.62474498 212.57947946 -102.80568441 210.95249721 -99.44140625 209.3046875 C-99.44140625 207.6546875 -99.44140625 206.0046875 -99.44140625 204.3046875 C-99.96089844 204.09714844 -100.48039062 203.88960937 -101.015625 203.67578125 C-106.39830511 201.29785048 -109.95085657 198.74541619 -112.44140625 193.3046875 C-113.74951619 188.71411537 -113.69117021 185.22569209 -112.44140625 180.6171875 C-109.49421581 175.73590333 -106.05758204 172.08397391 -100.50390625 170.4296875 C-99.82328125 170.3884375 -99.14265625 170.3471875 -98.44140625 170.3046875 C-98.42740478 166.18626605 -98.42740478 166.18626605 -99.44140625 162.3046875 C-101.3333865 160.93432797 -103.20319105 160.17494819 -105.3671875 159.3046875 C-109.21758904 157.44837339 -111.54848808 154.09052385 -113.44140625 150.3046875 C-114.0088812 146.1904941 -114.28355335 143.71159793 -112.125 140.10546875 C-108.39007067 135.58511804 -104.99805875 133.11910464 -99.44140625 131.3046875 C-99.44140625 128.6646875 -99.44140625 126.0246875 -99.44140625 123.3046875 C-101.26671875 122.7478125 -101.26671875 122.7478125 -103.12890625 122.1796875 C-107.72623806 120.46791502 -109.68153201 118.31905003 -112.44140625 114.3046875 C-114.12015351 109.26844571 -113.97724005 105.59961917 -111.94140625 100.6796875 C-109.41279551 96.66472493 -105.73453137 94.21764058 -101.44140625 92.3046875 C-100.45140625 92.3046875 -99.46140625 92.3046875 -98.44140625 92.3046875 C-98.44140625 87.6846875 -98.44140625 83.0646875 -98.44140625 78.3046875 C-99.61703125 78.2634375 -100.79265625 78.2221875 -102.00390625 78.1796875 C-107.01572485 77.57327529 -110.19912942 75.08264485 -113.44140625 71.3046875 C-115.18355505 66.07824109 -115.44487772 60.58368746 -112.94140625 55.5546875 C-110.39431484 51.6521796 -106.70094862 49.11000136 -102.44140625 47.3046875 C-101.12140625 47.3046875 -99.80140625 47.3046875 -98.44140625 47.3046875 C-98.40402344 46.28890625 -98.36664063 45.273125 -98.328125 44.2265625 C-97.59698931 27.75994053 -94.80552348 13.39371809 -82.37890625 1.6328125 C-59.36248446 -16.60892604 -23.73848025 -16.48400069 0 0 Z M-117.73429871 292.13453674 C-119.62365353 295.64312626 -120.81574004 298.97035295 -121.6953125 302.828125 C-121.89185928 303.62793793 -122.08840607 304.42775085 -122.29090881 305.25180054 C-123.02508751 308.26547866 -123.73201085 311.28508022 -124.44140625 314.3046875 C-124.91754424 316.284934 -125.39375624 318.26516313 -125.87146473 320.24503136 C-128.41639481 330.79661756 -130.90165363 341.36204282 -133.37890625 351.9296875 C-133.58623005 352.81308556 -133.79355385 353.69648361 -134.00716019 354.60665131 C-139.84665033 379.49155713 -145.55508428 404.40098328 -150.93892288 429.38872528 C-151.37190024 431.39718853 -151.80642294 433.40531254 -152.24118042 435.41339111 C-164.87487208 482.02504928 -164.87487208 482.02504928 -155.8828125 527.34765625 C-146.35225597 540.28751756 -132.20108678 545.19885621 -116.83691406 547.66943359 C-112.71095628 548.28481747 -108.58768081 548.84390182 -104.44140625 549.3046875 C-103.18034058 549.44934448 -103.18034058 549.44934448 -101.89379883 549.59692383 C-91.78845089 550.60182117 -81.64819861 550.50377142 -71.50390625 550.4921875 C-70.52887146 550.49158325 -69.55383667 550.490979 -68.54925537 550.49035645 C-20.79922051 550.41025041 38.06959943 549.05912731 77.55859375 518.3046875 C78.19023437 517.83675781 78.821875 517.36882812 79.47265625 516.88671875 C84.61853089 512.8402931 88.0940097 507.81337614 91.55859375 502.3046875 C91.95046875 501.69109375 92.34234375 501.0775 92.74609375 500.4453125 C105.12675703 478.5857039 99.71046702 451.17563609 93.49609375 428.3671875 C84.73001385 397.55920327 71.29413978 368.43962322 57.75756836 339.49707031 C54.54024673 332.57345923 51.57735757 325.58161364 48.74609375 318.4921875 C42.69717272 303.1228452 42.69717272 303.1228452 32.55859375 290.3046875 C32.22859375 289.9746875 31.89859375 289.6446875 31.55859375 289.3046875 C29.68459118 289.19502816 27.80642975 289.15612126 25.92926025 289.14405823 C24.7066449 289.1340126 23.48402954 289.12396698 22.22436523 289.11361694 C20.85693421 289.10758623 19.48950253 289.10170128 18.12207031 289.09594727 C16.69162768 289.08641354 15.26118739 289.0765226 13.83074951 289.06629944 C9.12026729 289.03485558 4.40976709 289.01463963 -0.30078125 288.99609375 C-1.10149457 288.99279643 -1.90220789 288.98949911 -2.72718525 288.98610187 C-10.27563575 288.95531601 -17.82409011 288.92860109 -25.3725853 288.91168308 C-35.0364059 288.88977262 -44.69967107 288.84780429 -54.36326957 288.77824551 C-61.15311757 288.73102806 -67.94281561 288.70675248 -74.73282266 288.6994862 C-78.79038848 288.69452587 -82.84732903 288.67941078 -86.90471649 288.6397419 C-90.723274 288.60290165 -94.54084854 288.59445638 -98.35955048 288.60774803 C-99.76041596 288.60769403 -101.16132467 288.59737743 -102.56202698 288.5759964 C-110.9535625 288.0729049 -110.9535625 288.0729049 -117.73429871 292.13453674 Z " fill="#C1BFBE" transform="translate(168.44140625,11.6953125)"/>
<path d="M0 0 C8.54794979 6.97460799 12.76736886 15.78012777 15.55859375 26.3046875 C15.55859375 26.9646875 15.55859375 27.6246875 15.55859375 28.3046875 C16.58984375 28.3871875 17.62109375 28.4696875 18.68359375 28.5546875 C23.87234934 29.55896277 27.0012161 31.48774691 30.43359375 35.4921875 C32.4743821 40.59415838 32.21965937 45.32149065 30.49609375 50.4921875 C26.65121973 56.07345623 22.23269901 59.67685695 15.55859375 61.3046875 C15.55859375 64.36691861 15.58413791 66.45350191 16.55859375 69.3046875 C18.4185969 71.14766545 20.37631102 72.49567503 22.55078125 73.94921875 C26.71040211 76.75736746 28.2935862 79.29434623 29.55859375 84.1171875 C29.91024106 88.90500089 28.50241239 92.54577929 25.55859375 96.3046875 C24.1933914 97.28625741 22.79522671 98.22326231 21.37109375 99.1171875 C18.54531919 100.99928966 17.69506852 101.78406152 16.8203125 105.12109375 C16.58490704 107.87217547 16.48004824 110.54577654 16.55859375 113.3046875 C17.14382812 113.41296875 17.7290625 113.52125 18.33203125 113.6328125 C22.91776424 115.01657754 26.49475198 118.6645981 29.05859375 122.6171875 C29.92222169 127.25918768 29.86831177 131.87908972 27.58203125 136.11328125 C24.81776884 139.68898844 21.67376743 141.58205666 17.55859375 143.3046875 C16.81805602 147.38701745 16.81805602 147.38701745 17.55859375 151.3046875 C19.97130847 153.23660762 22.39705025 154.53698837 25.17578125 155.8828125 C27.85271731 157.48019729 28.56915018 158.39132588 29.55859375 161.3046875 C30.00600161 165.92790207 30.07608576 168.26970349 27.99609375 172.4296875 C25.16221437 175.77221189 22.16831926 178.79743973 18.55859375 181.3046875 C17.89859375 181.3046875 17.23859375 181.3046875 16.55859375 181.3046875 C16.88859375 185.2646875 17.21859375 189.2246875 17.55859375 193.3046875 C18.75484375 193.5315625 19.95109375 193.7584375 21.18359375 193.9921875 C25.75017018 195.1196371 28.21133278 197.03906704 31.55859375 200.3046875 C33.53295587 204.25341174 32.99689068 209.00085517 32.55859375 213.3046875 C29.40227291 219.73422996 25.10223528 222.68723089 18.55859375 225.3046875 C18.55859375 232.2346875 18.55859375 239.1646875 18.55859375 246.3046875 C21.52859375 247.9546875 24.49859375 249.6046875 27.55859375 251.3046875 C31.3853654 256.4070497 31.3853654 256.4070497 31.55859375 260.3046875 C30.75500851 263.38328771 29.68347647 266.33098763 28.55859375 269.3046875 C28.22859375 270.2946875 27.89859375 271.2846875 27.55859375 272.3046875 C28.87766522 274.45733789 28.87766522 274.45733789 30.87109375 276.6796875 C31.60714844 277.56785156 32.34320313 278.45601563 33.1015625 279.37109375 C34.31779297 280.82322266 34.31779297 280.82322266 35.55859375 282.3046875 C42.37059618 290.50689451 47.5231829 298.35367732 51.55859375 308.3046875 C53.01200514 311.84839014 54.47192244 315.38938464 55.93359375 318.9296875 C56.34681885 319.93515625 56.76004395 320.940625 57.18579102 321.9765625 C60.73810286 330.53478779 64.5646037 338.94885112 68.45220947 347.35873413 C75.60746049 362.83918643 82.39551841 378.39600903 88.55859375 394.3046875 C88.9345166 395.27148438 89.31043945 396.23828125 89.69775391 397.234375 C101.97356193 429.08276187 114.06987484 467.7298013 99.78515625 500.93359375 C97.48414511 505.38172674 94.60227005 509.34051749 91.55859375 513.3046875 C91.10871094 513.92085937 90.65882813 514.53703125 90.1953125 515.171875 C69.31122249 541.90843861 26.58132393 548.96202008 -4.64746094 552.86669922 C-117.86029968 565.93644392 -117.86029968 565.93644392 -151.19140625 541.26953125 C-161.24449738 532.78723561 -166.66691828 522.25533652 -168.44140625 509.3046875 C-171.70444803 456.88204913 -150.76546662 399.49776109 -138.929492 348.70463181 C-137.56331542 342.83794954 -136.21194405 336.96795767 -134.86338806 331.09719849 C-133.87409453 326.80157727 -132.87404134 322.50852854 -131.86984253 318.21636963 C-131.4248681 316.30664851 -130.98391066 314.39598601 -130.5473938 312.48431396 C-127.27244738 298.16955335 -124.26238378 288.24343651 -112.87890625 278.3671875 C-103.84307091 270.01976053 -101.28936904 262.37919993 -100.44140625 250.3046875 C-100.44140625 248.9846875 -100.44140625 247.6646875 -100.44140625 246.3046875 C-101.84410334 245.33615856 -103.25592737 244.37766645 -104.71484375 243.49609375 C-109.63992538 240.09756457 -113.35652085 235.21128579 -114.44140625 229.3046875 C-114.54560281 222.8445006 -112.85447956 219.72413107 -108.4296875 215.0703125 C-105.62474498 212.57947946 -102.80568441 210.95249721 -99.44140625 209.3046875 C-99.44140625 207.6546875 -99.44140625 206.0046875 -99.44140625 204.3046875 C-99.96089844 204.09714844 -100.48039062 203.88960937 -101.015625 203.67578125 C-106.39830511 201.29785048 -109.95085657 198.74541619 -112.44140625 193.3046875 C-113.74951619 188.71411537 -113.69117021 185.22569209 -112.44140625 180.6171875 C-109.49421581 175.73590333 -106.05758204 172.08397391 -100.50390625 170.4296875 C-99.82328125 170.3884375 -99.14265625 170.3471875 -98.44140625 170.3046875 C-98.42740478 166.18626605 -98.42740478 166.18626605 -99.44140625 162.3046875 C-101.3333865 160.93432797 -103.20319105 160.17494819 -105.3671875 159.3046875 C-109.21758904 157.44837339 -111.54848808 154.09052385 -113.44140625 150.3046875 C-114.0088812 146.1904941 -114.28355335 143.71159793 -112.125 140.10546875 C-108.39007067 135.58511804 -104.99805875 133.11910464 -99.44140625 131.3046875 C-99.44140625 128.6646875 -99.44140625 126.0246875 -99.44140625 123.3046875 C-101.26671875 122.7478125 -101.26671875 122.7478125 -103.12890625 122.1796875 C-107.72623806 120.46791502 -109.68153201 118.31905003 -112.44140625 114.3046875 C-114.12015351 109.26844571 -113.97724005 105.59961917 -111.94140625 100.6796875 C-109.41279551 96.66472493 -105.73453137 94.21764058 -101.44140625 92.3046875 C-100.45140625 92.3046875 -99.46140625 92.3046875 -98.44140625 92.3046875 C-98.44140625 87.6846875 -98.44140625 83.0646875 -98.44140625 78.3046875 C-99.61703125 78.2634375 -100.79265625 78.2221875 -102.00390625 78.1796875 C-107.01572485 77.57327529 -110.19912942 75.08264485 -113.44140625 71.3046875 C-115.18355505 66.07824109 -115.44487772 60.58368746 -112.94140625 55.5546875 C-110.39431484 51.6521796 -106.70094862 49.11000136 -102.44140625 47.3046875 C-101.12140625 47.3046875 -99.80140625 47.3046875 -98.44140625 47.3046875 C-98.40402344 46.28890625 -98.36664063 45.273125 -98.328125 44.2265625 C-97.59698931 27.75994053 -94.80552348 13.39371809 -82.37890625 1.6328125 C-59.36248446 -16.60892604 -23.73848025 -16.48400069 0 0 Z M-82.69140625 11.4921875 C-92.00352688 22.48414166 -92.93758165 38.41177628 -92.44140625 52.3046875 C-93.61703125 52.3459375 -94.79265625 52.3871875 -96.00390625 52.4296875 C-101.06055464 53.07751434 -104.32532236 55.30213146 -107.44140625 59.3046875 C-108.84443527 62.78657343 -108.84443527 62.78657343 -108.44140625 66.3046875 C-106.67499453 69.10658196 -105.41090803 70.81993661 -102.44140625 72.3046875 C-99.14140625 72.3046875 -95.84140625 72.3046875 -92.44140625 72.3046875 C-92.44140625 80.5546875 -92.44140625 88.8046875 -92.44140625 97.3046875 C-95.90640625 97.7996875 -95.90640625 97.7996875 -99.44140625 98.3046875 C-102.50615206 99.98162389 -104.74988725 101.40270619 -106.87890625 104.1796875 C-107.70059427 107.28384226 -107.39796647 109.2436948 -106.44140625 112.3046875 C-102.11642528 117.30544674 -99.71575215 116.49642684 -92.44140625 117.3046875 C-92.44140625 123.5746875 -92.44140625 129.8446875 -92.44140625 136.3046875 C-94.09140625 136.6346875 -95.74140625 136.9646875 -97.44140625 137.3046875 C-101.50234782 139.04509103 -104.73034145 140.75944892 -107.44140625 144.3046875 C-108.35906511 146.71546977 -108.35906511 146.71546977 -107.44140625 149.3046875 C-104.80732866 152.13717612 -101.90756323 154.57160901 -98.44140625 156.3046875 C-96.44180613 156.3446795 -94.44093383 156.34815549 -92.44140625 156.3046875 C-92.45300781 157.17351562 -92.46460937 158.04234375 -92.4765625 158.9375 C-92.48558594 160.08992187 -92.49460937 161.24234375 -92.50390625 162.4296875 C-92.51550781 163.56664062 -92.52710937 164.70359375 -92.5390625 165.875 C-92.44673325 169.1176031 -92.05530531 172.12401362 -91.44140625 175.3046875 C-92.47265625 175.3871875 -93.50390625 175.4696875 -94.56640625 175.5546875 C-100.11024342 176.62768824 -103.21101485 178.53599987 -106.44140625 183.1796875 C-107.70983828 187.1435376 -107.32159582 188.6226496 -105.44140625 192.3046875 C-101.55729617 197.18756875 -99.91149812 197.45608982 -93.44140625 199.3046875 C-93.11140625 204.2546875 -92.78140625 209.2046875 -92.44140625 214.3046875 C-94.09140625 214.6346875 -95.74140625 214.9646875 -97.44140625 215.3046875 C-102.03362307 217.96245401 -106.49294001 221.23867527 -108.44140625 226.3046875 C-108.56058131 230.83333979 -105.9646431 233.53156379 -103.05859375 236.72265625 C-99.54266857 240.16214827 -97.38113992 241.3046875 -92.44140625 241.3046875 C-93.08423153 245.56364541 -93.775742 249.81110677 -94.51049805 254.05493164 C-94.75302977 255.49485326 -94.9828751 256.93697856 -95.19897461 258.38110352 C-96.73022796 268.53665733 -99.22085179 274.60827239 -107.44140625 281.3046875 C-107.44140625 281.6346875 -107.44140625 281.9646875 -107.44140625 282.3046875 C-90.04366142 283.10107755 -72.69194777 283.44352869 -55.27734375 283.40234375 C-52.89311758 283.40047122 -50.50889101 283.39905128 -48.12466431 283.39805603 C-41.94690833 283.39429648 -35.76917708 283.38452502 -29.59143066 283.37335205 C-23.24845718 283.36299408 -16.90547957 283.35852808 -10.5625 283.35351562 C1.81120859 283.34289457 14.18489909 283.32590054 26.55859375 283.3046875 C25.35282635 280.7240179 24.30597524 279.0231983 22.37109375 276.8671875 C20.55859375 274.3046875 20.55859375 274.3046875 20.62109375 271.8671875 C21.55859375 269.3046875 21.55859375 269.3046875 23.12109375 266.3671875 C24.77351059 262.84682118 25.45073581 261.11656721 24.55859375 257.3046875 C20.56054729 253.71223995 16.81797718 252.35656419 11.55859375 251.3046875 C11.55859375 240.7446875 11.55859375 230.1846875 11.55859375 219.3046875 C13.53859375 219.3046875 15.51859375 219.3046875 17.55859375 219.3046875 C21.32921507 217.23454246 24.56389975 215.18325917 26.55859375 211.3046875 C27.05860299 207.30461357 27.23397714 205.22127924 24.80859375 201.9296875 C20.53338654 198.84203785 16.7540503 199.20477487 11.55859375 199.3046875 C11.57019531 198.72203125 11.58179688 198.139375 11.59375 197.5390625 C11.66853221 190.74456495 11.20914416 184.06576495 10.55859375 177.3046875 C11.30625 177.03140625 12.05390625 176.758125 12.82421875 176.4765625 C16.75958382 174.78997747 19.71715829 172.50224954 22.55859375 169.3046875 C23.95292399 166.28680764 23.95292399 166.28680764 23.55859375 163.3046875 C20.40677202 158.29042566 16.56259597 158.30602157 10.55859375 156.3046875 C10.55859375 150.0346875 10.55859375 143.7646875 10.55859375 137.3046875 C12.86859375 136.9746875 15.17859375 136.6446875 17.55859375 136.3046875 C20.65109474 134.42229559 22.18099119 133.22509375 23.55859375 129.8671875 C23.55859375 126.32890383 22.82122628 125.04727238 20.55859375 122.3046875 C15.97916884 118.6954929 15.97916884 118.6954929 10.55859375 117.3046875 C10.55859375 110.7046875 10.55859375 104.1046875 10.55859375 97.3046875 C12.53859375 96.6446875 14.51859375 95.9846875 16.55859375 95.3046875 C19.39734871 92.78851833 21.45470165 90.46052565 23.55859375 87.3046875 C23.38136932 84.21310584 22.89064785 82.69880779 20.88671875 80.3203125 C20.2009375 79.73765625 19.51515625 79.155 18.80859375 78.5546875 C18.133125 77.96171875 17.45765625 77.36875 16.76171875 76.7578125 C14.28049676 74.92303662 14.28049676 74.92303662 9.55859375 74.3046875 C9.55859375 68.3646875 9.55859375 62.4246875 9.55859375 56.3046875 C11.53859375 55.9746875 13.51859375 55.6446875 15.55859375 55.3046875 C20.26478109 52.76334634 23.19068907 50.13521304 25.55859375 45.3046875 C25.8951952 41.66061613 25.8951952 41.66061613 24.55859375 38.3046875 C20.06514664 34.03591275 15.48983328 33.56829815 9.55859375 33.3046875 C9.51734375 32.0671875 9.47609375 30.8296875 9.43359375 29.5546875 C8.49070852 21.02831102 3.71674939 12.18914733 -2.44140625 6.3046875 C-26.19279402 -11.68758451 -61.79865553 -10.09441841 -82.69140625 11.4921875 Z M-117.73429871 292.13453674 C-119.62365353 295.64312626 -120.81574004 298.97035295 -121.6953125 302.828125 C-121.89185928 303.62793793 -122.08840607 304.42775085 -122.29090881 305.25180054 C-123.02508751 308.26547866 -123.73201085 311.28508022 -124.44140625 314.3046875 C-124.91754424 316.284934 -125.39375624 318.26516313 -125.87146473 320.24503136 C-128.41639481 330.79661756 -130.90165363 341.36204282 -133.37890625 351.9296875 C-133.58623005 352.81308556 -133.79355385 353.69648361 -134.00716019 354.60665131 C-139.84665033 379.49155713 -145.55508428 404.40098328 -150.93892288 429.38872528 C-151.37190024 431.39718853 -151.80642294 433.40531254 -152.24118042 435.41339111 C-164.87487208 482.02504928 -164.87487208 482.02504928 -155.8828125 527.34765625 C-146.35225597 540.28751756 -132.20108678 545.19885621 -116.83691406 547.66943359 C-112.71095628 548.28481747 -108.58768081 548.84390182 -104.44140625 549.3046875 C-103.18034058 549.44934448 -103.18034058 549.44934448 -101.89379883 549.59692383 C-91.78845089 550.60182117 -81.64819861 550.50377142 -71.50390625 550.4921875 C-70.52887146 550.49158325 -69.55383667 550.490979 -68.54925537 550.49035645 C-20.79922051 550.41025041 38.06959943 549.05912731 77.55859375 518.3046875 C78.19023437 517.83675781 78.821875 517.36882812 79.47265625 516.88671875 C84.61853089 512.8402931 88.0940097 507.81337614 91.55859375 502.3046875 C91.95046875 501.69109375 92.34234375 501.0775 92.74609375 500.4453125 C105.12675703 478.5857039 99.71046702 451.17563609 93.49609375 428.3671875 C84.73001385 397.55920327 71.29413978 368.43962322 57.75756836 339.49707031 C54.54024673 332.57345923 51.57735757 325.58161364 48.74609375 318.4921875 C42.69717272 303.1228452 42.69717272 303.1228452 32.55859375 290.3046875 C32.22859375 289.9746875 31.89859375 289.6446875 31.55859375 289.3046875 C29.68459118 289.19502816 27.80642975 289.15612126 25.92926025 289.14405823 C24.7066449 289.1340126 23.48402954 289.12396698 22.22436523 289.11361694 C20.85693421 289.10758623 19.48950253 289.10170128 18.12207031 289.09594727 C16.69162768 289.08641354 15.26118739 289.0765226 13.83074951 289.06629944 C9.12026729 289.03485558 4.40976709 289.01463963 -0.30078125 288.99609375 C-1.10149457 288.99279643 -1.90220789 288.98949911 -2.72718525 288.98610187 C-10.27563575 288.95531601 -17.82409011 288.92860109 -25.3725853 288.91168308 C-35.0364059 288.88977262 -44.69967107 288.84780429 -54.36326957 288.77824551 C-61.15311757 288.73102806 -67.94281561 288.70675248 -74.73282266 288.6994862 C-78.79038848 288.69452587 -82.84732903 288.67941078 -86.90471649 288.6397419 C-90.723274 288.60290165 -94.54084854 288.59445638 -98.35955048 288.60774803 C-99.76041596 288.60769403 -101.16132467 288.59737743 -102.56202698 288.5759964 C-110.9535625 288.0729049 -110.9535625 288.0729049 -117.73429871 292.13453674 Z " fill="#11110E" transform="translate(168.44140625,11.6953125)"/>
</svg>
