<?xml version="1.0" encoding="UTF-8"?>
<svg version="1.1" xmlns="http://www.w3.org/2000/svg" width="308" height="532">
<path d="M0 0 C8.02650737 6.73471866 15.41683276 15.07732485 17 25.8125 C17.061875 26.76125 17.12375 27.71 17.1875 28.6875 C17.75597656 28.69007812 18.32445312 28.69265625 18.91015625 28.6953125 C24.54922211 28.9777365 27.62547625 30.20138359 31.77734375 34.01953125 C34.28458454 36.98515955 35.14053674 39.18029682 35.5 43.0625 C34.93805654 49.58104417 32.06018829 53.4792692 27.1875 57.6875 C21.15492671 61.6875 21.15492671 61.6875 18.1875 61.6875 C18.1875 64.6575 18.1875 67.6275 18.1875 70.6875 C19.5178125 71.05875 19.5178125 71.05875 20.875 71.4375 C25.28836417 73.10292044 28.00448151 75.25971906 31 78.875 C32.69726963 82.89484913 32.84294148 86.38902333 32.1875 90.6875 C30.11740812 95.27770374 27.67621996 97.04112132 23.4375 99.4375 C20.71531316 101.15868302 19.43425561 102.05564045 18.25390625 105.078125 C17.96330436 108.06461822 18.05860792 109.89713368 19.1875 112.6875 C21.57478126 114.68122584 23.8819552 115.94600259 26.70703125 117.23828125 C29.72770635 119.00311662 30.73253336 120.53192301 32.1875 123.6875 C33.07064206 128.26233497 32.60976167 131.82673583 30.5625 136 C27.99090442 138.90996342 25.58227817 140.80953761 22.1875 142.6875 C21.1975 142.6875 20.2075 142.6875 19.1875 142.6875 C19.1875 145.9875 19.1875 149.2875 19.1875 152.6875 C19.88875 152.77 20.59 152.8525 21.3125 152.9375 C26.17026702 154.20474357 29.27790325 156.36711763 32.125 160.5 C33.48728486 164.58685459 33.47044615 166.5535624 32.1875 170.6875 C29.50531141 174.57452197 26.76125576 177.89718597 22.50390625 180.03515625 C19.89179571 181.51720471 19.89179571 181.51720471 19.48046875 184.60546875 C19.44566406 185.68441406 19.41085938 186.76335937 19.375 187.875 C19.32730469 188.96167969 19.27960938 190.04835937 19.23046875 191.16796875 C19.21628906 191.99941406 19.20210937 192.83085937 19.1875 193.6875 C19.85136719 193.78546875 20.51523438 193.8834375 21.19921875 193.984375 C26.51323102 194.88426613 30.3558653 195.61638813 34.1875 199.6875 C36.71592568 203.98852304 36.93404514 207.80686081 36.1875 212.6875 C34.23805444 218.22907115 31.16583166 221.02608745 26 223.6875 C21.61184211 225.6875 21.61184211 225.6875 19.1875 225.6875 C19.26252428 229.08875054 19.4349329 232.47838916 19.625 235.875 C19.64498047 236.83470703 19.66496094 237.79441406 19.68554688 238.78320312 C19.87554205 241.67312973 20.13852015 243.98308577 21.1875 246.6875 C23.36704778 248.5365653 25.40270382 249.62335091 28.0234375 250.74804688 C31.17859997 252.11775188 32.57538883 253.67355304 34.1875 256.6875 C34.84385943 262.59473486 33.94792407 265.40668874 31.1875 270.6875 C31.56859915 273.98343763 32.72096887 275.57022605 35.09375 277.81640625 C35.67253906 278.37650391 36.25132812 278.93660156 36.84765625 279.51367188 C37.45480469 280.08666016 38.06195313 280.65964844 38.6875 281.25 C39.88991377 282.39242073 41.08803434 283.53938178 42.28125 284.69140625 C42.81427734 285.19486572 43.34730469 285.6983252 43.89648438 286.21704102 C45.1875 287.6875 45.1875 287.6875 46.1875 290.6875 C48.23694721 292.53419121 48.23694721 292.53419121 50.75 294.375 C74.96724352 313.41263478 86.46272668 342.24708617 95 371 C95.27787354 371.92868896 95.55574707 372.85737793 95.84204102 373.81420898 C99.99229436 388.29022195 101.70514186 401.9007418 101.63354492 416.9050293 C101.62501855 419.61909618 101.65395332 422.33105999 101.68554688 425.04492188 C101.79212049 451.58717196 93.03895193 475.15115722 74.25 494.1875 C59.01952931 509.07605799 40.03695354 517.26747092 18.75268555 517.10498047 C3.25576984 516.64229911 -10.59048219 510.73202293 -23.46484375 502.35546875 C-24.04153809 501.98196289 -24.61823242 501.60845703 -25.21240234 501.22363281 C-26.77331991 500.19218948 -28.31143866 499.12647694 -29.84765625 498.05859375 C-34.53822691 495.88943657 -38.45940444 497.25364209 -43.25561523 498.79150391 C-44.44872314 499.24444824 -45.64183105 499.69739258 -46.87109375 500.1640625 C-48.22818144 500.67211559 -49.58536295 501.17991813 -50.94262695 501.6875 C-51.6453775 501.95304688 -52.34812805 502.21859375 -53.07217407 502.4921875 C-67.46171471 507.91223504 -81.89818422 512.89038849 -96.8125 516.6875 C-98.11550049 517.01983643 -98.11550049 517.01983643 -99.44482422 517.35888672 C-118.94265361 522.16975217 -137.61135396 523.38055824 -155.8125 513.6875 C-181.16222074 497.93589252 -195.60875577 469.18215185 -202.4765625 440.95849609 C-205.83159519 426.12893308 -208.73439264 411.45724523 -204.8125 396.5 C-204.47810913 395.21186401 -204.47810913 395.21186401 -204.13696289 393.89770508 C-195.39990152 361.4118024 -179.67254728 333.29974341 -156.8125 308.6875 C-156.22339844 308.03265625 -155.63429687 307.3778125 -155.02734375 306.703125 C-150.13286409 301.4966895 -144.54699671 297.40163004 -138.80957031 293.18676758 C-134.01829928 289.65027347 -129.55145888 285.91910669 -125.19921875 281.84765625 C-121.65044579 278.63575535 -117.85903502 275.74023993 -114.0625 272.828125 C-109.95459229 268.91990725 -109.34127516 264.09509269 -108.1875 258.6875 C-107.92710938 257.49125 -107.66671875 256.295 -107.3984375 255.0625 C-106.61505206 250.87768137 -106.61505206 250.87768137 -106.8125 246.6875 C-108.63303676 244.95539593 -108.63303676 244.95539593 -111.0625 243.6875 C-116.45035399 240.34652304 -119.48593956 237.51821262 -121.25 231.3125 C-122.12073192 226.63231593 -121.27972682 223.82607402 -118.8125 219.6875 C-116.03835366 216.3585244 -113.2188655 214.30317966 -109.5 212.1875 C-107.44046407 211.0334839 -107.44046407 211.0334839 -105.8125 209.6875 C-105.14095316 206.97091743 -105.14095316 206.97091743 -105.8125 204.6875 C-106.33199219 204.46835938 -106.85148437 204.24921875 -107.38671875 204.0234375 C-113.16764629 201.39477174 -116.90281948 198.50686103 -119.8125 192.6875 C-120.42203693 187.43677476 -120.77501988 182.32301727 -117.8125 177.75 C-114.86006045 174.24081471 -111.1322359 172.14247381 -106.8125 170.6875 C-105.8225 170.6875 -104.8325 170.6875 -103.8125 170.6875 C-103.8125 168.0475 -103.8125 165.4075 -103.8125 162.6875 C-104.40417969 162.51734375 -104.99585937 162.3471875 -105.60546875 162.171875 C-111.78861513 160.27557562 -116.05349743 158.47764202 -119.625 152.8125 C-120.93436186 149.36681091 -121.34427694 147.33397042 -120.8125 143.6875 C-118.09990453 138.14928425 -114.14674528 135.43677221 -108.8125 132.6875 C-107.8225 132.3575 -106.8325 132.0275 -105.8125 131.6875 C-105.8125 129.0475 -105.8125 126.4075 -105.8125 123.6875 C-107.029375 123.295625 -108.24625 122.90375 -109.5 122.5 C-114.46127712 120.62964243 -117.46109118 117.96032393 -120.1875 113.375 C-121.07432258 109.56166292 -121.08764906 106.36451712 -119.8125 102.6875 C-116.81014442 98.10749912 -113.35459033 93.91907563 -107.8125 92.6875 C-106.8225 92.6875 -105.8325 92.6875 -104.8125 92.6875 C-104.8125 88.0675 -104.8125 83.4475 -104.8125 78.6875 C-106.7925 78.6875 -108.7725 78.6875 -110.8125 78.6875 C-114.80179708 77.0456702 -118.00006063 74.62688302 -120.8125 71.375 C-122.65387081 66.42631595 -122.40279751 62.36000961 -120.6875 57.5 C-117.44523792 52.63660687 -114.01856832 49.97741319 -108.60546875 48.04296875 C-107.89285889 47.78539795 -107.18024902 47.52782715 -106.44604492 47.26245117 C-105.9069751 47.07271729 -105.36790527 46.8829834 -104.8125 46.6875 C-104.70292969 45.50414062 -104.59335938 44.32078125 -104.48046875 43.1015625 C-102.98831686 27.84414795 -100.57443727 14.20942451 -88.765625 3.2734375 C-65.80552119 -15.37016679 -24.16164527 -17.85683884 0 0 Z " fill="#FFFFFF" transform="translate(206.8125,11.3125)"/>
<path d="M0 0 C8.02650737 6.73471866 15.41683276 15.07732485 17 25.8125 C17.061875 26.76125 17.12375 27.71 17.1875 28.6875 C17.75597656 28.69007812 18.32445312 28.69265625 18.91015625 28.6953125 C24.54922211 28.9777365 27.62547625 30.20138359 31.77734375 34.01953125 C34.28458454 36.98515955 35.14053674 39.18029682 35.5 43.0625 C34.93805654 49.58104417 32.06018829 53.4792692 27.1875 57.6875 C21.15492671 61.6875 21.15492671 61.6875 18.1875 61.6875 C18.1875 64.6575 18.1875 67.6275 18.1875 70.6875 C19.5178125 71.05875 19.5178125 71.05875 20.875 71.4375 C25.28836417 73.10292044 28.00448151 75.25971906 31 78.875 C32.69726963 82.89484913 32.84294148 86.38902333 32.1875 90.6875 C30.11740812 95.27770374 27.67621996 97.04112132 23.4375 99.4375 C20.71531316 101.15868302 19.43425561 102.05564045 18.25390625 105.078125 C17.96330436 108.06461822 18.05860792 109.89713368 19.1875 112.6875 C21.57478126 114.68122584 23.8819552 115.94600259 26.70703125 117.23828125 C29.72770635 119.00311662 30.73253336 120.53192301 32.1875 123.6875 C33.07064206 128.26233497 32.60976167 131.82673583 30.5625 136 C27.99090442 138.90996342 25.58227817 140.80953761 22.1875 142.6875 C21.1975 142.6875 20.2075 142.6875 19.1875 142.6875 C19.1875 145.9875 19.1875 149.2875 19.1875 152.6875 C19.88875 152.77 20.59 152.8525 21.3125 152.9375 C26.17026702 154.20474357 29.27790325 156.36711763 32.125 160.5 C33.48728486 164.58685459 33.47044615 166.5535624 32.1875 170.6875 C29.50531141 174.57452197 26.76125576 177.89718597 22.50390625 180.03515625 C19.89179571 181.51720471 19.89179571 181.51720471 19.48046875 184.60546875 C19.44566406 185.68441406 19.41085938 186.76335937 19.375 187.875 C19.32730469 188.96167969 19.27960938 190.04835937 19.23046875 191.16796875 C19.21628906 191.99941406 19.20210937 192.83085937 19.1875 193.6875 C19.85136719 193.78546875 20.51523438 193.8834375 21.19921875 193.984375 C26.51323102 194.88426613 30.3558653 195.61638813 34.1875 199.6875 C36.71592568 203.98852304 36.93404514 207.80686081 36.1875 212.6875 C34.23805444 218.22907115 31.16583166 221.02608745 26 223.6875 C21.61184211 225.6875 21.61184211 225.6875 19.1875 225.6875 C19.26252428 229.08875054 19.4349329 232.47838916 19.625 235.875 C19.64498047 236.83470703 19.66496094 237.79441406 19.68554688 238.78320312 C19.87554205 241.67312973 20.13852015 243.98308577 21.1875 246.6875 C23.36704778 248.5365653 25.40270382 249.62335091 28.0234375 250.74804688 C31.17859997 252.11775188 32.57538883 253.67355304 34.1875 256.6875 C34.84385943 262.59473486 33.94792407 265.40668874 31.1875 270.6875 C31.56859915 273.98343763 32.72096887 275.57022605 35.09375 277.81640625 C35.67253906 278.37650391 36.25132812 278.93660156 36.84765625 279.51367188 C37.45480469 280.08666016 38.06195313 280.65964844 38.6875 281.25 C39.88991377 282.39242073 41.08803434 283.53938178 42.28125 284.69140625 C42.81427734 285.19486572 43.34730469 285.6983252 43.89648438 286.21704102 C45.1875 287.6875 45.1875 287.6875 46.1875 290.6875 C48.23694721 292.53419121 48.23694721 292.53419121 50.75 294.375 C74.96724352 313.41263478 86.46272668 342.24708617 95 371 C95.27787354 371.92868896 95.55574707 372.85737793 95.84204102 373.81420898 C99.99229436 388.29022195 101.70514186 401.9007418 101.63354492 416.9050293 C101.62501855 419.61909618 101.65395332 422.33105999 101.68554688 425.04492188 C101.79212049 451.58717196 93.03895193 475.15115722 74.25 494.1875 C59.01952931 509.07605799 40.03695354 517.26747092 18.75268555 517.10498047 C3.25576984 516.64229911 -10.59048219 510.73202293 -23.46484375 502.35546875 C-24.04153809 501.98196289 -24.61823242 501.60845703 -25.21240234 501.22363281 C-26.77331991 500.19218948 -28.31143866 499.12647694 -29.84765625 498.05859375 C-34.53822691 495.88943657 -38.45940444 497.25364209 -43.25561523 498.79150391 C-44.44872314 499.24444824 -45.64183105 499.69739258 -46.87109375 500.1640625 C-48.22818144 500.67211559 -49.58536295 501.17991813 -50.94262695 501.6875 C-51.6453775 501.95304688 -52.34812805 502.21859375 -53.07217407 502.4921875 C-67.46171471 507.91223504 -81.89818422 512.89038849 -96.8125 516.6875 C-98.11550049 517.01983643 -98.11550049 517.01983643 -99.44482422 517.35888672 C-118.94265361 522.16975217 -137.61135396 523.38055824 -155.8125 513.6875 C-181.16222074 497.93589252 -195.60875577 469.18215185 -202.4765625 440.95849609 C-205.83159519 426.12893308 -208.73439264 411.45724523 -204.8125 396.5 C-204.47810913 395.21186401 -204.47810913 395.21186401 -204.13696289 393.89770508 C-195.39990152 361.4118024 -179.67254728 333.29974341 -156.8125 308.6875 C-156.22339844 308.03265625 -155.63429687 307.3778125 -155.02734375 306.703125 C-150.13286409 301.4966895 -144.54699671 297.40163004 -138.80957031 293.18676758 C-134.01829928 289.65027347 -129.55145888 285.91910669 -125.19921875 281.84765625 C-121.65044579 278.63575535 -117.85903502 275.74023993 -114.0625 272.828125 C-109.95459229 268.91990725 -109.34127516 264.09509269 -108.1875 258.6875 C-107.92710938 257.49125 -107.66671875 256.295 -107.3984375 255.0625 C-106.61505206 250.87768137 -106.61505206 250.87768137 -106.8125 246.6875 C-108.63303676 244.95539593 -108.63303676 244.95539593 -111.0625 243.6875 C-116.45035399 240.34652304 -119.48593956 237.51821262 -121.25 231.3125 C-122.12073192 226.63231593 -121.27972682 223.82607402 -118.8125 219.6875 C-116.03835366 216.3585244 -113.2188655 214.30317966 -109.5 212.1875 C-107.44046407 211.0334839 -107.44046407 211.0334839 -105.8125 209.6875 C-105.14095316 206.97091743 -105.14095316 206.97091743 -105.8125 204.6875 C-106.33199219 204.46835938 -106.85148437 204.24921875 -107.38671875 204.0234375 C-113.16764629 201.39477174 -116.90281948 198.50686103 -119.8125 192.6875 C-120.42203693 187.43677476 -120.77501988 182.32301727 -117.8125 177.75 C-114.86006045 174.24081471 -111.1322359 172.14247381 -106.8125 170.6875 C-105.8225 170.6875 -104.8325 170.6875 -103.8125 170.6875 C-103.8125 168.0475 -103.8125 165.4075 -103.8125 162.6875 C-104.40417969 162.51734375 -104.99585937 162.3471875 -105.60546875 162.171875 C-111.78861513 160.27557562 -116.05349743 158.47764202 -119.625 152.8125 C-120.93436186 149.36681091 -121.34427694 147.33397042 -120.8125 143.6875 C-118.09990453 138.14928425 -114.14674528 135.43677221 -108.8125 132.6875 C-107.8225 132.3575 -106.8325 132.0275 -105.8125 131.6875 C-105.8125 129.0475 -105.8125 126.4075 -105.8125 123.6875 C-107.029375 123.295625 -108.24625 122.90375 -109.5 122.5 C-114.46127712 120.62964243 -117.46109118 117.96032393 -120.1875 113.375 C-121.07432258 109.56166292 -121.08764906 106.36451712 -119.8125 102.6875 C-116.81014442 98.10749912 -113.35459033 93.91907563 -107.8125 92.6875 C-106.8225 92.6875 -105.8325 92.6875 -104.8125 92.6875 C-104.8125 88.0675 -104.8125 83.4475 -104.8125 78.6875 C-106.7925 78.6875 -108.7725 78.6875 -110.8125 78.6875 C-114.80179708 77.0456702 -118.00006063 74.62688302 -120.8125 71.375 C-122.65387081 66.42631595 -122.40279751 62.36000961 -120.6875 57.5 C-117.44523792 52.63660687 -114.01856832 49.97741319 -108.60546875 48.04296875 C-107.89285889 47.78539795 -107.18024902 47.52782715 -106.44604492 47.26245117 C-105.9069751 47.07271729 -105.36790527 46.8829834 -104.8125 46.6875 C-104.70292969 45.50414062 -104.59335938 44.32078125 -104.48046875 43.1015625 C-102.98831686 27.84414795 -100.57443727 14.20942451 -88.765625 3.2734375 C-65.80552119 -15.37016679 -24.16164527 -17.85683884 0 0 Z M-111.8605957 290.04736328 C-112.78860332 290.07456388 -113.71661093 290.10176449 -114.67273998 290.12978935 C-121.96659638 290.44308499 -127.01731581 292.13029633 -132.8125 296.6875 C-133.92315885 297.49660718 -135.03524041 298.3037636 -136.1484375 299.109375 C-169.53655887 323.82982139 -193.19517646 364.6317551 -200.48046875 405.34228516 C-201.3213658 411.2817389 -200.78501719 416.80466598 -199.8125 422.6875 C-199.69729004 423.43290039 -199.58208008 424.17830078 -199.46337891 424.94628906 C-195.67803611 448.82157536 -187.14975753 471.77651256 -171.8125 490.6875 C-170.80123047 491.96173828 -170.80123047 491.96173828 -169.76953125 493.26171875 C-161.79984282 502.74114779 -151.70513546 510.00801058 -139.8125 513.6875 C-139.214375 513.87699219 -138.61625 514.06648437 -138 514.26171875 C-104.88285599 520.70773428 -66.02442075 500.87233874 -35.8125 489.6875 C-35.8125 468.8975 -35.8125 448.1075 -35.8125 426.6875 C-33.8325 426.6875 -31.8525 426.6875 -29.8125 426.6875 C-29.84580917 427.46709076 -29.87911835 428.24668152 -29.91343689 429.04989624 C-30.21527264 436.43376948 -30.44295045 443.81461698 -30.58968258 451.20306969 C-30.66766967 455.00119444 -30.77317062 458.79418683 -30.9440918 462.58935547 C-32.3396053 478.35704508 -32.3396053 478.35704508 -28.42474365 493.0128479 C-24.56569245 497.04780619 -19.99559483 498.89064495 -14.8125 500.6875 C-13.27764983 501.47126575 -11.7491548 502.26795815 -10.234375 503.08984375 C-6.44176598 504.6754771 -2.6551029 506.22674283 1.1875 507.6875 C2.60095703 508.22890625 2.60095703 508.22890625 4.04296875 508.78125 C19.19400744 513.73227021 35.88456825 510.8509437 49.9621582 504.10375977 C58.24533573 499.86543702 64.72698443 494.31978703 71.1875 487.6875 C71.92613281 486.94628906 72.66476562 486.20507812 73.42578125 485.44140625 C90.69675554 467.16435578 95.8141743 444.62800112 95.6875 420.3125 C95.68606995 419.42865631 95.68463989 418.54481262 95.6831665 417.63418579 C95.6263209 403.4303332 94.349689 390.33068849 90.1875 376.6875 C89.72434802 375.05494607 89.26210289 373.42213458 88.80078125 371.7890625 C79.18450522 338.84089232 64.49576966 308.7195117 34.1875 290.6875 C31.66859537 289.42804769 29.94851663 289.56165432 27.12849426 289.56051636 C26.05672943 289.55769653 24.9849646 289.55487671 23.88072205 289.55197144 C22.69909988 289.55399567 21.51747772 289.5560199 20.30004883 289.55810547 C19.05898376 289.55635315 17.8179187 289.55460083 16.53924561 289.55279541 C13.12261824 289.54913683 9.7060511 289.55001326 6.28942704 289.5531745 C2.69536652 289.55570974 -0.89869145 289.55335623 -4.49275208 289.55178833 C-10.5515692 289.54996512 -16.61037417 289.55237177 -22.66918945 289.55712891 C-29.61474292 289.56252031 -36.5602668 289.5608473 -43.5058195 289.5553025 C-49.49937824 289.55071344 -55.49292823 289.55015023 -61.48648816 289.55274117 C-65.0513881 289.5542792 -68.61627434 289.55456847 -72.18117332 289.55120468 C-85.41102659 289.54061341 -98.63777497 289.57236647 -111.8605957 290.04736328 Z " fill="#C1BFBE" transform="translate(206.8125,11.3125)"/>
<path d="M0 0 C8.02650737 6.73471866 15.41683276 15.07732485 17 25.8125 C17.061875 26.76125 17.12375 27.71 17.1875 28.6875 C17.75597656 28.69007812 18.32445312 28.69265625 18.91015625 28.6953125 C24.54922211 28.9777365 27.62547625 30.20138359 31.77734375 34.01953125 C34.28458454 36.98515955 35.14053674 39.18029682 35.5 43.0625 C34.93805654 49.58104417 32.06018829 53.4792692 27.1875 57.6875 C21.15492671 61.6875 21.15492671 61.6875 18.1875 61.6875 C18.1875 64.6575 18.1875 67.6275 18.1875 70.6875 C19.5178125 71.05875 19.5178125 71.05875 20.875 71.4375 C25.28836417 73.10292044 28.00448151 75.25971906 31 78.875 C32.69726963 82.89484913 32.84294148 86.38902333 32.1875 90.6875 C30.11740812 95.27770374 27.67621996 97.04112132 23.4375 99.4375 C20.71531316 101.15868302 19.43425561 102.05564045 18.25390625 105.078125 C17.96330436 108.06461822 18.05860792 109.89713368 19.1875 112.6875 C21.57478126 114.68122584 23.8819552 115.94600259 26.70703125 117.23828125 C29.72770635 119.00311662 30.73253336 120.53192301 32.1875 123.6875 C33.07064206 128.26233497 32.60976167 131.82673583 30.5625 136 C27.99090442 138.90996342 25.58227817 140.80953761 22.1875 142.6875 C21.1975 142.6875 20.2075 142.6875 19.1875 142.6875 C19.1875 145.9875 19.1875 149.2875 19.1875 152.6875 C19.88875 152.77 20.59 152.8525 21.3125 152.9375 C26.17026702 154.20474357 29.27790325 156.36711763 32.125 160.5 C33.48728486 164.58685459 33.47044615 166.5535624 32.1875 170.6875 C29.50531141 174.57452197 26.76125576 177.89718597 22.50390625 180.03515625 C19.89179571 181.51720471 19.89179571 181.51720471 19.48046875 184.60546875 C19.44566406 185.68441406 19.41085938 186.76335937 19.375 187.875 C19.32730469 188.96167969 19.27960938 190.04835937 19.23046875 191.16796875 C19.21628906 191.99941406 19.20210937 192.83085937 19.1875 193.6875 C19.85136719 193.78546875 20.51523438 193.8834375 21.19921875 193.984375 C26.51323102 194.88426613 30.3558653 195.61638813 34.1875 199.6875 C36.71592568 203.98852304 36.93404514 207.80686081 36.1875 212.6875 C34.23805444 218.22907115 31.16583166 221.02608745 26 223.6875 C21.61184211 225.6875 21.61184211 225.6875 19.1875 225.6875 C19.26252428 229.08875054 19.4349329 232.47838916 19.625 235.875 C19.64498047 236.83470703 19.66496094 237.79441406 19.68554688 238.78320312 C19.87554205 241.67312973 20.13852015 243.98308577 21.1875 246.6875 C23.36704778 248.5365653 25.40270382 249.62335091 28.0234375 250.74804688 C31.17859997 252.11775188 32.57538883 253.67355304 34.1875 256.6875 C34.84385943 262.59473486 33.94792407 265.40668874 31.1875 270.6875 C31.56859915 273.98343763 32.72096887 275.57022605 35.09375 277.81640625 C35.67253906 278.37650391 36.25132812 278.93660156 36.84765625 279.51367188 C37.45480469 280.08666016 38.06195313 280.65964844 38.6875 281.25 C39.88991377 282.39242073 41.08803434 283.53938178 42.28125 284.69140625 C42.81427734 285.19486572 43.34730469 285.6983252 43.89648438 286.21704102 C45.1875 287.6875 45.1875 287.6875 46.1875 290.6875 C48.23694721 292.53419121 48.23694721 292.53419121 50.75 294.375 C74.96724352 313.41263478 86.46272668 342.24708617 95 371 C95.27787354 371.92868896 95.55574707 372.85737793 95.84204102 373.81420898 C99.99229436 388.29022195 101.70514186 401.9007418 101.63354492 416.9050293 C101.62501855 419.61909618 101.65395332 422.33105999 101.68554688 425.04492188 C101.79212049 451.58717196 93.03895193 475.15115722 74.25 494.1875 C59.01952931 509.07605799 40.03695354 517.26747092 18.75268555 517.10498047 C3.25576984 516.64229911 -10.59048219 510.73202293 -23.46484375 502.35546875 C-24.04153809 501.98196289 -24.61823242 501.60845703 -25.21240234 501.22363281 C-26.77331991 500.19218948 -28.31143866 499.12647694 -29.84765625 498.05859375 C-34.53822691 495.88943657 -38.45940444 497.25364209 -43.25561523 498.79150391 C-44.44872314 499.24444824 -45.64183105 499.69739258 -46.87109375 500.1640625 C-48.22818144 500.67211559 -49.58536295 501.17991813 -50.94262695 501.6875 C-51.6453775 501.95304688 -52.34812805 502.21859375 -53.07217407 502.4921875 C-67.46171471 507.91223504 -81.89818422 512.89038849 -96.8125 516.6875 C-98.11550049 517.01983643 -98.11550049 517.01983643 -99.44482422 517.35888672 C-118.94265361 522.16975217 -137.61135396 523.38055824 -155.8125 513.6875 C-181.16222074 497.93589252 -195.60875577 469.18215185 -202.4765625 440.95849609 C-205.83159519 426.12893308 -208.73439264 411.45724523 -204.8125 396.5 C-204.47810913 395.21186401 -204.47810913 395.21186401 -204.13696289 393.89770508 C-195.39990152 361.4118024 -179.67254728 333.29974341 -156.8125 308.6875 C-156.22339844 308.03265625 -155.63429687 307.3778125 -155.02734375 306.703125 C-150.13286409 301.4966895 -144.54699671 297.40163004 -138.80957031 293.18676758 C-134.01829928 289.65027347 -129.55145888 285.91910669 -125.19921875 281.84765625 C-121.65044579 278.63575535 -117.85903502 275.74023993 -114.0625 272.828125 C-109.95459229 268.91990725 -109.34127516 264.09509269 -108.1875 258.6875 C-107.92710938 257.49125 -107.66671875 256.295 -107.3984375 255.0625 C-106.61505206 250.87768137 -106.61505206 250.87768137 -106.8125 246.6875 C-108.63303676 244.95539593 -108.63303676 244.95539593 -111.0625 243.6875 C-116.45035399 240.34652304 -119.48593956 237.51821262 -121.25 231.3125 C-122.12073192 226.63231593 -121.27972682 223.82607402 -118.8125 219.6875 C-116.03835366 216.3585244 -113.2188655 214.30317966 -109.5 212.1875 C-107.44046407 211.0334839 -107.44046407 211.0334839 -105.8125 209.6875 C-105.14095316 206.97091743 -105.14095316 206.97091743 -105.8125 204.6875 C-106.33199219 204.46835938 -106.85148437 204.24921875 -107.38671875 204.0234375 C-113.16764629 201.39477174 -116.90281948 198.50686103 -119.8125 192.6875 C-120.42203693 187.43677476 -120.77501988 182.32301727 -117.8125 177.75 C-114.86006045 174.24081471 -111.1322359 172.14247381 -106.8125 170.6875 C-105.8225 170.6875 -104.8325 170.6875 -103.8125 170.6875 C-103.8125 168.0475 -103.8125 165.4075 -103.8125 162.6875 C-104.40417969 162.51734375 -104.99585937 162.3471875 -105.60546875 162.171875 C-111.78861513 160.27557562 -116.05349743 158.47764202 -119.625 152.8125 C-120.93436186 149.36681091 -121.34427694 147.33397042 -120.8125 143.6875 C-118.09990453 138.14928425 -114.14674528 135.43677221 -108.8125 132.6875 C-107.8225 132.3575 -106.8325 132.0275 -105.8125 131.6875 C-105.8125 129.0475 -105.8125 126.4075 -105.8125 123.6875 C-107.029375 123.295625 -108.24625 122.90375 -109.5 122.5 C-114.46127712 120.62964243 -117.46109118 117.96032393 -120.1875 113.375 C-121.07432258 109.56166292 -121.08764906 106.36451712 -119.8125 102.6875 C-116.81014442 98.10749912 -113.35459033 93.91907563 -107.8125 92.6875 C-106.8225 92.6875 -105.8325 92.6875 -104.8125 92.6875 C-104.8125 88.0675 -104.8125 83.4475 -104.8125 78.6875 C-106.7925 78.6875 -108.7725 78.6875 -110.8125 78.6875 C-114.80179708 77.0456702 -118.00006063 74.62688302 -120.8125 71.375 C-122.65387081 66.42631595 -122.40279751 62.36000961 -120.6875 57.5 C-117.44523792 52.63660687 -114.01856832 49.97741319 -108.60546875 48.04296875 C-107.89285889 47.78539795 -107.18024902 47.52782715 -106.44604492 47.26245117 C-105.9069751 47.07271729 -105.36790527 46.8829834 -104.8125 46.6875 C-104.70292969 45.50414062 -104.59335938 44.32078125 -104.48046875 43.1015625 C-102.98831686 27.84414795 -100.57443727 14.20942451 -88.765625 3.2734375 C-65.80552119 -15.37016679 -24.16164527 -17.85683884 0 0 Z M-88.625 12.5 C-98.05354982 24.02378311 -98.13512063 38.4803591 -98.8125 52.6875 C-100.00875 52.77 -101.205 52.8525 -102.4375 52.9375 C-107.66877657 53.59488166 -110.93494945 55.93108174 -114.75 59.5 C-116.42283603 62.94407419 -115.90707311 65.08184741 -114.8125 68.6875 C-112.44269085 71.35268742 -112.44269085 71.35268742 -108.8125 72.6875 C-105.5125 72.6875 -102.2125 72.6875 -98.8125 72.6875 C-98.8125 80.9375 -98.8125 89.1875 -98.8125 97.6875 C-103.2675 98.6775 -103.2675 98.6775 -107.8125 99.6875 C-110.90952782 101.78905459 -113.11244635 103.36975196 -114.875 106.6875 C-114.75836008 110.4199773 -112.64405521 112.791979 -110.1875 115.4375 C-106.57637491 117.33809215 -102.84113867 117.43786213 -98.8125 117.6875 C-98.82410156 118.64011719 -98.83570312 119.59273438 -98.84765625 120.57421875 C-98.85667969 121.82847656 -98.86570312 123.08273438 -98.875 124.375 C-98.88660156 125.61636719 -98.89820312 126.85773438 -98.91015625 128.13671875 C-98.82728673 131.14985454 -98.52089449 133.77025339 -97.8125 136.6875 C-98.38097656 136.77386719 -98.94945313 136.86023438 -99.53515625 136.94921875 C-105.20019584 137.98008572 -109.71067936 139.50123011 -113.8125 143.6875 C-115.29612193 146.09850117 -115.29612193 146.09850117 -114.8125 148.6875 C-110.16122099 154.4331976 -106.041291 156.4827015 -98.8125 157.6875 C-98.4825 163.6275 -98.1525 169.5675 -97.8125 175.6875 C-100.1225 176.0175 -102.4325 176.3475 -104.8125 176.6875 C-108.71883839 178.26711225 -111.44143856 180.13090784 -113.8125 183.6875 C-114.25832567 187.69993107 -114.25991668 189.93033331 -112.1875 193.4375 C-108.43511611 196.99239 -104.78763389 198.44371653 -99.8125 199.6875 C-99.4825 204.6375 -99.1525 209.5875 -98.8125 214.6875 C-102.2775 215.6775 -102.2775 215.6775 -105.8125 216.6875 C-107.93520042 217.79383182 -107.93520042 217.79383182 -109.625 219.125 C-110.18832031 219.53621094 -110.75164062 219.94742188 -111.33203125 220.37109375 C-114.02056647 222.76169103 -114.7906094 224.51862968 -115.25 228.0625 C-114.69417487 232.6679082 -113.34279239 233.78481514 -109.8125 236.6875 C-108.636875 237.80125 -108.636875 237.80125 -107.4375 238.9375 C-104.22342146 241.08021903 -101.60774945 241.2430914 -97.8125 241.6875 C-98.05484375 242.656875 -98.2971875 243.62625 -98.546875 244.625 C-98.70623535 245.26493896 -98.8655957 245.90487793 -99.02978516 246.56420898 C-99.38931179 247.99720769 -99.75368746 249.42899733 -100.12255859 250.85961914 C-101.06916053 254.55846821 -101.93862637 258.23810824 -102.6171875 261.99609375 C-104.47633521 271.68066622 -107.70962433 276.73405127 -115.8125 282.6875 C-115.8125 283.0175 -115.8125 283.3475 -115.8125 283.6875 C-67.3025 283.6875 -18.7925 283.6875 31.1875 283.6875 C27.30052122 279.08283883 27.30052122 279.08283883 23.1875 274.6875 C23.38222817 271.27975703 24.540408 269.01177163 26.3125 266.1875 C28.33229028 262.95889239 28.33229028 262.95889239 28.4375 260.0625 C26.43688866 256.26133845 23.02291738 254.45560021 19.1875 252.6875 C17.53166933 252.303946 15.8656061 251.95740518 14.1875 251.6875 C14.20490234 249.85638672 14.20490234 249.85638672 14.22265625 247.98828125 C14.2845005 238.49229026 14.13830694 229.14463334 13.1875 219.6875 C14.07501953 219.63142578 14.07501953 219.63142578 14.98046875 219.57421875 C19.73173746 219.17892559 23.38708423 218.81725416 27.1875 215.6875 C29.77576273 212.58158473 30.19540428 211.14594834 30.125 207.0625 C29.47692432 203.68846216 29.47692432 203.68846216 27.375 201.8125 C22.30141219 199.20322627 19.40711462 199.6875 13.1875 199.6875 C13.1875 192.4275 13.1875 185.1675 13.1875 177.6875 C15.6625 176.6975 15.6625 176.6975 18.1875 175.6875 C20.41769777 174.1345979 20.41769777 174.1345979 22.4375 172.3125 C23.12328125 171.72726563 23.8090625 171.14203125 24.515625 170.5390625 C26.33788158 168.52095592 26.98546614 167.39038545 27.1875 164.6875 C23.33175732 159.58796936 20.6283803 159.10283011 14.1875 156.6875 C13.8575 150.4175 13.5275 144.1475 13.1875 137.6875 C15.4975 137.3575 17.8075 137.0275 20.1875 136.6875 C23.93498837 134.5693544 24.96604492 133.3641683 26.3125 129.25 C26.50273482 125.62398525 26.50273482 125.62398525 24.3125 122.9375 C21.51576851 120.92385333 19.69740431 120.05904873 16.4921875 119.046875 C15.68507324 118.78874023 14.87795898 118.53060547 14.04638672 118.26464844 C13.4329541 118.07418945 12.81952148 117.88373047 12.1875 117.6875 C11.60763268 100.46202955 11.60763268 100.46202955 15.375 96.23046875 C18.0625 94.75 18.0625 94.75 20.7421875 93.72265625 C23.60917363 92.50899599 24.60517151 91.33151986 26.1875 88.6875 C26.85435938 86.23077108 26.85435938 86.23077108 26.1875 83.6875 C22.79755152 79.47574583 18.93187213 77.10444429 14.1875 74.6875 C13.5275 74.6875 12.8675 74.6875 12.1875 74.6875 C12.1875 68.7475 12.1875 62.8075 12.1875 56.6875 C15.1575 56.1925 15.1575 56.1925 18.1875 55.6875 C23.05439455 52.86470116 27.32762056 50.21339585 29.1875 44.75 C29.4544562 41.5847935 29.4544562 41.5847935 27.5 38.9375 C24.04182909 35.57279317 21.21098617 34.48368996 16.4375 34.0625 C15.63828125 33.98773438 14.8390625 33.91296875 14.015625 33.8359375 C13.41234375 33.78695312 12.8090625 33.73796875 12.1875 33.6875 C12.08953125 33.0584375 11.9915625 32.429375 11.890625 31.78125 C9.81104606 19.8774533 4.46781526 11.43317882 -5.12890625 3.859375 C-29.10236974 -11.78064401 -68.79315168 -8.67638041 -88.625 12.5 Z M-111.8605957 290.04736328 C-112.78860332 290.07456388 -113.71661093 290.10176449 -114.67273998 290.12978935 C-121.96659638 290.44308499 -127.01731581 292.13029633 -132.8125 296.6875 C-133.92315885 297.49660718 -135.03524041 298.3037636 -136.1484375 299.109375 C-169.53655887 323.82982139 -193.19517646 364.6317551 -200.48046875 405.34228516 C-201.3213658 411.2817389 -200.78501719 416.80466598 -199.8125 422.6875 C-199.69729004 423.43290039 -199.58208008 424.17830078 -199.46337891 424.94628906 C-195.67803611 448.82157536 -187.14975753 471.77651256 -171.8125 490.6875 C-170.80123047 491.96173828 -170.80123047 491.96173828 -169.76953125 493.26171875 C-161.79984282 502.74114779 -151.70513546 510.00801058 -139.8125 513.6875 C-139.214375 513.87699219 -138.61625 514.06648437 -138 514.26171875 C-104.88285599 520.70773428 -66.02442075 500.87233874 -35.8125 489.6875 C-35.8125 468.8975 -35.8125 448.1075 -35.8125 426.6875 C-33.8325 426.6875 -31.8525 426.6875 -29.8125 426.6875 C-29.84580917 427.46709076 -29.87911835 428.24668152 -29.91343689 429.04989624 C-30.21527264 436.43376948 -30.44295045 443.81461698 -30.58968258 451.20306969 C-30.66766967 455.00119444 -30.77317062 458.79418683 -30.9440918 462.58935547 C-32.3396053 478.35704508 -32.3396053 478.35704508 -28.42474365 493.0128479 C-24.56569245 497.04780619 -19.99559483 498.89064495 -14.8125 500.6875 C-13.27764983 501.47126575 -11.7491548 502.26795815 -10.234375 503.08984375 C-6.44176598 504.6754771 -2.6551029 506.22674283 1.1875 507.6875 C2.60095703 508.22890625 2.60095703 508.22890625 4.04296875 508.78125 C19.19400744 513.73227021 35.88456825 510.8509437 49.9621582 504.10375977 C58.24533573 499.86543702 64.72698443 494.31978703 71.1875 487.6875 C71.92613281 486.94628906 72.66476562 486.20507812 73.42578125 485.44140625 C90.69675554 467.16435578 95.8141743 444.62800112 95.6875 420.3125 C95.68606995 419.42865631 95.68463989 418.54481262 95.6831665 417.63418579 C95.6263209 403.4303332 94.349689 390.33068849 90.1875 376.6875 C89.72434802 375.05494607 89.26210289 373.42213458 88.80078125 371.7890625 C79.18450522 338.84089232 64.49576966 308.7195117 34.1875 290.6875 C31.66859537 289.42804769 29.94851663 289.56165432 27.12849426 289.56051636 C26.05672943 289.55769653 24.9849646 289.55487671 23.88072205 289.55197144 C22.69909988 289.55399567 21.51747772 289.5560199 20.30004883 289.55810547 C19.05898376 289.55635315 17.8179187 289.55460083 16.53924561 289.55279541 C13.12261824 289.54913683 9.7060511 289.55001326 6.28942704 289.5531745 C2.69536652 289.55570974 -0.89869145 289.55335623 -4.49275208 289.55178833 C-10.5515692 289.54996512 -16.61037417 289.55237177 -22.66918945 289.55712891 C-29.61474292 289.56252031 -36.5602668 289.5608473 -43.5058195 289.5553025 C-49.49937824 289.55071344 -55.49292823 289.55015023 -61.48648816 289.55274117 C-65.0513881 289.5542792 -68.61627434 289.55456847 -72.18117332 289.55120468 C-85.41102659 289.54061341 -98.63777497 289.57236647 -111.8605957 290.04736328 Z " fill="#11110E" transform="translate(206.8125,11.3125)"/>
</svg>
