<?xml version="1.0" encoding="UTF-8"?>
<!DOCTYPE svg PUBLIC "-//W3C//DTD SVG 1.1//EN" "http://www.w3.org/Graphics/SVG/1.1/DTD/svg11.dtd">
<svg xmlns="http://www.w3.org/2000/svg" version="1.1" width="1148px" height="3975px" style="shape-rendering:geometricPrecision; text-rendering:geometricPrecision; image-rendering:optimizeQuality; fill-rule:evenodd; clip-rule:evenodd" xmlns:xlink="http://www.w3.org/1999/xlink">
<g><path style="opacity:0.848" fill="#fcfcfc" d="M -0.5,-0.5 C 382.167,-0.5 764.833,-0.5 1147.5,-0.5C 1147.5,1324.5 1147.5,2649.5 1147.5,3974.5C 764.833,3974.5 382.167,3974.5 -0.5,3974.5C -0.5,2649.5 -0.5,1324.5 -0.5,-0.5 Z M 1143.5,479.5 C 1133.76,388.147 1086.09,325.98 1000.5,293C 960.346,278.903 919.013,270.569 876.5,268C 792.072,262.203 708.739,269.536 626.5,290C 518.453,317.905 412.12,351.238 307.5,390C 258.893,407.804 211.893,429.137 166.5,454C 75.778,507.179 23.6113,586.345 10,691.5C 7.29141,711.929 5.12474,732.262 3.5,752.5C 3.5,502.833 3.5,253.167 3.5,3.5C 383.5,3.5 763.5,3.5 1143.5,3.5C 1143.5,162.167 1143.5,320.833 1143.5,479.5 Z M 1143.5,587.5 C 1143.5,1715.17 1143.5,2842.83 1143.5,3970.5C 763.5,3970.5 383.5,3970.5 3.5,3970.5C 3.5,2939.83 3.5,1909.17 3.5,878.5C 7.93682,972.122 23.1035,1064.12 49,1154.5C 68.2624,1218.95 87.929,1283.29 108,1347.5C 115.251,1373.01 122.417,1398.51 129.5,1424C 128.339,1448.76 128.173,1473.59 129,1498.5C 139.212,1515.09 149.045,1531.92 158.5,1549C 145.991,1569.34 138.324,1591.34 135.5,1615C 135.936,1632.87 143.269,1647.21 157.5,1658C 170.45,1667.31 184.45,1674.81 199.5,1680.5C 200.289,1712.83 200.955,1745.16 201.5,1777.5C 201.167,1782.5 200.833,1787.5 200.5,1792.5C 163.424,1801.74 139.591,1824.74 129,1861.5C 120.568,1906.5 138.068,1935.67 181.5,1949C 188.322,1950.53 195.155,1951.7 202,1952.5C 202.784,1973.17 203.117,1993.83 203,2014.5C 185.481,2025.68 170.148,2039.35 157,2055.5C 132.62,2093.6 138.787,2125.76 175.5,2152C 184.561,2157.45 194.061,2161.95 204,2165.5C 204.667,2180.83 204.667,2196.17 204,2211.5C 160.084,2226.74 140.751,2257.4 146,2303.5C 153.403,2326.47 167.57,2343.97 188.5,2356C 194.167,2358.83 199.833,2361.67 205.5,2364.5C 206.833,2383.17 206.833,2401.83 205.5,2420.5C 180.527,2432.97 161.694,2451.64 149,2476.5C 139.939,2501.81 143.605,2525.15 160,2546.5C 173.352,2562.02 189.185,2574.35 207.5,2583.5C 208.499,2598.49 208.833,2613.49 208.5,2628.5C 171.869,2640.63 147.369,2664.96 135,2701.5C 127.395,2743.87 143.228,2773.7 182.5,2791C 191.681,2793.87 201.014,2796.04 210.5,2797.5C 234.204,2907.7 301.537,2973.2 412.5,2994C 481.732,3005.64 548.732,2997.97 613.5,2971C 685.281,2940.22 729.781,2886.72 747,2810.5C 753.693,2774.47 757.693,2738.14 759,2701.5C 782.061,2695.47 801.728,2683.81 818,2666.5C 842.226,2634.69 843.56,2602.02 822,2568.5C 805.949,2550.39 785.783,2540.73 761.5,2539.5C 761.547,2516.16 761.214,2492.83 760.5,2469.5C 789.729,2462.77 811.229,2446.1 825,2419.5C 837.704,2384.65 830.204,2355.15 802.5,2331C 789.808,2322.16 775.808,2316.32 760.5,2313.5C 759.501,2298.51 759.167,2283.51 759.5,2268.5C 780.085,2261.8 798.252,2251.13 814,2236.5C 834.419,2214.44 838.086,2189.77 825,2162.5C 808.873,2137.59 786.539,2120.93 758,2112.5C 757.5,2098.84 757.333,2085.17 757.5,2071.5C 788.138,2063.78 810.305,2045.78 824,2017.5C 838.206,1964.41 820.373,1926.24 770.5,1903C 767.568,1901.86 764.568,1901.02 761.5,1900.5C 761.168,1889.81 761.501,1879.15 762.5,1868.5C 783.743,1858.09 802.243,1844.09 818,1826.5C 839.159,1797.69 840.825,1767.69 823,1736.5C 808.391,1713.39 788.891,1695.72 764.5,1683.5C 764.167,1682.67 763.833,1681.83 763.5,1681C 770.616,1641.08 778.116,1601.25 786,1561.5C 807.564,1539.36 828.897,1517.02 850,1494.5C 872.09,1456.32 892.09,1416.99 910,1376.5C 928.898,1334.48 946.231,1291.81 962,1248.5C 1011.22,1109.16 1056.22,968.493 1097,826.5C 1119.01,747.947 1134.51,668.28 1143.5,587.5 Z"/></g>
<g><path style="opacity:0.982" fill="#010101" d="M 1143.5,479.5 C 1143.5,515.5 1143.5,551.5 1143.5,587.5C 1134.51,668.28 1119.01,747.947 1097,826.5C 1056.22,968.493 1011.22,1109.16 962,1248.5C 946.231,1291.81 928.898,1334.48 910,1376.5C 892.09,1416.99 872.09,1456.32 850,1494.5C 828.897,1517.02 807.564,1539.36 786,1561.5C 778.116,1601.25 770.616,1641.08 763.5,1681C 763.833,1681.83 764.167,1682.67 764.5,1683.5C 788.891,1695.72 808.391,1713.39 823,1736.5C 840.825,1767.69 839.159,1797.69 818,1826.5C 802.243,1844.09 783.743,1858.09 762.5,1868.5C 761.501,1879.15 761.168,1889.81 761.5,1900.5C 764.568,1901.02 767.568,1901.86 770.5,1903C 820.373,1926.24 838.206,1964.41 824,2017.5C 810.305,2045.78 788.138,2063.78 757.5,2071.5C 757.333,2085.17 757.5,2098.84 758,2112.5C 786.539,2120.93 808.873,2137.59 825,2162.5C 838.086,2189.77 834.419,2214.44 814,2236.5C 798.252,2251.13 780.085,2261.8 759.5,2268.5C 759.167,2283.51 759.501,2298.51 760.5,2313.5C 775.808,2316.32 789.808,2322.16 802.5,2331C 830.204,2355.15 837.704,2384.65 825,2419.5C 811.229,2446.1 789.729,2462.77 760.5,2469.5C 761.214,2492.83 761.547,2516.16 761.5,2539.5C 785.783,2540.73 805.949,2550.39 822,2568.5C 843.56,2602.02 842.226,2634.69 818,2666.5C 801.728,2683.81 782.061,2695.47 759,2701.5C 757.693,2738.14 753.693,2774.47 747,2810.5C 729.781,2886.72 685.281,2940.22 613.5,2971C 548.732,2997.97 481.732,3005.64 412.5,2994C 301.537,2973.2 234.204,2907.7 210.5,2797.5C 201.014,2796.04 191.681,2793.87 182.5,2791C 143.228,2773.7 127.395,2743.87 135,2701.5C 147.369,2664.96 171.869,2640.63 208.5,2628.5C 208.833,2613.49 208.499,2598.49 207.5,2583.5C 189.185,2574.35 173.352,2562.02 160,2546.5C 143.605,2525.15 139.939,2501.81 149,2476.5C 161.694,2451.64 180.527,2432.97 205.5,2420.5C 206.833,2401.83 206.833,2383.17 205.5,2364.5C 199.833,2361.67 194.167,2358.83 188.5,2356C 167.57,2343.97 153.403,2326.47 146,2303.5C 140.751,2257.4 160.084,2226.74 204,2211.5C 204.667,2196.17 204.667,2180.83 204,2165.5C 194.061,2161.95 184.561,2157.45 175.5,2152C 138.787,2125.76 132.62,2093.6 157,2055.5C 170.148,2039.35 185.481,2025.68 203,2014.5C 203.117,1993.83 202.784,1973.17 202,1952.5C 195.155,1951.7 188.322,1950.53 181.5,1949C 138.068,1935.67 120.568,1906.5 129,1861.5C 139.591,1824.74 163.424,1801.74 200.5,1792.5C 200.833,1787.5 201.167,1782.5 201.5,1777.5C 200.955,1745.16 200.289,1712.83 199.5,1680.5C 184.45,1674.81 170.45,1667.31 157.5,1658C 143.269,1647.21 135.936,1632.87 135.5,1615C 138.324,1591.34 145.991,1569.34 158.5,1549C 149.045,1531.92 139.212,1515.09 129,1498.5C 128.173,1473.59 128.339,1448.76 129.5,1424C 122.417,1398.51 115.251,1373.01 108,1347.5C 87.929,1283.29 68.2624,1218.95 49,1154.5C 23.1035,1064.12 7.93682,972.122 3.5,878.5C 3.5,836.5 3.5,794.5 3.5,752.5C 5.12474,732.262 7.29141,711.929 10,691.5C 23.6113,586.345 75.778,507.179 166.5,454C 211.893,429.137 258.893,407.804 307.5,390C 412.12,351.238 518.453,317.905 626.5,290C 708.739,269.536 792.072,262.203 876.5,268C 919.013,270.569 960.346,278.903 1000.5,293C 1086.09,325.98 1133.76,388.147 1143.5,479.5 Z"/></g>
<g><path style="opacity:1" fill="#fdfdfd" d="M 857.5,1416.5 C 624.097,1416.83 390.764,1416.5 157.5,1415.5C 151.657,1392.47 145.49,1369.47 139,1346.5C 118.668,1280.17 98.335,1213.84 78,1147.5C 38.4926,1007.76 24.4926,865.426 36,720.5C 39.734,680.308 49.4007,641.641 65,604.5C 80.2759,570.797 101.776,541.63 129.5,517C 160.993,490.909 195.659,469.575 233.5,453C 311.099,419.21 390.433,389.877 471.5,365C 523.429,348.601 575.762,333.601 628.5,320C 689.574,304.857 751.574,296.69 814.5,295.5C 872.538,293.837 929.205,301.671 984.5,319C 1066.35,348.573 1109.85,407.073 1115,494.5C 1117.17,549.233 1113.51,603.567 1104,657.5C 1098.15,692.424 1091.15,727.091 1083,761.5C 1058.93,855.049 1031.6,947.716 1001,1039.5C 979.728,1103.98 958.062,1168.31 936,1232.5C 913.4,1295.37 887.234,1356.7 857.5,1416.5 Z"/></g>
<g><path style="opacity:1" fill="#6c6c6c" d="M 804.5,879.5 C 803.167,879.5 801.833,879.5 800.5,879.5C 800.737,880.791 800.404,881.791 799.5,882.5C 799.5,881.167 799.5,879.833 799.5,878.5C 801.415,878.216 803.081,878.549 804.5,879.5 Z"/></g>
<g><path style="opacity:1" fill="#020202" d="M 228.5,878.5 C 231.167,878.5 233.833,878.5 236.5,878.5C 240.508,926.056 246.341,973.389 254,1020.5C 259.734,1053.77 268.734,1086.11 281,1117.5C 293.456,1145.62 310.956,1170.12 333.5,1191C 361.431,1214.76 391.431,1235.59 423.5,1253.5C 424.583,1254.36 424.749,1255.36 424,1256.5C 419.167,1264.17 414.333,1271.83 409.5,1279.5C 377.044,1260.87 346.378,1239.7 317.5,1216C 294.807,1195.66 276.307,1172.16 262,1145.5C 247.986,1116.78 237.653,1086.78 231,1055.5C 219.561,997.992 211.728,939.992 207.5,881.5C 214.719,881.084 221.719,880.084 228.5,878.5 Z"/></g>
<g><path style="opacity:1" fill="#020202" d="M 804.5,879.5 C 812.488,880.299 820.488,880.965 828.5,881.5C 824.764,940.055 816.931,998.055 805,1055.5C 796.805,1099.53 780.138,1139.86 755,1176.5C 735.772,1200.73 713.605,1221.89 688.5,1240C 668.341,1253.92 647.675,1267.08 626.5,1279.5C 621.248,1271.33 616.248,1263 611.5,1254.5C 642.009,1236.82 671.009,1216.98 698.5,1195C 722.734,1173.44 741.568,1147.94 755,1118.5C 768.122,1085.91 777.456,1052.24 783,1017.5C 789.998,972.682 795.498,927.682 799.5,882.5C 800.404,881.791 800.737,880.791 800.5,879.5C 801.833,879.5 803.167,879.5 804.5,879.5 Z"/></g>
<g><path style="opacity:1" fill="#4e4e4e" d="M 157.5,1415.5 C 390.764,1416.5 624.097,1416.83 857.5,1416.5C 741,1417.17 624.334,1417.5 507.5,1417.5C 390.498,1417.5 273.831,1416.83 157.5,1415.5 Z"/></g>
<g><path style="opacity:1" fill="#b7b7b8" d="M 238.5,2601.5 C 239.146,2588.79 238.48,2576.45 236.5,2564.5C 220.084,2557.57 205.084,2548.4 191.5,2537C 168.811,2515.95 167.644,2493.78 188,2470.5C 201.786,2456.9 217.619,2446.23 235.5,2438.5C 236.5,2406.84 236.833,2375.17 236.5,2343.5C 214.952,2338.32 196.786,2327.65 182,2311.5C 167.53,2281.58 175.03,2258.75 204.5,2243C 214.117,2239.17 224.117,2237.34 234.5,2237.5C 234.5,2205.83 234.5,2174.17 234.5,2142.5C 211.974,2139.32 192.808,2129.65 177,2113.5C 171,2102.17 171,2090.83 177,2079.5C 184.463,2068.07 193.629,2058.24 204.5,2050C 213.159,2043.67 222.159,2037.84 231.5,2032.5C 232.5,2003.84 232.833,1975.17 232.5,1946.5C 232.5,1938.17 232.5,1929.83 232.5,1921.5C 228.629,1921.19 224.962,1921.52 221.5,1922.5C 210.07,1922.92 198.737,1922.08 187.5,1920C 164.013,1912.83 153.847,1896.99 157,1872.5C 167.33,1835.4 191.83,1818.07 230.5,1820.5C 230.5,1785.17 230.5,1749.83 230.5,1714.5C 231.154,1695.8 230.487,1677.47 228.5,1659.5C 212.954,1654.26 197.954,1647.76 183.5,1640C 175.95,1635.45 170.116,1629.28 166,1621.5C 164.755,1611.81 166.088,1602.48 170,1593.5C 176.988,1578.19 184.488,1563.19 192.5,1548.5C 181.253,1528.34 169.753,1508.34 158,1488.5C 157.5,1474.5 157.333,1460.5 157.5,1446.5C 384.836,1447.48 612.169,1448.81 839.5,1450.5C 835.094,1460.32 829.928,1469.65 824,1478.5C 802.436,1500.64 781.103,1522.98 760,1545.5C 759,1547.17 758,1548.83 757,1550.5C 747.589,1602.06 738.089,1653.56 728.5,1705C 736.755,1705.57 744.755,1707.24 752.5,1710C 776.758,1722.92 793.924,1742.09 804,1767.5C 806.736,1778.66 805.403,1789.32 800,1799.5C 792.881,1811.62 783.381,1821.45 771.5,1829C 758.733,1836.8 745.567,1843.97 732,1850.5C 731.333,1874.83 731.333,1899.17 732,1923.5C 754.057,1926.2 772.724,1935.53 788,1951.5C 806.922,1979.44 804.088,2004.94 779.5,2028C 763.98,2038.84 746.814,2045.67 728,2048.5C 727.5,2078.5 727.333,2108.5 727.5,2138.5C 754.178,2139.26 776.345,2149.59 794,2169.5C 807.579,2189.58 804.746,2207.08 785.5,2222C 779.165,2226.5 772.498,2230.5 765.5,2234C 754.029,2238.99 742.363,2243.49 730.5,2247.5C 729.5,2278.83 729.167,2310.16 729.5,2341.5C 749.41,2339.98 767.744,2344.48 784.5,2355C 804.647,2374.25 806.814,2395.42 791,2418.5C 780.929,2429.96 768.429,2437.46 753.5,2441C 746.165,2442.23 738.831,2443.4 731.5,2444.5C 731.5,2486.5 731.5,2528.5 731.5,2570.5C 743.148,2569.47 754.815,2569.31 766.5,2570C 797.394,2576.55 810.561,2595.38 806,2626.5C 797.702,2649.09 781.869,2663.59 758.5,2670C 749.035,2672.91 739.368,2674.74 729.5,2675.5C 728.717,2705.89 726.884,2736.23 724,2766.5C 716.807,2857.33 670.64,2918.49 585.5,2950C 522.107,2972.57 457.773,2975.57 392.5,2959C 312.506,2936.67 262.672,2885.17 243,2804.5C 240.876,2793.26 239.543,2781.93 239,2770.5C 228.925,2768.97 218.759,2767.81 208.5,2767C 191.482,2764.65 177.982,2756.48 168,2742.5C 161.601,2729.45 160.935,2716.12 166,2702.5C 176.276,2680.6 192.776,2665.44 215.5,2657C 222.748,2654.52 230.081,2652.35 237.5,2650.5C 238.499,2634.18 238.833,2617.85 238.5,2601.5 Z"/></g>
<g><path style="opacity:1" fill="#484849" d="M 228.5,1659.5 C 230.487,1677.47 231.154,1695.8 230.5,1714.5C 229.821,1696.26 229.154,1677.93 228.5,1659.5 Z"/></g>
<g><path style="opacity:1" fill="#2f2f2f" d="M 221.5,1922.5 C 224.962,1921.52 228.629,1921.19 232.5,1921.5C 232.5,1929.83 232.5,1938.17 232.5,1946.5C 231.508,1938.68 231.174,1930.68 231.5,1922.5C 228.167,1922.5 224.833,1922.5 221.5,1922.5 Z"/></g>
<g><path style="opacity:1" fill="#505050" d="M 236.5,2564.5 C 238.48,2576.45 239.146,2588.79 238.5,2601.5C 237.815,2589.27 237.148,2576.93 236.5,2564.5 Z"/></g>
</svg>
