<?xml version="1.0" encoding="UTF-8"?>
<svg version="1.1" xmlns="http://www.w3.org/2000/svg" width="1291" height="3975">
<path d="M0 0 C426.03 0 852.06 0 1291 0 C1291 1311.75 1291 2623.5 1291 3975 C864.97 3975 438.94 3975 0 3975 C0 2663.25 0 1351.5 0 0 Z M4 4 C4 1313.11 4 2622.22 4 3971 C427.39 3971 850.78 3971 1287 3971 C1287 3834.71 1287 3698.42 1287 3558 C1286.67 3558 1286.34 3558 1286 3558 C1285.90295776 3558.86443726 1285.90295776 3558.86443726 1285.80395508 3559.74633789 C1279.13831067 3617.78035611 1258.57354529 3675.87268758 1212.25 3714.0625 C1139.0202513 3770.44706689 1038.2258823 3778.73644975 949 3784 C948.17556396 3784.04878296 947.35112793 3784.09756592 946.50170898 3784.14782715 C857.97978606 3789.32662007 769.15807167 3787.44934811 220 3689 C219.0920166 3688.58927246 218.1840332 3688.17854492 217.24853516 3687.75537109 C203.03710732 3681.29373855 189.47398495 3673.87450627 176 3666 C175.24895996 3665.56236328 174.49791992 3665.12472656 173.72412109 3664.67382812 C151.04253129 3651.40974052 129.24273873 3636.00726708 110.1328125 3617.921875 C107.85066054 3615.76327199 105.5025805 3613.70390654 103.1171875 3611.66015625 C98.8100451 3607.91075854 94.89064228 3603.86284642 91 3599.6875 C90.29504395 3598.93259277 89.59008789 3598.17768555 88.86376953 3597.39990234 C83.96753729 3592.11996352 79.30862566 3586.77403624 75 3581 C74.49259277 3580.33274902 73.98518555 3579.66549805 73.46240234 3578.97802734 C65.62014557 3568.65950116 58.43903922 3558.24235477 52 3547 C51.13375 3545.60394531 51.13375 3545.60394531 50.25 3544.1796875 C1.31183471 3464.65516891 3.73415688 3360.35674866 29.625 3221.375 C53.30789151 3122.42384038 90.4777985 3027.07621195 165 2854 C165.50418457 2852.87078125 166.00836914 2851.7415625 166.52783203 2850.578125 C182.7710049 2814.20150148 199.31886721 2777.96051549 216.11404419 2741.83551025 C219.72888331 2734.05933946 223.33026188 2726.27700805 226.92431641 2718.49121094 C228.1767609 2715.77854183 229.43305033 2713.06778203 230.69677734 2710.36035156 C238.93845837 2692.65560292 245.9175763 2674.51305317 252.91943359 2656.29223633 C259.29406293 2639.71685318 265.93497527 2623.29307333 273 2607 C273.40863281 2606.05044434 273.81726563 2605.10088867 274.23828125 2604.12255859 C285.05188006 2579.08220584 297.88382138 2555.3122083 315 2534 C316.08529508 2532.58483565 317.16876959 2531.16827231 318.25 2529.75 C323.47587564 2523.03809337 328.95481358 2516.52546105 334.37402344 2509.96972656 C336.42402348 2507.48633312 338.4633376 2504.99433935 340.5 2502.5 C344.32120454 2497.8233019 348.15937666 2493.16074852 352 2488.5 C356.64605388 2482.86149516 361.28774726 2477.21970625 365.90625 2471.55859375 C367.40002939 2469.73317305 368.90080938 2467.91347181 370.40625 2466.09765625 C371.59734375 2464.65712891 371.59734375 2464.65712891 372.8125 2463.1875 C373.52019531 2462.33542969 374.22789062 2461.48335937 374.95703125 2460.60546875 C377.14111504 2457.82003111 379.07251194 2454.96703218 381 2452 C380.05640625 2450.29070313 380.05640625 2450.29070313 379.09375 2448.546875 C367.343115 2426.95061472 355.36472888 2403.495303 362.15673828 2378.47900391 C364.55657647 2370.47886246 368.84761292 2364.56644545 375 2359 C375.80824219 2358.22076172 375.80824219 2358.22076172 376.6328125 2357.42578125 C389.53117189 2345.41789437 406.68881496 2338.11669439 423 2332 C423.33 2298.67 423.66 2265.34 424 2231 C419.38 2229.68 414.76 2228.36 410 2227 C387.45942545 2218.43458167 369.83954437 2203.70099787 359 2182 C351.77745315 2165.8024686 348.60266169 2146.10364723 353.90234375 2128.82421875 C361.6238894 2108.95703903 373.72172132 2097.51734295 393 2089 C400.47636792 2086.06552559 408.02116615 2084.5861235 415.92578125 2083.390625 C417.23899353 2083.18783936 417.23899353 2083.18783936 418.57873535 2082.98095703 C420.71869263 2082.65094656 422.85928371 2082.32505048 425 2082 C425.40779663 2074.22799494 425.6866696 2066.4587647 425.87890625 2058.6784668 C425.95906966 2056.03646824 426.06804677 2053.39517312 426.20703125 2050.75561523 C427.54928381 2036.71321307 427.54928381 2036.71321307 423.47259521 2023.75622559 C419.78822094 2020.18376458 415.62860415 2017.97913211 410.95848083 2015.94203186 C407.94989375 2014.49489751 405.66173295 2012.53727998 403.125 2010.375 C401.83142578 2009.28251953 401.83142578 2009.28251953 400.51171875 2008.16796875 C399.68285156 2007.45253906 398.85398437 2006.73710938 398 2006 C396.74123047 2004.94232422 396.74123047 2004.94232422 395.45703125 2003.86328125 C381.73922386 1992.01705068 368.58554984 1975.74324113 366.8125 1957.02001953 C365.68967695 1941.40927034 368.86782311 1928.31113966 379 1916 C379.85271484 1914.92298828 379.85271484 1914.92298828 380.72265625 1913.82421875 C392.46244661 1899.62415341 410.34016127 1892.66393549 427 1886 C427 1872.8 427 1859.6 427 1846 C423.04 1844.35 419.08 1842.7 415 1841 C395.49924281 1832.53826793 380.60441258 1818.52054789 372.64453125 1798.609375 C366.60541574 1780.90626383 367.4644084 1762.99683551 375.4375 1746.0625 C385.78934313 1725.42016891 405.71206104 1713.85293738 425.76953125 1704.12890625 C427.91568621 1703.18817492 427.91568621 1703.18817492 429 1702 C429.82792051 1695.38358099 429.82896126 1688.6247419 430.00927734 1681.96606445 C430.08592385 1679.711784 430.19489802 1677.45835237 430.33740234 1675.20727539 C431.58211458 1662.98515175 431.58211458 1662.98515175 427.38308716 1652.03775024 C423.36110959 1648.77208272 418.91910708 1646.81190604 414.12554932 1644.93934631 C408.44405638 1642.42851798 403.73217121 1637.9515445 399 1634 C398.48598633 1633.57638184 397.97197266 1633.15276367 397.44238281 1632.71630859 C382.92608892 1620.63151666 370.56266711 1603.95493812 368.78027344 1584.6159668 C368.2609314 1573.83307316 368.7428749 1564.068661 373 1554 C373.350625 1553.14535156 373.70125 1552.29070312 374.0625 1551.41015625 C383.31800609 1531.06732517 403.02160046 1514.94827547 423.00390625 1505.59375 C425.74498908 1504.252452 427.77387544 1503.08597324 430 1501 C430.73225584 1498.49756717 430.73225584 1498.49756717 430.76171875 1495.65625 C430.81473145 1494.58922852 430.86774414 1493.52220703 430.92236328 1492.42285156 C431.05225427 1486.6962111 431.1046178 1480.9780204 431.0625 1475.25 C431.05573242 1473.47109375 431.05573242 1473.47109375 431.04882812 1471.65625 C431.03719316 1468.77077772 431.0208484 1465.88541787 431 1463 C424.97543762 1459.94646458 424.97543762 1459.94646458 418.8125 1457.1875 C394.41293125 1446.37119633 372.93157731 1428.68046845 362.5625 1403.5625 C356.11729412 1385.96635554 354.58697366 1367.62002005 362 1350 C368.03631093 1337.48837371 376.84554819 1328.12889789 388 1320 C388.64453125 1319.52820312 389.2890625 1319.05640625 389.953125 1318.5703125 C402.83272543 1309.85764162 418.89572317 1307.07074763 434 1305 C434.16435547 1304.13556274 434.16435547 1304.13556274 434.33203125 1303.25366211 C440.87977084 1269.50685184 453.72043116 1238.21805317 475 1211 C475.62003906 1210.18917969 476.24007813 1209.37835937 476.87890625 1208.54296875 C492.83595038 1188.07282123 512.29595022 1170.68674109 535 1158 C535.79196777 1157.55688477 536.58393555 1157.11376953 537.39990234 1156.65722656 C612.6699019 1115.0244206 705.73780317 1109.49140692 787.92358398 1132.54492188 C806.52920308 1137.99706713 824.52318369 1144.61220107 842 1153 C843.39703926 1153.65254964 844.79417156 1154.30490016 846.19140625 1154.95703125 C866.99670832 1164.83589835 886.09726694 1178.66211257 902.61279297 1194.6640625 C903.8404532 1195.84634986 905.09238411 1197.00332118 906.34765625 1198.15625 C959.18993464 1248.02555084 963.34708055 1325.33434492 968 1393 C968.97195564 1393.32816711 968.97195564 1393.32816711 969.96354675 1393.66296387 C972.95048481 1394.67539165 975.93420454 1395.69700815 978.91796875 1396.71875 C979.93693237 1397.06260742 980.955896 1397.40646484 982.0057373 1397.76074219 C995.47634536 1402.39185269 1007.26221939 1408.57416627 1018 1418 C1018.83402344 1418.64582031 1019.66804687 1419.29164062 1020.52734375 1419.95703125 C1032.22615523 1429.62287391 1039.36392809 1444.57896904 1043 1459 C1043.1743457 1459.62011963 1043.34869141 1460.24023926 1043.52832031 1460.87915039 C1047.27846008 1477.74119187 1043.34640758 1496.32758477 1034.25 1510.71484375 C1023.80641204 1525.96320743 1010.30380183 1534.18700407 993 1540 C985.74 1541.32 978.48 1542.64 971 1544 C971 1564.46 971 1584.92 971 1606 C977.27 1608.31 983.54 1610.62 990 1613 C999.26015374 1617.52240067 1007.35029035 1622.11118509 1015 1629 C1015.69480469 1629.60199219 1016.38960937 1630.20398437 1017.10546875 1630.82421875 C1026.5267547 1639.51658509 1032.08151068 1650.95897412 1036 1663 C1036.24621094 1663.72058594 1036.49242187 1664.44117188 1036.74609375 1665.18359375 C1041.46039929 1681.86248163 1037.42816192 1700.2754582 1029.37109375 1715.125 C1019.87721111 1731.40252516 1002.83687857 1742.90481921 984.87158203 1747.88012695 C981.9253926 1748.63396765 978.96237506 1749.31297387 976 1750 C973.69 1750.66 971.38 1751.32 969 1752 C969 1764.87 969 1777.74 969 1791 C972.609375 1792.44375 976.21875 1793.8875 979.9375 1795.375 C1003.77713773 1805.17904697 1026.11928966 1818.49579638 1037 1843 C1041.76661288 1857.31616266 1041.02685729 1873.10453637 1034.4855957 1886.7253418 C1022.12415204 1910.55105226 999.7690947 1925.25141087 975 1934 C972.67526823 1934.70611809 970.3440779 1935.35934525 968 1936 C966.7812625 1939.79537631 966.88661872 1943.42791621 966.90234375 1947.390625 C966.9037587 1948.09523865 966.90517365 1948.79985229 966.90663147 1949.52581787 C966.91221067 1951.76725584 966.92475927 1954.00859243 966.9375 1956.25 C966.94251769 1957.77343605 966.94708013 1959.29687368 966.95117188 1960.8203125 C966.96217326 1964.54690772 966.97942354 1968.27344396 967 1972 C968.19753906 1972.4125 969.39507813 1972.825 970.62890625 1973.25 C985.66439523 1978.53701733 998.83909863 1984.47437135 1011 1995 C1012.010625 1995.7425 1013.02125 1996.485 1014.0625 1997.25 C1027.33029756 2008.53137589 1035.55235602 2027.16244116 1037.22314453 2044.28710938 C1038.61665736 2065.34269503 1032.90759306 2085.70377516 1018.98046875 2101.83984375 C1018.00013672 2102.90912109 1018.00013672 2102.90912109 1017 2104 C1016.39800781 2104.68191406 1015.79601562 2105.36382813 1015.17578125 2106.06640625 C1007.41717928 2114.37803225 997.82313964 2120.29091537 987.75 2125.375 C987.11320313 2125.69662109 986.47640625 2126.01824219 985.8203125 2126.34960938 C981.01742564 2128.68681667 976.09548021 2130.41151265 971 2132 C970.70866587 2136.20686484 970.53173221 2140.41114261 970.375 2144.625 C970.29121094 2145.81480469 970.20742188 2147.00460938 970.12109375 2148.23046875 C970.02319742 2151.73515724 970.07734232 2154.61361379 971 2158 C973.92598722 2160.96934314 977.19275713 2162.39876509 981 2164 C982.36061818 2164.72944859 983.71323169 2165.47416516 985.0546875 2166.23828125 C985.68294434 2166.57859375 986.31120117 2166.91890625 986.95849609 2167.26953125 C998.88200048 2173.75834791 1009.09504527 2181.70111767 1019 2191 C1019.92039062 2191.80630859 1019.92039062 2191.80630859 1020.859375 2192.62890625 C1032.91065857 2203.65748915 1041.50543949 2221.20419811 1042.3359375 2237.5078125 C1042.85061639 2263.5858087 1031.65677026 2284.49050082 1013.8984375 2303.09375 C1002.08027056 2315.12621547 987.73634281 2323.98911203 973 2332 C973.34562624 2333.86602039 973.69221194 2335.73186304 974.0390625 2337.59765625 C974.15361786 2338.22360184 974.26817322 2338.84954742 974.38619995 2339.49446106 C975.09057478 2343.31248699 975.84139133 2347.11529408 976.65039062 2350.91259766 C978.57768584 2360.1785148 980.10994799 2369.29557456 980.8498888 2378.74110126 C985.08781846 2432.38497658 1006.78867875 2460.01215687 1047.18641663 2494.64105225 C1048.96351951 2496.1576446 1050.74405496 2497.66931674 1052.53540802 2499.16905022 C1076.82937708 2519.58291258 1093.20056627 2546.61564841 1101.01171875 2577.14453125 C1101.30524231 2578.2855127 1101.59876587 2579.42649414 1101.90118408 2580.60205078 C1106.67990452 2599.39252063 1111.04393424 2618.28714712 1115.46792603 2637.16345215 C1116.2614594 2640.54888901 1117.05581403 2643.93413232 1117.8503418 2647.31933594 C1121.57921465 2663.21001918 1125.29425001 2679.10390945 1129 2695 C1129.2247702 2695.9638562 1129.44954041 2696.9277124 1129.68112183 2697.92077637 C1150.81494726 2788.55953874 1170.41066034 2879.54861197 1189.50449371 2970.63681793 C1189.99362474 2972.96959495 1190.48315274 2975.30228828 1190.97283936 2977.63494873 C1201.83640872 3029.38467622 1212.4700052 3081.18144152 1223 3133 C1223.23081772 3134.13560112 1223.46163544 3135.27120224 1223.69944763 3136.44121552 C1235.75081451 3195.73592718 1247.70369268 3255.04928395 1259.30290222 3314.43431473 C1259.98337967 3317.91498632 1260.66578723 3321.39527403 1261.34875488 3324.87545776 C1266.11730375 3349.19152752 1270.70364334 3373.53064928 1274.94140625 3397.9453125 C1275.12748947 3399.01328064 1275.31357269 3400.08124878 1275.5052948 3401.18157959 C1280.1584819 3427.96722519 1283.95832171 3454.8791988 1286 3482 C1286.33 3482 1286.66 3482 1287 3482 C1287 2334.26 1287 1186.52 1287 4 C863.61 4 440.22 4 4 4 Z " fill="#FDFDFD" transform="translate(0,0)"/>
<path d="M0 0 C426.03 0 852.06 0 1291 0 C1291 1311.75 1291 2623.5 1291 3975 C864.97 3975 438.94 3975 0 3975 C0 2663.25 0 1351.5 0 0 Z M4 4 C4 1313.11 4 2622.22 4 3971 C427.39 3971 850.78 3971 1287 3971 C1287 3834.71 1287 3698.42 1287 3558 C1286.67 3558 1286.34 3558 1286 3558 C1285.90295776 3558.86443726 1285.90295776 3558.86443726 1285.80395508 3559.74633789 C1279.13831067 3617.78035611 1258.57354529 3675.87268758 1212.25 3714.0625 C1139.0202513 3770.44706689 1038.2258823 3778.73644975 949 3784 C948.17556396 3784.04878296 947.35112793 3784.09756592 946.50170898 3784.14782715 C857.97978606 3789.32662007 769.15807167 3787.44934811 220 3689 C219.0920166 3688.58927246 218.1840332 3688.17854492 217.24853516 3687.75537109 C203.03710732 3681.29373855 189.47398495 3673.87450627 176 3666 C175.24895996 3665.56236328 174.49791992 3665.12472656 173.72412109 3664.67382812 C151.04253129 3651.40974052 129.24273873 3636.00726708 110.1328125 3617.921875 C107.85066054 3615.76327199 105.5025805 3613.70390654 103.1171875 3611.66015625 C98.8100451 3607.91075854 94.89064228 3603.86284642 91 3599.6875 C90.29504395 3598.93259277 89.59008789 3598.17768555 88.86376953 3597.39990234 C83.96753729 3592.11996352 79.30862566 3586.77403624 75 3581 C74.49259277 3580.33274902 73.98518555 3579.66549805 73.46240234 3578.97802734 C65.62014557 3568.65950116 58.43903922 3558.24235477 52 3547 C51.13375 3545.60394531 51.13375 3545.60394531 50.25 3544.1796875 C1.31183471 3464.65516891 3.73415688 3360.35674866 29.625 3221.375 C53.30789151 3122.42384038 90.4777985 3027.07621195 165 2854 C165.50418457 2852.87078125 166.00836914 2851.7415625 166.52783203 2850.578125 C182.7710049 2814.20150148 199.31886721 2777.96051549 216.11404419 2741.83551025 C219.72888331 2734.05933946 223.33026188 2726.27700805 226.92431641 2718.49121094 C228.1767609 2715.77854183 229.43305033 2713.06778203 230.69677734 2710.36035156 C238.93845837 2692.65560292 245.9175763 2674.51305317 252.91943359 2656.29223633 C259.29406293 2639.71685318 265.93497527 2623.29307333 273 2607 C273.40863281 2606.05044434 273.81726563 2605.10088867 274.23828125 2604.12255859 C285.05188006 2579.08220584 297.88382138 2555.3122083 315 2534 C316.08529508 2532.58483565 317.16876959 2531.16827231 318.25 2529.75 C323.47587564 2523.03809337 328.95481358 2516.52546105 334.37402344 2509.96972656 C336.42402348 2507.48633312 338.4633376 2504.99433935 340.5 2502.5 C344.32120454 2497.8233019 348.15937666 2493.16074852 352 2488.5 C356.64605388 2482.86149516 361.28774726 2477.21970625 365.90625 2471.55859375 C367.40002939 2469.73317305 368.90080938 2467.91347181 370.40625 2466.09765625 C371.59734375 2464.65712891 371.59734375 2464.65712891 372.8125 2463.1875 C373.52019531 2462.33542969 374.22789062 2461.48335937 374.95703125 2460.60546875 C377.14111504 2457.82003111 379.07251194 2454.96703218 381 2452 C380.05640625 2450.29070313 380.05640625 2450.29070313 379.09375 2448.546875 C367.343115 2426.95061472 355.36472888 2403.495303 362.15673828 2378.47900391 C364.55657647 2370.47886246 368.84761292 2364.56644545 375 2359 C375.80824219 2358.22076172 375.80824219 2358.22076172 376.6328125 2357.42578125 C389.53117189 2345.41789437 406.68881496 2338.11669439 423 2332 C423.33 2298.67 423.66 2265.34 424 2231 C419.38 2229.68 414.76 2228.36 410 2227 C387.45942545 2218.43458167 369.83954437 2203.70099787 359 2182 C351.77745315 2165.8024686 348.60266169 2146.10364723 353.90234375 2128.82421875 C361.6238894 2108.95703903 373.72172132 2097.51734295 393 2089 C400.47636792 2086.06552559 408.02116615 2084.5861235 415.92578125 2083.390625 C417.23899353 2083.18783936 417.23899353 2083.18783936 418.57873535 2082.98095703 C420.71869263 2082.65094656 422.85928371 2082.32505048 425 2082 C425.40779663 2074.22799494 425.6866696 2066.4587647 425.87890625 2058.6784668 C425.95906966 2056.03646824 426.06804677 2053.39517312 426.20703125 2050.75561523 C427.54928381 2036.71321307 427.54928381 2036.71321307 423.47259521 2023.75622559 C419.78822094 2020.18376458 415.62860415 2017.97913211 410.95848083 2015.94203186 C407.94989375 2014.49489751 405.66173295 2012.53727998 403.125 2010.375 C401.83142578 2009.28251953 401.83142578 2009.28251953 400.51171875 2008.16796875 C399.68285156 2007.45253906 398.85398437 2006.73710938 398 2006 C396.74123047 2004.94232422 396.74123047 2004.94232422 395.45703125 2003.86328125 C381.73922386 1992.01705068 368.58554984 1975.74324113 366.8125 1957.02001953 C365.68967695 1941.40927034 368.86782311 1928.31113966 379 1916 C379.85271484 1914.92298828 379.85271484 1914.92298828 380.72265625 1913.82421875 C392.46244661 1899.62415341 410.34016127 1892.66393549 427 1886 C427 1872.8 427 1859.6 427 1846 C423.04 1844.35 419.08 1842.7 415 1841 C395.49924281 1832.53826793 380.60441258 1818.52054789 372.64453125 1798.609375 C366.60541574 1780.90626383 367.4644084 1762.99683551 375.4375 1746.0625 C385.78934313 1725.42016891 405.71206104 1713.85293738 425.76953125 1704.12890625 C427.91568621 1703.18817492 427.91568621 1703.18817492 429 1702 C429.82792051 1695.38358099 429.82896126 1688.6247419 430.00927734 1681.96606445 C430.08592385 1679.711784 430.19489802 1677.45835237 430.33740234 1675.20727539 C431.58211458 1662.98515175 431.58211458 1662.98515175 427.38308716 1652.03775024 C423.36110959 1648.77208272 418.91910708 1646.81190604 414.12554932 1644.93934631 C408.44405638 1642.42851798 403.73217121 1637.9515445 399 1634 C398.48598633 1633.57638184 397.97197266 1633.15276367 397.44238281 1632.71630859 C382.92608892 1620.63151666 370.56266711 1603.95493812 368.78027344 1584.6159668 C368.2609314 1573.83307316 368.7428749 1564.068661 373 1554 C373.350625 1553.14535156 373.70125 1552.29070312 374.0625 1551.41015625 C383.31800609 1531.06732517 403.02160046 1514.94827547 423.00390625 1505.59375 C425.74498908 1504.252452 427.77387544 1503.08597324 430 1501 C430.73225584 1498.49756717 430.73225584 1498.49756717 430.76171875 1495.65625 C430.81473145 1494.58922852 430.86774414 1493.52220703 430.92236328 1492.42285156 C431.05225427 1486.6962111 431.1046178 1480.9780204 431.0625 1475.25 C431.05573242 1473.47109375 431.05573242 1473.47109375 431.04882812 1471.65625 C431.03719316 1468.77077772 431.0208484 1465.88541787 431 1463 C424.97543762 1459.94646458 424.97543762 1459.94646458 418.8125 1457.1875 C394.41293125 1446.37119633 372.93157731 1428.68046845 362.5625 1403.5625 C356.11729412 1385.96635554 354.58697366 1367.62002005 362 1350 C368.03631093 1337.48837371 376.84554819 1328.12889789 388 1320 C388.64453125 1319.52820312 389.2890625 1319.05640625 389.953125 1318.5703125 C402.83272543 1309.85764162 418.89572317 1307.07074763 434 1305 C434.16435547 1304.13556274 434.16435547 1304.13556274 434.33203125 1303.25366211 C440.87977084 1269.50685184 453.72043116 1238.21805317 475 1211 C475.62003906 1210.18917969 476.24007813 1209.37835937 476.87890625 1208.54296875 C492.83595038 1188.07282123 512.29595022 1170.68674109 535 1158 C535.79196777 1157.55688477 536.58393555 1157.11376953 537.39990234 1156.65722656 C612.6699019 1115.0244206 705.73780317 1109.49140692 787.92358398 1132.54492188 C806.52920308 1137.99706713 824.52318369 1144.61220107 842 1153 C843.39703926 1153.65254964 844.79417156 1154.30490016 846.19140625 1154.95703125 C866.99670832 1164.83589835 886.09726694 1178.66211257 902.61279297 1194.6640625 C903.8404532 1195.84634986 905.09238411 1197.00332118 906.34765625 1198.15625 C959.18993464 1248.02555084 963.34708055 1325.33434492 968 1393 C968.97195564 1393.32816711 968.97195564 1393.32816711 969.96354675 1393.66296387 C972.95048481 1394.67539165 975.93420454 1395.69700815 978.91796875 1396.71875 C979.93693237 1397.06260742 980.955896 1397.40646484 982.0057373 1397.76074219 C995.47634536 1402.39185269 1007.26221939 1408.57416627 1018 1418 C1018.83402344 1418.64582031 1019.66804687 1419.29164062 1020.52734375 1419.95703125 C1032.22615523 1429.62287391 1039.36392809 1444.57896904 1043 1459 C1043.1743457 1459.62011963 1043.34869141 1460.24023926 1043.52832031 1460.87915039 C1047.27846008 1477.74119187 1043.34640758 1496.32758477 1034.25 1510.71484375 C1023.80641204 1525.96320743 1010.30380183 1534.18700407 993 1540 C985.74 1541.32 978.48 1542.64 971 1544 C971 1564.46 971 1584.92 971 1606 C977.27 1608.31 983.54 1610.62 990 1613 C999.26015374 1617.52240067 1007.35029035 1622.11118509 1015 1629 C1015.69480469 1629.60199219 1016.38960937 1630.20398437 1017.10546875 1630.82421875 C1026.5267547 1639.51658509 1032.08151068 1650.95897412 1036 1663 C1036.24621094 1663.72058594 1036.49242187 1664.44117188 1036.74609375 1665.18359375 C1041.46039929 1681.86248163 1037.42816192 1700.2754582 1029.37109375 1715.125 C1019.87721111 1731.40252516 1002.83687857 1742.90481921 984.87158203 1747.88012695 C981.9253926 1748.63396765 978.96237506 1749.31297387 976 1750 C973.69 1750.66 971.38 1751.32 969 1752 C969 1764.87 969 1777.74 969 1791 C972.609375 1792.44375 976.21875 1793.8875 979.9375 1795.375 C1003.77713773 1805.17904697 1026.11928966 1818.49579638 1037 1843 C1041.76661288 1857.31616266 1041.02685729 1873.10453637 1034.4855957 1886.7253418 C1022.12415204 1910.55105226 999.7690947 1925.25141087 975 1934 C972.67526823 1934.70611809 970.3440779 1935.35934525 968 1936 C966.7812625 1939.79537631 966.88661872 1943.42791621 966.90234375 1947.390625 C966.9037587 1948.09523865 966.90517365 1948.79985229 966.90663147 1949.52581787 C966.91221067 1951.76725584 966.92475927 1954.00859243 966.9375 1956.25 C966.94251769 1957.77343605 966.94708013 1959.29687368 966.95117188 1960.8203125 C966.96217326 1964.54690772 966.97942354 1968.27344396 967 1972 C968.19753906 1972.4125 969.39507813 1972.825 970.62890625 1973.25 C985.66439523 1978.53701733 998.83909863 1984.47437135 1011 1995 C1012.010625 1995.7425 1013.02125 1996.485 1014.0625 1997.25 C1027.33029756 2008.53137589 1035.55235602 2027.16244116 1037.22314453 2044.28710938 C1038.61665736 2065.34269503 1032.90759306 2085.70377516 1018.98046875 2101.83984375 C1018.00013672 2102.90912109 1018.00013672 2102.90912109 1017 2104 C1016.39800781 2104.68191406 1015.79601562 2105.36382813 1015.17578125 2106.06640625 C1007.41717928 2114.37803225 997.82313964 2120.29091537 987.75 2125.375 C987.11320313 2125.69662109 986.47640625 2126.01824219 985.8203125 2126.34960938 C981.01742564 2128.68681667 976.09548021 2130.41151265 971 2132 C970.70866587 2136.20686484 970.53173221 2140.41114261 970.375 2144.625 C970.29121094 2145.81480469 970.20742188 2147.00460938 970.12109375 2148.23046875 C970.02319742 2151.73515724 970.07734232 2154.61361379 971 2158 C973.92598722 2160.96934314 977.19275713 2162.39876509 981 2164 C982.36061818 2164.72944859 983.71323169 2165.47416516 985.0546875 2166.23828125 C985.68294434 2166.57859375 986.31120117 2166.91890625 986.95849609 2167.26953125 C998.88200048 2173.75834791 1009.09504527 2181.70111767 1019 2191 C1019.92039062 2191.80630859 1019.92039062 2191.80630859 1020.859375 2192.62890625 C1032.91065857 2203.65748915 1041.50543949 2221.20419811 1042.3359375 2237.5078125 C1042.85061639 2263.5858087 1031.65677026 2284.49050082 1013.8984375 2303.09375 C1002.08027056 2315.12621547 987.73634281 2323.98911203 973 2332 C973.34562624 2333.86602039 973.69221194 2335.73186304 974.0390625 2337.59765625 C974.15361786 2338.22360184 974.26817322 2338.84954742 974.38619995 2339.49446106 C975.09057478 2343.31248699 975.84139133 2347.11529408 976.65039062 2350.91259766 C978.57768584 2360.1785148 980.10994799 2369.29557456 980.8498888 2378.74110126 C985.08781846 2432.38497658 1006.78867875 2460.01215687 1047.18641663 2494.64105225 C1048.96351951 2496.1576446 1050.74405496 2497.66931674 1052.53540802 2499.16905022 C1076.82937708 2519.58291258 1093.20056627 2546.61564841 1101.01171875 2577.14453125 C1101.30524231 2578.2855127 1101.59876587 2579.42649414 1101.90118408 2580.60205078 C1106.67990452 2599.39252063 1111.04393424 2618.28714712 1115.46792603 2637.16345215 C1116.2614594 2640.54888901 1117.05581403 2643.93413232 1117.8503418 2647.31933594 C1121.57921465 2663.21001918 1125.29425001 2679.10390945 1129 2695 C1129.2247702 2695.9638562 1129.44954041 2696.9277124 1129.68112183 2697.92077637 C1150.81494726 2788.55953874 1170.41066034 2879.54861197 1189.50449371 2970.63681793 C1189.99362474 2972.96959495 1190.48315274 2975.30228828 1190.97283936 2977.63494873 C1201.83640872 3029.38467622 1212.4700052 3081.18144152 1223 3133 C1223.23081772 3134.13560112 1223.46163544 3135.27120224 1223.69944763 3136.44121552 C1235.75081451 3195.73592718 1247.70369268 3255.04928395 1259.30290222 3314.43431473 C1259.98337967 3317.91498632 1260.66578723 3321.39527403 1261.34875488 3324.87545776 C1266.11730375 3349.19152752 1270.70364334 3373.53064928 1274.94140625 3397.9453125 C1275.12748947 3399.01328064 1275.31357269 3400.08124878 1275.5052948 3401.18157959 C1280.1584819 3427.96722519 1283.95832171 3454.8791988 1286 3482 C1286.33 3482 1286.66 3482 1287 3482 C1287 2334.26 1287 1186.52 1287 4 C863.61 4 440.22 4 4 4 Z M349 2541 C348.20962316 2541.6319625 347.41924632 2542.263925 346.60491867 2542.91503789 C311.60888431 2571.34458905 295.24176852 2626.44224713 279.79296875 2666.99609375 C271.82925048 2687.89247533 263.54687503 2708.45545395 254.0234375 2728.69091797 C251.80787662 2733.40048406 249.62171196 2738.12348662 247.4375 2742.84765625 C246.6418005 2744.56805059 245.84606449 2746.28842804 245.05029297 2748.00878906 C244.65114685 2748.87169556 244.25200073 2749.73460205 243.84075928 2750.62365723 C242.22003691 2754.12482111 240.59581296 2757.62435472 238.97140503 2761.12380981 C225.14854144 2790.90273573 211.52900969 2820.77174476 198.03649902 2850.70172119 C197.08282231 2852.81635414 196.12811833 2854.93051856 195.17285156 2857.04443359 C151.4497852 2953.81519311 108.92109709 3052.29085014 78 3154 C77.77489746 3154.73734375 77.54979492 3155.4746875 77.31787109 3156.234375 C75.8278703 3161.1420861 74.40103546 3166.06623491 73 3171 C72.62391602 3172.31943604 72.62391602 3172.31943604 72.24023438 3173.66552734 C70.45084194 3179.95722758 68.69080091 3186.25664516 66.95019531 3192.56201172 C66.31468989 3194.86139182 65.67599653 3197.15989312 65.03417969 3199.45751953 C55.29856138 3234.39606201 47.58199925 3269.90666874 43.36767578 3305.94580078 C42.99655889 3309.0285845 42.59495164 3312.10593736 42.18359375 3315.18359375 C42.04832275 3316.21049316 41.91305176 3317.23739258 41.77368164 3318.29541016 C41.52156666 3320.20333231 41.26483755 3322.1106554 41.00170898 3324.01708984 C38.78117622 3341.12148391 38.72833772 3358.46636707 38.6875 3375.6875 C38.68488159 3376.7562738 38.68226318 3377.82504761 38.67956543 3378.9262085 C38.67477524 3397.29352081 39.97197646 3414.87376915 43 3433 C43.33976394 3435.18731049 43.67834436 3437.37480521 44.015625 3439.5625 C45.53685338 3449.13076229 47.2704552 3458.57929957 50.28515625 3467.80566406 C50.83623297 3469.49728893 51.37566905 3471.19270894 51.91015625 3472.88964844 C61.53836911 3503.43085215 74.60846756 3531.36016562 94 3557 C95.07701172 3558.42505859 95.07701172 3558.42505859 96.17578125 3559.87890625 C100.3992153 3565.2872717 104.9696539 3570.35294995 109.6171875 3575.3984375 C111.68085409 3577.65155544 113.69417578 3579.93488353 115.6875 3582.25 C120.61566639 3587.90357406 125.91679193 3593.05762825 131.60546875 3597.94140625 C133.41353618 3599.49581332 135.20501308 3601.06954755 136.98828125 3602.65234375 C146.19610619 3610.77281248 155.92553501 3617.99325498 166 3625 C166.64582031 3625.45117188 167.29164063 3625.90234375 167.95703125 3626.3671875 C177.53555999 3633.02174431 187.49530189 3638.93181578 197.64746094 3644.66503906 C199.84992575 3645.91483956 202.03930011 3647.18477736 204.2265625 3648.4609375 C234.64157782 3666.02008498 267.89555355 3678.57818151 301 3690 C301.89106445 3690.30808594 302.78212891 3690.61617187 303.70019531 3690.93359375 C322.51954229 3697.40810551 341.62343944 3702.52958299 360.90254211 3707.43113708 C364.4226436 3708.32905331 367.93601729 3709.2474832 371.44335938 3710.1940918 C383.47249703 3713.43292571 395.56367903 3716.23045817 407.75 3718.8125 C408.75589172 3719.02621246 409.76178345 3719.23992493 410.79815674 3719.46011353 C507.35846203 3739.87925344 606.90605328 3750.04189402 705.42138672 3754.4050293 C706.18767899 3754.43927002 706.95397125 3754.47351074 707.7434845 3754.50878906 C709.76448643 3754.5976866 711.78567861 3754.68223092 713.80688477 3754.76635742 C717.11709801 3754.92705209 720.41041172 3755.20073894 723.71166992 3755.49121094 C730.02819783 3756.0306124 736.33694878 3756.31694805 742.671875 3756.53515625 C743.90355408 3756.57826935 745.13523315 3756.62138245 746.40423584 3756.665802 C750.51930261 3756.80490044 754.63453804 3756.93576948 758.75 3757.0625 C759.46292206 3757.08471745 760.17584412 3757.10693489 760.91036987 3757.12982559 C789.0495681 3757.99949428 817.18230938 3758.19385492 845.33375549 3758.18803024 C848.46709323 3758.18750551 851.60042721 3758.18866555 854.73376465 3758.18997192 C892.3198542 3758.58760627 892.3198542 3758.58760627 929.78761292 3756.21655273 C932.81282295 3755.92043931 935.83043533 3755.84210395 938.86767578 3755.76049805 C976.00440392 3754.70559764 1014.67258969 3751.07960859 1051.26074219 3744.4921875 C1054.05298469 3743.99047976 1056.84777126 3743.50434659 1059.64289856 3743.01901245 C1112.14747931 3733.87805165 1163.4754917 3719.75234964 1203 3682 C1203.86625 3681.18660156 1204.7325 3680.37320313 1205.625 3679.53515625 C1230.97427315 3655.09687261 1245.51086001 3620.09947383 1252.75 3586.125 C1252.9365918 3585.25447998 1253.12318359 3584.38395996 1253.31542969 3583.48706055 C1253.94405049 3580.33295284 1254.48396566 3577.17467841 1255 3574 C1255.12634827 3573.22669342 1255.25269653 3572.45338684 1255.38287354 3571.65664673 C1257.91501916 3555.71376554 1258.48149669 3540.06007697 1258.375 3523.9375 C1258.3713443 3522.72431091 1258.3676886 3521.51112183 1258.36392212 3520.26116943 C1258.30912193 3504.67926458 1257.94565518 3489.15906317 1256.6875 3473.625 C1256.59949127 3472.52271561 1256.59949127 3472.52271561 1256.50970459 3471.39816284 C1255.71915651 3461.86513878 1254.32316262 3452.49826426 1252.68920898 3443.07617188 C1251.85177632 3438.2145666 1251.25606796 3433.33670865 1250.6875 3428.4375 C1248.98209265 3414.77451883 1246.43035553 3401.27174774 1243.88769531 3387.74609375 C1243.14454108 3383.785872 1242.41731942 3379.82291761 1241.69512939 3375.85882568 C1235.89440031 3344.04900623 1229.52010676 3312.35442485 1223.13151455 3280.6585207 C1222.18803551 3275.97701606 1221.24594089 3271.29523385 1220.3046875 3266.61328125 C1220.02764638 3265.23557588 1220.02764638 3265.23557588 1219.74500847 3263.83003807 C1217.20722111 3251.1950244 1214.75702948 3238.54634637 1212.38671875 3225.87890625 C1209.25112835 3209.12454732 1205.8577413 3192.4302964 1202.37921143 3175.74414062 C1201.04937403 3169.3641552 1199.72412662 3162.98322122 1198.40234375 3156.6015625 C1198.25941706 3155.91223507 1198.11649036 3155.22290764 1197.96923256 3154.5126915 C1195.54322613 3142.79860115 1193.23658663 3131.06367482 1191.00547791 3119.3109436 C1189.62042527 3112.04713526 1188.1157823 3104.82671534 1186.4375 3097.625 C1184.0104278 3087.17564419 1181.89092556 3076.68076233 1179.81884766 3066.15576172 C1178.23291107 3058.10203349 1176.63582458 3050.05052673 1175.03356934 3042.00003052 C1174.45258661 3039.07593123 1173.875159 3036.15114509 1173.29785156 3033.22631836 C1171.33182866 3023.31690062 1169.24192794 3013.45911125 1166.859375 3003.64111328 C1165.72615706 2998.83974613 1164.78364363 2994.00940705 1163.83984375 2989.16796875 C1162.84750744 2984.15722234 1161.72719865 2979.17498048 1160.625 2974.1875 C1158.81680088 2965.98194243 1157.17132649 2957.75864578 1155.625 2949.5 C1153.61293826 2938.82016717 1151.29208322 2928.23145078 1148.86547852 2917.63891602 C1146.33891132 2906.59120389 1143.9317933 2895.51994658 1141.5625 2884.4375 C1141.37174896 2883.54642548 1141.18099792 2882.65535095 1140.98446655 2881.73727417 C1138.96343017 2872.29118832 1136.96064415 2862.84162647 1135 2853.3828125 C1130.91530259 2833.70336006 1126.52934975 2814.11368698 1121.93499756 2794.54679871 C1121.7282843 2793.6663942 1121.52157104 2792.78598969 1121.30859375 2791.87890625 C1121.10526428 2791.01312454 1120.90193481 2790.14734283 1120.69244385 2789.25532532 C1119.05421116 2782.26512099 1117.47733448 2775.26255591 1115.9375 2768.25 C1110.15896911 2741.97267348 1103.965377 2715.78523151 1097.83837891 2689.58740234 C1096.98844027 2685.95053621 1096.14040342 2682.3132316 1095.29296875 2678.67578125 C1092.89305792 2668.37647528 1090.49296636 2658.07729747 1088.0625 2647.78515625 C1087.73079125 2646.37980215 1087.39908554 2644.97444732 1087.06738281 2643.5690918 C1086.56540763 2641.44235203 1086.06324653 2639.31565723 1085.5604248 2637.18911743 C1083.63031147 2629.02291989 1081.73127525 2620.85092488 1079.890625 2612.6640625 C1079.71587143 2611.8893309 1079.54111786 2611.1145993 1079.36106873 2610.31639099 C1078.52640269 2606.615774 1077.69659745 2602.91423223 1076.87719727 2599.21020508 C1075.26905752 2592.0184408 1073.47857361 2584.91028618 1071.41015625 2577.8359375 C1071.2063887 2577.13726059 1071.00262115 2576.43858368 1070.79267883 2575.71873474 C1069.04069474 2569.85893528 1066.83517783 2564.41187792 1064 2559 C1063.47535156 2557.99195312 1062.95070313 2556.98390625 1062.41015625 2555.9453125 C1058.7939803 2549.36895624 1054.91188413 2543.69918995 1049 2539 C1048.48352236 2538.58789055 1047.96704473 2538.17578111 1047.43491625 2537.75118349 C1041.52374926 2533.52258864 1036.51325631 2533.29113102 1029.39250374 2533.36520767 C1028.2347981 2533.35734128 1027.07709245 2533.34947488 1025.88430482 2533.34137011 C1022.6743314 2533.32462194 1019.46529771 2533.33019877 1016.2553448 2533.34525951 C1012.76191841 2533.35614995 1009.26862091 2533.33806615 1005.77522361 2533.32371116 C999.65372306 2533.30257692 993.53243388 2533.30005997 987.41090775 2533.30976486 C978.30795521 2533.32415805 969.20520191 2533.31003989 960.10226727 2533.29039069 C942.89904642 2533.25432355 925.69592093 2533.25204163 908.49267186 2533.26001683 C895.2091832 2533.26597261 881.92572483 2533.26275851 868.64223862 2533.25304413 C866.73433436 2533.25168487 864.8264301 2533.25032769 862.91852584 2533.24897258 C860.04355743 2533.24692015 857.16858902 2533.24486161 854.29362064 2533.24278099 C827.56101043 2533.22364376 800.82841179 2533.21458795 774.09579659 2533.22665787 C773.0878662 2533.22711142 772.07993582 2533.22756497 771.04146209 2533.22803226 C762.85612248 2533.23177232 754.670783 2533.23577227 746.48544352 2533.23979373 C714.55582768 2533.25525429 682.62636825 2533.23896646 650.69677734 2533.19726562 C614.82982967 2533.15048912 578.96297731 2533.12689872 543.09599769 2533.13802886 C539.27246278 2533.13914028 535.44892786 2533.14017622 531.62539291 2533.14116669 C530.21319932 2533.1415575 530.21319932 2533.1415575 528.77247657 2533.1419562 C514.55374591 2533.14542676 500.33510693 2533.13079092 486.11639786 2533.10706329 C469.94789855 2533.08012098 453.77960858 2533.07767153 437.61111058 2533.10792437 C428.56144407 2533.12413471 419.51227083 2533.12101065 410.4626399 2533.09010117 C404.41788777 2533.07139335 398.37350938 2533.07812866 392.32879142 2533.10555647 C388.88438581 2533.12047273 385.44094617 2533.12440494 381.99659218 2533.09742382 C378.28321316 2533.07424177 374.57244733 2533.09406469 370.85917854 2533.12469864 C369.26076853 2533.09925885 369.26076853 2533.09925885 367.63006741 2533.07330513 C359.61062366 2533.21000487 355.06553465 2535.91028264 349 2541 Z " fill="#B7B7B8" transform="translate(0,0)"/>
<path d="M0 0 C426.03 0 852.06 0 1291 0 C1291 1311.75 1291 2623.5 1291 3975 C864.97 3975 438.94 3975 0 3975 C0 2663.25 0 1351.5 0 0 Z M4 4 C4 1313.11 4 2622.22 4 3971 C427.39 3971 850.78 3971 1287 3971 C1287 3834.71 1287 3698.42 1287 3558 C1286.67 3558 1286.34 3558 1286 3558 C1285.90295776 3558.86443726 1285.90295776 3558.86443726 1285.80395508 3559.74633789 C1279.13831067 3617.78035611 1258.57354529 3675.87268758 1212.25 3714.0625 C1139.0202513 3770.44706689 1038.2258823 3778.73644975 949 3784 C948.17556396 3784.04878296 947.35112793 3784.09756592 946.50170898 3784.14782715 C857.97978606 3789.32662007 769.15807167 3787.44934811 220 3689 C219.0920166 3688.58927246 218.1840332 3688.17854492 217.24853516 3687.75537109 C203.03710732 3681.29373855 189.47398495 3673.87450627 176 3666 C175.24895996 3665.56236328 174.49791992 3665.12472656 173.72412109 3664.67382812 C151.04253129 3651.40974052 129.24273873 3636.00726708 110.1328125 3617.921875 C107.85066054 3615.76327199 105.5025805 3613.70390654 103.1171875 3611.66015625 C98.8100451 3607.91075854 94.89064228 3603.86284642 91 3599.6875 C90.29504395 3598.93259277 89.59008789 3598.17768555 88.86376953 3597.39990234 C83.96753729 3592.11996352 79.30862566 3586.77403624 75 3581 C74.49259277 3580.33274902 73.98518555 3579.66549805 73.46240234 3578.97802734 C65.62014557 3568.65950116 58.43903922 3558.24235477 52 3547 C51.13375 3545.60394531 51.13375 3545.60394531 50.25 3544.1796875 C1.31183471 3464.65516891 3.73415688 3360.35674866 29.625 3221.375 C53.30789151 3122.42384038 90.4777985 3027.07621195 165 2854 C165.50418457 2852.87078125 166.00836914 2851.7415625 166.52783203 2850.578125 C182.7710049 2814.20150148 199.31886721 2777.96051549 216.11404419 2741.83551025 C219.72888331 2734.05933946 223.33026188 2726.27700805 226.92431641 2718.49121094 C228.1767609 2715.77854183 229.43305033 2713.06778203 230.69677734 2710.36035156 C238.93845837 2692.65560292 245.9175763 2674.51305317 252.91943359 2656.29223633 C259.29406293 2639.71685318 265.93497527 2623.29307333 273 2607 C273.40863281 2606.05044434 273.81726563 2605.10088867 274.23828125 2604.12255859 C285.05188006 2579.08220584 297.88382138 2555.3122083 315 2534 C316.08529508 2532.58483565 317.16876959 2531.16827231 318.25 2529.75 C323.47587564 2523.03809337 328.95481358 2516.52546105 334.37402344 2509.96972656 C336.42402348 2507.48633312 338.4633376 2504.99433935 340.5 2502.5 C344.32120454 2497.8233019 348.15937666 2493.16074852 352 2488.5 C356.64605388 2482.86149516 361.28774726 2477.21970625 365.90625 2471.55859375 C367.40002939 2469.73317305 368.90080938 2467.91347181 370.40625 2466.09765625 C371.59734375 2464.65712891 371.59734375 2464.65712891 372.8125 2463.1875 C373.52019531 2462.33542969 374.22789062 2461.48335937 374.95703125 2460.60546875 C377.14111504 2457.82003111 379.07251194 2454.96703218 381 2452 C380.05640625 2450.29070313 380.05640625 2450.29070313 379.09375 2448.546875 C367.343115 2426.95061472 355.36472888 2403.495303 362.15673828 2378.47900391 C364.55657647 2370.47886246 368.84761292 2364.56644545 375 2359 C375.80824219 2358.22076172 375.80824219 2358.22076172 376.6328125 2357.42578125 C389.53117189 2345.41789437 406.68881496 2338.11669439 423 2332 C423.33 2298.67 423.66 2265.34 424 2231 C419.38 2229.68 414.76 2228.36 410 2227 C387.45942545 2218.43458167 369.83954437 2203.70099787 359 2182 C351.77745315 2165.8024686 348.60266169 2146.10364723 353.90234375 2128.82421875 C361.6238894 2108.95703903 373.72172132 2097.51734295 393 2089 C400.47636792 2086.06552559 408.02116615 2084.5861235 415.92578125 2083.390625 C417.23899353 2083.18783936 417.23899353 2083.18783936 418.57873535 2082.98095703 C420.71869263 2082.65094656 422.85928371 2082.32505048 425 2082 C425.40779663 2074.22799494 425.6866696 2066.4587647 425.87890625 2058.6784668 C425.95906966 2056.03646824 426.06804677 2053.39517312 426.20703125 2050.75561523 C427.54928381 2036.71321307 427.54928381 2036.71321307 423.47259521 2023.75622559 C419.78822094 2020.18376458 415.62860415 2017.97913211 410.95848083 2015.94203186 C407.94989375 2014.49489751 405.66173295 2012.53727998 403.125 2010.375 C401.83142578 2009.28251953 401.83142578 2009.28251953 400.51171875 2008.16796875 C399.68285156 2007.45253906 398.85398437 2006.73710938 398 2006 C396.74123047 2004.94232422 396.74123047 2004.94232422 395.45703125 2003.86328125 C381.73922386 1992.01705068 368.58554984 1975.74324113 366.8125 1957.02001953 C365.68967695 1941.40927034 368.86782311 1928.31113966 379 1916 C379.85271484 1914.92298828 379.85271484 1914.92298828 380.72265625 1913.82421875 C392.46244661 1899.62415341 410.34016127 1892.66393549 427 1886 C427 1872.8 427 1859.6 427 1846 C423.04 1844.35 419.08 1842.7 415 1841 C395.49924281 1832.53826793 380.60441258 1818.52054789 372.64453125 1798.609375 C366.60541574 1780.90626383 367.4644084 1762.99683551 375.4375 1746.0625 C385.78934313 1725.42016891 405.71206104 1713.85293738 425.76953125 1704.12890625 C427.91568621 1703.18817492 427.91568621 1703.18817492 429 1702 C429.82792051 1695.38358099 429.82896126 1688.6247419 430.00927734 1681.96606445 C430.08592385 1679.711784 430.19489802 1677.45835237 430.33740234 1675.20727539 C431.58211458 1662.98515175 431.58211458 1662.98515175 427.38308716 1652.03775024 C423.36110959 1648.77208272 418.91910708 1646.81190604 414.12554932 1644.93934631 C408.44405638 1642.42851798 403.73217121 1637.9515445 399 1634 C398.48598633 1633.57638184 397.97197266 1633.15276367 397.44238281 1632.71630859 C382.92608892 1620.63151666 370.56266711 1603.95493812 368.78027344 1584.6159668 C368.2609314 1573.83307316 368.7428749 1564.068661 373 1554 C373.350625 1553.14535156 373.70125 1552.29070312 374.0625 1551.41015625 C383.31800609 1531.06732517 403.02160046 1514.94827547 423.00390625 1505.59375 C425.74498908 1504.252452 427.77387544 1503.08597324 430 1501 C430.73225584 1498.49756717 430.73225584 1498.49756717 430.76171875 1495.65625 C430.81473145 1494.58922852 430.86774414 1493.52220703 430.92236328 1492.42285156 C431.05225427 1486.6962111 431.1046178 1480.9780204 431.0625 1475.25 C431.05573242 1473.47109375 431.05573242 1473.47109375 431.04882812 1471.65625 C431.03719316 1468.77077772 431.0208484 1465.88541787 431 1463 C424.97543762 1459.94646458 424.97543762 1459.94646458 418.8125 1457.1875 C394.41293125 1446.37119633 372.93157731 1428.68046845 362.5625 1403.5625 C356.11729412 1385.96635554 354.58697366 1367.62002005 362 1350 C368.03631093 1337.48837371 376.84554819 1328.12889789 388 1320 C388.64453125 1319.52820312 389.2890625 1319.05640625 389.953125 1318.5703125 C402.83272543 1309.85764162 418.89572317 1307.07074763 434 1305 C434.16435547 1304.13556274 434.16435547 1304.13556274 434.33203125 1303.25366211 C440.87977084 1269.50685184 453.72043116 1238.21805317 475 1211 C475.62003906 1210.18917969 476.24007813 1209.37835937 476.87890625 1208.54296875 C492.83595038 1188.07282123 512.29595022 1170.68674109 535 1158 C535.79196777 1157.55688477 536.58393555 1157.11376953 537.39990234 1156.65722656 C612.6699019 1115.0244206 705.73780317 1109.49140692 787.92358398 1132.54492188 C806.52920308 1137.99706713 824.52318369 1144.61220107 842 1153 C843.39703926 1153.65254964 844.79417156 1154.30490016 846.19140625 1154.95703125 C866.99670832 1164.83589835 886.09726694 1178.66211257 902.61279297 1194.6640625 C903.8404532 1195.84634986 905.09238411 1197.00332118 906.34765625 1198.15625 C959.18993464 1248.02555084 963.34708055 1325.33434492 968 1393 C968.97195564 1393.32816711 968.97195564 1393.32816711 969.96354675 1393.66296387 C972.95048481 1394.67539165 975.93420454 1395.69700815 978.91796875 1396.71875 C979.93693237 1397.06260742 980.955896 1397.40646484 982.0057373 1397.76074219 C995.47634536 1402.39185269 1007.26221939 1408.57416627 1018 1418 C1018.83402344 1418.64582031 1019.66804687 1419.29164062 1020.52734375 1419.95703125 C1032.22615523 1429.62287391 1039.36392809 1444.57896904 1043 1459 C1043.1743457 1459.62011963 1043.34869141 1460.24023926 1043.52832031 1460.87915039 C1047.27846008 1477.74119187 1043.34640758 1496.32758477 1034.25 1510.71484375 C1023.80641204 1525.96320743 1010.30380183 1534.18700407 993 1540 C985.74 1541.32 978.48 1542.64 971 1544 C971 1564.46 971 1584.92 971 1606 C977.27 1608.31 983.54 1610.62 990 1613 C999.26015374 1617.52240067 1007.35029035 1622.11118509 1015 1629 C1015.69480469 1629.60199219 1016.38960937 1630.20398437 1017.10546875 1630.82421875 C1026.5267547 1639.51658509 1032.08151068 1650.95897412 1036 1663 C1036.24621094 1663.72058594 1036.49242187 1664.44117188 1036.74609375 1665.18359375 C1041.46039929 1681.86248163 1037.42816192 1700.2754582 1029.37109375 1715.125 C1019.87721111 1731.40252516 1002.83687857 1742.90481921 984.87158203 1747.88012695 C981.9253926 1748.63396765 978.96237506 1749.31297387 976 1750 C973.69 1750.66 971.38 1751.32 969 1752 C969 1764.87 969 1777.74 969 1791 C972.609375 1792.44375 976.21875 1793.8875 979.9375 1795.375 C1003.77713773 1805.17904697 1026.11928966 1818.49579638 1037 1843 C1041.76661288 1857.31616266 1041.02685729 1873.10453637 1034.4855957 1886.7253418 C1022.12415204 1910.55105226 999.7690947 1925.25141087 975 1934 C972.67526823 1934.70611809 970.3440779 1935.35934525 968 1936 C966.7812625 1939.79537631 966.88661872 1943.42791621 966.90234375 1947.390625 C966.9037587 1948.09523865 966.90517365 1948.79985229 966.90663147 1949.52581787 C966.91221067 1951.76725584 966.92475927 1954.00859243 966.9375 1956.25 C966.94251769 1957.77343605 966.94708013 1959.29687368 966.95117188 1960.8203125 C966.96217326 1964.54690772 966.97942354 1968.27344396 967 1972 C968.19753906 1972.4125 969.39507813 1972.825 970.62890625 1973.25 C985.66439523 1978.53701733 998.83909863 1984.47437135 1011 1995 C1012.010625 1995.7425 1013.02125 1996.485 1014.0625 1997.25 C1027.33029756 2008.53137589 1035.55235602 2027.16244116 1037.22314453 2044.28710938 C1038.61665736 2065.34269503 1032.90759306 2085.70377516 1018.98046875 2101.83984375 C1018.00013672 2102.90912109 1018.00013672 2102.90912109 1017 2104 C1016.39800781 2104.68191406 1015.79601562 2105.36382813 1015.17578125 2106.06640625 C1007.41717928 2114.37803225 997.82313964 2120.29091537 987.75 2125.375 C987.11320313 2125.69662109 986.47640625 2126.01824219 985.8203125 2126.34960938 C981.01742564 2128.68681667 976.09548021 2130.41151265 971 2132 C970.70866587 2136.20686484 970.53173221 2140.41114261 970.375 2144.625 C970.29121094 2145.81480469 970.20742188 2147.00460938 970.12109375 2148.23046875 C970.02319742 2151.73515724 970.07734232 2154.61361379 971 2158 C973.92598722 2160.96934314 977.19275713 2162.39876509 981 2164 C982.36061818 2164.72944859 983.71323169 2165.47416516 985.0546875 2166.23828125 C985.68294434 2166.57859375 986.31120117 2166.91890625 986.95849609 2167.26953125 C998.88200048 2173.75834791 1009.09504527 2181.70111767 1019 2191 C1019.92039062 2191.80630859 1019.92039062 2191.80630859 1020.859375 2192.62890625 C1032.91065857 2203.65748915 1041.50543949 2221.20419811 1042.3359375 2237.5078125 C1042.85061639 2263.5858087 1031.65677026 2284.49050082 1013.8984375 2303.09375 C1002.08027056 2315.12621547 987.73634281 2323.98911203 973 2332 C973.34562624 2333.86602039 973.69221194 2335.73186304 974.0390625 2337.59765625 C974.15361786 2338.22360184 974.26817322 2338.84954742 974.38619995 2339.49446106 C975.09057478 2343.31248699 975.84139133 2347.11529408 976.65039062 2350.91259766 C978.57768584 2360.1785148 980.10994799 2369.29557456 980.8498888 2378.74110126 C985.08781846 2432.38497658 1006.78867875 2460.01215687 1047.18641663 2494.64105225 C1048.96351951 2496.1576446 1050.74405496 2497.66931674 1052.53540802 2499.16905022 C1076.82937708 2519.58291258 1093.20056627 2546.61564841 1101.01171875 2577.14453125 C1101.30524231 2578.2855127 1101.59876587 2579.42649414 1101.90118408 2580.60205078 C1106.67990452 2599.39252063 1111.04393424 2618.28714712 1115.46792603 2637.16345215 C1116.2614594 2640.54888901 1117.05581403 2643.93413232 1117.8503418 2647.31933594 C1121.57921465 2663.21001918 1125.29425001 2679.10390945 1129 2695 C1129.2247702 2695.9638562 1129.44954041 2696.9277124 1129.68112183 2697.92077637 C1150.81494726 2788.55953874 1170.41066034 2879.54861197 1189.50449371 2970.63681793 C1189.99362474 2972.96959495 1190.48315274 2975.30228828 1190.97283936 2977.63494873 C1201.83640872 3029.38467622 1212.4700052 3081.18144152 1223 3133 C1223.23081772 3134.13560112 1223.46163544 3135.27120224 1223.69944763 3136.44121552 C1235.75081451 3195.73592718 1247.70369268 3255.04928395 1259.30290222 3314.43431473 C1259.98337967 3317.91498632 1260.66578723 3321.39527403 1261.34875488 3324.87545776 C1266.11730375 3349.19152752 1270.70364334 3373.53064928 1274.94140625 3397.9453125 C1275.12748947 3399.01328064 1275.31357269 3400.08124878 1275.5052948 3401.18157959 C1280.1584819 3427.96722519 1283.95832171 3454.8791988 1286 3482 C1286.33 3482 1286.66 3482 1287 3482 C1287 2334.26 1287 1186.52 1287 4 C863.61 4 440.22 4 4 4 Z M520.1875 1204.96875 C518.2010326 1206.81332687 516.15507269 1208.52869021 514.0625 1210.25 C493.63418608 1228.22200363 479.59026008 1254.93454753 470 1280 C469.74734375 1280.64839844 469.4946875 1281.29679687 469.234375 1281.96484375 C463.32813197 1297.48513794 460.52577634 1315.43729941 461 1332 C460.34104736 1332.0501123 459.68209473 1332.10022461 459.00317383 1332.15185547 C428.76732113 1333.50119543 428.76732113 1333.50119543 402 1346 C401.21625 1346.60972656 400.4325 1347.21945312 399.625 1347.84765625 C391.26586816 1354.76318802 387.11562397 1362.52728823 385.7109375 1373.1953125 C384.78460386 1387.96789637 392.81679269 1400.40419544 401.8671875 1411.234375 C416.8468916 1427.30701888 438.46756797 1436.60750755 460 1439 C459.67 1465.73 459.34 1492.46 459 1520 C451.41 1523.63 443.82 1527.26 436 1531 C426.8592643 1536.63564156 418.59008316 1542.40991684 411 1550 C409.90558594 1551.09441406 409.90558594 1551.09441406 408.7890625 1552.2109375 C401.86342304 1559.54851091 397.77324555 1566.10445675 397.375 1576.375 C397.94712124 1590.25940563 404.45164404 1598.69358433 414 1608 C414.79535156 1608.804375 415.59070313 1609.60875 416.41015625 1610.4375 C423.17231032 1616.94000542 430.85724417 1621.46829291 439 1626 C439.6791748 1626.38140137 440.35834961 1626.76280273 441.05810547 1627.15576172 C443.07415082 1628.28236126 445.09715697 1629.39479416 447.125 1630.5 C447.74012451 1630.83845947 448.35524902 1631.17691895 448.98901367 1631.52563477 C452.334696 1633.30953688 455.28360791 1634.34597818 459 1635 C458.97494385 1635.67087646 458.9498877 1636.34175293 458.92407227 1637.03295898 C457.87109024 1666.01264806 457.46475035 1695.00611668 457 1724 C455.19776978 1724.58225342 455.19776978 1724.58225342 453.35913086 1725.17626953 C451.74844935 1725.70318829 450.13785847 1726.23038415 448.52734375 1726.7578125 C447.73952515 1727.01151611 446.95170654 1727.26521973 446.14001465 1727.52661133 C427.93894674 1733.5142349 409.34948704 1743.66218782 399.9375 1761.0625 C396.56023265 1769.45234311 396.04191084 1779.56137053 399.4375 1788.02734375 C405.30785442 1800.72206644 414.83145627 1809.95512049 427.8671875 1815.24609375 C438.69131085 1819.07220329 442.96704493 1818.66352809 457 1820 C456.67 1849.04 456.34 1878.08 456 1908 C448.08 1910.31 440.16 1912.62 432 1915 C411.369928 1923.64370645 411.369928 1923.64370645 396.9765625 1940.2109375 C394.5830153 1947.0469083 394.77360111 1953.61280306 397.23046875 1960.3984375 C407.16063735 1980.2587747 430.78511814 1999.09039045 451.67240906 2007.01374817 C454 2009 454 2009 454.46383095 2010.9143734 C454.66020894 2013.55281875 454.6833876 2016.14986084 454.65942383 2018.7956543 C454.66990753 2019.80071014 454.68039124 2020.80576599 454.69119263 2021.84127808 C454.72003487 2025.16923548 454.7136401 2028.49615829 454.70703125 2031.82421875 C454.72014067 2034.12922984 454.73544254 2036.43422942 454.75285339 2038.73921204 C454.79280435 2044.81049626 454.80290038 2050.88148068 454.80688477 2056.95288086 C454.81619713 2063.14641473 454.85359876 2069.33977103 454.88867188 2075.53320312 C454.95335065 2087.68879372 454.98650638 2099.84425241 455 2112 C453.92218262 2111.97905273 452.84436523 2111.95810547 451.73388672 2111.93652344 C447.66729454 2111.86315458 443.60075848 2111.81785491 439.53369141 2111.78027344 C437.78619493 2111.76037541 436.03876306 2111.73324681 434.29150391 2111.69824219 C419.70370255 2111.41368381 406.47354548 2112.54293617 394 2121 C393.37609375 2121.40605469 392.7521875 2121.81210938 392.109375 2122.23046875 C385.91873435 2126.81961758 381.82737728 2133.55672839 380.66601562 2141.19726562 C379.26210829 2156.6917658 383.3657344 2168.79515681 393 2181 C393.70769531 2181.95326172 393.70769531 2181.95326172 394.4296875 2182.92578125 C403.46821036 2194.4409615 418.47990596 2201.07876417 432.73754883 2202.79931641 C436.65779215 2203.14704922 440.5676277 2203.10412935 444.5 2203.0625 C445.32242188 2203.05798828 446.14484375 2203.05347656 446.9921875 2203.04882812 C448.99482396 2203.03718489 450.99742227 2203.01925556 453 2203 C452.98747192 2203.90579803 452.97494385 2204.81159607 452.96203613 2205.74484253 C452.80117218 2217.45480801 452.64771486 2229.16486126 452.5 2240.875 C452.48218412 2242.2867878 452.48218412 2242.2867878 452.46400833 2243.72709656 C452.12336504 2270.90194844 451.90482543 2298.0729275 451.9375 2325.25 C451.93835602 2325.96731041 451.93921204 2326.68462082 451.94009399 2327.42366791 C451.95106128 2335.94913803 451.97043414 2344.47457341 452 2353 C451.1160833 2353.18563255 451.1160833 2353.18563255 450.21430969 2353.37501526 C443.94988659 2354.72263629 438.15323601 2356.59871535 432.1875 2358.9375 C431.19500244 2359.32647461 430.20250488 2359.71544922 429.17993164 2360.11621094 C406.60385206 2369.0002099 406.60385206 2369.0002099 389.92578125 2385.73046875 C386.12525592 2395.04736839 390.39025914 2404.88780648 393.98144531 2413.640625 C398.05002846 2423.06507071 402.7879137 2432.19789714 407.90234375 2441.09375 C408.36866211 2441.90851807 408.83498047 2442.72328613 409.31542969 2443.56274414 C410.20909467 2445.10948422 411.11668449 2446.64828838 412.04003906 2448.17749023 C414.96524398 2453.2054054 414.96524398 2453.2054054 415.11328125 2456.58984375 C413.49032652 2460.10339838 411.0745727 2462.78689145 408.5 2465.625 C407.39873738 2466.87281413 406.29848604 2468.12152146 405.19921875 2469.37109375 C404.65442871 2469.98581543 404.10963867 2470.60053711 403.54833984 2471.23388672 C400.66442756 2474.52342022 397.92628487 2477.93034932 395.171875 2481.328125 C393.63149969 2483.22311909 392.07804029 2485.10751135 390.515625 2486.984375 C389.70609375 2487.95890625 388.8965625 2488.9334375 388.0625 2489.9375 C386.96615234 2491.25041016 386.96615234 2491.25041016 385.84765625 2492.58984375 C384.2330306 2494.69602562 383.13661153 2496.6235627 382 2499 C426.22004603 2499.01727592 470.44009245 2499.0331729 514.66014099 2499.04234314 C515.32412154 2499.0424812 515.98810209 2499.04261925 516.67220325 2499.04276149 C531.13348845 2499.04576067 545.59477369 2499.04852993 560.05605898 2499.05106533 C567.15708295 2499.05231169 574.2581069 2499.05360838 581.35913086 2499.05493164 C582.4185811 2499.05512778 582.4185811 2499.05512778 583.49943438 2499.05532788 C604.64052955 2499.05926362 625.78162239 2499.06589056 646.92271611 2499.07458849 C679.59395728 2499.08798649 712.26519707 2499.0969319 744.93644118 2499.09761363 C746.27354518 2499.09764205 747.61064919 2499.09767588 748.9477532 2499.09771509 C835.96875845 2499.10023285 922.98307532 2498.87423295 1010 2498 C1009.05748796 2496.89171832 1008.1137187 2495.78450575 1007.16943359 2494.67773438 C1006.6440097 2494.06103882 1006.11858582 2493.44434326 1005.57723999 2492.80895996 C1003.36113925 2490.26728112 1001.0125019 2487.88050043 998.625 2485.5 C997.75101563 2484.6234375 996.87703125 2483.746875 995.9765625 2482.84375 C991.15783272 2478.16383821 986.09049482 2473.82356684 980.74609375 2469.7578125 C966.50624731 2458.19758568 964.24776133 2444.42153966 961.66210938 2427.24853516 C960.87297884 2422.05440509 959.84156145 2416.91459202 958.8059082 2411.76464844 C957.63232316 2405.92023346 956.53001555 2400.06223973 955.41864014 2394.20574951 C954.15849477 2387.56624033 952.89453165 2380.92745495 951.63156128 2374.28848267 C951.29508209 2372.51928609 950.9587569 2370.75006022 950.62258911 2368.98080444 C946.8205487 2348.97311151 942.91948681 2328.98497173 939 2309 C939.57331055 2308.94054199 940.14662109 2308.88108398 940.73730469 2308.81982422 C963.03487825 2306.39150845 977.64625933 2298.27644143 993 2282 C994.2375 2280.824375 994.2375 2280.824375 995.5 2279.625 C1006.70954686 2267.8549758 1013.3933364 2255.9261029 1013.20703125 2239.53125 C1012.50504583 2227.55776278 1005.19779035 2217.3633396 996.68359375 2209.30859375 C983.82269123 2198.24484791 958.65987804 2178 941 2178 C941 2154.9 941 2131.8 941 2108 C944.3 2107.67 947.6 2107.34 951 2107 C969.8388572 2102.9726118 988.53242184 2095.31816746 1000 2079 C1004.88576001 2070.4470991 1008.39043104 2062.7173799 1008.3125 2052.75 C1008.30686035 2051.99710693 1008.3012207 2051.24421387 1008.29541016 2050.46850586 C1008.02063361 2037.8247039 1003.07605447 2028.04645231 994.4375 2018.875 C985.30922539 2010.27102983 975.80121357 2005.62173946 964.0625 2001.625 C963.08651855 2001.29097168 962.11053711 2000.95694336 961.10498047 2000.61279297 C953.25729351 1998.08451312 946.41809921 1997.2025856 938 1996 C938 1967.62 938 1939.24 938 1910 C941.3 1910 944.6 1910 948 1910 C970.67278462 1907.28984207 989.74670301 1897.44937119 1004.53125 1879.91015625 C1007.78832521 1875.67422599 1010.48341617 1871.42413017 1011 1866 C1011.07476563 1865.35417969 1011.14953125 1864.70835937 1011.2265625 1864.04296875 C1011.76033388 1856.02235151 1008.27274796 1849.69992384 1003.5 1843.4375 C990.31809986 1829.18498868 969.84334705 1822.14393399 952 1816 C951.19933105 1815.71463379 950.39866211 1815.42926758 949.57373047 1815.13525391 C948.78498535 1814.85987793 947.99624023 1814.58450195 947.18359375 1814.30078125 C946.4764624 1814.05110596 945.76933105 1813.80143066 945.04077148 1813.54418945 C942.70785576 1812.8282297 942.70785576 1812.8282297 939 1813 C939.01252808 1812.2854364 939.02505615 1811.5708728 939.03796387 1810.83465576 C939.15811882 1803.95626162 939.27585378 1797.07782941 939.39115143 1790.19935226 C939.45044335 1786.66673287 939.51053501 1783.13413165 939.57275391 1779.6015625 C939.90437375 1760.73183246 940.07302824 1741.87330631 940 1723 C940.71702087 1723.01813751 941.43404175 1723.03627502 942.17279053 1723.05496216 C963.06751943 1723.56098482 982.95689908 1722.460829 999.02734375 1707.20703125 C1007.30298172 1697.94814916 1009.61797991 1688.01822949 1009.3125 1675.87890625 C1008.90217753 1670.7857786 1007.68132432 1667.29346013 1005 1663 C1004.57589844 1662.25492188 1004.15179687 1661.50984375 1003.71484375 1660.7421875 C997.99236498 1651.33755665 989.64842286 1645.05105523 980 1640 C979.30132813 1639.63132812 978.60265625 1639.26265625 977.8828125 1638.8828125 C971.96947362 1636.16814803 965.72498607 1634.9897984 959.375 1633.75 C958.47998779 1633.57452637 957.58497559 1633.39905273 956.6628418 1633.21826172 C955.35633667 1632.97873779 955.35633667 1632.97873779 954.0234375 1632.734375 C953.24919434 1632.59225586 952.47495117 1632.45013672 951.67724609 1632.30371094 C948.09788499 1631.89766268 944.60203307 1631.95514755 941 1632 C941.01252808 1631.18759857 941.02505615 1630.37519714 941.03796387 1629.53817749 C941.1973083 1619.15052805 941.35097911 1608.7628025 941.5 1598.375 C941.51187725 1597.54733753 941.5237545 1596.71967506 941.53599167 1595.86693192 C941.93030792 1568.24296041 942.14307747 1540.62715807 942 1513 C942.52005615 1513.16081055 943.0401123 1513.32162109 943.57592773 1513.48730469 C948.59362006 1514.54855495 953.82794287 1514.22602005 958.94213867 1514.24023438 C961.0315053 1514.24985725 963.11985176 1514.2808652 965.20898438 1514.3125 C979.20637961 1514.42493055 992.0028283 1511.26859039 1003.375 1502.6875 C1011.19317437 1494.68317863 1015.58891754 1485.99359883 1015.5 1474.8125 C1015.49427979 1473.97605957 1015.48855957 1473.13961914 1015.48266602 1472.27783203 C1015.08747772 1458.47950675 1008.12092395 1448.78718729 998.5 1439.4375 C983.96107446 1426.83416515 961.9712571 1418.81680188 942.76538086 1418.9699707 C941.52280518 1418.97988037 940.28022949 1418.98979004 939 1419 C939.02284058 1417.0506958 939.02284058 1417.0506958 939.04614258 1415.06201172 C939.15236677 1401.76670952 938.70812917 1388.56502522 937.88305664 1375.29638672 C937.68807476 1372.13432107 937.50846713 1368.9716339 937.33007812 1365.80859375 C936.146955 1345.71290385 934.02745095 1325.79912253 929.6875 1306.125 C929.53560211 1305.42564331 929.38370422 1304.72628662 929.22720337 1304.0057373 C918.56519923 1255.1287018 891.7252801 1217.2097654 849.66381836 1190.1394043 C830.98179784 1178.32508315 810.84073374 1170.19302801 789.9375 1163.125 C789.16696289 1162.86315918 788.39642578 1162.60131836 787.60253906 1162.33154297 C774.33966695 1157.98949811 760.87984389 1155.28166415 747.10693359 1153.18969727 C744.6051576 1152.80948441 742.10527689 1152.41831506 739.60546875 1152.02539062 C737.97926445 1151.77280715 736.3529655 1151.52083213 734.7265625 1151.26953125 C733.99716461 1151.15599808 733.26776672 1151.0424649 732.51626587 1150.92549133 C723.2722632 1149.52741166 714.16609881 1148.8389361 704.81640625 1148.796875 C703.24880554 1148.78628555 703.24880554 1148.78628555 701.64953613 1148.77548218 C637.02427215 1148.43818081 569.31734693 1159.07112984 520.1875 1204.96875 Z M349 2541 C348.20962316 2541.6319625 347.41924632 2542.263925 346.60491867 2542.91503789 C311.60888431 2571.34458905 295.24176852 2626.44224713 279.79296875 2666.99609375 C271.82925048 2687.89247533 263.54687503 2708.45545395 254.0234375 2728.69091797 C251.80787662 2733.40048406 249.62171196 2738.12348662 247.4375 2742.84765625 C246.6418005 2744.56805059 245.84606449 2746.28842804 245.05029297 2748.00878906 C244.65114685 2748.87169556 244.25200073 2749.73460205 243.84075928 2750.62365723 C242.22003691 2754.12482111 240.59581296 2757.62435472 238.97140503 2761.12380981 C225.14854144 2790.90273573 211.52900969 2820.77174476 198.03649902 2850.70172119 C197.08282231 2852.81635414 196.12811833 2854.93051856 195.17285156 2857.04443359 C151.4497852 2953.81519311 108.92109709 3052.29085014 78 3154 C77.77489746 3154.73734375 77.54979492 3155.4746875 77.31787109 3156.234375 C75.8278703 3161.1420861 74.40103546 3166.06623491 73 3171 C72.62391602 3172.31943604 72.62391602 3172.31943604 72.24023438 3173.66552734 C70.45084194 3179.95722758 68.69080091 3186.25664516 66.95019531 3192.56201172 C66.31468989 3194.86139182 65.67599653 3197.15989312 65.03417969 3199.45751953 C55.29856138 3234.39606201 47.58199925 3269.90666874 43.36767578 3305.94580078 C42.99655889 3309.0285845 42.59495164 3312.10593736 42.18359375 3315.18359375 C42.04832275 3316.21049316 41.91305176 3317.23739258 41.77368164 3318.29541016 C41.52156666 3320.20333231 41.26483755 3322.1106554 41.00170898 3324.01708984 C38.78117622 3341.12148391 38.72833772 3358.46636707 38.6875 3375.6875 C38.68488159 3376.7562738 38.68226318 3377.82504761 38.67956543 3378.9262085 C38.67477524 3397.29352081 39.97197646 3414.87376915 43 3433 C43.33976394 3435.18731049 43.67834436 3437.37480521 44.015625 3439.5625 C45.53685338 3449.13076229 47.2704552 3458.57929957 50.28515625 3467.80566406 C50.83623297 3469.49728893 51.37566905 3471.19270894 51.91015625 3472.88964844 C61.53836911 3503.43085215 74.60846756 3531.36016562 94 3557 C95.07701172 3558.42505859 95.07701172 3558.42505859 96.17578125 3559.87890625 C100.3992153 3565.2872717 104.9696539 3570.35294995 109.6171875 3575.3984375 C111.68085409 3577.65155544 113.69417578 3579.93488353 115.6875 3582.25 C120.61566639 3587.90357406 125.91679193 3593.05762825 131.60546875 3597.94140625 C133.41353618 3599.49581332 135.20501308 3601.06954755 136.98828125 3602.65234375 C146.19610619 3610.77281248 155.92553501 3617.99325498 166 3625 C166.64582031 3625.45117188 167.29164063 3625.90234375 167.95703125 3626.3671875 C177.53555999 3633.02174431 187.49530189 3638.93181578 197.64746094 3644.66503906 C199.84992575 3645.91483956 202.03930011 3647.18477736 204.2265625 3648.4609375 C234.64157782 3666.02008498 267.89555355 3678.57818151 301 3690 C301.89106445 3690.30808594 302.78212891 3690.61617187 303.70019531 3690.93359375 C322.51954229 3697.40810551 341.62343944 3702.52958299 360.90254211 3707.43113708 C364.4226436 3708.32905331 367.93601729 3709.2474832 371.44335938 3710.1940918 C383.47249703 3713.43292571 395.56367903 3716.23045817 407.75 3718.8125 C408.75589172 3719.02621246 409.76178345 3719.23992493 410.79815674 3719.46011353 C507.35846203 3739.87925344 606.90605328 3750.04189402 705.42138672 3754.4050293 C706.18767899 3754.43927002 706.95397125 3754.47351074 707.7434845 3754.50878906 C709.76448643 3754.5976866 711.78567861 3754.68223092 713.80688477 3754.76635742 C717.11709801 3754.92705209 720.41041172 3755.20073894 723.71166992 3755.49121094 C730.02819783 3756.0306124 736.33694878 3756.31694805 742.671875 3756.53515625 C743.90355408 3756.57826935 745.13523315 3756.62138245 746.40423584 3756.665802 C750.51930261 3756.80490044 754.63453804 3756.93576948 758.75 3757.0625 C759.46292206 3757.08471745 760.17584412 3757.10693489 760.91036987 3757.12982559 C789.0495681 3757.99949428 817.18230938 3758.19385492 845.33375549 3758.18803024 C848.46709323 3758.18750551 851.60042721 3758.18866555 854.73376465 3758.18997192 C892.3198542 3758.58760627 892.3198542 3758.58760627 929.78761292 3756.21655273 C932.81282295 3755.92043931 935.83043533 3755.84210395 938.86767578 3755.76049805 C976.00440392 3754.70559764 1014.67258969 3751.07960859 1051.26074219 3744.4921875 C1054.05298469 3743.99047976 1056.84777126 3743.50434659 1059.64289856 3743.01901245 C1112.14747931 3733.87805165 1163.4754917 3719.75234964 1203 3682 C1203.86625 3681.18660156 1204.7325 3680.37320313 1205.625 3679.53515625 C1230.97427315 3655.09687261 1245.51086001 3620.09947383 1252.75 3586.125 C1252.9365918 3585.25447998 1253.12318359 3584.38395996 1253.31542969 3583.48706055 C1253.94405049 3580.33295284 1254.48396566 3577.17467841 1255 3574 C1255.12634827 3573.22669342 1255.25269653 3572.45338684 1255.38287354 3571.65664673 C1257.91501916 3555.71376554 1258.48149669 3540.06007697 1258.375 3523.9375 C1258.3713443 3522.72431091 1258.3676886 3521.51112183 1258.36392212 3520.26116943 C1258.30912193 3504.67926458 1257.94565518 3489.15906317 1256.6875 3473.625 C1256.59949127 3472.52271561 1256.59949127 3472.52271561 1256.50970459 3471.39816284 C1255.71915651 3461.86513878 1254.32316262 3452.49826426 1252.68920898 3443.07617188 C1251.85177632 3438.2145666 1251.25606796 3433.33670865 1250.6875 3428.4375 C1248.98209265 3414.77451883 1246.43035553 3401.27174774 1243.88769531 3387.74609375 C1243.14454108 3383.785872 1242.41731942 3379.82291761 1241.69512939 3375.85882568 C1235.89440031 3344.04900623 1229.52010676 3312.35442485 1223.13151455 3280.6585207 C1222.18803551 3275.97701606 1221.24594089 3271.29523385 1220.3046875 3266.61328125 C1220.02764638 3265.23557588 1220.02764638 3265.23557588 1219.74500847 3263.83003807 C1217.20722111 3251.1950244 1214.75702948 3238.54634637 1212.38671875 3225.87890625 C1209.25112835 3209.12454732 1205.8577413 3192.4302964 1202.37921143 3175.74414062 C1201.04937403 3169.3641552 1199.72412662 3162.98322122 1198.40234375 3156.6015625 C1198.25941706 3155.91223507 1198.11649036 3155.22290764 1197.96923256 3154.5126915 C1195.54322613 3142.79860115 1193.23658663 3131.06367482 1191.00547791 3119.3109436 C1189.62042527 3112.04713526 1188.1157823 3104.82671534 1186.4375 3097.625 C1184.0104278 3087.17564419 1181.89092556 3076.68076233 1179.81884766 3066.15576172 C1178.23291107 3058.10203349 1176.63582458 3050.05052673 1175.03356934 3042.00003052 C1174.45258661 3039.07593123 1173.875159 3036.15114509 1173.29785156 3033.22631836 C1171.33182866 3023.31690062 1169.24192794 3013.45911125 1166.859375 3003.64111328 C1165.72615706 2998.83974613 1164.78364363 2994.00940705 1163.83984375 2989.16796875 C1162.84750744 2984.15722234 1161.72719865 2979.17498048 1160.625 2974.1875 C1158.81680088 2965.98194243 1157.17132649 2957.75864578 1155.625 2949.5 C1153.61293826 2938.82016717 1151.29208322 2928.23145078 1148.86547852 2917.63891602 C1146.33891132 2906.59120389 1143.9317933 2895.51994658 1141.5625 2884.4375 C1141.37174896 2883.54642548 1141.18099792 2882.65535095 1140.98446655 2881.73727417 C1138.96343017 2872.29118832 1136.96064415 2862.84162647 1135 2853.3828125 C1130.91530259 2833.70336006 1126.52934975 2814.11368698 1121.93499756 2794.54679871 C1121.7282843 2793.6663942 1121.52157104 2792.78598969 1121.30859375 2791.87890625 C1121.10526428 2791.01312454 1120.90193481 2790.14734283 1120.69244385 2789.25532532 C1119.05421116 2782.26512099 1117.47733448 2775.26255591 1115.9375 2768.25 C1110.15896911 2741.97267348 1103.965377 2715.78523151 1097.83837891 2689.58740234 C1096.98844027 2685.95053621 1096.14040342 2682.3132316 1095.29296875 2678.67578125 C1092.89305792 2668.37647528 1090.49296636 2658.07729747 1088.0625 2647.78515625 C1087.73079125 2646.37980215 1087.39908554 2644.97444732 1087.06738281 2643.5690918 C1086.56540763 2641.44235203 1086.06324653 2639.31565723 1085.5604248 2637.18911743 C1083.63031147 2629.02291989 1081.73127525 2620.85092488 1079.890625 2612.6640625 C1079.71587143 2611.8893309 1079.54111786 2611.1145993 1079.36106873 2610.31639099 C1078.52640269 2606.615774 1077.69659745 2602.91423223 1076.87719727 2599.21020508 C1075.26905752 2592.0184408 1073.47857361 2584.91028618 1071.41015625 2577.8359375 C1071.2063887 2577.13726059 1071.00262115 2576.43858368 1070.79267883 2575.71873474 C1069.04069474 2569.85893528 1066.83517783 2564.41187792 1064 2559 C1063.47535156 2557.99195312 1062.95070313 2556.98390625 1062.41015625 2555.9453125 C1058.7939803 2549.36895624 1054.91188413 2543.69918995 1049 2539 C1048.48352236 2538.58789055 1047.96704473 2538.17578111 1047.43491625 2537.75118349 C1041.52374926 2533.52258864 1036.51325631 2533.29113102 1029.39250374 2533.36520767 C1028.2347981 2533.35734128 1027.07709245 2533.34947488 1025.88430482 2533.34137011 C1022.6743314 2533.32462194 1019.46529771 2533.33019877 1016.2553448 2533.34525951 C1012.76191841 2533.35614995 1009.26862091 2533.33806615 1005.77522361 2533.32371116 C999.65372306 2533.30257692 993.53243388 2533.30005997 987.41090775 2533.30976486 C978.30795521 2533.32415805 969.20520191 2533.31003989 960.10226727 2533.29039069 C942.89904642 2533.25432355 925.69592093 2533.25204163 908.49267186 2533.26001683 C895.2091832 2533.26597261 881.92572483 2533.26275851 868.64223862 2533.25304413 C866.73433436 2533.25168487 864.8264301 2533.25032769 862.91852584 2533.24897258 C860.04355743 2533.24692015 857.16858902 2533.24486161 854.29362064 2533.24278099 C827.56101043 2533.22364376 800.82841179 2533.21458795 774.09579659 2533.22665787 C773.0878662 2533.22711142 772.07993582 2533.22756497 771.04146209 2533.22803226 C762.85612248 2533.23177232 754.670783 2533.23577227 746.48544352 2533.23979373 C714.55582768 2533.25525429 682.62636825 2533.23896646 650.69677734 2533.19726562 C614.82982967 2533.15048912 578.96297731 2533.12689872 543.09599769 2533.13802886 C539.27246278 2533.13914028 535.44892786 2533.14017622 531.62539291 2533.14116669 C530.21319932 2533.1415575 530.21319932 2533.1415575 528.77247657 2533.1419562 C514.55374591 2533.14542676 500.33510693 2533.13079092 486.11639786 2533.10706329 C469.94789855 2533.08012098 453.77960858 2533.07767153 437.61111058 2533.10792437 C428.56144407 2533.12413471 419.51227083 2533.12101065 410.4626399 2533.09010117 C404.41788777 2533.07139335 398.37350938 2533.07812866 392.32879142 2533.10555647 C388.88438581 2533.12047273 385.44094617 2533.12440494 381.99659218 2533.09742382 C378.28321316 2533.07424177 374.57244733 2533.09406469 370.85917854 2533.12469864 C369.26076853 2533.09925885 369.26076853 2533.09925885 367.63006741 2533.07330513 C359.61062366 2533.21000487 355.06553465 2535.91028264 349 2541 Z " fill="#010101" transform="translate(0,0)"/>
<path d="M0 0 C426.03 0 852.06 0 1291 0 C1291 1311.75 1291 2623.5 1291 3975 C864.97 3975 438.94 3975 0 3975 C0 2663.25 0 1351.5 0 0 Z M4 4 C4 1313.11 4 2622.22 4 3971 C427.39 3971 850.78 3971 1287 3971 C1287.86598791 3572.42909308 1287.86598791 3572.42909308 1288.04305101 3173.85905354 C1288.03894634 3165.14195414 1288.03524378 3156.42485454 1288.03152263 3147.70775497 C1288.03110001 3146.72061929 1288.0306774 3145.73348361 1288.03024197 3144.71643473 C1288.02003717 3120.72209826 1288.01318556 3096.72776096 1288.00670624 3072.73342323 C1288.00641582 3071.66201273 1288.0061254 3070.59060222 1288.00582618 3069.48672473 C1288.00316231 3059.65585327 1288.000526 3049.82498181 1287.99792229 3039.99411033 C1287.99141913 3015.44492286 1287.98454682 2990.8957355 1287.97742164 2966.3465482 C1287.97709692 2965.22684633 1287.9767722 2964.10714447 1287.97643765 2962.95351224 C1287.96074091 2908.94071665 1287.94082934 2854.92792274 1287.92053413 2800.91512871 C1287.91347127 2782.11022529 1287.90642951 2763.30532187 1287.89946485 2744.50041842 C1287.89903136 2743.33004117 1287.89859788 2742.15966391 1287.89815127 2740.95382067 C1287.87776777 2685.84891994 1287.86043556 2630.74401837 1287.84379461 2575.6391164 C1287.84269463 2571.99711108 1287.84159326 2568.35510576 1287.84049154 2564.71310045 C1287.83384594 2542.74011513 1287.82723092 2520.7671298 1287.82065109 2498.79414446 C1287.80432154 2444.26693545 1287.78762733 2389.73972656 1287.77068233 2335.21251774 C1287.77029755 2333.97371937 1287.76991276 2332.734921 1287.76951631 2331.45858328 C1287.74476878 2251.79530979 1287.71852679 2172.13203688 1287.69097996 2092.46876431 C1287.69054313 2091.20544888 1287.6901063 2089.94213346 1287.68965623 2088.64053575 C1287.67636727 2050.2181746 1287.6629648 2011.7958135 1287.64953997 1973.3734524 C1287.63468654 1930.86096779 1287.61985257 1888.34848318 1287.60510254 1845.83599854 C1287.60465869 1844.55692048 1287.60421484 1843.27784242 1287.60375754 1841.96000442 C1287.561286 1719.54809785 1287.52196295 1597.13619033 1287.48340908 1474.72428247 C1287.48176766 1469.51332958 1287.48012534 1464.3023767 1287.47848298 1459.09142382 C1287.46336516 1411.12459974 1287.44828364 1363.15777565 1287.4332476 1315.19095155 C1287.43284763 1313.91502239 1287.43244767 1312.63909323 1287.43203558 1311.32449955 C1287.4308246 1307.46132167 1287.42961364 1303.5981438 1287.42840267 1299.73496593 C1287.39572246 1195.48042885 1287.36272667 1091.22589186 1287.32952516 986.97135494 C1287.32835484 983.29623098 1287.32718476 979.62110702 1287.32601476 975.94598306 C1287.28810035 856.85549177 1287.24963256 737.76500068 1287.17922132 527.86176902 C1287.17813291 524.63372261 1287.17704481 521.40567619 1287.17595683 518.17762977 C1287.17560068 517.12096031 1287.17524452 516.06429085 1287.17487757 514.97560111 C1287.17422936 513.05243057 1287.1735812 511.12926004 1287.17293309 509.2060895 C1287.11616905 340.80405937 1287.05788414 172.40202975 1287 4 C863.61 4 440.22 4 4 4 Z " fill="#FCFCFC" transform="translate(0,0)"/>
</svg>
