<?xml version="1.0" encoding="UTF-8"?>
<svg version="1.1" xmlns="http://www.w3.org/2000/svg" width="1148" height="3976">
<path d="M0 0 C378.51 0 757.02 0 1147 0 C1148 1 1148 1 1148.12494468 2.88397517 C1148.12491843 3.71885513 1148.12489217 4.5537351 1148.12486512 5.41391445 C1148.12845955 6.85741591 1148.12845955 6.85741591 1148.13212659 8.33007901 C1148.1296663 9.40308996 1148.12720601 10.47610091 1148.12467116 11.58162734 C1148.12600042 12.71621247 1148.12732967 13.85079759 1148.1286992 15.01976409 C1148.13139927 18.20457416 1148.12955495 21.38934626 1148.12589622 24.57415426 C1148.12300638 28.04296448 1148.12589911 31.51177049 1148.12807148 34.98058057 C1148.13109453 41.1043257 1148.13035009 47.22806173 1148.12723524 53.35180669 C1148.12257967 62.5460492 1148.12368455 71.74028481 1148.12593428 80.9345279 C1148.12961493 96.67145722 1148.12850689 112.40838307 1148.12488318 128.14531226 C1148.12120821 144.19367673 1148.11972401 160.2420392 1148.12089889 176.29040407 C1148.12100837 177.81331867 1148.12100837 177.81331867 1148.12112007 179.36699921 C1148.12150254 184.55033418 1148.12192015 189.73366914 1148.12234976 194.9170041 C1148.12541743 232.84015932 1148.12354052 270.76331309 1148.11920547 308.68646812 C1148.11482557 347.14392743 1148.11262301 385.60138596 1148.11310768 424.05884552 C1148.11312197 425.27007561 1148.11313626 426.4813057 1148.11315099 427.72923973 C1148.11328273 438.82878834 1148.11343884 449.92833696 1148.11362399 461.02788557 C1148.11408718 488.8655361 1148.11421959 516.70318663 1148.11413276 544.54083717 C1148.11412901 545.81669501 1148.11412527 547.09255286 1148.11412141 548.40707306 C1148.11390704 611.35788999 1148.10993736 674.30870662 1148.10573006 737.25952339 C1148.10425092 759.42952768 1148.10278959 781.59953197 1148.10139394 803.76953626 C1148.10126379 805.83668724 1148.10126379 805.83668724 1148.10113101 807.94559885 C1148.09713582 871.74707507 1148.09570242 935.54855127 1148.09492797 999.3500276 C1148.09487721 1003.52115975 1148.09482524 1007.6922919 1148.09477296 1011.86342405 C1148.09445887 1037.01492135 1148.0941715 1062.16641864 1148.09391499 1087.31791594 C1148.09327609 1149.8484564 1148.0923166 1212.37899686 1148.09113979 1274.90953732 C1148.09111316 1276.3331796 1148.09108653 1277.75682189 1148.09105909 1279.22360485 C1148.0893311 1371.45208948 1148.08628309 1463.68057402 1148.08213139 1555.90905857 C1148.0820651 1557.38189252 1148.08199881 1558.85472646 1148.08193051 1560.37219174 C1148.07990977 1605.20769772 1148.0777914 1650.04320369 1148.07565394 1694.87870966 C1148.073289 1744.49502682 1148.0709407 1794.11134397 1148.06866455 1843.72766113 C1148.06859605 1845.21961509 1148.06852755 1846.71156905 1148.06845698 1848.24873373 C1148.06195815 1989.91623129 1148.05814641 2131.58372888 1148.05503077 2273.25122655 C1148.05489862 2279.25080347 1148.0547657 2285.25038039 1148.05463275 2291.24995731 C1148.05340936 2346.45881851 1148.05221753 2401.66767972 1148.05106533 2456.87654093 C1148.05103469 2458.34457773 1148.05100405 2459.81261452 1148.05097248 2461.32513728 C1148.05087972 2465.76995759 1148.05078697 2470.21477791 1148.05069422 2474.65959822 C1148.04818828 2594.74275606 1148.04540708 2714.82591389 1148.04244758 2834.90907172 C1148.04234323 2839.14609266 1148.04223909 2843.3831136 1148.04213501 2847.62013454 C1148.03875182 2985.3134564 1148.03488113 3123.00677824 1148.0257972 3366.16495289 C1148.0256523 3369.91510272 1148.02550766 3373.66525255 1148.02536313 3377.41540238 C1148.02531581 3378.64295705 1148.02526848 3379.87051172 1148.02521972 3381.13526501 C1148.02513359 3383.36942536 1148.0250475 3385.60358571 1148.02496147 3387.83774606 C1148.01740028 3583.89183074 1148.00852674 3779.94591536 1148 3976 C769.16 3976 390.32 3976 0 3976 C0 2663.92 0 1351.84 0 0 Z M4 4 C4 254.47 4 504.94 4 763 C4.33 763 4.66 763 5 763 C5.03963867 762.24944336 5.07927734 761.49888672 5.12011719 760.72558594 C7.8179608 711.25518287 13.79649582 661.75906052 31 615 C31.44472656 613.76894531 31.88945312 612.53789063 32.34765625 611.26953125 C45.11717736 577.72627027 63.69364008 547.34635798 88 521 C89.54296087 519.27198808 91.08462623 517.54281851 92.625 515.8125 C156.5495548 444.90831443 258.52660333 411.20901731 351 378 C351.80038696 377.71336487 352.60077393 377.42672974 353.42541504 377.13140869 C443.8790477 344.77905939 536.24467077 314.96921426 697 280 C698.69189453 279.71866211 698.69189453 279.71866211 700.41796875 279.43164062 C715.11825395 276.99915616 729.86679141 275.29910882 744.6875 273.8125 C745.53113098 273.72764343 746.37476196 273.64278687 747.24395752 273.55535889 C749.70780175 273.30982239 752.1721043 273.06970287 754.63671875 272.83203125 C755.34333145 272.76241684 756.04994415 272.69280243 756.77796936 272.62107849 C770.32201387 271.3442185 783.79193954 270.83852116 797.38671875 270.83203125 C799.02073696 270.82880014 800.65475491 270.82543486 802.28877258 270.82194519 C805.69650947 270.81600818 809.10422122 270.81409934 812.51196289 270.81469727 C815.93910051 270.81477801 819.36610299 270.80790907 822.79321289 270.79418945 C849.55033144 270.6888323 876.04034888 271.45447559 902.625 274.8125 C903.63554443 274.93797211 903.63554443 274.93797211 904.66650391 275.065979 C918.55539767 276.80047836 932.3007178 279.12709145 946 282 C947.00836914 282.20818359 948.01673828 282.41636719 949.05566406 282.63085938 C1010.7880379 295.62925361 1070.64051743 324.96185271 1106 379 C1133.20093102 421.08408981 1140.31048061 468.93679267 1143 518 C1143.33 518 1143.66 518 1144 518 C1144 348.38 1144 178.76 1144 4 C767.8 4 391.6 4 4 4 Z M1143 542 C1142.98541748 542.65444092 1142.97083496 543.30888184 1142.95581055 543.9831543 C1140.84849116 630.63642517 1123.80533884 716.11238699 1103 800 C1102.73916626 801.05193542 1102.47833252 802.10387085 1102.20959473 803.18768311 C1093.37456208 838.7140403 1083.36356367 873.89267549 1073 909 C1072.65924438 910.15675232 1072.31848877 911.31350464 1071.96740723 912.50531006 C1061.05482429 949.52540305 1049.17198948 986.19518675 1037.02584839 1022.82391357 C1034.22967621 1031.25981542 1031.45965604 1039.70355238 1028.7265625 1048.16015625 C1028.24758263 1049.64193108 1028.24758263 1049.64193108 1027.75892639 1051.15364075 C1027.13970064 1053.06961791 1026.52048348 1054.98559786 1025.90127563 1056.90158081 C1020.43385704 1073.80183397 1014.72458297 1090.60380031 1008.82299805 1107.35717773 C1005.40559562 1117.06539419 1002.03977161 1126.78802977 998.7578125 1136.54296875 C998.39626572 1137.61737717 998.03471893 1138.69178558 997.66221619 1139.79875183 C997.29697342 1140.8842482 996.93173065 1141.96974457 996.55541992 1143.08813477 C987.23198839 1170.79416235 977.41642198 1198.29837482 967.30761719 1225.72705078 C965.55179281 1230.49323488 963.81066764 1235.26451203 962.07862854 1240.03938293 C944.5875736 1288.21923312 925.37804067 1335.92453266 904.90777588 1382.91412354 C903.99233404 1385.01761475 903.0803628 1387.12257834 902.16943359 1389.22802734 C898.81951126 1396.96591433 898.81951126 1396.96591433 897.89680481 1399.07051086 C897.03136816 1401.05948915 896.18025556 1403.05469814 895.33403015 1405.05192566 C892.63013798 1411.37149822 889.85469172 1417.41954264 886.29858398 1423.32006836 C872.37533965 1447.58144982 874.44920327 1472.92872274 875.15911484 1500.12314987 C875.31294442 1506.68499384 875.38050394 1513.2476021 875.45043945 1519.81079102 C875.47945863 1522.4461231 875.50864823 1525.08145332 875.53800964 1527.71678162 C875.559637 1529.66330533 875.559637 1529.66330533 875.58170128 1531.64915276 C875.62870927 1535.55006 875.68507759 1539.45072048 875.74458313 1543.35145569 C876.0473892 1563.56962967 875.86951421 1583.73015163 875.1875 1603.9375 C875.14165647 1605.34596377 875.09593064 1606.75443138 875.05032349 1608.16290283 C874.7459946 1617.44386321 874.38175812 1626.72189318 874 1636 C873.89706911 1638.5857721 873.79420461 1641.17154685 873.69140625 1643.75732422 C870.53604866 1721.77895123 864.51797468 1799.73820171 762.85430908 2389.65374756 C762.07756578 2392.69618177 761.30497469 2395.73962231 760.53466797 2398.78369141 C747.84149606 2448.89728556 733.46666746 2498.67629996 718 2548 C717.706698 2548.93622192 717.413396 2549.87244385 717.11120605 2550.83703613 C712.48704245 2565.58384621 707.77320683 2580.30079985 703 2595 C702.68673767 2595.96619263 702.37347534 2596.93238525 702.05072021 2597.92785645 C691.47799357 2630.51285424 680.03727366 2662.74801333 668.15484619 2694.87719727 C667.0605723 2697.83620732 665.96831048 2700.79595264 664.87646484 2703.75585938 C648.05062113 2749.32384722 629.49054842 2794.17137448 610.44165039 2838.84960938 C605.28767665 2850.9421785 600.19221135 2863.05833757 595.125 2875.1875 C588.1787885 2891.81142693 581.19550245 2908.41926863 574.1784668 2925.01342773 C573.38199589 2926.89697147 572.58552779 2928.78051639 571.7890625 2930.6640625 C571.19684654 2932.06444511 571.19684654 2932.06444511 570.59266663 2933.49311829 C567.78954334 2940.12436968 564.99815253 2946.76048639 562.2109375 2953.3984375 C552.71420754 2976.00131408 543.02698508 2998.50929178 533.11547852 3020.93338013 C530.84577591 3026.07170578 528.59431787 3031.21756012 526.359375 3036.37109375 C512.97331622 3067.22229257 498.89227306 3097.73622127 484.03118896 3127.90509033 C482.97145299 3130.05799462 481.91449832 3132.21224852 480.85791016 3134.36669922 C472.49316062 3151.40709405 463.91340957 3168.22281545 454.36230469 3184.63818359 C453.12478641 3186.78365883 451.9171692 3188.94151657 450.7265625 3191.11328125 C446.21577823 3199.33858477 441.39051133 3207.34538074 436.4375 3215.3125 C435.82406738 3216.30306396 435.21063477 3217.29362793 434.57861328 3218.31420898 C430.87095319 3224.23036206 426.95658297 3229.92897382 422.81030273 3235.54614258 C421.34080593 3237.53803906 419.90129915 3239.54223856 418.48828125 3241.57421875 C397.4047639 3271.742196 369.17684191 3305.56557234 331.1484375 3313.3203125 C320.9122944 3315.11467678 312.08822398 3316.1103686 303.0625 3310.125 C300.94764098 3308.49420296 298.99643458 3306.7855812 297 3305 C295.67742187 3303.84564453 295.67742187 3303.84564453 294.328125 3302.66796875 C275.80546602 3285.32454738 266.12217988 3261.49053489 258 3238 C257.74379883 3237.26716797 257.48759766 3236.53433594 257.22363281 3235.77929688 C225.83561834 3144.88390548 227.56322299 3040.2708061 223.12974167 2886.4209938 C220.23660815 2771.36230437 220.23660815 2771.36230437 211.5625 2656.625 C211.47107727 2655.7167749 211.37965454 2654.8085498 211.28546143 2653.87280273 C210.20591669 2643.3041933 208.70081025 2632.86133491 206.80566406 2622.40795898 C206.47949333 2620.59657865 206.47949333 2620.59657865 206.14673328 2618.74860477 C201.9556719 2595.59436028 197.48689214 2572.49069894 193.05160046 2549.38229275 C191.29791915 2540.24448058 189.55325849 2531.10504539 187.82050532 2521.96324104 C186.58404029 2515.44410573 185.33687265 2508.92706886 184.08227903 2502.41139847 C183.34090828 2498.55961097 182.60377686 2494.70714625 181.87849998 2490.85229301 C178.47012358 2472.75799529 174.39621041 2455.18721528 168.82374001 2437.61458588 C167.74783779 2434.1996264 166.74288995 2430.76806311 165.75 2427.328125 C165.30914062 2425.80421143 165.30914062 2425.80421143 164.859375 2424.24951172 C160.46165079 2408.89995499 156.35906756 2393.48202056 152.49676514 2377.98980713 C152.00574151 2376.02299778 151.51109007 2374.05712628 151.01611328 2372.09130859 C138.57404228 2322.48019575 130.67247074 2271.79795346 125 2221 C124.8649707 2219.8258252 124.72994141 2218.65165039 124.59082031 2217.44189453 C122.66554757 2200.55416261 121.43889618 2183.64805151 120.375 2166.6875 C120.3124704 2165.696362 120.2499408 2164.705224 120.18551636 2163.68405151 C119.75516978 2156.79114684 119.36360773 2149.89673677 119 2143 C118.94980713 2142.06902496 118.89961426 2141.13804993 118.84790039 2140.17886353 C117.76320827 2119.4025425 117.75454206 2098.61137377 117.75 2077.8125 C117.74955814 2076.88176666 117.74911629 2075.95103333 117.74866104 2074.99209595 C117.74004876 2040.24169399 118.61706288 2005.67923027 121 1971 C121.08485657 1969.75804871 121.16971313 1968.51609741 121.25714111 1967.23651123 C124.06157091 1926.66115889 127.59180189 1885.83920456 133.50315666 1845.57263088 C134.18872213 1840.05059705 134.22471676 1834.52876941 134.30184937 1828.97055054 C134.32153408 1827.77656843 134.3412188 1826.58258633 134.36150002 1825.35242295 C134.41402894 1822.06073934 134.46218613 1818.76903201 134.50758126 1815.47724321 C134.5369486 1813.36857397 134.56778785 1811.25993063 134.5989902 1809.15128779 C135.41530962 1753.60343378 135.44940661 1698.04559699 135.54844093 1642.49282265 C135.55544194 1638.63665366 135.56257036 1634.78048493 135.56982422 1630.92431641 C135.57161951 1629.96667898 135.5734148 1629.00904155 135.5752645 1628.02238481 C135.60545785 1612.44446363 135.67045115 1596.86687458 135.74851067 1581.28912778 C135.82890031 1565.10738899 135.87419831 1548.92582271 135.88746679 1532.74388826 C135.89576554 1523.73242595 135.91879399 1514.72157376 135.98213577 1505.7103157 C136.54772881 1454.03387693 136.54772881 1454.03387693 127.2104311 1403.38195133 C125.09326928 1395.90816296 123.48975145 1388.29948879 121.78748757 1380.72297126 C120.83553766 1376.51830638 119.81895004 1372.3296988 118.78515625 1368.14453125 C118.46080345 1366.82954399 118.46080345 1366.82954399 118.12989807 1365.48799133 C106.48951126 1318.61197781 92.47146652 1272.45323926 78.25 1226.3125 C50.39275917 1135.93126655 23.47831582 1045.62455968 5 856 C4.67 856 4.34 856 4 856 C4 1884.28 4 2912.56 4 3972 C380.2 3972 756.4 3972 1144 3972 C1144 2840.1 1144 1708.2 1144 542 C1143.67 542 1143.34 542 1143 542 Z " fill="#FDFDFD" transform="translate(0,0)"/>
<path d="M0 0 C225.06 0 450.12 0 682 0 C682 163.71083156 682 163.71083156 679.10736847 218.94458771 C678.99980858 221.00366455 678.89393535 223.06282196 678.78851318 225.12200928 C678.14238566 237.71284554 677.45719834 250.30127219 676.6484375 262.8828125 C676.57202278 264.09024361 676.57202278 264.09024361 676.49406433 265.32206726 C676.18997383 269.88415372 675.76005488 274.41548286 675.21655273 278.95542908 C674.84732663 282.44145734 674.75591126 285.93599985 674.625 289.4375 C674.06019165 301.98194094 672.87334023 314.47151763 671.72846985 326.97297668 C671.07863065 334.08462142 670.45395944 341.19836628 669.83203125 348.3125 C667.47336923 375.23734849 665.0355288 402.14238964 662 429 C661.87475952 430.10935913 661.74951904 431.21871826 661.6204834 432.36169434 C660.74191912 440.12926842 659.85403821 447.8957421 658.9574585 455.66125488 C658.65888513 458.24830647 658.36119645 460.83546036 658.06451416 463.42272949 C656.12293341 480.31151464 653.90708948 497.14138436 651.43959045 513.96125793 C650.76321385 518.63682364 650.129222 523.31789314 649.5 528 C648.18887195 537.70256021 646.8075042 547.39438854 645.41235352 557.08520508 C644.54643655 563.11487772 643.7088766 569.14504997 642.9375 575.1875 C642.18760504 580.91696059 641.22765811 586.58940775 640.19490051 592.27302551 C639.26641037 597.40355925 638.42661955 602.54301328 637.62890625 607.6953125 C635.96043035 618.35268749 634.18438417 628.99072786 632.375 639.625 C632.20459198 640.62667206 632.03418396 641.62834412 631.85861206 642.66036987 C624.36729857 686.59812315 616.68138459 730.66033538 606.94555664 774.16503906 C605.56239287 780.35186972 604.25781011 786.55235289 602.98046875 792.76171875 C599.2199135 811.01626974 595.35506737 829.21234291 590.87084961 847.30395508 C590.54138303 848.63359636 590.21203618 849.96326731 589.8828125 851.29296875 C589.7223494 851.94092911 589.56188629 852.58888947 589.39656067 853.25648499 C587.73642082 860.0007335 586.24604252 866.78041063 584.75 873.5625 C581.68334833 887.36882135 578.30349489 901.09208774 574.875 914.8125 C574.6210144 915.83175568 574.36702881 916.85101135 574.10534668 917.90115356 C571.44145624 928.57728797 568.70880626 939.22468736 565.7281189 949.81707764 C563.88368031 956.37344176 562.17999543 962.96216336 560.5 969.5625 C558.43891836 977.58814267 556.31338486 985.57434038 553.91186523 993.50463867 C551.98272362 999.92287954 550.27953366 1006.39731155 548.5625 1012.875 C546.31028529 1021.34244934 543.94397293 1029.74426355 541.21704102 1038.07177734 C539.62302899 1042.94723322 538.15200855 1047.85362906 536.71484375 1052.77734375 C533.80937668 1062.71717908 530.76405682 1072.61193967 527.6875 1082.5 C527.38864899 1083.46064362 527.08979797 1084.42128723 526.78189087 1085.41104126 C496.42059746 1182.86791708 461.3984317 1278.22587134 421.33911133 1372.10620117 C416.21693975 1384.11227953 411.1563147 1396.14308155 406.125 1408.1875 C399.11175866 1424.97334071 392.05595421 1441.74074066 384.97192383 1458.49682617 C384.18047855 1460.36896825 383.38905586 1462.24111987 382.59765625 1464.11328125 C382.20999588 1465.03032333 381.82233551 1465.94736542 381.42292786 1466.89219666 C378.87665513 1472.9182092 376.33941065 1478.94795014 373.80859375 1484.98046875 C365.65644767 1504.40736657 357.38525571 1523.77811423 348.99098206 1543.10163879 C346.67195518 1548.44278727 344.36772797 1553.79014946 342.0703125 1559.140625 C293.00976784 1673.32365077 293.00976784 1673.32365077 262.34521484 1725.66796875 C261.03064711 1727.94687093 259.7663383 1730.24592951 258.51953125 1732.5625 C245.82882052 1756.13685498 230.69359923 1778.87952751 213 1799 C212.38769531 1799.72316406 211.77539062 1800.44632813 211.14453125 1801.19140625 C197.46737221 1817.2726265 179.90119387 1833.4014396 158.125 1836.5625 C152.61800768 1836.40515736 149.60605839 1832.79585094 146 1829 C145.13761719 1828.14921875 145.13761719 1828.14921875 144.2578125 1827.28125 C118.79336931 1800.52598251 111.41359424 1756.29829619 105.609375 1721.55053711 C105.1874138 1719.09197069 104.74318646 1716.63716101 104.28125 1714.18579102 C102.2007944 1703.12195853 100.86748069 1692.02669586 99.69238281 1680.83325195 C99.37425712 1677.8054295 99.04720447 1674.77867087 98.71875 1671.75195312 C97.71655924 1662.42452269 96.77367766 1653.11600934 96.23291016 1643.7487793 C96.06063693 1641.055939 96.06063693 1641.055939 95.51464844 1638.67700195 C94.78902033 1634.90256542 94.58852493 1631.11064713 94.3515625 1627.28125 C94.26603874 1625.94472885 94.26603874 1625.94472885 94.17878723 1624.58120728 C93.98842199 1621.55446257 93.80562748 1618.52734106 93.625 1615.5 C93.56063751 1614.42747986 93.49627502 1613.35495972 93.42996216 1612.24993896 C90.52915705 1563.27880392 89.04608129 1514.22673594 87.8273077 1465.18906116 C87.17718361 1439.03828733 86.41718255 1412.89195199 85.59570312 1386.74599457 C85.50236507 1383.76308323 85.41016455 1380.78013905 85.31835938 1377.79718018 C84.65017541 1356.12541357 83.89066926 1334.45960769 82.97265625 1312.796875 C82.93187958 1311.82796011 82.89110291 1310.85904522 82.84909058 1309.86076927 C81.9819648 1282.19576324 81.9819648 1282.19576324 79.4609375 1254.66015625 C79.05877284 1251.46669622 78.85987561 1248.33606692 78.76074219 1245.12109375 C77.39838 1203.34198656 70.20494065 1161.51289306 62.10449219 1120.59765625 C60.95091983 1114.76632102 59.82231033 1108.93026963 58.6953125 1103.09375 C55.34449172 1085.77278587 51.97616417 1068.46443578 48.16748047 1051.23730469 C46.74983902 1044.74966012 45.47236717 1038.2484607 44.2890625 1031.71484375 C40.63819675 1010.69389158 40.63819675 1010.69389158 34.53515625 990.296875 C32.49685015 984.79942403 30.99429006 979.14866025 29.4375 973.5 C29.14045166 972.42484131 28.84340332 971.34968262 28.53735352 970.24194336 C27.95699134 968.13485398 27.37809666 966.02735978 26.80078125 963.91943359 C25.88967002 960.59776648 24.96496677 957.28004676 24.03759766 953.96289062 C23.23140104 951.07396474 22.43387994 948.18266473 21.63574219 945.29150391 C20.95336852 942.83191895 20.26177456 940.37501317 19.5703125 937.91796875 C4.75627475 884.95052202 -4.91115174 829.86505864 -10.76495361 775.19470215 C-11.01411897 772.86816669 -11.26661736 770.54200414 -11.51904297 768.21582031 C-13.38066157 750.95973879 -15.08485754 733.69775129 -16.1875 716.375 C-16.2592041 715.25472412 -16.3309082 714.13444824 -16.40478516 712.98022461 C-16.63654883 708.9880812 -16.82404893 704.99488917 -17 701 C-17.0427002 700.08202637 -17.08540039 699.16405273 -17.12939453 698.21826172 C-18.19783869 674.48218945 -18.15480374 650.74408621 -18.13037109 626.98876953 C-18.12460474 621.32281029 -18.12801264 615.65689773 -18.13394356 609.99094009 C-18.1375625 605.57616831 -18.13640563 601.16140756 -18.13381577 596.74663544 C-18.1331538 594.65600326 -18.13394908 592.56537004 -18.13629532 590.47473907 C-18.13885171 587.56548904 -18.13494254 584.65631474 -18.12939453 581.74707031 C-18.13141876 580.9044313 -18.13344299 580.0617923 -18.13552856 579.19361877 C-18.11778925 574.13953026 -17.79267622 569.19092343 -17.23115253 564.16762447 C-16.93264986 561.3684265 -16.82365109 558.58304279 -16.75390625 555.76953125 C-16.72256592 554.65416992 -16.69122559 553.53880859 -16.65893555 552.38964844 C-16.62711182 551.20918945 -16.59528809 550.02873047 -16.5625 548.8125 C-15.37360272 511.34913148 -11.45908835 474.18140773 -7.4375 436.9375 C-7.33762787 436.00960663 -7.23775574 435.08171326 -7.13485718 434.1257019 C-6.84106076 431.40514159 -6.54380895 428.68497785 -6.24609375 425.96484375 C-6.15505005 425.12335734 -6.06400635 424.28187093 -5.97020376 423.41488492 C-5.46633406 418.85399832 -4.91562707 414.31023259 -4.23670387 409.77189064 C-1.91400309 393.87134447 -1.55605504 378.14296602 -1.58191919 362.10225868 C-1.58465 358.32213759 -1.56991481 354.54207426 -1.55747986 350.76197815 C-1.5382428 344.22602734 -1.52952654 337.69013375 -1.52817917 331.15415573 C-1.52611258 321.62853173 -1.50645557 312.10300199 -1.48278125 302.57741006 C-1.44448611 287.01450739 -1.41862932 271.45161119 -1.40136719 255.88867188 C-1.38477177 240.96190417 -1.36464104 226.03515169 -1.33789062 211.10839844 C-1.3362572 210.19545644 -1.33462378 209.28251445 -1.33294086 208.34190755 C-1.31480579 198.27825218 -1.29534183 188.21459988 -1.27463722 178.15094948 C-1.2727958 177.25412209 -1.27095438 176.3572947 -1.26905716 175.43329073 C-1.26166229 171.83693174 -1.2542636 168.24057277 -1.24671336 164.64421411 C-1.22506019 154.30815559 -1.20705597 143.97210877 -1.19676055 133.63603236 C-1.19016059 127.0961085 -1.18047267 120.55619343 -1.16879199 114.0162767 C-1.16229459 110.29714601 -1.15697696 106.57802909 -1.15620613 102.85889244 C-1.14221884 68.56583109 -0.489914 34.29398022 0 0 Z " fill="#FDFDFD" transform="translate(165,1449)"/>
<path d="M0 0 C378.51 0 757.02 0 1147 0 C1148 1 1148 1 1148.12494468 2.88397517 C1148.12491843 3.71885513 1148.12489217 4.5537351 1148.12486512 5.41391445 C1148.12845955 6.85741591 1148.12845955 6.85741591 1148.13212659 8.33007901 C1148.1296663 9.40308996 1148.12720601 10.47610091 1148.12467116 11.58162734 C1148.12600042 12.71621247 1148.12732967 13.85079759 1148.1286992 15.01976409 C1148.13139927 18.20457416 1148.12955495 21.38934626 1148.12589622 24.57415426 C1148.12300638 28.04296448 1148.12589911 31.51177049 1148.12807148 34.98058057 C1148.13109453 41.1043257 1148.13035009 47.22806173 1148.12723524 53.35180669 C1148.12257967 62.5460492 1148.12368455 71.74028481 1148.12593428 80.9345279 C1148.12961493 96.67145722 1148.12850689 112.40838307 1148.12488318 128.14531226 C1148.12120821 144.19367673 1148.11972401 160.2420392 1148.12089889 176.29040407 C1148.12100837 177.81331867 1148.12100837 177.81331867 1148.12112007 179.36699921 C1148.12150254 184.55033418 1148.12192015 189.73366914 1148.12234976 194.9170041 C1148.12541743 232.84015932 1148.12354052 270.76331309 1148.11920547 308.68646812 C1148.11482557 347.14392743 1148.11262301 385.60138596 1148.11310768 424.05884552 C1148.11312197 425.27007561 1148.11313626 426.4813057 1148.11315099 427.72923973 C1148.11328273 438.82878834 1148.11343884 449.92833696 1148.11362399 461.02788557 C1148.11408718 488.8655361 1148.11421959 516.70318663 1148.11413276 544.54083717 C1148.11412901 545.81669501 1148.11412527 547.09255286 1148.11412141 548.40707306 C1148.11390704 611.35788999 1148.10993736 674.30870662 1148.10573006 737.25952339 C1148.10425092 759.42952768 1148.10278959 781.59953197 1148.10139394 803.76953626 C1148.10126379 805.83668724 1148.10126379 805.83668724 1148.10113101 807.94559885 C1148.09713582 871.74707507 1148.09570242 935.54855127 1148.09492797 999.3500276 C1148.09487721 1003.52115975 1148.09482524 1007.6922919 1148.09477296 1011.86342405 C1148.09445887 1037.01492135 1148.0941715 1062.16641864 1148.09391499 1087.31791594 C1148.09327609 1149.8484564 1148.0923166 1212.37899686 1148.09113979 1274.90953732 C1148.09111316 1276.3331796 1148.09108653 1277.75682189 1148.09105909 1279.22360485 C1148.0893311 1371.45208948 1148.08628309 1463.68057402 1148.08213139 1555.90905857 C1148.0820651 1557.38189252 1148.08199881 1558.85472646 1148.08193051 1560.37219174 C1148.07990977 1605.20769772 1148.0777914 1650.04320369 1148.07565394 1694.87870966 C1148.073289 1744.49502682 1148.0709407 1794.11134397 1148.06866455 1843.72766113 C1148.06859605 1845.21961509 1148.06852755 1846.71156905 1148.06845698 1848.24873373 C1148.06195815 1989.91623129 1148.05814641 2131.58372888 1148.05503077 2273.25122655 C1148.05489862 2279.25080347 1148.0547657 2285.25038039 1148.05463275 2291.24995731 C1148.05340936 2346.45881851 1148.05221753 2401.66767972 1148.05106533 2456.87654093 C1148.05103469 2458.34457773 1148.05100405 2459.81261452 1148.05097248 2461.32513728 C1148.05087972 2465.76995759 1148.05078697 2470.21477791 1148.05069422 2474.65959822 C1148.04818828 2594.74275606 1148.04540708 2714.82591389 1148.04244758 2834.90907172 C1148.04234323 2839.14609266 1148.04223909 2843.3831136 1148.04213501 2847.62013454 C1148.03875182 2985.3134564 1148.03488113 3123.00677824 1148.0257972 3366.16495289 C1148.0256523 3369.91510272 1148.02550766 3373.66525255 1148.02536313 3377.41540238 C1148.02531581 3378.64295705 1148.02526848 3379.87051172 1148.02521972 3381.13526501 C1148.02513359 3383.36942536 1148.0250475 3385.60358571 1148.02496147 3387.83774606 C1148.01740028 3583.89183074 1148.00852674 3779.94591536 1148 3976 C769.16 3976 390.32 3976 0 3976 C0 2663.92 0 1351.84 0 0 Z M4 4 C4 254.47 4 504.94 4 763 C4.33 763 4.66 763 5 763 C5.03963867 762.24944336 5.07927734 761.49888672 5.12011719 760.72558594 C7.8179608 711.25518287 13.79649582 661.75906052 31 615 C31.44472656 613.76894531 31.88945312 612.53789063 32.34765625 611.26953125 C45.11717736 577.72627027 63.69364008 547.34635798 88 521 C89.54296087 519.27198808 91.08462623 517.54281851 92.625 515.8125 C156.5495548 444.90831443 258.52660333 411.20901731 351 378 C351.80038696 377.71336487 352.60077393 377.42672974 353.42541504 377.13140869 C443.8790477 344.77905939 536.24467077 314.96921426 697 280 C698.69189453 279.71866211 698.69189453 279.71866211 700.41796875 279.43164062 C715.11825395 276.99915616 729.86679141 275.29910882 744.6875 273.8125 C745.53113098 273.72764343 746.37476196 273.64278687 747.24395752 273.55535889 C749.70780175 273.30982239 752.1721043 273.06970287 754.63671875 272.83203125 C755.34333145 272.76241684 756.04994415 272.69280243 756.77796936 272.62107849 C770.32201387 271.3442185 783.79193954 270.83852116 797.38671875 270.83203125 C799.02073696 270.82880014 800.65475491 270.82543486 802.28877258 270.82194519 C805.69650947 270.81600818 809.10422122 270.81409934 812.51196289 270.81469727 C815.93910051 270.81477801 819.36610299 270.80790907 822.79321289 270.79418945 C849.55033144 270.6888323 876.04034888 271.45447559 902.625 274.8125 C903.63554443 274.93797211 903.63554443 274.93797211 904.66650391 275.065979 C918.55539767 276.80047836 932.3007178 279.12709145 946 282 C947.00836914 282.20818359 948.01673828 282.41636719 949.05566406 282.63085938 C1010.7880379 295.62925361 1070.64051743 324.96185271 1106 379 C1133.20093102 421.08408981 1140.31048061 468.93679267 1143 518 C1143.33 518 1143.66 518 1144 518 C1144 348.38 1144 178.76 1144 4 C767.8 4 391.6 4 4 4 Z M652 318 C650.89341034 318.25907135 650.89341034 318.25907135 649.76446533 318.52337646 C637.27119783 321.45158859 624.79014137 324.42983043 612.31658936 327.44085693 C610.23746296 327.94268481 608.15806453 328.44336818 606.07861328 328.94384766 C595.10210538 331.5950796 584.22824406 334.42977106 573.43432617 337.75097656 C567.30203486 339.63481252 561.1346173 341.34297638 554.9375 343 C547.25356912 345.06175523 539.66227389 347.31530806 532.09106445 349.7565918 C526.4665986 351.56176694 520.81223214 353.21706825 515.125 354.8125 C497.10381016 359.89068858 479.19101396 365.43590643 461.48632812 371.52905273 C457.16990861 373.00077209 452.8333044 374.35153343 448.45161438 375.61717224 C436.72145517 379.00549781 425.14228397 382.81999943 413.5625 386.6875 C412.46340302 387.05415771 411.36430603 387.42081543 410.23190308 387.79858398 C273.32146293 431.93473207 273.32146293 431.93473207 150 504 C148.77610767 504.9362842 147.55214836 505.87248085 146.328125 506.80859375 C139.26717551 512.24754765 132.54507781 517.94503722 126 524 C124.98951991 524.90893102 123.97773778 525.81641605 122.96484375 526.72265625 C117.25431177 531.85248617 111.92017371 537.09579155 107 543 C105.89702761 544.23023844 104.79281816 545.45936871 103.6875 546.6875 C84.75886547 568.44067465 70.74781895 593.35100347 60 620 C59.71672852 620.68739258 59.43345703 621.37478516 59.14160156 622.08300781 C41.85072648 664.2094785 37.06899971 710.50909606 34.17098999 755.53929138 C34.04265345 757.38617622 33.89840371 759.23196656 33.74624634 761.07704163 C33.01726796 770.21630063 32.85282772 779.29713781 32.8671875 788.45703125 C32.86651051 790.01380936 32.86553724 791.57058736 32.86428833 793.12736511 C32.86282507 796.37552913 32.86491806 799.62366542 32.86962891 802.87182617 C32.87527376 806.95486816 32.87196487 811.0378443 32.86620617 815.12088394 C32.83419702 841.56309383 33.62360952 867.77200037 35.9375 894.125 C36.10923638 896.1288624 36.2804602 898.13276879 36.45117188 900.13671875 C36.79128875 904.11874175 37.13634492 908.10028962 37.48535156 912.08154297 C37.83074499 916.02769943 38.16537069 919.97454544 38.49121094 923.92236328 C39.51255985 936.19719098 40.78027112 948.41150061 42.375 960.625 C42.48393585 961.46806702 42.5928717 962.31113403 42.70510864 963.17974854 C44.22949184 974.92614862 46.03409382 986.53907257 48.43457031 998.140625 C49.24987866 1002.26363511 49.96728547 1006.40291257 50.69493103 1010.54214478 C53.7229452 1027.74566433 57.25708038 1044.77033037 61.24658203 1061.77636719 C61.88478537 1064.5070337 62.5085713 1067.24005376 63.12109375 1069.9765625 C65.02239137 1078.40427293 67.29438215 1086.68315658 69.71459961 1094.97485352 C71.50324451 1101.13774834 73.10969335 1107.32720196 74.625 1113.5625 C76.12364136 1119.70681212 77.81038941 1125.67020363 79.91015625 1131.640625 C81.40761321 1136.25644214 82.62802745 1140.93628749 83.875 1145.625 C85.9342269 1153.34155831 88.22728802 1160.91376823 90.82421875 1168.46484375 C92.53302794 1173.47557069 94.00948416 1178.51087509 95.375 1183.625 C97.58129308 1191.85176308 100.25025462 1199.89180463 102.98120117 1207.95751953 C105.97365562 1216.82682398 108.67615054 1225.76423455 111.32519531 1234.74072266 C112.36865262 1238.23426604 113.46435718 1241.7108357 114.5625 1245.1875 C116.93546801 1252.72155548 119.16914949 1260.29330564 121.37939453 1267.87646484 C122.18792531 1270.64302688 123.00583516 1273.4067769 123.82348633 1276.1706543 C124.66726591 1279.02809793 125.5047859 1281.88735199 126.34082031 1284.74707031 C126.78419362 1286.26242176 127.22887797 1287.77739017 127.67480469 1289.29199219 C131.39775023 1301.96260938 134.77518547 1314.71208618 138.03833008 1327.50756836 C139.71762264 1334.08423726 141.43850508 1340.64311145 143.28930664 1347.17407227 C147.07788738 1360.57271146 150.00892201 1374.15075023 152.97265625 1387.75 C155.2584575 1398.17924347 157.63379634 1408.58870388 160 1419 C390.01 1419 620.02 1419 857 1419 C867.88722459 1395.61954641 867.88722459 1395.61954641 878.1875 1372 C878.90106887 1370.31068675 879.61469379 1368.62139717 880.32836914 1366.93212891 C920.31659186 1272.08960623 955.02827583 1175.42438334 1000.53269958 1040.41847229 C1002.81455762 1033.54537474 1005.11625427 1026.67896876 1007.41796875 1019.8125 C1018.43532679 986.94925997 1018.43532679 986.94925997 1028.81738281 953.88183594 C1031.12219357 946.29740639 1033.48037916 938.72922237 1035.82601929 931.15734863 C1036.65501969 928.47990257 1037.48263403 925.80203226 1038.30981445 923.12402344 C1042.54678055 909.41600008 1042.54678055 909.41600008 1044.65869141 902.76245117 C1044.92889603 901.91103546 1045.19910065 901.05961975 1045.47749329 900.18240356 C1045.98746186 898.578528 1046.49889243 896.97511618 1047.01213074 895.37228394 C1048.84768522 889.6039228 1050.42173925 883.79844156 1051.9375 877.9375 C1053.16792099 873.27535795 1054.59204205 868.67345331 1056 864.0625 C1058.24637828 856.68034462 1060.25505231 849.27882127 1062.07421875 841.78125 C1063.28682668 836.8284885 1064.60914766 831.90819812 1065.93359375 826.984375 C1066.70813125 824.10190052 1067.46883913 821.21608737 1068.22265625 818.328125 C1070.07437938 811.23661631 1071.93124469 804.15709969 1074 797.125 C1079.25695869 778.88272504 1083.04095622 760.19707999 1087.17871094 741.67480469 C1087.6908129 739.38343764 1088.20425174 737.09236845 1088.71972656 734.80175781 C1096.41082637 700.58259357 1102.48640474 665.7867155 1107 631 C1107.15710449 629.80938965 1107.31420898 628.6187793 1107.47607422 627.39208984 C1109.90668298 608.88835236 1111.74975405 590.45936541 1112.76635742 571.81958008 C1113 569 1113 569 1113.51416016 566.22094727 C1114.14654312 562.02847066 1114.16196179 557.92928984 1114.16796875 553.6953125 C1114.17425293 552.33935722 1114.17425293 552.33935722 1114.18066406 550.95600891 C1114.19046236 548.01229527 1114.19044733 545.06872732 1114.1875 542.125 C1114.18722809 541.11946075 1114.18695618 540.11392151 1114.18667603 539.07791138 C1114.12928139 492.88992107 1110.31308933 447.33877792 1088 406 C1087.45859375 404.97777344 1086.9171875 403.95554687 1086.359375 402.90234375 C1062.58190779 360.02210556 1018.2349409 331.92830893 972.09667969 318.13183594 C965.43613953 316.26317826 958.72579143 314.61468907 952 313 C950.50236283 312.62857593 949.00494831 312.25625233 947.5078125 311.8828125 C943.35178023 310.85909467 939.1826567 309.90849709 935 309 C934.23107422 308.83258301 933.46214844 308.66516602 932.66992188 308.49267578 C917.56012845 305.26654707 902.36988499 303.47277893 887 302 C885.43813965 301.84917969 885.43813965 301.84917969 883.84472656 301.6953125 C876.90248912 301.03858438 869.95689682 300.47666302 863 300 C862.13665039 299.94070313 861.27330078 299.88140625 860.38378906 299.8203125 C790.70852708 295.36109573 719.92285961 302.09687633 652 318 Z M1143 542 C1142.98541748 542.65444092 1142.97083496 543.30888184 1142.95581055 543.9831543 C1140.84849116 630.63642517 1123.80533884 716.11238699 1103 800 C1102.73916626 801.05193542 1102.47833252 802.10387085 1102.20959473 803.18768311 C1093.37456208 838.7140403 1083.36356367 873.89267549 1073 909 C1072.65924438 910.15675232 1072.31848877 911.31350464 1071.96740723 912.50531006 C1061.05482429 949.52540305 1049.17198948 986.19518675 1037.02584839 1022.82391357 C1034.22967621 1031.25981542 1031.45965604 1039.70355238 1028.7265625 1048.16015625 C1028.24758263 1049.64193108 1028.24758263 1049.64193108 1027.75892639 1051.15364075 C1027.13970064 1053.06961791 1026.52048348 1054.98559786 1025.90127563 1056.90158081 C1020.43385704 1073.80183397 1014.72458297 1090.60380031 1008.82299805 1107.35717773 C1005.40559562 1117.06539419 1002.03977161 1126.78802977 998.7578125 1136.54296875 C998.39626572 1137.61737717 998.03471893 1138.69178558 997.66221619 1139.79875183 C997.29697342 1140.8842482 996.93173065 1141.96974457 996.55541992 1143.08813477 C987.23198839 1170.79416235 977.41642198 1198.29837482 967.30761719 1225.72705078 C965.55179281 1230.49323488 963.81066764 1235.26451203 962.07862854 1240.03938293 C944.5875736 1288.21923312 925.37804067 1335.92453266 904.90777588 1382.91412354 C903.99233404 1385.01761475 903.0803628 1387.12257834 902.16943359 1389.22802734 C898.81951126 1396.96591433 898.81951126 1396.96591433 897.89680481 1399.07051086 C897.03136816 1401.05948915 896.18025556 1403.05469814 895.33403015 1405.05192566 C892.63013798 1411.37149822 889.85469172 1417.41954264 886.29858398 1423.32006836 C872.37533965 1447.58144982 874.44920327 1472.92872274 875.15911484 1500.12314987 C875.31294442 1506.68499384 875.38050394 1513.2476021 875.45043945 1519.81079102 C875.47945863 1522.4461231 875.50864823 1525.08145332 875.53800964 1527.71678162 C875.559637 1529.66330533 875.559637 1529.66330533 875.58170128 1531.64915276 C875.62870927 1535.55006 875.68507759 1539.45072048 875.74458313 1543.35145569 C876.0473892 1563.56962967 875.86951421 1583.73015163 875.1875 1603.9375 C875.14165647 1605.34596377 875.09593064 1606.75443138 875.05032349 1608.16290283 C874.7459946 1617.44386321 874.38175812 1626.72189318 874 1636 C873.89706911 1638.5857721 873.79420461 1641.17154685 873.69140625 1643.75732422 C870.53604866 1721.77895123 864.51797468 1799.73820171 762.85430908 2389.65374756 C762.07756578 2392.69618177 761.30497469 2395.73962231 760.53466797 2398.78369141 C747.84149606 2448.89728556 733.46666746 2498.67629996 718 2548 C717.706698 2548.93622192 717.413396 2549.87244385 717.11120605 2550.83703613 C712.48704245 2565.58384621 707.77320683 2580.30079985 703 2595 C702.68673767 2595.96619263 702.37347534 2596.93238525 702.05072021 2597.92785645 C691.47799357 2630.51285424 680.03727366 2662.74801333 668.15484619 2694.87719727 C667.0605723 2697.83620732 665.96831048 2700.79595264 664.87646484 2703.75585938 C648.05062113 2749.32384722 629.49054842 2794.17137448 610.44165039 2838.84960938 C605.28767665 2850.9421785 600.19221135 2863.05833757 595.125 2875.1875 C588.1787885 2891.81142693 581.19550245 2908.41926863 574.1784668 2925.01342773 C573.38199589 2926.89697147 572.58552779 2928.78051639 571.7890625 2930.6640625 C571.19684654 2932.06444511 571.19684654 2932.06444511 570.59266663 2933.49311829 C567.78954334 2940.12436968 564.99815253 2946.76048639 562.2109375 2953.3984375 C552.71420754 2976.00131408 543.02698508 2998.50929178 533.11547852 3020.93338013 C530.84577591 3026.07170578 528.59431787 3031.21756012 526.359375 3036.37109375 C512.97331622 3067.22229257 498.89227306 3097.73622127 484.03118896 3127.90509033 C482.97145299 3130.05799462 481.91449832 3132.21224852 480.85791016 3134.36669922 C472.49316062 3151.40709405 463.91340957 3168.22281545 454.36230469 3184.63818359 C453.12478641 3186.78365883 451.9171692 3188.94151657 450.7265625 3191.11328125 C446.21577823 3199.33858477 441.39051133 3207.34538074 436.4375 3215.3125 C435.82406738 3216.30306396 435.21063477 3217.29362793 434.57861328 3218.31420898 C430.87095319 3224.23036206 426.95658297 3229.92897382 422.81030273 3235.54614258 C421.34080593 3237.53803906 419.90129915 3239.54223856 418.48828125 3241.57421875 C397.4047639 3271.742196 369.17684191 3305.56557234 331.1484375 3313.3203125 C320.9122944 3315.11467678 312.08822398 3316.1103686 303.0625 3310.125 C300.94764098 3308.49420296 298.99643458 3306.7855812 297 3305 C295.67742187 3303.84564453 295.67742187 3303.84564453 294.328125 3302.66796875 C275.80546602 3285.32454738 266.12217988 3261.49053489 258 3238 C257.74379883 3237.26716797 257.48759766 3236.53433594 257.22363281 3235.77929688 C225.83561834 3144.88390548 227.56322299 3040.2708061 223.12974167 2886.4209938 C220.23660815 2771.36230437 220.23660815 2771.36230437 211.5625 2656.625 C211.47107727 2655.7167749 211.37965454 2654.8085498 211.28546143 2653.87280273 C210.20591669 2643.3041933 208.70081025 2632.86133491 206.80566406 2622.40795898 C206.47949333 2620.59657865 206.47949333 2620.59657865 206.14673328 2618.74860477 C201.9556719 2595.59436028 197.48689214 2572.49069894 193.05160046 2549.38229275 C191.29791915 2540.24448058 189.55325849 2531.10504539 187.82050532 2521.96324104 C186.58404029 2515.44410573 185.33687265 2508.92706886 184.08227903 2502.41139847 C183.34090828 2498.55961097 182.60377686 2494.70714625 181.87849998 2490.85229301 C178.47012358 2472.75799529 174.39621041 2455.18721528 168.82374001 2437.61458588 C167.74783779 2434.1996264 166.74288995 2430.76806311 165.75 2427.328125 C165.30914062 2425.80421143 165.30914062 2425.80421143 164.859375 2424.24951172 C160.46165079 2408.89995499 156.35906756 2393.48202056 152.49676514 2377.98980713 C152.00574151 2376.02299778 151.51109007 2374.05712628 151.01611328 2372.09130859 C138.57404228 2322.48019575 130.67247074 2271.79795346 125 2221 C124.8649707 2219.8258252 124.72994141 2218.65165039 124.59082031 2217.44189453 C122.66554757 2200.55416261 121.43889618 2183.64805151 120.375 2166.6875 C120.3124704 2165.696362 120.2499408 2164.705224 120.18551636 2163.68405151 C119.75516978 2156.79114684 119.36360773 2149.89673677 119 2143 C118.94980713 2142.06902496 118.89961426 2141.13804993 118.84790039 2140.17886353 C117.76320827 2119.4025425 117.75454206 2098.61137377 117.75 2077.8125 C117.74955814 2076.88176666 117.74911629 2075.95103333 117.74866104 2074.99209595 C117.74004876 2040.24169399 118.61706288 2005.67923027 121 1971 C121.08485657 1969.75804871 121.16971313 1968.51609741 121.25714111 1967.23651123 C124.06157091 1926.66115889 127.59180189 1885.83920456 133.50315666 1845.57263088 C134.18872213 1840.05059705 134.22471676 1834.52876941 134.30184937 1828.97055054 C134.32153408 1827.77656843 134.3412188 1826.58258633 134.36150002 1825.35242295 C134.41402894 1822.06073934 134.46218613 1818.76903201 134.50758126 1815.47724321 C134.5369486 1813.36857397 134.56778785 1811.25993063 134.5989902 1809.15128779 C135.41530962 1753.60343378 135.44940661 1698.04559699 135.54844093 1642.49282265 C135.55544194 1638.63665366 135.56257036 1634.78048493 135.56982422 1630.92431641 C135.57161951 1629.96667898 135.5734148 1629.00904155 135.5752645 1628.02238481 C135.60545785 1612.44446363 135.67045115 1596.86687458 135.74851067 1581.28912778 C135.82890031 1565.10738899 135.87419831 1548.92582271 135.88746679 1532.74388826 C135.89576554 1523.73242595 135.91879399 1514.72157376 135.98213577 1505.7103157 C136.54772881 1454.03387693 136.54772881 1454.03387693 127.2104311 1403.38195133 C125.09326928 1395.90816296 123.48975145 1388.29948879 121.78748757 1380.72297126 C120.83553766 1376.51830638 119.81895004 1372.3296988 118.78515625 1368.14453125 C118.46080345 1366.82954399 118.46080345 1366.82954399 118.12989807 1365.48799133 C106.48951126 1318.61197781 92.47146652 1272.45323926 78.25 1226.3125 C50.39275917 1135.93126655 23.47831582 1045.62455968 5 856 C4.67 856 4.34 856 4 856 C4 1884.28 4 2912.56 4 3972 C380.2 3972 756.4 3972 1144 3972 C1144 2840.1 1144 1708.2 1144 542 C1143.67 542 1143.34 542 1143 542 Z M165 1449 C164.16729939 1501.27356714 164.16729939 1501.27356714 163.88734567 1553.54459989 C163.89196174 1557.33507132 163.89012863 1561.12554226 163.88909912 1564.91601562 C163.88800929 1570.57807726 163.88854047 1576.24013397 163.89129993 1581.90219506 C163.89659387 1593.02495733 163.88778555 1604.14767717 163.87467957 1615.27043152 C163.87263428 1617.05469077 163.87059194 1618.83895003 163.86855251 1620.6232093 C163.86440213 1624.22449818 163.86018842 1627.82578697 163.85594499 1631.42707574 C163.84528269 1640.52975204 163.83539313 1649.63242882 163.8269043 1658.73510742 C163.82605305 1659.64265645 163.8252018 1660.55020547 163.82432475 1661.48525598 C163.81105466 1676.24636696 163.81617027 1691.00742412 163.82697586 1705.76853458 C163.83770445 1721.13807975 163.8251739 1736.50749353 163.79289359 1751.87700862 C163.77563238 1760.42173021 163.76840403 1768.96618293 163.789011 1777.51090431 C163.86879077 1812.61526918 163.36449806 1847.00808287 158.06184298 1881.8122502 C156.88561676 1889.54124576 156.04741975 1897.27955033 155.3125 1905.0625 C155.19515849 1906.29056209 155.07781698 1907.51862417 154.95691967 1908.78390026 C154.74586607 1911.01097782 154.5373655 1913.23829839 154.33105469 1915.46582031 C154.03859358 1918.58799364 153.73490102 1921.70884531 153.42546082 1924.82937622 C150.90035331 1950.30361382 149.03001541 1975.79167978 148.34130859 2001.38745117 C148.3098877 2002.5035376 148.2784668 2003.61962402 148.24609375 2004.76953125 C148.22216553 2005.73479736 148.1982373 2006.70006348 148.17358398 2007.69458008 C148.03352104 2010.36168578 147.79327008 2012.96262813 147.49822998 2015.61425781 C146.99577182 2020.58304439 146.85196418 2025.48622971 146.85473633 2030.47729492 C146.85137772 2031.36886292 146.8480191 2032.26043091 146.84455872 2033.17901611 C146.83510932 2036.11284819 146.83310591 2039.0466224 146.83203125 2041.98046875 C146.82880506 2044.07318645 146.82544006 2046.16590394 146.82194519 2048.25862122 C146.81596195 2052.66240964 146.81410352 2057.06617851 146.81469727 2061.4699707 C146.81477718 2065.88212302 146.80805572 2070.29416853 146.79418945 2074.70629883 C146.72104124 2098.35148894 146.89514303 2121.95221076 147.921875 2145.578125 C147.96322382 2146.53545721 148.00457264 2147.49278942 148.04717445 2148.4791317 C148.78002168 2165.03605086 150.00019381 2181.53080375 151.61328125 2198.02441406 C151.99614613 2201.96038103 152.3590301 2205.89779522 152.71875 2209.8359375 C154.28502 2226.64437473 156.39171066 2243.3227827 159 2260 C159.13490845 2260.8655249 159.26981689 2261.7310498 159.40881348 2262.62280273 C164.84178102 2297.41611192 171.0195657 2331.85347959 179.125 2366.125 C179.33114929 2366.99937714 179.53729858 2367.87375427 179.74969482 2368.77462769 C182.17719868 2379.02490998 184.83024646 2389.16700018 187.87060547 2399.25292969 C188.81681568 2402.39223673 189.7343225 2405.5360289 190.625 2408.69140625 C190.85388916 2409.50182373 191.08277832 2410.31224121 191.31860352 2411.1472168 C191.54346436 2411.94426025 191.7683252 2412.74130371 192 2413.5625 C193.76899434 2419.79987258 195.59958426 2426.0084679 197.5625 2432.1875 C198.17616423 2434.14290055 198.7870869 2436.09911406 199.39550781 2438.05615234 C199.79591892 2439.34374251 200.19888182 2440.63054212 200.60449219 2441.91650391 C204.25417683 2453.63252056 206.51623711 2465.56200575 208.70996094 2477.61694336 C210.23108601 2485.96628981 211.86348394 2494.27275055 213.6875 2502.5625 C224.31539868 2551.26795713 234.68800287 2600.38904868 240 2650 C240.14276367 2651.30018066 240.28552734 2652.60036133 240.43261719 2653.93994141 C241.88162351 2667.1768346 243.22753236 2680.401686 243.7097168 2693.71386719 C243.73590088 2694.43477539 243.76208496 2695.15568359 243.7890625 2695.8984375 C243.80662598 2696.50349121 243.82418945 2697.10854492 243.84228516 2697.73193359 C243.97946408 2699.70467691 244.21636976 2701.6699883 244.47045898 2703.63110352 C245.08440342 2708.41115858 245.39427084 2713.19472731 245.68359375 2718.00390625 C245.74334381 2718.97343231 245.80309387 2719.94295837 245.86465454 2720.94186401 C246.05989459 2724.1485022 246.24958806 2727.3554243 246.4375 2730.5625 C246.50347382 2731.68399445 246.56944763 2732.80548889 246.63742065 2733.96096802 C248.19066994 2760.62644845 249.16546798 2787.30361874 250 2814 C250.0401825 2815.2789917 250.08036499 2816.5579834 250.12176514 2817.87573242 C250.98438687 2845.4201073 251.78418041 2872.96612843 252.46484375 2900.515625 C253.81999606 2955.19766698 255.3480404 3009.8935779 258.625 3064.5 C258.68734833 3065.54496643 258.74969666 3066.58993286 258.81393433 3067.66656494 C258.9878061 3070.53849373 259.16782767 3073.40993696 259.3515625 3076.28125 C259.40249557 3077.10434662 259.45342865 3077.92744324 259.50590515 3078.77548218 C259.76125555 3082.60102026 260.20670913 3086.25317255 261 3090 C261.24145205 3092.16529638 261.45486263 3094.33380572 261.6484375 3096.50390625 C261.76501709 3097.7878125 261.88159668 3099.07171875 262.00170898 3100.39453125 C262.06236542 3101.07338379 262.12302185 3101.75223633 262.18551636 3102.45166016 C262.50974993 3106.06360855 262.84694386 3109.67434728 263.18359375 3113.28515625 C263.25197952 3114.01928741 263.3203653 3114.75341858 263.39082336 3115.50979614 C266.02325238 3143.69662274 270.05589484 3171.31359632 276 3199 C276.18643066 3199.87076172 276.37286133 3200.74152344 276.56494141 3201.63867188 C282.83252023 3230.23624436 293.99835713 3267.10745047 319 3285 C330.50246912 3286.84861111 342.73637275 3279.32408583 351.9140625 3272.98828125 C365.40699373 3263.05735255 376.79750122 3251.04761362 386.77978516 3237.63476562 C387.94562881 3236.07284303 389.1344133 3234.52812258 390.32421875 3232.984375 C414.13722416 3201.8986367 432.32942636 3166.80886769 450 3132 C450.3286908 3131.35357544 450.65738159 3130.70715088 450.99603271 3130.0411377 C460.39834228 3111.54581628 469.49121534 3092.93577772 478.07226562 3074.04229736 C479.0703372 3071.84516098 480.07032983 3069.64890391 481.0703125 3067.45263672 C490.54579444 3046.62377574 499.79332593 3025.70980649 508.74171448 3004.64942932 C511.68923713 2997.71709238 514.66158975 2990.79552716 517.63671875 2983.875 C528.78897446 2957.92572022 539.83986834 2931.93906841 550.71037292 2905.87059021 C554.98400677 2895.62972252 559.30468733 2885.40874078 563.625 2875.1875 C564.42807871 2873.28703594 565.23113871 2871.38656398 566.03417969 2869.48608398 C567.21808339 2866.68432195 568.40200563 2863.88256777 569.58602905 2861.08085632 C575.06200846 2848.12225754 580.52544441 2835.15839945 585.97589111 2822.18904114 C587.68673939 2818.1190488 589.40033015 2814.05024154 591.11865234 2809.98339844 C608.99193991 2767.68000549 626.21196838 2725.12912215 642 2682 C642.28472168 2681.22384338 642.56944336 2680.44768677 642.86279297 2679.64801025 C662.41496459 2626.33059279 680.67200924 2572.40906892 696.8984375 2517.984375 C698.74088943 2511.81391494 700.69449273 2505.685635 702.6875 2499.5625 C705.92200298 2489.57127075 708.63210473 2479.45924418 711.31640625 2469.30859375 C712.80644815 2463.68417433 714.38151784 2458.08861889 716 2452.5 C721.09173557 2434.86491717 725.74477 2417.10433726 730.38623047 2399.34619141 C731.00686088 2396.97377366 731.63024825 2394.60209224 732.25390625 2392.23046875 C733.8483116 2386.15684808 735.42437288 2380.07851476 737 2374 C737.4150135 2372.40298815 737.83005439 2370.80598341 738.24511719 2369.20898438 C745.36661645 2341.91044751 745.36661645 2341.91044751 751.72485352 2314.42749023 C753.79973282 2304.80278441 756.03140511 2295.21818264 758.27722168 2285.63226318 C764.3262222 2259.79959772 770.14801182 2233.93437895 775.23535156 2207.89257812 C775.96907335 2204.15743756 776.71247918 2200.42436034 777.45812988 2196.69158936 C783.00891669 2168.87865837 788.09878225 2141.00091351 792.94775391 2113.05761719 C793.95232405 2107.26906618 794.96494019 2101.48194993 795.98046875 2095.6953125 C797.15877393 2088.98113074 798.33331518 2082.26631205 799.50390625 2075.55078125 C800.39455011 2070.44160361 801.29549838 2065.33458114 802.21484375 2060.23046875 C804.02700626 2050.12446361 805.58085123 2040.02872867 806.85644531 2029.84057617 C807.78660573 2022.45758454 808.85980836 2015.10337878 810 2007.75 C810.17144531 2006.64301758 810.34289062 2005.53603516 810.51953125 2004.39550781 C811.25297151 1999.69113241 811.9963558 1994.98904798 812.78125 1990.29296875 C814.67945858 1978.85393237 816.08652672 1967.36725973 817.45141602 1955.85473633 C818.53086873 1946.76581975 819.69673727 1937.69359828 820.9375 1928.625 C827.50451553 1880.10404358 831.86391906 1831.37559819 835.98217773 1782.59838867 C836.10949963 1781.09347892 836.23683899 1779.58857065 836.36419678 1778.08366394 C836.60222509 1775.27096534 836.83864146 1772.45813803 837.07403564 1769.6452179 C837.51950248 1764.372599 837.96679246 1759.10503519 838.56396484 1753.84716797 C839.04505057 1749.60251571 839.26326021 1745.39054969 839.4375 1741.125 C839.79863286 1733.17482141 840.33047988 1725.24740513 840.9375 1717.3125 C847.76612746 1627.99435618 847 1538.63344343 847 1449 C621.94 1449 396.88 1449 165 1449 Z " fill="#010101" transform="translate(0,0)"/>
<path d="M0 0 C378.51 0 757.02 0 1147 0 C1148 1 1148 1 1148.12494468 2.88397517 C1148.12491843 3.71885513 1148.12489217 4.5537351 1148.12486512 5.41391445 C1148.12845955 6.85741591 1148.12845955 6.85741591 1148.13212659 8.33007901 C1148.1296663 9.40308996 1148.12720601 10.47610091 1148.12467116 11.58162734 C1148.12600042 12.71621247 1148.12732967 13.85079759 1148.1286992 15.01976409 C1148.13139927 18.20457416 1148.12955495 21.38934626 1148.12589622 24.57415426 C1148.12300638 28.04296448 1148.12589911 31.51177049 1148.12807148 34.98058057 C1148.13109453 41.1043257 1148.13035009 47.22806173 1148.12723524 53.35180669 C1148.12257967 62.5460492 1148.12368455 71.74028481 1148.12593428 80.9345279 C1148.12961493 96.67145722 1148.12850689 112.40838307 1148.12488318 128.14531226 C1148.12120821 144.19367673 1148.11972401 160.2420392 1148.12089889 176.29040407 C1148.12100837 177.81331867 1148.12100837 177.81331867 1148.12112007 179.36699921 C1148.12150254 184.55033418 1148.12192015 189.73366914 1148.12234976 194.9170041 C1148.12541743 232.84015932 1148.12354052 270.76331309 1148.11920547 308.68646812 C1148.11482557 347.14392743 1148.11262301 385.60138596 1148.11310768 424.05884552 C1148.11312197 425.27007561 1148.11313626 426.4813057 1148.11315099 427.72923973 C1148.11328273 438.82878834 1148.11343884 449.92833696 1148.11362399 461.02788557 C1148.11408718 488.8655361 1148.11421959 516.70318663 1148.11413276 544.54083717 C1148.11412901 545.81669501 1148.11412527 547.09255286 1148.11412141 548.40707306 C1148.11390704 611.35788999 1148.10993736 674.30870662 1148.10573006 737.25952339 C1148.10425092 759.42952768 1148.10278959 781.59953197 1148.10139394 803.76953626 C1148.10126379 805.83668724 1148.10126379 805.83668724 1148.10113101 807.94559885 C1148.09713582 871.74707507 1148.09570242 935.54855127 1148.09492797 999.3500276 C1148.09487721 1003.52115975 1148.09482524 1007.6922919 1148.09477296 1011.86342405 C1148.09445887 1037.01492135 1148.0941715 1062.16641864 1148.09391499 1087.31791594 C1148.09327609 1149.8484564 1148.0923166 1212.37899686 1148.09113979 1274.90953732 C1148.09111316 1276.3331796 1148.09108653 1277.75682189 1148.09105909 1279.22360485 C1148.0893311 1371.45208948 1148.08628309 1463.68057402 1148.08213139 1555.90905857 C1148.0820651 1557.38189252 1148.08199881 1558.85472646 1148.08193051 1560.37219174 C1148.07990977 1605.20769772 1148.0777914 1650.04320369 1148.07565394 1694.87870966 C1148.073289 1744.49502682 1148.0709407 1794.11134397 1148.06866455 1843.72766113 C1148.06859605 1845.21961509 1148.06852755 1846.71156905 1148.06845698 1848.24873373 C1148.06195815 1989.91623129 1148.05814641 2131.58372888 1148.05503077 2273.25122655 C1148.05489862 2279.25080347 1148.0547657 2285.25038039 1148.05463275 2291.24995731 C1148.05340936 2346.45881851 1148.05221753 2401.66767972 1148.05106533 2456.87654093 C1148.05103469 2458.34457773 1148.05100405 2459.81261452 1148.05097248 2461.32513728 C1148.05087972 2465.76995759 1148.05078697 2470.21477791 1148.05069422 2474.65959822 C1148.04818828 2594.74275606 1148.04540708 2714.82591389 1148.04244758 2834.90907172 C1148.04234323 2839.14609266 1148.04223909 2843.3831136 1148.04213501 2847.62013454 C1148.03875182 2985.3134564 1148.03488113 3123.00677824 1148.0257972 3366.16495289 C1148.0256523 3369.91510272 1148.02550766 3373.66525255 1148.02536313 3377.41540238 C1148.02531581 3378.64295705 1148.02526848 3379.87051172 1148.02521972 3381.13526501 C1148.02513359 3383.36942536 1148.0250475 3385.60358571 1148.02496147 3387.83774606 C1148.01740028 3583.89183074 1148.00852674 3779.94591536 1148 3976 C769.16 3976 390.32 3976 0 3976 C0 2663.92 0 1351.84 0 0 Z M4 4 C4 1313.44 4 2622.88 4 3972 C380.2 3972 756.4 3972 1144 3972 C1144 2662.56 1144 1353.12 1144 4 C767.8 4 391.6 4 4 4 Z " fill="#FBFBFB" transform="translate(0,0)"/>
<path d="M0 0 C9.69683929 -0.19222809 19.32702094 0.41496801 29 1 C28.38830343 16.00736365 26.87707728 30.88522926 25.25 45.8125 C25.11749847 47.03978821 24.98499695 48.26707642 24.84848022 49.53155518 C23.17481679 65.00216339 21.40925867 80.45558981 19.3125 95.875 C19.21626343 96.58548492 19.12002686 97.29596985 19.02087402 98.02798462 C17.8604605 106.52640268 16.52796914 114.98751745 15.08679199 123.44236755 C14.33156777 127.89982834 13.66942408 132.3564309 13.08203125 136.83984375 C11.77767287 146.17722285 9.69810868 155.35703618 7.6875 164.5625 C7.38196198 165.9668631 7.38196198 165.9668631 7.07025146 167.39959717 C6.0652493 172.01739609 5.05524256 176.63405263 4.03955078 181.24951172 C3.23229219 184.92366662 2.45034765 188.60230743 1.68359375 192.28515625 C-3.22269258 215.17968244 -11.57758525 238.06555387 -22 259 C-22.39541992 259.80179688 -22.79083984 260.60359375 -23.19824219 261.4296875 C-38.79773475 292.80186288 -61.41666776 321.31859918 -89 343 C-90.75151029 344.45651908 -92.50147844 345.91489437 -94.25 347.375 C-113.27752712 362.89181437 -134.13058967 376.12584186 -155 389 C-156.20172852 389.74467529 -156.20172852 389.74467529 -157.42773438 390.50439453 C-159.77752772 391.95343376 -162.13652997 393.38590097 -164.5 394.8125 C-165.2125293 395.25174805 -165.92505859 395.69099609 -166.65917969 396.14355469 C-168.39410437 397.17602576 -170.19339687 398.09880895 -172 399 C-175.8688358 397.71038807 -176.19502904 396.38920481 -178.13671875 392.87109375 C-178.71357422 391.83662109 -179.29042969 390.80214844 -179.88476562 389.73632812 C-180.47966797 388.64771484 -181.07457031 387.55910156 -181.6875 386.4375 C-182.59725586 384.7987793 -182.59725586 384.7987793 -183.52539062 383.12695312 C-185.02527302 380.42244078 -186.51634906 377.71344045 -188 375 C-185.48622902 372.34397986 -183.15135876 370.31339909 -179.95703125 368.5390625 C-178.74164673 367.84840698 -178.74164673 367.84840698 -177.50170898 367.14379883 C-176.61427002 366.64259521 -175.72683105 366.1413916 -174.8125 365.625 C-164.60066337 359.7227458 -154.74949864 353.35106735 -144.9375 346.8125 C-144.24234283 346.3516803 -143.54718567 345.8908606 -142.83096313 345.41607666 C-133.59515881 339.28595039 -124.70315199 332.86736672 -116 326 C-115.09467529 325.29641357 -114.18935059 324.59282715 -113.2565918 323.86791992 C-106.50427151 318.61121832 -100.1950295 312.89464196 -94 307 C-93.43200684 306.46068848 -92.86401367 305.92137695 -92.27880859 305.36572266 C-24.70964437 240.74652471 -16.2628072 138.55611632 -5.875 50.875 C-5.74675842 49.79743439 -5.61851685 48.71986877 -5.48638916 47.60964966 C-4.0637843 35.63162718 -2.70944661 23.65646153 -1.65255737 11.63986206 C-1.29853004 7.69838417 -0.89475347 3.86482428 0 0 Z " fill="#020202" transform="translate(799,881)"/>
<path d="M0 0 C0.15580536 1.44768768 0.15580536 1.44768768 0.3147583 2.92462158 C1.30915699 12.15819074 2.30877501 21.39118295 3.31311417 30.6236763 C3.82891484 35.36669051 4.3430662 40.10986971 4.85302734 44.85351562 C7.1957576 66.63291815 9.67881953 88.34456203 13 110 C13.25416287 111.69345925 13.50793365 113.38697741 13.76123047 115.08056641 C14.42063871 119.45355462 15.10715339 123.82169801 15.8125 128.1875 C15.93495087 128.94640533 16.05740173 129.70531067 16.18356323 130.48721313 C19.87003623 153.16453669 24.05353733 176.07039745 31 198 C31.34401855 199.09344727 31.68803711 200.18689453 32.04248047 201.31347656 C43.16558125 236.3644472 57.49053528 267.26605706 82 295 C82.46051758 295.52368164 82.92103516 296.04736328 83.39550781 296.58691406 C108.99872524 325.56322531 142.367321 345.93365441 175 366 C176.4076338 366.86705484 177.8151927 367.73423131 179.22265625 368.6015625 C182.14713948 370.40315742 185.07298535 372.20251976 188 374 C183.46773738 382.4121541 178.76379626 390.71776539 174 399 C170.81344656 398.35520427 168.40165606 397.23145625 165.60546875 395.5859375 C164.31310303 394.82676025 164.31310303 394.82676025 162.99462891 394.05224609 C162.06827637 393.49875488 161.14192383 392.94526367 160.1875 392.375 C159.21989746 391.79959473 158.25229492 391.22418945 157.25537109 390.63134766 C146.30200549 384.06214996 135.62340817 377.08696058 125 370 C124.24992676 369.50258301 123.49985352 369.00516602 122.72705078 368.49267578 C111.73994584 361.18754224 101.27309921 353.27648426 91 345 C90.38415039 344.50419434 89.76830078 344.00838867 89.13378906 343.49755859 C74.78545164 331.83403278 61.23024593 318.70942016 50 304 C49.21882813 303.03578125 48.43765625 302.0715625 47.6328125 301.078125 C30.87254593 280.24948132 19.03038551 256.02367353 10 231 C9.62488281 229.96907227 9.24976563 228.93814453 8.86328125 227.87597656 C-3.97869023 192.18800634 -10.94029134 154.79955558 -16.5 117.375 C-16.69354065 116.08361115 -16.8870813 114.79222229 -17.08648682 113.46170044 C-20.418521 91.18357539 -23.08541112 68.86977264 -25.26170349 46.449646 C-25.78027306 41.12288115 -26.34386637 35.80407017 -26.96484375 30.48828125 C-27.11002441 29.24054932 -27.25520508 27.99281738 -27.40478516 26.70727539 C-27.66183797 24.52755993 -27.92270374 22.34828754 -28.18896484 20.16967773 C-28.93543695 13.7529947 -29.13408804 7.45818189 -29 1 C-25.8543649 0.82945079 -22.70846763 0.66429189 -19.5625 0.5 C-18.24475586 0.42845703 -18.24475586 0.42845703 -16.90039062 0.35546875 C-15.59038086 0.28779297 -15.59038086 0.28779297 -14.25390625 0.21875 C-13.46314697 0.17685547 -12.6723877 0.13496094 -11.85766602 0.09179688 C-7.90475976 -0.03518243 -3.95457389 -0.01704689 0 0 Z " fill="#020202" transform="translate(237,881)"/>
</svg>
