<?xml version="1.0" encoding="UTF-8"?>
<!DOCTYPE svg PUBLIC "-//W3C//DTD SVG 1.1//EN" "http://www.w3.org/Graphics/SVG/1.1/DTD/svg11.dtd">
<svg xmlns="http://www.w3.org/2000/svg" version="1.1" width="1291px" height="3975px" style="shape-rendering:geometricPrecision; text-rendering:geometricPrecision; image-rendering:optimizeQuality; fill-rule:evenodd; clip-rule:evenodd" xmlns:xlink="http://www.w3.org/1999/xlink">
<g><path style="opacity:0.846" fill="#fcfcfc" d="M -0.5,-0.5 C 429.833,-0.5 860.167,-0.5 1290.5,-0.5C 1290.5,1324.5 1290.5,2649.5 1290.5,3974.5C 860.167,3974.5 429.833,3974.5 -0.5,3974.5C -0.5,2649.5 -0.5,1324.5 -0.5,-0.5 Z M 1286.5,3481.5 C 1282.75,3444.06 1277.25,3406.73 1270,3369.5C 1234.3,3183.68 1196.3,2998.35 1156,2813.5C 1137.79,2731.65 1118.79,2649.98 1099,2568.5C 1094.8,2554.1 1088.47,2540.77 1080,2528.5C 1073.33,2520.5 1066.67,2512.5 1060,2504.5C 1037.69,2483.2 1015.69,2461.53 994,2439.5C 986.826,2403.63 979.659,2367.8 972.5,2332C 995.29,2320.88 1014.12,2305.04 1029,2284.5C 1047.89,2254.71 1046.89,2225.71 1026,2197.5C 1010.19,2180.69 991.854,2167.35 971,2157.5C 970.5,2148.84 970.334,2140.17 970.5,2131.5C 1000.07,2123.63 1020.91,2105.63 1033,2077.5C 1044.45,2030.24 1027.95,1996.74 983.5,1977C 977.981,1974.66 972.314,1972.83 966.5,1971.5C 966.251,1959.47 966.584,1947.47 967.5,1935.5C 994.229,1929.23 1015.4,1914.9 1031,1892.5C 1046.52,1863.47 1042.02,1837.97 1017.5,1816C 1002.86,1804.35 986.531,1795.85 968.5,1790.5C 968.168,1777.48 968.501,1764.48 969.5,1751.5C 994.461,1747.78 1014.29,1735.78 1029,1715.5C 1047,1675.35 1037.84,1642.85 1001.5,1618C 992.016,1612.56 982.016,1608.4 971.5,1605.5C 970.5,1584.84 970.167,1564.18 970.5,1543.5C 1002.45,1542.32 1025.62,1527.66 1040,1499.5C 1051.01,1459.85 1039.18,1429.02 1004.5,1407C 993.055,1400.78 981.055,1395.94 968.5,1392.5C 966.833,1372.16 964.999,1351.83 963,1331.5C 955.583,1244.75 912.416,1183.58 833.5,1148C 758.596,1116.56 681.596,1110.23 602.5,1129C 553.483,1141.24 512.316,1166.07 479,1203.5C 454.875,1233.01 439.708,1266.67 433.5,1304.5C 400.744,1305.95 376.577,1320.95 361,1349.5C 351.643,1377.35 356.31,1402.69 375,1425.5C 390.122,1442.62 408.455,1454.96 430,1462.5C 430.691,1475.19 430.358,1487.86 429,1500.5C 412.224,1509.06 397.224,1520.06 384,1533.5C 362.759,1560.99 362.093,1588.99 382,1617.5C 394.992,1632.49 410.325,1644.49 428,1653.5C 428.667,1669.5 428.667,1685.5 428,1701.5C 410.821,1708.68 395.821,1719.01 383,1732.5C 364.683,1756.82 362.683,1782.49 377,1809.5C 388.977,1827.33 405.31,1839.33 426,1845.5C 426.833,1858.85 426.666,1872.18 425.5,1885.5C 408.036,1890.81 392.869,1899.81 380,1912.5C 361.009,1937.12 360.676,1962.12 379,1987.5C 391.898,2002.74 406.898,2015.4 424,2025.5C 424.5,2044.16 424.667,2062.83 424.5,2081.5C 400.101,2081.9 379.601,2090.9 363,2108.5C 347.431,2133.48 346.431,2159.14 360,2185.5C 374.435,2209.92 395.602,2225.08 423.5,2231C 422.504,2264.43 422.171,2297.93 422.5,2331.5C 403.653,2337.34 386.82,2346.67 372,2359.5C 360.671,2372.48 356.671,2387.48 360,2404.5C 364.233,2421.46 371.066,2437.3 380.5,2452C 355.288,2482.21 330.455,2512.71 306,2543.5C 295.068,2559.69 285.402,2576.69 277,2594.5C 262.447,2628.94 248.447,2663.61 235,2698.5C 193.06,2787 153.06,2876.33 115,2966.5C 79.6258,3049.96 50.6258,3135.62 28,3223.5C 14.2026,3279.01 7.86931,3335.34 9,3392.5C 13.621,3510.64 66.121,3600.14 166.5,3661C 215.341,3689.4 267.007,3711.4 321.5,3727C 394.674,3747.25 469.008,3761.59 544.5,3770C 684.142,3786.44 824.142,3790.78 964.5,3783C 1018.66,3779.79 1071.99,3771.45 1124.5,3758C 1212.46,3733.37 1264.96,3676.21 1282,3586.5C 1283.66,3576.71 1285.16,3567.04 1286.5,3557.5C 1286.5,3695.17 1286.5,3832.83 1286.5,3970.5C 858.833,3970.5 431.167,3970.5 3.5,3970.5C 3.5,2648.17 3.5,1325.83 3.5,3.5C 431.167,3.5 858.833,3.5 1286.5,3.5C 1286.5,1162.83 1286.5,2322.17 1286.5,3481.5 Z"/></g>
<g><path style="opacity:0.982" fill="#010101" d="M 1286.5,3481.5 C 1287.71,3506.83 1287.71,3532.16 1286.5,3557.5C 1285.16,3567.04 1283.66,3576.71 1282,3586.5C 1264.96,3676.21 1212.46,3733.37 1124.5,3758C 1071.99,3771.45 1018.66,3779.79 964.5,3783C 824.142,3790.78 684.142,3786.44 544.5,3770C 469.008,3761.59 394.674,3747.25 321.5,3727C 267.007,3711.4 215.341,3689.4 166.5,3661C 66.121,3600.14 13.621,3510.64 9,3392.5C 7.86931,3335.34 14.2026,3279.01 28,3223.5C 50.6258,3135.62 79.6258,3049.96 115,2966.5C 153.06,2876.33 193.06,2787 235,2698.5C 248.447,2663.61 262.447,2628.94 277,2594.5C 285.402,2576.69 295.068,2559.69 306,2543.5C 330.455,2512.71 355.288,2482.21 380.5,2452C 371.066,2437.3 364.233,2421.46 360,2404.5C 356.671,2387.48 360.671,2372.48 372,2359.5C 386.82,2346.67 403.653,2337.34 422.5,2331.5C 422.171,2297.93 422.504,2264.43 423.5,2231C 395.602,2225.08 374.435,2209.92 360,2185.5C 346.431,2159.14 347.431,2133.48 363,2108.5C 379.601,2090.9 400.101,2081.9 424.5,2081.5C 424.667,2062.83 424.5,2044.16 424,2025.5C 406.898,2015.4 391.898,2002.74 379,1987.5C 360.676,1962.12 361.009,1937.12 380,1912.5C 392.869,1899.81 408.036,1890.81 425.5,1885.5C 426.666,1872.18 426.833,1858.85 426,1845.5C 405.31,1839.33 388.977,1827.33 377,1809.5C 362.683,1782.49 364.683,1756.82 383,1732.5C 395.821,1719.01 410.821,1708.68 428,1701.5C 428.667,1685.5 428.667,1669.5 428,1653.5C 410.325,1644.49 394.992,1632.49 382,1617.5C 362.093,1588.99 362.759,1560.99 384,1533.5C 397.224,1520.06 412.224,1509.06 429,1500.5C 430.358,1487.86 430.691,1475.19 430,1462.5C 408.455,1454.96 390.122,1442.62 375,1425.5C 356.31,1402.69 351.643,1377.35 361,1349.5C 376.577,1320.95 400.744,1305.95 433.5,1304.5C 439.708,1266.67 454.875,1233.01 479,1203.5C 512.316,1166.07 553.483,1141.24 602.5,1129C 681.596,1110.23 758.596,1116.56 833.5,1148C 912.416,1183.58 955.583,1244.75 963,1331.5C 964.999,1351.83 966.833,1372.16 968.5,1392.5C 981.055,1395.94 993.055,1400.78 1004.5,1407C 1039.18,1429.02 1051.01,1459.85 1040,1499.5C 1025.62,1527.66 1002.45,1542.32 970.5,1543.5C 970.167,1564.18 970.5,1584.84 971.5,1605.5C 982.016,1608.4 992.016,1612.56 1001.5,1618C 1037.84,1642.85 1047,1675.35 1029,1715.5C 1014.29,1735.78 994.461,1747.78 969.5,1751.5C 968.501,1764.48 968.168,1777.48 968.5,1790.5C 986.531,1795.85 1002.86,1804.35 1017.5,1816C 1042.02,1837.97 1046.52,1863.47 1031,1892.5C 1015.4,1914.9 994.229,1929.23 967.5,1935.5C 966.584,1947.47 966.251,1959.47 966.5,1971.5C 972.314,1972.83 977.981,1974.66 983.5,1977C 1027.95,1996.74 1044.45,2030.24 1033,2077.5C 1020.91,2105.63 1000.07,2123.63 970.5,2131.5C 970.334,2140.17 970.5,2148.84 971,2157.5C 991.854,2167.35 1010.19,2180.69 1026,2197.5C 1046.89,2225.71 1047.89,2254.71 1029,2284.5C 1014.12,2305.04 995.29,2320.88 972.5,2332C 979.659,2367.8 986.826,2403.63 994,2439.5C 1015.69,2461.53 1037.69,2483.2 1060,2504.5C 1066.67,2512.5 1073.33,2520.5 1080,2528.5C 1088.47,2540.77 1094.8,2554.1 1099,2568.5C 1118.79,2649.98 1137.79,2731.65 1156,2813.5C 1196.3,2998.35 1234.3,3183.68 1270,3369.5C 1277.25,3406.73 1282.75,3444.06 1286.5,3481.5 Z"/></g>
<g><path style="opacity:1" fill="#b7b7b8" d="M 455.5,2498.5 C 430.661,2498.83 405.994,2498.5 381.5,2497.5C 393.363,2483.8 404.696,2469.63 415.5,2455C 407.625,2440.75 400.125,2426.25 393,2411.5C 389.546,2403.82 388.213,2395.82 389,2387.5C 391.777,2381.06 396.277,2376.22 402.5,2373C 418.146,2364.51 434.479,2357.68 451.5,2352.5C 451.69,2302.5 452.024,2252.5 452.5,2202.5C 424.442,2205.55 402.608,2195.55 387,2172.5C 378.391,2157.08 378.391,2141.74 387,2126.5C 395.283,2118.61 405.116,2113.78 416.5,2112C 429.162,2111.5 441.829,2111.33 454.5,2111.5C 454.667,2077.17 454.5,2042.83 454,2008.5C 437.61,1999.77 422.61,1989.11 409,1976.5C 403.486,1970.64 399.152,1963.98 396,1956.5C 394.873,1950.25 395.54,1944.25 398,1938.5C 406.334,1926.89 417.501,1919.06 431.5,1915C 439.579,1912.11 447.746,1909.61 456,1907.5C 456.5,1878.17 456.667,1848.84 456.5,1819.5C 435.725,1820.2 418.558,1812.87 405,1797.5C 394.722,1781.91 395.055,1766.58 406,1751.5C 420.344,1737.49 437.344,1728.16 457,1723.5C 458.264,1693.83 458.431,1664.17 457.5,1634.5C 435.856,1626.27 417.689,1613.27 403,1595.5C 396.141,1583.64 395.808,1571.64 402,1559.5C 411.06,1547.43 422.227,1537.93 435.5,1531C 443.287,1527.02 451.121,1523.19 459,1519.5C 459.5,1492.5 459.667,1465.5 459.5,1438.5C 430.733,1434.85 408.233,1421.19 392,1397.5C 379.621,1373.37 385.121,1354.54 408.5,1341C 413.887,1338.14 419.553,1336.14 425.5,1335C 437.119,1333.3 448.786,1332.14 460.5,1331.5C 463.536,1278.6 484.87,1234.76 524.5,1200C 564.533,1169.43 609.866,1152.43 660.5,1149C 718.612,1144.73 774.278,1154.4 827.5,1178C 880.758,1202.59 914.258,1243.43 928,1300.5C 935.14,1339.49 938.64,1378.82 938.5,1418.5C 957.922,1419.47 975.922,1424.97 992.5,1435C 1014.31,1450.42 1019.81,1470.26 1009,1494.5C 1000.45,1505.19 989.288,1511.36 975.5,1513C 964.453,1513.81 953.453,1513.64 942.5,1512.5C 940.951,1552.15 940.284,1591.82 940.5,1631.5C 959.473,1632.07 976.806,1637.57 992.5,1648C 1009.73,1662.73 1013.23,1680.23 1003,1700.5C 994.793,1711.35 983.959,1718.18 970.5,1721C 960.211,1722.3 949.878,1722.8 939.5,1722.5C 939.323,1752.5 938.99,1782.5 938.5,1812.5C 958.639,1816.93 977.305,1824.77 994.5,1836C 1012.22,1848.13 1015.05,1862.96 1003,1880.5C 985.647,1900.09 963.814,1909.76 937.5,1909.5C 936.895,1938.16 936.562,1966.83 936.5,1995.5C 955.35,1997.62 972.683,2003.78 988.5,2014C 1009.85,2032.58 1013.35,2054.08 999,2078.5C 991.1,2089.04 980.933,2096.54 968.5,2101C 959.373,2104.12 950.04,2106.28 940.5,2107.5C 940.167,2130.84 940.5,2154.18 941.5,2177.5C 960.231,2185.03 977.564,2194.86 993.5,2207C 1014.03,2223.65 1017.86,2243.48 1005,2266.5C 993.658,2282.17 979.491,2294.67 962.5,2304C 954.61,2306.1 946.61,2307.6 938.5,2308.5C 947.489,2357.59 956.989,2406.59 967,2455.5C 980.862,2469.7 995.029,2483.53 1009.5,2497C 824.834,2497.84 640.167,2498.34 455.5,2498.5 Z"/></g>
<g><path style="opacity:1" fill="#565657" d="M 381.5,2497.5 C 405.994,2498.5 430.661,2498.83 455.5,2498.5C 430.663,2499.83 405.663,2499.83 380.5,2498.5C 380.624,2497.89 380.957,2497.56 381.5,2497.5 Z"/></g>
<g><path style="opacity:1" fill="#fdfdfd" d="M 358.5,2533.5 C 585.834,2533.33 813.167,2533.5 1040.5,2534C 1051.11,2539.94 1058.94,2548.44 1064,2559.5C 1067.27,2566.97 1069.93,2574.63 1072,2582.5C 1135.31,2850.79 1192.64,3120.46 1244,3391.5C 1249.53,3423.01 1253.86,3454.68 1257,3486.5C 1259.74,3523.93 1257.07,3560.93 1249,3597.5C 1234.17,3656.33 1198.67,3697.16 1142.5,3720C 1127.19,3726.08 1111.52,3731.08 1095.5,3735C 1041.41,3746.18 986.742,3752.84 931.5,3755C 790.959,3760.53 650.959,3754.2 511.5,3736C 447.092,3727.52 383.758,3714.19 321.5,3696C 263.271,3679.21 209.271,3653.88 159.5,3620C 83.9925,3565.85 43.8258,3492.01 39,3398.5C 37.1411,3356.15 40.1411,3314.15 48,3272.5C 58.9193,3217.49 73.586,3163.49 92,3110.5C 120.346,3030.48 152.013,2951.81 187,2874.5C 211.393,2820.71 236.06,2767.05 261,2713.5C 274.471,2679.42 288.138,2645.42 302,2611.5C 312.879,2586.21 327.379,2563.38 345.5,2543C 349.901,2539.81 354.234,2536.65 358.5,2533.5 Z"/></g>
</svg>
