<?xml version="1.0" encoding="UTF-8"?>
<!DOCTYPE svg PUBLIC "-//W3C//DTD SVG 1.1//EN" "http://www.w3.org/Graphics/SVG/1.1/DTD/svg11.dtd">
<svg xmlns="http://www.w3.org/2000/svg" version="1.1" width="1053px" height="3975px" style="shape-rendering:geometricPrecision; text-rendering:geometricPrecision; image-rendering:optimizeQuality; fill-rule:evenodd; clip-rule:evenodd" xmlns:xlink="http://www.w3.org/1999/xlink">
<g><path style="opacity:0.955" fill="#fefefe" d="M -0.5,-0.5 C 350.5,-0.5 701.5,-0.5 1052.5,-0.5C 1052.5,1324.5 1052.5,2649.5 1052.5,3974.5C 701.5,3974.5 350.5,3974.5 -0.5,3974.5C -0.5,2649.5 -0.5,1324.5 -0.5,-0.5 Z M 1048.5,3.5 C 1048.67,213.834 1048.5,424.167 1048,634.5C 1043.29,583.452 1024.62,538.452 992,499.5C 964.954,471.834 932.787,452.334 895.5,441C 857.985,429.914 819.652,423.914 780.5,423C 716.073,421.702 652.073,426.369 588.5,437C 505.615,450.805 423.948,469.805 343.5,494C 296.772,508.798 250.105,523.798 203.5,539C 81.6683,587.075 15.0016,676.575 3.5,807.5C 3.5,539.5 3.5,271.5 3.5,3.5C 351.833,3.5 700.167,3.5 1048.5,3.5 Z M 1048.5,3970.5 C 700.167,3970.5 351.833,3970.5 3.5,3970.5C 3.5,2948.83 3.5,1927.17 3.5,905.5C 10.7465,975.569 24.2465,1044.57 44,1112.5C 71.4256,1204.11 102.426,1294.44 137,1383.5C 142.071,1398.71 146.738,1414.05 151,1429.5C 149.073,1451.84 147.073,1474.17 145,1496.5C 154.107,1513.71 162.94,1531.05 171.5,1548.5C 164.049,1565.02 157.882,1582.02 153,1599.5C 147.806,1621.57 153.306,1640.41 169.5,1656C 174.833,1660 180.167,1664 185.5,1668C 193.613,1672.14 201.447,1676.64 209,1681.5C 209.833,1718.5 209.667,1755.5 208.5,1792.5C 173.377,1804.13 152.211,1828.13 145,1864.5C 139.278,1892.66 146.778,1916.49 167.5,1936C 180.477,1945.83 195.144,1950.99 211.5,1951.5C 211.667,1972.84 211.5,1994.17 211,2015.5C 193.985,2027.52 179.652,2042.18 168,2059.5C 149.194,2095.14 155.361,2125.64 186.5,2151C 194.475,2156.14 202.808,2160.64 211.5,2164.5C 212.971,2180.14 213.471,2195.81 213,2211.5C 178.984,2224.84 161.151,2249.84 159.5,2286.5C 160.035,2313.4 171.035,2334.9 192.5,2351C 199.169,2355.67 206.169,2359.84 213.5,2363.5C 214.666,2382.49 214.833,2401.49 214,2420.5C 190.645,2433.85 173.645,2452.85 163,2477.5C 155.427,2501.77 158.761,2524.44 173,2545.5C 184.917,2560.95 199.25,2573.62 216,2583.5C 216.833,2598.51 216.666,2613.51 215.5,2628.5C 174.942,2646.11 152.609,2676.94 148.5,2721C 149.575,2753.84 164.909,2777.18 194.5,2791C 202.596,2793.57 210.763,2795.73 219,2797.5C 227.876,2862.27 257.71,2914.77 308.5,2955C 360.56,2989.68 417.893,3004.02 480.5,2998C 537.518,2992.97 587.851,2972.31 631.5,2936C 672.415,2897 695.915,2849.17 702,2792.5C 705.639,2761.88 708.472,2731.22 710.5,2700.5C 760.118,2683.93 782.618,2649.6 778,2597.5C 771.655,2570.49 755.489,2552.33 729.5,2543C 723.631,2541.14 717.631,2539.97 711.5,2539.5C 711.333,2516.16 711.5,2492.83 712,2469.5C 761.657,2450.86 780.99,2415.52 770,2363.5C 759.236,2336.41 739.569,2319.74 711,2313.5C 710.567,2301.83 710.067,2290.16 709.5,2278.5C 709.833,2275.17 710.167,2271.83 710.5,2268.5C 733.786,2259.45 752.62,2244.79 767,2224.5C 779.012,2200.65 778.012,2177.32 764,2154.5C 750.627,2133.9 732.127,2120.23 708.5,2113.5C 708.167,2099.48 708.501,2085.48 709.5,2071.5C 762.247,2049.67 781.747,2011.01 768,1955.5C 757.491,1928.49 738.658,1910.16 711.5,1900.5C 711.333,1889.83 711.5,1879.16 712,1868.5C 729.406,1858.76 744.739,1846.43 758,1831.5C 781.321,1800.47 783.654,1767.8 765,1733.5C 751.969,1711.97 734.802,1694.64 713.5,1681.5C 720.108,1642.19 726.608,1602.85 733,1563.5C 752.956,1538.54 773.289,1513.88 794,1489.5C 804,1465.5 814,1441.5 824,1417.5C 835.721,1396.72 846.388,1375.39 856,1353.5C 917.284,1211.33 971.284,1066.33 1018,918.5C 1032.12,861.893 1042.12,804.56 1048,746.5C 1048.5,1821.17 1048.67,2895.83 1048.5,3970.5 Z"/></g>
<g><path style="opacity:0.965" fill="#010101" d="M 1048.5,3.5 C 1049.35,1325.39 1049.68,2647.72 1049.5,3970.5C 1049.17,3970.5 1048.83,3970.5 1048.5,3970.5C 1048.67,2895.83 1048.5,1821.17 1048,746.5C 1042.12,804.56 1032.12,861.893 1018,918.5C 971.284,1066.33 917.284,1211.33 856,1353.5C 846.388,1375.39 835.721,1396.72 824,1417.5C 814,1441.5 804,1465.5 794,1489.5C 773.289,1513.88 752.956,1538.54 733,1563.5C 726.608,1602.85 720.108,1642.19 713.5,1681.5C 734.802,1694.64 751.969,1711.97 765,1733.5C 783.654,1767.8 781.321,1800.47 758,1831.5C 744.739,1846.43 729.406,1858.76 712,1868.5C 711.5,1879.16 711.333,1889.83 711.5,1900.5C 738.658,1910.16 757.491,1928.49 768,1955.5C 781.747,2011.01 762.247,2049.67 709.5,2071.5C 708.501,2085.48 708.167,2099.48 708.5,2113.5C 732.127,2120.23 750.627,2133.9 764,2154.5C 778.012,2177.32 779.012,2200.65 767,2224.5C 752.62,2244.79 733.786,2259.45 710.5,2268.5C 710.167,2271.83 709.833,2275.17 709.5,2278.5C 710.067,2290.16 710.567,2301.83 711,2313.5C 739.569,2319.74 759.236,2336.41 770,2363.5C 780.99,2415.52 761.657,2450.86 712,2469.5C 711.5,2492.83 711.333,2516.16 711.5,2539.5C 717.631,2539.97 723.631,2541.14 729.5,2543C 755.489,2552.33 771.655,2570.49 778,2597.5C 782.618,2649.6 760.118,2683.93 710.5,2700.5C 708.472,2731.22 705.639,2761.88 702,2792.5C 695.915,2849.17 672.415,2897 631.5,2936C 587.851,2972.31 537.518,2992.97 480.5,2998C 417.893,3004.02 360.56,2989.68 308.5,2955C 257.71,2914.77 227.876,2862.27 219,2797.5C 210.763,2795.73 202.596,2793.57 194.5,2791C 164.909,2777.18 149.575,2753.84 148.5,2721C 152.609,2676.94 174.942,2646.11 215.5,2628.5C 216.666,2613.51 216.833,2598.51 216,2583.5C 199.25,2573.62 184.917,2560.95 173,2545.5C 158.761,2524.44 155.427,2501.77 163,2477.5C 173.645,2452.85 190.645,2433.85 214,2420.5C 214.833,2401.49 214.666,2382.49 213.5,2363.5C 206.169,2359.84 199.169,2355.67 192.5,2351C 171.035,2334.9 160.035,2313.4 159.5,2286.5C 161.151,2249.84 178.984,2224.84 213,2211.5C 213.471,2195.81 212.971,2180.14 211.5,2164.5C 202.808,2160.64 194.475,2156.14 186.5,2151C 155.361,2125.64 149.194,2095.14 168,2059.5C 179.652,2042.18 193.985,2027.52 211,2015.5C 211.5,1994.17 211.667,1972.84 211.5,1951.5C 195.144,1950.99 180.477,1945.83 167.5,1936C 146.778,1916.49 139.278,1892.66 145,1864.5C 152.211,1828.13 173.377,1804.13 208.5,1792.5C 209.667,1755.5 209.833,1718.5 209,1681.5C 201.447,1676.64 193.613,1672.14 185.5,1668C 180.167,1664 174.833,1660 169.5,1656C 153.306,1640.41 147.806,1621.57 153,1599.5C 157.882,1582.02 164.049,1565.02 171.5,1548.5C 162.94,1531.05 154.107,1513.71 145,1496.5C 147.073,1474.17 149.073,1451.84 151,1429.5C 146.738,1414.05 142.071,1398.71 137,1383.5C 102.426,1294.44 71.4256,1204.11 44,1112.5C 24.2465,1044.57 10.7465,975.569 3.5,905.5C 3.82051,900.305 3.48717,895.305 2.5,890.5C 2.29063,862.823 2.62397,835.156 3.5,807.5C 15.0016,676.575 81.6683,587.075 203.5,539C 250.105,523.798 296.772,508.798 343.5,494C 423.948,469.805 505.615,450.805 588.5,437C 652.073,426.369 716.073,421.702 780.5,423C 819.652,423.914 857.985,429.914 895.5,441C 932.787,452.334 964.954,471.834 992,499.5C 1024.62,538.452 1043.29,583.452 1048,634.5C 1048.5,424.167 1048.67,213.834 1048.5,3.5 Z"/></g>
<g><path style="opacity:1" fill="#fdfdfd" d="M 713.5,452.5 C 759.092,450.684 804.425,453.184 849.5,460C 958.869,481.383 1016.04,547.883 1021,659.5C 1021.67,677.833 1021.67,696.167 1021,714.5C 1016.08,780.049 1005.74,844.715 990,908.5C 943.754,1054.58 890.421,1197.92 830,1338.5C 818.621,1365.09 805.788,1390.92 791.5,1416C 587.834,1416.5 384.167,1416.67 180.5,1416.5C 158.246,1355.57 136.079,1294.57 114,1233.5C 91.6207,1170.03 72.2874,1105.7 56,1040.5C 44.8447,991.721 37.178,942.387 33,892.5C 28.1908,834.308 35.1908,777.641 54,722.5C 81.8156,653.684 129.649,604.184 197.5,574C 289.106,540.097 382.439,511.763 477.5,489C 555.31,470.243 633.976,458.077 713.5,452.5 Z"/></g>
<g><path style="opacity:1" fill="#020202" d="M 752.5,870.5 C 761.699,873.764 770.699,877.597 779.5,882C 744.602,961.335 707.769,1039.84 669,1117.5C 646.176,1162.51 619.843,1205.18 590,1245.5C 574,1266.84 554.833,1284.67 532.5,1299C 506.478,1313.41 480.145,1314.07 453.5,1301C 432.57,1288.41 414.403,1272.57 399,1253.5C 371.412,1216.69 347.079,1177.69 326,1136.5C 300.204,1084.74 275.37,1032.58 251.5,980C 260.014,975.577 268.681,971.41 277.5,967.5C 303.577,1024.32 330.743,1080.65 359,1136.5C 379.78,1177.09 404.78,1214.75 434,1249.5C 439.134,1253.63 443.968,1258.13 448.5,1263C 458.851,1272.18 470.851,1278.18 484.5,1281C 500.942,1281.89 515.609,1277.22 528.5,1267C 546.453,1252.72 561.953,1236.22 575,1217.5C 611.636,1163.26 643.969,1106.26 672,1046.5C 699.669,988.165 726.503,929.498 752.5,870.5 Z"/></g>
<g><path style="opacity:0.059" fill="#f0f0f0" d="M 2.5,890.5 C 3.48717,895.305 3.82051,900.305 3.5,905.5C 3.5,1927.17 3.5,2948.83 3.5,3970.5C 351.833,3970.5 700.167,3970.5 1048.5,3970.5C 1048.83,3970.5 1049.17,3970.5 1049.5,3970.5C 700.667,3971.5 351.667,3971.83 2.5,3971.5C 2.5,2944.5 2.5,1917.5 2.5,890.5 Z"/></g>
<g><path style="opacity:1" fill="#b7b7b8" d="M 682.5,1850.5 C 681.833,1862.5 681.5,1874.66 681.5,1887C 681.501,1899.52 682.168,1911.69 683.5,1923.5C 719.506,1928.84 739.506,1949.5 743.5,1985.5C 741.936,2013.13 728.269,2031.96 702.5,2042C 694.743,2044.59 686.91,2046.75 679,2048.5C 678.5,2078.5 678.333,2108.5 678.5,2138.5C 710.676,2139.65 732.843,2154.98 745,2184.5C 746.883,2200.19 741.717,2213.02 729.5,2223C 714.781,2233.53 698.781,2241.69 681.5,2247.5C 680.5,2278.83 680.167,2310.16 680.5,2341.5C 695.687,2340.28 710.02,2343.11 723.5,2350C 743.014,2364.89 748.847,2384.06 741,2407.5C 734.349,2422.82 723.183,2433.32 707.5,2439C 699.035,2441.8 690.369,2443.63 681.5,2444.5C 682.117,2486.5 682.45,2528.5 682.5,2570.5C 693.133,2569.4 703.8,2569.24 714.5,2570C 741.113,2577.36 752.613,2594.86 749,2622.5C 744.629,2643.88 732.462,2659.04 712.5,2668C 702.182,2672.05 691.515,2674.55 680.5,2675.5C 680.266,2718.77 676.766,2761.77 670,2804.5C 655.526,2878.3 613.026,2928.14 542.5,2954C 482.531,2975.31 422.864,2974.64 363.5,2952C 317.607,2931.77 284.774,2898.61 265,2852.5C 253.381,2826.41 247.381,2799.07 247,2770.5C 232.579,2769.67 218.412,2767.17 204.5,2763C 181.807,2749.61 173.973,2730.11 181,2704.5C 192.681,2674.33 214.514,2656.33 246.5,2650.5C 246.833,2622.16 246.5,2593.83 245.5,2565.5C 230.181,2557.93 216.347,2548.26 204,2536.5C 183.386,2513.22 183.386,2489.88 204,2466.5C 215.934,2454.9 229.268,2445.23 244,2437.5C 244.5,2406.17 244.667,2374.84 244.5,2343.5C 228.306,2338.99 214.139,2330.99 202,2319.5C 183.282,2295.78 184.116,2272.78 204.5,2250.5C 215.259,2240.91 227.925,2236.24 242.5,2236.5C 242.833,2205.49 242.5,2174.49 241.5,2143.5C 225.996,2139.58 211.996,2132.75 199.5,2123C 187.697,2112.53 184.197,2099.69 189,2084.5C 191.895,2077.71 195.562,2071.37 200,2065.5C 212.183,2052.47 225.683,2041.14 240.5,2031.5C 240.866,1994.84 240.866,1958.18 240.5,1921.5C 228.473,1922.84 216.473,1922.67 204.5,1921C 179.165,1913.2 168.998,1896.03 174,1869.5C 182.421,1835.06 204.254,1818.72 239.5,1820.5C 239.813,1767.16 239.313,1713.82 238,1660.5C 220.445,1653.56 204.111,1644.56 189,1633.5C 181.898,1625.47 179.564,1616.13 182,1605.5C 187.757,1585.49 195.591,1566.32 205.5,1548C 194.904,1528.14 184.571,1508.14 174.5,1488C 176.568,1473.88 178.235,1459.72 179.5,1445.5C 379.501,1445.17 579.501,1445.5 779.5,1446.5C 775.625,1456.29 771.459,1465.96 767,1475.5C 746.571,1500.02 725.904,1524.35 705,1548.5C 696.581,1600.86 688.081,1653.19 679.5,1705.5C 692.663,1704.83 703.996,1709 713.5,1718C 726.742,1729.23 736.909,1742.73 744,1758.5C 748.866,1772.3 748.533,1785.97 743,1799.5C 736.506,1812.31 727.339,1822.81 715.5,1831C 704.874,1838.13 693.874,1844.63 682.5,1850.5 Z"/></g>
<g><path style="opacity:1" fill="#3f3f40" d="M 682.5,1850.5 C 682.177,1874.91 682.51,1899.24 683.5,1923.5C 682.168,1911.69 681.501,1899.52 681.5,1887C 681.5,1874.66 681.833,1862.5 682.5,1850.5 Z"/></g>
</svg>
