<?xml version="1.0" encoding="UTF-8"?>
<!DOCTYPE svg PUBLIC "-//W3C//DTD SVG 1.1//EN" "http://www.w3.org/Graphics/SVG/1.1/DTD/svg11.dtd">
<svg xmlns="http://www.w3.org/2000/svg" version="1.1" width="880px" height="3975px" style="shape-rendering:geometricPrecision; text-rendering:geometricPrecision; image-rendering:optimizeQuality; fill-rule:evenodd; clip-rule:evenodd" xmlns:xlink="http://www.w3.org/1999/xlink">
<g><path style="opacity:0.765" fill="#fdfdfd" d="M -0.5,-0.5 C 292.833,-0.5 586.167,-0.5 879.5,-0.5C 879.5,1324.5 879.5,2649.5 879.5,3974.5C 586.167,3974.5 292.833,3974.5 -0.5,3974.5C -0.5,2649.5 -0.5,1324.5 -0.5,-0.5 Z M 875.5,3370.5 C 871.906,3339.66 868.406,3308.66 865,3277.5C 858.601,3205.11 851.601,3132.78 844,3060.5C 824.309,2890.61 805.642,2720.61 788,2550.5C 785.799,2487.52 784.466,2424.52 784,2361.5C 783.154,2216.16 781.821,2070.83 780,1925.5C 778.601,1800 773.268,1674.66 764,1549.5C 762.273,1532.17 760.607,1514.84 759,1497.5C 747.928,1410.59 737.594,1323.59 728,1236.5C 717.957,1140.29 699.957,1045.62 674,952.5C 659.212,902.598 639.212,854.931 614,809.5C 575.907,741.74 522.407,689.907 453.5,654C 397.322,630.678 364.488,649.178 355,709.5C 353.634,718.123 352.634,726.79 352,735.5C 351.333,758.833 351.333,782.167 352,805.5C 354.171,854.149 355.838,902.816 357,951.5C 360.147,983.153 363.147,1014.82 366,1046.5C 370.898,1117.07 368.565,1187.4 359,1257.5C 354.188,1292.7 348.188,1327.7 341,1362.5C 322.156,1446.72 303.823,1531.05 286,1615.5C 268.828,1712.37 254.828,1809.7 244,1907.5C 228.201,2056.15 212.535,2204.82 197,2353.5C 190.508,2411.27 183.175,2468.94 175,2526.5C 125.741,2710.94 76.0748,2895.28 26,3079.5C 16.4823,3117.92 8.98226,3156.58 3.5,3195.5C 3.5,2131.5 3.5,1067.5 3.5,3.5C 294.167,3.5 584.833,3.5 875.5,3.5C 875.5,1125.83 875.5,2248.17 875.5,3370.5 Z M 3.5,3301.5 C 12.7831,3366.58 43.1164,3419.42 94.5,3460C 125.799,3482.83 159.466,3501.83 195.5,3517C 332.835,3578.58 476.502,3616.25 626.5,3630C 664.819,3632.46 702.819,3630.12 740.5,3623C 818.747,3606.28 863.747,3558.44 875.5,3479.5C 875.5,3643.17 875.5,3806.83 875.5,3970.5C 584.833,3970.5 294.167,3970.5 3.5,3970.5C 3.5,3747.5 3.5,3524.5 3.5,3301.5 Z"/></g>
<g><path style="opacity:0.983" fill="#010101" d="M 875.5,3370.5 C 876.544,3389.48 877.21,3408.48 877.5,3427.5C 877.524,3444.87 876.858,3462.2 875.5,3479.5C 863.747,3558.44 818.747,3606.28 740.5,3623C 702.819,3630.12 664.819,3632.46 626.5,3630C 476.502,3616.25 332.835,3578.58 195.5,3517C 159.466,3501.83 125.799,3482.83 94.5,3460C 43.1164,3419.42 12.7831,3366.58 3.5,3301.5C 0.944242,3266.17 0.944242,3230.84 3.5,3195.5C 8.98226,3156.58 16.4823,3117.92 26,3079.5C 76.0748,2895.28 125.741,2710.94 175,2526.5C 183.175,2468.94 190.508,2411.27 197,2353.5C 212.535,2204.82 228.201,2056.15 244,1907.5C 254.828,1809.7 268.828,1712.37 286,1615.5C 303.823,1531.05 322.156,1446.72 341,1362.5C 348.188,1327.7 354.188,1292.7 359,1257.5C 368.565,1187.4 370.898,1117.07 366,1046.5C 363.147,1014.82 360.147,983.153 357,951.5C 355.838,902.816 354.171,854.149 352,805.5C 351.333,782.167 351.333,758.833 352,735.5C 352.634,726.79 353.634,718.123 355,709.5C 364.488,649.178 397.322,630.678 453.5,654C 522.407,689.907 575.907,741.74 614,809.5C 639.212,854.931 659.212,902.598 674,952.5C 699.957,1045.62 717.957,1140.29 728,1236.5C 737.594,1323.59 747.928,1410.59 759,1497.5C 760.607,1514.84 762.273,1532.17 764,1549.5C 773.268,1674.66 778.601,1800 780,1925.5C 781.821,2070.83 783.154,2216.16 784,2361.5C 784.466,2424.52 785.799,2487.52 788,2550.5C 805.642,2720.61 824.309,2890.61 844,3060.5C 851.601,3132.78 858.601,3205.11 865,3277.5C 868.406,3308.66 871.906,3339.66 875.5,3370.5 Z"/></g>
<g><path style="opacity:1" fill="#fefefe" d="M 755.5,2480.5 C 755.5,2486.5 755.5,2492.5 755.5,2498.5C 573.5,2498.5 391.5,2498.5 209.5,2498.5C 216.387,2441.53 223.22,2384.53 230,2327.5C 245.806,2167.01 262.806,2006.67 281,1846.5C 291.513,1755.91 305.846,1665.91 324,1576.5C 341.047,1500.93 357.714,1425.27 374,1349.5C 394.471,1248.77 401.804,1147.11 396,1044.5C 394.106,1022.12 391.773,999.788 389,977.5C 387.087,920.484 384.754,863.484 382,806.5C 381.333,782.5 381.333,758.5 382,734.5C 382.01,718.098 385.344,702.432 392,687.5C 401.63,673.213 414.463,669.713 430.5,677C 483.878,701.034 527.711,736.867 562,784.5C 596.21,833.256 622.21,886.256 640,943.5C 656.096,996.407 669.096,1050.07 679,1104.5C 686.136,1147.73 692.47,1191.07 698,1234.5C 707.181,1320.61 717.181,1406.61 728,1492.5C 738.861,1617.27 745.527,1742.27 748,1867.5C 750.466,2071.83 752.966,2276.17 755.5,2480.5 Z"/></g>
<g><path style="opacity:1" fill="#cacaca" d="M 755.5,2480.5 C 756.49,2486.64 756.823,2492.98 756.5,2499.5C 573.999,2499.83 391.666,2499.5 209.5,2498.5C 391.5,2498.5 573.5,2498.5 755.5,2498.5C 755.5,2492.5 755.5,2486.5 755.5,2480.5 Z"/></g>
<g><path style="opacity:1" fill="#dadada" d="M 757.5,2536.5 C 756.532,2534.39 756.198,2532.06 756.5,2529.5C 572.43,2529.17 388.43,2529.5 204.5,2530.5C 388.497,2528.5 572.83,2527.83 757.5,2528.5C 757.5,2531.17 757.5,2533.83 757.5,2536.5 Z"/></g>
<g><path style="opacity:1" fill="#fefefe" d="M 757.5,2536.5 C 762.537,2593.21 768.037,2649.87 774,2706.5C 787.153,2823.51 800.486,2940.51 814,3057.5C 822.105,3134.09 829.438,3210.75 836,3287.5C 838.854,3313.85 841.854,3340.19 845,3366.5C 848.844,3401.81 849.177,3437.15 846,3472.5C 839.733,3533.58 807.233,3572.75 748.5,3590C 705.094,3600.82 661.094,3604.16 616.5,3600C 455.619,3583.26 302.952,3538.59 158.5,3466C 127.883,3449.73 101.049,3428.56 78,3402.5C 49.3284,3365.17 33.6617,3322.84 31,3275.5C 29.6855,3236.57 32.3521,3197.9 39,3159.5C 44.2488,3132.34 50.2488,3105.34 57,3078.5C 106.485,2895.89 155.652,2713.22 204.5,2530.5C 388.43,2529.5 572.43,2529.17 756.5,2529.5C 756.198,2532.06 756.532,2534.39 757.5,2536.5 Z"/></g>
</svg>
