<?xml version="1.0" encoding="UTF-8"?>
<!DOCTYPE svg PUBLIC "-//W3C//DTD SVG 1.1//EN" "http://www.w3.org/Graphics/SVG/1.1/DTD/svg11.dtd">
<svg xmlns="http://www.w3.org/2000/svg" version="1.1" width="880px" height="3975px" style="shape-rendering:geometricPrecision; text-rendering:geometricPrecision; image-rendering:optimizeQuality; fill-rule:evenodd; clip-rule:evenodd" xmlns:xlink="http://www.w3.org/1999/xlink">
<g><path style="opacity:0.764" fill="#fdfdfd" d="M -0.5,-0.5 C 292.833,-0.5 586.167,-0.5 879.5,-0.5C 879.5,1324.5 879.5,2649.5 879.5,3974.5C 586.167,3974.5 292.833,3974.5 -0.5,3974.5C -0.5,2649.5 -0.5,1324.5 -0.5,-0.5 Z M 875.5,3371.5 C 871.167,3334.34 867,3297 863,3259.5C 855.781,3174.43 847.781,3089.43 839,3004.5C 821.675,2852.24 805.008,2699.91 789,2547.5C 788.153,2533.97 782.653,2522.81 772.5,2514C 766.085,2509.71 759.585,2505.54 753,2501.5C 740,2481.5 727,2461.5 714,2441.5C 708.446,2405.68 702.946,2369.84 697.5,2334C 697.833,2332.83 698.167,2331.67 698.5,2330.5C 725.234,2313.71 742.734,2290.05 751,2259.5C 755.783,2233.63 749.783,2210.63 733,2190.5C 721.837,2178.66 709.503,2168.33 696,2159.5C 695.168,2150.15 695.335,2140.82 696.5,2131.5C 726.279,2118.53 743.445,2095.87 748,2063.5C 751.359,2023.71 735.525,1994.54 700.5,1976C 697.904,1974.86 695.237,1974.03 692.5,1973.5C 692.333,1961.16 692.5,1948.83 693,1936.5C 723.005,1924.84 742.005,1903.5 750,1872.5C 752.542,1845.08 742.708,1823.25 720.5,1807C 711.926,1801.43 703.093,1796.27 694,1791.5C 693.488,1778.16 693.655,1764.83 694.5,1751.5C 726.756,1743.38 744.923,1722.71 749,1689.5C 750.893,1649.59 733.393,1622.26 696.5,1607.5C 695.334,1586.51 695.167,1565.51 696,1544.5C 729.98,1538.18 749.313,1517.85 754,1483.5C 755.614,1439.37 735.781,1409.71 694.5,1394.5C 692.445,1369.19 690.279,1343.85 688,1318.5C 676.473,1210.98 617.973,1145.82 512.5,1123C 452.125,1112.11 396.459,1123.45 345.5,1157C 306.905,1186.97 281.405,1225.8 269,1273.5C 266.358,1283.71 264.358,1294.04 263,1304.5C 224.366,1312.97 203.866,1336.97 201.5,1376.5C 204.572,1416.4 224.072,1445.06 260,1462.5C 260.667,1475.83 260.667,1489.17 260,1502.5C 237.757,1515.66 222.09,1534.32 213,1558.5C 206.891,1585.83 213.225,1609.83 232,1630.5C 240.256,1639.12 249.256,1646.78 259,1653.5C 259.259,1670.5 258.926,1687.5 258,1704.5C 219.59,1724.66 204.923,1755.99 214,1798.5C 221.387,1820.55 235.72,1836.22 257,1845.5C 257.833,1859.51 257.666,1873.51 256.5,1887.5C 210.685,1908.84 198.518,1942.17 220,1987.5C 229.918,2002.09 241.918,2014.75 256,2025.5C 256.667,2043.17 256.667,2060.83 256,2078.5C 255.781,2079.94 255.281,2081.27 254.5,2082.5C 222.449,2086.72 203.615,2104.72 198,2136.5C 194.515,2170.41 205.681,2198.24 231.5,2220C 238.423,2225.13 246.089,2228.63 254.5,2230.5C 254.667,2264.5 254.5,2298.5 254,2332.5C 239.236,2339.38 226.236,2348.71 215,2360.5C 204.542,2375.71 201.542,2392.38 206,2410.5C 209.591,2425.27 214.757,2439.44 221.5,2453C 208.333,2472.17 195.167,2491.33 182,2510.5C 179.697,2516.97 178.03,2523.64 177,2530.5C 172.373,2538.04 168.706,2546.04 166,2554.5C 120.354,2727.77 73.6878,2900.77 26,3073.5C 16.654,3110.6 9.15399,3147.94 3.5,3185.5C 3.5,2124.83 3.5,1064.17 3.5,3.5C 294.167,3.5 584.833,3.5 875.5,3.5C 875.5,1126.17 875.5,2248.83 875.5,3371.5 Z M 3.5,3308.5 C 17.7661,3384.59 58.0995,3442.42 124.5,3482C 208.888,3528.02 297.554,3563.69 390.5,3589C 465.541,3610.27 541.874,3624.61 619.5,3632C 653.238,3634.5 686.904,3633.84 720.5,3630C 809.851,3618.81 861.518,3568.98 875.5,3480.5C 875.5,3643.83 875.5,3807.17 875.5,3970.5C 584.833,3970.5 294.167,3970.5 3.5,3970.5C 3.5,3749.83 3.5,3529.17 3.5,3308.5 Z"/></g>
<g><path style="opacity:0.982" fill="#010101" d="M 875.5,3371.5 C 876.098,3392.83 876.764,3414.17 877.5,3435.5C 876.99,3450.51 876.323,3465.51 875.5,3480.5C 861.518,3568.98 809.851,3618.81 720.5,3630C 686.904,3633.84 653.238,3634.5 619.5,3632C 541.874,3624.61 465.541,3610.27 390.5,3589C 297.554,3563.69 208.888,3528.02 124.5,3482C 58.0995,3442.42 17.7661,3384.59 3.5,3308.5C -0.476786,3267.51 -0.476786,3226.51 3.5,3185.5C 9.15399,3147.94 16.654,3110.6 26,3073.5C 73.6878,2900.77 120.354,2727.77 166,2554.5C 168.706,2546.04 172.373,2538.04 177,2530.5C 178.03,2523.64 179.697,2516.97 182,2510.5C 195.167,2491.33 208.333,2472.17 221.5,2453C 214.757,2439.44 209.591,2425.27 206,2410.5C 201.542,2392.38 204.542,2375.71 215,2360.5C 226.236,2348.71 239.236,2339.38 254,2332.5C 254.5,2298.5 254.667,2264.5 254.5,2230.5C 246.089,2228.63 238.423,2225.13 231.5,2220C 205.681,2198.24 194.515,2170.41 198,2136.5C 203.615,2104.72 222.449,2086.72 254.5,2082.5C 255.281,2081.27 255.781,2079.94 256,2078.5C 256.667,2060.83 256.667,2043.17 256,2025.5C 241.918,2014.75 229.918,2002.09 220,1987.5C 198.518,1942.17 210.685,1908.84 256.5,1887.5C 257.666,1873.51 257.833,1859.51 257,1845.5C 235.72,1836.22 221.387,1820.55 214,1798.5C 204.923,1755.99 219.59,1724.66 258,1704.5C 258.926,1687.5 259.259,1670.5 259,1653.5C 249.256,1646.78 240.256,1639.12 232,1630.5C 213.225,1609.83 206.891,1585.83 213,1558.5C 222.09,1534.32 237.757,1515.66 260,1502.5C 260.667,1489.17 260.667,1475.83 260,1462.5C 224.072,1445.06 204.572,1416.4 201.5,1376.5C 203.866,1336.97 224.366,1312.97 263,1304.5C 264.358,1294.04 266.358,1283.71 269,1273.5C 281.405,1225.8 306.905,1186.97 345.5,1157C 396.459,1123.45 452.125,1112.11 512.5,1123C 617.973,1145.82 676.473,1210.98 688,1318.5C 690.279,1343.85 692.445,1369.19 694.5,1394.5C 735.781,1409.71 755.614,1439.37 754,1483.5C 749.313,1517.85 729.98,1538.18 696,1544.5C 695.167,1565.51 695.334,1586.51 696.5,1607.5C 733.393,1622.26 750.893,1649.59 749,1689.5C 744.923,1722.71 726.756,1743.38 694.5,1751.5C 693.655,1764.83 693.488,1778.16 694,1791.5C 703.093,1796.27 711.926,1801.43 720.5,1807C 742.708,1823.25 752.542,1845.08 750,1872.5C 742.005,1903.5 723.005,1924.84 693,1936.5C 692.5,1948.83 692.333,1961.16 692.5,1973.5C 695.237,1974.03 697.904,1974.86 700.5,1976C 735.525,1994.54 751.359,2023.71 748,2063.5C 743.445,2095.87 726.279,2118.53 696.5,2131.5C 695.335,2140.82 695.168,2150.15 696,2159.5C 709.503,2168.33 721.837,2178.66 733,2190.5C 749.783,2210.63 755.783,2233.63 751,2259.5C 742.734,2290.05 725.234,2313.71 698.5,2330.5C 698.167,2331.67 697.833,2332.83 697.5,2334C 702.946,2369.84 708.446,2405.68 714,2441.5C 727,2461.5 740,2481.5 753,2501.5C 759.585,2505.54 766.085,2509.71 772.5,2514C 782.653,2522.81 788.153,2533.97 789,2547.5C 805.008,2699.91 821.675,2852.24 839,3004.5C 847.781,3089.43 855.781,3174.43 863,3259.5C 867,3297 871.167,3334.34 875.5,3371.5 Z"/></g>
<g><path style="opacity:1" fill="#b7b7b8" d="M 447.5,1149.5 C 498.034,1145.55 544.367,1157.38 586.5,1185C 625.819,1214.74 648.986,1254.24 656,1303.5C 661.122,1341.65 664.122,1379.99 665,1418.5C 679.468,1419.82 692.634,1424.65 704.5,1433C 725.264,1451.82 729.764,1473.99 718,1499.5C 712.023,1507.24 704.19,1512.08 694.5,1514C 684.814,1514.66 675.148,1514.49 665.5,1513.5C 665.167,1552.84 665.5,1592.17 666.5,1631.5C 679.545,1632.79 691.545,1636.96 702.5,1644C 720.722,1661.35 724.556,1681.52 714,1704.5C 707.192,1714.82 697.692,1720.99 685.5,1723C 678.508,1723.5 671.508,1723.67 664.5,1723.5C 664.167,1753.17 664.5,1782.84 665.5,1812.5C 680.335,1817.58 694.001,1824.75 706.5,1834C 723.948,1851.33 725.114,1869.83 710,1889.5C 697.625,1903.85 681.958,1911.19 663,1911.5C 662.333,1939.5 662.333,1967.5 663,1995.5C 676.715,1997.78 689.215,2002.94 700.5,2011C 716.893,2026.19 722.393,2044.69 717,2066.5C 711.77,2085.06 700.27,2097.89 682.5,2105C 676.906,2106.27 671.406,2107.77 666,2109.5C 665.167,2132.17 665.334,2154.84 666.5,2177.5C 684.477,2186.31 699.977,2198.31 713,2213.5C 722.476,2226.86 725.142,2241.53 721,2257.5C 715.414,2273.42 706.247,2286.92 693.5,2298C 689.016,2302.08 684.016,2305.41 678.5,2308C 673.344,2308.09 668.344,2308.92 663.5,2310.5C 671.231,2358.11 678.731,2405.78 686,2453.5C 696.5,2469.33 707,2485.17 717.5,2501C 552.5,2501.67 387.5,2501.67 222.5,2501C 233.866,2486.43 244.866,2471.6 255.5,2456.5C 248.651,2442.12 242.484,2427.45 237,2412.5C 233.621,2403.67 232.954,2394.67 235,2385.5C 237.074,2380.53 240.241,2376.36 244.5,2373C 256.401,2364.88 269.068,2358.05 282.5,2352.5C 284.142,2302.85 284.809,2253.18 284.5,2203.5C 258.008,2206.34 240.174,2195.34 231,2170.5C 226.569,2158.31 225.902,2145.98 229,2133.5C 233.534,2122.3 241.701,2115.46 253.5,2113C 264.161,2112.5 274.828,2112.33 285.5,2112.5C 285.833,2078.16 285.5,2043.83 284.5,2009.5C 271.88,2000.44 260.38,1990.1 250,1978.5C 230.824,1950.39 236.657,1929.23 267.5,1915C 274.019,1912.33 280.686,1910.16 287.5,1908.5C 287.5,1879.17 287.5,1849.83 287.5,1820.5C 254.493,1818.32 238.993,1800.65 241,1767.5C 244.228,1754.87 251.061,1744.7 261.5,1737C 269.85,1731.58 278.683,1727.08 288,1723.5C 288.667,1694.5 288.667,1665.5 288,1636.5C 275.865,1629.7 264.865,1621.37 255,1611.5C 235.699,1589.08 235.699,1566.75 255,1544.5C 265.553,1534.61 277.22,1526.28 290,1519.5C 290.5,1493.17 290.667,1466.84 290.5,1440.5C 265.973,1436 248.14,1422.67 237,1400.5C 229.503,1384.28 229.836,1368.28 238,1352.5C 243.92,1344.24 251.753,1338.74 261.5,1336C 271.083,1334.12 280.749,1332.95 290.5,1332.5C 291.952,1282.95 308.452,1239.29 340,1201.5C 369.78,1171.69 405.613,1154.36 447.5,1149.5 Z"/></g>
<g><path style="opacity:1" fill="#fdfdfd" d="M 214.5,2534.5 C 394.174,2534.04 573.841,2534.87 753.5,2537C 757.972,2540.78 760.139,2545.61 760,2551.5C 776.021,2707.95 793.021,2864.29 811,3020.5C 820.114,3109.76 828.448,3199.09 836,3288.5C 842.611,3334.94 846.778,3381.61 848.5,3428.5C 849.243,3460.08 844.41,3490.75 834,3520.5C 823.247,3546.26 805.747,3566.09 781.5,3580C 759.569,3591.63 736.236,3598.63 711.5,3601C 661.632,3605.42 611.966,3603.75 562.5,3596C 419.396,3574.19 283.396,3530.52 154.5,3465C 119.822,3446.33 90.6553,3421.16 67,3389.5C 46.4676,3358.24 34.4676,3323.91 31,3286.5C 27.4555,3243.19 29.7889,3200.19 38,3157.5C 42.8947,3130.25 48.8947,3103.25 56,3076.5C 103.124,2905 149.457,2733.33 195,2561.5C 198.334,2550.03 204.834,2541.03 214.5,2534.5 Z"/></g>
</svg>
