<?xml version="1.0" encoding="UTF-8"?>
<svg version="1.1" xmlns="http://www.w3.org/2000/svg" width="1053" height="3976">
<path d="M0 0 C347.49 0 694.98 0 1053 0 C1053 1312.08 1053 2624.16 1053 3976 C705.51 3976 358.02 3976 0 3976 C0 2663.92 0 1351.84 0 0 Z M4 4 C4 274.27 4 544.54 4 823 C4.33 823 4.66 823 5 823 C5.09704224 821.87247314 5.09704224 821.87247314 5.19604492 820.72216797 C7.53584978 794.15082181 11.04958186 767.80838446 18 742 C18.31807617 740.80068848 18.31807617 740.80068848 18.64257812 739.57714844 C28.11279467 704.42427001 44.125371 669.46620498 67 641 C67.73734375 640.071875 68.4746875 639.14375 69.234375 638.1875 C75.31197722 630.64289035 81.60160226 623.24847598 88.5625 616.5 C91.23270005 614.34326986 91.23270005 614.34326986 91 612 C91.89525391 611.59974609 91.89525391 611.59974609 92.80859375 611.19140625 C95.04574324 609.97513068 96.34420067 608.79642741 98.0625 606.9375 C102.68857077 602.18374575 107.80856449 598.11664613 113 594 C113.99 593.20464844 114.98 592.40929687 116 591.58984375 C156.15875303 559.91462729 203.71135437 541.85059822 252.11181641 527.03881836 C260.42062514 524.48177106 268.68337012 521.79869198 276.93359375 519.05859375 C372.44547642 487.35874252 469.89695529 461.27025613 685.5 429.3125 C686.28677124 429.25165222 687.07354248 429.19080444 687.88415527 429.12811279 C693.25399288 428.71777375 698.62560609 428.34535144 704 428 C704.75363831 427.9505423 705.50727661 427.90108459 706.28375244 427.85012817 C721.80684955 426.86077607 737.32482678 426.80033895 752.875 426.8125 C754.1819281 426.81277191 755.4888562 426.81304382 756.83538818 426.81332397 C775.63561468 426.8313233 794.28606378 427.04871352 813 429 C814.07072754 429.10715332 815.14145508 429.21430664 816.24462891 429.32470703 C866.04557982 434.42583321 917.63778387 446.4391918 959 476 C959.97195313 476.68578125 960.94390625 477.3715625 961.9453125 478.078125 C969.29391232 483.41209562 975.95773882 489.29490436 982.50097656 495.56835938 C983.84953597 496.8562995 985.21664316 498.12475168 986.5859375 499.390625 C1026.96985385 537.81415706 1044.74882201 598.85107006 1048 653 C1048.33 653 1048.66 653 1049 653 C1049 438.83 1049 224.66 1049 4 C704.15 4 359.3 4 4 4 Z M1048 731 C1047.88519287 732.27375488 1047.77038574 733.54750977 1047.65209961 734.85986328 C1043.35128483 782.08449613 1036.25749995 828.50098155 1027 875 C1026.70706055 876.47336823 1026.70706055 876.47336823 1026.40820312 877.97650146 C1017.69187412 921.66692081 1006.68885841 964.60298549 993 1007 C992.73036438 1007.83835388 992.46072876 1008.67670776 992.18292236 1009.54046631 C968.02772707 1084.60735363 937.44707587 1157.57971736 904.97851562 1229.39099121 C902.61754507 1234.6169891 900.28212395 1239.85387437 897.9609375 1245.09765625 C897.62801193 1245.84972351 897.29508636 1246.60179077 896.95207214 1247.37664795 C896.28123037 1248.89233664 895.61042851 1250.40804299 894.93966675 1251.92376709 C889.05329889 1265.22012188 883.06537316 1278.4661012 876.99871826 1291.68109131 C871.25770194 1304.19176792 865.63091082 1316.75019463 860.05932617 1329.3371582 C859.38854835 1330.85239367 858.7177312 1332.36761173 858.046875 1333.8828125 C857.71359695 1334.63561996 857.38031891 1335.38842743 857.03694153 1336.16404724 C854.69463414 1341.44871642 852.32970496 1346.72285248 849.953125 1351.9921875 C840.7510727 1372.41162155 831.82000082 1392.93610565 823.04223633 1413.54174805 C822.61092911 1414.55342041 822.17962189 1415.56509277 821.73524475 1416.60742188 C820.93357838 1418.48877619 820.13312325 1420.37064737 819.33421326 1422.25317383 C818.96836624 1423.11217285 818.60251923 1423.97117187 818.22558594 1424.85620117 C817.86715607 1425.70656952 817.5087262 1426.55693787 817.13943481 1427.43307495 C816.36724934 1429.17265865 815.5392905 1430.88834518 814.66305542 1432.57791138 C810.79435696 1440.19909409 809.98566286 1447.27502448 809.4765625 1455.71875 C809.36709747 1457.26450474 809.25556405 1458.81011403 809.14224243 1460.35559082 C808.88675708 1463.88807156 808.6441608 1467.42116726 808.40930176 1470.95507812 C807.96336372 1477.61817275 807.47236208 1484.27773626 806.97949219 1490.9375 C806.24208865 1500.92788922 805.51208131 1510.91875289 804.79151785 1520.91036808 C798.11880868 1613.42732365 790.71518686 1705.87089756 772 1896 C771.92133698 1896.73276909 771.84267395 1897.46553818 771.7616272 1898.22051239 C762.97248601 1979.99319925 752.66182318 2061.58843944 741 2143 C740.88767281 2143.78505165 740.77534561 2144.5701033 740.65961456 2145.3789444 C729.0416249 2226.53765693 715.70336001 2307.52916739 700 2388 C699.736427 2389.35160847 699.736427 2389.35160847 699.4675293 2390.73052216 C683.35146865 2473.34060779 666.0068635 2555.62602353 632 2693 C631.70909485 2694.1419281 631.4181897 2695.2838562 631.11846924 2696.46038818 C622.79963171 2729.07931568 614.07515547 2761.58344602 605 2794 C604.72478516 2794.98417908 604.44957031 2795.96835815 604.16601562 2796.98236084 C579.11245291 2886.47185692 545.77255316 2973.2230255 465 3135 C464.12674072 3136.49926025 464.12674072 3136.49926025 463.23583984 3138.02880859 C398.03676986 3249.49592664 398.03676986 3249.49592664 343.59375 3265.08984375 C327.56265583 3269.1498926 312.93556064 3266.48918712 298.70068359 3258.09375 C264.3958909 3236.03152329 252.68384739 3185.62447255 244.59463501 3148.42915344 C239.65915829 3125.27740397 235.96292961 3101.90247841 232.875 3078.4375 C232.72844971 3077.32995361 232.58189941 3076.22240723 232.4309082 3075.08129883 C231.92076507 3071.05778265 231.45797539 3067.02969773 231 3063 C230.88418829 3061.9952514 230.76837659 3060.9905028 230.64905543 3059.95530728 C228.53211538 3041.29695084 227.50356859 3022.88749351 227.35044098 3004.0984087 C227.31889102 3001.43588904 227.28630224 2998.77340159 227.2523624 2996.11091333 C227.18510423 2990.68624219 227.12653596 2985.26154907 227.07555115 2979.83670117 C227.00713617 2972.58552188 226.92307093 2965.33461561 226.83419323 2958.08366239 C226.68214578 2945.43813149 226.55384612 2932.79241742 226.42972548 2920.14658581 C226.37186307 2914.29268201 226.31210764 2908.43879754 226.25245125 2902.58491181 C226.12957543 2890.52146157 226.00844986 2878.45799439 225.88837242 2866.39451599 C225.7671598 2854.21785369 225.64506858 2842.04120063 225.52196693 2829.86455727 C225.51018077 2828.69866182 225.51018077 2828.69866182 225.4981565 2827.50921293 C225.45806512 2823.54376593 225.4179593 2819.57831908 225.37784781 2815.61287229 C225.08949512 2787.10375326 224.80292782 2758.59461653 224.51728821 2730.0854702 C224.23447438 2701.85937644 223.95068814 2673.63329268 223.66569519 2645.40722084 C223.65679586 2644.52579713 223.64789652 2643.64437342 223.63872751 2642.7362399 C223.53925101 2632.88393367 223.43974496 2623.03162774 223.34022707 2613.17932192 C223.15624413 2594.96482384 222.97238896 2576.75032448 222.78856659 2558.53582478 C222.77937296 2557.62486762 222.77017932 2556.71391046 222.7607071 2555.77534853 C222.32429888 2512.53289502 221.88906641 2469.2904297 221.45409784 2426.04796169 C221.4252852 2423.1835542 221.39647202 2420.31914672 221.3676587 2417.45473924 C221.15566444 2396.37975629 220.94369688 2375.30477308 220.73174286 2354.22978973 C220.35574213 2316.84334817 219.97968398 2279.45690718 219.60351986 2242.07046726 C219.57471504 2239.20758345 219.5459108 2236.34469963 219.51710662 2233.48181581 C219.08243244 2190.27938986 218.64742458 2147.07696731 218.21143341 2103.87455463 C218.19765369 2102.50909501 218.19765369 2102.50909501 218.18359558 2101.11605035 C217.99995969 2082.91934863 217.81627853 2064.72264738 217.63249906 2046.52594711 C217.53307995 2036.68204044 217.43368129 2026.83813356 217.33430481 2016.99422646 C217.32541642 2016.11379014 217.31652803 2015.23335383 217.3073703 2014.32623763 C217.01387595 1985.25293756 216.72180071 1956.17962342 216.43042536 1927.10630204 C216.15409738 1899.53504626 215.87666741 1871.96380176 215.59792732 1844.39257025 C215.55795076 1840.43826226 215.51798768 1836.48395413 215.47803307 1832.52964592 C215.47020282 1831.75472409 215.46237258 1830.97980226 215.45430506 1830.18139795 C215.3466757 1819.5269228 215.23984276 1808.87243994 215.13369688 1798.21794991 C215.0900427 1793.83760843 215.04629358 1789.45726789 215.00253852 1785.07692741 C214.96701653 1781.52035555 214.93154572 1777.9637832 214.8961935 1774.40720965 C214.75102254 1759.81059691 214.60121021 1745.21406373 214.43467617 1730.61767519 C214.393164 1726.96198134 214.35168072 1723.30628717 214.31023621 1719.65059256 C214.28358171 1717.30284095 214.25680106 1714.95509076 214.22988851 1712.60734209 C214.0740132 1698.90235723 213.96875232 1685.19910822 213.94750013 1671.49326706 C213.93700544 1666.98595833 213.90968521 1662.47872626 213.88018482 1657.97150588 C213.85363823 1653.59715481 213.87094531 1649.22451858 213.89984369 1644.85024375 C213.84999721 1624.05517615 208.56205817 1604.48448941 201.64794922 1584.96875 C197.008257 1571.35905827 193.10098747 1557.58264734 189.27272415 1543.73034668 C187.60603992 1537.70792875 185.89950495 1531.69676121 184.19678378 1525.68445587 C183.24510694 1522.32323515 182.29525022 1518.96150123 181.34594727 1515.59960938 C181.15754379 1514.93241001 180.96914031 1514.26521065 180.77502763 1513.57779312 C179.43806245 1508.83955197 178.10969619 1504.0989451 176.78442383 1499.35742188 C167.41649056 1465.85711417 157.27572264 1432.87318966 144.88788223 1400.34040833 C143.57074306 1396.86850251 142.27868603 1393.38745568 140.98901367 1389.90527344 C138.93506852 1384.3711355 136.86048582 1378.84523464 134.77203369 1373.32403564 C132.57802904 1367.52122161 130.39674876 1361.71362219 128.21484375 1355.90625 C127.77648193 1354.73977936 127.33812012 1353.57330872 126.88647461 1352.37149048 C109.43140295 1305.87995417 92.60186358 1259.16909781 76.72851562 1212.11376953 C75.3911135 1208.15136793 74.04217522 1204.19306518 72.68745422 1200.23655701 C43.80857779 1115.81302479 20.18352149 1028.28354656 5 893 C4.67 893 4.34 893 4 893 C4 1909.07 4 2925.14 4 3972 C348.85 3972 693.7 3972 1049 3972 C1049 2902.47 1049 1832.94 1049 731 C1048.67 731 1048.34 731 1048 731 Z " fill="#FEFEFE" transform="translate(0,0)"/>
<path d="M0 0 C193.38 0 386.76 0 586 0 C586 16.06158836 586 16.06158836 585.37890625 23.8515625 C585.31468979 24.71655365 585.25047333 25.5815448 585.18431091 26.4727478 C584.98190319 29.19055828 584.7727346 31.9077848 584.5625 34.625 C584.28969916 38.20028044 584.020441 41.77580962 583.75390625 45.3515625 C583.68805328 46.22798401 583.62220032 47.10440552 583.55435181 48.00738525 C583.03094476 55.1491442 582.65418609 62.29392788 582.36390686 69.44888306 C582.33010422 70.22162567 582.29630157 70.99436829 582.26147461 71.79052734 C582.23476181 72.46095062 582.20804901 73.1313739 582.18052673 73.82211304 C582 76 582 76 581.51724243 78.8462677 C580.97900666 82.12800066 580.69393623 85.35192692 580.46264648 88.66918945 C580.41665093 89.31617231 580.37065538 89.96315517 580.32326603 90.62974358 C580.22312587 92.04257249 580.12426507 93.45549254 580.02653503 94.86849022 C579.86646442 97.18013529 579.70269014 99.4914929 579.53796387 101.80281067 C579.29695495 105.18595722 579.05701559 108.56917692 578.81784058 111.95245361 C574.05391694 179.21134472 568.5205004 246.42556378 562.31646729 313.5670166 C561.97780244 317.24079537 561.64177288 320.91480909 561.30615234 324.58886719 C558.06965191 359.98411437 554.60776014 395.34911257 550.78857422 430.68701172 C550.24907118 435.68033821 549.71457825 440.67416564 549.18408203 445.66845703 C545.28340549 482.38491696 540.95879909 519.02878843 536.30082703 555.65670776 C535.06986213 565.36792923 533.92057638 575.08662826 532.8125 584.8125 C531.29465438 598.04691748 529.45166832 611.22102461 527.53231812 624.40167236 C527.42755157 625.1211908 527.32278503 625.84070923 527.21484375 626.58203125 C527.11064117 627.29752136 527.0064386 628.01301147 526.89907837 628.75018311 C525.8997748 635.63886928 524.97264815 642.53649125 524.0625 649.4375 C523.74097241 651.86589694 523.41935442 654.2942819 523.09765625 656.72265625 C522.84072998 658.66229248 522.84072998 658.66229248 522.57861328 660.64111328 C515.92863138 710.77028868 515.92863138 710.77028868 512.42919922 730.55737305 C510.44701299 741.83824517 508.69075661 753.15791433 506.88845825 764.46853638 C505.81232381 771.21501984 504.7305838 777.96060683 503.6492157 784.70625305 C502.76076617 790.24884518 501.87335344 795.79159462 500.98974609 801.33496094 C496.56300927 829.08597405 491.75381895 856.74290961 486.59848022 884.3677063 C485.42184658 890.6867279 484.27488022 897.01030482 483.15625 903.33984375 C483.01191528 904.15630371 482.86758057 904.97276367 482.71887207 905.81396484 C482.43276016 907.43308163 482.14666779 909.05220186 481.8605957 910.67132568 C478.6448806 928.84531165 475.06748221 946.93625218 471.40194702 965.02420044 C469.9021942 972.44368745 468.47953374 979.87677078 467.0625 987.3125 C461.50258937 1016.31060829 455.26581431 1045.18326206 448.88134766 1074.00976562 C448.11136409 1077.48983696 447.34983648 1080.97171452 446.58984375 1084.45397949 C442.16949085 1104.69424962 437.43423294 1124.84186312 432.48379517 1144.95880127 C431.09261055 1150.61326219 429.72159553 1156.27223715 428.375 1161.9375 C428.09293701 1163.12303467 428.09293701 1163.12303467 427.80517578 1164.33251953 C426.66290543 1169.15295863 425.54103017 1173.97792742 424.42578125 1178.8046875 C421.32063129 1192.22903484 418.14460574 1205.63027403 414.8125 1219 C414.6501889 1219.65433014 414.48787781 1220.30866028 414.32064819 1220.9828186 C412.65882988 1227.67224212 410.92818971 1234.3290817 409.0078125 1240.94921875 C407.01227777 1247.84323651 405.27005938 1254.78841963 403.56564331 1261.75820923 C398.96151758 1280.55645777 398.96151758 1280.55645777 396.4375 1288.8125 C393.88139363 1297.18029416 391.72704796 1305.64170468 389.58569336 1314.12426758 C387.89759496 1320.75443479 386.02366708 1327.2918094 383.97973633 1333.82080078 C382.4230134 1338.87229493 381.02893359 1343.96686199 379.625 1349.0625 C377.45933665 1356.85283189 375.26103044 1364.63015897 372.9375 1372.375 C372.72883301 1373.07246338 372.52016602 1373.76992676 372.30517578 1374.48852539 C367.68687654 1389.76829106 362.77206142 1404.95321822 357.625 1420.0625 C357.32997589 1420.92873993 357.03495178 1421.79497986 356.73098755 1422.68746948 C338.00026752 1477.5068013 315.94186545 1531.71279433 291 1584 C290.71227722 1584.60489258 290.42455444 1585.20978516 290.12811279 1585.83300781 C276.06753186 1615.39112705 261.50974435 1644.72152171 245 1673 C244.29278809 1674.22372314 244.29278809 1674.22372314 243.57128906 1675.47216797 C228.06866544 1702.24404783 210.70236399 1728.94387886 190 1752 C189.42636719 1752.64066406 188.85273438 1753.28132813 188.26171875 1753.94140625 C158.93594212 1786.47758369 158.93594212 1786.47758369 139.8515625 1788.30078125 C128.31717478 1788.3426737 122.72284699 1786.37508616 114.3125 1778.375 C103.61390738 1767.38725623 97.21200664 1753.22575136 92 1739 C91.7230127 1738.26571777 91.44602539 1737.53143555 91.16064453 1736.77490234 C81.02945256 1709.86198135 75.8846869 1681.63151011 71.4375 1653.3125 C71.28592438 1652.35365906 71.13434875 1651.39481812 70.97817993 1650.40692139 C68.7847497 1636.50310801 66.71056977 1622.60758727 65.27197266 1608.60205078 C65.00991061 1606.09481799 64.71637815 1603.592972 64.41796875 1601.08984375 C63.09490321 1589.27717645 62.73989552 1577.4589668 62.47265625 1565.5859375 C62.44119664 1564.23498899 62.44119664 1564.23498899 62.40910149 1562.85674858 C61.89741228 1540.57213779 61.75590861 1518.2852087 61.61157227 1495.99578857 C61.52512429 1482.73017563 61.42327034 1469.46468074 61.31640625 1456.19921875 C61.3079659 1455.14702794 61.3079659 1455.14702794 61.29935503 1454.07358074 C61.11024611 1430.59625898 60.84292534 1407.12047793 60.52734375 1383.64453125 C60.51676791 1382.85672988 60.50619208 1382.0689285 60.49529576 1381.25725436 C60.36530513 1371.58359839 60.23329243 1361.90997034 60.10077566 1352.23634869 C59.3912438 1300.43368025 58.82211882 1248.63416642 58.51314783 1196.82751513 C58.22118636 1147.91834088 57.75044888 1099.01501971 57.09494162 1050.10934067 C56.90805128 1036.15755045 56.72273889 1022.20573914 56.5390625 1008.25390625 C56.52805441 1007.41844851 56.51704631 1006.58299077 56.50570464 1005.72221613 C55.91580091 960.90081312 55.43261139 916.07829066 54.9698348 871.25541592 C54.93749234 868.12425862 54.90505694 864.9931023 54.87260818 861.86194611 C54.42912419 819.02171051 54.00177849 776.18150785 53.72265625 733.33984375 C53.71777254 732.59070568 53.71288883 731.8415676 53.70785713 731.06972837 C53.63165682 719.34439647 53.55881846 707.61904362 53.48665142 695.89368629 C53.18966724 647.64989733 52.6611513 599.41267769 51.99785233 551.17259216 C51.07521841 484.05221711 50.41875266 416.9302916 49.81594849 349.80633545 C49.80608829 348.70887607 49.79622809 347.61141669 49.7860691 346.48070097 C49.73692716 341.00580838 49.68804428 335.53091365 49.63958073 330.05601501 C49.54503354 319.41034627 49.44633554 308.76474416 49.3384552 298.11920166 C49.29677119 293.96309719 49.25545837 289.80698916 49.21435547 285.65087891 C49.20420658 284.63196815 49.19405769 283.6130574 49.18360126 282.56327057 C49.05091603 269.05301287 48.97368929 255.54364029 48.94556713 242.0327692 C48.93008961 234.8969474 48.89514531 227.76125913 48.85497314 220.62553734 C48.82947316 215.86042629 48.81438594 211.09582787 48.8263073 206.33065224 C49.07292992 179.61626424 49.07292992 179.61626424 42.68598747 153.83457947 C41.7156861 151.23964144 41.00935151 148.58942407 40.3125 145.91015625 C40.09207031 145.09869141 39.87164062 144.28722656 39.64453125 143.45117188 C39.43183594 142.66291016 39.21914062 141.87464844 39 141.0625 C38.50003657 139.22004216 38.00003545 137.37759455 37.5 135.53515625 C37.2525 134.62137207 37.005 133.70758789 36.75 132.76611328 C35.25638147 127.25742253 33.75155053 121.75178239 32.24780273 116.24584961 C31.00386071 111.68903828 29.76445 107.13109907 28.53515625 102.5703125 C25.70366711 92.08805872 22.74671645 81.65233354 19.67382812 71.23828125 C17.52025027 63.89632437 15.51777588 56.52196076 13.5625 49.125 C10.86638028 38.92803835 7.8777754 28.84728902 4.66430664 18.80126953 C4.34582764 17.79435059 4.02734863 16.78743164 3.69921875 15.75 C3.41908936 14.87859375 3.13895996 14.0071875 2.8503418 13.109375 C1.67070103 8.79587951 0.87700969 4.38504843 0 0 Z " fill="#FEFEFE" transform="translate(194,1449)"/>
<path d="M0 0 C347.49 0 694.98 0 1053 0 C1053 1312.08 1053 2624.16 1053 3976 C705.51 3976 358.02 3976 0 3976 C0 2663.92 0 1351.84 0 0 Z M4 4 C4 274.27 4 544.54 4 823 C4.33 823 4.66 823 5 823 C5.09704224 821.87247314 5.09704224 821.87247314 5.19604492 820.72216797 C7.53584978 794.15082181 11.04958186 767.80838446 18 742 C18.31807617 740.80068848 18.31807617 740.80068848 18.64257812 739.57714844 C28.11279467 704.42427001 44.125371 669.46620498 67 641 C67.73734375 640.071875 68.4746875 639.14375 69.234375 638.1875 C75.31197722 630.64289035 81.60160226 623.24847598 88.5625 616.5 C91.23270005 614.34326986 91.23270005 614.34326986 91 612 C91.89525391 611.59974609 91.89525391 611.59974609 92.80859375 611.19140625 C95.04574324 609.97513068 96.34420067 608.79642741 98.0625 606.9375 C102.68857077 602.18374575 107.80856449 598.11664613 113 594 C113.99 593.20464844 114.98 592.40929687 116 591.58984375 C156.15875303 559.91462729 203.71135437 541.85059822 252.11181641 527.03881836 C260.42062514 524.48177106 268.68337012 521.79869198 276.93359375 519.05859375 C372.44547642 487.35874252 469.89695529 461.27025613 685.5 429.3125 C686.28677124 429.25165222 687.07354248 429.19080444 687.88415527 429.12811279 C693.25399288 428.71777375 698.62560609 428.34535144 704 428 C704.75363831 427.9505423 705.50727661 427.90108459 706.28375244 427.85012817 C721.80684955 426.86077607 737.32482678 426.80033895 752.875 426.8125 C754.1819281 426.81277191 755.4888562 426.81304382 756.83538818 426.81332397 C775.63561468 426.8313233 794.28606378 427.04871352 813 429 C814.07072754 429.10715332 815.14145508 429.21430664 816.24462891 429.32470703 C866.04557982 434.42583321 917.63778387 446.4391918 959 476 C959.97195313 476.68578125 960.94390625 477.3715625 961.9453125 478.078125 C969.29391232 483.41209562 975.95773882 489.29490436 982.50097656 495.56835938 C983.84953597 496.8562995 985.21664316 498.12475168 986.5859375 499.390625 C1026.96985385 537.81415706 1044.74882201 598.85107006 1048 653 C1048.33 653 1048.66 653 1049 653 C1049 438.83 1049 224.66 1049 4 C704.15 4 359.3 4 4 4 Z M704 457 C702.47645868 457.10441494 700.95112737 457.18811426 699.42480469 457.23730469 C698.62069153 457.26745667 697.81657837 457.29760864 696.98809814 457.32867432 C696.14124451 457.35943054 695.29439087 457.39018677 694.421875 457.421875 C682.97769922 457.90838113 671.63369406 459.00766505 660.25 460.25 C658.72827682 460.41323761 658.72827682 460.41323761 657.17581177 460.57977295 C640.14300697 462.41336478 623.24479022 464.75981345 606.33447266 467.48291016 C602.59855682 468.06225338 598.85813423 468.54590855 595.10595703 469.00512695 C566.1885077 472.58779461 537.56231959 478.96901387 509.125 485.1875 C507.97339386 485.43925995 506.82178772 485.6910199 505.63528442 485.95040894 C491.89747278 488.96231249 478.19157636 492.08792277 464.52093506 495.3913269 C461.96925034 496.00742442 459.41663595 496.6195318 456.86376953 497.23071289 C430.667475 503.46811421 430.667475 503.46811421 404.71484375 510.6328125 C398.24568014 512.54374657 391.70196149 514.18140322 385.15966797 515.82128906 C379.35803364 517.29929194 373.71803675 519.06798614 368.05102539 520.99609375 C363.00121357 522.65767863 357.87809579 524.04040184 352.75 525.4375 C343.85942768 527.86272031 335.05189113 530.4990417 326.26812744 533.28207397 C323.87027873 534.04106042 321.47114811 534.79588849 319.07177734 535.55004883 C313.64976838 537.25544879 308.23057344 538.96964122 302.8125 540.6875 C301.85144348 540.99203094 300.89038696 541.29656189 299.90020752 541.61032104 C286.64847349 545.81519555 273.47496913 550.18467133 260.3605957 554.79907227 C254.12135301 556.97863067 247.89357323 558.95379021 241.5 560.625 C224.3333827 565.13531203 208.01130108 572.43736231 192 580 C191.17113281 580.38913574 190.34226563 580.77827148 189.48828125 581.17919922 C166.31031849 592.143813 145.30844891 606.18381012 126 623 C125.319375 623.56847656 124.63875 624.13695312 123.9375 624.72265625 C112.49971422 634.36096281 102.20912111 645.2343381 93.31054688 657.24072266 C91.98202909 659.02412413 90.62639963 660.78409516 89.265625 662.54296875 C72.31802039 684.69854021 59.764433 710.59213324 51 737 C50.75088867 737.71704102 50.50177734 738.43408203 50.24511719 739.17285156 C41.57483295 764.26157289 37.40429868 791.65123208 35 818 C34.9064624 818.90049072 34.8129248 819.80098145 34.71655273 820.72875977 C33.65481112 832.14601494 33.80214435 843.60643597 33.8125 855.0625 C33.81277191 856.18849609 33.81304382 857.31449219 33.81332397 858.47460938 C33.85043769 892.01353008 35.28655665 925.57125463 41.25390625 958.64453125 C41.89691067 962.24125546 42.40348567 965.84932612 42.90234375 969.46875 C44.04971596 977.58450691 45.48083579 985.63506651 47 993.6875 C47.14695312 994.46891357 47.29390625 995.25032715 47.4453125 996.05541992 C51.00708708 1014.86981498 55.36890592 1033.48984468 59.83056641 1052.10791016 C60.72882473 1055.85731745 61.61443571 1059.60946059 62.49130249 1063.36392212 C65.69384318 1077.07369894 69.21207675 1090.62699844 73.25390625 1104.11328125 C74.76307887 1109.15423766 76.17908481 1114.21668954 77.57226562 1119.29077148 C80.96315533 1131.62293215 84.70754917 1143.80438143 88.68310547 1155.95947266 C89.94334206 1159.81807247 91.18770311 1163.68171378 92.43159485 1167.54560852 C100.91855686 1193.89782534 109.73667543 1220.11404475 119.0057373 1246.20147705 C120.01326629 1249.03734024 121.01885089 1251.87388846 122.02441406 1254.71044922 C131.53004406 1281.4945428 141.37864544 1308.14343367 151.40112305 1334.73742676 C156.98525098 1349.55475467 162.53567683 1364.38212267 167.94140625 1379.265625 C168.17728958 1379.91506891 168.41317291 1380.56451283 168.65620422 1381.23363686 C171.12059863 1388.02238503 173.57418264 1394.81500292 176.02099609 1401.61010742 C176.41955307 1402.71412903 176.81811005 1403.81815063 177.22874451 1404.95562744 C177.97174157 1407.01448308 178.71232147 1409.07421318 179.4500885 1411.13494873 C179.77392014 1412.03199524 180.09775177 1412.92904175 180.43139648 1413.85327148 C180.71208481 1414.63508286 180.99277313 1415.41689423 181.28196716 1416.22239685 C181.86234045 1417.99260872 181.86234045 1417.99260872 183 1419 C184.33376667 1419.09673963 185.67261787 1419.12447439 187.00988823 1419.1241985 C187.88078635 1419.12644579 188.75168447 1419.12869308 189.64897344 1419.13100848 C190.61857976 1419.12838146 191.58818608 1419.12575445 192.58717442 1419.12304783 C193.61148271 1419.12420167 194.63579101 1419.12535552 195.69113895 1419.12654433 C199.16956109 1419.12921941 202.64793818 1419.12468155 206.12635803 1419.12025452 C208.62685022 1419.12069004 211.12734236 1419.12156459 213.62783426 1419.12284368 C219.0881298 1419.12462139 224.54841106 1419.12326385 230.00870514 1419.11920547 C238.12804803 1419.11318746 246.24738402 1419.11286808 254.36672874 1419.11374746 C268.022641 1419.11506354 281.67854844 1419.11171171 295.3344593 1419.10573006 C308.86203091 1419.09981977 322.3896005 1419.09596547 335.91717339 1419.09487724 C336.75723079 1419.0948085 337.5972882 1419.09473976 338.4628019 1419.09466894 C342.72876015 1419.09433062 346.99471841 1419.09402923 351.26067667 1419.09374207 C381.50264324 1419.09163979 411.74460718 1419.08489725 441.98657227 1419.07543945 C471.37231431 1419.06626001 500.75805564 1419.05917396 530.14379883 1419.05493164 C531.04906518 1419.05480011 531.95433154 1419.05466859 532.88703021 1419.05453308 C541.97781094 1419.05321459 551.06859167 1419.05193877 560.15937241 1419.05069422 C578.67952611 1419.04815778 597.19967975 1419.04533652 615.71983337 1419.04234314 C616.99721687 1419.0421372 616.99721687 1419.0421372 618.30040609 1419.04192711 C675.20027183 1419.03272127 732.10013608 1419.01685472 789 1419 C789.45823749 1417.93960856 789.91647497 1416.87921713 790.38859844 1415.78669262 C792.11163252 1411.79967094 793.8350126 1407.81279889 795.5584898 1403.82596874 C796.30009698 1402.11031931 797.04161408 1400.39463094 797.78303432 1398.67890072 C803.24646402 1386.03613675 808.73648348 1373.40609703 814.3125 1360.8125 C814.6960968 1359.94486023 815.0796936 1359.07722046 815.47491455 1358.18328857 C823.47182029 1340.10091165 831.62107446 1322.08837805 839.7906189 1304.08351135 C843.58373571 1295.72029606 847.34120642 1287.34141354 851.09057617 1278.95849609 C854.10332738 1272.2247776 857.12754968 1265.49646831 860.1640625 1258.7734375 C870.50518469 1235.87091137 880.71349457 1212.9140978 890.74755859 1189.87530518 C891.60812492 1187.89965122 892.46915278 1185.92419825 893.33056641 1183.94891357 C905.03790404 1157.10229396 916.60737359 1130.23081842 927.24261475 1102.93933105 C927.99232412 1101.01965456 928.74650214 1099.10180133 929.50244141 1097.18457031 C947.76488942 1050.86218347 964.62859665 1003.98285386 978 956 C978.46895256 954.34864569 978.93887495 952.69756621 979.41015625 951.046875 C980.42517119 947.47623292 981.406079 943.89744291 982.37109375 940.31298828 C982.80897499 938.70255083 983.2549019 937.09428847 983.70703125 935.48779297 C993.37272752 901.09402373 999.78734107 865.71339921 1006 830.5625 C1006.1835907 829.52810791 1006.3671814 828.49371582 1006.55633545 827.42797852 C1008.64349331 815.61091577 1010.52668197 803.79024557 1012.04931641 791.88612366 C1012.21633057 790.59465675 1012.21633057 790.59465675 1012.38671875 789.27709961 C1012.48170654 788.5210997 1012.57669434 787.76509979 1012.67456055 786.9861908 C1013 785 1013 785 1014 782 C1014.33593565 779.6049743 1014.63521352 777.21916349 1014.90234375 774.81640625 C1015.02628258 773.72379738 1015.02628258 773.72379738 1015.15272522 772.6091156 C1015.32837736 771.04990449 1015.50227043 769.49049439 1015.67456055 767.9309082 C1015.92701623 765.65693181 1016.18862389 763.38415776 1016.45117188 761.11132812 C1019.06269789 738.03501642 1020.32269392 715.04489248 1020.20581055 691.8215332 C1020.18725311 688.0118148 1020.18530405 684.20233763 1020.18554688 680.39257812 C1020.18063922 677.91926876 1020.17481421 675.44596101 1020.16796875 672.97265625 C1020.16629951 671.3020388 1020.16629951 671.3020388 1020.16459656 669.59767151 C1020.09341963 657.66191298 1019.01914425 646.01896058 1017.0625 634.25 C1016.89298828 633.19167969 1016.72347656 632.13335938 1016.54882812 631.04296875 C1015.55997584 624.97449881 1014.38590438 618.98875665 1013 613 C1012.59201172 611.07220703 1012.59201172 611.07220703 1012.17578125 609.10546875 C1002.48263726 564.37050192 977.19286543 523.83138919 939.0234375 497.984375 C907.31225865 477.82688147 872.00914159 466.21770361 834.95556641 460.74731445 C832.9229658 460.44464253 830.89331011 460.1260404 828.86328125 459.80664062 C802.949136 455.85806191 776.91845507 455.69810148 750.77655029 455.80438232 C747.36524782 455.81534266 743.95398445 455.81484644 740.54266739 455.81424427 C737.22256354 455.81451657 733.90248518 455.82000291 730.58238983 455.82724571 C729.01483094 455.83039862 727.44726922 455.83239176 725.87970734 455.83313942 C723.70263247 455.83532366 721.52568082 455.84410414 719.34863281 455.85473633 C718.1184845 455.85854813 716.88833618 455.86235992 715.62091064 455.86628723 C711.68229575 456.01173216 707.90656035 456.48368739 704 457 Z M1048 731 C1047.88519287 732.27375488 1047.77038574 733.54750977 1047.65209961 734.85986328 C1043.35128483 782.08449613 1036.25749995 828.50098155 1027 875 C1026.70706055 876.47336823 1026.70706055 876.47336823 1026.40820312 877.97650146 C1017.69187412 921.66692081 1006.68885841 964.60298549 993 1007 C992.73036438 1007.83835388 992.46072876 1008.67670776 992.18292236 1009.54046631 C968.02772707 1084.60735363 937.44707587 1157.57971736 904.97851562 1229.39099121 C902.61754507 1234.6169891 900.28212395 1239.85387437 897.9609375 1245.09765625 C897.62801193 1245.84972351 897.29508636 1246.60179077 896.95207214 1247.37664795 C896.28123037 1248.89233664 895.61042851 1250.40804299 894.93966675 1251.92376709 C889.05329889 1265.22012188 883.06537316 1278.4661012 876.99871826 1291.68109131 C871.25770194 1304.19176792 865.63091082 1316.75019463 860.05932617 1329.3371582 C859.38854835 1330.85239367 858.7177312 1332.36761173 858.046875 1333.8828125 C857.71359695 1334.63561996 857.38031891 1335.38842743 857.03694153 1336.16404724 C854.69463414 1341.44871642 852.32970496 1346.72285248 849.953125 1351.9921875 C840.7510727 1372.41162155 831.82000082 1392.93610565 823.04223633 1413.54174805 C822.61092911 1414.55342041 822.17962189 1415.56509277 821.73524475 1416.60742188 C820.93357838 1418.48877619 820.13312325 1420.37064737 819.33421326 1422.25317383 C818.96836624 1423.11217285 818.60251923 1423.97117187 818.22558594 1424.85620117 C817.86715607 1425.70656952 817.5087262 1426.55693787 817.13943481 1427.43307495 C816.36724934 1429.17265865 815.5392905 1430.88834518 814.66305542 1432.57791138 C810.79435696 1440.19909409 809.98566286 1447.27502448 809.4765625 1455.71875 C809.36709747 1457.26450474 809.25556405 1458.81011403 809.14224243 1460.35559082 C808.88675708 1463.88807156 808.6441608 1467.42116726 808.40930176 1470.95507812 C807.96336372 1477.61817275 807.47236208 1484.27773626 806.97949219 1490.9375 C806.24208865 1500.92788922 805.51208131 1510.91875289 804.79151785 1520.91036808 C798.11880868 1613.42732365 790.71518686 1705.87089756 772 1896 C771.92133698 1896.73276909 771.84267395 1897.46553818 771.7616272 1898.22051239 C762.97248601 1979.99319925 752.66182318 2061.58843944 741 2143 C740.88767281 2143.78505165 740.77534561 2144.5701033 740.65961456 2145.3789444 C729.0416249 2226.53765693 715.70336001 2307.52916739 700 2388 C699.736427 2389.35160847 699.736427 2389.35160847 699.4675293 2390.73052216 C683.35146865 2473.34060779 666.0068635 2555.62602353 632 2693 C631.70909485 2694.1419281 631.4181897 2695.2838562 631.11846924 2696.46038818 C622.79963171 2729.07931568 614.07515547 2761.58344602 605 2794 C604.72478516 2794.98417908 604.44957031 2795.96835815 604.16601562 2796.98236084 C579.11245291 2886.47185692 545.77255316 2973.2230255 465 3135 C464.12674072 3136.49926025 464.12674072 3136.49926025 463.23583984 3138.02880859 C398.03676986 3249.49592664 398.03676986 3249.49592664 343.59375 3265.08984375 C327.56265583 3269.1498926 312.93556064 3266.48918712 298.70068359 3258.09375 C264.3958909 3236.03152329 252.68384739 3185.62447255 244.59463501 3148.42915344 C239.65915829 3125.27740397 235.96292961 3101.90247841 232.875 3078.4375 C232.72844971 3077.32995361 232.58189941 3076.22240723 232.4309082 3075.08129883 C231.92076507 3071.05778265 231.45797539 3067.02969773 231 3063 C230.88418829 3061.9952514 230.76837659 3060.9905028 230.64905543 3059.95530728 C228.53211538 3041.29695084 227.50356859 3022.88749351 227.35044098 3004.0984087 C227.31889102 3001.43588904 227.28630224 2998.77340159 227.2523624 2996.11091333 C227.18510423 2990.68624219 227.12653596 2985.26154907 227.07555115 2979.83670117 C227.00713617 2972.58552188 226.92307093 2965.33461561 226.83419323 2958.08366239 C226.68214578 2945.43813149 226.55384612 2932.79241742 226.42972548 2920.14658581 C226.37186307 2914.29268201 226.31210764 2908.43879754 226.25245125 2902.58491181 C226.12957543 2890.52146157 226.00844986 2878.45799439 225.88837242 2866.39451599 C225.7671598 2854.21785369 225.64506858 2842.04120063 225.52196693 2829.86455727 C225.51018077 2828.69866182 225.51018077 2828.69866182 225.4981565 2827.50921293 C225.45806512 2823.54376593 225.4179593 2819.57831908 225.37784781 2815.61287229 C225.08949512 2787.10375326 224.80292782 2758.59461653 224.51728821 2730.0854702 C224.23447438 2701.85937644 223.95068814 2673.63329268 223.66569519 2645.40722084 C223.65679586 2644.52579713 223.64789652 2643.64437342 223.63872751 2642.7362399 C223.53925101 2632.88393367 223.43974496 2623.03162774 223.34022707 2613.17932192 C223.15624413 2594.96482384 222.97238896 2576.75032448 222.78856659 2558.53582478 C222.77937296 2557.62486762 222.77017932 2556.71391046 222.7607071 2555.77534853 C222.32429888 2512.53289502 221.88906641 2469.2904297 221.45409784 2426.04796169 C221.4252852 2423.1835542 221.39647202 2420.31914672 221.3676587 2417.45473924 C221.15566444 2396.37975629 220.94369688 2375.30477308 220.73174286 2354.22978973 C220.35574213 2316.84334817 219.97968398 2279.45690718 219.60351986 2242.07046726 C219.57471504 2239.20758345 219.5459108 2236.34469963 219.51710662 2233.48181581 C219.08243244 2190.27938986 218.64742458 2147.07696731 218.21143341 2103.87455463 C218.19765369 2102.50909501 218.19765369 2102.50909501 218.18359558 2101.11605035 C217.99995969 2082.91934863 217.81627853 2064.72264738 217.63249906 2046.52594711 C217.53307995 2036.68204044 217.43368129 2026.83813356 217.33430481 2016.99422646 C217.32541642 2016.11379014 217.31652803 2015.23335383 217.3073703 2014.32623763 C217.01387595 1985.25293756 216.72180071 1956.17962342 216.43042536 1927.10630204 C216.15409738 1899.53504626 215.87666741 1871.96380176 215.59792732 1844.39257025 C215.55795076 1840.43826226 215.51798768 1836.48395413 215.47803307 1832.52964592 C215.47020282 1831.75472409 215.46237258 1830.97980226 215.45430506 1830.18139795 C215.3466757 1819.5269228 215.23984276 1808.87243994 215.13369688 1798.21794991 C215.0900427 1793.83760843 215.04629358 1789.45726789 215.00253852 1785.07692741 C214.96701653 1781.52035555 214.93154572 1777.9637832 214.8961935 1774.40720965 C214.75102254 1759.81059691 214.60121021 1745.21406373 214.43467617 1730.61767519 C214.393164 1726.96198134 214.35168072 1723.30628717 214.31023621 1719.65059256 C214.28358171 1717.30284095 214.25680106 1714.95509076 214.22988851 1712.60734209 C214.0740132 1698.90235723 213.96875232 1685.19910822 213.94750013 1671.49326706 C213.93700544 1666.98595833 213.90968521 1662.47872626 213.88018482 1657.97150588 C213.85363823 1653.59715481 213.87094531 1649.22451858 213.89984369 1644.85024375 C213.84999721 1624.05517615 208.56205817 1604.48448941 201.64794922 1584.96875 C197.008257 1571.35905827 193.10098747 1557.58264734 189.27272415 1543.73034668 C187.60603992 1537.70792875 185.89950495 1531.69676121 184.19678378 1525.68445587 C183.24510694 1522.32323515 182.29525022 1518.96150123 181.34594727 1515.59960938 C181.15754379 1514.93241001 180.96914031 1514.26521065 180.77502763 1513.57779312 C179.43806245 1508.83955197 178.10969619 1504.0989451 176.78442383 1499.35742188 C167.41649056 1465.85711417 157.27572264 1432.87318966 144.88788223 1400.34040833 C143.57074306 1396.86850251 142.27868603 1393.38745568 140.98901367 1389.90527344 C138.93506852 1384.3711355 136.86048582 1378.84523464 134.77203369 1373.32403564 C132.57802904 1367.52122161 130.39674876 1361.71362219 128.21484375 1355.90625 C127.77648193 1354.73977936 127.33812012 1353.57330872 126.88647461 1352.37149048 C109.43140295 1305.87995417 92.60186358 1259.16909781 76.72851562 1212.11376953 C75.3911135 1208.15136793 74.04217522 1204.19306518 72.68745422 1200.23655701 C43.80857779 1115.81302479 20.18352149 1028.28354656 5 893 C4.67 893 4.34 893 4 893 C4 1909.07 4 2925.14 4 3972 C348.85 3972 693.7 3972 1049 3972 C1049 2902.47 1049 1832.94 1049 731 C1048.67 731 1048.34 731 1048 731 Z M194 1449 C195.55863531 1457.01829344 195.55863531 1457.01829344 197.69921875 1464.75 C198.01793945 1465.75780518 198.33666016 1466.76561035 198.66503906 1467.80395508 C199.00245117 1468.8586499 199.33986328 1469.91334473 199.6875 1471 C202.90869227 1481.24743638 205.84911366 1491.53914752 208.56518555 1501.93164062 C209.93190206 1507.13801966 211.37989892 1512.29618823 212.98828125 1517.43359375 C215.03156544 1523.98607683 216.75775069 1530.59649759 218.4375 1537.25 C220.34257201 1544.70410092 222.26273075 1552.13814957 224.5 1559.5 C226.69253936 1566.71771574 228.57197865 1574.00406359 230.4375 1581.3125 C233.14186854 1591.89397801 236.08087045 1602.37208041 239.33325195 1612.79785156 C239.55327881 1613.52456055 239.77330566 1614.25126953 240 1615 C240.33736396 1616.04969215 240.67472792 1617.09938431 241.02231503 1618.18088531 C242.01265927 1622.04945069 242.27272143 1625.32295228 242.30970764 1629.3079834 C242.31887661 1630.01137051 242.32804559 1630.71475763 242.33749241 1631.4394595 C242.36572774 1633.78450967 242.38024305 1636.12943732 242.39477539 1638.47460938 C242.41234973 1640.16988899 242.43077278 1641.86515998 242.44997406 1643.56042194 C242.49991325 1648.18411512 242.53789634 1652.80783946 242.57381558 1657.43165994 C242.61405893 1662.34730529 242.66532349 1667.26283639 242.71531677 1672.1783905 C242.79922867 1680.57658999 242.87616734 1688.97482933 242.94824219 1697.37313843 C243.05193933 1709.45419957 243.16680049 1721.53513499 243.28431153 1733.61606872 C243.52957543 1758.87303852 243.7567851 1784.13015538 243.97719288 1809.38735294 C243.99873683 1811.85529938 244.02033314 1814.32324534 244.04195404 1816.7911911 C244.12097532 1825.81261217 244.19939527 1834.83403835 244.27734375 1843.85546875 C244.28709795 1844.98337955 244.29685215 1846.11129036 244.30690193 1847.27338028 C244.33540904 1850.57092514 244.36387733 1853.86847033 244.39233398 1857.16601562 C244.40137662 1858.21229567 244.41041925 1859.25857571 244.41973591 1860.3365612 C244.46474157 1865.55420215 244.50915412 1870.77184712 244.55252075 1875.98950195 C244.7836603 1903.6985323 245.09631228 1931.40584375 245.46875 1959.11328125 C245.4793743 1959.90455241 245.4899986 1960.69582356 245.50094485 1961.51107264 C245.6104437 1969.66429073 245.72051029 1977.81750113 245.83075255 1985.9707092 C245.8872176 1990.14713881 245.94363044 1994.32356911 246 1998.5 C246.01123728 1999.33254995 246.02247457 2000.16509991 246.03405237 2001.02287865 C246.6583696 2047.31674133 247.15848254 2093.60729989 247.42576218 2139.90478325 C247.84224143 2212.02925763 248.63290446 2284.1495891 249.42355579 2356.27072584 C249.48266159 2361.66352822 249.54156778 2367.05633276 249.60035324 2372.44913864 C249.82521505 2393.07549083 250.05168774 2413.70182455 250.28125 2434.328125 C250.28909264 2435.03298165 250.29693527 2435.73783831 250.30501556 2436.46405426 C250.6843611 2470.54434194 251.08725294 2504.62407953 251.56640625 2538.703125 C251.97412512 2567.70445535 252.2032669 2596.70482 252.36498833 2625.70845222 C252.45846216 2642.46457414 252.56502526 2659.22059909 252.68359375 2675.9765625 C252.68922065 2676.77184058 252.69484756 2677.56711865 252.70064497 2678.38649607 C252.99836743 2720.14567593 253.56191307 2761.90104011 254.13397217 2803.65719604 C254.26633495 2813.31962449 254.39764141 2822.98206671 254.52734375 2832.64453125 C254.53791872 2833.4312294 254.54849369 2834.21792755 254.55938911 2835.02846503 C254.87317391 2858.41829427 255.12876931 2881.80803548 255.31640625 2905.19921875 C255.3248466 2906.24695323 255.3248466 2906.24695323 255.33345747 2907.31585407 C255.44407809 2921.08185529 255.54584172 2934.84790673 255.63500881 2948.61406517 C255.77767754 2970.50724131 255.95561288 2992.3965831 256.4453125 3014.28515625 C256.46290178 3015.12906984 256.48049107 3015.97298344 256.49861336 3016.84247017 C257.04561391 3042.43720351 259.99008135 3067.72605973 264 3093 C264.18752838 3094.18770996 264.18752838 3094.18770996 264.37884521 3095.39941406 C274.13433675 3170.11008162 274.13433675 3170.11008162 313 3232 C320.56215874 3237.30273326 327.94582223 3237.85893428 337 3237 C382.20257043 3225.18045033 415.54235022 3161.6156088 437 3125 C437.46696289 3124.2064209 437.93392578 3123.4128418 438.41503906 3122.59521484 C465.38941384 3076.60381212 488.14219007 3028.33652742 509.01043701 2979.32226562 C509.97100786 2977.06803755 510.93461271 2974.81512934 511.89892578 2972.5625 C525.92830359 2939.74656927 538.49075061 2906.37996824 550.25 2872.6875 C550.5586499 2871.80383759 550.8672998 2870.92017517 551.18530273 2870.00973511 C554.9982675 2859.06594602 558.59988671 2848.07896943 562 2837 C562.7883106 2834.47810223 563.58181687 2831.9578725 564.375 2829.4375 C565.01338376 2827.39248868 565.64928419 2825.34672637 566.28466797 2823.30078125 C566.7900361 2821.67532417 567.297029 2820.05037182 567.80517578 2818.42578125 C571.73683249 2805.83370197 575.33129224 2793.2013875 578.6015625 2780.421875 C579.84265257 2775.57668659 581.14984167 2770.75331694 582.5 2765.9375 C582.90625054 2764.48697932 583.31250054 2763.03645848 583.71875 2761.5859375 C583.925 2760.84956055 584.13125 2760.11318359 584.34375 2759.35449219 C588.84669333 2743.19884283 593.14333645 2726.98928447 597.36328125 2710.7578125 C597.84629649 2708.90102666 598.329371 2707.04425624 598.8125 2705.1875 C599.06016113 2704.23488281 599.30782227 2703.28226563 599.56298828 2702.30078125 C601.30131352 2695.63155608 603.07761756 2688.9731557 604.86669922 2682.31738281 C611.31297603 2658.31163526 617.33824335 2634.20305829 623 2610 C623.24540527 2608.95392578 623.49081055 2607.90785156 623.74365234 2606.83007812 C625.66706596 2598.62883986 627.57892991 2590.4249429 629.48449707 2582.21954346 C629.83845475 2580.69554734 630.19254725 2579.17158254 630.54675293 2577.64764404 C636.59858392 2551.60961833 642.4739096 2525.55771336 647.8237915 2499.36526489 C649.82182617 2489.58708641 651.89883381 2479.830739 654.06396484 2470.08825684 C657.00088614 2456.86471115 659.6916401 2443.60739136 662.23876953 2430.3034668 C663.82400833 2422.02898646 665.44194119 2413.76301622 667.125 2405.5078125 C672.51027293 2379.056968 677.36813215 2352.539862 681.96972656 2325.94189453 C682.9045895 2320.54149063 683.85173641 2315.14333173 684.8046875 2309.74609375 C694.44364914 2255.22312958 694.44364914 2255.22312958 703.02734375 2200.52734375 C703.77677583 2195.42994855 704.59467058 2190.34839554 705.45288086 2185.26831055 C710.92019646 2152.60835788 715.72268136 2119.85259782 719.74539185 2086.98431396 C721.23971985 2074.78129826 722.87686249 2062.60582445 724.61630249 2050.4354248 C727.10079113 2033.04696839 729.28235972 2015.64559277 731.17578125 1998.18261719 C732.31040072 1987.76821412 733.58411494 1977.37958249 734.9453125 1966.9921875 C736.91027532 1951.97380537 738.6262516 1936.93405531 740.25 1921.875 C740.39621419 1920.52576664 740.54252765 1919.17654403 740.68893433 1917.82733154 C741.71997863 1908.3221631 742.73978106 1898.8158152 743.75371552 1889.30880737 C744.00178433 1886.98327266 744.25017409 1884.65777239 744.49859619 1882.33227539 C749.14945557 1838.77132265 753.49664033 1795.19448556 757.33398438 1751.55419922 C757.85935943 1745.58095873 758.39344543 1739.60855445 758.93217468 1733.63650513 C764.33344771 1673.73732813 769.15503066 1613.77725342 773.34065819 1553.78084087 C773.48651502 1551.6928912 773.63342941 1549.60501863 773.78067017 1547.51716614 C773.95738602 1545.00455957 774.13169987 1542.49178236 774.30307007 1539.97880554 C774.41964462 1538.32338493 774.41964462 1538.32338493 774.53857422 1536.63452148 C774.60406464 1535.68447739 774.66955505 1534.73443329 774.73703003 1533.75559998 C775.01860282 1530.80506547 775.51045253 1527.92249539 776 1525 C776.15035651 1523.3804594 776.27516906 1521.75832307 776.37304688 1520.13476562 C776.42980591 1519.2194104 776.48656494 1518.30405518 776.54504395 1517.36096191 C776.60236694 1516.38590698 776.65968994 1515.41085205 776.71875 1514.40625 C776.78155151 1513.38253296 776.84435303 1512.35881592 776.90905762 1511.30407715 C777.10898831 1508.03622305 777.3046645 1504.7681317 777.5 1501.5 C777.69567224 1498.26875082 777.89224005 1495.03755793 778.08935547 1491.80639648 C778.21684572 1489.71351266 778.34347931 1487.62057646 778.46923828 1485.52758789 C778.79622053 1480.12802095 779.16597029 1474.73618438 779.59375 1469.34375 C780.0272159 1462.5750133 780 1455.78260195 780 1449 C586.62 1449 393.24 1449 194 1449 Z " fill="#010101" transform="translate(0,0)"/>
<path d="M0 0 C347.49 0 694.98 0 1053 0 C1053 1312.08 1053 2624.16 1053 3976 C705.51 3976 358.02 3976 0 3976 C0 2663.92 0 1351.84 0 0 Z M4 4 C4 1313.44 4 2622.88 4 3972 C349.18 3972 694.36 3972 1050 3972 C1050 2662.56 1050 1353.12 1050 4 C704.82 4 359.64 4 4 4 Z " fill="#FBFBFB" transform="translate(0,0)"/>
<path d="M0 0 C5.68468165 1.71862468 10.98423881 4.1641675 16.375 6.625 C17.30183594 7.04523437 18.22867188 7.46546875 19.18359375 7.8984375 C21.45694599 8.92964882 23.72902406 9.96356863 26 11 C25.41700186 15.71608668 24.0288175 19.69454425 22.0703125 23.984375 C21.768405 24.66046814 21.4664975 25.33656128 21.15544128 26.03314209 C20.15208992 28.27521389 19.1386793 30.51258087 18.125 32.75 C17.40985851 34.3415535 16.69527082 35.93335594 15.98120117 37.52539062 C14.0618173 41.79938455 12.13324192 46.06917249 10.20269775 50.33813477 C8.59168624 53.90369854 6.98631584 57.4717906 5.38075256 61.03981018 C-2.85183426 79.33098341 -11.14774369 97.59000955 -19.6328125 115.765625 C-22.20926452 121.28815984 -24.76129456 126.82154423 -27.3046875 132.359375 C-35.83215837 150.91909748 -44.48485268 169.39882878 -53.43115234 187.76074219 C-54.92534267 190.84585225 -56.39892949 193.93969572 -57.86328125 197.0390625 C-69.92544452 222.53684506 -82.79296488 247.71505118 -96.52685547 272.35400391 C-98.14251408 275.25597739 -99.74495459 278.16507102 -101.34765625 281.07421875 C-121.62961311 317.75724442 -143.95597351 354.65368778 -172 386 C-172.825 386.92425781 -173.65 387.84851562 -174.5 388.80078125 C-175.99212641 390.46178008 -177.4891771 392.11837466 -178.9921875 393.76953125 C-180.85073087 395.83417768 -182.64499041 397.94066888 -184.4375 400.0625 C-199.72192349 417.51542293 -225.36524302 436.92095929 -249.171875 439.31958008 C-263.32551858 439.94660127 -276.99230663 440.11449615 -290 434 C-291.0523584 433.50935059 -291.0523584 433.50935059 -292.12597656 433.00878906 C-313.89273767 422.60773472 -332.56892761 406.42910932 -348 388 C-348.4429541 387.47615723 -348.8859082 386.95231445 -349.34228516 386.41259766 C-358.60555266 375.41872954 -366.91597591 363.88023811 -375 352 C-375.46535156 351.32050293 -375.93070312 350.64100586 -376.41015625 349.94091797 C-398.52879609 317.59653382 -417.41692331 282.80382336 -434.68383789 247.66308594 C-435.99710823 245.00585112 -437.32338308 242.35531819 -438.65216064 239.70581055 C-451.56656439 213.94820911 -464.23289314 188.0578218 -476.22753906 161.85839844 C-478.35264007 157.22407543 -480.50183085 152.60095173 -482.6484375 147.9765625 C-483.88048378 145.31919279 -485.1121643 142.66165395 -486.34365845 140.00402832 C-487.14550516 138.27445346 -487.94803748 136.54519626 -488.75131226 134.81628418 C-496.88596925 117.29970037 -496.88596925 117.29970037 -500 109 C-494.28211813 106.04512145 -488.50392379 103.24420023 -482.625 100.625 C-480.88089844 99.83996094 -480.88089844 99.83996094 -479.1015625 99.0390625 C-474.91630468 97.63694842 -474.91630468 97.63694842 -472 99 C-470.40698242 101.52734375 -470.40698242 101.52734375 -468.85546875 104.9375 C-468.56924652 105.55608383 -468.28302429 106.17466766 -467.98812866 106.81199646 C-467.04071051 108.86861305 -466.11434409 110.93403967 -465.1875 113 C-464.52270909 114.45250279 -463.85658977 115.90439825 -463.18920898 117.35571289 C-461.10721607 121.89532031 -459.05245229 126.44697955 -457 131 C-454.82956316 135.80263666 -452.65649638 140.60408556 -450.48245239 145.40509033 C-449.86675356 146.76532623 -449.2515842 148.1258019 -448.63693237 149.48651123 C-442.38178043 163.32587329 -435.78239647 176.98738389 -429.10145569 190.62519836 C-426.74382002 195.44859117 -424.4256781 200.29009282 -422.1166687 205.13693237 C-416.07440071 217.81931477 -409.9029997 230.43269671 -403.625 243 C-403.12553864 244.00059448 -402.62607727 245.00118896 -402.11148071 246.03210449 C-395.21586465 259.82471186 -388.14456988 273.42959969 -380.32177734 286.72363281 C-378.56545718 289.74837039 -376.89338591 292.81591143 -375.22070312 295.88745117 C-359.00080402 325.61852624 -339.78603889 353.90441229 -317 379 C-316.17113281 379.91394531 -315.34226562 380.82789063 -314.48828125 381.76953125 C-301.62525635 395.2703921 -283.22887297 409.03361138 -263.91064453 409.57055664 C-242.25068467 409.49999606 -226.45868367 399.64506874 -211 385 C-209.67114704 383.86971128 -208.33800173 382.74444368 -207 381.625 C-187.67965896 364.7051823 -172.85710369 341.39621758 -159 320 C-158.55366211 319.31454102 -158.10732422 318.62908203 -157.64746094 317.92285156 C-140.05493324 290.81886692 -124.78609581 262.30668325 -109.9296875 233.63671875 C-108.07907605 230.06629185 -106.21127904 226.50624068 -104.3203125 222.95703125 C-89.50411413 195.05239356 -75.87128283 166.46999546 -62.71972656 137.74853516 C-60.74822042 133.44594819 -58.76073994 129.15077695 -56.7734375 124.85546875 C-52.17221554 114.90828126 -47.58271809 104.9557251 -43 95 C-42.64790466 94.23522339 -42.29580933 93.47044678 -41.93304443 92.68249512 C-33.38367556 74.1079824 -24.96115743 55.48244983 -16.68310547 36.78540039 C-11.22923701 24.4736462 -5.65966093 12.21872533 0 0 Z " fill="#020202" transform="translate(752,872)"/>
</svg>
