<?xml version="1.0" encoding="UTF-8"?>
<!DOCTYPE svg PUBLIC "-//W3C//DTD SVG 1.1//EN" "http://www.w3.org/Graphics/SVG/1.1/DTD/svg11.dtd">
<svg xmlns="http://www.w3.org/2000/svg" version="1.1" width="1025px" height="3975px" style="shape-rendering:geometricPrecision; text-rendering:geometricPrecision; image-rendering:optimizeQuality; fill-rule:evenodd; clip-rule:evenodd" xmlns:xlink="http://www.w3.org/1999/xlink">
<g><path style="opacity:0.767" fill="#fdfdfd" d="M -0.5,-0.5 C 341.167,-0.5 682.833,-0.5 1024.5,-0.5C 1024.5,1324.5 1024.5,2649.5 1024.5,3974.5C 682.833,3974.5 341.167,3974.5 -0.5,3974.5C -0.5,2649.5 -0.5,1324.5 -0.5,-0.5 Z M 1020.5,817.5 C 1014.62,771.419 997.455,730.086 969,693.5C 944.633,665.461 917.467,640.627 887.5,619C 864.672,597.872 842.838,575.705 822,552.5C 789.755,511.908 754.921,473.408 717.5,437C 692.159,413.651 663.492,395.318 631.5,382C 593.204,367.97 553.871,363.97 513.5,370C 494.767,374.689 476.767,381.355 459.5,390C 409.367,415.222 361.033,443.222 314.5,474C 248.306,517.19 184.64,563.857 123.5,614C 110.632,625.2 98.799,637.367 88,650.5C 57.5883,690.643 33.9216,734.643 17,782.5C 11.0454,801.974 6.5454,821.64 3.5,841.5C 3.5,562.167 3.5,282.833 3.5,3.5C 342.5,3.5 681.5,3.5 1020.5,3.5C 1020.5,274.833 1020.5,546.167 1020.5,817.5 Z M 1020.5,898.5 C 1020.5,1922.5 1020.5,2946.5 1020.5,3970.5C 681.5,3970.5 342.5,3970.5 3.5,3970.5C 3.5,2949.5 3.5,1928.5 3.5,907.5C 9.48104,947.075 20.3144,985.409 36,1022.5C 43.3924,1039.62 51.0591,1056.62 59,1073.5C 78.8781,1113.26 98.2115,1153.26 117,1193.5C 165.221,1312.83 215.388,1431.33 267.5,1549C 256.579,1569.93 249.579,1592.1 246.5,1615.5C 247.091,1632.84 253.757,1647.34 266.5,1659C 277.164,1667.67 288.83,1674.84 301.5,1680.5C 302.329,1685.8 302.829,1691.14 303,1696.5C 303.667,1728.83 303.667,1761.17 303,1793.5C 268.959,1804.88 248.292,1828.21 241,1863.5C 235.881,1887.74 240.548,1909.74 255,1929.5C 268.339,1943.79 284.839,1951.45 304.5,1952.5C 305.622,1973.81 305.788,1995.14 305,2016.5C 289.292,2027.87 275.958,2041.54 265,2057.5C 243.947,2094.36 249.78,2126.19 282.5,2153C 289.879,2157.69 297.545,2161.86 305.5,2165.5C 306.499,2181.49 306.833,2197.49 306.5,2213.5C 284.43,2221.07 268.93,2235.73 260,2257.5C 246.364,2306.23 262.197,2341.9 307.5,2364.5C 308.666,2383.49 308.833,2402.49 308,2421.5C 283.686,2435.81 266.686,2456.14 257,2482.5C 250.019,2514.56 258.519,2541.72 282.5,2564C 290.46,2571.46 299.126,2577.96 308.5,2583.5C 310.111,2598.82 310.444,2614.15 309.5,2629.5C 269.135,2647.69 247.468,2678.86 244.5,2723C 245.875,2759.11 263.542,2783.11 297.5,2795C 302.412,2796.42 307.412,2797.25 312.5,2797.5C 318.841,2844.83 336.674,2887.16 366,2924.5C 405.81,2968.82 455.643,2993.65 515.5,2999C 580.743,3004.77 640.41,2989.44 694.5,2953C 741.699,2917.49 770.199,2870.32 780,2811.5C 785.797,2775.4 789.13,2739.07 790,2702.5C 839.025,2685.48 861.358,2651.15 857,2599.5C 849.345,2564.68 827.845,2545.01 792.5,2540.5C 792.5,2516.83 792.5,2493.17 792.5,2469.5C 830.84,2456.98 850.84,2430.48 852.5,2390C 850.577,2349.64 830.077,2324.47 791,2314.5C 790.333,2299.5 790.333,2284.5 791,2269.5C 811.852,2261.09 829.185,2248.09 843,2230.5C 859.737,2200.7 857.403,2172.36 836,2145.5C 823.669,2131 808.502,2120.67 790.5,2114.5C 789.334,2100.51 789.167,2086.51 790,2072.5C 838.679,2052.16 858.346,2015.82 849,1963.5C 840.852,1933.52 822.352,1912.85 793.5,1901.5C 792.334,1890.85 792.168,1880.18 793,1869.5C 810.456,1859.09 825.789,1846.09 839,1830.5C 858.062,1803.72 861.396,1775.05 849,1744.5C 837.488,1718.99 819.655,1699.15 795.5,1685C 794.903,1683.94 794.57,1682.77 794.5,1681.5C 800.676,1641.44 807.176,1601.44 814,1561.5C 833.313,1536.87 851.646,1511.54 869,1485.5C 908.107,1404.18 936.44,1319.18 954,1230.5C 965.258,1172.21 976.258,1113.88 987,1055.5C 995.628,1022.99 1003.63,990.319 1011,957.5C 1014.84,937.795 1018.01,918.128 1020.5,898.5 Z"/></g>
<g><path style="opacity:0.981" fill="#010101" d="M 1020.5,817.5 C 1020.5,844.5 1020.5,871.5 1020.5,898.5C 1018.01,918.128 1014.84,937.795 1011,957.5C 1003.63,990.319 995.628,1022.99 987,1055.5C 976.258,1113.88 965.258,1172.21 954,1230.5C 936.44,1319.18 908.107,1404.18 869,1485.5C 851.646,1511.54 833.313,1536.87 814,1561.5C 807.176,1601.44 800.676,1641.44 794.5,1681.5C 794.57,1682.77 794.903,1683.94 795.5,1685C 819.655,1699.15 837.488,1718.99 849,1744.5C 861.396,1775.05 858.062,1803.72 839,1830.5C 825.789,1846.09 810.456,1859.09 793,1869.5C 792.168,1880.18 792.334,1890.85 793.5,1901.5C 822.352,1912.85 840.852,1933.52 849,1963.5C 858.346,2015.82 838.679,2052.16 790,2072.5C 789.167,2086.51 789.334,2100.51 790.5,2114.5C 808.502,2120.67 823.669,2131 836,2145.5C 857.403,2172.36 859.737,2200.7 843,2230.5C 829.185,2248.09 811.852,2261.09 791,2269.5C 790.333,2284.5 790.333,2299.5 791,2314.5C 830.077,2324.47 850.577,2349.64 852.5,2390C 850.84,2430.48 830.84,2456.98 792.5,2469.5C 792.5,2493.17 792.5,2516.83 792.5,2540.5C 827.845,2545.01 849.345,2564.68 857,2599.5C 861.358,2651.15 839.025,2685.48 790,2702.5C 789.13,2739.07 785.797,2775.4 780,2811.5C 770.199,2870.32 741.699,2917.49 694.5,2953C 640.41,2989.44 580.743,3004.77 515.5,2999C 455.643,2993.65 405.81,2968.82 366,2924.5C 336.674,2887.16 318.841,2844.83 312.5,2797.5C 307.412,2797.25 302.412,2796.42 297.5,2795C 263.542,2783.11 245.875,2759.11 244.5,2723C 247.468,2678.86 269.135,2647.69 309.5,2629.5C 310.444,2614.15 310.111,2598.82 308.5,2583.5C 299.126,2577.96 290.46,2571.46 282.5,2564C 258.519,2541.72 250.019,2514.56 257,2482.5C 266.686,2456.14 283.686,2435.81 308,2421.5C 308.833,2402.49 308.666,2383.49 307.5,2364.5C 262.197,2341.9 246.364,2306.23 260,2257.5C 268.93,2235.73 284.43,2221.07 306.5,2213.5C 306.833,2197.49 306.499,2181.49 305.5,2165.5C 297.545,2161.86 289.879,2157.69 282.5,2153C 249.78,2126.19 243.947,2094.36 265,2057.5C 275.958,2041.54 289.292,2027.87 305,2016.5C 305.788,1995.14 305.622,1973.81 304.5,1952.5C 284.839,1951.45 268.339,1943.79 255,1929.5C 240.548,1909.74 235.881,1887.74 241,1863.5C 248.292,1828.21 268.959,1804.88 303,1793.5C 303.667,1761.17 303.667,1728.83 303,1696.5C 302.829,1691.14 302.329,1685.8 301.5,1680.5C 288.83,1674.84 277.164,1667.67 266.5,1659C 253.757,1647.34 247.091,1632.84 246.5,1615.5C 249.579,1592.1 256.579,1569.93 267.5,1549C 215.388,1431.33 165.221,1312.83 117,1193.5C 98.2115,1153.26 78.8781,1113.26 59,1073.5C 51.0591,1056.62 43.3924,1039.62 36,1022.5C 20.3144,985.409 9.48104,947.075 3.5,907.5C 3.5,885.5 3.5,863.5 3.5,841.5C 6.5454,821.64 11.0454,801.974 17,782.5C 33.9216,734.643 57.5883,690.643 88,650.5C 98.799,637.367 110.632,625.2 123.5,614C 184.64,563.857 248.306,517.19 314.5,474C 361.033,443.222 409.367,415.222 459.5,390C 476.767,381.355 494.767,374.689 513.5,370C 553.871,363.97 593.204,367.97 631.5,382C 663.492,395.318 692.159,413.651 717.5,437C 754.921,473.408 789.755,511.908 822,552.5C 842.838,575.705 864.672,597.872 887.5,619C 917.467,640.627 944.633,665.461 969,693.5C 997.455,730.086 1014.62,771.419 1020.5,817.5 Z"/></g>
<g><path style="opacity:1" fill="#fdfdfd" d="M 528.5,397.5 C 572.871,394.131 614.204,403.631 652.5,426C 680.167,443.956 705.334,465.123 728,489.5C 760.667,526.833 793.333,564.167 826,601.5C 851.389,627.568 878.555,651.401 907.5,673C 976.683,732.847 1004.18,808.347 990,899.5C 987.884,914.863 985.551,930.196 983,945.5C 973.309,987.596 963.309,1029.6 953,1071.5C 942.094,1137.51 929.427,1203.18 915,1268.5C 903.14,1319.25 886.974,1368.58 866.5,1416.5C 658.5,1417.83 450.5,1417.83 242.5,1416.5C 208.593,1338.28 175.76,1259.61 144,1180.5C 122.272,1134.71 100.272,1089.04 78,1043.5C 61.938,1009.38 49.2714,974.044 40,937.5C 25.9689,873.75 32.9689,812.417 61,753.5C 75.8838,722.33 93.5505,692.996 114,665.5C 121.135,657.364 128.635,649.53 136.5,642C 173.72,610.066 212.387,580.066 252.5,552C 318.312,505.578 386.645,462.912 457.5,424C 472.812,416.177 488.479,409.177 504.5,403C 512.448,400.314 520.448,398.481 528.5,397.5 Z"/></g>
<g><path style="opacity:1" fill="#020202" d="M 501.5,1126.5 C 537.291,1123.92 571.624,1129.76 604.5,1144C 614.5,1148.33 624.5,1152.67 634.5,1157C 639.521,1159.17 644.188,1161.84 648.5,1165C 644.454,1173.59 640.287,1182.09 636,1190.5C 611.799,1177.99 586.633,1167.82 560.5,1160C 535.82,1154.06 511.154,1154.06 486.5,1160C 476.363,1162.93 466.363,1166.27 456.5,1170C 435.23,1178.97 414.23,1188.47 393.5,1198.5C 390.843,1190.18 387.343,1182.18 383,1174.5C 382.251,1173.36 382.417,1172.36 383.5,1171.5C 412.92,1156.46 443.253,1143.62 474.5,1133C 483.673,1131 492.673,1128.84 501.5,1126.5 Z"/></g>
<g><path style="opacity:1" fill="#535353" d="M 852.5,1448.5 C 653.833,1447.17 455.167,1447.17 256.5,1448.5C 255.957,1448.44 255.624,1448.11 255.5,1447.5C 454.833,1446.17 654.167,1446.17 853.5,1447.5C 853.376,1448.11 853.043,1448.44 852.5,1448.5 Z"/></g>
<g><path style="opacity:1" fill="#b7b7b8" d="M 852.5,1448.5 C 848.289,1458.59 843.789,1468.59 839,1478.5C 821,1502.5 803,1526.5 785,1550.5C 776.723,1602.5 768.556,1654.5 760.5,1706.5C 768.119,1706.66 775.452,1708.16 782.5,1711C 804.214,1725.61 818.714,1745.44 826,1770.5C 827.775,1787.84 823.109,1803.17 812,1816.5C 797.928,1831.07 781.762,1842.74 763.5,1851.5C 762.5,1875.82 762.167,1900.16 762.5,1924.5C 802.912,1931.07 822.746,1954.74 822,1995.5C 818.046,2017.45 805.879,2032.95 785.5,2042C 776.994,2045.13 768.328,2047.63 759.5,2049.5C 759.5,2079.5 759.5,2109.5 759.5,2139.5C 789.602,2140.79 810.769,2155.12 823,2182.5C 825.829,2193.06 824.496,2203.06 819,2212.5C 811.648,2222.52 802.482,2230.36 791.5,2236C 782.066,2240.72 772.399,2244.88 762.5,2248.5C 761.5,2279.83 761.167,2311.16 761.5,2342.5C 778.865,2340.8 794.532,2344.97 808.5,2355C 826.6,2375.94 828.1,2398.1 813,2421.5C 799.818,2436.84 782.985,2444.84 762.5,2445.5C 762.455,2487.5 762.788,2529.5 763.5,2571.5C 773.486,2570.58 783.486,2570.41 793.5,2571C 812.277,2575.11 823.777,2586.61 828,2605.5C 829.962,2638.52 815.462,2660.69 784.5,2672C 776.727,2674.28 768.894,2676.11 761,2677.5C 759.886,2711.55 757.886,2745.55 755,2779.5C 745.912,2875.58 695.079,2936.75 602.5,2963C 555.529,2974.75 509.196,2972.75 463.5,2957C 414.569,2937.74 379.735,2903.9 359,2855.5C 347.371,2828.73 341.204,2800.73 340.5,2771.5C 328.385,2770.49 316.385,2768.65 304.5,2766C 280.655,2755.15 270.821,2736.65 275,2710.5C 284.551,2677.78 306.051,2658.12 339.5,2651.5C 339.833,2623.16 339.5,2594.83 338.5,2566.5C 322.831,2558.67 308.997,2548.34 297,2535.5C 279.758,2512.33 280.425,2489.67 299,2467.5C 310.276,2455.72 323.109,2446.05 337.5,2438.5C 338.5,2407.17 338.833,2375.84 338.5,2344.5C 321.483,2340.07 306.983,2331.41 295,2318.5C 281.458,2298.4 281.125,2278.07 294,2257.5C 304.945,2244.23 319.111,2237.56 336.5,2237.5C 336.5,2206.5 336.5,2175.5 336.5,2144.5C 321.835,2141.12 308.502,2134.95 296.5,2126C 282.126,2113.75 278.626,2098.91 286,2081.5C 293.631,2067.87 303.464,2056.03 315.5,2046C 321.833,2041.5 328.167,2037 334.5,2032.5C 335.627,1995.83 335.627,1959.17 334.5,1922.5C 324.177,1923.35 313.843,1923.52 303.5,1923C 280.592,1918.6 269.259,1904.76 269.5,1881.5C 269.612,1862.32 276.612,1846.16 290.5,1833C 303.109,1823.1 317.442,1819.26 333.5,1821.5C 333.864,1768.15 333.197,1714.82 331.5,1661.5C 314.852,1654.76 299.352,1646.1 285,1635.5C 276.994,1626.14 274.66,1615.47 278,1603.5C 283.779,1584.94 290.946,1566.94 299.5,1549.5C 285.356,1515.73 271.022,1482.06 256.5,1448.5C 455.167,1447.17 653.833,1447.17 852.5,1448.5 Z"/></g>
</svg>
