<?xml version="1.0" encoding="UTF-8"?>
<!DOCTYPE svg PUBLIC "-//W3C//DTD SVG 1.1//EN" "http://www.w3.org/Graphics/SVG/1.1/DTD/svg11.dtd">
<svg xmlns="http://www.w3.org/2000/svg" version="1.1" width="1006px" height="3975px" style="shape-rendering:geometricPrecision; text-rendering:geometricPrecision; image-rendering:optimizeQuality; fill-rule:evenodd; clip-rule:evenodd" xmlns:xlink="http://www.w3.org/1999/xlink">
<g><path style="opacity:0.837" fill="#fdfdfd" d="M -0.5,-0.5 C 334.833,-0.5 670.167,-0.5 1005.5,-0.5C 1005.5,1324.5 1005.5,2649.5 1005.5,3974.5C 670.167,3974.5 334.833,3974.5 -0.5,3974.5C -0.5,2649.5 -0.5,1324.5 -0.5,-0.5 Z M 1001.5,3067.5 C 995.869,3034.86 988.369,3002.53 979,2970.5C 954.934,2895.97 930.267,2821.63 905,2747.5C 866.804,2649.91 828.804,2552.25 791,2454.5C 778.042,2409.04 767.375,2363.04 759,2316.5C 728.986,2148.41 702.652,1979.75 680,1810.5C 650.799,1598.56 624.799,1386.23 602,1173.5C 594.234,1098.67 588.9,1023.67 586,948.5C 581.222,795.825 576.222,643.159 571,490.5C 568.278,419.613 560.611,349.28 548,279.5C 543.398,258.09 537.398,237.09 530,216.5C 516.997,182.165 494.164,156.665 461.5,140C 431.085,126.611 405.585,132.777 385,158.5C 367.071,184.919 353.737,213.586 345,244.5C 330.457,293.878 318.457,343.878 309,394.5C 292.472,483.526 277.806,572.859 265,662.5C 235.371,870.866 208.038,1079.53 183,1288.5C 171.576,1397.58 163.576,1506.92 159,1616.5C 154.353,1741.81 150.353,1867.15 147,1992.5C 141.14,2229.96 119.473,2465.96 82,2700.5C 62.4033,2797.89 41.07,2894.89 18,2991.5C 12.1749,3018.13 7.34156,3044.8 3.5,3071.5C 3.5,2048.83 3.5,1026.17 3.5,3.5C 336.167,3.5 668.833,3.5 1001.5,3.5C 1001.5,1024.83 1001.5,2046.17 1001.5,3067.5 Z M 1001.5,3172.5 C 1001.5,3438.5 1001.5,3704.5 1001.5,3970.5C 668.833,3970.5 336.167,3970.5 3.5,3970.5C 3.5,3710.83 3.5,3451.17 3.5,3191.5C 10.7845,3230.52 25.9512,3266.19 49,3298.5C 68.6521,3324.49 90.8188,3348.33 115.5,3370C 155.915,3405.09 196.915,3439.42 238.5,3473C 262.5,3493.67 286.5,3514.33 310.5,3535C 335.326,3555.59 362.326,3572.92 391.5,3587C 436.117,3605.38 481.784,3608.71 528.5,3597C 560.539,3584.27 591.205,3568.93 620.5,3551C 719.516,3490.65 813.516,3423.31 902.5,3349C 955.624,3301.6 988.624,3242.76 1001.5,3172.5 Z"/></g>
<g><path style="opacity:0.983" fill="#000000" d="M 1001.5,3067.5 C 1002.87,3085.81 1003.87,3104.15 1004.5,3122.5C 1004.24,3139.21 1003.24,3155.88 1001.5,3172.5C 988.624,3242.76 955.624,3301.6 902.5,3349C 813.516,3423.31 719.516,3490.65 620.5,3551C 591.205,3568.93 560.539,3584.27 528.5,3597C 481.784,3608.71 436.117,3605.38 391.5,3587C 362.326,3572.92 335.326,3555.59 310.5,3535C 286.5,3514.33 262.5,3493.67 238.5,3473C 196.915,3439.42 155.915,3405.09 115.5,3370C 90.8188,3348.33 68.6521,3324.49 49,3298.5C 25.9512,3266.19 10.7845,3230.52 3.5,3191.5C -0.471125,3151.5 -0.471125,3111.5 3.5,3071.5C 7.34156,3044.8 12.1749,3018.13 18,2991.5C 41.07,2894.89 62.4033,2797.89 82,2700.5C 119.473,2465.96 141.14,2229.96 147,1992.5C 150.353,1867.15 154.353,1741.81 159,1616.5C 163.576,1506.92 171.576,1397.58 183,1288.5C 208.038,1079.53 235.371,870.866 265,662.5C 277.806,572.859 292.472,483.526 309,394.5C 318.457,343.878 330.457,293.878 345,244.5C 353.737,213.586 367.071,184.919 385,158.5C 405.585,132.777 431.085,126.611 461.5,140C 494.164,156.665 516.997,182.165 530,216.5C 537.398,237.09 543.398,258.09 548,279.5C 560.611,349.28 568.278,419.613 571,490.5C 576.222,643.159 581.222,795.825 586,948.5C 588.9,1023.67 594.234,1098.67 602,1173.5C 624.799,1386.23 650.799,1598.56 680,1810.5C 702.652,1979.75 728.986,2148.41 759,2316.5C 767.375,2363.04 778.042,2409.04 791,2454.5C 828.804,2552.25 866.804,2649.91 905,2747.5C 930.267,2821.63 954.934,2895.97 979,2970.5C 988.369,3002.53 995.869,3034.86 1001.5,3067.5 Z"/></g>
<g><path style="opacity:1" fill="#fefefe" d="M 775.5,2497.5 C 564.334,2498.5 353.001,2498.83 141.5,2498.5C 141.5,2496.17 141.5,2493.83 141.5,2491.5C 160.588,2324.02 172.422,2156.02 177,1987.5C 180.185,1875.5 183.519,1763.5 187,1651.5C 191.647,1532.23 199.98,1413.23 212,1294.5C 237.851,1078.51 266.184,862.846 297,647.5C 310.634,551.362 326.967,455.695 346,360.5C 355.013,316.113 366.68,272.447 381,229.5C 387.682,208.959 397.849,190.459 411.5,174C 423.124,163.704 436.124,161.704 450.5,168C 474.716,181.244 491.882,200.744 502,226.5C 514.943,263.545 523.943,301.545 529,340.5C 538.429,418.551 544.429,496.885 547,575.5C 550.821,693.479 553.821,811.479 556,929.5C 557.974,1004 562.641,1078.34 570,1152.5C 605.49,1487.92 649.157,1822.25 701,2155.5C 712.752,2231.18 726.418,2306.51 742,2381.5C 749.45,2421.31 760.616,2459.98 775.5,2497.5 Z"/></g>
<g><path style="opacity:1" fill="#cacaca" d="M 141.5,2491.5 C 141.5,2493.83 141.5,2496.17 141.5,2498.5C 353.001,2498.83 564.334,2498.5 775.5,2497.5C 776.043,2497.56 776.376,2497.89 776.5,2498.5C 564.501,2499.5 352.501,2499.83 140.5,2499.5C 140.194,2496.61 140.527,2493.95 141.5,2491.5 Z"/></g>
<g><path style="opacity:1" fill="#dadada" d="M 788.5,2530.5 C 571.167,2529.17 353.833,2529.17 136.5,2530.5C 244.831,2529.17 353.498,2528.5 462.5,2528.5C 571.502,2528.5 680.169,2529.17 788.5,2530.5 Z"/></g>
<g><path style="opacity:1" fill="#fefefe" d="M 788.5,2530.5 C 818.561,2607.84 848.727,2685.18 879,2762.5C 896.536,2817.11 914.869,2871.44 934,2925.5C 949.558,2970.6 961.558,3016.6 970,3063.5C 985.678,3150.52 966.344,3228.52 912,3297.5C 900.784,3310.35 888.617,3322.18 875.5,3333C 781.362,3410.45 681.695,3480.12 576.5,3542C 557.796,3552.35 538.463,3561.35 518.5,3569C 476.751,3579.19 436.418,3575.19 397.5,3557C 373.117,3544.48 350.451,3529.48 329.5,3512C 282.045,3470.21 233.712,3429.54 184.5,3390C 164.537,3373.04 144.87,3355.71 125.5,3338C 101.989,3315.84 81.4887,3291.34 64,3264.5C 36.8335,3216.07 25.8335,3164.07 31,3108.5C 33.3021,3071.09 38.6355,3034.09 47,2997.5C 68.9907,2905.88 89.324,2813.88 108,2721.5C 118.948,2658.03 128.448,2594.36 136.5,2530.5C 353.833,2529.17 571.167,2529.17 788.5,2530.5 Z"/></g>
</svg>
