<?xml version="1.0" encoding="UTF-8"?>
<!DOCTYPE svg PUBLIC "-//W3C//DTD SVG 1.1//EN" "http://www.w3.org/Graphics/SVG/1.1/DTD/svg11.dtd">
<svg xmlns="http://www.w3.org/2000/svg" version="1.1" width="1008px" height="3975px" style="shape-rendering:geometricPrecision; text-rendering:geometricPrecision; image-rendering:optimizeQuality; fill-rule:evenodd; clip-rule:evenodd" xmlns:xlink="http://www.w3.org/1999/xlink">
<g><path style="opacity:0.822" fill="#fdfdfd" d="M -0.5,-0.5 C 334.833,-0.5 670.167,-0.5 1005.5,-0.5C 1005.5,1029.83 1005.5,2060.17 1005.5,3090.5C 1003.6,3079.04 1002.26,3067.37 1001.5,3055.5C 1001.5,2038.17 1001.5,1020.83 1001.5,3.5C 668.833,3.5 336.167,3.5 3.5,3.5C 3.5,1025.83 3.5,2048.17 3.5,3070.5C 2.64239,3085.69 1.30906,3100.69 -0.5,3115.5C -0.5,2076.83 -0.5,1038.17 -0.5,-0.5 Z M 1001.5,3055.5 C 992.843,3011.55 981.343,2968.21 967,2925.5C 931.656,2824.8 898.323,2723.47 867,2621.5C 858.415,2595.99 846.415,2572.33 831,2550.5C 799.272,2513.08 766.605,2476.41 733,2440.5C 726.606,2404.47 720.106,2368.47 713.5,2332.5C 723.231,2326.28 732.564,2319.44 741.5,2312C 762.337,2293.49 774.004,2270.33 776.5,2242.5C 775.852,2225.39 770.352,2210.05 760,2196.5C 746.35,2180.85 730.35,2168.18 712,2158.5C 711.168,2149.48 711.335,2140.48 712.5,2131.5C 744.815,2119.88 764.315,2097.21 771,2063.5C 773.404,2017.24 752.738,1986.58 709,1971.5C 708.5,1959.5 708.333,1947.5 708.5,1935.5C 741.302,1926.53 762.802,1905.86 773,1873.5C 776.502,1848.99 768.668,1828.83 749.5,1813C 737.326,1803.83 724.16,1796.33 710,1790.5C 710.103,1777.51 710.436,1764.51 711,1751.5C 749.014,1743.16 769.514,1719.66 772.5,1681C 770.534,1647.4 754.201,1623.73 723.5,1610C 719.57,1608.52 715.57,1607.36 711.5,1606.5C 711.5,1585.5 711.5,1564.5 711.5,1543.5C 744.651,1541.18 766.151,1524.18 776,1492.5C 782.554,1453.11 768.721,1423.28 734.5,1403C 726.827,1399 718.827,1395.83 710.5,1393.5C 708.429,1369.85 706.263,1346.18 704,1322.5C 694.353,1227.67 644.52,1164.83 554.5,1134C 491.803,1113.37 429.136,1113.37 366.5,1134C 287.992,1164.36 241.992,1221.19 228.5,1304.5C 191.758,1308.75 168.925,1328.75 160,1364.5C 157.822,1394.97 167.988,1420.47 190.5,1441C 200.703,1449.61 212.037,1456.44 224.5,1461.5C 225.833,1474.83 225.833,1488.17 224.5,1501.5C 208.27,1510.22 194.437,1521.88 183,1536.5C 163.64,1566.99 165.307,1596.33 188,1624.5C 198.554,1636.06 210.554,1645.73 224,1653.5C 224.208,1670.18 223.708,1686.85 222.5,1703.5C 198.173,1713.33 181.506,1730.49 172.5,1755C 164.554,1798.61 181.054,1828.78 222,1845.5C 222.667,1858.83 222.667,1872.17 222,1885.5C 207.336,1891.33 194.336,1899.66 183,1910.5C 163.101,1935.91 162.434,1961.91 181,1988.5C 192.292,2003.46 205.792,2015.96 221.5,2026C 220.839,2044.44 220.173,2062.94 219.5,2081.5C 174.158,2087.33 152.658,2113 155,2158.5C 160.357,2191.72 178.524,2214.88 209.5,2228C 212.824,2228.94 216.157,2229.78 219.5,2230.5C 219.02,2264.17 218.52,2297.83 218,2331.5C 205.463,2337.18 193.63,2344.02 182.5,2352C 164.292,2367.29 158.125,2386.46 164,2409.5C 167.764,2423.46 173.098,2436.79 180,2449.5C 180.667,2450.83 180.667,2452.17 180,2453.5C 164.715,2473.79 149.048,2493.79 133,2513.5C 118.501,2532.82 106.834,2553.82 98,2576.5C 81.3159,2624.57 69.9825,2673.91 64,2724.5C 58.1587,2775.23 51.8253,2825.9 45,2876.5C 36.7875,2915.02 27.7875,2953.35 18,2991.5C 12.3011,3017.82 7.46778,3044.15 3.5,3070.5C 3.5,2048.17 3.5,1025.83 3.5,3.5C 336.167,3.5 668.833,3.5 1001.5,3.5C 1001.5,1020.83 1001.5,2038.17 1001.5,3055.5 Z"/></g>
<g><path style="opacity:0.982" fill="#010101" d="M 1001.5,3055.5 C 1002.26,3067.37 1003.6,3079.04 1005.5,3090.5C 1006,3097.32 1006.67,3103.99 1007.5,3110.5C 1007.5,3119.17 1007.5,3127.83 1007.5,3136.5C 1006.72,3143.02 1006.05,3149.69 1005.5,3156.5C 1003.45,3166.59 1002.12,3176.93 1001.5,3187.5C 987.327,3248.02 957.994,3299.86 913.5,3343C 813.19,3428.83 705.856,3504.83 591.5,3571C 569.359,3583.24 546.359,3593.57 522.5,3602C 462.372,3614.26 406.705,3603.59 355.5,3570C 340.479,3559.82 325.812,3549.16 311.5,3538C 253.086,3487.58 194.086,3437.91 134.5,3389C 101.52,3361.36 72.0198,3330.52 46,3296.5C 24.3667,3265.57 10.2001,3231.57 3.5,3194.5C 2.79968,3183.5 1.96635,3172.5 1,3161.5C 0.76791,3160.26 0.26791,3159.26 -0.5,3158.5C -0.5,3144.17 -0.5,3129.83 -0.5,3115.5C 1.30906,3100.69 2.64239,3085.69 3.5,3070.5C 7.46778,3044.15 12.3011,3017.82 18,2991.5C 27.7875,2953.35 36.7875,2915.02 45,2876.5C 51.8253,2825.9 58.1587,2775.23 64,2724.5C 69.9825,2673.91 81.3159,2624.57 98,2576.5C 106.834,2553.82 118.501,2532.82 133,2513.5C 149.048,2493.79 164.715,2473.79 180,2453.5C 180.667,2452.17 180.667,2450.83 180,2449.5C 173.098,2436.79 167.764,2423.46 164,2409.5C 158.125,2386.46 164.292,2367.29 182.5,2352C 193.63,2344.02 205.463,2337.18 218,2331.5C 218.52,2297.83 219.02,2264.17 219.5,2230.5C 216.157,2229.78 212.824,2228.94 209.5,2228C 178.524,2214.88 160.357,2191.72 155,2158.5C 152.658,2113 174.158,2087.33 219.5,2081.5C 220.173,2062.94 220.839,2044.44 221.5,2026C 205.792,2015.96 192.292,2003.46 181,1988.5C 162.434,1961.91 163.101,1935.91 183,1910.5C 194.336,1899.66 207.336,1891.33 222,1885.5C 222.667,1872.17 222.667,1858.83 222,1845.5C 181.054,1828.78 164.554,1798.61 172.5,1755C 181.506,1730.49 198.173,1713.33 222.5,1703.5C 223.708,1686.85 224.208,1670.18 224,1653.5C 210.554,1645.73 198.554,1636.06 188,1624.5C 165.307,1596.33 163.64,1566.99 183,1536.5C 194.437,1521.88 208.27,1510.22 224.5,1501.5C 225.833,1488.17 225.833,1474.83 224.5,1461.5C 212.037,1456.44 200.703,1449.61 190.5,1441C 167.988,1420.47 157.822,1394.97 160,1364.5C 168.925,1328.75 191.758,1308.75 228.5,1304.5C 241.992,1221.19 287.992,1164.36 366.5,1134C 429.136,1113.37 491.803,1113.37 554.5,1134C 644.52,1164.83 694.353,1227.67 704,1322.5C 706.263,1346.18 708.429,1369.85 710.5,1393.5C 718.827,1395.83 726.827,1399 734.5,1403C 768.721,1423.28 782.554,1453.11 776,1492.5C 766.151,1524.18 744.651,1541.18 711.5,1543.5C 711.5,1564.5 711.5,1585.5 711.5,1606.5C 715.57,1607.36 719.57,1608.52 723.5,1610C 754.201,1623.73 770.534,1647.4 772.5,1681C 769.514,1719.66 749.014,1743.16 711,1751.5C 710.436,1764.51 710.103,1777.51 710,1790.5C 724.16,1796.33 737.326,1803.83 749.5,1813C 768.668,1828.83 776.502,1848.99 773,1873.5C 762.802,1905.86 741.302,1926.53 708.5,1935.5C 708.333,1947.5 708.5,1959.5 709,1971.5C 752.738,1986.58 773.404,2017.24 771,2063.5C 764.315,2097.21 744.815,2119.88 712.5,2131.5C 711.335,2140.48 711.168,2149.48 712,2158.5C 730.35,2168.18 746.35,2180.85 760,2196.5C 770.352,2210.05 775.852,2225.39 776.5,2242.5C 774.004,2270.33 762.337,2293.49 741.5,2312C 732.564,2319.44 723.231,2326.28 713.5,2332.5C 720.106,2368.47 726.606,2404.47 733,2440.5C 766.605,2476.41 799.272,2513.08 831,2550.5C 846.415,2572.33 858.415,2595.99 867,2621.5C 898.323,2723.47 931.656,2824.8 967,2925.5C 981.343,2968.21 992.843,3011.55 1001.5,3055.5 Z"/></g>
<g><path style="opacity:1" fill="#b7b7b8" d="M 746.5,2497.5 C 721.339,2498.5 696.005,2498.83 670.5,2498.5C 508.167,2497.53 345.833,2496.36 183.5,2495C 194.5,2482 205.5,2469 216.5,2456C 206.542,2437.92 198.375,2419.09 192,2399.5C 190.699,2393.08 191.699,2387.08 195,2381.5C 198.912,2376.92 203.412,2373.08 208.5,2370C 221.35,2363.16 234.517,2356.99 248,2351.5C 248.5,2323.84 248.667,2296.17 248.5,2268.5C 249.497,2246.67 249.831,2224.67 249.5,2202.5C 246.167,2202.5 242.833,2202.5 239.5,2202.5C 210.567,2201.42 192.4,2186.75 185,2158.5C 180.884,2132.97 191.384,2117.47 216.5,2112C 224.493,2111.5 232.493,2111.33 240.5,2111.5C 243.625,2112.48 246.958,2112.81 250.5,2112.5C 250.5,2104.83 250.5,2097.17 250.5,2089.5C 250.833,2062.49 250.5,2035.49 249.5,2008.5C 235.379,2000.22 222.545,1990.22 211,1978.5C 202.69,1969.88 198.19,1959.54 197.5,1947.5C 197.942,1942.28 199.776,1937.62 203,1933.5C 216.451,1920.02 232.617,1911.69 251.5,1908.5C 251.541,1878.83 251.874,1849.16 252.5,1819.5C 225.676,1820.15 208.176,1807.82 200,1782.5C 197.76,1770.56 200.426,1759.9 208,1750.5C 220.351,1737.57 235.184,1728.57 252.5,1723.5C 253.667,1694.17 253.833,1664.84 253,1635.5C 237.668,1628.17 224.002,1618.5 212,1606.5C 193.194,1582.3 195.694,1560.46 219.5,1541C 230.498,1532.83 242.165,1525.66 254.5,1519.5C 255.5,1492.84 255.833,1466.17 255.5,1439.5C 226.882,1435.01 206.049,1420.01 193,1394.5C 183.574,1363.51 194.408,1343.68 225.5,1335C 235.51,1333.83 245.51,1332.67 255.5,1331.5C 258.193,1277.96 278.86,1232.79 317.5,1196C 349.168,1170.01 385.501,1154.68 426.5,1150C 480.124,1144.44 531.124,1153.44 579.5,1177C 629.89,1204.09 660.39,1245.93 671,1302.5C 676.84,1340.94 680.006,1379.6 680.5,1418.5C 700.788,1419.54 718.622,1426.54 734,1439.5C 750.862,1458.05 752.862,1478.05 740,1499.5C 733.121,1507.02 724.621,1511.52 714.5,1513C 703.839,1513.5 693.172,1513.67 682.5,1513.5C 681.644,1552.83 681.311,1592.16 681.5,1631.5C 699.889,1631.79 716.055,1637.79 730,1649.5C 743.092,1663.88 746.092,1680.21 739,1698.5C 731.401,1711.9 719.901,1719.73 704.5,1722C 696.536,1723.1 688.536,1723.6 680.5,1723.5C 680.5,1753.17 680.5,1782.83 680.5,1812.5C 698.245,1817.02 714.578,1824.52 729.5,1835C 746.833,1849.18 749,1865.34 736,1883.5C 720.984,1901.26 701.817,1910.26 678.5,1910.5C 678.5,1938.83 678.5,1967.17 678.5,1995.5C 699.628,1997.65 717.461,2006.32 732,2021.5C 741.478,2034.83 744.145,2049.49 740,2065.5C 733.128,2084.7 719.961,2097.54 700.5,2104C 694.359,2105.76 688.193,2107.26 682,2108.5C 681.333,2131.17 681.333,2153.83 682,2176.5C 698.498,2184.02 713.664,2193.52 727.5,2205C 750.337,2226.54 752.504,2250.04 734,2275.5C 724.664,2287.51 713.497,2297.34 700.5,2305C 693.609,2306.89 686.609,2308.39 679.5,2309.5C 688.137,2357.79 696.637,2406.12 705,2454.5C 718.7,2469.03 732.534,2483.37 746.5,2497.5 Z"/></g>
<g><path style="opacity:1" fill="#4d4d4e" d="M 250.5,2089.5 C 250.5,2097.17 250.5,2104.83 250.5,2112.5C 246.958,2112.81 243.625,2112.48 240.5,2111.5C 243.5,2111.5 246.5,2111.5 249.5,2111.5C 249.175,2103.98 249.508,2096.65 250.5,2089.5 Z"/></g>
<g><path style="opacity:1" fill="#555555" d="M 239.5,2202.5 C 242.833,2202.5 246.167,2202.5 249.5,2202.5C 249.831,2224.67 249.497,2246.67 248.5,2268.5C 248.5,2246.83 248.5,2225.17 248.5,2203.5C 245.287,2203.81 242.287,2203.48 239.5,2202.5 Z"/></g>
<g><path style="opacity:1" fill="#7a7a7b" d="M 746.5,2497.5 C 747.043,2497.56 747.376,2497.89 747.5,2498.5C 721.67,2499.83 696.003,2499.83 670.5,2498.5C 696.005,2498.83 721.339,2498.5 746.5,2497.5 Z"/></g>
<g><path style="opacity:1" fill="#fdfdfd" d="M 155.5,2533.5 C 360.163,2534.76 564.83,2535.59 769.5,2536C 796.364,2552.85 815.864,2576.02 828,2605.5C 833.254,2616.93 837.921,2628.59 842,2640.5C 872.66,2740.48 905.326,2839.81 940,2938.5C 950.642,2970.42 959.642,3002.75 967,3035.5C 978.409,3085.98 979.409,3136.64 970,3187.5C 957.254,3239.51 931.754,3284.01 893.5,3321C 796.897,3403.26 693.897,3476.6 584.5,3541C 561.506,3554.16 537.506,3565.16 512.5,3574C 471.294,3581.91 431.96,3576.57 394.5,3558C 369.519,3544.34 346.186,3528.34 324.5,3510C 272.574,3464.72 219.908,3420.38 166.5,3377C 132.594,3349.09 102.094,3317.93 75,3283.5C 48.4166,3245.75 33.75,3203.75 31,3157.5C 29.1827,3102.09 34.8494,3047.42 48,2993.5C 56.1594,2960.53 64.1594,2927.53 72,2894.5C 80.3522,2837.62 87.6856,2780.62 94,2723.5C 99.6757,2682.47 108.342,2642.14 120,2602.5C 128.181,2577.47 140.014,2554.47 155.5,2533.5 Z"/></g>
<g><path style="opacity:0.877" fill="#fdfdfd" d="M 1005.5,3156.5 C 1005.5,3429.17 1005.5,3701.83 1005.5,3974.5C 670.167,3974.5 334.833,3974.5 -0.5,3974.5C -0.5,3702.5 -0.5,3430.5 -0.5,3158.5C 0.26791,3159.26 0.76791,3160.26 1,3161.5C 1.96635,3172.5 2.79968,3183.5 3.5,3194.5C 3.5,3453.17 3.5,3711.83 3.5,3970.5C 336.167,3970.5 668.833,3970.5 1001.5,3970.5C 1001.5,3709.5 1001.5,3448.5 1001.5,3187.5C 1002.12,3176.93 1003.45,3166.59 1005.5,3156.5 Z M 1001.5,3187.5 C 1001.5,3448.5 1001.5,3709.5 1001.5,3970.5C 668.833,3970.5 336.167,3970.5 3.5,3970.5C 3.5,3711.83 3.5,3453.17 3.5,3194.5C 10.2001,3231.57 24.3667,3265.57 46,3296.5C 72.0198,3330.52 101.52,3361.36 134.5,3389C 194.086,3437.91 253.086,3487.58 311.5,3538C 325.812,3549.16 340.479,3559.82 355.5,3570C 406.705,3603.59 462.372,3614.26 522.5,3602C 546.359,3593.57 569.359,3583.24 591.5,3571C 705.856,3504.83 813.19,3428.83 913.5,3343C 957.994,3299.86 987.327,3248.02 1001.5,3187.5 Z"/></g>
</svg>
