<?xml version="1.0" encoding="UTF-8"?>
<svg version="1.1" xmlns="http://www.w3.org/2000/svg" width="1025" height="3976">
<path d="M0 0 C338.25 0 676.5 0 1025 0 C1025 1312.08 1025 2624.16 1025 3976 C686.75 3976 348.5 3976 0 3976 C0 2663.92 0 1351.84 0 0 Z M4 4 C4 289.78 4 575.56 4 870 C4.33 870 4.66 870 5 870 C5.03963867 869.28271729 5.07927734 868.56543457 5.12011719 867.82641602 C9.94000437 784.04426097 46.85761944 695.67803492 106 635 C106.53302734 634.45182617 107.06605469 633.90365234 107.61523438 633.33886719 C113.85021959 626.95542994 120.15757449 620.73556256 127 615 C127.928125 614.2059375 128.85625 613.411875 129.8125 612.59375 C159.84233877 586.93453949 191.50204453 563.26661593 223.55078125 540.20703125 C226.49315683 538.08952457 229.42761475 535.961756 232.35546875 533.82421875 C242.82030163 526.19502556 253.44653474 518.8324182 264.17773438 511.58349609 C267.07951175 509.62327788 269.97865014 507.65919926 272.87695312 505.69384766 C277.52773089 502.54023826 282.18093031 499.39022725 286.83547974 496.2421875 C288.70593115 494.97663313 290.5758044 493.71022374 292.44503784 492.44287109 C304.17900327 484.48998658 316.01422414 476.74387239 328.03512573 469.23171997 C330.59594377 467.62642096 333.14139572 465.99787693 335.68359375 464.36328125 C372.894329 440.46550002 411.04468007 417.4424921 450.83007812 398.06738281 C452.93466161 397.0321399 455.02380214 395.97139133 457.109375 394.8984375 C487.197102 379.44848198 515.86726694 370.77376972 549.75 370.75 C550.61582703 370.74932526 551.48165405 370.74865051 552.37371826 370.74795532 C619.20873566 370.83051722 674.68743583 400.74366311 723 445 C723.52126465 445.47614746 724.0425293 445.95229492 724.57958984 446.44287109 C732.66933813 453.83753506 740.62944212 461.19618115 747.79296875 469.5078125 C750.75798507 472.85591942 753.81634494 476.11254243 756.875 479.375 C764.76971075 487.80902362 772.4812176 496.29622731 779.75 505.28125 C782.64475711 508.77908151 785.69589539 512.11785404 788.75390625 515.47265625 C791.06187598 518.06962393 793.25555863 520.73404013 795.4375 523.4375 C799.30058217 528.21428509 803.37911435 532.73946882 807.5390625 537.2578125 C809.91039895 539.90015883 812.15252997 542.60694167 814.375 545.375 C819.18086312 551.32713789 824.36228494 556.88442882 829.58056641 562.47167969 C833.75814059 566.96972138 837.84844092 571.55322636 841.90209961 576.16308594 C848.03957018 583.0938656 854.49257538 589.67875102 861.03759766 596.22290039 C862.87042269 598.05791722 864.6950701 599.9008125 866.51953125 601.74414062 C873.37402913 608.63111659 880.36277226 614.98035744 888 621 C889.1478395 621.95911403 890.29073714 622.92421469 891.42578125 623.8984375 C896.85857313 628.55931714 902.34920787 633.10554828 908 637.5 C921.83429366 648.27723444 935.12939712 659.734223 947.2578125 672.41796875 C948.85455448 674.22408653 948.85455448 674.22408653 951 674 C951.22171875 674.54527344 951.4434375 675.09054687 951.671875 675.65234375 C953.41675343 678.73667298 955.79365898 681.04733629 958.25 683.5625 C995.0478165 722.418423 1014.81591815 774.34064229 1020 827 C1020.33 827 1020.66 827 1021 827 C1021 555.41 1021 283.82 1021 4 C685.39 4 349.78 4 4 4 Z M4 879 C4 1899.69 4 2920.38 4 3972 C339.61 3972 675.22 3972 1021 3972 C1021 2955.27 1021 1938.54 1021 891 C1020.67 891 1020.34 891 1020 891 C1019.86537354 892.27786377 1019.86537354 892.27786377 1019.72802734 893.58154297 C1015.2357988 935.52206279 1006.36102556 976.10173998 996.63397789 1017.08243084 C995.48724466 1021.92035695 994.35800678 1026.76209969 993.23679924 1031.6060009 C986.15571318 1062.15176911 978.07141035 1092.3857859 969.72347254 1122.60687834 C967.63016199 1130.18676178 965.54829734 1137.76978376 963.46630859 1145.3527832 C962.67962002 1148.21762058 961.89286332 1151.08243925 961.1060791 1153.94725037 C960.90966552 1154.66245348 960.71325194 1155.37765659 960.51088643 1156.11453253 C959.10850111 1161.22052627 957.70464559 1166.32611443 956.3001709 1171.43153381 C950.65637681 1191.94907495 945.03889553 1212.47368533 939.44140625 1233.00390625 C939.2466933 1233.71805435 939.05198034 1234.43220245 938.851367 1235.1679914 C936.71042442 1243.02063048 934.57030817 1250.87349461 932.43060303 1258.72647095 C930.13466734 1267.15282188 927.83725407 1275.57876958 925.53955078 1284.00463867 C924.79302263 1286.74228219 924.04650309 1289.47992805 923.29998779 1292.21757507 C923.02627806 1293.22133166 923.02627806 1293.22133166 922.74703884 1294.24536616 C918.1386967 1311.14544843 913.53150654 1328.04584506 908.92777729 1344.94718456 C907.73322857 1349.33263809 906.53836492 1353.71800499 905.34251404 1358.10310364 C903.42219777 1365.14561511 901.50323542 1372.18844505 899.59862423 1379.23522282 C898.61472493 1382.8748336 897.62846171 1386.51379975 896.640625 1390.15234375 C896.35574565 1391.20172906 896.35574565 1391.20172906 896.06511116 1392.27231407 C893.5133004 1401.65357857 890.85611672 1410.99931252 888.11399841 1420.32667542 C886.57461246 1425.56334305 885.0636519 1430.80812256 883.55719852 1436.05434704 C882.56834968 1439.48900075 881.56670034 1442.91790532 880.51681519 1446.33444214 C874.78417857 1465.11165553 871.73440697 1483.81120999 869.29296875 1503.26733398 C868.94953753 1505.95824128 868.60339583 1508.6487984 868.25740337 1511.3393774 C867.43632865 1517.73729489 866.62478258 1524.13638272 865.81702397 1530.53599365 C865.1952727 1535.46029294 864.56984699 1540.38411075 863.94140053 1545.30755997 C863.85447433 1545.9885689 863.76754814 1546.66957783 863.67798782 1547.3712234 C863.50221672 1548.74812979 863.32643759 1550.12503516 863.15065043 1551.5019395 C861.09268279 1567.62688376 859.05477946 1583.75434648 857.01994019 1599.88222292 C855.97722232 1608.14619448 854.93269196 1616.40993676 853.8881179 1624.67367386 C851.97023387 1639.84652746 850.05354903 1655.01953228 848.13757324 1670.19262695 C845.26161861 1692.96781404 842.38348178 1715.74272512 839.50488281 1738.51757812 C839.25993441 1740.45557235 839.0149861 1742.3935666 838.77003789 1744.33156085 C837.78663794 1752.11205293 836.80322929 1759.89254392 835.81979144 1767.67303121 C834.58250273 1777.461887 833.34527138 1787.25075003 832.108181 1797.03963089 C825.51590009 1849.20316318 818.91815139 1901.36599761 812.30859375 1953.52734375 C812.16590776 1954.65340035 812.16590776 1954.65340035 812.02033922 1955.80220556 C809.37720986 1976.66126686 806.73337072 1997.52023817 804.08926095 2018.3791752 C803.06133541 2026.48831389 802.0334565 2034.5974585 801.00558472 2042.706604 C800.86660545 2043.80304618 800.86660545 2043.80304618 800.72481852 2044.9216387 C798.8465041 2059.74014332 796.96823934 2074.55865423 795.09003321 2089.37717257 C794.61944632 2093.08996797 794.14885501 2096.8027628 793.67825341 2100.51555634 C787.67365929 2147.88859766 781.67434967 2195.26230638 775.67825258 2242.63642391 C774.58646721 2251.26238843 773.49459047 2259.88834139 772.40270615 2268.51429339 C771.5338519 2275.37830856 770.66501262 2282.24232563 769.79617429 2289.10634282 C769.57985767 2290.81529194 769.36354065 2292.52424101 769.14722323 2294.23319003 C766.85628022 2312.33209924 764.56547732 2330.43102614 762.27562324 2348.53007316 C757.4439955 2386.71932888 752.60797478 2424.90802371 747.76355845 2463.09565943 C746.76049124 2471.00287581 745.7577974 2478.91013932 744.75575638 2486.81748581 C742.40852244 2505.33975188 740.0592563 2523.86175643 737.70437741 2542.38305229 C736.68689147 2550.38604971 735.67035708 2558.38916456 734.65685654 2566.39266777 C723.99502557 2650.57410294 711.80772079 2734.51042719 698.43030548 2818.30329132 C698.0004524 2820.99716481 697.57137097 2823.69116014 697.14251709 2826.38519287 C681.68114319 2923.48946492 664.78888115 3020.3607378 602.83666992 3318.42614746 C602.02160054 3321.90773287 601.20898992 3325.38988584 600.39648438 3328.87207031 C580.99572815 3411.84932637 559.15681027 3495.22577099 495 3653 C494.44626709 3654.05380859 494.44626709 3654.05380859 493.88134766 3655.12890625 C485.67478328 3670.60706676 476.4589934 3685.69353624 465 3699 C464.30648438 3699.82628906 463.61296875 3700.65257813 462.8984375 3701.50390625 C452.33887412 3713.72389568 438.48989884 3725.46494967 422 3728 C402.83763805 3729.29303549 388.94209724 3723.43863675 374.3125 3711.3125 C325.76533735 3665.53690649 311.25887326 3586.58254514 306.3125 3523.375 C306.25156158 3522.60625549 306.19062317 3521.83751099 306.12783813 3521.04547119 C304.31695283 3497.77779128 303.78805901 3474.4565317 303.8125 3451.125 C303.81343658 3449.93260712 303.81437317 3448.74021423 303.81533813 3447.51168823 C303.92760848 3380.00845253 308.31086162 3312.5807854 311.96409893 3245.19999695 C316.17517076 3167.51100377 320.31597643 3089.81689202 321 3012 C321.0129007 3010.55364166 321.0129007 3010.55364166 321.02606201 3009.07806396 C321.46633238 2956.65483884 320.18571836 2904.243291 317.21113682 2851.90459156 C317.1599229 2851.00315336 317.10870898 2850.10171515 317.05594313 2849.17296064 C316.95482518 2847.39423621 316.85365847 2845.61551456 316.75243032 2843.8367964 C314.60642859 2806.11482167 312.63965634 2768.39689004 311.29156232 2730.63713741 C311.17187489 2727.28916639 311.05080468 2723.94124714 310.9296093 2720.59333038 C308.07164025 2641.35011682 305.93963893 2562.08109811 303.65114021 2482.81993961 C302.69026534 2449.54127594 301.72720212 2416.26267804 300.75390625 2382.984375 C300.71079491 2381.50992839 300.71079491 2381.50992839 300.66681263 2380.00569499 C298.09988718 2292.23731932 295.27904468 2204.47718454 290.23453903 2073.88712692 C290.08459347 2070.2863866 289.93613624 2066.68558634 289.7880339 2063.08476979 C286.15150829 1974.68119045 281.96132643 1886.28040133 246.5 1524.5625 C246.25193604 1523.32234131 246.00387207 1522.08218262 245.74829102 1520.80444336 C241.43233071 1500.45468376 234.7982383 1481.03653947 226.9296875 1461.81640625 C226.05465211 1459.65383143 225.18070922 1457.49081429 224.30776978 1455.32739258 C222.46404333 1450.76386204 220.61348726 1446.20319256 218.75708008 1441.64480591 C215.82018598 1434.4326778 212.89978067 1427.21394517 209.98242188 1419.99389648 C208.99765165 1417.55719226 208.01284945 1415.12050096 207.02801514 1412.68382263 C206.2992429 1410.88068509 206.2992429 1410.88068509 205.55574799 1409.04112053 C204.08875057 1405.41320679 202.6202256 1401.7859152 201.15118408 1398.15882874 C193.80235042 1380.01219365 186.52871675 1361.83718859 179.32076645 1343.63420105 C177.94462324 1340.16067051 176.56557736 1336.68829301 175.18676758 1333.21582031 C169.72082316 1319.44690293 164.26529222 1305.67389963 158.82080078 1291.89648438 C154.52045125 1281.01439195 150.21302553 1270.13512241 145.89961433 1259.25820065 C143.51841273 1253.25263535 141.1404956 1247.24581924 138.77099609 1241.23562622 C129.28818346 1217.18751345 119.82739214 1193.23215966 108.4647522 1169.99841309 C106.4103456 1165.79295115 104.40021362 1161.56668988 102.38679504 1157.3414917 C100.45174833 1153.28944404 98.49802945 1149.24648944 96.54492188 1145.203125 C94.92582437 1141.84620982 93.31400881 1138.48586377 91.703125 1135.125 C85.89107578 1123.01829169 79.99856576 1110.95983645 73.95825195 1098.96520996 C66.31675571 1083.78548095 59.02574174 1068.47670539 52 1053 C51.48985352 1051.88318848 50.97970703 1050.76637695 50.45410156 1049.61572266 C25.62593747 995.16537039 6.71934124 939.23623119 5 879 C4.67 879 4.34 879 4 879 Z " fill="#FDFDFD" transform="translate(0,0)"/>
<path d="M0 0 C197.34 0 394.68 0 598 0 C596.81753333 5.32110004 595.72535187 9.99380694 594.0625 15.0625 C592.33140394 21.10203653 591.36807752 26.99987928 590.64453125 33.234375 C590.45901199 34.77276787 590.45901199 34.77276787 590.26974487 36.34223938 C589.99358682 38.63610038 589.71983374 40.9302518 589.4480896 43.22463989 C588.97063144 47.24744355 588.48510206 51.26921039 587.99731445 55.29077148 C587.8192842 56.75943306 587.64127035 58.22809663 587.46327209 59.69676208 C587.37312395 60.44057066 587.28297581 61.18437923 587.1900959 61.95072746 C586.81751447 65.02785242 586.44615156 68.10512386 586.07485867 71.18240452 C579.79260313 123.24928319 579.79260313 123.24928319 576.96054077 143.57772827 C575.16960487 156.43993902 573.6269692 169.32591239 572.11901855 182.22412109 C570.72471762 194.13640646 569.20828255 206.016366 567.51708984 217.890625 C566.03868827 228.40894365 564.79557496 238.95056943 563.5625 249.5 C562.00162385 262.85256421 560.34100669 276.18313845 558.5 289.5 C556.682428 302.65061578 555.03968985 315.81399992 553.5 329 C551.87230764 342.93965911 550.11041282 356.85113166 548.18850708 370.75317383 C546.33042323 384.22186832 544.69854445 397.71127968 543.12011719 411.21533203 C541.72543906 423.13054657 540.20869882 435.01344328 538.51708984 446.890625 C537.03868827 457.40894365 535.79557496 467.95056943 534.5625 478.5 C533.00162385 491.85256421 531.34100669 505.18313845 529.5 518.5 C527.682428 531.65061578 526.03968985 544.81399992 524.5 558 C522.87199236 571.94235922 521.10913297 585.8564144 519.1875 599.76123047 C517.35559843 613.04537919 515.74341275 626.34906796 514.18850708 639.66821289 C512.64099886 652.90023498 510.94097253 666.10329372 509.12011719 679.30029297 C507.62020762 690.18740747 506.25049795 701.08149676 505 712 C503.66137438 723.68797448 502.17045105 735.34606555 500.5625 747 C498.72532624 760.31739323 497.05883228 773.64722012 495.5 787 C493.87208548 800.94236947 492.10913271 814.85641629 490.1875 828.76123047 C488.47795046 841.1581358 486.95137101 853.57036797 485.5 866 C483.87230764 879.93965911 482.11041282 893.85113166 480.18850708 907.75317383 C478.33042323 921.22186832 476.69854445 934.71127968 475.12011719 948.21533203 C473.72543906 960.13054657 472.20869882 972.01344328 470.51708984 983.890625 C469.03868827 994.40894365 467.79557496 1004.95056943 466.5625 1015.5 C465.00162385 1028.85256421 463.34100669 1042.18313845 461.5 1055.5 C459.68242622 1068.65062865 458.04024591 1081.81405835 456.5 1095 C454.79411961 1109.58973592 452.94441199 1124.15045503 450.94091797 1138.70214844 C449.38077769 1150.05507379 447.92584199 1161.4191467 446.49740601 1172.78933716 C444.23214542 1190.79837227 441.81670481 1208.78137391 439.25 1226.75 C439.10129456 1227.79506714 438.95258911 1228.84013428 438.79937744 1229.91687012 C438.3742529 1232.89811424 437.9457076 1235.87884248 437.515625 1238.859375 C437.39188507 1239.7251416 437.26814514 1240.5909082 437.14065552 1241.48291016 C436.35798174 1246.85995268 435.4420701 1252.20090993 434.43914795 1257.5413208 C433.81820961 1261.01779878 433.40264439 1264.49124178 433 1268 C432.47692983 1272.40160718 431.9092908 1276.7720754 431.0625 1281.125 C429.83445736 1287.48587709 429.04005139 1293.90551654 428.22875977 1300.33056641 C427.53971989 1305.61112182 426.67409371 1310.82570402 425.6640625 1316.0546875 C423.6358683 1326.5803326 422.0346907 1337.17436651 420.38494873 1347.7645874 C419.39664222 1354.10570278 418.39961835 1360.44544602 417.40234375 1366.78515625 C417.20046448 1368.06898193 416.99858521 1369.35280762 416.79058838 1370.67553711 C414.07615724 1387.90629762 411.24784024 1405.11831147 408.41918945 1422.33061218 C407.33042043 1428.96316216 406.25689966 1435.59804937 405.19140625 1442.234375 C402.2148209 1460.74988584 399.12075451 1479.23406187 395.76098633 1497.68408203 C394.08513553 1506.89751171 392.45304616 1516.11692377 390.875 1525.34765625 C390.69212936 1526.41690842 390.50925873 1527.48616058 390.32084656 1528.58781433 C390.13593155 1529.66912125 389.95101654 1530.75042816 389.76049805 1531.86450195 C385.68822442 1555.67442659 381.33090393 1579.41346624 376.71205139 1603.12313843 C375.14825123 1611.1766939 373.63882829 1619.24016072 372.1328125 1627.3046875 C369.01199406 1644.00829701 365.80192766 1660.69402915 362.5625 1677.375 C362.35084324 1678.46558842 362.35084324 1678.46558842 362.13491058 1679.57820892 C358.13489284 1700.18825818 354.11388288 1720.79177483 349.77392578 1741.33349609 C349.09107595 1744.5685241 348.41446516 1747.80475316 347.7403717 1751.04161072 C344.31115422 1767.49499547 340.68827219 1783.89571767 336.90820312 1800.27197266 C334.87286943 1809.10173994 332.92635616 1817.94461175 331.0625 1826.8125 C324.77620808 1856.52307107 317.32222148 1885.97393273 309.90707397 1915.41844177 C308.55936689 1920.77057953 307.2184764 1926.12434038 305.88671875 1931.48046875 C301.47648655 1949.21523227 296.80369209 1966.81211049 291.65625 1984.34765625 C290.41974614 1988.56018752 289.19927555 1992.77668912 288 1997 C285.32535348 2006.40143991 282.57299641 2015.78035729 279.82861328 2025.16162109 C279.10987775 2027.62361854 278.39546233 2030.08679205 277.68359375 2032.55078125 C263.14774225 2082.72884926 246.45981412 2134.60216021 222.06005859 2180.96533203 C220.84522161 2183.29708041 219.66711964 2185.64594807 218.48828125 2187.99609375 C207.06296552 2210.57178998 191.38817199 2240.06050282 166 2249 C159.09001596 2250.29620483 154.01067023 2249.14345467 148.0703125 2245.484375 C119.39462635 2224.92444908 105.11813269 2182.46788175 95.64135742 2150.16601562 C95.18798811 2148.63488029 94.72061941 2147.10785728 94.2434082 2145.58398438 C92.47449524 2139.89255521 91.10824737 2134.2411822 90.0625 2128.375 C89.8970166 2127.45549561 89.7315332 2126.53599121 89.56103516 2125.58862305 C87.17348197 2111.80449765 85.61166089 2097.89187749 84 2084 C83.88382324 2083.01209473 83.76764648 2082.02418945 83.64794922 2081.00634766 C81.5604037 2063.09844922 80.83887918 2045.27314293 80.796875 2027.25390625 C80.78984758 2025.3795469 80.78276082 2023.50518778 80.77561951 2021.63082886 C80.75606957 2015.60804936 80.75117697 2009.58530798 80.75 2003.5625 C80.74955814 2002.5267345 80.74911629 2001.49096901 80.74866104 2000.42381668 C80.74073807 1964.91290995 81.58034138 1929.58632063 83.59826279 1894.13072968 C84.12295464 1884.88752629 84.61444354 1875.64253545 85.10986519 1866.39772606 C85.82441764 1853.06785249 86.54281917 1839.73822978 87.28588867 1826.40991211 C87.49551765 1822.64438167 87.70493665 1818.87883966 87.9140625 1815.11328125 C87.98993434 1813.74739648 87.98993434 1813.74739648 88.06733894 1812.35391808 C88.67113039 1801.44785047 89.21540849 1790.54408215 89.62600708 1779.62876892 C89.94954098 1771.40894871 90.45528814 1763.20184758 90.96875 1754.9921875 C91.90188466 1740.04290579 92.66335103 1725.08990021 93.32275391 1710.12597656 C93.49522612 1706.21395538 93.67546825 1702.30230718 93.85546875 1698.390625 C94.18749173 1691.06208333 94.4915082 1683.73265031 94.7833252 1676.40240479 C94.93623656 1672.56149123 95.09515934 1668.72086949 95.25671387 1664.88031006 C96.92174178 1624.92413578 97.31753877 1585.03438504 97.25713825 1545.04977334 C97.24956538 1539.45340525 97.25235256 1533.85710775 97.26074219 1528.26074219 C97.3273969 1482.5500659 96.69797816 1437.00517091 93.36837769 1391.39208984 C90.17278832 1346.85338775 88.91202028 1302.20144838 87.33999157 1257.58339882 C87.06135418 1249.69007981 86.7736932 1241.79712601 86.48159695 1233.90429497 C84.7417192 1186.88621673 83.40606119 1139.86323697 82.22167683 1092.82801342 C81.33012446 1057.46935758 80.29760609 1022.11790143 79.09323692 986.76849365 C78.94376135 982.37825497 78.79566383 977.9879709 78.6484375 973.59765625 C78.62007183 972.75370552 78.59170616 971.90975479 78.56248093 971.0402298 C78.07288467 956.35920959 77.72384143 941.6766868 77.40735626 926.99102974 C77.12878275 914.09501329 76.77763246 901.20805539 76.24145508 888.3197937 C75.45119029 869.18465842 74.83605588 850.04529473 74.2734375 830.90234375 C74.24172581 829.82642094 74.21001411 828.75049812 74.17734146 827.64197159 C73.8868455 817.77804107 73.597792 807.91407117 73.31890869 798.04980469 C73.14287015 791.82347354 72.96387421 785.59723532 72.78125 779.37109375 C72.75131832 778.35047726 72.72138664 777.32986076 72.69054794 776.2783165 C72.22452097 760.58800517 71.57563584 744.91159378 70.83663368 729.2320137 C70.2068099 715.78769365 69.76253133 702.35052179 69.48046875 688.89453125 C69.04881877 668.4551885 68.30125812 648.03710424 67.43611908 627.61181641 C67.30982192 624.62414776 67.18498012 621.63642084 67.06036377 618.64868164 C65.04610987 570.50383613 62.54026436 522.38355409 60.00596619 474.26374817 C59.33689436 461.54656247 58.69020331 448.82855809 58.067173 436.10903931 C57.24666966 419.38366485 56.30793376 402.66907865 55.25 385.95703125 C55.03883843 382.61473959 54.83108188 379.27227276 54.62501717 375.92966557 C53.78231372 362.29042447 52.84830721 348.66710345 51.67282104 335.05223083 C51.00154192 327.22686519 50.52839114 319.40655875 50.125 311.5625 C48.37946258 279.75010408 45.5651312 248.00045054 42.10704041 216.33149719 C42.02659988 215.59432968 41.94615936 214.85716217 41.86328125 214.09765625 C41.7850563 213.38099289 41.70683136 212.66432953 41.62623596 211.9259491 C41.01052342 206.2277002 40.51395133 200.52565714 40.0625 194.8125 C39.15640554 183.6179878 37.85094793 172.46805666 36.5625 161.3125 C36.40710251 159.95386337 36.40710251 159.95386337 36.24856567 158.56777954 C34.93647932 147.13392125 33.42657072 135.74978041 31.66381836 124.37646484 C31.04452498 120.36207147 30.50920929 116.3423109 30 112.3125 C29.03423965 104.95055632 27.76317406 97.65971489 26.42529297 90.35888672 C25.97807516 87.87839394 25.55214096 85.39484797 25.12890625 82.91015625 C20.26430074 54.7114107 12.73368412 29.21517153 0.93041992 3.17041016 C0 1 0 1 0 0 Z " fill="#FDFDFD" transform="translate(252,1449)"/>
<path d="M0 0 C338.25 0 676.5 0 1025 0 C1025 1312.08 1025 2624.16 1025 3976 C686.75 3976 348.5 3976 0 3976 C0 2663.92 0 1351.84 0 0 Z M4 4 C4 289.78 4 575.56 4 870 C4.33 870 4.66 870 5 870 C5.03963867 869.28271729 5.07927734 868.56543457 5.12011719 867.82641602 C9.94000437 784.04426097 46.85761944 695.67803492 106 635 C106.53302734 634.45182617 107.06605469 633.90365234 107.61523438 633.33886719 C113.85021959 626.95542994 120.15757449 620.73556256 127 615 C127.928125 614.2059375 128.85625 613.411875 129.8125 612.59375 C159.84233877 586.93453949 191.50204453 563.26661593 223.55078125 540.20703125 C226.49315683 538.08952457 229.42761475 535.961756 232.35546875 533.82421875 C242.82030163 526.19502556 253.44653474 518.8324182 264.17773438 511.58349609 C267.07951175 509.62327788 269.97865014 507.65919926 272.87695312 505.69384766 C277.52773089 502.54023826 282.18093031 499.39022725 286.83547974 496.2421875 C288.70593115 494.97663313 290.5758044 493.71022374 292.44503784 492.44287109 C304.17900327 484.48998658 316.01422414 476.74387239 328.03512573 469.23171997 C330.59594377 467.62642096 333.14139572 465.99787693 335.68359375 464.36328125 C372.894329 440.46550002 411.04468007 417.4424921 450.83007812 398.06738281 C452.93466161 397.0321399 455.02380214 395.97139133 457.109375 394.8984375 C487.197102 379.44848198 515.86726694 370.77376972 549.75 370.75 C550.61582703 370.74932526 551.48165405 370.74865051 552.37371826 370.74795532 C619.20873566 370.83051722 674.68743583 400.74366311 723 445 C723.52126465 445.47614746 724.0425293 445.95229492 724.57958984 446.44287109 C732.66933813 453.83753506 740.62944212 461.19618115 747.79296875 469.5078125 C750.75798507 472.85591942 753.81634494 476.11254243 756.875 479.375 C764.76971075 487.80902362 772.4812176 496.29622731 779.75 505.28125 C782.64475711 508.77908151 785.69589539 512.11785404 788.75390625 515.47265625 C791.06187598 518.06962393 793.25555863 520.73404013 795.4375 523.4375 C799.30058217 528.21428509 803.37911435 532.73946882 807.5390625 537.2578125 C809.91039895 539.90015883 812.15252997 542.60694167 814.375 545.375 C819.18086312 551.32713789 824.36228494 556.88442882 829.58056641 562.47167969 C833.75814059 566.96972138 837.84844092 571.55322636 841.90209961 576.16308594 C848.03957018 583.0938656 854.49257538 589.67875102 861.03759766 596.22290039 C862.87042269 598.05791722 864.6950701 599.9008125 866.51953125 601.74414062 C873.37402913 608.63111659 880.36277226 614.98035744 888 621 C889.1478395 621.95911403 890.29073714 622.92421469 891.42578125 623.8984375 C896.85857313 628.55931714 902.34920787 633.10554828 908 637.5 C921.83429366 648.27723444 935.12939712 659.734223 947.2578125 672.41796875 C948.85455448 674.22408653 948.85455448 674.22408653 951 674 C951.22171875 674.54527344 951.4434375 675.09054687 951.671875 675.65234375 C953.41675343 678.73667298 955.79365898 681.04733629 958.25 683.5625 C995.0478165 722.418423 1014.81591815 774.34064229 1020 827 C1020.33 827 1020.66 827 1021 827 C1021 555.41 1021 283.82 1021 4 C685.39 4 349.78 4 4 4 Z M467.12451172 421.91210938 C464.74352129 423.13133408 462.34474453 424.30982803 459.94140625 425.484375 C446.32503764 432.15469219 433.11493223 439.39552648 420 447 C418.87142578 447.65274902 417.74285156 448.30549805 416.58007812 448.97802734 C399.20916186 459.03450287 382.02770774 469.37075373 365 480 C363.71971924 480.79494873 363.71971924 480.79494873 362.41357422 481.60595703 C344.28552402 492.88041138 326.61048858 504.86234677 308.87211609 516.73542786 C304.39427665 519.73237517 299.91349846 522.72476475 295.42700195 525.70874023 C286.33742485 531.75456904 277.25827364 537.80494871 268.3125 544.0625 C267.36318604 544.72459473 266.41387207 545.38668945 265.43579102 546.06884766 C257.2185817 551.81517678 249.08620646 557.67448122 240.97558594 563.56982422 C238.57402144 565.30837647 236.15945381 567.02800946 233.7421875 568.74462891 C216.32321866 581.11513497 199.30850836 593.9894561 182.53515625 607.21875 C180.19655348 609.06226353 177.85009332 610.89494235 175.49609375 612.71875 C164.34884084 621.37362341 153.66127259 630.50679765 143.21875 640 C141.21482517 641.80635478 139.17795013 643.56244415 137.125 645.3125 C116.30263048 663.5215357 101.32734527 686.55756913 87 710 C86.57267578 710.69625488 86.14535156 711.39250977 85.70507812 712.10986328 C65.9364294 744.4844951 50.39953908 779.26340419 41.625 816.25 C41.3983667 817.19294922 41.1717334 818.13589844 40.93823242 819.10742188 C36.93066393 837.06084644 35.49598928 855.10425735 35.60888672 873.46166992 C35.625015 876.56538672 35.60889222 879.66780559 35.58984375 882.77148438 C35.57525234 896.40457163 36.75230531 909.55842333 39 923 C39.20399414 924.23468018 39.40798828 925.46936035 39.61816406 926.74145508 C40.14048563 929.71324528 40.70778289 932.66897487 41.3125 935.625 C41.62997192 937.1862561 41.62997192 937.1862561 41.95385742 938.77905273 C44.04381602 948.72403214 46.8529374 958.34560645 50 968 C50.603007 969.89839227 51.20586594 971.79683157 51.80859375 973.6953125 C66.38800415 1019.03608625 87.86828947 1061.97088905 109.20068359 1104.43774414 C115.13304521 1116.24849715 120.99753751 1128.07812191 126.60839844 1140.04589844 C127.9517617 1142.8975994 129.3087696 1145.74237011 130.66947937 1148.58581543 C131.98263084 1151.3335474 133.2885925 1154.0846659 134.59353638 1156.83630371 C135.21562876 1158.14518405 135.84000599 1159.45298225 136.46725464 1160.75939941 C146.21931638 1181.09281082 153.95392288 1202.32839421 161.89834595 1223.41403198 C164.27820402 1229.72784795 166.66800888 1236.03789583 169.05859375 1242.34765625 C169.30378942 1242.99495256 169.5489851 1243.64224888 169.80161095 1244.30916023 C186.71484248 1288.94843075 204.01989896 1333.44136598 221.9375 1377.6875 C222.22543427 1378.39894165 222.51336853 1379.1103833 222.81002808 1379.84338379 C228.11378699 1392.93507898 233.56684077 1405.96041785 239 1419 C443.27 1419.33 647.54 1419.66 858 1420 C859.18776342 1416.43670974 860.3220707 1412.98286077 861.296875 1409.375 C861.53019531 1408.51519531 861.76351562 1407.65539063 862.00390625 1406.76953125 C862.25011719 1405.85558594 862.49632812 1404.94164062 862.75 1404 C863.28641299 1402.02082104 863.82287262 1400.04165473 864.359375 1398.0625 C864.63201172 1397.05445313 864.90464844 1396.04640625 865.18554688 1395.0078125 C866.45038017 1390.33672553 867.72541676 1385.668434 869 1381 C869.50005517 1379.16668171 870.00005501 1377.33334834 870.5 1375.5 C880.94726562 1337.19335938 880.94726562 1337.19335938 891.39453125 1298.88671875 C891.62664307 1298.03561523 891.85875488 1297.18451172 892.09790039 1296.30761719 C892.57750034 1294.54913865 893.05715602 1292.7906753 893.53686523 1291.03222656 C894.90059185 1286.03291782 896.26339131 1281.03335813 897.62490845 1276.03344727 C905.07560937 1248.67344478 905.07560937 1248.67344478 908.26025391 1237.25976562 C910.62183062 1228.78814219 912.92471435 1220.3004783 915.23388672 1211.81445312 C916.48748131 1207.20915088 917.743862 1202.60460902 919 1198 C919.50001378 1196.16667042 920.00001377 1194.33333709 920.5 1192.5 C941.5 1115.49999999 941.5 1115.49999999 942.25024414 1112.74926758 C942.74954055 1110.9184057 943.24872698 1109.08751383 943.74780273 1107.2565918 C945.00766153 1102.63519131 946.2695076 1098.0143497 947.53515625 1093.39453125 C950.31939742 1083.22441562 953.07139524 1073.047367 955.73046875 1062.84375 C956.59016394 1059.54702332 957.47020396 1056.25658353 958.36328125 1052.96875 C961.77899917 1040.28579741 964.70943473 1027.52566929 967.51766968 1014.69781494 C969.58857507 1005.24120671 971.72708201 995.81791921 974.125 986.4375 C979.07683449 966.87143087 983.26954593 947.39874783 986.25 927.4375 C986.37487793 926.60331543 986.49975586 925.76913086 986.62841797 924.90966797 C997.05164934 854.71550294 995.52917291 781.55446773 952 722 C944.22588737 711.8365224 935.87423873 702.21284243 927 693 C926.20311768 692.17024658 926.20311768 692.17024658 925.39013672 691.32373047 C919.08542018 684.79431361 912.6632611 678.68504122 905.5390625 673.0390625 C903.15165158 671.12178789 900.8859707 669.12614962 898.625 667.0625 C894.66941696 663.50597578 890.51541275 660.27602545 886.28515625 657.05395508 C874.20975374 647.83642091 862.76714253 638.14549634 851.76855469 627.66699219 C850.08599511 626.08105668 848.38239817 624.52357449 846.6640625 622.9765625 C838.90336874 615.98189569 831.73965673 608.56170344 824.69335938 600.85058594 C823.05773102 599.06309128 821.41362474 597.28390035 819.765625 595.5078125 C810.13628989 585.12776688 800.73065698 574.58356591 791.54394531 563.81005859 C789.05397164 560.89091489 786.55877264 557.97625769 784.0625 555.0625 C783.57031982 554.48790039 783.07813965 553.91330078 782.57104492 553.32128906 C778.35439785 548.40334988 774.11211901 543.50789462 769.86450195 538.61669922 C766.65317371 534.916241 763.45823976 531.20250976 760.27709961 527.47607422 C752.31188751 518.14703444 744.09173211 509.0647236 735.78515625 500.0390625 C734.02900529 498.12865095 732.28979466 496.20684267 730.55859375 494.2734375 C724.50526089 487.5475121 718.2013601 481.09559839 711.8125 474.6875 C710.96888916 473.83929688 710.12527832 472.99109375 709.25610352 472.1171875 C704.33248543 467.20565488 699.31261109 462.48792207 694 458 C693.39019287 457.48348877 692.78038574 456.96697754 692.15209961 456.43481445 C658.41869253 428.129978 620.8483219 407.82916977 577 401 C575.90276611 400.82275391 574.80553223 400.64550781 573.67504883 400.46289062 C569.97290137 399.99658679 566.42537035 399.87058685 562.6953125 399.8671875 C562.0184137 399.86568695 561.34151489 399.8641864 560.644104 399.86264038 C558.47100708 399.86030626 556.29808009 399.86649339 554.125 399.875 C553.3835675 399.87721558 552.64213501 399.87943115 551.87823486 399.88171387 C520.09987953 399.99354587 495.34470937 407.24461783 467.12451172 421.91210938 Z M4 879 C4 1899.69 4 2920.38 4 3972 C339.61 3972 675.22 3972 1021 3972 C1021 2955.27 1021 1938.54 1021 891 C1020.67 891 1020.34 891 1020 891 C1019.86537354 892.27786377 1019.86537354 892.27786377 1019.72802734 893.58154297 C1015.2357988 935.52206279 1006.36102556 976.10173998 996.63397789 1017.08243084 C995.48724466 1021.92035695 994.35800678 1026.76209969 993.23679924 1031.6060009 C986.15571318 1062.15176911 978.07141035 1092.3857859 969.72347254 1122.60687834 C967.63016199 1130.18676178 965.54829734 1137.76978376 963.46630859 1145.3527832 C962.67962002 1148.21762058 961.89286332 1151.08243925 961.1060791 1153.94725037 C960.90966552 1154.66245348 960.71325194 1155.37765659 960.51088643 1156.11453253 C959.10850111 1161.22052627 957.70464559 1166.32611443 956.3001709 1171.43153381 C950.65637681 1191.94907495 945.03889553 1212.47368533 939.44140625 1233.00390625 C939.2466933 1233.71805435 939.05198034 1234.43220245 938.851367 1235.1679914 C936.71042442 1243.02063048 934.57030817 1250.87349461 932.43060303 1258.72647095 C930.13466734 1267.15282188 927.83725407 1275.57876958 925.53955078 1284.00463867 C924.79302263 1286.74228219 924.04650309 1289.47992805 923.29998779 1292.21757507 C923.02627806 1293.22133166 923.02627806 1293.22133166 922.74703884 1294.24536616 C918.1386967 1311.14544843 913.53150654 1328.04584506 908.92777729 1344.94718456 C907.73322857 1349.33263809 906.53836492 1353.71800499 905.34251404 1358.10310364 C903.42219777 1365.14561511 901.50323542 1372.18844505 899.59862423 1379.23522282 C898.61472493 1382.8748336 897.62846171 1386.51379975 896.640625 1390.15234375 C896.35574565 1391.20172906 896.35574565 1391.20172906 896.06511116 1392.27231407 C893.5133004 1401.65357857 890.85611672 1410.99931252 888.11399841 1420.32667542 C886.57461246 1425.56334305 885.0636519 1430.80812256 883.55719852 1436.05434704 C882.56834968 1439.48900075 881.56670034 1442.91790532 880.51681519 1446.33444214 C874.78417857 1465.11165553 871.73440697 1483.81120999 869.29296875 1503.26733398 C868.94953753 1505.95824128 868.60339583 1508.6487984 868.25740337 1511.3393774 C867.43632865 1517.73729489 866.62478258 1524.13638272 865.81702397 1530.53599365 C865.1952727 1535.46029294 864.56984699 1540.38411075 863.94140053 1545.30755997 C863.85447433 1545.9885689 863.76754814 1546.66957783 863.67798782 1547.3712234 C863.50221672 1548.74812979 863.32643759 1550.12503516 863.15065043 1551.5019395 C861.09268279 1567.62688376 859.05477946 1583.75434648 857.01994019 1599.88222292 C855.97722232 1608.14619448 854.93269196 1616.40993676 853.8881179 1624.67367386 C851.97023387 1639.84652746 850.05354903 1655.01953228 848.13757324 1670.19262695 C845.26161861 1692.96781404 842.38348178 1715.74272512 839.50488281 1738.51757812 C839.25993441 1740.45557235 839.0149861 1742.3935666 838.77003789 1744.33156085 C837.78663794 1752.11205293 836.80322929 1759.89254392 835.81979144 1767.67303121 C834.58250273 1777.461887 833.34527138 1787.25075003 832.108181 1797.03963089 C825.51590009 1849.20316318 818.91815139 1901.36599761 812.30859375 1953.52734375 C812.16590776 1954.65340035 812.16590776 1954.65340035 812.02033922 1955.80220556 C809.37720986 1976.66126686 806.73337072 1997.52023817 804.08926095 2018.3791752 C803.06133541 2026.48831389 802.0334565 2034.5974585 801.00558472 2042.706604 C800.86660545 2043.80304618 800.86660545 2043.80304618 800.72481852 2044.9216387 C798.8465041 2059.74014332 796.96823934 2074.55865423 795.09003321 2089.37717257 C794.61944632 2093.08996797 794.14885501 2096.8027628 793.67825341 2100.51555634 C787.67365929 2147.88859766 781.67434967 2195.26230638 775.67825258 2242.63642391 C774.58646721 2251.26238843 773.49459047 2259.88834139 772.40270615 2268.51429339 C771.5338519 2275.37830856 770.66501262 2282.24232563 769.79617429 2289.10634282 C769.57985767 2290.81529194 769.36354065 2292.52424101 769.14722323 2294.23319003 C766.85628022 2312.33209924 764.56547732 2330.43102614 762.27562324 2348.53007316 C757.4439955 2386.71932888 752.60797478 2424.90802371 747.76355845 2463.09565943 C746.76049124 2471.00287581 745.7577974 2478.91013932 744.75575638 2486.81748581 C742.40852244 2505.33975188 740.0592563 2523.86175643 737.70437741 2542.38305229 C736.68689147 2550.38604971 735.67035708 2558.38916456 734.65685654 2566.39266777 C723.99502557 2650.57410294 711.80772079 2734.51042719 698.43030548 2818.30329132 C698.0004524 2820.99716481 697.57137097 2823.69116014 697.14251709 2826.38519287 C681.68114319 2923.48946492 664.78888115 3020.3607378 602.83666992 3318.42614746 C602.02160054 3321.90773287 601.20898992 3325.38988584 600.39648438 3328.87207031 C580.99572815 3411.84932637 559.15681027 3495.22577099 495 3653 C494.44626709 3654.05380859 494.44626709 3654.05380859 493.88134766 3655.12890625 C485.67478328 3670.60706676 476.4589934 3685.69353624 465 3699 C464.30648438 3699.82628906 463.61296875 3700.65257813 462.8984375 3701.50390625 C452.33887412 3713.72389568 438.48989884 3725.46494967 422 3728 C402.83763805 3729.29303549 388.94209724 3723.43863675 374.3125 3711.3125 C325.76533735 3665.53690649 311.25887326 3586.58254514 306.3125 3523.375 C306.25156158 3522.60625549 306.19062317 3521.83751099 306.12783813 3521.04547119 C304.31695283 3497.77779128 303.78805901 3474.4565317 303.8125 3451.125 C303.81343658 3449.93260712 303.81437317 3448.74021423 303.81533813 3447.51168823 C303.92760848 3380.00845253 308.31086162 3312.5807854 311.96409893 3245.19999695 C316.17517076 3167.51100377 320.31597643 3089.81689202 321 3012 C321.0129007 3010.55364166 321.0129007 3010.55364166 321.02606201 3009.07806396 C321.46633238 2956.65483884 320.18571836 2904.243291 317.21113682 2851.90459156 C317.1599229 2851.00315336 317.10870898 2850.10171515 317.05594313 2849.17296064 C316.95482518 2847.39423621 316.85365847 2845.61551456 316.75243032 2843.8367964 C314.60642859 2806.11482167 312.63965634 2768.39689004 311.29156232 2730.63713741 C311.17187489 2727.28916639 311.05080468 2723.94124714 310.9296093 2720.59333038 C308.07164025 2641.35011682 305.93963893 2562.08109811 303.65114021 2482.81993961 C302.69026534 2449.54127594 301.72720212 2416.26267804 300.75390625 2382.984375 C300.71079491 2381.50992839 300.71079491 2381.50992839 300.66681263 2380.00569499 C298.09988718 2292.23731932 295.27904468 2204.47718454 290.23453903 2073.88712692 C290.08459347 2070.2863866 289.93613624 2066.68558634 289.7880339 2063.08476979 C286.15150829 1974.68119045 281.96132643 1886.28040133 246.5 1524.5625 C246.25193604 1523.32234131 246.00387207 1522.08218262 245.74829102 1520.80444336 C241.43233071 1500.45468376 234.7982383 1481.03653947 226.9296875 1461.81640625 C226.05465211 1459.65383143 225.18070922 1457.49081429 224.30776978 1455.32739258 C222.46404333 1450.76386204 220.61348726 1446.20319256 218.75708008 1441.64480591 C215.82018598 1434.4326778 212.89978067 1427.21394517 209.98242188 1419.99389648 C208.99765165 1417.55719226 208.01284945 1415.12050096 207.02801514 1412.68382263 C206.2992429 1410.88068509 206.2992429 1410.88068509 205.55574799 1409.04112053 C204.08875057 1405.41320679 202.6202256 1401.7859152 201.15118408 1398.15882874 C193.80235042 1380.01219365 186.52871675 1361.83718859 179.32076645 1343.63420105 C177.94462324 1340.16067051 176.56557736 1336.68829301 175.18676758 1333.21582031 C169.72082316 1319.44690293 164.26529222 1305.67389963 158.82080078 1291.89648438 C154.52045125 1281.01439195 150.21302553 1270.13512241 145.89961433 1259.25820065 C143.51841273 1253.25263535 141.1404956 1247.24581924 138.77099609 1241.23562622 C129.28818346 1217.18751345 119.82739214 1193.23215966 108.4647522 1169.99841309 C106.4103456 1165.79295115 104.40021362 1161.56668988 102.38679504 1157.3414917 C100.45174833 1153.28944404 98.49802945 1149.24648944 96.54492188 1145.203125 C94.92582437 1141.84620982 93.31400881 1138.48586377 91.703125 1135.125 C85.89107578 1123.01829169 79.99856576 1110.95983645 73.95825195 1098.96520996 C66.31675571 1083.78548095 59.02574174 1068.47670539 52 1053 C51.48985352 1051.88318848 50.97970703 1050.76637695 50.45410156 1049.61572266 C25.62593747 995.16537039 6.71934124 939.23623119 5 879 C4.67 879 4.34 879 4 879 Z M252 1449 C255.3 1456.92 258.6 1464.84 262 1473 C266.50797333 1484.26993331 266.50797333 1484.26993331 267.96484375 1490.0625 C268.28751221 1491.34084717 268.61018066 1492.61919434 268.94262695 1493.9362793 C269.27508917 1495.29064747 269.60669416 1496.64522631 269.9375 1498 C270.10986176 1498.69775543 270.28222351 1499.39551086 270.45980835 1500.1144104 C275.49784085 1520.54980442 279.28942727 1541.13013447 282 1562 C282.12084961 1562.92377441 282.24169922 1563.84754883 282.36621094 1564.79931641 C282.87357074 1568.68094835 283.3798167 1572.56269459 283.87768555 1576.44555664 C284.55505813 1581.70585366 285.28188546 1586.95384017 286.07397461 1592.19799805 C290.31245729 1620.49534951 292.65142498 1649.10425593 295.30508423 1677.5839386 C295.79580462 1682.84490816 296.29868511 1688.10452098 296.8125 1693.36328125 C299.48735172 1720.90911 301.5779877 1748.49797116 303.11502075 1776.13031006 C303.8369173 1789.06122731 304.79736818 1801.96795898 305.859375 1814.87524414 C306.68720393 1825.08321956 307.3391033 1835.29918047 307.93603516 1845.52294922 C307.97921694 1846.25948817 308.02239872 1846.99602712 308.06688905 1847.75488544 C309.00781749 1863.83213521 309.86020908 1879.91360309 310.68681026 1895.99708247 C310.80753718 1898.34447098 310.92865756 1900.69183891 311.04988289 1903.03920174 C311.61715787 1914.02611844 312.18029895 1925.01324365 312.74104452 1936.00049543 C312.87548026 1938.63440936 313.01002691 1941.2683176 313.14458084 1943.90222549 C315.34681873 1987.02871113 317.5270654 2030.15533677 319.31760406 2073.3012619 C319.43484511 2076.12358931 319.55336643 2078.94586072 319.67205811 2081.76812744 C320.48959407 2101.30466552 321.11452348 2120.83505303 321.52871704 2140.38425064 C321.81305977 2153.57075856 322.30553017 2166.7358359 322.93359375 2179.91015625 C323.8282196 2198.76663992 324.47194922 2217.62732693 325.03515625 2236.49609375 C325.06696023 2237.55918534 325.06696023 2237.55918534 325.09940672 2238.64375353 C325.38193229 2248.09495028 325.65852073 2257.54631666 325.93328857 2266.9977417 C326.25561041 2278.08122363 326.5819882 2289.16458645 326.91112036 2300.24786812 C327.01350873 2303.69971554 327.11508896 2307.15158255 327.21461678 2310.60351372 C327.59835733 2323.89720753 328.02064021 2337.18344682 328.65651894 2350.46765518 C329.01190528 2357.96904372 329.2431299 2365.46910961 329.4152832 2372.97673035 C329.46743099 2375.2494781 329.52260208 2377.52213809 329.57836914 2379.7947998 C329.65838382 2383.06454169 329.73734363 2386.33430622 329.81539917 2389.60409546 C330.02550367 2398.38208802 330.24546341 2407.15983374 330.46875 2415.9375 C330.49108137 2416.81562033 330.51341274 2417.69374065 330.53642082 2418.59847069 C330.91661503 2433.46491742 331.39620872 2448.32602565 331.9375 2463.1875 C332.90496352 2489.84625043 333.57190522 2516.51117597 334.24584961 2543.17868042 C335.44686882 2590.66875798 336.82513062 2638.14540904 338.58203125 2685.61816406 C338.88161481 2693.71359447 339.17178654 2701.80932556 339.45703125 2709.90527344 C341.69277126 2776.81264062 341.69277126 2776.81264062 345.60522461 2843.63671875 C348.89289818 2888.96131556 349.32522492 2934.24705214 349.25713861 2979.66453576 C349.24962387 2985.25489741 349.25229872 2990.84518788 349.26074219 2996.43554688 C349.31965777 3036.56418465 348.835247 3076.59306835 347.13948822 3116.69309235 C347.00214088 3119.94924518 346.86813366 3123.20551856 346.73516846 3126.46185303 C346.21335752 3139.19854582 345.65140364 3151.93310735 345.06671143 3164.66705322 C344.88923353 3168.55823712 344.71622746 3172.44961572 344.54311275 3176.34099579 C344.37255506 3180.16392572 344.19953122 3183.98674089 344.02572823 3187.80952454 C343.9449103 3189.59227886 343.86476981 3191.37506405 343.78538322 3193.15788269 C343.42140713 3201.30076163 343.02944858 3209.42139003 342.22669983 3217.53543091 C341.819968 3221.95721938 341.62982728 3226.38939091 341.421875 3230.82421875 C341.37028229 3231.87942719 341.31868958 3232.93463562 341.26553345 3234.02182007 C341.15206737 3236.34426436 341.03956907 3238.6667561 340.92791748 3240.98928833 C340.61088994 3247.57905644 340.28621357 3254.16844743 339.9609375 3260.7578125 C339.9252277 3261.48252558 339.8895179 3262.20723866 339.85272598 3262.95391273 C339.17153727 3276.75979177 338.45258719 3290.56360183 337.7265625 3304.3671875 C337.61441059 3306.50252735 337.50226869 3308.63786772 337.39013672 3310.77320862 C336.9421548 3319.29952356 336.49397353 3327.82582651 336.04138184 3336.35189819 C335.38086752 3348.80119862 334.73212664 3361.25097773 334.11436844 3373.70248032 C334.01226979 3375.75351524 333.90822974 3377.80445331 333.80392456 3379.8553772 C332.75441305 3401.00455477 332.81266421 3422.1726669 332.81469727 3443.3425293 C332.81477876 3447.49101092 332.80778322 3451.63938264 332.79418945 3455.7878418 C332.6732719 3488.94375092 332.6732719 3488.94375092 335 3522 C335.16929148 3523.66786051 335.33832671 3525.33574706 335.50708008 3527.00366211 C335.9645601 3531.40331314 336.47623392 3535.79533267 337 3540.1875 C337.16709509 3541.62820558 337.33375958 3543.06896117 337.5 3544.50976562 C343.08756743 3592.60381581 356.60118111 3643.15407569 387 3682 C387.55300781 3682.72445312 388.10601562 3683.44890625 388.67578125 3684.1953125 C393.74434103 3690.50710392 401.23835134 3697.06948904 409.39453125 3698.38671875 C419.58208087 3699.04256958 427.50298284 3694.42050364 435.0625 3687.9375 C475.82027473 3648.73983148 494.22349676 3587.18136438 512.54199219 3535.13623047 C513.76896467 3531.65040939 515.00993021 3528.16980558 516.2578125 3524.69140625 C519.38044919 3515.95221499 522.20731377 3507.18038717 524.7578125 3498.2578125 C526.05590383 3493.74480254 527.49711057 3489.28168518 528.9375 3484.8125 C531.40401516 3477.11035329 533.5875483 3469.3533858 535.67944336 3461.54199219 C537.52132273 3454.68488218 539.48614481 3447.87090721 541.5 3441.0625 C544.66454419 3430.32649081 547.53237424 3419.52894077 550.30908203 3408.68701172 C551.37624434 3404.53676846 552.46880869 3400.39331664 553.5625 3396.25 C553.97138443 3394.69792464 554.38023885 3393.14584137 554.7890625 3391.59375 C555.39413959 3389.29815964 555.99931577 3387.00259542 556.60449219 3384.70703125 C557.84769372 3379.99047279 559.08857326 3375.27331128 560.32763672 3370.55566406 C561.04040728 3367.84641126 561.75660804 3365.13807572 562.47265625 3362.4296875 C565.56451664 3350.70129003 568.50084388 3338.94853986 571.26220703 3327.13818359 C571.94523304 3324.23294987 572.63621072 3321.32970297 573.33023071 3318.42707825 C577.47783259 3301.0750202 581.41283787 3283.68921793 585.14208984 3266.24243164 C586.98748514 3257.61868391 588.9051722 3249.01953655 590.9375 3240.4375 C594.15215056 3226.79140875 596.89399394 3213.04932233 599.67895508 3199.31054688 C601.76830465 3189.00574789 603.89204326 3178.71230402 606.125 3168.4375 C609.61392968 3152.33131878 612.81778368 3136.16907348 616 3120 C616.24717773 3118.74477539 616.49435547 3117.48955078 616.74902344 3116.19628906 C618.52783802 3107.13629105 620.27219612 3098.06984224 622 3089 C622.23913116 3087.74567169 622.23913116 3087.74567169 622.48309326 3086.46600342 C627.36062448 3060.86437882 632.08063223 3035.23898274 636.55395508 3009.56347656 C636.89121712 3007.63082068 637.22870684 3005.69820451 637.56640625 3003.765625 C637.83085541 3002.25211205 637.83085541 3002.25211205 638.10064697 3000.70802307 C639.29256883 2993.92463021 640.51776175 2987.14782378 641.76147461 2980.3737793 C646.69780653 2953.47201774 651.37335374 2926.53342812 655.89334488 2899.55867767 C656.44701779 2896.25572126 657.00175304 2892.95294469 657.55673218 2889.65020752 C661.90904235 2863.74123698 666.23041172 2837.82810183 670.3125 2811.875 C670.48127655 2810.80198639 670.6500531 2809.72897278 670.82394409 2808.6234436 C672.27532496 2799.36666139 673.69324846 2790.1054756 675.05761719 2780.83544922 C675.23624802 2779.62196808 675.41487885 2778.40848694 675.59892273 2777.15823364 C675.94211311 2774.81970139 676.28354599 2772.48091027 676.62287903 2770.14181519 C677.49418261 2764.18790272 678.46140677 2758.27887414 679.625 2752.375 C680.81989724 2746.29071243 681.62493104 2740.23375668 682.30126953 2734.07617188 C682.86042414 2729.01926634 683.62161356 2724.03298514 684.5 2719.0234375 C685.26865039 2714.37550465 685.84804029 2709.70482344 686.4375 2705.03125 C686.84969675 2701.94096114 687.34728771 2698.87082987 687.8671875 2695.796875 C693.13577004 2664.51527256 697.21248082 2633.06751783 701.08178711 2601.58837891 C701.4164286 2598.86620167 701.7511605 2596.14403557 702.0859375 2593.421875 C702.208665 2592.42312662 702.208665 2592.42312662 702.33387184 2591.40420151 C703.86375674 2578.9655221 705.5018291 2566.54338518 707.1875 2554.125 C709.230394 2539.05544147 711.10742361 2523.97361272 712.8694458 2508.86871338 C714.39688523 2495.79022351 716.08061989 2482.741175 717.88015747 2469.69750977 C719.37998088 2458.81112822 720.74958599 2447.9177703 722 2437 C723.33862562 2425.31202552 724.82954895 2413.65393445 726.4375 2402 C728.27467376 2388.68260677 729.94116772 2375.35277988 731.5 2362 C733.12791452 2348.05763053 734.89086729 2334.14358371 736.8125 2320.23876953 C738.52204954 2307.8418642 740.04862899 2295.42963203 741.5 2283 C743.12769236 2269.06034089 744.88958718 2255.14886834 746.81149292 2241.24682617 C748.66957677 2227.77813168 750.30145555 2214.28872032 751.87988281 2200.78466797 C753.27456094 2188.86945343 754.79130118 2176.98655672 756.48291016 2165.109375 C757.96131173 2154.59105635 759.20442504 2144.04943057 760.4375 2133.5 C761.99837615 2120.14743579 763.65899331 2106.81686155 765.5 2093.5 C767.317572 2080.34938422 768.96031015 2067.18600008 770.5 2054 C772.12800764 2040.05764078 773.89086703 2026.1435856 775.8125 2012.23876953 C777.64440157 1998.95462081 779.25658725 1985.65093204 780.81149292 1972.33178711 C782.35900114 1959.09976502 784.05902747 1945.89670628 785.87988281 1932.69970703 C787.37979238 1921.81259253 788.74950205 1910.91850324 790 1900 C791.33862562 1888.31202552 792.82954895 1876.65393445 794.4375 1865 C796.27467376 1851.68260677 797.94116772 1838.35277988 799.5 1825 C801.12791452 1811.05763053 802.89086729 1797.14358371 804.8125 1783.23876953 C806.64440157 1769.95462081 808.25658725 1756.65093204 809.81149292 1743.33178711 C811.35900114 1730.09976502 813.05902747 1716.89670628 814.87988281 1703.69970703 C816.37979238 1692.81259253 817.74950205 1681.91850324 819 1671 C820.33862562 1659.31202552 821.82954895 1647.65393445 823.4375 1636 C825.27467376 1622.68260677 826.94116772 1609.35277988 828.5 1596 C830.0396032 1582.81397806 831.68291244 1569.65068683 833.5 1556.5 C835.35361962 1543.07847485 837.03803936 1529.64315076 838.625 1516.1875 C838.83777479 1514.39159748 839.05058358 1512.59569899 839.26342773 1510.79980469 C840.14201468 1503.36994476 841.01003078 1495.93939974 841.83984375 1488.50390625 C842.91258841 1479.09567432 844.07300627 1470.1268604 847.03515625 1461.09765625 C848.26985997 1457.13360745 849.09932898 1453.0530196 850 1449 C652.66 1449 455.32 1449 252 1449 Z " fill="#010101" transform="translate(0,0)"/>
<path d="M0 0 C338.25 0 676.5 0 1025 0 C1025 1312.08 1025 2624.16 1025 3976 C686.75 3976 348.5 3976 0 3976 C0 2663.92 0 1351.84 0 0 Z M4 4 C4 1313.44 4 2622.88 4 3972 C339.61 3972 675.22 3972 1021 3972 C1021 2662.56 1021 1353.12 1021 4 C685.39 4 349.78 4 4 4 Z " fill="#FDFDFD" transform="translate(0,0)"/>
<path d="M0 0 C-0.60541175 3.69909473 -1.65257655 6.71354402 -3.28515625 10.08203125 C-3.73310547 11.01337891 -4.18105469 11.94472656 -4.64257812 12.90429688 C-5.11115234 13.86400391 -5.57972656 14.82371094 -6.0625 15.8125 C-6.53494141 16.79154297 -7.00738281 17.77058594 -7.49414062 18.77929688 C-8.65770684 21.18870167 -9.82646296 23.59544007 -11 26 C-15.35160066 25.43992879 -18.75888228 24.37400049 -22.69140625 22.4453125 C-23.78670654 21.91808594 -24.88200684 21.39085937 -26.01049805 20.84765625 C-27.18265869 20.27917969 -28.35481934 19.71070313 -29.5625 19.125 C-49.24671653 9.74363065 -69.76052966 1.12080821 -91 -4 C-91.64179199 -4.15936035 -92.28358398 -4.3187207 -92.94482422 -4.48291016 C-149.34148256 -17.9278292 -202.97763786 10.81586023 -252 35 C-254.53338755 31.71173203 -256.45921274 28.37604063 -258.375 24.6875 C-260.38458854 20.87783321 -262.37896128 17.29406447 -265 13.875 C-265.66 12.92625 -266.32 11.9775 -267 11 C-266 8 -266 8 -264.04492188 6.77661133 C-263.19478516 6.3823999 -262.34464844 5.98818848 -261.46875 5.58203125 C-260.52257812 5.13682129 -259.57640625 4.69161133 -258.6015625 4.23291016 C-257.57804687 3.7641748 -256.55453125 3.29543945 -255.5 2.8125 C-254.44554687 2.32056152 -253.39109375 1.82862305 -252.3046875 1.32177734 C-250.17491221 0.32846518 -248.04341293 -0.66115941 -245.91015625 -1.64697266 C-243.52209641 -2.75726021 -241.1475899 -3.88743746 -238.78125 -5.04296875 C-229.43524304 -9.58948041 -219.88834716 -13.65459296 -210.3125 -17.6875 C-209.65886475 -17.9639032 -209.00522949 -18.2403064 -208.33178711 -18.52508545 C-196.49160028 -23.52246547 -184.54379888 -28.24729892 -172.125 -31.625 C-170.99928589 -31.9329248 -170.99928589 -31.9329248 -169.85083008 -32.24707031 C-110.45561981 -48.0991071 -52.53215822 -27.77658845 0 0 Z " fill="#020202" transform="translate(649,1164)"/>
</svg>
