<?xml version="1.0" encoding="UTF-8"?>
<svg version="1.1" xmlns="http://www.w3.org/2000/svg" width="1008" height="3975">
<path d="M0 0 C331.98 0 663.96 0 1006 0 C1006.03758423 140.50942383 1006.03758423 140.50942383 1006.07592773 283.85742188 C1006.09968286 371.92933568 1006.09968286 371.92933568 1006.12367522 460.00124943 C1006.12419367 461.89473093 1006.12471212 463.78821244 1006.12523057 465.68169394 C1006.12549055 466.63115787 1006.12575054 467.58062181 1006.1260184 468.55885737 C1006.12682838 471.51727137 1006.12763808 474.47568538 1006.1284477 477.43409938 C1006.15752057 583.66550625 1006.18717201 689.89691295 1006.24270584 881.22846912 C1006.24366841 884.52852259 1006.24463077 887.82857607 1006.24559305 891.12862954 C1006.27286031 984.63724324 1006.30032056 1078.14585688 1006.32803926 1171.65447044 C1006.32906517 1175.11534072 1006.33009106 1178.576211 1006.33111694 1182.03708127 C1006.33145577 1183.18014596 1006.33179461 1184.32321066 1006.33214371 1185.50091367 C1006.34488384 1228.48181205 1006.35757986 1271.46271045 1006.37024957 1314.44360885 C1006.3716262 1319.11356735 1006.37300334 1323.78352586 1006.37438093 1328.45348436 C1006.40690056 1438.69463618 1006.43862712 1548.93578815 1006.46777344 1659.17694092 C1006.46808031 1660.33740876 1006.46838717 1661.4978766 1006.46870334 1662.69351013 C1006.47890692 1701.28459908 1006.48903354 1739.87568806 1006.49914955 1778.46677704 C1006.50828997 1813.33526053 1006.51745802 1848.20374402 1006.52671719 1883.07222748 C1006.52702134 1884.21766587 1006.52732549 1885.36310426 1006.52763887 1886.54325291 C1006.54669229 1958.27081206 1006.56694258 2029.99837079 1006.58840275 2101.72592926 C1006.588734 2102.83362926 1006.58906526 2103.94132926 1006.58940655 2105.08259593 C1006.60395497 2153.7286781 1006.61875305 2202.3747602 1006.63383666 2251.02084221 C1006.63990362 2270.59109289 1006.6459336 2290.16134359 1006.65194332 2309.73159428 C1006.65294009 2312.97650534 1006.65393806 2316.22141639 1006.65493616 2319.46632744 C1006.67019843 2369.11326997 1006.68463473 2418.76021257 1006.69667697 2468.40715599 C1006.69693676 2469.4781708 1006.69719656 2470.54918561 1006.69746423 2471.65265542 C1006.70163847 2488.88192133 1006.70574393 2506.11118726 1006.70983754 2523.34045319 C1006.721457 2572.24462179 1006.73353862 2621.14879003 1006.74915612 2670.05295753 C1006.74947269 2671.04499939 1006.74978927 2672.03704125 1006.75011544 2673.05914498 C1006.75703156 2694.70096665 1006.76421927 2716.34278823 1006.77167287 2737.98460973 C1006.77464108 2746.61567632 1006.77757208 2755.24674292 1006.78049088 2763.87780952 C1006.78081024 2764.81932224 1006.7811296 2765.76083495 1006.78145864 2766.73087835 C1006.79157442 2796.60604906 1006.79862388 2826.48121944 1006.80390343 2856.35639136 C1006.80911354 2885.76873346 1006.81733152 2915.18107296 1006.82994437 2944.59341287 C1006.83167095 2948.62086742 1006.83336262 2952.64832197 1006.8350333 2956.67577654 C1006.8353617 2957.4642383 1006.8356901 2958.25270007 1006.83602845 2959.06505461 C1006.84111732 2971.50126864 1006.84288187 2983.93748078 1006.84322461 2996.37369575 C1006.84362752 3008.53890963 1006.84755636 3020.70411807 1006.85527216 3032.86932956 C1006.85928402 3039.34666544 1006.8616309 3045.82399352 1006.8596265 3052.30133077 C1006.85783613 3058.18004368 1006.8606374 3064.05873598 1006.86707465 3069.93744548 C1006.86858426 3072.04398035 1006.86843947 3074.15051724 1006.8664035 3076.25705166 C1006.85716139 3086.74470904 1006.99446675 3097.15641816 1007.77287181 3107.6179026 C1008.13819112 3113.0577623 1008.14547558 3118.4875832 1008.125 3123.9375 C1008.12886719 3124.96294922 1008.13273438 3125.98839844 1008.13671875 3127.04492188 C1008.12978337 3132.67298013 1007.9219756 3138.23617769 1007.50158787 3143.84828091 C1006.62478195 3157.46281542 1006.84487084 3171.12915033 1006.84279228 3184.76587617 C1006.84105391 3188.97441559 1006.83357346 3193.18294563 1006.82684326 3197.39147949 C1006.81583848 3204.76183316 1006.80845462 3212.13218347 1006.80346954 3219.50254357 C1006.79594092 3230.60420609 1006.78266173 3241.70585693 1006.76832329 3252.80751248 C1006.74444446 3271.41496094 1006.72499554 3290.0224114 1006.70826721 3308.62986755 C1006.68563405 3333.78966931 1006.65687093 3358.9494578 1006.6270752 3384.10925293 C1006.55854461 3444.59366281 1006.49854501 3505.07808211 1006.4375 3565.5625 C1006.293125 3700.676875 1006.14875 3835.79125 1006 3975 C674.02 3975 342.04 3975 0 3975 C0 2663.25 0 1351.5 0 0 Z M4 4 C4 1016.11 4 2028.22 4 3071 C4.33 3071 4.66 3071 5 3071 C5.13462646 3070.04899414 5.26925293 3069.09798828 5.40795898 3068.11816406 C11.00970492 3028.88157506 19.09462684 2990.3415155 28.77655029 2951.91821289 C42.89764324 2895.87701671 51.25644758 2840.47413079 57.97897911 2783.17290878 C66.16594709 2713.41374218 66.16594709 2713.41374218 72 2681 C72.14223999 2680.20470886 72.28447998 2679.40941772 72.43103027 2678.59002686 C80.38123527 2634.26178008 90.49921752 2588.91804297 111.95947266 2548.9453125 C113.080839 2546.84886788 114.17013446 2544.73708868 115.26171875 2542.625 C120.67958811 2532.32861172 127.02079634 2523.22370116 134.28369141 2514.15185547 C136.61437681 2511.22971306 138.90100958 2508.27435595 141.18945312 2505.3190918 C142.93860869 2503.06106876 144.69299907 2500.80721954 146.44921875 2498.5546875 C150.05163065 2493.93396464 153.65187453 2489.31156157 157.25 2484.6875 C157.83265625 2483.93871582 158.4153125 2483.18993164 159.015625 2482.41845703 C163.29978019 2476.90904317 167.57144405 2471.39056031 171.796875 2465.8359375 C173.22559645 2463.99683861 174.6928307 2462.18678382 176.203125 2460.4140625 C176.85796875 2459.63804687 177.5128125 2458.86203125 178.1875 2458.0625 C178.75855469 2457.41410156 179.32960937 2456.76570313 179.91796875 2456.09765625 C181.53114552 2452.97030634 180.95206249 2451.37585491 180 2448 C178.72119688 2444.85963394 177.27042052 2441.81047954 175.8125 2438.75 C166.05316572 2417.57981164 158.72436174 2395.74079213 166.9375 2372.75 C175.44672252 2354.30080073 194.93369517 2344.79909631 211.9609375 2335.74609375 C212.98417114 2335.20124329 212.98417114 2335.20124329 214.02807617 2334.64538574 C215.6851347 2333.76312189 217.34253115 2332.88149276 219 2332 C219.17176258 2321.72924692 219.33823922 2311.45841524 219.5 2301.1875 C219.51187725 2300.43356209 219.5237545 2299.67962418 219.53599167 2298.90283966 C219.8909993 2276.26772262 220.16589586 2253.6384047 220 2231 C219.2265625 2230.75258057 218.453125 2230.50516113 217.65625 2230.25024414 C202.67459451 2225.37263059 190.96552512 2219.39711285 180 2208 C178.76636719 2206.76056641 178.76636719 2206.76056641 177.5078125 2205.49609375 C161.95252362 2189.18137157 155.44252714 2167.84331698 155.65087891 2145.68530273 C156.08397092 2129.43551377 161.23344996 2114.98153385 172.69140625 2103.17578125 C185.34170652 2091.25324783 199.44498235 2086.28491376 216.23974609 2082.94628906 C217.13325775 2082.76841858 218.02676941 2082.5905481 218.94735718 2082.4072876 C219.62472931 2082.27288269 220.30210144 2082.13847778 221 2082 C221.55194774 2074.24844224 221.97280541 2066.49740402 222.30615234 2058.73339844 C222.43441685 2056.09767592 222.5918687 2053.46319685 222.77978516 2050.83105469 C224.35692958 2036.76553853 224.35692958 2036.76553853 220.50314331 2023.67095947 C216.85589202 2019.88890133 212.67940379 2017.4462033 208.01187134 2015.11521912 C189.57534411 2004.89549621 176.3950805 1983.12228179 170.2578125 1963.64453125 C166.61567937 1949.94911282 169.34728508 1935.32314979 176 1923 C185.58688462 1907.11013599 198.70423936 1898.08608708 215 1890 C217.64 1888.68 220.28 1887.36 223 1886 C223 1872.8 223 1859.6 223 1846 C217.69695163 1843.3330167 217.69695163 1843.3330167 212.34765625 1840.76171875 C206.22853762 1837.88520999 201.19082288 1834.30481972 196 1830 C195.16726562 1829.35675781 194.33453125 1828.71351562 193.4765625 1828.05078125 C182.4776421 1818.94284243 175.08745818 1803.80425515 172 1790 C171.72736328 1788.87464844 171.72736328 1788.87464844 171.44921875 1787.7265625 C168.11115645 1767.46597568 174.22947367 1748.42621119 186 1732 C195.971457 1718.94356129 209.60524971 1711.30095106 224 1704 C224.07346839 1701.87762319 224.14622714 1699.75522183 224.21875 1697.6328125 C224.24153519 1696.97066742 224.26432037 1696.30852234 224.28779602 1695.62631226 C224.41113806 1691.98226292 224.52333644 1688.3383264 224.6159668 1684.69335938 C224.65391403 1683.22525471 224.69208009 1681.75715569 224.73046875 1680.2890625 C224.74929611 1679.56523376 224.76812347 1678.84140503 224.78752136 1678.09564209 C224.90274998 1674.09697771 225.12283226 1670.1316153 225.48828125 1666.1484375 C225.83074561 1661.86784788 225.97428082 1658.20889315 225 1654 C221.58797069 1650.15545993 217.53638534 1648.29863821 213 1646 C210.73078502 1644.4971602 208.58083029 1642.86375606 206.4375 1641.1875 C205.89617432 1640.76702393 205.35484863 1640.34654785 204.79711914 1639.91333008 C188.20425715 1626.7917157 173.97397005 1608.5059818 171 1587 C169.35755709 1567.54439577 173.64939889 1550.65460499 185.6875 1534.9375 C197.32149193 1521.19429197 210.37532697 1510.92838459 226 1502 C226 1488.8 226 1475.6 226 1462 C220.39 1459.36 214.78 1456.72 209 1454 C185.56124539 1439.24226562 168.76125283 1419.33581789 162 1392 C158.25588833 1374.28457228 160.88669673 1355.79349116 169.890625 1340.1328125 C184.43938548 1318.52520897 204.39216385 1310.06663293 229 1305 C229.13986328 1304.30777344 229.27972656 1303.61554688 229.42382812 1302.90234375 C236.2973993 1269.35224395 247.11946774 1238.2060123 267 1210 C267.67289062 1209.00484375 268.34578125 1208.0096875 269.0390625 1206.984375 C274.34017648 1199.34902564 280.57126106 1192.68065489 287 1186 C287.52787109 1185.44489746 288.05574219 1184.88979492 288.59960938 1184.31787109 C300.21030236 1172.14502823 312.7669733 1162.76698392 327.16308594 1154.11230469 C328.76965516 1153.13948047 330.35905854 1152.13842177 331.9453125 1151.1328125 C387.91475074 1116.53062419 464.37148315 1112.83048642 526.93945312 1127.27001953 C571.49102236 1137.89615163 611.72269992 1157.33053433 645 1189 C645.70511719 1189.65226562 646.41023437 1190.30453125 647.13671875 1190.9765625 C697.02808119 1238.54033603 704.86460189 1311.25346008 708.35424805 1376.22802734 C708.42554932 1377.53465332 708.49685059 1378.8412793 708.5703125 1380.1875 C708.65949951 1381.91033203 708.65949951 1381.91033203 708.75048828 1383.66796875 C709.01080892 1387.1443445 709.46983838 1390.55531728 710 1394 C710.99257813 1394.35191406 711.98515625 1394.70382812 713.0078125 1395.06640625 C737.3948434 1403.85746685 757.88025143 1416.02552135 770 1440 C774.52992701 1449.68935341 777.16534362 1459.29520076 778 1470 C778.07089844 1470.8353125 778.14179687 1471.670625 778.21484375 1472.53125 C778.95848403 1490.37861667 772.09627255 1508.02904763 760.8203125 1521.62890625 C747.54661673 1535.88180908 730.72318231 1540.87946962 712 1544 C712 1564.79 712 1585.58 712 1607 C719.92 1609.97 719.92 1609.97 728 1613 C747.67821621 1623.41787917 762.2486554 1637.99145812 769.2578125 1659.453125 C769.50273438 1660.29359375 769.74765625 1661.1340625 770 1662 C770.22429688 1662.73734375 770.44859375 1663.4746875 770.6796875 1664.234375 C775.04791343 1681.5876013 772.0476512 1700.73160592 763.62890625 1716.32421875 C761.07226973 1720.52396939 758.24219508 1724.30750005 755 1728 C754.12601563 1729.01513672 754.12601563 1729.01513672 753.234375 1730.05078125 C742.38415579 1741.78998901 727.4005033 1747.91989934 712 1751 C709.89330541 1753.10669459 710.74107511 1757.71256289 710.68359375 1760.62890625 C710.66281265 1761.49313705 710.64203156 1762.35736786 710.62062073 1763.24778748 C710.55502886 1766.01927445 710.49619582 1768.79085921 710.4375 1771.5625 C710.39432392 1773.43685923 710.35070994 1775.31120843 710.30664062 1777.18554688 C710.19933773 1781.79026336 710.09809785 1786.39507858 710 1791 C711.05856201 1791.52601807 712.11712402 1792.05203613 713.20776367 1792.59399414 C741.77895674 1806.81619603 741.77895674 1806.81619603 753 1817 C753.65355469 1817.57234375 754.30710937 1818.1446875 754.98046875 1818.734375 C767.1770894 1830.04250011 773.02736662 1845.17082643 773.9609375 1861.421875 C774.13657404 1877.51018177 767.73562909 1891.56538463 758 1904 C757.32195313 1904.87398437 756.64390625 1905.74796875 755.9453125 1906.6484375 C743.75546454 1921.23025563 726.74427039 1930.0852432 709 1936 C709 1947.88 709 1959.76 709 1972 C713.29 1973.98 717.58 1975.96 722 1978 C730.36386202 1981.88623892 737.02718615 1986.00240487 744 1992 C744.61359375 1992.46921875 745.2271875 1992.9384375 745.859375 1993.421875 C759.86794977 2004.34599294 768.80456891 2023.63482506 771 2041 C772.08633387 2054.18100947 771.53927396 2066.49839302 767 2079 C766.63777344 2080.0415625 766.27554688 2081.083125 765.90234375 2082.15625 C757.06677283 2105.39829418 738.9641981 2119.98854102 717 2130 C715.33564266 2130.67241123 713.66934603 2131.34007119 712 2132 C709.55271666 2147.15325085 709.55271666 2147.15325085 713.55712891 2161.19726562 C717.73306878 2164.74420647 722.65725739 2166.81756707 727.67041016 2168.93017578 C731.11087287 2170.51014933 733.94368644 2172.62903094 736.875 2175 C737.89980469 2175.81855469 738.92460938 2176.63710937 739.98046875 2177.48046875 C740.97691406 2178.31191406 741.97335937 2179.14335937 743 2180 C743.76884521 2180.64122803 743.76884521 2180.64122803 744.55322266 2181.29541016 C760.72975764 2194.96065833 771.26747258 2211.35532491 775.6875 2232.25 C777.89837737 2258.7805284 768.5663526 2280.78255321 752 2301 C751.30132813 2301.86625 750.60265625 2302.7325 749.8828125 2303.625 C740.83776854 2314.2742593 729.51639147 2322.53269826 717.4140625 2329.37890625 C714.71571138 2330.83404866 714.71571138 2330.83404866 714 2334 C714.12576845 2336.02390515 714.12576845 2336.02390515 714.54963684 2338.23739624 C714.69682663 2339.1009523 714.84401642 2339.96450836 714.9956665 2340.85423279 C715.16443298 2341.7987178 715.33319946 2342.74320282 715.50708008 2343.71630859 C715.76538857 2345.21184517 715.76538857 2345.21184517 716.02891541 2346.7375946 C716.60178723 2350.04253279 717.18539954 2353.3454723 717.76953125 2356.6484375 C718.17022231 2358.94137178 718.57041823 2361.23439263 718.97013855 2363.52749634 C719.81044547 2368.33850289 720.65590751 2373.14856666 721.50512695 2377.95800781 C722.59332075 2384.12254289 723.67010783 2390.28900269 724.74319935 2396.45618248 C725.56865783 2401.19408079 726.39949591 2405.93102315 727.23203087 2410.66768265 C727.63102893 2412.94080964 728.02850918 2415.21420359 728.42444801 2417.48786545 C728.97918704 2420.66784915 729.54098789 2423.8465052 730.10473633 2427.02490234 C730.26743011 2427.9653389 730.4301239 2428.90577545 730.5977478 2429.87471008 C731.93242612 2437.32798453 733.56405491 2441.89656807 738.875 2447.5 C739.87245286 2448.56244646 740.86984664 2449.62494839 741.8671875 2450.6875 C742.3837793 2451.23277344 742.90037109 2451.77804688 743.43261719 2452.33984375 C745.97944552 2455.03741893 748.48754303 2457.77045757 751 2460.5 C752.01029469 2461.59386267 753.0207111 2462.68761293 754.03125 2463.78125 C757.31538716 2467.33906526 760.58584395 2470.90932235 763.85546875 2474.48046875 C767.22787309 2478.16209068 770.61176236 2481.83294885 774 2485.5 C778.79303162 2490.68846059 783.57742102 2495.8846453 788.34375 2501.09765625 C790.08952763 2503.00517504 791.83941366 2504.9089434 793.59375 2506.80859375 C799.30581788 2513.02311205 804.70957491 2519.42448939 810 2526 C815.83754578 2533.2259608 815.83754578 2533.2259608 821.8828125 2540.27734375 C859.69720322 2583.12024387 873.77946589 2641.30978202 889.72924805 2694.8347168 C894.49553286 2710.82934393 899.43332294 2726.72777972 904.82080078 2742.52685547 C906.807734 2748.37905255 908.75379559 2754.2448568 910.70425415 2760.10928345 C911.44591133 2762.33777391 912.18892095 2764.56580892 912.93237305 2766.79370117 C915.67460161 2775.01208931 918.4098429 2783.23273887 921.13514709 2791.45675659 C928.49576772 2813.66492923 935.88154621 2835.85941372 943.625 2857.9375 C944.23770738 2859.68690331 944.85033753 2861.43633368 945.46289062 2863.18579102 C946.38142903 2865.80854137 947.29997418 2868.43128935 948.21853638 2871.05403137 C949.14598163 2873.70258591 950.07304022 2876.35127551 951 2879 C951.31370544 2879.89583801 951.62741089 2880.79167603 951.95062256 2881.71466064 C971.91102134 2938.76628504 990.42933286 2996.39354821 1001 3056 C1001.33 3056 1001.66 3056 1002 3056 C1002 2048.84 1002 1041.68 1002 4 C672.66 4 343.32 4 4 4 Z M1001 3188 C1000.87061035 3188.58040039 1000.7412207 3189.16080078 1000.60791016 3189.75878906 C989.81815413 3237.30780834 968.21081246 3283.0828639 936 3320 C935.31035156 3320.79921875 934.62070312 3321.5984375 933.91015625 3322.421875 C925.26233761 3332.24254427 915.98635742 3341.54339441 906 3350 C904.25113622 3351.51550229 902.50622607 3353.03550197 900.76098633 3354.55517578 C890.48683782 3363.49179262 880.19418321 3372.36657601 869.44555664 3380.73046875 C864.86780329 3384.29718842 860.36539773 3387.94914697 855.875 3391.625 C850.31398651 3396.16810797 844.68233781 3400.56312477 838.91015625 3404.8359375 C835.82946149 3407.12681655 832.78660954 3409.46382542 829.75 3411.8125 C805.3648133 3430.62915644 780.4221831 3448.74551655 755.21582031 3466.44335938 C752.93120678 3468.04832807 750.64917865 3469.65693045 748.3671875 3471.265625 C720.77037809 3490.68788463 692.83324753 3509.77574716 664.18896484 3527.62744141 C662.02964842 3528.98140939 659.88242317 3530.3526181 657.73828125 3531.73046875 C634.38114179 3546.70660914 610.35179405 3560.70992731 586 3574 C585.10845215 3574.48903809 584.2169043 3574.97807617 583.29833984 3575.48193359 C560.24698648 3588.06668025 534.42000311 3601.77743194 508 3605 C507.27288818 3605.08942871 506.54577637 3605.17885742 505.79663086 3605.27099609 C496.44660491 3606.25681508 487.07911654 3606.2436048 477.6875 3606.25 C476.79671753 3606.25067474 475.90593506 3606.25134949 474.98815918 3606.25204468 C461.45540855 3606.23577277 448.28832 3605.78714557 435 3603 C434.18337891 3602.83371094 433.36675781 3602.66742187 432.52539062 3602.49609375 C397.0052724 3595.03272261 364.82236892 3577.69509834 336 3556 C335.31421875 3555.48405273 334.6284375 3554.96810547 333.921875 3554.43652344 C321.55010782 3545.09737472 309.47143317 3535.4678424 297.66894531 3525.41894531 C295.50684715 3523.58071908 293.33827574 3521.75022667 291.16967773 3519.91967773 C282.45380906 3512.55958143 273.77223641 3505.15835903 265.16796875 3497.66796875 C258.78966609 3492.11569137 252.38133827 3486.63124719 245.80859375 3481.30859375 C242.49701407 3478.58655815 239.2469 3475.79856861 236 3473 C230.98689941 3468.68060414 225.9146229 3464.44902564 220.77734375 3460.27734375 C217.65603433 3457.71795783 214.57556761 3455.11398455 211.5 3452.5 C205.72463851 3447.59446792 199.88007702 3442.77971173 194 3438 C187.55387911 3432.76017074 181.16374173 3427.46380453 174.83422852 3422.08422852 C171.4408462 3419.20479732 168.01750083 3416.36810273 164.5625 3413.5625 C158.55264169 3408.66751395 152.68248717 3403.61682642 146.81152344 3398.55712891 C145.00637604 3397.00548064 143.19561441 3395.46066415 141.3828125 3393.91796875 C135.0557291 3388.52896483 128.80866656 3383.08097418 122.6953125 3377.44921875 C120.54192401 3375.49244399 118.36759254 3373.57255731 116.171875 3371.6640625 C105.52078367 3362.367135 95.38623056 3352.47692417 85.375 3342.5 C84.27502686 3341.40691528 84.27502686 3341.40691528 83.15283203 3340.29174805 C78.5644636 3335.69022791 74.2277392 3330.93323499 70 3326 C69.14277344 3325.02417969 68.28554687 3324.04835938 67.40234375 3323.04296875 C35.70400764 3286.32112454 13.0319475 3243.10845236 5 3195 C4.67 3195 4.34 3195 4 3195 C4 3451.08 4 3707.16 4 3971 C333.34 3971 662.68 3971 1002 3971 C1002 3712.61 1002 3454.22 1002 3188 C1001.67 3188 1001.34 3188 1001 3188 Z " fill="#B7B7B8" transform="translate(0,0)"/>
<path d="M0 0 C1.00539479 0.00054477 2.01078959 0.00108953 3.04665089 0.00165081 C4.20435143 -0.00254651 5.36205198 -0.00674383 6.55483437 -0.01106834 C7.83795856 -0.005446 9.12108274 0.00017633 10.44308949 0.00596905 C11.81202343 0.00491859 13.18095694 0.00300337 14.54988861 0.00029373 C18.32319711 -0.00454219 22.09639014 0.00329701 25.8696847 0.01328325 C29.9204074 0.02197176 33.97112556 0.01949588 38.02185535 0.01857281 C45.98108059 0.01874902 53.94025177 0.03040034 61.89946008 0.04605436 C68.49223916 0.05881047 75.08501127 0.06707632 81.67780018 0.07264996 C121.76829075 0.10750864 161.85837644 0.20814133 201.94821644 0.44420147 C202.71897038 0.44872326 203.48972433 0.45324505 204.28383446 0.45790386 C220.21537265 0.55179226 236.14682317 0.65519063 252.07815337 0.7796483 C261.60773006 0.85406815 271.13733325 0.92428403 280.66696644 0.99107647 C282.02097443 1.00062548 282.02097443 1.00062548 283.40233612 1.01036739 C317.71300046 1.24967071 352.02262131 1.27105503 386.33388645 1.25948133 C398.39401377 1.25552749 410.45411763 1.25929094 422.51424122 1.26935101 C423.31305327 1.27000087 424.11186532 1.27065073 424.9348838 1.27132029 C432.2197232 1.27728485 439.50456212 1.28364533 446.78939998 1.29128516 C465.38448046 1.31072453 483.97925175 1.31144128 502.57430199 1.26958129 C515.6546191 1.24063948 528.73469075 1.24057906 541.81501174 1.26852059 C549.71126963 1.28440036 557.6067585 1.27704078 565.50293884 1.23788108 C571.47623877 1.21070499 577.44868221 1.22543627 583.42199743 1.25589192 C585.84926696 1.26171015 588.27661463 1.25397666 590.70378554 1.23133552 C613.79070838 1.02982391 613.79070838 1.02982391 623.62790394 10.24888897 C624.97717048 11.31279185 626.33138468 12.37050998 627.69431019 13.41685772 C628.86853276 14.41301995 630.03400424 15.41959126 631.19040394 16.43638897 C632.13436024 17.26420879 632.13436024 17.26420879 633.09738636 18.10875225 C664.45865214 46.22190117 680.08909671 89.90199843 691.62790394 129.24888897 C692.16376415 131.01248829 692.7017369 132.77544636 693.24118519 134.53795147 C693.69050404 136.00627422 693.69050404 136.00627422 694.14890003 137.50426006 C694.45134632 138.4924876 694.75379261 139.48071514 695.06540394 140.49888897 C696.87192414 146.40453712 698.65152359 152.31694052 700.38290882 158.2450285 C703.16396931 167.76196835 706.08189656 177.2311391 709.06540394 186.68638897 C709.4263213 187.83217922 709.4263213 187.83217922 709.79452991 189.00111675 C713.83559068 201.82520713 717.94120227 214.61812194 722.40134144 227.30357647 C722.70910511 228.17893047 723.01686878 229.05428448 723.33395863 229.95616436 C723.91736235 231.61012323 724.50361752 233.26308124 725.09372425 234.91466045 C726.6046948 239.17737184 728.01049522 243.45486019 729.31931019 247.78404522 C732.65017086 258.71432656 736.3249936 269.53525118 739.94040394 280.37388897 C740.33806965 281.56727886 740.73573536 282.76066875 741.14545155 283.99022198 C746.38374333 299.6989511 751.70554115 315.37455577 757.19040394 330.99888897 C762.37866075 345.78056283 767.51508395 360.5785188 772.5712328 375.40599346 C773.30256715 377.54960299 774.03519805 379.69277073 774.76929188 381.83543682 C778.83899828 393.71900318 782.71505583 405.62833698 786.26730824 417.67686749 C787.49416174 421.8301655 788.7921333 425.95489367 790.12009144 430.07701397 C795.70467223 447.43157068 800.53882016 464.83979132 804.746068 482.57701397 C805.54753117 485.91422497 806.38779569 489.23817579 807.24509144 492.56138897 C810.69496441 506.23881011 812.94262596 519.98472838 814.94040394 533.93638897 C815.13439777 535.28238171 815.13439777 535.28238171 815.33231068 536.65556622 C817.83093966 554.16362445 818.81464269 571.36912319 818.81320667 589.04503155 C818.81539278 592.04607126 818.83362074 595.04674196 818.85251331 598.04771709 C818.9039008 614.97867596 817.4050806 631.10900458 813.87790394 647.68638897 C813.61404896 648.93428204 813.35019398 650.1821751 813.07834339 651.46788311 C807.91696848 675.22247845 799.10726763 697.83061106 787.62790394 719.24888897 C787.2776012 719.90550518 786.92729847 720.56212139 786.5663805 721.23863506 C772.23834636 747.89289803 753.73400126 772.80313515 730.64352894 792.51451397 C728.32675773 794.50801478 726.0737041 796.56443285 723.81540394 798.62388897 C719.49880681 802.51935467 715.05389263 806.21747115 710.53415394 809.87388897 C707.97473528 811.9654569 705.45158178 814.08998942 702.93893909 816.23692608 C696.28609621 821.92035471 689.48236308 827.37650992 682.57028675 832.74058819 C680.49035676 834.35569722 678.41438686 835.97580612 676.33884144 837.59654522 C660.73007943 849.77580037 645.00731617 861.77319202 629.03952503 873.47838116 C626.63474059 875.2438698 624.23412608 877.01487059 621.83493519 878.78795147 C605.47170012 890.88004244 588.98314705 902.77161476 572.28464222 914.39683819 C569.55081591 916.30262815 566.82150635 918.21475767 564.09274769 920.12779522 C550.40600319 929.70839861 536.57493261 939.05178398 522.62790394 948.24888897 C521.76721302 948.81667065 521.76721302 948.81667065 520.88913441 949.39592266 C498.82467428 963.9481961 476.71252248 978.40088909 453.96237659 991.86705303 C451.71701857 993.19613967 449.47499698 994.53070524 447.23337269 995.86607647 C420.74752934 1011.59897733 393.35643991 1027.68171257 364.31540394 1038.18638897 C363.55203724 1038.46909649 362.78867054 1038.75180401 362.00217152 1039.04307842 C348.75833036 1043.62451121 335.06848722 1043.59541336 321.22458363 1043.5645628 C318.26489888 1043.56140178 315.30621606 1043.58494895 312.34665394 1043.61021709 C301.04784766 1043.64807448 290.63808603 1042.85128105 279.62790394 1040.24888897 C278.28792347 1039.95872906 278.28792347 1039.95872906 276.92087269 1039.66270733 C264.56138888 1036.9243092 253.09502642 1032.5561724 241.62790394 1027.24888897 C240.92536488 1026.92517315 240.22282581 1026.60145733 239.49899769 1026.26793194 C206.82939809 1011.02573497 178.54402007 987.16350511 151.42624378 963.79722881 C148.49788224 961.27595962 145.56261045 958.76276654 142.62790394 956.24888897 C141.46120279 955.2489292 140.29453615 954.24892916 139.12790394 953.24888897 C138.26165394 952.50638897 138.26165394 952.50638897 137.37790394 951.74888897 C132.12790393 947.24888896 132.12790393 947.24888896 130.3776598 945.74864483 C129.21185289 944.74940501 128.04600008 943.75021874 126.8801012 942.75108624 C123.94989996 940.23989436 121.02052103 937.72775504 118.09274769 935.21373272 C111.36361515 929.43726598 104.61693741 923.68268699 97.83884144 917.96373272 C95.69146767 916.15119261 93.55149367 914.33044361 91.41696644 912.50279522 C85.95313067 907.8340606 80.43380054 903.27672301 74.75290394 898.87388897 C69.06968978 894.46846833 63.63559152 889.82975816 58.23386097 885.08531475 C54.13118548 881.50064848 49.93974667 878.07814019 45.62790394 874.74888897 C38.66374344 869.36565881 32.05389329 863.61665761 25.43307972 857.82017803 C22.64596074 855.39417076 19.82715923 853.00646652 17.00290394 850.62388897 C16.47575794 850.17859844 15.94861195 849.73330791 15.40549183 849.27452374 C12.71289216 847.00195804 10.01555058 844.73513646 7.31540394 842.47154522 C1.21170933 837.3449083 -4.78056321 832.1377428 -10.64162731 826.73326397 C-12.81692526 824.75402292 -15.01293985 822.81167599 -17.23147106 820.88170147 C-27.31970275 812.07742654 -36.95153314 802.75998322 -46.43459606 793.31138897 C-47.12416393 792.62641338 -47.8137318 791.9414378 -48.52419567 791.23570538 C-53.00996682 786.73629966 -57.23260974 782.06683754 -61.37209606 777.24888897 C-62.33335459 776.15427666 -63.29554422 775.06048106 -64.25881481 773.96763897 C-87.58894613 747.26586371 -104.81940821 717.83596831 -116.37209606 684.24888897 C-116.64908337 683.46191631 -116.92607067 682.67494366 -117.21145153 681.86412334 C-118.96028347 676.80004784 -120.2947088 671.74529649 -121.37209606 666.49888897 C-121.53943249 665.69322491 -121.70676891 664.88756084 -121.87917614 664.05748272 C-125.3404432 646.88141901 -127.48689806 629.5316233 -127.61037731 612.00670147 C-127.61998989 610.85621822 -127.62960247 609.70573498 -127.63950634 608.5203886 C-127.66415344 604.80485828 -127.67676474 601.0894915 -127.68459606 597.37388897 C-127.68787914 596.10743542 -127.69116222 594.84098186 -127.69454479 593.53615093 C-127.71589688 568.04316627 -125.76138249 543.35585766 -121.37209606 518.24888897 C-121.19227184 517.20901836 -121.01244762 516.16914776 -120.82717419 515.09776592 C-114.13486377 476.63135453 -106.4076651 438.09527116 -95.46193981 400.58409405 C-89.4513991 379.9726165 -85.27926676 358.50786446 -82.37209606 337.24888897 C-82.13926065 335.60171996 -81.90617716 333.95458601 -81.67287731 332.30748272 C-81.02064227 327.65208429 -80.39688243 322.99324389 -79.78127575 318.33287334 C-79.36213221 315.1737915 -78.93345614 312.01608257 -78.50490856 308.85826397 C-76.2200716 291.78585617 -74.30134141 274.68403617 -72.43459606 257.56138897 C-70.25764383 237.60072607 -67.77096501 217.72070676 -64.88186169 197.85191631 C-64.29240856 193.68565707 -63.772753 189.51372641 -63.26589489 185.33677959 C-60.3115562 161.14472986 -55.7089342 137.02094082 -50.37209606 113.24888897 C-50.17213024 112.33719952 -49.97216442 111.42551006 -49.76613903 110.48619366 C-43.91571612 84.14771014 -35.54406401 57.37734027 -23.37209606 33.24888897 C-23.04821911 32.58776104 -22.72434216 31.92663311 -22.39065075 31.245471 C-7.41878457 0.77840593 -7.41878457 0.77840593 0 0 Z " fill="#FDFDFD" transform="translate(158.37209606170654,2533.7511110305786)"/>
<path d="M0 0 C331.98 0 663.96 0 1006 0 C1006.03758423 140.50942383 1006.03758423 140.50942383 1006.07592773 283.85742188 C1006.09968286 371.92933568 1006.09968286 371.92933568 1006.12367522 460.00124943 C1006.12419367 461.89473093 1006.12471212 463.78821244 1006.12523057 465.68169394 C1006.12549055 466.63115787 1006.12575054 467.58062181 1006.1260184 468.55885737 C1006.12682838 471.51727137 1006.12763808 474.47568538 1006.1284477 477.43409938 C1006.15752057 583.66550625 1006.18717201 689.89691295 1006.24270584 881.22846912 C1006.24366841 884.52852259 1006.24463077 887.82857607 1006.24559305 891.12862954 C1006.27286031 984.63724324 1006.30032056 1078.14585688 1006.32803926 1171.65447044 C1006.32906517 1175.11534072 1006.33009106 1178.576211 1006.33111694 1182.03708127 C1006.33145577 1183.18014596 1006.33179461 1184.32321066 1006.33214371 1185.50091367 C1006.34488384 1228.48181205 1006.35757986 1271.46271045 1006.37024957 1314.44360885 C1006.3716262 1319.11356735 1006.37300334 1323.78352586 1006.37438093 1328.45348436 C1006.40690056 1438.69463618 1006.43862712 1548.93578815 1006.46777344 1659.17694092 C1006.46808031 1660.33740876 1006.46838717 1661.4978766 1006.46870334 1662.69351013 C1006.47890692 1701.28459908 1006.48903354 1739.87568806 1006.49914955 1778.46677704 C1006.50828997 1813.33526053 1006.51745802 1848.20374402 1006.52671719 1883.07222748 C1006.52702134 1884.21766587 1006.52732549 1885.36310426 1006.52763887 1886.54325291 C1006.54669229 1958.27081206 1006.56694258 2029.99837079 1006.58840275 2101.72592926 C1006.588734 2102.83362926 1006.58906526 2103.94132926 1006.58940655 2105.08259593 C1006.60395497 2153.7286781 1006.61875305 2202.3747602 1006.63383666 2251.02084221 C1006.63990362 2270.59109289 1006.6459336 2290.16134359 1006.65194332 2309.73159428 C1006.65294009 2312.97650534 1006.65393806 2316.22141639 1006.65493616 2319.46632744 C1006.67019843 2369.11326997 1006.68463473 2418.76021257 1006.69667697 2468.40715599 C1006.69693676 2469.4781708 1006.69719656 2470.54918561 1006.69746423 2471.65265542 C1006.70163847 2488.88192133 1006.70574393 2506.11118726 1006.70983754 2523.34045319 C1006.721457 2572.24462179 1006.73353862 2621.14879003 1006.74915612 2670.05295753 C1006.74947269 2671.04499939 1006.74978927 2672.03704125 1006.75011544 2673.05914498 C1006.75703156 2694.70096665 1006.76421927 2716.34278823 1006.77167287 2737.98460973 C1006.77464108 2746.61567632 1006.77757208 2755.24674292 1006.78049088 2763.87780952 C1006.78081024 2764.81932224 1006.7811296 2765.76083495 1006.78145864 2766.73087835 C1006.79157442 2796.60604906 1006.79862388 2826.48121944 1006.80390343 2856.35639136 C1006.80911354 2885.76873346 1006.81733152 2915.18107296 1006.82994437 2944.59341287 C1006.83167095 2948.62086742 1006.83336262 2952.64832197 1006.8350333 2956.67577654 C1006.8353617 2957.4642383 1006.8356901 2958.25270007 1006.83602845 2959.06505461 C1006.84111732 2971.50126864 1006.84288187 2983.93748078 1006.84322461 2996.37369575 C1006.84362752 3008.53890963 1006.84755636 3020.70411807 1006.85527216 3032.86932956 C1006.85928402 3039.34666544 1006.8616309 3045.82399352 1006.8596265 3052.30133077 C1006.85783613 3058.18004368 1006.8606374 3064.05873598 1006.86707465 3069.93744548 C1006.86858426 3072.04398035 1006.86843947 3074.15051724 1006.8664035 3076.25705166 C1006.85716139 3086.74470904 1006.99446675 3097.15641816 1007.77287181 3107.6179026 C1008.13819112 3113.0577623 1008.14547558 3118.4875832 1008.125 3123.9375 C1008.12886719 3124.96294922 1008.13273438 3125.98839844 1008.13671875 3127.04492188 C1008.12978337 3132.67298013 1007.9219756 3138.23617769 1007.50158787 3143.84828091 C1006.62478195 3157.46281542 1006.84487084 3171.12915033 1006.84279228 3184.76587617 C1006.84105391 3188.97441559 1006.83357346 3193.18294563 1006.82684326 3197.39147949 C1006.81583848 3204.76183316 1006.80845462 3212.13218347 1006.80346954 3219.50254357 C1006.79594092 3230.60420609 1006.78266173 3241.70585693 1006.76832329 3252.80751248 C1006.74444446 3271.41496094 1006.72499554 3290.0224114 1006.70826721 3308.62986755 C1006.68563405 3333.78966931 1006.65687093 3358.9494578 1006.6270752 3384.10925293 C1006.55854461 3444.59366281 1006.49854501 3505.07808211 1006.4375 3565.5625 C1006.293125 3700.676875 1006.14875 3835.79125 1006 3975 C674.02 3975 342.04 3975 0 3975 C0 2663.25 0 1351.5 0 0 Z M4 4 C4 1016.11 4 2028.22 4 3071 C4.33 3071 4.66 3071 5 3071 C5.13462646 3070.04899414 5.26925293 3069.09798828 5.40795898 3068.11816406 C11.00970492 3028.88157506 19.09462684 2990.3415155 28.77655029 2951.91821289 C42.89764324 2895.87701671 51.25644758 2840.47413079 57.97897911 2783.17290878 C66.16594709 2713.41374218 66.16594709 2713.41374218 72 2681 C72.14223999 2680.20470886 72.28447998 2679.40941772 72.43103027 2678.59002686 C80.38123527 2634.26178008 90.49921752 2588.91804297 111.95947266 2548.9453125 C113.080839 2546.84886788 114.17013446 2544.73708868 115.26171875 2542.625 C120.67958811 2532.32861172 127.02079634 2523.22370116 134.28369141 2514.15185547 C136.61437681 2511.22971306 138.90100958 2508.27435595 141.18945312 2505.3190918 C142.93860869 2503.06106876 144.69299907 2500.80721954 146.44921875 2498.5546875 C150.05163065 2493.93396464 153.65187453 2489.31156157 157.25 2484.6875 C157.83265625 2483.93871582 158.4153125 2483.18993164 159.015625 2482.41845703 C163.29978019 2476.90904317 167.57144405 2471.39056031 171.796875 2465.8359375 C173.22559645 2463.99683861 174.6928307 2462.18678382 176.203125 2460.4140625 C176.85796875 2459.63804687 177.5128125 2458.86203125 178.1875 2458.0625 C178.75855469 2457.41410156 179.32960937 2456.76570313 179.91796875 2456.09765625 C181.53114552 2452.97030634 180.95206249 2451.37585491 180 2448 C178.72119688 2444.85963394 177.27042052 2441.81047954 175.8125 2438.75 C166.05316572 2417.57981164 158.72436174 2395.74079213 166.9375 2372.75 C175.44672252 2354.30080073 194.93369517 2344.79909631 211.9609375 2335.74609375 C212.98417114 2335.20124329 212.98417114 2335.20124329 214.02807617 2334.64538574 C215.6851347 2333.76312189 217.34253115 2332.88149276 219 2332 C219.17176258 2321.72924692 219.33823922 2311.45841524 219.5 2301.1875 C219.51187725 2300.43356209 219.5237545 2299.67962418 219.53599167 2298.90283966 C219.8909993 2276.26772262 220.16589586 2253.6384047 220 2231 C219.2265625 2230.75258057 218.453125 2230.50516113 217.65625 2230.25024414 C202.67459451 2225.37263059 190.96552512 2219.39711285 180 2208 C178.76636719 2206.76056641 178.76636719 2206.76056641 177.5078125 2205.49609375 C161.95252362 2189.18137157 155.44252714 2167.84331698 155.65087891 2145.68530273 C156.08397092 2129.43551377 161.23344996 2114.98153385 172.69140625 2103.17578125 C185.34170652 2091.25324783 199.44498235 2086.28491376 216.23974609 2082.94628906 C217.13325775 2082.76841858 218.02676941 2082.5905481 218.94735718 2082.4072876 C219.62472931 2082.27288269 220.30210144 2082.13847778 221 2082 C221.55194774 2074.24844224 221.97280541 2066.49740402 222.30615234 2058.73339844 C222.43441685 2056.09767592 222.5918687 2053.46319685 222.77978516 2050.83105469 C224.35692958 2036.76553853 224.35692958 2036.76553853 220.50314331 2023.67095947 C216.85589202 2019.88890133 212.67940379 2017.4462033 208.01187134 2015.11521912 C189.57534411 2004.89549621 176.3950805 1983.12228179 170.2578125 1963.64453125 C166.61567937 1949.94911282 169.34728508 1935.32314979 176 1923 C185.58688462 1907.11013599 198.70423936 1898.08608708 215 1890 C217.64 1888.68 220.28 1887.36 223 1886 C223 1872.8 223 1859.6 223 1846 C217.69695163 1843.3330167 217.69695163 1843.3330167 212.34765625 1840.76171875 C206.22853762 1837.88520999 201.19082288 1834.30481972 196 1830 C195.16726562 1829.35675781 194.33453125 1828.71351562 193.4765625 1828.05078125 C182.4776421 1818.94284243 175.08745818 1803.80425515 172 1790 C171.72736328 1788.87464844 171.72736328 1788.87464844 171.44921875 1787.7265625 C168.11115645 1767.46597568 174.22947367 1748.42621119 186 1732 C195.971457 1718.94356129 209.60524971 1711.30095106 224 1704 C224.07346839 1701.87762319 224.14622714 1699.75522183 224.21875 1697.6328125 C224.24153519 1696.97066742 224.26432037 1696.30852234 224.28779602 1695.62631226 C224.41113806 1691.98226292 224.52333644 1688.3383264 224.6159668 1684.69335938 C224.65391403 1683.22525471 224.69208009 1681.75715569 224.73046875 1680.2890625 C224.74929611 1679.56523376 224.76812347 1678.84140503 224.78752136 1678.09564209 C224.90274998 1674.09697771 225.12283226 1670.1316153 225.48828125 1666.1484375 C225.83074561 1661.86784788 225.97428082 1658.20889315 225 1654 C221.58797069 1650.15545993 217.53638534 1648.29863821 213 1646 C210.73078502 1644.4971602 208.58083029 1642.86375606 206.4375 1641.1875 C205.89617432 1640.76702393 205.35484863 1640.34654785 204.79711914 1639.91333008 C188.20425715 1626.7917157 173.97397005 1608.5059818 171 1587 C169.35755709 1567.54439577 173.64939889 1550.65460499 185.6875 1534.9375 C197.32149193 1521.19429197 210.37532697 1510.92838459 226 1502 C226 1488.8 226 1475.6 226 1462 C220.39 1459.36 214.78 1456.72 209 1454 C185.56124539 1439.24226562 168.76125283 1419.33581789 162 1392 C158.25588833 1374.28457228 160.88669673 1355.79349116 169.890625 1340.1328125 C184.43938548 1318.52520897 204.39216385 1310.06663293 229 1305 C229.13986328 1304.30777344 229.27972656 1303.61554688 229.42382812 1302.90234375 C236.2973993 1269.35224395 247.11946774 1238.2060123 267 1210 C267.67289062 1209.00484375 268.34578125 1208.0096875 269.0390625 1206.984375 C274.34017648 1199.34902564 280.57126106 1192.68065489 287 1186 C287.52787109 1185.44489746 288.05574219 1184.88979492 288.59960938 1184.31787109 C300.21030236 1172.14502823 312.7669733 1162.76698392 327.16308594 1154.11230469 C328.76965516 1153.13948047 330.35905854 1152.13842177 331.9453125 1151.1328125 C387.91475074 1116.53062419 464.37148315 1112.83048642 526.93945312 1127.27001953 C571.49102236 1137.89615163 611.72269992 1157.33053433 645 1189 C645.70511719 1189.65226562 646.41023437 1190.30453125 647.13671875 1190.9765625 C697.02808119 1238.54033603 704.86460189 1311.25346008 708.35424805 1376.22802734 C708.42554932 1377.53465332 708.49685059 1378.8412793 708.5703125 1380.1875 C708.65949951 1381.91033203 708.65949951 1381.91033203 708.75048828 1383.66796875 C709.01080892 1387.1443445 709.46983838 1390.55531728 710 1394 C710.99257813 1394.35191406 711.98515625 1394.70382812 713.0078125 1395.06640625 C737.3948434 1403.85746685 757.88025143 1416.02552135 770 1440 C774.52992701 1449.68935341 777.16534362 1459.29520076 778 1470 C778.07089844 1470.8353125 778.14179687 1471.670625 778.21484375 1472.53125 C778.95848403 1490.37861667 772.09627255 1508.02904763 760.8203125 1521.62890625 C747.54661673 1535.88180908 730.72318231 1540.87946962 712 1544 C712 1564.79 712 1585.58 712 1607 C719.92 1609.97 719.92 1609.97 728 1613 C747.67821621 1623.41787917 762.2486554 1637.99145812 769.2578125 1659.453125 C769.50273438 1660.29359375 769.74765625 1661.1340625 770 1662 C770.22429688 1662.73734375 770.44859375 1663.4746875 770.6796875 1664.234375 C775.04791343 1681.5876013 772.0476512 1700.73160592 763.62890625 1716.32421875 C761.07226973 1720.52396939 758.24219508 1724.30750005 755 1728 C754.12601563 1729.01513672 754.12601563 1729.01513672 753.234375 1730.05078125 C742.38415579 1741.78998901 727.4005033 1747.91989934 712 1751 C709.89330541 1753.10669459 710.74107511 1757.71256289 710.68359375 1760.62890625 C710.66281265 1761.49313705 710.64203156 1762.35736786 710.62062073 1763.24778748 C710.55502886 1766.01927445 710.49619582 1768.79085921 710.4375 1771.5625 C710.39432392 1773.43685923 710.35070994 1775.31120843 710.30664062 1777.18554688 C710.19933773 1781.79026336 710.09809785 1786.39507858 710 1791 C711.05856201 1791.52601807 712.11712402 1792.05203613 713.20776367 1792.59399414 C741.77895674 1806.81619603 741.77895674 1806.81619603 753 1817 C753.65355469 1817.57234375 754.30710937 1818.1446875 754.98046875 1818.734375 C767.1770894 1830.04250011 773.02736662 1845.17082643 773.9609375 1861.421875 C774.13657404 1877.51018177 767.73562909 1891.56538463 758 1904 C757.32195313 1904.87398437 756.64390625 1905.74796875 755.9453125 1906.6484375 C743.75546454 1921.23025563 726.74427039 1930.0852432 709 1936 C709 1947.88 709 1959.76 709 1972 C713.29 1973.98 717.58 1975.96 722 1978 C730.36386202 1981.88623892 737.02718615 1986.00240487 744 1992 C744.61359375 1992.46921875 745.2271875 1992.9384375 745.859375 1993.421875 C759.86794977 2004.34599294 768.80456891 2023.63482506 771 2041 C772.08633387 2054.18100947 771.53927396 2066.49839302 767 2079 C766.63777344 2080.0415625 766.27554688 2081.083125 765.90234375 2082.15625 C757.06677283 2105.39829418 738.9641981 2119.98854102 717 2130 C715.33564266 2130.67241123 713.66934603 2131.34007119 712 2132 C709.55271666 2147.15325085 709.55271666 2147.15325085 713.55712891 2161.19726562 C717.73306878 2164.74420647 722.65725739 2166.81756707 727.67041016 2168.93017578 C731.11087287 2170.51014933 733.94368644 2172.62903094 736.875 2175 C737.89980469 2175.81855469 738.92460938 2176.63710937 739.98046875 2177.48046875 C740.97691406 2178.31191406 741.97335937 2179.14335937 743 2180 C743.76884521 2180.64122803 743.76884521 2180.64122803 744.55322266 2181.29541016 C760.72975764 2194.96065833 771.26747258 2211.35532491 775.6875 2232.25 C777.89837737 2258.7805284 768.5663526 2280.78255321 752 2301 C751.30132813 2301.86625 750.60265625 2302.7325 749.8828125 2303.625 C740.83776854 2314.2742593 729.51639147 2322.53269826 717.4140625 2329.37890625 C714.71571138 2330.83404866 714.71571138 2330.83404866 714 2334 C714.12576845 2336.02390515 714.12576845 2336.02390515 714.54963684 2338.23739624 C714.69682663 2339.1009523 714.84401642 2339.96450836 714.9956665 2340.85423279 C715.16443298 2341.7987178 715.33319946 2342.74320282 715.50708008 2343.71630859 C715.76538857 2345.21184517 715.76538857 2345.21184517 716.02891541 2346.7375946 C716.60178723 2350.04253279 717.18539954 2353.3454723 717.76953125 2356.6484375 C718.17022231 2358.94137178 718.57041823 2361.23439263 718.97013855 2363.52749634 C719.81044547 2368.33850289 720.65590751 2373.14856666 721.50512695 2377.95800781 C722.59332075 2384.12254289 723.67010783 2390.28900269 724.74319935 2396.45618248 C725.56865783 2401.19408079 726.39949591 2405.93102315 727.23203087 2410.66768265 C727.63102893 2412.94080964 728.02850918 2415.21420359 728.42444801 2417.48786545 C728.97918704 2420.66784915 729.54098789 2423.8465052 730.10473633 2427.02490234 C730.26743011 2427.9653389 730.4301239 2428.90577545 730.5977478 2429.87471008 C731.93242612 2437.32798453 733.56405491 2441.89656807 738.875 2447.5 C739.87245286 2448.56244646 740.86984664 2449.62494839 741.8671875 2450.6875 C742.3837793 2451.23277344 742.90037109 2451.77804688 743.43261719 2452.33984375 C745.97944552 2455.03741893 748.48754303 2457.77045757 751 2460.5 C752.01029469 2461.59386267 753.0207111 2462.68761293 754.03125 2463.78125 C757.31538716 2467.33906526 760.58584395 2470.90932235 763.85546875 2474.48046875 C767.22787309 2478.16209068 770.61176236 2481.83294885 774 2485.5 C778.79303162 2490.68846059 783.57742102 2495.8846453 788.34375 2501.09765625 C790.08952763 2503.00517504 791.83941366 2504.9089434 793.59375 2506.80859375 C799.30581788 2513.02311205 804.70957491 2519.42448939 810 2526 C815.83754578 2533.2259608 815.83754578 2533.2259608 821.8828125 2540.27734375 C859.69720322 2583.12024387 873.77946589 2641.30978202 889.72924805 2694.8347168 C894.49553286 2710.82934393 899.43332294 2726.72777972 904.82080078 2742.52685547 C906.807734 2748.37905255 908.75379559 2754.2448568 910.70425415 2760.10928345 C911.44591133 2762.33777391 912.18892095 2764.56580892 912.93237305 2766.79370117 C915.67460161 2775.01208931 918.4098429 2783.23273887 921.13514709 2791.45675659 C928.49576772 2813.66492923 935.88154621 2835.85941372 943.625 2857.9375 C944.23770738 2859.68690331 944.85033753 2861.43633368 945.46289062 2863.18579102 C946.38142903 2865.80854137 947.29997418 2868.43128935 948.21853638 2871.05403137 C949.14598163 2873.70258591 950.07304022 2876.35127551 951 2879 C951.31370544 2879.89583801 951.62741089 2880.79167603 951.95062256 2881.71466064 C971.91102134 2938.76628504 990.42933286 2996.39354821 1001 3056 C1001.33 3056 1001.66 3056 1002 3056 C1002 2048.84 1002 1041.68 1002 4 C672.66 4 343.32 4 4 4 Z M337 1182 C336.43716309 1182.37350586 335.87432617 1182.74701172 335.29443359 1183.13183594 C326.64534733 1188.92361325 318.90314427 1195.37285872 311.43261719 1202.61425781 C310.1473139 1203.85750618 308.84426923 1205.08235104 307.5390625 1206.3046875 C286.58111549 1226.38019463 270.48882147 1256.17116961 263 1284 C262.82033691 1284.66370605 262.64067383 1285.32741211 262.45556641 1286.01123047 C258.40403711 1301.24766049 256.59206586 1316.22654678 257 1332 C256.43716309 1332.0501123 255.87432617 1332.10022461 255.29443359 1332.15185547 C224.01711424 1334.27373468 224.01711424 1334.27373468 198.25 1350.75 C190.48579269 1361.96496611 188.14937043 1371.51011675 190 1385 C191.15754919 1389.65461765 192.83162466 1393.73154461 195 1398 C195.48082031 1398.98742188 195.96164063 1399.97484375 196.45703125 1400.9921875 C205.75780439 1419.10292781 223.61299288 1431.01707681 242.703125 1437.19921875 C249.24706736 1439.25170063 249.24706736 1439.25170063 256 1440 C256 1466.4 256 1492.8 256 1520 C254.02 1520.66 252.04 1521.32 250 1522 C246.8907329 1523.51067483 243.92359114 1525.2597575 240.9375 1527 C240.09912598 1527.48839355 239.26075195 1527.97678711 238.39697266 1528.47998047 C221.66350909 1538.40595953 206.98733033 1550.29454061 200 1569 C198.11667237 1581.59395282 200.79491493 1591.58176286 208 1602 C215.9038552 1612.67571345 226.58908309 1621.84758851 238.80964661 1627.1678009 C251.40969926 1632.89667316 251.40969926 1632.89667316 254.07702255 1638.10171127 C255.73264158 1644.07933531 255.33101395 1650.18772682 255.07421875 1656.32421875 C255.06119784 1658.2814413 255.0565991 1660.23873626 255.06001282 1662.19599915 C255.0465581 1667.31742147 254.91973794 1672.42981859 254.76818848 1677.54876709 C254.63360889 1682.7838316 254.60767992 1688.01935126 254.57226562 1693.25585938 C254.48708798 1703.50720843 254.28197636 1713.75230625 254 1724 C253.33359497 1724.19358597 252.66718994 1724.38717194 251.98059082 1724.58662415 C251.09560913 1724.84719101 250.21062744 1725.10775787 249.29882812 1725.3762207 C247.98984558 1725.75941216 247.98984558 1725.75941216 246.65441895 1726.15034485 C242.44532985 1727.49763565 238.48497327 1729.28852653 234.5 1731.1875 C233.26008301 1731.77797119 233.26008301 1731.77797119 231.99511719 1732.38037109 C225.6161962 1735.51204695 220.17578634 1739.09662347 215 1744 C214.34902344 1744.58523438 213.69804687 1745.17046875 213.02734375 1745.7734375 C205.2315656 1753.08922081 200.04298528 1761.89871738 199.59545898 1772.71069336 C199.38233427 1786.30173515 204.073771 1796.91908825 213.375 1806.75 C223.04179622 1815.92814498 235.44945896 1820.08445881 248.68774414 1820.02075195 C249.49595108 1820.01775589 250.30415802 1820.01475983 251.13685608 1820.01167297 C251.75169357 1820.00782089 252.36653107 1820.00396881 253 1820 C252.9550515 1821.06784981 252.9550515 1821.06784981 252.90919495 1822.15727234 C252.10729245 1841.7225839 251.87399298 1861.22956994 251.9375 1880.8125 C251.94312802 1883.57096208 251.94716521 1886.32942577 251.95117188 1889.08789062 C251.96198838 1895.72528096 251.97855479 1902.36263592 252 1909 C251.06841064 1909.15073975 250.13682129 1909.30147949 249.17700195 1909.45678711 C231.24001313 1912.52370482 213.37367248 1920.69072814 202.19140625 1935.375 C198.13568175 1941.62518167 197.30959767 1946.73104979 198 1954 C202.75018019 1975.77642848 222.30132712 1991.69056253 240.24609375 2003.24609375 C241.15488281 2003.82488281 242.06367188 2004.40367187 243 2005 C244.06347656 2005.73347656 245.12695312 2006.46695313 246.22265625 2007.22265625 C248.73120415 2009.17967336 248.73120415 2009.17967336 251 2009 C251 2043.32 251 2077.64 251 2113 C248.69 2112.67 246.38 2112.34 244 2112 C226.39719101 2111.05837711 209.24514352 2110.80680143 194.75 2122.0625 C187.78667425 2128.72861062 184.76758096 2135.98078982 184.28930664 2145.52954102 C184.07195654 2160.57259768 188.19805936 2173.3720019 198 2185 C198.57105469 2185.69351563 199.14210937 2186.38703125 199.73046875 2187.1015625 C207.78445952 2195.99701499 218.99433735 2202.22499168 231 2203 C234.28810849 2203.05710193 237.57480989 2203.04731619 240.86328125 2203.03125 C241.74326782 2203.02899414 242.62325439 2203.02673828 243.52990723 2203.02441406 C245.68661222 2203.01855942 247.84330839 2203.00959299 250 2203 C249.96241577 2204.86736816 249.96241577 2204.86736816 249.92407227 2206.77246094 C249.24388195 2241.0341479 248.79927076 2275.29613526 248.4375 2309.5625 C248.4208473 2311.13948921 248.4208473 2311.13948921 248.40385818 2312.74833679 C248.26599461 2325.83219171 248.13144345 2338.91607907 248 2352 C247.13768768 2352.36860641 246.27537537 2352.73721283 245.38693237 2353.11698914 C242.14652795 2354.50455515 238.90781925 2355.89594453 235.6701355 2357.2898407 C234.27637338 2357.88898409 232.88197805 2358.48665691 231.48690796 2359.08274841 C209.68874112 2368.39643549 209.68874112 2368.39643549 193 2384.8125 C187.35727661 2402.79868081 200.20733992 2423.12724636 207.80859375 2438.80859375 C208.2679834 2439.75984131 208.72737305 2440.71108887 209.20068359 2441.69116211 C210.09251569 2443.53062576 210.99229837 2445.36626089 211.90087891 2447.19750977 C212.30612793 2448.02951904 212.71137695 2448.86152832 213.12890625 2449.71875 C213.49056885 2450.45029297 213.85223145 2451.18183594 214.22485352 2451.93554688 C215 2454 215 2454 215 2458 C213.41801116 2460.1556446 211.84322403 2462.08495911 210.0625 2464.0625 C209.04214251 2465.229747 208.02262256 2466.39772663 207.00390625 2467.56640625 C206.49359863 2468.14664551 205.98329102 2468.72688477 205.45751953 2469.32470703 C203.41564301 2471.67166795 201.45661197 2474.08175545 199.5 2476.5 C195.55966288 2481.34854549 191.52864159 2486.1145026 187.453125 2490.84960938 C185.06456902 2493.13340177 185.06456902 2493.13340177 184 2496 C185.27444473 2496.00808685 186.54888947 2496.01617371 187.86195374 2496.02450562 C204.51132319 2496.13077686 221.16064689 2496.2435203 237.80995226 2496.35934448 C240.06627273 2496.37502622 242.32259367 2496.39064067 244.57891464 2496.40625 C284.20853025 2496.68100456 323.83711436 2497.01269435 363.46534586 2497.44469452 C368.39078432 2497.49835223 373.31622673 2497.55164613 378.2416687 2497.60498047 C379.22925466 2497.61567991 380.21684062 2497.62637935 381.23435342 2497.63740301 C392.42706475 2497.75865926 403.61977838 2497.87969731 414.8125 2498 C415.83094529 2498.0109564 416.84939058 2498.0219128 417.89869785 2498.03320122 C494.07738934 2498.85167627 570.25524763 2499.31845334 646.4375 2499.625 C647.72071152 2499.63016632 649.00392304 2499.63533264 650.32601976 2499.64065552 C682.88397462 2499.77135272 715.44196435 2499.89131674 748 2500 C747.07239235 2498.73857348 746.14127388 2497.47972835 745.20874023 2496.22193909 C744.69061264 2495.52063653 744.17248505 2494.81933397 743.63865662 2494.09677982 C741.03764035 2490.76859113 738.07838998 2487.85129576 735.0625 2484.90234375 C734.41933838 2484.2643837 733.77617676 2483.62642365 733.11352539 2482.96913147 C731.08045952 2480.95368933 729.04077513 2478.94513309 727 2476.9375 C724.96012009 2474.92542784 722.92180811 2472.9118282 720.88647461 2470.89515686 C719.62710704 2469.64784778 718.36507882 2468.40321678 717.09985352 2467.16184998 C715.93945392 2466.01449863 714.78910491 2464.85687977 713.64979553 2463.68858337 C712.56522949 2462.57851843 711.45665589 2461.49132681 710.32371521 2460.43067932 C705.2923704 2455.34009986 704.50746259 2449.94587856 703.47265625 2443.03515625 C703.18095551 2441.28178703 703.18095551 2441.28178703 702.88336182 2439.49299622 C702.25480268 2435.6860042 701.65877813 2431.87466856 701.0625 2428.0625 C700.63369379 2425.41661959 700.19739342 2422.77199668 699.76049805 2420.12744141 C698.89140309 2414.8527641 698.0343827 2409.57631692 697.18554688 2404.29833984 C695.78089557 2395.59962358 694.27318113 2386.92066479 692.73297119 2378.24508667 C692.03811629 2374.32837043 691.35145446 2370.4102191 690.6640625 2366.4921875 C690.46313492 2365.34891243 690.46313492 2365.34891243 690.25814819 2364.18254089 C689.35566065 2359.04339251 688.46215893 2353.90273389 687.57301331 2348.76126099 C686.93362271 2345.06472967 686.29210106 2341.36856942 685.65048218 2337.67242432 C685.34622945 2335.91621763 685.04299618 2334.15983396 684.74087524 2332.40325928 C684.323425 2329.9766992 683.90231767 2327.55079867 683.48046875 2325.125 C683.29966263 2324.06528488 683.29966263 2324.06528488 683.11520386 2322.98416138 C682.28845931 2318.25805747 681.20678548 2313.64403001 680 2309 C681.01578125 2308.99742188 682.0315625 2308.99484375 683.078125 2308.9921875 C698.14265958 2308.6834353 707.88434642 2303.12725757 719 2293 C719.52770996 2292.52143555 720.05541992 2292.04287109 720.59912109 2291.54980469 C733.09604876 2280.07685436 745.85252111 2264.59743637 747.23828125 2246.96875 C747.53847793 2232.93850496 743.76598183 2223.81943033 735 2213 C734.32710937 2212.08154297 734.32710937 2212.08154297 733.640625 2211.14453125 C721.54353908 2195.42578689 699.60223276 2185.78941735 683 2177 C682.505 2143.34 682.505 2143.34 682 2109 C685.96 2108.34 689.92 2107.68 694 2107 C709.8495644 2102.89938596 724.95479759 2095.25408177 734.17041016 2081.21728516 C741.88701761 2068.04577367 744.56925566 2052.85361133 741.3125 2037.828125 C740.38309619 2035.39618504 739.30963446 2033.24800183 738 2031 C737.57589844 2030.17628906 737.15179687 2029.35257813 736.71484375 2028.50390625 C728.26538091 2013.04068317 713.36645952 2004.39708733 696.875 1999.34960938 C688.06641153 1996.84451804 688.06641153 1996.84451804 679 1996 C679 1967.95 679 1939.9 679 1911 C690 1910 690 1910 694.25 1909.8125 C711.28703123 1907.82789959 726.09921328 1896.51874457 737 1884 C739.0426234 1881.11043519 740.60621822 1878.24604442 742 1875 C742.31453125 1874.34644531 742.6290625 1873.69289063 742.953125 1873.01953125 C745.79193527 1866.55478605 746.09484536 1859.6775293 743.9375 1852.9375 C736.25498087 1835.13128743 717.00548673 1825.67198008 700.01074219 1818.79492188 C690.74539056 1814.71489659 690.74539056 1814.71489659 681 1813 C681 1783.63 681 1754.26 681 1724 C685.95 1724 690.9 1724 696 1724 C710.99633003 1723.09236304 723.39230882 1718.86387246 733.96875 1707.97265625 C742.4472434 1698.03916717 744.1545302 1686.57917892 743.20996094 1673.93896484 C742.00063978 1662.7710246 734.72443963 1653.14105725 726.546875 1645.796875 C715.64748384 1637.71022994 702.09620952 1633.27520013 688.6484375 1632.421875 C687.39981934 1632.3403418 686.15120117 1632.25880859 684.86474609 1632.17480469 C683.44669678 1632.08827637 683.44669678 1632.08827637 682 1632 C682.01252808 1631.08435776 682.02505615 1630.16871552 682.03796387 1629.22532654 C682.15832928 1620.39310493 682.27605551 1611.56085235 682.39115143 1602.72856045 C682.45034014 1598.19296301 682.51038754 1593.65738112 682.57275391 1589.12182617 C682.92084533 1563.74638424 683.06927675 1538.37780519 683 1513 C684.98423068 1513.25517146 686.96846135 1513.51034292 688.95269203 1513.76551437 C693.74066428 1514.31389825 698.56197413 1514.22702613 703.375 1514.25 C704.4475 1514.270625 705.52 1514.29125 706.625 1514.3125 C718.53819759 1514.37047176 729.12733657 1511.34702951 738.04296875 1503.11328125 C746.80507265 1493.60387638 749.55043937 1483.09543619 749.3125 1470.3359375 C747.99221935 1456.24194155 740.03429609 1444.39538084 729.57568359 1435.27539062 C716.40146732 1424.61190971 697.79573572 1418.88262081 681 1419 C681.01595215 1418.2975415 681.0319043 1417.59508301 681.04833984 1416.87133789 C681.1846227 1405.23154315 680.48845267 1393.64296925 679.828125 1382.02612305 C679.62685041 1378.47019127 679.43409546 1374.91386999 679.2421875 1371.35742188 C675.96017897 1311.83997248 666.98032604 1256.5993609 626 1211 C625.39800781 1210.32453125 624.79601562 1209.6490625 624.17578125 1208.953125 C588.28704433 1170.98519173 527.90211914 1150.6600017 476.83605957 1148.92654419 C427.68041635 1147.57800076 378.81759027 1154.12160649 337 1182 Z M148 2544 C147.48397752 2544.79870168 146.96795504 2545.59740335 146.43629551 2546.42030811 C145.0704631 2548.55623895 143.80772248 2550.72922953 142.5625 2552.9375 C142.09787354 2553.75613525 141.63324707 2554.57477051 141.15454102 2555.41821289 C109.46002963 2612.02832752 99.36214168 2680.17106795 91.83740234 2743.81103516 C90.8180032 2752.41566577 89.73568035 2761.00456936 88.53515625 2769.5859375 C86.76437579 2782.32017286 85.38426525 2795.09397799 84 2807.875 C78.77145486 2856.00076246 72.37643562 2903.62409879 58.86108398 2950.23803711 C55.93460874 2960.49103493 53.68521868 2970.92755318 51.30877686 2981.31895447 C50.37330542 2985.40228151 49.41117598 2989.47828996 48.4296875 2993.55078125 C45.51920304 3005.70500209 42.98990178 3017.89455873 40.75 3030.1875 C40.62503143 3030.86938385 40.50006287 3031.5512677 40.37130737 3032.2538147 C38.86635431 3040.51013187 37.56853479 3048.77284667 36.53613281 3057.1027832 C36.09631692 3060.2998602 35.58683681 3063.46435751 35.04052734 3066.64404297 C31.72121509 3086.37577681 30.5028603 3106.10334279 30.60888672 3126.09204102 C30.6250462 3129.69780995 30.60886881 3133.30246639 30.58984375 3136.90820312 C30.51920898 3218.51941269 65.90948264 3280.71933266 122 3337.125 C123.02250854 3338.15463867 123.02250854 3338.15463867 124.06567383 3339.20507812 C127.94980234 3343.07638459 131.94242949 3346.76051806 136.09375 3350.34326172 C138.95618276 3352.83102667 141.72590422 3355.41469685 144.5 3358 C152.88855517 3365.77309052 161.55424741 3373.18733276 170.29443359 3380.56054688 C172.49355156 3382.41654451 174.69030311 3384.27532727 176.88671875 3386.13452148 C177.96331928 3387.04575435 179.04014271 3387.95672393 180.1171875 3388.86743164 C182.86683861 3391.19262607 185.61360033 3393.52110008 188.35546875 3395.85546875 C193.9746277 3400.63437963 199.63848057 3405.33789348 205.421875 3409.91796875 C208.40967168 3412.33084092 211.33056197 3414.81796079 214.25 3417.3125 C218.70639633 3421.11744553 223.24178606 3424.7878906 227.875 3428.375 C233.62197322 3432.83165601 239.13457287 3437.51358762 244.60498047 3442.30419922 C248.18554854 3445.4373128 251.80010266 3448.50719415 255.5 3451.5 C260.58522854 3455.61661358 265.51535413 3459.89574282 270.44433594 3464.1965332 C274.15972497 3467.43021002 277.9165578 3470.59336451 281.75 3473.6875 C286.42264984 3477.46847554 290.84212741 3481.4756002 295.265625 3485.54296875 C298.74276417 3488.66742666 302.35823219 3491.59325057 305.99609375 3494.52734375 C309.49667478 3497.40883633 312.90257325 3500.38744562 316.3125 3503.375 C322.73235073 3508.97769047 329.32111927 3514.30007797 336.06787109 3519.50195312 C338.20747374 3521.16086162 340.33270065 3522.83720877 342.45703125 3524.515625 C350.74847814 3531.05118482 359.0451591 3537.38668224 368 3543 C368.9890332 3543.62769287 368.9890332 3543.62769287 369.99804688 3544.26806641 C392.00240843 3558.20119651 415.3246186 3569.70642421 441 3575 C441.88067139 3575.18691406 442.76134277 3575.37382812 443.66870117 3575.56640625 C453.55246836 3577.38381425 463.42524797 3577.30335902 473.43774414 3577.26074219 C476.42810399 3577.25003365 479.4178616 3577.26068237 482.40820312 3577.2734375 C495.97281493 3577.28498107 509.16556948 3576.93875074 522.0625 3572.25 C522.88427734 3571.95544922 523.70605469 3571.66089844 524.55273438 3571.35742188 C555.04041473 3559.9607835 584.26288025 3542.79846725 612 3526 C613.95828611 3524.8215361 615.91662056 3523.64315254 617.875 3522.46484375 C628.60465286 3515.98952159 639.2270753 3509.37761566 649.70507812 3502.50292969 C652.27321578 3500.82107273 654.84720024 3499.14839423 657.421875 3497.4765625 C676.78202322 3484.89705542 695.99890797 3472.11605698 715 3459 C715.91571777 3458.36803711 716.83143555 3457.73607422 717.77490234 3457.08496094 C729.95744728 3448.66718221 742.04658167 3440.13646776 754.02441406 3431.43017578 C756.98221755 3429.28894829 759.96037255 3427.1767233 762.9375 3425.0625 C782.27690105 3411.2934569 801.21357469 3396.95313409 820.04394531 3382.49902344 C821.82584513 3381.13346367 823.61127863 3379.7727275 825.3984375 3378.4140625 C832.81034129 3372.75905443 840.0623907 3366.92965016 847.28125 3361.03125 C850.23111391 3358.62150201 853.20180078 3356.24029419 856.1875 3353.875 C861.09533345 3349.96022315 865.88247318 3345.90736042 870.66015625 3341.8359375 C872.80083227 3340.01242166 874.95315121 3338.20506079 877.12109375 3336.4140625 C904.14069639 3314.01489661 925.21984049 3289.28957029 943 3259 C943.38881348 3258.34112793 943.77762695 3257.68225586 944.17822266 3257.00341797 C950.56814835 3246.03370215 955.21562266 3234.29005652 959.95727539 3222.54052734 C960.7897553 3220.51224685 961.67525259 3218.50575293 962.578125 3216.5078125 C967.65173347 3203.99105315 970.76122136 3190.30190836 973.3125 3177.0625 C973.45937256 3176.30952637 973.60624512 3175.55655273 973.75756836 3174.78076172 C976.67788948 3158.66358957 977.34196435 3142.71723302 977.25 3126.375 C977.24623352 3125.35688232 977.24246704 3124.33876465 977.23858643 3123.28979492 C977.1742462 3108.44554315 977.0153041 3093.72856881 975 3079 C974.86498077 3078.00374603 974.86498077 3078.00374603 974.72723389 3076.98736572 C971.89497767 3056.23121406 968.23972998 3035.8620718 962.9296875 3015.58349609 C962.12266215 3012.47280331 961.34197783 3009.3569934 960.57623291 3006.23591614 C957.06253666 2991.91565928 953.2047848 2977.79671608 948.32080078 2963.86865234 C946.09185214 2957.48107784 944.15614673 2951.06227438 942.34765625 2944.546875 C938.64840818 2931.33082882 934.18883219 2918.37144355 929.75058746 2905.38972092 C928.81461016 2902.64917825 927.8826933 2899.90726118 926.95064163 2897.16538143 C921.12800386 2880.03957235 915.21917135 2862.94493062 909.22622681 2845.87792969 C902.49879471 2826.71031138 896.090089 2807.43949054 889.70751953 2788.15478516 C887.43709367 2781.29658937 885.15101765 2774.44363369 882.86404419 2767.59094238 C882.19424347 2765.58271854 881.52552385 2763.57413806 880.85717773 2761.56542969 C878.92806029 2755.76894741 876.9942411 2749.97425115 875.03677368 2744.18727112 C868.57459043 2725.08253153 862.69226771 2705.85618196 857.125 2686.47265625 C854.36528568 2676.88941589 851.573777 2667.403359 848.1015625 2658.05078125 C847.02052931 2655.056856 846.08871707 2652.05238305 845.1875 2649 C836.50512272 2620.50664281 824.9330116 2591.30918121 806 2568 C805.55285645 2567.44070801 805.10571289 2566.88141602 804.64501953 2566.30517578 C798.12854643 2558.19593617 791.2492848 2550.5616842 782.82632828 2544.37027168 C781 2543 781 2543 779.1099205 2541.24567986 C769.36370572 2533.40404652 757.47786901 2535.0376208 745.60644531 2535.12939453 C743.10384294 2535.12311381 740.60124672 2535.11374553 738.09866619 2535.10154819 C732.69233085 2535.08208451 727.28667082 2535.08397681 721.88035393 2535.10513878 C713.94284675 2535.13606049 706.00575363 2535.12684287 698.06822517 2535.10864719 C684.91974247 2535.0794989 671.77144745 2535.08133835 658.62295532 2535.10153198 C640.00778373 2535.12983625 621.39280707 2535.11462499 602.77764006 2535.08942573 C595.49464947 2535.07971544 588.21165731 2535.07123363 580.92866516 2535.06278992 C580.13062663 2535.06184925 579.3325881 2535.06090859 578.51036658 2535.05993942 C566.45439424 2535.04589093 554.39843297 2535.03928749 542.342453 2535.03718567 C499.20061577 2535.02871516 456.06205202 2534.87927194 412.92137051 2534.54618549 C401.66533235 2534.4595451 390.40928446 2534.38788874 379.15307617 2534.32739258 C378.37029537 2534.32315431 377.58751456 2534.31891603 376.78101313 2534.31454933 C370.5136866 2534.28065011 364.24635746 2534.24723786 357.97902513 2534.21442866 C337.38734622 2534.10659155 316.79647789 2533.95947409 296.20539439 2533.76847208 C279.50885244 2533.61433211 262.81233242 2533.49836004 246.11529064 2533.41430378 C235.81865378 2533.361136 225.52316651 2533.2787159 215.22712433 2533.1555891 C208.30966259 2533.07556488 201.39258344 2533.03203263 194.47467601 2533.01754189 C190.48526531 2533.00805646 186.49772322 2532.98206265 182.50887299 2532.91228867 C178.84454829 2532.8485385 175.18301556 2532.83134806 171.51821458 2532.85066521 C169.56964068 2532.84894179 167.62130272 2532.79777148 165.67345142 2532.74468136 C156.22699513 2532.86778753 152.78191168 2536.06123564 148 2544 Z M1001 3188 C1000.87061035 3188.58040039 1000.7412207 3189.16080078 1000.60791016 3189.75878906 C989.81815413 3237.30780834 968.21081246 3283.0828639 936 3320 C935.31035156 3320.79921875 934.62070312 3321.5984375 933.91015625 3322.421875 C925.26233761 3332.24254427 915.98635742 3341.54339441 906 3350 C904.25113622 3351.51550229 902.50622607 3353.03550197 900.76098633 3354.55517578 C890.48683782 3363.49179262 880.19418321 3372.36657601 869.44555664 3380.73046875 C864.86780329 3384.29718842 860.36539773 3387.94914697 855.875 3391.625 C850.31398651 3396.16810797 844.68233781 3400.56312477 838.91015625 3404.8359375 C835.82946149 3407.12681655 832.78660954 3409.46382542 829.75 3411.8125 C805.3648133 3430.62915644 780.4221831 3448.74551655 755.21582031 3466.44335938 C752.93120678 3468.04832807 750.64917865 3469.65693045 748.3671875 3471.265625 C720.77037809 3490.68788463 692.83324753 3509.77574716 664.18896484 3527.62744141 C662.02964842 3528.98140939 659.88242317 3530.3526181 657.73828125 3531.73046875 C634.38114179 3546.70660914 610.35179405 3560.70992731 586 3574 C585.10845215 3574.48903809 584.2169043 3574.97807617 583.29833984 3575.48193359 C560.24698648 3588.06668025 534.42000311 3601.77743194 508 3605 C507.27288818 3605.08942871 506.54577637 3605.17885742 505.79663086 3605.27099609 C496.44660491 3606.25681508 487.07911654 3606.2436048 477.6875 3606.25 C476.79671753 3606.25067474 475.90593506 3606.25134949 474.98815918 3606.25204468 C461.45540855 3606.23577277 448.28832 3605.78714557 435 3603 C434.18337891 3602.83371094 433.36675781 3602.66742187 432.52539062 3602.49609375 C397.0052724 3595.03272261 364.82236892 3577.69509834 336 3556 C335.31421875 3555.48405273 334.6284375 3554.96810547 333.921875 3554.43652344 C321.55010782 3545.09737472 309.47143317 3535.4678424 297.66894531 3525.41894531 C295.50684715 3523.58071908 293.33827574 3521.75022667 291.16967773 3519.91967773 C282.45380906 3512.55958143 273.77223641 3505.15835903 265.16796875 3497.66796875 C258.78966609 3492.11569137 252.38133827 3486.63124719 245.80859375 3481.30859375 C242.49701407 3478.58655815 239.2469 3475.79856861 236 3473 C230.98689941 3468.68060414 225.9146229 3464.44902564 220.77734375 3460.27734375 C217.65603433 3457.71795783 214.57556761 3455.11398455 211.5 3452.5 C205.72463851 3447.59446792 199.88007702 3442.77971173 194 3438 C187.55387911 3432.76017074 181.16374173 3427.46380453 174.83422852 3422.08422852 C171.4408462 3419.20479732 168.01750083 3416.36810273 164.5625 3413.5625 C158.55264169 3408.66751395 152.68248717 3403.61682642 146.81152344 3398.55712891 C145.00637604 3397.00548064 143.19561441 3395.46066415 141.3828125 3393.91796875 C135.0557291 3388.52896483 128.80866656 3383.08097418 122.6953125 3377.44921875 C120.54192401 3375.49244399 118.36759254 3373.57255731 116.171875 3371.6640625 C105.52078367 3362.367135 95.38623056 3352.47692417 85.375 3342.5 C84.27502686 3341.40691528 84.27502686 3341.40691528 83.15283203 3340.29174805 C78.5644636 3335.69022791 74.2277392 3330.93323499 70 3326 C69.14277344 3325.02417969 68.28554687 3324.04835938 67.40234375 3323.04296875 C35.70400764 3286.32112454 13.0319475 3243.10845236 5 3195 C4.67 3195 4.34 3195 4 3195 C4 3451.08 4 3707.16 4 3971 C333.34 3971 662.68 3971 1002 3971 C1002 3712.61 1002 3454.22 1002 3188 C1001.67 3188 1001.34 3188 1001 3188 Z " fill="#000000" transform="translate(0,0)"/>
<path d="M0 0 C331.98 0 663.96 0 1006 0 C1006 1020.69 1006 2041.38 1006 3093 C1005.67 3093 1005.34 3093 1005 3093 C1001.40333092 3067.14980079 1001.574751 3041.34884937 1001.62548765 3015.29981281 C1001.63380421 3009.46803087 1001.62770875 3003.63627299 1001.62219715 2997.80449027 C1001.61126169 2985.70421092 1001.61439266 2973.60397275 1001.62535045 2961.50369509 C1001.63643715 2949.19233473 1001.64080715 2936.88099793 1001.63730332 2924.56963281 C1001.63708436 2923.78618354 1001.6368654 2923.00273427 1001.6366398 2922.19554411 C1001.63549215 2918.19467665 1001.63423936 2914.19380923 1001.63295073 2910.19294182 C1001.62378554 2881.03943822 1001.62933545 2851.8859518 1001.64238358 2822.73245049 C1001.65555389 2793.19654957 1001.66212736 2763.66065789 1001.66067696 2734.12475395 C1001.66063408 2733.19222231 1001.66059121 2732.25969067 1001.66054704 2731.29890049 C1001.66015176 2722.75252596 1001.65968342 2714.20615144 1001.65912804 2705.65977692 C1001.65773902 2684.23208435 1001.65734112 2662.80439182 1001.65760171 2641.37669921 C1001.65761858 2639.90409025 1001.65761858 2639.90409025 1001.65763578 2638.40173161 C1001.65827787 2590.03907604 1001.67017715 2541.67642396 1001.68280983 2493.31377029 C1001.68724751 2476.29487628 1001.6916316 2459.27598226 1001.69581819 2442.25708818 C1001.69607849 2441.19909363 1001.69633879 2440.14109908 1001.69660698 2439.05104408 C1001.70860634 2390.0124356 1001.71289453 2340.97382737 1001.71521609 2291.93521759 C1001.71536837 2288.72679246 1001.71552427 2285.51836734 1001.71568111 2282.30994221 C1001.71662342 2262.96272194 1001.71748552 2243.61550167 1001.71825503 2224.26828139 C1001.72017139 2176.17433442 1001.72304966 2128.08038754 1001.72658062 2079.98644066 C1001.72666052 2078.89164137 1001.72674042 2077.79684208 1001.72682274 2076.66886705 C1001.73200404 2005.78052384 1001.7411447 1934.8921818 1001.75360584 1864.00383949 C1001.75380471 1862.87234342 1001.75400358 1861.74084735 1001.75420847 1860.57506353 C1001.76027034 1826.13261841 1001.76662555 1791.69017335 1001.77303817 1757.2477283 C1001.7801332 1719.13310876 1001.78717817 1681.01848922 1001.79400635 1642.90386963 C1001.7943146 1641.18465147 1001.7943146 1641.18465147 1001.79462907 1639.43070163 C1001.81413615 1530.53991639 1001.82556417 1421.64913077 1001.8349077 1312.75834424 C1001.83530413 1308.14518941 1001.8357029 1303.53203458 1001.83610176 1298.91887975 C1001.83977202 1256.46712149 1001.84334751 1214.01536321 1001.84680401 1171.56360493 C1001.84694189 1169.87033534 1001.84694189 1169.87033534 1001.84708256 1168.14285828 C1001.84736085 1164.72501472 1001.8476391 1161.30717116 1001.84791735 1157.88932761 C1001.85543458 1065.55851375 1001.86377817 973.22769997 1001.87265726 880.89688624 C1001.87297032 877.63929102 1001.87328274 874.3816958 1001.87359498 871.12410059 C1001.88374249 765.28103987 1001.89535252 659.43797946 1001.92260839 472.5504418 C1001.9230431 469.66870683 1001.92347701 466.78697185 1001.92391061 463.90523688 C1001.92405258 462.96194356 1001.92419456 462.01865025 1001.92434084 461.04677228 C1001.92459922 459.3299687 1001.92485749 457.61316511 1001.9251156 455.89636153 C1001.94779583 305.26424065 1001.97441875 154.6321204 1002 4 C672.66 4 343.32 4 4 4 C4.01047363 97.0293042 4.02094727 190.0586084 4.03173828 285.90698242 C4.04476562 406.69314554 4.04476562 406.69314554 4.05016333 460.84880696 C4.05035097 462.72943561 4.05053861 464.61006427 4.05072626 466.49069292 C4.05082033 467.43371211 4.05091439 468.3767313 4.05101131 469.34832682 C4.0513046 472.28665568 4.05159846 475.22498454 4.05189248 478.1633134 C4.06244942 583.68345018 4.07184205 689.203587 4.08447801 879.26541004 C4.08468645 882.54383739 4.08489533 885.82226475 4.08510434 889.1006921 C4.09102622 981.99930896 4.0965599 1074.89792584 4.10157386 1167.79654276 C4.10175943 1171.23495145 4.10194504 1174.67336015 4.10213066 1178.11176885 C4.10219196 1179.24741488 4.10225326 1180.3830609 4.10231642 1181.55312044 C4.10462247 1224.25455659 4.10701721 1266.95599273 4.10946488 1309.65742887 C4.10973074 1314.29698411 4.10999558 1318.93653934 4.11025951 1323.57609458 C4.11648964 1433.08139005 4.12431314 1542.58668508 4.1373291 1652.09197998 C4.13746597 1653.24442741 4.13760284 1654.39687484 4.13774386 1655.58424492 C4.14229785 1693.90787848 4.14700669 1732.23151201 4.15173688 1770.55514555 C4.15601034 1805.18222922 4.16022821 1839.8093129 4.16426277 1874.4363966 C4.16439533 1875.57393505 4.1645279 1876.71147351 4.16466448 1877.88348283 C4.17295291 1949.13225634 4.17883226 2020.38102975 4.18227959 2091.62980366 C4.18235994 2093.28062728 4.18235994 2093.28062728 4.18244191 2094.96480088 C4.18479266 2143.30029819 4.18664126 2191.6357955 4.1879158 2239.97129284 C4.1884309 2259.41761604 4.18902036 2278.86393924 4.18965055 2298.31026243 C4.18975442 2301.53458403 4.18985588 2304.75890563 4.18995707 2307.98322723 C4.1915221 2357.29738114 4.19474475 2406.61153423 4.20278788 2455.92568755 C4.20296128 2456.98899186 4.20313467 2458.05229617 4.20331333 2459.14782183 C4.20611283 2476.25232779 4.20905073 2493.35683373 4.21201252 2510.46133967 C4.22042249 2559.02980743 4.22789681 2607.59827433 4.22826552 2656.16674292 C4.22827745 2657.6455925 4.22827745 2657.6455925 4.22828961 2659.15431782 C4.22844322 2680.66582675 4.2280506 2702.17733563 4.22712379 2723.68884454 C4.22676294 2732.26890872 4.22647688 2740.84897291 4.22621536 2749.42903709 C4.22618489 2750.36496948 4.22615442 2751.30090187 4.22612302 2752.26519585 C4.22519317 2781.92838178 4.23041707 2811.59156234 4.23921746 2841.25474687 C4.24786173 2870.4756948 4.2504209 2899.69663607 4.24418032 2928.91758484 C4.24332538 2932.92551625 4.2425405 2936.93344767 4.24179779 2940.94137911 C4.24164973 2941.7259702 4.24150168 2942.51056129 4.24134913 2943.31892787 C4.23920276 2955.65747926 4.24371101 2967.99601855 4.25111629 2980.33456752 C4.25823635 2992.4262256 4.25818134 3004.51786626 4.25060215 3016.60952425 C4.24686376 3023.03866461 4.2461747 3029.46776241 4.25447049 3035.89689947 C4.32571223 3094.81611621 4.32571223 3094.81611621 1 3116 C0.67 3116 0.34 3116 0 3116 C0 2087.72 0 1059.44 0 0 Z " fill="#FDFDFD" transform="translate(0,0)"/>
<path d="M0 0 C0.33 0 0.66 0 1 0 C1 269.94 1 539.88 1 818 C-330.98 818 -662.96 818 -1005 818 C-1005 548.72 -1005 279.44 -1005 2 C-1002.50114485 6.9977103 -1002.30352268 11.19220162 -1001.89003181 16.70424557 C-1001.80574464 17.80650848 -1001.72145747 18.90877139 -1001.63461614 20.04443621 C-1000.68111587 33.82351843 -1000.72365078 47.61238768 -1000.7554685 61.41620725 C-1000.76244301 65.43165889 -1000.75756867 69.44710093 -1000.75430298 73.46255493 C-1000.75017919 80.48114338 -1000.75338712 87.49969761 -1000.76156974 94.51828206 C-1000.77385384 105.08989197 -1000.77430261 115.66148153 -1000.77263914 126.23309731 C-1000.77016369 143.95557046 -1000.77670551 161.67802871 -1000.78884888 179.40049744 C-1000.8052392 203.36364269 -1000.80905773 227.32676252 -1000.81079102 251.28991699 C-1000.8212818 308.88078102 -1000.84920414 366.4716408 -1000.875 424.0625 C-1000.91625 552.741875 -1000.9575 681.42125 -1001 814 C-671.66 814 -342.32 814 -3 814 C-3.11879579 555.46495648 -3.11879579 555.46495648 -3.27026367 296.92993164 C-3.28381348 246.95983887 -3.28381348 246.95983887 -3.28633118 223.5766449 C-3.28931355 206.14712967 -3.30224373 188.71764942 -3.32002028 171.28814399 C-3.33791623 153.50048398 -3.34450139 135.71284597 -3.34033485 117.9251773 C-3.3381886 107.35978104 -3.34408884 96.79446688 -3.36242279 86.22908588 C-3.37372795 79.23735534 -3.37397119 72.24567892 -3.36550602 65.25394456 C-3.36100381 61.28169971 -3.36102122 57.30961165 -3.37464774 53.3373841 C-3.43283252 35.37234988 -2.70883425 17.79879097 0 0 Z " fill="#FDFDFD" transform="translate(1005,3157)"/>
</svg>
