<?xml version="1.0" encoding="UTF-8"?>
<!DOCTYPE svg PUBLIC "-//W3C//DTD SVG 1.1//EN" "http://www.w3.org/Graphics/SVG/1.1/DTD/svg11.dtd">
<svg xmlns="http://www.w3.org/2000/svg" version="1.1" width="1002px" height="3975px" style="shape-rendering:geometricPrecision; text-rendering:geometricPrecision; image-rendering:optimizeQuality; fill-rule:evenodd; clip-rule:evenodd" xmlns:xlink="http://www.w3.org/1999/xlink">
<g><path style="opacity:0.768" fill="#fdfdfd" d="M -0.5,-0.5 C 333.5,-0.5 667.5,-0.5 1001.5,-0.5C 1001.5,1324.5 1001.5,2649.5 1001.5,3974.5C 667.5,3974.5 333.5,3974.5 -0.5,3974.5C -0.5,2649.5 -0.5,1324.5 -0.5,-0.5 Z M 997.5,3002.5 C 989.244,2951.54 975.744,2901.88 957,2853.5C 923.527,2769.89 884.194,2689.22 839,2611.5C 818.398,2575.91 797.398,2540.57 776,2505.5C 764.502,2450.85 754.835,2395.85 747,2340.5C 725.391,2182.13 710.391,2023.13 702,1863.5C 690.95,1664.89 680.95,1466.22 672,1267.5C 666.198,1121.38 664.365,975.215 666.5,829C 666.629,774.826 659.463,721.659 645,669.5C 637.608,645.047 626.274,622.714 611,602.5C 587.66,575.387 558.994,567.387 525,578.5C 516.912,582.127 509.078,586.127 501.5,590.5C 423.622,577.366 365.122,604.699 326,672.5C 303.833,716.004 289.5,762.004 283,810.5C 275.686,860.9 271.686,911.567 271,962.5C 270.055,1050.27 272.722,1137.94 279,1225.5C 285.863,1325.56 293.363,1425.56 301.5,1525.5C 252.173,1872.29 207.007,2219.62 166,2567.5C 161.051,2585.35 154.718,2602.68 147,2619.5C 125.606,2664.62 103.939,2709.62 82,2754.5C 72.1167,2775.6 62.7834,2796.93 54,2818.5C 50.9292,2827.05 48.2625,2835.71 46,2844.5C 34.1934,2894.06 22.8601,2943.73 12,2993.5C 8.91659,3010.94 6.08326,3028.27 3.5,3045.5C 3.5,2031.5 3.5,1017.5 3.5,3.5C 334.833,3.5 666.167,3.5 997.5,3.5C 997.5,1003.17 997.5,2002.83 997.5,3002.5 Z M 997.5,3104.5 C 997.5,3393.17 997.5,3681.83 997.5,3970.5C 666.167,3970.5 334.833,3970.5 3.5,3970.5C 3.5,3700.83 3.5,3431.17 3.5,3161.5C 10.5753,3200.89 25.742,3236.89 49,3269.5C 65.0183,3290.19 82.5183,3309.69 101.5,3328C 146.619,3368.13 192.619,3407.13 239.5,3445C 263.5,3465.67 287.5,3486.33 311.5,3507C 335.28,3526.42 360.947,3543.09 388.5,3557C 429.618,3574.89 472.285,3579.89 516.5,3572C 539.458,3565.01 561.458,3555.68 582.5,3544C 678.735,3487.37 768.402,3421.71 851.5,3347C 863.107,3336.4 873.607,3324.9 883,3312.5C 921.977,3256.79 956.977,3198.45 988,3137.5C 992.281,3126.69 995.447,3115.69 997.5,3104.5 Z"/></g>
<g><path style="opacity:0.984" fill="#010101" d="M 997.5,3002.5 C 1001.44,3036.51 1001.44,3070.51 997.5,3104.5C 995.447,3115.69 992.281,3126.69 988,3137.5C 956.977,3198.45 921.977,3256.79 883,3312.5C 873.607,3324.9 863.107,3336.4 851.5,3347C 768.402,3421.71 678.735,3487.37 582.5,3544C 561.458,3555.68 539.458,3565.01 516.5,3572C 472.285,3579.89 429.618,3574.89 388.5,3557C 360.947,3543.09 335.28,3526.42 311.5,3507C 287.5,3486.33 263.5,3465.67 239.5,3445C 192.619,3407.13 146.619,3368.13 101.5,3328C 82.5183,3309.69 65.0183,3290.19 49,3269.5C 25.742,3236.89 10.5753,3200.89 3.5,3161.5C -0.471161,3122.84 -0.471161,3084.17 3.5,3045.5C 6.08326,3028.27 8.91659,3010.94 12,2993.5C 22.8601,2943.73 34.1934,2894.06 46,2844.5C 48.2625,2835.71 50.9292,2827.05 54,2818.5C 62.7834,2796.93 72.1167,2775.6 82,2754.5C 103.939,2709.62 125.606,2664.62 147,2619.5C 154.718,2602.68 161.051,2585.35 166,2567.5C 207.007,2219.62 252.173,1872.29 301.5,1525.5C 293.363,1425.56 285.863,1325.56 279,1225.5C 272.722,1137.94 270.055,1050.27 271,962.5C 271.686,911.567 275.686,860.9 283,810.5C 289.5,762.004 303.833,716.004 326,672.5C 365.122,604.699 423.622,577.366 501.5,590.5C 509.078,586.127 516.912,582.127 525,578.5C 558.994,567.387 587.66,575.387 611,602.5C 626.274,622.714 637.608,645.047 645,669.5C 659.463,721.659 666.629,774.826 666.5,829C 664.365,975.215 666.198,1121.38 672,1267.5C 680.95,1466.22 690.95,1664.89 702,1863.5C 710.391,2023.13 725.391,2182.13 747,2340.5C 754.835,2395.85 764.502,2450.85 776,2505.5C 797.398,2540.57 818.398,2575.91 839,2611.5C 884.194,2689.22 923.527,2769.89 957,2853.5C 975.744,2901.88 989.244,2951.54 997.5,3002.5 Z"/></g>
<g><path style="opacity:1" fill="#fefefe" d="M 742.5,2495.5 C 742.5,2496.5 742.5,2497.5 742.5,2498.5C 564.5,2498.5 386.5,2498.5 208.5,2498.5C 212.905,2468.26 216.738,2437.93 220,2407.5C 229.067,2307.77 238.733,2208.1 249,2108.5C 296.055,1772.78 343.389,1437.11 391,1101.5C 397.738,1042.52 404.405,983.523 411,924.5C 417.067,861.171 428.4,798.837 445,737.5C 454.472,705.562 468.472,675.895 487,648.5C 498.686,631.478 513.519,617.978 531.5,608C 547.611,600.964 562.945,602.298 577.5,612C 593.112,626.705 604.612,644.205 612,664.5C 628.826,716.306 636.993,769.472 636.5,824C 634.646,967.212 636.479,1110.38 642,1253.5C 651.584,1478.26 662.917,1702.93 676,1927.5C 685.738,2083.55 702.071,2238.88 725,2393.5C 730.728,2427.54 736.562,2461.54 742.5,2495.5 Z"/></g>
<g><path style="opacity:1" fill="#fdfdfd" d="M 455.5,618.5 C 461.509,618.334 467.509,618.501 473.5,619C 445.068,654.7 425.235,694.866 414,739.5C 398.695,798.994 388.029,859.327 382,920.5C 376,974.499 370,1028.5 364,1082.5C 349.294,1184.11 334.961,1285.77 321,1387.5C 311.808,1280.33 305.141,1172.99 301,1065.5C 299.363,1001.1 300.696,936.762 305,872.5C 308.743,824.787 317.743,778.12 332,732.5C 342.667,700.533 359.834,672.7 383.5,649C 404.386,631.388 428.386,621.221 455.5,618.5 Z"/></g>
<g><path style="opacity:1" fill="#cacaca" d="M 742.5,2495.5 C 743.434,2496.57 743.768,2497.9 743.5,2499.5C 564.999,2499.83 386.666,2499.5 208.5,2498.5C 386.5,2498.5 564.5,2498.5 742.5,2498.5C 742.5,2497.5 742.5,2496.5 742.5,2495.5 Z"/></g>
<g><path style="opacity:1" fill="#fefefe" d="M 203.5,2528.5 C 387.5,2528.33 571.5,2528.5 755.5,2529C 798.66,2599.47 839.16,2671.63 877,2745.5C 904.965,2801.39 928.632,2859.06 948,2918.5C 958.819,2953.11 966.152,2988.44 970,3024.5C 972.9,3054.1 971.233,3083.44 965,3112.5C 957.878,3132.41 948.878,3151.41 938,3169.5C 914.918,3209.34 890.585,3248.34 865,3286.5C 858.48,3295.53 851.48,3304.2 844,3312.5C 764.745,3385.78 679.245,3450.61 587.5,3507C 565.239,3520.46 541.905,3531.8 517.5,3541C 470.243,3551.68 425.576,3545.01 383.5,3521C 364.449,3509.81 346.449,3497.14 329.5,3483C 273.574,3434.38 216.908,3386.72 159.5,3340C 129.596,3314.76 102.429,3286.93 78,3256.5C 40.3405,3202.87 24.6738,3143.21 31,3077.5C 32.9846,3049.61 36.6513,3021.94 42,2994.5C 52.6866,2946.42 63.6866,2898.42 75,2850.5C 81.2896,2829.96 88.9563,2809.96 98,2790.5C 126.485,2732.53 154.152,2674.2 181,2615.5C 192.364,2587.52 199.864,2558.52 203.5,2528.5 Z"/></g>
</svg>
