<?xml version="1.0" encoding="UTF-8"?>
<svg version="1.1" xmlns="http://www.w3.org/2000/svg" width="1004" height="3975">
<path d="M0 0 C330.66 0 661.32 0 1002 0 C1002.03758423 137.81725708 1002.03758423 137.81725708 1002.07592773 278.41870117 C1002.0996833 364.8073733 1002.0996833 364.8073733 1002.12367522 451.19604536 C1002.12419367 453.05340767 1002.12471212 454.91076998 1002.12523057 456.76813229 C1002.12549055 457.69948485 1002.12575054 458.6308374 1002.1260184 459.59041276 C1002.12682838 462.49238975 1002.12763808 465.39436675 1002.1284477 468.29634374 C1002.15752341 572.51129901 1002.18717573 676.72625409 1002.24270584 864.43750596 C1002.24366841 867.67539518 1002.24463077 870.91328441 1002.24559305 874.15117364 C1002.27286116 965.90116499 1002.30032152 1057.65115628 1002.32803926 1149.4011475 C1002.32906517 1152.79704586 1002.33009106 1156.19294422 1002.33111694 1159.58884258 C1002.33145577 1160.71044819 1002.33179461 1161.83205379 1002.33214371 1162.98764744 C1002.34488368 1205.16113575 1002.35757974 1247.33462408 1002.37024957 1289.50811241 C1002.3716262 1294.0903045 1002.37300334 1298.67249658 1002.37438093 1303.25468867 C1002.40689498 1411.40557088 1002.43861997 1519.55645325 1002.46777344 1627.70733643 C1002.46808031 1628.84552234 1002.46838717 1629.98370826 1002.46870334 1631.15638466 C1002.47890673 1669.00574376 1002.48903342 1706.85510289 1002.49914955 1744.70446201 C1002.50829014 1778.90302498 1002.51745828 1813.10158794 1002.52671719 1847.30015087 C1002.52702134 1848.42361276 1002.52732549 1849.54707466 1002.52763887 1850.70458085 C1002.54669664 1921.07211663 1002.56694749 1991.43965199 1002.58840275 2061.80718708 C1002.588734 2062.89413071 1002.58906526 2063.98107434 1002.58940655 2065.10095565 C1002.60395604 2112.83900368 1002.61875421 2160.57705163 1002.63383666 2208.3150995 C1002.63990349 2227.52108494 1002.64593349 2246.72707039 1002.65194332 2265.93305585 C1002.65294009 2269.11752683 1002.65393806 2272.30199781 1002.65493616 2275.48646878 C1002.67019278 2324.19064322 1002.68462854 2372.89481772 1002.69667697 2421.59899306 C1002.69693676 2422.64913056 1002.69719656 2423.69926807 1002.69746423 2424.78122792 C1002.7016383 2441.67391039 1002.70574383 2458.56659287 1002.70983754 2475.45927536 C1002.72146182 2523.42677257 1002.73354954 2571.39426941 1002.74915612 2619.3617655 C1002.74947269 2620.33548428 1002.74978927 2621.30920306 1002.75011544 2622.31242847 C1002.75703273 2643.55826022 1002.76422053 2664.80409187 1002.77167287 2686.04992344 C1002.77464095 2694.52404627 1002.77757199 2702.9981691 1002.78049088 2711.47229195 C1002.78081024 2712.39666756 1002.7811296 2713.32104318 1002.78145864 2714.27343017 C1002.79156228 2743.56938143 1002.79861857 2772.86533235 1002.80390343 2802.16128484 C1002.80912193 2831.02094914 1002.81735445 2859.8806108 1002.82994437 2888.74027288 C1002.83167077 2892.69883374 1002.83336248 2896.65739462 1002.8350333 2900.61595551 C1002.8353617 2901.39088052 1002.8356901 2902.16580552 1002.83602845 2902.9642131 C1002.84110235 2915.14975 1002.84288109 2927.33528498 1002.84322461 2939.52082284 C1002.84362915 2951.4631317 1002.84758818 2963.40543507 1002.85527216 2975.34774151 C1002.85921326 2981.69721506 1002.86164559 2988.04667854 1002.8596265 2994.39615323 C1002.77621812 3026.32393758 1002.77621812 3026.32393758 1003.6889165 3058.23415562 C1004.00712821 3065.197074 1003.91723547 3072.06820661 1003.57238865 3079.0294714 C1003.51889763 3080.15777412 1003.46540662 3081.28607683 1003.41029466 3082.44857054 C1003.36338203 3083.36064475 1003.31646941 3084.27271896 1003.26813519 3085.21243179 C1002.91572892 3093.09588683 1002.87927936 3100.97667951 1002.8613348 3108.86633396 C1002.85861525 3110.00873236 1002.85861525 3110.00873236 1002.85584075 3111.17420952 C1002.84580942 3116.08627616 1002.84349319 3120.99832882 1002.84279228 3125.91040438 C1002.84104444 3130.43806671 1002.83355907 3134.96572049 1002.82684326 3139.49337769 C1002.81586903 3147.41218922 1002.80846676 3155.33099764 1002.80346954 3163.24981511 C1002.79592275 3175.17745755 1002.78264014 3187.10508923 1002.76832329 3199.03272522 C1002.74447603 3219.02722052 1002.72501444 3239.02171768 1002.70826721 3259.01622009 C1002.68560858 3286.05146893 1002.6568503 3313.08670554 1002.6270752 3340.12194824 C1002.55858321 3405.10212679 1002.49855884 3470.08231404 1002.4375 3535.0625 C1002.293125 3680.241875 1002.14875 3825.42125 1002 3975 C671.34 3975 340.68 3975 0 3975 C0 2663.25 0 1351.5 0 0 Z M4 4 C4 1010.83 4 2017.66 4 3055 C4.33 3055 4.66 3055 5 3055 C5.12004395 3054.0519751 5.24008789 3053.1039502 5.36376953 3052.12719727 C8.23298808 3029.61223279 11.56049698 3007.26344217 16 2985 C16.14505981 2984.26998779 16.29011963 2983.53997559 16.4395752 2982.7878418 C20.13816231 2964.24352296 24.27770681 2945.81014044 28.75 2927.4375 C28.91756931 2926.74872709 29.08513863 2926.05995419 29.2577858 2925.35030937 C30.77566306 2919.11583306 32.29625204 2912.88203461 33.84564209 2906.65530396 C44.59357607 2863.45982386 53.33240402 2819.84455129 61.80065918 2776.15393066 C73.34125251 2716.64541127 85.59436516 2657.3970818 99.37428284 2598.36817932 C99.78692401 2596.60035397 100.19919436 2594.83244202 100.61106873 2593.06443787 C108.31927841 2559.98042862 108.31927841 2559.98042862 112.8359375 2543.65625 C113.10486816 2542.67673874 113.37379883 2541.69722748 113.65087891 2540.68803406 C117.39706578 2527.5105199 123.24523932 2517.72524551 133 2508 C135.14338655 2505.63782852 137.2302333 2503.22857922 139.3125 2500.8125 C140.17887085 2499.80968994 140.17887085 2499.80968994 141.06274414 2498.78662109 C144.73215926 2494.52115102 148.30447702 2490.1955629 151.7890625 2485.77734375 C154.7576691 2482.04822839 157.78302883 2478.36724259 160.8125 2474.6875 C161.41143066 2473.95917969 162.01036133 2473.23085937 162.62744141 2472.48046875 C165.49470374 2469.00293667 168.37822886 2465.54234784 171.3125 2462.12109375 C171.82063232 2461.5278833 172.32876465 2460.93467285 172.85229492 2460.32348633 C173.80142444 2459.21947461 174.75450804 2458.11884567 175.7121582 2457.0222168 C177.74049491 2454.6648138 179.00371476 2452.98885573 180 2450 C178.76653084 2447.20272226 177.46182789 2444.52536366 176.0625 2441.8125 C172.24712235 2434.11911092 169.18861079 2426.3418925 166.5 2418.1875 C166.16234619 2417.16825439 165.82469238 2416.14900879 165.47680664 2415.09887695 C160.3072367 2399.07494533 159.76084359 2382.39556539 167.47265625 2367.07421875 C177.4357612 2350.04508192 195.84557625 2341.22229276 213 2333 C214.33439186 2332.3354546 215.66797907 2331.66928503 217 2331 C217.88811251 2308.97836164 218.13170394 2286.99615849 218.06866455 2264.95849609 C218.05817256 2260.88053945 218.05381338 2256.8025758 218.04882812 2252.72460938 C218.03831164 2244.81638818 218.02139882 2236.90819924 218 2229 C216.96649414 2228.66009033 215.93298828 2228.32018066 214.86816406 2227.9699707 C213.50061942 2227.51783652 212.13310815 2227.06560138 210.765625 2226.61328125 C210.08580566 2226.38999146 209.40598633 2226.16670166 208.70556641 2225.93664551 C199.15204756 2222.77051882 191.96191469 2218.155038 184 2212 C183.27425781 2211.443125 182.54851562 2210.88625 181.80078125 2210.3125 C168.986223 2199.83930505 160.1897212 2182.83273589 156 2167 C155.77570313 2166.15695313 155.55140625 2165.31390625 155.3203125 2164.4453125 C150.97699243 2144.87062342 154.53534355 2124.98943228 165 2108 C175.93716965 2092.50930753 193.22574094 2085.34833665 211.375 2082.1875 C213.91424136 2081.77046835 216.45468059 2081.37902456 219 2081 C219.39744325 2075.8758209 219.64501688 2070.75634031 219.84033203 2065.62060547 C219.95939785 2062.92068789 220.10473762 2060.22860044 220.27294922 2057.53173828 C220.52850813 2053.35428227 220.70188482 2049.17843205 220.83642578 2044.99542236 C220.90339256 2043.30066957 220.99538798 2041.60670693 221.11328125 2039.91473389 C221.99614026 2030.65687692 221.99614026 2030.65687692 218.7043457 2022.34506226 C215.38974173 2019.31716374 211.61954839 2017.14082916 207.70059204 2014.9883728 C204.05763989 2012.8711132 201.13327563 2009.85254218 198.125 2006.9375 C197.18406494 2006.03837891 197.18406494 2006.03837891 196.22412109 2005.12109375 C180.55857531 1990.02098834 167.93183989 1972.53141061 167 1950 C167.26816783 1940.85348248 168.87911226 1932.22726531 173 1924 C173.32484375 1923.27941406 173.6496875 1922.55882812 173.984375 1921.81640625 C183.24674209 1902.98963835 202.55864732 1892.90343686 221 1885 C221 1871.47 221 1857.94 221 1844 C215.72 1841.36 210.44 1838.72 205 1836 C201.84354591 1834.05157155 198.93205422 1832.21125756 196 1830 C195.401875 1829.55398438 194.80375 1829.10796875 194.1875 1828.6484375 C180.35711255 1817.5964761 171.92430362 1800.22351604 169.3125 1782.9375 C167.67082982 1762.25245575 172.9094554 1744.54822581 186.09765625 1728.4375 C196.46026125 1716.44831326 208.98722811 1708.98590638 223 1702 C223.38237061 1695.06414973 223.64376646 1688.13103243 223.82397461 1681.18701172 C223.8991205 1678.82920848 224.00128269 1676.47209782 224.1315918 1674.11669922 C225.35667187 1661.53304042 225.35667187 1661.53304042 221.57296753 1649.98449707 C218.101098 1646.73780375 214.19748046 1644.74771024 209.86051941 1642.88725281 C193.15717163 1634.9216857 179.66969608 1615.6742402 173 1599 C167.04364725 1582.12926002 167.39945051 1564.45865604 174.66015625 1548.04296875 C182.78680682 1531.19875569 196.32058931 1518.59333386 211.62890625 1508.23828125 C212.14864014 1507.86799805 212.66837402 1507.49771484 213.20385742 1507.11621094 C215 1506 215 1506 217.3684082 1505.09472656 C220.408002 1503.71251888 221.96235401 1502.67819512 224 1500 C225.68989453 1493.59426374 225.16645153 1486.68962653 225.0625 1480.125 C225.06557624 1478.27342621 225.07269449 1476.42185443 225.08398438 1474.5703125 C225.10278386 1470.04555934 225.06624446 1465.52427492 225 1461 C223.91098389 1460.46093018 222.82196777 1459.92186035 221.69995117 1459.36645508 C220.25173992 1458.64674864 218.80358193 1457.92693501 217.35546875 1457.20703125 C216.63999878 1456.85322388 215.92452881 1456.4994165 215.18737793 1456.1348877 C190.71853415 1443.95300412 173.18164381 1425.58138008 163 1400 C156.86596904 1381.50206289 156.98375117 1361.38959133 165.625 1343.75 C174.56793984 1326.48809456 188.77252327 1314.63719458 207.07324219 1308.27978516 C213.61783329 1306.24574 220.20363097 1304.89175288 227 1304 C227.13986328 1303.30777344 227.27972656 1302.61554688 227.42382812 1301.90234375 C239.63215663 1242.31313901 267.86693468 1190.38756486 319 1156 C350.33077092 1135.89529628 386.22565909 1124.70207925 423 1120 C423.67595215 1119.91081299 424.3519043 1119.82162598 425.04833984 1119.72973633 C493.55438428 1111.34108094 567.83008322 1128.34545825 623.328125 1169.8828125 C646.1915316 1187.99972241 664.46051124 1209.14655156 678 1235 C678.59425781 1236.12148437 679.18851563 1237.24296875 679.80078125 1238.3984375 C703.21610032 1285.44438891 704.83801442 1340.51129413 708 1392 C709.12535156 1392.4125 710.25070312 1392.825 711.41015625 1393.25 C738.21859118 1403.25064794 758.02679175 1416.63341846 770.375 1443.19140625 C777.93363069 1460.33085786 778.36597166 1480.44871706 772 1498 C765.10276552 1515.60326592 753.69368235 1527.36063886 736.77734375 1535.5625 C730.82391871 1538.04124946 724.90560108 1539.51393776 718.5859375 1540.6328125 C717.85270264 1540.76631104 717.11946777 1540.89980957 716.36401367 1541.03735352 C714.57672205 1541.36218321 712.78845784 1541.68165397 711 1542 C710.24461321 1563.01019962 709.85040035 1583.9754959 710 1605 C710.54301758 1605.20044922 711.08603516 1605.40089844 711.64550781 1605.60742188 C722.61023994 1609.7000557 732.73693579 1613.70098399 742 1621 C742.86753906 1621.67546875 743.73507812 1622.3509375 744.62890625 1623.046875 C757.81992935 1634.08302868 767.68042488 1650.88529707 770 1668 C770.30996109 1672.08559572 770.41068595 1676.15344444 770.4375 1680.25 C770.4475708 1681.24338379 770.4576416 1682.23676758 770.46801758 1683.26025391 C770.26252968 1700.827283 762.30103782 1716.99866333 750.41015625 1729.68359375 C738.63323292 1741.00241958 724.554812 1745.42505529 709 1750 C709 1763.2 709 1776.4 709 1790 C712.155625 1791.44375 715.31125 1792.8875 718.5625 1794.375 C739.89054958 1804.41629596 760.28340046 1818.20164867 769.03515625 1841.09765625 C774.33419241 1857.0376719 772.70351845 1873.23660744 765.3125 1888.25 C761.93120618 1894.80910189 758.00748605 1900.55292548 753 1906 C752.32453125 1906.75539063 751.6490625 1907.51078125 750.953125 1908.2890625 C738.69932215 1921.30313779 723.34909845 1928.46036062 707 1935 C707 1946.88 707 1958.76 707 1971 C711.95 1972.98 716.9 1974.96 722 1977 C744.46025914 1988.05154005 758.39542811 2004.68357006 767 2028 C768.04197302 2031.34199643 768.63447108 2034.52225344 769 2038 C769.13148438 2039.12664062 769.26296875 2040.25328125 769.3984375 2041.4140625 C771.36246641 2062.49463943 765.99396489 2083.9377797 752.75 2100.6875 C750.99143537 2102.78019192 749.24872923 2104.76415539 747.265625 2106.64453125 C745.77251056 2107.93455811 745.77251056 2107.93455811 746 2110 C745.42765625 2110.25523437 744.8553125 2110.51046875 744.265625 2110.7734375 C741.75695997 2112.13157685 739.89333151 2113.7439643 737.75 2115.625 C731.65925527 2120.60092092 724.90665321 2123.80762944 717.83398438 2127.13134766 C715.20124471 2128.37832419 712.60058907 2129.68759092 710 2131 C707.77324264 2145.49710949 707.77324264 2145.49710949 711.34472656 2159.05175781 C714.98037554 2162.31705205 719.35727346 2164.1526812 723.828125 2166.02099609 C727.22079794 2167.55029224 730.13529736 2169.61587879 733.125 2171.8125 C733.6907373 2172.22145508 734.25647461 2172.63041016 734.83935547 2173.05175781 C753.96895977 2187.15528048 769.39523557 2205.82759225 773.69091797 2229.78027344 C776.85534445 2252.50615462 769.53672725 2273.97105887 756.28613281 2292.31640625 C752.26264488 2297.58329554 747.69234498 2302.33146647 743 2307 C742.51128418 2307.49129395 742.02256836 2307.98258789 741.51904297 2308.48876953 C734.91932111 2315.05318696 727.96200885 2320.2935918 720.03125 2325.125 C719.0309375 2325.74375 718.030625 2326.3625 717 2327 C716.27669998 2327.43432846 715.55339996 2327.86865692 714.80818176 2328.31614685 C712.79110153 2329.8380172 712.79110153 2329.8380172 712.70878601 2332.14686584 C712.81737442 2333.02789474 712.92596283 2333.90892365 713.0378418 2334.81665039 C713.16677826 2335.89375275 713.29571472 2336.9708551 713.42855835 2338.08059692 C713.61713409 2339.37399994 713.80570984 2340.66740295 714 2342 C714.10787968 2342.75265514 714.21575935 2343.50531029 714.32690811 2344.28077316 C716.06712989 2356.30051743 718.09204427 2368.27803155 720.1099596 2380.25370693 C721.06292896 2385.91031663 721.99707242 2391.5686119 722.88647461 2397.2355957 C723.75314345 2402.75540141 724.66688595 2408.26553288 725.61331749 2413.77220345 C725.96326797 2415.85484913 726.29707583 2417.94028151 726.61347389 2420.02828789 C728.78446657 2434.24779152 732.10958283 2442.49051145 743 2452 C744.30064093 2453.35922053 745.58864761 2454.73103483 746.84765625 2456.12890625 C747.91902179 2457.27367063 748.9906308 2458.4182072 750.0625 2459.5625 C755.12946999 2464.98103289 760.15491581 2470.43452611 765.16015625 2475.91015625 C768.39646486 2479.44057029 771.66691873 2482.9388627 774.9375 2486.4375 C776.13024802 2487.71480669 777.32295658 2488.99215024 778.515625 2490.26953125 C780.2143255 2492.0888301 781.91349537 2493.90766389 783.61523438 2495.72412109 C792.51370954 2505.22829548 801.04734604 2514.97070448 809.125 2525.1875 C814.03864119 2531.37431138 819.32860193 2537.20708039 824.78125 2542.921875 C832.8766861 2551.45522999 840.00647213 2560.54999846 847 2570 C847.76441406 2571.02480469 848.52882813 2572.04960937 849.31640625 2573.10546875 C857.2008004 2583.79800328 864.35394464 2594.96320682 871.25 2606.3125 C871.61584198 2606.91372681 871.98168396 2607.51495361 872.35861206 2608.13439941 C879.44884777 2619.8191294 885.87581045 2631.7805883 892 2644 C892.71918996 2645.41450117 893.43917785 2646.82859707 894.16015625 2648.2421875 C895.79754948 2651.46611827 897.40579195 2654.70328088 898.99609375 2657.95068359 C899.68841042 2659.36393897 900.38391879 2660.77563376 901.08203125 2662.18603516 C914.64294277 2689.65154109 925.84778882 2718.06976479 936.22650146 2746.86242676 C936.98067065 2748.94658308 937.74199807 2751.02795643 938.50634766 2753.10839844 C966.38316511 2829.02051745 986.27822626 2908.83730752 997 2989 C997.33 2989 997.66 2989 998 2989 C998 2003.95 998 1018.9 998 4 C669.98 4 341.96 4 4 4 Z M997 3123 C996.53851562 3124.21171875 996.07703125 3125.4234375 995.6015625 3126.671875 C988.38896509 3145.32306888 979.35353527 3162.66940705 969.421875 3180.00390625 C967.08775068 3184.07790452 964.78803325 3188.16860112 962.515625 3192.27734375 C955.55207187 3204.86269693 948.29400863 3217.18419131 940.64306641 3229.36230469 C938.36854618 3233.01370387 936.14600582 3236.69564191 933.92236328 3240.37817383 C918.66614265 3265.63273663 902.83794964 3290.72092202 885.4375 3314.5625 C884.89013184 3315.31772949 884.34276367 3316.07295898 883.77880859 3316.85107422 C880.71232079 3320.98947175 877.4679137 3324.66016676 873.76513672 3328.23730469 C871.93221479 3330.06769146 870.25510426 3331.97885538 868.57421875 3333.94921875 C864.90890768 3338.19256439 860.92370135 3342.00572768 856.8125 3345.8125 C855.69983765 3346.85071899 855.69983765 3346.85071899 854.56469727 3347.90991211 C852.38081685 3349.9446932 850.19151035 3351.97344204 848 3354 C847.39833008 3354.55751953 846.79666016 3355.11503906 846.17675781 3355.68945312 C833.51984427 3367.40580024 820.44341703 3378.61145179 807.06640625 3389.49609375 C804.71303941 3391.41776017 802.36757233 3393.34759522 800.02734375 3395.28515625 C791.72503197 3402.15626344 783.36977815 3408.94024954 774.86035156 3415.55322266 C772.85996027 3417.10890754 770.86344427 3418.66948255 768.8671875 3420.23046875 C752.19401329 3433.25353446 735.4178189 3446.11387557 718.20605469 3458.41894531 C715.95783378 3460.03022006 713.71622187 3461.65028651 711.4765625 3463.2734375 C710.33610474 3464.09968628 710.33610474 3464.09968628 709.17260742 3464.94262695 C707.77396495 3465.95627991 706.37563855 3466.97036928 704.9777832 3467.98510742 C691.53201591 3477.71270014 677.91785555 3487.16533697 664.09863281 3496.35449219 C661.63115059 3497.99590851 659.16700051 3499.64223864 656.703125 3501.2890625 C588.71898065 3546.6323487 520.06286874 3589.2387505 435.37207031 3572.47998047 C392.40984309 3563.39212938 356.13447364 3540.53458236 322.12939453 3513.67382812 C319.89623252 3511.91843272 317.64764922 3510.18398564 315.3984375 3508.44921875 C311.53903596 3505.45065182 307.80950663 3502.33462667 304.125 3499.125 C299.88280916 3495.45581465 295.61165532 3491.84012775 291.25 3488.3125 C286.87492253 3484.76254679 282.69450808 3481.04436179 278.53125 3477.25 C275.9115519 3474.92137947 273.2248469 3472.70437053 270.5 3470.5 C266.9052235 3467.5918662 263.41739372 3464.61458668 260 3461.5 C255.77986056 3457.65808061 251.41972816 3454.03884779 246.984375 3450.44921875 C243.61238107 3447.68188865 240.3034785 3444.84838234 237 3442 C232.06704136 3437.75211919 227.08679592 3433.57553217 222.03515625 3429.46875 C212.46067319 3421.68101089 202.93971956 3413.83025179 193.53613281 3405.83691406 C187.55149641 3400.7561875 181.46222718 3395.80568633 175.36328125 3390.86328125 C169.56144891 3386.14558693 163.85827904 3381.32813782 158.1965332 3376.44433594 C154.63651365 3373.38021282 151.03348211 3370.38431772 147.375 3367.4375 C142.32191856 3363.33698767 137.54690652 3358.98415243 132.77734375 3354.5625 C129.88366523 3351.89266441 126.93613472 3349.2972541 123.96484375 3346.71484375 C111.42324668 3335.76899661 99.28946785 3324.37440891 87.5 3312.625 C86.75878906 3311.88838135 86.01757812 3311.1517627 85.25390625 3310.39282227 C80.63151545 3305.75737091 76.25802546 3300.97056061 72 3296 C71.14277344 3295.02417969 70.28554687 3294.04835938 69.40234375 3293.04296875 C34.40229902 3252.49616575 13.74294686 3206.71536801 5 3154 C4.67 3154 4.34 3154 4 3154 C4 3423.61 4 3693.22 4 3971 C332.02 3971 660.04 3971 998 3971 C998 3691.16 998 3411.32 998 3123 C997.67 3123 997.34 3123 997 3123 Z " fill="#B7B7B8" transform="translate(0,0)"/>
<path d="M0 0 C0.69167216 -0.00327043 1.38334431 -0.00654087 2.09597623 -0.0099104 C4.41987449 -0.01719663 6.74314128 -0.00300885 9.06700134 0.01104736 C10.75738917 0.01027798 12.44777682 0.0081989 14.13816166 0.00492954 C18.81720612 -0.00020303 23.49603551 0.0136472 28.17504549 0.03049302 C33.29534625 0.04567402 38.41564571 0.04355877 43.53596497 0.04380798 C53.74963242 0.04718164 63.96320664 0.0672747 74.17684054 0.09263903 C82.61354243 0.11317502 91.05023225 0.12700035 99.48695374 0.13632202 C101.3046433 0.13834127 101.3046433 0.13834127 103.15905386 0.1404013 C105.63495151 0.14313636 108.11084916 0.14586571 110.58674681 0.14858949 C141.00888812 0.18339576 171.43090797 0.2552499 201.85296506 0.33225042 C213.17630145 0.36086499 224.49964105 0.38789575 235.82298279 0.41430664 C282.54567944 0.52352589 329.26832581 0.64651007 375.99095302 0.78221375 C382.11024104 0.79995118 388.22953008 0.81729561 394.34881973 0.8344574 C412.93425906 0.88668371 431.51968473 0.94164328 450.10509324 1.00396997 C451.71966567 1.00937768 453.33423812 1.0147816 454.94881058 1.02018166 C455.74031396 1.02282897 456.53181734 1.02547628 457.34730567 1.02820381 C462.70378634 1.04593114 468.06027025 1.06174622 473.41675949 1.07663536 C476.32921641 1.08488379 479.24167288 1.09327519 482.15412903 1.10179138 C482.86792159 1.10387108 483.58171415 1.10595077 484.31713679 1.10809349 C492.04157096 1.13121083 499.76585998 1.16208097 507.49015808 1.21406841 C508.17279888 1.21864243 508.85543968 1.22321644 509.55876656 1.22792906 C512.32489898 1.2466429 515.09102937 1.26553715 517.85715279 1.28554226 C526.97825518 1.3507833 536.09804067 1.36924984 545.21934928 1.34357451 C551.88446168 1.32627025 558.54918281 1.33744081 565.21424805 1.36724259 C569.20867854 1.38379052 573.20199211 1.38666846 577.19635189 1.35459983 C580.9161395 1.32494369 584.63402017 1.33305284 588.35373668 1.36872499 C590.35520965 1.37824523 592.35675155 1.34829255 594.35799849 1.31674349 C603.9574873 1.46129721 609.53093117 4.42822499 616.94566345 10.36749268 C618.31365698 11.40138259 618.31365698 11.40138259 619.70928675 12.45615917 C633.05707834 22.63730586 644.75913854 35.29484457 654.72789001 48.74835205 C655.90079622 50.30783761 657.12171631 51.83085486 658.34410095 53.35186768 C671.89687176 70.28186615 682.57253194 89.385767 692.94566345 108.36749268 C693.38330017 109.16687256 693.82093689 109.96625244 694.27183533 110.78985596 C717.04673717 152.6356292 734.85631803 196.89925835 750.57066345 241.80499268 C750.86480133 242.64511902 751.15893921 243.48524536 751.46199036 244.35083008 C754.81986111 253.9681694 758.01370495 263.61035945 760.94566345 273.36749268 C761.51410635 275.19880322 762.08436573 277.02955109 762.65660095 278.85968018 C765.978721 289.57346816 769.0491569 300.31439667 771.82066345 311.18389893 C773.20143237 316.58211784 774.683611 321.91661537 776.32066345 327.24249268 C780.12502432 339.73418817 782.95540755 352.52545306 785.96202087 365.22808838 C786.61023742 367.96634102 787.27004922 370.70139141 787.93907166 373.43463135 C790.47396666 383.86921 792.55904127 394.36284537 794.50059509 404.9229126 C795.00593556 407.66789089 795.51928902 410.41128339 796.03355408 413.15460205 C798.13768096 424.46350969 799.98902115 435.79106271 801.6287384 447.17630005 C802.07700981 450.2756101 802.54460504 453.37199965 803.00816345 456.46905518 C813.84035736 530.79181008 808.43254616 583.96949803 769.6214447 649.51251221 C767.49525039 653.13484849 765.42482939 656.78705519 763.35874939 660.44390869 C757.3960283 670.99508374 751.12502968 681.32527434 744.68589783 691.59161377 C742.85628495 694.51006191 741.03321083 697.43251922 739.21128845 700.35577393 C736.05692164 705.41493798 732.89466292 710.46910051 729.7283783 715.52081299 C728.05412853 718.19429317 726.38435794 720.87052262 724.7151947 723.54718018 C718.38394373 733.67354134 711.86813717 743.63450802 704.94566345 753.36749268 C704.38024841 754.16284424 703.81483337 754.9581958 703.23228455 755.77764893 C701.41849844 758.31567458 699.59101713 760.84320905 697.75816345 763.36749268 C697.20016052 764.14479736 696.64215759 764.92210205 696.06724548 765.72296143 C692.5999867 770.45039435 688.88152075 774.62249906 684.651474 778.68365479 C682.8058911 780.4331702 682.8058911 780.4331702 680.94566345 782.92999268 C678.61809466 785.76671714 676.00486123 787.9712626 673.21910095 790.34796143 C670.68973918 792.59483434 668.32132638 794.95893595 665.94566345 797.36749268 C662.41252946 800.93832779 658.8119325 804.33300493 654.9964447 807.59796143 C652.66999763 809.6053529 650.40373659 811.67215906 648.13316345 813.74249268 C643.83957713 817.6178301 639.41478343 821.28970577 634.9183197 824.92608643 C631.60814799 827.64469 628.37074758 830.43837762 625.13316345 833.24249268 C619.97870613 837.69336587 614.71994129 841.97130242 609.34141541 846.14776611 C604.77776265 849.69508724 600.29283512 853.330743 595.82066345 856.99249268 C590.37374732 861.44201335 584.85273118 865.74868175 579.19566345 869.92999268 C575.09534314 872.97921565 571.09204182 876.15295403 567.07066345 879.30499268 C561.18185819 883.91029325 555.23453655 888.38744324 549.12046814 892.6885376 C544.78501379 895.74407748 540.54659515 898.91262303 536.32066345 902.11749268 C528.00368489 908.4058654 519.4655343 914.36079606 510.89903259 920.30230713 C508.63567437 921.88499269 506.38082987 923.47748453 504.13096619 925.0791626 C494.1808965 932.15640075 484.10229571 938.99785345 473.88316345 945.67999268 C472.74888412 946.42309692 472.74888412 946.42309692 471.59169006 947.18121338 C368.76053735 1014.52270805 368.76053735 1014.52270805 314.19566345 1014.67999268 C313.32772156 1014.68261108 312.45977966 1014.68522949 311.5655365 1014.68792725 C297.95664301 1014.69232329 285.17910464 1013.72836663 271.94566345 1010.36749268 C270.63125223 1010.07271896 269.31617538 1009.78089255 268.00035095 1009.49249268 C233.52946667 1001.2955945 202.95147671 980.73875002 175.74205017 958.81427002 C174.19443044 957.5678451 172.63554084 956.3354369 171.0745697 955.10577393 C164.79369809 950.1514224 158.70463989 944.97162409 152.61460876 939.78643799 C150.4525106 937.94821175 148.28393919 936.11771935 146.11534119 934.28717041 C136.14223256 925.86540057 126.23834685 917.36437384 116.38316345 908.80499268 C110.14768547 903.39107021 103.86285306 898.03911545 97.54722595 892.71905518 C95.90637609 891.33433797 94.2692754 889.94530377 92.63316345 888.55499268 C86.80510533 883.60448879 80.94415472 878.70208688 75.01597595 873.87139893 C65.43859796 866.06084003 55.89813388 858.20858309 46.48179626 850.20440674 C40.49715987 845.12368018 34.40789064 840.173179 28.3089447 835.23077393 C22.55887474 830.55516959 16.89747986 825.78889551 11.28282166 820.95245361 C7.85557483 818.00052521 4.41064153 815.07229171 0.94395447 812.16680908 C-4.96996381 807.20548615 -10.70305913 802.08442204 -16.36683655 796.84014893 C-18.5053853 794.87255974 -20.66398387 792.94925608 -22.86683655 791.05499268 C-32.60796416 782.57660383 -41.90866105 773.60504258 -51.05433655 764.49249268 C-51.74777161 763.8036499 -52.44120667 763.11480713 -53.15565491 762.40509033 C-57.65854683 757.88861748 -61.89955174 753.2041649 -66.05433655 748.36749268 C-67.01558416 747.27287077 -67.97777356 746.17907495 -68.9410553 745.08624268 C-94.80380688 715.48907756 -113.08804085 683.11907502 -124.05433655 645.36749268 C-124.30546204 644.52355957 -124.55658752 643.67962646 -124.81532288 642.81011963 C-126.82070558 635.82997833 -128.07127935 628.86120652 -129.11683655 621.67999268 C-129.27732483 620.62360596 -129.43781311 619.56721924 -129.60316467 618.4788208 C-130.10741972 615.11104516 -130.58158415 611.73982451 -131.05433655 608.36749268 C-131.32902771 606.55535278 -131.32902771 606.55535278 -131.60926819 604.706604 C-133.18090605 593.60125222 -133.41012103 582.63532426 -133.36683655 571.42999268 C-133.36534607 570.47205811 -133.36385559 569.51412354 -133.36231995 568.52716064 C-133.31268981 550.65735012 -132.24325548 533.10077294 -130.05433655 515.36749268 C-129.90980042 514.18945068 -129.76526428 513.01140869 -129.61634827 511.79766846 C-128.58391577 503.62853205 -127.3639133 495.49642433 -126.05433655 487.36749268 C-125.84969788 486.08390869 -125.6450592 484.80032471 -125.43421936 483.47784424 C-121.80458061 460.91019025 -116.89478354 438.70570388 -111.56208801 416.48522949 C-110.82209075 413.3988387 -110.08900882 410.31080901 -109.3551178 407.22296143 C-107.70430569 400.29939827 -106.02889379 393.38188509 -104.3497467 386.46514893 C-97.06589808 356.43236035 -90.33576617 326.35588205 -84.37550354 296.03291321 C-83.15564698 289.84101616 -81.86989318 283.66475774 -80.55433655 277.49249268 C-78.51444619 267.86934436 -76.6885921 258.20989303 -74.87019348 248.54312134 C-71.34665396 229.81350283 -67.55650538 211.15121316 -63.62806702 192.50250244 C-61.30379912 181.45494992 -59.07122774 170.40122596 -56.99183655 159.30499268 C-54.02597896 143.58860028 -50.37049565 128.04356638 -46.71324158 112.47662354 C-44.87543871 104.64002563 -43.11956105 96.7859631 -41.36683655 88.92999268 C-39.11507089 78.87647966 -36.73561689 68.86655092 -34.18251038 58.88531494 C-32.72804772 53.17403085 -31.40158678 47.45101345 -30.16493225 41.68878174 C-23.71645731 11.89326939 -23.71645731 11.89326939 -13.05433655 3.36749268 C-8.51808782 0.69952797 -5.24130968 -0.00626349 0 0 Z " fill="#FDFDFD" transform="translate(165.05433654785156,2532.6325073242188)"/>
<path d="M0 0 C330.66 0 661.32 0 1002 0 C1002.03758423 137.81725708 1002.03758423 137.81725708 1002.07592773 278.41870117 C1002.0996833 364.8073733 1002.0996833 364.8073733 1002.12367522 451.19604536 C1002.12419367 453.05340767 1002.12471212 454.91076998 1002.12523057 456.76813229 C1002.12549055 457.69948485 1002.12575054 458.6308374 1002.1260184 459.59041276 C1002.12682838 462.49238975 1002.12763808 465.39436675 1002.1284477 468.29634374 C1002.15752341 572.51129901 1002.18717573 676.72625409 1002.24270584 864.43750596 C1002.24366841 867.67539518 1002.24463077 870.91328441 1002.24559305 874.15117364 C1002.27286116 965.90116499 1002.30032152 1057.65115628 1002.32803926 1149.4011475 C1002.32906517 1152.79704586 1002.33009106 1156.19294422 1002.33111694 1159.58884258 C1002.33145577 1160.71044819 1002.33179461 1161.83205379 1002.33214371 1162.98764744 C1002.34488368 1205.16113575 1002.35757974 1247.33462408 1002.37024957 1289.50811241 C1002.3716262 1294.0903045 1002.37300334 1298.67249658 1002.37438093 1303.25468867 C1002.40689498 1411.40557088 1002.43861997 1519.55645325 1002.46777344 1627.70733643 C1002.46808031 1628.84552234 1002.46838717 1629.98370826 1002.46870334 1631.15638466 C1002.47890673 1669.00574376 1002.48903342 1706.85510289 1002.49914955 1744.70446201 C1002.50829014 1778.90302498 1002.51745828 1813.10158794 1002.52671719 1847.30015087 C1002.52702134 1848.42361276 1002.52732549 1849.54707466 1002.52763887 1850.70458085 C1002.54669664 1921.07211663 1002.56694749 1991.43965199 1002.58840275 2061.80718708 C1002.588734 2062.89413071 1002.58906526 2063.98107434 1002.58940655 2065.10095565 C1002.60395604 2112.83900368 1002.61875421 2160.57705163 1002.63383666 2208.3150995 C1002.63990349 2227.52108494 1002.64593349 2246.72707039 1002.65194332 2265.93305585 C1002.65294009 2269.11752683 1002.65393806 2272.30199781 1002.65493616 2275.48646878 C1002.67019278 2324.19064322 1002.68462854 2372.89481772 1002.69667697 2421.59899306 C1002.69693676 2422.64913056 1002.69719656 2423.69926807 1002.69746423 2424.78122792 C1002.7016383 2441.67391039 1002.70574383 2458.56659287 1002.70983754 2475.45927536 C1002.72146182 2523.42677257 1002.73354954 2571.39426941 1002.74915612 2619.3617655 C1002.74947269 2620.33548428 1002.74978927 2621.30920306 1002.75011544 2622.31242847 C1002.75703273 2643.55826022 1002.76422053 2664.80409187 1002.77167287 2686.04992344 C1002.77464095 2694.52404627 1002.77757199 2702.9981691 1002.78049088 2711.47229195 C1002.78081024 2712.39666756 1002.7811296 2713.32104318 1002.78145864 2714.27343017 C1002.79156228 2743.56938143 1002.79861857 2772.86533235 1002.80390343 2802.16128484 C1002.80912193 2831.02094914 1002.81735445 2859.8806108 1002.82994437 2888.74027288 C1002.83167077 2892.69883374 1002.83336248 2896.65739462 1002.8350333 2900.61595551 C1002.8353617 2901.39088052 1002.8356901 2902.16580552 1002.83602845 2902.9642131 C1002.84110235 2915.14975 1002.84288109 2927.33528498 1002.84322461 2939.52082284 C1002.84362915 2951.4631317 1002.84758818 2963.40543507 1002.85527216 2975.34774151 C1002.85921326 2981.69721506 1002.86164559 2988.04667854 1002.8596265 2994.39615323 C1002.77621812 3026.32393758 1002.77621812 3026.32393758 1003.6889165 3058.23415562 C1004.00712821 3065.197074 1003.91723547 3072.06820661 1003.57238865 3079.0294714 C1003.51889763 3080.15777412 1003.46540662 3081.28607683 1003.41029466 3082.44857054 C1003.36338203 3083.36064475 1003.31646941 3084.27271896 1003.26813519 3085.21243179 C1002.91572892 3093.09588683 1002.87927936 3100.97667951 1002.8613348 3108.86633396 C1002.85861525 3110.00873236 1002.85861525 3110.00873236 1002.85584075 3111.17420952 C1002.84580942 3116.08627616 1002.84349319 3120.99832882 1002.84279228 3125.91040438 C1002.84104444 3130.43806671 1002.83355907 3134.96572049 1002.82684326 3139.49337769 C1002.81586903 3147.41218922 1002.80846676 3155.33099764 1002.80346954 3163.24981511 C1002.79592275 3175.17745755 1002.78264014 3187.10508923 1002.76832329 3199.03272522 C1002.74447603 3219.02722052 1002.72501444 3239.02171768 1002.70826721 3259.01622009 C1002.68560858 3286.05146893 1002.6568503 3313.08670554 1002.6270752 3340.12194824 C1002.55858321 3405.10212679 1002.49855884 3470.08231404 1002.4375 3535.0625 C1002.293125 3680.241875 1002.14875 3825.42125 1002 3975 C671.34 3975 340.68 3975 0 3975 C0 2663.25 0 1351.5 0 0 Z M4 4 C4 1010.83 4 2017.66 4 3055 C4.33 3055 4.66 3055 5 3055 C5.12004395 3054.0519751 5.24008789 3053.1039502 5.36376953 3052.12719727 C8.23298808 3029.61223279 11.56049698 3007.26344217 16 2985 C16.14505981 2984.26998779 16.29011963 2983.53997559 16.4395752 2982.7878418 C20.13816231 2964.24352296 24.27770681 2945.81014044 28.75 2927.4375 C28.91756931 2926.74872709 29.08513863 2926.05995419 29.2577858 2925.35030937 C30.77566306 2919.11583306 32.29625204 2912.88203461 33.84564209 2906.65530396 C44.59357607 2863.45982386 53.33240402 2819.84455129 61.80065918 2776.15393066 C73.34125251 2716.64541127 85.59436516 2657.3970818 99.37428284 2598.36817932 C99.78692401 2596.60035397 100.19919436 2594.83244202 100.61106873 2593.06443787 C108.31927841 2559.98042862 108.31927841 2559.98042862 112.8359375 2543.65625 C113.10486816 2542.67673874 113.37379883 2541.69722748 113.65087891 2540.68803406 C117.39706578 2527.5105199 123.24523932 2517.72524551 133 2508 C135.14338655 2505.63782852 137.2302333 2503.22857922 139.3125 2500.8125 C140.17887085 2499.80968994 140.17887085 2499.80968994 141.06274414 2498.78662109 C144.73215926 2494.52115102 148.30447702 2490.1955629 151.7890625 2485.77734375 C154.7576691 2482.04822839 157.78302883 2478.36724259 160.8125 2474.6875 C161.41143066 2473.95917969 162.01036133 2473.23085937 162.62744141 2472.48046875 C165.49470374 2469.00293667 168.37822886 2465.54234784 171.3125 2462.12109375 C171.82063232 2461.5278833 172.32876465 2460.93467285 172.85229492 2460.32348633 C173.80142444 2459.21947461 174.75450804 2458.11884567 175.7121582 2457.0222168 C177.74049491 2454.6648138 179.00371476 2452.98885573 180 2450 C178.76653084 2447.20272226 177.46182789 2444.52536366 176.0625 2441.8125 C172.24712235 2434.11911092 169.18861079 2426.3418925 166.5 2418.1875 C166.16234619 2417.16825439 165.82469238 2416.14900879 165.47680664 2415.09887695 C160.3072367 2399.07494533 159.76084359 2382.39556539 167.47265625 2367.07421875 C177.4357612 2350.04508192 195.84557625 2341.22229276 213 2333 C214.33439186 2332.3354546 215.66797907 2331.66928503 217 2331 C217.88811251 2308.97836164 218.13170394 2286.99615849 218.06866455 2264.95849609 C218.05817256 2260.88053945 218.05381338 2256.8025758 218.04882812 2252.72460938 C218.03831164 2244.81638818 218.02139882 2236.90819924 218 2229 C216.96649414 2228.66009033 215.93298828 2228.32018066 214.86816406 2227.9699707 C213.50061942 2227.51783652 212.13310815 2227.06560138 210.765625 2226.61328125 C210.08580566 2226.38999146 209.40598633 2226.16670166 208.70556641 2225.93664551 C199.15204756 2222.77051882 191.96191469 2218.155038 184 2212 C183.27425781 2211.443125 182.54851562 2210.88625 181.80078125 2210.3125 C168.986223 2199.83930505 160.1897212 2182.83273589 156 2167 C155.77570313 2166.15695313 155.55140625 2165.31390625 155.3203125 2164.4453125 C150.97699243 2144.87062342 154.53534355 2124.98943228 165 2108 C175.93716965 2092.50930753 193.22574094 2085.34833665 211.375 2082.1875 C213.91424136 2081.77046835 216.45468059 2081.37902456 219 2081 C219.39744325 2075.8758209 219.64501688 2070.75634031 219.84033203 2065.62060547 C219.95939785 2062.92068789 220.10473762 2060.22860044 220.27294922 2057.53173828 C220.52850813 2053.35428227 220.70188482 2049.17843205 220.83642578 2044.99542236 C220.90339256 2043.30066957 220.99538798 2041.60670693 221.11328125 2039.91473389 C221.99614026 2030.65687692 221.99614026 2030.65687692 218.7043457 2022.34506226 C215.38974173 2019.31716374 211.61954839 2017.14082916 207.70059204 2014.9883728 C204.05763989 2012.8711132 201.13327563 2009.85254218 198.125 2006.9375 C197.18406494 2006.03837891 197.18406494 2006.03837891 196.22412109 2005.12109375 C180.55857531 1990.02098834 167.93183989 1972.53141061 167 1950 C167.26816783 1940.85348248 168.87911226 1932.22726531 173 1924 C173.32484375 1923.27941406 173.6496875 1922.55882812 173.984375 1921.81640625 C183.24674209 1902.98963835 202.55864732 1892.90343686 221 1885 C221 1871.47 221 1857.94 221 1844 C215.72 1841.36 210.44 1838.72 205 1836 C201.84354591 1834.05157155 198.93205422 1832.21125756 196 1830 C195.401875 1829.55398438 194.80375 1829.10796875 194.1875 1828.6484375 C180.35711255 1817.5964761 171.92430362 1800.22351604 169.3125 1782.9375 C167.67082982 1762.25245575 172.9094554 1744.54822581 186.09765625 1728.4375 C196.46026125 1716.44831326 208.98722811 1708.98590638 223 1702 C223.38237061 1695.06414973 223.64376646 1688.13103243 223.82397461 1681.18701172 C223.8991205 1678.82920848 224.00128269 1676.47209782 224.1315918 1674.11669922 C225.35667187 1661.53304042 225.35667187 1661.53304042 221.57296753 1649.98449707 C218.101098 1646.73780375 214.19748046 1644.74771024 209.86051941 1642.88725281 C193.15717163 1634.9216857 179.66969608 1615.6742402 173 1599 C167.04364725 1582.12926002 167.39945051 1564.45865604 174.66015625 1548.04296875 C182.78680682 1531.19875569 196.32058931 1518.59333386 211.62890625 1508.23828125 C212.14864014 1507.86799805 212.66837402 1507.49771484 213.20385742 1507.11621094 C215 1506 215 1506 217.3684082 1505.09472656 C220.408002 1503.71251888 221.96235401 1502.67819512 224 1500 C225.68989453 1493.59426374 225.16645153 1486.68962653 225.0625 1480.125 C225.06557624 1478.27342621 225.07269449 1476.42185443 225.08398438 1474.5703125 C225.10278386 1470.04555934 225.06624446 1465.52427492 225 1461 C223.91098389 1460.46093018 222.82196777 1459.92186035 221.69995117 1459.36645508 C220.25173992 1458.64674864 218.80358193 1457.92693501 217.35546875 1457.20703125 C216.63999878 1456.85322388 215.92452881 1456.4994165 215.18737793 1456.1348877 C190.71853415 1443.95300412 173.18164381 1425.58138008 163 1400 C156.86596904 1381.50206289 156.98375117 1361.38959133 165.625 1343.75 C174.56793984 1326.48809456 188.77252327 1314.63719458 207.07324219 1308.27978516 C213.61783329 1306.24574 220.20363097 1304.89175288 227 1304 C227.13986328 1303.30777344 227.27972656 1302.61554688 227.42382812 1301.90234375 C239.63215663 1242.31313901 267.86693468 1190.38756486 319 1156 C350.33077092 1135.89529628 386.22565909 1124.70207925 423 1120 C423.67595215 1119.91081299 424.3519043 1119.82162598 425.04833984 1119.72973633 C493.55438428 1111.34108094 567.83008322 1128.34545825 623.328125 1169.8828125 C646.1915316 1187.99972241 664.46051124 1209.14655156 678 1235 C678.59425781 1236.12148437 679.18851563 1237.24296875 679.80078125 1238.3984375 C703.21610032 1285.44438891 704.83801442 1340.51129413 708 1392 C709.12535156 1392.4125 710.25070312 1392.825 711.41015625 1393.25 C738.21859118 1403.25064794 758.02679175 1416.63341846 770.375 1443.19140625 C777.93363069 1460.33085786 778.36597166 1480.44871706 772 1498 C765.10276552 1515.60326592 753.69368235 1527.36063886 736.77734375 1535.5625 C730.82391871 1538.04124946 724.90560108 1539.51393776 718.5859375 1540.6328125 C717.85270264 1540.76631104 717.11946777 1540.89980957 716.36401367 1541.03735352 C714.57672205 1541.36218321 712.78845784 1541.68165397 711 1542 C710.24461321 1563.01019962 709.85040035 1583.9754959 710 1605 C710.54301758 1605.20044922 711.08603516 1605.40089844 711.64550781 1605.60742188 C722.61023994 1609.7000557 732.73693579 1613.70098399 742 1621 C742.86753906 1621.67546875 743.73507812 1622.3509375 744.62890625 1623.046875 C757.81992935 1634.08302868 767.68042488 1650.88529707 770 1668 C770.30996109 1672.08559572 770.41068595 1676.15344444 770.4375 1680.25 C770.4475708 1681.24338379 770.4576416 1682.23676758 770.46801758 1683.26025391 C770.26252968 1700.827283 762.30103782 1716.99866333 750.41015625 1729.68359375 C738.63323292 1741.00241958 724.554812 1745.42505529 709 1750 C709 1763.2 709 1776.4 709 1790 C712.155625 1791.44375 715.31125 1792.8875 718.5625 1794.375 C739.89054958 1804.41629596 760.28340046 1818.20164867 769.03515625 1841.09765625 C774.33419241 1857.0376719 772.70351845 1873.23660744 765.3125 1888.25 C761.93120618 1894.80910189 758.00748605 1900.55292548 753 1906 C752.32453125 1906.75539063 751.6490625 1907.51078125 750.953125 1908.2890625 C738.69932215 1921.30313779 723.34909845 1928.46036062 707 1935 C707 1946.88 707 1958.76 707 1971 C711.95 1972.98 716.9 1974.96 722 1977 C744.46025914 1988.05154005 758.39542811 2004.68357006 767 2028 C768.04197302 2031.34199643 768.63447108 2034.52225344 769 2038 C769.13148438 2039.12664062 769.26296875 2040.25328125 769.3984375 2041.4140625 C771.36246641 2062.49463943 765.99396489 2083.9377797 752.75 2100.6875 C750.99143537 2102.78019192 749.24872923 2104.76415539 747.265625 2106.64453125 C745.77251056 2107.93455811 745.77251056 2107.93455811 746 2110 C745.42765625 2110.25523437 744.8553125 2110.51046875 744.265625 2110.7734375 C741.75695997 2112.13157685 739.89333151 2113.7439643 737.75 2115.625 C731.65925527 2120.60092092 724.90665321 2123.80762944 717.83398438 2127.13134766 C715.20124471 2128.37832419 712.60058907 2129.68759092 710 2131 C707.77324264 2145.49710949 707.77324264 2145.49710949 711.34472656 2159.05175781 C714.98037554 2162.31705205 719.35727346 2164.1526812 723.828125 2166.02099609 C727.22079794 2167.55029224 730.13529736 2169.61587879 733.125 2171.8125 C733.6907373 2172.22145508 734.25647461 2172.63041016 734.83935547 2173.05175781 C753.96895977 2187.15528048 769.39523557 2205.82759225 773.69091797 2229.78027344 C776.85534445 2252.50615462 769.53672725 2273.97105887 756.28613281 2292.31640625 C752.26264488 2297.58329554 747.69234498 2302.33146647 743 2307 C742.51128418 2307.49129395 742.02256836 2307.98258789 741.51904297 2308.48876953 C734.91932111 2315.05318696 727.96200885 2320.2935918 720.03125 2325.125 C719.0309375 2325.74375 718.030625 2326.3625 717 2327 C716.27669998 2327.43432846 715.55339996 2327.86865692 714.80818176 2328.31614685 C712.79110153 2329.8380172 712.79110153 2329.8380172 712.70878601 2332.14686584 C712.81737442 2333.02789474 712.92596283 2333.90892365 713.0378418 2334.81665039 C713.16677826 2335.89375275 713.29571472 2336.9708551 713.42855835 2338.08059692 C713.61713409 2339.37399994 713.80570984 2340.66740295 714 2342 C714.10787968 2342.75265514 714.21575935 2343.50531029 714.32690811 2344.28077316 C716.06712989 2356.30051743 718.09204427 2368.27803155 720.1099596 2380.25370693 C721.06292896 2385.91031663 721.99707242 2391.5686119 722.88647461 2397.2355957 C723.75314345 2402.75540141 724.66688595 2408.26553288 725.61331749 2413.77220345 C725.96326797 2415.85484913 726.29707583 2417.94028151 726.61347389 2420.02828789 C728.78446657 2434.24779152 732.10958283 2442.49051145 743 2452 C744.30064093 2453.35922053 745.58864761 2454.73103483 746.84765625 2456.12890625 C747.91902179 2457.27367063 748.9906308 2458.4182072 750.0625 2459.5625 C755.12946999 2464.98103289 760.15491581 2470.43452611 765.16015625 2475.91015625 C768.39646486 2479.44057029 771.66691873 2482.9388627 774.9375 2486.4375 C776.13024802 2487.71480669 777.32295658 2488.99215024 778.515625 2490.26953125 C780.2143255 2492.0888301 781.91349537 2493.90766389 783.61523438 2495.72412109 C792.51370954 2505.22829548 801.04734604 2514.97070448 809.125 2525.1875 C814.03864119 2531.37431138 819.32860193 2537.20708039 824.78125 2542.921875 C832.8766861 2551.45522999 840.00647213 2560.54999846 847 2570 C847.76441406 2571.02480469 848.52882813 2572.04960937 849.31640625 2573.10546875 C857.2008004 2583.79800328 864.35394464 2594.96320682 871.25 2606.3125 C871.61584198 2606.91372681 871.98168396 2607.51495361 872.35861206 2608.13439941 C879.44884777 2619.8191294 885.87581045 2631.7805883 892 2644 C892.71918996 2645.41450117 893.43917785 2646.82859707 894.16015625 2648.2421875 C895.79754948 2651.46611827 897.40579195 2654.70328088 898.99609375 2657.95068359 C899.68841042 2659.36393897 900.38391879 2660.77563376 901.08203125 2662.18603516 C914.64294277 2689.65154109 925.84778882 2718.06976479 936.22650146 2746.86242676 C936.98067065 2748.94658308 937.74199807 2751.02795643 938.50634766 2753.10839844 C966.38316511 2829.02051745 986.27822626 2908.83730752 997 2989 C997.33 2989 997.66 2989 998 2989 C998 2003.95 998 1018.9 998 4 C669.98 4 341.96 4 4 4 Z M300.5625 1209.83984375 C291.04620754 1221.3764602 282.80251395 1233.68885059 276 1247 C275.61859863 1247.74362793 275.23719727 1248.48725586 274.84423828 1249.25341797 C261.807683 1274.97709508 255.74769887 1301.28241562 254 1330 C253.26475098 1330.08040527 252.52950195 1330.16081055 251.77197266 1330.24365234 C248.38912961 1330.61621683 245.00707904 1330.99556503 241.625 1331.375 C240.46871094 1331.50132812 239.31242187 1331.62765625 238.12109375 1331.7578125 C220.10382234 1333.79366238 206.8678739 1337.85201595 194.375 1351.81640625 C187.61612073 1360.48627816 187.03418727 1370.3218008 188 1381 C191.52499739 1398.68473264 202.21170431 1413.86420183 217 1424 C228.65962317 1431.58441507 240.07060397 1436.2588255 254 1438 C254 1464.73 254 1491.46 254 1519 C252.35 1519.33 250.7 1519.66 249 1520 C246.84978113 1520.95591532 246.84978113 1520.95591532 244.77734375 1522.1875 C243.99713867 1522.63456299 243.21693359 1523.08162598 242.41308594 1523.54223633 C241.59614258 1524.02329834 240.77919922 1524.50436035 239.9375 1525 C239.09348633 1525.49330811 238.24947266 1525.98661621 237.37988281 1526.49487305 C230.53193326 1530.55928942 224.19510051 1534.98633693 218 1540 C217.34 1540.49628906 216.68 1540.99257812 216 1541.50390625 C207.43099805 1548.21756626 199.74374446 1559.15003446 198 1570 C196.78898152 1583.85722791 201.47920981 1593.78961235 209.9296875 1604.4296875 C220.14402045 1616.43994713 237.29947268 1630.31900535 253 1634 C252.98120789 1635.23003754 252.98120789 1635.23003754 252.96203613 1636.48492432 C252.84279491 1644.30766249 252.72503868 1652.13042107 252.60884857 1659.95320511 C252.54910033 1663.97255926 252.48882712 1667.99190395 252.42724609 1672.01123047 C252.03568295 1697.50430173 252.03568295 1697.50430173 252 1723 C251.10513885 1723.18502075 251.10513885 1723.18502075 250.19219971 1723.3737793 C244.29426386 1724.63113585 239.18677683 1726.39257195 233.75 1729 C232.51382935 1729.59276733 232.51382935 1729.59276733 231.25268555 1730.19750977 C216.49077178 1737.52311127 204.40097551 1747.67456356 198.84375 1763.6328125 C196.03536071 1774.84036606 198.14032359 1785.19449618 203.6875 1795.125 C210.02606295 1805.0611257 218.8063587 1812.35592077 230.1875 1815.75 C237.05213107 1817.22626475 244.04001882 1818.07200251 251 1819 C251 1848.04 251 1877.08 251 1907 C248.69 1907.33 246.38 1907.66 244 1908 C227.91460737 1912.08255871 209.27204764 1919.98535294 200 1934.3125 C195.84181748 1941.43049994 195.65747943 1950.75266244 197.68359375 1958.671875 C198.64103923 1960.9125358 199.72220298 1962.92606776 201 1965 C201.42410156 1965.72316406 201.84820312 1966.44632813 202.28515625 1967.19140625 C207.56680343 1975.650869 214.35746661 1982.80422471 221.875 1989.3125 C222.37453029 1989.74752492 222.87406057 1990.18254984 223.38872814 1990.63075733 C226.69039403 1993.38623988 229.95446974 1995.58671741 233.77912903 1997.56242371 C246.41008744 2004.36248905 246.41008744 2004.36248905 249.07839584 2010.46722794 C250.73822903 2017.49372766 250.33038922 2024.63792725 250.07421875 2031.80078125 C250.06119746 2034.0914545 250.05659919 2036.38218963 250.06001282 2038.67289734 C250.04656206 2044.66505091 249.91973621 2050.64948701 249.76818848 2056.63952637 C249.63359443 2062.76630455 249.60767729 2068.89347236 249.57226562 2075.02148438 C249.48710034 2087.01714557 249.28199319 2099.0074629 249 2111 C248.32901779 2110.93016907 247.65803558 2110.86033813 246.96672058 2110.78839111 C246.07817886 2110.6974115 245.18963715 2110.60643188 244.27416992 2110.51269531 C243.39693771 2110.42223938 242.51970551 2110.33178345 241.6158905 2110.23858643 C225.3092106 2108.75130993 207.22128822 2109.29656267 193.7890625 2119.71484375 C187.27321388 2125.63724148 183.26255424 2132.38676486 182.55859375 2141.25 C181.89651947 2156.77970712 186.18933963 2172.17487021 196.58203125 2184.0859375 C201.71954787 2189.60640286 207.08610153 2193.96316612 214 2197 C215.2375 2197.56654297 215.2375 2197.56654297 216.5 2198.14453125 C224.54427218 2201.61484989 231.61228407 2202.04059894 240.2734375 2202.015625 C241.01682373 2202.01449707 241.76020996 2202.01336914 242.52612305 2202.01220703 C244.35075088 2202.0092759 246.17537611 2202.00479253 248 2202 C247.98120789 2203.4505201 247.98120789 2203.4505201 247.96203613 2204.93034363 C247.80180198 2217.34932035 247.64849508 2229.76837747 247.5 2242.1875 C247.48218412 2243.67697144 247.48218412 2243.67697144 247.46400833 2245.1965332 C247.04460331 2280.4664684 246.86229552 2315.72766835 247 2351 C246.33998489 2351.19104813 245.67996979 2351.38209625 244.99995422 2351.57893372 C240.44994882 2352.91596074 236.00359649 2354.25722345 231.66796875 2356.19921875 C230.32617554 2356.80008301 230.32617554 2356.80008301 228.95727539 2357.41308594 C228.04324951 2357.83364258 227.12922363 2358.25419922 226.1875 2358.6875 C225.2277124 2359.12739258 224.2679248 2359.56728516 223.27905273 2360.02050781 C204.89300694 2368.22119436 204.89300694 2368.22119436 191.671875 2382.6640625 C185.44621557 2404.30908773 201.61231363 2429.28583729 211 2448 C211.83217041 2449.36125 211.83217041 2449.36125 212.68115234 2450.75 C214 2453 214 2453 213.9921875 2454.9453125 C212.52033235 2457.9933275 210.35630212 2460.3674884 208.125 2462.875 C204.13427079 2467.46632971 200.2813339 2472.12329554 196.5625 2476.9375 C192.14000231 2482.65428904 187.50551215 2488.15294434 182.70727539 2493.55834961 C179.91351153 2496.36248264 179.91351153 2496.36248264 179 2500 C210.9999135 2500.18400984 242.99992034 2500.34771907 275 2500.5 C276.24603217 2500.50594854 277.49206434 2500.51189708 278.77585506 2500.51802588 C366.17280584 2500.93400373 453.56873535 2501.07028438 592.74788094 2501.06315851 C595.63409042 2501.06249792 598.52029991 2501.06185521 601.4065094 2501.06121445 C650.60434435 2501.05017124 699.802173 2501.03002906 749 2501 C748.03882586 2499.8758472 747.07725845 2498.75203066 746.11552429 2497.62835693 C745.58009349 2497.00249569 745.04466269 2496.37663445 744.49300671 2495.73180771 C741.69284196 2492.48376678 738.7524865 2489.37104573 735.8125 2486.25 C735.13413086 2485.52844727 734.45576172 2484.80689453 733.75683594 2484.06347656 C727.40563505 2477.35033479 720.87976897 2470.81772588 714.29614258 2464.33300781 C712.17900398 2462.23934578 710.08654487 2460.12406571 708 2458 C706.79537109 2456.81083984 706.79537109 2456.81083984 705.56640625 2455.59765625 C703.11861741 2451.53835556 702.79596526 2447.33836945 702.1875 2442.6875 C701.8576192 2440.42136973 701.52402364 2438.15577833 701.1875 2435.890625 C701.00316406 2434.63701172 700.81882812 2433.38339844 700.62890625 2432.09179688 C699.46033932 2424.35004097 698.05200152 2416.6465581 696.6875 2408.9375 C696.38417939 2407.21658433 696.08103983 2405.49563675 695.77807617 2403.7746582 C695.31555496 2401.1475457 694.85287649 2398.5204619 694.38945007 2395.89350891 C693.33026845 2389.88755001 692.28128833 2383.87988111 691.23828125 2377.87109375 C688.27228451 2360.79660843 685.25192404 2343.73331819 682.125 2326.6875 C681.89792358 2325.44428986 681.89792358 2325.44428986 681.66625977 2324.17596436 C681.2408547 2321.84993102 680.81239674 2319.52448343 680.3828125 2317.19921875 C680.25709869 2316.51060257 680.13138489 2315.82198639 680.00186157 2315.11250305 C679.48261888 2312.32101294 678.89961 2309.69882999 678 2307 C679.051875 2307.03480469 679.051875 2307.03480469 680.125 2307.0703125 C697.06451214 2307.39253148 707.85529156 2300.0664953 720 2289 C721.24330078 2287.88238281 721.24330078 2287.88238281 722.51171875 2286.7421875 C734.5809815 2275.32588661 744.04815002 2260.41952427 745.23828125 2243.640625 C745.52198867 2230.67967557 741.90735395 2222.119323 734 2212 C733.53851562 2211.38511719 733.07703125 2210.77023437 732.6015625 2210.13671875 C719.96082849 2194.24446646 699.27079285 2185.04660578 682 2176 C681.505 2141.845 681.505 2141.845 681 2107 C683.64 2106.67 686.28 2106.34 689 2106 C705.67393731 2102.51448768 721.91071146 2094.64445357 731.83984375 2080.3515625 C739.77041497 2067.57546257 743.20108622 2054.5133741 740.33984375 2039.546875 C736.27085935 2024.6801095 727.11024701 2013.5470789 714.03125 2005.66015625 C703.14309415 1999.69692657 689.67340466 1994 677 1994 C677.03029297 1992.77522949 677.06058594 1991.55045898 677.09179688 1990.28857422 C677.75363351 1963.187238 678.1568695 1936.10946365 678 1909 C678.94101562 1908.94086426 679.88203125 1908.88172852 680.8515625 1908.82080078 C682.09679687 1908.73813965 683.34203125 1908.65547852 684.625 1908.5703125 C685.85476563 1908.49055176 687.08453125 1908.41079102 688.3515625 1908.32861328 C707.15155783 1906.63530535 722.77796999 1896.66060865 735.01953125 1882.6640625 C741.43625003 1874.03249996 744.10690479 1864.63930844 743 1854 C738.88474937 1840.32933815 726.9736452 1831.55245974 715 1825 C706.62404447 1820.59086162 697.96892443 1816.86174341 689.125 1813.5 C688.45291504 1813.24452393 687.78083008 1812.98904785 687.08837891 1812.72583008 C684.24296866 1811.68182799 682.0572523 1811 679 1811 C679 1781.63 679 1752.26 679 1722 C684.61 1722 690.22 1722 696 1722 C710.23320935 1720.47377446 723.19934268 1716.75646908 732.9765625 1705.78125 C739.70645693 1696.96079262 743.39147957 1686.11465777 742 1675 C740.06092166 1662.96489396 734.57491727 1652.50773675 725.16015625 1644.62109375 C712.02415941 1635.3612927 696.23341768 1629.78633383 680 1630 C680.03029297 1629.19675293 680.06058594 1628.39350586 680.09179688 1627.56591797 C681.0280062 1601.21162542 681.08779853 1574.86739158 681.0625 1548.5 C681.06164398 1547.60153099 681.06078796 1546.70306198 681.05990601 1545.77736664 C681.04839317 1534.51822463 681.02814395 1523.25911248 681 1512 C681.58977631 1512.0690152 682.17955261 1512.1380304 682.78720093 1512.20913696 C699.53305011 1514.12732858 716.99558312 1515.25235202 731.5 1505.1875 C738.87710022 1498.91696481 744.88228093 1491.60847576 747 1482 C747.62229108 1471.7066935 747.80458904 1462.38396297 743 1453 C742.5875 1452.16339844 742.175 1451.32679688 741.75 1450.46484375 C733.37279674 1435.06697299 718.90013409 1426.45387153 702.7421875 1421.03125 C695.14541296 1418.9377756 686.90402577 1417 679 1417 C679.00870117 1415.99324219 679.01740234 1414.98648437 679.02636719 1413.94921875 C679.09166272 1402.94642506 678.78953146 1391.98888918 678.25 1381 C678.18664459 1379.69621399 678.18664459 1379.69621399 678.12200928 1378.36608887 C676.80886332 1351.99687589 675.45405573 1324.90986211 669.48681641 1299.11767578 C668.99506736 1296.97854276 668.54715131 1294.83357007 668.10546875 1292.68359375 C659.00608422 1249.71700752 633.80289695 1210.8086417 596.88085938 1186.65209961 C578.7867621 1175.13493816 559.99023247 1166.49962568 539.6875 1159.6875 C539.05573853 1159.47440186 538.42397705 1159.26130371 537.77307129 1159.04174805 C459.46231381 1132.78032895 357.28940225 1144.99576963 300.5625 1209.83984375 Z M145.68359375 2542.41015625 C137.37534115 2555.1906005 135.14126085 2572.01245995 131.78759766 2586.59277344 C131.12856188 2589.44382839 130.45381126 2592.28965275 129.76171875 2595.1328125 C126.52716687 2608.42335268 123.55233494 2621.77345667 120.56103516 2635.12036133 C120.38414658 2635.90954453 120.207258 2636.69872772 120.02500916 2637.51182556 C119.6525258 2639.17516587 119.28060739 2640.83863277 118.90919495 2642.50221252 C117.7560707 2647.65922318 116.58531371 2652.81179095 115.3996582 2657.96142578 C111.05988377 2676.87480304 107.13476751 2695.85034072 103.37921143 2714.88757324 C102.20399507 2720.84046548 101.02155634 2726.79193049 99.83949852 2732.74346733 C99.54883584 2734.20746651 99.25841021 2735.67151277 98.96822548 2737.13560677 C96.96138988 2747.25939141 94.89761936 2757.36955698 92.7890625 2767.47265625 C90.6688697 2777.64333217 88.67147893 2787.82541199 86.84255981 2798.05227661 C84.35058625 2811.95742526 81.71199805 2825.8189564 78.72607422 2839.62744141 C78.02590262 2842.87968432 77.33617201 2846.13396828 76.64865112 2849.38890076 C72.70865265 2868.02297425 68.48547037 2886.5357652 63.76416016 2904.98974609 C59.66549457 2921.13560764 56.06078296 2937.40458662 52.42796326 2953.66007996 C51.46856412 2957.94246188 50.48874608 2962.21963215 49.49475098 2966.49411011 C44.37512452 2988.5353816 40.29085526 3010.6131108 37 3033 C36.83129395 3034.13808105 36.66258789 3035.27616211 36.48876953 3036.44873047 C35.53986063 3042.95422109 34.72070631 3049.46551587 34 3056 C33.89703613 3056.88155762 33.79407227 3057.76311523 33.68798828 3058.67138672 C31.99623228 3073.61924029 31.79293903 3088.53618084 31.75 3103.5625 C31.74473297 3104.5043515 31.73946594 3105.446203 31.73403931 3106.41659546 C31.6833433 3118.13682291 32.2535444 3129.40622169 34 3141 C34.27670212 3143.1234431 34.55155097 3145.24712883 34.82421875 3147.37109375 C38.78677376 3175.96737777 47.39109581 3202.56108914 61 3228 C61.61359375 3229.15628906 62.2271875 3230.31257813 62.859375 3231.50390625 C70.47562246 3245.33589285 79.84712004 3257.93643046 90 3270 C90.65742187 3270.83015625 91.31484375 3271.6603125 91.9921875 3272.515625 C101.76516465 3284.83326412 112.91958826 3295.99306288 124 3307.125 C124.68126953 3307.81094238 125.36253906 3308.49688477 126.06445312 3309.20361328 C129.94880017 3313.07562003 133.94194313 3316.76009832 138.09375 3320.34326172 C140.95618276 3322.83102667 143.72590422 3325.41469685 146.5 3328 C154.88557656 3335.77033045 163.54818828 3343.18162289 172.28564453 3350.55175781 C173.97278317 3351.97700794 175.6568416 3353.4058063 177.33984375 3354.8359375 C183.24098392 3359.84784081 189.18259628 3364.79978767 195.1875 3369.6875 C198.31799851 3372.26146545 201.41165634 3374.87576903 204.5 3377.5 C210.27542544 3382.40545844 216.11992099 3387.22028665 222 3392 C228.44612089 3397.23982926 234.83625827 3402.53619547 241.16577148 3407.91577148 C244.5591538 3410.79520268 247.98249917 3413.63189727 251.4375 3416.4375 C256.29843701 3420.39276025 261.0540756 3424.45973471 265.79956055 3428.55175781 C269.40545946 3431.65426631 273.05194825 3434.69458523 276.75 3437.6875 C281.12507747 3441.23745321 285.30549192 3444.95563821 289.46875 3448.75 C292.0884481 3451.07862053 294.7751531 3453.29562947 297.5 3455.5 C301.0947765 3458.4081338 304.58260628 3461.38541332 308 3464.5 C312.24867536 3468.3672982 316.6337532 3472.01836568 321.1015625 3475.62890625 C323.62945913 3477.6968756 326.11427283 3479.80648705 328.58837891 3481.93823242 C335.82847089 3488.1602901 343.35671043 3493.93202708 351.05517578 3499.57421875 C352.30086396 3500.48745236 353.54425359 3501.40383468 354.78466797 3502.32421875 C387.3340242 3526.46924763 426.26698335 3547.10848157 467.7578125 3547.16796875 C468.58272186 3547.17129715 469.40763123 3547.17462555 470.25753784 3547.17805481 C471.99720711 3547.1830945 473.73688594 3547.18546405 475.4765625 3547.18530273 C478.09652269 3547.18747637 480.71605231 3547.20562827 483.3359375 3547.22460938 C541.45040746 3547.41953292 593.7323845 3508.05205807 640.35327148 3477.36376953 C643.1925765 3475.49666173 646.03666848 3473.63699763 648.88085938 3471.77734375 C658.66413826 3465.35510326 668.2339204 3458.7717386 677.51000977 3451.6340332 C681.15959381 3448.83998963 684.9385721 3446.25440619 688.75 3443.6875 C697.59072678 3437.68104069 706.09885711 3431.25550891 714.61621094 3424.80175781 C716.80326916 3423.1486966 718.99694582 3421.50516555 721.1953125 3419.8671875 C730.52570076 3412.91472845 739.73557269 3405.81617279 748.8984375 3398.64453125 C750.82642568 3397.13582674 752.75665605 3395.63004649 754.6875 3394.125 C762.94240483 3387.67850011 771.08474528 3381.09847406 779.19580078 3374.47216797 C780.78273046 3373.17728489 782.37348737 3371.88709522 783.96484375 3370.59765625 C796.81126954 3360.16583032 809.28757225 3349.27967935 821.5625 3338.18359375 C823.68597369 3336.28131524 825.8352601 3334.41736786 828 3332.5625 C832.07693795 3329.02308936 835.83833482 3325.1965386 839.60546875 3321.33203125 C841.95832536 3319.04058689 844.43760948 3317.04991242 847 3315 C849.47274073 3312.45353076 851.71767559 3309.71749377 854 3307 C854.64582031 3306.25363281 855.29164063 3305.50726562 855.95703125 3304.73828125 C874.02165823 3283.38917664 888.28881801 3258.69186652 903 3235 C903.64630371 3233.96166016 904.29260742 3232.92332031 904.95849609 3231.85351562 C955.61060388 3150.41633659 981.6550305 3090.42665315 963.39160156 2959.16830444 C962.99362572 2956.96470548 962.6047966 2954.75967346 962.21875 2952.55395508 C958.77955235 2932.91545947 954.88698446 2913.58462368 949.83642578 2894.28808594 C948.40858429 2888.67507681 947.14874764 2883.02458092 945.875 2877.375 C943.71149862 2867.85502608 941.30202541 2858.45031001 938.59130859 2849.07275391 C938.00733435 2847.0257096 937.44689643 2844.9737492 936.89453125 2842.91796875 C917.06060886 2769.31552237 890.38780179 2692.33538416 850.27148438 2627.08984375 C848.86807102 2624.78315821 847.50268863 2622.45632921 846.140625 2620.125 C833.98836783 2599.40646265 820.14686973 2579.93046576 803.50292969 2562.5703125 C802.51103406 2561.53394592 801.52456285 2560.49235685 800.54394531 2559.4453125 C792.81975626 2551.20338837 784.43028447 2544.23566896 775 2538 C774.26441469 2537.48989095 773.52882937 2536.97978189 772.7709536 2536.45421499 C769.55699365 2534.7675073 767.52375981 2534.60720059 763.91059208 2534.57264805 C762.68788219 2534.5538662 761.4651723 2534.53508435 760.2054106 2534.51573336 C758.86066096 2534.50998327 757.51590993 2534.5045507 756.17115784 2534.49940491 C754.7537053 2534.48334156 753.33626657 2534.46601726 751.91884363 2534.44752538 C748.07514023 2534.40122353 744.23150178 2534.37345276 740.38760392 2534.34924655 C736.30821871 2534.32059875 732.22900932 2534.27550888 728.14975071 2534.23288822 C718.89765587 2534.13997602 709.64547217 2534.074293 700.3931058 2534.01545316 C697.36960014 2533.99592928 694.34610702 2533.97477483 691.32261245 2533.95361363 C672.96580596 2533.82593641 654.6089737 2533.75399394 636.25181097 2533.70299431 C628.40606052 2533.68107483 620.56032682 2533.6545305 612.7145903 2533.62815888 C593.20297619 2533.5628594 573.69133919 2533.50663832 554.17969227 2533.45218229 C548.92202765 2533.43748999 543.66436384 2533.42252151 538.40670013 2533.40750504 C497.69756998 2533.29134804 456.98842299 2533.18447224 416.27924347 2533.08716452 C393.82428445 2533.03345963 371.36935655 2532.97342622 348.91443527 2532.90578377 C323.26463104 2532.82852578 297.61487147 2532.76365704 271.9649725 2532.72518253 C259.88845455 2532.70682058 247.81202769 2532.68243595 235.73556519 2532.64083862 C225.66410762 2532.60620066 215.59274089 2532.58485606 205.52122182 2532.58207285 C200.47757009 2532.58031262 195.43414626 2532.5722923 190.39055443 2532.54666901 C185.83681179 2532.52367506 181.28344201 2532.51898663 176.72965634 2532.5293113 C175.09320142 2532.52978227 173.45672755 2532.52348102 171.8203305 2532.50971019 C169.60462161 2532.49204314 167.39030025 2532.4990555 165.17459106 2532.51225281 C163.94829042 2532.50986445 162.72198978 2532.5074761 161.45852852 2532.50501537 C154.82258252 2533.45475201 149.85092295 2537.27756594 145.68359375 2542.41015625 Z M997 3123 C996.53851562 3124.21171875 996.07703125 3125.4234375 995.6015625 3126.671875 C988.38896509 3145.32306888 979.35353527 3162.66940705 969.421875 3180.00390625 C967.08775068 3184.07790452 964.78803325 3188.16860112 962.515625 3192.27734375 C955.55207187 3204.86269693 948.29400863 3217.18419131 940.64306641 3229.36230469 C938.36854618 3233.01370387 936.14600582 3236.69564191 933.92236328 3240.37817383 C918.66614265 3265.63273663 902.83794964 3290.72092202 885.4375 3314.5625 C884.89013184 3315.31772949 884.34276367 3316.07295898 883.77880859 3316.85107422 C880.71232079 3320.98947175 877.4679137 3324.66016676 873.76513672 3328.23730469 C871.93221479 3330.06769146 870.25510426 3331.97885538 868.57421875 3333.94921875 C864.90890768 3338.19256439 860.92370135 3342.00572768 856.8125 3345.8125 C855.69983765 3346.85071899 855.69983765 3346.85071899 854.56469727 3347.90991211 C852.38081685 3349.9446932 850.19151035 3351.97344204 848 3354 C847.39833008 3354.55751953 846.79666016 3355.11503906 846.17675781 3355.68945312 C833.51984427 3367.40580024 820.44341703 3378.61145179 807.06640625 3389.49609375 C804.71303941 3391.41776017 802.36757233 3393.34759522 800.02734375 3395.28515625 C791.72503197 3402.15626344 783.36977815 3408.94024954 774.86035156 3415.55322266 C772.85996027 3417.10890754 770.86344427 3418.66948255 768.8671875 3420.23046875 C752.19401329 3433.25353446 735.4178189 3446.11387557 718.20605469 3458.41894531 C715.95783378 3460.03022006 713.71622187 3461.65028651 711.4765625 3463.2734375 C710.33610474 3464.09968628 710.33610474 3464.09968628 709.17260742 3464.94262695 C707.77396495 3465.95627991 706.37563855 3466.97036928 704.9777832 3467.98510742 C691.53201591 3477.71270014 677.91785555 3487.16533697 664.09863281 3496.35449219 C661.63115059 3497.99590851 659.16700051 3499.64223864 656.703125 3501.2890625 C588.71898065 3546.6323487 520.06286874 3589.2387505 435.37207031 3572.47998047 C392.40984309 3563.39212938 356.13447364 3540.53458236 322.12939453 3513.67382812 C319.89623252 3511.91843272 317.64764922 3510.18398564 315.3984375 3508.44921875 C311.53903596 3505.45065182 307.80950663 3502.33462667 304.125 3499.125 C299.88280916 3495.45581465 295.61165532 3491.84012775 291.25 3488.3125 C286.87492253 3484.76254679 282.69450808 3481.04436179 278.53125 3477.25 C275.9115519 3474.92137947 273.2248469 3472.70437053 270.5 3470.5 C266.9052235 3467.5918662 263.41739372 3464.61458668 260 3461.5 C255.77986056 3457.65808061 251.41972816 3454.03884779 246.984375 3450.44921875 C243.61238107 3447.68188865 240.3034785 3444.84838234 237 3442 C232.06704136 3437.75211919 227.08679592 3433.57553217 222.03515625 3429.46875 C212.46067319 3421.68101089 202.93971956 3413.83025179 193.53613281 3405.83691406 C187.55149641 3400.7561875 181.46222718 3395.80568633 175.36328125 3390.86328125 C169.56144891 3386.14558693 163.85827904 3381.32813782 158.1965332 3376.44433594 C154.63651365 3373.38021282 151.03348211 3370.38431772 147.375 3367.4375 C142.32191856 3363.33698767 137.54690652 3358.98415243 132.77734375 3354.5625 C129.88366523 3351.89266441 126.93613472 3349.2972541 123.96484375 3346.71484375 C111.42324668 3335.76899661 99.28946785 3324.37440891 87.5 3312.625 C86.75878906 3311.88838135 86.01757812 3311.1517627 85.25390625 3310.39282227 C80.63151545 3305.75737091 76.25802546 3300.97056061 72 3296 C71.14277344 3295.02417969 70.28554687 3294.04835938 69.40234375 3293.04296875 C34.40229902 3252.49616575 13.74294686 3206.71536801 5 3154 C4.67 3154 4.34 3154 4 3154 C4 3423.61 4 3693.22 4 3971 C332.02 3971 660.04 3971 998 3971 C998 3691.16 998 3411.32 998 3123 C997.67 3123 997.34 3123 997 3123 Z " fill="#010101" transform="translate(0,0)"/>
<path d="M0 0 C330.66 0 661.32 0 1002 0 C1002 998.91 1002 1997.82 1002 3027 C1001.67 3027 1001.34 3027 1001 3027 C997.47531009 3001.45323191 997.57422205 2975.98983128 997.62548765 2950.24817312 C997.63477029 2943.88139067 997.62638064 2937.51462532 997.62036702 2931.14784229 C997.6116763 2919.96945115 997.61500221 2908.79110221 997.62535045 2897.61271353 C997.63643856 2885.56783849 997.64080668 2873.52298753 997.63730332 2861.47810762 C997.63708436 2860.71151455 997.6368654 2859.94492149 997.6366398 2859.15509833 C997.63549215 2855.24028699 997.63423935 2851.32547568 997.63295073 2847.41066438 C997.6237864 2818.88684552 997.62933447 2790.3630442 997.64238358 2761.83922768 C997.65555459 2732.94189941 997.66212728 2704.04458058 997.66067696 2675.14724922 C997.66063408 2674.23482833 997.66059121 2673.32240744 997.66054704 2672.38233743 C997.66015176 2664.02025468 997.65968342 2655.65817193 997.65912804 2647.29608919 C997.65773903 2626.33060385 997.65734112 2605.36511855 997.65760171 2584.39963317 C997.65761858 2582.95880038 997.65761858 2582.95880038 997.65763578 2581.48885986 C997.65827784 2534.17147181 997.67017691 2486.85408731 997.68280983 2439.5367012 C997.68724751 2422.88593692 997.69163161 2406.23517263 997.69581819 2389.58440828 C997.69607849 2388.54929684 997.69633879 2387.5141854 997.69660698 2386.44770694 C997.70860665 2338.46847807 997.71289457 2290.48924945 997.71521609 2242.51001925 C997.71536837 2239.37085151 997.71552427 2236.23168377 997.71568111 2233.09251604 C997.71662342 2214.16291029 997.71748553 2195.23330453 997.71825503 2176.30369877 C997.72017138 2129.24801009 997.72304965 2082.1923215 997.72658062 2035.13663292 C997.72666052 2034.06547191 997.72674042 2032.99431089 997.72682274 2031.89069045 C997.73200398 1962.53373751 997.74114456 1893.17678577 997.75360584 1823.81983376 C997.75380471 1822.71279339 997.75400358 1821.60575302 997.75420847 1820.46516598 C997.76027033 1786.76719419 997.76662555 1753.06922246 997.77303817 1719.37125073 C997.7801332 1682.08048798 997.78717818 1644.78972521 997.79400635 1607.4989624 C997.7943146 1605.81690405 997.7943146 1605.81690405 997.79462907 1604.10086471 C997.81413639 1497.56236885 997.82556424 1391.0238726 997.8349077 1284.48537541 C997.83530413 1279.9718384 997.8357029 1275.45830139 997.83610176 1270.94476439 C997.83977202 1229.4097013 997.84334751 1187.8746382 997.84680401 1146.33957509 C997.84694189 1144.68286869 997.84694189 1144.68286869 997.84708256 1142.99269347 C997.84736085 1139.64865224 997.8476391 1136.30461101 997.84791735 1132.96056979 C997.85543456 1042.62363514 997.86377816 952.28670056 997.87265726 861.94976604 C997.87297032 858.76252309 997.87328274 855.57528013 997.87359498 852.38803718 C997.88374244 748.83127346 997.89535243 645.27451005 997.92260839 462.42445043 C997.9230431 459.60498449 997.92347701 456.78551856 997.92391061 453.96605263 C997.92405258 453.04314213 997.92419456 452.12023164 997.92434084 451.16935417 C997.92459922 449.4896475 997.92485749 447.80994084 997.9251156 446.13023418 C997.94779575 298.75348908 997.97441872 151.37674461 998 4 C669.98 4 341.96 4 4 4 C4.00523682 96.70881104 4.01047363 189.41762207 4.01586914 284.93579102 C4.02238281 405.30187248 4.02238281 405.30187248 4.02508167 459.2661108 C4.02517548 461.14009342 4.02526931 463.01407603 4.02536313 464.88805865 C4.02541016 465.82774508 4.0254572 466.76743151 4.02550566 467.73559329 C4.0256523 470.66354206 4.02579923 473.59149083 4.02594624 476.51943959 C4.03122418 581.65625947 4.03592058 686.79307936 4.042239 876.1524731 C4.04234323 879.41849359 4.04244766 882.68451409 4.04255217 885.95053458 C4.04551302 978.49462947 4.04827986 1071.03872436 4.05078693 1163.58281926 C4.05087972 1167.00798416 4.05097252 1170.43314905 4.05106533 1173.85831395 C4.05111131 1175.5552217 4.05111131 1175.5552217 4.05115821 1177.28641042 C4.05231125 1219.82391258 4.05350862 1262.36141474 4.05473244 1304.8989169 C4.05486537 1309.52070203 4.05499779 1314.14248716 4.05512976 1318.76427229 C4.05824537 1427.86937823 4.06215822 1536.97448405 4.06866455 1646.07958984 C4.0687672 1647.80237971 4.0687672 1647.80237971 4.06887193 1649.55997341 C4.07114897 1687.75400557 4.07350337 1725.94803772 4.07586844 1764.14206987 C4.07800513 1798.65178143 4.08011405 1833.161493 4.08213139 1867.67120457 C4.08223081 1869.37168066 4.08223081 1869.37168066 4.08233224 1871.1065098 C4.08647548 1942.09490909 4.08941572 2013.08330834 4.09113979 2084.07170773 C4.09116658 2085.16797728 4.09119336 2086.26424684 4.09122096 2087.39373669 C4.09239624 2135.53761584 4.09332058 2183.68149498 4.0939579 2231.82537413 C4.09421545 2251.19352427 4.09451018 2270.56167441 4.09482527 2289.92982455 C4.09487721 2293.14122827 4.09492794 2296.35263199 4.09497854 2299.56403571 C4.09576135 2348.69945088 4.09737451 2397.83486586 4.10139394 2446.97028089 C4.10148064 2448.03029456 4.10156734 2449.09030823 4.10165666 2450.18244352 C4.10305647 2467.23478166 4.1045254 2484.28711979 4.10600626 2501.33945793 C4.11020944 2549.740254 4.11394827 2598.14104987 4.11413276 2646.54184616 C4.11413674 2647.52363435 4.11414071 2648.50542255 4.11414481 2649.51696191 C4.1142216 2670.93486098 4.11402538 2692.35276005 4.1135619 2713.77065912 C4.11338146 2722.31236054 4.11323844 2730.85406197 4.11310768 2739.3957634 C4.11309245 2740.32752885 4.11307721 2741.25929431 4.11306151 2742.21929508 C4.11259601 2771.78740096 4.11521311 2801.35550549 4.11960873 2830.92361102 C4.12392368 2860.03254057 4.12521634 2889.14146846 4.12209016 2918.25039823 C4.12166264 2922.23588049 4.12127022 2926.22136276 4.12089889 2930.20684504 C4.12082487 2930.98709291 4.12075084 2931.76734078 4.12067457 2932.57123253 C4.1195981 2944.88022481 4.12186414 2957.18921407 4.12555815 2969.49820574 C4.12910328 2981.53756772 4.12910692 2993.57692532 4.12530107 3005.61628727 C4.12342166 3012.0271921 4.12311857 3018.43808622 4.12723524 3024.84899024 C4.13094193 3030.66643114 4.13004027 3036.4838525 4.12547626 3042.30129263 C4.12464239 3044.38680671 4.12547466 3046.4723223 4.12820339 3048.55783476 C4.14063591 3058.73177485 4.03065787 3068.82797322 3.22701983 3078.97341675 C2.90870442 3083.2171345 2.85576078 3087.44167435 2.8671875 3091.6953125 C2.86623077 3092.53432098 2.86527405 3093.37332947 2.86428833 3094.23776245 C2.86361713 3095.99021481 2.86539594 3097.74266982 2.86962891 3099.49511719 C2.87495093 3102.1009718 2.86966814 3104.70665083 2.86328125 3107.3125 C2.86128996 3114.77269251 2.91500272 3122.21044702 3.36128083 3129.65872671 C4.25670686 3144.91546846 4.13883711 3160.1883722 4.12226575 3175.46459099 C4.11879478 3179.70463557 4.12121267 3183.94467777 4.12284851 3188.1847229 C4.12491533 3195.6042503 4.12329787 3203.02376962 4.11921513 3210.44329607 C4.11308582 3221.61893582 4.11284762 3232.79457074 4.11368043 3243.97021187 C4.11491956 3262.70318049 4.11164135 3281.43614559 4.10557556 3300.16911316 C4.09738833 3325.49860764 4.09547165 3350.82809612 4.09460449 3376.15759277 C4.08935656 3437.04256256 4.07539542 3497.92753135 4.0625 3558.8125 C4.041875 3694.834375 4.02125 3830.85625 4 3971 C332.02 3971 660.04 3971 998 3971 C997.88117602 3691.08714959 997.88117602 3691.08714959 997.72973633 3411.17431641 C997.71618652 3357.11010742 997.71618652 3357.11010742 997.71366882 3331.82260132 C997.71068252 3312.94549403 997.69773774 3294.06841892 997.67997972 3275.19132066 C997.66211484 3255.94043182 997.65549147 3236.6895633 997.65966515 3217.43866649 C997.66181678 3205.99410341 997.65585842 3194.54961594 997.63757721 3183.10506686 C997.62631811 3175.54310953 997.62599672 3167.98120235 997.63449398 3160.41924154 C997.63902007 3156.11562588 997.63887869 3151.81215519 997.62535226 3147.50855517 C997.52791479 3114.69038568 997.52791479 3114.69038568 1001 3100 C1001.33 3100 1001.66 3100 1002 3100 C1002 3388.75 1002 3677.5 1002 3975 C671.34 3975 340.68 3975 0 3975 C0 2663.25 0 1351.5 0 0 Z " fill="#FDFDFD" transform="translate(0,0)"/>
</svg>
