<?xml version="1.0" encoding="UTF-8"?>
<svg version="1.1" xmlns="http://www.w3.org/2000/svg" width="1006" height="3976">
<path d="M0 0 C331.98 0 663.96 0 1006 0 C1006 1312.08 1006 2624.16 1006 3976 C674.02 3976 342.04 3976 0 3976 C0 2663.92 0 1351.84 0 0 Z M4 4 C4 287.47 4 570.94 4 863 C4.33 863 4.66 863 5 863 C5.10022461 862.4016333 5.20044922 861.8032666 5.30371094 861.18676758 C7.99597989 845.29413909 11.39890464 830.78148504 18 816 C18.26232422 815.40300293 18.52464844 814.80600586 18.79492188 814.19091797 C24.17069626 802.02714208 30.64348779 790.56555019 37.26464844 779.04443359 C38.98408868 776.0279142 40.67313773 772.99653981 42.3515625 769.95703125 C54.32202589 748.28910865 67.19583123 727.19513046 80.51660156 706.33251953 C82.08110229 703.87247346 83.63130372 701.40381253 85.1796875 698.93359375 C103.94522523 669.07995279 123.25222914 640.75917825 148.1875 615.6875 C149.03119141 614.83897461 149.87488281 613.99044922 150.74414062 613.11621094 C155.11493995 608.75742874 159.55155161 604.54515466 164.2331543 600.52172852 C166.64450495 598.4449082 168.97504816 596.28432565 171.3125 594.125 C175.77522832 590.05459944 180.36258 586.19823091 185.0625 582.40625 C188.36353781 579.70220839 191.58754701 576.91877143 194.8125 574.125 C199.94490697 569.6922123 205.18384504 565.43852604 210.54272461 561.28344727 C215.2328931 557.63597073 219.80838577 553.86300801 224.375 550.0625 C230.42940527 545.03828388 236.59372675 540.2161608 242.91625977 535.53491211 C247.94455586 531.80931524 252.88770851 527.98612624 257.8125 524.125 C267.06751782 516.88875102 276.50194026 509.91290635 286 503 C286.74749512 502.4548877 287.49499023 501.90977539 288.26513672 501.34814453 C332.15122183 469.37248742 377.29700707 439.01337059 425 413 C425.76038574 412.58218262 426.52077148 412.16436523 427.30419922 411.73388672 C442.55061047 403.38290193 458.20328916 396.13354465 474.6875 390.5625 C475.38109619 390.32756836 476.07469238 390.09263672 476.78930664 389.85058594 C485.99478975 386.8686058 495.2506236 385.60607955 504.875 384.875 C505.96780273 384.7915332 507.06060547 384.70806641 508.18652344 384.62207031 C583.51027534 379.24650398 644.32723674 412.6323354 700.3125 460.3125 C701.42443333 461.25786641 702.53641386 462.20317732 703.6484375 463.1484375 C704.20370117 463.62120117 704.75896484 464.09396484 705.33105469 464.58105469 C707.49324017 466.41935516 709.66190619 468.24991351 711.83056641 470.08056641 C718.66062255 475.84803101 725.4517537 481.66020032 732.23388672 487.48388672 C735.73494192 490.48935434 739.23888345 493.49145815 742.74316406 496.49316406 C745.70051252 499.02685208 748.65529679 501.5634265 751.60546875 504.10546875 C757.7477271 509.39326812 763.93038824 514.61307591 770.22265625 519.72265625 C773.34396633 522.28204272 776.42440998 524.88604122 779.5 527.5 C784.26905969 531.5501864 789.0791259 535.54352242 793.9296875 539.49609375 C803.50861889 547.30791948 813.05229952 555.15972837 822.46826172 563.16748047 C825.78266968 565.98238581 829.12782274 568.75463955 832.5 571.5 C838.1734114 576.12095248 843.75420799 580.8458109 849.32958984 585.58398438 C851.00375841 587.00318603 852.68271475 588.41650771 854.36328125 589.828125 C860.24621417 594.77429612 866.0476404 599.78481351 871.73828125 604.953125 C873.80673875 606.8250969 875.89560914 608.6686339 878 610.5 C891.40449715 622.19895477 904.39973986 634.31512924 917 646.875 C917.78882568 647.6592334 918.57765137 648.4434668 919.39038086 649.25146484 C924.13249762 654.00618155 928.6360764 658.89756625 933 664 C933.85722656 664.97582031 934.71445312 665.95164062 935.59765625 666.95703125 C948.23339669 681.59526622 959.42131082 697.19916799 969 714 C969.42764648 714.74685059 969.85529297 715.49370117 970.29589844 716.26318359 C988.08187312 747.69494581 997.69572335 783.14613248 1001 819 C1001.33 819 1001.66 819 1002 819 C1002 550.05 1002 281.1 1002 4 C672.66 4 343.32 4 4 4 Z M1001 887 C1000.91548584 887.89565674 1000.83097168 888.79131348 1000.74389648 889.71411133 C995.19713914 947.26308097 982.63078233 1002.88702777 969.00292969 1058.96582031 C968.40585944 1061.42446813 967.8089466 1063.88315402 967.21221733 1066.34188461 C966.81901374 1067.96190335 966.4255986 1069.58187075 966.03196907 1071.20178604 C963.88055593 1080.06368436 961.76931039 1088.93258397 959.75463867 1097.82666016 C959.57412807 1098.62292722 959.39361746 1099.41919428 959.20763683 1100.23959064 C958.35633021 1104.00225834 957.5117188 1107.76626677 956.67723083 1111.53269958 C948.2786263 1149.14722297 929.69479977 1184.49340273 913 1219 C912.61565796 1219.79448547 912.23131592 1220.58897095 911.83532715 1221.40753174 C905.07866034 1235.3653363 898.26565794 1249.29560608 891.44189453 1263.22070312 C865.48519547 1315.53640678 865.48519547 1315.53640678 842.9375 1369.375 C842.56153687 1370.36052856 842.56153687 1370.36052856 842.17797852 1371.3659668 C836.40541717 1387.31214874 834.57265808 1403.72114521 832.68190789 1420.47204137 C832.27437502 1424.05937569 831.85390361 1427.64519555 831.43473816 1431.23118591 C830.7060123 1437.47748648 829.98391941 1443.72452257 829.26602173 1449.97207642 C827.39109441 1466.2803947 825.47181343 1482.58355439 823.55657125 1498.88717771 C823.23632162 1501.61434396 822.9164256 1504.34155148 822.59661674 1507.06876945 C817.65862481 1549.16930128 812.52076086 1591.24462684 807.3125 1633.3125 C807.19800916 1634.23736851 807.08351831 1635.16223702 806.96555805 1636.11513186 C795.40329445 1729.50201357 783.55300906 1822.85263564 729.47378874 2227.30801153 C729.06380412 2230.30297334 728.65392147 2233.2979491 728.24405289 2236.29292679 C723.09749248 2273.8959273 717.93871082 2311.49698887 712.62654686 2349.07700157 C712.06243103 2353.06839078 711.50010139 2357.06002952 710.93806458 2361.05171204 C710.58300401 2363.57248301 710.22791734 2366.09325031 709.87280273 2368.61401367 C709.70300683 2369.81951653 709.53321093 2371.0250194 709.35826969 2372.26705265 C708.40268867 2379.04148302 707.43533214 2385.81407997 706.45699215 2392.58525944 C705.88272574 2396.57511195 705.31825247 2400.56630653 704.75629234 2404.55790901 C704.50441347 2406.33092128 704.24828308 2408.10333694 703.98707008 2409.87499809 C703.80709764 2411.09659976 703.80709764 2411.09659976 703.62348938 2412.34288025 C703.51928334 2413.04044906 703.4150773 2413.73801786 703.30771351 2414.45672512 C702.4314315 2421.09444631 701.82662453 2427.61871528 701.85487366 2434.31802368 C701.8582121 2435.47570269 701.8582121 2435.47570269 701.86161798 2436.65676916 C701.94302649 2445.75185724 702.64094664 2454.79100155 703.35766602 2463.85400391 C703.50454084 2465.7765148 703.65079739 2467.69907301 703.79649353 2469.62167358 C704.11011809 2473.7433924 704.42796563 2477.86475508 704.74917793 2481.98588943 C705.26667898 2488.62711512 705.77380992 2495.26911089 706.2797699 2501.91122437 C707.27500005 2514.95829983 708.2803308 2528.00458729 709.28684235 2541.05079651 C710.80487548 2560.73375927 712.31572661 2580.41726891 713.81640625 2600.1015625 C713.90393245 2601.24905582 713.99145864 2602.39654914 714.08163714 2603.57881498 C716.76111226 2638.73054338 719.29351511 2673.89040559 721.65912127 2709.06468153 C721.87795536 2712.31840675 722.09746506 2715.57208592 722.31700325 2718.8257637 C723.74310697 2740.00113817 725.10553453 2761.17875138 726.29418945 2782.36889648 C726.34044063 2783.19337642 726.3866918 2784.01785636 726.43434453 2784.86732054 C727.32785686 2800.88111157 728.09906947 2816.90031762 728.81573486 2832.9229126 C728.98856196 2836.77234931 729.17128208 2840.62128088 729.35498047 2844.47021484 C731.04360093 2880.43895149 731.20302752 2916.40361465 731.24497986 2952.40569687 C731.24990907 2956.05763244 731.25781762 2959.70955171 731.26623535 2963.36148071 C731.42664968 3044.38502581 727.7352143 3126.86628285 642.921875 3330.1796875 C612.31646714 3360.32079081 571.55603507 3370.30294629 529.81665039 3370.31347656 C523.41162194 3370.2456591 517.27594483 3369.85880494 510.95874023 3368.81933594 C500.28488373 3367.0729282 494.66194289 3369.97396765 485.8359375 3375.85644531 C471.57621576 3384.73843157 452.08728619 3386.20321309 435.83203125 3383.3828125 C411.0366997 3377.47791795 393.37823536 3359.96970663 380.19628906 3338.94970703 C349.14496275 3288.34238215 342.22578122 3224.49413052 338.17693138 3166.51852798 C338.04398244 3164.62606759 337.90071191 3162.7343278 337.75234413 3160.84301376 C336.90000865 3149.00242526 336.87916694 3137.20703883 336.91821289 3125.34033203 C336.9217783 3123.09306913 336.92486172 3120.84580543 336.92750549 3118.59854126 C336.93402909 3113.77098768 336.94357525 3108.94345304 336.95540047 3104.11590958 C336.97398324 3096.36698077 336.98337651 3088.61805616 336.99131775 3080.86911011 C337.00310599 3069.88880991 337.01716551 3058.90851568 337.03442383 3047.92822266 C337.03551395 3047.2332671 337.03660407 3046.53831154 337.03772723 3045.82229672 C337.05305532 3036.14604148 337.07161272 3026.46979558 337.09174361 3016.79354928 C337.12651688 2999.98997928 337.15172549 2983.18641774 337.16015625 2966.3828125 C337.16050111 2965.72022768 337.16084596 2965.05764286 337.16120127 2964.3749797 C337.18633842 2911.56388423 336.42818635 2858.790998 335 2806 C334.97349318 2805.01922415 334.94698636 2804.03844829 334.9196763 2803.02795196 C334.30806462 2780.46345237 333.68822047 2757.89891998 332.8984375 2735.33984375 C332.84730867 2733.86293218 332.84730867 2733.86293218 332.79514694 2732.35618401 C329.78860269 2645.62747215 325.67120806 2558.95423847 319.52867401 2439.27400094 C319.09079175 2430.76862928 318.65404213 2422.26319977 318.21765137 2413.75775146 C316.39922618 2378.31850229 314.57319383 2342.87965309 312.73922677 2307.44120471 C312.2128392 2297.26927219 311.68788515 2287.09726679 311.16407553 2276.9252012 C308.1204055 2217.82547129 305.00268419 2158.73146936 301.53665853 2099.65479589 C301.32253022 2096.00288057 301.10926548 2092.35091565 300.89613152 2088.69894218 C295.0373234 1988.49962753 287.55624289 1888.38764374 235.94140625 1494.22070312 C235.22038339 1490.23654301 234.51492467 1486.24998734 233.82157898 1482.26092529 C233.28391024 1479.17270749 232.73477685 1476.08652729 232.1875 1473 C232.01694092 1471.9987207 231.84638184 1470.99744141 231.6706543 1469.96582031 C229.62944925 1458.68417219 225.50051283 1449.55017428 219.40515137 1439.86236572 C217.48994961 1436.8171072 215.60929431 1433.7505037 213.72265625 1430.6875 C213.33197968 1430.05530548 212.9413031 1429.42311096 212.53878784 1428.77175903 C208.33332475 1421.95327876 204.28446373 1415.04557827 200.25 1408.125 C199.53385068 1406.89814788 198.81762379 1405.67134105 198.10131836 1404.44458008 C197.05329996 1402.64961586 196.00535856 1400.85460757 194.95796204 1399.0592804 C191.78826835 1393.62901665 188.58293549 1388.22021935 185.375 1382.8125 C173.81861927 1363.29117262 162.57675866 1343.59467461 151.54443359 1323.77294922 C150.16475115 1321.29580201 148.78071452 1318.82116924 147.39453125 1316.34765625 C136.6115784 1297.07391563 126.19720541 1277.58945618 116 1258 C115.39849121 1256.84741699 114.79698242 1255.69483398 114.17724609 1254.50732422 C86.91033512 1202.22248484 61.72381844 1148.63525092 42 1093 C41.7511908 1092.30104614 41.50238159 1091.60209229 41.24603271 1090.88195801 C32.46467252 1066.19206969 24.44205638 1041.4077047 18 1016 C17.83240173 1015.34056396 17.66480347 1014.68112793 17.49212646 1014.00170898 C11.90362565 991.89047414 8.30789375 969.54179901 5 947 C4.67 947 4.34 947 4 947 C4 1945.25 4 2943.5 4 3972 C333.34 3972 662.68 3972 1002 3972 C1002 2953.95 1002 1935.9 1002 887 C1001.67 887 1001.34 887 1001 887 Z " fill="#FEFEFE" transform="translate(0,0)"/>
<path d="M0 0 C177.87 0 355.74 0 539 0 C538.34385977 7.8736828 537.61945281 15.67132898 536.625 23.5 C536.5115625 24.42296875 536.398125 25.3459375 536.28125 26.296875 C535.57960299 31.88019378 534.78697516 37.44445251 533.93312073 43.00614929 C532.2664027 53.87674381 530.9001208 64.757731 529.6875 75.6875 C529.47594851 77.57357186 529.26435869 79.45963943 529.05273438 81.34570312 C524.709544 120.2296059 520.71873258 159.14798489 517.03556824 198.09963989 C516.2015131 206.90953424 515.35292548 215.71796938 514.50006866 224.5260582 C513.81119221 231.6422413 513.12414327 238.75860111 512.4375 245.875 C512.36095184 246.66812843 512.28440369 247.46125687 512.20553589 248.27841949 C510.46960616 266.27271128 508.77026751 284.26675559 507.27792358 302.28320312 C503.5404844 347.24895391 499.20252216 392.35604517 491.95896912 436.90287781 C490.77836016 444.22665262 489.85142781 451.57602466 488.9375 458.9375 C487.53427601 470.18371308 485.91344473 481.37958447 484.17797852 492.57788086 C482.41439516 503.98005838 480.88457426 515.39531929 479.44702148 526.84350586 C478.44235017 534.77238598 477.31710814 542.66952223 476.0625 550.5625 C474.34823313 561.35209738 472.89922768 572.16614697 471.5 583 C469.96714001 594.86853295 468.32579544 606.70347009 466.44702148 618.52319336 C465.16473533 626.68512831 464.09190598 634.86515068 463.0625 643.0625 C461.71829827 653.75640102 460.21568449 664.41208474 458.5625 675.0625 C456.55736635 687.98202413 454.79335372 700.92236878 453.12139893 713.88897705 C451.71319018 724.79445848 450.17298641 735.66438503 448.44677734 746.52490234 C447.16451825 754.68625596 446.09177291 762.86571685 445.0625 771.0625 C443.61327267 782.59811966 441.95922973 794.08551636 440.17852783 805.57403564 C438.41477357 816.97749767 436.88473563 828.39403417 435.44702148 839.84350586 C434.44235017 847.77238598 433.31710814 855.66952223 432.0625 863.5625 C430.34823313 874.35209738 428.89922768 885.16614697 427.5 896 C425.96714001 907.86853295 424.32579544 919.70347009 422.44702148 931.52319336 C421.16473533 939.68512831 420.09190598 947.86515068 419.0625 956.0625 C417.71829827 966.75640102 416.21568449 977.41208474 414.5625 988.0625 C412.55736635 1000.98202413 410.79335372 1013.92236878 409.12139893 1026.88897705 C407.71319018 1037.79445848 406.17298641 1048.66438503 404.44677734 1059.52490234 C403.16451825 1067.68625596 402.09177291 1075.86571685 401.0625 1084.0625 C399.61327267 1095.59811966 397.95922973 1107.08551636 396.17852783 1118.57403564 C394.41477357 1129.97749767 392.88473563 1141.39403417 391.44702148 1152.84350586 C390.44235017 1160.77238598 389.31710814 1168.66952223 388.0625 1176.5625 C386.34823313 1187.35209738 384.89922768 1198.16614697 383.5 1209 C381.96714001 1220.86853295 380.32579544 1232.70347009 378.44702148 1244.52319336 C377.16473533 1252.68512831 376.09190598 1260.86515068 375.0625 1269.0625 C373.71829827 1279.75640102 372.21568449 1290.41208474 370.5625 1301.0625 C368.55773197 1313.97966839 366.79354505 1326.91761115 365.12240601 1339.88192749 C363.82912057 1349.90107623 362.45522945 1359.89608723 360.875 1369.875 C359.48168269 1378.67500652 358.27224885 1387.47719713 357.20776367 1396.32275391 C356.50362463 1402.11768418 355.74420837 1407.90147921 354.9140625 1413.6796875 C349.74851493 1449.68198873 345.80103127 1485.81838768 342.125 1522 C339.96382187 1543.26451725 337.6216835 1564.50265227 335.1332016 1585.73101807 C334.88012496 1587.89370429 334.62860242 1590.0565659 334.37750244 1592.21948242 C331.71562523 1615.11361264 328.64692889 1637.93154566 324.7109375 1660.64453125 C324.11316425 1664.16918572 323.62966915 1667.70375173 323.1484375 1671.24609375 C321.81849594 1680.63638195 320.03594013 1689.93738964 318.25 1699.25 C318.07325745 1700.17452972 317.89651489 1701.09905945 317.7144165 1702.05160522 C313.4477061 1724.31214946 308.57338348 1746.29341015 302 1768 C301.69787598 1769.00208496 301.39575195 1770.00416992 301.08447266 1771.03662109 C288.86097118 1811.21332457 272.17631544 1849.11334883 243 1880 C241.84757812 1881.24910156 241.84757812 1881.24910156 240.671875 1882.5234375 C229.72208413 1894.00305696 214.72451523 1905.29609065 198.328125 1906.203125 C190.80303597 1906.34640754 183.91246431 1906.32608115 177 1903 C175.865625 1902.46375 174.73125 1901.9275 173.5625 1901.375 C168.48947971 1898.28656404 164.24664042 1894.11246537 160 1890 C159.31808594 1889.34386719 158.63617188 1888.68773438 157.93359375 1888.01171875 C132.06151254 1861.09430092 123.52910474 1817.40231967 117.54541016 1782.08154297 C117.07538717 1779.42593416 116.54540171 1776.79669341 115.98046875 1774.16015625 C114.70353093 1767.87823116 113.97976137 1761.52370025 113.25 1755.15966797 C113.0099069 1753.08558244 112.7554745 1751.01364375 112.5 1748.94140625 C108.64053098 1716.43584568 108.74292895 1683.83471629 108.86307526 1651.15659928 C108.88349345 1644.82199825 108.89015161 1638.48738271 108.89794922 1632.15275574 C108.91253299 1621.46924991 108.9326458 1610.78577723 108.95898438 1600.10229492 C108.96064 1599.42958605 108.96229562 1598.75687718 108.96400142 1598.06378319 C108.97906658 1591.97189324 108.99463904 1585.88000462 109.01040649 1579.78811646 C109.06145347 1560.05276925 109.10523635 1540.31743764 109.125 1520.58203125 C109.12629323 1519.29261871 109.12758646 1518.00320617 109.12891889 1516.67472053 C109.16764623 1471.49992242 108.52934041 1426.37958798 107.20776576 1381.22539175 C106.97715487 1373.30651154 106.77066931 1365.38706607 106.56773889 1357.467435 C106.11350778 1339.74359224 105.62801511 1322.02072094 105.12583017 1304.29817677 C105.06128062 1302.01945356 104.99688491 1299.74072604 104.93250656 1297.46199799 C103.63646398 1251.62562366 102.29232983 1205.79923245 100 1160 C99.92335547 1158.46189395 99.84671577 1156.92378766 99.77008057 1155.38568115 C98.68776237 1133.70973906 97.54719752 1112.03690246 96.39605713 1090.36452293 C94.61360659 1056.80293295 92.86891739 1023.23937121 91.12267792 989.67588109 C90.83251707 984.09895012 90.54223002 978.52202574 90.25182641 972.9451074 C86.81168274 906.88020395 83.42348274 840.81272995 80.06794733 774.7434783 C79.84247788 770.30431548 79.61681104 765.86516276 79.39097232 761.42601871 C79.20861584 757.84122844 79.02638959 754.25643156 78.84423828 750.67163086 C78.80878926 749.97400619 78.77334024 749.27638152 78.736817 748.55761671 C78.24696614 738.91310006 77.76313847 729.26829652 77.28325367 719.62327921 C75.99755395 693.79704336 74.67384947 667.98357584 72.875 642.1875 C72.53584319 637.26453838 72.1999805 632.3413646 71.8671875 627.41796875 C71.78909851 626.2663324 71.71100952 625.11469604 71.6305542 623.92816162 C71.0847078 615.70940958 70.67637238 607.49037145 70.33029175 599.26106262 C70.05294482 592.78075535 69.60834848 586.33317086 69 579.875 C68.25219249 571.48125626 67.68020358 563.10160902 67.34179688 554.68115234 C67.18757494 551.02152888 66.9584142 547.40721606 66.5234375 543.76953125 C65.81414078 537.73888679 65.53429988 531.68525997 65.1875 525.625 C59.94980713 438.37630208 51.34180781 350.98853177 32.08203125 197.20703125 C30.89955598 189.48777371 29.9112752 181.74752241 28.9375 174 C27.37125834 161.62352914 25.57787278 149.3021209 23.62451172 136.98144531 C22.88980537 132.32101901 22.18270783 127.65642096 21.47265625 122.9921875 C18.50801781 103.5690205 15.41723923 84.17237045 12.0625 64.8125 C11.91735962 63.96901001 11.77221924 63.12552002 11.62268066 62.25646973 C8.03263262 41.45048633 3.9508616 20.74202338 0 0 Z " fill="#FEFEFE" transform="translate(257,1449)"/>
<path d="M0 0 C331.98 0 663.96 0 1006 0 C1006 1312.08 1006 2624.16 1006 3976 C674.02 3976 342.04 3976 0 3976 C0 2663.92 0 1351.84 0 0 Z M4 4 C4 287.47 4 570.94 4 863 C4.33 863 4.66 863 5 863 C5.10022461 862.4016333 5.20044922 861.8032666 5.30371094 861.18676758 C7.99597989 845.29413909 11.39890464 830.78148504 18 816 C18.26232422 815.40300293 18.52464844 814.80600586 18.79492188 814.19091797 C24.17069626 802.02714208 30.64348779 790.56555019 37.26464844 779.04443359 C38.98408868 776.0279142 40.67313773 772.99653981 42.3515625 769.95703125 C54.32202589 748.28910865 67.19583123 727.19513046 80.51660156 706.33251953 C82.08110229 703.87247346 83.63130372 701.40381253 85.1796875 698.93359375 C103.94522523 669.07995279 123.25222914 640.75917825 148.1875 615.6875 C149.03119141 614.83897461 149.87488281 613.99044922 150.74414062 613.11621094 C155.11493995 608.75742874 159.55155161 604.54515466 164.2331543 600.52172852 C166.64450495 598.4449082 168.97504816 596.28432565 171.3125 594.125 C175.77522832 590.05459944 180.36258 586.19823091 185.0625 582.40625 C188.36353781 579.70220839 191.58754701 576.91877143 194.8125 574.125 C199.94490697 569.6922123 205.18384504 565.43852604 210.54272461 561.28344727 C215.2328931 557.63597073 219.80838577 553.86300801 224.375 550.0625 C230.42940527 545.03828388 236.59372675 540.2161608 242.91625977 535.53491211 C247.94455586 531.80931524 252.88770851 527.98612624 257.8125 524.125 C267.06751782 516.88875102 276.50194026 509.91290635 286 503 C286.74749512 502.4548877 287.49499023 501.90977539 288.26513672 501.34814453 C332.15122183 469.37248742 377.29700707 439.01337059 425 413 C425.76038574 412.58218262 426.52077148 412.16436523 427.30419922 411.73388672 C442.55061047 403.38290193 458.20328916 396.13354465 474.6875 390.5625 C475.38109619 390.32756836 476.07469238 390.09263672 476.78930664 389.85058594 C485.99478975 386.8686058 495.2506236 385.60607955 504.875 384.875 C505.96780273 384.7915332 507.06060547 384.70806641 508.18652344 384.62207031 C583.51027534 379.24650398 644.32723674 412.6323354 700.3125 460.3125 C701.42443333 461.25786641 702.53641386 462.20317732 703.6484375 463.1484375 C704.20370117 463.62120117 704.75896484 464.09396484 705.33105469 464.58105469 C707.49324017 466.41935516 709.66190619 468.24991351 711.83056641 470.08056641 C718.66062255 475.84803101 725.4517537 481.66020032 732.23388672 487.48388672 C735.73494192 490.48935434 739.23888345 493.49145815 742.74316406 496.49316406 C745.70051252 499.02685208 748.65529679 501.5634265 751.60546875 504.10546875 C757.7477271 509.39326812 763.93038824 514.61307591 770.22265625 519.72265625 C773.34396633 522.28204272 776.42440998 524.88604122 779.5 527.5 C784.26905969 531.5501864 789.0791259 535.54352242 793.9296875 539.49609375 C803.50861889 547.30791948 813.05229952 555.15972837 822.46826172 563.16748047 C825.78266968 565.98238581 829.12782274 568.75463955 832.5 571.5 C838.1734114 576.12095248 843.75420799 580.8458109 849.32958984 585.58398438 C851.00375841 587.00318603 852.68271475 588.41650771 854.36328125 589.828125 C860.24621417 594.77429612 866.0476404 599.78481351 871.73828125 604.953125 C873.80673875 606.8250969 875.89560914 608.6686339 878 610.5 C891.40449715 622.19895477 904.39973986 634.31512924 917 646.875 C917.78882568 647.6592334 918.57765137 648.4434668 919.39038086 649.25146484 C924.13249762 654.00618155 928.6360764 658.89756625 933 664 C933.85722656 664.97582031 934.71445312 665.95164062 935.59765625 666.95703125 C948.23339669 681.59526622 959.42131082 697.19916799 969 714 C969.42764648 714.74685059 969.85529297 715.49370117 970.29589844 716.26318359 C988.08187312 747.69494581 997.69572335 783.14613248 1001 819 C1001.33 819 1001.66 819 1002 819 C1002 550.05 1002 281.1 1002 4 C672.66 4 343.32 4 4 4 Z M272 550 C270.39776113 551.23146468 268.79374816 552.46059417 267.18969727 553.68969727 C254.90600937 563.1093415 242.79663041 572.73039347 230.80859375 582.5234375 C229.2076452 583.83047541 227.60402024 585.13423356 226 586.4375 C220.55624926 590.86845991 215.17771112 595.36952884 209.83300781 599.91894531 C206.45111286 602.79225452 203.02509525 605.59882231 199.5625 608.375 C194.54824976 612.45091102 189.81957713 616.78852794 185.12133789 621.22021484 C182.18833022 623.98499514 179.22288586 626.68643839 176.16796875 629.31640625 C171.4151713 633.45205366 166.95529881 637.86077688 162.5 642.3125 C161.69691406 643.10333984 160.89382812 643.89417969 160.06640625 644.70898438 C137.76022842 666.96093325 121.583844 695.43843829 105 722 C104.5035498 722.79486816 104.00709961 723.58973633 103.49560547 724.40869141 C99.63997298 730.59123192 95.81529063 736.79250175 92 743 C91.33806641 744.07459473 90.67613281 745.14918945 89.99414062 746.25634766 C80.5153662 761.65536858 71.34192332 777.17816064 62.63330078 793.03027344 C61.01329803 795.97582104 59.38070441 798.91410148 57.74609375 801.8515625 C39.26881335 835.19342261 31.55160295 865.27681466 31.6875 903.5 C31.68932281 904.56369812 31.69114563 905.62739624 31.69302368 906.72332764 C31.73823091 922.39035685 32.37416384 937.5319872 35 953 C35.38108631 955.44757823 35.75984983 957.89551885 36.13671875 960.34375 C39.11014451 979.26446642 42.43358927 998.22722305 47.97607422 1016.58911133 C48.9755762 1019.91863973 49.93480211 1023.25704403 50.8828125 1026.6015625 C76.17966652 1115.23071052 116.14054607 1199.83629124 160.55273438 1280.3671875 C162.02878054 1283.0523565 163.49274482 1285.74378162 164.953125 1288.4375 C182.26234639 1320.35652174 200.56301579 1351.72239388 219 1383 C219.62243591 1384.05607452 219.62243591 1384.05607452 220.25744629 1385.13348389 C222.86844698 1389.56211915 225.48326882 1393.98847072 228.10241699 1398.41229248 C228.94438227 1399.83491093 229.78562106 1401.25795963 230.62609863 1402.68145752 C231.7978869 1404.66532804 232.97273458 1406.64735383 234.1484375 1408.62890625 C235.15656494 1410.3315564 235.15656494 1410.3315564 236.18505859 1412.06860352 C237.08345459 1413.51964478 237.08345459 1413.51964478 238 1415 C238.34443895 1415.71030861 238.6888779 1416.42061721 239.0437544 1417.15245032 C242.21503773 1420.14752594 245.98140701 1419.54096404 250.11487103 1419.49219131 C251.53829722 1419.49911438 251.53829722 1419.49911438 252.9904795 1419.50617731 C256.2007718 1419.51684559 259.41027693 1419.49875414 262.62052917 1419.48101807 C264.93300847 1419.48276082 267.24548699 1419.48626027 269.55796129 1419.49137473 C275.26620272 1419.49941318 280.97420008 1419.48875632 286.68241272 1419.47041203 C293.51681403 1419.44950088 300.35115602 1419.45178656 307.18558152 1419.45498985 C319.79939269 1419.46025073 332.41312016 1419.44685989 345.02690697 1419.42292023 C357.52012737 1419.39927005 370.01331293 1419.38386007 382.50655556 1419.37950897 C383.28270354 1419.37923401 384.05885151 1419.37895906 384.85851913 1419.37867576 C388.80001737 1419.37732247 392.74151564 1419.37611692 396.68301395 1419.37496826 C424.61674333 1419.36656166 452.55042715 1419.33959843 480.48413086 1419.30175781 C507.62507891 1419.26503348 534.76601451 1419.23669247 561.90698242 1419.21972656 C562.74325915 1419.21920046 563.57953589 1419.21867435 564.44115434 1419.21813231 C572.83921934 1419.21285833 581.23728445 1419.20775506 589.63534963 1419.20277687 C606.74390502 1419.19263141 623.85245959 1419.1813464 640.96101379 1419.16937256 C641.74767572 1419.1688234 642.53433765 1419.16827424 643.34483782 1419.16770844 C695.89657771 1419.13089201 748.44829155 1419.06742655 801 1419 C801.17193878 1418.19500061 801.34387756 1417.39000122 801.52102661 1416.56060791 C802.16708555 1413.53707927 802.81362619 1410.51365414 803.46047974 1407.49029541 C803.87481554 1405.55301582 804.2886094 1403.61562035 804.70239258 1401.67822266 C812.98241263 1362.98771799 828.41341462 1328.09811981 845.31298828 1292.54882812 C846.75331666 1289.51892751 848.18825739 1286.48657187 849.62109375 1283.453125 C855.9012112 1270.20374669 862.36852176 1257.04515781 868.8125 1243.875 C872.12647756 1237.10040321 875.44005184 1230.32560936 878.75280762 1223.55041504 C879.53719756 1221.94639634 880.32175906 1220.3424615 881.10656738 1218.73864746 C890.77008744 1198.98924059 900.07451617 1179.09319843 909 1159 C909.52787109 1157.81180664 910.05574219 1156.62361328 910.59960938 1155.39941406 C920.63879859 1132.63915649 928.10312325 1110.10776909 933.20068359 1085.76269531 C934.66973515 1078.8472944 936.23988494 1071.95496503 937.8125 1065.0625 C937.97943359 1064.32838898 938.14636719 1063.59427795 938.31835938 1062.83792114 C940.71634776 1052.30982762 943.27133209 1041.82940969 945.93109131 1031.36462402 C964.14468323 959.66313898 982.39515829 878.90925118 969 805 C968.85546387 804.16694336 968.71092773 803.33388672 968.56201172 802.47558594 C966.35543829 790.04742153 962.93094535 777.98471265 959 766 C958.77618652 765.31373535 958.55237305 764.6274707 958.32177734 763.92041016 C943.67206984 719.92752452 912.62042185 684.66500172 880.5 652.375 C879.77071289 651.64095947 879.04142578 650.90691895 878.29003906 650.15063477 C874.27731438 646.15030637 870.16706112 642.32949394 865.87548828 638.63037109 C863.07918048 636.19952711 860.38936463 633.65962462 857.6875 631.125 C852.81760188 626.58973456 847.80345476 622.31319449 842.61328125 618.14453125 C840.00152377 616.00125044 837.49634698 613.7761967 835 611.5 C830.77635723 607.65489125 826.4130207 604.03241829 821.97265625 600.44140625 C818.66249309 597.7228097 815.42488748 594.92933261 812.1875 592.125 C807.57529871 588.13746612 802.88498392 584.29261309 798.0625 580.5625 C792.33551803 576.12985141 786.8473728 571.46964876 781.39916992 566.69995117 C776.92220304 562.78355403 772.36448107 558.98665677 767.7421875 555.2421875 C764.62999959 552.69746405 761.56270126 550.10385619 758.5 547.5 C754.55353876 544.14547904 750.58357765 540.82778038 746.5625 537.5625 C741.69997145 533.60594474 736.94230539 529.53813162 732.19604492 525.44384766 C728.63613391 522.37995383 725.0333022 519.38417281 721.375 516.4375 C716.91300498 512.81948937 712.68123918 508.99143974 708.47558594 505.08349609 C704.41721592 501.33257835 700.20128889 497.83166097 695.8984375 494.3671875 C692.63028777 491.69805174 689.44039022 488.94851687 686.25 486.1875 C678.98652285 479.92852511 671.56049452 473.89625901 664 468 C663.37931641 467.51563477 662.75863281 467.03126953 662.11914062 466.53222656 C581.47401344 403.98002169 503.25718624 399.55996325 272 550 Z M1001 887 C1000.91548584 887.89565674 1000.83097168 888.79131348 1000.74389648 889.71411133 C995.19713914 947.26308097 982.63078233 1002.88702777 969.00292969 1058.96582031 C968.40585944 1061.42446813 967.8089466 1063.88315402 967.21221733 1066.34188461 C966.81901374 1067.96190335 966.4255986 1069.58187075 966.03196907 1071.20178604 C963.88055593 1080.06368436 961.76931039 1088.93258397 959.75463867 1097.82666016 C959.57412807 1098.62292722 959.39361746 1099.41919428 959.20763683 1100.23959064 C958.35633021 1104.00225834 957.5117188 1107.76626677 956.67723083 1111.53269958 C948.2786263 1149.14722297 929.69479977 1184.49340273 913 1219 C912.61565796 1219.79448547 912.23131592 1220.58897095 911.83532715 1221.40753174 C905.07866034 1235.3653363 898.26565794 1249.29560608 891.44189453 1263.22070312 C865.48519547 1315.53640678 865.48519547 1315.53640678 842.9375 1369.375 C842.56153687 1370.36052856 842.56153687 1370.36052856 842.17797852 1371.3659668 C836.40541717 1387.31214874 834.57265808 1403.72114521 832.68190789 1420.47204137 C832.27437502 1424.05937569 831.85390361 1427.64519555 831.43473816 1431.23118591 C830.7060123 1437.47748648 829.98391941 1443.72452257 829.26602173 1449.97207642 C827.39109441 1466.2803947 825.47181343 1482.58355439 823.55657125 1498.88717771 C823.23632162 1501.61434396 822.9164256 1504.34155148 822.59661674 1507.06876945 C817.65862481 1549.16930128 812.52076086 1591.24462684 807.3125 1633.3125 C807.19800916 1634.23736851 807.08351831 1635.16223702 806.96555805 1636.11513186 C795.40329445 1729.50201357 783.55300906 1822.85263564 729.47378874 2227.30801153 C729.06380412 2230.30297334 728.65392147 2233.2979491 728.24405289 2236.29292679 C723.09749248 2273.8959273 717.93871082 2311.49698887 712.62654686 2349.07700157 C712.06243103 2353.06839078 711.50010139 2357.06002952 710.93806458 2361.05171204 C710.58300401 2363.57248301 710.22791734 2366.09325031 709.87280273 2368.61401367 C709.70300683 2369.81951653 709.53321093 2371.0250194 709.35826969 2372.26705265 C708.40268867 2379.04148302 707.43533214 2385.81407997 706.45699215 2392.58525944 C705.88272574 2396.57511195 705.31825247 2400.56630653 704.75629234 2404.55790901 C704.50441347 2406.33092128 704.24828308 2408.10333694 703.98707008 2409.87499809 C703.80709764 2411.09659976 703.80709764 2411.09659976 703.62348938 2412.34288025 C703.51928334 2413.04044906 703.4150773 2413.73801786 703.30771351 2414.45672512 C702.4314315 2421.09444631 701.82662453 2427.61871528 701.85487366 2434.31802368 C701.8582121 2435.47570269 701.8582121 2435.47570269 701.86161798 2436.65676916 C701.94302649 2445.75185724 702.64094664 2454.79100155 703.35766602 2463.85400391 C703.50454084 2465.7765148 703.65079739 2467.69907301 703.79649353 2469.62167358 C704.11011809 2473.7433924 704.42796563 2477.86475508 704.74917793 2481.98588943 C705.26667898 2488.62711512 705.77380992 2495.26911089 706.2797699 2501.91122437 C707.27500005 2514.95829983 708.2803308 2528.00458729 709.28684235 2541.05079651 C710.80487548 2560.73375927 712.31572661 2580.41726891 713.81640625 2600.1015625 C713.90393245 2601.24905582 713.99145864 2602.39654914 714.08163714 2603.57881498 C716.76111226 2638.73054338 719.29351511 2673.89040559 721.65912127 2709.06468153 C721.87795536 2712.31840675 722.09746506 2715.57208592 722.31700325 2718.8257637 C723.74310697 2740.00113817 725.10553453 2761.17875138 726.29418945 2782.36889648 C726.34044063 2783.19337642 726.3866918 2784.01785636 726.43434453 2784.86732054 C727.32785686 2800.88111157 728.09906947 2816.90031762 728.81573486 2832.9229126 C728.98856196 2836.77234931 729.17128208 2840.62128088 729.35498047 2844.47021484 C731.04360093 2880.43895149 731.20302752 2916.40361465 731.24497986 2952.40569687 C731.24990907 2956.05763244 731.25781762 2959.70955171 731.26623535 2963.36148071 C731.42664968 3044.38502581 727.7352143 3126.86628285 642.921875 3330.1796875 C612.31646714 3360.32079081 571.55603507 3370.30294629 529.81665039 3370.31347656 C523.41162194 3370.2456591 517.27594483 3369.85880494 510.95874023 3368.81933594 C500.28488373 3367.0729282 494.66194289 3369.97396765 485.8359375 3375.85644531 C471.57621576 3384.73843157 452.08728619 3386.20321309 435.83203125 3383.3828125 C411.0366997 3377.47791795 393.37823536 3359.96970663 380.19628906 3338.94970703 C349.14496275 3288.34238215 342.22578122 3224.49413052 338.17693138 3166.51852798 C338.04398244 3164.62606759 337.90071191 3162.7343278 337.75234413 3160.84301376 C336.90000865 3149.00242526 336.87916694 3137.20703883 336.91821289 3125.34033203 C336.9217783 3123.09306913 336.92486172 3120.84580543 336.92750549 3118.59854126 C336.93402909 3113.77098768 336.94357525 3108.94345304 336.95540047 3104.11590958 C336.97398324 3096.36698077 336.98337651 3088.61805616 336.99131775 3080.86911011 C337.00310599 3069.88880991 337.01716551 3058.90851568 337.03442383 3047.92822266 C337.03551395 3047.2332671 337.03660407 3046.53831154 337.03772723 3045.82229672 C337.05305532 3036.14604148 337.07161272 3026.46979558 337.09174361 3016.79354928 C337.12651688 2999.98997928 337.15172549 2983.18641774 337.16015625 2966.3828125 C337.16050111 2965.72022768 337.16084596 2965.05764286 337.16120127 2964.3749797 C337.18633842 2911.56388423 336.42818635 2858.790998 335 2806 C334.97349318 2805.01922415 334.94698636 2804.03844829 334.9196763 2803.02795196 C334.30806462 2780.46345237 333.68822047 2757.89891998 332.8984375 2735.33984375 C332.84730867 2733.86293218 332.84730867 2733.86293218 332.79514694 2732.35618401 C329.78860269 2645.62747215 325.67120806 2558.95423847 319.52867401 2439.27400094 C319.09079175 2430.76862928 318.65404213 2422.26319977 318.21765137 2413.75775146 C316.39922618 2378.31850229 314.57319383 2342.87965309 312.73922677 2307.44120471 C312.2128392 2297.26927219 311.68788515 2287.09726679 311.16407553 2276.9252012 C308.1204055 2217.82547129 305.00268419 2158.73146936 301.53665853 2099.65479589 C301.32253022 2096.00288057 301.10926548 2092.35091565 300.89613152 2088.69894218 C295.0373234 1988.49962753 287.55624289 1888.38764374 235.94140625 1494.22070312 C235.22038339 1490.23654301 234.51492467 1486.24998734 233.82157898 1482.26092529 C233.28391024 1479.17270749 232.73477685 1476.08652729 232.1875 1473 C232.01694092 1471.9987207 231.84638184 1470.99744141 231.6706543 1469.96582031 C229.62944925 1458.68417219 225.50051283 1449.55017428 219.40515137 1439.86236572 C217.48994961 1436.8171072 215.60929431 1433.7505037 213.72265625 1430.6875 C213.33197968 1430.05530548 212.9413031 1429.42311096 212.53878784 1428.77175903 C208.33332475 1421.95327876 204.28446373 1415.04557827 200.25 1408.125 C199.53385068 1406.89814788 198.81762379 1405.67134105 198.10131836 1404.44458008 C197.05329996 1402.64961586 196.00535856 1400.85460757 194.95796204 1399.0592804 C191.78826835 1393.62901665 188.58293549 1388.22021935 185.375 1382.8125 C173.81861927 1363.29117262 162.57675866 1343.59467461 151.54443359 1323.77294922 C150.16475115 1321.29580201 148.78071452 1318.82116924 147.39453125 1316.34765625 C136.6115784 1297.07391563 126.19720541 1277.58945618 116 1258 C115.39849121 1256.84741699 114.79698242 1255.69483398 114.17724609 1254.50732422 C86.91033512 1202.22248484 61.72381844 1148.63525092 42 1093 C41.7511908 1092.30104614 41.50238159 1091.60209229 41.24603271 1090.88195801 C32.46467252 1066.19206969 24.44205638 1041.4077047 18 1016 C17.83240173 1015.34056396 17.66480347 1014.68112793 17.49212646 1014.00170898 C11.90362565 991.89047414 8.30789375 969.54179901 5 947 C4.67 947 4.34 947 4 947 C4 1945.25 4 2943.5 4 3972 C333.34 3972 662.68 3972 1002 3972 C1002 2953.95 1002 1935.9 1002 887 C1001.67 887 1001.34 887 1001 887 Z M257 1449 C260.3 1466.49 263.6 1483.98 267 1502 C270.3764514 1521.1461612 270.3764514 1521.1461612 271.86206055 1530.05224609 C272.45848694 1533.62574358 273.06378057 1537.19766979 273.66992188 1540.76953125 C275.69584151 1552.76862602 277.59615255 1564.77400436 279.27368164 1576.82666016 C280.05128208 1582.4096348 280.88213317 1587.98419851 281.71875 1593.55859375 C281.86478165 1594.5337796 282.01081329 1595.50896545 282.16127014 1596.51370239 C282.7555781 1600.48042373 283.35096309 1604.44698151 283.94775391 1608.41333008 C293.24766261 1670.26534587 300.68623173 1732.41184351 306.77099609 1794.65843964 C307.00896783 1797.09169587 307.24760054 1799.52488666 307.48632812 1801.95806885 C311.14851714 1839.30786751 314.71388406 1876.66659127 317.875 1914.0625 C317.97250549 1915.21556641 318.07001099 1916.36863281 318.17047119 1917.55664062 C319.20325389 1929.8315936 320.17590136 1942.11074185 321.09765625 1954.39453125 C321.18018646 1955.48508316 321.26271667 1956.57563507 321.3477478 1957.69923401 C321.98279082 1966.28586668 322.41738181 1974.87354056 322.75390625 1983.4765625 C322.88481949 1986.33734855 323.1135714 1989.15051063 323.46484375 1991.9921875 C324.44191374 2000.23840649 324.68628962 2008.57258942 325.125 2016.86181641 C325.24794151 2019.16841041 325.37391532 2021.474826 325.5 2023.78125 C325.53544922 2024.47214722 325.57089844 2025.16304443 325.60742188 2025.87487793 C325.79836717 2029.36235128 326.07717588 2032.81545809 326.48852539 2036.28417969 C327.11930456 2041.73474185 327.39921132 2047.19395216 327.68359375 2052.671875 C327.74402359 2053.78894836 327.80445343 2054.90602173 327.86671448 2056.0569458 C328.05939002 2059.62117251 328.2488143 2063.18556 328.4375 2066.75 C329.18126562 2080.77641736 329.96390713 2094.79427564 330.96875 2108.8046875 C332.19008875 2126.01282319 333.04784689 2143.23686665 333.91558075 2160.46575546 C334.17223817 2165.54799749 334.43220319 2170.63007045 334.69189453 2175.7121582 C335.04731385 2182.67128093 335.4024255 2189.63041893 335.75640869 2196.58961487 C337.47011321 2230.27890406 339.20403492 2263.96715726 340.93633473 2297.65549445 C341.27830406 2304.30610886 341.62008755 2310.95673281 341.96179199 2317.60736084 C344.44685189 2365.97228979 346.94933765 2414.33625636 349.48252702 2462.69868845 C349.88154091 2470.3170872 350.27994804 2477.93551765 350.67822266 2485.55395508 C350.7130703 2486.2205341 350.74791795 2486.88711313 350.78382158 2487.57389152 C351.40621796 2499.47978052 352.02816034 2511.38569322 352.64971924 2523.29162598 C352.87524713 2527.61154101 353.10095255 2531.9314467 353.32684326 2536.25134277 C353.57787452 2541.05266039 353.82834216 2545.85400711 354.07838249 2550.65537643 C354.16513818 2552.31981735 354.25206003 2553.98424961 354.33920479 2555.6486702 C355.83881807 2584.29845684 357.23782447 2612.95354307 358.4453125 2641.6171875 C358.47661491 2642.35886201 358.50791732 2643.10053652 358.54016829 2643.86468601 C360.19787671 2683.25782097 361.30787299 2722.66588687 362.38645029 2762.07841122 C362.59877402 2769.82564864 362.816373 2777.57273064 363.03540099 2785.31978106 C363.30576776 2794.88436871 363.57253392 2804.44905455 363.83826399 2814.01377201 C363.91171768 2816.65021347 363.98577068 2819.28663744 364.05998611 2821.92305756 C364.39757203 2833.94813197 364.71103641 2845.97365781 365 2858 C365.02342036 2858.9677075 365.04684071 2859.93541499 365.07097077 2860.93244696 C365.85399902 2893.53232087 366.12484516 2926.11188833 366.04459953 2958.72056961 C366.02573223 2966.40439643 366.01656422 2974.08821932 366.00868225 2981.77206421 C365.99692349 2992.57037832 365.98301261 3003.36868567 365.96557617 3014.16699219 C365.96448605 3014.84342448 365.96339593 3015.51985678 365.96227277 3016.21678703 C365.94997371 3023.77955788 365.93639954 3031.34232522 365.92095947 3038.90509033 C365.91956502 3039.58834071 365.91817057 3040.27159109 365.91673386 3040.97554602 C365.91391468 3042.35481567 365.91109502 3043.73408532 365.9082749 3045.11335497 C365.90688158 3045.7952447 365.90548827 3046.47713444 365.90405273 3047.1796875 C365.9026592 3047.86069411 365.90126567 3048.54170073 365.89982992 3049.2433439 C365.87659526 3060.70121605 365.86153119 3072.15907993 365.85249335 3083.61697233 C365.84710101 3089.98892466 365.83796851 3096.36081828 365.81910515 3102.73274612 C365.72455962 3135.32637854 365.83043898 3167.83463397 369.6875 3200.25 C369.80813812 3201.28426117 369.80813812 3201.28426117 369.93121338 3202.3394165 C372.89505356 3227.46407357 376.99691168 3252.95260239 385 3277 C385.30019043 3277.9276416 385.60038086 3278.8552832 385.90966797 3279.81103516 C393.23387993 3302.34907492 401.96838464 3323.96838464 419 3341 C419.73089844 3341.73089844 420.46179688 3342.46179687 421.21484375 3343.21484375 C431.45667026 3352.88068002 441.31806612 3355.44586141 455.0703125 3355.20703125 C459.98604578 3354.94805127 463.58077682 3354.08355992 468 3352 C469.07765625 3351.52433594 470.1553125 3351.04867187 471.265625 3350.55859375 C512.63706044 3331.26087873 535.90436594 3282.38537205 551 3242 C551.33370605 3241.1224707 551.66741211 3240.24494141 552.01123047 3239.34082031 C556.4599171 3227.58243814 559.73633715 3215.70088324 562.6640625 3203.48046875 C563.67730501 3199.25814859 564.80848549 3195.09581213 566.0625 3190.9375 C573.56661406 3165.12087716 577.61580093 3137.8987473 581.63476562 3111.34570312 C582.03360125 3108.78419731 582.46002378 3106.2282291 582.890625 3103.671875 C590.45927843 3058.42814673 594.92736537 3012.60903546 599.56915283 2966.99331665 C603.60101088 2927.38791071 607.84408834 2887.78169581 613.88671875 2848.42578125 C615.05523442 2840.77868518 616.03881417 2833.11302148 617 2825.4375 C618.40892303 2814.22659979 620.02202751 2803.05961556 621.75436401 2791.89544678 C623.64881092 2779.65661725 625.29485463 2767.39354386 626.87860107 2755.11102295 C628.28680982 2744.20554152 629.82701359 2733.33561497 631.55322266 2722.47509766 C632.83548175 2714.31374404 633.90822709 2706.13428315 634.9375 2697.9375 C636.38672733 2686.40188034 638.04077027 2674.91448364 639.82147217 2663.42596436 C641.58522643 2652.02250233 643.11526437 2640.60596583 644.55297852 2629.15649414 C645.55764983 2621.22761402 646.68289186 2613.33047777 647.9375 2605.4375 C649.65176687 2594.64790262 651.10077232 2583.83385303 652.5 2573 C654.03285999 2561.13146705 655.67420456 2549.29652991 657.55297852 2537.47680664 C658.83526467 2529.31487169 659.90809402 2521.13484932 660.9375 2512.9375 C662.28170173 2502.24359898 663.78431551 2491.58791526 665.4375 2480.9375 C667.44263365 2468.01797587 669.20664628 2455.07763122 670.87860107 2442.11102295 C672.28680982 2431.20554152 673.82701359 2420.33561497 675.55322266 2409.47509766 C676.83548175 2401.31374404 677.90822709 2393.13428315 678.9375 2384.9375 C680.38672733 2373.40188034 682.04077027 2361.91448364 683.82147217 2350.42596436 C685.58522643 2339.02250233 687.11526437 2327.60596583 688.55297852 2316.15649414 C689.55764983 2308.22761402 690.68289186 2300.33047777 691.9375 2292.4375 C693.65176687 2281.64790262 695.10077232 2270.83385303 696.5 2260 C698.03285999 2248.13146705 699.67420456 2236.29652991 701.55297852 2224.47680664 C702.83526467 2216.31487169 703.90809402 2208.13484932 704.9375 2199.9375 C706.28170173 2189.24359898 707.78431551 2178.58791526 709.4375 2167.9375 C711.44263365 2155.01797587 713.20664628 2142.07763122 714.87860107 2129.11102295 C716.28680982 2118.20554152 717.82701359 2107.33561497 719.55322266 2096.47509766 C720.83548175 2088.31374404 721.90822709 2080.13428315 722.9375 2071.9375 C724.38672733 2060.40188034 726.04077027 2048.91448364 727.82147217 2037.42596436 C729.58522643 2026.02250233 731.11526437 2014.60596583 732.55297852 2003.15649414 C733.55764983 1995.22761402 734.68289186 1987.33047777 735.9375 1979.4375 C737.65176687 1968.64790262 739.10077232 1957.83385303 740.5 1947 C741.89922848 1936.16614076 743.34840299 1925.35212849 745.0625 1914.5625 C746.72108245 1904.1184063 748.12844329 1893.65238999 749.42993164 1883.15844727 C750.18521636 1877.12238418 750.97761599 1871.09880025 751.875 1865.08227539 C754.66289432 1846.31838537 756.79316567 1827.52528483 758.74393463 1808.65943146 C759.0045031 1806.14402925 759.26709844 1803.62884564 759.5302124 1801.1137085 C761.75616058 1779.81687859 763.83823326 1758.51801079 765.56689453 1737.17431641 C767.05699693 1718.82499693 768.85138521 1700.50791155 770.64672852 1682.1862793 C770.90652244 1679.53305103 771.16623111 1676.87981461 771.42578125 1674.2265625 C771.49060259 1673.56434755 771.55542393 1672.90213261 771.62220955 1672.21985054 C772.6266412 1661.94883614 773.59579467 1651.67488226 774.54296875 1641.3984375 C774.67017617 1640.0191544 774.79738868 1638.63987176 774.92460632 1637.2605896 C774.9874157 1636.57958254 775.05022509 1635.89857548 775.11493778 1635.19693184 C777.67118576 1607.48462881 780.39689863 1579.804088 783.63092041 1552.16168213 C784.03931282 1548.66323083 784.44436789 1545.1644015 784.84912109 1541.66552734 C785.61554214 1535.0460735 786.38750447 1528.42728751 787.16384888 1521.80899048 C787.46628089 1519.22900187 787.76780583 1516.64890674 788.06832886 1514.06869507 C789.59000381 1501.03346655 791.1820928 1488.03753586 793.34643555 1475.09179688 C794.08510964 1470.61829244 794.64738735 1466.12623601 795.1875 1461.625 C795.27103729 1460.93262238 795.35457458 1460.24024475 795.44064331 1459.52688599 C795.8478249 1455.96632921 796 1452.60031593 796 1449 C618.13 1449 440.26 1449 257 1449 Z " fill="#010101" transform="translate(0,0)"/>
<path d="M0 0 C0.66 0 1.32 0 2 0 C2.04487549 0.86238281 2.08975098 1.72476563 2.13598633 2.61328125 C2.31540022 5.99868503 2.50087089 9.3836671 2.68969727 12.76855469 C2.76840623 14.19877324 2.8450888 15.6291056 2.91918945 17.05957031 C3.39328604 26.17530333 4.10123603 35.24851776 4.99920654 44.3326416 C7.16879678 66.31160905 8.52082744 88.33085506 9.87078857 110.37316895 C10.4399003 119.65543368 11.01756827 128.93716563 11.59765625 138.21875 C11.6900099 139.70279642 11.6900099 139.70279642 11.78422928 141.21682358 C12.43630548 151.66818342 13.11818774 162.1089133 14.05859375 172.5390625 C15.45356935 188.11286508 16.1061173 203.74036856 16.875 219.35491943 C17.03848775 222.65093782 17.2067562 225.94670437 17.3749752 229.24248409 C17.85516312 238.66316382 18.30679426 248.08496234 18.74285889 257.50778198 C18.91420149 261.19946767 19.09251767 264.89072507 19.27618408 268.58181763 C21.0302091 304.03873503 21.37626893 339.45635294 21.37022233 374.94735074 C21.37082831 380.16722 21.38715915 385.38688132 21.41162109 390.60668945 C21.64878153 442.40606125 20.51397562 494.23297695 13.45263672 545.63378906 C13.00561847 548.95821601 12.60570282 552.28483174 12.22265625 555.6171875 C10.72737872 568.54988597 8.61716935 581.24980411 6 594 C5.59087229 596.03900763 5.18202788 598.07807213 4.7734375 600.1171875 C4.34995246 602.20332705 3.92549179 604.28926882 3.5 606.375 C3.31066895 607.31279297 3.12133789 608.25058594 2.92626953 609.21679688 C0.10497467 622.81009348 -3.79454337 636.03354001 -8.1875 649.1875 C-8.42643982 649.90478271 -8.66537964 650.62206543 -8.91156006 651.36108398 C-12.89783168 663.26736531 -17.37478119 674.7596979 -23 686 C-23.35771484 686.73025391 -23.71542969 687.46050781 -24.08398438 688.21289062 C-31.84790168 703.97768501 -41.25808884 717.99544563 -53.58300781 730.54785156 C-54.91744801 731.91539985 -56.22157426 733.31234139 -57.5234375 734.7109375 C-76.49902294 754.66907752 -105.53354136 767.63716045 -133 769 C-138.99991713 769.10537871 -144.99981421 769.05882535 -151 769 C-149.40819713 765.3822662 -147.17084013 762.622983 -144.6875 759.5625 C-116.80547605 724.15445324 -98.70139327 677.98005555 -89.46484375 634.10644531 C-88.76017735 630.91324062 -87.8782176 627.77423344 -87 624.625 C-81.06649785 602.54575296 -77.29216372 579.95131531 -73.41992188 557.43902588 C-73.0257453 555.14953604 -72.62827398 552.86063886 -72.23046875 550.57177734 C-66.58470607 517.89452501 -62.89801157 484.92118146 -59 452 C-58.8794928 450.98379578 -58.7589856 449.96759155 -58.63482666 448.92059326 C-56.05941223 427.17438729 -53.72900857 405.40417 -51.56347656 383.61328125 C-48.17621095 349.53002499 -44.22777642 315.56747188 -39.1628418 281.68994141 C-37.6373025 271.47207189 -36.2201554 261.25135638 -34.9375 251 C-33.55075282 239.93404489 -31.95509956 228.91287922 -30.24536133 217.89352417 C-28.47707393 206.46982355 -26.91612593 195.02708449 -25.4375 183.5625 C-23.9472283 172.00848418 -22.35233363 160.48831454 -20.51928711 148.98266602 C-18.87571537 138.51692081 -17.53522675 128.01483293 -16.17825317 117.50900269 C-14.75097491 106.47677345 -13.19649766 95.47907732 -11.44921875 84.4921875 C-9.93712323 74.87087005 -8.71837967 65.21661853 -7.50415039 55.55419922 C-6.29171004 46.0037714 -4.87557759 36.49846483 -3.36816406 26.99072266 C-1.96190978 18.01983894 -0.8872358 9.03579618 0 0 Z " fill="#FDFDFD" transform="translate(681,2571)"/>
<path d="M0 0 C331.98 0 663.96 0 1006 0 C1006 1312.08 1006 2624.16 1006 3976 C674.02 3976 342.04 3976 0 3976 C0 2663.92 0 1351.84 0 0 Z M4 4 C3.55132408 275.36510036 3.55132408 275.36510036 3.22379851 546.73036075 C3.22153317 549.18295849 3.21926594 551.63555622 3.21699706 554.08815396 C3.2110836 560.49599635 3.20523234 566.90383879 3.19939264 573.31168124 C3.19574938 577.29695008 3.19207433 581.28221888 3.18838786 585.26748768 C3.11959971 659.67883378 3.06158715 734.090188 3.11793484 1624.38881011 C3.12039252 1631.87024347 3.12284042 1639.35167683 3.12528289 1646.83311019 C3.16017549 1753.69120226 3.19704244 1860.54929362 3.3625737 2287.91885211 C3.37337901 2314.62522268 3.38416375 2341.33159326 3.39489746 2368.03796387 C3.3953414 2369.14248647 3.39578533 2370.24700907 3.39624272 2371.38500206 C3.4390934 2478.0268394 3.47825822 2584.66867801 3.51659092 2691.31051706 C3.51823226 2695.87601812 3.51987462 2700.44151919 3.52151702 2705.00702025 C3.53664041 2747.04682031 3.55172233 2789.08662039 3.5667524 2831.12642048 C3.56715237 2832.24513257 3.56755233 2833.36384466 3.56796442 2834.51645711 C3.5691754 2837.90363048 3.57038637 2841.29080385 3.57159733 2844.67797722 C3.60423826 2935.97681166 3.63723858 3027.27564596 3.67047484 3118.57448019 C3.67164519 3121.7896371 3.67281526 3125.004794 3.67398524 3128.21995091 C3.71177956 3232.07669577 3.75019699 3335.93344038 3.82077868 3518.59800531 C3.82186713 3521.39825961 3.82295522 3524.1985139 3.82404317 3526.9987682 C3.82439932 3527.91542094 3.82475548 3528.83207368 3.82512243 3529.77650378 C3.82577064 3531.44486167 3.82641881 3533.11321955 3.82706691 3534.78157744 C3.88369621 3680.52105202 3.94207832 3826.26052592 4 3972 C333.34 3972 662.68 3972 1002 3972 C1002.08756724 3749.09626033 1002.08756724 3749.09626033 1002.17383855 3526.19252015 C1002.17454464 3524.34978752 1002.17525073 3522.50705489 1002.17595683 3520.66432226 C1002.17631088 3519.74029564 1002.17666493 3518.81626901 1002.17702971 3517.86424157 C1002.17813292 3514.98534197 1002.1792365 3512.10644236 1002.18034018 3509.22754276 C1002.22020769 3405.23227891 1002.25929237 3301.23701481 1002.32718385 3113.22863452 C1002.32835482 3109.9688529 1002.32952606 3106.70907128 1002.33069739 3103.44928965 C1002.36394957 3010.9082517 1002.3969487 2918.36721365 1002.42961312 2825.82617549 C1002.4308246 2822.39395262 1002.43203609 2818.96172976 1002.4332476 2815.52950689 C1002.43364774 2814.39590425 1002.43404787 2813.26230161 1002.43446013 2812.09434738 C1002.4494953 2769.50092707 1002.46458772 2726.90750678 1002.47971445 2684.3140865 C1002.48135708 2679.68866362 1002.48299906 2675.06324073 1002.48464044 2670.43781785 C1002.5229876 2562.37663533 1002.56228948 2454.31545331 1002.60510254 2346.25427246 C1002.60554641 2345.13389745 1002.60599029 2344.01352244 1002.60644761 2342.85919668 C1002.61718178 2315.77065177 1002.62797062 2288.68210689 1002.63877341 2261.59356201 C1002.68285539 2151.05189346 1002.72671969 2040.51022482 1002.87576344 1612.10066186 C1002.87820706 1604.52991869 1002.8806608 1596.95917553 1002.88311923 1589.38843238 C1002.91721955 1484.34459964 1002.9493066 1379.30076638 1002.80787947 552.1476037 C1002.80425004 548.34282417 1002.8006528 544.53804462 1002.79706775 540.73326505 C1002.79126748 534.57765022 1002.78541639 528.42203544 1002.7795257 522.2664207 C1002.77741747 520.05982846 1002.77531993 517.85323621 1002.77323694 515.64664395 C1002.61180823 345.09762243 1002.28622338 174.54884847 1002 4 C672.66 4 343.32 4 4 4 Z " fill="#FDFDFD" transform="translate(0,0)"/>
<path d="M0 0 C3.51477272 0.00540696 7.02942037 0.00000331 10.54418945 -0.00634766 C12.78833036 -0.00568764 15.03247119 -0.00440805 17.27661133 -0.00244141 C18.32244888 -0.00446564 19.36828644 -0.00648987 20.44581604 -0.00857544 C21.42130905 -0.00542328 22.39680206 -0.00227112 23.40185547 0.00097656 C24.25453506 0.00177216 25.10721466 0.00256775 25.98573303 0.00338745 C28.55427248 0.13688432 30.91582317 0.59670594 33.42895508 1.13037109 C35.50310356 1.33758078 37.57757825 1.54242135 39.65405273 1.72485352 C73.02512244 4.67948025 105.99439259 11.92962292 138.42895508 20.13037109 C139.10732422 20.30101074 139.78569336 20.47165039 140.48461914 20.64746094 C153.0329827 23.82982251 165.44977344 27.54053139 177.89038086 31.11474609 C183.73496912 32.79223244 189.58197781 34.46123304 195.42895508 36.13037109 C195.24977539 36.71399414 195.0705957 37.29761719 194.88598633 37.89892578 C192.2258061 46.59287845 189.84437755 55.3661109 187.42895508 64.13037109 C181.60925109 63.54511273 176.33092773 62.38051655 170.74145508 60.69287109 C133.98387495 49.93719812 96.99020116 40.7607909 59.16088867 34.58642578 C57.3614764 34.28604132 55.5646965 33.96936463 53.77124023 33.63525391 C36.63462872 30.52279012 19.37094794 29.78056261 1.99145508 29.88037109 C0.58769623 29.88402679 0.58769623 29.88402679 -0.84442139 29.88775635 C-13.76897661 29.92715964 -26.5739099 30.21418254 -39.40942383 31.86132812 C-41.52766095 32.12497137 -43.64480291 32.33667962 -45.77026367 32.53271484 C-68.68945123 34.7401902 -91.24055067 40.7560373 -113.57104492 46.13037109 C-114.65337402 46.38963379 -115.73570312 46.64889648 -116.85083008 46.91601562 C-134.00750359 51.04448307 -151.00236939 55.6939305 -167.79370117 61.13037109 C-168.79578613 61.45465088 -169.79787109 61.77893066 -170.83032227 62.11303711 C-172.73291408 62.73343369 -174.63314795 63.36112578 -176.53051758 63.99731445 C-177.38307129 64.27712158 -178.235625 64.55692871 -179.11401367 64.84521484 C-179.85675537 65.09392334 -180.59949707 65.34263184 -181.36474609 65.59887695 C-183.83132716 66.1930727 -186.04300595 66.22177947 -188.57104492 66.13037109 C-189.91419996 62.21700316 -191.24385164 58.29917827 -192.57104492 54.38037109 C-192.95260742 53.26919922 -193.33416992 52.15802734 -193.72729492 51.01318359 C-194.08823242 49.94326172 -194.44916992 48.87333984 -194.82104492 47.77099609 C-195.15620117 46.78647461 -195.49135742 45.80195312 -195.83666992 44.78759766 C-196.57104492 42.13037109 -196.57104492 42.13037109 -196.57104492 38.13037109 C-188.90755957 35.78652107 -181.24050225 33.45460235 -173.57104492 31.13037109 C-172.7832666 30.89092773 -171.99548828 30.65148437 -171.18383789 30.40478516 C-159.59615262 26.89239336 -147.90570785 23.82709099 -136.18139648 20.80615234 C-132.72311542 19.91085474 -129.27173019 18.9920287 -125.82104492 18.06787109 C-124.6325293 17.75333984 -123.44401367 17.43880859 -122.21948242 17.11474609 C-119.71834578 16.43992122 -117.22369818 15.74071073 -114.73510742 15.02099609 C-89.37803982 7.81475105 -62.80823274 3.40070547 -36.57104492 1.13037109 C-35.60996826 1.0361084 -34.6488916 0.9418457 -33.65869141 0.84472656 C-22.45601361 -0.13016689 -11.23651437 -0.02063931 0 0 Z " fill="#020202" transform="translate(489.571044921875,716.86962890625)"/>
<path d="M0 0 C0.66 0 1.32 0 2 0 C2.08131463 1.43655854 2.13933559 2.8744483 2.1875 4.3125 C2.23970703 5.51326172 2.23970703 5.51326172 2.29296875 6.73828125 C2 9 2 9 -1 12 C-0.67 8.04 -0.34 4.08 0 0 Z " fill="#AEAEAE" transform="translate(681,2571)"/>
</svg>
