<?xml version="1.0" encoding="UTF-8"?>
<!DOCTYPE svg PUBLIC "-//W3C//DTD SVG 1.1//EN" "http://www.w3.org/Graphics/SVG/1.1/DTD/svg11.dtd">
<svg xmlns="http://www.w3.org/2000/svg" version="1.1" width="1006px" height="3975px" style="shape-rendering:geometricPrecision; text-rendering:geometricPrecision; image-rendering:optimizeQuality; fill-rule:evenodd; clip-rule:evenodd" xmlns:xlink="http://www.w3.org/1999/xlink">
<g><path style="opacity:0.769" fill="#fdfdfd" d="M -0.5,-0.5 C 334.833,-0.5 670.167,-0.5 1005.5,-0.5C 1005.5,1324.5 1005.5,2649.5 1005.5,3974.5C 670.167,3974.5 334.833,3974.5 -0.5,3974.5C -0.5,2649.5 -0.5,1324.5 -0.5,-0.5 Z M 1001.5,802.5 C 994.467,755.105 975.967,712.772 946,675.5C 921.833,647.333 895.667,621.167 867.5,597C 808.248,548.419 749.581,499.085 691.5,449C 667.319,428.848 640.985,411.848 612.5,398C 571.585,380.795 529.251,376.128 485.5,384C 461.429,391.536 438.429,401.536 416.5,414C 315.922,473.393 222.755,542.893 137,622.5C 132.333,627.833 127.667,633.167 123,638.5C 82.2964,695.608 45.963,755.608 14,818.5C 9.07244,830.56 5.57244,842.893 3.5,855.5C 3.5,571.5 3.5,287.5 3.5,3.5C 336.167,3.5 668.833,3.5 1001.5,3.5C 1001.5,269.833 1001.5,536.167 1001.5,802.5 Z M 1001.5,904.5 C 1001.5,1926.5 1001.5,2948.5 1001.5,3970.5C 668.833,3970.5 336.167,3970.5 3.5,3970.5C 3.5,2963.83 3.5,1957.17 3.5,950.5C 11.1208,999.31 23.6208,1046.98 41,1093.5C 65.9107,1158.33 94.9107,1221.33 128,1282.5C 152.489,1327.49 177.989,1371.82 204.5,1415.5C 203.833,1416.17 203.167,1416.83 202.5,1417.5C 221.333,1460.5 240.167,1503.5 259,1546.5C 259.667,1548.17 259.667,1549.83 259,1551.5C 251.803,1568.96 246.47,1586.96 243,1605.5C 239.923,1632.17 249.423,1653.01 271.5,1668C 277.915,1672.29 284.415,1676.46 291,1680.5C 291.862,1718.17 292.196,1755.83 292,1793.5C 267.229,1802.94 250.562,1820.27 242,1845.5C 233.435,1868.86 233.435,1892.2 242,1915.5C 252.322,1937.32 269.488,1949.65 293.5,1952.5C 293.667,1974.17 293.5,1995.84 293,2017.5C 272.826,2033.34 258.493,2053.34 250,2077.5C 242.128,2117.73 256.628,2146.73 293.5,2164.5C 295.052,2180.47 295.552,2196.47 295,2212.5C 272.734,2222.77 258.401,2239.77 252,2263.5C 242.761,2307.31 257.261,2340.65 295.5,2363.5C 296.666,2382.82 296.833,2402.16 296,2421.5C 276.389,2435.77 262.056,2454.1 253,2476.5C 245.351,2502.34 248.684,2526.68 263,2549.5C 272.022,2562.69 283.188,2573.69 296.5,2582.5C 297.666,2598.16 297.833,2613.82 297,2629.5C 260.337,2650.64 241.17,2682.47 239.5,2725C 241.38,2756.13 256.047,2778.79 283.5,2793C 288.814,2794.61 294.148,2796.11 299.5,2797.5C 305.611,2845.69 322.777,2889.36 351,2928.5C 398.609,2983.53 458.776,3006.7 531.5,2998C 625.944,2982.22 685.444,2928.06 710,2835.5C 714.21,2817.03 717.21,2798.36 719,2779.5C 721.124,2753.18 722.957,2726.85 724.5,2700.5C 758.241,2687.24 777.741,2662.58 783,2626.5C 786.187,2602.41 780.521,2580.74 766,2561.5C 755.836,2550.08 743.17,2543.08 728,2540.5C 727.055,2540.09 726.388,2539.43 726,2538.5C 725.333,2515.5 725.333,2492.5 726,2469.5C 760.619,2454.46 778.119,2427.96 778.5,2390C 778.917,2371.92 774.084,2355.42 764,2340.5C 753.948,2327.45 740.948,2318.79 725,2314.5C 724.333,2299.17 724.333,2283.83 725,2268.5C 741.46,2260.26 755.46,2248.93 767,2234.5C 784.536,2207.14 784.87,2179.47 768,2151.5C 757.323,2134.66 742.823,2122.32 724.5,2114.5C 722.803,2100.18 722.47,2085.85 723.5,2071.5C 759.28,2054.5 777.614,2026 778.5,1986C 777.692,1956.39 766.359,1931.72 744.5,1912C 738.889,1907.9 732.889,1904.4 726.5,1901.5C 725.334,1890.52 725.168,1879.52 726,1868.5C 750.387,1853.71 767.72,1833.05 778,1806.5C 785.792,1778.3 782.125,1751.64 767,1726.5C 757.138,1709.64 744.138,1695.64 728,1684.5C 732.82,1643.09 738.487,1601.76 745,1560.5C 771,1521.17 797,1481.83 823,1442.5C 825.383,1439.73 828.217,1437.56 831.5,1436C 839.968,1424.84 846.802,1412.67 852,1399.5C 892.001,1304.17 927.668,1207.17 959,1108.5C 967.842,1070.13 976.842,1031.8 986,993.5C 992.422,963.909 997.589,934.242 1001.5,904.5 Z"/></g>
<g><path style="opacity:0.981" fill="#010101" d="M 1001.5,802.5 C 1002.81,836.498 1002.81,870.498 1001.5,904.5C 997.589,934.242 992.422,963.909 986,993.5C 976.842,1031.8 967.842,1070.13 959,1108.5C 927.668,1207.17 892.001,1304.17 852,1399.5C 846.802,1412.67 839.968,1424.84 831.5,1436C 828.217,1437.56 825.383,1439.73 823,1442.5C 797,1481.83 771,1521.17 745,1560.5C 738.487,1601.76 732.82,1643.09 728,1684.5C 744.138,1695.64 757.138,1709.64 767,1726.5C 782.125,1751.64 785.792,1778.3 778,1806.5C 767.72,1833.05 750.387,1853.71 726,1868.5C 725.168,1879.52 725.334,1890.52 726.5,1901.5C 732.889,1904.4 738.889,1907.9 744.5,1912C 766.359,1931.72 777.692,1956.39 778.5,1986C 777.614,2026 759.28,2054.5 723.5,2071.5C 722.47,2085.85 722.803,2100.18 724.5,2114.5C 742.823,2122.32 757.323,2134.66 768,2151.5C 784.87,2179.47 784.536,2207.14 767,2234.5C 755.46,2248.93 741.46,2260.26 725,2268.5C 724.333,2283.83 724.333,2299.17 725,2314.5C 740.948,2318.79 753.948,2327.45 764,2340.5C 774.084,2355.42 778.917,2371.92 778.5,2390C 778.119,2427.96 760.619,2454.46 726,2469.5C 725.333,2492.5 725.333,2515.5 726,2538.5C 726.388,2539.43 727.055,2540.09 728,2540.5C 743.17,2543.08 755.836,2550.08 766,2561.5C 780.521,2580.74 786.187,2602.41 783,2626.5C 777.741,2662.58 758.241,2687.24 724.5,2700.5C 722.957,2726.85 721.124,2753.18 719,2779.5C 717.21,2798.36 714.21,2817.03 710,2835.5C 685.444,2928.06 625.944,2982.22 531.5,2998C 458.776,3006.7 398.609,2983.53 351,2928.5C 322.777,2889.36 305.611,2845.69 299.5,2797.5C 294.148,2796.11 288.814,2794.61 283.5,2793C 256.047,2778.79 241.38,2756.13 239.5,2725C 241.17,2682.47 260.337,2650.64 297,2629.5C 297.833,2613.82 297.666,2598.16 296.5,2582.5C 283.188,2573.69 272.022,2562.69 263,2549.5C 248.684,2526.68 245.351,2502.34 253,2476.5C 262.056,2454.1 276.389,2435.77 296,2421.5C 296.833,2402.16 296.666,2382.82 295.5,2363.5C 257.261,2340.65 242.761,2307.31 252,2263.5C 258.401,2239.77 272.734,2222.77 295,2212.5C 295.552,2196.47 295.052,2180.47 293.5,2164.5C 256.628,2146.73 242.128,2117.73 250,2077.5C 258.493,2053.34 272.826,2033.34 293,2017.5C 293.5,1995.84 293.667,1974.17 293.5,1952.5C 269.488,1949.65 252.322,1937.32 242,1915.5C 233.435,1892.2 233.435,1868.86 242,1845.5C 250.562,1820.27 267.229,1802.94 292,1793.5C 292.196,1755.83 291.862,1718.17 291,1680.5C 284.415,1676.46 277.915,1672.29 271.5,1668C 249.423,1653.01 239.923,1632.17 243,1605.5C 246.47,1586.96 251.803,1568.96 259,1551.5C 259.667,1549.83 259.667,1548.17 259,1546.5C 240.167,1503.5 221.333,1460.5 202.5,1417.5C 203.167,1416.83 203.833,1416.17 204.5,1415.5C 177.989,1371.82 152.489,1327.49 128,1282.5C 94.9107,1221.33 65.9107,1158.33 41,1093.5C 23.6208,1046.98 11.1208,999.31 3.5,950.5C 2.20213,918.83 2.20213,887.163 3.5,855.5C 5.57244,842.893 9.07244,830.56 14,818.5C 45.963,755.608 82.2964,695.608 123,638.5C 127.667,633.167 132.333,627.833 137,622.5C 222.755,542.893 315.922,473.393 416.5,414C 438.429,401.536 461.429,391.536 485.5,384C 529.251,376.128 571.585,380.795 612.5,398C 640.985,411.848 667.319,428.848 691.5,449C 749.581,499.085 808.248,548.419 867.5,597C 895.667,621.167 921.833,647.333 946,675.5C 975.967,712.772 994.467,755.105 1001.5,802.5 Z"/></g>
<g><path style="opacity:1" fill="#fdfdfd" d="M 506.5,410.5 C 553.086,406.979 595.753,418.146 634.5,444C 672.637,472.087 709.303,502.087 744.5,534C 787.086,568.581 829.086,603.915 870.5,640C 895.652,663.135 917.819,688.635 937,716.5C 966.324,765.807 978.324,819.141 973,876.5C 970.758,907.602 966.592,938.435 960.5,969C 951.902,1006.89 943.069,1044.72 934,1082.5C 931.9,1091.77 930.234,1101.1 929,1110.5C 897.892,1201.5 864.225,1291.5 828,1380.5C 823.078,1392.94 817.578,1405.1 811.5,1417C 621.167,1417.67 430.833,1417.67 240.5,1417C 197.419,1347.02 157.252,1275.19 120,1201.5C 93.5556,1147.84 71.2223,1092.5 53,1035.5C 36.614,985.131 29.2807,933.465 31,880.5C 31.7303,862.514 35.3969,845.18 42,828.5C 74.0704,766.656 110.404,707.656 151,651.5C 185.868,616.858 222.701,584.691 261.5,555C 318.499,510.357 378.499,470.024 441.5,434C 453.714,428.06 466.047,422.393 478.5,417C 487.694,413.599 497.028,411.432 506.5,410.5 Z"/></g>
<g><path style="opacity:1" fill="#020202" d="M 475.5,714.5 C 519.145,714.378 562.145,719.545 604.5,730C 631.496,736.58 658.163,744.08 684.5,752.5C 681.545,761.36 679.212,770.36 677.5,779.5C 639.354,768.13 600.688,758.63 561.5,751C 511.417,742.011 461.417,742.344 411.5,752C 374.389,760.091 337.722,769.925 301.5,781.5C 298.017,772.886 295.017,764.052 292.5,755C 337.293,738.967 383.293,726.967 430.5,719C 445.64,717.353 460.64,715.853 475.5,714.5 Z"/></g>
<g><path style="opacity:1" fill="#9d9d9e" d="M 783.5,1447.5 C 605.164,1446.83 427.164,1447.5 249.5,1449.5C 248.596,1448.79 248.263,1447.79 248.5,1446.5C 427.57,1446.17 605.903,1446.5 783.5,1447.5 Z"/></g>
<g><path style="opacity:1" fill="#b7b7b8" d="M 783.5,1447.5 C 761.582,1481.27 739.415,1514.93 717,1548.5C 715.956,1550.71 715.29,1553.05 715,1555.5C 708.112,1603.99 701.279,1652.49 694.5,1701C 694.833,1702.5 695.167,1704 695.5,1705.5C 703.681,1705.7 711.014,1708.2 717.5,1713C 731.846,1725.53 742.346,1740.7 749,1758.5C 756.003,1780.48 752.337,1800.48 738,1818.5C 725.787,1832.05 711.787,1843.38 696,1852.5C 695.5,1876.16 695.333,1899.83 695.5,1923.5C 725.511,1928.68 743.011,1946.34 748,1976.5C 750.952,2016.52 732.952,2040.86 694,2049.5C 693.5,2079.5 693.333,2109.5 693.5,2139.5C 721.154,2141.26 739.654,2155.26 749,2181.5C 752.469,2195.49 749.802,2208.16 741,2219.5C 735.761,2225.41 729.928,2230.58 723.5,2235C 714.203,2240.23 704.703,2245.07 695,2249.5C 694.5,2265.5 694.333,2281.5 694.5,2297.5C 694.5,2312.5 694.5,2327.5 694.5,2342.5C 696.167,2342.5 697.833,2342.5 699.5,2342.5C 730.695,2342.19 747.361,2357.69 749.5,2389C 747.818,2422.85 730.152,2441.68 696.5,2445.5C 696.5,2487.5 696.5,2529.5 696.5,2571.5C 732.34,2563.54 751.34,2577.71 753.5,2614C 751.625,2651.56 731.959,2672.39 694.5,2676.5C 693.863,2716.62 691.363,2756.62 687,2796.5C 682.793,2828.79 672.793,2859.12 657,2887.5C 628.483,2930.63 588.65,2957.13 537.5,2967C 494.662,2975.14 454.328,2968.47 416.5,2947C 383.822,2926.31 360.655,2897.81 347,2861.5C 335.292,2832.66 328.959,2802.66 328,2771.5C 318.523,2770.15 309.023,2768.65 299.5,2767C 281.566,2759.99 271.733,2746.83 270,2727.5C 270.318,2688.18 289.151,2662.51 326.5,2650.5C 327.833,2622.5 327.833,2594.5 326.5,2566.5C 311.967,2558.3 299.467,2547.64 289,2534.5C 275,2513.17 275,2491.83 289,2470.5C 298.911,2456.72 311.244,2445.72 326,2437.5C 326.5,2406.5 326.667,2375.5 326.5,2344.5C 287.084,2331.33 272.584,2304.67 283,2264.5C 290.891,2246.45 304.724,2237.45 324.5,2237.5C 324.833,2206.49 324.5,2175.49 323.5,2144.5C 309.041,2140.36 296.541,2133.03 286,2122.5C 277.117,2109.91 275.117,2096.25 280,2081.5C 289.618,2060.87 303.951,2044.21 323,2031.5C 323.5,2007.17 323.667,1982.84 323.5,1958.5C 323.5,1946.17 323.5,1933.83 323.5,1921.5C 320.941,1921.2 318.607,1921.53 316.5,1922.5C 308.493,1922.67 300.493,1922.5 292.5,1922C 276.778,1917.44 267.945,1906.94 266,1890.5C 263.209,1864.94 271.376,1843.78 290.5,1827C 295.333,1823.67 300.666,1821.83 306.5,1821.5C 311.833,1821.5 317.167,1821.5 322.5,1821.5C 322.83,1800.99 322.497,1780.66 321.5,1760.5C 321.833,1727.49 321.5,1694.49 320.5,1661.5C 304.363,1655.02 290.196,1645.69 278,1633.5C 273.68,1627.56 271.847,1620.89 272.5,1613.5C 272.381,1607.36 273.214,1601.36 275,1595.5C 280.047,1579.69 285.881,1564.19 292.5,1549C 278.017,1515.87 263.683,1482.7 249.5,1449.5C 427.164,1447.5 605.164,1446.83 783.5,1447.5 Z"/></g>
<g><path style="opacity:1" fill="#4b4b4b" d="M 321.5,1760.5 C 322.497,1780.66 322.83,1800.99 322.5,1821.5C 317.167,1821.5 311.833,1821.5 306.5,1821.5C 311.305,1820.51 316.305,1820.18 321.5,1820.5C 321.5,1800.5 321.5,1780.5 321.5,1760.5 Z"/></g>
<g><path style="opacity:1" fill="#4b4b4b" d="M 316.5,1922.5 C 318.607,1921.53 320.941,1921.2 323.5,1921.5C 323.5,1933.83 323.5,1946.17 323.5,1958.5C 322.505,1946.68 322.172,1934.68 322.5,1922.5C 320.5,1922.5 318.5,1922.5 316.5,1922.5 Z"/></g>
<g><path style="opacity:1" fill="#3a3a3a" d="M 694.5,2297.5 C 695.496,2311.99 695.829,2326.66 695.5,2341.5C 697.099,2341.23 698.432,2341.57 699.5,2342.5C 697.833,2342.5 696.167,2342.5 694.5,2342.5C 694.5,2327.5 694.5,2312.5 694.5,2297.5 Z"/></g>
</svg>
