<?xml version="1.0" encoding="UTF-8"?>
<!DOCTYPE svg PUBLIC "-//W3C//DTD SVG 1.1//EN" "http://www.w3.org/Graphics/SVG/1.1/DTD/svg11.dtd">
<svg xmlns="http://www.w3.org/2000/svg" version="1.1" width="1004px" height="3975px" style="shape-rendering:geometricPrecision; text-rendering:geometricPrecision; image-rendering:optimizeQuality; fill-rule:evenodd; clip-rule:evenodd" xmlns:xlink="http://www.w3.org/1999/xlink">
<g><path style="opacity:0.767" fill="#fdfdfd" d="M -0.5,-0.5 C 333.5,-0.5 667.5,-0.5 1001.5,-0.5C 1001.5,1008.5 1001.5,2017.5 1001.5,3026.5C 999.309,3014.07 997.976,3001.4 997.5,2988.5C 997.5,1993.5 997.5,998.5 997.5,3.5C 666.167,3.5 334.833,3.5 3.5,3.5C 3.5,1020.5 3.5,2037.5 3.5,3054.5C 0.878686,3087.5 0.878686,3120.5 3.5,3153.5C 3.5,3425.83 3.5,3698.17 3.5,3970.5C 334.833,3970.5 666.167,3970.5 997.5,3970.5C 997.5,3687.83 997.5,3405.17 997.5,3122.5C 998.478,3113.65 999.811,3104.98 1001.5,3096.5C 1001.5,3389.17 1001.5,3681.83 1001.5,3974.5C 667.5,3974.5 333.5,3974.5 -0.5,3974.5C -0.5,2649.5 -0.5,1324.5 -0.5,-0.5 Z M 997.5,3122.5 C 997.5,3405.17 997.5,3687.83 997.5,3970.5C 666.167,3970.5 334.833,3970.5 3.5,3970.5C 3.5,3698.17 3.5,3425.83 3.5,3153.5C 10.2798,3199.39 27.7798,3240.72 56,3277.5C 80.4656,3306.97 107.299,3334.13 136.5,3359C 196.086,3407.91 255.086,3457.58 313.5,3508C 337.28,3527.42 362.947,3544.09 390.5,3558C 431.942,3576.07 474.942,3581.07 519.5,3573C 541.735,3566.22 563.069,3557.22 583.5,3546C 676.653,3491.52 763.653,3428.52 844.5,3357C 866.971,3337.54 886.138,3315.37 902,3290.5C 934.459,3241.65 964.125,3190.98 991,3138.5C 992.9,3132.95 995.066,3127.61 997.5,3122.5 Z"/></g>
<g><path style="opacity:0.982" fill="#010101" d="M 997.5,2988.5 C 997.976,3001.4 999.309,3014.07 1001.5,3026.5C 1001.88,3038.67 1002.54,3050.67 1003.5,3062.5C 1003.5,3063.83 1003.5,3065.17 1003.5,3066.5C 1002.7,3076.34 1002.04,3086.34 1001.5,3096.5C 999.811,3104.98 998.478,3113.65 997.5,3122.5C 995.066,3127.61 992.9,3132.95 991,3138.5C 964.125,3190.98 934.459,3241.65 902,3290.5C 886.138,3315.37 866.971,3337.54 844.5,3357C 763.653,3428.52 676.653,3491.52 583.5,3546C 563.069,3557.22 541.735,3566.22 519.5,3573C 474.942,3581.07 431.942,3576.07 390.5,3558C 362.947,3544.09 337.28,3527.42 313.5,3508C 255.086,3457.58 196.086,3407.91 136.5,3359C 107.299,3334.13 80.4656,3306.97 56,3277.5C 27.7798,3240.72 10.2798,3199.39 3.5,3153.5C 0.878686,3120.5 0.878686,3087.5 3.5,3054.5C 7.28158,3024.41 12.4482,2994.41 19,2964.5C 27.6667,2927.83 36.3333,2891.17 45,2854.5C 58.9497,2783.75 73.2831,2713.08 88,2642.5C 96.0196,2607.76 104.353,2573.09 113,2538.5C 115.734,2526.68 121.734,2517.01 131,2509.5C 146.808,2489.39 162.974,2469.56 179.5,2450C 171.907,2436.22 166.074,2421.72 162,2406.5C 156.838,2384.99 162.338,2366.83 178.5,2352C 189.882,2343.3 202.216,2336.14 215.5,2330.5C 217.209,2296.52 217.875,2262.52 217.5,2228.5C 187.421,2221.26 167.254,2202.93 157,2173.5C 148.234,2147.77 151.901,2124.1 168,2102.5C 181.842,2088.49 198.675,2081.16 218.5,2080.5C 219.5,2061.5 219.5,2042.5 218.5,2023.5C 203.269,2013.44 190.102,2001.1 179,1986.5C 157.249,1951 163.082,1920.84 196.5,1896C 203.888,1891.64 211.554,1887.81 219.5,1884.5C 220.666,1870.85 220.833,1857.18 220,1843.5C 178.749,1826.67 162.416,1796.34 171,1752.5C 180.584,1728.42 197.417,1711.42 221.5,1701.5C 222.666,1684.84 222.833,1668.18 222,1651.5C 205.228,1642.4 191.228,1630.07 180,1614.5C 159.892,1578.65 165.058,1546.82 195.5,1519C 204.228,1511.89 213.394,1505.39 223,1499.5C 223.228,1487.48 223.728,1475.48 224.5,1463.5C 224.43,1462.23 224.097,1461.06 223.5,1460C 184.133,1444.64 162.133,1415.97 157.5,1374C 159.099,1343.41 173.766,1321.75 201.5,1309C 209.533,1305.74 217.867,1303.91 226.5,1303.5C 247.635,1195.2 312.969,1133.7 422.5,1119C 489.949,1111.2 552.616,1124.87 610.5,1160C 656.688,1190.91 685.522,1233.74 697,1288.5C 702.87,1322.61 706.703,1356.94 708.5,1391.5C 731.097,1397.53 749.264,1409.86 763,1428.5C 779.694,1455.29 780.694,1482.62 766,1510.5C 752.605,1529.78 734.105,1540.12 710.5,1541.5C 709.893,1562.51 709.893,1583.51 710.5,1604.5C 756.961,1620.13 776.128,1652.13 768,1700.5C 757.651,1728.27 737.818,1744.6 708.5,1749.5C 708.167,1762.85 708.501,1776.18 709.5,1789.5C 727.95,1796.8 744.117,1807.46 758,1821.5C 777.695,1848.89 777.029,1875.89 756,1902.5C 742.596,1917.7 726.263,1928.37 707,1934.5C 706.5,1946.5 706.333,1958.5 706.5,1970.5C 745.915,1982.59 767.248,2009.26 770.5,2050.5C 767.012,2089.82 746.846,2116.49 710,2130.5C 709.333,2139.17 709.333,2147.83 710,2156.5C 726.277,2165.31 740.943,2176.31 754,2189.5C 778.251,2218.86 780.917,2250.19 762,2283.5C 749.195,2302.64 732.861,2317.97 713,2329.5C 718.234,2365.91 724.234,2402.24 731,2438.5C 769.112,2478.94 806.112,2520.27 842,2562.5C 872.125,2604.06 897.125,2648.73 917,2696.5C 955.702,2790.65 982.535,2887.98 997.5,2988.5 Z"/></g>
<g><path style="opacity:1" fill="#b7b7b8" d="M 748.5,2499.5 C 729.341,2500.5 710.007,2500.83 690.5,2500.5C 565.833,2500.5 441.167,2500.5 316.5,2500.5C 270.5,2499.83 224.5,2499.17 178.5,2498.5C 190.616,2483.77 202.616,2468.94 214.5,2454C 204.602,2436.37 196.769,2417.87 191,2398.5C 188.376,2386.59 192.209,2377.42 202.5,2371C 216.286,2363.11 230.619,2356.27 245.5,2350.5C 246.629,2300.84 247.295,2251.17 247.5,2201.5C 212.888,2203.78 191.388,2188.11 183,2154.5C 180.571,2127.25 193.071,2112.42 220.5,2110C 229.842,2109.54 239.175,2109.7 248.5,2110.5C 248.667,2076.17 248.5,2041.83 248,2007.5C 233.848,1998.69 220.848,1988.36 209,1976.5C 201.275,1968.38 196.775,1958.71 195.5,1947.5C 196.948,1936.55 202.282,1928.05 211.5,1922C 223.526,1914.38 236.526,1909.21 250.5,1906.5C 250.5,1877.17 250.5,1847.83 250.5,1818.5C 225.489,1818.76 208.323,1807.43 199,1784.5C 195.302,1767.73 199.802,1753.56 212.5,1742C 224.139,1732.85 237.139,1726.35 251.5,1722.5C 252.289,1692.83 252.289,1663.16 251.5,1633.5C 235.531,1626.03 221.364,1616.03 209,1603.5C 193.048,1583.52 193.715,1564.19 211,1545.5C 223.452,1533.93 237.452,1524.6 253,1517.5C 253.5,1490.84 253.667,1464.17 253.5,1437.5C 224.533,1433.01 203.699,1417.68 191,1391.5C 182.296,1360.18 193.796,1340.68 225.5,1333C 235.111,1332.34 244.611,1331.17 254,1329.5C 256.241,1282.71 272.574,1241.71 303,1206.5C 340.321,1170.27 385.155,1150.43 437.5,1147C 492.978,1143.79 544.645,1156.12 592.5,1184C 639.801,1215.72 666.301,1260.22 672,1317.5C 676.185,1350.37 678.352,1383.37 678.5,1416.5C 695.947,1417.93 711.947,1423.43 726.5,1433C 747.395,1450.4 751.895,1471.24 740,1495.5C 732.738,1504.72 723.238,1510.22 711.5,1512C 701.153,1512.6 690.819,1512.43 680.5,1511.5C 680.5,1550.83 680.5,1590.17 680.5,1629.5C 695.689,1630.51 709.689,1635.01 722.5,1643C 741.373,1658.41 745.873,1677.24 736,1699.5C 727.637,1712.11 715.804,1719.28 700.5,1721C 693.174,1721.5 685.841,1721.67 678.5,1721.5C 678.5,1751.17 678.5,1780.83 678.5,1810.5C 696.627,1815.37 713.293,1823.2 728.5,1834C 745.431,1849.1 746.931,1865.6 733,1883.5C 718.299,1900.1 699.799,1908.43 677.5,1908.5C 677.167,1936.84 677.5,1965.17 678.5,1993.5C 698.758,1996.21 715.924,2004.88 730,2019.5C 746.527,2045.85 743.361,2069.69 720.5,2091C 708.829,2099.39 695.829,2104.56 681.5,2106.5C 680.334,2129.49 680.167,2152.49 681,2175.5C 699.224,2183.41 715.557,2194.08 730,2207.5C 747.029,2226.25 749.029,2246.58 736,2268.5C 726.025,2283.48 713.192,2295.31 697.5,2304C 690.979,2305.94 684.313,2306.77 677.5,2306.5C 686.316,2355.1 694.816,2403.77 703,2452.5C 718.034,2468.37 733.2,2484.03 748.5,2499.5 Z"/></g>
<g><path style="opacity:1" fill="#373738" d="M 178.5,2498.5 C 224.5,2499.17 270.5,2499.83 316.5,2500.5C 270.162,2500.83 223.829,2500.5 177.5,2499.5C 177.624,2498.89 177.957,2498.56 178.5,2498.5 Z"/></g>
<g><path style="opacity:1" fill="#222223" d="M 748.5,2499.5 C 749.043,2499.56 749.376,2499.89 749.5,2500.5C 729.671,2501.83 710.004,2501.83 690.5,2500.5C 710.007,2500.83 729.341,2500.5 748.5,2499.5 Z"/></g>
<g><path style="opacity:1" fill="#fdfdfd" d="M 157.5,2532.5 C 361.502,2532.84 565.502,2533.67 769.5,2535C 784.428,2543.91 797.594,2555.08 809,2568.5C 836.031,2602.6 858.697,2639.6 877,2679.5C 927.23,2791.42 958.897,2908.42 972,3030.5C 974.192,3054.54 973.859,3078.54 971,3102.5C 969.72,3111.29 967.054,3119.62 963,3127.5C 932.438,3186.99 898.105,3243.99 860,3298.5C 841.488,3319.01 821.655,3338.18 800.5,3356C 733.465,3412.04 662.798,3463.04 588.5,3509C 565.802,3523.02 541.802,3534.35 516.5,3543C 470.118,3552.55 426.451,3545.55 385.5,3522C 366.96,3510.9 349.293,3498.56 332.5,3485C 276.379,3435.87 219.379,3387.87 161.5,3341C 130.225,3314.73 102.058,3285.56 77,3253.5C 49.2914,3214.37 34.2914,3170.7 32,3122.5C 30.7614,3071.16 36.0947,3020.5 48,2970.5C 58.8056,2926.28 69.139,2881.94 79,2837.5C 95.7765,2745.62 115.11,2654.28 137,2563.5C 138.829,2552.67 143.663,2543.5 151.5,2536C 153.432,2534.54 155.432,2533.37 157.5,2532.5 Z"/></g>
</svg>
