<?xml version="1.0" encoding="UTF-8"?>
<svg version="1.1" xmlns="http://www.w3.org/2000/svg" width="1021" height="3976">
<path d="M0 0 C336.93 0 673.86 0 1021 0 C1021 1312.08 1021 2624.16 1021 3976 C684.07 3976 347.14 3976 0 3976 C0 2663.92 0 1351.84 0 0 Z M4 4 C4 1313.44 4 2622.88 4 3972 C338.29 3972 672.58 3972 1017 3972 C1017 2958.9 1017 1945.8 1017 902 C1016.67 902 1016.34 902 1016 902 C1015.91548584 902.64622314 1015.83097168 903.29244629 1015.74389648 903.95825195 C1010.63906026 942.02555391 998.42382013 977.00599806 983 1012 C982.54044922 1013.04978027 982.08089844 1014.09956055 981.60742188 1015.18115234 C975.62046529 1028.84748404 969.45506611 1042.43173044 963.25 1056 C962.91170166 1056.73989166 962.57340332 1057.47978333 962.22485352 1058.24209595 C958.8680168 1065.58135264 955.50507056 1072.91762162 952.11024475 1080.23939514 C943.90530145 1097.94027717 936.00540721 1115.757786 928.3125 1133.6875 C927.89263824 1134.66398499 927.47277649 1135.64046997 927.04019165 1136.64654541 C919.74187624 1153.64151386 912.7642648 1170.76235385 905.84239578 1187.91299057 C905.00512595 1189.98730062 904.16730551 1192.06138742 903.32931519 1194.13540649 C899.40101562 1203.85867727 895.48036183 1213.58501949 891.5625 1223.3125 C890.96699087 1224.79091419 890.37148102 1226.26932809 889.77597046 1227.7477417 C886.3328447 1236.29606987 882.89122113 1244.84500178 879.45092773 1253.39447021 C878.18827545 1256.53213883 876.92524391 1259.66965442 875.66210938 1262.80712891 C854.12229775 1316.32641193 832.96126952 1370.072941 815.0625 1424.9375 C814.8406604 1425.61294861 814.6188208 1426.28839722 814.39025879 1426.98431396 C808.93555123 1443.64045222 804.66054925 1460.40117468 801.68945312 1477.67114258 C801.39452309 1479.35134734 801.09916226 1481.03147653 800.80341339 1482.71153736 C797.23221129 1503.09848454 793.87495708 1523.52265592 790.5147686 1543.94520164 C789.5734946 1549.66250014 788.62911818 1555.37928639 787.68518066 1561.09614563 C786.09330286 1570.73982129 784.50344801 1580.38382857 782.91503906 1590.02807617 C781.32100897 1599.7064126 779.7254274 1609.38449117 778.12792969 1619.06225586 C777.83594839 1620.8311521 777.83594839 1620.8311521 777.53806847 1622.63578361 C777.14569594 1625.01284003 776.75332054 1627.38989597 776.36094224 1629.76695144 C773.82423991 1645.13479804 771.28899269 1660.50287608 768.76408386 1675.87266541 C768.57309362 1677.03520771 768.38210338 1678.19775001 768.18532556 1679.39552087 C767.42074581 1684.04969216 766.65619 1688.70386737 765.8919071 1693.35808742 C763.56467878 1707.52796971 761.22129218 1721.69501242 758.85716152 1735.85878372 C751.07005855 1782.51774456 743.96589259 1829.17613048 738.06476581 1876.11127257 C736.94471299 1885.0098111 735.79852796 1893.90497092 734.65136719 1902.80004883 C734.54467295 1903.62751299 734.43797872 1904.45497715 734.32805133 1905.30751598 C733.89599953 1908.65790165 733.46384151 1912.00827356 733.03138483 1915.35860699 C732.38469436 1920.36871221 731.73933396 1925.3789863 731.09504879 1930.38940138 C726.81349234 1963.67837094 722.33279521 1996.93876514 717.75 2030.1875 C717.65748931 2030.85896812 717.56497862 2031.53043625 717.46966457 2032.22225189 C703.26327496 2135.33022616 688.13492002 2238.31113932 471 3178 C470.58975586 3178.86286621 470.17951172 3179.72573242 469.75683594 3180.61474609 C453.44463667 3214.79545501 430.49501451 3256.07467768 393.21875 3270.30859375 C380.20178163 3274.36493777 366.43828335 3272.53313171 354.32421875 3266.71484375 C310.60404722 3242.30498126 292.13549299 3177.56459439 279.33227539 3132.52737427 C276.76888433 3123.38286673 274.36651068 3114.19708393 272 3105 C271.60468096 3103.47541643 271.20933651 3101.95083945 270.81396484 3100.42626953 C258.44939946 3052.52437083 250.03358585 3003.77902464 242 2955 C241.75700165 2953.52590668 241.75700165 2953.52590668 241.50909424 2952.02203369 C239.53915461 2940.03340536 237.72180635 2928.02661871 236 2916 C235.79271271 2914.5615271 235.79271271 2914.5615271 235.58123779 2913.09399414 C222.78081853 2824.15879948 213.72957432 2734.72775066 189 2388 C188.94450233 2386.95838715 188.88900467 2385.91677429 188.83182526 2384.84359741 C184.13765893 2296.53449938 180.87744315 2208.15804864 173.12339246 1915.51626301 C173.03117753 1910.63117512 172.93726096 1905.74612247 172.84246826 1900.86108398 C172.49158575 1882.70118717 172.18083366 1864.54097379 171.90729141 1846.37977123 C171.87508408 1844.25554557 171.8422101 1842.13133114 171.80917358 1840.00711823 C171.0925647 1793.70605204 170.95485807 1747.40829928 170.96996474 1701.10267067 C170.97353572 1689.47375381 170.96949114 1677.84485654 170.96130371 1666.21594238 C170.96018894 1664.53939248 170.95908309 1662.86284257 170.95798612 1661.18629265 C170.95131437 1651.06780976 170.95131437 1651.06780976 170.94381285 1640.94932747 C170.92897888 1621.53586319 170.93840607 1602.12282687 170.99922333 1582.70944364 C171.04183502 1568.97089714 171.0522324 1555.23261359 171.03268307 1541.49401319 C171.02298909 1533.92803013 171.02861356 1526.36276882 171.0759449 1518.79690933 C171.26075124 1488.10337476 171.17563568 1459.28349673 161 1430 C160.15799612 1427.28940818 159.34402747 1424.57207862 158.53672791 1421.85101032 C157.48891881 1418.39054317 156.30837968 1414.97843815 155.125 1411.5625 C154.61563178 1410.06499999 154.10644106 1408.56743959 153.59741211 1407.06982422 C142.20465393 1373.79700968 127.85886271 1341.6981954 112.8951416 1309.90423584 C111.63161487 1307.21633385 110.37288742 1304.52619289 109.1138916 1301.83616638 C102.47729719 1287.65923433 95.78367119 1273.51450239 88.9375 1259.4375 C81.6679815 1244.45701097 74.76439775 1229.32013663 67.9543457 1214.12615967 C66.99636084 1211.99189241 66.03479256 1209.85927306 65.07226562 1207.72705078 C38.53987414 1148.90579679 17.2837048 1088.2903461 9 1024 C8.88672363 1023.12553223 8.77344727 1022.25106445 8.65673828 1021.35009766 C6.39402773 1003.37352359 5.57798619 985.10971898 6 967 C6.01788574 966.14341797 6.03577148 965.28683594 6.05419922 964.40429688 C8.20113731 872.69713096 38.58453559 798.75057038 96.57617188 728.72363281 C98.58840473 726.28769935 100.5730775 723.82957525 102.5625 721.375 C110.57090278 711.60972641 118.82484604 702.08504046 127.40234375 692.81640625 C129.8795621 690.13058003 132.31876551 687.4149255 134.75 684.6875 C137.80748967 681.27638608 140.95613487 678.01004537 144.22729492 674.80517578 C145.94380403 673.05722532 147.5332834 671.25162283 149.12109375 669.38671875 C153.3508831 664.52491758 157.87150465 659.98173524 162.4375 655.4375 C163.24509766 654.62603516 164.05269531 653.81457031 164.88476562 652.97851562 C169.16680833 648.70337387 173.53064636 644.60915939 178.11743164 640.66430664 C181.22255834 637.91918296 184.10175615 634.96013536 187 632 C191.178839 627.7775797 195.36678275 623.65863308 199.90234375 619.81640625 C202.70922961 617.38586263 205.41022473 614.84460779 208.125 612.3125 C214.91421653 606.00589638 221.92512827 599.98226615 229 594 C230.10556327 593.06261146 231.21103364 592.12511336 232.31640625 591.1875 C234.47511193 589.35739154 236.63703721 587.5311786 238.80078125 585.70703125 C240.91283734 583.92464319 243.01345952 582.13008489 245.10546875 580.32421875 C252.46050534 573.99677469 260.06000697 568.05723312 267.79296875 562.19921875 C271.64583147 559.27905268 275.45583902 556.30836737 279.25 553.3125 C307.87133739 530.76578012 337.83457027 509.89936108 369 491 C369.87221191 490.47067871 370.74442383 489.94135742 371.64306641 489.39599609 C438.41080173 449.13608281 510.88015125 420.03388711 589.6875 438.25 C593.1412135 439.11173269 596.57261081 440.03927746 600 441 C600.81936035 441.22606934 601.6387207 441.45213867 602.48291016 441.68505859 C625.6343637 448.25080534 648.01968739 459.68801191 668 473 C668.66177246 473.43876465 669.32354492 473.8775293 670.00537109 474.32958984 C674.72437833 477.47750876 679.37256688 480.71936528 684 484 C684.72719238 484.51320801 685.45438477 485.02641602 686.20361328 485.55517578 C696.13727407 492.58163221 705.77150727 499.8852261 715.21191406 507.55908203 C717.57498855 509.46335096 719.96792704 511.32770198 722.36303711 513.19140625 C728.68041223 518.10735175 734.83063691 523.18565316 740.91796875 528.3828125 C743.74683013 530.79496524 746.61575122 533.15419998 749.5 535.5 C758.77248429 543.05486057 767.83786761 550.85358299 776.90283203 558.6550293 C780.45367929 561.70193968 784.04771193 564.6841755 787.6875 567.625 C792.38025975 571.43142592 796.82606263 575.45827771 801.26953125 579.55078125 C803.84459883 581.86060582 806.48254363 584.03243013 809.1875 586.1875 C814.77383253 590.69027665 819.9706212 595.56366783 825.16674805 600.50854492 C829.08444682 604.23285018 833.07120161 607.84898188 837.15356445 611.39208984 C841.86097339 615.49138843 846.42079128 619.75862266 851 624 C851.63035156 624.58378418 852.26070312 625.16756836 852.91015625 625.76904297 C860.40099204 632.71932187 867.80308684 639.72895472 874.98217773 647.00146484 C878.17651713 650.22271203 881.49056067 653.21980182 884.9375 656.1640625 C891.42503153 661.93894852 897.42914102 668.23371488 903.05859375 674.83984375 C905.60111247 677.66884345 908.29476823 680.32748112 911 683 C914.9054778 686.86298142 918.67130621 690.76738399 922.234375 694.953125 C924.3943342 697.45714849 926.63487993 699.87997698 928.875 702.3125 C932.88814907 706.71732278 936.71817818 711.22445647 940.45703125 715.86328125 C942.38712129 718.25765951 944.34984321 720.62248113 946.32421875 722.98046875 C953.63574383 731.72911426 960.57464331 740.58242038 967 750 C967.52561523 750.7626416 968.05123047 751.5252832 968.59277344 752.31103516 C992.60100223 787.22773756 1011.60102907 824.27922459 1016 867 C1016.33 867 1016.66 867 1017 867 C1017 582.21 1017 297.42 1017 4 C682.71 4 348.42 4 4 4 Z " fill="#FEFEFE" transform="translate(0,0)"/>
<path d="M0 0 C191.4 0 382.8 0 580 0 C579.39844168 5.41402488 578.91182057 9.57254762 577.56893921 14.61340332 C576.20459755 20.33656886 575.38258453 26.18169065 574.42578125 31.984375 C574.1789472 33.46713801 573.93186104 34.94985907 573.68453979 36.43254089 C573.02593525 40.38656621 572.37159757 44.34128631 571.7182579 48.29618454 C571.1746463 51.5836684 570.62850851 54.87073082 570.0824976 58.15781689 C566.9080588 77.27438729 563.78658819 96.39837643 560.77822876 115.54187012 C558.65289212 129.06182981 556.39108947 142.55414111 554.06112671 156.04025269 C551.76480943 169.3437027 549.5981767 182.6639327 547.5 196 C545.26822298 210.1852345 542.94463956 224.3498911 540.5 238.5 C537.77077707 254.30742217 535.19366094 270.13454326 532.69970703 285.98071289 C531.15538368 295.78379251 529.58299985 305.58119058 527.95703125 315.37109375 C522.3616039 349.08729432 517.71881656 382.81656695 513.61520386 416.74386597 C511.9201921 430.75462167 510.11905009 444.74219691 508.13137817 458.71435547 C506.43466303 470.64858082 504.90574712 482.59811427 503.4375 494.5625 C501.93541586 506.79820292 500.3176731 518.99956084 498.44897461 531.18579102 C497.14541969 539.77295084 496.05107047 548.37928187 495 557 C493.68080978 567.81210487 492.20992077 578.58879044 490.5703125 589.35766602 C489.08583303 599.20169242 487.78340211 609.06572947 486.5 618.9375 C485.00647149 630.40286651 483.49692274 641.86442866 481.875 653.3125 C481.65553711 654.88149048 481.65553711 654.88149048 481.43164062 656.48217773 C480.70727145 661.54028671 479.90602744 666.57175139 478.98085022 671.5973053 C476.68344949 684.12668878 475.0897136 696.74730424 473.4375 709.375 C472.98077038 712.8569885 472.5228889 716.33880916 472.06178284 719.82022095 C471.77752922 721.96698978 471.49571992 724.11408437 471.21690369 726.26156616 C470.44845813 732.07234363 469.53389855 737.83166365 468.44650269 743.59155273 C467.76714272 747.2560383 467.22480833 750.93747884 466.6875 754.625 C466.43140417 756.35943627 466.17485869 758.09380617 465.91796875 759.828125 C465.77536621 760.79169922 465.63276367 761.75527344 465.48583984 762.74804688 C464.93231004 766.45308053 464.36750844 770.15634323 463.80078125 773.859375 C463.36688444 776.69787043 462.93328802 779.53641157 462.5 782.375 C462.39104401 783.08874786 462.28208801 783.80249573 462.16983032 784.53787231 C460.70349892 794.16137823 459.28586914 803.788942 458.07617188 813.44873047 C457.45845181 818.21613451 456.64539198 822.91398523 455.7265625 827.6328125 C454.1971326 835.56594902 452.93215685 843.53746589 451.6875 851.51953125 C451.58249994 852.192724 451.47749989 852.86591675 451.36931801 853.55950928 C450.81172841 857.1381869 450.25597429 860.71714709 449.70101929 864.29623413 C448.49262112 872.08681441 447.27272889 879.87559741 446.05078125 887.6640625 C445.9254986 888.46271162 445.80021595 889.26136074 445.67113686 890.08421135 C439.79163398 927.53505386 433.67016223 964.95715678 427.16195679 1002.30395508 C426.26466964 1007.45799052 425.38083672 1012.61425304 424.50041199 1017.77119446 C420.25870469 1042.60979668 415.86222985 1067.40969769 411.16699219 1092.16674805 C409.00083969 1103.5969612 406.91713674 1115.03611608 404.9375 1126.5 C402.69425579 1139.47219361 400.16699885 1152.37652118 397.54962158 1165.27807617 C395.00409238 1177.82942555 392.6012986 1190.39937027 390.3125 1203 C387.94852743 1215.99425294 385.42676502 1228.93645171 382.66552734 1241.85302734 C381.7854407 1246.01455225 380.93393816 1250.18174474 380.08258057 1254.34922791 C376.95493319 1269.65876518 373.76471748 1284.95485608 370.52548218 1300.24118042 C370.09981271 1302.25102327 369.67499444 1304.26104664 369.25112915 1306.27127075 C366.70843652 1318.3223059 364.00955997 1330.32188098 361.125 1342.2956543 C359.69007248 1348.26290926 358.3686285 1354.25342317 357.0625 1360.25 C354.43868801 1372.16789928 351.63495076 1384.03590955 348.75439453 1395.89404297 C347.47607482 1401.15707966 346.20522662 1406.4219026 344.9375 1411.6875 C344.68814697 1412.72156982 344.43879395 1413.75563965 344.18188477 1414.82104492 C342.75740032 1420.75491732 341.38498535 1426.69768958 340.05786133 1432.65405273 C338.29306587 1440.57236559 336.39926334 1448.40540049 334.15161133 1456.20019531 C331.97694653 1463.84986943 330.11174867 1471.57241694 328.21401978 1479.29415894 C325.33021311 1491.01181802 322.36945952 1502.65418037 318.74145508 1514.16821289 C315.46433065 1524.57884259 312.52165836 1535.08299081 309.55102539 1545.58422852 C305.83642746 1558.69588302 301.79988194 1571.69351944 297.64453125 1584.671875 C296.14911044 1589.35436911 294.68602814 1594.04301442 293.26953125 1598.75 C283.5440265 1630.40099581 272.05340973 1661.57606308 259 1692 C258.7101825 1692.67591187 258.42036499 1693.35182373 258.12176514 1694.04821777 C251.39764285 1709.68905977 244.3938285 1725.17313116 236 1740 C235.53770996 1740.81758789 235.07541992 1741.63517578 234.59912109 1742.47753906 C209.13676829 1787.07703916 209.13676829 1787.07703916 189.07421875 1793.62890625 C182.25360381 1794.84916693 175.07881674 1795.04815927 168.9921875 1791.44921875 C140.15455615 1770.47125555 125.36122049 1728.52628006 116.2578125 1695.4609375 C115.32653114 1692.08639393 114.30337983 1688.75003883 113.2421875 1685.4140625 C104.45809391 1657.77019707 97.6993697 1629.72529141 91.90454102 1601.31982422 C91.2519764 1598.16353569 90.56310901 1595.01679406 89.85913086 1591.87158203 C86.48828016 1576.77607312 83.69437731 1561.6152425 81.0625 1546.375 C80.62366978 1543.85275978 80.18470336 1541.33054325 79.74560547 1538.80834961 C76.56817354 1520.50612103 73.48994068 1502.18936389 70.60400391 1483.83886719 C70.02599709 1480.16522967 69.44099753 1476.49275717 68.85546875 1472.8203125 C67.05557064 1461.43083381 65.4515644 1450.03565012 64.07128906 1438.58764648 C63.3473136 1432.61975389 62.50733166 1426.68641893 61.5625 1420.75 C59.74621317 1409.151677 58.56243103 1397.47722236 57.29356384 1385.80955505 C57.20828934 1385.02548782 57.12301483 1384.24142059 57.03515625 1383.43359375 C56.9495192 1382.64561905 56.86388214 1381.85764435 56.77565002 1381.04579163 C55.97456603 1373.7049158 55.11979148 1366.37085852 54.24926758 1359.03793335 C53.99796262 1356.92033219 53.7478224 1354.80259652 53.49804688 1352.68481445 C52.51016693 1344.3093268 52.51016693 1344.3093268 51.51611328 1335.93457031 C46.11894166 1290.53305994 42.1693961 1245.01789427 38.4987793 1199.44970703 C38.21576271 1195.94169686 37.9322759 1192.43372502 37.6484375 1188.92578125 C37.57933167 1188.07085712 37.51022583 1187.215933 37.43902588 1186.33510208 C36.5032838 1174.78930804 35.49013279 1163.25360859 34.38671875 1151.72265625 C33.25222721 1139.86470688 32.25253679 1128.00893825 31.4375 1116.125 C31.31193752 1114.33373402 31.18628411 1112.54247442 31.06054688 1110.7512207 C30.20809252 1098.5045398 29.45628693 1086.25341364 28.76269531 1073.99682617 C28.34580957 1066.66654119 27.89779183 1059.33999295 27.38671875 1052.015625 C19.96748694 945.55561211 15.6989308 838.88667665 9.5949707 656.68432617 C9.54360962 654.81346092 9.54360962 654.81346092 9.49121094 652.90480042 C9.43112229 650.69638147 9.37250023 648.48792149 9.31616211 646.27940369 C9.14979399 640.11372372 8.91651492 633.95309219 8.6483736 627.79114723 C8.05573832 614.13917888 7.6614616 600.48918612 7.3515625 586.828125 C7.3235833 585.61891891 7.2956041 584.40971283 7.26677704 583.16386414 C7.04413506 573.52609377 6.83205277 563.88811629 6.625 554.25 C6.60914384 553.51290865 6.59328768 552.7758173 6.57695103 552.01638985 C5.22216074 488.93233987 4.22959022 425.84264581 3.375 362.75 C3.35081592 360.96868762 3.35081592 360.96868762 3.32614326 359.15138912 C2.50296931 298.39648788 1.90036056 237.64253327 1.625 176.8828125 C1.62192103 176.20447562 1.61884206 175.52613873 1.61566979 174.82724619 C1.4815748 145.17867502 1.37855135 115.53002615 1.30055189 85.88125348 C1.2906591 82.196537 1.28020127 78.51182261 1.26950455 74.82710838 C1.26606734 73.64078902 1.26263012 72.45446965 1.25908875 71.23220122 C1.25226127 68.88112809 1.24539957 66.53005506 1.23850226 64.17898214 C1.21927774 57.45909829 1.20495817 50.73922762 1.19473112 44.0193243 C1.18764209 39.93238536 1.17667668 35.84546321 1.16473126 31.75853586 C1.16013335 29.88908941 1.15722071 28.01963788 1.15617824 26.15018606 C1.15459874 23.60471933 1.1470062 21.05933538 1.13803101 18.5138855 C1.13909977 17.79198032 1.14016853 17.07007515 1.14126968 16.32629406 C1.11214942 10.77540805 0.55965112 5.59651123 0 0 Z " fill="#FEFEFE" transform="translate(197,1449)"/>
<path d="M0 0 C336.93 0 673.86 0 1021 0 C1021 1312.08 1021 2624.16 1021 3976 C684.07 3976 347.14 3976 0 3976 C0 2663.92 0 1351.84 0 0 Z M4 4 C4 1313.44 4 2622.88 4 3972 C338.29 3972 672.58 3972 1017 3972 C1017 2958.9 1017 1945.8 1017 902 C1016.67 902 1016.34 902 1016 902 C1015.91548584 902.64622314 1015.83097168 903.29244629 1015.74389648 903.95825195 C1010.63906026 942.02555391 998.42382013 977.00599806 983 1012 C982.54044922 1013.04978027 982.08089844 1014.09956055 981.60742188 1015.18115234 C975.62046529 1028.84748404 969.45506611 1042.43173044 963.25 1056 C962.91170166 1056.73989166 962.57340332 1057.47978333 962.22485352 1058.24209595 C958.8680168 1065.58135264 955.50507056 1072.91762162 952.11024475 1080.23939514 C943.90530145 1097.94027717 936.00540721 1115.757786 928.3125 1133.6875 C927.89263824 1134.66398499 927.47277649 1135.64046997 927.04019165 1136.64654541 C919.74187624 1153.64151386 912.7642648 1170.76235385 905.84239578 1187.91299057 C905.00512595 1189.98730062 904.16730551 1192.06138742 903.32931519 1194.13540649 C899.40101562 1203.85867727 895.48036183 1213.58501949 891.5625 1223.3125 C890.96699087 1224.79091419 890.37148102 1226.26932809 889.77597046 1227.7477417 C886.3328447 1236.29606987 882.89122113 1244.84500178 879.45092773 1253.39447021 C878.18827545 1256.53213883 876.92524391 1259.66965442 875.66210938 1262.80712891 C854.12229775 1316.32641193 832.96126952 1370.072941 815.0625 1424.9375 C814.8406604 1425.61294861 814.6188208 1426.28839722 814.39025879 1426.98431396 C808.93555123 1443.64045222 804.66054925 1460.40117468 801.68945312 1477.67114258 C801.39452309 1479.35134734 801.09916226 1481.03147653 800.80341339 1482.71153736 C797.23221129 1503.09848454 793.87495708 1523.52265592 790.5147686 1543.94520164 C789.5734946 1549.66250014 788.62911818 1555.37928639 787.68518066 1561.09614563 C786.09330286 1570.73982129 784.50344801 1580.38382857 782.91503906 1590.02807617 C781.32100897 1599.7064126 779.7254274 1609.38449117 778.12792969 1619.06225586 C777.83594839 1620.8311521 777.83594839 1620.8311521 777.53806847 1622.63578361 C777.14569594 1625.01284003 776.75332054 1627.38989597 776.36094224 1629.76695144 C773.82423991 1645.13479804 771.28899269 1660.50287608 768.76408386 1675.87266541 C768.57309362 1677.03520771 768.38210338 1678.19775001 768.18532556 1679.39552087 C767.42074581 1684.04969216 766.65619 1688.70386737 765.8919071 1693.35808742 C763.56467878 1707.52796971 761.22129218 1721.69501242 758.85716152 1735.85878372 C751.07005855 1782.51774456 743.96589259 1829.17613048 738.06476581 1876.11127257 C736.94471299 1885.0098111 735.79852796 1893.90497092 734.65136719 1902.80004883 C734.54467295 1903.62751299 734.43797872 1904.45497715 734.32805133 1905.30751598 C733.89599953 1908.65790165 733.46384151 1912.00827356 733.03138483 1915.35860699 C732.38469436 1920.36871221 731.73933396 1925.3789863 731.09504879 1930.38940138 C726.81349234 1963.67837094 722.33279521 1996.93876514 717.75 2030.1875 C717.65748931 2030.85896812 717.56497862 2031.53043625 717.46966457 2032.22225189 C703.26327496 2135.33022616 688.13492002 2238.31113932 471 3178 C470.58975586 3178.86286621 470.17951172 3179.72573242 469.75683594 3180.61474609 C453.44463667 3214.79545501 430.49501451 3256.07467768 393.21875 3270.30859375 C380.20178163 3274.36493777 366.43828335 3272.53313171 354.32421875 3266.71484375 C310.60404722 3242.30498126 292.13549299 3177.56459439 279.33227539 3132.52737427 C276.76888433 3123.38286673 274.36651068 3114.19708393 272 3105 C271.60468096 3103.47541643 271.20933651 3101.95083945 270.81396484 3100.42626953 C258.44939946 3052.52437083 250.03358585 3003.77902464 242 2955 C241.75700165 2953.52590668 241.75700165 2953.52590668 241.50909424 2952.02203369 C239.53915461 2940.03340536 237.72180635 2928.02661871 236 2916 C235.79271271 2914.5615271 235.79271271 2914.5615271 235.58123779 2913.09399414 C222.78081853 2824.15879948 213.72957432 2734.72775066 189 2388 C188.94450233 2386.95838715 188.88900467 2385.91677429 188.83182526 2384.84359741 C184.13765893 2296.53449938 180.87744315 2208.15804864 173.12339246 1915.51626301 C173.03117753 1910.63117512 172.93726096 1905.74612247 172.84246826 1900.86108398 C172.49158575 1882.70118717 172.18083366 1864.54097379 171.90729141 1846.37977123 C171.87508408 1844.25554557 171.8422101 1842.13133114 171.80917358 1840.00711823 C171.0925647 1793.70605204 170.95485807 1747.40829928 170.96996474 1701.10267067 C170.97353572 1689.47375381 170.96949114 1677.84485654 170.96130371 1666.21594238 C170.96018894 1664.53939248 170.95908309 1662.86284257 170.95798612 1661.18629265 C170.95131437 1651.06780976 170.95131437 1651.06780976 170.94381285 1640.94932747 C170.92897888 1621.53586319 170.93840607 1602.12282687 170.99922333 1582.70944364 C171.04183502 1568.97089714 171.0522324 1555.23261359 171.03268307 1541.49401319 C171.02298909 1533.92803013 171.02861356 1526.36276882 171.0759449 1518.79690933 C171.26075124 1488.10337476 171.17563568 1459.28349673 161 1430 C160.15799612 1427.28940818 159.34402747 1424.57207862 158.53672791 1421.85101032 C157.48891881 1418.39054317 156.30837968 1414.97843815 155.125 1411.5625 C154.61563178 1410.06499999 154.10644106 1408.56743959 153.59741211 1407.06982422 C142.20465393 1373.79700968 127.85886271 1341.6981954 112.8951416 1309.90423584 C111.63161487 1307.21633385 110.37288742 1304.52619289 109.1138916 1301.83616638 C102.47729719 1287.65923433 95.78367119 1273.51450239 88.9375 1259.4375 C81.6679815 1244.45701097 74.76439775 1229.32013663 67.9543457 1214.12615967 C66.99636084 1211.99189241 66.03479256 1209.85927306 65.07226562 1207.72705078 C38.53987414 1148.90579679 17.2837048 1088.2903461 9 1024 C8.88672363 1023.12553223 8.77344727 1022.25106445 8.65673828 1021.35009766 C6.39402773 1003.37352359 5.57798619 985.10971898 6 967 C6.01788574 966.14341797 6.03577148 965.28683594 6.05419922 964.40429688 C8.20113731 872.69713096 38.58453559 798.75057038 96.57617188 728.72363281 C98.58840473 726.28769935 100.5730775 723.82957525 102.5625 721.375 C110.57090278 711.60972641 118.82484604 702.08504046 127.40234375 692.81640625 C129.8795621 690.13058003 132.31876551 687.4149255 134.75 684.6875 C137.80748967 681.27638608 140.95613487 678.01004537 144.22729492 674.80517578 C145.94380403 673.05722532 147.5332834 671.25162283 149.12109375 669.38671875 C153.3508831 664.52491758 157.87150465 659.98173524 162.4375 655.4375 C163.24509766 654.62603516 164.05269531 653.81457031 164.88476562 652.97851562 C169.16680833 648.70337387 173.53064636 644.60915939 178.11743164 640.66430664 C181.22255834 637.91918296 184.10175615 634.96013536 187 632 C191.178839 627.7775797 195.36678275 623.65863308 199.90234375 619.81640625 C202.70922961 617.38586263 205.41022473 614.84460779 208.125 612.3125 C214.91421653 606.00589638 221.92512827 599.98226615 229 594 C230.10556327 593.06261146 231.21103364 592.12511336 232.31640625 591.1875 C234.47511193 589.35739154 236.63703721 587.5311786 238.80078125 585.70703125 C240.91283734 583.92464319 243.01345952 582.13008489 245.10546875 580.32421875 C252.46050534 573.99677469 260.06000697 568.05723312 267.79296875 562.19921875 C271.64583147 559.27905268 275.45583902 556.30836737 279.25 553.3125 C307.87133739 530.76578012 337.83457027 509.89936108 369 491 C369.87221191 490.47067871 370.74442383 489.94135742 371.64306641 489.39599609 C438.41080173 449.13608281 510.88015125 420.03388711 589.6875 438.25 C593.1412135 439.11173269 596.57261081 440.03927746 600 441 C600.81936035 441.22606934 601.6387207 441.45213867 602.48291016 441.68505859 C625.6343637 448.25080534 648.01968739 459.68801191 668 473 C668.66177246 473.43876465 669.32354492 473.8775293 670.00537109 474.32958984 C674.72437833 477.47750876 679.37256688 480.71936528 684 484 C684.72719238 484.51320801 685.45438477 485.02641602 686.20361328 485.55517578 C696.13727407 492.58163221 705.77150727 499.8852261 715.21191406 507.55908203 C717.57498855 509.46335096 719.96792704 511.32770198 722.36303711 513.19140625 C728.68041223 518.10735175 734.83063691 523.18565316 740.91796875 528.3828125 C743.74683013 530.79496524 746.61575122 533.15419998 749.5 535.5 C758.77248429 543.05486057 767.83786761 550.85358299 776.90283203 558.6550293 C780.45367929 561.70193968 784.04771193 564.6841755 787.6875 567.625 C792.38025975 571.43142592 796.82606263 575.45827771 801.26953125 579.55078125 C803.84459883 581.86060582 806.48254363 584.03243013 809.1875 586.1875 C814.77383253 590.69027665 819.9706212 595.56366783 825.16674805 600.50854492 C829.08444682 604.23285018 833.07120161 607.84898188 837.15356445 611.39208984 C841.86097339 615.49138843 846.42079128 619.75862266 851 624 C851.63035156 624.58378418 852.26070312 625.16756836 852.91015625 625.76904297 C860.40099204 632.71932187 867.80308684 639.72895472 874.98217773 647.00146484 C878.17651713 650.22271203 881.49056067 653.21980182 884.9375 656.1640625 C891.42503153 661.93894852 897.42914102 668.23371488 903.05859375 674.83984375 C905.60111247 677.66884345 908.29476823 680.32748112 911 683 C914.9054778 686.86298142 918.67130621 690.76738399 922.234375 694.953125 C924.3943342 697.45714849 926.63487993 699.87997698 928.875 702.3125 C932.88814907 706.71732278 936.71817818 711.22445647 940.45703125 715.86328125 C942.38712129 718.25765951 944.34984321 720.62248113 946.32421875 722.98046875 C953.63574383 731.72911426 960.57464331 740.58242038 967 750 C967.52561523 750.7626416 968.05123047 751.5252832 968.59277344 752.31103516 C992.60100223 787.22773756 1011.60102907 824.27922459 1016 867 C1016.33 867 1016.66 867 1017 867 C1017 582.21 1017 297.42 1017 4 C682.71 4 348.42 4 4 4 Z M475 471 C474.10474609 471.29583984 473.20949219 471.59167969 472.28710938 471.89648438 C420.1554283 489.42066469 372.10247009 520.77401808 328 553 C327.27651367 553.52658203 326.55302734 554.05316406 325.80761719 554.59570312 C316.61031889 561.29632209 307.49691788 568.07779523 298.58984375 575.16015625 C295.95425543 577.25450105 293.29729824 579.3187072 290.62890625 581.37109375 C282.2790789 587.79874157 274.11148672 594.35497828 266.16015625 601.26953125 C263.31940098 603.73792537 260.42345681 606.12974463 257.5 608.5 C247.37388461 616.74046047 237.57088181 625.29688344 228.01953125 634.1953125 C225.35162651 636.68064539 222.65269107 639.12878806 219.9375 641.5625 C219.12796875 642.29082031 218.3184375 643.01914062 217.484375 643.76953125 C215.81140515 645.27152148 214.13422813 646.76883729 212.453125 648.26171875 C204.53735571 655.38367502 197.03857347 662.89577007 189.5612793 670.47558594 C185.11709074 674.96345509 180.61647464 679.26571402 175.82324219 683.37695312 C172.84795412 686.02554914 170.18117237 688.93357025 167.5 691.875 C166.28440971 693.19452242 165.06824058 694.51351177 163.8515625 695.83203125 C163.22411133 696.51346191 162.59666016 697.19489258 161.95019531 697.89697266 C159.96898483 700.03344576 157.96877247 702.15026292 155.9609375 704.26171875 C148.20474017 712.41945045 140.67421986 720.69532725 133.43115234 729.31152344 C131.9864588 731.01597593 130.52230259 732.70148914 129.05078125 734.3828125 C121.82839072 742.65487288 115.11370472 751.24182736 108.5078125 760.01171875 C107.13477621 761.82227697 105.7455366 763.61791013 104.34375 765.40625 C97.85038164 773.69246859 91.83085756 782.23779258 86 791 C85.1953833 792.20027832 85.1953833 792.20027832 84.37451172 793.42480469 C66.68978882 819.94933565 53.37281196 846.98105237 46 878 C45.74186523 879.06379883 45.48373047 880.12759766 45.21777344 881.22363281 C38.11165976 910.83684262 35.62918272 939.5763609 35.56743622 969.91772079 C35.56258664 971.96345196 35.55331734 974.0091274 35.54351807 976.05484009 C35.47322291 999.82607656 37.58197326 1022.94530764 41.875 1046.3125 C42.06925064 1047.3862941 42.06925064 1047.3862941 42.26742554 1048.48178101 C46.26663785 1070.54968333 52.04830774 1091.67164019 59 1113 C59.58225342 1114.78784912 59.58225342 1114.78784912 60.17626953 1116.61181641 C74.07962829 1158.91303175 92.43963467 1199.86316346 112 1239.82421875 C115.24523443 1246.46229481 118.34488771 1253.16476346 121.4375 1259.875 C125.23449755 1268.11057249 129.10037207 1276.30444557 133.08056641 1284.453125 C141.85824084 1302.42916872 150.03561557 1320.65042056 158 1339 C158.30010986 1339.69109863 158.60021973 1340.38219727 158.90942383 1341.09423828 C165.30096776 1355.8369062 171.39012442 1370.66773079 176.9375 1385.75 C177.36200439 1386.90226074 177.78650879 1388.05452148 178.22387695 1389.24169922 C181.78623153 1399.08845937 184.83884567 1408.98967795 188 1419 C385.34 1419 582.68 1419 786 1419 C790.95 1404.81 795.9 1390.62 801 1376 C807.06762375 1359.06121703 813.25383545 1342.1933158 819.7109375 1325.40234375 C820.1858217 1324.16690858 820.1858217 1324.16690858 820.67029953 1322.90651512 C828.71945283 1301.98953653 837.04851062 1281.18496768 845.39295959 1260.38444901 C847.06842885 1256.2068619 848.74200388 1252.02851693 850.41564178 1247.85019588 C859.6707869 1224.74509311 868.93793347 1201.64472912 878.25 1178.5625 C878.64358704 1177.58608551 879.03717407 1176.60967102 879.44268799 1175.60366821 C887.12874397 1156.54671138 894.95164852 1137.54128937 903.125 1118.6875 C903.38735443 1118.08191254 903.64970886 1117.47632507 903.92001343 1116.85238647 C910.70824209 1101.20599058 917.84433379 1085.7187289 924.9753418 1070.22644043 C947.01427023 1022.58265879 947.01427023 1022.58265879 966.85693359 973.99902344 C967.8946549 971.27639027 968.95338483 968.56315495 970.01953125 965.8515625 C984.17061369 929.39498177 991.17055195 887.37596019 981 849 C980.67056396 847.68902344 980.67056396 847.68902344 980.33447266 846.3515625 C977.29962904 834.35823855 973.36695039 823.1370654 968 812 C967.55599854 811.05278076 967.55599854 811.05278076 967.10302734 810.08642578 C953.9311165 782.01339052 935.71719017 756.40255538 915.53125 732.96484375 C913.21141634 730.24763118 910.97556534 727.48191319 908.75 724.6875 C903.28880764 717.98026019 897.31203656 711.76470498 891.35644531 705.5 C889.53837652 703.57117443 887.73198794 701.63365467 885.93261719 699.6875 C877.9796872 691.09552793 869.85807993 682.70043888 861.56591797 674.43554688 C859.60134799 672.47641344 857.64228552 670.51188356 855.68359375 668.546875 C850.10082875 662.96147007 844.5402119 657.41484375 838.51708984 652.29882812 C836.57061184 650.63238735 834.77912142 648.84266147 833 647 C829.89624046 643.85421664 826.68123702 640.92705984 823.33203125 638.046875 C820.33729147 635.41832618 817.42044171 632.71052975 814.5 630 C808.72390145 624.64933647 802.86137457 619.42877056 796.859375 614.33203125 C790.90369798 609.26569748 785.02414569 604.15369293 779.3125 598.8125 C774.6457642 594.45403719 769.8497722 590.33911292 764.87109375 586.3359375 C761.57383947 583.65327347 758.34608538 580.89822214 755.125 578.125 C753.93362921 577.10021919 752.74222292 576.07547965 751.55078125 575.05078125 C750.96119629 574.54369629 750.37161133 574.03661133 749.76416016 573.51416016 C742.18917274 567.01262792 734.54537343 560.60347303 726.80078125 554.3046875 C724.28338249 552.23318782 721.79611477 550.13254406 719.31689453 548.01586914 C713.76326715 543.27523156 708.1262863 538.67227358 702.36083984 534.19140625 C699.36165823 531.85989861 696.38455818 529.50925958 693.44921875 527.09765625 C685.05754453 520.22256333 676.35523337 514.00658631 667.3515625 507.95703125 C664.0247349 505.71724987 660.80853389 503.37820931 657.625 500.9375 C605.71569934 462.88670091 536.24654737 450.40500715 475 471 Z M197 1449 C197.33 1452.3 197.66 1455.6 198 1459 C198.08762947 1461.84673318 198.14224362 1464.6684396 198.13803101 1467.5138855 C198.14084768 1468.31272183 198.14366436 1469.11155817 198.14656639 1469.93460166 C198.15482794 1472.59166501 198.15623316 1475.24868663 198.15771484 1477.90576172 C198.1624667 1479.83779643 198.16768711 1481.76983003 198.17333412 1483.70186234 C198.18476364 1487.89084139 198.19330127 1492.07981288 198.19967651 1496.26880264 C198.21033201 1503.07325332 198.22881726 1509.87766941 198.2487793 1516.68209839 C198.25569564 1519.06376836 198.26260396 1521.44543836 198.26950455 1523.82710838 C198.2729892 1525.02747191 198.27647386 1526.22783544 198.28006411 1527.46457362 C198.2906624 1531.19499717 198.30066809 1534.92542186 198.31048203 1538.65584755 C198.38718892 1567.73161368 198.49302605 1596.80724766 198.625 1625.8828125 C198.62808464 1626.56345308 198.63116927 1627.24409366 198.63434738 1627.94535971 C198.91320244 1689.21718046 199.54206762 1750.48313299 200.375 1811.75 C200.39925324 1813.53660947 200.39925324 1813.53660947 200.42399645 1815.35931206 C201.25667786 1876.56593763 202.2170064 1937.77031727 203.51673222 1998.96895027 C203.56175896 2001.09009066 203.60654271 2003.21123608 203.65129852 2005.3323822 C204.40783061 2041.09264067 205.47393876 2076.83533681 206.76889038 2112.58001709 C207.0673779 2120.83522211 207.34892109 2129.09098307 207.62919426 2137.34682274 C208.36157169 2158.87805618 209.12453131 2180.40823268 209.89111328 2201.93827057 C210.00125302 2205.03523297 210.11101917 2208.13220843 210.22070312 2211.22918701 C213.17913806 2294.69775655 216.81246155 2378.11985213 221.6875 2461.5 C221.73920727 2462.38852787 221.79091454 2463.27705574 221.84418869 2464.1925087 C223.31055712 2489.38831435 223.31055712 2489.38831435 225.33868408 2514.54399109 C226.01505882 2521.92927315 226.47060314 2529.31162783 226.83370972 2536.71820068 C227.49532742 2550.06844369 228.31576503 2563.40769909 229.25271606 2576.74130249 C229.3720435 2578.44205834 229.48988682 2580.14291926 229.60592651 2581.84390259 C230.33676438 2592.51235449 231.29690096 2603.14390595 232.390625 2613.78125 C233.5999207 2625.57634815 234.65147654 2637.37763717 235.61328125 2649.1953125 C235.68130951 2650.03038897 235.74933777 2650.86546543 235.81942749 2651.72584724 C236.1003249 2655.17801396 236.38053864 2658.63023531 236.65992928 2662.0825243 C240.76426052 2712.78516264 245.48278094 2763.36511525 251.86138916 2813.83912659 C252.81898783 2821.45690887 253.72183315 2829.08034052 254.60546875 2836.70703125 C254.80500656 2838.42591301 254.80500656 2838.42591301 255.00857544 2840.17951965 C255.52632657 2844.64564208 256.04340519 2849.11182418 256.55297852 2853.57888794 C257.8070707 2864.56824782 259.16234871 2875.5105505 260.94723511 2886.42735291 C262.08672937 2893.4100634 262.96357317 2900.4138634 263.8125 2907.4375 C265.78715641 2923.27154305 268.37386652 2938.9795044 271.08886719 2954.70117188 C271.91462278 2959.4892425 272.72387532 2964.28000828 273.53140259 2969.07118225 C280.00117027 3007.4213814 287.11210304 3045.53385422 296.125 3083.375 C296.36699127 3084.39764954 296.60898254 3085.42029907 296.85830688 3086.47393799 C300.35113952 3101.16734951 304.4496664 3115.60034969 309 3130 C309.38365723 3131.22332031 309.76731445 3132.44664063 310.16259766 3133.70703125 C311.01620616 3136.4118124 311.879507 3139.11311406 312.75 3141.8125 C313.30813373 3143.54790649 313.86543086 3145.28358227 314.421875 3147.01953125 C314.68734131 3147.84735107 314.95280762 3148.6751709 315.22631836 3149.52807617 C315.99408004 3151.98108563 316.71156274 3154.44500495 317.42578125 3156.9140625 C326.10330185 3185.95910126 340.3331587 3223.87093406 367 3241 C373.44738936 3244.13458442 381.38720974 3244.14964262 388.1875 3241.9375 C393.05061713 3239.77165814 397.01828485 3236.48233616 401 3233 C401.77085937 3232.33613281 402.54171875 3231.67226562 403.3359375 3230.98828125 C416.95458524 3218.36128262 426.08696464 3201.08420093 435 3185 C435.56315918 3184.00129883 435.56315918 3184.00129883 436.13769531 3182.98242188 C463.91209152 3133.61125301 481.97513898 3077.133047 498.06323242 3023.09741211 C499.0951141 3019.68550623 500.17715491 3016.2912967 501.2578125 3012.89453125 C504.59169464 3002.3219823 507.55986422 2991.64210704 510.56616211 2980.97290039 C511.56174119 2977.44019254 512.56087547 2973.90850487 513.56054688 2970.37695312 C517.99449068 2954.69165186 522.24924464 2938.97306729 526.3125 2923.1875 C528.40401727 2915.07960082 530.53428621 2906.98438218 532.73266602 2898.90478516 C535.76260059 2887.76822125 538.62702332 2876.61623228 541.22216797 2865.37060547 C541.81024919 2862.82225352 542.40046856 2860.2744441 542.99267578 2857.72705078 C546.91980236 2840.83335943 550.82867592 2823.9366395 554.54833984 2806.99584961 C556.19860007 2799.51493063 557.90727726 2792.04890485 559.63671875 2784.5859375 C566.20063819 2756.30844286 566.20063819 2756.30844286 571.8984375 2727.84765625 C573.11424355 2721.26595851 574.52068233 2714.72842246 575.9375 2708.1875 C576.44923114 2705.81771101 576.96094989 2703.44791934 577.47265625 2701.078125 C577.7267627 2699.90185547 577.98086914 2698.72558594 578.24267578 2697.51367188 C582.28665057 2678.75129754 585.9816612 2659.94447856 589.45358276 2641.06930542 C591.54323347 2629.70978306 593.70081723 2618.37114035 596.01690674 2607.05563354 C599.54435688 2589.81535534 602.62387828 2572.50447983 605.62866211 2555.16601562 C607.53006068 2544.21485042 609.49841237 2533.28001217 611.56763077 2522.35925865 C614.52029198 2506.77203873 617.23998981 2491.15321552 619.85240555 2475.50498581 C620.798025 2469.84701812 621.75062713 2464.19021783 622.70255089 2458.53330803 C622.94776231 2457.07598685 623.19286039 2455.61864659 623.43784523 2454.16128731 C625.19600725 2443.70495378 626.98637394 2433.25462757 628.8046875 2422.80859375 C634.8722882 2387.9234461 640.53552211 2352.99413793 645.92041016 2317.99707031 C647.29994894 2309.04054828 648.70649717 2300.08834831 650.12240601 2291.13751221 C650.48252192 2288.8605132 650.84158439 2286.58335034 651.20043945 2284.30615234 C652.71253993 2274.72548429 654.28200568 2265.1559452 655.9296875 2255.59765625 C658.44961864 2240.90533333 660.5466551 2226.17358527 662.53857422 2211.40136719 C663.2155946 2206.41075981 663.91558705 2201.42359397 664.625 2196.4375 C664.73593994 2195.64835205 664.84687988 2194.8592041 664.96118164 2194.04614258 C665.55808321 2189.85894253 666.21711336 2185.68772316 666.92944336 2181.51855469 C668.01739267 2175.01311684 668.94330058 2168.49121511 669.83984375 2161.95703125 C670.18416343 2159.47590017 670.52856712 2156.99478074 670.87304688 2154.51367188 C671.40508843 2150.66805108 671.93615093 2146.82230025 672.46557617 2142.97631836 C674.2150018 2130.28423134 675.98077247 2117.6216318 678.29174805 2105.01879883 C679.73264012 2097.02891738 680.80221038 2088.97518448 681.9375 2080.9375 C682.13167511 2079.57345535 682.13167511 2079.57345535 682.32977295 2078.18185425 C684.22627493 2064.85155258 685.97648563 2051.51022281 687.60131836 2038.14428711 C688.74503536 2028.80938918 690.08236444 2019.51566064 691.50048828 2010.21899414 C692.91934739 2000.80917043 694.10120124 1991.37683262 695.25201416 1981.93161011 C696.32815916 1973.11958312 697.51690562 1964.33622083 698.875 1955.5625 C700.84321283 1942.76269744 702.38897705 1929.91853262 703.9375 1917.0625 C705.71403678 1902.31526088 707.54395565 1887.58261013 709.625 1872.875 C709.72720856 1872.15228912 709.82941711 1871.42957825 709.9347229 1870.68496704 C710.03594452 1869.969487 710.13716614 1869.25400696 710.24145508 1868.5168457 C710.4422718 1867.09717529 710.64303741 1865.67749764 710.84375 1864.2578125 C710.94108932 1863.56968979 711.03842865 1862.88156708 711.13871765 1862.17259216 C712.19026921 1854.70563315 713.16408277 1847.22909244 714.125 1839.75 C714.34470459 1838.04046143 714.34470459 1838.04046143 714.56884766 1836.29638672 C715.28458999 1830.69225956 715.99096838 1825.08774293 716.66552734 1819.47851562 C718.15115817 1807.20987886 719.85889708 1795.01046376 721.90188599 1782.82250977 C722.58344621 1778.75644889 723.25433811 1774.68864064 723.92622375 1770.62097168 C724.30680445 1768.31725737 724.6879134 1766.01363028 725.06950378 1763.71008301 C726.79200902 1753.30000797 728.48261514 1742.88489345 730.16796875 1732.46875 C730.44706201 1730.74440344 730.72616566 1729.02005856 731.00527954 1727.29571533 C731.144582 1726.43509869 731.28388447 1725.57448204 731.42740822 1724.6877861 C731.56737913 1723.82305302 731.70735004 1722.95831993 731.8515625 1722.06738281 C731.99216284 1721.19873219 732.13276318 1720.33008156 732.27762413 1719.43510818 C740.28768054 1669.95381922 740.28768054 1669.95381922 744.2805481 1646.90942383 C746.62694213 1633.36212244 748.80186885 1619.79109833 750.93914795 1606.20935059 C753.02664304 1592.95484934 755.21542035 1579.72190911 757.5 1566.5 C759.94073439 1552.37026584 762.26631128 1538.22644037 764.5 1524.0625 C766.73922021 1509.87724302 769.00568096 1495.69717186 771.35253906 1481.52926636 C771.65563243 1479.69785606 771.95758091 1477.86625587 772.25830078 1476.03445435 C772.67535613 1473.49635872 773.09679705 1470.95903016 773.51953125 1468.421875 C773.70036003 1467.31545906 773.70036003 1467.31545906 773.88484192 1466.18669128 C774.48259389 1462.6310505 775.18790776 1459.15241044 776.0925293 1455.66113281 C777.12029287 1452.14333974 777.12029287 1452.14333974 777 1449 C585.6 1449 394.2 1449 197 1449 Z " fill="#010101" transform="translate(0,0)"/>
<path d="M0 0 C336.93 0 673.86 0 1021 0 C1021 1312.08 1021 2624.16 1021 3976 C684.07 3976 347.14 3976 0 3976 C0 2663.92 0 1351.84 0 0 Z M4 4 C4 1313.44 4 2622.88 4 3972 C338.29 3972 672.58 3972 1017 3972 C1017 2662.56 1017 1353.12 1017 4 C682.71 4 348.42 4 4 4 Z " fill="#FDFDFD" transform="translate(0,0)"/>
<path d="M0 0 C2.64824799 0.56683663 5.30327186 1.05624231 7.96923828 1.53271484 C21.93853027 4.04345018 35.71051696 7.16259093 49.49658203 10.52099609 C50.79225601 10.83499359 50.79225601 10.83499359 52.11410522 11.15533447 C63.00333077 13.80238895 73.7695054 16.72384008 84.50125122 19.94750977 C90.70710972 21.78883751 96.96138512 23.46877173 103.20166016 25.18896484 C104.76883789 25.62402344 104.76883789 25.62402344 106.36767578 26.06787109 C107.29636475 26.32407227 108.22505371 26.58027344 109.18188477 26.84423828 C111.43408203 27.52099609 111.43408203 27.52099609 113.43408203 28.52099609 C112.8716331 34.9794614 111.69679739 40.87162871 109.87158203 47.08349609 C109.63761719 47.90140625 109.40365234 48.71931641 109.16259766 49.56201172 C108.59288249 51.55020137 108.01441289 53.53587908 107.43408203 55.52099609 C102.25720761 57.31014083 98.0003573 55.51037559 92.99658203 53.95849609 C91.08939302 53.39086851 89.18182922 52.82449895 87.27392578 52.25927734 C86.2992334 51.96746582 85.32454102 51.6756543 84.3203125 51.375 C76.06951417 48.93367937 67.7465094 46.74113297 59.43408203 44.52099609 C58.24959473 44.20340332 57.06510742 43.88581055 55.84472656 43.55859375 C39.42428514 39.1743422 23.01096755 35.18237982 6.29492188 32.05908203 C3.50073279 31.53353222 0.71129825 30.98774845 -2.07763672 30.43505859 C-27.86221215 25.35395972 -53.30238165 22.15742384 -79.61303711 22.26025391 C-82.89243806 22.27104222 -86.17129835 22.26025141 -89.45068359 22.24755859 C-100.70126487 22.23959677 -111.45091264 22.697623 -122.56591797 24.52099609 C-124.96850924 24.83896447 -127.37219213 25.14878473 -129.77685547 25.45068359 C-141.62303971 26.99997516 -153.30528188 28.61051593 -164.88232422 31.59130859 C-168.53263656 32.51259633 -172.18032639 33.2559771 -175.87841797 33.95849609 C-189.4284124 36.6226599 -202.72543156 40.17463304 -215.92407227 44.21948242 C-223.01511144 46.38536468 -230.15362636 48.3387684 -237.31494141 50.25756836 C-244.66816193 52.24115784 -251.95761589 54.40588248 -259.22216797 56.69287109 C-259.99818359 56.93263672 -260.77419922 57.17240234 -261.57373047 57.41943359 C-262.25064941 57.6326123 -262.92756836 57.84579102 -263.625 58.06542969 C-265.56591797 58.52099609 -265.56591797 58.52099609 -269.56591797 58.52099609 C-270.7470177 54.98397935 -271.90818261 51.4407225 -273.06591797 47.89599609 C-273.39978516 46.89697266 -273.73365234 45.89794922 -274.07763672 44.86865234 C-277.05903238 35.68108614 -277.05903238 35.68108614 -276.56591797 30.52099609 C-253.76285643 23.17396241 -253.76285643 23.17396241 -242.68603516 20.11035156 C-240.06307843 19.3812155 -237.44350664 18.64038406 -234.82373047 17.89990234 C-229.39805391 16.36828604 -223.96831656 14.85182325 -218.53564453 13.34521484 C-216.74266565 12.84759098 -214.95018979 12.34814258 -213.15869141 11.84521484 C-187.79630859 4.74603771 -161.69181379 -1.13427745 -135.56591797 -4.47900391 C-133.90230225 -4.70112549 -133.90230225 -4.70112549 -132.20507812 -4.92773438 C-88.62661583 -10.53421429 -42.93935037 -9.66157978 0 0 Z " fill="#020202" transform="translate(587.56591796875,724.47900390625)"/>
</svg>
