<?xml version="1.0" encoding="UTF-8"?>
<svg version="1.1" xmlns="http://www.w3.org/2000/svg" width="996" height="3975">
<path d="M0 0 C327.69 0 655.38 0 993 0 C993.13690132 354.45333962 993.13690132 354.45333962 993.17383855 452.23777313 C993.17454464 454.10668056 993.17525073 455.97558799 993.17595683 457.84449542 C993.17631088 458.78164671 993.17666493 459.718798 993.17702971 460.68434781 C993.17813292 463.60415201 993.1792365 466.52395621 993.18034018 469.44376042 C993.22019533 574.88413258 993.25927811 680.324505 993.32718385 870.90867864 C993.32835482 874.21223445 993.32952606 877.51579027 993.33069739 880.81934608 C993.36394634 974.59410213 993.39694523 1068.36885827 993.42961312 1162.14361452 C993.4308246 1165.62122455 993.43203609 1169.09883457 993.4332476 1172.5764446 C993.43364774 1173.72503783 993.43404787 1174.87363106 993.43446013 1176.05703015 C993.44949586 1219.215332 993.46458819 1262.37363383 993.47971445 1305.53193565 C993.48135707 1310.21882726 993.48299905 1314.90571888 993.48464044 1319.59261049 C993.52300814 1429.14806508 993.56233313 1538.7035192 993.60510254 1648.25897217 C993.60554628 1649.39581148 993.60599001 1650.53265079 993.6064472 1651.70393978 C993.62118799 1689.46507946 993.63603014 1727.22621911 993.65088643 1764.98735875 C993.66431535 1799.12127473 993.67770755 1833.25519072 993.69097996 1867.38910675 C993.69163503 1869.07376974 993.69163503 1869.07376974 993.69230334 1870.79246632 C993.72001113 1942.07355519 993.74610152 2013.35464454 993.77068233 2084.63573456 C993.77125957 2086.30875148 993.77125957 2086.30875148 993.77184846 2088.01556673 C993.78881855 2137.20418233 993.80546556 2186.39279804 993.82175246 2235.58141387 C993.82832634 2255.43096481 993.83494715 2275.28051574 993.84159387 2295.13006667 C993.84269473 2298.41882102 993.84379406 2301.70757538 993.84489323 2304.99632974 C993.86586897 2367.7156962 993.88985942 2430.43506078 993.91658978 2493.15442504 C993.95871543 2592.02629417 993.99511591 2690.89816389 994.02095418 2789.77003872 C994.02172721 2792.71964471 994.02250713 2795.66925069 994.02328905 2798.61885668 C994.04903236 2895.85592679 994.06292268 2993.09300283 993.78795367 3397.65013154 C993.78421138 3401.00021543 993.78048466 3404.35029933 993.77676394 3407.70038324 C993.77554577 3408.79645707 993.77432761 3409.8925309 993.77307253 3411.02181909 C993.7708567 3413.01599391 993.76864297 3415.01016874 993.76643242 3417.00434357 C993.55955913 3603.00295764 993.26842353 3789.00147016 993 3975 C665.31 3975 337.62 3975 0 3975 C-0.4375 3614.125 -0.4375 3614.125 -0.56811523 3500.08251953 C-0.61135765 3466.41416846 -0.61135765 3466.41416846 -0.65589905 3432.74581909 C-0.67704498 3416.73371798 -0.69495517 3400.72161642 -0.71129703 3384.7095098 C-0.72804651 3368.37609354 -0.74845797 3352.04268486 -0.77237374 3335.7092775 C-0.78648007 3326.00219322 -0.79795759 3316.29511474 -0.80541687 3306.58802303 C-0.81061568 3300.17060692 -0.81938405 3293.75320197 -0.83100615 3287.3357943 C-0.83751595 3283.68582571 -0.84252561 3280.0358731 -0.84315884 3276.38589835 C-0.8463673 3263.10126521 -0.85543726 3249.85493579 -1.77417618 3236.59722126 C-2.14371432 3230.71072766 -2.14324233 3224.82969043 -2.1328125 3218.93359375 C-2.13376923 3217.68981461 -2.13472595 3216.44603546 -2.13571167 3215.16456604 C-2.13638459 3212.56584624 -2.13459322 3209.96712466 -2.13037109 3207.3684082 C-2.12500551 3203.44152983 -2.13034912 3199.51476556 -2.13671875 3195.58789062 C-2.1360579 3193.03645809 -2.1347766 3190.48502562 -2.1328125 3187.93359375 C-2.13483673 3186.7872496 -2.13686096 3185.64090546 -2.13894653 3184.45982361 C-2.12201733 3178.43478611 -1.91870196 3172.46679626 -1.500076 3166.45586551 C-0.83131082 3155.85469405 -0.85931968 3145.26414822 -0.86938947 3134.64584917 C-0.86781869 3132.40945032 -0.86581171 3130.17305175 -0.86341216 3127.93665364 C-0.85808313 3121.79594096 -0.85892975 3115.65524243 -0.86079345 3109.51452829 C-0.86162595 3103.50102627 -0.85772647 3097.48752833 -0.85398808 3091.47402786 C-0.84638912 3078.98121953 -0.8434996 3066.48841407 -0.84316199 3053.99560361 C-0.84279763 3041.27129235 -0.84022866 3028.54698428 -0.8350333 3015.82267404 C-0.83470492 3015.01514468 -0.83437654 3014.20761532 -0.8340382 3013.37561537 C-0.83235166 3009.2522963 -0.83063022 3005.12897725 -0.82889687 3001.0056582 C-0.81631743 2970.90354983 -0.80863481 2940.80144174 -0.80341911 2910.69933128 C-0.79811647 2880.18882401 -0.79063669 2849.67831841 -0.78049088 2819.16781235 C-0.78017188 2818.20560506 -0.77985288 2817.24339777 -0.77952421 2816.25203269 C-0.77660002 2807.43406247 -0.7736516 2798.61609226 -0.77067431 2789.79812207 C-0.76320966 2767.68632657 -0.75607379 2745.57453097 -0.74915612 2723.4627353 C-0.74883889 2722.44949207 -0.74852167 2721.43624884 -0.74819483 2720.39230128 C-0.73258554 2670.44122167 -0.72070978 2620.49014125 -0.70907402 2570.53906059 C-0.7049753 2552.95475983 -0.70085884 2535.37045907 -0.69667697 2517.78615832 C-0.69641702 2516.69305784 -0.69615708 2515.59995736 -0.69588925 2514.47373263 C-0.68382531 2463.8352252 -0.66920878 2413.19671861 -0.65393867 2362.55821207 C-0.65294008 2359.24627852 -0.65194269 2355.93434497 -0.65094561 2352.62241143 C-0.64493207 2332.65137898 -0.63889194 2312.68034653 -0.63282111 2292.7093141 C-0.6177303 2243.06168517 -0.60295839 2193.41405614 -0.58840275 2143.76642704 C-0.58807123 2142.63618225 -0.5877397 2141.50593747 -0.58739814 2140.34144284 C-0.56592948 2067.14053139 -0.54577362 1993.93961966 -0.52671719 1920.73870754 C-0.52641293 1919.57003671 -0.52610868 1918.40136587 -0.52579521 1917.19728077 C-0.51653638 1881.62220715 -0.50737472 1846.04713351 -0.49823208 1810.47205987 C-0.48811419 1771.10385045 -0.47797972 1731.73564104 -0.46777344 1692.36743164 C-0.46746659 1691.18361125 -0.46715973 1689.99979086 -0.46684358 1688.78009713 C-0.43769265 1576.33833721 -0.40586593 1463.8965781 -0.37334755 1351.45481911 C-0.37197033 1346.69202217 -0.37059389 1341.92922523 -0.36921749 1337.16642829 C-0.35655139 1293.33805775 -0.34385388 1249.50968722 -0.33111694 1205.6813167 C-0.33077826 1204.51587812 -0.33043957 1203.35043953 -0.33009062 1202.14968463 C-0.32906517 1198.62104999 -0.3280397 1195.09241535 -0.32701423 1191.56378071 C-0.29931108 1096.23662305 -0.27188182 1000.9094653 -0.24463 905.58230751 C-0.24366841 902.21889535 -0.24270661 898.85548319 -0.24174474 895.49207104 C-0.21049062 786.20075812 -0.17972138 676.90944509 -0.12762691 483.92136841 C-0.12682834 480.94529236 -0.12602951 477.96921631 -0.12523057 474.99314026 C-0.12496906 474.0189663 -0.12470756 473.04479235 -0.12443813 472.04109797 C-0.12396218 470.26809197 -0.1234862 468.49508598 -0.12301016 466.72207999 C-0.08125097 311.14805352 -0.04079806 155.57402672 0 0 Z M4 4 C4 1027.66 4 2051.32 4 3106 C4.33 3106 4.66 3106 5 3106 C5.07404053 3105.33323242 5.14808105 3104.66646484 5.22436523 3103.97949219 C11.60827935 3047.9651924 23.49996463 2992.6814708 37 2938 C37.21013733 2937.14613708 37.42027466 2936.29227417 37.63677979 2935.41253662 C46.76407206 2898.35346725 57.04871001 2861.61442839 68.078125 2825.078125 C68.29323227 2824.36551262 68.50833954 2823.65290024 68.72996521 2822.91869354 C70.85222343 2815.89226177 72.98224814 2808.86826324 75.13063431 2801.84977341 C75.73384497 2799.87785794 76.33530649 2797.90541741 76.93621826 2795.93280029 C77.66911141 2793.52900948 78.40550161 2791.12628052 79.14630127 2788.72491455 C82.7562587 2776.87018982 85.30148134 2765.10137463 86.95611954 2752.81865692 C87.24404837 2750.68212657 87.53934919 2748.54671892 87.83639526 2746.41143799 C88.25969179 2743.36571777 88.68051638 2740.31967254 89.09942627 2737.27334595 C92.75680396 2710.73005835 96.49002534 2684.23377211 102 2658 C102.15106201 2657.2753656 102.30212402 2656.5507312 102.45776367 2655.80413818 C111.41868054 2612.94186168 122.83872666 2567.87429187 149 2532 C150.05479099 2530.51792643 151.10809694 2529.03479517 152.16015625 2527.55078125 C158.11218524 2519.19339621 164.24139697 2510.99452746 170.53613281 2502.89257812 C177.7900719 2493.51423659 184.94656199 2484.05849274 192.08203125 2474.58984375 C192.73719727 2473.72093506 193.39236328 2472.85202637 194.06738281 2471.95678711 C195.34318 2470.25244713 196.60968643 2468.54110785 197.86621094 2466.82250977 C200.42260484 2463.33477856 202.90849419 2459.97386611 205.99609375 2456.9375 C208.56119603 2454.24516864 210.04899004 2452.60201181 211 2449 C209.96880587 2443.45678147 206.89491926 2438.50874677 204.28417969 2433.58300781 C202.03024864 2429.04943548 200.33812096 2424.32103413 198.625 2419.5625 C198.12613281 2418.23255005 198.12613281 2418.23255005 197.6171875 2416.87573242 C192.27587465 2402.18301758 190.13172714 2384.87731147 196 2370 C198.05225564 2366.10278726 200.39354291 2362.54658309 203 2359 C203.46277344 2358.35289062 203.92554688 2357.70578125 204.40234375 2357.0390625 C214.79140322 2343.72902109 233.14423183 2336.27104431 248 2329 C248.81186791 2315.98128865 249.13767006 2303.03042931 249.09765625 2289.98828125 C249.09578416 2288.15455667 249.09436401 2286.32083159 249.09336853 2284.48710632 C249.0896055 2279.73129826 249.07983075 2274.97552223 249.06866455 2270.21972656 C249.05831438 2265.33854607 249.05384219 2260.45736025 249.04882812 2255.57617188 C249.03820087 2246.05076741 249.02120225 2236.5253864 249 2227 C247.96563309 2226.66135925 246.93126617 2226.32271851 245.86555481 2225.97381592 C244.49732309 2225.52271105 243.12913594 2225.07147102 241.76098633 2224.62011719 C241.08054512 2224.39774384 240.40010391 2224.17537048 239.69904327 2223.94625854 C228.05888151 2220.09617524 218.60370466 2213.72056313 210 2205 C209.23042969 2204.24074219 208.46085938 2203.48148438 207.66796875 2202.69921875 C192.47588086 2186.88598928 184.41420588 2164.73537976 184.64648438 2142.91967773 C185.14754774 2128.24746872 189.52417941 2114.28437774 199 2103 C200.11375 2101.4840625 200.11375 2101.4840625 201.25 2099.9375 C212.99551456 2086.12807713 232.86968954 2081.13077511 250 2079 C251.54198874 2069.64025901 251.68137048 2060.18126553 251.89941406 2050.71386719 C251.96629295 2048.41076624 252.06186156 2046.10831408 252.18652344 2043.80761719 C253.33032962 2031.37604897 253.33032962 2031.37604897 249.58685303 2019.93093872 C246.14915233 2016.50931545 242.24300256 2014.28695713 237.94500732 2012.11282349 C234.59969692 2010.19882556 231.89801322 2007.58865728 229.125 2004.9375 C228.5652951 2004.40699539 228.00559021 2003.87649078 227.42892456 2003.32991028 C213.30158069 1989.84445561 199.59925492 1972.37706001 198.6640625 1952.046875 C198.49391725 1942.0606576 198.62668711 1933.18532801 203 1924 C203.40089844 1923.09507813 203.80179688 1922.19015625 204.21484375 1921.2578125 C213.79987833 1901.64322 232.73458319 1891.2566072 252 1883 C252 1869.47 252 1855.94 252 1842 C246.72 1839.36 241.44 1836.72 236 1834 C232.86225728 1832.04847709 229.93628136 1830.18794183 227 1828 C225.989375 1827.2575 224.97875 1826.515 223.9375 1825.75 C209.91201612 1813.54550436 202.30988369 1795.99663182 200.25390625 1777.86328125 C198.95656307 1758.12370577 205.09070486 1740.43984932 217.85546875 1725.33203125 C226.84309622 1715.55860028 237.37264854 1708.24899111 249.23046875 1702.36621094 C250.57274536 1701.69909088 250.57274536 1701.69909088 251.94213867 1701.01849365 C252.62123291 1700.68239075 253.30032715 1700.34628784 254 1700 C254.38237061 1693.06414973 254.64376646 1686.13103243 254.82397461 1679.18701172 C254.8991205 1676.82920848 255.00128269 1674.47209782 255.1315918 1672.11669922 C256.35654721 1659.53381313 256.35654721 1659.53381313 252.57397461 1647.98550415 C249.10310499 1644.73989698 245.20055806 1642.75322282 240.8656311 1640.89234924 C224.22092512 1632.93102679 210.88809061 1613.54470639 204 1597 C197.93230159 1579.03485372 198.81525093 1561.16801025 207 1544 C217.34817697 1524.83513371 233.13861156 1511.98868347 251.33203125 1500.6796875 C253.82791667 1499.24596966 253.82791667 1499.24596966 255 1498 C255.24648984 1495.03603579 255.42863752 1492.09471295 255.5625 1489.125 C255.6049585 1488.2390918 255.64741699 1487.35318359 255.69116211 1486.44042969 C256.09322351 1477.29252163 256.09320129 1468.15443772 256 1459 C254.97261719 1458.50371094 253.94523438 1458.00742188 252.88671875 1457.49609375 C225.52166152 1444.14655802 204.5369863 1426.08914706 193.87939453 1396.82788086 C187.62862081 1378.65564209 188.69433022 1359.33440186 196.55078125 1341.78125 C198.94534658 1337.18574997 201.82771605 1333.08681626 205 1329 C205.44859375 1328.38640625 205.8971875 1327.7728125 206.359375 1327.140625 C218.91380916 1311.04140943 238.73936404 1305.14199828 258 1302 C258.27094482 1300.77821045 258.27094482 1300.77821045 258.54736328 1299.53173828 C267.07100938 1261.36109573 279.74666863 1225.58344025 305 1195 C305.61294922 1194.25387451 305.61294922 1194.25387451 306.23828125 1193.49267578 C344.80661137 1146.68550569 401.98573441 1123.26856985 461.375 1117.34375 C525.07268704 1111.58779785 592.91729679 1125.2237481 646 1162 C646.93457031 1162.64195313 647.86914062 1163.28390625 648.83203125 1163.9453125 C665.92708623 1176.02679628 680.53481557 1190.21163022 693 1207 C693.64710938 1207.86367187 694.29421875 1208.72734375 694.9609375 1209.6171875 C732.811833 1261.85484871 735.04128443 1328.07771159 739 1390 C740.20873779 1390.46180664 741.41747559 1390.92361328 742.6628418 1391.39941406 C744.27919907 1392.02131559 745.89548773 1392.64339543 747.51171875 1393.265625 C748.30477417 1393.56807129 749.09782959 1393.87051758 749.91491699 1394.18212891 C772.94439672 1403.07090685 790.55949187 1417.36697692 801.17480469 1440.06396484 C803.36280824 1445.1973578 804.7578837 1450.5683728 806 1456 C806.19207031 1456.77214844 806.38414062 1457.54429688 806.58203125 1458.33984375 C808.92479982 1473.25036144 807.17623217 1489.64830274 800 1503 C799.57976563 1503.79792969 799.15953125 1504.59585937 798.7265625 1505.41796875 C790.04068584 1520.89418545 776.09929896 1532.06663147 759 1537 C753.36922641 1538.19509745 747.68398078 1539.09977618 742 1540 C741.85507425 1546.40049894 741.71299667 1552.80105691 741.57275391 1559.20166016 C741.52488285 1561.37192157 741.47639713 1563.54216954 741.42724609 1565.71240234 C741.14614793 1578.14382518 740.91716148 1590.5650182 741 1603 C741.82238159 1603.30852905 741.82238159 1603.30852905 742.66137695 1603.62329102 C764.11871641 1611.74380549 783.44675742 1622.37698782 793.93017578 1643.91064453 C802.58180063 1663.12535514 804.40696634 1682.69514186 797.7421875 1702.79296875 C794.58012443 1710.71540545 790.439178 1717.44509318 785 1724 C784.48050781 1724.63292969 783.96101562 1725.26585937 783.42578125 1725.91796875 C772.12029396 1738.36254796 755.83210078 1744.04197481 740 1748 C740 1761.2 740 1774.4 740 1788 C743.526875 1789.629375 747.05375 1791.25875 750.6875 1792.9375 C771.86144959 1802.95108175 790.85492635 1816.66436842 800 1839 C805.71995429 1855.23171935 803.44819513 1872.03458415 796.25 1887.375 C792.8318816 1893.75026917 788.51608862 1899.65774048 783.26171875 1904.65234375 C781.77218391 1905.93564846 781.77218391 1905.93564846 782 1908 C781.11248047 1908.40025391 781.11248047 1908.40025391 780.20703125 1908.80859375 C777.96195625 1910.02053689 776.50944147 1911.29081898 774.6875 1913.0625 C765.42557245 1921.29532449 754.3827967 1926.63594145 742.8515625 1930.90625 C740.13986316 1931.7244777 740.13986316 1931.7244777 739 1933 C737.64583159 1940.78410093 737.88048165 1948.75646803 737.9375 1956.625 C737.94426758 1958.41744141 737.94426758 1958.41744141 737.95117188 1960.24609375 C737.96284397 1963.16411647 737.97921674 1966.08203037 738 1969 C738.86439697 1969.31171143 739.72879395 1969.62342285 740.61938477 1969.94458008 C752.53641785 1974.28675359 763.27494581 1979.78112055 773 1988 C773.66386719 1988.50789063 774.32773437 1989.01578125 775.01171875 1989.5390625 C789.64061821 2001.2076935 798.45730775 2020.95974352 800.53515625 2039.20703125 C802.53566449 2061.32362107 796.82245579 2082.45753083 782.80859375 2099.83203125 C781.91333984 2100.90517578 781.91333984 2100.90517578 781 2102 C780.22398437 2102.97582031 779.44796875 2103.95164062 778.6484375 2104.95703125 C769.25076729 2116.1822717 755.31178069 2122.67528773 742 2128 C742 2137.24 742 2146.48 742 2156 C743.98 2157.0725 745.96 2158.145 748 2159.25 C774.06055414 2173.89393367 795.72666813 2194.70146523 804 2224 C809.16414554 2243.86715865 802.70695474 2264.71437724 793 2282 C788.17761537 2289.70440148 782.21985138 2296.40286128 776 2303 C775.34902344 2303.72703125 774.69804688 2304.4540625 774.02734375 2305.203125 C765.42285006 2314.42104117 754.45285096 2321.06984212 744 2328 C744.56954542 2335.0854568 745.38095301 2342.07243367 746.53125 2349.08618164 C746.75850014 2350.49827156 746.75850014 2350.49827156 746.99034119 2351.93888855 C748.56640195 2361.68302918 750.20284067 2371.4173249 751.84423828 2381.15063477 C752.61904182 2385.75749324 753.37427048 2390.36692538 754.11279297 2394.97973633 C755.0097428 2400.58062521 755.94156082 2406.17467906 756.89794922 2411.76571465 C757.25450973 2413.88501237 757.59897847 2416.0063839 757.93066406 2418.12971687 C759.8365245 2430.26440938 761.19338892 2438.85441902 771 2447 C772.4557762 2448.75583957 773.89804789 2450.52320344 775.3125 2452.3125 C779.20320708 2457.12665588 783.33000466 2461.64924334 787.55786133 2466.16333008 C791.45968389 2470.35293609 795.07310178 2474.72154714 798.65625 2479.1875 C801.8193534 2482.98322408 805.1881159 2486.56602357 808.56518555 2490.1706543 C811.62209222 2493.4523834 814.517114 2496.80115826 817.3125 2500.3125 C825.26916939 2510.18678395 834.16778234 2519.27893909 843.25195312 2528.11254883 C866.95105566 2551.25848511 874.11734195 2578.60901732 881.19921875 2610.21875 C881.39250322 2611.07837341 881.5857877 2611.93799683 881.78492928 2612.82366943 C884.77301855 2626.14124313 887.57728457 2639.4899968 890.24609375 2652.875 C890.50545589 2654.17482063 890.50545589 2654.17482063 890.77005768 2655.50090027 C892.35014136 2663.42873673 893.91926544 2671.35872002 895.47680664 2679.29101562 C902.0114387 2712.5306711 909.74156086 2745.36336518 919.10879517 2777.92636108 C930.41887568 2817.31609574 940.05534533 2857.04190688 949.02433777 2897.01985168 C950.2432944 2902.45120684 951.46506407 2907.88192702 952.6875 2913.3125 C952.93567474 2914.41649139 953.18384949 2915.52048279 953.43954468 2916.65792847 C957.24189714 2933.54858612 961.23819763 2950.38588952 965.34024048 2967.20611572 C974.35886778 3004.19607111 982.70825581 3041.26586274 988 3079 C988.33 3079 988.66 3079 989 3079 C989 2064.25 989 1049.5 989 4 C663.95 4 338.9 4 4 4 Z M988 3216 C987.82460693 3216.74870361 987.64921387 3217.49740723 987.46850586 3218.26879883 C978.26064464 3257.22100475 962.93047719 3292.39654274 938 3324 C937.31550781 3324.88558594 936.63101563 3325.77117188 935.92578125 3326.68359375 C926.68907261 3338.47637271 916.74115757 3349.56868352 906 3360 C902.81789717 3363.15961447 899.66938069 3366.35135391 896.5234375 3369.546875 C880.56697048 3385.70316575 880.56697048 3385.70316575 872.69921875 3391.8046875 C869.1360119 3394.70269365 865.83305681 3397.84262893 862.5 3401 C857.42556312 3405.79520324 852.26530444 3410.36443716 846.80859375 3414.7265625 C843.48134683 3417.41982774 840.24024679 3420.20323359 837 3423 C831.98723961 3427.31978014 826.91460902 3431.55098563 821.77734375 3435.72265625 C818.65603433 3438.28204217 815.57556761 3440.88601545 812.5 3443.5 C805.8497371 3449.14866425 799.09878773 3454.66823688 792.328125 3460.171875 C786.77955717 3464.69411815 781.29085205 3469.27883279 775.83642578 3473.91357422 C772.41979268 3476.81219839 768.97513003 3479.67140579 765.5 3482.5 C759.82096859 3487.12552993 754.23407178 3491.85467044 748.65283203 3496.59716797 C747.02971933 3497.97477588 745.4040696 3499.34931757 743.77734375 3500.72265625 C734.52475518 3508.53445244 725.30137895 3516.38099931 716.16796875 3524.33203125 C709.78891876 3529.88495917 703.38213311 3535.3728486 696.8046875 3540.69140625 C694.11997337 3542.90124755 691.48784676 3545.16024522 688.86206055 3547.43920898 C683.12610726 3552.41410376 677.30768909 3557.16264666 671.18359375 3561.66015625 C668.84614586 3563.37810875 666.52891276 3565.11226146 664.22265625 3566.87109375 C630.41712777 3592.61508118 592.57092454 3613.71345732 550 3620 C548.86618896 3620.17136475 548.86618896 3620.17136475 547.70947266 3620.34619141 C487.20950393 3629.07774558 425.5920008 3609.22048106 368.3684082 3591.72412109 C366.07639493 3591.02335711 363.78337887 3590.32595794 361.49023438 3589.62890625 C275.99050684 3563.56489684 184.15553213 3534.71028085 86 3471 C85.19820313 3470.38769531 84.39640625 3469.77539062 83.5703125 3469.14453125 C36.08346606 3430.14303934 14.11361722 3351.39979969 5 3294 C4.67 3294 4.34 3294 4 3294 C4 3517.41 4 3740.82 4 3971 C329.05 3971 654.1 3971 989 3971 C989 3721.85 989 3472.7 989 3216 C988.67 3216 988.34 3216 988 3216 Z " fill="#B7B7B8" transform="translate(2,0)"/>
<path d="M0 0 C1.24119024 -0.00483308 2.48238048 -0.00966616 3.76118255 -0.0146457 C7.20991387 -0.02398223 10.65775544 -0.01534156 14.10640553 0.00087678 C17.84667444 0.01410872 21.58689336 0.00424891 25.32716942 -0.00266266 C32.71963344 -0.01264767 40.11192047 -0.00108332 47.50436246 0.01720773 C56.28700571 0.03798615 65.06960532 0.03606744 73.8522675 0.03362666 C91.86903667 0.02958694 109.88570221 0.05350967 127.9024353 0.087304 C129.87710825 0.09100453 131.8517812 0.09469941 133.82645416 0.09838867 C134.80616875 0.10021957 135.78588333 0.10205048 136.79528624 0.10393686 C147.63702699 0.12374359 158.47877449 0.13598294 169.32052612 0.14804077 C213.08406751 0.19784014 256.84743302 0.28256729 300.61083794 0.40262985 C302.05843693 0.40660049 302.05843693 0.40660049 303.53528035 0.41065134 C304.97753204 0.41460851 304.97753204 0.41460851 306.44892013 0.41864562 C307.88559332 0.42258608 307.88559332 0.42258608 309.35129021 0.42660615 C311.27529341 0.43188579 313.19929658 0.43717399 315.12329973 0.44247082 C328.73153395 0.47981577 342.33977007 0.51175933 355.94802856 0.53878784 C390.12786928 0.60717209 424.30733869 0.69389862 458.48681068 0.87191963 C460.59440905 0.88286214 462.70200746 0.89379654 464.80960597 0.90471275 C466.20217457 0.91192909 467.59474303 0.91917269 468.98731135 0.92644386 C479.29994917 0.97985843 489.61251362 1.01278973 499.92526245 1.03482056 C511.5243364 1.05968625 523.12295716 1.11304507 534.72172737 1.20310056 C540.54226878 1.24768774 546.36215608 1.28040725 552.18288422 1.27834702 C557.45722281 1.27686709 562.73000028 1.31234991 568.00393319 1.37683558 C569.89114713 1.39365154 571.77853748 1.39742298 573.66579223 1.38607526 C594.70192046 1.27614316 610.282686 10.07809699 625.57376099 24.24447632 C634.53706775 33.19224876 639.05606881 43.96728738 642.26516724 56.05697632 C642.56028198 57.14268921 642.85539673 58.2284021 643.15945435 59.34701538 C648.29062648 78.42963678 652.59586178 97.65963908 656.51478577 117.02410889 C657.68647385 122.812294 658.87513419 128.59691773 660.06594849 134.38119507 C660.66433424 137.29174548 661.26246997 140.20234713 661.86047363 143.11297607 C662.24753944 144.99636388 662.63491637 146.87968779 663.02264404 148.76293945 C665.06105165 158.67102021 667.04968395 168.5846982 668.92141724 178.52572632 C670.37232487 186.21703435 671.92249075 193.87139693 673.70266724 201.49447632 C673.95604858 202.58566772 674.20942993 203.67685913 674.4704895 204.80111694 C676.47686396 213.29986891 678.78947508 221.6813892 681.25344849 230.05697632 C683.09472626 236.34049767 684.76914198 242.66722348 686.45266724 248.99447632 C688.18372016 255.48837506 689.91135011 261.96566695 691.95266724 268.36947632 C693.8497861 274.33530969 695.35042296 280.38070565 696.81448364 286.46469116 C697.9659871 291.20542401 699.21513683 295.90920961 700.54006958 300.60388184 C703.55127177 311.27751816 706.21329337 322.01521718 708.76516724 332.80697632 C708.98243469 333.72066986 709.19970215 334.6343634 709.42355347 335.57574463 C712.3768658 348.00826302 715.12928304 360.45689652 717.6399231 372.98690796 C720.33859568 386.30787409 723.62719981 399.48257786 726.88577271 412.67514038 C730.86924296 428.8279161 734.65338282 445.02095194 738.2883606 461.25521851 C739.75602264 467.80215076 741.25363913 474.33898818 742.84109497 480.85800171 C748.27156196 503.15868589 752.30228811 525.69033657 755.52761841 548.40762329 C755.82130068 550.45019664 756.12677961 552.49068629 756.43508911 554.53109741 C759.44400884 574.69119606 760.21958908 594.68133944 760.26516724 615.05697632 C760.27442734 616.80180298 760.27442734 616.80180298 760.28387451 618.58187866 C760.53482359 692.00685482 734.34115758 755.5191064 682.73391724 807.60775757 C681.57018183 808.75916527 680.4038554 809.90796549 679.23391724 811.05307007 C677.66514079 812.60651709 677.66514079 812.60651709 675.89016724 814.99447632 C674.11413528 817.14724233 672.43725028 818.75928235 670.32766724 820.55697632 C666.63963092 823.70144012 663.22798727 827.04732871 659.82766724 830.49447632 C655.94355776 834.42202411 652.0165906 838.21156323 647.80813599 841.79525757 C645.50096772 843.77478064 643.26119941 845.82089752 641.01516724 847.86947632 C636.6448104 851.81819077 632.12463645 855.54074842 627.54641724 859.24447632 C624.90618994 861.42949201 622.36037003 863.68619023 619.82766724 865.99447632 C615.58465254 869.85662198 611.20423858 873.50201941 606.74563599 877.11166382 C603.57349001 879.70203737 600.44732706 882.34141069 597.32766724 884.99447632 C592.55874545 889.04482206 587.74853728 893.03800204 582.89797974 896.99057007 C573.31904835 904.80239579 563.77536771 912.65420469 554.35940552 920.66195679 C551.04499756 923.47686213 547.6998445 926.24911587 544.32766724 928.99447632 C538.64863583 933.62000625 533.06173902 938.34914676 527.48049927 943.09164429 C525.85738657 944.4692522 524.23173684 945.84379389 522.60501099 947.21713257 C512.09501952 956.09053169 501.65039066 965.03787892 491.26516724 974.05697632 C484.50023316 979.92690823 477.69634256 985.7462501 470.82766724 991.49447632 C469.85724487 992.30851929 469.85724487 992.30851929 468.86721802 993.13900757 C459.40309668 1001.06266597 449.80721189 1008.74775132 439.83694458 1016.02670288 C438.49284863 1017.00856252 437.15203589 1017.99493185 435.81448364 1018.98568726 C424.35153841 1027.46225537 412.39606833 1034.76866989 399.82766724 1041.49447632 C399.11707153 1041.87587769 398.40647583 1042.25727905 397.67434692 1042.65023804 C337.11592771 1074.5470839 270.68626419 1062.82072959 208.21047974 1043.81869507 C206.45728138 1043.27503461 204.70468444 1042.72943123 202.95266724 1042.18197632 C193.6633309 1039.31400192 184.33323741 1036.63003908 174.95510864 1034.06747437 C161.00043917 1030.22636304 147.30162768 1025.69576138 133.64016724 1020.93197632 C122.55854502 1017.06651825 122.55854502 1017.06651825 111.37454224 1013.51010132 C103.59831272 1011.15144866 95.93053972 1008.49931102 88.26516724 1005.80697632 C87.48153809 1005.53191254 86.69790894 1005.25684875 85.89053345 1004.97344971 C46.44164524 991.08373884 7.51361559 975.59380653 -30.35153198 957.81674194 C-33.23626911 956.46450581 -36.12798793 955.12797027 -39.01998901 953.79135132 C-78.34007984 935.4697158 -108.83742592 913.96711611 -130.17233276 875.49447632 C-130.6243103 874.68478394 -131.07628784 873.87509155 -131.54196167 873.04086304 C-149.5284206 840.52110507 -161.83607122 805.11146269 -168.17233276 768.49447632 C-168.34957886 767.48465698 -168.52682495 766.47483765 -168.70944214 765.43441772 C-173.57972531 737.1753469 -175.71764124 709.23414922 -175.55885315 680.61358261 C-175.54711815 678.32767173 -175.54061532 676.0417935 -175.5352478 673.75585938 C-175.46629583 648.57804102 -174.64968044 623.56323856 -172.17233276 598.49447632 C-172.04233753 597.12892712 -171.91245047 595.76336762 -171.78268433 594.39779663 C-167.05933416 546.45519155 -158.50742259 498.42203884 -146.92233276 451.67416382 C-145.21511156 444.75191534 -143.65267054 437.80097811 -142.10983276 430.84088135 C-138.80803983 415.96277577 -135.10306821 401.21781963 -131.17233276 386.49447632 C-130.57706778 384.2419284 -129.98201654 381.98932399 -129.38717651 379.73666382 C-126.48739528 368.81007849 -123.46634511 357.93866569 -120.16036987 347.1277771 C-118.87781757 342.91732996 -117.68882278 338.71659993 -116.67233276 334.43197632 C-115.48447137 329.47334563 -113.98644098 324.6562634 -112.42233276 319.80697632 C-109.96557939 312.18833262 -107.74148485 304.52268682 -105.60983276 296.80697632 C-103.70019242 289.90157579 -101.77487594 283.01208811 -99.60983276 276.18197632 C-99.21795776 274.93674194 -98.82608276 273.69150757 -98.42233276 272.40853882 C-97.77384407 270.36370755 -97.11564556 268.32312636 -96.44186401 266.28646851 C-89.68339731 245.81380351 -87.2759774 224.78444325 -84.60592651 203.47543335 C-83.58685826 195.41893048 -82.3813507 187.4497102 -80.86691284 179.47323608 C-80.17932537 175.69061843 -79.71605062 171.90094894 -79.28170776 168.08041382 C-78.25157028 159.49415309 -76.72389898 151.0378976 -75.04733276 142.55697632 C-74.8954953 141.78579468 -74.74365784 141.01461304 -74.58721924 140.22006226 C-53.88880894 35.59361337 -53.88880894 35.59361337 -18.17233276 4.49447632 C-17.3910092 3.80777548 -16.60968563 3.12107464 -15.80468559 2.41356468 C-11.0238861 -0.70245763 -5.50686143 -0.04891704 0 0 Z " fill="#FDFDFD" transform="translate(205.17233276367188,2530.5055236816406)"/>
<path d="M0 0 C327.69 0 655.38 0 993 0 C993.13690132 354.45333962 993.13690132 354.45333962 993.17383855 452.23777313 C993.17454464 454.10668056 993.17525073 455.97558799 993.17595683 457.84449542 C993.17631088 458.78164671 993.17666493 459.718798 993.17702971 460.68434781 C993.17813292 463.60415201 993.1792365 466.52395621 993.18034018 469.44376042 C993.22019533 574.88413258 993.25927811 680.324505 993.32718385 870.90867864 C993.32835482 874.21223445 993.32952606 877.51579027 993.33069739 880.81934608 C993.36394634 974.59410213 993.39694523 1068.36885827 993.42961312 1162.14361452 C993.4308246 1165.62122455 993.43203609 1169.09883457 993.4332476 1172.5764446 C993.43364774 1173.72503783 993.43404787 1174.87363106 993.43446013 1176.05703015 C993.44949586 1219.215332 993.46458819 1262.37363383 993.47971445 1305.53193565 C993.48135707 1310.21882726 993.48299905 1314.90571888 993.48464044 1319.59261049 C993.52300814 1429.14806508 993.56233313 1538.7035192 993.60510254 1648.25897217 C993.60554628 1649.39581148 993.60599001 1650.53265079 993.6064472 1651.70393978 C993.62118799 1689.46507946 993.63603014 1727.22621911 993.65088643 1764.98735875 C993.66431535 1799.12127473 993.67770755 1833.25519072 993.69097996 1867.38910675 C993.69163503 1869.07376974 993.69163503 1869.07376974 993.69230334 1870.79246632 C993.72001113 1942.07355519 993.74610152 2013.35464454 993.77068233 2084.63573456 C993.77125957 2086.30875148 993.77125957 2086.30875148 993.77184846 2088.01556673 C993.78881855 2137.20418233 993.80546556 2186.39279804 993.82175246 2235.58141387 C993.82832634 2255.43096481 993.83494715 2275.28051574 993.84159387 2295.13006667 C993.84269473 2298.41882102 993.84379406 2301.70757538 993.84489323 2304.99632974 C993.86586897 2367.7156962 993.88985942 2430.43506078 993.91658978 2493.15442504 C993.95871543 2592.02629417 993.99511591 2690.89816389 994.02095418 2789.77003872 C994.02172721 2792.71964471 994.02250713 2795.66925069 994.02328905 2798.61885668 C994.04903236 2895.85592679 994.06292268 2993.09300283 993.78795367 3397.65013154 C993.78421138 3401.00021543 993.78048466 3404.35029933 993.77676394 3407.70038324 C993.77554577 3408.79645707 993.77432761 3409.8925309 993.77307253 3411.02181909 C993.7708567 3413.01599391 993.76864297 3415.01016874 993.76643242 3417.00434357 C993.55955913 3603.00295764 993.26842353 3789.00147016 993 3975 C665.31 3975 337.62 3975 0 3975 C-0.4375 3614.125 -0.4375 3614.125 -0.56811523 3500.08251953 C-0.61135765 3466.41416846 -0.61135765 3466.41416846 -0.65589905 3432.74581909 C-0.67704498 3416.73371798 -0.69495517 3400.72161642 -0.71129703 3384.7095098 C-0.72804651 3368.37609354 -0.74845797 3352.04268486 -0.77237374 3335.7092775 C-0.78648007 3326.00219322 -0.79795759 3316.29511474 -0.80541687 3306.58802303 C-0.81061568 3300.17060692 -0.81938405 3293.75320197 -0.83100615 3287.3357943 C-0.83751595 3283.68582571 -0.84252561 3280.0358731 -0.84315884 3276.38589835 C-0.8463673 3263.10126521 -0.85543726 3249.85493579 -1.77417618 3236.59722126 C-2.14371432 3230.71072766 -2.14324233 3224.82969043 -2.1328125 3218.93359375 C-2.13376923 3217.68981461 -2.13472595 3216.44603546 -2.13571167 3215.16456604 C-2.13638459 3212.56584624 -2.13459322 3209.96712466 -2.13037109 3207.3684082 C-2.12500551 3203.44152983 -2.13034912 3199.51476556 -2.13671875 3195.58789062 C-2.1360579 3193.03645809 -2.1347766 3190.48502562 -2.1328125 3187.93359375 C-2.13483673 3186.7872496 -2.13686096 3185.64090546 -2.13894653 3184.45982361 C-2.12201733 3178.43478611 -1.91870196 3172.46679626 -1.500076 3166.45586551 C-0.83131082 3155.85469405 -0.85931968 3145.26414822 -0.86938947 3134.64584917 C-0.86781869 3132.40945032 -0.86581171 3130.17305175 -0.86341216 3127.93665364 C-0.85808313 3121.79594096 -0.85892975 3115.65524243 -0.86079345 3109.51452829 C-0.86162595 3103.50102627 -0.85772647 3097.48752833 -0.85398808 3091.47402786 C-0.84638912 3078.98121953 -0.8434996 3066.48841407 -0.84316199 3053.99560361 C-0.84279763 3041.27129235 -0.84022866 3028.54698428 -0.8350333 3015.82267404 C-0.83470492 3015.01514468 -0.83437654 3014.20761532 -0.8340382 3013.37561537 C-0.83235166 3009.2522963 -0.83063022 3005.12897725 -0.82889687 3001.0056582 C-0.81631743 2970.90354983 -0.80863481 2940.80144174 -0.80341911 2910.69933128 C-0.79811647 2880.18882401 -0.79063669 2849.67831841 -0.78049088 2819.16781235 C-0.78017188 2818.20560506 -0.77985288 2817.24339777 -0.77952421 2816.25203269 C-0.77660002 2807.43406247 -0.7736516 2798.61609226 -0.77067431 2789.79812207 C-0.76320966 2767.68632657 -0.75607379 2745.57453097 -0.74915612 2723.4627353 C-0.74883889 2722.44949207 -0.74852167 2721.43624884 -0.74819483 2720.39230128 C-0.73258554 2670.44122167 -0.72070978 2620.49014125 -0.70907402 2570.53906059 C-0.7049753 2552.95475983 -0.70085884 2535.37045907 -0.69667697 2517.78615832 C-0.69641702 2516.69305784 -0.69615708 2515.59995736 -0.69588925 2514.47373263 C-0.68382531 2463.8352252 -0.66920878 2413.19671861 -0.65393867 2362.55821207 C-0.65294008 2359.24627852 -0.65194269 2355.93434497 -0.65094561 2352.62241143 C-0.64493207 2332.65137898 -0.63889194 2312.68034653 -0.63282111 2292.7093141 C-0.6177303 2243.06168517 -0.60295839 2193.41405614 -0.58840275 2143.76642704 C-0.58807123 2142.63618225 -0.5877397 2141.50593747 -0.58739814 2140.34144284 C-0.56592948 2067.14053139 -0.54577362 1993.93961966 -0.52671719 1920.73870754 C-0.52641293 1919.57003671 -0.52610868 1918.40136587 -0.52579521 1917.19728077 C-0.51653638 1881.62220715 -0.50737472 1846.04713351 -0.49823208 1810.47205987 C-0.48811419 1771.10385045 -0.47797972 1731.73564104 -0.46777344 1692.36743164 C-0.46746659 1691.18361125 -0.46715973 1689.99979086 -0.46684358 1688.78009713 C-0.43769265 1576.33833721 -0.40586593 1463.8965781 -0.37334755 1351.45481911 C-0.37197033 1346.69202217 -0.37059389 1341.92922523 -0.36921749 1337.16642829 C-0.35655139 1293.33805775 -0.34385388 1249.50968722 -0.33111694 1205.6813167 C-0.33077826 1204.51587812 -0.33043957 1203.35043953 -0.33009062 1202.14968463 C-0.32906517 1198.62104999 -0.3280397 1195.09241535 -0.32701423 1191.56378071 C-0.29931108 1096.23662305 -0.27188182 1000.9094653 -0.24463 905.58230751 C-0.24366841 902.21889535 -0.24270661 898.85548319 -0.24174474 895.49207104 C-0.21049062 786.20075812 -0.17972138 676.90944509 -0.12762691 483.92136841 C-0.12682834 480.94529236 -0.12602951 477.96921631 -0.12523057 474.99314026 C-0.12496906 474.0189663 -0.12470756 473.04479235 -0.12443813 472.04109797 C-0.12396218 470.26809197 -0.1234862 468.49508598 -0.12301016 466.72207999 C-0.08125097 311.14805352 -0.04079806 155.57402672 0 0 Z M4 4 C4 1027.66 4 2051.32 4 3106 C4.33 3106 4.66 3106 5 3106 C5.07404053 3105.33323242 5.14808105 3104.66646484 5.22436523 3103.97949219 C11.60827935 3047.9651924 23.49996463 2992.6814708 37 2938 C37.21013733 2937.14613708 37.42027466 2936.29227417 37.63677979 2935.41253662 C46.76407206 2898.35346725 57.04871001 2861.61442839 68.078125 2825.078125 C68.29323227 2824.36551262 68.50833954 2823.65290024 68.72996521 2822.91869354 C70.85222343 2815.89226177 72.98224814 2808.86826324 75.13063431 2801.84977341 C75.73384497 2799.87785794 76.33530649 2797.90541741 76.93621826 2795.93280029 C77.66911141 2793.52900948 78.40550161 2791.12628052 79.14630127 2788.72491455 C82.7562587 2776.87018982 85.30148134 2765.10137463 86.95611954 2752.81865692 C87.24404837 2750.68212657 87.53934919 2748.54671892 87.83639526 2746.41143799 C88.25969179 2743.36571777 88.68051638 2740.31967254 89.09942627 2737.27334595 C92.75680396 2710.73005835 96.49002534 2684.23377211 102 2658 C102.15106201 2657.2753656 102.30212402 2656.5507312 102.45776367 2655.80413818 C111.41868054 2612.94186168 122.83872666 2567.87429187 149 2532 C150.05479099 2530.51792643 151.10809694 2529.03479517 152.16015625 2527.55078125 C158.11218524 2519.19339621 164.24139697 2510.99452746 170.53613281 2502.89257812 C177.7900719 2493.51423659 184.94656199 2484.05849274 192.08203125 2474.58984375 C192.73719727 2473.72093506 193.39236328 2472.85202637 194.06738281 2471.95678711 C195.34318 2470.25244713 196.60968643 2468.54110785 197.86621094 2466.82250977 C200.42260484 2463.33477856 202.90849419 2459.97386611 205.99609375 2456.9375 C208.56119603 2454.24516864 210.04899004 2452.60201181 211 2449 C209.96880587 2443.45678147 206.89491926 2438.50874677 204.28417969 2433.58300781 C202.03024864 2429.04943548 200.33812096 2424.32103413 198.625 2419.5625 C198.12613281 2418.23255005 198.12613281 2418.23255005 197.6171875 2416.87573242 C192.27587465 2402.18301758 190.13172714 2384.87731147 196 2370 C198.05225564 2366.10278726 200.39354291 2362.54658309 203 2359 C203.46277344 2358.35289062 203.92554688 2357.70578125 204.40234375 2357.0390625 C214.79140322 2343.72902109 233.14423183 2336.27104431 248 2329 C248.81186791 2315.98128865 249.13767006 2303.03042931 249.09765625 2289.98828125 C249.09578416 2288.15455667 249.09436401 2286.32083159 249.09336853 2284.48710632 C249.0896055 2279.73129826 249.07983075 2274.97552223 249.06866455 2270.21972656 C249.05831438 2265.33854607 249.05384219 2260.45736025 249.04882812 2255.57617188 C249.03820087 2246.05076741 249.02120225 2236.5253864 249 2227 C247.96563309 2226.66135925 246.93126617 2226.32271851 245.86555481 2225.97381592 C244.49732309 2225.52271105 243.12913594 2225.07147102 241.76098633 2224.62011719 C241.08054512 2224.39774384 240.40010391 2224.17537048 239.69904327 2223.94625854 C228.05888151 2220.09617524 218.60370466 2213.72056313 210 2205 C209.23042969 2204.24074219 208.46085938 2203.48148438 207.66796875 2202.69921875 C192.47588086 2186.88598928 184.41420588 2164.73537976 184.64648438 2142.91967773 C185.14754774 2128.24746872 189.52417941 2114.28437774 199 2103 C200.11375 2101.4840625 200.11375 2101.4840625 201.25 2099.9375 C212.99551456 2086.12807713 232.86968954 2081.13077511 250 2079 C251.54198874 2069.64025901 251.68137048 2060.18126553 251.89941406 2050.71386719 C251.96629295 2048.41076624 252.06186156 2046.10831408 252.18652344 2043.80761719 C253.33032962 2031.37604897 253.33032962 2031.37604897 249.58685303 2019.93093872 C246.14915233 2016.50931545 242.24300256 2014.28695713 237.94500732 2012.11282349 C234.59969692 2010.19882556 231.89801322 2007.58865728 229.125 2004.9375 C228.5652951 2004.40699539 228.00559021 2003.87649078 227.42892456 2003.32991028 C213.30158069 1989.84445561 199.59925492 1972.37706001 198.6640625 1952.046875 C198.49391725 1942.0606576 198.62668711 1933.18532801 203 1924 C203.40089844 1923.09507813 203.80179688 1922.19015625 204.21484375 1921.2578125 C213.79987833 1901.64322 232.73458319 1891.2566072 252 1883 C252 1869.47 252 1855.94 252 1842 C246.72 1839.36 241.44 1836.72 236 1834 C232.86225728 1832.04847709 229.93628136 1830.18794183 227 1828 C225.989375 1827.2575 224.97875 1826.515 223.9375 1825.75 C209.91201612 1813.54550436 202.30988369 1795.99663182 200.25390625 1777.86328125 C198.95656307 1758.12370577 205.09070486 1740.43984932 217.85546875 1725.33203125 C226.84309622 1715.55860028 237.37264854 1708.24899111 249.23046875 1702.36621094 C250.57274536 1701.69909088 250.57274536 1701.69909088 251.94213867 1701.01849365 C252.62123291 1700.68239075 253.30032715 1700.34628784 254 1700 C254.38237061 1693.06414973 254.64376646 1686.13103243 254.82397461 1679.18701172 C254.8991205 1676.82920848 255.00128269 1674.47209782 255.1315918 1672.11669922 C256.35654721 1659.53381313 256.35654721 1659.53381313 252.57397461 1647.98550415 C249.10310499 1644.73989698 245.20055806 1642.75322282 240.8656311 1640.89234924 C224.22092512 1632.93102679 210.88809061 1613.54470639 204 1597 C197.93230159 1579.03485372 198.81525093 1561.16801025 207 1544 C217.34817697 1524.83513371 233.13861156 1511.98868347 251.33203125 1500.6796875 C253.82791667 1499.24596966 253.82791667 1499.24596966 255 1498 C255.24648984 1495.03603579 255.42863752 1492.09471295 255.5625 1489.125 C255.6049585 1488.2390918 255.64741699 1487.35318359 255.69116211 1486.44042969 C256.09322351 1477.29252163 256.09320129 1468.15443772 256 1459 C254.97261719 1458.50371094 253.94523438 1458.00742188 252.88671875 1457.49609375 C225.52166152 1444.14655802 204.5369863 1426.08914706 193.87939453 1396.82788086 C187.62862081 1378.65564209 188.69433022 1359.33440186 196.55078125 1341.78125 C198.94534658 1337.18574997 201.82771605 1333.08681626 205 1329 C205.44859375 1328.38640625 205.8971875 1327.7728125 206.359375 1327.140625 C218.91380916 1311.04140943 238.73936404 1305.14199828 258 1302 C258.27094482 1300.77821045 258.27094482 1300.77821045 258.54736328 1299.53173828 C267.07100938 1261.36109573 279.74666863 1225.58344025 305 1195 C305.61294922 1194.25387451 305.61294922 1194.25387451 306.23828125 1193.49267578 C344.80661137 1146.68550569 401.98573441 1123.26856985 461.375 1117.34375 C525.07268704 1111.58779785 592.91729679 1125.2237481 646 1162 C646.93457031 1162.64195313 647.86914062 1163.28390625 648.83203125 1163.9453125 C665.92708623 1176.02679628 680.53481557 1190.21163022 693 1207 C693.64710938 1207.86367187 694.29421875 1208.72734375 694.9609375 1209.6171875 C732.811833 1261.85484871 735.04128443 1328.07771159 739 1390 C740.20873779 1390.46180664 741.41747559 1390.92361328 742.6628418 1391.39941406 C744.27919907 1392.02131559 745.89548773 1392.64339543 747.51171875 1393.265625 C748.30477417 1393.56807129 749.09782959 1393.87051758 749.91491699 1394.18212891 C772.94439672 1403.07090685 790.55949187 1417.36697692 801.17480469 1440.06396484 C803.36280824 1445.1973578 804.7578837 1450.5683728 806 1456 C806.19207031 1456.77214844 806.38414062 1457.54429688 806.58203125 1458.33984375 C808.92479982 1473.25036144 807.17623217 1489.64830274 800 1503 C799.57976563 1503.79792969 799.15953125 1504.59585937 798.7265625 1505.41796875 C790.04068584 1520.89418545 776.09929896 1532.06663147 759 1537 C753.36922641 1538.19509745 747.68398078 1539.09977618 742 1540 C741.85507425 1546.40049894 741.71299667 1552.80105691 741.57275391 1559.20166016 C741.52488285 1561.37192157 741.47639713 1563.54216954 741.42724609 1565.71240234 C741.14614793 1578.14382518 740.91716148 1590.5650182 741 1603 C741.82238159 1603.30852905 741.82238159 1603.30852905 742.66137695 1603.62329102 C764.11871641 1611.74380549 783.44675742 1622.37698782 793.93017578 1643.91064453 C802.58180063 1663.12535514 804.40696634 1682.69514186 797.7421875 1702.79296875 C794.58012443 1710.71540545 790.439178 1717.44509318 785 1724 C784.48050781 1724.63292969 783.96101562 1725.26585937 783.42578125 1725.91796875 C772.12029396 1738.36254796 755.83210078 1744.04197481 740 1748 C740 1761.2 740 1774.4 740 1788 C743.526875 1789.629375 747.05375 1791.25875 750.6875 1792.9375 C771.86144959 1802.95108175 790.85492635 1816.66436842 800 1839 C805.71995429 1855.23171935 803.44819513 1872.03458415 796.25 1887.375 C792.8318816 1893.75026917 788.51608862 1899.65774048 783.26171875 1904.65234375 C781.77218391 1905.93564846 781.77218391 1905.93564846 782 1908 C781.11248047 1908.40025391 781.11248047 1908.40025391 780.20703125 1908.80859375 C777.96195625 1910.02053689 776.50944147 1911.29081898 774.6875 1913.0625 C765.42557245 1921.29532449 754.3827967 1926.63594145 742.8515625 1930.90625 C740.13986316 1931.7244777 740.13986316 1931.7244777 739 1933 C737.64583159 1940.78410093 737.88048165 1948.75646803 737.9375 1956.625 C737.94426758 1958.41744141 737.94426758 1958.41744141 737.95117188 1960.24609375 C737.96284397 1963.16411647 737.97921674 1966.08203037 738 1969 C738.86439697 1969.31171143 739.72879395 1969.62342285 740.61938477 1969.94458008 C752.53641785 1974.28675359 763.27494581 1979.78112055 773 1988 C773.66386719 1988.50789063 774.32773437 1989.01578125 775.01171875 1989.5390625 C789.64061821 2001.2076935 798.45730775 2020.95974352 800.53515625 2039.20703125 C802.53566449 2061.32362107 796.82245579 2082.45753083 782.80859375 2099.83203125 C781.91333984 2100.90517578 781.91333984 2100.90517578 781 2102 C780.22398437 2102.97582031 779.44796875 2103.95164062 778.6484375 2104.95703125 C769.25076729 2116.1822717 755.31178069 2122.67528773 742 2128 C742 2137.24 742 2146.48 742 2156 C743.98 2157.0725 745.96 2158.145 748 2159.25 C774.06055414 2173.89393367 795.72666813 2194.70146523 804 2224 C809.16414554 2243.86715865 802.70695474 2264.71437724 793 2282 C788.17761537 2289.70440148 782.21985138 2296.40286128 776 2303 C775.34902344 2303.72703125 774.69804688 2304.4540625 774.02734375 2305.203125 C765.42285006 2314.42104117 754.45285096 2321.06984212 744 2328 C744.56954542 2335.0854568 745.38095301 2342.07243367 746.53125 2349.08618164 C746.75850014 2350.49827156 746.75850014 2350.49827156 746.99034119 2351.93888855 C748.56640195 2361.68302918 750.20284067 2371.4173249 751.84423828 2381.15063477 C752.61904182 2385.75749324 753.37427048 2390.36692538 754.11279297 2394.97973633 C755.0097428 2400.58062521 755.94156082 2406.17467906 756.89794922 2411.76571465 C757.25450973 2413.88501237 757.59897847 2416.0063839 757.93066406 2418.12971687 C759.8365245 2430.26440938 761.19338892 2438.85441902 771 2447 C772.4557762 2448.75583957 773.89804789 2450.52320344 775.3125 2452.3125 C779.20320708 2457.12665588 783.33000466 2461.64924334 787.55786133 2466.16333008 C791.45968389 2470.35293609 795.07310178 2474.72154714 798.65625 2479.1875 C801.8193534 2482.98322408 805.1881159 2486.56602357 808.56518555 2490.1706543 C811.62209222 2493.4523834 814.517114 2496.80115826 817.3125 2500.3125 C825.26916939 2510.18678395 834.16778234 2519.27893909 843.25195312 2528.11254883 C866.95105566 2551.25848511 874.11734195 2578.60901732 881.19921875 2610.21875 C881.39250322 2611.07837341 881.5857877 2611.93799683 881.78492928 2612.82366943 C884.77301855 2626.14124313 887.57728457 2639.4899968 890.24609375 2652.875 C890.50545589 2654.17482063 890.50545589 2654.17482063 890.77005768 2655.50090027 C892.35014136 2663.42873673 893.91926544 2671.35872002 895.47680664 2679.29101562 C902.0114387 2712.5306711 909.74156086 2745.36336518 919.10879517 2777.92636108 C930.41887568 2817.31609574 940.05534533 2857.04190688 949.02433777 2897.01985168 C950.2432944 2902.45120684 951.46506407 2907.88192702 952.6875 2913.3125 C952.93567474 2914.41649139 953.18384949 2915.52048279 953.43954468 2916.65792847 C957.24189714 2933.54858612 961.23819763 2950.38588952 965.34024048 2967.20611572 C974.35886778 3004.19607111 982.70825581 3041.26586274 988 3079 C988.33 3079 988.66 3079 989 3079 C989 2064.25 989 1049.5 989 4 C663.95 4 338.9 4 4 4 Z M455 1147 C454.18885742 1147.09651855 453.37771484 1147.19303711 452.54199219 1147.29248047 C426.46328748 1150.41025259 402.10320023 1158.63692385 379 1171 C378.07960938 1171.48919922 378.07960938 1171.48919922 377.140625 1171.98828125 C364.23601035 1178.90934595 353.05203234 1187.47662908 342.49560547 1197.57617188 C341.02289472 1198.97820405 339.53015967 1200.35619183 338.03515625 1201.734375 C324.36823454 1214.58110164 314.47962456 1230.39054 306 1247 C305.63535645 1247.7101123 305.27071289 1248.42022461 304.89501953 1249.15185547 C299.50877564 1259.7658526 295.40878675 1270.60345924 292 1282 C291.53980469 1283.5159375 291.53980469 1283.5159375 291.0703125 1285.0625 C287.14657558 1299.30121543 285.46946214 1314.26790317 286 1329 C285.27876953 1328.98114746 284.55753906 1328.96229492 283.81445312 1328.94287109 C263.74983747 1328.64894321 244.14702971 1331.31179482 229.1953125 1345.56640625 C221.30110587 1354.31745737 218.60959684 1362.9793869 218.81640625 1374.609375 C219.03870062 1378.71472636 219.58957971 1382.15072795 221 1386 C221.33 1386.92296875 221.66 1387.8459375 222 1388.796875 C228.99295593 1406.92335287 242.6075548 1420.64593843 260 1429 C264.56293566 1430.97843317 269.24120699 1432.56196668 274 1434 C275.2065625 1434.37253906 276.413125 1434.74507812 277.65625 1435.12890625 C281.06924191 1436.1680665 281.06924191 1436.1680665 285 1436 C285 1462.73 285 1489.46 285 1517 C283.02 1517.66 281.04 1518.32 279 1519 C260.52168668 1527.56793135 241.32298456 1540.41556873 232 1559 C231.49146484 1559.98226562 231.49146484 1559.98226562 230.97265625 1560.984375 C227.09143753 1569.64110247 228.33211378 1579.24847767 231.5390625 1587.9140625 C241.3149978 1608.56376541 261.64280874 1622.77976389 282 1632 C282.66 1632 283.32 1632 284 1632 C283.96970703 1632.99064453 283.93941406 1633.98128906 283.90820312 1635.00195312 C283.04867116 1663.67269586 282.87880455 1692.31769759 283 1721 C282.10513885 1721.18502075 282.10513885 1721.18502075 281.19219971 1721.3737793 C275.29420125 1722.6311492 270.18692007 1724.39279567 264.75 1727 C263.92661133 1727.39445312 263.10322266 1727.78890625 262.25488281 1728.1953125 C247.21402402 1735.65417113 235.97088641 1745.96483383 229.9140625 1761.84765625 C227.09305166 1771.57652695 228.87542231 1781.62430408 233.25390625 1790.55859375 C239.69582519 1802.09085736 248.83653841 1809.13461536 261 1814 C267.93 1814.99 274.86 1815.98 282 1817 C282 1846.04 282 1875.08 282 1905 C278.7 1905.66 275.4 1906.32 272 1907 C269.29759622 1907.85692269 266.69681504 1908.73002844 264.0625 1909.75 C263.37720215 1910.01312988 262.6919043 1910.27625977 261.98583984 1910.54736328 C248.59769909 1915.81539429 235.98347148 1922.93498141 229 1936 C226.16836766 1944.49489701 227.13414786 1953.30073051 230.9375 1961.25 C242.00283655 1980.94142055 260.68623506 1994.96356289 280 2006 C280 2039.99 280 2073.98 280 2109 C278.35 2108.67 276.7 2108.34 275 2108 C259.08327288 2106.92001618 240.24769534 2106.1162631 226.890625 2116.3125 C219.4049461 2122.9939324 214.49910865 2129.66953329 213.69140625 2139.9140625 C213.1753421 2157.86302543 219.57317547 2173.22805442 231.875 2186.3125 C235.86865766 2190.12951511 240.04598769 2192.62398554 245 2195 C246.08667969 2195.53753906 246.08667969 2195.53753906 247.1953125 2196.0859375 C254.10477666 2199.20105185 260.12181712 2199.48703858 267.625 2199.25 C269.27435547 2199.22292969 269.27435547 2199.22292969 270.95703125 2199.1953125 C273.63896703 2199.14867014 276.31899343 2199.08324119 279 2199 C278.98747192 2199.5813269 278.97494385 2200.16265381 278.96203613 2200.76159668 C278.79389513 2208.67413675 278.64206453 2216.5869505 278.5 2224.5 C278.48812275 2225.16105995 278.4762455 2225.8221199 278.46400833 2226.50321198 C277.97689436 2253.96026704 277.91380642 2281.41414283 277.9375 2308.875 C277.93835602 2309.87421478 277.93921204 2310.87342957 277.94009399 2311.90292358 C277.95147552 2324.26863379 277.97153858 2336.6343177 278 2349 C277.00114021 2349.29099075 277.00114021 2349.29099075 275.98210144 2349.58786011 C274.65521049 2349.97918625 274.65521049 2349.97918625 273.30151367 2350.37841797 C272.42935715 2350.6342868 271.55720062 2350.89015564 270.65861511 2351.15377808 C254.50984026 2356.29384038 234.51118118 2365.25267951 224 2379 C219.89401218 2387.07866434 221.29736675 2396.78582051 223.9375 2405.125 C227.96836437 2416.44455062 233.12556908 2427.46174749 238.6171875 2438.13671875 C239.03709961 2438.95487061 239.45701172 2439.77302246 239.88964844 2440.6159668 C240.69591541 2442.17193458 241.5137982 2443.72195375 242.34472656 2445.26489258 C245.06661669 2450.48345876 245.06661669 2450.48345876 244.73608398 2453.04638672 C243.52834765 2456.25179505 241.17907004 2458.59467526 238.9375 2461.125 C237.92468981 2462.29332556 236.91297812 2463.46260428 235.90234375 2464.6328125 C235.40460449 2465.20676758 234.90686523 2465.78072266 234.39404297 2466.37207031 C232.53951168 2468.53774713 230.76531185 2470.76124693 229 2473 C225.87408058 2476.94920683 222.64398467 2480.79463018 219.375 2484.625 C212.16518302 2491.8249435 212.16518302 2491.8249435 208 2500 C254.25328671 2500.28749962 300.50657724 2500.57437719 346.7598877 2500.85803223 C347.44948269 2500.86226144 348.13907768 2500.86649065 348.84956949 2500.87084802 C363.85283298 2500.96285779 378.85609713 2501.05475824 393.85936198 2501.14654681 C401.22183389 2501.19159039 408.58430566 2501.236658 415.94677734 2501.28173828 C416.67925344 2501.28622281 417.41172953 2501.29070734 418.16640187 2501.29532776 C441.71262711 2501.43949889 465.25884227 2501.58524319 488.8050525 2501.73184405 C513.09490519 2501.88306628 537.38476763 2502.03262028 561.67464269 2502.1802083 C565.14154961 2502.20127436 568.60845642 2502.22235861 572.07536316 2502.24345398 C573.09841108 2502.24967816 573.09841108 2502.24967816 574.14212664 2502.25602807 C584.26116599 2502.31763508 594.38019589 2502.38063546 604.4992218 2502.44441223 C664.66679837 2502.8231788 724.83111597 2503.11793623 785 2503 C784.03998289 2501.87452633 783.07919449 2500.74971052 782.11807919 2499.62517452 C781.58312263 2498.99872254 781.04816608 2498.37227056 780.49699873 2497.72683519 C778.8934231 2495.87706018 777.2319178 2494.11720406 775.49243164 2492.39477539 C774.56600609 2491.47330467 774.56600609 2491.47330467 773.62086487 2490.53321838 C772.97383102 2489.89448288 772.32679718 2489.25574738 771.66015625 2488.59765625 C770.97497421 2487.91626083 770.28979218 2487.23486542 769.58384705 2486.53282166 C766.68316355 2483.64832015 763.77652617 2480.76984634 760.87036133 2477.89086914 C758.73568003 2475.77441453 756.60411672 2473.65485374 754.47265625 2471.53515625 C753.82764664 2470.89844498 753.18263702 2470.2617337 752.51808167 2469.60572815 C748.72183479 2465.82968178 745.09540287 2461.95654876 741.62084961 2457.88127136 C740.61605485 2456.71503633 739.5846985 2455.57048736 738.51464844 2454.46382141 C734.69380001 2450.39023796 733.93156305 2446.75333145 733.19140625 2441.421875 C733.05951401 2440.59100372 732.92762177 2439.76013245 732.79173279 2438.90408325 C732.36427138 2436.18847753 731.96374813 2433.46959045 731.5625 2430.75 C731.26593261 2428.84355971 730.96707667 2426.93747411 730.66601562 2425.03173828 C730.05743794 2421.17545885 729.45630291 2417.31813491 728.85986328 2413.45996094 C727.68279854 2405.91194072 726.35007999 2398.39361927 725 2390.875 C724.63432752 2388.82259794 724.26958904 2386.7700313 723.90490723 2384.717453 C723.65801514 2383.3280941 723.41086262 2381.93878145 723.16345215 2380.54951477 C721.57002146 2371.59869461 720.0040496 2362.64305669 718.4375 2353.6875 C718.29045624 2352.84725281 718.14341248 2352.00700562 717.99191284 2351.14129639 C715.30165675 2335.76537515 712.6400633 2320.38462152 710 2305 C710.59820557 2305.00797607 711.19641113 2305.01595215 711.81274414 2305.02416992 C713.00565063 2305.03347534 713.00565063 2305.03347534 714.22265625 2305.04296875 C715.00648682 2305.05094482 715.79031738 2305.0589209 716.59790039 2305.06713867 C730.82937131 2304.66936913 740.98753665 2296.12355197 751 2287 C752.24330078 2285.88238281 752.24330078 2285.88238281 753.51171875 2284.7421875 C765.31723879 2273.57536052 775.94031756 2257.62456703 776.43212891 2240.95019531 C776.47239127 2224.92577395 769.44734018 2213.89786499 758.65625 2202.53125 C745.41328695 2189.99457832 729.06417288 2182.38130759 713 2174 C712.505 2139.845 712.505 2139.845 712 2105 C714.64 2104.67 717.28 2104.34 720 2104 C736.67393731 2100.51448768 752.91071146 2092.64445357 762.83984375 2078.3515625 C770.84937768 2065.44825414 774.4387148 2051.68665015 771.3046875 2036.66796875 C766.75032631 2021.76104706 757.36767632 2010.36568951 743.74291992 2002.77050781 C732.76241387 1997.05329985 721.1315197 1994.20573086 709 1992 C709 1963.95 709 1935.9 709 1907 C713.62 1906.67 718.24 1906.34 723 1906 C741.73519503 1902.88333692 756.84663497 1892.62374603 768.3046875 1877.59375 C773.39345884 1869.80816435 775.5364704 1861.23064141 774 1852 C768.33956872 1835.36990081 754.08504265 1827.09818897 739.3125 1819.375 C725.18597258 1812.11566181 725.18597258 1812.11566181 710 1809 C710 1779.63 710 1750.26 710 1720 C715.61 1720 721.22 1720 727 1720 C740.78842184 1718.52146898 752.98989886 1715.01010114 763 1705 C770.13446024 1696.1489779 773.72204184 1686.28496893 773.34765625 1674.890625 C772.20853663 1665.41929336 768.80966783 1657.48699975 763 1650 C762.2575 1648.96875 761.515 1647.9375 760.75 1646.875 C754.43053781 1640.26828953 747.38882123 1636.44705019 738.9375 1633.1875 C738.21353027 1632.8975415 737.48956055 1632.60758301 736.74365234 1632.30883789 C728.38560149 1629.27060492 721.38502318 1629.10412037 712 1628 C712 1589.06 712 1550.12 712 1510 C714.97 1510.33 717.94 1510.66 721 1511 C737.28414488 1512.18061086 751.44874147 1511.37862359 765.125 1501.6875 C772.33061534 1495.43071569 777.00417763 1487.19408999 778.31787109 1477.70361328 C778.47175691 1475.37640152 778.51903686 1473.0821364 778.5 1470.75 C778.49427979 1469.92516113 778.48855957 1469.10032227 778.48266602 1468.25048828 C778.09897378 1454.97757922 772.25811545 1445.71602634 763.4375 1436.25 C758.35936656 1431.56249221 753.63505241 1427.96543842 747.4375 1424.9375 C746.73496094 1424.59315918 746.03242187 1424.24881836 745.30859375 1423.89404297 C733.83496988 1418.40925583 722.54141777 1416.22355295 710 1415 C710.00785522 1414.1810022 710.00785522 1414.1810022 710.01586914 1413.34545898 C710.33785369 1374.1244799 709.20907212 1331.27704907 700 1293 C699.7839209 1292.10168457 699.5678418 1291.20336914 699.34521484 1290.27783203 C692.61447009 1263.04830426 681.8941747 1237.10009358 663 1216 C662.57219238 1215.51337891 662.14438477 1215.02675781 661.70361328 1214.52539062 C645.85881671 1196.51812452 627.29755161 1182.90911259 606 1172 C605.39188477 1171.68369629 604.78376953 1171.36739258 604.15722656 1171.04150391 C583.49687287 1160.41039193 560.43892637 1153.04347548 537.52929688 1149.41943359 C534.77643906 1148.96292686 532.03849146 1148.44541321 529.296875 1147.92578125 C504.73579002 1143.46860785 479.71646369 1143.75957729 455 1147 Z M182 2538 C181.29903436 2538.6314244 180.59806872 2539.2628488 179.8758617 2539.91340727 C156.56520985 2561.18274831 146.61959552 2596.50934326 139 2626 C138.7534668 2626.95132813 138.7534668 2626.95132813 138.50195312 2627.921875 C131.19806152 2656.17429087 125.23217571 2684.47574304 121.7109375 2713.46484375 C120.83034066 2720.57981097 119.64347485 2727.64309804 118.48217773 2734.71655273 C117.352088 2741.65249879 116.35381635 2748.59533599 115.4375 2755.5625 C113.26434353 2771.70717032 109.75116424 2786.745641 104.84912109 2802.28320312 C103.66517383 2806.0712897 102.54534849 2809.87659237 101.4375 2813.6875 C99.65204356 2819.79993298 97.83426181 2825.90203665 96 2832 C91.46122999 2847.11200843 87.05945609 2862.25167626 82.828125 2877.453125 C81.62318417 2881.78007525 80.40406658 2886.10260815 79.171875 2890.421875 C76.13665927 2901.09188878 73.26467854 2911.76177889 70.76635742 2922.57080078 C69.54942095 2927.80496818 68.18701326 2932.96561604 66.6875 2938.125 C62.8955976 2951.35330933 60.06676189 2964.8449251 57.06152344 2978.26855469 C56.18502644 2982.18182632 55.29869823 2986.09279228 54.40940857 2990.00317383 C50.18385629 3008.59653442 46.16108336 3027.19081819 43 3046 C42.78086945 3047.30348389 42.78086945 3047.30348389 42.55731201 3048.63330078 C35.84011741 3088.6874068 35.84011741 3088.6874068 31 3129 C30.92694641 3129.7359137 30.85389282 3130.47182739 30.77862549 3131.2300415 C26.01544245 3179.49227435 24.16111581 3230.99074438 32 3279 C32.207084 3280.35030456 32.41228493 3281.70089909 32.61572266 3283.05175781 C33.92555319 3291.72966665 35.39088953 3300.37216785 37 3309 C37.23106445 3310.2681958 37.23106445 3310.2681958 37.46679688 3311.56201172 C46.67463471 3361.04883601 71.3863388 3426.56009884 114.5625 3456.5 C140.962378 3474.26093129 169.7506889 3487.49257931 198.86956787 3500.07739258 C200.84289886 3500.9319656 202.81379188 3501.7918494 204.78369141 3502.65429688 C236.92333065 3516.68304817 269.96457238 3528.76339422 303 3540.5 C304.74700195 3541.12092529 304.74700195 3541.12092529 306.52929688 3541.75439453 C312.88382993 3543.98377339 319.27508861 3546.03076983 325.71875 3547.98632812 C332.48588449 3550.07688932 339.18349382 3552.3817764 345.89453125 3554.64453125 C357.46755836 3558.52890367 369.10428779 3562.0786517 380.875 3565.3125 C389.00158391 3567.56111788 397.07614295 3569.92594722 405.125 3572.4375 C426.08859406 3578.91762349 447.50249433 3584.39992407 469.07080078 3588.44873047 C471.04006859 3588.8193428 473.00721772 3589.20137736 474.97216797 3589.59423828 C531.01292685 3600.6612249 582.92115556 3587.2932214 630 3556 C634.12644229 3553.16112344 638.06403461 3550.09581754 642 3547 C643.36928576 3545.95595784 644.74052951 3544.91448073 646.11328125 3543.875 C657.30316744 3535.39623791 668.17045859 3526.61344666 678.80273438 3517.44555664 C682.38501531 3514.36218009 686.00961927 3511.34458701 689.6875 3508.375 C694.37806806 3504.57035182 698.82090776 3500.54391108 703.265625 3496.45703125 C706.74193228 3493.33332085 710.35725064 3490.40856679 713.9921875 3487.47265625 C717.50701506 3484.58319411 720.9440512 3481.61311906 724.375 3478.625 C733.85669869 3470.37174328 743.43241809 3462.25076898 753.18359375 3454.31640625 C756.33785192 3451.72212734 759.4520298 3449.08393735 762.5625 3446.4375 C767.11284316 3442.56758198 771.72832835 3438.80040103 776.41015625 3435.08984375 C780.03130969 3432.16779685 783.56954569 3429.15178514 787.11328125 3426.13671875 C790.54571609 3423.21995487 794.00592815 3420.34306574 797.5 3417.5 C802.10248466 3413.75379155 806.63722411 3409.93477213 811.1574707 3406.09033203 C814.63243023 3403.14041096 818.14453073 3400.24335594 821.6875 3397.375 C826.13903808 3393.75165505 830.42382455 3389.98036128 834.66796875 3386.1171875 C836.75823889 3384.21948831 838.86986115 3382.35266585 841 3380.5 C844.8985793 3377.10446319 848.73569717 3373.64325256 852.5703125 3370.17578125 C854.64806226 3368.31515968 856.75294291 3366.49697192 858.875 3364.6875 C863.02498416 3361.08690275 866.8648418 3357.19174442 870.70068359 3353.26245117 C873.64782611 3350.26381947 876.71799883 3347.61902597 880 3345 C881.11811528 3343.8023857 882.20344229 3342.57312634 883.25 3341.3125 C885.83272322 3338.28255198 888.52036891 3335.46255949 891.375 3332.6875 C895.48978033 3328.6215391 899.1506144 3324.31231463 902.76171875 3319.796875 C904.20115625 3317.99820615 905.66069712 3316.21534695 907.14453125 3314.453125 C947.67348085 3266.25653628 963.7426674 3208.1565184 963.5 3146.0625 C963.49785492 3144.2637291 963.49785492 3144.2637291 963.4956665 3142.42861938 C963.42731499 3119.01359156 961.50381429 3096.13568343 958 3073 C957.88164795 3072.2084552 957.7632959 3071.4169104 957.64135742 3070.60137939 C953.28810678 3041.61596051 946.9217345 3013.09099285 939.68212891 2984.69824219 C936.10631038 2970.55366583 932.92533473 2956.31399846 929.73120117 2942.07958984 C927.41508842 2931.77011429 925.02594796 2921.47929872 922.57275391 2911.20141602 C921.04135921 2904.71614189 919.62326563 2898.22036495 918.28726196 2891.69238281 C915.71359601 2879.12161074 912.84459438 2866.64570459 909.77050781 2854.18823242 C908.99454309 2851.04036284 908.22736761 2847.89043741 907.4609375 2844.74023438 C904.90731847 2834.30593929 902.21945426 2823.94778844 899.08422852 2813.67236328 C897.73039355 2809.08682273 896.58606028 2804.46885338 895.45202637 2799.82411194 C893.81626639 2793.16175091 891.92142493 2786.58448781 890 2780 C889.05426073 2776.71675669 888.11506246 2773.43185469 887.18359375 2770.14453125 C886.30024358 2767.03158981 885.38892023 2763.92762111 884.47265625 2760.82421875 C875.93747678 2731.55686087 870.19996623 2701.62094993 864.56439209 2671.68615723 C855.45883876 2600.66364078 855.45883876 2600.66364078 817.109375 2544.8828125 C810.95823084 2541.15812471 804.49016983 2538.08228801 798 2535 C797.42994264 2534.64220522 796.85988527 2534.28441044 796.27255344 2533.91577339 C792.94620207 2532.57534987 789.66867163 2532.69280879 786.13523865 2532.68356323 C784.92994654 2532.66874691 784.92994654 2532.66874691 783.7003051 2532.65363127 C780.98437494 2532.62276375 778.2685417 2532.60609362 775.55249023 2532.58935547 C773.58553512 2532.57017332 771.61858781 2532.55017631 769.65164852 2532.52943516 C764.19977813 2532.47472558 758.7478728 2532.43289931 753.29587317 2532.39346766 C748.56970963 2532.35785126 743.84361797 2532.3152894 739.11751151 2532.27285427 C723.97988006 2532.13733948 708.84211915 2532.02505693 693.70425938 2531.91912529 C688.84835919 2531.88510741 683.99246683 2531.85011041 679.13657761 2531.81456375 C632.09140926 2531.47068065 585.04593854 2531.21203879 538 2531 C537.09030559 2530.99588533 536.18061118 2530.99177066 535.24335027 2530.9875313 C484.98772317 2530.76043199 434.73216622 2530.58396037 384.47607899 2530.50217819 C381.51704759 2530.49732951 378.5580162 2530.49247142 375.59898484 2530.48759463 C373.63060695 2530.48435162 371.66222902 2530.48113188 369.69385105 2530.47793552 C354.9300154 2530.45354372 340.16631544 2530.41020934 325.40255737 2530.3571167 C308.47455353 2530.29634938 291.54670674 2530.26078386 274.61858964 2530.2582342 C265.03655726 2530.25610267 255.45501752 2530.23463059 245.873105 2530.18619941 C239.42728699 2530.15561739 232.98177621 2530.15072075 226.53590612 2530.16657682 C222.8485796 2530.17493679 219.16217915 2530.17217865 215.47497547 2530.13862586 C211.49395517 2530.10269434 207.51423206 2530.12108856 203.53309631 2530.14476013 C202.38380901 2530.12573484 201.23452172 2530.10670954 200.05040753 2530.08710772 C191.9693179 2530.20180771 187.76134175 2532.42954048 182 2538 Z M988 3216 C987.82460693 3216.74870361 987.64921387 3217.49740723 987.46850586 3218.26879883 C978.26064464 3257.22100475 962.93047719 3292.39654274 938 3324 C937.31550781 3324.88558594 936.63101563 3325.77117188 935.92578125 3326.68359375 C926.68907261 3338.47637271 916.74115757 3349.56868352 906 3360 C902.81789717 3363.15961447 899.66938069 3366.35135391 896.5234375 3369.546875 C880.56697048 3385.70316575 880.56697048 3385.70316575 872.69921875 3391.8046875 C869.1360119 3394.70269365 865.83305681 3397.84262893 862.5 3401 C857.42556312 3405.79520324 852.26530444 3410.36443716 846.80859375 3414.7265625 C843.48134683 3417.41982774 840.24024679 3420.20323359 837 3423 C831.98723961 3427.31978014 826.91460902 3431.55098563 821.77734375 3435.72265625 C818.65603433 3438.28204217 815.57556761 3440.88601545 812.5 3443.5 C805.8497371 3449.14866425 799.09878773 3454.66823688 792.328125 3460.171875 C786.77955717 3464.69411815 781.29085205 3469.27883279 775.83642578 3473.91357422 C772.41979268 3476.81219839 768.97513003 3479.67140579 765.5 3482.5 C759.82096859 3487.12552993 754.23407178 3491.85467044 748.65283203 3496.59716797 C747.02971933 3497.97477588 745.4040696 3499.34931757 743.77734375 3500.72265625 C734.52475518 3508.53445244 725.30137895 3516.38099931 716.16796875 3524.33203125 C709.78891876 3529.88495917 703.38213311 3535.3728486 696.8046875 3540.69140625 C694.11997337 3542.90124755 691.48784676 3545.16024522 688.86206055 3547.43920898 C683.12610726 3552.41410376 677.30768909 3557.16264666 671.18359375 3561.66015625 C668.84614586 3563.37810875 666.52891276 3565.11226146 664.22265625 3566.87109375 C630.41712777 3592.61508118 592.57092454 3613.71345732 550 3620 C548.86618896 3620.17136475 548.86618896 3620.17136475 547.70947266 3620.34619141 C487.20950393 3629.07774558 425.5920008 3609.22048106 368.3684082 3591.72412109 C366.07639493 3591.02335711 363.78337887 3590.32595794 361.49023438 3589.62890625 C275.99050684 3563.56489684 184.15553213 3534.71028085 86 3471 C85.19820313 3470.38769531 84.39640625 3469.77539062 83.5703125 3469.14453125 C36.08346606 3430.14303934 14.11361722 3351.39979969 5 3294 C4.67 3294 4.34 3294 4 3294 C4 3517.41 4 3740.82 4 3971 C329.05 3971 654.1 3971 989 3971 C989 3721.85 989 3472.7 989 3216 C988.67 3216 988.34 3216 988 3216 Z " fill="#010101" transform="translate(2,0)"/>
<path d="M0 0 C327.69 0 655.38 0 993 0 C993 1028.28 993 2056.56 993 3116 C992.67 3116 992.34 3116 992 3116 C989.70666424 3100.32737149 988.56505416 3085.04840156 988.62740451 3069.21888971 C988.62479962 3067.02185184 988.62087947 3064.82481522 988.61578555 3062.62778171 C988.60563461 3056.62917933 988.61396028 3050.63072825 988.62548765 3044.63213374 C988.63377643 3038.74736458 988.62771742 3032.86261324 988.62219715 3026.97784459 C988.61123917 3014.76065037 988.61441124 3002.54349684 988.62535045 2990.32630426 C988.6364239 2977.88988331 988.64081157 2965.45348564 988.63730332 2953.01705998 C988.63708436 2952.22664211 988.6368654 2951.43622425 988.6366398 2950.62185432 C988.6354922 2946.58563371 988.6342394 2942.54941314 988.63295073 2938.51319257 C988.62377751 2909.07672076 988.62934464 2879.64026594 988.64238358 2850.20379639 C988.65554735 2820.37511494 988.66212813 2790.54644262 988.66067696 2760.71775818 C988.66063408 2759.77647574 988.66059121 2758.83519329 988.66054704 2757.86538714 C988.66015177 2749.23898193 988.65968343 2740.61257672 988.65912804 2731.98617152 C988.6577389 2710.35640544 988.65734114 2688.7266394 988.65760171 2667.09687328 C988.65761858 2665.61026834 988.65761858 2665.61026834 988.65763578 2664.09363097 C988.65827808 2615.25490849 988.67017945 2566.41618946 988.68280983 2517.57746887 C988.68724745 2500.38814865 988.69163152 2483.19882842 988.69581819 2466.00950813 C988.69607849 2464.94093828 988.69633879 2463.87236842 988.69660698 2462.77141766 C988.7086034 2413.25491812 988.71289415 2363.73841884 988.71521609 2314.22191801 C988.71536837 2310.9827516 988.71552427 2307.74358518 988.71568111 2304.50441877 C988.71662341 2284.97198526 988.71748552 2265.43955176 988.71825503 2245.90711824 C988.72017146 2197.35141648 988.72304978 2148.7957148 988.72658062 2100.24001312 C988.72666052 2099.13466752 988.72674042 2098.02932191 988.72682274 2096.89048098 C988.7320046 2025.31139876 988.74114599 1953.7323177 988.75360584 1882.15323639 C988.75380471 1881.0105969 988.75400358 1879.86795741 988.75420847 1878.69069248 C988.76027041 1843.90857716 988.76662561 1809.1264619 988.77303817 1774.34434664 C988.78013316 1735.85375064 988.78717811 1697.36315464 988.79400635 1658.87255859 C988.7943146 1657.13639614 988.7943146 1657.13639614 988.79462907 1655.36515971 C988.81413389 1545.41394035 988.82556344 1435.46272062 988.8349077 1325.51149998 C988.83530413 1320.85377765 988.8357029 1316.19605532 988.83610176 1311.53833299 C988.839772 1268.67664958 988.84334749 1225.81496617 988.84680401 1182.95328274 C988.84694189 1181.24367174 988.84694189 1181.24367174 988.84708256 1179.49952315 C988.84736085 1176.04869477 988.8476391 1172.59786639 988.84791735 1169.14703801 C988.8554347 1075.92363245 988.8637783 982.70022696 988.87265726 889.47682151 C988.87297032 886.18768878 988.87328274 882.89855606 988.87359498 879.60942334 C988.88374293 772.73710924 988.89535339 665.86479545 988.92260839 477.15452427 C988.9230431 474.24456051 988.92347701 471.33459675 988.92391061 468.42463299 C988.92405258 467.47209963 988.92419456 466.51956627 988.92434084 465.53816826 C988.92459922 463.804548 988.92485749 462.07092775 988.9251156 460.33730749 C988.94779654 308.2248713 988.97441897 156.11243572 989 4 C663.95 4 338.9 4 4 4 C4.01571045 98.02260742 4.0314209 192.04521484 4.04760742 288.91699219 C4.06714843 410.99473519 4.06714843 410.99473519 4.075245 465.73096934 C4.07552645 467.63175851 4.07580792 469.53254767 4.07608939 471.43333684 C4.07623049 472.38646535 4.07637159 473.33959387 4.07651697 474.32160508 C4.07695691 477.29143125 4.0773977 480.26125743 4.07783873 483.2310836 C4.09367488 589.88741824 4.10776371 696.54375296 4.12671701 888.65786173 C4.12702968 891.97182931 4.12734299 895.2857969 4.12765651 898.59976448 C4.13653947 992.50688452 4.14483998 1086.4140046 4.15236078 1180.32112476 C4.15263915 1183.79691942 4.15291756 1187.27271408 4.15319599 1190.74850874 C4.15328794 1191.89650268 4.15337989 1193.04449663 4.15347463 1194.22727827 C4.15693369 1237.39274892 4.16052579 1280.55821957 4.16419732 1323.7236902 C4.16459611 1328.41364329 4.16499338 1333.10359638 4.16538927 1337.79354947 C4.17473367 1448.47910698 4.18646736 1559.1646635 4.20599365 1669.85021973 C4.20630161 1671.59731276 4.20630161 1671.59731276 4.20661579 1673.37970061 C4.21344671 1712.11135978 4.22050999 1750.84301892 4.22760532 1789.57467805 C4.23401558 1824.57056145 4.24034239 1859.56644487 4.24639416 1894.56232834 C4.246593 1895.71199764 4.24679185 1896.86166695 4.24699672 1898.04617471 C4.25943076 1970.06287343 4.26824897 2042.07957191 4.27341938 2114.09627151 C4.27349973 2115.20880642 4.27358008 2116.32134132 4.27366287 2117.4675894 C4.27718911 2166.33126045 4.27996196 2215.19493151 4.2818737 2264.05860264 C4.28264634 2283.717941 4.28353053 2303.37727936 4.28447582 2323.03661771 C4.28463163 2326.29623752 4.28478381 2329.55585732 4.28493561 2332.81547713 C4.28728272 2382.66043275 4.29211408 2432.50538654 4.30418181 2482.35034084 C4.30444191 2483.42481909 4.30470201 2484.49929733 4.30496999 2485.60633552 C4.30916916 2502.89021871 4.31357604 2520.17410184 4.31801878 2537.45798497 C4.3306363 2586.54520183 4.3418454 2635.63241678 4.34239829 2684.71963549 C4.34241021 2685.71640612 4.34242213 2686.71317675 4.34243442 2687.74015255 C4.34266485 2709.49073285 4.34207579 2731.24131305 4.34068569 2752.99189331 C4.34014442 2761.66780695 4.33971533 2770.3437206 4.33932304 2779.01963425 C4.33927734 2779.96601356 4.33923163 2780.91239287 4.33918454 2781.88745035 C4.33779058 2811.86393832 4.34561908 2841.84041432 4.35882619 2871.81689916 C4.37180285 2901.35531295 4.37562301 2930.89371192 4.36627048 2960.43212758 C4.36498813 2964.48701224 4.3638108 2968.54189693 4.36269668 2972.59678164 C4.3624746 2973.39053954 4.36225251 2974.18429744 4.3620237 2975.0021086 C4.35880879 2987.46617459 4.36555414 2999.93021357 4.37667444 3012.39427417 C4.38737585 3024.62016461 4.38724905 3036.84601631 4.37590322 3049.07190656 C4.37016152 3055.56781522 4.36921705 3062.06364879 4.38170573 3068.55955201 C4.43105121 3095.86158191 3.97127692 3122.84143957 1 3150 C0.67 3150 0.34 3150 0 3150 C0 2110.5 0 1071 0 0 Z " fill="#FAFAFA" transform="translate(2,0)"/>
<path d="M0 0 C0.33 0 0.66 0 1 0 C1 260.04 1 520.08 1 788 C-326.69 788 -654.38 788 -992 788 C-992 549.74 -992 311.48 -992 66 C-991.67 66 -991.34 66 -991 66 C-987.07373771 97.33734012 -987.58390763 128.84669865 -987.64714199 160.36511533 C-987.66331672 168.76683872 -987.66122941 177.16853849 -987.65895871 185.57027368 C-987.65525801 200.99370932 -987.6650056 216.41710625 -987.68327332 231.8405304 C-987.70792959 252.6950111 -987.71359117 273.54942596 -987.71618652 294.40393066 C-987.73190012 344.4984616 -987.77378381 394.59298156 -987.8125 444.6875 C-987.874375 556.660625 -987.93625 668.63375 -988 784 C-662.95 784 -337.9 784 -3 784 C-3.11881047 533.46727552 -3.11881047 533.46727552 -3.27026367 282.93457031 C-3.28381348 234.52880859 -3.28381348 234.52880859 -3.28633118 211.88299561 C-3.2893156 194.98999447 -3.30225338 178.09702935 -3.32002028 161.20403832 C-3.33790004 143.97049422 -3.3445051 126.73697282 -3.34033485 109.5034198 C-3.3381858 99.26246629 -3.34411634 89.02159738 -3.36242279 78.78065956 C-3.37370393 72.0090241 -3.37398787 65.23744458 -3.36550602 58.46580521 C-3.36099139 54.61514586 -3.36107352 50.7646484 -3.37464774 46.91400671 C-3.42747355 31.0463098 -3.07400843 15.622843 0 0 Z " fill="#FAFAFA" transform="translate(994,3187)"/>
</svg>
