<?xml version="1.0" encoding="UTF-8"?>
<!DOCTYPE svg PUBLIC "-//W3C//DTD SVG 1.1//EN" "http://www.w3.org/Graphics/SVG/1.1/DTD/svg11.dtd">
<svg xmlns="http://www.w3.org/2000/svg" version="1.1" width="996px" height="3975px" style="shape-rendering:geometricPrecision; text-rendering:geometricPrecision; image-rendering:optimizeQuality; fill-rule:evenodd; clip-rule:evenodd" xmlns:xlink="http://www.w3.org/1999/xlink">
<g><path style="opacity:0.931" fill="#fafafa" d="M 1.5,-0.5 C 332.5,-0.5 663.5,-0.5 994.5,-0.5C 994.5,1038.17 994.5,2076.83 994.5,3115.5C 992.433,3103.38 991.1,3091.05 990.5,3078.5C 990.5,2053.5 990.5,1028.5 990.5,3.5C 662.167,3.5 333.833,3.5 5.5,3.5C 5.5,1037.5 5.5,2071.5 5.5,3105.5C 4.70808,3119.03 3.37475,3132.37 1.5,3145.5C 1.5,2096.83 1.5,1048.17 1.5,-0.5 Z M 990.5,3078.5 C 987.011,3057.91 983.177,3037.25 979,3016.5C 966.369,2964.64 954.369,2912.64 943,2860.5C 931.958,2816.33 920.291,2772.33 908,2728.5C 899.744,2689.89 891.744,2651.22 884,2612.5C 880.291,2596.33 875.957,2580.33 871,2564.5C 867.443,2554.38 862.11,2545.38 855,2537.5C 823.496,2504.78 793.163,2471.11 764,2436.5C 757.45,2400.2 751.45,2363.87 746,2327.5C 770.157,2313.68 788.49,2294.34 801,2269.5C 813.081,2239.25 808.415,2211.91 787,2187.5C 774.535,2174.52 760.368,2163.86 744.5,2155.5C 743.502,2146.19 743.168,2136.86 743.5,2127.5C 780.747,2114.23 800.747,2087.73 803.5,2048C 800.043,2007.05 778.71,1980.55 739.5,1968.5C 739.258,1956.47 739.758,1944.47 741,1932.5C 769.201,1923.29 789.535,1905.29 802,1878.5C 809.94,1850.65 802.774,1827.49 780.5,1809C 768.937,1800.05 756.271,1792.88 742.5,1787.5C 741.501,1774.18 741.167,1760.85 741.5,1747.5C 778.661,1740.34 799.661,1718.01 804.5,1680.5C 802.142,1640.47 781.809,1614.47 743.5,1602.5C 743.272,1581.53 743.272,1560.53 743.5,1539.5C 780.502,1536 802.335,1516 809,1479.5C 810.952,1445.23 797.452,1419.07 768.5,1401C 759.963,1396.06 750.963,1392.23 741.5,1389.5C 739.716,1364.8 737.549,1340.14 735,1315.5C 723.649,1220.49 672.482,1158.32 581.5,1129C 517.363,1108.86 453.696,1110.2 390.5,1133C 316.305,1165.13 272.638,1221.3 259.5,1301.5C 217.429,1306.4 194.429,1329.9 190.5,1372C 195.282,1414.12 217.448,1442.96 257,1458.5C 257.3,1471.51 256.967,1484.51 256,1497.5C 248.747,1502.21 241.58,1507.04 234.5,1512C 218.085,1524.42 207.251,1540.58 202,1560.5C 198.543,1581.22 203.21,1599.89 216,1616.5C 227.065,1629.85 240.065,1640.85 255,1649.5C 255.833,1666.18 255.666,1682.84 254.5,1699.5C 230.443,1709.39 213.61,1726.39 204,1750.5C 195.42,1794.34 211.753,1824.68 253,1841.5C 253.833,1855.18 253.666,1868.85 252.5,1882.5C 237.739,1887.96 224.906,1896.29 214,1907.5C 199.725,1924.28 195.725,1943.28 202,1964.5C 208.6,1981.19 218.766,1995.36 232.5,2007C 238.691,2012.03 245.024,2016.86 251.5,2021.5C 252.74,2040.51 252.74,2059.51 251.5,2078.5C 210.449,2081.55 188.449,2103.55 185.5,2144.5C 187.478,2180.96 204.812,2207.12 237.5,2223C 241.722,2224.64 246.055,2225.81 250.5,2226.5C 250.667,2254.17 250.5,2281.84 250,2309.5C 249.831,2315.86 249.331,2322.19 248.5,2328.5C 234.678,2334.24 222.012,2341.74 210.5,2351C 194.395,2367.16 189.561,2386.33 196,2408.5C 199.991,2422.31 205.491,2435.48 212.5,2448C 187.561,2480.27 163.395,2513.1 140,2546.5C 129.177,2567.3 120.511,2588.97 114,2611.5C 100.863,2664.19 91.196,2717.52 85,2771.5C 57.4852,2857.23 34.8185,2944.23 17,3032.5C 12.7083,3056.91 8.87492,3081.24 5.5,3105.5C 5.5,2071.5 5.5,1037.5 5.5,3.5C 333.833,3.5 662.167,3.5 990.5,3.5C 990.5,1028.5 990.5,2053.5 990.5,3078.5 Z"/></g>
<g><path style="opacity:0.982" fill="#010101" d="M 990.5,3078.5 C 991.1,3091.05 992.433,3103.38 994.5,3115.5C 994.179,3120.69 994.513,3125.69 995.5,3130.5C 995.5,3145.17 995.5,3159.83 995.5,3174.5C 994.521,3177.62 994.187,3180.96 994.5,3184.5C 992.157,3194.56 990.824,3204.9 990.5,3215.5C 979.584,3264.67 957.084,3307.67 923,3344.5C 909.682,3358.1 896.182,3371.6 882.5,3385C 817.167,3440.33 751.833,3495.67 686.5,3551C 666.723,3567.39 645.723,3582.06 623.5,3595C 573.617,3621.82 520.95,3629.15 465.5,3617C 360.523,3592.23 258.857,3557.9 160.5,3514C 135.362,3502.61 111.695,3488.94 89.5,3473C 79.9452,3464.45 71.4452,3454.95 64,3444.5C 33.1882,3398.57 13.6882,3348.23 5.5,3293.5C 4.37683,3279.33 3.0435,3265.33 1.5,3251.5C 0.869543,3245.07 0.202877,3238.73 -0.5,3232.5C -0.5,3212.83 -0.5,3193.17 -0.5,3173.5C 0.589322,3164.35 1.25599,3155.01 1.5,3145.5C 3.37475,3132.37 4.70808,3119.03 5.5,3105.5C 8.87492,3081.24 12.7083,3056.91 17,3032.5C 34.8185,2944.23 57.4852,2857.23 85,2771.5C 91.196,2717.52 100.863,2664.19 114,2611.5C 120.511,2588.97 129.177,2567.3 140,2546.5C 163.395,2513.1 187.561,2480.27 212.5,2448C 205.491,2435.48 199.991,2422.31 196,2408.5C 189.561,2386.33 194.395,2367.16 210.5,2351C 222.012,2341.74 234.678,2334.24 248.5,2328.5C 249.331,2322.19 249.831,2315.86 250,2309.5C 250.5,2281.84 250.667,2254.17 250.5,2226.5C 246.055,2225.81 241.722,2224.64 237.5,2223C 204.812,2207.12 187.478,2180.96 185.5,2144.5C 188.449,2103.55 210.449,2081.55 251.5,2078.5C 252.74,2059.51 252.74,2040.51 251.5,2021.5C 245.024,2016.86 238.691,2012.03 232.5,2007C 218.766,1995.36 208.6,1981.19 202,1964.5C 195.725,1943.28 199.725,1924.28 214,1907.5C 224.906,1896.29 237.739,1887.96 252.5,1882.5C 253.666,1868.85 253.833,1855.18 253,1841.5C 211.753,1824.68 195.42,1794.34 204,1750.5C 213.61,1726.39 230.443,1709.39 254.5,1699.5C 255.666,1682.84 255.833,1666.18 255,1649.5C 240.065,1640.85 227.065,1629.85 216,1616.5C 203.21,1599.89 198.543,1581.22 202,1560.5C 207.251,1540.58 218.085,1524.42 234.5,1512C 241.58,1507.04 248.747,1502.21 256,1497.5C 256.967,1484.51 257.3,1471.51 257,1458.5C 217.448,1442.96 195.282,1414.12 190.5,1372C 194.429,1329.9 217.429,1306.4 259.5,1301.5C 272.638,1221.3 316.305,1165.13 390.5,1133C 453.696,1110.2 517.363,1108.86 581.5,1129C 672.482,1158.32 723.649,1220.49 735,1315.5C 737.549,1340.14 739.716,1364.8 741.5,1389.5C 750.963,1392.23 759.963,1396.06 768.5,1401C 797.452,1419.07 810.952,1445.23 809,1479.5C 802.335,1516 780.502,1536 743.5,1539.5C 743.272,1560.53 743.272,1581.53 743.5,1602.5C 781.809,1614.47 802.142,1640.47 804.5,1680.5C 799.661,1718.01 778.661,1740.34 741.5,1747.5C 741.167,1760.85 741.501,1774.18 742.5,1787.5C 756.271,1792.88 768.937,1800.05 780.5,1809C 802.774,1827.49 809.94,1850.65 802,1878.5C 789.535,1905.29 769.201,1923.29 741,1932.5C 739.758,1944.47 739.258,1956.47 739.5,1968.5C 778.71,1980.55 800.043,2007.05 803.5,2048C 800.747,2087.73 780.747,2114.23 743.5,2127.5C 743.168,2136.86 743.502,2146.19 744.5,2155.5C 760.368,2163.86 774.535,2174.52 787,2187.5C 808.415,2211.91 813.081,2239.25 801,2269.5C 788.49,2294.34 770.157,2313.68 746,2327.5C 751.45,2363.87 757.45,2400.2 764,2436.5C 793.163,2471.11 823.496,2504.78 855,2537.5C 862.11,2545.38 867.443,2554.38 871,2564.5C 875.957,2580.33 880.291,2596.33 884,2612.5C 891.744,2651.22 899.744,2689.89 908,2728.5C 920.291,2772.33 931.958,2816.33 943,2860.5C 954.369,2912.64 966.369,2964.64 979,3016.5C 983.177,3037.25 987.011,3057.91 990.5,3078.5 Z"/></g>
<g><path style="opacity:1" fill="#b7b7b8" d="M 368.5,2500.5 C 315.5,2499.83 262.5,2499.17 209.5,2498.5C 222.694,2483.47 235.361,2467.97 247.5,2452C 237.871,2434.58 230.038,2416.41 224,2397.5C 222.859,2390.92 223.526,2384.58 226,2378.5C 233.849,2370.16 243.016,2363.66 253.5,2359C 261.833,2355.5 270.167,2352 278.5,2348.5C 280.038,2298.85 280.704,2249.18 280.5,2199.5C 247.84,2201.99 226.674,2187.66 217,2156.5C 211.649,2128.37 223.149,2112.21 251.5,2108C 261.512,2107.45 271.512,2107.62 281.5,2108.5C 282.277,2074.17 282.444,2039.84 282,2005.5C 267.238,1997.08 253.904,1986.75 242,1974.5C 238.274,1969.77 234.941,1964.77 232,1959.5C 226.65,1945.9 229.15,1934.07 239.5,1924C 252.626,1914.12 267.293,1907.62 283.5,1904.5C 283.5,1875.17 283.5,1845.83 283.5,1816.5C 258.48,1816.76 241.313,1805.42 232,1782.5C 228.302,1765.73 232.802,1751.56 245.5,1740C 257.139,1730.85 270.139,1724.35 284.5,1720.5C 284.625,1690.8 284.625,1661.14 284.5,1631.5C 268.87,1624.36 255.037,1614.7 243,1602.5C 225.718,1581.89 226.385,1561.89 245,1542.5C 257.432,1531.56 271.266,1522.9 286.5,1516.5C 286.5,1489.5 286.5,1462.5 286.5,1435.5C 257.558,1431.04 236.725,1415.71 224,1389.5C 215.486,1364.03 223.319,1345.53 247.5,1334C 260.59,1331.18 273.756,1329.01 287,1327.5C 289.702,1273.27 310.868,1227.77 350.5,1191C 385.652,1163.5 425.652,1148.16 470.5,1145C 526.06,1141.42 577.727,1153.75 625.5,1182C 667.047,1209.21 692.547,1247.38 702,1296.5C 708.483,1335.56 711.65,1374.89 711.5,1414.5C 728.407,1415.97 744.074,1421.14 758.5,1430C 778.076,1445.39 783.909,1464.89 776,1488.5C 769.49,1500.65 759.323,1507.82 745.5,1510C 734.819,1510.61 724.153,1510.44 713.5,1509.5C 713.5,1548.83 713.5,1588.17 713.5,1627.5C 730.57,1628.43 745.904,1633.93 759.5,1644C 777.241,1662.4 779.075,1682.23 765,1703.5C 756.329,1712.25 745.829,1717.42 733.5,1719C 726.174,1719.5 718.841,1719.67 711.5,1719.5C 711.5,1749.17 711.5,1778.83 711.5,1808.5C 729.627,1813.37 746.293,1821.2 761.5,1832C 776.259,1843.6 779.426,1857.77 771,1874.5C 756.454,1895.53 736.287,1906.19 710.5,1906.5C 710.167,1934.84 710.5,1963.17 711.5,1991.5C 726.657,1994.16 740.657,1999.66 753.5,2008C 776.911,2029.7 779.744,2053.87 762,2080.5C 748.989,2094.76 732.822,2102.76 713.5,2104.5C 713.333,2127.5 713.5,2150.5 714,2173.5C 732.543,2181.72 749.21,2192.72 764,2206.5C 780.139,2225.16 781.806,2245.16 769,2266.5C 758.558,2282.61 744.724,2294.78 727.5,2303C 722.207,2303.98 716.874,2304.48 711.5,2304.5C 719.35,2353.6 727.85,2402.6 737,2451.5C 753.138,2468.64 769.638,2485.47 786.5,2502C 647.169,2501.61 507.835,2501.11 368.5,2500.5 Z"/></g>
<g><path style="opacity:1" fill="#464647" d="M 209.5,2498.5 C 262.5,2499.17 315.5,2499.83 368.5,2500.5C 315.163,2500.83 261.829,2500.5 208.5,2499.5C 208.624,2498.89 208.957,2498.56 209.5,2498.5 Z"/></g>
<g><path style="opacity:1" fill="#fdfdfd" d="M 192.5,2530.5 C 393.502,2530.82 594.502,2531.65 795.5,2533C 812.139,2538.99 825.973,2548.82 837,2562.5C 839.527,2566.22 841.527,2570.22 843,2574.5C 847.817,2588.95 851.817,2603.62 855,2618.5C 862.68,2657.22 870.68,2695.89 879,2734.5C 891.241,2778.32 902.907,2822.32 914,2866.5C 924.584,2915.67 935.917,2964.67 948,3013.5C 957.978,3056.61 963.478,3100.28 964.5,3144.5C 966.914,3211.43 946.414,3270.1 903,3320.5C 880.824,3344.68 857.324,3367.51 832.5,3389C 775.092,3435.72 718.426,3483.38 662.5,3532C 637.769,3552.71 610.436,3569.38 580.5,3582C 544.728,3593.55 508.394,3595.55 471.5,3588C 383.344,3566.95 297.344,3539.28 213.5,3505C 184.987,3493.39 157.321,3480.05 130.5,3465C 109,3452.83 92.1667,3436 80,3414.5C 54.4972,3370.52 38.8305,3323.18 33,3272.5C 27.4337,3213 28.7671,3153.67 37,3094.5C 45.338,3036.81 57.0047,2979.81 72,2923.5C 84.9811,2874.89 98.9811,2826.55 114,2778.5C 120,2723.83 129.667,2669.83 143,2616.5C 149.445,2590.62 160.445,2566.95 176,2545.5C 181.097,2539.9 186.597,2534.9 192.5,2530.5 Z"/></g>
<g><path style="opacity:0.962" fill="#fafafa" d="M 994.5,3184.5 C 994.5,3447.83 994.5,3711.17 994.5,3974.5C 663.5,3974.5 332.5,3974.5 1.5,3974.5C 1.5,3733.5 1.5,3492.5 1.5,3251.5C 3.0435,3265.33 4.37683,3279.33 5.5,3293.5C 5.5,3519.17 5.5,3744.83 5.5,3970.5C 333.833,3970.5 662.167,3970.5 990.5,3970.5C 990.5,3718.83 990.5,3467.17 990.5,3215.5C 990.824,3204.9 992.157,3194.56 994.5,3184.5 Z"/></g>
</svg>
