<?xml version="1.0" encoding="UTF-8"?>
<!DOCTYPE svg PUBLIC "-//W3C//DTD SVG 1.1//EN" "http://www.w3.org/Graphics/SVG/1.1/DTD/svg11.dtd">
<svg xmlns="http://www.w3.org/2000/svg" version="1.1" width="994px" height="3975px" style="shape-rendering:geometricPrecision; text-rendering:geometricPrecision; image-rendering:optimizeQuality; fill-rule:evenodd; clip-rule:evenodd" xmlns:xlink="http://www.w3.org/1999/xlink">
<g><path style="opacity:0.969" fill="#fafafa" d="M 0.5,-0.5 C 331.5,-0.5 662.5,-0.5 993.5,-0.5C 993.5,1047.17 993.5,2094.83 993.5,3142.5C 991.683,3125.69 990.35,3108.69 989.5,3091.5C 989.5,2062.17 989.5,1032.83 989.5,3.5C 661.167,3.5 332.833,3.5 4.5,3.5C 4.5,1041.17 4.5,2078.83 4.5,3116.5C 3.49049,3135.34 2.15716,3154.01 0.5,3172.5C 0.5,2114.83 0.5,1057.17 0.5,-0.5 Z M 989.5,3091.5 C 986.003,3067.86 981.836,3044.19 977,3020.5C 967.333,2979.17 957.667,2937.83 948,2896.5C 904.667,2689.83 861.333,2483.17 818,2276.5C 740.333,1827.83 662.667,1379.17 585,930.5C 577.575,877.466 563.909,826.132 544,776.5C 532.283,749.378 517.283,724.378 499,701.5C 487.83,689.171 474.664,679.671 459.5,673C 434.652,665.616 413.818,671.783 397,691.5C 383.435,710.17 374.102,730.837 369,753.5C 359.721,793.286 354.721,833.62 354,874.5C 351.817,944.505 349.484,1014.51 347,1084.5C 317.402,1398.48 288.069,1712.48 259,2026.5C 250.7,2113.24 239.366,2199.57 225,2285.5C 216.422,2334.06 205.422,2382.06 192,2429.5C 174.061,2483.65 156.728,2537.98 140,2592.5C 107.857,2697.6 76.5238,2802.93 46,2908.5C 27.4593,2977.04 13.626,3046.37 4.5,3116.5C 4.5,2078.83 4.5,1041.17 4.5,3.5C 332.833,3.5 661.167,3.5 989.5,3.5C 989.5,1032.83 989.5,2062.17 989.5,3091.5 Z"/></g>
<g><path style="opacity:0.982" fill="#000000" d="M 989.5,3091.5 C 990.35,3108.69 991.683,3125.69 993.5,3142.5C 993.5,3148.83 993.5,3155.17 993.5,3161.5C 992.007,3177.35 990.673,3193.35 989.5,3209.5C 979.848,3260.47 957.681,3305.14 923,3343.5C 908.833,3359 894,3373.83 878.5,3388C 817.5,3439.67 756.5,3491.33 695.5,3543C 674.723,3560.22 653.057,3576.22 630.5,3591C 579.413,3621.4 524.746,3630.4 466.5,3618C 362.49,3594.11 261.824,3560.44 164.5,3517C 138.534,3505.02 113.867,3491.02 90.5,3475C 85.3656,3470.87 80.5323,3466.37 76,3461.5C 49.0592,3427.96 29.7258,3390.29 18,3348.5C 12.5192,3328.59 8.01925,3308.59 4.5,3288.5C 3.99963,3273.61 2.6663,3258.94 0.5,3244.5C 0.820506,3239.31 0.487173,3234.31 -0.5,3229.5C -0.5,3213.83 -0.5,3198.17 -0.5,3182.5C 0.479442,3179.38 0.812775,3176.04 0.5,3172.5C 2.15716,3154.01 3.49049,3135.34 4.5,3116.5C 13.626,3046.37 27.4593,2977.04 46,2908.5C 76.5238,2802.93 107.857,2697.6 140,2592.5C 156.728,2537.98 174.061,2483.65 192,2429.5C 205.422,2382.06 216.422,2334.06 225,2285.5C 239.366,2199.57 250.7,2113.24 259,2026.5C 288.069,1712.48 317.402,1398.48 347,1084.5C 349.484,1014.51 351.817,944.505 354,874.5C 354.721,833.62 359.721,793.286 369,753.5C 374.102,730.837 383.435,710.17 397,691.5C 413.818,671.783 434.652,665.616 459.5,673C 474.664,679.671 487.83,689.171 499,701.5C 517.283,724.378 532.283,749.378 544,776.5C 563.909,826.132 577.575,877.466 585,930.5C 662.667,1379.17 740.333,1827.83 818,2276.5C 861.333,2483.17 904.667,2689.83 948,2896.5C 957.667,2937.83 967.333,2979.17 977,3020.5C 981.836,3044.19 986.003,3067.86 989.5,3091.5 Z"/></g>
<g><path style="opacity:1" fill="#fefefe" d="M 836.5,2497.5 C 731.001,2498.17 625.334,2498.5 519.5,2498.5C 413.498,2498.5 307.831,2497.83 202.5,2496.5C 230.703,2409.99 251.203,2321.66 264,2231.5C 276.053,2145.41 286.053,2059.08 294,1972.5C 314.622,1747.79 335.622,1523.12 357,1298.5C 370.655,1143.09 380.321,987.418 386,831.5C 388.188,798.224 394.855,765.891 406,734.5C 411.218,721.303 419.385,710.47 430.5,702C 436.656,699.055 442.989,698.721 449.5,701C 461.787,707.286 472.287,715.786 481,726.5C 498.026,749.544 511.693,774.544 522,801.5C 530.948,825.011 538.282,849.011 544,873.5C 573.688,1031.65 602.355,1189.98 630,1348.5C 686.351,1678.61 743.351,2008.61 801,2338.5C 813.63,2391.35 825.463,2444.35 836.5,2497.5 Z"/></g>
<g><path style="opacity:1" fill="#cacaca" d="M 202.5,2496.5 C 307.831,2497.83 413.498,2498.5 519.5,2498.5C 625.334,2498.5 731.001,2498.17 836.5,2497.5C 837.043,2497.56 837.376,2497.89 837.5,2498.5C 625.501,2499.5 413.501,2499.83 201.5,2499.5C 201.263,2498.21 201.596,2497.21 202.5,2496.5 Z"/></g>
<g><path style="opacity:1" fill="#dadada" d="M 192.5,2529.5 C 300.833,2528.83 409.333,2528.5 518,2528.5C 626.835,2528.5 735.335,2529.17 843.5,2530.5C 626.57,2529.5 409.57,2529.17 192.5,2529.5 Z"/></g>
<g><path style="opacity:1" fill="#fefefe" d="M 192.5,2529.5 C 409.57,2529.17 626.57,2529.5 843.5,2530.5C 869.837,2664.02 897.004,2797.35 925,2930.5C 937.249,2976.75 947.583,3023.41 956,3070.5C 961.423,3104.62 963.423,3138.95 962,3173.5C 958.937,3224.25 941.937,3269.59 911,3309.5C 888.202,3337.3 863.035,3362.8 835.5,3386C 777.944,3433.29 720.944,3481.29 664.5,3530C 641.174,3549.34 615.841,3565.67 588.5,3579C 552.992,3593.65 516.325,3597.32 478.5,3590C 377.737,3567.41 280.071,3535.41 185.5,3494C 158.59,3482.55 133.257,3468.55 109.5,3452C 92.6991,3435.89 79.1991,3417.39 69,3396.5C 45.037,3347.31 32.037,3295.31 30,3240.5C 28.6861,3203.76 29.6861,3167.09 33,3130.5C 43.1733,3044.96 60.5067,2960.96 85,2878.5C 119.762,2761.72 155.596,2645.39 192.5,2529.5 Z"/></g>
<g><path style="opacity:0.866" fill="#fbfbfb" d="M 993.5,3161.5 C 993.5,3432.5 993.5,3703.5 993.5,3974.5C 662.5,3974.5 331.5,3974.5 0.5,3974.5C 0.5,3731.17 0.5,3487.83 0.5,3244.5C 2.6663,3258.94 3.99963,3273.61 4.5,3288.5C 4.5,3515.83 4.5,3743.17 4.5,3970.5C 332.833,3970.5 661.167,3970.5 989.5,3970.5C 989.5,3716.83 989.5,3463.17 989.5,3209.5C 990.673,3193.35 992.007,3177.35 993.5,3161.5 Z"/></g>
</svg>
