<?xml version="1.0" encoding="UTF-8"?>
<!DOCTYPE svg PUBLIC "-//W3C//DTD SVG 1.1//EN" "http://www.w3.org/Graphics/SVG/1.1/DTD/svg11.dtd">
<svg xmlns="http://www.w3.org/2000/svg" version="1.1" width="1441px" height="3975px" style="shape-rendering:geometricPrecision; text-rendering:geometricPrecision; image-rendering:optimizeQuality; fill-rule:evenodd; clip-rule:evenodd" xmlns:xlink="http://www.w3.org/1999/xlink">
<g><path style="opacity:0.771" fill="#fdfdfd" d="M -0.5,-0.5 C 479.833,-0.5 960.167,-0.5 1440.5,-0.5C 1440.5,1028.83 1440.5,2058.17 1440.5,3087.5C 1438.12,3080.14 1436.78,3072.48 1436.5,3064.5C 1436.5,2044.17 1436.5,1023.83 1436.5,3.5C 958.833,3.5 481.167,3.5 3.5,3.5C 3.5,1018.83 3.5,2034.17 3.5,3049.5C 0.968893,3112.17 0.968893,3174.84 3.5,3237.5C 3.5,3481.83 3.5,3726.17 3.5,3970.5C 481.167,3970.5 958.833,3970.5 1436.5,3970.5C 1436.5,3697.5 1436.5,3424.5 1436.5,3151.5C 1436.86,3133.94 1438.19,3116.61 1440.5,3099.5C 1440.5,3391.17 1440.5,3682.83 1440.5,3974.5C 960.167,3974.5 479.833,3974.5 -0.5,3974.5C -0.5,2649.5 -0.5,1324.5 -0.5,-0.5 Z M 1436.5,3064.5 C 1417.42,2966.01 1383.92,2872.67 1336,2784.5C 1290.38,2703.87 1231.88,2633.7 1160.5,2574C 1143.2,2560.35 1125.2,2547.68 1106.5,2536C 1068.73,2504.56 1031.89,2472.06 996,2438.5C 988.621,2403.27 981.121,2368.1 973.5,2333C 997.494,2322 1017.66,2306.17 1034,2285.5C 1053.65,2256.82 1053.31,2228.49 1033,2200.5C 1015.89,2182.19 995.719,2168.19 972.5,2158.5C 971.167,2149.83 971.167,2141.17 972.5,2132.5C 1002.28,2124.54 1024.12,2106.87 1038,2079.5C 1050.42,2038.43 1038.26,2006.93 1001.5,1985C 990.817,1979.24 979.65,1974.74 968,1971.5C 967.5,1959.84 967.333,1948.17 967.5,1936.5C 996.999,1930.13 1020.5,1914.8 1038,1890.5C 1052.53,1861.93 1047.37,1837.43 1022.5,1817C 1006.32,1805.66 988.822,1796.83 970,1790.5C 969.5,1777.5 969.333,1764.5 969.5,1751.5C 999.667,1749.02 1022.5,1735.02 1038,1709.5C 1051.39,1671.67 1041.22,1641.83 1007.5,1620C 995.916,1613.62 983.75,1608.79 971,1605.5C 971.202,1585.18 971.536,1564.85 972,1544.5C 992.952,1543.41 1011.78,1536.57 1028.5,1524C 1055.73,1495.85 1058.56,1465.35 1037,1432.5C 1018.94,1411.38 996.105,1398.38 968.5,1393.5C 967.351,1356.67 962.517,1320.34 954,1284.5C 938.052,1230.89 905.552,1190.72 856.5,1164C 798.033,1133.4 735.7,1118.24 669.5,1118.5C 613.767,1118.41 560.767,1130.24 510.5,1154C 449.411,1186.11 411.244,1235.94 396,1303.5C 383.297,1305.64 370.797,1308.81 358.5,1313C 313.871,1335.1 302.371,1368.6 324,1413.5C 340.783,1438.09 363.617,1454.42 392.5,1462.5C 392.667,1475.17 392.5,1487.84 392,1500.5C 372.164,1509.34 354.831,1521.67 340,1537.5C 319.211,1564.69 319.545,1591.69 341,1618.5C 355.201,1633.43 371.534,1645.43 390,1654.5C 390.667,1670.5 390.667,1686.5 390,1702.5C 371.879,1709.22 355.879,1719.22 342,1732.5C 322.662,1756.53 320.329,1782.2 335,1809.5C 348.142,1828.48 365.975,1840.48 388.5,1845.5C 388.667,1858.84 388.5,1872.17 388,1885.5C 371.343,1890.58 356.176,1898.41 342.5,1909C 318.217,1933.55 316.383,1959.72 337,1987.5C 351.151,2003.49 367.651,2016.49 386.5,2026.5C 386.569,2045.08 386.569,2063.75 386.5,2082.5C 360.444,2082.23 338.277,2091.23 320,2109.5C 304.011,2132.73 302.344,2157.07 315,2182.5C 330.561,2209.13 353.561,2225.46 384,2231.5C 384.667,2264.17 384.667,2296.83 384,2329.5C 383.626,2330.42 383.126,2331.25 382.5,2332C 364.886,2337.97 348.553,2346.31 333.5,2357C 316.895,2371.91 312.062,2390.08 319,2411.5C 323.769,2425.87 330.269,2439.37 338.5,2452C 325.038,2467.8 311.204,2483.3 297,2498.5C 289.421,2508.66 282.088,2518.99 275,2529.5C 225.086,2562.75 183.086,2604.08 149,2653.5C 103.022,2723.14 68.0221,2798.14 44,2878.5C 26.53,2934.71 13.03,2991.71 3.5,3049.5C 3.5,2034.17 3.5,1018.83 3.5,3.5C 481.167,3.5 958.833,3.5 1436.5,3.5C 1436.5,1023.83 1436.5,2044.17 1436.5,3064.5 Z M 1436.5,3151.5 C 1436.5,3424.5 1436.5,3697.5 1436.5,3970.5C 958.833,3970.5 481.167,3970.5 3.5,3970.5C 3.5,3726.17 3.5,3481.83 3.5,3237.5C 22.6136,3359.94 81.2803,3458.44 179.5,3533C 238.58,3575.35 304.58,3598.18 377.5,3601.5C 428.276,3600.22 476.61,3588.72 522.5,3567C 563.084,3547.81 601.251,3524.98 637,3498.5C 712.727,3526.19 788.894,3552.69 865.5,3578C 921.961,3596.36 979.628,3609.36 1038.5,3617C 1111.39,3626.36 1177.05,3609.03 1235.5,3565C 1296.21,3516.28 1342.71,3456.45 1375,3385.5C 1407.72,3310.64 1428.22,3232.64 1436.5,3151.5 Z"/></g>
<g><path style="opacity:0.982" fill="#010101" d="M 1436.5,3064.5 C 1436.78,3072.48 1438.12,3080.14 1440.5,3087.5C 1440.5,3091.5 1440.5,3095.5 1440.5,3099.5C 1438.19,3116.61 1436.86,3133.94 1436.5,3151.5C 1428.22,3232.64 1407.72,3310.64 1375,3385.5C 1342.71,3456.45 1296.21,3516.28 1235.5,3565C 1177.05,3609.03 1111.39,3626.36 1038.5,3617C 979.628,3609.36 921.961,3596.36 865.5,3578C 788.894,3552.69 712.727,3526.19 637,3498.5C 601.251,3524.98 563.084,3547.81 522.5,3567C 476.61,3588.72 428.276,3600.22 377.5,3601.5C 304.58,3598.18 238.58,3575.35 179.5,3533C 81.2803,3458.44 22.6136,3359.94 3.5,3237.5C 0.968893,3174.84 0.968893,3112.17 3.5,3049.5C 13.03,2991.71 26.53,2934.71 44,2878.5C 68.0221,2798.14 103.022,2723.14 149,2653.5C 183.086,2604.08 225.086,2562.75 275,2529.5C 282.088,2518.99 289.421,2508.66 297,2498.5C 311.204,2483.3 325.038,2467.8 338.5,2452C 330.269,2439.37 323.769,2425.87 319,2411.5C 312.062,2390.08 316.895,2371.91 333.5,2357C 348.553,2346.31 364.886,2337.97 382.5,2332C 383.126,2331.25 383.626,2330.42 384,2329.5C 384.667,2296.83 384.667,2264.17 384,2231.5C 353.561,2225.46 330.561,2209.13 315,2182.5C 302.344,2157.07 304.011,2132.73 320,2109.5C 338.277,2091.23 360.444,2082.23 386.5,2082.5C 386.569,2063.75 386.569,2045.08 386.5,2026.5C 367.651,2016.49 351.151,2003.49 337,1987.5C 316.383,1959.72 318.217,1933.55 342.5,1909C 356.176,1898.41 371.343,1890.58 388,1885.5C 388.5,1872.17 388.667,1858.84 388.5,1845.5C 365.975,1840.48 348.142,1828.48 335,1809.5C 320.329,1782.2 322.662,1756.53 342,1732.5C 355.879,1719.22 371.879,1709.22 390,1702.5C 390.667,1686.5 390.667,1670.5 390,1654.5C 371.534,1645.43 355.201,1633.43 341,1618.5C 319.545,1591.69 319.211,1564.69 340,1537.5C 354.831,1521.67 372.164,1509.34 392,1500.5C 392.5,1487.84 392.667,1475.17 392.5,1462.5C 363.617,1454.42 340.783,1438.09 324,1413.5C 302.371,1368.6 313.871,1335.1 358.5,1313C 370.797,1308.81 383.297,1305.64 396,1303.5C 411.244,1235.94 449.411,1186.11 510.5,1154C 560.767,1130.24 613.767,1118.41 669.5,1118.5C 735.7,1118.24 798.033,1133.4 856.5,1164C 905.552,1190.72 938.052,1230.89 954,1284.5C 962.517,1320.34 967.351,1356.67 968.5,1393.5C 996.105,1398.38 1018.94,1411.38 1037,1432.5C 1058.56,1465.35 1055.73,1495.85 1028.5,1524C 1011.78,1536.57 992.952,1543.41 972,1544.5C 971.536,1564.85 971.202,1585.18 971,1605.5C 983.75,1608.79 995.916,1613.62 1007.5,1620C 1041.22,1641.83 1051.39,1671.67 1038,1709.5C 1022.5,1735.02 999.667,1749.02 969.5,1751.5C 969.333,1764.5 969.5,1777.5 970,1790.5C 988.822,1796.83 1006.32,1805.66 1022.5,1817C 1047.37,1837.43 1052.53,1861.93 1038,1890.5C 1020.5,1914.8 996.999,1930.13 967.5,1936.5C 967.333,1948.17 967.5,1959.84 968,1971.5C 979.65,1974.74 990.817,1979.24 1001.5,1985C 1038.26,2006.93 1050.42,2038.43 1038,2079.5C 1024.12,2106.87 1002.28,2124.54 972.5,2132.5C 971.167,2141.17 971.167,2149.83 972.5,2158.5C 995.719,2168.19 1015.89,2182.19 1033,2200.5C 1053.31,2228.49 1053.65,2256.82 1034,2285.5C 1017.66,2306.17 997.494,2322 973.5,2333C 981.121,2368.1 988.621,2403.27 996,2438.5C 1031.89,2472.06 1068.73,2504.56 1106.5,2536C 1125.2,2547.68 1143.2,2560.35 1160.5,2574C 1231.88,2633.7 1290.38,2703.87 1336,2784.5C 1383.92,2872.67 1417.42,2966.01 1436.5,3064.5 Z"/></g>
<g><path style="opacity:1" fill="#b7b7b8" d="M 403.5,2111.5 C 407.634,2112.48 411.968,2112.82 416.5,2112.5C 416.5,2104.17 416.5,2095.83 416.5,2087.5C 416.667,2061.16 416.5,2034.83 416,2008.5C 400.402,2000.96 385.902,1991.79 372.5,1981C 366.59,1975.76 361.423,1969.93 357,1963.5C 351.144,1954.74 351.144,1946.07 357,1937.5C 365.632,1927.88 376.132,1921.05 388.5,1917C 397.598,1913.56 406.931,1911.06 416.5,1909.5C 418.481,1896.54 419.148,1883.21 418.5,1869.5C 418.5,1852.83 418.5,1836.17 418.5,1819.5C 393.363,1821.01 373.53,1811.68 359,1791.5C 352.754,1780.3 353.087,1769.3 360,1758.5C 368.341,1747.58 378.841,1739.41 391.5,1734C 400.883,1729.93 410.55,1726.76 420.5,1724.5C 420.667,1694.83 420.5,1665.16 420,1635.5C 332.24,1595.93 332.74,1557.59 421.5,1520.5C 422.5,1493.51 422.833,1466.51 422.5,1439.5C 395.301,1436.15 372.468,1424.48 354,1404.5C 334.797,1377.81 339.631,1356.65 368.5,1341C 371.244,1340.2 373.911,1339.2 376.5,1338C 391.952,1335.21 407.452,1333.04 423,1331.5C 423.856,1304.27 431.189,1278.94 445,1255.5C 468.237,1216.93 500.737,1189.1 542.5,1172C 594.375,1152.13 648.042,1144.8 703.5,1150C 755.155,1154 803.488,1168.66 848.5,1194C 887.438,1217.37 913.271,1250.87 926,1294.5C 934.969,1335.65 939.469,1377.32 939.5,1419.5C 964.507,1420.11 986.84,1427.94 1006.5,1443C 1017.85,1453.37 1022.68,1466.21 1021,1481.5C 1016.95,1494.76 1008.45,1503.92 995.5,1509C 977.861,1514.43 959.861,1515.93 941.5,1513.5C 941.167,1552.84 941.5,1592.17 942.5,1631.5C 958.948,1632.72 974.615,1636.89 989.5,1644C 1007.24,1653.66 1015.41,1668.49 1014,1688.5C 1010.13,1700.37 1002.63,1709.21 991.5,1715C 974.825,1721.56 957.492,1724.39 939.5,1723.5C 939.333,1753.17 939.5,1782.84 940,1812.5C 959.703,1817.84 978.536,1825.34 996.5,1835C 1021.28,1850.47 1022.95,1868.14 1001.5,1888C 982.797,1902.74 961.464,1910.24 937.5,1910.5C 937.5,1939.17 937.5,1967.83 937.5,1996.5C 956.794,1998.43 974.794,2004.26 991.5,2014C 1016.42,2032.51 1020.25,2054.67 1003,2080.5C 986.051,2097.33 965.551,2106.33 941.5,2107.5C 941.5,2131.17 941.5,2154.83 941.5,2178.5C 961.999,2185.6 980.999,2195.43 998.5,2208C 1023.55,2229.23 1025.05,2252.06 1003,2276.5C 989.655,2290.59 973.821,2300.75 955.5,2307C 949.839,2307.63 944.172,2308.13 938.5,2308.5C 948.858,2357.45 959.024,2406.45 969,2455.5C 985.74,2470.12 1002.57,2484.62 1019.5,2499C 791.833,2499.33 564.167,2499.67 336.5,2500C 334.956,2501.19 333.289,2501.52 331.5,2501C 346.293,2486.37 360.96,2471.54 375.5,2456.5C 366.398,2441.55 357.898,2426.22 350,2410.5C 348.103,2405.08 346.603,2399.58 345.5,2394C 347.015,2384.81 352.015,2378.14 360.5,2374C 377.474,2365.29 395.14,2358.45 413.5,2353.5C 413.624,2303.5 413.957,2253.5 414.5,2203.5C 385.901,2206.37 362.734,2196.7 345,2174.5C 328.192,2144.63 336.025,2124.46 368.5,2114C 380.065,2111.85 391.731,2111.02 403.5,2111.5 Z"/></g>
<g><path style="opacity:1" fill="#484848" d="M 418.5,1869.5 C 419.148,1883.21 418.481,1896.54 416.5,1909.5C 417.15,1896.07 417.816,1882.74 418.5,1869.5 Z"/></g>
<g><path style="opacity:1" fill="#545455" d="M 416.5,2087.5 C 416.5,2095.83 416.5,2104.17 416.5,2112.5C 411.968,2112.82 407.634,2112.48 403.5,2111.5C 407.5,2111.5 411.5,2111.5 415.5,2111.5C 415.174,2103.32 415.508,2095.32 416.5,2087.5 Z"/></g>
<g><path style="opacity:1" fill="#fdfdfd" d="M 334.5,2531.5 C 571.173,2532.49 807.84,2534.32 1044.5,2537C 1091.12,2558.65 1133.12,2586.98 1170.5,2622C 1256.61,2704.49 1321.77,2801.33 1366,2912.5C 1388.34,2968.18 1405.01,3025.52 1416,3084.5C 1413.48,3203.17 1383.15,3314.17 1325,3417.5C 1302.69,3454.16 1276.19,3487.66 1245.5,3518C 1218.08,3543.72 1186.74,3563.39 1151.5,3577C 1121.02,3587.45 1089.69,3591.45 1057.5,3589C 1015.78,3585.66 974.777,3578.32 934.5,3567C 886.349,3553.62 838.682,3538.62 791.5,3522C 743.941,3504.72 696.274,3487.72 648.5,3471C 646.963,3374.24 645.963,3277.41 645.5,3180.5C 635.833,3180.5 626.167,3180.5 616.5,3180.5C 617.487,3278.5 617.987,3376.5 618,3474.5C 568.251,3513.13 513.085,3541.96 452.5,3561C 386.685,3577.98 322.685,3572.65 260.5,3545C 170.686,3502.19 105.52,3435.35 65,3344.5C 47.9141,3305.16 36.9141,3264.16 32,3221.5C 30.1266,3170.51 30.1266,3119.51 32,3068.5C 46.062,2964.31 74.7286,2864.31 118,2768.5C 142.859,2713.39 175.192,2663.39 215,2618.5C 249.154,2581.49 288.988,2552.49 334.5,2531.5 Z"/></g>
</svg>
