<?xml version="1.0" encoding="UTF-8"?>
<!DOCTYPE svg PUBLIC "-//W3C//DTD SVG 1.1//EN" "http://www.w3.org/Graphics/SVG/1.1/DTD/svg11.dtd">
<svg xmlns="http://www.w3.org/2000/svg" version="1.1" width="1441px" height="3975px" style="shape-rendering:geometricPrecision; text-rendering:geometricPrecision; image-rendering:optimizeQuality; fill-rule:evenodd; clip-rule:evenodd" xmlns:xlink="http://www.w3.org/1999/xlink">
<g><path style="opacity:0.773" fill="#fdfdfd" d="M -0.5,-0.5 C 479.833,-0.5 960.167,-0.5 1440.5,-0.5C 1440.5,1324.5 1440.5,2649.5 1440.5,3974.5C 960.167,3974.5 479.833,3974.5 -0.5,3974.5C -0.5,2649.5 -0.5,1324.5 -0.5,-0.5 Z M 1436.5,2938.5 C 1427.29,2795.9 1403.79,2655.57 1366,2517.5C 1359.01,2443.27 1353.34,2368.93 1349,2294.5C 1341.05,2146.52 1333.38,1998.52 1326,1850.5C 1320.08,1739.25 1311.08,1628.25 1299,1517.5C 1288.01,1415.9 1270.01,1315.56 1245,1216.5C 1223.74,1133 1191.74,1054 1149,979.5C 1116.64,925.801 1075.14,880.301 1024.5,843C 989.711,818.44 951.711,800.607 910.5,789.5C 909.167,789.167 907.833,788.833 906.5,788.5C 872.005,748.15 832.005,714.65 786.5,688C 754.905,670.476 721.072,660.643 685,658.5C 641.135,658.533 602.635,672.7 569.5,701C 534.683,733.44 509.516,772.273 494,817.5C 481.975,851.958 473.642,887.292 469,923.5C 456.758,897.326 441.758,872.992 424,850.5C 407.63,830.796 387.797,815.629 364.5,805C 330.206,792.402 295.872,792.402 261.5,805C 241.252,814.912 225.086,829.412 213,848.5C 193.731,881.049 179.398,915.715 170,952.5C 155.94,1007.8 145.606,1063.8 139,1120.5C 124.429,1251.43 115.763,1382.77 113,1514.5C 111.189,1579.82 109.856,1645.16 109,1710.5C 107.607,1867.84 105.607,2025.17 103,2182.5C 101.483,2261.27 97.8166,2339.94 92,2418.5C 90.5503,2429.87 88.8836,2441.2 87,2452.5C 75.1285,2514.86 63.1285,2577.19 51,2639.5C 38.0446,2723.14 28.0446,2807.14 21,2891.5C 14.4663,2968.6 8.63297,3045.6 3.5,3122.5C 3.5,2082.83 3.5,1043.17 3.5,3.5C 481.167,3.5 958.833,3.5 1436.5,3.5C 1436.5,981.833 1436.5,1960.17 1436.5,2938.5 Z M 1436.5,3140.5 C 1436.5,3417.17 1436.5,3693.83 1436.5,3970.5C 958.833,3970.5 481.167,3970.5 3.5,3970.5C 3.5,3722.17 3.5,3473.83 3.5,3225.5C 20.1972,3350.56 78.1972,3451.39 177.5,3528C 301.855,3614.93 429.855,3620.27 561.5,3544C 587.442,3529.21 612.442,3513.05 636.5,3495.5C 711.173,3522.56 786.173,3548.72 861.5,3574C 911.543,3590.26 962.543,3602.59 1014.5,3611C 1184.24,3631.07 1304.74,3563.9 1376,3409.5C 1405.13,3340.66 1423.46,3268.99 1431,3194.5C 1432.94,3176.36 1434.77,3158.36 1436.5,3140.5 Z"/></g>
<g><path style="opacity:0.988" fill="#010101" d="M 906.5,788.5 C 907.538,790.519 908.872,790.853 910.5,789.5C 951.711,800.607 989.711,818.44 1024.5,843C 1075.14,880.301 1116.64,925.801 1149,979.5C 1191.74,1054 1223.74,1133 1245,1216.5C 1270.01,1315.56 1288.01,1415.9 1299,1517.5C 1311.08,1628.25 1320.08,1739.25 1326,1850.5C 1333.38,1998.52 1341.05,2146.52 1349,2294.5C 1353.34,2368.93 1359.01,2443.27 1366,2517.5C 1403.79,2655.57 1427.29,2795.9 1436.5,2938.5C 1439.11,3005.83 1439.11,3073.17 1436.5,3140.5C 1434.77,3158.36 1432.94,3176.36 1431,3194.5C 1423.46,3268.99 1405.13,3340.66 1376,3409.5C 1304.74,3563.9 1184.24,3631.07 1014.5,3611C 962.543,3602.59 911.543,3590.26 861.5,3574C 786.173,3548.72 711.173,3522.56 636.5,3495.5C 612.442,3513.05 587.442,3529.21 561.5,3544C 429.855,3620.27 301.855,3614.93 177.5,3528C 78.1972,3451.39 20.1972,3350.56 3.5,3225.5C 2.26337,3191.17 2.26337,3156.84 3.5,3122.5C 8.63297,3045.6 14.4663,2968.6 21,2891.5C 28.0446,2807.14 38.0446,2723.14 51,2639.5C 63.1285,2577.19 75.1285,2514.86 87,2452.5C 88.8836,2441.2 90.5503,2429.87 92,2418.5C 97.8166,2339.94 101.483,2261.27 103,2182.5C 105.607,2025.17 107.607,1867.84 109,1710.5C 109.856,1645.16 111.189,1579.82 113,1514.5C 115.763,1382.77 124.429,1251.43 139,1120.5C 145.606,1063.8 155.94,1007.8 170,952.5C 179.398,915.715 193.731,881.049 213,848.5C 225.086,829.412 241.252,814.912 261.5,805C 295.872,792.402 330.206,792.402 364.5,805C 387.797,815.629 407.63,830.796 424,850.5C 441.758,872.992 456.758,897.326 469,923.5C 473.642,887.292 481.975,851.958 494,817.5C 509.516,772.273 534.683,733.44 569.5,701C 602.635,672.7 641.135,658.533 685,658.5C 721.072,660.643 754.905,670.476 786.5,688C 832.005,714.65 872.005,748.15 906.5,788.5 Z"/></g>
<g><path style="opacity:1" fill="#fefefe" d="M 668.5,688.5 C 702.267,687.775 734.267,694.942 764.5,710C 803.46,731.27 838.126,758.27 868.5,791C 850.463,797.045 836.629,808.212 827,824.5C 815.556,846.042 809.556,869.042 809,893.5C 808.234,913.877 808.9,934.211 811,954.5C 814.239,985.986 818.572,1017.32 824,1048.5C 837.821,1154.39 843.488,1260.72 841,1367.5C 839.261,1532.66 818.595,1695.33 779,1855.5C 765.136,1906.42 748.47,1956.42 729,2005.5C 726.09,2012.32 722.923,2018.99 719.5,2025.5C 690.688,1956.53 663.522,1886.87 638,1816.5C 594.695,1693.39 568.028,1566.72 558,1436.5C 552.761,1371.16 547.428,1305.83 542,1240.5C 535.381,1170.21 523.381,1100.87 506,1032.5C 502.208,1018.79 498.208,1005.12 494,991.5C 494.18,933.418 504.18,877.084 524,822.5C 537.787,785.065 558.954,752.565 587.5,725C 610.846,704.659 637.846,692.492 668.5,688.5 Z"/></g>
<g><path style="opacity:0.675" fill="#f9f9f9" d="M 906.5,788.5 C 907.833,788.833 909.167,789.167 910.5,789.5C 908.872,790.853 907.538,790.519 906.5,788.5 Z"/></g>
<g><path style="opacity:1" fill="#fefefe" d="M 1333.5,2494.5 C 1333.5,2495.83 1333.5,2497.17 1333.5,2498.5C 925.5,2498.5 517.5,2498.5 109.5,2498.5C 113.762,2474.26 117.595,2449.93 121,2425.5C 129.847,2303.67 134.514,2181.67 135,2059.5C 136.295,1909.83 137.961,1760.16 140,1610.5C 142.113,1506.75 146.113,1403.09 152,1299.5C 156.781,1215.7 165.781,1132.37 179,1049.5C 187.131,994.972 201.798,942.306 223,891.5C 231.436,873.406 242.602,857.239 256.5,843C 268.366,833.241 282.033,827.574 297.5,826C 329.58,822.765 357.913,831.432 382.5,852C 400.713,868.866 415.88,888.033 428,909.5C 456.149,964.277 476.149,1021.94 488,1082.5C 500.452,1142 509.452,1202 515,1262.5C 520.085,1338.28 526.418,1413.95 534,1489.5C 546.525,1608.47 573.192,1724.13 614,1836.5C 646.671,1924.5 681.004,2011.84 717,2098.5C 755.33,2024.85 784.996,1947.85 806,1867.5C 845.698,1707.64 867.031,1545.3 870,1380.5C 872.626,1284.92 868.96,1189.59 859,1094.5C 853.184,1048.09 846.85,1001.75 840,955.5C 838.631,932.847 838.298,910.181 839,887.5C 839.616,867.321 845.616,848.988 857,832.5C 866.737,822.721 878.57,818.055 892.5,818.5C 908.727,819.973 924.394,823.807 939.5,830C 1009.7,861.205 1066.2,908.705 1109,972.5C 1144.45,1026.74 1172.45,1084.74 1193,1146.5C 1219.91,1228.79 1239.91,1312.79 1253,1398.5C 1264.96,1475.52 1274.29,1552.85 1281,1630.5C 1286.37,1695.78 1291.04,1761.12 1295,1826.5C 1302.82,1982.18 1310.82,2137.84 1319,2293.5C 1323.65,2360.51 1328.49,2427.51 1333.5,2494.5 Z"/></g>
<g><path style="opacity:1" fill="#cacaca" d="M 1333.5,2494.5 C 1334.45,2495.92 1334.78,2497.59 1334.5,2499.5C 926,2499.83 517.666,2499.5 109.5,2498.5C 517.5,2498.5 925.5,2498.5 1333.5,2498.5C 1333.5,2497.17 1333.5,2495.83 1333.5,2494.5 Z"/></g>
<g><path style="opacity:1" fill="#dadada" d="M 1338.5,2530.5 C 926.5,2529.17 514.5,2529.17 102.5,2530.5C 308.166,2529.17 514.166,2528.5 720.5,2528.5C 926.834,2528.5 1132.83,2529.17 1338.5,2530.5 Z"/></g>
<g><path style="opacity:1" fill="#fefefe" d="M 1338.5,2530.5 C 1395.61,2735.03 1417.78,2943.36 1405,3155.5C 1399.82,3230.02 1384.49,3302.35 1359,3372.5C 1293.68,3538.93 1172.52,3607.43 995.5,3578C 934.785,3565.21 875.118,3548.54 816.5,3528C 760.32,3507.66 703.987,3487.83 647.5,3468.5C 646.459,3371.84 645.792,3275.17 645.5,3178.5C 635.833,3178.5 626.167,3178.5 616.5,3178.5C 616.978,3276.17 617.478,3373.84 618,3471.5C 575.601,3503.63 529.435,3529.46 479.5,3549C 410.549,3574.28 341.883,3573.62 273.5,3547C 194.651,3513.49 133.151,3459.99 89,3386.5C 45.7502,3312.7 26.7502,3233.03 32,3147.5C 38.1228,3039.66 46.4561,2931.99 57,2824.5C 63.6385,2755.15 72.9718,2686.15 85,2617.5C 90.8356,2588.48 96.669,2559.48 102.5,2530.5C 514.5,2529.17 926.5,2529.17 1338.5,2530.5 Z"/></g>
</svg>
