<?xml version="1.0" encoding="UTF-8"?>
<svg version="1.1" xmlns="http://www.w3.org/2000/svg" width="1441" height="3975">
<path d="M0 0 C475.53 0 951.06 0 1441 0 C1441 1311.75 1441 2623.5 1441 3975 C965.47 3975 489.94 3975 0 3975 C0 2663.25 0 1351.5 0 0 Z M4 4 C4 1009.18 4 2014.36 4 3050 C4.33 3050 4.66 3050 5 3050 C5.05833008 3049.43982178 5.11666016 3048.87964355 5.17675781 3048.30249023 C15.736487 2953.01306122 47.66709442 2852.7304378 91 2759 C91.83047852 2757.22375244 91.83047852 2757.22375244 92.67773438 2755.41162109 C114.42889496 2708.99093458 139.89658347 2663.3562841 173 2624 C174.50135433 2622.14692979 176.00133404 2620.2927451 177.5 2618.4375 C181.09948527 2614.03534205 184.82757778 2609.77864576 188.6640625 2605.58203125 C189.93095364 2604.18167165 191.19183908 2602.77529593 192.41796875 2601.33911133 C197.4079544 2595.50969586 202.75483033 2590.05902277 208.17773438 2584.63696289 C209.73860327 2583.07391266 211.29127888 2581.50302635 212.84375 2579.93164062 C218.53324499 2574.21106688 224.33653067 2568.88619794 230.66430664 2563.86816406 C232.74349251 2562.20516309 234.72514485 2560.48533593 236.6875 2558.6875 C240.42453868 2555.3967878 244.34095845 2552.3742235 248.3125 2549.375 C249.33234985 2548.6022876 249.33234985 2548.6022876 250.37280273 2547.81396484 C254.10689635 2545.02569331 257.88608073 2542.40183431 261.83984375 2539.93359375 C272.83090279 2533.00653834 279.72781947 2526.14266428 286.61279297 2515.15966797 C288.91686179 2511.57258723 291.44284495 2508.15940264 294 2504.75 C294.49193848 2504.09217529 294.98387695 2503.43435059 295.49072266 2502.7565918 C299.77041311 2497.12678595 304.45236443 2491.94672111 309.3203125 2486.82421875 C312.06236475 2483.93427155 314.68708804 2480.96869387 317.29296875 2477.95703125 C319.33633431 2475.6144085 321.41680859 2473.30726578 323.5 2471 C325.00028239 2469.33358753 326.50029332 2467.66693061 328 2466 C328.98419922 2464.90945313 328.98419922 2464.90945313 329.98828125 2463.796875 C330.59027344 2463.12140625 331.19226563 2462.4459375 331.8125 2461.75 C332.33457031 2461.16734375 332.85664063 2460.5846875 333.39453125 2459.984375 C335.4522265 2457.44104365 337.21594755 2454.73993304 339 2452 C338.66790527 2451.41210693 338.33581055 2450.82421387 337.99365234 2450.21850586 C331.53978532 2438.7401142 325.31304147 2427.46998657 321 2415 C320.49533203 2413.68515625 320.49533203 2413.68515625 319.98046875 2412.34375 C316.23071008 2401.24857367 315.91102348 2386.06292534 320.75390625 2375.3046875 C321.16511719 2374.54414063 321.57632812 2373.78359375 322 2373 C322.40089844 2372.23945313 322.80179687 2371.47890625 323.21484375 2370.6953125 C335.14700743 2350.70461509 361.1548642 2341.05938701 381.875 2333.0078125 C384.16142921 2332.19089868 384.16142921 2332.19089868 385 2330 C385.09356686 2326.91807555 385.12571294 2323.85887051 385.11352539 2320.77685547 C385.11374443 2319.34264252 385.11374443 2319.34264252 385.1139679 2317.87945557 C385.1132694 2314.70867673 385.1054799 2311.53795612 385.09765625 2308.3671875 C385.09579185 2306.17286206 385.09436805 2303.97853621 385.09336853 2301.78421021 C385.0895451 2296.00065976 385.07971628 2290.2171343 385.06866455 2284.43359375 C385.0584467 2278.53515969 385.05387011 2272.6367216 385.04882812 2266.73828125 C385.03809388 2255.15884317 385.02101953 2243.57942366 385 2232 C380.9003053 2230.61156626 376.8194093 2229.44103752 372.625 2228.375 C349.82729469 2221.85793445 329.95641651 2206.4003323 317.6328125 2186.109375 C308.08978677 2167.93653175 305.47995668 2148.87660761 311 2129 C316.15944448 2112.95490939 327.22236141 2101.53967967 341.99169922 2093.80175781 C354.50439348 2087.59039805 367.84474087 2084.72463461 381.69604492 2083.47753906 C382.68867844 2083.38796936 383.68131195 2083.29839966 384.70402527 2083.20611572 C385.46169693 2083.13809753 386.21936859 2083.07007935 387 2083 C387.60234143 2075.23085854 388.05827566 2067.46267686 388.41601562 2059.6784668 C388.55440912 2057.03557139 388.72554321 2054.39417058 388.93066406 2051.75561523 C390.63802665 2037.6342748 390.63802665 2037.6342748 386.30038452 2024.75622559 C382.07616523 2021.10431909 377.36861997 2018.94140221 372.19763184 2016.9420929 C368.90712528 2015.53150046 366.37720123 2013.57853272 363.5625 2011.375 C362.63179688 2010.65183594 361.70109375 2009.92867187 360.7421875 2009.18359375 C359.83726562 2008.46300781 358.93234375 2007.74242187 358 2007 C356.54980469 2005.87271484 356.54980469 2005.87271484 355.0703125 2004.72265625 C349.41606733 2000.24063264 344.44636646 1995.68433392 340 1990 C339.33097656 1989.15566406 338.66195313 1988.31132813 337.97265625 1987.44140625 C328.01980436 1974.37481299 323.32832155 1960.65746189 324.140625 1944.140625 C326.10101566 1929.73601537 335.28712251 1915.91534427 346.6015625 1907.08984375 C358.4941286 1898.33710603 371.75940951 1891.96827674 385.875 1887.69140625 C387.96078043 1887.1904294 387.96078043 1887.1904294 389 1886 C389.08868299 1883.04294679 389.11520296 1880.10934944 389.09765625 1877.15234375 C389.0962413 1876.2659169 389.09482635 1875.37949005 389.09336853 1874.46620178 C389.08775215 1871.62326746 389.07519691 1868.78041069 389.0625 1865.9375 C389.05748711 1864.01497509 389.05292384 1862.09244896 389.04882812 1860.16992188 C389.03777741 1855.44658451 389.02050183 1850.72330542 389 1846 C387.50303589 1845.51623901 387.50303589 1845.51623901 385.97583008 1845.02270508 C372.55958516 1840.64770716 360.63217117 1835.63211546 350 1826 C349.15695312 1825.26136719 348.31390625 1824.52273438 347.4453125 1823.76171875 C335.865375 1813.00891964 327.39150095 1797.35947212 326.76171875 1781.375 C326.33755822 1760.85862288 331.74021747 1745.16087463 346 1730 C357.47718292 1719.22158012 370.97770079 1712.22915037 385.19165039 1705.83447266 C387.14971055 1704.93091526 389.07307426 1703.96791148 391 1703 C391.48497513 1696.36853377 391.81558238 1689.74165591 392.04370117 1683.09643555 C392.13880952 1680.84177013 392.2681742 1678.58826391 392.43334961 1676.33764648 C393.30278262 1665.49161286 393.30278262 1665.49161286 391 1655 C386.56990712 1649.93350835 380.49235646 1647.48569682 374.36279297 1645.03643799 C370.78007283 1643.46487954 367.70050749 1641.31372738 364.5625 1639 C363.97579529 1638.57047531 363.38909058 1638.14095062 362.78460693 1637.69841003 C345.6500725 1625.01214233 330.95158268 1608.676194 326.625 1587.1875 C324.37043614 1570.60344849 328.46099404 1555.60452326 338 1542 C352.84679884 1523.44436762 372.54205946 1512.36552252 393 1501 C393 1488.46 393 1475.92 393 1463 C387.72 1461.02 382.44 1459.04 377 1457 C373.66920402 1455.45496263 370.46621608 1453.92535759 367.25 1452.1875 C366.05624756 1451.54965576 366.05624756 1451.54965576 364.83837891 1450.89892578 C358.04235261 1447.18336062 351.96182987 1442.96213279 346 1438 C345.21625 1437.37867188 344.4325 1436.75734375 343.625 1436.1171875 C327.42534484 1422.67372367 316.39388836 1402.44137158 314.125 1381.5625 C313.31152475 1364.82524668 317.66437108 1350.14168202 328 1337 C328.42539062 1336.39929687 328.85078125 1335.79859375 329.2890625 1335.1796875 C341.6189355 1318.91635809 364.53369969 1310.2269063 384.01171875 1307.390625 C386.40684113 1307.06569576 388.80519375 1306.76305065 391.20703125 1306.4921875 C394.19852315 1306.1578984 394.19852315 1306.1578984 397 1304 C397.77451014 1302.07605147 397.77451014 1302.07605147 398.17578125 1299.80859375 C398.36027832 1298.95539551 398.54477539 1298.10219727 398.73486328 1297.22314453 C399.02079346 1295.84425049 399.02079346 1295.84425049 399.3125 1294.4375 C406.97806291 1260.37282442 424.19132975 1228.70982255 447.9921875 1203.16015625 C449.87487994 1201.13461361 451.65737061 1199.05295609 453.4375 1196.9375 C497.89811971 1146.31302165 575.55742717 1125.60402552 640 1121 C641.15121338 1120.91540527 641.15121338 1120.91540527 642.32568359 1120.82910156 C711.26694764 1115.97145152 785.72983485 1127.14498391 847 1160 C848.21864845 1160.61865814 849.43872365 1161.23451326 850.66015625 1161.84765625 C864.7230565 1168.99197965 877.97318478 1177.79366889 890 1188 C891.06833966 1188.88492499 892.13739982 1189.76898059 893.20703125 1190.65234375 C903.23425852 1198.97550369 911.95232093 1207.70524171 920 1218 C920.42152344 1218.52916016 920.84304688 1219.05832031 921.27734375 1219.60351562 C957.23577519 1265.00503662 964.06303914 1324.12469749 967.4050293 1380.07958984 C967.47117432 1381.18641113 967.53731934 1382.29323242 967.60546875 1383.43359375 C967.65856201 1384.39322021 967.71165527 1385.35284668 967.76635742 1386.34155273 C967.99608442 1388.95544754 968.43448798 1391.43965667 969 1394 C970.11375 1394.27972656 971.2275 1394.55945312 972.375 1394.84765625 C983.09373929 1397.62816558 993.04020171 1401.16509232 1003 1406 C1003.98484375 1406.47179688 1004.9696875 1406.94359375 1005.984375 1407.4296875 C1025.0550384 1417.1854893 1041.11208437 1433.4172874 1048 1454 C1052.3486256 1471.35929086 1052.4085966 1488.69486877 1044 1505 C1041.86902514 1508.50632343 1039.51688529 1511.76178057 1037 1515 C1036.42636719 1515.763125 1035.85273437 1516.52625 1035.26171875 1517.3125 C1022.29685155 1533.30342828 1000.38712439 1540.98142925 980.51171875 1543.4296875 C978.64543231 1543.58944743 976.77676518 1543.72562232 974.90625 1543.82421875 C972.99090035 1543.79603618 972.99090035 1543.79603618 972 1545 C971.87649342 1546.90160112 971.82206557 1548.8077239 971.79467773 1550.71313477 C971.77473251 1551.9343251 971.75478729 1553.15551544 971.73423767 1554.41371155 C971.71725209 1555.75627513 971.70037333 1557.09884007 971.68359375 1558.44140625 C971.66303053 1559.80761861 971.64203423 1561.17382451 971.62062073 1562.5400238 C971.56533465 1566.14194524 971.51595437 1569.74392471 971.46777344 1573.34594727 C971.41760597 1577.01909572 971.36189515 1580.69215955 971.30664062 1584.36523438 C971.19897918 1591.57675132 971.09755213 1598.78833847 971 1606 C971.90750504 1606.30179924 971.90750504 1606.30179924 972.83334351 1606.60969543 C974.03418076 1607.00942818 974.03418076 1607.00942818 975.25927734 1607.41723633 C976.0499057 1607.68031082 976.84053406 1607.94338531 977.65512085 1608.21443176 C993.48829728 1613.51877356 1008.43496122 1619.66245169 1021 1631 C1021.69480469 1631.61359375 1022.38960937 1632.2271875 1023.10546875 1632.859375 C1035.61009012 1644.56582905 1042.97975294 1660.37577766 1044.25390625 1677.390625 C1044.85230456 1695.8444568 1038.98419087 1712.2361636 1026.74609375 1726.18359375 C1011.4669011 1741.85400328 991.07531421 1748.48744763 970 1752 C970 1764.87 970 1777.74 970 1791 C973.3 1792.32 976.6 1793.64 980 1795 C1005.34125765 1805.74126326 1031.44130229 1817.81364054 1043.12890625 1844.5859375 C1047.33894879 1856.50422216 1047.19173359 1870.66318588 1042.27734375 1882.36328125 C1030.29361385 1907.10033839 1009.17160809 1922.19866588 984 1932 C978.72 1933.65 973.44 1935.3 968 1937 C968 1948.55 968 1960.1 968 1972 C973.86293554 1974.20063627 973.86293554 1974.20063627 979.75390625 1976.32421875 C993.62735766 1981.24472728 1005.80624278 1987.31231193 1017 1997 C1017.8146875 1997.61617187 1018.629375 1998.23234375 1019.46875 1998.8671875 C1032.90370719 2010.18738291 1040.5726009 2027.96562035 1043 2045 C1044.31071442 2066.77802414 1037.57056827 2086.4248044 1023.4296875 2103.015625 C1009.14595933 2117.92400601 991.30296168 2126.56567944 972 2133 C972 2141.58 972 2150.16 972 2159 C975.279375 2160.588125 978.55875 2162.17625 981.9375 2163.8125 C1009.32693567 2177.35348187 1035.33564629 2195.45197052 1046.125 2225.16015625 C1051.52928312 2242.69995012 1047.88103929 2260.61292141 1039.875 2276.625 C1026.73702513 2299.68816987 1006.02925126 2315.30090252 983.10473633 2327.83081055 C980.05361323 2329.52572164 977.02849652 2331.26499237 974 2333 C976.85605718 2347.13251728 979.72915281 2361.26147903 982.62345886 2375.38621521 C983.93407671 2381.78305352 985.24058616 2388.18065712 986.53613281 2394.58056641 C987.75534267 2400.60078603 988.98869999 2406.61794542 990.23226929 2412.63317871 C990.70117447 2414.91332122 991.16509103 2417.19449549 991.62393188 2419.47668457 C992.26601484 2422.66572874 992.9257513 2425.85063367 993.58984375 2429.03515625 C993.77491486 2429.97547195 993.95998596 2430.91578766 994.15066528 2431.88459778 C995.61520248 2438.76567205 998.2286959 2442.70332676 1003.625 2447.25 C1006.7913236 2449.95726553 1009.91048086 2452.70517345 1013 2455.5 C1015.95869751 2458.17048344 1018.92926472 2460.82298058 1021.9375 2463.4375 C1026.13164365 2467.08937053 1030.23094292 2470.84266184 1034.33984375 2474.58984375 C1037.18755795 2477.16993136 1040.07244018 2479.70201856 1042.97265625 2482.22265625 C1045.33489173 2484.29359487 1047.66795853 2486.39512848 1050 2488.5 C1053.62023723 2491.76704335 1057.26983565 2494.99520776 1060.94921875 2498.1953125 C1063.26088797 2500.22958141 1065.5353143 2502.3022231 1067.8125 2504.375 C1072.12774576 2508.26924618 1076.57091755 2511.96654724 1081.08984375 2515.62109375 C1083.66839734 2517.72893152 1086.20829785 2519.87172201 1088.73754883 2522.0378418 C1100.28467078 2531.90807441 1112.29056358 2540.578668 1124.97216797 2548.92449951 C1134.68280692 2555.32629612 1143.98736811 2562.10681553 1153.0324707 2569.42333984 C1155.18543397 2571.14859568 1157.36601984 2572.83475695 1159.55078125 2574.51953125 C1163.48646068 2577.57242177 1167.29949749 2580.73775881 1171.0625 2584 C1171.97008057 2584.78298462 1171.97008057 2584.78298462 1172.89599609 2585.58178711 C1174.59914741 2587.05244112 1176.29970051 2588.52605121 1178 2590 C1178.74378906 2590.64066406 1179.48757813 2591.28132813 1180.25390625 2591.94140625 C1185.70920043 2596.66780935 1191.01553264 2601.5573926 1196.31884766 2606.45263672 C1198.08639371 2608.07951834 1199.86128422 2609.69813979 1201.63671875 2611.31640625 C1207.04729953 2616.26713788 1212.34370531 2621.14033329 1217.0390625 2626.7890625 C1219.83858564 2629.94549695 1222.86595361 2632.85708799 1225.875 2635.8125 C1230.84729658 2640.71716398 1235.40165275 2645.74626015 1239.734375 2651.234375 C1242.32138119 2654.39230669 1245.07457051 2657.34501332 1247.875 2660.3125 C1253.57299021 2666.37979601 1258.67637105 2672.80650491 1263.74902344 2679.39794922 C1265.55085237 2681.70544365 1267.4325998 2683.94341249 1269.3125 2686.1875 C1275.25593918 2693.41285744 1280.71802772 2700.99841433 1286.22119141 2708.56103516 C1287.89285761 2710.85309463 1289.57564002 2713.13650149 1291.26171875 2715.41796875 C1308.86632154 2739.3520127 1324.52658205 2764.77667031 1338.80419922 2790.82324219 C1339.66855693 2792.39666263 1340.53802031 2793.96728193 1341.41064453 2795.53613281 C1379.16464399 2863.43311811 1405.73219308 2937.35134995 1436 3065 C1436.33 3065 1436.66 3065 1437 3065 C1437 2054.87 1437 1044.74 1437 4 C964.11 4 491.22 4 4 4 Z M1436 3152 C1435.88519287 3152.97195312 1435.77038574 3153.94390625 1435.65209961 3154.9453125 C1425.64367957 3238.97705123 1406.46910407 3321.73745058 1312 3489 C1311.50145508 3489.6285791 1311.00291016 3490.2571582 1310.48925781 3490.90478516 C1304.12819125 3498.90735491 1297.62853788 3506.69999097 1290.6328125 3514.15625 C1288.59619408 3516.35603963 1286.62276315 3518.58007933 1284.6640625 3520.84765625 C1281.01303482 3525.03650117 1277.18051619 3529.01129306 1273.25 3532.9375 C1272.20283813 3533.98454102 1272.20283813 3533.98454102 1271.13452148 3535.05273438 C1266.43038666 3539.70547267 1261.61637898 3543.99526142 1256.41015625 3548.08203125 C1254.1696519 3549.86499338 1252.09203422 3551.7346618 1250 3553.6875 C1197.32394339 3600.83350797 1128.6479008 3621.96021435 1058.9140625 3618.43359375 C1024.94432217 3616.43226827 991.09844174 3610.8065046 958 3603 C957.25973572 3602.82680237 956.51947144 3602.65360474 955.7567749 3602.47515869 C873.4440145 3583.1966605 793.85293436 3554.44867529 714.43026352 3525.8351326 C702.04309191 3521.37257496 689.6493996 3516.92847167 677.25 3512.5 C676.44037811 3512.2105249 675.63075623 3511.9210498 674.79660034 3511.62280273 C671.04664555 3510.28212999 667.29545953 3508.94523921 663.54101562 3507.6171875 C660.2082492 3506.43670191 656.88723219 3505.22678753 653.56835938 3504.0078125 C651.74875635 3503.34879697 649.92909609 3502.68993945 648.109375 3502.03125 C647.25925842 3501.71401978 646.40914185 3501.39678955 645.53326416 3501.06994629 C644.73821472 3500.78453979 643.94316528 3500.4991333 643.12402344 3500.20507812 C642.42323669 3499.94795044 641.72244995 3499.69082275 641.00042725 3499.42590332 C637.86792701 3498.75897467 635.77117135 3499.55089242 633.05566406 3501.13232422 C632.38245117 3501.6017041 631.70923828 3502.07108398 631.015625 3502.5546875 C629.87287109 3503.3446814 629.87287109 3503.3446814 628.70703125 3504.15063477 C627.49080078 3505.00419556 627.49080078 3505.00419556 626.25 3505.875 C625.40308594 3506.46144287 624.55617188 3507.04788574 623.68359375 3507.65209961 C621.1184311 3509.4291093 618.55848921 3511.21339911 616 3513 C590.74303086 3530.62127488 564.49430252 3546.11600347 537 3560 C536.06430176 3560.47324707 535.12860352 3560.94649414 534.16455078 3561.43408203 C519.14611825 3568.97063294 503.79950166 3575.29127421 488 3581 C487.07445312 3581.33515625 486.14890625 3581.6703125 485.1953125 3582.015625 C404.59161263 3610.85331234 318.0664439 3604.57186469 240.82958984 3568.33935547 C239.8958252 3567.89736816 238.96206055 3567.45538086 238 3567 C236.66702881 3566.37375732 236.66702881 3566.37375732 235.30712891 3565.73486328 C210.52481946 3554.00224317 187.41776584 3539.09393242 166 3522 C165.38592285 3521.51595703 164.7718457 3521.03191406 164.13916016 3520.53320312 C149.92651683 3509.32143873 136.97888043 3497.0457661 124.125 3484.3125 C123.25721924 3483.45785156 122.38943848 3482.60320313 121.49536133 3481.72265625 C116.31226978 3476.54601565 111.55439334 3471.17868835 106.97412109 3465.4621582 C105.40814258 3463.50904254 103.82007096 3461.59801107 102.171875 3459.71484375 C94.49570756 3450.91201302 87.68256889 3441.57221133 81 3432 C80.35297119 3431.07695068 80.35297119 3431.07695068 79.69287109 3430.13525391 C39.93923736 3373.05844993 14.2861767 3306.91320606 5 3238 C4.67 3238 4.34 3238 4 3238 C4 3479.89 4 3721.78 4 3971 C476.89 3971 949.78 3971 1437 3971 C1437 3700.73 1437 3430.46 1437 3152 C1436.67 3152 1436.34 3152 1436 3152 Z " fill="#FDFDFD" transform="translate(0,0)"/>
<path d="M0 0 C475.53 0 951.06 0 1441 0 C1441 1311.75 1441 2623.5 1441 3975 C965.47 3975 489.94 3975 0 3975 C0 2663.25 0 1351.5 0 0 Z M4 4 C4 1009.18 4 2014.36 4 3050 C4.33 3050 4.66 3050 5 3050 C5.05833008 3049.43982178 5.11666016 3048.87964355 5.17675781 3048.30249023 C15.736487 2953.01306122 47.66709442 2852.7304378 91 2759 C91.83047852 2757.22375244 91.83047852 2757.22375244 92.67773438 2755.41162109 C114.42889496 2708.99093458 139.89658347 2663.3562841 173 2624 C174.50135433 2622.14692979 176.00133404 2620.2927451 177.5 2618.4375 C181.09948527 2614.03534205 184.82757778 2609.77864576 188.6640625 2605.58203125 C189.93095364 2604.18167165 191.19183908 2602.77529593 192.41796875 2601.33911133 C197.4079544 2595.50969586 202.75483033 2590.05902277 208.17773438 2584.63696289 C209.73860327 2583.07391266 211.29127888 2581.50302635 212.84375 2579.93164062 C218.53324499 2574.21106688 224.33653067 2568.88619794 230.66430664 2563.86816406 C232.74349251 2562.20516309 234.72514485 2560.48533593 236.6875 2558.6875 C240.42453868 2555.3967878 244.34095845 2552.3742235 248.3125 2549.375 C249.33234985 2548.6022876 249.33234985 2548.6022876 250.37280273 2547.81396484 C254.10689635 2545.02569331 257.88608073 2542.40183431 261.83984375 2539.93359375 C272.83090279 2533.00653834 279.72781947 2526.14266428 286.61279297 2515.15966797 C288.91686179 2511.57258723 291.44284495 2508.15940264 294 2504.75 C294.49193848 2504.09217529 294.98387695 2503.43435059 295.49072266 2502.7565918 C299.77041311 2497.12678595 304.45236443 2491.94672111 309.3203125 2486.82421875 C312.06236475 2483.93427155 314.68708804 2480.96869387 317.29296875 2477.95703125 C319.33633431 2475.6144085 321.41680859 2473.30726578 323.5 2471 C325.00028239 2469.33358753 326.50029332 2467.66693061 328 2466 C328.98419922 2464.90945313 328.98419922 2464.90945313 329.98828125 2463.796875 C330.59027344 2463.12140625 331.19226563 2462.4459375 331.8125 2461.75 C332.33457031 2461.16734375 332.85664063 2460.5846875 333.39453125 2459.984375 C335.4522265 2457.44104365 337.21594755 2454.73993304 339 2452 C338.66790527 2451.41210693 338.33581055 2450.82421387 337.99365234 2450.21850586 C331.53978532 2438.7401142 325.31304147 2427.46998657 321 2415 C320.49533203 2413.68515625 320.49533203 2413.68515625 319.98046875 2412.34375 C316.23071008 2401.24857367 315.91102348 2386.06292534 320.75390625 2375.3046875 C321.16511719 2374.54414063 321.57632812 2373.78359375 322 2373 C322.40089844 2372.23945313 322.80179687 2371.47890625 323.21484375 2370.6953125 C335.14700743 2350.70461509 361.1548642 2341.05938701 381.875 2333.0078125 C384.16142921 2332.19089868 384.16142921 2332.19089868 385 2330 C385.09356686 2326.91807555 385.12571294 2323.85887051 385.11352539 2320.77685547 C385.11374443 2319.34264252 385.11374443 2319.34264252 385.1139679 2317.87945557 C385.1132694 2314.70867673 385.1054799 2311.53795612 385.09765625 2308.3671875 C385.09579185 2306.17286206 385.09436805 2303.97853621 385.09336853 2301.78421021 C385.0895451 2296.00065976 385.07971628 2290.2171343 385.06866455 2284.43359375 C385.0584467 2278.53515969 385.05387011 2272.6367216 385.04882812 2266.73828125 C385.03809388 2255.15884317 385.02101953 2243.57942366 385 2232 C380.9003053 2230.61156626 376.8194093 2229.44103752 372.625 2228.375 C349.82729469 2221.85793445 329.95641651 2206.4003323 317.6328125 2186.109375 C308.08978677 2167.93653175 305.47995668 2148.87660761 311 2129 C316.15944448 2112.95490939 327.22236141 2101.53967967 341.99169922 2093.80175781 C354.50439348 2087.59039805 367.84474087 2084.72463461 381.69604492 2083.47753906 C382.68867844 2083.38796936 383.68131195 2083.29839966 384.70402527 2083.20611572 C385.46169693 2083.13809753 386.21936859 2083.07007935 387 2083 C387.60234143 2075.23085854 388.05827566 2067.46267686 388.41601562 2059.6784668 C388.55440912 2057.03557139 388.72554321 2054.39417058 388.93066406 2051.75561523 C390.63802665 2037.6342748 390.63802665 2037.6342748 386.30038452 2024.75622559 C382.07616523 2021.10431909 377.36861997 2018.94140221 372.19763184 2016.9420929 C368.90712528 2015.53150046 366.37720123 2013.57853272 363.5625 2011.375 C362.63179688 2010.65183594 361.70109375 2009.92867187 360.7421875 2009.18359375 C359.83726562 2008.46300781 358.93234375 2007.74242187 358 2007 C356.54980469 2005.87271484 356.54980469 2005.87271484 355.0703125 2004.72265625 C349.41606733 2000.24063264 344.44636646 1995.68433392 340 1990 C339.33097656 1989.15566406 338.66195313 1988.31132813 337.97265625 1987.44140625 C328.01980436 1974.37481299 323.32832155 1960.65746189 324.140625 1944.140625 C326.10101566 1929.73601537 335.28712251 1915.91534427 346.6015625 1907.08984375 C358.4941286 1898.33710603 371.75940951 1891.96827674 385.875 1887.69140625 C387.96078043 1887.1904294 387.96078043 1887.1904294 389 1886 C389.08868299 1883.04294679 389.11520296 1880.10934944 389.09765625 1877.15234375 C389.0962413 1876.2659169 389.09482635 1875.37949005 389.09336853 1874.46620178 C389.08775215 1871.62326746 389.07519691 1868.78041069 389.0625 1865.9375 C389.05748711 1864.01497509 389.05292384 1862.09244896 389.04882812 1860.16992188 C389.03777741 1855.44658451 389.02050183 1850.72330542 389 1846 C387.50303589 1845.51623901 387.50303589 1845.51623901 385.97583008 1845.02270508 C372.55958516 1840.64770716 360.63217117 1835.63211546 350 1826 C349.15695312 1825.26136719 348.31390625 1824.52273438 347.4453125 1823.76171875 C335.865375 1813.00891964 327.39150095 1797.35947212 326.76171875 1781.375 C326.33755822 1760.85862288 331.74021747 1745.16087463 346 1730 C357.47718292 1719.22158012 370.97770079 1712.22915037 385.19165039 1705.83447266 C387.14971055 1704.93091526 389.07307426 1703.96791148 391 1703 C391.48497513 1696.36853377 391.81558238 1689.74165591 392.04370117 1683.09643555 C392.13880952 1680.84177013 392.2681742 1678.58826391 392.43334961 1676.33764648 C393.30278262 1665.49161286 393.30278262 1665.49161286 391 1655 C386.56990712 1649.93350835 380.49235646 1647.48569682 374.36279297 1645.03643799 C370.78007283 1643.46487954 367.70050749 1641.31372738 364.5625 1639 C363.97579529 1638.57047531 363.38909058 1638.14095062 362.78460693 1637.69841003 C345.6500725 1625.01214233 330.95158268 1608.676194 326.625 1587.1875 C324.37043614 1570.60344849 328.46099404 1555.60452326 338 1542 C352.84679884 1523.44436762 372.54205946 1512.36552252 393 1501 C393 1488.46 393 1475.92 393 1463 C387.72 1461.02 382.44 1459.04 377 1457 C373.66920402 1455.45496263 370.46621608 1453.92535759 367.25 1452.1875 C366.05624756 1451.54965576 366.05624756 1451.54965576 364.83837891 1450.89892578 C358.04235261 1447.18336062 351.96182987 1442.96213279 346 1438 C345.21625 1437.37867188 344.4325 1436.75734375 343.625 1436.1171875 C327.42534484 1422.67372367 316.39388836 1402.44137158 314.125 1381.5625 C313.31152475 1364.82524668 317.66437108 1350.14168202 328 1337 C328.42539062 1336.39929687 328.85078125 1335.79859375 329.2890625 1335.1796875 C341.6189355 1318.91635809 364.53369969 1310.2269063 384.01171875 1307.390625 C386.40684113 1307.06569576 388.80519375 1306.76305065 391.20703125 1306.4921875 C394.19852315 1306.1578984 394.19852315 1306.1578984 397 1304 C397.77451014 1302.07605147 397.77451014 1302.07605147 398.17578125 1299.80859375 C398.36027832 1298.95539551 398.54477539 1298.10219727 398.73486328 1297.22314453 C399.02079346 1295.84425049 399.02079346 1295.84425049 399.3125 1294.4375 C406.97806291 1260.37282442 424.19132975 1228.70982255 447.9921875 1203.16015625 C449.87487994 1201.13461361 451.65737061 1199.05295609 453.4375 1196.9375 C497.89811971 1146.31302165 575.55742717 1125.60402552 640 1121 C641.15121338 1120.91540527 641.15121338 1120.91540527 642.32568359 1120.82910156 C711.26694764 1115.97145152 785.72983485 1127.14498391 847 1160 C848.21864845 1160.61865814 849.43872365 1161.23451326 850.66015625 1161.84765625 C864.7230565 1168.99197965 877.97318478 1177.79366889 890 1188 C891.06833966 1188.88492499 892.13739982 1189.76898059 893.20703125 1190.65234375 C903.23425852 1198.97550369 911.95232093 1207.70524171 920 1218 C920.42152344 1218.52916016 920.84304688 1219.05832031 921.27734375 1219.60351562 C957.23577519 1265.00503662 964.06303914 1324.12469749 967.4050293 1380.07958984 C967.47117432 1381.18641113 967.53731934 1382.29323242 967.60546875 1383.43359375 C967.65856201 1384.39322021 967.71165527 1385.35284668 967.76635742 1386.34155273 C967.99608442 1388.95544754 968.43448798 1391.43965667 969 1394 C970.11375 1394.27972656 971.2275 1394.55945312 972.375 1394.84765625 C983.09373929 1397.62816558 993.04020171 1401.16509232 1003 1406 C1003.98484375 1406.47179688 1004.9696875 1406.94359375 1005.984375 1407.4296875 C1025.0550384 1417.1854893 1041.11208437 1433.4172874 1048 1454 C1052.3486256 1471.35929086 1052.4085966 1488.69486877 1044 1505 C1041.86902514 1508.50632343 1039.51688529 1511.76178057 1037 1515 C1036.42636719 1515.763125 1035.85273437 1516.52625 1035.26171875 1517.3125 C1022.29685155 1533.30342828 1000.38712439 1540.98142925 980.51171875 1543.4296875 C978.64543231 1543.58944743 976.77676518 1543.72562232 974.90625 1543.82421875 C972.99090035 1543.79603618 972.99090035 1543.79603618 972 1545 C971.87649342 1546.90160112 971.82206557 1548.8077239 971.79467773 1550.71313477 C971.77473251 1551.9343251 971.75478729 1553.15551544 971.73423767 1554.41371155 C971.71725209 1555.75627513 971.70037333 1557.09884007 971.68359375 1558.44140625 C971.66303053 1559.80761861 971.64203423 1561.17382451 971.62062073 1562.5400238 C971.56533465 1566.14194524 971.51595437 1569.74392471 971.46777344 1573.34594727 C971.41760597 1577.01909572 971.36189515 1580.69215955 971.30664062 1584.36523438 C971.19897918 1591.57675132 971.09755213 1598.78833847 971 1606 C971.90750504 1606.30179924 971.90750504 1606.30179924 972.83334351 1606.60969543 C974.03418076 1607.00942818 974.03418076 1607.00942818 975.25927734 1607.41723633 C976.0499057 1607.68031082 976.84053406 1607.94338531 977.65512085 1608.21443176 C993.48829728 1613.51877356 1008.43496122 1619.66245169 1021 1631 C1021.69480469 1631.61359375 1022.38960937 1632.2271875 1023.10546875 1632.859375 C1035.61009012 1644.56582905 1042.97975294 1660.37577766 1044.25390625 1677.390625 C1044.85230456 1695.8444568 1038.98419087 1712.2361636 1026.74609375 1726.18359375 C1011.4669011 1741.85400328 991.07531421 1748.48744763 970 1752 C970 1764.87 970 1777.74 970 1791 C973.3 1792.32 976.6 1793.64 980 1795 C1005.34125765 1805.74126326 1031.44130229 1817.81364054 1043.12890625 1844.5859375 C1047.33894879 1856.50422216 1047.19173359 1870.66318588 1042.27734375 1882.36328125 C1030.29361385 1907.10033839 1009.17160809 1922.19866588 984 1932 C978.72 1933.65 973.44 1935.3 968 1937 C968 1948.55 968 1960.1 968 1972 C973.86293554 1974.20063627 973.86293554 1974.20063627 979.75390625 1976.32421875 C993.62735766 1981.24472728 1005.80624278 1987.31231193 1017 1997 C1017.8146875 1997.61617187 1018.629375 1998.23234375 1019.46875 1998.8671875 C1032.90370719 2010.18738291 1040.5726009 2027.96562035 1043 2045 C1044.31071442 2066.77802414 1037.57056827 2086.4248044 1023.4296875 2103.015625 C1009.14595933 2117.92400601 991.30296168 2126.56567944 972 2133 C972 2141.58 972 2150.16 972 2159 C975.279375 2160.588125 978.55875 2162.17625 981.9375 2163.8125 C1009.32693567 2177.35348187 1035.33564629 2195.45197052 1046.125 2225.16015625 C1051.52928312 2242.69995012 1047.88103929 2260.61292141 1039.875 2276.625 C1026.73702513 2299.68816987 1006.02925126 2315.30090252 983.10473633 2327.83081055 C980.05361323 2329.52572164 977.02849652 2331.26499237 974 2333 C976.85605718 2347.13251728 979.72915281 2361.26147903 982.62345886 2375.38621521 C983.93407671 2381.78305352 985.24058616 2388.18065712 986.53613281 2394.58056641 C987.75534267 2400.60078603 988.98869999 2406.61794542 990.23226929 2412.63317871 C990.70117447 2414.91332122 991.16509103 2417.19449549 991.62393188 2419.47668457 C992.26601484 2422.66572874 992.9257513 2425.85063367 993.58984375 2429.03515625 C993.77491486 2429.97547195 993.95998596 2430.91578766 994.15066528 2431.88459778 C995.61520248 2438.76567205 998.2286959 2442.70332676 1003.625 2447.25 C1006.7913236 2449.95726553 1009.91048086 2452.70517345 1013 2455.5 C1015.95869751 2458.17048344 1018.92926472 2460.82298058 1021.9375 2463.4375 C1026.13164365 2467.08937053 1030.23094292 2470.84266184 1034.33984375 2474.58984375 C1037.18755795 2477.16993136 1040.07244018 2479.70201856 1042.97265625 2482.22265625 C1045.33489173 2484.29359487 1047.66795853 2486.39512848 1050 2488.5 C1053.62023723 2491.76704335 1057.26983565 2494.99520776 1060.94921875 2498.1953125 C1063.26088797 2500.22958141 1065.5353143 2502.3022231 1067.8125 2504.375 C1072.12774576 2508.26924618 1076.57091755 2511.96654724 1081.08984375 2515.62109375 C1083.66839734 2517.72893152 1086.20829785 2519.87172201 1088.73754883 2522.0378418 C1100.28467078 2531.90807441 1112.29056358 2540.578668 1124.97216797 2548.92449951 C1134.68280692 2555.32629612 1143.98736811 2562.10681553 1153.0324707 2569.42333984 C1155.18543397 2571.14859568 1157.36601984 2572.83475695 1159.55078125 2574.51953125 C1163.48646068 2577.57242177 1167.29949749 2580.73775881 1171.0625 2584 C1171.97008057 2584.78298462 1171.97008057 2584.78298462 1172.89599609 2585.58178711 C1174.59914741 2587.05244112 1176.29970051 2588.52605121 1178 2590 C1178.74378906 2590.64066406 1179.48757813 2591.28132813 1180.25390625 2591.94140625 C1185.70920043 2596.66780935 1191.01553264 2601.5573926 1196.31884766 2606.45263672 C1198.08639371 2608.07951834 1199.86128422 2609.69813979 1201.63671875 2611.31640625 C1207.04729953 2616.26713788 1212.34370531 2621.14033329 1217.0390625 2626.7890625 C1219.83858564 2629.94549695 1222.86595361 2632.85708799 1225.875 2635.8125 C1230.84729658 2640.71716398 1235.40165275 2645.74626015 1239.734375 2651.234375 C1242.32138119 2654.39230669 1245.07457051 2657.34501332 1247.875 2660.3125 C1253.57299021 2666.37979601 1258.67637105 2672.80650491 1263.74902344 2679.39794922 C1265.55085237 2681.70544365 1267.4325998 2683.94341249 1269.3125 2686.1875 C1275.25593918 2693.41285744 1280.71802772 2700.99841433 1286.22119141 2708.56103516 C1287.89285761 2710.85309463 1289.57564002 2713.13650149 1291.26171875 2715.41796875 C1308.86632154 2739.3520127 1324.52658205 2764.77667031 1338.80419922 2790.82324219 C1339.66855693 2792.39666263 1340.53802031 2793.96728193 1341.41064453 2795.53613281 C1379.16464399 2863.43311811 1405.73219308 2937.35134995 1436 3065 C1436.33 3065 1436.66 3065 1437 3065 C1437 2054.87 1437 1044.74 1437 4 C964.11 4 491.22 4 4 4 Z M312.45552063 2542.37481689 C308.86350632 2544.75218685 305.10062119 2546.79764816 301.33454895 2548.88395691 C284.39533256 2558.4255642 268.65362857 2569.97539205 253.80566406 2582.48681641 C252.13228318 2583.88914398 250.44126536 2585.26574226 248.7421875 2586.63671875 C240.54272871 2593.34863766 233.05012109 2600.76619509 225.5625 2608.25 C225.04171875 2608.76978424 224.5209375 2609.28956848 223.984375 2609.82510376 C218.10731758 2615.70343658 212.37699046 2621.65484842 207 2628 C206.11138035 2629.02144557 205.22209761 2630.04231481 204.33203125 2631.0625 C197.15706972 2639.42772647 190.51443264 2648.11391624 184 2657 C183.46584473 2657.72380859 182.93168945 2658.44761719 182.38134766 2659.19335938 C135.50064266 2722.77836312 103.91687333 2795.47972423 78.4375 2869.8125 C78.14149902 2870.67431885 77.84549805 2871.5361377 77.54052734 2872.42407227 C74.07147635 2882.54877035 70.83161835 2892.67637514 68 2903 C67.40736645 2905.1031795 66.81363599 2907.20605025 66.21875 2909.30859375 C65.64545167 2911.35145543 65.07253202 2913.39442342 64.5 2915.4375 C64.07654297 2916.94280273 64.07654297 2916.94280273 63.64453125 2918.47851562 C61.72018474 2925.34434018 59.86449644 2932.22656585 58.03564453 2939.1184082 C57.17783554 2942.34404812 56.30276213 2945.56478969 55.42192078 2948.78422546 C50.19128324 2967.91978402 45.68249202 2987.10460992 41.71826172 3006.54003906 C40.94234279 3010.27774234 40.10894393 3013.9985016 39.2487793 3017.7175293 C31.3567489 3051.85452028 30.83112886 3086.90048004 30.8671875 3121.78515625 C30.86651077 3124.15107737 30.86553771 3126.51699842 30.86428833 3128.88291931 C30.86283126 3133.78775713 30.86490246 3138.69257648 30.86962891 3143.59741211 C30.87535363 3149.83674859 30.87201716 3156.07604228 30.86605644 3162.31537724 C30.8624208 3167.1808046 30.86360266 3172.04622202 30.86618423 3176.9116497 C30.86684374 3179.21140994 30.86605992 3181.51117113 30.86370468 3183.81093025 C30.79559964 3207.76298353 30.79559964 3207.76298353 33.26953125 3231.55859375 C33.39180588 3232.35749527 33.51408051 3233.15639679 33.64006042 3233.97950745 C33.89594788 3235.63903178 34.155629 3237.2979758 34.41918945 3238.95629883 C34.81146138 3241.43094784 35.18881966 3243.90754245 35.56445312 3246.38476562 C37.91644287 3261.6343985 40.97635677 3276.64602627 45.625 3291.375 C45.96345947 3292.4573291 46.30191895 3293.5396582 46.65063477 3294.65478516 C52.96333659 3314.57626199 59.8941901 3334.17266995 69 3353 C69.33741211 3353.6997998 69.67482422 3354.39959961 70.02246094 3355.12060547 C71.96494606 3359.12401993 73.96087311 3363.09698958 75.99951172 3367.05224609 C77.00224982 3369.00437995 77.98751707 3370.96471887 78.97265625 3372.92578125 C94.08239697 3402.61679923 113.87209736 3430.09288213 136.6015625 3454.41796875 C138.54483106 3456.50998913 140.4096941 3458.63122372 142.25 3460.8125 C145.80015379 3464.90420267 149.61648002 3468.72605006 153.4375 3472.5625 C154.05850586 3473.18809814 154.67951172 3473.81369629 155.31933594 3474.45825195 C159.71551027 3478.84003336 164.27827349 3482.97245881 169 3487 C169.63832764 3487.54503174 170.27665527 3488.09006348 170.93432617 3488.65161133 C187.34046605 3502.55030782 204.59717773 3514.88281205 223 3526 C223.64549805 3526.39106934 224.29099609 3526.78213867 224.95605469 3527.18505859 C291.17430899 3566.87053641 370.20614898 3582.45932585 445.66015625 3564.01171875 C470.58197347 3557.44567839 494.79569944 3548.15357072 518 3537 C519.01658691 3536.51708496 520.03317383 3536.03416992 521.08056641 3535.53662109 C546.80577071 3523.25821681 571.20456479 3508.47326872 594.75 3492.4375 C595.45745361 3491.95595459 596.16490723 3491.47440918 596.89379883 3490.97827148 C598.34499355 3489.97926897 599.77192592 3488.94419762 601.17381287 3487.87710571 C603.45425472 3486.36247479 605.23834409 3485.46566796 607.72979736 3484.47373962 C612.57737456 3482.23813732 616.25973877 3479.66999896 619 3475 C621.62508882 3464.68878215 620.49149491 3453.42877362 620.09007645 3442.89347601 C619.93620558 3438.39116874 619.87224321 3433.88756786 619.80053711 3429.3833313 C619.68372322 3422.51651114 619.53927596 3415.65118431 619.36353588 3408.78561819 C619.00353638 3394.65791608 618.8474194 3380.53310901 618.75390625 3366.40136719 C618.7382361 3364.11312986 618.72255509 3361.82489261 618.7068634 3359.53665543 C618.68325293 3356.065624 618.65982156 3352.59459184 618.63695621 3349.12355542 C618.55038479 3336.2266084 618.42079618 3323.33014544 618.2890625 3310.43359375 C618.26516765 3308.07226461 618.24129785 3305.71093521 618.217453 3303.34960556 C618.18147611 3299.79066891 618.14544618 3296.23173283 618.10925007 3292.6727984 C617.9849961 3280.44884756 617.86563618 3268.22484999 617.74648476 3256.00084853 C617.50269856 3231.0005144 617.25321131 3206.0002403 617 3181 C626.57 3181 636.14 3181 646 3181 C645.99238647 3185.22719849 645.99238647 3185.22719849 645.98461914 3189.53979492 C645.94963321 3214.53320038 646.07843779 3239.51952236 646.37039185 3264.51107788 C646.49241246 3274.98906423 646.60289769 3285.46717374 646.7109375 3295.9453125 C646.72266809 3297.08139387 646.73439869 3298.21747524 646.74648476 3299.38798332 C647.09671888 3333.65622639 647.31610297 3367.92558484 647.5457902 3402.19480467 C647.56254759 3404.69459901 647.57934097 3407.19439311 647.59614182 3409.69418716 C647.73341756 3430.1294409 647.86817612 3450.56471034 648 3471 C653.28928333 3473.1368911 658.57201679 3475.26107396 663.95385742 3477.15625 C665.01909134 3477.53265625 666.08432526 3477.9090625 667.18183899 3478.296875 C668.31163681 3478.69390625 669.44143463 3479.0909375 670.60546875 3479.5 C672.46419421 3480.15658697 674.32291788 3480.81317902 676.18157101 3481.4699707 C678.15448645 3482.16683758 680.12770967 3482.86282656 682.10101318 3483.55859375 C689.11766957 3486.03298644 696.131813 3488.51446952 703.14453125 3491 C704.21479805 3491.37931671 704.21479805 3491.37931671 705.3066864 3491.76629639 C718.25981257 3496.35979682 731.17274715 3501.05909345 744.0760498 3505.79074097 C765.08032708 3513.49004242 786.15979579 3520.94055079 807.31641388 3528.20880127 C809.40802819 3528.92737497 811.49939832 3529.64665613 813.59075928 3530.3659668 C826.32056707 3534.74155343 839.04656986 3539.11090454 851.91870117 3543.05297852 C855.95188699 3544.29255761 859.94482718 3545.63687464 863.9375 3547 C871.87107587 3549.67382274 879.86394677 3552.08103646 887.90869141 3554.39550781 C890.66542426 3555.1923407 893.41674466 3556.00698583 896.16821289 3556.82177734 C899.77652687 3557.88899534 903.38794553 3558.94552059 907 3560 C907.79889648 3560.23332031 908.59779297 3560.46664062 909.42089844 3560.70703125 C962.54083023 3576.17363654 1018.70823097 3590.28523721 1074.375 3590.1875 C1075.07042908 3590.18656342 1075.76585815 3590.18562683 1076.48236084 3590.18466187 C1096.92442132 3590.12543573 1116.21442262 3588.30335064 1136 3583 C1136.72767578 3582.80535156 1137.45535156 3582.61070313 1138.20507812 3582.41015625 C1168.97833895 3573.95115564 1198.12500907 3557.75740625 1223 3538 C1224.00546875 3537.20722656 1225.0109375 3536.41445312 1226.046875 3535.59765625 C1231.70629386 3531.04933798 1237.10467303 3526.25295684 1242.4453125 3521.3359375 C1244.61942099 3519.34799121 1246.82422776 3517.41466662 1249.0625 3515.5 C1255.92061727 3509.52725443 1262.26705472 3503.01741959 1268.171875 3496.10546875 C1270.3102087 3493.64272972 1272.53084599 3491.26512657 1274.75 3488.875 C1299.88037495 3461.24672633 1320.06066959 3428.84723307 1337.83398438 3396.14404297 C1338.59469629 3394.74526322 1339.35886326 3393.34835532 1340.12695312 3391.95361328 C1375.12633939 3328.35904943 1395.09167252 3257.02902331 1408 3186 C1408.22026855 3184.79843262 1408.44053711 3183.59686523 1408.66748047 3182.35888672 C1415.17235496 3146.31035442 1421.99787489 3105.33633342 1413.74511719 3069.27832031 C1413.02469681 3066.10865949 1412.33399036 3062.93402759 1411.65083313 3059.75619507 C1406.5945652 3036.23910478 1401.10073261 3012.99257006 1393.640625 2990.10546875 C1392.43311594 2986.38873387 1391.30444035 2982.66100169 1390.24267578 2978.90039062 C1380.76012072 2945.3736788 1367.35803667 2912.70516498 1353 2881 C1352.24348145 2879.32671631 1352.24348145 2879.32671631 1351.47167969 2877.61962891 C1339.16948063 2850.54377409 1325.82349891 2824.11425191 1310.54150391 2798.58642578 C1309.10766878 2796.18065301 1307.69510839 2793.76419179 1306.29296875 2791.33984375 C1288.58331026 2760.74387508 1268.13027935 2731.55227405 1246 2704 C1245.49114258 2703.36497559 1244.98228516 2702.72995117 1244.45800781 2702.07568359 C1234.71273552 2689.93408143 1224.73683067 2678.00108732 1214.25268555 2666.48803711 C1212.87679223 2664.96839597 1211.50938699 2663.44094297 1210.15722656 2661.90014648 C1203.57374661 2654.43245352 1196.56383126 2647.41178695 1189.51586914 2640.38549805 C1187.43454811 2638.30955574 1185.35865187 2636.22829578 1183.28320312 2634.14648438 C1181.93782062 2632.80176248 1180.59212806 2631.45735071 1179.24609375 2630.11328125 C1178.63753036 2629.50269363 1178.02896698 2628.89210602 1177.40196228 2628.26301575 C1173.63954884 2624.52066988 1169.75573617 2620.96840662 1165.73710632 2617.50242615 C1163.57323995 2615.63089452 1161.47651972 2613.69104004 1159.375 2611.75 C1154.33800255 2607.20516719 1149.05837606 2603.03898809 1143.69921875 2598.88671875 C1141.21736691 2596.96149488 1138.76460604 2595.00664119 1136.33203125 2593.01953125 C1127.53315366 2585.83843671 1118.46089306 2579.27922353 1109 2573 C1107.82945068 2572.21641113 1107.82945068 2572.21641113 1106.63525391 2571.41699219 C1095.05456462 2563.67813967 1083.283111 2556.56220999 1071 2550 C1069.47127238 2549.17463063 1067.94262689 2548.34910913 1066.4140625 2547.5234375 C1064.92240025 2546.72297875 1063.43023077 2545.92346436 1061.9375 2545.125 C1061.27145752 2544.76760742 1060.60541504 2544.41021484 1059.91918945 2544.04199219 C1057.95746975 2543.00391041 1055.98116047 2542.00045081 1054 2541 C1053.3369432 2540.65341087 1052.67388639 2540.30682175 1051.99073696 2539.94972992 C1046.24503286 2537.13882339 1041.48866208 2536.40560758 1035.13891602 2536.40820312 C1034.18450308 2536.39301132 1033.23009014 2536.37781952 1032.2467556 2536.36216736 C1029.06156626 2536.31645105 1025.87686625 2536.29875569 1022.69140625 2536.28125 C1020.38910617 2536.25450882 1018.08682401 2536.2261856 1015.78456116 2536.19641113 C1009.50616932 2536.12097625 1003.22782356 2536.07138045 996.94913483 2536.02838135 C992.32200673 2535.99512745 987.6949839 2535.95331712 983.06793344 2535.9107728 C965.97194235 2535.75410043 948.87579915 2535.64225053 931.7794019 2535.5411334 C917.67505854 2535.45731712 903.57078933 2535.36130639 889.46652079 2535.26584816 C887.12488639 2535.25002563 884.78325128 2535.23431249 882.44161606 2535.21861267 C857.66924129 2535.05203073 832.89804333 2534.82675156 808.12684631 2534.53125 C735.99171775 2533.67310205 663.85350362 2533.16512966 591.71484375 2532.71484375 C590.75760359 2532.70884981 589.80036344 2532.70285588 588.814116 2532.69668031 C566.23683023 2532.55552128 543.65956091 2532.42835152 521.08203125 2532.33325195 C519.13806718 2532.32496168 517.19410318 2532.3166568 515.25013924 2532.30833721 C513.8118315 2532.30218949 513.8118315 2532.30218949 512.34446704 2532.29591757 C510.41516075 2532.28766684 508.48585448 2532.27940943 506.55654824 2532.27114528 C501.77666165 2532.25069268 496.99677431 2532.23048682 492.21688461 2532.21077538 C469.25219661 2532.11487081 446.29173482 2531.92991795 423.32916975 2531.60395187 C414.27578541 2531.47741396 405.22198824 2531.39115065 396.16809082 2531.31067753 C389.88738999 2531.25224749 383.60871393 2531.17264134 377.3291626 2531.037323 C343.292062 2529.69005697 343.292062 2529.69005697 312.45552063 2542.37481689 Z M1436 3152 C1435.88519287 3152.97195312 1435.77038574 3153.94390625 1435.65209961 3154.9453125 C1425.64367957 3238.97705123 1406.46910407 3321.73745058 1312 3489 C1311.50145508 3489.6285791 1311.00291016 3490.2571582 1310.48925781 3490.90478516 C1304.12819125 3498.90735491 1297.62853788 3506.69999097 1290.6328125 3514.15625 C1288.59619408 3516.35603963 1286.62276315 3518.58007933 1284.6640625 3520.84765625 C1281.01303482 3525.03650117 1277.18051619 3529.01129306 1273.25 3532.9375 C1272.20283813 3533.98454102 1272.20283813 3533.98454102 1271.13452148 3535.05273438 C1266.43038666 3539.70547267 1261.61637898 3543.99526142 1256.41015625 3548.08203125 C1254.1696519 3549.86499338 1252.09203422 3551.7346618 1250 3553.6875 C1197.32394339 3600.83350797 1128.6479008 3621.96021435 1058.9140625 3618.43359375 C1024.94432217 3616.43226827 991.09844174 3610.8065046 958 3603 C957.25973572 3602.82680237 956.51947144 3602.65360474 955.7567749 3602.47515869 C873.4440145 3583.1966605 793.85293436 3554.44867529 714.43026352 3525.8351326 C702.04309191 3521.37257496 689.6493996 3516.92847167 677.25 3512.5 C676.44037811 3512.2105249 675.63075623 3511.9210498 674.79660034 3511.62280273 C671.04664555 3510.28212999 667.29545953 3508.94523921 663.54101562 3507.6171875 C660.2082492 3506.43670191 656.88723219 3505.22678753 653.56835938 3504.0078125 C651.74875635 3503.34879697 649.92909609 3502.68993945 648.109375 3502.03125 C647.25925842 3501.71401978 646.40914185 3501.39678955 645.53326416 3501.06994629 C644.73821472 3500.78453979 643.94316528 3500.4991333 643.12402344 3500.20507812 C642.42323669 3499.94795044 641.72244995 3499.69082275 641.00042725 3499.42590332 C637.86792701 3498.75897467 635.77117135 3499.55089242 633.05566406 3501.13232422 C632.38245117 3501.6017041 631.70923828 3502.07108398 631.015625 3502.5546875 C629.87287109 3503.3446814 629.87287109 3503.3446814 628.70703125 3504.15063477 C627.49080078 3505.00419556 627.49080078 3505.00419556 626.25 3505.875 C625.40308594 3506.46144287 624.55617188 3507.04788574 623.68359375 3507.65209961 C621.1184311 3509.4291093 618.55848921 3511.21339911 616 3513 C590.74303086 3530.62127488 564.49430252 3546.11600347 537 3560 C536.06430176 3560.47324707 535.12860352 3560.94649414 534.16455078 3561.43408203 C519.14611825 3568.97063294 503.79950166 3575.29127421 488 3581 C487.07445312 3581.33515625 486.14890625 3581.6703125 485.1953125 3582.015625 C404.59161263 3610.85331234 318.0664439 3604.57186469 240.82958984 3568.33935547 C239.8958252 3567.89736816 238.96206055 3567.45538086 238 3567 C236.66702881 3566.37375732 236.66702881 3566.37375732 235.30712891 3565.73486328 C210.52481946 3554.00224317 187.41776584 3539.09393242 166 3522 C165.38592285 3521.51595703 164.7718457 3521.03191406 164.13916016 3520.53320312 C149.92651683 3509.32143873 136.97888043 3497.0457661 124.125 3484.3125 C123.25721924 3483.45785156 122.38943848 3482.60320313 121.49536133 3481.72265625 C116.31226978 3476.54601565 111.55439334 3471.17868835 106.97412109 3465.4621582 C105.40814258 3463.50904254 103.82007096 3461.59801107 102.171875 3459.71484375 C94.49570756 3450.91201302 87.68256889 3441.57221133 81 3432 C80.35297119 3431.07695068 80.35297119 3431.07695068 79.69287109 3430.13525391 C39.93923736 3373.05844993 14.2861767 3306.91320606 5 3238 C4.67 3238 4.34 3238 4 3238 C4 3479.89 4 3721.78 4 3971 C476.89 3971 949.78 3971 1437 3971 C1437 3700.73 1437 3430.46 1437 3152 C1436.67 3152 1436.34 3152 1436 3152 Z " fill="#B7B7B8" transform="translate(0,0)"/>
<path d="M0 0 C475.53 0 951.06 0 1441 0 C1441 1311.75 1441 2623.5 1441 3975 C965.47 3975 489.94 3975 0 3975 C0 2663.25 0 1351.5 0 0 Z M4 4 C4 1009.18 4 2014.36 4 3050 C4.33 3050 4.66 3050 5 3050 C5.05833008 3049.43982178 5.11666016 3048.87964355 5.17675781 3048.30249023 C15.736487 2953.01306122 47.66709442 2852.7304378 91 2759 C91.83047852 2757.22375244 91.83047852 2757.22375244 92.67773438 2755.41162109 C114.42889496 2708.99093458 139.89658347 2663.3562841 173 2624 C174.50135433 2622.14692979 176.00133404 2620.2927451 177.5 2618.4375 C181.09948527 2614.03534205 184.82757778 2609.77864576 188.6640625 2605.58203125 C189.93095364 2604.18167165 191.19183908 2602.77529593 192.41796875 2601.33911133 C197.4079544 2595.50969586 202.75483033 2590.05902277 208.17773438 2584.63696289 C209.73860327 2583.07391266 211.29127888 2581.50302635 212.84375 2579.93164062 C218.53324499 2574.21106688 224.33653067 2568.88619794 230.66430664 2563.86816406 C232.74349251 2562.20516309 234.72514485 2560.48533593 236.6875 2558.6875 C240.42453868 2555.3967878 244.34095845 2552.3742235 248.3125 2549.375 C249.33234985 2548.6022876 249.33234985 2548.6022876 250.37280273 2547.81396484 C254.10689635 2545.02569331 257.88608073 2542.40183431 261.83984375 2539.93359375 C272.83090279 2533.00653834 279.72781947 2526.14266428 286.61279297 2515.15966797 C288.91686179 2511.57258723 291.44284495 2508.15940264 294 2504.75 C294.49193848 2504.09217529 294.98387695 2503.43435059 295.49072266 2502.7565918 C299.77041311 2497.12678595 304.45236443 2491.94672111 309.3203125 2486.82421875 C312.06236475 2483.93427155 314.68708804 2480.96869387 317.29296875 2477.95703125 C319.33633431 2475.6144085 321.41680859 2473.30726578 323.5 2471 C325.00028239 2469.33358753 326.50029332 2467.66693061 328 2466 C328.98419922 2464.90945313 328.98419922 2464.90945313 329.98828125 2463.796875 C330.59027344 2463.12140625 331.19226563 2462.4459375 331.8125 2461.75 C332.33457031 2461.16734375 332.85664063 2460.5846875 333.39453125 2459.984375 C335.4522265 2457.44104365 337.21594755 2454.73993304 339 2452 C338.66790527 2451.41210693 338.33581055 2450.82421387 337.99365234 2450.21850586 C331.53978532 2438.7401142 325.31304147 2427.46998657 321 2415 C320.49533203 2413.68515625 320.49533203 2413.68515625 319.98046875 2412.34375 C316.23071008 2401.24857367 315.91102348 2386.06292534 320.75390625 2375.3046875 C321.16511719 2374.54414063 321.57632812 2373.78359375 322 2373 C322.40089844 2372.23945313 322.80179687 2371.47890625 323.21484375 2370.6953125 C335.14700743 2350.70461509 361.1548642 2341.05938701 381.875 2333.0078125 C384.16142921 2332.19089868 384.16142921 2332.19089868 385 2330 C385.09356686 2326.91807555 385.12571294 2323.85887051 385.11352539 2320.77685547 C385.11374443 2319.34264252 385.11374443 2319.34264252 385.1139679 2317.87945557 C385.1132694 2314.70867673 385.1054799 2311.53795612 385.09765625 2308.3671875 C385.09579185 2306.17286206 385.09436805 2303.97853621 385.09336853 2301.78421021 C385.0895451 2296.00065976 385.07971628 2290.2171343 385.06866455 2284.43359375 C385.0584467 2278.53515969 385.05387011 2272.6367216 385.04882812 2266.73828125 C385.03809388 2255.15884317 385.02101953 2243.57942366 385 2232 C380.9003053 2230.61156626 376.8194093 2229.44103752 372.625 2228.375 C349.82729469 2221.85793445 329.95641651 2206.4003323 317.6328125 2186.109375 C308.08978677 2167.93653175 305.47995668 2148.87660761 311 2129 C316.15944448 2112.95490939 327.22236141 2101.53967967 341.99169922 2093.80175781 C354.50439348 2087.59039805 367.84474087 2084.72463461 381.69604492 2083.47753906 C382.68867844 2083.38796936 383.68131195 2083.29839966 384.70402527 2083.20611572 C385.46169693 2083.13809753 386.21936859 2083.07007935 387 2083 C387.60234143 2075.23085854 388.05827566 2067.46267686 388.41601562 2059.6784668 C388.55440912 2057.03557139 388.72554321 2054.39417058 388.93066406 2051.75561523 C390.63802665 2037.6342748 390.63802665 2037.6342748 386.30038452 2024.75622559 C382.07616523 2021.10431909 377.36861997 2018.94140221 372.19763184 2016.9420929 C368.90712528 2015.53150046 366.37720123 2013.57853272 363.5625 2011.375 C362.63179688 2010.65183594 361.70109375 2009.92867187 360.7421875 2009.18359375 C359.83726562 2008.46300781 358.93234375 2007.74242187 358 2007 C356.54980469 2005.87271484 356.54980469 2005.87271484 355.0703125 2004.72265625 C349.41606733 2000.24063264 344.44636646 1995.68433392 340 1990 C339.33097656 1989.15566406 338.66195313 1988.31132813 337.97265625 1987.44140625 C328.01980436 1974.37481299 323.32832155 1960.65746189 324.140625 1944.140625 C326.10101566 1929.73601537 335.28712251 1915.91534427 346.6015625 1907.08984375 C358.4941286 1898.33710603 371.75940951 1891.96827674 385.875 1887.69140625 C387.96078043 1887.1904294 387.96078043 1887.1904294 389 1886 C389.08868299 1883.04294679 389.11520296 1880.10934944 389.09765625 1877.15234375 C389.0962413 1876.2659169 389.09482635 1875.37949005 389.09336853 1874.46620178 C389.08775215 1871.62326746 389.07519691 1868.78041069 389.0625 1865.9375 C389.05748711 1864.01497509 389.05292384 1862.09244896 389.04882812 1860.16992188 C389.03777741 1855.44658451 389.02050183 1850.72330542 389 1846 C387.50303589 1845.51623901 387.50303589 1845.51623901 385.97583008 1845.02270508 C372.55958516 1840.64770716 360.63217117 1835.63211546 350 1826 C349.15695312 1825.26136719 348.31390625 1824.52273438 347.4453125 1823.76171875 C335.865375 1813.00891964 327.39150095 1797.35947212 326.76171875 1781.375 C326.33755822 1760.85862288 331.74021747 1745.16087463 346 1730 C357.47718292 1719.22158012 370.97770079 1712.22915037 385.19165039 1705.83447266 C387.14971055 1704.93091526 389.07307426 1703.96791148 391 1703 C391.48497513 1696.36853377 391.81558238 1689.74165591 392.04370117 1683.09643555 C392.13880952 1680.84177013 392.2681742 1678.58826391 392.43334961 1676.33764648 C393.30278262 1665.49161286 393.30278262 1665.49161286 391 1655 C386.56990712 1649.93350835 380.49235646 1647.48569682 374.36279297 1645.03643799 C370.78007283 1643.46487954 367.70050749 1641.31372738 364.5625 1639 C363.97579529 1638.57047531 363.38909058 1638.14095062 362.78460693 1637.69841003 C345.6500725 1625.01214233 330.95158268 1608.676194 326.625 1587.1875 C324.37043614 1570.60344849 328.46099404 1555.60452326 338 1542 C352.84679884 1523.44436762 372.54205946 1512.36552252 393 1501 C393 1488.46 393 1475.92 393 1463 C387.72 1461.02 382.44 1459.04 377 1457 C373.66920402 1455.45496263 370.46621608 1453.92535759 367.25 1452.1875 C366.05624756 1451.54965576 366.05624756 1451.54965576 364.83837891 1450.89892578 C358.04235261 1447.18336062 351.96182987 1442.96213279 346 1438 C345.21625 1437.37867188 344.4325 1436.75734375 343.625 1436.1171875 C327.42534484 1422.67372367 316.39388836 1402.44137158 314.125 1381.5625 C313.31152475 1364.82524668 317.66437108 1350.14168202 328 1337 C328.42539062 1336.39929687 328.85078125 1335.79859375 329.2890625 1335.1796875 C341.6189355 1318.91635809 364.53369969 1310.2269063 384.01171875 1307.390625 C386.40684113 1307.06569576 388.80519375 1306.76305065 391.20703125 1306.4921875 C394.19852315 1306.1578984 394.19852315 1306.1578984 397 1304 C397.77451014 1302.07605147 397.77451014 1302.07605147 398.17578125 1299.80859375 C398.36027832 1298.95539551 398.54477539 1298.10219727 398.73486328 1297.22314453 C399.02079346 1295.84425049 399.02079346 1295.84425049 399.3125 1294.4375 C406.97806291 1260.37282442 424.19132975 1228.70982255 447.9921875 1203.16015625 C449.87487994 1201.13461361 451.65737061 1199.05295609 453.4375 1196.9375 C497.89811971 1146.31302165 575.55742717 1125.60402552 640 1121 C641.15121338 1120.91540527 641.15121338 1120.91540527 642.32568359 1120.82910156 C711.26694764 1115.97145152 785.72983485 1127.14498391 847 1160 C848.21864845 1160.61865814 849.43872365 1161.23451326 850.66015625 1161.84765625 C864.7230565 1168.99197965 877.97318478 1177.79366889 890 1188 C891.06833966 1188.88492499 892.13739982 1189.76898059 893.20703125 1190.65234375 C903.23425852 1198.97550369 911.95232093 1207.70524171 920 1218 C920.42152344 1218.52916016 920.84304688 1219.05832031 921.27734375 1219.60351562 C957.23577519 1265.00503662 964.06303914 1324.12469749 967.4050293 1380.07958984 C967.47117432 1381.18641113 967.53731934 1382.29323242 967.60546875 1383.43359375 C967.65856201 1384.39322021 967.71165527 1385.35284668 967.76635742 1386.34155273 C967.99608442 1388.95544754 968.43448798 1391.43965667 969 1394 C970.11375 1394.27972656 971.2275 1394.55945312 972.375 1394.84765625 C983.09373929 1397.62816558 993.04020171 1401.16509232 1003 1406 C1003.98484375 1406.47179688 1004.9696875 1406.94359375 1005.984375 1407.4296875 C1025.0550384 1417.1854893 1041.11208437 1433.4172874 1048 1454 C1052.3486256 1471.35929086 1052.4085966 1488.69486877 1044 1505 C1041.86902514 1508.50632343 1039.51688529 1511.76178057 1037 1515 C1036.42636719 1515.763125 1035.85273437 1516.52625 1035.26171875 1517.3125 C1022.29685155 1533.30342828 1000.38712439 1540.98142925 980.51171875 1543.4296875 C978.64543231 1543.58944743 976.77676518 1543.72562232 974.90625 1543.82421875 C972.99090035 1543.79603618 972.99090035 1543.79603618 972 1545 C971.87649342 1546.90160112 971.82206557 1548.8077239 971.79467773 1550.71313477 C971.77473251 1551.9343251 971.75478729 1553.15551544 971.73423767 1554.41371155 C971.71725209 1555.75627513 971.70037333 1557.09884007 971.68359375 1558.44140625 C971.66303053 1559.80761861 971.64203423 1561.17382451 971.62062073 1562.5400238 C971.56533465 1566.14194524 971.51595437 1569.74392471 971.46777344 1573.34594727 C971.41760597 1577.01909572 971.36189515 1580.69215955 971.30664062 1584.36523438 C971.19897918 1591.57675132 971.09755213 1598.78833847 971 1606 C971.90750504 1606.30179924 971.90750504 1606.30179924 972.83334351 1606.60969543 C974.03418076 1607.00942818 974.03418076 1607.00942818 975.25927734 1607.41723633 C976.0499057 1607.68031082 976.84053406 1607.94338531 977.65512085 1608.21443176 C993.48829728 1613.51877356 1008.43496122 1619.66245169 1021 1631 C1021.69480469 1631.61359375 1022.38960937 1632.2271875 1023.10546875 1632.859375 C1035.61009012 1644.56582905 1042.97975294 1660.37577766 1044.25390625 1677.390625 C1044.85230456 1695.8444568 1038.98419087 1712.2361636 1026.74609375 1726.18359375 C1011.4669011 1741.85400328 991.07531421 1748.48744763 970 1752 C970 1764.87 970 1777.74 970 1791 C973.3 1792.32 976.6 1793.64 980 1795 C1005.34125765 1805.74126326 1031.44130229 1817.81364054 1043.12890625 1844.5859375 C1047.33894879 1856.50422216 1047.19173359 1870.66318588 1042.27734375 1882.36328125 C1030.29361385 1907.10033839 1009.17160809 1922.19866588 984 1932 C978.72 1933.65 973.44 1935.3 968 1937 C968 1948.55 968 1960.1 968 1972 C973.86293554 1974.20063627 973.86293554 1974.20063627 979.75390625 1976.32421875 C993.62735766 1981.24472728 1005.80624278 1987.31231193 1017 1997 C1017.8146875 1997.61617187 1018.629375 1998.23234375 1019.46875 1998.8671875 C1032.90370719 2010.18738291 1040.5726009 2027.96562035 1043 2045 C1044.31071442 2066.77802414 1037.57056827 2086.4248044 1023.4296875 2103.015625 C1009.14595933 2117.92400601 991.30296168 2126.56567944 972 2133 C972 2141.58 972 2150.16 972 2159 C975.279375 2160.588125 978.55875 2162.17625 981.9375 2163.8125 C1009.32693567 2177.35348187 1035.33564629 2195.45197052 1046.125 2225.16015625 C1051.52928312 2242.69995012 1047.88103929 2260.61292141 1039.875 2276.625 C1026.73702513 2299.68816987 1006.02925126 2315.30090252 983.10473633 2327.83081055 C980.05361323 2329.52572164 977.02849652 2331.26499237 974 2333 C976.85605718 2347.13251728 979.72915281 2361.26147903 982.62345886 2375.38621521 C983.93407671 2381.78305352 985.24058616 2388.18065712 986.53613281 2394.58056641 C987.75534267 2400.60078603 988.98869999 2406.61794542 990.23226929 2412.63317871 C990.70117447 2414.91332122 991.16509103 2417.19449549 991.62393188 2419.47668457 C992.26601484 2422.66572874 992.9257513 2425.85063367 993.58984375 2429.03515625 C993.77491486 2429.97547195 993.95998596 2430.91578766 994.15066528 2431.88459778 C995.61520248 2438.76567205 998.2286959 2442.70332676 1003.625 2447.25 C1006.7913236 2449.95726553 1009.91048086 2452.70517345 1013 2455.5 C1015.95869751 2458.17048344 1018.92926472 2460.82298058 1021.9375 2463.4375 C1026.13164365 2467.08937053 1030.23094292 2470.84266184 1034.33984375 2474.58984375 C1037.18755795 2477.16993136 1040.07244018 2479.70201856 1042.97265625 2482.22265625 C1045.33489173 2484.29359487 1047.66795853 2486.39512848 1050 2488.5 C1053.62023723 2491.76704335 1057.26983565 2494.99520776 1060.94921875 2498.1953125 C1063.26088797 2500.22958141 1065.5353143 2502.3022231 1067.8125 2504.375 C1072.12774576 2508.26924618 1076.57091755 2511.96654724 1081.08984375 2515.62109375 C1083.66839734 2517.72893152 1086.20829785 2519.87172201 1088.73754883 2522.0378418 C1100.28467078 2531.90807441 1112.29056358 2540.578668 1124.97216797 2548.92449951 C1134.68280692 2555.32629612 1143.98736811 2562.10681553 1153.0324707 2569.42333984 C1155.18543397 2571.14859568 1157.36601984 2572.83475695 1159.55078125 2574.51953125 C1163.48646068 2577.57242177 1167.29949749 2580.73775881 1171.0625 2584 C1171.97008057 2584.78298462 1171.97008057 2584.78298462 1172.89599609 2585.58178711 C1174.59914741 2587.05244112 1176.29970051 2588.52605121 1178 2590 C1178.74378906 2590.64066406 1179.48757813 2591.28132813 1180.25390625 2591.94140625 C1185.70920043 2596.66780935 1191.01553264 2601.5573926 1196.31884766 2606.45263672 C1198.08639371 2608.07951834 1199.86128422 2609.69813979 1201.63671875 2611.31640625 C1207.04729953 2616.26713788 1212.34370531 2621.14033329 1217.0390625 2626.7890625 C1219.83858564 2629.94549695 1222.86595361 2632.85708799 1225.875 2635.8125 C1230.84729658 2640.71716398 1235.40165275 2645.74626015 1239.734375 2651.234375 C1242.32138119 2654.39230669 1245.07457051 2657.34501332 1247.875 2660.3125 C1253.57299021 2666.37979601 1258.67637105 2672.80650491 1263.74902344 2679.39794922 C1265.55085237 2681.70544365 1267.4325998 2683.94341249 1269.3125 2686.1875 C1275.25593918 2693.41285744 1280.71802772 2700.99841433 1286.22119141 2708.56103516 C1287.89285761 2710.85309463 1289.57564002 2713.13650149 1291.26171875 2715.41796875 C1308.86632154 2739.3520127 1324.52658205 2764.77667031 1338.80419922 2790.82324219 C1339.66855693 2792.39666263 1340.53802031 2793.96728193 1341.41064453 2795.53613281 C1379.16464399 2863.43311811 1405.73219308 2937.35134995 1436 3065 C1436.33 3065 1436.66 3065 1437 3065 C1437 2054.87 1437 1044.74 1437 4 C964.11 4 491.22 4 4 4 Z M631.5625 1150.75 C630.68288605 1150.82850189 629.80327209 1150.90700378 628.89700317 1150.98788452 C617.08943443 1152.06067317 605.64966817 1153.87442635 594.09373474 1156.52593994 C591.97210543 1157.00631584 589.84617272 1157.45888541 587.71679688 1157.90356445 C554.02021726 1165.01074503 519.93517733 1179.29457243 493 1201 C492.12730469 1201.6703125 491.25460937 1202.340625 490.35546875 1203.03125 C470.46855992 1218.63796029 455.36687251 1238.0915525 443 1260 C442.43756592 1260.99483398 442.43756592 1260.99483398 441.86376953 1262.00976562 C435.69131539 1273.13080115 431.62191018 1284.83488362 428 1297 C427.6596875 1298.13953125 427.319375 1299.2790625 426.96875 1300.453125 C424.27956028 1310.72582971 423.79158158 1321.44510523 423 1332 C421.9169458 1332.10022461 420.8338916 1332.20044922 419.71801758 1332.30371094 C415.63687048 1332.68508113 411.55766191 1333.08463914 407.47875977 1333.48925781 C405.72499455 1333.6607642 403.97076167 1333.82756498 402.21606445 1333.98925781 C382.38980689 1335.82303099 365.1987122 1339.93096394 351 1355 C344.79200314 1362.78891532 341.90934595 1369.99083313 343 1380 C346.86117694 1398.42729352 357.87392498 1411.81379008 373.0625 1422.25 C386.88626624 1431.26860865 406.22905348 1440 423 1440 C423 1467.06 423 1494.12 423 1522 C420.69 1522.33 418.38 1522.66 416 1523 C413.30617325 1523.93676226 413.30617325 1523.93676226 410.77734375 1525.1875 C409.83334717 1525.63440186 408.88935059 1526.08130371 407.91674805 1526.54174805 C406.93359619 1527.02297119 405.95044434 1527.50419434 404.9375 1528 C403.91760986 1528.4947583 402.89771973 1528.9895166 401.84692383 1529.49926758 C382.89934801 1538.84769913 362.49008373 1551.14257706 355 1572 C353.25019018 1581.085551 356.95978122 1588.97707934 361.6875 1596.5625 C373.57837162 1613.39311182 393.07957156 1623.42960281 411.3125 1632.0625 C411.94075684 1632.36172363 412.56901367 1632.66094727 413.21630859 1632.96923828 C416.01078886 1634.25597747 417.88291409 1635 421 1635 C421 1664.7 421 1694.4 421 1725 C419.02 1725.33 417.04 1725.66 415 1726 C395.34215765 1731.0794683 372.12948212 1740.83161734 360.46875 1758.29296875 C355.36423881 1767.15166985 353.51433525 1774.91786453 356.0625 1784.9375 C360.24148086 1797.43574831 370.19759231 1806.68691902 381.5625 1812.8125 C386.78968064 1815.25563878 391.96467763 1817.04898633 397.5625 1818.4375 C398.20968994 1818.60161377 398.85687988 1818.76572754 399.52368164 1818.93481445 C406.25103364 1820.41697177 411.729626 1820 419 1820 C418.67 1849.37 418.34 1878.74 418 1909 C410.41 1910.98 402.82 1912.96 395 1915 C379.48161835 1920.64304787 364.84729897 1927.10294604 355 1941 C352.67750698 1947.32612116 352.54024471 1953.21701045 354.8359375 1959.53515625 C366.19455577 1983.58645869 393.79867445 1997.04544009 416 2009 C416 2042.99 416 2076.98 416 2112 C404.78 2112 393.56 2112 382 2112 C367.69387707 2114.13769653 352.78953287 2117.36133314 343 2129 C337.22909221 2137.30961186 335.59975456 2145.01657066 337 2155 C340.53598516 2170.85542203 349.72902455 2183.6670501 363.25 2192.6875 C376.0342176 2200.45377921 387.70187031 2203.33640185 402.5 2203.125 C403.70398438 2203.11597656 404.90796875 2203.10695313 406.1484375 2203.09765625 C409.0991679 2203.07423775 412.04947689 2203.04143993 415 2203 C414.98120789 2204.53235039 414.98120789 2204.53235039 414.96203613 2206.09565735 C414.8023253 2219.16787251 414.64892776 2232.24015762 414.5 2245.3125 C414.48218412 2246.87580299 414.48218412 2246.87580299 414.46400833 2248.47068787 C414.0652635 2283.64923087 413.8588773 2318.8191967 414 2354 C412.96713867 2354.12439453 411.93427734 2354.24878906 410.87011719 2354.37695312 C407.36423987 2354.94136133 404.40068545 2355.75234753 401.078125 2356.96875 C399.42949463 2357.571427 399.42949463 2357.571427 397.74755859 2358.1862793 C396.59336426 2358.61980713 395.43916992 2359.05333496 394.25 2359.5 C393.05584473 2359.94706299 391.86168945 2360.39412598 390.63134766 2360.85473633 C366.56040127 2369.34504921 366.56040127 2369.34504921 348 2386 C347.38125 2386.8971875 347.38125 2386.8971875 346.75 2387.8125 C343.26169622 2397.98671937 349.26474517 2409.20063803 353.625 2418.1875 C354.28205933 2419.55334229 354.28205933 2419.55334229 354.95239258 2420.94677734 C359.42173518 2430.0946487 364.49854441 2438.7573487 370.15234375 2447.22265625 C370.80332031 2448.20105469 371.45429688 2449.17945312 372.125 2450.1875 C372.70507812 2451.02667969 373.28515625 2451.86585937 373.8828125 2452.73046875 C375 2455 375 2455 374.73062134 2456.96075439 C373.48287074 2460.44336542 370.62996248 2462.7107684 368.0234375 2465.234375 C367.11822861 2466.12965912 367.11822861 2466.12965912 366.19473267 2467.04302979 C364.26178974 2468.95258217 362.31901799 2470.85172927 360.375 2472.75 C357.83737241 2475.24097767 355.30388571 2477.73610514 352.7734375 2480.234375 C352.16643005 2480.83342651 351.55942261 2481.43247803 350.934021 2482.04968262 C346.74968135 2486.20092449 342.75318052 2490.45164386 339 2495 C337.35 2496.98 335.7 2498.96 334 2501 C560.38 2500.67 786.76 2500.34 1020 2500 C1016.98378701 2496.22973376 1014.84386852 2493.87566925 1011.1875 2491 C1006.57677056 2487.30404911 1002.07811378 2483.50926662 997.625 2479.625 C991.79210346 2474.54377687 985.91612132 2469.51918033 980 2464.53515625 C979.01 2463.69855469 978.02 2462.86195312 977 2462 C976.4030835 2461.63712891 975.80616699 2461.27425781 975.19116211 2460.90039062 C970.45244813 2457.72583345 969.30327605 2454.53973505 968.06640625 2449.0234375 C967.66170156 2446.90102958 967.2889244 2444.77672267 966.93713379 2442.64489746 C966.42380795 2439.53466806 965.84918667 2436.4366829 965.27786255 2433.33666992 C964.97858984 2431.71044878 964.68246822 2430.08364483 964.38937378 2428.45629883 C962.76492148 2419.49693757 960.76904952 2410.62723469 958.75 2401.75 C958.09706658 2398.87021624 957.44584156 2395.99005534 956.796875 2393.109375 C956.64310898 2392.42718903 956.48934296 2391.74500305 956.33091736 2391.04214478 C955.0246227 2385.20218265 953.84932859 2379.34118769 952.69238281 2373.46972656 C951.69371678 2368.46512796 950.60068326 2363.48296544 949.5 2358.5 C947.86270331 2351.03256671 946.29727135 2343.56009281 944.82421875 2336.05859375 C943.01497527 2327.01237636 940.97868204 2318.01034263 939 2309 C940.08796875 2308.97421875 941.1759375 2308.9484375 942.296875 2308.921875 C962.62540751 2308.23450401 977.77849682 2300.20726742 993 2287 C993.84175781 2286.29101562 994.68351563 2285.58203125 995.55078125 2284.8515625 C1006.21125252 2275.63082104 1017.81328274 2262.39518278 1019.34375 2247.69921875 C1019.97325105 2235.81645181 1017.01643963 2226.70326965 1009.16796875 2217.58984375 C992.27399603 2199.2148799 967.17407957 2187.27853912 944 2179 C943.34 2179 942.68 2179 942 2179 C942 2155.57 942 2132.14 942 2108 C946.29 2107.67 950.58 2107.34 955 2107 C958.03729181 2106.4048032 960.86345448 2105.79337332 963.8125 2104.9375 C964.94171875 2104.61422729 964.94171875 2104.61422729 966.09375 2104.28442383 C982.44119508 2099.33329751 998.91417261 2090.25700858 1007.69140625 2075.07421875 C1013.30251157 2064.21706797 1016.2317989 2053.34565789 1013.3125 2041.12109375 C1007.64869681 2026.04121774 996.78382701 2016.62948308 983 2009 C982.01386719 2008.45214844 981.02773438 2007.90429688 980.01171875 2007.33984375 C966.93401054 2000.7076986 952.47372967 1998.31579361 938 1997 C938 1968.62 938 1940.24 938 1911 C942.62 1910.67 947.24 1910.34 952 1910 C973.61575596 1907.29559849 995.13173735 1898.03878722 1009.375 1881.0625 C1014.39949106 1874.40047238 1017.89645938 1868.09077027 1017.51171875 1859.546875 C1015.51957513 1849.63177852 1007.39358569 1842.21337087 999.43017578 1836.71679688 C981.78055897 1825.02621292 961.18933872 1818.76838249 941 1813 C940.67 1783.63 940.34 1754.26 940 1724 C945.61 1724 951.22 1724 957 1724 C960.81149412 1723.69557547 964.48319207 1723.35872262 968.25 1722.8125 C969.18038086 1722.6794043 970.11076172 1722.54630859 971.06933594 1722.40917969 C985.72776726 1720.12852574 999.62947818 1713.96947062 1009 1702 C1014.8064482 1692.25723238 1016.94843494 1682.48625578 1014.3515625 1671.17578125 C1009.18104116 1657.10047317 997.16052547 1647.3376724 984 1641 C970.57803675 1635.59570686 956.31386101 1633.4313861 942 1632 C942 1593.06 942 1554.12 942 1514 C945.3 1514.33 948.6 1514.66 952 1515 C972.20755756 1516.00095711 993.98561818 1515.31340169 1010.328125 1501.71875 C1018.00487309 1493.82676598 1022.02678842 1485.52336539 1022.4375 1474.5625 C1022.11385826 1462.47518458 1015.66607874 1452.96234296 1008 1444 C989.3245125 1427.63726637 964.60140221 1419.80164061 940 1420 C940.01450195 1418.78900635 940.02900391 1417.5780127 940.04394531 1416.33032227 C940.14444824 1404.14203729 939.67080153 1392.08849151 938.75 1379.9375 C938.68375427 1379.04146057 938.61750854 1378.14542114 938.54925537 1377.222229 C933.74946648 1312.71164416 922.67558089 1255.01126983 872.22509766 1210.43164062 C863.81801368 1203.34620521 854.43495389 1197.59496918 845 1192 C844.31341309 1191.5875 843.62682617 1191.175 842.91943359 1190.75 C822.92762743 1178.82293783 801.18804937 1170.81986615 779 1164 C778.1013623 1163.72172363 777.20272461 1163.44344727 776.27685547 1163.15673828 C760.44587554 1158.33380507 744.34632165 1155.47032255 728 1153 C726.40140137 1152.75805908 726.40140137 1152.75805908 724.77050781 1152.51123047 C710.57569845 1150.42190238 696.45596609 1149.36328032 682.11376953 1149.06738281 C680.09102522 1149.02361008 678.06847744 1148.96889278 676.04638672 1148.90136719 C661.10817362 1148.4076656 646.42633217 1149.37678152 631.5625 1150.75 Z M312.45552063 2542.37481689 C308.86350632 2544.75218685 305.10062119 2546.79764816 301.33454895 2548.88395691 C284.39533256 2558.4255642 268.65362857 2569.97539205 253.80566406 2582.48681641 C252.13228318 2583.88914398 250.44126536 2585.26574226 248.7421875 2586.63671875 C240.54272871 2593.34863766 233.05012109 2600.76619509 225.5625 2608.25 C225.04171875 2608.76978424 224.5209375 2609.28956848 223.984375 2609.82510376 C218.10731758 2615.70343658 212.37699046 2621.65484842 207 2628 C206.11138035 2629.02144557 205.22209761 2630.04231481 204.33203125 2631.0625 C197.15706972 2639.42772647 190.51443264 2648.11391624 184 2657 C183.46584473 2657.72380859 182.93168945 2658.44761719 182.38134766 2659.19335938 C135.50064266 2722.77836312 103.91687333 2795.47972423 78.4375 2869.8125 C78.14149902 2870.67431885 77.84549805 2871.5361377 77.54052734 2872.42407227 C74.07147635 2882.54877035 70.83161835 2892.67637514 68 2903 C67.40736645 2905.1031795 66.81363599 2907.20605025 66.21875 2909.30859375 C65.64545167 2911.35145543 65.07253202 2913.39442342 64.5 2915.4375 C64.07654297 2916.94280273 64.07654297 2916.94280273 63.64453125 2918.47851562 C61.72018474 2925.34434018 59.86449644 2932.22656585 58.03564453 2939.1184082 C57.17783554 2942.34404812 56.30276213 2945.56478969 55.42192078 2948.78422546 C50.19128324 2967.91978402 45.68249202 2987.10460992 41.71826172 3006.54003906 C40.94234279 3010.27774234 40.10894393 3013.9985016 39.2487793 3017.7175293 C31.3567489 3051.85452028 30.83112886 3086.90048004 30.8671875 3121.78515625 C30.86651077 3124.15107737 30.86553771 3126.51699842 30.86428833 3128.88291931 C30.86283126 3133.78775713 30.86490246 3138.69257648 30.86962891 3143.59741211 C30.87535363 3149.83674859 30.87201716 3156.07604228 30.86605644 3162.31537724 C30.8624208 3167.1808046 30.86360266 3172.04622202 30.86618423 3176.9116497 C30.86684374 3179.21140994 30.86605992 3181.51117113 30.86370468 3183.81093025 C30.79559964 3207.76298353 30.79559964 3207.76298353 33.26953125 3231.55859375 C33.39180588 3232.35749527 33.51408051 3233.15639679 33.64006042 3233.97950745 C33.89594788 3235.63903178 34.155629 3237.2979758 34.41918945 3238.95629883 C34.81146138 3241.43094784 35.18881966 3243.90754245 35.56445312 3246.38476562 C37.91644287 3261.6343985 40.97635677 3276.64602627 45.625 3291.375 C45.96345947 3292.4573291 46.30191895 3293.5396582 46.65063477 3294.65478516 C52.96333659 3314.57626199 59.8941901 3334.17266995 69 3353 C69.33741211 3353.6997998 69.67482422 3354.39959961 70.02246094 3355.12060547 C71.96494606 3359.12401993 73.96087311 3363.09698958 75.99951172 3367.05224609 C77.00224982 3369.00437995 77.98751707 3370.96471887 78.97265625 3372.92578125 C94.08239697 3402.61679923 113.87209736 3430.09288213 136.6015625 3454.41796875 C138.54483106 3456.50998913 140.4096941 3458.63122372 142.25 3460.8125 C145.80015379 3464.90420267 149.61648002 3468.72605006 153.4375 3472.5625 C154.05850586 3473.18809814 154.67951172 3473.81369629 155.31933594 3474.45825195 C159.71551027 3478.84003336 164.27827349 3482.97245881 169 3487 C169.63832764 3487.54503174 170.27665527 3488.09006348 170.93432617 3488.65161133 C187.34046605 3502.55030782 204.59717773 3514.88281205 223 3526 C223.64549805 3526.39106934 224.29099609 3526.78213867 224.95605469 3527.18505859 C291.17430899 3566.87053641 370.20614898 3582.45932585 445.66015625 3564.01171875 C470.58197347 3557.44567839 494.79569944 3548.15357072 518 3537 C519.01658691 3536.51708496 520.03317383 3536.03416992 521.08056641 3535.53662109 C546.80577071 3523.25821681 571.20456479 3508.47326872 594.75 3492.4375 C595.45745361 3491.95595459 596.16490723 3491.47440918 596.89379883 3490.97827148 C598.34499355 3489.97926897 599.77192592 3488.94419762 601.17381287 3487.87710571 C603.45425472 3486.36247479 605.23834409 3485.46566796 607.72979736 3484.47373962 C612.57737456 3482.23813732 616.25973877 3479.66999896 619 3475 C621.62508882 3464.68878215 620.49149491 3453.42877362 620.09007645 3442.89347601 C619.93620558 3438.39116874 619.87224321 3433.88756786 619.80053711 3429.3833313 C619.68372322 3422.51651114 619.53927596 3415.65118431 619.36353588 3408.78561819 C619.00353638 3394.65791608 618.8474194 3380.53310901 618.75390625 3366.40136719 C618.7382361 3364.11312986 618.72255509 3361.82489261 618.7068634 3359.53665543 C618.68325293 3356.065624 618.65982156 3352.59459184 618.63695621 3349.12355542 C618.55038479 3336.2266084 618.42079618 3323.33014544 618.2890625 3310.43359375 C618.26516765 3308.07226461 618.24129785 3305.71093521 618.217453 3303.34960556 C618.18147611 3299.79066891 618.14544618 3296.23173283 618.10925007 3292.6727984 C617.9849961 3280.44884756 617.86563618 3268.22484999 617.74648476 3256.00084853 C617.50269856 3231.0005144 617.25321131 3206.0002403 617 3181 C626.57 3181 636.14 3181 646 3181 C645.99238647 3185.22719849 645.99238647 3185.22719849 645.98461914 3189.53979492 C645.94963321 3214.53320038 646.07843779 3239.51952236 646.37039185 3264.51107788 C646.49241246 3274.98906423 646.60289769 3285.46717374 646.7109375 3295.9453125 C646.72266809 3297.08139387 646.73439869 3298.21747524 646.74648476 3299.38798332 C647.09671888 3333.65622639 647.31610297 3367.92558484 647.5457902 3402.19480467 C647.56254759 3404.69459901 647.57934097 3407.19439311 647.59614182 3409.69418716 C647.73341756 3430.1294409 647.86817612 3450.56471034 648 3471 C653.28928333 3473.1368911 658.57201679 3475.26107396 663.95385742 3477.15625 C665.01909134 3477.53265625 666.08432526 3477.9090625 667.18183899 3478.296875 C668.31163681 3478.69390625 669.44143463 3479.0909375 670.60546875 3479.5 C672.46419421 3480.15658697 674.32291788 3480.81317902 676.18157101 3481.4699707 C678.15448645 3482.16683758 680.12770967 3482.86282656 682.10101318 3483.55859375 C689.11766957 3486.03298644 696.131813 3488.51446952 703.14453125 3491 C704.21479805 3491.37931671 704.21479805 3491.37931671 705.3066864 3491.76629639 C718.25981257 3496.35979682 731.17274715 3501.05909345 744.0760498 3505.79074097 C765.08032708 3513.49004242 786.15979579 3520.94055079 807.31641388 3528.20880127 C809.40802819 3528.92737497 811.49939832 3529.64665613 813.59075928 3530.3659668 C826.32056707 3534.74155343 839.04656986 3539.11090454 851.91870117 3543.05297852 C855.95188699 3544.29255761 859.94482718 3545.63687464 863.9375 3547 C871.87107587 3549.67382274 879.86394677 3552.08103646 887.90869141 3554.39550781 C890.66542426 3555.1923407 893.41674466 3556.00698583 896.16821289 3556.82177734 C899.77652687 3557.88899534 903.38794553 3558.94552059 907 3560 C907.79889648 3560.23332031 908.59779297 3560.46664062 909.42089844 3560.70703125 C962.54083023 3576.17363654 1018.70823097 3590.28523721 1074.375 3590.1875 C1075.07042908 3590.18656342 1075.76585815 3590.18562683 1076.48236084 3590.18466187 C1096.92442132 3590.12543573 1116.21442262 3588.30335064 1136 3583 C1136.72767578 3582.80535156 1137.45535156 3582.61070313 1138.20507812 3582.41015625 C1168.97833895 3573.95115564 1198.12500907 3557.75740625 1223 3538 C1224.00546875 3537.20722656 1225.0109375 3536.41445312 1226.046875 3535.59765625 C1231.70629386 3531.04933798 1237.10467303 3526.25295684 1242.4453125 3521.3359375 C1244.61942099 3519.34799121 1246.82422776 3517.41466662 1249.0625 3515.5 C1255.92061727 3509.52725443 1262.26705472 3503.01741959 1268.171875 3496.10546875 C1270.3102087 3493.64272972 1272.53084599 3491.26512657 1274.75 3488.875 C1299.88037495 3461.24672633 1320.06066959 3428.84723307 1337.83398438 3396.14404297 C1338.59469629 3394.74526322 1339.35886326 3393.34835532 1340.12695312 3391.95361328 C1375.12633939 3328.35904943 1395.09167252 3257.02902331 1408 3186 C1408.22026855 3184.79843262 1408.44053711 3183.59686523 1408.66748047 3182.35888672 C1415.17235496 3146.31035442 1421.99787489 3105.33633342 1413.74511719 3069.27832031 C1413.02469681 3066.10865949 1412.33399036 3062.93402759 1411.65083313 3059.75619507 C1406.5945652 3036.23910478 1401.10073261 3012.99257006 1393.640625 2990.10546875 C1392.43311594 2986.38873387 1391.30444035 2982.66100169 1390.24267578 2978.90039062 C1380.76012072 2945.3736788 1367.35803667 2912.70516498 1353 2881 C1352.24348145 2879.32671631 1352.24348145 2879.32671631 1351.47167969 2877.61962891 C1339.16948063 2850.54377409 1325.82349891 2824.11425191 1310.54150391 2798.58642578 C1309.10766878 2796.18065301 1307.69510839 2793.76419179 1306.29296875 2791.33984375 C1288.58331026 2760.74387508 1268.13027935 2731.55227405 1246 2704 C1245.49114258 2703.36497559 1244.98228516 2702.72995117 1244.45800781 2702.07568359 C1234.71273552 2689.93408143 1224.73683067 2678.00108732 1214.25268555 2666.48803711 C1212.87679223 2664.96839597 1211.50938699 2663.44094297 1210.15722656 2661.90014648 C1203.57374661 2654.43245352 1196.56383126 2647.41178695 1189.51586914 2640.38549805 C1187.43454811 2638.30955574 1185.35865187 2636.22829578 1183.28320312 2634.14648438 C1181.93782062 2632.80176248 1180.59212806 2631.45735071 1179.24609375 2630.11328125 C1178.63753036 2629.50269363 1178.02896698 2628.89210602 1177.40196228 2628.26301575 C1173.63954884 2624.52066988 1169.75573617 2620.96840662 1165.73710632 2617.50242615 C1163.57323995 2615.63089452 1161.47651972 2613.69104004 1159.375 2611.75 C1154.33800255 2607.20516719 1149.05837606 2603.03898809 1143.69921875 2598.88671875 C1141.21736691 2596.96149488 1138.76460604 2595.00664119 1136.33203125 2593.01953125 C1127.53315366 2585.83843671 1118.46089306 2579.27922353 1109 2573 C1107.82945068 2572.21641113 1107.82945068 2572.21641113 1106.63525391 2571.41699219 C1095.05456462 2563.67813967 1083.283111 2556.56220999 1071 2550 C1069.47127238 2549.17463063 1067.94262689 2548.34910913 1066.4140625 2547.5234375 C1064.92240025 2546.72297875 1063.43023077 2545.92346436 1061.9375 2545.125 C1061.27145752 2544.76760742 1060.60541504 2544.41021484 1059.91918945 2544.04199219 C1057.95746975 2543.00391041 1055.98116047 2542.00045081 1054 2541 C1053.3369432 2540.65341087 1052.67388639 2540.30682175 1051.99073696 2539.94972992 C1046.24503286 2537.13882339 1041.48866208 2536.40560758 1035.13891602 2536.40820312 C1034.18450308 2536.39301132 1033.23009014 2536.37781952 1032.2467556 2536.36216736 C1029.06156626 2536.31645105 1025.87686625 2536.29875569 1022.69140625 2536.28125 C1020.38910617 2536.25450882 1018.08682401 2536.2261856 1015.78456116 2536.19641113 C1009.50616932 2536.12097625 1003.22782356 2536.07138045 996.94913483 2536.02838135 C992.32200673 2535.99512745 987.6949839 2535.95331712 983.06793344 2535.9107728 C965.97194235 2535.75410043 948.87579915 2535.64225053 931.7794019 2535.5411334 C917.67505854 2535.45731712 903.57078933 2535.36130639 889.46652079 2535.26584816 C887.12488639 2535.25002563 884.78325128 2535.23431249 882.44161606 2535.21861267 C857.66924129 2535.05203073 832.89804333 2534.82675156 808.12684631 2534.53125 C735.99171775 2533.67310205 663.85350362 2533.16512966 591.71484375 2532.71484375 C590.75760359 2532.70884981 589.80036344 2532.70285588 588.814116 2532.69668031 C566.23683023 2532.55552128 543.65956091 2532.42835152 521.08203125 2532.33325195 C519.13806718 2532.32496168 517.19410318 2532.3166568 515.25013924 2532.30833721 C513.8118315 2532.30218949 513.8118315 2532.30218949 512.34446704 2532.29591757 C510.41516075 2532.28766684 508.48585448 2532.27940943 506.55654824 2532.27114528 C501.77666165 2532.25069268 496.99677431 2532.23048682 492.21688461 2532.21077538 C469.25219661 2532.11487081 446.29173482 2531.92991795 423.32916975 2531.60395187 C414.27578541 2531.47741396 405.22198824 2531.39115065 396.16809082 2531.31067753 C389.88738999 2531.25224749 383.60871393 2531.17264134 377.3291626 2531.037323 C343.292062 2529.69005697 343.292062 2529.69005697 312.45552063 2542.37481689 Z M1436 3152 C1435.88519287 3152.97195312 1435.77038574 3153.94390625 1435.65209961 3154.9453125 C1425.64367957 3238.97705123 1406.46910407 3321.73745058 1312 3489 C1311.50145508 3489.6285791 1311.00291016 3490.2571582 1310.48925781 3490.90478516 C1304.12819125 3498.90735491 1297.62853788 3506.69999097 1290.6328125 3514.15625 C1288.59619408 3516.35603963 1286.62276315 3518.58007933 1284.6640625 3520.84765625 C1281.01303482 3525.03650117 1277.18051619 3529.01129306 1273.25 3532.9375 C1272.20283813 3533.98454102 1272.20283813 3533.98454102 1271.13452148 3535.05273438 C1266.43038666 3539.70547267 1261.61637898 3543.99526142 1256.41015625 3548.08203125 C1254.1696519 3549.86499338 1252.09203422 3551.7346618 1250 3553.6875 C1197.32394339 3600.83350797 1128.6479008 3621.96021435 1058.9140625 3618.43359375 C1024.94432217 3616.43226827 991.09844174 3610.8065046 958 3603 C957.25973572 3602.82680237 956.51947144 3602.65360474 955.7567749 3602.47515869 C873.4440145 3583.1966605 793.85293436 3554.44867529 714.43026352 3525.8351326 C702.04309191 3521.37257496 689.6493996 3516.92847167 677.25 3512.5 C676.44037811 3512.2105249 675.63075623 3511.9210498 674.79660034 3511.62280273 C671.04664555 3510.28212999 667.29545953 3508.94523921 663.54101562 3507.6171875 C660.2082492 3506.43670191 656.88723219 3505.22678753 653.56835938 3504.0078125 C651.74875635 3503.34879697 649.92909609 3502.68993945 648.109375 3502.03125 C647.25925842 3501.71401978 646.40914185 3501.39678955 645.53326416 3501.06994629 C644.73821472 3500.78453979 643.94316528 3500.4991333 643.12402344 3500.20507812 C642.42323669 3499.94795044 641.72244995 3499.69082275 641.00042725 3499.42590332 C637.86792701 3498.75897467 635.77117135 3499.55089242 633.05566406 3501.13232422 C632.38245117 3501.6017041 631.70923828 3502.07108398 631.015625 3502.5546875 C629.87287109 3503.3446814 629.87287109 3503.3446814 628.70703125 3504.15063477 C627.49080078 3505.00419556 627.49080078 3505.00419556 626.25 3505.875 C625.40308594 3506.46144287 624.55617188 3507.04788574 623.68359375 3507.65209961 C621.1184311 3509.4291093 618.55848921 3511.21339911 616 3513 C590.74303086 3530.62127488 564.49430252 3546.11600347 537 3560 C536.06430176 3560.47324707 535.12860352 3560.94649414 534.16455078 3561.43408203 C519.14611825 3568.97063294 503.79950166 3575.29127421 488 3581 C487.07445312 3581.33515625 486.14890625 3581.6703125 485.1953125 3582.015625 C404.59161263 3610.85331234 318.0664439 3604.57186469 240.82958984 3568.33935547 C239.8958252 3567.89736816 238.96206055 3567.45538086 238 3567 C236.66702881 3566.37375732 236.66702881 3566.37375732 235.30712891 3565.73486328 C210.52481946 3554.00224317 187.41776584 3539.09393242 166 3522 C165.38592285 3521.51595703 164.7718457 3521.03191406 164.13916016 3520.53320312 C149.92651683 3509.32143873 136.97888043 3497.0457661 124.125 3484.3125 C123.25721924 3483.45785156 122.38943848 3482.60320313 121.49536133 3481.72265625 C116.31226978 3476.54601565 111.55439334 3471.17868835 106.97412109 3465.4621582 C105.40814258 3463.50904254 103.82007096 3461.59801107 102.171875 3459.71484375 C94.49570756 3450.91201302 87.68256889 3441.57221133 81 3432 C80.35297119 3431.07695068 80.35297119 3431.07695068 79.69287109 3430.13525391 C39.93923736 3373.05844993 14.2861767 3306.91320606 5 3238 C4.67 3238 4.34 3238 4 3238 C4 3479.89 4 3721.78 4 3971 C476.89 3971 949.78 3971 1437 3971 C1437 3700.73 1437 3430.46 1437 3152 C1436.67 3152 1436.34 3152 1436 3152 Z " fill="#010101" transform="translate(0,0)"/>
<path d="M0 0 C475.53 0 951.06 0 1441 0 C1441 1019.04 1441 2038.08 1441 3088 C1440.67 3088 1440.34 3088 1440 3088 C1437.16543522 3074.98455634 1436.57516911 3062.51331537 1436.62740451 3049.2229318 C1436.62480308 3047.04966116 1436.620886 3044.87639177 1436.61578555 3042.70312555 C1436.60558244 3036.73794644 1436.61399669 3030.77291827 1436.62548765 3024.8077469 C1436.6337462 3018.96549486 1436.62772697 3013.12326762 1436.62219715 3007.28101489 C1436.6112144 2995.14450838 1436.61443151 2983.00804274 1436.62535045 2970.87153786 C1436.63640945 2958.51061103 1436.64081642 2946.1497076 1436.63730332 2933.78877605 C1436.63708436 2933.00423242 1436.6368654 2932.2196888 1436.6366398 2931.41137112 C1436.63549225 2927.40540129 1436.63423944 2923.39943149 1436.63295073 2919.39346169 C1436.62376869 2890.15000747 1436.62935469 2860.90657032 1436.64238358 2831.66311836 C1436.65554021 2802.02339093 1436.66212898 2772.38367269 1436.66067696 2742.74394226 C1436.66063408 2741.80915873 1436.66059121 2740.8743752 1436.66054704 2739.91126489 C1436.66015178 2731.34460164 1436.65968344 2722.7779384 1436.65912804 2714.21127516 C1436.65773877 2692.72976216 1436.65734116 2671.24824919 1436.65760171 2649.76673615 C1436.65761296 2648.78238036 1436.6576242 2647.79802456 1436.65763578 2646.7838398 C1436.65827831 2598.25812263 1436.67018197 2549.73240893 1436.68280983 2501.20669365 C1436.68724739 2484.124388 1436.69163144 2467.04208235 1436.69581819 2449.95977664 C1436.69607849 2448.8978804 1436.69633879 2447.83598417 1436.69660698 2446.74190926 C1436.70860018 2397.54801129 1436.71289373 2348.35411358 1436.71521609 2299.16021432 C1436.71536837 2295.94272267 1436.71552428 2292.72523103 1436.71568111 2289.50773938 C1436.7166234 2270.10618128 1436.71748551 2250.70462317 1436.71825503 2231.30306507 C1436.72017154 2183.07124275 1436.7230499 2134.83942053 1436.72658062 2086.6075983 C1436.72670047 2084.96058215 1436.72670047 2084.96058215 1436.72682274 2083.28029293 C1436.73200523 2012.16763996 1436.7411474 1941.05498815 1436.75360584 1869.94233608 C1436.75390414 1868.23935286 1436.75390414 1868.23935286 1436.75420847 1866.50196593 C1436.7602705 1831.94208316 1436.76662566 1797.38220044 1436.77303817 1762.82231773 C1436.78013311 1724.57754941 1436.78717805 1686.33278107 1436.79400635 1648.0880127 C1436.7943146 1646.36295457 1436.7943146 1646.36295457 1436.79462907 1644.60304679 C1436.81392275 1536.53771873 1436.82532673 1428.47239032 1436.83460481 1320.40706098 C1436.83520571 1313.41320908 1436.83581323 1306.41935718 1436.83642202 1299.42550527 C1436.84276338 1226.54010131 1436.84872436 1153.65469733 1436.85452034 1080.76929332 C1436.85464506 1079.20143892 1436.85464506 1079.20143892 1436.85477231 1077.60191068 C1436.855157 1072.76553165 1436.85554125 1067.92915262 1436.85592424 1063.09277358 C1436.88396505 710.06184467 1436.94445285 357.03092767 1437 4 C964.11 4 491.22 4 4 4 C4.01160156 224.99042969 4.02320313 445.98085938 4.03515625 673.66796875 C4.03992536 804.03731217 4.04465056 934.40665551 4.04809406 1064.77599896 C4.0482267 1069.79600718 4.04836002 1074.8160154 4.04849322 1079.83602361 C4.04852063 1080.86946341 4.04854804 1081.90290321 4.04857629 1082.96765937 C4.05051215 1155.9287018 4.05250924 1228.88974424 4.05462768 1301.85078667 C4.05483029 1308.83308793 4.05503148 1315.81538919 4.05523144 1322.79769045 C4.05832368 1430.77432708 4.06222645 1538.75096361 4.06866455 1646.7276001 C4.06873299 1647.8762945 4.06880142 1649.0249889 4.06887193 1650.20849222 C4.07114892 1688.40731671 4.07350334 1726.60614119 4.07586844 1764.80496567 C4.07800517 1799.31928074 4.0801141 1833.83359581 4.08213139 1868.34791088 C4.08219767 1869.48174498 4.08226395 1870.61557907 4.08233224 1871.78377178 C4.08647646 1942.80064058 4.08941613 2013.81750935 4.09113979 2084.83437824 C4.09116658 2085.93134694 4.09119336 2087.02831565 4.09122096 2088.15852582 C4.09239633 2136.33679962 4.09332063 2184.51507342 4.0939579 2232.69334723 C4.09421545 2252.07642365 4.09451018 2271.45950007 4.09482527 2290.84257649 C4.09487721 2294.05641108 4.09492794 2297.27024568 4.09497854 2300.48408027 C4.09576105 2349.63771312 4.09737236 2398.79134577 4.10139394 2447.94497848 C4.10148064 2449.00481784 4.10156734 2450.0646572 4.10165666 2451.1566129 C4.10305641 2468.20537584 4.10452537 2485.25413877 4.10600626 2502.30290169 C4.11021125 2550.71321917 4.1139484 2599.12353644 4.11413276 2647.53385413 C4.11413674 2648.51654833 4.11414071 2649.49924254 4.11414481 2650.51171536 C4.11422161 2671.95330921 4.1140253 2693.39490304 4.1135619 2714.83649688 C4.11338147 2723.38868176 4.11323844 2731.94086665 4.11310768 2740.49305153 C4.11309245 2741.42594266 4.11307721 2742.3588338 4.11306151 2743.31999436 C4.11259659 2772.88653857 4.1152085 2802.45308143 4.11960873 2832.01962528 C4.12393091 2861.1454972 4.12521041 2890.27136745 4.12209016 2919.39723958 C4.12166269 2923.39217876 4.12127025 2927.38711793 4.12089889 2931.38205711 C4.12082487 2932.16410449 4.12075084 2932.94615188 4.12067457 2933.75189767 C4.1196014 2946.05017965 4.12185544 2958.3484586 4.12555815 2970.64673998 C4.12911828 2982.6990921 4.12909056 2994.75143985 4.12530107 3006.80379195 C4.12343195 3013.21195914 4.12308714 3019.62011567 4.12723524 3026.02828204 C4.15586224 3073.1634833 4.15586224 3073.1634833 3.11737822 3096.19658016 C2.0417857 3121.88565117 1.89500653 3147.64478807 1.82376099 3173.35217285 C1.81638157 3175.7835816 1.80581686 3178.21498324 1.79171753 3180.6463623 C1.77350517 3184.08852913 1.76968844 3187.53044619 1.76953125 3190.97265625 C1.76239105 3191.94838089 1.75525085 3192.92410553 1.74789429 3193.92939758 C1.76303874 3198.85700473 1.9446467 3203.73087618 2.45276725 3208.63260132 C4.08157909 3224.36549209 4.28282877 3240.00713339 4.2445315 3255.80893887 C4.23756206 3259.62424083 4.2424304 3263.4395326 4.24569702 3267.25483704 C4.24982234 3273.92475606 4.24661022 3280.59463909 4.23843026 3287.2645539 C4.22615012 3297.31100155 4.22569705 3307.35742776 4.22736086 3317.40388156 C4.22983674 3334.24566598 4.22329265 3351.08743472 4.21115112 3367.92921448 C4.19476327 3390.70155394 4.19094243 3413.47386666 4.18920898 3436.24621582 C4.17871741 3490.97664706 4.15079508 3545.70707383 4.125 3600.4375 C4.08375 3722.723125 4.0425 3845.00875 4 3971 C476.89 3971 949.78 3971 1437 3971 C1436.96039469 3699.07568261 1436.96039469 3699.07568261 1436.90991211 3427.15136719 C1436.90539551 3374.6196289 1436.90539551 3374.6196289 1436.90455627 3350.04571533 C1436.90356122 3331.70912816 1436.89924767 3313.37254466 1436.89332657 3295.03595852 C1436.88736866 3276.33237353 1436.8851645 3257.62879085 1436.88655505 3238.92520495 C1436.88727175 3227.80882296 1436.88529114 3216.69244963 1436.8791924 3205.57606925 C1436.87543501 3198.22774708 1436.87533531 3190.87943065 1436.87816466 3183.53110809 C1436.87967106 3179.35117074 1436.87963566 3175.17124996 1436.87511742 3170.99131441 C1436.85393473 3150.17181206 1437.21452198 3129.50210876 1439.0625 3108.75 C1439.15337891 3107.69554688 1439.24425781 3106.64109375 1439.33789062 3105.5546875 C1439.55539971 3103.03616125 1439.77604373 3100.51795956 1440 3098 C1440.33 3098 1440.66 3098 1441 3098 C1441 3387.41 1441 3676.82 1441 3975 C965.47 3975 489.94 3975 0 3975 C0 2663.25 0 1351.5 0 0 Z " fill="#FDFDFD" transform="translate(0,0)"/>
</svg>
