<?xml version="1.0" encoding="UTF-8"?>
<!DOCTYPE svg PUBLIC "-//W3C//DTD SVG 1.1//EN" "http://www.w3.org/Graphics/SVG/1.1/DTD/svg11.dtd">
<svg xmlns="http://www.w3.org/2000/svg" version="1.1" width="1484px" height="3975px" style="shape-rendering:geometricPrecision; text-rendering:geometricPrecision; image-rendering:optimizeQuality; fill-rule:evenodd; clip-rule:evenodd" xmlns:xlink="http://www.w3.org/1999/xlink">
<g><path style="opacity:0.776" fill="#fdfdfd" d="M 0.5,-0.5 C 493.5,-0.5 986.5,-0.5 1479.5,-0.5C 1479.5,306.167 1479.5,612.833 1479.5,919.5C 1479.5,950.833 1479.5,982.167 1479.5,1013.5C 1479.5,2000.5 1479.5,2987.5 1479.5,3974.5C 986.5,3974.5 493.5,3974.5 0.5,3974.5C 0.5,3009.17 0.5,2043.83 0.5,1078.5C 1.83333,1053.5 1.83333,1028.5 0.5,1003.5C 0.5,668.833 0.5,334.167 0.5,-0.5 Z M 1475.5,894.5 C 1463.78,851.393 1442.95,813.393 1413,780.5C 1383.47,749.953 1351.31,722.786 1316.5,699C 1246.51,652.994 1175.17,608.994 1102.5,567C 1061.01,544.589 1017.68,526.589 972.5,513C 876.118,485.81 782.785,493.81 692.5,537C 648.626,558.753 607.626,584.753 569.5,615C 556.946,625.892 544.113,636.392 531,646.5C 500.929,623.866 468.763,604.366 434.5,588C 387.226,565.621 337.56,556.954 285.5,562C 242.991,569.148 205.658,586.814 173.5,615C 150.116,636.71 129.282,660.544 111,686.5C 53.6057,768.831 18.1057,859.831 4.5,959.5C 4.5,640.833 4.5,322.167 4.5,3.5C 494.833,3.5 985.167,3.5 1475.5,3.5C 1475.5,300.5 1475.5,597.5 1475.5,894.5 Z M 1475.5,1043.5 C 1475.5,2019.17 1475.5,2994.83 1475.5,3970.5C 985.167,3970.5 494.833,3970.5 4.5,3970.5C 4.5,3021.83 4.5,2073.17 4.5,1124.5C 24.2908,1260.09 74.7908,1382.76 156,1492.5C 158.833,1495.33 161.667,1498.17 164.5,1501C 206.349,1534.09 248.016,1567.43 289.5,1601C 280.9,1614.03 273.733,1627.87 268,1642.5C 259.029,1668.58 265.529,1689.75 287.5,1706C 304.146,1716.32 321.813,1724.49 340.5,1730.5C 341.324,1733.78 341.824,1737.12 342,1740.5C 342.188,1773.18 342.688,1805.85 343.5,1838.5C 343.167,1839.5 342.833,1840.5 342.5,1841.5C 303.591,1847.51 275.758,1868.18 259,1903.5C 245.647,1946.29 259.481,1976.45 300.5,1994C 314.483,1998.7 328.816,2001.53 343.5,2002.5C 345.491,2023.14 345.825,2043.81 344.5,2064.5C 324.805,2074.93 306.972,2087.93 291,2103.5C 281.858,2113.12 275.858,2124.45 273,2137.5C 270.396,2159.8 277.896,2177.96 295.5,2192C 310.883,2203.36 327.883,2211.52 346.5,2216.5C 347.833,2231.5 347.833,2246.5 346.5,2261.5C 319.92,2267.19 299.086,2281.19 284,2303.5C 267.001,2339.34 274.168,2369.51 305.5,2394C 318.971,2403.57 333.638,2410.74 349.5,2415.5C 349.667,2433.5 349.5,2451.5 349,2469.5C 327.034,2479.48 307.701,2493.15 291,2510.5C 269.032,2538.89 269.032,2567.22 291,2595.5C 308.02,2612.93 327.853,2626.27 350.5,2635.5C 351.666,2649.82 351.833,2664.16 351,2678.5C 317.316,2687.88 290.649,2706.88 271,2735.5C 251.116,2776.85 260.616,2809.68 299.5,2834C 317.022,2843.21 335.688,2848.05 355.5,2848.5C 368.148,2908.64 399.482,2956.48 449.5,2992C 496.061,3022.19 547.061,3040.52 602.5,3047C 691.389,3058.51 777.056,3046.85 859.5,3012C 902.107,2993.39 936.94,2965.22 964,2927.5C 985.321,2892.53 997.655,2854.53 1001,2813.5C 1003.54,2793.24 1005.04,2772.91 1005.5,2752.5C 1036.1,2748.15 1061.93,2734.82 1083,2712.5C 1102.32,2688.23 1105.65,2661.9 1093,2633.5C 1077.23,2609.18 1054.73,2595.34 1025.5,2592C 1020.16,2591.53 1014.82,2591.03 1009.5,2590.5C 1009.58,2567.48 1009.41,2544.48 1009,2521.5C 1029.8,2517.18 1048.63,2508.68 1065.5,2496C 1095.61,2468.46 1100.78,2436.96 1081,2401.5C 1061.78,2378.97 1037.28,2366.64 1007.5,2364.5C 1007.06,2349.83 1006.89,2335.16 1007,2320.5C 1030.83,2313.5 1052.66,2302.67 1072.5,2288C 1102.43,2258.75 1103.09,2228.75 1074.5,2198C 1055.12,2180.14 1032.46,2168.31 1006.5,2162.5C 1005.68,2159.55 1005.18,2156.55 1005,2153.5C 1004.5,2143.17 1004.33,2132.84 1004.5,2122.5C 1034.33,2117.01 1058.83,2102.68 1078,2079.5C 1093.66,2054.96 1095.66,2029.29 1084,2002.5C 1066.92,1974.19 1042.08,1956.52 1009.5,1949.5C 1009.17,1939.48 1009.5,1929.48 1010.5,1919.5C 1035.76,1909.3 1058.26,1894.97 1078,1876.5C 1102.19,1848.6 1104.53,1818.93 1085,1787.5C 1066.27,1762.11 1042.27,1743.45 1013,1731.5C 1020.64,1691.33 1029.3,1651.33 1039,1611.5C 1083.8,1568.36 1128.3,1524.86 1172.5,1481C 1199.09,1462.42 1223.92,1441.59 1247,1418.5C 1288.26,1373.92 1327.26,1327.59 1364,1279.5C 1393.63,1240.48 1419.3,1198.81 1441,1154.5C 1456.38,1118.61 1467.88,1081.61 1475.5,1043.5 Z"/></g>
<g><path style="opacity:0.983" fill="#010101" d="M 1475.5,894.5 C 1476.83,944.164 1476.83,993.831 1475.5,1043.5C 1467.88,1081.61 1456.38,1118.61 1441,1154.5C 1419.3,1198.81 1393.63,1240.48 1364,1279.5C 1327.26,1327.59 1288.26,1373.92 1247,1418.5C 1223.92,1441.59 1199.09,1462.42 1172.5,1481C 1128.3,1524.86 1083.8,1568.36 1039,1611.5C 1029.3,1651.33 1020.64,1691.33 1013,1731.5C 1042.27,1743.45 1066.27,1762.11 1085,1787.5C 1104.53,1818.93 1102.19,1848.6 1078,1876.5C 1058.26,1894.97 1035.76,1909.3 1010.5,1919.5C 1009.5,1929.48 1009.17,1939.48 1009.5,1949.5C 1042.08,1956.52 1066.92,1974.19 1084,2002.5C 1095.66,2029.29 1093.66,2054.96 1078,2079.5C 1058.83,2102.68 1034.33,2117.01 1004.5,2122.5C 1004.33,2132.84 1004.5,2143.17 1005,2153.5C 1005.18,2156.55 1005.68,2159.55 1006.5,2162.5C 1032.46,2168.31 1055.12,2180.14 1074.5,2198C 1103.09,2228.75 1102.43,2258.75 1072.5,2288C 1052.66,2302.67 1030.83,2313.5 1007,2320.5C 1006.89,2335.16 1007.06,2349.83 1007.5,2364.5C 1037.28,2366.64 1061.78,2378.97 1081,2401.5C 1100.78,2436.96 1095.61,2468.46 1065.5,2496C 1048.63,2508.68 1029.8,2517.18 1009,2521.5C 1009.41,2544.48 1009.58,2567.48 1009.5,2590.5C 1014.82,2591.03 1020.16,2591.53 1025.5,2592C 1054.73,2595.34 1077.23,2609.18 1093,2633.5C 1105.65,2661.9 1102.32,2688.23 1083,2712.5C 1061.93,2734.82 1036.1,2748.15 1005.5,2752.5C 1005.04,2772.91 1003.54,2793.24 1001,2813.5C 997.655,2854.53 985.321,2892.53 964,2927.5C 936.94,2965.22 902.107,2993.39 859.5,3012C 777.056,3046.85 691.389,3058.51 602.5,3047C 547.061,3040.52 496.061,3022.19 449.5,2992C 399.482,2956.48 368.148,2908.64 355.5,2848.5C 335.688,2848.05 317.022,2843.21 299.5,2834C 260.616,2809.68 251.116,2776.85 271,2735.5C 290.649,2706.88 317.316,2687.88 351,2678.5C 351.833,2664.16 351.666,2649.82 350.5,2635.5C 327.853,2626.27 308.02,2612.93 291,2595.5C 269.032,2567.22 269.032,2538.89 291,2510.5C 307.701,2493.15 327.034,2479.48 349,2469.5C 349.5,2451.5 349.667,2433.5 349.5,2415.5C 333.638,2410.74 318.971,2403.57 305.5,2394C 274.168,2369.51 267.001,2339.34 284,2303.5C 299.086,2281.19 319.92,2267.19 346.5,2261.5C 347.833,2246.5 347.833,2231.5 346.5,2216.5C 327.883,2211.52 310.883,2203.36 295.5,2192C 277.896,2177.96 270.396,2159.8 273,2137.5C 275.858,2124.45 281.858,2113.12 291,2103.5C 306.972,2087.93 324.805,2074.93 344.5,2064.5C 345.825,2043.81 345.491,2023.14 343.5,2002.5C 328.816,2001.53 314.483,1998.7 300.5,1994C 259.481,1976.45 245.647,1946.29 259,1903.5C 275.758,1868.18 303.591,1847.51 342.5,1841.5C 342.833,1840.5 343.167,1839.5 343.5,1838.5C 342.688,1805.85 342.188,1773.18 342,1740.5C 341.824,1737.12 341.324,1733.78 340.5,1730.5C 321.813,1724.49 304.146,1716.32 287.5,1706C 265.529,1689.75 259.029,1668.58 268,1642.5C 273.733,1627.87 280.9,1614.03 289.5,1601C 248.016,1567.43 206.349,1534.09 164.5,1501C 161.667,1498.17 158.833,1495.33 156,1492.5C 74.7908,1382.76 24.2908,1260.09 4.5,1124.5C 3.17571,1069.5 3.17571,1014.5 4.5,959.5C 18.1057,859.831 53.6057,768.831 111,686.5C 129.282,660.544 150.116,636.71 173.5,615C 205.658,586.814 242.991,569.148 285.5,562C 337.56,556.954 387.226,565.621 434.5,588C 468.763,604.366 500.929,623.866 531,646.5C 544.113,636.392 556.946,625.892 569.5,615C 607.626,584.753 648.626,558.753 692.5,537C 782.785,493.81 876.118,485.81 972.5,513C 1017.68,526.589 1061.01,544.589 1102.5,567C 1175.17,608.994 1246.51,652.994 1316.5,699C 1351.31,722.786 1383.47,749.953 1413,780.5C 1442.95,813.393 1463.78,851.393 1475.5,894.5 Z"/></g>
<g><path style="opacity:1" fill="#fdfdfd" d="M 831.5,527.5 C 892.294,524.203 950.961,533.703 1007.5,556C 1052.3,574.234 1095.3,595.901 1136.5,621C 1186.84,651.833 1236.84,683.166 1286.5,715C 1323.05,738.899 1356.55,766.733 1387,798.5C 1440.63,858.759 1461.63,929.092 1450,1009.5C 1442.91,1065.86 1426.25,1119.19 1400,1169.5C 1375.8,1212.59 1348.13,1253.26 1317,1291.5C 1289.75,1324.76 1261.75,1357.42 1233,1389.5C 1221.47,1401.36 1209.64,1412.86 1197.5,1424C 1178.83,1438.67 1160.17,1453.33 1141.5,1468C 819.5,1468.67 497.5,1468.67 175.5,1468C 97.1595,1360.76 49.6595,1240.92 33,1108.5C 16.9654,950.734 56.2987,808.734 151,682.5C 170.349,657.252 193.182,635.752 219.5,618C 266.614,588.951 316.948,581.951 370.5,597C 401.577,605.246 430.91,617.579 458.5,634C 478.275,646.302 497.442,659.469 516,673.5C 516.167,680.333 516.333,687.167 516.5,694C 512.889,808.173 509.222,922.34 505.5,1036.5C 515.167,1036.5 524.833,1036.5 534.5,1036.5C 538.464,915.463 542.63,794.463 547,673.5C 598.582,625.625 656.416,586.791 720.5,557C 756.173,541.667 793.173,531.834 831.5,527.5 Z"/></g>
<g><path style="opacity:1" fill="#020202" d="M 1031.5,828.5 C 1059.12,828.048 1085.79,832.881 1111.5,843C 1145.38,856.773 1178.38,872.439 1210.5,890C 1211.52,891.049 1211.68,892.216 1211,893.5C 1207.33,901.521 1203.16,909.188 1198.5,916.5C 1168.26,900.047 1137.26,885.213 1105.5,872C 1085.24,863.851 1064.24,859.018 1042.5,857.5C 1027.13,858.012 1012.46,861.512 998.5,868C 982.168,876.495 966.501,885.995 951.5,896.5C 945.308,889.293 939.975,881.46 935.5,873C 956.674,856.406 980.007,843.406 1005.5,834C 1014.25,831.788 1022.91,829.955 1031.5,828.5 Z"/></g>
<g><path style="opacity:0.798" fill="#000000" d="M 1479.5,919.5 C 1481.53,931.095 1482.87,942.762 1483.5,954.5C 1483.5,961.167 1483.5,967.833 1483.5,974.5C 1482.77,987.554 1481.43,1000.55 1479.5,1013.5C 1479.5,982.167 1479.5,950.833 1479.5,919.5 Z"/></g>
<g><path style="opacity:1" fill="#959595" d="M 0.5,1003.5 C 1.83333,1028.5 1.83333,1053.5 0.5,1078.5C 0.82404,1071.65 0.490707,1064.98 -0.5,1058.5C -0.5,1045.83 -0.5,1033.17 -0.5,1020.5C 0.488864,1015.02 0.822197,1009.36 0.5,1003.5 Z"/></g>
<g><path style="opacity:1" fill="#49494a" d="M 1111.5,1498.5 C 811,1498.17 510.666,1498.5 210.5,1499.5C 209.957,1499.44 209.624,1499.11 209.5,1498.5C 359.833,1498.17 510.167,1497.83 660.5,1497.5C 811,1497.5 961.334,1497.83 1111.5,1498.5 Z"/></g>
<g><path style="opacity:1" fill="#b7b7b8" d="M 210.5,1499.5 C 510.666,1498.5 811,1498.17 1111.5,1498.5C 1078.2,1531.63 1044.7,1564.63 1011,1597.5C 999.176,1650.12 987.676,1702.78 976.5,1755.5C 993.753,1755.2 1009.42,1760.03 1023.5,1770C 1038.45,1779.23 1050.95,1791.06 1061,1805.5C 1070.53,1819.65 1070.86,1833.99 1062,1848.5C 1052.66,1860.84 1041.16,1870.67 1027.5,1878C 1012.19,1886.41 996.353,1893.58 980,1899.5C 979.5,1924.5 979.333,1949.5 979.5,1974.5C 1001.35,1976.06 1021.35,1982.89 1039.5,1995C 1070.14,2022.19 1070.14,2049.19 1039.5,2076C 1020.2,2088.05 999.196,2095.21 976.5,2097.5C 975.169,2104.64 974.503,2112.14 974.5,2120C 974.5,2127.67 974.834,2135.17 975.5,2142.5C 975.5,2158.17 975.5,2173.83 975.5,2189.5C 1008.03,2189.61 1035.53,2201.28 1058,2224.5C 1068.87,2238.68 1067.7,2251.85 1054.5,2264C 1043.56,2273.31 1031.23,2280.31 1017.5,2285C 1004.6,2289.47 991.598,2293.63 978.5,2297.5C 977.5,2329.16 977.167,2360.83 977.5,2392.5C 999.164,2391.28 1019.83,2395.11 1039.5,2404C 1065.75,2420.18 1070.25,2441.01 1053,2466.5C 1042.31,2476.93 1029.81,2484.43 1015.5,2489C 1003.68,2492.03 991.678,2493.86 979.5,2494.5C 979.42,2536.84 979.754,2579.17 980.5,2621.5C 994.853,2620.03 1009.19,2620.19 1023.5,2622C 1041.11,2624.3 1055.28,2632.47 1066,2646.5C 1074.71,2668.39 1069.88,2686.89 1051.5,2702C 1029.27,2717.23 1004.6,2725.4 977.5,2726.5C 976.523,2768.9 972.023,2810.9 964,2852.5C 949.742,2906.87 917.908,2947.37 868.5,2974C 812.717,3002.92 753.383,3018.59 690.5,3021C 630.115,3024.85 571.782,3015.85 515.5,2994C 463.607,2973.1 424.774,2937.93 399,2888.5C 388.673,2867.35 383.173,2845.02 382.5,2821.5C 369.803,2820.75 357.136,2819.59 344.5,2818C 326.057,2815.87 310.557,2808.03 298,2794.5C 288.03,2779.28 288.03,2763.95 298,2748.5C 311.516,2730.33 329.016,2717.5 350.5,2710C 360.655,2706.71 370.989,2704.21 381.5,2702.5C 381.5,2673.5 381.5,2644.5 381.5,2615.5C 359.136,2608.32 338.803,2597.49 320.5,2583C 301.425,2566.4 299.592,2548.24 315,2528.5C 325.092,2518.07 336.592,2509.57 349.5,2503C 359.167,2498.5 368.833,2494 378.5,2489.5C 379.5,2457.51 379.833,2425.51 379.5,2393.5C 355.618,2388.97 334.452,2378.97 316,2363.5C 298.356,2340.58 301.189,2320.41 324.5,2303C 340.535,2292.49 358.202,2287.32 377.5,2287.5C 376.925,2255.84 376.592,2224.17 376.5,2192.5C 357.15,2189.44 338.817,2183.27 321.5,2174C 310.771,2168.12 304.104,2159.29 301.5,2147.5C 302.411,2140.01 305.244,2133.35 310,2127.5C 321.05,2115.44 333.55,2105.27 347.5,2097C 356.5,2092.17 365.5,2087.33 374.5,2082.5C 375.088,2045.51 375.088,2008.51 374.5,1971.5C 354.61,1973.71 334.944,1972.54 315.5,1968C 284.818,1957.14 276.318,1936.97 290,1907.5C 303.428,1887.19 322.261,1875.02 346.5,1871C 355.16,1870.5 363.827,1870.33 372.5,1870.5C 372.387,1816.5 372.053,1762.5 371.5,1708.5C 347.384,1702.74 324.717,1693.58 303.5,1681C 297.015,1676.7 294.015,1670.7 294.5,1663C 294.279,1658.3 295.113,1653.8 297,1649.5C 306.475,1630.55 316.975,1612.21 328.5,1594.5C 289.175,1562.84 249.842,1531.17 210.5,1499.5 Z"/></g>
<g><path style="opacity:1" fill="#565656" d="M 976.5,2097.5 C 975.517,2112.42 975.184,2127.42 975.5,2142.5C 974.834,2135.17 974.5,2127.67 974.5,2120C 974.503,2112.14 975.169,2104.64 976.5,2097.5 Z"/></g>
</svg>
