<?xml version="1.0" encoding="UTF-8"?>
<svg version="1.1" xmlns="http://www.w3.org/2000/svg" width="1347" height="3976">
<path d="M0 0 C444.51 0 889.02 0 1347 0 C1347 1312.08 1347 2624.16 1347 3976 C902.49 3976 457.98 3976 0 3976 C0 2663.92 0 1351.84 0 0 Z M4 4 C4 319.48 4 634.96 4 960 C4.33 960 4.66 960 5 960 C5.08451416 959.11779785 5.16902832 958.2355957 5.25610352 957.32666016 C12.0214111 888.59255284 31.88014865 821.30724758 76 767 C76.43054688 766.46358887 76.86109375 765.92717773 77.3046875 765.37451172 C84.10963048 756.94308426 91.59780508 749.21898311 99.25 741.5625 C99.95764999 740.85335449 99.95764999 740.85335449 100.67959595 740.12988281 C106.27842092 734.53239683 111.9805802 729.14083436 118 724 C119.04838609 723.07462582 120.09533451 722.14761951 121.140625 721.21875 C130.25770348 713.20934029 139.86809198 705.93680202 149.63574219 698.74267578 C151.74436203 697.18842873 153.84619075 695.62562765 155.9453125 694.05859375 C163.41457625 688.50398915 171.03727939 683.2064155 178.73803711 677.97827148 C184.26430779 674.21654297 189.71573649 670.36541771 195.125 666.4375 C195.86379395 665.9017334 196.60258789 665.3659668 197.36376953 664.81396484 C198.84270445 663.74117744 200.32154626 662.66826166 201.80029297 661.59521484 C217.90248387 649.91799894 234.02009032 639.56824744 252 631 C252.93312012 630.55205078 253.86624023 630.10410156 254.82763672 629.64257812 C383.33039192 568.17675334 383.33039192 568.17675334 447.82861328 589.84790039 C480.3123592 601.3246049 511.50954061 617.9554443 541.7996521 634.23968506 C547.08583694 637.07099993 552.44889814 639.69968221 557.875 642.25 C559.88045204 643.19870376 561.88565196 644.1479406 563.890625 645.09765625 C564.90447266 645.57734863 565.91832031 646.05704102 566.96289062 646.55126953 C569.89676665 647.9507567 572.81727954 649.3745049 575.734375 650.80859375 C618.74561628 671.88864618 664.51884359 692.83418625 712.25 699.8125 C713.517229 699.99848755 713.517229 699.99848755 714.81005859 700.18823242 C737.71901966 703.27905169 757.96922958 697.69359636 776.61328125 684.09375 C782.42325903 679.57178962 787.80955003 674.58849779 793.203125 669.5859375 C796.7405762 666.31527731 800.35338205 663.14760707 804 660 C805.0132062 659.10958589 806.0262091 658.21894041 807.0390625 657.328125 C819.56699054 646.37274023 832.56717716 636.34115359 847 628 C847.63534668 627.62166016 848.27069336 627.24332031 848.92529297 626.85351562 C893.60220938 600.28481552 945.9066144 590.69660648 997 586 C997.95366455 585.90501221 998.9073291 585.81002441 999.88989258 585.7121582 C1046.5479784 581.33709968 1092.76813159 589.65878022 1135 610 C1136.03543945 610.495 1136.03543945 610.495 1137.09179688 611 C1179.25439011 631.26971618 1220.96655874 662.24779858 1249.94921875 699.390625 C1251.8543471 701.81467402 1253.84216675 704.14464187 1255.86743164 706.46850586 C1302.65638673 760.41254397 1331.44671368 829.90685322 1342 900 C1342.33 900 1342.66 900 1343 900 C1343 604.32 1343 308.64 1343 4 C901.13 4 459.26 4 4 4 Z M1342 980 C1341.90501221 980.60658447 1341.81002441 981.21316895 1341.7121582 981.83813477 C1328.37916809 1066.21182829 1292.52119851 1142.19522164 1248.17285156 1214.45703125 C1246.36777446 1217.39830827 1244.56928513 1220.34354693 1242.77281189 1223.29008484 C1235.85992529 1234.62520831 1228.90375483 1245.90338807 1221.43310547 1256.88037109 C1218.98904946 1260.49524235 1216.58202214 1264.13474709 1214.16772461 1267.76953125 C1208.12522357 1276.86236362 1202.03816932 1285.91929783 1195.828125 1294.8984375 C1193.06670385 1298.89355832 1190.33681007 1302.90979685 1187.60693359 1306.92651367 C1177.41150403 1321.92398796 1167.00081424 1336.76545916 1156.53393555 1351.57421875 C1150.32563201 1360.36154522 1144.16523655 1369.18243431 1138 1378 C1130.7430515 1388.37893997 1123.48272856 1398.75512902 1116.16943359 1409.09448242 C1115.28535224 1410.34467109 1114.40749858 1411.5992934 1113.53675842 1412.85881042 C1112.51934557 1414.27638768 1111.4542735 1415.66103244 1110.34339905 1417.00662231 C1104.49343958 1424.44119505 1102.70810264 1432.22015039 1100.7421875 1441.234375 C1100.36274803 1442.89270049 1099.98126633 1444.55055978 1099.59794617 1446.20799255 C1098.55161093 1450.75743121 1097.53284034 1455.31265408 1096.51878738 1459.86938095 C1095.42624068 1464.75796828 1094.30971823 1469.64107209 1093.19506836 1474.5246582 C1091.73825157 1480.91397975 1090.28432216 1487.30391606 1088.84074402 1493.69624329 C1085.24976773 1509.58814111 1081.57544937 1525.4594103 1077.86073065 1541.32271278 C1076.71212297 1546.228183 1075.56646169 1551.13433325 1074.4229126 1556.04098511 C1074.26084839 1556.73635647 1074.09878419 1557.43172784 1073.93180895 1558.14817107 C1073.11401367 1561.65764376 1072.29659188 1565.16720329 1071.47938538 1568.67681313 C1069.87533744 1575.56417167 1068.26712694 1582.45050374 1066.64910889 1589.33459473 C1059.74205308 1618.73859527 1053.21368438 1647.97744228 1049.27494431 1677.9403801 C1048.83077781 1681.26765089 1048.35185815 1684.58957122 1047.87524414 1687.91235352 C1046.79312797 1695.49880857 1045.76295711 1703.09153047 1044.75 1710.6875 C1044.65823612 1711.37381248 1044.56647224 1712.06012497 1044.47192764 1712.7672348 C1032.45039958 1802.69972067 1023.21773303 1892.9585667 1011.28991699 2009.44888306 C1011.20921849 2010.23744476 1011.12851998 2011.02600645 1011.04537606 2011.83846396 C1010.96471516 2012.62665859 1010.88405427 2013.41485321 1010.8009491 2014.22693253 C1010.72033422 2015.01467701 1010.63971935 2015.8024215 1010.55666161 2016.61403704 C1010.39389823 2018.20457125 1010.23114417 2019.79510641 1010.06839943 2021.38564253 C1005.1068393 2069.87554718 1000.08849446 2118.35544358 994.48779297 2166.77655029 C994.07675306 2170.33142011 993.66889377 2173.8866468 993.26199532 2177.44199276 C984.90301276 2250.46451875 975.15501035 2323.38471215 840 2820 C839.50419434 2821.093125 839.00838867 2822.18625 838.49755859 2823.3125 C824.80645605 2853.37790725 810.33653187 2883.27718495 794 2912 C793.43007324 2913.00562988 792.86014648 2914.01125977 792.27294922 2915.04736328 C775.82549666 2943.99959527 758.50270119 2972.43787044 739.51855469 2999.80224609 C738.05575565 3001.9193067 736.60725999 3004.04532281 735.1640625 3006.17578125 C729.19366346 3014.97415222 722.95191536 3023.52491432 716.52050781 3031.99121094 C714.99166666 3034.01100943 713.47444342 3036.03900263 711.9609375 3038.0703125 C698.54446324 3056.07435538 684.58241087 3073.64395164 669.8984375 3090.6328125 C667.98988727 3092.84224305 666.09944181 3095.06494183 664.2265625 3097.3046875 C658.1812596 3104.53356525 651.92236461 3111.51368955 645.49072266 3118.40039062 C643.04368461 3121.02616745 640.61435175 3123.66807422 638.1875 3126.3125 C637.72947998 3126.81040039 637.27145996 3127.30830078 636.79956055 3127.82128906 C634.24642759 3130.60584771 631.75902858 3133.43423109 629.3125 3136.3125 C625.84521547 3140.283231 622.06003207 3143.64606046 618 3147 C617.04480469 3147.81597656 616.08960938 3148.63195313 615.10546875 3149.47265625 C606.38801745 3156.77898143 597.0657381 3163.06257328 587.57904053 3169.30718994 C579.10549011 3174.88649791 570.82131119 3180.5259003 563 3187 C562.24332031 3187.61746094 561.48664062 3188.23492188 560.70703125 3188.87109375 C556.71479418 3192.23416025 553.33903247 3195.85272466 549.96875 3199.82910156 C548.02429385 3201.97321169 545.99957846 3203.82468643 543.8125 3205.71875 C536.00252941 3212.67853932 528.73508554 3220.19664512 521.375 3227.625 C518.46914158 3230.55768173 515.55982363 3233.48686939 512.6484375 3236.4140625 C511.99926361 3237.07153473 511.35008972 3237.72900696 510.6812439 3238.40640259 C506.84446353 3242.26337038 502.88773461 3245.91269044 498.769104 3249.46694946 C496.75405698 3251.21312658 494.80995828 3253.02060911 492.88671875 3254.8671875 C492.2023877 3255.52025879 491.51805664 3256.17333008 490.81298828 3256.84619141 C490.11157715 3257.51569824 489.41016602 3258.18520508 488.6875 3258.875 C463.70875978 3282.48666416 430.48345964 3310.31646124 394 3310 C378.08254339 3309.23269696 365.47612188 3304.09487187 353 3294 C352.34386719 3293.484375 351.68773437 3292.96875 351.01171875 3292.4375 C324.53450246 3270.83303083 307.49887952 3232.50675795 295.8125 3201.0625 C292.65447152 3192.6694126 288.27156203 3186.55428102 282.47949219 3179.79101562 C221.53147486 3106.0097194 197.92797929 2998.07533944 149.27734375 2582.87109375 C149.23283585 2581.75082291 149.18832794 2580.63055206 149.14247131 2579.47633362 C148.3162005 2557.39419888 147.85046963 2535.29670233 147.4609375 2513.203125 C147.43937717 2511.98027487 147.41781685 2510.75742474 147.39560318 2509.49751854 C146.91096241 2481.27229574 146.84604698 2453.04974056 146.87143087 2424.82103437 C146.87626521 2418.82665529 146.8713549 2412.83229679 146.86619568 2406.83791828 C146.82675026 2352.85803115 147.67081226 2298.90912338 149.16022491 2244.94966125 C149.25261481 2241.5924857 149.34355215 2238.23527301 149.43426514 2234.87805176 C150.77444077 2185.46895932 152.47227507 2136.0719544 154.20487571 2086.67532909 C154.28582365 2084.36697053 154.36666496 2082.05860827 154.44748116 2079.75024509 C154.87677054 2067.4934462 154.87677054 2067.4934462 155.05964279 2062.3602314 C155.31036763 2055.32012411 155.5553957 2048.27991117 155.78983172 2041.23924038 C155.90079108 2037.9170701 156.01453456 2034.59507333 156.13377142 2031.27318531 C157.06391241 2005.21116048 157.16798616 1979.16402627 157.14129756 1953.08740526 C157.13787792 1949.50884591 157.13611883 1945.93028861 157.13464797 1942.35172796 C157.10789865 1891.20065852 156.57102764 1840.05959936 155.88722014 1788.91367817 C155.79073632 1781.68498801 155.69696665 1774.45626404 155.60372353 1767.22753143 C155.29343205 1743.19211944 154.97741759 1719.15679367 154.65323897 1695.12156489 C154.63610517 1693.85119946 154.61897137 1692.58083402 154.60131836 1691.27197266 C154.5841616 1689.99999613 154.56700484 1688.72801959 154.54932819 1687.41749832 C154.26794391 1666.52834342 154.00122732 1645.63902816 153.74062594 1624.74960461 C153.4700578 1603.07454815 153.18885592 1581.39965235 152.89646322 1559.72487903 C152.73368786 1547.64256056 152.57522327 1535.56022269 152.42836571 1523.47769928 C152.30428077 1513.27519118 152.17034785 1503.07287211 152.02348538 1492.8706654 C151.94904596 1487.67998644 151.87920997 1482.4893546 151.8218689 1477.29845619 C151.76928894 1472.54896963 151.70344191 1467.7998572 151.62710349 1463.05069479 C151.60186276 1461.33652042 151.58143382 1459.62226681 151.5663785 1457.90797272 C151.48747249 1449.22809435 151.27436877 1441.18078037 148 1433 C147.57759033 1431.89986572 147.15518066 1430.79973145 146.7199707 1429.66625977 C146.29288818 1428.68455811 145.86580566 1427.70285645 145.42578125 1426.69140625 C144.93182861 1425.55131104 144.43787598 1424.41121582 143.92895508 1423.23657227 C143.39053269 1422.01170737 142.85170116 1420.78702226 142.3125 1419.5625 C141.73778282 1418.24735445 141.16315969 1416.93216779 140.58862305 1415.61694336 C133.59340761 1399.65381519 126.30042254 1383.82517815 119 1368 C118.26885758 1366.41423569 117.53773802 1364.82846085 116.80664062 1363.24267578 C114.93826795 1359.19066821 113.06880586 1355.13916427 111.19897461 1351.08782959 C110.05604008 1348.61100085 108.91372657 1346.13388637 107.77148438 1343.65673828 C104.49558508 1336.55493933 101.21684184 1329.45475879 97.90249634 1322.37080383 C88.86815735 1303.05189017 80.29148015 1283.56065042 71.9375 1263.9375 C71.45004303 1262.79336639 70.96258606 1261.64923279 70.46035767 1260.47042847 C38.01003208 1184.20554307 11.29316103 1105.15067902 5 1022 C4.67 1022 4.34 1022 4 1022 C4 1995.5 4 2969 4 3972 C445.87 3972 887.74 3972 1343 3972 C1343 2984.64 1343 1997.28 1343 980 C1342.67 980 1342.34 980 1342 980 Z " fill="#FDFDFD" transform="translate(0,0)"/>
<path d="M0 0 C293.04 0 586.08 0 888 0 C886.76009165 6.19954175 885.50170843 12.36694945 884.08203125 18.5234375 C883.90410034 19.29891937 883.72616943 20.07440125 883.54284668 20.87338257 C882.96798473 23.37436851 882.39048841 25.87473488 881.8125 28.375 C881.61369232 29.23726196 881.41488464 30.09952393 881.21005249 30.98791504 C878.42188864 43.06944669 875.50841385 55.109407 872.4543457 67.12670898 C870.21530002 75.99254995 868.20754703 84.89816188 866.26000977 93.83203125 C864.79492539 100.52077329 863.24032551 107.1783996 861.59667969 113.82543945 C858.03231782 128.24219375 854.84432966 142.72574582 851.75 157.25 C851.53549194 158.25260864 851.32098389 159.25521729 851.09997559 160.28820801 C848.49414818 172.48924099 846.06196262 184.69510756 844 197 C843.74089844 198.52343018 843.74089844 198.52343018 843.4765625 200.07763672 C840.4012138 218.35353708 837.85392416 236.70608669 835.39257812 255.07275391 C835.12246443 257.08684794 834.85158768 259.10083975 834.58007812 261.11474609 C829.01982993 302.36560964 824.25966143 343.68106577 819.74928093 385.05800247 C818.73170877 394.39277506 817.70246419 403.72538272 816.6015625 413.05078125 C816.50100052 413.9040802 816.40043854 414.75737915 816.29682922 415.63653564 C816.19960068 416.46143494 816.10237213 417.28633423 816.00219727 418.13623047 C812.88563895 444.59048135 810.39992608 471.11080795 807.85327148 497.62475586 C807.5248561 501.04153083 807.19617461 504.45828003 806.8671875 507.875 C806.78692762 508.70866089 806.70666775 509.54232178 806.62397575 510.40124512 C805.39136364 523.18212047 804.0693135 535.9505158 802.67919922 548.71533203 C802.02124297 554.76451664 801.39836717 560.81683396 800.7890625 566.87109375 C800.69380783 567.81669159 800.59855316 568.76228943 800.50041199 569.73654175 C800.30758562 571.65243411 800.11487297 573.56833792 799.92227173 575.48425293 C797.96946876 594.88438114 795.90313308 614.2690452 793.69970703 633.64233398 C792.60068663 643.34219408 791.59740115 653.04478583 790.69084167 662.7645874 C790.10362636 669.02401885 789.41661649 675.26293461 788.625 681.5 C787.4679976 690.87519862 786.42448547 700.25941215 785.42990112 709.65289307 C781.75160708 744.32045553 777.59122722 778.91713747 772.51855469 813.40869141 C771.77505148 818.55790619 771.09780113 823.71454869 770.4375 828.875 C769.31978845 837.56637569 768.17693406 846.25392123 767 854.9375 C766.7688147 856.67845947 766.7688147 856.67845947 766.53295898 858.45458984 C765.69666009 864.58339782 764.71759403 870.66161501 763.54296875 876.734375 C761.9970168 884.73738434 760.81885681 892.77540001 759.66696167 900.84307861 C757.17840478 918.18006069 754.17186914 935.38396575 750.8984375 952.58837891 C750.55970282 954.3700805 750.22115852 956.15181831 749.8828125 957.93359375 C749.71888 958.79688293 749.55494751 959.66017212 749.38604736 960.54962158 C747.90344129 968.40992697 746.58805676 976.29109815 745.3125 984.1875 C743.44835192 995.62165082 741.26602604 1006.9420005 738.80566406 1018.26171875 C738.01926157 1021.91062629 737.24835084 1025.56245909 736.48152161 1029.21551514 C732.48078711 1048.26991892 728.33923063 1067.24257438 723.4921875 1086.1015625 C722.1501141 1091.33682748 720.9470227 1096.59134949 719.8125 1101.875 C718.4673438 1108.1147574 716.85998092 1114.2328651 715.0546875 1120.35546875 C713.86380209 1124.47063943 712.76829507 1128.60485344 711.6875 1132.75 C711.26187126 1134.3737379 710.83608383 1135.99743421 710.41015625 1137.62109375 C709.67470123 1140.425706 708.93976557 1143.23044765 708.20654297 1146.03564453 C704.5389492 1160.02651803 700.57497077 1173.85007086 696.09423828 1187.60058594 C694.79879378 1191.62507707 693.53632816 1195.65929661 692.27734375 1199.6953125 C668.3532756 1276.31638058 638.75178539 1350.85259002 589 1446 C588.39333496 1447.07910645 587.78666992 1448.15821289 587.16162109 1449.27001953 C571.03235168 1477.90458964 554.15213972 1506.16262675 535.31347656 1533.10986328 C533.9849543 1535.02165127 532.67369891 1536.94420701 531.3671875 1538.87109375 C517.16974964 1559.78364143 501.86749505 1579.9468399 485.8515625 1599.49609375 C483.68277215 1602.14785002 481.57109279 1604.83335064 479.5 1607.5625 C475.83278858 1612.33352381 471.85228731 1616.82894611 467.8918457 1621.35620117 C464.73832016 1624.96763467 461.6700422 1628.61963016 458.6875 1632.375 C453.40929742 1638.90201946 447.57675429 1644.90540752 441.796875 1650.984375 C438.88983325 1654.04486763 436.0457307 1657.14944702 433.25 1660.3125 C421.12309734 1673.8404274 407.89892656 1684.54042892 392.75048828 1694.52368164 C383.5219698 1700.60562308 374.4336908 1706.84146305 366 1714 C365.34 1713.67 364.68 1713.34 364 1713 C365.60823415 1710.10517852 367.21650592 1707.21037802 368.82495117 1704.31567383 C370.20359017 1701.83422328 371.5812553 1699.35223531 372.95825195 1696.86987305 C378.87373482 1686.20892583 378.87373482 1686.20892583 381.80078125 1681.04296875 C387.01754549 1671.81403098 391.84983083 1662.43385744 396.54858398 1652.93041992 C399.15125981 1647.67147765 401.79803717 1642.45072352 404.58447266 1637.28686523 C412.33138675 1622.9175891 419.09785919 1608.0577532 425.95715332 1593.2510376 C426.97917097 1591.04496053 428.00272234 1588.83959974 429.02636719 1586.63427734 C451.00350935 1539.23755186 471.14146083 1491.03012238 490.08648682 1442.34661865 C490.99559659 1440.0113114 491.90658629 1437.67674441 492.81787109 1435.34228516 C516.02736629 1375.83360718 537.21833937 1315.58969743 557.43455124 1255.00597382 C558.23503817 1252.60733279 559.03633375 1250.20896297 559.837677 1247.81060791 C566.14558661 1228.91941308 572.27152132 1209.98672943 578.09973145 1190.9414978 C579.28285025 1187.07582755 580.47681157 1183.21355254 581.671875 1179.3515625 C582.02354736 1178.21283691 582.37521973 1177.07411133 582.73754883 1175.90087891 C587.97282729 1158.96165383 587.97282729 1158.96165383 590.8125 1150.625 C592.74700249 1144.91329943 594.33134165 1139.16040741 595.84375 1133.32421875 C597.52608308 1126.9286101 599.4294248 1120.5951893 601.29248047 1114.25048828 C603.48065776 1106.79486455 605.61705797 1099.32598566 607.73217773 1091.84936523 C609.26598549 1086.46510835 610.88706065 1081.11430646 612.55517578 1075.77026367 C615.93298864 1064.92555902 618.81862483 1054.01543704 621.51538086 1042.98217773 C623.03838492 1036.7722819 624.62438891 1030.6126142 626.5 1024.5 C630.17920102 1012.47533171 633.00017135 1000.20726162 636 988 C638.06708778 979.62600555 640.18647438 971.26742328 642.3535614 962.91877747 C648.06501594 940.91176061 653.31941678 918.84107147 658.19970703 896.63378906 C659.00182585 892.99170958 659.8110052 889.35125176 660.62109375 885.7109375 C662.27988894 878.23302479 663.90622073 870.74848188 665.51428223 863.25952148 C665.83981439 861.74517106 666.16623981 860.2310124 666.49353027 858.71704102 C672.04323294 833.04173131 676.81953552 807.25264007 681.3125 781.375 C681.44061947 780.63833225 681.56873894 779.90166451 681.70074081 779.14267349 C685.00719831 760.12536879 688.15290156 741.09245485 691 722 C689.48732544 721.91552612 689.48732544 721.91552612 687.9440918 721.8293457 C679.19757938 721.32857062 670.6614009 720.34726171 662 719 C661.90130615 719.85988525 661.8026123 720.71977051 661.70092773 721.60571289 C660.14735029 734.60055844 658.13180035 747.51594291 656.0625 760.4375 C655.87013763 761.64054779 655.67777527 762.84359558 655.47958374 764.08309937 C652.40346667 783.22095883 648.99421489 802.28216891 645.3125 821.3125 C645.09079132 822.46273651 644.86908264 823.61297302 644.64065552 824.79806519 C641.5740106 840.64844208 638.1799479 856.41104358 634.63424683 872.16055298 C633.83208658 875.75172825 633.0631202 879.34855645 632.3046875 882.94921875 C628.42605714 901.28819237 623.96959963 919.45796524 619.35107422 937.6237793 C616.65899763 948.23147803 614.08639279 958.85263643 611.68952942 969.53114319 C610.25732439 975.90553243 608.74131415 982.24798074 607.0625 988.5625 C606.81435547 989.50681885 606.56621094 990.4511377 606.31054688 991.42407227 C604.39613723 998.65193312 602.33955148 1005.83478193 600.25024414 1013.01367188 C598.33535339 1019.65877274 596.64266341 1026.34547569 595 1033.0625 C592.82117305 1041.93670257 590.37972413 1050.68008247 587.69921875 1059.4140625 C585.5583563 1066.40003469 583.53314553 1073.41963489 581.5 1080.4375 C581.10425325 1081.80127104 580.70850131 1083.16504058 580.31274414 1084.52880859 C578.68455231 1090.14486844 577.06084147 1095.76197957 575.4765625 1101.390625 C570.79516253 1118.01945224 565.68743781 1134.5183985 560.60656738 1151.02856445 C560.04807296 1152.84375561 559.49031058 1154.65917195 558.93261719 1156.47460938 C556.09252927 1165.71683414 553.22435732 1174.95027662 550.35546875 1184.18359375 C549.98035156 1185.39144531 549.60523438 1186.59929687 549.21875 1187.84375 C548.88810547 1188.90787109 548.55746094 1189.97199219 548.21679688 1191.06835938 C547.50981921 1193.34446024 546.8103778 1195.62259224 546.1159668 1197.90257263 C543.80778956 1205.46311796 541.3855899 1212.97709424 538.875 1220.47265625 C538.30011841 1222.19538254 538.30011841 1222.19538254 537.71362305 1223.95291138 C536.47729452 1227.65662602 535.23878652 1231.35960682 534 1235.0625 C532.48508455 1239.59419694 530.97095377 1244.12615617 529.45672607 1248.65808296 C528.81457688 1250.57972241 528.17218616 1252.50128102 527.52978516 1254.4228363 C525.25580964 1261.22784074 522.99179729 1268.03589184 520.75 1274.8515625 C495.60436936 1351.23791745 467.0852976 1426.54061106 376.84594727 1629.31030273 C375.29727113 1632.40177964 373.7621528 1635.49969318 372.234375 1638.6015625 C348.25930982 1687.17614206 320.27788351 1734.91540572 286 1777 C285.55930176 1777.5451123 285.11860352 1778.09022461 284.66455078 1778.65185547 C268.00545129 1799.12426567 244.69695072 1826.98180626 216.67578125 1830.40625 C207.66148738 1830.65751952 201.57235937 1828.87037807 194 1824 C193.35675781 1823.60167969 192.71351563 1823.20335938 192.05078125 1822.79296875 C176.0327692 1811.03149137 168.15796804 1785.23176411 163 1767 C162.80486816 1766.31260742 162.60973633 1765.62521484 162.40869141 1764.91699219 C153.01925385 1730.84351518 150.34363704 1695.23136877 147.35614014 1660.16583252 C146.98050335 1655.76233206 146.59809446 1651.35942887 146.21533203 1646.95654297 C139.89127217 1574.13168408 134.2161134 1501.25363813 129.05021 1428.33772182 C128.81151454 1424.97016498 128.57167836 1421.60268975 128.3318119 1418.23521614 C128.16960317 1415.94917942 128.00943508 1413.66300631 127.84941101 1411.3768158 C127.29424041 1403.36867732 127.29424041 1403.36867732 126.48364258 1395.38354492 C125.75899014 1389.27411009 125.4630064 1383.13147281 125.09765625 1376.9921875 C125.01440827 1375.62198618 124.93094278 1374.25179805 124.84727478 1372.88162231 C124.62746334 1369.27367506 124.41022739 1365.66557761 124.19366455 1362.05743408 C123.85294027 1356.38815626 123.50826049 1350.71911654 123.16390419 1345.05005836 C123.07773934 1343.6309954 122.99166905 1342.2119267 122.90569115 1340.7928524 C122.21303204 1329.36436903 121.48533802 1317.93850127 120.74230957 1306.51316833 C119.8552882 1292.84117383 119.02162643 1279.16601188 118.18773651 1265.49069214 C117.02465205 1246.422484 115.8384926 1227.35664718 114.5619812 1208.29562378 C113.45871322 1191.80026394 112.52906609 1175.30641746 111.76464844 1158.79199219 C111.20664993 1146.81153653 110.53070924 1134.84138498 109.81173706 1122.86959839 C108.32463033 1098.02623986 107.10234323 1073.17268815 105.9375 1048.3125 C105.89425724 1047.3898233 105.85101448 1046.46714661 105.80646133 1045.51651001 C104.65341341 1020.87942391 103.53720872 996.24118416 102.59545898 971.5949707 C102.56114777 970.70854385 102.52683655 969.822117 102.4914856 968.90882874 C102.4314028 967.34829296 102.37268382 965.78770323 102.31613159 964.22703552 C102.14843424 959.86035911 101.9116445 955.50134481 101.64078045 951.13977146 C101.11017021 942.5464061 100.7662755 933.9625244 100.55444336 925.35572243 C100.49789179 923.05890721 100.43778385 920.76220555 100.37695312 918.46549988 C100.248229 913.58124359 100.12396778 908.69687893 100 903.8125 C99.83612678 897.38143613 99.66993763 890.95043784 99.5 884.51953125 C99.4795204 883.74050005 99.45904079 882.96146885 99.4379406 882.15883064 C99.20085901 873.22112107 98.91640369 864.2896425 98.47265625 855.359375 C96.38824057 813.06936932 96.85754473 770.55718519 96.76882935 728.228302 C96.75791936 723.15116615 96.74026427 718.07413028 96.71627808 712.99703979 C96.6007901 687.30425581 96.77614428 661.70117321 98.37890625 636.05078125 C98.44085426 635.05351013 98.50280228 634.05623901 98.5666275 633.02874756 C99.58351844 617.09608424 101.25423935 601.30489662 103.68041992 585.5222168 C104.08380068 582.76235164 104.08380068 582.76235164 104 579 C100.25008738 578.0204985 96.50005481 577.04145696 92.75 576.0625 C91.68652344 575.78470703 90.62304688 575.50691406 89.52734375 575.22070312 C88.50253906 574.95322266 87.47773438 574.68574219 86.421875 574.41015625 C85.47924805 574.16402588 84.53662109 573.91789551 83.56542969 573.66430664 C81.37956602 573.09828694 79.19158097 572.54338582 77 572 C68.82078705 620.78523467 68.67874722 670.11278328 68.79940361 719.42930466 C68.81092639 724.36116216 68.81514782 729.29298323 68.81469727 734.22485352 C68.81077373 783.24331674 69.16977247 832.26063225 71 881.25 C71.18086167 886.30329898 71.35816307 891.35672047 71.53515625 896.41015625 C71.57753922 897.60788162 71.61992218 898.80560699 71.66358948 900.03962708 C71.9722102 908.86955953 72.19862309 917.69907172 72.38980103 926.53216553 C72.94108985 951.44280197 74.23946867 976.32757186 75.43531704 1001.21373081 C75.91538226 1011.20438627 76.38631023 1021.1954535 76.85473824 1031.18666077 C79.97295867 1101.77569935 79.97295867 1101.77569935 84.23535156 1172.29956055 C85.03907856 1183.86167775 85.60112145 1195.43491882 86.18826294 1207.00967407 C87.41286851 1231.12853991 88.90549814 1255.2175397 90.58496094 1279.30883789 C91.58161727 1293.63301539 92.48830363 1307.95571274 93.23852539 1322.29483032 C93.76793213 1332.38191951 94.46176832 1342.44355033 95.31860352 1352.50830078 C95.93154843 1359.79123982 96.36318435 1367.07036101 96.65844727 1374.37304688 C96.81184643 1377.99185481 97.04069643 1381.56374078 97.4765625 1385.16015625 C98.14760337 1390.8686082 98.39859798 1396.59548791 98.70004272 1402.33322144 C99.52370435 1417.74541686 100.67839434 1433.12261222 101.93881226 1448.50445557 C103.16284617 1463.44490743 104.34076903 1478.38768701 105.46484375 1493.3359375 C108.74943578 1536.93734813 112.24978069 1580.51697965 115.97737885 1624.08272934 C116.31034779 1627.97484258 116.64266087 1631.86701143 116.97491455 1635.75918579 C117.50227036 1641.93201303 118.0321517 1648.10461861 118.56414223 1654.27704811 C118.75984185 1656.54908661 118.95504106 1658.82116828 119.14967918 1661.09329796 C120.11135987 1672.30588204 121.07725829 1683.51193282 122.39770222 1694.68914795 C122.97616665 1699.82054422 123.07052313 1704.83537761 123 1710 C65.29923501 1638.56095763 42.56664164 1535.69406911 18.76953125 1395.4453125 C18.25364733 1391.74780985 17.70604542 1388.05682607 17.13671875 1384.3671875 C11.74080822 1348.89538469 8.33230158 1313.10511713 5.1875 1277.375 C5.08245148 1276.19024078 4.97740295 1275.00548157 4.86917114 1273.78482056 C3.80351717 1261.68867248 2.8106708 1249.60614017 2.33183289 1237.47055054 C2.16215751 1233.35128882 1.79698633 1229.33714521 1.25013733 1225.24645996 C0.70016488 1220.30720883 0.5474831 1215.33345137 0.31640625 1210.37109375 C0.22671318 1208.51448875 0.22671318 1208.51448875 0.13520813 1206.62037659 C-0.02591539 1203.25912002 -0.18397313 1199.89775246 -0.33994293 1196.53625488 C-0.43800858 1194.42655883 -0.53709003 1192.31691257 -0.63641357 1190.20727539 C-1.56368691 1170.47521111 -2.4046972 1150.74082673 -3.125 1131 C-3.16333954 1129.96197235 -3.20167908 1128.9239447 -3.24118042 1127.85446167 C-4.45907016 1094.56691233 -5.1643111 1061.2964815 -5.19987273 1027.98697042 C-5.20320224 1025.17700119 -5.2080268 1022.36703798 -5.21326637 1019.55707169 C-5.23748159 1006.37946932 -5.2466495 993.20189194 -5.24918985 980.0242691 C-5.25000212 976.86674457 -5.25147054 973.70922097 -5.25312424 970.55169678 C-5.28054608 915.01923385 -5.01911861 859.5151104 -3.5625 804 C-3.51184135 802.06076786 -3.51184135 802.06076786 -3.4601593 800.08235931 C-2.35057124 757.97725627 -2.35057124 757.97725627 -1.33886051 738.09548187 C-0.95641346 730.52636442 -0.76888869 722.95799649 -0.61157227 715.38137817 C-0.28460349 699.93068021 0.28919255 684.49997482 1 669.0625 C1.7554097 652.64946044 2.32590534 636.24386119 2.65820312 619.81665039 C2.82524338 611.78335005 3.08950584 603.76489638 3.48168945 595.73925781 C3.99446374 584.79183688 4.3186983 573.8475258 4.5390625 562.890625 C4.55951252 561.88592415 4.57996254 560.8812233 4.60103226 559.84607697 C5.19328512 529.99120571 5.33213887 500.13353039 5.37149429 470.27370262 C5.37502278 467.73359941 5.37933196 465.1934984 5.38375854 462.65339661 C5.47646449 405.96850804 4.81045328 349.30079511 3.8828125 292.625 C3.86930407 291.79939847 3.85579565 290.97379693 3.84187788 290.12317717 C3.23753787 253.23696133 2.5883318 216.35156128 1.91257014 179.46658984 C1.80872057 173.79421102 1.70582073 168.12181556 1.60347176 162.44940948 C1.58914559 161.65596011 1.57481943 160.86251074 1.56005914 160.04501745 C1.44412402 153.62393183 1.44412402 153.62393183 1.38823099 150.52149576 C1.23867945 142.22497326 1.08665759 133.92851528 0.92587662 125.63220215 C0.89809448 124.18936675 0.87031681 122.74653126 0.84254372 121.30369568 C0.79269296 118.7157738 0.74180886 116.12788051 0.69015491 113.53999329 C-0.04104559 75.67720028 0 37.88366452 0 0 Z " fill="#FDFDFD" transform="translate(181,1449)"/>
<path d="M0 0 C444.51 0 889.02 0 1347 0 C1347 1312.08 1347 2624.16 1347 3976 C902.49 3976 457.98 3976 0 3976 C0 2663.92 0 1351.84 0 0 Z M4 4 C4 319.48 4 634.96 4 960 C4.33 960 4.66 960 5 960 C5.08451416 959.11779785 5.16902832 958.2355957 5.25610352 957.32666016 C12.0214111 888.59255284 31.88014865 821.30724758 76 767 C76.43054688 766.46358887 76.86109375 765.92717773 77.3046875 765.37451172 C84.10963048 756.94308426 91.59780508 749.21898311 99.25 741.5625 C99.95764999 740.85335449 99.95764999 740.85335449 100.67959595 740.12988281 C106.27842092 734.53239683 111.9805802 729.14083436 118 724 C119.04838609 723.07462582 120.09533451 722.14761951 121.140625 721.21875 C130.25770348 713.20934029 139.86809198 705.93680202 149.63574219 698.74267578 C151.74436203 697.18842873 153.84619075 695.62562765 155.9453125 694.05859375 C163.41457625 688.50398915 171.03727939 683.2064155 178.73803711 677.97827148 C184.26430779 674.21654297 189.71573649 670.36541771 195.125 666.4375 C195.86379395 665.9017334 196.60258789 665.3659668 197.36376953 664.81396484 C198.84270445 663.74117744 200.32154626 662.66826166 201.80029297 661.59521484 C217.90248387 649.91799894 234.02009032 639.56824744 252 631 C252.93312012 630.55205078 253.86624023 630.10410156 254.82763672 629.64257812 C383.33039192 568.17675334 383.33039192 568.17675334 447.82861328 589.84790039 C480.3123592 601.3246049 511.50954061 617.9554443 541.7996521 634.23968506 C547.08583694 637.07099993 552.44889814 639.69968221 557.875 642.25 C559.88045204 643.19870376 561.88565196 644.1479406 563.890625 645.09765625 C564.90447266 645.57734863 565.91832031 646.05704102 566.96289062 646.55126953 C569.89676665 647.9507567 572.81727954 649.3745049 575.734375 650.80859375 C618.74561628 671.88864618 664.51884359 692.83418625 712.25 699.8125 C713.517229 699.99848755 713.517229 699.99848755 714.81005859 700.18823242 C737.71901966 703.27905169 757.96922958 697.69359636 776.61328125 684.09375 C782.42325903 679.57178962 787.80955003 674.58849779 793.203125 669.5859375 C796.7405762 666.31527731 800.35338205 663.14760707 804 660 C805.0132062 659.10958589 806.0262091 658.21894041 807.0390625 657.328125 C819.56699054 646.37274023 832.56717716 636.34115359 847 628 C847.63534668 627.62166016 848.27069336 627.24332031 848.92529297 626.85351562 C893.60220938 600.28481552 945.9066144 590.69660648 997 586 C997.95366455 585.90501221 998.9073291 585.81002441 999.88989258 585.7121582 C1046.5479784 581.33709968 1092.76813159 589.65878022 1135 610 C1136.03543945 610.495 1136.03543945 610.495 1137.09179688 611 C1179.25439011 631.26971618 1220.96655874 662.24779858 1249.94921875 699.390625 C1251.8543471 701.81467402 1253.84216675 704.14464187 1255.86743164 706.46850586 C1302.65638673 760.41254397 1331.44671368 829.90685322 1342 900 C1342.33 900 1342.66 900 1343 900 C1343 604.32 1343 308.64 1343 4 C901.13 4 459.26 4 4 4 Z M327 630 C325.96697754 630.4031543 324.93395508 630.80630859 323.86962891 631.22167969 C309.65583105 636.79132906 295.69471179 642.84510614 281.8125 649.1875 C281.08936615 649.51734894 280.3662323 649.84719788 279.6211853 650.18704224 C259.89442179 659.0348689 259.89442179 659.0348689 241.125 669.6875 C240.47901855 670.09701904 239.83303711 670.50653809 239.16748047 670.9284668 C230.86609073 676.26790957 222.94965452 682.15688395 215 688 C212.08787114 690.13128434 209.17098326 692.255868 206.25 694.375 C205.51869873 694.90585205 204.78739746 695.4367041 204.03393555 695.98364258 C198.0822553 700.27719433 192.02075085 704.39584043 185.9375 708.5 C173.3280373 717.02532421 161.26814453 726.16313539 149.5546875 735.8828125 C147.75904699 737.37094271 145.95051707 738.84358982 144.1328125 740.3046875 C139.3904353 744.12172281 134.87794898 747.96921831 130.6484375 752.34765625 C128.97991743 754.02013016 127.24075093 755.53696493 125.4375 757.0625 C115.33970566 765.80475385 106.20272507 775.47026072 98 786 C97.12142527 787.08986059 96.24113138 788.17833692 95.359375 789.265625 C67.77506239 823.46823179 52.13406307 864.57745262 42 907 C41.80809082 907.79067871 41.61618164 908.58135742 41.41845703 909.39599609 C40.03374041 915.22684355 38.95442303 921.08430557 38 927 C37.72494629 928.68053467 37.72494629 928.68053467 37.44433594 930.39501953 C30.73612831 973.43083889 32.22342665 1018.0860336 39 1061 C39.15388184 1062.01658691 39.30776367 1063.03317383 39.46630859 1064.08056641 C41.89948028 1080.04368553 45.18207948 1095.69273546 49 1111.375 C49.31372559 1112.67455627 49.31372559 1112.67455627 49.63378906 1114.00036621 C51.97853743 1123.66786646 54.57083574 1133.14625236 57.81811523 1142.55029297 C58.93959267 1145.82368197 59.97183346 1149.10987643 60.97265625 1152.421875 C77.3995682 1206.30805693 99.98650492 1258.59002409 124.26708984 1309.33789062 C127.37352729 1315.87049086 130.33399571 1322.47089499 133.3125 1329.0625 C137.31811268 1337.92448315 141.34728665 1346.7737568 145.453125 1355.58984375 C153.55303039 1372.9952464 161.46857831 1390.43781428 168.84985352 1408.16210938 C169.12531006 1408.8222403 169.4007666 1409.48237122 169.68457031 1410.1625061 C170.42173803 1411.93243369 171.15451434 1413.70418849 171.88696289 1415.47607422 C172.77001945 1417.8905761 172.77001945 1417.8905761 174 1419 C175.96726863 1419.09820109 177.93813083 1419.1244715 179.90784889 1419.1241985 C181.2030385 1419.12644579 182.49822811 1419.12869308 183.83266589 1419.13100848 C185.29174945 1419.12844216 186.75083286 1419.12578522 188.20991611 1419.12304783 C189.7493779 1419.12378656 191.28883953 1419.12496417 192.82830068 1419.12654433 C197.09801923 1419.12963416 201.36771423 1419.12642111 205.63743103 1419.12226619 C210.2676086 1419.1188496 214.89778364 1419.12119941 219.52796167 1419.12284368 C227.65591952 1419.12492361 235.78387008 1419.12326315 243.91182709 1419.11920547 C255.99794091 1419.11318848 268.08405009 1419.11286799 280.17016514 1419.11374746 C300.49759564 1419.11506367 320.82502291 1419.11171123 341.15245247 1419.10573006 C361.28931761 1419.09982009 381.42618141 1419.09596554 401.56304741 1419.09487724 C402.81346346 1419.0948085 404.06387952 1419.09473976 405.35218697 1419.09466894 C411.70199852 1419.09433062 418.05181008 1419.09402923 424.40162163 1419.09374207 C469.41822074 1419.0916397 514.434818 1419.08489768 559.45141602 1419.07543945 C570.36814371 1419.07314784 581.28487141 1419.07087249 592.20159912 1419.06866455 C592.87863586 1419.0685276 593.5556726 1419.06839065 594.2532256 1419.06824955 C625.71431509 1419.06190799 657.17540473 1419.0581807 688.63649469 1419.05512976 C690.67843291 1419.05493169 692.72037112 1419.0547325 694.76230934 1419.05453308 C708.29409645 1419.05321332 721.82588356 1419.05193867 735.35767067 1419.05069422 C762.9253317 1419.04815855 790.4929927 1419.04533651 818.06065369 1419.04234314 C819.32826741 1419.04220585 820.59588112 1419.04206856 821.90190738 1419.04192711 C906.60127232 1419.03272102 991.30063628 1419.01687519 1076 1419 C1076.40672408 1418.06967563 1076.40672408 1418.06967563 1076.82166481 1417.12055683 C1077.17922544 1416.30816642 1077.53678608 1415.495776 1077.90518188 1414.6587677 C1078.25883127 1413.85292645 1078.61248066 1413.04708521 1078.97684669 1412.21682453 C1080.10237623 1409.77818559 1081.39472031 1407.63011131 1082.9609375 1405.44921875 C1083.50766113 1404.67876221 1084.05438477 1403.90830566 1084.61767578 1403.11450195 C1085.48755127 1401.91313599 1085.48755127 1401.91313599 1086.375 1400.6875 C1087.63043313 1398.92463924 1088.88563486 1397.16161366 1090.140625 1395.3984375 C1090.78064453 1394.50479492 1091.42066406 1393.61115234 1092.08007812 1392.69042969 C1095.12729605 1388.4202947 1098.12386297 1384.11507797 1101.125 1379.8125 C1105.88716732 1373.00422286 1110.67007646 1366.21092114 1115.46582031 1359.42626953 C1121.07585409 1351.48520192 1126.64610235 1343.51634681 1132.21777344 1335.54833984 C1134.56276712 1332.19532011 1136.90920065 1328.84330965 1139.25585938 1325.49145508 C1140.41623399 1323.83389308 1141.57639116 1322.17617884 1142.73632812 1320.51831055 C1145.72372326 1316.2488669 1148.71451483 1311.98186366 1151.7109375 1307.71875 C1152.32453125 1306.84476563 1152.938125 1305.97078125 1153.5703125 1305.0703125 C1154.72280814 1303.42887932 1155.87634892 1301.78817913 1157.03125 1300.1484375 C1160.74618493 1294.85420656 1164.35138837 1289.49366884 1167.92919922 1284.10595703 C1171.37305624 1278.94057753 1174.87711432 1273.81637284 1178.375 1268.6875 C1184.63618907 1259.49284555 1190.88127617 1250.29015902 1197 1241 C1197.46760742 1240.29230469 1197.93521484 1239.58460938 1198.41699219 1238.85546875 C1215.84147714 1212.44314424 1232.45859197 1185.38695073 1247.58789062 1157.58886719 C1248.59747296 1155.73796624 1249.61240111 1153.88997716 1250.63085938 1152.04394531 C1279.30495934 1100.02639105 1302.38563499 1044.89769119 1312 986 C1312.13849869 985.15564392 1312.27699738 984.31128784 1312.41969299 983.44134521 C1314.72168761 969.06038479 1315.52820007 954.99063255 1315.4375 940.4375 C1315.43445862 939.39406433 1315.43141724 938.35062866 1315.42828369 937.27557373 C1315.35494661 920.18738149 1314.33162716 903.79630186 1311 887 C1310.80696289 885.96568848 1310.61392578 884.93137695 1310.41503906 883.86572266 C1305.16494747 856.25748239 1295.79047013 828.77447042 1283.29833984 803.62158203 C1282.0304215 801.06142649 1280.80244285 798.48542353 1279.58203125 795.90234375 C1259.2017714 753.29626903 1227.57984159 711.23687242 1191 681 C1190.46600586 680.55221191 1189.93201172 680.10442383 1189.38183594 679.64306641 C1162.82634937 657.40941076 1133.61122125 638.93260115 1101 627 C1100.14116211 626.68401855 1099.28232422 626.36803711 1098.39746094 626.04248047 C1085.79792754 621.46829184 1073.22901628 618.15135057 1060 616 C1058.99855957 615.82412354 1057.99711914 615.64824707 1056.96533203 615.46704102 C1046.87920182 613.83048174 1036.94213336 613.56308875 1026.75 613.5625 C1025.85324554 613.56043549 1024.95649109 613.55837097 1024.03256226 613.5562439 C1009.67349596 613.56208869 995.56003802 614.55571455 981.3125 616.3125 C980.44516235 616.41909943 979.57782471 616.52569885 978.6842041 616.63552856 C926.4018153 623.20102984 874.97983209 638.69632073 834 673 C833.42975098 673.47405273 832.85950195 673.94810547 832.27197266 674.43652344 C825.60500863 679.99820923 819.14402679 685.74747117 812.8125 691.6875 C807.07831071 697.0639949 801.18918268 702.14732199 795 707 C794.06929687 707.74894531 793.13859375 708.49789062 792.1796875 709.26953125 C783.12574901 716.35574711 773.44732474 721.87985518 762.76025391 726.11401367 C761.86674225 726.46880295 760.97323059 726.82359222 760.05264282 727.18913269 C759.37527069 727.4567189 758.69789856 727.72430511 758 728 C757.81295469 738.70804337 757.64996513 749.41637826 757.5 760.125 C757.48812275 760.97235088 757.4762455 761.81970177 757.46400833 762.69272995 C756.91920434 802.14861725 756.91500823 841.60377083 756.9375 881.0625 C756.93792423 881.82861508 756.93834846 882.59473017 756.93878555 883.38406086 C756.9499741 903.2560548 756.97137174 923.12802315 757 943 C747.43 943 737.86 943 728 943 C728 873.37 728 803.74 728 732 C714.03615417 729.99596672 714.03615417 729.99596672 700.0625 728.0625 C693.87432532 727.09041126 687.99237815 725.40475016 682.00537109 723.58740234 C679.90462932 722.97206454 677.79451418 722.41334139 675.67578125 721.86328125 C627.8772032 709.23919949 581.93456811 686.79447403 538.00390625 664.51757812 C534.55246668 662.77390547 531.0929389 661.04665295 527.6328125 659.3203125 C522.22984931 656.62415062 516.83773824 653.90745245 511.45288086 651.17530823 C445.19422933 617.56749682 398.23648325 601.94821312 327 630 Z M1342 980 C1341.90501221 980.60658447 1341.81002441 981.21316895 1341.7121582 981.83813477 C1328.37916809 1066.21182829 1292.52119851 1142.19522164 1248.17285156 1214.45703125 C1246.36777446 1217.39830827 1244.56928513 1220.34354693 1242.77281189 1223.29008484 C1235.85992529 1234.62520831 1228.90375483 1245.90338807 1221.43310547 1256.88037109 C1218.98904946 1260.49524235 1216.58202214 1264.13474709 1214.16772461 1267.76953125 C1208.12522357 1276.86236362 1202.03816932 1285.91929783 1195.828125 1294.8984375 C1193.06670385 1298.89355832 1190.33681007 1302.90979685 1187.60693359 1306.92651367 C1177.41150403 1321.92398796 1167.00081424 1336.76545916 1156.53393555 1351.57421875 C1150.32563201 1360.36154522 1144.16523655 1369.18243431 1138 1378 C1130.7430515 1388.37893997 1123.48272856 1398.75512902 1116.16943359 1409.09448242 C1115.28535224 1410.34467109 1114.40749858 1411.5992934 1113.53675842 1412.85881042 C1112.51934557 1414.27638768 1111.4542735 1415.66103244 1110.34339905 1417.00662231 C1104.49343958 1424.44119505 1102.70810264 1432.22015039 1100.7421875 1441.234375 C1100.36274803 1442.89270049 1099.98126633 1444.55055978 1099.59794617 1446.20799255 C1098.55161093 1450.75743121 1097.53284034 1455.31265408 1096.51878738 1459.86938095 C1095.42624068 1464.75796828 1094.30971823 1469.64107209 1093.19506836 1474.5246582 C1091.73825157 1480.91397975 1090.28432216 1487.30391606 1088.84074402 1493.69624329 C1085.24976773 1509.58814111 1081.57544937 1525.4594103 1077.86073065 1541.32271278 C1076.71212297 1546.228183 1075.56646169 1551.13433325 1074.4229126 1556.04098511 C1074.26084839 1556.73635647 1074.09878419 1557.43172784 1073.93180895 1558.14817107 C1073.11401367 1561.65764376 1072.29659188 1565.16720329 1071.47938538 1568.67681313 C1069.87533744 1575.56417167 1068.26712694 1582.45050374 1066.64910889 1589.33459473 C1059.74205308 1618.73859527 1053.21368438 1647.97744228 1049.27494431 1677.9403801 C1048.83077781 1681.26765089 1048.35185815 1684.58957122 1047.87524414 1687.91235352 C1046.79312797 1695.49880857 1045.76295711 1703.09153047 1044.75 1710.6875 C1044.65823612 1711.37381248 1044.56647224 1712.06012497 1044.47192764 1712.7672348 C1032.45039958 1802.69972067 1023.21773303 1892.9585667 1011.28991699 2009.44888306 C1011.20921849 2010.23744476 1011.12851998 2011.02600645 1011.04537606 2011.83846396 C1010.96471516 2012.62665859 1010.88405427 2013.41485321 1010.8009491 2014.22693253 C1010.72033422 2015.01467701 1010.63971935 2015.8024215 1010.55666161 2016.61403704 C1010.39389823 2018.20457125 1010.23114417 2019.79510641 1010.06839943 2021.38564253 C1005.1068393 2069.87554718 1000.08849446 2118.35544358 994.48779297 2166.77655029 C994.07675306 2170.33142011 993.66889377 2173.8866468 993.26199532 2177.44199276 C984.90301276 2250.46451875 975.15501035 2323.38471215 840 2820 C839.50419434 2821.093125 839.00838867 2822.18625 838.49755859 2823.3125 C824.80645605 2853.37790725 810.33653187 2883.27718495 794 2912 C793.43007324 2913.00562988 792.86014648 2914.01125977 792.27294922 2915.04736328 C775.82549666 2943.99959527 758.50270119 2972.43787044 739.51855469 2999.80224609 C738.05575565 3001.9193067 736.60725999 3004.04532281 735.1640625 3006.17578125 C729.19366346 3014.97415222 722.95191536 3023.52491432 716.52050781 3031.99121094 C714.99166666 3034.01100943 713.47444342 3036.03900263 711.9609375 3038.0703125 C698.54446324 3056.07435538 684.58241087 3073.64395164 669.8984375 3090.6328125 C667.98988727 3092.84224305 666.09944181 3095.06494183 664.2265625 3097.3046875 C658.1812596 3104.53356525 651.92236461 3111.51368955 645.49072266 3118.40039062 C643.04368461 3121.02616745 640.61435175 3123.66807422 638.1875 3126.3125 C637.72947998 3126.81040039 637.27145996 3127.30830078 636.79956055 3127.82128906 C634.24642759 3130.60584771 631.75902858 3133.43423109 629.3125 3136.3125 C625.84521547 3140.283231 622.06003207 3143.64606046 618 3147 C617.04480469 3147.81597656 616.08960938 3148.63195313 615.10546875 3149.47265625 C606.38801745 3156.77898143 597.0657381 3163.06257328 587.57904053 3169.30718994 C579.10549011 3174.88649791 570.82131119 3180.5259003 563 3187 C562.24332031 3187.61746094 561.48664062 3188.23492188 560.70703125 3188.87109375 C556.71479418 3192.23416025 553.33903247 3195.85272466 549.96875 3199.82910156 C548.02429385 3201.97321169 545.99957846 3203.82468643 543.8125 3205.71875 C536.00252941 3212.67853932 528.73508554 3220.19664512 521.375 3227.625 C518.46914158 3230.55768173 515.55982363 3233.48686939 512.6484375 3236.4140625 C511.99926361 3237.07153473 511.35008972 3237.72900696 510.6812439 3238.40640259 C506.84446353 3242.26337038 502.88773461 3245.91269044 498.769104 3249.46694946 C496.75405698 3251.21312658 494.80995828 3253.02060911 492.88671875 3254.8671875 C492.2023877 3255.52025879 491.51805664 3256.17333008 490.81298828 3256.84619141 C490.11157715 3257.51569824 489.41016602 3258.18520508 488.6875 3258.875 C463.70875978 3282.48666416 430.48345964 3310.31646124 394 3310 C378.08254339 3309.23269696 365.47612188 3304.09487187 353 3294 C352.34386719 3293.484375 351.68773437 3292.96875 351.01171875 3292.4375 C324.53450246 3270.83303083 307.49887952 3232.50675795 295.8125 3201.0625 C292.65447152 3192.6694126 288.27156203 3186.55428102 282.47949219 3179.79101562 C221.53147486 3106.0097194 197.92797929 2998.07533944 149.27734375 2582.87109375 C149.23283585 2581.75082291 149.18832794 2580.63055206 149.14247131 2579.47633362 C148.3162005 2557.39419888 147.85046963 2535.29670233 147.4609375 2513.203125 C147.43937717 2511.98027487 147.41781685 2510.75742474 147.39560318 2509.49751854 C146.91096241 2481.27229574 146.84604698 2453.04974056 146.87143087 2424.82103437 C146.87626521 2418.82665529 146.8713549 2412.83229679 146.86619568 2406.83791828 C146.82675026 2352.85803115 147.67081226 2298.90912338 149.16022491 2244.94966125 C149.25261481 2241.5924857 149.34355215 2238.23527301 149.43426514 2234.87805176 C150.77444077 2185.46895932 152.47227507 2136.0719544 154.20487571 2086.67532909 C154.28582365 2084.36697053 154.36666496 2082.05860827 154.44748116 2079.75024509 C154.87677054 2067.4934462 154.87677054 2067.4934462 155.05964279 2062.3602314 C155.31036763 2055.32012411 155.5553957 2048.27991117 155.78983172 2041.23924038 C155.90079108 2037.9170701 156.01453456 2034.59507333 156.13377142 2031.27318531 C157.06391241 2005.21116048 157.16798616 1979.16402627 157.14129756 1953.08740526 C157.13787792 1949.50884591 157.13611883 1945.93028861 157.13464797 1942.35172796 C157.10789865 1891.20065852 156.57102764 1840.05959936 155.88722014 1788.91367817 C155.79073632 1781.68498801 155.69696665 1774.45626404 155.60372353 1767.22753143 C155.29343205 1743.19211944 154.97741759 1719.15679367 154.65323897 1695.12156489 C154.63610517 1693.85119946 154.61897137 1692.58083402 154.60131836 1691.27197266 C154.5841616 1689.99999613 154.56700484 1688.72801959 154.54932819 1687.41749832 C154.26794391 1666.52834342 154.00122732 1645.63902816 153.74062594 1624.74960461 C153.4700578 1603.07454815 153.18885592 1581.39965235 152.89646322 1559.72487903 C152.73368786 1547.64256056 152.57522327 1535.56022269 152.42836571 1523.47769928 C152.30428077 1513.27519118 152.17034785 1503.07287211 152.02348538 1492.8706654 C151.94904596 1487.67998644 151.87920997 1482.4893546 151.8218689 1477.29845619 C151.76928894 1472.54896963 151.70344191 1467.7998572 151.62710349 1463.05069479 C151.60186276 1461.33652042 151.58143382 1459.62226681 151.5663785 1457.90797272 C151.48747249 1449.22809435 151.27436877 1441.18078037 148 1433 C147.57759033 1431.89986572 147.15518066 1430.79973145 146.7199707 1429.66625977 C146.29288818 1428.68455811 145.86580566 1427.70285645 145.42578125 1426.69140625 C144.93182861 1425.55131104 144.43787598 1424.41121582 143.92895508 1423.23657227 C143.39053269 1422.01170737 142.85170116 1420.78702226 142.3125 1419.5625 C141.73778282 1418.24735445 141.16315969 1416.93216779 140.58862305 1415.61694336 C133.59340761 1399.65381519 126.30042254 1383.82517815 119 1368 C118.26885758 1366.41423569 117.53773802 1364.82846085 116.80664062 1363.24267578 C114.93826795 1359.19066821 113.06880586 1355.13916427 111.19897461 1351.08782959 C110.05604008 1348.61100085 108.91372657 1346.13388637 107.77148438 1343.65673828 C104.49558508 1336.55493933 101.21684184 1329.45475879 97.90249634 1322.37080383 C88.86815735 1303.05189017 80.29148015 1283.56065042 71.9375 1263.9375 C71.45004303 1262.79336639 70.96258606 1261.64923279 70.46035767 1260.47042847 C38.01003208 1184.20554307 11.29316103 1105.15067902 5 1022 C4.67 1022 4.34 1022 4 1022 C4 1995.5 4 2969 4 3972 C445.87 3972 887.74 3972 1343 3972 C1343 2984.64 1343 1997.28 1343 980 C1342.67 980 1342.34 980 1342 980 Z M181 1449 C180.9912985 1507.58442983 180.9912985 1507.58442983 181.76223755 1566.15136719 C181.80305921 1568.25334245 181.84353752 1570.35532416 181.88399849 1572.45730639 C181.91179953 1573.90112366 181.93968933 1575.34493923 181.96767017 1576.78875303 C182.12950894 1585.1552572 182.28014428 1593.52196157 182.43087769 1601.88867188 C182.48838539 1605.07558484 182.5459303 1608.26249713 182.60347176 1611.44940948 C182.61784593 1612.24605814 182.63222011 1613.0427068 182.64702987 1613.86349633 C182.74967162 1619.54788571 182.85331461 1625.23225627 182.95745659 1630.91661835 C183.63328334 1667.81883204 184.27900099 1704.72153434 184.8828125 1741.625 C184.89633288 1742.45105094 184.90985327 1743.27710189 184.92378336 1744.12818468 C185.85024748 1800.82271486 186.47811504 1857.508873 186.37929916 1914.21232033 C186.37502716 1916.73396888 186.37151813 1919.25561749 186.36819458 1921.77726746 C186.32655769 1951.81795086 186.15041144 1981.85530921 185.5390625 2011.890625 C185.52011303 2012.83282646 185.50116356 2013.77502792 185.48163986 2014.74578094 C185.25693757 2025.53609374 184.87751743 2036.31085795 184.36448097 2047.09127808 C183.98077416 2055.18966205 183.71807998 2063.28610366 183.5 2071.390625 C183.45921937 2072.84064383 183.41819716 2074.29065589 183.37695312 2075.74066162 C183.22773664 2081.00175581 183.08209186 2086.26294675 182.9375 2091.52416992 C182.79440707 2096.72973432 182.64920154 2101.93523186 182.5 2107.140625 C182.47954117 2107.85534784 182.45908234 2108.57007069 182.43800354 2109.3064518 C182.18983027 2117.86762672 181.87059157 2126.41650755 181.34094238 2134.9651947 C180.82724165 2143.40668085 180.6806079 2151.85853129 180.5 2160.3125 C180.28918078 2170.11559359 180.02935093 2179.90685049 179.52954102 2189.69995117 C178.49521562 2210.78682044 177.98703163 2231.89597387 177.4375 2253 C177.40355259 2254.30296272 177.36960518 2255.60592545 177.33462906 2256.94837189 C175.94798849 2310.67926609 175.69167607 2364.40589215 175.68858719 2418.152771 C175.68813888 2423.2889283 175.68459874 2428.42507781 175.68005747 2433.56123292 C175.63973809 2480.61343116 176.00041107 2527.58135218 177.86787605 2574.60032845 C178.14817504 2581.81268098 178.39852002 2589.02614406 178.65388203 2596.23941422 C179.34193103 2615.6021098 180.13890212 2634.95960589 181.0625 2654.3125 C181.10270264 2655.17075378 181.14290527 2656.02900757 181.18432617 2656.91326904 C181.29772755 2659.31346178 181.41558141 2661.71338903 181.53515625 2664.11328125 C181.56738785 2664.80030624 181.59961945 2665.48733124 181.63282776 2666.19517517 C181.80216686 2669.47912519 182.07112202 2672.72221139 182.50634766 2675.97973633 C183.04240687 2680.04923636 183.21391382 2684.11194151 183.36328125 2688.2109375 C184.03988839 2703.53601097 185.55664267 2718.80947602 186.95476913 2734.08197021 C187.18969348 2736.648968 187.42333547 2739.21608046 187.65689087 2741.78320312 C190.17966179 2769.44382251 193.07080128 2797.0327943 196.68292236 2824.57513428 C196.98633241 2826.89547646 197.28488008 2829.21638428 197.58154297 2831.53759766 C199.33296084 2845.20870137 201.37789037 2858.76008498 204.07421875 2872.27734375 C204.93232552 2876.58874341 205.67493664 2880.91052427 206.375 2885.25 C214.04958608 2932.02868356 223.74890004 2978.66246996 238.87939453 3023.64697266 C240.01427278 3027.04270639 241.11786255 3030.44732009 242.21484375 3033.85546875 C256.42078844 3077.72069981 275.32607046 3121.82451491 303 3159 C303.33 3159 303.66 3159 304 3159 C304.06780656 3153.16961887 303.87482496 3147.50699754 303.2590332 3141.71240234 C303.18068174 3140.93686634 303.10233028 3140.16133034 303.02160454 3139.36229324 C302.85243623 3137.68858305 302.68147184 3136.01505359 302.50887108 3134.34169388 C302.03653363 3129.749486 301.58184316 3125.15553571 301.12744141 3120.56152344 C301.03279571 3119.60574465 300.93815001 3118.64996586 300.84063625 3117.66522408 C299.2007071 3100.98962688 297.83084009 3084.28903668 296.43558121 3067.59154129 C296.18212361 3064.56070941 295.92763408 3061.52996553 295.67294312 3058.49923706 C292.39576992 3019.47067354 289.357193 2980.4251796 286.39927101 2941.37129021 C285.45002936 2928.83957038 284.4804073 2916.30964654 283.48828125 2903.78125 C283.36953271 2902.27888646 283.2508038 2900.77652137 283.13209534 2899.27415466 C282.69384179 2893.73102923 282.25531677 2888.18793293 281.8109436 2882.64529419 C280.81879814 2870.26889884 279.83644355 2857.90446697 279.33499146 2845.49671936 C279.14625954 2841.02219238 278.7595386 2836.61459459 278.23657227 2832.16700745 C277.87972603 2828.89828766 277.7066581 2825.62684532 277.53515625 2822.34375 C277.45640203 2820.8919259 277.37762517 2819.44010303 277.29882812 2817.98828125 C277.18169081 2815.77397702 277.0656007 2813.5596227 276.95043945 2811.34521484 C276.4615241 2802.022946 275.83139796 2792.72479016 275.0546875 2783.421875 C273.89109239 2769.36063519 273.09658357 2755.28158943 272.31097412 2741.19549561 C271.88584441 2733.57519091 271.44939877 2725.95553023 271.01171875 2718.3359375 C270.96848732 2717.58232059 270.92525589 2716.82870369 270.88071442 2716.05224991 C270.12031245 2702.82129585 269.27989862 2689.5969029 268.375 2676.375 C266.60514193 2650.41834175 265.13783491 2624.45823941 263.94009399 2598.46896362 C263.46496101 2588.18933279 262.95313289 2577.91347304 262.34765625 2567.640625 C262.28991028 2566.66010162 262.23216431 2565.67957825 262.17266846 2564.66934204 C262.05203774 2562.62349356 261.93139125 2560.577646 261.81072998 2558.53179932 C260.07922173 2529.10184915 258.75484069 2499.65581907 257.44580078 2470.20458984 C257.32534669 2467.49732777 257.20489232 2464.79006572 257.08443642 2462.08280373 C257.00465347 2460.28679091 256.9250728 2458.49076909 256.84569359 2456.69473839 C256.41490545 2446.95249597 255.96801467 2437.21154334 255.47143555 2427.47241211 C254.36641331 2405.75906574 253.53220633 2384.05852553 252.99383545 2362.3237915 C252.84189313 2356.22486286 252.68171788 2350.12614561 252.52136421 2344.0274334 C252.4681595 2341.97553205 252.41746052 2339.92356618 252.3669281 2337.87159729 C252.17912488 2330.54569118 251.93482059 2323.224942 251.6385231 2315.90255928 C251.05499961 2301.44059704 250.689008 2286.98323188 250.44921875 2272.51171875 C250.42840429 2271.28886358 250.40758984 2270.06600842 250.38614464 2268.80609703 C249.89838238 2239.58067835 249.81221862 2210.35675787 249.81488883 2181.12788665 C249.8145816 2176.18459996 249.80628225 2171.2413666 249.79418945 2166.2980957 C249.61233793 2090.13581524 249.61233793 2090.13581524 253.75 2053.05444336 C254.01158262 2050.70862966 254.25664376 2048.36144169 254.5 2046.01367188 C255.38658334 2037.62126623 256.474344 2029.30488411 258 2021 C267.08671955 2023.07666328 276.11326481 2025.16555224 285 2028 C284.71048341 2030.83356662 284.41838818 2033.6668335 284.125 2036.5 C284.00705078 2037.65822266 284.00705078 2037.65822266 283.88671875 2038.83984375 C283.48908261 2042.66326819 283.07023524 2046.4783217 282.55728149 2050.28833008 C281.01353021 2061.79834823 280.11262252 2073.31784659 279.390625 2084.90625 C279.32507668 2085.95355789 279.25952835 2087.00086578 279.19199371 2088.07991028 C277.61798377 2113.95450204 277.61085317 2139.80666506 277.73369598 2165.71955872 C277.75592276 2170.87332045 277.76707008 2176.02708651 277.77860069 2181.1808815 C277.90139132 2234.67703769 278.61704911 2288.09754248 280.65896606 2341.5586853 C281.00138476 2350.67956748 281.24137422 2359.80076684 281.44720459 2368.92559814 C281.73961024 2381.79922154 282.25068459 2394.63742377 283.00250244 2407.49264526 C283.92518697 2423.37354005 284.56026046 2439.26407585 285.1902771 2455.15859985 C286.29954244 2483.12932187 287.53529829 2511.09124059 288.93384552 2539.04906845 C289.06022464 2541.57944263 289.18570569 2544.10985992 289.31097412 2546.64028931 C290.17550743 2564.06875024 291.12762482 2581.48506952 292.28543091 2598.89671326 C293.07030711 2610.79419841 293.67774388 2622.69779869 294.26123047 2634.6065979 C295.21902936 2654.06420936 296.3003582 2673.50402244 297.68722534 2692.9357605 C298.77545933 2708.19990246 299.6650622 2723.4700259 300.5 2738.75 C301.41011054 2755.37936231 302.45316319 2771.98651373 303.75588989 2788.5897522 C304.57226263 2798.99665186 305.27905095 2809.39816725 305.82629395 2819.82269287 C306.62942848 2835.09591368 307.79297239 2850.32387202 309.0690918 2865.56445312 C310.56722344 2883.46915837 311.95226732 2901.38075953 313.27898407 2919.29883957 C313.49264225 2922.1814666 313.70723597 2925.06402367 313.92184639 2927.94657993 C314.89654799 2941.03953636 315.86644193 2954.1327916 316.81367493 2967.22776794 C319.50670768 3004.36943047 322.60316133 3041.47332984 325.78845596 3078.5757637 C326.12175147 3082.46212081 326.45376158 3086.34858591 326.78549194 3090.2350769 C327.31644217 3096.4504601 327.85182567 3102.66544756 328.3904438 3108.88017082 C328.58921466 3111.17913354 328.78681532 3113.47819782 328.9830761 3115.77737617 C330.88412706 3138.01555182 333.08442572 3160.23460931 336.8125 3182.25 C336.93972443 3183.00828094 337.06694885 3183.76656189 337.19802856 3184.54782104 C342.02536367 3213.08285922 349.93624299 3253.30628905 374 3272.5 C375.31062513 3273.36861038 376.64434818 3274.20348862 378 3275 C378.99386719 3275.61488281 378.99386719 3275.61488281 380.0078125 3276.2421875 C387.43274565 3280.21493771 395.87242737 3280.20569079 403.95703125 3278.3046875 C414.9347972 3274.56690739 424.27006747 3268.52869381 433 3261 C433.75410156 3260.35675781 434.50820313 3259.71351562 435.28515625 3259.05078125 C447.12481878 3248.67378154 458.37987399 3237.47053372 468 3225 C469.06374224 3223.66297781 470.12896981 3222.32713662 471.1953125 3220.9921875 C479.660529 3210.33416684 487.47648318 3199.33810589 495 3188 C495.5995752 3187.10120117 496.19915039 3186.20240234 496.81689453 3185.27636719 C506.02197247 3171.45076692 514.69294874 3157.38093907 523 3143 C523.98299997 3141.3124575 524.96607175 3139.62495684 525.94921875 3137.9375 C533.73638292 3124.50230253 541.06426082 3110.82819796 548.34326172 3097.11376953 C549.74147307 3094.48589043 551.14960879 3091.86397652 552.56640625 3089.24609375 C557.69155914 3079.74581035 562.38405363 3070.06540315 567 3060.30859375 C569.05308845 3055.97301009 571.13891471 3051.65529335 573.25 3047.34765625 C582.22215758 3029.01717798 590.63911211 3010.47714943 598.79229736 2991.76898193 C600.06448021 2988.85216183 601.34050716 2985.93704065 602.61669922 2983.02197266 C633.72620406 2911.86866095 661.70124417 2839.3692277 706.66918945 2709.0602417 C708.81651897 2702.53464959 710.99882607 2696.02095204 713.18359375 2689.5078125 C720.08383124 2668.92332828 726.95658872 2648.34650042 733.28515625 2627.578125 C734.67427615 2623.0219936 736.14823731 2618.50749821 737.6875 2614 C739.90317666 2607.47396262 741.77257556 2600.87102151 743.63183594 2594.23706055 C745.42672051 2587.87932459 747.39111879 2581.59326367 749.4375 2575.3125 C752.38287703 2566.22889233 754.92851593 2557.07109621 757.36816406 2547.84008789 C760.15047418 2537.33460324 763.1918411 2526.91254437 766.26708984 2516.48974609 C767.8820272 2511.00369306 769.44373185 2505.50291941 771 2500 C771.24717773 2499.13391113 771.49435547 2498.26782227 771.74902344 2497.37548828 C775.34023585 2484.78529262 778.75239287 2472.17532718 781.87060547 2459.45947266 C783.27846624 2453.75937636 784.79309905 2448.11746705 786.5 2442.5 C791.14170561 2427.17040253 794.70017986 2411.53242939 798.18237305 2395.90576172 C799.42585325 2390.373584 800.80893615 2384.90387804 802.3125 2379.4375 C805.32087184 2368.40112861 807.60266087 2357.19820518 809.98754883 2346.01489258 C811.9050123 2337.02940722 813.88660532 2328.06690098 816 2319.125 C823.12957399 2288.63630467 828.8396846 2257.87547564 834 2227 C834.18900879 2225.87005615 834.37801758 2224.7401123 834.57275391 2223.57592773 C836.03864153 2214.80241929 837.49111837 2206.02674317 838.9375 2197.25 C839.14108124 2196.01894531 839.34466248 2194.78789062 839.55441284 2193.51953125 C840.13226923 2190.0187997 840.70556782 2186.51735418 841.27734375 2183.015625 C841.45197144 2181.96022522 841.62659912 2180.90482544 841.80651855 2179.81744385 C841.96438843 2178.84418152 842.1222583 2177.87091919 842.28491211 2176.86816406 C842.42368271 2176.02062561 842.56245331 2175.17308716 842.70542908 2174.29986572 C843.08469597 2171.72517754 843.08469597 2171.72517754 843 2168 C843.70084717 2168.09087891 844.40169434 2168.18175781 845.1237793 2168.27539062 C848.31127556 2168.68685063 851.49937108 2169.09347236 854.6875 2169.5 C856.34168945 2169.71462891 856.34168945 2169.71462891 858.02929688 2169.93359375 C859.09599609 2170.06894531 860.16269531 2170.20429688 861.26171875 2170.34375 C862.24100342 2170.46943359 863.22028809 2170.59511719 864.22924805 2170.72460938 C866.84232089 2170.98432795 869.37635968 2171.05025329 872 2171 C869.84438124 2184.37038128 867.66664077 2197.73705272 865.47454834 2211.10150146 C865.03403207 2213.7921352 864.59591937 2216.48314669 864.15869141 2219.17431641 C857.64165188 2259.20823355 849.67124034 2299.00668766 840.76757812 2338.57666016 C839.98582067 2342.06323873 839.21769039 2345.55258255 838.453125 2349.04296875 C833.50652577 2371.588046 828.04378371 2393.97773143 822.25341797 2416.31884766 C820.18317574 2424.31823751 818.17591146 2432.32434638 816.3125 2440.375 C814.55170225 2447.96384317 812.49138696 2455.43299327 810.30224609 2462.90869141 C808.34336249 2469.65010851 806.60893392 2476.43209692 804.9375 2483.25 C802.74011301 2492.19109189 800.3105065 2501.01737045 797.64746094 2509.82910156 C796.43460276 2513.89574368 795.28408927 2517.98027559 794.125 2522.0625 C791.65746667 2530.73322673 789.14121167 2539.38907384 786.61035156 2548.04150391 C784.44899112 2555.4390884 782.31838149 2562.844976 780.21679688 2570.25976562 C776.17236302 2584.49283225 771.90300615 2598.6440086 767.4375 2612.75 C761.96017807 2630.03615162 761.96017807 2630.03615162 756.70239258 2647.38989258 C750.50855782 2668.23144528 743.51153666 2688.817397 736.625 2709.4375 C735.94579814 2711.47288594 735.26660918 2713.50827619 734.58743286 2715.54367065 C725.03605622 2744.15621138 715.40586159 2772.72824339 705.06799316 2801.06817627 C703.91476803 2804.23397632 702.76711363 2807.40176236 701.62011719 2810.56982422 C683.0244693 2861.88900148 663.15180901 2912.68081747 642 2963 C641.50460724 2964.18030792 641.50460724 2964.18030792 640.99920654 2965.38446045 C626.76857126 2999.27627848 611.71249494 3032.81178932 595.54492188 3065.82470703 C593.54334162 3069.93857441 591.58689386 3074.07307628 589.63085938 3078.20874023 C584.76390875 3088.48733379 579.63298201 3098.58579444 574.26806641 3108.61230469 C572.95773049 3111.07959103 571.66941954 3113.55730499 570.38671875 3116.0390625 C564.94711873 3126.55100292 559.30202288 3136.91767656 553.41479492 3147.18652344 C550.43960826 3152.38695876 547.62137062 3157.61197797 545 3163 C548.51057767 3161.42268689 551.33915895 3159.30960851 554.37890625 3156.9609375 C558.77308491 3153.60932338 563.24138297 3150.416798 567.83984375 3147.3515625 C568.41633163 3146.96726074 568.99281952 3146.58295898 569.58677673 3146.18701172 C570.76726903 3145.4011673 571.94803189 3144.61572916 573.12905884 3143.83068848 C591.42500227 3131.63277537 607.90004191 3118.02379052 622.140625 3101.140625 C624.25237269 3098.70945329 626.44715232 3096.36870646 628.65185547 3094.02197266 C633.86588914 3088.47107311 638.87043214 3082.84705179 643.6328125 3076.8984375 C646.46986941 3073.42468135 649.41876097 3070.05973545 652.375 3066.6875 C657.53958011 3060.7747553 662.45972706 3054.71785576 667.265625 3048.51171875 C669.57944714 3045.52455772 671.94560472 3042.58364945 674.32568359 3039.64916992 C681.25358134 3031.09111167 687.79990486 3022.2747981 694.27392578 3013.37011719 C695.91348558 3011.11879519 697.56290354 3008.87505822 699.21484375 3006.6328125 C707.58755716 2995.21665138 715.43856514 2983.47608935 723.23583984 2971.66162109 C724.70268608 2969.44856302 726.18173684 2967.24550509 727.67578125 2965.05078125 C747.03395938 2936.5805234 763.92278942 2906.41082296 780 2876 C780.52722656 2875.00339355 781.05445313 2874.00678711 781.59765625 2872.97998047 C785.10300916 2866.33935733 788.56486123 2859.67718508 792 2853 C792.44375977 2852.14116211 792.88751953 2851.28232422 793.34472656 2850.39746094 C814.01283469 2810.26981651 831.37523974 2768.31948283 847 2726 C847.41928772 2724.86621918 847.41928772 2724.86621918 847.8470459 2723.70953369 C862.25966679 2684.69310708 875.20827376 2645.17529672 886.3046875 2605.0859375 C887.6418942 2600.26129571 889.02253285 2595.45073526 890.42016602 2590.64331055 C892.85421644 2582.25849859 895.06256672 2573.873805 896.9453125 2565.34765625 C897.79709316 2561.65011267 898.85063497 2558.02474679 899.9140625 2554.3828125 C901.97379031 2547.24681863 903.65662233 2540.06491839 905.25 2532.8125 C905.85641507 2530.07905764 906.46542118 2527.34619381 907.07421875 2524.61328125 C907.23019028 2523.91111481 907.3861618 2523.20894836 907.54685974 2522.48550415 C908.67587621 2517.41453403 909.83943173 2512.35227409 911.01953125 2507.29296875 C915.44992205 2488.26517969 919.42523482 2469.20782999 923 2450 C923.36097549 2448.08798876 923.72195521 2446.17597831 924.08314514 2444.26400757 C926.07137337 2433.72022301 927.95414355 2423.15795677 929.8371582 2412.5949707 C932.8725312 2395.57762475 932.8725312 2395.57762475 934.3203125 2388.11328125 C937.55577295 2371.39497623 940.07030216 2354.59582429 942.50195312 2337.74414062 C943.71536192 2329.37177588 944.93230642 2321.02144587 946.5625 2312.71875 C948.07917956 2304.89090384 949.11253998 2297.04351612 950.07662964 2289.13290405 C950.60076517 2284.83715846 951.14167935 2280.54353397 951.68359375 2276.25 C951.79331009 2275.37965622 951.90302643 2274.50931244 952.0160675 2273.6125946 C952.96508188 2266.14665619 954.03356039 2258.70137771 955.13265991 2251.25631714 C959.77849531 2219.72705217 963.3184408 2188.034693 966.67431641 2156.34521484 C967.52661103 2148.3041586 968.43546436 2140.27396622 969.4375 2132.25 C971.24285058 2117.702189 972.65125096 2103.11007955 974.11108398 2088.52441406 C975.17059488 2077.96596507 976.27844221 2067.41565354 977.46875 2056.87109375 C979.28051001 2040.77807302 980.82390694 2024.66013898 982.375 2008.5402832 C983.64437575 1995.37298905 984.94011837 1982.21500555 986.49609375 1969.078125 C987.62490111 1959.53762096 988.62140048 1949.98923131 989.53515625 1940.42578125 C989.59827374 1939.76558928 989.66139122 1939.1053973 989.72642136 1938.42519951 C990.24067231 1933.03564504 990.74872934 1927.64550977 991.25616455 1922.25531006 C991.57713423 1918.84746517 991.8992458 1915.43973714 992.22422791 1912.03227234 C992.46390972 1909.51690111 992.70122825 1907.00130293 992.93556213 1904.48542786 C993.64088317 1897.09116579 994.52792574 1889.74258898 995.54580688 1882.38627625 C996.25449065 1877.10262283 996.78457567 1871.80423142 997.3125 1866.5 C997.57236464 1863.95176495 997.8327865 1861.4035911 998.09375 1858.85546875 C998.16394852 1858.16813156 998.23414703 1857.48079437 998.30647278 1856.77262878 C1003.41737329 1806.74935904 1009.29751683 1756.83545535 1016 1707 C1016.12610657 1706.06162292 1016.25221313 1705.12324585 1016.38214111 1704.15643311 C1022.37553 1659.63615716 1030.06807769 1615.81802671 1040.53398132 1572.13200378 C1042.21494473 1565.1148107 1043.86126211 1558.0896699 1045.5 1551.0625 C1045.92454468 1549.24613037 1045.92454468 1549.24613037 1046.35766602 1547.39306641 C1047.90491823 1540.75774319 1049.43104145 1534.11821742 1050.93359375 1527.47265625 C1055.10477285 1509.04023553 1059.52745923 1490.69181352 1064.15429688 1472.36865234 C1065.29754245 1467.81481215 1066.41392251 1463.25529519 1067.5 1458.6875 C1067.7990625 1457.43324219 1068.098125 1456.17898438 1068.40625 1454.88671875 C1069.10073296 1452.00144365 1069.10073296 1452.00144365 1069 1449 C775.96 1449 482.92 1449 181 1449 Z " fill="#010101" transform="translate(0,0)"/>
<path d="M0 0 C444.51 0 889.02 0 1347 0 C1347 1312.08 1347 2624.16 1347 3976 C902.49 3976 457.98 3976 0 3976 C0 2663.92 0 1351.84 0 0 Z M4 4 C4 1313.44 4 2622.88 4 3972 C446.2 3972 888.4 3972 1344 3972 C1344 2662.56 1344 1353.12 1344 4 C901.8 4 459.6 4 4 4 Z " fill="#FDFDFD" transform="translate(0,0)"/>
</svg>
