<?xml version="1.0" encoding="UTF-8"?>
<svg version="1.1" xmlns="http://www.w3.org/2000/svg" width="1296" height="3975">
<path d="M0 0 C425.04 0 850.08 0 1288 0 C1288.03738281 210.17648438 1288.07476563 420.35296875 1288.11328125 636.8984375 C1288.14154068 760.90451367 1288.16993155 884.91058914 1288.20215315 1008.91666424 C1288.20339381 1013.69185972 1288.20463243 1018.4670552 1288.20587139 1023.24225068 C1288.20612648 1024.22529218 1288.20638157 1025.20833368 1288.20664439 1026.22116431 C1288.22465178 1095.62355241 1288.24247619 1165.02594056 1288.25993789 1234.42832881 C1288.26160931 1241.07001764 1288.26328498 1247.71170647 1288.26496432 1254.35339531 C1288.29093203 1357.05393528 1288.31447835 1459.75447502 1288.33044434 1562.45501709 C1288.33061433 1563.54744917 1288.33078433 1564.63988125 1288.33095948 1565.76541733 C1288.33660883 1602.09292596 1288.34202671 1638.42043462 1288.34741267 1674.74794329 C1288.35227984 1707.5715678 1288.35723014 1740.3951923 1288.36245441 1773.21881676 C1288.3627118 1774.83627838 1288.3627118 1774.83627838 1288.36297439 1776.486416 C1288.37374487 1844.03322521 1288.3881172 1911.58003293 1288.40612316 1979.12684059 C1288.40640085 1980.17032767 1288.40667854 1981.21381474 1288.40696464 1982.28892264 C1288.41916381 2028.12000467 1288.43211346 2073.95108645 1288.44592086 2119.78216803 C1288.45147254 2138.22142186 1288.45691309 2156.66067572 1288.46229277 2175.0999296 C1288.46318568 2178.15725236 1288.46408219 2181.21457512 1288.46497908 2184.27189788 C1288.47866825 2231.02307949 1288.48988291 2277.77426002 1288.49388909 2324.52544355 C1288.49397549 2325.53322166 1288.49406189 2326.54099977 1288.4941509 2327.57931661 C1288.49552545 2343.79025925 1288.49669309 2360.00120191 1288.49782502 2376.21214457 C1288.50103988 2422.25248036 1288.50565787 2468.29281366 1288.52089059 2514.33314729 C1288.52119922 2515.26805952 1288.52150785 2516.20297175 1288.52182583 2517.16621465 C1288.52859006 2537.56704587 1288.53617061 2557.96787669 1288.54454908 2578.36870731 C1288.54787794 2586.50624757 1288.55109505 2594.64378788 1288.55427551 2602.7813282 C1288.55462535 2603.66898079 1288.55497518 2604.55663338 1288.55533561 2605.47118453 C1288.56636269 2633.5868823 1288.56820345 2661.70257056 1288.56468597 2689.81827 C1288.56125716 2717.52340299 1288.56695035 2745.22851719 1288.58576405 2772.93364454 C1288.58834526 2776.73698458 1288.59082187 2780.54032469 1288.59323552 2784.34366484 C1288.5939502 2785.46043928 1288.5939502 2785.46043928 1288.59467932 2786.59977483 C1288.60188918 2798.28996481 1288.59917826 2809.98012961 1288.59210832 2821.67031879 C1288.58537884 2833.13752545 1288.58968572 2844.60467364 1288.60467001 2856.07187532 C1288.61232955 2862.164519 1288.61550921 2868.25706412 1288.60515601 2874.3497061 C1288.56638867 2898.97234631 1289.03746888 2923.22947283 1291.68030636 2947.72036221 C1292.44489912 2955.56408193 1292.61989226 2963.43682496 1292.75 2971.3125 C1292.7667981 2972.13921204 1292.78359619 2972.96592407 1292.80090332 2973.81768799 C1293.18739141 2993.0648864 1292.84177055 3012.17216439 1290.88719945 3031.34046546 C1288.89989296 3051.02470316 1288.56206876 3070.56811616 1288.59826078 3090.33859102 C1288.60350169 3095.06265247 1288.591107 3099.78667753 1288.58114624 3104.51072693 C1288.56609012 3112.76074255 1288.56185457 3121.01070591 1288.56503928 3129.26073384 C1288.56977544 3141.6870813 1288.55691672 3154.11337172 1288.54096243 3166.53970769 C1288.51467756 3187.37326275 1288.50173239 3208.20680444 1288.49711609 3229.04037476 C1288.49083098 3257.21012805 1288.46588548 3285.37981361 1288.43786621 3313.54956055 C1288.37990484 3381.24136178 1288.34777482 3448.93318314 1288.3125 3516.625 C1288.209375 3667.88875 1288.10625 3819.1525 1288 3975 C862.96 3975 437.92 3975 0 3975 C-0.4375 3545.25 -0.4375 3545.25 -0.56811523 3409.36816406 C-0.61135068 3369.30367969 -0.61135068 3369.30367969 -0.65589905 3329.23919678 C-0.67707367 3310.16197168 -0.69497271 3291.0847462 -0.71129703 3272.00751643 C-0.72801657 3252.56215537 -0.7484157 3233.11680076 -0.77237374 3213.67144726 C-0.78651654 3202.10444047 -0.79797964 3190.53743864 -0.80541687 3178.97042556 C-0.81059389 3171.33544399 -0.81933847 3163.70047194 -0.83100615 3156.06549755 C-0.83755164 3151.71530499 -0.84253037 3147.36512612 -0.84315884 3143.01492834 C-0.84376387 3139.04608534 -0.84895336 3135.07727514 -0.8577199 3131.10844202 C-0.86007423 3129.68518334 -0.86079298 3128.26192072 -0.8596267 3126.83866057 C-0.85384572 3118.49976391 -1.20294769 3110.29950692 -2 3102 C-2.24644524 3097.87695057 -2.40475101 3093.75233435 -2.5625 3089.625 C-2.60568359 3088.6040625 -2.64886719 3087.583125 -2.69335938 3086.53125 C-3.13610329 3075.31507089 -3.18295841 3064.2018995 -2.30186843 3053.0069798 C-0.50382857 3029.84833872 -0.71330926 3006.66585038 -0.735956 2983.45247259 C-0.73957122 2977.67324139 -0.73361339 2971.89402396 -0.7280538 2966.11479544 C-0.71685211 2954.12608118 -0.71496299 2942.13738213 -0.71827881 2930.14866382 C-0.72161053 2917.95301602 -0.72048052 2905.75738015 -0.71413441 2893.56173342 C-0.71373304 2892.7852893 -0.71333167 2892.00884517 -0.71291814 2891.20887244 C-0.71084886 2887.24369384 -0.70870986 2883.27851527 -0.70654711 2879.31333672 C-0.69094159 2850.42907465 -0.68508817 2821.54481699 -0.68421364 2792.66055107 C-0.68329522 2763.39962458 -0.67799872 2734.13870364 -0.66738319 2704.87777901 C-0.6670499 2703.95375062 -0.66671661 2703.02972223 -0.66637323 2702.07769298 C-0.66331713 2693.60918749 -0.66021258 2685.14068202 -0.65705032 2676.67217658 C-0.6491243 2655.44023293 -0.64185547 2634.20828909 -0.63502336 2612.97634506 C-0.63470988 2612.00360045 -0.6343964 2611.03085584 -0.63407343 2610.02863412 C-0.61869131 2562.11502232 -0.61077393 2514.2014096 -0.60334396 2466.28779602 C-0.60072435 2449.42796897 -0.59806919 2432.56814192 -0.59528303 2415.7083149 C-0.59510985 2414.66020186 -0.59493667 2413.61208883 -0.59475824 2412.53221479 C-0.58668693 2363.94717398 -0.57350063 2315.36213496 -0.5590107 2266.77709569 C-0.55806288 2263.59815582 -0.55711746 2260.41921595 -0.55617265 2257.24027609 C-0.55047307 2238.07079757 -0.5447203 2218.90131908 -0.53890612 2199.7318406 C-0.52445551 2152.0802172 -0.5106428 2104.42859362 -0.49726295 2056.77696991 C-0.49695807 2055.69225225 -0.49665318 2054.60753458 -0.49633905 2053.48994669 C-0.47660341 1983.25723721 -0.45949337 1913.02452738 -0.4445858 1842.79181671 C-0.44434784 1841.67082837 -0.44410987 1840.54984002 -0.4438647 1839.39488233 C-0.43662678 1805.27245883 -0.42958342 1771.1500353 -0.42257814 1737.02761175 C-0.41482512 1699.26716677 -0.40703889 1661.5067218 -0.39910889 1623.74627686 C-0.39887053 1622.61077826 -0.39863218 1621.47527966 -0.39838661 1620.30537201 C-0.37572973 1512.42147688 -0.34771432 1404.53758335 -0.31831678 1296.65368987 C-0.31707171 1292.08306249 -0.31582819 1287.51243512 -0.31458474 1282.94180774 C-0.3031419 1240.88132871 -0.29163621 1198.82084969 -0.28005161 1156.7603707 C-0.27974357 1155.64192669 -0.27943552 1154.52348268 -0.27911814 1153.37114643 C-0.27818545 1149.98479846 -0.27725273 1146.59845049 -0.27632002 1143.21210252 C-0.25112375 1051.73267477 -0.22647551 960.25324687 -0.20218242 868.77381887 C-0.20132518 865.54627845 -0.20046752 862.31873803 -0.19960973 859.09119761 C-0.17174147 754.2263045 -0.14484307 649.36141121 -0.1018297 464.20297227 C-0.10117604 461.34794384 -0.10052184 458.49291542 -0.09986744 455.63788699 C-0.09965326 454.70333559 -0.09943908 453.76878418 -0.09921841 452.80591304 C-0.09882859 451.10501971 -0.09843869 449.40412638 -0.09804869 447.70323305 C-0.06385282 298.46882237 -0.03227184 149.2344111 0 0 Z M4 4 C4 992.02 4 1980.04 4 2998 C4.33 2998 4.66 2998 5 2998 C5.20979492 2996.97382568 5.41958984 2995.94765137 5.63574219 2994.89038086 C24.98193104 2900.71134398 54.96738671 2809.07449933 136.64941406 2603.32226562 C138.27505094 2600.52706354 139.82954035 2597.69683926 141.38110352 2594.86010742 C154.89629732 2570.26289198 171.01474974 2546.73066039 188.53710938 2524.83300781 C189.79221112 2523.2603603 191.03061693 2521.67441339 192.265625 2520.0859375 C196.71080714 2514.39393599 201.50216116 2509.0876261 206.41796875 2503.8046875 C208.46830868 2501.57754065 210.43437837 2499.32104125 212.375 2497 C216.87234497 2491.82220567 222.04841262 2487.33081374 227.11425781 2482.72412109 C232.56456418 2477.74094353 237.93766044 2472.67365289 243.30419922 2467.60058594 C244.67813926 2466.30378909 246.05876496 2465.01407807 247.44140625 2463.7265625 C252.8270034 2458.56944523 257.20869436 2452.6905632 261.67480469 2446.74853516 C263.89150432 2443.82370046 266.16470441 2440.94382089 268.4375 2438.0625 C268.89415039 2437.48234131 269.35080078 2436.90218262 269.82128906 2436.30444336 C271.67832224 2433.94530652 273.53697555 2431.58744809 275.39550781 2429.22949219 C281.98786228 2420.86316146 288.5239853 2412.45674804 295 2404 C294.29037109 2402.70642578 294.29037109 2402.70642578 293.56640625 2401.38671875 C268.77844796 2355.81315675 268.77844796 2355.81315675 274.91015625 2331.37109375 C280.34168102 2314.57035583 294.0786146 2304.61397803 309.22265625 2296.86230469 C318.20641123 2292.38152739 327.28621418 2288.29920695 336.7265625 2284.875 C338.93288569 2284.20242366 338.93288569 2284.20242366 340 2283 C340.24561411 2280.55170235 340.4250365 2278.13136008 340.55639648 2275.67602539 C340.59857772 2274.91663949 340.64075895 2274.15725359 340.68421841 2273.374856 C341.14402602 2264.31253813 341.125318 2255.25502219 341.09765625 2246.18359375 C341.09578506 2244.34701069 341.09436448 2242.51042713 341.09336853 2240.67384338 C341.08959844 2235.90156613 341.07981705 2231.12932061 341.06866455 2226.35705566 C341.05833017 2221.46265085 341.05384547 2216.56824077 341.04882812 2211.67382812 C341.0381883 2202.11587168 341.02118042 2192.5579385 341 2183 C339.9690773 2182.72987595 338.9381546 2182.45975189 337.87599182 2182.18144226 C336.51048089 2181.82117902 335.1449988 2181.46080643 333.77954102 2181.1003418 C333.1015873 2180.92301262 332.42363358 2180.74568344 331.7251358 2180.56298065 C310.90944051 2175.05393272 289.50190291 2162.22317758 277.62109375 2143.82421875 C266.35165914 2124.19096279 260.22917972 2104.16590755 266.23193359 2081.57617188 C267.7902093 2076.19327916 269.79758881 2071.58506784 273 2067 C273.77150391 2065.88238281 273.77150391 2065.88238281 274.55859375 2064.7421875 C286.19912111 2048.88096084 304.49688842 2039.75179053 323.73872375 2036.54333496 C326.66428205 2036.12528118 329.59187211 2035.73681281 332.5234375 2035.36328125 C333.53494873 2035.2300647 334.54645996 2035.09684814 335.58862305 2034.95959473 C338.05850477 2034.63499421 340.5289088 2034.31523691 343 2034 C343.40742174 2026.20967596 343.68651511 2018.42211012 343.87890625 2010.62353516 C343.95014644 2007.97064761 344.06787263 2005.33173821 344.20703125 2002.68017578 C345.57698007 1988.71645284 345.57698007 1988.71645284 341.50079346 1975.86868286 C337.82426386 1972.51361655 333.71361692 1970.64443584 329.09863281 1968.90380859 C325.5069671 1967.35700235 322.48231459 1965.03241142 319.375 1962.6875 C318.72925018 1962.20563736 318.08350037 1961.72377472 317.41818237 1961.22731018 C299.5689784 1947.804458 283.65392376 1930.86747284 280 1908 C278.48324008 1893.02199576 284.05971674 1879.19013271 293 1867.375 C305.37677099 1853.01463967 323.4806361 1845.33626485 340.96484375 1839.12890625 C343.83927851 1838.29946932 343.83927851 1838.29946932 345 1837 C345.08865208 1834.1156618 345.11521296 1831.25537842 345.09765625 1828.37109375 C345.09553383 1827.07474754 345.09553383 1827.07474754 345.09336853 1825.75221252 C345.08775239 1822.98060708 345.07519719 1820.2090812 345.0625 1817.4375 C345.05748708 1815.5631522 345.05292381 1813.68880315 345.04882812 1811.81445312 C345.03777772 1807.20960456 345.0205023 1802.60481579 345 1798 C344.46727478 1797.80133835 343.93454956 1797.6026767 343.38568115 1797.397995 C342.67800598 1797.13348038 341.97033081 1796.86896576 341.24121094 1796.59643555 C340.19462311 1796.20563057 340.19462311 1796.20563057 339.12689209 1795.80693054 C317.69335557 1787.67517091 298.90603557 1775.8989593 288.3984375 1754.78125 C287.14659683 1751.88225055 286.02690228 1748.98538258 285 1746 C284.76667969 1745.32839844 284.53335937 1744.65679688 284.29296875 1743.96484375 C279.68704626 1728.3577251 282.35640256 1712.30189174 289.5 1697.99609375 C301.17973358 1676.82657664 321.63347478 1664.92891666 343.40234375 1656.09375 C345.88506469 1655.24070094 345.88506469 1655.24070094 347 1654 C347.09311889 1652.49581261 347.11746028 1650.98728644 347.11352539 1649.48022461 C347.11341209 1648.03884377 347.11341209 1648.03884377 347.11329651 1646.56834412 C347.10813522 1645.523564 347.10297394 1644.47878387 347.09765625 1643.40234375 C347.0962413 1642.33834854 347.09482635 1641.27435333 347.09336853 1640.17811584 C347.08775064 1636.76454917 347.07519511 1633.351047 347.0625 1629.9375 C347.05748731 1627.62955824 347.052924 1625.32161545 347.04882812 1623.01367188 C347.0377754 1617.34242574 347.02101987 1611.67121747 347 1606 C346.49367538 1605.7235817 345.98735077 1605.44716339 345.46568298 1605.16236877 C343.12990728 1603.88428964 340.79737931 1602.60038854 338.46484375 1601.31640625 C337.66864624 1600.88187134 336.87244873 1600.44733643 336.05212402 1599.99963379 C328.58875971 1595.88171824 321.76605417 1591.16816684 315 1586 C313.53626953 1584.90751953 313.53626953 1584.90751953 312.04296875 1583.79296875 C297.3384521 1572.37897331 285.50371768 1556.24676531 282.3203125 1537.609375 C280.17849979 1520.16143733 285.2215189 1504.57846871 295.875 1490.8125 C297.23209216 1489.19315551 298.60644111 1487.58807094 300 1486 C300.58136719 1485.33484375 301.16273438 1484.6696875 301.76171875 1483.984375 C314.77141065 1470.09984482 332.2304755 1461.38476225 349 1453 C349 1440.46 349 1427.92 349 1415 C345.04 1413.35 341.08 1411.7 337 1410 C310.30837032 1398.31074609 287.45345872 1381.3664128 275.1875 1354.125 C268.8021308 1337.77327753 267.67477051 1320.16384164 274.32421875 1303.7265625 C278.14718905 1295.75953253 282.77368451 1289.22631549 289 1283 C289 1282.34 289 1281.68 289 1281 C289.5878125 1280.72542969 290.175625 1280.45085937 290.78125 1280.16796875 C292.91683964 1279.04377631 294.62027628 1277.81710342 296.5 1276.3125 C313.22788191 1263.61917217 331.55325458 1259.40383591 352 1257 C352.23074219 1256.030625 352.46148437 1255.06125 352.69921875 1254.0625 C361.89130089 1216.01389708 378.29435316 1182.42867437 404.84375 1153.37890625 C406.79615436 1151.22489491 408.68277359 1149.02972274 410.5625 1146.8125 C454.12385198 1096.94797262 531.73863402 1077.31742019 594.77972412 1072.20918274 C600.04802647 1071.86696426 605.30790167 1071.81816704 610.5859375 1071.796875 C612.33709366 1071.78635353 612.33709366 1071.78635353 614.12362671 1071.77561951 C617.8741241 1071.75819973 621.62446362 1071.75176647 625.375 1071.75 C626.65588501 1071.74932526 627.93677002 1071.74865051 629.25646973 1071.74795532 C648.03508743 1071.76369094 666.40807129 1072.15995128 685 1075 C686.1765918 1075.17160645 687.35318359 1075.34321289 688.56542969 1075.52001953 C726.17566066 1081.10910963 762.67681294 1091.55938043 797 1108 C798.27641357 1108.61029053 798.27641357 1108.61029053 799.57861328 1109.23291016 C821.64348746 1119.94737798 841.21982617 1134.19151353 859 1151 C859.49258301 1151.45858398 859.98516602 1151.91716797 860.49267578 1152.38964844 C910.35561973 1199.0117478 919.4289707 1268.20750213 923.35400391 1332.89941406 C923.42538574 1334.04893555 923.49676758 1335.19845703 923.5703125 1336.3828125 C923.62977051 1337.39746582 923.68922852 1338.41211914 923.75048828 1339.45751953 C923.91683131 1342.12059386 923.91683131 1342.12059386 925 1345 C926.74117052 1345.86106349 926.74117052 1345.86106349 928.91015625 1346.359375 C929.72726074 1346.58407471 930.54436523 1346.80877441 931.38623047 1347.0402832 C932.26939941 1347.27448975 933.15256836 1347.50869629 934.0625 1347.75 C949.1635511 1352.04016312 962.13777527 1358.00611353 975 1367 C975.84304688 1367.57492187 976.68609375 1368.14984375 977.5546875 1368.7421875 C993.29097252 1380.12240746 1002.75638023 1398.05409302 1006.55859375 1416.74609375 C1008.73692899 1433.12394761 1004.5603788 1450.26273476 995.06640625 1463.74609375 C977.95575969 1485.73678211 954.25208792 1492.11502043 928 1496 C927.34384481 1516.67237855 926.81918266 1537.31449585 927 1558 C928.8871875 1558.51046875 928.8871875 1558.51046875 930.8125 1559.03125 C946.22256473 1563.33838276 960.36819542 1568.9505064 973 1579 C973.82886719 1579.65355469 974.65773438 1580.30710937 975.51171875 1580.98046875 C982.43613213 1586.80206591 987.24677696 1593.39679518 992 1601 C992.43183594 1601.66386719 992.86367188 1602.32773438 993.30859375 1603.01171875 C1001.32164711 1616.88646094 1001.49586059 1634.70461407 997.91015625 1649.78125 C996.68139602 1654.12673683 995.13838948 1658.02766971 993 1662 C992.56816406 1662.80953125 992.13632812 1663.6190625 991.69140625 1664.453125 C980.28436435 1684.60865704 961.50532089 1694.36636746 939.90966797 1700.49951172 C936.2921911 1701.44758479 932.63738463 1702.08980855 928.94140625 1702.640625 C927.00091899 1702.81021827 927.00091899 1702.81021827 926 1704 C925.83982834 1706.80976518 925.74049466 1709.59773596 925.68359375 1712.41015625 C925.66281265 1713.25219101 925.64203156 1714.09422577 925.62062073 1714.96177673 C925.55503188 1717.66193179 925.49619724 1720.36218717 925.4375 1723.0625 C925.39432363 1724.88868241 925.35070964 1726.71485454 925.30664062 1728.54101562 C925.19934106 1733.02723992 925.09810034 1737.5135655 925 1742 C925.73935791 1742.29132813 926.47871582 1742.58265625 927.24047852 1742.8828125 C985.04307134 1765.76103827 985.04307134 1765.76103827 998.2265625 1794.15625 C1003.29191987 1806.23124333 1002.88032242 1819.64415434 999 1832 C995.39474198 1840.65642427 990.19365233 1848.01037629 984 1855 C983.48179687 1855.60070313 982.96359375 1856.20140625 982.4296875 1856.8203125 C967.35376419 1873.10837035 945.11870379 1882.72032405 924 1888 C924 1899.88 924 1911.76 924 1924 C929.28 1925.65 934.56 1927.3 940 1929 C943.29967496 1930.32924126 946.44350693 1931.64052892 949.625 1933.1875 C950.41640381 1933.56914307 951.20780762 1933.95078613 952.02319336 1934.34399414 C972.16134755 1944.36122642 987.87846948 1959.85116816 995.625 1981.25 C1001.80569456 2000.90663517 999.38381476 2021.00964649 990.02099609 2039.16308594 C976.56975033 2063.36374905 953.23310428 2075.58896524 928 2084 C928 2092.58 928 2101.16 928 2110 C930.84625 2111.485 933.6925 2112.97 936.625 2114.5 C963.94275984 2128.87370438 992.38826566 2146.10890707 1002.23828125 2177.23828125 C1007.37807988 2195.87334602 1003.23165663 2213.61797972 994.07617188 2230.14599609 C982.10683051 2250.76649935 962.70440877 2266.72726758 941.72265625 2277.5859375 C939.23245105 2278.8792722 936.7810899 2280.22308396 934.32983398 2281.58837891 C933.5190892 2282.0396817 932.70834442 2282.4909845 931.87303162 2282.95596313 C931.25493118 2283.3004953 930.63683075 2283.64502747 930 2284 C931.25093661 2290.53410407 932.5084691 2297.06691294 933.76949024 2303.59907818 C934.48009629 2307.28525479 935.18549207 2310.97235616 935.88409424 2314.66082764 C937.69097899 2324.19836913 939.53264335 2333.72779601 941.43799782 2343.24620628 C942.35282245 2347.82350956 943.24903466 2352.40297466 944.10620117 2356.99145508 C944.95237566 2361.51719492 945.84480717 2366.03159445 946.76907158 2370.54200935 C947.10785387 2372.23504184 947.43062932 2373.93137212 947.73573494 2375.63079643 C950.00969472 2388.21182796 953.63419909 2394.31966391 964 2402 C965.79689651 2403.47280901 967.58942764 2404.95098231 969.375 2406.4375 C970.27347656 2407.16195312 971.17195312 2407.88640625 972.09765625 2408.6328125 C975.38006069 2411.3099822 978.60100217 2414.0510464 981.8125 2416.8125 C982.39926514 2417.3168457 982.98603027 2417.82119141 983.59057617 2418.34082031 C985.99887773 2420.41285855 988.40515205 2422.48724427 990.81152344 2424.56152344 C996.63835913 2429.58161498 1002.46234648 2434.59373649 1008.4375 2439.4375 C1013.48854068 2443.53915271 1018.40128396 2447.78591011 1023.30786133 2452.05786133 C1028.44219334 2456.52592088 1033.62016184 2460.93842908 1038.828125 2465.3203125 C1040.95642087 2467.1122172 1043.06928418 2468.92020074 1045.171875 2470.7421875 C1052.58088591 2477.13773903 1060.27835043 2482.99038827 1068.21728516 2488.7109375 C1080.43196457 2497.54324472 1091.98188213 2506.92529841 1102.9921875 2517.2109375 C1105.38773026 2519.44508374 1107.8271878 2521.6155554 1110.3125 2523.75 C1116.39867635 2529.03065301 1121.92262833 2534.78092826 1127.16796875 2540.890625 C1129.15311587 2543.17629546 1131.2003983 2545.39701378 1133.25 2547.625 C1138.38758169 2553.31397462 1143.053032 2559.33646233 1147.74365234 2565.39257812 C1149.42117322 2567.53886601 1151.14906729 2569.64254533 1152.875 2571.75 C1174.01779897 2598.13517331 1191.83738165 2627.42169978 1207.56103516 2657.27783203 C1208.8928688 2659.79733409 1210.24459525 2662.304691 1211.60546875 2664.80859375 C1247.37679358 2730.99258629 1271.10869438 2805.79424178 1283 2880 C1283.33 2880 1283.66 2880 1284 2880 C1284 1930.92 1284 981.84 1284 4 C861.6 4 439.2 4 4 4 Z M1283 3087 C1282.78234985 3088.06806885 1282.78234985 3088.06806885 1282.56030273 3089.15771484 C1268.25002984 3158.87500072 1241.99958457 3223.6120149 1198 3280 C1197.32066406 3280.88042969 1196.64132812 3281.76085938 1195.94140625 3282.66796875 C1193.997967 3285.14474268 1192.00886824 3287.57601508 1190 3290 C1188.79730469 3291.48113281 1188.79730469 3291.48113281 1187.5703125 3292.9921875 C1180.01309358 3302.10745861 1171.72320823 3310.49251104 1163.375 3318.875 C1162.79849701 3319.45667938 1162.22199402 3320.03835876 1161.62802124 3320.63766479 C1154.4059091 3327.91080391 1147.0357886 3334.62546419 1139 3341 C1137.90988042 3341.92303414 1136.82527271 3342.85268086 1135.75 3343.79296875 C1119.7876478 3357.69200554 1102.21288832 3369.35349189 1084.5 3380.875 C1080.67472311 3383.3687986 1076.8517054 3385.86600865 1073.03125 3388.3671875 C1071.67350464 3389.25600616 1071.67350464 3389.25600616 1070.28833008 3390.16278076 C1064.95121978 3393.67208121 1059.73444655 3397.29363232 1054.60839844 3401.10644531 C1050.88611197 3403.80862182 1047.05050486 3406.33339892 1043.21490479 3408.87011719 C1037.80358839 3412.45252294 1032.43729462 3416.09794629 1027.078125 3419.7578125 C1007.40686829 3433.16694062 987.7854666 3446.36626539 967 3458 C966.02885254 3458.54881836 965.05770508 3459.09763672 964.05712891 3459.66308594 C933.38129484 3476.95263399 901.75240857 3491.99567913 865.875 3492.25 C864.53381104 3492.26401855 864.53381104 3492.26401855 863.16552734 3492.27832031 C852.18235428 3492.22616278 842.33628775 3490.16271676 832.203125 3485.984375 C831.1969664 3485.58128616 830.1908078 3485.17819733 829.15415955 3484.76289368 C825.84832874 3483.43601801 822.54938316 3482.092818 819.25 3480.75 C816.89550409 3479.80254747 814.54042968 3478.85653143 812.18481445 3477.91186523 C808.50687185 3476.43665083 804.82910852 3474.96103122 801.15351868 3473.47996521 C789.34887309 3468.72451677 777.50737921 3464.06454998 765.65783691 3459.42224121 C760.98318362 3457.59062691 756.30978559 3455.75582045 751.63632202 3453.9211731 C748.10712986 3452.53580831 744.57775107 3451.15091986 741.04833984 3449.76611328 C728.1984895 3444.72379509 715.35142338 3439.67438568 702.50384521 3434.62628174 C699.00648705 3433.25211247 695.50911032 3431.87799048 692.01171875 3430.50390625 C690.857323 3430.05035767 689.70292725 3429.59680908 688.5135498 3429.1295166 C681.48422622 3426.3680404 674.45426757 3423.60818781 667.42378235 3420.84967041 C662.72054129 3419.00418721 658.01758 3417.15799154 653.31460571 3415.31182861 C649.84375632 3413.9497659 646.37244653 3412.58888127 642.90112305 3411.22802734 C631.50754734 3406.75805351 620.12585261 3402.26051199 608.7655735 3397.70667458 C604.4649622 3395.98364023 600.16227109 3394.26579991 595.86019897 3392.54641724 C592.38250091 3391.15304649 588.9086508 3389.75037679 585.43481445 3388.34741211 C583.32781545 3387.50459863 581.22064714 3386.66220822 579.11328125 3385.8203125 C578.15772339 3385.4308696 577.20216553 3385.0414267 576.21765137 3384.6401825 C575.33540894 3384.28986465 574.4531665 3383.93954681 573.54418945 3383.57861328 C572.78266068 3383.27190704 572.0211319 3382.96520081 571.23652649 3382.64920044 C566.99656553 3381.41845959 564.64323014 3381.65055286 560.75 3383.765625 C559.49393659 3384.5845241 558.24434102 3385.41339588 557 3386.25 C555.56729013 3387.17656592 554.13227622 3388.09957623 552.6953125 3389.01953125 C551.93379883 3389.50760254 551.17228516 3389.99567383 550.38769531 3390.49853516 C507.40891668 3417.52506773 459.15749227 3435.98728828 409.1875 3444.75 C408.05666992 3444.94875732 406.92583984 3445.14751465 405.76074219 3445.35229492 C387.64446454 3448.38249823 369.85392199 3449.37559506 351.5 3449.3125 C350.39849609 3449.31067719 349.29699219 3449.30885437 348.16210938 3449.30697632 C331.59043288 3449.26084036 315.37441696 3448.76321656 299 3446 C297.94135742 3445.82839355 296.88271484 3445.65678711 295.79199219 3445.47998047 C239.44497016 3436.14995418 185.58531636 3412.77278791 141 3377 C140.1946582 3376.36022217 140.1946582 3376.36022217 139.37304688 3375.70751953 C133.50515758 3371.0416011 127.86674083 3366.16031396 122.328125 3361.109375 C120.26846967 3359.24324433 118.17611105 3357.42930212 116.0625 3355.625 C108.11158733 3348.68807012 100.80964668 3341.05038739 94 3333 C93.2265625 3332.11570312 92.453125 3331.23140625 91.65625 3330.3203125 C74.04999163 3310.07145754 58.84751641 3287.91965128 46.21044922 3264.26074219 C44.96768866 3261.93965248 43.70533299 3259.62993402 42.44140625 3257.3203125 C24.07110749 3223.46249241 13.21328033 3186.46824609 5 3149 C4.67 3149 4.34 3149 4 3149 C4 3420.26 4 3691.52 4 3971 C426.4 3971 848.8 3971 1284 3971 C1284 3679.28 1284 3387.56 1284 3087 C1283.67 3087 1283.34 3087 1283 3087 Z " fill="#B7B7B8" transform="translate(3,0)"/>
<path d="M0 0 C0.79557865 -0.0017737 1.59115729 -0.0035474 2.41084439 -0.00537485 C5.09344376 -0.00873663 7.77578348 0.00243817 10.45835876 0.01365662 C12.3943905 0.01465305 14.33042278 0.0148517 16.2664547 0.01431847 C21.60182907 0.01579477 26.93709412 0.03065802 32.27243686 0.0482223 C36.85213677 0.0618722 41.43183734 0.06834247 46.01155168 0.07516032 C101.40227287 0.16176531 156.7918457 0.61452465 212.18064702 1.05669631 C239.45053608 1.27438329 266.72051802 1.48021928 293.99049595 1.68642237 C298.52861711 1.72074945 303.06673723 1.75520979 307.60485652 1.7897824 C353.39180329 2.13858829 399.17871281 2.4284214 444.96647453 2.64916241 C457.91607534 2.71174028 470.86556586 2.78561851 483.81504822 2.86912537 C485.50739288 2.87997589 487.19973755 2.89082584 488.89208221 2.90167522 C495.6040154 2.94483272 502.31594694 2.98820796 509.02787018 3.03288841 C530.12733434 3.17283089 551.22631916 3.26448362 572.32621527 3.30558157 C589.83820967 3.34024908 607.34971531 3.41494778 624.86140823 3.52347183 C635.63681732 3.58877077 646.41129698 3.62260676 657.18690318 3.61190784 C664.45423242 3.60765548 671.72068586 3.6436425 678.98770696 3.7103616 C683.16568211 3.7475046 687.34176435 3.76762712 691.51984978 3.73893356 C711.33808315 3.61664719 726.91328562 5.54670077 744.19248962 16.2419281 C745.99046508 17.31121762 747.78921444 18.37920694 749.58874512 19.44587708 C758.96984542 25.0484991 767.70763414 31.36942386 776.19248962 38.2419281 C777.087099 38.94446716 777.98170837 39.64700623 778.90342712 40.37083435 C796.67446666 54.51991715 814.41324126 70.99786893 828.37217712 88.92552185 C830.15800943 91.19805095 832.04487851 93.3066357 834.00498962 95.4294281 C839.88650184 101.97743375 845.00315529 109.14343972 850.19248962 116.2419281 C850.63914978 116.85262146 851.08580994 117.46331482 851.54600525 118.09251404 C887.68704512 167.69732521 915.43613006 222.73307029 936.25498962 280.3669281 C936.52716309 281.12033478 936.79933655 281.87374146 937.07975769 282.64997864 C940.0308504 290.85214481 942.83870176 299.07187364 945.34312439 307.42381287 C946.21407362 310.31354179 947.13603637 313.18370296 948.06748962 316.0544281 C950.65093857 324.42520954 952.65822204 332.94518006 954.75108337 341.44895935 C955.8545966 345.92124325 957.02704002 350.364918 958.25498962 354.8044281 C965.13713472 380.51293705 969.35112139 406.83487364 972.44248962 433.2419281 C972.52548309 433.93403381 972.60847656 434.62613953 972.69398499 435.33921814 C975.49004551 458.91760717 975.46800817 482.65555333 975.50498962 506.3669281 C975.50737829 507.52614965 975.50737829 507.52614965 975.50981522 508.70878983 C975.55071795 532.13377571 974.89977006 555.06519317 971.19248962 578.2419281 C970.94653402 580.01727472 970.70511794 581.79326078 970.46983337 583.5700531 C969.83967144 588.15442214 969.05339637 592.69564481 968.19248962 597.2419281 C967.99429626 598.29831482 967.79610291 599.35470154 967.59190369 600.44309998 C955.21701895 665.42471534 929.29360081 727.19428981 888.19248962 779.2419281 C887.51573181 780.11333435 886.838974 780.9847406 886.14170837 781.8825531 C881.9120877 787.27341231 877.43384124 792.37524166 872.78233337 797.4059906 C870.78620676 799.59179441 868.84297364 801.80119233 866.91123962 804.04270935 C863.03906261 808.48150813 858.93008254 812.65188294 854.75498962 816.8044281 C853.68667908 817.87853943 853.68667908 817.87853943 852.5967865 818.97434998 C847.9594416 823.603271 843.16793453 827.98057314 838.19248962 832.2419281 C837.22827087 833.0875531 836.26405212 833.9331781 835.27061462 834.8044281 C828.7409284 840.43222397 822.01873756 845.74668726 815.12998962 850.9294281 C814.32787048 851.53464294 813.52575134 852.13985779 812.69932556 852.76341248 C806.35166942 857.49786631 799.80360448 861.88592655 793.19248962 866.2419281 C790.68688879 867.904748 788.18385644 869.5714188 785.68077087 871.23802185 C785.02681839 871.67312073 784.37286591 872.1082196 783.69909668 872.5565033 C771.87290809 880.42508342 760.05320812 888.30123264 748.31748962 896.3044281 C743.94301081 899.28436079 739.56798164 902.26348344 735.19248962 905.2419281 C734.41077393 905.77423035 733.62905823 906.30653259 732.82365417 906.85496521 C727.29523385 910.61844815 721.76212905 914.37493275 716.22489929 918.1254425 C714.3644074 919.3869455 712.50518142 920.65031804 710.64738464 921.91578674 C694.62027416 932.83038299 678.20961307 942.94420947 661.31358337 952.45677185 C659.34804997 953.58098808 657.39949955 954.73597803 655.47764587 955.93333435 C645.29832337 962.2278652 634.21855731 966.65587319 623.19248962 971.2419281 C622.31914978 971.60923035 621.44580994 971.97653259 620.54600525 972.35496521 C615.41057032 974.47259427 610.34911958 976.16325093 604.94248962 977.4294281 C604.27475525 977.59378357 603.60702087 977.75813904 602.91905212 977.92747498 C581.75150748 983.05334118 564.65354809 980.82470935 545.00898743 971.8347168 C537.80552595 968.55881084 530.42678914 965.74727134 523.04328918 962.90715027 C518.64828823 961.21424927 514.26069078 959.50234062 509.87217712 957.79270935 C508.94583969 957.43225525 508.01950226 957.07180115 507.06509399 956.70042419 C495.07594801 952.0334187 483.10349521 947.32387749 471.12998962 942.6169281 C468.74408761 941.67917648 466.35818265 940.74143239 463.97227478 939.80369568 C459.13349349 937.90179155 454.29480003 935.99966416 449.4561615 934.09739685 C438.76737851 929.89528795 428.07785429 925.69506575 417.38816833 921.49525452 C415.04969222 920.57649191 412.71123193 919.65768903 410.37278748 918.73884583 C396.77292399 913.39512745 383.17120355 908.05619225 369.5663147 902.72528076 C358.10675681 898.23494521 346.64869607 893.7408076 335.19248962 889.2419281 C334.14494507 888.83059631 333.09740051 888.41926453 332.01811218 887.99546814 C325.82809354 885.56433728 319.63936578 883.12996518 313.45240784 880.6910553 C311.54274849 879.93866976 309.63273931 879.18717146 307.72236633 878.43659973 C305.11506336 877.41196007 302.50907337 876.38405334 299.90342712 875.35520935 C299.13012558 875.05208832 298.35682404 874.74896729 297.56008911 874.43666077 C292.30677684 872.35621531 292.30677684 872.35621531 291.19248962 871.2419281 C291.03913015 868.07434344 290.95521558 864.92753425 290.91123962 861.7575531 C290.89314743 860.69953995 290.87505524 859.64152679 290.85641479 858.55145264 C290.79594776 854.86501208 290.7439332 851.17850509 290.69248962 847.4919281 C290.66254684 845.52145265 290.63260308 843.55097721 290.60261059 841.58050251 C289.81125479 788.80617218 289.57505861 736.02045705 289.19248962 683.2419281 C279.62248962 683.2419281 270.05248962 683.2419281 260.19248962 683.2419281 C260.25307556 687.14480652 260.3136615 691.04768494 260.37608337 695.0688324 C260.57938085 708.2040927 260.77814759 721.33941864 260.97479248 734.47478008 C261.09370844 742.41111341 261.21408158 750.3474192 261.33799744 758.28367615 C261.37392099 760.59702874 261.40980044 762.91038201 261.44566154 765.22373557 C261.46959097 766.76075566 261.49369607 768.29777303 261.51797676 769.83478761 C261.65029672 778.22174001 261.76757003 786.60838151 261.84361267 794.99604797 C261.87194994 797.98996189 261.90117025 800.98386628 261.93077087 803.97776794 C261.93771406 804.70851524 261.94465725 805.43926254 261.95181084 806.19215369 C262.04302473 815.24849228 262.28742761 824.27806285 262.73751831 833.32378292 C262.97494008 838.24334561 263.14346417 843.16398997 263.30256653 848.08663368 C263.39443307 850.3352037 263.52027032 852.58269341 263.6832428 854.82723045 C264.67759814 868.63013129 264.67759814 868.63013129 262.19248962 874.2419281 C257.63297586 879.37621745 251.58850254 882.37986514 245.42749119 885.20706844 C242.61681178 886.50848083 239.98407342 888.05404688 237.33311462 889.65208435 C235.70755439 890.54471627 234.07739354 891.42902706 232.44248962 892.3044281 C231.53748718 892.79209656 230.63248474 893.27976501 229.70005798 893.7822113 C192.68578274 913.52252162 153.6313038 927.6667482 112.19248962 934.4919281 C111.20224792 934.65539734 110.21200623 934.81886658 109.1917572 934.98728943 C93.63797162 937.41170941 78.08439169 937.48320795 62.37998962 937.4919281 C60.74067978 937.49294022 60.74067978 937.49294022 59.06825256 937.49397278 C43.23156721 937.47843708 27.80653119 937.12521895 12.19248962 934.2419281 C10.75437927 933.99249451 10.75437927 933.99249451 9.28721619 933.73802185 C-21.34579556 928.34101489 -51.41103201 917.99122715 -78.80751038 903.2419281 C-79.50859924 902.87132263 -80.20968811 902.50071716 -80.93202209 902.11888123 C-118.23654263 882.35250094 -154.11804551 853.93386516 -179.80751038 820.2419281 C-180.60157288 819.27642029 -181.39563538 818.31091248 -182.21376038 817.31614685 C-194.630813 802.16943345 -205.5908971 785.51214582 -214.75672913 768.20677185 C-215.87273118 766.11997248 -217.02568877 764.05635251 -218.18251038 761.9919281 C-240.3699735 721.84588694 -252.51840478 676.59266106 -257.80751038 631.2419281 C-257.91192444 630.35972595 -258.0163385 629.4775238 -258.12391663 628.56858826 C-261.65670523 597.14801114 -260.99145665 565.40139325 -255.80751038 534.2419281 C-255.45322389 531.96460299 -255.09905553 529.6872595 -254.74501038 527.40989685 C-251.90636943 509.88919513 -247.68481506 492.72731839 -243.37278748 475.52468872 C-241.89689966 469.63113116 -240.49629971 463.72201077 -239.12001038 457.8044281 C-236.62432382 447.20783206 -233.7332376 436.72651968 -230.80751038 426.2419281 C-230.2435846 424.20810823 -229.67978525 422.17425329 -229.11610413 420.1403656 C-220.85935324 390.42210789 -212.27201931 360.74729343 -202.22743225 331.57518005 C-200.75758209 327.26632386 -199.41309005 322.93365998 -198.14625263 318.56040478 C-195.49093319 309.39615874 -192.62176196 300.31598497 -189.63954163 291.25364685 C-189.15485697 289.77564408 -188.670297 288.2976004 -188.18585205 286.81951904 C-187.17665483 283.74253577 -186.16550153 280.66620416 -185.15296936 277.59031677 C-184.13709185 274.50368036 -183.12405758 271.41613677 -182.11390686 268.32762146 C-164.00418685 212.96019944 -164.00418685 212.96019944 -155.74501038 195.1169281 C-155.21319153 193.9513739 -154.68137268 192.7858197 -154.13343811 191.58494568 C-143.68497379 168.83351789 -132.49851161 146.44783393 -119.50038147 125.03782654 C-117.77754132 122.19243204 -116.08179891 119.33216223 -114.38954163 116.4684906 C-88.96893576 73.71909094 -56.74685131 26.14707947 -11.80751038 2.2419281 C-11.24674584 1.88404677 -10.68598131 1.52616545 -10.10822392 1.15743923 C-6.77749991 -0.16793868 -3.53003831 -0.02725036 0 0 Z " fill="#FDFDFD" transform="translate(289.80751037597656,2482.758071899414)"/>
<path d="M0 0 C425.04 0 850.08 0 1288 0 C1288.03738281 210.17648438 1288.07476563 420.35296875 1288.11328125 636.8984375 C1288.14154068 760.90451367 1288.16993155 884.91058914 1288.20215315 1008.91666424 C1288.20339381 1013.69185972 1288.20463243 1018.4670552 1288.20587139 1023.24225068 C1288.20612648 1024.22529218 1288.20638157 1025.20833368 1288.20664439 1026.22116431 C1288.22465178 1095.62355241 1288.24247619 1165.02594056 1288.25993789 1234.42832881 C1288.26160931 1241.07001764 1288.26328498 1247.71170647 1288.26496432 1254.35339531 C1288.29093203 1357.05393528 1288.31447835 1459.75447502 1288.33044434 1562.45501709 C1288.33061433 1563.54744917 1288.33078433 1564.63988125 1288.33095948 1565.76541733 C1288.33660883 1602.09292596 1288.34202671 1638.42043462 1288.34741267 1674.74794329 C1288.35227984 1707.5715678 1288.35723014 1740.3951923 1288.36245441 1773.21881676 C1288.3627118 1774.83627838 1288.3627118 1774.83627838 1288.36297439 1776.486416 C1288.37374487 1844.03322521 1288.3881172 1911.58003293 1288.40612316 1979.12684059 C1288.40640085 1980.17032767 1288.40667854 1981.21381474 1288.40696464 1982.28892264 C1288.41916381 2028.12000467 1288.43211346 2073.95108645 1288.44592086 2119.78216803 C1288.45147254 2138.22142186 1288.45691309 2156.66067572 1288.46229277 2175.0999296 C1288.46318568 2178.15725236 1288.46408219 2181.21457512 1288.46497908 2184.27189788 C1288.47866825 2231.02307949 1288.48988291 2277.77426002 1288.49388909 2324.52544355 C1288.49397549 2325.53322166 1288.49406189 2326.54099977 1288.4941509 2327.57931661 C1288.49552545 2343.79025925 1288.49669309 2360.00120191 1288.49782502 2376.21214457 C1288.50103988 2422.25248036 1288.50565787 2468.29281366 1288.52089059 2514.33314729 C1288.52119922 2515.26805952 1288.52150785 2516.20297175 1288.52182583 2517.16621465 C1288.52859006 2537.56704587 1288.53617061 2557.96787669 1288.54454908 2578.36870731 C1288.54787794 2586.50624757 1288.55109505 2594.64378788 1288.55427551 2602.7813282 C1288.55462535 2603.66898079 1288.55497518 2604.55663338 1288.55533561 2605.47118453 C1288.56636269 2633.5868823 1288.56820345 2661.70257056 1288.56468597 2689.81827 C1288.56125716 2717.52340299 1288.56695035 2745.22851719 1288.58576405 2772.93364454 C1288.58834526 2776.73698458 1288.59082187 2780.54032469 1288.59323552 2784.34366484 C1288.5939502 2785.46043928 1288.5939502 2785.46043928 1288.59467932 2786.59977483 C1288.60188918 2798.28996481 1288.59917826 2809.98012961 1288.59210832 2821.67031879 C1288.58537884 2833.13752545 1288.58968572 2844.60467364 1288.60467001 2856.07187532 C1288.61232955 2862.164519 1288.61550921 2868.25706412 1288.60515601 2874.3497061 C1288.56638867 2898.97234631 1289.03746888 2923.22947283 1291.68030636 2947.72036221 C1292.44489912 2955.56408193 1292.61989226 2963.43682496 1292.75 2971.3125 C1292.7667981 2972.13921204 1292.78359619 2972.96592407 1292.80090332 2973.81768799 C1293.18739141 2993.0648864 1292.84177055 3012.17216439 1290.88719945 3031.34046546 C1288.89989296 3051.02470316 1288.56206876 3070.56811616 1288.59826078 3090.33859102 C1288.60350169 3095.06265247 1288.591107 3099.78667753 1288.58114624 3104.51072693 C1288.56609012 3112.76074255 1288.56185457 3121.01070591 1288.56503928 3129.26073384 C1288.56977544 3141.6870813 1288.55691672 3154.11337172 1288.54096243 3166.53970769 C1288.51467756 3187.37326275 1288.50173239 3208.20680444 1288.49711609 3229.04037476 C1288.49083098 3257.21012805 1288.46588548 3285.37981361 1288.43786621 3313.54956055 C1288.37990484 3381.24136178 1288.34777482 3448.93318314 1288.3125 3516.625 C1288.209375 3667.88875 1288.10625 3819.1525 1288 3975 C862.96 3975 437.92 3975 0 3975 C-0.4375 3545.25 -0.4375 3545.25 -0.56811523 3409.36816406 C-0.61135068 3369.30367969 -0.61135068 3369.30367969 -0.65589905 3329.23919678 C-0.67707367 3310.16197168 -0.69497271 3291.0847462 -0.71129703 3272.00751643 C-0.72801657 3252.56215537 -0.7484157 3233.11680076 -0.77237374 3213.67144726 C-0.78651654 3202.10444047 -0.79797964 3190.53743864 -0.80541687 3178.97042556 C-0.81059389 3171.33544399 -0.81933847 3163.70047194 -0.83100615 3156.06549755 C-0.83755164 3151.71530499 -0.84253037 3147.36512612 -0.84315884 3143.01492834 C-0.84376387 3139.04608534 -0.84895336 3135.07727514 -0.8577199 3131.10844202 C-0.86007423 3129.68518334 -0.86079298 3128.26192072 -0.8596267 3126.83866057 C-0.85384572 3118.49976391 -1.20294769 3110.29950692 -2 3102 C-2.24644524 3097.87695057 -2.40475101 3093.75233435 -2.5625 3089.625 C-2.60568359 3088.6040625 -2.64886719 3087.583125 -2.69335938 3086.53125 C-3.13610329 3075.31507089 -3.18295841 3064.2018995 -2.30186843 3053.0069798 C-0.50382857 3029.84833872 -0.71330926 3006.66585038 -0.735956 2983.45247259 C-0.73957122 2977.67324139 -0.73361339 2971.89402396 -0.7280538 2966.11479544 C-0.71685211 2954.12608118 -0.71496299 2942.13738213 -0.71827881 2930.14866382 C-0.72161053 2917.95301602 -0.72048052 2905.75738015 -0.71413441 2893.56173342 C-0.71373304 2892.7852893 -0.71333167 2892.00884517 -0.71291814 2891.20887244 C-0.71084886 2887.24369384 -0.70870986 2883.27851527 -0.70654711 2879.31333672 C-0.69094159 2850.42907465 -0.68508817 2821.54481699 -0.68421364 2792.66055107 C-0.68329522 2763.39962458 -0.67799872 2734.13870364 -0.66738319 2704.87777901 C-0.6670499 2703.95375062 -0.66671661 2703.02972223 -0.66637323 2702.07769298 C-0.66331713 2693.60918749 -0.66021258 2685.14068202 -0.65705032 2676.67217658 C-0.6491243 2655.44023293 -0.64185547 2634.20828909 -0.63502336 2612.97634506 C-0.63470988 2612.00360045 -0.6343964 2611.03085584 -0.63407343 2610.02863412 C-0.61869131 2562.11502232 -0.61077393 2514.2014096 -0.60334396 2466.28779602 C-0.60072435 2449.42796897 -0.59806919 2432.56814192 -0.59528303 2415.7083149 C-0.59510985 2414.66020186 -0.59493667 2413.61208883 -0.59475824 2412.53221479 C-0.58668693 2363.94717398 -0.57350063 2315.36213496 -0.5590107 2266.77709569 C-0.55806288 2263.59815582 -0.55711746 2260.41921595 -0.55617265 2257.24027609 C-0.55047307 2238.07079757 -0.5447203 2218.90131908 -0.53890612 2199.7318406 C-0.52445551 2152.0802172 -0.5106428 2104.42859362 -0.49726295 2056.77696991 C-0.49695807 2055.69225225 -0.49665318 2054.60753458 -0.49633905 2053.48994669 C-0.47660341 1983.25723721 -0.45949337 1913.02452738 -0.4445858 1842.79181671 C-0.44434784 1841.67082837 -0.44410987 1840.54984002 -0.4438647 1839.39488233 C-0.43662678 1805.27245883 -0.42958342 1771.1500353 -0.42257814 1737.02761175 C-0.41482512 1699.26716677 -0.40703889 1661.5067218 -0.39910889 1623.74627686 C-0.39887053 1622.61077826 -0.39863218 1621.47527966 -0.39838661 1620.30537201 C-0.37572973 1512.42147688 -0.34771432 1404.53758335 -0.31831678 1296.65368987 C-0.31707171 1292.08306249 -0.31582819 1287.51243512 -0.31458474 1282.94180774 C-0.3031419 1240.88132871 -0.29163621 1198.82084969 -0.28005161 1156.7603707 C-0.27974357 1155.64192669 -0.27943552 1154.52348268 -0.27911814 1153.37114643 C-0.27818545 1149.98479846 -0.27725273 1146.59845049 -0.27632002 1143.21210252 C-0.25112375 1051.73267477 -0.22647551 960.25324687 -0.20218242 868.77381887 C-0.20132518 865.54627845 -0.20046752 862.31873803 -0.19960973 859.09119761 C-0.17174147 754.2263045 -0.14484307 649.36141121 -0.1018297 464.20297227 C-0.10117604 461.34794384 -0.10052184 458.49291542 -0.09986744 455.63788699 C-0.09965326 454.70333559 -0.09943908 453.76878418 -0.09921841 452.80591304 C-0.09882859 451.10501971 -0.09843869 449.40412638 -0.09804869 447.70323305 C-0.06385282 298.46882237 -0.03227184 149.2344111 0 0 Z M4 4 C4 992.02 4 1980.04 4 2998 C4.33 2998 4.66 2998 5 2998 C5.20979492 2996.97382568 5.41958984 2995.94765137 5.63574219 2994.89038086 C24.98193104 2900.71134398 54.96738671 2809.07449933 136.64941406 2603.32226562 C138.27505094 2600.52706354 139.82954035 2597.69683926 141.38110352 2594.86010742 C154.89629732 2570.26289198 171.01474974 2546.73066039 188.53710938 2524.83300781 C189.79221112 2523.2603603 191.03061693 2521.67441339 192.265625 2520.0859375 C196.71080714 2514.39393599 201.50216116 2509.0876261 206.41796875 2503.8046875 C208.46830868 2501.57754065 210.43437837 2499.32104125 212.375 2497 C216.87234497 2491.82220567 222.04841262 2487.33081374 227.11425781 2482.72412109 C232.56456418 2477.74094353 237.93766044 2472.67365289 243.30419922 2467.60058594 C244.67813926 2466.30378909 246.05876496 2465.01407807 247.44140625 2463.7265625 C252.8270034 2458.56944523 257.20869436 2452.6905632 261.67480469 2446.74853516 C263.89150432 2443.82370046 266.16470441 2440.94382089 268.4375 2438.0625 C268.89415039 2437.48234131 269.35080078 2436.90218262 269.82128906 2436.30444336 C271.67832224 2433.94530652 273.53697555 2431.58744809 275.39550781 2429.22949219 C281.98786228 2420.86316146 288.5239853 2412.45674804 295 2404 C294.29037109 2402.70642578 294.29037109 2402.70642578 293.56640625 2401.38671875 C268.77844796 2355.81315675 268.77844796 2355.81315675 274.91015625 2331.37109375 C280.34168102 2314.57035583 294.0786146 2304.61397803 309.22265625 2296.86230469 C318.20641123 2292.38152739 327.28621418 2288.29920695 336.7265625 2284.875 C338.93288569 2284.20242366 338.93288569 2284.20242366 340 2283 C340.24561411 2280.55170235 340.4250365 2278.13136008 340.55639648 2275.67602539 C340.59857772 2274.91663949 340.64075895 2274.15725359 340.68421841 2273.374856 C341.14402602 2264.31253813 341.125318 2255.25502219 341.09765625 2246.18359375 C341.09578506 2244.34701069 341.09436448 2242.51042713 341.09336853 2240.67384338 C341.08959844 2235.90156613 341.07981705 2231.12932061 341.06866455 2226.35705566 C341.05833017 2221.46265085 341.05384547 2216.56824077 341.04882812 2211.67382812 C341.0381883 2202.11587168 341.02118042 2192.5579385 341 2183 C339.9690773 2182.72987595 338.9381546 2182.45975189 337.87599182 2182.18144226 C336.51048089 2181.82117902 335.1449988 2181.46080643 333.77954102 2181.1003418 C333.1015873 2180.92301262 332.42363358 2180.74568344 331.7251358 2180.56298065 C310.90944051 2175.05393272 289.50190291 2162.22317758 277.62109375 2143.82421875 C266.35165914 2124.19096279 260.22917972 2104.16590755 266.23193359 2081.57617188 C267.7902093 2076.19327916 269.79758881 2071.58506784 273 2067 C273.77150391 2065.88238281 273.77150391 2065.88238281 274.55859375 2064.7421875 C286.19912111 2048.88096084 304.49688842 2039.75179053 323.73872375 2036.54333496 C326.66428205 2036.12528118 329.59187211 2035.73681281 332.5234375 2035.36328125 C333.53494873 2035.2300647 334.54645996 2035.09684814 335.58862305 2034.95959473 C338.05850477 2034.63499421 340.5289088 2034.31523691 343 2034 C343.40742174 2026.20967596 343.68651511 2018.42211012 343.87890625 2010.62353516 C343.95014644 2007.97064761 344.06787263 2005.33173821 344.20703125 2002.68017578 C345.57698007 1988.71645284 345.57698007 1988.71645284 341.50079346 1975.86868286 C337.82426386 1972.51361655 333.71361692 1970.64443584 329.09863281 1968.90380859 C325.5069671 1967.35700235 322.48231459 1965.03241142 319.375 1962.6875 C318.72925018 1962.20563736 318.08350037 1961.72377472 317.41818237 1961.22731018 C299.5689784 1947.804458 283.65392376 1930.86747284 280 1908 C278.48324008 1893.02199576 284.05971674 1879.19013271 293 1867.375 C305.37677099 1853.01463967 323.4806361 1845.33626485 340.96484375 1839.12890625 C343.83927851 1838.29946932 343.83927851 1838.29946932 345 1837 C345.08865208 1834.1156618 345.11521296 1831.25537842 345.09765625 1828.37109375 C345.09553383 1827.07474754 345.09553383 1827.07474754 345.09336853 1825.75221252 C345.08775239 1822.98060708 345.07519719 1820.2090812 345.0625 1817.4375 C345.05748708 1815.5631522 345.05292381 1813.68880315 345.04882812 1811.81445312 C345.03777772 1807.20960456 345.0205023 1802.60481579 345 1798 C344.46727478 1797.80133835 343.93454956 1797.6026767 343.38568115 1797.397995 C342.67800598 1797.13348038 341.97033081 1796.86896576 341.24121094 1796.59643555 C340.19462311 1796.20563057 340.19462311 1796.20563057 339.12689209 1795.80693054 C317.69335557 1787.67517091 298.90603557 1775.8989593 288.3984375 1754.78125 C287.14659683 1751.88225055 286.02690228 1748.98538258 285 1746 C284.76667969 1745.32839844 284.53335937 1744.65679688 284.29296875 1743.96484375 C279.68704626 1728.3577251 282.35640256 1712.30189174 289.5 1697.99609375 C301.17973358 1676.82657664 321.63347478 1664.92891666 343.40234375 1656.09375 C345.88506469 1655.24070094 345.88506469 1655.24070094 347 1654 C347.09311889 1652.49581261 347.11746028 1650.98728644 347.11352539 1649.48022461 C347.11341209 1648.03884377 347.11341209 1648.03884377 347.11329651 1646.56834412 C347.10813522 1645.523564 347.10297394 1644.47878387 347.09765625 1643.40234375 C347.0962413 1642.33834854 347.09482635 1641.27435333 347.09336853 1640.17811584 C347.08775064 1636.76454917 347.07519511 1633.351047 347.0625 1629.9375 C347.05748731 1627.62955824 347.052924 1625.32161545 347.04882812 1623.01367188 C347.0377754 1617.34242574 347.02101987 1611.67121747 347 1606 C346.49367538 1605.7235817 345.98735077 1605.44716339 345.46568298 1605.16236877 C343.12990728 1603.88428964 340.79737931 1602.60038854 338.46484375 1601.31640625 C337.66864624 1600.88187134 336.87244873 1600.44733643 336.05212402 1599.99963379 C328.58875971 1595.88171824 321.76605417 1591.16816684 315 1586 C313.53626953 1584.90751953 313.53626953 1584.90751953 312.04296875 1583.79296875 C297.3384521 1572.37897331 285.50371768 1556.24676531 282.3203125 1537.609375 C280.17849979 1520.16143733 285.2215189 1504.57846871 295.875 1490.8125 C297.23209216 1489.19315551 298.60644111 1487.58807094 300 1486 C300.58136719 1485.33484375 301.16273438 1484.6696875 301.76171875 1483.984375 C314.77141065 1470.09984482 332.2304755 1461.38476225 349 1453 C349 1440.46 349 1427.92 349 1415 C345.04 1413.35 341.08 1411.7 337 1410 C310.30837032 1398.31074609 287.45345872 1381.3664128 275.1875 1354.125 C268.8021308 1337.77327753 267.67477051 1320.16384164 274.32421875 1303.7265625 C278.14718905 1295.75953253 282.77368451 1289.22631549 289 1283 C289 1282.34 289 1281.68 289 1281 C289.5878125 1280.72542969 290.175625 1280.45085937 290.78125 1280.16796875 C292.91683964 1279.04377631 294.62027628 1277.81710342 296.5 1276.3125 C313.22788191 1263.61917217 331.55325458 1259.40383591 352 1257 C352.23074219 1256.030625 352.46148437 1255.06125 352.69921875 1254.0625 C361.89130089 1216.01389708 378.29435316 1182.42867437 404.84375 1153.37890625 C406.79615436 1151.22489491 408.68277359 1149.02972274 410.5625 1146.8125 C454.12385198 1096.94797262 531.73863402 1077.31742019 594.77972412 1072.20918274 C600.04802647 1071.86696426 605.30790167 1071.81816704 610.5859375 1071.796875 C612.33709366 1071.78635353 612.33709366 1071.78635353 614.12362671 1071.77561951 C617.8741241 1071.75819973 621.62446362 1071.75176647 625.375 1071.75 C626.65588501 1071.74932526 627.93677002 1071.74865051 629.25646973 1071.74795532 C648.03508743 1071.76369094 666.40807129 1072.15995128 685 1075 C686.1765918 1075.17160645 687.35318359 1075.34321289 688.56542969 1075.52001953 C726.17566066 1081.10910963 762.67681294 1091.55938043 797 1108 C798.27641357 1108.61029053 798.27641357 1108.61029053 799.57861328 1109.23291016 C821.64348746 1119.94737798 841.21982617 1134.19151353 859 1151 C859.49258301 1151.45858398 859.98516602 1151.91716797 860.49267578 1152.38964844 C910.35561973 1199.0117478 919.4289707 1268.20750213 923.35400391 1332.89941406 C923.42538574 1334.04893555 923.49676758 1335.19845703 923.5703125 1336.3828125 C923.62977051 1337.39746582 923.68922852 1338.41211914 923.75048828 1339.45751953 C923.91683131 1342.12059386 923.91683131 1342.12059386 925 1345 C926.74117052 1345.86106349 926.74117052 1345.86106349 928.91015625 1346.359375 C929.72726074 1346.58407471 930.54436523 1346.80877441 931.38623047 1347.0402832 C932.26939941 1347.27448975 933.15256836 1347.50869629 934.0625 1347.75 C949.1635511 1352.04016312 962.13777527 1358.00611353 975 1367 C975.84304688 1367.57492187 976.68609375 1368.14984375 977.5546875 1368.7421875 C993.29097252 1380.12240746 1002.75638023 1398.05409302 1006.55859375 1416.74609375 C1008.73692899 1433.12394761 1004.5603788 1450.26273476 995.06640625 1463.74609375 C977.95575969 1485.73678211 954.25208792 1492.11502043 928 1496 C927.34384481 1516.67237855 926.81918266 1537.31449585 927 1558 C928.8871875 1558.51046875 928.8871875 1558.51046875 930.8125 1559.03125 C946.22256473 1563.33838276 960.36819542 1568.9505064 973 1579 C973.82886719 1579.65355469 974.65773438 1580.30710937 975.51171875 1580.98046875 C982.43613213 1586.80206591 987.24677696 1593.39679518 992 1601 C992.43183594 1601.66386719 992.86367188 1602.32773438 993.30859375 1603.01171875 C1001.32164711 1616.88646094 1001.49586059 1634.70461407 997.91015625 1649.78125 C996.68139602 1654.12673683 995.13838948 1658.02766971 993 1662 C992.56816406 1662.80953125 992.13632812 1663.6190625 991.69140625 1664.453125 C980.28436435 1684.60865704 961.50532089 1694.36636746 939.90966797 1700.49951172 C936.2921911 1701.44758479 932.63738463 1702.08980855 928.94140625 1702.640625 C927.00091899 1702.81021827 927.00091899 1702.81021827 926 1704 C925.83982834 1706.80976518 925.74049466 1709.59773596 925.68359375 1712.41015625 C925.66281265 1713.25219101 925.64203156 1714.09422577 925.62062073 1714.96177673 C925.55503188 1717.66193179 925.49619724 1720.36218717 925.4375 1723.0625 C925.39432363 1724.88868241 925.35070964 1726.71485454 925.30664062 1728.54101562 C925.19934106 1733.02723992 925.09810034 1737.5135655 925 1742 C925.73935791 1742.29132813 926.47871582 1742.58265625 927.24047852 1742.8828125 C985.04307134 1765.76103827 985.04307134 1765.76103827 998.2265625 1794.15625 C1003.29191987 1806.23124333 1002.88032242 1819.64415434 999 1832 C995.39474198 1840.65642427 990.19365233 1848.01037629 984 1855 C983.48179687 1855.60070313 982.96359375 1856.20140625 982.4296875 1856.8203125 C967.35376419 1873.10837035 945.11870379 1882.72032405 924 1888 C924 1899.88 924 1911.76 924 1924 C929.28 1925.65 934.56 1927.3 940 1929 C943.29967496 1930.32924126 946.44350693 1931.64052892 949.625 1933.1875 C950.41640381 1933.56914307 951.20780762 1933.95078613 952.02319336 1934.34399414 C972.16134755 1944.36122642 987.87846948 1959.85116816 995.625 1981.25 C1001.80569456 2000.90663517 999.38381476 2021.00964649 990.02099609 2039.16308594 C976.56975033 2063.36374905 953.23310428 2075.58896524 928 2084 C928 2092.58 928 2101.16 928 2110 C930.84625 2111.485 933.6925 2112.97 936.625 2114.5 C963.94275984 2128.87370438 992.38826566 2146.10890707 1002.23828125 2177.23828125 C1007.37807988 2195.87334602 1003.23165663 2213.61797972 994.07617188 2230.14599609 C982.10683051 2250.76649935 962.70440877 2266.72726758 941.72265625 2277.5859375 C939.23245105 2278.8792722 936.7810899 2280.22308396 934.32983398 2281.58837891 C933.5190892 2282.0396817 932.70834442 2282.4909845 931.87303162 2282.95596313 C931.25493118 2283.3004953 930.63683075 2283.64502747 930 2284 C931.25093661 2290.53410407 932.5084691 2297.06691294 933.76949024 2303.59907818 C934.48009629 2307.28525479 935.18549207 2310.97235616 935.88409424 2314.66082764 C937.69097899 2324.19836913 939.53264335 2333.72779601 941.43799782 2343.24620628 C942.35282245 2347.82350956 943.24903466 2352.40297466 944.10620117 2356.99145508 C944.95237566 2361.51719492 945.84480717 2366.03159445 946.76907158 2370.54200935 C947.10785387 2372.23504184 947.43062932 2373.93137212 947.73573494 2375.63079643 C950.00969472 2388.21182796 953.63419909 2394.31966391 964 2402 C965.79689651 2403.47280901 967.58942764 2404.95098231 969.375 2406.4375 C970.27347656 2407.16195312 971.17195312 2407.88640625 972.09765625 2408.6328125 C975.38006069 2411.3099822 978.60100217 2414.0510464 981.8125 2416.8125 C982.39926514 2417.3168457 982.98603027 2417.82119141 983.59057617 2418.34082031 C985.99887773 2420.41285855 988.40515205 2422.48724427 990.81152344 2424.56152344 C996.63835913 2429.58161498 1002.46234648 2434.59373649 1008.4375 2439.4375 C1013.48854068 2443.53915271 1018.40128396 2447.78591011 1023.30786133 2452.05786133 C1028.44219334 2456.52592088 1033.62016184 2460.93842908 1038.828125 2465.3203125 C1040.95642087 2467.1122172 1043.06928418 2468.92020074 1045.171875 2470.7421875 C1052.58088591 2477.13773903 1060.27835043 2482.99038827 1068.21728516 2488.7109375 C1080.43196457 2497.54324472 1091.98188213 2506.92529841 1102.9921875 2517.2109375 C1105.38773026 2519.44508374 1107.8271878 2521.6155554 1110.3125 2523.75 C1116.39867635 2529.03065301 1121.92262833 2534.78092826 1127.16796875 2540.890625 C1129.15311587 2543.17629546 1131.2003983 2545.39701378 1133.25 2547.625 C1138.38758169 2553.31397462 1143.053032 2559.33646233 1147.74365234 2565.39257812 C1149.42117322 2567.53886601 1151.14906729 2569.64254533 1152.875 2571.75 C1174.01779897 2598.13517331 1191.83738165 2627.42169978 1207.56103516 2657.27783203 C1208.8928688 2659.79733409 1210.24459525 2662.304691 1211.60546875 2664.80859375 C1247.37679358 2730.99258629 1271.10869438 2805.79424178 1283 2880 C1283.33 2880 1283.66 2880 1284 2880 C1284 1930.92 1284 981.84 1284 4 C861.6 4 439.2 4 4 4 Z M613.41308594 1100.03808594 C601.57760318 1100.26904518 589.8701821 1101.47470478 578.125 1102.875 C577.43479767 1102.95609009 576.74459534 1103.03718018 576.03347778 1103.12072754 C562.58102254 1104.71970564 549.4922498 1107.09721613 536.48828125 1110.98828125 C534.22968023 1111.64335142 531.95575453 1112.24851328 529.66796875 1112.79296875 C511.31303409 1117.18084875 493.56124834 1125.02227664 477 1134 C476.40719238 1134.31646484 475.81438477 1134.63292969 475.20361328 1134.95898438 C436.12327898 1155.94085729 405.0834216 1190.59605655 389 1232 C388.52046875 1233.22589844 388.0409375 1234.45179688 387.546875 1235.71484375 C381.95405488 1251.22986582 379.46507071 1267.55975049 379 1284 C378.29093506 1284.0501123 377.58187012 1284.10022461 376.85131836 1284.15185547 C337.85272135 1286.17746594 337.85272135 1286.17746594 306 1307 C299.61078876 1315.82566502 297.84279776 1323.12253153 299.42578125 1333.8984375 C303.18977731 1351.4945418 315.36527918 1364.37358902 330 1374 C344.19703925 1382.74753111 362.08400793 1391 379 1391 C378.96970703 1392.20495117 378.93941406 1393.40990234 378.90820312 1394.65136719 C378.25950576 1420.77257432 377.83895213 1446.8706026 378 1473 C377.27490234 1473.12366943 376.54980469 1473.24733887 375.80273438 1473.37475586 C354.26253103 1478.18002248 327.25615798 1494.91595807 315.25390625 1513.73828125 C311.28692947 1520.80188193 309.46081841 1526.93762024 311 1535 C314.01244543 1543.86809779 319.40420352 1550.50347136 326 1557 C326.68835938 1557.68707031 327.37671875 1558.37414063 328.0859375 1559.08203125 C341.6913428 1571.90348197 359.1776042 1579.40863138 376 1587 C376.14640764 1616.68245981 375.76938804 1646.32740451 375 1676 C374.37246826 1676.18997559 373.74493652 1676.37995117 373.09838867 1676.57568359 C350.29782682 1683.57430764 326.14147248 1691.76193461 314 1714 C313.071875 1715.670625 313.071875 1715.670625 312.125 1717.375 C309.03447978 1727.33334294 311.43810042 1735.86459295 316 1745 C323.58445761 1757.82462831 337.09014054 1764.47276189 350.6875 1769.3125 C358.82165553 1771.00072096 366.64604242 1771 375 1771 C374.67 1800.37 374.34 1829.74 374 1860 C366.41 1861.98 358.82 1863.96 351 1866 C335.91392861 1871.37952933 318.01689445 1878.29880599 310.4375 1893.5625 C307.93964884 1900.35572137 308.18252374 1904.63385343 311.1574707 1911.19677734 C314.21381968 1917.49745683 317.68532813 1922.42282665 323 1927 C324.19302734 1928.19882813 324.19302734 1928.19882813 325.41015625 1929.421875 C336.63592211 1940.59684554 350.20630038 1948.34891825 363.875 1956.125 C364.55908936 1956.51558594 365.24317871 1956.90617187 365.94799805 1957.30859375 C369.26964484 1959.32368608 369.26964484 1959.32368608 373 1960 C373 1994.32 373 2028.64 373 2064 C359.8 2064 346.6 2064 333 2064 C319.50570264 2066.69885947 306.57046048 2069.96226456 298.0859375 2081.6328125 C292.81498988 2090.20122498 291.95156972 2098.11940866 293 2108 C295.12908911 2116.78368602 299.45708 2123.95664752 305 2131 C305.61746094 2131.82628906 306.23492187 2132.65257813 306.87109375 2133.50390625 C317.97934194 2146.52807248 335.28981758 2153.49753875 352 2155 C355.33498487 2155.11031336 358.66369017 2155.09581185 362 2155.0625 C362.87011719 2155.05798828 363.74023438 2155.05347656 364.63671875 2155.04882812 C366.75784293 2155.0371736 368.8789311 2155.01924357 371 2155 C370.98120789 2156.75691162 370.98120789 2156.75691162 370.96203613 2158.54931641 C370.84164873 2169.83633788 370.7240394 2181.12338569 370.60884857 2192.41046143 C370.54961131 2198.20692373 370.4895429 2204.00337439 370.42724609 2209.79980469 C370.08696552 2241.53438512 369.92905262 2273.26359803 370 2305 C369.0779392 2305.2007194 369.0779392 2305.2007194 368.1372509 2305.40549374 C367.3291453 2305.5829038 366.5210397 2305.76031385 365.68844604 2305.94309998 C364.48794774 2306.20569438 364.48794774 2306.20569438 363.26319695 2306.47359371 C341.89770405 2311.4430816 314.60284599 2321.09573102 302 2340 C298.30411704 2359.75875888 317.45670139 2385.91973307 327.8737793 2401.41723633 C329.2109375 2403.48046875 329.2109375 2403.48046875 331 2407 C329.49180348 2411.18748684 326.32296504 2414.13560344 323.3125 2417.3125 C322.72178711 2417.94260986 322.13107422 2418.57271973 321.52246094 2419.22192383 C317.43222286 2423.54444577 313.24929348 2427.76784566 309.02734375 2431.9609375 C308.25267509 2432.73104408 308.25267509 2432.73104408 307.46235657 2433.51670837 C304.86500999 2436.09619389 302.26066855 2438.66806358 299.64575195 2441.22973633 C298.67519022 2442.18820977 297.70472686 2443.14678284 296.734375 2444.10546875 C295.87038086 2444.95262451 295.00638672 2445.79978027 294.11621094 2446.67260742 C292.22972614 2448.74734895 291.06741549 2450.4317628 290 2453 C304.67768506 2453.32477837 319.35593666 2453.61432939 334.03465421 2453.88822068 C337.22837879 2453.94782788 340.42208626 2454.00815523 343.61577106 2454.06986117 C405.83785724 2455.27176516 468.06665383 2455.13337369 530.297362 2455.10353831 C541.16932031 2455.09841275 552.04127717 2455.09581783 562.91323662 2455.09487724 C563.69427725 2455.0948085 564.47531788 2455.09473976 565.28002641 2455.09466894 C569.24917789 2455.09433044 573.21832937 2455.09402912 577.18748086 2455.09374207 C605.04352717 2455.09166132 632.89957056 2455.0849801 660.75561523 2455.07543945 C687.75756821 2455.06620224 714.75952037 2455.05914479 741.76147461 2455.05493164 C743.01776705 2455.05473435 743.01776705 2455.05473435 744.29943913 2455.05453308 C752.71295464 2455.05321416 761.12647015 2455.0519384 769.53998567 2455.05069422 C786.66764328 2455.04816041 803.79530084 2455.04533917 820.92295837 2455.04234314 C822.10329345 2455.0421372 822.10329345 2455.0421372 823.30747368 2455.04192711 C875.53831702 2455.03278146 927.76915868 2455.01692194 980 2455 C979.05348593 2453.87726562 978.10432139 2452.75676536 977.15405273 2451.63720703 C976.36163429 2450.70087936 976.36163429 2450.70087936 975.5532074 2449.74563599 C973.57184907 2447.51880497 971.41053915 2445.70743497 969.0625 2443.875 C964.44060512 2440.19006068 959.95058212 2436.38997184 955.5 2432.5 C951.12972667 2428.69063793 946.7398493 2424.91884829 942.25 2421.25 C941.44320801 2420.58339355 940.63641602 2419.91678711 939.80517578 2419.22998047 C937.05199115 2416.98466578 937.05199115 2416.98466578 934.19970703 2415.09521484 C927.32030115 2410.18816766 924.65392686 2406.37777154 923.15405273 2398.06762695 C922.97946533 2396.84906006 922.80487793 2395.63049316 922.625 2394.375 C922.17202066 2391.77188307 921.71757678 2389.1690206 921.26171875 2386.56640625 C921.05208496 2385.28266113 920.84245117 2383.99891602 920.62646484 2382.67626953 C919.74623449 2377.51083357 918.60303867 2372.41957189 917.4375 2367.3125 C915.66735308 2359.31706789 914.07808886 2351.29728405 912.5625 2343.25 C910.67851809 2333.25628509 908.55485522 2323.33624816 906.30761719 2313.41845703 C904.06521351 2303.45717601 902.0492777 2293.45683243 900.09204102 2283.43652344 C898.55089525 2275.58460962 896.84874585 2267.78530118 895 2260 C896.23234375 2259.98582031 897.4646875 2259.97164062 898.734375 2259.95703125 C919.02221546 2259.47848632 933.66739566 2251.13867071 949 2238 C949.84433594 2237.28972656 950.68867187 2236.57945313 951.55859375 2235.84765625 C962.98027114 2225.95582301 973.87137136 2212.91447203 975.23828125 2197.2734375 C975.56044889 2184.69194324 971.53408767 2176.1116909 963 2167 C946.53210832 2149.88945889 922.25129716 2137.73638872 900 2130 C899.34 2130 898.68 2130 898 2130 C898.33 2106.9 898.66 2083.8 899 2060 C906.26 2058.68 913.52 2057.36 921 2056 C942.4288632 2048.14718678 957.82135928 2038.64918168 968.10546875 2017.75390625 C971.88465938 2008.36802905 971.29160184 1996.84209839 967.38671875 1987.62109375 C957.08653826 1968.15230189 939.57766893 1958.74249241 919.30078125 1952.4765625 C911.19239808 1950.12179917 902.48180414 1948 894 1948 C894 1919.62 894 1891.24 894 1862 C899.28 1861.67 904.56 1861.34 910 1861 C913.023929 1860.50411454 915.81533609 1860.01050513 918.75 1859.25 C919.45334473 1859.0751709 920.15668945 1858.9003418 920.88134766 1858.72021484 C927.19461332 1857.08109709 933.12530693 1854.84178929 939 1852 C939.92167969 1851.55914063 940.84335937 1851.11828125 941.79296875 1850.6640625 C954.78130217 1844.03250157 966.41972283 1834.39319759 972.1171875 1820.734375 C973.92660369 1815.12998857 973.87962517 1810.4101792 971.5 1805 C958.42305362 1782.22807612 926.71624816 1772.41776867 903 1766 C900.69 1765.67 898.38 1765.34 896 1765 C896 1735.3 896 1705.6 896 1675 C904.25 1675 912.5 1675 921 1675 C938.21348744 1672.73155592 952.32642153 1667.06771603 964 1654 C970.170365 1645.42884158 972.01487758 1637.52935485 971 1627 C969.6716695 1620.05947312 966.17953827 1614.59996815 962 1609 C961.39800781 1608.17886719 960.79601562 1607.35773438 960.17578125 1606.51171875 C944.74269575 1588.69578702 918.98124625 1585.42122303 897 1583 C897.04543945 1581.42206665 897.04543945 1581.42206665 897.09179688 1579.81225586 C897.85997964 1552.39305918 898.09173709 1524.99054144 898.0625 1497.5625 C898.06164398 1496.75372784 898.06078796 1495.94495567 898.05990601 1495.11167526 C898.04849497 1485.07442704 898.02838881 1475.03721503 898 1465 C899.19740814 1465.1041346 899.19740814 1465.1041346 900.41900635 1465.21037292 C901.47988464 1465.30103531 902.54076294 1465.39169769 903.63378906 1465.48510742 C905.2024472 1465.62017952 905.2024472 1465.62017952 906.80279541 1465.75798035 C927.46119564 1467.32176481 947.98013965 1466.62416792 965.3125 1453.75 C973.10033703 1445.78105049 977.92643645 1437.45654946 978.5 1426.25 C978.17652403 1415.20962458 973.30369133 1406.0308987 966 1398 C965.19949219 1397.07960938 965.19949219 1397.07960938 964.3828125 1396.140625 C949.08559941 1379.59914099 923.73839005 1373.07601745 902 1371 C900.00009725 1370.98027739 897.99986089 1370.97641126 896 1371 C896.01595215 1370.0200708 896.0319043 1369.0401416 896.04833984 1368.03051758 C896.16829629 1357.12058766 895.63083163 1346.32260566 894.828125 1335.44458008 C894.62600376 1332.70112433 894.43335532 1329.95712918 894.2421875 1327.21289062 C891.00672967 1281.57602729 886.68340168 1231.75067535 858 1194 C857.35546875 1193.14792969 856.7109375 1192.29585937 856.046875 1191.41796875 C851.31760982 1185.35743404 846.23541892 1179.62558012 841 1174 C840.02353516 1172.92492188 840.02353516 1172.92492188 839.02734375 1171.828125 C827.03228069 1159.16281757 812.06900936 1149.58047121 797 1141 C796.26088379 1140.5762207 795.52176758 1140.15244141 794.76025391 1139.71582031 C773.77764964 1127.81851452 751.0715733 1119.8109671 728 1113 C726.92226318 1112.67974854 726.92226318 1112.67974854 725.82275391 1112.35302734 C689.6076109 1101.8342203 650.91543165 1099.48595627 613.41308594 1100.03808594 Z M215 2538 C213.97146437 2539.29018964 212.94139172 2540.57915479 211.91015625 2541.8671875 C193.18142785 2565.40765516 177.11639475 2590.6328443 162.2734375 2616.76171875 C161.07580715 2618.86675615 159.86663105 2620.96477878 158.65625 2623.0625 C125.00049743 2681.94596149 104.81930806 2747.03653378 85.04614258 2811.59960938 C84.13726912 2814.5538193 83.21783471 2817.50447654 82.29255676 2820.45358276 C79.13358407 2830.52217994 76.04580076 2840.61221959 72.97094727 2850.70678711 C72.0689369 2853.66637985 71.1643688 2856.62518327 70.25976562 2859.58398438 C65.00743971 2876.79921625 59.90830324 2894.04682915 55.5 2911.5 C53.46846268 2919.46209816 51.33719556 2927.3726117 49 2935.25 C45.31245046 2947.80101927 42.61415063 2960.58972016 39.80957031 2973.359375 C39.09131751 2976.58934661 38.34834495 2979.81146917 37.5859375 2983.03125 C34.69001686 2995.27778871 32.32168718 3007.54851157 30.45410156 3019.99511719 C30.15976901 3021.9427758 29.85506623 3023.88890668 29.53808594 3025.83300781 C24.48447511 3057.12610121 26.01412467 3089.66174644 30 3121 C30.14453613 3122.14452637 30.28907227 3123.28905273 30.43798828 3124.46826172 C38.95915182 3189.62732511 65.26447888 3253.74010508 108 3304 C109.17755859 3305.4540625 109.17755859 3305.4540625 110.37890625 3306.9375 C117.13336346 3315.1837936 124.54920053 3322.76428381 132.0625 3330.3125 C132.56911163 3330.82428802 133.07572327 3331.33607605 133.59768677 3331.8633728 C140.39285881 3338.71320396 147.41713202 3345.01288538 155 3351 C156.16926378 3351.9528401 157.33744197 3352.90701605 158.50390625 3353.86328125 C176.78473492 3368.50195248 196.83096764 3380.98759778 217.98291016 3391.04101562 C219.31384652 3391.67378227 220.64174492 3392.31298412 221.96630859 3392.95898438 C256.49579965 3409.72632157 296.66714598 3420.12306937 335.08984375 3420.16796875 C336.11445206 3420.17129715 337.13906036 3420.17462555 338.19471741 3420.17805481 C340.35189368 3420.18308415 342.50907763 3420.18546438 344.66625977 3420.18530273 C347.89808646 3420.18747353 351.12956227 3420.20562944 354.36132812 3420.22460938 C372.37838999 3420.27491563 389.88343986 3418.82731223 407.625 3415.6875 C408.87442383 3415.46658691 410.12384766 3415.24567383 411.41113281 3415.01806641 C421.17380012 3413.24085112 430.55810214 3411.02837526 440 3408 C441.1751416 3407.63132812 442.3502832 3407.26265625 443.56103516 3406.8828125 C462.23447798 3401.01178499 480.29689996 3394.42128799 498 3386 C498.87366211 3385.58927246 499.74732422 3385.17854492 500.64746094 3384.75537109 C514.21956266 3378.33641327 527.29658685 3371.00211416 540 3363 C540.72686414 3362.6233895 541.45372828 3362.246779 542.2026186 3361.85875607 C546.94378904 3359.27360324 546.94378904 3359.27360324 549.80070019 3354.90954399 C550.06327208 3352.35097198 550.03779303 3349.93190668 549.9140625 3347.36254883 C549.90410751 3346.39294157 549.89415253 3345.42333431 549.88389587 3344.42434502 C549.84008189 3341.16216227 549.73200289 3337.90520726 549.625 3334.64453125 C549.58155438 3332.29758647 549.5425313 3329.95055632 549.50756836 3327.60346985 C549.42444799 3322.48196153 549.31508592 3317.36187399 549.18798828 3312.24127197 C548.97946362 3303.73236306 548.87245244 3295.22322391 548.77734375 3286.71240234 C548.74300878 3283.72190877 548.70816995 3280.73142127 548.6730957 3277.74093628 C548.65997361 3276.61865582 548.65997361 3276.61865582 548.64658642 3275.47370303 C548.54672809 3267.07788037 548.41937402 3258.68250638 548.2890625 3250.28710938 C548.27727526 3249.52632576 548.26548801 3248.76554214 548.25334358 3247.98170447 C548.20545939 3244.89441786 548.15746162 3241.80713305 548.10924435 3238.71985161 C547.98503545 3230.76004929 547.86564932 3222.80017628 547.74648476 3214.8402971 C547.50266103 3198.56011883 547.2527216 3182.28004295 547 3166 C556.57 3166 566.14 3166 576 3166 C576.03758423 3171.18505249 576.03758423 3171.18505249 576.07592773 3176.47485352 C576.19282741 3192.50409666 576.31395105 3208.5333069 576.4375 3224.5625 C576.44301424 3225.27870624 576.44852847 3225.99491248 576.4542098 3226.73282194 C576.78119549 3269.15850748 577.15232491 3311.58081212 578 3354 C583.9304246 3357.08225449 589.92307059 3359.63714155 596.1640625 3362.01953125 C597.13613144 3362.39444702 598.10820038 3362.76936279 599.10972595 3363.15563965 C601.19442443 3363.95932407 603.27978722 3364.76128708 605.36575317 3365.56167603 C610.93588469 3367.6993644 616.50079296 3369.85058197 622.06640625 3372 C623.74055855 3372.64597893 623.74055855 3372.64597893 625.4485321 3373.30500793 C634.83746204 3376.93010625 644.20547917 3380.60594188 653.5625 3384.3125 C656.628812 3385.52627986 659.69524411 3386.73975608 662.76171875 3387.953125 C663.55530792 3388.26719299 664.34889709 3388.58126099 665.16653442 3388.90484619 C676.72795015 3393.4778916 688.30232909 3398.01803442 699.875 3402.5625 C702.27807719 3403.50626367 704.68115336 3404.45002996 707.08422852 3405.39379883 C711.9594264 3407.30838604 716.83468077 3409.22282936 721.70996094 3411.13720703 C728.83034009 3413.93325257 735.95038543 3416.73014726 743.0703125 3419.52734375 C744.2228653 3419.98013702 745.37541809 3420.4329303 746.56289673 3420.89944458 C752.34165484 3423.16973419 758.12033888 3425.44021214 763.89892578 3427.7109375 C774.80736054 3431.99723597 785.71645788 3436.28182722 796.62780762 3440.56069946 C801.13766638 3442.32925072 805.64720297 3444.09862281 810.15666962 3445.8681736 C813.22689735 3447.072882 816.2973637 3448.27697645 819.36816406 3449.48022461 C822.761517 3450.80989285 826.15425488 3452.14111957 829.546875 3453.47265625 C830.53194031 3453.85817154 831.51700562 3454.24368683 832.53192139 3454.6408844 C833.47368225 3455.0108403 834.41544312 3455.3807962 835.38574219 3455.76196289 C836.76002884 3456.30175278 836.76002884 3456.30175278 838.16207886 3456.85244751 C840.1731504 3457.66565198 842.17231913 3458.50858004 844.16238403 3459.37191772 C845.20820648 3459.82531525 846.25402893 3460.27871277 847.33154297 3460.74584961 C848.27061493 3461.16217148 849.20968689 3461.57849335 850.17721558 3462.00743103 C855.1812991 3463.76700501 860.12674903 3463.6549841 865.375 3463.5 C866.46844727 3463.48227539 867.56189453 3463.46455078 868.68847656 3463.44628906 C876.80373764 3463.23177815 884.1970871 3462.32169465 892 3460 C892.98613281 3459.74476563 893.97226562 3459.48953125 894.98828125 3459.2265625 C927.04747622 3450.34612476 956.78833505 3431.46632748 984.18255615 3413.21008301 C986.16282898 3411.89158588 988.14496893 3410.57592953 990.12744141 3409.26074219 C1006.08373079 3398.67394994 1022.00536954 3388.03969287 1037.81835938 3377.23974609 C1045.31627684 3372.12539534 1052.8579425 3367.07961658 1060.41513062 3362.05352783 C1085.2245263 3345.74903669 1085.2245263 3345.74903669 1109 3328 C1109.64114746 3327.48888672 1110.28229492 3326.97777344 1110.94287109 3326.45117188 C1129.50238141 3311.61057217 1147.77690534 3295.31693376 1163 3277 C1163.75410156 3276.11183594 1164.50820312 3275.22367188 1165.28515625 3274.30859375 C1167.88430444 3271.22737789 1170.44944736 3268.12139531 1173 3265 C1173.73605469 3264.10539062 1174.47210937 3263.21078125 1175.23046875 3262.2890625 C1201.0991975 3229.78618472 1220.31486945 3192.70862433 1235 3154 C1235.53753906 3152.58944336 1235.53753906 3152.58944336 1236.0859375 3151.15039062 C1245.61218244 3125.84854081 1251.54304591 3099.61901585 1256 3073 C1256.16516113 3072.03416992 1256.33032227 3071.06833984 1256.50048828 3070.07324219 C1257.0132483 3067.05081509 1257.50908392 3064.02604851 1258 3061 C1258.26321045 3059.42134155 1258.26321045 3059.42134155 1258.53173828 3057.81079102 C1262.15140586 3034.98194467 1262.36446674 3012.17860484 1262.3125 2989.125 C1262.31124367 2988.36272346 1262.30998734 2987.60044693 1262.30869293 2986.81507111 C1262.26319643 2961.95284625 1261.8617324 2937.31324605 1258.6875 2912.625 C1258.57540192 2911.73591949 1258.46330383 2910.84683899 1258.34780884 2909.93081665 C1254.21736896 2877.18392269 1248.21580094 2844.76736892 1238.63183594 2813.14306641 C1237.62910626 2809.74199953 1236.75673084 2806.30899478 1235.875 2802.875 C1234.53035104 2797.76201383 1232.91907964 2792.8743389 1231.0390625 2787.9375 C1230.07130462 2785.20158299 1229.26778392 2782.45251331 1228.49975586 2779.6550293 C1213.86281093 2726.80822205 1186.77703091 2673.7335622 1157 2628 C1156.32759277 2626.96262695 1155.65518555 2625.92525391 1154.96240234 2624.85644531 C1147.51656766 2613.40481813 1139.97039816 2602.16349353 1131.29882812 2591.60205078 C1129.91771399 2589.89850362 1128.57308261 2588.17063709 1127.234375 2586.43359375 C1122.22300305 2579.93584976 1117.08410728 2573.70054264 1111.484375 2567.6953125 C1109.56664595 2565.6147574 1107.71635804 2563.50962444 1105.875 2561.36328125 C1101.67223076 2556.54492061 1097.19701233 2552.01093505 1092.67675781 2547.49145508 C1091.26080053 2546.07331716 1089.85301711 2544.64703335 1088.4453125 2543.22070312 C1083.03413197 2537.79821791 1077.47260222 2532.76934235 1071.48632812 2527.98925781 C1069.38831381 2526.31068155 1067.34921062 2524.59353091 1065.328125 2522.82421875 C1055.81748044 2514.61945451 1045.27559477 2507.50521171 1034.4375 2501.1875 C1033.74430664 2500.78055908 1033.05111328 2500.37361816 1032.33691406 2499.9543457 C1030.87258117 2499.1220667 1029.39089065 2498.3197629 1027.89537048 2497.54492188 C1025.82394776 2496.43964492 1023.79356662 2495.25605908 1021.79512024 2494.02372742 C1008.83738231 2486.51826401 995.7612437 2486.80893772 981.14458728 2486.8506639 C977.37614667 2486.85223149 973.60818162 2486.80667877 969.83998108 2486.76777649 C963.10005501 2486.70457184 956.36046777 2486.67097573 949.62026978 2486.65597534 C939.43206661 2486.63300169 929.24453109 2486.56367084 919.05662072 2486.48548305 C900.51427882 2486.34456557 881.97186567 2486.24405353 863.42919922 2486.15771484 C840.54261247 2486.05047239 817.656338 2485.91368722 794.77001953 2485.76025391 C793.55752828 2485.75213415 793.55752828 2485.75213415 792.32054225 2485.74385035 C783.12743274 2485.68225605 773.93432685 2485.62013402 764.74122238 2485.55779266 C747.41961508 2485.44034906 730.09799371 2485.32501923 712.77636719 2485.21044922 C711.90769881 2485.20469883 711.03903043 2485.19894844 710.14403877 2485.1930238 C683.59901199 2485.01738063 657.05393801 2484.85186542 630.50878906 2484.69580078 C629.68880432 2484.69097662 628.86881958 2484.68615245 628.02398682 2484.6811821 C619.7995999 2484.63280326 611.5752121 2484.58457733 603.35082394 2484.53641121 C550.41086159 2484.22632194 497.47121577 2483.89110217 444.53184053 2483.49228469 C442.47341729 2483.47680326 440.41499352 2483.46139288 438.35656953 2483.4460113 C393.50133856 2483.11080497 348.64704868 2482.70185447 303.79294682 2482.24025154 C302.8834441 2482.23120234 301.97394139 2482.22215313 301.03687799 2482.21282971 C299.189748 2482.1929507 297.34264783 2482.17012893 295.49558604 2482.14469039 C294.14404903 2482.12690715 294.14404903 2482.12690715 292.76520824 2482.10876465 C291.96800718 2482.09728708 291.17080611 2482.08580952 290.34944743 2482.07398415 C260.50229186 2482.0991833 231.84129485 2516.17185811 215 2538 Z M1283 3087 C1282.78234985 3088.06806885 1282.78234985 3088.06806885 1282.56030273 3089.15771484 C1268.25002984 3158.87500072 1241.99958457 3223.6120149 1198 3280 C1197.32066406 3280.88042969 1196.64132812 3281.76085938 1195.94140625 3282.66796875 C1193.997967 3285.14474268 1192.00886824 3287.57601508 1190 3290 C1188.79730469 3291.48113281 1188.79730469 3291.48113281 1187.5703125 3292.9921875 C1180.01309358 3302.10745861 1171.72320823 3310.49251104 1163.375 3318.875 C1162.79849701 3319.45667938 1162.22199402 3320.03835876 1161.62802124 3320.63766479 C1154.4059091 3327.91080391 1147.0357886 3334.62546419 1139 3341 C1137.90988042 3341.92303414 1136.82527271 3342.85268086 1135.75 3343.79296875 C1119.7876478 3357.69200554 1102.21288832 3369.35349189 1084.5 3380.875 C1080.67472311 3383.3687986 1076.8517054 3385.86600865 1073.03125 3388.3671875 C1071.67350464 3389.25600616 1071.67350464 3389.25600616 1070.28833008 3390.16278076 C1064.95121978 3393.67208121 1059.73444655 3397.29363232 1054.60839844 3401.10644531 C1050.88611197 3403.80862182 1047.05050486 3406.33339892 1043.21490479 3408.87011719 C1037.80358839 3412.45252294 1032.43729462 3416.09794629 1027.078125 3419.7578125 C1007.40686829 3433.16694062 987.7854666 3446.36626539 967 3458 C966.02885254 3458.54881836 965.05770508 3459.09763672 964.05712891 3459.66308594 C933.38129484 3476.95263399 901.75240857 3491.99567913 865.875 3492.25 C864.53381104 3492.26401855 864.53381104 3492.26401855 863.16552734 3492.27832031 C852.18235428 3492.22616278 842.33628775 3490.16271676 832.203125 3485.984375 C831.1969664 3485.58128616 830.1908078 3485.17819733 829.15415955 3484.76289368 C825.84832874 3483.43601801 822.54938316 3482.092818 819.25 3480.75 C816.89550409 3479.80254747 814.54042968 3478.85653143 812.18481445 3477.91186523 C808.50687185 3476.43665083 804.82910852 3474.96103122 801.15351868 3473.47996521 C789.34887309 3468.72451677 777.50737921 3464.06454998 765.65783691 3459.42224121 C760.98318362 3457.59062691 756.30978559 3455.75582045 751.63632202 3453.9211731 C748.10712986 3452.53580831 744.57775107 3451.15091986 741.04833984 3449.76611328 C728.1984895 3444.72379509 715.35142338 3439.67438568 702.50384521 3434.62628174 C699.00648705 3433.25211247 695.50911032 3431.87799048 692.01171875 3430.50390625 C690.857323 3430.05035767 689.70292725 3429.59680908 688.5135498 3429.1295166 C681.48422622 3426.3680404 674.45426757 3423.60818781 667.42378235 3420.84967041 C662.72054129 3419.00418721 658.01758 3417.15799154 653.31460571 3415.31182861 C649.84375632 3413.9497659 646.37244653 3412.58888127 642.90112305 3411.22802734 C631.50754734 3406.75805351 620.12585261 3402.26051199 608.7655735 3397.70667458 C604.4649622 3395.98364023 600.16227109 3394.26579991 595.86019897 3392.54641724 C592.38250091 3391.15304649 588.9086508 3389.75037679 585.43481445 3388.34741211 C583.32781545 3387.50459863 581.22064714 3386.66220822 579.11328125 3385.8203125 C578.15772339 3385.4308696 577.20216553 3385.0414267 576.21765137 3384.6401825 C575.33540894 3384.28986465 574.4531665 3383.93954681 573.54418945 3383.57861328 C572.78266068 3383.27190704 572.0211319 3382.96520081 571.23652649 3382.64920044 C566.99656553 3381.41845959 564.64323014 3381.65055286 560.75 3383.765625 C559.49393659 3384.5845241 558.24434102 3385.41339588 557 3386.25 C555.56729013 3387.17656592 554.13227622 3388.09957623 552.6953125 3389.01953125 C551.93379883 3389.50760254 551.17228516 3389.99567383 550.38769531 3390.49853516 C507.40891668 3417.52506773 459.15749227 3435.98728828 409.1875 3444.75 C408.05666992 3444.94875732 406.92583984 3445.14751465 405.76074219 3445.35229492 C387.64446454 3448.38249823 369.85392199 3449.37559506 351.5 3449.3125 C350.39849609 3449.31067719 349.29699219 3449.30885437 348.16210938 3449.30697632 C331.59043288 3449.26084036 315.37441696 3448.76321656 299 3446 C297.94135742 3445.82839355 296.88271484 3445.65678711 295.79199219 3445.47998047 C239.44497016 3436.14995418 185.58531636 3412.77278791 141 3377 C140.1946582 3376.36022217 140.1946582 3376.36022217 139.37304688 3375.70751953 C133.50515758 3371.0416011 127.86674083 3366.16031396 122.328125 3361.109375 C120.26846967 3359.24324433 118.17611105 3357.42930212 116.0625 3355.625 C108.11158733 3348.68807012 100.80964668 3341.05038739 94 3333 C93.2265625 3332.11570312 92.453125 3331.23140625 91.65625 3330.3203125 C74.04999163 3310.07145754 58.84751641 3287.91965128 46.21044922 3264.26074219 C44.96768866 3261.93965248 43.70533299 3259.62993402 42.44140625 3257.3203125 C24.07110749 3223.46249241 13.21328033 3186.46824609 5 3149 C4.67 3149 4.34 3149 4 3149 C4 3420.26 4 3691.52 4 3971 C426.4 3971 848.8 3971 1284 3971 C1284 3679.28 1284 3387.56 1284 3087 C1283.67 3087 1283.34 3087 1283 3087 Z " fill="#010101" transform="translate(3,0)"/>
<path d="M0 0 C425.04 0 850.08 0 1288 0 C1288 961.29 1288 1922.58 1288 2913 C1287.67 2913 1287.34 2913 1287 2913 C1283.1028529 2889.55570247 1283.5766134 2866.01429576 1283.62548765 2842.32812345 C1283.63475425 2836.19698369 1283.62638472 2830.06586194 1283.62036702 2823.93472159 C1283.61219128 2813.16555143 1283.61501026 2802.3964418 1283.62535045 2791.627277 C1283.63643201 2780.02123176 1283.64080886 2768.41521149 1283.63730332 2756.8091612 C1283.63708436 2756.07095376 1283.6368654 2755.33274632 1283.6366398 2754.57216896 C1283.63549217 2750.80242406 1283.63423937 2747.0326792 1283.63295073 2743.26293435 C1283.62378243 2715.78439765 1283.62933901 2688.30587917 1283.64238358 2660.82734489 C1283.65555136 2632.98617398 1283.66212766 2605.14501285 1283.66067696 2577.30383873 C1283.66063408 2576.42499292 1283.66059121 2575.54614712 1283.66054704 2574.64066962 C1283.66015177 2566.58637049 1283.65968342 2558.53207137 1283.65912804 2550.47777226 C1283.65773897 2530.28331067 1283.65734113 2510.08884912 1283.65760171 2489.89438748 C1283.65761296 2488.96912417 1283.6576242 2488.04386085 1283.65763578 2487.09055925 C1283.65827795 2441.50409524 1283.67017805 2395.91763493 1283.68280983 2350.33117294 C1283.68724749 2334.28817672 1283.69163157 2318.24518049 1283.69581819 2302.2021842 C1283.69607849 2301.20486421 1283.69633879 2300.20754422 1283.69660698 2299.18000241 C1283.7086052 2252.95813549 1283.71289438 2206.73626884 1283.71521609 2160.51440055 C1283.71536837 2157.49045512 1283.71552427 2154.4665097 1283.71568111 2151.44256428 C1283.71662342 2133.20783875 1283.71748552 2114.97311322 1283.71825503 2096.73838768 C1283.72017142 2051.40942924 1283.72304971 2006.08047088 1283.72658062 1960.75151253 C1283.72666052 1959.71964211 1283.72674042 1958.68777169 1283.72682274 1957.62463246 C1283.73200426 1890.80809304 1283.7411452 1823.99155486 1283.75360584 1757.1750164 C1283.75390414 1755.57519737 1283.75390414 1755.57519737 1283.75420847 1753.94305877 C1283.76027037 1721.4775071 1283.76662557 1689.01195549 1283.77303817 1656.54640389 C1283.78013318 1620.61941658 1283.78717815 1584.69242926 1283.79400635 1548.76544189 C1283.7943146 1547.14490555 1283.7943146 1547.14490555 1283.79462907 1545.4916311 C1283.81392654 1443.95402391 1283.82532797 1342.41641636 1283.83460481 1240.87880782 C1283.83520571 1234.30656457 1283.83581322 1227.73432131 1283.83642202 1221.16207805 C1283.84276348 1152.66947228 1283.84872442 1084.17686648 1283.85452034 1015.68426067 C1283.85464506 1014.21088389 1283.85464506 1014.21088389 1283.85477231 1012.70774192 C1283.855157 1008.16279656 1283.85554125 1003.6178512 1283.85592424 999.07290584 C1283.88395941 667.38193256 1283.94444864 335.69097196 1284 4 C861.6 4 439.2 4 4 4 C4.01571045 94.78351563 4.0314209 185.56703125 4.04760742 279.1015625 C4.06714843 396.97064199 4.06714843 396.97064199 4.075245 449.81744899 C4.07552645 451.65262633 4.07580792 453.48780367 4.07608939 455.32298102 C4.07623049 456.24320912 4.07637159 457.16343723 4.07651697 458.11155103 C4.07695691 460.9788671 4.0773977 463.84618316 4.07783873 466.71349923 C4.09367362 569.68018785 4.10776265 672.64687656 4.12671701 858.10574173 C4.12702968 861.30468157 4.12734299 864.50362141 4.12765651 867.70256125 C4.13653924 958.34787846 4.14483977 1048.99319572 4.15236078 1139.63851306 C4.15263915 1142.99348379 4.15291756 1146.34845451 4.15319599 1149.70342523 C4.15328794 1150.81151315 4.15337989 1151.91960108 4.15347463 1153.06126743 C4.15693372 1194.72665835 4.16052582 1236.39204926 4.16419732 1278.05744016 C4.16459611 1282.58444085 4.16499338 1287.11144153 4.16538927 1291.63844222 C4.17473499 1398.49311347 4.18647127 1505.34778369 4.20599365 1612.20245361 C4.20619896 1613.32709549 4.20640426 1614.45173737 4.20661579 1615.61045931 C4.21344682 1653.00968579 4.22051006 1690.40891223 4.22760532 1727.80813867 C4.23401548 1761.59989597 4.24034225 1795.39165328 4.24639416 1829.18341064 C4.246593 1830.29349782 4.24679185 1831.40358499 4.24699672 1832.54731117 C4.25942844 1902.07147789 4.268248 1971.59564437 4.27341938 2041.11981201 C4.27349973 2042.19364214 4.27358008 2043.26747227 4.27366287 2044.37384271 C4.2771889 2091.53472518 4.27996184 2138.69560765 4.2818737 2185.85649021 C4.28264635 2204.82990823 4.28353054 2223.80332624 4.28447582 2242.77674425 C4.28463163 2245.92266874 4.28478381 2249.06859323 4.28493561 2252.21451772 C4.28728343 2300.33545929 4.29211915 2348.45639897 4.30418181 2396.57733917 C4.30444191 2397.61508986 4.30470201 2398.65284054 4.30496999 2399.72203822 C4.3091693 2416.4157209 4.31357613 2433.10940353 4.31801878 2449.80308615 C4.33063202 2497.19897105 4.34184509 2544.59485397 4.34239829 2591.99074078 C4.34241021 2592.95261904 4.34242213 2593.9144973 4.34243442 2594.90552339 C4.34266482 2615.89169784 4.34207598 2636.87787218 4.34068569 2657.86404658 C4.3401444 2666.23425897 4.33971532 2674.60447137 4.33932304 2682.97468376 C4.33927734 2683.88773055 4.33923163 2684.80077733 4.33918454 2685.7414922 C4.33778921 2714.69079288 4.34562994 2743.64008118 4.35882619 2772.58937862 C4.37178578 2801.10140562 4.37563692 2829.6134173 4.36627048 2858.12544624 C4.36498802 2862.03395033 4.36381072 2865.94245444 4.36269668 2869.85095859 C4.3624746 2870.61610173 4.36225251 2871.38124488 4.3620237 2872.16957418 C4.35880103 2884.2142778 4.36557471 2896.25895358 4.37667444 2908.30365164 C4.38734039 2920.10012804 4.3870369 2931.89656108 4.37590322 2943.69303736 C4.37028596 2949.96820848 4.36929177 2956.2432814 4.38170573 2962.51844496 C4.39290429 2968.22364168 4.39003269 2973.92865994 4.37642879 2979.63384987 C4.37394694 2981.66869271 4.37635535 2983.70354985 4.38461016 2985.73837746 C4.43995815 3000.35882572 3.10670644 3014.53358713 1 3029 C0.67 3029 0.34 3029 0 3029 C0 2029.43 0 1029.86 0 0 Z " fill="#FDFDFD" transform="translate(3,0)"/>
<path d="M0 0 C0.33 0 0.66 0 1 0 C1 302.94 1 605.88 1 918 C-424.04 918 -849.08 918 -1287 918 C-1287 635.85 -1287 353.7 -1287 63 C-1286.67 63 -1286.34 63 -1286 63 C-1282.8158686 80.87604477 -1282.57441209 98.56636622 -1282.63320275 116.65674068 C-1282.64362419 120.90722852 -1282.63636044 125.1576951 -1282.63145447 129.40818787 C-1282.62525659 136.84453285 -1282.63010187 144.28080533 -1282.64235461 151.71714187 C-1282.66074924 162.91806651 -1282.66145659 174.11894782 -1282.65895871 185.31988486 C-1282.65524205 204.09560463 -1282.66507286 222.8712928 -1282.68327332 241.64700317 C-1282.70783918 267.03429288 -1282.71358531 292.42152864 -1282.71618652 317.80883789 C-1282.73192899 378.83089834 -1282.77381243 439.85294978 -1282.8125 500.875 C-1282.874375 637.20625 -1282.93625 773.5375 -1283 914 C-860.6 914 -438.2 914 -3 914 C-3.11880837 622.18065579 -3.11880837 622.18065579 -3.27026367 330.36132812 C-3.28381348 273.97558594 -3.28381348 273.97558594 -3.28633118 247.59558105 C-3.2893153 227.91919225 -3.302252 208.24283439 -3.32002028 188.56645427 C-3.33790235 168.49231379 -3.34450457 148.4181928 -3.34033485 128.34404466 C-3.3381862 116.41587012 -3.34411242 104.48776823 -3.36242279 92.55960717 C-3.37370735 84.67142933 -3.37398547 76.7832995 -3.36550602 68.8951183 C-3.36099319 64.41013351 -3.36106611 59.92528771 -3.37464774 55.44031811 C-3.42807032 36.75937326 -3.07604315 18.49215887 0 0 Z " fill="#FDFDFD" transform="translate(1290,3057)"/>
</svg>
