<?xml version="1.0" encoding="UTF-8"?>
<!DOCTYPE svg PUBLIC "-//W3C//DTD SVG 1.1//EN" "http://www.w3.org/Graphics/SVG/1.1/DTD/svg11.dtd">
<svg xmlns="http://www.w3.org/2000/svg" version="1.1" width="1347px" height="3975px" style="shape-rendering:geometricPrecision; text-rendering:geometricPrecision; image-rendering:optimizeQuality; fill-rule:evenodd; clip-rule:evenodd" xmlns:xlink="http://www.w3.org/1999/xlink">
<g><path style="opacity:0.853" fill="#fefefe" d="M -0.5,-0.5 C 448.5,-0.5 897.5,-0.5 1346.5,-0.5C 1346.5,1324.5 1346.5,2649.5 1346.5,3974.5C 897.5,3974.5 448.5,3974.5 -0.5,3974.5C -0.5,2649.5 -0.5,1324.5 -0.5,-0.5 Z M 1342.5,3.5 C 1342.67,309.5 1342.5,615.5 1342,921.5C 1330.36,812.376 1283.53,721.876 1201.5,650C 1167.72,621.27 1129.39,600.603 1086.5,588C 1051.92,579.135 1016.92,577.135 981.5,582C 940.456,585.463 901.123,595.463 863.5,612C 846.436,620.417 830.436,630.417 815.5,642C 803.167,653 790.833,664 778.5,675C 757.487,693.339 733.153,700.006 705.5,695C 681.12,690.429 657.453,683.429 634.5,674C 580.197,650.85 526.864,625.516 474.5,598C 454.29,587.597 432.957,580.597 410.5,577C 382.143,575.47 354.81,580.137 328.5,591C 294.462,604.018 261.129,618.684 228.5,635C 197.325,656.42 166.325,678.087 135.5,700C 109.073,720.426 85.2393,743.593 64,769.5C 33.0175,810.092 16.0175,856.092 13,907.5C 9.01039,963.082 11.3437,1018.42 20,1073.5C 34.6683,1169.83 61.6683,1262.5 101,1351.5C 110.982,1372.8 121.982,1393.47 134,1413.5C 165.167,1458 196.333,1502.5 227.5,1547C 215.306,1564.22 206.473,1583.06 201,1603.5C 198.067,1624.72 205.234,1641.55 222.5,1654C 239.319,1664.91 257.319,1673.41 276.5,1679.5C 277.327,1683.46 277.827,1687.46 278,1691.5C 278.21,1724.52 278.71,1757.52 279.5,1790.5C 240.217,1795.64 212.051,1815.97 195,1851.5C 182.381,1887.98 192.215,1916.48 224.5,1937C 242.166,1945.58 260.832,1950.08 280.5,1950.5C 281.413,1971.17 281.413,1991.84 280.5,2012.5C 258.127,2023.77 238.627,2038.77 222,2057.5C 200.712,2087.7 203.879,2115.2 231.5,2140C 246.883,2151.36 263.883,2159.52 282.5,2164.5C 283.499,2179.49 283.833,2194.49 283.5,2209.5C 253.041,2214.97 230.541,2231.3 216,2258.5C 206.673,2282.54 209.673,2304.88 225,2325.5C 241.458,2343.32 261.291,2355.99 284.5,2363.5C 285.833,2381.5 285.833,2399.5 284.5,2417.5C 263.052,2426.79 244.218,2439.79 228,2456.5C 201.417,2492.71 205.25,2525.54 239.5,2555C 253.885,2566.2 269.551,2575.36 286.5,2582.5C 287.666,2596.82 287.833,2611.16 287,2625.5C 257.149,2633.74 232.483,2649.74 213,2673.5C 193.057,2700.14 191.391,2727.81 208,2756.5C 229.661,2782.24 257.494,2795.24 291.5,2795.5C 305.313,2860 339.98,2909.83 395.5,2945C 447.396,2975.07 503.396,2992.07 563.5,2996C 645.951,3002.65 724.951,2989.31 800.5,2956C 883.327,2917.26 928.827,2852.1 937,2760.5C 939.434,2740.23 940.934,2719.9 941.5,2699.5C 974.108,2695.05 1000.94,2680.38 1022,2655.5C 1038.51,2631.84 1040.84,2606.84 1029,2580.5C 1014.3,2557.88 993.469,2544.38 966.5,2540C 959.517,2538.96 952.517,2538.12 945.5,2537.5C 945.372,2514.46 945.372,2491.46 945.5,2468.5C 972.187,2463.58 994.687,2451.24 1013,2431.5C 1033.45,2403.56 1034.12,2375.22 1015,2346.5C 995.779,2325.64 971.946,2313.97 943.5,2311.5C 943.056,2296.84 942.722,2282.17 942.5,2267.5C 967.507,2260.83 990.173,2249.66 1010.5,2234C 1035.26,2209.64 1037.76,2183.14 1018,2154.5C 997.716,2131.77 972.549,2117.1 942.5,2110.5C 941.692,2108.58 941.192,2106.58 941,2104.5C 940.5,2093.17 940.333,2081.84 940.5,2070.5C 971.69,2064.76 996.857,2049.43 1016,2024.5C 1036.26,1984.7 1029.43,1950.2 995.5,1921C 980.772,1909.97 964.439,1902.14 946.5,1897.5C 945.335,1887.85 945.168,1878.18 946,1868.5C 967.033,1859.41 986.533,1847.91 1004.5,1834C 1040.35,1801.06 1043.51,1765.23 1014,1726.5C 995.349,1705.93 973.183,1690.43 947.5,1680C 956.71,1640.96 965.543,1601.79 974,1562.5C 1007.96,1522.21 1042.29,1482.21 1077,1442.5C 1192.13,1349.98 1272.79,1233.31 1319,1092.5C 1331.74,1051.09 1339.4,1008.75 1342,965.5C 1342.5,1967.17 1342.67,2968.83 1342.5,3970.5C 896.167,3970.5 449.833,3970.5 3.5,3970.5C 3.5,2648.17 3.5,1325.83 3.5,3.5C 449.833,3.5 896.167,3.5 1342.5,3.5 Z"/></g>
<g><path style="opacity:0.967" fill="#010101" d="M 1342.5,3.5 C 1343.83,1325.83 1343.83,2648.17 1342.5,3970.5C 1342.67,2968.83 1342.5,1967.17 1342,965.5C 1339.4,1008.75 1331.74,1051.09 1319,1092.5C 1272.79,1233.31 1192.13,1349.98 1077,1442.5C 1042.29,1482.21 1007.96,1522.21 974,1562.5C 965.543,1601.79 956.71,1640.96 947.5,1680C 973.183,1690.43 995.349,1705.93 1014,1726.5C 1043.51,1765.23 1040.35,1801.06 1004.5,1834C 986.533,1847.91 967.033,1859.41 946,1868.5C 945.168,1878.18 945.335,1887.85 946.5,1897.5C 964.439,1902.14 980.772,1909.97 995.5,1921C 1029.43,1950.2 1036.26,1984.7 1016,2024.5C 996.857,2049.43 971.69,2064.76 940.5,2070.5C 940.333,2081.84 940.5,2093.17 941,2104.5C 941.192,2106.58 941.692,2108.58 942.5,2110.5C 972.549,2117.1 997.716,2131.77 1018,2154.5C 1037.76,2183.14 1035.26,2209.64 1010.5,2234C 990.173,2249.66 967.507,2260.83 942.5,2267.5C 942.722,2282.17 943.056,2296.84 943.5,2311.5C 971.946,2313.97 995.779,2325.64 1015,2346.5C 1034.12,2375.22 1033.45,2403.56 1013,2431.5C 994.687,2451.24 972.187,2463.58 945.5,2468.5C 945.372,2491.46 945.372,2514.46 945.5,2537.5C 952.517,2538.12 959.517,2538.96 966.5,2540C 993.469,2544.38 1014.3,2557.88 1029,2580.5C 1040.84,2606.84 1038.51,2631.84 1022,2655.5C 1000.94,2680.38 974.108,2695.05 941.5,2699.5C 940.934,2719.9 939.434,2740.23 937,2760.5C 928.827,2852.1 883.327,2917.26 800.5,2956C 724.951,2989.31 645.951,3002.65 563.5,2996C 503.396,2992.07 447.396,2975.07 395.5,2945C 339.98,2909.83 305.313,2860 291.5,2795.5C 257.494,2795.24 229.661,2782.24 208,2756.5C 191.391,2727.81 193.057,2700.14 213,2673.5C 232.483,2649.74 257.149,2633.74 287,2625.5C 287.833,2611.16 287.666,2596.82 286.5,2582.5C 269.551,2575.36 253.885,2566.2 239.5,2555C 205.25,2525.54 201.417,2492.71 228,2456.5C 244.218,2439.79 263.052,2426.79 284.5,2417.5C 285.833,2399.5 285.833,2381.5 284.5,2363.5C 261.291,2355.99 241.458,2343.32 225,2325.5C 209.673,2304.88 206.673,2282.54 216,2258.5C 230.541,2231.3 253.041,2214.97 283.5,2209.5C 283.833,2194.49 283.499,2179.49 282.5,2164.5C 263.883,2159.52 246.883,2151.36 231.5,2140C 203.879,2115.2 200.712,2087.7 222,2057.5C 238.627,2038.77 258.127,2023.77 280.5,2012.5C 281.413,1991.84 281.413,1971.17 280.5,1950.5C 260.832,1950.08 242.166,1945.58 224.5,1937C 192.215,1916.48 182.381,1887.98 195,1851.5C 212.051,1815.97 240.217,1795.64 279.5,1790.5C 278.71,1757.52 278.21,1724.52 278,1691.5C 277.827,1687.46 277.327,1683.46 276.5,1679.5C 257.319,1673.41 239.319,1664.91 222.5,1654C 205.234,1641.55 198.067,1624.72 201,1603.5C 206.473,1583.06 215.306,1564.22 227.5,1547C 196.333,1502.5 165.167,1458 134,1413.5C 121.982,1393.47 110.982,1372.8 101,1351.5C 61.6683,1262.5 34.6683,1169.83 20,1073.5C 11.3437,1018.42 9.01039,963.082 13,907.5C 16.0175,856.092 33.0175,810.092 64,769.5C 85.2393,743.593 109.073,720.426 135.5,700C 166.325,678.087 197.325,656.42 228.5,635C 261.129,618.684 294.462,604.018 328.5,591C 354.81,580.137 382.143,575.47 410.5,577C 432.957,580.597 454.29,587.597 474.5,598C 526.864,625.516 580.197,650.85 634.5,674C 657.453,683.429 681.12,690.429 705.5,695C 733.153,700.006 757.487,693.339 778.5,675C 790.833,664 803.167,653 815.5,642C 830.436,630.417 846.436,620.417 863.5,612C 901.123,595.463 940.456,585.463 981.5,582C 1016.92,577.135 1051.92,579.135 1086.5,588C 1129.39,600.603 1167.72,621.27 1201.5,650C 1283.53,721.876 1330.36,812.376 1342,921.5C 1342.5,615.5 1342.67,309.5 1342.5,3.5 Z"/></g>
<g><path style="opacity:1" fill="#fdfdfd" d="M 382.5,607.5 C 403.129,606.614 423.129,609.781 442.5,617C 484.078,636.455 525.411,656.455 566.5,677C 599.89,693.019 634.224,706.686 669.5,718C 687.515,723.114 705.849,726.28 724.5,727.5C 724.021,798.166 723.688,868.832 723.5,939.5C 733.5,939.5 743.5,939.5 753.5,939.5C 753.167,867.497 753.5,795.497 754.5,723.5C 764.505,720.33 773.839,715.83 782.5,710C 798.425,697.413 813.758,684.08 828.5,670C 863.025,642.079 902.359,624.412 946.5,617C 985.288,608.827 1024.29,607.493 1063.5,613C 1111.69,624.593 1154.03,646.926 1190.5,680C 1256.51,741.507 1296.68,817.007 1311,906.5C 1315.53,966.097 1308.86,1024.43 1291,1081.5C 1247.78,1215.15 1171.95,1326.32 1063.5,1415C 769.833,1415.33 476.167,1415.67 182.5,1416C 179.942,1417.63 177.275,1418.63 174.5,1419C 150.495,1385.84 130.995,1350.01 116,1311.5C 74.1052,1208.15 49.1052,1100.82 41,989.5C 40.1861,963.484 40.5194,937.484 42,911.5C 45.3728,854.983 66.7062,806.65 106,766.5C 119.902,752.595 134.402,739.428 149.5,727C 175.5,708.333 201.5,689.667 227.5,671C 235.668,665.748 244.001,660.748 252.5,656C 285.693,640.047 319.693,626.047 354.5,614C 363.892,611.483 373.225,609.316 382.5,607.5 Z"/></g>
<g><path style="opacity:1" fill="#b7b7b8" d="M 912.5,2045.5 C 911.17,2051.46 910.504,2057.8 910.5,2064.5C 910.5,2071.01 910.834,2077.34 911.5,2083.5C 911.5,2101.5 911.5,2119.5 911.5,2137.5C 943.997,2137.6 971.497,2149.27 994,2172.5C 1002.55,2182.49 1003.55,2193.15 997,2204.5C 985.451,2217.03 971.618,2226.2 955.5,2232C 941.876,2236.66 928.209,2241.16 914.5,2245.5C 913.5,2277.16 913.167,2308.83 913.5,2340.5C 933.121,2339.21 952.121,2342.04 970.5,2349C 982.277,2354.44 991.111,2362.94 997,2374.5C 1001.59,2388.4 999.26,2401.07 990,2412.5C 979.488,2424.01 966.654,2431.85 951.5,2436C 939.983,2439.05 928.317,2441.22 916.5,2442.5C 915.384,2484.5 915.384,2526.5 916.5,2568.5C 937.278,2565.9 957.611,2567.73 977.5,2574C 1007.01,2587.22 1014.18,2608.05 999,2636.5C 986.42,2651.55 970.586,2661.72 951.5,2667C 938.991,2670.14 926.324,2672.31 913.5,2673.5C 912.263,2714.16 908.097,2754.49 901,2794.5C 890.97,2840.76 866.804,2877.59 828.5,2905C 782.653,2935.4 732.32,2954.4 677.5,2962C 609.89,2972.84 543.223,2968.84 477.5,2950C 433.812,2936.59 396.312,2913.42 365,2880.5C 341.736,2853.63 326.736,2822.63 320,2787.5C 319.474,2780.83 318.974,2774.16 318.5,2767.5C 304.447,2767.03 290.447,2765.86 276.5,2764C 259.691,2761.35 245.524,2753.85 234,2741.5C 224.035,2726.24 224.035,2710.91 234,2695.5C 249.71,2674.15 270.543,2660.32 296.5,2654C 303.411,2652.02 310.411,2650.52 317.5,2649.5C 317.5,2620.5 317.5,2591.5 317.5,2562.5C 295.639,2555.4 275.639,2544.9 257.5,2531C 235.24,2510.97 234.906,2490.64 256.5,2470C 274.19,2455.9 293.69,2444.73 315,2436.5C 315.336,2404.5 315.17,2372.5 314.5,2340.5C 294.187,2336.46 275.52,2328.62 258.5,2317C 233.674,2293.55 234.674,2271.22 261.5,2250C 277.334,2239.93 294.667,2235.1 313.5,2235.5C 313.54,2203.83 313.207,2172.16 312.5,2140.5C 293.134,2137.43 274.801,2131.27 257.5,2122C 246.771,2116.12 240.104,2107.29 237.5,2095.5C 238.411,2088.01 241.244,2081.35 246,2075.5C 256.335,2064.49 267.835,2054.99 280.5,2047C 290.427,2041.12 300.594,2035.62 311,2030.5C 311.036,1993.84 310.869,1957.17 310.5,1920.5C 296.496,1920.67 282.496,1920.5 268.5,1920C 250.517,1918.43 235.683,1910.93 224,1897.5C 217.721,1884.01 218.055,1870.68 225,1857.5C 239.494,1833.99 260.661,1821.32 288.5,1819.5C 295.5,1819.5 302.5,1819.5 309.5,1819.5C 309.829,1804.32 309.496,1789.32 308.5,1774.5C 307.902,1735.5 307.569,1696.5 307.5,1657.5C 285.984,1651.94 265.318,1644.11 245.5,1634C 240.871,1631.09 236.704,1627.59 233,1623.5C 228.814,1616.06 228.481,1608.4 232,1600.5C 240.903,1581.68 251.07,1563.68 262.5,1546.5C 240.925,1514.25 218.925,1482.25 196.5,1450.5C 476.159,1447.28 755.825,1445.45 1035.5,1445C 1006.12,1478.93 976.618,1512.76 947,1546.5C 934.985,1599.05 923.485,1651.71 912.5,1704.5C 919.515,1704.73 926.515,1705.23 933.5,1706C 958.789,1715.56 979.622,1731.06 996,1752.5C 1005.94,1766.24 1006.94,1780.57 999,1795.5C 989.635,1808.1 978.135,1818.26 964.5,1826C 949.091,1834.54 933.091,1841.71 916.5,1847.5C 915.5,1872.49 915.167,1897.49 915.5,1922.5C 936.464,1924.32 955.797,1930.82 973.5,1942C 988.277,1952.23 996.61,1966.23 998.5,1984C 997.171,2000.99 989.504,2014.33 975.5,2024C 956.278,2036.23 935.278,2043.39 912.5,2045.5 Z"/></g>
<g><path style="opacity:1" fill="#6b6b6c" d="M 308.5,1774.5 C 309.496,1789.32 309.829,1804.32 309.5,1819.5C 302.5,1819.5 295.5,1819.5 288.5,1819.5C 294.979,1818.51 301.646,1818.18 308.5,1818.5C 308.5,1803.83 308.5,1789.17 308.5,1774.5 Z"/></g>
<g><path style="opacity:1" fill="#474748" d="M 912.5,2045.5 C 911.52,2058.09 911.187,2070.75 911.5,2083.5C 910.834,2077.34 910.5,2071.01 910.5,2064.5C 910.504,2057.8 911.17,2051.46 912.5,2045.5 Z"/></g>
</svg>
