<?xml version="1.0" encoding="UTF-8"?>
<!DOCTYPE svg PUBLIC "-//W3C//DTD SVG 1.1//EN" "http://www.w3.org/Graphics/SVG/1.1/DTD/svg11.dtd">
<svg xmlns="http://www.w3.org/2000/svg" version="1.1" width="1296px" height="3975px" style="shape-rendering:geometricPrecision; text-rendering:geometricPrecision; image-rendering:optimizeQuality; fill-rule:evenodd; clip-rule:evenodd" xmlns:xlink="http://www.w3.org/1999/xlink">
<g><path style="opacity:0.75" fill="#fdfdfd" d="M 2.5,-0.5 C 431.833,-0.5 861.167,-0.5 1290.5,-0.5C 1290.5,970.5 1290.5,1941.5 1290.5,2912.5C 1288.85,2901.68 1287.51,2890.68 1286.5,2879.5C 1286.5,1920.83 1286.5,962.167 1286.5,3.5C 859.833,3.5 433.167,3.5 6.5,3.5C 6.5,1001.5 6.5,1999.5 6.5,2997.5C 6.05348,3006.76 4.72014,3015.76 2.5,3024.5C 2.5,2016.17 2.5,1007.83 2.5,-0.5 Z"/></g>
<g><path style="opacity:0.982" fill="#010101" d="M 1286.5,2879.5 C 1287.51,2890.68 1288.85,2901.68 1290.5,2912.5C 1293.37,2936.9 1295.04,2961.23 1295.5,2985.5C 1295.5,2987.17 1295.5,2988.83 1295.5,2990.5C 1294.7,3013.08 1293.03,3035.75 1290.5,3058.5C 1288.16,3067.55 1286.82,3076.88 1286.5,3086.5C 1265.05,3202.29 1207.05,3294.79 1112.5,3364C 1073.83,3390 1035.17,3416 996.5,3442C 971.689,3457.78 945.689,3471.45 918.5,3483C 894.778,3492.17 870.445,3494.51 845.5,3490C 753.399,3453.63 661.232,3417.47 569,3381.5C 540.368,3399.4 510.201,3414.57 478.5,3427C 366.18,3467.04 260.18,3454.71 160.5,3390C 77.8872,3329.8 26.5539,3249.3 6.5,3148.5C 6.07822,3137.58 4.74489,3126.91 2.5,3116.5C 1.2334,3103.05 0.233398,3089.71 -0.5,3076.5C -0.5,3071.83 -0.5,3067.17 -0.5,3062.5C 0.371031,3049.97 1.37103,3037.31 2.5,3024.5C 4.72014,3015.76 6.05348,3006.76 6.5,2997.5C 18.9831,2939.91 34.1498,2882.91 52,2826.5C 65.7985,2783.44 79.7985,2740.44 94,2697.5C 121.892,2624 161.225,2557.66 212,2498.5C 226.333,2484.83 240.667,2471.17 255,2457.5C 269.167,2439.33 283.333,2421.17 297.5,2403C 287.76,2388.35 280.593,2372.52 276,2355.5C 272.375,2337.04 277.542,2321.54 291.5,2309C 306.96,2297.69 323.793,2288.85 342,2282.5C 343.697,2249.18 343.863,2215.84 342.5,2182.5C 308.048,2175.87 283.882,2156.54 270,2124.5C 258.157,2081.35 273.324,2052.52 315.5,2038C 325.307,2035.19 335.307,2033.69 345.5,2033.5C 345.667,2014.83 345.5,1996.16 345,1977.5C 328.566,1968.11 313.566,1956.78 300,1943.5C 275.799,1916.69 275.466,1889.69 299,1862.5C 313.082,1850.46 329.082,1841.79 347,1836.5C 347.667,1823.5 347.667,1810.5 347,1797.5C 320.57,1790.97 301.236,1775.64 289,1751.5C 279.258,1725.84 283.592,1702.84 302,1682.5C 315.723,1669.8 331.389,1660.13 349,1653.5C 349.667,1637.5 349.667,1621.5 349,1605.5C 329.412,1596.24 312.412,1583.57 298,1567.5C 278.412,1540.9 278.745,1514.57 299,1488.5C 313.632,1472.93 330.798,1460.93 350.5,1452.5C 351.666,1439.85 351.833,1427.18 351,1414.5C 321.777,1405.74 298.777,1388.74 282,1363.5C 261.639,1319.92 272.806,1287.08 315.5,1265C 328.009,1259.91 341.009,1256.75 354.5,1255.5C 368.572,1191.3 403.905,1142.8 460.5,1110C 504.267,1086.72 550.933,1073.72 600.5,1071C 674.77,1065.65 745.104,1079.65 811.5,1113C 873.675,1146.46 909.842,1198.3 920,1268.5C 923.432,1293.76 925.932,1319.09 927.5,1344.5C 956.086,1349.36 979.253,1363.03 997,1385.5C 1013.93,1411.22 1014.26,1437.22 998,1463.5C 986.553,1478.15 971.72,1487.65 953.5,1492C 945.908,1493.71 938.241,1494.88 930.5,1495.5C 930.352,1516.17 930.018,1536.84 929.5,1557.5C 961.362,1562.89 984.529,1579.89 999,1608.5C 1009.74,1648.31 996.569,1677.14 959.5,1695C 949.587,1698.85 939.421,1701.69 929,1703.5C 928.697,1714.34 928.197,1725.18 927.5,1736C 927.833,1737.83 928.167,1739.67 928.5,1741.5C 948.562,1747.86 966.895,1757.36 983.5,1770C 1009.81,1795.28 1011.97,1822.45 990,1851.5C 972.787,1870.36 951.621,1882.36 926.5,1887.5C 926.5,1899.5 926.5,1911.5 926.5,1923.5C 956.636,1929.3 979.469,1945.3 995,1971.5C 1009.98,2014.39 998.147,2047.89 959.5,2072C 950.314,2077.12 940.647,2080.95 930.5,2083.5C 930.334,2092.17 930.5,2100.84 931,2109.5C 953.916,2118.95 973.916,2132.62 991,2150.5C 1012.27,2178.58 1012.93,2207.25 993,2236.5C 982.326,2250.74 969.493,2262.57 954.5,2272C 947.173,2276.27 939.84,2280.43 932.5,2284.5C 940.313,2319.75 947.813,2355.09 955,2390.5C 989.593,2419.88 1024.09,2449.38 1058.5,2479C 1091.41,2501.24 1120.58,2527.74 1146,2558.5C 1202.44,2630.04 1243.1,2710.04 1268,2798.5C 1275.27,2825.39 1281.44,2852.39 1286.5,2879.5 Z"/></g>
<g><path style="opacity:1" fill="#b7b7b8" d="M 900.5,1535.5 C 899.504,1551.32 899.17,1567.32 899.5,1583.5C 900.833,1583.5 902.167,1583.5 903.5,1583.5C 925.645,1584.05 945.145,1591.38 962,1605.5C 979.343,1627.51 976.843,1647.01 954.5,1664C 936.825,1672.38 918.158,1675.88 898.5,1674.5C 898.5,1704.5 898.5,1734.5 898.5,1764.5C 917.82,1768.66 936.153,1775.5 953.5,1785C 962.333,1789.83 969.167,1796.67 974,1805.5C 976.208,1815.56 973.874,1824.56 967,1832.5C 947.587,1851.81 924.087,1861.48 896.5,1861.5C 896.5,1890.17 896.5,1918.83 896.5,1947.5C 912.892,1949.46 928.559,1953.96 943.5,1961C 971.576,1976.56 978.743,1998.72 965,2027.5C 956.271,2038.95 945.104,2047.12 931.5,2052C 921.455,2055.14 911.289,2057.64 901,2059.5C 900.167,2082.84 900.334,2106.17 901.5,2129.5C 922.497,2137.16 941.83,2147.66 959.5,2161C 982.173,2181.6 983.339,2203.43 963,2226.5C 950.016,2240.15 934.85,2250.65 917.5,2258C 910.829,2258.53 904.163,2259.03 897.5,2259.5C 907.724,2308.79 917.891,2358.12 928,2407.5C 946.33,2422.73 964.497,2438.07 982.5,2453.5C 961.34,2454.5 940.007,2454.83 918.5,2454.5C 732.165,2454.76 545.831,2454.43 359.5,2453.5C 337.167,2452.83 314.833,2452.17 292.5,2451.5C 306.816,2437.18 320.816,2422.52 334.5,2407.5C 324.905,2391.98 316.072,2375.98 308,2359.5C 301.815,2347.78 303.649,2337.62 313.5,2329C 331.993,2318.09 351.66,2309.92 372.5,2304.5C 372.705,2254.5 373.038,2204.5 373.5,2154.5C 348.414,2157.19 326.914,2149.86 309,2132.5C 298.639,2120.75 294.306,2107.08 296,2091.5C 299.024,2081.61 305.191,2074.44 314.5,2070C 323.074,2066.03 332.074,2063.7 341.5,2063C 352.511,2062.46 363.511,2062.62 374.5,2063.5C 375.142,2028.83 375.142,1994.16 374.5,1959.5C 357.959,1951.44 342.626,1941.61 328.5,1930C 321.784,1923.95 316.617,1916.78 313,1908.5C 310.564,1901.32 311.564,1894.66 316,1888.5C 325.465,1878.18 336.965,1871.01 350.5,1867C 359.344,1864.42 368.178,1861.92 377,1859.5C 377.5,1829.84 377.667,1800.17 377.5,1770.5C 354.798,1772.06 335.965,1764.39 321,1747.5C 311.114,1733.79 311.114,1720.12 321,1706.5C 330.003,1696.41 340.837,1688.91 353.5,1684C 361.619,1680.96 369.786,1678.13 378,1675.5C 379.461,1645.85 379.794,1616.18 379,1586.5C 362.523,1580.18 347.356,1571.68 333.5,1561C 324.425,1554 317.925,1545.16 314,1534.5C 312.544,1526.95 313.877,1519.95 318,1513.5C 327.399,1500.77 339.232,1490.94 353.5,1484C 362.301,1479.6 371.301,1475.76 380.5,1472.5C 380.494,1445.16 380.827,1417.83 381.5,1390.5C 356.716,1387.36 335.216,1377.36 317,1360.5C 292.374,1331.5 296.874,1308.33 330.5,1291C 347.159,1286.36 364.159,1283.86 381.5,1283.5C 386.052,1226.89 411.052,1181.72 456.5,1148C 503.432,1117.36 555.099,1101.36 611.5,1100C 661.907,1098.15 710.907,1105.48 758.5,1122C 793.87,1134.09 824.37,1153.59 850,1180.5C 868.212,1202.08 880.546,1226.75 887,1254.5C 894.286,1292.81 898.119,1331.48 898.5,1370.5C 919.61,1371.53 939.277,1377.36 957.5,1388C 970.927,1397.03 978.593,1409.53 980.5,1425.5C 979.419,1440.16 972.419,1451 959.5,1458C 952.091,1461.14 944.425,1463.47 936.5,1465C 924.49,1465.54 912.49,1465.37 900.5,1464.5C 900.5,1488.17 900.5,1511.83 900.5,1535.5 Z"/></g>
<g><path style="opacity:1" fill="#4c4c4d" d="M 900.5,1535.5 C 900.5,1551.17 900.5,1566.83 900.5,1582.5C 901.791,1582.26 902.791,1582.6 903.5,1583.5C 902.167,1583.5 900.833,1583.5 899.5,1583.5C 899.17,1567.32 899.504,1551.32 900.5,1535.5 Z"/></g>
<g><path style="opacity:1" fill="#59595a" d="M 292.5,2451.5 C 314.833,2452.17 337.167,2452.83 359.5,2453.5C 336.824,2453.83 314.157,2453.5 291.5,2452.5C 291.624,2451.89 291.957,2451.56 292.5,2451.5 Z"/></g>
<g><path style="opacity:1" fill="#383838" d="M 982.5,2453.5 C 983.289,2453.78 983.956,2454.28 984.5,2455C 962.329,2455.83 940.329,2455.66 918.5,2454.5C 940.007,2454.83 961.34,2454.5 982.5,2453.5 Z"/></g>
<g><path style="opacity:1" fill="#fdfdfd" d="M 281.5,2482.5 C 524.504,2483.82 767.504,2485.65 1010.5,2488C 1036.69,2499.58 1060.36,2514.92 1081.5,2534C 1134.98,2585.76 1176.48,2645.93 1206,2714.5C 1244.72,2801.53 1264.55,2892.7 1265.5,2988C 1266.26,3073.49 1245.09,3152.99 1202,3226.5C 1174.47,3270.37 1139.64,3307.53 1097.5,3338C 1057.66,3364.42 1017.99,3391.09 978.5,3418C 957.005,3432.08 934.339,3444.08 910.5,3454C 892.844,3461.33 874.51,3464 855.5,3462C 763.929,3425.96 672.429,3389.8 581,3353.5C 580.355,3290.83 579.522,3228.16 578.5,3165.5C 568.833,3165.5 559.167,3165.5 549.5,3165.5C 550.724,3229.16 551.224,3292.83 551,3356.5C 485.605,3400.56 413.438,3421.73 334.5,3420C 239.523,3411.6 162.689,3370.1 104,3295.5C 42.7334,3211.56 19.4001,3117.89 34,3014.5C 47.0688,2949.89 63.7355,2886.22 84,2823.5C 97.8688,2779.23 112.536,2735.23 128,2691.5C 152.95,2631.32 185.95,2576.32 227,2526.5C 239.683,2512.14 253.849,2499.64 269.5,2489C 273.525,2486.73 277.525,2484.56 281.5,2482.5 Z"/></g>
<g><path style="opacity:0.823" fill="#fdfdfd" d="M 1290.5,3058.5 C 1290.5,3363.83 1290.5,3669.17 1290.5,3974.5C 861.167,3974.5 431.833,3974.5 2.5,3974.5C 2.5,3688.5 2.5,3402.5 2.5,3116.5C 4.74489,3126.91 6.07822,3137.58 6.5,3148.5C 6.5,3422.5 6.5,3696.5 6.5,3970.5C 433.167,3970.5 859.833,3970.5 1286.5,3970.5C 1286.5,3675.83 1286.5,3381.17 1286.5,3086.5C 1286.82,3076.88 1288.16,3067.55 1290.5,3058.5 Z"/></g>
</svg>
