<?xml version="1.0" encoding="UTF-8"?>
<svg version="1.1" xmlns="http://www.w3.org/2000/svg" width="1222" height="3975">
<path d="M0 0 C403.26 0 806.52 0 1222 0 C1222 1311.75 1222 2623.5 1222 3975 C818.74 3975 415.48 3975 0 3975 C0 2663.25 0 1351.5 0 0 Z M4 4 C4 1313.11 4 2622.22 4 3971 C404.62 3971 805.24 3971 1218 3971 C1218 3692.48 1218 3413.96 1218 3127 C1217.67 3127 1217.34 3127 1217 3127 C1216.86464844 3128.03511719 1216.72929688 3129.07023437 1216.58984375 3130.13671875 C1206.78407378 3200.32875566 1173.54361572 3262.54650852 1125.6953125 3314.08203125 C1123.03388961 3316.96331082 1120.4237672 3319.8858045 1117.8125 3322.8125 C1114.41285652 3326.56013848 1110.92174509 3329.94885031 1107.05078125 3333.19921875 C1104.64036422 3335.31579447 1102.42724342 3337.57882211 1100.1875 3339.875 C1095.90404581 3344.21101191 1091.38902513 3348.06703696 1086.62890625 3351.8671875 C1084.29680053 3353.75920789 1082.08296314 3355.71646169 1079.875 3357.75 C1073.6016642 3363.39375371 1066.77944941 3368.35935981 1060.05126953 3373.44091797 C1058.26063767 3374.80190048 1056.48355229 3376.17714002 1054.71484375 3377.56640625 C1041.52953918 3387.89347705 1027.66366777 3397.29044533 1013.70898438 3406.53955078 C1001.26857535 3414.78689981 989.00179323 3423.28839101 976.75 3431.8125 C975.7818335 3432.48595459 974.81366699 3433.15940918 973.81616211 3433.85327148 C969.0181996 3437.19345418 964.22628955 3440.54179606 959.4453125 3443.90625 C938.55867327 3458.5748557 917.33861048 3472.90238405 895.24267578 3485.69873047 C893.75769135 3486.56036415 892.27680416 3487.42910155 890.80029297 3488.30517578 C865.20142721 3503.48783266 836.36157766 3514.94956813 806.3125 3515.25 C805.55243652 3515.25950684 804.79237305 3515.26901367 804.00927734 3515.27880859 C793.40053501 3515.21722269 784.08542153 3512.58718922 774.33203125 3508.57421875 C773.21324081 3508.12386261 772.09445038 3507.67350647 770.9417572 3507.20950317 C768.50977986 3506.22878735 766.0796925 3505.24444618 763.65197754 3504.25332642 C759.7144924 3502.64584872 755.77119395 3501.05296998 751.82714844 3499.46166992 C746.15083663 3497.16992451 740.47723582 3494.87158252 734.80517578 3492.56933594 C726.06299065 3489.02178887 717.31184127 3485.49670987 708.55859375 3481.9765625 C705.60716269 3480.78942542 702.65575508 3479.60223005 699.7043457 3478.41503906 C698.96895915 3478.11925209 698.2335726 3477.82346512 697.4759016 3477.5187149 C689.15157416 3474.17016934 680.82962319 3470.81573171 672.5078125 3467.4609375 C670.9741268 3466.84269052 669.44044048 3466.22444508 667.90675354 3465.60620117 C664.82344364 3464.36327074 661.74014776 3463.12030555 658.65686035 3461.87731934 C651.61437871 3459.03825695 644.57178079 3456.19948311 637.52907562 3453.36097527 C635.96461968 3452.7304267 634.40017162 3452.09985856 632.83573151 3451.46927071 C624.42675355 3448.07986077 616.01709989 3444.69214682 607.60546875 3441.30932617 C605.39781081 3440.42140392 603.19016127 3439.53346079 600.98252106 3438.64549446 C599.53587746 3438.0636288 598.08921722 3437.48180451 596.64253998 3436.90002251 C587.83212346 3433.3563916 579.02846659 3429.79676624 570.23336792 3426.21528625 C565.50098343 3424.28847853 560.76462395 3422.371505 556.02801514 3420.45510864 C553.86527706 3419.57754204 551.70414236 3418.69601216 549.54473877 3417.81027222 C546.63273825 3416.61608379 543.7156306 3415.43537248 540.796875 3414.2578125 C539.95271027 3413.90736374 539.10854553 3413.55691498 538.23880005 3413.19584656 C537.4674472 3412.88774551 536.69609436 3412.57964447 535.90136719 3412.26220703 C534.90807404 3411.85713425 534.90807404 3411.85713425 533.89471436 3411.44387817 C529.95432572 3410.52075617 527.0131758 3412.42483579 523.7265625 3414.44140625 C522.50030151 3415.18716919 522.50030151 3415.18716919 521.24926758 3415.94799805 C520.38325928 3416.48078369 519.51725098 3417.01356934 518.625 3417.5625 C516.80920991 3418.66507786 514.99280141 3419.76663794 513.17578125 3420.8671875 C512.28842285 3421.40569336 511.40106445 3421.94419922 510.48681641 3422.49902344 C505.05376235 3425.77827106 499.54563564 3428.91488529 494 3432 C493.40848145 3432.33531738 492.81696289 3432.67063477 492.20751953 3433.01611328 C417.26346188 3475.33815791 327.82293297 3485.58738641 245.18261719 3462.90576172 C201.65406179 3450.51768712 160.68875522 3427.09385291 127 3397 C126.47245117 3396.52884766 125.94490234 3396.05769531 125.40136719 3395.57226562 C114.38116435 3385.66928791 103.47573676 3375.41139795 94 3364 C93.36449219 3363.25363281 92.72898437 3362.50726562 92.07421875 3361.73828125 C35.29222561 3293.95283058 5.673896 3206.10209151 5.8125 3118 C5.81340637 3116.91233841 5.81340637 3116.91233841 5.81433105 3115.80270386 C6.03125517 3018.2728278 30.31255219 2919.57731446 59 2827 C59.30510498 2826.0152771 59.61020996 2825.0305542 59.92456055 2824.01599121 C73.44385082 2780.53193571 88.70071021 2737.5088066 107.17315674 2695.86474609 C108.0215696 2693.95135496 108.86631404 2692.03637555 109.71044922 2690.12109375 C119.14702501 2668.73417214 128.84869626 2647.55338336 140 2627 C140.84788086 2625.43572266 140.84788086 2625.43572266 141.71289062 2623.83984375 C149.65548666 2609.24035413 157.87060476 2594.89612878 167 2581 C167.42587402 2580.34676758 167.85174805 2579.69353516 168.29052734 2579.02050781 C171.14517046 2574.64672713 174.05488092 2570.31328903 177 2566 C177.6796582 2564.99936523 177.6796582 2564.99936523 178.37304688 2563.97851562 C193.09074813 2542.39659157 210.48035631 2523.02695369 228.34741211 2504.02758789 C233.00297717 2499.07410391 237.60745141 2494.07846703 242.19140625 2489.05859375 C245.43556467 2485.51536996 248.71834688 2482.00846284 252 2478.5 C256.36881762 2473.82593748 260.7311176 2469.14630577 265.0625 2464.4375 C265.89910156 2463.52871094 266.73570312 2462.61992187 267.59765625 2461.68359375 C270.13994999 2458.84366562 272.57669425 2455.94165992 275 2453 C273.54554269 2448.97600143 271.60584925 2445.31728503 269.57250977 2441.56689453 C259.15894401 2422.33918829 249.62842517 2401.6161497 255.4375 2379.3125 C262.20419856 2359.98585919 280.01832879 2350.23114583 297.40795898 2341.83789062 C298.11895752 2341.49951172 298.82995605 2341.16113281 299.5625 2340.8125 C300.20968994 2340.50376953 300.85687988 2340.19503906 301.52368164 2339.87695312 C307.884782 2336.92187654 314.43928408 2334.47198067 321 2332 C321.69162748 2298.6628881 322.16796329 2265.34458979 322 2232 C318.83713274 2230.93385873 315.68633777 2229.91028287 312.4765625 2228.9921875 C298.72757627 2225.0547263 285.8160165 2219.55312945 275 2210 C274.18144531 2209.32324219 273.36289062 2208.64648438 272.51953125 2207.94921875 C257.51046801 2195.16540241 246.49811978 2176.30863383 244.78125 2156.47265625 C243.66623089 2137.48945586 247.53240033 2122.1361196 259.859375 2107.34375 C274.39377927 2091.43016868 297.90161374 2084.69718882 318.75 2083.24609375 C321.03305818 2083.12818523 321.03305818 2083.12818523 323 2082 C325.56532462 2074.30402615 324.93020006 2065.31497695 325.17407227 2057.27099609 C325.26574426 2054.85648194 325.39515556 2052.44308166 325.5637207 2050.03271484 C326.9017807 2036.6163099 326.9017807 2036.6163099 322.07290649 2024.64810181 C317.31895571 2020.57151061 312.03275026 2017.77633952 306.37426758 2015.15786743 C286.42992594 2005.43154011 269.81063742 1985.09075565 262.125 1964.67578125 C258.65704972 1952.03221252 260.56967544 1938.7021522 266 1927 C276.31901452 1909.53028246 293.5407489 1897.85672557 312.515625 1891.40625 C313.24571777 1891.15625244 313.97581055 1890.90625488 314.72802734 1890.64868164 C316.12584859 1890.18565534 317.5325714 1889.74843854 318.94775391 1889.34155273 C321.13783505 1888.69167639 321.13783505 1888.69167639 324 1887 C325.92553121 1881.95739598 326.2731537 1877.2146738 326.1953125 1871.87890625 C326.19106766 1870.76176491 326.19106766 1870.76176491 326.18673706 1869.62205505 C326.17563917 1867.26869899 326.1505551 1864.91573891 326.125 1862.5625 C326.11495672 1860.95638575 326.10583324 1859.35026546 326.09765625 1857.74414062 C326.07573407 1853.82927704 326.04127761 1849.9147054 326 1846 C324.99984863 1845.67604248 323.99969727 1845.35208496 322.96923828 1845.01831055 C321.62786395 1844.57881388 320.28655905 1844.13910524 318.9453125 1843.69921875 C318.28958252 1843.48744995 317.63385254 1843.27568115 316.95825195 1843.05749512 C296.43650817 1836.29910198 280.03959078 1823.68959293 269.76171875 1804.578125 C261.84271202 1788.49428871 260.81784114 1771.84144798 266.32421875 1754.89160156 C270.22189243 1743.98149474 276.90780505 1735.98618366 285 1728 C285.66902344 1727.33226562 286.33804687 1726.66453125 287.02734375 1725.9765625 C296.83770315 1716.80916535 309.19683311 1711.26249536 321.28564453 1705.78613281 C323.21380033 1704.90195998 325.11365092 1703.97012239 327 1703 C327.96093685 1686.99010563 328.11862496 1671.03626932 328 1655 C327.42145264 1654.67837891 326.84290527 1654.35675781 326.24682617 1654.02539062 C305.07404062 1642.21194108 305.07404062 1642.21194108 296 1635 C295.10539062 1634.3296875 294.21078125 1633.659375 293.2890625 1632.96875 C279.24417802 1622.11051998 267.08607658 1606.97423859 263.3984375 1589.23046875 C261.19358002 1571.35383016 264.69344196 1555.91274465 275.10546875 1540.98046875 C288.77521163 1523.68159059 306.88138143 1513.12881108 326.08911133 1503.05639648 C327.94895662 1502.1432852 327.94895662 1502.1432852 329 1501 C330.547362 1488.43007163 330.10703605 1475.63519424 330 1463 C329.030625 1462.6596875 328.06125 1462.319375 327.0625 1461.96875 C297.17364555 1451.26027154 271.1752726 1434.18026394 256.73046875 1404.90625 C250.16874864 1390.68029854 247.97943047 1372.59652242 252.95703125 1357.546875 C261.83895318 1335.85768737 276.78631896 1322.34769967 297.95947266 1312.84863281 C309.01352023 1308.25137637 321.23799436 1306.77844759 333 1305 C333.1451001 1304.37246826 333.2902002 1303.74493652 333.43969727 1303.09838867 C338.15944636 1282.91213027 344.15236296 1264.26989482 354 1246 C354.61488281 1244.84242187 355.22976563 1243.68484375 355.86328125 1242.4921875 C376.69989388 1204.6152809 408.17878644 1176.22216386 446 1156 C446.62422852 1155.66258789 447.24845703 1155.32517578 447.89160156 1154.97753906 C481.91739838 1136.72717709 520.19408963 1127.30321797 558.3125 1122.6875 C559.3205368 1122.56526062 559.3205368 1122.56526062 560.34893799 1122.44055176 C575.8344408 1120.59643882 591.23284995 1119.78908174 606.8125 1119.8125 C607.5673468 1119.81310425 608.3221936 1119.8137085 609.09991455 1119.81433105 C690.09767733 1119.98844217 779.09770195 1141.57363801 839 1199 C839.53512207 1199.50789063 840.07024414 1200.01578125 840.62158203 1200.5390625 C853.32911268 1212.65355019 863.11061082 1225.88729263 872 1241 C872.35835937 1241.60537598 872.71671875 1242.21075195 873.0859375 1242.83447266 C895.30962027 1280.87999726 899.86415672 1326.8820275 903.1875 1369.9375 C903.36600355 1372.19340161 903.54503781 1374.44926128 903.72460938 1376.70507812 C904.15582239 1382.13625355 904.58062072 1387.56789864 905 1393 C906.41332433 1393.47462172 907.82696023 1393.94831568 909.24072266 1394.42163086 C910.42149887 1394.8174662 910.42149887 1394.8174662 911.62612915 1395.22129822 C913.79179316 1395.93170183 915.96420232 1396.60327147 918.1484375 1397.25390625 C933.72006859 1402.00661978 948.95012479 1408.81264218 961 1420 C962.2684375 1421.175625 962.2684375 1421.175625 963.5625 1422.375 C964.366875 1423.24125 965.17125 1424.1075 966 1425 C966.66515625 1425.64839844 967.3303125 1426.29679687 968.015625 1426.96484375 C981.24071234 1440.48232248 987.30256996 1458.33645288 987.2421875 1476.97387695 C986.96569808 1494.13522955 980.19949163 1509.20713026 968.04296875 1521.28125 C951.48987687 1536.63609972 929.88067594 1542.01084764 908 1544 C908 1564.46 908 1584.92 908 1606 C910.97 1606.99 913.94 1607.98 917 1609 C940.69672831 1617.14725243 961.9762445 1628.70026559 973.875 1651.9375 C980.7442397 1666.71194362 982.93076833 1684.14238549 978.4375 1700.0625 C970.64960336 1720.87545024 956.66913124 1734.55296678 936.66625977 1743.67749023 C926.72832567 1747.98704101 916.64951561 1750.06372444 906 1752 C906 1764.87 906 1777.74 906 1791 C908.990625 1792.0725 911.98125 1793.145 915.0625 1794.25 C940.79867255 1803.88727966 966.08726481 1816.91151613 978.58984375 1842.5078125 C983.54589108 1854.7812372 983.78347988 1868.47163951 979.3125 1880.953125 C969.26610869 1904.27510483 948.18487004 1920.61461736 925.14648438 1930.17382812 C918.22775013 1932.83681683 911.09701786 1934.87607495 904 1937 C904 1948.55 904 1960.1 904 1972 C907.485625 1973.155 910.97125 1974.31 914.5625 1975.5 C940.03474099 1984.23308333 961.43156902 1998.60599859 973.60546875 2023.25 C977.83308036 2032.9697874 979.34753528 2041.80835846 979.3125 2052.375 C979.32861328 2053.33921875 979.34472656 2054.3034375 979.36132812 2055.296875 C979.37362896 2073.64972717 970.56882041 2091.8465833 958 2105 C942.88247937 2118.65284735 927.0486703 2126.0732108 908 2133 C908 2141.25 908 2149.5 908 2158 C910.825625 2159.464375 913.65125 2160.92875 916.5625 2162.4375 C944.78693791 2177.24113763 973.28862478 2195.28924145 983.30859375 2227.28125 C988.049382 2245.92299363 983.51196471 2263.83090127 974.14160156 2280.12451172 C959.40929212 2304.32759152 935.88013214 2319.71690637 911 2332 C911.62242407 2338.35322084 912.59999354 2344.50836658 913.90185547 2350.75488281 C914.09225403 2351.68450836 914.28265259 2352.61413391 914.4788208 2353.57192993 C915.10382199 2356.61659879 915.73506338 2359.65992756 916.3671875 2362.703125 C916.80706939 2364.8306082 917.24685672 2366.95811095 917.68655396 2369.08563232 C918.60651797 2373.53103225 919.53001553 2377.975682 920.45556641 2382.41992188 C921.64056133 2388.11307624 922.81300884 2393.80873647 923.98238945 2399.50511551 C924.88537371 2403.89361948 925.79682994 2408.28033215 926.71066666 2412.66658783 C927.14668919 2414.76629489 927.57964374 2416.8666415 928.00945663 2418.96762848 C928.61054475 2421.90124687 929.22345386 2424.83215649 929.83935547 2427.76269531 C930.01401337 2428.62825043 930.18867126 2429.49380554 930.36862183 2430.3855896 C931.63755567 2436.33551094 933.35269979 2440.9138229 938.1171875 2444.9453125 C939.01739624 2445.71597046 939.01739624 2445.71597046 939.93579102 2446.50219727 C940.57572998 2447.03772217 941.21566895 2447.57324707 941.875 2448.125 C942.87648071 2448.97759399 942.87648071 2448.97759399 943.89819336 2449.84741211 C945.92651053 2451.5717102 947.96257982 2453.28647481 950 2455 C951.12938868 2455.95646189 952.2583267 2456.91345629 953.38671875 2457.87109375 C955.50353412 2459.6663185 957.62377752 2461.45737708 959.74609375 2463.24609375 C963.22514257 2466.18322806 966.67424179 2469.15473899 970.125 2472.125 C974.18620876 2475.61823856 978.27518971 2479.06448707 982.4375 2482.4375 C986.87239734 2486.03636367 991.19560716 2489.74739712 995.5 2493.5 C1000.70100053 2498.03293423 1005.95163648 2502.48259666 1011.32421875 2506.8125 C1013.22574008 2508.36702838 1015.10091553 2509.95402984 1016.95703125 2511.5625 C1021.61649579 2515.59745384 1026.10852371 2519.24987406 1031.625 2522.0625 C1046.8264811 2529.86037791 1054.64500196 2543.35303907 1061.3125 2558.375 C1062.00576846 2559.91637389 1062.69929768 2561.45763051 1063.39306641 2562.9987793 C1085.02723824 2611.2978328 1103.9407392 2660.73662807 1122.06561279 2710.44036865 C1122.93999559 2712.83562578 1123.81718218 2715.22982906 1124.69580078 2717.62353516 C1159.11586808 2811.42555566 1190.69150135 2906.73886294 1217 3006 C1217.33 3006 1217.66 3006 1218 3006 C1218 2015.34 1218 1024.68 1218 4 C817.38 4 416.76 4 4 4 Z " fill="#B7B7B8" transform="translate(0,0)"/>
<path d="M0 0 C1.89082048 -0.01000202 1.89082048 -0.01000202 3.81983936 -0.02020609 C7.33682341 -0.03809353 10.85311056 -0.02464749 14.37006692 -0.00631597 C18.18943937 0.00812171 22.00871726 -0.00634552 25.82808638 -0.01720095 C32.52817901 -0.03221324 39.22806222 -0.02854268 45.92815018 -0.01278305 C55.89159194 0.01058814 65.8548752 0.00545048 75.81833103 -0.00549195 C93.61249617 -0.02410719 111.40656141 -0.01434141 129.20071843 0.00698569 C144.77741772 0.02552353 160.35408342 0.03396598 175.93079376 0.0324173 C176.962992 0.03232562 177.99519025 0.03223395 179.05866722 0.03213949 C183.2485098 0.03174635 187.43835236 0.03129673 191.62819492 0.0307681 C230.96215621 0.02589309 270.29605791 0.04858312 309.63000067 0.08472433 C344.57989184 0.1167004 379.52973207 0.12877125 414.47963715 0.12264252 C416.72252903 0.12225567 418.96542092 0.12186922 421.20831281 0.12148315 C422.31715052 0.1212918 423.42598824 0.12110046 424.5684271 0.12090331 C430.15011025 0.11994898 435.7317934 0.11903461 441.31347656 0.11816406 C442.96522294 0.11790337 442.96522294 0.11790337 444.65033792 0.11763741 C473.84216335 0.11328147 503.03398328 0.12329862 532.22580481 0.13800192 C533.26440666 0.13852206 534.30300852 0.1390422 535.37308316 0.13957811 C536.92815784 0.14035712 536.92815784 0.14035712 538.51464817 0.14115188 C539.54947756 0.14166962 540.58430695 0.14218736 541.65049481 0.14272078 C543.73458017 0.14376888 545.81866553 0.14482909 547.90275088 0.1459015 C562.43332814 0.15328273 576.96389762 0.15537018 591.49447652 0.1539075 C610.2261624 0.15206136 628.95780028 0.16013495 647.68947047 0.18554896 C657.59615192 0.19871013 667.50275676 0.20372708 677.40944507 0.19691042 C684.02814939 0.19319712 690.64678382 0.20041342 697.26546947 0.21650281 C701.03589355 0.22537162 704.80616012 0.22958204 708.5765875 0.22057563 C712.64280259 0.21098716 716.70861538 0.22465715 720.77481079 0.24050903 C721.93898494 0.23405723 723.10315908 0.22760543 724.30261123 0.22095811 C731.89451595 0.27656978 738.61443024 1.49341065 745.89076996 3.62361908 C747.07670746 3.93943939 748.26264496 4.2552597 749.48451996 4.58065033 C761.04827389 7.98449725 772.85789411 12.12922172 779.29750824 22.99788666 C780.70918887 25.84001042 782.00108344 28.71306716 783.26576996 31.62361908 C783.76560394 32.74099457 784.26543793 33.85837006 784.7804184 35.00960541 C786.19167973 38.17855568 787.58654636 41.35385051 788.9748764 44.5328598 C789.92379876 46.69901569 790.8803087 48.86167769 791.83901215 51.02352142 C801.67635962 73.20901497 811.0916447 95.55198093 820.21450043 118.04012299 C822.05085398 122.56587085 823.90311318 127.08448072 825.77358246 131.59627533 C850.50484072 191.37411402 871.88142243 252.70016541 892.07515717 314.14357758 C892.94567285 316.79056282 893.81826685 319.43685758 894.69106293 322.08309174 C896.2676863 326.86552969 897.8387511 331.64976552 899.40615082 336.43523407 C900.0087838 338.27386699 900.61257566 340.11212059 901.21767426 341.94994354 C904.44000434 351.74529583 907.49249996 361.55034493 910.19788361 371.5016861 C911.73387187 377.13546552 913.47516163 382.66918975 915.39076996 388.18611908 C918.2309926 396.54229239 920.81059466 404.94081603 923.25063324 413.42098236 C924.43524817 417.49710589 925.66596679 421.55942895 926.89076996 425.62361908 C929.00383977 432.6475821 931.09422627 439.67771726 933.15444183 446.71736908 C933.3394223 447.3490097 933.52440277 447.98065033 933.71498871 448.63143158 C933.88961136 449.23452148 934.06423401 449.83761139 934.24414825 450.45897675 C934.68243369 451.92618887 935.14201974 453.38717511 935.62064362 454.84172821 C937.55487918 460.84936343 938.57797006 466.55925335 939.06264496 472.84236908 C939.14222443 473.8210495 939.22180389 474.79972992 939.30379486 475.80806732 C940.18865746 487.91099258 940.19047913 500.02808764 940.15151215 512.15731049 C940.14078276 516.11889187 940.15148032 520.08001998 940.16420746 524.04158783 C940.18359287 559.37652049 937.0913174 595.90734001 925.58852386 629.54647064 C924.81757823 631.84150405 924.09311886 634.1486349 923.37123871 636.45955658 C912.15447588 671.92669199 894.48058284 705.11608055 871.89076996 734.62361908 C871.43315277 735.22545013 870.97553558 735.82728119 870.50405121 736.44734955 C865.08030015 743.55937605 859.47769307 750.38384981 853.37514496 756.92830658 C851.4793711 758.98504237 849.65607783 761.06517638 847.83998871 763.19002533 C843.3092111 768.38619604 838.43011512 773.23417552 833.54824066 778.09651947 C831.9561803 779.68321854 830.36954006 781.2751965 828.78334808 782.8677597 C823.32539224 788.32960362 817.79232765 793.63809413 811.89076996 798.62361908 C810.88099654 799.50046511 809.87184265 800.3780253 808.86342621 801.25643158 C800.13346685 808.73255785 791.08584666 815.73075798 781.89076996 822.62361908 C781.12426117 823.20047455 780.35775238 823.77733002 779.56801605 824.37166595 C769.77702719 831.72659015 759.84111433 838.76938042 749.61342621 845.50252533 C732.91878484 856.49690201 716.57383636 868.01247726 700.2179184 879.50106049 C604.87474669 946.39752528 604.87474669 946.39752528 566.90151215 950.4031601 C564.9261424 950.61974082 562.96219712 950.93342998 561.00014496 951.24861908 C544.91492941 953.02268219 531.24019628 945.50255264 516.97493744 939.15648651 C507.29403169 934.8705834 497.46208157 930.97746248 487.62044525 927.07848358 C481.75476981 924.75320532 475.89538895 922.41215405 470.03530121 920.07283783 C468.76438927 919.56582708 467.49347452 919.0588234 466.22255707 918.55182648 C448.78418037 911.59301894 431.36997694 904.57393589 413.95326996 897.56111908 C412.20971071 896.85912957 410.46614992 896.15714389 408.72258759 895.45516205 C401.71557355 892.63398302 394.70864098 889.81260179 387.70191193 886.99071503 C377.15203508 882.74188061 366.60150652 878.49467026 356.05033112 874.24906158 C350.16363779 871.88034942 344.27717347 869.51106842 338.39078426 867.14160061 C334.42755458 865.54629032 330.46422965 863.95121769 326.50066376 862.35674286 C322.82644375 860.8786443 319.15252506 859.39979934 315.47883606 857.92038155 C314.14253668 857.38239457 312.8061298 856.84467453 311.46960449 856.30724907 C305.24980743 853.80607691 299.03540486 851.30493487 292.89076996 848.62361908 C291.17873522 789.31895588 290.64414424 729.95080658 290.89076996 670.62361908 C281.32076996 670.62361908 271.75076996 670.62361908 261.89076996 670.62361908 C261.9513559 675.0104599 262.01194183 679.39730072 262.07436371 683.91707611 C262.27581354 698.52534799 262.4750026 713.13365008 262.67307281 727.74196815 C262.79303813 736.58583475 262.913738 745.42969009 263.03627777 754.27352142 C263.14330124 761.99766731 263.24883391 769.72183201 263.35270405 777.44602096 C263.4075569 781.52147214 263.46306908 785.59691151 263.52037811 789.67232895 C263.54220687 791.23316943 263.56402702 792.79401004 263.58583832 794.35485077 C263.60197505 795.49787075 263.60197505 795.49787075 263.61843777 796.66398203 C263.66985212 800.38781574 263.71503355 804.11153613 263.74640656 807.83559608 C263.75879461 809.27236379 263.77127046 810.70913075 263.78383636 812.14589691 C263.79285146 813.19800057 263.79285146 813.19800057 263.80204868 814.27135885 C263.84642824 818.5621228 263.95349713 822.84650222 264.1077013 827.13468802 C264.17995463 829.23755686 264.23613952 831.34020327 264.28650665 833.44370079 C264.35141189 836.02292761 264.44476696 838.60166341 264.57230377 841.17855263 C264.72992061 849.44089302 264.72992061 849.44089302 262.27504158 852.90087891 C259.09660989 855.8540333 255.75185086 858.15412492 251.66420746 859.67049408 C247.86896811 861.19224935 244.44534723 862.94555288 240.93959808 865.04207611 C238.32541151 866.59665457 235.65542303 868.03907129 232.98159027 869.48787689 C231.56086049 870.25962315 230.14364345 871.0378641 228.72963715 871.82186127 C216.37323452 878.67083872 203.68807804 884.32983754 190.56606293 889.55428314 C188.3227738 890.4509437 186.09178314 891.37045237 183.86342621 892.30330658 C159.81849388 901.96305138 134.44540053 906.3342129 108.89076996 909.62361908 C107.60565521 909.80465179 106.32054047 909.98568451 104.99648285 910.17220306 C100.74115632 910.69912384 96.53769805 910.76800644 92.25405121 910.75643158 C91.45275284 910.75738831 90.65145447 910.75834503 89.82587433 910.75933075 C88.13925345 910.76000712 86.45262988 910.75819096 84.7660141 910.75399017 C82.22745944 910.74866978 79.68908457 910.75393544 77.15053558 910.76033783 C65.48707764 910.76568886 53.92091572 910.67262289 42.48451996 908.13924408 C39.6466825 907.57509567 36.8280037 907.26344025 33.95326996 906.93611908 C15.46151101 904.35211783 -2.87910628 898.74233019 -20.10923004 891.62361908 C-20.83835602 891.32375092 -21.56748199 891.02388275 -22.3187027 890.71492767 C-53.11538365 877.8846735 -81.08901513 860.27165063 -105.73813629 837.77596283 C-107.85426115 835.85506531 -110.00232273 833.98372476 -112.17173004 832.12361908 C-119.389944 825.82223471 -125.90533863 818.91193053 -132.10923004 811.62361908 C-132.90844879 810.71354095 -133.70766754 809.80346283 -134.53110504 808.86580658 C-198.52967991 735.46504476 -220.25808346 638.78008465 -214.6937027 543.5762558 C-214.30597123 538.57370649 -213.71724373 533.60354074 -213.10923004 528.62361908 C-212.92882248 527.06056968 -212.74937342 525.49740948 -212.57065582 523.93416595 C-207.4926917 479.86253923 -199.35105467 436.49237344 -188.7921524 393.41786957 C-188.08647158 390.53050037 -187.38783962 387.64149729 -186.69077301 384.75203705 C-169.25195765 312.55719606 -146.64512794 241.81530729 -117.10923004 173.62361908 C-116.83012787 172.9790274 -116.5510257 172.33443573 -116.26346588 171.67031097 C-104.44084274 144.42384577 -91.81674925 117.44272301 -77.10923004 91.62361908 C-76.62873199 90.7717099 -76.14823395 89.91980072 -75.65317535 89.04207611 C-68.86009693 77.04727329 -61.49401705 65.46922057 -53.85923004 53.99861908 C-53.44125153 53.36931488 -53.02327301 52.74001068 -52.59262848 52.09163666 C-42.25337636 36.56038796 -31.06831161 21.83067971 -18.37094879 8.13143158 C-16.04182599 5.75463954 -16.04182599 5.75463954 -14.7246995 3.00585699 C-10.425162 -0.91027409 -5.60933589 -0.05822011 0 0 Z " fill="#FDFDFD" transform="translate(250.1092300415039,2535.37638092041)"/>
<path d="M0 0 C403.26 0 806.52 0 1222 0 C1222 1311.75 1222 2623.5 1222 3975 C818.74 3975 415.48 3975 0 3975 C0 2663.25 0 1351.5 0 0 Z M4 4 C4 1313.11 4 2622.22 4 3971 C404.62 3971 805.24 3971 1218 3971 C1218 3692.48 1218 3413.96 1218 3127 C1217.67 3127 1217.34 3127 1217 3127 C1216.86464844 3128.03511719 1216.72929688 3129.07023437 1216.58984375 3130.13671875 C1206.78407378 3200.32875566 1173.54361572 3262.54650852 1125.6953125 3314.08203125 C1123.03388961 3316.96331082 1120.4237672 3319.8858045 1117.8125 3322.8125 C1114.41285652 3326.56013848 1110.92174509 3329.94885031 1107.05078125 3333.19921875 C1104.64036422 3335.31579447 1102.42724342 3337.57882211 1100.1875 3339.875 C1095.90404581 3344.21101191 1091.38902513 3348.06703696 1086.62890625 3351.8671875 C1084.29680053 3353.75920789 1082.08296314 3355.71646169 1079.875 3357.75 C1073.6016642 3363.39375371 1066.77944941 3368.35935981 1060.05126953 3373.44091797 C1058.26063767 3374.80190048 1056.48355229 3376.17714002 1054.71484375 3377.56640625 C1041.52953918 3387.89347705 1027.66366777 3397.29044533 1013.70898438 3406.53955078 C1001.26857535 3414.78689981 989.00179323 3423.28839101 976.75 3431.8125 C975.7818335 3432.48595459 974.81366699 3433.15940918 973.81616211 3433.85327148 C969.0181996 3437.19345418 964.22628955 3440.54179606 959.4453125 3443.90625 C938.55867327 3458.5748557 917.33861048 3472.90238405 895.24267578 3485.69873047 C893.75769135 3486.56036415 892.27680416 3487.42910155 890.80029297 3488.30517578 C865.20142721 3503.48783266 836.36157766 3514.94956813 806.3125 3515.25 C805.55243652 3515.25950684 804.79237305 3515.26901367 804.00927734 3515.27880859 C793.40053501 3515.21722269 784.08542153 3512.58718922 774.33203125 3508.57421875 C773.21324081 3508.12386261 772.09445038 3507.67350647 770.9417572 3507.20950317 C768.50977986 3506.22878735 766.0796925 3505.24444618 763.65197754 3504.25332642 C759.7144924 3502.64584872 755.77119395 3501.05296998 751.82714844 3499.46166992 C746.15083663 3497.16992451 740.47723582 3494.87158252 734.80517578 3492.56933594 C726.06299065 3489.02178887 717.31184127 3485.49670987 708.55859375 3481.9765625 C705.60716269 3480.78942542 702.65575508 3479.60223005 699.7043457 3478.41503906 C698.96895915 3478.11925209 698.2335726 3477.82346512 697.4759016 3477.5187149 C689.15157416 3474.17016934 680.82962319 3470.81573171 672.5078125 3467.4609375 C670.9741268 3466.84269052 669.44044048 3466.22444508 667.90675354 3465.60620117 C664.82344364 3464.36327074 661.74014776 3463.12030555 658.65686035 3461.87731934 C651.61437871 3459.03825695 644.57178079 3456.19948311 637.52907562 3453.36097527 C635.96461968 3452.7304267 634.40017162 3452.09985856 632.83573151 3451.46927071 C624.42675355 3448.07986077 616.01709989 3444.69214682 607.60546875 3441.30932617 C605.39781081 3440.42140392 603.19016127 3439.53346079 600.98252106 3438.64549446 C599.53587746 3438.0636288 598.08921722 3437.48180451 596.64253998 3436.90002251 C587.83212346 3433.3563916 579.02846659 3429.79676624 570.23336792 3426.21528625 C565.50098343 3424.28847853 560.76462395 3422.371505 556.02801514 3420.45510864 C553.86527706 3419.57754204 551.70414236 3418.69601216 549.54473877 3417.81027222 C546.63273825 3416.61608379 543.7156306 3415.43537248 540.796875 3414.2578125 C539.95271027 3413.90736374 539.10854553 3413.55691498 538.23880005 3413.19584656 C537.4674472 3412.88774551 536.69609436 3412.57964447 535.90136719 3412.26220703 C534.90807404 3411.85713425 534.90807404 3411.85713425 533.89471436 3411.44387817 C529.95432572 3410.52075617 527.0131758 3412.42483579 523.7265625 3414.44140625 C522.50030151 3415.18716919 522.50030151 3415.18716919 521.24926758 3415.94799805 C520.38325928 3416.48078369 519.51725098 3417.01356934 518.625 3417.5625 C516.80920991 3418.66507786 514.99280141 3419.76663794 513.17578125 3420.8671875 C512.28842285 3421.40569336 511.40106445 3421.94419922 510.48681641 3422.49902344 C505.05376235 3425.77827106 499.54563564 3428.91488529 494 3432 C493.40848145 3432.33531738 492.81696289 3432.67063477 492.20751953 3433.01611328 C417.26346188 3475.33815791 327.82293297 3485.58738641 245.18261719 3462.90576172 C201.65406179 3450.51768712 160.68875522 3427.09385291 127 3397 C126.47245117 3396.52884766 125.94490234 3396.05769531 125.40136719 3395.57226562 C114.38116435 3385.66928791 103.47573676 3375.41139795 94 3364 C93.36449219 3363.25363281 92.72898437 3362.50726562 92.07421875 3361.73828125 C35.29222561 3293.95283058 5.673896 3206.10209151 5.8125 3118 C5.81340637 3116.91233841 5.81340637 3116.91233841 5.81433105 3115.80270386 C6.03125517 3018.2728278 30.31255219 2919.57731446 59 2827 C59.30510498 2826.0152771 59.61020996 2825.0305542 59.92456055 2824.01599121 C73.44385082 2780.53193571 88.70071021 2737.5088066 107.17315674 2695.86474609 C108.0215696 2693.95135496 108.86631404 2692.03637555 109.71044922 2690.12109375 C119.14702501 2668.73417214 128.84869626 2647.55338336 140 2627 C140.84788086 2625.43572266 140.84788086 2625.43572266 141.71289062 2623.83984375 C149.65548666 2609.24035413 157.87060476 2594.89612878 167 2581 C167.42587402 2580.34676758 167.85174805 2579.69353516 168.29052734 2579.02050781 C171.14517046 2574.64672713 174.05488092 2570.31328903 177 2566 C177.6796582 2564.99936523 177.6796582 2564.99936523 178.37304688 2563.97851562 C193.09074813 2542.39659157 210.48035631 2523.02695369 228.34741211 2504.02758789 C233.00297717 2499.07410391 237.60745141 2494.07846703 242.19140625 2489.05859375 C245.43556467 2485.51536996 248.71834688 2482.00846284 252 2478.5 C256.36881762 2473.82593748 260.7311176 2469.14630577 265.0625 2464.4375 C265.89910156 2463.52871094 266.73570312 2462.61992187 267.59765625 2461.68359375 C270.13994999 2458.84366562 272.57669425 2455.94165992 275 2453 C273.54554269 2448.97600143 271.60584925 2445.31728503 269.57250977 2441.56689453 C259.15894401 2422.33918829 249.62842517 2401.6161497 255.4375 2379.3125 C262.20419856 2359.98585919 280.01832879 2350.23114583 297.40795898 2341.83789062 C298.11895752 2341.49951172 298.82995605 2341.16113281 299.5625 2340.8125 C300.20968994 2340.50376953 300.85687988 2340.19503906 301.52368164 2339.87695312 C307.884782 2336.92187654 314.43928408 2334.47198067 321 2332 C321.69162748 2298.6628881 322.16796329 2265.34458979 322 2232 C318.83713274 2230.93385873 315.68633777 2229.91028287 312.4765625 2228.9921875 C298.72757627 2225.0547263 285.8160165 2219.55312945 275 2210 C274.18144531 2209.32324219 273.36289062 2208.64648438 272.51953125 2207.94921875 C257.51046801 2195.16540241 246.49811978 2176.30863383 244.78125 2156.47265625 C243.66623089 2137.48945586 247.53240033 2122.1361196 259.859375 2107.34375 C274.39377927 2091.43016868 297.90161374 2084.69718882 318.75 2083.24609375 C321.03305818 2083.12818523 321.03305818 2083.12818523 323 2082 C325.56532462 2074.30402615 324.93020006 2065.31497695 325.17407227 2057.27099609 C325.26574426 2054.85648194 325.39515556 2052.44308166 325.5637207 2050.03271484 C326.9017807 2036.6163099 326.9017807 2036.6163099 322.07290649 2024.64810181 C317.31895571 2020.57151061 312.03275026 2017.77633952 306.37426758 2015.15786743 C286.42992594 2005.43154011 269.81063742 1985.09075565 262.125 1964.67578125 C258.65704972 1952.03221252 260.56967544 1938.7021522 266 1927 C276.31901452 1909.53028246 293.5407489 1897.85672557 312.515625 1891.40625 C313.24571777 1891.15625244 313.97581055 1890.90625488 314.72802734 1890.64868164 C316.12584859 1890.18565534 317.5325714 1889.74843854 318.94775391 1889.34155273 C321.13783505 1888.69167639 321.13783505 1888.69167639 324 1887 C325.92553121 1881.95739598 326.2731537 1877.2146738 326.1953125 1871.87890625 C326.19106766 1870.76176491 326.19106766 1870.76176491 326.18673706 1869.62205505 C326.17563917 1867.26869899 326.1505551 1864.91573891 326.125 1862.5625 C326.11495672 1860.95638575 326.10583324 1859.35026546 326.09765625 1857.74414062 C326.07573407 1853.82927704 326.04127761 1849.9147054 326 1846 C324.99984863 1845.67604248 323.99969727 1845.35208496 322.96923828 1845.01831055 C321.62786395 1844.57881388 320.28655905 1844.13910524 318.9453125 1843.69921875 C318.28958252 1843.48744995 317.63385254 1843.27568115 316.95825195 1843.05749512 C296.43650817 1836.29910198 280.03959078 1823.68959293 269.76171875 1804.578125 C261.84271202 1788.49428871 260.81784114 1771.84144798 266.32421875 1754.89160156 C270.22189243 1743.98149474 276.90780505 1735.98618366 285 1728 C285.66902344 1727.33226562 286.33804687 1726.66453125 287.02734375 1725.9765625 C296.83770315 1716.80916535 309.19683311 1711.26249536 321.28564453 1705.78613281 C323.21380033 1704.90195998 325.11365092 1703.97012239 327 1703 C327.96093685 1686.99010563 328.11862496 1671.03626932 328 1655 C327.42145264 1654.67837891 326.84290527 1654.35675781 326.24682617 1654.02539062 C305.07404062 1642.21194108 305.07404062 1642.21194108 296 1635 C295.10539062 1634.3296875 294.21078125 1633.659375 293.2890625 1632.96875 C279.24417802 1622.11051998 267.08607658 1606.97423859 263.3984375 1589.23046875 C261.19358002 1571.35383016 264.69344196 1555.91274465 275.10546875 1540.98046875 C288.77521163 1523.68159059 306.88138143 1513.12881108 326.08911133 1503.05639648 C327.94895662 1502.1432852 327.94895662 1502.1432852 329 1501 C330.547362 1488.43007163 330.10703605 1475.63519424 330 1463 C329.030625 1462.6596875 328.06125 1462.319375 327.0625 1461.96875 C297.17364555 1451.26027154 271.1752726 1434.18026394 256.73046875 1404.90625 C250.16874864 1390.68029854 247.97943047 1372.59652242 252.95703125 1357.546875 C261.83895318 1335.85768737 276.78631896 1322.34769967 297.95947266 1312.84863281 C309.01352023 1308.25137637 321.23799436 1306.77844759 333 1305 C333.1451001 1304.37246826 333.2902002 1303.74493652 333.43969727 1303.09838867 C338.15944636 1282.91213027 344.15236296 1264.26989482 354 1246 C354.61488281 1244.84242187 355.22976563 1243.68484375 355.86328125 1242.4921875 C376.69989388 1204.6152809 408.17878644 1176.22216386 446 1156 C446.62422852 1155.66258789 447.24845703 1155.32517578 447.89160156 1154.97753906 C481.91739838 1136.72717709 520.19408963 1127.30321797 558.3125 1122.6875 C559.3205368 1122.56526062 559.3205368 1122.56526062 560.34893799 1122.44055176 C575.8344408 1120.59643882 591.23284995 1119.78908174 606.8125 1119.8125 C607.5673468 1119.81310425 608.3221936 1119.8137085 609.09991455 1119.81433105 C690.09767733 1119.98844217 779.09770195 1141.57363801 839 1199 C839.53512207 1199.50789063 840.07024414 1200.01578125 840.62158203 1200.5390625 C853.32911268 1212.65355019 863.11061082 1225.88729263 872 1241 C872.35835937 1241.60537598 872.71671875 1242.21075195 873.0859375 1242.83447266 C895.30962027 1280.87999726 899.86415672 1326.8820275 903.1875 1369.9375 C903.36600355 1372.19340161 903.54503781 1374.44926128 903.72460938 1376.70507812 C904.15582239 1382.13625355 904.58062072 1387.56789864 905 1393 C906.41332433 1393.47462172 907.82696023 1393.94831568 909.24072266 1394.42163086 C910.42149887 1394.8174662 910.42149887 1394.8174662 911.62612915 1395.22129822 C913.79179316 1395.93170183 915.96420232 1396.60327147 918.1484375 1397.25390625 C933.72006859 1402.00661978 948.95012479 1408.81264218 961 1420 C962.2684375 1421.175625 962.2684375 1421.175625 963.5625 1422.375 C964.366875 1423.24125 965.17125 1424.1075 966 1425 C966.66515625 1425.64839844 967.3303125 1426.29679687 968.015625 1426.96484375 C981.24071234 1440.48232248 987.30256996 1458.33645288 987.2421875 1476.97387695 C986.96569808 1494.13522955 980.19949163 1509.20713026 968.04296875 1521.28125 C951.48987687 1536.63609972 929.88067594 1542.01084764 908 1544 C908 1564.46 908 1584.92 908 1606 C910.97 1606.99 913.94 1607.98 917 1609 C940.69672831 1617.14725243 961.9762445 1628.70026559 973.875 1651.9375 C980.7442397 1666.71194362 982.93076833 1684.14238549 978.4375 1700.0625 C970.64960336 1720.87545024 956.66913124 1734.55296678 936.66625977 1743.67749023 C926.72832567 1747.98704101 916.64951561 1750.06372444 906 1752 C906 1764.87 906 1777.74 906 1791 C908.990625 1792.0725 911.98125 1793.145 915.0625 1794.25 C940.79867255 1803.88727966 966.08726481 1816.91151613 978.58984375 1842.5078125 C983.54589108 1854.7812372 983.78347988 1868.47163951 979.3125 1880.953125 C969.26610869 1904.27510483 948.18487004 1920.61461736 925.14648438 1930.17382812 C918.22775013 1932.83681683 911.09701786 1934.87607495 904 1937 C904 1948.55 904 1960.1 904 1972 C907.485625 1973.155 910.97125 1974.31 914.5625 1975.5 C940.03474099 1984.23308333 961.43156902 1998.60599859 973.60546875 2023.25 C977.83308036 2032.9697874 979.34753528 2041.80835846 979.3125 2052.375 C979.32861328 2053.33921875 979.34472656 2054.3034375 979.36132812 2055.296875 C979.37362896 2073.64972717 970.56882041 2091.8465833 958 2105 C942.88247937 2118.65284735 927.0486703 2126.0732108 908 2133 C908 2141.25 908 2149.5 908 2158 C910.825625 2159.464375 913.65125 2160.92875 916.5625 2162.4375 C944.78693791 2177.24113763 973.28862478 2195.28924145 983.30859375 2227.28125 C988.049382 2245.92299363 983.51196471 2263.83090127 974.14160156 2280.12451172 C959.40929212 2304.32759152 935.88013214 2319.71690637 911 2332 C911.62242407 2338.35322084 912.59999354 2344.50836658 913.90185547 2350.75488281 C914.09225403 2351.68450836 914.28265259 2352.61413391 914.4788208 2353.57192993 C915.10382199 2356.61659879 915.73506338 2359.65992756 916.3671875 2362.703125 C916.80706939 2364.8306082 917.24685672 2366.95811095 917.68655396 2369.08563232 C918.60651797 2373.53103225 919.53001553 2377.975682 920.45556641 2382.41992188 C921.64056133 2388.11307624 922.81300884 2393.80873647 923.98238945 2399.50511551 C924.88537371 2403.89361948 925.79682994 2408.28033215 926.71066666 2412.66658783 C927.14668919 2414.76629489 927.57964374 2416.8666415 928.00945663 2418.96762848 C928.61054475 2421.90124687 929.22345386 2424.83215649 929.83935547 2427.76269531 C930.01401337 2428.62825043 930.18867126 2429.49380554 930.36862183 2430.3855896 C931.63755567 2436.33551094 933.35269979 2440.9138229 938.1171875 2444.9453125 C939.01739624 2445.71597046 939.01739624 2445.71597046 939.93579102 2446.50219727 C940.57572998 2447.03772217 941.21566895 2447.57324707 941.875 2448.125 C942.87648071 2448.97759399 942.87648071 2448.97759399 943.89819336 2449.84741211 C945.92651053 2451.5717102 947.96257982 2453.28647481 950 2455 C951.12938868 2455.95646189 952.2583267 2456.91345629 953.38671875 2457.87109375 C955.50353412 2459.6663185 957.62377752 2461.45737708 959.74609375 2463.24609375 C963.22514257 2466.18322806 966.67424179 2469.15473899 970.125 2472.125 C974.18620876 2475.61823856 978.27518971 2479.06448707 982.4375 2482.4375 C986.87239734 2486.03636367 991.19560716 2489.74739712 995.5 2493.5 C1000.70100053 2498.03293423 1005.95163648 2502.48259666 1011.32421875 2506.8125 C1013.22574008 2508.36702838 1015.10091553 2509.95402984 1016.95703125 2511.5625 C1021.61649579 2515.59745384 1026.10852371 2519.24987406 1031.625 2522.0625 C1046.8264811 2529.86037791 1054.64500196 2543.35303907 1061.3125 2558.375 C1062.00576846 2559.91637389 1062.69929768 2561.45763051 1063.39306641 2562.9987793 C1085.02723824 2611.2978328 1103.9407392 2660.73662807 1122.06561279 2710.44036865 C1122.93999559 2712.83562578 1123.81718218 2715.22982906 1124.69580078 2717.62353516 C1159.11586808 2811.42555566 1190.69150135 2906.73886294 1217 3006 C1217.33 3006 1217.66 3006 1218 3006 C1218 2015.34 1218 1024.68 1218 4 C817.38 4 416.76 4 4 4 Z M406.78125 1220.90625 C379.22995105 1250.83950563 359.32637125 1291.90864614 360 1333 C359.2874707 1332.98622314 358.57494141 1332.97244629 357.84082031 1332.95825195 C333.12249294 1332.69183886 308.42725516 1334.99205968 289.55859375 1352.23046875 C282.63936249 1359.43003718 279.83386017 1366.41518027 279.4375 1376.375 C279.7621037 1387.47868505 284.42176912 1396.27412047 291 1405 C291.67482422 1405.90492188 291.67482422 1405.90492188 292.36328125 1406.828125 C306.99733112 1425.13099301 331.48064564 1435.0761731 354 1439 C355.65 1439 357.3 1439 359 1439 C359 1466.06 359 1493.12 359 1521 C356.03 1521.99 353.06 1522.98 350 1524 C346.85814006 1525.27634314 343.80882255 1526.72398029 340.75 1528.1875 C339.92443604 1528.58187256 339.09887207 1528.97624512 338.24829102 1529.38256836 C327.29022018 1534.70438994 317.17839521 1540.93729302 308 1549 C306.69869141 1550.14082031 306.69869141 1550.14082031 305.37109375 1551.3046875 C297.55050985 1558.60079111 291.89297743 1566.42013355 291.1875 1577.375 C291.88944762 1589.87564162 299.01559753 1599.19820624 307.90625 1607.32421875 C319.66617507 1617.63962332 333.31042395 1624.89733547 347.375 1631.5625 C348.1067041 1631.90925781 348.8384082 1632.25601562 349.59228516 1632.61328125 C353.14598781 1634.38657981 353.14598781 1634.38657981 357 1635 C357 1664.7 357 1694.4 357 1725 C353.7 1725.66 350.4 1726.32 347 1727 C327.36548248 1732.76751297 305.74744609 1742.62533411 295 1761 C291.40129535 1768.07331603 290.83865448 1775.15682847 292 1783 C296.46421742 1796.49208568 305.58182786 1805.74755785 317.84375 1812.5859375 C320.52872473 1813.85898586 323.21334395 1814.96970795 326 1816 C326.81339844 1816.30679688 327.62679687 1816.61359375 328.46484375 1816.9296875 C337.75110541 1819.93448711 345.74042716 1819.46002248 356 1820 C355.34 1849.37 354.68 1878.74 354 1909 C346.41 1910.98 338.82 1912.96 331 1915 C316.00458452 1920.13001056 300.7912781 1926.95603995 291.3125 1940.3125 C288.92347642 1947.02451864 288.59109466 1953.46461021 291.2578125 1960.15625 C301.79080217 1979.16462205 319.76617327 1990.35819365 338 2001 C338.70382812 2001.41507813 339.40765625 2001.83015625 340.1328125 2002.2578125 C346.72740491 2006.83715337 346.72740491 2006.83715337 354 2009 C353.98120789 2010.09491257 353.98120789 2010.09491257 353.96203613 2011.21194458 C353.80311962 2020.516218 353.64939745 2029.82056932 353.5 2039.125 C353.48218412 2040.23423891 353.48218412 2040.23423891 353.46400833 2041.36588669 C353.08768111 2064.91173288 352.84788829 2088.45076655 353 2112 C352.04335449 2111.98952637 351.08670898 2111.97905273 350.10107422 2111.96826172 C346.4816476 2111.93149676 342.86223669 2111.9088987 339.24267578 2111.89013672 C337.68926195 2111.88020563 336.13586614 2111.86665621 334.58251953 2111.84912109 C316.31346846 2111.64836229 297.46846155 2112.67657989 282.87109375 2125.06640625 C275.21423066 2132.97903095 273.66279093 2139.92128788 273.61279297 2150.52685547 C273.84187305 2164.16098141 281.33796348 2176.5606971 291.015625 2185.95703125 C296.011868 2190.10600927 301.16853135 2193.37941615 306.9375 2196.3125 C307.56881836 2196.63774658 308.20013672 2196.96299316 308.85058594 2197.2980957 C318.98861898 2202.24507559 328.48562515 2203.43279653 339.6875 2203.1875 C340.87794922 2203.17396484 342.06839844 2203.16042969 343.29492188 2203.14648438 C346.19713408 2203.11151796 349.09822536 2203.05972404 352 2203 C351.92894547 2204.23581818 351.85789093 2205.47163635 351.78468323 2206.74490356 C350.95409793 2222.25964629 350.86595977 2237.74597036 350.89860606 2253.27951956 C350.90497377 2256.83617543 350.90545377 2260.39283271 350.90663147 2263.94949341 C350.90970608 2270.64592822 350.91786572 2277.34234618 350.92798096 2284.03877366 C350.93926431 2291.67879754 350.94468294 2299.31882235 350.94967639 2306.95885253 C350.96005285 2322.63924469 350.97757502 2338.31962015 351 2354 C349.01709652 2354.23148855 347.03419304 2354.46297709 345.05128956 2354.69446564 C342.21710845 2355.11660971 339.66585318 2355.98030331 336.98046875 2356.96875 C335.88468506 2357.3704541 334.78890137 2357.7721582 333.65991211 2358.18603516 C332.51401611 2358.61964355 331.36812012 2359.05325195 330.1875 2359.5 C328.99713135 2359.94778809 327.8067627 2360.39557617 326.58032227 2360.85693359 C302.93052697 2369.19287044 302.93052697 2369.19287044 284.375 2385.25 C280.87143934 2394.80516545 283.07204216 2403.00575781 287.12109375 2412.04296875 C291.48803488 2421.35987799 296.29330572 2430.32999373 301.76171875 2439.05078125 C302.40947266 2440.08783203 303.05722656 2441.12488281 303.72460938 2442.19335938 C305.01893582 2444.25011493 306.32856349 2446.2973314 307.65429688 2448.33398438 C308.5427832 2449.74067383 308.5427832 2449.74067383 309.44921875 2451.17578125 C309.98893311 2452.01020752 310.52864746 2452.84463379 311.0847168 2453.7043457 C312 2456 312 2456 311.32957458 2457.85791016 C309.7094609 2460.46809021 307.82601409 2462.40565421 305.64208984 2464.5690918 C304.74130707 2465.46649582 303.84052429 2466.36389984 302.91244507 2467.28849792 C301.92864162 2468.25877106 300.94480498 2469.22901055 299.9609375 2470.19921875 C298.95437717 2471.1995067 297.94833158 2472.20031285 296.94277954 2473.20161438 C294.3002028 2475.83091078 291.65210896 2478.45457345 289.00238037 2481.07666016 C284.75278676 2485.28306133 280.50998359 2489.49628624 276.27031326 2493.71268654 C274.78577825 2495.18696327 273.29789795 2496.65780231 271.80966187 2498.12834167 C270.91518341 2499.01628922 270.02070496 2499.90423676 269.09912109 2500.8190918 C268.30573334 2501.60422653 267.51234558 2502.38936127 266.69491577 2503.19828796 C264.88580161 2504.70912031 264.88580161 2504.70912031 265 2506 C495.67 2506 726.34 2506 964 2506 C956.36806022 2498.36806022 948.41213652 2491.25765305 940.015625 2484.48046875 C936.45330264 2481.55032018 932.97518766 2478.53248581 929.5 2475.5 C924.14079756 2470.82360669 918.71831374 2466.25864588 913.171875 2461.8046875 C911 2460 911 2460 909.328125 2458.2578125 C908.06284666 2456.77079128 908.06284666 2456.77079128 906 2457 C905.91363281 2456.34 905.82726562 2455.68 905.73828125 2455 C904.5430101 2446.57827298 902.85955492 2438.29805678 901.09667969 2429.97973633 C899.35007652 2421.72860705 897.69573474 2413.46173976 896.0625 2405.1875 C894.16208681 2395.5957804 892.15468895 2386.03777075 890 2376.5 C887.28441082 2364.47939393 884.84692815 2352.41325926 882.45703125 2340.32421875 C880.38700507 2329.86579672 878.19735852 2319.43229137 876 2309 C877.01578125 2308.97421875 878.0315625 2308.9484375 879.078125 2308.921875 C898.34368783 2308.225841 913.46546341 2300.43510353 928 2288 C929.22976563 2286.95199219 929.22976563 2286.95199219 930.484375 2285.8828125 C942.38597273 2275.45989812 954.52208306 2262.57836185 956.3125 2246.12890625 C956.87316711 2232.37504114 950.00167837 2222.39948356 941 2212.5 C931.51394883 2203.60419202 920.00244594 2197.24003697 908.5625 2191.25 C907.57588379 2190.73163574 906.58926758 2190.21327148 905.57275391 2189.67919922 C896.85797114 2185.21918939 888.14193311 2181.7643254 879 2178 C878.67 2154.9 878.34 2131.8 878 2108 C881.96 2107.67 885.92 2107.34 890 2107 C911.15534668 2102.49886241 930.25223086 2094.26516764 943.46484375 2076.4609375 C949.25693322 2067.17590858 952.13168416 2056.92389573 951 2046 C949.21711121 2039.03316825 946.27274784 2032.7699371 942 2027 C941.47019531 2026.28199219 940.94039062 2025.56398438 940.39453125 2024.82421875 C924.6573158 2005.39597195 897.52519133 1999.35649537 874 1996 C874.04543945 1994.16284424 874.04543945 1994.16284424 874.09179688 1992.28857422 C874.75363351 1965.187238 875.1568695 1938.10946365 875 1911 C875.97042236 1910.95391602 876.94084473 1910.90783203 877.94067383 1910.86035156 C885.39589939 1910.44604449 892.48491265 1909.82099107 899.6875 1907.75 C900.89128296 1907.41621338 900.89128296 1907.41621338 902.11938477 1907.07568359 C920.59217503 1901.80305172 939.41485575 1892.34955422 949.75 1875.4375 C953.24445038 1869.02749916 953.90106984 1863.2350608 953 1856 C947.88413305 1842.35117939 933.66009462 1833.99978588 921.06640625 1828.1171875 C917.08139027 1826.31972163 913.04818009 1824.64906564 909 1823 C907.91976562 1822.54753906 906.83953125 1822.09507812 905.7265625 1821.62890625 C891.27235152 1815.56641589 891.27235152 1815.56641589 876 1813 C876.01252808 1812.41595398 876.02505615 1811.83190796 876.03796387 1811.23016357 C876.65815361 1782.15085895 877.18735777 1753.08657258 877 1724 C877.97694824 1724.00870117 878.95389648 1724.01740234 879.96044922 1724.02636719 C887.049139 1724.06299223 894.07493101 1724.07878292 901.125 1723.25 C901.87652344 1723.16274658 902.62804687 1723.07549316 903.40234375 1722.9855957 C918.94301703 1720.99171673 934.44319147 1714.97994089 944.85546875 1702.8359375 C950.54781095 1694.88071359 953.29528412 1685.76674003 952 1676 C949.064019 1663.29588096 940.89784221 1652.94167547 930 1646 C925.15565631 1643.31129972 920.12003463 1641.10397052 915 1639 C914.04609375 1638.5978125 913.0921875 1638.195625 912.109375 1637.78125 C901.59814857 1633.81701603 889.23132265 1632 878 1632 C878.01252808 1631.18537796 878.02505615 1630.37075592 878.03796387 1629.53144836 C878.19717884 1619.1252067 878.3508656 1608.71889085 878.5 1598.3125 C878.51187725 1597.48398151 878.5237545 1596.65546303 878.53599167 1595.80183792 C878.92488427 1568.53292791 879.14560036 1541.27206705 879 1514 C880.11882568 1514.10393066 880.11882568 1514.10393066 881.26025391 1514.20996094 C904.69272005 1516.29005033 927.06827629 1516.09525755 946.5859375 1501.10546875 C953.49778315 1495.07717618 957.5836221 1488.22271542 958.31640625 1479.03125 C958.63314843 1470.91743102 958.47519301 1464.02647127 954 1457 C953.57589844 1456.2678125 953.15179687 1455.535625 952.71484375 1454.78125 C941.84564626 1437.09988139 923.4891148 1428.10396748 904 1423 C890.6205581 1420.01922246 890.6205581 1420.01922246 877 1419 C876.95512451 1417.90574707 876.91024902 1416.81149414 876.86401367 1415.68408203 C874.96266307 1368.6535769 874.96266307 1368.6535769 869 1322 C868.83274414 1321.02305176 868.66548828 1320.04610352 868.49316406 1319.03955078 C862.32881401 1283.82803611 849.42776255 1252.50230714 825 1226 C824.5472168 1225.50338867 824.09443359 1225.00677734 823.62792969 1224.49511719 C779.12874367 1176.23278647 705.68428515 1154.77567075 642 1150 C640.87126465 1149.91322998 640.87126465 1149.91322998 639.71972656 1149.82470703 C557.02315766 1143.75837187 466.87467355 1159.39886354 406.78125 1220.90625 Z M228.81200594 2544.89519966 C228.21404398 2545.91978377 227.61608202 2546.94436788 227 2548 C225.50710631 2549.8355813 223.98982281 2551.65189529 222.4375 2553.4375 C220.95082316 2555.28565043 219.4717261 2557.13992195 218 2559 C217.25983643 2559.93424805 216.51967285 2560.86849609 215.75708008 2561.83105469 C209.19543447 2570.24178654 203.14352242 2578.92340352 197.25 2587.8125 C196.53150375 2588.89372635 196.53150375 2588.89372635 195.79849243 2589.99679565 C187.35870205 2602.72047341 179.36049489 2615.61672332 172 2629 C171.68069519 2629.57864807 171.36139038 2630.15729614 171.03240967 2630.753479 C149.21104429 2670.33381276 130.69219809 2711.53825026 114.81256104 2753.840271 C113.97597216 2756.06386427 113.13374297 2758.28525955 112.29052734 2760.50634766 C101.11596214 2789.99138391 91.31784888 2819.88077014 82 2850 C81.74474548 2850.82187805 81.48949097 2851.6437561 81.22650146 2852.49053955 C65.87320929 2902.01184693 54.31673909 2953.50770108 45.59350586 3004.578125 C45.16856934 3007.02810863 44.73036061 3009.47580482 44.28344727 3011.921875 C41.26254915 3028.46967141 39.23875311 3045.14221003 37.25708008 3061.84173584 C37.03552131 3063.70178794 36.80833623 3065.56116829 36.58007812 3067.42041016 C31.82130679 3107.50028794 33.81668975 3149.32683531 41.375 3188.875 C41.51575958 3189.61304871 41.65651917 3190.35109741 41.80154419 3191.11151123 C43.90098304 3201.94915911 46.71968618 3212.46343044 50 3223 C50.32581055 3224.06105957 50.65162109 3225.12211914 50.98730469 3226.21533203 C65.24163471 3271.95764731 88.6423543 3315.25115819 121.5078125 3350.32421875 C123.60197542 3352.57265386 125.62740662 3354.85390589 127.625 3357.1875 C133.86184523 3364.36210477 140.71446359 3370.90370329 148 3377 C148.5451123 3377.45890625 149.09022461 3377.9178125 149.65185547 3378.390625 C181.64469136 3405.22496551 219.35945055 3426.6518378 260 3437 C260.8245166 3437.21495117 261.6490332 3437.42990234 262.49853516 3437.65136719 C272.93469109 3440.35140236 283.21557041 3442.54351436 293.9453125 3443.640625 C297 3444 297 3444 300 3445 C343.03530565 3450.18427251 389.51998676 3444.2796193 430 3429 C430.93102539 3428.64953613 431.86205078 3428.29907227 432.82128906 3427.93798828 C454.03507396 3419.86745232 474.71325988 3410.63173104 494.13671875 3398.83203125 C497.85602755 3396.58186049 501.54125132 3394.82784454 505.63208008 3393.36206055 C509.13807232 3391.37293697 511.86226062 3389.41941097 514 3386 C514.81742761 3381.60528977 514.59398324 3377.3034516 514.4140625 3372.85107422 C514.37237949 3370.82924272 514.33073571 3368.80740994 514.29076862 3366.7855438 C514.2436225 3364.64253647 514.18223067 3362.50030705 514.11795044 3360.35774994 C513.994386 3356.07851378 513.93653513 3351.8003483 513.89819336 3347.51959229 C513.88497089 3346.08321697 513.87174659 3344.64684167 513.85852051 3343.21046638 C513.85193924 3342.49071326 513.84535797 3341.77096013 513.83857727 3341.0293963 C513.80070333 3337.26320636 513.74793928 3333.4972364 513.69506836 3329.73123169 C513.68433477 3328.9626478 513.67360119 3328.19406392 513.66254234 3327.40218961 C513.640463 3325.82439831 513.61832889 3324.24660778 513.59614182 3322.668818 C513.53860051 3318.54500971 513.48343333 3314.42116955 513.42797852 3310.29733276 C513.32334989 3302.54221231 513.21668891 3294.78712129 513.10923481 3287.03203952 C512.98668867 3278.1802646 512.86650404 3269.32845806 512.74648476 3260.47664857 C512.50022171 3242.31772992 512.25078899 3224.15885674 512 3206 C521.57 3206 531.14 3206 541 3206 C540.98259766 3210.18623047 540.98259766 3210.18623047 540.96484375 3214.45703125 C540.87608572 3242.99554271 541.0897631 3271.52641538 541.4375 3300.0625 C541.45393177 3301.41092861 541.45393177 3301.41092861 541.4706955 3302.78659821 C541.80324605 3329.86192661 542.21862551 3356.93328809 543 3384 C560.78738311 3391.3863015 578.61049299 3398.67692964 596.5 3405.8125 C627.13072833 3418.03163288 657.7168324 3430.36164812 688.30728149 3442.68118286 C697.63012796 3446.43566044 706.95352151 3450.18877064 716.27800941 3453.93916988 C722.40948799 3456.40531456 728.54059092 3458.8723912 734.67139244 3461.34021854 C738.19480317 3462.75844747 741.7183932 3464.17622619 745.24249268 3465.59274292 C748.49961173 3466.90195193 751.75608098 3468.21276618 755.01220322 3469.52445221 C756.85379899 3470.26566626 758.69619583 3471.00488901 760.53860474 3471.74407959 C766.32804093 3474.07544877 772.08913392 3476.45336611 777.81347656 3478.94067383 C778.8948288 3479.40651382 779.97618103 3479.87235382 781.09030151 3480.35231018 C783.08821639 3481.21713807 785.08079766 3482.09446027 787.06619263 3482.98765564 C796.38989885 3487.01346011 805.03436353 3487.20887503 815 3486 C816.03447266 3485.88833496 816.03447266 3485.88833496 817.08984375 3485.77441406 C858.0999865 3480.95792069 896.48752771 3452.57142711 929.13671875 3429.43359375 C933.88750443 3426.06730647 938.68668426 3422.77601888 943.5 3419.5 C949.97195684 3415.08973389 956.40488767 3410.628208 962.8125 3406.125 C969.79839434 3401.2187768 976.81885238 3396.3671507 983.875 3391.5625 C984.78781738 3390.94076904 985.70063477 3390.31903809 986.64111328 3389.6784668 C991.2924709 3386.51362975 995.94975936 3383.35782073 1000.61328125 3380.2109375 C1018.3567816 3368.21609568 1035.54159757 3355.71166128 1052 3342 C1052.57443848 3341.5246582 1053.14887695 3341.04931641 1053.74072266 3340.55957031 C1066.21903323 3330.22546089 1077.90497493 3319.18348046 1089.375 3307.75 C1089.8494455 3307.27823334 1090.32389099 3306.80646667 1090.81271362 3306.32040405 C1096.43169461 3300.72550806 1101.893168 3295.06764937 1107 3289 C1107.50998535 3288.39671875 1108.0199707 3287.7934375 1108.54541016 3287.171875 C1135.0054648 3255.58587317 1155.63630159 3220.66234331 1170 3182 C1170.33080566 3181.13358887 1170.66161133 3180.26717773 1171.00244141 3179.37451172 C1176.27834934 3165.53840943 1179.79664828 3151.4422298 1183 3137 C1183.31050198 3135.66390058 1183.62159123 3134.32793732 1183.93359375 3132.9921875 C1188.5746879 3111.87881617 1190.14779578 3089.66767494 1190.16796875 3068.09765625 C1190.17129715 3066.81805527 1190.17462555 3065.53845428 1190.17805481 3064.22007751 C1190.18398319 3061.52846432 1190.1859015 3058.83688291 1190.18530273 3056.14526367 C1190.18522191 3053.43946587 1190.19210612 3050.73383894 1190.20581055 3048.02807617 C1190.27197159 3034.72662109 1190.26014146 3021.46331948 1189.16015625 3008.19921875 C1189.08870895 3007.30767593 1189.01726166 3006.41613312 1188.94364929 3005.49757385 C1188.1116959 2996.78444375 1185.63201206 2988.66791845 1182.81884766 2980.41308594 C1181.46381386 2976.4198975 1180.20571174 2972.39642003 1178.9375 2968.375 C1178.68846924 2967.59511719 1178.43943848 2966.81523437 1178.18286133 2966.01171875 C1176.23479782 2959.87592488 1174.50764934 2953.69325845 1172.82177734 2947.48120117 C1171.54551275 2942.8275793 1170.12340921 2938.25589352 1168.5625 2933.6875 C1166.29567723 2927.0489476 1164.37148808 2920.34752759 1162.47790527 2913.59432983 C1160.56312994 2906.83421974 1158.49294487 2900.1356075 1156.3359375 2893.44921875 C1155.98978897 2892.37219193 1155.64364044 2891.2951651 1155.28700256 2890.1855011 C1127.32728742 2803.30128633 1097.30387547 2717.40957304 1061.93383789 2633.22717285 C1060.64019824 2630.14188456 1059.35918435 2627.05147021 1058.078125 2623.9609375 C1052.54800528 2610.67836256 1046.74680547 2597.51270514 1040.93258667 2584.35256958 C1040.02623985 2582.3001417 1039.12152975 2580.2469902 1038.21853638 2578.19308472 C1036.94444729 2575.29799714 1035.66274498 2572.40639997 1034.37890625 2569.515625 C1033.99702148 2568.64488846 1033.61513672 2567.77415192 1033.22167969 2566.87702942 C1027.89089193 2554.93739136 1021.16116132 2548.07793172 1009 2543 C996.2848634 2538.25922709 984.77663816 2535.69909538 971.14968967 2535.7203846 C969.88192002 2535.71448175 968.61415037 2535.7085789 967.30796346 2535.70249718 C963.79892796 2535.68646755 960.28997226 2535.68270951 956.78090452 2535.68105128 C952.95949854 2535.67709393 949.13813496 2535.66173542 945.31675428 2535.64790618 C937.74220613 2535.62233374 930.16767161 2535.6075283 922.5930904 2535.59610861 C913.51864799 2535.58196484 904.44424606 2535.55645026 895.36982958 2535.53101023 C872.40197841 2535.46738696 849.43410043 2535.4276563 826.46619073 2535.39243919 C820.24577327 2535.38289894 814.02535663 2535.37288247 807.80493999 2535.36282873 C769.18652581 2535.30074912 730.56810467 2535.24752195 691.94965458 2535.21399117 C683.00785878 2535.2061169 674.06606313 2535.19809314 665.12426758 2535.18994141 C664.01338214 2535.18893807 662.90249671 2535.18793473 661.75794807 2535.18690099 C625.71918145 2535.15404558 589.68068594 2535.07709749 553.64205275 2534.9753672 C516.58704169 2534.87095843 479.53217507 2534.80536796 442.47701391 2534.7908361 C437.24535627 2534.7887789 432.01369889 2534.78630627 426.78204155 2534.78359604 C425.75241795 2534.78307996 424.72279435 2534.78256389 423.66197003 2534.78203217 C407.08560353 2534.77263865 390.50959454 2534.72275627 373.93336192 2534.65809318 C357.27904938 2534.59407142 340.62513993 2534.57406014 323.97071893 2534.59895708 C314.0743956 2534.61244413 304.17945557 2534.59248886 294.28334811 2534.52470307 C287.67310307 2534.48272575 281.06379586 2534.48433984 274.45352368 2534.5213699 C270.68646249 2534.54123183 266.92203771 2534.54220574 263.1552266 2534.49004425 C243.38505697 2533.49634125 243.38505697 2533.49634125 228.81200594 2544.89519966 Z " fill="#010101" transform="translate(0,0)"/>
<path d="M0 0 C403.26 0 806.52 0 1222 0 C1222 1311.75 1222 2623.5 1222 3975 C818.74 3975 415.48 3975 0 3975 C0 2663.25 0 1351.5 0 0 Z M4 4 C4 1313.11 4 2622.22 4 3971 C404.62 3971 805.24 3971 1218 3971 C1218.24973615 3691.77662019 1218.24973615 3691.77662019 1218.47802734 3412.55322266 C1218.5324707 3358.58862305 1218.5324707 3358.58862305 1218.56045532 3333.3374939 C1218.58059212 3314.51255584 1218.59419746 3295.68762408 1218.6046236 3276.86267854 C1218.61542448 3257.65245694 1218.63364577 3238.44225283 1218.65892879 3219.23204478 C1218.67373189 3207.82060826 1218.68324785 3196.4091983 1218.68460928 3184.99775209 C1218.68605276 3177.4474087 1218.69474928 3169.89709544 1218.70917081 3162.34676576 C1218.71716385 3158.05637891 1218.72217896 3153.76605115 1218.71827626 3149.47565722 C1218.70482179 3132.47949331 1218.9696843 3115.65171273 1220.54635012 3098.70997465 C1221.38793803 3089.24799391 1221.29782006 3079.74193596 1221.26074219 3070.25 C1221.24999937 3066.99981049 1221.26074151 3063.75017334 1221.2734375 3060.5 C1221.27735241 3051.35482256 1221.20252444 3042.27931379 1220.27852248 3033.17569022 C1218.17668708 3011.6930847 1218.71486538 2990.04668512 1218.735956 2968.4888792 C1218.73997658 2962.08618586 1218.73229964 2955.68350404 1218.72617769 2949.28081381 C1218.71666588 2938.03289146 1218.71515277 2926.78498489 1218.71827881 2915.53705941 C1218.72160677 2903.41419618 1218.72048809 2891.29134495 1218.71413441 2879.1684828 C1218.71373304 2878.39758453 1218.71333167 2877.62668626 1218.71291814 2876.83242745 C1218.71084894 2872.89578584 1218.70870993 2868.95914427 1218.70654711 2865.02250271 C1218.69092867 2836.32276568 1218.68508759 2807.62303307 1218.68421364 2778.92329216 C1218.68329565 2749.84367694 1218.67800404 2720.76406731 1218.66738319 2691.68445396 C1218.66688326 2690.30768125 1218.66688326 2690.30768125 1218.66637323 2688.90309494 C1218.66331719 2680.49138145 1218.66021264 2672.07966798 1218.65705032 2663.66795452 C1218.64912366 2642.57709123 1218.64185499 2621.48622773 1218.63502336 2600.39536405 C1218.63470988 2599.42901638 1218.6343964 2598.46266871 1218.63407343 2597.46703778 C1218.61868648 2549.85339103 1218.61077265 2502.23974336 1218.60334396 2454.62609482 C1218.60072438 2437.86914999 1218.59806924 2421.11220517 1218.59528303 2404.35526037 C1218.59510985 2403.31356101 1218.59493667 2402.27186165 1218.59475824 2401.19859565 C1218.5866888 2352.92217287 1218.57350288 2304.6457519 1218.5590107 2256.36933067 C1218.55806288 2253.21106788 1218.55711745 2250.0528051 1218.55617265 2246.89454231 C1218.55047312 2227.8498977 1218.54472035 2208.80525311 1218.53890612 2189.76060853 C1218.52445501 2142.41805847 1218.51064239 2095.07550822 1218.49726295 2047.73295784 C1218.49695807 2046.65524349 1218.49665318 2045.57752914 1218.49633905 2044.46715678 C1218.47660136 1974.68064956 1218.45949192 1904.894142 1218.4445858 1835.10763359 C1218.44434784 1833.99365833 1218.44410987 1832.87968307 1218.4438647 1831.73195099 C1218.43662669 1797.82257233 1218.42958337 1763.91319363 1218.42257814 1730.00381493 C1218.41482516 1692.47904474 1218.40703896 1654.95427455 1218.39910889 1617.42950439 C1218.39887053 1616.30110183 1218.39863218 1615.17269927 1218.39838661 1614.01010269 C1218.37573221 1506.81217008 1218.34771648 1399.61423909 1218.31831678 1292.41630815 C1218.31707171 1287.87507196 1218.31582819 1283.33383576 1218.31458474 1278.79259957 C1218.30314195 1237.00277212 1218.29163627 1195.21294468 1218.28005161 1153.42311727 C1218.27974357 1152.31187592 1218.27943552 1151.20063457 1218.27911814 1150.05571924 C1218.27818545 1146.69117909 1218.27725273 1143.32663894 1218.27632002 1139.96209879 C1218.25112336 1049.07038358 1218.22647519 958.17866823 1218.20218242 867.28695278 C1218.20132518 864.08010608 1218.20046752 860.87325938 1218.19960973 857.66641269 C1218.17174034 753.46966852 1218.14484175 649.27292417 1218.1018297 465.28927325 C1218.10117604 462.45224609 1218.10052184 459.61521893 1218.09986744 456.77819176 C1218.09954617 455.38520364 1218.09954617 455.38520364 1218.09921841 453.96407435 C1218.09882859 452.27390601 1218.09843869 450.58373766 1218.09804869 448.89356932 C1218.06385181 300.59571322 1218.03227157 152.29785653 1218 4 C817.38 4 416.76 4 4 4 Z " fill="#FEFEFE" transform="translate(0,0)"/>
<path d="M0 0 C0.33 0 0.66 0 1 0 C1 1311.75 1 2623.5 1 3975 C0.67 3975 0.34 3975 0 3975 C-0.495 3547.815 -0.495 3547.815 -1 3112 C-1.33 3112 -1.66 3112 -2 3112 C-1.92932779 3110.88590144 -1.85865557 3109.77180288 -1.78584178 3108.62394376 C-1.02894044 3096.00932899 -0.85712233 3083.44235657 -0.86938947 3070.80782205 C-0.86781798 3068.61373348 -0.86581066 3066.41964518 -0.86341216 3064.22555736 C-0.85809242 3058.21185908 -0.85892775 3052.19817527 -0.86079345 3046.18447551 C-0.86162699 3040.29202461 -0.85772427 3034.39957721 -0.85398808 3028.50712784 C-0.84639496 3016.26840032 -0.84349981 3004.02967573 -0.84316199 2991.79094604 C-0.84279747 2979.32770108 -0.84022621 2966.86445938 -0.8350333 2954.40121546 C-0.83454073 2953.21422057 -0.83454073 2953.21422057 -0.8340382 2952.003246 C-0.83235163 2947.96255549 -0.8306302 2943.92186499 -0.82889687 2939.8811745 C-0.81632154 2910.39176585 -0.80863618 2880.90235748 -0.80341911 2851.4129467 C-0.7981155 2821.52572661 -0.79063469 2791.63850822 -0.78049088 2761.75128937 C-0.78017188 2760.80855484 -0.77985288 2759.8658203 -0.77952421 2758.89451806 C-0.7766 2750.25493968 -0.77365158 2741.61536131 -0.77067431 2732.97578295 C-0.7632099 2711.31184923 -0.75607398 2689.6479154 -0.74915612 2667.98398149 C-0.74883889 2666.99128793 -0.74852167 2665.99859437 -0.74819483 2664.97581919 C-0.73258747 2616.04392661 -0.72071057 2567.1120332 -0.70907402 2518.18013954 C-0.70497528 2500.95570381 -0.70085881 2483.73126808 -0.69667697 2466.50683236 C-0.69628705 2464.90072647 -0.69628705 2464.90072647 -0.69588925 2463.26217399 C-0.68382421 2413.6550791 -0.66920785 2364.04798506 -0.65393867 2314.44089107 C-0.65294008 2311.19621954 -0.65194269 2307.95154801 -0.65094561 2304.70687648 C-0.64493205 2285.14137555 -0.63889192 2265.57587462 -0.63282111 2246.0103737 C-0.61773051 2197.37139082 -0.60295856 2148.73240784 -0.58840275 2100.0934248 C-0.58807123 2098.98615524 -0.5877397 2097.87888569 -0.58739814 2096.73806251 C-0.56593036 2025.02808739 -0.54577436 1953.31811198 -0.52671719 1881.60813618 C-0.52641293 1880.46331254 -0.52610868 1879.3184889 -0.52579521 1878.13897364 C-0.51653642 1843.28999793 -0.50737475 1808.4410222 -0.49823208 1773.59204647 C-0.48811417 1735.02738806 -0.47797969 1696.46272967 -0.46777344 1657.89807129 C-0.46746659 1656.7384104 -0.46715973 1655.57874951 -0.46684358 1654.38394738 C-0.4376914 1544.23214613 -0.40586499 1434.08034569 -0.37334755 1323.92854538 C-0.37197034 1319.26261289 -0.37059389 1314.59668039 -0.36921749 1309.93074789 C-0.35655136 1266.99367217 -0.34385386 1224.05659645 -0.33111694 1181.11952074 C-0.33077826 1179.97778025 -0.33043957 1178.83603976 -0.33009062 1177.65970106 C-0.32906517 1174.20281783 -0.3280397 1170.74593459 -0.32701423 1167.28905136 C-0.29931125 1073.90085008 -0.27188196 980.51264872 -0.24463 887.1244473 C-0.24366841 883.82946391 -0.24270661 880.53448051 -0.24174474 877.23949712 C-0.210506 770.22440974 -0.17976013 663.20932224 -0.07592773 283.6262207 C-0.07567789 282.69988253 -0.07542805 281.77354436 -0.07517064 280.81913534 C-0.05199354 194.88430593 -0.02895315 108.94947648 0 0 Z " fill="#F3F3F3" transform="translate(1221,0)"/>
</svg>
