<?xml version="1.0" encoding="UTF-8"?>
<!DOCTYPE svg PUBLIC "-//W3C//DTD SVG 1.1//EN" "http://www.w3.org/Graphics/SVG/1.1/DTD/svg11.dtd">
<svg xmlns="http://www.w3.org/2000/svg" version="1.1" width="1202px" height="3975px" style="shape-rendering:geometricPrecision; text-rendering:geometricPrecision; image-rendering:optimizeQuality; fill-rule:evenodd; clip-rule:evenodd" xmlns:xlink="http://www.w3.org/1999/xlink">
<g><path style="opacity:0.931" fill="#fcfcfc" d="M -0.5,-0.5 C 400.167,-0.5 800.833,-0.5 1201.5,-0.5C 1201.5,1324.5 1201.5,2649.5 1201.5,3974.5C 800.833,3974.5 400.167,3974.5 -0.5,3974.5C -0.5,2649.5 -0.5,1324.5 -0.5,-0.5 Z M 3.5,3.5 C 401.5,3.5 799.5,3.5 1197.5,3.5C 1197.5,1325.83 1197.5,2648.17 1197.5,3970.5C 799.5,3970.5 401.5,3970.5 3.5,3970.5C 3.5,2648.17 3.5,1325.83 3.5,3.5 Z"/></g>
<g><path style="opacity:0.982" fill="#010101" d="M 664.5,567.5 C 697.957,566.03 729.957,572.197 760.5,586C 888.284,641.838 1003.62,716.172 1106.5,809C 1152.26,852.008 1179.42,904.841 1188,967.5C 1194.4,1015.69 1193.07,1063.69 1184,1111.5C 1162.7,1219.52 1118.7,1316.86 1052,1403.5C 1034.7,1424.47 1015.7,1443.8 995,1461.5C 963.034,1496.47 930.7,1531.13 898,1565.5C 889.479,1604.91 880.646,1644.25 871.5,1683.5C 898.425,1694.6 921.258,1711.26 940,1733.5C 966.419,1771.03 962.919,1805.53 929.5,1837C 911.16,1851.76 890.993,1863.59 869,1872.5C 868.5,1882.16 868.334,1891.83 868.5,1901.5C 894.338,1907.33 916.171,1920 934,1939.5C 956.132,1969.81 957.132,2000.81 937,2032.5C 917.929,2055.02 893.762,2069.02 864.5,2074.5C 864.5,2087.83 864.5,2101.17 864.5,2114.5C 899.108,2120.87 926.608,2138.2 947,2166.5C 961.383,2195.49 955.883,2220.32 930.5,2241C 911.14,2255.18 889.807,2265.35 866.5,2271.5C 866.5,2286.17 866.5,2300.83 866.5,2315.5C 894.846,2317.59 918.679,2328.93 938,2349.5C 960.874,2385.38 956.707,2417.88 925.5,2447C 908.818,2459.63 890.151,2468.13 869.5,2472.5C 868.956,2495.49 868.956,2518.49 869.5,2541.5C 900.316,2541.83 926.149,2553.17 947,2575.5C 968.395,2612.07 963.561,2644.9 932.5,2674C 912.853,2689.72 890.52,2699.56 865.5,2703.5C 864.714,2744.16 859.214,2784.16 849,2823.5C 832.729,2873.43 802.562,2912.6 758.5,2941C 699.318,2975.8 635.318,2995.47 566.5,3000C 498.9,3005.68 433.233,2997.01 369.5,2974C 303.938,2949.1 256.438,2904.93 227,2841.5C 221.603,2827.91 217.77,2813.91 215.5,2799.5C 183.078,2799.03 155.912,2787.03 134,2763.5C 117.513,2739.09 116.179,2713.76 130,2687.5C 145.076,2663.43 165.909,2646.26 192.5,2636C 198.619,2633.63 204.786,2631.46 211,2629.5C 211.833,2615.16 211.666,2600.82 210.5,2586.5C 186.825,2577.08 166.325,2563.08 149,2544.5C 129.122,2516.37 129.789,2488.71 151,2461.5C 167.286,2444.1 186.453,2430.77 208.5,2421.5C 209.931,2403.47 209.764,2385.47 208,2367.5C 187.111,2360.56 168.778,2349.56 153,2334.5C 131.891,2309.92 128.891,2283.25 144,2254.5C 159.437,2232.18 180.603,2218.52 207.5,2213.5C 207.595,2198.48 207.095,2183.48 206,2168.5C 187.62,2163.39 170.787,2155.23 155.5,2144C 126.175,2117.24 124.008,2088.41 149,2057.5C 165.275,2040.78 183.775,2027.12 204.5,2016.5C 204.796,1995.86 204.796,1975.19 204.5,1954.5C 179.477,1954.42 156.811,1947.25 136.5,1933C 113.959,1911.99 107.792,1886.82 118,1857.5C 131.722,1826.04 155.222,1805.87 188.5,1797C 193.144,1795.97 197.81,1795.14 202.5,1794.5C 202.896,1757.48 202.23,1720.48 200.5,1683.5C 181.813,1677.49 164.146,1669.32 147.5,1659C 127.459,1644.53 120.292,1625.37 126,1601.5C 131.916,1583.5 140.083,1566.67 150.5,1551C 131.71,1522.59 112.544,1494.42 93,1466.5C 85.5166,1447.2 76.1832,1428.87 65,1411.5C 28.4142,1321.74 8.91421,1228.4 6.5,1131.5C 4.43114,1046.53 30.2645,971.53 84,906.5C 115.903,871.245 151.403,840.412 190.5,814C 272.186,760.475 356.186,710.475 442.5,664C 492.741,638.713 543.074,613.713 593.5,589C 616.279,578.459 639.946,571.292 664.5,567.5 Z"/></g>
<g><path style="opacity:1" fill="#fdfdfd" d="M 669.5,598.5 C 683.287,598.235 696.953,599.402 710.5,602C 728.649,606.605 746.316,612.605 763.5,620C 870.936,669.23 969.602,731.564 1059.5,807C 1073.63,819.466 1087.47,832.299 1101,845.5C 1134.51,884.211 1154.18,929.211 1160,980.5C 1164.62,1028.99 1161.62,1076.99 1151,1124.5C 1128.72,1223.16 1086.38,1311.82 1024,1390.5C 1015.48,1400.02 1006.64,1409.19 997.5,1418C 699.499,1418.83 401.499,1418.67 103.5,1417.5C 96.6183,1407.07 90.785,1396.07 86,1384.5C 59.5805,1312.74 43.2472,1238.74 37,1162.5C 26.9375,1052.63 62.7708,961.134 144.5,888C 165.109,870.368 186.442,853.701 208.5,838C 337.866,751.955 473.866,676.622 616.5,612C 633.711,605.115 651.378,600.615 669.5,598.5 Z"/></g>
<g><path style="opacity:1" fill="#222222" d="M 818.5,1448.5 C 867.668,1447.17 917.002,1447.17 966.5,1448.5C 966.376,1449.11 966.043,1449.44 965.5,1449.5C 916.67,1448.5 867.67,1448.17 818.5,1448.5 Z"/></g>
<g><path style="opacity:1" fill="#b7b7b8" d="M 818.5,1448.5 C 867.67,1448.17 916.67,1448.5 965.5,1449.5C 934.205,1483.3 902.705,1516.96 871,1550.5C 859.047,1603.1 847.547,1655.77 836.5,1708.5C 843.5,1708.92 850.5,1709.42 857.5,1710C 883.604,1719.78 904.771,1735.95 921,1758.5C 931.202,1776.92 929.202,1793.92 915,1809.5C 905.316,1818.93 894.482,1826.76 882.5,1833C 868.852,1839.99 854.852,1846.16 840.5,1851.5C 839.5,1876.49 839.167,1901.49 839.5,1926.5C 860.456,1928.32 879.79,1934.82 897.5,1946C 915.524,1958.55 923.357,1975.71 921,1997.5C 916.608,2011.22 908.441,2022.05 896.5,2030C 877.373,2041.33 856.706,2047.83 834.5,2049.5C 834.416,2080.17 834.749,2110.84 835.5,2141.5C 868.017,2141.61 895.517,2153.28 918,2176.5C 925.83,2187.11 926.496,2198.11 920,2209.5C 907.714,2222.07 893.214,2231.23 876.5,2237C 863.429,2241.58 850.262,2245.75 837,2249.5C 836.718,2281.17 836.885,2312.83 837.5,2344.5C 860.009,2342.88 881.342,2347.05 901.5,2357C 922.33,2370.15 927.83,2387.99 918,2410.5C 909.916,2421.91 899.416,2430.41 886.5,2436C 871.075,2442.07 855.075,2445.57 838.5,2446.5C 839.155,2488.5 839.488,2530.5 839.5,2572.5C 860.6,2569.97 881.267,2571.8 901.5,2578C 931.219,2591.91 938.053,2613.08 922,2641.5C 912.951,2652.45 901.784,2660.62 888.5,2666C 872.08,2672.28 855.08,2676.11 837.5,2677.5C 835.931,2705.87 833.764,2734.21 831,2762.5C 824.824,2838.09 788.324,2893.26 721.5,2928C 669.213,2953.91 613.88,2968.24 555.5,2971C 489.579,2976.01 426.246,2965.68 365.5,2940C 308.583,2914.42 269.749,2872.25 249,2813.5C 245.117,2800.11 242.784,2786.44 242,2772.5C 225.059,2771.47 208.226,2769.31 191.5,2766C 178.511,2762.09 167.345,2755.26 158,2745.5C 147.268,2727.93 148.268,2710.93 161,2694.5C 182.662,2670.92 209.496,2657.25 241.5,2653.5C 241.5,2624.5 241.5,2595.5 241.5,2566.5C 220.14,2559.49 200.473,2549.32 182.5,2536C 158.5,2514.67 158.5,2493.33 182.5,2472C 199.896,2459.05 218.729,2448.55 239,2440.5C 238.937,2408.5 238.77,2376.5 238.5,2344.5C 218.054,2340.77 199.388,2332.94 182.5,2321C 158.536,2299.26 158.536,2277.59 182.5,2256C 198.962,2244.57 217.295,2239.07 237.5,2239.5C 237.126,2207.83 236.793,2176.17 236.5,2144.5C 217.134,2141.43 198.801,2135.27 181.5,2126C 173.617,2121.12 167.451,2114.62 163,2106.5C 160.333,2098.19 161.667,2090.53 167,2083.5C 176.061,2071.72 186.894,2061.89 199.5,2054C 210.757,2047.12 222.257,2040.62 234,2034.5C 234.5,2008.17 234.667,1981.84 234.5,1955.5C 234.5,1944.83 234.5,1934.17 234.5,1923.5C 230.958,1923.19 227.625,1923.52 224.5,1924.5C 203.721,1926.73 183.721,1923.9 164.5,1916C 147.363,1906.89 140.53,1892.72 144,1873.5C 151.318,1852.18 165.485,1837.35 186.5,1829C 201.336,1823.56 216.67,1821.39 232.5,1822.5C 231.987,1768.83 231.654,1715.17 231.5,1661.5C 209.984,1655.94 189.318,1648.11 169.5,1638C 162.614,1634.11 157.447,1628.61 154,1621.5C 153.048,1615.64 153.715,1609.97 156,1604.5C 164.887,1585.72 175.053,1567.72 186.5,1550.5C 163.696,1516.53 140.696,1482.7 117.5,1449C 351.166,1448.5 584.833,1448.33 818.5,1448.5 Z"/></g>
<g><path style="opacity:1" fill="#444444" d="M 224.5,1924.5 C 227.625,1923.52 230.958,1923.19 234.5,1923.5C 234.5,1934.17 234.5,1944.83 234.5,1955.5C 233.506,1945.35 233.172,1935.01 233.5,1924.5C 230.5,1924.5 227.5,1924.5 224.5,1924.5 Z"/></g>
</svg>
