<?xml version="1.0" encoding="UTF-8"?>
<!DOCTYPE svg PUBLIC "-//W3C//DTD SVG 1.1//EN" "http://www.w3.org/Graphics/SVG/1.1/DTD/svg11.dtd">
<svg xmlns="http://www.w3.org/2000/svg" version="1.1" width="1222px" height="3975px" style="shape-rendering:geometricPrecision; text-rendering:geometricPrecision; image-rendering:optimizeQuality; fill-rule:evenodd; clip-rule:evenodd" xmlns:xlink="http://www.w3.org/1999/xlink">
<g><path style="opacity:0.844" fill="#fdfdfd" d="M -0.5,-0.5 C 406.833,-0.5 814.167,-0.5 1221.5,-0.5C 1221.5,1324.5 1221.5,2649.5 1221.5,3974.5C 814.167,3974.5 406.833,3974.5 -0.5,3974.5C -0.5,2649.5 -0.5,1324.5 -0.5,-0.5 Z M 1217.5,3045.5 C 1210.71,2996.08 1199.88,2947.41 1185,2899.5C 1152.39,2798.01 1118.39,2697.01 1083,2596.5C 1069.31,2557.34 1061.97,2517.01 1061,2475.5C 1049.3,2315.76 1036.64,2156.09 1023,1996.5C 1011.35,1859.65 993.354,1723.65 969,1588.5C 951.38,1491.35 925.047,1396.68 890,1304.5C 864.619,1238.7 830.286,1178.37 787,1123.5C 746.967,1074.59 698.133,1037.42 640.5,1012C 629.823,1007.77 618.823,1004.77 607.5,1003C 601.5,1002.33 595.5,1002.33 589.5,1003C 583.694,1004.17 578.028,1005.5 572.5,1007C 547.797,977.005 521.464,948.338 493.5,921C 472.596,901.755 450.263,884.422 426.5,869C 411.01,860.058 394.677,853.058 377.5,848C 335.802,838.998 304.302,852.832 283,889.5C 270.585,913.414 262.585,938.747 259,965.5C 254.539,998.342 252.539,1031.34 253,1064.5C 238.742,1087.6 229.409,1112.6 225,1139.5C 222.318,1161.09 220.652,1182.75 220,1204.5C 198.587,1656.85 176.92,2109.18 155,2561.5C 128.736,2642.96 102.07,2724.29 75,2805.5C 52.5341,2873.36 32.8674,2942.03 16,3011.5C 10.8365,3034.8 6.66986,3058.14 3.5,3081.5C 3.5,2055.5 3.5,1029.5 3.5,3.5C 408.167,3.5 812.833,3.5 1217.5,3.5C 1217.5,1017.5 1217.5,2031.5 1217.5,3045.5 Z M 1217.5,3132.5 C 1217.5,3411.83 1217.5,3691.17 1217.5,3970.5C 812.833,3970.5 408.167,3970.5 3.5,3970.5C 3.5,3696.5 3.5,3422.5 3.5,3148.5C 10.9215,3232.65 42.4215,3306.32 98,3369.5C 180.002,3455.05 279.502,3486.89 396.5,3465C 443.575,3454.04 486.909,3434.87 526.5,3407.5C 611.793,3442.1 697.127,3476.6 782.5,3511C 804.788,3514.48 826.454,3512.15 847.5,3504C 865.67,3496.92 883.003,3488.25 899.5,3478C 947.846,3445.83 995.846,3413.16 1043.5,3380C 1084.05,3351.12 1120.55,3317.62 1153,3279.5C 1187.96,3236.46 1209.46,3187.46 1217.5,3132.5 Z"/></g>
<g><path style="opacity:0.987" fill="#010101" d="M 1217.5,3045.5 C 1218.77,3074.5 1218.77,3103.5 1217.5,3132.5C 1209.46,3187.46 1187.96,3236.46 1153,3279.5C 1120.55,3317.62 1084.05,3351.12 1043.5,3380C 995.846,3413.16 947.846,3445.83 899.5,3478C 883.003,3488.25 865.67,3496.92 847.5,3504C 826.454,3512.15 804.788,3514.48 782.5,3511C 697.127,3476.6 611.793,3442.1 526.5,3407.5C 486.909,3434.87 443.575,3454.04 396.5,3465C 279.502,3486.89 180.002,3455.05 98,3369.5C 42.4215,3306.32 10.9215,3232.65 3.5,3148.5C 2.24737,3126.16 2.24737,3103.83 3.5,3081.5C 6.66986,3058.14 10.8365,3034.8 16,3011.5C 32.8674,2942.03 52.5341,2873.36 75,2805.5C 102.07,2724.29 128.736,2642.96 155,2561.5C 176.92,2109.18 198.587,1656.85 220,1204.5C 220.652,1182.75 222.318,1161.09 225,1139.5C 229.409,1112.6 238.742,1087.6 253,1064.5C 252.539,1031.34 254.539,998.342 259,965.5C 262.585,938.747 270.585,913.414 283,889.5C 304.302,852.832 335.802,838.998 377.5,848C 394.677,853.058 411.01,860.058 426.5,869C 450.263,884.422 472.596,901.755 493.5,921C 521.464,948.338 547.797,977.005 572.5,1007C 578.028,1005.5 583.694,1004.17 589.5,1003C 595.5,1002.33 601.5,1002.33 607.5,1003C 618.823,1004.77 629.823,1007.77 640.5,1012C 698.133,1037.42 746.967,1074.59 787,1123.5C 830.286,1178.37 864.619,1238.7 890,1304.5C 925.047,1396.68 951.38,1491.35 969,1588.5C 993.354,1723.65 1011.35,1859.65 1023,1996.5C 1036.64,2156.09 1049.3,2315.76 1061,2475.5C 1061.97,2517.01 1069.31,2557.34 1083,2596.5C 1118.39,2697.01 1152.39,2798.01 1185,2899.5C 1199.88,2947.41 1210.71,2996.08 1217.5,3045.5 Z"/></g>
<g><path style="opacity:1" fill="#fefefe" d="M 347.5,874.5 C 363.603,874.589 378.936,878.089 393.5,885C 419.607,899.051 443.607,916.051 465.5,936C 496.817,965.707 525.817,997.374 552.5,1031C 545.928,1049.6 543.428,1068.77 545,1088.5C 546.729,1111.39 550.063,1134.06 555,1156.5C 565.851,1199.57 576.851,1242.57 588,1285.5C 611.801,1399.71 627.134,1515.04 634,1631.5C 641.122,1751.2 631.789,1869.53 606,1986.5C 603.628,1996.99 600.794,2007.33 597.5,2017.5C 560.167,1911.52 536.333,1802.52 526,1690.5C 520.601,1605.86 515.601,1521.2 511,1436.5C 506.343,1369.23 497.343,1302.56 484,1236.5C 473.534,1188.97 459.201,1142.64 441,1097.5C 432.558,1076.6 421.558,1057.27 408,1039.5C 396.253,1025.07 381.753,1014.57 364.5,1008C 342.809,1001.47 322.143,1003.8 302.5,1015C 295.89,1018.89 289.723,1023.39 284,1028.5C 283.866,999.109 287.199,970.109 294,941.5C 298.833,919.66 309,900.826 324.5,885C 331.506,879.827 339.173,876.327 347.5,874.5 Z"/></g>
<g><path style="opacity:1" fill="#fefefe" d="M 593.5,1031.5 C 597.846,1031.33 602.179,1031.5 606.5,1032C 632.296,1039.56 656.296,1050.9 678.5,1066C 712.679,1088.17 742.512,1115.34 768,1147.5C 807.604,1199.01 839.27,1255.34 863,1316.5C 897.206,1406.45 922.873,1498.79 940,1593.5C 960.853,1708.8 976.853,1824.8 988,1941.5C 1005.03,2127.32 1019.86,2313.32 1032.5,2499.5C 751.167,2499.5 469.833,2499.5 188.5,2499.5C 208.894,2059.15 229.727,1618.81 251,1178.5C 251.272,1135.7 264.272,1097.37 290,1063.5C 325.505,1022.52 359.505,1023.52 392,1066.5C 407.574,1092.32 419.907,1119.65 429,1148.5C 448.334,1205.84 462.001,1264.5 470,1324.5C 474.51,1359.07 478.177,1393.74 481,1428.5C 485.908,1517.86 491.241,1607.19 497,1696.5C 504.64,1774.67 518.64,1851.67 539,1927.5C 556.687,1989.91 576.687,2051.58 599,2112.5C 645.454,1979.49 667.288,1842.49 664.5,1701.5C 663.959,1608.26 656.459,1515.6 642,1423.5C 635.305,1379.66 627.638,1335.99 619,1292.5C 607.63,1244.35 595.63,1196.35 583,1148.5C 577.495,1124.3 574.328,1099.8 573.5,1075C 572.14,1061.31 575.306,1048.81 583,1037.5C 586.351,1035.08 589.851,1033.08 593.5,1031.5 Z"/></g>
<g><path style="opacity:1" fill="#dadada" d="M 1035.5,2529.5 C 752.833,2529.5 470.167,2529.5 187.5,2529.5C 187.737,2530.79 187.404,2531.79 186.5,2532.5C 186.5,2531.17 186.5,2529.83 186.5,2528.5C 469.667,2528.17 752.667,2528.5 1035.5,2529.5 Z"/></g>
<g><path style="opacity:1" fill="#fefefe" d="M 1035.5,2529.5 C 1038.56,2547.95 1042.73,2566.28 1048,2584.5C 1084.46,2690.56 1120.13,2796.89 1155,2903.5C 1169.6,2949.56 1179.93,2996.56 1186,3044.5C 1196.98,3140.22 1168.98,3222.22 1102,3290.5C 1076.93,3315.58 1050.1,3338.42 1021.5,3359C 983.558,3384.61 945.891,3410.61 908.5,3437C 886.73,3451.74 863.73,3464.41 839.5,3475C 823.81,3481.74 807.476,3484.07 790.5,3482C 706.57,3448.36 622.736,3414.52 539,3380.5C 538.271,3321.5 537.771,3262.5 537.5,3203.5C 527.5,3203.5 517.5,3203.5 507.5,3203.5C 508.733,3263.5 509.233,3323.5 509,3383.5C 460.833,3416.45 407.666,3435.95 349.5,3442C 260.135,3446.67 184.635,3416.83 123,3352.5C 62.7868,3285.34 32.6201,3206.34 32.5,3115.5C 32.068,3095.68 33.568,3076.02 37,3056.5C 49.0013,2998.83 63.668,2941.83 81,2885.5C 115.066,2778.97 149.732,2672.64 185,2566.5C 185.34,2555.15 185.84,2543.82 186.5,2532.5C 187.404,2531.79 187.737,2530.79 187.5,2529.5C 470.167,2529.5 752.833,2529.5 1035.5,2529.5 Z"/></g>
</svg>
