<?xml version="1.0" encoding="UTF-8"?>
<svg version="1.1" xmlns="http://www.w3.org/2000/svg" width="1202" height="3976">
<path d="M0 0 C396.66 0 793.32 0 1202 0 C1202 1312.08 1202 2624.16 1202 3976 C805.34 3976 408.68 3976 0 3976 C0 2663.92 0 1351.84 0 0 Z M4 4 C4 364.36 4 724.72 4 1096 C4.33 1096 4.66 1096 5 1096 C5.05945801 1095.31413818 5.11891602 1094.62827637 5.18017578 1093.92163086 C10.74200665 1031.89646173 29.970512 971.33916408 69 922 C69.64195313 921.17757812 70.28390625 920.35515625 70.9453125 919.5078125 C86.03563726 900.38525521 102.43635207 881.82729781 121 866 C122.10137367 865.03642723 123.20151906 864.07144964 124.30078125 863.10546875 C159.13524309 832.55654721 197.66685844 806.38075095 237 782 C238.61210785 780.99499806 240.22408283 779.98978296 241.8359375 778.984375 C263.30577988 765.61875344 284.96292319 752.56470102 306.72583008 739.68310547 C307.99040893 738.93459024 309.25497613 738.18605532 310.51953125 737.4375 C311.13654907 737.07225723 311.75356689 736.70701447 312.38928223 736.33070374 C318.12763847 732.93063653 323.84605672 729.49769534 329.5637207 726.06298828 C354.12691353 711.30964392 378.95056999 697.0593041 404.19873047 683.51171875 C406.88159548 682.06389757 409.55403142 680.59887639 412.22265625 679.125 C439.98573131 663.79795998 468.41219369 649.73418164 496.80273438 635.61694336 C508.9709174 629.55995143 521.06297019 623.38970297 533.06970215 617.01907349 C595.21644054 584.20958074 657.54942976 555.69737764 728.1484375 577.453125 C729.76647281 577.96608336 731.38371402 578.48155601 733 579 C733.69512695 579.21849609 734.39025391 579.43699219 735.10644531 579.66210938 C778.25288054 593.38956062 820.20284283 616.3720413 859.36328125 638.8046875 C865.35299422 642.22467137 871.42286704 645.48869397 877.5 648.75 C885.77633297 653.20623475 893.92158428 657.79165701 901.921875 662.72460938 C904.35728277 664.21927223 906.80326992 665.6958206 909.25 667.171875 C940.6446113 686.135207 971.56303716 706.09271834 1001 728 C1001.65452148 728.48404297 1002.30904297 728.96808594 1002.98339844 729.46679688 C1013.07644632 736.93476911 1023.00347941 744.612078 1032.88964844 752.35107422 C1034.84156199 753.87620427 1036.79860528 755.3944147 1038.7578125 756.91015625 C1045.31040067 761.99476219 1051.69400292 767.23059464 1057.96191406 772.6628418 C1061.42109419 775.65972846 1064.92692831 778.57590378 1068.5 781.4375 C1074.17169902 786.03685416 1079.46348563 791.0064379 1084.78515625 796 C1087.19234594 798.2564364 1089.629108 800.4663907 1092.125 802.625 C1100.47187772 809.86248258 1108.48707882 817.39202304 1116.3125 825.1875 C1116.96992187 825.84032959 1117.62734375 826.49315918 1118.3046875 827.16577148 C1134.83975314 843.75303114 1149.12827167 862.84133974 1161 883 C1161.35416992 883.58942383 1161.70833984 884.17884766 1162.07324219 884.78613281 C1200.24890666 948.50209178 1201.35712085 1024.06127844 1183.9375 1094.44921875 C1183.29604144 1096.96726433 1182.65033875 1099.48423329 1182 1102 C1181.71125 1103.13260254 1181.4225 1104.26520508 1181.125 1105.43212891 C1175.47245935 1126.99190309 1166.28558089 1146.90051746 1157.05024719 1167.11129761 C1152.63134529 1176.78205117 1148.31491676 1186.49702447 1144.00985718 1196.21887207 C1141.92478218 1200.92510195 1139.83328051 1205.62847303 1137.7421875 1210.33203125 C1137.1374485 1211.69278275 1137.1374485 1211.69278275 1136.52049255 1213.08102417 C1133.95625429 1218.85069871 1131.38907026 1224.61905521 1128.8203125 1230.38671875 C1127.50491594 1233.34101575 1126.18982672 1236.29544935 1124.875 1239.25 C1124.55428528 1239.97063629 1124.23357056 1240.69127258 1123.90313721 1241.43374634 C1118.98442755 1252.49040832 1114.11538793 1263.56831424 1109.26177979 1274.65368652 C1108.69907379 1275.93886169 1108.69907379 1275.93886169 1108.125 1277.25 C1107.7500238 1278.10646118 1107.37504761 1278.96292236 1106.9887085 1279.84533691 C1101.03688809 1293.43243698 1094.98325544 1306.97100053 1088.87554932 1320.48864746 C1082.78482958 1333.97328222 1076.80724748 1347.50446441 1070.8800354 1361.06167603 C1065.60634315 1373.11987721 1060.25855982 1385.14189763 1054.83990479 1397.13565063 C1051.87705922 1403.69648383 1048.92498831 1410.26217591 1045.97540283 1416.82897949 C1045.35428293 1418.21144835 1044.73270963 1419.59371366 1044.11053467 1420.97570801 C1035.38560815 1440.36344459 1027.54845969 1460.05943054 1019.85595703 1479.8762207 C1019.48916619 1480.81526654 1019.12237535 1481.75431238 1018.74446964 1482.72181416 C1017.92728039 1484.83614332 1017.12447469 1486.95611304 1016.33916759 1489.08248997 C1014.20158839 1494.77108791 1011.95804891 1500.2216178 1009.06701505 1505.57179552 C991.98860776 1537.40565811 993.82070531 1571.12520529 994.21337044 1606.17162383 C994.30982282 1615.09667132 994.30971226 1624.02108418 994.30564503 1632.94655871 C994.30060511 1648.93834582 994.36465629 1664.92903498 994.47558594 1680.92041016 C994.5818378 1696.26383098 994.66119558 1711.60693305 994.69921875 1726.95068359 C994.70156614 1727.89268439 994.70391352 1728.83468518 994.70633204 1729.80523145 C994.72933209 1739.2428332 994.74812371 1748.68044307 994.7667178 1758.11805433 C994.77410419 1761.83890171 994.78171489 1765.55974858 994.78948183 1769.28059518 C994.79332593 1771.12285549 994.79710459 1772.96511593 994.80081718 1774.8073765 C994.8262439 1787.13563205 994.87885126 1799.46345705 994.95368577 1811.79150617 C995.2693222 1864.85893614 994.21976988 1917.79473935 991.30835724 1970.79429245 C991.18191771 1973.10187972 991.05782034 1975.40958534 990.934021 1977.71731567 C985.22359541 2083.70251218 974.07436086 2189.50452666 906.78979492 2488.5244751 C905.93729152 2491.19655281 905.09052128 2493.87041048 904.24414062 2496.54443359 C879.17772075 2575.59671044 848.23930355 2653.53242269 808.1484375 2726.26953125 C805.96363638 2730.23385495 803.80469713 2734.21087189 801.6640625 2738.19921875 C796.05857131 2748.64062816 790.38066629 2758.9823971 784.171875 2769.07714844 C782.87807531 2771.20005809 781.60938047 2773.33674299 780.34375 2775.4765625 C764.01869966 2803.03608612 746.53392701 2830.02528899 727.57226562 2855.84667969 C725.96598994 2858.046579 724.37892777 2860.25918963 722.796875 2862.4765625 C715.65167389 2872.48092421 708.25267645 2882.2509667 700.64599609 2891.90869141 C699.08869722 2893.88730638 697.53735583 2895.87041168 695.98828125 2897.85546875 C688.03401605 2908.03845866 679.87986878 2918.02812268 671.43725586 2927.81079102 C668.43097567 2931.30166278 665.50206669 2934.83849279 662.625 2938.4375 C657.77811871 2944.41649955 652.49892331 2949.96565507 647.22265625 2955.5625 C644.31999474 2958.6449724 641.51449426 2961.79666375 638.74609375 2965 C631.96804619 2972.76366969 624.8906757 2980.18096227 617.55834961 2987.42016602 C614.72394483 2990.23083419 612.00511553 2993.06385253 609.4375 2996.125 C595.60677942 3012.25520468 577.22578322 3023.27465733 559.44189453 3034.45947266 C543.6734455 3044.40737442 529.90525304 3055.91149845 516.84765625 3069.18359375 C515.02160308 3070.9787623 513.13385483 3072.64925133 511.1875 3074.3125 C507.79802072 3077.22252445 504.63577639 3080.32186998 501.5 3083.5 C497.90807019 3087.13511813 494.2468946 3090.60853829 490.359375 3093.92578125 C487.00318739 3096.87633691 483.75802378 3099.94185254 480.5 3103 C476.01733881 3107.20300793 471.52614413 3111.3750347 466.86328125 3115.37890625 C464.66136091 3117.29462311 462.52372876 3119.27483576 460.375 3121.25 C454.72432246 3126.34685922 448.76888863 3131.00235876 442.74511719 3135.64453125 C441.11153927 3136.91336513 439.496427 3138.20587308 437.8828125 3139.5 C413.10027427 3159.17468684 383.27210912 3176.30758295 350.54296875 3172.609375 C336.04850512 3170.0252192 323.71411283 3162.94643496 313 3153 C311.75863281 3151.87851562 311.75863281 3151.87851562 310.4921875 3150.734375 C303.28263663 3143.90903217 297.60970575 3136.14119981 292 3128 C291.26136719 3126.93394531 290.52273438 3125.86789063 289.76171875 3124.76953125 C277.91161431 3106.98354269 268.69701268 3087.67132025 259.875 3068.2578125 C258.06558004 3064.29804991 256.24307839 3060.34723135 254.34375 3056.4296875 C253.97443359 3055.66640137 253.60511719 3054.90311523 253.22460938 3054.11669922 C251.38150981 3050.93095894 248.92210798 3048.45225855 246.421875 3045.7734375 C235.86766593 3033.68716582 227.25142207 3019.71609818 219 3006 C218.49001465 3005.154375 217.9800293 3004.30875 217.45458984 3003.4375 C202.811683 2978.92168961 191.0037849 2952.71992151 181 2926 C180.59475098 2924.91895996 180.18950195 2923.83791992 179.77197266 2922.72412109 C151.56726781 2846.86281164 135.9364063 2766.99683031 125 2687 C124.78310516 2685.41916626 124.78310516 2685.41916626 124.56182861 2683.80639648 C113.71662393 2604.45472984 108.38256659 2524.55730469 105.25 2444.5625 C105.20506094 2443.42701029 105.20506094 2443.42701029 105.15921402 2442.26858139 C104.70823694 2430.84755435 104.32473761 2419.42531093 104 2408 C103.97589931 2407.1567857 103.95179863 2406.3135714 103.92696762 2405.44480515 C102.82007137 2366.1266685 102.79702038 2326.80390375 102.81165123 2287.47369909 C102.81250769 2284.91451992 102.81295481 2282.35534094 102.81330872 2279.79616165 C102.8229984 2222.84162613 103.26534212 2165.93171231 105 2109 C105.03337967 2107.89768791 105.06675934 2106.79537582 105.10115051 2105.65966034 C106.56350728 2057.40178042 108.23138485 2009.15096234 109.97488403 1960.90250397 C110.11300735 1957.07399817 110.25047287 1953.24546934 110.38769531 1949.41693115 C110.43256451 1948.16554352 110.4774337 1946.91415588 110.52366257 1945.62484741 C110.61337975 1943.12263101 110.70306351 1940.6204134 110.79271317 1938.11819458 C111.04098706 1931.2057248 111.29390933 1924.29345929 111.55451584 1917.38144302 C111.60017307 1916.15229046 111.64583031 1914.92313789 111.69287109 1913.65673828 C111.72848562 1912.6998224 111.76410014 1911.74290651 111.80079389 1910.75699317 C112.12058092 1902.06482105 112.39252822 1893.37174179 112.65349066 1884.67763782 C112.83043433 1878.93073867 113.02707798 1873.18631795 113.28247261 1867.44233131 C115.08952724 1826.60320353 112.09884911 1787.29079283 107.32654823 1746.76303371 C106.30418161 1738.06700024 105.32784008 1729.36593844 104.35269094 1720.66450536 C102.60636379 1705.0919528 100.8265963 1689.52342747 99.02416992 1673.95727539 C97.2942808 1659.01690389 95.58048644 1644.07483232 93.88842773 1629.13012695 C93.73182452 1627.74704177 93.73182452 1627.74704177 93.5720576 1626.33601547 C93.04724287 1621.70007408 92.52274669 1617.06409672 91.99840629 1612.42810166 C89.41305981 1589.57178052 86.81969888 1566.7163857 84.19419861 1543.86463928 C84.1017611 1543.05977407 84.00932358 1542.25490886 83.91408493 1541.42565379 C83.01484897 1533.59693498 82.11396358 1525.76841525 81.20570801 1517.94073721 C80.77653083 1514.24160178 80.34828488 1510.54235909 79.92062378 1506.8430481 C79.83801079 1506.12859312 79.7553978 1505.41413814 79.67028139 1504.67803302 C78.49700482 1494.51336373 77.38873658 1484.34352213 76.31887817 1474.16744995 C75.92998763 1470.52692063 75.53993518 1466.88651767 75.14952672 1463.24615085 C74.80398111 1459.9708798 74.47691615 1456.69414289 74.15084743 1453.41688633 C72.57967191 1438.36681801 69.02655215 1425.97308107 62.48974609 1412.25927734 C59.70376981 1406.16409817 57.46095441 1399.86209844 55.1875 1393.5625 C54.94265869 1392.88920654 54.69781738 1392.21591309 54.44555664 1391.5222168 C28.37918453 1319.6504678 9.57775127 1243.49808443 5 1167 C4.67 1167 4.34 1167 4 1167 C4 2092.65 4 3018.3 4 3972 C398.02 3972 792.04 3972 1198 3972 C1198 2662.56 1198 1353.12 1198 4 C803.98 4 409.96 4 4 4 Z " fill="#FDFDFD" transform="translate(0,0)"/>
<path d="M0 0 C396.66 0 793.32 0 1202 0 C1202 1312.08 1202 2624.16 1202 3976 C805.34 3976 408.68 3976 0 3976 C0 2663.92 0 1351.84 0 0 Z M4 4 C4 364.36 4 724.72 4 1096 C4.33 1096 4.66 1096 5 1096 C5.05945801 1095.31413818 5.11891602 1094.62827637 5.18017578 1093.92163086 C10.74200665 1031.89646173 29.970512 971.33916408 69 922 C69.64195313 921.17757812 70.28390625 920.35515625 70.9453125 919.5078125 C86.03563726 900.38525521 102.43635207 881.82729781 121 866 C122.10137367 865.03642723 123.20151906 864.07144964 124.30078125 863.10546875 C159.13524309 832.55654721 197.66685844 806.38075095 237 782 C238.61210785 780.99499806 240.22408283 779.98978296 241.8359375 778.984375 C263.30577988 765.61875344 284.96292319 752.56470102 306.72583008 739.68310547 C307.99040893 738.93459024 309.25497613 738.18605532 310.51953125 737.4375 C311.13654907 737.07225723 311.75356689 736.70701447 312.38928223 736.33070374 C318.12763847 732.93063653 323.84605672 729.49769534 329.5637207 726.06298828 C354.12691353 711.30964392 378.95056999 697.0593041 404.19873047 683.51171875 C406.88159548 682.06389757 409.55403142 680.59887639 412.22265625 679.125 C439.98573131 663.79795998 468.41219369 649.73418164 496.80273438 635.61694336 C508.9709174 629.55995143 521.06297019 623.38970297 533.06970215 617.01907349 C595.21644054 584.20958074 657.54942976 555.69737764 728.1484375 577.453125 C729.76647281 577.96608336 731.38371402 578.48155601 733 579 C733.69512695 579.21849609 734.39025391 579.43699219 735.10644531 579.66210938 C778.25288054 593.38956062 820.20284283 616.3720413 859.36328125 638.8046875 C865.35299422 642.22467137 871.42286704 645.48869397 877.5 648.75 C885.77633297 653.20623475 893.92158428 657.79165701 901.921875 662.72460938 C904.35728277 664.21927223 906.80326992 665.6958206 909.25 667.171875 C940.6446113 686.135207 971.56303716 706.09271834 1001 728 C1001.65452148 728.48404297 1002.30904297 728.96808594 1002.98339844 729.46679688 C1013.07644632 736.93476911 1023.00347941 744.612078 1032.88964844 752.35107422 C1034.84156199 753.87620427 1036.79860528 755.3944147 1038.7578125 756.91015625 C1045.31040067 761.99476219 1051.69400292 767.23059464 1057.96191406 772.6628418 C1061.42109419 775.65972846 1064.92692831 778.57590378 1068.5 781.4375 C1074.17169902 786.03685416 1079.46348563 791.0064379 1084.78515625 796 C1087.19234594 798.2564364 1089.629108 800.4663907 1092.125 802.625 C1100.47187772 809.86248258 1108.48707882 817.39202304 1116.3125 825.1875 C1116.96992187 825.84032959 1117.62734375 826.49315918 1118.3046875 827.16577148 C1134.83975314 843.75303114 1149.12827167 862.84133974 1161 883 C1161.35416992 883.58942383 1161.70833984 884.17884766 1162.07324219 884.78613281 C1200.24890666 948.50209178 1201.35712085 1024.06127844 1183.9375 1094.44921875 C1183.29604144 1096.96726433 1182.65033875 1099.48423329 1182 1102 C1181.71125 1103.13260254 1181.4225 1104.26520508 1181.125 1105.43212891 C1175.47245935 1126.99190309 1166.28558089 1146.90051746 1157.05024719 1167.11129761 C1152.63134529 1176.78205117 1148.31491676 1186.49702447 1144.00985718 1196.21887207 C1141.92478218 1200.92510195 1139.83328051 1205.62847303 1137.7421875 1210.33203125 C1137.1374485 1211.69278275 1137.1374485 1211.69278275 1136.52049255 1213.08102417 C1133.95625429 1218.85069871 1131.38907026 1224.61905521 1128.8203125 1230.38671875 C1127.50491594 1233.34101575 1126.18982672 1236.29544935 1124.875 1239.25 C1124.55428528 1239.97063629 1124.23357056 1240.69127258 1123.90313721 1241.43374634 C1118.98442755 1252.49040832 1114.11538793 1263.56831424 1109.26177979 1274.65368652 C1108.69907379 1275.93886169 1108.69907379 1275.93886169 1108.125 1277.25 C1107.7500238 1278.10646118 1107.37504761 1278.96292236 1106.9887085 1279.84533691 C1101.03688809 1293.43243698 1094.98325544 1306.97100053 1088.87554932 1320.48864746 C1082.78482958 1333.97328222 1076.80724748 1347.50446441 1070.8800354 1361.06167603 C1065.60634315 1373.11987721 1060.25855982 1385.14189763 1054.83990479 1397.13565063 C1051.87705922 1403.69648383 1048.92498831 1410.26217591 1045.97540283 1416.82897949 C1045.35428293 1418.21144835 1044.73270963 1419.59371366 1044.11053467 1420.97570801 C1035.38560815 1440.36344459 1027.54845969 1460.05943054 1019.85595703 1479.8762207 C1019.48916619 1480.81526654 1019.12237535 1481.75431238 1018.74446964 1482.72181416 C1017.92728039 1484.83614332 1017.12447469 1486.95611304 1016.33916759 1489.08248997 C1014.20158839 1494.77108791 1011.95804891 1500.2216178 1009.06701505 1505.57179552 C991.98860776 1537.40565811 993.82070531 1571.12520529 994.21337044 1606.17162383 C994.30982282 1615.09667132 994.30971226 1624.02108418 994.30564503 1632.94655871 C994.30060511 1648.93834582 994.36465629 1664.92903498 994.47558594 1680.92041016 C994.5818378 1696.26383098 994.66119558 1711.60693305 994.69921875 1726.95068359 C994.70156614 1727.89268439 994.70391352 1728.83468518 994.70633204 1729.80523145 C994.72933209 1739.2428332 994.74812371 1748.68044307 994.7667178 1758.11805433 C994.77410419 1761.83890171 994.78171489 1765.55974858 994.78948183 1769.28059518 C994.79332593 1771.12285549 994.79710459 1772.96511593 994.80081718 1774.8073765 C994.8262439 1787.13563205 994.87885126 1799.46345705 994.95368577 1811.79150617 C995.2693222 1864.85893614 994.21976988 1917.79473935 991.30835724 1970.79429245 C991.18191771 1973.10187972 991.05782034 1975.40958534 990.934021 1977.71731567 C985.22359541 2083.70251218 974.07436086 2189.50452666 906.78979492 2488.5244751 C905.93729152 2491.19655281 905.09052128 2493.87041048 904.24414062 2496.54443359 C879.17772075 2575.59671044 848.23930355 2653.53242269 808.1484375 2726.26953125 C805.96363638 2730.23385495 803.80469713 2734.21087189 801.6640625 2738.19921875 C796.05857131 2748.64062816 790.38066629 2758.9823971 784.171875 2769.07714844 C782.87807531 2771.20005809 781.60938047 2773.33674299 780.34375 2775.4765625 C764.01869966 2803.03608612 746.53392701 2830.02528899 727.57226562 2855.84667969 C725.96598994 2858.046579 724.37892777 2860.25918963 722.796875 2862.4765625 C715.65167389 2872.48092421 708.25267645 2882.2509667 700.64599609 2891.90869141 C699.08869722 2893.88730638 697.53735583 2895.87041168 695.98828125 2897.85546875 C688.03401605 2908.03845866 679.87986878 2918.02812268 671.43725586 2927.81079102 C668.43097567 2931.30166278 665.50206669 2934.83849279 662.625 2938.4375 C657.77811871 2944.41649955 652.49892331 2949.96565507 647.22265625 2955.5625 C644.31999474 2958.6449724 641.51449426 2961.79666375 638.74609375 2965 C631.96804619 2972.76366969 624.8906757 2980.18096227 617.55834961 2987.42016602 C614.72394483 2990.23083419 612.00511553 2993.06385253 609.4375 2996.125 C595.60677942 3012.25520468 577.22578322 3023.27465733 559.44189453 3034.45947266 C543.6734455 3044.40737442 529.90525304 3055.91149845 516.84765625 3069.18359375 C515.02160308 3070.9787623 513.13385483 3072.64925133 511.1875 3074.3125 C507.79802072 3077.22252445 504.63577639 3080.32186998 501.5 3083.5 C497.90807019 3087.13511813 494.2468946 3090.60853829 490.359375 3093.92578125 C487.00318739 3096.87633691 483.75802378 3099.94185254 480.5 3103 C476.01733881 3107.20300793 471.52614413 3111.3750347 466.86328125 3115.37890625 C464.66136091 3117.29462311 462.52372876 3119.27483576 460.375 3121.25 C454.72432246 3126.34685922 448.76888863 3131.00235876 442.74511719 3135.64453125 C441.11153927 3136.91336513 439.496427 3138.20587308 437.8828125 3139.5 C413.10027427 3159.17468684 383.27210912 3176.30758295 350.54296875 3172.609375 C336.04850512 3170.0252192 323.71411283 3162.94643496 313 3153 C311.75863281 3151.87851562 311.75863281 3151.87851562 310.4921875 3150.734375 C303.28263663 3143.90903217 297.60970575 3136.14119981 292 3128 C291.26136719 3126.93394531 290.52273438 3125.86789063 289.76171875 3124.76953125 C277.91161431 3106.98354269 268.69701268 3087.67132025 259.875 3068.2578125 C258.06558004 3064.29804991 256.24307839 3060.34723135 254.34375 3056.4296875 C253.97443359 3055.66640137 253.60511719 3054.90311523 253.22460938 3054.11669922 C251.38150981 3050.93095894 248.92210798 3048.45225855 246.421875 3045.7734375 C235.86766593 3033.68716582 227.25142207 3019.71609818 219 3006 C218.49001465 3005.154375 217.9800293 3004.30875 217.45458984 3003.4375 C202.811683 2978.92168961 191.0037849 2952.71992151 181 2926 C180.59475098 2924.91895996 180.18950195 2923.83791992 179.77197266 2922.72412109 C151.56726781 2846.86281164 135.9364063 2766.99683031 125 2687 C124.78310516 2685.41916626 124.78310516 2685.41916626 124.56182861 2683.80639648 C113.71662393 2604.45472984 108.38256659 2524.55730469 105.25 2444.5625 C105.20506094 2443.42701029 105.20506094 2443.42701029 105.15921402 2442.26858139 C104.70823694 2430.84755435 104.32473761 2419.42531093 104 2408 C103.97589931 2407.1567857 103.95179863 2406.3135714 103.92696762 2405.44480515 C102.82007137 2366.1266685 102.79702038 2326.80390375 102.81165123 2287.47369909 C102.81250769 2284.91451992 102.81295481 2282.35534094 102.81330872 2279.79616165 C102.8229984 2222.84162613 103.26534212 2165.93171231 105 2109 C105.03337967 2107.89768791 105.06675934 2106.79537582 105.10115051 2105.65966034 C106.56350728 2057.40178042 108.23138485 2009.15096234 109.97488403 1960.90250397 C110.11300735 1957.07399817 110.25047287 1953.24546934 110.38769531 1949.41693115 C110.43256451 1948.16554352 110.4774337 1946.91415588 110.52366257 1945.62484741 C110.61337975 1943.12263101 110.70306351 1940.6204134 110.79271317 1938.11819458 C111.04098706 1931.2057248 111.29390933 1924.29345929 111.55451584 1917.38144302 C111.60017307 1916.15229046 111.64583031 1914.92313789 111.69287109 1913.65673828 C111.72848562 1912.6998224 111.76410014 1911.74290651 111.80079389 1910.75699317 C112.12058092 1902.06482105 112.39252822 1893.37174179 112.65349066 1884.67763782 C112.83043433 1878.93073867 113.02707798 1873.18631795 113.28247261 1867.44233131 C115.08952724 1826.60320353 112.09884911 1787.29079283 107.32654823 1746.76303371 C106.30418161 1738.06700024 105.32784008 1729.36593844 104.35269094 1720.66450536 C102.60636379 1705.0919528 100.8265963 1689.52342747 99.02416992 1673.95727539 C97.2942808 1659.01690389 95.58048644 1644.07483232 93.88842773 1629.13012695 C93.73182452 1627.74704177 93.73182452 1627.74704177 93.5720576 1626.33601547 C93.04724287 1621.70007408 92.52274669 1617.06409672 91.99840629 1612.42810166 C89.41305981 1589.57178052 86.81969888 1566.7163857 84.19419861 1543.86463928 C84.1017611 1543.05977407 84.00932358 1542.25490886 83.91408493 1541.42565379 C83.01484897 1533.59693498 82.11396358 1525.76841525 81.20570801 1517.94073721 C80.77653083 1514.24160178 80.34828488 1510.54235909 79.92062378 1506.8430481 C79.83801079 1506.12859312 79.7553978 1505.41413814 79.67028139 1504.67803302 C78.49700482 1494.51336373 77.38873658 1484.34352213 76.31887817 1474.16744995 C75.92998763 1470.52692063 75.53993518 1466.88651767 75.14952672 1463.24615085 C74.80398111 1459.9708798 74.47691615 1456.69414289 74.15084743 1453.41688633 C72.57967191 1438.36681801 69.02655215 1425.97308107 62.48974609 1412.25927734 C59.70376981 1406.16409817 57.46095441 1399.86209844 55.1875 1393.5625 C54.94265869 1392.88920654 54.69781738 1392.21591309 54.44555664 1391.5222168 C28.37918453 1319.6504678 9.57775127 1243.49808443 5 1167 C4.67 1167 4.34 1167 4 1167 C4 2092.65 4 3018.3 4 3972 C398.02 3972 792.04 3972 1198 3972 C1198 2662.56 1198 1353.12 1198 4 C803.98 4 409.96 4 4 4 Z M103 1449 C105.90525649 1480.57829245 105.90525649 1480.57829245 109.5 1512.0625 C109.7128486 1513.75521324 109.92506829 1515.44800567 110.13671875 1517.14086914 C110.45561534 1519.69018887 110.77498231 1522.23943873 111.09692383 1524.78837585 C111.76643801 1530.09313304 112.40971249 1535.40035601 113.03125 1540.7109375 C114.83360047 1556.06603594 116.84857179 1571.37082551 119.16210938 1586.65795898 C121.96307631 1605.19356567 124.38856103 1623.77894391 126.75 1642.375 C126.87428375 1643.3525827 126.9985675 1644.33016541 127.12661743 1645.33737183 C127.7995211 1650.63180092 128.47092275 1655.92641821 129.14111328 1661.22119141 C129.72861241 1665.86174975 130.31835306 1670.50201621 130.90966797 1675.14208984 C138.01595621 1730.93317199 138.01595621 1730.93317199 139.66796875 1750.26171875 C139.92028123 1753.10246039 140.20307607 1755.93392313 140.50390625 1758.76953125 C142.3636703 1777.22782223 142.39474385 1795.66863337 142.37735748 1814.2003479 C142.37496544 1817.04104068 142.37607929 1819.88171885 142.37738037 1822.72241211 C142.37293349 1868.4498713 140.56843298 1914.11100017 138.7469635 1959.79534912 C137.93438329 1980.23513457 137.28519347 2000.67780014 136.70196533 2021.12524414 C136.63263086 2023.55375103 136.56263213 2025.98223906 136.49189758 2028.41070557 C136.4312255 2030.50126343 136.37231082 2032.59187396 136.31608582 2034.68255615 C136.16175298 2040.03173277 135.93541716 2045.37314559 135.65374947 2050.71687794 C134.98511553 2063.42250122 134.58477078 2076.12933969 134.24609375 2088.84765625 C134.21378851 2090.05513519 134.18148327 2091.26261414 134.14819908 2092.50668335 C133.89631438 2102.0249406 133.66203098 2111.54356242 133.4375 2121.0625 C133.42060592 2121.7769898 133.40371183 2122.4914796 133.38630581 2123.2276206 C132.06498869 2179.32311459 131.66436175 2235.41343581 131.63222533 2291.52350551 C131.62843774 2297.80860259 131.62036428 2304.09367149 131.6080299 2310.37875754 C131.52466702 2352.96440511 131.71574288 2395.50134027 133.3984375 2438.05859375 C133.44562573 2439.25218722 133.44562573 2439.25218722 133.49376726 2440.46989369 C135.23635904 2484.14973699 137.74210948 2527.80094784 141.25 2571.375 C141.35538086 2572.68629883 141.46076172 2573.99759766 141.56933594 2575.34863281 C146.68687912 2641.4045231 146.68687912 2641.4045231 156.43701172 2706.88378906 C157.17795718 2710.98501536 157.82887082 2715.09860569 158.48046875 2719.21484375 C163.31236476 2749.65166498 168.7833888 2779.83613545 175.6875 2809.875 C175.87391052 2810.68811646 176.06032104 2811.50123291 176.25238037 2812.33898926 C178.30423174 2821.24948459 180.50884613 2830.07679904 183.08105469 2838.85449219 C183.90459294 2841.673426 184.68310001 2844.49891763 185.44140625 2847.3359375 C194.0599363 2879.0896352 204.43304526 2910.59183467 217.93652344 2940.62011719 C219.02364981 2943.05292433 220.0803771 2945.49731892 221.1328125 2947.9453125 C232.68972126 2974.58381774 247.3678188 3000.64724174 266 3023 C266.33 3023 266.66 3023 267 3023 C267.1580783 3015.85057068 266.53439805 3008.98360607 265.67578125 3001.890625 C263.97881381 2987.2427726 262.64375431 2972.57111053 261.37227249 2957.88141251 C261.11785006 2954.94656468 260.86131765 2952.01190237 260.60492992 2949.07722569 C259.79523104 2939.80623612 258.9941606 2930.53451157 258.19514465 2921.26259613 C257.94296147 2918.33866922 257.68995064 2915.41481421 257.43694687 2912.49095821 C254.88641782 2883.00753448 252.41963799 2853.51830334 250.1015625 2824.015625 C250.02160727 2822.99803793 249.94165203 2821.98045086 249.85927391 2820.93202782 C249.06640592 2810.83372456 248.27747269 2800.7351232 247.49600601 2790.63593102 C247.20609928 2786.89193391 246.9148951 2783.14803825 246.62356186 2779.40415192 C246.42339734 2776.82388471 246.22534181 2774.24346145 246.02737427 2771.6630249 C245.90531918 2770.0924803 245.78316315 2768.52194355 245.66088867 2766.95141602 C245.60844026 2766.25933454 245.55599184 2765.56725306 245.50195408 2764.85419941 C245.1375122 2760.2122872 244.59250563 2755.61670345 244 2751 C243.84703767 2749.06407548 243.71471326 2747.12638289 243.60546875 2745.1875 C243.50576782 2743.49089233 243.50576782 2743.49089233 243.40405273 2741.76000977 C243.33259033 2740.51920654 243.26112793 2739.27840332 243.1875 2738 C242.300814 2723.11395488 241.26738831 2708.23867294 240.2081604 2693.36401367 C240.02840736 2690.83932356 239.8493452 2688.31458416 239.67098999 2685.78979492 C239.41674038 2682.19435545 239.15994905 2678.59910668 238.90234375 2675.00390625 C238.82634949 2673.92685928 238.75035522 2672.84981232 238.67205811 2671.74012756 C238.28890982 2666.44059971 237.82314674 2661.16764357 237.20875549 2655.88999939 C236.95752761 2653.61546981 236.81317017 2651.34867351 236.71875 2649.0625 C236.68136719 2648.22976563 236.64398438 2647.39703125 236.60546875 2646.5390625 C236.53515625 2644.84635417 236.46484375 2643.15364583 236.39453125 2641.4609375 C236.22078167 2637.59051576 236.0015405 2633.76006948 235.52734375 2629.9140625 C234.77334599 2623.53922743 234.5182881 2617.1253482 234.18487549 2610.71777344 C233.97253119 2606.65262456 233.74975271 2602.58804624 233.52734375 2598.5234375 C233.48250854 2597.70228455 233.43767334 2596.88113159 233.39147949 2596.03509521 C232.51449712 2580.06946749 231.41493453 2564.11729093 230.33448792 2548.16439819 C228.10194517 2515.18771025 225.9965602 2482.20926027 224.17712402 2449.20709229 C224.00103251 2446.01869518 223.82344149 2442.83038463 223.64550781 2439.64208984 C220.54615555 2383.99020362 217.70467128 2328.30658471 215.59545898 2272.60766602 C215.54399216 2271.26825958 215.54399216 2271.26825958 215.4914856 2269.90179443 C215.43118173 2268.32288461 215.37244351 2266.7439132 215.31613159 2265.16485596 C215.13371201 2260.37146589 214.84197192 2255.59203731 214.52026367 2250.8059082 C213.84620195 2240.46058549 213.57708429 2230.10391562 213.28125 2219.7421875 C213.21799482 2217.58838376 213.15455463 2215.43458546 213.09094238 2213.28079224 C212.95821374 2208.76748245 212.82728899 2204.25412521 212.69775391 2199.74072266 C212.53599967 2194.10739908 212.37045453 2188.47419535 212.20367241 2182.84101868 C210.95033109 2140.44995649 209.81590102 2098.07875594 209.86962891 2055.66650391 C209.87534271 2051.14147869 209.87190487 2046.61651211 209.86619759 2042.09148884 C209.83079982 2009.07200708 209.94800918 1975.97047794 212.19238281 1943.0144043 C212.38015895 1940.23617106 212.54999353 1937.45718217 212.71875 1934.67773438 C213.33845115 1924.92507952 214.24017169 1915.23764074 215.4765625 1905.54296875 C215.59647552 1904.59077957 215.71638855 1903.63859039 215.8399353 1902.657547 C216.36881766 1898.71278032 216.94514388 1894.90629986 218.09521484 1891.09106445 C219.18728173 1887.89697358 219.18728173 1887.89697358 219 1884 C220.0058313 1884.26478149 220.0058313 1884.26478149 221.03198242 1884.53491211 C224.0834268 1885.33728499 227.13545527 1886.13741389 230.1875 1886.9375 C231.24259766 1887.21529297 232.29769531 1887.49308594 233.38476562 1887.77929688 C234.40634766 1888.04677734 235.42792969 1888.31425781 236.48046875 1888.58984375 C237.41785889 1888.83597412 238.35524902 1889.08210449 239.32104492 1889.33569336 C241.87008364 1889.96778434 244.4208113 1890.5070702 247 1891 C246.81824219 1891.804375 246.63648438 1892.60875 246.44921875 1893.4375 C244.69812996 1901.62720758 243.41320888 1909.81412819 242.375 1918.125 C242.19070435 1919.58873047 242.19070435 1919.58873047 242.00268555 1921.08203125 C240.57998272 1932.83232119 239.84211978 1944.59710013 239.44799805 1956.42358398 C239.40595843 1957.67513747 239.36391882 1958.92669096 239.32060528 1960.21617031 C238.90551407 1973.53983748 238.83611908 1986.85927332 238.83295774 2000.18851376 C238.83168216 2002.98908522 238.82716912 2005.78964882 238.82286549 2008.59021699 C238.8093555 2017.63659658 238.80928852 2026.68295305 238.81202459 2035.72934008 C238.81250125 2038.06864355 238.81234882 2040.40794612 238.81196976 2042.7472496 C238.80547693 2083.77754507 238.98445225 2124.7911626 239.9375 2165.8125 C239.95931461 2166.76419697 239.98112923 2167.71589394 240.00360489 2168.69643021 C240.14687656 2174.9085857 240.30108469 2181.12038343 240.46484375 2187.33203125 C240.48434208 2188.09267632 240.50384041 2188.85332138 240.5239296 2189.6370163 C240.75104093 2198.3135821 241.16108545 2206.95442523 241.77381897 2215.61305237 C242.07807605 2220.16914967 242.23634625 2224.72116081 242.359375 2229.28515625 C242.420555 2231.30600497 242.48227571 2233.32683737 242.54443359 2235.34765625 C242.57720398 2236.42934082 242.60997437 2237.51102539 242.64373779 2238.62548828 C243.60122467 2269.59504653 244.97460327 2300.54785917 246.375 2331.5 C246.45641676 2333.29985666 246.45641676 2333.29985666 246.5394783 2335.13607407 C248.17399746 2371.18197257 250.0732846 2407.19621087 252.3903656 2443.20431519 C252.93592262 2451.76194392 253.39998256 2460.32123445 253.80224609 2468.88671875 C253.888889 2470.71615097 253.97565884 2472.54557718 254.0625 2474.375 C254.09221327 2475.01170498 254.12192654 2475.64840996 254.15254021 2476.30440903 C254.68833015 2487.71044677 255.37622693 2499.099541 256.17396927 2510.49012756 C256.50956348 2515.28562121 256.8387417 2520.08155733 257.16870117 2524.87744141 C257.23732864 2525.87313015 257.30595612 2526.86881889 257.37666321 2527.89468002 C258.5374914 2544.76945681 259.63357613 2561.64859663 260.73486328 2578.52734375 C261.06388245 2583.56871985 261.39492749 2588.60996092 261.72639656 2593.65117645 C261.98826625 2597.6390509 262.24873947 2601.62701571 262.50884628 2605.61500549 C262.63032239 2607.47411857 262.75227956 2609.33320029 262.87479019 2611.19224548 C263.55388169 2621.50557831 264.17974064 2631.81659749 264.62303352 2642.14318085 C264.83742104 2646.82605671 265.22386987 2651.4544787 265.78120708 2656.10940075 C266.02968446 2658.25650476 266.16819954 2660.39098726 266.24609375 2662.55078125 C266.27896484 2663.33388672 266.31183594 2664.11699219 266.34570312 2664.92382812 C266.40524649 2666.4732224 266.46266699 2668.02270027 266.51757812 2669.57226562 C266.76474423 2675.3410293 267.2981255 2681.05341644 267.90234375 2686.79296875 C269.17899555 2699.07366706 269.98725737 2711.38343734 270.82952881 2723.70010376 C276.73711312 2809.89892602 283.93718462 2896.04350798 292.06127167 2982.06158066 C292.2451582 2984.01116673 292.42792265 2985.96085855 292.61065674 2987.91055298 C295.21553694 3018.23298459 295.21553694 3018.23298459 300.375 3048.1875 C300.69633911 3049.6576355 300.69633911 3049.6576355 301.02416992 3051.1574707 C301.46275001 3053.14913463 301.90652793 3055.13966238 302.35595703 3057.12890625 C302.97628411 3059.89427637 303.56659077 3062.66463319 304.15234375 3065.4375 C309.50705427 3090.0951334 319.37912301 3121.7443092 341 3137 C350.903033 3142.33035736 359.62533663 3144.9254797 370.78515625 3142.01171875 C399.28745714 3132.56532293 423.00805475 3108.14169702 441 3085 C441.98464901 3083.8003948 442.97323727 3082.60401674 443.96484375 3081.41015625 C476.36096958 3042.33905827 502.47015645 2997.73964136 526.33007812 2953.11328125 C528.05779512 2949.89225097 529.80098997 2946.67996524 531.546875 2943.46875 C545.7214396 2917.32438557 558.970788 2890.74394807 571.31494141 2863.68652344 C572.79775253 2860.43764919 574.29307389 2857.19466469 575.79101562 2853.95274353 C592.07095299 2818.71324066 607.37018371 2783.08664387 622.10601807 2747.17602539 C622.91926121 2745.19652484 623.73491373 2743.21804933 624.55224609 2741.24023438 C638.44958116 2707.60683767 651.43297471 2673.60350281 664.0793457 2639.48266602 C664.9921768 2637.02109628 665.90703566 2634.56028807 666.82226562 2632.09960938 C676.88941983 2605.00988023 686.42764731 2577.74656069 695.80078125 2550.40966797 C697.21329759 2546.29006097 698.62956254 2542.1717886 700.05078125 2538.05517578 C711.14377977 2505.92301086 721.64169774 2473.61222564 731.96908569 2441.22735596 C732.97156509 2438.08901765 733.97888028 2434.95227181 734.98754883 2431.81591797 C738.02992859 2422.3386784 740.98061356 2412.86521582 743.5625 2403.25 C745.51721349 2396.11145222 747.5735436 2389.05492982 750 2382.0625 C753.59880971 2371.64369415 756.29389734 2360.98708246 759.10888672 2350.3359375 C760.52787279 2345.02387568 762.01072083 2339.73021395 763.5 2334.4375 C763.78721924 2333.41575684 764.07443848 2332.39401367 764.37036133 2331.34130859 C764.9519295 2329.27398113 765.53387985 2327.20676113 766.11621094 2325.13964844 C767.9225478 2318.72266167 769.7196305 2312.30307097 771.51342773 2305.88256836 C772.77855353 2301.3548812 774.04614678 2296.82820881 775.33984375 2292.30859375 C778.0835973 2282.67091655 780.47183956 2272.97311605 782.77416992 2263.22070312 C784.18654322 2257.27367839 785.68353628 2251.37333485 787.375 2245.5 C793.93207898 2222.55561147 798.98449193 2199.1112428 804.14990234 2175.82421875 C804.98473375 2172.06867621 805.82976926 2168.31553744 806.67578125 2164.5625 C814.40190214 2130.05606407 820.97572279 2095.35948184 826.52514648 2060.43774414 C826.68494492 2059.43265305 826.84474335 2058.42756195 827.00938416 2057.39201355 C827.3072796 2055.51149721 827.60318815 2053.63066463 827.89674377 2051.74946594 C828.09384193 2050.49845345 828.09384193 2050.49845345 828.29492188 2049.22216797 C828.40767456 2048.4993161 828.52042725 2047.77646423 828.63659668 2047.03170776 C829 2045 829 2045 829.53796387 2042.89724731 C830.12779108 2040.4752547 830.09524712 2038.23878135 830.0625 2035.75 C830.04896484 2034.41195313 830.04896484 2034.41195313 830.03515625 2033.046875 C830.01775391 2032.03367187 830.01775391 2032.03367187 830 2031 C830.55872803 2031.09087891 831.11745605 2031.18175781 831.69311523 2031.27539062 C834.27346783 2031.6908463 836.85541338 2032.09546702 839.4375 2032.5 C840.31599609 2032.64308594 841.19449219 2032.78617188 842.09960938 2032.93359375 C842.97294922 2033.06894531 843.84628906 2033.20429687 844.74609375 2033.34375 C845.53685303 2033.46943359 846.3276123 2033.59511719 847.14233398 2033.72460938 C851.09792878 2034.10580638 855.02941001 2034.05134779 859 2034 C851.80255194 2085.47713961 842.49404344 2136.58741966 830.59352112 2187.19462585 C829.22569434 2193.01391913 827.88943659 2198.84011848 826.55859375 2204.66796875 C822.56756041 2222.10250808 818.47620628 2239.47916556 813.7644043 2256.734375 C811.62915714 2264.56197835 809.6650497 2272.41340062 807.8125 2280.3125 C806.04871369 2287.81737562 804.14662701 2295.23053277 801.89599609 2302.60375977 C800.07376058 2308.61014518 798.49820851 2314.67098915 796.9375 2320.75 C795.15733221 2327.66550307 793.2913876 2334.5142448 791.125 2341.3203125 C789.20358565 2347.60493861 787.47650428 2353.94509264 785.72485352 2360.27880859 C781.35651279 2376.02500646 776.6021118 2391.6516306 771.80224609 2407.27050781 C771.10694389 2409.53425976 770.4125387 2411.79828375 769.71875 2414.0625 C769.48854156 2414.8134343 769.25833313 2415.56436859 769.02114868 2416.33805847 C767.73701236 2420.54113785 766.48478688 2424.75171043 765.26345825 2428.97343445 C761.64553435 2441.46046362 757.61908522 2453.81678353 753.625 2466.1875 C752.82182774 2468.67861957 752.01868694 2471.16974928 751.21557617 2473.66088867 C749.58901309 2478.70386224 747.96051783 2483.74620655 746.33056641 2488.78808594 C744.86407498 2493.32435445 743.39983259 2497.86133142 741.93896484 2502.39941406 C733.84980892 2527.52268706 725.4644722 2552.52087847 716.67521667 2577.40815735 C714.71046504 2582.97288934 712.76593836 2588.54422314 710.8359375 2594.12109375 C685.66498298 2666.73249108 657.64347749 2738.57416839 626.87457275 2808.99621582 C625.98747162 2811.0287045 625.10347108 2813.06251747 624.22021484 2815.09667969 C613.87270479 2838.91247508 603.03170429 2862.49407063 592 2886 C591.70607361 2886.62652466 591.41214722 2887.25304932 591.10931396 2887.89855957 C578.32013979 2915.13219165 565.05571816 2942.26458165 550.36962891 2968.52978516 C548.94695536 2971.09566947 547.55405758 2973.67590199 546.16796875 2976.26171875 C537.72199953 2991.99031229 528.96619731 3007.75182082 519.22680664 3022.72631836 C518.82196045 3023.4766333 518.41711426 3024.22694824 518 3025 C518.33 3025.66 518.66 3026.32 519 3027 C520.40572266 3025.9790625 520.40572266 3025.9790625 521.83984375 3024.9375 C530.65320503 3018.59966455 539.63903212 3012.61758514 548.8125 3006.8125 C565.96952619 2995.92468182 580.58324923 2983.59846324 594.90551758 2969.22485352 C596.6917467 2967.4332405 598.48329347 2965.64706945 600.27539062 2963.86132812 C605.52603459 2958.61377914 610.71689751 2953.36921295 615.53442383 2947.71508789 C617.93975906 2944.90024864 620.47609035 2942.20818849 623 2939.5 C627.41617373 2934.7346436 631.76709102 2929.92968412 636 2925 C636.92442929 2923.92964442 637.84891358 2922.85933635 638.7734375 2921.7890625 C644.10680566 2915.60290122 649.38027227 2909.37791766 654.52734375 2903.03515625 C656.44648445 2900.67943378 658.37648425 2898.33462236 660.31640625 2895.99609375 C667.3933714 2887.46008994 674.32630401 2878.85663743 681 2870 C681.55268555 2869.26942383 682.10537109 2868.53884766 682.67480469 2867.78613281 C701.28203206 2843.17979936 719.132786 2818.08424767 735.69628906 2792.046875 C737.04904759 2789.92299344 738.41108789 2787.80523985 739.7734375 2785.6875 C757.82106371 2757.5081412 774.30535006 2728.36308042 789.63574219 2698.62695312 C790.89885222 2696.19476558 792.18141528 2693.77462138 793.4765625 2691.359375 C830.26114451 2622.72874315 861.63265115 2546.72872948 881.75390625 2471.4296875 C882.68490558 2467.98593597 883.7839558 2464.62305185 884.93359375 2461.24609375 C887.05747172 2454.95849997 888.81017485 2448.60343431 890.5 2442.1875 C890.78230469 2441.12724609 891.06460938 2440.06699219 891.35546875 2438.97460938 C892.24001965 2435.65053914 893.11998927 2432.32527478 894 2429 C895.95585052 2421.63489305 897.92173437 2414.27296486 899.9296875 2406.921875 C904.10163638 2391.58869093 907.85932476 2376.22184888 911.19628906 2360.68261719 C912.06061546 2356.72225892 912.96010695 2352.77103714 913.8671875 2348.8203125 C919.04135269 2326.2036634 923.43277853 2303.48071582 927.52539062 2280.6451416 C927.98743975 2278.07000207 928.45230989 2275.4953874 928.91796875 2272.92089844 C936.42965036 2231.32417121 942.75689728 2189.62116976 947.68939209 2147.63861084 C947.97327874 2145.22699682 948.26065832 2142.81583181 948.54931641 2140.40478516 C953.84285544 2095.95857259 957.34378852 2051.22320136 960.25 2006.5625 C960.32686035 2005.38469971 960.4037207 2004.20689941 960.48291016 2002.9934082 C961.7866121 1982.82011171 962.84559451 1962.63388924 963.87506962 1942.44508147 C963.99252888 1940.1462215 964.11122087 1937.84742804 964.23006439 1935.5486393 C964.77268136 1924.97533689 965.23908352 1914.39991402 965.640625 1903.8203125 C965.69050048 1902.50653114 965.69050048 1902.50653114 965.74138355 1901.16620874 C967.21381096 1861.63874335 967.13918096 1822.12368314 967.00890437 1782.57693188 C966.98048397 1773.84211277 966.9616065 1765.1072802 966.94308251 1756.37243548 C966.92582494 1748.37198475 966.9062872 1740.37153911 966.88671875 1732.37109375 C966.88456804 1731.48307066 966.88241734 1730.59504757 966.88020146 1729.68011469 C966.82670278 1707.78305094 966.73787954 1685.88676689 966.58691999 1663.99015091 C966.48278924 1648.68901154 966.43725916 1633.38841213 966.44165063 1618.08691895 C966.44229343 1609.58737748 966.41682041 1601.08973797 966.32054901 1592.59069443 C965.59592918 1526.61211815 965.59592918 1526.61211815 981.19993782 1497.47983932 C983.96321202 1492.1379404 986.06216782 1486.57297041 988.18359375 1480.953125 C988.90613575 1479.12496678 989.6315076 1477.297921 990.36132812 1475.47265625 C990.70236572 1474.61430176 991.04340332 1473.75594727 991.39477539 1472.87158203 C992.11572782 1471.05898846 992.837806 1469.24684239 993.56079102 1467.43505859 C994.64650536 1464.71314009 995.72797362 1461.98956917 996.80859375 1459.265625 C997.13339218 1458.45458313 997.45819061 1457.64354126 997.79283142 1456.80792236 C999.41581672 1453.02099251 999.41581672 1453.02099251 1000 1449 C703.99 1449 407.98 1449 103 1449 Z " fill="#FDFDFD" transform="translate(0,0)"/>
<path d="M0 0 C396.66 0 793.32 0 1202 0 C1202 1312.08 1202 2624.16 1202 3976 C805.34 3976 408.68 3976 0 3976 C0 2663.92 0 1351.84 0 0 Z M4 4 C4 364.36 4 724.72 4 1096 C4.33 1096 4.66 1096 5 1096 C5.05945801 1095.31413818 5.11891602 1094.62827637 5.18017578 1093.92163086 C10.74200665 1031.89646173 29.970512 971.33916408 69 922 C69.64195313 921.17757812 70.28390625 920.35515625 70.9453125 919.5078125 C86.03563726 900.38525521 102.43635207 881.82729781 121 866 C122.10137367 865.03642723 123.20151906 864.07144964 124.30078125 863.10546875 C159.13524309 832.55654721 197.66685844 806.38075095 237 782 C238.61210785 780.99499806 240.22408283 779.98978296 241.8359375 778.984375 C263.30577988 765.61875344 284.96292319 752.56470102 306.72583008 739.68310547 C307.99040893 738.93459024 309.25497613 738.18605532 310.51953125 737.4375 C311.13654907 737.07225723 311.75356689 736.70701447 312.38928223 736.33070374 C318.12763847 732.93063653 323.84605672 729.49769534 329.5637207 726.06298828 C354.12691353 711.30964392 378.95056999 697.0593041 404.19873047 683.51171875 C406.88159548 682.06389757 409.55403142 680.59887639 412.22265625 679.125 C439.98573131 663.79795998 468.41219369 649.73418164 496.80273438 635.61694336 C508.9709174 629.55995143 521.06297019 623.38970297 533.06970215 617.01907349 C595.21644054 584.20958074 657.54942976 555.69737764 728.1484375 577.453125 C729.76647281 577.96608336 731.38371402 578.48155601 733 579 C733.69512695 579.21849609 734.39025391 579.43699219 735.10644531 579.66210938 C778.25288054 593.38956062 820.20284283 616.3720413 859.36328125 638.8046875 C865.35299422 642.22467137 871.42286704 645.48869397 877.5 648.75 C885.77633297 653.20623475 893.92158428 657.79165701 901.921875 662.72460938 C904.35728277 664.21927223 906.80326992 665.6958206 909.25 667.171875 C940.6446113 686.135207 971.56303716 706.09271834 1001 728 C1001.65452148 728.48404297 1002.30904297 728.96808594 1002.98339844 729.46679688 C1013.07644632 736.93476911 1023.00347941 744.612078 1032.88964844 752.35107422 C1034.84156199 753.87620427 1036.79860528 755.3944147 1038.7578125 756.91015625 C1045.31040067 761.99476219 1051.69400292 767.23059464 1057.96191406 772.6628418 C1061.42109419 775.65972846 1064.92692831 778.57590378 1068.5 781.4375 C1074.17169902 786.03685416 1079.46348563 791.0064379 1084.78515625 796 C1087.19234594 798.2564364 1089.629108 800.4663907 1092.125 802.625 C1100.47187772 809.86248258 1108.48707882 817.39202304 1116.3125 825.1875 C1116.96992187 825.84032959 1117.62734375 826.49315918 1118.3046875 827.16577148 C1134.83975314 843.75303114 1149.12827167 862.84133974 1161 883 C1161.35416992 883.58942383 1161.70833984 884.17884766 1162.07324219 884.78613281 C1200.24890666 948.50209178 1201.35712085 1024.06127844 1183.9375 1094.44921875 C1183.29604144 1096.96726433 1182.65033875 1099.48423329 1182 1102 C1181.71125 1103.13260254 1181.4225 1104.26520508 1181.125 1105.43212891 C1175.47245935 1126.99190309 1166.28558089 1146.90051746 1157.05024719 1167.11129761 C1152.63134529 1176.78205117 1148.31491676 1186.49702447 1144.00985718 1196.21887207 C1141.92478218 1200.92510195 1139.83328051 1205.62847303 1137.7421875 1210.33203125 C1137.1374485 1211.69278275 1137.1374485 1211.69278275 1136.52049255 1213.08102417 C1133.95625429 1218.85069871 1131.38907026 1224.61905521 1128.8203125 1230.38671875 C1127.50491594 1233.34101575 1126.18982672 1236.29544935 1124.875 1239.25 C1124.55428528 1239.97063629 1124.23357056 1240.69127258 1123.90313721 1241.43374634 C1118.98442755 1252.49040832 1114.11538793 1263.56831424 1109.26177979 1274.65368652 C1108.69907379 1275.93886169 1108.69907379 1275.93886169 1108.125 1277.25 C1107.7500238 1278.10646118 1107.37504761 1278.96292236 1106.9887085 1279.84533691 C1101.03688809 1293.43243698 1094.98325544 1306.97100053 1088.87554932 1320.48864746 C1082.78482958 1333.97328222 1076.80724748 1347.50446441 1070.8800354 1361.06167603 C1065.60634315 1373.11987721 1060.25855982 1385.14189763 1054.83990479 1397.13565063 C1051.87705922 1403.69648383 1048.92498831 1410.26217591 1045.97540283 1416.82897949 C1045.35428293 1418.21144835 1044.73270963 1419.59371366 1044.11053467 1420.97570801 C1035.38560815 1440.36344459 1027.54845969 1460.05943054 1019.85595703 1479.8762207 C1019.48916619 1480.81526654 1019.12237535 1481.75431238 1018.74446964 1482.72181416 C1017.92728039 1484.83614332 1017.12447469 1486.95611304 1016.33916759 1489.08248997 C1014.20158839 1494.77108791 1011.95804891 1500.2216178 1009.06701505 1505.57179552 C991.98860776 1537.40565811 993.82070531 1571.12520529 994.21337044 1606.17162383 C994.30982282 1615.09667132 994.30971226 1624.02108418 994.30564503 1632.94655871 C994.30060511 1648.93834582 994.36465629 1664.92903498 994.47558594 1680.92041016 C994.5818378 1696.26383098 994.66119558 1711.60693305 994.69921875 1726.95068359 C994.70156614 1727.89268439 994.70391352 1728.83468518 994.70633204 1729.80523145 C994.72933209 1739.2428332 994.74812371 1748.68044307 994.7667178 1758.11805433 C994.77410419 1761.83890171 994.78171489 1765.55974858 994.78948183 1769.28059518 C994.79332593 1771.12285549 994.79710459 1772.96511593 994.80081718 1774.8073765 C994.8262439 1787.13563205 994.87885126 1799.46345705 994.95368577 1811.79150617 C995.2693222 1864.85893614 994.21976988 1917.79473935 991.30835724 1970.79429245 C991.18191771 1973.10187972 991.05782034 1975.40958534 990.934021 1977.71731567 C985.22359541 2083.70251218 974.07436086 2189.50452666 906.78979492 2488.5244751 C905.93729152 2491.19655281 905.09052128 2493.87041048 904.24414062 2496.54443359 C879.17772075 2575.59671044 848.23930355 2653.53242269 808.1484375 2726.26953125 C805.96363638 2730.23385495 803.80469713 2734.21087189 801.6640625 2738.19921875 C796.05857131 2748.64062816 790.38066629 2758.9823971 784.171875 2769.07714844 C782.87807531 2771.20005809 781.60938047 2773.33674299 780.34375 2775.4765625 C764.01869966 2803.03608612 746.53392701 2830.02528899 727.57226562 2855.84667969 C725.96598994 2858.046579 724.37892777 2860.25918963 722.796875 2862.4765625 C715.65167389 2872.48092421 708.25267645 2882.2509667 700.64599609 2891.90869141 C699.08869722 2893.88730638 697.53735583 2895.87041168 695.98828125 2897.85546875 C688.03401605 2908.03845866 679.87986878 2918.02812268 671.43725586 2927.81079102 C668.43097567 2931.30166278 665.50206669 2934.83849279 662.625 2938.4375 C657.77811871 2944.41649955 652.49892331 2949.96565507 647.22265625 2955.5625 C644.31999474 2958.6449724 641.51449426 2961.79666375 638.74609375 2965 C631.96804619 2972.76366969 624.8906757 2980.18096227 617.55834961 2987.42016602 C614.72394483 2990.23083419 612.00511553 2993.06385253 609.4375 2996.125 C595.60677942 3012.25520468 577.22578322 3023.27465733 559.44189453 3034.45947266 C543.6734455 3044.40737442 529.90525304 3055.91149845 516.84765625 3069.18359375 C515.02160308 3070.9787623 513.13385483 3072.64925133 511.1875 3074.3125 C507.79802072 3077.22252445 504.63577639 3080.32186998 501.5 3083.5 C497.90807019 3087.13511813 494.2468946 3090.60853829 490.359375 3093.92578125 C487.00318739 3096.87633691 483.75802378 3099.94185254 480.5 3103 C476.01733881 3107.20300793 471.52614413 3111.3750347 466.86328125 3115.37890625 C464.66136091 3117.29462311 462.52372876 3119.27483576 460.375 3121.25 C454.72432246 3126.34685922 448.76888863 3131.00235876 442.74511719 3135.64453125 C441.11153927 3136.91336513 439.496427 3138.20587308 437.8828125 3139.5 C413.10027427 3159.17468684 383.27210912 3176.30758295 350.54296875 3172.609375 C336.04850512 3170.0252192 323.71411283 3162.94643496 313 3153 C311.75863281 3151.87851562 311.75863281 3151.87851562 310.4921875 3150.734375 C303.28263663 3143.90903217 297.60970575 3136.14119981 292 3128 C291.26136719 3126.93394531 290.52273438 3125.86789063 289.76171875 3124.76953125 C277.91161431 3106.98354269 268.69701268 3087.67132025 259.875 3068.2578125 C258.06558004 3064.29804991 256.24307839 3060.34723135 254.34375 3056.4296875 C253.97443359 3055.66640137 253.60511719 3054.90311523 253.22460938 3054.11669922 C251.38150981 3050.93095894 248.92210798 3048.45225855 246.421875 3045.7734375 C235.86766593 3033.68716582 227.25142207 3019.71609818 219 3006 C218.49001465 3005.154375 217.9800293 3004.30875 217.45458984 3003.4375 C202.811683 2978.92168961 191.0037849 2952.71992151 181 2926 C180.59475098 2924.91895996 180.18950195 2923.83791992 179.77197266 2922.72412109 C151.56726781 2846.86281164 135.9364063 2766.99683031 125 2687 C124.78310516 2685.41916626 124.78310516 2685.41916626 124.56182861 2683.80639648 C113.71662393 2604.45472984 108.38256659 2524.55730469 105.25 2444.5625 C105.20506094 2443.42701029 105.20506094 2443.42701029 105.15921402 2442.26858139 C104.70823694 2430.84755435 104.32473761 2419.42531093 104 2408 C103.97589931 2407.1567857 103.95179863 2406.3135714 103.92696762 2405.44480515 C102.82007137 2366.1266685 102.79702038 2326.80390375 102.81165123 2287.47369909 C102.81250769 2284.91451992 102.81295481 2282.35534094 102.81330872 2279.79616165 C102.8229984 2222.84162613 103.26534212 2165.93171231 105 2109 C105.03337967 2107.89768791 105.06675934 2106.79537582 105.10115051 2105.65966034 C106.56350728 2057.40178042 108.23138485 2009.15096234 109.97488403 1960.90250397 C110.11300735 1957.07399817 110.25047287 1953.24546934 110.38769531 1949.41693115 C110.43256451 1948.16554352 110.4774337 1946.91415588 110.52366257 1945.62484741 C110.61337975 1943.12263101 110.70306351 1940.6204134 110.79271317 1938.11819458 C111.04098706 1931.2057248 111.29390933 1924.29345929 111.55451584 1917.38144302 C111.60017307 1916.15229046 111.64583031 1914.92313789 111.69287109 1913.65673828 C111.72848562 1912.6998224 111.76410014 1911.74290651 111.80079389 1910.75699317 C112.12058092 1902.06482105 112.39252822 1893.37174179 112.65349066 1884.67763782 C112.83043433 1878.93073867 113.02707798 1873.18631795 113.28247261 1867.44233131 C115.08952724 1826.60320353 112.09884911 1787.29079283 107.32654823 1746.76303371 C106.30418161 1738.06700024 105.32784008 1729.36593844 104.35269094 1720.66450536 C102.60636379 1705.0919528 100.8265963 1689.52342747 99.02416992 1673.95727539 C97.2942808 1659.01690389 95.58048644 1644.07483232 93.88842773 1629.13012695 C93.73182452 1627.74704177 93.73182452 1627.74704177 93.5720576 1626.33601547 C93.04724287 1621.70007408 92.52274669 1617.06409672 91.99840629 1612.42810166 C89.41305981 1589.57178052 86.81969888 1566.7163857 84.19419861 1543.86463928 C84.1017611 1543.05977407 84.00932358 1542.25490886 83.91408493 1541.42565379 C83.01484897 1533.59693498 82.11396358 1525.76841525 81.20570801 1517.94073721 C80.77653083 1514.24160178 80.34828488 1510.54235909 79.92062378 1506.8430481 C79.83801079 1506.12859312 79.7553978 1505.41413814 79.67028139 1504.67803302 C78.49700482 1494.51336373 77.38873658 1484.34352213 76.31887817 1474.16744995 C75.92998763 1470.52692063 75.53993518 1466.88651767 75.14952672 1463.24615085 C74.80398111 1459.9708798 74.47691615 1456.69414289 74.15084743 1453.41688633 C72.57967191 1438.36681801 69.02655215 1425.97308107 62.48974609 1412.25927734 C59.70376981 1406.16409817 57.46095441 1399.86209844 55.1875 1393.5625 C54.94265869 1392.88920654 54.69781738 1392.21591309 54.44555664 1391.5222168 C28.37918453 1319.6504678 9.57775127 1243.49808443 5 1167 C4.67 1167 4.34 1167 4 1167 C4 2092.65 4 3018.3 4 3972 C398.02 3972 792.04 3972 1198 3972 C1198 2662.56 1198 1353.12 1198 4 C803.98 4 409.96 4 4 4 Z M541 645.375 C539.99328247 645.87870117 538.98656494 646.38240234 537.94934082 646.90136719 C528.14199966 651.81605815 518.36543828 656.77869507 508.67578125 661.921875 C495.86060842 668.72005294 482.83278243 675.1004413 469.83276367 681.53564453 C455.48033759 688.64528982 441.30483436 695.98640624 427.28933716 703.73944092 C424.20992684 705.43503155 421.11177938 707.09196537 418.0078125 708.7421875 C405.41269096 715.44562448 393.00527 722.39801819 380.71484375 729.64453125 C376.26257431 732.26892458 371.78265851 734.8381801 367.28320312 737.38061523 C357.11248062 743.1295828 347.11214764 749.13907417 337.14208984 755.22753906 C328.77002172 760.33691501 320.35424665 765.36736068 311.9112854 770.35864258 C297.16919358 779.07420703 282.54847711 787.96429841 268 797 C266.51312588 797.91944074 265.02615744 798.83872897 263.5390625 799.7578125 C254.59497658 805.30059561 245.76760873 811.01735953 236.95703125 816.76953125 C233.81579888 818.82001562 230.66857054 820.86036591 227.51171875 822.88671875 C206.82942068 836.16537402 186.6428002 850.1673281 167.58984375 865.70996094 C165.41234637 867.47683688 163.20443154 869.20441073 161 870.9375 C151.57357488 878.49122964 142.39850276 886.3613523 133.97265625 895.0234375 C132.05115679 896.94874191 130.06470242 898.73025507 128 900.5 C120.72479888 906.76274768 114.21438146 913.69936487 108 921 C107.20078125 921.91007812 106.4015625 922.82015625 105.578125 923.7578125 C82.65757694 950.04567426 64.63916771 980.53664776 52 1013 C51.54238281 1014.16015625 51.08476563 1015.3203125 50.61328125 1016.515625 C44.13394444 1033.76660377 39.9112643 1051.83242209 37 1070 C36.81663086 1071.09876465 36.63326172 1072.1975293 36.44433594 1073.32958984 C31.47682733 1103.94574907 32.1845733 1134.80173619 33.875 1165.6875 C33.91393372 1166.40087524 33.95286743 1167.11425049 33.99298096 1167.84924316 C34.51078148 1176.96965973 35.39747642 1186.00919804 36.51806641 1195.07299805 C36.92406129 1198.38121876 37.29540647 1201.68895244 37.640625 1205.00390625 C40.47353198 1231.32448471 45.95363127 1257.24916083 52 1283 C52.35529785 1284.52197998 52.35529785 1284.52197998 52.71777344 1286.07470703 C56.20588556 1300.88602539 60.43718082 1315.40268182 65.02612305 1329.90795898 C67.14762638 1336.64369218 69.22383429 1343.39395622 71.24609375 1350.16015625 C74.6065896 1361.25816894 78.5013568 1372.15885334 82.4375 1383.0625 C82.70827362 1383.81419464 82.97904724 1384.56588928 83.25802612 1385.34036255 C87.33240879 1396.63357705 91.6470676 1407.80674527 96 1419 C398.61 1419 701.22 1419 1013 1419 C1018.5484407 1407.13731839 1018.5484407 1407.13731839 1023.98828125 1395.2265625 C1024.32868942 1394.47204803 1024.6690976 1393.71753357 1025.01982117 1392.94015503 C1026.11877978 1390.50239726 1027.21584207 1388.06379356 1028.3125 1385.625 C1028.69817139 1384.76817627 1029.08384277 1383.91135254 1029.48120117 1383.02856445 C1035.7779959 1369.03326045 1041.97300413 1354.9951596 1048.12197876 1340.93438721 C1054.0341597 1327.41886099 1060.05059727 1313.95356099 1066.125 1300.51025391 C1071.8318635 1287.87539681 1077.44550404 1275.20253438 1083 1262.5 C1088.91944327 1248.96287041 1094.91633285 1235.46412684 1101 1222 C1107.86751554 1206.80013761 1114.61650066 1191.55184857 1121.29394531 1176.26757812 C1125.04870561 1167.68012212 1128.83684449 1159.1099769 1132.69921875 1150.5703125 C1133.08348526 1149.7189975 1133.46775177 1148.8676825 1133.86366272 1147.99057007 C1135.68201061 1143.9629407 1137.5065618 1139.93839202 1139.34399414 1135.91943359 C1145.69356032 1121.93773978 1150.83654779 1107.78790764 1154.5625 1092.875 C1154.99900879 1091.14733398 1154.99900879 1091.14733398 1155.44433594 1089.38476562 C1156.30943451 1085.92627474 1157.15748774 1082.4640546 1158 1079 C1158.3700415 1077.50194824 1158.3700415 1077.50194824 1158.74755859 1075.97363281 C1172.67954617 1018.94652708 1168.55335597 959.19302372 1141 907 C1140.65598145 906.34386719 1140.31196289 905.68773437 1139.95751953 905.01171875 C1130.30490714 886.75950624 1117.99634986 870.55397996 1104.10546875 855.32421875 C1102.26022445 853.28726075 1100.4691833 851.21729153 1098.6875 849.125 C1092.05160917 841.516874 1084.78471681 834.36522173 1077.1015625 827.8203125 C1074.47176644 825.54245941 1071.92715143 823.17627638 1069.375 820.8125 C1063.31264454 815.22048309 1057.06792672 809.85871849 1050.78222656 804.52050781 C1049.01107487 803.00944853 1047.25017876 801.48727832 1045.4921875 799.9609375 C1038.65794749 794.0362734 1031.70199582 788.32494274 1024.55859375 782.77734375 C1021.50994468 780.40822805 1018.49881939 777.99567853 1015.49462891 775.57055664 C1002.07967705 764.74995627 988.18603185 754.5878451 974.17333984 744.55859375 C972.17975397 743.12890916 970.19285186 741.69043755 968.20703125 740.25 C921.62937215 706.69075453 871.51146168 677.73548683 820.8013916 650.95178223 C819.0149979 650.00792428 817.22964182 649.0621245 815.44433594 648.11621094 C789.31274252 634.29088999 762.81362055 621.11851644 735 611 C734.236875 610.71334473 733.47375 610.42668945 732.6875 610.13134766 C663.11636171 584.08810245 602.8227196 614.43368617 541 645.375 Z M103 1449 C105.90525649 1480.57829245 105.90525649 1480.57829245 109.5 1512.0625 C109.7128486 1513.75521324 109.92506829 1515.44800567 110.13671875 1517.14086914 C110.45561534 1519.69018887 110.77498231 1522.23943873 111.09692383 1524.78837585 C111.76643801 1530.09313304 112.40971249 1535.40035601 113.03125 1540.7109375 C114.83360047 1556.06603594 116.84857179 1571.37082551 119.16210938 1586.65795898 C121.96307631 1605.19356567 124.38856103 1623.77894391 126.75 1642.375 C126.87428375 1643.3525827 126.9985675 1644.33016541 127.12661743 1645.33737183 C127.7995211 1650.63180092 128.47092275 1655.92641821 129.14111328 1661.22119141 C129.72861241 1665.86174975 130.31835306 1670.50201621 130.90966797 1675.14208984 C138.01595621 1730.93317199 138.01595621 1730.93317199 139.66796875 1750.26171875 C139.92028123 1753.10246039 140.20307607 1755.93392313 140.50390625 1758.76953125 C142.3636703 1777.22782223 142.39474385 1795.66863337 142.37735748 1814.2003479 C142.37496544 1817.04104068 142.37607929 1819.88171885 142.37738037 1822.72241211 C142.37293349 1868.4498713 140.56843298 1914.11100017 138.7469635 1959.79534912 C137.93438329 1980.23513457 137.28519347 2000.67780014 136.70196533 2021.12524414 C136.63263086 2023.55375103 136.56263213 2025.98223906 136.49189758 2028.41070557 C136.4312255 2030.50126343 136.37231082 2032.59187396 136.31608582 2034.68255615 C136.16175298 2040.03173277 135.93541716 2045.37314559 135.65374947 2050.71687794 C134.98511553 2063.42250122 134.58477078 2076.12933969 134.24609375 2088.84765625 C134.21378851 2090.05513519 134.18148327 2091.26261414 134.14819908 2092.50668335 C133.89631438 2102.0249406 133.66203098 2111.54356242 133.4375 2121.0625 C133.42060592 2121.7769898 133.40371183 2122.4914796 133.38630581 2123.2276206 C132.06498869 2179.32311459 131.66436175 2235.41343581 131.63222533 2291.52350551 C131.62843774 2297.80860259 131.62036428 2304.09367149 131.6080299 2310.37875754 C131.52466702 2352.96440511 131.71574288 2395.50134027 133.3984375 2438.05859375 C133.44562573 2439.25218722 133.44562573 2439.25218722 133.49376726 2440.46989369 C135.23635904 2484.14973699 137.74210948 2527.80094784 141.25 2571.375 C141.35538086 2572.68629883 141.46076172 2573.99759766 141.56933594 2575.34863281 C146.68687912 2641.4045231 146.68687912 2641.4045231 156.43701172 2706.88378906 C157.17795718 2710.98501536 157.82887082 2715.09860569 158.48046875 2719.21484375 C163.31236476 2749.65166498 168.7833888 2779.83613545 175.6875 2809.875 C175.87391052 2810.68811646 176.06032104 2811.50123291 176.25238037 2812.33898926 C178.30423174 2821.24948459 180.50884613 2830.07679904 183.08105469 2838.85449219 C183.90459294 2841.673426 184.68310001 2844.49891763 185.44140625 2847.3359375 C194.0599363 2879.0896352 204.43304526 2910.59183467 217.93652344 2940.62011719 C219.02364981 2943.05292433 220.0803771 2945.49731892 221.1328125 2947.9453125 C232.68972126 2974.58381774 247.3678188 3000.64724174 266 3023 C266.33 3023 266.66 3023 267 3023 C267.1580783 3015.85057068 266.53439805 3008.98360607 265.67578125 3001.890625 C263.97881381 2987.2427726 262.64375431 2972.57111053 261.37227249 2957.88141251 C261.11785006 2954.94656468 260.86131765 2952.01190237 260.60492992 2949.07722569 C259.79523104 2939.80623612 258.9941606 2930.53451157 258.19514465 2921.26259613 C257.94296147 2918.33866922 257.68995064 2915.41481421 257.43694687 2912.49095821 C254.88641782 2883.00753448 252.41963799 2853.51830334 250.1015625 2824.015625 C250.02160727 2822.99803793 249.94165203 2821.98045086 249.85927391 2820.93202782 C249.06640592 2810.83372456 248.27747269 2800.7351232 247.49600601 2790.63593102 C247.20609928 2786.89193391 246.9148951 2783.14803825 246.62356186 2779.40415192 C246.42339734 2776.82388471 246.22534181 2774.24346145 246.02737427 2771.6630249 C245.90531918 2770.0924803 245.78316315 2768.52194355 245.66088867 2766.95141602 C245.60844026 2766.25933454 245.55599184 2765.56725306 245.50195408 2764.85419941 C245.1375122 2760.2122872 244.59250563 2755.61670345 244 2751 C243.84703767 2749.06407548 243.71471326 2747.12638289 243.60546875 2745.1875 C243.50576782 2743.49089233 243.50576782 2743.49089233 243.40405273 2741.76000977 C243.33259033 2740.51920654 243.26112793 2739.27840332 243.1875 2738 C242.300814 2723.11395488 241.26738831 2708.23867294 240.2081604 2693.36401367 C240.02840736 2690.83932356 239.8493452 2688.31458416 239.67098999 2685.78979492 C239.41674038 2682.19435545 239.15994905 2678.59910668 238.90234375 2675.00390625 C238.82634949 2673.92685928 238.75035522 2672.84981232 238.67205811 2671.74012756 C238.28890982 2666.44059971 237.82314674 2661.16764357 237.20875549 2655.88999939 C236.95752761 2653.61546981 236.81317017 2651.34867351 236.71875 2649.0625 C236.68136719 2648.22976563 236.64398438 2647.39703125 236.60546875 2646.5390625 C236.53515625 2644.84635417 236.46484375 2643.15364583 236.39453125 2641.4609375 C236.22078167 2637.59051576 236.0015405 2633.76006948 235.52734375 2629.9140625 C234.77334599 2623.53922743 234.5182881 2617.1253482 234.18487549 2610.71777344 C233.97253119 2606.65262456 233.74975271 2602.58804624 233.52734375 2598.5234375 C233.48250854 2597.70228455 233.43767334 2596.88113159 233.39147949 2596.03509521 C232.51449712 2580.06946749 231.41493453 2564.11729093 230.33448792 2548.16439819 C228.10194517 2515.18771025 225.9965602 2482.20926027 224.17712402 2449.20709229 C224.00103251 2446.01869518 223.82344149 2442.83038463 223.64550781 2439.64208984 C220.54615555 2383.99020362 217.70467128 2328.30658471 215.59545898 2272.60766602 C215.54399216 2271.26825958 215.54399216 2271.26825958 215.4914856 2269.90179443 C215.43118173 2268.32288461 215.37244351 2266.7439132 215.31613159 2265.16485596 C215.13371201 2260.37146589 214.84197192 2255.59203731 214.52026367 2250.8059082 C213.84620195 2240.46058549 213.57708429 2230.10391562 213.28125 2219.7421875 C213.21799482 2217.58838376 213.15455463 2215.43458546 213.09094238 2213.28079224 C212.95821374 2208.76748245 212.82728899 2204.25412521 212.69775391 2199.74072266 C212.53599967 2194.10739908 212.37045453 2188.47419535 212.20367241 2182.84101868 C210.95033109 2140.44995649 209.81590102 2098.07875594 209.86962891 2055.66650391 C209.87534271 2051.14147869 209.87190487 2046.61651211 209.86619759 2042.09148884 C209.83079982 2009.07200708 209.94800918 1975.97047794 212.19238281 1943.0144043 C212.38015895 1940.23617106 212.54999353 1937.45718217 212.71875 1934.67773438 C213.33845115 1924.92507952 214.24017169 1915.23764074 215.4765625 1905.54296875 C215.59647552 1904.59077957 215.71638855 1903.63859039 215.8399353 1902.657547 C216.36881766 1898.71278032 216.94514388 1894.90629986 218.09521484 1891.09106445 C219.18728173 1887.89697358 219.18728173 1887.89697358 219 1884 C220.0058313 1884.26478149 220.0058313 1884.26478149 221.03198242 1884.53491211 C224.0834268 1885.33728499 227.13545527 1886.13741389 230.1875 1886.9375 C231.24259766 1887.21529297 232.29769531 1887.49308594 233.38476562 1887.77929688 C234.40634766 1888.04677734 235.42792969 1888.31425781 236.48046875 1888.58984375 C237.41785889 1888.83597412 238.35524902 1889.08210449 239.32104492 1889.33569336 C241.87008364 1889.96778434 244.4208113 1890.5070702 247 1891 C246.81824219 1891.804375 246.63648438 1892.60875 246.44921875 1893.4375 C244.69812996 1901.62720758 243.41320888 1909.81412819 242.375 1918.125 C242.19070435 1919.58873047 242.19070435 1919.58873047 242.00268555 1921.08203125 C240.57998272 1932.83232119 239.84211978 1944.59710013 239.44799805 1956.42358398 C239.40595843 1957.67513747 239.36391882 1958.92669096 239.32060528 1960.21617031 C238.90551407 1973.53983748 238.83611908 1986.85927332 238.83295774 2000.18851376 C238.83168216 2002.98908522 238.82716912 2005.78964882 238.82286549 2008.59021699 C238.8093555 2017.63659658 238.80928852 2026.68295305 238.81202459 2035.72934008 C238.81250125 2038.06864355 238.81234882 2040.40794612 238.81196976 2042.7472496 C238.80547693 2083.77754507 238.98445225 2124.7911626 239.9375 2165.8125 C239.95931461 2166.76419697 239.98112923 2167.71589394 240.00360489 2168.69643021 C240.14687656 2174.9085857 240.30108469 2181.12038343 240.46484375 2187.33203125 C240.48434208 2188.09267632 240.50384041 2188.85332138 240.5239296 2189.6370163 C240.75104093 2198.3135821 241.16108545 2206.95442523 241.77381897 2215.61305237 C242.07807605 2220.16914967 242.23634625 2224.72116081 242.359375 2229.28515625 C242.420555 2231.30600497 242.48227571 2233.32683737 242.54443359 2235.34765625 C242.57720398 2236.42934082 242.60997437 2237.51102539 242.64373779 2238.62548828 C243.60122467 2269.59504653 244.97460327 2300.54785917 246.375 2331.5 C246.45641676 2333.29985666 246.45641676 2333.29985666 246.5394783 2335.13607407 C248.17399746 2371.18197257 250.0732846 2407.19621087 252.3903656 2443.20431519 C252.93592262 2451.76194392 253.39998256 2460.32123445 253.80224609 2468.88671875 C253.888889 2470.71615097 253.97565884 2472.54557718 254.0625 2474.375 C254.09221327 2475.01170498 254.12192654 2475.64840996 254.15254021 2476.30440903 C254.68833015 2487.71044677 255.37622693 2499.099541 256.17396927 2510.49012756 C256.50956348 2515.28562121 256.8387417 2520.08155733 257.16870117 2524.87744141 C257.23732864 2525.87313015 257.30595612 2526.86881889 257.37666321 2527.89468002 C258.5374914 2544.76945681 259.63357613 2561.64859663 260.73486328 2578.52734375 C261.06388245 2583.56871985 261.39492749 2588.60996092 261.72639656 2593.65117645 C261.98826625 2597.6390509 262.24873947 2601.62701571 262.50884628 2605.61500549 C262.63032239 2607.47411857 262.75227956 2609.33320029 262.87479019 2611.19224548 C263.55388169 2621.50557831 264.17974064 2631.81659749 264.62303352 2642.14318085 C264.83742104 2646.82605671 265.22386987 2651.4544787 265.78120708 2656.10940075 C266.02968446 2658.25650476 266.16819954 2660.39098726 266.24609375 2662.55078125 C266.27896484 2663.33388672 266.31183594 2664.11699219 266.34570312 2664.92382812 C266.40524649 2666.4732224 266.46266699 2668.02270027 266.51757812 2669.57226562 C266.76474423 2675.3410293 267.2981255 2681.05341644 267.90234375 2686.79296875 C269.17899555 2699.07366706 269.98725737 2711.38343734 270.82952881 2723.70010376 C276.73711312 2809.89892602 283.93718462 2896.04350798 292.06127167 2982.06158066 C292.2451582 2984.01116673 292.42792265 2985.96085855 292.61065674 2987.91055298 C295.21553694 3018.23298459 295.21553694 3018.23298459 300.375 3048.1875 C300.69633911 3049.6576355 300.69633911 3049.6576355 301.02416992 3051.1574707 C301.46275001 3053.14913463 301.90652793 3055.13966238 302.35595703 3057.12890625 C302.97628411 3059.89427637 303.56659077 3062.66463319 304.15234375 3065.4375 C309.50705427 3090.0951334 319.37912301 3121.7443092 341 3137 C350.903033 3142.33035736 359.62533663 3144.9254797 370.78515625 3142.01171875 C399.28745714 3132.56532293 423.00805475 3108.14169702 441 3085 C441.98464901 3083.8003948 442.97323727 3082.60401674 443.96484375 3081.41015625 C476.36096958 3042.33905827 502.47015645 2997.73964136 526.33007812 2953.11328125 C528.05779512 2949.89225097 529.80098997 2946.67996524 531.546875 2943.46875 C545.7214396 2917.32438557 558.970788 2890.74394807 571.31494141 2863.68652344 C572.79775253 2860.43764919 574.29307389 2857.19466469 575.79101562 2853.95274353 C592.07095299 2818.71324066 607.37018371 2783.08664387 622.10601807 2747.17602539 C622.91926121 2745.19652484 623.73491373 2743.21804933 624.55224609 2741.24023438 C638.44958116 2707.60683767 651.43297471 2673.60350281 664.0793457 2639.48266602 C664.9921768 2637.02109628 665.90703566 2634.56028807 666.82226562 2632.09960938 C676.88941983 2605.00988023 686.42764731 2577.74656069 695.80078125 2550.40966797 C697.21329759 2546.29006097 698.62956254 2542.1717886 700.05078125 2538.05517578 C711.14377977 2505.92301086 721.64169774 2473.61222564 731.96908569 2441.22735596 C732.97156509 2438.08901765 733.97888028 2434.95227181 734.98754883 2431.81591797 C738.02992859 2422.3386784 740.98061356 2412.86521582 743.5625 2403.25 C745.51721349 2396.11145222 747.5735436 2389.05492982 750 2382.0625 C753.59880971 2371.64369415 756.29389734 2360.98708246 759.10888672 2350.3359375 C760.52787279 2345.02387568 762.01072083 2339.73021395 763.5 2334.4375 C763.78721924 2333.41575684 764.07443848 2332.39401367 764.37036133 2331.34130859 C764.9519295 2329.27398113 765.53387985 2327.20676113 766.11621094 2325.13964844 C767.9225478 2318.72266167 769.7196305 2312.30307097 771.51342773 2305.88256836 C772.77855353 2301.3548812 774.04614678 2296.82820881 775.33984375 2292.30859375 C778.0835973 2282.67091655 780.47183956 2272.97311605 782.77416992 2263.22070312 C784.18654322 2257.27367839 785.68353628 2251.37333485 787.375 2245.5 C793.93207898 2222.55561147 798.98449193 2199.1112428 804.14990234 2175.82421875 C804.98473375 2172.06867621 805.82976926 2168.31553744 806.67578125 2164.5625 C814.40190214 2130.05606407 820.97572279 2095.35948184 826.52514648 2060.43774414 C826.68494492 2059.43265305 826.84474335 2058.42756195 827.00938416 2057.39201355 C827.3072796 2055.51149721 827.60318815 2053.63066463 827.89674377 2051.74946594 C828.09384193 2050.49845345 828.09384193 2050.49845345 828.29492188 2049.22216797 C828.40767456 2048.4993161 828.52042725 2047.77646423 828.63659668 2047.03170776 C829 2045 829 2045 829.53796387 2042.89724731 C830.12779108 2040.4752547 830.09524712 2038.23878135 830.0625 2035.75 C830.04896484 2034.41195313 830.04896484 2034.41195313 830.03515625 2033.046875 C830.01775391 2032.03367187 830.01775391 2032.03367187 830 2031 C830.55872803 2031.09087891 831.11745605 2031.18175781 831.69311523 2031.27539062 C834.27346783 2031.6908463 836.85541338 2032.09546702 839.4375 2032.5 C840.31599609 2032.64308594 841.19449219 2032.78617188 842.09960938 2032.93359375 C842.97294922 2033.06894531 843.84628906 2033.20429687 844.74609375 2033.34375 C845.53685303 2033.46943359 846.3276123 2033.59511719 847.14233398 2033.72460938 C851.09792878 2034.10580638 855.02941001 2034.05134779 859 2034 C851.80255194 2085.47713961 842.49404344 2136.58741966 830.59352112 2187.19462585 C829.22569434 2193.01391913 827.88943659 2198.84011848 826.55859375 2204.66796875 C822.56756041 2222.10250808 818.47620628 2239.47916556 813.7644043 2256.734375 C811.62915714 2264.56197835 809.6650497 2272.41340062 807.8125 2280.3125 C806.04871369 2287.81737562 804.14662701 2295.23053277 801.89599609 2302.60375977 C800.07376058 2308.61014518 798.49820851 2314.67098915 796.9375 2320.75 C795.15733221 2327.66550307 793.2913876 2334.5142448 791.125 2341.3203125 C789.20358565 2347.60493861 787.47650428 2353.94509264 785.72485352 2360.27880859 C781.35651279 2376.02500646 776.6021118 2391.6516306 771.80224609 2407.27050781 C771.10694389 2409.53425976 770.4125387 2411.79828375 769.71875 2414.0625 C769.48854156 2414.8134343 769.25833313 2415.56436859 769.02114868 2416.33805847 C767.73701236 2420.54113785 766.48478688 2424.75171043 765.26345825 2428.97343445 C761.64553435 2441.46046362 757.61908522 2453.81678353 753.625 2466.1875 C752.82182774 2468.67861957 752.01868694 2471.16974928 751.21557617 2473.66088867 C749.58901309 2478.70386224 747.96051783 2483.74620655 746.33056641 2488.78808594 C744.86407498 2493.32435445 743.39983259 2497.86133142 741.93896484 2502.39941406 C733.84980892 2527.52268706 725.4644722 2552.52087847 716.67521667 2577.40815735 C714.71046504 2582.97288934 712.76593836 2588.54422314 710.8359375 2594.12109375 C685.66498298 2666.73249108 657.64347749 2738.57416839 626.87457275 2808.99621582 C625.98747162 2811.0287045 625.10347108 2813.06251747 624.22021484 2815.09667969 C613.87270479 2838.91247508 603.03170429 2862.49407063 592 2886 C591.70607361 2886.62652466 591.41214722 2887.25304932 591.10931396 2887.89855957 C578.32013979 2915.13219165 565.05571816 2942.26458165 550.36962891 2968.52978516 C548.94695536 2971.09566947 547.55405758 2973.67590199 546.16796875 2976.26171875 C537.72199953 2991.99031229 528.96619731 3007.75182082 519.22680664 3022.72631836 C518.82196045 3023.4766333 518.41711426 3024.22694824 518 3025 C518.33 3025.66 518.66 3026.32 519 3027 C520.40572266 3025.9790625 520.40572266 3025.9790625 521.83984375 3024.9375 C530.65320503 3018.59966455 539.63903212 3012.61758514 548.8125 3006.8125 C565.96952619 2995.92468182 580.58324923 2983.59846324 594.90551758 2969.22485352 C596.6917467 2967.4332405 598.48329347 2965.64706945 600.27539062 2963.86132812 C605.52603459 2958.61377914 610.71689751 2953.36921295 615.53442383 2947.71508789 C617.93975906 2944.90024864 620.47609035 2942.20818849 623 2939.5 C627.41617373 2934.7346436 631.76709102 2929.92968412 636 2925 C636.92442929 2923.92964442 637.84891358 2922.85933635 638.7734375 2921.7890625 C644.10680566 2915.60290122 649.38027227 2909.37791766 654.52734375 2903.03515625 C656.44648445 2900.67943378 658.37648425 2898.33462236 660.31640625 2895.99609375 C667.3933714 2887.46008994 674.32630401 2878.85663743 681 2870 C681.55268555 2869.26942383 682.10537109 2868.53884766 682.67480469 2867.78613281 C701.28203206 2843.17979936 719.132786 2818.08424767 735.69628906 2792.046875 C737.04904759 2789.92299344 738.41108789 2787.80523985 739.7734375 2785.6875 C757.82106371 2757.5081412 774.30535006 2728.36308042 789.63574219 2698.62695312 C790.89885222 2696.19476558 792.18141528 2693.77462138 793.4765625 2691.359375 C830.26114451 2622.72874315 861.63265115 2546.72872948 881.75390625 2471.4296875 C882.68490558 2467.98593597 883.7839558 2464.62305185 884.93359375 2461.24609375 C887.05747172 2454.95849997 888.81017485 2448.60343431 890.5 2442.1875 C890.78230469 2441.12724609 891.06460938 2440.06699219 891.35546875 2438.97460938 C892.24001965 2435.65053914 893.11998927 2432.32527478 894 2429 C895.95585052 2421.63489305 897.92173437 2414.27296486 899.9296875 2406.921875 C904.10163638 2391.58869093 907.85932476 2376.22184888 911.19628906 2360.68261719 C912.06061546 2356.72225892 912.96010695 2352.77103714 913.8671875 2348.8203125 C919.04135269 2326.2036634 923.43277853 2303.48071582 927.52539062 2280.6451416 C927.98743975 2278.07000207 928.45230989 2275.4953874 928.91796875 2272.92089844 C936.42965036 2231.32417121 942.75689728 2189.62116976 947.68939209 2147.63861084 C947.97327874 2145.22699682 948.26065832 2142.81583181 948.54931641 2140.40478516 C953.84285544 2095.95857259 957.34378852 2051.22320136 960.25 2006.5625 C960.32686035 2005.38469971 960.4037207 2004.20689941 960.48291016 2002.9934082 C961.7866121 1982.82011171 962.84559451 1962.63388924 963.87506962 1942.44508147 C963.99252888 1940.1462215 964.11122087 1937.84742804 964.23006439 1935.5486393 C964.77268136 1924.97533689 965.23908352 1914.39991402 965.640625 1903.8203125 C965.69050048 1902.50653114 965.69050048 1902.50653114 965.74138355 1901.16620874 C967.21381096 1861.63874335 967.13918096 1822.12368314 967.00890437 1782.57693188 C966.98048397 1773.84211277 966.9616065 1765.1072802 966.94308251 1756.37243548 C966.92582494 1748.37198475 966.9062872 1740.37153911 966.88671875 1732.37109375 C966.88456804 1731.48307066 966.88241734 1730.59504757 966.88020146 1729.68011469 C966.82670278 1707.78305094 966.73787954 1685.88676689 966.58691999 1663.99015091 C966.48278924 1648.68901154 966.43725916 1633.38841213 966.44165063 1618.08691895 C966.44229343 1609.58737748 966.41682041 1601.08973797 966.32054901 1592.59069443 C965.59592918 1526.61211815 965.59592918 1526.61211815 981.19993782 1497.47983932 C983.96321202 1492.1379404 986.06216782 1486.57297041 988.18359375 1480.953125 C988.90613575 1479.12496678 989.6315076 1477.297921 990.36132812 1475.47265625 C990.70236572 1474.61430176 991.04340332 1473.75594727 991.39477539 1472.87158203 C992.11572782 1471.05898846 992.837806 1469.24684239 993.56079102 1467.43505859 C994.64650536 1464.71314009 995.72797362 1461.98956917 996.80859375 1459.265625 C997.13339218 1458.45458313 997.45819061 1457.64354126 997.79283142 1456.80792236 C999.41581672 1453.02099251 999.41581672 1453.02099251 1000 1449 C703.99 1449 407.98 1449 103 1449 Z " fill="#010101" transform="translate(0,0)"/>
<path d="M0 0 C396.66 0 793.32 0 1202 0 C1202 1312.08 1202 2624.16 1202 3976 C805.34 3976 408.68 3976 0 3976 C0 2663.92 0 1351.84 0 0 Z M4 4 C3.55626977 390.72562016 3.55626977 390.72562016 3.20992717 777.45133507 C3.20878424 779.01700341 3.20764074 780.58267175 3.20649674 782.1483401 C3.20471826 784.58236762 3.20294013 787.01639515 3.20116416 789.45042268 C3.19693386 795.24614915 3.19266814 801.04187558 3.18838786 806.837602 C3.12247788 896.12892804 3.063699 985.42025913 3.11793484 1865.19259773 C3.12039334 1872.00535879 3.12284109 1878.81811986 3.12528289 1885.63088092 C3.15995839 1982.35769472 3.1967655 2079.08450766 3.3625737 2461.93623251 C3.37338283 2485.70114067 3.38416878 2509.46604884 3.39489746 2533.23095703 C3.3953414 2534.21428518 3.39578533 2535.19761332 3.39624272 2536.21073929 C3.43896102 2630.86104363 3.47760622 2725.51134951 3.51534616 2820.16165594 C3.51782721 2826.38348778 3.52031146 2832.60531961 3.52279633 2838.82715145 C3.54873241 2903.77193286 3.57448371 2968.71671435 3.60015573 3033.66149586 C3.6005244 3034.59411742 3.60089307 3035.52673897 3.60127291 3036.48762178 C3.60297887 3040.80321446 3.60468461 3045.11880715 3.60638975 3049.43439984 C3.72793455 3356.95627116 3.86503821 3664.47813372 4 3972 C398.02 3972 792.04 3972 1198 3972 C1198 2662.56 1198 1353.12 1198 4 C803.98 4 409.96 4 4 4 Z " fill="#FBFBFB" transform="translate(0,0)"/>
</svg>
