<?xml version="1.0" encoding="UTF-8"?>
<!DOCTYPE svg PUBLIC "-//W3C//DTD SVG 1.1//EN" "http://www.w3.org/Graphics/SVG/1.1/DTD/svg11.dtd">
<svg xmlns="http://www.w3.org/2000/svg" version="1.1" width="1148px" height="3975px" style="shape-rendering:geometricPrecision; text-rendering:geometricPrecision; image-rendering:optimizeQuality; fill-rule:evenodd; clip-rule:evenodd" xmlns:xlink="http://www.w3.org/1999/xlink">
<g><path style="opacity:0.769" fill="#fdfdfd" d="M -0.5,-0.5 C 382.167,-0.5 764.833,-0.5 1147.5,-0.5C 1147.5,1324.5 1147.5,2649.5 1147.5,3974.5C 764.833,3974.5 382.167,3974.5 -0.5,3974.5C -0.5,2649.5 -0.5,1324.5 -0.5,-0.5 Z M 1143.5,745.5 C 1140.66,703.454 1133.16,662.121 1121,621.5C 1101.17,563.014 1066.67,515.18 1017.5,478C 992.478,459.812 965.812,444.145 937.5,431C 883.291,406.231 827.957,384.231 771.5,365C 689.183,336.561 605.85,311.561 521.5,290C 425.943,265.759 329.276,259.759 231.5,272C 180.479,277.782 133.479,294.448 90.5,322C 46.8679,353.716 19.7013,396.216 9,449.5C 6.73083,460.575 4.89749,471.575 3.5,482.5C 3.5,322.833 3.5,163.167 3.5,3.5C 383.5,3.5 763.5,3.5 1143.5,3.5C 1143.5,250.833 1143.5,498.167 1143.5,745.5 Z M 3.5,582.5 C 12.0205,663.276 27.1871,742.943 49,821.5C 89.9065,964.887 135.24,1106.89 185,1247.5C 215.667,1331.5 252.334,1412.84 295,1491.5C 317.333,1515.17 339.667,1538.83 362,1562.5C 369.344,1602.4 376.844,1642.24 384.5,1682C 356.44,1696.06 334.94,1716.89 320,1744.5C 306.623,1775.39 310.623,1803.72 332,1829.5C 347.746,1845.92 365.746,1859.25 386,1869.5C 386.832,1879.52 386.666,1889.52 385.5,1899.5C 339.224,1915.41 316.724,1947.74 318,1996.5C 324.744,2031.59 344.911,2055.42 378.5,2068C 382.43,2069.48 386.43,2070.64 390.5,2071.5C 389.739,2085.14 389.239,2098.81 389,2112.5C 358.229,2121.29 335.229,2139.62 320,2167.5C 308.952,2197.47 315.785,2222.64 340.5,2243C 354.916,2254.38 370.916,2262.88 388.5,2268.5C 388.562,2283.51 388.229,2298.51 387.5,2313.5C 351.4,2318.78 328.234,2338.78 318,2373.5C 312.734,2410.4 325.9,2438.57 357.5,2458C 366.401,2462.91 375.735,2466.74 385.5,2469.5C 386.667,2492.83 386.667,2516.17 385.5,2539.5C 354.832,2541.05 331.998,2555.05 317,2581.5C 302.791,2620.49 311.624,2653.33 343.5,2680C 356.618,2689.64 371.118,2696.47 387,2700.5C 387.945,2700.91 388.612,2701.57 389,2702.5C 390.024,2738.12 393.69,2773.45 400,2808.5C 416.681,2884.85 460.847,2938.68 532.5,2970C 611.532,3003.08 692.198,3007.74 774.5,2984C 853.593,2957.91 905.426,2905.07 930,2825.5C 932.697,2815.99 934.53,2806.32 935.5,2796.5C 969.972,2794.53 994.805,2778.2 1010,2747.5C 1019.39,2716.73 1013.72,2689.06 993,2664.5C 978.232,2647.45 960.232,2635.12 939,2627.5C 938.051,2612.76 938.384,2598.1 940,2583.5C 958.35,2573.82 974.35,2561.15 988,2545.5C 1009.15,2515.05 1008.48,2485.05 986,2455.5C 973.069,2440.9 958.069,2428.9 941,2419.5C 940.333,2401.17 940.333,2382.83 941,2364.5C 964.909,2355.25 983.243,2339.58 996,2317.5C 1010.76,2276.46 999.931,2243.96 963.5,2220C 956.904,2216.08 949.904,2213.25 942.5,2211.5C 942.333,2196.16 942.5,2180.83 943,2165.5C 960.402,2159.47 975.735,2150.14 989,2137.5C 1009.78,2111.65 1010.78,2084.98 992,2057.5C 979.142,2040.47 963.642,2026.47 945.5,2015.5C 944.5,1994.18 944.167,1972.84 944.5,1951.5C 970.287,1951.53 991.454,1941.87 1008,1922.5C 1024.29,1894.47 1024.62,1866.14 1009,1837.5C 994.755,1813.43 973.922,1798.43 946.5,1792.5C 946.031,1755.13 946.531,1717.79 948,1680.5C 968.867,1673.08 986.867,1661.41 1002,1645.5C 1012.32,1628.53 1014.32,1610.53 1008,1591.5C 1002.38,1576.93 996.214,1562.6 989.5,1548.5C 999.064,1531.04 1008.9,1513.71 1019,1496.5C 1019.33,1469.83 1019.67,1443.17 1020,1416.5C 1026.59,1391.38 1033.59,1366.38 1041,1341.5C 1059.31,1282.93 1077.31,1224.26 1095,1165.5C 1122.53,1073.31 1138.7,979.308 1143.5,883.5C 1143.5,1912.5 1143.5,2941.5 1143.5,3970.5C 763.5,3970.5 383.5,3970.5 3.5,3970.5C 3.5,2841.17 3.5,1711.83 3.5,582.5 Z"/></g>
<g><path style="opacity:0.982" fill="#010101" d="M 1143.5,745.5 C 1143.5,791.5 1143.5,837.5 1143.5,883.5C 1138.7,979.308 1122.53,1073.31 1095,1165.5C 1077.31,1224.26 1059.31,1282.93 1041,1341.5C 1033.59,1366.38 1026.59,1391.38 1020,1416.5C 1019.67,1443.17 1019.33,1469.83 1019,1496.5C 1008.9,1513.71 999.064,1531.04 989.5,1548.5C 996.214,1562.6 1002.38,1576.93 1008,1591.5C 1014.32,1610.53 1012.32,1628.53 1002,1645.5C 986.867,1661.41 968.867,1673.08 948,1680.5C 946.531,1717.79 946.031,1755.13 946.5,1792.5C 973.922,1798.43 994.755,1813.43 1009,1837.5C 1024.62,1866.14 1024.29,1894.47 1008,1922.5C 991.454,1941.87 970.287,1951.53 944.5,1951.5C 944.167,1972.84 944.5,1994.18 945.5,2015.5C 963.642,2026.47 979.142,2040.47 992,2057.5C 1010.78,2084.98 1009.78,2111.65 989,2137.5C 975.735,2150.14 960.402,2159.47 943,2165.5C 942.5,2180.83 942.333,2196.16 942.5,2211.5C 949.904,2213.25 956.904,2216.08 963.5,2220C 999.931,2243.96 1010.76,2276.46 996,2317.5C 983.243,2339.58 964.909,2355.25 941,2364.5C 940.333,2382.83 940.333,2401.17 941,2419.5C 958.069,2428.9 973.069,2440.9 986,2455.5C 1008.48,2485.05 1009.15,2515.05 988,2545.5C 974.35,2561.15 958.35,2573.82 940,2583.5C 938.384,2598.1 938.051,2612.76 939,2627.5C 960.232,2635.12 978.232,2647.45 993,2664.5C 1013.72,2689.06 1019.39,2716.73 1010,2747.5C 994.805,2778.2 969.972,2794.53 935.5,2796.5C 934.53,2806.32 932.697,2815.99 930,2825.5C 905.426,2905.07 853.593,2957.91 774.5,2984C 692.198,3007.74 611.532,3003.08 532.5,2970C 460.847,2938.68 416.681,2884.85 400,2808.5C 393.69,2773.45 390.024,2738.12 389,2702.5C 388.612,2701.57 387.945,2700.91 387,2700.5C 371.118,2696.47 356.618,2689.64 343.5,2680C 311.624,2653.33 302.791,2620.49 317,2581.5C 331.998,2555.05 354.832,2541.05 385.5,2539.5C 386.667,2516.17 386.667,2492.83 385.5,2469.5C 375.735,2466.74 366.401,2462.91 357.5,2458C 325.9,2438.57 312.734,2410.4 318,2373.5C 328.234,2338.78 351.4,2318.78 387.5,2313.5C 388.229,2298.51 388.562,2283.51 388.5,2268.5C 370.916,2262.88 354.916,2254.38 340.5,2243C 315.785,2222.64 308.952,2197.47 320,2167.5C 335.229,2139.62 358.229,2121.29 389,2112.5C 389.239,2098.81 389.739,2085.14 390.5,2071.5C 386.43,2070.64 382.43,2069.48 378.5,2068C 344.911,2055.42 324.744,2031.59 318,1996.5C 316.724,1947.74 339.224,1915.41 385.5,1899.5C 386.666,1889.52 386.832,1879.52 386,1869.5C 365.746,1859.25 347.746,1845.92 332,1829.5C 310.623,1803.72 306.623,1775.39 320,1744.5C 334.94,1716.89 356.44,1696.06 384.5,1682C 376.844,1642.24 369.344,1602.4 362,1562.5C 339.667,1538.83 317.333,1515.17 295,1491.5C 252.334,1412.84 215.667,1331.5 185,1247.5C 135.24,1106.89 89.9065,964.887 49,821.5C 27.1871,742.943 12.0205,663.276 3.5,582.5C 3.5,549.167 3.5,515.833 3.5,482.5C 4.89749,471.575 6.73083,460.575 9,449.5C 19.7013,396.216 46.8679,353.716 90.5,322C 133.479,294.448 180.479,277.782 231.5,272C 329.276,259.759 425.943,265.759 521.5,290C 605.85,311.561 689.183,336.561 771.5,365C 827.957,384.231 883.291,406.231 937.5,431C 965.812,444.145 992.478,459.812 1017.5,478C 1066.67,515.18 1101.17,563.014 1121,621.5C 1133.16,662.121 1140.66,703.454 1143.5,745.5 Z"/></g>
<g><path style="opacity:1" fill="#fdfdfd" d="M 290.5,295.5 C 358.624,293.164 425.957,299.33 492.5,314C 612.359,343.62 730.026,380.286 845.5,424C 890.863,441.183 934.53,461.849 976.5,486C 1046.45,530.15 1089.12,593.15 1104.5,675C 1112.61,719.119 1115.95,763.619 1114.5,808.5C 1116.26,924.168 1101.1,1037.5 1069,1148.5C 1039.96,1239.36 1012.79,1330.69 987.5,1422.5C 760.506,1425.22 533.506,1427.22 306.5,1428.5C 302.833,1428.17 299.167,1427.83 295.5,1427.5C 260.982,1359.47 231.149,1289.47 206,1217.5C 165.984,1100.79 127.984,983.453 92,865.5C 76.1112,809.278 62.1112,752.612 50,695.5C 38.9298,640.202 32.7631,584.368 31.5,528C 29.8534,489.045 36.3534,451.545 51,415.5C 67.6096,378.891 93.7763,351.391 129.5,333C 157.426,319.136 186.759,309.469 217.5,304C 241.847,299.968 266.18,297.134 290.5,295.5 Z"/></g>
<g><path style="opacity:1" fill="#020202" d="M 910.5,877.5 C 915.241,877.915 919.907,878.749 924.5,880C 929.489,880.499 934.489,880.666 939.5,880.5C 935.416,939.67 927.583,998.337 916,1056.5C 908.971,1088.92 897.971,1119.92 883,1149.5C 859.687,1188.81 828.854,1220.98 790.5,1246C 773.235,1257.22 755.735,1268.05 738,1278.5C 737.228,1278.36 736.561,1278.02 736,1277.5C 731.5,1269.83 727,1262.17 722.5,1254.5C 754.419,1236.38 784.419,1215.55 812.5,1192C 846.117,1160.96 868.617,1123.12 880,1078.5C 891.258,1035.1 899.258,991.104 904,946.5C 906.824,923.557 908.991,900.557 910.5,877.5 Z"/></g>
<g><path style="opacity:1" fill="#020202" d="M 341.5,878.5 C 343.5,878.5 345.5,878.5 347.5,878.5C 351.545,926.07 357.378,973.403 365,1020.5C 370.734,1053.77 379.734,1086.11 392,1117.5C 404.039,1144.75 420.872,1168.59 442.5,1189C 454.211,1199.05 466.211,1208.71 478.5,1218C 497.366,1230.36 516.366,1242.53 535.5,1254.5C 531.048,1263.1 525.881,1271.1 520,1278.5C 486.512,1259.51 455.012,1237.68 425.5,1213C 396.144,1185.97 374.311,1153.8 360,1116.5C 345.15,1072.24 334.816,1026.9 329,980.5C 324.731,947.576 321.231,914.576 318.5,881.5C 326.344,880.82 334.011,879.82 341.5,878.5 Z"/></g>
<g><path style="opacity:1" fill="#b7b7b8" d="M 828.5,1456.5 C 882.167,1456.5 935.833,1456.5 989.5,1456.5C 989.667,1467.17 989.5,1477.84 989,1488.5C 977.879,1508.58 966.379,1528.41 954.5,1548C 965.367,1566.23 974.2,1585.4 981,1605.5C 984.128,1617.73 980.628,1627.57 970.5,1635C 954.045,1645.76 936.378,1653.93 917.5,1659.5C 916.659,1713.16 916.326,1766.83 916.5,1820.5C 952.289,1817.8 976.456,1833.13 989,1866.5C 994.997,1900.19 980.831,1918.69 946.5,1922C 935.8,1922.76 925.133,1922.6 914.5,1921.5C 914.333,1958.17 914.5,1994.83 915,2031.5C 931.754,2041.25 947.087,2052.91 961,2066.5C 965.161,2071.49 968.827,2076.82 972,2082.5C 978.366,2099.41 974.199,2113.24 959.5,2124C 945.043,2133.21 929.376,2139.38 912.5,2142.5C 912.5,2174.17 912.5,2205.83 912.5,2237.5C 936.289,2236.64 954.789,2245.98 968,2265.5C 978.223,2291.17 971.723,2311.67 948.5,2327C 937.018,2334.22 924.685,2339.38 911.5,2342.5C 911.041,2374.17 910.874,2405.83 911,2437.5C 930.456,2446.06 947.456,2458.06 962,2473.5C 976.503,2491.04 977.17,2509.04 964,2527.5C 949.007,2543.92 931.174,2556.25 910.5,2564.5C 908.803,2593.16 908.47,2621.82 909.5,2650.5C 938.375,2655.17 960.875,2669.5 977,2693.5C 991.457,2720.84 985.957,2743.01 960.5,2760C 943.74,2766.09 926.407,2769.25 908.5,2769.5C 905.302,2828.72 881.635,2877.89 837.5,2917C 802.649,2943.75 763.316,2960.08 719.5,2966C 646.085,2976.54 577.418,2963.21 513.5,2926C 469.326,2897.79 441.493,2857.95 430,2806.5C 422.618,2763.15 418.451,2719.49 417.5,2675.5C 396.869,2674.46 378.202,2667.96 361.5,2656C 340.816,2638.64 335.316,2617.47 345,2592.5C 353.287,2580.24 364.787,2572.74 379.5,2570C 391.514,2569.36 403.514,2569.52 415.5,2570.5C 415.717,2528.5 416.051,2486.5 416.5,2444.5C 396.327,2443.8 378.327,2437.3 362.5,2425C 344.1,2406.03 341.6,2385.19 355,2362.5C 366.466,2350.18 380.633,2343.35 397.5,2342C 404.158,2341.5 410.825,2341.33 417.5,2341.5C 417.833,2310.16 417.5,2278.83 416.5,2247.5C 395.881,2241.52 376.881,2232.36 359.5,2220C 342.953,2206.56 340.12,2190.73 351,2172.5C 368.254,2150.12 391.087,2138.79 419.5,2138.5C 419.5,2108.17 419.5,2077.83 419.5,2047.5C 399.847,2045.67 382.18,2038.84 366.5,2027C 347.887,2009.95 342.721,1989.45 351,1965.5C 359.438,1947.73 372.938,1935.56 391.5,1929C 399.612,1926.21 407.946,1924.38 416.5,1923.5C 416.667,1899.16 416.5,1874.83 416,1850.5C 392.963,1841.16 372.629,1827.82 355,1810.5C 340.323,1792 338.656,1772.34 350,1751.5C 362.086,1732.41 378.252,1717.91 398.5,1708C 405.091,1706.66 411.757,1705.82 418.5,1705.5C 409.141,1653.15 399.641,1600.82 390,1548.5C 366.667,1523.83 343.333,1499.17 320,1474.5C 317.5,1469.5 315,1464.5 312.5,1459.5C 484.664,1458.18 656.664,1457.18 828.5,1456.5 Z"/></g>
</svg>
