<?xml version="1.0" encoding="UTF-8"?>
<!DOCTYPE svg PUBLIC "-//W3C//DTD SVG 1.1//EN" "http://www.w3.org/Graphics/SVG/1.1/DTD/svg11.dtd">
<svg xmlns="http://www.w3.org/2000/svg" version="1.1" width="1290px" height="3975px" style="shape-rendering:geometricPrecision; text-rendering:geometricPrecision; image-rendering:optimizeQuality; fill-rule:evenodd; clip-rule:evenodd" xmlns:xlink="http://www.w3.org/1999/xlink">
<g><path style="opacity:0.771" fill="#fdfdfd" d="M -0.5,-0.5 C 429.5,-0.5 859.5,-0.5 1289.5,-0.5C 1289.5,1324.5 1289.5,2649.5 1289.5,3974.5C 859.5,3974.5 429.5,3974.5 -0.5,3974.5C -0.5,2649.5 -0.5,1324.5 -0.5,-0.5 Z M 1285.5,3309.5 C 1275.1,3236.9 1257.6,3165.9 1233,3096.5C 1200.26,3006.02 1163.93,2917.02 1124,2829.5C 1081.39,2737.94 1039.05,2646.28 997,2554.5C 966.191,2371.17 937.524,2187.5 911,2003.5C 901.403,1943.51 888.736,1884.18 873,1825.5C 856.822,1767.12 840.489,1708.79 824,1650.5C 804.768,1583.24 790.768,1514.91 782,1445.5C 776.385,1394.66 773.552,1343.66 773.5,1292.5C 773.949,1249.15 775.115,1205.81 777,1162.5C 783.436,1057.03 789.269,951.532 794.5,846C 794.737,804.132 789.571,762.965 779,722.5C 755.444,640.805 703.944,615.305 624.5,646C 605.306,655.089 587.639,666.422 571.5,680C 521.018,725.818 480.851,779.318 451,840.5C 425.331,893.512 401.998,947.512 381,1002.5C 353.287,1076.64 326.953,1151.3 302,1226.5C 274.009,1322.12 254.342,1419.46 243,1518.5C 229.027,1637.79 220.027,1757.46 216,1877.5C 214.255,1925.16 212.922,1972.82 212,2020.5C 210.225,2192.16 208.891,2363.83 208,2535.5C 174,2681.5 140,2827.5 106,2973.5C 73.7775,3111.95 44.1108,3250.95 17,3390.5C 10.3454,3427.73 5.84544,3465.06 3.5,3502.5C 3.5,2336.17 3.5,1169.83 3.5,3.5C 430.833,3.5 858.167,3.5 1285.5,3.5C 1285.5,1105.5 1285.5,2207.5 1285.5,3309.5 Z M 1285.5,3430.5 C 1285.5,3610.5 1285.5,3790.5 1285.5,3970.5C 858.167,3970.5 430.833,3970.5 3.5,3970.5C 3.5,3824.83 3.5,3679.17 3.5,3533.5C 4.64377,3568.33 11.8104,3602 25,3634.5C 44.1739,3675.67 73.6739,3707.17 113.5,3729C 154.806,3749.91 198.473,3763.25 244.5,3769C 331.091,3781.01 418.091,3785.68 505.5,3783C 607.309,3780.97 708.642,3772.97 809.5,3759C 878.896,3749.32 946.896,3733.65 1013.5,3712C 1063.66,3695.08 1110.66,3672.08 1154.5,3643C 1228.55,3591.09 1272.22,3520.25 1285.5,3430.5 Z"/></g>
<g><path style="opacity:0.982" fill="#010101" d="M 1285.5,3309.5 C 1286.78,3329.66 1287.78,3349.83 1288.5,3370C 1287.93,3390.19 1286.93,3410.35 1285.5,3430.5C 1272.22,3520.25 1228.55,3591.09 1154.5,3643C 1110.66,3672.08 1063.66,3695.08 1013.5,3712C 946.896,3733.65 878.896,3749.32 809.5,3759C 708.642,3772.97 607.309,3780.97 505.5,3783C 418.091,3785.68 331.091,3781.01 244.5,3769C 198.473,3763.25 154.806,3749.91 113.5,3729C 73.6739,3707.17 44.1739,3675.67 25,3634.5C 11.8104,3602 4.64377,3568.33 3.5,3533.5C 3.5,3523.17 3.5,3512.83 3.5,3502.5C 5.84544,3465.06 10.3454,3427.73 17,3390.5C 44.1108,3250.95 73.7775,3111.95 106,2973.5C 140,2827.5 174,2681.5 208,2535.5C 208.891,2363.83 210.225,2192.16 212,2020.5C 212.922,1972.82 214.255,1925.16 216,1877.5C 220.027,1757.46 229.027,1637.79 243,1518.5C 254.342,1419.46 274.009,1322.12 302,1226.5C 326.953,1151.3 353.287,1076.64 381,1002.5C 401.998,947.512 425.331,893.512 451,840.5C 480.851,779.318 521.018,725.818 571.5,680C 587.639,666.422 605.306,655.089 624.5,646C 703.944,615.305 755.444,640.805 779,722.5C 789.571,762.965 794.737,804.132 794.5,846C 789.269,951.532 783.436,1057.03 777,1162.5C 775.115,1205.81 773.949,1249.15 773.5,1292.5C 773.552,1343.66 776.385,1394.66 782,1445.5C 790.768,1514.91 804.768,1583.24 824,1650.5C 840.489,1708.79 856.822,1767.12 873,1825.5C 888.736,1884.18 901.403,1943.51 911,2003.5C 937.524,2187.5 966.191,2371.17 997,2554.5C 1039.05,2646.28 1081.39,2737.94 1124,2829.5C 1163.93,2917.02 1200.26,3006.02 1233,3096.5C 1257.6,3165.9 1275.1,3236.9 1285.5,3309.5 Z"/></g>
<g><path style="opacity:1" fill="#fefefe" d="M 666.5,663.5 C 679.756,662.568 692.756,663.735 705.5,667C 719.667,674.5 730.5,685.333 738,699.5C 749.211,723.339 756.544,748.339 760,774.5C 764.07,803.369 765.403,832.369 764,861.5C 758.696,961.518 753.029,1061.52 747,1161.5C 740.932,1256.65 742.598,1351.65 752,1446.5C 761.524,1520.65 776.524,1593.65 797,1665.5C 812.407,1718.39 827.407,1771.39 842,1824.5C 858.524,1885.45 871.858,1947.12 882,2009.5C 905.935,2172.65 930.768,2335.65 956.5,2498.5C 717.167,2498.5 477.833,2498.5 238.5,2498.5C 237.8,2294.47 239.967,2090.47 245,1886.5C 249.055,1765.45 258.055,1644.79 272,1524.5C 283.055,1427.89 302.055,1332.89 329,1239.5C 364.006,1131.14 403.339,1024.47 447,919.5C 465.623,875.248 487.623,832.915 513,792.5C 536.115,757.038 563.948,725.538 596.5,698C 617.337,681.304 640.67,669.804 666.5,663.5 Z"/></g>
<g><path style="opacity:1" fill="#fefefe" d="M 238.5,2527.5 C 479.833,2527.5 721.167,2527.5 962.5,2527.5C 964.375,2542.38 967.208,2557.04 971,2571.5C 1035.91,2706.57 1097.91,2842.9 1157,2980.5C 1184.23,3045.51 1207.89,3111.84 1228,3179.5C 1244.17,3233.04 1254.17,3287.71 1258,3343.5C 1267.43,3477.51 1213.93,3577.01 1097.5,3642C 1056,3664.08 1012.67,3681.74 967.5,3695C 901.135,3713.15 833.801,3726.48 765.5,3735C 634.939,3750.72 503.939,3756.38 372.5,3752C 313.862,3749.5 255.862,3742.17 198.5,3730C 163.418,3721.79 131.418,3707.12 102.5,3686C 65.5506,3655.96 43.7173,3617.13 37,3569.5C 32.051,3526.76 32.7177,3484.1 39,3441.5C 50.4577,3372.88 63.4577,3304.54 78,3236.5C 128.125,3008 180.458,2780 235,2552.5C 237.142,2544.29 238.308,2535.96 238.5,2527.5 Z"/></g>
</svg>
