<?xml version="1.0" encoding="UTF-8"?>
<svg version="1.1" xmlns="http://www.w3.org/2000/svg" width="1148" height="3976">
<path d="M0 0 C378.84 0 757.68 0 1148 0 C1148 1312.08 1148 2624.16 1148 3976 C769.16 3976 390.32 3976 0 3976 C0 2663.92 0 1351.84 0 0 Z M4 4 C4 1313.44 4 2622.88 4 3972 C380.2 3972 756.4 3972 1144 3972 C1144 2948.34 1144 1924.68 1144 870 C1143.67 870 1143.34 870 1143 870 C1142.93006836 871.12865479 1142.86013672 872.25730957 1142.78808594 873.42016602 C1136.83031248 968.6627717 1119.8171052 1060.01026774 1073.50805664 1215.59448242 C1053.21034761 1280.93087718 1033.9796776 1346.35572898 1019.3046875 1413.2265625 C1019.12922394 1414.02356064 1018.95376038 1414.82055878 1018.77297974 1415.64170837 C1018.4124449 1417.30205526 1018.06038079 1418.96425976 1017.7159605 1420.6280241 C1017.1753852 1423.17398423 1016.60540556 1425.70623882 1016.01755047 1428.24121666 C1013.29128857 1440.38579615 1012.46215769 1451.81233939 1012.60717773 1464.2265625 C1012.61450625 1466.19219883 1012.61994123 1468.15784295 1012.62368202 1470.12348938 C1012.63555769 1474.37388976 1012.65999785 1478.62395994 1012.69441414 1482.87423706 C1012.75052707 1489.83221098 1012.77841904 1496.79014155 1012.80235291 1503.74829102 C1012.82967777 1511.342947 1012.85896806 1518.93757174 1012.89737415 1526.53218079 C1012.99566252 1546.22606759 1013.01411211 1565.91917828 1012.99658203 1585.61328125 C1012.9914496 1591.6123859 1012.9864884 1597.61149066 1012.98184204 1603.6105957 C1012.98124672 1604.36145065 1012.9806514 1605.1123056 1012.98003803 1605.88591373 C1012.96473863 1626.00267449 1012.9927123 1646.11938152 1013.02479688 1666.2361148 C1013.03102705 1670.165222 1013.03696299 1674.09432959 1013.04272461 1678.0234375 C1013.04387761 1678.8030268 1013.04503062 1679.58261611 1013.04621856 1680.38582933 C1013.0643767 1693.13620542 1013.05734915 1705.88645689 1013.04173584 1718.63683116 C1013.02588519 1732.04366167 1013.03729465 1745.45028495 1013.07234758 1758.85707951 C1013.09099538 1766.26031367 1013.09900915 1773.66314703 1013.07469368 1781.06637573 C1012.96563823 1816.48228655 1014.86034963 1850.91579457 1019.68732005 1886.00697517 C1025.70505152 1930.25440329 1028.82908376 1975.36396688 1030 2020 C1030.02084656 2020.78008423 1030.04169312 2021.56016846 1030.06317139 2022.3638916 C1030.23960459 2028.99236079 1030.4039664 2035.62108016 1030.5625 2042.25 C1030.5961264 2043.63387909 1030.5961264 2043.63387909 1030.63043213 2045.04571533 C1031.11872292 2065.49785031 1031.0835233 2085.92262434 1030.625 2106.375 C1030.60354919 2107.33744629 1030.58209839 2108.29989258 1030.55999756 2109.29150391 C1028.72063295 2189.49371834 1020.1850312 2269.51677846 988.73577881 2406.2729187 C988.34550259 2407.73591827 987.95686974 2409.19935788 987.57037354 2410.6633606 C985.50946996 2418.44223409 983.30377052 2426.14926276 980.77445984 2433.79067993 C974.60715076 2452.54856006 970.1030506 2471.23376235 966.49670386 2490.63517213 C965.76812801 2494.53143842 965.01751534 2498.42346961 964.26972961 2502.31608582 C962.8620742 2509.66074586 961.47328747 2517.00883242 960.09180623 2524.35845536 C958.53446141 2532.63827802 956.95480447 2540.91379463 955.37368143 2549.18910372 C952.13091325 2566.16604885 948.91091484 2583.14721297 945.72538185 2600.1349926 C945.24090545 2602.71639836 944.75529407 2605.29759136 944.26856041 2607.87857246 C943.57585761 2611.55248815 942.88682254 2615.22707382 942.19873047 2618.90185547 C941.99635112 2619.97158505 941.79397177 2621.04131464 941.58545971 2622.14346027 C939.71986274 2632.15208941 938.47143625 2642.18817072 937.4375 2652.3125 C937.33705383 2653.26910522 937.23660767 2654.22571045 937.13311768 2655.21130371 C933.46928704 2690.21586469 931.13034969 2725.3128761 929.5390625 2760.46875 C929.5078084 2761.15339608 929.4765543 2761.83804216 929.4443531 2762.5434351 C927.67427686 2801.34795448 926.64333691 2840.17511644 925.57552338 2879.00401306 C925.15111756 2894.43516667 924.72329352 2909.86621526 924.28125 2925.296875 C924.24330818 2926.62178703 924.24330818 2926.62178703 924.20459986 2927.97346497 C923.48377282 2953.06077982 922.63138216 2978.13949098 921.5556469 3003.21421909 C921.46338419 3005.36484326 921.37193023 3007.5155008 921.28050232 3009.66616058 C912.42301291 3216.84701661 912.42301291 3216.84701661 862 3294 C861.31808594 3294.85464844 860.63617187 3295.70929687 859.93359375 3296.58984375 C853.62303164 3304.13230196 845.15781492 3313.4264545 834.8828125 3314.765625 C814.2974732 3315.93935049 793.68558168 3306.670059 778 3294 C777.15824219 3293.35933594 776.31648437 3292.71867187 775.44921875 3292.05859375 C762.9408248 3282.292781 751.6008534 3270.61195849 742 3258 C741.47647949 3257.32582031 740.95295898 3256.65164062 740.41357422 3255.95703125 C723.74808598 3234.48179162 709.55514665 3211.52810193 696 3188 C695.39704102 3186.95924316 694.79408203 3185.91848633 694.17285156 3184.84619141 C673.84341693 3149.54972348 655.9555677 3112.61907049 639.50097656 3075.37353516 C637.61892548 3071.14351209 635.67867077 3066.942002 633.73193359 3062.74145508 C627.8318438 3050.00605075 622.25133782 3037.13736196 616.70007324 3024.24746704 C614.50531402 3019.15714525 612.2879839 3014.07695536 610.0625 3009 C595.25717918 2975.21065539 580.99763458 2941.19536261 566.76757812 2907.16064453 C561.39116015 2894.30471963 555.98509365 2881.46151172 550.5625 2868.625 C550.16918488 2867.69366241 549.77586975 2866.76232483 549.37063599 2865.80276489 C545.38908033 2856.3751347 541.40366272 2846.94916439 537.40733337 2837.52778625 C497.32191677 2743.01798229 461.07341274 2647.15153347 367 2314 C366.837845 2313.29590752 366.67569 2312.59181503 366.50862122 2311.86638641 C349.21517939 2236.7111026 333.9714501 2161.19184355 321.35022736 2085.10974121 C320.99856004 2082.99132578 320.64585283 2080.8730857 320.29290771 2078.75488281 C307.79533489 2003.70101573 297.81554625 1928.34158892 286 1812 C285.8906311 1810.82159546 285.78126221 1809.64319092 285.6685791 1808.42907715 C280.11027371 1748.20685662 276.08110856 1687.69229423 274.10743046 1627.24220371 C274.0316113 1624.95401496 273.95335313 1622.66590639 273.8733511 1620.37786007 C273.20147016 1600.96604452 272.92233543 1581.6083663 273.17152172 1562.18692935 C273.28637946 1553.05099949 273.31283117 1543.9145181 273.34670913 1534.77799225 C273.37995243 1525.9798743 273.43977033 1517.18384929 273.5793457 1508.38671875 C275.12968581 1459.77466575 275.12968581 1459.77466575 257.93710327 1415.19012451 C255.11782652 1410.54718987 253.06834848 1405.68152887 251.02734375 1400.66015625 C250.33930757 1399.04593409 249.64895019 1397.43269894 248.95605469 1395.82055664 C248.28292717 1394.23465486 247.61008207 1392.64863318 246.9375 1391.0625 C246.1854024 1389.29736751 245.43311839 1387.53231443 244.68066406 1385.76733398 C242.44459854 1380.51542253 240.22005362 1375.2586972 238 1370 C237.6609967 1369.19739746 237.32199341 1368.39479492 236.97271729 1367.56787109 C214.79663505 1315.03397697 194.11500575 1261.88757214 174.87060547 1208.21044922 C173.34865205 1203.96629947 171.81580436 1199.72619709 170.27890015 1195.48744202 C160.29075569 1167.92512844 150.87735406 1140.17230677 141.51159668 1112.39404297 C138.34710887 1103.01324756 135.14535239 1093.64571018 131.92956543 1084.28240967 C104.01315905 1002.91991408 77.18475513 921.0127728 9.75 608.5625 C9.63416565 607.51366135 9.63416565 607.51366135 9.51599121 606.44363403 C8.95477407 601.30054534 8.46091653 596.15299637 8 591 C7.91279694 590.03741272 7.82559387 589.07482544 7.73574829 588.08306885 C6.14828095 570.12459359 5.63521743 552.27387913 5.6875 534.25 C5.68932281 532.93815735 5.69114563 531.6263147 5.69302368 530.27471924 C5.73011466 511.03190727 6.02298465 492.04418501 9 473 C9.17160645 471.88802246 9.34321289 470.77604492 9.52001953 469.63037109 C18.45252519 414.04767502 43.62684383 362.68040565 89.76953125 328.984375 C109.22071981 315.12921863 130.55773392 304.12208351 153 296 C154.34553955 295.5057251 154.34553955 295.5057251 155.71826172 295.00146484 C187.91093806 283.30063289 221.77834818 277.33055006 255.75 273.75 C256.53761719 273.66682526 257.32523438 273.58365051 258.13671875 273.49795532 C260.43953416 273.25816912 262.74295224 273.02576007 265.046875 272.796875 C265.69823425 272.73044296 266.34959351 272.66401093 267.02069092 272.5955658 C280.78075248 271.27355366 294.53661894 270.83426293 308.3515625 270.796875 C309.96988962 270.78981103 311.58821643 270.78267834 313.20654297 270.77548218 C318.34603334 270.75596786 323.48547605 270.7507904 328.625 270.75 C329.50089531 270.74970543 330.37679062 270.74941086 331.27922821 270.74910736 C356.96562896 270.74771136 382.46990234 270.87861081 408 274 C409.73681006 274.20610819 411.47362678 274.41216026 413.21044922 274.61816406 C507.57309043 285.96384505 598.90641129 312.98051877 914 424 C915.54300781 424.68473389 915.54300781 424.68473389 917.1171875 425.38330078 C940.98327891 436.01068532 964.68600179 447.37501024 987 461 C987.95390625 461.57363281 988.9078125 462.14726562 989.890625 462.73828125 C1008.82914264 474.44414415 1026.48055247 488.00120244 1042.8671875 503.0546875 C1044.93526661 504.94095745 1047.05275837 506.75243391 1049.1875 508.5625 C1052.45977742 511.41676194 1055.29468715 514.47371203 1058.09765625 517.78515625 C1060.27142875 520.31601663 1062.54007861 522.74491289 1064.8125 525.1875 C1087.85478079 550.61704412 1105.50288885 581.74813453 1117 614 C1117.35900391 614.99370605 1117.71800781 615.98741211 1118.08789062 617.01123047 C1133.68989601 660.60780513 1139.99404414 705.98243153 1143 752 C1143.33 752 1143.66 752 1144 752 C1144 505.16 1144 258.32 1144 4 C767.8 4 391.6 4 4 4 Z " fill="#FDFDFD" transform="translate(0,0)"/>
<path d="M0 0 C225.39 0 450.78 0 683 0 C683.25 193.0625 683.25 193.0625 683.29785156 253.90649414 C683.33109247 271.98571554 683.33109247 271.98571554 683.36956787 290.06492615 C683.38649669 298.08525236 683.39276545 306.10549719 683.39154053 314.12583923 C683.39016168 323.40145249 683.4028497 332.67692649 683.43203889 341.95249566 C683.44651125 346.68551355 683.45525158 351.41831628 683.44582415 356.15135205 C683.40871847 377.07354976 684.32650469 397.29516302 687.53986311 417.99199474 C688.15534058 422.01549189 688.66433245 426.04606669 689.16015625 430.0859375 C689.31242676 431.30555176 689.46469727 432.52516602 689.62158203 433.78173828 C691.64545855 450.27532337 693.26808782 466.78360369 694.68408203 483.33984375 C694.96480687 486.5922601 695.25779271 489.84314059 695.55859375 493.09375 C696.54733073 503.86489131 697.35159214 514.64468641 698.0625 525.4375 C698.14185791 526.62617676 698.22121582 527.81485352 698.30297852 529.03955078 C700.14767119 557.99210892 700.58984526 586.99879797 701 616 C701.01544861 617.04206604 701.03089722 618.08413208 701.04681396 619.15777588 C701.49087994 649.84827796 700.48574932 680.31301738 698.55140686 710.94503784 C698.1997525 716.53751264 697.89407217 722.12781343 697.6534729 727.72612 C697.13784864 739.53757642 695.97525568 751.25031736 694.6875 763 C694.52034988 764.54503204 694.52034988 764.54503204 694.349823 766.12127686 C692.57737576 782.47330766 690.55869353 798.7504032 688 815 C687.79029431 816.36335821 687.58117437 817.72680662 687.37255859 819.09033203 C681.8709215 854.97299546 675.03855954 890.49563777 666.09375 925.68408203 C665.20354041 929.18643159 664.33145897 932.69294019 663.46612549 936.20150757 C659.58582535 951.90865208 655.17232354 967.33924285 650.078125 982.6953125 C649.38480113 984.79667201 648.69208715 986.89823285 648 989 C647.65316162 990.04019287 647.30632324 991.08038574 646.94897461 992.15209961 C644.27741498 1000.43247943 642.56371187 1008.75210608 641.0625 1017.3125 C638.14472807 1033.64703519 634.73806329 1049.86810112 631.2742157 1066.0947876 C617.39964437 1130.03838362 617.39964437 1130.03838362 608.2286377 1194.76922607 C607.97253906 1197.26793114 607.7031054 1199.76501925 607.43261719 1202.26220703 C600.0176416 1271.17947806 598.28793647 1340.30511383 596.43603516 1409.53686523 C596.39480327 1411.07765171 596.35356957 1412.61843813 596.31233406 1414.15922451 C596.29200532 1414.91886401 596.27167659 1415.67850351 596.25073183 1416.46116239 C596.16922762 1419.50608585 596.0876611 1422.55100764 596.00605726 1425.59592843 C595.96557618 1427.10692128 595.9251305 1428.61791508 595.88472033 1430.12890983 C595.09900564 1459.49386846 594.11663117 1488.84827187 592.95092773 1518.20068359 C592.86580147 1520.34897919 592.78071025 1522.49727615 592.69570351 1524.64557648 C592.64140878 1526.01382928 592.586809 1527.38207001 592.53188133 1528.75029755 C592.21243496 1536.73214799 591.94167939 1544.71325124 591.73193359 1552.69873047 C591.69963606 1553.92119366 591.69963606 1553.92119366 591.66668606 1555.16835308 C591.56396996 1559.0995898 591.46635877 1563.0308653 591.37654114 1566.9624176 C591.21107081 1573.822872 590.92548651 1580.62677353 590.23124695 1587.45817566 C589.82338345 1591.94133691 589.72733984 1596.43569444 589.58203125 1600.93359375 C589.06694689 1614.68368143 587.91952333 1628.36069268 586.6875 1642.0625 C586.57639893 1643.31246765 586.46529785 1644.5624353 586.35083008 1645.85028076 C584.67478605 1664.63739061 582.80955507 1683.3440292 580 1702 C579.81469727 1703.25699707 579.62939453 1704.51399414 579.43847656 1705.80908203 C575.70128579 1730.92785428 571.4146409 1755.97688137 563 1780 C562.60409668 1781.17199951 562.60409668 1781.17199951 562.20019531 1782.36767578 C557.02561415 1797.6719478 550.77243689 1812.73484669 540 1825 C539.39027344 1825.72832031 538.78054688 1826.45664063 538.15234375 1827.20703125 C530.93212495 1835.71493238 530.93212495 1835.71493238 525.1875 1836.5625 C505.62511553 1835.82247559 487.22089843 1818.87811523 474.5144043 1805.39111328 C460.6715507 1790.28583814 448.78835547 1773.38872805 438 1756 C437.39454346 1755.03586182 437.39454346 1755.03586182 436.77685547 1754.05224609 C422.5676061 1731.41387282 410.09042084 1707.81930406 398 1684 C397.50536255 1683.02716064 397.50536255 1683.02716064 397.00073242 1682.03466797 C387.59584988 1663.5339302 378.50324272 1644.91780005 369.91802979 1626.01965332 C368.93975274 1623.86745683 367.95898267 1621.71640667 366.97802734 1619.56542969 C356.41578192 1596.38631901 346.23296525 1573.05978154 336.25572205 1549.62358093 C333.83965984 1543.95349475 331.40198299 1538.29322945 328.9453125 1532.640625 C328.61801651 1531.88750534 328.29072052 1531.13438568 327.95350647 1530.35844421 C327.29646623 1528.84681407 326.63940759 1527.33519193 325.98233032 1525.82357788 C318.76882189 1509.21989174 311.75014182 1492.53851883 304.7787323 1475.83195496 C304.40057877 1474.9257692 304.02242523 1474.01958344 303.6328125 1473.0859375 C303.06286308 1471.72007256 303.06286308 1471.72007256 302.48139954 1470.32661438 C298.20324982 1460.08085994 293.8846603 1449.85224915 289.5625 1439.625 C288.97293518 1438.22957977 288.97293518 1438.22957977 288.37145996 1436.80596924 C285.58193257 1430.20357387 282.79114942 1423.60170979 280 1417 C241.72837092 1326.47880252 204.94523937 1235.81672813 147.76254272 1059.54064941 C147.00049045 1057.00163407 146.23389456 1054.46403129 145.46606445 1051.92675781 C141.99596318 1040.44412892 138.67595878 1028.92492571 135.4375 1017.375 C134.97736436 1015.73954089 134.51707789 1014.10412421 134.05664062 1012.46875 C131.80547704 1004.46668035 129.57101627 996.46013844 127.3515625 988.44921875 C125.81221114 982.89398842 124.24513508 977.34857013 122.63037109 971.81469727 C120.17063029 963.37548084 117.9501315 954.93130979 116.0546875 946.34765625 C115.23375333 942.79928197 114.23737379 939.31683028 113.21875 935.8203125 C110.44526409 926.2128499 108.04206074 916.51467424 105.625 906.8125 C105.38189087 905.83957001 105.13878174 904.86664001 104.88830566 903.86422729 C101.77819895 891.40450604 98.77718896 878.93608931 96.0625 866.38354492 C94.37580555 858.59772939 92.52579347 850.86111862 90.625 843.125 C84.24627862 817.02103645 78.84381027 790.69338826 73.65722656 764.33007812 C72.8704539 760.34360741 72.06922328 756.3601585 71.26611328 752.37695312 C70.42629599 748.20125398 69.59744128 744.02339029 68.76757812 739.84570312 C68.21516267 737.07800329 67.65933088 734.31114151 67.09960938 731.54492188 C55.94535329 676.36703875 46.66778288 620.86352768 38.46813965 565.17523193 C38.02036581 562.13813439 37.56988923 559.1014535 37.11816406 556.06494141 C35.49230423 545.13343265 33.89437895 534.19823315 32.32495117 523.25848389 C32.00585071 521.04066378 31.68402922 518.82325584 31.36132812 516.60595703 C25.53823689 476.53962128 21.02704969 436.28355242 17 396 C16.87028809 394.7094873 16.74057617 393.41897461 16.60693359 392.08935547 C14.63477953 372.28340359 13.04111094 352.4499344 11.48266602 332.60791016 C10.65230313 322.05010702 9.79233363 311.49786273 8.82807922 300.95144653 C7.44752578 285.72361512 6.42204511 270.48746007 5.546875 255.22265625 C5.4823583 254.10099249 5.41784161 252.97932873 5.35136986 251.82367516 C3.99550278 228.08488179 2.93076207 204.33979025 2.06469727 180.57836914 C1.90333798 176.17642168 1.73012729 171.77524404 1.54418945 167.37426758 C-0.77873141 111.56298187 0 55.91832431 0 0 Z " fill="#FDFDFD" transform="translate(301,1449)"/>
<path d="M0 0 C378.84 0 757.68 0 1148 0 C1148 1312.08 1148 2624.16 1148 3976 C769.16 3976 390.32 3976 0 3976 C0 2663.92 0 1351.84 0 0 Z M4 4 C4 1313.44 4 2622.88 4 3972 C380.2 3972 756.4 3972 1144 3972 C1144 2948.34 1144 1924.68 1144 870 C1143.67 870 1143.34 870 1143 870 C1142.93006836 871.12865479 1142.86013672 872.25730957 1142.78808594 873.42016602 C1136.83031248 968.6627717 1119.8171052 1060.01026774 1073.50805664 1215.59448242 C1053.21034761 1280.93087718 1033.9796776 1346.35572898 1019.3046875 1413.2265625 C1019.12922394 1414.02356064 1018.95376038 1414.82055878 1018.77297974 1415.64170837 C1018.4124449 1417.30205526 1018.06038079 1418.96425976 1017.7159605 1420.6280241 C1017.1753852 1423.17398423 1016.60540556 1425.70623882 1016.01755047 1428.24121666 C1013.29128857 1440.38579615 1012.46215769 1451.81233939 1012.60717773 1464.2265625 C1012.61450625 1466.19219883 1012.61994123 1468.15784295 1012.62368202 1470.12348938 C1012.63555769 1474.37388976 1012.65999785 1478.62395994 1012.69441414 1482.87423706 C1012.75052707 1489.83221098 1012.77841904 1496.79014155 1012.80235291 1503.74829102 C1012.82967777 1511.342947 1012.85896806 1518.93757174 1012.89737415 1526.53218079 C1012.99566252 1546.22606759 1013.01411211 1565.91917828 1012.99658203 1585.61328125 C1012.9914496 1591.6123859 1012.9864884 1597.61149066 1012.98184204 1603.6105957 C1012.98124672 1604.36145065 1012.9806514 1605.1123056 1012.98003803 1605.88591373 C1012.96473863 1626.00267449 1012.9927123 1646.11938152 1013.02479688 1666.2361148 C1013.03102705 1670.165222 1013.03696299 1674.09432959 1013.04272461 1678.0234375 C1013.04387761 1678.8030268 1013.04503062 1679.58261611 1013.04621856 1680.38582933 C1013.0643767 1693.13620542 1013.05734915 1705.88645689 1013.04173584 1718.63683116 C1013.02588519 1732.04366167 1013.03729465 1745.45028495 1013.07234758 1758.85707951 C1013.09099538 1766.26031367 1013.09900915 1773.66314703 1013.07469368 1781.06637573 C1012.96563823 1816.48228655 1014.86034963 1850.91579457 1019.68732005 1886.00697517 C1025.70505152 1930.25440329 1028.82908376 1975.36396688 1030 2020 C1030.02084656 2020.78008423 1030.04169312 2021.56016846 1030.06317139 2022.3638916 C1030.23960459 2028.99236079 1030.4039664 2035.62108016 1030.5625 2042.25 C1030.5961264 2043.63387909 1030.5961264 2043.63387909 1030.63043213 2045.04571533 C1031.11872292 2065.49785031 1031.0835233 2085.92262434 1030.625 2106.375 C1030.60354919 2107.33744629 1030.58209839 2108.29989258 1030.55999756 2109.29150391 C1028.72063295 2189.49371834 1020.1850312 2269.51677846 988.73577881 2406.2729187 C988.34550259 2407.73591827 987.95686974 2409.19935788 987.57037354 2410.6633606 C985.50946996 2418.44223409 983.30377052 2426.14926276 980.77445984 2433.79067993 C974.60715076 2452.54856006 970.1030506 2471.23376235 966.49670386 2490.63517213 C965.76812801 2494.53143842 965.01751534 2498.42346961 964.26972961 2502.31608582 C962.8620742 2509.66074586 961.47328747 2517.00883242 960.09180623 2524.35845536 C958.53446141 2532.63827802 956.95480447 2540.91379463 955.37368143 2549.18910372 C952.13091325 2566.16604885 948.91091484 2583.14721297 945.72538185 2600.1349926 C945.24090545 2602.71639836 944.75529407 2605.29759136 944.26856041 2607.87857246 C943.57585761 2611.55248815 942.88682254 2615.22707382 942.19873047 2618.90185547 C941.99635112 2619.97158505 941.79397177 2621.04131464 941.58545971 2622.14346027 C939.71986274 2632.15208941 938.47143625 2642.18817072 937.4375 2652.3125 C937.33705383 2653.26910522 937.23660767 2654.22571045 937.13311768 2655.21130371 C933.46928704 2690.21586469 931.13034969 2725.3128761 929.5390625 2760.46875 C929.5078084 2761.15339608 929.4765543 2761.83804216 929.4443531 2762.5434351 C927.67427686 2801.34795448 926.64333691 2840.17511644 925.57552338 2879.00401306 C925.15111756 2894.43516667 924.72329352 2909.86621526 924.28125 2925.296875 C924.24330818 2926.62178703 924.24330818 2926.62178703 924.20459986 2927.97346497 C923.48377282 2953.06077982 922.63138216 2978.13949098 921.5556469 3003.21421909 C921.46338419 3005.36484326 921.37193023 3007.5155008 921.28050232 3009.66616058 C912.42301291 3216.84701661 912.42301291 3216.84701661 862 3294 C861.31808594 3294.85464844 860.63617187 3295.70929687 859.93359375 3296.58984375 C853.62303164 3304.13230196 845.15781492 3313.4264545 834.8828125 3314.765625 C814.2974732 3315.93935049 793.68558168 3306.670059 778 3294 C777.15824219 3293.35933594 776.31648437 3292.71867187 775.44921875 3292.05859375 C762.9408248 3282.292781 751.6008534 3270.61195849 742 3258 C741.47647949 3257.32582031 740.95295898 3256.65164062 740.41357422 3255.95703125 C723.74808598 3234.48179162 709.55514665 3211.52810193 696 3188 C695.39704102 3186.95924316 694.79408203 3185.91848633 694.17285156 3184.84619141 C673.84341693 3149.54972348 655.9555677 3112.61907049 639.50097656 3075.37353516 C637.61892548 3071.14351209 635.67867077 3066.942002 633.73193359 3062.74145508 C627.8318438 3050.00605075 622.25133782 3037.13736196 616.70007324 3024.24746704 C614.50531402 3019.15714525 612.2879839 3014.07695536 610.0625 3009 C595.25717918 2975.21065539 580.99763458 2941.19536261 566.76757812 2907.16064453 C561.39116015 2894.30471963 555.98509365 2881.46151172 550.5625 2868.625 C550.16918488 2867.69366241 549.77586975 2866.76232483 549.37063599 2865.80276489 C545.38908033 2856.3751347 541.40366272 2846.94916439 537.40733337 2837.52778625 C497.32191677 2743.01798229 461.07341274 2647.15153347 367 2314 C366.837845 2313.29590752 366.67569 2312.59181503 366.50862122 2311.86638641 C349.21517939 2236.7111026 333.9714501 2161.19184355 321.35022736 2085.10974121 C320.99856004 2082.99132578 320.64585283 2080.8730857 320.29290771 2078.75488281 C307.79533489 2003.70101573 297.81554625 1928.34158892 286 1812 C285.8906311 1810.82159546 285.78126221 1809.64319092 285.6685791 1808.42907715 C280.11027371 1748.20685662 276.08110856 1687.69229423 274.10743046 1627.24220371 C274.0316113 1624.95401496 273.95335313 1622.66590639 273.8733511 1620.37786007 C273.20147016 1600.96604452 272.92233543 1581.6083663 273.17152172 1562.18692935 C273.28637946 1553.05099949 273.31283117 1543.9145181 273.34670913 1534.77799225 C273.37995243 1525.9798743 273.43977033 1517.18384929 273.5793457 1508.38671875 C275.12968581 1459.77466575 275.12968581 1459.77466575 257.93710327 1415.19012451 C255.11782652 1410.54718987 253.06834848 1405.68152887 251.02734375 1400.66015625 C250.33930757 1399.04593409 249.64895019 1397.43269894 248.95605469 1395.82055664 C248.28292717 1394.23465486 247.61008207 1392.64863318 246.9375 1391.0625 C246.1854024 1389.29736751 245.43311839 1387.53231443 244.68066406 1385.76733398 C242.44459854 1380.51542253 240.22005362 1375.2586972 238 1370 C237.6609967 1369.19739746 237.32199341 1368.39479492 236.97271729 1367.56787109 C214.79663505 1315.03397697 194.11500575 1261.88757214 174.87060547 1208.21044922 C173.34865205 1203.96629947 171.81580436 1199.72619709 170.27890015 1195.48744202 C160.29075569 1167.92512844 150.87735406 1140.17230677 141.51159668 1112.39404297 C138.34710887 1103.01324756 135.14535239 1093.64571018 131.92956543 1084.28240967 C104.01315905 1002.91991408 77.18475513 921.0127728 9.75 608.5625 C9.63416565 607.51366135 9.63416565 607.51366135 9.51599121 606.44363403 C8.95477407 601.30054534 8.46091653 596.15299637 8 591 C7.91279694 590.03741272 7.82559387 589.07482544 7.73574829 588.08306885 C6.14828095 570.12459359 5.63521743 552.27387913 5.6875 534.25 C5.68932281 532.93815735 5.69114563 531.6263147 5.69302368 530.27471924 C5.73011466 511.03190727 6.02298465 492.04418501 9 473 C9.17160645 471.88802246 9.34321289 470.77604492 9.52001953 469.63037109 C18.45252519 414.04767502 43.62684383 362.68040565 89.76953125 328.984375 C109.22071981 315.12921863 130.55773392 304.12208351 153 296 C154.34553955 295.5057251 154.34553955 295.5057251 155.71826172 295.00146484 C187.91093806 283.30063289 221.77834818 277.33055006 255.75 273.75 C256.53761719 273.66682526 257.32523438 273.58365051 258.13671875 273.49795532 C260.43953416 273.25816912 262.74295224 273.02576007 265.046875 272.796875 C265.69823425 272.73044296 266.34959351 272.66401093 267.02069092 272.5955658 C280.78075248 271.27355366 294.53661894 270.83426293 308.3515625 270.796875 C309.96988962 270.78981103 311.58821643 270.78267834 313.20654297 270.77548218 C318.34603334 270.75596786 323.48547605 270.7507904 328.625 270.75 C329.50089531 270.74970543 330.37679062 270.74941086 331.27922821 270.74910736 C356.96562896 270.74771136 382.46990234 270.87861081 408 274 C409.73681006 274.20610819 411.47362678 274.41216026 413.21044922 274.61816406 C507.57309043 285.96384505 598.90641129 312.98051877 914 424 C915.54300781 424.68473389 915.54300781 424.68473389 917.1171875 425.38330078 C940.98327891 436.01068532 964.68600179 447.37501024 987 461 C987.95390625 461.57363281 988.9078125 462.14726562 989.890625 462.73828125 C1008.82914264 474.44414415 1026.48055247 488.00120244 1042.8671875 503.0546875 C1044.93526661 504.94095745 1047.05275837 506.75243391 1049.1875 508.5625 C1052.45977742 511.41676194 1055.29468715 514.47371203 1058.09765625 517.78515625 C1060.27142875 520.31601663 1062.54007861 522.74491289 1064.8125 525.1875 C1087.85478079 550.61704412 1105.50288885 581.74813453 1117 614 C1117.35900391 614.99370605 1117.71800781 615.98741211 1118.08789062 617.01123047 C1133.68989601 660.60780513 1139.99404414 705.98243153 1143 752 C1143.33 752 1143.66 752 1144 752 C1144 505.16 1144 258.32 1144 4 C767.8 4 391.6 4 4 4 Z M263.03875732 301.77215576 C261.00699594 301.99921816 258.97454239 302.21901982 256.94189453 302.43798828 C242.35352515 304.03093864 227.90695685 306.23122698 213.5 309 C212.26652832 309.2369458 211.03305664 309.4738916 209.76220703 309.71801758 C153.78712421 320.88650567 99.08483251 346.44666219 66.5625 395.15283203 C40.40077459 436.05904731 34.13748179 483.99115012 34.54481506 531.55717468 C34.5628471 533.85676539 34.57348007 536.15628865 34.58215332 538.45593262 C34.66594388 559.1050846 35.01349389 579.63161221 37.52929688 600.15283203 C37.9604404 603.67667006 38.35438611 607.20184563 38.73382568 610.73147583 C39.145094 614.55136197 39.57028427 618.36964911 40 622.1875 C40.07754517 622.87670532 40.15509033 623.56591064 40.23498535 624.27600098 C41.15265633 632.2982215 42.34678505 640.20852565 43.89360046 648.12861633 C44.72902334 652.43563771 45.42378746 656.73959802 46.01953125 661.0859375 C47.01297095 668.31262425 48.31937981 675.46088472 49.6875 682.625 C49.95150372 684.01422487 50.21541722 685.40346689 50.47924805 686.79272461 C51.03453836 689.71264118 51.59233841 692.6320666 52.15136719 695.55126953 C52.85117386 699.21057083 53.53928972 702.87195807 54.22419739 706.53407288 C58.4010283 728.82573787 63.28890424 750.90929674 68.52154541 772.97546387 C69.2031119 775.85944912 69.87320385 778.74606681 70.54296875 781.6328125 C72.46629937 789.88654268 74.5194329 798.05924414 76.9140625 806.19140625 C78.29772706 811.04418665 79.55340963 815.9261665 80.8125 820.8125 C83.19898709 830.04951063 85.72058342 839.24180328 88.31689453 848.421875 C90.80744791 857.24790219 93.19081599 866.10073715 95.51538086 874.97192383 C97.15580053 881.152835 99.01984739 887.21056178 101.07836914 893.26489258 C102.26960516 896.8001024 103.33254116 900.35543397 104.375 903.9375 C104.58286133 904.64729004 104.79072266 905.35708008 105.00488281 906.08837891 C106.14259048 909.98776659 107.25206379 913.89390618 108.3359375 917.80859375 C111.26354115 928.33559672 114.51319767 938.70631995 118.01464844 949.05615234 C120.49572552 956.41944436 122.90827336 963.80065341 125.2578125 971.20703125 C125.55243881 972.13564972 125.84706512 973.06426819 126.15061951 974.02102661 C126.60719688 975.46033035 126.60719688 975.46033035 127.07299805 976.92871094 C141.94284722 1023.80219168 157.40120627 1070.51759332 173.7532196 1116.89570618 C174.03575089 1117.69711533 174.31828217 1118.49852448 174.609375 1119.32421875 C174.88783768 1120.11390549 175.16630035 1120.90359222 175.45320129 1121.71720886 C178.52285734 1130.44649978 181.47487942 1139.21529152 184.43817139 1147.98110962 C192.60431484 1172.11696086 201.20477855 1196.08677897 210 1220 C210.31648499 1220.86093262 210.63296997 1221.72186523 210.95904541 1222.60888672 C229.23462146 1272.27758266 248.86459097 1321.40918092 269.6875 1370.0625 C269.95817291 1370.69494629 270.22884583 1371.32739258 270.50772095 1371.97900391 C277.24364832 1387.69366599 284.14716827 1403.33638461 291 1419 C521.01 1419 751.02 1419 988 1419 C990.37072774 1410.43070254 990.37072774 1410.43070254 992.359375 1401.8203125 C992.69702881 1400.20116943 992.69702881 1400.20116943 993.04150391 1398.54931641 C993.27530762 1397.41929199 993.50911133 1396.28926758 993.75 1395.125 C995.90048106 1384.92287692 998.18315691 1374.76142665 1000.625 1364.625 C1000.90182617 1363.46887207 1001.17865234 1362.31274414 1001.46386719 1361.12158203 C1003.16885893 1354.10690299 1005.07140311 1347.17011613 1007.08056641 1340.23681641 C1008.29132176 1335.97441746 1009.34336896 1331.68344227 1010.375 1327.375 C1012.2489135 1319.71639701 1014.38776175 1312.1741632 1016.70092773 1304.63769531 C1018.57684482 1298.49876411 1020.28398601 1292.32718562 1021.9375 1286.125 C1024.18563392 1277.72945152 1026.70920412 1269.45495486 1029.39208984 1261.18896484 C1031.42054941 1254.9111454 1033.2861292 1248.60344726 1035.0625 1242.25 C1036.87681254 1235.76971239 1038.82378276 1229.36792041 1041 1223 C1043.05314788 1216.97975282 1044.91646516 1210.93929981 1046.625 1204.8125 C1049.53842952 1194.37800527 1052.73440598 1184.03573159 1055.9375 1173.6875 C1059.89804845 1160.88545829 1063.78756721 1148.07034938 1067.4921875 1135.19140625 C1068.46546758 1131.81366208 1069.46865513 1128.44789899 1070.5078125 1125.08984375 C1074.54263467 1112.03190721 1077.88203542 1098.83590264 1081.12548828 1085.56103516 C1082.06171198 1081.74870718 1083.01376598 1077.94046973 1083.96875 1074.1328125 C1090.08525847 1049.6950448 1095.53830624 1025.30596626 1099.60095215 1000.43713379 C1100.02661908 997.83742735 1100.45689062 995.23850821 1100.88769531 992.63964844 C1106.26801263 960.4298146 1106.26801263 960.4298146 1110 928 C1110.11538116 926.68675751 1110.11538116 926.68675751 1110.23309326 925.34698486 C1110.79613907 918.88174025 1111.33352402 912.41467451 1111.85317993 905.94580078 C1112.02919005 903.7550311 1112.207259 901.56442546 1112.38778687 899.37402344 C1114.90759639 868.48988009 1115.18908647 837.54283059 1115.18530273 806.57250977 C1115.18522093 803.21991649 1115.19227939 799.86745832 1115.20581055 796.51489258 C1115.32250455 767.09262674 1113.7505667 738.21222098 1110 709 C1109.85836426 707.865625 1109.71672852 706.73125 1109.57080078 705.5625 C1105.61265758 674.21225639 1098.64794877 643.07427212 1086 614 C1085.41202069 612.58884966 1084.8248218 611.17737397 1084.23828125 609.765625 C1069.07294298 573.85864967 1043.99415554 540.88771253 1014 516 C1013.48872559 515.57493164 1012.97745117 515.14986328 1012.45068359 514.71191406 C1003.00712601 506.90080796 993.24162519 499.7280566 983 493 C982.05568115 492.37810791 982.05568115 492.37810791 981.09228516 491.74365234 C965.16162766 481.33364228 948.28414922 472.36156189 931.17333984 464.05566406 C929.63543426 463.30865173 928.09948819 462.55759897 926.56494141 461.80371094 C887.46581583 442.60919544 846.82421598 427.07322465 806 412 C804.8694519 411.58201141 804.8694519 411.58201141 803.71606445 411.15557861 C776.92585619 401.25636394 749.89776801 392.06941762 722.83215332 382.95489502 C719.38859526 381.79385744 715.9468769 380.62743777 712.50523376 379.46073914 C699.26682962 374.97650366 686.03291736 370.57526159 672.55541992 366.8527832 C668.46331863 365.72103206 664.47015933 364.5180021 660.5 363 C652.83196141 360.07482986 644.8614003 358.05703365 636.96777344 355.83837891 C631.78420186 354.37404978 626.61029461 352.87688381 621.4375 351.375 C620.47561768 351.09809326 619.51373535 350.82118652 618.52270508 350.53588867 C613.66801388 349.12527713 608.8605287 347.63233125 604.07421875 346.00390625 C597.90599215 343.92438118 591.66894518 342.21560849 585.375 340.5625 C583.07016102 339.94978828 580.76547374 339.33650563 578.4609375 338.72265625 C576.79562988 338.28010498 576.79562988 338.28010498 575.09667969 337.82861328 C571.05631454 336.74748751 567.02727202 335.62871023 563 334.5 C561.54824718 334.09740339 560.09642257 333.6950656 558.64453125 333.29296875 C556.23895764 332.62605136 553.83555247 331.95307313 551.43505859 331.26806641 C515.08005385 320.90594922 476.77271984 311.43211254 439.140625 307.359375 C436.22276852 307.02549093 433.38256766 306.55628499 430.5 306 C417.75033849 303.5965292 404.88731544 302.60679699 391.96069336 301.69726562 C390.88827393 301.62056641 389.81585449 301.54386719 388.7109375 301.46484375 C387.27693604 301.36610962 387.27693604 301.36610962 385.81396484 301.26538086 C383 301 383 301 380.34521484 300.50512695 C375.49885992 299.77332807 370.65989395 299.63298406 365.765625 299.453125 C364.11617889 299.39067596 364.11617889 299.39067596 362.43341064 299.32696533 C350.20688822 298.89415082 337.98352181 298.75746636 325.75 298.75 C324.58322723 298.74899292 323.41645447 298.74798584 322.21432495 298.74694824 C302.366969 298.75842861 282.76268357 299.56719648 263.03875732 301.77215576 Z M301 1449 C300.61616336 1533.85396864 300.61616336 1533.85396864 302.6148262 1618.60803986 C302.8063626 1623.23720465 302.9810484 1627.86697179 303.15707874 1632.49674797 C304.20208337 1659.88487493 305.43338965 1687.26500927 307.0625 1714.625 C307.13827271 1715.89905701 307.21404541 1717.17311401 307.29211426 1718.48577881 C308.25297791 1734.26113277 309.60172508 1749.98335412 311.11654949 1765.71291924 C311.9536413 1774.40866771 312.68503406 1783.10743918 313.33612061 1791.81881714 C316.50847195 1834.04180921 321.05152169 1876.1466313 326.0625 1918.1875 C326.23925766 1919.68141266 326.23925766 1919.68141266 326.41958618 1921.20550537 C328.2128962 1936.31582309 330.29625056 1951.37512707 332.48403931 1966.43301392 C333.15762515 1971.08970841 333.81722022 1975.74833389 334.47669983 1980.40704346 C343.99810295 2047.58503473 355.04093662 2114.42262232 368.22225952 2180.98248291 C369.46039514 2187.24253479 370.68122502 2193.50552384 371.87890625 2199.7734375 C379.50196507 2239.63061389 387.93222783 2279.40498697 397.93139648 2318.73876953 C399.46992968 2324.80641518 400.89610556 2330.8887522 402.25 2337 C404.67283691 2347.87798006 407.36483547 2358.68767784 410.0625 2369.5 C410.27628296 2370.36012695 410.49006592 2371.22025391 410.71032715 2372.10644531 C413.03228709 2381.43882679 415.44463929 2390.72178013 418.13110352 2399.95654297 C419.34708266 2404.21571577 420.40036988 2408.50701575 421.4375 2412.8125 C423.12339292 2419.67370721 424.9556747 2426.46356973 426.98852539 2433.22949219 C428.86479575 2439.48516612 430.62582974 2445.77021194 432.375 2452.0625 C435.51943688 2463.35068473 438.76567018 2474.6069626 442.07397461 2485.84814453 C442.73659485 2488.10346414 443.39588614 2490.35976286 444.05297852 2492.61669922 C473.84406516 2594.77184119 509.01435965 2695.43595414 564.71191406 2827.20849609 C569.81478626 2839.18137777 574.85766735 2851.17854155 579.875 2863.1875 C588.00767629 2882.65056161 596.20079029 2902.08759301 604.41639709 2921.51577759 C607.19181437 2928.08140028 609.9572304 2934.65117789 612.71875 2941.22265625 C623.61060227 2967.12752602 634.72114768 2992.93139612 645.98431396 3018.67694092 C646.89142237 3020.75166318 647.79708164 3022.82700577 648.70166016 3024.90283203 C656.60032958 3043.02607917 664.73492636 3061.0412193 673 3079 C673.47116241 3080.02383789 673.47116241 3080.02383789 673.95184326 3081.06835938 C688.72714471 3113.13622876 703.81048087 3145.29179204 721.69775391 3175.75830078 C723.304283 3178.52379574 724.8400386 3181.32464532 726.37524414 3184.13012695 C739.27749319 3207.60089258 754.55393294 3229.69705551 772 3250 C772.49387207 3250.5765332 772.98774414 3251.15306641 773.49658203 3251.74707031 C786.51309918 3266.80936132 804.960688 3283.68303922 825.75 3285.8125 C831.68022414 3285.3904585 835.22718785 3281.21166356 839 3277 C851.10656126 3262.98077021 858.17879588 3246.39330797 864 3229 C864.26941406 3228.20271484 864.53882813 3227.40542969 864.81640625 3226.58398438 C865.62051563 3224.18525229 866.40818405 3221.78189404 867.1875 3219.375 C867.41332764 3218.68486816 867.63915527 3217.99473633 867.87182617 3217.28369141 C872.08094834 3203.89228273 874.69195473 3190.0739989 877 3176.25 C877.12695251 3175.49655304 877.25390503 3174.74310608 877.38470459 3173.96682739 C882.11708648 3145.82701668 885.26711589 3117.67183905 887.79754639 3089.26080322 C888.07927452 3086.11473995 888.37046009 3082.96955694 888.66015625 3079.82421875 C889.63500468 3068.98149926 890.29865343 3058.15633445 890.65893555 3047.27490234 C890.80631821 3042.93829058 891.01398026 3038.64364858 891.47265625 3034.328125 C892.24603782 3025.9933518 892.42240243 3017.63259754 892.68359375 3009.26953125 C892.74363035 3007.42230867 892.80394477 3005.5750951 892.86451721 3003.72789001 C893.02580126 2998.78433734 893.1831029 2993.84066557 893.33953857 2988.8969574 C893.50482644 2983.69262943 893.67355273 2978.48841276 893.84179688 2973.28417969 C894.14227424 2963.97215913 894.43943293 2954.6600364 894.73480797 2945.34785271 C894.91704539 2939.60409004 895.10040732 2933.86036592 895.28564453 2928.11669922 C895.52603424 2920.66120412 895.76378295 2913.20562839 896 2905.75 C896.03844025 2904.54317566 896.07688049 2903.33635132 896.1164856 2902.09295654 C896.64693201 2885.36998584 897.1203054 2868.64611744 897.56226921 2851.92058563 C899.45772988 2780.3721373 901.91354932 2709.15288107 910 2638 C910.14217957 2636.72307281 910.14217957 2636.72307281 910.28723145 2635.42034912 C915.1011334 2592.25644647 924.78721067 2549.20915774 933.9173584 2506.77954102 C934.13809021 2505.75364868 934.13809021 2505.75364868 934.36328125 2504.70703125 C934.50527954 2504.04727295 934.64727783 2503.38751465 934.7935791 2502.70776367 C936.19083039 2496.17796179 937.44835975 2489.62380125 938.6875 2483.0625 C939.27322286 2479.99820977 939.86075274 2476.93427617 940.44970703 2473.87060547 C940.8082091 2472.000478 941.16351393 2470.12973389 941.51513672 2468.25830078 C944.74192812 2451.29995857 949.80696116 2434.98646092 954.96720886 2418.5403595 C975.94455784 2351.49304682 988.03656509 2281.68826352 995.46679688 2211.93505859 C995.8113624 2208.71198133 996.17172111 2205.49140206 996.54882812 2202.27197266 C997.69119983 2192.47781905 998.49242012 2182.72548121 999 2172.875 C999.08035393 2171.36473477 999.16092707 2169.8544812 999.24169922 2168.34423828 C999.36798808 2165.97328759 999.49336309 2163.60230389 999.61618042 2161.23117065 C999.86390247 2156.46229448 1000.13484631 2151.69552045 1000.42628479 2146.92912292 C1002.63719463 2110.6000726 1002.25221803 2074.31242322 1001.5625 2037.9375 C1001.54303314 2036.90337982 1001.52356628 2035.86925964 1001.50350952 2034.80380249 C1001.07643385 2012.87334626 1000.19978552 1990.99923705 998.5625 1969.125 C998.42680987 1967.28451936 998.29131482 1965.44402433 998.15600586 1963.60351562 C997.89113178 1960.00798839 997.6239503 1956.41264227 997.35546875 1952.81738281 C997.05554783 1948.78285452 996.77349816 1944.74735321 996.5 1940.7109375 C995.4475722 1925.51490676 993.71421491 1910.42383803 991.87451172 1895.30787659 C991.10500807 1888.94976102 990.37951676 1882.58706049 989.6640625 1876.22265625 C989.55159683 1875.22333069 989.43913116 1874.22400513 989.32325745 1873.19439697 C988.87526917 1869.20929998 988.42798498 1865.22412919 987.98397827 1861.23858643 C987.67476188 1858.46483631 987.36296913 1855.69138575 987.05078125 1852.91796875 C986.95926788 1852.08926773 986.86775452 1851.26056671 986.77346802 1850.40675354 C986.64257278 1849.24864418 986.64257278 1849.24864418 986.5090332 1848.06713867 C986.43449417 1847.39913742 986.35995514 1846.73113617 986.28315735 1846.04289246 C986.02533936 1843.96078979 986.02533936 1843.96078979 985.49096924 1841.79144508 C984.92569864 1838.57755366 984.86867015 1835.55821562 984.8613348 1832.29398632 C984.85849206 1831.62951022 984.85564932 1830.96503412 984.85272044 1830.28042238 C984.84438934 1828.05120874 984.84310557 1825.82204721 984.84178162 1823.59281921 C984.8372239 1821.98372779 984.83223231 1820.37463756 984.82684326 1818.76554871 C984.81325803 1814.33207464 984.80585959 1809.89860818 984.79942851 1805.46511875 C984.79129698 1800.61519148 984.77742569 1795.76528005 984.76427555 1790.91536427 C984.73959961 1781.49661919 984.7200117 1772.07787035 984.70219031 1762.65911009 C984.68136194 1751.7667469 984.65422397 1740.87440548 984.6270752 1729.98205566 C984.55850467 1701.2172161 984.49853071 1672.45235655 984.4375 1643.6875 C984.293125 1579.440625 984.14875 1515.19375 984 1449 C758.61 1449 533.22 1449 301 1449 Z " fill="#010101" transform="translate(0,0)"/>
<path d="M0 0 C378.84 0 757.68 0 1148 0 C1148 1312.08 1148 2624.16 1148 3976 C769.16 3976 390.32 3976 0 3976 C0 2663.92 0 1351.84 0 0 Z M4 4 C4 1313.44 4 2622.88 4 3972 C380.2 3972 756.4 3972 1144 3972 C1144 2662.56 1144 1353.12 1144 4 C767.8 4 391.6 4 4 4 Z " fill="#FCFCFC" transform="translate(0,0)"/>
<path d="M0 0 C0.06469482 0.71913574 0.12938965 1.43827148 0.19604492 2.17919922 C3.07868022 33.85602076 6.94001313 65.40846142 11.125 96.9375 C11.24710846 97.86105286 11.36921692 98.78460571 11.49502563 99.73614502 C20.55069763 168.0231405 33.75036112 240.95814306 81 294 C81.66467285 294.75724365 81.66467285 294.75724365 82.34277344 295.52978516 C93.68986085 308.43927284 106.25032701 319.27500833 120.02539062 329.52636719 C121.80219421 330.85237936 123.56777615 332.19132908 125.328125 333.5390625 C145.09788004 348.59926856 166.76341554 361.15434444 188 374 C184.59041234 380.38221705 181.10493472 386.64314336 177.125 392.6875 C176.7228125 393.30560547 176.320625 393.92371094 175.90625 394.56054688 C174.9411121 396.04272293 173.9711214 397.52173743 173 399 C167.96438806 397.25729325 163.59499882 394.49927129 159.0625 391.75 C158.19004639 391.22277344 157.31759277 390.69554687 156.41870117 390.15234375 C135.51086545 377.45637595 115.22968459 364.13113251 96 349 C94.71222656 348.00419922 94.71222656 348.00419922 93.3984375 346.98828125 C75.76441633 333.18895992 59.21593484 317.09318215 46 299 C45.14193848 297.84894983 44.28386549 296.69790823 43.42578125 295.546875 C26.51114395 272.61363129 14.86779994 247.00281568 6 220 C5.77286316 219.31681702 5.54572632 218.63363403 5.31170654 217.92974854 C1.34516039 205.95420159 -1.86930973 193.93191914 -4.625 181.625 C-5.01703816 179.89612868 -5.40921085 178.16728785 -5.80151367 176.43847656 C-9.76867153 158.86807849 -13.06464931 141.33191585 -15.60668945 123.49511719 C-15.75968506 122.42165039 -15.91268066 121.34818359 -16.0703125 120.2421875 C-16.20195801 119.3022998 -16.33360352 118.36241211 -16.46923828 117.39404297 C-16.91213215 114.5618854 -17.42312447 111.76084376 -17.95898438 108.94555664 C-19.1341616 102.53685225 -19.87520179 96.10325446 -20.5859375 89.62890625 C-20.72786026 88.36411942 -20.86978302 87.09933258 -21.01600647 85.79621887 C-21.39543478 82.41409797 -21.77027332 79.03148412 -22.14405441 75.64873505 C-22.53109506 72.15242337 -22.92212504 68.65655789 -23.31274414 65.16064453 C-23.92924704 59.63907354 -24.54331911 54.11723756 -25.15576172 48.59521484 C-25.87893394 42.07955003 -26.61089295 35.56492114 -27.34765625 29.05078125 C-27.62625059 26.57920125 -27.90456517 24.10759001 -28.18267822 21.63595581 C-28.35131045 20.13973352 -28.5205317 18.64357748 -28.69036865 17.14749146 C-28.9193774 15.12721045 -29.14533303 13.10658404 -29.37109375 11.0859375 C-29.49411865 9.9932959 -29.61714355 8.9006543 -29.74389648 7.77490234 C-30 5 -30 5 -30 1 C-26.50014278 0.83024428 -23.00009554 0.66476277 -19.5 0.5 C-18.51773437 0.45230469 -17.53546875 0.40460937 -16.5234375 0.35546875 C-11.00800467 0.09808188 -5.52135535 -0.05258434 0 0 Z " fill="#020202" transform="translate(350,881)"/>
<path d="M0 0 C9.57 0.33 19.14 0.66 29 1 C28.39112717 11.95356064 27.45205945 22.79285712 26.1875 33.6875 C25.82516152 36.85528023 25.46530789 40.02334127 25.10546875 43.19140625 C25.01353241 43.99737244 24.92159607 44.80333862 24.82687378 45.63372803 C24.18299783 51.30353297 23.57581331 56.9764437 22.98828125 62.65234375 C21.21942686 79.67752648 19.18280436 96.58089154 16.40527344 113.47802734 C15.88294238 116.72843686 15.43709219 119.98714514 15 123.25 C12.32358289 142.07642123 8.3014273 160.68551216 4.24755859 179.25474548 C3.42676562 183.01537822 2.63080317 186.77974998 1.859375 190.55078125 C-7.71737409 235.72463477 -28.19956992 279.49660899 -59 314 C-59.46873535 314.53044922 -59.9374707 315.06089844 -60.42041016 315.60742188 C-71.58837861 328.2002039 -83.76028891 339.45056467 -97.17285156 349.61425781 C-99.05736265 351.04350487 -100.93108178 352.48618324 -102.8046875 353.9296875 C-118.52324185 365.9612946 -135.19236923 376.56801586 -152 387 C-152.90266602 387.56412598 -153.80533203 388.12825195 -154.73535156 388.70947266 C-157.48318824 390.42220471 -160.24001498 392.11942934 -163 393.8125 C-163.85513184 394.34681641 -164.71026367 394.88113281 -165.59130859 395.43164062 C-166.38617676 395.91439453 -167.18104492 396.39714844 -168 396.89453125 C-169.051875 397.54192261 -169.051875 397.54192261 -170.125 398.20239258 C-172 399 -172 399 -175 398 C-176.2109375 396.40527344 -176.2109375 396.40527344 -177.375 394.359375 C-177.80296875 393.61816406 -178.2309375 392.87695312 -178.671875 392.11328125 C-179.11015625 391.33339844 -179.5484375 390.55351563 -180 389.75 C-180.87497356 388.22394317 -181.74997292 386.69790114 -182.625 385.171875 C-183.03234375 384.44806641 -183.4396875 383.72425781 -183.859375 382.97851562 C-184.80846587 381.332233 -185.83297459 379.72971374 -186.875 378.140625 C-187.24625 377.43421875 -187.6175 376.7278125 -188 376 C-186.68810327 372.06430981 -185.16659401 371.62787764 -181.62109375 369.55078125 C-181.06623291 369.22130493 -180.51137207 368.89182861 -179.93969727 368.55236816 C-178.7386033 367.83937445 -177.53537561 367.12996574 -176.33029175 366.42373657 C-173.11263593 364.53468733 -169.91543425 362.61176402 -166.71875 360.6875 C-166.06748642 360.29577103 -165.41622284 359.90404205 -164.745224 359.5004425 C-120.12584463 332.5468013 -77.90509454 299.76273025 -53 253 C-52.36835937 251.85273437 -51.73671875 250.70546875 -51.0859375 249.5234375 C-40.43560273 229.65897773 -33.87278488 207.66812054 -28 186 C-27.80744629 185.31067383 -27.61489258 184.62134766 -27.41650391 183.91113281 C-23.31040415 169.18448506 -20.81191134 154.01577468 -18 139 C-17.74621582 137.66557861 -17.74621582 137.66557861 -17.48730469 136.30419922 C-15.71199133 126.96076108 -14.35214428 117.59291824 -13.17700195 108.15625 C-12.6100087 103.61033483 -12.01641581 99.07116087 -11.34594727 94.53930664 C-9.37669334 81.20309928 -7.78240045 67.84392279 -6.32006836 54.44311523 C-5.93751112 50.93760192 -5.55023839 47.43263475 -5.16210938 43.92773438 C-3.91882692 32.65574935 -2.69647963 21.38349021 -1.6493988 10.09129333 C-1.31619327 6.60980392 -0.85092367 3.4036947 0 0 Z " fill="#020202" transform="translate(912,881)"/>
</svg>
