<?xml version="1.0" encoding="UTF-8"?>
<svg version="1.1" xmlns="http://www.w3.org/2000/svg" width="1291" height="3975">
<path d="M0 0 C425.7 0 851.4 0 1290 0 C1290 1311.75 1290 2623.5 1290 3975 C864.3 3975 438.6 3975 0 3975 C0 2663.25 0 1351.5 0 0 Z M4 4 C4 1148.77 4 2293.54 4 3473 C4.33 3473 4.66 3473 5 3473 C5.07927734 3472.17129395 5.15855469 3471.34258789 5.24023438 3470.48876953 C10.0776288 3421.14601007 19.49875762 3372.58013964 29.1998291 3324.00872803 C29.95324744 3320.23632341 30.70294397 3316.46318531 31.45214844 3312.68994141 C50.08497593 3218.98129975 70.91655372 3125.6962972 164.08496094 2722.51855469 C164.9343248 2718.9264512 165.78360477 2715.3343279 166.6328125 2711.7421875 C166.84421371 2710.84802124 167.05561493 2709.95385498 167.27342224 2709.03259277 C170.73402934 2694.39200993 174.17241393 2679.74627905 177.60311317 2665.09866142 C179.2434471 2658.09666503 180.88577156 2651.09513511 182.52790356 2644.09356022 C184.10691276 2637.35976128 185.68249599 2630.62517278 187.25550079 2623.88996887 C188.23672287 2619.69245641 189.22130356 2615.4957366 190.20671463 2611.29920578 C190.65919928 2609.36915296 191.11032988 2607.43878203 191.55988693 2605.5080452 C193.92332324 2595.36066972 196.40881142 2585.25855157 199.13500977 2575.2019043 C199.49777339 2573.8588974 199.49777339 2573.8588974 199.86786556 2572.48875904 C209.06936501 2539.01583657 229.52774637 2517.21518045 253.56079102 2493.47558594 C254.3169017 2492.72597847 254.3169017 2492.72597847 255.08828735 2491.96122742 C256.46504593 2490.59662789 257.84460474 2489.2348552 259.22436523 2487.87329102 C261.34064168 2485.68255679 263.3315742 2483.47673052 265.31176758 2481.16845703 C269.11737353 2476.77985776 273.24626947 2472.80049183 277.453125 2468.80078125 C279.05865336 2467.24684838 280.66277837 2465.69146449 282.265625 2464.13476562 C284.75729003 2461.71697679 287.25492787 2459.30783919 289.77734375 2456.92211914 C292.23493829 2454.59272401 294.65826079 2452.23177259 297.078125 2449.86328125 C297.82813782 2449.16801834 298.57815063 2448.47275543 299.35089111 2447.75642395 C305.37962593 2441.76209456 306.62412493 2436.22787224 308 2428 C308.47217162 2425.59763028 308.96378714 2423.19960912 309.45471859 2420.80100727 C310.40539104 2416.13278937 311.31449761 2411.45637719 312.23046875 2406.78125 C312.62969212 2404.74913502 313.0289698 2402.71703072 313.42829895 2400.68493652 C314.25935439 2396.4526992 315.08859475 2392.22011079 315.91674805 2387.98730469 C316.97796666 2382.56493473 318.04556475 2377.14384173 319.11471081 2371.72303009 C319.93889174 2367.53896233 320.75881515 2363.35406863 321.57753944 2359.16893005 C321.96953589 2357.16875853 322.36306651 2355.16888704 322.75816917 2353.16932678 C323.30833535 2350.38261763 323.8525378 2347.59480695 324.39526367 2344.80664062 C324.55886383 2343.98477264 324.72246399 2343.16290466 324.89102173 2342.31613159 C325.63017159 2338.48678026 326.20179168 2334.9224889 326 2331 C324.81857422 2330.39865234 324.81857422 2330.39865234 323.61328125 2329.78515625 C295.65874693 2315.19586674 270.2156622 2293.26907844 260.00390625 2262.56640625 C254.91047616 2244.47184723 256.69453664 2227.08505319 265.1875 2210.375 C268.79869698 2203.97824296 273.09699582 2198.45255281 278 2193 C278.90298828 2191.97326172 278.90298828 2191.97326172 279.82421875 2190.92578125 C293.25787662 2176.5596352 311.81203051 2167.07679287 329 2158 C329 2149.42 329 2140.84 329 2132 C326.339375 2131.030625 323.67875 2130.06125 320.9375 2129.0625 C298.45559665 2120.45710406 279.86802728 2105.58062858 269.359375 2083.5625 C260.91160736 2064.53451851 260.05072931 2045.18088134 266.68359375 2025.2578125 C270.93130801 2014.74566504 276.93199447 2005.97308782 285 1998 C285.73605469 1997.24203125 286.47210938 1996.4840625 287.23046875 1995.703125 C299.28388562 1983.99293776 316.02153457 1976.56527584 332 1972 C332 1960.12 332 1948.24 332 1936 C329.215625 1935.030625 326.43125 1934.06125 323.5625 1933.0625 C309.73406651 1928.05577742 297.05988831 1921.81565088 286 1912 C285.2575 1911.41089844 284.515 1910.82179688 283.75 1910.21484375 C271.79156082 1900.43632838 262.21279241 1885.46600655 260 1870 C258.82870144 1851.56644883 263.26505366 1837.03148689 275.3125 1822.82421875 C289.79721422 1807.6026368 308.93112205 1798.88473484 328.33618164 1791.68920898 C330.00551892 1791.12203704 330.00551892 1791.12203704 331 1790 C331.09949401 1788.65007281 331.13080357 1787.2949935 331.1328125 1785.94140625 C331.13474609 1785.08828857 331.13667969 1784.2351709 331.13867188 1783.35620117 C331.13416016 1782.43427979 331.12964844 1781.5123584 331.125 1780.5625 C331.12306641 1779.62704346 331.12113281 1778.69158691 331.11914062 1777.7277832 C331.06485593 1768.79719719 330.60908781 1759.90790918 330 1751 C328.36804688 1750.65388672 328.36804688 1750.65388672 326.703125 1750.30078125 C317.71120449 1748.33155271 309.33041114 1746.02401216 301 1742 C300.06671875 1741.55914063 299.1334375 1741.11828125 298.171875 1740.6640625 C282.47602589 1732.72845164 269.93920196 1718.46965781 264.125 1701.875 C258.50666835 1684.11214506 260.96204981 1664.61727921 269.25 1648.25 C281.41346192 1626.97039782 301.07900139 1614.28128944 324.22167969 1607.41723633 C325.56585968 1607.01750359 325.56585968 1607.01750359 326.93719482 1606.60969543 C327.61792053 1606.40849594 328.29864624 1606.20729645 329 1606 C329.02558531 1599.25969259 329.04296455 1592.51939795 329.05493164 1585.77905273 C329.05992641 1583.49128756 329.06672451 1581.20352551 329.07543945 1578.91577148 C329.43664417 1561.41211279 329.43664417 1561.41211279 328 1544 C326.18493652 1542.18493652 323.26772101 1542.47907453 320.8125 1542.1875 C299.27381278 1539.17601182 280.53113526 1530.38882393 267 1513 C256.97234202 1499.46384704 253.40348366 1481.59613678 255.49609375 1465.0859375 C258.76085731 1444.61099501 269.1562826 1426.41421655 285.66113281 1413.72265625 C297.68669086 1405.02479451 311.10113404 1399.23256292 325.27441406 1395.0402832 C327.21126495 1394.44562478 329.11081446 1393.73211199 331 1393 C332.27312024 1389.18063929 332.38123144 1385.4485715 332.61328125 1381.4609375 C332.72512729 1379.68176935 332.83753746 1377.90263661 332.95043945 1376.12353516 C333.00898102 1375.18632629 333.06752258 1374.24911743 333.12783813 1373.2835083 C336.50569506 1320.08072653 342.48645738 1264.27016962 375 1220 C375.58007812 1219.20207031 376.16015625 1218.40414063 376.7578125 1217.58203125 C398.92235014 1188.18992699 427.7744966 1166.55236329 461 1151 C461.82435547 1150.61199219 462.64871094 1150.22398438 463.49804688 1149.82421875 C495.11855887 1135.10069875 528.54217786 1126.74845598 563 1122 C563.80888672 1121.88672363 564.61777344 1121.77344727 565.45117188 1121.65673828 C639.23628006 1111.66829228 723.96412457 1125.25245211 784.43164062 1170.80175781 C826.79535447 1203.16805724 854.45110922 1248.95322347 865.34375 1301.1328125 C865.70594912 1303.88312162 865.70594912 1303.88312162 867 1305 C868.4530762 1305.29559486 869.91664559 1305.53999518 871.3828125 1305.76171875 C894.93684794 1309.52870129 915.42799059 1317.68422583 930.3125 1337.4375 C941.19573011 1353.23573725 944.60450873 1370.58177958 941.25 1389.5 C937.84745109 1403.20537182 931.65723477 1414.92407729 923 1426 C922.44441406 1426.7115625 921.88882813 1427.423125 921.31640625 1428.15625 C916.55389508 1433.91237861 910.90539388 1438.45992002 905 1443 C903.82824219 1443.91265625 903.82824219 1443.91265625 902.6328125 1444.84375 C892.41400428 1452.41323757 880.74431616 1457.30227354 869 1462 C869 1474.87 869 1487.74 869 1501 C871.743125 1502.485 874.48625 1503.97 877.3125 1505.5 C884.61814798 1509.52498615 891.44898851 1513.81420708 898 1519 C898.92167969 1519.70769531 899.84335937 1520.41539063 900.79296875 1521.14453125 C916.33885739 1533.38825872 927.79572538 1549.09196043 931 1569 C932.35048363 1588.61522119 926.8456189 1605.54104451 914.08203125 1620.671875 C901.8415123 1634.35920951 887.41090313 1644.79454844 871 1653 C871 1669.5 871 1686 871 1703 C874.96 1704.65 878.92 1706.3 883 1708 C885.61897399 1709.38930335 888.11659786 1710.75971307 890.625 1712.3125 C891.25543213 1712.69784912 891.88586426 1713.08319824 892.53540039 1713.48022461 C898.04242565 1716.90920666 903.14204022 1720.69329807 908 1725 C908.70640625 1725.62390625 909.4128125 1726.2478125 910.140625 1726.890625 C922.80669385 1738.78319346 930.12596801 1755.51604136 931.1640625 1772.71875 C931.71046357 1791.59442349 924.05901567 1808.21881822 911.9921875 1822.3515625 C900.99496412 1833.88306394 887.05951111 1840.48214667 872 1845 C872.33 1858.53 872.66 1872.06 873 1886 C877.95 1887.98 882.9 1889.96 888 1892 C896.47848852 1895.76734323 903.96190963 1899.94724228 911 1906 C911.62390625 1906.49242187 912.2478125 1906.98484375 912.890625 1907.4921875 C922.90802384 1915.54966048 930.90546818 1928.70718364 932.7890625 1941.515625 C934.29449266 1959.2462469 929.21160034 1975.45539092 917.96801758 1989.29150391 C915.71450565 1991.93058285 913.37404181 1994.46814616 911 1997 C909.94039062 1998.17949219 909.94039062 1998.17949219 908.859375 1999.3828125 C903.2933265 2005.31001682 896.88280879 2010.10440318 890.35546875 2014.91015625 C889.6910376 2015.4100708 889.02660645 2015.90998535 888.34204102 2016.42504883 C886 2018 886 2018 882.84350586 2019.56518555 C879.32704675 2021.44123662 876.72883398 2023.08340347 874 2026 C872.46942795 2031.62334703 872.81484153 2036.91880458 873.1875 2042.6875 C873.24493301 2044.25673065 873.29699062 2045.82616699 873.34375 2047.39575195 C873.47139769 2051.23675296 873.66603733 2055.07051241 873.88568115 2058.90722656 C874.05060721 2061.92643886 874.16039514 2064.9470719 874.26953125 2067.96875 C874.44911425 2072.65130984 874.69586539 2077.32393038 875 2082 C876.26972656 2082.15855469 877.53945313 2082.31710938 878.84765625 2082.48046875 C901.57464203 2085.48796292 922.25185106 2092.28118149 937.12890625 2110.625 C947.58945081 2125.80747504 950.07245064 2144.61308496 946.875 2162.5 C941.8360374 2184.79218477 929.38192011 2204.28239276 910.125 2216.875 C899.42984729 2223.54342993 887.99687816 2227.39834543 876 2231 C875.82609692 2264.34390833 876.32487096 2297.66333266 877 2331 C884.50413744 2334.7886034 884.50413744 2334.7886034 892.11328125 2338.359375 C914.92650171 2348.8086737 914.92650171 2348.8086737 923.21484375 2357.2578125 C924.82282351 2359.23281375 924.82282351 2359.23281375 927 2359 C927.27070312 2359.5775 927.54140625 2360.155 927.8203125 2360.75 C929.00611863 2363.01166998 930.36935146 2364.94046003 931.875 2367 C939.78357536 2378.95978186 940.68878031 2392.04718822 938.33984375 2405.890625 C934.91113109 2419.84296223 929.00144441 2433.06444102 921.66918945 2445.38037109 C919.40141827 2449.31870731 919.40141827 2449.31870731 919.53125 2453.7265625 C921.05638662 2456.08727929 922.63594623 2458.07779337 924.5625 2460.125 C929.26054296 2465.24705406 933.62560654 2470.60117593 938 2476 C939.49900948 2477.83414331 940.99900516 2479.66748108 942.5 2481.5 C944.69225146 2484.1789992 946.88419468 2486.85824208 949.07421875 2489.5390625 C953.70323902 2495.20340893 958.34833328 2500.85424455 963 2506.5 C964.20836242 2507.96742397 965.41669628 2509.43487145 966.625 2510.90234375 C968.64399807 2513.35438755 970.66467469 2515.80501949 972.6875 2518.25390625 C976.93252163 2523.40959975 981.0457019 2528.6192656 985 2534 C985.81979568 2535.08893095 986.64016144 2536.17743282 987.4609375 2537.265625 C1016.42389903 2575.87600987 1033.47499583 2621.30212271 1050.53857422 2666.03076172 C1060.73130731 2692.72023888 1072.81713707 2718.45624423 1085.01831055 2744.27026367 C1091.20131212 2757.3631335 1097.19191928 2770.53981922 1103.15809631 2783.7325592 C1105.40200688 2788.6904189 1107.66336803 2793.6400774 1109.93359375 2798.5859375 C1118.3586101 2816.94346611 1126.65886138 2835.35144509 1134.82574463 2853.82530212 C1137.02754532 2858.80560727 1139.23591942 2863.78294088 1141.44856262 2868.75843811 C1152.20716843 2892.95507779 1162.74336254 2917.23573152 1173.0090332 2941.64562988 C1173.97748303 2943.94650346 1174.94830096 2946.24636239 1175.91992188 2948.54589844 C1213.95774851 3038.61065705 1249.38476787 3131.11853615 1285 3302 C1285.33 3302 1285.66 3302 1286 3302 C1286 2213.66 1286 1125.32 1286 4 C862.94 4 439.88 4 4 4 Z M1285 3440 C1284.86013672 3440.73710205 1284.72027344 3441.4742041 1284.57617188 3442.23364258 C1271.1151545 3512.28179048 1238.68020203 3579.61994633 1181.75390625 3624.8046875 C1178.92568004 3627.05924513 1176.18565223 3629.39876109 1173.4375 3631.75 C1153.62319177 3648.24490092 1131.51607619 3661.56374637 1109 3674 C1107.76008301 3674.68594238 1107.76008301 3674.68594238 1106.49511719 3675.38574219 C1034.86349674 3714.69681322 953.43749331 3735.85440608 571.5625 3784.1875 C570.77111633 3784.22442963 569.97973267 3784.26135925 569.16436768 3784.29940796 C564.3597518 3784.51942933 559.55453527 3784.71288945 554.7482605 3784.89285278 C552.86388144 3784.96631961 550.97970435 3785.0451037 549.09573364 3785.12838745 C521.86579942 3786.32892542 494.61430049 3786.18770052 467.36375934 3786.18511099 C462.68022038 3786.18541426 457.99675677 3786.19385219 453.31323242 3786.20581055 C361.49385553 3786.43652283 263.83479234 3784.29057992 163 3754 C161.80938965 3753.61811523 161.80938965 3753.61811523 160.59472656 3753.22851562 C142.41414907 3747.36899175 124.50395558 3739.63253681 108 3730 C107.03271973 3729.43611572 107.03271973 3729.43611572 106.04589844 3728.86083984 C93.01370095 3721.17429748 81.2956284 3712.23567715 70.171875 3701.984375 C68.26138237 3700.23881698 66.30995786 3698.58142549 64.3125 3696.9375 C50.97104507 3685.56520957 40.34316176 3669.2811173 32 3654 C31.66162109 3653.38366699 31.32324219 3652.76733398 30.97460938 3652.13232422 C16.46832468 3625.34562357 9.0844241 3596.01993312 5 3566 C4.67 3566 4.34 3566 4 3566 C4 3699.65 4 3833.3 4 3971 C427.06 3971 850.12 3971 1286 3971 C1286 3795.77 1286 3620.54 1286 3440 C1285.67 3440 1285.34 3440 1285 3440 Z " fill="#FDFDFD" transform="translate(0,0)"/>
<path d="M0 0 C425.7 0 851.4 0 1290 0 C1290 1311.75 1290 2623.5 1290 3975 C864.3 3975 438.6 3975 0 3975 C0 2663.25 0 1351.5 0 0 Z M4 4 C4 1148.77 4 2293.54 4 3473 C4.33 3473 4.66 3473 5 3473 C5.07927734 3472.17129395 5.15855469 3471.34258789 5.24023438 3470.48876953 C10.0776288 3421.14601007 19.49875762 3372.58013964 29.1998291 3324.00872803 C29.95324744 3320.23632341 30.70294397 3316.46318531 31.45214844 3312.68994141 C50.08497593 3218.98129975 70.91655372 3125.6962972 164.08496094 2722.51855469 C164.9343248 2718.9264512 165.78360477 2715.3343279 166.6328125 2711.7421875 C166.84421371 2710.84802124 167.05561493 2709.95385498 167.27342224 2709.03259277 C170.73402934 2694.39200993 174.17241393 2679.74627905 177.60311317 2665.09866142 C179.2434471 2658.09666503 180.88577156 2651.09513511 182.52790356 2644.09356022 C184.10691276 2637.35976128 185.68249599 2630.62517278 187.25550079 2623.88996887 C188.23672287 2619.69245641 189.22130356 2615.4957366 190.20671463 2611.29920578 C190.65919928 2609.36915296 191.11032988 2607.43878203 191.55988693 2605.5080452 C193.92332324 2595.36066972 196.40881142 2585.25855157 199.13500977 2575.2019043 C199.49777339 2573.8588974 199.49777339 2573.8588974 199.86786556 2572.48875904 C209.06936501 2539.01583657 229.52774637 2517.21518045 253.56079102 2493.47558594 C254.3169017 2492.72597847 254.3169017 2492.72597847 255.08828735 2491.96122742 C256.46504593 2490.59662789 257.84460474 2489.2348552 259.22436523 2487.87329102 C261.34064168 2485.68255679 263.3315742 2483.47673052 265.31176758 2481.16845703 C269.11737353 2476.77985776 273.24626947 2472.80049183 277.453125 2468.80078125 C279.05865336 2467.24684838 280.66277837 2465.69146449 282.265625 2464.13476562 C284.75729003 2461.71697679 287.25492787 2459.30783919 289.77734375 2456.92211914 C292.23493829 2454.59272401 294.65826079 2452.23177259 297.078125 2449.86328125 C297.82813782 2449.16801834 298.57815063 2448.47275543 299.35089111 2447.75642395 C305.37962593 2441.76209456 306.62412493 2436.22787224 308 2428 C308.47217162 2425.59763028 308.96378714 2423.19960912 309.45471859 2420.80100727 C310.40539104 2416.13278937 311.31449761 2411.45637719 312.23046875 2406.78125 C312.62969212 2404.74913502 313.0289698 2402.71703072 313.42829895 2400.68493652 C314.25935439 2396.4526992 315.08859475 2392.22011079 315.91674805 2387.98730469 C316.97796666 2382.56493473 318.04556475 2377.14384173 319.11471081 2371.72303009 C319.93889174 2367.53896233 320.75881515 2363.35406863 321.57753944 2359.16893005 C321.96953589 2357.16875853 322.36306651 2355.16888704 322.75816917 2353.16932678 C323.30833535 2350.38261763 323.8525378 2347.59480695 324.39526367 2344.80664062 C324.55886383 2343.98477264 324.72246399 2343.16290466 324.89102173 2342.31613159 C325.63017159 2338.48678026 326.20179168 2334.9224889 326 2331 C324.81857422 2330.39865234 324.81857422 2330.39865234 323.61328125 2329.78515625 C295.65874693 2315.19586674 270.2156622 2293.26907844 260.00390625 2262.56640625 C254.91047616 2244.47184723 256.69453664 2227.08505319 265.1875 2210.375 C268.79869698 2203.97824296 273.09699582 2198.45255281 278 2193 C278.90298828 2191.97326172 278.90298828 2191.97326172 279.82421875 2190.92578125 C293.25787662 2176.5596352 311.81203051 2167.07679287 329 2158 C329 2149.42 329 2140.84 329 2132 C326.339375 2131.030625 323.67875 2130.06125 320.9375 2129.0625 C298.45559665 2120.45710406 279.86802728 2105.58062858 269.359375 2083.5625 C260.91160736 2064.53451851 260.05072931 2045.18088134 266.68359375 2025.2578125 C270.93130801 2014.74566504 276.93199447 2005.97308782 285 1998 C285.73605469 1997.24203125 286.47210938 1996.4840625 287.23046875 1995.703125 C299.28388562 1983.99293776 316.02153457 1976.56527584 332 1972 C332 1960.12 332 1948.24 332 1936 C329.215625 1935.030625 326.43125 1934.06125 323.5625 1933.0625 C309.73406651 1928.05577742 297.05988831 1921.81565088 286 1912 C285.2575 1911.41089844 284.515 1910.82179688 283.75 1910.21484375 C271.79156082 1900.43632838 262.21279241 1885.46600655 260 1870 C258.82870144 1851.56644883 263.26505366 1837.03148689 275.3125 1822.82421875 C289.79721422 1807.6026368 308.93112205 1798.88473484 328.33618164 1791.68920898 C330.00551892 1791.12203704 330.00551892 1791.12203704 331 1790 C331.09949401 1788.65007281 331.13080357 1787.2949935 331.1328125 1785.94140625 C331.13474609 1785.08828857 331.13667969 1784.2351709 331.13867188 1783.35620117 C331.13416016 1782.43427979 331.12964844 1781.5123584 331.125 1780.5625 C331.12306641 1779.62704346 331.12113281 1778.69158691 331.11914062 1777.7277832 C331.06485593 1768.79719719 330.60908781 1759.90790918 330 1751 C328.36804688 1750.65388672 328.36804688 1750.65388672 326.703125 1750.30078125 C317.71120449 1748.33155271 309.33041114 1746.02401216 301 1742 C300.06671875 1741.55914063 299.1334375 1741.11828125 298.171875 1740.6640625 C282.47602589 1732.72845164 269.93920196 1718.46965781 264.125 1701.875 C258.50666835 1684.11214506 260.96204981 1664.61727921 269.25 1648.25 C281.41346192 1626.97039782 301.07900139 1614.28128944 324.22167969 1607.41723633 C325.56585968 1607.01750359 325.56585968 1607.01750359 326.93719482 1606.60969543 C327.61792053 1606.40849594 328.29864624 1606.20729645 329 1606 C329.02558531 1599.25969259 329.04296455 1592.51939795 329.05493164 1585.77905273 C329.05992641 1583.49128756 329.06672451 1581.20352551 329.07543945 1578.91577148 C329.43664417 1561.41211279 329.43664417 1561.41211279 328 1544 C326.18493652 1542.18493652 323.26772101 1542.47907453 320.8125 1542.1875 C299.27381278 1539.17601182 280.53113526 1530.38882393 267 1513 C256.97234202 1499.46384704 253.40348366 1481.59613678 255.49609375 1465.0859375 C258.76085731 1444.61099501 269.1562826 1426.41421655 285.66113281 1413.72265625 C297.68669086 1405.02479451 311.10113404 1399.23256292 325.27441406 1395.0402832 C327.21126495 1394.44562478 329.11081446 1393.73211199 331 1393 C332.27312024 1389.18063929 332.38123144 1385.4485715 332.61328125 1381.4609375 C332.72512729 1379.68176935 332.83753746 1377.90263661 332.95043945 1376.12353516 C333.00898102 1375.18632629 333.06752258 1374.24911743 333.12783813 1373.2835083 C336.50569506 1320.08072653 342.48645738 1264.27016962 375 1220 C375.58007812 1219.20207031 376.16015625 1218.40414063 376.7578125 1217.58203125 C398.92235014 1188.18992699 427.7744966 1166.55236329 461 1151 C461.82435547 1150.61199219 462.64871094 1150.22398438 463.49804688 1149.82421875 C495.11855887 1135.10069875 528.54217786 1126.74845598 563 1122 C563.80888672 1121.88672363 564.61777344 1121.77344727 565.45117188 1121.65673828 C639.23628006 1111.66829228 723.96412457 1125.25245211 784.43164062 1170.80175781 C826.79535447 1203.16805724 854.45110922 1248.95322347 865.34375 1301.1328125 C865.70594912 1303.88312162 865.70594912 1303.88312162 867 1305 C868.4530762 1305.29559486 869.91664559 1305.53999518 871.3828125 1305.76171875 C894.93684794 1309.52870129 915.42799059 1317.68422583 930.3125 1337.4375 C941.19573011 1353.23573725 944.60450873 1370.58177958 941.25 1389.5 C937.84745109 1403.20537182 931.65723477 1414.92407729 923 1426 C922.44441406 1426.7115625 921.88882813 1427.423125 921.31640625 1428.15625 C916.55389508 1433.91237861 910.90539388 1438.45992002 905 1443 C903.82824219 1443.91265625 903.82824219 1443.91265625 902.6328125 1444.84375 C892.41400428 1452.41323757 880.74431616 1457.30227354 869 1462 C869 1474.87 869 1487.74 869 1501 C871.743125 1502.485 874.48625 1503.97 877.3125 1505.5 C884.61814798 1509.52498615 891.44898851 1513.81420708 898 1519 C898.92167969 1519.70769531 899.84335937 1520.41539063 900.79296875 1521.14453125 C916.33885739 1533.38825872 927.79572538 1549.09196043 931 1569 C932.35048363 1588.61522119 926.8456189 1605.54104451 914.08203125 1620.671875 C901.8415123 1634.35920951 887.41090313 1644.79454844 871 1653 C871 1669.5 871 1686 871 1703 C874.96 1704.65 878.92 1706.3 883 1708 C885.61897399 1709.38930335 888.11659786 1710.75971307 890.625 1712.3125 C891.25543213 1712.69784912 891.88586426 1713.08319824 892.53540039 1713.48022461 C898.04242565 1716.90920666 903.14204022 1720.69329807 908 1725 C908.70640625 1725.62390625 909.4128125 1726.2478125 910.140625 1726.890625 C922.80669385 1738.78319346 930.12596801 1755.51604136 931.1640625 1772.71875 C931.71046357 1791.59442349 924.05901567 1808.21881822 911.9921875 1822.3515625 C900.99496412 1833.88306394 887.05951111 1840.48214667 872 1845 C872.33 1858.53 872.66 1872.06 873 1886 C877.95 1887.98 882.9 1889.96 888 1892 C896.47848852 1895.76734323 903.96190963 1899.94724228 911 1906 C911.62390625 1906.49242187 912.2478125 1906.98484375 912.890625 1907.4921875 C922.90802384 1915.54966048 930.90546818 1928.70718364 932.7890625 1941.515625 C934.29449266 1959.2462469 929.21160034 1975.45539092 917.96801758 1989.29150391 C915.71450565 1991.93058285 913.37404181 1994.46814616 911 1997 C909.94039062 1998.17949219 909.94039062 1998.17949219 908.859375 1999.3828125 C903.2933265 2005.31001682 896.88280879 2010.10440318 890.35546875 2014.91015625 C889.6910376 2015.4100708 889.02660645 2015.90998535 888.34204102 2016.42504883 C886 2018 886 2018 882.84350586 2019.56518555 C879.32704675 2021.44123662 876.72883398 2023.08340347 874 2026 C872.46942795 2031.62334703 872.81484153 2036.91880458 873.1875 2042.6875 C873.24493301 2044.25673065 873.29699062 2045.82616699 873.34375 2047.39575195 C873.47139769 2051.23675296 873.66603733 2055.07051241 873.88568115 2058.90722656 C874.05060721 2061.92643886 874.16039514 2064.9470719 874.26953125 2067.96875 C874.44911425 2072.65130984 874.69586539 2077.32393038 875 2082 C876.26972656 2082.15855469 877.53945313 2082.31710938 878.84765625 2082.48046875 C901.57464203 2085.48796292 922.25185106 2092.28118149 937.12890625 2110.625 C947.58945081 2125.80747504 950.07245064 2144.61308496 946.875 2162.5 C941.8360374 2184.79218477 929.38192011 2204.28239276 910.125 2216.875 C899.42984729 2223.54342993 887.99687816 2227.39834543 876 2231 C875.82609692 2264.34390833 876.32487096 2297.66333266 877 2331 C884.50413744 2334.7886034 884.50413744 2334.7886034 892.11328125 2338.359375 C914.92650171 2348.8086737 914.92650171 2348.8086737 923.21484375 2357.2578125 C924.82282351 2359.23281375 924.82282351 2359.23281375 927 2359 C927.27070312 2359.5775 927.54140625 2360.155 927.8203125 2360.75 C929.00611863 2363.01166998 930.36935146 2364.94046003 931.875 2367 C939.78357536 2378.95978186 940.68878031 2392.04718822 938.33984375 2405.890625 C934.91113109 2419.84296223 929.00144441 2433.06444102 921.66918945 2445.38037109 C919.40141827 2449.31870731 919.40141827 2449.31870731 919.53125 2453.7265625 C921.05638662 2456.08727929 922.63594623 2458.07779337 924.5625 2460.125 C929.26054296 2465.24705406 933.62560654 2470.60117593 938 2476 C939.49900948 2477.83414331 940.99900516 2479.66748108 942.5 2481.5 C944.69225146 2484.1789992 946.88419468 2486.85824208 949.07421875 2489.5390625 C953.70323902 2495.20340893 958.34833328 2500.85424455 963 2506.5 C964.20836242 2507.96742397 965.41669628 2509.43487145 966.625 2510.90234375 C968.64399807 2513.35438755 970.66467469 2515.80501949 972.6875 2518.25390625 C976.93252163 2523.40959975 981.0457019 2528.6192656 985 2534 C985.81979568 2535.08893095 986.64016144 2536.17743282 987.4609375 2537.265625 C1016.42389903 2575.87600987 1033.47499583 2621.30212271 1050.53857422 2666.03076172 C1060.73130731 2692.72023888 1072.81713707 2718.45624423 1085.01831055 2744.27026367 C1091.20131212 2757.3631335 1097.19191928 2770.53981922 1103.15809631 2783.7325592 C1105.40200688 2788.6904189 1107.66336803 2793.6400774 1109.93359375 2798.5859375 C1118.3586101 2816.94346611 1126.65886138 2835.35144509 1134.82574463 2853.82530212 C1137.02754532 2858.80560727 1139.23591942 2863.78294088 1141.44856262 2868.75843811 C1152.20716843 2892.95507779 1162.74336254 2917.23573152 1173.0090332 2941.64562988 C1173.97748303 2943.94650346 1174.94830096 2946.24636239 1175.91992188 2948.54589844 C1213.95774851 3038.61065705 1249.38476787 3131.11853615 1285 3302 C1285.33 3302 1285.66 3302 1286 3302 C1286 2213.66 1286 1125.32 1286 4 C862.94 4 439.88 4 4 4 Z M248 2541 C247.33167223 2541.66312163 246.66334447 2542.32624327 245.97476435 2543.0094595 C226.01715631 2563.14961674 222.61148731 2598.53444109 216.76586914 2624.79736328 C214.47388502 2635.0642389 212.00986481 2645.28442378 209.5 2655.5 C206.65497093 2667.08000402 203.90312405 2678.67286613 201.3125 2690.3125 C199.08931488 2700.29941987 196.7268309 2710.23395493 194.19848633 2720.14770508 C192.03311485 2728.70470551 190.1332964 2737.31184065 188.24975586 2745.93457031 C186.62458188 2753.32432264 184.86909568 2760.6683764 183 2768 C180.58932292 2777.46900812 178.41170943 2786.97456975 176.31811523 2796.51831055 C173.6242136 2808.7779566 170.75671293 2820.99543623 167.88671875 2833.21484375 C167.01308653 2836.94413725 166.1459795 2840.67488296 165.28125 2844.40625 C162.07671224 2858.22205738 158.78988262 2872.01353377 155.42364502 2885.79055786 C152.88788961 2896.1829757 150.49980349 2906.59957915 148.21630859 2917.05078125 C146.44291145 2925.12494007 144.528577 2933.15826724 142.5625 2941.1875 C139.87092916 2952.19144966 137.38453232 2963.22661329 134.99539185 2974.29891968 C133.10353722 2983.05980706 131.12806829 2991.79284878 129 3000.5 C126.74511678 3009.74344856 124.64437148 3019.01515059 122.625 3028.3125 C122.40869431 3029.30795334 122.40869431 3029.30795334 122.1880188 3030.32351685 C121.59238152 3033.06566404 120.9971163 3035.80789171 120.40229797 3038.55021667 C118.60081455 3046.85041889 116.77491467 3055.14518287 114.9375 3063.4375 C114.76735382 3064.20581146 114.59720764 3064.97412292 114.42190552 3065.76571655 C112.39396895 3074.90932996 110.29678573 3084.02920955 108.0625 3093.125 C105.08442051 3105.26473117 102.50615263 3117.48626431 99.91104126 3129.7121582 C97.61270523 3140.53873543 95.27835813 3151.34937843 92.75 3162.125 C90.66214018 3171.02379714 88.72828811 3179.94292 86.89355469 3188.8972168 C85.34464951 3196.42991078 83.68830629 3203.93492823 82 3211.4375 C79.83569665 3221.07180846 77.82715353 3230.72545387 75.92886353 3240.41540527 C74.50027071 3247.64718722 72.93474281 3254.8386938 71.3046875 3262.02734375 C67.6806567 3278.1885334 64.38749454 3294.41424691 61.11201096 3310.64896011 C60.61757944 3313.09927499 60.12246254 3315.54945062 59.62722778 3317.99960327 C45.19969127 3389.11702271 45.19969127 3389.11702271 35.22003174 3460.96380615 C35.00143921 3462.98668146 34.77311548 3465.00825061 34.54248047 3467.02978516 C32.4117835 3485.9096007 31.69525175 3504.68990034 31.625 3523.6875 C31.61714478 3524.72188202 31.60928955 3525.75626404 31.60119629 3526.82199097 C31.51066853 3542.09399345 32.72156133 3556.90123358 35 3572 C35.18804199 3573.2573999 35.37608398 3574.5147998 35.56982422 3575.81030273 C40.47823273 3606.0963804 51.6338187 3635.93102052 71 3660 C71.45310547 3660.56976562 71.90621094 3661.13953125 72.37304688 3661.7265625 C122.70757171 3724.42031909 207.35948308 3739.85103031 282.84954834 3748.74542236 C284.8202304 3748.97871828 286.79027738 3749.2173626 288.76025391 3749.45654297 C302.85609685 3751.16738938 316.97425275 3752.47324864 331.125 3753.625 C331.89305969 3753.68762024 332.66111938 3753.75024048 333.45245361 3753.8147583 C349.2906537 3755.09551083 365.13431005 3756.0987624 381.01953125 3756.546875 C381.74789499 3756.56756798 382.47625874 3756.58826096 383.22669411 3756.60958099 C407.40605182 3757.26830071 431.60032497 3757.22344105 455.78701007 3757.2388196 C462.27482086 3757.24302623 468.76248277 3757.25500139 475.25024414 3757.28125 C516.92941798 3757.4461178 558.38193011 3756.30935597 600 3754 C602.31508879 3753.8736516 604.63018773 3753.74748905 606.94529724 3753.621521 C609.1354175 3753.50162511 611.32552729 3753.38153769 613.515625 3753.26123047 C614.48518662 3753.20800188 615.45474825 3753.15477329 616.45369053 3753.09993172 C642.46525887 3751.65140487 668.37608912 3749.23681916 694.296875 3746.66162109 C701.05038456 3745.99196462 707.80623576 3745.3481974 714.5625 3744.70703125 C745.57164363 3741.75312767 776.42382346 3738.3794575 807.19140625 3733.44824219 C809.7305647 3733.04300097 812.27092986 3732.64759111 814.8125 3732.2578125 C848.89293805 3727.01382015 882.91236369 3720.97655671 916.37939453 3712.63476562 C919.54097632 3711.86896419 922.71586171 3711.18796773 925.89892578 3710.51831055 C936.88646889 3708.2035122 947.58975695 3705.00845904 958.34179688 3701.79003906 C961.7193435 3700.7862054 965.10767185 3699.8276401 968.5 3698.875 C1009.14712631 3687.30080198 1048.27429354 3672.0081574 1086 3653 C1086.90766113 3652.5467334 1087.81532227 3652.0934668 1088.75048828 3651.62646484 C1115.92265307 3638.00112388 1142.14709291 3620.93323055 1164.5234375 3600.265625 C1166.58592874 3598.37880336 1168.67788158 3596.54559182 1170.79296875 3594.71875 C1181.43843898 3585.42445471 1191.43391786 3575.24393375 1200 3564 C1200.95179777 3562.77732417 1201.90362256 3561.55466938 1202.85546875 3560.33203125 C1209.86293863 3551.24416623 1216.13908329 3541.8611085 1222 3532 C1222.37721191 3531.37722168 1222.75442383 3530.75444336 1223.14306641 3530.11279297 C1233.65953023 3512.6856403 1241.29755597 3493.80828584 1247.26367188 3474.38476562 C1247.92827964 3472.23228265 1248.62470538 3470.09313574 1249.328125 3467.953125 C1263.94268498 3421.58635461 1263.5182027 3370.05413522 1258.24353027 3322.22814941 C1257.99759856 3319.9780283 1257.76205952 3317.7270036 1257.52832031 3315.47558594 C1252.52923572 3267.91655609 1241.95250677 3220.57645687 1227.5546875 3174.98828125 C1226.29951526 3171.0110211 1225.15150098 3167.01500663 1224.04614258 3162.99389648 C1198.64276556 3070.96325562 1159.7159011 2981.93049015 1120.06060791 2892.39404297 C1119.02309927 2890.05214051 1117.98672194 2887.70974072 1116.95068359 2885.3671875 C1112.32119693 2874.9021845 1107.66932809 2864.44728477 1103 2854 C1102.47146423 2852.81724487 1102.47146423 2852.81724487 1101.93225098 2851.6105957 C1090.80007724 2826.70721456 1079.47930399 2801.89536032 1067.99804688 2777.15106201 C1067.05171428 2775.11145832 1066.10584181 2773.07164204 1065.16015625 2771.03173828 C1063.50342093 2767.4582797 1061.84560453 2763.88532349 1060.1875 2760.3125 C1059.41369995 2758.64453369 1059.41369995 2758.64453369 1058.62426758 2756.94287109 C1055.99517487 2751.28014585 1053.35500417 2745.62291564 1050.69921875 2739.97265625 C1039.72636654 2716.58709716 1029.91591934 2692.90650803 1020.625 2668.8125 C996.90826379 2599.73796098 996.90826379 2599.73796098 953.33163214 2542.97650051 C951 2541 951 2541 949.11931467 2538.93171024 C939.74506307 2530.00119782 927.03627731 2531.87072477 914.92968679 2531.97225957 C911.44164748 2531.9926387 907.95389605 2531.96644069 904.46589804 2531.9463129 C898.35846027 2531.9174698 892.25158857 2531.91826378 886.14412498 2531.93869019 C877.06216633 2531.96898207 867.98068419 2531.95346412 858.89872862 2531.92902373 C842.67745858 2531.8869151 826.45644071 2531.89054186 810.23514672 2531.91365503 C796.03964659 2531.93378232 781.84423888 2531.93903179 767.64872742 2531.92947388 C766.23610294 2531.92855726 766.23610294 2531.92855726 764.7949406 2531.92762212 C760.97203754 2531.92513139 757.14913453 2531.92258419 753.32623157 2531.91994401 C717.46702615 2531.89547392 681.6079813 2531.91765658 645.74880066 2531.96071918 C613.89250634 2531.99868389 582.03646786 2531.99528686 550.18017578 2531.95703125 C514.38642467 2531.91419087 478.59281542 2531.89720935 442.79904222 2531.92192936 C438.98311904 2531.92449509 435.16719582 2531.92699781 431.35127258 2531.92947388 C430.41170026 2531.9301065 429.47212794 2531.93073911 428.50408373 2531.9313909 C414.3177623 2531.94048934 400.13154344 2531.92985104 385.94523621 2531.90963745 C369.8141289 2531.88676734 353.68331313 2531.89247319 337.55224216 2531.9358834 C328.52494878 2531.95937555 319.49828675 2531.96090572 310.47100974 2531.93071401 C304.43996966 2531.9127683 298.40943545 2531.92394997 292.37847029 2531.95875216 C288.94271051 2531.97777186 285.50820423 2531.98431878 282.0724842 2531.9555043 C263.14569034 2531.16160644 263.14569034 2531.16160644 248 2541 Z M1285 3440 C1284.86013672 3440.73710205 1284.72027344 3441.4742041 1284.57617188 3442.23364258 C1271.1151545 3512.28179048 1238.68020203 3579.61994633 1181.75390625 3624.8046875 C1178.92568004 3627.05924513 1176.18565223 3629.39876109 1173.4375 3631.75 C1153.62319177 3648.24490092 1131.51607619 3661.56374637 1109 3674 C1107.76008301 3674.68594238 1107.76008301 3674.68594238 1106.49511719 3675.38574219 C1034.86349674 3714.69681322 953.43749331 3735.85440608 571.5625 3784.1875 C570.77111633 3784.22442963 569.97973267 3784.26135925 569.16436768 3784.29940796 C564.3597518 3784.51942933 559.55453527 3784.71288945 554.7482605 3784.89285278 C552.86388144 3784.96631961 550.97970435 3785.0451037 549.09573364 3785.12838745 C521.86579942 3786.32892542 494.61430049 3786.18770052 467.36375934 3786.18511099 C462.68022038 3786.18541426 457.99675677 3786.19385219 453.31323242 3786.20581055 C361.49385553 3786.43652283 263.83479234 3784.29057992 163 3754 C161.80938965 3753.61811523 161.80938965 3753.61811523 160.59472656 3753.22851562 C142.41414907 3747.36899175 124.50395558 3739.63253681 108 3730 C107.03271973 3729.43611572 107.03271973 3729.43611572 106.04589844 3728.86083984 C93.01370095 3721.17429748 81.2956284 3712.23567715 70.171875 3701.984375 C68.26138237 3700.23881698 66.30995786 3698.58142549 64.3125 3696.9375 C50.97104507 3685.56520957 40.34316176 3669.2811173 32 3654 C31.66162109 3653.38366699 31.32324219 3652.76733398 30.97460938 3652.13232422 C16.46832468 3625.34562357 9.0844241 3596.01993312 5 3566 C4.67 3566 4.34 3566 4 3566 C4 3699.65 4 3833.3 4 3971 C427.06 3971 850.12 3971 1286 3971 C1286 3795.77 1286 3620.54 1286 3440 C1285.67 3440 1285.34 3440 1285 3440 Z " fill="#B7B7B8" transform="translate(0,0)"/>
<path d="M0 0 C425.7 0 851.4 0 1290 0 C1290 1311.75 1290 2623.5 1290 3975 C864.3 3975 438.6 3975 0 3975 C0 2663.25 0 1351.5 0 0 Z M4 4 C4 1148.77 4 2293.54 4 3473 C4.33 3473 4.66 3473 5 3473 C5.07927734 3472.17129395 5.15855469 3471.34258789 5.24023438 3470.48876953 C10.0776288 3421.14601007 19.49875762 3372.58013964 29.1998291 3324.00872803 C29.95324744 3320.23632341 30.70294397 3316.46318531 31.45214844 3312.68994141 C50.08497593 3218.98129975 70.91655372 3125.6962972 164.08496094 2722.51855469 C164.9343248 2718.9264512 165.78360477 2715.3343279 166.6328125 2711.7421875 C166.84421371 2710.84802124 167.05561493 2709.95385498 167.27342224 2709.03259277 C170.73402934 2694.39200993 174.17241393 2679.74627905 177.60311317 2665.09866142 C179.2434471 2658.09666503 180.88577156 2651.09513511 182.52790356 2644.09356022 C184.10691276 2637.35976128 185.68249599 2630.62517278 187.25550079 2623.88996887 C188.23672287 2619.69245641 189.22130356 2615.4957366 190.20671463 2611.29920578 C190.65919928 2609.36915296 191.11032988 2607.43878203 191.55988693 2605.5080452 C193.92332324 2595.36066972 196.40881142 2585.25855157 199.13500977 2575.2019043 C199.49777339 2573.8588974 199.49777339 2573.8588974 199.86786556 2572.48875904 C209.06936501 2539.01583657 229.52774637 2517.21518045 253.56079102 2493.47558594 C254.3169017 2492.72597847 254.3169017 2492.72597847 255.08828735 2491.96122742 C256.46504593 2490.59662789 257.84460474 2489.2348552 259.22436523 2487.87329102 C261.34064168 2485.68255679 263.3315742 2483.47673052 265.31176758 2481.16845703 C269.11737353 2476.77985776 273.24626947 2472.80049183 277.453125 2468.80078125 C279.05865336 2467.24684838 280.66277837 2465.69146449 282.265625 2464.13476562 C284.75729003 2461.71697679 287.25492787 2459.30783919 289.77734375 2456.92211914 C292.23493829 2454.59272401 294.65826079 2452.23177259 297.078125 2449.86328125 C297.82813782 2449.16801834 298.57815063 2448.47275543 299.35089111 2447.75642395 C305.37962593 2441.76209456 306.62412493 2436.22787224 308 2428 C308.47217162 2425.59763028 308.96378714 2423.19960912 309.45471859 2420.80100727 C310.40539104 2416.13278937 311.31449761 2411.45637719 312.23046875 2406.78125 C312.62969212 2404.74913502 313.0289698 2402.71703072 313.42829895 2400.68493652 C314.25935439 2396.4526992 315.08859475 2392.22011079 315.91674805 2387.98730469 C316.97796666 2382.56493473 318.04556475 2377.14384173 319.11471081 2371.72303009 C319.93889174 2367.53896233 320.75881515 2363.35406863 321.57753944 2359.16893005 C321.96953589 2357.16875853 322.36306651 2355.16888704 322.75816917 2353.16932678 C323.30833535 2350.38261763 323.8525378 2347.59480695 324.39526367 2344.80664062 C324.55886383 2343.98477264 324.72246399 2343.16290466 324.89102173 2342.31613159 C325.63017159 2338.48678026 326.20179168 2334.9224889 326 2331 C324.81857422 2330.39865234 324.81857422 2330.39865234 323.61328125 2329.78515625 C295.65874693 2315.19586674 270.2156622 2293.26907844 260.00390625 2262.56640625 C254.91047616 2244.47184723 256.69453664 2227.08505319 265.1875 2210.375 C268.79869698 2203.97824296 273.09699582 2198.45255281 278 2193 C278.90298828 2191.97326172 278.90298828 2191.97326172 279.82421875 2190.92578125 C293.25787662 2176.5596352 311.81203051 2167.07679287 329 2158 C329 2149.42 329 2140.84 329 2132 C326.339375 2131.030625 323.67875 2130.06125 320.9375 2129.0625 C298.45559665 2120.45710406 279.86802728 2105.58062858 269.359375 2083.5625 C260.91160736 2064.53451851 260.05072931 2045.18088134 266.68359375 2025.2578125 C270.93130801 2014.74566504 276.93199447 2005.97308782 285 1998 C285.73605469 1997.24203125 286.47210938 1996.4840625 287.23046875 1995.703125 C299.28388562 1983.99293776 316.02153457 1976.56527584 332 1972 C332 1960.12 332 1948.24 332 1936 C329.215625 1935.030625 326.43125 1934.06125 323.5625 1933.0625 C309.73406651 1928.05577742 297.05988831 1921.81565088 286 1912 C285.2575 1911.41089844 284.515 1910.82179688 283.75 1910.21484375 C271.79156082 1900.43632838 262.21279241 1885.46600655 260 1870 C258.82870144 1851.56644883 263.26505366 1837.03148689 275.3125 1822.82421875 C289.79721422 1807.6026368 308.93112205 1798.88473484 328.33618164 1791.68920898 C330.00551892 1791.12203704 330.00551892 1791.12203704 331 1790 C331.09949401 1788.65007281 331.13080357 1787.2949935 331.1328125 1785.94140625 C331.13474609 1785.08828857 331.13667969 1784.2351709 331.13867188 1783.35620117 C331.13416016 1782.43427979 331.12964844 1781.5123584 331.125 1780.5625 C331.12306641 1779.62704346 331.12113281 1778.69158691 331.11914062 1777.7277832 C331.06485593 1768.79719719 330.60908781 1759.90790918 330 1751 C328.36804688 1750.65388672 328.36804688 1750.65388672 326.703125 1750.30078125 C317.71120449 1748.33155271 309.33041114 1746.02401216 301 1742 C300.06671875 1741.55914063 299.1334375 1741.11828125 298.171875 1740.6640625 C282.47602589 1732.72845164 269.93920196 1718.46965781 264.125 1701.875 C258.50666835 1684.11214506 260.96204981 1664.61727921 269.25 1648.25 C281.41346192 1626.97039782 301.07900139 1614.28128944 324.22167969 1607.41723633 C325.56585968 1607.01750359 325.56585968 1607.01750359 326.93719482 1606.60969543 C327.61792053 1606.40849594 328.29864624 1606.20729645 329 1606 C329.02558531 1599.25969259 329.04296455 1592.51939795 329.05493164 1585.77905273 C329.05992641 1583.49128756 329.06672451 1581.20352551 329.07543945 1578.91577148 C329.43664417 1561.41211279 329.43664417 1561.41211279 328 1544 C326.18493652 1542.18493652 323.26772101 1542.47907453 320.8125 1542.1875 C299.27381278 1539.17601182 280.53113526 1530.38882393 267 1513 C256.97234202 1499.46384704 253.40348366 1481.59613678 255.49609375 1465.0859375 C258.76085731 1444.61099501 269.1562826 1426.41421655 285.66113281 1413.72265625 C297.68669086 1405.02479451 311.10113404 1399.23256292 325.27441406 1395.0402832 C327.21126495 1394.44562478 329.11081446 1393.73211199 331 1393 C332.27312024 1389.18063929 332.38123144 1385.4485715 332.61328125 1381.4609375 C332.72512729 1379.68176935 332.83753746 1377.90263661 332.95043945 1376.12353516 C333.00898102 1375.18632629 333.06752258 1374.24911743 333.12783813 1373.2835083 C336.50569506 1320.08072653 342.48645738 1264.27016962 375 1220 C375.58007812 1219.20207031 376.16015625 1218.40414063 376.7578125 1217.58203125 C398.92235014 1188.18992699 427.7744966 1166.55236329 461 1151 C461.82435547 1150.61199219 462.64871094 1150.22398438 463.49804688 1149.82421875 C495.11855887 1135.10069875 528.54217786 1126.74845598 563 1122 C563.80888672 1121.88672363 564.61777344 1121.77344727 565.45117188 1121.65673828 C639.23628006 1111.66829228 723.96412457 1125.25245211 784.43164062 1170.80175781 C826.79535447 1203.16805724 854.45110922 1248.95322347 865.34375 1301.1328125 C865.70594912 1303.88312162 865.70594912 1303.88312162 867 1305 C868.4530762 1305.29559486 869.91664559 1305.53999518 871.3828125 1305.76171875 C894.93684794 1309.52870129 915.42799059 1317.68422583 930.3125 1337.4375 C941.19573011 1353.23573725 944.60450873 1370.58177958 941.25 1389.5 C937.84745109 1403.20537182 931.65723477 1414.92407729 923 1426 C922.44441406 1426.7115625 921.88882813 1427.423125 921.31640625 1428.15625 C916.55389508 1433.91237861 910.90539388 1438.45992002 905 1443 C903.82824219 1443.91265625 903.82824219 1443.91265625 902.6328125 1444.84375 C892.41400428 1452.41323757 880.74431616 1457.30227354 869 1462 C869 1474.87 869 1487.74 869 1501 C871.743125 1502.485 874.48625 1503.97 877.3125 1505.5 C884.61814798 1509.52498615 891.44898851 1513.81420708 898 1519 C898.92167969 1519.70769531 899.84335937 1520.41539063 900.79296875 1521.14453125 C916.33885739 1533.38825872 927.79572538 1549.09196043 931 1569 C932.35048363 1588.61522119 926.8456189 1605.54104451 914.08203125 1620.671875 C901.8415123 1634.35920951 887.41090313 1644.79454844 871 1653 C871 1669.5 871 1686 871 1703 C874.96 1704.65 878.92 1706.3 883 1708 C885.61897399 1709.38930335 888.11659786 1710.75971307 890.625 1712.3125 C891.25543213 1712.69784912 891.88586426 1713.08319824 892.53540039 1713.48022461 C898.04242565 1716.90920666 903.14204022 1720.69329807 908 1725 C908.70640625 1725.62390625 909.4128125 1726.2478125 910.140625 1726.890625 C922.80669385 1738.78319346 930.12596801 1755.51604136 931.1640625 1772.71875 C931.71046357 1791.59442349 924.05901567 1808.21881822 911.9921875 1822.3515625 C900.99496412 1833.88306394 887.05951111 1840.48214667 872 1845 C872.33 1858.53 872.66 1872.06 873 1886 C877.95 1887.98 882.9 1889.96 888 1892 C896.47848852 1895.76734323 903.96190963 1899.94724228 911 1906 C911.62390625 1906.49242187 912.2478125 1906.98484375 912.890625 1907.4921875 C922.90802384 1915.54966048 930.90546818 1928.70718364 932.7890625 1941.515625 C934.29449266 1959.2462469 929.21160034 1975.45539092 917.96801758 1989.29150391 C915.71450565 1991.93058285 913.37404181 1994.46814616 911 1997 C909.94039062 1998.17949219 909.94039062 1998.17949219 908.859375 1999.3828125 C903.2933265 2005.31001682 896.88280879 2010.10440318 890.35546875 2014.91015625 C889.6910376 2015.4100708 889.02660645 2015.90998535 888.34204102 2016.42504883 C886 2018 886 2018 882.84350586 2019.56518555 C879.32704675 2021.44123662 876.72883398 2023.08340347 874 2026 C872.46942795 2031.62334703 872.81484153 2036.91880458 873.1875 2042.6875 C873.24493301 2044.25673065 873.29699062 2045.82616699 873.34375 2047.39575195 C873.47139769 2051.23675296 873.66603733 2055.07051241 873.88568115 2058.90722656 C874.05060721 2061.92643886 874.16039514 2064.9470719 874.26953125 2067.96875 C874.44911425 2072.65130984 874.69586539 2077.32393038 875 2082 C876.26972656 2082.15855469 877.53945313 2082.31710938 878.84765625 2082.48046875 C901.57464203 2085.48796292 922.25185106 2092.28118149 937.12890625 2110.625 C947.58945081 2125.80747504 950.07245064 2144.61308496 946.875 2162.5 C941.8360374 2184.79218477 929.38192011 2204.28239276 910.125 2216.875 C899.42984729 2223.54342993 887.99687816 2227.39834543 876 2231 C875.82609692 2264.34390833 876.32487096 2297.66333266 877 2331 C884.50413744 2334.7886034 884.50413744 2334.7886034 892.11328125 2338.359375 C914.92650171 2348.8086737 914.92650171 2348.8086737 923.21484375 2357.2578125 C924.82282351 2359.23281375 924.82282351 2359.23281375 927 2359 C927.27070312 2359.5775 927.54140625 2360.155 927.8203125 2360.75 C929.00611863 2363.01166998 930.36935146 2364.94046003 931.875 2367 C939.78357536 2378.95978186 940.68878031 2392.04718822 938.33984375 2405.890625 C934.91113109 2419.84296223 929.00144441 2433.06444102 921.66918945 2445.38037109 C919.40141827 2449.31870731 919.40141827 2449.31870731 919.53125 2453.7265625 C921.05638662 2456.08727929 922.63594623 2458.07779337 924.5625 2460.125 C929.26054296 2465.24705406 933.62560654 2470.60117593 938 2476 C939.49900948 2477.83414331 940.99900516 2479.66748108 942.5 2481.5 C944.69225146 2484.1789992 946.88419468 2486.85824208 949.07421875 2489.5390625 C953.70323902 2495.20340893 958.34833328 2500.85424455 963 2506.5 C964.20836242 2507.96742397 965.41669628 2509.43487145 966.625 2510.90234375 C968.64399807 2513.35438755 970.66467469 2515.80501949 972.6875 2518.25390625 C976.93252163 2523.40959975 981.0457019 2528.6192656 985 2534 C985.81979568 2535.08893095 986.64016144 2536.17743282 987.4609375 2537.265625 C1016.42389903 2575.87600987 1033.47499583 2621.30212271 1050.53857422 2666.03076172 C1060.73130731 2692.72023888 1072.81713707 2718.45624423 1085.01831055 2744.27026367 C1091.20131212 2757.3631335 1097.19191928 2770.53981922 1103.15809631 2783.7325592 C1105.40200688 2788.6904189 1107.66336803 2793.6400774 1109.93359375 2798.5859375 C1118.3586101 2816.94346611 1126.65886138 2835.35144509 1134.82574463 2853.82530212 C1137.02754532 2858.80560727 1139.23591942 2863.78294088 1141.44856262 2868.75843811 C1152.20716843 2892.95507779 1162.74336254 2917.23573152 1173.0090332 2941.64562988 C1173.97748303 2943.94650346 1174.94830096 2946.24636239 1175.91992188 2948.54589844 C1213.95774851 3038.61065705 1249.38476787 3131.11853615 1285 3302 C1285.33 3302 1285.66 3302 1286 3302 C1286 2213.66 1286 1125.32 1286 4 C862.94 4 439.88 4 4 4 Z M561.875 1151.0625 C561.10741364 1151.16815277 560.33982727 1151.27380554 559.54898071 1151.38265991 C510.54862112 1158.25438886 461.71315147 1176.30766143 424 1209 C423.07574219 1209.79019531 422.15148437 1210.58039063 421.19921875 1211.39453125 C414.71620314 1217.08846612 409.25640576 1223.17044055 404 1230 C403.26007813 1230.92425781 402.52015625 1231.84851562 401.7578125 1232.80078125 C368.14726164 1275.77344057 364.41694012 1331.28429276 361.3125 1383.6875 C361.24560974 1384.81585266 361.17871948 1385.94420532 361.10980225 1387.10675049 C360.91901545 1390.3665046 360.73360339 1393.62650901 360.55078125 1396.88671875 C360.46666237 1398.34459557 360.46666237 1398.34459557 360.38084412 1399.83192444 C360.05078117 1405.89444148 359.93457375 1411.92886681 360 1418 C359.08340858 1418.10867401 359.08340858 1418.10867401 358.14830017 1418.21954346 C335.58619503 1420.92057047 315.12703607 1426.05116607 298 1442 C297.41734375 1442.54011719 296.8346875 1443.08023437 296.234375 1443.63671875 C287.7601332 1452.49007137 283.59205436 1464.48624886 283.7265625 1476.484375 C284.47409849 1486.09555207 288.17171589 1494.21088387 295 1501 C306.69701452 1510.90805936 319.76670602 1514.36672889 334.8125 1514.1875 C336.33713867 1514.1865332 336.33713867 1514.1865332 337.89257812 1514.18554688 C344.64529113 1514.14681238 351.28127059 1513.65185783 358 1513 C357.99777939 1513.54914566 357.99555878 1514.09829132 357.99327087 1514.66407776 C357.88048098 1544.09546106 358.00154472 1573.51067588 358.5 1602.9375 C358.51195782 1603.64376148 358.52391563 1604.35002296 358.53623581 1605.07768631 C358.6832258 1613.71859679 358.83773818 1622.35936257 359 1631 C358.18813232 1631.0629425 357.37626465 1631.12588501 356.53979492 1631.19073486 C355.46834229 1631.27635681 354.39688965 1631.36197876 353.29296875 1631.45019531 C351.70391724 1631.57554657 351.70391724 1631.57554657 350.08276367 1631.70343018 C345.97704068 1632.09841133 342.01597688 1632.82747222 338 1633.75 C337.23236328 1633.9255542 336.46472656 1634.1011084 335.67382812 1634.28198242 C324.76998533 1636.8925525 315.88444122 1641.1572257 307 1648 C305.948125 1648.763125 304.89625 1649.52625 303.8125 1650.3125 C295.10190573 1658.63595675 289.98563158 1668.95304165 289.5 1681.0625 C289.91585976 1691.33826048 293.93542111 1699.62826551 301 1707 C318.1151897 1722.77905965 336.99111688 1723 360 1723 C360 1752.37 360 1781.74 360 1812 C356.37 1812.99 352.74 1813.98 349 1815 C332.00936007 1820.54642751 314.47794499 1826.83004123 301 1839 C300.36835938 1839.55171875 299.73671875 1840.1034375 299.0859375 1840.671875 C292.89359268 1846.41626296 288.76953721 1852.30453253 288.4375 1860.9375 C289.01474171 1872.32359266 294.0655049 1879.16855029 302 1887 C302.6909375 1887.70125 303.381875 1888.4025 304.09375 1889.125 C314.73035722 1899.28534122 327.08251203 1904.16239681 341 1908 C341.99 1908.33 342.98 1908.66 344 1909 C349.94 1909.33 355.88 1909.66 362 1910 C362 1938.38 362 1966.76 362 1996 C358.04 1996.33 354.08 1996.66 350 1997 C346.99908048 1997.60069953 344.17360588 1998.22423256 341.25 1999.0625 C340.49267578 1999.27801514 339.73535156 1999.49353027 338.95507812 1999.71557617 C326.70329832 2003.40462686 315.35639439 2009.18210313 306 2018 C305.28328125 2018.67546875 304.5665625 2019.3509375 303.828125 2020.046875 C294.22069471 2029.94325057 290.53300287 2041.71763901 290.66015625 2055.23828125 C291.75323063 2067.33748387 298.94511469 2080.00121412 307.80859375 2088.25 C322.05987945 2099.63070587 340.50531469 2108 359 2108 C358.67 2130.77 358.34 2153.54 358 2177 C349.42 2180.96 340.84 2184.92 332 2189 C323.200736 2194.15818924 314.77836444 2199.40593541 307 2206 C306.16984375 2206.67417969 305.3396875 2207.34835937 304.484375 2208.04296875 C294.83891408 2216.20118046 287.58058889 2226.75061429 285.62109375 2239.45703125 C284.87376239 2254.37955093 293.32607716 2267.46395176 302.5625 2278.4375 C306.11149328 2282.27138953 309.97652141 2285.67499147 314 2289 C314.78503906 2289.66128906 315.57007813 2290.32257813 316.37890625 2291.00390625 C327.70655568 2300.34611478 339.7606074 2308.21453932 354.8125 2308.0625 C356.55466797 2308.04896484 356.55466797 2308.04896484 358.33203125 2308.03515625 C359.21246094 2308.02355469 360.09289062 2308.01195313 361 2308 C360.84966309 2308.71615479 360.69932617 2309.43230957 360.54443359 2310.17016602 C356.95824612 2327.28926428 353.52833666 2344.43138683 350.23051453 2361.60861206 C349.37148395 2366.07943466 348.50649229 2370.54906014 347.63531494 2375.01753235 C347.31621764 2376.65580082 346.99832285 2378.29430394 346.68157959 2379.93302917 C345.85159293 2384.21557819 344.99811241 2388.491254 344.10205078 2392.76049805 C342.39374028 2401.01400593 340.89856969 2409.14564415 340.15423584 2417.54827881 C336.9518082 2453.17538041 320.63868707 2471.07023905 293.69850159 2493.67073059 C292 2495 292 2495 290 2496 C290 2496.66 290 2497.32 290 2498 C341.6979718 2498.13027839 393.39594979 2498.25783003 445.09393619 2498.38218227 C451.33052782 2498.39718564 457.56711939 2498.41220949 463.80371094 2498.42724609 C465.04424367 2498.43023671 466.28477641 2498.43322732 467.56290105 2498.43630856 C484.72960481 2498.47773515 501.89630556 2498.52024445 519.06300431 2498.56369197 C548.82845463 2498.63902467 578.59390981 2498.71202859 608.359375 2498.78125 C609.53619394 2498.78399162 610.71301288 2498.78673324 611.925493 2498.78955793 C713.95036967 2499.02674099 815.97489945 2499.05879844 918 2499 C915.15695216 2494.66838234 912.13992879 2490.66236966 908.75 2486.75 C904.73755642 2482.06503512 900.81883446 2477.32487401 896.984375 2472.4921875 C894.71749848 2469.64520478 892.42510849 2466.82019671 890.125 2464 C889.38507812 2463.0925 888.64515625 2462.185 887.8828125 2461.25 C886.04323166 2458.98423281 886.04323166 2458.98423281 884 2457 C884.37877065 2453.29950365 886.37270227 2450.22584373 888.1328125 2447.01171875 C888.77773328 2445.82539287 889.42258757 2444.63903084 890.06738281 2443.45263672 C890.57235291 2442.52931549 890.57235291 2442.52931549 891.08752441 2441.58734131 C906.31328639 2415.86638591 906.31328639 2415.86638591 910 2387 C908.73142887 2383.55532594 908.73142887 2383.55532594 906 2381 C905.44828125 2380.401875 904.8965625 2379.80375 904.328125 2379.1875 C893.13474281 2368.08088821 877.84759684 2363.04177261 863.37890625 2357.703125 C861.8823707 2357.14706941 860.38599086 2356.59059456 858.88977051 2356.03369141 C855.26162194 2354.68429305 851.63142078 2353.3405661 848 2352 C847.98969254 2350.91721771 847.97938507 2349.83443542 847.96876526 2348.71884155 C847.83717305 2334.93752279 847.70137002 2321.15624732 847.5625 2307.375 C847.55147877 2306.28100891 847.54045753 2305.18701782 847.52910233 2304.05987549 C847.18498231 2270.03588694 846.75224122 2236.01775078 846 2202 C847.11121971 2202.02012901 847.11121971 2202.02012901 848.24488831 2202.04066467 C851.64366959 2202.09435939 855.04236122 2202.1274018 858.44140625 2202.16015625 C859.6065979 2202.1816272 860.77178955 2202.20309814 861.97229004 2202.22521973 C877.90760081 2202.34022549 891.41925316 2196.20998162 903.1875 2185.375 C913.1137606 2174.77611805 918.94930922 2161.85417846 919.5 2147.3125 C919.16371293 2138.39546859 916.53132521 2130.40537837 910.328125 2123.8515625 C905.4369665 2119.9616143 899.6951301 2117.49077794 894 2115 C893.16855469 2114.62875 892.33710937 2114.2575 891.48046875 2113.875 C882.73577739 2110.79025848 872.80103478 2110.82105894 863.625 2110.8125 C862.80572021 2110.81169434 861.98644043 2110.81088867 861.14233398 2110.81005859 C855.63819036 2110.86012155 850.55380979 2111.38291002 845 2112 C845 2077.68 845 2043.36 845 2008 C846.65 2007.34 848.3 2006.68 850 2006 C870.45628321 1994.97334235 895.95917334 1978.90268366 903.375 1955.62890625 C904.96374741 1948.94623744 904.6154975 1943.84473784 901.18359375 1937.8359375 C894.47213723 1927.42542739 884.02519036 1922.06122833 873 1917 C872.23558594 1916.64164063 871.47117187 1916.28328125 870.68359375 1915.9140625 C862.03443855 1912.15356024 853.27921827 1910.44189954 844 1908 C843.67 1878.63 843.34 1849.26 843 1819 C845.97 1819 848.94 1819 852 1819 C868.12632208 1817.80081734 881.64456448 1812.02433052 892.875 1800.1875 C900.72193025 1790.68064219 902.89031261 1780.01276865 902 1768 C899.26175686 1755.52965706 889.17555708 1745.96023235 879 1739 C868.84722155 1732.82427444 853.01806984 1724 841 1724 C841.33 1694.63 841.66 1665.26 842 1635 C847.28 1632.36 852.56 1629.72 858 1627 C876.47860565 1617.11232505 894.82413776 1604.68597325 902 1584 C903.77410694 1574.0693282 901.58462419 1566.27351732 896 1558 C893.218984 1554.41696815 890.22705253 1551.18373639 887 1548 C886.33484375 1547.32453125 885.6696875 1546.6490625 884.984375 1545.953125 C875.04647646 1536.47039739 852.98018398 1520 839 1520 C839 1493.27 839 1466.54 839 1439 C841.64 1438.67 844.28 1438.34 847 1438 C870.40541924 1432.10602346 893.80469931 1420.32167604 906.82421875 1399.16015625 C912.8478739 1388.09344097 915.52048791 1375.56654085 911.9375 1363.125 C907.39520823 1351.88546873 897.45640628 1344.07891948 886.703125 1339.13696289 C876.6597696 1334.91262166 866.03304184 1333.97223607 855.3125 1332.8125 C853.72452026 1332.63425572 852.1366286 1332.45522483 850.54882812 1332.27539062 C846.70017276 1331.84119795 842.85048715 1331.41762264 839 1331 C838.96559814 1330.38294189 838.93119629 1329.76588379 838.89575195 1329.13012695 C837.55082768 1306.5666764 833.26172872 1286.64666506 824 1266 C823.68160156 1265.29004883 823.36320313 1264.58009766 823.03515625 1263.84863281 C814.60451197 1245.40441207 802.90535195 1226.86544367 788 1213 C783 1208 783 1208 781.59375 1206.48828125 C762.92134489 1186.85479647 736.9497539 1174.44617168 712 1165 C710.7728125 1164.525625 709.545625 1164.05125 708.28125 1163.5625 C662.38875674 1146.40642775 610.01621727 1144.3959007 561.875 1151.0625 Z M248 2541 C247.33167223 2541.66312163 246.66334447 2542.32624327 245.97476435 2543.0094595 C226.01715631 2563.14961674 222.61148731 2598.53444109 216.76586914 2624.79736328 C214.47388502 2635.0642389 212.00986481 2645.28442378 209.5 2655.5 C206.65497093 2667.08000402 203.90312405 2678.67286613 201.3125 2690.3125 C199.08931488 2700.29941987 196.7268309 2710.23395493 194.19848633 2720.14770508 C192.03311485 2728.70470551 190.1332964 2737.31184065 188.24975586 2745.93457031 C186.62458188 2753.32432264 184.86909568 2760.6683764 183 2768 C180.58932292 2777.46900812 178.41170943 2786.97456975 176.31811523 2796.51831055 C173.6242136 2808.7779566 170.75671293 2820.99543623 167.88671875 2833.21484375 C167.01308653 2836.94413725 166.1459795 2840.67488296 165.28125 2844.40625 C162.07671224 2858.22205738 158.78988262 2872.01353377 155.42364502 2885.79055786 C152.88788961 2896.1829757 150.49980349 2906.59957915 148.21630859 2917.05078125 C146.44291145 2925.12494007 144.528577 2933.15826724 142.5625 2941.1875 C139.87092916 2952.19144966 137.38453232 2963.22661329 134.99539185 2974.29891968 C133.10353722 2983.05980706 131.12806829 2991.79284878 129 3000.5 C126.74511678 3009.74344856 124.64437148 3019.01515059 122.625 3028.3125 C122.40869431 3029.30795334 122.40869431 3029.30795334 122.1880188 3030.32351685 C121.59238152 3033.06566404 120.9971163 3035.80789171 120.40229797 3038.55021667 C118.60081455 3046.85041889 116.77491467 3055.14518287 114.9375 3063.4375 C114.76735382 3064.20581146 114.59720764 3064.97412292 114.42190552 3065.76571655 C112.39396895 3074.90932996 110.29678573 3084.02920955 108.0625 3093.125 C105.08442051 3105.26473117 102.50615263 3117.48626431 99.91104126 3129.7121582 C97.61270523 3140.53873543 95.27835813 3151.34937843 92.75 3162.125 C90.66214018 3171.02379714 88.72828811 3179.94292 86.89355469 3188.8972168 C85.34464951 3196.42991078 83.68830629 3203.93492823 82 3211.4375 C79.83569665 3221.07180846 77.82715353 3230.72545387 75.92886353 3240.41540527 C74.50027071 3247.64718722 72.93474281 3254.8386938 71.3046875 3262.02734375 C67.6806567 3278.1885334 64.38749454 3294.41424691 61.11201096 3310.64896011 C60.61757944 3313.09927499 60.12246254 3315.54945062 59.62722778 3317.99960327 C45.19969127 3389.11702271 45.19969127 3389.11702271 35.22003174 3460.96380615 C35.00143921 3462.98668146 34.77311548 3465.00825061 34.54248047 3467.02978516 C32.4117835 3485.9096007 31.69525175 3504.68990034 31.625 3523.6875 C31.61714478 3524.72188202 31.60928955 3525.75626404 31.60119629 3526.82199097 C31.51066853 3542.09399345 32.72156133 3556.90123358 35 3572 C35.18804199 3573.2573999 35.37608398 3574.5147998 35.56982422 3575.81030273 C40.47823273 3606.0963804 51.6338187 3635.93102052 71 3660 C71.45310547 3660.56976562 71.90621094 3661.13953125 72.37304688 3661.7265625 C122.70757171 3724.42031909 207.35948308 3739.85103031 282.84954834 3748.74542236 C284.8202304 3748.97871828 286.79027738 3749.2173626 288.76025391 3749.45654297 C302.85609685 3751.16738938 316.97425275 3752.47324864 331.125 3753.625 C331.89305969 3753.68762024 332.66111938 3753.75024048 333.45245361 3753.8147583 C349.2906537 3755.09551083 365.13431005 3756.0987624 381.01953125 3756.546875 C381.74789499 3756.56756798 382.47625874 3756.58826096 383.22669411 3756.60958099 C407.40605182 3757.26830071 431.60032497 3757.22344105 455.78701007 3757.2388196 C462.27482086 3757.24302623 468.76248277 3757.25500139 475.25024414 3757.28125 C516.92941798 3757.4461178 558.38193011 3756.30935597 600 3754 C602.31508879 3753.8736516 604.63018773 3753.74748905 606.94529724 3753.621521 C609.1354175 3753.50162511 611.32552729 3753.38153769 613.515625 3753.26123047 C614.48518662 3753.20800188 615.45474825 3753.15477329 616.45369053 3753.09993172 C642.46525887 3751.65140487 668.37608912 3749.23681916 694.296875 3746.66162109 C701.05038456 3745.99196462 707.80623576 3745.3481974 714.5625 3744.70703125 C745.57164363 3741.75312767 776.42382346 3738.3794575 807.19140625 3733.44824219 C809.7305647 3733.04300097 812.27092986 3732.64759111 814.8125 3732.2578125 C848.89293805 3727.01382015 882.91236369 3720.97655671 916.37939453 3712.63476562 C919.54097632 3711.86896419 922.71586171 3711.18796773 925.89892578 3710.51831055 C936.88646889 3708.2035122 947.58975695 3705.00845904 958.34179688 3701.79003906 C961.7193435 3700.7862054 965.10767185 3699.8276401 968.5 3698.875 C1009.14712631 3687.30080198 1048.27429354 3672.0081574 1086 3653 C1086.90766113 3652.5467334 1087.81532227 3652.0934668 1088.75048828 3651.62646484 C1115.92265307 3638.00112388 1142.14709291 3620.93323055 1164.5234375 3600.265625 C1166.58592874 3598.37880336 1168.67788158 3596.54559182 1170.79296875 3594.71875 C1181.43843898 3585.42445471 1191.43391786 3575.24393375 1200 3564 C1200.95179777 3562.77732417 1201.90362256 3561.55466938 1202.85546875 3560.33203125 C1209.86293863 3551.24416623 1216.13908329 3541.8611085 1222 3532 C1222.37721191 3531.37722168 1222.75442383 3530.75444336 1223.14306641 3530.11279297 C1233.65953023 3512.6856403 1241.29755597 3493.80828584 1247.26367188 3474.38476562 C1247.92827964 3472.23228265 1248.62470538 3470.09313574 1249.328125 3467.953125 C1263.94268498 3421.58635461 1263.5182027 3370.05413522 1258.24353027 3322.22814941 C1257.99759856 3319.9780283 1257.76205952 3317.7270036 1257.52832031 3315.47558594 C1252.52923572 3267.91655609 1241.95250677 3220.57645687 1227.5546875 3174.98828125 C1226.29951526 3171.0110211 1225.15150098 3167.01500663 1224.04614258 3162.99389648 C1198.64276556 3070.96325562 1159.7159011 2981.93049015 1120.06060791 2892.39404297 C1119.02309927 2890.05214051 1117.98672194 2887.70974072 1116.95068359 2885.3671875 C1112.32119693 2874.9021845 1107.66932809 2864.44728477 1103 2854 C1102.47146423 2852.81724487 1102.47146423 2852.81724487 1101.93225098 2851.6105957 C1090.80007724 2826.70721456 1079.47930399 2801.89536032 1067.99804688 2777.15106201 C1067.05171428 2775.11145832 1066.10584181 2773.07164204 1065.16015625 2771.03173828 C1063.50342093 2767.4582797 1061.84560453 2763.88532349 1060.1875 2760.3125 C1059.41369995 2758.64453369 1059.41369995 2758.64453369 1058.62426758 2756.94287109 C1055.99517487 2751.28014585 1053.35500417 2745.62291564 1050.69921875 2739.97265625 C1039.72636654 2716.58709716 1029.91591934 2692.90650803 1020.625 2668.8125 C996.90826379 2599.73796098 996.90826379 2599.73796098 953.33163214 2542.97650051 C951 2541 951 2541 949.11931467 2538.93171024 C939.74506307 2530.00119782 927.03627731 2531.87072477 914.92968679 2531.97225957 C911.44164748 2531.9926387 907.95389605 2531.96644069 904.46589804 2531.9463129 C898.35846027 2531.9174698 892.25158857 2531.91826378 886.14412498 2531.93869019 C877.06216633 2531.96898207 867.98068419 2531.95346412 858.89872862 2531.92902373 C842.67745858 2531.8869151 826.45644071 2531.89054186 810.23514672 2531.91365503 C796.03964659 2531.93378232 781.84423888 2531.93903179 767.64872742 2531.92947388 C766.23610294 2531.92855726 766.23610294 2531.92855726 764.7949406 2531.92762212 C760.97203754 2531.92513139 757.14913453 2531.92258419 753.32623157 2531.91994401 C717.46702615 2531.89547392 681.6079813 2531.91765658 645.74880066 2531.96071918 C613.89250634 2531.99868389 582.03646786 2531.99528686 550.18017578 2531.95703125 C514.38642467 2531.91419087 478.59281542 2531.89720935 442.79904222 2531.92192936 C438.98311904 2531.92449509 435.16719582 2531.92699781 431.35127258 2531.92947388 C430.41170026 2531.9301065 429.47212794 2531.93073911 428.50408373 2531.9313909 C414.3177623 2531.94048934 400.13154344 2531.92985104 385.94523621 2531.90963745 C369.8141289 2531.88676734 353.68331313 2531.89247319 337.55224216 2531.9358834 C328.52494878 2531.95937555 319.49828675 2531.96090572 310.47100974 2531.93071401 C304.43996966 2531.9127683 298.40943545 2531.92394997 292.37847029 2531.95875216 C288.94271051 2531.97777186 285.50820423 2531.98431878 282.0724842 2531.9555043 C263.14569034 2531.16160644 263.14569034 2531.16160644 248 2541 Z M1285 3440 C1284.86013672 3440.73710205 1284.72027344 3441.4742041 1284.57617188 3442.23364258 C1271.1151545 3512.28179048 1238.68020203 3579.61994633 1181.75390625 3624.8046875 C1178.92568004 3627.05924513 1176.18565223 3629.39876109 1173.4375 3631.75 C1153.62319177 3648.24490092 1131.51607619 3661.56374637 1109 3674 C1107.76008301 3674.68594238 1107.76008301 3674.68594238 1106.49511719 3675.38574219 C1034.86349674 3714.69681322 953.43749331 3735.85440608 571.5625 3784.1875 C570.77111633 3784.22442963 569.97973267 3784.26135925 569.16436768 3784.29940796 C564.3597518 3784.51942933 559.55453527 3784.71288945 554.7482605 3784.89285278 C552.86388144 3784.96631961 550.97970435 3785.0451037 549.09573364 3785.12838745 C521.86579942 3786.32892542 494.61430049 3786.18770052 467.36375934 3786.18511099 C462.68022038 3786.18541426 457.99675677 3786.19385219 453.31323242 3786.20581055 C361.49385553 3786.43652283 263.83479234 3784.29057992 163 3754 C161.80938965 3753.61811523 161.80938965 3753.61811523 160.59472656 3753.22851562 C142.41414907 3747.36899175 124.50395558 3739.63253681 108 3730 C107.03271973 3729.43611572 107.03271973 3729.43611572 106.04589844 3728.86083984 C93.01370095 3721.17429748 81.2956284 3712.23567715 70.171875 3701.984375 C68.26138237 3700.23881698 66.30995786 3698.58142549 64.3125 3696.9375 C50.97104507 3685.56520957 40.34316176 3669.2811173 32 3654 C31.66162109 3653.38366699 31.32324219 3652.76733398 30.97460938 3652.13232422 C16.46832468 3625.34562357 9.0844241 3596.01993312 5 3566 C4.67 3566 4.34 3566 4 3566 C4 3699.65 4 3833.3 4 3971 C427.06 3971 850.12 3971 1286 3971 C1286 3795.77 1286 3620.54 1286 3440 C1285.67 3440 1285.34 3440 1285 3440 Z " fill="#000000" transform="translate(0,0)"/>
<path d="M0 0 C425.7 0 851.4 0 1290 0 C1290 1106.16 1290 2212.32 1290 3352 C1289.67 3352 1289.34 3352 1289 3352 C1288.95101563 3350.88367187 1288.90203125 3349.76734375 1288.8515625 3348.6171875 C1288.48835352 3340.87009749 1288.05254896 3333.15654438 1287.24625593 3325.44147995 C1285.92945517 3312.62892878 1285.72018831 3299.93298562 1285.75160301 3287.0630523 C1285.74986757 3284.71498177 1285.74725516 3282.36691176 1285.74385703 3280.01884305 C1285.73778243 3274.26361651 1285.74089793 3268.5084477 1285.74799509 3262.75322357 C1285.75604581 3255.77971414 1285.75220809 3248.80622251 1285.74813143 3241.8327114 C1285.74081783 3228.74778974 1285.74294763 3215.66288495 1285.75023364 3202.57796396 C1285.75761109 3189.25464326 1285.76054267 3175.93133222 1285.75820221 3162.60800956 C1285.75798325 3161.33870378 1285.75798325 3161.33870378 1285.75775987 3160.04375545 C1285.75699482 3155.72280482 1285.75615961 3151.4018542 1285.75530048 3147.08090359 C1285.74918206 3115.55293043 1285.75289979 3084.02496433 1285.76158905 3052.49699211 C1285.77036251 3020.54534636 1285.77475237 2988.59370441 1285.77378464 2956.64205742 C1285.77375606 2955.63407242 1285.77372748 2954.62608743 1285.77369803 2953.58755743 C1285.77343452 2944.34995394 1285.77312229 2935.11235046 1285.77275202 2925.87474697 C1285.77182589 2902.71163245 1285.77156077 2879.54851794 1285.77173448 2856.38540339 C1285.77174197 2855.32403318 1285.77174947 2854.26266297 1285.77175719 2853.16913003 C1285.77218546 2800.85642658 1285.78012048 2748.54372455 1285.78853989 2696.23102188 C1285.79149828 2677.81728952 1285.79442099 2659.40355716 1285.79721212 2640.98982477 C1285.79738566 2639.84515105 1285.79755919 2638.70047734 1285.79773798 2637.52111654 C1285.80573452 2584.48526732 1285.80859596 2531.44941821 1285.81014406 2478.41356846 C1285.81024558 2474.94449009 1285.81034952 2471.47541172 1285.81045407 2468.00633336 C1285.81108227 2447.08760698 1285.81165701 2426.16888059 1285.81217002 2405.25015421 C1285.81344767 2353.24747255 1285.81536656 2301.24479092 1285.81772041 2249.2421093 C1285.81777368 2248.05827433 1285.81782695 2246.87443935 1285.81788183 2245.65473059 C1285.82133661 2168.98826557 1285.82743113 2092.32180103 1285.83573723 2015.65533638 C1285.83586981 2014.43141585 1285.83600238 2013.20749531 1285.83613898 2011.94648628 C1285.8401803 1974.68988874 1285.84441709 1937.43329123 1285.84869212 1900.17669372 C1285.85342209 1858.94773153 1285.85811872 1817.71876934 1285.8626709 1776.48980713 C1285.8628079 1775.2500265 1285.8629449 1774.01024588 1285.86308605 1772.73289615 C1285.87608843 1654.96740186 1285.88370869 1537.20190742 1285.88993847 1419.43641261 C1285.89020275 1414.4478749 1285.8904686 1409.45933718 1285.8907345 1404.47079947 C1285.89318132 1358.56497652 1285.89556499 1312.65915356 1285.89786934 1266.7533306 C1285.89796126 1264.92230437 1285.89796126 1264.92230437 1285.89805504 1263.05428771 C1285.89824056 1259.35838427 1285.89842607 1255.66248084 1285.89861157 1251.9665774 C1285.90362318 1152.12162038 1285.90918558 1052.2766634 1285.91510484 952.43170643 C1285.91531355 948.90892372 1285.91552183 945.386141 1285.91572999 941.86335828 C1285.92249544 827.39647243 1285.93023591 712.92958671 1285.94840559 510.80599916 C1285.9486954 507.68912601 1285.94898467 504.57225287 1285.94927374 501.45537973 C1285.94936839 500.4351178 1285.94946304 499.41485586 1285.94956056 498.3636769 C1285.94973281 496.50679015 1285.94990499 494.64990339 1285.95007707 492.79301663 C1285.96519795 329.86201094 1285.98294606 166.9310055 1286 4 C862.94 4 439.88 4 4 4 C4 1313.11 4 2622.22 4 3971 C427.06 3971 850.12 3971 1286 3971 C1286 3793.13 1286 3615.26 1286 3432 C1286.99 3420.78 1287.98 3409.56 1289 3398 C1289.33 3398 1289.66 3398 1290 3398 C1290 3588.41 1290 3778.82 1290 3975 C864.3 3975 438.6 3975 0 3975 C0 2663.25 0 1351.5 0 0 Z " fill="#FDFDFD" transform="translate(0,0)"/>
</svg>
