<?xml version="1.0" encoding="UTF-8"?>
<!DOCTYPE svg PUBLIC "-//W3C//DTD SVG 1.1//EN" "http://www.w3.org/Graphics/SVG/1.1/DTD/svg11.dtd">
<svg xmlns="http://www.w3.org/2000/svg" version="1.1" width="886px" height="3975px" style="shape-rendering:geometricPrecision; text-rendering:geometricPrecision; image-rendering:optimizeQuality; fill-rule:evenodd; clip-rule:evenodd" xmlns:xlink="http://www.w3.org/1999/xlink">
<g><path style="opacity:0.766" fill="#fdfdfd" d="M -0.5,-0.5 C 294.833,-0.5 590.167,-0.5 885.5,-0.5C 885.5,1324.5 885.5,2649.5 885.5,3974.5C 590.167,3974.5 294.833,3974.5 -0.5,3974.5C -0.5,2649.5 -0.5,1324.5 -0.5,-0.5 Z M 881.5,3191.5 C 875.611,3149.86 867.445,3108.53 857,3067.5C 807.667,2884.83 758.333,2702.17 709,2519.5C 700.016,2456.29 692.016,2392.96 685,2329.5C 670.198,2186.48 655.198,2043.48 640,1900.5C 628.941,1800.02 614.607,1700.02 597,1600.5C 579.433,1516 561.099,1431.66 542,1347.5C 524.037,1265.46 514.537,1182.46 513.5,1098.5C 514.137,1076.16 514.971,1053.83 516,1031.5C 519.774,993.537 523.107,955.537 526,917.5C 527.341,860.483 529.174,803.483 531.5,746.5C 531.495,727.758 530.329,709.091 528,690.5C 526.282,667.64 517.448,648.14 501.5,632C 486.963,621.694 470.963,618.694 453.5,623C 439.042,626.728 425.376,632.395 412.5,640C 363.065,668.766 321.898,706.599 289,753.5C 252.816,808.213 225.482,867.213 207,930.5C 189.231,991.579 175.564,1053.58 166,1116.5C 160.773,1150.42 156.106,1184.42 152,1218.5C 142.406,1305.59 132.072,1392.59 121,1479.5C 114.702,1542.71 110.035,1606.05 107,1669.5C 103.709,1743.47 101.376,1817.47 100,1891.5C 97.8889,2062.83 96.2223,2234.16 95,2405.5C 94.4063,2449.51 93.4063,2493.51 92,2537.5C 87.9597,2580.53 83.6263,2623.53 79,2666.5C 64.2601,2796.83 49.5935,2927.16 35,3057.5C 27.4058,3129.78 20.4058,3202.11 14,3274.5C 10.5619,3305.66 7.06186,3336.66 3.5,3367.5C 3.5,2246.17 3.5,1124.83 3.5,3.5C 296.167,3.5 588.833,3.5 881.5,3.5C 881.5,1066.17 881.5,2128.83 881.5,3191.5 Z M 138.5,1644.5 C 133.983,1795.34 128.983,1946.01 123.5,2096.5C 124.414,1968.43 127.914,1840.43 134,1712.5C 135.101,1689.65 136.601,1666.98 138.5,1644.5 Z M 881.5,3296.5 C 881.5,3521.17 881.5,3745.83 881.5,3970.5C 588.833,3970.5 296.167,3970.5 3.5,3970.5C 3.5,3805.83 3.5,3641.17 3.5,3476.5C 14.0096,3553.85 57.3429,3601.69 133.5,3620C 176.419,3629.06 219.752,3631.72 263.5,3628C 429.168,3611.25 586.502,3565.92 735.5,3492C 771.002,3473.51 802.169,3449.34 829,3419.5C 857.67,3383.34 875.17,3342.34 881.5,3296.5 Z"/></g>
<g><path style="opacity:0.981" fill="#010101" d="M 881.5,3191.5 C 884.117,3226.5 884.117,3261.5 881.5,3296.5C 875.17,3342.34 857.67,3383.34 829,3419.5C 802.169,3449.34 771.002,3473.51 735.5,3492C 586.502,3565.92 429.168,3611.25 263.5,3628C 219.752,3631.72 176.419,3629.06 133.5,3620C 57.3429,3601.69 14.0096,3553.85 3.5,3476.5C 0.908653,3440.17 0.908653,3403.84 3.5,3367.5C 7.06186,3336.66 10.5619,3305.66 14,3274.5C 20.4058,3202.11 27.4058,3129.78 35,3057.5C 49.5935,2927.16 64.2601,2796.83 79,2666.5C 83.6263,2623.53 87.9597,2580.53 92,2537.5C 93.4063,2493.51 94.4063,2449.51 95,2405.5C 96.2223,2234.16 97.8889,2062.83 100,1891.5C 101.376,1817.47 103.709,1743.47 107,1669.5C 110.035,1606.05 114.702,1542.71 121,1479.5C 132.072,1392.59 142.406,1305.59 152,1218.5C 156.106,1184.42 160.773,1150.42 166,1116.5C 175.564,1053.58 189.231,991.579 207,930.5C 225.482,867.213 252.816,808.213 289,753.5C 321.898,706.599 363.065,668.766 412.5,640C 425.376,632.395 439.042,626.728 453.5,623C 470.963,618.694 486.963,621.694 501.5,632C 517.448,648.14 526.282,667.64 528,690.5C 530.329,709.091 531.495,727.758 531.5,746.5C 529.174,803.483 527.341,860.483 526,917.5C 523.107,955.537 519.774,993.537 516,1031.5C 514.971,1053.83 514.137,1076.16 513.5,1098.5C 514.537,1182.46 524.037,1265.46 542,1347.5C 561.099,1431.66 579.433,1516 597,1600.5C 614.607,1700.02 628.941,1800.02 640,1900.5C 655.198,2043.48 670.198,2186.48 685,2329.5C 692.016,2392.96 700.016,2456.29 709,2519.5C 758.333,2702.17 807.667,2884.83 857,3067.5C 867.445,3108.53 875.611,3149.86 881.5,3191.5 Z M 138.5,1644.5 C 133.983,1795.34 128.983,1946.01 123.5,2096.5C 124.414,1968.43 127.914,1840.43 134,1712.5C 135.101,1689.65 136.601,1666.98 138.5,1644.5 Z"/></g>
<g><path style="opacity:1" fill="#fefefe" d="M 123.5,2096.5 C 128.983,1946.01 133.983,1795.34 138.5,1644.5C 138.5,1641.83 138.5,1639.17 138.5,1636.5C 141.108,1584.53 145.275,1532.53 151,1480.5C 161.993,1392.58 172.326,1304.58 182,1216.5C 190.452,1142.12 203.119,1068.45 220,995.5C 235.391,929.319 259.058,866.319 291,806.5C 326.27,742.563 376.104,693.396 440.5,659C 449.271,655.016 458.437,652.516 468,651.5C 476.368,651.402 483.034,654.735 488,661.5C 496.232,677.425 500.565,694.425 501,712.5C 501.167,723.333 501.333,734.167 501.5,745C 498.8,816.836 495.967,888.669 493,960.5C 480.249,1064.41 481.916,1168.07 498,1271.5C 501.558,1292.52 505.225,1313.52 509,1334.5C 527.337,1418.19 545.671,1501.86 564,1585.5C 582.768,1686.3 597.768,1787.63 609,1889.5C 623.653,2024.09 637.653,2158.76 651,2293.5C 658.733,2361.89 666.899,2430.23 675.5,2498.5C 490.833,2498.5 306.167,2498.5 121.5,2498.5C 121.138,2364.49 121.804,2230.49 123.5,2096.5 Z"/></g>
<g><path style="opacity:1" fill="#838383" d="M 680.5,2528.5 C 494.5,2528.5 308.5,2528.5 122.5,2528.5C 122.815,2532.37 122.482,2536.04 121.5,2539.5C 121.5,2535.5 121.5,2531.5 121.5,2527.5C 308.001,2527.17 494.334,2527.5 680.5,2528.5 Z"/></g>
<g><path style="opacity:1" fill="#fefefe" d="M 680.5,2528.5 C 730.219,2712.83 780.052,2897.16 830,3081.5C 842.124,3127.45 850.124,3174.12 854,3221.5C 857.503,3265.13 851.837,3307.46 837,3348.5C 822.292,3383.42 799.792,3412.25 769.5,3435C 739.868,3455.99 708.201,3473.66 674.5,3488C 553.923,3541.52 428.257,3577.19 297.5,3595C 258.921,3599.54 220.254,3600.54 181.5,3598C 145.961,3595.71 113.294,3585.04 83.5,3566C 62.8176,3550.49 48.6509,3530.32 41,3505.5C 33.5926,3480.23 30.0926,3454.39 30.5,3428C 30.9323,3406.46 32.0989,3384.96 34,3363.5C 44.6863,3260.54 55.0197,3157.54 65,3054.5C 85.363,2883.01 104.196,2711.34 121.5,2539.5C 122.482,2536.04 122.815,2532.37 122.5,2528.5C 308.5,2528.5 494.5,2528.5 680.5,2528.5 Z"/></g>
</svg>
