<?xml version="1.0" encoding="UTF-8"?>
<svg version="1.1" xmlns="http://www.w3.org/2000/svg" width="1055" height="3976">
<path d="M0 0 C348.15 0 696.3 0 1055 0 C1055 1312.08 1055 2624.16 1055 3976 C706.85 3976 358.7 3976 0 3976 C0 2663.92 0 1351.84 0 0 Z M4 4 C4 224.44 4 444.88 4 672 C4.33 672 4.66 672 5 672 C5.03440186 671.25878906 5.06880371 670.51757812 5.10424805 669.75390625 C8.24183636 606.16544979 24.10219068 545.11914021 69 498 C69.72574219 497.22140625 70.45148438 496.4428125 71.19921875 495.640625 C105.70211356 459.67087884 156.304292 443.01787703 204 434 C204.75313477 433.85079102 205.50626953 433.70158203 206.28222656 433.54785156 C221.99406323 430.44346728 238.05185071 429.24689095 254 428 C255.24990723 427.90066162 256.49981445 427.80132324 257.78759766 427.69897461 C271.59437128 426.7423319 285.41587555 426.80071458 299.25 426.8125 C301.21268829 426.81340637 301.21268829 426.81340637 303.21502686 426.81433105 C399.82054914 426.90787917 495.78757466 443.52349537 779.7956543 519.91040039 C788.78468641 522.94869983 797.80205547 525.84437361 806.875 528.625 C831.25873168 536.14296657 854.91106755 544.02950643 878 555 C878.93054199 555.43844238 879.86108398 555.87688477 880.81982422 556.32861328 C907.67294745 569.0619224 932.13822368 585.66127921 954.27734375 605.46484375 C955.50402918 606.5580124 956.74828807 607.63159597 958.00390625 608.69140625 C962.06691328 612.13763802 965.65639744 615.71963281 969.09765625 619.78515625 C971.27142875 622.31601663 973.54007861 624.74491289 975.8125 627.1875 C1029.35364626 686.07466086 1046.47244482 765.78812653 1050 843 C1050.33 843 1050.66 843 1051 843 C1051 566.13 1051 289.26 1051 4 C705.49 4 359.98 4 4 4 Z M4 709 C4 1785.79 4 2862.58 4 3972 C349.51 3972 695.02 3972 1051 3972 C1051 2949 1051 1926 1051 872 C1050.67 872 1050.34 872 1050 872 C1049.96036133 872.92707764 1049.92072266 873.85415527 1049.87988281 874.80932617 C1046.11425564 959.6763684 1028.88534402 1042.7990354 999 1145 C998.79435425 1145.67196411 998.5887085 1146.34392822 998.37683105 1147.03625488 C995.00008872 1158.05047351 991.51607309 1169.02957922 988 1180 C987.71318359 1180.89674438 987.42636719 1181.79348877 987.13085938 1182.71740723 C977.00733947 1214.36023975 966.29696892 1245.75734412 955 1277 C954.63088501 1278.0214209 954.26177002 1279.0428418 953.88146973 1280.09521484 C943.48841684 1308.83855452 932.85585737 1337.49167958 922.15966797 1366.12329102 C916.44188095 1381.43159901 910.74602626 1396.7476728 905.10281372 1412.08364868 C904.33951655 1414.15765412 903.57544636 1416.23137527 902.81051636 1418.30477905 C901.75536755 1421.16584256 900.7033769 1424.02804739 899.65234375 1426.890625 C899.35432861 1427.69754288 899.05631348 1428.50446075 898.74926758 1429.33583069 C893.58199776 1443.450947 889.2600631 1457.7419546 885.16015625 1472.1953125 C884.59253719 1474.18667956 884.02461173 1476.1779593 883.45640564 1478.16915894 C881.95443785 1483.43555028 880.45639883 1488.70305094 878.95928955 1493.9708252 C878.08975075 1497.02915405 877.21911742 1500.08716836 876.34790039 1503.14501953 C876.08313647 1504.07440814 875.81837255 1505.00379674 875.54558549 1505.96134864 C874.97302503 1507.96976883 874.39982197 1509.97800603 873.82574212 1511.98599245 C872.32589895 1517.23664267 870.8388495 1522.49027388 869.3797856 1527.75241065 C866.11568135 1539.45422846 862.69813705 1551.06327124 858.90999075 1562.60576348 C844.31240993 1607.1131407 837.89203954 1647.22525825 838.68802222 1693.96217342 C838.85089793 1703.96583495 838.83556843 1713.96906201 838.82974339 1723.97378159 C838.8292977 1727.91613469 838.83013283 1731.85848635 838.83159572 1735.80083919 C838.83190336 1736.7985899 838.832211 1737.79634062 838.83252797 1738.82432621 C838.83705251 1746.0894131 838.86391978 1753.35423299 838.90001601 1760.61922574 C839.06220923 1794.36119377 838.82836364 1828.09123684 838.44821167 1861.83117676 C838.43324732 1863.16912351 838.41829849 1864.50707044 838.40336504 1865.84501754 C838.26530431 1878.20749211 838.12462542 1890.56993586 837.98043866 1902.93234052 C837.74470935 1923.17008813 837.5296069 1943.40798391 837.32796574 1963.64609909 C837.31696552 1964.74938216 837.31696552 1964.74938216 837.30574309 1965.87495378 C837.23094476 1973.37991843 837.15652705 1980.88488682 837.08238076 1988.38985794 C836.98401367 1998.3457806 836.88455519 2008.30169206 836.78457385 2018.25759864 C836.77687113 2019.02468139 836.76916841 2019.79176414 836.76123227 2020.58209183 C836.72998415 2023.6936468 836.69872966 2026.80520171 836.66746386 2029.9167565 C836.61229069 2035.40761652 836.55719588 2040.89847732 836.50214502 2046.38933857 C836.27653275 2068.89057624 836.05002613 2091.39180481 835.82299995 2113.89302826 C835.81074178 2115.10797681 835.81074178 2115.10797681 835.79823597 2116.34746977 C835.69848129 2126.2341908 835.59869382 2136.1209115 835.49889672 2146.00763211 C835.34701334 2161.05465886 835.19519938 2176.10168631 835.04339036 2191.14871381 C835.02637954 2192.83479379 835.00936855 2194.52087376 834.9923574 2196.20695374 C834.59548015 2235.54403319 834.199216 2274.88111881 833.80321141 2314.21820705 C833.77709221 2316.81274673 833.75097235 2319.4072864 833.7248524 2322.00182607 C833.32111364 2362.10625488 832.91770339 2402.21068698 832.51483154 2442.31512451 C832.49721626 2444.06863679 832.47960097 2445.82214907 832.46198565 2447.57566134 C832.38277387 2455.46081113 832.30356415 2463.34596093 832.22435462 2471.23111074 C832.18919636 2474.73104155 832.15403788 2478.23097236 832.11887942 2481.73090317 C832.09253759 2484.35317859 832.06619623 2486.97545401 832.03985489 2489.59772943 C831.64243551 2529.16033349 831.24463899 2568.72293368 830.84532261 2608.28551865 C830.83271746 2609.53440962 830.83271746 2609.53440962 830.81985767 2610.80853072 C830.64364768 2628.26671054 830.46733895 2645.72488935 830.29089777 2663.18306683 C830.20830451 2671.35541988 830.12573659 2679.52777319 830.04318428 2687.70012665 C830.03099913 2688.90635388 830.03099913 2688.90635388 830.01856781 2690.13694934 C829.75867054 2715.86590299 829.50044138 2741.59487305 829.24316398 2767.32385303 C828.98461196 2793.17997141 828.72455232 2819.03607413 828.46240684 2844.89215634 C828.42603482 2848.47968958 828.38968095 2852.06722301 828.35333824 2855.65475655 C828.34621607 2856.3577564 828.3390939 2857.06075625 828.33175591 2857.78505913 C828.22013456 2868.8072717 828.11016083 2879.82950003 828.00091832 2890.85173641 C827.89288362 2901.74862385 827.7829785 2912.64549122 827.67134888 2923.54234243 C827.61198656 2929.34201376 827.55333809 2935.14168938 827.49698352 2940.94139078 C827.36717936 2954.2568332 827.22049771 2967.5719124 827.04159515 2980.88679189 C827.01319654 2983.01229869 826.98541678 2985.13781383 826.95817424 2987.26333576 C826.87189787 2993.96494249 826.77404402 3000.66622405 826.66150805 3007.36744297 C826.62764068 3009.46129312 826.59685595 3011.55519621 826.56967676 3013.64914385 C826.28451105 3035.1308309 824.06611686 3056.30439219 821.3092041 3077.59490967 C821.02242144 3079.82559872 820.74461475 3082.05713066 820.47167969 3084.28955078 C813.48327991 3141.15747605 804.12905588 3216.1437754 758.5078125 3256.1875 C747.56245366 3264.51315001 733.59232973 3268.08859593 720 3267 C695.07677521 3262.42784311 677.0651389 3249.03785638 659 3232 C658.26652344 3231.3090625 657.53304687 3230.618125 656.77734375 3229.90625 C652.25553812 3225.51928947 648.26842518 3220.8021817 644.33203125 3215.88671875 C642.81691567 3214.01122392 641.27379174 3212.15789433 639.69921875 3210.33203125 C597.28303703 3161.11259944 566.15875645 3097.41863422 539.55957031 3038.45166016 C538.19464434 3035.43078925 536.81836227 3032.415599 535.43617249 3029.40261841 C527.43664159 3011.95899108 519.81616361 2994.37837549 512.50097656 2976.63720703 C511.10908833 2973.2643458 509.70765461 2969.89560713 508.3046875 2966.52734375 C481.90704795 2902.81348873 460.88230638 2837.63715286 442.84710693 2771.12017822 C441.99799368 2767.99261007 441.14522836 2764.86605843 440.29150391 2761.73974609 C416.83402227 2675.77060658 395.65747758 2589.18807388 285.2698288 1924.42913818 C285.0035144 1922.03163842 284.73648799 1919.63421888 284.46929932 1917.23681641 C274.40937445 1826.90332439 266.11993866 1736.36807714 249.7890625 1527.9296875 C249.69777824 1526.63652618 249.60649399 1525.34336487 249.51244354 1524.01101685 C248.61714601 1511.32668783 247.72656787 1498.64209511 246.86084938 1485.95570946 C246.54182055 1481.29738017 246.21730515 1476.63944312 245.89167404 1471.9815712 C245.74167108 1469.81582624 245.59425214 1467.64990054 245.44960403 1465.48379135 C245.25104458 1462.51230569 245.04374112 1459.54154864 244.83447266 1456.57080078 C244.77940552 1455.71227634 244.72433838 1454.85375191 244.66760254 1453.96921158 C244.18674206 1447.34414117 243.07107539 1441.06489381 240.42211914 1434.91870117 C239.97261902 1433.86388802 239.97261902 1433.86388802 239.51403809 1432.7877655 C239.19100708 1432.04698257 238.86797607 1431.30619965 238.53515625 1430.54296875 C238.19045288 1429.73962601 237.84574951 1428.93628326 237.49060059 1428.1085968 C236.35418945 1425.46546962 235.20867564 1422.82640598 234.0625 1420.1875 C233.25290109 1418.31261775 232.44358012 1416.43761546 231.63452148 1414.5625 C217.81686449 1382.59060187 203.60078485 1350.80063523 189.20941162 1319.08358765 C185.41561878 1310.71885115 181.65774897 1302.33832619 177.90722656 1293.95410156 C174.90555568 1287.24592162 171.89402298 1280.5423726 168.87109375 1273.84375 C144.26790045 1219.31586125 120.050631 1164.61875913 98 1109 C97.71723206 1108.2877124 97.43446411 1107.5754248 97.14312744 1106.84155273 C76.47607015 1054.74312264 57.75882445 1001.62010002 43.61804199 947.36602783 C43.02996613 945.11471824 42.43449604 942.86550128 41.83691406 940.61669922 C30.35052494 897.19093373 21.80702694 852.39003295 15 808 C14.89361206 807.31440002 14.78722412 806.62880005 14.6776123 805.92242432 C11.77086773 787.17118772 9.51568567 768.39287798 7.75 749.5 C7.66691589 748.61755615 7.58383179 747.7351123 7.49822998 746.82592773 C6.32570493 734.22901877 5.54380222 721.63917949 5 709 C4.67 709 4.34 709 4 709 Z " fill="#FDFDFD" transform="translate(0,0)"/>
<path d="M0 0 C193.38 0 386.76 0 586 0 C585.33614259 4.64700188 584.74170553 8.29083312 583.36328125 12.6328125 C582.87299438 14.1962439 582.87299438 14.1962439 582.37280273 15.79125977 C581.84795288 17.44146118 581.84795288 17.44146118 581.3125 19.125 C580.57912202 21.46954997 579.84736991 23.81460909 579.1171875 26.16015625 C578.75592773 27.32047363 578.39466797 28.48079102 578.02246094 29.67626953 C575.81639848 36.8475528 573.7861074 44.06849759 571.76074219 51.29248047 C570.95315238 54.16673302 570.13706224 57.03849396 569.3203125 59.91015625 C565.90480611 71.96280591 562.66719742 84.0500991 559.55712891 96.18505859 C557.56353757 103.92771514 555.43141296 111.61830557 553.19677734 119.29443359 C551.12566468 126.44781211 549.2373306 133.64233595 547.44311523 140.87011719 C546.24970176 145.56937647 544.96053413 150.17160659 543.3249054 154.73722839 C538.05238941 169.8777167 537.01029023 183.59173954 537.1328125 199.52734375 C537.12592555 202.05075614 537.11582551 204.57416151 537.10275269 207.09754944 C537.07904748 213.04389379 537.08505808 218.98969921 537.10702598 224.93600518 C537.13695004 233.45448573 537.11261354 241.97282532 537.09202385 250.49130344 C537.07787014 256.64411692 537.06944035 262.79663449 537.08621216 268.94944763 C537.11543899 285.8131984 536.84766637 302.66367836 536.52685547 319.52392578 C536.0177674 346.32515533 535.73071231 373.12421839 535.52767944 399.929322 C535.47970907 406.164941 535.4281488 412.40053046 535.37695312 418.63612366 C535.25890106 433.0794535 535.14478719 447.52281297 535.03125 461.96617889 C534.85748135 484.04909415 534.68076436 506.13198464 534.5 528.21484375 C534.4896875 529.47976371 534.479375 530.74468367 534.46875 532.04793453 C534.21971974 562.55025755 533.92923462 593.05041802 533.46875 623.55029035 C533.00984165 654.01936154 532.7477234 684.48949104 532.5 714.9609375 C532.47916703 717.51243909 532.45833369 720.06394069 532.4375 722.61544228 C532.26713452 743.52777836 532.10122154 764.44014997 531.9375 785.35253906 C531.82441075 799.79459285 531.70994542 814.23663298 531.59148407 828.67864382 C531.54114309 834.8300152 531.49186575 840.98139027 531.44555664 847.13279343 C531.23526321 875.0129367 530.8860154 902.88440417 530.29107618 930.75918502 C529.92852526 947.76439281 529.71953502 964.77043301 529.55444336 981.77859497 C529.51718842 985.58270325 529.47890115 989.38679875 529.43969727 993.19088745 C529.036502 1032.42156697 528.75237394 1071.65313198 528.46875 1110.8848114 C528.19024067 1149.40802374 527.90014237 1187.93097516 527.52963257 1226.45344162 C527.50097913 1229.45976983 527.47312781 1232.46610431 527.44555664 1235.47244263 C527.39343035 1241.12879122 527.33865485 1246.78510875 527.28125 1252.44140625 C527.27166008 1253.38636963 527.26207016 1254.33133301 527.25218964 1255.30493164 C527.13812769 1266.26413539 526.9861763 1277.22171497 526.77246094 1288.17944336 C526.14486679 1320.87278601 525.86524408 1353.56114416 525.68450928 1386.25982475 C525.64090164 1394.09894112 525.59313473 1401.93802869 525.54443359 1409.77711487 C525.5322646 1411.74502752 525.5322646 1411.74502752 525.51984978 1413.75269598 C525.48670633 1419.11120963 525.45353415 1424.46972308 525.42004013 1429.82823455 C525.3219684 1445.54156049 525.23488041 1461.25484971 525.16801766 1476.96834075 C525.11888661 1488.41766002 525.05083962 1499.86675152 524.96783805 1511.3158775 C524.92242162 1517.66683235 524.88469418 1524.01757888 524.86847687 1530.36868095 C524.78195814 1561.8992866 523.16324778 1592.73583584 519 1624 C518.82175332 1625.35720556 518.64363333 1626.71442776 518.46566296 1628.07166958 C517.58425981 1634.72975208 516.62016185 1641.36774038 515.5625 1648 C515.41692657 1648.93353302 515.27135315 1649.86706604 515.12136841 1650.82888794 C512.54988216 1667.31781398 509.68185292 1683.7185271 506 1700 C505.76990234 1701.0194873 505.53980469 1702.03897461 505.30273438 1703.08935547 C499.1035355 1729.9161703 488.77080293 1769.24521165 464 1785 C457.26885106 1788.89851793 449.55191115 1789.17831238 442 1788 C431.64947824 1784.65402317 422.97282105 1778.23001164 415 1771 C414.14921875 1770.2678125 413.2984375 1769.535625 412.421875 1768.78125 C406.45665961 1763.5845593 401.16005713 1757.9884275 396 1752 C394.71996094 1750.53433594 394.71996094 1750.53433594 393.4140625 1749.0390625 C370.01955773 1722.02912032 351.35621771 1691.12248734 334 1660 C333.28360352 1658.71585205 333.28360352 1658.71585205 332.55273438 1657.40576172 C312.96508168 1622.15991439 295.0454032 1585.99282441 279 1549 C278.66053345 1548.21749878 278.32106689 1547.43499756 277.97131348 1546.62878418 C260.82251111 1507.03240309 245.16031825 1466.91639655 230.5625 1426.3125 C229.95438477 1424.62483521 229.95438477 1424.62483521 229.33398438 1422.90307617 C225.17994144 1411.3494318 221.2136424 1399.8530814 218 1388 C216.9215304 1384.38786336 215.8019966 1380.78866167 214.6875 1377.1875 C211.82822273 1367.87759395 209.15553293 1358.52513645 206.55981445 1349.13867188 C204.75332139 1342.6257489 202.85488079 1336.1496109 200.875 1329.6875 C198.61817643 1322.2943296 196.65439559 1314.86026867 194.8215332 1307.3515625 C193.49636241 1301.93431094 192.07744079 1296.55466732 190.5625 1291.1875 C187.89007123 1281.70343148 185.41112085 1272.17192056 182.94360352 1262.6328125 C182.22364522 1259.86101964 181.4999073 1257.09033451 180.77319336 1254.3203125 C176.62568618 1238.49712585 172.58143416 1222.64825778 168.55883789 1206.79296875 C167.81055557 1203.84380331 167.06117994 1200.89491919 166.31079102 1197.94628906 C162.08151257 1181.32660098 157.89319323 1164.70236196 154 1148 C153.65681355 1146.53707262 153.31347296 1145.07418139 152.9699707 1143.61132812 C142.45533969 1098.74267329 132.55048219 1053.74998159 123.51239014 1008.56054688 C122.88947306 1005.4476681 122.26388548 1002.33533014 121.63812256 999.22302246 C120.29720922 992.55253509 118.96512173 985.88031295 117.63818359 979.20703125 C116.800887 974.99940765 115.95949452 970.79260949 115.11743164 966.5859375 C114.70583559 964.52877098 114.29486542 962.47147914 113.88452148 960.4140625 C112.82550916 955.10688592 111.7567926 949.80194514 110.671875 944.5 C103.61943043 909.88293795 97.37363332 875.10484875 91.69287109 840.23779297 C90.64323533 833.80379439 89.56605653 827.37438499 88.49145508 820.94451904 C88.12572044 818.75431438 87.76093536 816.56395376 87.39648438 814.37353516 C86.09811753 806.57141566 84.79427887 798.77025132 83.48217773 790.97042847 C82.76689947 786.71648055 82.05362759 782.4621972 81.34051514 778.20788574 C80.99528246 776.15133494 80.64916843 774.09493184 80.30206299 772.03869629 C78.39885216 760.76194506 76.59967065 749.48215772 75.01574707 738.15585327 C74.24433358 732.64971425 73.39165102 727.16527307 72.45166016 721.68505859 C71.61972567 716.73932048 70.9116087 711.7749628 70.1875 706.8125 C69.0884081 699.30786917 67.97605647 691.80623366 66.8046875 684.3125 C64.35512284 668.60155375 62.17830239 652.87972893 60.25415039 637.09555054 C58.77538318 624.97224405 57.16728049 612.87501812 55.44165039 600.78442383 C52.05973392 577.06309987 49.17513952 553.29303016 46.40686035 529.49310303 C45.98482518 525.86971649 45.56049496 522.24660407 45.13574219 518.62353516 C41.81625674 490.28295379 38.6094045 461.93675148 35.77319336 433.54345703 C34.52656871 421.07184291 33.19975649 408.61187898 31.81506348 396.15487671 C25.83539234 342.20867469 21.53636301 288.08279282 17 234 C16.92437836 233.09867592 16.84875671 232.19735184 16.77084351 231.2687149 C13.23621114 189.12845303 9.78249488 146.98389767 6.63891602 104.8125 C6.44551424 102.21874709 6.25207458 99.62499701 6.05859375 97.03125 C5.92098381 95.18635986 5.92098381 95.18635986 5.78059387 93.30419922 C5.06624759 83.77494207 4.29567506 74.25114459 3.49880981 64.72848511 C2.4602281 52.30582293 1.55812016 39.88138543 0.8125 27.4375 C0.76952789 26.73512207 0.72655579 26.03274414 0.68228149 25.30908203 C0.56120738 23.30917636 0.44652822 21.30888675 0.33203125 19.30859375 C0.26733643 18.18251709 0.2026416 17.05644043 0.13598633 15.89624023 C-0.04884442 10.6005241 0 5.29894063 0 0 Z " fill="#FDFDFD" transform="translate(274,1449)"/>
<path d="M0 0 C348.15 0 696.3 0 1055 0 C1055 1312.08 1055 2624.16 1055 3976 C706.85 3976 358.7 3976 0 3976 C0 2663.92 0 1351.84 0 0 Z M4 4 C4 224.44 4 444.88 4 672 C4.33 672 4.66 672 5 672 C5.03440186 671.25878906 5.06880371 670.51757812 5.10424805 669.75390625 C8.24183636 606.16544979 24.10219068 545.11914021 69 498 C69.72574219 497.22140625 70.45148438 496.4428125 71.19921875 495.640625 C105.70211356 459.67087884 156.304292 443.01787703 204 434 C204.75313477 433.85079102 205.50626953 433.70158203 206.28222656 433.54785156 C221.99406323 430.44346728 238.05185071 429.24689095 254 428 C255.24990723 427.90066162 256.49981445 427.80132324 257.78759766 427.69897461 C271.59437128 426.7423319 285.41587555 426.80071458 299.25 426.8125 C301.21268829 426.81340637 301.21268829 426.81340637 303.21502686 426.81433105 C399.82054914 426.90787917 495.78757466 443.52349537 779.7956543 519.91040039 C788.78468641 522.94869983 797.80205547 525.84437361 806.875 528.625 C831.25873168 536.14296657 854.91106755 544.02950643 878 555 C878.93054199 555.43844238 879.86108398 555.87688477 880.81982422 556.32861328 C907.67294745 569.0619224 932.13822368 585.66127921 954.27734375 605.46484375 C955.50402918 606.5580124 956.74828807 607.63159597 958.00390625 608.69140625 C962.06691328 612.13763802 965.65639744 615.71963281 969.09765625 619.78515625 C971.27142875 622.31601663 973.54007861 624.74491289 975.8125 627.1875 C1029.35364626 686.07466086 1046.47244482 765.78812653 1050 843 C1050.33 843 1050.66 843 1051 843 C1051 566.13 1051 289.26 1051 4 C705.49 4 359.98 4 4 4 Z M211 462 C210.17628906 462.14550293 209.35257813 462.29100586 208.50390625 462.44091797 C163.9807361 470.44594 122.83639086 487.29420344 90 519 C89.26265625 519.69738281 88.5253125 520.39476562 87.765625 521.11328125 C65.97026344 542.19057857 51.44461602 571.89525681 44 601 C43.49533203 602.7634375 43.49533203 602.7634375 42.98046875 604.5625 C35.58211313 630.71998203 33.47855154 658.18620541 33.66381836 685.25854492 C33.68746687 688.93235312 33.68433633 692.60543118 33.67773438 696.27929688 C33.70348565 718.67096056 35.3308005 740.88715288 37.875 763.125 C37.96059174 763.8832608 38.04618347 764.64152161 38.1343689 765.42276001 C39.53963085 777.81256932 41.2552121 790.11623067 43.38427734 802.40429688 C43.96160263 805.77576669 44.5190314 809.14978913 45.07034302 812.52557373 C53.15202013 861.95449118 62.15861604 911.89012774 77.01464844 959.79638672 C77.94435641 962.81908938 78.85154696 965.847899 79.75175476 968.87950134 C106.81078648 1059.971546 144.15338986 1147.41607534 183 1234 C183.58041046 1235.29393677 183.58041046 1235.29393677 184.17254639 1236.61401367 C188.66335736 1246.62344459 193.16620144 1256.6274288 197.67628479 1266.62818909 C200.28419283 1272.41111065 202.88921892 1278.19532223 205.4921875 1283.98046875 C205.86411224 1284.80706497 206.23603699 1285.63366119 206.61923218 1286.48530579 C208.12014117 1289.82124372 209.62091787 1293.15724112 211.121521 1296.49331665 C215.28908323 1305.758439 219.4602296 1315.02191004 223.640625 1324.28125 C237.81979934 1355.69738696 251.53453532 1387.25997611 265 1419 C464.98 1419 664.96 1419 871 1419 C874.11466933 1411.52479361 877.14158259 1404.11475986 879.8984375 1396.515625 C880.42525871 1395.07468979 880.42525871 1395.07468979 880.96272278 1393.60464478 C881.71267869 1391.55305117 882.46152031 1389.50104993 883.20932007 1387.44866943 C885.22059383 1381.92965884 887.24092418 1376.41396788 889.26171875 1370.8984375 C889.6681813 1369.78876617 890.07464386 1368.67909485 890.49342346 1367.53579712 C893.72161731 1358.73371736 897.00584637 1349.95380923 900.31686401 1341.18261719 C916.57079171 1298.10164707 932.26866334 1254.82255236 947.17126465 1211.2552948 C949.1484832 1205.47509184 951.14161878 1199.70086033 953.15625 1193.93359375 C956.99878377 1182.92294348 960.77065528 1171.93191152 963.94140625 1160.70703125 C964.97929333 1157.07251156 966.10127872 1153.47587377 967.25 1149.875 C969.82591069 1141.7494234 972.19038842 1133.56177254 974.5625 1125.375 C974.75227417 1124.72013611 974.94204834 1124.06527222 975.13757324 1123.39056396 C977.13855115 1116.48059237 979.12529729 1109.56663599 981.09765625 1102.6484375 C982.21095556 1098.74433236 983.33594341 1094.84471903 984.4921875 1090.953125 C987.94881219 1079.25264681 990.82571448 1067.475265 993.50390625 1055.57421875 C994.67343238 1050.38401851 995.92028318 1045.21749348 997.19970703 1040.0534668 C1003.09791015 1016.1425183 1007.771892 991.90335194 1011.59130859 967.57714844 C1011.98028029 965.12434962 1012.38721571 962.67531925 1012.80078125 960.2265625 C1015.03157758 946.87705962 1016.65986012 933.46667778 1018 920 C1018.16097168 918.41300293 1018.16097168 918.41300293 1018.32519531 916.79394531 C1020.07511517 898.63366587 1020.20784198 880.47989333 1020.25 862.25 C1020.25526703 861.09633942 1020.26053406 859.94267883 1020.26596069 858.75405884 C1020.32478348 842.07905813 1019.53456295 825.60351895 1018 809 C1017.92466034 808.17610275 1017.84932068 807.35220551 1017.771698 806.50334167 C1016.53025763 793.14419242 1013.80877973 780.10694161 1011 767 C1010.81066895 766.0920166 1010.62133789 765.1840332 1010.42626953 764.24853516 C997.9683951 704.98194787 964.12108647 646.28471167 914 611 C913.29875 610.49742676 912.5975 609.99485352 911.875 609.47705078 C888.49515214 592.77787434 863.28909308 579.06249127 836.3984375 568.90869141 C834.06054607 568.02293897 831.73323436 567.11317772 829.40625 566.19921875 C819.78463643 562.47750591 810.08055317 559.58245747 800.12036133 556.91040039 C791.25292584 554.47519039 782.63989102 551.50391365 774 548.375 C765.37212976 545.25083344 756.77704172 542.17697919 747.93457031 539.70825195 C742.47392206 538.17702861 737.11859068 536.38856457 731.75 534.5625 C723.89446865 531.90198647 715.99930401 529.50201301 708.01220703 527.26977539 C701.51563316 525.45047008 695.0689432 523.49696818 688.625 521.5 C679.96928109 518.8306908 671.26903432 516.44322051 662.49365234 514.20141602 C656.04686339 512.55038225 649.6421697 510.78834762 643.25 508.9375 C629.09683827 504.85417238 614.90772624 501.14260558 600.52783203 497.94287109 C593.79762767 496.43677059 587.11769748 494.77531437 580.4375 493.0625 C567.84288625 489.85689817 555.14044351 487.26054743 542.40283203 484.69384766 C539.38775225 484.07906385 536.37855816 483.44380158 533.37109375 482.79296875 C503.78497153 476.40730182 473.93739237 471.19797252 443.96484375 467.0078125 C439.83493305 466.42932082 435.74207204 465.78602042 431.6484375 464.9921875 C424.05368256 463.56777703 416.36524446 462.82630523 408.6875 462 C407.88610596 461.91284729 407.08471191 461.82569458 406.2590332 461.73590088 C401.51613749 461.22017884 396.77242024 460.71282749 392.027771 460.21350098 C390.27309367 460.02875362 388.51860863 459.84218163 386.76416016 459.65527344 C380.51616617 458.99946194 374.26449373 458.4705723 368 458 C366.86675293 457.90976562 365.73350586 457.81953125 364.56591797 457.7265625 C314.0126432 453.8373437 261.07401516 452.99900449 211 462 Z M4 709 C4 1785.79 4 2862.58 4 3972 C349.51 3972 695.02 3972 1051 3972 C1051 2949 1051 1926 1051 872 C1050.67 872 1050.34 872 1050 872 C1049.96036133 872.92707764 1049.92072266 873.85415527 1049.87988281 874.80932617 C1046.11425564 959.6763684 1028.88534402 1042.7990354 999 1145 C998.79435425 1145.67196411 998.5887085 1146.34392822 998.37683105 1147.03625488 C995.00008872 1158.05047351 991.51607309 1169.02957922 988 1180 C987.71318359 1180.89674438 987.42636719 1181.79348877 987.13085938 1182.71740723 C977.00733947 1214.36023975 966.29696892 1245.75734412 955 1277 C954.63088501 1278.0214209 954.26177002 1279.0428418 953.88146973 1280.09521484 C943.48841684 1308.83855452 932.85585737 1337.49167958 922.15966797 1366.12329102 C916.44188095 1381.43159901 910.74602626 1396.7476728 905.10281372 1412.08364868 C904.33951655 1414.15765412 903.57544636 1416.23137527 902.81051636 1418.30477905 C901.75536755 1421.16584256 900.7033769 1424.02804739 899.65234375 1426.890625 C899.35432861 1427.69754288 899.05631348 1428.50446075 898.74926758 1429.33583069 C893.58199776 1443.450947 889.2600631 1457.7419546 885.16015625 1472.1953125 C884.59253719 1474.18667956 884.02461173 1476.1779593 883.45640564 1478.16915894 C881.95443785 1483.43555028 880.45639883 1488.70305094 878.95928955 1493.9708252 C878.08975075 1497.02915405 877.21911742 1500.08716836 876.34790039 1503.14501953 C876.08313647 1504.07440814 875.81837255 1505.00379674 875.54558549 1505.96134864 C874.97302503 1507.96976883 874.39982197 1509.97800603 873.82574212 1511.98599245 C872.32589895 1517.23664267 870.8388495 1522.49027388 869.3797856 1527.75241065 C866.11568135 1539.45422846 862.69813705 1551.06327124 858.90999075 1562.60576348 C844.31240993 1607.1131407 837.89203954 1647.22525825 838.68802222 1693.96217342 C838.85089793 1703.96583495 838.83556843 1713.96906201 838.82974339 1723.97378159 C838.8292977 1727.91613469 838.83013283 1731.85848635 838.83159572 1735.80083919 C838.83190336 1736.7985899 838.832211 1737.79634062 838.83252797 1738.82432621 C838.83705251 1746.0894131 838.86391978 1753.35423299 838.90001601 1760.61922574 C839.06220923 1794.36119377 838.82836364 1828.09123684 838.44821167 1861.83117676 C838.43324732 1863.16912351 838.41829849 1864.50707044 838.40336504 1865.84501754 C838.26530431 1878.20749211 838.12462542 1890.56993586 837.98043866 1902.93234052 C837.74470935 1923.17008813 837.5296069 1943.40798391 837.32796574 1963.64609909 C837.31696552 1964.74938216 837.31696552 1964.74938216 837.30574309 1965.87495378 C837.23094476 1973.37991843 837.15652705 1980.88488682 837.08238076 1988.38985794 C836.98401367 1998.3457806 836.88455519 2008.30169206 836.78457385 2018.25759864 C836.77687113 2019.02468139 836.76916841 2019.79176414 836.76123227 2020.58209183 C836.72998415 2023.6936468 836.69872966 2026.80520171 836.66746386 2029.9167565 C836.61229069 2035.40761652 836.55719588 2040.89847732 836.50214502 2046.38933857 C836.27653275 2068.89057624 836.05002613 2091.39180481 835.82299995 2113.89302826 C835.81074178 2115.10797681 835.81074178 2115.10797681 835.79823597 2116.34746977 C835.69848129 2126.2341908 835.59869382 2136.1209115 835.49889672 2146.00763211 C835.34701334 2161.05465886 835.19519938 2176.10168631 835.04339036 2191.14871381 C835.02637954 2192.83479379 835.00936855 2194.52087376 834.9923574 2196.20695374 C834.59548015 2235.54403319 834.199216 2274.88111881 833.80321141 2314.21820705 C833.77709221 2316.81274673 833.75097235 2319.4072864 833.7248524 2322.00182607 C833.32111364 2362.10625488 832.91770339 2402.21068698 832.51483154 2442.31512451 C832.49721626 2444.06863679 832.47960097 2445.82214907 832.46198565 2447.57566134 C832.38277387 2455.46081113 832.30356415 2463.34596093 832.22435462 2471.23111074 C832.18919636 2474.73104155 832.15403788 2478.23097236 832.11887942 2481.73090317 C832.09253759 2484.35317859 832.06619623 2486.97545401 832.03985489 2489.59772943 C831.64243551 2529.16033349 831.24463899 2568.72293368 830.84532261 2608.28551865 C830.83271746 2609.53440962 830.83271746 2609.53440962 830.81985767 2610.80853072 C830.64364768 2628.26671054 830.46733895 2645.72488935 830.29089777 2663.18306683 C830.20830451 2671.35541988 830.12573659 2679.52777319 830.04318428 2687.70012665 C830.03099913 2688.90635388 830.03099913 2688.90635388 830.01856781 2690.13694934 C829.75867054 2715.86590299 829.50044138 2741.59487305 829.24316398 2767.32385303 C828.98461196 2793.17997141 828.72455232 2819.03607413 828.46240684 2844.89215634 C828.42603482 2848.47968958 828.38968095 2852.06722301 828.35333824 2855.65475655 C828.34621607 2856.3577564 828.3390939 2857.06075625 828.33175591 2857.78505913 C828.22013456 2868.8072717 828.11016083 2879.82950003 828.00091832 2890.85173641 C827.89288362 2901.74862385 827.7829785 2912.64549122 827.67134888 2923.54234243 C827.61198656 2929.34201376 827.55333809 2935.14168938 827.49698352 2940.94139078 C827.36717936 2954.2568332 827.22049771 2967.5719124 827.04159515 2980.88679189 C827.01319654 2983.01229869 826.98541678 2985.13781383 826.95817424 2987.26333576 C826.87189787 2993.96494249 826.77404402 3000.66622405 826.66150805 3007.36744297 C826.62764068 3009.46129312 826.59685595 3011.55519621 826.56967676 3013.64914385 C826.28451105 3035.1308309 824.06611686 3056.30439219 821.3092041 3077.59490967 C821.02242144 3079.82559872 820.74461475 3082.05713066 820.47167969 3084.28955078 C813.48327991 3141.15747605 804.12905588 3216.1437754 758.5078125 3256.1875 C747.56245366 3264.51315001 733.59232973 3268.08859593 720 3267 C695.07677521 3262.42784311 677.0651389 3249.03785638 659 3232 C658.26652344 3231.3090625 657.53304687 3230.618125 656.77734375 3229.90625 C652.25553812 3225.51928947 648.26842518 3220.8021817 644.33203125 3215.88671875 C642.81691567 3214.01122392 641.27379174 3212.15789433 639.69921875 3210.33203125 C597.28303703 3161.11259944 566.15875645 3097.41863422 539.55957031 3038.45166016 C538.19464434 3035.43078925 536.81836227 3032.415599 535.43617249 3029.40261841 C527.43664159 3011.95899108 519.81616361 2994.37837549 512.50097656 2976.63720703 C511.10908833 2973.2643458 509.70765461 2969.89560713 508.3046875 2966.52734375 C481.90704795 2902.81348873 460.88230638 2837.63715286 442.84710693 2771.12017822 C441.99799368 2767.99261007 441.14522836 2764.86605843 440.29150391 2761.73974609 C416.83402227 2675.77060658 395.65747758 2589.18807388 285.2698288 1924.42913818 C285.0035144 1922.03163842 284.73648799 1919.63421888 284.46929932 1917.23681641 C274.40937445 1826.90332439 266.11993866 1736.36807714 249.7890625 1527.9296875 C249.69777824 1526.63652618 249.60649399 1525.34336487 249.51244354 1524.01101685 C248.61714601 1511.32668783 247.72656787 1498.64209511 246.86084938 1485.95570946 C246.54182055 1481.29738017 246.21730515 1476.63944312 245.89167404 1471.9815712 C245.74167108 1469.81582624 245.59425214 1467.64990054 245.44960403 1465.48379135 C245.25104458 1462.51230569 245.04374112 1459.54154864 244.83447266 1456.57080078 C244.77940552 1455.71227634 244.72433838 1454.85375191 244.66760254 1453.96921158 C244.18674206 1447.34414117 243.07107539 1441.06489381 240.42211914 1434.91870117 C239.97261902 1433.86388802 239.97261902 1433.86388802 239.51403809 1432.7877655 C239.19100708 1432.04698257 238.86797607 1431.30619965 238.53515625 1430.54296875 C238.19045288 1429.73962601 237.84574951 1428.93628326 237.49060059 1428.1085968 C236.35418945 1425.46546962 235.20867564 1422.82640598 234.0625 1420.1875 C233.25290109 1418.31261775 232.44358012 1416.43761546 231.63452148 1414.5625 C217.81686449 1382.59060187 203.60078485 1350.80063523 189.20941162 1319.08358765 C185.41561878 1310.71885115 181.65774897 1302.33832619 177.90722656 1293.95410156 C174.90555568 1287.24592162 171.89402298 1280.5423726 168.87109375 1273.84375 C144.26790045 1219.31586125 120.050631 1164.61875913 98 1109 C97.71723206 1108.2877124 97.43446411 1107.5754248 97.14312744 1106.84155273 C76.47607015 1054.74312264 57.75882445 1001.62010002 43.61804199 947.36602783 C43.02996613 945.11471824 42.43449604 942.86550128 41.83691406 940.61669922 C30.35052494 897.19093373 21.80702694 852.39003295 15 808 C14.89361206 807.31440002 14.78722412 806.62880005 14.6776123 805.92242432 C11.77086773 787.17118772 9.51568567 768.39287798 7.75 749.5 C7.66691589 748.61755615 7.58383179 747.7351123 7.49822998 746.82592773 C6.32570493 734.22901877 5.54380222 721.63917949 5 709 C4.67 709 4.34 709 4 709 Z M274 1449 C273.96233312 1458.29600457 273.96233312 1458.29600457 274.31958008 1467.5300293 C274.38998001 1468.66389572 274.46037994 1469.79776215 274.53291321 1470.96598816 C274.61099716 1472.15670425 274.68908112 1473.34742035 274.76953125 1474.57421875 C274.85120041 1475.85512894 274.93286957 1477.13603912 275.01701355 1478.45576477 C275.19020959 1481.16460918 275.36619731 1483.87325375 275.54418945 1486.58178711 C275.72138173 1489.28110953 275.89500098 1491.98061593 276.06469727 1494.68041992 C277.05374273 1510.38622982 278.22726755 1526.05683287 279.69531631 1541.72522354 C280.95282867 1555.15829354 281.96172354 1568.60251808 282.90551758 1582.06115723 C286.08117652 1627.24912511 289.93369508 1672.3842873 293.78808594 1717.51847839 C293.98455578 1719.81914763 294.18077411 1722.11983818 294.37695312 1724.42053223 C299.01068224 1778.714432 303.90546202 1833.05765896 310.28173828 1887.17773438 C310.47568861 1888.82420666 310.66953728 1890.47069092 310.86328125 1892.1171875 C310.9574231 1892.91707092 311.05156494 1893.71695435 311.14855957 1894.54107666 C311.87705912 1900.79541623 312.53382583 1907.05575605 313.16796875 1913.3203125 C313.31571495 1914.77938271 313.31571495 1914.77938271 313.46644592 1916.26792908 C313.6679494 1918.26026798 313.86939029 1920.25261321 314.07077026 1922.2449646 C316.23178418 1943.59042347 318.77197622 1964.87517919 321.50146484 1986.15527344 C321.78506707 1988.37041246 322.0684355 1990.58558143 322.3515625 1992.80078125 C322.48999573 1993.88327652 322.62842896 1994.96577179 322.77105713 1996.08106995 C323.78412781 2004.08725626 324.69023284 2012.10236576 325.5625 2020.125 C326.64000285 2030.01614625 327.89363131 2039.84899907 329.375 2049.6875 C331.21259283 2062.14800545 332.85269235 2074.6223393 334.375 2087.125 C336.29876984 2102.8805631 338.44164056 2118.59969012 340.6875 2134.3125 C340.83797791 2135.36979309 340.98845581 2136.42708618 341.14349365 2137.51641846 C341.57595761 2140.54911268 342.01183907 2143.58129243 342.44921875 2146.61328125 C342.57613602 2147.50129929 342.70305328 2148.38931732 342.83381653 2149.304245 C343.61659875 2154.68458188 344.53854915 2160.0262316 345.52781677 2165.37223816 C346.21281323 2169.18433367 346.77174721 2173.01061289 347.32421875 2176.84375 C349.22591469 2189.7524387 351.36142788 2202.62268789 353.48258209 2215.49678802 C353.93087379 2218.21874788 354.37822575 2220.9408619 354.82561874 2223.66296959 C356.21389457 2232.10917238 357.60606074 2240.55472993 359 2249 C359.16002502 2249.96981812 359.32005005 2250.93963623 359.48492432 2251.93884277 C360.93492054 2260.7233609 362.39432111 2269.50622826 363.87210083 2278.28611755 C364.54548172 2282.28758798 365.21513678 2286.2896469 365.88037109 2290.29248047 C370.32953757 2317.05162196 375.15757774 2343.71208096 380.33288574 2370.33996582 C382.17792254 2379.86186741 383.93057615 2389.40021815 385.6824646 2398.93960571 C388.23175002 2412.81025088 390.8947767 2426.63140849 393.92260742 2440.40698242 C395.57118843 2447.91718479 397.07555797 2455.44421469 398.5 2463 C402.48184018 2484.01967427 407.16598831 2504.87927922 411.96801758 2525.72387695 C414.06847523 2534.8527579 416.09929631 2543.99385461 418.07403564 2553.1506958 C420.85065611 2566.02006709 423.82939832 2578.82786295 426.984375 2591.60986328 C428.71732576 2598.64312073 430.39264065 2605.68523116 432.00402832 2612.74745178 C435.63883964 2628.66733329 439.55905774 2644.50929425 443.53753662 2660.34576416 C444.24090986 2663.14838064 444.94161681 2665.95166089 445.64232826 2668.75494385 C449.01372015 2682.23997111 452.40745257 2695.71773461 455.97827148 2709.15161133 C456.87451798 2712.52736605 457.7554177 2715.90636225 458.625 2719.2890625 C460.97985577 2728.43734551 463.3990215 2737.54886522 466.10986328 2746.59838867 C467.77922478 2752.19002273 469.34362066 2757.80658963 470.875 2763.4375 C471.12596436 2764.35917969 471.37692871 2765.28085938 471.63549805 2766.23046875 C472.98451372 2771.20307742 474.31305042 2776.18051907 475.62109375 2781.1640625 C479.65896972 2796.47949408 484.18356225 2811.59070869 488.95849609 2826.68994141 C489.97102883 2829.90792519 490.96733415 2833.13039565 491.95703125 2836.35546875 C492.45275635 2837.96615234 492.45275635 2837.96615234 492.95849609 2839.609375 C493.67450584 2841.94035094 494.38686994 2844.27244885 495.09619141 2846.60546875 C498.61820494 2858.11245856 502.54819335 2869.46903036 506.5625 2880.8125 C506.92659973 2881.84145386 507.29069946 2882.87040771 507.66583252 2883.93054199 C521.86399996 2923.93250833 537.77194318 2963.21260246 555 3002 C555.33710999 3002.7606073 555.67421997 3003.5212146 556.02154541 3004.30487061 C580.83511882 3060.26599643 608.239093 3115.48052293 643 3166 C643.45181641 3166.66032227 643.90363281 3167.32064453 644.36914062 3168.00097656 C653.04957492 3180.634942 662.70112471 3192.64806998 673 3204 C673.43715332 3204.49677246 673.87430664 3204.99354492 674.32470703 3205.50537109 C686.19595788 3218.98536101 701.21879928 3234.53646655 719.7734375 3237.62890625 C728.850223 3237.93409101 736.60874057 3235.94433759 743.75 3230.25 C756.95534822 3217.78169447 763.80860894 3199.65705023 770 3183 C770.33652588 3182.10804932 770.67305176 3181.21609863 771.01977539 3180.29711914 C781.75515077 3151.4440567 786.08675428 3120.00186828 790.6875 3089.6875 C790.82598358 3088.79160156 790.96446716 3087.89570313 791.10714722 3086.97265625 C792.17800791 3079.99465033 793.10341729 3073.00232271 794 3066 C794.16412478 3064.74046446 794.32824957 3063.48092892 794.49734783 3062.18322563 C798.15810698 3033.59639395 798.67002053 3005.18020545 798.77650237 2976.38955069 C798.80469574 2969.93059344 798.85521424 2963.47180543 798.90315247 2957.01296997 C798.98095423 2946.15615531 799.04638532 2935.29933658 799.10131836 2924.44238281 C799.18114272 2908.67840339 799.27906079 2892.91457803 799.38311335 2877.15074147 C799.39645435 2875.12954894 799.40975958 2873.10835618 799.42305303 2871.08716333 C799.42742184 2870.42299132 799.43179066 2869.75881932 799.43629187 2869.07452089 C799.44509087 2867.73674871 799.45388969 2866.39897652 799.46268833 2865.06120434 C799.48451753 2861.74315318 799.50639531 2858.42510236 799.52834952 2855.10705203 C799.58005516 2847.26946784 799.62965311 2839.43187372 799.6776334 2831.59426588 C799.87748498 2799.06850485 800.20626441 2766.55313541 800.83521938 2734.0327177 C801.16874915 2716.54159266 801.31188828 2699.04753287 801.47232056 2681.55412674 C801.50097041 2678.45761701 801.53052055 2675.36111695 801.56030273 2672.26461792 C801.92695158 2634.08468307 802.2083493 2595.90418452 802.484375 2557.72351646 C802.76999946 2518.22021016 803.06326777 2478.71714308 803.47036743 2439.21485519 C803.50711924 2435.61520726 803.54243675 2432.01554614 803.57737732 2428.4158802 C803.75153707 2411.19775877 803.98749147 2393.98308734 804.35491943 2376.76792717 C804.95303369 2348.70552173 805.26102115 2320.64529663 805.47232056 2292.57764769 C805.52014544 2286.32865186 805.57178938 2280.07968744 805.62304688 2273.83071899 C805.74132592 2259.34081335 805.8553093 2244.8508756 805.96875 2230.3609314 C806.13227501 2209.50334771 806.29844269 2188.64578537 806.46875 2167.78825593 C806.48962856 2165.23117174 806.51046169 2162.67408718 806.53125 2160.11700225 C806.77447177 2130.23676987 807.04890659 2100.3583212 807.5 2070.48046875 C807.96933874 2039.39300401 808.24653351 2008.30476621 808.5 1977.21484375 C808.5103125 1975.95502969 808.520625 1974.69521563 808.53125 1973.39722538 C808.71241977 1951.26177739 808.88849603 1929.12628908 809.0625 1906.99078369 C809.17573321 1892.59110437 809.29029153 1878.19143796 809.40851593 1863.79179865 C809.45875013 1857.65982926 809.50799708 1851.5278562 809.55444336 1845.39585686 C809.75797931 1818.56578187 810.08505368 1791.74286041 810.59549117 1764.91676998 C810.9134358 1748.12790109 811.12274279 1731.35087557 811.07696915 1714.5586071 C811.06480653 1708.22069296 811.08624341 1701.88281862 811.1015625 1695.54492188 C811.11984341 1687.67264979 811.12869244 1679.8007171 811.09960938 1671.9284668 C811.07551927 1665.37324091 811.08865561 1658.81864341 811.12261581 1652.26346016 C811.12927494 1649.8235248 811.12401811 1647.38351972 811.10525894 1644.94364738 C810.99224182 1629.31318103 812.93694969 1616.14721417 818.18595505 1601.40498543 C819.38765976 1597.85471181 820.2600897 1594.27146855 821.125 1590.625 C822.41028806 1585.27601396 823.84867687 1580.01381364 825.4375 1574.75 C827.30087538 1568.55945291 828.95891773 1562.34091626 830.5 1556.0625 C832.60356229 1547.50050356 834.88992208 1539.0063803 837.2890625 1530.52294922 C838.07408179 1527.73710124 838.85009095 1524.94883303 839.625 1522.16015625 C844.30384465 1505.33906815 849.01760155 1488.52380441 854.21875 1471.85546875 C854.58814697 1470.67009521 854.95754395 1469.48472168 855.33813477 1468.26342773 C856.05711837 1465.96565001 856.78135355 1463.66950724 857.51147461 1461.37524414 C857.83639893 1460.33875732 858.16132324 1459.30227051 858.49609375 1458.234375 C858.93199829 1456.86104004 858.93199829 1456.86104004 859.37670898 1455.45996094 C860.16374199 1452.77670397 860.16374199 1452.77670397 860 1449 C666.62 1449 473.24 1449 274 1449 Z " fill="#010101" transform="translate(0,0)"/>
<path d="M0 0 C348.15 0 696.3 0 1055 0 C1055 1312.08 1055 2624.16 1055 3976 C706.85 3976 358.7 3976 0 3976 C0 2663.92 0 1351.84 0 0 Z M4 4 C4 1313.44 4 2622.88 4 3972 C349.51 3972 695.02 3972 1051 3972 C1051 2662.56 1051 1353.12 1051 4 C705.49 4 359.98 4 4 4 Z " fill="#FDFDFD" transform="translate(0,0)"/>
<path d="M0 0 C1.18350659 2.15986119 2.17021853 4.23614553 3.125 6.49609375 C3.5733445 7.52023376 3.5733445 7.52023376 4.03074646 8.56506348 C4.6839786 10.06022836 5.33235319 11.5575224 5.97653198 13.05661011 C7.37728617 16.31517942 8.80197673 19.56310285 10.22520447 22.81190491 C10.98213516 24.54034027 11.73785631 26.26930577 12.4924469 27.99876404 C16.72145488 37.68393582 21.07366202 47.31250311 25.4375 56.9375 C25.83613251 57.81772827 26.23476501 58.69795654 26.64547729 59.6048584 C33.97320868 75.78437118 41.3656806 91.93374572 48.804245 108.06257629 C50.98828358 112.79942168 53.16491512 117.53959368 55.3364563 122.28218079 C64.65488487 142.62962167 74.19952372 162.84666907 84.04484558 182.94442749 C86.25330085 187.45737385 88.43724425 191.98135571 90.6015625 196.515625 C96.33630156 208.52776818 102.18583366 220.43375428 108.484375 232.16015625 C110.30812556 235.57733835 112.10707799 239.00734455 113.90625 242.4375 C122.54040631 258.8721262 131.47387125 275.06029656 141 291 C142.07326909 292.80968687 143.14619074 294.61957984 144.21875 296.4296875 C159.96230659 322.92482126 177.07940806 348.02864503 197.43530273 371.20776367 C198.65393556 372.6036107 199.85415957 374.01553705 201.046875 375.43359375 C206.12127269 381.404158 211.80428089 386.22555162 218 391 C218.8765625 391.69222656 219.753125 392.38445312 220.65625 393.09765625 C235.13329202 404.14704568 249.74301672 409.63824181 268 408 C272.5595051 407.11209638 276.71069005 405.76926761 281 404 C281.85722656 403.649375 282.71445312 403.29875 283.59765625 402.9375 C294.7756699 397.83564908 304.14955292 389.36960785 313 381 C313.68707031 380.35417969 314.37414062 379.70835937 315.08203125 379.04296875 C320.54419932 373.75317679 325.29289332 367.96233513 330 362 C330.7940625 360.9996875 331.588125 359.999375 332.40625 358.96875 C338.99906153 350.58111933 345.07110564 341.86602913 351 333 C351.43924805 332.34580078 351.87849609 331.69160156 352.33105469 331.01757812 C384.52995616 282.85050387 410.02192308 229.67530821 434.27197266 177.18505859 C437.57929413 170.03066877 440.94791726 162.91018547 444.375 155.8125 C449.64345401 144.89227127 454.64495492 133.85447964 459.61083984 122.79418945 C463.53238851 114.08383286 467.65904336 105.51003531 472 97 C475.74422073 97.61666047 478.86021688 98.69565575 482.30078125 100.28515625 C483.27724609 100.73310547 484.25371094 101.18105469 485.25976562 101.64257812 C486.26716797 102.11115234 487.27457031 102.57972656 488.3125 103.0625 C489.33923828 103.53494141 490.36597656 104.00738281 491.42382812 104.49414062 C493.951452 105.65802325 496.47670072 106.82677855 499 108 C494.85798457 118.28336206 490.22800314 128.32167333 485.5625 138.375 C484.75445272 140.11958047 483.9465115 141.86421008 483.13867188 143.60888672 C481.51731573 147.10910923 479.89430962 150.60855996 478.27001953 154.10742188 C476.57567901 157.75758891 474.88566547 161.40972157 473.19851685 165.06321716 C465.81375207 181.04805585 458.20146978 196.91282041 450.46972656 212.73242188 C446.78739467 220.26702138 443.12440785 227.80793093 439.54223633 235.39086914 C429.74748945 256.11472524 419.01453693 276.30938491 407.60449219 296.18505859 C405.97953446 299.035905 404.38081286 301.90002627 402.7890625 304.76953125 C388.50180928 330.47489393 372.5317155 355.13844442 354 378 C353.25492188 378.9384375 352.50984375 379.876875 351.7421875 380.84375 C329.79153207 408.22306215 302.17117906 433.89185639 266 439 C258.07632169 439.43238346 250.6717104 439.0201003 243 437 C242.03964844 436.76667969 241.07929687 436.53335937 240.08984375 436.29296875 C221.16908023 431.15833776 205.76225329 419.74726738 191.69140625 406.48046875 C189.06424205 403.997832 189.06424205 403.997832 186.35546875 401.90234375 C184.21451122 400.17324538 182.51729444 398.47254643 180.75 396.375 C178.14099507 393.31616664 175.47370353 390.33216383 172.75 387.375 C167.16624597 381.16978262 162.0584049 374.63252961 157 368 C156.48872559 367.33452148 155.97745117 366.66904297 155.45068359 365.98339844 C119.08987477 318.45947628 91.09562343 264.62616738 64.48339844 211.22753906 C62.72675033 207.70284066 60.96284291 204.18183236 59.19704342 200.66171169 C50.64022603 183.59515839 42.36200264 166.43224594 34.41052246 149.07452393 C32.33536441 144.55128999 30.23595981 140.03943618 28.13671875 135.52734375 C14.42254599 105.98965862 0.78895616 76.42202865 -12.38745117 46.63989258 C-16.6036738 37.11337294 -20.86926929 27.61292975 -25.25927734 18.16479492 C-25.62746582 17.36533447 -25.9956543 16.56587402 -26.375 15.7421875 C-26.69210937 15.0601123 -27.00921875 14.37803711 -27.3359375 13.67529297 C-28 12 -28 12 -28 10 C-23.90281468 8.13011673 -19.79624404 6.28182961 -15.6875 4.4375 C-14.52025391 3.90447266 -13.35300781 3.37144531 -12.15039062 2.82226562 C-11.03212891 2.32275391 -9.91386719 1.82324219 -8.76171875 1.30859375 C-7.73006592 0.84251709 -6.69841309 0.37644043 -5.63549805 -0.10375977 C-3 -1 -3 -1 0 0 Z " fill="#020202" transform="translate(303,873)"/>
</svg>
