<?xml version="1.0" encoding="UTF-8"?>
<svg version="1.1" xmlns="http://www.w3.org/2000/svg" width="886" height="3975">
<path d="M0 0 C292.38 0 584.76 0 886 0 C886 1311.75 886 2623.5 886 3975 C593.62 3975 301.24 3975 0 3975 C0 2663.25 0 1351.5 0 0 Z M4 4 C4 1110.49 4 2216.98 4 3357 C4.33 3357 4.66 3357 5 3357 C10.6822848 3306.08590649 16.1228141 3255.16382924 20.69634247 3204.13697815 C29.8449955 3102.09344332 41.14863388 3000.27109877 61.45201206 2822.64675426 C66.99827626 2774.25382577 72.53519405 2725.86064716 77.8125 2677.4375 C77.93248981 2676.33715549 78.05247963 2675.23681099 78.1761055 2674.10312271 C80.59828818 2651.87461117 82.96482734 2629.64160482 85.171875 2607.390625 C85.2971309 2606.12921283 85.2971309 2606.12921283 85.42491722 2604.84231758 C86.18674099 2597.16178297 86.94279357 2589.4808109 87.6685133 2581.79677296 C92.50184447 2530.68125963 92.50184447 2530.68125963 109.75244141 2515.77758789 C113.46091101 2512.84456951 117.49834209 2510.52531886 121.5625 2508.125 C130.10815912 2502.86488014 134.87201614 2498.17489975 140.0612793 2489.58984375 C144.34428385 2482.56229296 148.78791493 2475.79865022 153.796875 2469.265625 C166.89169979 2451.99349646 173.86372542 2437.68185801 175.98605347 2416.02301025 C176.90267434 2407.00914734 178.32783994 2398.08805588 179.7578125 2389.14453125 C179.94780319 2387.95240367 179.94780319 2387.95240367 180.14163208 2386.7361927 C180.65949045 2383.48697838 181.17822584 2380.23790641 181.69850922 2376.98907948 C182.97530617 2369.01495758 184.23255401 2361.03794765 185.46340561 2353.05660057 C185.68886916 2351.59987016 185.91610324 2350.14341256 186.14520645 2348.68725014 C186.46285704 2346.66794499 186.7748264 2344.64783785 187.08544922 2342.62744141 C187.26276581 2341.48804108 187.4400824 2340.34864075 187.62277222 2339.17471313 C187.99453314 2336.04600859 188.23857134 2333.14398282 188 2330 C185.59088108 2327.71468777 185.59088108 2327.71468777 182.3125 2325.875 C159.35311251 2311.1641724 142.58008213 2287.30447447 135.125 2261.125 C130.63718123 2239.1964963 134.53232338 2218.02123607 146 2199 C148.44853691 2195.44068697 151.11955571 2192.21512448 154 2189 C155.03060547 2187.77410156 155.03060547 2187.77410156 156.08203125 2186.5234375 C162.54054888 2179.00595572 169.87253135 2171.11875854 179.1015625 2167.1328125 C185.47599049 2164.19262033 185.47599049 2164.19262033 190 2159 C191.89510001 2149.84386721 190.91168154 2140.23650281 190 2131 C188.38544922 2130.21689453 188.38544922 2130.21689453 186.73828125 2129.41796875 C165.53424678 2118.85252701 150.41265751 2103.69577571 142.28417969 2081.00146484 C134.73215222 2057.73634796 136.00514442 2032.95908482 147 2011 C157.89154513 1991.20959845 172.80223539 1982.0988823 193 1972 C193 1959.79 193 1947.58 193 1935 C186.07 1932.03 186.07 1932.03 179 1929 C159.48097067 1917.24874765 143.72394535 1900.58394057 137.125 1878.3125 C132.90466477 1860.27777555 135.72612802 1842.91672214 145.4375 1827.125 C157.14412575 1809.77813701 173.72611951 1800.74606959 192 1791 C191.67 1777.8 191.34 1764.6 191 1751 C186.545 1749.515 186.545 1749.515 182 1748 C163.5858039 1740.03613045 149.910884 1728.88898783 142.0625 1709.9765625 C134.19526912 1687.93674658 134.9351523 1665.21750957 145.02978516 1643.87011719 C154.81061285 1625.01728877 171.07384119 1614.41162614 190 1606 C190 1585.21 190 1564.42 190 1543 C184.39 1541.68 178.78 1540.36 173 1539 C155.92676102 1531.70657752 144.00026267 1520.12919103 136.74755859 1502.93017578 C129.0679357 1483.10160014 129.87485638 1460.35572991 138.125 1440.875 C148.47589066 1417.92374686 165.94545247 1403.97946662 189 1395 C189.99 1394.67 190.98 1394.34 192 1394 C192.04487549 1393.25468018 192.08975098 1392.50936035 192.13598633 1391.74145508 C196.78907709 1315.26967577 201.87991611 1239.63664711 257 1181 C257.62132812 1180.31292969 258.24265625 1179.62585937 258.8828125 1178.91796875 C295.13865143 1140.30468738 353.97169762 1121.29746649 405.5546875 1119.08984375 C406.69164062 1119.06019531 407.82859375 1119.03054688 409 1119 C410.05445313 1118.96003906 411.10890625 1118.92007812 412.1953125 1118.87890625 C452.25452769 1118.0584163 493.86840089 1127.64105187 528 1149 C528.99902344 1149.62390625 529.99804688 1150.2478125 531.02734375 1150.890625 C550.39850652 1163.41442537 567.79574635 1178.99817978 581 1198 C581.71929688 1199.02480469 582.43859375 1200.04960938 583.1796875 1201.10546875 C593.76227402 1216.86636717 602.44583822 1234.19198678 609 1252 C609.25974609 1252.69834961 609.51949219 1253.39669922 609.78710938 1254.11621094 C615.80257808 1270.52135955 619.80876498 1287.66634982 622 1305 C623.06476562 1305.20753906 624.12953125 1305.41507813 625.2265625 1305.62890625 C638.15037816 1308.30708373 649.91472642 1312.18739244 659.546875 1321.71484375 C660.92637504 1323.22082899 660.92637504 1323.22082899 663 1323 C663.41378906 1323.90492188 663.41378906 1323.90492188 663.8359375 1324.828125 C665.0157472 1327.26138731 665.0157472 1327.26138731 667.625 1329.75 C677.0832182 1340.53283352 682.20178923 1355.87408812 683 1370 C683.05285156 1370.7940625 683.10570312 1371.588125 683.16015625 1372.40625 C683.9996221 1396.64126409 673.8809355 1419.17660297 658 1437 C657.25105469 1437.84433594 656.50210938 1438.68867187 655.73046875 1439.55859375 C648.0515069 1447.72147028 638.80820301 1454.18089132 628.76806641 1459.13916016 C628.05905182 1459.49031891 627.35003723 1459.84147766 626.61953735 1460.20327759 C626.08509003 1460.46619598 625.5506427 1460.72911438 625 1461 C624.65147543 1466.65528983 624.39888633 1472.30423775 624.23095703 1477.96777344 C624.16093116 1479.88912857 624.06565857 1481.80974747 623.94384766 1483.72851562 C622.92639554 1494.23406076 622.92639554 1494.23406076 626.31658936 1503.80502319 C629.56283823 1506.87920406 633.23177116 1508.92954368 637.18704224 1510.95480347 C642.44833421 1513.98801485 646.70029455 1518.76297247 651 1523 C651.73992188 1523.72703125 652.47984375 1524.4540625 653.2421875 1525.203125 C666.67598859 1539.31645688 674.69915227 1559.50312375 674.25 1578.95703125 C672.27563266 1602.98878368 660.83257718 1623.72967466 643 1639.8125 C638.6159044 1643.43656212 634.01628236 1646.80149363 629.44140625 1650.1796875 C627.16993481 1651.78199373 627.16993481 1651.78199373 626 1653 C625.90188748 1654.41620622 625.87201745 1655.83723595 625.87060547 1657.25683594 C625.86745331 1658.16157654 625.86430115 1659.06631714 625.86105347 1659.99847412 C625.8630777 1660.98382141 625.86510193 1661.9691687 625.8671875 1662.984375 C625.86623077 1663.99211975 625.86527405 1664.9998645 625.86428833 1666.03814697 C625.86360614 1668.17679913 625.86546312 1670.31545335 625.86962891 1672.45410156 C625.87495446 1675.72205297 625.86969673 1678.98986553 625.86328125 1682.2578125 C625.86394246 1684.33333364 625.86522451 1686.40885469 625.8671875 1688.484375 C625.86516327 1689.46162537 625.86313904 1690.43887573 625.86105347 1691.44573975 C625.86420563 1692.36308899 625.86735779 1693.28043823 625.87060547 1694.22558594 C625.87140106 1695.02865173 625.87219666 1695.83171753 625.87301636 1696.65911865 C626.01197039 1699.22066838 626.31438202 1701.5254993 627 1704 C629.39849147 1705.85415392 629.39849147 1705.85415392 632.4375 1707.3125 C638.53991215 1710.65688246 643.76758653 1714.42496955 649 1719 C649.68707031 1719.59167969 650.37414062 1720.18335938 651.08203125 1720.79296875 C666.00049112 1734.59327976 673.12851317 1753.88102264 673.96484375 1773.8046875 C674.42144229 1794.59674316 666.22867309 1813.99649817 652 1829 C646.75837838 1834.03728722 641.16197424 1837.58286616 634.66796875 1840.734375 C634.02420288 1841.05132324 633.38043701 1841.36827148 632.71716309 1841.69482422 C631.14676355 1842.46727132 629.57365791 1843.23421282 628 1844 C624.88493991 1867.1210715 624.88493991 1867.1210715 629.71972656 1888.95605469 C634.03667099 1892.96176414 639.14544103 1894.75198798 644.74853516 1896.31396484 C655.62718652 1899.62875668 663.58106065 1912.1508627 668.875 1921.4375 C676.15443028 1935.86124353 677.79571726 1952.97441897 672.875 1968.5 C664.85416321 1991.70190557 648.68303844 2008.82184164 630 2024 C628.74282395 2025.03419146 628.74282395 2025.03419146 628.87974548 2027.28419495 C628.8830764 2028.79976234 628.8830764 2028.79976234 628.88647461 2030.34594727 C628.88655014 2031.4870546 628.88662567 2032.62816193 628.88670349 2033.80384827 C628.89186478 2035.0454924 628.89702606 2036.28713654 628.90234375 2037.56640625 C628.9037587 2038.83016586 628.90517365 2040.09392548 628.90663147 2041.39598083 C628.91129418 2044.76124889 628.9202852 2048.1264499 628.93133545 2051.49169922 C628.94155154 2054.9234967 628.94612951 2058.35530109 628.95117188 2061.78710938 C628.9622262 2068.52475824 628.9789829 2075.26237525 629 2082 C630.20076172 2082.24596924 631.40152344 2082.49193848 632.63867188 2082.74536133 C649.14398838 2086.20961486 649.14398838 2086.20961486 655.5 2089.6875 C656.4744104 2090.20123169 656.4744104 2090.20123169 657.46850586 2090.7253418 C672.01866633 2098.71717425 680.23859584 2111.32481551 685 2127 C690.55969882 2149.17648829 686.95523102 2173.0450882 676 2193 C672.74899946 2198.4244065 669.24903582 2203.78580295 664.73046875 2208.234375 C662.76667973 2209.82602098 662.76667973 2209.82602098 663 2212 C662.43152344 2212.25265625 661.86304688 2212.5053125 661.27734375 2212.765625 C658.70887359 2214.1577975 656.76570814 2215.83287454 654.5625 2217.75 C647.23754837 2223.7184791 638.90555287 2227.0712347 630 2230 C629.64316268 2243.09144611 629.40114796 2256.17961024 629.30309582 2269.27569962 C629.2539998 2275.3583715 629.16635376 2281.43524676 628.98852539 2287.515625 C628.81812841 2293.39156901 628.75172108 2299.26058662 628.75539589 2305.13890839 C628.7388992 2307.37360696 628.68578317 2309.60836193 628.59447289 2311.84125519 C628.10351714 2322.20677612 628.10351714 2322.20677612 631 2332 C636.19693573 2337.248128 642.87781045 2340.08903995 649.59675026 2342.91014862 C654.40030615 2345.08851649 658.14996085 2348.43682651 662 2352 C662.69867187 2352.6084375 663.39734375 2353.216875 664.1171875 2353.84375 C673.95003167 2362.89738765 679.59343574 2374.51473081 680.3125 2387.796875 C680.68820131 2399.15477557 679.5629001 2409.2023669 676 2420 C675.76974121 2420.70640625 675.53948242 2421.4128125 675.30224609 2422.140625 C672.56213878 2430.43261977 669.496947 2438.52873303 665.8828125 2446.484375 C664.87338405 2449.36079944 664.51519816 2450.97791751 665 2454 C666.43584941 2456.45676521 667.88813578 2458.65417122 669.5625 2460.9375 C670.59457372 2462.39264529 671.62578001 2463.84840608 672.65625 2465.3046875 C673.20667969 2466.07522461 673.75710938 2466.84576172 674.32421875 2467.63964844 C679.57131858 2475.03023135 684.61127652 2482.56835267 689.69317627 2490.07287598 C691.16009261 2492.23608258 692.63056641 2494.39685049 694.10107422 2496.55761719 C696.99484418 2500.81251232 699.87542004 2505.07614297 702.74972534 2509.34420776 C703.90152826 2511.0507751 705.05697308 2512.754891 706.21633911 2514.45632935 C719.2338892 2533.5742566 727.42356917 2552.63156645 732.32309723 2575.23739052 C733.15797794 2579.07995726 734.02361092 2582.91559836 734.88867188 2586.75146484 C735.06439854 2587.53192956 735.2401252 2588.31239428 735.42117691 2589.11650944 C737.13692898 2596.69071678 739.01318973 2604.21847634 740.953125 2611.73828125 C741.12122932 2612.39049526 741.28933365 2613.04270927 741.46253204 2613.71468735 C742.34488004 2617.13341276 743.23139953 2620.55103813 744.1204834 2623.96801758 C745.96275764 2631.04872269 747.78779666 2638.13388864 749.61508942 2645.21847153 C750.28899616 2647.83080852 750.96343813 2650.443007 751.63787842 2653.0552063 C757.431499 2675.50665911 763.13525735 2697.98105518 768.84821701 2720.45313644 C771.56556987 2731.14094041 774.28475572 2741.82827828 777.00390625 2752.515625 C777.45034831 2754.27041326 777.45034831 2754.27041326 777.9058094 2756.06065178 C783.81712276 2779.29450772 789.74802826 2802.52332852 795.6875 2825.75 C796.15409495 2827.57470664 796.62068837 2829.39941367 797.08728027 2831.22412109 C797.31824465 2832.12735359 797.54920902 2833.03058609 797.78717232 2833.96118927 C798.9558078 2838.53140847 800.12440367 2843.1016378 801.29296875 2847.671875 C801.52437183 2848.57686234 801.75577492 2849.48184967 801.99419022 2850.41426086 C808.36295072 2875.3226836 814.71503266 2900.23536188 821.06771851 2925.14788818 C826.56677619 2946.71268524 832.0685263 2968.27678163 837.58396912 2989.83739471 C838.37120952 2992.91486976 839.15833734 2995.99237359 839.94543457 2999.06988525 C842.93282657 3010.75058031 842.93282657 3010.75058031 845.92260742 3022.43066406 C864.27851729 3094.10928833 864.27851729 3094.10928833 868.625 3114.6875 C868.89449463 3115.94913971 868.89449463 3115.94913971 869.16943359 3117.23626709 C872.8074139 3134.31838935 875.84701515 3151.49565248 878.6875 3168.7265625 C878.80684906 3169.44867416 878.92619812 3170.17078583 879.04916382 3170.91477966 C879.80941726 3175.59909146 880.43455044 3180.28814055 881 3185 C881.33 3185 881.66 3185 882 3185 C882 2135.27 882 1085.54 882 4 C592.26 4 302.52 4 4 4 Z M881 3306 C880.87471924 3306.63276855 880.74943848 3307.26553711 880.62036133 3307.91748047 C873.65543627 3342.84634274 863.22931597 3376.81500851 842 3406 C841.30519531 3406.96679688 840.61039063 3407.93359375 839.89453125 3408.9296875 C826.53593955 3427.13520185 811.06423894 3444.35146391 793 3458 C791.79132654 3458.93706145 790.58301999 3459.87459628 789.375 3460.8125 C723.97120758 3511.15807783 638.92264072 3541.09803112 165.28369141 3628.73388672 C121.45723845 3622.73250288 80.59934462 3608.62362677 48 3578 C47.11634766 3577.21302734 47.11634766 3577.21302734 46.21484375 3576.41015625 C22.21094667 3554.10866321 9.7595535 3518.61195985 5 3487 C4.67 3487 4.34 3487 4 3487 C4 3646.72 4 3806.44 4 3971 C293.74 3971 583.48 3971 882 3971 C882 3751.55 882 3532.1 882 3306 C881.67 3306 881.34 3306 881 3306 Z " fill="#B7B7B8" transform="translate(0,0)"/>
<path d="M0 0 C15.54699152 -0.09846219 31.09397177 -0.1762995 46.64116859 -0.23412514 C56.18466181 -0.27055538 65.72756822 -0.32723181 75.27075917 -0.41173249 C81.62929254 -0.46617475 87.98761387 -0.4955294 94.34637398 -0.50406092 C97.93199112 -0.50962624 101.51659015 -0.52614185 105.10190868 -0.57438946 C108.92555182 -0.62570128 112.74805321 -0.6227672 116.57205677 -0.61441517 C117.66504613 -0.63801389 118.75803549 -0.66161261 119.88414574 -0.68592644 C127.89181024 -0.5990769 132.70391027 1.91528758 138.67459583 7.19613171 C149.40349293 19.3088229 152.15571102 36.60716671 155.66727161 51.85238171 C157.57433133 60.10390941 159.54553251 68.34047715 161.50998402 76.57848644 C162.21946087 79.55953391 162.92409282 82.5416951 163.62820911 85.52401257 C165.88617657 95.0427478 168.25665009 104.50500353 170.92412281 113.91755199 C172.86826696 120.79896873 174.54220858 127.73449435 176.17459583 134.69613171 C178.02621662 142.48560564 179.89039555 150.25330555 182.11209583 157.94613171 C184.77916859 167.19078253 186.96402709 176.55256004 189.20407581 185.90731335 C191.25502379 194.4628729 193.36982889 202.98056113 195.81131458 211.43441296 C198.17353945 219.73369632 200.09103111 228.14429187 202.08890247 236.53695202 C203.66633881 243.12796898 205.29957181 249.68354827 207.17459583 256.19613171 C209.77754576 265.23704444 211.91033276 274.38514622 214.08865833 283.53597546 C215.6661901 290.1273147 217.29947887 296.68322546 219.17459583 303.19613171 C221.77754576 312.23704444 223.91033276 321.38514622 226.08865833 330.53597546 C227.6661901 337.1273147 229.29947887 343.68322546 231.17459583 350.19613171 C233.77754576 359.23704444 235.91033276 368.38514622 238.08865833 377.53597546 C239.6661901 384.1273147 241.29947887 390.68322546 243.17459583 397.19613171 C245.77754576 406.23704444 247.91033276 415.38514622 250.08865833 424.53597546 C251.6661901 431.1273147 253.29947887 437.68322546 255.17459583 444.19613171 C257.41373672 451.9734144 259.30055402 459.82365488 261.17459583 467.69613171 C263.02893304 475.48503972 264.89035886 483.25317851 267.11209583 490.94613171 C269.77932356 500.19131971 271.96581758 509.55353711 274.20407581 518.90932751 C276.08234449 526.75304193 277.97746725 534.57656009 280.23709583 542.32113171 C283.50559954 553.59969295 285.88742534 565.11191214 288.42088795 576.5727644 C289.27341867 580.42117095 290.1506622 584.26249863 291.05740833 588.09847546 C296.39431061 610.71804969 300.23350228 633.65072764 303.22049427 656.6936903 C303.51713081 658.98161923 303.82210892 661.26848634 304.1365099 663.55404186 C306.46560382 680.8059374 306.96284507 697.87099658 306.98709583 715.25863171 C306.99068104 716.29031475 306.99426624 717.3219978 306.99796009 718.38494396 C307.03404045 737.66510036 305.78862874 756.56983673 302.04959583 775.50863171 C301.92276417 776.15746319 301.7959325 776.80629467 301.66525745 777.47478771 C294.32140128 814.64015904 277.85358614 849.63200964 251.67459583 877.19613171 C250.58519557 878.48268561 249.50145712 879.77406437 248.42459583 881.07113171 C213.66046699 920.76691604 161.1055404 943.54038834 113.67459583 964.19613171 C112.95785694 964.50830639 112.24111805 964.82048107 111.5026598 965.14211559 C70.46151147 982.98005131 28.64143913 998.21565974 -13.80477428 1012.35378551 C-16.11416903 1013.12554097 -18.42102042 1013.90429204 -20.72677135 1014.68685436 C-27.83027962 1017.09247343 -34.94452735 1019.29657187 -42.20040417 1021.19613171 C-48.68729452 1022.91002593 -55.13629217 1024.71918204 -61.56759167 1026.62972546 C-69.53208845 1028.98852844 -77.5299427 1031.19099577 -85.57540417 1033.25863171 C-86.65055782 1033.53501476 -86.65055782 1033.53501476 -87.74743176 1033.81698132 C-126.93446386 1043.8410683 -166.48119158 1052.24845843 -206.32540417 1059.19613171 C-207.32000652 1059.3696516 -208.31460888 1059.5431715 -209.3393507 1059.72194958 C-222.0746572 1061.92919333 -234.79107696 1063.89999216 -247.63790417 1065.32113171 C-249.1097874 1065.48784556 -250.58162925 1065.65492517 -252.05343151 1065.82235241 C-254.89547744 1066.14451309 -257.73791459 1066.46278873 -260.58077526 1066.77767467 C-263.68105002 1067.12412603 -266.77886209 1067.48465627 -269.87618542 1067.85628796 C-318.74197244 1073.60520408 -371.96441618 1073.49991793 -419.32540417 1059.19613171 C-420.12510632 1058.95556042 -420.92480846 1058.71498913 -421.74874401 1058.4671278 C-440.65018391 1052.64121322 -458.26168797 1044.11999511 -473.32540417 1031.19613171 C-474.1903651 1030.49230358 -475.05532604 1029.78847546 -475.94649792 1029.06331921 C-505.90033934 1003.7357341 -514.8385443 964.57519805 -518.72774792 927.34456921 C-519.04976149 923.29513829 -519.22201154 919.2556948 -519.32540417 915.19613171 C-519.35263561 914.2291737 -519.37986706 913.26221569 -519.4079237 912.26595592 C-520.43008549 869.32873211 -516.35131638 825.88050507 -510.98165417 783.30941296 C-510.86367977 782.37239544 -510.74570538 781.43537792 -510.624156 780.46996593 C-510.50389553 779.51496197 -510.38363506 778.559958 -510.25973034 777.57601452 C-510.01058694 775.59524556 -509.76164778 773.61445091 -509.51290417 771.63363171 C-509.32578365 770.14567089 -509.32578365 770.14567089 -509.13488293 768.62765026 C-506.00462276 743.47667291 -503.95509283 718.22918368 -501.86129284 692.97518444 C-501.58685951 689.67118335 -501.31183804 686.36723182 -501.03634167 683.06331921 C-500.96880184 682.25210613 -500.90126202 681.44089306 -500.83167553 680.60509777 C-499.41743514 663.6865418 -497.73077979 646.7984966 -496.00121403 629.90970612 C-495.20297603 622.0724147 -494.4800939 614.22871374 -493.76290417 606.38363171 C-492.78868466 595.8408324 -491.71033515 585.31586841 -490.516078 574.79574108 C-489.44262724 565.33016897 -488.43994031 555.85824933 -487.45040417 546.38363171 C-485.88401441 531.40769476 -484.27303599 516.43698355 -482.63897228 501.46828747 C-481.08646736 487.24484391 -479.55645663 473.01914066 -478.03975964 458.79183483 C-475.15127836 431.70068679 -472.19635523 404.62254175 -468.92306042 377.57503796 C-468.41123886 373.34458163 -467.89948802 369.11411678 -467.38790417 364.88363171 C-467.25966259 363.8237907 -467.13142101 362.7639497 -466.99929333 361.6719923 C-464.56149395 341.49183466 -462.34684986 321.29129495 -460.1776228 301.08082104 C-459.25812314 292.53233639 -458.30333431 283.98811746 -457.32540417 275.44613171 C-457.24544201 274.74735912 -457.16547985 274.04858654 -457.0830946 273.32863903 C-456.04176462 264.2482521 -454.96670261 255.17212179 -453.87650585 246.09748363 C-448.94926164 205.08316495 -444.43567082 164.02933373 -440.32955456 122.92489147 C-438.37667702 103.40943778 -438.37667702 103.40943778 -437.34102917 94.86800671 C-436.42033597 87.24884857 -435.6471331 79.61812542 -434.88790417 71.98128796 C-434.76103222 70.70875668 -434.63416027 69.4362254 -434.50344372 68.12513256 C-433.97584977 62.82512306 -433.44907724 57.52504787 -432.92989635 52.22420788 C-432.54623979 48.30936411 -432.15459945 44.39533576 -431.76290417 40.48128796 C-431.64825817 39.29567776 -431.53361217 38.11006756 -431.41549206 36.88852978 C-430.17309621 24.56944534 -428.88101899 14.60730801 -420.32540417 5.19613171 C-416.76796266 2.82450404 -414.17913116 2.85898187 -410.06550121 2.80060863 C-409.32646514 2.78266046 -408.58742906 2.76471229 -407.82599795 2.74622023 C-405.35707468 2.68910957 -402.88812876 2.64636819 -400.41891003 2.60409069 C-398.65818347 2.56735986 -396.89746901 2.53004487 -395.13676643 2.49218178 C-389.53323057 2.3764199 -383.92945151 2.28320955 -378.32540417 2.19613171 C-376.99561401 2.17528444 -376.99561401 2.17528444 -375.63895941 2.15401602 C-362.72412743 1.95513454 -349.80883027 1.81767201 -336.89305472 1.69748855 C-333.75371657 1.66807981 -330.61439016 1.63760502 -327.47506428 1.60691547 C-260.93381914 0.96035688 -194.38964245 0.74791693 -127.84591198 0.52035046 C-126.83680852 0.51689794 -126.83680852 0.51689794 -125.80731913 0.51337567 C-112.29515891 0.46718678 -98.78299703 0.42161179 -85.27082475 0.37908096 C-56.84692445 0.28959613 -28.42347996 0.18043086 0 0 Z " fill="#FDFDFD" transform="translate(549.3254041671753,2532.803868293762)"/>
<path d="M0 0 C292.38 0 584.76 0 886 0 C886 1311.75 886 2623.5 886 3975 C593.62 3975 301.24 3975 0 3975 C0 2663.25 0 1351.5 0 0 Z M4 4 C4 1110.49 4 2216.98 4 3357 C4.33 3357 4.66 3357 5 3357 C10.6822848 3306.08590649 16.1228141 3255.16382924 20.69634247 3204.13697815 C29.8449955 3102.09344332 41.14863388 3000.27109877 61.45201206 2822.64675426 C66.99827626 2774.25382577 72.53519405 2725.86064716 77.8125 2677.4375 C77.93248981 2676.33715549 78.05247963 2675.23681099 78.1761055 2674.10312271 C80.59828818 2651.87461117 82.96482734 2629.64160482 85.171875 2607.390625 C85.2971309 2606.12921283 85.2971309 2606.12921283 85.42491722 2604.84231758 C86.18674099 2597.16178297 86.94279357 2589.4808109 87.6685133 2581.79677296 C92.50184447 2530.68125963 92.50184447 2530.68125963 109.75244141 2515.77758789 C113.46091101 2512.84456951 117.49834209 2510.52531886 121.5625 2508.125 C130.10815912 2502.86488014 134.87201614 2498.17489975 140.0612793 2489.58984375 C144.34428385 2482.56229296 148.78791493 2475.79865022 153.796875 2469.265625 C166.89169979 2451.99349646 173.86372542 2437.68185801 175.98605347 2416.02301025 C176.90267434 2407.00914734 178.32783994 2398.08805588 179.7578125 2389.14453125 C179.94780319 2387.95240367 179.94780319 2387.95240367 180.14163208 2386.7361927 C180.65949045 2383.48697838 181.17822584 2380.23790641 181.69850922 2376.98907948 C182.97530617 2369.01495758 184.23255401 2361.03794765 185.46340561 2353.05660057 C185.68886916 2351.59987016 185.91610324 2350.14341256 186.14520645 2348.68725014 C186.46285704 2346.66794499 186.7748264 2344.64783785 187.08544922 2342.62744141 C187.26276581 2341.48804108 187.4400824 2340.34864075 187.62277222 2339.17471313 C187.99453314 2336.04600859 188.23857134 2333.14398282 188 2330 C185.59088108 2327.71468777 185.59088108 2327.71468777 182.3125 2325.875 C159.35311251 2311.1641724 142.58008213 2287.30447447 135.125 2261.125 C130.63718123 2239.1964963 134.53232338 2218.02123607 146 2199 C148.44853691 2195.44068697 151.11955571 2192.21512448 154 2189 C155.03060547 2187.77410156 155.03060547 2187.77410156 156.08203125 2186.5234375 C162.54054888 2179.00595572 169.87253135 2171.11875854 179.1015625 2167.1328125 C185.47599049 2164.19262033 185.47599049 2164.19262033 190 2159 C191.89510001 2149.84386721 190.91168154 2140.23650281 190 2131 C188.38544922 2130.21689453 188.38544922 2130.21689453 186.73828125 2129.41796875 C165.53424678 2118.85252701 150.41265751 2103.69577571 142.28417969 2081.00146484 C134.73215222 2057.73634796 136.00514442 2032.95908482 147 2011 C157.89154513 1991.20959845 172.80223539 1982.0988823 193 1972 C193 1959.79 193 1947.58 193 1935 C186.07 1932.03 186.07 1932.03 179 1929 C159.48097067 1917.24874765 143.72394535 1900.58394057 137.125 1878.3125 C132.90466477 1860.27777555 135.72612802 1842.91672214 145.4375 1827.125 C157.14412575 1809.77813701 173.72611951 1800.74606959 192 1791 C191.67 1777.8 191.34 1764.6 191 1751 C186.545 1749.515 186.545 1749.515 182 1748 C163.5858039 1740.03613045 149.910884 1728.88898783 142.0625 1709.9765625 C134.19526912 1687.93674658 134.9351523 1665.21750957 145.02978516 1643.87011719 C154.81061285 1625.01728877 171.07384119 1614.41162614 190 1606 C190 1585.21 190 1564.42 190 1543 C184.39 1541.68 178.78 1540.36 173 1539 C155.92676102 1531.70657752 144.00026267 1520.12919103 136.74755859 1502.93017578 C129.0679357 1483.10160014 129.87485638 1460.35572991 138.125 1440.875 C148.47589066 1417.92374686 165.94545247 1403.97946662 189 1395 C189.99 1394.67 190.98 1394.34 192 1394 C192.04487549 1393.25468018 192.08975098 1392.50936035 192.13598633 1391.74145508 C196.78907709 1315.26967577 201.87991611 1239.63664711 257 1181 C257.62132812 1180.31292969 258.24265625 1179.62585937 258.8828125 1178.91796875 C295.13865143 1140.30468738 353.97169762 1121.29746649 405.5546875 1119.08984375 C406.69164062 1119.06019531 407.82859375 1119.03054688 409 1119 C410.05445313 1118.96003906 411.10890625 1118.92007812 412.1953125 1118.87890625 C452.25452769 1118.0584163 493.86840089 1127.64105187 528 1149 C528.99902344 1149.62390625 529.99804688 1150.2478125 531.02734375 1150.890625 C550.39850652 1163.41442537 567.79574635 1178.99817978 581 1198 C581.71929688 1199.02480469 582.43859375 1200.04960938 583.1796875 1201.10546875 C593.76227402 1216.86636717 602.44583822 1234.19198678 609 1252 C609.25974609 1252.69834961 609.51949219 1253.39669922 609.78710938 1254.11621094 C615.80257808 1270.52135955 619.80876498 1287.66634982 622 1305 C623.06476562 1305.20753906 624.12953125 1305.41507813 625.2265625 1305.62890625 C638.15037816 1308.30708373 649.91472642 1312.18739244 659.546875 1321.71484375 C660.92637504 1323.22082899 660.92637504 1323.22082899 663 1323 C663.41378906 1323.90492188 663.41378906 1323.90492188 663.8359375 1324.828125 C665.0157472 1327.26138731 665.0157472 1327.26138731 667.625 1329.75 C677.0832182 1340.53283352 682.20178923 1355.87408812 683 1370 C683.05285156 1370.7940625 683.10570312 1371.588125 683.16015625 1372.40625 C683.9996221 1396.64126409 673.8809355 1419.17660297 658 1437 C657.25105469 1437.84433594 656.50210938 1438.68867187 655.73046875 1439.55859375 C648.0515069 1447.72147028 638.80820301 1454.18089132 628.76806641 1459.13916016 C628.05905182 1459.49031891 627.35003723 1459.84147766 626.61953735 1460.20327759 C626.08509003 1460.46619598 625.5506427 1460.72911438 625 1461 C624.65147543 1466.65528983 624.39888633 1472.30423775 624.23095703 1477.96777344 C624.16093116 1479.88912857 624.06565857 1481.80974747 623.94384766 1483.72851562 C622.92639554 1494.23406076 622.92639554 1494.23406076 626.31658936 1503.80502319 C629.56283823 1506.87920406 633.23177116 1508.92954368 637.18704224 1510.95480347 C642.44833421 1513.98801485 646.70029455 1518.76297247 651 1523 C651.73992188 1523.72703125 652.47984375 1524.4540625 653.2421875 1525.203125 C666.67598859 1539.31645688 674.69915227 1559.50312375 674.25 1578.95703125 C672.27563266 1602.98878368 660.83257718 1623.72967466 643 1639.8125 C638.6159044 1643.43656212 634.01628236 1646.80149363 629.44140625 1650.1796875 C627.16993481 1651.78199373 627.16993481 1651.78199373 626 1653 C625.90188748 1654.41620622 625.87201745 1655.83723595 625.87060547 1657.25683594 C625.86745331 1658.16157654 625.86430115 1659.06631714 625.86105347 1659.99847412 C625.8630777 1660.98382141 625.86510193 1661.9691687 625.8671875 1662.984375 C625.86623077 1663.99211975 625.86527405 1664.9998645 625.86428833 1666.03814697 C625.86360614 1668.17679913 625.86546312 1670.31545335 625.86962891 1672.45410156 C625.87495446 1675.72205297 625.86969673 1678.98986553 625.86328125 1682.2578125 C625.86394246 1684.33333364 625.86522451 1686.40885469 625.8671875 1688.484375 C625.86516327 1689.46162537 625.86313904 1690.43887573 625.86105347 1691.44573975 C625.86420563 1692.36308899 625.86735779 1693.28043823 625.87060547 1694.22558594 C625.87140106 1695.02865173 625.87219666 1695.83171753 625.87301636 1696.65911865 C626.01197039 1699.22066838 626.31438202 1701.5254993 627 1704 C629.39849147 1705.85415392 629.39849147 1705.85415392 632.4375 1707.3125 C638.53991215 1710.65688246 643.76758653 1714.42496955 649 1719 C649.68707031 1719.59167969 650.37414062 1720.18335938 651.08203125 1720.79296875 C666.00049112 1734.59327976 673.12851317 1753.88102264 673.96484375 1773.8046875 C674.42144229 1794.59674316 666.22867309 1813.99649817 652 1829 C646.75837838 1834.03728722 641.16197424 1837.58286616 634.66796875 1840.734375 C634.02420288 1841.05132324 633.38043701 1841.36827148 632.71716309 1841.69482422 C631.14676355 1842.46727132 629.57365791 1843.23421282 628 1844 C624.88493991 1867.1210715 624.88493991 1867.1210715 629.71972656 1888.95605469 C634.03667099 1892.96176414 639.14544103 1894.75198798 644.74853516 1896.31396484 C655.62718652 1899.62875668 663.58106065 1912.1508627 668.875 1921.4375 C676.15443028 1935.86124353 677.79571726 1952.97441897 672.875 1968.5 C664.85416321 1991.70190557 648.68303844 2008.82184164 630 2024 C628.74282395 2025.03419146 628.74282395 2025.03419146 628.87974548 2027.28419495 C628.8830764 2028.79976234 628.8830764 2028.79976234 628.88647461 2030.34594727 C628.88655014 2031.4870546 628.88662567 2032.62816193 628.88670349 2033.80384827 C628.89186478 2035.0454924 628.89702606 2036.28713654 628.90234375 2037.56640625 C628.9037587 2038.83016586 628.90517365 2040.09392548 628.90663147 2041.39598083 C628.91129418 2044.76124889 628.9202852 2048.1264499 628.93133545 2051.49169922 C628.94155154 2054.9234967 628.94612951 2058.35530109 628.95117188 2061.78710938 C628.9622262 2068.52475824 628.9789829 2075.26237525 629 2082 C630.20076172 2082.24596924 631.40152344 2082.49193848 632.63867188 2082.74536133 C649.14398838 2086.20961486 649.14398838 2086.20961486 655.5 2089.6875 C656.4744104 2090.20123169 656.4744104 2090.20123169 657.46850586 2090.7253418 C672.01866633 2098.71717425 680.23859584 2111.32481551 685 2127 C690.55969882 2149.17648829 686.95523102 2173.0450882 676 2193 C672.74899946 2198.4244065 669.24903582 2203.78580295 664.73046875 2208.234375 C662.76667973 2209.82602098 662.76667973 2209.82602098 663 2212 C662.43152344 2212.25265625 661.86304688 2212.5053125 661.27734375 2212.765625 C658.70887359 2214.1577975 656.76570814 2215.83287454 654.5625 2217.75 C647.23754837 2223.7184791 638.90555287 2227.0712347 630 2230 C629.64316268 2243.09144611 629.40114796 2256.17961024 629.30309582 2269.27569962 C629.2539998 2275.3583715 629.16635376 2281.43524676 628.98852539 2287.515625 C628.81812841 2293.39156901 628.75172108 2299.26058662 628.75539589 2305.13890839 C628.7388992 2307.37360696 628.68578317 2309.60836193 628.59447289 2311.84125519 C628.10351714 2322.20677612 628.10351714 2322.20677612 631 2332 C636.19693573 2337.248128 642.87781045 2340.08903995 649.59675026 2342.91014862 C654.40030615 2345.08851649 658.14996085 2348.43682651 662 2352 C662.69867187 2352.6084375 663.39734375 2353.216875 664.1171875 2353.84375 C673.95003167 2362.89738765 679.59343574 2374.51473081 680.3125 2387.796875 C680.68820131 2399.15477557 679.5629001 2409.2023669 676 2420 C675.76974121 2420.70640625 675.53948242 2421.4128125 675.30224609 2422.140625 C672.56213878 2430.43261977 669.496947 2438.52873303 665.8828125 2446.484375 C664.87338405 2449.36079944 664.51519816 2450.97791751 665 2454 C666.43584941 2456.45676521 667.88813578 2458.65417122 669.5625 2460.9375 C670.59457372 2462.39264529 671.62578001 2463.84840608 672.65625 2465.3046875 C673.20667969 2466.07522461 673.75710938 2466.84576172 674.32421875 2467.63964844 C679.57131858 2475.03023135 684.61127652 2482.56835267 689.69317627 2490.07287598 C691.16009261 2492.23608258 692.63056641 2494.39685049 694.10107422 2496.55761719 C696.99484418 2500.81251232 699.87542004 2505.07614297 702.74972534 2509.34420776 C703.90152826 2511.0507751 705.05697308 2512.754891 706.21633911 2514.45632935 C719.2338892 2533.5742566 727.42356917 2552.63156645 732.32309723 2575.23739052 C733.15797794 2579.07995726 734.02361092 2582.91559836 734.88867188 2586.75146484 C735.06439854 2587.53192956 735.2401252 2588.31239428 735.42117691 2589.11650944 C737.13692898 2596.69071678 739.01318973 2604.21847634 740.953125 2611.73828125 C741.12122932 2612.39049526 741.28933365 2613.04270927 741.46253204 2613.71468735 C742.34488004 2617.13341276 743.23139953 2620.55103813 744.1204834 2623.96801758 C745.96275764 2631.04872269 747.78779666 2638.13388864 749.61508942 2645.21847153 C750.28899616 2647.83080852 750.96343813 2650.443007 751.63787842 2653.0552063 C757.431499 2675.50665911 763.13525735 2697.98105518 768.84821701 2720.45313644 C771.56556987 2731.14094041 774.28475572 2741.82827828 777.00390625 2752.515625 C777.45034831 2754.27041326 777.45034831 2754.27041326 777.9058094 2756.06065178 C783.81712276 2779.29450772 789.74802826 2802.52332852 795.6875 2825.75 C796.15409495 2827.57470664 796.62068837 2829.39941367 797.08728027 2831.22412109 C797.31824465 2832.12735359 797.54920902 2833.03058609 797.78717232 2833.96118927 C798.9558078 2838.53140847 800.12440367 2843.1016378 801.29296875 2847.671875 C801.52437183 2848.57686234 801.75577492 2849.48184967 801.99419022 2850.41426086 C808.36295072 2875.3226836 814.71503266 2900.23536188 821.06771851 2925.14788818 C826.56677619 2946.71268524 832.0685263 2968.27678163 837.58396912 2989.83739471 C838.37120952 2992.91486976 839.15833734 2995.99237359 839.94543457 2999.06988525 C842.93282657 3010.75058031 842.93282657 3010.75058031 845.92260742 3022.43066406 C864.27851729 3094.10928833 864.27851729 3094.10928833 868.625 3114.6875 C868.89449463 3115.94913971 868.89449463 3115.94913971 869.16943359 3117.23626709 C872.8074139 3134.31838935 875.84701515 3151.49565248 878.6875 3168.7265625 C878.80684906 3169.44867416 878.92619812 3170.17078583 879.04916382 3170.91477966 C879.80941726 3175.59909146 880.43455044 3180.28814055 881 3185 C881.33 3185 881.66 3185 882 3185 C882 2135.27 882 1085.54 882 4 C592.26 4 302.52 4 4 4 Z M324 1169 C323.37399902 1169.31582031 322.74799805 1169.63164063 322.10302734 1169.95703125 C308.70771698 1176.74425891 296.78261273 1184.762656 285.5078125 1194.68017578 C284.1327592 1195.88379271 282.73916677 1197.06614574 281.34375 1198.24609375 C264.69494627 1212.60305266 253.12250338 1231.19284618 244 1251 C243.54109375 1251.97839844 243.0821875 1252.95679688 242.609375 1253.96484375 C233.97367212 1273.44983157 229.68568921 1294.81865542 227.39453125 1315.91015625 C227 1319 227 1319 226 1322 C225.80893511 1323.4858723 225.65890751 1324.97722861 225.53515625 1326.47021484 C225.45835632 1327.37842484 225.3815564 1328.28663483 225.3024292 1329.22236633 C225.22325256 1330.20859482 225.14407593 1331.1948233 225.0625 1332.2109375 C224.97768372 1333.23869797 224.89286743 1334.26645844 224.80548096 1335.32536316 C224.53167418 1338.6748373 224.26497318 1342.02481605 224 1345.375 C223.90940308 1346.51025116 223.81880615 1347.64550232 223.72546387 1348.81515503 C221.89693432 1371.87165499 220.69862838 1394.86135693 221 1418 C220.45214844 1418.02578125 219.90429688 1418.0515625 219.33984375 1418.078125 C201.65449034 1419.34341858 185.08899395 1425.65528309 173 1439 C162.63084439 1452.61948708 160.0991681 1466.151107 161 1483 C162.57191988 1493.04430158 168.09895114 1501.08593655 175.84765625 1507.49609375 C183.16249577 1512.60718852 190.27922015 1514.17167819 199.0625 1514.125 C199.76310547 1514.12886719 200.46371094 1514.13273437 201.18554688 1514.13671875 C207.16118854 1514.12592265 213.05827526 1513.60880317 219 1513 C218.99476318 1514.19407471 218.98952637 1515.38814941 218.98413086 1516.6184082 C218.87345717 1544.64770083 219.05743262 1572.66221947 219.5 1600.6875 C219.51195782 1601.44501682 219.52391563 1602.20253365 219.53623581 1602.98300552 C219.68425902 1612.32211565 219.83887405 1621.66110605 220 1631 C218.75653809 1630.98557861 217.51307617 1630.97115723 216.23193359 1630.95629883 C202.19243805 1630.79347197 189.26875655 1637.42890273 179.2265625 1646.71875 C175.55587996 1650.47958965 172.68794394 1654.2146177 170.375 1658.9375 C169.76785156 1660.15759766 169.76785156 1660.15759766 169.1484375 1661.40234375 C166.34574351 1667.74177063 165.66189021 1672.95419816 165.6875 1679.8125 C165.66333008 1681.08963867 165.66333008 1681.08963867 165.63867188 1682.39257812 C165.63030442 1693.37904526 169.70616636 1702.99191896 176.96875 1711.234375 C189.83484604 1723.63430814 203.48637588 1723 221 1723 C220.67 1752.04 220.34 1781.08 220 1811 C213.73 1813.64 207.46 1816.28 201 1819 C185.70040444 1826.81979329 170.12258644 1836.61357532 164.4765625 1853.92578125 C162.33530095 1863.24553439 165.03806059 1871.49875312 169 1880 C171.07544088 1883.27243934 173.42950817 1886.10965059 176 1889 C176.42539063 1889.58910156 176.85078125 1890.17820312 177.2890625 1890.78515625 C183.65659122 1899.35983449 196.21029617 1906.61085928 206.5703125 1908.73046875 C207.74335938 1908.88128906 208.91640625 1909.03210937 210.125 1909.1875 C211.30320313 1909.34605469 212.48140625 1909.50460937 213.6953125 1909.66796875 C216.5026725 1909.95003211 219.18447535 1910.02547579 222 1910 C221.99607239 1911.03468414 221.99607239 1911.03468414 221.99206543 1912.090271 C221.93128487 1930.81722303 222.14006967 1949.52637612 222.5 1968.25 C222.54841225 1970.86848525 222.59659021 1973.48697483 222.64453125 1976.10546875 C222.76033783 1982.40369813 222.87896816 1988.70186897 223 1995 C222.17838882 1995.13227493 221.35677765 1995.26454987 220.51026917 1995.40083313 C219.43123825 1995.57704697 218.35220734 1995.7532608 217.24047852 1995.93481445 C216.17136734 1996.10833939 215.10225616 1996.28186432 214.00074768 1996.46064758 C199.01280688 1999.15457022 185.48126489 2007.08392049 176 2019 C173.21042287 2023.44289342 171.01769997 2028.16210576 169 2033 C168.61457031 2033.90878906 168.22914063 2034.81757812 167.83203125 2035.75390625 C165.01883408 2046.72933745 165.56654131 2061.5758104 170 2072 C170.45246094 2073.11375 170.90492188 2074.2275 171.37109375 2075.375 C177.47402736 2088.95658847 187.11681875 2098.2788234 201 2104 C207.18274461 2106.11543104 213.43378095 2108 220 2108 C220.3110229 2116.67617152 220.5170626 2125.3469341 220.59327984 2134.02836323 C220.63189968 2138.06132084 220.70509121 2142.08715367 220.8605957 2146.11743164 C221.82962688 2172.1520184 221.82962688 2172.1520184 217.16711426 2178.49252319 C212.72883857 2182.31430517 207.84622869 2184.31141397 202.32995605 2186.10932922 C198.69193729 2187.50003228 195.85643362 2189.72751604 192.875 2192.1875 C191.85664063 2193.00863281 190.83828125 2193.82976562 189.7890625 2194.67578125 C188.86867187 2195.44277344 187.94828125 2196.20976562 187 2197 C186.18273437 2197.65355469 185.36546875 2198.30710937 184.5234375 2198.98046875 C174.29517518 2207.50402068 164.29604017 2219.89509584 162.70703125 2233.51025391 C161.17191805 2257.06144884 170.22080864 2273.66746263 185.4375 2291.25 C192.47194301 2298.8870439 200.45584095 2306.28848433 211 2308 C212.93651019 2308.06533435 214.87502861 2308.08584303 216.8125 2308.0625 C218.27623047 2308.04896484 218.27623047 2308.04896484 219.76953125 2308.03515625 C220.50558594 2308.02355469 221.24164063 2308.01195313 222 2308 C221.70480469 2309.26199219 221.40960938 2310.52398438 221.10546875 2311.82421875 C219.93091221 2317.12259078 219.10528056 2322.44568439 218.3125 2327.8125 C217.01479262 2336.44228614 215.67716482 2345.0640335 214.2890625 2353.6796875 C210.3273061 2378.04825499 210.3273061 2378.04825499 206.99194336 2402.50805664 C206.09798676 2409.68663166 204.8563829 2416.77946408 203.45776367 2423.87646484 C202.59099608 2428.34935429 201.88993704 2432.72597514 201.5703125 2437.2734375 C200.45417466 2451.53445966 195.07334672 2460.74117716 186.88085938 2472.30126953 C183.86847414 2476.62355748 181.0981103 2481.09213242 178.3125 2485.5625 C177.35077285 2487.08495924 176.38856945 2488.60711779 175.42578125 2490.12890625 C174.61684915 2491.41905875 173.80821678 2492.70939927 173 2494 C172.39542969 2494.95777344 171.79085937 2495.91554688 171.16796875 2496.90234375 C169.83784281 2498.89108242 169.83784281 2498.89108242 170 2501 C332.36 2501 494.72 2501 662 2501 C660.19785284 2496.45120081 660.19785284 2496.45120081 657.63671875 2492.64453125 C657.16814453 2492.0306958 656.69957031 2491.41686035 656.21679688 2490.78442383 C655.45979492 2489.80832153 655.45979492 2489.80832153 654.6875 2488.8125 C653.6065505 2487.39699463 652.52718394 2485.98027936 651.44921875 2484.5625 C650.88638184 2483.82257813 650.32354492 2483.08265625 649.74365234 2482.3203125 C646.20646895 2477.61331292 642.79176565 2472.81690275 639.3659668 2468.02856445 C638.85332275 2467.314021 638.34067871 2466.59947754 637.8125 2465.86328125 C637.33296875 2465.18990723 636.8534375 2464.5165332 636.359375 2463.82275391 C634.89063002 2461.79494747 634.89063002 2461.79494747 632.5625 2459.29296875 C631 2457 631 2457 631.24316406 2454.74145508 C632.10191782 2451.63082734 633.25286237 2448.80072557 634.546875 2445.84375 C635.0625 2444.65523437 635.578125 2443.46671875 636.109375 2442.2421875 C636.6558754 2440.99462751 637.20275172 2439.74723212 637.75 2438.5 C650.64614501 2411.54214424 650.64614501 2411.54214424 650.16015625 2382.44140625 C648.94903993 2380.34947805 647.67692142 2378.73857294 646 2377 C645.18015625 2376.13568359 645.18015625 2376.13568359 644.34375 2375.25390625 C632.51522863 2364.00177469 616.34888129 2357.86250844 602 2351 C601.67 2302.16 601.34 2253.32 601 2203 C605.95 2203 610.9 2203 616 2203 C629.0290783 2200.67798604 638.87543224 2195.24104906 646.80859375 2184.56640625 C654.4594619 2173.22995861 658.17785709 2161.89314772 658.3125 2148.375 C658.34150391 2147.42753906 658.37050781 2146.48007813 658.40039062 2145.50390625 C658.48865918 2135.57708856 655.6391633 2127.87091035 648.765625 2120.6796875 C636.7216682 2109.22194099 620.90924831 2110.49310398 605.42919922 2110.82299805 C602.85945566 2110.90993187 602.85945566 2110.90993187 600 2112 C600.00785522 2110.7305957 600.00785522 2110.7305957 600.01586914 2109.43554688 C600.13848577 2085.80623658 599.88610752 2062.18810612 599.5 2038.5625 C599.48804218 2037.83058441 599.47608437 2037.09866882 599.46376419 2036.34457397 C599.31436744 2027.22962652 599.159664 2018.1147737 599 2009 C599.78529083 2008.69733215 600.57058167 2008.39466431 601.37966919 2008.08282471 C603.93265332 2007.02783032 605.62716738 2005.92141328 607.7421875 2004.171875 C608.41636719 2003.61886719 609.09054687 2003.06585937 609.78515625 2002.49609375 C610.47480469 2001.91988281 611.16445313 2001.34367187 611.875 2000.75 C612.55691406 2000.18925781 613.23882813 1999.62851563 613.94140625 1999.05078125 C615.96995804 1997.37770901 617.98587894 1995.69040085 620 1994 C620.6293042 1993.48018555 621.2586084 1992.96037109 621.90698242 1992.42480469 C630.32927941 1985.38074293 636.89303521 1976.70168084 642 1967 C642.62068359 1965.86884766 642.62068359 1965.86884766 643.25390625 1964.71484375 C647.18863662 1956.50263646 647.82982632 1946.45608796 644.9296875 1937.80859375 C635.56830144 1919.41832987 617.57819401 1913.84459779 599 1907 C598.67 1878.29 598.34 1849.58 598 1820 C603.28 1819.34 608.56 1818.68 614 1818 C625.16744336 1814.75365019 634.07260425 1807.03383606 640 1797 C645.05363496 1786.40524118 646.93591191 1775.06931505 644.1640625 1763.515625 C637.99026654 1746.19584842 625.9532152 1736.03966379 610 1728 C604.06 1725.525 604.06 1725.525 598 1723 C597.505 1679.44 597.505 1679.44 597 1635 C598.65 1634.34 600.3 1633.68 602 1633 C611.99327743 1627.04134799 620.77018921 1620.2049097 629 1612 C630.01513672 1611.01966797 630.01513672 1611.01966797 631.05078125 1610.01953125 C640.61865936 1600.06978661 645.62736305 1586.33226199 645.3671875 1572.6875 C644.22859075 1561.25308162 638.26501226 1552.57093942 631 1544 C630.45730469 1543.35546875 629.91460938 1542.7109375 629.35546875 1542.046875 C620.68423442 1532.65120843 608.1594541 1525.12743032 597 1519 C596.34 1519 595.68 1519 595 1519 C595 1492.6 595 1466.2 595 1439 C597.31 1438.67 599.62 1438.34 602 1438 C618.81752031 1433.48680177 634.89966111 1423.13504638 644 1408 C648.91987537 1399.40175856 653.34913123 1391.04601795 654 1381 C654.07992188 1379.87851563 654.15984375 1378.75703125 654.2421875 1377.6015625 C654.6766874 1365.81894748 651.55033793 1356.11707472 644 1347 C636.02338859 1338.82289926 628.96881939 1335.67789583 617.8125 1333.875 C616.83474609 1333.70613281 615.85699219 1333.53726562 614.84960938 1333.36328125 C608.25186807 1332.25566308 601.66949333 1331.51196846 595 1331 C594.95101563 1329.80246094 594.90203125 1328.60492187 594.8515625 1327.37109375 C593.00037378 1285.59205133 580.21223508 1244.15362326 554 1211 C553.60232422 1210.49549316 553.20464844 1209.99098633 552.79492188 1209.47119141 C532.54659085 1184.02166695 506.55724849 1167.55719441 476 1157 C474.7934375 1156.57847656 473.586875 1156.15695312 472.34375 1155.72265625 C464.80185726 1153.24913945 457.12130875 1151.662532 449.29760742 1150.38085938 C447.59409676 1150.09847954 445.89416899 1149.79429983 444.1965332 1149.47851562 C435.89752169 1148.03061668 427.76835292 1147.69038068 419.37182617 1147.73925781 C417.20007082 1147.74993818 415.02915172 1147.73931574 412.85742188 1147.7265625 C382.21417885 1147.69300495 351.28409926 1155.07280302 324 1169 Z M464.05022616 2533.17859599 C341.34494707 2533.54089125 341.34494707 2533.54089125 218.64283061 2534.44213986 C215.57186625 2534.47192142 212.50089407 2534.50071902 209.42991829 2534.52929497 C199.26393349 2534.62522919 189.09855295 2534.73883447 178.93325418 2534.89182144 C173.48348885 2534.97210028 168.03420571 2535.02368148 162.58396786 2535.05844766 C158.95050171 2535.08649184 155.31750457 2535.13507998 151.68433392 2535.18865287 C149.97929446 2535.20958861 148.27412747 2535.22210824 146.56896293 2535.22553837 C144.22934551 2535.23146978 141.89204716 2535.26788423 139.5528717 2535.31150818 C138.23361222 2535.32386222 136.91435274 2535.33621626 135.5551157 2535.34894466 C130.48450705 2536.27753521 127.73281373 2538.70256158 124.609375 2542.84375 C121.96132095 2547.94727235 119.8816317 2552.42009737 119.25390625 2558.15966797 C119.14038818 2559.16617401 119.02687012 2560.17268005 118.90991211 2561.20968628 C118.79526611 2562.29291168 118.68062012 2563.37613708 118.5625 2564.4921875 C118.43689697 2565.6291507 118.31129395 2566.76611389 118.18188477 2567.93753052 C117.91641101 2570.35300758 117.65437428 2572.7688645 117.39550781 2575.18505859 C117.00803856 2578.80000322 116.61052321 2582.41372063 116.2109375 2586.02734375 C115.01831688 2596.90785446 113.90114442 2607.78662271 113 2618.6953125 C112.26030152 2627.63425869 111.25733506 2636.52268833 110.15765381 2645.4239502 C108.8214727 2656.29194683 107.71055511 2667.17951702 106.60955811 2678.07345581 C103.41082768 2709.66899568 99.91879365 2741.22934346 96.36199951 2772.78625488 C96.04015151 2775.64354453 95.71923992 2778.50093651 95.39892578 2781.35839844 C93.85664372 2795.11050881 92.26457242 2808.8556994 90.6015625 2822.59375 C90.41493294 2824.13586655 90.41493294 2824.13586655 90.22453308 2825.70913696 C90.09814957 2826.75338837 89.97176605 2827.79763977 89.84155273 2828.87353516 C89.58183754 2831.01985303 89.32215347 2833.16617466 89.0625 2835.3125 C88.93416779 2836.37297546 88.80583557 2837.43345093 88.6736145 2838.52606201 C86.23592205 2858.70557949 84.02137649 2878.90548148 81.85221863 2899.11531067 C80.93271898 2907.66379531 79.97793014 2916.20801425 79 2924.75 C78.92003784 2925.44877258 78.84007568 2926.14754517 78.75769043 2926.86749268 C77.71636045 2935.94787961 76.64129844 2945.02400991 75.55110168 2954.09864807 C70.28389039 2997.94284843 65.53948043 3041.83476158 61.1295166 3085.7731781 C60.24996149 3094.5332737 59.36043801 3103.29231152 58.46484375 3112.05078125 C57.08367594 3125.5587102 55.71180744 3139.06755907 54.34637451 3152.5770874 C54.01460312 3155.85569033 53.68153327 3159.13415885 53.34814453 3162.41259766 C52.7254231 3168.54523819 52.10965953 3174.67854732 51.5 3180.8125 C51.39950348 3181.82296387 51.29900696 3182.83342773 51.19546509 3183.87451172 C49.88476598 3197.12994314 48.69729738 3210.39324526 47.6015625 3223.66796875 C47.48046559 3225.13193993 47.35934117 3226.59590883 47.2381897 3228.05987549 C47.14746846 3229.15643463 47.14746846 3229.15643463 47.05491447 3230.27514648 C46.74529261 3234.01679336 46.43533211 3237.75841196 46.125 3241.5 C46.06341957 3242.24343407 46.00183914 3242.98686813 45.93839264 3243.75283051 C44.15793248 3265.20740086 42.01527084 3286.56906379 39.375 3307.9375 C36.28977904 3332.92072729 33.82751391 3357.8936272 32 3383 C31.94048157 3383.80443542 31.88096313 3384.60887085 31.81964111 3385.43768311 C28.01171394 3437.04368117 24.0385475 3501.69465581 58 3545 C58.65524658 3545.8360376 58.65524658 3545.8360376 59.32373047 3546.68896484 C86.8040282 3581.30112152 129.56649067 3595.26897312 172 3601 C172.8544873 3601.11714355 173.70897461 3601.23428711 174.58935547 3601.35498047 C196.85846949 3604.21021265 219.60308302 3603.2764148 242 3603 C243.25941406 3602.98598145 244.51882812 3602.97196289 245.81640625 3602.95751953 C272.56163706 3602.55567824 299.5798663 3599.13379918 325.90039062 3594.53417969 C329.2270397 3593.96087249 332.55782949 3593.4191987 335.890625 3592.8828125 C365.45105051 3588.10436694 394.77318706 3582.55468123 423.8724823 3575.47961426 C428.61659959 3574.3275386 433.36761648 3573.20923434 438.125 3572.11328125 C438.78088104 3571.96215881 439.43676208 3571.81103638 440.11251831 3571.65533447 C441.08525192 3571.43124908 441.08525192 3571.43124908 442.07763672 3571.20263672 C458.57660081 3567.39775227 474.93789942 3563.29692543 491.15795898 3558.43676758 C494.52684885 3557.43216594 497.90117692 3556.44882542 501.2800293 3555.47827148 C515.48360751 3551.39228646 529.58006058 3547.03825146 543.625 3542.4375 C544.67793243 3542.09306854 545.73086487 3541.74863708 546.81570435 3541.39376831 C605.54424613 3522.13844544 662.69647772 3498.58571085 718 3471 C719.46687256 3470.26958496 719.46687256 3470.26958496 720.96337891 3469.52441406 C744.52364229 3457.70738128 766.84074005 3443.16655218 786 3425 C787.28693749 3423.9110529 788.57837891 3422.82739855 789.875 3421.75 C815.46921292 3399.40751086 833.01700687 3368.77603837 844 3337 C844.3710083 3335.93410645 844.3710083 3335.93410645 844.74951172 3334.84667969 C847.87576398 3325.6575956 849.86753 3316.27551518 851.6875 3306.75 C851.89012451 3305.70440918 852.09274902 3304.65881836 852.30151367 3303.58154297 C855.61586853 3285.33254195 856.40791952 3267.01009868 856.375 3248.5 C856.37518127 3246.91392441 856.37518127 3246.91392441 856.37536621 3245.29580688 C856.34420508 3225.96920093 854.91248735 3207.08948647 852.265625 3187.95947266 C851.85701657 3184.94523439 851.49387625 3181.92557038 851.125 3178.90625 C847.73364059 3152.22383486 842.23019651 3125.61000759 835.43359375 3099.59375 C833.79440911 3093.30252111 832.37059309 3086.96575231 830.9375 3080.625 C829.16228427 3072.81666473 827.2591721 3065.08847658 825.03491211 3057.39697266 C822.7855001 3049.49085998 820.91280796 3041.49243779 819 3033.5 C816.77504848 3024.20693655 814.51515612 3014.94406099 811.86328125 3005.76171875 C809.50105638 2997.46243538 807.58356472 2989.05183983 805.58569336 2980.65917969 C804.00825702 2974.06816273 802.37502402 2967.51258344 800.5 2961 C797.89705008 2951.95908727 795.76426308 2942.81098549 793.5859375 2933.66015625 C792.00840574 2927.06881701 790.37511696 2920.51290625 788.5 2914 C785.89705008 2904.95908727 783.76426308 2895.81098549 781.5859375 2886.66015625 C780.00840574 2880.06881701 778.37511696 2873.51290625 776.5 2867 C773.89705008 2857.95908727 771.76426308 2848.81098549 769.5859375 2839.66015625 C768.00840574 2833.06881701 766.37511696 2826.51290625 764.5 2820 C761.89705008 2810.95908727 759.76426308 2801.81098549 757.5859375 2792.66015625 C756.00840574 2786.06881701 754.37511696 2779.51290625 752.5 2773 C750.26085911 2765.22271731 748.37404181 2757.37247683 746.5 2749.5 C744.64566279 2741.71109199 742.78423697 2733.94295319 740.5625 2726.25 C737.89542725 2717.00534917 735.71056874 2707.64357167 733.47052002 2698.28881836 C731.41957204 2689.7332588 729.30476695 2681.21557058 726.86328125 2672.76171875 C724.49985184 2664.45820343 722.58044749 2656.04340547 720.58349609 2647.64599609 C719.03709568 2641.17930701 717.42718831 2634.75678281 715.5625 2628.375 C713.01866385 2619.61123297 711.06831305 2610.71063558 709.0625 2601.8125 C702.76505642 2563.65061817 702.76505642 2563.65061817 680.66025352 2534.29984856 C675.89617319 2531.97203172 671.22420561 2532.20788113 666.01098633 2532.30297852 C664.81934592 2532.30052155 663.62770552 2532.29806459 662.3999548 2532.29553318 C659.08313126 2532.29482032 655.76851325 2532.32119212 652.45203495 2532.35881853 C648.80273449 2532.39339683 645.15340599 2532.39247646 641.50396729 2532.39620972 C635.05030928 2532.40766296 628.5970676 2532.44158583 622.14358521 2532.48995972 C612.53359613 2532.56184861 602.92368982 2532.59968694 593.31349075 2532.63012278 C577.60026869 2532.68070296 561.88724674 2532.75481164 546.17419159 2532.84249532 C518.79964769 2532.99508099 491.42504752 2533.09145175 464.05022616 2533.17859599 Z M881 3306 C880.87471924 3306.63276855 880.74943848 3307.26553711 880.62036133 3307.91748047 C873.65543627 3342.84634274 863.22931597 3376.81500851 842 3406 C841.30519531 3406.96679688 840.61039063 3407.93359375 839.89453125 3408.9296875 C826.53593955 3427.13520185 811.06423894 3444.35146391 793 3458 C791.79132654 3458.93706145 790.58301999 3459.87459628 789.375 3460.8125 C723.97120758 3511.15807783 638.92264072 3541.09803112 165.28369141 3628.73388672 C121.45723845 3622.73250288 80.59934462 3608.62362677 48 3578 C47.11634766 3577.21302734 47.11634766 3577.21302734 46.21484375 3576.41015625 C22.21094667 3554.10866321 9.7595535 3518.61195985 5 3487 C4.67 3487 4.34 3487 4 3487 C4 3646.72 4 3806.44 4 3971 C293.74 3971 583.48 3971 882 3971 C882 3751.55 882 3532.1 882 3306 C881.67 3306 881.34 3306 881 3306 Z " fill="#010101" transform="translate(0,0)"/>
<path d="M0 0 C292.38 0 584.76 0 886 0 C886 1311.75 886 2623.5 886 3975 C593.62 3975 301.24 3975 0 3975 C0 2663.25 0 1351.5 0 0 Z M4 4 C3.97494385 105.82062988 3.9498877 207.64125977 3.92407227 312.54736328 C3.89125724 444.74511434 3.89125724 444.74511434 3.87632478 504.01511811 C3.87580633 506.0733502 3.87528788 508.13158229 3.87476943 510.18981438 C3.87450945 511.2218906 3.87424946 512.25396682 3.8739816 513.31731808 C3.87317162 516.53314048 3.87236192 519.74896288 3.8715523 522.96478528 C3.84247854 638.44277009 3.81282683 753.92075474 3.75729416 961.91014307 C3.75633159 965.49760426 3.75536923 969.08506545 3.75440695 972.67252665 C3.72713943 1074.32595798 3.69967914 1175.97938925 3.67196074 1277.63282046 C3.67093483 1281.39518106 3.66990894 1285.15754167 3.66888306 1288.91990227 C3.66854423 1290.16254393 3.66820539 1291.40518558 3.66785629 1292.68548304 C3.65511621 1339.41044118 3.64242018 1386.13539934 3.62975043 1432.86035751 C3.6283738 1437.93710165 3.62699666 1443.01384579 3.62561907 1448.09058994 C3.59310118 1567.92812977 3.56137512 1687.76566974 3.53222656 1807.60321045 C3.53191969 1808.86459949 3.53161283 1810.12598853 3.53129666 1811.42560148 C3.52109314 1853.37254201 3.5109665 1895.31948255 3.50085045 1937.26642309 C3.49170998 1975.16713325 3.4825419 2013.06784341 3.47328281 2050.96855354 C3.47297866 2052.21361192 3.47267451 2053.4586703 3.47236113 2054.74145772 C3.45330635 2132.71283105 3.43305588 2210.684204 3.41159725 2288.65557671 C3.411266 2289.85978635 3.41093474 2291.06399599 3.41059345 2292.30469683 C3.39604469 2345.19034012 3.38124659 2398.07598334 3.36616334 2450.96162648 C3.36009642 2472.23780533 3.35406644 2493.51398418 3.34805668 2514.79016304 C3.34705991 2518.31791674 3.34606194 2521.84567043 3.34506384 2525.37342413 C3.32980334 2579.34159493 3.31536721 2633.30976579 3.30332303 2687.27793741 C3.30306324 2688.44198567 3.30280344 2689.60603394 3.30253577 2690.80535639 C3.29836158 2709.53098457 3.2942561 2728.25661277 3.29016246 2746.98224096 C3.27854149 2800.14021389 3.26645796 2853.29818648 3.25084388 2906.4561584 C3.25052731 2907.53472519 3.25021073 2908.61329198 3.24988456 2909.7245426 C3.24296808 2933.25523686 3.23578033 2956.78593102 3.22832713 2980.31662511 C3.22535896 2989.7013413 3.22242795 2999.0860575 3.21950912 3008.4707737 C3.21918976 3009.49449175 3.2188704 3010.51820981 3.21854136 3011.57294963 C3.20842937 3044.04430675 3.20137778 3076.51566358 3.19609657 3108.98702182 C3.19088384 3140.96141392 3.1826613 3172.93580363 3.17005563 3204.91019372 C3.16832911 3209.29082152 3.16663742 3213.67144934 3.1649667 3218.05207716 C3.1646383 3218.90966318 3.1643099 3219.7672492 3.16397155 3220.65082268 C3.15888736 3234.16444563 3.15711838 3247.67806686 3.15677539 3261.19169067 C3.15637197 3274.41856124 3.15243366 3287.64542683 3.14472784 3300.87229521 C3.14034075 3308.58307338 3.13862211 3316.29384052 3.14099269 3324.00461964 C3.14244644 3329.72752953 3.13867029 3335.45042678 3.13292535 3341.17333354 C3.13142102 3343.45945188 3.13155303 3345.74557208 3.1335965 3348.03169 C3.14258064 3359.05916462 3.03707598 3370.06361335 2.55433684 3381.08180284 C2.51560545 3381.97916163 2.47687406 3382.87652042 2.43696898 3383.8010719 C2.20258769 3388.59048475 1.73637704 3393.25591215 1 3398 C0.91224696 3399.80352877 0.86255687 3401.60939362 0.85473633 3403.41503906 C0.84516655 3404.93523651 0.84516655 3404.93523651 0.83540344 3406.48614502 C0.83429062 3407.56837341 0.8331778 3408.65060181 0.83203125 3409.765625 C0.82870285 3410.91246765 0.82537445 3412.0593103 0.82194519 3413.24090576 C0.81688883 3415.67508547 0.81453647 3418.10927208 0.81469727 3420.54345703 C0.81254836 3424.16842071 0.79448475 3427.79306041 0.77539062 3431.41796875 C0.77244855 3433.80468649 0.77046922 3436.19140564 0.76953125 3438.578125 C0.75875298 3440.14074066 0.75875298 3440.14074066 0.74775696 3441.73492432 C0.76334221 3447.18818277 0.93148725 3452.56775831 1.45001316 3457.99545383 C3.52239836 3480.17399167 3.31083443 3502.36832173 3.31664422 3524.62285636 C3.32046283 3530.7137329 3.33580931 3536.80458332 3.3496151 3542.89544392 C3.37464586 3554.68092955 3.38973043 3566.46640626 3.40119901 3578.25191205 C3.41492318 3591.90449279 3.44125616 3605.55703069 3.4675293 3619.20959473 C3.53064916 3655.20221275 3.57679919 3691.19485891 3.625 3727.1875 C3.74875 3807.645625 3.8725 3888.10375 4 3971 C293.74 3971 583.48 3971 882 3971 C882.24972262 3750.55067038 882.24972262 3750.55067038 882.47802734 3530.10131836 C882.5324707 3487.48547363 882.5324707 3487.48547363 882.56045532 3467.54151917 C882.58058296 3452.68080339 882.59419369 3437.82009556 882.6046236 3422.95937031 C882.61543099 3407.79065228 882.63366073 3392.62195636 882.65892879 3377.45325545 C882.67371907 3368.4453328 882.68324649 3359.4374437 882.68460928 3350.42950879 C882.68605481 3344.46628315 882.69476811 3338.50309553 882.70917081 3332.53988721 C882.71714931 3329.1533597 882.72107392 3325.76696857 882.71827626 3322.38042367 C882.70783197 3307.21967857 883.26105079 3292.3117118 884.79570659 3277.22702421 C885.21885258 3272.61426479 885.28817882 3268.00751626 885.265625 3263.37890625 C885.26849518 3261.94344704 885.26849518 3261.94344704 885.27142334 3260.47898865 C885.27275787 3258.49095388 885.26925828 3256.50290955 885.26074219 3254.51489258 C885.25011351 3251.59369615 885.26067805 3248.67313012 885.2734375 3245.75195312 C885.2779404 3236.21172277 885.02617698 3226.75116271 884.27852248 3217.23877064 C882.46009403 3193.24016652 882.71369084 3169.20570786 882.735956 3145.15341728 C882.73956807 3139.06973041 882.73361566 3132.98605823 882.7280538 3126.90237406 C882.71684612 3114.28020978 882.71496446 3101.65805995 882.71827881 3089.03589183 C882.7216095 3076.19421891 882.72048261 3063.35255732 882.71413441 3050.51088542 C882.71353236 3049.28492393 882.71353236 3049.28492393 882.71291814 3048.03419554 C882.71084888 3043.86039606 882.70870988 3039.68659661 882.70654711 3035.51279717 C882.69093804 3005.10202632 882.68508801 2974.69125966 882.68421364 2944.28048515 C882.68329534 2913.47150378 882.67800019 2882.66252766 882.66738319 2851.85354805 C882.6670499 2850.88076632 882.66671661 2849.90798459 882.66637323 2848.90572463 C882.66331715 2839.9904512 882.6602126 2831.0751778 882.65705032 2822.15990441 C882.64912412 2799.80745838 882.64185534 2777.45501216 882.63502336 2755.10256577 C882.63470988 2754.07846572 882.6343964 2753.05436567 882.63407343 2751.99923229 C882.61868998 2701.5516385 882.61077358 2651.10404384 882.60334396 2600.65644836 C882.60072436 2582.9041856 882.5980692 2565.15192285 882.59528303 2547.39966011 C882.59510985 2546.29607287 882.59493667 2545.19248562 882.59475824 2544.05545634 C882.58668745 2492.90222262 882.57350125 2441.7489906 882.5590107 2390.59575835 C882.55806288 2387.24892177 882.55711746 2383.9020852 882.55617265 2380.55524862 C882.55047308 2360.37337129 882.54472031 2340.19149397 882.53890612 2320.00961666 C882.52445537 2269.84100345 882.51064269 2219.67239006 882.49726295 2169.50377655 C882.49695807 2168.36175397 882.49665318 2167.2197314 882.49633905 2166.04310208 C882.47660284 2092.09793127 882.45949297 2018.15276013 882.4445858 1944.2075882 C882.44422886 1942.43717585 882.44422886 1942.43717585 882.4438647 1940.6309976 C882.43662676 1904.70379028 882.42958341 1868.77658292 882.42257814 1832.84937555 C882.41482513 1793.09170201 882.40703891 1753.33402848 882.39910889 1713.57635498 C882.39875136 1711.78302271 882.39875136 1711.78302271 882.39838661 1709.9534615 C882.37573042 1596.36704676 882.34771491 1482.78063353 882.31831678 1369.19422035 C882.31707171 1364.38209523 882.31582819 1359.56997011 882.31458474 1354.75784499 C882.30314191 1310.47507462 882.29163623 1266.19230428 882.28005161 1221.90953395 C882.27974357 1220.73199791 882.27943552 1219.55446188 882.27911814 1218.34124294 C882.27818545 1214.77598023 882.27725273 1211.21071752 882.27632002 1207.64545481 C882.25112364 1111.33238049 882.22647542 1015.01930604 882.20218242 918.70623148 C882.20132518 915.30814012 882.20046752 911.91004875 882.19960973 908.51195738 C882.17174116 798.10452606 882.1448427 687.69709456 882.1018297 492.75083015 C882.10117604 489.74484648 882.10052184 486.7388628 882.09986744 483.73287913 C882.09965326 482.74891481 882.09943908 481.76495049 882.09921841 480.75116907 C882.09882859 478.96034381 882.09843869 477.16951855 882.09804869 475.37869329 C882.06385254 318.25246252 882.03227176 161.12623118 882 4 C592.26 4 302.52 4 4 4 Z " fill="#FDFDFD" transform="translate(0,0)"/>
</svg>
