<?xml version="1.0" encoding="UTF-8"?>
<svg version="1.1" xmlns="http://www.w3.org/2000/svg" width="1011" height="3975">
<path d="M0 0 C333.3 0 666.6 0 1010 0 C1010 1311.75 1010 2623.5 1010 3975 C676.7 3975 343.4 3975 0 3975 C0 2663.25 0 1351.5 0 0 Z M4 4 C4 1021.72 4 2039.44 4 3088 C4.33 3088 4.66 3088 5 3088 C5.06469482 3087.38930664 5.12938965 3086.77861328 5.19604492 3086.14941406 C12.64441023 3017.17691197 33.88356029 2950.28732003 57.01225281 2885.14044189 C57.32016251 2884.27296326 57.6280722 2883.40548462 57.9453125 2882.51171875 C58.4146093 2881.18995636 58.4146093 2881.18995636 58.89338684 2879.8414917 C63.62658122 2866.46197611 68.14291417 2853.00695716 72.6875 2839.5625 C73.14674391 2838.2045949 73.60600289 2836.8466949 74.0652771 2835.48880005 C80.65781852 2815.9937638 87.20855334 2796.48507896 93.68798828 2776.95214844 C95.51010898 2771.46069956 97.34096395 2765.97216553 99.171875 2760.48364258 C100.0968214 2757.71062765 101.01988942 2754.93699824 101.94140625 2752.1628418 C104.11153321 2745.63384545 106.29872502 2739.11215892 108.53515625 2732.60546875 C114.65195777 2714.70203885 120.13654325 2696.64329928 125.5 2678.5 C146.3127391 2608.17222438 146.3127391 2608.17222438 163 2577 C163.34885254 2576.3409668 163.69770508 2575.68193359 164.05712891 2575.00292969 C171.35160454 2561.30490675 179.69601815 2549.13368281 190.359375 2537.8515625 C192.80575567 2535.20976089 195.07023844 2532.50278396 197.3125 2529.6875 C202.16785613 2523.6511113 207.46764045 2518.07049048 212.77734375 2512.4375 C215.67317654 2509.36227934 218.47521596 2506.22120474 221.23046875 2503.01953125 C223.6088442 2500.30513807 226.05508905 2497.65427613 228.5 2495 C231.53894492 2491.69977216 234.56156211 2488.39050526 237.5 2485 C240.90744919 2481.06832786 244.43129673 2477.24638756 247.95532227 2473.41967773 C250.48740116 2470.66526572 252.99035268 2467.89257501 255.4375 2465.0625 C259.04760347 2460.8943129 262.80059204 2456.86141993 266.56225586 2452.83032227 C267.52081615 2451.79930988 268.47339429 2450.76269233 269.41892529 2449.71971798 C270.4327954 2448.61694234 271.46738174 2447.53265972 272.52668476 2446.47345066 C276.87060118 2441.9023018 278.19179204 2438.0020012 279.14331055 2431.84936523 C279.29754077 2430.97769683 279.45177099 2430.10602842 279.61067486 2429.20794582 C279.93214319 2427.38117707 280.24400919 2425.5526942 280.54656601 2423.72269821 C280.97975342 2421.12157298 281.44418959 2418.52860478 281.92324829 2415.93557739 C282.87732177 2410.7649637 283.7952947 2405.58838326 284.70703125 2400.41015625 C284.87009954 2399.48593809 285.03316784 2398.56171993 285.2011776 2397.60949516 C286.05867843 2392.74771448 286.91325467 2387.88543053 287.76538086 2383.02270508 C288.64300926 2378.01818745 289.53145198 2373.01564921 290.42210865 2368.01343632 C291.1101321 2364.13777416 291.7901179 2360.26073314 292.46790123 2356.38326836 C292.79220167 2354.53636633 293.11955213 2352.68999709 293.45005226 2350.84419441 C293.90860261 2348.2791351 294.35570264 2345.71232779 294.80004883 2343.14477539 C294.937621 2342.39000916 295.07519318 2341.63524292 295.2169342 2340.85760498 C295.87149098 2337.00038747 296.34308265 2333.72968057 295 2330 C292.63621471 2328.29181928 290.41001415 2326.90100608 287.875 2325.5 C264.08296397 2311.50231635 244.93278572 2288.83661442 236.78515625 2262.2421875 C232.58863685 2244.91327656 233.3338811 2228.26920788 241 2212 C241.4434375 2211.05640625 241.886875 2210.1128125 242.34375 2209.140625 C253.73992167 2186.72815404 275.85849624 2170.07075188 298 2159 C298 2149.76 298 2140.52 298 2131 C294.3803125 2129.4840625 294.3803125 2129.4840625 290.6875 2127.9375 C268.88283357 2118.48167613 253.89577982 2103.44738736 244.4375 2081.65234375 C236.82090076 2062.30038645 236.48391079 2039.89671908 244.765625 2020.69140625 C256.42982229 1995.60619644 275.62135285 1981.51699268 301 1972 C301 1960.12 301 1948.24 301 1936 C297.04 1934.35 293.08 1932.7 289 1931 C279.75683355 1926.58968915 271.71573924 1921.77122633 264 1915 C262.84757813 1914.06220703 262.84757813 1914.06220703 261.671875 1913.10546875 C249.61091287 1903.03415513 239.14085543 1886.84615316 237 1871 C236.11948457 1859.83457515 236.14393816 1849.3021125 241 1839 C241.63615234 1837.60587891 241.63615234 1837.60587891 242.28515625 1836.18359375 C245.81606327 1829.11194431 250.44270647 1823.57548435 256 1818 C256.71542969 1817.26136719 257.43085938 1816.52273438 258.16796875 1815.76171875 C263.1972723 1810.88822839 268.70183959 1807.06028294 274.625 1803.375 C275.31005615 1802.94388916 275.9951123 1802.51277832 276.70092773 1802.06860352 C284.23528065 1797.53122785 291.74552298 1794.61133369 300 1791 C300 1777.8 300 1764.6 300 1751 C294.06 1749.35 288.12 1747.7 282 1746 C263.23920703 1737.36407943 249.43406076 1724.50461481 241.71630859 1705.02783203 C234.99858984 1686.01032285 237.3841047 1665.93095496 245.4296875 1647.7734375 C252.85774875 1632.88177403 264.88818559 1621.64651713 279.4375 1613.75 C280.02176758 1613.43256836 280.60603516 1613.11513672 281.20800781 1612.78808594 C286.71032001 1609.93024929 292.03403015 1608.16944358 298 1606 C298 1585.21 298 1564.42 298 1543 C289.585 1541.515 289.585 1541.515 281 1540 C276.71974544 1538.47436471 272.99860534 1537.0241216 269 1535 C267.99324219 1534.49597656 266.98648437 1533.99195313 265.94921875 1533.47265625 C249.96550842 1524.84104648 240.35619084 1511.13178644 235 1494 C229.29798109 1473.76274839 232.9679432 1452.95984065 242.7890625 1434.73828125 C245.8968257 1429.28929947 249.7608854 1424.60468962 254 1420 C254.52722656 1419.38125 255.05445313 1418.7625 255.59765625 1418.125 C265.563391 1407.11426493 279.36898169 1401.04993484 293 1396 C294.41634315 1395.46997695 295.8324436 1394.93930486 297.24829102 1394.40795898 C297.954944 1394.14280991 298.66159698 1393.87766083 299.3896637 1393.60447693 C299.92107468 1393.40499954 300.45248566 1393.20552216 301 1393 C301.06993164 1391.72398926 301.13986328 1390.44797852 301.21191406 1389.13330078 C305.16167552 1317.97833556 310.72916252 1244.15803093 363.40722656 1190.62353516 C364.82760747 1189.175722 366.22414195 1187.70460203 367.6171875 1186.23046875 C374.18021267 1179.39846714 381.39609226 1173.61506619 389 1168 C389.53592773 1167.59845703 390.07185547 1167.19691406 390.62402344 1166.78320312 C410.345144 1152.19564195 433.82846002 1141.67135047 457 1134 C457.85319824 1133.71334473 458.70639648 1133.42668945 459.58544922 1133.13134766 C528.06802707 1110.41953933 606.15736414 1114.33408923 670.9140625 1146.359375 C688.39568569 1155.27000808 703.85606253 1166.41165569 718 1180 C718.57041016 1180.54317871 719.14082031 1181.08635742 719.72851562 1181.64599609 C737.84530966 1198.97574908 751.48602133 1219.26956034 762 1242 C762.29712891 1242.6290625 762.59425781 1243.258125 762.90039062 1243.90625 C771.68167994 1262.57844688 776.9711231 1281.62885169 780.53857422 1301.92480469 C780.80062275 1303.97954622 780.80062275 1303.97954622 782 1305 C783.70275812 1305.31344304 785.40675121 1305.62134995 787.11572266 1305.89892578 C806.48394861 1309.08486823 823.42419251 1317.64281329 836 1333 C847.62007643 1349.52387368 851.87142549 1368.13058518 848.75390625 1388.00390625 C844.4154547 1412.22644597 829.62096928 1433.99133048 809.52197266 1448.07373047 C801.42957961 1453.53830358 792.7489332 1457.70588682 784 1462 C781.22310666 1483.42985349 781.22310666 1483.42985349 785.50732422 1503.79785156 C789.28840768 1507.64506804 793.86918805 1509.51350619 798.91503906 1511.22705078 C801.79574574 1512.29500363 803.90773224 1513.91014084 806.25 1515.875 C807.00410156 1516.50535156 807.75820313 1517.13570312 808.53515625 1517.78515625 C825.34956364 1532.89414038 838.42675056 1550.51919457 839.99609375 1573.92578125 C840.02437283 1596.18142085 830.34347015 1615.23497962 815 1631 C812.80859489 1633.13337211 810.55569075 1635.17850343 808.25 1637.1875 C807.75105225 1637.62578125 807.25210449 1638.0640625 806.73803711 1638.515625 C806.21089111 1638.95777344 805.68374512 1639.39992188 805.140625 1639.85546875 C804.26386108 1640.59990234 804.26386108 1640.59990234 803.36938477 1641.359375 C801.30978579 1642.78549609 799.51301496 1643.69253061 797.23803711 1644.6875 C792.8084909 1646.79953548 788.87530446 1648.91530755 786 1653 C783.49571104 1661.19229118 784.59611263 1670.19482824 785.0625 1678.625 C785.13781374 1680.98806985 785.2062423 1683.35136978 785.26757812 1685.71484375 C785.43217702 1691.48161431 785.68243892 1697.23973488 786 1703 C787.16265381 1703.60183105 788.32530762 1704.20366211 789.52319336 1704.82373047 C791.06637388 1705.62963318 792.60941676 1706.43579951 794.15234375 1707.2421875 C794.9165564 1707.63688232 795.68076904 1708.03157715 796.46813965 1708.43823242 C802.59781679 1711.65223361 807.81745525 1715.40702915 813 1720 C813.69222656 1720.55042969 814.38445313 1721.10085938 815.09765625 1721.66796875 C827.39385618 1731.64234287 837.07006042 1748.19861972 839 1764 C840.55635685 1785.46475485 836.83596164 1803.92650551 822.80078125 1820.94921875 C812.73012471 1832.41797078 800.87827549 1839.09011235 787 1845 C786.81854592 1865.52297526 786.81854592 1865.52297526 788 1886 C789.08796875 1886.4846875 790.1759375 1886.969375 791.296875 1887.46875 C813.00899016 1897.30364417 829.99103046 1909.60768398 838.97265625 1932.4765625 C844.24474843 1948.70970214 840.84740756 1965.29659696 833.32397461 1980.13549805 C829.96328696 1986.42686857 825.78283615 1991.71672988 821 1997 C819.91912109 1998.27617187 819.91912109 1998.27617187 818.81640625 1999.578125 C815.05007665 2003.95539221 811.13759765 2007.87855976 806.6875 2011.5625 C805.82302246 2012.28010498 804.95854492 2012.99770996 804.06787109 2013.73706055 C801 2016 801 2016 797.84594727 2017.38037109 C793.95595654 2019.32943076 791.08954827 2021.16323768 789 2025 C787.03150925 2033.78987989 787.81447922 2043.1065909 788.17602539 2052.04101562 C788.29964095 2055.41902502 788.35376543 2058.79810683 788.4140625 2062.17773438 C788.54593653 2068.78795875 788.74636954 2075.39338673 789 2082 C790.21743896 2082.18900879 791.43487793 2082.37801758 792.68920898 2082.57275391 C794.31238785 2082.83204016 795.93551331 2083.09166082 797.55859375 2083.3515625 C798.75760315 2083.53634155 798.75760315 2083.53634155 799.98083496 2083.72485352 C807.12977643 2084.88138041 813.4077717 2086.95040962 820 2090 C820.80695312 2090.36867188 821.61390625 2090.73734375 822.4453125 2091.1171875 C836.30954143 2098.12176309 846.94548111 2111.15742607 851.9375 2125.73828125 C858.11955129 2147.70239616 854.22869458 2170.08193571 843.7265625 2190.08984375 C831.38945151 2210.88429554 813.92509355 2223.12247193 791 2230 C791 2263.66 791 2297.32 791 2332 C802.385 2337.445 802.385 2337.445 814 2343 C828.80452975 2352.63469396 840.54968287 2362.78847223 846 2380 C849.95709212 2400.28355611 843.10379216 2419.84140296 834.6953125 2438.0703125 C834.31914795 2438.88717529 833.9429834 2439.70403809 833.55541992 2440.5456543 C832.82448424 2442.10952782 832.07781517 2443.66616849 831.3137207 2445.21411133 C829.40250411 2449.01097839 829.40250411 2449.01097839 829.46484375 2453.12109375 C829.97144531 2453.74113281 830.47804688 2454.36117187 831 2455 C831.76570312 2455.95132813 832.53140625 2456.90265625 833.3203125 2457.8828125 C834.25164905 2458.96661044 835.18674449 2460.04718631 836.125 2461.125 C837.1325451 2462.29859167 838.13904984 2463.47307727 839.14453125 2464.6484375 C839.63646973 2465.22303711 840.1284082 2465.79763672 840.63525391 2466.38964844 C842.40389693 2468.47658392 844.1140091 2470.60570129 845.8125 2472.75 C848.82556306 2476.55337468 851.89420785 2480.3058682 854.98779297 2484.04370117 C857.42668568 2486.99262725 859.85549245 2489.94975574 862.28222656 2492.90869141 C863.36199787 2494.22326233 864.44431115 2495.53575361 865.53027344 2496.84521484 C872.78112789 2505.60810755 878.80367766 2514.8094909 884.57324219 2524.60400391 C886.02348528 2527.03943951 887.51008103 2529.4489851 889.0078125 2531.85546875 C906.56980206 2560.21705643 917.52488191 2590.83501602 926 2623 C926.29471191 2624.10375977 926.58942383 2625.20751953 926.89306641 2626.34472656 C939.31697244 2673.39637737 945.14750628 2721.99712073 950.9296875 2770.21875 C951.05999359 2771.30540451 951.19029968 2772.39205902 951.32455444 2773.51164246 C952.65310684 2784.60109104 953.97341014 2795.69146158 955.27355194 2806.78427887 C960.41399479 2850.63022688 966.81062326 2893.35865985 977.77716064 2936.19772339 C979.5648474 2943.18484888 981.32146019 2950.17982437 983.07421875 2957.17578125 C983.24705383 2957.8654706 983.41988892 2958.55515995 983.59796143 2959.26574898 C992.56889141 2995.11164743 1000.24488995 3031.33559885 1005 3068 C1005.33 3068 1005.66 3068 1006 3068 C1006 2056.88 1006 1045.76 1006 4 C675.34 4 344.68 4 4 4 Z M4 3160 C4 3427.63 4 3695.26 4 3971 C334.66 3971 665.32 3971 1006 3971 C1006 3715.25 1006 3459.5 1006 3196 C1005.67 3196 1005.34 3196 1005 3196 C1004.78234985 3197.01646606 1004.78234985 3197.01646606 1004.56030273 3198.0534668 C990.56497783 3262.7198278 955.7157399 3314.61096699 907.27734375 3358.9765625 C904.63479569 3361.39770991 902.07517234 3363.88074568 899.5625 3366.4375 C896.54040754 3369.50508632 893.38588364 3372.35358248 890.12109375 3375.16015625 C887.77508942 3377.19508819 885.4826355 3379.28290967 883.1875 3381.375 C878.81714316 3385.32371445 874.29696921 3389.0462721 869.71875 3392.75 C867.07852271 3394.93501569 864.5327028 3397.19171391 862 3399.5 C857.7569853 3403.36214567 853.37657134 3407.00754309 848.91796875 3410.6171875 C845.74582277 3413.20756106 842.61965982 3415.84693437 839.5 3418.5 C834.73107822 3422.55034575 829.92087005 3426.54352572 825.0703125 3430.49609375 C815.49138111 3438.30791948 805.94770048 3446.15972837 796.53173828 3454.16748047 C792.33671818 3457.73028404 788.08085722 3461.21325575 783.8125 3464.6875 C780.11826545 3467.72498174 776.47524894 3470.82072046 772.83154297 3473.91845703 C769.4614901 3476.77846938 766.05973692 3479.59255733 762.625 3482.375 C756.27803346 3487.54455825 750.11774944 3492.92313381 743.94824219 3498.30175781 C735.0707062 3506.04012126 726.16985905 3513.74773182 717.16015625 3521.33203125 C715.07428353 3523.08852192 712.99950783 3524.85680362 710.93359375 3526.63671875 C701.87526148 3534.41997367 692.49657502 3541.76040574 683 3549 C682.23381348 3549.58716797 681.46762695 3550.17433594 680.67822266 3550.77929688 C626.68418793 3592.00654971 568.00334644 3611.77561949 500 3604 C469.70426147 3599.92805768 440.0154357 3582.26067074 413.75341797 3567.54296875 C410.92479258 3565.95785504 408.08954019 3564.38503574 405.25390625 3562.8125 C393.20823907 3556.10089433 381.41002751 3549.06192117 369.73925781 3541.71972656 C366.84989536 3539.90576318 363.95311312 3538.10413065 361.0546875 3536.3046875 C325.64429228 3514.30010184 291.09781846 3490.98026905 257 3467 C256.26007813 3466.48050781 255.52015625 3465.96101563 254.7578125 3465.42578125 C240.3967954 3455.34196239 226.11368308 3445.15461343 212.10473633 3434.58544922 C207.7716139 3431.31840823 203.41017531 3428.09315094 199.03149414 3424.88745117 C189.55464822 3417.94686573 180.25033453 3410.81123975 171.00585938 3403.56494141 C168.14569438 3401.33348357 165.25998977 3399.13677176 162.375 3396.9375 C156.05568712 3392.08816635 149.88239754 3387.06755937 143.71484375 3382.02734375 C140.78902204 3379.63710118 137.83988076 3377.27922027 134.875 3374.9375 C130.23511036 3371.24118456 125.74556097 3367.38020027 121.25708008 3363.50292969 C117.57725653 3360.32999242 113.84803081 3357.23464431 110.0625 3354.1875 C106.36426593 3351.1867399 102.95487425 3348.07520433 99.6484375 3344.65234375 C97.97991743 3342.97986984 96.24075093 3341.46303507 94.4375 3339.9375 C83.0936651 3330.06091788 73.38513992 3319.29600063 64.55273438 3307.13378906 C63.06823942 3305.09377556 61.55982543 3303.07363804 60.046875 3301.0546875 C46.37645543 3282.5434225 35.20289723 3262.06431284 26 3241 C25.6812793 3240.27538574 25.36255859 3239.55077148 25.03417969 3238.80419922 C14.27590362 3213.92496974 8.09370134 3186.86635378 5 3160 C4.67 3160 4.34 3160 4 3160 Z " fill="#B7B7B8" transform="translate(0,0)"/>
<path d="M0 0 C37.36439755 -0.2964883 74.72864601 -0.52993759 112.09390453 -0.68666922 C117.4470455 -0.70914172 122.80018358 -0.73224806 128.15332031 -0.75570679 C129.21160347 -0.76031826 130.26988663 -0.76492973 131.36023897 -0.76968094 C148.48536661 -0.84591644 165.60951504 -0.98251608 182.73406407 -1.14014969 C200.14030901 -1.2988401 217.54592546 -1.38963252 234.95288301 -1.41424721 C245.44847325 -1.43110075 255.94093086 -1.49922519 266.43563059 -1.63803514 C273.51678071 -1.72666378 280.59619215 -1.74926529 287.67782637 -1.71912656 C291.73344569 -1.70376082 295.78342736 -1.71695322 299.83813477 -1.80984461 C323.34090241 -2.32131556 323.34090241 -2.32131556 329.50148106 2.13353634 C333.46096158 6.30401584 335.99158427 10.9404936 338.16403818 16.23110247 C339.34883895 19.07305066 340.89998347 21.64636888 342.49804688 24.27294922 C343.40548412 25.98293265 344.29893207 27.70041842 345.17773438 29.42529297 C345.66580566 30.3737207 346.15387695 31.32214844 346.65673828 32.29931641 C370.05338927 78.75870575 379.72629363 131.478567 386.55029297 182.62451172 C387.20565367 187.50054817 387.90829179 192.36903442 388.61523438 197.23779297 C388.96715929 199.70993551 389.31707516 202.1823577 389.66699219 204.65478516 C389.94238331 206.58810053 390.22070182 208.52099985 390.50097656 210.45361328 C392.5788884 224.79668426 394.40878196 239.13917129 395.92773438 253.55029297 C401.92370071 310.23557941 409.67731109 365.45168597 424.40454102 420.56469727 C437.01934819 467.81404444 446.34193784 515.67640487 451.05273438 564.36279297 C451.15875977 565.43110352 451.26478516 566.49941406 451.37402344 567.60009766 C452.25885273 577.54887724 452.29516668 587.50689255 452.30273438 597.48779297 C452.304245 598.87641541 452.304245 598.87641541 452.30578613 600.29309082 C452.29439121 615.84581906 451.43357395 630.97153298 449.05273438 646.36279297 C448.85188232 647.76585693 448.85188232 647.76585693 448.64697266 649.19726562 C443.68265108 683.44205846 430.41514021 718.24154556 410.05273438 746.36279297 C409.61203613 746.971875 409.17133789 747.58095703 408.71728516 748.20849609 C401.88313947 757.60457854 394.67267886 766.59563022 387.05273438 775.36279297 C386.06466797 776.51908203 386.06466797 776.51908203 385.05664062 777.69873047 C381.81721268 781.46483601 378.4421717 785.01255674 374.89355469 788.48754883 C373.1152262 790.29913253 371.47458892 792.17260899 369.83398438 794.10888672 C366.15611509 798.33843639 362.1810997 802.14095809 358.05273438 805.92529297 C353.49578473 810.12868617 348.99666781 814.35929864 344.65063477 818.78173828 C341.59563814 821.80452791 338.31695171 824.57019145 335.05273438 827.36279297 C334.02141647 828.24682834 332.99017206 829.13094946 331.95898438 830.01513672 C330.20046661 831.52250985 328.44156852 833.0294296 326.68164062 834.53515625 C322.26804033 838.3130768 317.8757364 842.11481801 313.49023438 845.92529297 C304.06425669 854.10688103 294.55111615 862.16833094 284.86914062 870.04638672 C281.71488246 872.64066563 278.60070457 875.27885562 275.49023438 877.92529297 C270.93989121 881.79521099 266.32440602 885.56239194 261.64257812 889.27294922 C258.02142468 892.19499611 254.48318869 895.21100783 250.93945312 898.22607422 C247.50701829 901.1428381 244.04680623 904.01972723 240.55273438 906.86279297 C235.94660522 910.61196786 231.40883838 914.43464485 226.88427734 918.28125 C223.51422448 921.14126235 220.1124713 923.9553503 216.67773438 926.73779297 C210.32914259 931.90867497 204.16756629 937.28883563 197.99658203 942.66894531 C169.35360985 967.62811902 169.35360985 967.62811902 156.05273438 978.36279297 C155.52164063 978.79495117 154.99054687 979.22710938 154.44335938 979.67236328 C103.38407995 1021.21658204 49.83374327 1050.20291054 -17.88476562 1043.90185547 C-68.89417722 1037.82113531 -120.81539281 999.52293956 -162.61914062 972.17529297 C-165.69484645 970.16655263 -168.79047275 968.19314487 -171.90039062 966.23779297 C-186.06780109 957.3245128 -199.93190403 948.00933544 -213.74169922 938.55615234 C-216.57444257 936.61789139 -219.41029692 934.68433723 -222.24804688 932.75341797 C-233.55048786 925.05520366 -244.76158318 917.22944505 -255.94726562 909.36279297 C-256.6871875 908.84330078 -257.42710937 908.32380859 -258.18945312 907.78857422 C-272.55047022 897.70475535 -286.83358255 887.5174064 -300.8425293 876.94824219 C-305.17556115 873.68126949 -309.53687996 870.45604291 -313.91552734 867.25048828 C-323.37394484 860.32314254 -332.67576349 853.21847935 -341.89404297 845.97509766 C-343.80063225 844.47793765 -345.7110186 842.98580913 -347.62304688 841.49560547 C-355.88135392 835.04922325 -364.02541965 828.46708264 -372.13867188 821.83935547 C-373.73962042 820.53231756 -375.34324539 819.22855941 -376.94726562 817.92529297 C-387.50940219 809.32820507 -397.90380594 800.56302366 -407.94726562 791.36279297 C-408.46853027 790.88664551 -408.98979492 790.41049805 -409.52685547 789.91992188 C-412.88337705 786.85179809 -416.22533051 783.76888096 -419.54931641 780.66552734 C-420.67535612 779.61618262 -421.80828203 778.57423 -422.94335938 777.53466797 C-428.99304812 771.78963981 -433.9130489 764.98738767 -438.94726562 758.36279297 C-439.41745117 757.74807129 -439.88763672 757.13334961 -440.37207031 756.5 C-465.43023114 723.61224774 -484.27326549 683.29496871 -490.94726562 642.36279297 C-491.0885791 641.49928223 -491.22989258 640.63577148 -491.37548828 639.74609375 C-494.1256385 622.53219054 -495.21024887 605.4700434 -495.25976562 588.05029297 C-495.26238403 587.16005432 -495.26500244 586.26981567 -495.2677002 585.3526001 C-495.27318682 567.76365798 -493.66086882 550.72360419 -490.94726562 533.36279297 C-490.79241699 532.3317041 -490.63756836 531.30061523 -490.47802734 530.23828125 C-486.8703727 506.48688938 -481.62376687 482.75263685 -474.66357422 459.76220703 C-473.9470921 457.36221171 -473.26385381 454.95526708 -472.59179688 452.54248047 C-459.96930777 407.2413215 -444.11902893 362.85078587 -428.94726562 318.36279297 C-428.30289142 316.47282096 -427.65852275 314.58284706 -427.01416016 312.69287109 C-425.22193702 307.43670158 -423.42851996 302.1809401 -421.63476562 296.92529297 C-421.35161499 296.09537842 -421.06846436 295.26546387 -420.7767334 294.41040039 C-417.71796892 285.44628321 -414.64764684 276.48637335 -411.55273438 267.53466797 C-410.73553788 265.16672202 -409.91859176 262.79868984 -409.10171509 260.43063354 C-408.35468724 258.26910506 -407.60361936 256.10901253 -406.85229492 253.94897461 C-404.6973142 247.720169 -402.6590383 241.48856811 -400.88867188 235.13623047 C-399.08636414 228.67750595 -396.85545305 222.45290467 -394.50976562 216.17529297 C-389.98377553 203.78547047 -386.05170306 191.24500371 -382.25976562 178.61279297 C-381.97813568 177.67466766 -381.69650574 176.73654236 -381.40634155 175.76998901 C-378.58696016 166.35881163 -375.81050756 156.93646386 -373.10986328 147.49047852 C-370.11118576 137.00997976 -366.81433384 126.64634536 -363.38476562 116.30029297 C-363.15851501 115.61368591 -362.9322644 114.92707886 -362.69915771 114.21966553 C-353.72351774 87.04921098 -342.77090723 59.01442711 -324.94726562 36.36279297 C-324.32464844 35.53779297 -323.70203125 34.71279297 -323.06054688 33.86279297 C-314.99268462 23.38930038 -305.83719017 14.82207654 -294.94726562 7.36279297 C-293.65320801 6.09125114 -293.65320801 6.09125114 -292.33300781 4.79402161 C-286.29832733 0.53943388 -278.14815499 1.61275439 -271.07226562 1.61157227 C-269.30722208 1.59324262 -267.54219953 1.57279158 -265.77720261 1.55041885 C-260.88107873 1.49494954 -255.98521922 1.47106326 -251.08883572 1.45221782 C-245.69589443 1.42611444 -240.30322198 1.37139405 -234.91046143 1.32118225 C-221.5373718 1.20336966 -208.16417589 1.13462469 -194.79074287 1.06964684 C-188.39380087 1.03743497 -181.99689069 0.999882 -175.59997559 0.96276855 C-153.83385623 0.83821137 -132.06771911 0.72343226 -110.30139837 0.64038394 C-103.23348194 0.61340779 -96.16556827 0.58572268 -89.09765625 0.55761719 C-88.29727576 0.5544397 -87.49689527 0.55126222 -86.67226082 0.54798844 C-57.78091514 0.4323636 -28.89064581 0.2293291 0 0 Z " fill="#FDFDFD" transform="translate(527.947265625,2532.63720703125)"/>
<path d="M0 0 C333.3 0 666.6 0 1010 0 C1010 1311.75 1010 2623.5 1010 3975 C676.7 3975 343.4 3975 0 3975 C0 2663.25 0 1351.5 0 0 Z M4 4 C4 1021.72 4 2039.44 4 3088 C4.33 3088 4.66 3088 5 3088 C5.06469482 3087.38930664 5.12938965 3086.77861328 5.19604492 3086.14941406 C12.64441023 3017.17691197 33.88356029 2950.28732003 57.01225281 2885.14044189 C57.32016251 2884.27296326 57.6280722 2883.40548462 57.9453125 2882.51171875 C58.4146093 2881.18995636 58.4146093 2881.18995636 58.89338684 2879.8414917 C63.62658122 2866.46197611 68.14291417 2853.00695716 72.6875 2839.5625 C73.14674391 2838.2045949 73.60600289 2836.8466949 74.0652771 2835.48880005 C80.65781852 2815.9937638 87.20855334 2796.48507896 93.68798828 2776.95214844 C95.51010898 2771.46069956 97.34096395 2765.97216553 99.171875 2760.48364258 C100.0968214 2757.71062765 101.01988942 2754.93699824 101.94140625 2752.1628418 C104.11153321 2745.63384545 106.29872502 2739.11215892 108.53515625 2732.60546875 C114.65195777 2714.70203885 120.13654325 2696.64329928 125.5 2678.5 C146.3127391 2608.17222438 146.3127391 2608.17222438 163 2577 C163.34885254 2576.3409668 163.69770508 2575.68193359 164.05712891 2575.00292969 C171.35160454 2561.30490675 179.69601815 2549.13368281 190.359375 2537.8515625 C192.80575567 2535.20976089 195.07023844 2532.50278396 197.3125 2529.6875 C202.16785613 2523.6511113 207.46764045 2518.07049048 212.77734375 2512.4375 C215.67317654 2509.36227934 218.47521596 2506.22120474 221.23046875 2503.01953125 C223.6088442 2500.30513807 226.05508905 2497.65427613 228.5 2495 C231.53894492 2491.69977216 234.56156211 2488.39050526 237.5 2485 C240.90744919 2481.06832786 244.43129673 2477.24638756 247.95532227 2473.41967773 C250.48740116 2470.66526572 252.99035268 2467.89257501 255.4375 2465.0625 C259.04760347 2460.8943129 262.80059204 2456.86141993 266.56225586 2452.83032227 C267.52081615 2451.79930988 268.47339429 2450.76269233 269.41892529 2449.71971798 C270.4327954 2448.61694234 271.46738174 2447.53265972 272.52668476 2446.47345066 C276.87060118 2441.9023018 278.19179204 2438.0020012 279.14331055 2431.84936523 C279.29754077 2430.97769683 279.45177099 2430.10602842 279.61067486 2429.20794582 C279.93214319 2427.38117707 280.24400919 2425.5526942 280.54656601 2423.72269821 C280.97975342 2421.12157298 281.44418959 2418.52860478 281.92324829 2415.93557739 C282.87732177 2410.7649637 283.7952947 2405.58838326 284.70703125 2400.41015625 C284.87009954 2399.48593809 285.03316784 2398.56171993 285.2011776 2397.60949516 C286.05867843 2392.74771448 286.91325467 2387.88543053 287.76538086 2383.02270508 C288.64300926 2378.01818745 289.53145198 2373.01564921 290.42210865 2368.01343632 C291.1101321 2364.13777416 291.7901179 2360.26073314 292.46790123 2356.38326836 C292.79220167 2354.53636633 293.11955213 2352.68999709 293.45005226 2350.84419441 C293.90860261 2348.2791351 294.35570264 2345.71232779 294.80004883 2343.14477539 C294.937621 2342.39000916 295.07519318 2341.63524292 295.2169342 2340.85760498 C295.87149098 2337.00038747 296.34308265 2333.72968057 295 2330 C292.63621471 2328.29181928 290.41001415 2326.90100608 287.875 2325.5 C264.08296397 2311.50231635 244.93278572 2288.83661442 236.78515625 2262.2421875 C232.58863685 2244.91327656 233.3338811 2228.26920788 241 2212 C241.4434375 2211.05640625 241.886875 2210.1128125 242.34375 2209.140625 C253.73992167 2186.72815404 275.85849624 2170.07075188 298 2159 C298 2149.76 298 2140.52 298 2131 C294.3803125 2129.4840625 294.3803125 2129.4840625 290.6875 2127.9375 C268.88283357 2118.48167613 253.89577982 2103.44738736 244.4375 2081.65234375 C236.82090076 2062.30038645 236.48391079 2039.89671908 244.765625 2020.69140625 C256.42982229 1995.60619644 275.62135285 1981.51699268 301 1972 C301 1960.12 301 1948.24 301 1936 C297.04 1934.35 293.08 1932.7 289 1931 C279.75683355 1926.58968915 271.71573924 1921.77122633 264 1915 C262.84757813 1914.06220703 262.84757813 1914.06220703 261.671875 1913.10546875 C249.61091287 1903.03415513 239.14085543 1886.84615316 237 1871 C236.11948457 1859.83457515 236.14393816 1849.3021125 241 1839 C241.63615234 1837.60587891 241.63615234 1837.60587891 242.28515625 1836.18359375 C245.81606327 1829.11194431 250.44270647 1823.57548435 256 1818 C256.71542969 1817.26136719 257.43085938 1816.52273438 258.16796875 1815.76171875 C263.1972723 1810.88822839 268.70183959 1807.06028294 274.625 1803.375 C275.31005615 1802.94388916 275.9951123 1802.51277832 276.70092773 1802.06860352 C284.23528065 1797.53122785 291.74552298 1794.61133369 300 1791 C300 1777.8 300 1764.6 300 1751 C294.06 1749.35 288.12 1747.7 282 1746 C263.23920703 1737.36407943 249.43406076 1724.50461481 241.71630859 1705.02783203 C234.99858984 1686.01032285 237.3841047 1665.93095496 245.4296875 1647.7734375 C252.85774875 1632.88177403 264.88818559 1621.64651713 279.4375 1613.75 C280.02176758 1613.43256836 280.60603516 1613.11513672 281.20800781 1612.78808594 C286.71032001 1609.93024929 292.03403015 1608.16944358 298 1606 C298 1585.21 298 1564.42 298 1543 C289.585 1541.515 289.585 1541.515 281 1540 C276.71974544 1538.47436471 272.99860534 1537.0241216 269 1535 C267.99324219 1534.49597656 266.98648437 1533.99195313 265.94921875 1533.47265625 C249.96550842 1524.84104648 240.35619084 1511.13178644 235 1494 C229.29798109 1473.76274839 232.9679432 1452.95984065 242.7890625 1434.73828125 C245.8968257 1429.28929947 249.7608854 1424.60468962 254 1420 C254.52722656 1419.38125 255.05445313 1418.7625 255.59765625 1418.125 C265.563391 1407.11426493 279.36898169 1401.04993484 293 1396 C294.41634315 1395.46997695 295.8324436 1394.93930486 297.24829102 1394.40795898 C297.954944 1394.14280991 298.66159698 1393.87766083 299.3896637 1393.60447693 C299.92107468 1393.40499954 300.45248566 1393.20552216 301 1393 C301.06993164 1391.72398926 301.13986328 1390.44797852 301.21191406 1389.13330078 C305.16167552 1317.97833556 310.72916252 1244.15803093 363.40722656 1190.62353516 C364.82760747 1189.175722 366.22414195 1187.70460203 367.6171875 1186.23046875 C374.18021267 1179.39846714 381.39609226 1173.61506619 389 1168 C389.53592773 1167.59845703 390.07185547 1167.19691406 390.62402344 1166.78320312 C410.345144 1152.19564195 433.82846002 1141.67135047 457 1134 C457.85319824 1133.71334473 458.70639648 1133.42668945 459.58544922 1133.13134766 C528.06802707 1110.41953933 606.15736414 1114.33408923 670.9140625 1146.359375 C688.39568569 1155.27000808 703.85606253 1166.41165569 718 1180 C718.57041016 1180.54317871 719.14082031 1181.08635742 719.72851562 1181.64599609 C737.84530966 1198.97574908 751.48602133 1219.26956034 762 1242 C762.29712891 1242.6290625 762.59425781 1243.258125 762.90039062 1243.90625 C771.68167994 1262.57844688 776.9711231 1281.62885169 780.53857422 1301.92480469 C780.80062275 1303.97954622 780.80062275 1303.97954622 782 1305 C783.70275812 1305.31344304 785.40675121 1305.62134995 787.11572266 1305.89892578 C806.48394861 1309.08486823 823.42419251 1317.64281329 836 1333 C847.62007643 1349.52387368 851.87142549 1368.13058518 848.75390625 1388.00390625 C844.4154547 1412.22644597 829.62096928 1433.99133048 809.52197266 1448.07373047 C801.42957961 1453.53830358 792.7489332 1457.70588682 784 1462 C781.22310666 1483.42985349 781.22310666 1483.42985349 785.50732422 1503.79785156 C789.28840768 1507.64506804 793.86918805 1509.51350619 798.91503906 1511.22705078 C801.79574574 1512.29500363 803.90773224 1513.91014084 806.25 1515.875 C807.00410156 1516.50535156 807.75820313 1517.13570312 808.53515625 1517.78515625 C825.34956364 1532.89414038 838.42675056 1550.51919457 839.99609375 1573.92578125 C840.02437283 1596.18142085 830.34347015 1615.23497962 815 1631 C812.80859489 1633.13337211 810.55569075 1635.17850343 808.25 1637.1875 C807.75105225 1637.62578125 807.25210449 1638.0640625 806.73803711 1638.515625 C806.21089111 1638.95777344 805.68374512 1639.39992188 805.140625 1639.85546875 C804.26386108 1640.59990234 804.26386108 1640.59990234 803.36938477 1641.359375 C801.30978579 1642.78549609 799.51301496 1643.69253061 797.23803711 1644.6875 C792.8084909 1646.79953548 788.87530446 1648.91530755 786 1653 C783.49571104 1661.19229118 784.59611263 1670.19482824 785.0625 1678.625 C785.13781374 1680.98806985 785.2062423 1683.35136978 785.26757812 1685.71484375 C785.43217702 1691.48161431 785.68243892 1697.23973488 786 1703 C787.16265381 1703.60183105 788.32530762 1704.20366211 789.52319336 1704.82373047 C791.06637388 1705.62963318 792.60941676 1706.43579951 794.15234375 1707.2421875 C794.9165564 1707.63688232 795.68076904 1708.03157715 796.46813965 1708.43823242 C802.59781679 1711.65223361 807.81745525 1715.40702915 813 1720 C813.69222656 1720.55042969 814.38445313 1721.10085938 815.09765625 1721.66796875 C827.39385618 1731.64234287 837.07006042 1748.19861972 839 1764 C840.55635685 1785.46475485 836.83596164 1803.92650551 822.80078125 1820.94921875 C812.73012471 1832.41797078 800.87827549 1839.09011235 787 1845 C786.81854592 1865.52297526 786.81854592 1865.52297526 788 1886 C789.08796875 1886.4846875 790.1759375 1886.969375 791.296875 1887.46875 C813.00899016 1897.30364417 829.99103046 1909.60768398 838.97265625 1932.4765625 C844.24474843 1948.70970214 840.84740756 1965.29659696 833.32397461 1980.13549805 C829.96328696 1986.42686857 825.78283615 1991.71672988 821 1997 C819.91912109 1998.27617187 819.91912109 1998.27617187 818.81640625 1999.578125 C815.05007665 2003.95539221 811.13759765 2007.87855976 806.6875 2011.5625 C805.82302246 2012.28010498 804.95854492 2012.99770996 804.06787109 2013.73706055 C801 2016 801 2016 797.84594727 2017.38037109 C793.95595654 2019.32943076 791.08954827 2021.16323768 789 2025 C787.03150925 2033.78987989 787.81447922 2043.1065909 788.17602539 2052.04101562 C788.29964095 2055.41902502 788.35376543 2058.79810683 788.4140625 2062.17773438 C788.54593653 2068.78795875 788.74636954 2075.39338673 789 2082 C790.21743896 2082.18900879 791.43487793 2082.37801758 792.68920898 2082.57275391 C794.31238785 2082.83204016 795.93551331 2083.09166082 797.55859375 2083.3515625 C798.75760315 2083.53634155 798.75760315 2083.53634155 799.98083496 2083.72485352 C807.12977643 2084.88138041 813.4077717 2086.95040962 820 2090 C820.80695312 2090.36867188 821.61390625 2090.73734375 822.4453125 2091.1171875 C836.30954143 2098.12176309 846.94548111 2111.15742607 851.9375 2125.73828125 C858.11955129 2147.70239616 854.22869458 2170.08193571 843.7265625 2190.08984375 C831.38945151 2210.88429554 813.92509355 2223.12247193 791 2230 C791 2263.66 791 2297.32 791 2332 C802.385 2337.445 802.385 2337.445 814 2343 C828.80452975 2352.63469396 840.54968287 2362.78847223 846 2380 C849.95709212 2400.28355611 843.10379216 2419.84140296 834.6953125 2438.0703125 C834.31914795 2438.88717529 833.9429834 2439.70403809 833.55541992 2440.5456543 C832.82448424 2442.10952782 832.07781517 2443.66616849 831.3137207 2445.21411133 C829.40250411 2449.01097839 829.40250411 2449.01097839 829.46484375 2453.12109375 C829.97144531 2453.74113281 830.47804688 2454.36117187 831 2455 C831.76570312 2455.95132813 832.53140625 2456.90265625 833.3203125 2457.8828125 C834.25164905 2458.96661044 835.18674449 2460.04718631 836.125 2461.125 C837.1325451 2462.29859167 838.13904984 2463.47307727 839.14453125 2464.6484375 C839.63646973 2465.22303711 840.1284082 2465.79763672 840.63525391 2466.38964844 C842.40389693 2468.47658392 844.1140091 2470.60570129 845.8125 2472.75 C848.82556306 2476.55337468 851.89420785 2480.3058682 854.98779297 2484.04370117 C857.42668568 2486.99262725 859.85549245 2489.94975574 862.28222656 2492.90869141 C863.36199787 2494.22326233 864.44431115 2495.53575361 865.53027344 2496.84521484 C872.78112789 2505.60810755 878.80367766 2514.8094909 884.57324219 2524.60400391 C886.02348528 2527.03943951 887.51008103 2529.4489851 889.0078125 2531.85546875 C906.56980206 2560.21705643 917.52488191 2590.83501602 926 2623 C926.29471191 2624.10375977 926.58942383 2625.20751953 926.89306641 2626.34472656 C939.31697244 2673.39637737 945.14750628 2721.99712073 950.9296875 2770.21875 C951.05999359 2771.30540451 951.19029968 2772.39205902 951.32455444 2773.51164246 C952.65310684 2784.60109104 953.97341014 2795.69146158 955.27355194 2806.78427887 C960.41399479 2850.63022688 966.81062326 2893.35865985 977.77716064 2936.19772339 C979.5648474 2943.18484888 981.32146019 2950.17982437 983.07421875 2957.17578125 C983.24705383 2957.8654706 983.41988892 2958.55515995 983.59796143 2959.26574898 C992.56889141 2995.11164743 1000.24488995 3031.33559885 1005 3068 C1005.33 3068 1005.66 3068 1006 3068 C1006 2056.88 1006 1045.76 1006 4 C675.34 4 344.68 4 4 4 Z M491.05566406 1154.48828125 C488.99691085 1155.00076898 486.93337364 1155.48719454 484.8671875 1155.96875 C448.03162514 1164.66763011 414.55145406 1182.05256895 387 1208 C385.93265625 1208.97066406 385.93265625 1208.97066406 384.84375 1209.9609375 C352.83038534 1240.23444538 340.27399399 1283.64004829 335 1326 C334.78947998 1327.65612305 334.78947998 1327.65612305 334.57470703 1329.34570312 C330.90714798 1358.77257268 329.52940888 1388.35999958 330 1418 C329.22076172 1418.05188477 328.44152344 1418.10376953 327.63867188 1418.15722656 C307.57793001 1419.63428057 287.84686458 1426.44398402 273.625 1441.1875 C263.18984794 1453.70525141 260.84590935 1467.1812212 262 1483 C263.83111054 1492.74018436 269.3912688 1500.75276218 277.5 1506.375 C286.78683934 1512.07302685 295.43885075 1514.33570479 306.25 1514.1875 C307.12785156 1514.18685547 308.00570312 1514.18621094 308.91015625 1514.18554688 C315.36519582 1514.14301733 321.52718462 1513.58843776 328 1513 C328 1551.94 328 1590.88 328 1631 C323.71 1631.33 319.42 1631.66 315 1632 C298.85280048 1634.86581976 284.08414685 1642.22113754 274.08984375 1655.546875 C272.55287744 1657.97883153 271.23375963 1660.40239044 270 1663 C269.66226562 1663.70511719 269.32453125 1664.41023438 268.9765625 1665.13671875 C264.94185435 1675.14945778 266.07110298 1687.1331109 270 1697 C274.72494615 1707.16166304 282.45561071 1715.0034802 293 1719 C293.93714844 1719.37125 294.87429688 1719.7425 295.83984375 1720.125 C306.76344394 1723.86578104 317.58700415 1723.40306695 329 1723 C328.99214478 1724.16619873 328.99214478 1724.16619873 328.98413086 1725.35595703 C328.82033757 1754.24577662 329.39571604 1783.11750999 330 1812 C328.93845703 1812.13269287 327.87691406 1812.26538574 326.78320312 1812.40209961 C323.73527024 1812.88379732 321.30695889 1813.44440655 318.46875 1814.56640625 C317.66550293 1814.88287109 316.86225586 1815.19933594 316.03466797 1815.52539062 C315.19822754 1815.86763672 314.36178711 1816.20988281 313.5 1816.5625 C312.18539795 1817.09713867 312.18539795 1817.09713867 310.84423828 1817.64257812 C298.81629198 1822.62993571 287.76502156 1828.23104622 278 1837 C277.34386719 1837.56332031 276.68773437 1838.12664063 276.01171875 1838.70703125 C270.33638329 1843.8962566 266.56533175 1849.68066708 265.5546875 1857.40234375 C265.13224194 1870.37142244 269.60201428 1878.80226606 278 1888.25 C290.2809358 1901.23270356 305.50219171 1907.84129346 323 1910 C325.64 1910 328.28 1910 331 1910 C330.67 1938.05 330.34 1966.1 330 1995 C325.05 1995.99 320.1 1996.98 315 1998 C305.11581668 2000.93489402 296.32351742 2004.85970026 288 2011 C286.94425781 2011.74636719 286.94425781 2011.74636719 285.8671875 2012.5078125 C277.2478027 2019.23431279 269.39906931 2031.0551974 268 2042 C266.55646137 2056.62998097 268.40864424 2069.92118512 277.375 2082 C278.5597325 2083.35434713 279.76782379 2084.688669 281 2086 C281.85658203 2087.00740234 281.85658203 2087.00740234 282.73046875 2088.03515625 C293.06609608 2099.47266283 309.01429858 2105.70380382 324 2108 C325.32 2108 326.64 2108 328 2108 C328 2130.77 328 2153.54 328 2177 C326.02 2177.66 324.04 2178.32 322 2179 C320.68904878 2179.59197202 319.39218737 2180.21693014 318.1171875 2180.8828125 C317.08779053 2181.42035156 317.08779053 2181.42035156 316.03759766 2181.96875 C315.32394043 2182.3503125 314.6102832 2182.731875 313.875 2183.125 C313.12653809 2183.52460938 312.37807617 2183.92421875 311.60693359 2184.3359375 C292.59917712 2194.63197529 272.17322443 2208.68318712 264.58666992 2229.87158203 C263.59290122 2233.47694016 263.51109078 2236.96579625 263.5625 2240.6875 C263.57079834 2241.47205566 263.57909668 2242.25661133 263.58764648 2243.06494141 C264.10991509 2261.27557423 273.7711275 2274.48590599 286 2287 C286.98613281 2288.07894531 286.98613281 2288.07894531 287.9921875 2289.1796875 C292.00643054 2293.46958672 296.43678418 2296.94956478 301.1875 2300.375 C301.78216064 2300.80441895 302.37682129 2301.23383789 302.98950195 2301.67626953 C309.34774313 2306.13978872 314.22053582 2307.31953958 321.8125 2307.625 C322.60076172 2307.66367188 323.38902344 2307.70234375 324.20117188 2307.7421875 C326.1337538 2307.83588844 328.06684376 2307.91900779 330 2308 C329.70379737 2309.69258644 329.40759424 2311.38517278 329.11138916 2313.07775879 C328.84172798 2314.61869166 328.57207497 2316.15962596 328.3024292 2317.70056152 C327.52643314 2322.1350427 326.75027937 2326.5694962 325.97387695 2331.00390625 C324.42228752 2339.86666593 322.8720951 2348.72965957 321.328125 2357.59375 C317.82816311 2377.67508885 314.27228612 2397.74612301 310.6875 2417.8125 C310.46863129 2419.03767334 310.24976257 2420.26284668 310.02426147 2421.52514648 C309.39541253 2425.04416753 308.76618563 2428.56312069 308.13671875 2432.08203125 C307.95052979 2433.12317581 307.76434082 2434.16432037 307.57250977 2435.23701477 C307.21993996 2437.20638526 306.86188874 2439.1747842 306.49772644 2441.14204407 C306.16090045 2443.07610618 305.86718664 2445.01808905 305.61323547 2446.96476746 C304.71048796 2453.35399514 303.3730349 2456.93242628 298.58203125 2461.26171875 C298.04656174 2461.78208206 297.51109222 2462.30244537 296.95939636 2462.83857727 C295.26397606 2464.47770272 293.54042061 2466.08274253 291.8125 2467.6875 C290.11438446 2469.30527147 288.4227067 2470.9295838 286.73117065 2472.55422974 C285.63825251 2473.60297731 284.54299922 2474.64929719 283.44534302 2475.69308472 C279.36484214 2479.58753853 275.61080795 2483.66565531 272 2488 C269.03 2491.465 269.03 2491.465 266 2495 C450.8 2495 635.6 2495 826 2495 C826 2494.34 826 2493.68 826 2493 C825.34 2493 824.68 2493 824 2493 C823.58705688 2492.10945923 823.58705688 2492.10945923 823.16577148 2491.20092773 C822.05530371 2489.10441108 820.91308946 2487.55492998 819.34765625 2485.78515625 C818.82349121 2485.18743408 818.29932617 2484.58971191 817.75927734 2483.97387695 C817.19934082 2483.34312256 816.6394043 2482.71236816 816.0625 2482.0625 C814.88869599 2480.72450806 813.71553069 2479.38595557 812.54296875 2478.046875 C811.95177246 2477.37333984 811.36057617 2476.69980469 810.75146484 2476.00585938 C808.09699787 2472.96583977 805.48167167 2469.89351726 802.875 2466.8125 C802.42648682 2466.28470947 801.97797363 2465.75691895 801.51586914 2465.21313477 C800.33473484 2463.81646666 799.16678413 2462.4086784 798 2461 C797.38382813 2460.32324219 796.76765625 2459.64648438 796.1328125 2458.94921875 C795 2457 795 2457 795.26074219 2454.73828125 C796.0888368 2451.67094004 797.27509241 2449.08080251 798.6953125 2446.23828125 C799.24340576 2445.12751221 799.79149902 2444.01674316 800.35620117 2442.87231445 C800.93990479 2441.69757568 801.5236084 2440.52283691 802.125 2439.3125 C806.08018427 2431.25358057 809.95189004 2423.19401967 813.1875 2414.8125 C813.45385254 2414.12647705 813.72020508 2413.4404541 813.99462891 2412.73364258 C817.25010491 2404.04409233 820.43904233 2393.86720656 817.1953125 2384.734375 C815.97260871 2382.59253525 814.63325511 2380.84764421 813 2379 C812.17435547 2378.05253906 812.17435547 2378.05253906 811.33203125 2377.0859375 C799.32293955 2365.05287556 779.74769474 2357.67174251 764 2352 C763.34 2352 762.68 2352 762 2352 C762.00785522 2350.40696045 762.00785522 2350.40696045 762.01586914 2348.78173828 C762.16324116 2315.10129537 761.85732024 2281.4282372 761.5 2247.75 C761.48804218 2246.62264687 761.47608437 2245.49529373 761.46376419 2244.33377838 C761.31366875 2230.22246873 761.15894056 2216.11121269 761 2202 C761.6314241 2202.00818253 762.26284821 2202.01636505 762.91340637 2202.02479553 C765.80292281 2202.05748293 768.69240018 2202.07766789 771.58203125 2202.09765625 C772.57529419 2202.11074829 773.56855713 2202.12384033 774.59191895 2202.1373291 C787.83805033 2202.20601885 798.74609892 2197.80768319 808.4765625 2188.67578125 C820.6366304 2175.72266544 826.41607484 2161.27699197 826.28515625 2143.546875 C825.58388985 2134.82427375 821.29249349 2126.95574438 815 2120.9375 C804.17584801 2112.06867869 790.64705859 2110.67608836 777.25 2110.8125 C776.03183594 2110.81314453 774.81367187 2110.81378906 773.55859375 2110.81445312 C766.7047318 2110.80728662 766.7047318 2110.80728662 760 2112 C759.58183099 2098.77894762 759.26257874 2085.55948139 759.06738091 2072.33314896 C758.97365903 2066.19025446 758.84672146 2060.05190111 758.64208984 2053.91162109 C758.44560975 2047.97839067 758.33871782 2042.04950714 758.29220963 2036.11327362 C758.25910052 2033.85613276 758.19442899 2031.59921481 758.09685898 2029.34394073 C757.38218765 2012.13045634 757.38218765 2012.13045634 761.7589798 2006.89656067 C766.04716097 2003.18061782 770.7882585 2000.5697981 775.87108231 1998.10080719 C789.00756672 1991.30827757 802.18553441 1976.95362378 809 1964 C809.35707031 1963.33871094 809.71414063 1962.67742188 810.08203125 1961.99609375 C813.13934478 1955.30909293 813.25110106 1947.24286447 811.19140625 1940.2578125 C804.68918925 1925.81344117 790.68768251 1918.43497313 776.58154297 1913.00244141 C770.23078379 1910.63275515 764.79411032 1908.97058719 758 1908 C758 1878.96 758 1849.92 758 1820 C763.28 1819.34 768.56 1818.68 774 1818 C783.74421881 1815.19234373 790.68772823 1812.01491507 798 1805 C798.58394531 1804.44441406 799.16789063 1803.88882813 799.76953125 1803.31640625 C808.32025636 1794.28943822 810.39558418 1783.18098653 810.2109375 1771.2421875 C809.78854683 1759.30573996 802.9963527 1750.25318804 794.6015625 1742.1953125 C783.5893519 1732.90272638 770.32048188 1727.99518071 757 1723 C756.505 1679.44 756.505 1679.44 756 1635 C757.65 1634.34 759.3 1633.68 761 1633 C774.89978004 1626.30120931 786.18059029 1617.99824293 797 1607 C797.6084375 1606.38898438 798.216875 1605.77796875 798.84375 1605.1484375 C803.67828005 1599.97184164 806.40355679 1594.55196215 809 1588 C809.6496875 1586.515 809.6496875 1586.515 810.3125 1585 C812.62620089 1574.90385065 810.63938708 1565.93146155 805.26953125 1557.1796875 C794.2781179 1541.42752226 779.41764069 1532.03597398 762.87109375 1522.96875 C762.22068115 1522.61232422 761.57026855 1522.25589844 760.90014648 1521.88867188 C758.94802864 1520.97569372 757.09158233 1520.49415285 755 1520 C755.00523682 1518.8253418 755.01047363 1517.65068359 755.01586914 1516.44042969 C755.12063735 1490.60637704 754.91489212 1464.81893684 754 1439 C754.7019751 1438.8868042 755.4039502 1438.7736084 756.12719727 1438.65698242 C761.95769132 1437.66585286 767.42507024 1436.45614363 772.9375 1434.3125 C773.6171582 1434.04977295 774.29681641 1433.7870459 774.99707031 1433.51635742 C792.89699746 1426.37363849 807.51011245 1414.01143273 815.8125 1396.375 C816.55773631 1394.58995762 817.2881099 1392.79860111 818 1391 C818.3196875 1390.27425781 818.639375 1389.54851562 818.96875 1388.80078125 C822.71864228 1379.40868993 822.19314515 1368.7855236 818.328125 1359.53125 C814.65795613 1352.53633992 809.47679104 1346.52367312 803 1342 C802.27554688 1341.48566406 801.55109375 1340.97132813 800.8046875 1340.44140625 C787.51825844 1332.4893793 769.15002151 1331.55647379 754 1332 C754.01933594 1330.03546875 754.01933594 1330.03546875 754.0390625 1328.03125 C753.9853411 1282.11736325 732.82122806 1236.4878739 701 1204 C700.24203125 1203.19175781 699.4840625 1202.38351562 698.703125 1201.55078125 C689.70354554 1192.14063704 679.10469816 1184.71075284 668 1178 C667.11441406 1177.43796875 666.22882813 1176.8759375 665.31640625 1176.296875 C657.01787687 1171.18654623 648.24025926 1167.51101112 639.22119141 1163.89160156 C637.28229122 1163.11331364 635.34956919 1162.31966974 633.41796875 1161.5234375 C620.5061299 1156.33322854 607.27603045 1153.44446058 593.5625 1151.3125 C592.8818045 1151.2057193 592.20110901 1151.0989386 591.49978638 1150.98892212 C581.65654658 1149.45216274 571.97494625 1148.12882772 562 1148 C560.95618164 1147.97566895 559.91236328 1147.95133789 558.83691406 1147.92626953 C535.77270572 1147.41967505 513.47529701 1148.88073789 491.05566406 1154.48828125 Z M417.74942362 2533.18759294 C398.62799884 2533.23101158 379.50673077 2533.30754458 360.38546848 2533.39670372 C359.08955274 2533.40274396 357.79363701 2533.4087842 356.45845109 2533.41500747 C353.874866 2533.42706042 351.29128117 2533.4391707 348.70769662 2533.45133984 C339.80796045 2533.49198517 330.90825714 2533.51708445 322.00845337 2533.53704834 C311.36315598 2533.56179245 300.71847139 2533.61534782 290.07353514 2533.70742047 C284.78073043 2533.75267184 279.48866272 2533.78604508 274.19564629 2533.78407669 C269.44016943 2533.78261601 264.68643764 2533.81763919 259.93141401 2533.88240647 C258.23153732 2533.8992573 256.53146424 2533.90289619 254.83154166 2533.89158607 C243.99613613 2533.82890198 237.26932666 2535.45934099 229 2543 C227.34157374 2544.28156837 225.67590597 2545.55387602 224 2546.8125 C188.79673364 2575.50900149 173.79517321 2620.60455044 160.3125 2662.375 C159.94406982 2663.51477295 159.57563965 2664.6545459 159.19604492 2665.82885742 C157.06381246 2672.48901892 155.07960506 2679.17636153 153.17700195 2685.90527344 C150.54845641 2695.1169775 147.72990823 2704.27448819 144.9375 2713.4375 C144.60873871 2714.51704956 144.27997742 2715.59659912 143.94125366 2716.7088623 C139.11369125 2732.52050087 133.97636751 2748.15701463 128.26953125 2763.671875 C126.77656331 2767.75496223 125.40416401 2771.8457815 124.15039062 2776.00830078 C121.98318451 2783.1076682 119.66938255 2790.1530154 117.32421875 2797.1953125 C116.8776512 2798.53897312 116.43113982 2799.8826524 115.98468018 2801.22634888 C114.79965201 2804.79069515 113.612187 2808.35422437 112.42374802 2811.91743469 C111.68197235 2814.14157411 110.94071613 2816.36588621 110.19949341 2818.59020996 C102.83319225 2840.68771639 95.29737807 2862.71856932 87.56332397 2884.69030762 C84.55601962 2893.24300279 81.60198022 2901.81382645 78.66384888 2910.39050293 C78.10890271 2912.01000602 77.55317491 2913.62924155 76.99655151 2915.24816895 C74.23616904 2923.27856693 71.54460486 2931.31499152 69.08374023 2939.44335938 C68.00521517 2942.98288477 66.89959299 2946.51285928 65.78713989 2950.04182434 C59.86495864 2968.82921471 54.00640129 2987.5415382 49.54248047 3006.73828125 C48.78109097 3009.91267922 47.88870606 3013.04669143 47 3016.1875 C41.3064032 3037.44359473 37.70819013 3059.18352579 35 3081 C34.9124646 3081.66174225 34.8249292 3082.3234845 34.73474121 3083.00527954 C33.13591313 3095.13953026 32.67456167 3107.08028878 32.75 3119.3125 C32.75310181 3120.21241669 32.75620361 3121.11233337 32.75939941 3122.03952026 C32.81219631 3135.11588955 33.06999106 3148.04539089 35 3161 C35.13954102 3161.96631348 35.27908203 3162.93262695 35.42285156 3163.92822266 C37.10250177 3175.33094356 38.89647284 3186.74108158 42.31152344 3197.77197266 C42.82373522 3199.42957718 43.32222727 3201.09143365 43.81347656 3202.75537109 C52.08480626 3230.55500058 64.51386831 3256.13519276 81 3280 C81.41362793 3280.60199219 81.82725586 3281.20398437 82.25341797 3281.82421875 C84.41907086 3284.95017644 86.67048694 3287.99467216 89 3291 C89.92619141 3292.21236328 89.92619141 3292.21236328 90.87109375 3293.44921875 C99.78978505 3304.88021746 109.79142674 3315.59673459 120.77734375 3325.05859375 C123.32976883 3327.28804061 125.81887514 3329.58001382 128.3125 3331.875 C133.19079543 3336.31952087 138.21813914 3340.52142231 143.35400391 3344.66308594 C145.95698886 3346.7772873 148.53567641 3348.92071329 151.1184082 3351.05957031 C158.69891768 3357.33181561 166.34887904 3363.4984858 174.11767578 3369.53564453 C176.18444196 3371.14348675 178.24661654 3372.75711512 180.30859375 3374.37109375 C194.73050197 3385.64482011 209.38779805 3396.58088978 224.13671875 3407.421875 C227.37320695 3409.80097659 230.60473639 3412.18656817 233.83203125 3414.578125 C242.04714301 3420.66094921 250.30019005 3426.67504202 258.67211914 3432.54052734 C262.2104465 3435.02173896 265.73115039 3437.52206156 269.21875 3440.07421875 C278.69738511 3447.00896731 288.33334929 3453.64431827 298.15063477 3460.09277344 C303.46682801 3463.59552641 308.69619809 3467.18748265 313.859375 3470.91015625 C320.77804997 3475.8925498 327.85359152 3480.60222948 335 3485.25 C336.27023638 3486.07885592 337.54041772 3486.90779619 338.81054688 3487.73681641 C356.71601759 3499.41011382 374.77698281 3510.82880172 393 3522 C393.94987793 3522.58394531 393.94987793 3522.58394531 394.91894531 3523.1796875 C459.29721029 3563.17843677 459.29721029 3563.17843677 532.3125 3577.1875 C533.00400146 3577.18867828 533.69550293 3577.18985657 534.40795898 3577.19107056 C584.32449486 3577.18145187 627.53761329 3555.51686735 666 3525 C667.07078354 3524.18079798 668.14375024 3523.36444264 669.21875 3522.55078125 C676.47531817 3517.05537958 683.47151549 3511.3130938 690.37939453 3505.38671875 C692.51918333 3503.55574551 694.67137518 3501.73970627 696.82397461 3499.92382812 C703.65847303 3494.15757556 710.44978135 3488.3414933 717.23388672 3482.51611328 C720.73650945 3479.50930001 724.24233373 3476.50622029 727.74755859 3473.50244141 C730.67781804 3470.99114114 733.60729587 3468.47894081 736.53515625 3465.96484375 C747.00654199 3456.97551731 757.49203726 3448.01298851 768.19921875 3439.3046875 C771.26775787 3436.77966925 774.29039812 3434.20515231 777.3125 3431.625 C781.74851603 3427.84207508 786.26600643 3424.19467263 790.875 3420.625 C796.62027155 3416.16948329 802.13095441 3411.48856595 807.60058594 3406.70019531 C812.08035044 3402.7812777 816.64169721 3398.98276617 821.265625 3395.234375 C826.00785942 3391.35929202 830.66315102 3387.38173443 835.32958984 3383.41601562 C837.00375841 3381.99681397 838.68271475 3380.58349229 840.36328125 3379.171875 C846.24621417 3374.22570388 852.0476404 3369.21518649 857.73828125 3364.046875 C859.80673875 3362.1749031 861.89560914 3360.3313661 864 3358.5 C871.08259739 3352.31519665 878.05359151 3346.09095895 884.6015625 3339.3359375 C886.61811857 3337.37193013 888.67343223 3335.54546232 890.80859375 3333.71484375 C894.96063006 3330.10933129 898.71396336 3326.22863098 902.4375 3322.1875 C903.08855713 3321.48608887 903.73961426 3320.78467773 904.41040039 3320.06201172 C906.27838587 3318.04569237 908.14010866 3316.02378379 910 3314 C910.886875 3313.03964844 911.77375 3312.07929688 912.6875 3311.08984375 C917.71479513 3305.58251176 922.45631532 3299.91208223 927 3294 C927.75240967 3293.03175293 927.75240967 3293.03175293 928.52001953 3292.04394531 C937.86224372 3279.96428295 945.86089309 3267.49716993 953 3254 C953.40557129 3253.24348145 953.81114258 3252.48696289 954.22900391 3251.70751953 C959.67202458 3241.41663042 963.67752346 3230.7024804 967.375 3219.6875 C967.79217285 3218.44814697 968.2093457 3217.20879395 968.63916016 3215.93188477 C972.33766091 3204.58966488 974.850957 3193.11100648 976.5625 3181.3125 C976.73168945 3180.21518555 976.73168945 3180.21518555 976.90429688 3179.09570312 C977.30397569 3176.40066218 977.65825348 3173.70305725 978 3171 C978.08331573 3170.34550873 978.16663147 3169.69101746 978.25247192 3169.01669312 C979.80342656 3156.54989391 980.36279836 3144.24469645 980.3125 3131.6875 C980.31076279 3130.32760956 980.31076279 3130.32760956 980.30899048 3128.94024658 C980.2676752 3112.44985721 979.08110443 3096.3650485 977 3080 C976.75529152 3077.90263635 976.51303392 3075.80498503 976.2734375 3073.70703125 C973.93958226 3053.65906979 970.82543358 3033.78843699 966.34375 3014.10546875 C965.37710604 3009.82873348 964.51254695 3005.53890694 963.67555237 3001.23551941 C961.51436028 2990.16209964 958.97865779 2979.20614779 956.27319336 2968.25390625 C955.56153197 2965.37107865 954.85745166 2962.48647542 954.15429688 2959.6015625 C952.01645707 2950.87297618 949.81105562 2942.17563513 947.3671875 2933.52734375 C933.72670027 2885.20954609 929.23585579 2834.83654882 923.64819336 2785.12719727 C923.39048454 2782.83479567 923.13275355 2780.54239657 922.875 2778.25 C922.74835968 2777.123591 922.62171936 2775.99718201 922.49124146 2774.8366394 C919.66128913 2749.70235904 916.4230802 2724.70720791 912.1484375 2699.7734375 C911.34213503 2695.06676043 910.58784369 2690.3574849 909.8894043 2685.63378906 C903.44162839 2642.31475096 892.05749475 2599.09133805 872.0625 2560 C871.62123779 2559.12939941 871.17997559 2558.25879883 870.7253418 2557.36181641 C869.80782745 2555.62239261 868.83862316 2553.90926321 867.82008076 2552.2270031 C866.4413656 2549.78254118 865.41746746 2547.58121079 864.38704967 2545.00345039 C862.12468373 2540.06803213 859.57877546 2536.05574722 855 2533 C845.65368949 2530.0873884 835.23924851 2530.91742848 825.5390572 2531.11361301 C821.42679368 2531.17905555 817.31498038 2531.15122804 813.2023735 2531.13524628 C806.03313732 2531.1201388 798.86618907 2531.16408401 791.69745064 2531.24760056 C781.14917206 2531.37031517 770.60203858 2531.40201764 760.053124 2531.41424556 C742.55610821 2531.43717006 725.0602648 2531.53418536 707.56384277 2531.67651367 C690.42644604 2531.81591669 673.28932304 2531.92588146 656.15148926 2531.99438477 C655.09182356 2531.99864752 654.03215787 2532.00291027 652.94038109 2532.00730219 C647.58365999 2532.02872481 642.22693706 2532.0496485 636.87021327 2532.07038736 C599.52043372 2532.21606452 562.17152655 2532.4392656 524.822427 2532.70482498 C489.13142035 2532.95810554 453.44119577 2533.10673508 417.74942362 2533.18759294 Z M4 3160 C4 3427.63 4 3695.26 4 3971 C334.66 3971 665.32 3971 1006 3971 C1006 3715.25 1006 3459.5 1006 3196 C1005.67 3196 1005.34 3196 1005 3196 C1004.78234985 3197.01646606 1004.78234985 3197.01646606 1004.56030273 3198.0534668 C990.56497783 3262.7198278 955.7157399 3314.61096699 907.27734375 3358.9765625 C904.63479569 3361.39770991 902.07517234 3363.88074568 899.5625 3366.4375 C896.54040754 3369.50508632 893.38588364 3372.35358248 890.12109375 3375.16015625 C887.77508942 3377.19508819 885.4826355 3379.28290967 883.1875 3381.375 C878.81714316 3385.32371445 874.29696921 3389.0462721 869.71875 3392.75 C867.07852271 3394.93501569 864.5327028 3397.19171391 862 3399.5 C857.7569853 3403.36214567 853.37657134 3407.00754309 848.91796875 3410.6171875 C845.74582277 3413.20756106 842.61965982 3415.84693437 839.5 3418.5 C834.73107822 3422.55034575 829.92087005 3426.54352572 825.0703125 3430.49609375 C815.49138111 3438.30791948 805.94770048 3446.15972837 796.53173828 3454.16748047 C792.33671818 3457.73028404 788.08085722 3461.21325575 783.8125 3464.6875 C780.11826545 3467.72498174 776.47524894 3470.82072046 772.83154297 3473.91845703 C769.4614901 3476.77846938 766.05973692 3479.59255733 762.625 3482.375 C756.27803346 3487.54455825 750.11774944 3492.92313381 743.94824219 3498.30175781 C735.0707062 3506.04012126 726.16985905 3513.74773182 717.16015625 3521.33203125 C715.07428353 3523.08852192 712.99950783 3524.85680362 710.93359375 3526.63671875 C701.87526148 3534.41997367 692.49657502 3541.76040574 683 3549 C682.23381348 3549.58716797 681.46762695 3550.17433594 680.67822266 3550.77929688 C626.68418793 3592.00654971 568.00334644 3611.77561949 500 3604 C469.70426147 3599.92805768 440.0154357 3582.26067074 413.75341797 3567.54296875 C410.92479258 3565.95785504 408.08954019 3564.38503574 405.25390625 3562.8125 C393.20823907 3556.10089433 381.41002751 3549.06192117 369.73925781 3541.71972656 C366.84989536 3539.90576318 363.95311312 3538.10413065 361.0546875 3536.3046875 C325.64429228 3514.30010184 291.09781846 3490.98026905 257 3467 C256.26007813 3466.48050781 255.52015625 3465.96101563 254.7578125 3465.42578125 C240.3967954 3455.34196239 226.11368308 3445.15461343 212.10473633 3434.58544922 C207.7716139 3431.31840823 203.41017531 3428.09315094 199.03149414 3424.88745117 C189.55464822 3417.94686573 180.25033453 3410.81123975 171.00585938 3403.56494141 C168.14569438 3401.33348357 165.25998977 3399.13677176 162.375 3396.9375 C156.05568712 3392.08816635 149.88239754 3387.06755937 143.71484375 3382.02734375 C140.78902204 3379.63710118 137.83988076 3377.27922027 134.875 3374.9375 C130.23511036 3371.24118456 125.74556097 3367.38020027 121.25708008 3363.50292969 C117.57725653 3360.32999242 113.84803081 3357.23464431 110.0625 3354.1875 C106.36426593 3351.1867399 102.95487425 3348.07520433 99.6484375 3344.65234375 C97.97991743 3342.97986984 96.24075093 3341.46303507 94.4375 3339.9375 C83.0936651 3330.06091788 73.38513992 3319.29600063 64.55273438 3307.13378906 C63.06823942 3305.09377556 61.55982543 3303.07363804 60.046875 3301.0546875 C46.37645543 3282.5434225 35.20289723 3262.06431284 26 3241 C25.6812793 3240.27538574 25.36255859 3239.55077148 25.03417969 3238.80419922 C14.27590362 3213.92496974 8.09370134 3186.86635378 5 3160 C4.67 3160 4.34 3160 4 3160 Z " fill="#000000" transform="translate(0,0)"/>
<path d="M0 0 C333.3 0 666.6 0 1010 0 C1010 1029.27 1010 2058.54 1010 3119 C1009.67 3119 1009.34 3119 1009 3119 C1008.94465088 3118.08822998 1008.88930176 3117.17645996 1008.83227539 3116.23706055 C1008.62296629 3112.80208264 1008.41217804 3109.36720174 1008.20043945 3105.93237305 C1008.10969212 3104.45552043 1008.01950718 3102.97863313 1007.92993164 3101.50170898 C1007.7998793 3099.35911484 1007.66769522 3097.21666035 1007.53515625 3095.07421875 C1007.456604 3093.79119873 1007.37805176 3092.50817871 1007.29711914 3091.1862793 C1007.16316872 3089.08979174 1007.00142107 3087.01211203 1006.75660081 3084.92546271 C1005.63256026 3074.96070013 1005.86280829 3064.94823408 1005.8758015 3054.93606263 C1005.87493538 3052.76703244 1005.8736306 3050.59800238 1005.87192852 3048.42897268 C1005.86851209 3042.44761802 1005.87134285 3036.46627995 1005.87516255 3030.48492613 C1005.87790658 3024.63536065 1005.8759118 3018.78579797 1005.87406572 3012.93623242 C1005.87039751 3000.77784099 1005.8714831 2988.61945408 1005.87511682 2976.46106283 C1005.87879892 2964.07198467 1005.88027357 2951.6829091 1005.87910111 2939.29383042 C1005.87899163 2938.11575638 1005.87899163 2938.11575638 1005.87887993 2936.91388286 C1005.87849743 2932.90385303 1005.87807983 2928.89382321 1005.87765024 2924.88379338 C1005.87458698 2895.58635292 1005.8764545 2866.28891436 1005.88079453 2836.99147415 C1005.88517798 2807.29117625 1005.88737657 2777.59087937 1005.88689232 2747.89058113 C1005.88687803 2746.9543598 1005.88686374 2746.01813847 1005.88684901 2745.05354679 C1005.88671726 2736.47386806 1005.88656115 2727.89418932 1005.88637601 2719.31451058 C1005.88591288 2697.79899943 1005.88578039 2676.28348828 1005.88586724 2654.76797712 C1005.88587099 2653.78199398 1005.88587473 2652.79601085 1005.88587859 2651.78014944 C1005.88609284 2603.15846422 1005.89006139 2554.53677938 1005.89426994 2505.91509438 C1005.89574911 2488.79622786 1005.89721045 2471.67736133 1005.89860606 2454.55849481 C1005.89869283 2453.4943444 1005.8987796 2452.43019399 1005.89886899 2451.3337966 C1005.90286578 2402.04723622 1005.90429779 2352.76067587 1005.90507203 2303.47411534 C1005.90512279 2300.25106692 1005.90517476 2297.02801849 1005.90522704 2293.80497006 C1005.90554113 2274.37005854 1005.9058285 2254.93514703 1005.90608501 2235.50023551 C1005.90672387 2187.18420692 1005.90768334 2138.86817835 1005.90886021 2090.55214977 C1005.90888684 2089.45218842 1005.90891347 2088.35222707 1005.90894091 2087.21893356 C1005.91066859 2015.97241138 1005.91371621 1944.72588933 1005.91786861 1873.47936726 C1005.9179349 1872.34179467 1005.91800119 1871.20422208 1005.91806949 1870.03217759 C1005.92009019 1835.40334222 1005.92220857 1800.77450686 1005.92434606 1766.1456715 C1005.92671102 1727.82451098 1005.92905933 1689.50335046 1005.93133545 1651.18218994 C1005.93140395 1650.02986344 1005.93147245 1648.87753694 1005.93154302 1647.69029145 C1005.93804308 1538.25114332 1005.94185398 1428.81199515 1005.94496923 1319.37284688 C1005.94510138 1314.73754958 1005.9452343 1310.10225228 1005.94536725 1305.46695498 C1005.94659065 1262.81204189 1005.94778249 1220.1571288 1005.94893467 1177.5022157 C1005.94898063 1175.80087102 1005.94898063 1175.80087102 1005.94902752 1174.06515574 C1005.94912028 1170.63101303 1005.94921303 1167.19687032 1005.94930578 1163.76272761 C1005.95181165 1070.98695133 1005.95459285 978.21117506 1005.95755242 885.43539879 C1005.95765677 882.16196668 1005.95776091 878.88853457 1005.95786499 875.61510245 C1005.96124794 769.24359439 1005.96511839 662.87208636 1005.9742028 475.03510213 C1005.9743477 472.13835291 1005.97449234 469.2416037 1005.97463687 466.34485448 C1005.97468419 465.39664717 1005.97473152 464.44843987 1005.97478028 463.47149902 C1005.97486641 461.74575286 1005.9749525 460.02000669 1005.97503853 458.29426053 C1005.98259933 306.86284031 1005.99147314 155.43142016 1006 4 C675.34 4 344.68 4 4 4 C4 1313.11 4 2622.22 4 3971 C334.66 3971 665.32 3971 1006 3971 C1005.92079428 3714.91759835 1005.92079428 3714.91759835 1005.81982422 3458.83520508 C1005.81079102 3409.3548584 1005.81079102 3409.3548584 1005.80911255 3386.20561218 C1005.80712311 3368.93880609 1005.79849857 3351.67201565 1005.78665315 3334.40521395 C1005.77473192 3316.78945631 1005.77033025 3299.17370854 1005.7731101 3281.55794702 C1005.77454256 3271.09050055 1005.77059145 3260.62309087 1005.75838481 3250.15565123 C1005.75086199 3243.23353833 1005.7506762 3236.31144975 1005.75632932 3229.38933515 C1005.75933798 3225.45359246 1005.75928874 3221.51792015 1005.75023484 3217.58218515 C1005.71657242 3202.05527477 1005.95926282 3186.72249076 1007.76568569 3171.28375348 C1008.45672928 3164.5484704 1008.68627402 3157.76162039 1009 3151 C1009.33 3151 1009.66 3151 1010 3151 C1010 3422.92 1010 3694.84 1010 3975 C676.7 3975 343.4 3975 0 3975 C0 2663.25 0 1351.5 0 0 Z " fill="#F3F3F3" transform="translate(0,0)"/>
</svg>
