<?xml version="1.0" encoding="UTF-8"?>
<!DOCTYPE svg PUBLIC "-//W3C//DTD SVG 1.1//EN" "http://www.w3.org/Graphics/SVG/1.1/DTD/svg11.dtd">
<svg xmlns="http://www.w3.org/2000/svg" version="1.1" width="1022px" height="3975px" style="shape-rendering:geometricPrecision; text-rendering:geometricPrecision; image-rendering:optimizeQuality; fill-rule:evenodd; clip-rule:evenodd" xmlns:xlink="http://www.w3.org/1999/xlink">
<g><path style="opacity:0.854" fill="#fcfcfc" d="M -0.5,-0.5 C 340.167,-0.5 680.833,-0.5 1021.5,-0.5C 1021.5,1324.5 1021.5,2649.5 1021.5,3974.5C 680.833,3974.5 340.167,3974.5 -0.5,3974.5C -0.5,2649.5 -0.5,1324.5 -0.5,-0.5 Z M 1017.5,833.5 C 1007.62,779.406 987.458,729.406 957,683.5C 949.056,671.224 940.723,659.224 932,647.5C 920.833,635 909,623.167 896.5,612C 801.405,534.097 700.071,465.097 592.5,405C 568.33,392.057 543.33,381.057 517.5,372C 456.51,360.065 399.843,370.732 347.5,404C 332.111,414.366 317.444,425.699 303.5,438C 267.111,474.039 232.944,511.872 201,551.5C 190.298,562.534 179.964,573.867 170,585.5C 158.167,596.667 146.333,607.833 134.5,619C 106.231,639.26 80.3972,662.426 57,688.5C 29.1604,722.515 11.3271,761.181 3.5,804.5C 3.5,537.5 3.5,270.5 3.5,3.5C 341.5,3.5 679.5,3.5 1017.5,3.5C 1017.5,280.167 1017.5,556.833 1017.5,833.5 Z M 3.5,915.5 C 11.5959,962.23 22.0959,1008.56 35,1054.5C 46.0762,1114.55 57.4096,1174.55 69,1234.5C 87.2365,1323.88 116.236,1409.54 156,1491.5C 174.412,1515.34 192.078,1539.67 209,1564.5C 215.345,1604.4 221.845,1644.24 228.5,1684C 191.195,1705.27 170.195,1737.27 165.5,1780C 167.68,1808.36 179.68,1831.69 201.5,1850C 210.228,1857.11 219.394,1863.61 229,1869.5C 229.832,1880.18 229.666,1890.85 228.5,1901.5C 186.501,1920.47 167.334,1953.13 171,1999.5C 177.571,2035.57 198.071,2059.9 232.5,2072.5C 232.835,2086.47 232.835,2100.47 232.5,2114.5C 194.57,2127.26 172.903,2153.43 167.5,2193C 167.922,2208.94 173.089,2223.1 183,2235.5C 196.4,2250.53 212.4,2261.86 231,2269.5C 231.667,2284.5 231.667,2299.5 231,2314.5C 191.781,2324.57 171.281,2349.9 169.5,2390.5C 171.668,2430.83 191.835,2457.49 230,2470.5C 229.563,2493.8 229.397,2517.14 229.5,2540.5C 187.568,2547.46 165.568,2572.29 163.5,2615C 166.933,2658.94 189.6,2687.77 231.5,2701.5C 232.961,2738.03 236.461,2774.37 242,2810.5C 261.393,2906.56 318.56,2967.06 413.5,2992C 473.24,3006.62 531.24,3001.62 587.5,2977C 626.3,2958.03 656.466,2929.86 678,2892.5C 695.007,2862.98 705.507,2831.31 709.5,2797.5C 746.484,2792.69 768.984,2772.02 777,2735.5C 779.194,2685.88 757.861,2650.55 713,2629.5C 712.167,2614.16 712.334,2598.82 713.5,2583.5C 734.966,2571.53 751.133,2554.53 762,2532.5C 771.508,2506.49 768.842,2481.82 754,2458.5C 742.951,2443.95 729.784,2431.62 714.5,2421.5C 713.065,2402.47 713.232,2383.47 715,2364.5C 759.934,2341.64 775.601,2305.97 762,2257.5C 752.913,2236.08 737.58,2221.08 716,2212.5C 715.167,2196.82 715.334,2181.16 716.5,2165.5C 741.984,2155.85 759.15,2138.18 768,2112.5C 771.481,2094.05 768.481,2076.72 759,2060.5C 747.753,2043.25 733.753,2028.58 717,2016.5C 716.623,1995.16 716.789,1973.83 717.5,1952.5C 759.255,1947.58 781.255,1924.08 783.5,1882C 782.256,1850.84 769.589,1825.51 745.5,1806C 737.367,1800.35 728.534,1796.18 719,1793.5C 718.158,1755.81 718.658,1718.15 720.5,1680.5C 733.17,1674.84 744.836,1667.67 755.5,1659C 772.471,1643.42 778.638,1624.25 774,1601.5C 769.587,1584.26 763.587,1567.6 756,1551.5C 755.333,1549.83 755.333,1548.17 756,1546.5C 807.755,1428.9 857.755,1310.57 906,1191.5C 931.606,1138.62 956.939,1085.62 982,1032.5C 998.614,995.168 1010.45,956.501 1017.5,916.5C 1017.5,1934.5 1017.5,2952.5 1017.5,3970.5C 679.5,3970.5 341.5,3970.5 3.5,3970.5C 3.5,2952.17 3.5,1933.83 3.5,915.5 Z"/></g>
<g><path style="opacity:0.982" fill="#010101" d="M 1017.5,833.5 C 1018.43,858.483 1018.76,883.483 1018.5,908.5C 1017.53,910.948 1017.19,913.615 1017.5,916.5C 1010.45,956.501 998.614,995.168 982,1032.5C 956.939,1085.62 931.606,1138.62 906,1191.5C 857.755,1310.57 807.755,1428.9 756,1546.5C 755.333,1548.17 755.333,1549.83 756,1551.5C 763.587,1567.6 769.587,1584.26 774,1601.5C 778.638,1624.25 772.471,1643.42 755.5,1659C 744.836,1667.67 733.17,1674.84 720.5,1680.5C 718.658,1718.15 718.158,1755.81 719,1793.5C 728.534,1796.18 737.367,1800.35 745.5,1806C 769.589,1825.51 782.256,1850.84 783.5,1882C 781.255,1924.08 759.255,1947.58 717.5,1952.5C 716.789,1973.83 716.623,1995.16 717,2016.5C 733.753,2028.58 747.753,2043.25 759,2060.5C 768.481,2076.72 771.481,2094.05 768,2112.5C 759.15,2138.18 741.984,2155.85 716.5,2165.5C 715.334,2181.16 715.167,2196.82 716,2212.5C 737.58,2221.08 752.913,2236.08 762,2257.5C 775.601,2305.97 759.934,2341.64 715,2364.5C 713.232,2383.47 713.065,2402.47 714.5,2421.5C 729.784,2431.62 742.951,2443.95 754,2458.5C 768.842,2481.82 771.508,2506.49 762,2532.5C 751.133,2554.53 734.966,2571.53 713.5,2583.5C 712.334,2598.82 712.167,2614.16 713,2629.5C 757.861,2650.55 779.194,2685.88 777,2735.5C 768.984,2772.02 746.484,2792.69 709.5,2797.5C 705.507,2831.31 695.007,2862.98 678,2892.5C 656.466,2929.86 626.3,2958.03 587.5,2977C 531.24,3001.62 473.24,3006.62 413.5,2992C 318.56,2967.06 261.393,2906.56 242,2810.5C 236.461,2774.37 232.961,2738.03 231.5,2701.5C 189.6,2687.77 166.933,2658.94 163.5,2615C 165.568,2572.29 187.568,2547.46 229.5,2540.5C 229.397,2517.14 229.563,2493.8 230,2470.5C 191.835,2457.49 171.668,2430.83 169.5,2390.5C 171.281,2349.9 191.781,2324.57 231,2314.5C 231.667,2299.5 231.667,2284.5 231,2269.5C 212.4,2261.86 196.4,2250.53 183,2235.5C 173.089,2223.1 167.922,2208.94 167.5,2193C 172.903,2153.43 194.57,2127.26 232.5,2114.5C 232.835,2100.47 232.835,2086.47 232.5,2072.5C 198.071,2059.9 177.571,2035.57 171,1999.5C 167.334,1953.13 186.501,1920.47 228.5,1901.5C 229.666,1890.85 229.832,1880.18 229,1869.5C 219.394,1863.61 210.228,1857.11 201.5,1850C 179.68,1831.69 167.68,1808.36 165.5,1780C 170.195,1737.27 191.195,1705.27 228.5,1684C 221.845,1644.24 215.345,1604.4 209,1564.5C 192.078,1539.67 174.412,1515.34 156,1491.5C 116.236,1409.54 87.2365,1323.88 69,1234.5C 57.4096,1174.55 46.0762,1114.55 35,1054.5C 22.0959,1008.56 11.5959,962.23 3.5,915.5C 2.19589,878.496 2.19589,841.496 3.5,804.5C 11.3271,761.181 29.1604,722.515 57,688.5C 80.3972,662.426 106.231,639.26 134.5,619C 146.333,607.833 158.167,596.667 170,585.5C 179.964,573.867 190.298,562.534 201,551.5C 232.944,511.872 267.111,474.039 303.5,438C 317.444,425.699 332.111,414.366 347.5,404C 399.843,370.732 456.51,360.065 517.5,372C 543.33,381.057 568.33,392.057 592.5,405C 700.071,465.097 801.405,534.097 896.5,612C 909,623.167 920.833,635 932,647.5C 940.723,659.224 949.056,671.224 957,683.5C 987.458,729.406 1007.62,779.406 1017.5,833.5 Z"/></g>
<g><path style="opacity:1" fill="#fdfdfd" d="M 452.5,397.5 C 470.895,397.113 489.228,397.946 507.5,400C 528.634,406.732 548.967,415.399 568.5,426C 679.579,487.014 783.912,557.681 881.5,638C 900.99,655.87 917.49,676.037 931,698.5C 958.141,739.462 976.474,784.129 986,832.5C 992.629,879.544 988.296,925.544 973,970.5C 966.315,990.891 958.648,1010.89 950,1030.5C 925.061,1082.05 900.394,1133.71 876,1185.5C 845.102,1263.03 812.935,1340.03 779.5,1416.5C 571.5,1417.83 363.5,1417.83 155.5,1416.5C 131.123,1356.87 112.29,1295.54 99,1232.5C 87.5007,1172.18 76.1674,1111.84 65,1051.5C 59.005,1028.17 53.005,1004.84 47,981.5C 34.6793,933.614 29.0127,884.948 30,835.5C 34.7256,773.884 59.8923,722.384 105.5,681C 123.65,665.761 141.983,650.761 160.5,636C 172.971,624.53 185.138,612.696 197,600.5C 223.375,571.394 249.042,541.727 274,511.5C 298.347,482.814 325.514,457.314 355.5,435C 384.869,414.642 417.203,402.142 452.5,397.5 Z"/></g>
<g><path style="opacity:1" fill="#030303" d="M 484.5,1125.5 C 496.523,1125.43 508.523,1125.93 520.5,1127C 549.704,1132.73 577.704,1142.07 604.5,1155C 616.382,1160.77 628.049,1166.77 639.5,1173C 635.558,1181.72 631.224,1190.22 626.5,1198.5C 596.443,1182.3 565.109,1169.14 532.5,1159C 508.393,1154.02 484.393,1154.35 460.5,1160C 434.694,1167.82 409.861,1177.99 386,1190.5C 381.561,1181.96 377.394,1173.29 373.5,1164.5C 408.271,1144.94 445.271,1131.94 484.5,1125.5 Z"/></g>
<g><path style="opacity:1" fill="#606061" d="M 169.5,1447.5 C 368.334,1446.17 567.334,1446.17 766.5,1447.5C 766.376,1448.11 766.043,1448.44 765.5,1448.5C 567.001,1447.5 368.334,1447.17 169.5,1447.5 Z"/></g>
<g><path style="opacity:1" fill="#b7b7b8" d="M 169.5,1447.5 C 368.334,1447.17 567.001,1447.5 765.5,1448.5C 751.465,1482.1 737.131,1515.6 722.5,1549C 731.777,1567.83 739.277,1587.33 745,1607.5C 747.393,1617.81 745.06,1626.81 738,1634.5C 723.516,1645.66 707.683,1654.66 690.5,1661.5C 689.032,1714.82 688.365,1768.16 688.5,1821.5C 722.645,1819.5 743.811,1835.17 752,1868.5C 755.751,1884.35 752.751,1898.68 743,1911.5C 735.672,1917.84 727.172,1921.67 717.5,1923C 707.466,1923.76 697.466,1923.59 687.5,1922.5C 687.31,1958.84 687.143,1995.17 687,2031.5C 701.865,2041.36 715.198,2053.03 727,2066.5C 748.191,2095.34 743.024,2118.17 711.5,2135C 703.206,2138.26 694.872,2141.43 686.5,2144.5C 685.333,2175.49 685.167,2206.49 686,2237.5C 712.308,2238.49 729.308,2251.49 737,2276.5C 740.245,2299.5 732.412,2317.67 713.5,2331C 704.564,2336.3 695.23,2340.8 685.5,2344.5C 683.992,2363.13 683.325,2381.8 683.5,2400.5C 683.833,2413.17 684.167,2425.83 684.5,2438.5C 699.71,2446.53 713.21,2456.86 725,2469.5C 742.552,2490.97 742.885,2512.63 726,2534.5C 713.674,2547.67 699.507,2558.33 683.5,2566.5C 682.167,2594.83 682.167,2623.17 683.5,2651.5C 720.923,2660.09 742.59,2683.25 748.5,2721C 747.671,2744.69 736.004,2760.02 713.5,2767C 702.881,2768.71 692.215,2769.88 681.5,2770.5C 679.961,2821.97 663.127,2867.63 631,2907.5C 595.39,2945.17 551.557,2966 499.5,2970C 436.022,2974.39 379.688,2956.73 330.5,2917C 300.049,2888.95 280.883,2854.45 273,2813.5C 265.03,2768.19 261.196,2722.52 261.5,2676.5C 239.179,2675.79 220.679,2667.12 206,2650.5C 191.944,2631.31 189.944,2610.97 200,2589.5C 206.338,2579.75 215.172,2573.58 226.5,2571C 237.512,2570.42 248.512,2570.58 259.5,2571.5C 259.5,2529.5 259.5,2487.5 259.5,2445.5C 234.657,2444.84 216.157,2433.84 204,2412.5C 194.128,2388.93 198.628,2368.76 217.5,2352C 230.731,2344.18 245.064,2341.01 260.5,2342.5C 260.958,2311.5 261.125,2280.5 261,2249.5C 244.625,2243.9 229.458,2236.06 215.5,2226C 193.649,2206.93 191.815,2186.1 210,2163.5C 223.813,2147.51 241.313,2139.51 262.5,2139.5C 262.5,2109.5 262.5,2079.5 262.5,2049.5C 239.427,2046.89 221.261,2036.22 208,2017.5C 192.571,1983.71 199.738,1955.88 229.5,1934C 238.824,1928.67 248.824,1925.5 259.5,1924.5C 259.833,1900.16 259.5,1875.82 258.5,1851.5C 240.816,1842.74 224.983,1831.41 211,1817.5C 192.379,1794.8 190.712,1770.8 206,1745.5C 215.931,1729.57 229.097,1717.07 245.5,1708C 250.793,1707.02 256.126,1706.52 261.5,1706.5C 253.661,1654.46 245.494,1602.46 237,1550.5C 218.667,1525.83 200.333,1501.17 182,1476.5C 177.821,1466.81 173.654,1457.15 169.5,1447.5 Z"/></g>
<g><path style="opacity:0.11" fill="#d5d5d5" d="M 1018.5,908.5 C 1018.5,1929.5 1018.5,2950.5 1018.5,3971.5C 680,3971.83 341.666,3971.5 3.5,3970.5C 341.5,3970.5 679.5,3970.5 1017.5,3970.5C 1017.5,2952.5 1017.5,1934.5 1017.5,916.5C 1017.19,913.615 1017.53,910.948 1018.5,908.5 Z"/></g>
</svg>
