<?xml version="1.0" encoding="UTF-8"?>
<!DOCTYPE svg PUBLIC "-//W3C//DTD SVG 1.1//EN" "http://www.w3.org/Graphics/SVG/1.1/DTD/svg11.dtd">
<svg xmlns="http://www.w3.org/2000/svg" version="1.1" width="1010px" height="3975px" style="shape-rendering:geometricPrecision; text-rendering:geometricPrecision; image-rendering:optimizeQuality; fill-rule:evenodd; clip-rule:evenodd" xmlns:xlink="http://www.w3.org/1999/xlink">
<g><path style="opacity:0.958" fill="#f3f3f3" d="M -0.5,-0.5 C 336.167,-0.5 672.833,-0.5 1009.5,-0.5C 1009.5,1324.5 1009.5,2649.5 1009.5,3974.5C 672.833,3974.5 336.167,3974.5 -0.5,3974.5C -0.5,2649.5 -0.5,1324.5 -0.5,-0.5 Z M 1005.5,3070.5 C 1001.66,3043.8 996.825,3017.13 991,2990.5C 967.93,2893.89 946.597,2796.89 927,2699.5C 896.79,2512.27 877.123,2323.94 868,2134.5C 861.371,1961.19 855.371,1787.86 850,1614.5C 843.727,1460.55 830.393,1307.22 810,1154.5C 784.282,946.091 755.616,738.091 724,530.5C 712.476,456.355 698.476,382.689 682,309.5C 673.207,270.455 661.207,232.455 646,195.5C 639.594,181.676 631.927,168.676 623,156.5C 602.617,132.059 577.783,126.226 548.5,139C 515.966,154.894 493.132,179.728 480,213.5C 466.342,251.786 457.009,291.119 452,331.5C 445.127,384.638 440.461,437.971 438,491.5C 432.812,644.16 427.812,796.826 423,949.5C 420.13,1024.34 414.797,1099.01 407,1173.5C 373.806,1482.72 333.806,1791.05 287,2098.5C 271.677,2201.78 253.01,2304.45 231,2406.5C 226.956,2423.34 222.289,2440.01 217,2456.5C 178.667,2555.17 140.333,2653.83 102,2752.5C 83.7938,2809.12 64.7938,2865.45 45,2921.5C 28.5904,2969.14 16.2571,3017.8 8,3067.5C -6.54391,3162.15 16.4561,3246.15 77,3319.5C 103.281,3345.2 130.781,3369.36 159.5,3392C 242.016,3456.61 328.683,3515.27 419.5,3568C 443.002,3581.39 467.669,3592.06 493.5,3600C 549.862,3609.77 602.195,3599.44 650.5,3569C 666.186,3558.49 681.519,3547.49 696.5,3536C 752.278,3487.95 808.611,3440.62 865.5,3394C 889.717,3373.44 912.884,3351.61 935,3328.5C 963.922,3297.68 984.922,3262.01 998,3221.5C 1000.71,3211.08 1003.21,3200.75 1005.5,3190.5C 1005.5,3450.5 1005.5,3710.5 1005.5,3970.5C 671.5,3970.5 337.5,3970.5 3.5,3970.5C 3.5,2648.17 3.5,1325.83 3.5,3.5C 337.5,3.5 671.5,3.5 1005.5,3.5C 1005.5,1025.83 1005.5,2048.17 1005.5,3070.5 Z"/></g>
<g><path style="opacity:0.982" fill="#010101" d="M 1005.5,3070.5 C 1009.34,3110.51 1009.34,3150.51 1005.5,3190.5C 1003.21,3200.75 1000.71,3211.08 998,3221.5C 984.922,3262.01 963.922,3297.68 935,3328.5C 912.884,3351.61 889.717,3373.44 865.5,3394C 808.611,3440.62 752.278,3487.95 696.5,3536C 681.519,3547.49 666.186,3558.49 650.5,3569C 602.195,3599.44 549.862,3609.77 493.5,3600C 467.669,3592.06 443.002,3581.39 419.5,3568C 328.683,3515.27 242.016,3456.61 159.5,3392C 130.781,3369.36 103.281,3345.2 77,3319.5C 16.4561,3246.15 -6.54391,3162.15 8,3067.5C 16.2571,3017.8 28.5904,2969.14 45,2921.5C 64.7938,2865.45 83.7938,2809.12 102,2752.5C 140.333,2653.83 178.667,2555.17 217,2456.5C 222.289,2440.01 226.956,2423.34 231,2406.5C 253.01,2304.45 271.677,2201.78 287,2098.5C 333.806,1791.05 373.806,1482.72 407,1173.5C 414.797,1099.01 420.13,1024.34 423,949.5C 427.812,796.826 432.812,644.16 438,491.5C 440.461,437.971 445.127,384.638 452,331.5C 457.009,291.119 466.342,251.786 480,213.5C 493.132,179.728 515.966,154.894 548.5,139C 577.783,126.226 602.617,132.059 623,156.5C 631.927,168.676 639.594,181.676 646,195.5C 661.207,232.455 673.207,270.455 682,309.5C 698.476,382.689 712.476,456.355 724,530.5C 755.616,738.091 784.282,946.091 810,1154.5C 830.393,1307.22 843.727,1460.55 850,1614.5C 855.371,1787.86 861.371,1961.19 868,2134.5C 877.123,2323.94 896.79,2512.27 927,2699.5C 946.597,2796.89 967.93,2893.89 991,2990.5C 996.825,3017.13 1001.66,3043.8 1005.5,3070.5 Z"/></g>
<g><path style="opacity:1" fill="#fefefe" d="M 566.5,163.5 C 581.724,161.862 593.89,167.195 603,179.5C 617.839,201.981 628.839,226.315 636,252.5C 653.311,313.05 667.311,374.383 678,436.5C 697.499,548.161 714.832,660.161 730,772.5C 754.299,948.893 776.966,1125.56 798,1302.5C 808.514,1409.29 816.181,1516.29 821,1623.5C 824.926,1744.16 828.592,1864.82 832,1985.5C 837.148,2157.01 849.315,2328.01 868.5,2498.5C 656.5,2498.67 444.5,2498.5 232.5,2498C 239.359,2481.44 245.526,2464.61 251,2447.5C 268.476,2376.79 283.143,2305.46 295,2233.5C 331.785,2007.34 364.452,1780.67 393,1553.5C 411.526,1409.43 427.86,1265.1 442,1120.5C 449.4,1026.3 454.4,931.968 457,837.5C 459.595,725.81 462.929,614.143 467,502.5C 469.49,446.974 474.157,391.641 481,336.5C 485.889,297.045 495.223,258.712 509,221.5C 521.102,194.898 540.269,175.565 566.5,163.5 Z"/></g>
<g><path style="opacity:1" fill="#fefefe" d="M 221.5,2527.5 C 438.5,2527.5 655.5,2527.5 872.5,2527.5C 880.279,2592.06 889.779,2656.4 901,2720.5C 920.012,2814.56 940.679,2908.23 963,3001.5C 974.749,3050.16 979.749,3099.49 978,3149.5C 976.13,3200.78 959.797,3246.78 929,3287.5C 904.534,3316.97 877.701,3344.13 848.5,3369C 792.914,3414.58 737.914,3460.92 683.5,3508C 659.892,3528.48 633.892,3545.48 605.5,3559C 573.006,3572.08 539.34,3576.42 504.5,3572C 487.014,3567.84 470.347,3561.5 454.5,3553C 404.832,3526.18 356.832,3496.84 310.5,3465C 247.684,3422.25 187.017,3376.58 128.5,3328C 60.2245,3266.56 29.0579,3189.73 35,3097.5C 38.2309,3059.78 45.2309,3022.78 56,2986.5C 61.3333,2969.17 66.6667,2951.83 72,2934.5C 92.0654,2876.3 111.732,2817.97 131,2759.5C 161.273,2682.18 191.439,2604.84 221.5,2527.5 Z"/></g>
</svg>
