<?xml version="1.0" encoding="UTF-8"?>
<svg version="1.1" xmlns="http://www.w3.org/2000/svg" width="1022" height="3976">
<path d="M0 0 C337.26 0 674.52 0 1022 0 C1022 1312.08 1022 2624.16 1022 3976 C684.74 3976 347.48 3976 0 3976 C0 2663.92 0 1351.84 0 0 Z M4 4 C4 269.65 4 535.3 4 809 C4.33 809 4.66 809 5 809 C5.10957031 808.37359619 5.21914062 807.74719238 5.33203125 807.10180664 C8.28003344 790.58670291 12.36734457 774.80443686 18 759 C18.28069336 758.21189941 18.56138672 757.42379883 18.85058594 756.61181641 C29.02585509 728.73257529 46.35528759 703.31553641 66.515625 681.6953125 C68.48829042 679.55515663 70.38825056 677.38490836 72.28125 675.17578125 C76.03403504 670.87331526 80.07524654 666.95192176 84.25 663.0625 C85.37631836 662.00893311 85.37631836 662.00893311 86.52539062 660.93408203 C91.24059538 656.55437444 96.03537584 652.33473151 101.07421875 648.328125 C104.11726638 645.9066879 107.11279719 643.43403661 110.10693359 640.95263672 C116.12985408 635.96175972 122.19028405 631.03900043 128.375 626.25 C133.57681854 622.21256984 138.48614776 617.9775471 143.3046875 613.484375 C145.36142329 611.58860114 147.4415573 609.76530787 149.56640625 607.94921875 C154.76257696 603.41844114 159.61055644 598.53934516 164.47290039 593.6574707 C166.05959946 592.06541034 167.65157742 590.4787701 169.24414062 588.89257812 C174.15790018 583.98202936 178.97821361 579.03389635 183.49487305 573.75024414 C185.87231869 570.98562 188.38074302 568.34630574 190.875 565.6875 C195.38987138 560.83996873 199.64031061 555.84690555 203.7890625 550.6796875 C206.1093495 547.86746685 208.53071134 545.18202737 211 542.5 C214.29331699 538.92207537 217.44651321 535.28460334 220.5 531.5 C224.33719031 526.74404581 228.39385101 522.24495199 232.53125 517.75 C234.94378104 515.06262366 237.2325621 512.31034556 239.5 509.5 C243.39164585 504.68013473 247.48659632 500.09370033 251.6796875 495.53515625 C253.57281203 493.46674242 255.42251704 491.37594124 257.25 489.25 C261.29094075 484.59621515 265.52830975 480.12578753 269.74511719 475.63208008 C273.04705877 472.10898724 276.30441393 468.55796737 279.5 464.9375 C287.06640912 456.48009317 295.11019937 448.19893513 303.7890625 440.875 C305.60213584 439.33741131 307.37840334 437.77378282 309.1484375 436.1875 C346.44993565 402.95795008 391.79874209 377.92372529 442 372 C442.75458496 371.9071875 443.50916992 371.814375 444.28662109 371.71875 C453.45821071 370.73198916 462.66093683 370.75643974 471.875 370.75 C472.74272034 370.74932526 473.61044067 370.74865051 474.50445557 370.74795532 C487.53883538 370.76405012 500.23242101 371.12559258 513 374 C513.66273926 374.13970215 514.32547852 374.2794043 515.00830078 374.42333984 C547.64609048 381.60316681 580.9387021 401.04751905 609.67285156 417.65673828 C612.39766534 419.22953784 615.13253263 420.78422003 617.8671875 422.33984375 C639.81553145 434.86908743 661.42802602 447.95520558 682.72900391 461.55615234 C685.00414994 463.00263844 687.28796247 464.43443136 689.57421875 465.86328125 C716.71357673 482.88896448 743.37854849 500.80034681 769.55126953 519.27490234 C772.08943637 521.06300672 774.63538824 522.83951631 777.18359375 524.61328125 C788.20860921 532.29147289 799.14470792 540.08375661 810 548 C810.7719873 548.56187012 811.54397461 549.12374023 812.33935547 549.70263672 C823.37959434 557.74737398 834.23410614 565.99995018 844.98535156 574.42626953 C847.89332006 576.69781157 850.82081764 578.94343011 853.75 581.1875 C855.83420526 582.79053366 857.91753197 584.3947102 860 586 C860.55606934 586.42845215 861.11213867 586.8569043 861.68505859 587.29833984 C868.94475597 592.90522361 876.03692326 598.65834072 882.96728516 604.66845703 C886.35859085 607.60771526 889.79802345 610.45753072 893.3125 613.25 C950.19111724 659.57382229 991.9537797 735.36168977 1009 806 C1009.22526367 806.91136719 1009.45052734 807.82273437 1009.68261719 808.76171875 C1013.41878563 824.04749778 1015.48225607 839.34814763 1017 855 C1017.33 855 1017.66 855 1018 855 C1018 574.17 1018 293.34 1018 4 C683.38 4 348.76 4 4 4 Z M1017 897 C1016.91081299 897.95362427 1016.91081299 897.95362427 1016.81982422 898.92651367 C1012.07257555 948.01201581 997.06911212 994.14563935 977 1039 C976.54146637 1040.02664764 976.54146637 1040.02664764 976.07366943 1041.07403564 C968.09477745 1058.92357524 959.84722153 1076.59152447 951.00390625 1094.03125 C948.11934371 1099.72860606 945.35697677 1105.47823937 942.625 1111.25 C938.72546945 1119.48202315 934.69018975 1127.63893041 930.5899353 1135.77215576 C925.35697957 1146.15928905 920.22600613 1156.58196809 915.3125 1167.125 C914.62051514 1168.60166138 914.62051514 1168.60166138 913.91455078 1170.1081543 C912.24376753 1173.72456208 910.6132118 1177.35766017 909 1181 C908.62740051 1181.84002563 908.25480103 1182.68005127 907.87091064 1183.54553223 C897.48180278 1207.10016948 888.11988537 1231.07495545 878.63626862 1255.00378036 C874.81861977 1264.63202896 870.99111885 1274.25637072 867.16582108 1283.88158226 C865.93701681 1286.97379645 864.7084896 1290.0661205 863.48011768 1293.15850645 C854.65355986 1315.37832819 845.78185284 1337.57992076 836.89333248 1359.77501678 C833.97724338 1367.05705085 831.06447789 1374.34040733 828.15356445 1381.62451172 C826.53345155 1385.67809414 824.9132429 1389.73163828 823.29296875 1393.78515625 C822.89933702 1394.76998238 822.5057053 1395.7548085 822.10014534 1396.76947784 C817.57732709 1408.0831813 813.04127688 1419.39135355 808.47792053 1430.68877125 C805.73535535 1437.47867125 803.00164012 1444.27208327 800.27474976 1451.06829357 C798.73417419 1454.90617226 797.18875818 1458.74189985 795.62921143 1462.57211304 C786.22348218 1485.68316227 778.83323543 1508.87636101 774.5 1533.5 C774.36103302 1534.27214844 774.22206604 1535.04429687 774.07888794 1535.83984375 C759.20453244 1618.74574772 753.1878434 1703.35717057 747 1794 C746.95015457 1794.73639458 746.90030914 1795.47278915 746.84895325 1796.23149872 C739.74673014 1901.38005174 735.0780652 2006.69649554 731 2112 C730.95121452 2113.25829369 730.90242905 2114.51658737 730.85216522 2115.81301117 C727.0168119 2214.89565647 724.06984784 2314.00785582 717.63126248 2530.65215409 C717.39391711 2538.76191744 717.15617557 2546.87166909 716.91822815 2554.98141479 C716.78523085 2559.5154414 716.65225736 2564.0494687 716.51928711 2568.58349609 C716.47049154 2570.24692476 716.47049154 2570.24692476 716.42071021 2571.94395804 C716.07470277 2583.74196593 715.73009478 2595.54001104 715.39016724 2607.3381958 C711.29656395 2749.40216216 711.29656395 2749.40216216 708.05633545 2806.69415283 C707.8491397 2810.38760071 707.65074706 2814.08152458 707.45117188 2817.77539062 C706.85193244 2828.82458585 706.23542358 2839.87278871 705.60656834 2850.92033672 C700.68852201 2937.36082337 700.81226795 3023.90738929 712.4255923 3275.69038713 C714.04990882 3305.05966099 715.6722919 3334.42754649 716.90758133 3363.81622696 C716.99461699 3365.87280411 717.08471669 3367.92925092 717.17501831 3369.98568726 C718.1953299 3393.72067343 718.18743321 3417.46197569 718.18530273 3441.21484375 C718.18522129 3445.73832176 718.19221021 3450.26169886 718.20581055 3454.78515625 C718.28021387 3479.9310967 718.25294103 3504.93643156 716 3530 C715.89041458 3531.22389938 715.78082916 3532.44779877 715.66792297 3533.70878601 C710.10952538 3594.60068073 693.68009808 3665.11833757 649 3710 C648.29746094 3710.73734375 647.59492187 3711.4746875 646.87109375 3712.234375 C636.46135512 3722.42683256 621.71982625 3728.45504055 607.26635742 3728.36132812 C587.77199934 3727.84474434 573.76564223 3715.76564223 560.671875 3702.671875 C521.40342576 3661.14337112 501.68551067 3599.34916576 483.453125 3546.22460938 C482.51671093 3543.49615704 481.57200072 3540.77089528 480.6171875 3538.04882812 C454.95308433 3464.80741717 436.16990188 3388.77573104 333 2872 C332.76693775 2870.59548206 332.76693775 2870.59548206 332.52916718 2869.16259003 C325.09128028 2824.31591944 318.06988855 2779.40816728 311.31331253 2734.45393753 C310.83205377 2731.25497532 310.34909056 2728.05627499 309.86569214 2724.8576355 C296.72685296 2637.79885638 286.00988897 2550.40485243 275.00347297 2463.05778342 C272.45829963 2442.85938094 269.90787237 2422.66164295 267.35683478 2402.46398041 C266.404765 2394.9259446 265.45278983 2387.38789685 264.50081516 2379.84984903 C264.2619421 2377.9583769 264.02306684 2376.06690505 263.7841894 2374.17543347 C262.10380301 2360.86977587 260.42402446 2347.56404165 258.74474128 2334.25824477 C252.6371298 2285.86468485 246.51957958 2237.47239795 240.38671875 2189.08203125 C240.29172885 2188.33251595 240.19673895 2187.58300066 240.09887058 2186.81077278 C237.82601249 2168.87688516 235.55255834 2150.94307314 233.27879585 2133.00930017 C229.88952072 2106.27712952 226.50162933 2079.54478346 223.11371245 2052.81244063 C222.54625945 2048.33496523 221.9787923 2043.85749162 221.41131305 2039.38001955 C214.46365846 1984.56228015 207.52225707 1929.74375002 200.58305719 1874.92493978 C199.72889897 1868.177204 198.87473197 1861.42946933 198.02055864 1854.68173546 C197.80750035 1852.99863296 197.59444265 1851.31553039 197.38138552 1849.63242775 C194.25025644 1824.89727096 191.11796215 1800.16226201 187.98452748 1775.42739719 C187.47905532 1771.43725238 186.97359928 1767.44710553 186.46814251 1763.45695877 C186.26750125 1761.8730727 186.06685995 1760.28918663 185.86621863 1758.70530057 C185.56699365 1756.34318208 185.26776888 1753.98106355 184.96854459 1751.61894497 C184.67144666 1749.27361219 184.37434822 1746.92827947 184.07724953 1744.58294678 C183.97967106 1743.81264954 183.88209259 1743.04235231 183.78155719 1742.24871273 C183.29190106 1738.38331951 182.80223436 1734.51792762 182.31254745 1730.6525383 C177.77789503 1694.8578305 173.24793755 1659.06254457 168.73262846 1623.26539046 C168.51075206 1621.50638188 168.51075206 1621.50638188 168.28439331 1619.71183777 C168.13810372 1618.55206875 167.99181412 1617.39229974 167.84109151 1616.19738621 C166.05817414 1602.06435482 164.27131059 1587.93182219 162.4836216 1573.79939365 C161.14280082 1563.19813073 159.8054998 1552.59643731 158.47340143 1541.99407476 C157.60332363 1535.07135233 156.72903337 1528.14917085 155.85117781 1521.2274304 C155.36111251 1517.36226195 154.8729076 1513.49688574 154.39024734 1509.63078499 C153.87769297 1505.52531087 153.35580582 1501.42107676 152.83300781 1497.31689453 C152.68989481 1496.15781617 152.54678181 1494.99873781 152.39933205 1493.80453587 C150.89223799 1482.10215805 148.32145023 1470.70028222 145.18554688 1459.33447266 C144.91865964 1458.35492017 144.6517724 1457.37536768 144.37679768 1456.36613178 C143.49440694 1453.13110608 142.60659854 1449.89759417 141.71875 1446.6640625 C141.07963971 1444.32533168 140.44087052 1441.98650763 139.80241394 1439.64759827 C138.42884278 1434.61863993 137.05293962 1429.59032599 135.67489624 1424.56259155 C133.64821443 1417.16825114 131.62603838 1409.77268388 129.60484397 1402.3768419 C126.30278604 1390.29453917 122.99745531 1378.21313444 119.68994141 1366.13232422 C115.39991601 1350.46278145 111.11372903 1334.79219139 106.82913089 1319.12116385 C105.93328377 1315.84461207 105.03738864 1312.56807342 104.14149475 1309.29153442 C103.78287339 1307.97995315 103.42425211 1306.66837186 103.06563091 1305.35679054 C102.8881275 1304.70760949 102.71062409 1304.05842844 102.52774179 1303.38957524 C101.99023096 1301.42373198 101.45272817 1299.45788652 100.91522694 1297.49204063 C98.57805354 1288.94416226 96.24054159 1280.39637652 93.90285218 1271.84863925 C83.93173163 1235.38918259 73.96339724 1198.92896249 64.01064014 1162.46448803 C62.05347989 1155.29399053 60.09582472 1148.12362931 58.13656616 1140.95370483 C35.09554228 1056.62952723 35.09554228 1056.62952723 25.84082031 1016.53253174 C25.13392209 1013.47847989 24.41965466 1010.42617005 23.70559978 1007.37378502 C10.98470253 952.95084972 10.98470253 952.95084972 7.0625 925.875 C6.85435872 924.48815445 6.64536662 923.10143635 6.43554688 921.71484375 C5.94884048 918.47768028 5.47001216 915.23962066 5 912 C4.67 912 4.34 912 4 912 C4 1921.8 4 2931.6 4 3972 C338.62 3972 673.24 3972 1018 3972 C1018 2957.25 1018 1942.5 1018 897 C1017.67 897 1017.34 897 1017 897 Z " fill="#FEFEFE" transform="translate(0,0)"/>
<path d="M0 0 C197.01 0 394.02 0 597 0 C596.19679454 4.01602732 595.41860108 6.56144171 593.70703125 10.1484375 C587.57176292 23.32505349 582.84455571 36.08394682 579.63085938 50.25634766 C579.01483281 52.93549103 578.3520865 55.59822198 577.671875 58.26171875 C574.35105953 71.39516011 572.04450211 84.61490022 570 98 C569.8040625 99.26505371 569.608125 100.53010742 569.40625 101.83349609 C566.42803672 121.10247588 563.91275727 140.39784184 561.71980286 159.77085876 C561.19390974 164.38835998 560.62875509 168.99948605 560.0390625 173.609375 C552.74143326 230.85782858 548.91340634 288.51314746 545.39428711 346.09716797 C544.69599102 357.46514162 543.96044156 368.82215041 543.0078125 380.171875 C540.40598812 411.56492776 539.21478101 443.08680064 537.66143799 474.54449463 C537.23476721 483.18163388 536.80617767 491.81867802 536.37706184 500.45569611 C536.27142707 502.58347037 536.16595225 504.71125258 536.06063652 506.83904266 C535.54938505 517.16683966 535.0349991 527.49426987 534.47094727 537.81933594 C533.09819384 562.98094982 532.04919497 588.15092437 531.06671143 613.33062744 C530.89439937 617.7238929 530.7186534 622.1170184 530.54298973 626.51015091 C529.73159523 646.83780677 528.95693095 667.16226574 528.44996262 687.49995613 C528.16888549 698.61339085 527.71903886 709.71261285 527.19587326 720.81714058 C526.26276574 740.63192166 525.56200978 760.45002473 524.96484375 780.27734375 C524.9436411 780.98019391 524.92243844 781.68304406 524.90059328 782.40719271 C524.61807743 791.78272147 524.34153957 801.15842285 524.06671143 810.53417969 C523.74433185 821.52852576 523.41796356 832.52275375 523.08887964 843.51690108 C522.98650995 846.94080304 522.88493533 850.3647245 522.78538322 853.78870964 C522.39671722 867.14097613 521.98697614 880.48821357 521.33126736 893.83045101 C520.94181299 901.7847445 520.7639293 909.73889725 520.61212158 917.70074463 C520.30045301 933.71238192 519.82730177 949.71501259 519.24822998 965.71902466 C518.20956337 994.42691568 517.35732631 1023.1392852 516.53652191 1051.85414886 C516.43929746 1055.24972349 516.34146727 1058.64528014 516.24346924 1062.04083252 C515.51792296 1087.21388001 514.84262869 1112.38670889 514.32627869 1137.5650177 C514.12345841 1147.34310258 513.83301277 1157.10717808 513.36941528 1166.87690735 C513.11117784 1172.5705693 512.93992901 1178.2615072 512.83569336 1183.95996094 C512.20824462 1217.89380148 510.77375829 1251.79398409 509.3687638 1285.70244753 C509.09505254 1292.3166679 508.82653088 1298.93109108 508.5593043 1305.54557621 C508.26387872 1312.85472725 507.96466934 1320.16371918 507.663908 1327.47265244 C507.53876031 1330.51552535 507.41483764 1333.55844388 507.29207039 1336.60141373 C506.45044908 1357.41962918 505.3241666 1378.20688482 504 1399 C503.25293818 1410.99647364 502.58844359 1422.99482193 502 1435 C501.95403687 1435.91992737 501.90807373 1436.83985474 501.86071777 1437.78765869 C498.84243603 1498.65719977 499.38481716 1559.65449665 500.875 1620.5625 C500.90457039 1621.7976491 500.90457039 1621.7976491 500.93473816 1623.0577507 C501.40982875 1642.85807258 502.14548951 1662.62604075 503.30197144 1682.39906311 C503.84558469 1691.72341676 504.24021694 1701.03808168 504.5 1710.375 C505.16564775 1733.12333921 506.29553066 1755.86329159 507.9375 1778.5625 C510.87681815 1819.40138639 512.70133769 1860.3278143 514.48352051 1901.23165894 C514.75514732 1907.46575374 515.03028457 1913.69957219 515.32519531 1919.93261719 C517.89203485 1974.33195457 519.75495835 2029.75046252 514 2084 C513.8772168 2085.20269531 513.75443359 2086.40539063 513.62792969 2087.64453125 C512.91485585 2094.45703829 512.04870231 2101.23121462 511 2108 C510.84917969 2108.97404785 510.69835937 2109.9480957 510.54296875 2110.95166016 C503.54635754 2155.17109623 488.09793766 2214.11610482 452 2244 C445.37907075 2248.62730554 439.02283062 2250.3736933 431 2249 C407.15735171 2241.87332422 391.65233165 2211.31976977 380.63134766 2191.07421875 C370.47599674 2171.93680798 361.82386717 2152.1967138 354 2132 C353.63664551 2131.06607422 353.27329102 2130.13214844 352.89892578 2129.16992188 C350.18038751 2122.14440076 347.57323948 2115.07983726 345 2108 C344.71946777 2107.22885864 344.43893555 2106.45771729 344.14990234 2105.66320801 C342.17543903 2100.23133676 340.21116626 2094.79587282 338.25549316 2089.35720825 C337.59601934 2087.5242401 336.93517761 2085.6917634 336.27282715 2083.85983276 C332.55179055 2073.55605325 329.07590712 2063.24523959 326.06835938 2052.71020508 C324.69920639 2047.9554021 323.1692508 2043.26247551 321.625 2038.5625 C318.58628241 2029.18478033 315.95800246 2019.72353294 313.48486328 2010.18188477 C312.15971788 2005.1112243 310.74166343 2000.12577359 309.0390625 1995.16796875 C306.66245228 1988.1889888 304.86269649 1981.08232018 303.0625 1973.9375 C302.71103383 1972.55683794 302.35905892 1971.1763053 302.0065918 1969.79589844 C301.31481754 1967.08613507 300.62461948 1964.37597886 299.93554688 1961.66552734 C298.75014226 1957.02104276 297.53824537 1952.38397627 296.3125 1947.75 C296.11720703 1947.01031982 295.92191406 1946.27063965 295.72070312 1945.50854492 C295.33815753 1944.06031359 294.9553509 1942.61215117 294.57226562 1941.1640625 C292.93244838 1934.96297886 291.30176359 1928.75949147 289.67236328 1922.55566406 C288.95959272 1919.84641126 288.24339196 1917.13807572 287.52734375 1914.4296875 C284.63201838 1903.44549454 281.86288026 1892.44217137 279.26953125 1881.3828125 C278.4119667 1877.72663315 277.53296625 1874.07657478 276.63671875 1870.4296875 C273.38040018 1857.13629815 270.40951038 1843.79580462 267.54971313 1830.41281128 C265.27371645 1819.76592042 262.89553331 1809.15464084 260.375 1798.5625 C257.67745505 1787.20690259 255.30637749 1775.81929723 253.06469727 1764.3671875 C251.62893364 1757.05466299 250.07986408 1749.79323413 248.32519531 1742.55126953 C246.20958384 1733.8027504 244.5649506 1724.96374707 242.87890625 1716.125 C242.46117244 1713.93745512 242.04319496 1711.74995677 241.625 1709.5625 C241.4089209 1708.43215332 241.1928418 1707.30180664 240.97021484 1706.13720703 C239.60895971 1699.05566651 238.1804196 1691.99233791 236.6875 1684.9375 C226.73759647 1637.72642702 218.31939656 1590.19099339 209.99462891 1542.67236328 C208.91822038 1536.52969099 207.83382323 1530.38845073 206.74731445 1524.24755859 C205.92019319 1519.57026895 205.09649436 1514.89237896 204.27284241 1510.21447754 C203.49110628 1505.77772254 202.70617574 1501.3415453 201.91894531 1496.90576172 C196.69788975 1467.4824833 191.6205869 1438.0432274 186.86791992 1408.5402832 C186.68935959 1407.43501282 186.51079926 1406.32974243 186.326828 1405.190979 C185.99724065 1403.14866582 185.66929987 1401.10608582 185.34346008 1399.06317139 C184.63142042 1394.64809469 183.86728545 1390.25761671 182.96850586 1385.87646484 C182.02704101 1381.26030407 181.32385176 1376.63993192 180.69140625 1371.97265625 C179.3872993 1362.61656996 178.00359496 1353.27360202 176.58984375 1343.93359375 C176.48286793 1343.22658955 176.37589211 1342.51958534 176.26567459 1341.79115677 C175.7149542 1338.15288442 175.16334902 1334.51474717 174.61108398 1330.87670898 C174.04627022 1327.15583038 173.48307694 1323.43470856 172.92034054 1319.71351528 C172.47913458 1316.79718764 172.03707049 1313.88099055 171.59475899 1310.9648304 C171.38681679 1309.59320058 171.17912883 1308.2215322 170.97172356 1306.84982109 C169.85129261 1299.44299187 168.69555767 1292.04495876 167.44136047 1284.65951538 C166.64250265 1279.84582049 165.95254097 1275.01601567 165.25 1270.1875 C163.94240045 1261.26516734 162.59578478 1252.35018654 161.20915222 1243.43986511 C156.06626265 1210.3875109 151.62399908 1177.29713244 147.59277344 1144.09008789 C145.92798566 1130.40015397 144.20000143 1116.72351591 142.3125 1103.0625 C140.64868726 1091.01989359 139.14215347 1078.96931456 137.75842285 1066.89138794 C136.4971495 1055.90713592 135.07367334 1044.9525194 133.5625 1034 C131.72532624 1020.68260677 130.05883228 1007.35277988 128.5 994 C126.96039778 980.8139864 125.3174063 967.65063841 123.5 954.5 C121.55996873 940.462055 119.83172444 926.40739999 118.18850708 912.33178711 C116.64099886 899.09976502 114.94097253 885.89670628 113.12011719 872.69970703 C111.52378223 861.11268751 110.08984586 849.5157977 108.75897217 837.89550781 C107.49749729 826.90988557 106.0738625 815.95389037 104.5625 805 C102.72532624 791.68260677 101.05883228 778.35277988 99.5 765 C97.96039778 751.8139864 96.3174063 738.65063841 94.5 725.5 C92.55996873 711.462055 90.83172444 697.40739999 89.18850708 683.33178711 C87.64099886 670.09976502 85.94097253 656.89670628 84.12011719 643.69970703 C82.52378223 632.11268751 81.08984586 620.5157977 79.75897217 608.89550781 C78.49749729 597.90988557 77.0738625 586.95389037 75.5625 576 C73.72532624 562.68260677 72.05883228 549.35277988 70.5 536 C68.96039778 522.8139864 67.3174063 509.65063841 65.5 496.5 C63.55959743 482.4593683 61.83137669 468.40199321 60.1875 454.32373047 C58.66127043 441.2768524 56.98735286 428.25871818 55.18850708 415.24682617 C53.33042323 401.77813168 51.69854445 388.28872032 50.12011719 374.78466797 C48.85833775 364.00485266 47.530427 353.2454854 46 342.5 C44.34106951 330.85226153 42.92832082 319.18512247 41.5625 307.5 C40.00162385 294.14743579 38.34100669 280.81686155 36.5 267.5 C34.55942079 253.45939442 32.8313762 239.40198902 31.1875 225.32373047 C29.74941818 213.0303779 28.19440203 200.76058721 26.5 188.5 C24.55996873 174.462055 22.83172444 160.40739999 21.18850708 146.33178711 C19.64103895 133.10010787 17.9417091 119.89727173 16.12011719 106.70071411 C14.71295201 96.49209558 13.41273622 86.27882736 12.24102783 76.04049683 C10.87293334 64.1037078 9.45232021 52.1732891 7.86889648 40.26296997 C7.66948509 38.74948911 7.47458466 37.23540478 7.28491211 35.72067261 C6.15121835 26.70737354 4.42640734 18.19678618 1.64784241 9.53392029 C0.56452343 6.13687605 0 3.61228394 0 0 Z " fill="#FEFEFE" transform="translate(173,1449)"/>
<path d="M0 0 C337.26 0 674.52 0 1022 0 C1022 1312.08 1022 2624.16 1022 3976 C684.74 3976 347.48 3976 0 3976 C0 2663.92 0 1351.84 0 0 Z M4 4 C4 269.65 4 535.3 4 809 C4.33 809 4.66 809 5 809 C5.10957031 808.37359619 5.21914062 807.74719238 5.33203125 807.10180664 C8.28003344 790.58670291 12.36734457 774.80443686 18 759 C18.28069336 758.21189941 18.56138672 757.42379883 18.85058594 756.61181641 C29.02585509 728.73257529 46.35528759 703.31553641 66.515625 681.6953125 C68.48829042 679.55515663 70.38825056 677.38490836 72.28125 675.17578125 C76.03403504 670.87331526 80.07524654 666.95192176 84.25 663.0625 C85.37631836 662.00893311 85.37631836 662.00893311 86.52539062 660.93408203 C91.24059538 656.55437444 96.03537584 652.33473151 101.07421875 648.328125 C104.11726638 645.9066879 107.11279719 643.43403661 110.10693359 640.95263672 C116.12985408 635.96175972 122.19028405 631.03900043 128.375 626.25 C133.57681854 622.21256984 138.48614776 617.9775471 143.3046875 613.484375 C145.36142329 611.58860114 147.4415573 609.76530787 149.56640625 607.94921875 C154.76257696 603.41844114 159.61055644 598.53934516 164.47290039 593.6574707 C166.05959946 592.06541034 167.65157742 590.4787701 169.24414062 588.89257812 C174.15790018 583.98202936 178.97821361 579.03389635 183.49487305 573.75024414 C185.87231869 570.98562 188.38074302 568.34630574 190.875 565.6875 C195.38987138 560.83996873 199.64031061 555.84690555 203.7890625 550.6796875 C206.1093495 547.86746685 208.53071134 545.18202737 211 542.5 C214.29331699 538.92207537 217.44651321 535.28460334 220.5 531.5 C224.33719031 526.74404581 228.39385101 522.24495199 232.53125 517.75 C234.94378104 515.06262366 237.2325621 512.31034556 239.5 509.5 C243.39164585 504.68013473 247.48659632 500.09370033 251.6796875 495.53515625 C253.57281203 493.46674242 255.42251704 491.37594124 257.25 489.25 C261.29094075 484.59621515 265.52830975 480.12578753 269.74511719 475.63208008 C273.04705877 472.10898724 276.30441393 468.55796737 279.5 464.9375 C287.06640912 456.48009317 295.11019937 448.19893513 303.7890625 440.875 C305.60213584 439.33741131 307.37840334 437.77378282 309.1484375 436.1875 C346.44993565 402.95795008 391.79874209 377.92372529 442 372 C442.75458496 371.9071875 443.50916992 371.814375 444.28662109 371.71875 C453.45821071 370.73198916 462.66093683 370.75643974 471.875 370.75 C472.74272034 370.74932526 473.61044067 370.74865051 474.50445557 370.74795532 C487.53883538 370.76405012 500.23242101 371.12559258 513 374 C513.66273926 374.13970215 514.32547852 374.2794043 515.00830078 374.42333984 C547.64609048 381.60316681 580.9387021 401.04751905 609.67285156 417.65673828 C612.39766534 419.22953784 615.13253263 420.78422003 617.8671875 422.33984375 C639.81553145 434.86908743 661.42802602 447.95520558 682.72900391 461.55615234 C685.00414994 463.00263844 687.28796247 464.43443136 689.57421875 465.86328125 C716.71357673 482.88896448 743.37854849 500.80034681 769.55126953 519.27490234 C772.08943637 521.06300672 774.63538824 522.83951631 777.18359375 524.61328125 C788.20860921 532.29147289 799.14470792 540.08375661 810 548 C810.7719873 548.56187012 811.54397461 549.12374023 812.33935547 549.70263672 C823.37959434 557.74737398 834.23410614 565.99995018 844.98535156 574.42626953 C847.89332006 576.69781157 850.82081764 578.94343011 853.75 581.1875 C855.83420526 582.79053366 857.91753197 584.3947102 860 586 C860.55606934 586.42845215 861.11213867 586.8569043 861.68505859 587.29833984 C868.94475597 592.90522361 876.03692326 598.65834072 882.96728516 604.66845703 C886.35859085 607.60771526 889.79802345 610.45753072 893.3125 613.25 C950.19111724 659.57382229 991.9537797 735.36168977 1009 806 C1009.22526367 806.91136719 1009.45052734 807.82273437 1009.68261719 808.76171875 C1013.41878563 824.04749778 1015.48225607 839.34814763 1017 855 C1017.33 855 1017.66 855 1018 855 C1018 574.17 1018 293.34 1018 4 C683.38 4 348.76 4 4 4 Z M427.5625 404.25 C426.68053955 404.46543457 425.7985791 404.68086914 424.88989258 404.90283203 C416.37769603 407.04832576 408.16100375 409.77734785 400 413 C399.34757324 413.25475098 398.69514648 413.50950195 398.02294922 413.77197266 C372.19376929 424.01247526 349.48816844 440.53129312 328.61254883 458.60864258 C327.53125467 459.5416169 326.44239633 460.46589091 325.34643555 461.3815918 C318.67678568 467.04547954 312.56335212 473.28607226 306.39086914 479.47875977 C304.4420313 481.43295624 302.48790728 483.38175147 300.53320312 485.33007812 C295.00809477 490.85223277 289.50898168 496.34859923 284.44848633 502.30639648 C281.94294508 505.23593292 279.26967896 508.00910791 276.625 510.8125 C271.90126891 515.85565818 267.43165709 521.02690976 263.109375 526.421875 C260.98014854 529.0242629 258.76550643 531.51575502 256.5 534 C253.38541332 537.41739372 250.4081338 540.9052235 247.5 544.5 C243.88384051 548.96997492 240.10407398 553.24131648 236.23046875 557.48828125 C234.00480649 559.99458744 231.90478439 562.56924393 229.8125 565.1875 C224.90764404 571.25607398 219.57244999 576.88706664 214.22265625 582.5625 C211.3584059 585.60418178 208.58565411 588.71023943 205.8581543 591.875 C197.93422393 600.93686965 189.59832458 609.56292753 181.07397461 618.05639648 C179.30008997 619.82487219 177.53168223 621.59870044 175.76367188 623.37304688 C170.01453479 629.12630431 164.25237912 634.78786935 158 640 C157.34249756 640.55357178 156.68499512 641.10714355 156.00756836 641.67749023 C153.95095495 643.39961931 151.88416037 645.10850878 149.8125 646.8125 C149.07418945 647.4206958 148.33587891 648.0288916 147.57519531 648.65551758 C143.19335976 652.24879323 138.76424579 655.76246748 134.25 659.1875 C113.52265245 674.98468145 92.71372964 693.12610311 77 714 C76.35538818 714.84594727 76.35538818 714.84594727 75.69775391 715.70898438 C62.53804963 733.02220594 51.36580334 751.48133214 44 772 C43.75008301 772.68449219 43.50016602 773.36898438 43.24267578 774.07421875 C38.1121135 788.36301363 35.4294196 803.04623644 33 818 C32.81018555 819.06130127 32.62037109 820.12260254 32.42480469 821.21606445 C30.69554184 831.6676615 30.68848144 842.00165949 30.75 852.5625 C30.75310181 853.50786621 30.75620361 854.45323242 30.75939941 855.42724609 C30.85718076 880.92776199 32.73521814 905.83704014 37 931 C37.17370117 932.04704102 37.34740234 933.09408203 37.52636719 934.17285156 C42.53146027 963.99062419 50.05278798 993.3558633 57.22265625 1022.7109375 C58.73088376 1028.88596744 60.21863685 1035.06549859 61.6875 1041.25 C61.8824707 1042.06839355 62.07744141 1042.88678711 62.27832031 1043.72998047 C63.27779757 1047.93167462 64.2645224 1052.13601886 65.23828125 1056.34375 C67.25638779 1065.01871281 69.38941723 1073.60503351 71.984375 1082.12597656 C74.01546005 1088.86805056 75.75564612 1095.67894902 77.5 1102.5 C79.38670109 1109.87033578 81.28936872 1117.21965433 83.5 1124.5 C86.06740022 1132.95530474 88.22277919 1141.51119736 90.4140625 1150.0703125 C92.17115739 1156.90006394 94.03351173 1163.67426613 96.08374023 1170.42089844 C98.43283137 1178.25693872 100.41192457 1186.19256016 102.4140625 1194.12304688 C103.81562648 1199.62825981 105.3026773 1205.07803093 107 1210.5 C109.04398912 1217.02936875 110.76310709 1223.61771432 112.4375 1230.25 C114.34257327 1237.70410582 116.26280558 1245.13812392 118.5 1252.5 C121.06760843 1260.9552341 123.22278253 1269.51121038 125.4140625 1278.0703125 C127.00369597 1284.2491487 128.64632366 1290.39522591 130.5 1296.5 C133.06740022 1304.95530474 135.22277919 1313.51119736 137.4140625 1322.0703125 C139.00369597 1328.2491487 140.64632366 1334.39522591 142.5 1340.5 C144.71063615 1347.78036172 146.61294421 1355.12974388 148.5 1362.5 C150.58252432 1370.62881449 152.71901295 1378.72094424 155.1496582 1386.75268555 C157.24018492 1393.68923753 159.10163598 1400.68691614 160.94555664 1407.69262695 C161.18395264 1408.58425537 161.42234863 1409.47588379 161.66796875 1410.39453125 C161.98157349 1411.58332886 161.98157349 1411.58332886 162.30151367 1412.79614258 C163.05287338 1415.36588647 163.05287338 1415.36588647 165 1419 C369.27 1419 573.54 1419 784 1419 C806.4369382 1364.02950142 828.23835193 1308.87401814 849.40118408 1253.40960693 C850.7437314 1249.89142702 852.08735324 1246.37365898 853.43115234 1242.85595703 C857.02205984 1233.45216374 860.61153746 1224.04812206 864.15203857 1214.62521362 C879.6336064 1173.43272043 898.83317551 1134.16729128 918.57299805 1094.8684082 C923.35073389 1085.34124335 927.9790454 1075.74802268 932.52832031 1066.10986328 C934.1110557 1062.7653239 935.70822863 1059.42785224 937.3046875 1056.08984375 C977.8452675 970.96865809 1003.98111104 881.56610458 970.63671875 781.20703125 C966.93038712 770.90105573 962.66698047 760.90411068 958 751 C957.5870166 750.11505859 957.1740332 749.23011719 956.74853516 748.31835938 C945.41229238 724.23158859 931.34438904 701.71401145 916 680 C915.03628296 678.61079873 914.07272908 677.22148425 913.109375 675.83203125 C900.62068705 658.05906016 884.66506306 642.72763913 867.734375 629.203125 C865.20746465 627.16715723 862.73527576 625.08292477 860.27124023 622.97216797 C854.50312816 618.03296003 848.60734123 613.30850168 842.55859375 608.71484375 C839.97118365 606.74917459 837.40492576 604.75863229 834.84765625 602.75390625 C819.6662077 590.85334395 804.11668715 579.48103503 788.4609375 568.21484375 C785.4805697 566.06989196 782.50706358 563.91593592 779.5390625 561.75390625 C771.25534242 555.7270791 762.90304669 549.82438095 754.42871094 544.06835938 C750.20194583 541.19613057 745.99256579 538.30316755 741.8125 535.36328125 C705.58042626 509.89081784 668.12572841 485.73433381 630.00878906 463.19140625 C627.71773696 461.83259071 625.43324333 460.4630413 623.1484375 459.09375 C552.7418505 415.68850636 552.7418505 415.68850636 473.29638672 399.81469727 C471.13358912 399.81250869 468.97130215 399.79425003 466.80859375 399.77539062 C453.48947109 399.72046563 440.51921787 401.03784897 427.5625 404.25 Z M1017 897 C1016.91081299 897.95362427 1016.91081299 897.95362427 1016.81982422 898.92651367 C1012.07257555 948.01201581 997.06911212 994.14563935 977 1039 C976.54146637 1040.02664764 976.54146637 1040.02664764 976.07366943 1041.07403564 C968.09477745 1058.92357524 959.84722153 1076.59152447 951.00390625 1094.03125 C948.11934371 1099.72860606 945.35697677 1105.47823937 942.625 1111.25 C938.72546945 1119.48202315 934.69018975 1127.63893041 930.5899353 1135.77215576 C925.35697957 1146.15928905 920.22600613 1156.58196809 915.3125 1167.125 C914.62051514 1168.60166138 914.62051514 1168.60166138 913.91455078 1170.1081543 C912.24376753 1173.72456208 910.6132118 1177.35766017 909 1181 C908.62740051 1181.84002563 908.25480103 1182.68005127 907.87091064 1183.54553223 C897.48180278 1207.10016948 888.11988537 1231.07495545 878.63626862 1255.00378036 C874.81861977 1264.63202896 870.99111885 1274.25637072 867.16582108 1283.88158226 C865.93701681 1286.97379645 864.7084896 1290.0661205 863.48011768 1293.15850645 C854.65355986 1315.37832819 845.78185284 1337.57992076 836.89333248 1359.77501678 C833.97724338 1367.05705085 831.06447789 1374.34040733 828.15356445 1381.62451172 C826.53345155 1385.67809414 824.9132429 1389.73163828 823.29296875 1393.78515625 C822.89933702 1394.76998238 822.5057053 1395.7548085 822.10014534 1396.76947784 C817.57732709 1408.0831813 813.04127688 1419.39135355 808.47792053 1430.68877125 C805.73535535 1437.47867125 803.00164012 1444.27208327 800.27474976 1451.06829357 C798.73417419 1454.90617226 797.18875818 1458.74189985 795.62921143 1462.57211304 C786.22348218 1485.68316227 778.83323543 1508.87636101 774.5 1533.5 C774.36103302 1534.27214844 774.22206604 1535.04429687 774.07888794 1535.83984375 C759.20453244 1618.74574772 753.1878434 1703.35717057 747 1794 C746.95015457 1794.73639458 746.90030914 1795.47278915 746.84895325 1796.23149872 C739.74673014 1901.38005174 735.0780652 2006.69649554 731 2112 C730.95121452 2113.25829369 730.90242905 2114.51658737 730.85216522 2115.81301117 C727.0168119 2214.89565647 724.06984784 2314.00785582 717.63126248 2530.65215409 C717.39391711 2538.76191744 717.15617557 2546.87166909 716.91822815 2554.98141479 C716.78523085 2559.5154414 716.65225736 2564.0494687 716.51928711 2568.58349609 C716.47049154 2570.24692476 716.47049154 2570.24692476 716.42071021 2571.94395804 C716.07470277 2583.74196593 715.73009478 2595.54001104 715.39016724 2607.3381958 C711.29656395 2749.40216216 711.29656395 2749.40216216 708.05633545 2806.69415283 C707.8491397 2810.38760071 707.65074706 2814.08152458 707.45117188 2817.77539062 C706.85193244 2828.82458585 706.23542358 2839.87278871 705.60656834 2850.92033672 C700.68852201 2937.36082337 700.81226795 3023.90738929 712.4255923 3275.69038713 C714.04990882 3305.05966099 715.6722919 3334.42754649 716.90758133 3363.81622696 C716.99461699 3365.87280411 717.08471669 3367.92925092 717.17501831 3369.98568726 C718.1953299 3393.72067343 718.18743321 3417.46197569 718.18530273 3441.21484375 C718.18522129 3445.73832176 718.19221021 3450.26169886 718.20581055 3454.78515625 C718.28021387 3479.9310967 718.25294103 3504.93643156 716 3530 C715.89041458 3531.22389938 715.78082916 3532.44779877 715.66792297 3533.70878601 C710.10952538 3594.60068073 693.68009808 3665.11833757 649 3710 C648.29746094 3710.73734375 647.59492187 3711.4746875 646.87109375 3712.234375 C636.46135512 3722.42683256 621.71982625 3728.45504055 607.26635742 3728.36132812 C587.77199934 3727.84474434 573.76564223 3715.76564223 560.671875 3702.671875 C521.40342576 3661.14337112 501.68551067 3599.34916576 483.453125 3546.22460938 C482.51671093 3543.49615704 481.57200072 3540.77089528 480.6171875 3538.04882812 C454.95308433 3464.80741717 436.16990188 3388.77573104 333 2872 C332.76693775 2870.59548206 332.76693775 2870.59548206 332.52916718 2869.16259003 C325.09128028 2824.31591944 318.06988855 2779.40816728 311.31331253 2734.45393753 C310.83205377 2731.25497532 310.34909056 2728.05627499 309.86569214 2724.8576355 C296.72685296 2637.79885638 286.00988897 2550.40485243 275.00347297 2463.05778342 C272.45829963 2442.85938094 269.90787237 2422.66164295 267.35683478 2402.46398041 C266.404765 2394.9259446 265.45278983 2387.38789685 264.50081516 2379.84984903 C264.2619421 2377.9583769 264.02306684 2376.06690505 263.7841894 2374.17543347 C262.10380301 2360.86977587 260.42402446 2347.56404165 258.74474128 2334.25824477 C252.6371298 2285.86468485 246.51957958 2237.47239795 240.38671875 2189.08203125 C240.29172885 2188.33251595 240.19673895 2187.58300066 240.09887058 2186.81077278 C237.82601249 2168.87688516 235.55255834 2150.94307314 233.27879585 2133.00930017 C229.88952072 2106.27712952 226.50162933 2079.54478346 223.11371245 2052.81244063 C222.54625945 2048.33496523 221.9787923 2043.85749162 221.41131305 2039.38001955 C214.46365846 1984.56228015 207.52225707 1929.74375002 200.58305719 1874.92493978 C199.72889897 1868.177204 198.87473197 1861.42946933 198.02055864 1854.68173546 C197.80750035 1852.99863296 197.59444265 1851.31553039 197.38138552 1849.63242775 C194.25025644 1824.89727096 191.11796215 1800.16226201 187.98452748 1775.42739719 C187.47905532 1771.43725238 186.97359928 1767.44710553 186.46814251 1763.45695877 C186.26750125 1761.8730727 186.06685995 1760.28918663 185.86621863 1758.70530057 C185.56699365 1756.34318208 185.26776888 1753.98106355 184.96854459 1751.61894497 C184.67144666 1749.27361219 184.37434822 1746.92827947 184.07724953 1744.58294678 C183.97967106 1743.81264954 183.88209259 1743.04235231 183.78155719 1742.24871273 C183.29190106 1738.38331951 182.80223436 1734.51792762 182.31254745 1730.6525383 C177.77789503 1694.8578305 173.24793755 1659.06254457 168.73262846 1623.26539046 C168.51075206 1621.50638188 168.51075206 1621.50638188 168.28439331 1619.71183777 C168.13810372 1618.55206875 167.99181412 1617.39229974 167.84109151 1616.19738621 C166.05817414 1602.06435482 164.27131059 1587.93182219 162.4836216 1573.79939365 C161.14280082 1563.19813073 159.8054998 1552.59643731 158.47340143 1541.99407476 C157.60332363 1535.07135233 156.72903337 1528.14917085 155.85117781 1521.2274304 C155.36111251 1517.36226195 154.8729076 1513.49688574 154.39024734 1509.63078499 C153.87769297 1505.52531087 153.35580582 1501.42107676 152.83300781 1497.31689453 C152.68989481 1496.15781617 152.54678181 1494.99873781 152.39933205 1493.80453587 C150.89223799 1482.10215805 148.32145023 1470.70028222 145.18554688 1459.33447266 C144.91865964 1458.35492017 144.6517724 1457.37536768 144.37679768 1456.36613178 C143.49440694 1453.13110608 142.60659854 1449.89759417 141.71875 1446.6640625 C141.07963971 1444.32533168 140.44087052 1441.98650763 139.80241394 1439.64759827 C138.42884278 1434.61863993 137.05293962 1429.59032599 135.67489624 1424.56259155 C133.64821443 1417.16825114 131.62603838 1409.77268388 129.60484397 1402.3768419 C126.30278604 1390.29453917 122.99745531 1378.21313444 119.68994141 1366.13232422 C115.39991601 1350.46278145 111.11372903 1334.79219139 106.82913089 1319.12116385 C105.93328377 1315.84461207 105.03738864 1312.56807342 104.14149475 1309.29153442 C103.78287339 1307.97995315 103.42425211 1306.66837186 103.06563091 1305.35679054 C102.8881275 1304.70760949 102.71062409 1304.05842844 102.52774179 1303.38957524 C101.99023096 1301.42373198 101.45272817 1299.45788652 100.91522694 1297.49204063 C98.57805354 1288.94416226 96.24054159 1280.39637652 93.90285218 1271.84863925 C83.93173163 1235.38918259 73.96339724 1198.92896249 64.01064014 1162.46448803 C62.05347989 1155.29399053 60.09582472 1148.12362931 58.13656616 1140.95370483 C35.09554228 1056.62952723 35.09554228 1056.62952723 25.84082031 1016.53253174 C25.13392209 1013.47847989 24.41965466 1010.42617005 23.70559978 1007.37378502 C10.98470253 952.95084972 10.98470253 952.95084972 7.0625 925.875 C6.85435872 924.48815445 6.64536662 923.10143635 6.43554688 921.71484375 C5.94884048 918.47768028 5.47001216 915.23962066 5 912 C4.67 912 4.34 912 4 912 C4 1921.8 4 2931.6 4 3972 C338.62 3972 673.24 3972 1018 3972 C1018 2957.25 1018 1942.5 1018 897 C1017.67 897 1017.34 897 1017 897 Z M173 1449 C173.72153765 1453.32922587 174.55941107 1456.96703943 175.81640625 1461.10546875 C179.21903444 1473.22508864 180.3486576 1485.85944484 181.9375 1498.3125 C182.19966178 1500.33034558 182.46339398 1502.34798155 182.72731495 1504.36559772 C185.04153161 1522.06434262 187.21727226 1539.77892527 189.27709961 1557.5090332 C190.64863445 1569.28279649 192.19090134 1581.02596103 193.81332397 1592.76754761 C195.64533593 1606.05227395 197.25719995 1619.35658272 198.8125 1632.67626953 C200.25058182 1644.9696221 201.80559797 1657.23941279 203.5 1669.5 C205.44003127 1683.537945 207.16827556 1697.59260001 208.81149292 1711.66821289 C210.35900114 1724.90023498 212.05902747 1738.10329372 213.87988281 1751.30029297 C215.47621777 1762.88731249 216.91015414 1774.4842023 218.24102783 1786.10449219 C219.50250271 1797.09011443 220.9261375 1808.04610963 222.4375 1819 C224.27467376 1832.31739323 225.94116772 1845.64722012 227.5 1859 C229.03960222 1872.1860136 230.6825937 1885.34936159 232.5 1898.5 C234.44040257 1912.5406317 236.16862331 1926.59800679 237.8125 1940.67626953 C239.33872957 1953.7231476 241.01264714 1966.74128182 242.81149292 1979.75317383 C244.66957677 1993.22186832 246.30145555 2006.71127968 247.87988281 2020.21533203 C249.14166225 2030.99514734 250.469573 2041.7545146 252 2052.5 C253.65893049 2064.14773847 255.07167918 2075.81487753 256.4375 2087.5 C257.99837615 2100.85256421 259.65899331 2114.18313845 261.5 2127.5 C263.44057921 2141.54060558 265.1686238 2155.59801098 266.8125 2169.67626953 C268.33872957 2182.7231476 270.01264714 2195.74128182 271.81149292 2208.75317383 C273.66957677 2222.22186832 275.30145555 2235.71127968 276.87988281 2249.21533203 C278.14166225 2259.99514734 279.469573 2270.7545146 281 2281.5 C282.65893049 2293.14773847 284.07167918 2304.81487753 285.4375 2316.5 C286.99837615 2329.85256421 288.65899331 2343.18313845 290.5 2356.5 C292.44057921 2370.54060558 294.1686238 2384.59801098 295.8125 2398.67626953 C297.33872957 2411.7231476 299.01264714 2424.74128182 300.81149292 2437.75317383 C302.66957677 2451.22186832 304.30145555 2464.71127968 305.87988281 2478.21533203 C307.14166225 2488.99514734 308.469573 2499.7545146 310 2510.5 C311.65893294 2522.14775563 313.07120788 2533.81492171 314.4375 2545.5 C316.47526103 2562.9097761 318.73331983 2580.2802629 321.12664795 2597.64440918 C322.08424209 2604.59353954 323.01359698 2611.54631335 323.9375 2618.5 C324.09428223 2619.6741748 324.25106445 2620.84834961 324.41259766 2622.05810547 C325.29553981 2628.67536826 326.17021498 2635.29361637 327.03596497 2641.91314697 C329.56759463 2661.25522746 332.14574713 2680.57462867 335.24145508 2699.83544922 C336.84495816 2709.84125642 338.26243356 2719.86516551 339.56884766 2729.9140625 C340.33219106 2735.66079015 341.23151347 2741.34446007 342.33984375 2747.03515625 C344.77808351 2759.59921052 346.53538856 2772.28397915 348.4375 2784.9375 C351.20772608 2803.30583541 354.02550762 2821.66357231 357 2840 C357.19536346 2841.20687469 357.39072693 2842.41374939 357.5920105 2843.65719604 C359.13570963 2853.18960058 360.68934445 2862.72035741 362.25 2872.25 C362.36927353 2872.97854942 362.48854706 2873.70709885 362.61143494 2874.45772552 C366.14885641 2896.05684919 369.81490775 2917.62743145 373.69976807 2939.16712952 C373.85556335 2940.03107834 374.01135864 2940.89502716 374.171875 2941.78515625 C374.40194244 2943.06035378 374.40194244 2943.06035378 374.63665771 2944.36131287 C376.17180374 2952.8998865 377.6227286 2961.45225794 379.06790161 2970.00643921 C385.27463032 3006.72209545 392.16434049 3043.30007069 399.23892212 3079.85728455 C400.49219201 3086.34297985 401.72886221 3092.83151905 402.9453125 3099.32421875 C403.09371078 3100.11618652 403.24210907 3100.9081543 403.39500427 3101.72412109 C403.68495512 3103.27218916 403.97486789 3104.82026436 404.26473999 3106.36834717 C406.89493123 3120.40805853 409.67299372 3134.41102315 412.60424805 3148.39111328 C413.97484495 3154.94493198 415.29514018 3161.50141518 416.5078125 3168.0859375 C417.88293813 3175.53313841 419.47358486 3182.92216233 421.125 3190.3125 C423.79542289 3202.35796812 426.35729679 3214.42362446 428.86672974 3226.50360107 C434.36806981 3252.97462702 439.94927328 3279.4239316 446.63671875 3305.625 C447.97872435 3310.88331652 449.25083545 3316.15644268 450.5 3321.4375 C450.80115723 3322.71016724 450.80115723 3322.71016724 451.10839844 3324.00854492 C451.52176606 3325.75615677 451.93501256 3327.50379727 452.34814453 3329.25146484 C453.78360866 3335.30406977 455.24057657 3341.35154442 456.69482422 3347.3996582 C457.99401561 3352.80407801 459.28882918 3358.20946673 460.57421875 3363.6171875 C462.94274993 3373.56739144 465.32514011 3383.50230695 468.015625 3393.37109375 C468.73033395 3396.00587397 469.42847322 3398.64168964 470.109375 3401.28515625 C472.94038643 3412.25386444 476.03983413 3423.12918523 479.23828125 3433.99609375 C480.8976546 3439.63469701 482.5172383 3445.28399867 484.125 3450.9375 C485.08214747 3454.29200615 486.0407417 3457.64609691 487 3461 C487.19239258 3461.67385742 487.38478516 3462.34771484 487.58300781 3463.04199219 C490.97187657 3474.86992666 494.66233465 3486.60460099 498.34667969 3498.34301758 C498.55395187 3499.00346069 498.76122406 3499.66390381 498.97477722 3500.34436035 C499.39101102 3501.6699948 499.80760821 3502.99551519 500.2245636 3504.32092285 C501.46751458 3508.27800501 502.67773261 3512.24375338 503.875 3516.21484375 C506.67426487 3525.32135721 509.807067 3534.31565156 512.9375 3543.3125 C513.26436798 3544.25253876 513.59123596 3545.19257751 513.92800903 3546.16110229 C520.04306488 3563.69214121 526.71843594 3580.92256296 534 3598 C534.37672852 3598.8878418 534.75345703 3599.77568359 535.14160156 3600.69042969 C537.3381722 3605.83674084 539.64159245 3610.92613936 542 3616 C542.42571289 3616.9276416 542.85142578 3617.8552832 543.29003906 3618.81103516 C564.12749231 3664.90975381 564.12749231 3664.90975381 601.3984375 3697.1484375 C607.83973009 3699.25684859 613.79771735 3698.86665058 620 3696.1875 C651.5873908 3678.15179736 666.62617019 3628.21811279 676 3596 C676.31807617 3594.92443848 676.31807617 3594.92443848 676.64257812 3593.82714844 C679.33274021 3584.57092872 680.95658714 3575.10707557 682.625 3565.625 C682.93473755 3563.86978027 682.93473755 3563.86978027 683.25073242 3562.07910156 C684.89007798 3552.42021878 686.00825712 3542.74187105 687 3533 C687.10970123 3531.95857849 687.10970123 3531.95857849 687.22161865 3530.89611816 C693.72882319 3468.86285805 690.1457352 3405.65675854 687.12128448 3343.50094604 C686.9542838 3340.05730936 686.78969922 3336.61355852 686.62501717 3333.1698103 C685.16687294 3302.69383229 683.63548142 3272.22185809 681.9453125 3241.7578125 C681.9052603 3241.03501665 681.86520809 3240.3122208 681.82394218 3239.56752205 C681.08412734 3226.24661047 680.28340935 3212.92955998 679.46484375 3199.61328125 C679.38862793 3198.36192383 679.31241211 3197.11056641 679.23388672 3195.82128906 C679.07683599 3193.25536219 678.91696549 3190.68960648 678.75439453 3188.12402344 C677.97549011 3175.63233067 677.48833298 3163.13090236 677 3150.625 C676.83481043 3146.40879437 676.66828184 3142.19264586 676.5 3137.9765625 C676.45870468 3136.93745224 676.41740936 3135.89834198 676.37486267 3134.82774353 C676.16567085 3129.67449095 675.92807817 3124.52546084 675.62815857 3119.37672424 C674.68953795 3103.16358906 674.3479889 3086.92084401 673.9375 3070.6875 C673.90439476 3069.38207685 673.90439476 3069.38207685 673.87062073 3068.05028152 C672.32861163 3006.69943282 671.99051499 2945.30991557 675 2884 C675.11915312 2881.51628444 675.23812518 2879.03256019 675.35693359 2876.54882812 C677.32268337 2835.73037363 677.32268337 2835.73037363 678.44897461 2819.35864258 C680.29414818 2792.26919774 681.25531326 2765.13729847 682.31442344 2738.00827277 C682.50589267 2733.11175174 682.70099834 2728.21538538 682.89819336 2723.3190918 C684.59611555 2681.2471589 684.59611555 2681.2471589 685.68080139 2639.15568542 C685.84231487 2630.55685045 686.10729145 2621.97079339 686.48291016 2613.37841797 C687.02802 2600.89711285 687.37264001 2588.41482092 687.68359375 2575.92578125 C687.7437995 2573.56815097 687.80420411 2571.21052577 687.86479187 2568.85290527 C687.9919891 2563.89297868 688.1181594 2558.93302761 688.24346924 2553.97305298 C688.5698378 2541.06523434 688.90433982 2528.15762452 689.23828125 2515.25 C689.28759167 2513.34112472 689.28759167 2513.34112472 689.33789825 2511.39368629 C689.88485818 2490.23070911 690.45206824 2469.06843855 691.06456375 2447.90725327 C691.12394105 2445.84920385 691.18266095 2443.79113671 691.24118042 2441.73306274 C691.62610604 2428.25374937 692.07535531 2414.7815433 692.6618042 2401.3094635 C692.99909893 2393.41483015 693.1899155 2385.52399993 693.33102417 2377.62384033 C693.76802358 2354.03436326 694.67208925 2330.46085922 695.5381813 2306.88427353 C696.46428852 2281.66808317 697.31076125 2256.45258905 698.00304031 2231.22887421 C698.55127589 2211.25427474 699.17555054 2191.2907074 700.12728882 2171.33044434 C700.80653348 2157.06191163 701.31915181 2142.7935822 701.76019287 2128.51574707 C703.77694524 2063.46288509 706.5125086 1998.43945917 710.24356842 1933.46245575 C711.04300184 1919.52664123 711.72218933 1905.5868424 712.31689453 1891.64086914 C713.4936641 1864.36355291 715.27767676 1837.12556505 717.27562332 1809.89781952 C717.77994242 1803.01167406 718.27687372 1796.12498958 718.7734375 1789.23828125 C718.82769709 1788.48678299 718.88195667 1787.73528473 718.93786049 1786.96101379 C719.82277414 1774.68770266 720.62874995 1762.4107377 721.3911438 1750.12918091 C722.64936144 1729.90604929 724.37211128 1709.74612696 726.29298401 1689.5758667 C726.80206388 1684.20164839 727.27546388 1678.82597265 727.7109375 1673.4453125 C729.76738068 1648.21410401 732.86186018 1623.11668909 736 1598 C736.12177612 1597.02274963 736.24355225 1596.04549927 736.36901855 1595.03863525 C737.15506247 1588.73311498 737.94905552 1582.42864415 738.75 1576.125 C738.85068787 1575.32897369 738.95137573 1574.53294739 739.05511475 1573.71279907 C740.06663326 1565.7402851 741.13858751 1557.79123844 742.50830078 1549.87060547 C743.02829598 1546.83480433 743.50225436 1543.79385923 743.97265625 1540.75 C748.6961198 1511.01515626 754.68459416 1480.62254924 769.14282227 1453.88671875 C770.20681715 1451.89016314 770.20681715 1451.89016314 770 1449 C572.99 1449 375.98 1449 173 1449 Z " fill="#010101" transform="translate(0,0)"/>
<path d="M0 0 C337.26 0 674.52 0 1022 0 C1022 1312.08 1022 2624.16 1022 3976 C684.74 3976 347.48 3976 0 3976 C0 2663.92 0 1351.84 0 0 Z M4 4 C3.75025564 270.52355028 3.75025564 270.52355028 3.52197266 537.04711914 C3.4675293 588.54968262 3.4675293 588.54968262 3.43954468 612.64646912 C3.4194023 630.61647695 3.40580025 648.58647818 3.3953764 666.55649386 C3.38457947 684.89146048 3.36636333 703.22640875 3.34107121 721.56136116 C3.32626031 732.4548855 3.31675132 743.348382 3.31539072 754.24191651 C3.31394848 761.447267 3.30526219 768.65258588 3.29082919 775.85792198 C3.28282724 779.9537579 3.2778271 784.04953178 3.28172374 788.14537513 C3.29552093 804.80751428 2.95866521 821.28890847 1.20499317 837.87671714 C0.03394669 850.00620846 0.79146775 862.44267891 1.58451483 874.56974085 C3.23575738 899.95568831 3.28861219 925.30099859 3.264044 950.7321094 C3.26041986 956.58737953 3.26639301 962.44263619 3.2719462 968.29790369 C3.28313102 980.43926957 3.28504116 992.58062041 3.28172119 1004.72199026 C3.27838653 1017.06846621 3.27952536 1029.41493037 3.28586559 1041.76140525 C3.28626696 1042.54817479 3.28666833 1043.33494434 3.28708186 1044.14555538 C3.28915121 1048.16363481 3.29129018 1052.1817142 3.29345289 1056.19979358 C3.30904837 1085.4509017 3.31491137 1114.70200546 3.31578636 1143.95311737 C3.31670512 1173.58121925 3.32200541 1203.20931565 3.33261681 1232.8374157 C3.33311674 1234.2413909 3.33311674 1234.2413909 3.33362677 1235.67372924 C3.33668291 1244.25192274 3.33978746 1252.83011623 3.34294968 1261.4083097 C3.35087521 1282.91422376 3.35814415 1304.42013802 3.36497664 1325.92605245 C3.36529012 1326.91129621 3.3656036 1327.89653998 3.36592657 1328.91163961 C3.38130493 1377.42892394 3.38922508 1425.94620917 3.39665604 1474.46349525 C3.39927568 1491.53362665 3.40193085 1508.60375803 3.40471697 1525.6738894 C3.40489015 1526.73509044 3.40506333 1527.79629147 3.40524176 1528.88965012 C3.41331452 1578.09034955 3.42650112 1627.29104722 3.4409893 1676.49174513 C3.44193712 1679.71135148 3.44288254 1682.93095783 3.44382735 1686.15056418 C3.44952697 1705.56538495 3.45527974 1724.9802057 3.46109388 1744.39502643 C3.47554409 1792.65554078 3.48935688 1840.91605529 3.50273705 1889.17656994 C3.50319438 1890.82439879 3.50319438 1890.82439879 3.50366095 1892.50551712 C3.523395 1963.62825955 3.54050549 2034.75100232 3.5554142 2105.87374592 C3.55565216 2107.00885392 3.55589013 2108.14396191 3.5561353 2109.31346712 C3.56337315 2143.86534573 3.57041653 2178.41722438 3.57742186 2212.96910303 C3.58517492 2251.20472349 3.59296116 2289.44034394 3.60089111 2327.67596436 C3.60112947 2328.82575917 3.60136782 2329.97555398 3.60161339 2331.16019105 C3.6242722 2440.41169832 3.65228736 2549.66320401 3.68168322 2658.91470965 C3.68292829 2663.54353874 3.68417181 2668.17236783 3.68541526 2672.80119692 C3.69685814 2715.39741377 3.70836383 2757.9936306 3.71994839 2800.5898474 C3.72025643 2801.72254189 3.72056448 2802.85523638 3.72088186 2804.02225495 C3.72181455 2807.45174961 3.72274727 2810.88124428 3.72367998 2814.31073894 C3.74887595 2906.95462365 3.77352423 2999.59850851 3.79781758 3092.24239346 C3.79867482 3095.51098471 3.79953248 3098.77957597 3.80039027 3102.04816723 C3.82825766 3208.24349709 3.85515591 3314.43882713 3.8981703 3501.9424734 C3.89882396 3504.83357371 3.89947816 3507.72467402 3.90013256 3510.61577433 C3.90034674 3511.5621335 3.90056092 3512.50849268 3.90078159 3513.48352941 C3.90117141 3515.20591322 3.90156131 3516.92829703 3.90195131 3518.65068085 C3.93614639 3669.76712023 3.96772796 3820.8835602 4 3972 C338.62 3972 673.24 3972 1018 3972 C1018 2662.56 1018 1353.12 1018 4 C683.38 4 348.76 4 4 4 Z " fill="#F4F4F4" transform="translate(0,0)"/>
<path d="M0 0 C1.18464844 0.00676758 2.36929688 0.01353516 3.58984375 0.02050781 C12.10820247 0.12102632 20.24515785 0.63219967 28.625 2.25 C29.3665332 2.38954102 30.10806641 2.52908203 30.87207031 2.67285156 C71.07080866 10.32279328 108.20963684 29.22856983 144.625 47.25 C143.18113445 50.98945175 141.52219365 54.14871295 139.3125 57.5 C136.19374459 62.30862498 133.33119133 67.19927425 130.625 72.25 C127.20527686 71.67261983 124.39962826 70.82130275 121.30078125 69.2734375 C120.45483398 68.85755371 119.60888672 68.44166992 118.73730469 68.01318359 C117.81336914 67.55508301 116.88943359 67.09698242 115.9375 66.625 C92.72908313 55.3684266 69.33941781 44.48703476 44.56347656 37.12841797 C42.70726984 36.57352998 40.85659078 35.99946927 39.01464844 35.39892578 C26.7419614 31.40141101 14.86674704 30.81136818 2.0625 30.8125 C1.28746124 30.81200653 0.51242249 30.81151306 -0.28610229 30.81100464 C-35.48600231 30.91975435 -68.32101213 45.14763605 -99.5793457 60.18603516 C-100.68882568 60.71632324 -101.79830566 61.24661133 -102.94140625 61.79296875 C-104.41009155 62.5048938 -104.41009155 62.5048938 -105.90844727 63.23120117 C-108.375 64.25 -108.375 64.25 -111.375 64.25 C-113.4086347 60.13118994 -115.4247097 56.00403128 -117.4375 51.875 C-118.01822266 50.699375 -118.59894531 49.52375 -119.19726562 48.3125 C-120.01420898 46.63027344 -120.01420898 46.63027344 -120.84765625 44.9140625 C-121.60961304 43.35872803 -121.60961304 43.35872803 -122.38696289 41.77197266 C-122.71301514 40.93972168 -123.03906738 40.1074707 -123.375 39.25 C-121.75171495 36.00342991 -118.30272645 35.23383768 -115.10546875 33.8359375 C-113.98980782 33.33960815 -113.98980782 33.33960815 -112.85160828 32.83325195 C-110.42502592 31.7566125 -107.99411791 30.69021278 -105.5625 29.625 C-103.89792656 28.89149021 -102.2333758 28.15792897 -100.56884766 27.42431641 C-89.26792244 22.45748488 -77.95890343 17.52652325 -66.375 13.25 C-65.64861328 12.9804248 -64.92222656 12.71084961 -64.17382812 12.43310547 C-43.69765434 4.94588537 -21.85920372 -0.18236965 0 0 Z " fill="#020202" transform="translate(496.375,1125.75)"/>
</svg>
