<?xml version="1.0" encoding="UTF-8"?>
<svg version="1.1" xmlns="http://www.w3.org/2000/svg" width="1006" height="3976">
<path d="M0 0 C331.98 0 663.96 0 1006 0 C1006 1312.08 1006 2624.16 1006 3976 C674.02 3976 342.04 3976 0 3976 C0 2663.92 0 1351.84 0 0 Z M4 4 C4 268.33 4 532.66 4 805 C4.33 805 4.66 805 5 805 C5.08451416 804.43418213 5.16902832 803.86836426 5.25610352 803.28540039 C13.39090239 750.09223288 35.91948006 705.42504 71 665 C71.59941406 664.30003906 72.19882813 663.60007812 72.81640625 662.87890625 C82.51738708 651.63511883 92.59385048 640.59586959 103.8671875 630.9140625 C106.33932036 628.69548172 108.66562178 626.36293331 111 624 C114.53313399 620.42916488 118.13373095 617.03448775 121.94921875 613.76953125 C124.27566583 611.76213977 126.54192686 609.69533362 128.8125 607.625 C133.18285684 603.67628555 137.70303079 599.9537279 142.28125 596.25 C144.92147729 594.06498431 147.4672972 591.80828609 150 589.5 C154.2430147 585.63785433 158.62342866 581.99245691 163.08203125 578.3828125 C166.25417723 575.79243894 169.38034018 573.15306563 172.5 570.5 C177.26892178 566.44965425 182.07912995 562.45647428 186.9296875 558.50390625 C196.50861889 550.69208052 206.05229952 542.84027163 215.46826172 534.83251953 C219.66328182 531.26971596 223.91914278 527.78674425 228.1875 524.3125 C231.88173455 521.27501826 235.52475106 518.17927954 239.16845703 515.08154297 C242.5385099 512.22153062 245.94026308 509.40744267 249.375 506.625 C255.72359178 501.454118 261.88516808 496.07395734 268.05615234 490.69384766 C337.7911174 429.92755934 337.7911174 429.92755934 377 409 C377.64791504 408.65340332 378.29583008 408.30680664 378.96337891 407.94970703 C402.22666921 395.62635668 426.83804287 388.00808577 453 385 C454.68222656 384.80277344 454.68222656 384.80277344 456.3984375 384.6015625 C520.56182068 378.4986186 573.35890713 406.52895076 626 440 C627.95692366 441.23324366 629.91395902 442.46631009 631.87109375 443.69921875 C653.67123628 457.48955242 675.04389965 471.95776474 696 487 C696.70705078 487.50660156 697.41410156 488.01320313 698.14257812 488.53515625 C709.83645959 496.92178137 721.43779696 505.43297376 733 514 C733.56380371 514.41701172 734.12760742 514.83402344 734.70849609 515.26367188 C742.7806106 521.24071399 750.6998504 527.41045869 758.6171875 533.58984375 C761.21632792 535.61668097 763.82148075 537.63413933 766.4453125 539.62890625 C774.14234995 545.48367033 781.61262906 551.57672489 789.05859375 557.74609375 C792.09600766 560.26088007 795.15842322 562.73937335 798.25 565.1875 C803.70988178 569.52953796 809.01206341 574.0543538 814.32226562 578.57666016 C815.97478263 579.97860634 817.63442787 581.37156899 819.296875 582.76171875 C825.77548683 588.18794271 832.08201936 593.75690004 838.28125 599.5 C840.59296482 601.62571478 842.93355862 603.70045051 845.3125 605.75 C848.4414666 608.45962056 851.34970228 611.32654192 854.24609375 614.28125 C855.95327361 615.95421022 857.72592833 617.47147326 859.5625 619 C870.01357077 628.07112356 878.95608956 638.58324317 886.67236328 650.03369141 C888.15125483 652.22401736 889.65063807 654.39947466 891.15234375 656.57421875 C894.45690203 661.36796398 897.73375757 666.1800855 901 671 C901.44875488 671.6614502 901.89750977 672.32290039 902.35986328 673.00439453 C909.47844454 683.51929775 916.27526822 694.22988882 923 705 C923.50370117 705.80646973 924.00740234 706.61293945 924.52636719 707.44384766 C928.37467413 713.61466317 932.19299043 719.80363676 936 726 C936.65129883 727.05864258 937.30259766 728.11728516 937.97363281 729.20800781 C952.12076177 752.23806218 965.77284551 775.48361969 978.1875 799.5 C978.72515991 800.53645157 978.72515991 800.53645157 979.27368164 801.59384155 C992.34787456 826.8618269 998.03494318 850.82401527 1001 879 C1001.33 879 1001.66 879 1002 879 C1002 590.25 1002 301.5 1002 4 C672.66 4 343.32 4 4 4 Z M4 905 C4 1917.11 4 2929.22 4 3972 C333.34 3972 662.68 3972 1002 3972 C1002 2967.81 1002 1963.62 1002 929 C1001.67 929 1001.34 929 1001 929 C1000.86537354 930.33901367 1000.86537354 930.33901367 1000.72802734 931.70507812 C991.89922809 1017.86008551 963.48152217 1099.29562598 926 1181 C925.01791715 1183.15741008 924.03614275 1185.31496059 923.0546875 1187.47265625 C913.10171554 1209.27361417 902.90140382 1231.02253876 891.58203125 1252.15234375 C888.98006467 1257.01079185 886.45692147 1261.90872429 883.93212891 1266.80761719 C877.14130244 1279.9782609 870.16662132 1293.03057916 863 1306 C862.42137207 1307.05155273 861.84274414 1308.10310547 861.24658203 1309.18652344 C854.09874625 1322.17464088 846.84748233 1335.09000708 839.33813477 1347.87280273 C835.1924186 1354.93357531 831.12104051 1362.03412438 827.07662964 1369.15313721 C820.47913778 1380.76143516 813.70686921 1392.25330443 806.8046875 1403.68359375 C802.01352007 1411.62013636 797.29324561 1419.59855208 792.58496094 1427.58447266 C789.8087595 1432.28748189 787.03200002 1436.98480874 784.1328125 1441.61328125 C783.5147876 1442.60787354 783.5147876 1442.60787354 782.88427734 1443.62255859 C781.86509763 1445.25333389 780.83186175 1446.8753045 779.796875 1448.49609375 C774.92955746 1457.98736295 772.95637524 1468.28508871 771.1171875 1478.70703125 C770.85954815 1480.13030142 770.60126495 1481.55345516 770.34239197 1482.97650146 C769.65133296 1486.79154225 768.97257524 1490.60866712 768.29748917 1494.42656326 C767.87097685 1496.83522008 767.44155169 1499.24334125 767.01132202 1501.65133667 C752.65999704 1582.03518692 741.23002461 1662.87415923 709.04077148 2002.04223633 C708.9564801 2003.26249539 708.87218872 2004.48275446 708.78534305 2005.73999107 C707.01295284 2031.4564735 705.36877535 2057.17951622 703.81640625 2082.91015625 C703.74511631 2084.08851335 703.67382637 2085.26687045 703.60037613 2086.48093534 C699.32354551 2157.2230228 695.68785901 2228.00050997 692.02039618 2298.7762707 C691.29563982 2312.76162327 690.56647829 2326.74674008 689.83398438 2340.73168945 C685.79076056 2417.93693982 681.82431745 2495.14482387 678.19289923 2572.37067619 C678.08351032 2574.69513301 677.97388222 2577.01957842 677.86416245 2579.34401965 C675.22129277 2635.33951619 672.9438094 2691.34358685 671.08753204 2747.37112427 C670.97805408 2750.65910833 670.86634567 2753.94701429 670.7545023 2757.23491859 C670.12554609 2775.75484466 669.60530132 2794.27560861 669.17255878 2812.80113411 C669.05570218 2817.76652051 668.92950002 2822.73158838 668.79756451 2827.69659615 C668.44910066 2840.81771003 668.14479349 2853.93953256 667.875 2867.0625 C667.85238224 2868.16108589 667.82976448 2869.25967178 667.80646133 2870.39154816 C667.04077928 2908.37073956 666.94027915 2946.34411911 666.97690868 2984.32997251 C666.98046971 2988.03224685 666.9835741 2991.73452138 666.98661041 2995.43679619 C667.00701825 3019.17979386 667.0398327 3042.92269396 667.12470287 3066.66555679 C667.15858389 3076.26084572 667.18222997 3085.85612827 667.19911915 3095.45146191 C667.20963735 3101.06219762 667.22563638 3106.67278302 667.25636864 3112.28344727 C667.67568273 3190.34207459 666.50149812 3300.5527614 607.86328125 3360.16796875 C606.91028768 3361.1134263 605.95596732 3362.05754936 605 3363 C604.25105469 3363.75925781 603.50210938 3364.51851562 602.73046875 3365.30078125 C587.54551774 3379.80959344 568.86018981 3384.55442901 548.4140625 3384.28125 C541.20122255 3384.02896459 534.8093293 3382.42567493 528 3380 C526.94425781 3379.62617188 525.88851562 3379.25234375 524.80078125 3378.8671875 C519.51034162 3376.82146052 515.44182702 3374.58009593 511 3371.0625 C505.01261082 3367.1330112 500.42252579 3367.9562062 493.66870117 3368.9230957 C475.6342884 3371.4679499 455.94890539 3371.41464937 438 3368 C436.80600586 3367.77401123 436.80600586 3367.77401123 435.58789062 3367.54345703 C404.13289467 3361.32769189 373.61845355 3346.12550244 353 3321 C352.48695313 3320.44699219 351.97390625 3319.89398437 351.4453125 3319.32421875 C340.68043627 3307.70948387 332.40631437 3293.98662393 325.07128906 3280.03271484 C324.13606558 3278.2581773 323.17559533 3276.49699149 322.2109375 3274.73828125 C311.27436423 3254.08318908 304.0838445 3231.48243045 298 3209 C297.72849121 3208.00613281 297.45698242 3207.01226563 297.17724609 3205.98828125 C285.95564192 3164.45656278 280.78619022 3121.75615758 277 3079 C276.89059082 3077.7840918 276.78118164 3076.56818359 276.66845703 3075.31542969 C275.93398494 3066.88572132 275.42286955 3058.45056337 275 3050 C274.95617187 3049.13953064 274.91234375 3048.27906128 274.8671875 3047.39251709 C271.5128433 2980.66814695 272.22236337 2913.73317697 275 2847 C275.03125977 2846.24706161 275.06251953 2845.49412323 275.09472656 2844.71836853 C279.16863833 2746.99656737 286.66350054 2649.44167101 296.12240714 2526.6849575 C296.50121462 2521.83673833 296.87861914 2516.98841174 297.25514221 2512.14001465 C297.41352788 2510.10125494 297.57192242 2508.06249593 297.73031747 2506.02373695 C297.83484789 2504.67813132 297.93935109 2503.33252357 298.0438267 2501.98691368 C298.70234784 2493.50779157 299.3704195 2485.02949724 300.04762173 2476.55184746 C300.43092664 2471.73029203 300.80645376 2466.90815258 301.18002892 2462.0858345 C301.35418317 2459.86001334 301.53168819 2457.6344513 301.71286964 2455.40919113 C301.96083328 2452.35951498 302.19684646 2449.30912657 302.43017578 2446.25830078 C302.50381001 2445.38942608 302.57744425 2444.52055138 302.65330982 2443.62534714 C303.63001604 2430.36214397 301.14455528 2417.15630306 299.31396484 2404.05444336 C299.03507028 2402.04066205 298.7564733 2400.02683951 298.47814751 2398.01297951 C297.87660848 2393.66490762 297.27305807 2389.31712141 296.66794586 2384.96954536 C295.69282681 2377.96314556 294.72239074 2370.95610178 293.75262451 2363.94895935 C292.35831041 2353.87686865 290.96219287 2343.80502948 289.56500244 2333.7333374 C285.96339924 2307.76757794 282.37773415 2281.79961366 278.79373401 2255.83141947 C278.51496093 2253.8115948 278.23616113 2251.79177382 277.95735598 2249.77195358 C267.56383028 2174.47337359 257.37527585 2099.1482523 247.3713398 2023.79695034 C246.99345851 2020.95072917 246.61549754 2018.1045186 246.23753357 2015.25830841 C233.01542003 1915.68066133 219.98302003 1816.07885533 186.625 1547.9375 C186.51692001 1547.04737512 186.40884002 1546.15725024 186.29748487 1545.24015188 C184.94833739 1534.12883415 183.60229816 1523.01714584 182.26074028 1511.90490913 C181.86555441 1508.63174611 181.46963587 1505.35867305 181.07307625 1502.08567619 C178.93922373 1484.46837789 176.85493203 1466.84706447 174.88041139 1449.21113622 C174.5792075 1446.5266522 174.27602936 1443.84239944 173.97202873 1441.15823078 C173.87294248 1440.28334891 173.77385622 1439.40846703 173.67176735 1438.50707358 C173.47351538 1436.75739666 173.27515528 1435.00773198 173.07668483 1433.25807983 C172.59959441 1429.04272909 172.12859022 1424.82687875 171.67189407 1420.60926628 C169.28885035 1396.90352464 169.28885035 1396.90352464 163 1374 C162.57433243 1372.80482758 162.14866486 1371.60965515 161.71009827 1370.37826538 C160.53426205 1367.12099472 159.28301281 1363.9039866 158 1360.6875 C157.29170044 1358.90110107 157.29170044 1358.90110107 156.5690918 1357.07861328 C151.77647336 1345.10964586 146.34861888 1333.4486148 140.80810547 1321.81054688 C138.85363785 1317.70059602 136.92829644 1313.57722383 135.00390625 1309.453125 C128.77448291 1296.11711497 122.49761436 1282.81868992 115.85742188 1269.6809082 C112.314708 1262.66630825 108.90801903 1255.59330143 105.53686523 1248.49487305 C102.74327824 1242.62158835 99.91586071 1236.76634683 97.0546875 1230.92578125 C87.35032413 1211.10441387 77.93810227 1191.17946707 69 1171 C68.47647949 1169.82050781 67.95295898 1168.64101562 67.41357422 1167.42578125 C58.85818062 1148.03171292 51.59058614 1128.63339669 46.9140625 1107.9296875 C46.30222323 1105.26528184 45.68919991 1102.60117939 45.07421875 1099.9375 C44.82966918 1098.87642438 44.82966918 1098.87642438 44.58017921 1097.79391289 C42.6734795 1089.54489695 40.68383173 1081.31600046 38.69558716 1073.08633423 C37.58061235 1068.46841155 36.47038806 1063.84934586 35.359375 1059.23046875 C33.99915573 1053.57567625 32.63706635 1047.92136223 31.26660156 1042.26904297 C26.21093652 1021.40667782 21.35719081 1000.52351442 17.05078125 979.4921875 C16.86808811 978.60402218 16.68539497 977.71585686 16.49716568 976.80077744 C11.62881732 953.03637483 7.89138226 929.08198348 5 905 C4.67 905 4.34 905 4 905 Z " fill="#FEFEFE" transform="translate(0,0)"/>
<path d="M0 0 C177.87 0 355.74 0 539 0 C534.58117247 26.5129652 534.58117247 26.5129652 532.3125 37.6875 C529.40067005 52.41577361 526.83894526 67.20132786 524.3125 82 C524.02422836 83.6750209 524.02422836 83.6750209 523.73013306 85.38388062 C521.5798933 97.89979143 519.62660153 110.40542372 518.05944824 123.00814819 C517.36505438 128.49826722 516.52997163 133.92296278 515.45703125 139.3515625 C513.97538227 146.88592566 512.93456791 154.42760658 511.98022461 162.04241943 C511.46023438 166.18596959 510.92381236 170.32738702 510.38671875 174.46875 C510.27496307 175.33144501 510.1632074 176.19414001 510.04806519 177.08297729 C508.90848522 185.81496451 507.64938138 194.52866453 506.38223267 203.2428894 C499.71822481 249.13223178 493.88940496 295.28842515 490.02490234 341.50170898 C489.34884083 349.54131268 488.51429202 357.55434567 487.63671875 365.57421875 C485.80124242 382.44205096 484.25450762 399.33429372 482.72757721 416.23236847 C482.49694791 418.78376454 482.26558466 421.33509329 482.03411865 423.88641357 C480.29058779 443.12378568 478.55472765 462.36124912 477.125 481.625 C477.06965088 482.36665405 477.01430176 483.10830811 476.95727539 483.87243652 C476.30545584 492.70112647 475.78519251 501.53193221 475.38601685 510.37564087 C475.21186179 513.98528061 474.96387101 517.5486899 474.49609375 521.13305664 C474.03649333 524.71554237 473.75930969 528.24211222 473.5703125 531.84765625 C473.4631189 533.80590332 473.4631189 533.80590332 473.35375977 535.80371094 C473.31678986 536.49428589 473.27981995 537.18486084 473.24172974 537.8963623 C472.57621786 550.24617485 471.75187014 562.57386234 470.75259399 574.90097046 C468.8420256 598.51024659 467.59332506 622.15133557 466.33203125 645.80273438 C465.92005446 653.51605275 465.49286989 661.228462 465.05422974 668.94030762 C464.9460877 670.84847023 464.8400198 672.75675009 464.73413086 674.66503906 C464.39187954 680.70191585 464.02344506 686.7347322 463.59133911 692.76582336 C462.06898327 714.24570415 461.03714726 735.74321677 460.02368355 757.25213051 C459.48483182 768.68329318 458.93338228 780.11385399 458.38232422 791.54443359 C458.32557042 792.72300371 458.26881662 793.90157383 458.210343 795.1158582 C456.96824078 820.88873554 455.65404661 846.65770568 454.31640625 872.42578125 C454.26057924 873.50178557 454.20475223 874.5777899 454.14723349 875.68640041 C453.46373358 888.85809005 452.77747482 902.02963495 452.08993328 915.20111418 C451.48765808 926.74137985 450.88806968 938.28178483 450.28840661 949.82218647 C448.23078618 989.41501289 446.16795137 1029.00754846 444.05859375 1068.59765625 C443.9888566 1069.90683895 443.91911945 1071.21602165 443.84726906 1072.56487656 C443.71131771 1075.11703697 443.57536356 1077.66919724 443.43940639 1080.22135735 C440.20459582 1140.95106318 437.23443007 1201.65824427 435.64550781 1262.45629883 C435.60855165 1263.84811002 435.57155493 1265.23992015 435.53451538 1266.63172913 C435.46779632 1269.16335319 435.40328222 1271.69503703 435.34170532 1274.22679138 C435.19598518 1279.7692938 434.99455381 1285.29779227 434.64954567 1290.83180046 C433.80565828 1304.48806601 433.59963256 1318.16241314 433.32575035 1331.83942461 C433.24993977 1335.58671685 433.17025275 1339.33392673 433.09094238 1343.08114624 C432.9410813 1350.18577813 432.79407295 1357.29046554 432.64837503 1364.39518392 C432.3890853 1377.03874327 432.12656907 1389.68223457 431.86051702 1402.32565343 C431.76792631 1406.73207035 431.67708999 1411.1385184 431.58777255 1415.54500282 C431.51753662 1418.99438557 431.44537067 1422.44372691 431.37304688 1425.89306641 C431.35202772 1426.91155068 431.35202772 1426.91155068 431.33058393 1427.9506104 C431.18225992 1435.06853911 431.00521791 1442.1833173 430.7311554 1449.29779053 C429.83765373 1472.7410958 429.92741719 1496.16516367 430.01653099 1519.62246704 C430.04494408 1527.23291777 430.06155448 1534.84336895 430.07600403 1542.45385742 C430.0811454 1545.08692935 430.08630203 1547.72000125 430.09147358 1550.35307312 C430.09405914 1551.67010412 430.0966447 1552.98713512 430.09930861 1554.34407616 C430.11280552 1561.09852817 430.12809496 1567.85297582 430.14428711 1574.60742188 C430.14670922 1575.62006908 430.14670922 1575.62006908 430.14918027 1576.6531738 C430.17561106 1587.54717855 430.21339314 1598.44112038 430.25447568 1609.33507836 C430.29678225 1620.65451815 430.32253277 1631.9739079 430.33568364 1643.29342556 C430.34361271 1649.59465282 430.3584683 1655.89566238 430.39235497 1662.19680786 C430.77949935 1736.35011101 430.77949935 1736.35011101 424 1769 C423.60053721 1771.54109877 423.20462624 1774.08275877 422.8125 1776.625 C417.62925854 1807.85471541 411.08271148 1840.31120807 395 1868 C394.67435059 1868.57153809 394.34870117 1869.14307617 394.01318359 1869.73193359 C385.28528481 1884.97064912 374.41421795 1899.28493658 357.26953125 1905.2421875 C342.08585986 1908.76146139 329.13635298 1904.42226618 316 1897 C312.79920683 1894.86777178 309.8944384 1892.52865773 307 1890 C306.21367188 1889.33355469 305.42734375 1888.66710938 304.6171875 1887.98046875 C286.7934045 1872.47545376 274.2365728 1853.59963466 263 1833 C262.6395459 1832.34241699 262.2790918 1831.68483398 261.90771484 1831.00732422 C248.23390834 1805.74576778 239.49731853 1777.83178816 232.52929688 1750.07128906 C231.73208873 1746.95158709 230.85931504 1743.85308209 230 1740.75 C224.60874888 1720.43576579 220.98292157 1699.71849283 217.35675049 1679.03186035 C217.01572662 1677.08957043 216.67175282 1675.14779914 216.32763672 1673.20605469 C210.83557511 1642.06910492 207.07374168 1610.72850766 203.69921875 1579.30053711 C202.48787767 1568.05503489 202.48787767 1568.05503489 200.96875 1556.84765625 C199.84279666 1549.25541814 199.13512433 1541.63758074 198.42605591 1533.99755859 C196.24873494 1510.6316764 193.68717713 1487.31208643 191 1464 C190.90052063 1463.13308533 190.80104126 1462.26617065 190.69854736 1461.37298584 C188.08112123 1438.5843612 185.03335742 1415.88301654 181.66333008 1393.19360352 C179.5863216 1379.18630007 177.65403527 1365.16511482 175.8125 1351.125 C174.16864828 1338.59975211 172.46090154 1326.09900949 170.46801758 1313.62353516 C168.83724894 1303.27536746 167.51931305 1292.88862599 166.17697144 1282.50003052 C164.90169331 1272.64604849 163.56351992 1262.81331199 162 1253 C160.17250282 1241.52985507 158.66595276 1230.02692725 157.17825317 1218.50900269 C155.75030841 1207.4716217 154.19424999 1196.46895253 152.44702148 1185.47680664 C151.16473563 1177.31487361 150.09184487 1169.13485618 149.0625 1160.9375 C147.70055208 1150.0966106 146.17348221 1139.29677215 144.5 1128.5 C142.62605628 1116.40991429 140.97278004 1104.31161136 139.44921875 1092.171875 C138.4258022 1084.0918363 137.27518662 1076.04396148 136 1068 C134.51997346 1058.66389477 133.23958699 1049.31652914 132.0625 1039.9375 C130.70063188 1029.09659739 129.17336353 1018.29678975 127.5 1007.5 C125.65213822 995.57502237 124.01942206 983.63880055 122.51953125 971.6640625 C121.23803662 961.55563282 119.7386638 951.4920426 118.17825317 941.42404175 C116.41458437 930.02122198 114.88465494 918.60532327 113.44702148 907.15649414 C112.44235017 899.22761402 111.31710814 891.33047777 110.0625 883.4375 C108.34823237 872.64789787 106.8993407 861.83384092 105.5 851 C104.11923967 840.31233748 102.695761 829.64331296 101 819 C99.17250282 807.52985507 97.66595276 796.02692725 96.17825317 784.50900269 C94.75030841 773.4716217 93.19424999 762.46895253 91.44702148 751.47680664 C90.16473563 743.31487361 89.09184487 735.13485618 88.0625 726.9375 C86.70055208 716.0966106 85.17348221 705.29677215 83.5 694.5 C81.62605628 682.40991429 79.97278004 670.31161136 78.44921875 658.171875 C77.4258022 650.0918363 76.27518662 642.04396148 75 634 C73.51997346 624.66389477 72.23958699 615.31652914 71.0625 605.9375 C69.70063188 595.09659739 68.17336353 584.29678975 66.5 573.5 C64.65213822 561.57502237 63.01942206 549.63880055 61.51953125 537.6640625 C60.32614492 528.25063116 58.95275801 518.8758936 57.5 509.5 C55.64831775 497.54950609 54.011296 485.5878448 52.51074219 473.5871582 C51.57366261 466.18432192 50.52372829 458.81376383 49.34765625 451.4453125 C43.28931167 413.352976 39.08984924 374.86731731 35.1875 336.5 C35.0944458 335.58718262 35.0013916 334.67436523 34.90551758 333.73388672 C33.32643006 318.13096425 31.96926578 302.50789953 30.60286808 286.88525677 C26.94489486 245.0680208 23.27759654 203.25430346 18.88160706 161.5071106 C18.15168413 154.54304501 17.46516567 147.57532364 16.79296875 140.60546875 C13.56791885 107.27266272 9.62779953 74.06190227 5.07679749 40.88427734 C3.95170117 32.67750773 2.87137454 24.46554799 1.8125 16.25 C1.6334987 14.87369334 1.45446219 13.49739127 1.27539062 12.12109375 C1.10845703 10.82816406 0.94152344 9.53523438 0.76953125 8.203125 C0.62104736 7.05489258 0.47256348 5.90666016 0.31958008 4.72363281 C0 2 0 2 0 0 Z " fill="#FEFEFE" transform="translate(208,1449)"/>
<path d="M0 0 C331.98 0 663.96 0 1006 0 C1006 1312.08 1006 2624.16 1006 3976 C674.02 3976 342.04 3976 0 3976 C0 2663.92 0 1351.84 0 0 Z M4 4 C4 268.33 4 532.66 4 805 C4.33 805 4.66 805 5 805 C5.08451416 804.43418213 5.16902832 803.86836426 5.25610352 803.28540039 C13.39090239 750.09223288 35.91948006 705.42504 71 665 C71.59941406 664.30003906 72.19882813 663.60007812 72.81640625 662.87890625 C82.51738708 651.63511883 92.59385048 640.59586959 103.8671875 630.9140625 C106.33932036 628.69548172 108.66562178 626.36293331 111 624 C114.53313399 620.42916488 118.13373095 617.03448775 121.94921875 613.76953125 C124.27566583 611.76213977 126.54192686 609.69533362 128.8125 607.625 C133.18285684 603.67628555 137.70303079 599.9537279 142.28125 596.25 C144.92147729 594.06498431 147.4672972 591.80828609 150 589.5 C154.2430147 585.63785433 158.62342866 581.99245691 163.08203125 578.3828125 C166.25417723 575.79243894 169.38034018 573.15306563 172.5 570.5 C177.26892178 566.44965425 182.07912995 562.45647428 186.9296875 558.50390625 C196.50861889 550.69208052 206.05229952 542.84027163 215.46826172 534.83251953 C219.66328182 531.26971596 223.91914278 527.78674425 228.1875 524.3125 C231.88173455 521.27501826 235.52475106 518.17927954 239.16845703 515.08154297 C242.5385099 512.22153062 245.94026308 509.40744267 249.375 506.625 C255.72359178 501.454118 261.88516808 496.07395734 268.05615234 490.69384766 C337.7911174 429.92755934 337.7911174 429.92755934 377 409 C377.64791504 408.65340332 378.29583008 408.30680664 378.96337891 407.94970703 C402.22666921 395.62635668 426.83804287 388.00808577 453 385 C454.68222656 384.80277344 454.68222656 384.80277344 456.3984375 384.6015625 C520.56182068 378.4986186 573.35890713 406.52895076 626 440 C627.95692366 441.23324366 629.91395902 442.46631009 631.87109375 443.69921875 C653.67123628 457.48955242 675.04389965 471.95776474 696 487 C696.70705078 487.50660156 697.41410156 488.01320313 698.14257812 488.53515625 C709.83645959 496.92178137 721.43779696 505.43297376 733 514 C733.56380371 514.41701172 734.12760742 514.83402344 734.70849609 515.26367188 C742.7806106 521.24071399 750.6998504 527.41045869 758.6171875 533.58984375 C761.21632792 535.61668097 763.82148075 537.63413933 766.4453125 539.62890625 C774.14234995 545.48367033 781.61262906 551.57672489 789.05859375 557.74609375 C792.09600766 560.26088007 795.15842322 562.73937335 798.25 565.1875 C803.70988178 569.52953796 809.01206341 574.0543538 814.32226562 578.57666016 C815.97478263 579.97860634 817.63442787 581.37156899 819.296875 582.76171875 C825.77548683 588.18794271 832.08201936 593.75690004 838.28125 599.5 C840.59296482 601.62571478 842.93355862 603.70045051 845.3125 605.75 C848.4414666 608.45962056 851.34970228 611.32654192 854.24609375 614.28125 C855.95327361 615.95421022 857.72592833 617.47147326 859.5625 619 C870.01357077 628.07112356 878.95608956 638.58324317 886.67236328 650.03369141 C888.15125483 652.22401736 889.65063807 654.39947466 891.15234375 656.57421875 C894.45690203 661.36796398 897.73375757 666.1800855 901 671 C901.44875488 671.6614502 901.89750977 672.32290039 902.35986328 673.00439453 C909.47844454 683.51929775 916.27526822 694.22988882 923 705 C923.50370117 705.80646973 924.00740234 706.61293945 924.52636719 707.44384766 C928.37467413 713.61466317 932.19299043 719.80363676 936 726 C936.65129883 727.05864258 937.30259766 728.11728516 937.97363281 729.20800781 C952.12076177 752.23806218 965.77284551 775.48361969 978.1875 799.5 C978.72515991 800.53645157 978.72515991 800.53645157 979.27368164 801.59384155 C992.34787456 826.8618269 998.03494318 850.82401527 1001 879 C1001.33 879 1001.66 879 1002 879 C1002 590.25 1002 301.5 1002 4 C672.66 4 343.32 4 4 4 Z M441 416 C440.1140918 416.18804199 439.22818359 416.37608398 438.31542969 416.56982422 C411.70497334 422.35490613 387.2083987 434.37630172 365 450 C363.94039063 450.73476563 362.88078125 451.46953125 361.7890625 452.2265625 C347.82451843 461.99103093 334.4466219 472.55847028 321.54003906 483.67773438 C319.43293728 485.48687566 317.31001796 487.27695739 315.18701172 489.06738281 C308.34793764 494.83547475 301.55376793 500.655459 294.76611328 506.48388672 C291.26349055 509.49069999 287.75766627 512.49377971 284.25244141 515.49755859 C281.32218196 518.00885886 278.39270413 520.52105919 275.46484375 523.03515625 C264.99345801 532.02448269 254.50796274 540.98701149 243.80078125 549.6953125 C240.73224213 552.22033075 237.70960188 554.79484769 234.6875 557.375 C230.25148397 561.15792492 225.73399357 564.80532737 221.125 568.375 C215.37972845 572.83051671 209.86904559 577.51143405 204.39941406 582.29980469 C199.91964956 586.2187223 195.35830279 590.01723383 190.734375 593.765625 C185.99214058 597.64070798 181.33684898 601.61826557 176.67041016 605.58398438 C174.99624159 607.00318603 173.31728525 608.41650771 171.63671875 609.828125 C165.75378583 614.77429612 159.9523596 619.78481351 154.26171875 624.953125 C152.19326125 626.8250969 150.10439086 628.6686339 148 630.5 C141.11139559 636.51364054 134.34544153 642.58274415 127.9296875 649.1015625 C126.01454 650.98569547 124.03667772 652.74861565 122 654.5 C115.8170556 659.83596572 110.21421121 665.63050051 104.8984375 671.82421875 C102.73254995 674.30652198 100.49123043 676.71055145 98.25 679.125 C92.97795328 684.91547794 88.12350026 690.97154882 83.37792969 697.19824219 C82.04844 698.93666067 80.70070418 700.65963153 79.3515625 702.3828125 C54.17389774 735.05724973 39.17900295 774.24741722 34 815 C33.82936035 816.29518555 33.6587207 817.59037109 33.48291016 818.92480469 C32.09385706 829.97904677 31.67545763 840.86631829 31.75 852 C31.75343414 852.85082153 31.75686829 853.70164307 31.76040649 854.57824707 C31.82879273 869.13585994 32.45354239 883.51803058 34 898 C34.16852264 899.62579015 34.33679955 901.25160578 34.50488281 902.87744141 C36.61918469 923.15590566 38.93695688 943.22255765 43.38378906 963.13964844 C44.26390519 967.22500525 45.01437778 971.33163333 45.7734375 975.44091797 C49.44383423 995.24973926 54.01903078 1014.87378469 59.2331543 1034.33203125 C63.69766917 1051.01799633 67.34684556 1067.90538947 71.05786133 1084.77124023 C71.86786449 1088.45044864 72.68589459 1092.12779366 73.50961304 1095.80395508 C73.83815735 1097.2752382 74.16416306 1098.74709038 74.48770142 1100.21948242 C76.5855997 1109.74377011 79.0703832 1118.87070912 82.5625 1128 C82.99594727 1129.14879639 83.42939453 1130.29759277 83.87597656 1131.48120117 C88.47987442 1143.51816639 93.62574295 1155.28988578 99 1167 C99.53641113 1168.16901855 100.07282227 1169.33803711 100.62548828 1170.54248047 C110.79678335 1192.65619533 121.39154312 1214.5668727 132.10546875 1236.421875 C190.39736107 1355.33460001 190.39736107 1355.33460001 200.14453125 1404.61328125 C200.42289662 1406.01390681 200.70141927 1407.41450113 200.98010254 1408.81506348 C201.65521263 1412.20968451 202.32820248 1415.60472165 203 1419 C256.24343224 1419.49661947 309.48707474 1419.9582928 362.73219299 1420.22795105 C363.91496668 1420.23395653 363.91496668 1420.23395653 365.12163478 1420.24008334 C382.25977555 1420.32688535 399.39794093 1420.40721951 416.53614303 1420.48089455 C424.94117437 1420.51706611 433.34619905 1420.55466634 441.7512207 1420.59301758 C443.00579647 1420.5987056 443.00579647 1420.5987056 444.28571721 1420.60450853 C471.37734704 1420.72800633 498.46721844 1420.94576737 525.5577837 1421.2126194 C553.40587129 1421.48643391 581.25298655 1421.66473807 609.10239749 1421.72353471 C613.03926114 1421.73189073 616.9761215 1421.74133418 620.91298103 1421.75144005 C621.68778226 1421.75339532 622.46258349 1421.75535058 623.26086354 1421.7573651 C635.71496448 1421.79158708 648.16605169 1421.92594472 660.61892524 1422.09812898 C673.15047617 1422.26925048 685.67905205 1422.33398151 698.21172946 1422.29153994 C705.00005593 1422.27146707 711.77905458 1422.30120311 718.5659008 1422.45695877 C744.44773621 1424.51564001 744.44773621 1424.51564001 767.77942777 1416.17813659 C773.91048965 1409.77496838 777.02770251 1401.8794952 779.72753823 1393.57851255 C781.65588901 1388.15545968 784.60556886 1383.51702187 787.6875 1378.6875 C788.73779262 1376.92545045 789.78282858 1375.16024652 790.8203125 1373.390625 C791.33754883 1372.51470703 791.85478516 1371.63878906 792.38769531 1370.73632812 C810.593876 1339.83764958 828.33569578 1308.67853895 845.33056641 1277.09619141 C847.07195096 1273.86655716 848.82236239 1270.64193354 850.57421875 1267.41796875 C856.39619629 1256.68504752 862.12422548 1245.92776928 867.52636719 1234.97680664 C870.06985313 1229.82640487 872.71492796 1224.74516416 875.4375 1219.6875 C880.9897432 1209.29954981 886.02076154 1198.67213307 891 1188 C891.29731018 1187.36284058 891.59462036 1186.72568115 891.90093994 1186.06921387 C901.76213822 1164.91460023 911.21221795 1143.62344526 920 1122 C920.46712402 1120.85080078 920.93424805 1119.70160156 921.41552734 1118.51757812 C927.18351153 1104.24585546 932.57796314 1089.84903026 937.8125 1075.375 C938.21299561 1074.26893906 938.21299561 1074.26893906 938.62158203 1073.14053345 C944.0136952 1058.21852802 949.28643636 1043.24117358 953.5 1027.9375 C953.93590454 1026.35980835 953.93590454 1026.35980835 954.38061523 1024.75024414 C967.48855073 976.78298004 979.74970746 922.16873906 971.359375 872.23876953 C970.91764264 869.48694501 970.55545474 866.7274854 970.1875 863.96484375 C968.6210835 852.66553425 966.88387613 842.24315717 961.90673828 831.89013672 C960.89245767 829.77582318 959.92869904 827.64165902 958.96484375 825.50390625 C953.8715948 814.34220265 948.09698771 803.63888967 942 793 C941.46133301 792.05302246 940.92266602 791.10604492 940.36767578 790.13037109 C925.89273803 764.68846281 910.60560846 739.762025 895 715 C894.40590332 714.05398926 893.81180664 713.10797852 893.19970703 712.13330078 C882.85541667 695.66993224 872.11673751 679.54463606 860.6875 663.8125 C859.86185547 662.66358276 859.86185547 662.66358276 859.01953125 661.49145508 C855.58757883 656.82126982 851.88974277 652.7069557 847.71020508 648.69042969 C846 647 846 647 844 644.4375 C841.69049881 641.62279543 839.10426026 639.44367076 836.33984375 637.0859375 C833.61875369 634.66012432 831.05710739 632.09538481 828.5 629.5 C824.16301143 625.11663833 819.70485725 620.98414762 815 617 C813.96163952 616.11007468 812.92393631 615.21938215 811.88671875 614.328125 C809.49753761 612.27541484 807.10528366 610.22637016 804.7109375 608.1796875 C802.2917862 606.11029302 799.88061267 604.03222693 797.4765625 601.9453125 C791.25958126 596.55924045 784.96224608 591.32960265 778.46313477 586.28710938 C773.7132137 582.59206744 769.06888959 578.77967724 764.4375 574.9375 C757.41281041 569.11935607 750.26456411 563.51517605 743 558 C740.97853408 556.43831849 738.95771849 554.87579487 736.9375 553.3125 C728.02854178 546.44889582 719.01614657 539.72178267 710 533 C709.19723633 532.40106934 708.39447266 531.80213867 707.56738281 531.18505859 C696.32297651 522.80846197 684.92117851 514.68561279 673.40917969 506.68164062 C668.94754226 503.56735621 664.51198464 500.41580401 660.08154297 497.25732422 C654.13971822 493.04336189 648.07378506 489.02055496 642 485 C641.01741211 484.34854004 640.03482422 483.69708008 639.02246094 483.02587891 C615.5270122 467.48208171 591.70822775 452.55612348 567 439 C566.16388184 438.53867676 565.32776367 438.07735352 564.46630859 437.60205078 C552.9513306 431.27763179 541.25077852 425.75141902 529 421 C528.34580078 420.74347656 527.69160156 420.48695313 527.01757812 420.22265625 C500.74627552 410.10779469 468.30895583 409.92456184 441 416 Z M4 905 C4 1917.11 4 2929.22 4 3972 C333.34 3972 662.68 3972 1002 3972 C1002 2967.81 1002 1963.62 1002 929 C1001.67 929 1001.34 929 1001 929 C1000.86537354 930.33901367 1000.86537354 930.33901367 1000.72802734 931.70507812 C991.89922809 1017.86008551 963.48152217 1099.29562598 926 1181 C925.01791715 1183.15741008 924.03614275 1185.31496059 923.0546875 1187.47265625 C913.10171554 1209.27361417 902.90140382 1231.02253876 891.58203125 1252.15234375 C888.98006467 1257.01079185 886.45692147 1261.90872429 883.93212891 1266.80761719 C877.14130244 1279.9782609 870.16662132 1293.03057916 863 1306 C862.42137207 1307.05155273 861.84274414 1308.10310547 861.24658203 1309.18652344 C854.09874625 1322.17464088 846.84748233 1335.09000708 839.33813477 1347.87280273 C835.1924186 1354.93357531 831.12104051 1362.03412438 827.07662964 1369.15313721 C820.47913778 1380.76143516 813.70686921 1392.25330443 806.8046875 1403.68359375 C802.01352007 1411.62013636 797.29324561 1419.59855208 792.58496094 1427.58447266 C789.8087595 1432.28748189 787.03200002 1436.98480874 784.1328125 1441.61328125 C783.5147876 1442.60787354 783.5147876 1442.60787354 782.88427734 1443.62255859 C781.86509763 1445.25333389 780.83186175 1446.8753045 779.796875 1448.49609375 C774.92955746 1457.98736295 772.95637524 1468.28508871 771.1171875 1478.70703125 C770.85954815 1480.13030142 770.60126495 1481.55345516 770.34239197 1482.97650146 C769.65133296 1486.79154225 768.97257524 1490.60866712 768.29748917 1494.42656326 C767.87097685 1496.83522008 767.44155169 1499.24334125 767.01132202 1501.65133667 C752.65999704 1582.03518692 741.23002461 1662.87415923 709.04077148 2002.04223633 C708.9564801 2003.26249539 708.87218872 2004.48275446 708.78534305 2005.73999107 C707.01295284 2031.4564735 705.36877535 2057.17951622 703.81640625 2082.91015625 C703.74511631 2084.08851335 703.67382637 2085.26687045 703.60037613 2086.48093534 C699.32354551 2157.2230228 695.68785901 2228.00050997 692.02039618 2298.7762707 C691.29563982 2312.76162327 690.56647829 2326.74674008 689.83398438 2340.73168945 C685.79076056 2417.93693982 681.82431745 2495.14482387 678.19289923 2572.37067619 C678.08351032 2574.69513301 677.97388222 2577.01957842 677.86416245 2579.34401965 C675.22129277 2635.33951619 672.9438094 2691.34358685 671.08753204 2747.37112427 C670.97805408 2750.65910833 670.86634567 2753.94701429 670.7545023 2757.23491859 C670.12554609 2775.75484466 669.60530132 2794.27560861 669.17255878 2812.80113411 C669.05570218 2817.76652051 668.92950002 2822.73158838 668.79756451 2827.69659615 C668.44910066 2840.81771003 668.14479349 2853.93953256 667.875 2867.0625 C667.85238224 2868.16108589 667.82976448 2869.25967178 667.80646133 2870.39154816 C667.04077928 2908.37073956 666.94027915 2946.34411911 666.97690868 2984.32997251 C666.98046971 2988.03224685 666.9835741 2991.73452138 666.98661041 2995.43679619 C667.00701825 3019.17979386 667.0398327 3042.92269396 667.12470287 3066.66555679 C667.15858389 3076.26084572 667.18222997 3085.85612827 667.19911915 3095.45146191 C667.20963735 3101.06219762 667.22563638 3106.67278302 667.25636864 3112.28344727 C667.67568273 3190.34207459 666.50149812 3300.5527614 607.86328125 3360.16796875 C606.91028768 3361.1134263 605.95596732 3362.05754936 605 3363 C604.25105469 3363.75925781 603.50210938 3364.51851562 602.73046875 3365.30078125 C587.54551774 3379.80959344 568.86018981 3384.55442901 548.4140625 3384.28125 C541.20122255 3384.02896459 534.8093293 3382.42567493 528 3380 C526.94425781 3379.62617188 525.88851562 3379.25234375 524.80078125 3378.8671875 C519.51034162 3376.82146052 515.44182702 3374.58009593 511 3371.0625 C505.01261082 3367.1330112 500.42252579 3367.9562062 493.66870117 3368.9230957 C475.6342884 3371.4679499 455.94890539 3371.41464937 438 3368 C436.80600586 3367.77401123 436.80600586 3367.77401123 435.58789062 3367.54345703 C404.13289467 3361.32769189 373.61845355 3346.12550244 353 3321 C352.48695313 3320.44699219 351.97390625 3319.89398437 351.4453125 3319.32421875 C340.68043627 3307.70948387 332.40631437 3293.98662393 325.07128906 3280.03271484 C324.13606558 3278.2581773 323.17559533 3276.49699149 322.2109375 3274.73828125 C311.27436423 3254.08318908 304.0838445 3231.48243045 298 3209 C297.72849121 3208.00613281 297.45698242 3207.01226563 297.17724609 3205.98828125 C285.95564192 3164.45656278 280.78619022 3121.75615758 277 3079 C276.89059082 3077.7840918 276.78118164 3076.56818359 276.66845703 3075.31542969 C275.93398494 3066.88572132 275.42286955 3058.45056337 275 3050 C274.95617187 3049.13953064 274.91234375 3048.27906128 274.8671875 3047.39251709 C271.5128433 2980.66814695 272.22236337 2913.73317697 275 2847 C275.03125977 2846.24706161 275.06251953 2845.49412323 275.09472656 2844.71836853 C279.16863833 2746.99656737 286.66350054 2649.44167101 296.12240714 2526.6849575 C296.50121462 2521.83673833 296.87861914 2516.98841174 297.25514221 2512.14001465 C297.41352788 2510.10125494 297.57192242 2508.06249593 297.73031747 2506.02373695 C297.83484789 2504.67813132 297.93935109 2503.33252357 298.0438267 2501.98691368 C298.70234784 2493.50779157 299.3704195 2485.02949724 300.04762173 2476.55184746 C300.43092664 2471.73029203 300.80645376 2466.90815258 301.18002892 2462.0858345 C301.35418317 2459.86001334 301.53168819 2457.6344513 301.71286964 2455.40919113 C301.96083328 2452.35951498 302.19684646 2449.30912657 302.43017578 2446.25830078 C302.50381001 2445.38942608 302.57744425 2444.52055138 302.65330982 2443.62534714 C303.63001604 2430.36214397 301.14455528 2417.15630306 299.31396484 2404.05444336 C299.03507028 2402.04066205 298.7564733 2400.02683951 298.47814751 2398.01297951 C297.87660848 2393.66490762 297.27305807 2389.31712141 296.66794586 2384.96954536 C295.69282681 2377.96314556 294.72239074 2370.95610178 293.75262451 2363.94895935 C292.35831041 2353.87686865 290.96219287 2343.80502948 289.56500244 2333.7333374 C285.96339924 2307.76757794 282.37773415 2281.79961366 278.79373401 2255.83141947 C278.51496093 2253.8115948 278.23616113 2251.79177382 277.95735598 2249.77195358 C267.56383028 2174.47337359 257.37527585 2099.1482523 247.3713398 2023.79695034 C246.99345851 2020.95072917 246.61549754 2018.1045186 246.23753357 2015.25830841 C233.01542003 1915.68066133 219.98302003 1816.07885533 186.625 1547.9375 C186.51692001 1547.04737512 186.40884002 1546.15725024 186.29748487 1545.24015188 C184.94833739 1534.12883415 183.60229816 1523.01714584 182.26074028 1511.90490913 C181.86555441 1508.63174611 181.46963587 1505.35867305 181.07307625 1502.08567619 C178.93922373 1484.46837789 176.85493203 1466.84706447 174.88041139 1449.21113622 C174.5792075 1446.5266522 174.27602936 1443.84239944 173.97202873 1441.15823078 C173.87294248 1440.28334891 173.77385622 1439.40846703 173.67176735 1438.50707358 C173.47351538 1436.75739666 173.27515528 1435.00773198 173.07668483 1433.25807983 C172.59959441 1429.04272909 172.12859022 1424.82687875 171.67189407 1420.60926628 C169.28885035 1396.90352464 169.28885035 1396.90352464 163 1374 C162.57433243 1372.80482758 162.14866486 1371.60965515 161.71009827 1370.37826538 C160.53426205 1367.12099472 159.28301281 1363.9039866 158 1360.6875 C157.29170044 1358.90110107 157.29170044 1358.90110107 156.5690918 1357.07861328 C151.77647336 1345.10964586 146.34861888 1333.4486148 140.80810547 1321.81054688 C138.85363785 1317.70059602 136.92829644 1313.57722383 135.00390625 1309.453125 C128.77448291 1296.11711497 122.49761436 1282.81868992 115.85742188 1269.6809082 C112.314708 1262.66630825 108.90801903 1255.59330143 105.53686523 1248.49487305 C102.74327824 1242.62158835 99.91586071 1236.76634683 97.0546875 1230.92578125 C87.35032413 1211.10441387 77.93810227 1191.17946707 69 1171 C68.47647949 1169.82050781 67.95295898 1168.64101562 67.41357422 1167.42578125 C58.85818062 1148.03171292 51.59058614 1128.63339669 46.9140625 1107.9296875 C46.30222323 1105.26528184 45.68919991 1102.60117939 45.07421875 1099.9375 C44.82966918 1098.87642438 44.82966918 1098.87642438 44.58017921 1097.79391289 C42.6734795 1089.54489695 40.68383173 1081.31600046 38.69558716 1073.08633423 C37.58061235 1068.46841155 36.47038806 1063.84934586 35.359375 1059.23046875 C33.99915573 1053.57567625 32.63706635 1047.92136223 31.26660156 1042.26904297 C26.21093652 1021.40667782 21.35719081 1000.52351442 17.05078125 979.4921875 C16.86808811 978.60402218 16.68539497 977.71585686 16.49716568 976.80077744 C11.62881732 953.03637483 7.89138226 929.08198348 5 905 C4.67 905 4.34 905 4 905 Z M208 1449 C210.30742269 1469.13425236 210.30742269 1469.13425236 213.25 1489.08496094 C214.85178488 1499.21447747 215.85878386 1509.43578246 217 1519.625 C217.37404621 1522.93248413 217.74928862 1526.23983037 218.12492371 1529.5471344 C218.37595754 1531.7587465 218.62620581 1533.9704479 218.87568665 1536.18223572 C219.58719864 1542.46783176 220.33283807 1548.7479733 221.10896301 1555.02589417 C223.04954462 1570.78575698 224.58218167 1586.58093942 226.09230042 1602.38638687 C226.46870652 1606.31987761 226.84826473 1610.25306427 227.22753906 1614.1862793 C227.69465718 1619.03248644 228.16143097 1623.87872579 228.62667847 1628.72511292 C229.56937721 1638.54396584 230.52023486 1648.36197971 231.48031998 1658.17914772 C236.03092559 1704.7133536 236.03092559 1704.7133536 237.5625 1723.125 C241.88553303 1774.96640491 247.11555446 1826.76315715 254.125 1878.3125 C254.28908356 1879.51987823 254.45316711 1880.72725647 254.6222229 1881.97122192 C256.48412515 1895.6065983 258.47601008 1909.21622233 260.59585571 1922.813797 C261.93188288 1931.43105241 263.11328274 1940.06077043 264.20947266 1948.71142578 C265.66339155 1960.164397 267.1833719 1971.59807405 269 1983 C270.82749718 1994.47014493 272.33404724 2005.97307275 273.82174683 2017.49099731 C275.24902509 2028.52322655 276.80350234 2039.52092268 278.55078125 2050.5078125 C279.96127322 2059.48263644 281.11757815 2068.48456407 282.25128174 2077.4977417 C283.34971464 2086.20966263 284.55840086 2094.89072459 285.9375 2103.5625 C287.7831549 2115.17840743 289.31509242 2126.82557132 290.82147217 2138.48907471 C292.24951259 2149.52709587 293.80564846 2160.53040862 295.55297852 2171.52319336 C296.83526437 2179.68512639 297.90815513 2187.86514382 298.9375 2196.0625 C300.29944845 2206.90339361 301.82663608 2217.70320778 303.5 2228.5 C305.34786178 2240.42497763 306.98057794 2252.36119945 308.48046875 2264.3359375 C309.76196338 2274.44436718 311.2613362 2284.5079574 312.82174683 2294.57595825 C314.58541563 2305.97877802 316.11534506 2317.39467673 317.55297852 2328.84350586 C318.55764983 2336.77238598 319.68289186 2344.66952223 320.9375 2352.5625 C322.65176763 2363.35210213 324.1006593 2374.16615908 325.5 2385 C326.88076033 2395.68766252 328.304239 2406.35668704 330 2417 C331.82749718 2428.47014493 333.33404724 2439.97307275 334.82174683 2451.49099731 C336.24902509 2462.52322655 337.80350234 2473.52092268 339.55078125 2484.5078125 C340.96127322 2493.48263644 342.11757815 2502.48456407 343.25128174 2511.4977417 C344.34971464 2520.20966263 345.55840086 2528.89072459 346.9375 2537.5625 C348.7831549 2549.17840743 350.31509242 2560.82557132 351.82147217 2572.48907471 C353.24951259 2583.52709587 354.80564846 2594.53040862 356.55297852 2605.52319336 C357.83526437 2613.68512639 358.90815513 2621.86514382 359.9375 2630.0625 C361.29944845 2640.90339361 362.82663608 2651.70320778 364.5 2662.5 C366.34786178 2674.42497763 367.98057794 2686.36119945 369.48046875 2698.3359375 C370.76196338 2708.44436718 372.2613362 2718.5079574 373.82174683 2728.57595825 C375.58541563 2739.97877802 377.11534506 2751.39467673 378.55297852 2762.84350586 C379.55764955 2770.77238376 380.68282329 2778.66953375 381.9375 2786.5625 C383.92372688 2799.05752885 385.56401332 2811.59135174 387.16186523 2824.14086914 C388.16678511 2831.98396163 389.25533303 2839.80228433 390.51171875 2847.609375 C391.9140164 2856.32609126 393.1370679 2865.05442411 394.25 2873.8125 C394.35127197 2874.60481018 394.45254395 2875.39712036 394.55688477 2876.21343994 C399.11002823 2911.97089743 403.02690277 2947.82223259 406.625 2983.6875 C409.86085543 3015.92333527 413.59029918 3048.06409989 418.1771698 3080.1362915 C418.90903369 3085.28262974 419.57126409 3090.43538054 420.2097168 3095.59399414 C421.28193336 3104.23628228 422.6110346 3112.76794119 424.30883789 3121.30957031 C425.86735368 3129.16105725 427.24143132 3137.0391235 428.60723877 3144.92581177 C431.62440595 3162.33665569 431.62440595 3162.33665569 435.41650391 3179.59130859 C435.84886833 3181.37612339 436.27153156 3183.16329433 436.68896484 3184.95166016 C444.48077719 3218.3158303 454.68530896 3251.73437149 471 3282 C471.33821777 3282.64163086 471.67643555 3283.28326172 472.02490234 3283.94433594 C485.9406396 3310.27350657 505.31695337 3336.79503243 532.375 3350.5 C533.37382202 3351.00768921 533.37382202 3351.00768921 534.39282227 3351.52563477 C543.84245178 3356.11213041 555.39626793 3356.54111087 565.58203125 3354.1640625 C586.0039945 3346.9449106 597.94093776 3327.85792567 607.11669922 3309.30761719 C610.66799852 3301.85716519 613.51160102 3294.16286268 616.18847656 3286.36181641 C616.70771809 3284.85064235 617.23496714 3283.34218113 617.77246094 3281.83740234 C625.50860401 3260.13294373 629.80117537 3236.78383512 632.4921875 3213.9453125 C633 3210 633 3210 634 3207 C634.3622475 3204.04828376 634.68030008 3201.10697018 634.9601593 3198.1472168 C635.04674549 3197.23766298 635.13333168 3196.32810917 635.22254169 3195.39099312 C637.94500694 3166.06133538 638.53096505 3136.97102444 638.37264419 3107.53163528 C638.34315468 3101.14603613 638.33854976 3094.76041198 638.33113098 3088.37475586 C638.31571057 3077.68531329 638.28713719 3066.99601243 638.24682617 3056.30664062 C638.2057751 3045.40691236 638.17035789 3034.50719703 638.14428711 3023.60742188 C638.14267081 3022.93319455 638.14105452 3022.25896722 638.13938924 3021.56430876 C638.12181261 3014.16056664 638.10600842 3006.75682181 638.09147358 2999.35307312 C638.08890417 2998.0448676 638.08633476 2996.73666208 638.08368748 2995.38881397 C638.0785857 2992.7760205 638.07355359 2990.1632269 638.06859285 2987.55043316 C638.05358222 2980.02477681 638.03125857 2972.49918889 638.00266892 2964.97357237 C637.91552117 2941.51727538 637.9675793 2918.11969723 638.87055397 2894.67910004 C639.10255151 2888.08529274 639.23691373 2881.4894042 639.37304688 2874.89306641 C639.38722361 2874.21693511 639.40140035 2873.54080381 639.41600668 2872.84418368 C639.4888243 2869.37100697 639.56035184 2865.89780615 639.63075256 2862.42457962 C639.72138716 2857.95597126 639.81502738 2853.48742841 639.90905762 2849.01889038 C640.17539116 2836.34176588 640.43777882 2823.6645611 640.69775391 2810.98730469 C640.84269566 2803.92072836 640.98992004 2796.85420301 641.13948298 2789.78772295 C641.2178249 2786.080944 641.29501748 2782.37414967 641.36924744 2778.66728592 C641.64266376 2765.03394023 641.92723541 2751.41781933 642.77581787 2737.80636597 C643.13285987 2731.74418556 643.28170777 2725.67965984 643.4296875 2719.609375 C643.46552322 2718.25578799 643.501762 2716.90221161 643.5383606 2715.54864502 C643.68907948 2709.95655642 643.83477484 2704.36435664 643.97412109 2698.77197266 C645.35250552 2644.08709199 648.19312799 2589.4440401 651.13638502 2534.82485127 C651.92216585 2520.23274928 652.6932828 2505.63985918 653.46618485 2491.0470705 C653.60602216 2488.4075226 653.74598162 2485.7679812 653.88596153 2483.12844086 C656.40515706 2435.61154213 658.83608629 2388.09008981 661.26562631 2340.56853694 C661.68619406 2332.34279531 662.10734871 2324.1170839 662.52880859 2315.89138794 C663.21444797 2302.50838398 663.89872757 2289.12531091 664.58203125 2275.7421875 C664.63634953 2274.6788059 664.69066781 2273.6154243 664.7466321 2272.51981902 C665.82921773 2251.32333204 666.90905813 2230.12682763 667.91943359 2208.92675781 C667.95404501 2208.20210304 667.98865642 2207.47744826 668.02431667 2206.73083425 C668.3624045 2199.65079331 668.69682101 2192.57061127 669.02192688 2185.48995972 C669.74379443 2169.99274894 670.72542434 2154.52186742 671.7935915 2139.04541206 C672.20250793 2133.01213815 672.54335928 2126.97547351 672.875 2120.9375 C672.95229181 2119.56476378 673.02986511 2118.1920434 673.10766602 2116.81933594 C673.47590935 2110.31979503 673.84184251 2103.82012447 674.20635986 2097.32037354 C674.77801188 2087.1299398 675.35454127 2076.93979345 675.9375 2066.75 C675.98074276 2065.99361866 676.02398552 2065.23723732 676.06853867 2064.45793533 C677.20348932 2044.63359079 678.39530681 2024.81957772 680.04858398 2005.03027344 C680.7254535 1996.89797809 681.26320759 1988.77735781 681.62345886 1980.62460327 C681.82284045 1976.37950732 682.19391981 1972.21418352 682.75624084 1968.00253296 C683.18992351 1964.43973821 683.39084756 1960.8623855 683.61328125 1957.28125 C683.72545999 1955.55386022 683.83785646 1953.82648457 683.95043945 1952.09912109 C684.00898102 1951.19055359 684.06752258 1950.28198608 684.12783813 1949.34588623 C686.45738785 1913.44441051 689.64149953 1877.61600665 692.86822128 1841.78607941 C693.05887753 1839.66529492 693.24851842 1837.5444219 693.43789673 1835.42352295 C694.76887346 1820.53853352 696.20841965 1805.67730581 697.96714783 1790.83609009 C698.65845481 1784.99956025 699.30972454 1779.16483593 699.8515625 1773.3125 C699.91344254 1772.64588852 699.97532257 1771.97927704 700.03907776 1771.29246521 C700.16625816 1769.92049233 700.29342984 1768.54851864 700.42059326 1767.17654419 C704.62050156 1722.45548426 710.27023608 1677.75603112 717.05763245 1633.3578186 C718.4180308 1624.3729669 719.53684619 1615.35521129 720.62036133 1606.33325195 C721.46036665 1599.51372869 722.56825835 1592.78647333 723.87574768 1586.04350281 C725.09870528 1579.66276089 725.98911483 1573.25149502 726.8475647 1566.8119812 C731.50765937 1532.17677971 737.94392782 1497.7634984 744.61254883 1463.46655273 C744.85506378 1462.21649193 744.85506378 1462.21649193 745.10247803 1460.94117737 C745.40312592 1459.39461668 745.70554594 1457.84839901 746.0100708 1456.30259705 C746.74385192 1452.67811575 746.74385192 1452.67811575 747 1449 C569.13 1449 391.26 1449 208 1449 Z " fill="#010101" transform="translate(0,0)"/>
<path d="M0 0 C0.33 0 0.66 0 1 0 C2.08745142 7.52024206 3.17024334 15.04114935 4.25 22.5625 C4.4106192 23.68133575 4.5712384 24.80017151 4.73672485 25.95291138 C6.82174739 40.50026372 8.821101 55.0516149 10.65136719 69.63305664 C11.77647302 78.5074801 13.10275445 87.33864194 14.50292969 96.17333984 C15.79995232 104.45228842 16.89402705 112.7481075 17.9375 121.0625 C19.29936812 131.90340261 20.82663647 142.70321025 22.5 153.5 C24.34786178 165.42497763 25.98057794 177.36119945 27.48046875 189.3359375 C28.76196338 199.44436718 30.2613362 209.5079574 31.82174683 219.57595825 C33.58552567 230.97948948 35.11605003 242.39605096 36.55297852 253.84570312 C37.55458245 261.75389692 38.68293886 269.62826829 39.9375 277.5 C47.17112191 323.37573678 51.67500591 369.71805071 56.3717041 415.90533447 C59.41305165 445.72463283 63.05962669 475.46369662 66.98857117 505.17814636 C67.63393205 510.08233097 68.24238847 514.98751073 68.78308105 519.90438843 C69.51765662 526.57767884 70.47877947 533.165599 71.69677734 539.77172852 C72.51888584 544.23832159 73.28080669 548.70898772 73.98828125 553.1953125 C85.43774035 625.30655023 101.42371448 701.78375861 146.54443359 760.99951172 C147.1111377 761.74346191 147.6778418 762.48741211 148.26171875 763.25390625 C148.76662842 763.90689697 149.27153809 764.5598877 149.79174805 765.23266602 C151 767 151 767 152 770 C115.96660471 771.08947556 84.9339683 760.02059355 58.21484375 735.4375 C13.5372332 692.20515674 -1.7587007 623.43799913 -9.59448242 563.96386719 C-10.02914108 560.7870122 -10.5156082 557.6209416 -11.01171875 554.453125 C-13.6930881 537.17546782 -15.26857112 519.80291394 -16.5625 502.375 C-16.64961746 501.22759338 -16.64961746 501.22759338 -16.73849487 500.05700684 C-17.12990576 494.8494372 -17.4731678 489.63989088 -17.79074097 484.42730713 C-17.94068647 481.97145474 -18.09511326 479.51587437 -18.25247192 477.06048584 C-20.13091744 447.44978411 -20.36016906 417.87489247 -20.31765366 388.2118187 C-20.31242915 384.32225125 -20.31050298 380.43269184 -20.30899048 376.54312134 C-20.2793389 332.63373806 -19.36533306 288.84458942 -17 245 C-16.90945343 243.29321075 -16.90945343 243.29321075 -16.81707764 241.55194092 C-16.19377899 229.85305401 -15.47691517 218.16215529 -14.6907196 206.47315979 C-14.06242563 197.08326633 -13.48019688 187.69075859 -12.90295792 178.29761887 C-12.73443244 175.55562204 -12.5655106 172.81364991 -12.39645386 170.07168579 C-12.34038027 169.16218107 -12.28430668 168.25267635 -12.22653389 167.31561089 C-12.17030798 166.4037005 -12.11408207 165.49179012 -12.05615234 164.55224609 C-11.71721508 159.05481966 -11.378486 153.55738094 -11.04083252 148.05987549 C-10.77518484 143.73842519 -10.50719397 139.41712559 -10.23758698 135.09592056 C-10.13772658 133.48941004 -10.03864142 131.88285112 -9.94039154 130.2762413 C-9.46396674 122.49128112 -8.90459294 114.7491387 -8 107 C-7.82315097 104.37899004 -7.66817604 101.75641203 -7.53515625 99.1328125 C-7.45790348 97.66592258 -7.38042122 96.19904473 -7.30273438 94.73217773 C-7.26365967 93.97991913 -7.22458496 93.22766052 -7.18432617 92.4526062 C-6.62282718 81.72462779 -6.03883283 71.03858902 -4.75024414 60.36962891 C-3.73819506 51.52876309 -3.36360951 42.6369111 -2.87701416 33.75515747 C-2.25417319 22.46015806 -1.39251211 11.22898066 0 0 Z " fill="#FDFDFD" transform="translate(322,2570)"/>
<path d="M0 0 C331.98 0 663.96 0 1006 0 C1006 1312.08 1006 2624.16 1006 3976 C674.02 3976 342.04 3976 0 3976 C0 2663.92 0 1351.84 0 0 Z M4 4 C3.71060381 269.6125432 3.71060381 269.6125432 3.43188477 535.22509766 C3.3729248 586.5144043 3.3729248 586.5144043 3.34410095 610.50009155 C3.32293517 628.41495021 3.30503269 646.32980926 3.28870297 664.24467288 C3.27197422 682.50948385 3.25157126 700.77428799 3.22762626 719.03909095 C3.21349471 729.90082249 3.20202714 740.76254878 3.19458313 751.624287 C3.18939941 758.79722192 3.18064744 765.97014675 3.16899385 773.14307407 C3.16245939 777.22776992 3.15747109 781.31245127 3.15684116 785.39715266 C3.15623422 789.12697409 3.15102131 792.85676085 3.1422801 796.58657183 C3.13883562 798.54593619 3.14017531 800.50530723 3.14176402 802.46467397 C3.1196148 809.63205153 2.81084887 816.71944235 2.22651124 823.86360069 C1.86832859 828.82319491 1.85682843 833.77184159 1.8671875 838.7421875 C1.86623077 839.7942337 1.86527405 840.84627991 1.86428833 841.9302063 C1.86361445 844.13332174 1.86541274 846.33643927 1.86962891 848.53955078 C1.87497754 851.86104927 1.86966213 855.18241191 1.86328125 858.50390625 C1.86394238 860.66666696 1.86522427 862.82942758 1.8671875 864.9921875 C1.86516327 865.95937714 1.86313904 866.92656677 1.86105347 867.92306519 C1.878861 873.31613055 2.10162747 878.64968706 2.499924 884.02839175 C3.18460233 894.25851211 3.14056839 904.48122621 3.13061053 914.72981405 C3.13218113 916.91020945 3.13418803 919.09060458 3.13658784 921.27099922 C3.14191919 927.26061875 3.14106976 933.25022378 3.13920655 939.2398448 C3.1383743 945.10455923 3.14227299 950.96926941 3.14601192 956.83398243 C3.15361233 969.01833416 3.15650045 981.20268295 3.15683801 993.38703686 C3.15720233 1005.7977389 3.15977074 1018.20843767 3.1649667 1030.61913866 C3.16529508 1031.40667406 3.16562346 1032.19420947 3.1659618 1033.00560958 C3.16764833 1037.02681607 3.16936978 1041.04802254 3.17110313 1045.06922901 C3.18368359 1074.42821242 3.19136553 1103.78719555 3.19658089 1133.14618111 C3.20188328 1162.90404418 3.20936281 1192.66190555 3.21950912 1222.41976738 C3.21982812 1223.35819312 3.22014712 1224.29661886 3.22047579 1225.26348175 C3.22339998 1233.86349493 3.2263484 1242.4635081 3.22932569 1251.06352127 C3.2367904 1272.62890226 3.24392626 1294.19428336 3.25084388 1315.75966454 C3.25116111 1316.74787573 3.25147833 1317.73608693 3.25180517 1318.75424393 C3.26741494 1367.47280443 3.27929041 1416.19136578 3.29092598 1464.90992737 C3.29502469 1482.0606111 3.29914115 1499.21129482 3.30332303 1516.36197853 C3.30358298 1517.4281221 3.30384292 1518.49426567 3.30411075 1519.59271662 C3.31617442 1568.98129767 3.33079099 1618.36987786 3.34606133 1667.75845801 C3.34705992 1670.98859358 3.34805731 1674.21872915 3.34905439 1677.44886472 C3.35506793 1696.92663873 3.36110806 1716.40441274 3.36717889 1735.88218674 C3.38226975 1784.30370821 3.39704166 1832.72522977 3.41159725 1881.1467514 C3.41192877 1882.24908668 3.4122603 1883.35142195 3.41260186 1884.48716133 C3.43407073 1955.88122378 3.45422656 2027.27528653 3.47328281 2098.66934967 C3.47358707 2099.8091846 3.47389132 2100.94901953 3.47420479 2102.12339492 C3.48346364 2136.82072861 3.49262528 2171.51806232 3.50176792 2206.21539604 C3.5118858 2244.61228633 3.52202027 2283.00917662 3.53222656 2321.40606689 C3.53253341 2322.56067836 3.53284027 2323.71528983 3.53315642 2324.90488952 C3.56230703 2434.57114652 3.59413383 2544.23740269 3.62665245 2653.90365874 C3.62802967 2658.5488582 3.62940611 2663.19405766 3.63078251 2667.83925712 C3.64344861 2710.58544978 3.65614611 2753.33164242 3.66888306 2796.07783505 C3.66922174 2797.21449692 3.66956043 2798.35115878 3.66990938 2799.52226494 C3.67093483 2802.9637714 3.6719603 2806.40527786 3.67298577 2809.84678431 C3.70068896 2902.82028816 3.72811822 2995.79379208 3.75537 3088.76729606 C3.75633159 3092.04766882 3.75729339 3095.32804158 3.75825526 3098.60841434 C3.7895095 3205.20185127 3.82027878 3311.79528832 3.87237309 3500.0199151 C3.87317166 3502.92254516 3.87397049 3505.82517522 3.87476943 3508.72780527 C3.87503094 3509.67793776 3.87529244 3510.62807025 3.87556187 3511.60699463 C3.87603782 3513.33624489 3.8765138 3515.06549515 3.87698984 3516.79474542 C3.91874915 3668.52983007 3.95920197 3820.26491508 4 3972 C333.34 3972 662.68 3972 1002 3972 C1002 2662.56 1002 1353.12 1002 4 C672.66 4 343.32 4 4 4 Z " fill="#FCFCFC" transform="translate(0,0)"/>
<path d="M0 0 C3.51406905 0.00316167 7.02729363 -0.02042331 10.54125977 -0.0456543 C25.97350278 -0.08904664 40.95090353 1.0771228 56.21508789 3.31567383 C57.36066666 3.47977249 57.36066666 3.47977249 58.52938843 3.64718628 C62.83134305 4.26834686 67.11819005 4.95887241 71.40258789 5.69067383 C72.65523437 5.90199951 73.90788086 6.1133252 75.19848633 6.33105469 C85.47827152 8.10580698 95.62158099 10.29888069 105.76147461 12.73803711 C108.92124642 13.48191971 112.09383219 14.15683663 115.26879883 14.83227539 C122.37223579 16.35246618 129.32805538 18.14036322 136.27685547 20.25585938 C141.62409722 21.8760706 147.00276353 23.33548298 152.40600586 24.75732422 C165.71680612 28.26032145 178.81441774 32.24856044 191.87866211 36.57885742 C193.97854473 37.24107746 196.0730449 37.80908035 198.21508789 38.31567383 C197.57699385 43.743058 196.35179916 48.77569092 194.77758789 54.00317383 C194.56038086 54.74889648 194.34317383 55.49461914 194.11938477 56.26293945 C193.07411389 59.78170416 192.0368948 63.10420956 190.21508789 66.31567383 C184.20163372 65.52144403 178.47128816 63.78611455 172.65258789 62.12817383 C171.54141602 61.81428711 170.43024414 61.50040039 169.28540039 61.17700195 C163.2641041 59.47383529 157.24689692 57.756287 151.23071289 56.03515625 C149.53952886 55.55146843 147.84811859 55.06857103 146.15649414 54.58642578 C141.54516646 53.2716939 136.93846894 51.94298207 132.33618164 50.59692383 C110.19605687 44.17929149 87.74788146 39.69542747 65.09008789 35.56567383 C64.2815033 35.41678711 63.4729187 35.26790039 62.63983154 35.11450195 C43.30112118 31.57035975 24.5763909 29.92903387 4.90258789 30.00317383 C3.31497147 30.00690506 3.31497147 30.00690506 1.69528198 30.01071167 C-15.31545219 30.07235695 -31.94420641 30.73408175 -48.78491211 33.31567383 C-49.53562988 33.42973572 -50.28634766 33.54379761 -51.05981445 33.66131592 C-77.90961067 37.75991868 -104.42613164 42.83317267 -130.53710938 50.39404297 C-134.80335304 51.6046774 -139.09774055 52.65877552 -143.40991211 53.69067383 C-150.46448312 55.40875368 -157.41019285 57.36139411 -164.34741211 59.50317383 C-171.10234201 61.58804486 -177.7576582 63.38085565 -184.78491211 64.31567383 C-192.78491211 43.46461 -192.78491211 43.46461 -192.78491211 36.31567383 C-179.61407251 31.93884046 -166.22942653 28.51397533 -152.78637695 25.08520508 C-149.1958702 24.16465218 -145.61451602 23.21521743 -142.03491211 22.25317383 C-140.89280273 21.94895508 -139.75069336 21.64473633 -138.57397461 21.33129883 C-136.53735381 20.78540047 -134.50113255 20.23794239 -132.4675293 19.6809082 C-109.12594157 13.29457784 -85.51889907 8.16078426 -61.59741211 4.50317383 C-60.33622559 4.30844482 -59.07503906 4.11371582 -57.77563477 3.91308594 C-38.53161795 1.09316323 -19.4454435 -0.03640206 0 0 Z " fill="#020202" transform="translate(512.784912109375,716.684326171875)"/>
<path d="M0 0 C0.33 0 0.66 0 1 0 C2.0006709 5.96345767 2.0662997 10.28728907 0 16 C-0.33 16 -0.66 16 -1 16 C-0.67 10.72 -0.34 5.44 0 0 Z " fill="#BEBEBE" transform="translate(322,2570)"/>
</svg>
