<?xml version="1.0" encoding="UTF-8"?>
<!DOCTYPE svg PUBLIC "-//W3C//DTD SVG 1.1//EN" "http://www.w3.org/Graphics/SVG/1.1/DTD/svg11.dtd">
<svg xmlns="http://www.w3.org/2000/svg" version="1.1" width="1005px" height="3975px" style="shape-rendering:geometricPrecision; text-rendering:geometricPrecision; image-rendering:optimizeQuality; fill-rule:evenodd; clip-rule:evenodd" xmlns:xlink="http://www.w3.org/1999/xlink">
<g><path style="opacity:0.952" fill="#f5f5f5" d="M -0.5,-0.5 C 334.5,-0.5 669.5,-0.5 1004.5,-0.5C 1004.5,1324.5 1004.5,2649.5 1004.5,3974.5C 669.5,3974.5 334.5,3974.5 -0.5,3974.5C -0.5,2649.5 -0.5,1324.5 -0.5,-0.5 Z M 1000.5,3044.5 C 996.551,3017.48 991.718,2990.48 986,2963.5C 975.332,2918.83 964.665,2874.16 954,2829.5C 947.587,2811.93 940.587,2794.59 933,2777.5C 907.061,2723.95 881.394,2670.29 856,2616.5C 848.812,2600.27 842.812,2583.6 838,2566.5C 796.933,2218.63 751.766,1871.29 702.5,1524.5C 710.586,1424.89 718.086,1325.22 725,1225.5C 731.252,1137.6 733.919,1049.6 733,961.5C 732.63,896.17 725.963,831.503 713,767.5C 703.897,724.488 687.23,684.821 663,648.5C 631.698,607.766 590.198,587.099 538.5,586.5C 525.517,587.566 512.517,588.399 499.5,589C 465.149,565.644 432.149,567.311 400.5,594C 380.863,615.425 367.03,640.259 359,668.5C 346.691,712.996 339.691,758.33 338,804.5C 340.46,1025 335.46,1245.33 323,1465.5C 315.56,1614.2 307.56,1762.86 299,1911.5C 290.336,2061.48 275.336,2210.81 254,2359.5C 247.874,2399.26 241.207,2438.93 234,2478.5C 232.732,2488.12 230.398,2497.45 227,2506.5C 179.452,2582.9 135.452,2661.57 95,2742.5C 65.7164,2801.4 41.7164,2862.4 23,2925.5C 13.3547,2959.72 6.85469,2994.39 3.5,3029.5C 3.5,2020.83 3.5,1012.17 3.5,3.5C 335.833,3.5 668.167,3.5 1000.5,3.5C 1000.5,1017.17 1000.5,2030.83 1000.5,3044.5 Z M 3.5,3078.5 C 4.85676,3096.45 8.35676,3114.12 14,3131.5C 21.6122,3149.39 30.2788,3166.72 40,3183.5C 63.4982,3224.51 88.4982,3264.51 115,3303.5C 127.313,3320.82 141.48,3336.66 157.5,3351C 239.631,3423.89 327.964,3488.23 422.5,3544C 440.582,3553.69 459.249,3562.03 478.5,3569C 534.666,3581.69 587.666,3573.69 637.5,3545C 658.001,3532.16 677.668,3518.16 696.5,3503C 743.622,3461.54 791.622,3421.21 840.5,3382C 871.501,3356.67 901.001,3329.51 929,3300.5C 959.392,3268.4 981.059,3231.07 994,3188.5C 996.201,3179.04 998.368,3169.71 1000.5,3160.5C 1000.5,3430.5 1000.5,3700.5 1000.5,3970.5C 668.167,3970.5 335.833,3970.5 3.5,3970.5C 3.5,3673.17 3.5,3375.83 3.5,3078.5 Z"/></g>
<g><path style="opacity:0.984" fill="#010101" d="M 1000.5,3044.5 C 1004.37,3083.17 1004.37,3121.84 1000.5,3160.5C 998.368,3169.71 996.201,3179.04 994,3188.5C 981.059,3231.07 959.392,3268.4 929,3300.5C 901.001,3329.51 871.501,3356.67 840.5,3382C 791.622,3421.21 743.622,3461.54 696.5,3503C 677.668,3518.16 658.001,3532.16 637.5,3545C 587.666,3573.69 534.666,3581.69 478.5,3569C 459.249,3562.03 440.582,3553.69 422.5,3544C 327.964,3488.23 239.631,3423.89 157.5,3351C 141.48,3336.66 127.313,3320.82 115,3303.5C 88.4982,3264.51 63.4982,3224.51 40,3183.5C 30.2788,3166.72 21.6122,3149.39 14,3131.5C 8.35676,3114.12 4.85676,3096.45 3.5,3078.5C 3.5,3062.17 3.5,3045.83 3.5,3029.5C 6.85469,2994.39 13.3547,2959.72 23,2925.5C 41.7164,2862.4 65.7164,2801.4 95,2742.5C 135.452,2661.57 179.452,2582.9 227,2506.5C 230.398,2497.45 232.732,2488.12 234,2478.5C 241.207,2438.93 247.874,2399.26 254,2359.5C 275.336,2210.81 290.336,2061.48 299,1911.5C 307.56,1762.86 315.56,1614.2 323,1465.5C 335.46,1245.33 340.46,1025 338,804.5C 339.691,758.33 346.691,712.996 359,668.5C 367.03,640.259 380.863,615.425 400.5,594C 432.149,567.311 465.149,565.644 499.5,589C 512.517,588.399 525.517,587.566 538.5,586.5C 590.198,587.099 631.698,607.766 663,648.5C 687.23,684.821 703.897,724.488 713,767.5C 725.963,831.503 732.63,896.17 733,961.5C 733.919,1049.6 731.252,1137.6 725,1225.5C 718.086,1325.22 710.586,1424.89 702.5,1524.5C 751.766,1871.29 796.933,2218.63 838,2566.5C 842.812,2583.6 848.812,2600.27 856,2616.5C 881.394,2670.29 907.061,2723.95 933,2777.5C 940.587,2794.59 947.587,2811.93 954,2829.5C 964.665,2874.16 975.332,2918.83 986,2963.5C 991.718,2990.48 996.551,3017.48 1000.5,3044.5 Z"/></g>
<g><path style="opacity:1" fill="#fefefe" d="M 445.5,602.5 C 462.088,602.298 476.754,607.464 489.5,618C 512.591,639.315 530.425,664.481 543,693.5C 557.504,728.68 568.17,765.014 575,802.5C 580.534,831.705 585.201,861.039 589,890.5C 595.639,947.471 601.972,1004.47 608,1061.5C 656.913,1410.22 705.913,1758.89 755,2107.5C 764.387,2197.42 773.054,2287.42 781,2377.5C 784.995,2417.96 789.828,2458.29 795.5,2498.5C 617.167,2498.5 438.833,2498.5 260.5,2498.5C 285.894,2361.13 304.394,2222.8 316,2083.5C 319.956,2031.16 323.956,1978.83 328,1926.5C 342.1,1685.94 354.1,1445.27 364,1204.5C 368.217,1076.03 369.383,947.526 367.5,819C 367.531,772.319 373.697,726.486 386,681.5C 392.16,660.516 401.494,641.183 414,623.5C 422.332,612.959 432.832,605.959 445.5,602.5 Z"/></g>
<g><path style="opacity:1" fill="#fdfdfd" d="M 530.5,618.5 C 580.854,616.761 619.687,637.094 647,679.5C 662.116,704.071 673.116,730.404 680,758.5C 692.731,810.407 700.064,863.073 702,916.5C 704.849,1009.91 703.182,1103.24 697,1196.5C 692.643,1260.18 687.977,1323.85 683,1387.5C 669.186,1288.13 655.186,1188.8 641,1089.5C 633.48,1021.82 625.813,954.155 618,886.5C 611.472,833.06 601.138,780.393 587,728.5C 578.334,698.819 566.001,670.819 550,644.5C 544.021,635.367 537.521,626.7 530.5,618.5 Z"/></g>
<g><path style="opacity:1" fill="#fefefe" d="M 248.5,2527.5 C 432.5,2527.5 616.5,2527.5 800.5,2527.5C 804.293,2559.34 812.46,2590.01 825,2619.5C 852.727,2678.62 880.727,2737.62 909,2796.5C 915.554,2811.61 921.554,2826.94 927,2842.5C 937.335,2886.51 947.669,2930.51 958,2974.5C 968.847,3022.94 973.847,3071.94 973,3121.5C 969.427,3184.27 946.094,3238.27 903,3283.5C 883.741,3303.76 863.574,3322.93 842.5,3341C 786.914,3386.58 731.914,3432.92 677.5,3480C 663.033,3491.73 648.033,3502.73 632.5,3513C 585.209,3543.94 534.209,3552.27 479.5,3538C 444.834,3522.84 411.834,3504.84 380.5,3484C 316.003,3441.51 254.336,3395.18 195.5,3345C 173.888,3327.06 154.721,3306.89 138,3284.5C 109.079,3240.89 81.7461,3196.22 56,3150.5C 41.4013,3125.85 33.7347,3099.18 33,3070.5C 32.078,3032.64 36.078,2995.31 45,2958.5C 62.4821,2891.72 86.4821,2827.39 117,2765.5C 139.059,2720.38 162.392,2676.04 187,2632.5C 207.523,2597.44 228.023,2562.44 248.5,2527.5 Z"/></g>
</svg>
