<?xml version="1.0" encoding="UTF-8"?>
<svg version="1.1" xmlns="http://www.w3.org/2000/svg" width="1006" height="3975">
<path d="M0 0 C331.65 0 663.3 0 1005 0 C1005.13690132 346.23926065 1005.13690132 346.23926065 1005.17383855 441.80746006 C1005.17454464 443.63400188 1005.17525073 445.4605437 1005.17595683 447.28708552 C1005.17631088 448.20299383 1005.17666493 449.11890213 1005.17702971 450.06256522 C1005.17813291 452.91616001 1005.17923649 455.76975479 1005.18034018 458.62334957 C1005.22021841 561.73208286 1005.25930474 664.84081642 1005.32718385 851.27764783 C1005.32835481 854.51093272 1005.32952606 857.74421762 1005.33069739 860.97750252 C1005.36395236 952.77394405 1005.39695172 1044.57038567 1005.42961312 1136.36682741 C1005.4308246 1139.77174781 1005.43203609 1143.17666821 1005.4332476 1146.58158861 C1005.43364774 1147.70617371 1005.43404787 1148.83075881 1005.43446013 1149.98942225 C1005.44949481 1192.24263766 1005.4645873 1234.49585305 1005.47971445 1276.74906842 C1005.48135709 1281.33744036 1005.48299906 1285.9258123 1005.48464044 1290.51418424 C1005.5229698 1397.66039683 1005.5622602 1504.80660893 1005.60510254 1611.95281982 C1005.60554641 1613.06294966 1005.60599029 1614.1730795 1005.60644761 1615.31684963 C1005.61718132 1642.15649538 1005.62797032 1668.9961411 1005.63877341 1695.83578682 C1005.68287016 1805.39542639 1005.72674448 1914.95506604 1005.87576344 2339.94917711 C1005.87820699 2347.46576437 1005.88066074 2354.98235163 1005.88311923 2362.49893889 C1005.91725709 2466.90395952 1005.94934591 2571.30898069 1005.8097406 3401.64056692 C1005.80548225 3406.2181765 1005.80126471 3410.79578612 1005.79706775 3415.37339576 C1005.79126629 3421.70087088 1005.78541528 3428.02834596 1005.7795257 3434.35582101 C1005.77741778 3436.62402418 1005.77532026 3438.89222736 1005.77323694 3441.16043056 C1005.60936603 3619.10708166 1005.28496768 3797.05351309 1005 3975 C673.35 3975 341.7 3975 0 3975 C0 2663.25 0 1351.5 0 0 Z M4 4 C4 1005.88 4 2007.76 4 3040 C4.33 3040 4.66 3040 5 3040 C5.05422119 3039.23187988 5.10844238 3038.46375977 5.16430664 3037.67236328 C12.19242778 2941.84703731 35.73741223 2847.75224052 170.59667969 2556.6796875 C172.61492804 2554.26396922 174.54838969 2551.78217414 176.5 2549.3125 C184.09647698 2540.03724358 192.86772995 2531.744165 202 2524 C208.15227231 2518.77257908 213.50798847 2513.41910838 218.51953125 2507.0859375 C221.42264601 2503.47418842 224.44997668 2499.98762201 227.5 2496.5 C231.23470734 2492.21844967 234.92461579 2487.91665109 238.5 2483.5 C243.62730136 2477.17289137 248.98983868 2471.05585974 254.3359375 2464.9140625 C257.00336636 2461.84589316 259.66087171 2458.7693297 262.3125 2455.6875 C262.76729736 2455.1618042 263.22209473 2454.6361084 263.69067383 2454.09448242 C264.59720616 2453.0395463 265.48953981 2451.97224066 266.36717224 2450.8931427 C268 2449 268 2449 269.87335205 2447.27966309 C278.27738795 2438.70610797 278.84580032 2427.33049396 280.68359375 2415.95703125 C281.07070444 2413.70077601 281.46048382 2411.44497718 281.85279846 2409.18962097 C282.87387997 2403.27675658 283.85831003 2397.35836152 284.83514404 2391.43804932 C285.83558917 2385.41642189 286.87169422 2379.4009459 287.90429688 2373.38476562 C289.40826861 2364.59263588 290.89855025 2355.79839111 292.36108398 2346.99926758 C292.58930847 2345.62992065 292.58930847 2345.62992065 292.82214355 2344.23291016 C293.60634963 2339.49544454 294.34223194 2334.75670697 295 2330 C293.72769531 2329.21689453 293.72769531 2329.21689453 292.4296875 2328.41796875 C264.67202376 2311.0978896 242.33153461 2288.50877934 234 2256 C230.19358793 2234.9609224 235.10266618 2215.57437211 247 2198 C255.25298008 2186.70558304 265.17884946 2177.81482848 276.5 2169.75 C277.22050537 2169.22744629 277.94101074 2168.70489258 278.68334961 2168.16650391 C283.03374901 2165.09615523 287.0343284 2163.25998959 292.0625 2161.4375 C295.2775244 2159.12472391 296.80039252 2157.89711062 297.67260742 2153.97705078 C297.69170166 2152.85282715 297.7107959 2151.72860352 297.73046875 2150.5703125 C297.7555249 2149.35158447 297.78058105 2148.13285645 297.80639648 2146.87719727 C297.72298791 2141.23538361 297.45237588 2135.6239602 297 2130 C296.19900879 2129.67169189 295.39801758 2129.34338379 294.57275391 2129.00512695 C293.50976074 2128.56644287 292.44676758 2128.12775879 291.3515625 2127.67578125 C289.77882568 2127.02863159 289.77882568 2127.02863159 288.17431641 2126.3684082 C279.10847612 2122.46023755 271.41867388 2117.500644 264 2111 C263.31164062 2110.40703125 262.62328125 2109.8140625 261.9140625 2109.203125 C252.96660193 2100.92760811 246.23016871 2089.36857841 242 2078 C241.608125 2076.96488281 241.21625 2075.92976563 240.8125 2074.86328125 C234.3625726 2054.8640272 236.75737965 2033.20144126 245.875 2014.5625 C248.75704441 2008.95030812 251.89487433 2003.81211954 256 1999 C256.4228125 1998.43539063 256.845625 1997.87078125 257.28125 1997.2890625 C263.91779512 1988.76187371 273.29192976 1983.14935804 282.6875 1978.125 C283.37561768 1977.75584473 284.06373535 1977.38668945 284.77270508 1977.00634766 C289.82571957 1974.39294756 294.47710932 1972.84096356 300 1971 C300 1959.12 300 1947.24 300 1935 C296.04 1933.35 292.08 1931.7 288 1930 C265.86174922 1919.5476294 246.73185281 1903.59445434 238 1880 C233.45769084 1864.27518897 233.86171426 1847.95837001 241.5 1833.3125 C253.46691209 1811.70098983 275.69558318 1798.92176673 298 1790 C298 1776.8 298 1763.6 298 1750 C294.761875 1748.96875 291.52375 1747.9375 288.1875 1746.875 C269.95622594 1740.86441389 254.30329989 1731.58193724 244.96728516 1714.06201172 C243.95229948 1712.01781388 242.99306426 1709.95892234 242.0625 1707.875 C241.77987305 1707.24263428 241.49724609 1706.61026855 241.20605469 1705.95874023 C234.5022065 1689.92091447 234.83470677 1670.0992305 241 1654 C249.2329318 1634.04034958 262.99867438 1618.79644787 283.06640625 1610.1953125 C287.6589472 1608.31308769 292.2907137 1606.5697621 297 1605 C297.02554493 1597.95655093 297.04294803 1590.91311399 297.05493164 1583.86962891 C297.0599323 1581.4780228 297.06673498 1579.08641971 297.07543945 1576.69482422 C297.08769326 1573.2392502 297.09327114 1569.78371693 297.09765625 1566.328125 C297.10539818 1564.74768402 297.10539818 1564.74768402 297.11329651 1563.13531494 C297.11382157 1556.04367843 296.69333898 1549.05711082 296 1542 C294.74445313 1541.75765625 293.48890625 1541.5153125 292.1953125 1541.265625 C270.22562671 1536.91690922 253.79764634 1529.08179527 241 1510 C230.56360715 1492.28975758 228.66361827 1472.86726558 233.45214844 1453.02294922 C239.1322392 1432.04913813 252.21584927 1415.5702753 270.71875 1404.3515625 C279.73142548 1399.24955943 289.31991343 1395.60793775 299 1392 C299.06731323 1391.00262817 299.06731323 1391.00262817 299.13598633 1389.98510742 C303.30320768 1328.77417855 303.30320768 1328.77417855 308 1301 C308.17225098 1299.97938477 308.34450195 1298.95876953 308.52197266 1297.90722656 C317.8648088 1244.47276022 344.57989136 1197.63498512 389 1166 C390.03769531 1165.24332031 391.07539063 1164.48664063 392.14453125 1163.70703125 C411.2297116 1150.15143735 432.86704599 1140.37113052 455 1133 C456.28414795 1132.5678418 456.28414795 1132.5678418 457.59423828 1132.12695312 C483.35327657 1123.58582477 510.86410804 1118.74737366 538 1118 C539.18650146 1117.96712891 539.18650146 1117.96712891 540.39697266 1117.93359375 C593.14969895 1116.7262073 646.92747948 1127.87635803 691 1158 C691.63631348 1158.43425293 692.27262695 1158.86850586 692.92822266 1159.31591797 C701.7711486 1165.42318224 709.83675179 1172.12188459 717.54931641 1179.60058594 C718.87433663 1180.87877778 720.22314182 1182.13219501 721.57421875 1183.3828125 C734.47424732 1195.63887829 744.21256582 1210.64076675 753 1226 C753.59506348 1227.02746338 753.59506348 1227.02746338 754.20214844 1228.07568359 C767.49743392 1251.23934736 775.34753398 1276.79927031 780 1303 C780.76441406 1303.15855469 781.52882813 1303.31710937 782.31640625 1303.48046875 C804.87404214 1308.39374444 824.90583568 1316.96050754 838 1336.8125 C847.97265813 1352.73309658 850.42840586 1371.96041104 846.875 1390.25 C840.79408749 1414.37749156 826.05824081 1435.50939373 805 1449 C797.92288169 1453.17668627 790.65553829 1457.0037807 783 1460 C780.11349844 1482.02793425 780.11349844 1482.02793425 784.60546875 1502.94335938 C788.61725589 1507.05830675 793.4644547 1509.18231192 798.80371094 1511.13183594 C801.80309568 1512.31745311 804.04865172 1514.05199486 806.5 1516.125 C807.24894531 1516.74890625 807.99789062 1517.3728125 808.76953125 1518.015625 C824.47756387 1531.99054719 836.98208688 1549.61911994 838.34765625 1571.27734375 C839.08678566 1592.76040581 830.54024722 1611.1131065 816.35546875 1626.953125 C810.05903382 1633.63932901 803.12141679 1639.22057084 795.640625 1644.52734375 C794.76458618 1645.16168335 794.76458618 1645.16168335 793.87084961 1645.80883789 C792 1647 792 1647 789.78735352 1647.89233398 C787.25152538 1649.01328624 785.78437247 1649.85981019 784 1652 C782.94096854 1657.07130023 783.19425129 1662.04929757 783.4375 1667.1875 C783.48475173 1668.64185074 783.52958505 1670.09628204 783.57202148 1671.55078125 C783.63827555 1673.71229162 783.71034255 1675.87270633 783.80207825 1678.03329468 C783.96803143 1681.99263283 783.96823189 1685.87737616 783.7265625 1689.83203125 C783.51602109 1694.27294469 783.52967816 1697.76057202 785 1702 C789.01731631 1705.41261556 793.1687858 1707.19172734 798.02392578 1709.12695312 C811.44808279 1715.05786312 823.10793668 1728.37056461 830 1741 C830.70769531 1742.29164063 830.70769531 1742.29164063 831.4296875 1743.609375 C839.55827039 1759.86654077 840.29733109 1778.82063696 834.72314453 1795.97070312 C827.47544019 1816.30929816 814.31044069 1830.39789386 794.82421875 1839.67578125 C793.42623047 1840.33126953 793.42623047 1840.33126953 792 1841 C790.02 1841.99 788.04 1842.98 786 1844 C786 1857.53 786 1871.06 786 1885 C791.94 1887.64 797.88 1890.28 804 1893 C820.48640783 1903.30400489 833.8172533 1916.36461885 838.68359375 1935.71875 C842.31303103 1953.54053858 837.84545524 1970.55349715 827.89794922 1985.67529297 C819.4036491 1997.95043884 807.50532594 2011.53088114 794.15625 2018.48046875 C791.1798011 2020.10664659 789.23003523 2021.43650406 787 2024 C786.44720972 2027.23021048 786.44720972 2027.23021048 786.6953125 2030.90625 C786.71412476 2031.59843628 786.73293701 2032.29062256 786.75231934 2033.00378418 C786.79512887 2034.52331393 786.84747102 2036.04259713 786.90802002 2037.56152344 C787.00341416 2040.09051263 787.06183014 2042.61814157 787.11083984 2045.1484375 C787.21759041 2050.59962545 787.35715018 2056.04965633 787.5 2061.5 C787.5483618 2063.40233906 787.59653996 2065.3046828 787.64453125 2067.20703125 C787.76091092 2071.804744 787.8797508 2076.4023869 788 2081 C789.21961426 2081.19045898 790.43922852 2081.38091797 791.69580078 2081.57714844 C793.32068477 2081.83759916 794.94551943 2082.09835771 796.5703125 2082.359375 C797.37122314 2082.4836084 798.17213379 2082.6078418 798.99731445 2082.73583984 C816.09756873 2085.50885405 831.26277112 2093.73868278 841.93359375 2107.4921875 C852.71531596 2123.11988807 855.39639137 2143.0486344 852.3515625 2161.5625 C848.97450727 2178.52286459 840.79421684 2195.25906009 828 2207 C827.195625 2207.845625 826.39125 2208.69125 825.5625 2209.5625 C819.95453989 2214.89690108 814.00287867 2218.69189473 807.125 2222.1875 C806.47748779 2222.52048096 805.82997559 2222.85346191 805.1628418 2223.1965332 C801.43072881 2225.03920321 797.73566648 2226.4453825 793.73779297 2227.61450195 C792.84752411 2227.87640823 791.95725525 2228.13831451 791.04000854 2228.40815735 C790.36680573 2228.60346542 789.69360291 2228.7987735 789 2229 C788.85661994 2263.01416297 789.21567972 2296.99470957 790 2331 C790.60178574 2331.28230972 791.20357147 2331.56461945 791.82359314 2331.85548401 C794.58070729 2333.1513815 797.33527969 2334.45259763 800.08984375 2335.75390625 C801.03645874 2336.19786743 801.98307373 2336.64182861 802.95837402 2337.09924316 C818.32492192 2344.37321028 833.37060258 2354.28451588 841 2370 C841.32484375 2370.66128906 841.6496875 2371.32257812 841.984375 2372.00390625 C847.03104693 2383.0256473 846.95835554 2399.69007516 843.10546875 2411.0859375 C842.74066406 2412.04757813 842.37585938 2413.00921875 842 2414 C841.49386582 2415.44974494 840.99019685 2416.90035165 840.48828125 2418.3515625 C837.26420798 2427.51130387 833.63018094 2436.26201895 829.1875 2444.8984375 C827.871364 2448.33597693 827.67712106 2449.60461072 829 2453 C830.74692305 2455.59306084 830.74692305 2455.59306084 833 2458.125 C833.82113281 2459.094375 834.64226563 2460.06375 835.48828125 2461.0625 C836.31714844 2462.031875 837.14601563 2463.00125 838 2464 C839.40050247 2465.70450764 840.79636729 2467.41283667 842.1875 2469.125 C846.6067761 2474.52633746 851.03960877 2479.91647212 855.48168945 2485.29907227 C858.57800349 2489.05196611 861.66402916 2492.81248557 864.73046875 2496.58984375 C865.94459025 2498.0813174 867.15942151 2499.57221358 868.375 2501.0625 C868.96176514 2501.78211914 869.54853027 2502.50173828 870.15307617 2503.24316406 C873.10812905 2506.83081123 876.09627487 2510.19775848 879.5 2513.375 C890.74543895 2524.21282176 894.27269218 2542.10377182 897.80859375 2556.74609375 C898.15046132 2558.14044627 898.49279438 2559.53468474 898.83555603 2560.92881775 C899.9025589 2565.28296461 900.95275532 2569.6410654 902 2574 C902.1669059 2574.69298439 902.3338118 2575.38596878 902.50577545 2576.0999527 C905.0689764 2586.74380245 907.58051688 2597.39943646 910.0625 2608.0625 C910.33451359 2609.23103264 910.33451359 2609.23103264 910.6120224 2610.423172 C921.12951327 2655.64375074 930.70014334 2701.02145299 939.62890625 2746.58203125 C939.87701302 2747.84742863 940.12511978 2749.112826 940.38074493 2750.41656876 C942.87719543 2763.1528937 945.36649337 2775.89053126 947.82882977 2788.63349915 C956.26182994 2832.2483581 965.502287 2875.65442239 976.22979736 2918.76599121 C985.94295369 2957.9046071 994.16404542 2997.08779838 1000 3037 C1000.33 3037 1000.66 3037 1001 3037 C1001 2036.11 1001 1035.22 1001 4 C671.99 4 342.98 4 4 4 Z M4 3090 C4 3380.73 4 3671.46 4 3971 C333.01 3971 662.02 3971 1001 3971 C1001 3705.68 1001 3440.36 1001 3167 C1000.67 3167 1000.34 3167 1000 3167 C999.79020508 3168.00075562 999.79020508 3168.00075562 999.57617188 3169.02172852 C986.57764291 3230.16392483 954.19806372 3277.74015852 910.75 3321.375 C910.00540527 3322.12426758 909.26081055 3322.87353516 908.49365234 3323.64550781 C904.43437436 3327.69305639 900.28476689 3331.56565195 895.94238281 3335.30712891 C892.71544917 3338.11954191 889.61467154 3341.06457551 886.5 3344 C881.41388159 3348.76664017 876.30137108 3353.47255171 871 3358 C869.93200501 3358.92154289 868.8643278 3359.84345413 867.796875 3360.765625 C861.54942126 3366.15299055 855.2490319 3371.45666822 848.84375 3376.65625 C845.52313406 3379.39302138 842.25956291 3382.19106385 839 3385 C833.98823702 3389.31814961 828.91781618 3393.54906686 823.78125 3397.71875 C820.63616205 3400.29842888 817.53520324 3402.92631983 814.4375 3405.5625 C809.88720681 3409.43247486 805.27166922 3413.19960089 800.58984375 3416.91015625 C796.96869031 3419.83220315 793.43045431 3422.84821486 789.88671875 3425.86328125 C786.45428391 3428.78004513 782.99407185 3431.65693426 779.5 3434.5 C774.89751534 3438.24620845 770.36277589 3442.06522787 765.8425293 3445.90966797 C762.36756977 3448.85958904 758.85546927 3451.75664406 755.3125 3454.625 C750.91917078 3458.19815632 746.7157897 3461.9362423 742.53125 3465.75 C739.02200514 3468.86932876 735.36837877 3471.79749133 731.71875 3474.75 C729.07852271 3476.93501569 726.5327028 3479.19171391 724 3481.5 C719.76800544 3485.35271203 715.39649523 3488.98246207 710.9453125 3492.578125 C708.90983616 3494.25185886 706.91003496 3495.93612218 704.9296875 3497.671875 C694.68591597 3506.64751698 683.91305581 3514.8577332 673 3523 C671.8231665 3523.88486084 671.8231665 3523.88486084 670.62255859 3524.78759766 C659.20609861 3533.35178679 647.37880519 3540.90398818 635 3548 C634.360625 3548.37463379 633.72125 3548.74926758 633.0625 3549.13525391 C589.62571135 3574.50910166 532.28146237 3583.88810546 483.18676758 3571.8046875 C474.86605375 3569.56918311 466.92237625 3566.35401119 459 3563 C458.26136719 3562.69046387 457.52273438 3562.38092773 456.76171875 3562.06201172 C416.20196617 3544.95197599 378.98630622 3520.21081705 342.58276367 3495.74645996 C339.61214728 3493.75011657 336.63937924 3491.75750779 333.6550293 3489.78173828 C327.78056536 3485.89013172 321.99855884 3481.91161257 316.3125 3477.75 C310.36930117 3473.42601062 304.39472453 3469.15422195 298.375 3464.9375 C290.79687618 3459.6151654 283.37899862 3454.09895184 275.99707031 3448.50878906 C273.28864667 3446.46257169 270.56930795 3444.43110098 267.8503418 3442.39892578 C260.78864191 3437.11809067 253.76654707 3431.79036799 246.79589844 3426.38964844 C244.79621779 3424.84231534 242.79252104 3423.30025047 240.7890625 3421.7578125 C231.64415144 3414.69969972 222.65162815 3407.48577497 213.76171875 3400.109375 C210.80788563 3397.65967639 207.82446275 3395.25312393 204.8125 3392.875 C200.1843587 3389.19924832 195.71332017 3385.35224854 191.24145508 3381.48950195 C187.71166267 3378.44611523 184.13782764 3375.47704821 180.5 3372.5625 C175.50332797 3368.51054587 170.79835064 3364.1914743 166.12109375 3359.77954102 C163.21984778 3357.04472509 160.28796741 3354.37363569 157.26171875 3351.77734375 C152.45442556 3347.59427686 147.94086093 3343.12693232 143.43652344 3338.62182617 C142.00733526 3337.19482404 140.5703181 3335.77603875 139.1328125 3334.35742188 C133.30453259 3328.54125058 127.96668816 3322.56658071 123 3316 C122.4632666 3315.29157959 121.9265332 3314.58315918 121.37353516 3313.85327148 C119.8333449 3311.79082159 118.31748629 3309.71326195 116.8125 3307.625 C116.26279541 3306.86243896 115.71309082 3306.09987793 115.14672852 3305.31420898 C108.78773464 3296.41089422 102.86938182 3287.23062132 97 3278 C96.50677246 3277.22575684 96.01354492 3276.45151367 95.50537109 3275.65380859 C92.51833647 3270.95932713 89.55189736 3266.25222107 86.59521484 3261.53857422 C84.92967243 3258.88808293 83.25607447 3256.24278542 81.58203125 3253.59765625 C66.76783477 3230.12223369 52.52128742 3206.2444323 39 3182 C38.48276367 3181.07380859 37.96552734 3180.14761719 37.43261719 3179.19335938 C21.5359252 3150.60410768 7.07545697 3123.13574411 5 3090 C4.67 3090 4.34 3090 4 3090 Z " fill="#B7B7B8" transform="translate(0,0)"/>
<path d="M0 0 C4.82602063 -0.04464312 9.65213729 -0.07719406 14.47825901 -0.10880513 C18.0061291 -0.13324808 21.53334857 -0.1665724 25.06084431 -0.22421381 C28.72104842 -0.28101676 32.38031783 -0.30838756 36.04087592 -0.32865021 C37.56589703 -0.36594152 37.56589703 -0.36594152 39.12172664 -0.40398619 C46.74198819 -0.3994096 53.44982478 1.54285282 59.10198814 6.89150861 C70.4316192 19.98433184 72.61145952 40.93272903 76.28286505 57.17006806 C76.57306525 58.4460788 76.86326545 59.72208954 77.16225959 61.03676727 C78.48193143 66.84376551 79.7935773 72.6524914 81.09522773 78.4635556 C82.79609396 86.05230942 84.5458482 93.62862139 86.32119513 101.20025948 C92.76876136 128.71011155 98.82058199 156.25068776 104.30892707 183.96743134 C104.93826511 187.14127264 105.5711619 190.31439928 106.20420504 193.48750332 C109.4532169 209.77418228 112.65871562 226.06888379 115.8180213 242.37319306 C119.20394294 259.84288299 122.6827868 277.29298109 126.22036505 294.73256806 C126.44691087 295.84982836 126.44691087 295.84982836 126.67803336 296.98965958 C132.81846617 327.25870811 139.50330579 357.31321301 147.06704474 387.26015595 C150.10248464 399.30145239 152.85626151 411.38959444 155.4820838 423.52700165 C156.38135297 427.61812801 157.31437783 431.70079434 158.25161505 435.78334931 C164.18966795 461.72848659 168.69172833 487.70128939 172.03286505 514.10756806 C172.14004859 514.95033295 172.24723212 515.79309784 172.35766364 516.66140106 C174.40268782 532.87321171 175.49610313 548.95491242 175.47036505 565.29506806 C175.46942847 566.07220154 175.46849189 566.84933502 175.46752692 567.65001801 C175.30310939 631.26016488 158.80190937 687.57067676 118.28286505 737.17006806 C117.85038459 737.7016452 117.41790412 738.23322235 116.97231818 738.7809079 C106.64337851 751.41250217 95.34845752 763.17263009 83.84536505 774.73256806 C83.20768195 775.37492401 82.56999884 776.01727997 81.91299201 776.67910126 C78.13592275 780.44339188 74.23953642 784.01227323 70.20449591 787.49794891 C67.33810241 789.99215919 64.56223689 792.57981873 61.78286505 795.17006806 C57.01750866 799.58624179 52.21254917 803.93715908 47.28286505 808.17006806 C46.21250947 809.09449734 45.1422014 810.01898164 44.07192755 810.94350556 C37.82645765 816.32750166 31.52902627 821.6290666 25.12661505 826.82631806 C21.80599696 829.56309121 18.54248946 832.36120063 15.28286505 835.17006806 C9.3617705 840.26970199 3.35433479 845.24992888 -2.71713495 850.17006806 C-9.16331752 855.40818127 -15.55138346 860.70548028 -21.88070916 866.08364227 C-26.17825119 869.72961737 -30.53371296 873.29984086 -34.90463495 876.85756806 C-38.59886949 879.89504979 -42.241886 882.99078852 -45.88559198 886.08852509 C-49.25564484 888.94853743 -52.65739802 891.76262538 -56.09213495 894.54506806 C-61.79728898 899.19033861 -67.3409211 904.01163601 -72.88900995 908.84194306 C-78.22487144 913.48721783 -83.60317548 918.08273028 -88.9788537 922.68178681 C-90.73666413 924.18678855 -92.4927794 925.69374508 -94.24838495 927.20131806 C-97.73465595 930.19478054 -101.22458572 933.18393343 -104.71713495 936.17006806 C-105.25161248 936.62736298 -105.78609002 937.0846579 -106.33676385 937.55581024 C-161.14009355 984.38560104 -217.20324767 1020.6719072 -292.20150995 1014.90200165 C-326.66486278 1011.18773481 -358.64829304 991.95689735 -387.71713495 974.17006806 C-388.43984582 973.72900726 -389.1625567 973.28794647 -389.9071679 972.8335202 C-402.79471085 964.9557648 -415.50732749 956.83655928 -428.11142205 948.51332977 C-430.91090725 946.66592892 -433.71520058 944.8259934 -436.51986932 942.98647431 C-447.44738159 935.79620937 -458.15121856 928.36611309 -468.70123529 920.63359955 C-472.15649565 918.12510051 -475.65646327 915.68066452 -479.15463495 913.23256806 C-488.45244932 906.6941965 -497.59604907 899.952088 -506.71713495 893.17006806 C-507.30897577 892.73033661 -507.90081659 892.29060516 -508.51059198 891.83754852 C-515.75350336 886.44966246 -522.91753466 880.96112764 -530.06283807 875.4449704 C-531.73171044 874.15883529 -533.40361684 872.87674917 -535.07650995 871.59584931 C-545.13782554 863.8887462 -555.00170091 855.95229177 -564.82919549 847.95034149 C-568.48138602 844.97821998 -572.14798789 842.02752918 -575.84213495 839.10756806 C-580.48731006 835.407042 -584.9817183 831.54135446 -589.47543573 827.65981415 C-593.00528347 824.61631375 -596.57921701 821.64718861 -600.21713495 818.73256806 C-605.21380698 814.68061393 -609.9187843 810.36154235 -614.5960412 805.94960907 C-617.54398943 803.17076996 -620.52498273 800.45398849 -623.59213495 797.80678681 C-635.88062179 787.10985888 -647.18074995 775.38304592 -656.71713495 762.17006806 C-657.19312127 761.5171579 -657.6691076 760.86424774 -658.15951776 760.19155243 C-665.73419126 749.76714795 -672.81433611 739.04764414 -679.71713495 728.17006806 C-680.19118768 727.4253122 -680.66524041 726.68055634 -681.15365838 725.91323212 C-766.22966957 592.18988253 -766.22966957 592.18988253 -765.96713495 534.98256806 C-765.9637008 533.77054718 -765.96026666 532.55852631 -765.95672845 531.30977753 C-765.86068837 502.49441553 -763.28828603 474.6502968 -759.01919793 446.18563202 C-758.74169163 444.33392649 -758.46729908 442.48175502 -758.19320916 440.62954071 C-754.26993183 414.30007928 -748.94637278 388.37299137 -742.5335412 362.55288056 C-741.10510444 356.79701389 -739.76920715 351.03162158 -738.52963495 345.23256806 C-736.84687938 337.47936131 -734.7855429 329.85730239 -732.59506463 322.2340329 C-731.71913266 319.17704007 -730.85133471 316.11784119 -729.98523187 313.05805328 C-729.11738252 309.99331565 -728.24712501 306.92926485 -727.37637567 303.86535004 C-726.94471189 302.34605418 -726.51350141 300.82662944 -726.08279657 299.30706146 C-705.69343653 227.44169751 -679.01143675 154.99786575 -640.32943963 90.84780243 C-638.82170157 88.34373352 -637.33342721 85.82918285 -635.84994745 83.31069306 C-624.18749443 63.66965783 -610.39994995 45.76411696 -594.71713495 29.17006806 C-594.24936639 28.66830048 -593.78159784 28.1665329 -593.29965448 27.64956024 C-585.53836802 19.36339448 -577.09157619 12.56184394 -567.71713495 6.17006806 C-566.45327849 5.15686458 -566.45327849 5.15686458 -565.16388958 4.12319234 C-560.77952353 1.6387649 -557.64478784 1.60340943 -552.70138501 1.646642 C-551.79943638 1.63864987 -550.89748774 1.63065775 -549.96820732 1.62242344 C-546.93526497 1.6004253 -543.90304946 1.6068843 -540.87004327 1.61312225 C-538.67696515 1.60311841 -536.48389442 1.59136742 -534.29083412 1.57801679 C-528.25405075 1.54634676 -522.21745336 1.5395514 -516.18059694 1.53671959 C-509.67010357 1.52934071 -503.15971276 1.4990282 -496.64927911 1.47149017 C-485.35101357 1.42617413 -474.05277395 1.39674157 -462.75443696 1.37675598 C-450.86095456 1.35566046 -438.9675387 1.32635107 -427.07410478 1.28619507 C-426.33284062 1.28369733 -425.59157646 1.2811996 -424.82784975 1.27862618 C-421.06162102 1.26589489 -417.2953928 1.25302078 -413.52916475 1.24009341 C-386.81198992 1.14866107 -360.09479321 1.07585416 -333.37753534 1.01381806 C-307.58811303 0.95389862 -281.79873796 0.88530932 -256.00937127 0.80483368 C-255.21934737 0.80237167 -254.42932346 0.79990967 -253.61535944 0.79737305 C-246.46443925 0.77508079 -239.3135194 0.75268475 -232.1625999 0.73017128 C-192.07994114 0.60401939 -151.99726175 0.48382769 -111.91454378 0.37801819 C-109.79923214 0.3724225 -107.68392062 0.36678026 -105.56860912 0.36113 C-90.86487487 0.32196341 -76.16115229 0.28714908 -61.45738172 0.26419571 C-56.52668273 0.25621243 -51.59598411 0.2480304 -46.66528558 0.2397702 C-45.48467116 0.23787407 -44.30405675 0.23597794 -43.08766614 0.23402435 C-28.72434589 0.20961435 -14.36265435 0.13983771 0 0 Z " fill="#FDFDFD" transform="translate(799.7171349450946,2531.8299319446087)"/>
<path d="M0 0 C331.65 0 663.3 0 1005 0 C1005.13690132 346.23926065 1005.13690132 346.23926065 1005.17383855 441.80746006 C1005.17454464 443.63400188 1005.17525073 445.4605437 1005.17595683 447.28708552 C1005.17631088 448.20299383 1005.17666493 449.11890213 1005.17702971 450.06256522 C1005.17813291 452.91616001 1005.17923649 455.76975479 1005.18034018 458.62334957 C1005.22021841 561.73208286 1005.25930474 664.84081642 1005.32718385 851.27764783 C1005.32835481 854.51093272 1005.32952606 857.74421762 1005.33069739 860.97750252 C1005.36395236 952.77394405 1005.39695172 1044.57038567 1005.42961312 1136.36682741 C1005.4308246 1139.77174781 1005.43203609 1143.17666821 1005.4332476 1146.58158861 C1005.43364774 1147.70617371 1005.43404787 1148.83075881 1005.43446013 1149.98942225 C1005.44949481 1192.24263766 1005.4645873 1234.49585305 1005.47971445 1276.74906842 C1005.48135709 1281.33744036 1005.48299906 1285.9258123 1005.48464044 1290.51418424 C1005.5229698 1397.66039683 1005.5622602 1504.80660893 1005.60510254 1611.95281982 C1005.60554641 1613.06294966 1005.60599029 1614.1730795 1005.60644761 1615.31684963 C1005.61718132 1642.15649538 1005.62797032 1668.9961411 1005.63877341 1695.83578682 C1005.68287016 1805.39542639 1005.72674448 1914.95506604 1005.87576344 2339.94917711 C1005.87820699 2347.46576437 1005.88066074 2354.98235163 1005.88311923 2362.49893889 C1005.91725709 2466.90395952 1005.94934591 2571.30898069 1005.8097406 3401.64056692 C1005.80548225 3406.2181765 1005.80126471 3410.79578612 1005.79706775 3415.37339576 C1005.79126629 3421.70087088 1005.78541528 3428.02834596 1005.7795257 3434.35582101 C1005.77741778 3436.62402418 1005.77532026 3438.89222736 1005.77323694 3441.16043056 C1005.60936603 3619.10708166 1005.28496768 3797.05351309 1005 3975 C673.35 3975 341.7 3975 0 3975 C0 2663.25 0 1351.5 0 0 Z M4 4 C4 1005.88 4 2007.76 4 3040 C4.33 3040 4.66 3040 5 3040 C5.05422119 3039.23187988 5.10844238 3038.46375977 5.16430664 3037.67236328 C12.19242778 2941.84703731 35.73741223 2847.75224052 170.59667969 2556.6796875 C172.61492804 2554.26396922 174.54838969 2551.78217414 176.5 2549.3125 C184.09647698 2540.03724358 192.86772995 2531.744165 202 2524 C208.15227231 2518.77257908 213.50798847 2513.41910838 218.51953125 2507.0859375 C221.42264601 2503.47418842 224.44997668 2499.98762201 227.5 2496.5 C231.23470734 2492.21844967 234.92461579 2487.91665109 238.5 2483.5 C243.62730136 2477.17289137 248.98983868 2471.05585974 254.3359375 2464.9140625 C257.00336636 2461.84589316 259.66087171 2458.7693297 262.3125 2455.6875 C262.76729736 2455.1618042 263.22209473 2454.6361084 263.69067383 2454.09448242 C264.59720616 2453.0395463 265.48953981 2451.97224066 266.36717224 2450.8931427 C268 2449 268 2449 269.87335205 2447.27966309 C278.27738795 2438.70610797 278.84580032 2427.33049396 280.68359375 2415.95703125 C281.07070444 2413.70077601 281.46048382 2411.44497718 281.85279846 2409.18962097 C282.87387997 2403.27675658 283.85831003 2397.35836152 284.83514404 2391.43804932 C285.83558917 2385.41642189 286.87169422 2379.4009459 287.90429688 2373.38476562 C289.40826861 2364.59263588 290.89855025 2355.79839111 292.36108398 2346.99926758 C292.58930847 2345.62992065 292.58930847 2345.62992065 292.82214355 2344.23291016 C293.60634963 2339.49544454 294.34223194 2334.75670697 295 2330 C293.72769531 2329.21689453 293.72769531 2329.21689453 292.4296875 2328.41796875 C264.67202376 2311.0978896 242.33153461 2288.50877934 234 2256 C230.19358793 2234.9609224 235.10266618 2215.57437211 247 2198 C255.25298008 2186.70558304 265.17884946 2177.81482848 276.5 2169.75 C277.22050537 2169.22744629 277.94101074 2168.70489258 278.68334961 2168.16650391 C283.03374901 2165.09615523 287.0343284 2163.25998959 292.0625 2161.4375 C295.2775244 2159.12472391 296.80039252 2157.89711062 297.67260742 2153.97705078 C297.69170166 2152.85282715 297.7107959 2151.72860352 297.73046875 2150.5703125 C297.7555249 2149.35158447 297.78058105 2148.13285645 297.80639648 2146.87719727 C297.72298791 2141.23538361 297.45237588 2135.6239602 297 2130 C296.19900879 2129.67169189 295.39801758 2129.34338379 294.57275391 2129.00512695 C293.50976074 2128.56644287 292.44676758 2128.12775879 291.3515625 2127.67578125 C289.77882568 2127.02863159 289.77882568 2127.02863159 288.17431641 2126.3684082 C279.10847612 2122.46023755 271.41867388 2117.500644 264 2111 C263.31164062 2110.40703125 262.62328125 2109.8140625 261.9140625 2109.203125 C252.96660193 2100.92760811 246.23016871 2089.36857841 242 2078 C241.608125 2076.96488281 241.21625 2075.92976563 240.8125 2074.86328125 C234.3625726 2054.8640272 236.75737965 2033.20144126 245.875 2014.5625 C248.75704441 2008.95030812 251.89487433 2003.81211954 256 1999 C256.4228125 1998.43539063 256.845625 1997.87078125 257.28125 1997.2890625 C263.91779512 1988.76187371 273.29192976 1983.14935804 282.6875 1978.125 C283.37561768 1977.75584473 284.06373535 1977.38668945 284.77270508 1977.00634766 C289.82571957 1974.39294756 294.47710932 1972.84096356 300 1971 C300 1959.12 300 1947.24 300 1935 C296.04 1933.35 292.08 1931.7 288 1930 C265.86174922 1919.5476294 246.73185281 1903.59445434 238 1880 C233.45769084 1864.27518897 233.86171426 1847.95837001 241.5 1833.3125 C253.46691209 1811.70098983 275.69558318 1798.92176673 298 1790 C298 1776.8 298 1763.6 298 1750 C294.761875 1748.96875 291.52375 1747.9375 288.1875 1746.875 C269.95622594 1740.86441389 254.30329989 1731.58193724 244.96728516 1714.06201172 C243.95229948 1712.01781388 242.99306426 1709.95892234 242.0625 1707.875 C241.77987305 1707.24263428 241.49724609 1706.61026855 241.20605469 1705.95874023 C234.5022065 1689.92091447 234.83470677 1670.0992305 241 1654 C249.2329318 1634.04034958 262.99867438 1618.79644787 283.06640625 1610.1953125 C287.6589472 1608.31308769 292.2907137 1606.5697621 297 1605 C297.02554493 1597.95655093 297.04294803 1590.91311399 297.05493164 1583.86962891 C297.0599323 1581.4780228 297.06673498 1579.08641971 297.07543945 1576.69482422 C297.08769326 1573.2392502 297.09327114 1569.78371693 297.09765625 1566.328125 C297.10539818 1564.74768402 297.10539818 1564.74768402 297.11329651 1563.13531494 C297.11382157 1556.04367843 296.69333898 1549.05711082 296 1542 C294.74445313 1541.75765625 293.48890625 1541.5153125 292.1953125 1541.265625 C270.22562671 1536.91690922 253.79764634 1529.08179527 241 1510 C230.56360715 1492.28975758 228.66361827 1472.86726558 233.45214844 1453.02294922 C239.1322392 1432.04913813 252.21584927 1415.5702753 270.71875 1404.3515625 C279.73142548 1399.24955943 289.31991343 1395.60793775 299 1392 C299.06731323 1391.00262817 299.06731323 1391.00262817 299.13598633 1389.98510742 C303.30320768 1328.77417855 303.30320768 1328.77417855 308 1301 C308.17225098 1299.97938477 308.34450195 1298.95876953 308.52197266 1297.90722656 C317.8648088 1244.47276022 344.57989136 1197.63498512 389 1166 C390.03769531 1165.24332031 391.07539063 1164.48664063 392.14453125 1163.70703125 C411.2297116 1150.15143735 432.86704599 1140.37113052 455 1133 C456.28414795 1132.5678418 456.28414795 1132.5678418 457.59423828 1132.12695312 C483.35327657 1123.58582477 510.86410804 1118.74737366 538 1118 C539.18650146 1117.96712891 539.18650146 1117.96712891 540.39697266 1117.93359375 C593.14969895 1116.7262073 646.92747948 1127.87635803 691 1158 C691.63631348 1158.43425293 692.27262695 1158.86850586 692.92822266 1159.31591797 C701.7711486 1165.42318224 709.83675179 1172.12188459 717.54931641 1179.60058594 C718.87433663 1180.87877778 720.22314182 1182.13219501 721.57421875 1183.3828125 C734.47424732 1195.63887829 744.21256582 1210.64076675 753 1226 C753.59506348 1227.02746338 753.59506348 1227.02746338 754.20214844 1228.07568359 C767.49743392 1251.23934736 775.34753398 1276.79927031 780 1303 C780.76441406 1303.15855469 781.52882813 1303.31710937 782.31640625 1303.48046875 C804.87404214 1308.39374444 824.90583568 1316.96050754 838 1336.8125 C847.97265813 1352.73309658 850.42840586 1371.96041104 846.875 1390.25 C840.79408749 1414.37749156 826.05824081 1435.50939373 805 1449 C797.92288169 1453.17668627 790.65553829 1457.0037807 783 1460 C780.11349844 1482.02793425 780.11349844 1482.02793425 784.60546875 1502.94335938 C788.61725589 1507.05830675 793.4644547 1509.18231192 798.80371094 1511.13183594 C801.80309568 1512.31745311 804.04865172 1514.05199486 806.5 1516.125 C807.24894531 1516.74890625 807.99789062 1517.3728125 808.76953125 1518.015625 C824.47756387 1531.99054719 836.98208688 1549.61911994 838.34765625 1571.27734375 C839.08678566 1592.76040581 830.54024722 1611.1131065 816.35546875 1626.953125 C810.05903382 1633.63932901 803.12141679 1639.22057084 795.640625 1644.52734375 C794.76458618 1645.16168335 794.76458618 1645.16168335 793.87084961 1645.80883789 C792 1647 792 1647 789.78735352 1647.89233398 C787.25152538 1649.01328624 785.78437247 1649.85981019 784 1652 C782.94096854 1657.07130023 783.19425129 1662.04929757 783.4375 1667.1875 C783.48475173 1668.64185074 783.52958505 1670.09628204 783.57202148 1671.55078125 C783.63827555 1673.71229162 783.71034255 1675.87270633 783.80207825 1678.03329468 C783.96803143 1681.99263283 783.96823189 1685.87737616 783.7265625 1689.83203125 C783.51602109 1694.27294469 783.52967816 1697.76057202 785 1702 C789.01731631 1705.41261556 793.1687858 1707.19172734 798.02392578 1709.12695312 C811.44808279 1715.05786312 823.10793668 1728.37056461 830 1741 C830.70769531 1742.29164063 830.70769531 1742.29164063 831.4296875 1743.609375 C839.55827039 1759.86654077 840.29733109 1778.82063696 834.72314453 1795.97070312 C827.47544019 1816.30929816 814.31044069 1830.39789386 794.82421875 1839.67578125 C793.42623047 1840.33126953 793.42623047 1840.33126953 792 1841 C790.02 1841.99 788.04 1842.98 786 1844 C786 1857.53 786 1871.06 786 1885 C791.94 1887.64 797.88 1890.28 804 1893 C820.48640783 1903.30400489 833.8172533 1916.36461885 838.68359375 1935.71875 C842.31303103 1953.54053858 837.84545524 1970.55349715 827.89794922 1985.67529297 C819.4036491 1997.95043884 807.50532594 2011.53088114 794.15625 2018.48046875 C791.1798011 2020.10664659 789.23003523 2021.43650406 787 2024 C786.44720972 2027.23021048 786.44720972 2027.23021048 786.6953125 2030.90625 C786.71412476 2031.59843628 786.73293701 2032.29062256 786.75231934 2033.00378418 C786.79512887 2034.52331393 786.84747102 2036.04259713 786.90802002 2037.56152344 C787.00341416 2040.09051263 787.06183014 2042.61814157 787.11083984 2045.1484375 C787.21759041 2050.59962545 787.35715018 2056.04965633 787.5 2061.5 C787.5483618 2063.40233906 787.59653996 2065.3046828 787.64453125 2067.20703125 C787.76091092 2071.804744 787.8797508 2076.4023869 788 2081 C789.21961426 2081.19045898 790.43922852 2081.38091797 791.69580078 2081.57714844 C793.32068477 2081.83759916 794.94551943 2082.09835771 796.5703125 2082.359375 C797.37122314 2082.4836084 798.17213379 2082.6078418 798.99731445 2082.73583984 C816.09756873 2085.50885405 831.26277112 2093.73868278 841.93359375 2107.4921875 C852.71531596 2123.11988807 855.39639137 2143.0486344 852.3515625 2161.5625 C848.97450727 2178.52286459 840.79421684 2195.25906009 828 2207 C827.195625 2207.845625 826.39125 2208.69125 825.5625 2209.5625 C819.95453989 2214.89690108 814.00287867 2218.69189473 807.125 2222.1875 C806.47748779 2222.52048096 805.82997559 2222.85346191 805.1628418 2223.1965332 C801.43072881 2225.03920321 797.73566648 2226.4453825 793.73779297 2227.61450195 C792.84752411 2227.87640823 791.95725525 2228.13831451 791.04000854 2228.40815735 C790.36680573 2228.60346542 789.69360291 2228.7987735 789 2229 C788.85661994 2263.01416297 789.21567972 2296.99470957 790 2331 C790.60178574 2331.28230972 791.20357147 2331.56461945 791.82359314 2331.85548401 C794.58070729 2333.1513815 797.33527969 2334.45259763 800.08984375 2335.75390625 C801.03645874 2336.19786743 801.98307373 2336.64182861 802.95837402 2337.09924316 C818.32492192 2344.37321028 833.37060258 2354.28451588 841 2370 C841.32484375 2370.66128906 841.6496875 2371.32257812 841.984375 2372.00390625 C847.03104693 2383.0256473 846.95835554 2399.69007516 843.10546875 2411.0859375 C842.74066406 2412.04757813 842.37585938 2413.00921875 842 2414 C841.49386582 2415.44974494 840.99019685 2416.90035165 840.48828125 2418.3515625 C837.26420798 2427.51130387 833.63018094 2436.26201895 829.1875 2444.8984375 C827.871364 2448.33597693 827.67712106 2449.60461072 829 2453 C830.74692305 2455.59306084 830.74692305 2455.59306084 833 2458.125 C833.82113281 2459.094375 834.64226563 2460.06375 835.48828125 2461.0625 C836.31714844 2462.031875 837.14601563 2463.00125 838 2464 C839.40050247 2465.70450764 840.79636729 2467.41283667 842.1875 2469.125 C846.6067761 2474.52633746 851.03960877 2479.91647212 855.48168945 2485.29907227 C858.57800349 2489.05196611 861.66402916 2492.81248557 864.73046875 2496.58984375 C865.94459025 2498.0813174 867.15942151 2499.57221358 868.375 2501.0625 C868.96176514 2501.78211914 869.54853027 2502.50173828 870.15307617 2503.24316406 C873.10812905 2506.83081123 876.09627487 2510.19775848 879.5 2513.375 C890.74543895 2524.21282176 894.27269218 2542.10377182 897.80859375 2556.74609375 C898.15046132 2558.14044627 898.49279438 2559.53468474 898.83555603 2560.92881775 C899.9025589 2565.28296461 900.95275532 2569.6410654 902 2574 C902.1669059 2574.69298439 902.3338118 2575.38596878 902.50577545 2576.0999527 C905.0689764 2586.74380245 907.58051688 2597.39943646 910.0625 2608.0625 C910.33451359 2609.23103264 910.33451359 2609.23103264 910.6120224 2610.423172 C921.12951327 2655.64375074 930.70014334 2701.02145299 939.62890625 2746.58203125 C939.87701302 2747.84742863 940.12511978 2749.112826 940.38074493 2750.41656876 C942.87719543 2763.1528937 945.36649337 2775.89053126 947.82882977 2788.63349915 C956.26182994 2832.2483581 965.502287 2875.65442239 976.22979736 2918.76599121 C985.94295369 2957.9046071 994.16404542 2997.08779838 1000 3037 C1000.33 3037 1000.66 3037 1001 3037 C1001 2036.11 1001 1035.22 1001 4 C671.99 4 342.98 4 4 4 Z M377.5 1214.625 C355.70899553 1239.68072175 343.24276783 1269.64941805 337 1302 C336.85224121 1302.75667969 336.70448242 1303.51335937 336.55224609 1304.29296875 C335.55602492 1309.50937478 334.7422403 1314.74193585 334 1320 C333.81872559 1321.24644287 333.81872559 1321.24644287 333.63378906 1322.51806641 C331.36897308 1338.52766823 330.32589742 1354.62297694 329.3125 1370.75 C329.21243652 1372.30039474 329.21243652 1372.30039474 329.11035156 1373.8821106 C328.19295045 1388.2728422 327.83198505 1402.58093912 328 1417 C327.23308838 1417.03544922 326.46617676 1417.07089844 325.67602539 1417.10742188 C304.92835561 1418.18762506 285.91878641 1426.08928929 271.40234375 1440.97265625 C261.81907251 1453.04913627 258.54808761 1466.20242937 260.2734375 1481.41015625 C262.19893259 1490.25653462 266.79405381 1498.49115516 274 1504 C290.5023869 1514.40106773 307.19171869 1513.90315443 326 1512 C325.99214478 1513.57793335 325.99214478 1513.57793335 325.98413086 1515.18774414 C325.86178942 1542.60962111 326.09447923 1570.01918148 326.5 1597.4375 C326.51195782 1598.24627216 326.52391563 1599.05504433 326.53623581 1599.88832474 C326.68516028 1609.92563973 326.83983934 1619.96285781 327 1630 C326.03759399 1630.06416611 325.07518799 1630.12833221 324.08361816 1630.19444275 C322.82174683 1630.28101639 321.55987549 1630.36759003 320.25976562 1630.45678711 C319.00860962 1630.54157822 317.75745361 1630.62636932 316.46838379 1630.71372986 C301.69453433 1631.9331197 285.96953958 1638.7339732 276 1650 C266.83539623 1662.02158551 264.2860974 1674.13709113 266 1689 C268.52017861 1699.83555053 275.5071194 1708.36337034 284.75 1714.375 C298.67848651 1722.06945342 312.1205204 1722 328 1722 C327.67 1751.04 327.34 1780.08 327 1810 C316.605 1813.96 316.605 1813.96 306 1818 C289.5890068 1825.60215126 273.31033991 1834.04690659 265 1851 C262.67591202 1858.55328595 263.38472351 1866.32412565 266.61328125 1873.4609375 C275.18951206 1889.16389532 288.8672751 1899.93499598 305.5859375 1906 C313.27914533 1908.25338811 321.01131467 1909.04666044 329 1909 C328.99777939 1909.63717453 328.99555878 1910.27434906 328.99327087 1910.93083191 C328.73449948 1952.47887665 328.73449948 1952.47887665 330 1994 C328.99839844 1994.13277344 327.99679687 1994.26554687 326.96484375 1994.40234375 C311.05248386 1996.69835553 295.18224198 2002.13630656 283 2013 C282.40058594 2013.51949219 281.80117188 2014.03898437 281.18359375 2014.57421875 C272.48473703 2022.63428253 267.23622522 2033.24127118 266.53125 2045.11328125 C266.49721286 2046.8460512 266.48727351 2048.57944251 266.5 2050.3125 C266.50572021 2051.22821777 266.51144043 2052.14393555 266.51733398 2053.08740234 C266.72047905 2060.84248222 268.29360819 2067.13282736 272 2074 C272.50789063 2074.96164062 273.01578125 2075.92328125 273.5390625 2076.9140625 C281.59728185 2090.77725504 295.08190519 2099.81967494 310.41357422 2103.92456055 C315.93034868 2105.28083754 321.36785432 2106.19540776 327 2107 C327 2129.77 327 2152.54 327 2176 C325.35 2176.33 323.7 2176.66 322 2177 C319.59292112 2178.04047394 319.59292112 2178.04047394 317.19140625 2179.37109375 C316.28616211 2179.85795654 315.38091797 2180.34481934 314.44824219 2180.84643555 C313.49594727 2181.37148682 312.54365234 2181.89653809 311.5625 2182.4375 C310.08958496 2183.24731323 310.08958496 2183.24731323 308.58691406 2184.07348633 C289.09988048 2194.95774655 270.09082544 2208.72752367 262.75 2230.75 C260.11717324 2242.69174995 262.66680652 2253.33361304 268 2264 C268.43699219 2264.89460938 268.87398438 2265.78921875 269.32421875 2266.7109375 C276.8314537 2280.81773164 288.86115811 2292.121017 302 2301 C302.804375 2301.55558594 303.60875 2302.11117187 304.4375 2302.68359375 C312.00097716 2307.19357253 320.43266426 2306.89067205 329 2307 C328.80976761 2307.78784378 328.61953522 2308.57568756 328.42353821 2309.3874054 C326.56989794 2317.21586856 325.04090756 2325.04461579 323.73046875 2332.98046875 C323.52902252 2334.17953857 323.32757629 2335.3786084 323.12002563 2336.61401367 C322.69272914 2339.15941737 322.26714424 2341.70510891 321.84317017 2344.25106812 C320.84451123 2350.24669379 319.83514209 2356.24051029 318.82612419 2362.2343998 C318.49360149 2364.21034766 318.16154127 2366.18637333 317.82948303 2368.16239929 C315.98404143 2379.13234673 314.10335998 2390.095411 312.11132812 2401.03979492 C310.91778301 2407.62477055 309.8016367 2414.20648744 308.81312561 2420.82502747 C308.26179 2424.49051566 307.6830631 2428.15146817 307.10238647 2431.81240845 C306.83043598 2433.57407553 306.57119517 2435.3377621 306.32608032 2437.10336304 C304.75855069 2448.36428618 302.81196543 2455.18766905 294 2463 C292.69059184 2464.37629125 291.39432858 2465.76524102 290.11328125 2467.16796875 C288.84740735 2468.50880758 287.58046323 2469.84863677 286.3125 2471.1875 C284.92940135 2472.65207358 283.54659511 2474.11692334 282.1640625 2475.58203125 C281.47473633 2476.31244629 280.78541016 2477.04286133 280.07519531 2477.79541016 C276.1766689 2481.93702115 272.30194004 2486.10086881 268.42895508 2490.26635742 C267.88907959 2490.84619385 267.3492041 2491.42603027 266.79296875 2492.0234375 C266.08950317 2492.78019775 266.08950317 2492.78019775 265.37182617 2493.55224609 C264.39014352 2494.58826284 263.3694222 2495.58782832 262.32543945 2496.56103516 C260.77416764 2497.91911238 260.77416764 2497.91911238 261 2500 C448.44 2500 635.88 2500 829 2500 C824.51089896 2493.96375814 824.51089896 2493.96375814 819.84375 2488.09765625 C819.30266602 2487.4430542 818.76158203 2486.78845215 818.20410156 2486.11401367 C817.36057129 2485.0985144 817.36057129 2485.0985144 816.5 2484.0625 C815.90413086 2483.34102783 815.30826172 2482.61955566 814.69433594 2481.8762207 C811.48824284 2477.99527101 808.27063562 2474.12409317 805.046875 2470.2578125 C804.41072266 2469.49202881 803.77457031 2468.72624512 803.11914062 2467.93725586 C801.89723194 2466.46652851 800.67210009 2464.9984715 799.44335938 2463.53344727 C798.88970703 2462.86627686 798.33605469 2462.19910645 797.765625 2461.51171875 C797.27868164 2460.92865967 796.79173828 2460.34560059 796.29003906 2459.74487305 C795.86432617 2459.16906494 795.43861328 2458.59325684 795 2458 C794.55366211 2457.40388916 794.10732422 2456.80777832 793.64746094 2456.19360352 C792.63596406 2452.76664294 794.29881816 2450.38535064 795.875 2447.390625 C796.19654053 2446.74615417 796.51808105 2446.10168335 796.84936523 2445.43768311 C797.8847402 2443.36724481 798.94069553 2441.30828408 800 2439.25 C805.37747194 2428.7017838 810.09625546 2418.18596862 814 2407 C814.56581787 2405.4061145 814.56581787 2405.4061145 815.14306641 2403.7800293 C817.09462692 2397.44885564 817.62903379 2387.03505051 814.5625 2381 C801.44475831 2365.64264387 780.77890745 2357.44427425 762 2351 C761.34 2351 760.68 2351 760 2351 C760.00222061 2350.30068359 760.00444122 2349.60136719 760.00672913 2348.88085938 C760.03469774 2339.58724923 760.05214887 2330.29364469 760.0625 2321 C760.06335602 2320.2370739 760.06421204 2319.4741478 760.06509399 2318.68810272 C760.09208664 2291.33061017 759.86495163 2263.97993274 759.5 2236.625 C759.48206327 2235.27994385 759.48206327 2235.27994385 759.46376419 2233.90771484 C759.31679359 2222.93836497 759.16228343 2211.96913392 759 2201 C759.65811676 2201.01112823 760.31623352 2201.02225647 760.99429321 2201.03372192 C764.00917152 2201.07820694 767.02398046 2201.10563725 770.0390625 2201.1328125 C771.07426025 2201.15061768 772.10945801 2201.16842285 773.17602539 2201.18676758 C781.49932744 2201.24298376 787.64287486 2200.10176003 795 2196 C796.21816406 2195.33097656 796.21816406 2195.33097656 797.4609375 2194.6484375 C810.01687546 2186.97774502 818.75903978 2175.02779148 823 2161 C825.21183658 2148.61371514 825.73693842 2135.92811042 818.75 2125.0546875 C812.78333948 2117.22344557 802.76516715 2112.20588478 793.13232422 2110.70996094 C786.8380709 2109.910287 780.58747341 2109.85046784 774.25 2109.875 C773.23550781 2109.87113281 772.22101562 2109.86726563 771.17578125 2109.86328125 C769.70431641 2109.86521484 769.70431641 2109.86521484 768.203125 2109.8671875 C767.32301758 2109.86831543 766.44291016 2109.86944336 765.53613281 2109.87060547 C762.56628694 2109.96029877 762.56628694 2109.96029877 758 2111 C758 2076.68 758 2042.36 758 2007 C759.65 2006.34 761.3 2005.68 763 2005 C765.59407748 2003.49428614 768.03647498 2001.77234385 770.5 2000.0625 C771.2027002 1999.57523438 771.90540039 1999.08796875 772.62939453 1998.5859375 C788.55808431 1987.37859348 806.76636388 1973.03921096 811 1953 C811.99823198 1944.90322946 809.97434507 1938.54283906 805.3125 1931.9375 C793.99098657 1917.87470003 776.24066551 1910.99117153 759 1907 C758.01 1907 757.02 1907 756 1907 C756 1877.63 756 1848.26 756 1818 C759.3 1818 762.6 1818 766 1818 C780.41071908 1816.00392067 791.43266292 1809.98012319 800.8203125 1798.83984375 C807.86596051 1789.08569286 810.53400162 1777.90869679 809 1766 C804.97314559 1751.22892786 794.39566422 1740.64332609 781.5625 1732.9375 C773.34195849 1728.65738334 764.63786341 1725.3591691 756 1722 C756 1692.96 756 1663.92 756 1634 C761.94 1630.7 767.88 1627.4 774 1624 C777.02311169 1621.9759525 779.85383521 1620.04232057 782.6875 1617.8125 C783.31076172 1617.34392578 783.93402344 1616.87535156 784.57617188 1616.39257812 C795.76863556 1607.81441253 805.21545297 1596.84303202 809 1583 C810.56424857 1569.42828149 807.0113407 1559.80198384 799 1549 C787.04338051 1534.71386021 770.08077301 1526.77133073 754 1518 C753.67 1491.6 753.34 1465.2 753 1438 C758.28 1436.68 763.56 1435.36 769 1434 C789.28364043 1426.49505304 804.99951128 1415.09342896 814.375 1395.1875 C819.34272389 1384.01705941 821.33238019 1372.0543469 817.5625 1360.125 C813.05884287 1349.76343918 805.18273423 1341.77724678 795 1337 C781.86815635 1332.08748222 766.01095297 1329.7936347 752 1330 C752.05220703 1328.83210938 752.05220703 1328.83210938 752.10546875 1327.640625 C753.20552255 1282.17173467 731.69193557 1236.67484085 700.92578125 1204.03515625 C666.2789078 1167.87341454 613.50581725 1148.06268655 563.77830505 1146.70860291 C559.45603508 1146.63186595 555.13537392 1146.61528413 550.8125 1146.625 C549.8961377 1146.62554382 548.97977539 1146.62608765 548.03564453 1146.62664795 C485.36012426 1146.79663667 421.19808831 1168.25472644 377.5 1214.625 Z M753.12738037 2532.01477051 C751.93483286 2532.0140254 750.74228535 2532.01328029 749.51360004 2532.01251259 C744.53501347 2532.00925188 739.55642737 2532.00562661 734.57784148 2532.00145192 C719.78812838 2531.98935141 704.99842478 2531.99219964 690.20870972 2531.99713135 C689.51005148 2531.99734817 688.81139325 2531.997565 688.09156355 2531.9977884 C665.20979151 2532.00492569 642.32806495 2532.02864822 619.44631958 2532.06390381 C618.68957745 2532.0650666 617.93283533 2532.06622939 617.15316162 2532.06742742 C600.80752039 2532.09264648 584.46188488 2532.12054757 568.11625367 2532.15158059 C560.18150721 2532.16663715 552.24675977 2532.18112696 544.31201172 2532.1953125 C543.12846904 2532.19744337 543.12846904 2532.19744337 541.9210164 2532.19961728 C516.19958081 2532.24564746 490.4783134 2532.2521983 464.75684579 2532.23899605 C438.15523348 2532.22554788 411.5539404 2532.25134265 384.95242381 2532.32649232 C381.19717683 2532.3370839 377.44192877 2532.34723134 373.68667984 2532.35710907 C372.57862107 2532.36004491 372.57862107 2532.36004491 371.44817728 2532.36304005 C359.60994273 2532.39326563 347.77209202 2532.38248796 335.93386355 2532.35593028 C324.06167085 2532.33017643 312.19017563 2532.34813534 300.31811236 2532.41032305 C293.89899003 2532.44213454 287.48137435 2532.45473069 281.06226349 2532.41478348 C275.17990535 2532.37860342 269.30039065 2532.39825487 263.41828109 2532.46107766 C261.29956304 2532.47408352 259.18060114 2532.46716287 257.06205092 2532.43749216 C241.60149264 2532.23707555 232.58467129 2535.75897836 221 2546 C220.41703623 2546.50196664 219.83407246 2547.00393329 219.23344313 2547.52111104 C215.70142506 2550.56650135 212.33175881 2553.73726934 209 2557 C207.99537964 2557.95504596 206.99016104 2558.90946298 205.984375 2559.86328125 C199.05777155 2566.51707899 193.04008888 2573.64789895 187.26855469 2581.31689453 C186.07855401 2582.89577533 184.87186934 2584.46204224 183.6640625 2586.02734375 C174.27568673 2598.29811559 166.05476459 2611.21447475 158.37451172 2624.60693359 C157.42751404 2626.25568514 156.47572798 2627.90169253 155.52001953 2629.54541016 C123.33061998 2684.91442781 98.30899222 2746.24421609 80.64892578 2807.80371094 C79.76156531 2810.80698211 78.78649 2813.77905052 77.81396484 2816.75561523 C74.68109116 2826.37306923 72.09567082 2836.09338021 69.60571289 2845.89550781 C67.86209663 2852.7432691 66.00412095 2859.53694966 64 2866.3125 C60.07382869 2879.72702834 57.0740591 2893.37104651 54 2907 C53.76925781 2908.00788574 53.53851563 2909.01577148 53.30078125 2910.05419922 C47.99466887 2933.2443222 43.64479561 2956.74769014 40.37841797 2980.31396484 C39.93694676 2983.44755596 39.46980478 2986.57698058 39.00390625 2989.70703125 C35.2254249 3015.4433815 33.80854282 3040.63671516 33.6875 3066.625 C33.67787231 3067.7987619 33.66824463 3068.9725238 33.6583252 3070.18185425 C33.47830212 3095.81521459 37.17181163 3116.4579962 49 3139.5 C49.66544785 3140.8125793 50.33072806 3142.1252436 50.99584961 3143.43798828 C56.96954479 3155.16635843 63.3793113 3166.62548546 70 3178 C71.10858518 3179.92288184 72.21665024 3181.84606363 73.32421875 3183.76953125 C85.58410401 3204.99079626 98.29328495 3225.95746174 111.48144531 3246.61474609 C113.14917942 3249.23432202 114.80552803 3251.8609008 116.4609375 3254.48828125 C123.40563496 3265.49247605 130.43287984 3276.41142723 138 3287 C138.71470459 3288.00087646 138.71470459 3288.00087646 139.44384766 3289.02197266 C146.35911368 3298.63498991 153.72091862 3307.53620228 162 3316 C162.64582031 3316.6609668 163.29164063 3317.32193359 163.95703125 3318.00292969 C166.04771958 3320.13397499 168.1463855 3322.25671595 170.25 3324.375 C171.22404785 3325.35629883 171.22404785 3325.35629883 172.21777344 3326.35742188 C176.08273693 3330.20864502 180.06210724 3333.87151824 184.19189453 3337.43701172 C186.43565915 3339.37659869 188.62356613 3341.37390809 190.8125 3343.375 C195.08310151 3347.23022386 199.48773669 3350.87582515 203.9609375 3354.4921875 C207.47057414 3357.38831439 210.89029844 3360.37668327 214.3125 3363.375 C220.30648231 3368.61354082 226.4601775 3373.58794596 232.75 3378.46484375 C235.62646 3380.69678226 238.44518665 3382.99083285 241.25 3385.3125 C249.03123498 3391.71319329 257.02378711 3397.84552515 265 3404 C265.71494629 3404.55236328 266.42989258 3405.10472656 267.16650391 3405.67382812 C282.74797657 3417.69909284 298.61288917 3429.33266627 314.59375 3440.8203125 C317.39919445 3442.83871473 320.1907004 3444.87376511 322.96875 3446.9296875 C336.35897576 3456.79565771 350.2449234 3465.91722024 364.11123657 3475.09376526 C368.04718227 3477.69985456 371.97207754 3480.32097635 375.8828125 3482.96484375 C432.05142634 3520.91403176 487.99342768 3555.6185371 558 3545 C559.45810039 3544.80811737 560.91638626 3544.61762809 562.375 3544.4296875 C594.83949736 3539.46205967 625.08493213 3522.56367768 651 3503 C651.68723145 3502.48260254 652.37446289 3501.96520508 653.08251953 3501.43212891 C664.57075694 3492.76055977 675.85184089 3483.90336384 686.74975586 3474.49853516 C690.37112314 3471.37760188 694.03296493 3468.3197759 697.75 3465.3125 C702.12507747 3461.76254679 706.30549192 3458.04436179 710.46875 3454.25 C713.97799486 3451.13067124 717.63162123 3448.20250867 721.28125 3445.25 C723.92147729 3443.06498431 726.4672972 3440.80828609 729 3438.5 C733.22013944 3434.65808061 737.58027184 3431.03884779 742.015625 3427.44921875 C745.38761487 3424.68189198 748.69662321 3421.84849585 752 3419 C757.01655087 3414.6774223 762.09183187 3410.44220879 767.234375 3406.26953125 C770.29367736 3403.75900205 773.30312932 3401.19487558 776.3125 3398.625 C780.74846663 3394.8420203 785.26600953 3391.19467024 789.875 3387.625 C795.62108053 3383.16885592 801.13276033 3378.4874929 806.6027832 3373.69799805 C811.05558584 3369.80215835 815.59317362 3366.03227396 820.19140625 3362.30859375 C824.11715512 3359.08172646 827.95930854 3355.76078581 831.80664062 3352.44116211 C835.34348496 3349.39678364 838.92417961 3346.4233666 842.5625 3343.5 C847.29963555 3339.65719092 851.78784231 3335.59483041 856.23461914 3331.42382812 C859.08701075 3328.74973949 861.97546638 3326.13247245 864.92578125 3323.56640625 C874.82077272 3314.94997447 884.26882882 3305.82007288 893.5625 3296.5625 C894.52542969 3295.60645874 894.52542969 3295.60645874 895.5078125 3294.63110352 C899.87344662 3290.25122868 903.96750149 3285.68638494 908 3281 C908.96134578 3279.90546431 909.9235374 3278.81167075 910.88671875 3277.71875 C923.37773764 3263.42410903 934.29369877 3248.31934748 944 3232 C944.40847168 3231.31389648 944.81694336 3230.62779297 945.23779297 3229.92089844 C975.22680167 3178.64409447 979.84933015 3114.92150932 973 3057 C972.87109375 3055.84242188 972.7421875 3054.68484375 972.609375 3053.4921875 C969.19495144 3022.95206568 963.98115659 2992.89026883 956.9296875 2962.97802734 C955.95809558 2958.84145938 955.02378098 2954.69686055 954.09375 2950.55078125 C950.39677508 2934.10533726 946.51613804 2917.71990284 942.32080078 2901.39379883 C936.00136341 2876.67710705 931.02484603 2851.65055483 925.98431396 2826.64941406 C925.34096611 2823.46210584 924.69472541 2820.27538716 924.04847717 2817.08866596 C920.17793262 2797.99789839 916.40610833 2778.89092966 912.72583008 2759.76251221 C910.75570758 2749.54991538 908.75302817 2739.34363606 906.75 2729.13745117 C906.24898578 2726.58231129 905.7489898 2724.02697155 905.25 2721.47143555 C900.72472042 2698.29852765 896.03757937 2675.15738388 890.5625 2652.1875 C888.75537372 2644.53242433 886.95953774 2636.8758763 885.24609375 2629.19921875 C885.10187485 2628.55314163 884.95765594 2627.90706451 884.80906677 2627.2414093 C884.51799432 2625.93685596 884.22695324 2624.63229562 883.9359436 2623.32772827 C881.28845406 2611.46879138 878.48476328 2599.66099529 875.48657227 2587.88574219 C874.14890811 2582.62866545 872.83933308 2577.37326272 871.66015625 2572.078125 C867.63116508 2551.39461478 867.63116508 2551.39461478 854.93964946 2535.68539834 C848.34461706 2532.10533975 843.1758807 2531.32313545 835.74441528 2531.51116943 C834.6156059 2531.51819083 833.48679651 2531.52521222 832.32378078 2531.53244638 C829.12540454 2531.55615394 825.92815751 2531.60225584 822.73016891 2531.65569383 C819.12062717 2531.7093637 815.51088995 2531.7313288 811.90104866 2531.75527573 C806.95974909 2531.78932491 802.01850965 2531.82525542 797.07730424 2531.87119412 C782.42713873 2532.00460195 767.7780909 2532.02473455 753.12738037 2532.01477051 Z M4 3090 C4 3380.73 4 3671.46 4 3971 C333.01 3971 662.02 3971 1001 3971 C1001 3705.68 1001 3440.36 1001 3167 C1000.67 3167 1000.34 3167 1000 3167 C999.79020508 3168.00075562 999.79020508 3168.00075562 999.57617188 3169.02172852 C986.57764291 3230.16392483 954.19806372 3277.74015852 910.75 3321.375 C910.00540527 3322.12426758 909.26081055 3322.87353516 908.49365234 3323.64550781 C904.43437436 3327.69305639 900.28476689 3331.56565195 895.94238281 3335.30712891 C892.71544917 3338.11954191 889.61467154 3341.06457551 886.5 3344 C881.41388159 3348.76664017 876.30137108 3353.47255171 871 3358 C869.93200501 3358.92154289 868.8643278 3359.84345413 867.796875 3360.765625 C861.54942126 3366.15299055 855.2490319 3371.45666822 848.84375 3376.65625 C845.52313406 3379.39302138 842.25956291 3382.19106385 839 3385 C833.98823702 3389.31814961 828.91781618 3393.54906686 823.78125 3397.71875 C820.63616205 3400.29842888 817.53520324 3402.92631983 814.4375 3405.5625 C809.88720681 3409.43247486 805.27166922 3413.19960089 800.58984375 3416.91015625 C796.96869031 3419.83220315 793.43045431 3422.84821486 789.88671875 3425.86328125 C786.45428391 3428.78004513 782.99407185 3431.65693426 779.5 3434.5 C774.89751534 3438.24620845 770.36277589 3442.06522787 765.8425293 3445.90966797 C762.36756977 3448.85958904 758.85546927 3451.75664406 755.3125 3454.625 C750.91917078 3458.19815632 746.7157897 3461.9362423 742.53125 3465.75 C739.02200514 3468.86932876 735.36837877 3471.79749133 731.71875 3474.75 C729.07852271 3476.93501569 726.5327028 3479.19171391 724 3481.5 C719.76800544 3485.35271203 715.39649523 3488.98246207 710.9453125 3492.578125 C708.90983616 3494.25185886 706.91003496 3495.93612218 704.9296875 3497.671875 C694.68591597 3506.64751698 683.91305581 3514.8577332 673 3523 C671.8231665 3523.88486084 671.8231665 3523.88486084 670.62255859 3524.78759766 C659.20609861 3533.35178679 647.37880519 3540.90398818 635 3548 C634.360625 3548.37463379 633.72125 3548.74926758 633.0625 3549.13525391 C589.62571135 3574.50910166 532.28146237 3583.88810546 483.18676758 3571.8046875 C474.86605375 3569.56918311 466.92237625 3566.35401119 459 3563 C458.26136719 3562.69046387 457.52273438 3562.38092773 456.76171875 3562.06201172 C416.20196617 3544.95197599 378.98630622 3520.21081705 342.58276367 3495.74645996 C339.61214728 3493.75011657 336.63937924 3491.75750779 333.6550293 3489.78173828 C327.78056536 3485.89013172 321.99855884 3481.91161257 316.3125 3477.75 C310.36930117 3473.42601062 304.39472453 3469.15422195 298.375 3464.9375 C290.79687618 3459.6151654 283.37899862 3454.09895184 275.99707031 3448.50878906 C273.28864667 3446.46257169 270.56930795 3444.43110098 267.8503418 3442.39892578 C260.78864191 3437.11809067 253.76654707 3431.79036799 246.79589844 3426.38964844 C244.79621779 3424.84231534 242.79252104 3423.30025047 240.7890625 3421.7578125 C231.64415144 3414.69969972 222.65162815 3407.48577497 213.76171875 3400.109375 C210.80788563 3397.65967639 207.82446275 3395.25312393 204.8125 3392.875 C200.1843587 3389.19924832 195.71332017 3385.35224854 191.24145508 3381.48950195 C187.71166267 3378.44611523 184.13782764 3375.47704821 180.5 3372.5625 C175.50332797 3368.51054587 170.79835064 3364.1914743 166.12109375 3359.77954102 C163.21984778 3357.04472509 160.28796741 3354.37363569 157.26171875 3351.77734375 C152.45442556 3347.59427686 147.94086093 3343.12693232 143.43652344 3338.62182617 C142.00733526 3337.19482404 140.5703181 3335.77603875 139.1328125 3334.35742188 C133.30453259 3328.54125058 127.96668816 3322.56658071 123 3316 C122.4632666 3315.29157959 121.9265332 3314.58315918 121.37353516 3313.85327148 C119.8333449 3311.79082159 118.31748629 3309.71326195 116.8125 3307.625 C116.26279541 3306.86243896 115.71309082 3306.09987793 115.14672852 3305.31420898 C108.78773464 3296.41089422 102.86938182 3287.23062132 97 3278 C96.50677246 3277.22575684 96.01354492 3276.45151367 95.50537109 3275.65380859 C92.51833647 3270.95932713 89.55189736 3266.25222107 86.59521484 3261.53857422 C84.92967243 3258.88808293 83.25607447 3256.24278542 81.58203125 3253.59765625 C66.76783477 3230.12223369 52.52128742 3206.2444323 39 3182 C38.48276367 3181.07380859 37.96552734 3180.14761719 37.43261719 3179.19335938 C21.5359252 3150.60410768 7.07545697 3123.13574411 5 3090 C4.67 3090 4.34 3090 4 3090 Z " fill="#000000" transform="translate(0,0)"/>
<path d="M0 0 C331.65 0 663.3 0 1005 0 C1005 1016.73 1005 2033.46 1005 3081 C1004.67 3081 1004.34 3081 1004 3081 C1000.94921078 3052.92110996 1000.56996767 3025.03226966 1000.62548765 2996.80943183 C1000.63383209 2991.00970754 1000.62770012 2985.21000707 1000.62219715 2979.41028197 C1000.61128408 2967.38336786 1000.61437404 2955.35649525 1000.62535045 2943.32958284 C1000.63645042 2931.09886887 1000.64080274 2918.86817863 1000.63730332 2906.63745984 C1000.63708436 2905.8581698 1000.6368654 2905.07887976 1000.6366398 2904.27597487 C1000.6354921 2900.29611787 1000.63423932 2896.31626092 1000.63295073 2892.33640397 C1000.62379355 2863.36092113 1000.62932626 2834.38545559 1000.64238358 2805.40997505 C1000.65556043 2776.0604259 1000.6621266 2746.71088604 1000.66067696 2717.36133385 C1000.66063408 2716.43420121 1000.66059121 2715.50706858 1000.66054704 2714.55184101 C1000.66015176 2706.05478187 1000.65968341 2697.55772274 1000.65912804 2689.06066361 C1000.65773913 2667.75801001 1000.6573411 2646.45535645 1000.65760171 2625.15270281 C1000.65761858 2623.6887938 1000.65761858 2623.6887938 1000.65763578 2622.19531087 C1000.65827765 2574.13451096 1000.67017486 2526.07371456 1000.68280983 2478.01291656 C1000.68724756 2461.10309381 1000.69163167 2444.19327104 1000.69581819 2427.28344822 C1000.69607849 2426.23221512 1000.69633879 2425.18098201 1000.69660698 2424.09789336 C1000.70860928 2375.36061267 1000.71289491 2326.62333223 1000.71521609 2277.88605023 C1000.71536837 2274.69682349 1000.71552427 2271.50759675 1000.71568111 2268.31837001 C1000.71662343 2249.08676056 1000.71748553 2229.8551511 1000.71825503 2210.62354164 C1000.72017132 2162.81830642 1000.72304955 2115.01307128 1000.72658062 2067.20783615 C1000.72670047 2065.57554712 1000.72670047 2065.57554712 1000.72682274 2063.91028255 C1000.73200347 1993.45744663 1000.74114341 1923.00461189 1000.75360584 1852.55177689 C1000.75380471 1851.42734829 1000.75400358 1850.30291969 1000.75420847 1849.14441749 C1000.76027026 1814.9175637 1000.7666255 1780.69070995 1000.77303817 1746.46385622 C1000.78013324 1708.58790368 1000.78717823 1670.71195113 1000.79400635 1632.83599854 C1000.7943146 1631.12753136 1000.7943146 1631.12753136 1000.79462907 1629.3845497 C1000.81413841 1521.16215035 1000.82556489 1412.93975062 1000.8349077 1304.71734996 C1000.83530413 1300.13215967 1000.8357029 1295.54696937 1000.83610176 1290.96177908 C1000.83977203 1248.76716342 1000.84334753 1206.57254776 1000.84680401 1164.37793209 C1000.84694189 1162.69491004 1000.84694189 1162.69491004 1000.84708256 1160.97788754 C1000.84736085 1157.58072842 1000.8476391 1154.18356929 1000.84791735 1150.78641017 C1000.85543445 1059.01587483 1000.86377805 967.24533956 1000.87265726 875.47480434 C1000.87297032 872.23702125 1000.87328274 868.99923816 1000.87359498 865.76145507 C1000.88374206 760.56659823 1000.89535165 655.37174169 1000.92260839 469.63402457 C1000.9230431 466.7701402 1000.92347701 463.90625584 1000.92391061 461.04237148 C1000.92405258 460.10492107 1000.92419456 459.16747066 1000.92434084 458.20161266 C1000.92459922 456.49544292 1000.92485749 454.78927319 1000.9251156 453.08310345 C1000.94779511 303.38873527 1000.97441853 153.6943677 1001 4 C671.99 4 342.98 4 4 4 C4 1313.11 4 2622.22 4 3971 C333.01 3971 662.02 3971 1001 3971 C1000.88122512 3705.8691315 1000.88122512 3705.8691315 1000.72973633 3440.73828125 C1000.71618652 3389.46679688 1000.71618652 3389.46679688 1000.71366882 3365.46655273 C1000.71068935 3347.59684667 1000.69777004 3329.72717483 1000.67997972 3311.85747836 C1000.66206071 3293.61068106 1000.65550388 3275.36390522 1000.65966515 3257.11709946 C1000.66180743 3246.286043 1000.65595046 3235.45506677 1000.63757721 3224.62402525 C1000.62623776 3217.44837407 1000.6260524 3210.27277552 1000.63449398 3203.09712056 C1000.63897863 3199.02558786 1000.63905394 3194.95420791 1000.62535226 3190.88269234 C1000.5592742 3170.07704459 1001.664964 3149.68156265 1004 3129 C1004.33 3129 1004.66 3129 1005 3129 C1005 3408.18 1005 3687.36 1005 3975 C673.35 3975 341.7 3975 0 3975 C0 2663.25 0 1351.5 0 0 Z " fill="#F5F5F5" transform="translate(0,0)"/>
</svg>
