<?xml version="1.0" encoding="UTF-8"?>
<!DOCTYPE svg PUBLIC "-//W3C//DTD SVG 1.1//EN" "http://www.w3.org/Graphics/SVG/1.1/DTD/svg11.dtd">
<svg xmlns="http://www.w3.org/2000/svg" version="1.1" width="1005px" height="3975px" style="shape-rendering:geometricPrecision; text-rendering:geometricPrecision; image-rendering:optimizeQuality; fill-rule:evenodd; clip-rule:evenodd" xmlns:xlink="http://www.w3.org/1999/xlink">
<g><path style="opacity:0.767" fill="#fefefe" d="M -0.5,-0.5 C 334.5,-0.5 669.5,-0.5 1004.5,-0.5C 1004.5,1324.5 1004.5,2649.5 1004.5,3974.5C 669.5,3974.5 334.5,3974.5 -0.5,3974.5C -0.5,2649.5 -0.5,1324.5 -0.5,-0.5 Z M 3.5,3192.5 C 10.2725,3249.37 32.7725,3299.04 71,3341.5C 85.8333,3357.67 101.333,3373.17 117.5,3388C 182.833,3443.33 248.167,3498.67 313.5,3554C 336.621,3573.07 361.621,3589.4 388.5,3603C 428.116,3620.9 469.449,3626.56 512.5,3620C 547.696,3613.87 582.363,3605.53 616.5,3595C 685.996,3574.28 753.996,3549.61 820.5,3521C 851.25,3507.47 880.25,3491.13 907.5,3472C 922.034,3457.45 934.534,3441.28 945,3423.5C 974.386,3369.96 990.72,3312.63 994,3251.5C 997.814,3180.23 992.814,3109.56 979,3039.5C 963.229,2959.42 943.229,2880.42 919,2802.5C 880.546,2673.8 840.879,2545.47 800,2417.5C 779.395,2339.54 764.062,2260.54 754,2180.5C 747.477,2131.6 741.81,2082.6 737,2033.5C 707.574,1716.48 677.907,1399.48 648,1082.5C 645.667,1011.5 643.333,940.5 641,869.5C 640.107,831.026 635.441,793.026 627,755.5C 621.857,733.56 613.19,713.226 601,694.5C 579.788,667.741 553.955,662.241 523.5,678C 507.708,688.791 494.208,701.958 483,717.5C 460.01,753.156 442.677,791.489 431,832.5C 428,844.167 425,855.833 422,867.5C 340.019,1335.38 258.686,1803.38 178,2271.5C 135.461,2475.19 92.7945,2678.86 50,2882.5C 38.6667,2931.83 27.3333,2981.17 16,3030.5C 10.7428,3057.48 6.57609,3084.48 3.5,3111.5C 3.5,2075.5 3.5,1039.5 3.5,3.5C 335.833,3.5 668.167,3.5 1000.5,3.5C 1000.5,1325.83 1000.5,2648.17 1000.5,3970.5C 668.167,3970.5 335.833,3970.5 3.5,3970.5C 3.5,3711.17 3.5,3451.83 3.5,3192.5 Z"/></g>
<g><path style="opacity:0.982" fill="#000000" d="M 3.5,3192.5 C 2.23165,3165.5 2.23165,3138.5 3.5,3111.5C 6.57609,3084.48 10.7428,3057.48 16,3030.5C 27.3333,2981.17 38.6667,2931.83 50,2882.5C 92.7945,2678.86 135.461,2475.19 178,2271.5C 258.686,1803.38 340.019,1335.38 422,867.5C 425,855.833 428,844.167 431,832.5C 442.677,791.489 460.01,753.156 483,717.5C 494.208,701.958 507.708,688.791 523.5,678C 553.955,662.241 579.788,667.741 601,694.5C 613.19,713.226 621.857,733.56 627,755.5C 635.441,793.026 640.107,831.026 641,869.5C 643.333,940.5 645.667,1011.5 648,1082.5C 677.907,1399.48 707.574,1716.48 737,2033.5C 741.81,2082.6 747.477,2131.6 754,2180.5C 764.062,2260.54 779.395,2339.54 800,2417.5C 840.879,2545.47 880.546,2673.8 919,2802.5C 943.229,2880.42 963.229,2959.42 979,3039.5C 992.814,3109.56 997.814,3180.23 994,3251.5C 990.72,3312.63 974.386,3369.96 945,3423.5C 934.534,3441.28 922.034,3457.45 907.5,3472C 880.25,3491.13 851.25,3507.47 820.5,3521C 753.996,3549.61 685.996,3574.28 616.5,3595C 582.363,3605.53 547.696,3613.87 512.5,3620C 469.449,3626.56 428.116,3620.9 388.5,3603C 361.621,3589.4 336.621,3573.07 313.5,3554C 248.167,3498.67 182.833,3443.33 117.5,3388C 101.333,3373.17 85.8333,3357.67 71,3341.5C 32.7725,3299.04 10.2725,3249.37 3.5,3192.5 Z"/></g>
<g><path style="opacity:1" fill="#fefefe" d="M 793.5,2498.5 C 581.666,2498.83 369.999,2498.5 158.5,2497.5C 196.528,2299.33 233.695,2101 270,1902.5C 330.89,1559.6 391.224,1216.6 451,873.5C 460.706,829.04 476.706,787.04 499,747.5C 506.937,733.886 516.771,721.72 528.5,711C 533.832,706.329 539.832,702.663 546.5,700C 554.445,698.417 561.778,699.75 568.5,704C 577.282,712.454 584.115,722.287 589,733.5C 598.304,758.016 604.304,783.349 607,809.5C 611.577,867.748 614.577,926.081 616,984.5C 621.49,1085.94 628.49,1187.27 637,1288.5C 662.147,1552.16 687.147,1815.82 712,2079.5C 720.605,2164.4 732.938,2248.73 749,2332.5C 760.705,2388.65 775.539,2443.99 793.5,2498.5 Z"/></g>
<g><path style="opacity:1" fill="#202020" d="M 158.5,2497.5 C 369.999,2498.5 581.666,2498.83 793.5,2498.5C 581.666,2499.83 369.666,2499.83 157.5,2498.5C 157.624,2497.89 157.957,2497.56 158.5,2497.5 Z"/></g>
<g><path style="opacity:1" fill="#fefefe" d="M 152.5,2527.5 C 369.403,2527.17 586.236,2527.5 803,2528.5C 843.082,2655.08 881.749,2782.08 919,2909.5C 941.063,2988.15 956.063,3068.15 964,3149.5C 969.365,3209.51 965.365,3268.84 952,3327.5C 941.452,3368.59 923.452,3405.92 898,3439.5C 886.92,3450.92 874.42,3460.42 860.5,3468C 815.266,3491.62 768.6,3511.95 720.5,3529C 672.338,3546.5 623.671,3562.17 574.5,3576C 552.374,3581.97 530.04,3586.97 507.5,3591C 464.958,3597.24 424.958,3589.91 387.5,3569C 367.786,3557.48 349.119,3544.48 331.5,3530C 268.793,3476.29 205.793,3422.96 142.5,3370C 121.23,3351.07 101.73,3330.57 84,3308.5C 52.7192,3267.57 35.7192,3221.24 33,3169.5C 32.2436,3118.21 37.5769,3067.55 49,3017.5C 59.3103,2974.92 69.3103,2932.26 79,2889.5C 103.82,2768.9 128.32,2648.24 152.5,2527.5 Z"/></g>
</svg>
