<?xml version="1.0" encoding="UTF-8"?>
<svg version="1.1" xmlns="http://www.w3.org/2000/svg" width="1005" height="3975">
<path d="M0 0 C331.65 0 663.3 0 1005 0 C1005 1311.75 1005 2623.5 1005 3975 C673.35 3975 341.7 3975 0 3975 C0 2663.25 0 1351.5 0 0 Z M4 4 C4 1026.01 4 2048.02 4 3101 C4.33 3101 4.66 3101 5 3101 C5.13986328 3099.9476416 5.27972656 3098.8952832 5.42382812 3097.81103516 C11.05830934 3055.72223686 19.28094188 3014.56793328 29.20843506 2973.29406738 C31.49883727 2963.76264573 33.77235376 2954.22717462 36.04342651 2944.69113159 C36.64030187 2942.18524118 37.23773589 2939.67948377 37.83572388 2937.17385864 C41.82720251 2920.43647958 45.65466943 2903.6716512 49.32727051 2886.86157227 C56.41047597 2854.47616434 64.38966977 2822.36377735 73.3203125 2790.4375 C73.50611437 2789.77290834 73.69191624 2789.10831669 73.88334846 2788.42358589 C75.87469095 2781.30494987 77.88094611 2774.19092564 79.9128418 2767.08374023 C89.84683511 2732.16846917 97.00371258 2696.7742907 103.99462891 2661.17480469 C108.02759123 2640.66195576 112.24423357 2620.23984722 117.33984375 2599.9609375 C117.65194353 2598.71761972 117.65194353 2598.71761972 117.97034836 2597.44918442 C124.69546954 2570.79292821 132.75214999 2551.09825267 151.6328125 2530.58203125 C153.60158909 2528.43457032 155.53125216 2526.26517394 157.4375 2524.0625 C160.86768576 2520.11332633 164.41003518 2516.26977695 167.95288086 2512.42211914 C170.50540453 2509.6452363 173.02975746 2506.85027985 175.5 2504 C178.90744919 2500.06832786 182.43129673 2496.24638756 185.95532227 2492.41967773 C188.48740116 2489.66526572 190.99035268 2486.89257501 193.4375 2484.0625 C197.06144644 2479.87967989 200.83255746 2475.83728193 204.59521484 2471.77978516 C207.8449086 2468.26921915 211.02772441 2464.7130247 214.15625 2461.09375 C217.45670074 2457.34578051 220.86325132 2453.69358167 224.25390625 2450.02734375 C224.69994705 2449.53150284 225.14598785 2449.03566193 225.60554504 2448.52479553 C226.54600991 2447.49642483 227.51307859 2446.49184829 228.5032196 2445.51121521 C232.99922021 2440.81362354 234.23373574 2436.71704095 235.203125 2430.3828125 C235.44963554 2428.96354713 235.44963554 2428.96354713 235.7011261 2427.51560974 C236.23913732 2424.3886633 236.7444806 2421.25734875 237.25 2418.125 C237.62133912 2415.93052161 237.99500079 2413.73643512 238.37084961 2411.54272461 C239.17102439 2406.85717479 239.95905303 2402.16979044 240.73974609 2397.48095703 C242.0442875 2389.68550159 243.4168861 2381.90273468 244.80078125 2374.12109375 C245.03452397 2372.80457418 245.26821767 2371.4880459 245.50186157 2370.17150879 C245.96213978 2367.57841607 246.42249652 2364.98533729 246.88293457 2362.39227295 C247.97039354 2356.26376676 249.05386321 2350.13460302 250.12890625 2344.00390625 C250.31906815 2342.9311998 250.50923004 2341.85849335 250.70515442 2340.75328064 C250.87665512 2339.77194656 251.04815582 2338.79061249 251.22485352 2337.77954102 C251.3753566 2336.92441422 251.52585968 2336.06928741 251.68092346 2335.18824768 C252.07214395 2332.87379682 252.07214395 2332.87379682 252 2330 C249.52147505 2328.18338545 249.52147505 2328.18338545 246.3125 2326.4375 C219.92382382 2310.87615565 200.75047585 2288.35334307 191.9453125 2258.7890625 C187.38553055 2240.51225055 190.52704649 2221.32875306 199.71484375 2204.94140625 C208.54110504 2191.06125302 220.37244684 2179.78593992 233.8125 2170.4375 C234.49787842 2169.95015381 235.18325684 2169.46280762 235.8894043 2168.96069336 C239.15925 2166.69392466 241.91598726 2165.02971939 245.69921875 2163.69140625 C249.47955264 2162.32690704 251.30449785 2160.96974973 254 2158 C254.7943345 2154.93446981 254.7943345 2154.93446981 254.734375 2151.56640625 C254.75886719 2150.34824219 254.78335938 2149.13007813 254.80859375 2147.875 C254.72189956 2142.23409781 254.45230957 2136.62313579 254 2131 C253.04480469 2130.57589844 252.08960938 2130.15179687 251.10546875 2129.71484375 C238.58876332 2124.07493103 227.87806153 2117.68531887 218 2108 C217.23816406 2107.27425781 216.47632813 2106.54851563 215.69140625 2105.80078125 C200.56129711 2090.3560078 194.6875 2069.4483973 194.6875 2048.30786133 C194.99263123 2028.1189229 203.56271531 2008.99301483 217.4921875 1994.38671875 C227.00038376 1985.30570232 237.93976655 1979.06386657 250 1974 C252.31 1973.01 254.62 1972.02 257 1971 C257 1959.12 257 1947.24 257 1935 C254.15375 1933.865625 251.3075 1932.73125 248.375 1931.5625 C227.18843122 1922.79489188 208.11046651 1908.0508967 198 1887 C191.79164412 1871.86512207 189.84219471 1856.59685561 195.6875 1840.875 C196.42467267 1839.23445574 197.19768604 1837.60968983 198 1836 C198.46019531 1835.05640625 198.92039063 1834.1128125 199.39453125 1833.140625 C210.9239099 1811.48446852 234.06933852 1799.06467341 256 1790 C256.11978427 1776.62409026 255.85439108 1763.34986067 255 1750 C254.1028125 1749.8040625 253.205625 1749.608125 252.28125 1749.40625 C232.37503392 1744.63533871 215.09603001 1734.94147862 203.875 1717.3125 C193.94961077 1700.0359535 190.88789771 1680.23146744 196.02075195 1660.9152832 C199.39604804 1649.61121224 205.06067371 1638.74731083 213 1630 C213.60328125 1629.31679687 214.2065625 1628.63359375 214.828125 1627.9296875 C225.38532733 1616.6429224 239.91281819 1610.63487272 254 1605 C254 1584.54 254 1564.08 254 1543 C247.07 1541.35 240.14 1539.7 233 1538 C213.28734932 1529.34912452 200.42269449 1518.01786276 192 1498 C185.10309466 1478.59771683 187.37000242 1457.39989577 196 1439 C207.14623741 1417.29288558 226.43497026 1402.51074949 249.4375 1395 C251.6206732 1394.31929779 253.80663798 1393.64711957 256 1393 C257.19218119 1388.10584916 257.37015469 1383.18905322 257.6484375 1378.1796875 C257.76575403 1376.19301261 257.88344427 1374.20635975 258.00146484 1372.21972656 C258.06211121 1371.1833606 258.12275757 1370.14699463 258.1852417 1369.07922363 C261.47043935 1313.60598271 267.71125474 1255.91204874 302 1210 C302.85658203 1208.82630859 302.85658203 1208.82630859 303.73046875 1207.62890625 C308.69337562 1201.01562655 314.32595182 1194.99954244 320 1189 C320.804375 1188.14148437 321.60875 1187.28296875 322.4375 1186.3984375 C341.71148243 1166.42704123 366.74445979 1152.03052783 392 1141 C393.14082031 1140.49984375 394.28164063 1139.9996875 395.45703125 1139.484375 C443.4821881 1119.36358161 501.62860076 1112.37716906 553 1122 C553.98226562 1122.17692383 554.96453125 1122.35384766 555.9765625 1122.53613281 C587.63999366 1128.33775517 619.14511282 1138.86602979 646 1157 C646.55171875 1157.37060547 647.1034375 1157.74121094 647.671875 1158.12304688 C696.43650553 1191.12703668 724.65397717 1242.10738528 736 1299 C736.18522217 1299.92578857 736.37044434 1300.85157715 736.5612793 1301.80541992 C736.70605713 1302.52963135 736.85083496 1303.25384277 737 1304 C738.77890625 1304.31130859 738.77890625 1304.31130859 740.59375 1304.62890625 C755.69728929 1307.43591142 769.32130832 1311.56422129 781 1322 C781.68320312 1322.54269531 782.36640625 1323.08539062 783.0703125 1323.64453125 C795.17633591 1333.47204455 802.74348108 1348.69578726 805 1364 C806.60173229 1381.05591981 804.06065766 1396.79926118 796 1412 C795.48566406 1412.98613281 794.97132813 1413.97226563 794.44140625 1414.98828125 C790.46431107 1422.21685841 785.75052685 1428.10734987 780 1434 C779.175 1434.86625 778.35 1435.7325 777.5 1436.625 C776.2625 1437.800625 776.2625 1437.800625 775 1439 C774.43796875 1439.56847656 773.8759375 1440.13695312 773.296875 1440.72265625 C768.46283346 1445.36296711 763.24748634 1448.86635871 757.5 1452.25 C756.45054199 1452.86814575 756.45054199 1452.86814575 755.37988281 1453.4987793 C750.3983279 1456.35755203 745.2860748 1458.75882793 740 1461 C739.75179836 1466.42568791 739.57091285 1471.848042 739.45068359 1477.27807617 C739.40055259 1479.12241181 739.33242226 1480.96635305 739.24560547 1482.80932617 C738.34839186 1493.31161176 738.34839186 1493.31161176 742.04858398 1502.66088867 C744.62672222 1504.4718653 747.11074135 1505.75767309 750 1507 C751.1393125 1507.71525869 752.26408698 1508.45496897 753.36328125 1509.23046875 C754.33652344 1509.87628906 755.30976562 1510.52210937 756.3125 1511.1875 C774.66856998 1523.76267122 789.92626735 1541.40050304 794.55859375 1563.6875 C797.30329106 1584.28487451 792.56880704 1602.62519355 780.27514648 1619.34228516 C772.67733899 1629.21958036 764.07933953 1636.71168831 754.09765625 1644.0703125 C753.47716904 1644.53217957 752.85668182 1644.99404663 752.21739197 1645.46990967 C750 1647 750 1647 747.67778015 1648.21476746 C742.88111883 1650.82927275 742.88111883 1650.82927275 740.11988831 1655.35144043 C739.73716066 1658.24171983 739.64660715 1661.00234776 739.671875 1663.91796875 C739.65667816 1665.49751091 739.65667816 1665.49751091 739.64117432 1667.10896301 C739.63816959 1669.33388949 739.65985891 1671.55896845 739.70458984 1673.78344727 C739.74973398 1677.16755848 739.64628822 1680.52608674 739.53515625 1683.90820312 C739.23222006 1694.73944967 739.23222006 1694.73944967 743.87609863 1704.07196045 C748.44221435 1707.58987366 753.43110115 1709.83969565 758.74917603 1711.98527527 C763.87847701 1714.29768558 767.88813895 1718.22958324 772 1722 C772.93972656 1722.80244141 772.93972656 1722.80244141 773.8984375 1723.62109375 C786.60729277 1735.1510733 794.33651693 1753.17386655 795.25390625 1770.09375 C795.91541405 1788.57399962 790.6417263 1807.03877988 778 1820.875 C777.236875 1821.63554688 776.47375 1822.39609375 775.6875 1823.1796875 C773.77338425 1824.83075538 773.77338425 1824.83075538 774 1827 C773.40960937 1827.27457031 772.81921875 1827.54914063 772.2109375 1827.83203125 C770.09070826 1828.95208168 768.46794823 1830.16560836 766.625 1831.6875 C759.57681389 1837.08978201 751.20142026 1840.7194319 743 1844 C743 1857.53 743 1871.06 743 1885 C747.95 1887.31 752.9 1889.62 758 1892 C760.8523669 1893.55781257 763.58321605 1895.07962714 766.3125 1896.8125 C766.97564209 1897.23281494 767.63878418 1897.65312988 768.32202148 1898.08618164 C782.37581493 1907.27921313 791.04661348 1920.05500784 796 1936 C799.65093188 1953.60765881 795.21758756 1969.98586138 786 1985 C777.64889377 1997.39338032 767.21504176 2007.3454486 755.4296875 2016.421875 C754.90433411 2016.83617767 754.37898071 2017.25048035 753.83770752 2017.67733765 C752 2019 752 2019 750.15785217 2019.88999939 C747.95363416 2021.04822636 746.58078192 2022.06058468 745 2024 C744.00241818 2028.31663955 744.18592425 2032.54732175 744.31640625 2036.95703125 C744.3312632 2038.84418098 744.3312632 2038.84418098 744.34642029 2040.76945496 C744.37893372 2044.1032006 744.44172259 2047.43355367 744.51934814 2050.76635742 C744.59115866 2054.17141499 744.62296909 2057.57682419 744.65820312 2060.98242188 C744.7353525 2067.65588177 744.85246685 2074.32774514 745 2081 C745.57116547 2081.10873444 746.14233093 2081.21746887 746.73080444 2081.32949829 C749.35026255 2081.83139008 751.96807589 2082.3414116 754.5859375 2082.8515625 C755.4843335 2083.02244385 756.38272949 2083.1933252 757.30834961 2083.36938477 C772.6682917 2086.38237752 788.45992632 2093.792588 797.9765625 2106.67578125 C799.75014653 2109.40408179 801.39971188 2112.16711397 803 2115 C803.40089844 2115.66773437 803.80179688 2116.33546875 804.21484375 2117.0234375 C812.26322154 2131.41940381 812.31222197 2151.80845725 808.4375 2167.5 C803.73447207 2183.60330059 795.63100275 2196.95849127 784 2209 C783.34644531 2209.6909375 782.69289063 2210.381875 782.01953125 2211.09375 C772.26118235 2220.60672456 758.93921234 2226.28493267 746 2230 C745.90170325 2250.65271506 746.17408662 2271.29727107 746.46356201 2291.94732666 C746.52513651 2296.36656014 746.58473828 2300.78582024 746.64453125 2305.20507812 C746.76114566 2313.80341185 746.87985975 2322.40171481 747 2331 C748.60524536 2331.79772827 748.60524536 2331.79772827 750.24291992 2332.61157227 C751.67630016 2333.3256221 753.10964804 2334.03973691 754.54296875 2334.75390625 C755.244823 2335.10247681 755.94667725 2335.45104736 756.6697998 2335.81018066 C775.68998466 2345.2955858 793.5510192 2355.98000155 801 2377 C807.57600219 2399.62007035 797.79204635 2423.54889374 787.40161133 2443.48217773 C786.02993606 2446.2090426 785.01337066 2448.45765258 784.9375 2451.53515625 C786.52418032 2455.21602125 788.92854931 2458.01482572 791.5 2461.0625 C792.60303119 2462.40374142 793.70457988 2463.74620333 794.8046875 2465.08984375 C795.34963867 2465.75226074 795.89458984 2466.41467773 796.45605469 2467.09716797 C799.34825062 2470.66164854 802.05568446 2474.35873206 804.79296875 2478.04296875 C807.14652588 2481.19631875 809.5352564 2484.32122654 811.9375 2487.4375 C812.35475342 2487.97922852 812.77200684 2488.52095703 813.2019043 2489.07910156 C815.2867008 2491.78383273 817.37579261 2494.48517369 819.46875 2497.18359375 C832.85546889 2514.46858458 845.94966573 2532.10897211 857 2551 C857.93199219 2552.56234375 857.93199219 2552.56234375 858.8828125 2554.15625 C886.1494399 2602.28681497 895.69901231 2662.79644722 903.09394646 2716.98209 C903.40802911 2719.28256216 903.72449847 2721.58269619 904.04139709 2723.88278198 C904.98298267 2730.73429421 905.91293657 2737.58623186 906.78275776 2744.44726181 C909.37002282 2764.69344414 913.81593605 2783.5513648 920 2803 C920.811099 2805.64266005 921.61191511 2808.28823782 922.41163635 2810.93435669 C923.11655994 2813.26120315 923.83091626 2815.58493906 924.54833984 2817.90795898 C943.81825301 2880.4061114 960.92796067 2943.90675353 974 3008 C974.16933044 3008.82816223 974.33866089 3009.65632446 974.51312256 3010.50958252 C993.69222884 3104.61629561 1005.47878921 3202.75567805 960 3399 C959.67531738 3399.6811084 959.35063477 3400.3622168 959.01611328 3401.06396484 C948.57016832 3422.80338539 936.14990116 3443.20046927 921 3462 C920.17371094 3463.02609375 919.34742188 3464.0521875 918.49609375 3465.109375 C861.08335389 3531.59674198 728.3535447 3562.42925116 515 3622 C513.81809082 3622.19263428 513.81809082 3622.19263428 512.61230469 3622.38916016 C449.97608577 3632.26672886 390.6581009 3612.31228259 340.12963867 3575.83007812 C325.35157852 3564.96353262 311.08884501 3553.42203978 297.19921875 3541.44750977 C293.59398856 3538.34493186 289.94768956 3535.30512164 286.25 3532.3125 C281.87492253 3528.76254679 277.69450808 3525.04436179 273.53125 3521.25 C270.9115519 3518.92137947 268.2248469 3516.70437053 265.5 3514.5 C261.9052235 3511.5918662 258.41739372 3508.61458668 255 3505.5 C250.7569853 3501.63785433 246.37657134 3497.99245691 241.91796875 3494.3828125 C238.74582593 3491.79244152 235.61956706 3489.15317133 232.5 3486.5 C227.64702904 3482.37572261 222.7418645 3478.32333986 217.80078125 3474.3046875 C214.73224213 3471.77966925 211.70960188 3469.20515231 208.6875 3466.625 C204.25148397 3462.84207508 199.73399357 3459.19467263 195.125 3455.625 C189.37891947 3451.16885592 183.86723967 3446.4874929 178.3972168 3441.69799805 C173.94441416 3437.80215835 169.40682638 3434.03227396 164.80859375 3430.30859375 C160.88284488 3427.08172646 157.04069146 3423.76078581 153.19335938 3420.44116211 C149.65651504 3417.39678364 146.07582039 3414.4233666 142.4375 3411.5 C137.0720194 3407.14747149 132.03611045 3402.48464434 126.98828125 3397.7734375 C124.6964159 3395.63645686 122.37241243 3393.54776652 120 3391.5 C109.94862952 3382.79087148 100.37856997 3373.56520612 90.97802734 3364.16333008 C89.24204044 3362.42955057 87.4981489 3360.70398462 85.75390625 3358.97851562 C79.80576923 3353.05993626 74.20192225 3347.05566826 68.97680664 3340.47387695 C67.16367804 3338.20483508 65.28898733 3336.02584122 63.35546875 3333.859375 C51.84155474 3320.81225933 42.57575062 3306.08349807 34 3291 C33.42427246 3290.00323242 33.42427246 3290.00323242 32.83691406 3288.98632812 C26.7729958 3278.43895174 22.24665517 3267.38566363 18 3256 C17.72414063 3255.27506348 17.44828125 3254.55012695 17.1640625 3253.80322266 C11.06336659 3237.59636155 7.13731766 3220.173976 5 3203 C4.67 3203 4.34 3203 4 3203 C4 3456.44 4 3709.88 4 3971 C333.01 3971 662.02 3971 1001 3971 C1001 2661.89 1001 1352.78 1001 4 C671.99 4 342.98 4 4 4 Z " fill="#B7B7B8" transform="translate(0,0)"/>
<path d="M0 0 C4.62424934 -0.08966249 9.24865146 -0.15150863 13.87339878 -0.20913124 C16.06765069 -0.24321723 18.26175046 -0.28972888 20.4554491 -0.3496418 C39.48768472 -0.86177612 39.48768472 -0.86177612 45.2882719 3.58503914 C47.116992 5.46029854 47.116992 5.46029854 48.55414104 7.20002937 C49.84191448 8.33891609 49.84191448 8.33891609 51.15570354 9.50081062 C101.1695693 59.22502079 108.44949478 157.97564939 116.80414104 224.51252937 C119.12143446 242.86197327 123.01194625 259.57224316 128.61126995 277.21077156 C129.82202884 281.04933497 130.98504518 284.89997695 132.11664104 288.76252937 C132.305247 289.40464363 132.49385296 290.04675789 132.68817425 290.70833015 C133.91520108 294.92069534 135.09875632 299.14450663 136.27289104 303.37190437 C136.57767376 304.46817146 136.88245647 305.56443855 137.19647503 306.69392586 C137.79035652 308.83577544 138.38123517 310.97846097 138.96844769 313.12214851 C140.3798614 318.22400484 141.88345055 323.26251562 143.58929729 328.27424812 C145.4816817 333.85775946 147.00190594 339.4825816 148.42914104 345.20002937 C150.22182525 352.24021448 152.1278875 359.20699885 154.30414104 366.13752937 C159.04249154 381.38970273 162.58314257 397.00853403 166.39789104 412.51082039 C167.46403183 416.84057718 168.5414309 421.16743655 169.62445354 425.49299812 C169.7869862 426.14266045 169.94951885 426.79232277 170.11697674 427.46167183 C170.90512763 430.61103047 171.69488392 433.7599781 172.48626995 436.90852547 C185.43750127 488.61115034 195.46817022 541.12290139 200.82678509 594.17138863 C201.37102305 599.55020489 201.99205915 604.9158205 202.64789104 610.28206062 C203.38991064 616.41936625 203.90483557 622.52150859 204.11664104 628.70002937 C204.17764627 630.3147208 204.24143083 631.92930971 204.30804729 633.54377937 C204.33197552 634.22633797 204.35590374 634.90889656 204.38055706 635.61213875 C204.53089262 637.85342837 204.77957502 640.04417762 205.05682659 642.27205086 C205.67860362 647.74994333 205.73380264 653.19536883 205.75726604 658.70393562 C205.76418972 659.80406487 205.7711134 660.90419411 205.77824688 662.0376606 C205.79556447 665.61265304 205.80184661 669.18749682 205.80414104 672.76252937 C205.80548046 673.98544685 205.80681988 675.20836433 205.80819988 676.46833992 C205.80298216 698.50367694 204.79879413 720.284403 202.55414104 742.20002937 C202.44199261 743.34149422 202.32984417 744.48295906 202.21429729 745.65901375 C197.81176657 789.05927033 184.90243005 832.62498648 164.55414104 871.20002937 C164.18063519 871.9151368 163.80712933 872.63024422 163.42230511 873.36702156 C155.3809461 888.66635988 145.86720908 903.09814288 134.55414104 916.20002937 C133.99210979 916.85745125 133.43007854 917.51487312 132.85101604 918.19221687 C108.98286971 944.03207965 69.15219358 958.48485225 37.55414104 972.20002937 C36.53604351 972.64252022 36.53604351 972.64252022 35.49737835 973.09395027 C-3.03146096 989.80643609 -42.54089999 1004.08392998 -82.24650288 1017.72174263 C-87.44887161 1019.50873691 -92.64355703 1021.31607242 -97.83257771 1023.14143562 C-110.09785219 1027.44648358 -122.36239122 1031.45852454 -134.89507771 1034.91096687 C-138.86169812 1036.0119399 -142.74444069 1037.28448262 -146.63335896 1038.63752937 C-156.77399784 1042.10345887 -167.16822065 1044.70277008 -177.52642536 1047.43049812 C-179.90088848 1048.05638103 -182.27375061 1048.68740187 -184.64507771 1049.32502937 C-187.55730714 1050.10771142 -190.4713113 1050.88312115 -193.38677692 1051.65364265 C-194.92285123 1052.06124691 -196.45822144 1052.4715063 -197.99322224 1052.88313484 C-211.07378766 1056.38877199 -224.14931846 1059.62369772 -237.44585896 1062.20002937 C-238.1856197 1062.34569344 -238.92538044 1062.4913575 -239.68755817 1062.64143562 C-254.79923247 1065.58875976 -269.76506254 1066.43543847 -285.13335896 1066.45002937 C-285.87842701 1066.45103645 -286.62349506 1066.45204353 -287.39114094 1066.45308113 C-298.24506419 1066.44319821 -308.78076194 1065.9990983 -319.41167927 1063.64875984 C-321.48728382 1063.19089124 -323.56892669 1062.78923991 -325.65679646 1062.39143562 C-358.10088409 1055.86067745 -387.56751337 1037.00555792 -413.44585896 1017.20002937 C-414.67596907 1016.26856598 -415.90641163 1015.33754138 -417.13726521 1014.40706062 C-427.70643494 1006.38254665 -437.85727561 997.88972045 -447.91070271 989.23518562 C-451.2177451 986.39038885 -454.54766062 983.57361473 -457.88335896 980.76252937 C-463.22347318 976.25713916 -468.51004874 971.69235909 -473.78497028 967.11091805 C-487.25827429 955.41119205 -500.79353577 943.77750174 -514.63335896 932.51252937 C-518.32600259 929.47635572 -521.96707684 926.38152967 -525.60992146 923.28596687 C-529.9059894 919.6414353 -534.25954236 916.07215598 -538.62945271 912.51643562 C-541.78371087 909.92215671 -544.89788876 907.28396672 -548.00835896 904.63752937 C-551.77674835 901.43263746 -555.56831923 898.27315243 -559.44585896 895.20002937 C-563.90000129 891.66992305 -568.23637501 888.01565811 -572.56353474 884.33235359 C-575.9495479 881.45399452 -579.36693139 878.62204352 -582.82085896 875.82502937 C-592.8315471 867.66763189 -602.51044686 859.12013028 -612.03179646 850.39924812 C-614.16925479 848.45201666 -616.32758697 846.53593048 -618.50835896 844.63752937 C-627.53938049 836.76569911 -636.19956064 828.6327601 -644.66875935 820.16243172 C-646.50377618 818.32960668 -648.34667146 816.50495927 -650.18999958 814.68049812 C-656.35097145 808.54837465 -662.17267116 802.36184129 -667.5789156 795.54622078 C-669.1520051 793.5693161 -670.76213435 791.67288698 -672.45757771 789.80159187 C-720.3019489 736.82791195 -733.32920238 666.56278311 -730.13335896 597.46174812 C-727.34036638 548.19832742 -717.35496678 499.99948529 -705.22613239 452.29084969 C-700.25284406 432.59065246 -695.88179979 412.73270538 -691.49248981 392.89583015 C-689.09614844 382.06718236 -686.63445105 371.25494208 -684.13335896 360.45002937 C-683.94021107 359.61495857 -683.74706318 358.77988777 -683.54806232 357.9195118 C-682.55908269 353.64368742 -681.56929477 349.36805135 -680.57867146 345.0926075 C-679.69131371 341.26206698 -678.80687349 337.43086205 -677.92358112 333.5993824 C-674.95837311 320.7433285 -671.98523285 307.91205545 -668.44585896 295.20002937 C-667.9786569 293.48547308 -667.51260814 291.77060231 -667.04742146 290.05549812 C-665.76507577 285.32924432 -664.47508249 280.60513502 -663.18072224 275.88215828 C-662.71477414 274.18152512 -662.24952031 272.48070146 -661.78521442 270.77961922 C-659.70358671 263.15783455 -657.57174609 255.55911662 -655.26665974 248.00154305 C-643.22969712 208.4919378 -635.46236975 167.66090794 -627.92632771 127.08674812 C-612.71275647 45.53347921 -612.71275647 45.53347921 -593.44585896 26.20002937 C-592.55833942 25.27770515 -592.55833942 25.27770515 -591.65289021 24.33674812 C-585.87053209 18.78415259 -578.69829615 14.94717523 -571.59850597 11.31949711 C-570.27982554 10.63372736 -568.97676981 9.91527604 -567.70620632 9.14400005 C-559.88767465 4.89646293 -551.19049886 5.54009731 -542.54693317 5.47908211 C-540.72964356 5.45225611 -538.9123765 5.42386312 -537.09513378 5.39402866 C-532.2124048 5.31943225 -527.32974251 5.26999593 -522.44664001 5.22749281 C-519.48528159 5.20039017 -516.52405179 5.16744763 -513.56277943 5.13223839 C-499.81537722 4.96894512 -486.0678567 4.85788657 -472.31984901 4.76045084 C-466.30118191 4.7168945 -460.28254955 4.66896786 -454.26391315 4.62138557 C-444.00586844 4.54066465 -433.74781158 4.46173739 -423.48974323 4.38408089 C-397.277931 4.18522598 -371.06622347 3.97329293 -344.85455948 3.75582984 C-342.83439834 3.73907458 -340.81423692 3.72235295 -338.79407549 3.70563293 C-292.07674783 3.31854948 -245.36213882 2.81415513 -198.64768362 2.16961527 C-194.7737199 2.116195 -190.89975201 2.0630789 -187.02578449 2.00993538 C-185.88570972 1.99428845 -185.88570972 1.99428845 -184.72260314 1.97832543 C-177.24087148 1.87565082 -169.75913726 1.77316607 -162.27739644 1.67116094 C-160.83067833 1.65142696 -159.38396059 1.63166626 -157.93724322 1.61187816 C-127.14289162 1.19081585 -96.34805903 0.8713787 -65.5519762 0.60672569 C-61.99794158 0.57601935 -58.44391521 0.54448582 -54.88988972 0.512743 C-52.65122259 0.49298177 -50.4125548 0.47329663 -48.1738863 0.45369148 C-47.08686295 0.44416104 -45.99983959 0.4346306 -44.87987614 0.42481136 C-39.6052963 0.38004752 -34.33080505 0.34186314 -29.05608845 0.31765938 C-27.00876569 0.30810826 -24.96144309 0.29852076 -22.91412067 0.28889656 C-21.40255831 0.28202088 -21.40255831 0.28202088 -19.86045933 0.27500629 C-13.23875318 0.23739756 -6.62040138 0.13540642 0 0 Z " fill="#FDFDFD" transform="translate(762.4458589553833,2528.799970626831)"/>
<path d="M0 0 C331.65 0 663.3 0 1005 0 C1005 1311.75 1005 2623.5 1005 3975 C673.35 3975 341.7 3975 0 3975 C0 2663.25 0 1351.5 0 0 Z M4 4 C4 1026.01 4 2048.02 4 3101 C4.33 3101 4.66 3101 5 3101 C5.13986328 3099.9476416 5.27972656 3098.8952832 5.42382812 3097.81103516 C11.05830934 3055.72223686 19.28094188 3014.56793328 29.20843506 2973.29406738 C31.49883727 2963.76264573 33.77235376 2954.22717462 36.04342651 2944.69113159 C36.64030187 2942.18524118 37.23773589 2939.67948377 37.83572388 2937.17385864 C41.82720251 2920.43647958 45.65466943 2903.6716512 49.32727051 2886.86157227 C56.41047597 2854.47616434 64.38966977 2822.36377735 73.3203125 2790.4375 C73.50611437 2789.77290834 73.69191624 2789.10831669 73.88334846 2788.42358589 C75.87469095 2781.30494987 77.88094611 2774.19092564 79.9128418 2767.08374023 C89.84683511 2732.16846917 97.00371258 2696.7742907 103.99462891 2661.17480469 C108.02759123 2640.66195576 112.24423357 2620.23984722 117.33984375 2599.9609375 C117.65194353 2598.71761972 117.65194353 2598.71761972 117.97034836 2597.44918442 C124.69546954 2570.79292821 132.75214999 2551.09825267 151.6328125 2530.58203125 C153.60158909 2528.43457032 155.53125216 2526.26517394 157.4375 2524.0625 C160.86768576 2520.11332633 164.41003518 2516.26977695 167.95288086 2512.42211914 C170.50540453 2509.6452363 173.02975746 2506.85027985 175.5 2504 C178.90744919 2500.06832786 182.43129673 2496.24638756 185.95532227 2492.41967773 C188.48740116 2489.66526572 190.99035268 2486.89257501 193.4375 2484.0625 C197.06144644 2479.87967989 200.83255746 2475.83728193 204.59521484 2471.77978516 C207.8449086 2468.26921915 211.02772441 2464.7130247 214.15625 2461.09375 C217.45670074 2457.34578051 220.86325132 2453.69358167 224.25390625 2450.02734375 C224.69994705 2449.53150284 225.14598785 2449.03566193 225.60554504 2448.52479553 C226.54600991 2447.49642483 227.51307859 2446.49184829 228.5032196 2445.51121521 C232.99922021 2440.81362354 234.23373574 2436.71704095 235.203125 2430.3828125 C235.44963554 2428.96354713 235.44963554 2428.96354713 235.7011261 2427.51560974 C236.23913732 2424.3886633 236.7444806 2421.25734875 237.25 2418.125 C237.62133912 2415.93052161 237.99500079 2413.73643512 238.37084961 2411.54272461 C239.17102439 2406.85717479 239.95905303 2402.16979044 240.73974609 2397.48095703 C242.0442875 2389.68550159 243.4168861 2381.90273468 244.80078125 2374.12109375 C245.03452397 2372.80457418 245.26821767 2371.4880459 245.50186157 2370.17150879 C245.96213978 2367.57841607 246.42249652 2364.98533729 246.88293457 2362.39227295 C247.97039354 2356.26376676 249.05386321 2350.13460302 250.12890625 2344.00390625 C250.31906815 2342.9311998 250.50923004 2341.85849335 250.70515442 2340.75328064 C250.87665512 2339.77194656 251.04815582 2338.79061249 251.22485352 2337.77954102 C251.3753566 2336.92441422 251.52585968 2336.06928741 251.68092346 2335.18824768 C252.07214395 2332.87379682 252.07214395 2332.87379682 252 2330 C249.52147505 2328.18338545 249.52147505 2328.18338545 246.3125 2326.4375 C219.92382382 2310.87615565 200.75047585 2288.35334307 191.9453125 2258.7890625 C187.38553055 2240.51225055 190.52704649 2221.32875306 199.71484375 2204.94140625 C208.54110504 2191.06125302 220.37244684 2179.78593992 233.8125 2170.4375 C234.49787842 2169.95015381 235.18325684 2169.46280762 235.8894043 2168.96069336 C239.15925 2166.69392466 241.91598726 2165.02971939 245.69921875 2163.69140625 C249.47955264 2162.32690704 251.30449785 2160.96974973 254 2158 C254.7943345 2154.93446981 254.7943345 2154.93446981 254.734375 2151.56640625 C254.75886719 2150.34824219 254.78335938 2149.13007813 254.80859375 2147.875 C254.72189956 2142.23409781 254.45230957 2136.62313579 254 2131 C253.04480469 2130.57589844 252.08960938 2130.15179687 251.10546875 2129.71484375 C238.58876332 2124.07493103 227.87806153 2117.68531887 218 2108 C217.23816406 2107.27425781 216.47632813 2106.54851563 215.69140625 2105.80078125 C200.56129711 2090.3560078 194.6875 2069.4483973 194.6875 2048.30786133 C194.99263123 2028.1189229 203.56271531 2008.99301483 217.4921875 1994.38671875 C227.00038376 1985.30570232 237.93976655 1979.06386657 250 1974 C252.31 1973.01 254.62 1972.02 257 1971 C257 1959.12 257 1947.24 257 1935 C254.15375 1933.865625 251.3075 1932.73125 248.375 1931.5625 C227.18843122 1922.79489188 208.11046651 1908.0508967 198 1887 C191.79164412 1871.86512207 189.84219471 1856.59685561 195.6875 1840.875 C196.42467267 1839.23445574 197.19768604 1837.60968983 198 1836 C198.46019531 1835.05640625 198.92039063 1834.1128125 199.39453125 1833.140625 C210.9239099 1811.48446852 234.06933852 1799.06467341 256 1790 C256.11978427 1776.62409026 255.85439108 1763.34986067 255 1750 C254.1028125 1749.8040625 253.205625 1749.608125 252.28125 1749.40625 C232.37503392 1744.63533871 215.09603001 1734.94147862 203.875 1717.3125 C193.94961077 1700.0359535 190.88789771 1680.23146744 196.02075195 1660.9152832 C199.39604804 1649.61121224 205.06067371 1638.74731083 213 1630 C213.60328125 1629.31679687 214.2065625 1628.63359375 214.828125 1627.9296875 C225.38532733 1616.6429224 239.91281819 1610.63487272 254 1605 C254 1584.54 254 1564.08 254 1543 C247.07 1541.35 240.14 1539.7 233 1538 C213.28734932 1529.34912452 200.42269449 1518.01786276 192 1498 C185.10309466 1478.59771683 187.37000242 1457.39989577 196 1439 C207.14623741 1417.29288558 226.43497026 1402.51074949 249.4375 1395 C251.6206732 1394.31929779 253.80663798 1393.64711957 256 1393 C257.19218119 1388.10584916 257.37015469 1383.18905322 257.6484375 1378.1796875 C257.76575403 1376.19301261 257.88344427 1374.20635975 258.00146484 1372.21972656 C258.06211121 1371.1833606 258.12275757 1370.14699463 258.1852417 1369.07922363 C261.47043935 1313.60598271 267.71125474 1255.91204874 302 1210 C302.85658203 1208.82630859 302.85658203 1208.82630859 303.73046875 1207.62890625 C308.69337562 1201.01562655 314.32595182 1194.99954244 320 1189 C320.804375 1188.14148437 321.60875 1187.28296875 322.4375 1186.3984375 C341.71148243 1166.42704123 366.74445979 1152.03052783 392 1141 C393.14082031 1140.49984375 394.28164063 1139.9996875 395.45703125 1139.484375 C443.4821881 1119.36358161 501.62860076 1112.37716906 553 1122 C553.98226562 1122.17692383 554.96453125 1122.35384766 555.9765625 1122.53613281 C587.63999366 1128.33775517 619.14511282 1138.86602979 646 1157 C646.55171875 1157.37060547 647.1034375 1157.74121094 647.671875 1158.12304688 C696.43650553 1191.12703668 724.65397717 1242.10738528 736 1299 C736.18522217 1299.92578857 736.37044434 1300.85157715 736.5612793 1301.80541992 C736.70605713 1302.52963135 736.85083496 1303.25384277 737 1304 C738.77890625 1304.31130859 738.77890625 1304.31130859 740.59375 1304.62890625 C755.69728929 1307.43591142 769.32130832 1311.56422129 781 1322 C781.68320312 1322.54269531 782.36640625 1323.08539062 783.0703125 1323.64453125 C795.17633591 1333.47204455 802.74348108 1348.69578726 805 1364 C806.60173229 1381.05591981 804.06065766 1396.79926118 796 1412 C795.48566406 1412.98613281 794.97132813 1413.97226563 794.44140625 1414.98828125 C790.46431107 1422.21685841 785.75052685 1428.10734987 780 1434 C779.175 1434.86625 778.35 1435.7325 777.5 1436.625 C776.2625 1437.800625 776.2625 1437.800625 775 1439 C774.43796875 1439.56847656 773.8759375 1440.13695312 773.296875 1440.72265625 C768.46283346 1445.36296711 763.24748634 1448.86635871 757.5 1452.25 C756.45054199 1452.86814575 756.45054199 1452.86814575 755.37988281 1453.4987793 C750.3983279 1456.35755203 745.2860748 1458.75882793 740 1461 C739.75179836 1466.42568791 739.57091285 1471.848042 739.45068359 1477.27807617 C739.40055259 1479.12241181 739.33242226 1480.96635305 739.24560547 1482.80932617 C738.34839186 1493.31161176 738.34839186 1493.31161176 742.04858398 1502.66088867 C744.62672222 1504.4718653 747.11074135 1505.75767309 750 1507 C751.1393125 1507.71525869 752.26408698 1508.45496897 753.36328125 1509.23046875 C754.33652344 1509.87628906 755.30976562 1510.52210937 756.3125 1511.1875 C774.66856998 1523.76267122 789.92626735 1541.40050304 794.55859375 1563.6875 C797.30329106 1584.28487451 792.56880704 1602.62519355 780.27514648 1619.34228516 C772.67733899 1629.21958036 764.07933953 1636.71168831 754.09765625 1644.0703125 C753.47716904 1644.53217957 752.85668182 1644.99404663 752.21739197 1645.46990967 C750 1647 750 1647 747.67778015 1648.21476746 C742.88111883 1650.82927275 742.88111883 1650.82927275 740.11988831 1655.35144043 C739.73716066 1658.24171983 739.64660715 1661.00234776 739.671875 1663.91796875 C739.65667816 1665.49751091 739.65667816 1665.49751091 739.64117432 1667.10896301 C739.63816959 1669.33388949 739.65985891 1671.55896845 739.70458984 1673.78344727 C739.74973398 1677.16755848 739.64628822 1680.52608674 739.53515625 1683.90820312 C739.23222006 1694.73944967 739.23222006 1694.73944967 743.87609863 1704.07196045 C748.44221435 1707.58987366 753.43110115 1709.83969565 758.74917603 1711.98527527 C763.87847701 1714.29768558 767.88813895 1718.22958324 772 1722 C772.93972656 1722.80244141 772.93972656 1722.80244141 773.8984375 1723.62109375 C786.60729277 1735.1510733 794.33651693 1753.17386655 795.25390625 1770.09375 C795.91541405 1788.57399962 790.6417263 1807.03877988 778 1820.875 C777.236875 1821.63554688 776.47375 1822.39609375 775.6875 1823.1796875 C773.77338425 1824.83075538 773.77338425 1824.83075538 774 1827 C773.40960937 1827.27457031 772.81921875 1827.54914063 772.2109375 1827.83203125 C770.09070826 1828.95208168 768.46794823 1830.16560836 766.625 1831.6875 C759.57681389 1837.08978201 751.20142026 1840.7194319 743 1844 C743 1857.53 743 1871.06 743 1885 C747.95 1887.31 752.9 1889.62 758 1892 C760.8523669 1893.55781257 763.58321605 1895.07962714 766.3125 1896.8125 C766.97564209 1897.23281494 767.63878418 1897.65312988 768.32202148 1898.08618164 C782.37581493 1907.27921313 791.04661348 1920.05500784 796 1936 C799.65093188 1953.60765881 795.21758756 1969.98586138 786 1985 C777.64889377 1997.39338032 767.21504176 2007.3454486 755.4296875 2016.421875 C754.90433411 2016.83617767 754.37898071 2017.25048035 753.83770752 2017.67733765 C752 2019 752 2019 750.15785217 2019.88999939 C747.95363416 2021.04822636 746.58078192 2022.06058468 745 2024 C744.00241818 2028.31663955 744.18592425 2032.54732175 744.31640625 2036.95703125 C744.3312632 2038.84418098 744.3312632 2038.84418098 744.34642029 2040.76945496 C744.37893372 2044.1032006 744.44172259 2047.43355367 744.51934814 2050.76635742 C744.59115866 2054.17141499 744.62296909 2057.57682419 744.65820312 2060.98242188 C744.7353525 2067.65588177 744.85246685 2074.32774514 745 2081 C745.57116547 2081.10873444 746.14233093 2081.21746887 746.73080444 2081.32949829 C749.35026255 2081.83139008 751.96807589 2082.3414116 754.5859375 2082.8515625 C755.4843335 2083.02244385 756.38272949 2083.1933252 757.30834961 2083.36938477 C772.6682917 2086.38237752 788.45992632 2093.792588 797.9765625 2106.67578125 C799.75014653 2109.40408179 801.39971188 2112.16711397 803 2115 C803.40089844 2115.66773437 803.80179688 2116.33546875 804.21484375 2117.0234375 C812.26322154 2131.41940381 812.31222197 2151.80845725 808.4375 2167.5 C803.73447207 2183.60330059 795.63100275 2196.95849127 784 2209 C783.34644531 2209.6909375 782.69289063 2210.381875 782.01953125 2211.09375 C772.26118235 2220.60672456 758.93921234 2226.28493267 746 2230 C745.90170325 2250.65271506 746.17408662 2271.29727107 746.46356201 2291.94732666 C746.52513651 2296.36656014 746.58473828 2300.78582024 746.64453125 2305.20507812 C746.76114566 2313.80341185 746.87985975 2322.40171481 747 2331 C748.60524536 2331.79772827 748.60524536 2331.79772827 750.24291992 2332.61157227 C751.67630016 2333.3256221 753.10964804 2334.03973691 754.54296875 2334.75390625 C755.244823 2335.10247681 755.94667725 2335.45104736 756.6697998 2335.81018066 C775.68998466 2345.2955858 793.5510192 2355.98000155 801 2377 C807.57600219 2399.62007035 797.79204635 2423.54889374 787.40161133 2443.48217773 C786.02993606 2446.2090426 785.01337066 2448.45765258 784.9375 2451.53515625 C786.52418032 2455.21602125 788.92854931 2458.01482572 791.5 2461.0625 C792.60303119 2462.40374142 793.70457988 2463.74620333 794.8046875 2465.08984375 C795.34963867 2465.75226074 795.89458984 2466.41467773 796.45605469 2467.09716797 C799.34825062 2470.66164854 802.05568446 2474.35873206 804.79296875 2478.04296875 C807.14652588 2481.19631875 809.5352564 2484.32122654 811.9375 2487.4375 C812.35475342 2487.97922852 812.77200684 2488.52095703 813.2019043 2489.07910156 C815.2867008 2491.78383273 817.37579261 2494.48517369 819.46875 2497.18359375 C832.85546889 2514.46858458 845.94966573 2532.10897211 857 2551 C857.93199219 2552.56234375 857.93199219 2552.56234375 858.8828125 2554.15625 C886.1494399 2602.28681497 895.69901231 2662.79644722 903.09394646 2716.98209 C903.40802911 2719.28256216 903.72449847 2721.58269619 904.04139709 2723.88278198 C904.98298267 2730.73429421 905.91293657 2737.58623186 906.78275776 2744.44726181 C909.37002282 2764.69344414 913.81593605 2783.5513648 920 2803 C920.811099 2805.64266005 921.61191511 2808.28823782 922.41163635 2810.93435669 C923.11655994 2813.26120315 923.83091626 2815.58493906 924.54833984 2817.90795898 C943.81825301 2880.4061114 960.92796067 2943.90675353 974 3008 C974.16933044 3008.82816223 974.33866089 3009.65632446 974.51312256 3010.50958252 C993.69222884 3104.61629561 1005.47878921 3202.75567805 960 3399 C959.67531738 3399.6811084 959.35063477 3400.3622168 959.01611328 3401.06396484 C948.57016832 3422.80338539 936.14990116 3443.20046927 921 3462 C920.17371094 3463.02609375 919.34742188 3464.0521875 918.49609375 3465.109375 C861.08335389 3531.59674198 728.3535447 3562.42925116 515 3622 C513.81809082 3622.19263428 513.81809082 3622.19263428 512.61230469 3622.38916016 C449.97608577 3632.26672886 390.6581009 3612.31228259 340.12963867 3575.83007812 C325.35157852 3564.96353262 311.08884501 3553.42203978 297.19921875 3541.44750977 C293.59398856 3538.34493186 289.94768956 3535.30512164 286.25 3532.3125 C281.87492253 3528.76254679 277.69450808 3525.04436179 273.53125 3521.25 C270.9115519 3518.92137947 268.2248469 3516.70437053 265.5 3514.5 C261.9052235 3511.5918662 258.41739372 3508.61458668 255 3505.5 C250.7569853 3501.63785433 246.37657134 3497.99245691 241.91796875 3494.3828125 C238.74582593 3491.79244152 235.61956706 3489.15317133 232.5 3486.5 C227.64702904 3482.37572261 222.7418645 3478.32333986 217.80078125 3474.3046875 C214.73224213 3471.77966925 211.70960188 3469.20515231 208.6875 3466.625 C204.25148397 3462.84207508 199.73399357 3459.19467263 195.125 3455.625 C189.37891947 3451.16885592 183.86723967 3446.4874929 178.3972168 3441.69799805 C173.94441416 3437.80215835 169.40682638 3434.03227396 164.80859375 3430.30859375 C160.88284488 3427.08172646 157.04069146 3423.76078581 153.19335938 3420.44116211 C149.65651504 3417.39678364 146.07582039 3414.4233666 142.4375 3411.5 C137.0720194 3407.14747149 132.03611045 3402.48464434 126.98828125 3397.7734375 C124.6964159 3395.63645686 122.37241243 3393.54776652 120 3391.5 C109.94862952 3382.79087148 100.37856997 3373.56520612 90.97802734 3364.16333008 C89.24204044 3362.42955057 87.4981489 3360.70398462 85.75390625 3358.97851562 C79.80576923 3353.05993626 74.20192225 3347.05566826 68.97680664 3340.47387695 C67.16367804 3338.20483508 65.28898733 3336.02584122 63.35546875 3333.859375 C51.84155474 3320.81225933 42.57575062 3306.08349807 34 3291 C33.42427246 3290.00323242 33.42427246 3290.00323242 32.83691406 3288.98632812 C26.7729958 3278.43895174 22.24665517 3267.38566363 18 3256 C17.72414063 3255.27506348 17.44828125 3254.55012695 17.1640625 3253.80322266 C11.06336659 3237.59636155 7.13731766 3220.173976 5 3203 C4.67 3203 4.34 3203 4 3203 C4 3456.44 4 3709.88 4 3971 C333.01 3971 662.02 3971 1001 3971 C1001 2661.89 1001 1352.78 1001 4 C671.99 4 342.98 4 4 4 Z M454.9375 1151.8125 C453.71027222 1152.06688843 453.71027222 1152.06688843 452.45825195 1152.32641602 C443.86078134 1154.15945071 435.41166229 1156.4553287 427 1159 C425.10701172 1159.56847656 425.10701172 1159.56847656 423.17578125 1160.1484375 C378.59351481 1174.26694483 336.20915447 1203.12549017 313.9921875 1245.09375 C313.32354714 1246.39348847 312.65942282 1247.69556083 312 1249 C311.67805664 1249.63679688 311.35611328 1250.27359375 311.02441406 1250.9296875 C300.92552655 1271.1894823 295.12072046 1292.72061616 291.9375 1315.0625 C291.75281158 1316.32989517 291.75281158 1316.32989517 291.56439209 1317.62289429 C288.9024362 1336.26915596 287.73050275 1355.02360196 286.625 1373.8125 C286.56045687 1374.90462736 286.56045687 1374.90462736 286.49460983 1376.0188179 C286.20558712 1380.93508299 285.93037433 1385.85198728 285.6640625 1390.76953125 C285.56142342 1392.63457306 285.56142342 1392.63457306 285.45671082 1394.53729248 C285.05442848 1402.36523418 284.92191874 1410.16222364 285 1418 C283.865625 1417.9175 282.73125 1417.835 281.5625 1417.75 C263.81101587 1417.8611204 245.62014228 1425.69501615 232.51953125 1437.43359375 C223.00605188 1447.12406808 216.93343805 1459.03665173 216.75 1472.6875 C216.86975968 1484.16047734 220.11898302 1492.86849526 228.109375 1501.19921875 C238.54450439 1510.93267564 248.98451122 1513.37140489 263 1513.1875 C264.39992188 1513.1865332 264.39992188 1513.1865332 265.828125 1513.18554688 C271.68711199 1513.14872363 277.1027975 1512.65524472 283 1512 C283 1550.94 283 1589.88 283 1630 C276.4 1630.99 269.8 1631.98 263 1633 C247.04793019 1638.3173566 234.4317701 1646.04248567 226.625 1661.25 C221.85831059 1671.08926263 221.05168039 1683.37813282 224.5 1693.875 C230.09945219 1706.71276845 238.62014208 1714.04149542 251.375 1719.375 C262.62957528 1723.7036828 271.94563063 1722 285 1722 C285 1751.37 285 1780.74 285 1811 C281.7 1811.99 278.4 1812.98 275 1814 C254.92582741 1821.18444072 233.87259069 1830.3195795 222.98828125 1849.80859375 C220.21220582 1855.96423928 220.0130296 1862.49487146 221.8359375 1868.96875 C228.6271769 1886.65331972 243.2172261 1897.75636744 259.9921875 1905.35546875 C269.08995053 1908.92498767 277.26065711 1909 287 1909 C287 1937.38 287 1965.76 287 1995 C283.37 1995.33 279.74 1995.66 276 1996 C272.89996816 1996.80380893 270.0012218 1997.63025141 267 1998.6875 C266.22527344 1998.9551416 265.45054687 1999.2227832 264.65234375 1999.49853516 C248.69280344 2005.18362182 236.37371093 2014.14561667 228 2029 C222.85152507 2039.86591879 222.06957421 2053.10579072 224.91796875 2064.75390625 C226.09267682 2067.97389892 227.42473765 2070.95754078 229 2074 C229.45761719 2074.90234375 229.91523438 2075.8046875 230.38671875 2076.734375 C238.1346093 2090.74425929 251.61049499 2099.50947301 266.68359375 2104.12890625 C272.62682252 2105.81814915 277.74849689 2107 284 2107 C283.67 2129.77 283.34 2152.54 283 2176 C273.1 2180.95 273.1 2180.95 263 2186 C244.41928197 2197.66696248 224.70172472 2211.33824209 219.3125 2233.875 C217.65061544 2250.49384556 223.09109278 2264.90008104 233.44140625 2277.79589844 C236.77611744 2281.71614312 240.32520241 2285.39920875 244 2289 C245.16015625 2290.14082031 245.16015625 2290.14082031 246.34375 2291.3046875 C256.67507383 2300.92479701 266.04328481 2307.10905309 280.28125 2307.03125 C281.35439453 2307.02673828 282.42753906 2307.02222656 283.53320312 2307.01757812 C284.75426758 2307.00887695 284.75426758 2307.00887695 286 2307 C285.86537354 2307.69182373 285.73074707 2308.38364746 285.59204102 2309.09643555 C281.81827325 2328.60441811 278.41348431 2348.16498282 275.1184082 2367.75909424 C271.85464099 2387.15099845 268.43501599 2406.51126 264.91870117 2425.85888672 C264.73942078 2426.84880615 264.56014038 2427.83872559 264.37542725 2428.85864258 C264.02923577 2430.7577913 263.67843941 2432.6561076 263.3225708 2434.5534668 C262.4397511 2439.30206735 261.79922327 2443.98404931 261.3203125 2448.79296875 C260.20143978 2455.59745412 255.77044773 2459.30237447 250.8125 2463.75 C249.12932473 2465.32579361 247.44830353 2466.90389149 245.76953125 2468.484375 C244.9499292 2469.24613037 244.13032715 2470.00788574 243.28588867 2470.79272461 C240.63091831 2473.35638872 238.25873547 2476.07993663 235.86938477 2478.88818359 C231.9845112 2483.27686798 227.73512019 2487.32496074 223.5625 2491.4375 C221.74906068 2493.22559426 219.93773299 2495.01583357 218.12890625 2496.80859375 C217.33556885 2497.59032959 216.54223145 2498.37206543 215.72485352 2499.17749023 C213.88543663 2500.70283047 213.88543663 2500.70283047 214 2502 C301.68755597 2502.1137768 389.37072064 2502.01738809 521.18363078 2501.1831104 C534.34497477 2501.09526007 547.50633825 2501.01118075 560.66772461 2500.92993164 C564.2070993 2500.90806664 567.74647397 2500.88620025 571.28584862 2500.86432838 C572.16002671 2500.85892653 573.03420479 2500.85352468 573.93487313 2500.84795914 C644.29194406 2500.41267527 714.6475915 2499.95057742 785 2499 C784.05752637 2497.73408199 783.11374788 2496.4691354 782.16943359 2495.20458984 C781.6440097 2494.50006683 781.11858582 2493.79554382 780.57723999 2493.06967163 C778.36256192 2490.16354676 776.01007383 2487.3914776 773.625 2484.625 C769.67919918 2480.00632365 765.8317674 2475.32797882 762.05859375 2470.56640625 C758.11429062 2465.64912511 754.05008709 2460.83022682 750 2456 C751.43120375 2452.28744389 753.06495162 2448.73412725 754.828125 2445.16796875 C760.81098934 2432.97347834 766.69658733 2420.91023801 771 2408 C771.33515625 2407.07703125 771.6703125 2406.1540625 772.015625 2405.203125 C774.36823427 2398.31639605 775.65766661 2391.2948635 772.96875 2384.328125 C762.52743654 2365.18571699 735.94611024 2358.42597665 718 2351 C717.505 2277.245 717.505 2277.245 717 2202 C723.27 2202 729.54 2202 736 2202 C749.65792149 2199.43913972 761.46276795 2192.48693284 770.00390625 2181.3984375 C777.02737807 2170.87081451 781.18098707 2160.39873353 781.25 2147.8125 C781.270625 2146.89146484 781.29125 2145.97042969 781.3125 2145.02148438 C781.37003525 2134.88808863 778.62849152 2128.70870438 771.6640625 2121.3359375 C762.97047295 2113.71311265 752.13312225 2110.63786309 740.78125 2110.8046875 C739.66623108 2110.80893234 739.66623108 2110.80893234 738.52868652 2110.81326294 C736.18561783 2110.82433843 733.84295053 2110.84941772 731.5 2110.875 C729.89844307 2110.88504619 728.29688007 2110.89416915 726.6953125 2110.90234375 C722.7967235 2110.9242361 718.89842948 2110.95867614 715 2111 C714.80606601 2097.72583376 714.68795515 2084.45334163 714.66578102 2071.17771244 C714.65311889 2065.01252233 714.61466292 2058.84977287 714.51660156 2052.68530273 C714.42286263 2046.73221936 714.39773955 2040.78238395 714.41953659 2034.82864189 C714.41590564 2032.56117086 714.38783358 2030.29359914 714.33458328 2028.02675056 C713.95120144 2010.72694728 713.95120144 2010.72694728 717.34230804 2006.21339035 C720.58253808 2003.28724333 724.17425491 2001.53019335 728.17374802 1999.86408806 C745.2946422 1991.76336574 760.66667102 1974.13332179 767.25 1956.6875 C768.87778364 1948.68423045 769.03995161 1942.14235542 764.52734375 1935.1171875 C764.02332031 1934.41851563 763.51929688 1933.71984375 763 1933 C762.52691406 1932.32195313 762.05382812 1931.64390625 761.56640625 1930.9453125 C751.97156205 1918.64668427 735.62731442 1913.31336477 721.24414062 1908.91113281 C719.48970642 1908.37350311 719.48970642 1908.37350311 717.6998291 1907.82501221 C716.8088855 1907.55275818 715.91794189 1907.28050415 715 1907 C714.98969254 1906.32524124 714.97938507 1905.65048248 714.96876526 1904.95527649 C714.86881524 1898.44501196 714.76610961 1891.93479661 714.66066074 1885.42461872 C714.60659853 1882.08151904 714.55373392 1878.73841147 714.50268555 1875.39526367 C714.2146107 1856.58504324 713.71948202 1837.79833902 713 1819 C713.95624268 1818.93578857 714.91248535 1818.87157715 715.89770508 1818.80541992 C717.15478271 1818.71881104 718.41186035 1818.63220215 719.70703125 1818.54296875 C720.95202393 1818.45813232 722.1970166 1818.3732959 723.47973633 1818.28588867 C737.05483812 1817.18342358 747.77932128 1811.02951019 757 1801 C759.37491603 1797.8134038 761.26997791 1794.57423706 763 1791 C763.33902344 1790.31679687 763.67804687 1789.63359375 764.02734375 1788.9296875 C767.48907064 1780.53858913 767.53886431 1769.03477263 764.375 1760.5625 C763.63104756 1759.01776542 762.83933017 1757.49505686 762 1756 C761.5875 1755.24460937 761.175 1754.48921875 760.75 1753.7109375 C750.57641816 1736.8898448 731.8024874 1729.11244202 714 1723 C713.34 1723 712.68 1723 712 1723 C712 1693.63 712 1664.26 712 1634 C713.98 1633.34 715.96 1632.68 718 1632 C735.02709855 1623.95907714 750.7645417 1611.88398911 761 1596 C761.56589844 1595.13246094 762.13179687 1594.26492188 762.71484375 1593.37109375 C767.16304578 1585.30025627 767.36627931 1575.96503823 766 1567 C759.90996669 1546.36023732 739.68404927 1533.95876953 722.03662109 1524.10644531 C716.28734532 1520.56142175 716.28734532 1520.56142175 710 1519 C710 1492.6 710 1466.2 710 1439 C713.96 1438.01 717.92 1437.02 722 1436 C736.52041913 1431.75048747 748.28655533 1424.65645826 759 1414 C759.93585938 1413.11634766 759.93585938 1413.11634766 760.890625 1412.21484375 C770.28950132 1402.58311239 776.41766384 1387.98831966 776.3125 1374.625 C776.30686035 1373.87549072 776.3012207 1373.12598145 776.29541016 1372.35375977 C776.0553589 1361.410037 772.31670465 1354.37904457 764.66796875 1346.640625 C749.53407716 1332.41337208 729.78123561 1332.42585342 710 1330 C709.96036133 1329.37770508 709.92072266 1328.75541016 709.87988281 1328.11425781 C707.1535746 1287.06900988 694.76648435 1249.52893503 669 1217 C668.33315186 1216.15163574 668.33315186 1216.15163574 667.65283203 1215.28613281 C637.87003857 1177.74479652 591.84360816 1156.45376921 545 1150 C543.78940918 1149.82339844 542.57881836 1149.64679688 541.33154297 1149.46484375 C530.53338698 1147.9784294 519.85315027 1147.69041195 508.96240234 1147.73925781 C506.1348718 1147.74996263 503.30798003 1147.73930124 500.48046875 1147.7265625 C485.17730006 1147.71417046 469.93950618 1148.6086252 454.9375 1151.8125 Z M739.52001953 2529.07714844 C727.71432856 2529.14132697 715.90906399 2529.23810786 704.10367584 2529.34354782 C700.44760167 2529.37602051 696.79152038 2529.40757599 693.13543701 2529.43899536 C662.87181329 2529.70089271 632.60958105 2530.02748557 602.34765625 2530.44140625 C600.89004205 2530.46128885 599.43242779 2530.48116657 597.97481346 2530.50103951 C590.45656186 2530.60361021 582.93831767 2530.70672207 575.42007446 2530.80990601 C574.65654059 2530.82038025 573.89300672 2530.83085449 573.10633546 2530.84164613 C569.2267201 2530.8948776 565.34710624 2530.94821462 561.46749496 2531.00174332 C514.85619964 2531.64405107 468.24460587 2532.1365275 421.63046986 2532.52233312 C419.61165174 2532.53904365 417.5928339 2532.55578774 415.57401609 2532.57253671 C388.72407812 2532.79513745 361.87408655 2533.01055594 335.02399492 2533.21381879 C324.83978814 2533.2909662 314.65559862 2533.37017664 304.4714179 2533.45069098 C298.5453374 2533.49736476 292.61925374 2533.54275119 286.69313812 2533.58475113 C275.0606357 2533.66776388 263.42889707 2533.76936708 251.79699945 2533.91529393 C245.93633081 2533.98384193 240.07822148 2534.00120576 234.21722162 2533.97736055 C230.48671877 2533.96835155 226.75680332 2533.99084731 223.02642083 2534.01964653 C221.31837011 2534.0257612 219.61020083 2534.01850013 217.90229201 2533.99564946 C197.70337162 2533.73770866 181.07372748 2543.13887744 166.5625 2556.9375 C135.84247897 2589.24820173 133.250303 2659.52520359 125.43377686 2701.33633423 C123.55281734 2711.38288616 121.44137215 2721.35724575 119.12768555 2731.31298828 C118.55945254 2733.76314029 118.00111265 2736.21541246 117.44335938 2738.66796875 C115.3210851 2747.90714728 112.90968955 2757.0040099 110.17163086 2766.07910156 C108.48234535 2771.68370931 106.99494292 2777.3410467 105.5 2783 C103.57263564 2790.23896144 101.60937473 2797.45550667 99.4375 2804.625 C97.09820641 2812.37487189 95.15971495 2820.21293975 93.23022461 2828.07348633 C91.764303 2834.02318228 90.19998019 2839.92595031 88.5 2845.8125 C85.74779877 2855.44465142 83.66688547 2865.21943228 81.53515625 2875.00390625 C80.08354529 2881.66288353 78.55064043 2888.30100173 77 2894.9375 C75.21409799 2902.59416573 73.50972713 2910.26095394 71.90209961 2917.95703125 C69.34425196 2930.19135549 66.49486206 2942.320004 63.4375 2954.4375 C63.24104889 2955.21611389 63.04459778 2955.99472778 62.8421936 2956.79693604 C62.07414223 2959.83844327 61.3051771 2962.8797177 60.53511047 2965.92071533 C55.7446177 2984.84874747 51.53255991 3003.90032781 47.43286133 3022.98791504 C47.01236493 3024.94252364 46.5892301 3026.89656406 46.16601562 3028.85058594 C41.17824828 3051.94769259 37.46979005 3075.02869429 34.8125 3098.5 C34.72764343 3099.24073761 34.64278687 3099.98147522 34.55535889 3100.74465942 C32.60662022 3117.90935769 31.76311363 3135.03984633 31.75 3152.3125 C31.74932526 3153.12783203 31.74865051 3153.94316406 31.74795532 3154.78320312 C31.77805366 3177.95273312 33.87936984 3200.58888942 40 3223 C40.37898438 3224.40258057 40.37898438 3224.40258057 40.765625 3225.83349609 C49.30781783 3256.88792629 63.44847017 3286.07175549 84 3311 C84.66 3311.81984375 85.32 3312.6396875 86 3313.484375 C88.31178108 3316.34107591 90.65331663 3319.17201666 93 3322 C93.83281494 3323.00724121 94.66562988 3324.01448242 95.52368164 3325.05224609 C102.95624521 3333.93532011 110.9137881 3342.19326557 119.13769531 3350.34350586 C121.26694939 3352.45430246 123.38789081 3354.57319401 125.5078125 3356.69335938 C126.88494328 3358.06557941 128.26253116 3359.4373409 129.640625 3360.80859375 C130.261651 3361.42850693 130.882677 3362.0484201 131.52252197 3362.68711853 C135.31331908 3366.43769675 139.21959134 3370.00904173 143.25657654 3373.49345398 C145.47897007 3375.41389282 147.64474684 3377.39327119 149.8125 3379.375 C154.18285684 3383.32371445 158.70303079 3387.0462721 163.28125 3390.75 C165.92147729 3392.93501569 168.4672972 3395.19171391 171 3397.5 C175.21879623 3401.34069657 179.57718295 3404.95910346 184.01171875 3408.546875 C187.40749512 3411.33451887 190.73691489 3414.19189115 194.0625 3417.0625 C198.78237935 3421.13225998 203.56498769 3425.09056532 208.45703125 3428.953125 C211.43599534 3431.35093942 214.34328892 3433.82826844 217.25 3436.3125 C221.70635645 3440.11750746 226.2419275 3443.78770606 230.875 3447.375 C237.87082607 3452.8040576 244.52503693 3458.58869772 251.18603516 3464.41992188 C254.01965471 3466.88818375 256.88085895 3469.32318843 259.75 3471.75 C260.28157715 3472.19972168 260.8131543 3472.64944336 261.36083984 3473.11279297 C264.77233642 3475.98890485 268.22136264 3478.8151439 271.6875 3481.625 C276.08082922 3485.19815632 280.2842103 3488.9362423 284.46875 3492.75 C287.0884481 3495.07862053 289.7751531 3497.29562947 292.5 3499.5 C296.0947765 3502.4081338 299.58260628 3505.38541332 303 3508.5 C307.23065156 3512.35148939 311.60041849 3515.98041117 316.05078125 3519.57421875 C318.10044813 3521.2601037 320.11258081 3522.9573139 322.10546875 3524.70703125 C331.25178272 3532.73102281 340.84394515 3540.04107941 350.64013672 3547.25292969 C352.74391489 3548.8104133 354.83047574 3550.3871427 356.91015625 3551.9765625 C391.1383852 3577.96090961 431.45369301 3595.58240239 474.88891602 3595.20581055 C477.06473557 3595.18748117 479.24012646 3595.18530259 481.41601562 3595.18554688 C495.8038138 3595.15292886 509.68970865 3593.95287529 523.8125 3591.1875 C525.2328713 3590.91467394 526.65328183 3590.64205204 528.07373047 3590.36962891 C541.38958367 3587.79696105 554.48777106 3584.81162675 567.5078125 3580.98828125 C571.13311869 3579.96232771 574.7742288 3579.06773388 578.4375 3578.1875 C586.11387963 3576.32283072 593.64184499 3574.03191797 601.18652344 3571.69677734 C606.52569314 3570.04707294 611.87129188 3568.46136254 617.26000977 3566.98193359 C632.39281443 3562.8087313 647.22523433 3557.69558912 662.08740234 3552.66064453 C666.12927487 3551.29216808 670.17555773 3549.93731117 674.22329712 3548.58630371 C712.61360197 3535.75969636 750.84095406 3522.08323954 788 3506 C789.0401123 3505.55285645 790.08022461 3505.10571289 791.15185547 3504.64501953 C798.46418948 3501.49500403 805.74042043 3498.26958164 813 3495 C814.11729492 3494.49887695 815.23458984 3493.99775391 816.38574219 3493.48144531 C842.81351481 3481.58338779 869.92185259 3469.15022105 892 3450 C892.63679687 3449.45859375 893.27359375 3448.9171875 893.9296875 3448.359375 C911.16213896 3432.48549855 923.10398667 3408.94087417 933 3388 C933.53109375 3386.89398437 934.0621875 3385.78796875 934.609375 3384.6484375 C936.11874135 3381.45075931 937.57303535 3378.23523942 939 3375 C939.45761719 3373.97003906 939.91523437 3372.94007813 940.38671875 3371.87890625 C949.33876128 3350.66379177 955.00407786 3328.37595934 959.42529297 3305.84106445 C959.913256 3303.428819 960.45912113 3301.04448183 961.03515625 3298.65234375 C968.05963511 3267.37660364 968.17200347 3234.04888413 968.1875 3202.1875 C968.18913147 3200.34717194 968.18913147 3200.34717194 968.1907959 3198.46966553 C968.19044052 3194.93153828 968.18126316 3191.39356909 968.16796875 3187.85546875 C968.16675522 3186.79407181 968.16554169 3185.73267487 968.16429138 3184.63911438 C968.13137308 3179.37184348 967.89667971 3174.23622645 967.24131775 3169.00956726 C966.88842978 3166.0709019 966.7477906 3163.13128119 966.60546875 3160.17578125 C965.70440655 3143.04465096 964.03506286 3126.25206753 961.57373047 3109.26245117 C961.11750703 3105.98114412 960.72687332 3102.69513594 960.35205078 3099.40356445 C958.65609566 3084.51581912 956.41439045 3069.80634151 953.75 3055.0625 C953.45403931 3053.40864288 953.45403931 3053.40864288 953.15209961 3051.72137451 C947.25099622 3018.75693778 940.09886405 2986.27170234 931.94458008 2953.79541016 C930.17570602 2946.74673708 928.43758278 2939.69270361 926.76928711 2932.61938477 C924.27206884 2922.03963277 921.58757476 2911.54316707 918.59570312 2901.09326172 C917.80772109 2898.32434453 917.04384633 2895.54903292 916.27978516 2892.7734375 C911.4639527 2875.30463056 906.63089524 2857.83193597 901.07397461 2840.58251953 C899.2380757 2834.85211947 897.61266581 2829.08170299 896.03881836 2823.2746582 C893.83270771 2815.22458052 891.34437101 2807.26258992 888.85400391 2799.29663086 C885.58780654 2788.81199186 882.71577103 2778.56637769 881.125 2767.6875 C880.87737915 2766.046604 880.87737915 2766.046604 880.62475586 2764.37255859 C879.37433506 2755.93641718 878.27538321 2747.48362962 877.19116211 2739.02490234 C875.1027125 2722.7338959 872.74376532 2706.56563881 869.65039062 2690.42822266 C868.97855443 2686.88695995 868.33912946 2683.34082945 867.703125 2679.79296875 C852.80568703 2597.29089435 852.80568703 2597.29089435 805.46510315 2530.89974976 C800.88884989 2528.39080972 797.41268467 2528.48527482 792.28491211 2528.59619141 C791.32490107 2528.60079754 790.36489002 2528.60540367 789.37578773 2528.61014938 C786.19667118 2528.62997898 783.01864561 2528.67830174 779.83984375 2528.7265625 C777.58163455 2528.74612576 775.32340831 2528.76380197 773.06517029 2528.7796936 C768.36429499 2528.81589061 763.66374174 2528.86349338 758.96307373 2528.92053223 C752.48210785 2528.99799659 746.00134447 2529.04366256 739.52001953 2529.07714844 Z " fill="#010101" transform="translate(0,0)"/>
<path d="M0 0 C331.65 0 663.3 0 1005 0 C1005 1311.75 1005 2623.5 1005 3975 C673.35 3975 341.7 3975 0 3975 C0 2663.25 0 1351.5 0 0 Z M4 4 C3.97494385 98.09705078 3.9498877 192.19410156 3.92407227 289.14257812 C3.89125724 411.31126579 3.89125724 411.31126579 3.87632478 466.0838458 C3.87580633 467.98589912 3.87528788 469.88795244 3.87476943 471.79000575 C3.87450945 472.74376792 3.87424946 473.69753008 3.8739816 474.68019413 C3.87317162 477.65200093 3.87236192 480.62380772 3.8715523 483.59561451 C3.84247944 590.30787786 3.81282801 697.02014102 3.75729416 889.21769694 C3.75633159 892.53268551 3.75536923 895.84767408 3.75440695 899.16266266 C3.7271397 993.09445421 3.69967944 1087.0262457 3.67196074 1180.95803712 C3.67093483 1184.4345691 3.66990894 1187.91110108 3.66888306 1191.38763306 C3.66854423 1192.53587053 3.66820539 1193.68410801 3.66785629 1194.86714056 C3.65511616 1238.04254604 3.64242013 1281.21795152 3.62975043 1324.39335702 C3.6283738 1329.08444931 3.62699666 1333.77554161 3.62561907 1338.46663391 C3.59309941 1449.20677983 3.56137284 1559.94692589 3.53222656 1670.68707275 C3.53191969 1671.85279483 3.53161283 1673.01851692 3.53129666 1674.21956391 C3.52109308 1712.98538555 3.51096646 1751.75120721 3.50085045 1790.51702887 C3.49171003 1825.54338842 3.48254198 1860.56974796 3.47328281 1895.59610748 C3.47297866 1896.74673198 3.47267451 1897.89735647 3.47236113 1899.08284838 C3.45330773 1971.13507423 3.43305745 2043.18729967 3.41159725 2115.23952484 C3.411266 2116.35223738 3.41093474 2117.46494992 3.41059345 2118.61138101 C3.39604503 2167.47757612 3.38124696 2216.34377114 3.36616334 2265.20996608 C3.36009638 2284.86876224 3.3540664 2304.52755842 3.34805668 2324.1863546 C3.34705991 2327.44594746 3.34606194 2330.70554032 3.34506384 2333.96513319 C3.32980154 2383.8368047 3.31536524 2433.70847629 3.30332303 2483.5801487 C3.30306324 2484.65601444 3.30280344 2485.73188018 3.30253577 2486.84034791 C3.29836153 2504.14765405 3.29425606 2521.4549602 3.29016246 2538.76226635 C3.27854302 2587.88784533 3.26646143 2637.01342395 3.25084388 2686.13900185 C3.25036902 2687.6337962 3.25036902 2687.6337962 3.24988456 2689.15878842 C3.24296845 2710.89849119 3.23578073 2732.63819386 3.22832713 2754.37789645 C3.22535891 2763.04799406 3.22242792 2771.71809169 3.21950912 2780.38818932 C3.21918976 2781.33395979 3.2188704 2782.27973026 3.21854136 2783.25416044 C3.20842551 2813.26462719 3.20137609 2843.27509362 3.19609657 2873.28556159 C3.1908865 2902.83100806 3.1826686 2932.37645193 3.17005563 2961.92189623 C3.16832905 2965.96753992 3.16663738 2970.01318363 3.1649667 2974.05882734 C3.1646383 2974.85085029 3.1643099 2975.64287325 3.16397155 2976.45889689 C3.1588826 2988.95148301 3.15711813 3001.44406726 3.15677539 3013.93665432 C3.15637249 3026.1568904 3.15244381 3038.37712108 3.14472784 3050.59735478 C3.14071586 3057.10403704 3.13836918 3063.61071154 3.1403735 3070.11739517 C3.14216378 3076.02265749 3.13936291 3081.92789929 3.13292535 3087.83315822 C3.13141565 3089.94928763 3.13156065 3092.06541906 3.1335965 3094.18154803 C3.14284213 3104.72158263 3.00396513 3115.18582311 2.22679441 3125.6998797 C1.89425142 3130.53876385 1.8561481 3135.36255176 1.8671875 3140.2109375 C1.86623077 3141.18882233 1.86527405 3142.16670715 1.86428833 3143.17422485 C1.86361647 3145.21575994 1.86540011 3147.2572973 1.86962891 3149.29882812 C1.87497963 3152.36333184 1.86965541 3155.42768826 1.86328125 3158.4921875 C1.86394243 3160.50260448 1.86522442 3162.51302137 1.8671875 3164.5234375 C1.86516327 3165.40840912 1.86313904 3166.29338074 1.86105347 3167.20516968 C1.8802984 3172.6265237 2.12824506 3177.99385174 2.49819851 3183.40259361 C3.29661182 3196.70355306 3.15505783 3210.03128269 3.15720772 3223.35069518 C3.15894914 3227.33405735 3.1664312 3231.31740968 3.17315674 3235.30076599 C3.18415163 3242.2738043 3.19154147 3249.24683907 3.19653046 3256.21988416 C3.20406495 3266.7230482 3.21734525 3277.22619994 3.23167671 3287.72935663 C3.25554533 3305.33440939 3.27499836 3322.93946426 3.29173279 3340.54452515 C3.31437417 3364.34894498 3.34313574 3388.15335083 3.3729248 3411.95776367 C3.44144291 3469.18016965 3.50145053 3526.40258556 3.5625 3583.625 C3.706875 3711.45875 3.85125 3839.2925 4 3971 C333.01 3971 662.02 3971 1001 3971 C1001 2661.89 1001 1352.78 1001 4 C671.99 4 342.98 4 4 4 Z " fill="#FEFEFE" transform="translate(0,0)"/>
</svg>
