<?xml version="1.0" encoding="UTF-8"?>
<svg version="1.1" xmlns="http://www.w3.org/2000/svg" width="1018" height="3976">
<path d="M0 0 C335.94 0 671.88 0 1018 0 C1018 1312.08 1018 2624.16 1018 3976 C682.06 3976 346.12 3976 0 3976 C0 2663.92 0 1351.84 0 0 Z M3 4 C3 1313.44 3 2622.88 3 3972 C336.63 3972 670.26 3972 1014 3972 C1014 2995.86 1014 2019.72 1014 1014 C1013.67 1014 1013.34 1014 1013 1014 C1012.90501221 1014.80816162 1012.81002441 1015.61632324 1012.7121582 1016.44897461 C1010.56327841 1034.48808721 1007.93860805 1052.24869965 1004 1070 C1003.80825195 1070.88236328 1003.61650391 1071.76472656 1003.41894531 1072.67382812 C989.5557612 1136.00066225 962.63655466 1196.43117528 934.21875 1254.38671875 C930.89711251 1261.16939821 927.721025 1268.01516087 924.5625 1274.875 C920.34239373 1284.03794348 916.00504702 1293.13213629 911.57015991 1302.19207764 C891.69929448 1342.82947632 873.82523892 1384.76409738 860.625 1428.0625 C860.42566864 1428.71140198 860.22633728 1429.36030396 860.02096558 1430.02886963 C858.83378971 1433.91461112 857.71455525 1437.81496707 856.63292754 1441.73168445 C856.2167536 1443.22318823 855.79166809 1444.71223917 855.35694921 1446.19844365 C850.9219746 1461.51534911 850.29267568 1476.01160901 850.37231445 1491.88427734 C850.36707206 1494.53208419 850.35983557 1497.17981703 850.35012627 1499.82760429 C850.33310511 1505.51363696 850.33385218 1511.19943531 850.34697533 1516.88547516 C850.36603342 1525.21815932 850.35584219 1533.5506258 850.33895285 1541.88330567 C850.31160787 1555.64994284 850.30499746 1569.41650661 850.31036377 1583.1831665 C850.31778502 1603.42800147 850.28731038 1623.67268935 850.24755859 1643.91748047 C850.24428922 1645.60114646 850.24102209 1647.28481245 850.23775721 1648.96847844 C850.2247147 1655.6674857 850.21151149 1662.36649259 850.19778132 1669.06549847 C850.18080002 1677.37041155 850.16473758 1685.67532439 850.15109253 1693.98024368 C850.06939402 1743.69867881 849.86471614 1793.41125652 849.125 1843.125 C849.103663 1844.57392242 849.08232994 1846.02284489 849.06100082 1847.47176743 C848.78771689 1865.93771587 848.46731799 1884.40258177 848.11608917 1902.86721939 C848.02286199 1907.77238877 847.93185149 1912.67759613 847.84179688 1917.58282471 C846.54455675 1988.1466831 844.88176242 2058.70153742 836 2305 C835.94990028 2306.14589851 835.89980057 2307.29179703 835.84818268 2308.47241974 C831.1383856 2415.9707224 824.77103721 2523.417711 749 3105 C748.67932556 3106.26203247 748.67932556 3106.26203247 748.35217285 3107.54956055 C739.84538612 3140.87271951 729.72587209 3173.84290289 715 3205 C714.59185059 3205.87382324 714.18370117 3206.74764648 713.76318359 3207.64794922 C701.83122136 3233.01558958 685.60786254 3259.76620671 658.2890625 3270.2734375 C645.08466296 3274.46459503 631.15471545 3272.4730635 618.9140625 3266.4921875 C611.61752659 3262.45939773 605.23121932 3257.5156726 599 3252 C598.08154297 3251.18982422 598.08154297 3251.18982422 597.14453125 3250.36328125 C565.98934523 3220.98416284 547.71140081 3175.92214342 532 3137 C531.26378418 3135.18193848 531.26378418 3135.18193848 530.51269531 3133.32714844 C499.28306556 3055.70766921 477.28674661 2974.42746787 295.125 1970.4375 C294.96329315 1969.22859856 294.8015863 1968.01969711 294.63497925 1966.77416229 C293.6870159 1959.68378803 292.74275376 1952.59293096 291.80210114 1945.5015831 C291.47894051 1943.06642558 291.15523916 1940.63133975 290.83101654 1938.19632339 C288.80587851 1922.97727629 286.83641273 1907.75255029 284.93694496 1892.51728535 C277.49791924 1832.85927003 268.64085994 1773.55000037 258.69722152 1714.25982952 C256.76246206 1702.7199506 254.8475613 1691.17679725 252.93331933 1679.63350022 C249.70058889 1660.14179094 246.45432891 1640.65237083 243.19824219 1621.16455078 C239.90412094 1601.44786007 236.63476452 1581.72721076 233.38611293 1562.00298047 C231.79802692 1552.36102149 230.20494506 1542.71988823 228.61093521 1533.07890701 C228.38596698 1531.71819331 228.16100028 1530.35747935 227.93603516 1528.99676514 C227.82641001 1528.33374209 227.71678485 1527.67071904 227.60383773 1526.98760438 C226.85143749 1522.43581916 226.10137227 1517.88365281 225.35205078 1513.33135986 C224.37097387 1507.37410394 223.38324611 1501.41798809 222.39023972 1495.46270943 C222.04207734 1493.36857106 221.69606415 1491.27407374 221.35264969 1489.17915154 C218.33417644 1470.77862042 214.76110684 1452.4670983 209.0625 1434.6875 C208.68754395 1433.5013208 208.31258789 1432.3151416 207.92626953 1431.09301758 C192.39650857 1382.27324626 173.84435928 1334.61512817 155 1287 C154.70605347 1286.25717773 154.41210693 1285.51435547 154.10925293 1284.74902344 C150.76438498 1276.30163237 147.38311126 1267.86906326 143.98510742 1259.44293213 C142.84578044 1256.6175565 141.70707477 1253.79193077 140.56835938 1250.96630859 C136.69020549 1241.34426765 132.81081799 1231.722728 128.92504883 1222.10375977 C128.6762198 1221.48778899 128.42739077 1220.87181822 128.17102146 1220.23718166 C127.16576849 1217.74874096 126.16051021 1215.2603024 125.15517616 1212.77189445 C121.67579335 1204.15909534 118.20717089 1195.54204433 114.74609375 1186.921875 C106.1294753 1165.4765212 97.38997028 1144.11984588 88 1123 C87.4937207 1121.8567627 86.98744141 1120.71352539 86.46582031 1119.53564453 C80.03556265 1105.03013251 73.44950091 1090.5992356 66.8125 1076.1875 C-7.37267404 915.0447045 -7.37267404 915.0447045 8 847 C8.17160645 846.22382324 8.34321289 845.44764648 8.52001953 844.64794922 C19.33165611 797.1211929 47.03291943 756.823545 77.55712891 719.76318359 C78.81630048 718.22448019 80.05632422 716.67014719 81.29296875 715.11328125 C86.38944461 708.71639129 91.87521354 702.75371116 97.50927734 696.83203125 C100.60730802 693.57388502 103.6445881 690.28760351 106.5859375 686.88671875 C109.58339758 683.43202613 112.72636137 680.19124203 116 677 C119.30759487 673.73733002 122.54671525 670.47650524 125.5625 666.9375 C131.11009448 660.44275525 137.2326261 654.27343888 143.75 648.75 C148.60784252 644.61481174 153.00792729 640.01649283 157.49316406 635.48730469 C161.3078863 631.64959066 165.17698431 627.96254774 169.3125 624.46875 C171.12940433 622.88737031 172.8121128 621.21802804 174.5 619.5 C177.44264324 616.51106799 180.52355707 613.75347702 183.69921875 611.015625 C186.50773529 608.55519285 189.2544368 606.03005722 192 603.5 C197.65853233 598.29575774 203.40464685 593.21556206 209.25 588.22265625 C210.45837948 587.19015817 211.6667115 586.15760454 212.875 585.125 C213.4836792 584.60518555 214.0923584 584.08537109 214.71948242 583.54980469 C218.25662058 580.52081344 221.74409531 577.44835977 225.1875 574.3125 C229.32696786 570.55606731 233.61336266 567.02440738 237.95703125 563.5078125 C241.48090603 560.60366923 244.9314798 557.62355864 248.375 554.625 C257.77587395 546.44225069 267.26035168 538.37295738 276.9296875 530.5078125 C279.29704567 528.5741688 281.65522777 526.63117582 284.0078125 524.6796875 C291.98318699 518.06904436 300.00804423 511.57299052 308.26757812 505.31884766 C310.18118367 503.86206959 312.08322042 502.39095577 313.984375 500.91796875 C354.38737769 469.67578577 396.944315 443.72387892 448 435 C448.7425 434.86867676 449.485 434.73735352 450.25 434.60205078 C502.74995874 425.74019695 554.08468218 440.33511421 601 463 C601.89025879 463.42394043 602.78051758 463.84788086 603.69775391 464.28466797 C616.90261458 470.58127749 629.49511977 477.78343199 642.06103516 485.26367188 C644.80200184 486.88302352 647.55810979 488.47096226 650.32421875 490.046875 C666.79995476 499.49146646 682.39599494 510.19841709 698 521 C698.9394043 521.6501709 699.87880859 522.3003418 700.84667969 522.97021484 C714.43256187 532.40677993 727.55525422 542.39637645 740.59375 552.5703125 C743.82690831 555.09133982 747.07275853 557.59461089 750.33032227 560.08398438 C761.7578988 568.81914541 772.70999806 578.1040429 783.66601562 587.41601562 C785.31833548 588.81980794 786.97148252 590.22261863 788.625 591.625 C789.16261963 592.08156982 789.70023926 592.53813965 790.25415039 593.00854492 C793.73276734 595.95410117 797.26010683 598.8308859 800.8125 601.6875 C804.83795856 604.96037283 808.51808011 608.40864862 812.1328125 612.125 C813.8829456 613.88245583 815.681158 615.51011416 817.5625 617.125 C827.214195 625.44673702 836.44691534 634.2780546 845.33984375 643.40234375 C847.4299185 645.44331248 849.53955913 647.35405082 851.75 649.2578125 C856.39271675 653.28360762 860.72985867 657.5828096 865.0625 661.9375 C866.2081543 663.07735352 866.2081543 663.07735352 867.37695312 664.24023438 C871.58815414 668.45864018 875.61664957 672.77064803 879.50561523 677.28735352 C881.25069277 679.2873076 883.0908742 681.15670612 885 683 C888.19261312 686.1498003 891.17161279 689.41219489 894.09375 692.8125 C896.30945648 695.35511399 898.59098592 697.83110198 900.875 700.3125 C904.96880209 704.80148057 908.85469667 709.41243476 912.66796875 714.140625 C914.704559 716.63775073 916.78271765 719.09172254 918.88427734 721.53417969 C925.32957614 729.04178908 931.36498954 736.83013329 937.30419922 744.7421875 C938.43270446 746.24469491 939.56453402 747.74471135 940.69970703 749.2421875 C958.40706503 772.61610226 974.57357946 797.3875052 987 824 C987.36335449 824.76973145 987.72670898 825.53946289 988.10107422 826.33251953 C1003.18576212 858.64398534 1010.18510571 895.59090269 1013 931 C1013.33 931 1013.66 931 1014 931 C1014 625.09 1014 319.18 1014 4 C680.37 4 346.74 4 3 4 Z " fill="#FEFEFE" transform="translate(0,0)"/>
<path d="M0 0 C191.4 0 382.8 0 580 0 C579.67 3.3 579.34 6.6 579 10 C578.91122722 12.71628321 578.85370031 15.40685126 578.85523987 18.12179565 C578.85171586 18.87793008 578.84819184 19.63406451 578.84456104 20.4131121 C578.83398416 22.92368923 578.83021502 25.43422842 578.82641602 27.94482422 C578.8200492 29.77022804 578.81323555 31.59563035 578.80601501 33.421031 C578.79125516 37.37343268 578.77946233 41.32582821 578.76992989 45.27824593 C578.75432263 51.68718184 578.73145345 58.09608016 578.70750427 64.50498962 C578.67337171 73.7742043 578.64170597 83.0434241 578.61157227 92.31265259 C578.53067038 116.95980728 578.42727733 141.60686982 578.31640625 166.25390625 C578.3079659 168.13967601 578.3079659 168.13967601 578.29935503 170.06354213 C578.05678605 223.94422594 577.60005233 277.82171772 577.03265524 331.69987965 C576.98949621 335.81369674 576.94699987 339.92752056 576.90449631 344.04134446 C576.29686809 402.79378537 575.63419361 461.54492183 574.12402344 520.28240204 C574.01511359 524.53994774 573.90908427 528.7975655 573.80273438 533.05517578 C573.66928341 538.39141371 573.53556352 543.72764429 573.40054321 549.06384277 C573.11218205 560.46497303 572.83196656 571.86627463 572.55822563 583.26776505 C571.79848963 614.9096793 571.02296017 646.55129595 570.12060547 678.18951416 C570.04246223 680.92966889 569.96622185 683.66985322 569.89111328 686.41009521 C569.42302241 703.38890508 568.71923245 720.34316795 567.88211823 737.30703735 C567.27116523 749.73230136 566.74887174 762.15565901 566.359375 774.58984375 C566.33525291 775.35554373 566.31113083 776.12124371 566.28627777 776.91014671 C566.18648445 780.08178741 566.08707176 783.25343979 565.98812485 786.425107 C563.4832037 866.36190686 559.37754269 946.25340868 554.25 1026.0625 C554.17529984 1027.22541565 554.10059967 1028.3883313 554.02363586 1029.58648682 C552.66117633 1050.75205077 551.29249981 1071.91609422 549.60891724 1093.05891418 C549.01238443 1100.60466835 548.5819881 1108.14741038 548.22396851 1115.70803833 C547.2893136 1134.99224868 545.58734045 1154.19529546 543.85183716 1173.42088318 C543.1505824 1181.22343701 542.48769721 1189.02878098 541.83984375 1196.8359375 C537.03205298 1254.71531584 532.20673 1312.7101898 524.51904297 1370.28979492 C523.16163307 1380.50569714 521.98475438 1390.7376851 520.82220459 1400.97729492 C519.25256525 1414.78916964 517.60086138 1428.54861693 515.37451172 1442.27270508 C514.28523077 1449.0012957 513.40879747 1455.72960172 512.625 1462.5 C511.40282252 1472.83561349 509.65151171 1483.04914581 507.79592896 1493.28500366 C505.85720362 1503.97964903 504.07928398 1514.68681225 502.42910767 1525.42971802 C498.18576377 1553.00951059 493.0403537 1580.38296998 486.78125 1607.57910156 C485.93223876 1611.29670952 485.1047881 1615.01887944 484.28125 1618.7421875 C478.63626034 1644.21501329 471.97120631 1669.14636409 464 1694 C463.65146973 1695.09086914 463.30293945 1696.18173828 462.94384766 1697.30566406 C438.56761849 1773.2285572 438.56761849 1773.2285572 410 1792 C403.86387968 1795.13623927 395.89034626 1795.18202261 389.3515625 1793.1953125 C366.74279753 1782.85376385 353.55479802 1756.64702626 342 1736 C341.62020996 1735.32839844 341.24041992 1734.65679688 340.84912109 1733.96484375 C317.30990843 1692.10795908 302.29087298 1645.28511962 287 1600 C286.67149048 1599.02882233 286.34298096 1598.05764465 286.0045166 1597.05703735 C279.43971146 1577.62346561 279.43971146 1577.62346561 276.75 1567.8125 C276.28713193 1566.15215582 275.82359215 1564.49199875 275.359375 1562.83203125 C275.14956497 1562.0792691 274.93975494 1561.32650696 274.72358704 1560.55093384 C274.04087816 1558.14411186 273.3281317 1555.74910179 272.60229492 1553.35498047 C271.01559266 1548.08095674 269.50089641 1542.78837044 268.00390625 1537.48828125 C267.7290892 1536.51698776 267.45427216 1535.54569427 267.17112732 1534.54496765 C266.59341614 1532.50217953 266.01611557 1530.45927526 265.43920898 1528.41625977 C264.56960493 1525.33765314 263.69796862 1522.25962694 262.82617188 1519.18164062 C258.62021692 1504.31150289 254.60319246 1489.40318888 250.75 1474.4375 C248.87807051 1467.17253346 246.98611173 1459.91471709 245.015625 1452.67578125 C241.20477418 1438.65699679 237.69763788 1424.6246979 234.56982422 1410.44165039 C232.73442582 1402.14808023 230.74164464 1393.91331706 228.625 1385.6875 C225.21031305 1372.32014395 222.33650963 1358.8546896 219.48583984 1345.3581543 C217.0281374 1333.73241755 214.47163117 1322.13389071 211.83087158 1310.54840088 C208.89155026 1297.65300495 206.085843 1284.76239219 203.67089844 1271.75610352 C202.43114435 1265.1104826 201.03133854 1258.52184328 199.5 1251.9375 C194.94825366 1232.29173413 191.32627441 1212.46923165 187.67221069 1192.64141846 C185.3921508 1180.27888571 183.00801355 1167.94395096 180.49697876 1155.62634277 C177.02060279 1138.56659074 173.9270266 1121.46152029 170.9934082 1104.30053711 C168.99225505 1092.60978788 166.88668922 1080.94594702 164.6708374 1069.2940979 C159.73709992 1043.32484516 155.48295086 1017.24369675 151.17996407 991.16438866 C149.49555169 980.95620298 147.77295223 970.75565617 146 960.5625 C143.01730215 943.35134518 140.2038357 926.111958 137.375 908.875 C137.25600342 908.15024097 137.13700684 907.42548195 137.0144043 906.67876053 C133.44551995 884.94193243 129.90451149 863.20078056 126.5 841.4375 C125.69772479 836.31573866 124.86901902 831.20011085 123.99609375 826.08984375 C122.32552447 816.29591885 120.72765619 806.53662358 119.64599609 796.65869141 C119.11990979 791.87492214 118.39764168 787.16057144 117.56640625 782.421875 C116.65785248 776.93295703 115.90530766 771.42174198 115.14086914 765.91113281 C114.50700986 761.38590257 113.82043821 756.87637751 113.05249023 752.37182617 C112.06805995 746.49522568 111.20176478 740.6081344 110.37890625 734.70703125 C110.08015685 732.59048368 109.78132616 730.47394758 109.48242188 728.35742188 C109.02287201 725.09122193 108.56423492 721.82489934 108.10717773 718.55834961 C106.05758838 703.78474252 106.05758838 703.78474252 103.5859375 689.078125 C101.23439453 676.3088537 99.54612807 663.42104008 97.72094727 650.56811523 C97.17914432 646.75300733 96.63237402 642.93863178 96.08416271 639.12444019 C93.67328952 622.33434264 91.3777725 605.53678151 89.33485413 588.69761658 C88.36818037 580.75646453 87.27479598 572.84483935 86.0625 564.9375 C84.30083226 553.31481789 82.78031676 541.67184398 81.3112793 530.00942993 C79.78607084 517.91857181 78.15507557 505.84711775 76.44009399 493.7817688 C73.93921021 476.18543486 71.68298869 458.56996141 69.55990601 440.92416382 C67.79870042 426.29944575 65.92807183 411.69890467 63.82397461 397.11938477 C62.86397579 390.41982759 61.95843052 383.7199504 61.14868164 377.00024414 C58.87457061 358.16481825 56.13357401 339.45003988 53.04469299 320.73160934 C52.55543824 317.76053467 52.07082709 314.78870901 51.58610725 311.81689167 C48.60703097 293.55584933 45.5559202 275.30757374 42.41162109 257.07421875 C40.48766862 245.91273669 38.62669651 234.7423458 36.8125 223.5625 C36.60747864 222.29939499 36.60747864 222.29939499 36.39831543 221.01077271 C35.0418519 212.64784015 33.69165698 204.28389475 32.34124756 195.91998291 C30.56270836 184.90468482 28.7824892 173.88965963 27 162.875 C26.86875984 162.06385742 26.73751968 161.25271484 26.60230255 160.41699219 C23.27951651 139.88321234 19.91621353 119.35885391 16.37548828 98.86132812 C14.3069179 86.87682152 12.32406718 74.8795059 10.375 62.875 C10.15541626 61.52359924 10.15541626 61.52359924 9.93139648 60.14489746 C8.56680934 51.7413721 7.20942444 43.33675293 5.87561035 34.92828369 C5.41972978 32.05445445 4.96178146 29.18095582 4.50396729 26.30743408 C4.19888593 24.38427419 3.8979464 22.46045865 3.59716797 20.53662109 C2.8379483 15.76122971 2.07484029 11.03924346 0.86328125 6.35546875 C0 3 0 3 0 0 Z " fill="#FEFEFE" transform="translate(244,1449)"/>
<path d="M0 0 C335.94 0 671.88 0 1018 0 C1018 1312.08 1018 2624.16 1018 3976 C682.06 3976 346.12 3976 0 3976 C0 2663.92 0 1351.84 0 0 Z M3 4 C3 1313.44 3 2622.88 3 3972 C336.63 3972 670.26 3972 1014 3972 C1014 2995.86 1014 2019.72 1014 1014 C1013.67 1014 1013.34 1014 1013 1014 C1012.90501221 1014.80816162 1012.81002441 1015.61632324 1012.7121582 1016.44897461 C1010.56327841 1034.48808721 1007.93860805 1052.24869965 1004 1070 C1003.80825195 1070.88236328 1003.61650391 1071.76472656 1003.41894531 1072.67382812 C989.5557612 1136.00066225 962.63655466 1196.43117528 934.21875 1254.38671875 C930.89711251 1261.16939821 927.721025 1268.01516087 924.5625 1274.875 C920.34239373 1284.03794348 916.00504702 1293.13213629 911.57015991 1302.19207764 C891.69929448 1342.82947632 873.82523892 1384.76409738 860.625 1428.0625 C860.42566864 1428.71140198 860.22633728 1429.36030396 860.02096558 1430.02886963 C858.83378971 1433.91461112 857.71455525 1437.81496707 856.63292754 1441.73168445 C856.2167536 1443.22318823 855.79166809 1444.71223917 855.35694921 1446.19844365 C850.9219746 1461.51534911 850.29267568 1476.01160901 850.37231445 1491.88427734 C850.36707206 1494.53208419 850.35983557 1497.17981703 850.35012627 1499.82760429 C850.33310511 1505.51363696 850.33385218 1511.19943531 850.34697533 1516.88547516 C850.36603342 1525.21815932 850.35584219 1533.5506258 850.33895285 1541.88330567 C850.31160787 1555.64994284 850.30499746 1569.41650661 850.31036377 1583.1831665 C850.31778502 1603.42800147 850.28731038 1623.67268935 850.24755859 1643.91748047 C850.24428922 1645.60114646 850.24102209 1647.28481245 850.23775721 1648.96847844 C850.2247147 1655.6674857 850.21151149 1662.36649259 850.19778132 1669.06549847 C850.18080002 1677.37041155 850.16473758 1685.67532439 850.15109253 1693.98024368 C850.06939402 1743.69867881 849.86471614 1793.41125652 849.125 1843.125 C849.103663 1844.57392242 849.08232994 1846.02284489 849.06100082 1847.47176743 C848.78771689 1865.93771587 848.46731799 1884.40258177 848.11608917 1902.86721939 C848.02286199 1907.77238877 847.93185149 1912.67759613 847.84179688 1917.58282471 C846.54455675 1988.1466831 844.88176242 2058.70153742 836 2305 C835.94990028 2306.14589851 835.89980057 2307.29179703 835.84818268 2308.47241974 C831.1383856 2415.9707224 824.77103721 2523.417711 749 3105 C748.67932556 3106.26203247 748.67932556 3106.26203247 748.35217285 3107.54956055 C739.84538612 3140.87271951 729.72587209 3173.84290289 715 3205 C714.59185059 3205.87382324 714.18370117 3206.74764648 713.76318359 3207.64794922 C701.83122136 3233.01558958 685.60786254 3259.76620671 658.2890625 3270.2734375 C645.08466296 3274.46459503 631.15471545 3272.4730635 618.9140625 3266.4921875 C611.61752659 3262.45939773 605.23121932 3257.5156726 599 3252 C598.08154297 3251.18982422 598.08154297 3251.18982422 597.14453125 3250.36328125 C565.98934523 3220.98416284 547.71140081 3175.92214342 532 3137 C531.26378418 3135.18193848 531.26378418 3135.18193848 530.51269531 3133.32714844 C499.28306556 3055.70766921 477.28674661 2974.42746787 295.125 1970.4375 C294.96329315 1969.22859856 294.8015863 1968.01969711 294.63497925 1966.77416229 C293.6870159 1959.68378803 292.74275376 1952.59293096 291.80210114 1945.5015831 C291.47894051 1943.06642558 291.15523916 1940.63133975 290.83101654 1938.19632339 C288.80587851 1922.97727629 286.83641273 1907.75255029 284.93694496 1892.51728535 C277.49791924 1832.85927003 268.64085994 1773.55000037 258.69722152 1714.25982952 C256.76246206 1702.7199506 254.8475613 1691.17679725 252.93331933 1679.63350022 C249.70058889 1660.14179094 246.45432891 1640.65237083 243.19824219 1621.16455078 C239.90412094 1601.44786007 236.63476452 1581.72721076 233.38611293 1562.00298047 C231.79802692 1552.36102149 230.20494506 1542.71988823 228.61093521 1533.07890701 C228.38596698 1531.71819331 228.16100028 1530.35747935 227.93603516 1528.99676514 C227.82641001 1528.33374209 227.71678485 1527.67071904 227.60383773 1526.98760438 C226.85143749 1522.43581916 226.10137227 1517.88365281 225.35205078 1513.33135986 C224.37097387 1507.37410394 223.38324611 1501.41798809 222.39023972 1495.46270943 C222.04207734 1493.36857106 221.69606415 1491.27407374 221.35264969 1489.17915154 C218.33417644 1470.77862042 214.76110684 1452.4670983 209.0625 1434.6875 C208.68754395 1433.5013208 208.31258789 1432.3151416 207.92626953 1431.09301758 C192.39650857 1382.27324626 173.84435928 1334.61512817 155 1287 C154.70605347 1286.25717773 154.41210693 1285.51435547 154.10925293 1284.74902344 C150.76438498 1276.30163237 147.38311126 1267.86906326 143.98510742 1259.44293213 C142.84578044 1256.6175565 141.70707477 1253.79193077 140.56835938 1250.96630859 C136.69020549 1241.34426765 132.81081799 1231.722728 128.92504883 1222.10375977 C128.6762198 1221.48778899 128.42739077 1220.87181822 128.17102146 1220.23718166 C127.16576849 1217.74874096 126.16051021 1215.2603024 125.15517616 1212.77189445 C121.67579335 1204.15909534 118.20717089 1195.54204433 114.74609375 1186.921875 C106.1294753 1165.4765212 97.38997028 1144.11984588 88 1123 C87.4937207 1121.8567627 86.98744141 1120.71352539 86.46582031 1119.53564453 C80.03556265 1105.03013251 73.44950091 1090.5992356 66.8125 1076.1875 C-7.37267404 915.0447045 -7.37267404 915.0447045 8 847 C8.17160645 846.22382324 8.34321289 845.44764648 8.52001953 844.64794922 C19.33165611 797.1211929 47.03291943 756.823545 77.55712891 719.76318359 C78.81630048 718.22448019 80.05632422 716.67014719 81.29296875 715.11328125 C86.38944461 708.71639129 91.87521354 702.75371116 97.50927734 696.83203125 C100.60730802 693.57388502 103.6445881 690.28760351 106.5859375 686.88671875 C109.58339758 683.43202613 112.72636137 680.19124203 116 677 C119.30759487 673.73733002 122.54671525 670.47650524 125.5625 666.9375 C131.11009448 660.44275525 137.2326261 654.27343888 143.75 648.75 C148.60784252 644.61481174 153.00792729 640.01649283 157.49316406 635.48730469 C161.3078863 631.64959066 165.17698431 627.96254774 169.3125 624.46875 C171.12940433 622.88737031 172.8121128 621.21802804 174.5 619.5 C177.44264324 616.51106799 180.52355707 613.75347702 183.69921875 611.015625 C186.50773529 608.55519285 189.2544368 606.03005722 192 603.5 C197.65853233 598.29575774 203.40464685 593.21556206 209.25 588.22265625 C210.45837948 587.19015817 211.6667115 586.15760454 212.875 585.125 C213.4836792 584.60518555 214.0923584 584.08537109 214.71948242 583.54980469 C218.25662058 580.52081344 221.74409531 577.44835977 225.1875 574.3125 C229.32696786 570.55606731 233.61336266 567.02440738 237.95703125 563.5078125 C241.48090603 560.60366923 244.9314798 557.62355864 248.375 554.625 C257.77587395 546.44225069 267.26035168 538.37295738 276.9296875 530.5078125 C279.29704567 528.5741688 281.65522777 526.63117582 284.0078125 524.6796875 C291.98318699 518.06904436 300.00804423 511.57299052 308.26757812 505.31884766 C310.18118367 503.86206959 312.08322042 502.39095577 313.984375 500.91796875 C354.38737769 469.67578577 396.944315 443.72387892 448 435 C448.7425 434.86867676 449.485 434.73735352 450.25 434.60205078 C502.74995874 425.74019695 554.08468218 440.33511421 601 463 C601.89025879 463.42394043 602.78051758 463.84788086 603.69775391 464.28466797 C616.90261458 470.58127749 629.49511977 477.78343199 642.06103516 485.26367188 C644.80200184 486.88302352 647.55810979 488.47096226 650.32421875 490.046875 C666.79995476 499.49146646 682.39599494 510.19841709 698 521 C698.9394043 521.6501709 699.87880859 522.3003418 700.84667969 522.97021484 C714.43256187 532.40677993 727.55525422 542.39637645 740.59375 552.5703125 C743.82690831 555.09133982 747.07275853 557.59461089 750.33032227 560.08398438 C761.7578988 568.81914541 772.70999806 578.1040429 783.66601562 587.41601562 C785.31833548 588.81980794 786.97148252 590.22261863 788.625 591.625 C789.16261963 592.08156982 789.70023926 592.53813965 790.25415039 593.00854492 C793.73276734 595.95410117 797.26010683 598.8308859 800.8125 601.6875 C804.83795856 604.96037283 808.51808011 608.40864862 812.1328125 612.125 C813.8829456 613.88245583 815.681158 615.51011416 817.5625 617.125 C827.214195 625.44673702 836.44691534 634.2780546 845.33984375 643.40234375 C847.4299185 645.44331248 849.53955913 647.35405082 851.75 649.2578125 C856.39271675 653.28360762 860.72985867 657.5828096 865.0625 661.9375 C866.2081543 663.07735352 866.2081543 663.07735352 867.37695312 664.24023438 C871.58815414 668.45864018 875.61664957 672.77064803 879.50561523 677.28735352 C881.25069277 679.2873076 883.0908742 681.15670612 885 683 C888.19261312 686.1498003 891.17161279 689.41219489 894.09375 692.8125 C896.30945648 695.35511399 898.59098592 697.83110198 900.875 700.3125 C904.96880209 704.80148057 908.85469667 709.41243476 912.66796875 714.140625 C914.704559 716.63775073 916.78271765 719.09172254 918.88427734 721.53417969 C925.32957614 729.04178908 931.36498954 736.83013329 937.30419922 744.7421875 C938.43270446 746.24469491 939.56453402 747.74471135 940.69970703 749.2421875 C958.40706503 772.61610226 974.57357946 797.3875052 987 824 C987.36335449 824.76973145 987.72670898 825.53946289 988.10107422 826.33251953 C1003.18576212 858.64398534 1010.18510571 895.59090269 1013 931 C1013.33 931 1013.66 931 1014 931 C1014 625.09 1014 319.18 1014 4 C680.37 4 346.74 4 3 4 Z M444 465 C443.27731934 465.13921875 442.55463867 465.2784375 441.81005859 465.421875 C424.16882233 468.84628033 407.7801247 475.52006156 392 484 C391.27425781 484.38559082 390.54851562 484.77118164 389.80078125 485.16845703 C362.09811988 499.94360711 337.3634602 519.33377624 313 539 C312.04222656 539.77214844 311.08445312 540.54429687 310.09765625 541.33984375 C304.37813028 545.98433401 298.77214617 550.74971235 293.19116211 555.55859375 C288.8018535 559.33372336 284.33871472 563.00739628 279.84375 566.65625 C275.91126699 569.89730743 272.05678477 573.22605448 268.19799805 576.55419922 C264.61515881 579.63727882 260.99056336 582.65526553 257.3125 585.625 C252.62117792 589.43025978 248.17672545 593.45589691 243.734375 597.546875 C241.13692058 599.87716268 238.47594286 602.07247168 235.75 604.25 C229.6996465 609.12847729 224.0971113 614.44264017 218.4453125 619.76953125 C215.31556005 622.7166166 212.12226485 625.5747844 208.8671875 628.3828125 C201.01113892 635.1870052 193.39526072 642.27045605 185.78369141 649.34570312 C184.61134935 650.43299984 183.43660988 651.51771838 182.25927734 652.59960938 C171.52823558 662.46168125 161.18820265 672.70492117 150.875 683 C149.85107147 684.02004623 149.85107147 684.02004623 148.80645752 685.06069946 C139.34991308 694.43781531 139.34991308 694.43781531 130.43310547 704.32177734 C127.93453044 707.2477066 125.26450728 710.01425877 122.625 712.8125 C117.97162883 717.78530481 113.54362837 722.86542487 109.2890625 728.1875 C107.64700815 730.20504118 105.99000196 732.17343679 104.2734375 734.125 C83.74522222 757.47889201 66.29431528 783.88935672 53 812 C52.53078125 812.97066406 52.0615625 813.94132812 51.578125 814.94140625 C45.99231514 826.78539197 41.87784265 839.23228089 39 852 C38.77135254 853.00498535 38.77135254 853.00498535 38.53808594 854.03027344 C34.21344333 873.9908809 34.26332733 895.95357364 38 916 C38.19464844 917.29550781 38.38929687 918.59101562 38.58984375 919.92578125 C45.44416961 964.721437 67.27981744 1007.07022496 86.02740479 1047.8815918 C87.70205921 1051.52915413 89.3725708 1055.17861189 91.04296875 1058.828125 C91.37971115 1059.56384232 91.71645355 1060.29955963 92.06340027 1061.05757141 C95.40640749 1068.36285744 98.74569615 1075.66983563 102.07873535 1082.97967529 C102.6757433 1084.28890812 103.27297838 1085.59803741 103.8704834 1086.90704346 C122.60994452 1127.9706336 139.30740981 1169.88077211 156.09930229 1211.76642036 C158.4333862 1217.58823046 160.7699502 1223.40904155 163.10742188 1229.22949219 C166.63605374 1238.01643045 170.16090067 1246.80488077 173.68334961 1255.59429932 C175.03277294 1258.96135995 176.3832149 1262.32800886 177.73461914 1265.6942749 C189.79079033 1295.73163945 201.71329129 1325.84001838 212.77124023 1356.26196289 C213.56625266 1358.44781779 214.36777959 1360.63120588 215.16992188 1362.81445312 C221.98113588 1381.47328738 228.43734503 1400.24955722 235 1419 C432.34 1419 629.68 1419 833 1419 C836.96 1407.12 840.92 1395.24 845 1383 C848.88620693 1372.93676943 852.81526389 1362.93659016 857 1353 C857.38608429 1352.08148254 857.38608429 1352.08148254 857.77996826 1351.14440918 C865.46810973 1332.87126654 873.67607419 1314.85845857 882.14355469 1296.93505859 C884.0762093 1292.84249134 885.99545374 1288.7436972 887.9140625 1284.64453125 C898.72060503 1261.57626528 898.72060503 1261.57626528 903.78515625 1251.22265625 C904.09279907 1250.59362396 904.40044189 1249.96459167 904.71740723 1249.3164978 C905.17754211 1248.37575912 905.17754211 1248.37575912 905.64697266 1247.41601562 C913.51516154 1231.32634897 920.89502487 1215.04996225 928.0799408 1198.64442444 C929.95513245 1194.36517815 931.84862415 1190.09496527 933.76525879 1185.8341217 C946.77623952 1156.90863347 957.76925407 1127.35023035 967 1097 C967.28955566 1096.05527832 967.57911133 1095.11055664 967.87744141 1094.13720703 C973.56247798 1075.44919686 977.53765559 1056.51556799 980.6875 1037.25 C980.99119507 1035.40559326 980.99119507 1035.40559326 981.30102539 1033.52392578 C981.90894413 1029.68787997 982.47084773 1025.84752522 983 1022 C983.09469574 1021.32963715 983.18939148 1020.65927429 983.28695679 1019.96859741 C985.43101377 1004.31055361 985.44648633 988.59083557 985.4375 972.8125 C985.43776247 971.77267408 985.43776247 971.77267408 985.43803024 970.71184158 C985.43157392 927.51166692 981.4764027 881.47897629 963.4375 841.5625 C962.92932739 840.43497314 962.92932739 840.43497314 962.41088867 839.28466797 C945.77823629 802.95124017 921.8918918 769.9711634 895.97607422 739.67724609 C893.16905152 736.39557231 890.44196493 733.065059 887.75 729.6875 C883.25627715 724.15551628 878.40140723 718.99305161 873.49121094 713.83276367 C870.38314619 710.56369557 867.33560824 707.26606851 864.3828125 703.85546875 C861.5448292 700.58457949 858.59816529 697.52526729 855.5 694.5 C852.34489515 691.39688176 849.29093853 688.26135022 846.4375 684.875 C843.97766523 681.98818093 841.36507152 679.48116873 838.51171875 676.984375 C832.56259816 671.67783102 826.9698915 666.04724023 821.375 660.375 C815.65912157 654.58066834 809.97158693 648.81783466 803.77880859 643.52490234 C800.99031228 641.1344346 798.31294131 638.62720296 795.625 636.125 C794.49515476 635.07903473 793.36494299 634.03346527 792.234375 632.98828125 C791.68587891 632.48119629 791.13738281 631.97411133 790.57226562 631.45166016 C784.2016953 625.56976401 777.72456359 619.90420189 770.984375 614.44921875 C767.61237332 611.68188229 764.30367384 608.84816458 761 606 C750.82122654 597.24543396 740.36180205 588.89621059 729.74609375 580.6796875 C726.64564314 578.27987139 723.5546219 575.86881864 720.47265625 573.4453125 C710.17043504 565.35528674 699.68644413 557.57446986 689 550 C687.78111084 549.1332666 687.78111084 549.1332666 686.53759766 548.24902344 C675.20785211 540.20373971 663.75621875 532.4085878 652 525 C651.19481934 524.49114258 650.38963867 523.98228516 649.56005859 523.45800781 C599.20667671 491.7157916 545.57393294 461.80020526 484.6875 461.75 C483.41768784 461.74848938 483.41768784 461.74848938 482.1222229 461.74694824 C469.18439109 461.7573547 456.69985187 462.34860235 444 465 Z M244 1449 C244.60383177 1454.4344859 245.10291053 1458.69097805 246.45791626 1463.77453613 C247.62816863 1468.57887572 248.33423718 1473.48291316 249.13671875 1478.359375 C249.4368412 1480.16032875 249.4368412 1480.16032875 249.74302673 1481.99766541 C250.28259539 1485.24115657 250.81913949 1488.48512839 251.35401154 1491.72939682 C251.68959343 1493.76268405 252.02643311 1495.7957589 252.3637085 1497.82876587 C255.6147633 1517.42566351 258.78330625 1537.03488129 261.88468933 1556.65602112 C263.81069136 1568.83794023 265.76678153 1581.01476093 267.75 1593.1875 C267.91178741 1594.18054138 268.07357483 1595.17358276 268.24026489 1596.19671631 C271.38323039 1615.45494123 274.65139403 1634.69155206 277.92226028 1653.92834091 C281.36695898 1674.19064832 284.71599914 1694.46471056 287.9099884 1714.76823425 C288.04410629 1715.62073257 288.17822418 1716.4732309 288.31640625 1717.3515625 C288.45008102 1718.20160355 288.5837558 1719.05164459 288.72148132 1719.92744446 C290.47999839 1731.0835278 292.30369008 1742.2290297 294.125 1753.375 C294.29554901 1754.42057068 294.46609802 1755.46614136 294.64181519 1756.543396 C296.22652317 1766.25749201 297.81255297 1775.97100159 299.4765625 1785.671875 C302.23322568 1801.77583554 304.51339891 1817.89401658 306.51611328 1834.10888672 C307.32030098 1840.57565946 308.16211324 1847.03752353 309 1853.5 C309.33476983 1856.09633684 309.6694054 1858.69269099 310.00390625 1861.2890625 C310.65365425 1866.32603575 311.30748285 1871.36245239 311.96484375 1876.3984375 C313.42780465 1887.63315133 314.87266115 1898.86834157 316.22265625 1910.1171875 C316.3271106 1910.98697739 316.43156494 1911.85676727 316.53918457 1912.75291443 C316.69695374 1914.06667809 316.69695374 1914.06667809 316.85791016 1915.40698242 C318.57657711 1929.71432044 320.35867795 1943.99106433 322.55078125 1958.23535156 C323.85833736 1966.80564372 324.95152341 1975.39520839 326 1984 C327.18383533 1993.70877241 328.4603608 2003.39301578 329.9375 2013.0625 C331.35848188 2022.392179 332.61595883 2031.73318291 333.7791748 2041.09802246 C336.37880295 2061.99025156 339.33799579 2082.83070524 342.31119919 2103.67237091 C342.68601938 2106.30211194 343.05971591 2108.9320105 343.43313599 2111.56195068 C344.03012946 2115.76449657 344.63033008 2119.96657273 345.23301315 2124.16830635 C345.45745316 2125.73546316 345.68102157 2127.30274509 345.90364456 2128.87016106 C346.94695752 2136.20807838 348.02971738 2143.5089282 349.55284119 2150.76609802 C350.32843472 2154.64078385 350.85987655 2158.54797182 351.40234375 2162.4609375 C351.5255751 2163.33158844 351.64880646 2164.20223938 351.77577209 2165.09927368 C352.1657068 2167.85747768 352.55181161 2170.61619934 352.9375 2173.375 C353.44532849 2176.98716106 353.95481665 2180.59908628 354.46484375 2184.2109375 C354.59064316 2185.10375931 354.71644257 2185.99658112 354.84605408 2186.91645813 C355.84840875 2194.00224814 356.9055863 2201.07904977 357.97579956 2208.15486145 C358.90000203 2214.28301399 359.75547529 2220.41778556 360.5625 2226.5625 C361.3855464 2232.72042231 362.28425625 2238.82663744 363.47265625 2244.92578125 C364.25655127 2249.49559891 364.83204044 2254.0911076 365.4375 2258.6875 C366.31563068 2265.32895568 367.27679182 2271.92461427 368.5625 2278.5 C369.68254603 2284.23301911 370.59790915 2289.95249621 371.38867188 2295.73901367 C372.10155717 2300.80270053 372.91495725 2305.84978852 373.7265625 2310.8984375 C373.90038956 2311.98187943 374.07421661 2313.06532135 374.25331116 2314.18159485 C378.33648409 2339.57136648 382.54505399 2364.94109491 386.73211384 2390.31389427 C387.57630214 2395.429994 388.41943601 2400.54626606 389.26171398 2405.66268063 C397.85700556 2457.90350589 397.85700556 2457.90350589 407.21838379 2510.01124573 C407.48346741 2511.4268705 407.48346741 2511.4268705 407.75390625 2512.87109375 C407.93127319 2513.81810654 408.10864014 2514.76511932 408.29138184 2515.74082947 C409.81797863 2523.93398145 411.27341239 2532.13914762 412.71484375 2540.34765625 C412.83133459 2541.01073854 412.94782543 2541.67382084 413.0678463 2542.35699654 C413.54217024 2545.05721004 414.0163012 2547.75745738 414.49028683 2550.45773029 C418.15159776 2571.31351578 421.90222404 2592.13829957 426.14819336 2612.88427734 C428.61736283 2624.96008281 430.89709931 2637.06499791 433.125 2649.1875 C435.96899448 2664.63649767 438.99017234 2680.03008529 442.24365234 2695.39892578 C443.05722015 2699.27243294 443.8535384 2703.14917825 444.64453125 2707.02734375 C450.93763734 2737.86653758 457.61109163 2768.61188747 464.68334961 2799.28178406 C465.94828544 2804.76815984 467.19544474 2810.25841077 468.4375 2815.75 C473.45428185 2837.84721429 478.49573268 2859.940678 483.80770874 2881.96908569 C484.13725612 2883.33574801 484.46592944 2884.70262146 484.79360962 2886.06973267 C486.38569296 2892.70242566 488.05634681 2899.29347383 489.9609375 2905.84375 C492.10318516 2913.22225782 493.92865183 2920.66318991 495.74761963 2928.12606812 C498.90857181 2941.06035655 502.31312869 2953.84682764 506.3125 2966.55078125 C508.21842968 2972.62147898 509.92592779 2978.74372537 511.625 2984.875 C515.81156274 2999.94823564 520.20609227 3014.93161483 524.98486328 3029.828125 C525.7313123 3032.16046402 526.47442251 3034.49372104 527.21435547 3036.828125 C558.82410752 3152.3932732 558.82410752 3152.3932732 630.90625 3240.9765625 C637.38785952 3244.14481193 644.94032227 3243.91790332 651.75 3241.875 C655.79259682 3239.54273261 659.41869842 3236.98917403 663 3234 C663.56460937 3233.53207031 664.12921875 3233.06414062 664.7109375 3232.58203125 C695.3965661 3204.56158635 707.09476542 3150.03788764 717.36962891 3111.34619141 C718.09778494 3108.63605218 718.85142561 3105.93351798 719.60546875 3103.23046875 C732.08126792 3058.20789135 740.46144213 3012.07134826 748 2966 C748.27744563 2964.31021136 748.55495238 2962.62043275 748.83251953 2960.93066406 C750.26173309 2952.21953209 751.67532683 2943.50600826 753.07035828 2934.78933716 C753.66986934 2931.04537458 754.27746265 2927.30296027 754.8984375 2923.5625 C756.6902998 2912.68052486 758.10423871 2901.75386257 759.46728516 2890.81103516 C760.25390929 2884.54663176 761.09515075 2878.30271065 762.0632019 2872.06416321 C764.02940498 2859.37240949 765.4717902 2846.63956718 766.875 2833.875 C767.40150288 2829.1338746 767.93085825 2824.3930705 768.4609375 2819.65234375 C768.65746918 2817.89130058 768.65746918 2817.89130058 768.85797119 2816.09468079 C769.63458703 2809.16426021 770.43981638 2802.23829544 771.2890625 2795.31640625 C771.39016327 2794.49234283 771.49126404 2793.66827942 771.59542847 2792.81924438 C771.69558258 2792.00329803 771.79573669 2791.18735168 771.89892578 2790.34667969 C778.33776557 2737.8718989 782.77234595 2685.19064246 786.90625 2632.4921875 C786.97471634 2631.62026764 787.04318268 2630.74834778 787.11372375 2629.8500061 C787.41772075 2625.9714526 787.7190454 2622.09274854 788.01245117 2618.21337891 C788.57172573 2610.89759868 789.23643098 2603.60249534 789.99609375 2596.3046875 C790.9823407 2586.72523347 791.63781638 2577.14167948 792.2038269 2567.52923584 C792.44657963 2563.41053275 792.69861006 2559.29240862 792.94999695 2555.17422485 C793.08606075 2552.94522455 793.22172506 2550.71619982 793.35700989 2548.4871521 C794.10114581 2536.25366845 794.89126564 2524.02322607 795.68408203 2511.79281616 C795.89827117 2508.48147382 796.11132744 2505.17006355 796.32356453 2501.85859585 C797.09240382 2489.86295652 797.86238841 2477.86763257 798.70318604 2465.87677002 C804.13529261 2388.38399248 807.63864907 2310.66344786 810.06274414 2233.02148438 C810.16128772 2229.8775936 810.26020913 2226.73371496 810.359375 2223.58984375 C810.39525884 2222.44462281 810.39525884 2222.44462281 810.4318676 2221.2762661 C810.81905538 2209.04663352 811.37442976 2196.82972471 811.984375 2184.609375 C813.07929209 2162.58419582 813.78110262 2140.55297586 814.40860748 2118.51008606 C814.5016731 2115.25396254 814.59631633 2111.99788807 814.69134521 2108.74182129 C815.77023314 2071.69546036 816.63210223 2034.64602309 817.35351562 1997.59106445 C817.40786983 1994.80826451 817.46230078 1992.02546612 817.51685333 1989.24267006 C817.55246332 1987.42614268 817.58796054 1985.60961308 817.62334442 1983.79308128 C817.84398418 1972.54128965 818.13040374 1961.29509674 818.4921875 1950.046875 C820.17089796 1896.72048793 820.38490742 1843.33138381 820.93608475 1789.98397064 C820.97885155 1785.84572667 821.02204401 1781.7074875 821.06562424 1777.56925201 C821.63518247 1723.46475212 822.07423337 1669.36091508 822.31640625 1615.25390625 C822.3248466 1613.37758542 822.3248466 1613.37758542 822.33345747 1611.46335912 C822.44361375 1586.88104499 822.54334789 1562.29869985 822.6232639 1537.716268 C822.65308296 1528.54687169 822.68555959 1519.37748734 822.71982425 1510.20810658 C822.74315434 1503.87703597 822.76204878 1497.54597344 822.77731812 1491.2148785 C822.78756592 1487.35665217 822.8017532 1483.49844761 822.81701469 1479.64023817 C822.8231732 1477.8745599 822.82768096 1476.10887492 822.83035278 1474.34318793 C822.83419219 1471.93601815 822.84402121 1469.52894078 822.85523987 1467.12179565 C822.85485342 1466.44031151 822.85446697 1465.75882736 822.85406882 1465.05669218 C822.88940214 1459.60042794 823.4496426 1454.50357396 824 1449 C632.6 1449 441.2 1449 244 1449 Z " fill="#010101" transform="translate(0,0)"/>
<path d="M0 0 C335.94 0 671.88 0 1018 0 C1018 1312.08 1018 2624.16 1018 3976 C682.06 3976 346.12 3976 0 3976 C0 2663.92 0 1351.84 0 0 Z M3 4 C3 1313.44 3 2622.88 3 3972 C336.63 3972 670.26 3972 1014 3972 C1014.08759535 3758.48354211 1014.08759535 3758.48354211 1014.17383855 3544.96708367 C1014.17454464 3543.20060914 1014.17525073 3541.43413461 1014.17595683 3539.66766008 C1014.17631088 3538.78187083 1014.17666493 3537.89608158 1014.17702971 3536.98345022 C1014.1781329 3534.22372757 1014.17923649 3531.46400493 1014.18034018 3528.70428228 C1014.22025118 3428.90596841 1014.25934243 3329.10765425 1014.32718385 3148.56448999 C1014.32835481 3145.43119601 1014.32952605 3142.29790204 1014.33069739 3139.16460806 C1014.36396088 3050.18453625 1014.39696089 2961.20446434 1014.42961312 2872.2243923 C1014.4308246 2868.92301075 1014.43203609 2865.62162921 1014.4332476 2862.32024766 C1014.43364774 2861.22985966 1014.43404787 2860.13947165 1014.43446013 2859.01604159 C1014.44949333 2818.05177688 1014.46458604 2777.08751219 1014.47971445 2736.12324751 C1014.48135711 2731.67516004 1014.48299908 2727.22707257 1014.48464044 2722.7789851 C1014.52291559 2619.05443818 1014.56217061 2515.32989179 1014.60510254 2411.60534668 C1014.60554641 2410.53291008 1014.60599029 2409.46047347 1014.60644761 2408.35553879 C1014.61717994 2382.4307226 1014.62796939 2356.50590644 1014.63877341 2330.58109028 C1014.6829154 2224.65625513 1014.72682008 2118.73141989 1014.87576344 1706.68311309 C1014.87820676 1699.37717857 1014.88066057 1692.07124405 1014.88311923 1684.76530953 C1014.91737104 1582.95402664 1014.94946393 1481.14274318 1014.8097406 641.54557508 C1014.80548463 636.63591078 1014.80126504 631.72624644 1014.79706775 626.81658208 C1014.79126474 620.02945332 1014.78541301 613.2423246 1014.7795257 606.45519591 C1014.77741859 604.02220843 1014.77532115 601.58922093 1014.77323694 599.15623342 C1014.60287546 400.77072135 1014.28185375 202.38536961 1014 4 C680.37 4 346.74 4 3 4 Z " fill="#FDFDFD" transform="translate(0,0)"/>
<path d="M0 0 C3.59324784 0.00315155 7.18566214 -0.02037119 10.77880859 -0.0456543 C43.30308972 -0.13391275 75.17086678 5.24381926 106.77929688 12.57641602 C109.84564756 13.28163475 112.91604888 13.96359912 115.98974609 14.63598633 C126.3571812 16.91464093 136.52783641 19.50097881 146.67480469 22.61987305 C149.53613567 23.4784531 152.40882204 24.29308405 155.28271484 25.10864258 C164.33411032 27.68448363 173.35025844 30.3769928 182.36865234 33.06567383 C184.08738136 33.57746304 185.80613124 34.08918222 187.52490234 34.60083008 C191.6813925 35.83830649 195.83760176 37.07672197 199.99365234 38.31567383 C200.14309795 42.47346405 199.76245991 45.76750799 198.46240234 49.71411133 C198.14658203 50.68735352 197.83076172 51.6605957 197.50537109 52.66333008 C197.00457031 54.16186523 197.00457031 54.16186523 196.49365234 55.69067383 C195.99285156 57.22401367 195.99285156 57.22401367 195.48193359 58.78833008 C194.66031678 61.30013006 193.83070019 63.80898268 192.99365234 66.31567383 C187.19451745 65.75530798 182.12164265 64.55820991 176.61865234 62.69067383 C167.74577929 59.78339958 158.787276 57.31685899 149.76293945 54.92700195 C142.87525812 53.10010031 136.02149549 51.1867974 129.18115234 49.19067383 C103.32046908 41.72230792 76.65203646 35.73475061 49.90087891 32.6640625 C47.72770023 32.40363875 45.55819066 32.11226163 43.39111328 31.80517578 C31.17597436 30.12599691 19.05979608 29.96014758 6.74365234 30.00317383 C5.16076416 30.00540955 5.16076416 30.00540955 3.54589844 30.00769043 C-13.48968125 30.05085273 -30.1365116 30.79206897 -47.00634766 33.31567383 C-48.05564453 33.47084473 -49.10494141 33.62601563 -50.18603516 33.78588867 C-57.15007647 34.84016715 -64.08121137 36.03250863 -71.00634766 37.31567383 C-71.71683258 37.44307953 -72.4273175 37.57048523 -73.15933228 37.70175171 C-86.74585725 40.13959607 -100.14133305 43.14397511 -113.53686523 46.46972656 C-116.70030106 47.25477533 -119.86581144 48.03097294 -123.03173828 48.8059082 C-139.61590146 52.88246949 -156.09993138 57.1992986 -172.33642578 62.51489258 C-173.14144531 62.76625977 -173.94646484 63.01762695 -174.77587891 63.27661133 C-175.47302002 63.5013916 -176.17016113 63.72617187 -176.88842773 63.95776367 C-179.48383962 64.39636584 -181.47282594 63.95590199 -184.00634766 63.31567383 C-184.98584915 59.5657612 -185.96489069 55.81572864 -186.94384766 52.06567383 C-187.22164063 51.00219727 -187.49943359 49.9387207 -187.78564453 48.84301758 C-188.18686523 47.30581055 -188.18686523 47.30581055 -188.59619141 45.73754883 C-188.84232178 44.79492188 -189.08845215 43.85229492 -189.34204102 42.88110352 C-189.90806072 40.69523985 -190.46296184 38.5072548 -191.00634766 36.31567383 C-179.14263959 32.59090865 -167.28562909 29.01518636 -155.19848633 26.0859375 C-149.95306858 24.81288879 -144.75811784 23.42477402 -139.56884766 21.94067383 C-112.21465523 14.22673003 -84.38624477 8.47605388 -56.31884766 4.06567383 C-55.36598877 3.91461182 -54.41312988 3.7635498 -53.43139648 3.60791016 C-50.29387593 3.13540324 -47.15399279 2.71553251 -44.00634766 2.31567383 C-43.33289307 2.22847076 -42.65943848 2.1412677 -41.96557617 2.05142212 C-27.98101973 0.29174134 -14.08452902 -0.02570517 0 0 Z " fill="#020202" transform="translate(510.00634765625,716.684326171875)"/>
</svg>
