<?xml version="1.0" encoding="UTF-8"?>
<!DOCTYPE svg PUBLIC "-//W3C//DTD SVG 1.1//EN" "http://www.w3.org/Graphics/SVG/1.1/DTD/svg11.dtd">
<svg xmlns="http://www.w3.org/2000/svg" version="1.1" width="1441px" height="3975px" style="shape-rendering:geometricPrecision; text-rendering:geometricPrecision; image-rendering:optimizeQuality; fill-rule:evenodd; clip-rule:evenodd" xmlns:xlink="http://www.w3.org/1999/xlink">
<g><path style="opacity:0.771" fill="#fdfdfd" d="M -0.5,-0.5 C 479.833,-0.5 960.167,-0.5 1440.5,-0.5C 1440.5,1324.5 1440.5,2649.5 1440.5,3974.5C 960.167,3974.5 479.833,3974.5 -0.5,3974.5C -0.5,2649.5 -0.5,1324.5 -0.5,-0.5 Z M 1436.5,3127.5 C 1428.66,2998.03 1417.49,2868.7 1403,2739.5C 1398.6,2702.7 1393.27,2666.03 1387,2629.5C 1377.92,2582.12 1368.59,2534.78 1359,2487.5C 1353.92,2461.66 1349.92,2435.66 1347,2409.5C 1341.83,2337.92 1338.5,2266.25 1337,2194.5C 1334,2000.17 1331.33,1805.84 1329,1611.5C 1327.09,1484.33 1321.43,1357.33 1312,1230.5C 1306.7,1163.12 1298.37,1096.12 1287,1029.5C 1278.59,978.529 1264.59,929.195 1245,881.5C 1234.47,857.271 1219.64,836.104 1200.5,818C 1181.63,803.819 1160.3,796.152 1136.5,795C 1104.23,792.425 1074.9,800.425 1048.5,819C 1023.3,839.2 1002.8,863.366 987,891.5C 981.139,901.888 975.806,912.554 971,923.5C 964.883,872.823 950.883,824.489 929,778.5C 910.398,740.569 883.898,709.402 849.5,685C 810.277,660.624 767.944,652.957 722.5,662C 689.366,669.372 658.7,682.372 630.5,701C 594.178,726.307 561.178,755.64 531.5,789C 508.047,793.894 485.714,801.894 464.5,813C 401.801,845.691 350.301,891.191 310,949.5C 271.183,1007.14 240.85,1069.14 219,1135.5C 192.245,1216.85 172.245,1299.85 159,1384.5C 140.394,1504.89 127.394,1625.89 120,1747.5C 109.637,1927.8 99.9701,2108.13 91,2288.5C 86.6594,2363.27 80.9928,2437.93 74,2512.5C 36.8624,2649.99 13.3624,2789.66 3.5,2931.5C 3.5,1955.5 3.5,979.5 3.5,3.5C 481.167,3.5 958.833,3.5 1436.5,3.5C 1436.5,1044.83 1436.5,2086.17 1436.5,3127.5 Z M 3.5,3145.5 C 8.55605,3215.82 21.3894,3284.82 42,3352.5C 60.8889,3413.3 90.8889,3467.64 132,3515.5C 191.909,3578.03 265.409,3611.19 352.5,3615C 392.644,3615.21 432.31,3610.87 471.5,3602C 530.378,3588.04 588.378,3571.04 645.5,3551C 698.274,3531.96 751.107,3513.13 804,3494.5C 847.181,3527.85 894.347,3554.69 945.5,3575C 1032.85,3607.69 1118.52,3603.69 1202.5,3563C 1300.99,3512.23 1370.16,3435.06 1410,3331.5C 1423.11,3296.07 1431.94,3259.74 1436.5,3222.5C 1436.5,3471.83 1436.5,3721.17 1436.5,3970.5C 958.833,3970.5 481.167,3970.5 3.5,3970.5C 3.5,3695.5 3.5,3420.5 3.5,3145.5 Z"/></g>
<g><path style="opacity:0.987" fill="#010101" d="M 1436.5,3127.5 C 1437.81,3159.17 1437.81,3190.83 1436.5,3222.5C 1431.94,3259.74 1423.11,3296.07 1410,3331.5C 1370.16,3435.06 1300.99,3512.23 1202.5,3563C 1118.52,3603.69 1032.85,3607.69 945.5,3575C 894.347,3554.69 847.181,3527.85 804,3494.5C 751.107,3513.13 698.274,3531.96 645.5,3551C 588.378,3571.04 530.378,3588.04 471.5,3602C 432.31,3610.87 392.644,3615.21 352.5,3615C 265.409,3611.19 191.909,3578.03 132,3515.5C 90.8889,3467.64 60.8889,3413.3 42,3352.5C 21.3894,3284.82 8.55605,3215.82 3.5,3145.5C 0.843407,3074.16 0.843407,3002.83 3.5,2931.5C 13.3624,2789.66 36.8624,2649.99 74,2512.5C 80.9928,2437.93 86.6594,2363.27 91,2288.5C 99.9701,2108.13 109.637,1927.8 120,1747.5C 127.394,1625.89 140.394,1504.89 159,1384.5C 172.245,1299.85 192.245,1216.85 219,1135.5C 240.85,1069.14 271.183,1007.14 310,949.5C 350.301,891.191 401.801,845.691 464.5,813C 485.714,801.894 508.047,793.894 531.5,789C 561.178,755.64 594.178,726.307 630.5,701C 658.7,682.372 689.366,669.372 722.5,662C 767.944,652.957 810.277,660.624 849.5,685C 883.898,709.402 910.398,740.569 929,778.5C 950.883,824.489 964.883,872.823 971,923.5C 975.806,912.554 981.139,901.888 987,891.5C 1002.8,863.366 1023.3,839.2 1048.5,819C 1074.9,800.425 1104.23,792.425 1136.5,795C 1160.3,796.152 1181.63,803.819 1200.5,818C 1219.64,836.104 1234.47,857.271 1245,881.5C 1264.59,929.195 1278.59,978.529 1287,1029.5C 1298.37,1096.12 1306.7,1163.12 1312,1230.5C 1321.43,1357.33 1327.09,1484.33 1329,1611.5C 1331.33,1805.84 1334,2000.17 1337,2194.5C 1338.5,2266.25 1341.83,2337.92 1347,2409.5C 1349.92,2435.66 1353.92,2461.66 1359,2487.5C 1368.59,2534.78 1377.92,2582.12 1387,2629.5C 1393.27,2666.03 1398.6,2702.7 1403,2739.5C 1417.49,2868.7 1428.66,2998.03 1436.5,3127.5 Z"/></g>
<g><path style="opacity:1" fill="#fefefe" d="M 738.5,688.5 C 791.568,684.292 835.402,702.292 870,742.5C 894.522,773.203 912.522,807.536 924,845.5C 938.489,893.435 945.489,942.435 945,992.5C 919.939,1078.48 903.606,1166.14 896,1255.5C 890.836,1333.64 884.169,1411.64 876,1489.5C 864.405,1596.81 841.072,1701.48 806,1803.5C 779.295,1878.29 750.628,1952.29 720,2025.5C 686.476,1947.73 661.142,1867.4 644,1784.5C 599.824,1565.66 587.491,1345 607,1122.5C 609.666,1099.17 612.333,1075.84 615,1052.5C 620.397,1019.93 625.063,987.259 629,954.5C 630.294,932.179 630.628,909.845 630,887.5C 629.28,859.338 620.613,834.004 604,811.5C 594.99,801.24 583.823,794.407 570.5,791C 596.366,762.943 625.366,738.943 657.5,719C 682.721,703.764 709.721,693.598 738.5,688.5 Z"/></g>
<g><path style="opacity:1" fill="#fefefe" d="M 1330.5,2497.5 C 922.167,2498.83 513.833,2498.83 105.5,2497.5C 111.907,2421.9 117.407,2346.24 122,2270.5C 130.388,2098.46 139.388,1926.46 149,1754.5C 156.232,1634.23 168.899,1514.57 187,1395.5C 199.715,1313.31 218.715,1232.64 244,1153.5C 265.427,1087.65 295.094,1025.99 333,968.5C 375.509,905.99 431.342,859.49 500.5,829C 514.978,823.084 529.978,819.584 545.5,818.5C 568.858,817.366 584.692,827.7 593,849.5C 597.328,861.472 599.994,873.806 601,886.5C 601.84,910.873 601.174,935.206 599,959.5C 594.591,992.209 589.925,1024.88 585,1057.5C 556.157,1302.81 566.157,1546.47 615,1788.5C 633.779,1879.63 662.113,1967.63 700,2052.5C 707.504,2067.51 715.004,2082.51 722.5,2097.5C 760.055,2008.01 795.555,1917.67 829,1826.5C 868.57,1714.99 894.237,1600.32 906,1482.5C 913.753,1407.96 920.086,1333.3 925,1258.5C 931.767,1180.34 945.1,1103.34 965,1027.5C 977.451,980.121 996.118,935.455 1021,893.5C 1036.59,869.24 1056.76,849.74 1081.5,835C 1112.68,820.866 1143.68,821.2 1174.5,836C 1188.16,846.662 1199.33,859.495 1208,874.5C 1222.68,902.531 1234.01,931.864 1242,962.5C 1250.46,995.532 1257.46,1028.87 1263,1062.5C 1278.65,1173.97 1288.65,1285.97 1293,1398.5C 1295.38,1458.82 1297.38,1519.15 1299,1579.5C 1301.52,1764.5 1303.86,1949.5 1306,2134.5C 1307.59,2229.94 1311.59,2325.27 1318,2420.5C 1321.74,2446.25 1325.9,2471.92 1330.5,2497.5 Z"/></g>
<g><path style="opacity:1" fill="#1f1f1f" d="M 105.5,2497.5 C 513.833,2498.83 922.167,2498.83 1330.5,2497.5C 1331.04,2497.56 1331.38,2497.89 1331.5,2498.5C 922.5,2499.83 513.5,2499.83 104.5,2498.5C 104.624,2497.89 104.957,2497.56 105.5,2497.5 Z"/></g>
<g><path style="opacity:1" fill="#fefefe" d="M 823.5,3178.5 C 814.014,3177.51 804.348,3177.17 794.5,3177.5C 794.5,3184.17 794.5,3190.83 794.5,3197.5C 793.598,3287.5 792.932,3377.5 792.5,3467.5C 716.173,3494.82 639.506,3521.32 562.5,3547C 534.661,3555.28 506.661,3562.95 478.5,3570C 441.236,3579.32 403.403,3584.49 365,3585.5C 259.384,3583.21 177.717,3538.21 120,3450.5C 87.9658,3397.41 65.6325,3340.41 53,3279.5C 40.3304,3217.81 32.9971,3155.48 31,3092.5C 26.8504,2901.01 50.3504,2713.01 101.5,2528.5C 513.166,2527.33 924.833,2527.17 1336.5,2528C 1355.96,2614.29 1370.12,2701.45 1379,2789.5C 1392.68,2918.21 1402.52,3047.21 1408.5,3176.5C 1406.21,3295.88 1361.88,3396.38 1275.5,3478C 1218.76,3529.36 1152.09,3559.03 1075.5,3567C 1043.82,3568.95 1012.82,3565.28 982.5,3556C 924.296,3536.53 870.963,3508.36 822.5,3471.5C 822.167,3454 821.833,3436.5 821.5,3419C 822.602,3338.84 823.268,3258.67 823.5,3178.5 Z"/></g>
<g><path style="opacity:1" fill="#393939" d="M 823.5,3178.5 C 814.167,3178.5 804.833,3178.5 795.5,3178.5C 795.823,3185.02 795.49,3191.36 794.5,3197.5C 794.5,3190.83 794.5,3184.17 794.5,3177.5C 804.348,3177.17 814.014,3177.51 823.5,3178.5 Z"/></g>
</svg>
