<?xml version="1.0" encoding="UTF-8"?>
<svg version="1.1" xmlns="http://www.w3.org/2000/svg" width="1485" height="3976">
<path d="M0 0 C490.05 0 980.1 0 1485 0 C1485 1312.08 1485 2624.16 1485 3976 C994.95 3976 504.9 3976 0 3976 C0 2663.92 0 1351.84 0 0 Z M4 4 C4 305.29 4 606.58 4 917 C4.33 917 4.66 917 5 917 C5.12677124 916.02281006 5.12677124 916.02281006 5.25610352 915.02587891 C13.32377158 854.44704329 42.09109178 794.64284018 89.7890625 754.89453125 C92.25615875 752.78050001 94.61546669 750.57180449 96.98168945 748.34619141 C103.44155678 742.27310637 110.02980446 736.48792611 117 731 C117.64420898 730.48856445 118.28841797 729.97712891 118.95214844 729.45019531 C129.7132489 720.91518977 140.69184725 712.79287534 152 705 C152.81919922 704.43200684 153.63839844 703.86401367 154.48242188 703.27880859 C169.0938661 693.15579334 183.97360161 683.49372544 199 674 C199.96599121 673.38688965 200.93198242 672.7737793 201.92724609 672.14208984 C217.59750587 662.20166096 233.51063981 652.69708202 249.48733521 643.26150513 C254.77706544 640.13610899 260.0491697 636.98216024 265.3125 633.8125 C273.90437693 628.64406147 282.52688084 623.52809198 291.15600586 618.42211914 C297.47647639 614.68216119 303.79253194 610.9350119 310.1015625 607.17578125 C332.17222267 594.02855188 354.33524317 581.10499946 377 569 C378.63171143 568.12770752 378.63171143 568.12770752 380.29638672 567.23779297 C451.73052454 529.23058503 531.81057433 499.4898279 622 498.75 C623.45164551 498.74898788 623.45164551 498.74898788 624.93261719 498.74795532 C680.29448995 498.80890898 734.51730068 511.4422572 785 534 C786.18094238 534.52609863 787.36188477 535.05219727 788.57861328 535.59423828 C804.67682995 542.79864287 820.30353607 550.56498771 835.50878906 559.53320312 C837.82737005 560.89835744 840.1567389 562.24209416 842.4921875 563.578125 C870.75701724 579.83202652 897.31445963 598.9685094 923 619 C924.14971491 619.89065685 925.29945528 620.78128084 926.44921875 621.671875 C931.24726659 625.4033963 936.02792201 629.13594911 940.6328125 633.10546875 C941.21933594 633.61086182 941.80585937 634.11625488 942.41015625 634.63696289 C943.52539192 635.60469658 944.63511205 636.57883607 945.73828125 637.56030273 C949.39014291 640.97167129 949.39014291 640.97167129 954 642 C956.27411233 640.64889188 958.23502875 639.29718473 960.3125 637.6875 C961.57665627 636.74802045 962.84232892 635.81057849 964.109375 634.875 C964.75712891 634.39289062 965.40488281 633.91078125 966.07226562 633.4140625 C983.6657654 620.50859762 1002.73207242 609.19454837 1022 599 C1022.87930176 598.53239258 1023.75860352 598.06478516 1024.66455078 597.58300781 C1087.60777495 564.37665376 1161.9997219 547.42679998 1231.44091797 568.74951172 C1257.90477507 577.11232155 1282.590298 590.30393882 1304 608 C1304.79494873 608.65282959 1304.79494873 608.65282959 1305.60595703 609.31884766 C1319.29961115 620.59430389 1332.47260249 632.48989011 1344 646 C1344.78890625 646.89976562 1345.5778125 647.79953125 1346.390625 648.7265625 C1354.51042041 658.05704489 1361.78392378 667.96254182 1369 678 C1369.87277588 679.205354 1369.87277588 679.205354 1370.76318359 680.43505859 C1422.5202177 752.07974389 1453.77286169 836.15542764 1475.6875 979.125 C1475.77890762 980.17732819 1475.77890762 980.17732819 1475.87216187 981.25091553 C1477.61933247 1001.66573089 1478.20654987 1022.01239008 1478.1875 1042.5 C1478.18689575 1043.70687469 1478.1862915 1044.91374939 1478.18566895 1046.15719604 C1478.06983341 1131.79144131 1464.14257741 1217.19504496 1392 1413 C1391.18692383 1414.67376709 1391.18692383 1414.67376709 1390.35742188 1416.38134766 C1381.75967988 1434.02428756 1381.75967988 1434.02428756 1377.65039062 1440.45751953 C1374.45780289 1445.77895078 1372.52263803 1450.03760335 1371.46763611 1456.21502686 C1371.34752102 1456.90488765 1371.22740593 1457.59474844 1371.10365099 1458.3055141 C1370.72109843 1460.53484589 1370.35795195 1462.76659396 1370 1465 C1369.88128202 1465.73210473 1369.76256403 1466.46420946 1369.64024854 1467.21849918 C1368.72985197 1472.86842226 1367.87165222 1478.52587165 1367.01782227 1484.18457031 C1366.73038038 1486.07545243 1366.44269038 1487.96629684 1366.15477657 1489.85710716 C1365.37078487 1495.0103926 1364.59020366 1500.16418955 1363.81018448 1505.31807756 C1362.96672675 1510.8867966 1362.11996113 1516.4550127 1361.27355957 1522.02328491 C1359.80634668 1531.67845534 1358.34103261 1541.33391232 1356.87698364 1550.98956299 C1354.62905556 1565.81457642 1352.37742167 1580.63902554 1350.12477832 1595.46332315 C1349.62151715 1598.77521589 1349.11827908 1602.08711215 1348.61503696 1605.3990078 C1348.00525889 1609.41202274 1347.39547601 1613.42503695 1346.78567392 1617.43804824 C1345.44071872 1626.28909853 1344.09616819 1635.14021023 1342.75180817 1643.99135093 C1334.76434728 1696.57933784 1326.7475762 1749.16284067 1318.72285545 1801.7451545 C1316.8746549 1813.85561907 1315.02685105 1825.96614415 1313.17907357 1838.07667327 C1310.75505423 1853.96390797 1308.33093819 1869.85112791 1305.90658569 1885.73831177 C1298.19913025 1936.24658038 1290.49395121 1986.75519617 1282.78924084 2037.26388359 C1280.61927772 2051.48919077 1278.44923553 2065.71448589 1276.27906322 2079.93976116 C1274.80295101 2089.61554715 1273.32689547 2099.29134178 1271.85088348 2108.96714306 C1271.00454423 2114.5151933 1270.15818008 2120.06323973 1269.31174088 2125.61127472 C1269.15408202 2126.64479568 1268.99642316 2127.67831665 1268.83398676 2128.74315643 C1268.52144285 2130.79153947 1268.20875076 2132.8398999 1267.89590597 2134.888237 C1267.14296386 2139.81954109 1266.39263639 2144.75121185 1265.64834976 2149.68383026 C1264.31136893 2158.52747205 1262.95049857 2167.36510392 1261.49909455 2176.19078672 C1258.0285311 2197.29945751 1254.82673393 2217.55063648 1256 2239 C1256.08966866 2241.29868637 1256.17545217 2243.59752674 1256.25787354 2245.89648438 C1256.52175912 2252.83682389 1256.86089691 2259.77207133 1257.21648288 2266.70824599 C1257.39632282 2270.24470222 1257.56858733 2273.78152948 1257.74183655 2277.3183136 C1258.0400957 2283.38751555 1258.34285806 2289.45647841 1258.64877319 2295.52529907 C1259.09300082 2304.33981525 1259.5286959 2313.15473922 1259.96250761 2321.96977341 C1261.30868878 2349.31646936 1262.67786653 2376.6620075 1264.06084728 2404.0068655 C1264.77403422 2418.10852873 1265.48379351 2432.21036028 1266.1875 2446.3125 C1266.27989141 2448.16363844 1266.27989141 2448.16363844 1266.37414932 2450.05217361 C1268.25678375 2487.83883694 1269.90415791 2525.63017152 1271.3125 2563.4375 C1271.35362789 2564.53468479 1271.39475578 2565.63186958 1271.43712997 2566.7623024 C1272.00188076 2581.84019338 1272.5265314 2596.91896345 1273 2612 C1273.02763302 2612.8657943 1273.05526604 2613.73158859 1273.08373642 2614.62361908 C1274.1515802 2648.2610244 1274.18798435 2681.90173288 1274.18511182 2715.55240732 C1274.1854124 2720.72718102 1274.19354818 2725.90190195 1274.20581055 2731.07666016 C1274.27916203 2762.77671665 1274.11388003 2794.44352711 1273.07421875 2826.12890625 C1273.01179521 2828.03553165 1273.01179521 2828.03553165 1272.94811058 2829.98067474 C1270.38765346 2906.28408196 1264.12185854 2982.32952774 1254 3058 C1253.82691315 3059.29472229 1253.82691315 3059.29472229 1253.65032959 3060.61560059 C1250.74625195 3082.22402185 1247.29429011 3103.73968464 1243.64880371 3125.23468018 C1243.22434458 3127.7389092 1242.80244705 3130.2435741 1242.38342285 3132.74871826 C1235.29794755 3174.95353699 1225.33018854 3217.17344542 1195 3249 C1194.47535156 3249.59941406 1193.95070313 3250.19882813 1193.41015625 3250.81640625 C1180.05531965 3265.46255021 1160.90516918 3272.22284018 1142 3276 C1141.06414062 3276.19335938 1140.12828125 3276.38671875 1139.1640625 3276.5859375 C1126.77527707 3278.20718596 1113.41552496 3278.45561233 1102 3273 C1101.07695068 3272.57340088 1101.07695068 3272.57340088 1100.13525391 3272.13818359 C1095.33908583 3269.91093626 1090.65100884 3267.51516443 1086 3265 C1085.030625 3264.47792969 1084.06125 3263.95585937 1083.0625 3263.41796875 C1062.05268821 3251.0684514 1047.8117912 3230.27129365 1037 3209 C1036.68369629 3208.39043457 1036.36739258 3207.78086914 1036.04150391 3207.15283203 C1027.48447379 3190.52787804 1021.23080355 3172.19541385 1017 3154 C1016.34 3154 1015.68 3154 1015 3154 C1014.65388672 3155.49273438 1014.65388672 3155.49273438 1014.30078125 3157.015625 C1002.18226746 3209.04921499 1002.18226746 3209.04921499 990 3231 C989.34456519 3232.22109295 988.68961644 3233.44244692 988.03515625 3234.6640625 C977.10143718 3254.74313607 961.24951261 3273.22921122 943 3287 C941.97261719 3287.78246094 940.94523438 3288.56492187 939.88671875 3289.37109375 C904.47523882 3315.8139544 860.31964634 3327.62098851 816.46582031 3321.41113281 C789.24460616 3316.87246701 763.64805515 3304.67723942 743.81738281 3285.4909668 C741.5237678 3283.28467011 740.07052418 3282.02350806 737 3281 C736.30083082 3279.68341932 735.63846531 3278.34706506 735 3277 C733.86772116 3275.69843437 732.69635043 3274.43042965 731.5 3273.1875 C719.18119842 3259.5543959 709.7290747 3242.41160792 703.20629883 3225.31884766 C701.97044101 3221.45218336 701.97044101 3221.45218336 699 3219 C698.30777344 3220.07314453 698.30777344 3220.07314453 697.6015625 3221.16796875 C690.50530595 3232.00869269 682.87218732 3242.20331007 674.07421875 3251.73828125 C672.19878414 3253.78324667 670.40967467 3255.87619475 668.625 3258 C649.40946845 3279.8418001 622.05600426 3295.06363191 593 3297.75 C562.92788165 3299.38369657 536.79506418 3287.27248138 513.25 3269.5 C512.54037109 3268.96608643 511.83074219 3268.43217285 511.09960938 3267.88208008 C506.93851972 3264.68570415 503.17633663 3261.30526631 499.51855469 3257.54443359 C497.76930815 3255.76537674 495.91943766 3254.15513685 494 3252.5625 C490.62210007 3249.64492809 487.70442336 3246.53727907 484.82421875 3243.1328125 C482.89992651 3240.88299759 480.89164215 3238.72974748 478.875 3236.5625 C472.43592531 3229.42257364 466.75504305 3221.69149937 461 3214 C460.26813477 3213.03006104 460.26813477 3213.03006104 459.52148438 3212.04052734 C442.28298197 3189.18103332 428.20120293 3164.25389048 413.98388672 3139.45458984 C412.30724299 3136.53500963 410.62480635 3133.61894971 408.93888855 3130.70472717 C400.74796827 3116.54049394 392.85318543 3102.2655311 385.39257812 3087.69970703 C384.01443323 3085.02798083 382.61361345 3082.36961974 381.203125 3079.71484375 C374.43736378 3066.97557896 368.08618909 3054.07723773 362 3041 C361.72414063 3040.40809875 361.44828125 3039.81619751 361.1640625 3039.20635986 C341.39749148 2996.76137709 323.9794102 2953.41251484 308.74029541 2909.14544678 C308.01350034 2907.03912528 307.28163425 2904.93463299 306.54833984 2902.83056641 C292.43810491 2862.27020777 280.75574332 2820.81590986 271 2779 C270.81133362 2778.19205994 270.62266724 2777.38411987 270.42828369 2776.55169678 C256.04566425 2714.73654664 245.85075198 2652.07953083 239 2589 C238.88827454 2587.97642395 238.77654907 2586.9528479 238.66143799 2585.89825439 C233.48907495 2538.32695247 230.26676528 2490.64770678 228.4140625 2442.83984375 C228.38153822 2442.00254345 228.34901394 2441.16524314 228.31550407 2440.3025701 C226.78309018 2400.54410971 226.44722758 2360.81061104 226.49427414 2321.02614975 C226.49982191 2316.19172775 226.50040529 2311.35731873 226.49964768 2306.52289408 C226.48899894 2215.88120758 228.72109756 2125.30147291 231.13671875 2034.69750977 C232.49213288 1983.85472226 233.16649393 1933.05907666 233.12857085 1882.19916433 C233.12478167 1876.53714845 233.12617458 1870.87515002 233.13037109 1865.21313477 C233.16968264 1811.59909532 233.16968264 1811.59909532 232 1758 C231.97549774 1757.2526849 231.95099548 1756.5053698 231.92575073 1755.73540878 C231.57690103 1745.19574579 231.15207303 1734.6601361 230.6875 1724.125 C230.6227671 1722.64100161 230.55803943 1721.15700299 230.49331665 1719.67300415 C227.58752371 1653.42317454 222.96456976 1587.1841409 214.20791626 1521.42675781 C213.30420635 1514.56761832 212.51316426 1507.70130433 211.76583862 1500.82344055 C211.19200107 1495.62600887 210.57178717 1490.43463178 209.94476318 1485.24337769 C209.65466029 1482.76094172 209.38282424 1480.27628263 209.13189697 1477.7895813 C207.3229174 1460.02853838 202.48931028 1447.30358878 192.60552979 1432.43222046 C190.61857342 1429.42217607 188.81583469 1426.34634162 187.02734375 1423.21484375 C186.50793213 1422.32821045 185.98852051 1421.44157715 185.45336914 1420.52807617 C178.17500562 1408.08956509 171.03996449 1395.57483313 164 1383 C163.40574219 1381.93910156 162.81148437 1380.87820313 162.19921875 1379.78515625 C149.26690845 1356.6703532 136.68057073 1333.39181046 124.546875 1309.84765625 C122.62100598 1306.11245885 120.67925028 1302.38727519 118.70947266 1298.67504883 C112.55448216 1287.07064997 106.63521613 1275.36767562 100.875 1263.5625 C100.19934494 1262.18010132 100.19934494 1262.18010132 99.51004028 1260.76977539 C91.50497584 1244.36453883 83.94029787 1227.79491434 76.65130615 1211.06086731 C74.72143165 1206.63295423 72.75888696 1202.22184651 70.76953125 1197.8203125 C39.65304287 1128.94114369 13.03326333 1055.52842682 5 980 C4.67 980 4.34 980 4 980 C4 1967.36 4 2954.72 4 3972 C491.41 3972 978.82 3972 1481 3972 C1481 2662.56 1481 1353.12 1481 4 C993.59 4 506.18 4 4 4 Z " fill="#FEFEFE" transform="translate(0,0)"/>
<path d="M0 0 C490.05 0 980.1 0 1485 0 C1485 1312.08 1485 2624.16 1485 3976 C994.95 3976 504.9 3976 0 3976 C0 2663.92 0 1351.84 0 0 Z M4 4 C4 305.29 4 606.58 4 917 C4.33 917 4.66 917 5 917 C5.12677124 916.02281006 5.12677124 916.02281006 5.25610352 915.02587891 C13.32377158 854.44704329 42.09109178 794.64284018 89.7890625 754.89453125 C92.25615875 752.78050001 94.61546669 750.57180449 96.98168945 748.34619141 C103.44155678 742.27310637 110.02980446 736.48792611 117 731 C117.64420898 730.48856445 118.28841797 729.97712891 118.95214844 729.45019531 C129.7132489 720.91518977 140.69184725 712.79287534 152 705 C152.81919922 704.43200684 153.63839844 703.86401367 154.48242188 703.27880859 C169.0938661 693.15579334 183.97360161 683.49372544 199 674 C199.96599121 673.38688965 200.93198242 672.7737793 201.92724609 672.14208984 C217.59750587 662.20166096 233.51063981 652.69708202 249.48733521 643.26150513 C254.77706544 640.13610899 260.0491697 636.98216024 265.3125 633.8125 C273.90437693 628.64406147 282.52688084 623.52809198 291.15600586 618.42211914 C297.47647639 614.68216119 303.79253194 610.9350119 310.1015625 607.17578125 C332.17222267 594.02855188 354.33524317 581.10499946 377 569 C378.63171143 568.12770752 378.63171143 568.12770752 380.29638672 567.23779297 C451.73052454 529.23058503 531.81057433 499.4898279 622 498.75 C623.45164551 498.74898788 623.45164551 498.74898788 624.93261719 498.74795532 C680.29448995 498.80890898 734.51730068 511.4422572 785 534 C786.18094238 534.52609863 787.36188477 535.05219727 788.57861328 535.59423828 C804.67682995 542.79864287 820.30353607 550.56498771 835.50878906 559.53320312 C837.82737005 560.89835744 840.1567389 562.24209416 842.4921875 563.578125 C870.75701724 579.83202652 897.31445963 598.9685094 923 619 C924.14971491 619.89065685 925.29945528 620.78128084 926.44921875 621.671875 C931.24726659 625.4033963 936.02792201 629.13594911 940.6328125 633.10546875 C941.21933594 633.61086182 941.80585937 634.11625488 942.41015625 634.63696289 C943.52539192 635.60469658 944.63511205 636.57883607 945.73828125 637.56030273 C949.39014291 640.97167129 949.39014291 640.97167129 954 642 C956.27411233 640.64889188 958.23502875 639.29718473 960.3125 637.6875 C961.57665627 636.74802045 962.84232892 635.81057849 964.109375 634.875 C964.75712891 634.39289062 965.40488281 633.91078125 966.07226562 633.4140625 C983.6657654 620.50859762 1002.73207242 609.19454837 1022 599 C1022.87930176 598.53239258 1023.75860352 598.06478516 1024.66455078 597.58300781 C1087.60777495 564.37665376 1161.9997219 547.42679998 1231.44091797 568.74951172 C1257.90477507 577.11232155 1282.590298 590.30393882 1304 608 C1304.79494873 608.65282959 1304.79494873 608.65282959 1305.60595703 609.31884766 C1319.29961115 620.59430389 1332.47260249 632.48989011 1344 646 C1344.78890625 646.89976562 1345.5778125 647.79953125 1346.390625 648.7265625 C1354.51042041 658.05704489 1361.78392378 667.96254182 1369 678 C1369.87277588 679.205354 1369.87277588 679.205354 1370.76318359 680.43505859 C1422.5202177 752.07974389 1453.77286169 836.15542764 1475.6875 979.125 C1475.77890762 980.17732819 1475.77890762 980.17732819 1475.87216187 981.25091553 C1477.61933247 1001.66573089 1478.20654987 1022.01239008 1478.1875 1042.5 C1478.18689575 1043.70687469 1478.1862915 1044.91374939 1478.18566895 1046.15719604 C1478.06983341 1131.79144131 1464.14257741 1217.19504496 1392 1413 C1391.18692383 1414.67376709 1391.18692383 1414.67376709 1390.35742188 1416.38134766 C1381.75967988 1434.02428756 1381.75967988 1434.02428756 1377.65039062 1440.45751953 C1374.45780289 1445.77895078 1372.52263803 1450.03760335 1371.46763611 1456.21502686 C1371.34752102 1456.90488765 1371.22740593 1457.59474844 1371.10365099 1458.3055141 C1370.72109843 1460.53484589 1370.35795195 1462.76659396 1370 1465 C1369.88128202 1465.73210473 1369.76256403 1466.46420946 1369.64024854 1467.21849918 C1368.72985197 1472.86842226 1367.87165222 1478.52587165 1367.01782227 1484.18457031 C1366.73038038 1486.07545243 1366.44269038 1487.96629684 1366.15477657 1489.85710716 C1365.37078487 1495.0103926 1364.59020366 1500.16418955 1363.81018448 1505.31807756 C1362.96672675 1510.8867966 1362.11996113 1516.4550127 1361.27355957 1522.02328491 C1359.80634668 1531.67845534 1358.34103261 1541.33391232 1356.87698364 1550.98956299 C1354.62905556 1565.81457642 1352.37742167 1580.63902554 1350.12477832 1595.46332315 C1349.62151715 1598.77521589 1349.11827908 1602.08711215 1348.61503696 1605.3990078 C1348.00525889 1609.41202274 1347.39547601 1613.42503695 1346.78567392 1617.43804824 C1345.44071872 1626.28909853 1344.09616819 1635.14021023 1342.75180817 1643.99135093 C1334.76434728 1696.57933784 1326.7475762 1749.16284067 1318.72285545 1801.7451545 C1316.8746549 1813.85561907 1315.02685105 1825.96614415 1313.17907357 1838.07667327 C1310.75505423 1853.96390797 1308.33093819 1869.85112791 1305.90658569 1885.73831177 C1298.19913025 1936.24658038 1290.49395121 1986.75519617 1282.78924084 2037.26388359 C1280.61927772 2051.48919077 1278.44923553 2065.71448589 1276.27906322 2079.93976116 C1274.80295101 2089.61554715 1273.32689547 2099.29134178 1271.85088348 2108.96714306 C1271.00454423 2114.5151933 1270.15818008 2120.06323973 1269.31174088 2125.61127472 C1269.15408202 2126.64479568 1268.99642316 2127.67831665 1268.83398676 2128.74315643 C1268.52144285 2130.79153947 1268.20875076 2132.8398999 1267.89590597 2134.888237 C1267.14296386 2139.81954109 1266.39263639 2144.75121185 1265.64834976 2149.68383026 C1264.31136893 2158.52747205 1262.95049857 2167.36510392 1261.49909455 2176.19078672 C1258.0285311 2197.29945751 1254.82673393 2217.55063648 1256 2239 C1256.08966866 2241.29868637 1256.17545217 2243.59752674 1256.25787354 2245.89648438 C1256.52175912 2252.83682389 1256.86089691 2259.77207133 1257.21648288 2266.70824599 C1257.39632282 2270.24470222 1257.56858733 2273.78152948 1257.74183655 2277.3183136 C1258.0400957 2283.38751555 1258.34285806 2289.45647841 1258.64877319 2295.52529907 C1259.09300082 2304.33981525 1259.5286959 2313.15473922 1259.96250761 2321.96977341 C1261.30868878 2349.31646936 1262.67786653 2376.6620075 1264.06084728 2404.0068655 C1264.77403422 2418.10852873 1265.48379351 2432.21036028 1266.1875 2446.3125 C1266.27989141 2448.16363844 1266.27989141 2448.16363844 1266.37414932 2450.05217361 C1268.25678375 2487.83883694 1269.90415791 2525.63017152 1271.3125 2563.4375 C1271.35362789 2564.53468479 1271.39475578 2565.63186958 1271.43712997 2566.7623024 C1272.00188076 2581.84019338 1272.5265314 2596.91896345 1273 2612 C1273.02763302 2612.8657943 1273.05526604 2613.73158859 1273.08373642 2614.62361908 C1274.1515802 2648.2610244 1274.18798435 2681.90173288 1274.18511182 2715.55240732 C1274.1854124 2720.72718102 1274.19354818 2725.90190195 1274.20581055 2731.07666016 C1274.27916203 2762.77671665 1274.11388003 2794.44352711 1273.07421875 2826.12890625 C1273.01179521 2828.03553165 1273.01179521 2828.03553165 1272.94811058 2829.98067474 C1270.38765346 2906.28408196 1264.12185854 2982.32952774 1254 3058 C1253.82691315 3059.29472229 1253.82691315 3059.29472229 1253.65032959 3060.61560059 C1250.74625195 3082.22402185 1247.29429011 3103.73968464 1243.64880371 3125.23468018 C1243.22434458 3127.7389092 1242.80244705 3130.2435741 1242.38342285 3132.74871826 C1235.29794755 3174.95353699 1225.33018854 3217.17344542 1195 3249 C1194.47535156 3249.59941406 1193.95070313 3250.19882813 1193.41015625 3250.81640625 C1180.05531965 3265.46255021 1160.90516918 3272.22284018 1142 3276 C1141.06414062 3276.19335938 1140.12828125 3276.38671875 1139.1640625 3276.5859375 C1126.77527707 3278.20718596 1113.41552496 3278.45561233 1102 3273 C1101.07695068 3272.57340088 1101.07695068 3272.57340088 1100.13525391 3272.13818359 C1095.33908583 3269.91093626 1090.65100884 3267.51516443 1086 3265 C1085.030625 3264.47792969 1084.06125 3263.95585937 1083.0625 3263.41796875 C1062.05268821 3251.0684514 1047.8117912 3230.27129365 1037 3209 C1036.68369629 3208.39043457 1036.36739258 3207.78086914 1036.04150391 3207.15283203 C1027.48447379 3190.52787804 1021.23080355 3172.19541385 1017 3154 C1016.34 3154 1015.68 3154 1015 3154 C1014.65388672 3155.49273438 1014.65388672 3155.49273438 1014.30078125 3157.015625 C1002.18226746 3209.04921499 1002.18226746 3209.04921499 990 3231 C989.34456519 3232.22109295 988.68961644 3233.44244692 988.03515625 3234.6640625 C977.10143718 3254.74313607 961.24951261 3273.22921122 943 3287 C941.97261719 3287.78246094 940.94523438 3288.56492187 939.88671875 3289.37109375 C904.47523882 3315.8139544 860.31964634 3327.62098851 816.46582031 3321.41113281 C789.24460616 3316.87246701 763.64805515 3304.67723942 743.81738281 3285.4909668 C741.5237678 3283.28467011 740.07052418 3282.02350806 737 3281 C736.30083082 3279.68341932 735.63846531 3278.34706506 735 3277 C733.86772116 3275.69843437 732.69635043 3274.43042965 731.5 3273.1875 C719.18119842 3259.5543959 709.7290747 3242.41160792 703.20629883 3225.31884766 C701.97044101 3221.45218336 701.97044101 3221.45218336 699 3219 C698.30777344 3220.07314453 698.30777344 3220.07314453 697.6015625 3221.16796875 C690.50530595 3232.00869269 682.87218732 3242.20331007 674.07421875 3251.73828125 C672.19878414 3253.78324667 670.40967467 3255.87619475 668.625 3258 C649.40946845 3279.8418001 622.05600426 3295.06363191 593 3297.75 C562.92788165 3299.38369657 536.79506418 3287.27248138 513.25 3269.5 C512.54037109 3268.96608643 511.83074219 3268.43217285 511.09960938 3267.88208008 C506.93851972 3264.68570415 503.17633663 3261.30526631 499.51855469 3257.54443359 C497.76930815 3255.76537674 495.91943766 3254.15513685 494 3252.5625 C490.62210007 3249.64492809 487.70442336 3246.53727907 484.82421875 3243.1328125 C482.89992651 3240.88299759 480.89164215 3238.72974748 478.875 3236.5625 C472.43592531 3229.42257364 466.75504305 3221.69149937 461 3214 C460.26813477 3213.03006104 460.26813477 3213.03006104 459.52148438 3212.04052734 C442.28298197 3189.18103332 428.20120293 3164.25389048 413.98388672 3139.45458984 C412.30724299 3136.53500963 410.62480635 3133.61894971 408.93888855 3130.70472717 C400.74796827 3116.54049394 392.85318543 3102.2655311 385.39257812 3087.69970703 C384.01443323 3085.02798083 382.61361345 3082.36961974 381.203125 3079.71484375 C374.43736378 3066.97557896 368.08618909 3054.07723773 362 3041 C361.72414063 3040.40809875 361.44828125 3039.81619751 361.1640625 3039.20635986 C341.39749148 2996.76137709 323.9794102 2953.41251484 308.74029541 2909.14544678 C308.01350034 2907.03912528 307.28163425 2904.93463299 306.54833984 2902.83056641 C292.43810491 2862.27020777 280.75574332 2820.81590986 271 2779 C270.81133362 2778.19205994 270.62266724 2777.38411987 270.42828369 2776.55169678 C256.04566425 2714.73654664 245.85075198 2652.07953083 239 2589 C238.88827454 2587.97642395 238.77654907 2586.9528479 238.66143799 2585.89825439 C233.48907495 2538.32695247 230.26676528 2490.64770678 228.4140625 2442.83984375 C228.38153822 2442.00254345 228.34901394 2441.16524314 228.31550407 2440.3025701 C226.78309018 2400.54410971 226.44722758 2360.81061104 226.49427414 2321.02614975 C226.49982191 2316.19172775 226.50040529 2311.35731873 226.49964768 2306.52289408 C226.48899894 2215.88120758 228.72109756 2125.30147291 231.13671875 2034.69750977 C232.49213288 1983.85472226 233.16649393 1933.05907666 233.12857085 1882.19916433 C233.12478167 1876.53714845 233.12617458 1870.87515002 233.13037109 1865.21313477 C233.16968264 1811.59909532 233.16968264 1811.59909532 232 1758 C231.97549774 1757.2526849 231.95099548 1756.5053698 231.92575073 1755.73540878 C231.57690103 1745.19574579 231.15207303 1734.6601361 230.6875 1724.125 C230.6227671 1722.64100161 230.55803943 1721.15700299 230.49331665 1719.67300415 C227.58752371 1653.42317454 222.96456976 1587.1841409 214.20791626 1521.42675781 C213.30420635 1514.56761832 212.51316426 1507.70130433 211.76583862 1500.82344055 C211.19200107 1495.62600887 210.57178717 1490.43463178 209.94476318 1485.24337769 C209.65466029 1482.76094172 209.38282424 1480.27628263 209.13189697 1477.7895813 C207.3229174 1460.02853838 202.48931028 1447.30358878 192.60552979 1432.43222046 C190.61857342 1429.42217607 188.81583469 1426.34634162 187.02734375 1423.21484375 C186.50793213 1422.32821045 185.98852051 1421.44157715 185.45336914 1420.52807617 C178.17500562 1408.08956509 171.03996449 1395.57483313 164 1383 C163.40574219 1381.93910156 162.81148437 1380.87820313 162.19921875 1379.78515625 C149.26690845 1356.6703532 136.68057073 1333.39181046 124.546875 1309.84765625 C122.62100598 1306.11245885 120.67925028 1302.38727519 118.70947266 1298.67504883 C112.55448216 1287.07064997 106.63521613 1275.36767562 100.875 1263.5625 C100.19934494 1262.18010132 100.19934494 1262.18010132 99.51004028 1260.76977539 C91.50497584 1244.36453883 83.94029787 1227.79491434 76.65130615 1211.06086731 C74.72143165 1206.63295423 72.75888696 1202.22184651 70.76953125 1197.8203125 C39.65304287 1128.94114369 13.03326333 1055.52842682 5 980 C4.67 980 4.34 980 4 980 C4 1967.36 4 2954.72 4 3972 C491.41 3972 978.82 3972 1481 3972 C1481 2662.56 1481 1353.12 1481 4 C993.59 4 506.18 4 4 4 Z M234 1449 C234.83301392 1458.99616707 235.75645632 1468.96474604 236.8125 1478.9375 C236.89925995 1479.75802856 236.9860199 1480.57855713 237.07540894 1481.4239502 C238.1645424 1491.60737912 239.47192161 1501.63475987 241.56738281 1511.66723633 C243.30781296 1520.1145016 244.29176127 1528.62206193 245.24072266 1537.18969727 C245.7151537 1541.45827765 246.19690373 1545.72584913 246.68896484 1549.99243164 C248.59471195 1566.6461983 250.19786424 1583.31882641 251.67993164 1600.0144043 C251.93389649 1602.87469663 252.19073419 1605.7347056 252.45043945 1608.59448242 C255.10151787 1637.79015541 257.0805435 1666.9908197 258.32275391 1696.2824707 C258.49407687 1700.32206094 258.67482764 1704.36120602 258.85546875 1708.40039062 C259.27602158 1717.93211776 259.64344755 1727.46568901 260 1737 C260.06155588 1738.63046139 260.06155588 1738.63046139 260.12435532 1740.29386139 C261.61102114 1779.85679671 262.36963304 1819.361389 262.31486082 1858.95618296 C262.31164643 1861.73895703 262.31074454 1864.52173014 262.30979842 1867.30450577 C262.28090072 1943.86511452 260.56718747 2020.39640887 256.91233349 2165.35006714 C255.706593 2209.5238628 254.82601144 2253.66537543 254.86962891 2297.85766602 C254.8753153 2303.64407985 254.87193053 2309.43044755 254.86619186 2315.21685982 C254.84554193 2339.79843641 254.99559526 2364.37145926 255.4453125 2388.94921875 C255.46472775 2390.05571085 255.48414299 2391.16220295 255.50414658 2392.30222511 C255.70339933 2403.37484739 256.00033627 2414.40992584 256.76559448 2425.45860291 C257.13639418 2431.06064237 257.31789854 2436.66652363 257.5 2442.27734375 C257.58327492 2444.69075722 257.66660998 2447.10416862 257.75 2449.51757812 C257.87616096 2453.24548656 258.00119319 2456.97342864 258.125 2460.70141602 C258.24706994 2464.35183176 258.3733268 2468.00208527 258.5 2471.65234375 C258.53544922 2472.75875717 258.57089844 2473.86517059 258.60742188 2475.00511169 C258.79518538 2480.3654562 259.11905169 2485.64775244 259.76812744 2490.97190857 C260.12708174 2494.11153036 260.27533344 2497.25468235 260.4296875 2500.41015625 C260.50140766 2501.80893895 260.57352777 2503.20770118 260.64599609 2504.60644531 C260.68295593 2505.33142212 260.71991577 2506.05639893 260.75799561 2506.80334473 C261.5712378 2522.50566424 262.78452731 2538.13350161 264.37492371 2553.77796936 C264.8030429 2557.99216691 265.20849993 2562.20778324 265.59684753 2566.42582703 C269.63565803 2610.13412732 275.98079925 2653.65335912 283.62365723 2696.87011719 C283.98163666 2698.89607412 284.33648029 2700.92255443 284.69042969 2702.94921875 C287.6403909 2719.74748502 291.18866129 2736.37791647 295 2753 C295.46648123 2755.05851778 295.9326332 2757.11711019 296.3984375 2759.17578125 C297.90222588 2765.79098404 299.44439466 2772.39680615 301 2779 C301.16520142 2779.70288147 301.33040283 2780.40576294 301.50061035 2781.12994385 C305.81744023 2799.48321121 310.20740539 2817.73275327 315.95996094 2835.69824219 C317.18698619 2839.59361533 318.3645123 2843.50261548 319.5390625 2847.4140625 C339.01598081 2912.10743718 362.87230065 2975.03318392 392 3036 C392.63609503 3037.33445963 393.2721622 3038.66893255 393.90820312 3040.00341797 C401.30017469 3055.49580233 408.77983468 3070.92563155 417 3086 C417.38397949 3086.70737305 417.76795898 3087.41474609 418.16357422 3088.14355469 C423.78130572 3098.46488289 429.6674497 3108.62310746 435.61401367 3118.7578125 C439.12005489 3124.74246624 442.56560694 3130.75565954 445.9519043 3136.80883789 C463.93073739 3168.94290201 484.11826797 3202.4051594 511 3228 C516 3233 516 3233 517.74609375 3234.88671875 C534.96511171 3253.01714031 558.80584914 3267.87420974 584.234375 3269.1640625 C606.49532068 3269.69871403 624.81937433 3258.85355832 640.7109375 3244.078125 C642.28971876 3242.6448287 643.92230345 3241.2693801 645.59375 3239.9453125 C662.36597809 3226.38594629 674.27435356 3204.36297446 685 3186 C685.38961914 3185.43539062 685.77923828 3184.87078125 686.18066406 3184.2890625 C688.72692344 3180.43149045 689.39921095 3177.76010464 688.52880859 3173.20605469 C688.35430176 3172.47805664 688.17979492 3171.75005859 688 3171 C687.8138916 3170.18692383 687.6277832 3169.37384766 687.43603516 3168.53613281 C686.76245668 3165.72273893 686.04326231 3162.92406385 685.3125 3160.125 C683.75812762 3154.14131578 682.25043745 3148.15373064 680.89404297 3142.12207031 C677.54749717 3127.25988659 673.89750006 3112.48598015 670.15625 3097.71875 C669.88990942 3096.6672665 669.62356884 3095.615783 669.34915733 3094.53243637 C667.40319351 3086.85400263 665.45210467 3079.17687447 663.5 3071.5 C661.27788242 3062.76126893 659.05776528 3054.02203779 656.84375 3045.28125 C656.57588684 3044.22391159 656.30802368 3043.16657318 656.03204346 3042.07719421 C653.25839909 3031.1164385 650.50382805 3020.15840883 648.03125 3009.125 C645.23202298 2996.63994253 642.07796548 2984.24651406 638.9375 2971.84375 C638.65933945 2970.7450206 638.38117889 2969.6462912 638.09458923 2968.51426697 C636.06679251 2960.50856271 634.0338927 2952.50415736 632 2944.5 C629.68415785 2935.38626209 627.37029738 2926.27202876 625.0625 2917.15625 C624.78373016 2916.05528488 624.50496033 2914.95431976 624.21774292 2913.81999207 C621.13583965 2901.63533875 618.11689417 2889.45059609 615.36962891 2877.18579102 C612.7605359 2865.68906407 609.83105682 2854.27147534 606.9375 2842.84375 C606.65929413 2841.74483932 606.38108826 2840.64592865 606.0944519 2839.51371765 C604.06670108 2831.50819647 602.03384621 2823.50397443 600 2815.5 C597.68415785 2806.38626208 595.37030185 2797.27202763 593.0625 2788.15625 C592.78389633 2787.05594955 592.50529266 2785.95564911 592.21824646 2784.82200623 C589.1246938 2772.59139828 586.09441616 2760.36038056 583.33557129 2748.04956055 C580.80426507 2736.89131754 577.9659239 2725.80939847 575.15625 2714.71875 C574.88903137 2713.6637883 574.62181274 2712.6088266 574.34649658 2711.52189636 C572.40142034 2703.84697581 570.45121167 2696.17336266 568.5 2688.5 C566.27788242 2679.76126893 564.05776528 2671.02203779 561.84375 2662.28125 C561.57588684 2661.22391159 561.30802368 2660.16657318 561.03204346 2659.07719421 C558.25839909 2648.1164385 555.50382805 2637.15840883 553.03125 2626.125 C550.23202298 2613.63994253 547.07796548 2601.24651406 543.9375 2588.84375 C543.65933945 2587.7450206 543.38117889 2586.6462912 543.09458923 2585.51426697 C541.06679251 2577.50856271 539.0338927 2569.50415736 537 2561.5 C534.68415785 2552.38626208 532.37030185 2543.27202763 530.0625 2534.15625 C529.78389633 2533.05594955 529.50529266 2531.95564911 529.21824646 2530.82200623 C526.1246938 2518.59139828 523.09441616 2506.36038056 520.33557129 2494.04956055 C517.80426507 2482.89131754 514.9659239 2471.80939847 512.15625 2460.71875 C511.88903137 2459.6637883 511.62181274 2458.6088266 511.34649658 2457.52189636 C509.40142034 2449.84697581 507.45121167 2442.17336266 505.5 2434.5 C503.27788242 2425.76126893 501.05776528 2417.02203779 498.84375 2408.28125 C498.57588684 2407.22391159 498.30802368 2406.16657318 498.03204346 2405.07719421 C495.25839909 2394.1164385 492.50382805 2383.15840883 490.03125 2372.125 C487.23202298 2359.63994253 484.07796548 2347.24651406 480.9375 2334.84375 C480.65933945 2333.7450206 480.38117889 2332.6462912 480.09458923 2331.51426697 C478.06679251 2323.50856271 476.0338927 2315.50415736 474 2307.5 C471.68415785 2298.38626209 469.37029738 2289.27202876 467.0625 2280.15625 C466.78373016 2279.05528488 466.50496033 2277.95431976 466.21774292 2276.81999207 C463.13583965 2264.63533875 460.11689417 2252.45059609 457.36962891 2240.18579102 C454.7605359 2228.68906407 451.83105682 2217.27147534 448.9375 2205.84375 C448.52019119 2204.19538399 448.52019119 2204.19538399 448.0944519 2202.51371765 C446.06670108 2194.50819647 444.03384621 2186.50397443 442 2178.5 C439.68415785 2169.38626208 437.37030185 2160.27202763 435.0625 2151.15625 C434.78389633 2150.05594955 434.50529266 2148.95564911 434.21824646 2147.82200623 C431.1246938 2135.59139828 428.09441616 2123.36038056 425.33557129 2111.04956055 C422.80426507 2099.89131754 419.9659239 2088.80939847 417.15625 2077.71875 C416.88903137 2076.6637883 416.62181274 2075.6088266 416.34649658 2074.52189636 C414.40142034 2066.84697581 412.45121167 2059.17336266 410.5 2051.5 C408.27788242 2042.76126891 406.05779534 2034.02203019 403.84375 2025.28125 C403.57775623 2024.23134762 403.31176247 2023.18144524 403.03770828 2022.09972763 C399.89590426 2009.68478518 396.82902341 1997.26449294 394.01364136 1984.77090454 C391.14281418 1972.07513501 387.8614272 1959.48144659 384.625 1946.875 C383.97758728 1944.34382091 383.3304507 1941.81257118 382.68359375 1939.28125 C381.12555943 1933.18668671 379.56419071 1927.09298597 378 1921 C379.95681254 1920.77124532 381.91362508 1920.54249064 383.87043762 1920.31373596 C388.52709663 1919.62769764 392.99546311 1918.13613367 397.51171875 1916.83984375 C400.56147146 1916.10558078 402.90431317 1915.92879291 406 1916 C407.17652607 1920.50726588 408.34799936 1925.01581085 409.515625 1929.52539062 C409.9098863 1931.04557123 410.30531622 1932.56544943 410.70214844 1934.08496094 C412.86223268 1942.3597452 414.93749152 1950.64452167 416.81784058 1958.98770142 C420.00257287 1973.10316941 423.51055225 1987.12952003 427.0625 2001.15625 C427.33996944 2002.2522263 427.61743889 2003.34820259 427.9033165 2004.47739029 C429.93181252 2012.48587518 431.96540117 2020.49306374 434 2028.5 C436.31584215 2037.61373792 438.62969815 2046.72797237 440.9375 2055.84375 C441.21610367 2056.94405045 441.49470734 2058.04435089 441.78175354 2059.17799377 C444.8753062 2071.40860172 447.90558384 2083.63961944 450.66442871 2095.95043945 C453.19573493 2107.10868246 456.0340761 2118.19060153 458.84375 2129.28125 C459.11096863 2130.3362117 459.37818726 2131.3911734 459.65350342 2132.47810364 C461.59857966 2140.15302419 463.54878833 2147.82663734 465.5 2155.5 C467.72211758 2164.23873107 469.94223472 2172.97796221 472.15625 2181.71875 C472.42411316 2182.77608841 472.69197632 2183.83342682 472.96795654 2184.92280579 C475.74160091 2195.8835615 478.49617195 2206.84159117 480.96875 2217.875 C483.76797702 2230.36005747 486.92203452 2242.75348594 490.0625 2255.15625 C490.34066055 2256.2549794 490.61882111 2257.3537088 490.90541077 2258.48573303 C492.93320749 2266.49143729 494.9661073 2274.49584264 497 2282.5 C499.31584215 2291.61373791 501.62970262 2300.72797124 503.9375 2309.84375 C504.21626984 2310.94471512 504.49503967 2312.04568024 504.78225708 2313.18000793 C507.86416035 2325.36466125 510.88310583 2337.54940391 513.63037109 2349.81420898 C516.2394641 2361.31093593 519.16894318 2372.72852466 522.0625 2384.15625 C522.47980881 2385.80461601 522.47980881 2385.80461601 522.9055481 2387.48628235 C524.93329892 2395.49180353 526.96615379 2403.49602557 529 2411.5 C531.31584215 2420.61373792 533.62969815 2429.72797237 535.9375 2438.84375 C536.21610367 2439.94405045 536.49470734 2441.04435089 536.78175354 2442.17799377 C539.8753062 2454.40860172 542.90558384 2466.63961944 545.66442871 2478.95043945 C548.19573493 2490.10868246 551.0340761 2501.19060153 553.84375 2512.28125 C554.11096863 2513.3362117 554.37818726 2514.3911734 554.65350342 2515.47810364 C556.59857966 2523.15302419 558.54878833 2530.82663734 560.5 2538.5 C562.72211758 2547.23873107 564.94223472 2555.97796221 567.15625 2564.71875 C567.42411316 2565.77608841 567.69197632 2566.83342682 567.96795654 2567.92280579 C570.74160091 2578.8835615 573.49617195 2589.84159117 575.96875 2600.875 C578.76797702 2613.36005747 581.92203452 2625.75348594 585.0625 2638.15625 C585.34066055 2639.2549794 585.61882111 2640.3537088 585.90541077 2641.48573303 C587.93320749 2649.49143729 589.9661073 2657.49584264 592 2665.5 C594.31584215 2674.61373792 596.62969815 2683.72797237 598.9375 2692.84375 C599.21610367 2693.94405045 599.49470734 2695.04435089 599.78175354 2696.17799377 C602.8753062 2708.40860172 605.90558384 2720.63961944 608.66442871 2732.95043945 C611.19573493 2744.10868246 614.0340761 2755.19060153 616.84375 2766.28125 C617.11096863 2767.3362117 617.37818726 2768.3911734 617.65350342 2769.47810364 C619.59857966 2777.15302419 621.54878833 2784.82663734 623.5 2792.5 C625.72211758 2801.23873107 627.94223472 2809.97796221 630.15625 2818.71875 C630.42411316 2819.77608841 630.69197632 2820.83342682 630.96795654 2821.92280579 C633.74160091 2832.8835615 636.49617195 2843.84159117 638.96875 2854.875 C641.76797702 2867.36005747 644.92203452 2879.75348594 648.0625 2892.15625 C648.34066055 2893.2549794 648.61882111 2894.3537088 648.90541077 2895.48573303 C650.93320749 2903.49143729 652.9661073 2911.49584264 655 2919.5 C657.31584215 2928.61373792 659.62969815 2937.72797237 661.9375 2946.84375 C662.21610367 2947.94405045 662.49470734 2949.04435089 662.78175354 2950.17799377 C665.8753062 2962.40860172 668.90558384 2974.63961944 671.66442871 2986.95043945 C674.19573493 2998.10868246 677.0340761 3009.19060153 679.84375 3020.28125 C680.11096863 3021.3362117 680.37818726 3022.3911734 680.65350342 3023.47810364 C682.59857966 3031.15302419 684.54878833 3038.82663734 686.5 3046.5 C688.72211757 3055.23873105 690.94224761 3063.97795895 693.15625 3072.71875 C693.55274813 3074.28388273 693.55274813 3074.28388273 693.95725632 3075.88063431 C697.63372299 3090.40974387 701.17706651 3104.9540992 704.44668579 3119.58065796 C705.85676263 3125.7461569 707.42696199 3131.87440492 709 3138 C709.99 3138 710.98 3138 712 3138 C712.11682129 3138.79124268 712.23364258 3139.58248535 712.35400391 3140.39770508 C714.04360204 3151.63543945 716.17547587 3162.76655872 718.39160156 3173.91064453 C718.91155388 3176.55088396 719.40892135 3179.19385633 719.8984375 3181.83984375 C726.86448585 3217.86876241 746.05666442 3254.05694103 776.74609375 3275.203125 C789.17672299 3283.43674609 802.3795474 3288.95329832 817 3292 C817.70769531 3292.16773926 818.41539062 3292.33547852 819.14453125 3292.50830078 C851.06454954 3299.66344911 885.30841339 3289.44237703 912.53393555 3272.69018555 C940.0384738 3255.25113789 959.34637239 3230.71469855 972 3201 C972.47953125 3199.94296875 972.9590625 3198.8859375 973.453125 3197.796875 C979.54441069 3183.24190813 981.95196112 3167.41205402 985 3152 C985.37364122 3150.12238455 985.74733028 3148.24477862 986.12109375 3146.3671875 C986.28053467 3145.56385986 986.43997559 3144.76053223 986.60424805 3143.93286133 C995.42915999 3099.4885925 995.42915999 3099.4885925 1003.9921875 3079.30078125 C1006.55097833 3072.96768182 1007.98259753 3066.39469847 1009.5 3059.75 C1011.48220491 3051.1785477 1013.61527056 3042.70208067 1016.07617188 3034.25488281 C1017.36831743 3029.70232346 1018.44707948 3025.11262419 1019.5 3020.5 C1020.8496341 3014.70539216 1022.24399519 3008.95591663 1023.9375 3003.25 C1025.86636361 2996.72153855 1027.43522018 2990.12433168 1029 2983.5 C1030.82105954 2975.79073492 1032.75012755 2968.1717694 1035.00390625 2960.578125 C1036.55526665 2955.00539509 1037.83023784 2949.36975714 1039.14477539 2943.73730469 C1040.57182236 2937.67002865 1042.20372088 2931.69707445 1043.96875 2925.71875 C1045.27523046 2921.00750228 1046.38895995 2916.26051846 1047.5 2911.5 C1048.85252523 2905.70594325 1050.24392778 2899.95614375 1051.9375 2894.25 C1053.86636361 2887.72153855 1055.43522018 2881.12433168 1057 2874.5 C1058.82105954 2866.79073492 1060.75012755 2859.1717694 1063.00390625 2851.578125 C1064.55526665 2846.00539509 1065.83023784 2840.36975714 1067.14477539 2834.73730469 C1068.57182236 2828.67002865 1070.20372088 2822.69707445 1071.96875 2816.71875 C1073.27523046 2812.00750228 1074.38895995 2807.26051846 1075.5 2802.5 C1076.85252523 2796.70594325 1078.24392778 2790.95614375 1079.9375 2785.25 C1082.17988458 2777.65131218 1083.96047188 2769.95000556 1085.78662109 2762.24243164 C1087.41836774 2755.37227252 1089.14659212 2748.5470957 1091.00390625 2741.734375 C1092.22695047 2737.14915826 1093.36301622 2732.54466643 1094.5 2727.9375 C1095.89858656 2722.27854656 1097.35267073 2716.65544858 1099 2711.0625 C1100.96824675 2704.34030244 1102.55493554 2697.54818664 1104.14672852 2690.72973633 C1105.29184786 2685.86155592 1106.51401941 2681.04612547 1107.9375 2676.25 C1109.86636361 2669.72153855 1111.43522018 2663.12433168 1113 2656.5 C1114.82105954 2648.79073492 1116.75012755 2641.1717694 1119.00390625 2633.578125 C1120.55526665 2628.00539509 1121.83023784 2622.36975714 1123.14477539 2616.73730469 C1124.57182236 2610.67002865 1126.20372088 2604.69707445 1127.96875 2598.71875 C1129.27523046 2594.00750228 1130.38895995 2589.26051846 1131.5 2584.5 C1132.85252523 2578.70594325 1134.24392778 2572.95614375 1135.9375 2567.25 C1138.17988458 2559.65131218 1139.96047188 2551.95000556 1141.78662109 2544.24243164 C1143.41836774 2537.37227252 1145.14659212 2530.5470957 1147.00390625 2523.734375 C1148.22695047 2519.14915826 1149.36301622 2514.54466643 1150.5 2509.9375 C1151.89858656 2504.27854656 1153.35267073 2498.65544858 1155 2493.0625 C1156.9673961 2486.34320767 1158.55376543 2479.55411332 1160.14453125 2472.73852539 C1161.5715831 2466.67081911 1163.20360234 2460.69747593 1164.96875 2454.71875 C1166.27523046 2450.00750228 1167.38895995 2445.26051846 1168.5 2440.5 C1169.85252523 2434.70594325 1171.24392778 2428.95614375 1172.9375 2423.25 C1174.86636361 2416.72153855 1176.43522018 2410.12433168 1178 2403.5 C1179.82105954 2395.79073492 1181.75012755 2388.1717694 1184.00390625 2380.578125 C1185.55526665 2375.00539509 1186.83023784 2369.36975714 1188.14477539 2363.73730469 C1189.57182236 2357.67002865 1191.20372088 2351.69707445 1192.96875 2345.71875 C1194.27523046 2341.00750228 1195.38895995 2336.26051846 1196.5 2331.5 C1197.85252523 2325.70594325 1199.24392778 2319.95614375 1200.9375 2314.25 C1202.86636361 2307.72153855 1204.43522018 2301.12433168 1206 2294.5 C1207.82105954 2286.79073492 1209.75012755 2279.1717694 1212.00390625 2271.578125 C1213.55626343 2266.0018145 1214.83229625 2260.36255935 1216.14697266 2254.72631836 C1217.28691974 2249.87740037 1218.50833905 2245.08625339 1219.9375 2240.3125 C1224.76628732 2223.62592448 1228.21620631 2206.84670677 1230.46505737 2189.62438965 C1232.72380715 2172.34830965 1235.41927658 2155.14505184 1238.13544083 2137.93629456 C1238.49349147 2135.66626392 1238.85058794 2133.39608531 1239.20736694 2131.12585449 C1239.8964557 2126.74240768 1240.5878492 2122.35932926 1241.28125 2117.9765625 C1241.39475107 2117.25909348 1241.50825214 2116.54162445 1241.62519264 2115.80241394 C1243.01924339 2107.00509215 1244.46375638 2098.2185336 1245.9597168 2089.43792725 C1248.04339006 2077.18962722 1249.85802964 2064.93837351 1251.44897461 2052.61663818 C1253.39803358 2037.66410909 1255.77381598 2022.78068603 1258.14068604 2007.88964844 C1258.62163752 2004.85835513 1259.09911323 2001.82651881 1259.57650661 1998.79466343 C1261.71134589 1985.23953184 1263.8685261 1971.68984569 1266.16015625 1958.16015625 C1267.82736632 1948.28897626 1269.24914409 1938.39619927 1270.57958984 1928.47460938 C1272.48281695 1914.3185464 1274.55834645 1900.23471685 1277.10083008 1886.17822266 C1279.39433982 1873.24682919 1281.11646777 1860.23417464 1282.85742188 1847.21875 C1283.92145657 1839.32303201 1285.02979864 1831.46599287 1286.5546875 1823.64453125 C1288.01746804 1816.12728025 1289.0523415 1808.59712842 1290 1801 C1291.14192464 1792.07122641 1292.43866448 1783.26053259 1294.21875 1774.4375 C1295.5491417 1767.34207761 1296.33657369 1760.15209882 1297.25823975 1752.99453735 C1298.3621007 1744.44623707 1299.65247823 1736.0239658 1301.3515625 1727.57421875 C1302.07994546 1723.55933678 1302.56145226 1719.55474692 1303 1715.5 C1303.64475152 1709.54407437 1304.57998176 1703.73175052 1305.75390625 1697.85229492 C1307.81937001 1687.15303927 1309.07489321 1676.30802764 1310.52685547 1665.51269531 C1313.58538559 1642.80571318 1313.58538559 1642.80571318 1315.5625 1632.75 C1316.77526287 1626.53459027 1317.61062996 1620.35257667 1318.30322266 1614.06445312 C1318.84870648 1609.14493446 1319.57871998 1604.2953286 1320.43359375 1599.421875 C1321.34214752 1593.93295703 1322.09469234 1588.42174198 1322.85913086 1582.91113281 C1324.06494374 1574.30262757 1325.52826593 1565.74213925 1327 1557.17578125 C1328.7725093 1546.81958629 1330.42723915 1536.49976822 1331.5078125 1526.046875 C1332.10975258 1520.66339481 1333.07937794 1515.33627536 1334 1510 C1337.04365279 1492.39828307 1337.04365279 1492.39828307 1339.34716797 1474.68896484 C1339.89130007 1469.68072858 1340.67756461 1464.75383858 1341.6328125 1459.80859375 C1342.10013555 1456.23406957 1342 1452.60494299 1342 1449 C976.36 1449 610.72 1449 234 1449 Z " fill="#FEFEFE" transform="translate(0,0)"/>
<path d="M0 0 C490.05 0 980.1 0 1485 0 C1485 1312.08 1485 2624.16 1485 3976 C994.95 3976 504.9 3976 0 3976 C0 2663.92 0 1351.84 0 0 Z M4 4 C4 305.29 4 606.58 4 917 C4.33 917 4.66 917 5 917 C5.12677124 916.02281006 5.12677124 916.02281006 5.25610352 915.02587891 C13.32377158 854.44704329 42.09109178 794.64284018 89.7890625 754.89453125 C92.25615875 752.78050001 94.61546669 750.57180449 96.98168945 748.34619141 C103.44155678 742.27310637 110.02980446 736.48792611 117 731 C117.64420898 730.48856445 118.28841797 729.97712891 118.95214844 729.45019531 C129.7132489 720.91518977 140.69184725 712.79287534 152 705 C152.81919922 704.43200684 153.63839844 703.86401367 154.48242188 703.27880859 C169.0938661 693.15579334 183.97360161 683.49372544 199 674 C199.96599121 673.38688965 200.93198242 672.7737793 201.92724609 672.14208984 C217.59750587 662.20166096 233.51063981 652.69708202 249.48733521 643.26150513 C254.77706544 640.13610899 260.0491697 636.98216024 265.3125 633.8125 C273.90437693 628.64406147 282.52688084 623.52809198 291.15600586 618.42211914 C297.47647639 614.68216119 303.79253194 610.9350119 310.1015625 607.17578125 C332.17222267 594.02855188 354.33524317 581.10499946 377 569 C378.63171143 568.12770752 378.63171143 568.12770752 380.29638672 567.23779297 C451.73052454 529.23058503 531.81057433 499.4898279 622 498.75 C623.45164551 498.74898788 623.45164551 498.74898788 624.93261719 498.74795532 C680.29448995 498.80890898 734.51730068 511.4422572 785 534 C786.18094238 534.52609863 787.36188477 535.05219727 788.57861328 535.59423828 C804.67682995 542.79864287 820.30353607 550.56498771 835.50878906 559.53320312 C837.82737005 560.89835744 840.1567389 562.24209416 842.4921875 563.578125 C870.75701724 579.83202652 897.31445963 598.9685094 923 619 C924.14971491 619.89065685 925.29945528 620.78128084 926.44921875 621.671875 C931.24726659 625.4033963 936.02792201 629.13594911 940.6328125 633.10546875 C941.21933594 633.61086182 941.80585937 634.11625488 942.41015625 634.63696289 C943.52539192 635.60469658 944.63511205 636.57883607 945.73828125 637.56030273 C949.39014291 640.97167129 949.39014291 640.97167129 954 642 C956.27411233 640.64889188 958.23502875 639.29718473 960.3125 637.6875 C961.57665627 636.74802045 962.84232892 635.81057849 964.109375 634.875 C964.75712891 634.39289062 965.40488281 633.91078125 966.07226562 633.4140625 C983.6657654 620.50859762 1002.73207242 609.19454837 1022 599 C1022.87930176 598.53239258 1023.75860352 598.06478516 1024.66455078 597.58300781 C1087.60777495 564.37665376 1161.9997219 547.42679998 1231.44091797 568.74951172 C1257.90477507 577.11232155 1282.590298 590.30393882 1304 608 C1304.79494873 608.65282959 1304.79494873 608.65282959 1305.60595703 609.31884766 C1319.29961115 620.59430389 1332.47260249 632.48989011 1344 646 C1344.78890625 646.89976562 1345.5778125 647.79953125 1346.390625 648.7265625 C1354.51042041 658.05704489 1361.78392378 667.96254182 1369 678 C1369.87277588 679.205354 1369.87277588 679.205354 1370.76318359 680.43505859 C1422.5202177 752.07974389 1453.77286169 836.15542764 1475.6875 979.125 C1475.77890762 980.17732819 1475.77890762 980.17732819 1475.87216187 981.25091553 C1477.61933247 1001.66573089 1478.20654987 1022.01239008 1478.1875 1042.5 C1478.18689575 1043.70687469 1478.1862915 1044.91374939 1478.18566895 1046.15719604 C1478.06983341 1131.79144131 1464.14257741 1217.19504496 1392 1413 C1391.18692383 1414.67376709 1391.18692383 1414.67376709 1390.35742188 1416.38134766 C1381.75967988 1434.02428756 1381.75967988 1434.02428756 1377.65039062 1440.45751953 C1374.45780289 1445.77895078 1372.52263803 1450.03760335 1371.46763611 1456.21502686 C1371.34752102 1456.90488765 1371.22740593 1457.59474844 1371.10365099 1458.3055141 C1370.72109843 1460.53484589 1370.35795195 1462.76659396 1370 1465 C1369.88128202 1465.73210473 1369.76256403 1466.46420946 1369.64024854 1467.21849918 C1368.72985197 1472.86842226 1367.87165222 1478.52587165 1367.01782227 1484.18457031 C1366.73038038 1486.07545243 1366.44269038 1487.96629684 1366.15477657 1489.85710716 C1365.37078487 1495.0103926 1364.59020366 1500.16418955 1363.81018448 1505.31807756 C1362.96672675 1510.8867966 1362.11996113 1516.4550127 1361.27355957 1522.02328491 C1359.80634668 1531.67845534 1358.34103261 1541.33391232 1356.87698364 1550.98956299 C1354.62905556 1565.81457642 1352.37742167 1580.63902554 1350.12477832 1595.46332315 C1349.62151715 1598.77521589 1349.11827908 1602.08711215 1348.61503696 1605.3990078 C1348.00525889 1609.41202274 1347.39547601 1613.42503695 1346.78567392 1617.43804824 C1345.44071872 1626.28909853 1344.09616819 1635.14021023 1342.75180817 1643.99135093 C1334.76434728 1696.57933784 1326.7475762 1749.16284067 1318.72285545 1801.7451545 C1316.8746549 1813.85561907 1315.02685105 1825.96614415 1313.17907357 1838.07667327 C1310.75505423 1853.96390797 1308.33093819 1869.85112791 1305.90658569 1885.73831177 C1298.19913025 1936.24658038 1290.49395121 1986.75519617 1282.78924084 2037.26388359 C1280.61927772 2051.48919077 1278.44923553 2065.71448589 1276.27906322 2079.93976116 C1274.80295101 2089.61554715 1273.32689547 2099.29134178 1271.85088348 2108.96714306 C1271.00454423 2114.5151933 1270.15818008 2120.06323973 1269.31174088 2125.61127472 C1269.15408202 2126.64479568 1268.99642316 2127.67831665 1268.83398676 2128.74315643 C1268.52144285 2130.79153947 1268.20875076 2132.8398999 1267.89590597 2134.888237 C1267.14296386 2139.81954109 1266.39263639 2144.75121185 1265.64834976 2149.68383026 C1264.31136893 2158.52747205 1262.95049857 2167.36510392 1261.49909455 2176.19078672 C1258.0285311 2197.29945751 1254.82673393 2217.55063648 1256 2239 C1256.08966866 2241.29868637 1256.17545217 2243.59752674 1256.25787354 2245.89648438 C1256.52175912 2252.83682389 1256.86089691 2259.77207133 1257.21648288 2266.70824599 C1257.39632282 2270.24470222 1257.56858733 2273.78152948 1257.74183655 2277.3183136 C1258.0400957 2283.38751555 1258.34285806 2289.45647841 1258.64877319 2295.52529907 C1259.09300082 2304.33981525 1259.5286959 2313.15473922 1259.96250761 2321.96977341 C1261.30868878 2349.31646936 1262.67786653 2376.6620075 1264.06084728 2404.0068655 C1264.77403422 2418.10852873 1265.48379351 2432.21036028 1266.1875 2446.3125 C1266.27989141 2448.16363844 1266.27989141 2448.16363844 1266.37414932 2450.05217361 C1268.25678375 2487.83883694 1269.90415791 2525.63017152 1271.3125 2563.4375 C1271.35362789 2564.53468479 1271.39475578 2565.63186958 1271.43712997 2566.7623024 C1272.00188076 2581.84019338 1272.5265314 2596.91896345 1273 2612 C1273.02763302 2612.8657943 1273.05526604 2613.73158859 1273.08373642 2614.62361908 C1274.1515802 2648.2610244 1274.18798435 2681.90173288 1274.18511182 2715.55240732 C1274.1854124 2720.72718102 1274.19354818 2725.90190195 1274.20581055 2731.07666016 C1274.27916203 2762.77671665 1274.11388003 2794.44352711 1273.07421875 2826.12890625 C1273.01179521 2828.03553165 1273.01179521 2828.03553165 1272.94811058 2829.98067474 C1270.38765346 2906.28408196 1264.12185854 2982.32952774 1254 3058 C1253.82691315 3059.29472229 1253.82691315 3059.29472229 1253.65032959 3060.61560059 C1250.74625195 3082.22402185 1247.29429011 3103.73968464 1243.64880371 3125.23468018 C1243.22434458 3127.7389092 1242.80244705 3130.2435741 1242.38342285 3132.74871826 C1235.29794755 3174.95353699 1225.33018854 3217.17344542 1195 3249 C1194.47535156 3249.59941406 1193.95070313 3250.19882813 1193.41015625 3250.81640625 C1180.05531965 3265.46255021 1160.90516918 3272.22284018 1142 3276 C1141.06414062 3276.19335938 1140.12828125 3276.38671875 1139.1640625 3276.5859375 C1126.77527707 3278.20718596 1113.41552496 3278.45561233 1102 3273 C1101.07695068 3272.57340088 1101.07695068 3272.57340088 1100.13525391 3272.13818359 C1095.33908583 3269.91093626 1090.65100884 3267.51516443 1086 3265 C1085.030625 3264.47792969 1084.06125 3263.95585937 1083.0625 3263.41796875 C1062.05268821 3251.0684514 1047.8117912 3230.27129365 1037 3209 C1036.68369629 3208.39043457 1036.36739258 3207.78086914 1036.04150391 3207.15283203 C1027.48447379 3190.52787804 1021.23080355 3172.19541385 1017 3154 C1016.34 3154 1015.68 3154 1015 3154 C1014.65388672 3155.49273438 1014.65388672 3155.49273438 1014.30078125 3157.015625 C1002.18226746 3209.04921499 1002.18226746 3209.04921499 990 3231 C989.34456519 3232.22109295 988.68961644 3233.44244692 988.03515625 3234.6640625 C977.10143718 3254.74313607 961.24951261 3273.22921122 943 3287 C941.97261719 3287.78246094 940.94523438 3288.56492187 939.88671875 3289.37109375 C904.47523882 3315.8139544 860.31964634 3327.62098851 816.46582031 3321.41113281 C789.24460616 3316.87246701 763.64805515 3304.67723942 743.81738281 3285.4909668 C741.5237678 3283.28467011 740.07052418 3282.02350806 737 3281 C736.30083082 3279.68341932 735.63846531 3278.34706506 735 3277 C733.86772116 3275.69843437 732.69635043 3274.43042965 731.5 3273.1875 C719.18119842 3259.5543959 709.7290747 3242.41160792 703.20629883 3225.31884766 C701.97044101 3221.45218336 701.97044101 3221.45218336 699 3219 C698.30777344 3220.07314453 698.30777344 3220.07314453 697.6015625 3221.16796875 C690.50530595 3232.00869269 682.87218732 3242.20331007 674.07421875 3251.73828125 C672.19878414 3253.78324667 670.40967467 3255.87619475 668.625 3258 C649.40946845 3279.8418001 622.05600426 3295.06363191 593 3297.75 C562.92788165 3299.38369657 536.79506418 3287.27248138 513.25 3269.5 C512.54037109 3268.96608643 511.83074219 3268.43217285 511.09960938 3267.88208008 C506.93851972 3264.68570415 503.17633663 3261.30526631 499.51855469 3257.54443359 C497.76930815 3255.76537674 495.91943766 3254.15513685 494 3252.5625 C490.62210007 3249.64492809 487.70442336 3246.53727907 484.82421875 3243.1328125 C482.89992651 3240.88299759 480.89164215 3238.72974748 478.875 3236.5625 C472.43592531 3229.42257364 466.75504305 3221.69149937 461 3214 C460.26813477 3213.03006104 460.26813477 3213.03006104 459.52148438 3212.04052734 C442.28298197 3189.18103332 428.20120293 3164.25389048 413.98388672 3139.45458984 C412.30724299 3136.53500963 410.62480635 3133.61894971 408.93888855 3130.70472717 C400.74796827 3116.54049394 392.85318543 3102.2655311 385.39257812 3087.69970703 C384.01443323 3085.02798083 382.61361345 3082.36961974 381.203125 3079.71484375 C374.43736378 3066.97557896 368.08618909 3054.07723773 362 3041 C361.72414063 3040.40809875 361.44828125 3039.81619751 361.1640625 3039.20635986 C341.39749148 2996.76137709 323.9794102 2953.41251484 308.74029541 2909.14544678 C308.01350034 2907.03912528 307.28163425 2904.93463299 306.54833984 2902.83056641 C292.43810491 2862.27020777 280.75574332 2820.81590986 271 2779 C270.81133362 2778.19205994 270.62266724 2777.38411987 270.42828369 2776.55169678 C256.04566425 2714.73654664 245.85075198 2652.07953083 239 2589 C238.88827454 2587.97642395 238.77654907 2586.9528479 238.66143799 2585.89825439 C233.48907495 2538.32695247 230.26676528 2490.64770678 228.4140625 2442.83984375 C228.38153822 2442.00254345 228.34901394 2441.16524314 228.31550407 2440.3025701 C226.78309018 2400.54410971 226.44722758 2360.81061104 226.49427414 2321.02614975 C226.49982191 2316.19172775 226.50040529 2311.35731873 226.49964768 2306.52289408 C226.48899894 2215.88120758 228.72109756 2125.30147291 231.13671875 2034.69750977 C232.49213288 1983.85472226 233.16649393 1933.05907666 233.12857085 1882.19916433 C233.12478167 1876.53714845 233.12617458 1870.87515002 233.13037109 1865.21313477 C233.16968264 1811.59909532 233.16968264 1811.59909532 232 1758 C231.97549774 1757.2526849 231.95099548 1756.5053698 231.92575073 1755.73540878 C231.57690103 1745.19574579 231.15207303 1734.6601361 230.6875 1724.125 C230.6227671 1722.64100161 230.55803943 1721.15700299 230.49331665 1719.67300415 C227.58752371 1653.42317454 222.96456976 1587.1841409 214.20791626 1521.42675781 C213.30420635 1514.56761832 212.51316426 1507.70130433 211.76583862 1500.82344055 C211.19200107 1495.62600887 210.57178717 1490.43463178 209.94476318 1485.24337769 C209.65466029 1482.76094172 209.38282424 1480.27628263 209.13189697 1477.7895813 C207.3229174 1460.02853838 202.48931028 1447.30358878 192.60552979 1432.43222046 C190.61857342 1429.42217607 188.81583469 1426.34634162 187.02734375 1423.21484375 C186.50793213 1422.32821045 185.98852051 1421.44157715 185.45336914 1420.52807617 C178.17500562 1408.08956509 171.03996449 1395.57483313 164 1383 C163.40574219 1381.93910156 162.81148437 1380.87820313 162.19921875 1379.78515625 C149.26690845 1356.6703532 136.68057073 1333.39181046 124.546875 1309.84765625 C122.62100598 1306.11245885 120.67925028 1302.38727519 118.70947266 1298.67504883 C112.55448216 1287.07064997 106.63521613 1275.36767562 100.875 1263.5625 C100.19934494 1262.18010132 100.19934494 1262.18010132 99.51004028 1260.76977539 C91.50497584 1244.36453883 83.94029787 1227.79491434 76.65130615 1211.06086731 C74.72143165 1206.63295423 72.75888696 1202.22184651 70.76953125 1197.8203125 C39.65304287 1128.94114369 13.03326333 1055.52842682 5 980 C4.67 980 4.34 980 4 980 C4 1967.36 4 2954.72 4 3972 C491.41 3972 978.82 3972 1481 3972 C1481 2662.56 1481 1353.12 1481 4 C993.59 4 506.18 4 4 4 Z M534.6953125 538 C532.08466999 538.70647408 529.50347508 539.35085026 526.8671875 539.9375 C487.26288821 548.91619456 449.42717366 565.38847039 413 583 C412.04673828 583.46003418 411.09347656 583.92006836 410.11132812 584.39404297 C374.02765586 601.8989986 339.71961788 622.94642553 305.3671875 643.58203125 C298.53246636 647.68743799 291.67564595 651.75477968 284.8125 655.8125 C274.35600732 662.00181835 263.91138062 668.21011389 253.50732422 674.48730469 C251.77784237 675.53071944 250.04765564 676.57296641 248.31689453 677.61425781 C228.54950248 689.51563656 208.98752341 701.77422929 189.88574219 714.72216797 C188.5389049 715.63482285 187.1904112 716.54503525 185.84082031 717.45361328 C169.73884138 728.2987094 153.82759854 739.44670981 139 752 C137.95748863 752.86903855 136.91449472 753.73749848 135.87109375 754.60546875 C129.35041114 760.05131356 123.01274753 765.65948309 116.78515625 771.4375 C114.28894705 773.7341525 111.7509579 775.96670399 109.1875 778.1875 C105.81003084 781.17828217 102.83132211 784.31905239 99.92578125 787.765625 C97.63497958 790.42351254 95.22194453 792.94922897 92.8125 795.5 C86.27101911 802.55067764 80.59614628 810.19007841 75 818 C74.36046387 818.87833496 74.36046387 818.87833496 73.70800781 819.77441406 C33.54860431 875.28420018 28.24455068 943.11902208 38.57537842 1008.88381958 C42.20822098 1031.48517096 47.92480905 1053.24745934 55 1075 C55.44059434 1076.36740757 55.88084854 1077.73492477 56.32080078 1079.10253906 C66.71261332 1111.34413836 78.77694614 1142.81492039 92 1174 C92.50466797 1175.1947998 93.00933594 1176.38959961 93.52929688 1177.62060547 C112.59061634 1222.62382787 134.03344424 1266.86731675 157 1310 C157.83772949 1311.5787793 157.83772949 1311.5787793 158.69238281 1313.18945312 C166.176351 1327.287816 173.7889825 1341.29452699 181.69140625 1355.1640625 C185.32968192 1361.55754783 188.88044645 1367.99859764 192.4375 1374.4375 C198.94905974 1386.20628478 205.66541494 1397.84614989 212.4987793 1409.43066406 C214.35492664 1412.60745617 216.17455313 1415.80546798 218 1419 C593.54 1419 969.08 1419 1356 1419 C1382.97906123 1367.73978367 1404.70330824 1313.92971542 1420 1258 C1420.29068359 1256.95489258 1420.58136719 1255.90978516 1420.88085938 1254.83300781 C1433.6355501 1208.96779266 1442.20470713 1161.83670362 1446.625 1114.4375 C1446.74818604 1113.13756104 1446.87137207 1111.83762207 1446.99829102 1110.49829102 C1448.86046502 1089.73125444 1449.20752951 1068.9663005 1449.1875 1048.125 C1449.18656342 1046.8578717 1449.18562683 1045.59074341 1449.18466187 1044.28521729 C1449.09453828 987.69204655 1445.23214851 929.54346184 1428.88671875 875.015625 C1428.06203138 872.21096136 1427.35805625 869.40728409 1426.6875 866.5625 C1411.23103568 804.32774153 1381.60925062 743.07533707 1343 692 C1342.52208008 691.3611084 1342.04416016 690.7222168 1341.55175781 690.06396484 C1335.70341076 682.25135533 1329.86394306 674.51219814 1323.1953125 667.37109375 C1321.36273348 665.39177798 1319.59914743 663.37956793 1317.83984375 661.3359375 C1306.50659608 648.35193827 1294.117922 635.93819932 1280 626 C1279.3282373 625.52159668 1278.65647461 625.04319336 1277.96435547 624.55029297 C1255.83133062 608.91430101 1231.87303144 597.22539859 1205.30517578 591.50390625 C1203.22255982 591.04865108 1201.15824204 590.54635408 1199.08984375 590.03125 C1146.3850661 578.45013914 1087.36165843 597.83514328 1040.94482422 621.99072266 C1038.96026027 623.02062315 1036.96699202 624.03214103 1034.97265625 625.04296875 C1019.19959627 633.12248984 1004.05598083 642.54577068 989.49682617 652.64453125 C985.21472388 655.61162683 980.96120584 658.15443855 976.23706055 660.36206055 C969.94811174 664.05330808 969.94811174 664.05330808 966.43595886 670.12663269 C966.28332459 672.72482181 966.36203648 675.22977922 966.515625 677.828125 C966.54520294 678.82175552 966.57478088 679.81538605 966.60525513 680.83912659 C966.67334821 683.04018569 966.75661054 685.24081269 966.85272217 687.44082642 C967.00621592 691.15021636 967.10109908 694.85743797 967.18212891 698.5690918 C967.35380185 706.27717136 967.57411158 713.98313919 967.80731201 721.6895752 C967.87616063 723.97604464 967.94363318 726.26255114 968.01074219 728.54907227 C968.5817791 747.96520042 969.25505475 767.37244927 970.12445068 786.77780151 C970.98550658 806.09692907 971.52946983 825.42198481 972.06205368 844.75225449 C972.62283105 865.09016512 973.29143936 885.41653123 974.19238281 905.74279785 C974.80178162 919.5327719 975.25106809 933.31609154 975.55151367 947.11611938 C976.06381313 970.42063361 977.05472529 993.70976516 978 1017 C976.77748535 1016.99419922 975.5549707 1016.98839844 974.29541016 1016.98242188 C972.66829466 1016.9777294 971.04117874 1016.97317968 969.4140625 1016.96875 C968.61105713 1016.96456055 967.80805176 1016.96037109 966.98071289 1016.95605469 C960.93545059 1016.94373627 955.00622747 1017.30169736 949 1018 C949.00425995 1017.01866089 949.0085199 1016.03732178 949.01290894 1015.02624512 C949.0409308 1005.68811755 948.90675537 996.36611338 948.6328125 987.03125 C948.59337061 985.63969267 948.55405742 984.24813168 948.51486206 982.85656738 C948.41012293 979.16799034 948.3019642 975.4795218 948.19268799 971.79107666 C948.12418912 969.4725538 948.05662433 967.15400523 947.98925781 964.83544922 C947.42007807 945.30134468 946.75397867 925.77635156 945.8765564 906.25332642 C944.91897201 884.82716934 944.33112979 863.39108382 943.75615501 841.95184898 C943.66042539 838.38843415 943.56324154 834.82506088 943.46484375 831.26171875 C943.44580364 830.57209423 943.42676353 829.88246971 943.40714645 829.17194748 C943.1966345 821.64587006 942.94756017 814.12931642 942.50390625 806.61328125 C941.9950716 797.98704906 941.7422736 789.35568711 941.5 780.71875 C941.47938066 779.98502985 941.45876133 779.2513097 941.43751717 778.49535561 C941.2669125 772.39131745 941.10215247 766.28712339 940.9375 760.18292236 C940.79428881 754.88229033 940.64852319 749.58173586 940.5 744.28125 C940.47972811 743.55072796 940.45945621 742.82020592 940.43857002 742.06754684 C940.18969481 733.18467457 939.84180349 724.31792963 939.30015564 715.44754028 C938.98388083 709.8623194 938.98310644 704.30366718 939.03515625 698.7109375 C939.04182704 696.13101726 939.04492165 693.55111943 939.04663086 690.97119141 C939.05732077 689.22232245 939.08434431 687.4734861 939.12670898 685.72509766 C939.62025879 675.33836159 939.62025879 675.33836159 935.93554688 665.97460938 C933.4108067 663.67471399 930.88055343 661.82661326 928 660 C926.82989793 659.07128954 925.66918031 658.13047574 924.5234375 657.171875 C923.48445312 656.37265625 922.44546875 655.5734375 921.375 654.75 C916.9367697 651.31667512 912.55602162 647.82947016 908.22924805 644.2565918 C899.81340054 637.31899356 891.1152335 630.86670028 882.21289062 624.56884766 C880.09842191 623.06977705 877.99342806 621.55834295 875.890625 620.04296875 C836.01517051 591.42500081 793.13613552 566.62191858 746.84130859 550.04541016 C743.8041045 548.92792365 740.80636759 547.72708172 737.80078125 546.52734375 C730.33765756 543.64885986 722.72737553 541.52006308 715 539.5 C714.26588898 539.30679169 713.53177795 539.11358337 712.77542114 538.91452026 C655.75223651 524.00059883 591.85449385 522.46629467 534.6953125 538 Z M234 1449 C234.83301392 1458.99616707 235.75645632 1468.96474604 236.8125 1478.9375 C236.89925995 1479.75802856 236.9860199 1480.57855713 237.07540894 1481.4239502 C238.1645424 1491.60737912 239.47192161 1501.63475987 241.56738281 1511.66723633 C243.30781296 1520.1145016 244.29176127 1528.62206193 245.24072266 1537.18969727 C245.7151537 1541.45827765 246.19690373 1545.72584913 246.68896484 1549.99243164 C248.59471195 1566.6461983 250.19786424 1583.31882641 251.67993164 1600.0144043 C251.93389649 1602.87469663 252.19073419 1605.7347056 252.45043945 1608.59448242 C255.10151787 1637.79015541 257.0805435 1666.9908197 258.32275391 1696.2824707 C258.49407687 1700.32206094 258.67482764 1704.36120602 258.85546875 1708.40039062 C259.27602158 1717.93211776 259.64344755 1727.46568901 260 1737 C260.06155588 1738.63046139 260.06155588 1738.63046139 260.12435532 1740.29386139 C261.61102114 1779.85679671 262.36963304 1819.361389 262.31486082 1858.95618296 C262.31164643 1861.73895703 262.31074454 1864.52173014 262.30979842 1867.30450577 C262.28090072 1943.86511452 260.56718747 2020.39640887 256.91233349 2165.35006714 C255.706593 2209.5238628 254.82601144 2253.66537543 254.86962891 2297.85766602 C254.8753153 2303.64407985 254.87193053 2309.43044755 254.86619186 2315.21685982 C254.84554193 2339.79843641 254.99559526 2364.37145926 255.4453125 2388.94921875 C255.46472775 2390.05571085 255.48414299 2391.16220295 255.50414658 2392.30222511 C255.70339933 2403.37484739 256.00033627 2414.40992584 256.76559448 2425.45860291 C257.13639418 2431.06064237 257.31789854 2436.66652363 257.5 2442.27734375 C257.58327492 2444.69075722 257.66660998 2447.10416862 257.75 2449.51757812 C257.87616096 2453.24548656 258.00119319 2456.97342864 258.125 2460.70141602 C258.24706994 2464.35183176 258.3733268 2468.00208527 258.5 2471.65234375 C258.53544922 2472.75875717 258.57089844 2473.86517059 258.60742188 2475.00511169 C258.79518538 2480.3654562 259.11905169 2485.64775244 259.76812744 2490.97190857 C260.12708174 2494.11153036 260.27533344 2497.25468235 260.4296875 2500.41015625 C260.50140766 2501.80893895 260.57352777 2503.20770118 260.64599609 2504.60644531 C260.68295593 2505.33142212 260.71991577 2506.05639893 260.75799561 2506.80334473 C261.5712378 2522.50566424 262.78452731 2538.13350161 264.37492371 2553.77796936 C264.8030429 2557.99216691 265.20849993 2562.20778324 265.59684753 2566.42582703 C269.63565803 2610.13412732 275.98079925 2653.65335912 283.62365723 2696.87011719 C283.98163666 2698.89607412 284.33648029 2700.92255443 284.69042969 2702.94921875 C287.6403909 2719.74748502 291.18866129 2736.37791647 295 2753 C295.46648123 2755.05851778 295.9326332 2757.11711019 296.3984375 2759.17578125 C297.90222588 2765.79098404 299.44439466 2772.39680615 301 2779 C301.16520142 2779.70288147 301.33040283 2780.40576294 301.50061035 2781.12994385 C305.81744023 2799.48321121 310.20740539 2817.73275327 315.95996094 2835.69824219 C317.18698619 2839.59361533 318.3645123 2843.50261548 319.5390625 2847.4140625 C339.01598081 2912.10743718 362.87230065 2975.03318392 392 3036 C392.63609503 3037.33445963 393.2721622 3038.66893255 393.90820312 3040.00341797 C401.30017469 3055.49580233 408.77983468 3070.92563155 417 3086 C417.38397949 3086.70737305 417.76795898 3087.41474609 418.16357422 3088.14355469 C423.78130572 3098.46488289 429.6674497 3108.62310746 435.61401367 3118.7578125 C439.12005489 3124.74246624 442.56560694 3130.75565954 445.9519043 3136.80883789 C463.93073739 3168.94290201 484.11826797 3202.4051594 511 3228 C516 3233 516 3233 517.74609375 3234.88671875 C534.96511171 3253.01714031 558.80584914 3267.87420974 584.234375 3269.1640625 C606.49532068 3269.69871403 624.81937433 3258.85355832 640.7109375 3244.078125 C642.28971876 3242.6448287 643.92230345 3241.2693801 645.59375 3239.9453125 C662.36597809 3226.38594629 674.27435356 3204.36297446 685 3186 C685.38961914 3185.43539062 685.77923828 3184.87078125 686.18066406 3184.2890625 C688.72692344 3180.43149045 689.39921095 3177.76010464 688.52880859 3173.20605469 C688.35430176 3172.47805664 688.17979492 3171.75005859 688 3171 C687.8138916 3170.18692383 687.6277832 3169.37384766 687.43603516 3168.53613281 C686.76245668 3165.72273893 686.04326231 3162.92406385 685.3125 3160.125 C683.75812762 3154.14131578 682.25043745 3148.15373064 680.89404297 3142.12207031 C677.54749717 3127.25988659 673.89750006 3112.48598015 670.15625 3097.71875 C669.88990942 3096.6672665 669.62356884 3095.615783 669.34915733 3094.53243637 C667.40319351 3086.85400263 665.45210467 3079.17687447 663.5 3071.5 C661.27788242 3062.76126893 659.05776528 3054.02203779 656.84375 3045.28125 C656.57588684 3044.22391159 656.30802368 3043.16657318 656.03204346 3042.07719421 C653.25839909 3031.1164385 650.50382805 3020.15840883 648.03125 3009.125 C645.23202298 2996.63994253 642.07796548 2984.24651406 638.9375 2971.84375 C638.65933945 2970.7450206 638.38117889 2969.6462912 638.09458923 2968.51426697 C636.06679251 2960.50856271 634.0338927 2952.50415736 632 2944.5 C629.68415785 2935.38626209 627.37029738 2926.27202876 625.0625 2917.15625 C624.78373016 2916.05528488 624.50496033 2914.95431976 624.21774292 2913.81999207 C621.13583965 2901.63533875 618.11689417 2889.45059609 615.36962891 2877.18579102 C612.7605359 2865.68906407 609.83105682 2854.27147534 606.9375 2842.84375 C606.65929413 2841.74483932 606.38108826 2840.64592865 606.0944519 2839.51371765 C604.06670108 2831.50819647 602.03384621 2823.50397443 600 2815.5 C597.68415785 2806.38626208 595.37030185 2797.27202763 593.0625 2788.15625 C592.78389633 2787.05594955 592.50529266 2785.95564911 592.21824646 2784.82200623 C589.1246938 2772.59139828 586.09441616 2760.36038056 583.33557129 2748.04956055 C580.80426507 2736.89131754 577.9659239 2725.80939847 575.15625 2714.71875 C574.88903137 2713.6637883 574.62181274 2712.6088266 574.34649658 2711.52189636 C572.40142034 2703.84697581 570.45121167 2696.17336266 568.5 2688.5 C566.27788242 2679.76126893 564.05776528 2671.02203779 561.84375 2662.28125 C561.57588684 2661.22391159 561.30802368 2660.16657318 561.03204346 2659.07719421 C558.25839909 2648.1164385 555.50382805 2637.15840883 553.03125 2626.125 C550.23202298 2613.63994253 547.07796548 2601.24651406 543.9375 2588.84375 C543.65933945 2587.7450206 543.38117889 2586.6462912 543.09458923 2585.51426697 C541.06679251 2577.50856271 539.0338927 2569.50415736 537 2561.5 C534.68415785 2552.38626208 532.37030185 2543.27202763 530.0625 2534.15625 C529.78389633 2533.05594955 529.50529266 2531.95564911 529.21824646 2530.82200623 C526.1246938 2518.59139828 523.09441616 2506.36038056 520.33557129 2494.04956055 C517.80426507 2482.89131754 514.9659239 2471.80939847 512.15625 2460.71875 C511.88903137 2459.6637883 511.62181274 2458.6088266 511.34649658 2457.52189636 C509.40142034 2449.84697581 507.45121167 2442.17336266 505.5 2434.5 C503.27788242 2425.76126893 501.05776528 2417.02203779 498.84375 2408.28125 C498.57588684 2407.22391159 498.30802368 2406.16657318 498.03204346 2405.07719421 C495.25839909 2394.1164385 492.50382805 2383.15840883 490.03125 2372.125 C487.23202298 2359.63994253 484.07796548 2347.24651406 480.9375 2334.84375 C480.65933945 2333.7450206 480.38117889 2332.6462912 480.09458923 2331.51426697 C478.06679251 2323.50856271 476.0338927 2315.50415736 474 2307.5 C471.68415785 2298.38626209 469.37029738 2289.27202876 467.0625 2280.15625 C466.78373016 2279.05528488 466.50496033 2277.95431976 466.21774292 2276.81999207 C463.13583965 2264.63533875 460.11689417 2252.45059609 457.36962891 2240.18579102 C454.7605359 2228.68906407 451.83105682 2217.27147534 448.9375 2205.84375 C448.52019119 2204.19538399 448.52019119 2204.19538399 448.0944519 2202.51371765 C446.06670108 2194.50819647 444.03384621 2186.50397443 442 2178.5 C439.68415785 2169.38626208 437.37030185 2160.27202763 435.0625 2151.15625 C434.78389633 2150.05594955 434.50529266 2148.95564911 434.21824646 2147.82200623 C431.1246938 2135.59139828 428.09441616 2123.36038056 425.33557129 2111.04956055 C422.80426507 2099.89131754 419.9659239 2088.80939847 417.15625 2077.71875 C416.88903137 2076.6637883 416.62181274 2075.6088266 416.34649658 2074.52189636 C414.40142034 2066.84697581 412.45121167 2059.17336266 410.5 2051.5 C408.27788242 2042.76126891 406.05779534 2034.02203019 403.84375 2025.28125 C403.57775623 2024.23134762 403.31176247 2023.18144524 403.03770828 2022.09972763 C399.89590426 2009.68478518 396.82902341 1997.26449294 394.01364136 1984.77090454 C391.14281418 1972.07513501 387.8614272 1959.48144659 384.625 1946.875 C383.97758728 1944.34382091 383.3304507 1941.81257118 382.68359375 1939.28125 C381.12555943 1933.18668671 379.56419071 1927.09298597 378 1921 C379.95681254 1920.77124532 381.91362508 1920.54249064 383.87043762 1920.31373596 C388.52709663 1919.62769764 392.99546311 1918.13613367 397.51171875 1916.83984375 C400.56147146 1916.10558078 402.90431317 1915.92879291 406 1916 C407.17652607 1920.50726588 408.34799936 1925.01581085 409.515625 1929.52539062 C409.9098863 1931.04557123 410.30531622 1932.56544943 410.70214844 1934.08496094 C412.86223268 1942.3597452 414.93749152 1950.64452167 416.81784058 1958.98770142 C420.00257287 1973.10316941 423.51055225 1987.12952003 427.0625 2001.15625 C427.33996944 2002.2522263 427.61743889 2003.34820259 427.9033165 2004.47739029 C429.93181252 2012.48587518 431.96540117 2020.49306374 434 2028.5 C436.31584215 2037.61373792 438.62969815 2046.72797237 440.9375 2055.84375 C441.21610367 2056.94405045 441.49470734 2058.04435089 441.78175354 2059.17799377 C444.8753062 2071.40860172 447.90558384 2083.63961944 450.66442871 2095.95043945 C453.19573493 2107.10868246 456.0340761 2118.19060153 458.84375 2129.28125 C459.11096863 2130.3362117 459.37818726 2131.3911734 459.65350342 2132.47810364 C461.59857966 2140.15302419 463.54878833 2147.82663734 465.5 2155.5 C467.72211758 2164.23873107 469.94223472 2172.97796221 472.15625 2181.71875 C472.42411316 2182.77608841 472.69197632 2183.83342682 472.96795654 2184.92280579 C475.74160091 2195.8835615 478.49617195 2206.84159117 480.96875 2217.875 C483.76797702 2230.36005747 486.92203452 2242.75348594 490.0625 2255.15625 C490.34066055 2256.2549794 490.61882111 2257.3537088 490.90541077 2258.48573303 C492.93320749 2266.49143729 494.9661073 2274.49584264 497 2282.5 C499.31584215 2291.61373791 501.62970262 2300.72797124 503.9375 2309.84375 C504.21626984 2310.94471512 504.49503967 2312.04568024 504.78225708 2313.18000793 C507.86416035 2325.36466125 510.88310583 2337.54940391 513.63037109 2349.81420898 C516.2394641 2361.31093593 519.16894318 2372.72852466 522.0625 2384.15625 C522.47980881 2385.80461601 522.47980881 2385.80461601 522.9055481 2387.48628235 C524.93329892 2395.49180353 526.96615379 2403.49602557 529 2411.5 C531.31584215 2420.61373792 533.62969815 2429.72797237 535.9375 2438.84375 C536.21610367 2439.94405045 536.49470734 2441.04435089 536.78175354 2442.17799377 C539.8753062 2454.40860172 542.90558384 2466.63961944 545.66442871 2478.95043945 C548.19573493 2490.10868246 551.0340761 2501.19060153 553.84375 2512.28125 C554.11096863 2513.3362117 554.37818726 2514.3911734 554.65350342 2515.47810364 C556.59857966 2523.15302419 558.54878833 2530.82663734 560.5 2538.5 C562.72211758 2547.23873107 564.94223472 2555.97796221 567.15625 2564.71875 C567.42411316 2565.77608841 567.69197632 2566.83342682 567.96795654 2567.92280579 C570.74160091 2578.8835615 573.49617195 2589.84159117 575.96875 2600.875 C578.76797702 2613.36005747 581.92203452 2625.75348594 585.0625 2638.15625 C585.34066055 2639.2549794 585.61882111 2640.3537088 585.90541077 2641.48573303 C587.93320749 2649.49143729 589.9661073 2657.49584264 592 2665.5 C594.31584215 2674.61373792 596.62969815 2683.72797237 598.9375 2692.84375 C599.21610367 2693.94405045 599.49470734 2695.04435089 599.78175354 2696.17799377 C602.8753062 2708.40860172 605.90558384 2720.63961944 608.66442871 2732.95043945 C611.19573493 2744.10868246 614.0340761 2755.19060153 616.84375 2766.28125 C617.11096863 2767.3362117 617.37818726 2768.3911734 617.65350342 2769.47810364 C619.59857966 2777.15302419 621.54878833 2784.82663734 623.5 2792.5 C625.72211758 2801.23873107 627.94223472 2809.97796221 630.15625 2818.71875 C630.42411316 2819.77608841 630.69197632 2820.83342682 630.96795654 2821.92280579 C633.74160091 2832.8835615 636.49617195 2843.84159117 638.96875 2854.875 C641.76797702 2867.36005747 644.92203452 2879.75348594 648.0625 2892.15625 C648.34066055 2893.2549794 648.61882111 2894.3537088 648.90541077 2895.48573303 C650.93320749 2903.49143729 652.9661073 2911.49584264 655 2919.5 C657.31584215 2928.61373792 659.62969815 2937.72797237 661.9375 2946.84375 C662.21610367 2947.94405045 662.49470734 2949.04435089 662.78175354 2950.17799377 C665.8753062 2962.40860172 668.90558384 2974.63961944 671.66442871 2986.95043945 C674.19573493 2998.10868246 677.0340761 3009.19060153 679.84375 3020.28125 C680.11096863 3021.3362117 680.37818726 3022.3911734 680.65350342 3023.47810364 C682.59857966 3031.15302419 684.54878833 3038.82663734 686.5 3046.5 C688.72211757 3055.23873105 690.94224761 3063.97795895 693.15625 3072.71875 C693.55274813 3074.28388273 693.55274813 3074.28388273 693.95725632 3075.88063431 C697.63372299 3090.40974387 701.17706651 3104.9540992 704.44668579 3119.58065796 C705.85676263 3125.7461569 707.42696199 3131.87440492 709 3138 C709.99 3138 710.98 3138 712 3138 C712.11682129 3138.79124268 712.23364258 3139.58248535 712.35400391 3140.39770508 C714.04360204 3151.63543945 716.17547587 3162.76655872 718.39160156 3173.91064453 C718.91155388 3176.55088396 719.40892135 3179.19385633 719.8984375 3181.83984375 C726.86448585 3217.86876241 746.05666442 3254.05694103 776.74609375 3275.203125 C789.17672299 3283.43674609 802.3795474 3288.95329832 817 3292 C817.70769531 3292.16773926 818.41539062 3292.33547852 819.14453125 3292.50830078 C851.06454954 3299.66344911 885.30841339 3289.44237703 912.53393555 3272.69018555 C940.0384738 3255.25113789 959.34637239 3230.71469855 972 3201 C972.47953125 3199.94296875 972.9590625 3198.8859375 973.453125 3197.796875 C979.54441069 3183.24190813 981.95196112 3167.41205402 985 3152 C985.37364122 3150.12238455 985.74733028 3148.24477862 986.12109375 3146.3671875 C986.28053467 3145.56385986 986.43997559 3144.76053223 986.60424805 3143.93286133 C995.42915999 3099.4885925 995.42915999 3099.4885925 1003.9921875 3079.30078125 C1006.55097833 3072.96768182 1007.98259753 3066.39469847 1009.5 3059.75 C1011.48220491 3051.1785477 1013.61527056 3042.70208067 1016.07617188 3034.25488281 C1017.36831743 3029.70232346 1018.44707948 3025.11262419 1019.5 3020.5 C1020.8496341 3014.70539216 1022.24399519 3008.95591663 1023.9375 3003.25 C1025.86636361 2996.72153855 1027.43522018 2990.12433168 1029 2983.5 C1030.82105954 2975.79073492 1032.75012755 2968.1717694 1035.00390625 2960.578125 C1036.55526665 2955.00539509 1037.83023784 2949.36975714 1039.14477539 2943.73730469 C1040.57182236 2937.67002865 1042.20372088 2931.69707445 1043.96875 2925.71875 C1045.27523046 2921.00750228 1046.38895995 2916.26051846 1047.5 2911.5 C1048.85252523 2905.70594325 1050.24392778 2899.95614375 1051.9375 2894.25 C1053.86636361 2887.72153855 1055.43522018 2881.12433168 1057 2874.5 C1058.82105954 2866.79073492 1060.75012755 2859.1717694 1063.00390625 2851.578125 C1064.55526665 2846.00539509 1065.83023784 2840.36975714 1067.14477539 2834.73730469 C1068.57182236 2828.67002865 1070.20372088 2822.69707445 1071.96875 2816.71875 C1073.27523046 2812.00750228 1074.38895995 2807.26051846 1075.5 2802.5 C1076.85252523 2796.70594325 1078.24392778 2790.95614375 1079.9375 2785.25 C1082.17988458 2777.65131218 1083.96047188 2769.95000556 1085.78662109 2762.24243164 C1087.41836774 2755.37227252 1089.14659212 2748.5470957 1091.00390625 2741.734375 C1092.22695047 2737.14915826 1093.36301622 2732.54466643 1094.5 2727.9375 C1095.89858656 2722.27854656 1097.35267073 2716.65544858 1099 2711.0625 C1100.96824675 2704.34030244 1102.55493554 2697.54818664 1104.14672852 2690.72973633 C1105.29184786 2685.86155592 1106.51401941 2681.04612547 1107.9375 2676.25 C1109.86636361 2669.72153855 1111.43522018 2663.12433168 1113 2656.5 C1114.82105954 2648.79073492 1116.75012755 2641.1717694 1119.00390625 2633.578125 C1120.55526665 2628.00539509 1121.83023784 2622.36975714 1123.14477539 2616.73730469 C1124.57182236 2610.67002865 1126.20372088 2604.69707445 1127.96875 2598.71875 C1129.27523046 2594.00750228 1130.38895995 2589.26051846 1131.5 2584.5 C1132.85252523 2578.70594325 1134.24392778 2572.95614375 1135.9375 2567.25 C1138.17988458 2559.65131218 1139.96047188 2551.95000556 1141.78662109 2544.24243164 C1143.41836774 2537.37227252 1145.14659212 2530.5470957 1147.00390625 2523.734375 C1148.22695047 2519.14915826 1149.36301622 2514.54466643 1150.5 2509.9375 C1151.89858656 2504.27854656 1153.35267073 2498.65544858 1155 2493.0625 C1156.9673961 2486.34320767 1158.55376543 2479.55411332 1160.14453125 2472.73852539 C1161.5715831 2466.67081911 1163.20360234 2460.69747593 1164.96875 2454.71875 C1166.27523046 2450.00750228 1167.38895995 2445.26051846 1168.5 2440.5 C1169.85252523 2434.70594325 1171.24392778 2428.95614375 1172.9375 2423.25 C1174.86636361 2416.72153855 1176.43522018 2410.12433168 1178 2403.5 C1179.82105954 2395.79073492 1181.75012755 2388.1717694 1184.00390625 2380.578125 C1185.55526665 2375.00539509 1186.83023784 2369.36975714 1188.14477539 2363.73730469 C1189.57182236 2357.67002865 1191.20372088 2351.69707445 1192.96875 2345.71875 C1194.27523046 2341.00750228 1195.38895995 2336.26051846 1196.5 2331.5 C1197.85252523 2325.70594325 1199.24392778 2319.95614375 1200.9375 2314.25 C1202.86636361 2307.72153855 1204.43522018 2301.12433168 1206 2294.5 C1207.82105954 2286.79073492 1209.75012755 2279.1717694 1212.00390625 2271.578125 C1213.55626343 2266.0018145 1214.83229625 2260.36255935 1216.14697266 2254.72631836 C1217.28691974 2249.87740037 1218.50833905 2245.08625339 1219.9375 2240.3125 C1224.76628732 2223.62592448 1228.21620631 2206.84670677 1230.46505737 2189.62438965 C1232.72380715 2172.34830965 1235.41927658 2155.14505184 1238.13544083 2137.93629456 C1238.49349147 2135.66626392 1238.85058794 2133.39608531 1239.20736694 2131.12585449 C1239.8964557 2126.74240768 1240.5878492 2122.35932926 1241.28125 2117.9765625 C1241.39475107 2117.25909348 1241.50825214 2116.54162445 1241.62519264 2115.80241394 C1243.01924339 2107.00509215 1244.46375638 2098.2185336 1245.9597168 2089.43792725 C1248.04339006 2077.18962722 1249.85802964 2064.93837351 1251.44897461 2052.61663818 C1253.39803358 2037.66410909 1255.77381598 2022.78068603 1258.14068604 2007.88964844 C1258.62163752 2004.85835513 1259.09911323 2001.82651881 1259.57650661 1998.79466343 C1261.71134589 1985.23953184 1263.8685261 1971.68984569 1266.16015625 1958.16015625 C1267.82736632 1948.28897626 1269.24914409 1938.39619927 1270.57958984 1928.47460938 C1272.48281695 1914.3185464 1274.55834645 1900.23471685 1277.10083008 1886.17822266 C1279.39433982 1873.24682919 1281.11646777 1860.23417464 1282.85742188 1847.21875 C1283.92145657 1839.32303201 1285.02979864 1831.46599287 1286.5546875 1823.64453125 C1288.01746804 1816.12728025 1289.0523415 1808.59712842 1290 1801 C1291.14192464 1792.07122641 1292.43866448 1783.26053259 1294.21875 1774.4375 C1295.5491417 1767.34207761 1296.33657369 1760.15209882 1297.25823975 1752.99453735 C1298.3621007 1744.44623707 1299.65247823 1736.0239658 1301.3515625 1727.57421875 C1302.07994546 1723.55933678 1302.56145226 1719.55474692 1303 1715.5 C1303.64475152 1709.54407437 1304.57998176 1703.73175052 1305.75390625 1697.85229492 C1307.81937001 1687.15303927 1309.07489321 1676.30802764 1310.52685547 1665.51269531 C1313.58538559 1642.80571318 1313.58538559 1642.80571318 1315.5625 1632.75 C1316.77526287 1626.53459027 1317.61062996 1620.35257667 1318.30322266 1614.06445312 C1318.84870648 1609.14493446 1319.57871998 1604.2953286 1320.43359375 1599.421875 C1321.34214752 1593.93295703 1322.09469234 1588.42174198 1322.85913086 1582.91113281 C1324.06494374 1574.30262757 1325.52826593 1565.74213925 1327 1557.17578125 C1328.7725093 1546.81958629 1330.42723915 1536.49976822 1331.5078125 1526.046875 C1332.10975258 1520.66339481 1333.07937794 1515.33627536 1334 1510 C1337.04365279 1492.39828307 1337.04365279 1492.39828307 1339.34716797 1474.68896484 C1339.89130007 1469.68072858 1340.67756461 1464.75383858 1341.6328125 1459.80859375 C1342.10013555 1456.23406957 1342 1452.60494299 1342 1449 C976.36 1449 610.72 1449 234 1449 Z " fill="#010101" transform="translate(0,0)"/>
<path d="M0 0 C2.2046176 3.3069264 2.30729145 4.57204072 2.49279785 8.44691467 C2.58093498 10.14636986 2.58093498 10.14636986 2.67085266 11.88015747 C2.75353645 13.74751053 2.75353645 13.74751053 2.83789062 15.65258789 C2.90324509 16.9639119 2.96859955 18.2752359 3.03593445 19.626297 C3.21563512 23.23536356 3.38395698 26.84488388 3.55042839 30.4545815 C3.72816617 34.2640357 3.91669011 38.07295562 4.10412598 41.88194275 C4.45954652 49.13669047 4.80583772 56.39184304 5.14863253 63.64719719 C5.64553459 74.15661165 6.15533313 84.66540101 6.66582489 95.17416286 C6.74251028 96.75310696 6.81919334 98.33205116 6.89587402 99.91099548 C6.93351348 100.68563517 6.97115294 101.46027485 7.00993299 102.25838846 C7.22788188 106.75018197 7.44311052 111.24209443 7.65578651 115.73414057 C8.40613516 131.57012924 9.23718725 147.3979653 10.1861515 163.22336495 C10.80784583 173.59435987 11.37562668 183.96185957 11.78125 194.34375 C11.8407244 195.82182354 11.9003415 197.29989134 11.96008301 198.7779541 C12.08314797 201.84212214 12.2038446 204.90637112 12.32275391 207.97070312 C12.43736086 210.91877571 12.55534479 213.86667322 12.67724609 216.81445312 C13.17547859 228.87444538 13.60247606 240.93628739 14 253 C14.06199774 254.86617855 14.06199774 254.86617855 14.12524796 256.77005768 C15.66783788 303.40401788 16.30208852 349.99114252 16.20059645 396.6494863 C16.18884097 402.31922813 16.18485933 407.98893805 16.18530273 413.65869141 C16.18848869 459.87101647 16.13624623 506.0764662 13.59375 552.234375 C13.5472229 553.09190369 13.5006958 553.94943237 13.45275879 554.83294678 C13.3039001 557.55541643 13.15234913 560.27772357 13 563 C12.94779297 563.93948486 12.89558594 564.87896973 12.84179688 565.84692383 C11.37329742 592.12731396 9.35281956 618.29781724 6.65190125 644.47969055 C6.02127952 650.64651149 5.52107766 656.81808442 5.0625 663 C3.90226376 678.08996095 1.89220035 693.10763832 -0.01174927 708.11843872 C-0.55751122 712.4227244 -1.087343 716.72739786 -1.57592773 721.03857422 C-3.82142861 740.46513797 -7.03586693 759.74749484 -10.19555664 779.04199219 C-10.85699382 783.08518113 -11.50907361 787.12970156 -12.15258789 791.17578125 C-28.06796272 891.16426171 -28.06796272 891.16426171 -62.8125 916.6875 C-72.53109314 923.23115397 -84.19820891 928.33161377 -96 929 C-97.12664062 929.07605469 -98.25328125 929.15210937 -99.4140625 929.23046875 C-115.22217819 929.82609022 -127.42408903 922.9257971 -139.125 912.6875 C-148.32826137 904.05126421 -155.58588885 894.8199981 -162 884 C-162.66902344 882.88238281 -163.33804687 881.76476563 -164.02734375 880.61328125 C-170.49573727 869.37971026 -174.81379042 857.22906774 -179 845 C-179.30260742 844.11924805 -179.60521484 843.23849609 -179.91699219 842.33105469 C-186.24819243 823.42408384 -189.90254626 803.70606801 -193.9609375 784.21875 C-194.15227768 783.30811295 -194.34361786 782.39747589 -194.54075623 781.45924377 C-197.59132205 766.64076587 -197.59132205 766.64076587 -195.5234375 759.39453125 C-195.18473633 758.17378906 -194.84603516 756.95304687 -194.49707031 755.6953125 C-194.12308109 754.40103178 -193.74905693 753.10676115 -193.375 751.8125 C-192.81014105 749.79586629 -192.25087706 747.77773977 -191.69226074 745.7593689 C-191.31987412 744.4140684 -190.9459364 743.06919627 -190.57043457 741.72476196 C-188.98165513 736.01529523 -187.57865545 730.27462414 -186.25 724.5 C-184.70394651 717.83272347 -182.96458347 711.26951183 -181.02734375 704.703125 C-179.74468516 700.07970163 -178.65155749 695.42219108 -177.5625 690.75 C-175.84422221 683.38143452 -173.95347744 676.09344093 -171.87744141 668.81835938 C-169.98203109 662.10353067 -168.38832517 655.32915736 -166.8046875 648.53515625 C-165.39555081 642.53524721 -163.77655984 636.63028335 -162.03125 630.71875 C-160.72476996 626.00750379 -159.61101335 621.26052388 -158.5 616.5 C-156.86760757 609.50544579 -155.06548617 602.60890476 -153.03125 595.71875 C-151.72476954 591.00750228 -150.61104005 586.26051846 -149.5 581.5 C-148.14747477 575.70594325 -146.75607222 569.95614375 -145.0625 564.25 C-143.13363639 557.72153855 -141.56477982 551.12433168 -140 544.5 C-138.17894046 536.79073492 -136.24987245 529.1717694 -133.99609375 521.578125 C-132.44473335 516.00539509 -131.16976216 510.36975714 -129.85522461 504.73730469 C-128.42817764 498.67002865 -126.79627912 492.69707445 -125.03125 486.71875 C-123.72476954 482.00750228 -122.61104005 477.26051846 -121.5 472.5 C-120.14747477 466.70594325 -118.75607222 460.95614375 -117.0625 455.25 C-115.13363639 448.72153855 -113.56477982 442.12433168 -112 435.5 C-110.17894046 427.79073492 -108.24987245 420.1717694 -105.99609375 412.578125 C-104.44473335 407.00539509 -103.16976216 401.36975714 -101.85522461 395.73730469 C-100.42817764 389.67002865 -98.79627912 383.69707445 -97.03125 377.71875 C-95.72476954 373.00750228 -94.61104005 368.26051846 -93.5 363.5 C-92.14747477 357.70594325 -90.75607222 351.95614375 -89.0625 346.25 C-87.13363639 339.72153855 -85.56477982 333.12433168 -84 326.5 C-82.17894046 318.79073492 -80.24987245 311.1717694 -77.99609375 303.578125 C-76.44473335 298.00539509 -75.16976216 292.36975714 -73.85522461 286.73730469 C-72.42817764 280.67002865 -70.79627912 274.69707445 -69.03125 268.71875 C-67.72476996 264.00750379 -66.61101335 259.26052388 -65.5 254.5 C-64.12826766 248.62233475 -62.70968522 242.79086928 -61 237 C-59.31564044 231.29076518 -57.91321948 225.54475333 -56.5625 219.75 C-54.84422221 212.38143452 -52.95347744 205.09344093 -50.87744141 197.81835938 C-48.98203109 191.10353067 -47.38832517 184.32915736 -45.8046875 177.53515625 C-44.39555081 171.53524721 -42.77655984 165.63028335 -41.03125 159.71875 C-39.72476996 155.00750379 -38.61101335 150.26052388 -37.5 145.5 C-35.86760757 138.50544579 -34.06548617 131.60890476 -32.03125 124.71875 C-30.72476954 120.00750228 -29.61104005 115.26051846 -28.5 110.5 C-27.14747477 104.70594325 -25.75607222 98.95614375 -24.0625 93.25 C-22.13363639 86.72153855 -20.56477982 80.12433168 -19 73.5 C-17.17894046 65.79073492 -15.24987245 58.1717694 -12.99609375 50.578125 C-11.69793938 45.91495085 -10.60025622 41.21318675 -9.5 36.5 C-7.82467655 29.3241483 -5.99674846 22.24506081 -3.9140625 15.17578125 C-2.46826026 10.15254526 -1.22816975 5.08015669 0 0 Z " fill="#FEFEFE" transform="translate(1229,2319)"/>
<path d="M0 0 C490.05 0 980.1 0 1485 0 C1485 1312.08 1485 2624.16 1485 3976 C994.95 3976 504.9 3976 0 3976 C0 2663.92 0 1351.84 0 0 Z M4 4 C3.55675477 311.45848174 3.55675477 311.45848174 3.22379851 618.917099 C3.22211593 620.89524197 3.22043328 622.87338495 3.21874809 624.85152792 C3.21284172 631.7862219 3.20699205 638.72091593 3.2011681 645.65560998 C3.19694021 650.68621226 3.19267267 655.7168145 3.18838786 660.74741673 C3.12073042 740.22776722 3.06236766 819.70812453 3.11793484 1706.42086963 C3.12039278 1713.67451352 3.12284063 1720.92815742 3.12528289 1728.18180132 C3.16010601 1831.58857881 3.19695461 1934.99535554 3.3625737 2347.19949818 C3.37338021 2372.9038321 3.38416533 2398.60816604 3.39489746 2424.3125 C3.3953414 2425.37573658 3.39578533 2426.43897316 3.39624272 2427.53442903 C3.43873433 2529.33094006 3.47747489 2631.12745243 3.51534616 2732.92396528 C3.51782737 2739.59280686 3.52031156 2746.26164844 3.52279633 2752.93049002 C3.54872238 2822.51683548 3.57447611 2892.103181 3.60015573 2961.68952656 C3.6005244 2962.68850904 3.60089307 2963.68749153 3.60127291 2964.71674621 C3.60297885 2969.33934882 3.60468458 2973.96195144 3.60638975 2978.58455405 C3.72857605 3309.72303998 3.86531337 3640.86151846 4 3972 C491.41 3972 978.82 3972 1481 3972 C1481 2662.56 1481 1353.12 1481 4 C993.59 4 506.18 4 4 4 Z " fill="#FDFDFD" transform="translate(0,0)"/>
<path d="M0 0 C1.0842627 0.68578125 2.16852539 1.3715625 3.28564453 2.078125 C4.82260986 3.068125 4.82260986 3.068125 6.390625 4.078125 C7.30360352 4.6649707 8.21658203 5.25181641 9.15722656 5.85644531 C11.75 7.75 11.75 7.75 16.75 12.75 C11.8 20.34 6.85 27.93 1.75 35.75 C-1.8421273 34.85196818 -3.49244726 34.12102248 -6.453125 32.125 C-7.26048096 31.58762207 -8.06783691 31.05024414 -8.8996582 30.49658203 C-9.757771 29.92020996 -10.61588379 29.34383789 -11.5 28.75 C-27.93781416 17.90243985 -45.30481126 7.57099683 -64.25 1.75 C-65.18714844 1.4509375 -66.12429688 1.151875 -67.08984375 0.84375 C-83.92015648 -3.64988109 -103.53794266 -2.7845626 -120.25 1.75 C-121.71008554 2.09735092 -123.1710853 2.44087368 -124.6328125 2.78125 C-143.29450572 7.25165248 -160.88501485 14.69875276 -178.25 22.75 C-178.8493335 23.02710815 -179.44866699 23.30421631 -180.06616211 23.58972168 C-198.70679556 32.20948796 -217.17745013 40.98888107 -235.16796875 50.91015625 C-235.77729248 51.24394287 -236.38661621 51.57772949 -237.0144043 51.92163086 C-238.60762461 52.79679267 -240.19475377 53.6830195 -241.78125 54.5703125 C-244.25 55.75 -244.25 55.75 -247.25 55.75 C-249.29054838 52.01040642 -251.30391289 48.25684338 -253.3125 44.5 C-253.89322266 43.43652344 -254.47394531 42.37304688 -255.07226562 41.27734375 C-255.61689453 40.25253906 -256.16152344 39.22773437 -256.72265625 38.171875 C-257.23062744 37.22924805 -257.73859863 36.28662109 -258.26196289 35.31542969 C-259.37474621 32.42609756 -259.36001859 31.57129633 -258.25 28.75 C-256.75491333 27.55921936 -256.75491333 27.55921936 -254.80126953 26.57446289 C-254.06662979 26.19581589 -253.33199005 25.81716888 -252.5750885 25.42704773 C-251.36616188 24.83087395 -251.36616188 24.83087395 -250.1328125 24.22265625 C-249.29733383 23.7972908 -248.46185516 23.37192535 -247.60105896 22.93367004 C-244.86587041 21.54592361 -242.12097653 20.17875946 -239.375 18.8125 C-237.4851718 17.8610303 -235.59576902 16.90871516 -233.70678711 15.95556641 C-229.06089347 13.6170771 -224.40601719 11.29726477 -219.74591064 8.98724365 C-217.52320171 7.88542836 -215.30209494 6.78046978 -213.08154297 5.67431641 C-138.17696322 -31.565806 -73.83621858 -46.87844764 0 0 Z " fill="#020202" transform="translate(533.25,860.25)"/>
</svg>
