<?xml version="1.0" encoding="UTF-8"?>
<!DOCTYPE svg PUBLIC "-//W3C//DTD SVG 1.1//EN" "http://www.w3.org/Graphics/SVG/1.1/DTD/svg11.dtd">
<svg xmlns="http://www.w3.org/2000/svg" version="1.1" width="1290px" height="3975px" style="shape-rendering:geometricPrecision; text-rendering:geometricPrecision; image-rendering:optimizeQuality; fill-rule:evenodd; clip-rule:evenodd" xmlns:xlink="http://www.w3.org/1999/xlink">
<g><path style="opacity:0.77" fill="#fdfdfd" d="M -0.5,-0.5 C 429.5,-0.5 859.5,-0.5 1289.5,-0.5C 1289.5,1324.5 1289.5,2649.5 1289.5,3974.5C 859.5,3974.5 429.5,3974.5 -0.5,3974.5C -0.5,2649.5 -0.5,1324.5 -0.5,-0.5 Z M 1285.5,3068.5 C 1282.33,3045.14 1278.16,3021.8 1273,2998.5C 1254.95,2925.97 1233.95,2854.3 1210,2783.5C 1181.47,2699.56 1153.13,2615.56 1125,2531.5C 1101.93,2061.5 1078.93,1591.5 1056,1121.5C 1056.22,1087.88 1050.88,1055.21 1040,1023.5C 1035.05,1010.94 1029.05,998.942 1022,987.5C 1022.18,952.655 1019.85,917.988 1015,883.5C 1010.79,852.523 1000.45,823.857 984,797.5C 962.63,768.811 934.13,757.311 898.5,763C 878.303,767.266 859.303,774.6 841.5,785C 815.131,801.362 790.465,820.029 767.5,841C 738.547,869.615 710.713,899.115 684,929.5C 667.513,922.457 650.68,921.624 633.5,927C 604.324,936.256 576.991,949.256 551.5,966C 490.112,1008 440.946,1061.17 404,1125.5C 367.447,1188.81 338.447,1255.48 317,1325.5C 292.642,1404.27 273.309,1484.27 259,1565.5C 236.425,1696.1 219.425,1827.44 208,1959.5C 192.439,2143.45 177.439,2327.45 163,2511.5C 129.662,2611.85 95.3289,2711.85 60,2811.5C 43.0033,2860.49 28.3366,2910.16 16,2960.5C 10.9489,2983.49 6.78224,3006.49 3.5,3029.5C 3.5,2020.83 3.5,1012.17 3.5,3.5C 430.833,3.5 858.167,3.5 1285.5,3.5C 1285.5,1025.17 1285.5,2046.83 1285.5,3068.5 Z M 3.5,3120.5 C 11.025,3171.92 30.525,3218.25 62,3259.5C 91.6131,3296.78 125.446,3329.61 163.5,3358C 222.682,3399.51 282.682,3439.84 343.5,3479C 365.657,3492.58 389.324,3502.58 414.5,3509C 431.487,3513.23 448.487,3513.23 465.5,3509C 554.873,3473.93 644.206,3438.76 733.5,3403.5C 802.846,3450.67 879.512,3472.83 963.5,3470C 1071.54,3460.25 1156.71,3411.42 1219,3323.5C 1257,3266.82 1279.17,3204.49 1285.5,3136.5C 1285.5,3414.5 1285.5,3692.5 1285.5,3970.5C 858.167,3970.5 430.833,3970.5 3.5,3970.5C 3.5,3687.17 3.5,3403.83 3.5,3120.5 Z"/></g>
<g><path style="opacity:0.987" fill="#010101" d="M 1285.5,3068.5 C 1286.76,3091.16 1286.76,3113.83 1285.5,3136.5C 1279.17,3204.49 1257,3266.82 1219,3323.5C 1156.71,3411.42 1071.54,3460.25 963.5,3470C 879.512,3472.83 802.846,3450.67 733.5,3403.5C 644.206,3438.76 554.873,3473.93 465.5,3509C 448.487,3513.23 431.487,3513.23 414.5,3509C 389.324,3502.58 365.657,3492.58 343.5,3479C 282.682,3439.84 222.682,3399.51 163.5,3358C 125.446,3329.61 91.6131,3296.78 62,3259.5C 30.525,3218.25 11.025,3171.92 3.5,3120.5C 2.78926,3105.17 2.12259,3089.84 1.5,3074.5C 1.98216,3059.49 2.64883,3044.49 3.5,3029.5C 6.78224,3006.49 10.9489,2983.49 16,2960.5C 28.3366,2910.16 43.0033,2860.49 60,2811.5C 95.3289,2711.85 129.662,2611.85 163,2511.5C 177.439,2327.45 192.439,2143.45 208,1959.5C 219.425,1827.44 236.425,1696.1 259,1565.5C 273.309,1484.27 292.642,1404.27 317,1325.5C 338.447,1255.48 367.447,1188.81 404,1125.5C 440.946,1061.17 490.112,1008 551.5,966C 576.991,949.256 604.324,936.256 633.5,927C 650.68,921.624 667.513,922.457 684,929.5C 710.713,899.115 738.547,869.615 767.5,841C 790.465,820.029 815.131,801.362 841.5,785C 859.303,774.6 878.303,767.266 898.5,763C 934.13,757.311 962.63,768.811 984,797.5C 1000.45,823.857 1010.79,852.523 1015,883.5C 1019.85,917.988 1022.18,952.655 1022,987.5C 1029.05,998.942 1035.05,1010.94 1040,1023.5C 1050.88,1055.21 1056.22,1087.88 1056,1121.5C 1078.93,1591.5 1101.93,2061.5 1125,2531.5C 1153.13,2615.56 1181.47,2699.56 1210,2783.5C 1233.95,2854.3 1254.95,2925.97 1273,2998.5C 1278.16,3021.8 1282.33,3045.14 1285.5,3068.5 Z"/></g>
<g><path style="opacity:1" fill="#fefefe" d="M 904.5,791.5 C 925.606,789.031 943.106,795.697 957,811.5C 966.026,823.217 972.692,836.217 977,850.5C 986.596,883.502 991.096,917.169 990.5,951.5C 941.834,913.334 897.334,917.667 857,964.5C 843.902,981.642 833.235,1000.31 825,1020.5C 790.74,1105.03 768.74,1192.7 759,1283.5C 755.875,1310.45 753.209,1337.45 751,1364.5C 746.638,1440.5 742.304,1516.5 738,1592.5C 731.249,1698.49 712.249,1802.15 681,1903.5C 673.733,1927.3 666.066,1950.97 658,1974.5C 626.81,1858.61 613.143,1740.61 617,1620.5C 619.775,1520.75 629.775,1421.75 647,1323.5C 653.742,1286.46 660.742,1249.46 668,1212.5C 679.146,1170.92 690.146,1129.25 701,1087.5C 704.592,1069.54 707.926,1051.54 711,1033.5C 714.069,1012.81 714.069,992.147 711,971.5C 709.581,965.071 707.414,958.904 704.5,953C 742.896,904.604 786.562,861.604 835.5,824C 856.526,808.819 879.526,797.985 904.5,791.5 Z"/></g>
<g><path style="opacity:1" fill="#fefefe" d="M 645.5,953.5 C 653.713,952.85 661.713,953.684 669.5,956C 675.137,959.752 678.97,964.918 681,971.5C 684.965,988.329 685.632,1005.33 683,1022.5C 680.973,1040.33 677.973,1058 674,1075.5C 662.814,1118.58 651.48,1161.58 640,1204.5C 613.551,1326.86 596.551,1450.53 589,1575.5C 583.823,1680.56 590.157,1784.9 608,1888.5C 619.468,1948.7 635.468,2007.7 656,2065.5C 697.748,1960.18 729.081,1851.84 750,1740.5C 756.617,1704.42 761.284,1668.08 764,1631.5C 770.065,1540.19 775.732,1448.86 781,1357.5C 785.957,1295.63 794.624,1234.3 807,1173.5C 819.63,1115.61 838.63,1059.94 864,1006.5C 872.249,991.579 882.749,978.413 895.5,967C 918.676,951.404 941.676,951.737 964.5,968C 995.906,994.619 1015.07,1028.45 1022,1069.5C 1023.33,1078.13 1024.33,1086.8 1025,1095.5C 1048.12,1563.16 1070.96,2030.82 1093.5,2498.5C 793.833,2498.5 494.167,2498.5 194.5,2498.5C 206.029,2343.45 218.196,2188.45 231,2033.5C 241.825,1906.74 256.158,1780.41 274,1654.5C 288.409,1556.12 309.075,1459.12 336,1363.5C 357.001,1289.48 386.001,1218.82 423,1151.5C 448.433,1107.05 479.599,1066.88 516.5,1031C 549.577,1000.63 586.91,976.63 628.5,959C 634.333,957.3 640,955.467 645.5,953.5 Z"/></g>
<g><path style="opacity:1" fill="#fefefe" d="M 189.5,2527.5 C 491.403,2527.17 793.236,2527.5 1095,2528.5C 1097.1,2541.46 1100.43,2554.13 1105,2566.5C 1143.4,2677.37 1180.4,2788.71 1216,2900.5C 1230.35,2947.56 1242.35,2995.23 1252,3043.5C 1265.76,3132.85 1249.42,3216.18 1203,3293.5C 1127.55,3405.96 1022.38,3453.46 887.5,3436C 838.291,3426.22 792.957,3407.39 751.5,3379.5C 751.167,3363.17 750.833,3346.83 750.5,3330.5C 750.991,3284.83 751.657,3239.16 752.5,3193.5C 742.5,3193.5 732.5,3193.5 722.5,3193.5C 722.246,3254.5 721.58,3315.5 720.5,3376.5C 630.833,3411.67 541.167,3446.83 451.5,3482C 436.07,3483.27 421.07,3481.27 406.5,3476C 381.542,3466.02 357.876,3453.69 335.5,3439C 297.339,3413.09 259.006,3387.42 220.5,3362C 189.773,3341.28 160.773,3318.28 133.5,3293C 101.439,3262.36 75.6055,3227.2 56,3187.5C 33.8426,3133.42 27.176,3077.42 36,3019.5C 43.3353,2974.49 53.6686,2930.16 67,2886.5C 74.5121,2862.79 82.1787,2839.12 90,2815.5C 123.865,2719.74 157.032,2623.74 189.5,2527.5 Z"/></g>
</svg>
