<?xml version="1.0" encoding="UTF-8"?>
<!DOCTYPE svg PUBLIC "-//W3C//DTD SVG 1.1//EN" "http://www.w3.org/Graphics/SVG/1.1/DTD/svg11.dtd">
<svg xmlns="http://www.w3.org/2000/svg" version="1.1" width="1348px" height="3975px" style="shape-rendering:geometricPrecision; text-rendering:geometricPrecision; image-rendering:optimizeQuality; fill-rule:evenodd; clip-rule:evenodd" xmlns:xlink="http://www.w3.org/1999/xlink">
<g><path style="opacity:0.849" fill="#fbfbfb" d="M -0.5,-0.5 C 448.833,-0.5 898.167,-0.5 1347.5,-0.5C 1347.5,1324.5 1347.5,2649.5 1347.5,3974.5C 898.167,3974.5 448.833,3974.5 -0.5,3974.5C -0.5,2649.5 -0.5,1324.5 -0.5,-0.5 Z M 3.5,1003.5 C 18.3604,1101.59 53.1937,1191.92 108,1274.5C 136.886,1317.7 169.719,1357.86 206.5,1395C 226.703,1413.54 247.203,1431.7 268,1449.5C 301.667,1488.5 335.333,1527.5 369,1566.5C 377.606,1606.09 386.44,1645.59 395.5,1685C 369.506,1694.99 347.339,1710.49 329,1731.5C 299.96,1769.48 302.793,1804.98 337.5,1838C 355.519,1852.16 375.186,1863.66 396.5,1872.5C 397.833,1882.5 397.833,1892.5 396.5,1902.5C 365.843,1909.72 342.009,1926.39 325,1952.5C 305.997,1996.83 316.83,2031.99 357.5,2058C 371.54,2066.29 386.54,2072.12 402.5,2075.5C 402.5,2088.83 402.5,2102.17 402.5,2115.5C 371.443,2121.27 345.61,2135.94 325,2159.5C 304.62,2190.29 308.454,2217.79 336.5,2242C 355.86,2256.18 377.193,2266.35 400.5,2272.5C 400.707,2287.19 400.373,2301.85 399.5,2316.5C 371.053,2318.97 347.22,2330.64 328,2351.5C 306.17,2387.23 310.67,2419.4 341.5,2448C 358.226,2460.53 376.893,2469.03 397.5,2473.5C 397.834,2496.48 397.834,2519.48 397.5,2542.5C 369.669,2542.72 345.502,2552.05 325,2570.5C 301.461,2600.02 300.461,2630.35 322,2661.5C 343.156,2685.33 369.656,2699.67 401.5,2704.5C 402.194,2744.11 407.36,2783.11 417,2821.5C 430.988,2867.33 457.154,2904.5 495.5,2933C 546.932,2967.69 603.598,2989.03 665.5,2997C 732.601,3006.94 798.934,3003.27 864.5,2986C 910.967,2973.27 951.967,2950.94 987.5,2919C 1015.95,2890.62 1036.12,2857.12 1048,2818.5C 1049.49,2812.55 1050.66,2806.55 1051.5,2800.5C 1077.64,2799.95 1100.98,2791.79 1121.5,2776C 1149.74,2749.49 1154.24,2719.32 1135,2685.5C 1121.48,2665.32 1103.65,2650.15 1081.5,2640C 1073.36,2636.34 1065.03,2633.18 1056.5,2630.5C 1055.17,2616.17 1055.17,2601.83 1056.5,2587.5C 1079.66,2578.18 1099.83,2564.51 1117,2546.5C 1137.92,2518.26 1137.59,2490.26 1116,2462.5C 1099.71,2445.1 1080.55,2431.77 1058.5,2422.5C 1057.33,2404.51 1057.17,2386.51 1058,2368.5C 1084.64,2360.51 1106.3,2345.51 1123,2323.5C 1139.19,2291.43 1134.35,2262.93 1108.5,2238C 1094.27,2225.89 1077.94,2218.05 1059.5,2214.5C 1059.38,2199.15 1059.71,2183.82 1060.5,2168.5C 1085.12,2163.44 1105.96,2151.78 1123,2133.5C 1138.27,2112.91 1139.27,2091.57 1126,2069.5C 1117.54,2057.37 1107.37,2046.87 1095.5,2038C 1085.16,2030.18 1074.16,2023.34 1062.5,2017.5C 1062.05,1996.85 1062.05,1976.18 1062.5,1955.5C 1087.43,1955.11 1110.1,1947.94 1130.5,1934C 1154.87,1910.28 1160.04,1882.78 1146,1851.5C 1128.25,1819.36 1101.08,1800.69 1064.5,1795.5C 1064.33,1766.5 1064.5,1737.5 1065,1708.5C 1065.17,1700.48 1065.67,1692.48 1066.5,1684.5C 1083.16,1678.78 1099.16,1671.61 1114.5,1663C 1143.18,1644.66 1150.35,1619.83 1136,1588.5C 1130.13,1575.92 1123.63,1563.75 1116.5,1552C 1146.93,1507.23 1177.76,1462.73 1209,1418.5C 1234.23,1376.37 1254.9,1332.03 1271,1285.5C 1308.65,1181.08 1329.15,1073.41 1332.5,962.5C 1332.8,927.363 1328.97,892.696 1321,858.5C 1310.68,820.574 1292.34,787.241 1266,758.5C 1242.91,733.729 1217.74,711.562 1190.5,692C 1171.95,680.111 1153.95,667.445 1136.5,654C 1127.1,647.604 1117.43,641.604 1107.5,636C 1069.54,617.457 1030.54,601.457 990.5,588C 957.688,578.216 925.355,579.549 893.5,592C 849.922,612.455 806.589,633.455 763.5,655C 731.498,670.5 698.498,683.5 664.5,694C 643.18,700.9 621.514,702.567 599.5,699C 588.006,695.82 577.672,690.487 568.5,683C 551.088,666.917 533.088,651.584 514.5,637C 482.181,615.516 446.848,601.183 408.5,594C 311.797,569.402 224.797,588.068 147.5,650C 69.982,715.837 21.982,799.004 3.5,899.5C 3.5,600.833 3.5,302.167 3.5,3.5C 450.167,3.5 896.833,3.5 1343.5,3.5C 1343.5,1325.83 1343.5,2648.17 1343.5,3970.5C 896.833,3970.5 450.167,3970.5 3.5,3970.5C 3.5,2981.5 3.5,1992.5 3.5,1003.5 Z"/></g>
<g><path style="opacity:0.983" fill="#010101" d="M 3.5,1003.5 C 2.18212,968.831 2.18212,934.165 3.5,899.5C 21.982,799.004 69.982,715.837 147.5,650C 224.797,588.068 311.797,569.402 408.5,594C 446.848,601.183 482.181,615.516 514.5,637C 533.088,651.584 551.088,666.917 568.5,683C 577.672,690.487 588.006,695.82 599.5,699C 621.514,702.567 643.18,700.9 664.5,694C 698.498,683.5 731.498,670.5 763.5,655C 806.589,633.455 849.922,612.455 893.5,592C 925.355,579.549 957.688,578.216 990.5,588C 1030.54,601.457 1069.54,617.457 1107.5,636C 1117.43,641.604 1127.1,647.604 1136.5,654C 1153.95,667.445 1171.95,680.111 1190.5,692C 1217.74,711.562 1242.91,733.729 1266,758.5C 1292.34,787.241 1310.68,820.574 1321,858.5C 1328.97,892.696 1332.8,927.363 1332.5,962.5C 1329.15,1073.41 1308.65,1181.08 1271,1285.5C 1254.9,1332.03 1234.23,1376.37 1209,1418.5C 1177.76,1462.73 1146.93,1507.23 1116.5,1552C 1123.63,1563.75 1130.13,1575.92 1136,1588.5C 1150.35,1619.83 1143.18,1644.66 1114.5,1663C 1099.16,1671.61 1083.16,1678.78 1066.5,1684.5C 1065.67,1692.48 1065.17,1700.48 1065,1708.5C 1064.5,1737.5 1064.33,1766.5 1064.5,1795.5C 1101.08,1800.69 1128.25,1819.36 1146,1851.5C 1160.04,1882.78 1154.87,1910.28 1130.5,1934C 1110.1,1947.94 1087.43,1955.11 1062.5,1955.5C 1062.05,1976.18 1062.05,1996.85 1062.5,2017.5C 1074.16,2023.34 1085.16,2030.18 1095.5,2038C 1107.37,2046.87 1117.54,2057.37 1126,2069.5C 1139.27,2091.57 1138.27,2112.91 1123,2133.5C 1105.96,2151.78 1085.12,2163.44 1060.5,2168.5C 1059.71,2183.82 1059.38,2199.15 1059.5,2214.5C 1077.94,2218.05 1094.27,2225.89 1108.5,2238C 1134.35,2262.93 1139.19,2291.43 1123,2323.5C 1106.3,2345.51 1084.64,2360.51 1058,2368.5C 1057.17,2386.51 1057.33,2404.51 1058.5,2422.5C 1080.55,2431.77 1099.71,2445.1 1116,2462.5C 1137.59,2490.26 1137.92,2518.26 1117,2546.5C 1099.83,2564.51 1079.66,2578.18 1056.5,2587.5C 1055.17,2601.83 1055.17,2616.17 1056.5,2630.5C 1065.03,2633.18 1073.36,2636.34 1081.5,2640C 1103.65,2650.15 1121.48,2665.32 1135,2685.5C 1154.24,2719.32 1149.74,2749.49 1121.5,2776C 1100.98,2791.79 1077.64,2799.95 1051.5,2800.5C 1050.66,2806.55 1049.49,2812.55 1048,2818.5C 1036.12,2857.12 1015.95,2890.62 987.5,2919C 951.967,2950.94 910.967,2973.27 864.5,2986C 798.934,3003.27 732.601,3006.94 665.5,2997C 603.598,2989.03 546.932,2967.69 495.5,2933C 457.154,2904.5 430.988,2867.33 417,2821.5C 407.36,2783.11 402.194,2744.11 401.5,2704.5C 369.656,2699.67 343.156,2685.33 322,2661.5C 300.461,2630.35 301.461,2600.02 325,2570.5C 345.502,2552.05 369.669,2542.72 397.5,2542.5C 397.834,2519.48 397.834,2496.48 397.5,2473.5C 376.893,2469.03 358.226,2460.53 341.5,2448C 310.67,2419.4 306.17,2387.23 328,2351.5C 347.22,2330.64 371.053,2318.97 399.5,2316.5C 400.373,2301.85 400.707,2287.19 400.5,2272.5C 377.193,2266.35 355.86,2256.18 336.5,2242C 308.454,2217.79 304.62,2190.29 325,2159.5C 345.61,2135.94 371.443,2121.27 402.5,2115.5C 402.5,2102.17 402.5,2088.83 402.5,2075.5C 386.54,2072.12 371.54,2066.29 357.5,2058C 316.83,2031.99 305.997,1996.83 325,1952.5C 342.009,1926.39 365.843,1909.72 396.5,1902.5C 397.833,1892.5 397.833,1882.5 396.5,1872.5C 375.186,1863.66 355.519,1852.16 337.5,1838C 302.793,1804.98 299.96,1769.48 329,1731.5C 347.339,1710.49 369.506,1694.99 395.5,1685C 386.44,1645.59 377.606,1606.09 369,1566.5C 335.333,1527.5 301.667,1488.5 268,1449.5C 247.203,1431.7 226.703,1413.54 206.5,1395C 169.719,1357.86 136.886,1317.7 108,1274.5C 53.1937,1191.92 18.3604,1101.59 3.5,1003.5 Z"/></g>
<g><path style="opacity:1" fill="#fdfdfd" d="M 933.5,612.5 C 958.627,611.91 982.96,616.077 1006.5,625C 1033.49,635.554 1060.16,646.887 1086.5,659C 1095.09,663.266 1103.42,667.933 1111.5,673C 1138.32,692.579 1165.32,711.912 1192.5,731C 1217.67,750.833 1240.17,773.333 1260,798.5C 1284.76,833.434 1298.43,872.434 1301,915.5C 1304.43,965.401 1302.43,1015.07 1295,1064.5C 1280.72,1162.94 1253.39,1257.61 1213,1348.5C 1202.19,1371.47 1189.85,1393.47 1176,1414.5C 1173.39,1418.06 1170.56,1421.39 1167.5,1424.5C 1164.67,1423.25 1162,1421.75 1159.5,1420C 865.833,1419.67 572.167,1419.33 278.5,1419C 165.498,1326.57 88.331,1210.07 47,1069.5C 5.90465,920.017 41.0713,791.851 152.5,685C 186.261,654.277 225.261,632.611 269.5,620C 292.884,614.747 316.551,613.081 340.5,615C 389.001,617.061 435.001,628.727 478.5,650C 492.533,658.348 505.866,667.682 518.5,678C 531.87,690.372 545.537,702.372 559.5,714C 568.585,720.709 578.585,725.542 589.5,728.5C 589.7,800.501 590.033,872.501 590.5,944.5C 600.167,944.5 609.833,944.5 619.5,944.5C 619.527,873.498 619.194,802.498 618.5,731.5C 639.011,731.137 659.011,727.637 678.5,721C 714.072,709.213 748.739,695.213 782.5,679C 821.132,659.183 860.132,640.183 899.5,622C 910.706,617.869 922.039,614.702 933.5,612.5 Z"/></g>
<g><path style="opacity:1" fill="#b7b7b8" d="M 1030.5,2189.5 C 1029.83,2197.83 1029.5,2206.33 1029.5,2215C 1029.5,2223.86 1030.17,2232.36 1031.5,2240.5C 1049.12,2240.49 1065.45,2244.99 1080.5,2254C 1090.69,2260.85 1097.85,2270.01 1102,2281.5C 1104.11,2297.79 1098.61,2310.95 1085.5,2321C 1068.2,2332.98 1049.2,2341.15 1028.5,2345.5C 1028.05,2377.5 1027.89,2409.5 1028,2441.5C 1048.56,2449.1 1067.39,2459.6 1084.5,2473C 1108.45,2494.32 1108.45,2515.65 1084.5,2537C 1066.78,2550.03 1047.44,2560.2 1026.5,2567.5C 1025.5,2596.49 1025.17,2625.49 1025.5,2654.5C 1049.81,2657.76 1071.81,2666.6 1091.5,2681C 1102.83,2690.32 1111,2701.82 1116,2715.5C 1118.68,2730.64 1114.18,2743.14 1102.5,2753C 1091.53,2761.31 1079.2,2766.65 1065.5,2769C 1051.88,2770.79 1038.22,2771.96 1024.5,2772.5C 1023.33,2804.83 1013.83,2834.5 996,2861.5C 970.269,2898.89 936.436,2926.39 894.5,2944C 831.691,2968.44 766.691,2977.44 699.5,2971C 649.985,2967.45 602.651,2955.45 557.5,2935C 528.701,2921.87 503.535,2903.7 482,2880.5C 462.942,2858.05 449.942,2832.39 443,2803.5C 439.469,2786.98 436.802,2770.31 435,2753.5C 432.717,2728.53 430.884,2703.53 429.5,2678.5C 400.726,2677.73 375.06,2668.57 352.5,2651C 339.858,2639.55 334.691,2625.38 337,2608.5C 341.209,2596.29 349.042,2587.12 360.5,2581C 369.079,2576.92 378.079,2574.25 387.5,2573C 400.849,2572.31 414.183,2572.48 427.5,2573.5C 427.667,2531.5 427.5,2489.5 427,2447.5C 411.749,2446.43 396.915,2443.26 382.5,2438C 368.647,2432.47 357.48,2423.64 349,2411.5C 339.113,2388.41 344.946,2370.24 366.5,2357C 386.32,2347 407.32,2343.17 429.5,2345.5C 430.153,2313.83 430.153,2282.16 429.5,2250.5C 406.283,2245.04 384.283,2236.54 363.5,2225C 353.815,2218.99 346.649,2210.82 342,2200.5C 341.146,2191.87 343.479,2184.21 349,2177.5C 371.365,2153.9 398.865,2142.24 431.5,2142.5C 432.031,2111.84 432.364,2081.17 432.5,2050.5C 406.523,2049 383.19,2040.5 362.5,2025C 343.497,2006.96 340.33,1986.46 353,1963.5C 369.069,1944.38 389.569,1932.88 414.5,1929C 418.813,1928.26 423.147,1927.76 427.5,1927.5C 427.833,1902.49 427.5,1877.49 426.5,1852.5C 398.666,1843.51 373.833,1829.51 352,1810.5C 337.255,1794.11 335.588,1776.44 347,1757.5C 362.289,1738.22 381.123,1723.38 403.5,1713C 412.274,1710.18 421.274,1708.68 430.5,1708.5C 419.433,1656.11 407.933,1603.78 396,1551.5C 366.873,1517.37 337.373,1483.54 307.5,1450C 587.172,1450.96 866.838,1452.8 1146.5,1455.5C 1124.29,1487.21 1102.29,1519.04 1080.5,1551C 1091.81,1568.46 1101.98,1586.62 1111,1605.5C 1116.3,1618.94 1112.8,1629.44 1100.5,1637C 1080.1,1647.75 1058.77,1656.25 1036.5,1662.5C 1034.73,1716.15 1034.06,1769.82 1034.5,1823.5C 1063.98,1820.93 1089.14,1829.93 1110,1850.5C 1115.23,1856.75 1119.23,1863.75 1122,1871.5C 1127.49,1893.36 1119.99,1908.86 1099.5,1918C 1084.2,1923.65 1068.37,1926.15 1052,1925.5C 1045.48,1925.35 1038.98,1925.02 1032.5,1924.5C 1032.17,1961.84 1032.5,1999.17 1033.5,2036.5C 1052.5,2045.33 1070.17,2056.16 1086.5,2069C 1096.2,2077.35 1102.53,2087.68 1105.5,2100C 1104.85,2105.28 1103.02,2110.11 1100,2114.5C 1091.09,2123.71 1080.59,2130.54 1068.5,2135C 1055.97,2139.13 1043.3,2142.63 1030.5,2145.5C 1030.5,2160.17 1030.5,2174.83 1030.5,2189.5 Z"/></g>
<g><path style="opacity:1" fill="#373737" d="M 1030.5,2189.5 C 1030.18,2206.58 1030.51,2223.58 1031.5,2240.5C 1030.17,2232.36 1029.5,2223.86 1029.5,2215C 1029.5,2206.33 1029.83,2197.83 1030.5,2189.5 Z"/></g>
</svg>
