<?xml version="1.0" encoding="UTF-8"?>
<svg version="1.1" xmlns="http://www.w3.org/2000/svg" width="1348" height="3976">
<path d="M0 0 C444.84 0 889.68 0 1348 0 C1348 1312.08 1348 2624.16 1348 3976 C903.16 3976 458.32 3976 0 3976 C0 2663.92 0 1351.84 0 0 Z M4 4 C4 300.34 4 596.68 4 902 C4.33 902 4.66 902 5 902 C5.11480713 901.23260498 5.22961426 900.46520996 5.34790039 899.67456055 C13.07345527 848.84893888 29.42040235 801.09889222 56 757 C56.53866699 756.09330566 57.07733398 755.18661133 57.63232422 754.25244141 C64.36331048 742.94222673 71.5070341 732.1579072 79.61083984 721.78613281 C80.9413359 720.07542822 82.24967262 718.35030683 83.55078125 716.6171875 C98.90818411 696.2259185 116.44022684 676.45619291 136 660 C136.90492188 659.2059375 137.80984375 658.411875 138.7421875 657.59375 C181.89160422 619.95188839 236.8385967 592.48999634 294 586 C294.72856201 585.9071875 295.45712402 585.814375 296.20776367 585.71875 C304.17920067 584.78690474 312.17214805 584.75641437 320.1875 584.75 C320.95221619 584.74932526 321.71693237 584.74865051 322.50482178 584.74795532 C394.82257254 584.84810286 475.0888083 601.78805437 531 650 C532.7484877 651.39772725 534.4985489 652.7934879 536.25 654.1875 C540.85245053 657.94178465 545.18487927 661.92457807 549.5 666 C555.46092923 671.62880636 561.53584388 676.94791682 568 682 C568.69351563 682.55042969 569.38703125 683.10085938 570.1015625 683.66796875 C588.45630348 697.89106485 609.28441237 703.04205653 632.23925781 700.29052734 C683.97975105 693.36048351 732.69960836 669.5050923 779.15795898 646.85668945 C782.05066261 645.45297639 784.95338175 644.07150938 787.85961914 642.69604492 C798.91766255 637.45522723 809.89961871 632.0790283 820.82421875 626.56640625 C822.12785014 625.90938709 823.43150017 625.25240493 824.73516846 624.59545898 C830.04681112 621.91759413 835.35775198 619.23840891 840.66186523 616.5456543 C890.10087637 591.46011217 890.10087637 591.46011217 916 585 C917.91425781 584.49533203 917.91425781 584.49533203 919.8671875 583.98046875 C975.67316981 571.27619627 1034.92314753 603.30733215 1084.29464722 625.7855835 C1085.85640813 626.49662102 1087.41897536 627.20589093 1088.98245239 627.91314697 C1103.06169121 634.29642231 1116.70883994 641.33677625 1129.375 650.25 C1130.16334229 650.79664307 1130.95168457 651.34328613 1131.76391602 651.90649414 C1137.94867963 656.2134652 1144.06178307 660.61968799 1150.1574707 665.05151367 C1155.75104287 669.11552204 1161.39343102 673.10458159 1167.0625 677.0625 C1167.90071289 677.64821777 1168.73892578 678.23393555 1169.60253906 678.83740234 C1172.82098714 681.08531647 1176.04013831 683.33219808 1179.26269531 685.57421875 C1193.66180854 695.59883628 1207.7080001 705.99059718 1221.0078125 717.4453125 C1223.87918941 719.89685362 1226.80278357 722.26559405 1229.75 724.625 C1234.84604949 728.77018312 1239.43778204 733.28283878 1244 738 C1246.88109355 740.90092897 1249.78790875 743.77418549 1252.70703125 746.63671875 C1259.95888055 753.77437953 1266.85988842 760.86505954 1273 769 C1273.58007812 769.68964844 1274.16015625 770.37929688 1274.7578125 771.08984375 C1320.66355409 825.73496292 1340.1746729 904.04879797 1343 974 C1343.33 974 1343.66 974 1344 974 C1344 653.9 1344 333.8 1344 4 C901.8 4 459.6 4 4 4 Z M4 978 C4 1966.02 4 2954.04 4 3972 C446.2 3972 888.4 3972 1344 3972 C1344 2993.55 1344 2015.1 1344 1007 C1343.67 1007 1343.34 1007 1343 1007 C1342.94839722 1008.07254028 1342.94839722 1008.07254028 1342.89575195 1009.16674805 C1338.44901014 1096.56418368 1311.57748449 1179.56897592 1230.08203125 1363.55078125 C1222.79937973 1379.17659711 1215.5345085 1394.80223676 1208.6875 1410.625 C1207.94246216 1412.34601929 1207.94246216 1412.34601929 1207.18237305 1414.10180664 C1206.24212679 1416.29399103 1205.31569387 1418.49215643 1204.40380859 1420.69628906 C1203.44475002 1422.95332916 1202.42338204 1425.18463506 1201.35009766 1427.38964844 C1198.13662729 1434.37429101 1196.58026752 1440.24782744 1196.37232971 1447.86408997 C1196.33874471 1448.79206668 1196.30515971 1449.72004339 1196.27055699 1450.67614061 C1195.73240093 1467.15246078 1195.59317213 1483.64458118 1195.37667644 1500.12745917 C1195.3062783 1505.42867628 1195.23181135 1510.7298366 1195.15791321 1516.03100586 C1195.01396135 1526.40576749 1194.87383902 1536.78057736 1194.73520844 1547.15541133 C1194.62192356 1555.63054247 1194.50740054 1564.10565604 1194.39203072 1572.58075905 C1194.35859167 1575.0378527 1194.32515269 1577.49494636 1194.29171377 1579.95204002 C1194.27505703 1581.17595385 1194.25840028 1582.39986768 1194.24123878 1583.66086981 C1193.92675564 1606.7827309 1193.61689809 1629.9046523 1193.30842281 1653.0265942 C1193.02887403 1673.96923683 1192.74340273 1694.91179364 1192.45503204 1715.8543165 C1192.15687342 1737.51204397 1191.8630423 1759.16982656 1191.5735274 1780.82767135 C1191.41176385 1792.92323843 1191.24845279 1805.01877914 1191.08061028 1817.11426353 C1190.46018822 1861.90986036 1189.88265248 1906.70243056 1189.87478788 1951.50301208 C1189.87428025 1954.07804258 1189.87275443 1956.6530711 1189.87116992 1959.22810113 C1189.8601163 1988.40957616 1190.52698722 2017.53543874 1191.61502838 2046.69785309 C1191.82811458 2052.50314218 1192.02597211 2058.30894093 1192.22383904 2064.11476588 C1192.59341469 2074.95656856 1192.97054607 2085.79808484 1193.35457969 2096.63938451 C1195.046545 2144.42141347 1196.58166741 2192.20910267 1198 2240 C1198.04789421 2241.60274529 1198.04789421 2241.60274529 1198.09675598 2243.23786926 C1199.84423567 2301.78258264 1200.17932087 2360.30944341 1200.18704796 2418.87599373 C1200.18749607 2421.53915041 1200.18834131 2424.20230671 1200.18928528 2426.86546326 C1200.20189458 2466.49008396 1200.12248726 2506.09799104 1199.06033707 2545.71136093 C1198.97106441 2549.09755273 1198.89157876 2552.48394499 1198.8112793 2555.87036133 C1198.65360749 2562.28963925 1198.46423399 2568.70736958 1198.25 2575.125 C1198.21153961 2576.27928497 1198.17307922 2577.43356995 1198.13345337 2578.62283325 C1194.90420858 2672.71231151 1188.30836624 2767.10307436 1173 2866 C1172.77213806 2867.45324677 1172.77213806 2867.45324677 1172.53967285 2868.93585205 C1159.62492026 2950.88937602 1140.76879395 3031.96169805 1107 3108 C1106.5762207 3108.9595459 1106.15244141 3109.9190918 1105.71582031 3110.90771484 C1095.08286362 3134.78880982 1081.44587339 3157.32518079 1065.80078125 3178.2421875 C1065.36822021 3178.82718018 1064.93565918 3179.41217285 1064.48999023 3180.01489258 C1063.38204331 3181.49100539 1062.25001487 3182.94910478 1061.10571289 3184.3972168 C1056.08017509 3190.93741496 1052.67992352 3197.53367661 1049.5852356 3205.1640625 C1048.23520579 3208.480782 1046.82706199 3211.77276098 1045.421875 3215.06640625 C1045.13756119 3215.73447296 1044.85324738 3216.40253967 1044.56031799 3217.09085083 C1034.76926922 3239.96648295 1022.8724456 3261.768477 1007 3281 C1005.86498047 3282.3921875 1005.86498047 3282.3921875 1004.70703125 3283.8125 C992.27970536 3298.16157731 976.27386556 3308.52853331 957.0078125 3309.91796875 C950.20111982 3310.17567206 943.67078035 3309.27997714 937 3308 C935.88496094 3307.78730469 934.76992188 3307.57460937 933.62109375 3307.35546875 C917.4418686 3303.47780322 902.13249682 3293.97190879 889 3284 C888.44296387 3283.57750977 887.88592773 3283.15501953 887.31201172 3282.71972656 C876.71947294 3274.64332133 865.95443795 3266.34208622 856.7182312 3256.71922302 C854.97022454 3254.97020735 853.15541937 3253.35563781 851.28173828 3251.74243164 C835.56866939 3238.07654321 821.03746599 3223.12188783 806.41308594 3208.31713867 C792.86319844 3194.42774965 792.86319844 3194.42774965 778 3182 C777.38898437 3181.5352124 776.77796875 3181.0704248 776.1484375 3180.59155273 C774.59711503 3179.43104066 773.01808151 3178.30783556 771.4375 3177.1875 C770.86652588 3176.78208984 770.29555176 3176.37667969 769.70727539 3175.95898438 C764.85108292 3172.53732604 759.89621712 3169.27036594 754.9375 3166 C735.97379164 3153.46144944 718.60594031 3138.56876361 703.89453125 3121.17578125 C701.76837859 3118.73399356 699.56253739 3116.37930845 697.34594727 3114.01977539 C692.13029982 3108.46672758 687.12549449 3102.83957707 682.359375 3096.890625 C679.5628883 3093.4644658 676.66210446 3090.14031263 673.75 3086.8125 C663.37120512 3074.9121108 653.51877487 3062.59713166 644 3050 C643.44586426 3049.26797363 642.89172852 3048.53594727 642.32080078 3047.78173828 C623.71883994 3023.18075755 605.87159679 2998.09141311 589.3125 2972.06005859 C587.93391287 2969.89627173 586.54522342 2967.73916327 585.15625 2965.58203125 C577.65612801 2953.88010106 570.60434211 2941.93893116 563.66992188 2929.89453125 C562.14855359 2927.25749288 560.61552572 2924.62771097 559.078125 2922 C538.58776934 2886.7973496 520.48890864 2850.22567016 504 2813 C503.69320313 2812.30861938 503.38640625 2811.61723877 503.0703125 2810.90490723 C486.92480352 2774.481306 472.6245295 2737.26908023 459.85687256 2699.53161621 C459.27136469 2697.80174262 458.68442605 2696.07235282 458.09625244 2694.34338379 C428.21233826 2606.49088849 406.68874321 2516.22022189 390 2425 C389.80768799 2423.95312012 389.61537598 2422.90624023 389.41723633 2421.82763672 C373.75940109 2336.51588611 362.18376358 2250.55366956 331.4372741 1965.81894839 C323.48026622 1888.50984446 315.48270737 1811.21488156 305.64509583 1734.11790085 C305.38805812 1732.10239255 305.13216967 1730.08673778 304.87634277 1728.07107544 C303.94949646 1720.80341687 302.98865164 1713.54102139 301.99030113 1706.28286839 C301.38935283 1701.90278262 300.80583208 1697.52092839 300.23944092 1693.13623047 C295.70564455 1658.15517525 289.01269956 1624.09028276 280.7840271 1589.80067062 C279.38523489 1583.95227684 278.00771361 1578.09890448 276.63058138 1572.24538267 C275.8486455 1568.92177753 275.06588998 1565.59836562 274.28289795 1562.27500916 C274.12752933 1561.61552656 273.97216072 1560.95604397 273.81208396 1560.27657706 C272.71662498 1555.62913963 271.61621265 1550.98289197 270.51348877 1546.33717346 C266.67353646 1530.154894 262.89863441 1513.95888839 259.19812393 1497.74409103 C258.42470539 1494.35522736 257.64982705 1490.96670079 256.8744812 1487.57827759 C252.8799027 1470.11686813 252.8799027 1470.11686813 251.10540771 1462.2902832 C250.02050613 1457.50689901 248.92592242 1452.72583135 247.82401657 1447.94633675 C247.42728903 1446.21740384 247.03415471 1444.4876416 246.64500809 1442.75698662 C244.09693867 1431.43229716 241.0670571 1422.32257763 233.9375 1413 C230.02980192 1407.7822864 226.23294511 1402.51239482 222.5625 1397.125 C218.81564329 1391.63405483 215.02890114 1386.17527542 211.1875 1380.75 C206.81605344 1374.57448697 202.46188163 1368.38734466 198.125 1362.1875 C197.54000732 1361.3512207 196.95501465 1360.51494141 196.35229492 1359.65332031 C195.16218593 1357.95172045 193.97216345 1356.25006007 192.78222656 1354.54833984 C190.43840969 1351.19700278 188.09319437 1347.84664622 185.74755859 1344.49658203 C184.57548486 1342.82214419 183.40394152 1341.14733497 182.23291016 1339.47216797 C179.42680985 1335.4591261 176.61426243 1331.45112854 173.78125 1327.45703125 C165.22065834 1315.35629698 156.98484045 1303.05100473 148.81445312 1290.68481445 C144.31127984 1283.88136369 139.72302003 1277.19144306 134.88134766 1270.62182617 C131.5188891 1265.93593953 128.45643392 1261.06086103 125.375 1256.1875 C124.6847876 1255.10146484 123.9945752 1254.01542969 123.28344727 1252.89648438 C121.86724694 1250.66794414 120.45228083 1248.43861909 119.03857422 1246.20849609 C117.16135818 1243.25396039 115.2730989 1240.30695193 113.37890625 1237.36328125 C63.15866109 1159.20200905 15.25899055 1071.88169255 5 978 C4.67 978 4.34 978 4 978 Z " fill="#FDFDFD" transform="translate(0,0)"/>
<path d="M0 0 C293.04 0 586.08 0 888 0 C887.67 27.72 887.34 55.44 887 84 C886.9071875 91.90453125 886.814375 99.8090625 886.71875 107.953125 C886.37151339 137.24055348 886.01419295 166.52744223 885.5 195.8125 C885.48203369 196.86223999 885.46406738 197.91197998 885.44555664 198.99353027 C885.27615387 208.76619644 885.08037099 218.53716451 884.78344727 228.30688477 C882.34777817 308.59781993 881.72737093 389.01157392 886.55932617 680.17138672 C886.60482227 681.23336147 886.65031837 682.29533623 886.69719315 683.38949203 C886.90977148 688.33411667 887.12533584 693.27857505 887.34750366 698.22277832 C887.97987493 712.45739123 888.37884638 726.69285465 888.65762329 740.93859863 C888.8188694 748.93373647 889.07293678 756.9116702 889.48193359 764.89819336 C889.9748921 774.92887583 890.30304683 784.95629599 890.53515625 794.99609375 C890.55638739 795.90031696 890.57761852 796.80454018 890.59949303 797.73616409 C890.76729499 804.96967768 890.91830887 812.20348027 891.0625 819.4375 C891.08457016 820.53946087 891.10664032 821.64142174 891.12937927 822.77677536 C892.1082517 872.40163014 892.22416301 922.0292689 892.24494404 971.66237158 C892.24765045 977.86024767 892.25315039 984.05811154 892.26139778 990.2559827 C892.35053965 1057.61448235 891.81644122 1124.94725459 887.9040947 1192.21118546 C887.74354884 1194.9865204 887.58721587 1197.7620697 887.43167114 1200.53768921 C885.45644988 1235.64584221 882.73143068 1270.66352908 879.32489014 1305.66082764 C879.02720869 1308.72035313 878.73377046 1311.78024825 878.44189453 1314.84033203 C877.41216361 1325.5746199 876.26234948 1336.29066505 875 1347 C874.84978394 1348.28423859 874.84978394 1348.28423859 874.6965332 1349.59442139 C866.89353038 1416.13901363 857.71015919 1485.86728067 836.98510742 1549.87329102 C836.00025342 1552.99919566 835.10821754 1556.13934206 834.23046875 1559.296875 C831.85339191 1567.64725948 829.18438336 1575.88974093 826.4375 1584.125 C826.04741257 1585.29536804 826.04741257 1585.29536804 825.64944458 1586.48937988 C794.30364145 1680.20415216 794.30364145 1680.20415216 764 1710 C764.60992045 1697.38910615 765.7140662 1684.85139021 766.94379234 1672.28721046 C769.69661436 1644.07781672 772.09444523 1615.84317064 774.38129807 1587.59269714 C774.69368379 1583.73615843 775.00742082 1579.87973126 775.32131958 1576.02331543 C779.40440582 1525.78928695 783.10016301 1475.52862984 786.68823242 1425.25708008 C786.73825527 1424.55628739 786.78827812 1423.85549471 786.83981681 1423.13346589 C787.27968898 1416.97027019 787.71948136 1410.80706894 788.15737152 1404.64373207 C789.20347312 1389.92468771 790.27733319 1375.20906948 791.44047928 1360.498806 C793.02502203 1340.44956239 794.24751633 1320.38422341 795.40722656 1300.30639648 C795.66687202 1295.82261336 795.93021378 1291.33904759 796.19335938 1286.85546875 C796.50282304 1281.57907398 796.81210203 1276.30266898 797.12002563 1271.02618408 C797.72617388 1260.64180957 798.33721393 1250.25775091 798.96323967 1239.87455368 C799.08434518 1237.86469159 799.20473389 1235.85478635 799.3250885 1233.84487915 C799.82694646 1225.55883904 800.39570693 1217.27915951 801 1209 C801.87262279 1196.7592293 802.48784671 1184.51456874 803.05963135 1172.2567749 C803.66956189 1159.22208964 804.39145075 1146.19836621 805.18899536 1133.17388916 C806.63585572 1109.45772335 807.85418337 1085.732313 809 1062 C809.06358011 1060.68351723 809.06358011 1060.68351723 809.12844467 1059.34043884 C810.59637872 1028.88171341 811.88495388 998.41711154 813.04882812 967.9453125 C813.16116773 965.01300961 813.2738468 962.08071994 813.38671875 959.1484375 C813.41358639 958.44796232 813.44045403 957.74748714 813.46813583 957.02578545 C813.74627746 949.81187001 814.05228765 942.6065143 814.51953125 935.40234375 C815.2747473 923.45633777 815.53206841 911.48486001 815.875 899.52124023 C815.95604635 896.69466966 816.03925159 893.86817987 816.125 891.04174805 C816.44890618 880.36193509 816.73509757 869.68143428 817 859 C817.03380957 857.65765541 817.03380957 857.65765541 817.06830215 856.28819275 C818.03001089 817.87514374 818.18819779 779.47142308 818.18511117 741.04893023 C818.18541704 735.45349805 818.19366766 729.85811342 818.20581055 724.26269531 C819.91115569 650.59278051 819.91115569 650.59278051 810.60131836 577.87207031 C810 575 810 575 810 572 C808.94087402 572.27263672 808.94087402 572.27263672 807.86035156 572.55078125 C804.65814514 573.37212982 801.45411736 574.18613953 798.25 575 C797.13882813 575.28617188 796.02765625 575.57234375 794.8828125 575.8671875 C793.81289062 576.13789062 792.74296875 576.40859375 791.640625 576.6875 C790.65610352 576.93886719 789.67158203 577.19023438 788.65722656 577.44921875 C786 578 786 578 782 578 C782.18175781 578.83015625 782.36351562 579.6603125 782.55078125 580.515625 C792.06866318 627.17765129 790.31599032 675.96071817 790.20059639 723.33241767 C790.18903761 728.30283704 790.18485336 733.27322022 790.18530273 738.24365234 C790.18907499 785.86168597 789.83542002 833.47456826 788 881.0625 C787.82023681 885.92047661 787.64414698 890.77858274 787.46875 895.63671875 C787.40548523 897.37432465 787.40548523 897.37432465 787.34094238 899.14703369 C787.04156482 907.48997756 786.80623228 915.8327164 786.62304688 924.17895508 C786.58268515 925.91098541 786.54155447 927.64299787 786.5 929.375 C786.46975235 930.66977264 786.4395047 931.96454529 786.40834045 933.29855347 C786.17309246 942.76080632 785.75714254 952.19812458 785.18979073 961.64590836 C784.40935705 974.71991122 783.75720461 987.79528162 783.25390625 1000.8828125 C783.22549967 1001.62042564 783.19709309 1002.35803879 783.1678257 1003.11800385 C783.0229367 1006.89734903 782.88019247 1010.67677173 782.73849487 1014.45623779 C781.54289893 1046.28556552 780.07020782 1078.09083874 778.33203125 1109.89550781 C778.02537895 1115.51063748 777.72965742 1121.12628768 777.4375 1126.7421875 C776.67840022 1141.26330914 775.83065694 1155.77166202 774.81567383 1170.27758789 C774.00753448 1182.18785804 773.41554618 1194.10775222 772.81072998 1206.02981567 C771.58636293 1230.14196044 770.09403419 1254.22424813 768.41503906 1278.30883789 C767.41838273 1292.63301539 766.51169637 1306.95571274 765.76147461 1321.29483032 C765.23206787 1331.38191951 764.53823168 1341.44355033 763.68139648 1351.50830078 C763.06845157 1358.79123982 762.63681565 1366.07036101 762.34155273 1373.37304688 C762.18846381 1376.98453599 761.96057115 1380.55209527 761.52514648 1384.14135742 C760.95898549 1389.1246583 760.63852471 1394.10718044 760.3515625 1399.11328125 C760.23187155 1401.10742792 760.11207592 1403.10156831 759.9921875 1405.09570312 C759.81089338 1408.15396221 759.6308227 1411.21228175 759.453125 1414.27075195 C758.64006196 1428.18868186 757.60930856 1442.07945562 756.42795372 1455.97022438 C755.32321218 1468.96507956 754.29600409 1481.96446968 753.30859375 1494.96875 C753.0056892 1498.94760919 752.70245645 1502.92644335 752.39916992 1506.90527344 C752.32159549 1507.92313966 752.24402105 1508.94100588 752.16409588 1509.98971653 C748.98584874 1551.65743118 745.60128182 1593.30515082 742.01536942 1634.93978882 C741.69053381 1638.71474372 741.36696698 1642.48980557 741.04367065 1646.26489258 C735.18070833 1714.64371256 735.18070833 1714.64371256 731.125 1736.0625 C730.99583191 1736.75502869 730.86666382 1737.44755737 730.73358154 1738.16107178 C728.71475434 1748.95556067 726.40653042 1759.55134112 723 1770 C722.71930664 1770.88800293 722.43861328 1771.77600586 722.14941406 1772.69091797 C715.57533209 1793.34188341 707.35152231 1817.17482432 686.9375 1827.875 C678.6407485 1831.39173006 669.88256722 1831.25701075 661.375 1828.4375 C639.17980881 1819.1487636 620.01786473 1800.42819696 605.1953125 1781.75390625 C602.94075487 1778.92568004 600.60123891 1776.18565223 598.25 1773.4375 C571.46374891 1741.22826556 549.83158715 1703.76184197 530 1667 C529.65130859 1666.35375671 529.30261719 1665.70751343 528.94335938 1665.04168701 C513.2648465 1635.94794749 498.28479394 1606.54228739 484.58007812 1576.46337891 C483.02659457 1573.05829274 481.45935007 1569.65980499 479.890625 1566.26171875 C446.46675105 1493.47737036 417.16094316 1418.60074571 374.04901123 1297.03955078 C373.06137571 1294.17783849 372.07068406 1291.31720852 371.07861328 1288.45703125 C361.68047905 1261.34979685 352.75336759 1234.09082016 343.87756348 1206.80870056 C341.99936194 1201.04127413 340.09654546 1195.28327479 338.16015625 1189.53515625 C336.27933124 1183.91691148 334.57826844 1178.27228431 333 1172.5625 C329.95565063 1161.75068289 326.65367294 1151.0407252 323.15625 1140.3671875 C319.26103558 1128.42503011 315.69621407 1116.46071502 312.50439453 1104.31103516 C310.83211073 1097.97963321 309.03099746 1091.72519944 307 1085.5 C303.55490299 1074.90314316 300.74127829 1064.14636255 297.89550781 1053.37597656 C296.71891694 1048.94034444 295.52037078 1044.5107822 294.32177734 1040.08105469 C291.54918019 1029.83270274 288.84126708 1019.5699617 286.19018555 1009.28955078 C284.86397098 1004.18482639 283.46118579 999.11559314 281.95507812 994.0612793 C277.98342489 980.68995504 274.86036972 967.11660793 271.69042969 953.5378418 C269.70687362 945.05908586 267.66654973 936.60811885 265.41796875 928.1953125 C263.18769324 919.84058032 261.21721344 911.4484674 259.375 903 C259.0411481 901.47913758 258.70715838 899.95830541 258.37304688 898.4375 C257.64280194 895.10865854 256.91581795 891.77912166 256.19042969 888.44921875 C255.36392958 884.65877196 254.53046474 880.86993394 253.69238281 877.08203125 C247.14699926 847.49205799 241.12847221 817.86911597 236 788 C235.85798157 787.17437561 235.71596313 786.34875122 235.56964111 785.49810791 C233.76779861 775.00743223 232.01784075 764.508892 230.32287598 754.00042725 C230.00266537 752.01651372 229.68063465 750.0329018 229.35839844 748.04931641 C228.77316191 744.42984642 228.19680648 740.80911337 227.625 737.1875 C227.45709961 736.14384277 227.28919922 735.10018555 227.11621094 734.02490234 C226.33015894 728.94951907 225.81375712 724.13600561 226 719 C225.3702124 719.09087891 224.7404248 719.18175781 224.09155273 719.27539062 C221.20756554 719.68863762 218.32256837 720.09437291 215.4375 720.5 C213.9515332 720.71462891 213.9515332 720.71462891 212.43554688 720.93359375 C210.98051758 721.13662109 210.98051758 721.13662109 209.49609375 721.34375 C208.61107178 721.46943359 207.7260498 721.59511719 206.81420898 721.72460938 C203.53022376 722.04597099 200.29755641 722.04284859 197 722 C204.13162902 771.99146827 211.79262873 822.11776709 223.6484375 871.23828125 C225.22922821 877.83253484 226.54059866 884.47736794 227.875 891.125 C230.27920727 903.01874068 233.10746011 914.76602973 236.10229492 926.52075195 C238.0737802 934.26246388 239.95763478 942.01306725 241.6875 949.8125 C243.33408095 957.22313617 245.15402978 964.56430344 247.12792969 971.89428711 C248.68248279 977.69597144 250.07968802 983.52446754 251.4375 989.375 C253.28641319 997.30120411 255.41399313 1005.11026955 257.70117188 1012.92016602 C259.6163484 1019.5130272 261.31000112 1026.14331608 262.9375 1032.8125 C265.16313452 1041.90123783 267.65400474 1050.87946209 270.32177734 1059.84765625 C272.53164721 1067.30369166 274.57354709 1074.79477403 276.5625 1082.3125 C278.74393735 1090.5373938 281.09327798 1098.66268231 283.73510742 1106.75048828 C285.85761475 1113.33536284 287.62345432 1119.99567209 289.375 1126.6875 C291.93639785 1136.44111996 294.89394726 1145.98319918 298.15966797 1155.5222168 C300.13189891 1161.3080348 301.93165566 1167.09236833 303.5 1173 C305.67950239 1181.19692664 308.32714186 1189.21190814 311.05859375 1197.24023438 C312.70925962 1202.09649337 314.30671612 1206.95836306 315.79223633 1211.86791992 C318.16911887 1219.61986784 320.72157147 1227.30982535 323.2890625 1235 C323.79756197 1236.52617551 324.30597255 1238.05238064 324.81430054 1239.57861328 C325.87734298 1242.76920568 326.94145385 1245.95943912 328.00634766 1249.14941406 C329.33940498 1253.14296726 330.66979891 1257.13740148 331.9994278 1261.13209724 C338.2106373 1279.78868901 344.50820413 1298.41139151 350.95599365 1316.9876709 C352.14966733 1320.43184341 353.33394817 1323.87917172 354.51675415 1327.3270874 C384.8904942 1415.77595314 419.32208157 1503.30171302 459 1588 C459.63950971 1589.36864112 460.27899371 1590.73729424 460.91845703 1592.10595703 C476.31497137 1625.02689124 492.17163151 1657.65982129 510.00508118 1689.33930969 C511.41100952 1691.83933751 512.81268148 1694.34174156 514.21426392 1696.84420776 C515.23004572 1698.65198751 516.25369827 1700.45513779 517.27807617 1702.25805664 C517.89271729 1703.35239014 518.5073584 1704.44672363 519.140625 1705.57421875 C519.69266602 1706.54963623 520.24470703 1707.52505371 520.81347656 1708.5300293 C522 1711 522 1711 522 1714 C521.08863281 1713.29617188 520.17726563 1712.59234375 519.23828125 1711.8671875 C511.42239176 1705.89039117 503.46723034 1700.22602255 495.25 1694.8125 C478.13694357 1683.50943186 462.62503565 1671.08708998 449.20703125 1655.48828125 C446.84480485 1652.82502777 444.41528631 1650.23577891 441.97265625 1647.64648438 C436.53028255 1641.87618752 431.27902303 1636.05584306 426.32421875 1629.85546875 C423.54267347 1626.4381417 420.65163481 1623.12779939 417.75 1619.8125 C407.37110287 1607.9122166 397.51876436 1595.59711776 388 1583 C387.44586426 1582.26797363 386.89172852 1581.53594727 386.32080078 1580.78173828 C384.43993948 1578.29431058 382.56304144 1575.80394102 380.6875 1573.3125 C380.1198291 1572.56000977 379.5521582 1571.80751953 378.96728516 1571.03222656 C367.89981632 1556.28171438 357.31805763 1541.2411297 347.125 1525.875 C346.56106537 1525.02660553 345.99713074 1524.17821106 345.41610718 1523.30410767 C326.77371573 1495.24432059 309.51608507 1466.53186263 293.54638672 1436.86181641 C291.8981448 1433.81150195 290.23320013 1430.77068219 288.56640625 1427.73046875 C281.13676038 1414.13227508 274.15803671 1400.39207698 267.58349609 1386.36132812 C266.21582445 1383.45813613 264.8319412 1380.56342881 263.43882751 1377.67237854 C247.9580163 1345.52254354 234.1951255 1312.53247932 222 1279 C221.73678955 1278.27786316 221.4735791 1277.55572632 221.20239258 1276.81170654 C216.73943266 1264.56318106 212.34380049 1252.2912691 208 1240 C207.73300293 1239.24475037 207.46600586 1238.48950073 207.19091797 1237.71136475 C201.50877614 1221.618853 196.05912813 1205.52564903 191.5703125 1189.05126953 C190.7954765 1186.2643808 189.93454473 1183.50784146 189.0625 1180.75 C186.78140872 1173.4429358 184.7551552 1166.06531943 182.70507812 1158.69091797 C181.09366696 1152.89616711 179.45888489 1147.11007431 177.77685547 1141.33544922 C171.88189067 1121.03146587 166.61372058 1100.54034004 162.16601562 1079.87060547 C160.94325052 1074.18991955 159.6552082 1068.53096524 158.29086304 1062.88285828 C155.17915873 1049.99229213 152.38112654 1037.04635049 149.6875 1024.0625 C149.45011108 1022.92125671 149.21272217 1021.78001343 148.96813965 1020.60418701 C144.66538157 999.85327914 140.8995162 979.03809312 137.38601685 958.14105225 C135.88259697 949.22831218 134.26631677 940.33710012 132.64453125 931.44528198 C128.41579865 908.24174958 128.41579865 908.24174958 126.97338867 896.88452148 C126.3517406 892.05565813 125.49751392 887.2911185 124.57421875 882.51171875 C122.93297464 873.96210909 121.71939087 865.37642239 120.5625 856.75 C120.23683633 854.35425781 119.90980373 851.9587052 119.58261108 849.56317139 C119.36426059 847.96431304 119.14634158 846.36539571 118.92886353 844.76641846 C118.14495427 839.01455086 117.32018487 833.26938595 116.47875977 827.52563477 C113.95384251 810.25035951 111.81483344 792.92989872 109.68847656 775.60205078 C109.09610347 770.77602736 108.49854096 765.95065981 107.89988708 761.12541199 C103.16028513 722.90678794 98.72642302 684.67012084 94.86816406 646.35205078 C93.63090568 634.07946797 92.33910679 621.8147781 90.98361206 609.55471802 C88.50369272 587.11225309 86.20911211 564.65181384 83.9375 542.1875 C83.84994446 541.3219902 83.76238892 540.45648041 83.67218018 539.56474304 C81.55286657 518.60992582 79.46339183 497.65276787 77.4538269 476.68710327 C76.48883998 466.64308443 75.39645432 456.62464301 74.13671875 446.61279297 C73.07671323 438.03266848 72.24844609 429.43648019 71.4324646 420.83056641 C66.44022315 368.24006726 60.49756711 315.60280327 52.77978516 263.33959961 C50.89838229 250.570308 49.27737775 237.77041781 47.69873047 224.96044922 C46.82789132 217.95955113 45.91826294 211.01381562 44.43139648 204.11108398 C43.86750208 201.35160753 43.51907211 198.58352057 43.16479492 195.79077148 C41.3047731 181.48881768 37.80426501 167.51610946 34.51356506 153.49295044 C32.93036919 146.73705199 31.42541548 139.96499302 29.9375 133.1875 C27.61997254 122.68539601 25.20133549 112.2091173 22.74145508 101.73950195 C21.16631779 95.02728378 19.6107335 88.31155244 18.09375 81.5859375 C14.12337691 64.00191533 9.94353838 46.48716265 5.51177979 29.01333618 C4.66745217 25.67729642 3.83243489 22.33903105 3 19 C2.69400879 17.77506836 2.38801758 16.55013672 2.07275391 15.28808594 C1.79737793 14.14887695 1.52200195 13.00966797 1.23828125 11.8359375 C0.87730347 10.35552979 0.87730347 10.35552979 0.5090332 8.84521484 C0 6 0 6 0 0 Z " fill="#FDFDFD" transform="translate(279,1449)"/>
<path d="M0 0 C444.84 0 889.68 0 1348 0 C1348 1312.08 1348 2624.16 1348 3976 C903.16 3976 458.32 3976 0 3976 C0 2663.92 0 1351.84 0 0 Z M4 4 C4 300.34 4 596.68 4 902 C4.33 902 4.66 902 5 902 C5.11480713 901.23260498 5.22961426 900.46520996 5.34790039 899.67456055 C13.07345527 848.84893888 29.42040235 801.09889222 56 757 C56.53866699 756.09330566 57.07733398 755.18661133 57.63232422 754.25244141 C64.36331048 742.94222673 71.5070341 732.1579072 79.61083984 721.78613281 C80.9413359 720.07542822 82.24967262 718.35030683 83.55078125 716.6171875 C98.90818411 696.2259185 116.44022684 676.45619291 136 660 C136.90492188 659.2059375 137.80984375 658.411875 138.7421875 657.59375 C181.89160422 619.95188839 236.8385967 592.48999634 294 586 C294.72856201 585.9071875 295.45712402 585.814375 296.20776367 585.71875 C304.17920067 584.78690474 312.17214805 584.75641437 320.1875 584.75 C320.95221619 584.74932526 321.71693237 584.74865051 322.50482178 584.74795532 C394.82257254 584.84810286 475.0888083 601.78805437 531 650 C532.7484877 651.39772725 534.4985489 652.7934879 536.25 654.1875 C540.85245053 657.94178465 545.18487927 661.92457807 549.5 666 C555.46092923 671.62880636 561.53584388 676.94791682 568 682 C568.69351563 682.55042969 569.38703125 683.10085938 570.1015625 683.66796875 C588.45630348 697.89106485 609.28441237 703.04205653 632.23925781 700.29052734 C683.97975105 693.36048351 732.69960836 669.5050923 779.15795898 646.85668945 C782.05066261 645.45297639 784.95338175 644.07150938 787.85961914 642.69604492 C798.91766255 637.45522723 809.89961871 632.0790283 820.82421875 626.56640625 C822.12785014 625.90938709 823.43150017 625.25240493 824.73516846 624.59545898 C830.04681112 621.91759413 835.35775198 619.23840891 840.66186523 616.5456543 C890.10087637 591.46011217 890.10087637 591.46011217 916 585 C917.91425781 584.49533203 917.91425781 584.49533203 919.8671875 583.98046875 C975.67316981 571.27619627 1034.92314753 603.30733215 1084.29464722 625.7855835 C1085.85640813 626.49662102 1087.41897536 627.20589093 1088.98245239 627.91314697 C1103.06169121 634.29642231 1116.70883994 641.33677625 1129.375 650.25 C1130.16334229 650.79664307 1130.95168457 651.34328613 1131.76391602 651.90649414 C1137.94867963 656.2134652 1144.06178307 660.61968799 1150.1574707 665.05151367 C1155.75104287 669.11552204 1161.39343102 673.10458159 1167.0625 677.0625 C1167.90071289 677.64821777 1168.73892578 678.23393555 1169.60253906 678.83740234 C1172.82098714 681.08531647 1176.04013831 683.33219808 1179.26269531 685.57421875 C1193.66180854 695.59883628 1207.7080001 705.99059718 1221.0078125 717.4453125 C1223.87918941 719.89685362 1226.80278357 722.26559405 1229.75 724.625 C1234.84604949 728.77018312 1239.43778204 733.28283878 1244 738 C1246.88109355 740.90092897 1249.78790875 743.77418549 1252.70703125 746.63671875 C1259.95888055 753.77437953 1266.85988842 760.86505954 1273 769 C1273.58007812 769.68964844 1274.16015625 770.37929688 1274.7578125 771.08984375 C1320.66355409 825.73496292 1340.1746729 904.04879797 1343 974 C1343.33 974 1343.66 974 1344 974 C1344 653.9 1344 333.8 1344 4 C901.8 4 459.6 4 4 4 Z M922 614 C921.07985107 614.21076172 921.07985107 614.21076172 920.14111328 614.42578125 C885.02207747 622.68316028 851.23953499 642.69708898 819.60742188 659.54980469 C811.00269726 664.10683598 802.20213532 668.24681263 793.39453125 672.39404297 C790.36279581 673.82836084 787.33795825 675.27586358 784.31529236 676.72912598 C732.58236286 701.5852112 676.95743686 727.3776602 619 731 C619 800.96 619 870.92 619 943 C609.43 943 599.86 943 590 943 C590.00523682 939.72022217 590.01047363 936.44044434 590.01586914 933.0612793 C590.03903257 917.60335913 590.05316027 902.1454339 590.0625 886.6875 C590.0629343 885.98940279 590.06336861 885.29130558 590.06381607 884.57205391 C590.08778927 844.96198987 589.98265061 805.3577873 589.5 765.75 C589.48804218 764.76798489 589.47608437 763.78596977 589.46376419 762.77419662 C589.32153398 751.18262162 589.16793799 739.59123128 589 728 C587.79126221 727.47833252 586.58252441 726.95666504 585.3371582 726.41918945 C583.72073205 725.71335981 582.10444724 725.0072064 580.48828125 724.30078125 C579.69522583 723.95954224 578.90217041 723.61830322 578.08508301 723.26672363 C560.92263437 715.73316862 547.30130302 703.0710463 533.6953125 690.484375 C530.18835357 687.25187373 526.61725855 684.10796944 523 681 C522.05898438 680.18015625 521.11796875 679.3603125 520.1484375 678.515625 C492.08121369 654.23632128 460.54364343 638.41208074 425 628 C424.30277832 627.78778809 423.60555664 627.57557617 422.88720703 627.35693359 C354.37675422 606.63094657 277.95675209 607.21199978 214 641 C190.26785416 653.98705642 168.89234548 669.70039768 149 688 C147.31307911 689.50065124 145.62557038 691.00064193 143.9375 692.5 C136.45832916 699.24063203 129.53625145 706.34874095 123 714 C122.10761797 715.01767055 121.21431303 716.03453222 120.3203125 717.05078125 C102.9023487 736.95125901 87.82672862 758.87839319 75 782 C74.53916016 782.8259668 74.07832031 783.65193359 73.60351562 784.50292969 C60.3048914 808.55231089 49.36429939 834.4018329 42.375 861 C42.08882812 862.05960938 41.80265625 863.11921875 41.5078125 864.2109375 C31.64303793 901.24868203 28.29058868 940.93470335 34 979 C34.20133545 980.34940674 34.20133545 980.34940674 34.40673828 981.72607422 C37.2849341 1000.42000387 41.1096331 1019.01247464 47 1037 C47.56290237 1038.91654853 48.12538011 1040.83322182 48.6875 1042.75 C63.38627183 1090.13793235 85.973896 1135.55744837 111.28564453 1178.11083984 C112.95097972 1180.91738735 114.60102897 1183.73231363 116.24609375 1186.55078125 C128.68632398 1207.82796965 141.89731965 1228.56005397 155.64915466 1249.00765991 C158.18245163 1252.77586772 160.69940391 1256.55451215 163.20703125 1260.33984375 C170.53554193 1271.39845048 177.98602731 1282.35171892 185.62890625 1293.1953125 C189.00751477 1297.99459421 192.32129088 1302.83647159 195.625 1307.6875 C200.64753532 1315.05519387 205.75475231 1322.3576654 210.91015625 1329.6328125 C214.24982881 1334.34676085 217.56388173 1339.07846727 220.875 1343.8125 C221.46015381 1344.649021 222.04530762 1345.48554199 222.64819336 1346.34741211 C223.83814498 1348.04876407 225.02800466 1349.75018033 226.21777344 1351.45166016 C228.56236592 1354.80410623 230.90840328 1358.15553954 233.25463867 1361.50683594 C234.41903876 1363.17012502 235.58326378 1364.83353667 236.74731445 1366.49707031 C239.67349721 1370.67861529 242.60201624 1374.85848794 245.53515625 1379.03515625 C248.44544448 1383.18042874 251.34776254 1387.33117756 254.24462891 1391.48583984 C255.44241606 1393.20139091 256.64272184 1394.91518556 257.84521484 1396.62744141 C259.65396901 1399.2050471 261.45295736 1401.78922038 263.25 1404.375 C263.79922119 1405.15367432 264.34844238 1405.93234863 264.91430664 1406.73461914 C265.67602173 1407.83664673 265.67602173 1407.83664673 266.453125 1408.9609375 C266.89817383 1409.59821777 267.34322266 1410.23549805 267.80175781 1410.89208984 C269 1413 269 1413 271 1419 C568.66 1419 866.32 1419 1173 1419 C1177.0200003 1411.00997058 1177.0200003 1411.00997058 1180.6640625 1402.90234375 C1181.13610107 1401.79318604 1181.60813965 1400.68402832 1182.09448242 1399.54125977 C1182.59955322 1398.35201904 1183.10462402 1397.16277832 1183.625 1395.9375 C1188.93080744 1383.54464837 1194.49991125 1371.2843703 1200.1875 1359.0625 C1200.58835815 1358.20095306 1200.98921631 1357.33940613 1201.40222168 1356.45175171 C1203.44939728 1352.05371943 1205.49894165 1347.65679544 1207.54931641 1343.26025391 C1214.09133139 1329.2263409 1220.57879276 1315.16701347 1227.03820801 1301.09490967 C1227.64900896 1299.76450472 1228.2602091 1298.4342829 1228.87194824 1297.10430908 C1246.05174121 1259.75075029 1262.49896211 1221.8523024 1276 1183 C1276.25569763 1182.26517395 1276.51139526 1181.5303479 1276.77484131 1180.77325439 C1283.85628222 1160.37371218 1290.42741603 1139.86851192 1296 1119 C1296.30776367 1117.85128418 1296.61552734 1116.70256836 1296.93261719 1115.51904297 C1306.57160199 1079.18399839 1313.13327562 1041.56926486 1313.16796875 1003.88671875 C1313.17129715 1002.59288773 1313.17462555 1001.2990567 1313.17805481 999.96601868 C1313.18397963 997.24922856 1313.1859016 994.53246993 1313.18530273 991.81567383 C1313.18522148 989.06886205 1313.19217383 986.32221709 1313.20581055 983.57543945 C1313.27738703 968.92477427 1313.3174906 954.49856097 1311 940 C1310.85393311 938.97237549 1310.70786621 937.94475098 1310.55737305 936.88598633 C1302.76594606 883.00327069 1284.65662845 827.98875385 1249 786 C1248.25234375 785.06800781 1247.5046875 784.13601563 1246.734375 783.17578125 C1240.67540139 775.73543787 1234.09387732 768.91226189 1227.3125 762.125 C1225.97590332 760.78719482 1225.97590332 760.78719482 1224.61230469 759.42236328 C1219.56391817 754.41625019 1214.40907183 749.61250236 1209 745 C1208.03578125 744.154375 1207.0715625 743.30875 1206.078125 742.4375 C1196.42921241 734.12131014 1186.26134595 726.54008309 1176 719 C1174.83645996 718.14438477 1174.83645996 718.14438477 1173.64941406 717.27148438 C1164.61578326 710.64708126 1155.45835985 704.23407162 1146.18432617 697.95141602 C1140.43722834 694.0374087 1134.82643233 689.96527017 1129.25 685.8125 C1111.86164334 672.89264967 1094.00318517 662.07148588 1074.25 653.1875 C1072.70038516 652.48555279 1071.15082544 651.78348389 1069.60131836 651.08129883 C1047.34809576 641.02583648 1024.81733259 631.70100949 1002 623 C1001.2471875 622.70867188 1000.494375 622.41734375 999.71875 622.1171875 C976.36808396 613.17237591 946.63745504 607.8329274 922 614 Z M4 978 C4 1966.02 4 2954.04 4 3972 C446.2 3972 888.4 3972 1344 3972 C1344 2993.55 1344 2015.1 1344 1007 C1343.67 1007 1343.34 1007 1343 1007 C1342.94839722 1008.07254028 1342.94839722 1008.07254028 1342.89575195 1009.16674805 C1338.44901014 1096.56418368 1311.57748449 1179.56897592 1230.08203125 1363.55078125 C1222.79937973 1379.17659711 1215.5345085 1394.80223676 1208.6875 1410.625 C1207.94246216 1412.34601929 1207.94246216 1412.34601929 1207.18237305 1414.10180664 C1206.24212679 1416.29399103 1205.31569387 1418.49215643 1204.40380859 1420.69628906 C1203.44475002 1422.95332916 1202.42338204 1425.18463506 1201.35009766 1427.38964844 C1198.13662729 1434.37429101 1196.58026752 1440.24782744 1196.37232971 1447.86408997 C1196.33874471 1448.79206668 1196.30515971 1449.72004339 1196.27055699 1450.67614061 C1195.73240093 1467.15246078 1195.59317213 1483.64458118 1195.37667644 1500.12745917 C1195.3062783 1505.42867628 1195.23181135 1510.7298366 1195.15791321 1516.03100586 C1195.01396135 1526.40576749 1194.87383902 1536.78057736 1194.73520844 1547.15541133 C1194.62192356 1555.63054247 1194.50740054 1564.10565604 1194.39203072 1572.58075905 C1194.35859167 1575.0378527 1194.32515269 1577.49494636 1194.29171377 1579.95204002 C1194.27505703 1581.17595385 1194.25840028 1582.39986768 1194.24123878 1583.66086981 C1193.92675564 1606.7827309 1193.61689809 1629.9046523 1193.30842281 1653.0265942 C1193.02887403 1673.96923683 1192.74340273 1694.91179364 1192.45503204 1715.8543165 C1192.15687342 1737.51204397 1191.8630423 1759.16982656 1191.5735274 1780.82767135 C1191.41176385 1792.92323843 1191.24845279 1805.01877914 1191.08061028 1817.11426353 C1190.46018822 1861.90986036 1189.88265248 1906.70243056 1189.87478788 1951.50301208 C1189.87428025 1954.07804258 1189.87275443 1956.6530711 1189.87116992 1959.22810113 C1189.8601163 1988.40957616 1190.52698722 2017.53543874 1191.61502838 2046.69785309 C1191.82811458 2052.50314218 1192.02597211 2058.30894093 1192.22383904 2064.11476588 C1192.59341469 2074.95656856 1192.97054607 2085.79808484 1193.35457969 2096.63938451 C1195.046545 2144.42141347 1196.58166741 2192.20910267 1198 2240 C1198.04789421 2241.60274529 1198.04789421 2241.60274529 1198.09675598 2243.23786926 C1199.84423567 2301.78258264 1200.17932087 2360.30944341 1200.18704796 2418.87599373 C1200.18749607 2421.53915041 1200.18834131 2424.20230671 1200.18928528 2426.86546326 C1200.20189458 2466.49008396 1200.12248726 2506.09799104 1199.06033707 2545.71136093 C1198.97106441 2549.09755273 1198.89157876 2552.48394499 1198.8112793 2555.87036133 C1198.65360749 2562.28963925 1198.46423399 2568.70736958 1198.25 2575.125 C1198.21153961 2576.27928497 1198.17307922 2577.43356995 1198.13345337 2578.62283325 C1194.90420858 2672.71231151 1188.30836624 2767.10307436 1173 2866 C1172.77213806 2867.45324677 1172.77213806 2867.45324677 1172.53967285 2868.93585205 C1159.62492026 2950.88937602 1140.76879395 3031.96169805 1107 3108 C1106.5762207 3108.9595459 1106.15244141 3109.9190918 1105.71582031 3110.90771484 C1095.08286362 3134.78880982 1081.44587339 3157.32518079 1065.80078125 3178.2421875 C1065.36822021 3178.82718018 1064.93565918 3179.41217285 1064.48999023 3180.01489258 C1063.38204331 3181.49100539 1062.25001487 3182.94910478 1061.10571289 3184.3972168 C1056.08017509 3190.93741496 1052.67992352 3197.53367661 1049.5852356 3205.1640625 C1048.23520579 3208.480782 1046.82706199 3211.77276098 1045.421875 3215.06640625 C1045.13756119 3215.73447296 1044.85324738 3216.40253967 1044.56031799 3217.09085083 C1034.76926922 3239.96648295 1022.8724456 3261.768477 1007 3281 C1005.86498047 3282.3921875 1005.86498047 3282.3921875 1004.70703125 3283.8125 C992.27970536 3298.16157731 976.27386556 3308.52853331 957.0078125 3309.91796875 C950.20111982 3310.17567206 943.67078035 3309.27997714 937 3308 C935.88496094 3307.78730469 934.76992188 3307.57460937 933.62109375 3307.35546875 C917.4418686 3303.47780322 902.13249682 3293.97190879 889 3284 C888.44296387 3283.57750977 887.88592773 3283.15501953 887.31201172 3282.71972656 C876.71947294 3274.64332133 865.95443795 3266.34208622 856.7182312 3256.71922302 C854.97022454 3254.97020735 853.15541937 3253.35563781 851.28173828 3251.74243164 C835.56866939 3238.07654321 821.03746599 3223.12188783 806.41308594 3208.31713867 C792.86319844 3194.42774965 792.86319844 3194.42774965 778 3182 C777.38898437 3181.5352124 776.77796875 3181.0704248 776.1484375 3180.59155273 C774.59711503 3179.43104066 773.01808151 3178.30783556 771.4375 3177.1875 C770.86652588 3176.78208984 770.29555176 3176.37667969 769.70727539 3175.95898438 C764.85108292 3172.53732604 759.89621712 3169.27036594 754.9375 3166 C735.97379164 3153.46144944 718.60594031 3138.56876361 703.89453125 3121.17578125 C701.76837859 3118.73399356 699.56253739 3116.37930845 697.34594727 3114.01977539 C692.13029982 3108.46672758 687.12549449 3102.83957707 682.359375 3096.890625 C679.5628883 3093.4644658 676.66210446 3090.14031263 673.75 3086.8125 C663.37120512 3074.9121108 653.51877487 3062.59713166 644 3050 C643.44586426 3049.26797363 642.89172852 3048.53594727 642.32080078 3047.78173828 C623.71883994 3023.18075755 605.87159679 2998.09141311 589.3125 2972.06005859 C587.93391287 2969.89627173 586.54522342 2967.73916327 585.15625 2965.58203125 C577.65612801 2953.88010106 570.60434211 2941.93893116 563.66992188 2929.89453125 C562.14855359 2927.25749288 560.61552572 2924.62771097 559.078125 2922 C538.58776934 2886.7973496 520.48890864 2850.22567016 504 2813 C503.69320313 2812.30861938 503.38640625 2811.61723877 503.0703125 2810.90490723 C486.92480352 2774.481306 472.6245295 2737.26908023 459.85687256 2699.53161621 C459.27136469 2697.80174262 458.68442605 2696.07235282 458.09625244 2694.34338379 C428.21233826 2606.49088849 406.68874321 2516.22022189 390 2425 C389.80768799 2423.95312012 389.61537598 2422.90624023 389.41723633 2421.82763672 C373.75940109 2336.51588611 362.18376358 2250.55366956 331.4372741 1965.81894839 C323.48026622 1888.50984446 315.48270737 1811.21488156 305.64509583 1734.11790085 C305.38805812 1732.10239255 305.13216967 1730.08673778 304.87634277 1728.07107544 C303.94949646 1720.80341687 302.98865164 1713.54102139 301.99030113 1706.28286839 C301.38935283 1701.90278262 300.80583208 1697.52092839 300.23944092 1693.13623047 C295.70564455 1658.15517525 289.01269956 1624.09028276 280.7840271 1589.80067062 C279.38523489 1583.95227684 278.00771361 1578.09890448 276.63058138 1572.24538267 C275.8486455 1568.92177753 275.06588998 1565.59836562 274.28289795 1562.27500916 C274.12752933 1561.61552656 273.97216072 1560.95604397 273.81208396 1560.27657706 C272.71662498 1555.62913963 271.61621265 1550.98289197 270.51348877 1546.33717346 C266.67353646 1530.154894 262.89863441 1513.95888839 259.19812393 1497.74409103 C258.42470539 1494.35522736 257.64982705 1490.96670079 256.8744812 1487.57827759 C252.8799027 1470.11686813 252.8799027 1470.11686813 251.10540771 1462.2902832 C250.02050613 1457.50689901 248.92592242 1452.72583135 247.82401657 1447.94633675 C247.42728903 1446.21740384 247.03415471 1444.4876416 246.64500809 1442.75698662 C244.09693867 1431.43229716 241.0670571 1422.32257763 233.9375 1413 C230.02980192 1407.7822864 226.23294511 1402.51239482 222.5625 1397.125 C218.81564329 1391.63405483 215.02890114 1386.17527542 211.1875 1380.75 C206.81605344 1374.57448697 202.46188163 1368.38734466 198.125 1362.1875 C197.54000732 1361.3512207 196.95501465 1360.51494141 196.35229492 1359.65332031 C195.16218593 1357.95172045 193.97216345 1356.25006007 192.78222656 1354.54833984 C190.43840969 1351.19700278 188.09319437 1347.84664622 185.74755859 1344.49658203 C184.57548486 1342.82214419 183.40394152 1341.14733497 182.23291016 1339.47216797 C179.42680985 1335.4591261 176.61426243 1331.45112854 173.78125 1327.45703125 C165.22065834 1315.35629698 156.98484045 1303.05100473 148.81445312 1290.68481445 C144.31127984 1283.88136369 139.72302003 1277.19144306 134.88134766 1270.62182617 C131.5188891 1265.93593953 128.45643392 1261.06086103 125.375 1256.1875 C124.6847876 1255.10146484 123.9945752 1254.01542969 123.28344727 1252.89648438 C121.86724694 1250.66794414 120.45228083 1248.43861909 119.03857422 1246.20849609 C117.16135818 1243.25396039 115.2730989 1240.30695193 113.37890625 1237.36328125 C63.15866109 1159.20200905 15.25899055 1071.88169255 5 978 C4.67 978 4.34 978 4 978 Z M279 1449 C279.73178173 1456.12662489 279.73178173 1456.12662489 281.09375 1462.9765625 C281.31458252 1463.87342773 281.53541504 1464.77029297 281.76293945 1465.69433594 C282.00616943 1466.66145508 282.24939941 1467.62857422 282.5 1468.625 C285.00651108 1478.81840333 287.40265423 1489.03174513 289.74368286 1499.26416016 C292.72961026 1512.3132348 295.79287508 1525.33787307 298.9979248 1538.3348999 C302.59417865 1552.92247184 305.92692066 1567.54640063 309.04223633 1582.24414062 C310.66740466 1589.89994343 312.33611267 1597.53956847 314.13671875 1605.15625 C318.06160118 1621.788862 321.36294792 1638.21766923 323.59692383 1655.1809082 C323.98890085 1657.92237321 324.46196132 1660.63383539 324.97265625 1663.35546875 C326.20920237 1669.97898335 327.1437188 1676.63868701 328.0625 1683.3125 C328.16337921 1684.04186768 328.26425842 1684.77123535 328.36819458 1685.52270508 C334.72367501 1731.59827918 340.53552211 1777.75793034 345.66534424 1823.9855957 C346.00465934 1827.04196892 346.34571276 1830.09814461 346.68701172 1833.15429688 C348.96096319 1853.54839159 351.18464425 1873.94421114 353.01245117 1894.38378906 C353.57100059 1900.61049972 354.19260407 1906.82558195 354.89770508 1913.03735352 C356.11254861 1923.86478689 357.21324104 1934.70329747 358.3125 1945.54296875 C358.53118161 1947.69297469 358.74993318 1949.84297352 358.96875 1951.9929657 C360.17322586 1963.83331305 361.37274106 1975.67416408 362.57197571 1987.51504326 C363.40103749 1995.70082298 364.23134119 2003.88647623 365.06254578 2012.07203865 C365.58471248 2017.21528948 366.10588884 2022.35863708 366.625 2027.50219727 C369.03780188 2051.40138239 371.5361023 2075.28596167 374.30627441 2099.14668274 C375.53395193 2109.73844947 376.66939932 2120.33542132 377.71578789 2130.94665527 C379.49040785 2148.8827425 381.63144951 2166.7645986 383.85913086 2184.6496582 C385.15401043 2195.05141215 386.40759152 2205.44982364 387.5 2215.875 C389.68771066 2236.47692595 392.83561962 2256.98006899 395.78955078 2277.48339844 C397.06203009 2286.32708514 398.30061453 2295.17084811 399.4309082 2304.03393555 C400.98362398 2316.15263041 402.80405609 2328.19112656 404.93969727 2340.22021484 C406.2174442 2347.4288252 407.43969763 2354.64174706 408.59375 2361.87109375 C408.73230408 2362.73848175 408.87085815 2363.60586975 409.01361084 2364.49954224 C409.22488617 2365.82234695 409.22488617 2365.82234695 409.44042969 2367.171875 C412.82459924 2388.35557558 416.58017433 2409.45050615 420.58451843 2430.52534485 C421.61625222 2435.95656928 422.63049794 2441.39068072 423.62890625 2446.828125 C431.52044778 2489.73246334 440.83688199 2532.78636243 452.41943359 2574.86474609 C453.14340004 2577.52740822 453.8466886 2580.19529555 454.55078125 2582.86328125 C457.63247614 2594.49759403 460.82925954 2606.07405603 464.42700195 2617.56054688 C465.95348408 2622.45647612 467.38421432 2627.36753211 468.73168945 2632.31521606 C471.38180134 2642.03422569 474.3952495 2651.58466009 477.625 2661.125 C478.15191304 2662.69100661 478.67860086 2664.25708902 479.20507812 2665.82324219 C480.5409385 2669.79164942 481.8837015 2673.75768329 483.2286377 2677.72302246 C483.96553405 2679.89826026 484.69964268 2682.07441454 485.43261719 2684.25097656 C495.88148293 2715.26118343 507.42153847 2745.79103196 520 2776 C520.49999512 2777.20108398 520.99999023 2778.40216797 521.51513672 2779.63964844 C528.90631537 2797.30731914 536.81359317 2814.71161578 545.04699707 2831.9989624 C545.69335679 2833.35613568 546.33908849 2834.71360821 546.98425293 2836.0713501 C555.05264839 2853.05013313 563.24809781 2869.89702807 572.47412109 2886.28515625 C574.12650798 2889.22508299 575.76129258 2892.17439572 577.39453125 2895.125 C592.25248201 2921.90472667 608.16735158 2947.82090604 625.125 2973.3125 C625.6362442 2974.08209045 626.1474884 2974.85168091 626.67422485 2975.64459229 C633.26991033 2985.56423456 640.00340808 2995.35880362 647 3005 C647.61568848 3005.85053955 648.23137695 3006.7010791 648.86572266 3007.57739258 C660.94544943 3024.19885805 673.555641 3040.37532035 686.58056641 3056.26464844 C687.84448618 3057.80987406 689.10053789 3059.36152781 690.35546875 3060.9140625 C702.07567146 3075.38819262 714.5644375 3089.20229199 727.1640625 3102.91015625 C729.0810656 3104.99630668 730.99199408 3107.08778979 732.8984375 3109.18359375 C735.58497935 3112.13549565 738.2888082 3115.07071548 741 3118 C741.59039063 3118.64582031 742.18078125 3119.29164062 742.7890625 3119.95703125 C752.07181668 3129.71992789 763.90326499 3137.1265852 775.0625 3144.5625 C783.90971036 3150.46669582 792.55682919 3156.52641963 801 3163 C801 3159.62941182 800.33890165 3158.43340017 798.7265625 3155.52734375 C798.23712158 3154.63813232 797.74768066 3153.7489209 797.2434082 3152.83276367 C796.44229614 3151.39960815 796.44229614 3151.39960815 795.625 3149.9375 C795.07481201 3148.94016846 794.52462402 3147.94283691 793.95776367 3146.9152832 C791.51803167 3142.49906839 789.05794643 3138.09473521 786.57421875 3133.703125 C778.28034299 3119.0044147 770.64172546 3103.96414923 762.9822998 3088.92816162 C762.07926507 3087.15558983 761.17494803 3085.38367147 760.27050781 3083.61181641 C752.68671107 3068.72397239 745.56527864 3053.64412248 738.59375 3038.4609375 C737.06247711 3035.13567333 735.51821369 3031.81682071 733.96875 3028.5 C726.6545321 3012.81741396 719.67996206 2996.99886002 712.88934326 2981.08404541 C711.97948246 2978.95192015 711.06809698 2976.82045021 710.15673828 2974.68896484 C674.56734751 2891.36213865 642.67989158 2806.28592916 614.3820343 2720.21395874 C612.21464918 2713.62943805 610.01317121 2707.05652364 607.80859375 2700.484375 C600.91092651 2679.90771423 594.04101073 2659.33862256 587.71484375 2638.578125 C586.32572385 2634.0219936 584.85176269 2629.50749821 583.3125 2625 C581.03956446 2618.31397655 579.13332788 2611.54222665 577.22753906 2604.74487305 C575.80700511 2599.71252693 574.28081181 2594.75335068 572.5625 2589.8125 C569.85958492 2581.92033448 567.7847976 2573.88063379 565.65649414 2565.81762695 C563.92925431 2559.31933676 562.08749215 2552.89128213 560 2546.5 C557.19726701 2537.90382431 554.84980633 2529.20706777 552.53515625 2520.46826172 C550.94882683 2514.48881759 549.3030661 2508.54240995 547.5 2502.625 C544.86541173 2493.93228517 542.75680567 2485.11033675 540.58813477 2476.29223633 C539.01069723 2469.91677753 537.36534507 2463.59077799 535.4375 2457.3125 C533.10704442 2449.68710528 531.26732969 2441.96923604 529.44335938 2434.20898438 C527.55588389 2426.21468947 525.53625264 2418.26004405 523.46008301 2410.31326294 C520.5447275 2399.15152371 517.77464678 2387.97430505 515.27734375 2376.7109375 C513.89215867 2370.4670009 512.42367747 2364.24311465 510.95928955 2358.0173645 C508.09371089 2345.82066203 505.32106584 2333.60928912 502.71728516 2321.35400391 C502.05298118 2318.24773842 501.37775355 2315.14399258 500.69995117 2312.04064941 C493.02770331 2276.84126993 486.71961456 2241.38823197 481.0625 2205.8125 C480.91884003 2204.90933044 480.77518005 2204.00616089 480.62716675 2203.07562256 C478.9365817 2192.40143428 477.36804647 2181.72058323 476 2171 C477.5624646 2171.02030273 477.5624646 2171.02030273 479.15649414 2171.04101562 C482.36141831 2171.00681457 485.33162137 2170.79314253 488.49609375 2170.34375 C489.95112305 2170.14072266 489.95112305 2170.14072266 491.43554688 2169.93359375 C492.92151367 2169.71896484 492.92151367 2169.71896484 494.4375 2169.5 C495.96407227 2169.28537109 495.96407227 2169.28537109 497.52148438 2169.06640625 C500.01496134 2168.71521231 502.50772922 2168.35963687 505 2168 C505.0462854 2169.10154419 505.0462854 2169.10154419 505.09350586 2170.2253418 C505.76380939 2182.20801886 507.67868521 2193.97144099 509.5625 2205.8125 C509.73851746 2206.92927124 509.91453491 2208.04604248 510.09588623 2209.19665527 C513.161122 2228.59130066 516.70557109 2247.86067227 520.61024475 2267.10212708 C521.64812258 2272.2209372 522.65203226 2277.34502895 523.625 2282.4765625 C526.62600873 2298.29757453 529.89248501 2314.02932053 533.48187256 2329.72698975 C534.29747742 2333.30502495 535.10549466 2336.88477277 535.91474915 2340.46424866 C536.86668159 2344.67045548 537.82262309 2348.87574508 538.77944946 2353.08084106 C539.25034549 2355.15195792 539.72025675 2357.22329898 540.1890564 2359.29489136 C542.9072248 2371.29363006 545.79268953 2383.22745082 548.93789673 2395.12173462 C550.73436111 2401.92624588 552.36816448 2408.75032219 553.875 2415.625 C556.29267708 2426.37551124 559.126392 2436.97886274 562.10449219 2447.58642578 C564.05326244 2454.53441886 565.91727087 2461.48895218 567.625 2468.5 C569.44815569 2475.96257153 571.48517918 2483.34383648 573.62939453 2490.72021484 C575.68868011 2497.8289994 577.60363519 2504.97124201 579.5 2512.125 C581.70380284 2520.41182828 584.07505805 2528.60110812 586.73486328 2536.75195312 C588.84950141 2543.31721542 590.62274391 2549.95502686 592.375 2556.625 C595.54752199 2568.66145279 599.24583156 2580.48253543 603.12158203 2592.30859375 C605.65328946 2600.06555392 608.06107081 2607.86306138 610.40893555 2615.67749023 C615.47108985 2632.50133811 620.83663253 2649.22429295 626.25 2665.9375 C626.4881052 2666.67305744 626.7262104 2667.40861488 626.97153091 2668.16646194 C653.82620376 2751.11492529 682.81162165 2833.4171173 764.05712891 3025.98138428 C765.02974119 3028.06367363 765.99788884 3030.14798809 766.96484375 3032.23291016 C779.70736247 3059.70115536 792.84787017 3086.95716136 807.57763672 3113.42431641 C809.03175638 3116.05750597 810.45876972 3118.70381133 811.87890625 3121.35546875 C819.47456674 3135.5115952 827.60317718 3149.30526424 836 3163 C836.52062012 3163.85190918 837.04124023 3164.70381836 837.57763672 3165.58154297 C855.41298074 3194.66026905 875.57864288 3222.1773651 899 3247 C899.88429688 3247.9384375 900.76859375 3248.876875 901.6796875 3249.84375 C915.07641624 3263.66762081 932.73064466 3278.42891766 952.6875 3279.625 C962.18489456 3279.40915012 970.85296099 3275.22827339 977.875 3268.875 C1013.98941481 3228.04211893 1014.54537253 3159.20433936 1019 3108 C1019.14365442 3106.35259992 1019.2873109 3104.70520003 1019.43096924 3103.05780029 C1024.15211509 3048.85454031 1028.49168816 2994.62429095 1032.60071182 2940.37147903 C1033.54995971 2927.83969632 1034.51958772 2915.30970952 1035.51171875 2902.78125 C1035.63046729 2901.27888646 1035.7491962 2899.77652137 1035.86790466 2898.27415466 C1036.30615821 2892.73102923 1036.74468323 2887.18793293 1037.1890564 2881.64529419 C1038.18120186 2869.26889884 1039.16355645 2856.90446697 1039.66500854 2844.49671936 C1039.85374046 2840.02219238 1040.2404614 2835.61459459 1040.76342773 2831.16700745 C1041.12027397 2827.89828766 1041.2933419 2824.62684532 1041.46484375 2821.34375 C1041.54359797 2819.8919259 1041.62237483 2818.44010303 1041.70117188 2816.98828125 C1041.81830919 2814.77397702 1041.9343993 2812.5596227 1042.04956055 2810.34521484 C1042.5384759 2801.022946 1043.16860204 2791.72479016 1043.9453125 2782.421875 C1045.10890761 2768.36063519 1045.90341643 2754.28158943 1046.68902588 2740.19549561 C1047.11415559 2732.57519091 1047.55060123 2724.95553023 1047.98828125 2717.3359375 C1048.03151268 2716.58232059 1048.07474411 2715.82870369 1048.11928558 2715.05224991 C1048.87968755 2701.82129585 1049.72010138 2688.5969029 1050.625 2675.375 C1052.39431096 2649.42636568 1053.86047652 2623.47431679 1055.05889893 2597.49313354 C1055.69661651 2583.7105056 1056.44513695 2569.93665997 1057.24639893 2556.16262817 C1058.47595832 2535.00976897 1059.57691279 2513.85295875 1060.5625 2492.6875 C1060.59393223 2492.01277775 1060.62536446 2491.3380555 1060.65774918 2490.64288712 C1061.62406067 2469.86662639 1062.53025096 2449.08785703 1063.35375977 2428.30541992 C1063.40885963 2426.93397324 1063.40885963 2426.93397324 1063.46507263 2425.53482056 C1063.53088394 2423.89349788 1063.5955031 2422.25212648 1063.65834045 2420.61068726 C1063.8400265 2416.09528214 1064.08261363 2411.58667214 1064.36163139 2407.07615566 C1064.9235975 2397.94869266 1065.26637274 2388.82908335 1065.5 2379.6875 C1065.54073524 2378.17984266 1065.58175811 2376.67219307 1065.62304688 2375.16455078 C1065.73010909 2371.23542953 1065.83428769 2367.30623824 1065.9375 2363.37701416 C1066.10194262 2357.12289527 1066.26955059 2350.86886484 1066.43969727 2344.61489868 C1066.49707142 2342.48377979 1066.5523754 2340.35261561 1066.60742188 2338.22143555 C1066.80300386 2330.85956206 1067.05531434 2323.50246916 1067.36388874 2316.14439774 C1067.93738172 2302.45727056 1068.30986388 2288.77495448 1068.55078125 2275.078125 C1068.57159571 2273.92359077 1068.59241016 2272.76905655 1068.61385536 2271.57953644 C1069.12206268 2242.76214454 1069.18771686 2213.94563858 1069.18511117 2185.12475252 C1069.18541743 2180.14711016 1069.19368669 2175.16952112 1069.20581055 2170.19189453 C1069.32585701 2129.90687987 1069.32585701 2129.90687987 1068.11328125 2089.64453125 C1068.07433432 2088.8062101 1068.03538738 2087.96788895 1067.99526024 2087.10416412 C1067.0284758 2067.05465609 1065.334485 2046.62334333 1061 2027 C1062.27746094 2026.88785156 1063.55492187 2026.77570312 1064.87109375 2026.66015625 C1070.087853 2026.08051633 1075.01292386 2024.83602497 1080.0625 2023.4375 C1080.92810547 2023.20353516 1081.79371094 2022.96957031 1082.68554688 2022.72851562 C1084.79197695 2022.1582666 1086.89622889 2021.57998166 1089 2021 C1089.13277344 2021.97582031 1089.26554687 2022.95164062 1089.40234375 2023.95703125 C1089.57894531 2025.22933594 1089.75554688 2026.50164063 1089.9375 2027.8125 C1090.11152344 2029.07707031 1090.28554687 2030.34164062 1090.46484375 2031.64453125 C1090.90392455 2034.98321703 1090.90392455 2034.98321703 1092 2038 C1098.44334848 2083.4557756 1097.29994792 2129.88337406 1097.20059651 2175.66536826 C1097.18902062 2181.25478369 1097.18485357 2186.84416694 1097.18530273 2192.43359375 C1097.18802463 2230.96676912 1096.95747113 2269.47642481 1096 2308 C1095.95942888 2309.67447688 1095.91894904 2311.34895597 1095.87857056 2313.0234375 C1095.66931221 2321.62745322 1095.43593766 2330.23050352 1095.17993164 2338.83325195 C1095.10095809 2341.50932239 1095.02387841 2344.18535368 1094.95043945 2346.86157227 C1094.49092529 2363.58695256 1093.81785993 2380.28819064 1092.92457581 2396.99609756 C1092.18829689 2410.79970069 1091.57872459 2424.60547338 1091.03515625 2438.41796875 C1090.99569067 2439.41803577 1090.95622509 2440.4181028 1090.91556358 2441.44847488 C1090.7130859 2446.58504863 1090.51181529 2451.72166893 1090.31097412 2456.85830688 C1088.96452301 2491.22940359 1087.48195168 2525.57284192 1085.31591797 2559.90332031 C1084.80893816 2567.99538719 1084.37175608 2576.0912608 1083.9375 2584.1875 C1083.87801178 2585.28694443 1083.87801178 2585.28694443 1083.81732178 2586.40859985 C1083.34979523 2595.05880337 1082.91316343 2603.710124 1082.50390625 2612.36328125 C1082.44166115 2613.67826851 1082.44166115 2613.67826851 1082.37815857 2615.01982117 C1082.33659134 2615.89797989 1082.29502411 2616.77613861 1082.25219727 2617.6809082 C1081.56675251 2632.14984293 1080.83151608 2646.60319097 1079.77740479 2661.05090332 C1079.16346568 2669.52044882 1078.61647331 2677.99218168 1078.109375 2686.46875 C1078.02386749 2687.88798276 1077.93831489 2689.30721281 1077.85272217 2690.72644043 C1077.29698102 2699.96006796 1076.75227174 2709.19433707 1076.20935631 2718.4287262 C1073.25996641 2768.58313752 1070.08191813 2818.70428365 1066.2350769 2868.7980957 C1065.25588138 2881.56119436 1064.30678692 2894.32636619 1063.36856842 2907.09253883 C1057.78940295 2982.99623309 1052.0999955 3058.90472141 1044.72607422 3134.65893555 C1044.60799408 3135.87859009 1044.48991394 3137.09824463 1044.36825562 3138.3548584 C1044.15183526 3140.58283374 1043.93283867 3142.81056119 1043.71060181 3145.03796387 C1043.25548727 3149.7120294 1042.86827785 3154.29642171 1043 3159 C1046.3195797 3155.90573114 1048.88578844 3152.51961295 1051.375 3148.75 C1052.0103064 3147.78912476 1052.0103064 3147.78912476 1052.65844727 3146.80883789 C1082.88056612 3100.40573084 1104.12380222 3047.06808717 1117.39746094 2993.40966797 C1118.20041628 2990.19849731 1119.06689983 2987.00591994 1119.9375 2983.8125 C1120.62973242 2981.20947728 1121.31760779 2978.60559908 1122 2976 C1122.24331055 2975.0728418 1122.48662109 2974.14568359 1122.73730469 2973.19042969 C1131.26818926 2940.46322494 1137.42849146 2907.34226507 1143 2874 C1143.13448547 2873.19780029 1143.26897095 2872.39560059 1143.40753174 2871.5690918 C1150.74651323 2827.72037857 1155.45710094 2783.66961821 1159.671875 2739.42041016 C1159.96717236 2736.34219879 1160.26880867 2733.26472163 1160.57421875 2730.1875 C1163.27422034 2702.88015298 1164.9056739 2675.50625654 1166.46116257 2648.11424637 C1166.61854035 2645.36292924 1166.7795491 2642.61184992 1166.94168091 2639.86080933 C1170.91342612 2572.03112476 1171.34773244 2504.13400907 1171.25734329 2436.20905685 C1171.24931013 2429.97418025 1171.24623233 2423.73930591 1171.24362183 2417.50442505 C1171.2195561 2367.80970107 1171.05761533 2318.12350845 1170.0625 2268.4375 C1170.04075211 2267.3464156 1170.01900421 2266.25533119 1169.99659729 2265.13118362 C1169.85445336 2258.08587107 1169.70056805 2251.04089758 1169.53515625 2243.99609375 C1169.51565226 2243.15245647 1169.49614826 2242.3088192 1169.47605324 2241.43961716 C1169.2404676 2231.48934717 1168.85632252 2221.55453853 1168.36225128 2211.61377525 C1167.97915062 2203.82872087 1167.73209611 2196.04608953 1167.53515625 2188.25390625 C1167.49683381 2186.82469394 1167.45820401 2185.39548984 1167.41929626 2183.96629333 C1167.25877548 2178.05226454 1167.10302076 2172.1381157 1166.95043945 2166.22387695 C1166.47645001 2147.9299256 1165.84851982 2129.64939066 1165.03515625 2111.3671875 C1164.99194433 2110.39426254 1164.94873241 2109.42133759 1164.90421104 2108.41893005 C1164.81669537 2106.4492879 1164.72914778 2104.47964717 1164.64156818 2102.51000786 C1164.59831504 2101.53708857 1164.55506189 2100.56416927 1164.51049805 2099.56176758 C1164.44566742 2098.10355937 1164.44566742 2098.10355937 1164.37952709 2096.61589241 C1160.67085071 2012.94478884 1160.28405428 1929.30040689 1161.9375 1770.3125 C1161.94835994 1769.55562787 1161.95921988 1768.79875573 1161.97040892 1768.01894808 C1162.79069873 1711.0172572 1162.79069873 1711.0172572 1163.56611633 1685.42745399 C1164.98393354 1638.47330567 1165.34178885 1591.47956131 1165.9627918 1544.50920868 C1166.0522399 1537.75238108 1166.14343697 1530.99557789 1166.23503023 1524.23877907 C1166.33586942 1516.79673173 1166.43548879 1509.35466853 1166.53457451 1501.91259766 C1166.57604141 1498.79979917 1166.61792419 1495.68700672 1166.66017342 1492.57421875 C1166.70959512 1488.92919462 1166.75793436 1485.28415759 1166.80549049 1481.63910866 C1166.83101902 1479.70085858 1166.85757579 1477.76262213 1166.88418579 1475.8243866 C1166.999341 1466.88054006 1167 1457.94666577 1167 1449 C873.96 1449 580.92 1449 279 1449 Z " fill="#010101" transform="translate(0,0)"/>
<path d="M0 0 C444.84 0 889.68 0 1348 0 C1348 1312.08 1348 2624.16 1348 3976 C903.16 3976 458.32 3976 0 3976 C0 2663.92 0 1351.84 0 0 Z M4 4 C3.55696541 313.01088518 3.55696541 313.01088518 3.22379851 622.02190495 C3.22211593 624.00678181 3.22043328 625.99165868 3.21874809 627.97653554 C3.21284188 634.93466951 3.20699217 641.89280352 3.2011681 648.85093756 C3.19694011 653.89858017 3.19267259 658.94622274 3.18838786 663.9938653 C3.12077505 743.69223747 3.0623997 823.39061642 3.11793484 1709.94913026 C3.12039279 1717.19297675 3.12284064 1724.43682325 3.12528289 1731.68066975 C3.16010293 1834.93900361 3.19695069 1938.1973367 3.3625737 2349.74920338 C3.37338027 2375.41043896 3.3841654 2401.07167455 3.39489746 2426.73291016 C3.3953414 2427.79437099 3.39578533 2428.85583183 3.39624272 2429.94945814 C3.438739 2531.58716459 3.47747761 2633.22487236 3.51534616 2734.86258062 C3.51782736 2741.52148865 3.52031155 2748.18039669 3.52279633 2754.83930472 C3.54872259 2824.32250431 3.57447626 2893.80570397 3.60015573 2963.28890365 C3.6005244 2964.28641145 3.60089307 2965.28391925 3.60127291 2966.31165456 C3.60297885 2970.92743473 3.60468458 2975.5432149 3.60638975 2980.15899506 C3.72856272 3310.77266734 3.86530769 3641.38633214 4 3972 C446.2 3972 888.4 3972 1344 3972 C1344 2662.56 1344 1353.12 1344 4 C901.8 4 459.6 4 4 4 Z " fill="#FAFAFA" transform="translate(0,0)"/>
</svg>
