<?xml version="1.0" encoding="UTF-8"?>
<!DOCTYPE svg PUBLIC "-//W3C//DTD SVG 1.1//EN" "http://www.w3.org/Graphics/SVG/1.1/DTD/svg11.dtd">
<svg xmlns="http://www.w3.org/2000/svg" version="1.1" width="1220px" height="3974px" style="shape-rendering:geometricPrecision; text-rendering:geometricPrecision; image-rendering:optimizeQuality; fill-rule:evenodd; clip-rule:evenodd" xmlns:xlink="http://www.w3.org/1999/xlink">
<g><path style="opacity:0.667" fill="#fdfdfd" d="M -0.5,-0.5 C 406.167,-0.5 812.833,-0.5 1219.5,-0.5C 1219.5,1324.17 1219.5,2648.83 1219.5,3973.5C 812.833,3973.5 406.167,3973.5 -0.5,3973.5C -0.5,2648.83 -0.5,1324.17 -0.5,-0.5 Z M 1216.5,3065.5 C 1206.53,3011.61 1193.7,2958.28 1178,2905.5C 1168.2,2873.11 1158.2,2840.77 1148,2808.5C 1120.6,2726.29 1093.6,2643.96 1067,2561.5C 1045.02,2109.85 1023.35,1658.19 1002,1206.5C 1001.33,1184.09 999.662,1161.76 997,1139.5C 992.412,1112.4 983.079,1087.07 969,1063.5C 969.422,1030.68 967.422,998.011 963,965.5C 959.243,933.219 948.576,903.553 931,876.5C 908.766,848.976 880.266,839.143 845.5,847C 820.842,854.015 798.175,865.015 777.5,880C 756.953,895.541 737.286,912.207 718.5,930C 693.851,954.641 670.685,980.474 649,1007.5C 634.637,1001.04 619.804,999.877 604.5,1004C 576.893,1011.97 551.227,1023.97 527.5,1040C 483.501,1069.33 446.001,1105.5 415,1148.5C 374.879,1207.07 342.879,1270.07 319,1337.5C 290.261,1420.79 267.928,1505.79 252,1592.5C 228.259,1725.69 210.592,1859.69 199,1994.5C 185.083,2158.09 172.083,2321.76 160,2485.5C 158.697,2524.35 151.363,2562.02 138,2598.5C 102.606,2699.01 68.6063,2800.01 36,2901.5C 19.077,2955.83 7.91034,3011.16 2.5,3067.5C 2.5,2045.83 2.5,1024.17 2.5,2.5C 407.167,2.5 811.833,2.5 1216.5,2.5C 1216.5,1023.5 1216.5,2044.5 1216.5,3065.5 Z M 2.5,3111.5 C 6.25787,3166.54 24.0912,3216.54 56,3261.5C 88.1907,3303.69 125.691,3340.52 168.5,3372C 220.618,3408.78 273.285,3444.78 326.5,3480C 347.511,3492.67 369.844,3502.34 393.5,3509C 409.857,3513.66 426.19,3513.66 442.5,3509C 526.667,3475.17 610.833,3441.33 695,3407.5C 730.95,3431.39 769.783,3449.22 811.5,3461C 934.621,3489.4 1039.45,3457.9 1126,3366.5C 1176.21,3308.73 1206.38,3241.73 1216.5,3165.5C 1216.5,3433.83 1216.5,3702.17 1216.5,3970.5C 811.833,3970.5 407.167,3970.5 2.5,3970.5C 2.5,3684.17 2.5,3397.83 2.5,3111.5 Z"/></g>
<g><path style="opacity:0.987" fill="#010101" d="M 1216.5,3065.5 C 1219.15,3098.84 1219.15,3132.17 1216.5,3165.5C 1206.38,3241.73 1176.21,3308.73 1126,3366.5C 1039.45,3457.9 934.621,3489.4 811.5,3461C 769.783,3449.22 730.95,3431.39 695,3407.5C 610.833,3441.33 526.667,3475.17 442.5,3509C 426.19,3513.66 409.857,3513.66 393.5,3509C 369.844,3502.34 347.511,3492.67 326.5,3480C 273.285,3444.78 220.618,3408.78 168.5,3372C 125.691,3340.52 88.1907,3303.69 56,3261.5C 24.0912,3216.54 6.25787,3166.54 2.5,3111.5C 2.5,3096.83 2.5,3082.17 2.5,3067.5C 7.91034,3011.16 19.077,2955.83 36,2901.5C 68.6063,2800.01 102.606,2699.01 138,2598.5C 151.363,2562.02 158.697,2524.35 160,2485.5C 172.083,2321.76 185.083,2158.09 199,1994.5C 210.592,1859.69 228.259,1725.69 252,1592.5C 267.928,1505.79 290.261,1420.79 319,1337.5C 342.879,1270.07 374.879,1207.07 415,1148.5C 446.001,1105.5 483.501,1069.33 527.5,1040C 551.227,1023.97 576.893,1011.97 604.5,1004C 619.804,999.877 634.637,1001.04 649,1007.5C 670.685,980.474 693.851,954.641 718.5,930C 737.286,912.207 756.953,895.541 777.5,880C 798.175,865.015 820.842,854.015 845.5,847C 880.266,839.143 908.766,848.976 931,876.5C 948.576,903.553 959.243,933.219 963,965.5C 967.422,998.011 969.422,1030.68 969,1063.5C 983.079,1087.07 992.412,1112.4 997,1139.5C 999.662,1161.76 1001.33,1184.09 1002,1206.5C 1023.35,1658.19 1045.02,2109.85 1067,2561.5C 1093.6,2643.96 1120.6,2726.29 1148,2808.5C 1158.2,2840.77 1168.2,2873.11 1178,2905.5C 1193.7,2958.28 1206.53,3011.61 1216.5,3065.5 Z"/></g>
<g><path style="opacity:1" fill="#fefefe" d="M 856.5,874.5 C 880.924,871.63 899.424,880.63 912,901.5C 920.375,916.626 926.375,932.626 930,949.5C 935.182,975.301 937.682,1001.3 937.5,1027.5C 893.651,992.725 852.818,996.058 815,1037.5C 800.86,1055.43 789.526,1075.1 781,1096.5C 752.802,1168.14 733.469,1242.14 723,1318.5C 716.108,1372.98 711.108,1427.65 708,1482.5C 705.099,1538.84 702.099,1595.17 699,1651.5C 690.86,1777.36 665.86,1899.69 624,2018.5C 591.796,1890.46 579.796,1760.46 588,1628.5C 595.071,1512.74 610.404,1398.07 634,1284.5C 642.195,1251.39 650.862,1218.39 660,1185.5C 665.898,1160.34 670.898,1135.01 675,1109.5C 678.032,1088.81 678.032,1068.15 675,1047.5C 673.465,1041.73 671.632,1036.06 669.5,1030.5C 699.069,991.755 732.402,956.255 769.5,924C 789.122,907.514 810.456,893.514 833.5,882C 841.119,878.96 848.785,876.46 856.5,874.5 Z"/></g>
<g><path style="opacity:1" fill="#fefefe" d="M 1033.5,2498.5 C 752.167,2498.5 470.833,2498.5 189.5,2498.5C 189.5,2496.5 189.5,2494.5 189.5,2492.5C 200.904,2332.08 213.404,2171.74 227,2011.5C 237.082,1899.75 250.415,1788.42 267,1677.5C 283.417,1566.83 309.417,1458.5 345,1352.5C 370.413,1277.66 406.746,1208.99 454,1146.5C 492.474,1098.68 539.641,1062.18 595.5,1037C 606.673,1031.92 618.34,1030.25 630.5,1032C 639.988,1036.44 645.488,1043.94 647,1054.5C 649.076,1076.62 648.076,1098.62 644,1120.5C 641.383,1135.25 638.383,1149.92 635,1164.5C 588.978,1330.32 562.978,1499.32 557,1671.5C 553.652,1783.64 564.652,1894.3 590,2003.5C 599.797,2040.22 610.797,2076.56 623,2112.5C 644.003,2054.82 663.003,1996.49 680,1937.5C 697.432,1873.67 710.766,1809 720,1743.5C 721.535,1726.82 723.201,1710.15 725,1693.5C 730.443,1608.19 735.443,1522.86 740,1437.5C 744.83,1365.02 755.164,1293.36 771,1222.5C 782.642,1172.57 799.642,1124.57 822,1078.5C 856.124,1020.45 894.457,1017.45 937,1069.5C 954.743,1094.72 965.409,1122.72 969,1153.5C 991.466,1601.78 1012.97,2050.12 1033.5,2498.5 Z"/></g>
<g><path style="opacity:1" fill="#202020" d="M 189.5,2492.5 C 189.5,2494.5 189.5,2496.5 189.5,2498.5C 470.833,2498.5 752.167,2498.5 1033.5,2498.5C 752,2499.5 470.334,2499.83 188.5,2499.5C 188.198,2496.94 188.532,2494.61 189.5,2492.5 Z"/></g>
<g><path style="opacity:1" fill="#fefefe" d="M 713.5,3222.5 C 714.491,3216.02 714.824,3209.35 714.5,3202.5C 710.5,3202.5 706.5,3202.5 702.5,3202.5C 696.5,3202.5 690.5,3202.5 684.5,3202.5C 684.124,3261.5 683.624,3320.5 683,3379.5C 600.238,3413.13 517.405,3446.63 434.5,3480C 424.594,3482.86 414.594,3483.19 404.5,3481C 393.102,3478.53 382.102,3474.87 371.5,3470C 347.455,3457.93 324.455,3444.26 302.5,3429C 270.689,3405.93 238.356,3383.59 205.5,3362C 171.68,3338.53 140.513,3311.7 112,3281.5C 46.3393,3208.81 21.6727,3123.81 38,3026.5C 44.6708,2985.5 54.0041,2945.17 66,2905.5C 100.869,2797.77 136.869,2690.43 174,2583.5C 179.406,2565.47 183.406,2547.14 186,2528.5C 469.097,2527.5 752.264,2527.17 1035.5,2527.5C 1035.96,2540.5 1036.46,2553.5 1037,2566.5C 1061.93,2643.28 1087.26,2719.95 1113,2796.5C 1136.65,2867.77 1157.65,2939.77 1176,3012.5C 1196.93,3091.71 1193.27,3169.71 1165,3246.5C 1131.69,3330.81 1073.19,3390.31 989.5,3425C 921.841,3449.06 854.508,3448.06 787.5,3422C 761.098,3411.55 736.264,3398.39 713,3382.5C 712.712,3329.17 712.879,3275.83 713.5,3222.5 Z"/></g>
<g><path style="opacity:1" fill="#383838" d="M 702.5,3202.5 C 706.5,3202.5 710.5,3202.5 714.5,3202.5C 714.824,3209.35 714.491,3216.02 713.5,3222.5C 713.5,3216.17 713.5,3209.83 713.5,3203.5C 709.629,3203.81 705.962,3203.48 702.5,3202.5 Z"/></g>
</svg>
