<?xml version="1.0" encoding="UTF-8"?>
<svg version="1.1" xmlns="http://www.w3.org/2000/svg" width="1196" height="3976">
<path d="M0 0 C394.68 0 789.36 0 1196 0 C1196 1312.08 1196 2624.16 1196 3976 C801.32 3976 406.64 3976 0 3976 C0 2663.92 0 1351.84 0 0 Z M4 4 C4 323.77 4 643.54 4 973 C4.33 973 4.66 973 5 973 C5.17221069 972.04468384 5.17221069 972.04468384 5.34790039 971.07006836 C14.43288432 921.43774041 35.30602512 875.75135075 69.734375 838.4765625 C71.57948676 836.45966447 73.3641413 834.41302165 75.14453125 832.33984375 C79.52442429 827.32153356 84.21871797 822.6350422 88.9375 817.9375 C90.22043945 816.64875977 90.22043945 816.64875977 91.52929688 815.33398438 C95.96677052 810.90328033 100.46709502 806.61719669 105.22387695 802.53100586 C107.74934056 800.35407359 110.1829117 798.0821642 112.625 795.8125 C121.86465558 787.28977849 131.46411997 779.19322457 141.2265625 771.27734375 C143.77243504 769.18685968 146.28042088 767.06012393 148.78173828 764.91699219 C154.25788415 760.2305353 159.83960005 755.78674462 165.64453125 751.5078125 C169.78438798 748.44059531 173.82076728 745.24139184 177.875 742.0625 C184.83806938 736.6205 191.91489641 731.40118906 199.14257812 726.31884766 C201.18546841 724.86830962 203.21095406 723.39553871 205.234375 721.91796875 C214.96152785 714.81836904 224.83607876 708.00725868 234.89648438 701.38916016 C236.87015347 700.08575055 238.83535521 698.77082107 240.796875 697.44921875 C266.4538317 680.1685038 293.01592557 664.11561921 320 649 C321.03979004 648.41508789 322.07958008 647.83017578 323.15087891 647.22753906 C337.76324503 639.01382866 352.47769109 631.04621711 367.37451172 623.36132812 C370.67194793 621.65159181 373.95357867 619.91302369 377.234375 618.17163086 C414.86363603 598.22449217 453.91519197 579.18173668 496 571 C497.09699219 570.773125 498.19398438 570.54625 499.32421875 570.3125 C546.22275989 562.00574733 590.6704962 581.25000286 632 601 C633.02785614 601.49104218 633.02785614 601.49104218 634.07647705 601.99200439 C639.36969814 604.52351907 644.65519486 607.0707972 649.9375 609.625 C650.64968689 609.96854523 651.36187378 610.31209045 652.09564209 610.66604614 C659.93621991 614.45371288 667.70495169 618.34427118 675.390625 622.4375 C684.31585039 627.18263417 693.34653586 631.70611645 702.39453125 636.2109375 C703.13409498 636.5793639 703.87365871 636.9477903 704.63563347 637.32738113 C711.58028824 640.78656723 718.52734154 644.24091792 725.47680664 647.69042969 C742.39036105 656.08805261 759.20827504 664.56447034 775.71707153 673.74102783 C779.25844255 675.6939964 782.83153818 677.58513197 786.41015625 679.46875 C787.0478746 679.80485291 787.68559296 680.14095581 788.34263611 680.48724365 C789.60612238 681.15289509 790.86973756 681.8183019 792.13348389 682.48345947 C804.33979269 688.91586172 816.42225694 695.51543476 828.34619141 702.46044922 C831.24829801 704.14404483 834.16041774 705.80938621 837.07421875 707.47265625 C849.52893842 714.59478438 861.86096581 721.89717442 874.10449219 729.375 C883.13133022 734.88517245 892.21127707 740.30120786 901.3125 745.6875 C914.26922427 753.3598656 927.1704625 761.11621836 940 769 C941.31436035 769.80679199 941.31436035 769.80679199 942.65527344 770.62988281 C971.70117241 788.47710492 1000.60468973 806.67942392 1028 827 C1029.03253906 827.76054688 1030.06507812 828.52109375 1031.12890625 829.3046875 C1034.10326982 831.51421472 1037.0571703 833.7487952 1040 836 C1040.66999023 836.51143555 1041.33998047 837.02287109 1042.03027344 837.54980469 C1058.60647767 850.23261349 1074.76751 863.48864984 1089.38671875 878.421875 C1091.04562215 880.04462797 1092.78035022 881.51424987 1094.5625 883 C1104.76101817 891.80961491 1113.72863639 902.40490882 1122 913 C1122.48823242 913.62100586 1122.97646484 914.24201172 1123.47949219 914.88183594 C1160.76933845 962.41788919 1183.34841891 1017.15592679 1191 1077 C1191.33 1077 1191.66 1077 1192 1077 C1192 722.91 1192 368.82 1192 4 C799.96 4 407.92 4 4 4 Z M4 1048 C4 2012.92 4 2977.84 4 3972 C396.04 3972 788.08 3972 1192 3972 C1192 3053.94 1192 2135.88 1192 1190 C1191.67 1190 1191.34 1190 1191 1190 C1190.88519287 1190.98242676 1190.77038574 1191.96485352 1190.65209961 1192.97705078 C1181.52183855 1270.37985215 1161.35713033 1344.98890612 1133.65234375 1417.76660156 C1133.41417057 1418.39749758 1133.17599739 1419.02839359 1132.93060684 1419.67840767 C1132.20255023 1421.49469633 1131.41650622 1423.28776411 1130.60891342 1425.07011223 C1126.2871245 1434.96766441 1124.66547156 1444.06972614 1123.64550781 1454.76513672 C1123.45234934 1456.60791303 1123.25678049 1458.45043786 1123.05913162 1460.29273796 C1122.61158711 1464.48537491 1122.17530733 1468.67900766 1121.74488831 1472.87343597 C1120.93614245 1480.68741459 1120.06407949 1488.49395463 1119.18591309 1496.300354 C1119.02147929 1497.76351507 1118.85705378 1499.22667707 1118.69263625 1500.68983996 C1118.43843294 1502.95167194 1118.18419521 1505.2135 1117.92981766 1507.47531239 C1116.93461677 1516.32918058 1115.95247526 1525.18449369 1114.97039795 1534.03982544 C1114.78240827 1535.73429845 1114.59441047 1537.42877056 1114.40640473 1539.12324178 C1114.11974742 1541.70693415 1113.83310426 1544.29062808 1113.54650669 1546.87432707 C1112.5594638 1555.77243357 1111.57109535 1564.67039271 1110.58268538 1573.56834744 C1108.81988549 1589.43788456 1107.05805812 1605.30752947 1105.296875 1621.17724609 C1103.59231973 1636.53667918 1101.88729092 1651.89605957 1100.18164062 1667.25537109 C1100.0759878 1668.20677192 1099.97033498 1669.15817275 1099.86148056 1670.13840391 C1099.33110599 1674.91438642 1098.80072221 1679.69036791 1098.27033377 1684.46634889 C1094.63039584 1717.24292864 1090.99142276 1750.01961541 1087.35348511 1782.79641724 C1087.2761627 1783.4930672 1087.1988403 1784.18971716 1087.11917479 1784.90747773 C1086.76210866 1788.1245339 1086.40504924 1791.34159081 1086.04800296 1794.55864918 C1085.92369316 1795.67867073 1085.79938337 1796.79869229 1085.67130661 1797.95265388 C1085.55643544 1798.99193494 1085.44156426 1800.03121599 1085.32321215 1801.1019904 C1085.11698947 1802.95104 1084.90716977 1804.79969439 1084.69263792 1806.64779836 C1084.27329086 1810.28077567 1083.87341859 1813.8695802 1083.8737793 1817.52891541 C1083.87271683 1818.32046556 1083.87165436 1819.11201571 1083.87055969 1819.92755222 C1083.87855843 1821.19885943 1083.87855843 1821.19885943 1083.88671875 1822.49584961 C1083.89163582 1823.90160578 1083.89163582 1823.90160578 1083.89665222 1825.33576107 C1083.98008861 1838.80170332 1084.37100507 1852.26339943 1084.74720383 1865.72370601 C1084.81369135 1868.10914961 1084.87912995 1870.49462022 1084.94436646 1872.88009834 C1086.07666749 1914.1447029 1087.5929751 1955.39575767 1089.09895325 1996.64806366 C1092.23168114 2082.46659057 1095.09659403 2168.28971107 1095.12857032 2275.840379 C1095.12478648 2280.93249245 1095.12617396 2286.02458647 1095.13037109 2291.11669922 C1095.17060571 2341.388645 1094.70019889 2391.63557375 1092.75 2441.875 C1092.70395252 2443.0795326 1092.70395252 2443.0795326 1092.65697479 2444.3083992 C1090.42726179 2502.62511697 1086.92850015 2560.93563625 1081 2619 C1080.88934204 2620.08792847 1080.77868408 2621.17585693 1080.66467285 2622.29675293 C1071.06147415 2716.1981489 1055.88028794 2810.38157841 998 2970 C997.52449707 2970.99483398 997.04899414 2971.98966797 996.55908203 2973.01464844 C984.35896282 2998.39317908 970.33648906 3022.67957372 952.125 3044.25 C945.94887781 3051.65441126 941.92691482 3059.24047341 938 3068 C935.88558091 3072.62987349 933.7584371 3077.25386278 931.625 3081.875 C931.34284637 3082.48646881 931.06069275 3083.09793762 930.76998901 3083.72793579 C920.0719193 3106.86574589 907.30664328 3129.12262177 890 3148 C889.13761719 3148.98419922 889.13761719 3148.98419922 888.2578125 3149.98828125 C882.71921143 3155.9815436 875.76222139 3160.50521092 869 3165 C868.31164062 3165.45761719 867.62328125 3165.91523438 866.9140625 3166.38671875 C851.43999164 3175.2440489 831.54735385 3174.43953396 815 3170 C793.40502442 3163.49548928 774.39119011 3151.09572575 757 3137 C755.78671954 3136.0348278 754.57314979 3135.07001922 753.359375 3134.10546875 C745.57628993 3127.88652058 738.08326587 3121.46691824 730.82421875 3114.64453125 C727.91462947 3111.92006107 724.94042948 3109.29066291 721.9296875 3106.6796875 C710.52894961 3096.75596828 699.33993915 3086.4906248 688.7421875 3075.7109375 C686.95180507 3073.95266956 685.09415767 3072.31849632 683.1875 3070.6875 C679.89606267 3067.86900707 676.88991111 3064.86202392 673.875 3061.75 C661.78699403 3049.49221278 647.33865501 3040.38292187 633 3031 C609.62852288 3015.70260052 609.62852288 3015.70260052 601 3008 C600.01644531 3007.13632813 599.03289063 3006.27265625 598.01953125 3005.3828125 C590.13482847 2998.34719418 582.93122425 2990.73282504 575.7421875 2982.99609375 C572.70723894 2979.73562634 569.60871573 2976.56534043 566.4375 2973.4375 C563.09825693 2970.13708534 559.95281945 2966.75085592 556.90234375 2963.18359375 C554.99285302 2960.99179638 553.02934178 2958.85615136 551.05200195 2956.72558594 C546.22054521 2951.51802777 541.63689492 2946.1842574 537.1796875 2940.6484375 C535.02242601 2938.02724881 532.78689 2935.50845719 530.5 2933 C525.79541657 2927.82495823 521.3938261 2922.43932438 517 2917 C515.96556556 2915.73378497 514.93036378 2914.46819657 513.89453125 2913.203125 C507.94446796 2905.92730416 502.07680339 2898.60310804 496.3828125 2891.125 C494.80429737 2889.05481622 493.21584553 2886.99216868 491.6171875 2884.9375 C485.07247724 2876.51986622 478.80328866 2867.91828914 472.60400391 2859.24365234 C471.58484308 2857.81806817 470.56388881 2856.39376313 469.54052734 2854.97119141 C451.66873679 2830.12474033 434.74605285 2804.39773887 419.203125 2778.03222656 C417.85349731 2775.75253889 416.4894662 2773.48177359 415.125 2771.2109375 C400.81572137 2747.31225313 387.63673784 2722.81850763 375 2698 C374.4848584 2696.99163086 373.9697168 2695.98326172 373.43896484 2694.94433594 C352.75247236 2654.3682624 335.17602954 2612.54764117 319 2570 C318.73251953 2569.29681641 318.46503906 2568.59363281 318.18945312 2567.86914062 C310.18294536 2546.78329956 302.9618308 2525.44933739 296 2504 C295.76367859 2503.27276733 295.52735718 2502.54553467 295.28387451 2501.79626465 C275.86055225 2441.9467156 260.18399242 2380.7281918 248 2319 C247.82700378 2318.12603577 247.65400757 2317.25207153 247.47576904 2316.35162354 C226.49171167 2210.04506182 214.26532216 2102.12936141 208 1994 C207.93790344 1992.94220337 207.87580688 1991.88440674 207.81182861 1990.79455566 C204.29126256 1930.78888121 202.70155283 1870.88567297 202.63114142 1810.79158865 C202.62104986 1802.59332734 202.59904017 1794.39510746 202.57652331 1786.19687239 C202.5365017 1771.54882172 202.50381188 1756.90076569 202.47680664 1742.25268555 C202.47520934 1741.387256 202.47361204 1740.52182644 202.47196633 1739.63017175 C202.47036743 1738.76366442 202.46876853 1737.8971571 202.46712118 1737.00439197 C202.44432214 1724.65844102 202.41966141 1712.31249559 202.39282227 1699.96655273 C202.39092612 1699.09345324 202.38902997 1698.22035375 202.38707637 1697.32079669 C202.35510549 1682.6703158 202.31936748 1668.0198454 202.28178078 1653.36937791 C202.25905637 1644.41969338 202.23999667 1635.4700156 202.22611404 1626.52031288 C202.2164556 1620.39357098 202.20355648 1614.26684121 202.18830519 1608.14011069 C202.17970964 1604.63390363 202.17251392 1601.12771112 202.16966438 1597.62149429 C202.16059105 1588.74687534 202.10274921 1579.87402005 202 1571 C201.99339935 1570.29895418 201.98679869 1569.59790836 201.97999802 1568.87561873 C201.93819196 1564.43818222 201.87450258 1560.00192449 201.78306849 1555.56522319 C201.75678712 1554.1583826 201.7367368 1552.75140789 201.72376227 1551.34438165 C201.57880319 1536.90509809 197.36863023 1525.29150982 191.5625 1512.25 C190.59897661 1509.97600909 189.64100067 1507.69966066 188.68823242 1505.42114258 C186.75506142 1500.81216111 184.7968592 1496.21518234 182.81835938 1491.62548828 C180.1748458 1485.45919577 177.67394686 1479.24550997 175.234375 1472.99609375 C174.86372421 1472.04751495 174.49307343 1471.09893616 174.1111908 1470.12161255 C173.37594163 1468.23931564 172.64078728 1466.3569817 171.9057312 1464.47460938 C164.33336701 1445.16944574 155.98946644 1426.26277621 147.36598206 1407.40881348 C143.18669837 1398.25343071 139.15497082 1389.03432648 135.125 1379.8125 C128.83579525 1365.43854917 122.50270769 1351.0849093 116.125 1336.75 C115.70913635 1335.81523834 115.29327271 1334.88047668 114.86480713 1333.91738892 C112.75450777 1329.17449391 110.64352023 1324.43190559 108.53222656 1319.68945312 C104.7669279 1311.23085306 101.0076752 1302.76956604 97.24798584 1294.30847168 C95.16557343 1289.62220355 93.0827667 1284.93611068 91 1280.25 C90.16666478 1278.37500084 89.33333145 1276.50000084 88.5 1274.625 C88.0875 1273.696875 87.675 1272.76875 87.25 1271.8125 C83.49999999 1263.37499999 83.49999999 1263.37499999 82.25003052 1260.56256104 C81.41660301 1258.68735423 80.58316795 1256.81215078 79.74972534 1254.93695068 C77.66777098 1250.2526423 75.5859474 1245.56827588 73.50439453 1240.88378906 C69.31573317 1231.4576879 65.12481499 1222.03260031 60.9296875 1212.609375 C56.35840654 1202.34013227 51.7944236 1192.06766919 47.23803711 1181.79180908 C46.40512235 1179.91356248 45.57194716 1178.03543135 44.73852539 1176.15740967 C42.25116294 1170.55198296 39.76881202 1164.94438524 37.29351807 1159.33361816 C36.53052264 1157.60580913 35.76606128 1155.8786465 34.99993896 1154.15222168 C28.42272263 1139.32467302 22.48534563 1124.46794953 17.9375 1108.875 C17.59879883 1107.71758301 17.26009766 1106.56016602 16.91113281 1105.36767578 C11.46287994 1086.45979725 7.87785062 1067.45417258 5 1048 C4.67 1048 4.34 1048 4 1048 Z " fill="#FEFEFE" transform="translate(0,0)"/>
<path d="M0 0 C394.68 0 789.36 0 1196 0 C1196 1312.08 1196 2624.16 1196 3976 C801.32 3976 406.64 3976 0 3976 C0 2663.92 0 1351.84 0 0 Z M4 4 C4 323.77 4 643.54 4 973 C4.33 973 4.66 973 5 973 C5.17221069 972.04468384 5.17221069 972.04468384 5.34790039 971.07006836 C14.43288432 921.43774041 35.30602512 875.75135075 69.734375 838.4765625 C71.57948676 836.45966447 73.3641413 834.41302165 75.14453125 832.33984375 C79.52442429 827.32153356 84.21871797 822.6350422 88.9375 817.9375 C90.22043945 816.64875977 90.22043945 816.64875977 91.52929688 815.33398438 C95.96677052 810.90328033 100.46709502 806.61719669 105.22387695 802.53100586 C107.74934056 800.35407359 110.1829117 798.0821642 112.625 795.8125 C121.86465558 787.28977849 131.46411997 779.19322457 141.2265625 771.27734375 C143.77243504 769.18685968 146.28042088 767.06012393 148.78173828 764.91699219 C154.25788415 760.2305353 159.83960005 755.78674462 165.64453125 751.5078125 C169.78438798 748.44059531 173.82076728 745.24139184 177.875 742.0625 C184.83806938 736.6205 191.91489641 731.40118906 199.14257812 726.31884766 C201.18546841 724.86830962 203.21095406 723.39553871 205.234375 721.91796875 C214.96152785 714.81836904 224.83607876 708.00725868 234.89648438 701.38916016 C236.87015347 700.08575055 238.83535521 698.77082107 240.796875 697.44921875 C266.4538317 680.1685038 293.01592557 664.11561921 320 649 C321.03979004 648.41508789 322.07958008 647.83017578 323.15087891 647.22753906 C337.76324503 639.01382866 352.47769109 631.04621711 367.37451172 623.36132812 C370.67194793 621.65159181 373.95357867 619.91302369 377.234375 618.17163086 C414.86363603 598.22449217 453.91519197 579.18173668 496 571 C497.09699219 570.773125 498.19398438 570.54625 499.32421875 570.3125 C546.22275989 562.00574733 590.6704962 581.25000286 632 601 C633.02785614 601.49104218 633.02785614 601.49104218 634.07647705 601.99200439 C639.36969814 604.52351907 644.65519486 607.0707972 649.9375 609.625 C650.64968689 609.96854523 651.36187378 610.31209045 652.09564209 610.66604614 C659.93621991 614.45371288 667.70495169 618.34427118 675.390625 622.4375 C684.31585039 627.18263417 693.34653586 631.70611645 702.39453125 636.2109375 C703.13409498 636.5793639 703.87365871 636.9477903 704.63563347 637.32738113 C711.58028824 640.78656723 718.52734154 644.24091792 725.47680664 647.69042969 C742.39036105 656.08805261 759.20827504 664.56447034 775.71707153 673.74102783 C779.25844255 675.6939964 782.83153818 677.58513197 786.41015625 679.46875 C787.0478746 679.80485291 787.68559296 680.14095581 788.34263611 680.48724365 C789.60612238 681.15289509 790.86973756 681.8183019 792.13348389 682.48345947 C804.33979269 688.91586172 816.42225694 695.51543476 828.34619141 702.46044922 C831.24829801 704.14404483 834.16041774 705.80938621 837.07421875 707.47265625 C849.52893842 714.59478438 861.86096581 721.89717442 874.10449219 729.375 C883.13133022 734.88517245 892.21127707 740.30120786 901.3125 745.6875 C914.26922427 753.3598656 927.1704625 761.11621836 940 769 C941.31436035 769.80679199 941.31436035 769.80679199 942.65527344 770.62988281 C971.70117241 788.47710492 1000.60468973 806.67942392 1028 827 C1029.03253906 827.76054688 1030.06507812 828.52109375 1031.12890625 829.3046875 C1034.10326982 831.51421472 1037.0571703 833.7487952 1040 836 C1040.66999023 836.51143555 1041.33998047 837.02287109 1042.03027344 837.54980469 C1058.60647767 850.23261349 1074.76751 863.48864984 1089.38671875 878.421875 C1091.04562215 880.04462797 1092.78035022 881.51424987 1094.5625 883 C1104.76101817 891.80961491 1113.72863639 902.40490882 1122 913 C1122.48823242 913.62100586 1122.97646484 914.24201172 1123.47949219 914.88183594 C1160.76933845 962.41788919 1183.34841891 1017.15592679 1191 1077 C1191.33 1077 1191.66 1077 1192 1077 C1192 722.91 1192 368.82 1192 4 C799.96 4 407.92 4 4 4 Z M4 1048 C4 2012.92 4 2977.84 4 3972 C396.04 3972 788.08 3972 1192 3972 C1192 3053.94 1192 2135.88 1192 1190 C1191.67 1190 1191.34 1190 1191 1190 C1190.88519287 1190.98242676 1190.77038574 1191.96485352 1190.65209961 1192.97705078 C1181.52183855 1270.37985215 1161.35713033 1344.98890612 1133.65234375 1417.76660156 C1133.41417057 1418.39749758 1133.17599739 1419.02839359 1132.93060684 1419.67840767 C1132.20255023 1421.49469633 1131.41650622 1423.28776411 1130.60891342 1425.07011223 C1126.2871245 1434.96766441 1124.66547156 1444.06972614 1123.64550781 1454.76513672 C1123.45234934 1456.60791303 1123.25678049 1458.45043786 1123.05913162 1460.29273796 C1122.61158711 1464.48537491 1122.17530733 1468.67900766 1121.74488831 1472.87343597 C1120.93614245 1480.68741459 1120.06407949 1488.49395463 1119.18591309 1496.300354 C1119.02147929 1497.76351507 1118.85705378 1499.22667707 1118.69263625 1500.68983996 C1118.43843294 1502.95167194 1118.18419521 1505.2135 1117.92981766 1507.47531239 C1116.93461677 1516.32918058 1115.95247526 1525.18449369 1114.97039795 1534.03982544 C1114.78240827 1535.73429845 1114.59441047 1537.42877056 1114.40640473 1539.12324178 C1114.11974742 1541.70693415 1113.83310426 1544.29062808 1113.54650669 1546.87432707 C1112.5594638 1555.77243357 1111.57109535 1564.67039271 1110.58268538 1573.56834744 C1108.81988549 1589.43788456 1107.05805812 1605.30752947 1105.296875 1621.17724609 C1103.59231973 1636.53667918 1101.88729092 1651.89605957 1100.18164062 1667.25537109 C1100.0759878 1668.20677192 1099.97033498 1669.15817275 1099.86148056 1670.13840391 C1099.33110599 1674.91438642 1098.80072221 1679.69036791 1098.27033377 1684.46634889 C1094.63039584 1717.24292864 1090.99142276 1750.01961541 1087.35348511 1782.79641724 C1087.2761627 1783.4930672 1087.1988403 1784.18971716 1087.11917479 1784.90747773 C1086.76210866 1788.1245339 1086.40504924 1791.34159081 1086.04800296 1794.55864918 C1085.92369316 1795.67867073 1085.79938337 1796.79869229 1085.67130661 1797.95265388 C1085.55643544 1798.99193494 1085.44156426 1800.03121599 1085.32321215 1801.1019904 C1085.11698947 1802.95104 1084.90716977 1804.79969439 1084.69263792 1806.64779836 C1084.27329086 1810.28077567 1083.87341859 1813.8695802 1083.8737793 1817.52891541 C1083.87271683 1818.32046556 1083.87165436 1819.11201571 1083.87055969 1819.92755222 C1083.87855843 1821.19885943 1083.87855843 1821.19885943 1083.88671875 1822.49584961 C1083.89163582 1823.90160578 1083.89163582 1823.90160578 1083.89665222 1825.33576107 C1083.98008861 1838.80170332 1084.37100507 1852.26339943 1084.74720383 1865.72370601 C1084.81369135 1868.10914961 1084.87912995 1870.49462022 1084.94436646 1872.88009834 C1086.07666749 1914.1447029 1087.5929751 1955.39575767 1089.09895325 1996.64806366 C1092.23168114 2082.46659057 1095.09659403 2168.28971107 1095.12857032 2275.840379 C1095.12478648 2280.93249245 1095.12617396 2286.02458647 1095.13037109 2291.11669922 C1095.17060571 2341.388645 1094.70019889 2391.63557375 1092.75 2441.875 C1092.70395252 2443.0795326 1092.70395252 2443.0795326 1092.65697479 2444.3083992 C1090.42726179 2502.62511697 1086.92850015 2560.93563625 1081 2619 C1080.88934204 2620.08792847 1080.77868408 2621.17585693 1080.66467285 2622.29675293 C1071.06147415 2716.1981489 1055.88028794 2810.38157841 998 2970 C997.52449707 2970.99483398 997.04899414 2971.98966797 996.55908203 2973.01464844 C984.35896282 2998.39317908 970.33648906 3022.67957372 952.125 3044.25 C945.94887781 3051.65441126 941.92691482 3059.24047341 938 3068 C935.88558091 3072.62987349 933.7584371 3077.25386278 931.625 3081.875 C931.34284637 3082.48646881 931.06069275 3083.09793762 930.76998901 3083.72793579 C920.0719193 3106.86574589 907.30664328 3129.12262177 890 3148 C889.13761719 3148.98419922 889.13761719 3148.98419922 888.2578125 3149.98828125 C882.71921143 3155.9815436 875.76222139 3160.50521092 869 3165 C868.31164062 3165.45761719 867.62328125 3165.91523438 866.9140625 3166.38671875 C851.43999164 3175.2440489 831.54735385 3174.43953396 815 3170 C793.40502442 3163.49548928 774.39119011 3151.09572575 757 3137 C755.78671954 3136.0348278 754.57314979 3135.07001922 753.359375 3134.10546875 C745.57628993 3127.88652058 738.08326587 3121.46691824 730.82421875 3114.64453125 C727.91462947 3111.92006107 724.94042948 3109.29066291 721.9296875 3106.6796875 C710.52894961 3096.75596828 699.33993915 3086.4906248 688.7421875 3075.7109375 C686.95180507 3073.95266956 685.09415767 3072.31849632 683.1875 3070.6875 C679.89606267 3067.86900707 676.88991111 3064.86202392 673.875 3061.75 C661.78699403 3049.49221278 647.33865501 3040.38292187 633 3031 C609.62852288 3015.70260052 609.62852288 3015.70260052 601 3008 C600.01644531 3007.13632813 599.03289063 3006.27265625 598.01953125 3005.3828125 C590.13482847 2998.34719418 582.93122425 2990.73282504 575.7421875 2982.99609375 C572.70723894 2979.73562634 569.60871573 2976.56534043 566.4375 2973.4375 C563.09825693 2970.13708534 559.95281945 2966.75085592 556.90234375 2963.18359375 C554.99285302 2960.99179638 553.02934178 2958.85615136 551.05200195 2956.72558594 C546.22054521 2951.51802777 541.63689492 2946.1842574 537.1796875 2940.6484375 C535.02242601 2938.02724881 532.78689 2935.50845719 530.5 2933 C525.79541657 2927.82495823 521.3938261 2922.43932438 517 2917 C515.96556556 2915.73378497 514.93036378 2914.46819657 513.89453125 2913.203125 C507.94446796 2905.92730416 502.07680339 2898.60310804 496.3828125 2891.125 C494.80429737 2889.05481622 493.21584553 2886.99216868 491.6171875 2884.9375 C485.07247724 2876.51986622 478.80328866 2867.91828914 472.60400391 2859.24365234 C471.58484308 2857.81806817 470.56388881 2856.39376313 469.54052734 2854.97119141 C451.66873679 2830.12474033 434.74605285 2804.39773887 419.203125 2778.03222656 C417.85349731 2775.75253889 416.4894662 2773.48177359 415.125 2771.2109375 C400.81572137 2747.31225313 387.63673784 2722.81850763 375 2698 C374.4848584 2696.99163086 373.9697168 2695.98326172 373.43896484 2694.94433594 C352.75247236 2654.3682624 335.17602954 2612.54764117 319 2570 C318.73251953 2569.29681641 318.46503906 2568.59363281 318.18945312 2567.86914062 C310.18294536 2546.78329956 302.9618308 2525.44933739 296 2504 C295.76367859 2503.27276733 295.52735718 2502.54553467 295.28387451 2501.79626465 C275.86055225 2441.9467156 260.18399242 2380.7281918 248 2319 C247.82700378 2318.12603577 247.65400757 2317.25207153 247.47576904 2316.35162354 C226.49171167 2210.04506182 214.26532216 2102.12936141 208 1994 C207.93790344 1992.94220337 207.87580688 1991.88440674 207.81182861 1990.79455566 C204.29126256 1930.78888121 202.70155283 1870.88567297 202.63114142 1810.79158865 C202.62104986 1802.59332734 202.59904017 1794.39510746 202.57652331 1786.19687239 C202.5365017 1771.54882172 202.50381188 1756.90076569 202.47680664 1742.25268555 C202.47520934 1741.387256 202.47361204 1740.52182644 202.47196633 1739.63017175 C202.47036743 1738.76366442 202.46876853 1737.8971571 202.46712118 1737.00439197 C202.44432214 1724.65844102 202.41966141 1712.31249559 202.39282227 1699.96655273 C202.39092612 1699.09345324 202.38902997 1698.22035375 202.38707637 1697.32079669 C202.35510549 1682.6703158 202.31936748 1668.0198454 202.28178078 1653.36937791 C202.25905637 1644.41969338 202.23999667 1635.4700156 202.22611404 1626.52031288 C202.2164556 1620.39357098 202.20355648 1614.26684121 202.18830519 1608.14011069 C202.17970964 1604.63390363 202.17251392 1601.12771112 202.16966438 1597.62149429 C202.16059105 1588.74687534 202.10274921 1579.87402005 202 1571 C201.99339935 1570.29895418 201.98679869 1569.59790836 201.97999802 1568.87561873 C201.93819196 1564.43818222 201.87450258 1560.00192449 201.78306849 1555.56522319 C201.75678712 1554.1583826 201.7367368 1552.75140789 201.72376227 1551.34438165 C201.57880319 1536.90509809 197.36863023 1525.29150982 191.5625 1512.25 C190.59897661 1509.97600909 189.64100067 1507.69966066 188.68823242 1505.42114258 C186.75506142 1500.81216111 184.7968592 1496.21518234 182.81835938 1491.62548828 C180.1748458 1485.45919577 177.67394686 1479.24550997 175.234375 1472.99609375 C174.86372421 1472.04751495 174.49307343 1471.09893616 174.1111908 1470.12161255 C173.37594163 1468.23931564 172.64078728 1466.3569817 171.9057312 1464.47460938 C164.33336701 1445.16944574 155.98946644 1426.26277621 147.36598206 1407.40881348 C143.18669837 1398.25343071 139.15497082 1389.03432648 135.125 1379.8125 C128.83579525 1365.43854917 122.50270769 1351.0849093 116.125 1336.75 C115.70913635 1335.81523834 115.29327271 1334.88047668 114.86480713 1333.91738892 C112.75450777 1329.17449391 110.64352023 1324.43190559 108.53222656 1319.68945312 C104.7669279 1311.23085306 101.0076752 1302.76956604 97.24798584 1294.30847168 C95.16557343 1289.62220355 93.0827667 1284.93611068 91 1280.25 C90.16666478 1278.37500084 89.33333145 1276.50000084 88.5 1274.625 C88.0875 1273.696875 87.675 1272.76875 87.25 1271.8125 C83.49999999 1263.37499999 83.49999999 1263.37499999 82.25003052 1260.56256104 C81.41660301 1258.68735423 80.58316795 1256.81215078 79.74972534 1254.93695068 C77.66777098 1250.2526423 75.5859474 1245.56827588 73.50439453 1240.88378906 C69.31573317 1231.4576879 65.12481499 1222.03260031 60.9296875 1212.609375 C56.35840654 1202.34013227 51.7944236 1192.06766919 47.23803711 1181.79180908 C46.40512235 1179.91356248 45.57194716 1178.03543135 44.73852539 1176.15740967 C42.25116294 1170.55198296 39.76881202 1164.94438524 37.29351807 1159.33361816 C36.53052264 1157.60580913 35.76606128 1155.8786465 34.99993896 1154.15222168 C28.42272263 1139.32467302 22.48534563 1124.46794953 17.9375 1108.875 C17.59879883 1107.71758301 17.26009766 1106.56016602 16.91113281 1105.36767578 C11.46287994 1086.45979725 7.87785062 1067.45417258 5 1048 C4.67 1048 4.34 1048 4 1048 Z M198 1449 C200.35119021 1456.96105743 200.35119021 1456.96105743 203.14135742 1464.68310547 C203.53574509 1465.67889618 203.93013275 1466.67468689 204.33647156 1467.70065308 C204.75524063 1468.74560944 205.1740097 1469.7905658 205.60546875 1470.8671875 C206.04836746 1471.98199493 206.49126617 1473.09680237 206.94758606 1474.24539185 C208.3569684 1477.79017058 209.77213854 1481.33260499 211.1875 1484.875 C212.11821946 1487.21339009 213.04856106 1489.55193061 213.97851562 1491.890625 C215.72061155 1496.26898291 217.46445114 1500.64663303 219.21166992 1505.02294922 C219.61255294 1506.0645177 220.01343596 1507.10608618 220.42646694 1508.17921734 C221.48299438 1510.84348489 222.68073302 1513.3775325 223.98769951 1515.92748165 C231.24110866 1530.80066519 231.13504735 1545.62312817 230.99840891 1561.80220926 C230.97380962 1565.77842774 230.99611901 1569.75444373 231.01235962 1573.73066711 C231.03422691 1580.60038042 231.02740845 1587.4695657 231.00047112 1594.33925438 C230.9615899 1604.28969947 230.96839407 1614.23972087 230.98592908 1624.19020764 C231.01330621 1640.3641041 231.00601396 1656.53778548 230.97583008 1672.71166992 C230.94670151 1688.36761843 230.93147422 1704.02346652 230.93676758 1719.67944336 C230.93708738 1720.64431159 230.93740719 1721.60917981 230.93773668 1722.60328647 C230.94117331 1732.21175314 230.94665272 1741.82021863 230.9520642 1751.42868435 C230.95465356 1756.10181427 230.95703112 1760.77494429 230.95936584 1765.44807434 C230.95985226 1766.36134146 230.96033867 1767.27460858 230.96083982 1768.21555046 C230.96724267 1780.80518779 230.96015486 1793.39474881 230.94274865 1805.98437457 C230.93630694 1811.03105861 230.93247722 1816.07774534 230.92877399 1821.12443205 C230.92564206 1825.0374777 230.9206865 1828.95050131 230.91108513 1832.86353683 C230.81666512 1853.28929816 230.81666512 1853.28929816 231.75963879 1873.68674946 C232.19055863 1879.62674859 232.2878174 1885.57855979 232.4296875 1891.53125 C232.48226385 1893.57144875 232.53609247 1895.61161229 232.58996201 1897.65177727 C232.62746908 1899.0735698 232.66469063 1900.49536989 232.70163345 1901.9171772 C233.92532715 1948.95732939 236.22329073 1995.87138952 240.21983337 2042.76428223 C240.85150737 2050.18208082 241.4522671 2057.60196142 242.0390625 2065.0234375 C243.67333261 2085.64273243 245.31259345 2106.24582796 247.74023438 2126.78961182 C248.04106581 2129.34943568 248.33704982 2131.90980041 248.6328125 2134.47021484 C251.58136308 2159.95259313 254.68148863 2185.38989371 258.64709473 2210.73535156 C259.02436887 2213.15637887 259.39687248 2215.5781081 259.76855469 2218 C267.02221153 2265.20622066 275.21977376 2312.34089038 286.3046875 2358.8125 C288.02096486 2366.02282635 289.60816929 2373.25868083 291.1875 2380.5 C292.88221509 2388.21811327 294.66789525 2395.83157849 296.94921875 2403.3984375 C298.34895778 2408.19605602 299.5720424 2413.03416044 300.8125 2417.875 C303.71442216 2429.13553761 306.9468472 2440.28618016 310.24658203 2451.43554688 C311.21175487 2454.72076253 312.13856185 2458.0154593 313.0625 2461.3125 C325.53186551 2504.92940922 340.98030889 2547.96813056 358 2590 C358.63687744 2591.5785376 358.63687744 2591.5785376 359.28662109 2593.18896484 C371.65554948 2623.72934139 385.47054303 2653.61192715 400.07946777 2683.13677979 C401.44695607 2685.90466966 402.80469972 2688.67733131 404.1640625 2691.44921875 C409.36529399 2702.00794189 414.83377239 2712.37378281 420.64599609 2722.60839844 C422.10397423 2725.18365156 423.54684632 2727.7670158 424.98828125 2730.3515625 C441.40032229 2759.70284147 459.19227959 2788.1309173 478 2816 C478.5451123 2816.81065918 479.09022461 2817.62131836 479.65185547 2818.45654297 C487.30759591 2829.82861761 495.25454199 2840.95096301 503.45751953 2851.93457031 C504.80771387 2853.74252285 506.1530415 2855.5539285 507.49609375 2857.3671875 C512.28665634 2863.80584026 517.20696535 2870.13464974 522.18359375 2876.4296875 C524.04173233 2878.78012048 525.88770445 2881.13923688 527.72265625 2883.5078125 C532.8700284 2890.1384357 538.15765674 2896.60667619 543.65332031 2902.95214844 C546.72773849 2906.50325165 549.7334213 2910.09721747 552.6875 2913.75 C556.95168636 2918.99763834 561.44237061 2924.0071803 566 2929 C567.50129555 2930.66549976 569.00129422 2932.33216944 570.5 2934 C571.61375 2935.2375 571.61375 2935.2375 572.75 2936.5 C575 2939 577.25 2941.5 579.5 2944 C580.62921875 2945.25103516 580.62921875 2945.25103516 581.78125 2946.52734375 C583.18702976 2948.09399619 584.58402377 2949.66861452 585.96875 2951.25390625 C593.57279042 2959.89619066 601.82587711 2967.90252301 610 2976 C614.63917526 2980.60051546 614.63917526 2980.60051546 616.640625 2982.81640625 C627.54438521 2994.64645677 642.62031803 3002.74171589 656.08032227 3011.25415039 C662.61099529 3015.40362329 668.90823188 3019.67770121 674.9609375 3024.49609375 C677.02354945 3026.17930093 677.02354945 3026.17930093 680 3027 C678.5854522 3023.20902916 676.83942862 3019.81143117 674.8046875 3016.31640625 C673.8609729 3014.68928711 673.8609729 3014.68928711 672.89819336 3013.02929688 C672.56786102 3012.46331787 672.23752869 3011.89733887 671.89718628 3011.31420898 C670.86119181 3009.53883707 669.8295651 3007.76099208 668.79907227 3005.98242188 C666.4505996 3001.93054342 664.09654836 2997.88191981 661.73876953 2993.83544922 C654.50170019 2981.40271356 647.76454603 2968.69389148 641 2956 C640.289646 2954.6704126 640.289646 2954.6704126 639.56494141 2953.31396484 C623.14821164 2922.50465124 607.53214665 2891.20630653 593.36419678 2859.29916382 C591.24818274 2854.53658136 589.07100935 2849.80470231 586.875 2845.07861328 C545.58174459 2756.08611752 510.85435572 2663.55350713 477 2565 C476.45472656 2563.40995148 476.45472656 2563.40995148 475.8984375 2561.78778076 C465.47676167 2531.38070268 455.26019947 2500.91308461 445.38327026 2470.32460022 C443.81336157 2465.47244036 442.2095485 2460.63315515 440.57917786 2455.80099487 C437.97942606 2448.08985371 435.60654789 2440.363055 433.5 2432.5 C431.51927744 2425.26072197 429.45154117 2418.09415238 427 2411 C424.22631826 2402.95807903 421.93598661 2394.81077208 419.68237305 2386.60961914 C417.67929067 2379.34561515 415.54240313 2372.1348784 413.3125 2364.9375 C410.92414608 2357.20870302 408.78608448 2349.47622543 406.890625 2341.61328125 C405.43147151 2335.69346994 403.69644762 2329.85527628 402 2324 C398.20030235 2310.77194811 394.77298536 2297.45302192 391.38598633 2284.11450195 C389.52491895 2276.80511853 387.60217718 2269.52122353 385.5546875 2262.26171875 C382.67168352 2252.00410049 380.13801107 2241.66595162 377.625 2231.3125 C377.38566742 2230.32967041 377.14633484 2229.34684082 376.89974976 2228.33422852 C372.74483408 2211.26255072 368.76591542 2194.16206079 365 2177 C364.6871452 2175.58619743 364.37398469 2174.17246249 364.06054688 2172.75878906 C356.26888226 2137.58639677 349.35715714 2102.32725855 343.70117188 2066.74511719 C343.38814675 2064.77667268 343.07499898 2062.80824767 342.76171875 2060.83984375 C342.61290253 2059.90463898 342.4640863 2058.9694342 342.3107605 2058.00588989 C341.02074049 2049.97449798 339.56073466 2041.98311801 338 2034 C339.17175781 2033.95101562 340.34351563 2033.90203125 341.55078125 2033.8515625 C350.17394033 2033.45409306 358.5517538 2032.9166726 367 2031 C367.60714196 2035.20190326 368.19165271 2039.40617999 368.76171875 2043.61328125 C374.80718639 2087.68981162 383.57960827 2131.39518291 393.48706055 2174.75286865 C394.0145067 2177.06355224 394.53979201 2179.37471769 395.06445312 2181.68603516 C397.35914081 2191.7946423 399.6624836 2201.90120217 402 2212 C402.16970306 2212.73458435 402.33940613 2213.4691687 402.51425171 2214.22601318 C403.03722666 2216.48583377 403.56311835 2218.74495717 404.08984375 2221.00390625 C404.24676697 2221.68265305 404.40369019 2222.36139984 404.56536865 2223.06071472 C405.68237109 2227.83052306 406.96008063 2232.54189765 408.3125 2237.25 C410.5799366 2245.21958425 412.52616302 2253.25057862 414.4375 2261.3125 C416.71533926 2270.90330446 419.15988688 2280.40645898 421.93676758 2289.86450195 C423.45717254 2295.05070949 424.85090561 2300.2479982 426.125 2305.5 C427.48856127 2311.10147116 429.07168335 2316.59303318 430.80859375 2322.08984375 C432.44261715 2327.36074862 433.89507619 2332.68427368 435.375 2338 C435.98566217 2340.19141041 436.59633929 2342.38281665 437.20703125 2344.57421875 C437.50818848 2345.65493652 437.8093457 2346.7356543 438.11962891 2347.84912109 C443.05893719 2365.52707804 448.27934031 2383.11245102 453.6484375 2400.6640625 C453.88627457 2401.44170456 454.12411163 2402.21934662 454.36915588 2403.02055359 C455.56238214 2406.92120056 456.75689261 2410.82144585 457.95385742 2414.72094727 C458.40820197 2416.20323823 458.86238521 2417.68557866 459.31640625 2419.16796875 C459.54489258 2419.91333893 459.77337891 2420.65870911 460.00878906 2421.42666626 C461.44701236 2426.13605338 462.82311045 2430.86005292 464.1796875 2435.59375 C468.03136759 2448.86310231 472.49510639 2461.95336252 476.82382584 2475.07297516 C477.82213881 2478.09967735 478.818789 2481.1269261 479.81550121 2484.15415573 C482.24451772 2491.5312747 484.677173 2498.90718672 487.11250591 2506.28222275 C488.384674 2510.13500977 489.65529905 2513.98829851 490.92382812 2517.84228516 C504.20330878 2558.17916781 518.24900752 2598.23286799 533.13378906 2638.00537109 C534.75502558 2642.33897804 536.36083112 2646.67808871 537.9609375 2651.01953125 C560.86478313 2712.96318788 586.10575934 2774.04810758 613.29785156 2834.22802734 C614.45467089 2836.78915017 615.60737448 2839.35207047 616.75683594 2841.91650391 C626.10510249 2862.77104101 635.85680829 2883.40197127 645.96429443 2903.89929199 C646.98345209 2905.96643609 648.00086738 2908.0344306 649.01806641 2910.10253906 C656.48603184 2925.27128669 664.15731527 2940.2972146 672.38085938 2955.07373047 C674.17257278 2958.31189044 675.93879314 2961.56324973 677.703125 2964.81640625 C689.52481703 2986.56792796 702.27198487 3007.68009156 715.5625 3028.5625 C716.19285156 3029.55475586 716.82320312 3030.54701172 717.47265625 3031.56933594 C721.16759376 3037.32506222 725.04071128 3042.90478861 729.09594727 3048.41235352 C730.81033618 3050.742243 732.49595269 3053.08883552 734.16796875 3055.44921875 C740.93518141 3064.9668192 747.96411795 3074.18317087 755.453125 3083.14453125 C756.9075935 3084.88915887 758.34539498 3086.64630199 759.78125 3088.40625 C778.02929547 3110.51383783 804.24639165 3140.41094113 834.875 3143.375 C846.92918313 3142.79173307 858.01716996 3137.99621727 866.28515625 3129.1640625 C891.12062536 3097.8227188 898.01442015 3053.64593551 902.421875 3015.10546875 C902.52966089 3014.1709639 902.63744678 3013.23645905 902.74849892 3012.27363586 C904.95297014 2993.10509524 906.78468114 2973.91276473 908.45336533 2954.69103622 C908.6938529 2951.92698269 908.93656313 2949.16313186 909.17984009 2946.39932251 C915.5187726 2874.33150691 921.5792758 2802.20964614 926.55541992 2730.03393555 C927.31436175 2719.06534247 928.13070014 2708.12272772 929.2797699 2697.18763733 C930.17799463 2688.54536522 930.78926291 2679.88638965 931.37768555 2671.21826172 C931.5624524 2668.50070012 931.75255831 2665.78355017 931.94335938 2663.06640625 C932.61956033 2653.31805275 933.21489409 2643.57157995 933.629776 2633.80822754 C933.83656589 2629.23036675 934.22982102 2624.71562233 934.76493835 2620.16488647 C935.12639628 2616.83590704 935.29497086 2613.50376208 935.46484375 2610.16015625 C935.5436075 2608.66731706 935.62238401 2607.17447854 935.70117188 2605.68164062 C935.8182506 2603.40377428 935.93429398 2601.12585912 936.04956055 2598.84790039 C936.54073762 2589.22360002 937.17053406 2579.62175066 937.94140625 2570.015625 C938.76466513 2559.66637389 939.42399026 2549.31453351 940 2538.94921875 C940.04116503 2538.20856737 940.08233006 2537.46791599 940.12474251 2536.70482063 C940.37782627 2532.13410499 940.62710763 2527.56318733 940.875 2522.9921875 C941.24640906 2516.14433304 941.62100551 2509.29665766 942 2502.44921875 C942.04104229 2501.70640278 942.08208458 2500.96358681 942.12437057 2500.19826126 C942.75372845 2488.85708669 943.49108935 2477.52645361 944.29312134 2466.19602966 C945.10196035 2454.71978275 945.7611042 2443.23813674 946.375 2431.75 C946.43591827 2430.61784058 946.49683655 2429.48568115 946.55960083 2428.31921387 C947.01058687 2419.922627 947.45199339 2411.52555296 947.88912201 2403.12823486 C948.00176236 2400.9661725 948.11477385 2398.80412976 948.22784424 2396.64208984 C951.14707707 2340.76758334 953.52757071 2284.87601803 955.69101143 2228.96745586 C955.90896426 2223.33644325 956.12932489 2217.70553273 956.35205078 2212.07470703 C956.40546662 2210.71920368 956.45885795 2209.36369935 956.51222229 2208.00819397 C956.60410043 2205.67649825 956.69641527 2203.34481965 956.78941345 2201.01316833 C958.77629287 2150.3163075 959.18909911 2099.63507946 959.18511099 2048.90643781 C959.18546174 2042.35049553 959.19709446 2035.79460684 959.2110464 2029.23868138 C959.22431101 2022.76159263 959.22947926 2016.28452711 959.22884732 2009.80742496 C959.2285989 2006.00361983 959.23107114 2002.19988035 959.24202538 1998.39608955 C959.28506032 1982.33453584 959.00252141 1966.3420604 958.07543945 1950.30444336 C958.03415369 1949.58645038 957.99286793 1948.8684574 957.95033109 1948.12870705 C956.82360816 1928.95431349 955.05908313 1909.79844882 951 1891 C952.27746094 1890.72414063 953.55492187 1890.44828125 954.87109375 1890.1640625 C959.97095052 1889.03076099 965.01551282 1887.72190736 970.0625 1886.375 C970.92810547 1886.14554688 971.79371094 1885.91609375 972.68554688 1885.6796875 C974.7907894 1885.12139114 976.89545662 1884.56092611 979 1884 C979.09196655 1884.86467896 979.09196655 1884.86467896 979.18579102 1885.74682617 C979.6777536 1890.28632047 980.22940636 1894.80059752 980.9375 1899.3125 C981.09089844 1900.29863281 981.24429688 1901.28476563 981.40234375 1902.30078125 C981.7354521 1904.3625695 982.08115447 1906.42279601 982.47485352 1908.47387695 C984.13629975 1917.47936353 984.621654 1926.43535502 985.0625 1935.5625 C985.14064708 1937.0814127 985.21942086 1938.60029329 985.29882812 1940.11914062 C985.45553029 1943.12339825 985.60461369 1946.12791843 985.74980164 1949.13275146 C985.894452 1952.05247834 986.06452865 1954.96559605 986.25947571 1957.88275146 C987.27789666 1973.31956828 987.14720828 1988.77879028 987.1343255 2004.24092078 C987.13174462 2008.32767277 987.13415632 2012.41442282 987.13571167 2016.50117493 C987.13752295 2023.38921516 987.13516081 2030.27724462 987.13037109 2037.1652832 C987.12558337 2044.128181 987.12550939 2051.09105734 987.13037109 2058.05395508 C987.19432705 2152.19945474 987.19432705 2152.19945474 985.12747192 2196.15261841 C984.43441654 2210.95400498 983.89101163 2225.74896913 983.61074829 2240.56375122 C982.65920752 2289.84345196 979.50034917 2339.0968981 976.9375 2388.3125 C976.87232304 2389.56446545 976.80714607 2390.81643089 976.73999405 2392.10633469 C972.79699696 2467.80512896 972.79699696 2467.80512896 970.25411987 2505.59439087 C969.03970693 2523.66153618 967.85033379 2541.7272341 966.9375 2559.8125 C966.26584613 2573.11589431 965.33599791 2586.38830812 964.30197144 2599.66827393 C963.5203712 2609.71693485 962.80364798 2619.76164717 962.26367188 2629.82641602 C962.17604808 2631.4467918 962.08810376 2633.06715025 962 2634.6875 C961.89838058 2636.57804863 961.89838058 2636.57804863 961.79470825 2638.50679016 C961.2868107 2647.75448987 960.6413955 2656.98098307 959.86450577 2666.21012115 C959.52846157 2670.21031576 959.2012695 2674.21123566 958.87402344 2678.2121582 C958.76845847 2679.50204556 958.76845847 2679.50204556 958.66076088 2680.81799126 C957.77910399 2691.64126729 956.95583672 2702.46900992 956.1328125 2713.296875 C956.05243933 2714.35376966 955.97206615 2715.41066433 955.88925743 2716.49958611 C955.47254644 2721.9816286 955.05659012 2727.46372797 954.64108276 2732.94586182 C954.11270199 2739.915693 953.5820183 2746.88534788 953.05102539 2753.85498047 C951.61414778 2772.72033167 950.17730393 2791.58565836 948.76805878 2810.45309639 C946.00170749 2847.45647097 942.81066948 2884.41276696 939.48653793 2921.36933899 C938.47156995 2932.65702763 937.47793728 2943.94631451 936.51171875 2955.23828125 C936.45413013 2955.91072813 936.39654152 2956.58317501 936.33720779 2957.27599907 C935.7536627 2964.09246143 935.17400201 2970.90924388 934.59765625 2977.72631836 C934.41316079 2979.89570466 934.22827921 2982.06505817 934.04296875 2984.234375 C933.95614838 2985.25165176 933.869328 2986.26892853 933.77987671 2987.31703186 C933.15631915 2994.49919028 932.43845679 3001.668176 931.59965515 3008.82855225 C931.0639007 3013.58335162 930.92566368 3018.2142208 931 3023 C935.08896567 3019.14850602 938.34704298 3015.03544303 941.5625 3010.4375 C942.08279785 3009.6935498 942.6030957 3008.94959961 943.13916016 3008.18310547 C978.13990754 2957.4673069 999.71650628 2897.31378722 1014.9375 2837.9375 C1015.18709473 2836.96748047 1015.43668945 2835.99746094 1015.69384766 2834.99804688 C1016.2115001 2832.98196098 1016.72778467 2830.96552335 1017.24267578 2828.94873047 C1017.96112687 2826.15135709 1018.69563764 2823.35868631 1019.43359375 2820.56640625 C1028.74600623 2784.91326059 1034.63611216 2748.54052001 1040.4831543 2712.19348145 C1040.99812264 2709.01159984 1041.5224821 2705.83138462 1042.04882812 2702.65136719 C1044.38175775 2688.47029053 1046.34753014 2674.2760918 1048 2660 C1048.11758667 2658.98625305 1048.23517334 2657.9725061 1048.35632324 2656.92803955 C1049.23290494 2649.31009869 1050.0645978 2641.68774528 1050.875 2634.0625 C1051.00217407 2632.86864685 1051.12934814 2631.6747937 1051.26037598 2630.44476318 C1054.25496978 2602.10496559 1056.41590345 2573.71121677 1058.46899414 2545.29003906 C1058.81092938 2540.56188518 1059.16383923 2535.83481026 1059.52905273 2531.10839844 C1060.78760213 2514.74955277 1061.75291101 2498.38695562 1062.5625 2482 C1062.62725525 2480.70915497 1062.6920105 2479.41830994 1062.75872803 2478.08834839 C1063.72360162 2458.72672027 1064.44542741 2439.37472547 1064.7412262 2419.99108887 C1064.75701218 2419.1187561 1064.77279816 2418.24642334 1064.7890625 2417.34765625 C1064.79998275 2416.70226104 1064.810903 2416.05686582 1064.82215416 2415.39191318 C1064.91709888 2410.48658601 1065.10457588 2405.59488228 1065.36687011 2400.69581151 C1065.95469689 2389.67961881 1066.14897557 2378.69877229 1066.14526367 2367.66894531 C1066.14826932 2365.8398329 1066.15167497 2364.01072111 1066.15544128 2362.18161011 C1066.16418053 2357.25967599 1066.16661618 2352.33775934 1066.16725707 2347.41581821 C1066.16797767 2344.28944542 1066.17013137 2341.16307677 1066.17275429 2338.03670502 C1066.18200114 2326.97629019 1066.18609328 2315.9158873 1066.18530273 2304.85546875 C1066.18477829 2295.90688235 1066.19162855 2286.95834063 1066.20581055 2278.00976562 C1066.32003536 2204.15879111 1065.69118932 2130.34103775 1062.37497234 2056.55402756 C1061.85499762 2044.9238274 1061.42993771 2033.2900642 1061 2021.65625 C1060.91721952 2019.42803942 1060.83443551 2017.19982897 1060.75164795 2014.97161865 C1056.86873946 1910.18767603 1056.86873946 1910.18767603 1056.03820038 1866.0200119 C1055.99975368 1863.98697475 1055.95992 1861.95396783 1055.91998291 1859.92095947 C1055.38326383 1832.13653371 1055.08924759 1804.99256462 1059.92974854 1777.57333374 C1061.59283802 1767.9217518 1062.524888 1758.17188159 1063.5625 1748.4375 C1063.87647404 1745.5278354 1064.19159082 1742.61829622 1064.5068512 1739.70877075 C1064.71243101 1737.81125908 1064.9175433 1735.91369669 1065.12217712 1734.01608276 C1065.94281416 1726.43558736 1066.84048457 1718.86600718 1067.75952148 1711.29693604 C1069.83089259 1694.20391861 1071.52706671 1677.07672397 1073.21484375 1659.94213867 C1074.24483547 1649.49460869 1075.2912955 1639.05356969 1076.5 1628.625 C1078.30832149 1612.97799603 1079.72473654 1597.28914271 1081.19921875 1581.60791016 C1082.11748984 1571.88151346 1083.05547393 1562.16534234 1084.23829651 1552.46728516 C1084.97533451 1546.3685942 1085.6033503 1540.26049502 1086.21875 1534.1484375 C1086.37578651 1532.58994583 1086.37578651 1532.58994583 1086.53599548 1530.99996948 C1086.96691434 1526.71111563 1087.39576711 1522.42205959 1087.82275391 1518.1328125 C1088.9120764 1507.20983369 1090.02714308 1496.31086915 1091.54003906 1485.4375 C1092.36879887 1479.24379616 1092.99142148 1473.0286811 1093.625 1466.8125 C1093.82609375 1464.88954102 1093.82609375 1464.88954102 1094.03125 1462.92773438 C1094.75585327 1455.97768196 1094.75585327 1455.97768196 1095 1449 C798.99 1449 502.98 1449 198 1449 Z " fill="#FEFEFE" transform="translate(0,0)"/>
<path d="M0 0 C394.68 0 789.36 0 1196 0 C1196 1312.08 1196 2624.16 1196 3976 C801.32 3976 406.64 3976 0 3976 C0 2663.92 0 1351.84 0 0 Z M4 4 C4 323.77 4 643.54 4 973 C4.33 973 4.66 973 5 973 C5.17221069 972.04468384 5.17221069 972.04468384 5.34790039 971.07006836 C14.43288432 921.43774041 35.30602512 875.75135075 69.734375 838.4765625 C71.57948676 836.45966447 73.3641413 834.41302165 75.14453125 832.33984375 C79.52442429 827.32153356 84.21871797 822.6350422 88.9375 817.9375 C90.22043945 816.64875977 90.22043945 816.64875977 91.52929688 815.33398438 C95.96677052 810.90328033 100.46709502 806.61719669 105.22387695 802.53100586 C107.74934056 800.35407359 110.1829117 798.0821642 112.625 795.8125 C121.86465558 787.28977849 131.46411997 779.19322457 141.2265625 771.27734375 C143.77243504 769.18685968 146.28042088 767.06012393 148.78173828 764.91699219 C154.25788415 760.2305353 159.83960005 755.78674462 165.64453125 751.5078125 C169.78438798 748.44059531 173.82076728 745.24139184 177.875 742.0625 C184.83806938 736.6205 191.91489641 731.40118906 199.14257812 726.31884766 C201.18546841 724.86830962 203.21095406 723.39553871 205.234375 721.91796875 C214.96152785 714.81836904 224.83607876 708.00725868 234.89648438 701.38916016 C236.87015347 700.08575055 238.83535521 698.77082107 240.796875 697.44921875 C266.4538317 680.1685038 293.01592557 664.11561921 320 649 C321.03979004 648.41508789 322.07958008 647.83017578 323.15087891 647.22753906 C337.76324503 639.01382866 352.47769109 631.04621711 367.37451172 623.36132812 C370.67194793 621.65159181 373.95357867 619.91302369 377.234375 618.17163086 C414.86363603 598.22449217 453.91519197 579.18173668 496 571 C497.09699219 570.773125 498.19398438 570.54625 499.32421875 570.3125 C546.22275989 562.00574733 590.6704962 581.25000286 632 601 C633.02785614 601.49104218 633.02785614 601.49104218 634.07647705 601.99200439 C639.36969814 604.52351907 644.65519486 607.0707972 649.9375 609.625 C650.64968689 609.96854523 651.36187378 610.31209045 652.09564209 610.66604614 C659.93621991 614.45371288 667.70495169 618.34427118 675.390625 622.4375 C684.31585039 627.18263417 693.34653586 631.70611645 702.39453125 636.2109375 C703.13409498 636.5793639 703.87365871 636.9477903 704.63563347 637.32738113 C711.58028824 640.78656723 718.52734154 644.24091792 725.47680664 647.69042969 C742.39036105 656.08805261 759.20827504 664.56447034 775.71707153 673.74102783 C779.25844255 675.6939964 782.83153818 677.58513197 786.41015625 679.46875 C787.0478746 679.80485291 787.68559296 680.14095581 788.34263611 680.48724365 C789.60612238 681.15289509 790.86973756 681.8183019 792.13348389 682.48345947 C804.33979269 688.91586172 816.42225694 695.51543476 828.34619141 702.46044922 C831.24829801 704.14404483 834.16041774 705.80938621 837.07421875 707.47265625 C849.52893842 714.59478438 861.86096581 721.89717442 874.10449219 729.375 C883.13133022 734.88517245 892.21127707 740.30120786 901.3125 745.6875 C914.26922427 753.3598656 927.1704625 761.11621836 940 769 C941.31436035 769.80679199 941.31436035 769.80679199 942.65527344 770.62988281 C971.70117241 788.47710492 1000.60468973 806.67942392 1028 827 C1029.03253906 827.76054688 1030.06507812 828.52109375 1031.12890625 829.3046875 C1034.10326982 831.51421472 1037.0571703 833.7487952 1040 836 C1040.66999023 836.51143555 1041.33998047 837.02287109 1042.03027344 837.54980469 C1058.60647767 850.23261349 1074.76751 863.48864984 1089.38671875 878.421875 C1091.04562215 880.04462797 1092.78035022 881.51424987 1094.5625 883 C1104.76101817 891.80961491 1113.72863639 902.40490882 1122 913 C1122.48823242 913.62100586 1122.97646484 914.24201172 1123.47949219 914.88183594 C1160.76933845 962.41788919 1183.34841891 1017.15592679 1191 1077 C1191.33 1077 1191.66 1077 1192 1077 C1192 722.91 1192 368.82 1192 4 C799.96 4 407.92 4 4 4 Z M480.25 605.25 C478.67931763 605.71623779 478.67931763 605.71623779 477.0769043 606.19189453 C468.55346837 608.76013432 460.23666528 611.62937617 452 615 C451.28005859 615.29003906 450.56011719 615.58007812 449.81835938 615.87890625 C413.00144142 630.80552778 377.0389913 649.593856 342.67285156 669.46435547 C339.91478436 671.0489593 337.14358432 672.60791104 334.3671875 674.16015625 C312.96504045 686.12908625 292.07028783 698.76673203 271.61401367 712.28955078 C268.95526223 714.02927364 266.27609314 715.73277994 263.58984375 717.4296875 C257.62611718 721.21233386 251.774003 725.14954993 245.9375 729.125 C245.39575134 729.49372223 244.85400269 729.86244446 244.2958374 730.24234009 C235.15237955 736.4707957 226.11937867 742.8351562 217.20214844 749.38330078 C214.85973682 751.1029737 212.51199231 752.81521427 210.1640625 754.52734375 C200.6241734 761.50131207 191.23425666 768.62672874 182 776 C181.13375 776.68320312 180.2675 777.36640625 179.375 778.0703125 C174.11985084 782.23063892 168.98828099 786.52254611 163.88427734 790.86547852 C160.47531912 793.76324292 157.03643016 796.6174861 153.5625 799.4375 C143.27318813 807.8384555 133.30966195 816.50710116 123.6809082 825.66064453 C120.50532492 828.67599384 117.3007608 831.6311816 113.98828125 834.49609375 C110.02878881 837.93589078 106.26816335 841.53946719 102.5625 845.25 C101.58482666 846.22888184 101.58482666 846.22888184 100.58740234 847.22753906 C96.17095323 851.69992036 92.06304172 856.27059765 88.18994141 861.22558594 C86.083743 863.89390687 83.91851619 866.50143612 81.73828125 869.109375 C62.02810612 893.17985107 47.36987338 921.04898251 39 951 C38.60554688 952.28777344 38.60554688 952.28777344 38.203125 953.6015625 C35.65092652 962.22174308 34.23774375 971.10708024 33 980 C32.90138672 980.69270996 32.80277344 981.38541992 32.70117188 982.09912109 C31.60076085 991.18147039 31.75607077 1000.36554497 31.75 1009.5 C31.74932526 1010.41184052 31.74865051 1011.32368103 31.74795532 1012.26315308 C31.78417317 1043.15765285 36.88094425 1072.38863565 46.04370117 1101.88842773 C46.73224177 1104.12877746 47.39612498 1106.37675889 48.04418945 1108.62915039 C50.91690253 1118.46730337 54.74011952 1127.65991479 59.03930664 1136.95458984 C61.05994942 1141.32412781 63.04849572 1145.70831585 65.04296875 1150.08984375 C65.66122025 1151.44443192 65.66122025 1151.44443192 66.29196167 1152.8263855 C70.62815068 1162.34060718 74.81762264 1171.91743709 79 1181.5 C84.91691887 1195.03821051 90.91623029 1208.53596277 97 1222 C103.46926155 1236.31717215 109.83051423 1250.67794248 116.125 1265.07275391 C121.6711542 1277.75139722 127.30169799 1290.38904429 133 1303 C139.46517323 1317.30812426 145.8233294 1331.65943774 152.11291504 1346.04556274 C158.63377611 1360.95543024 165.27690488 1375.8077713 171.98828125 1390.6328125 C172.69550466 1392.19652769 173.40254124 1393.76032739 174.109375 1395.32421875 C174.61204895 1396.43583878 174.61204895 1396.43583878 175.12487793 1397.56991577 C177.7987539 1403.50440828 180.36229949 1409.4813345 182.87988281 1415.48364258 C183.77124269 1417.89072317 183.77124269 1417.89072317 185 1419 C186.99935864 1419.09825062 189.00225809 1419.1244714 191.00402933 1419.1241985 C192.3207202 1419.12644579 193.63741107 1419.12869308 194.99400166 1419.13100848 C196.47739348 1419.12844216 197.96078515 1419.12578522 199.44417667 1419.12304783 C201.00921988 1419.12378655 202.57426292 1419.12496416 204.1393055 1419.12654433 C208.48005167 1419.12963421 212.82077468 1419.12642107 217.16151914 1419.12226619 C221.868692 1419.11884965 226.57586237 1419.1211994 231.2830357 1419.12284368 C239.54617922 1419.12492362 247.80931557 1419.12326313 256.07245827 1419.11920547 C268.35959089 1419.11318851 280.64671896 1419.11286798 292.93385279 1419.11374746 C313.599367 1419.11506367 334.26487803 1419.11171122 354.93039131 1419.10573006 C375.40218687 1419.09982011 395.8739811 1419.09596554 416.34577751 1419.09487724 C417.61698877 1419.0948085 418.88820003 1419.09473976 420.19793284 1419.09466894 C426.65334506 1419.09433062 433.10875729 1419.09402923 439.56416952 1419.09374207 C485.32948322 1419.0916397 531.09479478 1419.08489767 576.86010742 1419.07543945 C587.95841471 1419.07314784 599.05672199 1419.07087249 610.1550293 1419.06866455 C610.84332724 1419.0685276 611.53162518 1419.06839065 612.24078063 1419.06824955 C644.2251317 1419.061908 676.20948293 1419.0581807 708.19383446 1419.05512976 C710.26973283 1419.05493169 712.3456312 1419.0547325 714.42152957 1419.05453308 C728.17836767 1419.05321332 741.93520578 1419.05193867 755.6920439 1419.05069422 C783.71819347 1419.04815855 811.74434302 1419.04533651 839.77049255 1419.04234314 C841.70353663 1419.0421372 841.70353663 1419.0421372 843.67563211 1419.04192711 C929.78375546 1419.03272101 1015.89187785 1419.01687518 1102 1419 C1103.77722549 1414.22987276 1105.55310513 1409.45924728 1107.32782078 1404.68818569 C1107.92982708 1403.07033035 1108.53218016 1401.45260399 1109.13490772 1399.8350172 C1113.44991191 1388.25354534 1117.67364313 1376.65013595 1121.63256836 1364.94116211 C1122.458812 1362.49952068 1123.29445355 1360.06122386 1124.13085938 1357.62304688 C1129.53430558 1341.79046508 1134.368311 1325.8045509 1138.625 1309.625 C1139.17854214 1307.53355069 1139.73323583 1305.44240583 1140.2890625 1303.3515625 C1140.56451904 1302.31459229 1140.83997559 1301.27762207 1141.1237793 1300.20922852 C1142.03913621 1296.85666048 1143.01580464 1293.52551953 1143.99609375 1290.19140625 C1146.16494015 1282.63790953 1147.84484388 1275.00299276 1149.4375 1267.3125 C1149.58684998 1266.59602295 1149.73619995 1265.8795459 1149.89007568 1265.14135742 C1150.80182224 1260.76333228 1151.70085591 1256.38283999 1152.59185791 1252.00054932 C1152.96545202 1250.1693404 1153.34450901 1248.33924819 1153.72412109 1246.50927734 C1161.63830048 1208.09313907 1165.1438335 1168.81122559 1165.1875 1129.625 C1165.18867828 1128.82205505 1165.18985657 1128.01911011 1165.19107056 1127.1918335 C1165.18848742 1111.74748485 1164.66777726 1096.3301005 1162.6875 1081 C1162.55851318 1079.98800537 1162.42952637 1078.97601074 1162.29663086 1077.93334961 C1161.17090058 1069.51793467 1159.52045282 1061.31075759 1157.49414062 1053.07080078 C1157.01490143 1051.06244759 1156.58571831 1049.05007791 1156.171875 1047.02734375 C1148.75621522 1011.61042952 1132.25959022 977.15946068 1111 948 C1110.60039063 947.44876465 1110.20078125 946.8975293 1109.7890625 946.32958984 C1102.02076962 935.65796267 1093.67372635 925.574412 1084.69140625 915.9140625 C1082.22971743 913.24872163 1079.83070225 910.53914665 1077.4375 907.8125 C1073.69278321 903.63390336 1069.68103212 899.91131707 1065.46484375 896.21484375 C1063.06418577 894.05767564 1060.81183808 891.81349033 1058.5625 889.5 C1054.58266696 885.47137741 1050.3524422 881.90739826 1045.93359375 878.37109375 C1043.38540323 876.31150434 1040.89111837 874.20245362 1038.41040039 872.0625 C1030.56265278 865.3094802 1022.34576276 859.12061267 1014 853 C1013.31341309 852.49243164 1012.62682617 851.98486328 1011.91943359 851.46191406 C994.11718136 838.3104017 975.58119981 826.22594729 956.96386719 814.26806641 C955.0239152 813.01544201 953.09288355 811.75015324 951.1640625 810.48046875 C933.65747742 798.98782863 915.60709446 788.33393911 897.63720703 777.58691406 C892.36082929 774.42810699 887.10358464 771.23906172 881.85317993 768.03727722 C867.3801104 759.21275153 852.82119644 750.55018905 838.17408752 742.01768494 C834.37364974 739.80349336 830.57949177 737.57893207 826.7890625 735.34765625 C798.28982887 718.59384448 769.24062869 702.80244556 739.85546875 687.66015625 C739.17667727 687.31031866 738.49788578 686.96048107 737.79852486 686.60004234 C717.22072628 676.00519632 696.52897674 665.6347192 675.8347168 655.26977539 C671.23243609 652.96419229 666.63262419 650.65379125 662.03491211 648.33911133 C614.75720564 623.75953757 614.75720564 623.75953757 565 605 C564.19095215 604.74895508 563.3819043 604.49791016 562.54833984 604.23925781 C549.19905949 600.22547996 536.15001986 599.55037959 522.3125 599.5625 C521.49380432 599.56218781 520.67510864 599.56187561 519.831604 599.56155396 C506.03530946 599.60153368 493.51045128 601.27915357 480.25 605.25 Z M4 1048 C4 2012.92 4 2977.84 4 3972 C396.04 3972 788.08 3972 1192 3972 C1192 3053.94 1192 2135.88 1192 1190 C1191.67 1190 1191.34 1190 1191 1190 C1190.88519287 1190.98242676 1190.77038574 1191.96485352 1190.65209961 1192.97705078 C1181.52183855 1270.37985215 1161.35713033 1344.98890612 1133.65234375 1417.76660156 C1133.41417057 1418.39749758 1133.17599739 1419.02839359 1132.93060684 1419.67840767 C1132.20255023 1421.49469633 1131.41650622 1423.28776411 1130.60891342 1425.07011223 C1126.2871245 1434.96766441 1124.66547156 1444.06972614 1123.64550781 1454.76513672 C1123.45234934 1456.60791303 1123.25678049 1458.45043786 1123.05913162 1460.29273796 C1122.61158711 1464.48537491 1122.17530733 1468.67900766 1121.74488831 1472.87343597 C1120.93614245 1480.68741459 1120.06407949 1488.49395463 1119.18591309 1496.300354 C1119.02147929 1497.76351507 1118.85705378 1499.22667707 1118.69263625 1500.68983996 C1118.43843294 1502.95167194 1118.18419521 1505.2135 1117.92981766 1507.47531239 C1116.93461677 1516.32918058 1115.95247526 1525.18449369 1114.97039795 1534.03982544 C1114.78240827 1535.73429845 1114.59441047 1537.42877056 1114.40640473 1539.12324178 C1114.11974742 1541.70693415 1113.83310426 1544.29062808 1113.54650669 1546.87432707 C1112.5594638 1555.77243357 1111.57109535 1564.67039271 1110.58268538 1573.56834744 C1108.81988549 1589.43788456 1107.05805812 1605.30752947 1105.296875 1621.17724609 C1103.59231973 1636.53667918 1101.88729092 1651.89605957 1100.18164062 1667.25537109 C1100.0759878 1668.20677192 1099.97033498 1669.15817275 1099.86148056 1670.13840391 C1099.33110599 1674.91438642 1098.80072221 1679.69036791 1098.27033377 1684.46634889 C1094.63039584 1717.24292864 1090.99142276 1750.01961541 1087.35348511 1782.79641724 C1087.2761627 1783.4930672 1087.1988403 1784.18971716 1087.11917479 1784.90747773 C1086.76210866 1788.1245339 1086.40504924 1791.34159081 1086.04800296 1794.55864918 C1085.92369316 1795.67867073 1085.79938337 1796.79869229 1085.67130661 1797.95265388 C1085.55643544 1798.99193494 1085.44156426 1800.03121599 1085.32321215 1801.1019904 C1085.11698947 1802.95104 1084.90716977 1804.79969439 1084.69263792 1806.64779836 C1084.27329086 1810.28077567 1083.87341859 1813.8695802 1083.8737793 1817.52891541 C1083.87271683 1818.32046556 1083.87165436 1819.11201571 1083.87055969 1819.92755222 C1083.87855843 1821.19885943 1083.87855843 1821.19885943 1083.88671875 1822.49584961 C1083.89163582 1823.90160578 1083.89163582 1823.90160578 1083.89665222 1825.33576107 C1083.98008861 1838.80170332 1084.37100507 1852.26339943 1084.74720383 1865.72370601 C1084.81369135 1868.10914961 1084.87912995 1870.49462022 1084.94436646 1872.88009834 C1086.07666749 1914.1447029 1087.5929751 1955.39575767 1089.09895325 1996.64806366 C1092.23168114 2082.46659057 1095.09659403 2168.28971107 1095.12857032 2275.840379 C1095.12478648 2280.93249245 1095.12617396 2286.02458647 1095.13037109 2291.11669922 C1095.17060571 2341.388645 1094.70019889 2391.63557375 1092.75 2441.875 C1092.70395252 2443.0795326 1092.70395252 2443.0795326 1092.65697479 2444.3083992 C1090.42726179 2502.62511697 1086.92850015 2560.93563625 1081 2619 C1080.88934204 2620.08792847 1080.77868408 2621.17585693 1080.66467285 2622.29675293 C1071.06147415 2716.1981489 1055.88028794 2810.38157841 998 2970 C997.52449707 2970.99483398 997.04899414 2971.98966797 996.55908203 2973.01464844 C984.35896282 2998.39317908 970.33648906 3022.67957372 952.125 3044.25 C945.94887781 3051.65441126 941.92691482 3059.24047341 938 3068 C935.88558091 3072.62987349 933.7584371 3077.25386278 931.625 3081.875 C931.34284637 3082.48646881 931.06069275 3083.09793762 930.76998901 3083.72793579 C920.0719193 3106.86574589 907.30664328 3129.12262177 890 3148 C889.13761719 3148.98419922 889.13761719 3148.98419922 888.2578125 3149.98828125 C882.71921143 3155.9815436 875.76222139 3160.50521092 869 3165 C868.31164062 3165.45761719 867.62328125 3165.91523438 866.9140625 3166.38671875 C851.43999164 3175.2440489 831.54735385 3174.43953396 815 3170 C793.40502442 3163.49548928 774.39119011 3151.09572575 757 3137 C755.78671954 3136.0348278 754.57314979 3135.07001922 753.359375 3134.10546875 C745.57628993 3127.88652058 738.08326587 3121.46691824 730.82421875 3114.64453125 C727.91462947 3111.92006107 724.94042948 3109.29066291 721.9296875 3106.6796875 C710.52894961 3096.75596828 699.33993915 3086.4906248 688.7421875 3075.7109375 C686.95180507 3073.95266956 685.09415767 3072.31849632 683.1875 3070.6875 C679.89606267 3067.86900707 676.88991111 3064.86202392 673.875 3061.75 C661.78699403 3049.49221278 647.33865501 3040.38292187 633 3031 C609.62852288 3015.70260052 609.62852288 3015.70260052 601 3008 C600.01644531 3007.13632813 599.03289063 3006.27265625 598.01953125 3005.3828125 C590.13482847 2998.34719418 582.93122425 2990.73282504 575.7421875 2982.99609375 C572.70723894 2979.73562634 569.60871573 2976.56534043 566.4375 2973.4375 C563.09825693 2970.13708534 559.95281945 2966.75085592 556.90234375 2963.18359375 C554.99285302 2960.99179638 553.02934178 2958.85615136 551.05200195 2956.72558594 C546.22054521 2951.51802777 541.63689492 2946.1842574 537.1796875 2940.6484375 C535.02242601 2938.02724881 532.78689 2935.50845719 530.5 2933 C525.79541657 2927.82495823 521.3938261 2922.43932438 517 2917 C515.96556556 2915.73378497 514.93036378 2914.46819657 513.89453125 2913.203125 C507.94446796 2905.92730416 502.07680339 2898.60310804 496.3828125 2891.125 C494.80429737 2889.05481622 493.21584553 2886.99216868 491.6171875 2884.9375 C485.07247724 2876.51986622 478.80328866 2867.91828914 472.60400391 2859.24365234 C471.58484308 2857.81806817 470.56388881 2856.39376313 469.54052734 2854.97119141 C451.66873679 2830.12474033 434.74605285 2804.39773887 419.203125 2778.03222656 C417.85349731 2775.75253889 416.4894662 2773.48177359 415.125 2771.2109375 C400.81572137 2747.31225313 387.63673784 2722.81850763 375 2698 C374.4848584 2696.99163086 373.9697168 2695.98326172 373.43896484 2694.94433594 C352.75247236 2654.3682624 335.17602954 2612.54764117 319 2570 C318.73251953 2569.29681641 318.46503906 2568.59363281 318.18945312 2567.86914062 C310.18294536 2546.78329956 302.9618308 2525.44933739 296 2504 C295.76367859 2503.27276733 295.52735718 2502.54553467 295.28387451 2501.79626465 C275.86055225 2441.9467156 260.18399242 2380.7281918 248 2319 C247.82700378 2318.12603577 247.65400757 2317.25207153 247.47576904 2316.35162354 C226.49171167 2210.04506182 214.26532216 2102.12936141 208 1994 C207.93790344 1992.94220337 207.87580688 1991.88440674 207.81182861 1990.79455566 C204.29126256 1930.78888121 202.70155283 1870.88567297 202.63114142 1810.79158865 C202.62104986 1802.59332734 202.59904017 1794.39510746 202.57652331 1786.19687239 C202.5365017 1771.54882172 202.50381188 1756.90076569 202.47680664 1742.25268555 C202.47520934 1741.387256 202.47361204 1740.52182644 202.47196633 1739.63017175 C202.47036743 1738.76366442 202.46876853 1737.8971571 202.46712118 1737.00439197 C202.44432214 1724.65844102 202.41966141 1712.31249559 202.39282227 1699.96655273 C202.39092612 1699.09345324 202.38902997 1698.22035375 202.38707637 1697.32079669 C202.35510549 1682.6703158 202.31936748 1668.0198454 202.28178078 1653.36937791 C202.25905637 1644.41969338 202.23999667 1635.4700156 202.22611404 1626.52031288 C202.2164556 1620.39357098 202.20355648 1614.26684121 202.18830519 1608.14011069 C202.17970964 1604.63390363 202.17251392 1601.12771112 202.16966438 1597.62149429 C202.16059105 1588.74687534 202.10274921 1579.87402005 202 1571 C201.99339935 1570.29895418 201.98679869 1569.59790836 201.97999802 1568.87561873 C201.93819196 1564.43818222 201.87450258 1560.00192449 201.78306849 1555.56522319 C201.75678712 1554.1583826 201.7367368 1552.75140789 201.72376227 1551.34438165 C201.57880319 1536.90509809 197.36863023 1525.29150982 191.5625 1512.25 C190.59897661 1509.97600909 189.64100067 1507.69966066 188.68823242 1505.42114258 C186.75506142 1500.81216111 184.7968592 1496.21518234 182.81835938 1491.62548828 C180.1748458 1485.45919577 177.67394686 1479.24550997 175.234375 1472.99609375 C174.86372421 1472.04751495 174.49307343 1471.09893616 174.1111908 1470.12161255 C173.37594163 1468.23931564 172.64078728 1466.3569817 171.9057312 1464.47460938 C164.33336701 1445.16944574 155.98946644 1426.26277621 147.36598206 1407.40881348 C143.18669837 1398.25343071 139.15497082 1389.03432648 135.125 1379.8125 C128.83579525 1365.43854917 122.50270769 1351.0849093 116.125 1336.75 C115.70913635 1335.81523834 115.29327271 1334.88047668 114.86480713 1333.91738892 C112.75450777 1329.17449391 110.64352023 1324.43190559 108.53222656 1319.68945312 C104.7669279 1311.23085306 101.0076752 1302.76956604 97.24798584 1294.30847168 C95.16557343 1289.62220355 93.0827667 1284.93611068 91 1280.25 C90.16666478 1278.37500084 89.33333145 1276.50000084 88.5 1274.625 C88.0875 1273.696875 87.675 1272.76875 87.25 1271.8125 C83.49999999 1263.37499999 83.49999999 1263.37499999 82.25003052 1260.56256104 C81.41660301 1258.68735423 80.58316795 1256.81215078 79.74972534 1254.93695068 C77.66777098 1250.2526423 75.5859474 1245.56827588 73.50439453 1240.88378906 C69.31573317 1231.4576879 65.12481499 1222.03260031 60.9296875 1212.609375 C56.35840654 1202.34013227 51.7944236 1192.06766919 47.23803711 1181.79180908 C46.40512235 1179.91356248 45.57194716 1178.03543135 44.73852539 1176.15740967 C42.25116294 1170.55198296 39.76881202 1164.94438524 37.29351807 1159.33361816 C36.53052264 1157.60580913 35.76606128 1155.8786465 34.99993896 1154.15222168 C28.42272263 1139.32467302 22.48534563 1124.46794953 17.9375 1108.875 C17.59879883 1107.71758301 17.26009766 1106.56016602 16.91113281 1105.36767578 C11.46287994 1086.45979725 7.87785062 1067.45417258 5 1048 C4.67 1048 4.34 1048 4 1048 Z M198 1449 C200.35119021 1456.96105743 200.35119021 1456.96105743 203.14135742 1464.68310547 C203.53574509 1465.67889618 203.93013275 1466.67468689 204.33647156 1467.70065308 C204.75524063 1468.74560944 205.1740097 1469.7905658 205.60546875 1470.8671875 C206.04836746 1471.98199493 206.49126617 1473.09680237 206.94758606 1474.24539185 C208.3569684 1477.79017058 209.77213854 1481.33260499 211.1875 1484.875 C212.11821946 1487.21339009 213.04856106 1489.55193061 213.97851562 1491.890625 C215.72061155 1496.26898291 217.46445114 1500.64663303 219.21166992 1505.02294922 C219.61255294 1506.0645177 220.01343596 1507.10608618 220.42646694 1508.17921734 C221.48299438 1510.84348489 222.68073302 1513.3775325 223.98769951 1515.92748165 C231.24110866 1530.80066519 231.13504735 1545.62312817 230.99840891 1561.80220926 C230.97380962 1565.77842774 230.99611901 1569.75444373 231.01235962 1573.73066711 C231.03422691 1580.60038042 231.02740845 1587.4695657 231.00047112 1594.33925438 C230.9615899 1604.28969947 230.96839407 1614.23972087 230.98592908 1624.19020764 C231.01330621 1640.3641041 231.00601396 1656.53778548 230.97583008 1672.71166992 C230.94670151 1688.36761843 230.93147422 1704.02346652 230.93676758 1719.67944336 C230.93708738 1720.64431159 230.93740719 1721.60917981 230.93773668 1722.60328647 C230.94117331 1732.21175314 230.94665272 1741.82021863 230.9520642 1751.42868435 C230.95465356 1756.10181427 230.95703112 1760.77494429 230.95936584 1765.44807434 C230.95985226 1766.36134146 230.96033867 1767.27460858 230.96083982 1768.21555046 C230.96724267 1780.80518779 230.96015486 1793.39474881 230.94274865 1805.98437457 C230.93630694 1811.03105861 230.93247722 1816.07774534 230.92877399 1821.12443205 C230.92564206 1825.0374777 230.9206865 1828.95050131 230.91108513 1832.86353683 C230.81666512 1853.28929816 230.81666512 1853.28929816 231.75963879 1873.68674946 C232.19055863 1879.62674859 232.2878174 1885.57855979 232.4296875 1891.53125 C232.48226385 1893.57144875 232.53609247 1895.61161229 232.58996201 1897.65177727 C232.62746908 1899.0735698 232.66469063 1900.49536989 232.70163345 1901.9171772 C233.92532715 1948.95732939 236.22329073 1995.87138952 240.21983337 2042.76428223 C240.85150737 2050.18208082 241.4522671 2057.60196142 242.0390625 2065.0234375 C243.67333261 2085.64273243 245.31259345 2106.24582796 247.74023438 2126.78961182 C248.04106581 2129.34943568 248.33704982 2131.90980041 248.6328125 2134.47021484 C251.58136308 2159.95259313 254.68148863 2185.38989371 258.64709473 2210.73535156 C259.02436887 2213.15637887 259.39687248 2215.5781081 259.76855469 2218 C267.02221153 2265.20622066 275.21977376 2312.34089038 286.3046875 2358.8125 C288.02096486 2366.02282635 289.60816929 2373.25868083 291.1875 2380.5 C292.88221509 2388.21811327 294.66789525 2395.83157849 296.94921875 2403.3984375 C298.34895778 2408.19605602 299.5720424 2413.03416044 300.8125 2417.875 C303.71442216 2429.13553761 306.9468472 2440.28618016 310.24658203 2451.43554688 C311.21175487 2454.72076253 312.13856185 2458.0154593 313.0625 2461.3125 C325.53186551 2504.92940922 340.98030889 2547.96813056 358 2590 C358.63687744 2591.5785376 358.63687744 2591.5785376 359.28662109 2593.18896484 C371.65554948 2623.72934139 385.47054303 2653.61192715 400.07946777 2683.13677979 C401.44695607 2685.90466966 402.80469972 2688.67733131 404.1640625 2691.44921875 C409.36529399 2702.00794189 414.83377239 2712.37378281 420.64599609 2722.60839844 C422.10397423 2725.18365156 423.54684632 2727.7670158 424.98828125 2730.3515625 C441.40032229 2759.70284147 459.19227959 2788.1309173 478 2816 C478.5451123 2816.81065918 479.09022461 2817.62131836 479.65185547 2818.45654297 C487.30759591 2829.82861761 495.25454199 2840.95096301 503.45751953 2851.93457031 C504.80771387 2853.74252285 506.1530415 2855.5539285 507.49609375 2857.3671875 C512.28665634 2863.80584026 517.20696535 2870.13464974 522.18359375 2876.4296875 C524.04173233 2878.78012048 525.88770445 2881.13923688 527.72265625 2883.5078125 C532.8700284 2890.1384357 538.15765674 2896.60667619 543.65332031 2902.95214844 C546.72773849 2906.50325165 549.7334213 2910.09721747 552.6875 2913.75 C556.95168636 2918.99763834 561.44237061 2924.0071803 566 2929 C567.50129555 2930.66549976 569.00129422 2932.33216944 570.5 2934 C571.61375 2935.2375 571.61375 2935.2375 572.75 2936.5 C575 2939 577.25 2941.5 579.5 2944 C580.62921875 2945.25103516 580.62921875 2945.25103516 581.78125 2946.52734375 C583.18702976 2948.09399619 584.58402377 2949.66861452 585.96875 2951.25390625 C593.57279042 2959.89619066 601.82587711 2967.90252301 610 2976 C614.63917526 2980.60051546 614.63917526 2980.60051546 616.640625 2982.81640625 C627.54438521 2994.64645677 642.62031803 3002.74171589 656.08032227 3011.25415039 C662.61099529 3015.40362329 668.90823188 3019.67770121 674.9609375 3024.49609375 C677.02354945 3026.17930093 677.02354945 3026.17930093 680 3027 C678.5854522 3023.20902916 676.83942862 3019.81143117 674.8046875 3016.31640625 C673.8609729 3014.68928711 673.8609729 3014.68928711 672.89819336 3013.02929688 C672.56786102 3012.46331787 672.23752869 3011.89733887 671.89718628 3011.31420898 C670.86119181 3009.53883707 669.8295651 3007.76099208 668.79907227 3005.98242188 C666.4505996 3001.93054342 664.09654836 2997.88191981 661.73876953 2993.83544922 C654.50170019 2981.40271356 647.76454603 2968.69389148 641 2956 C640.289646 2954.6704126 640.289646 2954.6704126 639.56494141 2953.31396484 C623.14821164 2922.50465124 607.53214665 2891.20630653 593.36419678 2859.29916382 C591.24818274 2854.53658136 589.07100935 2849.80470231 586.875 2845.07861328 C545.58174459 2756.08611752 510.85435572 2663.55350713 477 2565 C476.45472656 2563.40995148 476.45472656 2563.40995148 475.8984375 2561.78778076 C465.47676167 2531.38070268 455.26019947 2500.91308461 445.38327026 2470.32460022 C443.81336157 2465.47244036 442.2095485 2460.63315515 440.57917786 2455.80099487 C437.97942606 2448.08985371 435.60654789 2440.363055 433.5 2432.5 C431.51927744 2425.26072197 429.45154117 2418.09415238 427 2411 C424.22631826 2402.95807903 421.93598661 2394.81077208 419.68237305 2386.60961914 C417.67929067 2379.34561515 415.54240313 2372.1348784 413.3125 2364.9375 C410.92414608 2357.20870302 408.78608448 2349.47622543 406.890625 2341.61328125 C405.43147151 2335.69346994 403.69644762 2329.85527628 402 2324 C398.20030235 2310.77194811 394.77298536 2297.45302192 391.38598633 2284.11450195 C389.52491895 2276.80511853 387.60217718 2269.52122353 385.5546875 2262.26171875 C382.67168352 2252.00410049 380.13801107 2241.66595162 377.625 2231.3125 C377.38566742 2230.32967041 377.14633484 2229.34684082 376.89974976 2228.33422852 C372.74483408 2211.26255072 368.76591542 2194.16206079 365 2177 C364.6871452 2175.58619743 364.37398469 2174.17246249 364.06054688 2172.75878906 C356.26888226 2137.58639677 349.35715714 2102.32725855 343.70117188 2066.74511719 C343.38814675 2064.77667268 343.07499898 2062.80824767 342.76171875 2060.83984375 C342.61290253 2059.90463898 342.4640863 2058.9694342 342.3107605 2058.00588989 C341.02074049 2049.97449798 339.56073466 2041.98311801 338 2034 C339.17175781 2033.95101562 340.34351563 2033.90203125 341.55078125 2033.8515625 C350.17394033 2033.45409306 358.5517538 2032.9166726 367 2031 C367.60714196 2035.20190326 368.19165271 2039.40617999 368.76171875 2043.61328125 C374.80718639 2087.68981162 383.57960827 2131.39518291 393.48706055 2174.75286865 C394.0145067 2177.06355224 394.53979201 2179.37471769 395.06445312 2181.68603516 C397.35914081 2191.7946423 399.6624836 2201.90120217 402 2212 C402.16970306 2212.73458435 402.33940613 2213.4691687 402.51425171 2214.22601318 C403.03722666 2216.48583377 403.56311835 2218.74495717 404.08984375 2221.00390625 C404.24676697 2221.68265305 404.40369019 2222.36139984 404.56536865 2223.06071472 C405.68237109 2227.83052306 406.96008063 2232.54189765 408.3125 2237.25 C410.5799366 2245.21958425 412.52616302 2253.25057862 414.4375 2261.3125 C416.71533926 2270.90330446 419.15988688 2280.40645898 421.93676758 2289.86450195 C423.45717254 2295.05070949 424.85090561 2300.2479982 426.125 2305.5 C427.48856127 2311.10147116 429.07168335 2316.59303318 430.80859375 2322.08984375 C432.44261715 2327.36074862 433.89507619 2332.68427368 435.375 2338 C435.98566217 2340.19141041 436.59633929 2342.38281665 437.20703125 2344.57421875 C437.50818848 2345.65493652 437.8093457 2346.7356543 438.11962891 2347.84912109 C443.05893719 2365.52707804 448.27934031 2383.11245102 453.6484375 2400.6640625 C453.88627457 2401.44170456 454.12411163 2402.21934662 454.36915588 2403.02055359 C455.56238214 2406.92120056 456.75689261 2410.82144585 457.95385742 2414.72094727 C458.40820197 2416.20323823 458.86238521 2417.68557866 459.31640625 2419.16796875 C459.54489258 2419.91333893 459.77337891 2420.65870911 460.00878906 2421.42666626 C461.44701236 2426.13605338 462.82311045 2430.86005292 464.1796875 2435.59375 C468.03136759 2448.86310231 472.49510639 2461.95336252 476.82382584 2475.07297516 C477.82213881 2478.09967735 478.818789 2481.1269261 479.81550121 2484.15415573 C482.24451772 2491.5312747 484.677173 2498.90718672 487.11250591 2506.28222275 C488.384674 2510.13500977 489.65529905 2513.98829851 490.92382812 2517.84228516 C504.20330878 2558.17916781 518.24900752 2598.23286799 533.13378906 2638.00537109 C534.75502558 2642.33897804 536.36083112 2646.67808871 537.9609375 2651.01953125 C560.86478313 2712.96318788 586.10575934 2774.04810758 613.29785156 2834.22802734 C614.45467089 2836.78915017 615.60737448 2839.35207047 616.75683594 2841.91650391 C626.10510249 2862.77104101 635.85680829 2883.40197127 645.96429443 2903.89929199 C646.98345209 2905.96643609 648.00086738 2908.0344306 649.01806641 2910.10253906 C656.48603184 2925.27128669 664.15731527 2940.2972146 672.38085938 2955.07373047 C674.17257278 2958.31189044 675.93879314 2961.56324973 677.703125 2964.81640625 C689.52481703 2986.56792796 702.27198487 3007.68009156 715.5625 3028.5625 C716.19285156 3029.55475586 716.82320312 3030.54701172 717.47265625 3031.56933594 C721.16759376 3037.32506222 725.04071128 3042.90478861 729.09594727 3048.41235352 C730.81033618 3050.742243 732.49595269 3053.08883552 734.16796875 3055.44921875 C740.93518141 3064.9668192 747.96411795 3074.18317087 755.453125 3083.14453125 C756.9075935 3084.88915887 758.34539498 3086.64630199 759.78125 3088.40625 C778.02929547 3110.51383783 804.24639165 3140.41094113 834.875 3143.375 C846.92918313 3142.79173307 858.01716996 3137.99621727 866.28515625 3129.1640625 C891.12062536 3097.8227188 898.01442015 3053.64593551 902.421875 3015.10546875 C902.52966089 3014.1709639 902.63744678 3013.23645905 902.74849892 3012.27363586 C904.95297014 2993.10509524 906.78468114 2973.91276473 908.45336533 2954.69103622 C908.6938529 2951.92698269 908.93656313 2949.16313186 909.17984009 2946.39932251 C915.5187726 2874.33150691 921.5792758 2802.20964614 926.55541992 2730.03393555 C927.31436175 2719.06534247 928.13070014 2708.12272772 929.2797699 2697.18763733 C930.17799463 2688.54536522 930.78926291 2679.88638965 931.37768555 2671.21826172 C931.5624524 2668.50070012 931.75255831 2665.78355017 931.94335938 2663.06640625 C932.61956033 2653.31805275 933.21489409 2643.57157995 933.629776 2633.80822754 C933.83656589 2629.23036675 934.22982102 2624.71562233 934.76493835 2620.16488647 C935.12639628 2616.83590704 935.29497086 2613.50376208 935.46484375 2610.16015625 C935.5436075 2608.66731706 935.62238401 2607.17447854 935.70117188 2605.68164062 C935.8182506 2603.40377428 935.93429398 2601.12585912 936.04956055 2598.84790039 C936.54073762 2589.22360002 937.17053406 2579.62175066 937.94140625 2570.015625 C938.76466513 2559.66637389 939.42399026 2549.31453351 940 2538.94921875 C940.04116503 2538.20856737 940.08233006 2537.46791599 940.12474251 2536.70482063 C940.37782627 2532.13410499 940.62710763 2527.56318733 940.875 2522.9921875 C941.24640906 2516.14433304 941.62100551 2509.29665766 942 2502.44921875 C942.04104229 2501.70640278 942.08208458 2500.96358681 942.12437057 2500.19826126 C942.75372845 2488.85708669 943.49108935 2477.52645361 944.29312134 2466.19602966 C945.10196035 2454.71978275 945.7611042 2443.23813674 946.375 2431.75 C946.43591827 2430.61784058 946.49683655 2429.48568115 946.55960083 2428.31921387 C947.01058687 2419.922627 947.45199339 2411.52555296 947.88912201 2403.12823486 C948.00176236 2400.9661725 948.11477385 2398.80412976 948.22784424 2396.64208984 C951.14707707 2340.76758334 953.52757071 2284.87601803 955.69101143 2228.96745586 C955.90896426 2223.33644325 956.12932489 2217.70553273 956.35205078 2212.07470703 C956.40546662 2210.71920368 956.45885795 2209.36369935 956.51222229 2208.00819397 C956.60410043 2205.67649825 956.69641527 2203.34481965 956.78941345 2201.01316833 C958.77629287 2150.3163075 959.18909911 2099.63507946 959.18511099 2048.90643781 C959.18546174 2042.35049553 959.19709446 2035.79460684 959.2110464 2029.23868138 C959.22431101 2022.76159263 959.22947926 2016.28452711 959.22884732 2009.80742496 C959.2285989 2006.00361983 959.23107114 2002.19988035 959.24202538 1998.39608955 C959.28506032 1982.33453584 959.00252141 1966.3420604 958.07543945 1950.30444336 C958.03415369 1949.58645038 957.99286793 1948.8684574 957.95033109 1948.12870705 C956.82360816 1928.95431349 955.05908313 1909.79844882 951 1891 C952.27746094 1890.72414063 953.55492187 1890.44828125 954.87109375 1890.1640625 C959.97095052 1889.03076099 965.01551282 1887.72190736 970.0625 1886.375 C970.92810547 1886.14554688 971.79371094 1885.91609375 972.68554688 1885.6796875 C974.7907894 1885.12139114 976.89545662 1884.56092611 979 1884 C979.09196655 1884.86467896 979.09196655 1884.86467896 979.18579102 1885.74682617 C979.6777536 1890.28632047 980.22940636 1894.80059752 980.9375 1899.3125 C981.09089844 1900.29863281 981.24429688 1901.28476563 981.40234375 1902.30078125 C981.7354521 1904.3625695 982.08115447 1906.42279601 982.47485352 1908.47387695 C984.13629975 1917.47936353 984.621654 1926.43535502 985.0625 1935.5625 C985.14064708 1937.0814127 985.21942086 1938.60029329 985.29882812 1940.11914062 C985.45553029 1943.12339825 985.60461369 1946.12791843 985.74980164 1949.13275146 C985.894452 1952.05247834 986.06452865 1954.96559605 986.25947571 1957.88275146 C987.27789666 1973.31956828 987.14720828 1988.77879028 987.1343255 2004.24092078 C987.13174462 2008.32767277 987.13415632 2012.41442282 987.13571167 2016.50117493 C987.13752295 2023.38921516 987.13516081 2030.27724462 987.13037109 2037.1652832 C987.12558337 2044.128181 987.12550939 2051.09105734 987.13037109 2058.05395508 C987.19432705 2152.19945474 987.19432705 2152.19945474 985.12747192 2196.15261841 C984.43441654 2210.95400498 983.89101163 2225.74896913 983.61074829 2240.56375122 C982.65920752 2289.84345196 979.50034917 2339.0968981 976.9375 2388.3125 C976.87232304 2389.56446545 976.80714607 2390.81643089 976.73999405 2392.10633469 C972.79699696 2467.80512896 972.79699696 2467.80512896 970.25411987 2505.59439087 C969.03970693 2523.66153618 967.85033379 2541.7272341 966.9375 2559.8125 C966.26584613 2573.11589431 965.33599791 2586.38830812 964.30197144 2599.66827393 C963.5203712 2609.71693485 962.80364798 2619.76164717 962.26367188 2629.82641602 C962.17604808 2631.4467918 962.08810376 2633.06715025 962 2634.6875 C961.89838058 2636.57804863 961.89838058 2636.57804863 961.79470825 2638.50679016 C961.2868107 2647.75448987 960.6413955 2656.98098307 959.86450577 2666.21012115 C959.52846157 2670.21031576 959.2012695 2674.21123566 958.87402344 2678.2121582 C958.76845847 2679.50204556 958.76845847 2679.50204556 958.66076088 2680.81799126 C957.77910399 2691.64126729 956.95583672 2702.46900992 956.1328125 2713.296875 C956.05243933 2714.35376966 955.97206615 2715.41066433 955.88925743 2716.49958611 C955.47254644 2721.9816286 955.05659012 2727.46372797 954.64108276 2732.94586182 C954.11270199 2739.915693 953.5820183 2746.88534788 953.05102539 2753.85498047 C951.61414778 2772.72033167 950.17730393 2791.58565836 948.76805878 2810.45309639 C946.00170749 2847.45647097 942.81066948 2884.41276696 939.48653793 2921.36933899 C938.47156995 2932.65702763 937.47793728 2943.94631451 936.51171875 2955.23828125 C936.45413013 2955.91072813 936.39654152 2956.58317501 936.33720779 2957.27599907 C935.7536627 2964.09246143 935.17400201 2970.90924388 934.59765625 2977.72631836 C934.41316079 2979.89570466 934.22827921 2982.06505817 934.04296875 2984.234375 C933.95614838 2985.25165176 933.869328 2986.26892853 933.77987671 2987.31703186 C933.15631915 2994.49919028 932.43845679 3001.668176 931.59965515 3008.82855225 C931.0639007 3013.58335162 930.92566368 3018.2142208 931 3023 C935.08896567 3019.14850602 938.34704298 3015.03544303 941.5625 3010.4375 C942.08279785 3009.6935498 942.6030957 3008.94959961 943.13916016 3008.18310547 C978.13990754 2957.4673069 999.71650628 2897.31378722 1014.9375 2837.9375 C1015.18709473 2836.96748047 1015.43668945 2835.99746094 1015.69384766 2834.99804688 C1016.2115001 2832.98196098 1016.72778467 2830.96552335 1017.24267578 2828.94873047 C1017.96112687 2826.15135709 1018.69563764 2823.35868631 1019.43359375 2820.56640625 C1028.74600623 2784.91326059 1034.63611216 2748.54052001 1040.4831543 2712.19348145 C1040.99812264 2709.01159984 1041.5224821 2705.83138462 1042.04882812 2702.65136719 C1044.38175775 2688.47029053 1046.34753014 2674.2760918 1048 2660 C1048.11758667 2658.98625305 1048.23517334 2657.9725061 1048.35632324 2656.92803955 C1049.23290494 2649.31009869 1050.0645978 2641.68774528 1050.875 2634.0625 C1051.00217407 2632.86864685 1051.12934814 2631.6747937 1051.26037598 2630.44476318 C1054.25496978 2602.10496559 1056.41590345 2573.71121677 1058.46899414 2545.29003906 C1058.81092938 2540.56188518 1059.16383923 2535.83481026 1059.52905273 2531.10839844 C1060.78760213 2514.74955277 1061.75291101 2498.38695562 1062.5625 2482 C1062.62725525 2480.70915497 1062.6920105 2479.41830994 1062.75872803 2478.08834839 C1063.72360162 2458.72672027 1064.44542741 2439.37472547 1064.7412262 2419.99108887 C1064.75701218 2419.1187561 1064.77279816 2418.24642334 1064.7890625 2417.34765625 C1064.79998275 2416.70226104 1064.810903 2416.05686582 1064.82215416 2415.39191318 C1064.91709888 2410.48658601 1065.10457588 2405.59488228 1065.36687011 2400.69581151 C1065.95469689 2389.67961881 1066.14897557 2378.69877229 1066.14526367 2367.66894531 C1066.14826932 2365.8398329 1066.15167497 2364.01072111 1066.15544128 2362.18161011 C1066.16418053 2357.25967599 1066.16661618 2352.33775934 1066.16725707 2347.41581821 C1066.16797767 2344.28944542 1066.17013137 2341.16307677 1066.17275429 2338.03670502 C1066.18200114 2326.97629019 1066.18609328 2315.9158873 1066.18530273 2304.85546875 C1066.18477829 2295.90688235 1066.19162855 2286.95834063 1066.20581055 2278.00976562 C1066.32003536 2204.15879111 1065.69118932 2130.34103775 1062.37497234 2056.55402756 C1061.85499762 2044.9238274 1061.42993771 2033.2900642 1061 2021.65625 C1060.91721952 2019.42803942 1060.83443551 2017.19982897 1060.75164795 2014.97161865 C1056.86873946 1910.18767603 1056.86873946 1910.18767603 1056.03820038 1866.0200119 C1055.99975368 1863.98697475 1055.95992 1861.95396783 1055.91998291 1859.92095947 C1055.38326383 1832.13653371 1055.08924759 1804.99256462 1059.92974854 1777.57333374 C1061.59283802 1767.9217518 1062.524888 1758.17188159 1063.5625 1748.4375 C1063.87647404 1745.5278354 1064.19159082 1742.61829622 1064.5068512 1739.70877075 C1064.71243101 1737.81125908 1064.9175433 1735.91369669 1065.12217712 1734.01608276 C1065.94281416 1726.43558736 1066.84048457 1718.86600718 1067.75952148 1711.29693604 C1069.83089259 1694.20391861 1071.52706671 1677.07672397 1073.21484375 1659.94213867 C1074.24483547 1649.49460869 1075.2912955 1639.05356969 1076.5 1628.625 C1078.30832149 1612.97799603 1079.72473654 1597.28914271 1081.19921875 1581.60791016 C1082.11748984 1571.88151346 1083.05547393 1562.16534234 1084.23829651 1552.46728516 C1084.97533451 1546.3685942 1085.6033503 1540.26049502 1086.21875 1534.1484375 C1086.37578651 1532.58994583 1086.37578651 1532.58994583 1086.53599548 1530.99996948 C1086.96691434 1526.71111563 1087.39576711 1522.42205959 1087.82275391 1518.1328125 C1088.9120764 1507.20983369 1090.02714308 1496.31086915 1091.54003906 1485.4375 C1092.36879887 1479.24379616 1092.99142148 1473.0286811 1093.625 1466.8125 C1093.82609375 1464.88954102 1093.82609375 1464.88954102 1094.03125 1462.92773438 C1094.75585327 1455.97768196 1094.75585327 1455.97768196 1095 1449 C798.99 1449 502.98 1449 198 1449 Z " fill="#010101" transform="translate(0,0)"/>
<path d="M0 0 C394.68 0 789.36 0 1196 0 C1196 1312.08 1196 2624.16 1196 3976 C801.32 3976 406.64 3976 0 3976 C0 2663.92 0 1351.84 0 0 Z M4 4 C3.56044201 340.56604556 3.56044201 340.56604556 3.22379851 677.13221049 C3.22211812 679.23661393 3.22043318 681.34101736 3.21874809 683.44542079 C3.2128445 690.81961454 3.20699419 698.19380833 3.2011681 705.56800214 C3.19693831 710.91811054 3.19267119 716.26821891 3.18838786 721.61832726 C3.1215197 805.18658432 3.06294893 888.75484737 3.11793484 1772.57575634 C3.120393 1779.64569905 3.12284082 1786.71564177 3.12528289 1793.78558449 C3.16004673 1894.40904377 3.19687908 1995.03250225 3.3625737 2395.00647081 C3.37338125 2419.90271067 3.38416671 2444.79895054 3.39489746 2469.69519043 C3.3953414 2470.72513183 3.39578533 2471.75507323 3.39624272 2472.81622497 C3.43929136 2572.71856306 3.47837284 2672.6209026 3.51659092 2772.52324264 C3.51823221 2776.81288208 3.51987459 2781.10252152 3.52151702 2785.39216097 C3.5366433 2824.89877971 3.55172543 2864.40539846 3.5667524 2903.91201724 C3.56715237 2904.96353513 3.56755233 2906.01505301 3.56796442 2907.09843508 C3.5691754 2910.28216526 3.57038637 2913.46589544 3.57159733 2916.64962561 C3.60421792 3002.41131952 3.63722053 3088.17301327 3.67047484 3173.93470693 C3.6716452 3176.95328124 3.67281527 3179.97185555 3.67398524 3182.99042986 C3.71171718 3280.3367964 3.75010745 3377.68316264 3.82077868 3548.70718637 C3.82186715 3551.32462955 3.82295523 3553.94207274 3.82404317 3556.55951592 C3.82439932 3557.41633442 3.82475548 3558.27315291 3.82512243 3559.15593561 C3.82577065 3560.71540275 3.82641881 3562.27486989 3.82706691 3563.83433703 C3.88362532 3699.88955847 3.94205848 3835.94477914 4 3972 C396.04 3972 788.08 3972 1192 3972 C1192.02505615 3887.49647461 1192.0501123 3802.99294922 1192.07592773 3715.92871094 C1192.10874276 3606.21394487 1192.10874276 3606.21394487 1192.12367522 3557.02365622 C1192.12419367 3555.31545623 1192.12471212 3553.60725623 1192.12523057 3551.89905623 C1192.12549055 3551.04249945 1192.12575054 3550.18594267 1192.1260184 3549.30342963 C1192.12682838 3546.63450475 1192.12763808 3543.96557986 1192.1284477 3541.29665498 C1192.15752186 3445.45606411 1192.1871737 3349.61547343 1192.24270584 3176.99382988 C1192.24366841 3174.01636538 1192.24463077 3171.03890089 1192.24559305 3168.0614364 C1192.2728607 3083.69235318 1192.300321 2999.32327003 1192.32803926 2914.95418696 C1192.32906517 2911.8315332 1192.33009106 2908.70887944 1192.33111694 2905.58622567 C1192.33162519 2904.0391891 1192.33162519 2904.0391891 1192.33214371 2902.46089927 C1192.34488377 2863.6805624 1192.35757981 2824.90022551 1192.37024957 2786.11988862 C1192.3716262 2781.90634594 1192.37300334 2777.69280327 1192.37438093 2773.47926059 C1192.40689802 2674.02017072 1192.43862387 2574.56108067 1192.46777344 2475.10198975 C1192.46808031 2474.05513715 1192.46838717 2473.00828456 1192.46870334 2471.92970916 C1192.47890683 2437.11718246 1192.48903349 2402.30465574 1192.49914955 2367.49212902 C1192.50829005 2336.03760825 1192.51745814 2304.58308748 1192.52671719 2273.12856674 C1192.52717342 2271.57861427 1192.52717342 2271.57861427 1192.52763887 2269.99734963 C1192.54669427 2205.2850585 1192.56694482 2140.57276783 1192.58840275 2075.86047745 C1192.58889963 2074.3612795 1192.58889963 2074.3612795 1192.58940655 2072.83179472 C1192.60395546 2028.93751207 1192.61875358 1985.04322951 1192.63383666 1941.14894703 C1192.63990356 1923.48990544 1192.64593355 1905.83086384 1192.65194332 1888.17182223 C1192.65294009 1885.24382311 1192.65393806 1882.315824 1192.65493616 1879.38782489 C1192.67019586 1834.59716157 1192.68463191 1789.80649817 1192.69667697 1745.01583385 C1192.69706666 1743.56679407 1192.69706666 1743.56679407 1192.69746423 1742.08848075 C1192.70163839 1726.54845341 1192.70574389 1711.00842606 1192.70983754 1695.4683987 C1192.72145919 1651.35120363 1192.73354359 1607.23400896 1192.74915612 1563.11681509 C1192.74947269 1562.22159554 1192.74978927 1561.326376 1192.75011544 1560.40402859 C1192.75703209 1540.87286466 1192.76421984 1521.34170084 1192.77167287 1501.81053712 C1192.77464102 1494.02081984 1192.77757204 1486.23110256 1192.78049088 1478.44138527 C1192.78096992 1477.16679371 1192.78096992 1477.16679371 1192.78145864 1475.86645283 C1192.7915689 1448.91854071 1192.79862146 1421.97062894 1192.80390343 1395.02271547 C1192.80911735 1368.48493333 1192.81734196 1341.94715408 1192.82994437 1315.40937436 C1192.83167087 1311.7726974 1192.83336256 1308.13602042 1192.8350333 1304.49934343 C1192.8353617 1303.7874055 1192.8356901 1303.07546757 1192.83602845 1302.34195577 C1192.84111051 1291.12827976 1192.84288151 1279.91460583 1192.84322461 1268.70092878 C1192.84362826 1257.72227992 1192.84765389 1246.74363652 1192.85527216 1235.76499018 C1192.85922459 1229.92327574 1192.86163755 1224.0815723 1192.8596265 1218.23985661 C1192.85782803 1212.93150703 1192.8606641 1207.62318014 1192.86707465 1202.31483431 C1192.86857658 1200.41890374 1192.86845041 1198.52297091 1192.8664035 1196.62704085 C1192.85547985 1185.524217 1193.14013021 1174.483043 1193.77320559 1163.39752198 C1194.12552169 1157.05915802 1194.14380914 1150.7263468 1194.1328125 1144.37890625 C1194.13424759 1142.46995827 1194.13424759 1142.46995827 1194.13571167 1140.52244568 C1194.1365524 1137.20519165 1194.13262277 1133.88798724 1194.12695312 1130.57073975 C1194.12433688 1127.88066405 1194.1291773 1125.19062141 1194.13394356 1122.50055027 C1194.13846611 1119.23083293 1194.13528358 1115.96112464 1194.1328125 1112.69140625 C1194.13483673 1111.50881729 1194.13686096 1110.32622833 1194.13894653 1109.10780334 C1194.13421829 1107.40423927 1194.13421829 1107.40423927 1194.12939453 1105.66625977 C1194.12859894 1104.68955826 1194.12780334 1103.71285675 1194.12698364 1102.70655823 C1194.02004454 1099.58508516 1193.78170316 1096.53285985 1193.5007301 1093.42444116 C1192.830635 1084.78210769 1192.85570501 1076.16479958 1192.8613348 1067.50238323 C1192.85888298 1065.64128222 1192.85599744 1063.78018174 1192.85272044 1061.919082 C1192.84498188 1056.8138292 1192.84337819 1051.70859027 1192.84279228 1046.60333232 C1192.84106462 1041.05870676 1192.83358998 1035.51408847 1192.82684326 1029.96946716 C1192.81580345 1020.24465078 1192.80844084 1010.51983699 1192.80346954 1000.79501569 C1192.79806558 990.25178627 1192.7904887 979.70856111 1192.78030598 969.1653353 C1192.7793346 968.15755755 1192.7793346 968.15755755 1192.77834359 967.12942065 C1192.77503104 963.7030072 1192.77168346 960.27659378 1192.76832329 956.85018038 C1192.74431906 932.30192236 1192.72496528 907.75366255 1192.70826721 883.20539856 C1192.68567191 850.01278172 1192.6568945 816.82017565 1192.6270752 783.62756348 C1192.55850056 703.81421343 1192.49852924 624.00085618 1192.4375 544.1875 C1192.293125 365.925625 1192.14875 187.66375 1192 4 C799.96 4 407.92 4 4 4 Z " fill="#FCFCFC" transform="translate(0,0)"/>
</svg>
