<?xml version="1.0" encoding="UTF-8"?>
<svg version="1.1" xmlns="http://www.w3.org/2000/svg" width="1289" height="3974">
<path d="M0 0 C425.37 0 850.74 0 1289 0 C1289 1311.42 1289 2622.84 1289 3974 C863.63 3974 438.26 3974 0 3974 C0 2662.58 0 1351.16 0 0 Z M3 3 C3 1312.44 3 2621.88 3 3971 C426.39 3971 849.78 3971 1286 3971 C1286 3694.79 1286 3418.58 1286 3134 C1285.67 3134 1285.34 3134 1285 3134 C1284.94577881 3134.5990918 1284.89155762 3135.19818359 1284.83569336 3135.81542969 C1277.0260567 3218.61153788 1244.7686604 3300.16141103 1188.02734375 3361.7890625 C1186.2385666 3363.73982911 1184.52156881 3365.72980395 1182.8125 3367.75 C1174.06274399 3377.75842161 1164.45397611 3386.80329268 1154 3395 C1152.83528009 3395.95203486 1151.67263933 3396.90661713 1150.51171875 3397.86328125 C1142.02127457 3404.82725314 1133.27832918 3411.13018885 1124 3417 C1122.35257813 3418.05380859 1122.35257813 3418.05380859 1120.671875 3419.12890625 C1094.49858469 3435.52704162 1065.78529646 3448.75617547 1036 3457 C1035.1244043 3457.24556641 1034.24880859 3457.49113281 1033.34667969 3457.74414062 C940.59448978 3483.37346207 842.34958822 3468.09432609 759 3421 C752.01995171 3416.92680987 745.12862728 3412.71296316 738.28222656 3408.41943359 C737.5290918 3407.95102051 736.77595703 3407.48260742 736 3407 C735.22688477 3406.39881348 734.45376953 3405.79762695 733.65722656 3405.17822266 C730.4977536 3403.77730236 729.01032048 3404.20001955 725.84007263 3405.41111755 C724.85189293 3405.82636436 724.85189293 3405.82636436 723.84375 3406.25 C723.13086319 3406.52944962 722.41797638 3406.80889923 721.68348694 3407.09681702 C719.28051148 3408.04453898 716.89094155 3409.02235456 714.5 3410 C712.7702455 3410.68876906 711.03967093 3411.37548163 709.30834961 3412.06030273 C705.53790374 3413.55581641 701.7728789 3415.06403943 698.01123047 3416.58154297 C691.88397498 3419.05141236 685.74234485 3421.48403938 679.59765625 3423.91015625 C671.87384474 3426.96136959 664.15231544 3430.01816631 656.43455505 3433.08465576 C640.9922728 3439.21993864 625.53056605 3445.30505639 610.0625 3451.375 C605.34501491 3453.2264678 600.62756277 3455.07801951 595.91015625 3456.9296875 C594.78609879 3457.37088425 593.66204132 3457.81208099 592.50392151 3458.26664734 C582.26824198 3462.28521891 572.0397308 3466.32178883 561.81350708 3470.36434937 C551.64128262 3474.38507909 541.46328915 3478.3909041 531.28125 3482.38671875 C530.07464218 3482.86032333 528.86803436 3483.33392792 527.62486267 3483.82188416 C521.48160549 3486.2330276 515.33790524 3488.6430333 509.19360352 3491.05151367 C499.11104722 3495.0064631 489.03060698 3498.96346227 478.99609375 3503.0390625 C478.27890167 3503.32967056 477.56170959 3503.62027863 476.82278442 3503.91969299 C473.68847601 3505.19071724 470.55822372 3506.4696597 467.43359375 3507.7644043 C440.77166432 3518.6308729 409.80505518 3509.66017506 384.37890625 3499.12109375 C379.86750301 3497.18841077 375.42995073 3495.11146288 371 3493 C370.24493164 3492.64631348 369.48986328 3492.29262695 368.71191406 3491.92822266 C333.06606503 3475.15150755 300.42771155 3452.18908523 268 3430 C267.13455566 3429.40783691 266.26911133 3428.81567383 265.37744141 3428.20556641 C262.22122814 3426.04321868 259.06899105 3423.87523746 255.92016602 3421.70214844 C242.1197593 3412.1837033 228.25075939 3402.76728889 214.34863281 3393.39819336 C211.63285546 3391.56779448 208.91794499 3389.7361153 206.203125 3387.90429688 C196.15866105 3381.13028787 186.0977103 3374.38209187 176.0038147 3367.68190002 C153.87210505 3352.96843443 132.24113273 3336.83212159 112.84375 3318.6328125 C110.6469884 3316.5989975 108.4257653 3314.63032143 106.16015625 3312.67578125 C101.91065054 3308.97314227 97.91020587 3305.0583254 93.9375 3301.0625 C93.26912109 3300.39798828 92.60074219 3299.73347656 91.91210938 3299.04882812 C72.08510521 3279.18328751 55.93470357 3256.27485186 42 3232 C41.62391602 3231.34854004 41.24783203 3230.69708008 40.86035156 3230.02587891 C26.55218312 3205.00337776 15.46372634 3176.52398535 11 3148 C10.89107422 3147.3080957 10.78214844 3146.61619141 10.66992188 3145.90332031 C-2.54836002 3057.24107101 21.96889288 2959.76465881 127 2649 C127.78310547 2647.32309082 127.78310547 2647.32309082 128.58203125 2645.61230469 C135.59488989 2630.61826691 143.0828787 2616.05721374 151.40917969 2601.75097656 C153.00617568 2598.98932051 154.57359162 2596.21282346 156.1328125 2593.4296875 C162.00324906 2582.97253537 168.12761199 2572.82875935 175 2563 C175.40428223 2562.41702148 175.80856445 2561.83404297 176.22509766 2561.23339844 C188.86801239 2543.04323575 202.31467788 2525.56936877 220 2512 C226.38179549 2506.97097993 232.60840483 2501.79751939 238.75927734 2496.49072266 C242.27714897 2493.46057112 245.82834868 2490.48419393 249.4375 2487.5625 C254.48933717 2483.46020051 259.4030598 2479.21298022 264.31005859 2474.93994141 C268.89096638 2470.95296241 273.50741507 2467.01188319 278.15136719 2463.09863281 C282.16384184 2459.71518052 286.14710388 2456.29899816 290.125 2452.875 C294.18620876 2449.38176144 298.27518971 2445.93551293 302.4375 2442.5625 C307.54372372 2438.42170706 312.50380975 2434.12577253 317.43530273 2429.77954102 C318.02641846 2429.26190186 318.61753418 2428.7442627 319.2265625 2428.2109375 C319.79218399 2427.71220123 320.35780548 2427.21346497 320.94056702 2426.69961548 C323 2425 323 2425 325.23535156 2423.50715637 C330.57196836 2419.86684642 333.04737157 2417.09995598 334.41581726 2410.75930786 C334.65471428 2409.38764969 334.65471428 2409.38764969 334.8984375 2407.98828125 C335.10028152 2407.00632782 335.30212555 2406.02437439 335.51008606 2405.01266479 C336.16567241 2401.78501982 336.7702097 2398.55001169 337.375 2395.3125 C337.82363074 2393.05502721 338.27592064 2390.79827882 338.73168945 2388.54223633 C339.68478807 2383.80743806 340.61994836 2379.06956496 341.54443359 2374.32910156 C342.99344143 2366.95858103 344.55529245 2359.61483376 346.14453125 2352.2734375 C346.40093384 2351.08552109 346.65733643 2349.89760468 346.92150879 2348.6736908 C347.92237257 2344.03824015 348.92420634 2339.4030011 349.92816162 2334.76821899 C350.61847765 2331.56942694 351.30054753 2328.36898406 351.98046875 2325.16796875 C352.18613968 2324.22331757 352.39181061 2323.27866638 352.60371399 2322.3053894 C353.55617516 2317.78970134 354.24802989 2313.64636265 354 2309 C352.98421875 2308.5153125 351.9684375 2308.030625 350.921875 2307.53125 C322.37662511 2293.71847043 294.82181082 2272.41264241 283.78515625 2241.609375 C278.25920652 2224.38257087 279.08545769 2208.5284339 286.49609375 2191.87109375 C289.13954358 2186.82450771 292.41820478 2182.41537665 296 2178 C296.66773438 2177.16726562 297.33546875 2176.33453125 298.0234375 2175.4765625 C312.52872993 2158.3829651 333.07378285 2147.53304634 353 2138 C354.32 2137.34 355.64 2136.68 357 2136 C357 2127.42 357 2118.84 357 2110 C353.761875 2108.80375 350.52375 2107.6075 347.1875 2106.375 C333.95483415 2101.37439512 320.93539175 2095.34972372 310.9375 2085 C310.298125 2084.34 309.65875 2083.68 309 2083 C308.34 2083 307.68 2083 307 2083 C306.61908203 2082.14535156 306.61908203 2082.14535156 306.23046875 2081.2734375 C304.85384171 2078.72995515 303.20847668 2076.80779437 301.3125 2074.625 C288.26766254 2058.45508352 284.16117444 2039.33974438 286 2019 C288.75046954 1998.87957014 300.46559036 1982.10295109 316.25756836 1969.96118164 C329.90349663 1960.01782063 345.06274484 1954.19938821 361 1949 C361 1937.45 361 1925.9 361 1914 C355.72 1912.35 350.44 1910.7 345 1909 C330.59430671 1903.56273663 317.62252848 1896.18188006 306 1886 C305.24074219 1885.33613281 304.48148437 1884.67226562 303.69921875 1883.98828125 C292.0624627 1873.11525012 283.95849513 1858.83754959 282.76171875 1842.80859375 C282.41524629 1827.07144978 287.76806352 1812.74535932 298.63671875 1801.2421875 C315.88364259 1784.87899034 337.20358707 1776.5864657 359 1768 C359 1755.13 359 1742.26 359 1729 C351.575 1727.515 351.575 1727.515 344 1726 C322.63511808 1720.35063218 304.40131152 1709.8247158 292.875 1690.3984375 C284.79178592 1675.74761199 282.50161004 1659.18114769 286 1642.75 C290.47562133 1627.86644795 298.75759595 1614.60144669 311 1605 C311.71542969 1604.43667969 312.43085938 1603.87335938 313.16796875 1603.29296875 C326.32744903 1593.52806127 341.21393602 1587.9035022 357 1584 C357.02312737 1575.93347826 357.04091709 1567.86697028 357.05181217 1559.80042362 C357.05704014 1556.05516963 357.06413622 1552.30993824 357.07543945 1548.56469727 C357.08627141 1544.95318313 357.09227749 1541.34169079 357.09487724 1537.73016167 C357.09673094 1536.34939671 357.10035049 1534.968633 357.10573006 1533.58787727 C357.11294447 1531.66024048 357.11340809 1529.73258193 357.11352539 1527.80493164 C357.115746 1526.70572891 357.11796661 1525.60652618 357.12025452 1524.47401428 C357.28046633 1522.0564853 357.28046633 1522.0564853 356 1521 C354.33037356 1520.78545513 352.65958991 1520.57762818 350.98510742 1520.4050293 C337.96475994 1519.06277202 325.67229132 1516.11405736 314 1510 C312.75669922 1509.35611328 312.75669922 1509.35611328 311.48828125 1508.69921875 C296.01203426 1500.07430873 285.42137774 1486.74355973 280.02734375 1469.9765625 C275.12478683 1451.50646434 278.21735986 1433.82057212 287.08203125 1417.1875 C289.97205701 1412.3845244 293.24625995 1408.153848 297 1404 C297.60328125 1403.31550781 298.2065625 1402.63101562 298.828125 1401.92578125 C314.83345923 1384.81083352 337.80270194 1376.47977685 360 1371 C360.10022461 1369.70827881 360.20044922 1368.41655762 360.30371094 1367.08569336 C370.42715248 1237.49958652 370.42715248 1237.49958652 414 1189 C414.78503906 1188.10539062 415.57007813 1187.21078125 416.37890625 1186.2890625 C418.55521532 1183.82888703 420.76392695 1181.40590138 423 1179 C423.68191406 1178.26394531 424.36382812 1177.52789063 425.06640625 1176.76953125 C430.95237272 1170.645091 437.4422891 1165.45467728 444.20898438 1160.35107422 C445.35250447 1159.48844606 446.49224565 1158.62076993 447.62695312 1157.74658203 C488.70672623 1126.17318764 541.50180594 1110.01458269 592 1102 C592.9585791 1101.84692383 593.9171582 1101.69384766 594.90478516 1101.53613281 C662.72678446 1091.01834585 734.23776001 1097.08281461 798 1123 C798.72026367 1123.28987793 799.44052734 1123.57975586 800.18261719 1123.87841797 C846.69003097 1142.76585273 883.51371685 1176.08971159 909 1219 C909.38526855 1219.64646484 909.77053711 1220.29292969 910.16748047 1220.95898438 C921.19554021 1239.75011922 927.42333854 1260.82293121 932 1282 C933.0415625 1282.17015625 934.083125 1282.3403125 935.15625 1282.515625 C960.89547085 1286.81407791 984.68525753 1293.83753698 1002 1315 C1013.0859749 1331.11138777 1016.20560743 1347.2358911 1013.49609375 1366.6015625 C1012.82870759 1369.49229796 1012.00700853 1372.21042395 1011 1375 C1010.6596875 1375.97839844 1010.319375 1376.95679688 1009.96875 1377.96484375 C1005.00421574 1390.99674618 996.65377214 1401.19232714 987 1411 C986.31679688 1411.70769531 985.63359375 1412.41539063 984.9296875 1413.14453125 C974.05776254 1423.61142371 959.80591246 1430.58247228 945.95263672 1436.19091797 C942.26854048 1437.71743646 938.63709271 1439.36531068 935 1441 C934.94511138 1446.17897015 934.94251889 1451.35438219 934.98779297 1456.53344727 C934.99588978 1458.29385618 934.98984962 1460.0543904 934.96923828 1461.81469727 C934.4356465 1471.47552464 934.4356465 1471.47552464 937.59057617 1480.1574707 C939.69868391 1481.49671811 941.62153145 1482.25597031 944 1483 C945.23690495 1483.62998539 946.46296659 1484.2818305 947.67578125 1484.95703125 C948.88787563 1485.57580535 950.10011783 1486.19428996 951.3125 1486.8125 C958.0102782 1490.3135166 964.04224955 1494.33385347 970 1499 C970.87527344 1499.67160156 971.75054688 1500.34320312 972.65234375 1501.03515625 C975.1428595 1502.97888208 977.58303288 1504.96575401 980 1507 C980.61488281 1507.51691406 981.22976563 1508.03382812 981.86328125 1508.56640625 C992.62008744 1518.43299399 1001.57978626 1534.50164114 1002.23828125 1549.15234375 C1002.75523095 1571.29309062 994.94860096 1587.46694491 979.8125 1603.5 C967.25737925 1615.57332153 952.17592062 1623.72222511 937 1632 C937.33 1647.84 937.66 1663.68 938 1680 C942.95 1682.31 947.9 1684.62 953 1687 C955.8107002 1688.44461898 958.57049502 1689.8803986 961.3125 1691.4375 C962.31047607 1692.00416382 962.31047607 1692.00416382 963.32861328 1692.58227539 C969.01191825 1695.88201412 974.11654712 1699.58994306 979 1704 C979.84046875 1704.73605469 980.6809375 1705.47210937 981.546875 1706.23046875 C993.36784107 1717.20963875 1001.35410071 1732.65338662 1002.203125 1748.8828125 C1002.54671248 1767.28311056 997.37422608 1783.08599466 985 1797 C984.49210938 1797.58910156 983.98421875 1798.17820312 983.4609375 1798.78515625 C971.64960646 1811.55652158 955.43822336 1818.42635357 939 1823 C938.85150851 1836.36423419 939.29346466 1849.65475011 940 1863 C941.0209375 1863.41958984 941.0209375 1863.41958984 942.0625 1863.84765625 C944.74974427 1864.95900328 947.43249001 1866.08052015 950.11279297 1867.20849609 C951.3942961 1867.74596481 952.67723093 1868.28003001 953.96142578 1868.81103516 C974.11466907 1877.16296191 990.83395606 1888.40567329 1000.921875 1908.3125 C1005.65653205 1920.11483352 1005.92963203 1934.42663209 1001.2578125 1946.26953125 C990.23037067 1970.20798417 970.84348437 1985.42025597 949 1999 C948.28158936 1999.26151855 947.56317871 1999.52303711 946.82299805 1999.79248047 C944.18930267 2000.91242044 942.79512516 2001.74773288 941 2004 C939.92676602 2009.51206201 940.2050801 2014.91288861 940.4375 2020.5 C940.4746683 2022.08301485 940.50851211 2023.66611118 940.5390625 2025.24926758 C940.64001083 2029.83534486 940.81409631 2034.41671329 941 2039 C941.04398926 2040.21993652 941.08797852 2041.43987305 941.13330078 2042.69677734 C941.34536465 2048.47058106 941.62500884 2054.23451093 942 2060 C943.0415625 2060.09796875 944.083125 2060.1959375 945.15625 2060.296875 C967.98798424 2062.60932332 990.79983494 2068.57254971 1007 2086 C1009.68103017 2089.50263619 1011.89979562 2093.12431112 1014 2097 C1014.48597656 2097.89203125 1014.97195313 2098.7840625 1015.47265625 2099.703125 C1022.99490875 2115.40555296 1021.95416818 2133.40406521 1016.8125 2149.625 C1008.3704934 2173.44528177 990.40587051 2190.29529828 968.03808594 2201.09960938 C962.23453308 2203.66351725 956.10365777 2205.31758151 950 2207 C947.66628646 2207.66533452 945.33289924 2208.33181587 943 2209 C942.91142779 2229.90252955 943.15604638 2250.79427681 943.46356201 2271.69396973 C943.52530253 2275.91900655 943.58480631 2280.14407491 943.64453125 2284.36914062 C943.76090436 2292.57945843 943.87964006 2300.78973967 944 2309 C944.74408615 2309.31194809 945.4881723 2309.62389618 946.25480652 2309.94529724 C949.66441541 2311.37639763 953.07244798 2312.81121575 956.48046875 2314.24609375 C958.23611145 2314.98200745 958.23611145 2314.98200745 960.02722168 2315.73278809 C979.075521 2323.76246127 999.2052079 2333.21253929 1008.22265625 2353.06640625 C1014.4238509 2368.49148843 1010.73567033 2384.68518885 1004.9375 2399.625 C1001.93626828 2406.53635381 998.31801985 2413.16202905 994.74584961 2419.79150391 C994.27800049 2420.66468262 993.81015137 2421.53786133 993.328125 2422.4375 C992.9043457 2423.21996094 992.48056641 2424.00242187 992.04394531 2424.80859375 C991.0455919 2426.9042954 990.34502856 2428.70531534 990 2431 C991.2653357 2432.98925009 991.2653357 2432.98925009 993.25 2434.875 C996.84249057 2438.6861639 1000.11805723 2442.60859252 1003.3125 2446.75 C1006.94020499 2451.42624012 1010.64858593 2456.00622557 1014.5 2460.5 C1018.26396422 2464.89351694 1021.89072805 2469.36702234 1025.4375 2473.9375 C1029.1943623 2478.75263337 1033.00517019 2483.51417443 1036.9375 2488.1875 C1037.36667725 2488.70884521 1037.79585449 2489.23019043 1038.23803711 2489.76733398 C1041.8674861 2494.03129744 1045.93211249 2497.7380563 1050.08123779 2501.49113464 C1055.8701136 2506.74669112 1061.41907098 2512.23298983 1066.9465332 2517.76123047 C1068.69138808 2519.50388317 1070.44413743 2521.23833163 1072.19726562 2522.97265625 C1078.91754042 2529.6588333 1085.16069087 2536.51496865 1091 2544 C1091.60787354 2544.7645752 1092.21574707 2545.52915039 1092.84204102 2546.31689453 C1100.52480952 2555.9989643 1107.99902344 2565.81308644 1115 2576 C1115.50966309 2576.73992188 1116.01932617 2577.47984375 1116.54443359 2578.2421875 C1126.29862619 2592.47196861 1135.31725344 2607.09515752 1144 2622 C1144.8657666 2623.4837915 1144.8657666 2623.4837915 1145.74902344 2624.99755859 C1159.20543209 2648.19892492 1171.52423314 2672.1484811 1181.9375 2696.875 C1182.40808838 2697.98697754 1182.87867676 2699.09895508 1183.36352539 2700.24462891 C1193.45366759 2724.75996318 1201.4873936 2750.13749833 1209.75 2775.3125 C1210.29121087 2776.95933294 1210.83243006 2778.60616314 1211.37365723 2780.25299072 C1227.68952761 2829.93231247 1243.62217936 2879.80260042 1257.26745605 2930.29058838 C1258.02597043 2933.09605509 1258.78882049 2935.90032302 1259.55175781 2938.70458984 C1270.47944247 2978.98103399 1280.03387965 3019.51220292 1285 3061 C1285.33 3061 1285.66 3061 1286 3061 C1286 2051.86 1286 1042.72 1286 3 C862.61 3 439.22 3 3 3 Z " fill="#B7B7B8" transform="translate(0,0)"/>
<path d="M0 0 C5.76302434 -0.0092939 11.52604107 -0.02082622 17.28905866 -0.03362082 C18.13219405 -0.03548998 18.97532945 -0.03735913 19.84401441 -0.03928492 C21.56493217 -0.04310304 23.28584993 -0.04692184 25.00676769 -0.05074131 C86.25687664 -0.18540301 147.50720356 -0.25025158 208.7574323 -0.30174134 C217.95524066 -0.30949099 227.15304875 -0.31753893 236.35085675 -0.32569693 C237.36688904 -0.32659088 238.38292133 -0.32748483 239.42974248 -0.32840586 C272.47742696 -0.35770472 305.5249562 -0.41884964 338.57255826 -0.49708078 C372.64987395 -0.57760178 406.72710553 -0.62884268 440.80451713 -0.64219964 C445.6144063 -0.64409237 450.42429529 -0.6463055 455.23418424 -0.64870643 C456.65378107 -0.64939689 456.65378107 -0.64939689 458.10205664 -0.65010129 C473.30882801 -0.6583286 488.51537352 -0.69712215 503.7220578 -0.74732223 C518.98268548 -0.79700963 534.24306967 -0.81373974 549.50377141 -0.79689831 C558.56184439 -0.78788511 567.61906253 -0.80386255 576.67699482 -0.85591381 C582.73098067 -0.88821824 588.78439537 -0.88764236 594.83840567 -0.86068321 C598.2843284 -0.84626508 601.72862885 -0.84577203 605.17438899 -0.88550014 C620.1972675 -1.02778908 631.13111177 -1.07693588 642.69900128 9.24412728 C643.81620163 10.14205724 644.93932143 11.03267073 646.06816873 11.91591395 C659.68818515 22.62776625 672.12401794 35.54737764 682.69900128 49.24412728 C683.61008274 50.36894426 684.52436629 51.49117231 685.44118878 52.61131478 C709.09476245 81.58918208 728.7422936 113.62159266 746.29030988 146.59861947 C747.6846011 149.21708388 749.09178919 151.82832375 750.49978253 154.43943978 C769.82545069 190.51629062 783.02181229 228.4915785 795.79275128 267.25193978 C796.12774137 268.26768075 796.46273145 269.28342172 796.80787274 270.32994271 C798.86133886 276.59127116 800.82580523 282.87586468 802.75356671 289.17695809 C804.0557766 293.40157411 805.41714175 297.60544738 806.79275128 301.80662728 C807.06615338 302.64524301 807.33955548 303.48385873 807.62124249 304.34788705 C808.47947833 306.98030034 809.33905462 309.61227243 810.19900128 312.24412728 C814.90296205 326.64053406 819.55834311 341.03013603 823.63650128 355.61912728 C825.35667423 361.71357842 827.15102732 367.75166329 829.19900128 373.74412728 C832.07344486 382.18437243 834.4791566 390.74374082 836.88113019 399.32859994 C837.73399409 402.36886881 838.59668557 405.40623418 839.46072003 408.44334603 C842.44806495 418.97933206 845.33120915 429.52426149 847.93020246 440.1630726 C849.02456157 444.62286573 850.19262675 449.04669763 851.46804425 453.45799447 C855.00069659 465.69275657 857.704303 478.1209539 860.44080731 490.55229379 C861.31424536 494.51911074 862.20710251 498.4808322 863.11697003 502.43943978 C868.03903955 524.06878962 871.77570476 545.96723245 871.93728253 568.18943978 C871.94703107 569.30565209 871.9567796 570.42186441 871.96682355 571.57190133 C872.13725743 596.14921303 871.78048738 619.97002578 867.69900128 644.24412728 C867.30944948 646.73497692 866.92012721 649.22586245 866.53103253 651.71678353 C864.23199584 665.89527531 861.05271695 679.56517421 856.69900128 693.24412728 C856.39010968 694.24669564 856.08121808 695.249264 855.76296613 696.28221322 C840.37889643 746.08500816 815.01609024 792.29238584 779.82009503 830.90428353 C777.89113794 833.03217543 776.00863776 835.19133587 774.13650128 837.36912728 C768.16360295 844.20905925 761.64960276 850.41039313 754.69900128 856.24412728 C753.87118146 856.94263803 753.87118146 856.94263803 753.026638 857.6552601 C739.61672248 868.9245102 725.49170413 878.38231527 710.40114972 887.23436166 C708.87613769 888.13904464 707.36833291 889.07258748 705.86306378 890.00975228 C685.59408772 902.43829348 662.45063158 910.6653712 639.69900128 917.24412728 C638.63093244 917.55894052 638.63093244 917.55894052 637.54128644 917.88011361 C623.78881905 921.88284084 609.87774658 924.30262647 595.69900128 926.24412728 C594.46834943 926.42507943 593.23769757 926.60603158 591.96975324 926.79246713 C580.71941206 928.35698611 569.56185792 928.55188113 558.21487042 928.50486947 C555.13711535 928.49412943 552.05994215 928.50483978 548.98220441 928.51756478 C537.70287843 928.52606273 526.84750428 927.98159619 515.69900128 926.24412728 C513.48159992 925.93389855 511.26415384 925.62398918 509.04665753 925.31443978 C488.87365014 922.32683562 470.00461901 917.81979708 450.69900128 911.24412728 C449.3014964 910.77112191 449.3014964 910.77112191 447.8757591 910.28856088 C420.01179994 900.71965544 393.42671578 887.23292161 368.69900128 871.24412728 C368.08216977 870.97688851 367.46533826 870.70964974 366.82981488 870.43431283 C364.53289966 869.25680584 363.25723384 868.31934933 361.69900128 866.24412728 C360.63801849 861.362351 360.79430081 856.47965505 360.86697003 851.50975228 C360.86326735 849.96466668 360.85623353 848.41958608 360.84615705 846.8745289 C360.83045768 843.51894961 360.83594795 840.1643078 360.85766217 836.80876351 C360.89159432 831.44271961 360.87880915 826.07747891 360.85549542 820.71141244 C360.85162037 819.79060702 360.84774531 818.86980161 360.84375283 817.921093 C360.83574633 816.01897322 360.82763062 814.1168539 360.8194103 812.21473504 C360.80821256 809.25554796 360.80157387 806.29637764 360.79578778 803.33717538 C360.7370205 778.94930865 360.20866851 754.56983202 359.70901486 730.18777658 C359.58873028 724.26814741 359.47338531 718.34842273 359.35793683 712.4286976 C359.14178601 701.36710217 358.9215263 690.30559636 358.69900128 679.24412728 C349.12900128 678.91412728 339.55900128 678.58412728 329.69900128 678.24412728 C330.02900128 681.87412728 330.35900128 685.50412728 330.69900128 689.24412728 C330.83363586 692.90168075 330.93810732 696.54675619 330.99612042 700.20506478 C331.02559168 701.7639511 331.02559168 701.7639511 331.05565831 703.35433007 C331.11919256 706.77586955 331.1768448 710.19747836 331.23415753 713.61912728 C331.27742955 716.04651992 331.32093727 718.47390836 331.36466596 720.90129281 C331.47945479 727.35466442 331.58826357 733.80812298 331.69519422 740.26162911 C331.76142559 744.23958074 331.82923399 748.21750278 331.89742658 752.19542123 C332.53476904 789.54754459 333.03063895 826.88641988 332.69900128 864.24412728 C326.87842197 867.26476962 321.01122525 869.78907606 314.88650128 872.12303353 C313.46941121 872.66900186 313.46941121 872.66900186 312.02369306 873.22599984 C309.98459769 874.01138256 307.94485698 874.79509141 305.90453717 875.57728768 C300.36499197 877.70173193 294.83093241 879.84037391 289.29665753 881.97850228 C288.15809812 882.41813806 287.0195387 882.85777383 285.84647748 883.3107319 C274.5852406 887.66430157 263.35766017 892.10097359 252.13650128 896.55662728 C248.14576946 898.14034792 244.15487123 899.72364862 240.16384503 901.30662728 C239.15715772 901.70593453 238.1504704 902.10524179 237.11327741 902.51664926 C224.81908959 907.3901765 212.50920146 912.22372204 200.19900128 917.05662728 C199.03643811 917.5130964 197.87387494 917.96956552 196.67608258 918.43986703 C190.75322243 920.76533872 184.83018037 923.0903466 178.9070091 925.41502572 C166.79524428 930.16861871 154.68451125 934.92483844 142.57400128 939.68162728 C140.82051877 940.37028878 140.82051877 940.37028878 139.03161237 941.07286264 C121.80281115 947.83964184 104.57993385 954.62122846 87.36983869 961.43545724 C85.37903965 962.22166961 83.3860336 963.00207326 81.39284894 963.78221322 C78.97139471 964.74055215 76.55902584 965.72224741 74.15749738 966.72947885 C67.50527128 969.46321731 61.90407137 971.0758653 54.69900128 970.86912728 C53.36578839 970.84483651 53.36578839 970.84483651 52.00564191 970.82005502 C33.98612177 970.14955387 17.80715378 963.89270827 1.69900128 956.24412728 C0.79504621 955.81825326 -0.10890887 955.39237924 -1.04025653 954.95359994 C-14.6244113 948.50172537 -27.54705748 941.1981703 -40.30099872 933.24412728 C-41.0694411 932.76894662 -41.83788348 932.29376596 -42.629612 931.80418588 C-62.92709982 919.24481908 -82.64503466 905.77766878 -102.30099872 892.24412728 C-103.65509041 891.31302866 -105.00925503 890.38203608 -106.36349872 889.45115853 C-108.28649925 888.12916953 -110.20944243 886.80709755 -112.13216022 885.48469735 C-126.85722033 875.35812637 -141.62599678 865.29878875 -156.44675067 855.3127308 C-159.26130204 853.41626221 -162.0751443 851.51874507 -164.88888934 849.62108041 C-174.01027238 843.47114317 -183.1414464 837.33709477 -192.30099872 831.24412728 C-225.26889913 809.29015798 -258.75173909 783.79430789 -284.30099872 753.24412728 C-284.74250262 752.72705209 -285.18400653 752.20997689 -285.63888934 751.67723275 C-308.43007346 724.92074104 -325.51496567 694.59428474 -337.44162372 661.61277963 C-338.20065392 659.52070263 -338.98204991 657.43879323 -339.76974872 655.35740853 C-347.79336283 633.12123404 -349.66736826 608.79512391 -349.50680926 585.32640267 C-349.48826248 582.52089225 -349.4863025 579.71570902 -349.48654559 576.91014291 C-349.4816382 575.10089528 -349.47581332 573.29164986 -349.46896747 571.48240853 C-349.46785464 570.65630578 -349.46674182 569.83020303 -349.46559527 568.97906686 C-349.4275095 564.30930643 -349.03728142 559.86743913 -348.30099872 555.24412728 C-348.19317819 553.33131127 -348.08674781 551.41824568 -348.01095965 549.50389291 C-345.53071932 487.18429084 -330.57672187 422.2141208 -311.96042254 362.8896351 C-310.30981447 357.62854549 -308.75672493 352.34734106 -307.26105121 347.04049874 C-303.96987508 335.37422612 -300.38428084 323.82613222 -296.61349872 312.30662728 C-296.31108264 311.38002297 -296.00866656 310.45341867 -295.69708636 309.49873544 C-290.28062447 292.92920149 -284.5373148 276.52465358 -278.30099872 260.24412728 C-277.8515993 259.06898568 -277.40219989 257.89384408 -276.93918231 256.68309213 C-259.33305823 210.84721252 -239.79721143 164.89417981 -215.30099872 122.24412728 C-214.69288348 121.18532357 -214.08476825 120.12651986 -213.45822528 119.03563119 C-202.36312461 99.82492552 -190.69404037 80.95484355 -177.30099872 63.24412728 C-176.55978778 62.24897103 -175.81857684 61.25381478 -175.05490497 60.22850228 C-158.3599736 38.00138216 -139.70258738 18.00246983 -115.30099872 4.24412728 C-114.42934255 3.72533545 -113.55768637 3.20654362 -112.65961638 2.67203082 C-108.48765927 0.89833911 -105.10824181 0.77264929 -100.6256161 0.74142076 C-99.75792052 0.72413229 -98.89022495 0.70684383 -97.99623556 0.68903148 C-95.06800553 0.63533258 -92.13998269 0.60361942 -89.21142962 0.57264901 C-87.0765752 0.54016097 -84.94173216 0.50691706 -82.80690017 0.47298683 C-55.20742792 0.06730861 -27.60199727 0.04406936 0 0 Z " fill="#FDFDFD" transform="translate(385.30099871661514,2512.755872716196)"/>
<path d="M0 0 C425.37 0 850.74 0 1289 0 C1289 1311.42 1289 2622.84 1289 3974 C863.63 3974 438.26 3974 0 3974 C0 2662.58 0 1351.16 0 0 Z M3 3 C3 1312.44 3 2621.88 3 3971 C426.39 3971 849.78 3971 1286 3971 C1286 3694.79 1286 3418.58 1286 3134 C1285.67 3134 1285.34 3134 1285 3134 C1284.94577881 3134.5990918 1284.89155762 3135.19818359 1284.83569336 3135.81542969 C1277.0260567 3218.61153788 1244.7686604 3300.16141103 1188.02734375 3361.7890625 C1186.2385666 3363.73982911 1184.52156881 3365.72980395 1182.8125 3367.75 C1174.06274399 3377.75842161 1164.45397611 3386.80329268 1154 3395 C1152.83528009 3395.95203486 1151.67263933 3396.90661713 1150.51171875 3397.86328125 C1142.02127457 3404.82725314 1133.27832918 3411.13018885 1124 3417 C1122.35257813 3418.05380859 1122.35257813 3418.05380859 1120.671875 3419.12890625 C1094.49858469 3435.52704162 1065.78529646 3448.75617547 1036 3457 C1035.1244043 3457.24556641 1034.24880859 3457.49113281 1033.34667969 3457.74414062 C940.59448978 3483.37346207 842.34958822 3468.09432609 759 3421 C752.01995171 3416.92680987 745.12862728 3412.71296316 738.28222656 3408.41943359 C737.5290918 3407.95102051 736.77595703 3407.48260742 736 3407 C735.22688477 3406.39881348 734.45376953 3405.79762695 733.65722656 3405.17822266 C730.4977536 3403.77730236 729.01032048 3404.20001955 725.84007263 3405.41111755 C724.85189293 3405.82636436 724.85189293 3405.82636436 723.84375 3406.25 C723.13086319 3406.52944962 722.41797638 3406.80889923 721.68348694 3407.09681702 C719.28051148 3408.04453898 716.89094155 3409.02235456 714.5 3410 C712.7702455 3410.68876906 711.03967093 3411.37548163 709.30834961 3412.06030273 C705.53790374 3413.55581641 701.7728789 3415.06403943 698.01123047 3416.58154297 C691.88397498 3419.05141236 685.74234485 3421.48403938 679.59765625 3423.91015625 C671.87384474 3426.96136959 664.15231544 3430.01816631 656.43455505 3433.08465576 C640.9922728 3439.21993864 625.53056605 3445.30505639 610.0625 3451.375 C605.34501491 3453.2264678 600.62756277 3455.07801951 595.91015625 3456.9296875 C594.78609879 3457.37088425 593.66204132 3457.81208099 592.50392151 3458.26664734 C582.26824198 3462.28521891 572.0397308 3466.32178883 561.81350708 3470.36434937 C551.64128262 3474.38507909 541.46328915 3478.3909041 531.28125 3482.38671875 C530.07464218 3482.86032333 528.86803436 3483.33392792 527.62486267 3483.82188416 C521.48160549 3486.2330276 515.33790524 3488.6430333 509.19360352 3491.05151367 C499.11104722 3495.0064631 489.03060698 3498.96346227 478.99609375 3503.0390625 C478.27890167 3503.32967056 477.56170959 3503.62027863 476.82278442 3503.91969299 C473.68847601 3505.19071724 470.55822372 3506.4696597 467.43359375 3507.7644043 C440.77166432 3518.6308729 409.80505518 3509.66017506 384.37890625 3499.12109375 C379.86750301 3497.18841077 375.42995073 3495.11146288 371 3493 C370.24493164 3492.64631348 369.48986328 3492.29262695 368.71191406 3491.92822266 C333.06606503 3475.15150755 300.42771155 3452.18908523 268 3430 C267.13455566 3429.40783691 266.26911133 3428.81567383 265.37744141 3428.20556641 C262.22122814 3426.04321868 259.06899105 3423.87523746 255.92016602 3421.70214844 C242.1197593 3412.1837033 228.25075939 3402.76728889 214.34863281 3393.39819336 C211.63285546 3391.56779448 208.91794499 3389.7361153 206.203125 3387.90429688 C196.15866105 3381.13028787 186.0977103 3374.38209187 176.0038147 3367.68190002 C153.87210505 3352.96843443 132.24113273 3336.83212159 112.84375 3318.6328125 C110.6469884 3316.5989975 108.4257653 3314.63032143 106.16015625 3312.67578125 C101.91065054 3308.97314227 97.91020587 3305.0583254 93.9375 3301.0625 C93.26912109 3300.39798828 92.60074219 3299.73347656 91.91210938 3299.04882812 C72.08510521 3279.18328751 55.93470357 3256.27485186 42 3232 C41.62391602 3231.34854004 41.24783203 3230.69708008 40.86035156 3230.02587891 C26.55218312 3205.00337776 15.46372634 3176.52398535 11 3148 C10.89107422 3147.3080957 10.78214844 3146.61619141 10.66992188 3145.90332031 C-2.54836002 3057.24107101 21.96889288 2959.76465881 127 2649 C127.78310547 2647.32309082 127.78310547 2647.32309082 128.58203125 2645.61230469 C135.59488989 2630.61826691 143.0828787 2616.05721374 151.40917969 2601.75097656 C153.00617568 2598.98932051 154.57359162 2596.21282346 156.1328125 2593.4296875 C162.00324906 2582.97253537 168.12761199 2572.82875935 175 2563 C175.40428223 2562.41702148 175.80856445 2561.83404297 176.22509766 2561.23339844 C188.86801239 2543.04323575 202.31467788 2525.56936877 220 2512 C226.38179549 2506.97097993 232.60840483 2501.79751939 238.75927734 2496.49072266 C242.27714897 2493.46057112 245.82834868 2490.48419393 249.4375 2487.5625 C254.48933717 2483.46020051 259.4030598 2479.21298022 264.31005859 2474.93994141 C268.89096638 2470.95296241 273.50741507 2467.01188319 278.15136719 2463.09863281 C282.16384184 2459.71518052 286.14710388 2456.29899816 290.125 2452.875 C294.18620876 2449.38176144 298.27518971 2445.93551293 302.4375 2442.5625 C307.54372372 2438.42170706 312.50380975 2434.12577253 317.43530273 2429.77954102 C318.02641846 2429.26190186 318.61753418 2428.7442627 319.2265625 2428.2109375 C319.79218399 2427.71220123 320.35780548 2427.21346497 320.94056702 2426.69961548 C323 2425 323 2425 325.23535156 2423.50715637 C330.57196836 2419.86684642 333.04737157 2417.09995598 334.41581726 2410.75930786 C334.65471428 2409.38764969 334.65471428 2409.38764969 334.8984375 2407.98828125 C335.10028152 2407.00632782 335.30212555 2406.02437439 335.51008606 2405.01266479 C336.16567241 2401.78501982 336.7702097 2398.55001169 337.375 2395.3125 C337.82363074 2393.05502721 338.27592064 2390.79827882 338.73168945 2388.54223633 C339.68478807 2383.80743806 340.61994836 2379.06956496 341.54443359 2374.32910156 C342.99344143 2366.95858103 344.55529245 2359.61483376 346.14453125 2352.2734375 C346.40093384 2351.08552109 346.65733643 2349.89760468 346.92150879 2348.6736908 C347.92237257 2344.03824015 348.92420634 2339.4030011 349.92816162 2334.76821899 C350.61847765 2331.56942694 351.30054753 2328.36898406 351.98046875 2325.16796875 C352.18613968 2324.22331757 352.39181061 2323.27866638 352.60371399 2322.3053894 C353.55617516 2317.78970134 354.24802989 2313.64636265 354 2309 C352.98421875 2308.5153125 351.9684375 2308.030625 350.921875 2307.53125 C322.37662511 2293.71847043 294.82181082 2272.41264241 283.78515625 2241.609375 C278.25920652 2224.38257087 279.08545769 2208.5284339 286.49609375 2191.87109375 C289.13954358 2186.82450771 292.41820478 2182.41537665 296 2178 C296.66773438 2177.16726562 297.33546875 2176.33453125 298.0234375 2175.4765625 C312.52872993 2158.3829651 333.07378285 2147.53304634 353 2138 C354.32 2137.34 355.64 2136.68 357 2136 C357 2127.42 357 2118.84 357 2110 C353.761875 2108.80375 350.52375 2107.6075 347.1875 2106.375 C333.95483415 2101.37439512 320.93539175 2095.34972372 310.9375 2085 C310.298125 2084.34 309.65875 2083.68 309 2083 C308.34 2083 307.68 2083 307 2083 C306.61908203 2082.14535156 306.61908203 2082.14535156 306.23046875 2081.2734375 C304.85384171 2078.72995515 303.20847668 2076.80779437 301.3125 2074.625 C288.26766254 2058.45508352 284.16117444 2039.33974438 286 2019 C288.75046954 1998.87957014 300.46559036 1982.10295109 316.25756836 1969.96118164 C329.90349663 1960.01782063 345.06274484 1954.19938821 361 1949 C361 1937.45 361 1925.9 361 1914 C355.72 1912.35 350.44 1910.7 345 1909 C330.59430671 1903.56273663 317.62252848 1896.18188006 306 1886 C305.24074219 1885.33613281 304.48148437 1884.67226562 303.69921875 1883.98828125 C292.0624627 1873.11525012 283.95849513 1858.83754959 282.76171875 1842.80859375 C282.41524629 1827.07144978 287.76806352 1812.74535932 298.63671875 1801.2421875 C315.88364259 1784.87899034 337.20358707 1776.5864657 359 1768 C359 1755.13 359 1742.26 359 1729 C351.575 1727.515 351.575 1727.515 344 1726 C322.63511808 1720.35063218 304.40131152 1709.8247158 292.875 1690.3984375 C284.79178592 1675.74761199 282.50161004 1659.18114769 286 1642.75 C290.47562133 1627.86644795 298.75759595 1614.60144669 311 1605 C311.71542969 1604.43667969 312.43085938 1603.87335938 313.16796875 1603.29296875 C326.32744903 1593.52806127 341.21393602 1587.9035022 357 1584 C357.02312737 1575.93347826 357.04091709 1567.86697028 357.05181217 1559.80042362 C357.05704014 1556.05516963 357.06413622 1552.30993824 357.07543945 1548.56469727 C357.08627141 1544.95318313 357.09227749 1541.34169079 357.09487724 1537.73016167 C357.09673094 1536.34939671 357.10035049 1534.968633 357.10573006 1533.58787727 C357.11294447 1531.66024048 357.11340809 1529.73258193 357.11352539 1527.80493164 C357.115746 1526.70572891 357.11796661 1525.60652618 357.12025452 1524.47401428 C357.28046633 1522.0564853 357.28046633 1522.0564853 356 1521 C354.33037356 1520.78545513 352.65958991 1520.57762818 350.98510742 1520.4050293 C337.96475994 1519.06277202 325.67229132 1516.11405736 314 1510 C312.75669922 1509.35611328 312.75669922 1509.35611328 311.48828125 1508.69921875 C296.01203426 1500.07430873 285.42137774 1486.74355973 280.02734375 1469.9765625 C275.12478683 1451.50646434 278.21735986 1433.82057212 287.08203125 1417.1875 C289.97205701 1412.3845244 293.24625995 1408.153848 297 1404 C297.60328125 1403.31550781 298.2065625 1402.63101562 298.828125 1401.92578125 C314.83345923 1384.81083352 337.80270194 1376.47977685 360 1371 C360.10022461 1369.70827881 360.20044922 1368.41655762 360.30371094 1367.08569336 C370.42715248 1237.49958652 370.42715248 1237.49958652 414 1189 C414.78503906 1188.10539062 415.57007813 1187.21078125 416.37890625 1186.2890625 C418.55521532 1183.82888703 420.76392695 1181.40590138 423 1179 C423.68191406 1178.26394531 424.36382812 1177.52789063 425.06640625 1176.76953125 C430.95237272 1170.645091 437.4422891 1165.45467728 444.20898438 1160.35107422 C445.35250447 1159.48844606 446.49224565 1158.62076993 447.62695312 1157.74658203 C488.70672623 1126.17318764 541.50180594 1110.01458269 592 1102 C592.9585791 1101.84692383 593.9171582 1101.69384766 594.90478516 1101.53613281 C662.72678446 1091.01834585 734.23776001 1097.08281461 798 1123 C798.72026367 1123.28987793 799.44052734 1123.57975586 800.18261719 1123.87841797 C846.69003097 1142.76585273 883.51371685 1176.08971159 909 1219 C909.38526855 1219.64646484 909.77053711 1220.29292969 910.16748047 1220.95898438 C921.19554021 1239.75011922 927.42333854 1260.82293121 932 1282 C933.0415625 1282.17015625 934.083125 1282.3403125 935.15625 1282.515625 C960.89547085 1286.81407791 984.68525753 1293.83753698 1002 1315 C1013.0859749 1331.11138777 1016.20560743 1347.2358911 1013.49609375 1366.6015625 C1012.82870759 1369.49229796 1012.00700853 1372.21042395 1011 1375 C1010.6596875 1375.97839844 1010.319375 1376.95679688 1009.96875 1377.96484375 C1005.00421574 1390.99674618 996.65377214 1401.19232714 987 1411 C986.31679688 1411.70769531 985.63359375 1412.41539063 984.9296875 1413.14453125 C974.05776254 1423.61142371 959.80591246 1430.58247228 945.95263672 1436.19091797 C942.26854048 1437.71743646 938.63709271 1439.36531068 935 1441 C934.94511138 1446.17897015 934.94251889 1451.35438219 934.98779297 1456.53344727 C934.99588978 1458.29385618 934.98984962 1460.0543904 934.96923828 1461.81469727 C934.4356465 1471.47552464 934.4356465 1471.47552464 937.59057617 1480.1574707 C939.69868391 1481.49671811 941.62153145 1482.25597031 944 1483 C945.23690495 1483.62998539 946.46296659 1484.2818305 947.67578125 1484.95703125 C948.88787563 1485.57580535 950.10011783 1486.19428996 951.3125 1486.8125 C958.0102782 1490.3135166 964.04224955 1494.33385347 970 1499 C970.87527344 1499.67160156 971.75054688 1500.34320312 972.65234375 1501.03515625 C975.1428595 1502.97888208 977.58303288 1504.96575401 980 1507 C980.61488281 1507.51691406 981.22976563 1508.03382812 981.86328125 1508.56640625 C992.62008744 1518.43299399 1001.57978626 1534.50164114 1002.23828125 1549.15234375 C1002.75523095 1571.29309062 994.94860096 1587.46694491 979.8125 1603.5 C967.25737925 1615.57332153 952.17592062 1623.72222511 937 1632 C937.33 1647.84 937.66 1663.68 938 1680 C942.95 1682.31 947.9 1684.62 953 1687 C955.8107002 1688.44461898 958.57049502 1689.8803986 961.3125 1691.4375 C962.31047607 1692.00416382 962.31047607 1692.00416382 963.32861328 1692.58227539 C969.01191825 1695.88201412 974.11654712 1699.58994306 979 1704 C979.84046875 1704.73605469 980.6809375 1705.47210937 981.546875 1706.23046875 C993.36784107 1717.20963875 1001.35410071 1732.65338662 1002.203125 1748.8828125 C1002.54671248 1767.28311056 997.37422608 1783.08599466 985 1797 C984.49210938 1797.58910156 983.98421875 1798.17820312 983.4609375 1798.78515625 C971.64960646 1811.55652158 955.43822336 1818.42635357 939 1823 C938.85150851 1836.36423419 939.29346466 1849.65475011 940 1863 C941.0209375 1863.41958984 941.0209375 1863.41958984 942.0625 1863.84765625 C944.74974427 1864.95900328 947.43249001 1866.08052015 950.11279297 1867.20849609 C951.3942961 1867.74596481 952.67723093 1868.28003001 953.96142578 1868.81103516 C974.11466907 1877.16296191 990.83395606 1888.40567329 1000.921875 1908.3125 C1005.65653205 1920.11483352 1005.92963203 1934.42663209 1001.2578125 1946.26953125 C990.23037067 1970.20798417 970.84348437 1985.42025597 949 1999 C948.28158936 1999.26151855 947.56317871 1999.52303711 946.82299805 1999.79248047 C944.18930267 2000.91242044 942.79512516 2001.74773288 941 2004 C939.92676602 2009.51206201 940.2050801 2014.91288861 940.4375 2020.5 C940.4746683 2022.08301485 940.50851211 2023.66611118 940.5390625 2025.24926758 C940.64001083 2029.83534486 940.81409631 2034.41671329 941 2039 C941.04398926 2040.21993652 941.08797852 2041.43987305 941.13330078 2042.69677734 C941.34536465 2048.47058106 941.62500884 2054.23451093 942 2060 C943.0415625 2060.09796875 944.083125 2060.1959375 945.15625 2060.296875 C967.98798424 2062.60932332 990.79983494 2068.57254971 1007 2086 C1009.68103017 2089.50263619 1011.89979562 2093.12431112 1014 2097 C1014.48597656 2097.89203125 1014.97195313 2098.7840625 1015.47265625 2099.703125 C1022.99490875 2115.40555296 1021.95416818 2133.40406521 1016.8125 2149.625 C1008.3704934 2173.44528177 990.40587051 2190.29529828 968.03808594 2201.09960938 C962.23453308 2203.66351725 956.10365777 2205.31758151 950 2207 C947.66628646 2207.66533452 945.33289924 2208.33181587 943 2209 C942.91142779 2229.90252955 943.15604638 2250.79427681 943.46356201 2271.69396973 C943.52530253 2275.91900655 943.58480631 2280.14407491 943.64453125 2284.36914062 C943.76090436 2292.57945843 943.87964006 2300.78973967 944 2309 C944.74408615 2309.31194809 945.4881723 2309.62389618 946.25480652 2309.94529724 C949.66441541 2311.37639763 953.07244798 2312.81121575 956.48046875 2314.24609375 C958.23611145 2314.98200745 958.23611145 2314.98200745 960.02722168 2315.73278809 C979.075521 2323.76246127 999.2052079 2333.21253929 1008.22265625 2353.06640625 C1014.4238509 2368.49148843 1010.73567033 2384.68518885 1004.9375 2399.625 C1001.93626828 2406.53635381 998.31801985 2413.16202905 994.74584961 2419.79150391 C994.27800049 2420.66468262 993.81015137 2421.53786133 993.328125 2422.4375 C992.9043457 2423.21996094 992.48056641 2424.00242187 992.04394531 2424.80859375 C991.0455919 2426.9042954 990.34502856 2428.70531534 990 2431 C991.2653357 2432.98925009 991.2653357 2432.98925009 993.25 2434.875 C996.84249057 2438.6861639 1000.11805723 2442.60859252 1003.3125 2446.75 C1006.94020499 2451.42624012 1010.64858593 2456.00622557 1014.5 2460.5 C1018.26396422 2464.89351694 1021.89072805 2469.36702234 1025.4375 2473.9375 C1029.1943623 2478.75263337 1033.00517019 2483.51417443 1036.9375 2488.1875 C1037.36667725 2488.70884521 1037.79585449 2489.23019043 1038.23803711 2489.76733398 C1041.8674861 2494.03129744 1045.93211249 2497.7380563 1050.08123779 2501.49113464 C1055.8701136 2506.74669112 1061.41907098 2512.23298983 1066.9465332 2517.76123047 C1068.69138808 2519.50388317 1070.44413743 2521.23833163 1072.19726562 2522.97265625 C1078.91754042 2529.6588333 1085.16069087 2536.51496865 1091 2544 C1091.60787354 2544.7645752 1092.21574707 2545.52915039 1092.84204102 2546.31689453 C1100.52480952 2555.9989643 1107.99902344 2565.81308644 1115 2576 C1115.50966309 2576.73992188 1116.01932617 2577.47984375 1116.54443359 2578.2421875 C1126.29862619 2592.47196861 1135.31725344 2607.09515752 1144 2622 C1144.8657666 2623.4837915 1144.8657666 2623.4837915 1145.74902344 2624.99755859 C1159.20543209 2648.19892492 1171.52423314 2672.1484811 1181.9375 2696.875 C1182.40808838 2697.98697754 1182.87867676 2699.09895508 1183.36352539 2700.24462891 C1193.45366759 2724.75996318 1201.4873936 2750.13749833 1209.75 2775.3125 C1210.29121087 2776.95933294 1210.83243006 2778.60616314 1211.37365723 2780.25299072 C1227.68952761 2829.93231247 1243.62217936 2879.80260042 1257.26745605 2930.29058838 C1258.02597043 2933.09605509 1258.78882049 2935.90032302 1259.55175781 2938.70458984 C1270.47944247 2978.98103399 1280.03387965 3019.51220292 1285 3061 C1285.33 3061 1285.66 3061 1286 3061 C1286 2051.86 1286 1042.72 1286 3 C862.61 3 439.22 3 3 3 Z M596.75 1130.375 C595.73780899 1130.52344864 595.73780899 1130.52344864 594.70516968 1130.67489624 C585.85822631 1131.99219728 577.248031 1133.81097411 568.60302734 1136.06298828 C565.69909303 1136.81819223 562.79503098 1137.53143416 559.87109375 1138.203125 C520.78787876 1147.33286765 483.56170748 1164.87690662 453 1191 C452.15824219 1191.71800781 451.31648437 1192.43601562 450.44921875 1193.17578125 C418.47421157 1221.17256047 402.92341932 1258.81030884 396 1300 C395.83258301 1300.99273926 395.66516602 1301.98547852 395.49267578 1303.00830078 C390.50261673 1333.55308477 388.12697003 1365.05593771 389 1396 C388.0884314 1396.09704224 388.0884314 1396.09704224 387.15844727 1396.19604492 C360.64179913 1399.1057082 334.15918912 1405.30720594 315.9765625 1426.4453125 C308.5187158 1436.08450566 305.81308632 1445.82187041 306.70556641 1457.984375 C307.47432883 1463.2471466 310.12637322 1467.62409351 313 1472 C313.57427734 1472.90298828 313.57427734 1472.90298828 314.16015625 1473.82421875 C321.60047214 1483.98465013 335.07785453 1489.09155699 347 1491.3125 C358.11620296 1492.74597629 369.68117632 1492.54379737 380.82568359 1491.48950195 C381.79960052 1491.39820511 382.77351746 1491.30690826 383.77694702 1491.21284485 C384.5105545 1491.14260605 385.24416199 1491.07236725 386 1491 C385.99777939 1491.65238647 385.99555878 1492.30477295 385.99327087 1492.97692871 C385.96575296 1501.48460532 385.94800224 1509.99228675 385.9375 1518.5 C385.93664398 1519.18845253 385.93578796 1519.87690506 385.93490601 1520.58621979 C385.9026001 1550.06675504 386.34518304 1579.52639373 387 1609 C386.32942566 1609.06548035 385.65885132 1609.13096069 384.96795654 1609.19842529 C383.63561981 1609.32981903 383.63561981 1609.32981903 382.27636719 1609.46386719 C381.39954285 1609.54997253 380.52271851 1609.63607788 379.61932373 1609.72479248 C357.63669184 1612.03446712 337.35763373 1618.00497891 322.18359375 1635.0390625 C320.65238372 1636.9655473 319.30384497 1638.91384805 318 1641 C317.38125 1641.9590625 317.38125 1641.9590625 316.75 1642.9375 C312.53610219 1650.66297932 312.7275535 1660.5599338 314.6953125 1668.97265625 C319.27888451 1681.43303898 328.68557299 1689.14032714 340.4375 1694.8125 C353.41756388 1700.2729518 366.53482154 1701.07141756 380.453125 1701.01953125 C381.18354004 1701.01812134 381.91395508 1701.01671143 382.66650391 1701.01525879 C384.44433949 1701.01162165 386.22217088 1701.00601883 388 1701 C387.99214478 1702.0063147 387.99214478 1702.0063147 387.98413086 1703.03295898 C387.79540304 1732.02776405 388.43524091 1761.01205993 389 1790 C388.41611511 1790.12425354 387.83223022 1790.24850708 387.23065186 1790.37652588 C372.07506034 1793.66177508 356.73762216 1798.75718991 343 1806 C341.83339844 1806.60457031 340.66679687 1807.20914063 339.46484375 1807.83203125 C328.68226039 1813.59349711 316.06077434 1821.81767699 312 1834 C311.06550729 1844.11768067 313.52642612 1850.9395144 319.94140625 1858.71484375 C335.56215837 1876.05476783 356.42872616 1885.278087 379.5 1887.125 C380.51320313 1887.21136719 381.52640625 1887.29773437 382.5703125 1887.38671875 C385.04644858 1887.59695672 387.52292026 1887.80124567 390 1888 C389.99777939 1888.54646179 389.99555878 1889.09292358 389.99327087 1889.65594482 C389.88443202 1917.78978941 389.97218333 1945.88265361 391 1974 C390.16960205 1974.04753418 389.3392041 1974.09506836 388.48364258 1974.14404297 C381.67869098 1974.59044545 375.26113249 1975.30643917 368.6875 1977.125 C367.88699219 1977.34309326 367.08648437 1977.56118652 366.26171875 1977.78588867 C348.50035544 1982.83923541 329.93357388 1991.79350201 320.078125 2008.19921875 C314.6472579 2018.91871595 312.95033722 2030.55641864 316.0625 2042.375 C322.20703921 2059.20817951 335.69342048 2069.56172573 351.25 2077.1875 C363.2485313 2082.49809255 373.79432185 2084.05673728 387 2085 C386.67 2108.1 386.34 2131.2 386 2155 C377.75 2158.63 369.5 2162.26 361 2166 C340.98445153 2175.93969414 318.46959618 2188.54154994 310 2210.5625 C307.18364452 2220.88296053 309.3481087 2229.55489412 314 2239 C325.81321449 2259.22609924 348.01775839 2278.39190494 370.8671875 2284.8046875 C377.24448761 2286.12350594 383.51229576 2286.18591459 390 2286 C389.82766846 2286.66467285 389.65533691 2287.3293457 389.4777832 2288.01416016 C387.16346326 2297.08959504 385.1569315 2306.22019316 383.1875 2315.375 C383.013255 2316.18169128 382.83901001 2316.98838257 382.65948486 2317.81951904 C380.03830579 2329.96183782 377.54852953 2342.12394282 375.14916992 2354.31201172 C373.32883566 2363.50448355 371.32515907 2372.64659801 369.25610352 2381.78588867 C367.02605324 2391.70738163 365.0283879 2401.67024043 363.09179688 2411.65234375 C362.41578903 2415.10623258 361.70970387 2418.55290287 361 2422 C360.79600586 2423.09900635 360.59201172 2424.1980127 360.38183594 2425.33032227 C358.95470708 2432.19269782 357.31321836 2435.94045685 351.625 2440.0625 C350.35785261 2441.06222083 349.09093053 2442.06222728 347.82421875 2443.0625 C347.18403809 2443.55105469 346.54385742 2444.03960938 345.88427734 2444.54296875 C342.98461623 2446.78515293 340.21802649 2449.17554459 337.4375 2451.5625 C336.36284929 2452.47238286 335.28732862 2453.38123921 334.2109375 2454.2890625 C333.68081055 2454.73668945 333.15068359 2455.18431641 332.60449219 2455.64550781 C331.53483073 2456.5485026 330.46516927 2457.4514974 329.39550781 2458.35449219 C326.17062589 2461.07750798 322.94823566 2463.80342153 319.72949219 2466.53369141 C318.5094869 2467.56804371 317.28871064 2468.60148699 316.06738281 2469.63427734 C314.10492268 2471.29493126 312.14587015 2472.95952611 310.1875 2474.625 C309.57011963 2475.14634521 308.95273926 2475.66769043 308.31665039 2476.20483398 C306.8588233 2477.44801169 305.42653571 2478.72103695 304 2480 C304 2480.33 304 2480.66 304 2481 C371.22136923 2481.22699962 371.22136923 2481.22699962 438.4375 2480.5625 C469.73592284 2480.00216759 501.03542508 2479.75880757 532.33772659 2479.53080368 C544.92438405 2479.43911404 557.51102801 2479.34561571 570.09765625 2479.25 C571.11832644 2479.24225937 571.11832644 2479.24225937 572.15961623 2479.23436236 C594.81461595 2479.06217652 617.46814321 2478.83002949 640.1218071 2478.53125 C673.91373732 2478.08721629 707.70622426 2477.76750055 741.5 2477.5 C742.7841341 2477.48983479 744.0682682 2477.47966957 745.39131546 2477.46919632 C826.92648496 2476.82770948 908.46349328 2476.42840324 990 2476 C986.72241875 2471.04325164 986.72241875 2471.04325164 983.01171875 2466.4140625 C982.47409912 2465.79764893 981.93647949 2465.18123535 981.38256836 2464.54614258 C980.8231958 2463.91216553 980.26382324 2463.27818848 979.6875 2462.625 C979.10427979 2461.95944092 978.52105957 2461.29388184 977.92016602 2460.6081543 C976.7780448 2459.3049463 975.63478301 2458.00273678 974.49023438 2456.70166016 C972.78587262 2454.75549347 971.11352365 2452.78307236 969.4375 2450.8125 C967.36763273 2448.41082195 965.18335583 2446.20430851 962.87890625 2444.03125 C962.04564819 2443.23497192 962.04564819 2443.23497192 961.19555664 2442.42260742 C960.08410953 2441.36717277 958.95986447 2440.32501845 957.82202148 2439.2980957 C956.28125 2437.83203125 956.28125 2437.83203125 954 2435 C954.31327209 2431.44588335 955.41051949 2428.93168741 957.30078125 2425.9453125 C957.77781494 2425.17687012 958.25484863 2424.40842773 958.74633789 2423.61669922 C959.26317139 2422.79443848 959.78000488 2421.97217773 960.3125 2421.125 C964.98635006 2413.50399035 969.39670795 2405.78567966 973.5625 2397.875 C974.06241455 2396.94059082 974.5623291 2396.00618164 975.07739258 2395.04345703 C980.01432902 2385.56501223 983.78466102 2375.84294046 982 2365 C976.24045242 2351.74174733 958.41476493 2345.9507517 946 2341 C940.62754872 2338.98505161 935.20789187 2337.10010129 929.79296875 2335.203125 C928.35092457 2334.69513343 926.9089886 2334.18683454 925.46716309 2333.67822266 C921.97934572 2332.44861289 918.49009443 2331.22313397 915 2330 C914.98969254 2328.76973083 914.97938507 2327.53946167 914.96876526 2326.27191162 C914.86933391 2314.45380613 914.76650218 2302.63573403 914.66066074 2290.81768417 C914.60639835 2284.74760919 914.55317763 2278.67752949 914.50268555 2272.60742188 C914.24495434 2241.73064006 913.81094308 2210.86750092 913 2180 C913.80845871 2180.01231155 914.61691742 2180.02462311 915.44987488 2180.03730774 C917.6790897 2180.07125517 919.90831275 2180.10466595 922.13754272 2180.13760376 C924.46593234 2180.17419571 926.7941866 2180.21968787 929.12231445 2180.27026367 C947.25179005 2180.40236751 963.54845834 2172.73869272 976.6796875 2160.41015625 C986.65407255 2150.04955764 992.38907441 2137.24681758 992.21484375 2122.84375 C991.60370264 2114.75446407 988.21549832 2107.90821826 982.28515625 2102.41015625 C967.38935773 2090.43868627 949.35619603 2088.8247285 931 2088.8125 C929.22749878 2088.8112915 929.22749878 2088.8112915 927.41918945 2088.81005859 C922.06913846 2088.8444395 917.31720323 2089.11379946 912 2090 C912.33 2055.68 912.66 2021.36 913 1986 C920.26 1982.04 927.52 1978.08 935 1974 C939.82775072 1970.74224952 944.42638091 1967.55660611 949 1964 C949.98226562 1963.25105469 950.96453125 1962.50210938 951.9765625 1961.73046875 C962.01326859 1953.83658558 973.26107847 1943.90120624 975.57421875 1930.73046875 C975.92373956 1924.05850493 975.04255188 1919.32622617 970.87109375 1914.046875 C970.25363281 1913.37140625 969.63617187 1912.6959375 969 1912 C968.39285156 1911.32453125 967.78570313 1910.6490625 967.16015625 1909.953125 C960.5619064 1903.41819808 952.37539428 1899.73542585 944 1896 C942.9378125 1895.525625 941.875625 1895.05125 940.78125 1894.5625 C931.00627804 1890.53158373 921.48214875 1888.62053719 911 1886 C910.67 1856.96 910.34 1827.92 910 1798 C916.27 1797.34 922.54 1796.68 929 1796 C945.96369446 1791.22896093 960.90367042 1784.2644003 969.84375 1768.359375 C973.86095634 1760.16210261 974.64283268 1750.95726219 972.1953125 1742.08203125 C964.69764414 1725.81984712 948.3147719 1715.9337194 932.3046875 1709.51953125 C928.88421437 1708.2979337 925.44718283 1707.14363444 922 1706 C919.06420023 1704.91200616 916.13441909 1703.80960724 913.20703125 1702.69921875 C910.90920653 1701.84899025 910.90920653 1701.84899025 908 1702 C908 1672.3 908 1642.6 908 1612 C910.97 1611.01 913.94 1610.02 917 1609 C919.58911185 1607.83936366 922.10438261 1606.66402541 924.625 1605.375 C925.30594727 1605.02800049 925.98689453 1604.68100098 926.68847656 1604.32348633 C939.26188693 1597.82935178 949.91097353 1590.9672886 960 1581 C960.69996094 1580.37222656 961.39992188 1579.74445313 962.12109375 1579.09765625 C968.03669363 1573.69092517 972.47013904 1566.09739654 973.30859375 1558.03125 C973.7043804 1547.18909459 971.31000192 1540.67551455 964.05859375 1532.67578125 C957.98337198 1526.25572982 951.58194906 1520.58794077 944 1516 C943.45601562 1515.66581055 942.91203125 1515.33162109 942.3515625 1514.98730469 C930.96478309 1508.05703228 919.38111311 1503.30619133 907 1498 C906.67 1471.27 906.34 1444.54 906 1417 C910.62 1416.01 915.24 1415.02 920 1414 C944.28984485 1407.56195668 966.51008352 1395.95257276 979.9375 1373.8125 C985.54521333 1364.12162897 986.93477795 1352.41433633 984.41796875 1341.46875 C983.48168841 1339.38242668 982.41976396 1337.79399522 981 1336 C980.1028125 1334.80697266 980.1028125 1334.80697266 979.1875 1333.58984375 C969.34941285 1321.59967503 956.043394 1315.31565427 941 1312.875 C939.96359375 1312.70323242 938.9271875 1312.53146484 937.859375 1312.35449219 C926.94662308 1310.65761198 916.02989728 1310.18051186 905 1310 C905.00797607 1309.35716064 905.01595215 1308.71432129 905.02416992 1308.05200195 C905.3372623 1264.31258976 883.043848 1225.21052938 854 1194 C853.08154297 1193.00033203 853.08154297 1193.00033203 852.14453125 1191.98046875 C833.258839 1172.20888049 807.55860281 1157.82903673 782.3515625 1147.92480469 C780.81943307 1147.32226043 779.29056773 1146.71132804 777.765625 1146.09082031 C758.49281613 1138.25697025 738.05813253 1133.31084035 717.46484375 1130.5078125 C714 1130 714 1130 711 1129 C673.34967042 1123.33163453 634.2822801 1124.80666402 596.75 1130.375 Z M313.04883974 2512.98957341 C308.57255341 2512.99016289 304.09681726 2513.01954201 299.62070806 2513.05769663 C297.59955012 2513.06934334 295.57828291 2513.06943302 293.55713372 2513.0563556 C281.44975155 2512.98541837 273.17368073 2513.86534075 263 2521 C262.03331347 2521.65268527 261.06662694 2522.30537055 260.07064688 2522.97783417 C244.03335566 2534.03370488 229.99218517 2547.70892652 218 2563 C216.75863281 2564.53333984 216.75863281 2564.53333984 215.4921875 2566.09765625 C167.91712152 2625.1160505 135.70915892 2697.5620013 109 2768 C108.53964355 2769.21284668 108.07928711 2770.42569336 107.60498047 2771.67529297 C96.39546289 2801.38877165 85.82727073 2831.48759664 77 2862 C76.64035156 2863.21300781 76.28070313 2864.42601563 75.91015625 2865.67578125 C73.52460706 2873.82880278 71.40632913 2882.05016633 69.28100586 2890.27392578 C67.7555424 2896.1620326 66.16320074 2902.02454175 64.5 2907.875 C54.02372873 2945.14400989 46.14621606 2983.78100046 41.3515625 3022.18701172 C40.97239171 3025.2209047 40.5795343 3028.25290038 40.1875 3031.28515625 C38.87877084 3041.59840941 37.70232761 3051.86423495 37.29052734 3062.25683594 C37.17064433 3065.2708274 36.97064244 3068.18579754 36.49951172 3071.16748047 C35.93540462 3075.49561012 35.82051425 3079.70385103 35.796875 3084.0625 C35.78990601 3084.92289383 35.78293701 3085.78328766 35.77575684 3086.66975403 C35.75838574 3089.44655256 35.75203207 3092.22314932 35.75 3095 C35.74899292 3095.94684662 35.74798584 3096.89369324 35.74694824 3097.86923218 C35.75659499 3111.25508872 36.13457672 3124.33323363 38.55566406 3137.53466797 C39.01274506 3140.07071407 39.39674708 3142.61102604 39.7734375 3145.16015625 C44.19029288 3173.27939664 56.7159642 3202.0811953 72 3226 C72.50257324 3226.78681152 73.00514648 3227.57362305 73.52294922 3228.38427734 C82.9467051 3243.01897587 92.89646394 3256.80421313 104.74609375 3269.5625 C106.65642781 3271.62844186 108.4932997 3273.72950579 110.3125 3275.875 C117.85785912 3284.54679899 126.22601602 3292.58668733 135 3300 C136.01289941 3300.88667391 137.02449966 3301.77483301 138.03515625 3302.6640625 C146.05369663 3309.68360953 154.36853235 3316.16862284 162.95019531 3322.48242188 C165.02772124 3324.02052349 167.08995479 3325.57714684 169.1484375 3327.140625 C170.17928467 3327.92179687 170.17928467 3327.92179687 171.23095703 3328.71875 C172.5122606 3329.69049558 173.79206633 3330.66422187 175.06982422 3331.640625 C179.67833578 3335.12079892 184.4411993 3338.32887315 189.25683594 3341.51464844 C193.90930657 3344.59561216 198.53141094 3347.72153113 203.15625 3350.84375 C204.07186707 3351.46159363 204.98748413 3352.07943726 205.93084717 3352.71600342 C209.74831158 3355.29215019 213.56529979 3357.86900215 217.38232422 3360.44580078 C226.74296023 3366.76442959 236.10395391 3373.08128044 245.5078125 3379.33544922 C249.44296608 3381.9637679 253.34836386 3384.63477398 257.25 3387.3125 C258.06082031 3387.86808594 258.87164062 3388.42367187 259.70703125 3388.99609375 C264.80802105 3392.49254686 269.90463012 3395.99536404 275 3399.5 C294.91069772 3413.21854932 294.91069772 3413.21854932 314.99658203 3426.67822266 C316.39458491 3427.60057064 317.79129491 3428.52487992 319.18701172 3429.45068359 C364.61816584 3459.67303384 364.61816584 3459.67303384 415 3480 C416.02480469 3480.29777344 417.04960937 3480.59554687 418.10546875 3480.90234375 C435.92694248 3485.43605981 451.6518916 3483.60478869 468.3125 3476.375 C470.04237035 3475.65818045 471.77396515 3474.94551116 473.50708008 3474.23657227 C477.28714762 3472.68734763 481.05973301 3471.12144954 484.82910156 3469.54638672 C495.0047161 3465.31964666 505.28822485 3461.36149597 515.55282593 3457.35723877 C521.59520534 3454.99702706 527.63151717 3452.62141652 533.66796875 3450.24609375 C534.82970108 3449.78916138 535.99143341 3449.332229 537.18836975 3448.8614502 C547.53231294 3444.79240365 557.87171955 3440.71192656 568.2093811 3436.62695312 C582.75736307 3430.87873679 597.31535417 3425.1561013 611.875 3419.4375 C613.04994019 3418.97599548 614.22488037 3418.51449097 615.4354248 3418.03900146 C627.15035102 3413.43763856 638.86575783 3408.83750074 650.58181953 3404.23902988 C656.26095751 3402.00998394 661.93986113 3399.78034141 667.61871338 3397.55056763 C671.13738243 3396.16921132 674.65633257 3394.78857289 678.17529297 3393.40795898 C684.45240631 3390.94423547 690.72733438 3388.47502535 697 3386 C698.0010376 3385.60518433 699.0020752 3385.21036865 700.03344727 3384.80358887 C702.87253097 3383.682138 705.71000638 3382.55672819 708.546875 3381.4296875 C709.39364807 3381.09534698 710.24042114 3380.76100647 711.112854 3380.41653442 C714.82893008 3379.15926596 714.82893008 3379.15926596 718 3377 C718.11747629 3374.01689195 718.16406889 3371.05848112 718.16796875 3368.07421875 C718.17206757 3367.08106155 718.17616638 3366.08790436 718.1803894 3365.06465149 C718.19030738 3361.6055695 718.18984694 3358.14659474 718.1875 3354.6875 C718.18789276 3353.47634521 718.18828552 3352.26519043 718.18869019 3351.01733398 C718.17745418 3321.00047434 717.64000397 3290.98777834 717.12982559 3260.97610855 C717.06252045 3257.00120799 716.99654386 3253.02628701 716.93075562 3249.05136108 C716.82489519 3242.6931283 716.71410004 3236.33499903 716.59943008 3229.97691917 C716.55703008 3227.60081379 716.51588276 3225.22468568 716.4760704 3222.84853554 C716.42034957 3219.55258484 716.35941877 3216.25676957 716.29711914 3212.9609375 C716.27446126 3211.5321 716.27446126 3211.5321 716.25134563 3210.07439709 C716.12203993 3203.64043284 715.58602716 3197.4462988 715 3191 C724.57 3191.33 734.14 3191.66 744 3192 C744.3654081 3210.16402692 744.3654081 3210.16402692 744.52679443 3218.48194885 C744.57017962 3220.71574931 744.61357586 3222.94954956 744.65698242 3225.18334961 C744.69042472 3226.90597629 744.69042472 3226.90597629 744.72454262 3228.66340351 C744.86439509 3235.81042656 745.01359897 3242.95718815 745.16937733 3250.10388088 C745.66658774 3273.05484158 746.11078596 3295.98678483 745.85763359 3318.94342041 C745.80064521 3324.61256879 745.77876458 3330.28200507 745.7539072 3335.95137405 C745.72953052 3340.36529118 745.67494563 3344.7750101 745.55514526 3349.18743896 C744.00715349 3367.23263581 744.00715349 3367.23263581 750.01074219 3383.12988281 C753.08846127 3385.56675729 756.34850436 3387.02154893 760.04421997 3388.28921509 C762.95331286 3389.34646043 765.44132022 3390.97555614 768.0546875 3392.6171875 C769.98970831 3393.71215731 771.92993249 3394.79797781 773.875 3395.875 C774.9381543 3396.46450439 776.00130859 3397.05400879 777.09667969 3397.66137695 C843.57989937 3434.1175493 919.74829395 3450.6382754 995 3437 C996.10859375 3436.80212891 997.2171875 3436.60425781 998.359375 3436.40039062 C1010.11706993 3434.24806377 1021.64269844 3431.60985221 1032.94824219 3427.70654297 C1035.22279303 3426.92327903 1037.50566281 3426.16721683 1039.7890625 3425.41015625 C1051.17335606 3421.58491907 1062.14729018 3417.13865971 1073 3412 C1073.6801416 3411.67918457 1074.3602832 3411.35836914 1075.06103516 3411.02783203 C1094.62420371 3401.7212655 1112.87994878 3390.26975858 1130 3377 C1131.30517578 3375.98873047 1131.30517578 3375.98873047 1132.63671875 3374.95703125 C1149.96772493 3361.14921915 1165.25626932 3345.30248428 1178.68408203 3327.71435547 C1179.96191007 3326.04962291 1181.25685053 3324.39997832 1182.55859375 3322.75390625 C1193.65010197 3308.66975916 1203.05105303 3293.51658982 1212 3278 C1212.42780762 3277.25862793 1212.85561523 3276.51725586 1213.29638672 3275.75341797 C1240.97494081 3227.10459877 1256.98041784 3167.73257033 1257.203125 3111.7734375 C1257.21167511 3110.05454819 1257.21167511 3110.05454819 1257.22039795 3108.30093384 C1257.22979416 3105.8822724 1257.23636036 3103.46359846 1257.24023438 3101.04492188 C1257.24984473 3097.43335074 1257.28088141 3093.82237328 1257.3125 3090.2109375 C1257.40968218 3069.12258411 1255.20864693 3048.62352209 1251.1875 3027.9375 C1251.06060791 3027.27232361 1250.93371582 3026.60714722 1250.80297852 3025.92181396 C1248.74401417 3015.14217425 1246.27472399 3004.4979659 1243.50390625 2993.87890625 C1241.83788708 2987.47205861 1240.3911375 2981.02021119 1238.9375 2974.5625 C1237.14477234 2966.6571213 1235.1979931 2958.8606879 1232.81958008 2951.11181641 C1231.23659812 2945.9269038 1229.90319089 2940.70519579 1228.625 2935.4375 C1224.63291775 2919.11996302 1219.71682806 2903.07413291 1214.55957031 2887.09179688 C1212.29023343 2880.02085967 1210.20297213 2872.90855552 1208.21655273 2865.75317383 C1204.05270206 2850.84102841 1199.12094714 2836.1507353 1194.3125 2821.4375 C1193.05791546 2817.5952732 1191.80407505 2813.75280426 1190.55078125 2809.91015625 C1190.0885466 2808.49307373 1190.0885466 2808.49307373 1189.61697388 2807.04736328 C1187.84786528 2801.61842424 1186.09140937 2796.18572691 1184.35546875 2790.74609375 C1168.94707117 2742.47946948 1152.22722102 2695.85561483 1127.37597656 2651.47119141 C1126.08375342 2649.15041734 1124.81478298 2646.8188062 1123.5546875 2644.48046875 C1106.25339305 2612.52479954 1085.53503821 2581.82035986 1061.41503906 2554.60351562 C1060.39436714 2553.44689499 1059.38165174 2552.28323595 1058.37402344 2551.11523438 C1048.09844654 2539.22814205 1037.04438726 2527.8526657 1024 2519 C1023.31087512 2518.50422177 1022.62175024 2518.00844355 1021.91174278 2517.49764174 C1015.21519346 2513.01271612 1010.08528883 2512.14349895 1002.12761497 2512.25891972 C1000.38441149 2512.24808572 1000.38441149 2512.24808572 998.60599178 2512.23703286 C995.3924714 2512.22310006 992.18036703 2512.23590949 988.96695049 2512.26020148 C985.46586035 2512.27999541 981.96488946 2512.26477701 978.46378386 2512.2540707 C972.33069962 2512.24011328 966.19795978 2512.24838334 960.06490707 2512.2713089 C950.94283591 2512.30531171 941.82099249 2512.30483077 932.6988726 2512.29739065 C917.34073517 2512.28585972 901.98274723 2512.30240153 886.62464523 2512.3350544 C871.38798445 2512.36738346 856.1513875 2512.38764488 840.91469193 2512.39179802 C839.49130308 2512.39219899 839.49130308 2512.39219899 838.03915891 2512.39260806 C833.21873498 2512.39391044 828.39831102 2512.39500935 823.57788701 2512.39603698 C789.41272282 2512.40375476 755.24764183 2512.44003966 721.08251953 2512.49243164 C688.01220675 2512.54310635 654.94193019 2512.57865055 621.87158203 2512.5949707 C620.85558575 2512.5954768 619.83958948 2512.59598289 618.79280543 2512.59650432 C610.61659729 2512.60056997 602.44038911 2512.60456729 594.26418087 2512.60844377 C557.83503703 2512.62572129 521.40590119 2512.65443589 484.9767676 2512.68642983 C481.17273625 2512.68976558 477.36870484 2512.69302665 473.56467336 2512.69621959 C451.64169898 2512.71463435 429.71873592 2512.73631856 407.7957782 2512.76941944 C406.08492911 2512.77199484 404.37408 2512.77456573 402.6632309 2512.77713203 C401.82524204 2512.77838909 400.98725318 2512.77964614 400.12387072 2512.78094128 C394.40801968 2512.78927966 388.69216954 2512.79523207 382.97631454 2512.80004501 C367.12688983 2512.81417575 351.27796757 2512.84635707 335.42879848 2512.94168598 C327.9685708 2512.98567168 320.50918051 2513.0004641 313.04883974 2512.98957341 Z " fill="#010101" transform="translate(0,0)"/>
<path d="M0 0 C425.37 0 850.74 0 1289 0 C1289 1311.42 1289 2622.84 1289 3974 C863.63 3974 438.26 3974 0 3974 C0 2662.58 0 1351.16 0 0 Z M3 3 C3 1312.44 3 2621.88 3 3971 C426.39 3971 849.78 3971 1286 3971 C1286 2661.56 1286 1352.12 1286 3 C862.61 3 439.22 3 3 3 Z " fill="#FCFCFC" transform="translate(0,0)"/>
</svg>
