<?xml version="1.0" encoding="UTF-8"?>
<!DOCTYPE svg PUBLIC "-//W3C//DTD SVG 1.1//EN" "http://www.w3.org/Graphics/SVG/1.1/DTD/svg11.dtd">
<svg xmlns="http://www.w3.org/2000/svg" version="1.1" width="1196px" height="3975px" style="shape-rendering:geometricPrecision; text-rendering:geometricPrecision; image-rendering:optimizeQuality; fill-rule:evenodd; clip-rule:evenodd" xmlns:xlink="http://www.w3.org/1999/xlink">
<g><path style="opacity:0.844" fill="#fdfdfd" d="M -0.5,-0.5 C 398.167,-0.5 796.833,-0.5 1195.5,-0.5C 1195.5,1324.5 1195.5,2649.5 1195.5,3974.5C 796.833,3974.5 398.167,3974.5 -0.5,3974.5C -0.5,2649.5 -0.5,1324.5 -0.5,-0.5 Z M 1191.5,1080.5 C 1183.65,1013.48 1157.81,954.478 1114,903.5C 1081.79,868.942 1046.29,838.442 1007.5,812C 936.662,766.071 864.328,722.404 790.5,681C 732.78,651.14 674.78,621.807 616.5,593C 594.125,582.208 570.792,574.208 546.5,569C 520.071,565.084 494.071,567.084 468.5,575C 436.231,586.466 404.898,600.133 374.5,616C 282.295,662.738 196.961,719.405 118.5,786C 106.095,797.616 93.5949,809.116 81,820.5C 39.1582,866.619 15.4916,920.952 10,983.5C 5.03554,1044.52 11.0355,1104.52 28,1163.5C 54.5424,1259.94 99.8757,1345.94 164,1421.5C 175.063,1433.23 186.729,1444.23 199,1454.5C 232.967,1491.47 267.3,1528.13 302,1564.5C 310.521,1603.91 319.354,1643.25 328.5,1682.5C 316.578,1688.46 304.911,1694.96 293.5,1702C 274.471,1714.36 259.638,1730.53 249,1750.5C 237.565,1777.24 240.898,1801.9 259,1824.5C 279.39,1845.29 303.224,1860.95 330.5,1871.5C 331.665,1881.15 331.832,1890.82 331,1900.5C 302.718,1907.13 279.718,1921.79 262,1944.5C 239.726,1983.46 245.226,2017.96 278.5,2048C 295.545,2060.47 314.378,2069.3 335,2074.5C 335.667,2087.5 335.667,2100.5 335,2113.5C 306.594,2119.61 282.261,2132.94 262,2153.5C 248.83,2168.01 243.497,2185.01 246,2204.5C 249.389,2217.78 256.222,2228.95 266.5,2238C 286.507,2253.25 308.673,2264.42 333,2271.5C 333.667,2285.83 333.667,2300.17 333,2314.5C 306.161,2317.09 283.161,2327.76 264,2346.5C 245.084,2370.72 242.417,2396.72 256,2424.5C 274.233,2450.89 299.4,2466.55 331.5,2471.5C 331.303,2494.84 330.97,2518.17 330.5,2541.5C 305.559,2541.54 283.225,2549.04 263.5,2564C 237.752,2589.22 232.918,2618.06 249,2650.5C 260.156,2668.99 275.656,2682.49 295.5,2691C 307.898,2696.58 320.732,2700.74 334,2703.5C 335.574,2740.24 340.24,2776.57 348,2812.5C 365.265,2873.75 401.765,2919.59 457.5,2950C 502.77,2973.76 550.77,2989.09 601.5,2996C 673.019,3006.4 743.352,3001.07 812.5,2980C 862.24,2964.73 904.073,2937.56 938,2898.5C 961.958,2869.58 977.624,2836.58 985,2799.5C 1006.2,2798.24 1026.03,2792.41 1044.5,2782C 1075.87,2761.55 1086.04,2733.38 1075,2697.5C 1061.72,2670.22 1041.22,2650.39 1013.5,2638C 1005.38,2634.46 997.048,2631.63 988.5,2629.5C 988.333,2615.16 988.5,2600.83 989,2586.5C 1011.7,2577.12 1031.7,2563.79 1049,2546.5C 1072.3,2517.34 1071.96,2488.34 1048,2459.5C 1031.43,2443.04 1012.43,2430.04 991,2420.5C 990.046,2402.45 990.546,2384.45 992.5,2366.5C 1014.68,2359.17 1033.85,2347.17 1050,2330.5C 1070.67,2302.18 1070.67,2273.84 1050,2245.5C 1034.78,2228.47 1015.94,2217.47 993.5,2212.5C 992.633,2197.49 992.967,2182.49 994.5,2167.5C 1013.61,2162.45 1030.94,2153.95 1046.5,2142C 1073.16,2116.42 1075.33,2088.92 1053,2059.5C 1036.44,2041.21 1017.1,2026.55 995,2015.5C 995.356,1994.85 995.522,1974.18 995.5,1953.5C 1021.44,1953.69 1044.77,1946.19 1065.5,1931C 1087.16,1909.02 1092.33,1883.52 1081,1854.5C 1069.25,1828.09 1049.75,1809.92 1022.5,1800C 1014.46,1797.21 1006.29,1795.04 998,1793.5C 997.542,1756.5 997.709,1719.5 998.5,1682.5C 1022.45,1676.11 1043.95,1665.11 1063,1649.5C 1076.07,1634.14 1079.4,1616.81 1073,1597.5C 1066.75,1581 1058.92,1565.33 1049.5,1550.5C 1068.14,1522.7 1086.97,1495.03 1106,1467.5C 1113.71,1449.08 1122.71,1431.42 1133,1414.5C 1142.71,1392.36 1151.05,1369.69 1158,1346.5C 1174.12,1294.07 1185.29,1240.73 1191.5,1186.5C 1191.5,2114.5 1191.5,3042.5 1191.5,3970.5C 795.5,3970.5 399.5,3970.5 3.5,3970.5C 3.5,2648.17 3.5,1325.83 3.5,3.5C 399.5,3.5 795.5,3.5 1191.5,3.5C 1191.5,362.5 1191.5,721.5 1191.5,1080.5 Z"/></g>
<g><path style="opacity:0.982" fill="#010101" d="M 1191.5,1080.5 C 1192.79,1115.83 1192.79,1151.16 1191.5,1186.5C 1185.29,1240.73 1174.12,1294.07 1158,1346.5C 1151.05,1369.69 1142.71,1392.36 1133,1414.5C 1122.71,1431.42 1113.71,1449.08 1106,1467.5C 1086.97,1495.03 1068.14,1522.7 1049.5,1550.5C 1058.92,1565.33 1066.75,1581 1073,1597.5C 1079.4,1616.81 1076.07,1634.14 1063,1649.5C 1043.95,1665.11 1022.45,1676.11 998.5,1682.5C 997.709,1719.5 997.542,1756.5 998,1793.5C 1006.29,1795.04 1014.46,1797.21 1022.5,1800C 1049.75,1809.92 1069.25,1828.09 1081,1854.5C 1092.33,1883.52 1087.16,1909.02 1065.5,1931C 1044.77,1946.19 1021.44,1953.69 995.5,1953.5C 995.522,1974.18 995.356,1994.85 995,2015.5C 1017.1,2026.55 1036.44,2041.21 1053,2059.5C 1075.33,2088.92 1073.16,2116.42 1046.5,2142C 1030.94,2153.95 1013.61,2162.45 994.5,2167.5C 992.967,2182.49 992.633,2197.49 993.5,2212.5C 1015.94,2217.47 1034.78,2228.47 1050,2245.5C 1070.67,2273.84 1070.67,2302.18 1050,2330.5C 1033.85,2347.17 1014.68,2359.17 992.5,2366.5C 990.546,2384.45 990.046,2402.45 991,2420.5C 1012.43,2430.04 1031.43,2443.04 1048,2459.5C 1071.96,2488.34 1072.3,2517.34 1049,2546.5C 1031.7,2563.79 1011.7,2577.12 989,2586.5C 988.5,2600.83 988.333,2615.16 988.5,2629.5C 997.048,2631.63 1005.38,2634.46 1013.5,2638C 1041.22,2650.39 1061.72,2670.22 1075,2697.5C 1086.04,2733.38 1075.87,2761.55 1044.5,2782C 1026.03,2792.41 1006.2,2798.24 985,2799.5C 977.624,2836.58 961.958,2869.58 938,2898.5C 904.073,2937.56 862.24,2964.73 812.5,2980C 743.352,3001.07 673.019,3006.4 601.5,2996C 550.77,2989.09 502.77,2973.76 457.5,2950C 401.765,2919.59 365.265,2873.75 348,2812.5C 340.24,2776.57 335.574,2740.24 334,2703.5C 320.732,2700.74 307.898,2696.58 295.5,2691C 275.656,2682.49 260.156,2668.99 249,2650.5C 232.918,2618.06 237.752,2589.22 263.5,2564C 283.225,2549.04 305.559,2541.54 330.5,2541.5C 330.97,2518.17 331.303,2494.84 331.5,2471.5C 299.4,2466.55 274.233,2450.89 256,2424.5C 242.417,2396.72 245.084,2370.72 264,2346.5C 283.161,2327.76 306.161,2317.09 333,2314.5C 333.667,2300.17 333.667,2285.83 333,2271.5C 308.673,2264.42 286.507,2253.25 266.5,2238C 256.222,2228.95 249.389,2217.78 246,2204.5C 243.497,2185.01 248.83,2168.01 262,2153.5C 282.261,2132.94 306.594,2119.61 335,2113.5C 335.667,2100.5 335.667,2087.5 335,2074.5C 314.378,2069.3 295.545,2060.47 278.5,2048C 245.226,2017.96 239.726,1983.46 262,1944.5C 279.718,1921.79 302.718,1907.13 331,1900.5C 331.832,1890.82 331.665,1881.15 330.5,1871.5C 303.224,1860.95 279.39,1845.29 259,1824.5C 240.898,1801.9 237.565,1777.24 249,1750.5C 259.638,1730.53 274.471,1714.36 293.5,1702C 304.911,1694.96 316.578,1688.46 328.5,1682.5C 319.354,1643.25 310.521,1603.91 302,1564.5C 267.3,1528.13 232.967,1491.47 199,1454.5C 186.729,1444.23 175.063,1433.23 164,1421.5C 99.8757,1345.94 54.5424,1259.94 28,1163.5C 11.0355,1104.52 5.03554,1044.52 10,983.5C 15.4916,920.952 39.1582,866.619 81,820.5C 93.5949,809.116 106.095,797.616 118.5,786C 196.961,719.405 282.295,662.738 374.5,616C 404.898,600.133 436.231,586.466 468.5,575C 494.071,567.084 520.071,565.084 546.5,569C 570.792,574.208 594.125,582.208 616.5,593C 674.78,621.807 732.78,651.14 790.5,681C 864.328,722.404 936.662,766.071 1007.5,812C 1046.29,838.442 1081.79,868.942 1114,903.5C 1157.81,954.478 1183.65,1013.48 1191.5,1080.5 Z"/></g>
<g><path style="opacity:1" fill="#fdfdfd" d="M 503.5,598.5 C 531.507,596.946 558.507,601.446 584.5,612C 618.987,627.243 652.987,643.576 686.5,661C 799.102,717.272 907.102,780.605 1010.5,851C 1039.44,871.928 1065.94,895.762 1090,922.5C 1147.05,990.626 1171.39,1069.29 1163,1158.5C 1159,1223.5 1146.67,1286.83 1126,1348.5C 1121.53,1362.24 1116.86,1375.91 1112,1389.5C 1107.09,1398.99 1101.92,1408.33 1096.5,1417.5C 798.501,1418.67 500.501,1418.83 202.5,1418C 169.095,1384 140.928,1346.17 118,1304.5C 74.3867,1226.99 48.0534,1143.99 39,1055.5C 33.5914,1003.7 40.5914,953.695 60,905.5C 73.0863,875.501 91.9197,849.668 116.5,828C 217.126,737.97 329.792,665.97 454.5,612C 470.606,606.061 486.939,601.561 503.5,598.5 Z"/></g>
<g><path style="opacity:1" fill="#656566" d="M 1081.5,1449.5 C 799.334,1448.5 517,1448.17 234.5,1448.5C 374.931,1447.83 516.097,1447.5 658,1447.5C 799.5,1447.83 941,1448.17 1082.5,1448.5C 1082.38,1449.11 1082.04,1449.44 1081.5,1449.5 Z"/></g>
<g><path style="opacity:1" fill="#b7b7b8" d="M 234.5,1448.5 C 517,1448.17 799.334,1448.5 1081.5,1449.5C 1059.25,1483.09 1036.58,1516.42 1013.5,1549.5C 1023.6,1565.44 1033.1,1581.78 1042,1598.5C 1050.21,1613.12 1047.71,1625.28 1034.5,1635C 1028.32,1638.59 1021.99,1641.92 1015.5,1645C 1000.13,1650.88 984.63,1656.38 969,1661.5C 968.026,1715.16 967.526,1768.83 967.5,1822.5C 995.613,1819.82 1020.11,1827.82 1041,1846.5C 1046.94,1853.37 1051.6,1861.03 1055,1869.5C 1060.9,1892.2 1053.07,1908.04 1031.5,1917C 1010.03,1924.24 988.026,1926.41 965.5,1923.5C 965.333,1960.5 965.5,1997.5 966,2034.5C 990.061,2045.23 1011.39,2059.9 1030,2078.5C 1042.19,2093.47 1041.02,2107.3 1026.5,2120C 1015.78,2127.52 1004.12,2133.19 991.5,2137C 982.299,2139.42 973.133,2141.92 964,2144.5C 963.5,2163.83 963.333,2183.16 963.5,2202.5C 962.505,2214.66 962.171,2226.99 962.5,2239.5C 963.833,2239.5 965.167,2239.5 966.5,2239.5C 985.608,2239.56 1002.94,2245.06 1018.5,2256C 1037.86,2272.06 1040.7,2290.56 1027,2311.5C 1017.44,2321.37 1006.27,2328.87 993.5,2334C 983.109,2337.91 972.609,2341.41 962,2344.5C 960.707,2376.5 960.541,2408.5 961.5,2440.5C 983.779,2448.72 1003.95,2460.38 1022,2475.5C 1026.74,2480.64 1030.74,2486.31 1034,2492.5C 1037.92,2506.14 1034.92,2518.14 1025,2528.5C 1016.14,2537.01 1006.31,2544.18 995.5,2550C 983.496,2555.92 971.329,2561.42 959,2566.5C 958.167,2595.17 958.333,2623.84 959.5,2652.5C 984.184,2656.67 1006.52,2666.17 1026.5,2681C 1037.11,2689.72 1044.61,2700.56 1049,2713.5C 1052.06,2729.89 1046.89,2743.06 1033.5,2753C 1022.19,2761.32 1009.53,2766.32 995.5,2768C 982.838,2769.29 970.172,2770.46 957.5,2771.5C 956.469,2803.09 947.303,2832.09 930,2858.5C 904.244,2897.24 869.744,2925.41 826.5,2943C 753.273,2970.57 677.94,2978.24 600.5,2966C 545.293,2958.6 494.626,2939.6 448.5,2909C 412.445,2883.09 388.612,2848.59 377,2805.5C 373.686,2790.95 371.019,2776.28 369,2761.5C 366.4,2733.2 364.233,2704.86 362.5,2676.5C 339.767,2675.62 318.434,2669.79 298.5,2659C 283.79,2650.39 274.29,2637.89 270,2621.5C 268.092,2604.15 274.592,2590.98 289.5,2582C 296.628,2577.6 304.295,2574.6 312.5,2573C 326.126,2571.64 339.792,2571.14 353.5,2571.5C 355.607,2572.47 357.941,2572.8 360.5,2572.5C 360.5,2566.83 360.5,2561.17 360.5,2555.5C 360.28,2518.83 360.614,2482.16 361.5,2445.5C 337.3,2445.45 315.3,2438.62 295.5,2425C 288.811,2419.65 283.645,2413.15 280,2405.5C 275.591,2392.78 276.925,2380.78 284,2369.5C 296.834,2355.67 312.668,2347.5 331.5,2345C 341.803,2343.87 352.137,2343.37 362.5,2343.5C 363.111,2311.84 363.444,2280.17 363.5,2248.5C 340.279,2243.59 318.279,2235.43 297.5,2224C 291.021,2219.52 285.188,2214.35 280,2208.5C 273.782,2197.99 274.115,2187.65 281,2177.5C 303.293,2153.11 331.127,2140.78 364.5,2140.5C 365.287,2110.17 365.621,2079.84 365.5,2049.5C 342.412,2047.42 321.079,2040.25 301.5,2028C 275.646,2008.6 271.48,1985.44 289,1958.5C 299.33,1946.84 311.83,1938.34 326.5,1933C 337.6,1929.41 348.933,1926.91 360.5,1925.5C 360.667,1900.83 360.5,1876.16 360,1851.5C 335.683,1842.93 313.183,1831.09 292.5,1816C 284.268,1809.36 278.101,1801.19 274,1791.5C 272.086,1783.81 272.086,1776.14 274,1768.5C 281.128,1753.03 291.628,1740.19 305.5,1730C 317.161,1720.67 330.161,1713.67 344.5,1709C 350.806,1708.1 357.139,1707.6 363.5,1707.5C 352.538,1654.74 341.038,1602.07 329,1549.5C 297.295,1515.96 265.795,1482.3 234.5,1448.5 Z"/></g>
<g><path style="opacity:1" fill="#494949" d="M 963.5,2202.5 C 963.5,2214.5 963.5,2226.5 963.5,2238.5C 964.791,2238.26 965.791,2238.6 966.5,2239.5C 965.167,2239.5 963.833,2239.5 962.5,2239.5C 962.171,2226.99 962.505,2214.66 963.5,2202.5 Z"/></g>
<g><path style="opacity:1" fill="#494949" d="M 360.5,2555.5 C 360.5,2561.17 360.5,2566.83 360.5,2572.5C 357.941,2572.8 355.607,2572.47 353.5,2571.5C 355.5,2571.5 357.5,2571.5 359.5,2571.5C 359.179,2565.97 359.512,2560.64 360.5,2555.5 Z"/></g>
</svg>
