<?xml version="1.0" encoding="UTF-8"?>
<!DOCTYPE svg PUBLIC "-//W3C//DTD SVG 1.1//EN" "http://www.w3.org/Graphics/SVG/1.1/DTD/svg11.dtd">
<svg xmlns="http://www.w3.org/2000/svg" version="1.1" width="823px" height="3694px" style="shape-rendering:geometricPrecision; text-rendering:geometricPrecision; image-rendering:optimizeQuality; fill-rule:evenodd; clip-rule:evenodd" xmlns:xlink="http://www.w3.org/1999/xlink">
<g><path style="opacity:0.685" fill="#fdfdfd" d="M -0.5,-0.5 C 273.833,-0.5 548.167,-0.5 822.5,-0.5C 822.5,1230.83 822.5,2462.17 822.5,3693.5C 548.167,3693.5 273.833,3693.5 -0.5,3693.5C -0.5,2462.17 -0.5,1230.83 -0.5,-0.5 Z M 819.5,546.5 C 815.622,501.08 797.456,462.413 765,430.5C 746.18,411.335 725.347,394.835 702.5,381C 679.662,368.165 655.328,359.498 629.5,355C 576.986,349.106 524.32,345.106 471.5,343C 362.853,337.978 254.186,337.311 145.5,341C 100.666,343.174 62.8331,360.34 32,392.5C 19.0085,410.83 10.6752,431.164 7,453.5C 5.05819,464.257 3.55819,474.923 2.5,485.5C 2.5,324.5 2.5,163.5 2.5,2.5C 274.833,2.5 547.167,2.5 819.5,2.5C 819.5,183.833 819.5,365.167 819.5,546.5 Z M 2.5,533.5 C 21.6352,679.968 47.8019,825.301 81,969.5C 90.2203,1008.05 100.22,1046.38 111,1084.5C 130.531,1147.09 150.864,1209.43 172,1271.5C 187.143,1320.26 201.477,1369.26 215,1418.5C 240.699,1548.09 258.699,1678.76 269,1810.5C 284.246,2021.1 298.579,2231.77 312,2442.5C 316.016,2507.36 322.016,2572.02 330,2636.5C 337.682,2687.27 346.015,2737.94 355,2788.5C 361.914,2823.24 373.58,2856.24 390,2887.5C 401.298,2909.47 417.465,2926.97 438.5,2940C 463.171,2953.4 489.171,2957.07 516.5,2951C 536.478,2944.36 551.644,2931.86 562,2913.5C 569.173,2900.98 574.173,2887.65 577,2873.5C 589.677,2664.62 600.01,2455.62 608,2246.5C 613.324,1962.35 627.99,1678.68 652,1395.5C 685.095,1293.55 715.762,1190.88 744,1087.5C 772.802,961.022 794.802,833.355 810,704.5C 812.843,670.319 816.01,636.319 819.5,602.5C 819.5,1631.83 819.5,2661.17 819.5,3690.5C 547.167,3690.5 274.833,3690.5 2.5,3690.5C 2.5,2638.17 2.5,1585.83 2.5,533.5 Z"/></g>
<g><path style="opacity:0.982" fill="#010101" d="M 819.5,546.5 C 819.5,565.167 819.5,583.833 819.5,602.5C 816.01,636.319 812.843,670.319 810,704.5C 794.802,833.355 772.802,961.022 744,1087.5C 715.762,1190.88 685.095,1293.55 652,1395.5C 627.99,1678.68 613.324,1962.35 608,2246.5C 600.01,2455.62 589.677,2664.62 577,2873.5C 574.173,2887.65 569.173,2900.98 562,2913.5C 551.644,2931.86 536.478,2944.36 516.5,2951C 489.171,2957.07 463.171,2953.4 438.5,2940C 417.465,2926.97 401.298,2909.47 390,2887.5C 373.58,2856.24 361.914,2823.24 355,2788.5C 346.015,2737.94 337.682,2687.27 330,2636.5C 322.016,2572.02 316.016,2507.36 312,2442.5C 298.579,2231.77 284.246,2021.1 269,1810.5C 258.699,1678.76 240.699,1548.09 215,1418.5C 201.477,1369.26 187.143,1320.26 172,1271.5C 150.864,1209.43 130.531,1147.09 111,1084.5C 100.22,1046.38 90.2203,1008.05 81,969.5C 47.8019,825.301 21.6352,679.968 2.5,533.5C 2.5,517.5 2.5,501.5 2.5,485.5C 3.55819,474.923 5.05819,464.257 7,453.5C 10.6752,431.164 19.0085,410.83 32,392.5C 62.8331,360.34 100.666,343.174 145.5,341C 254.186,337.311 362.853,337.978 471.5,343C 524.32,345.106 576.986,349.106 629.5,355C 655.328,359.498 679.662,368.165 702.5,381C 725.347,394.835 746.18,411.335 765,430.5C 797.456,462.413 815.622,501.08 819.5,546.5 Z"/></g>
<g><path style="opacity:1" fill="#fefefe" d="M 629.5,1370.5 C 496.763,1370.83 364.097,1370.5 231.5,1369.5C 221.051,1331.32 209.885,1293.32 198,1255.5C 178.202,1198.11 159.202,1140.44 141,1082.5C 103.293,945.934 73.6259,807.6 52,667.5C 45.2749,624.211 38.9415,580.878 33,537.5C 30.1798,506.902 31.8465,476.569 38,446.5C 45.3601,418.811 61.8601,398.644 87.5,386C 106.103,376.8 125.77,371.467 146.5,370C 298.7,365.14 450.7,368.807 602.5,381C 645.515,385.02 683.848,400.354 717.5,427C 738.539,443.7 756.372,463.2 771,485.5C 785.702,512.977 792.202,542.31 790.5,573.5C 787.508,632.352 782.341,691.019 775,749.5C 761.712,842.559 746.046,935.226 728,1027.5C 718.058,1071.55 706.725,1115.21 694,1158.5C 672.801,1229.26 651.301,1299.93 629.5,1370.5 Z"/></g>
<g><path style="opacity:1" fill="#575757" d="M 231.5,1369.5 C 364.097,1370.5 496.763,1370.83 629.5,1370.5C 563.334,1371.17 497.001,1371.5 430.5,1371.5C 363.83,1371.5 297.497,1370.83 231.5,1369.5 Z"/></g>
<g><path style="opacity:1" fill="#bebebe" d="M 621.5,1400.5 C 494.496,1399.84 367.829,1400.5 241.5,1402.5C 240.596,1401.79 240.263,1400.79 240.5,1399.5C 367.668,1399.17 494.668,1399.5 621.5,1400.5 Z"/></g>
<g><path style="opacity:1" fill="#fefefe" d="M 621.5,1400.5 C 598.474,1679.38 584.307,1958.71 579,2238.5C 571.03,2448.62 560.697,2658.62 548,2868.5C 544.549,2886.58 536.049,2901.74 522.5,2914C 505.738,2925.25 487.738,2927.58 468.5,2921C 455.526,2917.01 444.359,2910.17 435,2900.5C 415.84,2877.19 402.174,2850.85 394,2821.5C 387.169,2799.18 381.836,2776.51 378,2753.5C 371.311,2705.73 363.978,2658.06 356,2610.5C 348.464,2534.27 342.131,2457.94 337,2381.5C 327.38,2228.14 317.38,2074.81 307,1921.5C 297.656,1763.74 279.323,1607.07 252,1451.5C 249.196,1434.98 245.696,1418.64 241.5,1402.5C 367.829,1400.5 494.496,1399.84 621.5,1400.5 Z"/></g>
</svg>
