<?xml version="1.0" encoding="UTF-8"?>
<svg version="1.1" xmlns="http://www.w3.org/2000/svg" width="811" height="3694">
<path d="M0 0 C267.63 0 535.26 0 811 0 C811 1219.02 811 2438.04 811 3694 C543.37 3694 275.74 3694 0 3694 C0 2474.98 0 1255.96 0 0 Z M3 3 C3 1047.12 3 2091.24 3 3167 C3.33 3167 3.66 3167 4 3167 C4.05945801 3165.92709717 4.11891602 3164.85419434 4.18017578 3163.7487793 C9.35187539 3071.88848379 19.80929756 2980.24263629 126 2520 C126.58188468 2518.59408222 127.16375228 2517.18815738 127.74560547 2515.78222656 C130.94182874 2508.06735368 134.15656455 2500.36024527 137.37890625 2492.65625 C137.69202759 2491.90751617 138.00514893 2491.15878235 138.32775879 2490.38735962 C139.71189918 2487.07803148 141.09683572 2483.76904728 142.48388672 2480.4609375 C157.49814596 2444.56080017 170.42166629 2407.81143518 183 2371 C183.2889917 2370.15600647 183.5779834 2369.31201294 183.87573242 2368.44244385 C191.60984688 2345.84456707 198.91708321 2323.1226774 206 2300.3125 C206.53630035 2298.59238708 206.53630035 2298.59238708 207.08343506 2296.83752441 C214.59853649 2272.6917939 220.72997107 2248.7111413 225.1875 2223.8125 C225.53966038 2221.86665634 225.89182174 2219.92081285 226.24404907 2217.97498131 C235.56343623 2166.40025608 243.5250418 2114.61527034 250.50579834 2062.67498779 C250.98013229 2059.14774051 251.45784675 2055.62096475 251.93603516 2052.09423828 C263.11888559 1969.29817042 270.3425677 1886.02800842 299.62481347 1319.64602938 C299.71491169 1317.31855732 299.80505012 1314.99108682 299.89520335 1312.6636169 C301.04437445 1282.99562998 302.19290942 1253.32761725 303.32162476 1223.65884399 C305.59906943 1163.79641221 307.90086669 1103.93819953 310.70703125 1044.09765625 C310.75839879 1042.99878609 310.80976632 1041.89991594 310.86269045 1040.76774669 C312.52853864 1005.15483836 314.33002713 969.55413906 317 934 C317.07671936 932.96895142 317.15343872 931.93790283 317.23248291 930.87561035 C319.07927811 906.25850887 321.90690456 882.16020154 327 858 C327.16497986 857.21087219 327.32995972 856.42174438 327.49993896 855.60870361 C330.03182032 843.50448976 332.68826514 831.43096686 335.45440674 819.37817383 C335.80641709 817.84380406 336.15721507 816.3091554 336.50653076 814.77416992 C349.06639875 759.59228166 368.90418989 692.51053817 419.2265625 660.09765625 C443.61018069 645.00559301 474.4669333 640.66899866 502.3984375 646.9609375 C513.1606261 650.06586393 522.90068319 654.36175572 532 661 C532.96421875 661.69480469 533.9284375 662.38960937 534.921875 663.10546875 C563.29396716 685.04606334 574.80995544 722.99662722 579.54875946 757.13765335 C581.12577228 770.63593117 581.49023303 784.27710075 582.096524 797.84555292 C582.32056839 802.78907754 582.56123369 807.73179999 582.79957581 812.6746521 C583.26431554 822.36824251 583.71350012 832.06249356 584.1571936 841.75706768 C584.5226606 849.73433974 584.89448165 857.71129443 585.27041626 865.68807983 C585.32452067 866.83625881 585.37862509 867.98443779 585.43436903 869.16741008 C585.54447683 871.50376355 585.65459046 873.84011675 585.76470983 876.17646968 C587.03140741 903.07569528 588.2660625 929.97635829 589.49254638 956.87744337 C589.88248605 965.42937575 590.2737615 973.98124614 590.66583252 982.53308105 C595.66008294 1091.49055249 600.48356196 1200.4554526 611.11813354 1523.02246094 C613.13956445 1628.19028125 617.24485485 1733.28694038 646.71260428 2213.16188741 C647.07475201 2217.98490669 647.43254152 2222.80823527 647.78851318 2227.63171387 C650.3089528 2261.69389251 653.48359499 2295.60183058 657.57967758 2329.51054382 C658.16341387 2334.35663845 658.73885304 2339.20370844 659.31483555 2344.05072975 C661.28533591 2360.62439859 663.29081347 2377.19376513 665.30561638 2393.76209164 C665.56545961 2395.89934328 665.82512566 2398.03661637 666.08473206 2400.17389679 C681.76718056 2532.62396443 681.76718056 2532.62396443 726 2800 C726.1676461 2800.83773453 726.33529221 2801.67546906 726.50801849 2802.53858948 C742.57484192 2882.8173231 759.88935165 2962.83895756 777.6875 3042.75 C777.91909443 3043.78993481 778.15068886 3044.82986961 778.3893013 3045.9013176 C781.94081666 3061.84721444 785.49636956 3077.79221547 789.05780029 3093.73590088 C790.84055809 3101.71820626 792.61661852 3109.70191097 794.37857056 3117.68884277 C794.85966898 3119.86327626 795.34364195 3122.03707673 795.83114624 3124.21008301 C801.2518184 3148.37783145 805.22978188 3172.50760965 805.25 3197.3125 C805.25067474 3198.06089142 805.25134949 3198.80928284 805.25204468 3199.58035278 C805.19700897 3238.19329906 794.45553499 3282.17507062 767.7421875 3311.4765625 C731.41688431 3346.36323982 670.18841209 3346.78784536 623.23869705 3346.11410522 C619.91777595 3346.04212837 616.61326714 3345.86198115 613.29894662 3345.63447475 C600.04735947 3344.75006191 586.79105586 3344.87481497 573.51660156 3344.90234375 C570.77667267 3344.90483842 568.03674376 3344.90578109 565.29681396 3344.9067688 C559.41395706 3344.90963984 553.53111294 3344.91605764 547.64826202 3344.92483521 C539.04938419 3344.93756023 530.45051089 3344.94350746 521.85162517 3344.94776857 C507.77119701 3344.95482691 493.69077458 3344.96560138 479.61035156 3344.97949219 C478.76982977 3344.98032 477.92930798 3344.98114781 477.06331584 3344.98200071 C469.44893846 3344.98953542 461.83456135 3344.99731852 454.22018433 3345.00520325 C429.69366744 3345.03058693 405.1671536 3345.05252991 380.640625 3345.0625 C379.45071465 3345.0630029 379.45071465 3345.0630029 378.23676571 3345.06351596 C338.45415685 3345.07983052 298.67481469 3345.0461813 258.89453125 3344.5546875 C258.05969743 3344.5445097 257.22486361 3344.53433189 256.36473179 3344.52384567 C114.17424563 3342.77318126 114.17424563 3342.77318126 72 3320 C70.41058594 3319.15115234 70.41058594 3319.15115234 68.7890625 3318.28515625 C60.22167483 3313.50675761 51.63852518 3307.74321412 44.75 3300.69921875 C43.1673919 3298.76779304 43.1673919 3298.76779304 41 3299 C40.74476562 3298.41992188 40.48953125 3297.83984375 40.2265625 3297.2421875 C38.87775365 3294.77653057 37.33642336 3293.13330997 35.375 3291.125 C7.65973321 3260.40265183 5.18419905 3211.99192005 4 3173 C3.67 3173 3.34 3173 3 3173 C3 3343.94 3 3514.88 3 3691 C268.65 3691 534.3 3691 808 3691 C808 2473.96 808 1256.92 808 3 C542.35 3 276.7 3 3 3 Z " fill="#FEFEFE" transform="translate(0,0)"/>
<path d="M0 0 C130.35 0 260.7 0 395 0 C398.0864418 25.72034829 401.161709 51.40103574 404.04052734 77.13720703 C406.020147 94.67082296 408.28072564 112.16902251 410.52719116 129.66995239 C412.68434393 146.47703712 414.7754198 163.28806613 416.6875 180.125 C418.34271674 194.69224122 420.19394026 209.22076886 422.20043945 223.74365234 C423.53218259 233.40210858 424.74180882 243.0658744 425.875 252.75 C428.48857313 274.89132547 431.7479748 296.94506383 435 319 C435.15746704 320.07151306 435.31493408 321.14302612 435.47717285 322.24700928 C439.95354301 352.68277459 444.99913354 382.96429456 450.71679688 413.19091797 C452.00823729 420.0267366 453.27640134 426.86681597 454.5428257 433.70730209 C460.10934266 463.76264507 465.83201078 493.77627826 472.09960938 523.69482422 C472.89326827 527.48349127 473.67556135 531.27439893 474.453125 535.06640625 C476.7986711 546.47882204 479.27076117 557.85876156 481.8581543 569.21899414 C483.17305143 575.04610255 484.36997633 580.88196724 485.4453125 586.7578125 C486.85388908 594.43366263 488.51730655 602.03868565 490.24493408 609.64825439 C493.18530707 622.6118348 495.98271306 635.59754428 498.625 648.625 C500.56461611 658.17635855 502.57288282 667.70091535 504.8125 677.1875 C507.62497137 689.10729458 510.159892 701.07969384 512.6875 713.0625 C517.29375753 734.8827497 522.14189909 756.64381333 527.05899048 778.39584351 C529.20753118 787.90477477 531.32670783 797.420128 533.4375 806.9375 C534.12332526 810.02841781 534.12332526 810.02841781 534.8092041 813.11932373 C535.24158952 815.06952816 535.67280291 817.01999233 536.10400391 818.97045898 C536.74364445 821.85734611 537.39378916 824.74170221 538.04833984 827.62524414 C545.24211132 859.40770538 548.94328395 896.17424471 540 928 C539.68651611 929.14952148 539.68651611 929.14952148 539.36669922 930.32226562 C533.18898424 952.29364443 522.78718193 977.28823522 502.375 989.25 C479.83333967 1001.77957891 451.38361463 1005.20649488 426.03108215 1005.10287476 C424.77968913 1005.10187594 423.52829611 1005.10087712 422.23898208 1005.09984803 C418.7945205 1005.09697583 415.3501008 1005.08783399 411.9056543 1005.07760265 C408.15893218 1005.06760791 404.41220283 1005.06354796 400.66547108 1005.05876732 C394.16882917 1005.04972584 387.67220233 1005.03708914 381.17557144 1005.02214813 C371.86077043 1005.00084652 362.54596878 1004.98670684 353.23115201 1004.97443341 C308.83461806 1004.91551519 264.43814227 1004.81448515 220.04168987 1004.71247292 C215.68689162 1004.70249357 211.3320933 1004.69254215 206.97729492 1004.68261719 C205.35511399 1004.6789182 205.35511399 1004.6789182 203.70016173 1004.67514448 C186.16456842 1004.63535925 168.62896884 1004.60259471 151.09335651 1004.57250018 C132.86039139 1004.54106435 114.62745166 1004.50237455 96.39451534 1004.45720994 C86.24868141 1004.43226436 76.10286244 1004.4102833 65.95700645 1004.39665604 C29.2367696 1004.34562417 -7.47402945 1004.25689201 -44.18041992 1003.16162109 C-46.04431584 1003.11015391 -46.04431584 1003.11015391 -47.94586623 1003.05764699 C-89.84112591 1001.85853612 -130.12705575 997.69294693 -164 971 C-164.91652344 970.28070312 -165.83304688 969.56140625 -166.77734375 968.8203125 C-181.34215308 956.56702144 -187.98473536 939.87672428 -193 922 C-193.18981445 921.32694824 -193.37962891 920.65389648 -193.57519531 919.96044922 C-195.82368907 911.78750913 -197.30850533 903.67184833 -198.08984375 895.23046875 C-198.2166301 893.86317627 -198.2166301 893.86317627 -198.34597778 892.46826172 C-199.18368007 882.81104938 -199.39555908 873.189416 -199.375 863.5 C-199.37478851 862.5564566 -199.37457703 861.61291321 -199.37435913 860.64077759 C-199.29098495 822.44315391 -195.0361032 784.35955381 -190.90348816 746.42654419 C-190.22144803 740.1393028 -189.57843821 733.84934394 -188.96875 727.5546875 C-188.8878714 726.71971237 -188.8069928 725.88473724 -188.72366333 725.02445984 C-188.64357025 724.19710831 -188.56347717 723.36975677 -188.48095703 722.51733398 C-185.23252308 688.9665228 -180.90906567 655.59110914 -176.04502869 622.23912048 C-174.91655161 614.47860136 -173.86180991 606.70908013 -172.8125 598.9375 C-171.72734665 590.9432807 -170.54318918 582.9935413 -169.06469727 575.06274414 C-168.26593658 570.71678167 -167.6368048 566.37137084 -167.08203125 561.98779297 C-164.90887907 544.88700277 -161.6953244 527.9622568 -158.55841064 511.0178833 C-157.96439962 507.80760073 -157.37256692 504.59692036 -156.78076172 501.38623047 C-155.70182565 495.53966301 -154.61511721 489.69457889 -153.52346802 483.85037231 C-153.09799712 481.5701214 -152.6740167 479.28959176 -152.25167847 477.00875854 C-149.70476504 463.27582067 -146.84510276 449.68086328 -143.51312256 436.1171875 C-142.46304387 431.78447314 -141.54412559 427.42442239 -140.625 423.0625 C-133.53133407 390.07638413 -125.58981602 357.2291367 -115.86816406 324.91210938 C-114.96387276 321.87881728 -114.08509495 318.83898066 -113.2109375 315.796875 C-107.68932114 296.68036987 -101.48204178 277.80978154 -95 259 C-94.77697205 258.35200439 -94.55394409 257.70400879 -94.32415771 257.03637695 C-86.56430536 234.55411013 -77.30448497 212.73364588 -68.04443359 190.83984375 C-50.98487983 150.48386787 -36.40922448 109.24096874 -22.00372314 67.87902832 C-20.83368164 64.52294088 -19.65867058 61.16861271 -18.48298645 57.8144989 C-13.97844288 44.95566073 -9.74319637 32.10118731 -6 19 C-4.02 12.73 -2.04 6.46 0 0 Z " fill="#FEFEFE" transform="translate(232,2312)"/>
<path d="M0 0 C267.63 0 535.26 0 811 0 C811 1219.02 811 2438.04 811 3694 C543.37 3694 275.74 3694 0 3694 C0 2474.98 0 1255.96 0 0 Z M3 3 C3 1047.12 3 2091.24 3 3167 C3.33 3167 3.66 3167 4 3167 C4.05945801 3165.92709717 4.11891602 3164.85419434 4.18017578 3163.7487793 C9.35187539 3071.88848379 19.80929756 2980.24263629 126 2520 C126.58188468 2518.59408222 127.16375228 2517.18815738 127.74560547 2515.78222656 C130.94182874 2508.06735368 134.15656455 2500.36024527 137.37890625 2492.65625 C137.69202759 2491.90751617 138.00514893 2491.15878235 138.32775879 2490.38735962 C139.71189918 2487.07803148 141.09683572 2483.76904728 142.48388672 2480.4609375 C157.49814596 2444.56080017 170.42166629 2407.81143518 183 2371 C183.2889917 2370.15600647 183.5779834 2369.31201294 183.87573242 2368.44244385 C191.60984688 2345.84456707 198.91708321 2323.1226774 206 2300.3125 C206.53630035 2298.59238708 206.53630035 2298.59238708 207.08343506 2296.83752441 C214.59853649 2272.6917939 220.72997107 2248.7111413 225.1875 2223.8125 C225.53966038 2221.86665634 225.89182174 2219.92081285 226.24404907 2217.97498131 C235.56343623 2166.40025608 243.5250418 2114.61527034 250.50579834 2062.67498779 C250.98013229 2059.14774051 251.45784675 2055.62096475 251.93603516 2052.09423828 C263.11888559 1969.29817042 270.3425677 1886.02800842 299.62481347 1319.64602938 C299.71491169 1317.31855732 299.80505012 1314.99108682 299.89520335 1312.6636169 C301.04437445 1282.99562998 302.19290942 1253.32761725 303.32162476 1223.65884399 C305.59906943 1163.79641221 307.90086669 1103.93819953 310.70703125 1044.09765625 C310.75839879 1042.99878609 310.80976632 1041.89991594 310.86269045 1040.76774669 C312.52853864 1005.15483836 314.33002713 969.55413906 317 934 C317.07671936 932.96895142 317.15343872 931.93790283 317.23248291 930.87561035 C319.07927811 906.25850887 321.90690456 882.16020154 327 858 C327.16497986 857.21087219 327.32995972 856.42174438 327.49993896 855.60870361 C330.03182032 843.50448976 332.68826514 831.43096686 335.45440674 819.37817383 C335.80641709 817.84380406 336.15721507 816.3091554 336.50653076 814.77416992 C349.06639875 759.59228166 368.90418989 692.51053817 419.2265625 660.09765625 C443.61018069 645.00559301 474.4669333 640.66899866 502.3984375 646.9609375 C513.1606261 650.06586393 522.90068319 654.36175572 532 661 C532.96421875 661.69480469 533.9284375 662.38960937 534.921875 663.10546875 C563.29396716 685.04606334 574.80995544 722.99662722 579.54875946 757.13765335 C581.12577228 770.63593117 581.49023303 784.27710075 582.096524 797.84555292 C582.32056839 802.78907754 582.56123369 807.73179999 582.79957581 812.6746521 C583.26431554 822.36824251 583.71350012 832.06249356 584.1571936 841.75706768 C584.5226606 849.73433974 584.89448165 857.71129443 585.27041626 865.68807983 C585.32452067 866.83625881 585.37862509 867.98443779 585.43436903 869.16741008 C585.54447683 871.50376355 585.65459046 873.84011675 585.76470983 876.17646968 C587.03140741 903.07569528 588.2660625 929.97635829 589.49254638 956.87744337 C589.88248605 965.42937575 590.2737615 973.98124614 590.66583252 982.53308105 C595.66008294 1091.49055249 600.48356196 1200.4554526 611.11813354 1523.02246094 C613.13956445 1628.19028125 617.24485485 1733.28694038 646.71260428 2213.16188741 C647.07475201 2217.98490669 647.43254152 2222.80823527 647.78851318 2227.63171387 C650.3089528 2261.69389251 653.48359499 2295.60183058 657.57967758 2329.51054382 C658.16341387 2334.35663845 658.73885304 2339.20370844 659.31483555 2344.05072975 C661.28533591 2360.62439859 663.29081347 2377.19376513 665.30561638 2393.76209164 C665.56545961 2395.89934328 665.82512566 2398.03661637 666.08473206 2400.17389679 C681.76718056 2532.62396443 681.76718056 2532.62396443 726 2800 C726.1676461 2800.83773453 726.33529221 2801.67546906 726.50801849 2802.53858948 C742.57484192 2882.8173231 759.88935165 2962.83895756 777.6875 3042.75 C777.91909443 3043.78993481 778.15068886 3044.82986961 778.3893013 3045.9013176 C781.94081666 3061.84721444 785.49636956 3077.79221547 789.05780029 3093.73590088 C790.84055809 3101.71820626 792.61661852 3109.70191097 794.37857056 3117.68884277 C794.85966898 3119.86327626 795.34364195 3122.03707673 795.83114624 3124.21008301 C801.2518184 3148.37783145 805.22978188 3172.50760965 805.25 3197.3125 C805.25067474 3198.06089142 805.25134949 3198.80928284 805.25204468 3199.58035278 C805.19700897 3238.19329906 794.45553499 3282.17507062 767.7421875 3311.4765625 C731.41688431 3346.36323982 670.18841209 3346.78784536 623.23869705 3346.11410522 C619.91777595 3346.04212837 616.61326714 3345.86198115 613.29894662 3345.63447475 C600.04735947 3344.75006191 586.79105586 3344.87481497 573.51660156 3344.90234375 C570.77667267 3344.90483842 568.03674376 3344.90578109 565.29681396 3344.9067688 C559.41395706 3344.90963984 553.53111294 3344.91605764 547.64826202 3344.92483521 C539.04938419 3344.93756023 530.45051089 3344.94350746 521.85162517 3344.94776857 C507.77119701 3344.95482691 493.69077458 3344.96560138 479.61035156 3344.97949219 C478.76982977 3344.98032 477.92930798 3344.98114781 477.06331584 3344.98200071 C469.44893846 3344.98953542 461.83456135 3344.99731852 454.22018433 3345.00520325 C429.69366744 3345.03058693 405.1671536 3345.05252991 380.640625 3345.0625 C379.45071465 3345.0630029 379.45071465 3345.0630029 378.23676571 3345.06351596 C338.45415685 3345.07983052 298.67481469 3345.0461813 258.89453125 3344.5546875 C258.05969743 3344.5445097 257.22486361 3344.53433189 256.36473179 3344.52384567 C114.17424563 3342.77318126 114.17424563 3342.77318126 72 3320 C70.41058594 3319.15115234 70.41058594 3319.15115234 68.7890625 3318.28515625 C60.22167483 3313.50675761 51.63852518 3307.74321412 44.75 3300.69921875 C43.1673919 3298.76779304 43.1673919 3298.76779304 41 3299 C40.74476562 3298.41992188 40.48953125 3297.83984375 40.2265625 3297.2421875 C38.87775365 3294.77653057 37.33642336 3293.13330997 35.375 3291.125 C7.65973321 3260.40265183 5.18419905 3211.99192005 4 3173 C3.67 3173 3.34 3173 3 3173 C3 3343.94 3 3514.88 3 3691 C268.65 3691 534.3 3691 808 3691 C808 2473.96 808 1256.92 808 3 C542.35 3 276.7 3 3 3 Z M413 704 C409.34045643 708.45125299 406.11680499 713.15827479 403 718 C402.39575195 718.92643311 402.39575195 718.92643311 401.77929688 719.87158203 C382.12277572 750.39214717 372.49654278 786.07034773 364 821 C363.58648358 822.66289631 363.17250199 824.32567709 362.7578125 825.98828125 C360.76688772 834.08520211 359.15180255 842.22919596 357.64404297 850.42773438 C356.45707614 856.81502046 355.0961344 863.15129487 353.68212891 869.49194336 C351.16956933 880.80150146 349.16451667 891.8723266 348.25170898 903.41796875 C347.92444383 906.77505529 347.4644388 910.10962723 347.01953125 913.453125 C345.89343334 922.11627992 345.38048047 930.77936486 344.9375 939.5 C344.82077344 941.73551985 344.7023292 943.97091792 344.58070374 946.20617676 C344.47197787 948.21212812 344.36849512 950.21836172 344.26538086 952.22460938 C344.03735396 955.46859098 343.66427901 958.65814901 343.24208069 961.881073 C342.7847846 965.88377575 342.6190816 969.90331904 342.421875 973.92578125 C342.34462189 975.43274567 342.34462189 975.43274567 342.26580811 976.97015381 C342.09040678 980.4174373 341.91993832 983.86494308 341.75 987.3125 C341.68852783 988.54426971 341.62705566 989.77603943 341.5637207 991.0451355 C341.07762344 1000.7878939 340.60337236 1010.5312086 340.13198853 1020.27468872 C339.99416119 1023.12056033 339.85588719 1025.96640999 339.7175293 1028.81225586 C336.98729557 1084.99794488 334.45887694 1141.18203573 332.51116943 1197.40046692 C331.90721503 1214.81268045 331.25610031 1232.22306104 330.59464264 1249.6331749 C330.50024568 1252.11853163 330.40608562 1254.60389725 330.31195068 1257.08926392 C329.37282575 1281.85708165 328.36125131 1306.62138356 327.31149292 1331.38473511 C326.38904093 1353.15836344 325.54367279 1374.93389188 324.74517822 1396.71240234 C322.39443619 1460.78296594 319.56738325 1524.83184466 316.53749847 1588.8736763 C316.37750453 1592.25949873 316.21824894 1595.64535521 316.05914307 1599.03121948 C315.00244951 1621.48347378 313.87631681 1643.92322241 312.41992188 1666.35327148 C311.90154142 1674.39493315 311.51571434 1682.43989427 311.16711426 1690.49041748 C309.31205717 1732.77467954 306.35363043 1774.98373804 303.26793861 1817.19266129 C303.00752027 1820.7579053 302.74866357 1824.32326202 302.48989487 1827.8886261 C302.31215672 1830.32720912 302.13187716 1832.76559448 301.95144653 1835.20397949 C301.28979536 1844.26311466 300.74762155 1853.31829499 300.37696648 1862.39457512 C300.20002913 1866.3762854 299.86231311 1870.09838532 299 1874 C298.79458209 1875.86521085 298.61771124 1877.73368946 298.46264648 1879.60375977 C298.36809677 1880.72243439 298.27354706 1881.84110901 298.1761322 1882.99368286 C298.07546951 1884.21393158 297.97480682 1885.4341803 297.87109375 1886.69140625 C297.70228764 1888.6815129 297.53346291 1890.67161804 297.36397648 1892.66166687 C297.24354815 1894.07626354 297.12342481 1895.4908862 297.00358486 1896.90553284 C294.61367057 1925.11138535 291.96345946 1953.28604687 289 1981.4375 C288.91527939 1982.24238609 288.83055878 1983.04727219 288.74327087 1983.87654877 C286.18570138 2008.11997053 283.31238115 2032.30014318 279.90846252 2056.44102478 C278.94740851 2063.28302274 278.1083832 2070.13684816 277.3125 2077 C276.44050375 2084.47165091 275.4951282 2091.92717562 274.4375 2099.375 C274.26504761 2100.59703125 274.26504761 2100.59703125 274.08911133 2101.84375 C273.48783673 2105.99318667 272.80262564 2110.11381183 272.02734375 2114.234375 C270.82244316 2120.75052297 269.98632065 2127.3062277 269.125 2133.875 C267.8804101 2143.12649024 266.47466237 2152.28863758 264.63452148 2161.43896484 C263.0772684 2169.30150086 261.81799925 2177.20531637 260.56460571 2185.12045288 C257.78218857 2202.67757937 254.62370346 2220.14143543 251.23704529 2237.59146118 C250.32019734 2242.318914 249.42772803 2247.05013184 248.55078125 2251.78515625 C248.32914307 2252.97149658 248.10750488 2254.15783691 247.87915039 2255.38012695 C247.47676576 2257.53539083 247.07842217 2259.69141559 246.68530273 2261.84838867 C245.69505421 2267.09524113 244.45596397 2272.03299481 242.57714844 2277.03613281 C241.81202688 2279.29846445 241.81202688 2279.29846445 242 2283 C367.73 2283 493.46 2283 623 2283 C623 2277.20771647 622.99961739 2271.74366416 622.55688477 2266.02490234 C622.4600087 2264.75013031 622.36313263 2263.47535828 622.26332092 2262.16195679 C622.15615359 2260.80327283 622.04884529 2259.44459999 621.94140625 2258.0859375 C621.83142054 2256.66210047 621.72172032 2255.23824135 621.61228943 2253.81436157 C621.38346429 2250.84740532 621.1520965 2247.88066267 620.91870117 2244.9140625 C620.62114581 2241.13093144 620.3286477 2237.34743101 620.03788853 2233.5637722 C619.8120739 2230.6295479 619.58425953 2227.69548163 619.35578728 2224.76146317 C619.24730505 2223.36698514 619.13926978 2221.97247227 619.03170967 2220.57792282 C618.39243579 2212.04224666 618.39243579 2212.04224666 617.45458984 2203.53613281 C616.99279486 2199.94395311 616.73339202 2196.38923851 616.53515625 2192.7734375 C616.45771108 2191.40909205 616.38015134 2190.0447531 616.30249023 2188.68041992 C616.26340546 2187.97758881 616.22432068 2187.27475769 616.18405151 2186.55062866 C615.5501545 2175.20462018 614.79106792 2163.89372959 613.68212891 2152.58276367 C613.01800294 2145.65583703 612.61864887 2138.73281565 612.34155273 2131.7800293 C612.15278086 2127.23260657 611.76763359 2122.75933159 611.23413086 2118.23999023 C610.92787644 2115.3099753 610.78633649 2112.38584423 610.66644287 2109.4430542 C610.33044197 2101.34371608 609.79925599 2093.28474938 609.078125 2085.2109375 C607.89246685 2071.42170417 607.09185033 2057.61502266 606.3077507 2043.79819107 C606.10035398 2040.15787634 605.88915542 2036.51778264 605.67797852 2032.87768555 C605.6125984 2031.75069921 605.6125984 2031.75069921 605.54589748 2030.60094547 C605.45629912 2029.05687848 605.36667989 2027.5128127 605.27704048 2025.96874809 C605.13951194 2023.59800027 605.00234267 2021.22723185 604.86521912 2018.85646057 C603.80637063 2000.56992266 602.70365762 1982.28603657 601.59978867 1964.00217056 C601.38320187 1960.41259682 601.16713125 1956.82299208 600.95104885 1953.23338795 C600.02147203 1937.79405307 599.09105104 1922.35482948 598.12109375 1906.91796875 C595.52470581 1865.54504738 593.3872447 1824.14909884 591.72151184 1782.7281189 C591.6806395 1781.71182404 591.63976715 1780.69552917 591.59765625 1779.6484375 C591.55505173 1778.58855621 591.5124472 1777.52867493 591.46855164 1776.43667603 C591.01705826 1765.28251026 590.53771726 1754.1295694 590.05859375 1742.9765625 C589.97166927 1740.95020106 589.88476045 1738.92383896 589.79786682 1736.8974762 C589.27311771 1724.66210925 589.27311771 1724.66210925 588.74588013 1712.42684937 C588.19392807 1699.64163927 587.65414935 1686.8559717 587.12702179 1674.06971359 C586.99911984 1670.97872943 586.86961528 1667.88781529 586.7399292 1664.79690552 C585.34566439 1631.3976 584.49182349 1597.99828826 583.8375113 1564.57748818 C583.52793014 1548.77521615 583.19484297 1532.9734487 582.8515625 1517.171875 C582.83483144 1516.40103616 582.81810038 1515.63019732 582.80086231 1514.83599973 C581.62955594 1461.00244595 579.90785302 1407.18469214 578.11230469 1353.36881256 C578.00480793 1350.14422396 577.89782794 1346.91961866 577.79101562 1343.69500732 C576.29564197 1298.60741348 574.45792657 1253.54025837 572.41235352 1208.47436523 C572.24354056 1204.75374855 572.07481888 1201.03312775 571.90625 1197.3125 C571.8654727 1196.41254366 571.8246954 1195.51258732 571.78268242 1194.58535957 C571.06721805 1178.76530854 570.42883477 1162.9435187 569.84773827 1147.11792755 C569.22436309 1130.1913899 568.50222544 1113.27006264 567.7397871 1096.349262 C567.64248911 1094.18903509 567.54546059 1092.02879619 567.4484787 1089.86855507 C566.01576475 1057.97584466 564.50281663 1026.08708401 562.96720123 994.19918442 C562.74570775 989.59940808 562.52466128 984.99961031 562.3036499 980.39981079 C560.05068059 933.51830374 557.7740218 886.63794484 555.47197628 839.7588219 C555.20310901 834.2823926 554.93507067 828.80592313 554.6673584 823.32943726 C554.34221269 816.67898953 554.01568443 810.02861131 553.68741047 803.37831724 C553.52042414 799.99510116 553.35414819 796.61185457 553.18903732 793.22854614 C553.0093966 789.55030867 552.82749243 785.87218971 552.64501953 782.1940918 C552.56870111 780.61603524 552.56870111 780.61603524 552.49084091 779.00609875 C550.98949473 749.02354916 545.8290493 719.6981321 526 696 C525.2575 694.989375 524.515 693.97875 523.75 692.9375 C514.00446672 681.43457547 497.57602103 674.23854753 482.80859375 672.78417969 C454.331599 671.0631787 431.39662997 682.82961223 413 704 Z M232 2312 C224.9005965 2333.96867591 224.9005965 2333.96867591 218 2356 C216.71312781 2359.90718533 215.41518459 2363.80778811 214.09375 2367.703125 C213.55182259 2369.30606667 213.55182259 2369.30606667 212.99894714 2370.94139099 C211.83538629 2374.3785357 210.66827282 2377.81445417 209.5 2381.25 C209.09882965 2382.43050934 208.6976593 2383.61101868 208.28433228 2384.82730103 C201.98848422 2403.33573768 195.57144053 2421.78598248 188.71313477 2440.09375 C187.98626387 2442.03671745 187.26330309 2443.98110571 186.54101562 2445.92578125 C176.49424927 2472.93554072 165.40076557 2499.51450505 154.28710938 2526.09912109 C143.09225643 2552.90881317 131.96451222 2580.60310078 124.5625 2608.75 C122.67010861 2615.74889245 120.55613657 2622.65276082 118.34332275 2629.55613708 C112.60443274 2647.5724239 107.85264138 2665.8693786 103.1875 2684.1875 C102.73203293 2685.97158768 102.73203293 2685.97158768 102.2673645 2687.79171753 C97.12603318 2707.98449725 92.52693042 2728.2487398 88.32525635 2748.65551758 C87.13018373 2754.44159167 85.80938182 2760.19086518 84.4375 2765.9375 C80.48725512 2782.83386803 77.63121251 2799.9919427 74.53436279 2817.05999756 C73.99936683 2820.00348364 73.46127674 2822.94638899 72.92236328 2825.88916016 C69.16261201 2846.43948447 65.55459066 2866.95254311 62.85546875 2887.671875 C62.06809325 2893.66281495 61.09401159 2899.60940707 60.0625 2905.5625 C57.30125298 2921.64822682 55.15819283 2937.82447455 53 2954 C52.8958075 2954.7802655 52.79161499 2955.56053101 52.68426514 2956.36444092 C44.78497753 3015.64368329 38.8732529 3075.1205165 34.18203735 3134.73648071 C34.02279108 3136.71660731 33.85072124 3138.6956941 33.67651367 3140.67456055 C32.86077019 3150.48745341 32.81387661 3160.28813619 32.81469727 3170.12866211 C32.81252195 3173.03319212 32.79432903 3175.93733415 32.77539062 3178.84179688 C32.72510861 3195.15822408 33.09726126 3211.87693532 37.25 3227.75 C37.46470947 3228.60577637 37.67941895 3229.46155273 37.90063477 3230.34326172 C45.3446584 3259.11117247 58.99577335 3279.2504253 84.84375 3294.67578125 C91.31133105 3298.38611435 98.06875405 3301.27857396 105 3304 C105.95648438 3304.38800781 106.91296875 3304.77601563 107.8984375 3305.17578125 C114.26006456 3307.53632768 120.78750939 3308.86902018 127.4375 3310.125 C128.2639502 3310.28379639 129.09040039 3310.44259277 129.94189453 3310.60620117 C148.87990048 3313.96514401 168.20307332 3314.5176188 187.38208008 3315.09912109 C188.72887824 3315.14127261 190.07567541 3315.18345577 191.42247164 3315.22566867 C227.90946557 3316.35246797 264.40848097 3316.35160653 300.90957643 3316.4006208 C311.11781634 3316.41469059 321.32602285 3316.43970066 331.5342401 3316.46498732 C349.81309846 3316.509981 368.09196316 3316.54675487 386.37084961 3316.578125 C403.90634351 3316.60823591 421.44182065 3316.64263178 438.97729492 3316.68261719 C440.05735425 3316.68507874 441.13741357 3316.68754028 442.25020196 3316.69007643 C446.59849111 3316.70000291 450.9467802 3316.70995708 455.2950692 3316.71994839 C483.18829528 3316.78398623 511.08153066 3316.84440731 538.97477722 3316.89883423 C539.91958956 3316.90068333 540.86440189 3316.90253243 541.8378449 3316.90443756 C551.94664544 3316.92406348 562.05544397 3316.94161264 572.1642561 3316.95403481 C573.03895799 3316.95512587 573.91365988 3316.95621694 574.81486789 3316.95734107 C575.68429256 3316.9584247 576.55371723 3316.95950834 577.4494881 3316.96062481 C578.31362085 3316.961702 579.1777536 3316.96277919 580.06807219 3316.96388902 C581.79622269 3316.96602324 583.52437324 3316.96811357 585.25252385 3316.97015904 C596.18996861 3316.9834663 607.12720847 3317.01287349 618.06456178 3317.05939496 C623.61572218 3317.08272395 629.16689612 3317.09918631 634.71808643 3317.11353003 C638.37078283 3317.123378 642.02338215 3317.13668996 645.67602289 3317.15942121 C659.92396832 3317.24644474 673.90448407 3317.28192415 688 3315 C688.9993649 3314.84004736 689.9987298 3314.68009472 691.02837849 3314.51529503 C693.38550338 3314.12008147 695.72211943 3313.6715344 698.0625 3313.1875 C698.89410645 3313.01645752 699.72571289 3312.84541504 700.58251953 3312.66918945 C720.48400817 3308.42904243 739.36157422 3301.99138652 752 3285 C769.04741993 3258.25676032 776.66542352 3229.42993889 776.375 3197.875 C776.37067963 3196.98024963 776.36635925 3196.08549927 776.36190796 3195.16363525 C776.24862895 3175.09381255 774.03565838 3156.02960003 769.49487305 3136.47412109 C767.94224251 3129.75947125 766.41667431 3123.03890927 764.8984375 3116.31640625 C764.7513245 3115.66502182 764.6042115 3115.01363739 764.45264053 3114.34251404 C760.61510453 3097.34293648 756.83433052 3080.33072094 753.05615234 3063.31787109 C752.06755105 3058.86629916 751.07797662 3054.41494418 750.08816528 3049.96364117 C744.86480949 3026.47143797 739.64488082 3002.97971608 734.71789551 2979.42318726 C731.78565115 2965.41240657 728.82260901 2951.40813171 725.8314209 2937.40982056 C725.45066624 2935.62705656 725.0705162 2933.84416329 724.69104004 2932.06112671 C722.85173814 2923.42198455 720.97528813 2914.79805523 718.921875 2906.20703125 C717.08352814 2898.50818267 715.50520693 2890.77114142 714 2883 C713.53626615 2880.65212426 713.07142918 2878.30446612 712.60546875 2875.95703125 C711.1875 2868.8125 711.1875 2868.8125 710.51367188 2865.39257812 C708.81464133 2856.85138123 707.00392196 2848.33701669 705.16796875 2839.82421875 C702.02771273 2825.24098552 699.04642619 2810.62848985 696.125 2796 C695.8634865 2794.69254521 695.60197118 2793.38509079 695.3404541 2792.07763672 C691.13082149 2771.01380465 687.14452223 2749.91683156 683.39277649 2728.76660156 C682.31564807 2722.71220916 681.19300678 2716.66741651 680.05078125 2710.625 C674.60894984 2681.70995651 670.19213833 2652.66510434 665.95605469 2623.55175781 C665.28659444 2618.95223587 664.60731373 2614.35440359 663.91470337 2609.75831604 C660.56658005 2587.5334793 657.87898628 2565.2238885 655.1866045 2542.91202259 C654.78063393 2539.54796337 654.3732207 2536.18408041 653.96484375 2532.8203125 C653.88473494 2532.16026907 653.80462612 2531.50022564 653.72208977 2530.82018089 C652.38475891 2519.83472529 650.90149152 2508.87332615 649.3669281 2497.91390991 C648.10536389 2488.8717629 646.99123274 2479.82523644 646 2470.75 C645.66609487 2467.76018752 645.32907924 2464.77072723 644.9921875 2461.78125 C644.90911346 2461.04142883 644.82603943 2460.30160767 644.740448 2459.53936768 C643.90400235 2452.10527391 643.02389584 2444.67682198 642.125 2437.25 C642.04539032 2436.59185303 641.96578064 2435.93370605 641.88375854 2435.25561523 C640.82442659 2426.51951983 639.7202414 2417.78967562 638.58984375 2409.0625 C638.08034139 2405.12505004 637.57115442 2401.18755959 637.0625 2397.25 C636.93510437 2396.26397797 636.80770874 2395.27795593 636.67645264 2394.26205444 C634.4785083 2377.20078531 632.50063936 2360.12065943 630.64868164 2343.01855469 C630.55218826 2342.12943893 630.45569489 2341.24032318 630.35627747 2340.32426453 C630.18132591 2338.70756777 630.00762955 2337.09073419 629.83573914 2335.47370911 C628.99071032 2327.63375172 627.97864384 2319.82915072 627 2312 C496.65 2312 366.3 2312 232 2312 Z " fill="#010101" transform="translate(0,0)"/>
<path d="M0 0 C267.63 0 535.26 0 811 0 C811 1219.02 811 2438.04 811 3694 C543.37 3694 275.74 3694 0 3694 C0 2474.98 0 1255.96 0 0 Z M3 3 C3 1220.04 3 2437.08 3 3691 C268.65 3691 534.3 3691 808 3691 C808 2473.96 808 1256.92 808 3 C542.35 3 276.7 3 3 3 Z " fill="#FDFDFD" transform="translate(0,0)"/>
<path d="M0 0 C0.33 0 0.66 0 1 0 C1.66 10.23 2.32 20.46 3 31 C-126.69 31 -256.38 31 -390 31 C-388.73227928 24.66139641 -387.46125743 18.72272766 -385.5 12.625 C-385.28730469 11.94050781 -385.07460938 11.25601563 -384.85546875 10.55078125 C-383.78682552 7.17439314 -382.59110169 4.18220338 -381 1 C-255.27 1.33 -129.54 1.66 0 2 C0 1.34 0 0.68 0 0 Z " fill="#282828" transform="translate(623,2281)"/>
</svg>
