<?xml version="1.0" encoding="UTF-8"?>
<!DOCTYPE svg PUBLIC "-//W3C//DTD SVG 1.1//EN" "http://www.w3.org/Graphics/SVG/1.1/DTD/svg11.dtd">
<svg xmlns="http://www.w3.org/2000/svg" version="1.1" width="823px" height="3694px" style="shape-rendering:geometricPrecision; text-rendering:geometricPrecision; image-rendering:optimizeQuality; fill-rule:evenodd; clip-rule:evenodd" xmlns:xlink="http://www.w3.org/1999/xlink">
<g><path style="opacity:0.688" fill="#fdfdfd" d="M -0.5,-0.5 C 273.833,-0.5 548.167,-0.5 822.5,-0.5C 822.5,1230.83 822.5,2462.17 822.5,3693.5C 548.167,3693.5 273.833,3693.5 -0.5,3693.5C -0.5,2462.17 -0.5,1230.83 -0.5,-0.5 Z M 819.5,547.5 C 816.441,510.152 803.274,476.819 780,447.5C 758.17,422.323 733.336,400.823 705.5,383C 666.683,361.545 625.016,350.545 580.5,350C 436.658,339.112 292.658,336.112 148.5,341C 108.338,342.711 73.0051,356.378 42.5,382C 22.8786,401.803 11.0452,425.637 7,453.5C 5.15624,464.268 3.65624,474.935 2.5,485.5C 2.5,324.167 2.5,162.833 2.5,1.5C 274.833,1.5 547.167,1.5 819.5,1.5C 819.5,183.5 819.5,365.5 819.5,547.5 Z M 2.5,533.5 C 21.5167,678.59 47.35,822.59 80,965.5C 101.906,1058.79 129.239,1150.46 162,1240.5C 185.991,1312.47 206.324,1385.47 223,1459.5C 228.741,1497.36 234.574,1535.19 240.5,1573C 222.885,1585.28 208.719,1600.78 198,1619.5C 178.561,1660.7 185.727,1696.54 219.5,1727C 226.144,1732.65 233.144,1737.82 240.5,1742.5C 241.665,1751.82 241.832,1761.15 241,1770.5C 209.149,1786.56 192.316,1812.56 190.5,1848.5C 191.236,1876.14 202.236,1898.64 223.5,1916C 229.975,1920.57 236.975,1924.07 244.5,1926.5C 244.667,1938.84 244.5,1951.17 244,1963.5C 212.075,1976.69 193.575,2000.36 188.5,2034.5C 189.6,2057.54 199.267,2076.04 217.5,2090C 225.584,2095.79 234.084,2100.96 243,2105.5C 243.5,2118.83 243.667,2132.16 243.5,2145.5C 217.471,2151.69 200.637,2167.69 193,2193.5C 185.352,2227.89 195.185,2256.06 222.5,2278C 228.554,2281.69 234.888,2284.86 241.5,2287.5C 241.818,2308.15 241.818,2328.81 241.5,2349.5C 209.003,2355.72 190.503,2375.39 186,2408.5C 184.347,2452.15 203.68,2482.15 244,2498.5C 244.821,2530.33 247.488,2561.99 252,2593.5C 263.634,2664.75 301.134,2717.25 364.5,2751C 416.836,2775.33 468.502,2774 519.5,2747C 556.359,2724.13 583.193,2692.63 600,2652.5C 609.6,2630.77 615.766,2608.1 618.5,2584.5C 646.174,2579.74 664.674,2564.07 674,2537.5C 682.169,2489.17 664.669,2453.51 621.5,2430.5C 620.111,2416.79 620.444,2403.12 622.5,2389.5C 643.481,2376.69 657.981,2358.69 666,2335.5C 671.958,2309.33 666.291,2286 649,2265.5C 641.224,2256.72 632.558,2249.05 623,2242.5C 622.167,2225.49 622.334,2208.49 623.5,2191.5C 662.756,2168.98 675.922,2135.98 663,2092.5C 655.224,2073.89 642.058,2060.89 623.5,2053.5C 623.167,2039.48 623.501,2025.48 624.5,2011.5C 668.183,1990.28 680.016,1957.61 660,1913.5C 650.797,1898.63 639.131,1885.96 625,1875.5C 624.869,1856.83 625.202,1838.17 626,1819.5C 662.366,1812.99 680.866,1791.16 681.5,1754C 680.795,1723.59 668.461,1699.25 644.5,1681C 639.068,1677.95 633.402,1675.45 627.5,1673.5C 626.333,1640.17 626.167,1606.84 627,1573.5C 638.549,1567.06 649.216,1559.39 659,1550.5C 670.365,1536.33 674.032,1520.33 670,1502.5C 665.054,1484.66 658.721,1467.33 651,1450.5C 651.439,1430.16 652.439,1409.83 654,1389.5C 686.428,1289.55 716.428,1188.88 744,1087.5C 756.587,1036.23 767.253,984.567 776,932.5C 796.257,823.1 810.757,713.1 819.5,602.5C 819.5,1631.83 819.5,2661.17 819.5,3690.5C 547.167,3690.5 274.833,3690.5 2.5,3690.5C 2.5,2638.17 2.5,1585.83 2.5,533.5 Z"/></g>
<g><path style="opacity:0.981" fill="#010101" d="M 819.5,547.5 C 819.5,565.833 819.5,584.167 819.5,602.5C 810.757,713.1 796.257,823.1 776,932.5C 767.253,984.567 756.587,1036.23 744,1087.5C 716.428,1188.88 686.428,1289.55 654,1389.5C 652.439,1409.83 651.439,1430.16 651,1450.5C 658.721,1467.33 665.054,1484.66 670,1502.5C 674.032,1520.33 670.365,1536.33 659,1550.5C 649.216,1559.39 638.549,1567.06 627,1573.5C 626.167,1606.84 626.333,1640.17 627.5,1673.5C 633.402,1675.45 639.068,1677.95 644.5,1681C 668.461,1699.25 680.795,1723.59 681.5,1754C 680.866,1791.16 662.366,1812.99 626,1819.5C 625.202,1838.17 624.869,1856.83 625,1875.5C 639.131,1885.96 650.797,1898.63 660,1913.5C 680.016,1957.61 668.183,1990.28 624.5,2011.5C 623.501,2025.48 623.167,2039.48 623.5,2053.5C 642.058,2060.89 655.224,2073.89 663,2092.5C 675.922,2135.98 662.756,2168.98 623.5,2191.5C 622.334,2208.49 622.167,2225.49 623,2242.5C 632.558,2249.05 641.224,2256.72 649,2265.5C 666.291,2286 671.958,2309.33 666,2335.5C 657.981,2358.69 643.481,2376.69 622.5,2389.5C 620.444,2403.12 620.111,2416.79 621.5,2430.5C 664.669,2453.51 682.169,2489.17 674,2537.5C 664.674,2564.07 646.174,2579.74 618.5,2584.5C 615.766,2608.1 609.6,2630.77 600,2652.5C 583.193,2692.63 556.359,2724.13 519.5,2747C 468.502,2774 416.836,2775.33 364.5,2751C 301.134,2717.25 263.634,2664.75 252,2593.5C 247.488,2561.99 244.821,2530.33 244,2498.5C 203.68,2482.15 184.347,2452.15 186,2408.5C 190.503,2375.39 209.003,2355.72 241.5,2349.5C 241.818,2328.81 241.818,2308.15 241.5,2287.5C 234.888,2284.86 228.554,2281.69 222.5,2278C 195.185,2256.06 185.352,2227.89 193,2193.5C 200.637,2167.69 217.471,2151.69 243.5,2145.5C 243.667,2132.16 243.5,2118.83 243,2105.5C 234.084,2100.96 225.584,2095.79 217.5,2090C 199.267,2076.04 189.6,2057.54 188.5,2034.5C 193.575,2000.36 212.075,1976.69 244,1963.5C 244.5,1951.17 244.667,1938.84 244.5,1926.5C 236.975,1924.07 229.975,1920.57 223.5,1916C 202.236,1898.64 191.236,1876.14 190.5,1848.5C 192.316,1812.56 209.149,1786.56 241,1770.5C 241.832,1761.15 241.665,1751.82 240.5,1742.5C 233.144,1737.82 226.144,1732.65 219.5,1727C 185.727,1696.54 178.561,1660.7 198,1619.5C 208.719,1600.78 222.885,1585.28 240.5,1573C 234.574,1535.19 228.741,1497.36 223,1459.5C 206.324,1385.47 185.991,1312.47 162,1240.5C 129.239,1150.46 101.906,1058.79 80,965.5C 47.35,822.59 21.5167,678.59 2.5,533.5C 2.5,517.5 2.5,501.5 2.5,485.5C 3.65624,474.935 5.15624,464.268 7,453.5C 11.0452,425.637 22.8786,401.803 42.5,382C 73.0051,356.378 108.338,342.711 148.5,341C 292.658,336.112 436.658,339.112 580.5,350C 625.016,350.545 666.683,361.545 705.5,383C 733.336,400.823 758.17,422.323 780,447.5C 803.274,476.819 816.441,510.152 819.5,547.5 Z"/></g>
<g><path style="opacity:1" fill="#fefefe" d="M 212.5,367.5 C 341.044,366.191 469.378,370.691 597.5,381C 652.776,385.144 699.776,406.811 738.5,446C 762.189,467.368 778.022,493.535 786,524.5C 787.875,532.748 789.208,541.081 790,549.5C 790.748,570.184 790.414,590.85 789,611.5C 785.716,652.569 781.716,693.569 777,734.5C 763.71,829.576 748.043,924.242 730,1018.5C 715.979,1081.54 699.312,1143.88 680,1205.5C 663.057,1260.83 646.223,1316.16 629.5,1371.5C 496.93,1371.83 364.43,1371.5 232,1370.5C 208.499,1286.66 182.166,1203.66 153,1121.5C 116.956,1001.57 88.2896,879.904 67,756.5C 53.7794,681.066 42.1128,605.399 32,529.5C 31.291,510.816 31.6244,492.149 33,473.5C 35.0595,453.992 40.7261,435.659 50,418.5C 67.2385,396.113 89.7385,381.613 117.5,375C 128.034,372.495 138.7,370.828 149.5,370C 170.664,369.242 191.664,368.408 212.5,367.5 Z"/></g>
<g><path style="opacity:1" fill="#636364" d="M 426.5,1400.5 C 364.491,1399.84 302.824,1400.5 241.5,1402.5C 240.596,1401.79 240.263,1400.79 240.5,1399.5C 302.669,1399.17 364.669,1399.5 426.5,1400.5 Z"/></g>
<g><path style="opacity:1" fill="#b7b7b8" d="M 426.5,1400.5 C 492.167,1400.5 557.833,1400.5 623.5,1400.5C 622.058,1419.48 621.558,1438.48 622,1457.5C 628.83,1472.16 634.83,1487.16 640,1502.5C 645.003,1516.82 641.503,1528.32 629.5,1537C 619.452,1543.02 609.119,1548.52 598.5,1553.5C 597.5,1586.16 597.167,1618.83 597.5,1651.5C 596.504,1667.66 596.17,1683.99 596.5,1700.5C 600.167,1700.5 603.833,1700.5 607.5,1700.5C 620.337,1700.5 630.837,1705.5 639,1715.5C 652.772,1734.11 655.438,1754.11 647,1775.5C 640.865,1784.32 632.365,1789.16 621.5,1790C 612.811,1790.67 604.144,1790.51 595.5,1789.5C 595.333,1823.17 595.5,1856.83 596,1890.5C 613.812,1901.98 627.812,1916.98 638,1935.5C 643.764,1954.54 638.264,1969.38 621.5,1980C 612.826,1984.25 603.993,1988.09 595,1991.5C 594.5,2020.16 594.333,2048.83 594.5,2077.5C 619.409,2077.71 634.242,2090.04 639,2114.5C 640.663,2133.52 633.83,2148.68 618.5,2160C 610.817,2165.09 602.651,2169.26 594,2172.5C 592.67,2201.17 592.503,2229.83 593.5,2258.5C 611.919,2267.79 626.085,2281.45 636,2299.5C 641.539,2313.82 640.206,2327.49 632,2340.5C 621.418,2354.58 608.251,2365.58 592.5,2373.5C 591.167,2399.5 591.167,2425.5 592.5,2451.5C 625.532,2459.85 643.865,2480.85 647.5,2514.5C 646.742,2538.09 634.742,2551.92 611.5,2556C 604.457,2556.59 597.457,2557.42 590.5,2558.5C 589.498,2616.65 568.165,2665.82 526.5,2706C 484.62,2739.7 438.286,2747.36 387.5,2729C 333.786,2705.12 299.619,2664.62 285,2607.5C 281.924,2593.97 279.591,2580.3 278,2566.5C 275.018,2535.23 273.184,2503.9 272.5,2472.5C 237.331,2470.43 217.997,2451.93 214.5,2417C 214.874,2397.54 224.207,2384.87 242.5,2379C 251.834,2378.74 261.167,2378.91 270.5,2379.5C 271.012,2340.84 271.346,2302.17 271.5,2263.5C 235.614,2260.7 218.447,2241.37 220,2205.5C 223.265,2189.78 232.431,2179.28 247.5,2174C 255.773,2172.67 264.107,2172.17 272.5,2172.5C 272.833,2143.49 272.5,2114.49 271.5,2085.5C 258.313,2080.57 245.979,2074.07 234.5,2066C 217.191,2051.46 214.025,2034.29 225,2014.5C 232.502,2003.66 242.335,1995.82 254.5,1991C 260.697,1989.11 267.03,1988.28 273.5,1988.5C 273.744,1960.5 274.078,1932.5 274.5,1904.5C 236.184,1899.02 218.351,1877.02 221,1838.5C 227.338,1812.33 243.838,1797 270.5,1792.5C 271.666,1770.51 271.833,1748.51 271,1726.5C 255.632,1718.47 241.965,1708.14 230,1695.5C 212.08,1671.62 212.08,1647.62 230,1623.5C 236.833,1614 245,1605.83 254.5,1599C 260.636,1596.82 266.969,1595.99 273.5,1596.5C 266.605,1550.52 259.771,1504.52 253,1458.5C 249.911,1445.31 246.745,1432.15 243.5,1419C 243.96,1417.7 244.294,1416.37 244.5,1415C 243.055,1410.94 242.055,1406.78 241.5,1402.5C 302.824,1400.5 364.491,1399.84 426.5,1400.5 Z"/></g>
<g><path style="opacity:1" fill="#4e4e4e" d="M 597.5,1651.5 C 597.5,1667.5 597.5,1683.5 597.5,1699.5C 601.042,1699.19 604.375,1699.52 607.5,1700.5C 603.833,1700.5 600.167,1700.5 596.5,1700.5C 596.17,1683.99 596.504,1667.66 597.5,1651.5 Z"/></g>
</svg>
