<?xml version="1.0" encoding="UTF-8"?>
<!DOCTYPE svg PUBLIC "-//W3C//DTD SVG 1.1//EN" "http://www.w3.org/Graphics/SVG/1.1/DTD/svg11.dtd">
<svg xmlns="http://www.w3.org/2000/svg" version="1.1" width="811px" height="3694px" style="shape-rendering:geometricPrecision; text-rendering:geometricPrecision; image-rendering:optimizeQuality; fill-rule:evenodd; clip-rule:evenodd" xmlns:xlink="http://www.w3.org/1999/xlink">
<g><path style="opacity:0.667" fill="#fdfdfd" d="M -0.5,-0.5 C 269.833,-0.5 540.167,-0.5 810.5,-0.5C 810.5,1230.83 810.5,2462.17 810.5,3693.5C 540.167,3693.5 269.833,3693.5 -0.5,3693.5C -0.5,2462.17 -0.5,1230.83 -0.5,-0.5 Z M 2.5,3172.5 C 2.62442,3198.48 6.12442,3224.15 13,3249.5C 22.681,3281.84 42.5143,3305.68 72.5,3321C 91.9802,3331.16 112.647,3337.49 134.5,3340C 151.116,3341.81 167.783,3342.81 184.5,3343C 314.325,3345.56 444.158,3346.06 574,3344.5C 594.345,3344.8 614.679,3345.46 635,3346.5C 668.665,3347.11 701.498,3342.27 733.5,3332C 749.582,3326.05 763.082,3316.55 774,3303.5C 804.029,3255.67 813.029,3204 801,3148.5C 779.95,3053.58 759.284,2958.58 739,2863.5C 716.231,2760.66 698.231,2656.99 685,2552.5C 673.895,2465.22 663.228,2377.89 653,2290.5C 635.037,2072.8 622.037,1854.8 614,1636.5C 611.851,1521.13 608.518,1405.8 604,1290.5C 596.847,1113.79 588.847,937.128 580,760.5C 577.345,729.52 567.011,701.52 549,676.5C 524.087,648.306 492.92,637.806 455.5,645C 429.875,649.96 408.708,662.46 392,682.5C 374.526,704.772 361.193,729.438 352,756.5C 334.797,809.645 323.13,863.978 317,919.5C 314.531,951.47 312.531,983.47 311,1015.5C 303.692,1193.83 296.359,1372.17 289,1550.5C 283.488,1680.02 275.155,1809.35 264,1938.5C 253.43,2046.25 237.763,2153.25 217,2259.5C 201.272,2313.35 183.938,2366.69 165,2419.5C 146.944,2465.95 128.61,2512.28 110,2558.5C 82.5605,2640.59 61.2272,2724.26 46,2809.5C 24.8319,2927.84 10.3319,3046.84 2.5,3166.5C 2.5,2111.83 2.5,1057.17 2.5,2.5C 270.833,2.5 539.167,2.5 807.5,2.5C 807.5,1231.83 807.5,2461.17 807.5,3690.5C 539.167,3690.5 270.833,3690.5 2.5,3690.5C 2.5,3517.83 2.5,3345.17 2.5,3172.5 Z"/></g>
<g><path style="opacity:0.981" fill="#010101" d="M 2.5,3172.5 C 2.5,3170.5 2.5,3168.5 2.5,3166.5C 10.3319,3046.84 24.8319,2927.84 46,2809.5C 61.2272,2724.26 82.5605,2640.59 110,2558.5C 128.61,2512.28 146.944,2465.95 165,2419.5C 183.938,2366.69 201.272,2313.35 217,2259.5C 237.763,2153.25 253.43,2046.25 264,1938.5C 275.155,1809.35 283.488,1680.02 289,1550.5C 296.359,1372.17 303.692,1193.83 311,1015.5C 312.531,983.47 314.531,951.47 317,919.5C 323.13,863.978 334.797,809.645 352,756.5C 361.193,729.438 374.526,704.772 392,682.5C 408.708,662.46 429.875,649.96 455.5,645C 492.92,637.806 524.087,648.306 549,676.5C 567.011,701.52 577.345,729.52 580,760.5C 588.847,937.128 596.847,1113.79 604,1290.5C 608.518,1405.8 611.851,1521.13 614,1636.5C 622.037,1854.8 635.037,2072.8 653,2290.5C 663.228,2377.89 673.895,2465.22 685,2552.5C 698.231,2656.99 716.231,2760.66 739,2863.5C 759.284,2958.58 779.95,3053.58 801,3148.5C 813.029,3204 804.029,3255.67 774,3303.5C 763.082,3316.55 749.582,3326.05 733.5,3332C 701.498,3342.27 668.665,3347.11 635,3346.5C 614.679,3345.46 594.345,3344.8 574,3344.5C 444.158,3346.06 314.325,3345.56 184.5,3343C 167.783,3342.81 151.116,3341.81 134.5,3340C 112.647,3337.49 91.9802,3331.16 72.5,3321C 42.5143,3305.68 22.681,3281.84 13,3249.5C 6.12442,3224.15 2.62442,3198.48 2.5,3172.5 Z"/></g>
<g><path style="opacity:1" fill="#fefefe" d="M 622.5,2280.5 C 559.337,2281.83 495.837,2282.5 432,2282.5C 368.332,2282.5 304.832,2282.17 241.5,2281.5C 247.491,2256.71 252.657,2231.71 257,2206.5C 283.215,2054.56 300.215,1901.56 308,1747.5C 311.237,1691.18 314.237,1634.85 317,1578.5C 324.621,1391.5 332.287,1204.5 340,1017.5C 341.672,975.736 344.672,934.069 349,892.5C 355.057,858.883 362.39,825.55 371,792.5C 379.407,760.026 393.407,730.36 413,703.5C 436.947,674.519 466.781,666.019 502.5,678C 512.494,682.996 520.994,689.83 528,698.5C 540.8,717.561 548.467,738.561 551,761.5C 559.29,929.136 566.956,1096.8 574,1264.5C 578.466,1381.47 581.799,1498.47 584,1615.5C 592.007,1837.46 604.841,2059.12 622.5,2280.5 Z"/></g>
<g><path style="opacity:1" fill="#282828" d="M 622.5,2280.5 C 623.455,2290.7 624.455,2301.03 625.5,2311.5C 494.5,2311.5 363.5,2311.5 232.5,2311.5C 235.13,2301.29 238.13,2291.29 241.5,2281.5C 304.832,2282.17 368.332,2282.5 432,2282.5C 495.837,2282.5 559.337,2281.83 622.5,2280.5 Z"/></g>
<g><path style="opacity:1" fill="#fefefe" d="M 232.5,2311.5 C 363.5,2311.5 494.5,2311.5 625.5,2311.5C 635.604,2393.66 645.771,2476 656,2558.5C 670.487,2667.27 689.487,2775.27 713,2882.5C 732.027,2970.6 751.36,3058.6 771,3146.5C 779.551,3182.26 778.217,3217.59 767,3252.5C 761.582,3269.19 752.749,3283.69 740.5,3296C 729.163,3303.34 716.829,3308.34 703.5,3311C 670.077,3317.22 636.41,3318.88 602.5,3316C 480.167,3315.67 357.833,3315.33 235.5,3315C 206.151,3314.42 176.817,3313.42 147.5,3312C 112.873,3309.93 83.0393,3297.09 58,3273.5C 47.1505,3259.64 40.1505,3243.98 37,3226.5C 32.6712,3195.29 31.6712,3163.96 34,3132.5C 44.2264,2992.33 64.5597,2853.66 95,2716.5C 107.971,2661.26 123.971,2606.92 143,2553.5C 159.554,2513.73 175.554,2473.73 191,2433.5C 205.564,2392.97 219.397,2352.31 232.5,2311.5 Z"/></g>
</svg>
