<?xml version="1.0" encoding="UTF-8"?>
<svg version="1.1" xmlns="http://www.w3.org/2000/svg" width="843" height="3694">
<path d="M0 0 C278.19 0 556.38 0 843 0 C843 1219.02 843 2438.04 843 3694 C564.81 3694 286.62 3694 0 3694 C0 2474.98 0 1255.96 0 0 Z M3 3 C3 1026.99 3 2050.98 3 3106 C3.33 3106 3.66 3106 4 3106 C4.06469482 3105.16791016 4.12938965 3104.33582031 4.19604492 3103.47851562 C6.51983097 3074.29256074 10.40009603 3045.55984455 17 3017 C17.21785156 3016.05688965 17.43570312 3015.1137793 17.66015625 3014.14208984 C23.06004265 2991.14243084 29.56527774 2968.40227274 35.81712341 2945.62434387 C38.15803316 2937.08958363 40.48144446 2928.55022854 42.79387665 2920.00771141 C63.84396181 2842.25188385 86.21629657 2764.88390693 145.50927734 2584.18701172 C146.94485097 2580.1625998 148.35930788 2576.13100774 149.76953125 2572.09765625 C156.24291567 2553.61690574 163.09770055 2535.28726532 170.00259399 2516.96417236 C184.8459594 2477.60762704 184.8459594 2477.60762704 199 2438 C199.2756781 2437.20583679 199.5513562 2436.41167358 199.83538818 2435.59344482 C214.27411847 2393.94435768 227.75655432 2352.05844815 240.125 2309.75 C240.33025425 2309.04849068 240.5355085 2308.34698135 240.74698257 2307.62421417 C241.94416544 2303.53134064 243.13748704 2299.43737071 244.32559776 2295.3418541 C244.85573915 2293.51516089 245.38763835 2291.68897812 245.91963196 2289.86282349 C246.57958946 2287.57810664 247.23008722 2285.29063134 247.87007809 2283.00024128 C248.62180355 2280.31119952 249.41122805 2277.63675447 250.2208519 2274.96463871 C254.00457544 2262.06875828 255.25829842 2249.437118 256.14501953 2236.06713867 C256.31348988 2233.7321995 256.48361088 2231.39737893 256.65523911 2229.06266975 C257.01892246 2224.06963614 257.37149185 2219.07599329 257.71508408 2214.08153725 C258.21945845 2206.75163577 258.74405353 2199.42333725 259.27471621 2192.0953046 C259.92993817 2183.04621025 260.58175083 2173.99688205 261.22299767 2164.94678593 C261.27246053 2164.24873303 261.3219234 2163.55068014 261.37288515 2162.83147412 C261.44698954 2161.78559522 261.44698954 2161.78559522 261.52259099 2160.71858746 C262.71124758 2143.94324506 263.93952937 2127.17113048 265.19824219 2110.40087891 C265.28762845 2109.20972088 265.37701472 2108.01856285 265.46910965 2106.79130912 C265.91988961 2100.78749883 266.37148998 2094.78375064 266.82350349 2088.78003311 C267.37336285 2081.47371568 267.9201363 2074.16716932 268.46617126 2066.86056519 C268.5576315 2065.63678354 268.64909174 2064.4130019 268.7433235 2063.15213597 C268.92911272 2060.6661746 269.11490149 2058.18021321 269.30068982 2055.69425178 C275.29407378 1975.52479528 281.32763056 1895.35833859 439 620 C439.33354492 619.30261719 439.66708984 618.60523438 440.01074219 617.88671875 C453.78234745 589.21985486 470.9762229 562.88270665 492 539 C492.44166504 538.4951709 492.88333008 537.9903418 493.33837891 537.47021484 C514.58726483 513.30435882 537.9704929 496.66928078 570.98828125 494.1875 C588.28262995 493.28095484 605.06689987 497.85224282 618.51171875 509.1015625 C637.9421907 527.77328937 647.48449357 557.02893321 648.1882019 583.5954895 C648.20280376 585.23824375 648.20700344 586.88111245 648.20263672 588.52392578 C648.20053129 589.45759035 648.19842587 590.39125492 648.19625664 591.35321236 C648.06625399 604.93930375 647.03167866 618.49279515 646.10712266 632.0428648 C645.82835297 636.15492941 645.55854166 640.26758264 645.28788757 644.38018799 C644.81931001 651.48664582 644.34641076 658.59280391 643.87075806 665.6987915 C642.65153944 683.92505884 641.46397609 702.15341446 640.27611279 720.38174772 C640.08119663 723.37217988 639.88607431 726.36259854 639.69093132 729.3530159 C636.93516067 771.60257821 634.32429115 813.86026113 631.8125 856.125 C631.76130131 856.9861869 631.71010262 857.84737381 631.65735245 858.73465729 C626.65581665 942.89520292 622.04759559 1027.08038914 611.02929688 1315.4934082 C611.00095615 1317.91819332 610.96778353 1320.34286932 610.93359375 1322.76757812 C609.84705404 1404.44442785 615.08229903 1486.44503197 688.36621094 2227.78759766 C693.90258048 2270.87362344 698.75827003 2313.97505678 703.15661621 2357.19056797 C716.30249704 2487.10235166 716.30249704 2487.10235166 733 2624 C733.14614746 2625.10210815 733.29229492 2626.20421631 733.44287109 2627.33972168 C742.44231525 2695.00901737 755.76248982 2762.05909649 769 2829 C769.15973801 2829.80810371 769.31947601 2830.61620743 769.48405457 2831.44879913 C785.4754771 2912.31806974 802.69332902 2992.94995852 820.69878387 3073.39307785 C829.17052601 3111.24898106 829.17052601 3111.24898106 832.53125 3128.58984375 C832.76058228 3129.76970352 832.98991455 3130.94956329 833.22619629 3132.16517639 C836.86438719 3151.37834507 838.20466305 3170.13554126 838.24023438 3189.65234375 C838.24987456 3192.83360614 838.28095506 3196.01420262 838.3125 3199.1953125 C838.40850964 3217.62282792 836.79835487 3235.78206995 832.25 3253.6875 C831.99395996 3254.71875 831.73791992 3255.75 831.47412109 3256.8125 C824.84004884 3282.75696098 814.39318079 3309.85682339 795 3329 C794.41347656 3329.6084375 793.82695313 3330.216875 793.22265625 3330.84375 C774.75135279 3348.62793714 746.05603175 3354.96804785 721.625 3358.75 C720.87814941 3358.86569336 720.13129883 3358.98138672 719.36181641 3359.10058594 C688.65254742 3363.46582659 657.0523209 3361.09061494 626.21840572 3359.38277793 C622.06945313 3359.15417531 617.92019162 3358.93133459 613.77093506 3358.70832825 C612.04663276 3358.61561688 610.32233047 3358.52290543 608.59802818 3358.4301939 C607.73450068 3358.38377833 606.87097318 3358.33736275 605.98127818 3358.28954065 C603.33042375 3358.14684315 600.67960231 3358.00354578 598.02878761 3357.86011219 C580.66913611 3356.92181998 563.30703438 3356.03359093 545.94444656 3355.1515789 C537.14214092 3354.70432902 528.33999222 3354.25400365 519.5378418 3353.80371094 C518.65294634 3353.75844831 517.76805088 3353.71318569 516.85634041 3353.66655147 C427.21895925 3349.08067345 337.57959864 3344.442106 248.0258522 3338.40318298 C245.82332278 3338.25493521 243.62070142 3338.10812539 241.4180603 3337.96154785 C193.37262639 3334.74893092 193.37262639 3334.74893092 171.375 3330.3125 C169.45373291 3329.92904419 169.45373291 3329.92904419 167.49365234 3329.5378418 C116.15361889 3319.01749909 67.84744743 3293.01586849 36.17382812 3250.57080078 C35.16645003 3249.22274116 34.139759 3247.8891516 33.109375 3246.55859375 C12.79821 3219.27139778 7.20399593 3186.04145741 4 3153 C3.67 3153 3.34 3153 3 3153 C3 3330.54 3 3508.08 3 3691 C279.21 3691 555.42 3691 840 3691 C840 2473.96 840 1256.92 840 3 C563.79 3 287.58 3 3 3 Z " fill="#FEFEFE" transform="translate(0,0)"/>
<path d="M0 0 C132.33 0 264.66 0 401 0 C403.97 29.37 406.94 58.74 410 89 C413.0331178 117.88260383 413.0331178 117.88260383 416.29296875 146.73046875 C417.06118066 153.41738034 417.72030198 160.11367312 418.375 166.8125 C422.13206345 204.96325101 426.75004093 243.01352838 431.50665283 281.05065918 C432.02131634 285.17064152 432.53400132 289.29086674 433.04638672 293.41113281 C433.935105 300.55527099 434.82972824 307.69865512 435.72787476 314.84161377 C436.07188739 317.57834191 436.4141376 320.31528098 436.75479126 323.0524292 C438.41384007 336.35463096 440.11488249 349.60269767 442.59204102 362.77868652 C443.42335634 367.30515121 444.17629078 371.84543392 444.9453125 376.3828125 C449.7906327 404.78983914 454.96413103 433.1149857 460.49151611 461.39691162 C461.27669421 465.4164844 462.05824284 469.43676163 462.83984375 473.45703125 C463.69319141 477.84600752 464.54707533 482.23487304 465.40454102 486.62304688 C466.96201999 494.6020214 468.49395225 502.58536827 470 510.57421875 C473.15961024 527.32215011 476.34766838 544.04524529 479.99023438 560.69628906 C481.44710117 567.36456505 482.81049218 574.04027825 484.0625 580.75 C487.27881545 597.96606547 490.99933853 615.06598283 494.84155273 632.15185547 C496.33182873 638.83200686 497.7054765 645.51777653 498.9375 652.25 C500.62542461 661.4457846 502.67432792 670.54771346 504.76483154 679.65893555 C507.46467438 691.44256805 509.95590663 703.26046827 512.33911133 715.11206055 C515.03767154 728.4497048 518.02534885 741.72164172 521 755 C521.50880371 757.27406706 522.01751271 759.54815531 522.52612305 761.82226562 C522.77537033 762.93661987 523.02461761 764.05097412 523.28141785 765.19909668 C524.29015136 769.71081901 525.29773355 774.22279795 526.30493164 778.73486328 C526.81082451 780.9987461 527.31766369 783.26241766 527.82543945 785.52587891 C530.5790603 797.80475305 533.26907587 810.09166496 535.74609375 822.4296875 C535.94493668 823.41776398 536.1437796 824.40584045 536.34864807 825.42385864 C539.9533491 843.60639332 541.21019091 861.25782425 541.1875 879.75 C541.18709213 881.00491745 541.18709213 881.00491745 541.18667603 882.28518677 C541.16872555 894.29836175 540.93145248 906.11789993 539 918 C538.81695313 919.19109375 538.63390625 920.3821875 538.4453125 921.609375 C533.64495214 948.75215335 523.61889862 984.57016985 500.1875 1001.6875 C495.33873932 1004.92246343 490.3059278 1007.59793656 485 1010 C483.40478516 1010.73476562 483.40478516 1010.73476562 481.77734375 1011.484375 C459.64797462 1020.85513697 433.71939381 1021.26120074 410.0625 1021.3125 C408.8756813 1021.31801376 408.8756813 1021.31801376 407.66488647 1021.32363892 C397.65694972 1021.3479253 387.73785017 1020.87997839 377.76098633 1020.10766602 C360.51773903 1018.8295371 343.25636695 1017.97285097 325.98818254 1017.11157656 C321.34685969 1016.87941058 316.70571333 1016.64376365 312.06454468 1016.40853882 C303.23014903 1015.96128543 294.39561099 1015.51691518 285.56101263 1015.073686 C275.8047577 1014.58411131 266.04864457 1014.09174383 256.29255342 1013.59891748 C253.40537391 1013.45308075 250.51819153 1013.30730098 247.63100815 1013.16154099 C238.99048644 1012.72532167 230.34997022 1012.28899364 221.70946002 1011.85254645 C217.8886344 1011.65955988 214.0678066 1011.46661627 210.24697828 1011.27368307 C208.35188827 1011.17798218 206.45679911 1011.08226417 204.56171083 1010.98652887 C194.41507793 1010.47396839 184.26837923 1009.96279524 174.12145996 1009.45593262 C139.0419578 1007.70332805 103.97267317 1005.93849723 68.93057823 1003.53285122 C59.30421692 1002.87610466 49.67324414 1002.29761272 40.04191589 1001.71913528 C34.9887169 1001.41507306 29.93578553 1001.1066185 24.8828125 1000.79882812 C18.80784323 1000.42882104 12.73277932 1000.06075254 6.65722656 999.70043945 C-14.85493403 998.42231229 -36.33968872 997.01224153 -57.796875 994.99609375 C-58.64004524 994.91839312 -59.48321548 994.84069248 -60.35193634 994.76063728 C-69.36090762 993.92209821 -78.31338784 992.88403721 -87.25488281 991.49243164 C-88.41371538 991.31306769 -88.41371538 991.31306769 -89.59595871 991.13008022 C-96.59616423 989.99570223 -103.22613066 988.09937088 -110 986 C-111.32295218 985.63341883 -112.64723911 985.27162875 -113.97265625 984.9140625 C-143.04003526 976.97174658 -169.96280872 962.60888292 -191.52099609 941.44824219 C-192.96357299 940.03566937 -194.42882755 938.6463739 -195.89453125 937.2578125 C-223.69122359 910.43303248 -236.10302153 873.4364495 -237.17602539 835.30615234 C-237.25375928 830.57859125 -237.22965979 825.85279213 -237.1875 821.125 C-237.17792686 819.43204827 -237.16848819 817.73909578 -237.15917969 816.04614258 C-237.12746555 811.36372867 -237.06950436 806.68198914 -237 802 C-236.98598145 800.9598877 -236.97196289 799.91977539 -236.95751953 798.84814453 C-236.22085576 758.49871536 -227.31948966 717.56109007 -216 679 C-215.49037328 677.24754468 -214.98121076 675.49495427 -214.47265625 673.7421875 C-214.12448853 672.54287598 -214.12448853 672.54287598 -213.76928711 671.31933594 C-211.26731559 662.66657641 -208.96126262 653.9894772 -206.82446289 645.23974609 C-205.520263 639.94668976 -204.07685938 634.71793757 -202.5 629.5 C-200.65502759 623.3930765 -199.02068507 617.25810362 -197.5 611.0625 C-195.37071434 602.38732445 -193.04503278 593.78261601 -190.61621094 585.18701172 C-189.8113654 582.33051158 -189.01879557 579.47068242 -188.22680664 576.6105957 C-182.90211089 557.38336777 -177.52380065 538.17104064 -172 519 C-171.7215625 518.03175293 -171.443125 517.06350586 -171.15625 516.06591797 C-167.99719297 505.09559883 -164.76964275 494.16116695 -161.26953125 483.29467773 C-159.17604284 476.72137334 -157.32965234 470.0884187 -155.5 463.4375 C-153.26732328 455.32693501 -150.90802504 447.3004628 -148.12890625 439.35913086 C-146.2248444 433.88010987 -144.64998124 428.32554048 -143.07299805 422.74438477 C-141.30447153 416.57285093 -139.40391488 410.44336584 -137.5 404.3125 C-137.12230469 403.08466797 -136.74460937 401.85683594 -136.35546875 400.59179688 C-134.69467279 395.23558721 -133.00475285 389.91776374 -131.03125 384.66796875 C-129.4101634 380.30152547 -128.05936097 375.88534812 -126.77734375 371.41015625 C-123.38897607 359.63992279 -119.45153629 348.0497151 -115.5625 336.4375 C-115.16538818 335.24959869 -114.76827637 334.06169739 -114.35913086 332.83779907 C-99.15207883 287.36988467 -82.80571832 242.35504966 -65.91235352 197.48779297 C-57.25643944 174.49844435 -48.74365265 151.48334507 -40.77154541 128.24749756 C-39.95927376 125.88136522 -39.1446509 123.51605176 -38.32958984 121.15087891 C-34.75960816 110.78753895 -31.21546946 100.41562298 -27.6920166 90.03637695 C-27.04721999 88.13895289 -26.40016391 86.24229707 -25.75292969 84.34570312 C-21.62433569 72.24036733 -17.79712438 60.10749263 -14.35546875 47.7890625 C-13.18805787 43.62384564 -11.93156763 39.49871843 -10.625 35.375 C-6.94263753 23.62651022 -3.49771238 11.80477927 0 0 Z " fill="#FEFEFE" transform="translate(269,2312)"/>
<path d="M0 0 C278.19 0 556.38 0 843 0 C843 1219.02 843 2438.04 843 3694 C564.81 3694 286.62 3694 0 3694 C0 2474.98 0 1255.96 0 0 Z M3 3 C3 1026.99 3 2050.98 3 3106 C3.33 3106 3.66 3106 4 3106 C4.06469482 3105.16791016 4.12938965 3104.33582031 4.19604492 3103.47851562 C6.51983097 3074.29256074 10.40009603 3045.55984455 17 3017 C17.21785156 3016.05688965 17.43570312 3015.1137793 17.66015625 3014.14208984 C23.06004265 2991.14243084 29.56527774 2968.40227274 35.81712341 2945.62434387 C38.15803316 2937.08958363 40.48144446 2928.55022854 42.79387665 2920.00771141 C63.84396181 2842.25188385 86.21629657 2764.88390693 145.50927734 2584.18701172 C146.94485097 2580.1625998 148.35930788 2576.13100774 149.76953125 2572.09765625 C156.24291567 2553.61690574 163.09770055 2535.28726532 170.00259399 2516.96417236 C184.8459594 2477.60762704 184.8459594 2477.60762704 199 2438 C199.2756781 2437.20583679 199.5513562 2436.41167358 199.83538818 2435.59344482 C214.27411847 2393.94435768 227.75655432 2352.05844815 240.125 2309.75 C240.33025425 2309.04849068 240.5355085 2308.34698135 240.74698257 2307.62421417 C241.94416544 2303.53134064 243.13748704 2299.43737071 244.32559776 2295.3418541 C244.85573915 2293.51516089 245.38763835 2291.68897812 245.91963196 2289.86282349 C246.57958946 2287.57810664 247.23008722 2285.29063134 247.87007809 2283.00024128 C248.62180355 2280.31119952 249.41122805 2277.63675447 250.2208519 2274.96463871 C254.00457544 2262.06875828 255.25829842 2249.437118 256.14501953 2236.06713867 C256.31348988 2233.7321995 256.48361088 2231.39737893 256.65523911 2229.06266975 C257.01892246 2224.06963614 257.37149185 2219.07599329 257.71508408 2214.08153725 C258.21945845 2206.75163577 258.74405353 2199.42333725 259.27471621 2192.0953046 C259.92993817 2183.04621025 260.58175083 2173.99688205 261.22299767 2164.94678593 C261.27246053 2164.24873303 261.3219234 2163.55068014 261.37288515 2162.83147412 C261.44698954 2161.78559522 261.44698954 2161.78559522 261.52259099 2160.71858746 C262.71124758 2143.94324506 263.93952937 2127.17113048 265.19824219 2110.40087891 C265.28762845 2109.20972088 265.37701472 2108.01856285 265.46910965 2106.79130912 C265.91988961 2100.78749883 266.37148998 2094.78375064 266.82350349 2088.78003311 C267.37336285 2081.47371568 267.9201363 2074.16716932 268.46617126 2066.86056519 C268.5576315 2065.63678354 268.64909174 2064.4130019 268.7433235 2063.15213597 C268.92911272 2060.6661746 269.11490149 2058.18021321 269.30068982 2055.69425178 C275.29407378 1975.52479528 281.32763056 1895.35833859 439 620 C439.33354492 619.30261719 439.66708984 618.60523438 440.01074219 617.88671875 C453.78234745 589.21985486 470.9762229 562.88270665 492 539 C492.44166504 538.4951709 492.88333008 537.9903418 493.33837891 537.47021484 C514.58726483 513.30435882 537.9704929 496.66928078 570.98828125 494.1875 C588.28262995 493.28095484 605.06689987 497.85224282 618.51171875 509.1015625 C637.9421907 527.77328937 647.48449357 557.02893321 648.1882019 583.5954895 C648.20280376 585.23824375 648.20700344 586.88111245 648.20263672 588.52392578 C648.20053129 589.45759035 648.19842587 590.39125492 648.19625664 591.35321236 C648.06625399 604.93930375 647.03167866 618.49279515 646.10712266 632.0428648 C645.82835297 636.15492941 645.55854166 640.26758264 645.28788757 644.38018799 C644.81931001 651.48664582 644.34641076 658.59280391 643.87075806 665.6987915 C642.65153944 683.92505884 641.46397609 702.15341446 640.27611279 720.38174772 C640.08119663 723.37217988 639.88607431 726.36259854 639.69093132 729.3530159 C636.93516067 771.60257821 634.32429115 813.86026113 631.8125 856.125 C631.76130131 856.9861869 631.71010262 857.84737381 631.65735245 858.73465729 C626.65581665 942.89520292 622.04759559 1027.08038914 611.02929688 1315.4934082 C611.00095615 1317.91819332 610.96778353 1320.34286932 610.93359375 1322.76757812 C609.84705404 1404.44442785 615.08229903 1486.44503197 688.36621094 2227.78759766 C693.90258048 2270.87362344 698.75827003 2313.97505678 703.15661621 2357.19056797 C716.30249704 2487.10235166 716.30249704 2487.10235166 733 2624 C733.14614746 2625.10210815 733.29229492 2626.20421631 733.44287109 2627.33972168 C742.44231525 2695.00901737 755.76248982 2762.05909649 769 2829 C769.15973801 2829.80810371 769.31947601 2830.61620743 769.48405457 2831.44879913 C785.4754771 2912.31806974 802.69332902 2992.94995852 820.69878387 3073.39307785 C829.17052601 3111.24898106 829.17052601 3111.24898106 832.53125 3128.58984375 C832.76058228 3129.76970352 832.98991455 3130.94956329 833.22619629 3132.16517639 C836.86438719 3151.37834507 838.20466305 3170.13554126 838.24023438 3189.65234375 C838.24987456 3192.83360614 838.28095506 3196.01420262 838.3125 3199.1953125 C838.40850964 3217.62282792 836.79835487 3235.78206995 832.25 3253.6875 C831.99395996 3254.71875 831.73791992 3255.75 831.47412109 3256.8125 C824.84004884 3282.75696098 814.39318079 3309.85682339 795 3329 C794.41347656 3329.6084375 793.82695313 3330.216875 793.22265625 3330.84375 C774.75135279 3348.62793714 746.05603175 3354.96804785 721.625 3358.75 C720.87814941 3358.86569336 720.13129883 3358.98138672 719.36181641 3359.10058594 C688.65254742 3363.46582659 657.0523209 3361.09061494 626.21840572 3359.38277793 C622.06945313 3359.15417531 617.92019162 3358.93133459 613.77093506 3358.70832825 C612.04663276 3358.61561688 610.32233047 3358.52290543 608.59802818 3358.4301939 C607.73450068 3358.38377833 606.87097318 3358.33736275 605.98127818 3358.28954065 C603.33042375 3358.14684315 600.67960231 3358.00354578 598.02878761 3357.86011219 C580.66913611 3356.92181998 563.30703438 3356.03359093 545.94444656 3355.1515789 C537.14214092 3354.70432902 528.33999222 3354.25400365 519.5378418 3353.80371094 C518.65294634 3353.75844831 517.76805088 3353.71318569 516.85634041 3353.66655147 C427.21895925 3349.08067345 337.57959864 3344.442106 248.0258522 3338.40318298 C245.82332278 3338.25493521 243.62070142 3338.10812539 241.4180603 3337.96154785 C193.37262639 3334.74893092 193.37262639 3334.74893092 171.375 3330.3125 C169.45373291 3329.92904419 169.45373291 3329.92904419 167.49365234 3329.5378418 C116.15361889 3319.01749909 67.84744743 3293.01586849 36.17382812 3250.57080078 C35.16645003 3249.22274116 34.139759 3247.8891516 33.109375 3246.55859375 C12.79821 3219.27139778 7.20399593 3186.04145741 4 3153 C3.67 3153 3.34 3153 3 3153 C3 3330.54 3 3508.08 3 3691 C279.21 3691 555.42 3691 840 3691 C840 2473.96 840 1256.92 840 3 C563.79 3 287.58 3 3 3 Z M508.26953125 563.296875 C505.43874375 566.80907276 502.71180021 570.39556937 500 574 C499.24033936 574.99894287 499.24033936 574.99894287 498.46533203 576.01806641 C489.30671479 588.11398102 481.41636084 600.77196046 474 614 C473.51789063 614.85432617 473.03578125 615.70865234 472.5390625 616.58886719 C461.75059386 635.8784703 452.69603014 656.61138402 447 678 C446.63044189 679.36560059 446.63044189 679.36560059 446.25341797 680.75878906 C440.76022292 701.27238819 436.57707807 722.04143035 432.42773438 742.85882568 C431.82168248 745.89263085 431.20786289 748.92484886 430.59375 751.95703125 C429.58609927 756.94125431 428.59459589 761.92849029 427.61083984 766.91748047 C426.9628639 770.18740221 426.30345657 773.45492456 425.64453125 776.72265625 C421.41415246 797.91767332 417.88629271 819.21957453 414.39060974 840.54621887 C413.44906074 846.28741556 412.4949197 852.02617608 411.51953125 857.76171875 C409.29902324 870.84457756 407.21829851 883.93113714 405.43066406 897.08105469 C404.63585997 902.86064347 403.72218929 908.59456795 402.6640625 914.33203125 C400.28743881 927.39505344 398.61398305 940.5777196 396.79681396 953.7277832 C395.92060473 960.06647145 395.03958599 966.40448888 394.15625 972.7421875 C394.01463786 973.76003012 394.01463786 973.76003012 393.87016487 974.79843521 C392.77720238 982.64400358 391.64111593 990.47799738 390.37109375 998.296875 C388.99148167 1006.79472131 387.89912563 1015.31692882 386.86624146 1023.86315918 C386.33503549 1028.25605585 385.79316797 1032.64763087 385.25 1037.0390625 C385.08879417 1038.34302979 385.08879417 1038.34302979 384.92433167 1039.67333984 C384.04849525 1046.71054316 383.06928272 1053.73039949 382.0625 1060.75 C376.21785039 1102.33876308 372.30982459 1144.17313824 368.33811951 1185.97306824 C367.39541961 1195.89052273 366.43653857 1205.80626232 365.46445847 1215.7208786 C361.53047781 1255.86585814 357.97039007 1296.0346043 354.59051704 1336.22977829 C353.44331309 1349.86539882 352.26297718 1363.49787786 351.0625 1377.12890625 C347.16004371 1421.47508247 343.43972363 1465.83125319 339.92553711 1510.20996094 C339.59233553 1514.4173217 339.25907609 1518.62467787 338.92578125 1522.83203125 C338.80307641 1524.38172922 338.80307641 1524.38172922 338.67789268 1525.96273422 C337.57712384 1539.85640819 336.45225285 1553.74780521 335.29296875 1567.63671875 C335.18975091 1568.87412056 335.18975091 1568.87412056 335.08444786 1570.13652039 C334.80673642 1573.46541032 334.52887689 1576.79428787 334.2509222 1580.1231575 C330.65170718 1623.23560538 327.3285931 1666.36835376 324.02902889 1709.50452709 C323.49747563 1716.45355868 322.96565597 1723.40256986 322.43359375 1730.3515625 C322.38149884 1731.03205099 322.32940392 1731.71253949 322.27573037 1732.41364884 C319.92914882 1763.06230186 317.50627124 1793.70464863 315.04730797 1824.34447193 C314.42507187 1832.09973661 313.80630345 1839.85527379 313.19004059 1847.61101532 C312.99184196 1850.10255403 312.79289359 1852.59403228 312.59393311 1855.08551025 C310.64929944 1879.03630227 310.64929944 1879.03630227 309.33198547 1903.02722168 C308.97354089 1911.55444146 308.18616718 1920.03629548 307.38613892 1928.53173828 C306.92881813 1933.40156063 306.48957377 1938.27300947 306.05078125 1943.14453125 C305.96171005 1944.13248688 305.87263885 1945.1204425 305.78086853 1946.13833618 C304.87603479 1956.25265774 304.0704477 1966.37369282 303.3125 1976.5 C303.24968842 1977.33805176 303.18687683 1978.17610352 303.12216187 1979.03955078 C302.37394455 1989.10062303 301.73602549 1999.15420257 301.34301758 2009.23632812 C301.08173428 2015.47553626 300.44488905 2021.63932928 299.73022461 2027.84106445 C298.98870572 2034.49534831 298.63161288 2041.13849553 298.4296875 2047.83007812 C298.22910379 2053.40539347 297.70161482 2058.91838239 297.08422852 2064.4609375 C295.89991454 2075.42496217 295.09001739 2086.40736649 294.30859375 2097.40625 C294.15712711 2099.50835741 294.00543464 2101.61044855 293.85353088 2103.71252441 C293.53817343 2108.08571824 293.22491598 2112.4590554 292.91333008 2116.83251953 C292.5178275 2122.38267806 292.11793727 2127.93250945 291.71656704 2133.4822464 C291.40367894 2137.81322994 291.09268426 2142.14434785 290.78227425 2146.47550964 C290.63564126 2148.51966152 290.48855632 2150.56378104 290.34097099 2152.60786438 C289.5665296 2163.3537472 288.84492676 2174.09698175 288.32005215 2184.85829926 C288.03884219 2190.59225316 287.58131332 2196.28984875 287 2202 C286.36272732 2208.60399048 285.84891067 2215.18435022 285.5625 2221.8125 C285.1747028 2230.07703053 284.56689624 2238.3229813 283.86959839 2246.5664978 C283.75050561 2247.99451346 283.63599693 2249.42292074 283.52664185 2250.85171509 C282.8273092 2259.90738245 281.38070213 2268.27400055 278.81567383 2276.99707031 C277.86893595 2279.96389362 277.86893595 2279.96389362 278 2283 C406.04 2283 534.08 2283 666 2283 C665.3564552 2273.34682795 664.60239242 2263.92985528 663.3125 2254.375 C663.13807121 2253.05246654 662.96409827 2251.72987289 662.79052734 2250.40722656 C661.86865701 2243.40738668 660.92096323 2236.41104916 659.97154236 2229.41490173 C659.35379411 2224.86023513 658.7385544 2220.30523338 658.125 2215.75 C657.9347374 2214.33767593 657.9347374 2214.33767593 657.7406311 2212.89682007 C655.38551553 2195.35844544 653.28621168 2177.79499076 651.25048828 2160.21704102 C649.70002262 2146.84589831 648.07219699 2133.48724303 646.37445068 2120.1340332 C643.32905764 2096.16999169 640.63484735 2072.17300953 638.00579834 2048.16012573 C637.02528937 2039.2084357 636.02403338 2030.2593108 635 2021.3125 C634.92441864 2020.65089874 634.84883728 2019.98929749 634.77096558 2019.30764771 C633.71235231 2010.05267598 632.62379787 2000.80134046 631.52734375 1991.55078125 C628.48106157 1965.84375215 625.55026256 1940.14406499 623.07421875 1914.375 C622.73744169 1910.87495531 622.4000796 1907.37496737 622.0625 1903.875 C621.97738159 1902.99055206 621.89226318 1902.10610413 621.80456543 1901.19485474 C620.76199271 1890.38917156 619.64140968 1879.60079903 618.36297607 1868.82019043 C614.07055276 1832.60706594 610.69400249 1796.24119551 607.86448669 1759.88580322 C607.1438846 1750.63854212 606.33017425 1741.4017752 605.49133301 1732.16455078 C597.01305994 1638.55618226 589.00201759 1544.67456474 585.64550781 1447.42211914 C585.24393029 1435.06701067 585.24393029 1435.06701067 584.48046875 1422.73046875 C583.79313949 1413.89337825 583.62202758 1405.04681915 583.4375 1396.1875 C583.41665344 1395.2126767 583.39580688 1394.23785339 583.37432861 1393.23348999 C582.53295479 1352.41468929 582.48122972 1311.50453395 583.4375 1270.6875 C583.4570575 1269.84563141 583.47661499 1269.00376282 583.49676514 1268.13638306 C583.67892643 1260.63453937 583.92408319 1253.14023704 584.33999825 1245.64748764 C585.0291812 1233.07135025 585.34704934 1220.48782245 585.68134648 1207.89831203 C586.36856573 1182.12071931 587.29658638 1156.36400338 588.5859375 1130.609375 C588.63906141 1129.54812259 588.63906141 1129.54812259 588.69325852 1128.46543074 C589.12874226 1119.78823711 589.57596128 1111.11166541 590.02779573 1102.43530953 C590.42602192 1094.7839756 590.8165145 1087.13225139 591.20664227 1079.48050094 C591.71332665 1069.543572 592.2211568 1059.60670367 592.73368835 1049.67007446 C593.55615875 1033.72117122 594.36415024 1017.77172386 595.13671875 1001.8203125 C597.06585185 962.12344488 599.38308471 922.45794719 601.85302734 882.79101562 C602.10788657 878.69662323 602.36262101 874.60222311 602.6171875 870.5078125 C602.67893536 869.51489952 602.74068321 868.52198654 602.80430222 867.49898529 C603.8416429 850.79471494 604.8033706 834.08812327 605.6875 817.375 C607.24294996 788.04314137 608.8208554 758.69896787 611.23291016 729.4230957 C612.17110141 717.58679079 612.77388133 705.72915862 613.4375 693.875 C614.33772577 677.80023524 615.32020782 661.73966126 616.5625 645.6875 C616.62489868 644.87917725 616.68729736 644.07085449 616.75158691 643.23803711 C616.99526792 640.08307637 617.23915123 636.92813138 617.48352051 633.77322388 C618.04667228 626.46819827 618.57019253 619.16085031 619.05563354 611.85025024 C619.18108066 609.97115642 619.31123866 608.09237885 619.44165039 606.21362305 C620.1942465 594.66975667 620.79816603 583.30304187 618.3125 571.9375 C618.04022583 570.65927368 618.04022583 570.65927368 617.76245117 569.35522461 C614.46503825 554.54837041 608.3867312 539.34656115 595.40625 530.43359375 C594.21515625 529.72396484 594.21515625 529.72396484 593 529 C591.74703125 528.24396484 591.74703125 528.24396484 590.46875 527.47265625 C557.89795723 510.95853239 527.40580335 539.98378983 508.26953125 563.296875 Z M269 2312 C264.81302365 2325.94945199 264.81302365 2325.94945199 260.64404297 2339.90405273 C258.22853914 2347.99937848 255.74477477 2356.07016252 253.1796875 2364.11938477 C251.84916749 2368.29568675 250.54720336 2372.47907605 249.26953125 2376.671875 C234.09120791 2426.06216775 216.51451091 2474.56679964 198.23484421 2522.87523937 C189.92485613 2544.83720847 181.74964245 2566.83302882 174 2589 C173.66800598 2589.94804504 173.33601196 2590.89609009 172.99395752 2591.87286377 C164.3699727 2616.50443947 155.87994475 2641.17966255 147.625 2665.9375 C147.31394318 2666.86967346 147.00288635 2667.80184692 146.68240356 2668.76226807 C143.66236816 2677.82348516 140.68301414 2686.88974025 137.90771484 2696.02954102 C136.32656954 2701.20377312 134.65775382 2706.34991146 133 2711.5 C130.59262713 2719.00059368 128.20066632 2726.50309166 125.90625 2734.0390625 C124.89445684 2737.34483499 123.85288193 2740.64061401 122.8125 2743.9375 C117.35864095 2761.30286838 112.20468154 2778.77093959 107.1015625 2796.2421875 C106.35417921 2798.79177162 105.60040142 2801.33840275 104.8359375 2803.8828125 C102.27930081 2812.42539067 99.91470048 2821.0069182 97.625 2829.625 C95.38372731 2838.05191654 93.01558728 2846.41991672 90.4375 2854.75 C85.53073594 2870.61769913 81.33376626 2886.66074414 77.18164062 2902.73950195 C75.52549314 2909.10925817 73.72572632 2915.41989788 71.82397461 2921.7199707 C69.96531836 2927.95000765 68.41737957 2934.24486916 66.87475586 2940.55932617 C65.55343833 2945.91946579 64.09806502 2951.21615582 62.5 2956.5 C60.69127197 2962.48255388 59.09995195 2968.48923882 57.625 2974.5625 C55.84054775 2981.90615272 53.80085416 2989.13835022 51.625 2996.375 C40.36216435 3034.20467778 32.59296599 3074.40716678 32 3114 C31.97404359 3115.38704587 31.94799428 3116.77409 31.921875 3118.16113281 C31.5857562 3137.33097692 31.61143954 3156.06320724 35 3175 C35.20905848 3176.33822654 35.41622577 3177.67675053 35.62109375 3179.015625 C40.36671822 3206.7229977 53.79875495 3228.9338944 73 3249 C74.3303125 3250.40958984 74.3303125 3250.40958984 75.6875 3251.84765625 C99.9536604 3276.92504004 133.34932377 3292.87741819 167.203125 3300.17578125 C169.69399558 3300.71649493 172.1726463 3301.31774932 174.6328125 3301.984375 C191.62225672 3306.26251403 209.98140887 3307.12703164 227.41796875 3308.46484375 C228.21856028 3308.52728146 229.0191518 3308.58971916 229.84400368 3308.65404892 C249.20785476 3310.16028903 268.59196179 3311.3247214 287.98016357 3312.46551514 C295.23938983 3312.89314456 302.4982907 3313.32621295 309.75708961 3313.76102829 C312.24671292 3313.90944215 314.73646356 3314.05554078 317.22624207 3314.20132446 C329.62981158 3314.93540351 329.62981158 3314.93540351 335.54541016 3315.51098633 C342.99699126 3316.22619202 350.47443417 3316.53790978 357.94921875 3316.91015625 C359.69016636 3316.99860236 361.43110225 3317.08727925 363.17202759 3317.17616272 C366.98105316 3317.37030348 370.79013834 3317.56321295 374.59927368 3317.75518799 C385.37636555 3318.29859454 396.15300853 3318.85082081 406.9296875 3319.40234375 C408.11040392 3319.46270309 409.29112034 3319.52306244 410.50761604 3319.58525085 C432.38378066 3320.70408611 454.25846809 3321.85010318 476.1328125 3323.00390625 C477.7997646 3323.09181093 479.46671673 3323.1797149 481.1336689 3323.26761818 C496.10084685 3324.05696791 511.06796973 3324.8473589 526.03500366 3325.63943481 C534.68827335 3326.09737016 543.34158484 3326.55450957 551.99492574 3327.01109719 C554.28948923 3327.13221645 556.58404484 3327.25348405 558.87859917 3327.37477684 C575.12796627 3328.23336104 591.37793547 3329.07545049 607.63037109 3329.87402344 C609.04539512 3329.94373168 610.46041862 3330.01345088 611.87544155 3330.08318138 C618.45918786 3330.40724651 625.04308378 3330.7277954 631.62727356 3331.04275513 C633.94707609 3331.15586817 636.26687509 3331.26905354 638.58666992 3331.38232422 C639.61842283 3331.43046642 640.65017574 3331.47860863 641.71319389 3331.52820969 C646.84529979 3331.7813711 651.92551847 3332.15050596 657.02528095 3332.78567982 C660.49993936 3333.1627914 663.97649453 3333.20173933 667.46875 3333.23828125 C668.25467026 3333.24802979 669.04059052 3333.25777832 669.85032654 3333.26782227 C705.42488775 3333.61672716 748.27125013 3333.69661488 776.140625 3307.9453125 C803.35791339 3279.47008221 810.22664842 3232.13385064 810.13037109 3194.60791016 C810.1250231 3192.1356794 810.13034324 3189.66363145 810.13671875 3187.19140625 C810.14694971 3166.43007302 807.82304371 3146.75061309 803.25390625 3126.5078125 C802.71541291 3124.10351574 802.17692008 3121.69921886 801.63842773 3119.29492188 C801.36537811 3118.07973877 801.09232849 3116.86455566 800.81100464 3115.61254883 C799.55709399 3110.02711414 798.31392029 3104.43929842 797.0703125 3098.8515625 C796.83055695 3097.7753363 796.59080139 3096.69911011 796.34378052 3095.590271 C789.3421393 3064.16070748 782.36221637 3032.73201459 775.94064331 3001.17819214 C773.78528658 2990.60065215 771.45320299 2980.07320744 768.98779297 2969.56323242 C767.47890396 2963.12214333 766.0907682 2956.68309422 764.8359375 2950.1875 C763.68486438 2944.31553217 762.38893489 2938.47344997 761.125 2932.625 C757.75184555 2916.96288721 754.58016474 2901.26641124 751.56640625 2885.53125 C751.06532826 2882.9166234 750.56409653 2880.30202709 750.0625 2877.6875 C749.9366452 2877.03093414 749.81079041 2876.37436829 749.68112183 2875.69790649 C747.9266197 2866.56343793 746.04992973 2857.46199231 744.0625 2848.375 C741.41911975 2836.25045451 739.07779926 2824.08270991 736.8034668 2811.88500977 C735.2538059 2803.58390993 733.67319923 2795.29123561 732.01171875 2787.01171875 C727.05913983 2762.27437237 722.54019447 2737.47376029 718.1875 2712.625 C718.04742271 2711.825853 717.90734543 2711.02670601 717.76302338 2710.20334244 C716.17061763 2701.11617675 714.5879351 2692.02739942 713.02363205 2682.93535137 C712.31250064 2678.80325305 711.59190896 2674.67293256 710.86572266 2670.54345703 C708.16308578 2654.99873612 706.16717966 2639.37808411 704.25626755 2623.72007751 C703.90675627 2620.86269965 703.55351211 2618.00578774 703.20030499 2615.14886475 C701.01334652 2597.45795048 698.85467092 2579.76361844 696.81707764 2562.05480957 C696.16990057 2556.44042516 695.50875592 2550.82774164 694.84519958 2545.215271 C690.78691452 2510.88849021 686.94004841 2476.54509591 683.33276367 2442.16802979 C683.01782358 2439.1696869 682.70159317 2436.17148381 682.38476562 2433.17333984 C678.12147039 2392.79596807 674.09066602 2352.39532692 670 2312 C537.67 2312 405.34 2312 269 2312 Z " fill="#000000" transform="translate(0,0)"/>
<path d="M0 0 C278.19 0 556.38 0 843 0 C843 1219.02 843 2438.04 843 3694 C564.81 3694 286.62 3694 0 3694 C0 2474.98 0 1255.96 0 0 Z M3 3 C3 1220.04 3 2437.08 3 3691 C279.21 3691 555.42 3691 840 3691 C840 2473.96 840 1256.92 840 3 C563.79 3 287.58 3 3 3 Z " fill="#FCFCFC" transform="translate(0,0)"/>
</svg>
