<?xml version="1.0" encoding="UTF-8"?>
<!DOCTYPE svg PUBLIC "-//W3C//DTD SVG 1.1//EN" "http://www.w3.org/Graphics/SVG/1.1/DTD/svg11.dtd">
<svg xmlns="http://www.w3.org/2000/svg" version="1.1" width="843px" height="3694px" style="shape-rendering:geometricPrecision; text-rendering:geometricPrecision; image-rendering:optimizeQuality; fill-rule:evenodd; clip-rule:evenodd" xmlns:xlink="http://www.w3.org/1999/xlink">
<g><path style="opacity:0.761" fill="#fcfcfc" d="M -0.5,-0.5 C 280.5,-0.5 561.5,-0.5 842.5,-0.5C 842.5,1230.83 842.5,2462.17 842.5,3693.5C 561.5,3693.5 280.5,3693.5 -0.5,3693.5C -0.5,2462.17 -0.5,1230.83 -0.5,-0.5 Z M 2.5,3152.5 C 4.20233,3181.63 11.7023,3209.3 25,3235.5C 53.1778,3278.66 92.0111,3307.82 141.5,3323C 165.366,3329.91 189.699,3334.24 214.5,3336C 362.089,3345.7 509.755,3354.03 657.5,3361C 694.887,3364.12 731.22,3359.45 766.5,3347C 783.172,3340.09 796.672,3329.25 807,3314.5C 833.04,3269.31 843.373,3220.64 838,3168.5C 837.229,3157.1 835.896,3145.77 834,3134.5C 801.517,2990.75 771.851,2846.42 745,2701.5C 733.536,2631.12 724.202,2560.45 717,2489.5C 709.67,2421.87 702.67,2354.2 696,2286.5C 663.409,2044.59 638.075,1801.92 620,1558.5C 611.768,1450.95 609.435,1343.28 613,1235.5C 621.539,1023.66 633.206,811.996 648,600.5C 650.456,569.318 642.79,540.984 625,515.5C 612.124,500.979 595.957,493.313 576.5,492.5C 549.523,492.663 526.523,502.163 507.5,521C 456.53,572.427 424.03,633.927 410,705.5C 380.183,853.738 357.516,1003.07 342,1153.5C 327.737,1303.39 314.737,1453.39 303,1603.5C 285.721,1822.12 269.055,2040.79 253,2259.5C 235.322,2324.54 215.322,2388.88 193,2452.5C 116.822,2649.7 55.1551,2851.37 8,3057.5C 5.7066,3073.6 3.87326,3089.6 2.5,3105.5C 2.5,2071.17 2.5,1036.83 2.5,2.5C 281.5,2.5 560.5,2.5 839.5,2.5C 839.5,1231.83 839.5,2461.17 839.5,3690.5C 560.5,3690.5 281.5,3690.5 2.5,3690.5C 2.5,3511.17 2.5,3331.83 2.5,3152.5 Z"/></g>
<g><path style="opacity:0.982" fill="#000000" d="M 2.5,3152.5 C 2.5,3136.83 2.5,3121.17 2.5,3105.5C 3.87326,3089.6 5.7066,3073.6 8,3057.5C 55.1551,2851.37 116.822,2649.7 193,2452.5C 215.322,2388.88 235.322,2324.54 253,2259.5C 269.055,2040.79 285.721,1822.12 303,1603.5C 314.737,1453.39 327.737,1303.39 342,1153.5C 357.516,1003.07 380.183,853.738 410,705.5C 424.03,633.927 456.53,572.427 507.5,521C 526.523,502.163 549.523,492.663 576.5,492.5C 595.957,493.313 612.124,500.979 625,515.5C 642.79,540.984 650.456,569.318 648,600.5C 633.206,811.996 621.539,1023.66 613,1235.5C 609.435,1343.28 611.768,1450.95 620,1558.5C 638.075,1801.92 663.409,2044.59 696,2286.5C 702.67,2354.2 709.67,2421.87 717,2489.5C 724.202,2560.45 733.536,2631.12 745,2701.5C 771.851,2846.42 801.517,2990.75 834,3134.5C 835.896,3145.77 837.229,3157.1 838,3168.5C 843.373,3220.64 833.04,3269.31 807,3314.5C 796.672,3329.25 783.172,3340.09 766.5,3347C 731.22,3359.45 694.887,3364.12 657.5,3361C 509.755,3354.03 362.089,3345.7 214.5,3336C 189.699,3334.24 165.366,3329.91 141.5,3323C 92.0111,3307.82 53.1778,3278.66 25,3235.5C 11.7023,3209.3 4.20233,3181.63 2.5,3152.5 Z"/></g>
<g><path style="opacity:1" fill="#fefefe" d="M 560.5,523.5 C 584.886,520.604 602.053,530.271 612,552.5C 616.483,563.747 618.983,575.414 619.5,587.5C 607.943,757.742 597.777,928.076 589,1098.5C 585.617,1164.13 583.283,1229.8 582,1295.5C 581.54,1380.59 584.206,1465.59 590,1550.5C 608.475,1795.27 633.641,2039.27 665.5,2282.5C 536.165,2282.83 406.832,2282.5 277.5,2281.5C 278.845,2275.78 280.345,2270.12 282,2264.5C 297.731,2048.79 314.064,1833.12 331,1617.5C 342.177,1476.76 354.177,1336.09 367,1195.5C 382.734,1029.16 407.401,864.162 441,700.5C 455.04,639.884 483.54,587.384 526.5,543C 532.138,537.85 538.138,533.183 544.5,529C 549.844,526.841 555.177,525.008 560.5,523.5 Z"/></g>
<g><path style="opacity:1" fill="#fefefe" d="M 268.5,2311.5 C 402.167,2311.5 535.833,2311.5 669.5,2311.5C 679.979,2420.31 691.812,2528.97 705,2637.5C 721.961,2740.59 741.294,2843.26 763,2945.5C 777.336,3011.51 791.669,3077.51 806,3143.5C 809.807,3170.06 810.474,3196.72 808,3223.5C 804.542,3253.56 794.208,3280.89 777,3305.5C 765.325,3316.63 751.491,3323.8 735.5,3327C 717.731,3331.13 699.731,3332.96 681.5,3332.5C 526.412,3325.69 371.412,3317.19 216.5,3307C 169.809,3304.99 127.476,3290.66 89.5,3264C 69.9047,3248.59 54.7381,3229.76 44,3207.5C 37.5974,3189.35 33.5974,3170.68 32,3151.5C 29.8519,3100.2 35.8519,3049.87 50,3000.5C 86.7666,2857.44 129.433,2716.11 178,2576.5C 196.278,2527.61 214.278,2478.61 232,2429.5C 245.082,2390.42 257.249,2351.09 268.5,2311.5 Z"/></g>
</svg>
