<?xml version="1.0" encoding="UTF-8"?>
<!DOCTYPE svg PUBLIC "-//W3C//DTD SVG 1.1//EN" "http://www.w3.org/Graphics/SVG/1.1/DTD/svg11.dtd">
<svg xmlns="http://www.w3.org/2000/svg" version="1.1" width="939px" height="3694px" style="shape-rendering:geometricPrecision; text-rendering:geometricPrecision; image-rendering:optimizeQuality; fill-rule:evenodd; clip-rule:evenodd" xmlns:xlink="http://www.w3.org/1999/xlink">
<g><path style="opacity:0.915" fill="#f6f6f6" d="M -0.5,-0.5 C 312.5,-0.5 625.5,-0.5 938.5,-0.5C 938.5,1230.83 938.5,2462.17 938.5,3693.5C 625.5,3693.5 312.5,3693.5 -0.5,3693.5C -0.5,2462.17 -0.5,1230.83 -0.5,-0.5 Z M 2.5,605.5 C 8.53801,670.255 18.3713,734.589 32,798.5C 90.641,993.421 149.474,1188.25 208.5,1383C 196.968,1604.32 188.468,1825.82 183,2047.5C 184.714,2406.59 226.714,2760.92 309,3110.5C 324.435,3174.8 343.102,3238.14 365,3300.5C 379.745,3340.42 397.745,3378.76 419,3415.5C 423.333,3421.5 427.667,3427.5 432,3433.5C 441.483,3445.33 452.983,3454.5 466.5,3461C 498.265,3471.43 525.432,3464.27 548,3439.5C 566.457,3414.22 577.457,3385.89 581,3354.5C 584.803,3256.86 587.803,3159.19 590,3061.5C 590.816,2982.16 590.649,2902.83 589.5,2823.5C 589.889,2768.14 591.389,2712.81 594,2657.5C 595.715,2631.74 598.381,2606.07 602,2580.5C 618.775,2476.19 635.441,2371.85 652,2267.5C 667.096,2160.54 678.762,2053.21 687,1945.5C 701.967,1760.72 713.301,1575.72 721,1390.5C 769.368,1321.14 812.701,1248.47 851,1172.5C 871.167,1131.33 886.167,1088.33 896,1043.5C 913.966,968.038 926.633,891.704 934,814.5C 937.344,766.601 931.344,719.934 916,674.5C 902.793,640.393 883.793,610.06 859,583.5C 795.306,517.8 729.14,454.966 660.5,395C 601.292,342.781 540.625,292.448 478.5,244C 449.366,222.966 417.033,214.966 381.5,220C 347.712,229.729 316.045,244.062 286.5,263C 232.736,297.881 180.736,335.215 130.5,375C 108.766,393.062 87.9329,412.229 68,432.5C 37.8586,468.113 17.1919,508.78 6,554.5C 4.91924,561.325 3.75257,567.992 2.5,574.5C 2.5,383.833 2.5,193.167 2.5,2.5C 313.5,2.5 624.5,2.5 935.5,2.5C 935.5,1231.83 935.5,2461.17 935.5,3690.5C 624.5,3690.5 313.5,3690.5 2.5,3690.5C 2.5,2662.17 2.5,1633.83 2.5,605.5 Z"/></g>
<g><path style="opacity:0.981" fill="#010101" d="M 2.5,605.5 C 2.5,595.167 2.5,584.833 2.5,574.5C 3.75257,567.992 4.91924,561.325 6,554.5C 17.1919,508.78 37.8586,468.113 68,432.5C 87.9329,412.229 108.766,393.062 130.5,375C 180.736,335.215 232.736,297.881 286.5,263C 316.045,244.062 347.712,229.729 381.5,220C 417.033,214.966 449.366,222.966 478.5,244C 540.625,292.448 601.292,342.781 660.5,395C 729.14,454.966 795.306,517.8 859,583.5C 883.793,610.06 902.793,640.393 916,674.5C 931.344,719.934 937.344,766.601 934,814.5C 926.633,891.704 913.966,968.038 896,1043.5C 886.167,1088.33 871.167,1131.33 851,1172.5C 812.701,1248.47 769.368,1321.14 721,1390.5C 713.301,1575.72 701.967,1760.72 687,1945.5C 678.762,2053.21 667.096,2160.54 652,2267.5C 635.441,2371.85 618.775,2476.19 602,2580.5C 598.381,2606.07 595.715,2631.74 594,2657.5C 591.389,2712.81 589.889,2768.14 589.5,2823.5C 590.649,2902.83 590.816,2982.16 590,3061.5C 587.803,3159.19 584.803,3256.86 581,3354.5C 577.457,3385.89 566.457,3414.22 548,3439.5C 525.432,3464.27 498.265,3471.43 466.5,3461C 452.983,3454.5 441.483,3445.33 432,3433.5C 427.667,3427.5 423.333,3421.5 419,3415.5C 397.745,3378.76 379.745,3340.42 365,3300.5C 343.102,3238.14 324.435,3174.8 309,3110.5C 226.714,2760.92 184.714,2406.59 183,2047.5C 188.468,1825.82 196.968,1604.32 208.5,1383C 149.474,1188.25 90.641,993.421 32,798.5C 18.3713,734.589 8.53801,670.255 2.5,605.5 Z"/></g>
<g><path style="opacity:1" fill="#fefefe" d="M 393.5,246.5 C 420.323,246.607 444.323,254.774 465.5,271C 580.277,362.079 690.611,458.746 796.5,561C 813.699,578.531 830.533,596.365 847,614.5C 883.429,658.757 902.762,709.757 905,767.5C 905.868,810.147 902.534,852.48 895,894.5C 885.225,954.708 872.892,1014.37 858,1073.5C 844.474,1116.89 826.807,1158.56 805,1198.5C 773.006,1257.78 737.839,1314.95 699.5,1370C 544.833,1370.67 390.167,1370.67 235.5,1370C 177.343,1177.53 119.177,985.027 61,792.5C 46.406,725.342 36.5726,657.508 31.5,589C 36.5824,539.412 54.7491,495.245 86,456.5C 125.101,416.752 167.268,380.919 212.5,349C 247.956,324.215 283.956,300.215 320.5,277C 343.805,264.003 368.138,253.837 393.5,246.5 Z"/></g>
<g><path style="opacity:1" fill="#bdbdbd" d="M 236.5,1400.5 C 387.999,1399.5 539.666,1399.17 691.5,1399.5C 691.81,1402.71 691.477,1405.71 690.5,1408.5C 690.5,1405.83 690.5,1403.17 690.5,1400.5C 539.167,1400.5 387.833,1400.5 236.5,1400.5 Z"/></g>
<g><path style="opacity:1" fill="#fefefe" d="M 236.5,1400.5 C 387.833,1400.5 539.167,1400.5 690.5,1400.5C 690.5,1403.17 690.5,1405.83 690.5,1408.5C 681.241,1634.23 666.074,1859.56 645,2084.5C 639.429,2137.59 633.095,2190.59 626,2243.5C 608.334,2353.5 590.667,2463.5 573,2573.5C 565.577,2630.58 561.577,2687.91 561,2745.5C 560.851,2846.17 560.851,2946.83 561,3047.5C 558.921,3147.86 555.921,3248.19 552,3348.5C 549.805,3371.75 542.805,3393.42 531,3413.5C 521.457,3427.52 508.29,3435.18 491.5,3436.5C 481.618,3436.06 472.952,3432.56 465.5,3426C 453.357,3414.53 443.523,3401.36 436,3386.5C 420.706,3357.25 407.039,3327.25 395,3296.5C 369.131,3224.49 347.798,3151.16 331,3076.5C 271.498,2813.99 233.832,2548.32 218,2279.5C 211.363,2187.6 209.696,2095.6 213,2003.5C 218.477,1802.41 226.31,1601.41 236.5,1400.5 Z"/></g>
</svg>
