<?xml version="1.0" encoding="UTF-8"?>
<svg version="1.1" xmlns="http://www.w3.org/2000/svg" width="973" height="3694">
<path d="M0 0 C321.09 0 642.18 0 973 0 C973 1219.02 973 2438.04 973 3694 C651.91 3694 330.82 3694 0 3694 C0 2474.98 0 1255.96 0 0 Z M3 3 C3 1029.3 3 2055.6 3 3113 C3.33 3113 3.66 3113 4 3113 C4.04487549 3112.22736816 4.08975098 3111.45473633 4.13598633 3110.65869141 C5.66375999 3084.88631035 8.00386678 3059.36594005 13 3034 C13.20463867 3032.9579541 13.40927734 3031.9159082 13.62011719 3030.84228516 C17.22975606 3012.82916201 22.22033339 2995.42347357 28 2978 C28.29432922 2977.11054688 28.58865845 2976.22109375 28.89190674 2975.3046875 C39.84202141 2942.24731383 51.49935006 2909.46756073 63.51074219 2876.78271484 C65.9596211 2870.1161363 68.39184624 2863.4435681 70.8203125 2856.76953125 C78.54723602 2835.54414986 86.342186 2814.34617288 94.25 2793.1875 C104.88842401 2764.72112069 115.30376408 2736.17418585 125.6862793 2707.6137085 C126.92391644 2704.20928635 128.16212681 2700.80507315 129.40039062 2697.40087891 C153.41136741 2631.36625709 177.09783343 2565.15803863 198.03961182 2498.07580566 C199.02109824 2494.93242932 200.00532209 2491.78991841 200.98974609 2488.64746094 C214.28015116 2446.16999227 226.71244372 2403.46767835 238.33281326 2360.50418472 C238.85944291 2358.55750655 239.38696798 2356.61107068 239.91452026 2354.66464233 C241.7812703 2347.76504018 243.62059369 2340.85916211 245.42525864 2333.94304943 C246.49684467 2329.85516868 247.61675027 2325.78335922 248.76256084 2321.71570587 C255.16448027 2298.87096852 258.11993807 2276.51896639 259.84743118 2252.89049911 C260.22051995 2247.87623086 260.62850006 2242.86475966 261.03100586 2237.8527832 C261.80047944 2228.19795013 262.53573367 2218.54082046 263.25739956 2208.88230801 C263.82916561 2201.239999 264.41567071 2193.598948 265.01171875 2185.95849609 C272.72655834 2086.97137116 278.89887499 1987.87428675 283.86408997 1888.71192169 C283.99855007 1886.02893154 284.13367636 1883.34597561 284.2689209 1880.6630249 C288.97223096 1787.19313046 291.67347175 1693.65469207 297.48423576 1461.23281384 C302.58972338 1252.76434099 302.58972338 1252.76434099 314 1005 C314.0754303 1003.97169067 314.1508606 1002.94338135 314.22857666 1001.88391113 C322.7696884 886.42116667 342.44260211 771.4508747 377 619 C377.29801514 617.74630615 377.59603027 616.4926123 377.90307617 615.20092773 C395.04741684 543.08984261 414.72119791 471.69471135 437 401 C437.32891235 399.95503357 437.65782471 398.91006714 437.9967041 397.83343506 C443.6867558 379.7946102 449.45570182 361.92882493 458 345 C458.44279297 344.10635742 458.88558594 343.21271484 459.34179688 342.29199219 C466.4418298 328.01888072 474.37453924 314.40010923 483 301 C483.3810791 300.40155273 483.7621582 299.80310547 484.15478516 299.18652344 C503.49355694 268.8696923 530.92696627 232.88392004 567.9375 224.3203125 C588.50699213 220.56638019 609.1269359 222.70863756 627 234 C643.63652689 246.10721067 651.33438846 265.34257219 655 285 C655.89711365 291.39444476 656.14027394 297.67993727 656.11523438 304.13037109 C656.1152092 305.15481953 656.11518402 306.17926796 656.11515808 307.23476028 C656.11329527 310.78934559 656.10357872 314.34386576 656.09375 317.8984375 C656.09089846 319.88665653 656.08805685 321.87487561 656.08559561 323.86309516 C656.03536949 362.67493662 655.82785123 401.48678292 655.66176438 440.29825485 C655.3208393 519.97999268 654.98755147 599.66213706 655.42195606 957.58057356 C655.43724542 960.75956751 655.45233199 963.93856237 655.46736908 967.11755753 C655.84086904 1045.78165058 656.35624222 1124.45251459 657.8755722 1203.10406494 C657.94032947 1206.45909306 658.00405911 1209.81413975 658.06768799 1213.16918945 C659.88083238 1308.34817069 664.50235418 1403.18149614 724.81803942 2115.04773617 C725.12179963 2118.27846161 725.4254426 2121.50919806 725.72906113 2124.73993683 C726.22015883 2129.9651327 726.71163884 2135.1902925 727.20337677 2140.41542816 C727.39589237 2142.46147271 727.58831258 2144.50752623 727.78063583 2146.55358887 C728.80082924 2157.40565567 729.8290691 2168.25683362 730.88076782 2179.105896 C731.24566085 2182.87767582 731.60995072 2186.64951349 731.97387695 2190.42138672 C732.06245531 2191.33803919 732.15103367 2192.25469166 732.24229622 2193.19912148 C733.4074933 2205.29388676 734.45287337 2217.39221875 735.39135349 2229.50657523 C738.0850576 2264.04372462 742.78896635 2295.80381044 755.03503418 2328.4800415 C756.77703853 2333.17633374 758.43100302 2337.90341804 760.09179688 2342.62890625 C762.0820097 2348.27477122 764.07977719 2353.91737675 766.11758423 2359.54626465 C770.60094494 2371.93427001 774.8334173 2384.38175737 778.87109375 2396.921875 C779.15138994 2397.79205513 779.43168613 2398.66223526 779.72047615 2399.55878448 C780.14405309 2400.87404743 780.14405309 2400.87404743 780.57618713 2402.21588135 C781.15676973 2404.01861473 781.73741316 2405.82132853 782.31811523 2407.62402344 C782.61060056 2408.53236561 782.90308588 2409.44070778 783.20443439 2410.37657547 C786.97138184 2422.0488893 790.86361405 2433.67953504 794.75 2445.3125 C795.51254333 2447.59665405 796.27507075 2449.88081341 797.0375824 2452.16497803 C799.3568334 2459.11050528 801.67822172 2466.05531723 804 2473 C807.08531627 2482.22850511 810.16938513 2491.45742429 813.25 2500.6875 C813.6271666 2501.8174791 814.00433319 2502.94745819 814.39292908 2504.11167908 C819.62095431 2519.78213445 824.77841871 2535.47385149 829.87229919 2551.18836975 C834.68684154 2566.03511769 839.5894605 2580.85139023 844.53125 2595.65625 C844.89727325 2596.75287964 845.26329651 2597.84950928 845.64041138 2598.97937012 C848.2581043 2606.82030565 850.87873056 2614.66025952 853.5 2622.5 C856.49157352 2631.44725269 859.48185623 2640.39493383 862.46875 2649.34375 C862.83806326 2650.45010677 863.20737652 2651.55646355 863.58788109 2652.69634628 C867.98963134 2665.88903041 872.34832743 2679.0941077 876.62911034 2692.32651901 C883.1973348 2712.62917862 889.9440044 2732.87071335 896.71362257 2753.10688114 C897.86202624 2756.54010609 899.0098769 2759.97351582 900.15773261 2763.40692401 C905.19897205 2778.4857047 910.24168443 2793.56398899 915.29516602 2808.63867188 C917.95998232 2816.58800021 920.62020494 2824.5388513 923.27566463 2832.49131024 C924.66364585 2836.64736858 926.053647 2840.80272031 927.44949913 2844.95614243 C941.31666733 2886.22845674 954.03533712 2927.97802733 963.5 2970.5 C963.66607758 2971.24331573 963.83215515 2971.98663147 964.00326538 2972.75247192 C966.01004242 2981.78857905 967.72573163 2990.82685069 969 3000 C969.33 3000 969.66 3000 970 3000 C970 2010.99 970 1021.98 970 3 C650.89 3 331.78 3 3 3 Z M969 3046 C968.91548584 3046.64098633 968.83097168 3047.28197266 968.74389648 3047.94238281 C959.71225822 3114.82500592 933.53679378 3177.04260924 881 3221 C879.38898472 3222.37794825 877.78159087 3223.76006439 876.17407227 3225.14208984 C874.35542301 3226.70431671 872.53343872 3228.26258201 870.7109375 3229.8203125 C868.2917862 3231.88970698 865.88061267 3233.96777307 863.4765625 3236.0546875 C856.062149 3242.47857032 848.4914821 3248.64203617 840.73681641 3254.64990234 C838.44897084 3256.42833726 836.17588761 3258.22513645 833.90209961 3260.02148438 C825.98984563 3266.26746701 817.98190213 3272.38562298 809.96630859 3278.49804688 C807.22128771 3280.59481475 804.48552249 3282.703352 801.75 3284.8125 C799.50056251 3286.54240449 797.25054832 3288.27154221 795 3290 C793.8555542 3290.87978516 793.8555542 3290.87978516 792.68798828 3291.77734375 C782.056803 3299.94222547 771.35610975 3307.9799523 760.4609375 3315.7890625 C755.77581868 3319.15035084 751.13625411 3322.57176732 746.5 3326 C738.12246495 3332.18934102 729.69191619 3338.30187819 721.23828125 3344.38671875 C718.97933793 3346.01489256 716.72357339 3347.64737625 714.46875 3349.28125 C705.06288742 3356.09462677 695.60926684 3362.83522923 686.10888672 3369.51611328 C682.56958826 3372.00648791 679.03507087 3374.50362997 675.5 3377 C674.07944064 3378.00262338 672.65886774 3379.00522756 671.23828125 3380.0078125 C668.44325157 3381.98069912 665.64903618 3383.95473097 662.85546875 3385.9296875 C646.36806425 3397.58324074 629.85411022 3409.19527169 613.14746094 3420.53320312 C611.19450921 3421.86714287 609.25555265 3423.21868507 607.3203125 3424.578125 C573.76959624 3447.90377229 534.57211331 3464.61738029 494 3470 C493.33291016 3470.0942627 492.66582031 3470.18852539 491.97851562 3470.28564453 C406.44064131 3481.26261233 303.64949849 3427.74061887 151 3352 C149.28973633 3351.01725098 149.28973633 3351.01725098 147.54492188 3350.01464844 C131.91310253 3341.02648175 116.56877204 3331.73280745 101.56787109 3321.71386719 C99.10987535 3320.07333381 96.64429465 3318.4449636 94.17578125 3316.8203125 C89.76336444 3313.91016404 85.37546268 3310.96537039 81 3308 C79.89785156 3307.2560498 79.89785156 3307.2560498 78.7734375 3306.49707031 C46.90172574 3284.88371874 26.84345595 3254.51225378 15 3218 C14.61457031 3216.86304687 14.22914062 3215.72609375 13.83203125 3214.5546875 C6.33070096 3190.69988235 5.07813051 3164.82537355 4 3140 C3.67 3140 3.34 3140 3 3140 C3 3321.83 3 3503.66 3 3691 C322.11 3691 641.22 3691 970 3691 C970 3478.15 970 3265.3 970 3046 C969.67 3046 969.34 3046 969 3046 Z " fill="#FEFEFE" transform="translate(0,0)"/>
<path d="M0 0 C1.60875 0.804375 1.60875 0.804375 3.25 1.625 C10.46779498 7.85855021 15.13701836 15.98585978 18 25 C18.51188445 26.4509333 18.51188445 26.4509333 19.03411001 27.93117839 C20.48593234 33.08260679 20.27047063 38.27234716 20.24330235 43.58552074 C20.24531044 44.75323306 20.24731853 45.92094537 20.24938747 47.1240429 C20.25294054 50.36715189 20.24751758 53.61010322 20.23833102 56.85319657 C20.23055019 60.38248761 20.23442063 63.91176899 20.23682016 67.44106513 C20.23942689 73.63005532 20.23460992 79.81900528 20.2249527 86.00798798 C20.21062501 95.2165551 20.2077954 104.42510062 20.20737036 113.63367761 C20.20634815 129.15158856 20.19613465 144.66948072 20.18089485 160.18738365 C20.16579651 175.62468162 20.15533917 191.06197231 20.15081596 206.49927711 C20.15053336 207.46188329 20.15025076 208.42448947 20.14995959 209.41626553 C20.14855456 214.30761028 20.14724256 219.19895504 20.1459735 224.09029982 C20.13687081 258.80393895 20.11926487 293.51756888 20.09594727 328.23120117 C20.09453974 330.33128803 20.09313236 332.43137489 20.0917251 334.53146175 C20.09031553 336.63354934 20.08890591 338.73563692 20.08749622 340.83772451 C20.084675 345.04523837 20.08185666 349.25275224 20.07904053 353.46026611 C20.07799284 355.0230963 20.07799284 355.0230963 20.07692398 356.61749881 C20.06087469 380.61210431 20.04718179 404.60671091 20.03442383 428.60131836 C20.03387771 429.62463031 20.0333316 430.64794226 20.03276893 431.70226367 C20.02024509 455.2126785 20.00898181 478.72309349 20.00016689 502.23351002 C19.9997915 503.23151607 19.99941611 504.22952212 19.99902934 505.25777077 C19.99565656 514.25490632 19.99233722 523.25204189 19.9892792 532.24917755 C19.98204937 553.51505222 19.97271233 574.78092007 19.95540047 596.04678917 C19.88792874 679.37090945 19.93314654 762.68099926 21 846 C21.01071833 846.84262766 21.02143666 847.68525532 21.03247979 848.55341715 C21.27760028 867.81535925 21.54958155 887.07664092 21.8755722 906.33740997 C21.94031345 910.1663958 22.00406459 913.9953973 22.06768799 917.82440186 C22.3443894 934.41908561 22.63543985 951.01348455 22.93827057 967.60771179 C22.99738293 970.85618134 23.05577575 974.104663 23.11395264 977.35314941 C24.28940825 1042.73242474 26.9967788 1107.98985099 31.125 1173.25 C31.205224 1174.51913239 31.285448 1175.78826477 31.36810303 1177.09585571 C32.20022529 1190.12196755 33.15047948 1203.12744708 34.32086182 1216.12759399 C35.01833587 1223.95492779 35.47904805 1231.77630788 35.875 1239.625 C36.56377201 1252.36179242 37.57473184 1265.04962402 38.75 1277.75 C40.45575639 1296.23130298 41.9257288 1314.7252299 43.32260132 1333.23181152 C45.88460043 1367.16652561 48.6097941 1401.08639608 51.4375 1435 C51.53396442 1436.15693108 51.63042885 1437.31386215 51.72981644 1438.50585175 C54.53043754 1472.06709211 57.43659298 1505.61738868 60.48510742 1539.15698242 C60.76882365 1542.27912448 61.0524367 1545.40127588 61.3359375 1548.5234375 C61.4403374 1549.67280887 61.4403374 1549.67280887 61.54684639 1550.84539986 C62.59601277 1562.40735296 63.6114091 1573.971911 64.6015625 1585.5390625 C64.66836905 1586.31932423 64.73517559 1587.09958595 64.80400658 1587.90349197 C65.14705193 1591.91152686 65.48968589 1595.91959686 65.83224487 1599.92767334 C72.80248198 1681.45474268 79.93401087 1763.00487721 88.140625 1844.41796875 C88.23106583 1845.31568497 88.32150665 1846.21340118 88.41468811 1847.13832092 C88.8104256 1851.05522039 89.20979388 1854.97164077 89.62084961 1858.88696289 C90.42103027 1866.60035529 91.11559386 1874.31798626 91.73987007 1882.04771328 C93.23016048 1900.49752086 94.91464346 1918.92390829 96.69921875 1937.34765625 C96.81964979 1938.59101368 96.94008083 1939.83437111 97.0641613 1941.11540604 C97.80852321 1948.7915713 98.55627762 1956.46740356 99.30517578 1964.14312744 C100.32046371 1974.55128741 101.33274834 1984.95973813 102.34281349 1995.3684063 C102.69384485 1998.97986879 103.04675033 2002.59114472 103.39982605 2006.20240784 C103.61256897 2008.39022137 103.82524471 2010.57804143 104.0378418 2012.76586914 C104.13598679 2013.76450989 104.23413177 2014.76315063 104.33525085 2015.79205322 C104.42347107 2016.70336502 104.51169128 2017.61467682 104.60258484 2018.55360413 C104.67980617 2019.34475648 104.75702749 2020.13590883 104.83658886 2020.9510355 C105 2023 105 2023 105 2026 C-35.58 2026 -176.16 2026 -321 2026 C-321 2019.08779887 -320.91364722 2012.52999278 -320.23046875 2005.70703125 C-320.10939255 2004.42684113 -320.10939255 2004.42684113 -319.98587036 2003.12078857 C-319.81313886 2001.29559305 -319.63832868 1999.4705932 -319.46157837 1997.64578247 C-318.99094418 1992.78060613 -318.53696667 1987.91390355 -318.0859375 1983.046875 C-317.99377457 1982.05261002 -317.90161163 1981.05834503 -317.80665588 1980.03395081 C-316.69130336 1967.84549319 -315.80871281 1955.63987729 -314.9519043 1943.4309082 C-314.86584427 1942.22751801 -314.86584427 1942.22751801 -314.77804565 1940.99981689 C-314.671987 1939.5138956 -314.56860303 1938.02777971 -314.46853638 1936.54144287 C-314.21135083 1932.94654946 -313.70905766 1929.52737747 -313 1926 C-312.8005181 1923.69401001 -312.6375469 1921.38473032 -312.5 1919.07421875 C-312.45939453 1918.40896683 -312.41878906 1917.7437149 -312.37695312 1917.05830383 C-312.24806284 1914.93488289 -312.12391372 1912.81121658 -312 1910.6875 C-311.91698779 1909.30401715 -311.83365694 1907.92055339 -311.75 1906.53710938 C-311.40974929 1900.89182186 -311.07035742 1895.24655366 -310.75 1889.60009766 C-310.66674713 1888.17740414 -310.58341651 1886.75471518 -310.5 1885.33203125 C-310.4278125 1884.06721924 -310.355625 1882.80240723 -310.28125 1881.49926758 C-310.02246164 1878.27946414 -309.54620716 1875.18072441 -309 1872 C-308.87663007 1870.4539013 -308.78141316 1868.9052154 -308.71875 1867.35546875 C-308.68136719 1866.51306641 -308.64398438 1865.67066406 -308.60546875 1864.80273438 C-308.57066406 1863.93970703 -308.53585937 1863.07667969 -308.5 1862.1875 C-308.26799645 1856.51200583 -307.90702375 1850.91142636 -307.23632812 1845.27075195 C-306.8117166 1841.19088442 -306.67018457 1837.09703595 -306.5 1833 C-306.42989889 1831.31238069 -306.35699904 1829.62487523 -306.28125 1827.9375 C-306.25095703 1827.20402344 -306.22066406 1826.47054687 -306.18945312 1825.71484375 C-306.02950539 1823.42280926 -305.79282288 1821.16856084 -305.52294922 1818.88793945 C-304.91553351 1813.55324197 -304.62597628 1808.21615477 -304.3515625 1802.85546875 C-304.23371765 1800.65217697 -304.11579441 1798.44888939 -303.99780273 1796.24560547 C-303.93712616 1795.09558044 -303.87644958 1793.94555542 -303.81393433 1792.76068115 C-302.83712674 1774.28701091 -301.75920805 1755.82719735 -300.4375 1737.375 C-299.22199737 1720.38375837 -298.34173258 1703.39093825 -297.64624023 1686.37060547 C-297.60950699 1685.48888168 -297.57277374 1684.6071579 -297.53492737 1683.69871521 C-297.4678813 1682.07647654 -297.40320296 1680.45413704 -297.34165955 1678.8316803 C-297.17706543 1674.82688382 -296.90611141 1670.85273887 -296.51721191 1666.86314392 C-296.01740697 1661.44482402 -295.70828753 1656.03563941 -295.47509766 1650.60009766 C-295.43094601 1649.61847027 -295.38679436 1648.63684288 -295.34130478 1647.62546921 C-295.19639255 1644.38843932 -295.0551668 1641.15126044 -294.9140625 1637.9140625 C-294.81167184 1635.60583719 -294.70909809 1633.29762 -294.60635376 1630.9894104 C-294.33229014 1624.81345848 -294.06179563 1618.63735554 -293.79243469 1612.4611969 C-293.62469209 1608.61794528 -293.45618521 1604.77472784 -293.28747559 1600.93151855 C-289.63017188 1521.89209368 -289.63017188 1521.89209368 -287.35697937 1442.80509949 C-287.12568554 1430.10771619 -286.71410475 1417.42260613 -286.24835587 1404.73192024 C-285.24510742 1377.06725634 -284.51783852 1349.39723566 -283.8515625 1321.72265625 C-283.82711099 1320.70727767 -283.80265948 1319.6918991 -283.77746701 1318.64575148 C-283.4686011 1305.80100682 -283.16471425 1292.95614605 -282.86221749 1280.11125004 C-282.59505759 1268.77461379 -282.32400033 1257.43807159 -282.05257607 1246.10153675 C-281.60874884 1227.56394638 -281.16636555 1209.02632208 -280.7255497 1190.48865986 C-279.86918635 1154.47605023 -279.00956327 1118.46352016 -278.13811684 1082.45127201 C-277.90281561 1072.72466071 -277.66915283 1062.99801314 -277.43787754 1053.27130526 C-277.28124312 1046.68846881 -277.122844 1040.10567634 -276.96305668 1033.52291566 C-276.87224234 1029.77933134 -276.78217527 1026.03573352 -276.69433975 1022.29207802 C-276.35937409 1008.03613021 -275.95747248 993.79402083 -275.22589111 979.55230713 C-274.8869849 972.91674874 -274.69064857 966.27808622 -274.5 959.63671875 C-274.45915403 958.26365156 -274.41813314 956.89058956 -274.37695312 955.51753235 C-274.2705115 951.9544634 -274.16621713 948.3913352 -274.0625 944.82818604 C-273.95953217 941.30143742 -273.85472186 937.77474377 -273.75 934.24804688 C-273.72945714 933.55436949 -273.70891428 932.8606921 -273.68774891 932.14599419 C-273.5830162 928.61090428 -273.47759486 925.0758368 -273.37101746 921.540802 C-273.32827462 920.11916228 -273.28557527 918.69752125 -273.24291992 917.27587891 C-273.22192073 916.57614519 -273.20092154 915.87641148 -273.179286 915.15547371 C-273.0459032 910.66689273 -272.92658332 906.17811829 -272.8137207 901.68896484 C-272.17933501 877.63536706 -270.8737576 853.61653074 -269.58081055 829.59082031 C-269.31956029 824.73296902 -269.06272026 819.87491976 -268.81030273 815.01660156 C-267.44854794 788.81827183 -265.93241947 762.64208793 -263.92578125 736.484375 C-263.84404348 735.40973244 -263.76230572 734.33508987 -263.67809105 733.22788239 C-262.72377087 720.77781844 -261.55011859 708.3895721 -260 696 C-259.78927911 694.18412515 -259.58128463 692.3679293 -259.37744141 690.55126953 C-259.29023834 689.77774643 -259.20303528 689.00422333 -259.1131897 688.20726013 C-259.02685272 687.44019241 -258.94051575 686.67312469 -258.8515625 685.8828125 C-255.0472244 652.35375767 -255.0472244 652.35375767 -252.5222168 636.11474609 C-251.5097114 629.56670368 -250.59254348 623.012617 -249.74609375 616.44140625 C-249.63762115 615.60139572 -249.52914856 614.76138519 -249.41738892 613.8959198 C-248.88343975 609.74946847 -248.35642137 605.60226369 -247.83789062 601.45385742 C-246.79232057 593.21471574 -245.47104161 585.13761441 -243.76635742 577.00341797 C-242.83799143 572.3603407 -242.19993867 567.68158425 -241.5546875 562.9921875 C-239.98772242 551.65858729 -238.11111647 540.3921394 -236.125 529.125 C-235.93802551 528.06082855 -235.75105103 526.9966571 -235.55841064 525.90023804 C-230.36117192 496.469476 -224.20867882 467.23097047 -218 438 C-217.80108154 437.06273071 -217.60216309 436.12546143 -217.3972168 435.15979004 C-213.19351973 415.37917448 -208.66598248 395.67630673 -204 376 C-203.77022461 375.02836914 -203.54044922 374.05673828 -203.30371094 373.05566406 C-201.73800295 366.44515627 -200.14473462 359.84151009 -198.54284668 353.23968506 C-197.91054727 350.63093459 -197.28000001 348.02176282 -196.64941406 345.41259766 C-195.35011678 340.03902064 -194.04552698 334.66674534 -192.7383728 329.29507446 C-192.2117974 327.1285567 -191.68655099 324.96171541 -191.16275024 322.79452515 C-188.38258585 311.29854929 -185.47951506 299.88538098 -182.06079102 288.56201172 C-180.72983103 284.09280432 -179.58357152 279.59675427 -178.5 275.0625 C-176.37774428 266.39325382 -174.04809419 257.79710218 -171.62060547 249.20898438 C-171.00026894 247.00095726 -170.39088979 244.79019947 -169.78515625 242.578125 C-165.82851224 228.14549289 -161.55246318 213.81827268 -157 199.5625 C-154.94169279 193.11451049 -153.0188341 186.64092422 -151.1875 180.125 C-147.38973647 166.66792811 -143.2504928 153.3203245 -139 140 C-138.67273926 138.96520508 -138.34547852 137.93041016 -138.00830078 136.86425781 C-126.00002844 99.25203309 -105.69203366 62.76370961 -81 32 C-80.15449947 30.9287392 -79.30941443 29.85715028 -78.46484375 28.78515625 C-60.05409969 5.76383135 -30.04389088 -17.18229211 0 0 Z " fill="#FEFEFE" transform="translate(607,257)"/>
<path d="M0 0 C321.09 0 642.18 0 973 0 C973 1219.02 973 2438.04 973 3694 C651.91 3694 330.82 3694 0 3694 C0 2474.98 0 1255.96 0 0 Z M3 3 C3 1029.3 3 2055.6 3 3113 C3.33 3113 3.66 3113 4 3113 C4.04487549 3112.22736816 4.08975098 3111.45473633 4.13598633 3110.65869141 C5.66375999 3084.88631035 8.00386678 3059.36594005 13 3034 C13.20463867 3032.9579541 13.40927734 3031.9159082 13.62011719 3030.84228516 C17.22975606 3012.82916201 22.22033339 2995.42347357 28 2978 C28.29432922 2977.11054688 28.58865845 2976.22109375 28.89190674 2975.3046875 C39.84202141 2942.24731383 51.49935006 2909.46756073 63.51074219 2876.78271484 C65.9596211 2870.1161363 68.39184624 2863.4435681 70.8203125 2856.76953125 C78.54723602 2835.54414986 86.342186 2814.34617288 94.25 2793.1875 C104.88842401 2764.72112069 115.30376408 2736.17418585 125.6862793 2707.6137085 C126.92391644 2704.20928635 128.16212681 2700.80507315 129.40039062 2697.40087891 C153.41136741 2631.36625709 177.09783343 2565.15803863 198.03961182 2498.07580566 C199.02109824 2494.93242932 200.00532209 2491.78991841 200.98974609 2488.64746094 C214.28015116 2446.16999227 226.71244372 2403.46767835 238.33281326 2360.50418472 C238.85944291 2358.55750655 239.38696798 2356.61107068 239.91452026 2354.66464233 C241.7812703 2347.76504018 243.62059369 2340.85916211 245.42525864 2333.94304943 C246.49684467 2329.85516868 247.61675027 2325.78335922 248.76256084 2321.71570587 C255.16448027 2298.87096852 258.11993807 2276.51896639 259.84743118 2252.89049911 C260.22051995 2247.87623086 260.62850006 2242.86475966 261.03100586 2237.8527832 C261.80047944 2228.19795013 262.53573367 2218.54082046 263.25739956 2208.88230801 C263.82916561 2201.239999 264.41567071 2193.598948 265.01171875 2185.95849609 C272.72655834 2086.97137116 278.89887499 1987.87428675 283.86408997 1888.71192169 C283.99855007 1886.02893154 284.13367636 1883.34597561 284.2689209 1880.6630249 C288.97223096 1787.19313046 291.67347175 1693.65469207 297.48423576 1461.23281384 C302.58972338 1252.76434099 302.58972338 1252.76434099 314 1005 C314.0754303 1003.97169067 314.1508606 1002.94338135 314.22857666 1001.88391113 C322.7696884 886.42116667 342.44260211 771.4508747 377 619 C377.29801514 617.74630615 377.59603027 616.4926123 377.90307617 615.20092773 C395.04741684 543.08984261 414.72119791 471.69471135 437 401 C437.32891235 399.95503357 437.65782471 398.91006714 437.9967041 397.83343506 C443.6867558 379.7946102 449.45570182 361.92882493 458 345 C458.44279297 344.10635742 458.88558594 343.21271484 459.34179688 342.29199219 C466.4418298 328.01888072 474.37453924 314.40010923 483 301 C483.3810791 300.40155273 483.7621582 299.80310547 484.15478516 299.18652344 C503.49355694 268.8696923 530.92696627 232.88392004 567.9375 224.3203125 C588.50699213 220.56638019 609.1269359 222.70863756 627 234 C643.63652689 246.10721067 651.33438846 265.34257219 655 285 C655.89711365 291.39444476 656.14027394 297.67993727 656.11523438 304.13037109 C656.1152092 305.15481953 656.11518402 306.17926796 656.11515808 307.23476028 C656.11329527 310.78934559 656.10357872 314.34386576 656.09375 317.8984375 C656.09089846 319.88665653 656.08805685 321.87487561 656.08559561 323.86309516 C656.03536949 362.67493662 655.82785123 401.48678292 655.66176438 440.29825485 C655.3208393 519.97999268 654.98755147 599.66213706 655.42195606 957.58057356 C655.43724542 960.75956751 655.45233199 963.93856237 655.46736908 967.11755753 C655.84086904 1045.78165058 656.35624222 1124.45251459 657.8755722 1203.10406494 C657.94032947 1206.45909306 658.00405911 1209.81413975 658.06768799 1213.16918945 C659.88083238 1308.34817069 664.50235418 1403.18149614 724.81803942 2115.04773617 C725.12179963 2118.27846161 725.4254426 2121.50919806 725.72906113 2124.73993683 C726.22015883 2129.9651327 726.71163884 2135.1902925 727.20337677 2140.41542816 C727.39589237 2142.46147271 727.58831258 2144.50752623 727.78063583 2146.55358887 C728.80082924 2157.40565567 729.8290691 2168.25683362 730.88076782 2179.105896 C731.24566085 2182.87767582 731.60995072 2186.64951349 731.97387695 2190.42138672 C732.06245531 2191.33803919 732.15103367 2192.25469166 732.24229622 2193.19912148 C733.4074933 2205.29388676 734.45287337 2217.39221875 735.39135349 2229.50657523 C738.0850576 2264.04372462 742.78896635 2295.80381044 755.03503418 2328.4800415 C756.77703853 2333.17633374 758.43100302 2337.90341804 760.09179688 2342.62890625 C762.0820097 2348.27477122 764.07977719 2353.91737675 766.11758423 2359.54626465 C770.60094494 2371.93427001 774.8334173 2384.38175737 778.87109375 2396.921875 C779.15138994 2397.79205513 779.43168613 2398.66223526 779.72047615 2399.55878448 C780.14405309 2400.87404743 780.14405309 2400.87404743 780.57618713 2402.21588135 C781.15676973 2404.01861473 781.73741316 2405.82132853 782.31811523 2407.62402344 C782.61060056 2408.53236561 782.90308588 2409.44070778 783.20443439 2410.37657547 C786.97138184 2422.0488893 790.86361405 2433.67953504 794.75 2445.3125 C795.51254333 2447.59665405 796.27507075 2449.88081341 797.0375824 2452.16497803 C799.3568334 2459.11050528 801.67822172 2466.05531723 804 2473 C807.08531627 2482.22850511 810.16938513 2491.45742429 813.25 2500.6875 C813.6271666 2501.8174791 814.00433319 2502.94745819 814.39292908 2504.11167908 C819.62095431 2519.78213445 824.77841871 2535.47385149 829.87229919 2551.18836975 C834.68684154 2566.03511769 839.5894605 2580.85139023 844.53125 2595.65625 C844.89727325 2596.75287964 845.26329651 2597.84950928 845.64041138 2598.97937012 C848.2581043 2606.82030565 850.87873056 2614.66025952 853.5 2622.5 C856.49157352 2631.44725269 859.48185623 2640.39493383 862.46875 2649.34375 C862.83806326 2650.45010677 863.20737652 2651.55646355 863.58788109 2652.69634628 C867.98963134 2665.88903041 872.34832743 2679.0941077 876.62911034 2692.32651901 C883.1973348 2712.62917862 889.9440044 2732.87071335 896.71362257 2753.10688114 C897.86202624 2756.54010609 899.0098769 2759.97351582 900.15773261 2763.40692401 C905.19897205 2778.4857047 910.24168443 2793.56398899 915.29516602 2808.63867188 C917.95998232 2816.58800021 920.62020494 2824.5388513 923.27566463 2832.49131024 C924.66364585 2836.64736858 926.053647 2840.80272031 927.44949913 2844.95614243 C941.31666733 2886.22845674 954.03533712 2927.97802733 963.5 2970.5 C963.66607758 2971.24331573 963.83215515 2971.98663147 964.00326538 2972.75247192 C966.01004242 2981.78857905 967.72573163 2990.82685069 969 3000 C969.33 3000 969.66 3000 970 3000 C970 2010.99 970 1021.98 970 3 C650.89 3 331.78 3 3 3 Z M532 281 C529.80526133 283.62196514 527.73591964 286.32527598 525.6875 289.0625 C525.12409912 289.81072021 524.56069824 290.55894043 523.98022461 291.32983398 C522.84207898 292.84644732 521.70700793 294.3653734 520.57519531 295.88671875 C519.20478811 297.72525638 517.81960188 299.55122037 516.4296875 301.375 C504.96586527 316.8114339 495.94096952 333.92551114 487.0625 350.9375 C486.46026611 352.08420166 485.85803223 353.23090332 485.23754883 354.41235352 C477.55178314 369.33841029 471.8768632 384.76955889 466.8125 400.75 C466.30075115 402.34525141 465.7883824 403.9403041 465.27539062 405.53515625 C459.33503286 424.04449777 453.75437063 442.64237982 448.5625 461.375 C446.51576779 468.75957008 444.37864211 476.09070768 442 483.375 C439.12691521 492.20429209 436.82731412 501.15983371 434.53955078 510.15600586 C432.93348743 516.45585846 431.26193655 522.71603507 429.375 528.9375 C427.32161234 535.71969899 425.55082859 542.55243491 423.87451172 549.43725586 C422.71883011 554.17614875 421.50228419 558.89421493 420.23828125 563.60546875 C417.33061731 574.44580133 414.53435664 585.31493568 411.75 596.1875 C411.46342529 597.30650696 411.17685059 598.42551392 410.8815918 599.57843018 C406.36298086 617.26582537 402.17571136 634.99494668 398.3581543 652.84555054 C397.42131437 657.18278954 396.4007154 661.49402588 395.34429932 665.80357361 C391.53446417 681.40214735 388.41013778 697.14336751 385.23997498 712.88137817 C384.74513442 715.33664169 384.24900778 717.79164232 383.75256348 720.24658203 C379.62998089 740.64138602 375.57405642 761.04676711 371.75 781.5 C371.57368042 782.44195221 371.39736084 783.38390442 371.21569824 784.35440063 C368.3615762 799.65061557 365.66600606 814.96303173 363.51855469 830.37597656 C362.9263687 834.51458713 362.28426299 838.64381858 361.6328125 842.7734375 C358.94335501 859.86901399 356.39650935 876.95723626 354.32861328 894.13989258 C353.48640794 901.13337841 352.56503453 908.09986372 351.5 915.0625 C349.65749658 927.23759893 348.56005093 939.51068191 347.35742188 951.76196289 C347.2748111 952.59623306 347.19220032 953.43050323 347.10708618 954.29005432 C346.95125579 955.8676562 346.79762619 957.44547758 346.64657593 959.02354431 C346.10125492 964.54648848 346.10125492 964.54648848 345.52685547 967.11917114 C344.75179407 971.35718211 344.46969612 975.61504436 344.13720703 979.90771484 C344.05833126 980.90254505 343.97945549 981.89737526 343.89818954 982.92235184 C343.63855436 986.22654749 343.38493296 989.53116029 343.1328125 992.8359375 C343.04468418 993.98373058 342.95655586 995.13152367 342.86575699 996.31409836 C340.890041 1022.19922915 339.41332913 1048.10525651 338.06277084 1074.0295105 C337.87137111 1077.69448709 337.67773032 1081.35933962 337.48355103 1085.02416992 C335.5975656 1120.67338112 333.89161124 1156.31027264 333 1192 C332.94997918 1193.9474312 332.89984874 1195.89485958 332.84960938 1197.84228516 C332.57814829 1208.36996136 332.57814829 1208.36996136 332.34057617 1218.8984375 C332.19811045 1225.56588551 332.00565513 1232.2233459 331.65883505 1238.88364297 C330.95589575 1252.43329069 330.61535146 1265.98695654 330.29150391 1279.55004883 C330.22746765 1282.15644332 330.1632166 1284.76283254 330.09877014 1287.36921692 C329.96080792 1292.96215438 329.82459107 1298.55513207 329.68959427 1304.14814186 C329.49125738 1312.36488454 329.29006609 1320.58155561 329.08826749 1328.79821392 C328.75651884 1342.30887134 328.42687955 1355.81957935 328.09863281 1369.33032227 C327.65439433 1387.61499728 327.20779168 1405.89961389 326.76040488 1424.18421212 C326.66488243 1428.08846446 326.56939371 1431.99271762 326.47390366 1435.89697075 C326.34056199 1441.34876386 326.20721023 1446.80055672 326.07384352 1452.25234922 C325.90301133 1459.2356871 325.73221399 1466.21902584 325.56147003 1473.20236588 C325.09612094 1492.23468497 324.63039739 1511.26699484 324.16412552 1530.29929135 C324.0546993 1534.7661287 323.94534136 1539.23296771 323.83603937 1543.69980809 C323.43540657 1560.07215294 323.03365335 1576.44446898 322.6281966 1592.81669515 C322.46790123 1599.29083389 322.30814402 1605.76498454 322.14998245 1612.2391758 C322.00437438 1618.19854592 321.85704314 1624.15787104 321.70842218 1630.11716676 C321.65533795 1632.25685447 321.60283429 1634.39655671 321.55102301 1636.53627563 C321.2207501 1650.15656788 320.76381139 1663.76778932 320.21644306 1677.38112068 C319.95136344 1684.05912745 319.7944544 1690.73576442 319.67578125 1697.41796875 C319.62019609 1700.09801241 319.56372495 1702.77801935 319.50561523 1705.45800781 C319.49048008 1706.15731132 319.47534492 1706.85661482 319.45975113 1707.57710934 C318.25539739 1762.63116238 315.52488159 1817.6350966 312.97695923 1872.63978577 C312.86209742 1875.12280991 312.74729877 1877.60583697 312.63256836 1880.08886719 C312.57803151 1881.26896016 312.52349466 1882.44905313 312.46730518 1883.6649065 C312.05968446 1892.54903449 311.68157002 1901.43419416 311.32813931 1910.32064438 C311.04423916 1917.35267266 310.60783498 1924.35809846 310.0625 1931.375 C309.27787278 1942.07769239 308.70928354 1952.77434357 308.23797607 1963.49432373 C307.29307262 1984.97390383 305.90050289 2006.41608563 304.40869141 2027.86352539 C303.57931835 2039.85539622 302.78867244 2051.83752827 302.3447113 2063.85089111 C302.1587696 2068.6111635 301.78730078 2073.30064503 301.22496033 2078.03131104 C300.96201601 2080.3324082 300.81431251 2082.62366742 300.71875 2084.9375 C300.68136719 2085.77023437 300.64398438 2086.60296875 300.60546875 2087.4609375 C300.57066406 2088.29882812 300.53585937 2089.13671875 300.5 2090 C300.29853821 2094.85000617 300.07336966 2099.66613621 299.5 2104.48828125 C298.81670005 2110.24445062 298.6279775 2116.01413203 298.39453125 2121.80273438 C298.35714844 2122.64513672 298.31976563 2123.48753906 298.28125 2124.35546875 C298.23581055 2125.47924927 298.23581055 2125.47924927 298.18945312 2126.62573242 C297.96383026 2129.45328697 297.46812341 2132.20282911 297 2135 C296.80936969 2136.91573536 296.64345597 2138.83406191 296.5 2140.75390625 C296.41806396 2141.84622559 296.33612793 2142.93854492 296.25170898 2144.06396484 C296.16864502 2145.21848145 296.08558105 2146.37299805 296 2147.5625 C295.91242432 2148.75311035 295.82484863 2149.9437207 295.73461914 2151.17041016 C295.13052342 2159.59622247 294.65395244 2168.0213972 294.34179688 2176.46313477 C294.29442383 2177.65314087 294.29442383 2177.65314087 294.24609375 2178.8671875 C294.22216553 2179.54894043 294.1982373 2180.23069336 294.17358398 2180.93310547 C294 2183 294 2183 293.51622009 2185.32710266 C293.02914601 2187.84908708 292.75441791 2190.27351208 292.56689453 2192.83325195 C292.49646942 2193.77174988 292.42604431 2194.7102478 292.35348511 2195.67718506 C292.28066315 2196.6873468 292.20784119 2197.69750854 292.1328125 2198.73828125 C291.96909187 2200.92846802 291.80535422 2203.11865352 291.64160156 2205.30883789 C291.55720825 2206.45337433 291.47281494 2207.59791077 291.38586426 2208.77713013 C290.06820092 2226.63479803 288.70827297 2244.48030265 286.86376953 2262.29223633 C286.74888184 2263.4345874 286.63399414 2264.57693848 286.515625 2265.75390625 C286.41540039 2266.70595947 286.31517578 2267.6580127 286.21191406 2268.63891602 C285.91066052 2273.41697766 286 2278.21245086 286 2283 C426.58 2283 567.16 2283 712 2283 C709.04858935 2250.31503914 709.04858935 2250.31503914 705.97144699 2217.64246178 C705.69218101 2214.7553072 705.41452233 2211.86800089 705.13711548 2208.98066711 C704.55100388 2202.88282304 703.96313155 2196.78514953 703.375 2190.6875 C702.58983643 2182.54569862 701.80551066 2174.40381762 701.0234375 2166.26171875 C700.93047646 2165.29403942 700.83751541 2164.32636009 700.74173737 2163.32935715 C699.66587749 2152.11719857 698.61252469 2140.9044398 697.66061401 2129.68095398 C697.09349989 2123.00225297 696.47704946 2116.32899072 695.84375 2109.65625 C695.73935104 2108.55587402 695.63495209 2107.45549805 695.52738953 2106.32177734 C695.30406848 2103.96966879 695.08067172 2101.61756743 694.85720825 2099.26547241 C691.58887618 2064.81270104 688.49843111 2030.34413154 685.40658569 1995.87515259 C682.9023651 1967.96130954 680.37102927 1940.05079574 677.73406982 1912.14916992 C674.35542936 1876.39749443 671.26855714 1840.62386003 668.25294495 1804.83988953 C667.03247385 1790.35945261 665.79425136 1775.88057868 664.54986382 1761.40217972 C664.11968008 1756.39630846 663.69085094 1751.39032245 663.26269531 1746.38427734 C662.18306368 1733.7645624 661.10135101 1721.1450604 660.00223446 1708.52702522 C659.22663534 1699.6225303 658.45512322 1690.7176861 657.6875 1681.8125 C657.61690495 1680.99368851 657.54630989 1680.17487701 657.47357559 1679.33125305 C654.20360307 1641.36049778 651.24386416 1603.36540946 648.30692863 1565.36764622 C647.93300424 1560.53065885 647.55821019 1555.69373896 647.18348694 1550.85681343 C646.92777021 1547.54867394 646.67381943 1544.24040253 646.42004395 1540.93211365 C645.58162357 1530.06221963 644.68757779 1519.20081061 643.66291332 1508.34670639 C642.90728005 1500.28233311 642.42101104 1492.21274016 642 1484.125 C641.5670235 1475.8519117 641.06947886 1467.59545276 640.34362793 1459.34222412 C638.66187568 1440.21321649 637.61138765 1421.04379469 636.5 1401.875 C636.44481075 1400.92579304 636.38962151 1399.97658607 636.33275986 1398.99861526 C635.53838262 1385.33334627 634.7595277 1371.66725079 634 1358 C633.93041077 1356.74890442 633.86082153 1355.49780884 633.78912354 1354.20880127 C630.42806055 1293.18099921 630.00416904 1231.94609146 629.00097656 1170.8467598 C628.94008282 1167.15652213 628.87802814 1163.46630577 628.81567383 1159.77609253 C628.51252954 1141.70256508 628.26357494 1123.62847981 628.03268632 1105.55391268 C628.01095346 1103.85583781 627.98910756 1102.15776438 627.96714678 1100.45969243 C626.92579472 1019.93684651 626.92136161 939.42466096 627.03892432 858.8970093 C627.07408125 834.80047834 627.09774932 810.70395113 627.11607244 786.6074018 C627.11987773 781.62290014 627.12379371 776.63839857 627.12770009 771.65389699 C627.12926977 769.64792952 627.13083903 767.64196205 627.13240789 765.63599459 C627.13318658 764.64063035 627.13396526 763.64526612 627.13476755 762.61973933 C627.13713053 759.59411151 627.13948209 756.56848368 627.14183249 753.54285586 C627.15935434 731.04215963 627.17851337 708.54146501 627.19921875 686.04077148 C627.20062377 684.50650273 627.20062377 684.50650273 627.20205718 682.94123865 C627.23275828 649.52555866 627.27707737 616.10991036 627.32695303 582.69425408 C627.37850113 548.09454217 627.41340719 513.49484879 627.42848294 478.895101 C627.43062316 474.01616559 627.4329687 469.1372303 627.43544769 464.25829506 C627.43593131 463.2986242 627.43641492 462.33895335 627.43691319 461.35020156 C627.44518655 445.96102469 627.47119059 430.5719273 627.50419896 415.18278571 C627.53691753 399.77492056 627.55168439 384.367123 627.54799369 368.95922276 C627.54636762 359.82351406 627.55868275 350.68807349 627.59112451 341.55242092 C627.61142772 335.44751963 627.61344805 329.34278611 627.6008349 323.23786463 C627.59417857 319.76507054 627.595242 316.292778 627.61873713 312.82004585 C627.7279127 293.42741849 627.11212255 277.19623206 613.4375 262.1875 C612.633125 261.465625 611.82875 260.74375 611 260 C610.29875 259.319375 609.5975 258.63875 608.875 257.9375 C581.23170805 239.30832499 551.00985495 260.53284 532 281 Z M717 2304 C717 2306.64 717 2309.28 717 2312 C573.12 2312 429.24 2312 281 2312 C278.65565405 2318.84684278 278.65565405 2318.84684278 276.82421875 2325.734375 C276.5466272 2326.95036377 276.5466272 2326.95036377 276.26342773 2328.19091797 C276.07337158 2329.03541504 275.88331543 2329.87991211 275.6875 2330.75 C273.55218385 2339.98188403 271.04662382 2349.06804423 268.3984375 2358.1640625 C267.22977989 2362.17869006 266.12576497 2366.20595801 265.0625 2370.25 C263.27346528 2377.03934935 261.39448482 2383.80184839 259.5 2390.5625 C259.21519775 2391.57924805 258.93039551 2392.59599609 258.63696289 2393.64355469 C255.14124335 2406.09449983 251.57331298 2418.52304841 247.91015625 2430.92578125 C247.72228043 2431.5620985 247.5344046 2432.19841576 247.34083557 2432.85401535 C245.91732051 2437.67428027 244.49050418 2442.49356331 243.0625 2447.3125 C242.85293041 2448.02000523 242.64336082 2448.72751045 242.42744064 2449.45645523 C235.65567434 2472.31277998 228.69821075 2495.09867741 221.34594727 2517.77612305 C220.23925998 2521.21499225 219.18210374 2524.6678887 218.12744141 2528.12304688 C215.9793023 2535.12113129 213.70188624 2542.07254723 211.39453125 2549.01953125 C210.9538922 2550.3484342 210.51326968 2551.67734263 210.07266235 2553.0062561 C208.6558593 2557.27608814 207.23466017 2561.54444974 205.8125 2565.8125 C205.56821888 2566.5459325 205.32393776 2567.27936501 205.07225418 2568.03502274 C197.06622246 2592.06670874 188.83976237 2616.00705726 180.2792511 2639.84768677 C177.50404422 2647.57823607 174.75809931 2655.31890333 172.01953125 2663.0625 C160.79814146 2694.76909302 149.30746458 2726.36747882 137.625 2757.90722656 C133.23401346 2769.76558558 128.86896092 2781.63351336 124.5 2793.5 C122.74895234 2798.25530207 120.99764184 2803.01050724 119.24609375 2807.765625 C118.8127623 2808.94206573 118.37943085 2810.11850647 117.93296814 2811.33059692 C114.8890985 2819.59219006 111.83822491 2827.85117769 108.78515625 2836.109375 C92.94870337 2878.9597222 77.23639481 2921.85970494 62.21469116 2965.00375366 C61.46519245 2967.15608844 60.71400105 2969.30783478 59.96084595 2971.45889282 C53.36949609 2990.31055758 47.21248891 3009.37714117 42.8125 3028.875 C42.57039795 3029.94121582 42.3282959 3031.00743164 42.07885742 3032.10595703 C39.691572 3042.92525191 37.90398469 3053.80316478 36.43798828 3064.78271484 C36.02225955 3067.83649035 35.55774145 3070.87965115 35.08984375 3073.92578125 C32.75045271 3090.53677936 32.70811693 3107.12694713 32.6875 3123.875 C32.68391479 3125.04928558 32.68032959 3126.22357117 32.67663574 3127.43344116 C32.62681634 3157.79915916 33.41584882 3191.86790894 46 3220 C46.41668945 3220.94681641 46.83337891 3221.89363281 47.26269531 3222.86914062 C53.31705303 3236.46296681 59.88891183 3249.20579793 69 3261 C69.58910156 3261.79019531 70.17820313 3262.58039062 70.78515625 3263.39453125 C81.54176861 3276.79404591 98.85438967 3285.73152291 113 3295 C114.21671387 3295.80002441 114.21671387 3295.80002441 115.45800781 3296.61621094 C189.17742946 3345.0438537 269.80444416 3383.81769513 374.25 3420.375 C375.53094543 3420.81804977 375.53094543 3420.81804977 376.83776855 3421.27005005 C387.13091824 3424.82305767 397.44328302 3428.0739824 407.96337891 3430.88891602 C412.05869362 3431.99294117 416.08692728 3433.26491946 420.125 3434.5625 C445.47514588 3442.57273538 472.64305249 3446.58600349 499 3441 C500.17175781 3440.75507813 501.34351563 3440.51015625 502.55078125 3440.2578125 C506.74134099 3439.29043099 510.86793912 3438.18964955 515 3437 C515.85287598 3436.75572266 516.70575195 3436.51144531 517.58447266 3436.25976562 C535.33811552 3431.0475712 551.60477218 3423.44305145 568 3415 C568.74427246 3414.61875977 569.48854492 3414.23751953 570.25537109 3413.84472656 C585.74014895 3405.79378637 600.23858513 3395.27227368 614.28686523 3384.97363281 C618.78605643 3381.70075766 623.36304465 3378.54138019 627.9375 3375.375 C629.96107317 3373.9702475 631.98450814 3372.5652959 634.0078125 3371.16015625 C635.01231445 3370.46293457 636.01681641 3369.76571289 637.05175781 3369.04736328 C648.57782216 3361.04325798 660.0643643 3352.99343294 671.4230957 3344.75317383 C676.42165981 3341.12953184 681.44951665 3337.55086572 686.5 3334 C694.62540996 3328.2841749 702.68083634 3322.47478308 710.72509766 3316.64550781 C713.00506379 3314.9963372 715.28898234 3313.35279572 717.57421875 3311.7109375 C725.4037231 3306.08201363 733.18576765 3300.40064045 740.88452148 3294.59399414 C746.12210088 3290.6462229 751.40016485 3286.75580032 756.6875 3282.875 C764.20627576 3277.34991301 771.63042641 3271.72236916 779 3266 C781.08244105 3264.39467519 783.1657963 3262.79053569 785.25 3261.1875 C786.04289429 3260.57660522 786.04289429 3260.57660522 786.85180664 3259.95336914 C789.90436572 3257.60332922 792.9653954 3255.26503316 796.03515625 3252.9375 C803.8601158 3246.99687799 811.58662983 3240.96406036 819.1862793 3234.73730469 C823.45385707 3231.24301095 827.76920916 3227.82092333 832.125 3224.4375 C841.94241276 3216.78329326 851.3220663 3208.61208142 860.5234375 3200.23046875 C861.91623257 3198.97607446 863.31536675 3197.72837381 864.7355957 3196.50512695 C877.30167548 3185.6732693 889.87155573 3173.93700378 899 3160 C899.63292969 3159.04996094 900.26585937 3158.09992187 900.91796875 3157.12109375 C934.73115324 3104.27533835 949.67886989 3039.23367694 936.50860596 2977.70428467 C932.62132906 2960.03287933 928.12229703 2942.53601262 922.64453125 2925.2890625 C921.25351444 2920.8923837 920.02654891 2916.46836373 918.83764648 2912.01342773 C912.85672583 2889.72672782 905.25912377 2867.89408039 898 2846 C897.54992584 2844.64201294 897.54992584 2844.64201294 897.09075928 2843.2565918 C892.64457019 2829.84569059 888.17278627 2816.44338368 883.66015625 2803.0546875 C880.60853141 2793.98359936 877.62120499 2784.92391531 875.00219727 2775.71801758 C873.03656548 2768.91166288 870.76193286 2762.21262518 868.5 2755.5 C865.51972984 2746.6511995 862.67937499 2737.7937245 860.1015625 2728.8203125 C856.956861 2717.91422006 853.39101865 2707.19266709 849.58862305 2696.49951172 C847.46049615 2690.4596849 845.59363855 2684.38132808 843.84375 2678.22290039 C842.41161684 2673.24261052 840.7637273 2668.37199007 839 2663.5 C837.03321334 2658.06474176 835.25830447 2652.62486926 833.6875 2647.0625 C831.27429862 2638.54341326 828.35938661 2630.21320683 825.38549805 2621.87524414 C823.32112866 2616.03266344 821.43968842 2610.16584518 819.73071289 2604.21020508 C817.05845726 2595.02367712 814.0705895 2585.95582527 811.02734375 2576.88671875 C810.45762206 2575.18130823 809.88817608 2573.47580558 809.31898499 2571.7702179 C807.82865074 2567.30677109 806.33473552 2562.84453141 804.83996582 2558.38256836 C803.36061632 2553.9647301 801.88450295 2549.54581122 800.40820312 2545.12695312 C798.36389087 2539.00888345 796.31862304 2532.89113492 794.27202511 2526.77382946 C790.75630376 2516.26520576 787.24630625 2505.75468579 783.7421875 2495.2421875 C783.49510292 2494.50094383 783.24801834 2493.75970016 782.99344635 2492.99599457 C779.64755538 2482.95708301 776.31129921 2472.91501166 772.98046875 2462.87109375 C764.1322142 2436.20198065 755.16794799 2409.58302651 745.83505249 2383.07885742 C743.39428221 2376.14080897 740.98243147 2369.19294798 738.578125 2362.2421875 C738.20169357 2361.15437485 737.82526215 2360.06656219 737.43742371 2358.94578552 C735.96014645 2354.67596275 734.48310412 2350.40606165 733.00894165 2346.13516235 C728.1425049 2332.03905184 723.14011793 2317.99871535 718 2304 C717.67 2304 717.34 2304 717 2304 Z M969 3046 C968.91548584 3046.64098633 968.83097168 3047.28197266 968.74389648 3047.94238281 C959.71225822 3114.82500592 933.53679378 3177.04260924 881 3221 C879.38898472 3222.37794825 877.78159087 3223.76006439 876.17407227 3225.14208984 C874.35542301 3226.70431671 872.53343872 3228.26258201 870.7109375 3229.8203125 C868.2917862 3231.88970698 865.88061267 3233.96777307 863.4765625 3236.0546875 C856.062149 3242.47857032 848.4914821 3248.64203617 840.73681641 3254.64990234 C838.44897084 3256.42833726 836.17588761 3258.22513645 833.90209961 3260.02148438 C825.98984563 3266.26746701 817.98190213 3272.38562298 809.96630859 3278.49804688 C807.22128771 3280.59481475 804.48552249 3282.703352 801.75 3284.8125 C799.50056251 3286.54240449 797.25054832 3288.27154221 795 3290 C793.8555542 3290.87978516 793.8555542 3290.87978516 792.68798828 3291.77734375 C782.056803 3299.94222547 771.35610975 3307.9799523 760.4609375 3315.7890625 C755.77581868 3319.15035084 751.13625411 3322.57176732 746.5 3326 C738.12246495 3332.18934102 729.69191619 3338.30187819 721.23828125 3344.38671875 C718.97933793 3346.01489256 716.72357339 3347.64737625 714.46875 3349.28125 C705.06288742 3356.09462677 695.60926684 3362.83522923 686.10888672 3369.51611328 C682.56958826 3372.00648791 679.03507087 3374.50362997 675.5 3377 C674.07944064 3378.00262338 672.65886774 3379.00522756 671.23828125 3380.0078125 C668.44325157 3381.98069912 665.64903618 3383.95473097 662.85546875 3385.9296875 C646.36806425 3397.58324074 629.85411022 3409.19527169 613.14746094 3420.53320312 C611.19450921 3421.86714287 609.25555265 3423.21868507 607.3203125 3424.578125 C573.76959624 3447.90377229 534.57211331 3464.61738029 494 3470 C493.33291016 3470.0942627 492.66582031 3470.18852539 491.97851562 3470.28564453 C406.44064131 3481.26261233 303.64949849 3427.74061887 151 3352 C149.28973633 3351.01725098 149.28973633 3351.01725098 147.54492188 3350.01464844 C131.91310253 3341.02648175 116.56877204 3331.73280745 101.56787109 3321.71386719 C99.10987535 3320.07333381 96.64429465 3318.4449636 94.17578125 3316.8203125 C89.76336444 3313.91016404 85.37546268 3310.96537039 81 3308 C79.89785156 3307.2560498 79.89785156 3307.2560498 78.7734375 3306.49707031 C46.90172574 3284.88371874 26.84345595 3254.51225378 15 3218 C14.61457031 3216.86304687 14.22914062 3215.72609375 13.83203125 3214.5546875 C6.33070096 3190.69988235 5.07813051 3164.82537355 4 3140 C3.67 3140 3.34 3140 3 3140 C3 3321.83 3 3503.66 3 3691 C322.11 3691 641.22 3691 970 3691 C970 3478.15 970 3265.3 970 3046 C969.67 3046 969.34 3046 969 3046 Z " fill="#010101" transform="translate(0,0)"/>
<path d="M0 0 C321.09 0 642.18 0 973 0 C973 1219.02 973 2438.04 973 3694 C651.91 3694 330.82 3694 0 3694 C0 2474.98 0 1255.96 0 0 Z M3 3 C3 1220.04 3 2437.08 3 3691 C322.11 3691 641.22 3691 970 3691 C970.41872756 3454.80129372 970.41872756 3454.80129372 970.76951968 3218.60247909 C970.77193414 3216.7366978 970.77434891 3214.87091651 970.77676394 3213.00513522 C970.7779739 3212.06966908 970.77918386 3211.13420295 970.78043049 3210.17038935 C970.78421024 3207.25290881 970.7880078 3204.33542829 970.79181055 3201.41794779 C970.91960548 3103.338973 971.02274667 3005.26001917 971.02250832 2660.46246442 C971.02172729 2657.67336408 971.02095307 2654.88426373 971.020181 2652.09516339 C970.99415571 2558.1441398 970.95722928 2464.19312156 970.91527187 2370.24210386 C970.88859684 2310.50801647 970.86484074 2250.77392863 970.84379461 2191.03983899 C970.84269471 2187.91851522 970.84159332 2184.79719145 970.84049154 2181.67586769 C970.83384322 2162.83724404 970.8272281 2143.99862039 970.82065109 2125.15999672 C970.80434894 2078.4696328 970.78765254 2031.77926902 970.77068233 1985.08890533 C970.77029755 1984.02968378 970.76991276 1982.97046222 970.76951631 1981.87914304 C970.74489372 1914.1084819 970.71866105 1846.33782151 970.69097996 1778.56716156 C970.69054313 1777.49765082 970.6901063 1776.42814008 970.68965623 1775.32621993 C970.67637543 1742.81897289 970.66297004 1710.3117259 970.64953997 1677.80447892 C970.63468247 1641.84084404 970.61984642 1605.87720915 970.60510254 1569.91357422 C970.60443676 1568.28985754 970.60443676 1568.28985754 970.60375754 1566.63333851 C970.561054 1462.4692442 970.52182451 1358.30514867 970.48340908 1254.14105271 C970.48176771 1249.69111244 970.48012537 1245.24117217 970.47848298 1240.79123191 C970.46336167 1199.82076962 970.4482799 1158.85030732 970.4332476 1117.87984499 C970.43284763 1116.7897504 970.43244767 1115.69965581 970.43203558 1114.57652804 C970.4308246 1111.27600382 970.42961364 1107.9754796 970.42840267 1104.67495538 C970.39574705 1015.67163764 970.3627484 926.66832003 970.32952516 837.6650025 C970.32835482 834.5294946 970.32718475 831.3939867 970.32601476 828.2584788 C970.28817546 726.85450462 970.24973888 625.45053069 970.17922132 446.95762946 C970.17813288 444.21806067 970.17704479 441.47849188 970.17595683 438.73892309 C970.1754226 437.39375105 970.1754226 437.39375105 970.17487757 436.02140382 C970.17422936 434.38922104 970.17358119 432.75703827 970.17293309 431.12485549 C970.11625306 288.41656994 970.05790752 145.70828506 970 3 C650.89 3 331.78 3 3 3 Z " fill="#FDFDFD" transform="translate(0,0)"/>
<path d="M0 0 C1.58337796 7.33394194 3.15768726 14.66978346 4.7210083 22.00802612 C5.40203346 25.20369078 6.08614323 28.39858852 6.77636719 31.59228516 C10.7168694 49.83449244 14.07404496 68.12557922 16.9670105 86.56018066 C17.67035831 91.02206816 18.44259321 95.46449111 19.265625 99.90625 C22.88667424 120.67308273 22.43241585 141.55766254 22.23828125 162.5703125 C22.23070297 163.55891266 22.22312469 164.54751282 22.21531677 165.56607056 C22.08657886 175.21572292 21.23338583 184.58890425 19.35375977 194.05883789 C19.21252686 194.77418701 19.07129395 195.48953613 18.92578125 196.2265625 C18.7757666 196.98356445 18.62575195 197.74056641 18.47119141 198.52050781 C17.95738721 201.22423598 17.49835587 203.93427578 17.04296875 206.6484375 C11.32329272 239.7678851 0.24575587 272.60646636 -14 303 C-19.8100941 301.32067048 -25.00868579 298.60791608 -30.375 295.875 C-31.30183594 295.40707031 -32.22867188 294.93914063 -33.18359375 294.45703125 C-35.45759406 293.30830944 -37.72963282 292.15588119 -40 291 C-39.35648766 287.14333056 -38.21578891 283.80597191 -36.70703125 280.203125 C-36.01347534 278.5320166 -36.01347534 278.5320166 -35.3059082 276.82714844 C-34.8130835 275.64668945 -34.32025879 274.46623047 -33.8125 273.25 C-22.88103852 246.69019433 -14.70041095 219.38912463 -10 191 C-9.85191895 190.13584473 -9.70383789 189.27168945 -9.55126953 188.38134766 C-1.15767394 137.7396864 -12.66698636 87.10613502 -22.3125 37.5 C-22.56864075 36.18213501 -22.56864075 36.18213501 -22.82995605 34.83764648 C-23.31720911 32.33907595 -23.80811758 29.84125877 -24.30078125 27.34375 C-24.44322769 26.61526855 -24.58567413 25.88678711 -24.73243713 25.13623047 C-25.42984659 21.62742663 -26.20026265 18.16056579 -27.09838867 14.69726562 C-27.92971512 11.2882194 -28.17431433 8.48628659 -28 5 C-24.64904854 4.15336799 -21.29380313 3.32513765 -17.9375 2.5 C-16.99455078 2.26152344 -16.05160156 2.02304688 -15.08007812 1.77734375 C-9.91112114 0.51662253 -5.32065269 -0.29518184 0 0 Z " fill="#020202" transform="translate(694,2782)"/>
<path d="M0 0 C3.64795474 0.6509039 7.02569081 1.61798056 10.51953125 2.84765625 C11.54111328 3.20537109 12.56269531 3.56308594 13.61523438 3.93164062 C14.67033203 4.30482422 15.72542969 4.67800781 16.8125 5.0625 C18.42415039 5.62807617 18.42415039 5.62807617 20.06835938 6.20507812 C22.71330118 7.13374658 25.35712054 8.06548189 28 9 C26.77774161 14.00961511 25.44343066 18.94159274 23.9375 23.875 C13.93777787 57.36235072 4.831637 91.9263225 0.43945312 126.63549805 C0.1498876 128.85244389 -0.1646561 131.0662913 -0.50585938 133.27587891 C-1.97693386 143.11266414 -2.36148103 152.74972 -2.3125 162.6875 C-2.30926727 163.87595016 -2.30926727 163.87595016 -2.30596924 165.08840942 C-2.25690075 176.35983841 -1.83947354 187.29702679 0.45654297 198.36669922 C1.09445613 201.45768365 1.67219154 204.55811355 2.25390625 207.66015625 C4.95454772 221.6732749 8.29495541 235.34953942 12.4597168 248.99023438 C12.79011963 250.08529297 13.12052246 251.18035156 13.4609375 252.30859375 C13.75790527 253.26564209 14.05487305 254.22269043 14.36083984 255.20874023 C15.05075851 258.22166618 15.11206417 260.91937305 15 264 C11.06495351 265.34065238 7.12658354 266.67126071 3.1875 268 C2.06794922 268.3815625 0.94839844 268.763125 -0.20507812 269.15625 C-1.27822266 269.5171875 -2.35136719 269.878125 -3.45703125 270.25 C-4.44678955 270.58515625 -5.43654785 270.9203125 -6.45629883 271.265625 C-9 272 -9 272 -12 272 C-15.31192362 261.89138267 -17.91314494 251.6602599 -20.40942383 241.32617188 C-21.05998484 238.63540288 -21.71801368 235.94654049 -22.37695312 233.2578125 C-39.92004612 161.31173127 -28.09515049 90.15906783 -5.77880859 20.49755859 C-4.44282385 16.21319373 -3.25018332 11.88991757 -2.0625 7.5625 C-1.85077148 6.79131836 -1.63904297 6.02013672 -1.42089844 5.22558594 C-0.94484551 3.48438382 -0.47200955 1.74230255 0 0 Z " fill="#020202" transform="translate(322,2786)"/>
</svg>
