<?xml version="1.0" encoding="UTF-8"?>
<!DOCTYPE svg PUBLIC "-//W3C//DTD SVG 1.1//EN" "http://www.w3.org/Graphics/SVG/1.1/DTD/svg11.dtd">
<svg xmlns="http://www.w3.org/2000/svg" version="1.1" width="939px" height="3694px" style="shape-rendering:geometricPrecision; text-rendering:geometricPrecision; image-rendering:optimizeQuality; fill-rule:evenodd; clip-rule:evenodd" xmlns:xlink="http://www.w3.org/1999/xlink">
<g><path style="opacity:0.919" fill="#f6f6f6" d="M -0.5,-0.5 C 312.5,-0.5 625.5,-0.5 938.5,-0.5C 938.5,1230.83 938.5,2462.17 938.5,3693.5C 625.5,3693.5 312.5,3693.5 -0.5,3693.5C -0.5,2462.17 -0.5,1230.83 -0.5,-0.5 Z M 2.5,605.5 C 8.59328,671.64 18.7599,737.307 33,802.5C 91.2023,994.773 149.202,1187.11 207,1379.5C 217.352,1404.56 226.019,1430.23 233,1456.5C 239.445,1494.62 245.612,1532.78 251.5,1571C 251.167,1571.83 250.833,1572.67 250.5,1573.5C 218.671,1593.65 200.671,1622.48 196.5,1660C 196.872,1677.68 202.372,1693.51 213,1707.5C 224.21,1721.72 237.543,1733.38 253,1742.5C 253.832,1751.52 253.665,1760.52 252.5,1769.5C 219.476,1785.07 202.142,1811.23 200.5,1848C 202.262,1886.08 220.762,1912.25 256,1926.5C 256.631,1938.54 256.131,1950.54 254.5,1962.5C 221.262,1975.5 202.595,1999.67 198.5,2035C 200,2058.34 210.333,2076.67 229.5,2090C 237.419,2095.21 245.586,2100.04 254,2104.5C 254.667,2117.5 254.667,2130.5 254,2143.5C 219.205,2153.58 201.371,2176.75 200.5,2213C 201.682,2249.21 219.182,2273.71 253,2286.5C 253.667,2306.83 253.667,2327.17 253,2347.5C 220.694,2353.14 201.694,2372.14 196,2404.5C 192.549,2439.76 205.382,2467.26 234.5,2487C 241.096,2490.92 248.096,2493.75 255.5,2495.5C 255.966,2532.46 259.466,2569.13 266,2605.5C 280.806,2672.97 319.972,2720.14 383.5,2747C 435.819,2767.77 488.485,2768.77 541.5,2750C 588.702,2729.8 622.202,2695.96 642,2648.5C 651.201,2627.73 657.034,2606.07 659.5,2583.5C 687.842,2578.99 707.008,2563.32 717,2536.5C 725.31,2487.79 707.477,2452.12 663.5,2429.5C 662.334,2416.18 662.167,2402.85 663,2389.5C 678.123,2379.62 690.79,2367.29 701,2352.5C 717.946,2318.84 713.612,2288.17 688,2260.5C 680.584,2253.08 672.584,2246.41 664,2240.5C 663.167,2223.82 663.334,2207.16 664.5,2190.5C 702.726,2170.71 717.226,2139.71 708,2097.5C 700.976,2075.81 686.976,2060.48 666,2051.5C 665.333,2037.83 665.333,2024.17 666,2010.5C 685.986,2002.69 700.32,1989.02 709,1969.5C 715.611,1949.28 713.278,1929.94 702,1911.5C 692.416,1897.25 680.749,1884.91 667,1874.5C 666.333,1855.83 666.333,1837.17 667,1818.5C 693.343,1815.68 711.343,1802.01 721,1777.5C 730.528,1736.74 718.695,1703.9 685.5,1679C 679.896,1675.91 674.062,1673.41 668,1671.5C 668.145,1638.17 668.479,1604.84 669,1571.5C 684.708,1564.49 697.708,1554.16 708,1540.5C 714.384,1528.47 716.051,1515.8 713,1502.5C 708.616,1485.01 702.449,1468.18 694.5,1452C 705.591,1427.65 717.091,1403.48 729,1379.5C 765.778,1325.68 799.778,1270.01 831,1212.5C 854.158,1170.02 872.825,1125.68 887,1079.5C 908.154,997.24 923.488,913.907 933,829.5C 937.607,780.988 933.274,733.322 920,686.5C 909.516,653.416 893.183,623.749 871,597.5C 830.5,553 788,510.5 743.5,470C 660.773,393.684 575.439,320.684 487.5,251C 462.643,230.832 434.143,219.665 402,217.5C 379.405,219.809 357.905,225.976 337.5,236C 324.344,242.411 311.344,249.078 298.5,256C 237.366,294.566 178.7,336.566 122.5,382C 101.039,400.46 80.5392,419.96 61,440.5C 30.3391,480.645 10.8391,525.645 2.5,575.5C 2.5,384.167 2.5,192.833 2.5,1.5C 313.5,1.5 624.5,1.5 935.5,1.5C 935.5,1231.17 935.5,2460.83 935.5,3690.5C 624.5,3690.5 313.5,3690.5 2.5,3690.5C 2.5,2662.17 2.5,1633.83 2.5,605.5 Z"/></g>
<g><path style="opacity:0.98" fill="#010101" d="M 2.5,605.5 C 2.5,595.5 2.5,585.5 2.5,575.5C 10.8391,525.645 30.3391,480.645 61,440.5C 80.5392,419.96 101.039,400.46 122.5,382C 178.7,336.566 237.366,294.566 298.5,256C 311.344,249.078 324.344,242.411 337.5,236C 357.905,225.976 379.405,219.809 402,217.5C 434.143,219.665 462.643,230.832 487.5,251C 575.439,320.684 660.773,393.684 743.5,470C 788,510.5 830.5,553 871,597.5C 893.183,623.749 909.516,653.416 920,686.5C 933.274,733.322 937.607,780.988 933,829.5C 923.488,913.907 908.154,997.24 887,1079.5C 872.825,1125.68 854.158,1170.02 831,1212.5C 799.778,1270.01 765.778,1325.68 729,1379.5C 717.091,1403.48 705.591,1427.65 694.5,1452C 702.449,1468.18 708.616,1485.01 713,1502.5C 716.051,1515.8 714.384,1528.47 708,1540.5C 697.708,1554.16 684.708,1564.49 669,1571.5C 668.479,1604.84 668.145,1638.17 668,1671.5C 674.062,1673.41 679.896,1675.91 685.5,1679C 718.695,1703.9 730.528,1736.74 721,1777.5C 711.343,1802.01 693.343,1815.68 667,1818.5C 666.333,1837.17 666.333,1855.83 667,1874.5C 680.749,1884.91 692.416,1897.25 702,1911.5C 713.278,1929.94 715.611,1949.28 709,1969.5C 700.32,1989.02 685.986,2002.69 666,2010.5C 665.333,2024.17 665.333,2037.83 666,2051.5C 686.976,2060.48 700.976,2075.81 708,2097.5C 717.226,2139.71 702.726,2170.71 664.5,2190.5C 663.334,2207.16 663.167,2223.82 664,2240.5C 672.584,2246.41 680.584,2253.08 688,2260.5C 713.612,2288.17 717.946,2318.84 701,2352.5C 690.79,2367.29 678.123,2379.62 663,2389.5C 662.167,2402.85 662.334,2416.18 663.5,2429.5C 707.477,2452.12 725.31,2487.79 717,2536.5C 707.008,2563.32 687.842,2578.99 659.5,2583.5C 657.034,2606.07 651.201,2627.73 642,2648.5C 622.202,2695.96 588.702,2729.8 541.5,2750C 488.485,2768.77 435.819,2767.77 383.5,2747C 319.972,2720.14 280.806,2672.97 266,2605.5C 259.466,2569.13 255.966,2532.46 255.5,2495.5C 248.096,2493.75 241.096,2490.92 234.5,2487C 205.382,2467.26 192.549,2439.76 196,2404.5C 201.694,2372.14 220.694,2353.14 253,2347.5C 253.667,2327.17 253.667,2306.83 253,2286.5C 219.182,2273.71 201.682,2249.21 200.5,2213C 201.371,2176.75 219.205,2153.58 254,2143.5C 254.667,2130.5 254.667,2117.5 254,2104.5C 245.586,2100.04 237.419,2095.21 229.5,2090C 210.333,2076.67 200,2058.34 198.5,2035C 202.595,1999.67 221.262,1975.5 254.5,1962.5C 256.131,1950.54 256.631,1938.54 256,1926.5C 220.762,1912.25 202.262,1886.08 200.5,1848C 202.142,1811.23 219.476,1785.07 252.5,1769.5C 253.665,1760.52 253.832,1751.52 253,1742.5C 237.543,1733.38 224.21,1721.72 213,1707.5C 202.372,1693.51 196.872,1677.68 196.5,1660C 200.671,1622.48 218.671,1593.65 250.5,1573.5C 250.833,1572.67 251.167,1571.83 251.5,1571C 245.612,1532.78 239.445,1494.62 233,1456.5C 226.019,1430.23 217.352,1404.56 207,1379.5C 149.202,1187.11 91.2023,994.773 33,802.5C 18.7599,737.307 8.59328,671.64 2.5,605.5 Z"/></g>
<g><path style="opacity:1" fill="#fefefe" d="M 699.5,1370.5 C 544.43,1370.83 389.43,1370.5 234.5,1369.5C 177.139,1177.06 119.306,984.731 61,792.5C 49.7673,739.203 40.7673,685.537 34,631.5C 32.1562,612.534 31.4895,593.534 32,574.5C 43.7319,512.845 73.5653,462.012 121.5,422C 185.642,366.857 253.976,317.524 326.5,274C 344.51,264.442 363.177,256.442 382.5,250C 400.229,245.951 417.562,247.284 434.5,254C 446.106,258.466 456.773,264.466 466.5,272C 592.281,371.074 712.115,477.574 826,591.5C 844.295,610.453 860.295,631.119 874,653.5C 892.753,689.175 903.086,727.175 905,767.5C 905.986,801.668 903.986,835.668 899,869.5C 889.203,936.152 876.203,1002.15 860,1067.5C 845.347,1115.14 826.014,1160.81 802,1204.5C 770.58,1261.7 736.413,1317.04 699.5,1370.5 Z"/></g>
<g><path style="opacity:1" fill="#4b4b4b" d="M 234.5,1369.5 C 389.43,1370.5 544.43,1370.83 699.5,1370.5C 622.167,1371.17 544.667,1371.5 467,1371.5C 389.164,1371.5 311.664,1370.83 234.5,1369.5 Z"/></g>
<g><path style="opacity:1" fill="#929292" d="M 685.5,1401.5 C 539.5,1400.17 393.5,1400.17 247.5,1401.5C 246.957,1401.44 246.624,1401.11 246.5,1400.5C 393.167,1399.17 539.833,1399.17 686.5,1400.5C 686.376,1401.11 686.043,1401.44 685.5,1401.5 Z"/></g>
<g><path style="opacity:1" fill="#b7b7b8" d="M 685.5,1401.5 C 677.431,1417.81 669.764,1434.31 662.5,1451C 669.525,1467.74 676.359,1484.57 683,1501.5C 685.282,1509.98 684.948,1518.31 682,1526.5C 677.327,1532.08 671.827,1536.58 665.5,1540C 657.046,1544.31 648.546,1548.48 640,1552.5C 638.724,1601.49 638.224,1650.49 638.5,1699.5C 665.94,1696.61 683.94,1708.27 692.5,1734.5C 697.791,1750.15 695.958,1764.81 687,1778.5C 680.366,1784.56 672.533,1788.06 663.5,1789C 654.829,1789.34 646.162,1789.18 637.5,1788.5C 637.333,1822.17 637.5,1855.83 638,1889.5C 650.237,1897.74 661.237,1907.4 671,1918.5C 677.789,1926.91 681.956,1936.41 683.5,1947C 683.548,1957.57 679.548,1966.24 671.5,1973C 661.147,1980.34 649.814,1985.84 637.5,1989.5C 635.949,2018.48 635.282,2047.48 635.5,2076.5C 668.246,2078.41 683.413,2095.75 681,2128.5C 678.382,2140.9 671.882,2150.74 661.5,2158C 653.15,2163.42 644.317,2167.92 635,2171.5C 634.333,2200.17 634.333,2228.83 635,2257.5C 654.225,2266.72 668.892,2280.72 679,2299.5C 683.613,2309.84 683.613,2320.18 679,2330.5C 673.036,2343.13 664.203,2353.3 652.5,2361C 646.167,2364.83 639.833,2368.67 633.5,2372.5C 632.167,2398.5 632.167,2424.5 633.5,2450.5C 662.142,2457.31 680.975,2474.65 690,2502.5C 693.597,2521.73 687.764,2537.23 672.5,2549C 659.672,2554.04 646.339,2556.54 632.5,2556.5C 631.231,2611.51 611.231,2658.35 572.5,2697C 534.769,2727.34 491.769,2739.34 443.5,2733C 389.169,2725.45 346.669,2699.28 316,2654.5C 300.489,2625.8 291.489,2595.13 289,2562.5C 286.447,2532.55 284.781,2502.55 284,2472.5C 264.997,2471 248.997,2463.33 236,2449.5C 222.926,2431.46 221.259,2412.46 231,2392.5C 236.257,2384.92 243.423,2380.09 252.5,2378C 262.51,2377.5 272.51,2377.67 282.5,2378.5C 282.5,2339.83 282.5,2301.17 282.5,2262.5C 241.882,2258.41 225.048,2236.41 232,2196.5C 242.898,2175.89 260.065,2167.56 283.5,2171.5C 283.667,2142.5 283.5,2113.5 283,2084.5C 268.406,2079.29 254.906,2072.12 242.5,2063C 226.015,2047.07 224.182,2029.57 237,2010.5C 249.408,1995.3 265.408,1987.3 285,1986.5C 285.5,1958.84 285.667,1931.17 285.5,1903.5C 241.325,1895.8 224.159,1870.14 234,1826.5C 243.418,1806.26 259.252,1794.6 281.5,1791.5C 282.833,1769.17 282.833,1746.83 281.5,1724.5C 266.467,1716.97 252.967,1707.3 241,1695.5C 225.819,1678.26 222.486,1658.93 231,1637.5C 239.261,1621.57 250.761,1608.4 265.5,1598C 271.69,1596.13 278.024,1594.96 284.5,1594.5C 277.743,1547.45 270.576,1500.45 263,1453.5C 257.523,1436.24 252.357,1418.91 247.5,1401.5C 393.5,1400.17 539.5,1400.17 685.5,1401.5 Z"/></g>
</svg>
