<?xml version="1.0" encoding="UTF-8"?>
<!DOCTYPE svg PUBLIC "-//W3C//DTD SVG 1.1//EN" "http://www.w3.org/Graphics/SVG/1.1/DTD/svg11.dtd">
<svg xmlns="http://www.w3.org/2000/svg" version="1.1" width="973px" height="3694px" style="shape-rendering:geometricPrecision; text-rendering:geometricPrecision; image-rendering:optimizeQuality; fill-rule:evenodd; clip-rule:evenodd" xmlns:xlink="http://www.w3.org/1999/xlink">
<g><path style="opacity:0.667" fill="#fdfdfd" d="M -0.5,-0.5 C 323.833,-0.5 648.167,-0.5 972.5,-0.5C 972.5,1230.83 972.5,2462.17 972.5,3693.5C 648.167,3693.5 323.833,3693.5 -0.5,3693.5C -0.5,2462.17 -0.5,1230.83 -0.5,-0.5 Z M 969.5,2999.5 C 961.694,2957.94 951.194,2916.94 938,2876.5C 872.132,2678.56 806.465,2480.56 741,2282.5C 715.298,2023.74 692.298,1764.74 672,1505.5C 662.524,1387.02 657.524,1268.36 657,1149.5C 655.976,1049.5 655.309,949.503 655,849.5C 654.917,664.164 655.251,478.831 656,293.5C 648.474,234.984 615.974,212.484 558.5,226C 539.524,234.293 523.357,246.459 510,262.5C 485.391,292.688 465.058,325.688 449,361.5C 382.871,558.685 338.538,760.685 316,967.5C 308.854,1060.71 304.188,1154.04 302,1247.5C 297.603,1439.19 292.269,1630.86 286,1822.5C 279.277,1979.07 268.943,2135.41 255,2291.5C 223.316,2418.22 184.983,2542.88 140,2665.5C 110.197,2747.24 80.1967,2828.91 50,2910.5C 40.2718,2937.68 30.9385,2965.02 22,2992.5C 10.8247,3031.88 4.32474,3071.88 2.5,3112.5C 2.5,2075.83 2.5,1039.17 2.5,2.5C 324.833,2.5 647.167,2.5 969.5,2.5C 969.5,1001.5 969.5,2000.5 969.5,2999.5 Z M 969.5,3045.5 C 969.5,3260.5 969.5,3475.5 969.5,3690.5C 647.167,3690.5 324.833,3690.5 2.5,3690.5C 2.5,3506.83 2.5,3323.17 2.5,3139.5C 3.60364,3160.84 6.10364,3182.18 10,3203.5C 18.3422,3238.03 34.8422,3267.87 59.5,3293C 149.984,3357.75 248.317,3408.08 354.5,3444C 382.483,3453.55 410.816,3461.88 439.5,3469C 481.318,3475.11 521.318,3469.11 559.5,3451C 573.644,3444.43 587.311,3437.1 600.5,3429C 679.511,3375.32 756.845,3319.32 832.5,3261C 860.152,3239.69 886.319,3216.52 911,3191.5C 943.907,3148.29 963.407,3099.63 969.5,3045.5 Z"/></g>
<g><path style="opacity:0.982" fill="#010101" d="M 969.5,2999.5 C 970.7,3014.83 970.7,3030.16 969.5,3045.5C 963.407,3099.63 943.907,3148.29 911,3191.5C 886.319,3216.52 860.152,3239.69 832.5,3261C 756.845,3319.32 679.511,3375.32 600.5,3429C 587.311,3437.1 573.644,3444.43 559.5,3451C 521.318,3469.11 481.318,3475.11 439.5,3469C 410.816,3461.88 382.483,3453.55 354.5,3444C 248.317,3408.08 149.984,3357.75 59.5,3293C 34.8422,3267.87 18.3422,3238.03 10,3203.5C 6.10364,3182.18 3.60364,3160.84 2.5,3139.5C 2.5,3130.5 2.5,3121.5 2.5,3112.5C 4.32474,3071.88 10.8247,3031.88 22,2992.5C 30.9385,2965.02 40.2718,2937.68 50,2910.5C 80.1967,2828.91 110.197,2747.24 140,2665.5C 184.983,2542.88 223.316,2418.22 255,2291.5C 268.943,2135.41 279.277,1979.07 286,1822.5C 292.269,1630.86 297.603,1439.19 302,1247.5C 304.188,1154.04 308.854,1060.71 316,967.5C 338.538,760.685 382.871,558.685 449,361.5C 465.058,325.688 485.391,292.688 510,262.5C 523.357,246.459 539.524,234.293 558.5,226C 615.974,212.484 648.474,234.984 656,293.5C 655.251,478.831 654.917,664.164 655,849.5C 655.309,949.503 655.976,1049.5 657,1149.5C 657.524,1268.36 662.524,1387.02 672,1505.5C 692.298,1764.74 715.298,2023.74 741,2282.5C 806.465,2480.56 872.132,2678.56 938,2876.5C 951.194,2916.94 961.694,2957.94 969.5,2999.5 Z"/></g>
<g><path style="opacity:1" fill="#fefefe" d="M 572.5,251.5 C 601.885,247.424 619.718,259.757 626,288.5C 625.57,496.166 625.57,703.832 626,911.5C 626.09,1044.19 627.756,1176.85 631,1309.5C 636.343,1418.97 643.676,1528.3 653,1637.5C 671.234,1852.64 690.734,2067.64 711.5,2282.5C 569.5,2282.5 427.5,2282.5 285.5,2282.5C 298.237,2131.37 308.071,1980.04 315,1828.5C 316,1794.15 317.334,1759.82 319,1725.5C 323.699,1527.48 329.032,1329.48 335,1131.5C 338.981,1003.73 352.981,877.06 377,751.5C 402.068,624.147 434.735,498.813 475,375.5C 490.299,340.874 509.632,308.874 533,279.5C 544.108,267.05 557.274,257.717 572.5,251.5 Z"/></g>
<g><path style="opacity:1" fill="#fefefe" d="M 716.5,2303.5 C 762.25,2431.25 805.75,2559.92 847,2689.5C 870.267,2763.3 893.934,2836.97 918,2910.5C 927.875,2942.66 935.541,2975.33 941,3008.5C 941.486,3059.22 929.153,3106.56 904,3150.5C 898.065,3160.03 891.398,3169.03 884,3177.5C 866.761,3194.08 848.928,3209.91 830.5,3225C 750.128,3287.71 667.795,3347.71 583.5,3405C 555.019,3423.4 524.019,3435.4 490.5,3441C 470.222,3443.73 450.222,3442.4 430.5,3437C 304.565,3401.86 188.232,3347.19 81.5,3273C 66.1284,3258.94 54.6284,3242.1 47,3222.5C 39.7378,3203.86 35.4044,3184.53 34,3164.5C 28.9685,3107.73 34.6352,3052.06 51,2997.5C 60.136,2970.43 69.4693,2943.43 79,2916.5C 118.502,2810.49 157.168,2704.16 195,2597.5C 227.22,2503.61 255.553,2408.61 280,2312.5C 425.43,2311.5 570.93,2311.17 716.5,2311.5C 716.5,2308.83 716.5,2306.17 716.5,2303.5 Z"/></g>
<g><path style="opacity:1" fill="#030303" d="M 686.5,2781.5 C 688.833,2781.5 691.167,2781.5 693.5,2781.5C 700.373,2814.36 706.539,2847.36 712,2880.5C 715.378,2900.03 716.711,2919.7 716,2939.5C 712.735,2990.23 700.235,3038.56 678.5,3084.5C 670.041,3080.44 661.707,3076.1 653.5,3071.5C 677.017,3021.43 688.184,2968.77 687,2913.5C 686.04,2902.11 684.706,2890.78 683,2879.5C 677.738,2848.36 671.905,2817.36 665.5,2786.5C 672.752,2785.41 679.752,2783.74 686.5,2781.5 Z"/></g>
<g><path style="opacity:1" fill="#030303" d="M 321.5,2785.5 C 331.035,2788.23 340.369,2791.57 349.5,2795.5C 335.578,2838.27 325.412,2881.94 319,2926.5C 317.919,2944.92 318.585,2963.25 321,2981.5C 325.235,3004.43 330.401,3027.1 336.5,3049.5C 327.5,3052.17 318.5,3054.83 309.5,3057.5C 299.991,3026.12 293.491,2994.12 290,2961.5C 289.333,2949.83 289.333,2938.17 290,2926.5C 296.903,2878.64 307.403,2831.64 321.5,2785.5 Z"/></g>
</svg>
