<?xml version="1.0" encoding="UTF-8"?>
<!DOCTYPE svg PUBLIC "-//W3C//DTD SVG 1.1//EN" "http://www.w3.org/Graphics/SVG/1.1/DTD/svg11.dtd">
<svg xmlns="http://www.w3.org/2000/svg" version="1.1" width="973px" height="3694px" style="shape-rendering:geometricPrecision; text-rendering:geometricPrecision; image-rendering:optimizeQuality; fill-rule:evenodd; clip-rule:evenodd" xmlns:xlink="http://www.w3.org/1999/xlink">
<g><path style="opacity:0.667" fill="#fdfdfd" d="M -0.5,-0.5 C 323.833,-0.5 648.167,-0.5 972.5,-0.5C 972.5,1230.83 972.5,2462.17 972.5,3693.5C 648.167,3693.5 323.833,3693.5 -0.5,3693.5C -0.5,2462.17 -0.5,1230.83 -0.5,-0.5 Z M 969.5,2998.5 C 960.847,2953.89 949.347,2909.89 935,2866.5C 863.547,2653.48 793.38,2440.31 724.5,2227C 731.922,2211.32 738.089,2195.15 743,2178.5C 747.408,2160.96 744.408,2144.96 734,2130.5C 724.366,2120.37 713.199,2112.37 700.5,2106.5C 698.353,2072.86 698.019,2039.19 699.5,2005.5C 732.879,1992.25 751.379,1967.59 755,1931.5C 757.271,1908.97 750.437,1889.81 734.5,1874C 723.699,1865.34 711.365,1860.51 697.5,1859.5C 697.503,1840.82 697.336,1822.15 697,1803.5C 711.082,1792.75 723.082,1780.09 733,1765.5C 753.495,1720.32 741.162,1687.32 696,1666.5C 695.167,1652.82 695.334,1639.15 696.5,1625.5C 725.477,1612.24 740.477,1589.58 741.5,1557.5C 741.578,1534.89 733.245,1516.05 716.5,1501C 709.765,1495.55 702.598,1490.71 695,1486.5C 694.333,1469.83 694.333,1453.17 695,1436.5C 709.667,1427.17 721.667,1415.17 731,1400.5C 749.491,1364.28 743.991,1332.11 714.5,1304C 707.95,1298.45 701.117,1293.28 694,1288.5C 692.501,1275.2 692.168,1261.87 693,1248.5C 738.529,1225.78 756.529,1189.44 747,1139.5C 739.474,1118.64 725.307,1104.47 704.5,1097C 699.904,1095.71 695.237,1094.88 690.5,1094.5C 682.851,1037.7 658.184,989.864 616.5,951C 562.113,908.467 502.446,899.467 437.5,924C 366.594,956.279 325.094,1011.11 313,1088.5C 308.775,1119.37 305.942,1150.37 304.5,1181.5C 267.134,1194.55 247.134,1220.88 244.5,1260.5C 245.84,1298.58 265.006,1321.58 302,1329.5C 303.158,1350.15 303.658,1370.82 303.5,1391.5C 269.27,1403.56 251.27,1427.89 249.5,1464.5C 251.183,1500.49 269.183,1523.49 303.5,1533.5C 304.833,1546.83 304.833,1560.17 303.5,1573.5C 287.91,1580.26 274.41,1589.92 263,1602.5C 243.519,1630.34 243.853,1658 264,1685.5C 274.971,1699.31 288.804,1708.98 305.5,1714.5C 305.667,1726.84 305.5,1739.17 305,1751.5C 270.461,1765.72 252.295,1791.55 250.5,1829C 251.656,1866.46 269.156,1892.96 303,1908.5C 303.832,1917.52 303.665,1926.52 302.5,1935.5C 279.23,1948.6 262.063,1967.27 251,1991.5C 243.54,2015.95 246.206,2039.29 259,2061.5C 269.491,2078.36 282.991,2092.19 299.5,2103C 300.574,2103.74 301.241,2104.74 301.5,2106C 295.614,2142.82 289.78,2179.65 284,2216.5C 273.713,2242.7 263.046,2268.7 252,2294.5C 229.317,2391.89 201.65,2487.89 169,2582.5C 131.168,2689.16 92.5018,2795.49 53,2901.5C 42.7209,2930.39 32.7209,2959.39 23,2988.5C 11.1738,3028.81 4.34043,3069.81 2.5,3111.5C 2.5,2075.17 2.5,1038.83 2.5,2.5C 324.833,2.5 647.167,2.5 969.5,2.5C 969.5,1001.17 969.5,1999.83 969.5,2998.5 Z M 969.5,3044.5 C 969.5,3259.83 969.5,3475.17 969.5,3690.5C 647.167,3690.5 324.833,3690.5 2.5,3690.5C 2.5,3506.83 2.5,3323.17 2.5,3139.5C 3.37953,3165.79 7.21286,3191.79 14,3217.5C 23.661,3247.02 39.4944,3272.52 61.5,3294C 174.836,3373.66 298.836,3431.32 433.5,3467C 478.459,3475.1 521.459,3469.1 562.5,3449C 574.993,3442.59 587.326,3435.92 599.5,3429C 676.564,3376.27 752.231,3321.6 826.5,3265C 856.807,3242.04 885.307,3216.87 912,3189.5C 933.105,3162.63 948.439,3132.63 958,3099.5C 963.076,3081.28 966.909,3062.95 969.5,3044.5 Z"/></g>
<g><path style="opacity:0.981" fill="#000000" d="M 969.5,2998.5 C 970.773,3013.83 970.773,3029.16 969.5,3044.5C 966.909,3062.95 963.076,3081.28 958,3099.5C 948.439,3132.63 933.105,3162.63 912,3189.5C 885.307,3216.87 856.807,3242.04 826.5,3265C 752.231,3321.6 676.564,3376.27 599.5,3429C 587.326,3435.92 574.993,3442.59 562.5,3449C 521.459,3469.1 478.459,3475.1 433.5,3467C 298.836,3431.32 174.836,3373.66 61.5,3294C 39.4944,3272.52 23.661,3247.02 14,3217.5C 7.21286,3191.79 3.37953,3165.79 2.5,3139.5C 2.5,3130.17 2.5,3120.83 2.5,3111.5C 4.34043,3069.81 11.1738,3028.81 23,2988.5C 32.7209,2959.39 42.7209,2930.39 53,2901.5C 92.5018,2795.49 131.168,2689.16 169,2582.5C 201.65,2487.89 229.317,2391.89 252,2294.5C 263.046,2268.7 273.713,2242.7 284,2216.5C 289.78,2179.65 295.614,2142.82 301.5,2106C 301.241,2104.74 300.574,2103.74 299.5,2103C 282.991,2092.19 269.491,2078.36 259,2061.5C 246.206,2039.29 243.54,2015.95 251,1991.5C 262.063,1967.27 279.23,1948.6 302.5,1935.5C 303.665,1926.52 303.832,1917.52 303,1908.5C 269.156,1892.96 251.656,1866.46 250.5,1829C 252.295,1791.55 270.461,1765.72 305,1751.5C 305.5,1739.17 305.667,1726.84 305.5,1714.5C 288.804,1708.98 274.971,1699.31 264,1685.5C 243.853,1658 243.519,1630.34 263,1602.5C 274.41,1589.92 287.91,1580.26 303.5,1573.5C 304.833,1560.17 304.833,1546.83 303.5,1533.5C 269.183,1523.49 251.183,1500.49 249.5,1464.5C 251.27,1427.89 269.27,1403.56 303.5,1391.5C 303.658,1370.82 303.158,1350.15 302,1329.5C 265.006,1321.58 245.84,1298.58 244.5,1260.5C 247.134,1220.88 267.134,1194.55 304.5,1181.5C 305.942,1150.37 308.775,1119.37 313,1088.5C 325.094,1011.11 366.594,956.279 437.5,924C 502.446,899.467 562.113,908.467 616.5,951C 658.184,989.864 682.851,1037.7 690.5,1094.5C 695.237,1094.88 699.904,1095.71 704.5,1097C 725.307,1104.47 739.474,1118.64 747,1139.5C 756.529,1189.44 738.529,1225.78 693,1248.5C 692.168,1261.87 692.501,1275.2 694,1288.5C 701.117,1293.28 707.95,1298.45 714.5,1304C 743.991,1332.11 749.491,1364.28 731,1400.5C 721.667,1415.17 709.667,1427.17 695,1436.5C 694.333,1453.17 694.333,1469.83 695,1486.5C 702.598,1490.71 709.765,1495.55 716.5,1501C 733.245,1516.05 741.578,1534.89 741.5,1557.5C 740.477,1589.58 725.477,1612.24 696.5,1625.5C 695.334,1639.15 695.167,1652.82 696,1666.5C 741.162,1687.32 753.495,1720.32 733,1765.5C 723.082,1780.09 711.082,1792.75 697,1803.5C 697.336,1822.15 697.503,1840.82 697.5,1859.5C 711.365,1860.51 723.699,1865.34 734.5,1874C 750.437,1889.81 757.271,1908.97 755,1931.5C 751.379,1967.59 732.879,1992.25 699.5,2005.5C 698.019,2039.19 698.353,2072.86 700.5,2106.5C 713.199,2112.37 724.366,2120.37 734,2130.5C 744.408,2144.96 747.408,2160.96 743,2178.5C 738.089,2195.15 731.922,2211.32 724.5,2227C 793.38,2440.31 863.547,2653.48 935,2866.5C 949.347,2909.89 960.847,2953.89 969.5,2998.5 Z"/></g>
<g><path style="opacity:1" fill="#b7b7b8" d="M 667.5,1837.5 C 667.5,1854.83 667.5,1872.17 667.5,1889.5C 670.713,1889.81 673.713,1889.48 676.5,1888.5C 690.16,1886.52 702.827,1889.02 714.5,1896C 719.913,1900.65 723.413,1906.49 725,1913.5C 727.82,1935.08 721.653,1953.58 706.5,1969C 695.461,1976.91 683.128,1980.08 669.5,1978.5C 669.333,2027.17 669.5,2075.83 670,2124.5C 682.025,2129.76 693.525,2135.93 704.5,2143C 714.992,2150.79 718.159,2160.95 714,2173.5C 707.846,2191.13 701.013,2208.47 693.5,2225.5C 698.837,2242.51 704.171,2259.51 709.5,2276.5C 570.334,2277.5 431.001,2277.83 291.5,2277.5C 298.043,2260.08 304.877,2242.74 312,2225.5C 319.567,2177.83 327.067,2130.17 334.5,2082.5C 327.562,2082.63 320.896,2081.47 314.5,2079C 295.824,2066.32 283.324,2049.16 277,2027.5C 274.119,2012.28 277.453,1998.61 287,1986.5C 299.848,1972.25 314.848,1960.92 332,1952.5C 332.5,1930.17 332.667,1907.84 332.5,1885.5C 299.453,1880.6 281.786,1861.44 279.5,1828C 281.554,1803.28 294.22,1786.61 317.5,1778C 323.353,1776.44 329.187,1774.94 335,1773.5C 335.5,1745.84 335.667,1718.17 335.5,1690.5C 313.343,1690.17 296.177,1680.84 284,1662.5C 273.769,1645.24 275.936,1629.74 290.5,1616C 303.238,1605.58 317.572,1598.08 333.5,1593.5C 333.5,1564.5 333.5,1535.5 333.5,1506.5C 291.833,1508.01 274.667,1488.34 282,1447.5C 292.008,1426.4 308.841,1415.73 332.5,1415.5C 332.5,1376.5 332.5,1337.5 332.5,1298.5C 323.87,1299.75 315.203,1300.25 306.5,1300C 284.36,1295.42 273.693,1281.75 274.5,1259C 276.492,1236 288.158,1220 309.5,1211C 317.295,1208.22 325.295,1206.38 333.5,1205.5C 333.958,1181.13 335.125,1156.8 337,1132.5C 338.567,1103.33 344.233,1075 354,1047.5C 383.101,980.91 433.934,944.91 506.5,939.5C 560.23,942.272 601.397,966.272 630,1011.5C 651.22,1044.71 662.387,1081.04 663.5,1120.5C 676.143,1121.04 688.477,1123.21 700.5,1127C 718.55,1138.8 725.05,1155.3 720,1176.5C 714.397,1195.1 703.23,1209.26 686.5,1219C 679.116,1222.41 671.45,1224.91 663.5,1226.5C 663.167,1252.84 663.5,1279.18 664.5,1305.5C 678.215,1312.38 690.382,1321.38 701,1332.5C 716.481,1353.01 716.147,1373.34 700,1393.5C 690.37,1404.22 679.204,1412.89 666.5,1419.5C 665.167,1448.5 665.167,1477.5 666.5,1506.5C 680.626,1511.14 692.793,1518.81 703,1529.5C 714.114,1545.3 715.447,1561.97 707,1579.5C 697.82,1594.51 684.32,1601.84 666.5,1601.5C 666.333,1630.17 666.5,1658.84 667,1687.5C 678.982,1690.94 690.148,1696.1 700.5,1703C 713.941,1713.93 717.441,1727.43 711,1743.5C 704.377,1756.12 695.544,1766.96 684.5,1776C 679,1780.17 673.5,1784.33 668,1788.5C 667.5,1804.83 667.333,1821.16 667.5,1837.5 Z"/></g>
<g><path style="opacity:1" fill="#6b6b6b" d="M 667.5,1837.5 C 668.497,1854.33 668.83,1871.33 668.5,1888.5C 671.167,1888.5 673.833,1888.5 676.5,1888.5C 673.713,1889.48 670.713,1889.81 667.5,1889.5C 667.5,1872.17 667.5,1854.83 667.5,1837.5 Z"/></g>
<g><path style="opacity:1" fill="#212121" d="M 709.5,2276.5 C 710.043,2276.56 710.376,2276.89 710.5,2277.5C 570.667,2278.83 431.001,2278.83 291.5,2277.5C 431.001,2277.83 570.334,2277.5 709.5,2276.5 Z"/></g>
<g><path style="opacity:1" fill="#fefefe" d="M 279.5,2306.5 C 425.835,2306.17 572.168,2306.5 718.5,2307.5C 780.033,2493.6 841.867,2679.6 904,2865.5C 916.869,2904.31 927.869,2943.64 937,2983.5C 945.68,3048.78 931.68,3108.78 895,3163.5C 887.569,3172.93 879.402,3181.77 870.5,3190C 836.932,3219.44 802.265,3247.44 766.5,3274C 708.723,3316.44 650.39,3358.11 591.5,3399C 559.478,3421.23 524.145,3435.23 485.5,3441C 466.501,3442.82 447.835,3441.16 429.5,3436C 302.57,3400.69 185.57,3345.36 78.5,3270C 57.507,3247.85 44.007,3221.68 38,3191.5C 28.7593,3133.03 31.0926,3075.03 45,3017.5C 53.4645,2988.9 62.7979,2960.57 73,2932.5C 119.045,2809.37 163.712,2685.7 207,2561.5C 234.768,2477.41 258.935,2392.41 279.5,2306.5 Z"/></g>
<g><path style="opacity:1" fill="#020202" d="M 689.5,2780.5 C 690.833,2780.5 692.167,2780.5 693.5,2780.5C 702.665,2821.82 709.831,2863.48 715,2905.5C 717.76,2967.95 705.593,3027.29 678.5,3083.5C 669.944,3079.39 661.61,3075.06 653.5,3070.5C 677.137,3020.48 688.304,2967.81 687,2912.5C 686.153,2906.19 685.487,2899.85 685,2893.5C 679.204,2857.36 672.704,2821.36 665.5,2785.5C 673.746,2784.46 681.746,2782.8 689.5,2780.5 Z"/></g>
<g><path style="opacity:1" fill="#020202" d="M 321.5,2784.5 C 330.705,2787.9 340.038,2790.9 349.5,2793.5C 336.155,2836.72 325.988,2880.72 319,2925.5C 316.91,2951.17 318.91,2976.5 325,3001.5C 328.29,3016.49 332.123,3031.33 336.5,3046C 336.245,3047.33 335.578,3048.33 334.5,3049C 326.292,3052.01 317.958,3054.51 309.5,3056.5C 301.44,3028.93 295.273,3000.93 291,2972.5C 288.18,2945.96 289.513,2919.62 295,2893.5C 302.426,2856.8 311.259,2820.46 321.5,2784.5 Z"/></g>
</svg>
