<?xml version="1.0" encoding="UTF-8"?>
<!DOCTYPE svg PUBLIC "-//W3C//DTD SVG 1.1//EN" "http://www.w3.org/Graphics/SVG/1.1/DTD/svg11.dtd">
<svg xmlns="http://www.w3.org/2000/svg" version="1.1" width="992px" height="3694px" style="shape-rendering:geometricPrecision; text-rendering:geometricPrecision; image-rendering:optimizeQuality; fill-rule:evenodd; clip-rule:evenodd" xmlns:xlink="http://www.w3.org/1999/xlink">
<g><path style="opacity:0.851" fill="#fdfdfd" d="M -0.5,-0.5 C 330.167,-0.5 660.833,-0.5 991.5,-0.5C 991.5,1230.83 991.5,2462.17 991.5,3693.5C 660.833,3693.5 330.167,3693.5 -0.5,3693.5C -0.5,2462.17 -0.5,1230.83 -0.5,-0.5 Z M 988.5,2858.5 C 985.275,2838.26 980.442,2818.26 974,2798.5C 942.79,2704.09 908.79,2610.76 872,2518.5C 842.051,2443.32 811.717,2368.66 781,2294.5C 764.37,2271.87 748.537,2248.7 733.5,2225C 741.456,2208.13 747.623,2190.63 752,2172.5C 755.201,2149.76 747.368,2131.92 728.5,2119C 721.831,2114.33 714.831,2110.16 707.5,2106.5C 706.5,2072.84 706.167,2039.17 706.5,2005.5C 731.227,1997.94 748.06,1981.94 757,1957.5C 764.199,1938.34 764.866,1919.01 759,1899.5C 749.211,1875.55 731.378,1862.55 705.5,1860.5C 704.326,1841.5 704.326,1822.5 705.5,1803.5C 719.267,1792.57 731.1,1779.9 741,1765.5C 761.186,1720.9 749.019,1688.23 704.5,1667.5C 703.334,1653.85 703.167,1640.18 704,1626.5C 737.268,1610.79 752.268,1584.46 749,1547.5C 743.49,1519.99 728.156,1499.99 703,1487.5C 702.478,1470.82 702.145,1454.15 702,1437.5C 722.914,1424.01 737.914,1405.67 747,1382.5C 753.735,1351.37 745.235,1325.2 721.5,1304C 714.95,1298.45 708.117,1293.28 701,1288.5C 700.167,1275.15 700.334,1261.82 701.5,1248.5C 740.457,1229.35 759.29,1198.02 758,1154.5C 751.82,1120.82 731.986,1100.49 698.5,1093.5C 689.904,1034.45 663.237,985.617 618.5,947C 562.742,907.074 503.075,900.407 439.5,927C 382.551,954.618 345.051,998.785 327,1059.5C 322.814,1075.61 319.814,1091.95 318,1108.5C 315.647,1132.64 313.814,1156.81 312.5,1181C 292.879,1188.29 277.046,1200.46 265,1217.5C 247.485,1248.24 248.485,1278.24 268,1307.5C 279.189,1320.51 293.356,1327.85 310.5,1329.5C 310.601,1350.22 310.601,1370.89 310.5,1391.5C 269.081,1409 252.248,1440 260,1484.5C 267.544,1511.38 284.877,1528.04 312,1534.5C 312.667,1547.5 312.667,1560.5 312,1573.5C 295.091,1580.78 280.758,1591.45 269,1605.5C 251.291,1633.7 252.624,1661.03 273,1687.5C 283.654,1700.41 296.821,1709.74 312.5,1715.5C 313.499,1727.82 313.832,1740.15 313.5,1752.5C 290.863,1759.97 274.697,1774.63 265,1796.5C 251.606,1834.21 259.106,1867.04 287.5,1895C 294.452,1900.39 301.952,1904.89 310,1908.5C 310.832,1917.85 310.665,1927.18 309.5,1936.5C 288.422,1948.41 272.256,1965.08 261,1986.5C 250.839,2012.75 252.839,2038.09 267,2062.5C 277.977,2079.98 292.144,2094.31 309.5,2105.5C 303.669,2141.82 297.836,2178.15 292,2214.5C 275,2240.5 258,2266.5 241,2292.5C 160.024,2384.7 97.0241,2488.37 52,2603.5C 25.0496,2679.76 8.54958,2758.09 2.5,2838.5C 2.5,1893.17 2.5,947.833 2.5,2.5C 331.167,2.5 659.833,2.5 988.5,2.5C 988.5,954.5 988.5,1906.5 988.5,2858.5 Z M 988.5,2875.5 C 988.5,3147.17 988.5,3418.83 988.5,3690.5C 659.833,3690.5 331.167,3690.5 2.5,3690.5C 2.5,3425.5 2.5,3160.5 2.5,2895.5C 7.72155,2972.59 35.5549,3040.26 86,3098.5C 118.275,3133.78 152.775,3166.61 189.5,3197C 225.361,3226.87 262.361,3255.2 300.5,3282C 346.033,3310.76 395.367,3330.09 448.5,3340C 487.285,3345.65 525.285,3342.32 562.5,3330C 616.661,3311.74 665.994,3285.07 710.5,3250C 767.42,3203.43 822.254,3154.26 875,3102.5C 910.578,3060.53 940.245,3014.53 964,2964.5C 977.345,2936.11 985.511,2906.44 988.5,2875.5 Z"/></g>
<g><path style="opacity:0.98" fill="#010101" d="M 988.5,2858.5 C 988.5,2864.17 988.5,2869.83 988.5,2875.5C 985.511,2906.44 977.345,2936.11 964,2964.5C 940.245,3014.53 910.578,3060.53 875,3102.5C 822.254,3154.26 767.42,3203.43 710.5,3250C 665.994,3285.07 616.661,3311.74 562.5,3330C 525.285,3342.32 487.285,3345.65 448.5,3340C 395.367,3330.09 346.033,3310.76 300.5,3282C 262.361,3255.2 225.361,3226.87 189.5,3197C 152.775,3166.61 118.275,3133.78 86,3098.5C 35.5549,3040.26 7.72155,2972.59 2.5,2895.5C 2.5,2876.5 2.5,2857.5 2.5,2838.5C 8.54958,2758.09 25.0496,2679.76 52,2603.5C 97.0241,2488.37 160.024,2384.7 241,2292.5C 258,2266.5 275,2240.5 292,2214.5C 297.836,2178.15 303.669,2141.82 309.5,2105.5C 292.144,2094.31 277.977,2079.98 267,2062.5C 252.839,2038.09 250.839,2012.75 261,1986.5C 272.256,1965.08 288.422,1948.41 309.5,1936.5C 310.665,1927.18 310.832,1917.85 310,1908.5C 301.952,1904.89 294.452,1900.39 287.5,1895C 259.106,1867.04 251.606,1834.21 265,1796.5C 274.697,1774.63 290.863,1759.97 313.5,1752.5C 313.832,1740.15 313.499,1727.82 312.5,1715.5C 296.821,1709.74 283.654,1700.41 273,1687.5C 252.624,1661.03 251.291,1633.7 269,1605.5C 280.758,1591.45 295.091,1580.78 312,1573.5C 312.667,1560.5 312.667,1547.5 312,1534.5C 284.877,1528.04 267.544,1511.38 260,1484.5C 252.248,1440 269.081,1409 310.5,1391.5C 310.601,1370.89 310.601,1350.22 310.5,1329.5C 293.356,1327.85 279.189,1320.51 268,1307.5C 248.485,1278.24 247.485,1248.24 265,1217.5C 277.046,1200.46 292.879,1188.29 312.5,1181C 313.814,1156.81 315.647,1132.64 318,1108.5C 319.814,1091.95 322.814,1075.61 327,1059.5C 345.051,998.785 382.551,954.618 439.5,927C 503.075,900.407 562.742,907.074 618.5,947C 663.237,985.617 689.904,1034.45 698.5,1093.5C 731.986,1100.49 751.82,1120.82 758,1154.5C 759.29,1198.02 740.457,1229.35 701.5,1248.5C 700.334,1261.82 700.167,1275.15 701,1288.5C 708.117,1293.28 714.95,1298.45 721.5,1304C 745.235,1325.2 753.735,1351.37 747,1382.5C 737.914,1405.67 722.914,1424.01 702,1437.5C 702.145,1454.15 702.478,1470.82 703,1487.5C 728.156,1499.99 743.49,1519.99 749,1547.5C 752.268,1584.46 737.268,1610.79 704,1626.5C 703.167,1640.18 703.334,1653.85 704.5,1667.5C 749.019,1688.23 761.186,1720.9 741,1765.5C 731.1,1779.9 719.267,1792.57 705.5,1803.5C 704.326,1822.5 704.326,1841.5 705.5,1860.5C 731.378,1862.55 749.211,1875.55 759,1899.5C 764.866,1919.01 764.199,1938.34 757,1957.5C 748.06,1981.94 731.227,1997.94 706.5,2005.5C 706.167,2039.17 706.5,2072.84 707.5,2106.5C 714.831,2110.16 721.831,2114.33 728.5,2119C 747.368,2131.92 755.201,2149.76 752,2172.5C 747.623,2190.63 741.456,2208.13 733.5,2225C 748.537,2248.7 764.37,2271.87 781,2294.5C 811.717,2368.66 842.051,2443.32 872,2518.5C 908.79,2610.76 942.79,2704.09 974,2798.5C 980.442,2818.26 985.275,2838.26 988.5,2858.5 Z"/></g>
<g><path style="opacity:1" fill="#b7b7b8" d="M 691.5,1978.5 C 686.5,1978.5 681.5,1978.5 676.5,1978.5C 676.169,2003.34 676.502,2028.01 677.5,2052.5C 677.167,2076.84 677.5,2101.18 678.5,2125.5C 692.733,2131.53 705.899,2139.19 718,2148.5C 722.908,2153.98 724.574,2160.31 723,2167.5C 717.234,2188.3 709.401,2208.3 699.5,2227.5C 710.637,2244.47 721.971,2261.3 733.5,2278C 584.167,2278.67 434.833,2278.67 285.5,2278C 297.124,2260.59 308.624,2243.09 320,2225.5C 327.166,2179.5 334.333,2133.5 341.5,2087.5C 341.449,2085.9 341.116,2084.4 340.5,2083C 333.882,2082.84 327.549,2081.51 321.5,2079C 302.292,2065.46 289.792,2047.29 284,2024.5C 282.612,2009.28 286.945,1995.95 297,1984.5C 309.128,1971.35 323.294,1961.02 339.5,1953.5C 340.666,1931.17 340.833,1908.84 340,1886.5C 303.741,1879.91 286.408,1858.25 288,1821.5C 292.274,1800.56 304.441,1786.39 324.5,1779C 330.675,1776.77 337.008,1775.27 343.5,1774.5C 343.227,1746.5 342.894,1718.5 342.5,1690.5C 320.897,1690.28 304.064,1681.28 292,1663.5C 284.68,1652.34 283.68,1640.68 289,1628.5C 295.981,1617.85 305.148,1609.68 316.5,1604C 324.383,1600.23 332.383,1596.73 340.5,1593.5C 341.5,1564.51 341.833,1535.51 341.5,1506.5C 327.014,1508.69 313.681,1505.85 301.5,1498C 281.871,1476.06 281.537,1453.72 300.5,1431C 311.99,1421.22 325.323,1416.06 340.5,1415.5C 340.5,1376.83 340.5,1338.17 340.5,1299.5C 330.508,1300.28 320.508,1300.45 310.5,1300C 296.035,1296.2 286.869,1287.04 283,1272.5C 279.483,1243.02 291.317,1222.52 318.5,1211C 325.944,1208.78 333.444,1206.95 341,1205.5C 341.76,1176.78 343.427,1148.11 346,1119.5C 348.289,1086.67 356.956,1055.67 372,1026.5C 399.501,980.341 439.668,952.174 492.5,942C 560.389,936.359 610.889,963.192 644,1022.5C 661.11,1052.94 670.11,1085.61 671,1120.5C 679.11,1121.71 687.277,1122.88 695.5,1124C 713.553,1127.72 724.72,1138.55 729,1156.5C 729.453,1188.04 715.286,1210.21 686.5,1223C 681.735,1224.2 677.069,1225.7 672.5,1227.5C 671.333,1253.49 671.167,1279.49 672,1305.5C 685.768,1312.89 698.102,1322.22 709,1333.5C 724.289,1353.14 724.289,1372.8 709,1392.5C 698.747,1403.93 686.913,1413.26 673.5,1420.5C 672.167,1449.17 672.167,1477.83 673.5,1506.5C 688.054,1511.36 700.554,1519.36 711,1530.5C 725.878,1554.06 723.044,1575.23 702.5,1594C 693.875,1598.99 684.542,1601.49 674.5,1601.5C 674.167,1630.51 674.5,1659.51 675.5,1688.5C 728.773,1704.47 736.107,1732.3 697.5,1772C 690.618,1777.88 683.452,1783.38 676,1788.5C 675.5,1822.17 675.333,1855.83 675.5,1889.5C 689.502,1887.25 703.168,1888.42 716.5,1893C 725.245,1897.65 730.745,1904.82 733,1914.5C 734.961,1931.99 730.961,1947.99 721,1962.5C 713.469,1972.18 703.636,1977.51 691.5,1978.5 Z"/></g>
<g><path style="opacity:1" fill="#49494a" d="M 691.5,1978.5 C 687.03,1979.49 682.363,1979.82 677.5,1979.5C 677.5,2003.83 677.5,2028.17 677.5,2052.5C 676.502,2028.01 676.169,2003.34 676.5,1978.5C 681.5,1978.5 686.5,1978.5 691.5,1978.5 Z"/></g>
<g><path style="opacity:1" fill="#fefefe" d="M 266.5,2307.5 C 429.167,2307.33 591.834,2307.5 754.5,2308C 813.856,2448.73 869.69,2590.89 922,2734.5C 935.822,2772.96 947.822,2811.96 958,2851.5C 960.378,2874.35 958.044,2896.68 951,2918.5C 939.714,2951.07 924.714,2981.74 906,3010.5C 890.16,3034.67 873.16,3058.01 855,3080.5C 797.485,3138.36 736.652,3192.2 672.5,3242C 628.153,3273.5 579.487,3295.84 526.5,3309C 497.847,3314.95 469.18,3314.95 440.5,3309C 392.224,3297.8 347.557,3278.47 306.5,3251C 253.48,3211.97 202.48,3170.3 153.5,3126C 122.533,3097.39 95.6994,3065.56 73,3030.5C 39.5455,2971.57 25.8788,2908.24 32,2840.5C 39.4475,2722.03 71.4475,2610.7 128,2506.5C 166.593,2434.77 212.76,2368.43 266.5,2307.5 Z"/></g>
<g><path style="opacity:1" fill="#020202" d="M 284.5,2940.5 C 308.386,2951.75 332.386,2962.91 356.5,2974C 397.988,2993.27 441.321,3006.27 486.5,3013C 525.022,3015.07 562.355,3009.4 598.5,2996C 618.451,2988.85 638.117,2981.02 657.5,2972.5C 658.167,2972.83 658.833,2973.17 659.5,2973.5C 663.167,2981.5 666.833,2989.5 670.5,2997.5C 624.141,3020.9 575.141,3035.73 523.5,3042C 507.811,3042.74 492.144,3042.41 476.5,3041C 428.959,3032.71 383.292,3018.38 339.5,2998C 317.712,2987.94 296.045,2977.61 274.5,2967C 273.483,2965.95 273.316,2964.78 274,2963.5C 278.06,2956.05 281.56,2948.38 284.5,2940.5 Z"/></g>
</svg>
