<?xml version="1.0" encoding="UTF-8"?>
<!DOCTYPE svg PUBLIC "-//W3C//DTD SVG 1.1//EN" "http://www.w3.org/Graphics/SVG/1.1/DTD/svg11.dtd">
<svg xmlns="http://www.w3.org/2000/svg" version="1.1" width="992px" height="3694px" style="shape-rendering:geometricPrecision; text-rendering:geometricPrecision; image-rendering:optimizeQuality; fill-rule:evenodd; clip-rule:evenodd" xmlns:xlink="http://www.w3.org/1999/xlink">
<g><path style="opacity:0.851" fill="#fdfdfd" d="M -0.5,-0.5 C 330.167,-0.5 660.833,-0.5 991.5,-0.5C 991.5,1230.83 991.5,2462.17 991.5,3693.5C 660.833,3693.5 330.167,3693.5 -0.5,3693.5C -0.5,2462.17 -0.5,1230.83 -0.5,-0.5 Z M 988.5,2858.5 C 985.786,2840.64 981.62,2822.97 976,2805.5C 962.52,2763.06 947.854,2721.06 932,2679.5C 879.648,2543.46 823.981,2408.8 765,2275.5C 750.221,2189.93 738.554,2103.93 730,2017.5C 711.585,1844.28 699.585,1670.61 694,1496.5C 691.467,1315.12 687.134,1133.79 681,952.5C 677.647,849.542 670.314,746.876 659,644.5C 653.974,602.806 638.308,565.806 612,533.5C 581.419,502.532 544.586,491.032 501.5,499C 468.244,505.612 441.077,522.112 420,548.5C 398.616,577.615 383.949,609.948 376,645.5C 372.47,660.682 369.803,676.015 368,691.5C 339.359,960.577 313.359,1229.91 290,1499.5C 271.416,1763.34 255.416,2027.34 242,2291.5C 154.845,2390.06 88.8448,2501.73 44,2626.5C 21.7023,2695.99 7.86902,2766.99 2.5,2839.5C 2.5,1893.83 2.5,948.167 2.5,2.5C 331.167,2.5 659.833,2.5 988.5,2.5C 988.5,954.5 988.5,1906.5 988.5,2858.5 Z M 988.5,2875.5 C 988.5,3147.17 988.5,3418.83 988.5,3690.5C 659.833,3690.5 331.167,3690.5 2.5,3690.5C 2.5,3425.5 2.5,3160.5 2.5,2895.5C 7.63123,2972.08 35.1312,3039.41 85,3097.5C 119.31,3135.15 156.144,3169.98 195.5,3202C 226.472,3226.82 257.805,3251.15 289.5,3275C 348.307,3315.21 413.307,3338.05 484.5,3343.5C 525.645,3341.51 564.978,3332.01 602.5,3315C 641.28,3298.46 676.947,3277.13 709.5,3251C 766.917,3204.18 822.084,3154.68 875,3102.5C 914.213,3056.78 945.88,3006.11 970,2950.5C 980.063,2926.32 986.23,2901.32 988.5,2875.5 Z"/></g>
<g><path style="opacity:0.981" fill="#010101" d="M 988.5,2858.5 C 988.5,2864.17 988.5,2869.83 988.5,2875.5C 986.23,2901.32 980.063,2926.32 970,2950.5C 945.88,3006.11 914.213,3056.78 875,3102.5C 822.084,3154.68 766.917,3204.18 709.5,3251C 676.947,3277.13 641.28,3298.46 602.5,3315C 564.978,3332.01 525.645,3341.51 484.5,3343.5C 413.307,3338.05 348.307,3315.21 289.5,3275C 257.805,3251.15 226.472,3226.82 195.5,3202C 156.144,3169.98 119.31,3135.15 85,3097.5C 35.1312,3039.41 7.63123,2972.08 2.5,2895.5C 2.5,2876.83 2.5,2858.17 2.5,2839.5C 7.86902,2766.99 21.7023,2695.99 44,2626.5C 88.8448,2501.73 154.845,2390.06 242,2291.5C 255.416,2027.34 271.416,1763.34 290,1499.5C 313.359,1229.91 339.359,960.577 368,691.5C 369.803,676.015 372.47,660.682 376,645.5C 383.949,609.948 398.616,577.615 420,548.5C 441.077,522.112 468.244,505.612 501.5,499C 544.586,491.032 581.419,502.532 612,533.5C 638.308,565.806 653.974,602.806 659,644.5C 670.314,746.876 677.647,849.542 681,952.5C 687.134,1133.79 691.467,1315.12 694,1496.5C 699.585,1670.61 711.585,1844.28 730,2017.5C 738.554,2103.93 750.221,2189.93 765,2275.5C 823.981,2408.8 879.648,2543.46 932,2679.5C 947.854,2721.06 962.52,2763.06 976,2805.5C 981.62,2822.97 985.786,2840.64 988.5,2858.5 Z"/></g>
<g><path style="opacity:1" fill="#fefefe" d="M 511.5,526.5 C 552.818,522.409 583.985,538.075 605,573.5C 617.712,596.301 626.045,620.634 630,646.5C 636.168,697.018 640.835,747.685 644,798.5C 652.066,941.06 657.399,1083.73 660,1226.5C 659.814,1454.63 669.814,1682.29 690,1909.5C 698.35,1997.98 708.017,2086.32 719,2174.5C 723.814,2210.52 729.647,2246.35 736.5,2282C 581.834,2282.5 427.167,2282.67 272.5,2282.5C 285.324,2022 300.824,1761.67 319,1501.5C 342.245,1231.89 368.245,962.555 397,693.5C 400.795,657.647 410.795,623.647 427,591.5C 440.221,565.946 459.721,546.779 485.5,534C 494.117,530.851 502.783,528.351 511.5,526.5 Z"/></g>
<g><path style="opacity:1" fill="#fefefe" d="M 263.5,2311.5 C 424.501,2311.17 585.501,2311.5 746.5,2312.5C 751.932,2319.02 756.098,2326.35 759,2334.5C 813.932,2460.96 865.932,2588.63 915,2717.5C 931.557,2761.5 945.89,2806.17 958,2851.5C 960.628,2878.4 956.962,2904.4 947,2929.5C 932.891,2965.39 914.891,2999.06 893,3030.5C 876.395,3054.78 857.895,3077.62 837.5,3099C 786.705,3147.36 734.039,3193.36 679.5,3237C 633.605,3270.61 582.938,3294.61 527.5,3309C 489.983,3316.59 452.983,3314.59 416.5,3303C 382.056,3292.19 349.389,3277.52 318.5,3259C 247.986,3209.85 182.152,3154.69 121,3093.5C 85.668,3056.87 60.0013,3014.2 44,2965.5C 32.0439,2919.54 28.3772,2872.88 33,2825.5C 41.7947,2718.31 70.7947,2616.98 120,2521.5C 159.457,2445.58 207.29,2375.58 263.5,2311.5 Z"/></g>
<g><path style="opacity:1" fill="#020202" d="M 285.5,2940.5 C 323.982,2959.91 363.315,2977.41 403.5,2993C 427.314,3001.37 451.647,3007.7 476.5,3012C 502.299,3014.5 527.966,3013.5 553.5,3009C 589.515,3000.22 624.348,2988.05 658,2972.5C 662.665,2980.5 666.831,2988.83 670.5,2997.5C 626.835,3019.33 580.835,3033.83 532.5,3041C 516.856,3042.41 501.189,3042.74 485.5,3042C 454.003,3037.97 423.337,3030.64 393.5,3020C 352.248,3004.14 311.915,2986.14 272.5,2966C 276.974,2957.55 281.307,2949.05 285.5,2940.5 Z"/></g>
</svg>
