<?xml version="1.0" encoding="UTF-8"?>
<!DOCTYPE svg PUBLIC "-//W3C//DTD SVG 1.1//EN" "http://www.w3.org/Graphics/SVG/1.1/DTD/svg11.dtd">
<svg xmlns="http://www.w3.org/2000/svg" version="1.1" width="957px" height="3694px" style="shape-rendering:geometricPrecision; text-rendering:geometricPrecision; image-rendering:optimizeQuality; fill-rule:evenodd; clip-rule:evenodd" xmlns:xlink="http://www.w3.org/1999/xlink">
<g><path style="opacity:0.767" fill="#fefefe" d="M -0.5,-0.5 C 318.5,-0.5 637.5,-0.5 956.5,-0.5C 956.5,1230.83 956.5,2462.17 956.5,3693.5C 637.5,3693.5 318.5,3693.5 -0.5,3693.5C -0.5,2462.17 -0.5,1230.83 -0.5,-0.5 Z M 2.5,671.5 C 7.59448,740.533 26.0945,805.866 58,867.5C 81.1566,913.148 104.823,958.482 129,1003.5C 150.187,1043.2 169.187,1083.87 186,1125.5C 191.248,1139.83 195.248,1154.49 198,1169.5C 204.237,1210.97 208.57,1252.63 211,1294.5C 232.034,1612.05 251.034,1929.71 268,2247.5C 272.416,2339.82 276.416,2432.15 280,2524.5C 288.767,2644.87 305.101,2764.21 329,2882.5C 338.181,2932.05 354.514,2979.05 378,3023.5C 389.16,3042.65 403.66,3058.81 421.5,3072C 429.26,3076.71 437.593,3080.04 446.5,3082C 475.151,3084.8 502.485,3080.14 528.5,3068C 540.893,3061.2 551.727,3052.37 561,3041.5C 586.52,3007.79 605.187,2970.46 617,2929.5C 636.681,2860.09 649.681,2789.42 656,2717.5C 662.034,2655.97 664.034,2594.3 662,2532.5C 659.557,2444.51 657.391,2356.51 655.5,2268.5C 658.969,2165.42 664.136,2062.42 671,1959.5C 684.115,1751.44 698.115,1543.44 713,1335.5C 715.392,1301.31 719.392,1267.31 725,1233.5C 729.825,1214.02 736.825,1195.36 746,1177.5C 768.731,1133.03 792.731,1089.36 818,1046.5C 845.582,1000.33 873.915,954.663 903,909.5C 927.756,868.65 944.089,824.65 952,777.5C 956.045,725.816 948.712,675.816 930,627.5C 918.242,601.43 902.909,577.763 884,556.5C 841.436,509.269 796.27,464.769 748.5,423C 669.002,354.16 588.336,286.827 506.5,221C 463.009,192.063 416.342,185.729 366.5,202C 340.338,211.073 317.004,224.739 296.5,243C 264.5,273 232.5,303 200.5,333C 157.505,374.989 116.339,418.489 77,463.5C 29.9765,521.061 5.14319,587.061 2.5,661.5C 2.5,441.833 2.5,222.167 2.5,2.5C 319.833,2.5 637.167,2.5 954.5,2.5C 954.5,1231.83 954.5,2461.17 954.5,3690.5C 637.167,3690.5 319.833,3690.5 2.5,3690.5C 2.5,2684.17 2.5,1677.83 2.5,671.5 Z"/></g>
<g><path style="opacity:0.981" fill="#010101" d="M 2.5,671.5 C 2.5,668.167 2.5,664.833 2.5,661.5C 5.14319,587.061 29.9765,521.061 77,463.5C 116.339,418.489 157.505,374.989 200.5,333C 232.5,303 264.5,273 296.5,243C 317.004,224.739 340.338,211.073 366.5,202C 416.342,185.729 463.009,192.063 506.5,221C 588.336,286.827 669.002,354.16 748.5,423C 796.27,464.769 841.436,509.269 884,556.5C 902.909,577.763 918.242,601.43 930,627.5C 948.712,675.816 956.045,725.816 952,777.5C 944.089,824.65 927.756,868.65 903,909.5C 873.915,954.663 845.582,1000.33 818,1046.5C 792.731,1089.36 768.731,1133.03 746,1177.5C 736.825,1195.36 729.825,1214.02 725,1233.5C 719.392,1267.31 715.392,1301.31 713,1335.5C 698.115,1543.44 684.115,1751.44 671,1959.5C 664.136,2062.42 658.969,2165.42 655.5,2268.5C 657.391,2356.51 659.557,2444.51 662,2532.5C 664.034,2594.3 662.034,2655.97 656,2717.5C 649.681,2789.42 636.681,2860.09 617,2929.5C 605.187,2970.46 586.52,3007.79 561,3041.5C 551.727,3052.37 540.893,3061.2 528.5,3068C 502.485,3080.14 475.151,3084.8 446.5,3082C 437.593,3080.04 429.26,3076.71 421.5,3072C 403.66,3058.81 389.16,3042.65 378,3023.5C 354.514,2979.05 338.181,2932.05 329,2882.5C 305.101,2764.21 288.767,2644.87 280,2524.5C 276.416,2432.15 272.416,2339.82 268,2247.5C 251.034,1929.71 232.034,1612.05 211,1294.5C 208.57,1252.63 204.237,1210.97 198,1169.5C 195.248,1154.49 191.248,1139.83 186,1125.5C 169.187,1083.87 150.187,1043.2 129,1003.5C 104.823,958.482 81.1566,913.148 58,867.5C 26.0945,805.866 7.59448,740.533 2.5,671.5 Z"/></g>
<g><path style="opacity:1" fill="#fefefe" d="M 683.5,1341.5 C 682.532,1343.61 682.198,1345.94 682.5,1348.5C 536.167,1348.5 389.833,1348.5 243.5,1348.5C 241.214,1284.83 235.381,1221.5 226,1158.5C 221.005,1136.18 214.005,1114.52 205,1093.5C 198.667,1079.5 192.333,1065.5 186,1051.5C 157.844,995.853 129.177,940.519 100,885.5C 85.2397,856.648 71.573,827.314 59,797.5C 40.386,747.149 31.7193,695.149 33,641.5C 39.5232,580.812 62.1898,527.146 101,480.5C 117.592,460.57 134.926,441.237 153,422.5C 207.619,367.211 263.452,313.378 320.5,261C 341.689,242.906 366.022,230.906 393.5,225C 425.199,219.004 454.866,224.338 482.5,241C 489.672,245.419 496.672,250.085 503.5,255C 557.541,300.71 611.874,346.043 666.5,391C 726.982,441.379 784.816,494.879 840,551.5C 858.901,571.392 875.901,592.725 891,615.5C 911.507,653.19 922.507,693.523 924,736.5C 925.456,769.305 920.123,800.972 908,831.5C 901.095,849.312 893.095,866.646 884,883.5C 843.662,947.5 804.329,1012.17 766,1077.5C 745.772,1112.62 727.106,1148.62 710,1185.5C 702.044,1202.37 696.711,1220.04 694,1238.5C 688.705,1272.65 685.205,1306.98 683.5,1341.5 Z"/></g>
<g><path style="opacity:1" fill="#575757" d="M 683.5,1341.5 C 683.5,1344.17 683.5,1346.83 683.5,1349.5C 536.666,1349.83 389.999,1349.5 243.5,1348.5C 389.833,1348.5 536.167,1348.5 682.5,1348.5C 682.198,1345.94 682.532,1343.61 683.5,1341.5 Z"/></g>
<g><path style="opacity:1" fill="#fefefe" d="M 245.5,1377.5 C 390.5,1377.5 535.5,1377.5 680.5,1377.5C 659.771,1660.64 641.937,1943.98 627,2227.5C 627.323,2327.53 629.323,2427.53 633,2527.5C 636.165,2637.53 627.165,2746.53 606,2854.5C 598.522,2891.12 587.856,2926.79 574,2961.5C 563.76,2986.04 549.927,3008.21 532.5,3028C 511.999,3045.39 488.166,3053.89 461,3053.5C 450.294,3053.93 440.794,3050.76 432.5,3044C 420.992,3034.15 411.492,3022.65 404,3009.5C 387.413,2979.08 374.746,2947.08 366,2913.5C 327.436,2740.32 306.769,2564.98 304,2387.5C 287.957,2050.61 268.457,1713.94 245.5,1377.5 Z"/></g>
</svg>
