<?xml version="1.0" encoding="UTF-8"?>
<svg version="1.1" xmlns="http://www.w3.org/2000/svg" width="992" height="3694">
<path d="M0 0 C327.36 0 654.72 0 992 0 C992 1219.02 992 2438.04 992 3694 C664.64 3694 337.28 3694 0 3694 C0 2474.98 0 1255.96 0 0 Z M3 3 C3 939.21 3 1875.42 3 2840 C3.33 2840 3.66 2840 4 2840 C4.08975098 2838.82123291 4.17950195 2837.64246582 4.27197266 2836.42797852 C7.38167895 2796.12609249 12.65778163 2756.55552491 21 2717 C21.21109406 2715.99670654 21.21109406 2715.99670654 21.42645264 2714.97314453 C28.39689993 2681.95832322 37.24906865 2649.80586124 48.32739258 2617.94293213 C49.29879507 2615.13688352 50.2490666 2612.32370372 51.203125 2609.51171875 C74.60394819 2541.56018552 109.259455 2475.74794393 149 2416 C150.24365451 2414.11599428 151.48713072 2412.23187085 152.73046875 2410.34765625 C173.46177289 2379.01214943 195.44667834 2348.75675999 219.46484375 2319.85546875 C220.84063851 2318.19261249 222.20531473 2316.52180335 223.5625 2314.84375 C227.87720255 2309.51029824 232.31712235 2304.34309806 236.95703125 2299.2890625 C237.63121094 2298.53367187 238.30539063 2297.77828125 239 2297 C239.68213562 2296.32614226 240.36427124 2295.65228453 241.06707764 2294.95800686 C243.77680029 2290.8112401 243.76392119 2287.24947109 243.96972656 2282.38282776 C244.02591465 2281.40528023 244.08210273 2280.42773269 244.13999349 2279.42056251 C244.32454461 2276.13076925 244.48243756 2272.84023087 244.640625 2269.54907227 C244.76817604 2267.17862723 244.89738181 2264.80827074 245.02810955 2262.43799877 C245.30826534 2257.29179279 245.57696685 2252.14512021 245.83563805 2246.9977951 C246.21720492 2239.40741251 246.62037044 2231.81828917 247.02854388 2224.22929631 C247.70815165 2211.58501483 248.37167193 2198.93994047 249.02627563 2186.29434204 C249.9590146 2168.28142214 250.91678763 2150.26988697 251.88172324 2132.25866602 C252.00861238 2129.89009826 252.13544511 2127.52152748 252.26225841 2125.15295565 C252.30414837 2124.37055382 252.34603833 2123.588152 252.38919768 2122.78204102 C252.43110721 2121.99927027 252.47301674 2121.21649951 252.51619625 2120.41000843 C252.77044907 2115.6613405 253.02473877 2110.91267455 253.27916354 2106.16401583 C253.83326108 2095.82021779 254.38475331 2085.47628321 254.93490826 2075.13227478 C257.84665139 2020.39607574 260.91869602 1965.67009332 264.12848091 1910.9505024 C264.31300308 1907.80392117 264.49728537 1904.65732598 264.6815033 1901.51072693 C269.73471929 1815.21435574 274.99868929 1728.93095955 283.89134216 1594.97674179 C284.11283414 1591.74026926 284.33221274 1588.50366116 284.55090332 1585.26699829 C289.90615936 1506.25044924 297.19283763 1427.35926357 304.39156723 1348.49366045 C304.79419923 1344.08049091 305.19609259 1339.66725422 305.59800875 1335.25401944 C315.97950362 1221.27126388 326.74665999 1107.32406828 362.20710784 753.93323547 C362.64619129 749.79032069 363.08335181 745.64720988 363.51864141 741.50389481 C380.63910912 578.55822862 380.63910912 578.55822862 440.92578125 528.57421875 C461.39671745 512.22616154 484.14513311 502.67396836 510 499 C510.81339844 498.86851562 511.62679688 498.73703125 512.46484375 498.6015625 C541.42333016 494.48845695 571.72036266 502.22679386 595.25 519.375 C604.6027215 526.70381268 613.03261453 534.3421123 620 544 C620.43393066 544.59184082 620.86786133 545.18368164 621.31494141 545.79345703 C635.62469033 565.50311121 645.39520222 587.62129336 652 611 C652.27005859 611.94214355 652.54011719 612.88428711 652.81835938 613.85498047 C677.39702379 702.71747274 674.04688943 806.18925828 690.73168492 1325.57984233 C690.78126519 1328.44228338 690.8309388 1331.30472279 690.88062859 1334.16716194 C691.1876282 1351.86184104 691.49315061 1369.55653739 691.7821548 1387.25152069 C692.72948298 1445.24270781 693.8374275 1503.24380203 696.22787857 1561.19681549 C696.31758345 1563.37334072 696.40592639 1565.54991905 696.49423218 1567.72650146 C700.30541705 1661.15417967 706.41322976 1754.4889001 760.875 2254.3125 C761.01457123 2255.1281543 761.15414246 2255.94380859 761.29794312 2256.78417969 C763.52563965 2269.69731891 767.21936723 2280.80780173 772.5 2292.8125 C773.06877439 2294.11444797 773.63703442 2295.41662074 774.20483398 2296.71899414 C775.1293771 2298.83952189 776.05420497 2300.95992089 776.98033142 2303.07975769 C781.03242267 2312.3549733 785.0488923 2321.64558009 789.0625 2330.9375 C789.46194824 2331.8621405 789.86139648 2332.78678101 790.27294922 2333.73944092 C799.9385907 2356.12138169 809.48517313 2378.55360086 819 2401 C819.40603455 2401.9575116 819.81206909 2402.91502319 820.23040771 2403.90155029 C830.84202317 2428.92722824 841.36319581 2453.98857121 851.74005127 2479.11253357 C853.99521457 2484.57217709 856.25585525 2490.02951717 858.5202179 2495.48535156 C868.2520693 2518.93575065 877.84608661 2542.43455864 887.22337341 2566.02902222 C889.2452654 2571.11373767 891.28252523 2576.19198301 893.33203125 2581.265625 C904.09824942 2607.94554478 914.40422308 2634.80354445 924.71697998 2661.66125488 C925.91238412 2664.77200114 927.11010017 2667.88184219 928.30908203 2670.99121094 C937.96943559 2696.04678337 947.25629274 2721.21508874 956.14257812 2746.55596924 C956.97350895 2748.92448881 957.8068538 2751.29214703 958.640625 2753.65966797 C985.23911291 2829.29666303 985.23911291 2829.29666303 988 2859 C988.33 2859 988.66 2859 989 2859 C989 1916.52 989 974.04 989 3 C663.62 3 338.24 3 3 3 Z M988 2876 C987.91363281 2877.10472656 987.82726562 2878.20945312 987.73828125 2879.34765625 C986.11355328 2898.04323999 982.17464113 2916.28051929 976 2934 C975.64131836 2935.04873291 975.64131836 2935.04873291 975.27539062 2936.11865234 C958.4298885 2985.02040883 930.83229063 3029.73282549 900 3071 C899.56816406 3071.57814453 899.13632812 3072.15628906 898.69140625 3072.75195312 C892.22292479 3081.36651956 885.44347766 3089.73566904 878.60058594 3098.05419922 C877.55745206 3099.32231651 876.5163339 3100.59209542 875.47753906 3101.86376953 C870.72509548 3107.67248712 866.04402229 3113.27446725 860.2265625 3118.0625 C856.59967588 3121.21852765 853.27655052 3124.68121595 849.91845703 3128.11914062 C846.43819391 3131.65444047 842.81485917 3134.94839411 839.06201172 3138.19189453 C835.55835655 3141.26412638 832.19242123 3144.48052508 828.8125 3147.6875 C827.32074238 3149.09680934 825.82855042 3150.50565905 824.3359375 3151.9140625 C823.6047168 3152.6040332 822.87349609 3153.29400391 822.12011719 3154.00488281 C815.23231269 3160.48658921 808.30496671 3166.9209761 801.14453125 3173.1015625 C798.85183788 3175.13115991 796.61350851 3177.2118628 794.375 3179.30078125 C789.00866302 3184.30687801 783.53979023 3189.06109854 777.8125 3193.65625 C774.60148284 3196.33209763 771.54992822 3199.14379613 768.5 3202 C763.77366602 3206.42094009 758.92634749 3210.60066403 753.87890625 3214.65625 C750.53396494 3217.37940439 747.26560823 3220.18269037 744 3223 C739.03690671 3227.27327345 734.03375916 3231.48521123 728.9453125 3235.609375 C726.76382066 3237.38002885 724.59353301 3239.16117256 722.4296875 3240.953125 C712.92959475 3248.79058139 703.16157448 3256.19274722 693.18652344 3263.41455078 C691.23532796 3264.82936358 689.29220142 3266.25436135 687.3515625 3267.68359375 C670.47709536 3280.03515842 652.50981677 3290.31512718 634 3300 C633.09411133 3300.47824219 632.18822266 3300.95648437 631.25488281 3301.44921875 C558.11556123 3339.88976024 481.51529007 3353.55843572 401.73046875 3328.77734375 C385.08675603 3323.45638945 368.91643032 3317.23060007 353 3310 C351.89027832 3309.49597656 350.78055664 3308.99195312 349.63720703 3308.47265625 C320.3575219 3295.04076294 294.55134681 3278.44782595 269.0859375 3258.89453125 C264.60511924 3255.45531408 260.09145813 3252.06292386 255.5625 3248.6875 C248.85952325 3243.68058838 242.2668024 3238.54513081 235.70898438 3233.35009766 C234.00308513 3232.00243725 232.2916741 3230.66213522 230.578125 3229.32421875 C222.23851678 3222.8092322 214.00423431 3216.17159282 205.80859375 3209.4765625 C204.2076452 3208.16952459 202.60402024 3206.86576644 201 3205.5625 C193.9208923 3199.80043559 186.94788107 3193.91893108 180 3188 C179.41250977 3187.50032715 178.82501953 3187.0006543 178.21972656 3186.48583984 C171.47272845 3180.7441408 164.78013075 3174.95814624 158.21875 3169.00390625 C156.20691607 3167.18688018 154.17339566 3165.40055608 152.125 3163.625 C144.73434686 3157.17879138 137.47898635 3150.57858609 130.609375 3143.578125 C128.96611661 3141.96677454 127.25669804 3140.48643681 125.5 3139 C116.72338554 3131.42566149 108.33633875 3123.00792503 100.86328125 3114.14453125 C98.73445535 3111.69437313 96.52076844 3109.33635056 94.29760742 3106.97192383 C88.55369915 3100.85785797 83.12990897 3094.64350402 78 3088 C76.9309996 3086.65910915 75.8605542 3085.31936966 74.7890625 3083.98046875 C63.48357799 3069.77310829 53.74050016 3054.94047067 45.08398438 3038.98730469 C44.01449468 3037.02657358 42.92285221 3035.07954016 41.828125 3033.1328125 C18.10901198 2990.35294428 7.94376688 2944.30746087 4 2896 C3.67 2896 3.34 2896 3 2896 C3 3158.35 3 3420.7 3 3691 C328.38 3691 653.76 3691 989 3691 C989 3422.05 989 3153.1 989 2876 C988.67 2876 988.34 2876 988 2876 Z " fill="#FEFEFE" transform="translate(0,0)"/>
<path d="M0 0 C21.50993053 17.91558182 34.05677852 42.95106713 42.58544922 69.17919922 C42.91851074 70.18926025 42.91851074 70.18926025 43.25830078 71.21972656 C47.80197869 85.89018587 50.0341858 101.15813662 51.83544922 116.36669922 C52.04609826 118.10011294 52.25687616 119.833511 52.46777344 121.56689453 C56.72411355 156.91988319 60.78285251 192.65304215 62.04516602 228.25610352 C62.17325056 231.83340644 62.38684724 235.3577673 62.81483459 238.91285706 C63.31642608 243.32090846 63.63268787 247.71879072 63.8762207 252.14770508 C63.921922 252.942966 63.96762329 253.73822693 64.01470947 254.55758667 C64.16425902 257.16961495 64.31040463 259.78182181 64.45654297 262.39404297 C64.56220344 264.25030247 64.66808878 266.10654918 64.77418518 267.96278381 C65.05335348 272.85682556 65.32968532 277.7510233 65.60534668 282.64526367 C65.93309811 288.45598859 66.26402318 294.26653334 66.59455299 300.07710075 C66.86503959 304.83278391 67.13506865 309.58849176 67.40390015 314.3442688 C67.89253802 322.97798473 68.38664898 331.61125049 68.90625 340.24316406 C69.87231295 356.3004449 70.73954611 372.35317621 71.33544922 388.42919922 C71.41739825 390.56982737 71.49943254 392.71045225 71.58154297 394.85107422 C72.32509881 414.47793994 72.95466024 434.10885996 73.55029297 453.74072266 C73.90222071 465.16826078 74.28022627 476.59216941 74.77075195 488.01464844 C76.42183072 526.79291684 77.31914436 565.58362145 78.20449007 604.38537669 C78.35334307 610.89518085 78.50599466 617.40488772 78.66088867 623.91455078 C79.64234465 665.17954118 80.49202856 706.44094788 81.00831604 747.71452332 C81.04489999 750.63504172 81.08158983 753.55555876 81.1184082 756.47607422 C81.1317029 757.53270655 81.1317029 757.53270655 81.14526618 758.61068499 C81.395354 778.34053002 81.8194416 798.06610194 82.27112961 817.79219437 C82.47634383 826.80388728 82.67305605 835.81577317 82.87060547 844.82763672 C82.90268443 846.28392455 82.90268443 846.28392455 82.93541145 847.76963234 C83.23843894 861.56007647 83.48412655 875.34989053 83.6784668 889.14233398 C84.50048614 947.37594308 86.6973901 1005.59772388 89.26974106 1063.7774353 C89.39589751 1066.63276238 89.5210558 1069.48813202 89.64614868 1072.34350586 C90.49981261 1091.74407344 91.48821233 1111.11580848 92.89575195 1130.48486328 C93.44708784 1138.09796141 93.85457897 1145.71563498 94.22683716 1153.33926392 C94.85890733 1166.22912647 95.57245392 1179.11279331 96.39794922 1191.99169922 C96.51686523 1193.87574463 96.51686523 1193.87574463 96.63818359 1195.79785156 C97.00379301 1201.39336545 97.45355118 1206.95055353 98.11450195 1212.51831055 C98.62271452 1217.48868556 98.73966455 1222.49159419 98.94091797 1227.48193359 C98.97830078 1228.32433594 99.01568359 1229.16673828 99.05419922 1230.03466797 C99.08449219 1230.78385498 99.11478516 1231.53304199 99.14599609 1232.30493164 C99.30324158 1234.74484687 99.30324158 1234.74484687 99.81072998 1237.38632202 C100.36140284 1240.84207122 100.66586961 1244.24953175 100.92041016 1247.73950195 C100.97115094 1248.42368855 101.02189173 1249.10787516 101.07417011 1249.81279469 C101.18403437 1251.29836922 101.29265449 1252.78403619 101.40016365 1254.26978302 C101.5735089 1256.66367836 101.75033729 1259.05729445 101.92808533 1261.4508667 C102.18294996 1264.88516752 102.43669195 1268.31954827 102.68954468 1271.7539978 C105.0112582 1303.2469379 107.59037993 1334.69825882 110.54740906 1366.13848877 C111.300316 1374.18584482 111.96853558 1382.23805102 112.60803223 1390.29507446 C116.96358099 1445.00782733 123.42230093 1499.54826596 129.94596863 1554.03613281 C130.86036283 1561.67958113 131.76525056 1569.32406894 132.66149902 1576.96966553 C136.28377873 1607.84429703 140.31022512 1638.62109839 144.98382568 1669.35449219 C145.47108574 1672.57594006 145.9445357 1675.79937244 146.41748047 1679.02294922 C148.68065213 1694.29495827 151.35785527 1709.49371229 154.05029297 1724.69482422 C154.2764328 1725.97249916 154.2764328 1725.97249916 154.50714111 1727.27598572 C154.79397466 1728.89443933 155.08166333 1730.51274167 155.37030029 1732.13087463 C156.33544922 1737.56985124 156.33544922 1737.56985124 156.33544922 1738.67919922 C3.21544922 1738.67919922 -149.90455078 1738.67919922 -307.66455078 1738.67919922 C-307.66455078 1719.12677002 -307.66455078 1719.12677002 -307.29736328 1711.47607422 C-307.25853027 1710.60346954 -307.21969727 1709.73086487 -307.1796875 1708.83181763 C-307.05375316 1706.03073916 -306.92200503 1703.22997637 -306.78955078 1700.42919922 C-306.69683326 1698.41895024 -306.60422459 1696.40869623 -306.51171875 1694.3984375 C-305.04131817 1662.71401387 -303.16004871 1631.05618659 -301.26154041 1599.39512253 C-299.73623213 1573.95676074 -298.24933003 1548.51879091 -296.98486328 1523.06591797 C-296.73268429 1517.99949044 -296.48005624 1512.93308554 -296.22705078 1507.86669922 C-296.16364502 1506.59531097 -296.10023926 1505.32392273 -296.03491211 1504.01400757 C-295.13376856 1486.02268807 -294.09755497 1468.04586841 -292.90893555 1450.07138062 C-292.06380577 1437.27775757 -291.32579116 1424.48664818 -290.72705078 1411.67919922 C-289.87434354 1393.45172551 -288.70983535 1375.24627646 -287.5298233 1357.03774643 C-286.44920944 1340.36043996 -285.40193061 1323.68522892 -284.60205078 1306.99169922 C-283.92788291 1292.94693907 -283.02745897 1278.92729576 -282.03491211 1264.90158081 C-280.74291435 1246.58784012 -279.71472438 1228.26288298 -278.75463867 1209.92895508 C-278.11644815 1197.89345208 -277.329356 1185.88214244 -276.37510681 1173.8674469 C-275.72321123 1165.61626876 -275.19754942 1157.36619589 -274.77316284 1149.10049438 C-274.57920581 1145.33465431 -274.37342083 1141.5694537 -274.16845703 1137.80419922 C-274.12733292 1137.0461348 -274.0862088 1136.28807037 -274.0438385 1135.5070343 C-273.6427018 1128.16841348 -273.19904012 1120.83273101 -272.73022461 1113.49813843 C-272.60597515 1111.55313143 -272.48386093 1109.60798839 -272.36181641 1107.6628418 C-271.99686898 1102.02724088 -271.55177214 1096.42993977 -270.88549805 1090.82250977 C-270.46934138 1086.78556016 -270.33292831 1082.73273223 -270.16455078 1078.67919922 C-269.96298297 1073.8266409 -269.73735078 1069.00788469 -269.16455078 1064.18310547 C-268.48870571 1058.48723344 -268.29465012 1052.78004047 -268.05908203 1047.05224609 C-268.02169922 1046.21628906 -267.98431641 1045.38033203 -267.94580078 1044.51904297 C-267.91550781 1043.78032959 -267.88521484 1043.04161621 -267.85400391 1042.28051758 C-267.69938545 1040.15750251 -267.45325615 1038.04131918 -267.1809082 1035.93017578 C-266.61886303 1031.5676725 -266.35174605 1027.21458198 -266.12158203 1022.82373047 C-266.02055657 1021.02608358 -265.91879023 1019.22847823 -265.81640625 1017.4309082 C-265.76208435 1016.4719162 -265.70776245 1015.51292419 -265.65179443 1014.52487183 C-264.46117536 993.85829473 -262.86325566 973.23601345 -261.03955078 952.61669922 C-260.97800938 951.92077667 -260.91646797 951.22485413 -260.85306168 950.50784302 C-260.25367244 943.73653041 -259.65075624 936.96553346 -259.04527283 930.19476318 C-257.83821493 916.68872094 -256.65857862 903.18036372 -255.48486328 889.67138672 C-255.101133 885.25650531 -254.71733717 880.84162959 -254.33349609 876.42675781 C-254.23738289 875.3212665 -254.14126968 874.21577518 -254.04224396 873.07678413 C-251.22799231 840.71842107 -248.39972007 808.36118212 -245.47219849 776.01284409 C-245.29423203 774.04350104 -245.11719621 772.07407396 -244.94018555 770.10464478 C-243.65292268 755.80394424 -242.24561148 741.5229282 -240.69273376 727.24855042 C-239.94734264 720.38242024 -239.24254603 713.51966948 -238.66398621 706.63726807 C-237.27662895 690.1453412 -235.74627073 673.66706606 -234.19824815 657.18955684 C-234.00464004 655.12851026 -233.81121591 653.06744647 -233.61781883 651.00638008 C-230.36718384 616.37308541 -227.04882888 581.7462888 -223.71790552 547.12063694 C-223.47435239 544.58864666 -223.23087106 542.05664949 -222.98740768 539.52465057 C-214.49559498 451.21464579 -205.84852977 362.92025941 -196.66455078 274.67919922 C-196.59440262 274.00497421 -196.52425446 273.33074921 -196.45198059 272.63609314 C-193.50518113 244.3162937 -190.53592942 215.99830696 -187.41552734 187.69702148 C-187.21335919 185.8629579 -187.01121046 184.02889218 -186.80908203 182.19482422 C-186.71114349 181.30665512 -186.61320496 180.41848602 -186.51229858 179.50340271 C-185.86743066 173.62236027 -185.2631305 167.73815324 -184.67626953 161.85107422 C-179.34969186 109.03677183 -166.4041564 53.20571798 -128.66455078 13.67919922 C-128.12830078 13.07978516 -127.59205078 12.48037109 -127.03955078 11.86279297 C-95.66665555 -21.94150164 -36.45108276 -28.92349042 0 0 Z " fill="#FEFEFE" transform="translate(580.66455078125,544.32080078125)"/>
<path d="M0 0 C327.36 0 654.72 0 992 0 C992 1219.02 992 2438.04 992 3694 C664.64 3694 337.28 3694 0 3694 C0 2474.98 0 1255.96 0 0 Z M3 3 C3 939.21 3 1875.42 3 2840 C3.33 2840 3.66 2840 4 2840 C4.08975098 2838.82123291 4.17950195 2837.64246582 4.27197266 2836.42797852 C7.38167895 2796.12609249 12.65778163 2756.55552491 21 2717 C21.21109406 2715.99670654 21.21109406 2715.99670654 21.42645264 2714.97314453 C28.39689993 2681.95832322 37.24906865 2649.80586124 48.32739258 2617.94293213 C49.29879507 2615.13688352 50.2490666 2612.32370372 51.203125 2609.51171875 C74.60394819 2541.56018552 109.259455 2475.74794393 149 2416 C150.24365451 2414.11599428 151.48713072 2412.23187085 152.73046875 2410.34765625 C173.46177289 2379.01214943 195.44667834 2348.75675999 219.46484375 2319.85546875 C220.84063851 2318.19261249 222.20531473 2316.52180335 223.5625 2314.84375 C227.87720255 2309.51029824 232.31712235 2304.34309806 236.95703125 2299.2890625 C237.63121094 2298.53367187 238.30539063 2297.77828125 239 2297 C239.68213562 2296.32614226 240.36427124 2295.65228453 241.06707764 2294.95800686 C243.77680029 2290.8112401 243.76392119 2287.24947109 243.96972656 2282.38282776 C244.02591465 2281.40528023 244.08210273 2280.42773269 244.13999349 2279.42056251 C244.32454461 2276.13076925 244.48243756 2272.84023087 244.640625 2269.54907227 C244.76817604 2267.17862723 244.89738181 2264.80827074 245.02810955 2262.43799877 C245.30826534 2257.29179279 245.57696685 2252.14512021 245.83563805 2246.9977951 C246.21720492 2239.40741251 246.62037044 2231.81828917 247.02854388 2224.22929631 C247.70815165 2211.58501483 248.37167193 2198.93994047 249.02627563 2186.29434204 C249.9590146 2168.28142214 250.91678763 2150.26988697 251.88172324 2132.25866602 C252.00861238 2129.89009826 252.13544511 2127.52152748 252.26225841 2125.15295565 C252.30414837 2124.37055382 252.34603833 2123.588152 252.38919768 2122.78204102 C252.43110721 2121.99927027 252.47301674 2121.21649951 252.51619625 2120.41000843 C252.77044907 2115.6613405 253.02473877 2110.91267455 253.27916354 2106.16401583 C253.83326108 2095.82021779 254.38475331 2085.47628321 254.93490826 2075.13227478 C257.84665139 2020.39607574 260.91869602 1965.67009332 264.12848091 1910.9505024 C264.31300308 1907.80392117 264.49728537 1904.65732598 264.6815033 1901.51072693 C269.73471929 1815.21435574 274.99868929 1728.93095955 283.89134216 1594.97674179 C284.11283414 1591.74026926 284.33221274 1588.50366116 284.55090332 1585.26699829 C289.90615936 1506.25044924 297.19283763 1427.35926357 304.39156723 1348.49366045 C304.79419923 1344.08049091 305.19609259 1339.66725422 305.59800875 1335.25401944 C315.97950362 1221.27126388 326.74665999 1107.32406828 362.20710784 753.93323547 C362.64619129 749.79032069 363.08335181 745.64720988 363.51864141 741.50389481 C380.63910912 578.55822862 380.63910912 578.55822862 440.92578125 528.57421875 C461.39671745 512.22616154 484.14513311 502.67396836 510 499 C510.81339844 498.86851562 511.62679688 498.73703125 512.46484375 498.6015625 C541.42333016 494.48845695 571.72036266 502.22679386 595.25 519.375 C604.6027215 526.70381268 613.03261453 534.3421123 620 544 C620.43393066 544.59184082 620.86786133 545.18368164 621.31494141 545.79345703 C635.62469033 565.50311121 645.39520222 587.62129336 652 611 C652.27005859 611.94214355 652.54011719 612.88428711 652.81835938 613.85498047 C677.39702379 702.71747274 674.04688943 806.18925828 690.73168492 1325.57984233 C690.78126519 1328.44228338 690.8309388 1331.30472279 690.88062859 1334.16716194 C691.1876282 1351.86184104 691.49315061 1369.55653739 691.7821548 1387.25152069 C692.72948298 1445.24270781 693.8374275 1503.24380203 696.22787857 1561.19681549 C696.31758345 1563.37334072 696.40592639 1565.54991905 696.49423218 1567.72650146 C700.30541705 1661.15417967 706.41322976 1754.4889001 760.875 2254.3125 C761.01457123 2255.1281543 761.15414246 2255.94380859 761.29794312 2256.78417969 C763.52563965 2269.69731891 767.21936723 2280.80780173 772.5 2292.8125 C773.06877439 2294.11444797 773.63703442 2295.41662074 774.20483398 2296.71899414 C775.1293771 2298.83952189 776.05420497 2300.95992089 776.98033142 2303.07975769 C781.03242267 2312.3549733 785.0488923 2321.64558009 789.0625 2330.9375 C789.46194824 2331.8621405 789.86139648 2332.78678101 790.27294922 2333.73944092 C799.9385907 2356.12138169 809.48517313 2378.55360086 819 2401 C819.40603455 2401.9575116 819.81206909 2402.91502319 820.23040771 2403.90155029 C830.84202317 2428.92722824 841.36319581 2453.98857121 851.74005127 2479.11253357 C853.99521457 2484.57217709 856.25585525 2490.02951717 858.5202179 2495.48535156 C868.2520693 2518.93575065 877.84608661 2542.43455864 887.22337341 2566.02902222 C889.2452654 2571.11373767 891.28252523 2576.19198301 893.33203125 2581.265625 C904.09824942 2607.94554478 914.40422308 2634.80354445 924.71697998 2661.66125488 C925.91238412 2664.77200114 927.11010017 2667.88184219 928.30908203 2670.99121094 C937.96943559 2696.04678337 947.25629274 2721.21508874 956.14257812 2746.55596924 C956.97350895 2748.92448881 957.8068538 2751.29214703 958.640625 2753.65966797 C985.23911291 2829.29666303 985.23911291 2829.29666303 988 2859 C988.33 2859 988.66 2859 989 2859 C989 1916.52 989 974.04 989 3 C663.62 3 338.24 3 3 3 Z M446.39794922 563.39501953 C425.87612622 586.95605069 413.74338516 617.61625725 405.8125 647.4375 C405.58667236 648.28094971 405.36084473 649.12439941 405.12817383 649.9934082 C400.24233134 669.12266345 397.78870941 688.53393113 395.625 708.125 C395.4004506 710.1252448 395.17477003 712.12536017 394.94909096 714.12547779 C392.17544919 738.7340021 389.66368703 763.36907002 387.21012878 788.01135254 C386.05070124 799.59839935 384.83937142 811.17991333 383.62890625 822.76171875 C381.0617659 847.33662805 378.54599026 871.91650214 376.0625 896.5 C375.94989964 897.61392372 375.83729927 898.72784744 375.72128677 899.87552643 C371.35368072 943.09310446 367.11248026 986.32264612 362.91270208 1029.55680466 C362.69008497 1031.84839072 362.46740458 1034.13997063 362.24470901 1036.43154907 C359.58544782 1063.79787874 356.93261047 1091.16481919 354.32763672 1118.53637695 C354.22535363 1119.6110255 354.22535363 1119.6110255 354.12100422 1120.70738411 C353.40924244 1128.18695956 352.69893771 1135.66667094 351.99064636 1143.14657593 C350.40979704 1159.82298149 348.77553676 1176.49315983 347.06015873 1193.15627575 C346.19278807 1201.64414217 345.47559707 1210.14173409 344.77856445 1218.64511108 C343.84767875 1229.95827866 342.80311357 1241.26015851 341.75 1252.5625 C341.53236912 1254.90820125 341.31475907 1257.25390443 341.09716797 1259.59960938 C339.94519707 1271.99396865 338.77577868 1284.38656277 337.5859375 1296.77734375 C334.01076588 1334.01669489 330.59687699 1371.26811032 327.28759766 1408.53201294 C326.46184277 1417.82838512 325.62953868 1427.12413036 324.78981018 1436.41925049 C322.06183738 1466.61950937 319.48007417 1496.82579758 317.1875 1527.0625 C317.13441429 1527.76005905 317.08132858 1528.4576181 317.02663422 1529.17631531 C315.45291606 1549.60758393 315.45291606 1549.60758393 314.33183289 1570.06739807 C314.12006396 1574.7637266 313.60262801 1579.34259347 313 1584 C312.88261796 1585.61173413 312.78496298 1587.22519788 312.71875 1588.83984375 C312.68136719 1589.67580078 312.64398438 1590.51175781 312.60546875 1591.37304688 C312.57066406 1592.21931641 312.53585937 1593.06558594 312.5 1593.9375 C312.26730119 1599.56967302 311.90089876 1605.12707657 311.23632812 1610.72485352 C310.81237588 1614.8062698 310.67024607 1618.90148342 310.5 1623 C310.3017623 1627.77238914 310.09115092 1632.51666072 309.52734375 1637.26171875 C308.79887688 1643.42742999 308.4511787 1649.61771132 308.0625 1655.8125 C307.9752033 1657.17928215 307.88788169 1658.54606271 307.80053711 1659.9128418 C307.34369972 1667.12763056 306.9184055 1674.34363632 306.53125 1681.5625 C306.49297592 1682.27588028 306.45470184 1682.98926056 306.41526794 1683.72425842 C306.33719237 1685.18182229 306.25914386 1686.63938761 306.18112183 1688.09695435 C306.14197662 1688.82808441 306.10283142 1689.55921448 306.0625 1690.3125 C306.02295197 1691.0524118 305.98340393 1691.79232361 305.94265747 1692.55465698 C305.27211963 1705.00628163 304.41798728 1717.43938359 303.5 1729.875 C302.51634394 1743.20307602 301.66026273 1756.52696225 301 1769.875 C300.35692457 1782.86710696 299.55040066 1795.83756129 298.625 1808.8125 C297.13231208 1829.79155018 295.99644921 1850.78658596 294.87066269 1871.78774261 C293.8309536 1891.17886449 292.7588209 1910.5630656 291.4375 1929.9375 C289.84491304 1953.32451204 288.68579213 1976.73157911 287.50291443 2000.14228821 C287.03027911 2009.47151774 286.53479591 2018.79912707 286 2028.125 C285.94256622 2029.12919983 285.94256622 2029.12919983 285.88397217 2030.15368652 C285.39469786 2038.66322706 284.86455984 2047.16984267 284.31640625 2055.67578125 C284.06446412 2059.59631336 283.81319076 2063.51688768 283.5625 2067.4375 C283.49918488 2068.42646271 283.43586975 2069.41542542 283.37063599 2070.43435669 C282.07822311 2090.73934419 281.05331057 2111.05564096 280.09008789 2131.37866211 C279.51076626 2143.49120225 278.85239144 2155.59193174 278.04296875 2167.69140625 C276.87323767 2185.26380626 275.99416738 2202.8487807 275.14013672 2220.43896484 C274.9182946 2225.00471833 274.69037109 2229.57014696 274.46098137 2234.13552666 C274.28134693 2237.72862876 274.10557903 2241.32191277 273.93085098 2244.9152565 C273.8484535 2246.59825239 273.76477748 2248.28118631 273.67965317 2249.96404648 C273.56088993 2252.32074261 273.4475921 2254.67764862 273.33544922 2257.03466797 C273.30118835 2257.69160645 273.26692749 2258.34854492 273.23162842 2259.02539062 C272.8633128 2267.0286298 273 2274.96186274 273 2283 C426.12 2283 579.24 2283 737 2283 C734.15958011 2266.60722508 734.15958011 2266.60722508 731.125 2250.25 C728.19344071 2234.61720715 726.26158477 2218.80635091 724.11216736 2203.05184937 C723.35657418 2197.53346679 722.57304619 2192.0204289 721.75 2186.51171875 C718.06740401 2161.7772249 715.19924578 2136.95191202 712.30421448 2112.11462402 C711.37975917 2104.19734258 710.43400693 2096.28302204 709.46484375 2088.37109375 C704.16085463 2045.01921274 699.43435935 2001.59936971 695.25 1958.125 C695.10762405 1956.64957733 695.10762405 1956.64957733 694.96237183 1955.14434814 C691.77027846 1921.91690282 689.12667993 1888.63730907 686.41064453 1855.3684082 C685.96060431 1849.85665068 685.50848887 1844.34506539 685.0559063 1838.83351612 C684.70138771 1834.5121049 684.34826442 1830.19058046 683.99551773 1825.86902428 C683.82938083 1823.83634084 683.66275902 1821.80369696 683.49560165 1819.77109718 C682.63436652 1809.29205967 681.81927212 1798.8203088 681.25515747 1788.32060242 C681.0124023 1785.16140266 680.55612733 1782.11712828 680 1779 C679.87663007 1777.4539013 679.78141316 1775.9052154 679.71875 1774.35546875 C679.68136719 1773.51306641 679.64398437 1772.67066406 679.60546875 1771.80273438 C679.57066406 1770.93970703 679.53585937 1770.07667969 679.5 1769.1875 C679.42989561 1767.47253898 679.35699549 1765.75768988 679.28125 1764.04296875 C679.25095703 1763.29039795 679.22066406 1762.53782715 679.18945312 1761.76245117 C679.02997806 1759.43711563 678.79661903 1757.14812065 678.52734375 1754.83398438 C677.94946322 1749.76880668 677.60078984 1744.70045992 677.28125 1739.61328125 C677.21844849 1738.63497849 677.15564697 1737.65667572 677.09094238 1736.64872742 C676.95884154 1734.58220924 676.82779676 1732.51562331 676.69775391 1730.44897461 C676.50338386 1727.36616976 676.3046902 1724.28366654 676.10546875 1721.20117188 C675.48995005 1711.56774362 674.93323878 1701.93776274 674.53125 1692.29296875 C674.18718363 1684.07815876 673.65604797 1675.8875264 673.05859375 1667.6875 C671.70460647 1648.80928517 670.88926306 1629.90738864 670.0625 1611 C669.99881603 1609.55147581 669.99881603 1609.55147581 669.93384552 1608.07368851 C666.81173902 1537.02574273 664.77487654 1465.98628121 663.64599609 1394.87866211 C663.61881154 1393.16841968 663.61881154 1393.16841968 663.5910778 1391.4236269 C663.57315744 1390.29537589 663.55523708 1389.16712488 663.53677368 1388.00468445 C663.51903522 1386.8881568 663.50129677 1385.77162914 663.48302078 1384.62126732 C663.44742215 1382.37624541 663.4119789 1380.13122103 663.37668991 1377.88619423 C663.16500187 1364.50186312 662.8904627 1351.12264177 662.5078125 1337.7421875 C662.03552006 1321.17593983 661.81876496 1304.60801336 661.6126709 1288.0368309 C661.10981086 1247.66307626 660.26746233 1207.30085737 659.31606936 1166.93539667 C659.1666554 1160.5763255 659.02222678 1154.21715412 658.88037109 1147.85791016 C657.86008105 1102.17017701 656.49995256 1056.51336658 654.6017909 1010.85334837 C653.80092958 991.57074914 653.16471881 972.28290737 652.53058052 952.99418449 C652.42590484 949.8188466 652.32004949 946.64354957 652.21386719 943.46826172 C652.06770183 939.0898545 651.92907799 934.71127995 651.79394531 930.33251953 C651.28037259 914.25354878 650.41588802 898.20758533 649.4321909 882.15223885 C648.89676446 873.37803633 648.40289951 864.60150915 647.90766525 855.82496262 C647.63839423 851.05836003 647.36689667 846.29188415 647.09570312 841.52539062 C646.76307987 835.67756437 646.43118776 829.82969931 646.10180664 823.98168945 C645.82928266 819.14427824 645.55438826 814.3070068 645.27791023 809.46982002 C645.17459309 807.65472849 645.07212837 805.8395882 644.97057915 804.0243969 C644.82956246 801.50563269 644.68550528 798.98705884 644.54077148 796.46850586 C644.50075516 795.74076462 644.46073883 795.01302338 644.41950989 794.26322937 C644.16038558 789.82085945 643.74549738 785.41610454 643.22255516 780.9968996 C642.90679536 778.16371153 642.74954774 775.33097362 642.60546875 772.484375 C642.53924316 771.25662354 642.47301758 770.02887207 642.40478516 768.76391602 C642.36992004 768.11351349 642.33505493 767.46311096 642.2991333 766.79299927 C640.54340842 734.66150598 637.42662179 702.62273276 633.44824219 670.69482422 C633.02253486 667.18575307 632.6324424 663.67500584 632.2578125 660.16015625 C629.21183033 631.93462441 622.75624793 605.0240689 609 580 C608.44828125 578.95972656 607.8965625 577.91945313 607.328125 576.84765625 C595.5376673 555.4844698 577.31520148 537.41400796 553.72265625 529.7421875 C513.81773656 518.86423235 473.69337873 533.51146938 446.39794922 563.39501953 Z M253.15950586 2323.38460848 C251.44105874 2325.77870152 249.52755749 2328.00133668 247.625 2330.25 C246.91085938 2331.13945312 246.19671875 2332.02890625 245.4609375 2332.9453125 C243.58831621 2335.26974083 241.69898235 2337.57372274 239.7890625 2339.8671875 C197.2664815 2390.96815413 160.14054724 2447.29680121 129 2506 C128.51225098 2506.91910156 128.02450195 2507.83820312 127.52197266 2508.78515625 C123.96927784 2515.50029212 120.47507039 2522.24443586 117 2529 C116.27345215 2530.40209717 116.27345215 2530.40209717 115.53222656 2531.83251953 C84.35118157 2592.14295091 62.09280303 2656.88588301 48.73632812 2723.39208984 C48.07972477 2726.60935921 47.38817307 2729.81512531 46.671875 2733.01953125 C39.86753716 2763.66293571 36.13724035 2794.81551784 33.35986328 2826.04980469 C33.15277038 2828.32304968 32.93412164 2830.59544289 32.68310547 2832.86425781 C31.65813403 2842.29252822 31.75599574 2851.77723913 31.75 2861.25 C31.74932526 2862.21042206 31.74865051 2863.17084412 31.74795532 2864.16036987 C31.78638626 2898.95689032 33.46650556 2934.85728177 45 2968 C45.45584473 2969.31436035 45.45584473 2969.31436035 45.92089844 2970.65527344 C55.42418252 2997.67477522 67.24146086 3024.63003032 84 3048 C84.74805908 3049.04921631 84.74805908 3049.04921631 85.51123047 3050.11962891 C93.19774874 3060.86280057 101.23788736 3071.11791807 110 3081 C111.16703084 3082.35385283 112.33375525 3083.70796995 113.5 3085.0625 C122.33518706 3095.07836735 131.5420331 3104.70691797 141.00146484 3114.13183594 C142.76648544 3115.8914348 144.52601133 3117.65640397 146.28515625 3119.421875 C151.47584469 3124.61561382 156.66818798 3129.73925551 162.26025391 3134.50537109 C165.20079166 3137.03160911 167.99319751 3139.71528835 170.8125 3142.375 C175.8334334 3147.07829762 180.98339862 3151.5218434 186.35546875 3155.82421875 C189.15839248 3158.130317 191.83003275 3160.54151531 194.5 3163 C199.30786903 3167.41511354 204.27409325 3171.56654482 209.35400391 3175.66308594 C211.95730409 3177.77754334 214.53629492 3179.92124135 217.11938477 3182.06030273 C224.75795766 3188.38085404 232.47522516 3194.58317932 240.29833984 3200.67333984 C243.2058124 3202.94008387 246.10214335 3205.22098583 249 3207.5 C250.17576953 3208.423192 251.35155075 3209.34636913 252.52734375 3210.26953125 C254.77287765 3212.03356666 257.01494571 3213.8018492 259.25390625 3215.57421875 C268.85827095 3223.16760254 278.5760536 3230.61027902 288.34375 3237.9921875 C290.06681153 3239.2946193 291.78826628 3240.5991806 293.5078125 3241.90625 C353.74624515 3287.61772944 433.61795449 3321.24543701 510.375 3313.375 C512.9383972 3312.96496802 515.45818652 3312.51299998 518 3312 C519.30541748 3311.74935791 519.30541748 3311.74935791 520.63720703 3311.49365234 C548.83426236 3305.95200736 576.11419169 3296.40556337 602 3284 C602.58716797 3283.71942749 603.17433594 3283.43885498 603.77929688 3283.14978027 C641.87045476 3264.92123052 676.28230438 3242.3374632 708.38745117 3214.91381836 C711.5475727 3212.21653072 714.74301411 3209.5793227 718 3207 C723.52749443 3202.61366571 728.90333189 3198.05461507 734.27050781 3193.47509766 C736.02988878 3191.97450762 737.79223299 3190.47744692 739.5546875 3188.98046875 C745.98859683 3183.50347382 752.32221262 3177.94465397 758.55078125 3172.234375 C761.32499872 3169.70350994 764.14707121 3167.23360609 766.98046875 3164.76953125 C770.1614573 3161.98232078 773.2977231 3159.1459572 776.4375 3156.3125 C778.91265331 3154.07882507 781.39368312 3151.85182284 783.875 3149.625 C789.61853551 3144.45492201 795.31356143 3139.23265794 801 3134 C801.51433594 3133.52691406 802.02867187 3133.05382813 802.55859375 3132.56640625 C809.01471784 3126.62548408 815.4515963 3120.66378051 821.875 3114.6875 C822.78439331 3113.84384888 822.78439331 3113.84384888 823.7121582 3112.9831543 C826.76207885 3110.14071693 829.75772613 3107.25947321 832.6953125 3104.30078125 C835.05221578 3101.92773479 837.44343433 3099.65985721 840 3097.5 C847.21384796 3091.2240902 853.14482782 3084.42016873 858.984375 3076.86328125 C861.51337606 3073.59927889 864.11803756 3070.40569877 866.74780273 3067.22265625 C873.6872845 3058.80990116 880.13498432 3050.11037085 886.43115234 3041.20849609 C887.92613004 3039.10398812 889.438433 3037.01328342 890.95703125 3034.92578125 C913.02305788 3004.42198384 933.25401087 2970.55220539 946 2935 C946.52207031 2933.55415527 946.52207031 2933.55415527 947.0546875 2932.07910156 C957.57353218 2902.63163117 964.64953755 2870.99803663 956 2840 C955.60482178 2838.53143555 955.60482178 2838.53143555 955.20166016 2837.03320312 C943.84153289 2795.04075438 929.36469307 2753.68215158 914 2713 C913.71380798 2712.24217224 913.42761597 2711.48434448 913.13275146 2710.70355225 C909.11935483 2700.08482376 905.07549282 2689.47786227 901.014328 2678.87731934 C899.14955504 2674.00895598 897.29127659 2669.13824977 895.44337463 2664.26345825 C877.16422722 2616.06278513 857.73141622 2568.27294288 838.07897949 2520.61834717 C836.95504418 2517.89090624 835.83319922 2515.16261348 834.71191406 2512.43408203 C824.14101924 2486.71185983 813.42625887 2461.05369699 802.57608032 2435.44807434 C799.75684243 2428.79326058 796.94822189 2422.13403355 794.14453125 2415.47265625 C785.09716962 2393.98286849 775.98608996 2372.52352987 766.67036438 2351.14851379 C764.94659132 2347.19004804 763.23819031 2343.22558136 761.54815674 2339.25259399 C760.33088788 2336.3945104 759.10149863 2333.54163246 757.875 2330.6875 C757.46185547 2329.70362305 757.04871094 2328.71974609 756.62304688 2327.70605469 C756.22923828 2326.79629883 755.83542969 2325.88654297 755.4296875 2324.94921875 C755.10210449 2324.17924561 754.77452148 2323.40927246 754.43701172 2322.6159668 C753.72569092 2321.32106323 753.72569092 2321.32106323 753 2320 C752.74073168 2319.35037239 752.48146336 2318.70074479 752.21433842 2318.0314315 C750.76624991 2315.2735823 749.54733052 2313.83259378 747 2312 C740.70306105 2310.72271026 734.42619142 2310.89818558 728.02267456 2310.95048523 C726.0337454 2310.93768905 724.04483605 2310.92142143 722.05596077 2310.90197688 C716.58541728 2310.85879739 711.11590181 2310.86573614 705.6452508 2310.88090742 C699.74719567 2310.88870156 693.84941069 2310.85065973 687.95146179 2310.81867981 C676.39370691 2310.76376312 664.83628893 2310.7529108 653.27842288 2310.75885584 C643.88360245 2310.76343449 634.48889056 2310.754041 625.09408951 2310.73478127 C623.74437047 2310.73207818 622.39465141 2310.72938175 621.04493234 2310.72669194 C619.0110051 2310.72263152 616.97707785 2310.71857061 614.94315066 2310.71448396 C596.02970495 2310.67688227 577.11629939 2310.65598955 558.20281792 2310.66939068 C557.13313374 2310.67014111 557.13313374 2310.67014111 556.04183977 2310.6709067 C552.42746689 2310.67349025 548.81309413 2310.67622564 545.19872139 2310.67901602 C544.48089994 2310.67956917 543.76307849 2310.68012232 543.02350487 2310.68069224 C541.57189385 2310.68181308 540.12028284 2310.68294227 538.66867183 2310.68407978 C516.09067867 2310.70137011 493.51338799 2310.66260074 470.93554688 2310.57983398 C445.56626289 2310.48691974 420.19742193 2310.43757828 394.82795727 2310.45148689 C392.12157326 2310.45282216 389.41518921 2310.45400422 386.70880508 2310.45508766 C386.04243148 2310.45538317 385.37605788 2310.45567867 384.68949113 2310.45598313 C374.63778929 2310.4595361 364.58657897 2310.42881764 354.53499985 2310.38098717 C343.09796594 2310.32704754 331.66199911 2310.31845452 320.22492819 2310.36837652 C314.38992232 2310.39258652 308.55689696 2310.39595896 302.72204018 2310.34266281 C297.37637902 2310.29438187 292.03432677 2310.30647615 286.68881048 2310.36601613 C284.75877198 2310.37703667 282.82845543 2310.36625901 280.89870594 2310.33108839 C267.63703381 2310.10598569 260.97786514 2312.40039409 253.15950586 2323.38460848 Z M988 2876 C987.91363281 2877.10472656 987.82726562 2878.20945312 987.73828125 2879.34765625 C986.11355328 2898.04323999 982.17464113 2916.28051929 976 2934 C975.64131836 2935.04873291 975.64131836 2935.04873291 975.27539062 2936.11865234 C958.4298885 2985.02040883 930.83229063 3029.73282549 900 3071 C899.56816406 3071.57814453 899.13632812 3072.15628906 898.69140625 3072.75195312 C892.22292479 3081.36651956 885.44347766 3089.73566904 878.60058594 3098.05419922 C877.55745206 3099.32231651 876.5163339 3100.59209542 875.47753906 3101.86376953 C870.72509548 3107.67248712 866.04402229 3113.27446725 860.2265625 3118.0625 C856.59967588 3121.21852765 853.27655052 3124.68121595 849.91845703 3128.11914062 C846.43819391 3131.65444047 842.81485917 3134.94839411 839.06201172 3138.19189453 C835.55835655 3141.26412638 832.19242123 3144.48052508 828.8125 3147.6875 C827.32074238 3149.09680934 825.82855042 3150.50565905 824.3359375 3151.9140625 C823.6047168 3152.6040332 822.87349609 3153.29400391 822.12011719 3154.00488281 C815.23231269 3160.48658921 808.30496671 3166.9209761 801.14453125 3173.1015625 C798.85183788 3175.13115991 796.61350851 3177.2118628 794.375 3179.30078125 C789.00866302 3184.30687801 783.53979023 3189.06109854 777.8125 3193.65625 C774.60148284 3196.33209763 771.54992822 3199.14379613 768.5 3202 C763.77366602 3206.42094009 758.92634749 3210.60066403 753.87890625 3214.65625 C750.53396494 3217.37940439 747.26560823 3220.18269037 744 3223 C739.03690671 3227.27327345 734.03375916 3231.48521123 728.9453125 3235.609375 C726.76382066 3237.38002885 724.59353301 3239.16117256 722.4296875 3240.953125 C712.92959475 3248.79058139 703.16157448 3256.19274722 693.18652344 3263.41455078 C691.23532796 3264.82936358 689.29220142 3266.25436135 687.3515625 3267.68359375 C670.47709536 3280.03515842 652.50981677 3290.31512718 634 3300 C633.09411133 3300.47824219 632.18822266 3300.95648437 631.25488281 3301.44921875 C558.11556123 3339.88976024 481.51529007 3353.55843572 401.73046875 3328.77734375 C385.08675603 3323.45638945 368.91643032 3317.23060007 353 3310 C351.89027832 3309.49597656 350.78055664 3308.99195312 349.63720703 3308.47265625 C320.3575219 3295.04076294 294.55134681 3278.44782595 269.0859375 3258.89453125 C264.60511924 3255.45531408 260.09145813 3252.06292386 255.5625 3248.6875 C248.85952325 3243.68058838 242.2668024 3238.54513081 235.70898438 3233.35009766 C234.00308513 3232.00243725 232.2916741 3230.66213522 230.578125 3229.32421875 C222.23851678 3222.8092322 214.00423431 3216.17159282 205.80859375 3209.4765625 C204.2076452 3208.16952459 202.60402024 3206.86576644 201 3205.5625 C193.9208923 3199.80043559 186.94788107 3193.91893108 180 3188 C179.41250977 3187.50032715 178.82501953 3187.0006543 178.21972656 3186.48583984 C171.47272845 3180.7441408 164.78013075 3174.95814624 158.21875 3169.00390625 C156.20691607 3167.18688018 154.17339566 3165.40055608 152.125 3163.625 C144.73434686 3157.17879138 137.47898635 3150.57858609 130.609375 3143.578125 C128.96611661 3141.96677454 127.25669804 3140.48643681 125.5 3139 C116.72338554 3131.42566149 108.33633875 3123.00792503 100.86328125 3114.14453125 C98.73445535 3111.69437313 96.52076844 3109.33635056 94.29760742 3106.97192383 C88.55369915 3100.85785797 83.12990897 3094.64350402 78 3088 C76.9309996 3086.65910915 75.8605542 3085.31936966 74.7890625 3083.98046875 C63.48357799 3069.77310829 53.74050016 3054.94047067 45.08398438 3038.98730469 C44.01449468 3037.02657358 42.92285221 3035.07954016 41.828125 3033.1328125 C18.10901198 2990.35294428 7.94376688 2944.30746087 4 2896 C3.67 2896 3.34 2896 3 2896 C3 3158.35 3 3420.7 3 3691 C328.38 3691 653.76 3691 989 3691 C989 3422.05 989 3153.1 989 2876 C988.67 2876 988.34 2876 988 2876 Z " fill="#010101" transform="translate(0,0)"/>
<path d="M0 0 C327.36 0 654.72 0 992 0 C992 1219.02 992 2438.04 992 3694 C664.64 3694 337.28 3694 0 3694 C0 2474.98 0 1255.96 0 0 Z M3 3 C3 1220.04 3 2437.08 3 3691 C328.38 3691 653.76 3691 989 3691 C989 2473.96 989 1256.92 989 3 C663.62 3 338.24 3 3 3 Z " fill="#FCFCFC" transform="translate(0,0)"/>
<path d="M0 0 C11.47962075 5.0214623 22.79978115 10.32599716 34.05343628 15.83145142 C48.55238433 22.92137875 63.1363237 29.70094001 78 36 C79.01529785 36.43586426 80.0305957 36.87172852 81.07666016 37.32080078 C107.96741093 48.82623353 135.87689742 59.13434354 164.47900391 65.43994141 C166.94537784 65.98786527 169.40023337 66.57231993 171.85546875 67.16796875 C187.31458295 70.86924057 202.2688234 72.17378872 218.125 72.1875 C218.7978302 72.18858765 219.4706604 72.18967529 220.16387939 72.1907959 C233.55849804 72.18834648 246.8604722 71.69085496 260.0625 69.3125 C261.04452393 69.13589844 262.02654785 68.95929687 263.03833008 68.77734375 C298.91180389 62.06417906 334.84606731 48.72938407 367.65795898 32.89819336 C370 32 370 32 374 32 C375.46743436 35.01649306 376.92225103 38.03891051 378.375 41.0625 C378.7875 41.91005859 379.2 42.75761719 379.625 43.63085938 C381.89384127 48.36981009 383.73969476 52.89645626 385 58 C366.58346676 66.36911111 347.93701736 73.90394386 329 81 C327.56333984 81.54164795 327.56333984 81.54164795 326.09765625 82.09423828 C307.68498961 88.98514416 288.72739606 94.05243615 269.4375 97.8125 C268.44089355 98.00730957 267.44428711 98.20211914 266.41748047 98.40283203 C251.02251739 101.26214852 235.94652445 102.38361523 220.3125 102.3125 C219.43304718 102.31001251 218.55359436 102.30752502 217.64749146 102.30496216 C204.21130508 102.24632344 191.19400802 101.72925433 178 99 C176.83774902 98.76361816 175.67549805 98.52723633 174.47802734 98.28369141 C123.21721089 87.66924244 75.04047664 68.5091842 27.956604 45.93792725 C25.79523682 44.90184372 23.63269365 43.8682339 21.47021484 42.83447266 C17.4376046 40.90476599 13.40869151 38.9675152 9.38241577 37.02462769 C7.80707266 36.26445053 6.23125399 35.50525801 4.65493774 34.74710083 C2.45518499 33.68758406 0.25843341 32.62209343 -1.9375 31.5546875 C-2.59345657 31.23961746 -3.24941315 30.92454742 -3.92524719 30.59992981 C-7.20798433 28.99568098 -10.17064092 27.31968443 -13 25 C-11.02405385 21.0192261 -9.04370787 17.04065745 -7.0625 13.0625 C-6.49853516 11.92619141 -5.93457031 10.78988281 -5.35351562 9.61914062 C-4.54624023 7.99975586 -4.54624023 7.99975586 -3.72265625 6.34765625 C-3.22515869 5.34742432 -2.72766113 4.34719238 -2.21508789 3.31665039 C-1 1 -1 1 0 0 Z " fill="#020202" transform="translate(286,2941)"/>
</svg>
