<?xml version="1.0" encoding="UTF-8"?>
<!DOCTYPE svg PUBLIC "-//W3C//DTD SVG 1.1//EN" "http://www.w3.org/Graphics/SVG/1.1/DTD/svg11.dtd">
<svg xmlns="http://www.w3.org/2000/svg" version="1.1" width="957px" height="3694px" style="shape-rendering:geometricPrecision; text-rendering:geometricPrecision; image-rendering:optimizeQuality; fill-rule:evenodd; clip-rule:evenodd" xmlns:xlink="http://www.w3.org/1999/xlink">
<g><path style="opacity:0.793" fill="#fefefe" d="M -0.5,-0.5 C 318.5,-0.5 637.5,-0.5 956.5,-0.5C 956.5,1230.83 956.5,2462.17 956.5,3693.5C 637.5,3693.5 318.5,3693.5 -0.5,3693.5C -0.5,2462.17 -0.5,1230.83 -0.5,-0.5 Z M 2.5,672.5 C 6.58575,725.184 18.4191,776.184 38,825.5C 49.849,852.199 62.5157,878.532 76,904.5C 103.844,956.852 131.177,1009.52 158,1062.5C 170.99,1089.15 182.323,1116.48 192,1144.5C 198.287,1170.84 202.62,1197.51 205,1224.5C 209.044,1267.45 212.377,1310.45 215,1353.5C 226.11,1381.05 237.777,1408.39 250,1435.5C 251.578,1438.66 252.578,1441.99 253,1445.5C 258.284,1480.54 263.784,1515.54 269.5,1550.5C 254.575,1560.92 241.741,1573.59 231,1588.5C 204.197,1633.56 210.697,1673.06 250.5,1707C 257.333,1711.83 264.167,1716.67 271,1721.5C 271.832,1730.52 271.665,1739.52 270.5,1748.5C 236.937,1763.91 219.604,1790.25 218.5,1827.5C 220.168,1864.8 238.168,1890.47 272.5,1904.5C 273.833,1916.83 273.833,1929.17 272.5,1941.5C 244.752,1952.41 226.586,1972.08 218,2000.5C 213.681,2024.21 220.181,2044.37 237.5,2061C 247.92,2070.07 259.42,2077.57 272,2083.5C 272.667,2096.5 272.667,2109.5 272,2122.5C 237.12,2132.4 218.953,2155.56 217.5,2192C 219.202,2228.35 237.035,2252.85 271,2265.5C 271.412,2286.17 271.246,2306.84 270.5,2327.5C 238.721,2332.44 219.888,2350.78 214,2382.5C 209.675,2418.35 222.509,2446.18 252.5,2466C 259.096,2469.92 266.096,2472.75 273.5,2474.5C 273.698,2511.82 277.198,2548.82 284,2585.5C 300.153,2652.97 339.653,2701.14 402.5,2730C 478.155,2756.8 541.321,2739.3 592,2677.5C 617.428,2643.63 633.262,2605.63 639.5,2563.5C 677.306,2555.19 697.306,2531.69 699.5,2493C 697.052,2453.59 678.052,2425.42 642.5,2408.5C 641.334,2395.18 641.167,2381.85 642,2368.5C 657.953,2358.88 670.953,2346.21 681,2330.5C 697.031,2298.1 693.031,2268.44 669,2241.5C 660.92,2233.42 652.253,2226.08 643,2219.5C 643.019,2202.84 643.353,2186.17 644,2169.5C 680.61,2150.28 695.277,2120.28 688,2079.5C 681.447,2056.28 667.114,2039.95 645,2030.5C 644.333,2016.83 644.333,2003.17 645,1989.5C 689.891,1969.06 702.224,1936.39 682,1891.5C 672.1,1877.1 660.267,1864.43 646.5,1853.5C 645.245,1834.49 645.245,1815.49 646.5,1796.5C 674.061,1793.98 692.227,1779.65 701,1753.5C 708.814,1716.94 698.647,1686.44 670.5,1662C 663.577,1656.87 655.911,1653.37 647.5,1651.5C 647.333,1617.83 647.5,1584.17 648,1550.5C 661.677,1544.16 673.677,1535.49 684,1524.5C 693.234,1510.77 695.901,1495.77 692,1479.5C 687.117,1462.68 680.95,1446.35 673.5,1430.5C 686.213,1405.08 698.379,1379.41 710,1353.5C 713.393,1313.63 718.393,1273.96 725,1234.5C 731.097,1212.3 739.43,1190.97 750,1170.5C 778.561,1115.7 808.894,1062.03 841,1009.5C 864.25,972.668 887.25,935.668 910,898.5C 931.166,861.003 945.166,821.003 952,778.5C 956.512,721.742 947.179,667.409 924,615.5C 915.238,598.749 904.905,583.083 893,568.5C 858.264,528.096 821.098,489.929 781.5,454C 748.833,425.333 716.167,396.667 683.5,368C 629.208,323.377 575.208,278.377 521.5,233C 460.551,186.483 396.551,182.15 329.5,220C 321.893,224.609 314.559,229.609 307.5,235C 251.422,285.666 196.589,337.832 143,391.5C 113.132,422.357 85.1324,454.69 59,488.5C 22.9969,541.341 4.16361,599.674 2.5,663.5C 2.5,443.167 2.5,222.833 2.5,2.5C 319.833,2.5 637.167,2.5 954.5,2.5C 954.5,1231.83 954.5,2461.17 954.5,3690.5C 637.167,3690.5 319.833,3690.5 2.5,3690.5C 2.5,2684.5 2.5,1678.5 2.5,672.5 Z"/></g>
<g><path style="opacity:0.98" fill="#010101" d="M 2.5,672.5 C 2.5,669.5 2.5,666.5 2.5,663.5C 4.16361,599.674 22.9969,541.341 59,488.5C 85.1324,454.69 113.132,422.357 143,391.5C 196.589,337.832 251.422,285.666 307.5,235C 314.559,229.609 321.893,224.609 329.5,220C 396.551,182.15 460.551,186.483 521.5,233C 575.208,278.377 629.208,323.377 683.5,368C 716.167,396.667 748.833,425.333 781.5,454C 821.098,489.929 858.264,528.096 893,568.5C 904.905,583.083 915.238,598.749 924,615.5C 947.179,667.409 956.512,721.742 952,778.5C 945.166,821.003 931.166,861.003 910,898.5C 887.25,935.668 864.25,972.668 841,1009.5C 808.894,1062.03 778.561,1115.7 750,1170.5C 739.43,1190.97 731.097,1212.3 725,1234.5C 718.393,1273.96 713.393,1313.63 710,1353.5C 698.379,1379.41 686.213,1405.08 673.5,1430.5C 680.95,1446.35 687.117,1462.68 692,1479.5C 695.901,1495.77 693.234,1510.77 684,1524.5C 673.677,1535.49 661.677,1544.16 648,1550.5C 647.5,1584.17 647.333,1617.83 647.5,1651.5C 655.911,1653.37 663.577,1656.87 670.5,1662C 698.647,1686.44 708.814,1716.94 701,1753.5C 692.227,1779.65 674.061,1793.98 646.5,1796.5C 645.245,1815.49 645.245,1834.49 646.5,1853.5C 660.267,1864.43 672.1,1877.1 682,1891.5C 702.224,1936.39 689.891,1969.06 645,1989.5C 644.333,2003.17 644.333,2016.83 645,2030.5C 667.114,2039.95 681.447,2056.28 688,2079.5C 695.277,2120.28 680.61,2150.28 644,2169.5C 643.353,2186.17 643.019,2202.84 643,2219.5C 652.253,2226.08 660.92,2233.42 669,2241.5C 693.031,2268.44 697.031,2298.1 681,2330.5C 670.953,2346.21 657.953,2358.88 642,2368.5C 641.167,2381.85 641.334,2395.18 642.5,2408.5C 678.052,2425.42 697.052,2453.59 699.5,2493C 697.306,2531.69 677.306,2555.19 639.5,2563.5C 633.262,2605.63 617.428,2643.63 592,2677.5C 541.321,2739.3 478.155,2756.8 402.5,2730C 339.653,2701.14 300.153,2652.97 284,2585.5C 277.198,2548.82 273.698,2511.82 273.5,2474.5C 266.096,2472.75 259.096,2469.92 252.5,2466C 222.509,2446.18 209.675,2418.35 214,2382.5C 219.888,2350.78 238.721,2332.44 270.5,2327.5C 271.246,2306.84 271.412,2286.17 271,2265.5C 237.035,2252.85 219.202,2228.35 217.5,2192C 218.953,2155.56 237.12,2132.4 272,2122.5C 272.667,2109.5 272.667,2096.5 272,2083.5C 259.42,2077.57 247.92,2070.07 237.5,2061C 220.181,2044.37 213.681,2024.21 218,2000.5C 226.586,1972.08 244.752,1952.41 272.5,1941.5C 273.833,1929.17 273.833,1916.83 272.5,1904.5C 238.168,1890.47 220.168,1864.8 218.5,1827.5C 219.604,1790.25 236.937,1763.91 270.5,1748.5C 271.665,1739.52 271.832,1730.52 271,1721.5C 264.167,1716.67 257.333,1711.83 250.5,1707C 210.697,1673.06 204.197,1633.56 231,1588.5C 241.741,1573.59 254.575,1560.92 269.5,1550.5C 263.784,1515.54 258.284,1480.54 253,1445.5C 252.578,1441.99 251.578,1438.66 250,1435.5C 237.777,1408.39 226.11,1381.05 215,1353.5C 212.377,1310.45 209.044,1267.45 205,1224.5C 202.62,1197.51 198.287,1170.84 192,1144.5C 182.323,1116.48 170.99,1089.15 158,1062.5C 131.177,1009.52 103.844,956.852 76,904.5C 62.5157,878.532 49.849,852.199 38,825.5C 18.4191,776.184 6.58575,725.184 2.5,672.5 Z"/></g>
<g><path style="opacity:1" fill="#fefefe" d="M 410.5,223.5 C 442.709,223.274 471.709,232.774 497.5,252C 578.093,317.811 657.76,384.811 736.5,453C 783,494.167 826.833,538 868,584.5C 899.443,622.416 917.443,666.083 922,715.5C 927.461,751.731 924.128,787.064 912,821.5C 904.255,843.993 894.588,865.66 883,886.5C 832.279,965.931 783.945,1046.93 738,1129.5C 727.122,1150.59 716.789,1171.92 707,1193.5C 699.345,1212.14 694.345,1231.47 692,1251.5C 687.619,1284.07 684.119,1316.74 681.5,1349.5C 535.5,1349.5 389.5,1349.5 243.5,1349.5C 241.214,1285.83 235.381,1222.5 226,1159.5C 221.476,1138.93 215.142,1118.93 207,1099.5C 199.608,1082.38 191.941,1065.38 184,1048.5C 149,980.5 114,912.5 79,844.5C 47.1195,781.31 31.7862,714.31 33,643.5C 39.2751,584.311 60.9417,531.644 98,485.5C 111.529,469.125 125.529,453.125 140,437.5C 199.29,376.207 260.457,317.04 323.5,260C 348.974,239.344 377.974,227.178 410.5,223.5 Z"/></g>
<g><path style="opacity:1" fill="#929292" d="M 664.5,1380.5 C 529.167,1379.17 393.833,1379.17 258.5,1380.5C 257.957,1380.44 257.624,1380.11 257.5,1379.5C 393.5,1378.17 529.5,1378.17 665.5,1379.5C 665.376,1380.11 665.043,1380.44 664.5,1380.5 Z"/></g>
<g><path style="opacity:1" fill="#b7b7b8" d="M 664.5,1380.5 C 656.982,1397.04 649.315,1413.54 641.5,1430C 648.753,1446.34 655.587,1462.84 662,1479.5C 667.595,1493 664.761,1504.17 653.5,1513C 642.525,1520.07 631.025,1526.24 619,1531.5C 618.5,1557.16 618.333,1582.83 618.5,1608.5C 617.502,1631.66 617.169,1654.99 617.5,1678.5C 622.5,1678.5 627.5,1678.5 632.5,1678.5C 647.335,1680.17 658.502,1687.51 666,1700.5C 676.424,1718.62 677.091,1736.95 668,1755.5C 658.755,1765.12 647.422,1769.45 634,1768.5C 628.164,1768.13 622.331,1767.8 616.5,1767.5C 616.333,1801.17 616.5,1834.83 617,1868.5C 629.572,1877.07 640.905,1887.07 651,1898.5C 670.875,1926.22 665.375,1947.38 634.5,1962C 628.538,1964.27 622.538,1966.43 616.5,1968.5C 615.503,1975.13 615.17,1981.8 615.5,1988.5C 614.503,2010.66 614.169,2032.99 614.5,2055.5C 615.833,2055.5 617.167,2055.5 618.5,2055.5C 637.091,2056.04 650.258,2064.71 658,2081.5C 665.49,2106.36 658.324,2125.86 636.5,2140C 629.319,2143.76 621.986,2147.26 614.5,2150.5C 613.167,2179.17 613.167,2207.83 614.5,2236.5C 633.037,2245.87 647.537,2259.54 658,2277.5C 664.35,2294.41 661.684,2309.75 650,2323.5C 639.102,2334.78 626.768,2344.11 613,2351.5C 612.167,2377.51 612.333,2403.51 613.5,2429.5C 641.749,2435.92 660.249,2452.92 669,2480.5C 673.245,2500.1 667.411,2515.94 651.5,2528C 648.052,2529.93 644.385,2531.26 640.5,2532C 630.976,2533.67 621.476,2535.17 612,2536.5C 609.814,2593.78 588.314,2642.28 547.5,2682C 500.536,2719.11 450.536,2723.44 397.5,2695C 355.793,2670.61 328.293,2635.11 315,2588.5C 311.763,2574.26 309.096,2559.93 307,2545.5C 304.26,2513.88 302.427,2482.22 301.5,2450.5C 273.218,2449.36 254.052,2435.69 244,2409.5C 239.013,2391.95 242.846,2376.78 255.5,2364C 259.931,2360.52 264.931,2358.19 270.5,2357C 280.51,2356.5 290.51,2356.67 300.5,2357.5C 300.5,2318.83 300.5,2280.17 300.5,2241.5C 259.829,2237.37 242.996,2215.37 250,2175.5C 254.8,2163.68 263.3,2155.85 275.5,2152C 284.107,2150.66 292.774,2150.16 301.5,2150.5C 301.667,2121.5 301.5,2092.5 301,2063.5C 286.406,2058.29 272.906,2051.12 260.5,2042C 245.028,2028.93 241.861,2013.43 251,1995.5C 262.789,1976.35 279.955,1966.69 302.5,1966.5C 302.267,1938.49 302.601,1910.49 303.5,1882.5C 283.097,1880.22 266.93,1870.89 255,1854.5C 241.082,1824 247.582,1798.84 274.5,1779C 282.63,1774.96 291.13,1772.12 300,1770.5C 300.833,1748.16 300.666,1725.83 299.5,1703.5C 280.827,1694.32 264.994,1681.65 252,1665.5C 242,1647.17 242,1628.83 252,1610.5C 261.221,1595.95 273.055,1584.11 287.5,1575C 291.833,1574.67 296.167,1574.33 300.5,1574C 301.516,1573.48 302.182,1572.65 302.5,1571.5C 295.528,1525.81 288.361,1480.14 281,1434.5C 273.396,1416.52 265.896,1398.52 258.5,1380.5C 393.833,1379.17 529.167,1379.17 664.5,1380.5 Z"/></g>
<g><path style="opacity:1" fill="#3a3a3b" d="M 618.5,1608.5 C 618.5,1631.5 618.5,1654.5 618.5,1677.5C 623.363,1677.18 628.03,1677.51 632.5,1678.5C 627.5,1678.5 622.5,1678.5 617.5,1678.5C 617.169,1654.99 617.502,1631.66 618.5,1608.5 Z"/></g>
<g><path style="opacity:1" fill="#575757" d="M 615.5,1988.5 C 615.5,2010.5 615.5,2032.5 615.5,2054.5C 616.791,2054.26 617.791,2054.6 618.5,2055.5C 617.167,2055.5 615.833,2055.5 614.5,2055.5C 614.169,2032.99 614.503,2010.66 615.5,1988.5 Z"/></g>
</svg>
