<?xml version="1.0" encoding="UTF-8"?>
<!DOCTYPE svg PUBLIC "-//W3C//DTD SVG 1.1//EN" "http://www.w3.org/Graphics/SVG/1.1/DTD/svg11.dtd">
<svg xmlns="http://www.w3.org/2000/svg" version="1.1" width="1056px" height="3694px" style="shape-rendering:geometricPrecision; text-rendering:geometricPrecision; image-rendering:optimizeQuality; fill-rule:evenodd; clip-rule:evenodd" xmlns:xlink="http://www.w3.org/1999/xlink">
<g><path style="opacity:0.773" fill="#fdfdfd" d="M -0.5,-0.5 C 351.5,-0.5 703.5,-0.5 1055.5,-0.5C 1055.5,1230.83 1055.5,2462.17 1055.5,3693.5C 703.5,3693.5 351.5,3693.5 -0.5,3693.5C -0.5,2462.17 -0.5,1230.83 -0.5,-0.5 Z M 1052.5,810.5 C 1048.24,768.475 1036.07,728.809 1016,691.5C 1002.12,668.946 985.287,648.779 965.5,631C 873.246,559.075 779.579,489.075 684.5,421C 660.56,403.524 634.894,388.857 607.5,377C 574.1,365.824 539.766,360.657 504.5,361.5C 474.759,361.082 445.426,364.249 416.5,371C 396.01,376.856 377.344,386.19 360.5,399C 285.274,453.54 212.94,511.873 143.5,574C 105.118,609.707 69.6184,647.873 37,688.5C 22.41,709.248 13.0767,732.248 9,757.5C 6.59541,769.935 4.42874,782.268 2.5,794.5C 2.5,530.5 2.5,266.5 2.5,2.5C 352.5,2.5 702.5,2.5 1052.5,2.5C 1052.5,271.833 1052.5,541.167 1052.5,810.5 Z M 2.5,855.5 C 4.50297,889.836 8.00297,924.169 13,958.5C 18.9289,984.618 28.5955,1009.28 42,1032.5C 50,1045.83 58,1059.17 66,1072.5C 93.9437,1113.44 122.277,1154.11 151,1194.5C 193.006,1259.16 229.34,1327.16 260,1398.5C 265.806,1552.19 272.14,1705.85 279,1859.5C 283.263,1956.56 288.596,2053.56 295,2150.5C 316.028,2407.78 340.028,2664.78 367,2921.5C 376.95,2988.35 398.616,3051.02 432,3109.5C 445.271,3130.18 461.438,3148.35 480.5,3164C 517.12,3189.22 555.12,3191.55 594.5,3171C 620.011,3152.53 638.178,3128.37 649,3098.5C 659.622,3070.35 666.955,3041.35 671,3011.5C 683.395,2918.25 690.395,2824.58 692,2730.5C 693.709,2669.85 694.709,2609.18 695,2548.5C 694.569,2198.96 702.903,1849.63 720,1500.5C 721.416,1470.26 723.582,1440.1 726.5,1410C 725.91,1407.8 725.243,1405.64 724.5,1403.5C 811.507,1299.46 892.674,1191.13 968,1078.5C 991.237,1042.04 1011.9,1004.04 1030,964.5C 1040.65,937.209 1048.15,909.209 1052.5,880.5C 1052.5,1817.17 1052.5,2753.83 1052.5,3690.5C 702.5,3690.5 352.5,3690.5 2.5,3690.5C 2.5,2745.5 2.5,1800.5 2.5,855.5 Z"/></g>
<g><path style="opacity:0.981" fill="#010101" d="M 1052.5,810.5 C 1053.83,833.833 1053.83,857.167 1052.5,880.5C 1048.15,909.209 1040.65,937.209 1030,964.5C 1011.9,1004.04 991.237,1042.04 968,1078.5C 892.674,1191.13 811.507,1299.46 724.5,1403.5C 725.243,1405.64 725.91,1407.8 726.5,1410C 723.582,1440.1 721.416,1470.26 720,1500.5C 702.903,1849.63 694.569,2198.96 695,2548.5C 694.709,2609.18 693.709,2669.85 692,2730.5C 690.395,2824.58 683.395,2918.25 671,3011.5C 666.955,3041.35 659.622,3070.35 649,3098.5C 638.178,3128.37 620.011,3152.53 594.5,3171C 555.12,3191.55 517.12,3189.22 480.5,3164C 461.438,3148.35 445.271,3130.18 432,3109.5C 398.616,3051.02 376.95,2988.35 367,2921.5C 340.028,2664.78 316.028,2407.78 295,2150.5C 288.596,2053.56 283.263,1956.56 279,1859.5C 272.14,1705.85 265.806,1552.19 260,1398.5C 229.34,1327.16 193.006,1259.16 151,1194.5C 122.277,1154.11 93.9437,1113.44 66,1072.5C 58,1059.17 50,1045.83 42,1032.5C 28.5955,1009.28 18.9289,984.618 13,958.5C 8.00297,924.169 4.50297,889.836 2.5,855.5C 2.5,835.167 2.5,814.833 2.5,794.5C 4.42874,782.268 6.59541,769.935 9,757.5C 13.0767,732.248 22.41,709.248 37,688.5C 69.6184,647.873 105.118,609.707 143.5,574C 212.94,511.873 285.274,453.54 360.5,399C 377.344,386.19 396.01,376.856 416.5,371C 445.426,364.249 474.759,361.082 504.5,361.5C 539.766,360.657 574.1,365.824 607.5,377C 634.894,388.857 660.56,403.524 684.5,421C 779.579,489.075 873.246,559.075 965.5,631C 985.287,648.779 1002.12,668.946 1016,691.5C 1036.07,728.809 1048.24,768.475 1052.5,810.5 Z"/></g>
<g><path style="opacity:1" fill="#fefefe" d="M 468.5,391.5 C 490.503,391.333 512.503,391.5 534.5,392C 566.233,393.037 595.9,401.37 623.5,417C 643.011,428.586 662.011,440.92 680.5,454C 771.248,519.076 860.581,586.076 948.5,655C 982.965,686.747 1005.47,725.58 1016,771.5C 1029.72,828.331 1027.05,884.331 1008,939.5C 996.658,969.517 982.658,998.184 966,1025.5C 935.295,1075.86 902.628,1124.86 868,1172.5C 819.208,1237.74 769.208,1302.07 718,1365.5C 715.301,1365.66 712.468,1365.83 709.5,1366C 707.5,1366.67 706.167,1368 705.5,1370C 563.79,1369.84 422.29,1370.67 281,1372.5C 250.124,1303.39 214.124,1237.39 173,1174.5C 140.012,1128.53 108.012,1081.86 77,1034.5C 62.1178,1010.4 50.7844,984.735 43,957.5C 41.1518,950.259 39.8185,942.926 39,935.5C 34.9802,898.43 32.4802,861.263 31.5,824C 30.6482,787.601 37.4815,752.768 52,719.5C 67.7684,696.055 85.435,674.055 105,653.5C 151.139,605.678 199.972,561.178 251.5,520C 293.93,486.234 336.93,453.234 380.5,421C 406.935,402.466 436.269,392.633 468.5,391.5 Z"/></g>
<g><path style="opacity:1" fill="#bebebe" d="M 697.5,1400.5 C 561.833,1400.5 426.167,1400.5 290.5,1400.5C 290.5,1401.5 290.5,1402.5 290.5,1403.5C 289.566,1402.43 289.232,1401.1 289.5,1399.5C 425.668,1399.17 561.668,1399.5 697.5,1400.5 Z"/></g>
<g><path style="opacity:1" fill="#fefefe" d="M 697.5,1400.5 C 694.226,1436.1 691.726,1471.77 690,1507.5C 672.253,1886.29 663.919,2265.29 665,2644.5C 663.802,2737.98 659.469,2831.32 652,2924.5C 648.354,2968.97 641.687,3012.97 632,3056.5C 625.53,3084.29 613.53,3109.29 596,3131.5C 568.341,3158.52 537.508,3162.69 503.5,3144C 482.447,3128.95 465.613,3110.11 453,3087.5C 424.219,3034.16 405.219,2977.49 396,2917.5C 384.903,2818.62 374.903,2719.62 366,2620.5C 351.576,2465.89 337.909,2311.23 325,2156.5C 309.465,1905.69 297.965,1654.69 290.5,1403.5C 290.5,1402.5 290.5,1401.5 290.5,1400.5C 426.167,1400.5 561.833,1400.5 697.5,1400.5 Z"/></g>
</svg>
