<?xml version="1.0" encoding="UTF-8"?>
<!DOCTYPE svg PUBLIC "-//W3C//DTD SVG 1.1//EN" "http://www.w3.org/Graphics/SVG/1.1/DTD/svg11.dtd">
<svg xmlns="http://www.w3.org/2000/svg" version="1.1" width="1016px" height="3694px" style="shape-rendering:geometricPrecision; text-rendering:geometricPrecision; image-rendering:optimizeQuality; fill-rule:evenodd; clip-rule:evenodd" xmlns:xlink="http://www.w3.org/1999/xlink">
<g><path style="opacity:0.747" fill="#fdfdfd" d="M -0.5,-0.5 C 338.167,-0.5 676.833,-0.5 1015.5,-0.5C 1015.5,1230.83 1015.5,2462.17 1015.5,3693.5C 676.833,3693.5 338.167,3693.5 -0.5,3693.5C -0.5,2462.17 -0.5,1230.83 -0.5,-0.5 Z M 1012.5,2892.5 C 1009.91,2874.05 1006.07,2855.71 1001,2837.5C 992.595,2811.29 983.595,2785.29 974,2759.5C 914.879,2603.8 853.212,2449.13 789,2295.5C 785.34,2290.84 781.34,2286.51 777,2282.5C 764.914,2263.99 752.581,2245.66 740,2227.5C 739.333,2226.17 739.333,2224.83 740,2223.5C 747.995,2206.85 753.995,2189.52 758,2171.5C 760.735,2148.81 752.568,2131.31 733.5,2119C 726.997,2114.91 720.33,2111.08 713.5,2107.5C 712.827,2074.13 712.16,2040.8 711.5,2007.5C 743.838,1995.2 762.672,1971.87 768,1937.5C 771.945,1912.4 764.778,1891.23 746.5,1874C 735.849,1866.06 723.849,1861.56 710.5,1860.5C 710.333,1841.83 710.5,1823.16 711,1804.5C 724.749,1794.09 736.416,1781.75 746,1767.5C 767.446,1722.67 755.612,1689.67 710.5,1668.5C 709.167,1654.5 709.167,1640.5 710.5,1626.5C 730.698,1617.49 744.531,1602.49 752,1581.5C 761.441,1539.64 747.274,1508.64 709.5,1488.5C 707.445,1471.54 707.112,1454.54 708.5,1437.5C 729.808,1424.36 744.642,1406.03 753,1382.5C 759.58,1350.57 750.414,1324.07 725.5,1303C 719.679,1298.26 713.679,1293.76 707.5,1289.5C 706.334,1276.18 706.167,1262.85 707,1249.5C 750.107,1227.95 768.441,1193.29 762,1145.5C 752.94,1116.77 733.606,1099.77 704,1094.5C 696.336,1040.34 673.169,994.171 634.5,956C 582.636,912.495 524.303,901.162 459.5,922C 390.665,949.508 347.498,999.341 330,1071.5C 323.307,1108.21 319.307,1145.21 318,1182.5C 270.81,1201.21 252.143,1235.54 262,1285.5C 270.618,1311.4 288.451,1326.4 315.5,1330.5C 316.833,1351.17 316.833,1371.83 315.5,1392.5C 282.061,1405.53 264.728,1430.03 263.5,1466C 264.72,1501.63 282.387,1524.46 316.5,1534.5C 318.638,1547.77 318.971,1561.11 317.5,1574.5C 293.292,1584.21 275.792,1600.88 265,1624.5C 258.212,1657.46 268.378,1683.96 295.5,1704C 302.683,1709.34 310.516,1713.51 319,1716.5C 319.667,1728.5 319.667,1740.5 319,1752.5C 274.988,1772.19 257.655,1805.85 267,1853.5C 274.341,1880.25 290.841,1898.59 316.5,1908.5C 316.666,1917.84 316.5,1927.17 316,1936.5C 293.457,1949.71 276.457,1968.04 265,1991.5C 256.933,2016.67 259.6,2040.67 273,2063.5C 283.833,2081 298,2095.17 315.5,2106C 309.393,2142.41 303.56,2178.91 298,2215.5C 258.117,2276.71 217.451,2337.38 176,2397.5C 133.798,2461.87 95.1315,2528.54 60,2597.5C 41.4654,2634.43 26.4654,2672.77 15,2712.5C 12.2441,2724.04 10.2441,2735.7 9,2747.5C 6.49127,2770.96 4.3246,2794.29 2.5,2817.5C 2.5,1879.17 2.5,940.833 2.5,2.5C 339.167,2.5 675.833,2.5 1012.5,2.5C 1012.5,965.833 1012.5,1929.17 1012.5,2892.5 Z M 2.5,2893.5 C 6.0433,2919.02 12.21,2944.02 21,2968.5C 29.1861,2983.54 38.8528,2997.54 50,3010.5C 77.8983,3041.73 107.732,3070.9 139.5,3098C 170.583,3125.09 202.249,3151.42 234.5,3177C 289.607,3218.11 345.274,3258.44 401.5,3298C 430.357,3316.51 462.024,3326.17 496.5,3327C 534.343,3329.95 571.677,3326.95 608.5,3318C 628.575,3312.13 647.575,3303.8 665.5,3293C 749.662,3244.09 833.329,3194.42 916.5,3144C 964.842,3105.2 994.675,3055.03 1006,2993.5C 1008.51,2979.74 1010.68,2966.07 1012.5,2952.5C 1012.5,3198.5 1012.5,3444.5 1012.5,3690.5C 675.833,3690.5 339.167,3690.5 2.5,3690.5C 2.5,3424.83 2.5,3159.17 2.5,2893.5 Z"/></g>
<g><path style="opacity:0.981" fill="#000000" d="M 1012.5,2892.5 C 1012.5,2912.5 1012.5,2932.5 1012.5,2952.5C 1010.68,2966.07 1008.51,2979.74 1006,2993.5C 994.675,3055.03 964.842,3105.2 916.5,3144C 833.329,3194.42 749.662,3244.09 665.5,3293C 647.575,3303.8 628.575,3312.13 608.5,3318C 571.677,3326.95 534.343,3329.95 496.5,3327C 462.024,3326.17 430.357,3316.51 401.5,3298C 345.274,3258.44 289.607,3218.11 234.5,3177C 202.249,3151.42 170.583,3125.09 139.5,3098C 107.732,3070.9 77.8983,3041.73 50,3010.5C 38.8528,2997.54 29.1861,2983.54 21,2968.5C 12.21,2944.02 6.0433,2919.02 2.5,2893.5C 1.39972,2868.17 1.39972,2842.84 2.5,2817.5C 4.3246,2794.29 6.49127,2770.96 9,2747.5C 10.2441,2735.7 12.2441,2724.04 15,2712.5C 26.4654,2672.77 41.4654,2634.43 60,2597.5C 95.1315,2528.54 133.798,2461.87 176,2397.5C 217.451,2337.38 258.117,2276.71 298,2215.5C 303.56,2178.91 309.393,2142.41 315.5,2106C 298,2095.17 283.833,2081 273,2063.5C 259.6,2040.67 256.933,2016.67 265,1991.5C 276.457,1968.04 293.457,1949.71 316,1936.5C 316.5,1927.17 316.666,1917.84 316.5,1908.5C 290.841,1898.59 274.341,1880.25 267,1853.5C 257.655,1805.85 274.988,1772.19 319,1752.5C 319.667,1740.5 319.667,1728.5 319,1716.5C 310.516,1713.51 302.683,1709.34 295.5,1704C 268.378,1683.96 258.212,1657.46 265,1624.5C 275.792,1600.88 293.292,1584.21 317.5,1574.5C 318.971,1561.11 318.638,1547.77 316.5,1534.5C 282.387,1524.46 264.72,1501.63 263.5,1466C 264.728,1430.03 282.061,1405.53 315.5,1392.5C 316.833,1371.83 316.833,1351.17 315.5,1330.5C 288.451,1326.4 270.618,1311.4 262,1285.5C 252.143,1235.54 270.81,1201.21 318,1182.5C 319.307,1145.21 323.307,1108.21 330,1071.5C 347.498,999.341 390.665,949.508 459.5,922C 524.303,901.162 582.636,912.495 634.5,956C 673.169,994.171 696.336,1040.34 704,1094.5C 733.606,1099.77 752.94,1116.77 762,1145.5C 768.441,1193.29 750.107,1227.95 707,1249.5C 706.167,1262.85 706.334,1276.18 707.5,1289.5C 713.679,1293.76 719.679,1298.26 725.5,1303C 750.414,1324.07 759.58,1350.57 753,1382.5C 744.642,1406.03 729.808,1424.36 708.5,1437.5C 707.112,1454.54 707.445,1471.54 709.5,1488.5C 747.274,1508.64 761.441,1539.64 752,1581.5C 744.531,1602.49 730.698,1617.49 710.5,1626.5C 709.167,1640.5 709.167,1654.5 710.5,1668.5C 755.612,1689.67 767.446,1722.67 746,1767.5C 736.416,1781.75 724.749,1794.09 711,1804.5C 710.5,1823.16 710.333,1841.83 710.5,1860.5C 723.849,1861.56 735.849,1866.06 746.5,1874C 764.778,1891.23 771.945,1912.4 768,1937.5C 762.672,1971.87 743.838,1995.2 711.5,2007.5C 712.16,2040.8 712.827,2074.13 713.5,2107.5C 720.33,2111.08 726.997,2114.91 733.5,2119C 752.568,2131.31 760.735,2148.81 758,2171.5C 753.995,2189.52 747.995,2206.85 740,2223.5C 739.333,2224.83 739.333,2226.17 740,2227.5C 752.581,2245.66 764.914,2263.99 777,2282.5C 781.34,2286.51 785.34,2290.84 789,2295.5C 853.212,2449.13 914.879,2603.8 974,2759.5C 983.595,2785.29 992.595,2811.29 1001,2837.5C 1006.07,2855.71 1009.91,2874.05 1012.5,2892.5 Z"/></g>
<g><path style="opacity:1" fill="#b7b7b8" d="M 738.5,2278.5 C 589.666,2278.83 440.999,2278.5 292.5,2277.5C 303.159,2260.19 314.326,2243.19 326,2226.5C 333.577,2178.89 340.743,2131.22 347.5,2083.5C 341.402,2083.32 335.402,2082.49 329.5,2081C 310.761,2068.7 297.928,2051.87 291,2030.5C 287.204,2012.56 291.537,1996.89 304,1983.5C 316.415,1971.29 330.415,1961.29 346,1953.5C 346.5,1931.17 346.667,1908.84 346.5,1886.5C 309.274,1880.77 291.774,1859.11 294,1821.5C 297.81,1803.36 307.976,1790.2 324.5,1782C 331.878,1778.76 339.545,1776.59 347.5,1775.5C 348.832,1766.02 349.499,1756.19 349.5,1746C 349.5,1735.99 349.166,1726.16 348.5,1716.5C 348.5,1708.17 348.5,1699.83 348.5,1691.5C 323.281,1690.81 305.114,1679.14 294,1656.5C 288.483,1640.38 292.316,1626.88 305.5,1616C 317.969,1605.93 331.969,1598.76 347.5,1594.5C 347.5,1565.5 347.5,1536.5 347.5,1507.5C 332.041,1509.51 318.041,1506.01 305.5,1497C 289.499,1477.82 288.333,1457.65 302,1436.5C 313.756,1423.18 328.59,1416.52 346.5,1416.5C 346.621,1377.83 346.288,1339.16 345.5,1300.5C 336.173,1301.24 326.84,1301.4 317.5,1301C 297.913,1295.54 287.913,1282.54 287.5,1262C 289.45,1238.06 301.45,1221.39 323.5,1212C 331.294,1209.22 339.294,1207.38 347.5,1206.5C 347.951,1167.32 350.785,1128.32 356,1089.5C 367.61,1026.07 402.444,980.567 460.5,953C 524.398,929.02 579.898,941.52 627,990.5C 658.574,1028.34 675.074,1072.01 676.5,1121.5C 685.501,1122.58 694.501,1123.75 703.5,1125C 723.305,1130.47 733.972,1143.47 735.5,1164C 733.223,1189.56 720.89,1208.56 698.5,1221C 691.705,1223.88 684.705,1226.04 677.5,1227.5C 677.167,1253.84 677.5,1280.18 678.5,1306.5C 692.856,1313.68 705.356,1323.35 716,1335.5C 729.953,1354.14 729.953,1372.8 716,1391.5C 705.578,1403.88 693.245,1413.88 679,1421.5C 678.167,1450.17 678.333,1478.84 679.5,1507.5C 694.394,1511.86 706.894,1519.86 717,1531.5C 731.267,1553.68 729.1,1574.18 710.5,1593C 701.439,1598.94 691.439,1602.1 680.5,1602.5C 680.5,1631.5 680.5,1660.5 680.5,1689.5C 698.416,1692.61 712.916,1701.28 724,1715.5C 728.277,1724.67 728.611,1734 725,1743.5C 714.79,1762.21 700.623,1777.21 682.5,1788.5C 681.5,1822.49 681.167,1856.49 681.5,1890.5C 693.595,1888.83 705.595,1889.33 717.5,1892C 732.378,1897.89 739.712,1908.89 739.5,1925C 739.042,1944.58 731.375,1960.58 716.5,1973C 705.87,1978.69 694.537,1980.86 682.5,1979.5C 683.062,2028.5 683.728,2077.5 684.5,2126.5C 697.267,2131.71 709.267,2138.21 720.5,2146C 730.324,2155.68 732.157,2166.85 726,2179.5C 719.719,2196.06 712.885,2212.4 705.5,2228.5C 716.526,2245.18 727.526,2261.85 738.5,2278.5 Z"/></g>
<g><path style="opacity:1" fill="#7e7e7e" d="M 348.5,1716.5 C 349.166,1726.16 349.5,1735.99 349.5,1746C 349.499,1756.19 348.832,1766.02 347.5,1775.5C 348.487,1755.91 348.821,1736.24 348.5,1716.5 Z"/></g>
<g><path style="opacity:1" fill="#454545" d="M 292.5,2277.5 C 440.999,2278.5 589.666,2278.83 738.5,2278.5C 589.666,2279.83 440.666,2279.83 291.5,2278.5C 291.624,2277.89 291.957,2277.56 292.5,2277.5 Z"/></g>
<g><path style="opacity:1" fill="#fefefe" d="M 274.5,2307.5 C 437.167,2307.33 599.834,2307.5 762.5,2308C 826.874,2462.12 888.707,2617.28 948,2773.5C 956.531,2797.42 964.864,2821.42 973,2845.5C 990.453,2911.8 986.453,2976.8 961,3040.5C 946.206,3073.96 924.039,3101.46 894.5,3123C 816.83,3169.84 738.83,3216.17 660.5,3262C 641.524,3273.49 621.524,3282.82 600.5,3290C 560.168,3298.41 519.501,3300.41 478.5,3296C 458.772,3293.65 440.439,3287.31 423.5,3277C 366.794,3237.65 310.794,3197.31 255.5,3156C 209.658,3119.5 164.991,3081.5 121.5,3042C 105.304,3026.14 89.4709,3009.97 74,2993.5C 67.3333,2984.83 60.6667,2976.17 54,2967.5C 46.3013,2953.74 40.9679,2939.07 38,2923.5C 35.3429,2909.22 33.0095,2894.89 31,2880.5C 30.1183,2828.18 33.785,2776.18 42,2724.5C 52.1242,2687.46 65.7909,2651.79 83,2617.5C 117.004,2548.92 155.004,2482.92 197,2419.5C 222.103,2381.62 247.936,2344.28 274.5,2307.5 Z"/></g>
<g><path style="opacity:1" fill="#030303" d="M 355.5,3044.5 C 402.276,3060.7 449.942,3073.54 498.5,3083C 539.808,3088.92 581.141,3088.92 622.5,3083C 665.634,3075.53 708.301,3066.03 750.5,3054.5C 752.833,3063.83 755.167,3073.17 757.5,3082.5C 720.708,3091.83 683.708,3100.33 646.5,3108C 587.732,3119.64 529.065,3119.31 470.5,3107C 429.028,3097.23 388.028,3085.73 347.5,3072.5C 349.556,3063 352.223,3053.66 355.5,3044.5 Z"/></g>
</svg>
