<?xml version="1.0" encoding="UTF-8"?>
<!DOCTYPE svg PUBLIC "-//W3C//DTD SVG 1.1//EN" "http://www.w3.org/Graphics/SVG/1.1/DTD/svg11.dtd">
<svg xmlns="http://www.w3.org/2000/svg" version="1.1" width="1016px" height="3694px" style="shape-rendering:geometricPrecision; text-rendering:geometricPrecision; image-rendering:optimizeQuality; fill-rule:evenodd; clip-rule:evenodd" xmlns:xlink="http://www.w3.org/1999/xlink">
<g><path style="opacity:0.747" fill="#fdfdfd" d="M -0.5,-0.5 C 338.167,-0.5 676.833,-0.5 1015.5,-0.5C 1015.5,1230.83 1015.5,2462.17 1015.5,3693.5C 676.833,3693.5 338.167,3693.5 -0.5,3693.5C -0.5,2462.17 -0.5,1230.83 -0.5,-0.5 Z M 1012.5,2895.5 C 1010.13,2876.35 1006.3,2857.35 1001,2838.5C 973.303,2758.07 943.636,2678.4 912,2599.5C 867.115,2486.85 821.449,2374.51 775,2262.5C 764.726,2214.86 756.393,2166.86 750,2118.5C 704.567,1791.04 685.9,1462.04 694,1131.5C 693.831,1031.77 691.165,932.098 686,832.5C 682.773,770.456 676.106,708.79 666,647.5C 660.448,615.51 650.115,585.177 635,556.5C 603.959,503.151 559.126,486.317 500.5,506C 480.393,516.1 463.226,529.933 449,547.5C 421.856,584.175 401.523,624.508 388,668.5C 375.96,706.364 367.627,745.031 363,784.5C 338.17,1028.3 315.503,1272.3 295,1516.5C 287.959,1611.45 281.625,1706.45 276,1801.5C 266.334,1965.15 257.001,2128.82 248,2292.5C 193.059,2368.81 142.059,2447.81 95,2529.5C 71.3246,2571.52 50.3246,2614.85 32,2659.5C 20.8681,2686.56 13.2014,2714.56 9,2743.5C 6.49235,2765.62 4.32568,2787.62 2.5,2809.5C 2.5,1873.83 2.5,938.167 2.5,2.5C 339.167,2.5 675.833,2.5 1012.5,2.5C 1012.5,966.833 1012.5,1931.17 1012.5,2895.5 Z M 2.5,2895.5 C 5.94883,2919.63 11.7822,2943.3 20,2966.5C 23.8687,2975.02 28.5354,2983.02 34,2990.5C 52.6898,3013.86 72.8565,3036.03 94.5,3057C 143.31,3102.37 193.976,3145.37 246.5,3186C 299.48,3224.82 352.814,3263.16 406.5,3301C 432.295,3316.45 460.295,3324.79 490.5,3326C 531.01,3329.46 571.01,3326.46 610.5,3317C 619.609,3313.94 628.609,3310.61 637.5,3307C 673.346,3287.8 708.68,3267.8 743.5,3247C 802.167,3211.67 860.833,3176.33 919.5,3141C 969.153,3098.55 998.653,3044.72 1008,2979.5C 1009.52,2968.69 1011.02,2958.02 1012.5,2947.5C 1012.5,3195.17 1012.5,3442.83 1012.5,3690.5C 675.833,3690.5 339.167,3690.5 2.5,3690.5C 2.5,3425.5 2.5,3160.5 2.5,2895.5 Z"/></g>
<g><path style="opacity:0.982" fill="#010101" d="M 1012.5,2895.5 C 1012.5,2912.83 1012.5,2930.17 1012.5,2947.5C 1011.02,2958.02 1009.52,2968.69 1008,2979.5C 998.653,3044.72 969.153,3098.55 919.5,3141C 860.833,3176.33 802.167,3211.67 743.5,3247C 708.68,3267.8 673.346,3287.8 637.5,3307C 628.609,3310.61 619.609,3313.94 610.5,3317C 571.01,3326.46 531.01,3329.46 490.5,3326C 460.295,3324.79 432.295,3316.45 406.5,3301C 352.814,3263.16 299.48,3224.82 246.5,3186C 193.976,3145.37 143.31,3102.37 94.5,3057C 72.8565,3036.03 52.6898,3013.86 34,2990.5C 28.5354,2983.02 23.8687,2975.02 20,2966.5C 11.7822,2943.3 5.94883,2919.63 2.5,2895.5C 1.29473,2866.84 1.29473,2838.17 2.5,2809.5C 4.32568,2787.62 6.49235,2765.62 9,2743.5C 13.2014,2714.56 20.8681,2686.56 32,2659.5C 50.3246,2614.85 71.3246,2571.52 95,2529.5C 142.059,2447.81 193.059,2368.81 248,2292.5C 257.001,2128.82 266.334,1965.15 276,1801.5C 281.625,1706.45 287.959,1611.45 295,1516.5C 315.503,1272.3 338.17,1028.3 363,784.5C 367.627,745.031 375.96,706.364 388,668.5C 401.523,624.508 421.856,584.175 449,547.5C 463.226,529.933 480.393,516.1 500.5,506C 559.126,486.317 603.959,503.151 635,556.5C 650.115,585.177 660.448,615.51 666,647.5C 676.106,708.79 682.773,770.456 686,832.5C 691.165,932.098 693.831,1031.77 694,1131.5C 685.9,1462.04 704.567,1791.04 750,2118.5C 756.393,2166.86 764.726,2214.86 775,2262.5C 821.449,2374.51 867.115,2486.85 912,2599.5C 943.636,2678.4 973.303,2758.07 1001,2838.5C 1006.3,2857.35 1010.13,2876.35 1012.5,2895.5 Z"/></g>
<g><path style="opacity:1" fill="#fefefe" d="M 532.5,526.5 C 564.657,525.161 589.157,538.161 606,565.5C 622.022,593.898 632.689,624.232 638,656.5C 650.761,737.668 658.094,819.334 660,901.5C 662.615,973.478 664.282,1045.48 665,1117.5C 657.239,1421.27 671.572,1723.94 708,2025.5C 718.471,2111.66 731.971,2197.33 748.5,2282.5C 591.833,2282.5 435.167,2282.5 278.5,2282.5C 290.636,2036.35 305.136,1790.35 322,1544.5C 340.437,1323.7 360.437,1103.03 382,882.5C 385.913,843.121 390.247,803.788 395,764.5C 404.079,705.262 422.746,649.262 451,596.5C 461.55,578.606 474.383,562.439 489.5,548C 502.01,537.079 516.343,529.912 532.5,526.5 Z"/></g>
<g><path style="opacity:1" fill="#fefefe" d="M 270.5,2311.5 C 434.834,2311.33 599.167,2311.5 763.5,2312C 833.454,2478.75 899.954,2646.92 963,2816.5C 991.1,2891.84 990.1,2966.84 960,3041.5C 945.492,3073.34 924.325,3099.84 896.5,3121C 811.995,3172.09 726.995,3222.42 641.5,3272C 612.491,3287.67 581.491,3296 548.5,3297C 529.833,3297.67 511.167,3297.67 492.5,3297C 468.647,3295.79 446.313,3289.46 425.5,3278C 364.95,3236.23 305.284,3193.23 246.5,3149C 189.954,3103.8 135.787,3055.64 84,3004.5C 74.9572,2994.46 66.2905,2984.13 58,2973.5C 47.2165,2957.4 40.2165,2939.73 37,2920.5C 30.8285,2892.48 28.8285,2864.15 31,2835.5C 32.1064,2797.56 35.773,2759.89 42,2722.5C 53.3778,2682.75 68.3778,2644.41 87,2607.5C 119.05,2544.37 154.384,2483.37 193,2424.5C 218.349,2386.46 244.183,2348.79 270.5,2311.5 Z"/></g>
<g><path style="opacity:1" fill="#030303" d="M 354.5,3044.5 C 389.538,3055.59 424.871,3065.76 460.5,3075C 512.608,3088.35 565.275,3091.02 618.5,3083C 638.244,3079.7 657.91,3076.04 677.5,3072C 701.83,3066 726.163,3060.17 750.5,3054.5C 751.868,3063.31 753.868,3071.97 756.5,3080.5C 713.876,3093.26 670.542,3103.43 626.5,3111C 604.395,3113.66 582.229,3115.5 560,3116.5C 514.587,3115.35 470.087,3108.51 426.5,3096C 399.52,3088.42 372.853,3079.92 346.5,3070.5C 349.778,3062 352.444,3053.34 354.5,3044.5 Z"/></g>
</svg>
