<?xml version="1.0" encoding="UTF-8"?>
<svg version="1.1" xmlns="http://www.w3.org/2000/svg" width="1016" height="3694">
<path d="M0 0 C335.28 0 670.56 0 1016 0 C1016 1219.02 1016 2438.04 1016 3694 C680.72 3694 345.44 3694 0 3694 C0 2474.98 0 1255.96 0 0 Z M3 3 C3 929.31 3 1855.62 3 2810 C3.33 2810 3.66 2810 4 2810 C4.10022461 2808.71351563 4.20044922 2807.42703125 4.30371094 2806.1015625 C11.50816172 2714.20710108 38.39306234 2635.42179005 82.8046875 2554.828125 C85.02675366 2550.79125682 87.21580866 2546.73856524 89.3828125 2542.671875 C96.77517603 2528.80287802 104.44790007 2515.14341432 112.45263672 2501.61865234 C113.81125642 2499.31941679 115.16067675 2497.0152781 116.50390625 2494.70703125 C127.07306357 2476.56660273 137.89869694 2458.53831628 149.40625 2440.9765625 C152.25947049 2436.62061689 155.03769218 2432.21867074 157.8125 2427.8125 C158.31894043 2427.01062256 158.82538086 2426.20874512 159.34716797 2425.38256836 C161.86073023 2421.40177247 164.36486568 2417.41560232 166.8515625 2413.41796875 C184.08960021 2385.86176219 202.58634756 2359.01838143 221.28662109 2332.43701172 C223.07748619 2329.8897881 224.86174047 2327.33803669 226.64453125 2324.78515625 C228.87109973 2321.59804926 231.09776931 2318.41102067 233.328125 2315.2265625 C233.84001153 2314.47179469 234.35189806 2313.71702688 234.8792963 2312.93938732 C236.49212197 2310.70394099 238.12742429 2308.65198424 239.91044521 2306.56149006 C249.46190425 2294.92085104 250.84867717 2285.24832467 251.08032227 2270.51049805 C251.157494 2268.34778457 251.24056426 2266.18527458 251.32913303 2264.02299786 C251.50643297 2259.55060811 251.65620392 2255.07860544 251.78450394 2250.60454941 C252.06303089 2241.40429947 252.62234458 2232.22228688 253.16837609 2223.03481567 C253.46695055 2217.93284042 253.74048451 2212.82952811 254.01557922 2207.72624207 C254.13018362 2205.61156083 254.24484718 2203.49688281 254.35956764 2201.38220787 C254.44653983 2199.77745995 254.44653983 2199.77745995 254.53526902 2198.14029288 C254.84781057 2192.38241575 255.16256104 2186.6246594 255.47721863 2180.86689758 C255.60913826 2178.4525558 255.74105523 2176.03821387 255.87296963 2173.6238718 C255.93921532 2172.41146135 256.005461 2171.19905091 256.07371414 2169.94990075 C256.27696083 2166.22872659 256.4800089 2162.50754165 256.68299198 2158.78635311 C261.88803592 2063.37181046 267.19312117 1967.96323316 287.85829449 1630.15275669 C287.99588322 1628.06254117 288.1332291 1625.97230985 288.27048492 1623.88207245 C294.10020624 1535.14753593 301.85793529 1446.58241904 309.7323637 1358.01061153 C310.00357529 1354.95978191 310.27467456 1351.90894231 310.54575348 1348.85810089 C319.62702483 1246.66437252 328.82979771 1144.48057308 353.42773485 887.66357756 C353.68494877 885.08804591 353.94190698 882.51248888 354.19878769 879.93692398 C360.51420234 816.62677387 360.51420234 816.62677387 363.78515625 787.61328125 C363.88083075 786.75696672 363.97650524 785.9006522 364.07507896 785.01838875 C370.65359452 726.43092229 385.73526569 668.78405301 410 615 C410.38091797 614.14776855 410.76183594 613.29553711 411.15429688 612.41748047 C430.8407232 568.66349717 460.36505464 524.36811485 506 505 C517.87189944 500.56289409 529.6058557 498.61903167 542.25 498.6875 C543.34755615 498.69313965 544.4451123 498.6987793 545.57592773 498.70458984 C572.48868212 499.10547299 595.31899946 510.00346378 614 529 C614.81082031 529.81210937 615.62164063 530.62421875 616.45703125 531.4609375 C631.81431351 547.65197764 642.57390532 569.14741093 650 590 C650.29438965 590.80050781 650.5887793 591.60101562 650.89208984 592.42578125 C684.25774287 683.74586556 684.2024379 789.46494817 692 987 C692.0279364 988.11852356 692.0558728 989.23704712 692.08465576 990.38946533 C692.49134732 1006.92479547 692.75967847 1023.46153537 693 1040 C693.01497721 1041.03022817 693.01497721 1041.03022817 693.03025699 1042.08126903 C693.79454479 1094.97615806 694.10457127 1147.87060072 694.23996434 1200.77022001 C694.24815507 1203.94823079 694.25658724 1207.12624091 694.26502446 1210.30425104 C694.34327336 1239.79142927 694.41441425 1269.27862453 694.47194836 1298.76585072 C694.51169268 1319.06007478 694.5588668 1339.35426893 694.62109375 1359.6484375 C694.62349051 1360.43189927 694.62588727 1361.21536105 694.62835667 1362.02256408 C694.75012206 1401.36141627 694.97582911 1440.69063711 695.953125 1480.01953125 C695.97391829 1480.85677341 695.99471159 1481.69401557 696.01613498 1482.5566287 C696.45807153 1500.13743455 697.04245797 1517.71312555 697.67285156 1535.28808594 C697.71228276 1536.38755238 697.71228276 1536.38755238 697.75251055 1537.50923026 C698.25668044 1551.46666121 698.84635459 1565.42063644 699.52734375 1579.37060547 C699.56444962 1580.13487791 699.60155548 1580.89915035 699.63978577 1581.68658257 C703.89749876 1668.91719991 709.94873704 1756.03594893 765.95996094 2219.99072266 C766.73849176 2224.46098222 767.48576525 2228.93517491 768.21257019 2233.41409302 C771.0810795 2250.985349 776.08507718 2266.68010137 783.14660645 2283.01428223 C784.70161955 2286.63256261 786.21963845 2290.26640677 787.7421875 2293.8984375 C789.76122313 2298.70965701 791.78310703 2303.51958878 793.81835938 2308.32397461 C798.43236523 2319.22009668 802.9464388 2330.15225417 807.375 2341.125 C807.83209854 2342.25736084 807.83209854 2342.25736084 808.2984314 2343.41259766 C808.92142495 2344.95610038 809.5444056 2346.49960832 810.16737366 2348.04312134 C810.47952316 2348.81650848 810.79167267 2349.58989563 811.11328125 2350.38671875 C811.4277269 2351.16598724 811.74217255 2351.94525574 812.06614685 2352.74813843 C815.49791675 2361.24580779 818.97005956 2369.72687108 822.44415283 2378.20730591 C824.35068323 2382.86167279 826.25533366 2387.51680898 828.16015625 2392.171875 C828.74709259 2393.60624657 828.74709259 2393.60624657 829.34588623 2395.06959534 C830.15226389 2397.04028443 830.95861939 2399.01098259 831.76495361 2400.98168945 C832.59472815 2403.00956246 833.42460436 2405.03739387 834.25457764 2407.06518555 C847.92168501 2440.45895444 861.41077712 2473.92093235 874.78377914 2507.43324852 C879.18919479 2518.47300274 883.60516389 2529.50849414 888.02712822 2540.54162979 C902.79517573 2577.38958597 917.54473609 2614.24228142 931.92803955 2651.24261475 C932.99143569 2653.97797017 934.0559498 2656.71288851 935.12060547 2659.44775391 C939.71906177 2671.26630009 944.28461082 2683.09727023 948.82550049 2694.93804932 C949.63404528 2697.04594656 950.44311708 2699.1536417 951.25262451 2701.26116943 C962.05533246 2729.38670979 972.67998672 2757.56384667 982.8125 2785.9375 C983.41621933 2787.62546692 983.41621933 2787.62546692 984.03213501 2789.34753418 C988.41828593 2801.63079183 992.7021616 2813.94720999 996.86328125 2826.30859375 C997.2288765 2827.38584213 997.59447174 2828.46309052 997.97114563 2829.57298279 C1005.17380975 2851.14508856 1009.21336419 2873.47742587 1012 2896 C1012.33 2896 1012.66 2896 1013 2896 C1013 1941.31 1013 986.62 1013 3 C679.7 3 346.4 3 3 3 Z M3 2896 C3 3158.35 3 3420.7 3 3691 C336.3 3691 669.6 3691 1013 3691 C1013 3445.81 1013 3200.62 1013 2948 C1012.67 2948 1012.34 2948 1012 2948 C1011.86537354 2949.22626099 1011.86537354 2949.22626099 1011.72802734 2950.47729492 C1007.09659734 2991.85736291 998.74399433 3031.97415953 979 3069 C978.65888184 3069.64888184 978.31776367 3070.29776367 977.96630859 3070.96630859 C969.50316977 3086.97413662 959.08664141 3101.53329268 947 3115 C946.46697266 3115.59474121 945.93394531 3116.18948242 945.38476562 3116.80224609 C932.23491833 3131.39155112 917.99892602 3142.96739051 901.02246094 3152.82543945 C897.48561227 3154.87949292 893.96294364 3156.95770528 890.4375 3159.03125 C889.72335937 3159.45031616 889.00921875 3159.86938232 888.2734375 3160.30114746 C881.47190243 3164.29650631 874.73186083 3168.38867323 868 3172.5 C857.36973723 3178.98442984 846.67974281 3185.3629297 835.96401978 3191.70498657 C826.50189753 3197.3067415 817.07686065 3202.96466397 807.6875 3208.6875 C795.30198308 3216.23462097 782.84031855 3223.64809816 770.35009766 3231.02050781 C767.00572799 3232.99661547 763.66443638 3234.97782073 760.32421875 3236.9609375 C745.64784102 3245.6740329 730.94235899 3254.3358852 716.20892334 3262.95205688 C712.37507803 3265.19429152 708.54426627 3267.44162811 704.71484375 3269.69140625 C691.51189927 3277.43693381 678.20825077 3284.98425858 664.82714844 3292.41748047 C662.26094181 3293.85393568 659.70973943 3295.31271963 657.1640625 3296.78515625 C597.86484961 3330.90676088 515.08004172 3336.76707611 449.5 3319.6171875 C424.74845525 3312.71319579 404.65103665 3299.8669478 384 3285 C383.21947266 3284.43845215 382.43894531 3283.8769043 381.63476562 3283.29833984 C378.61281685 3281.12143644 375.59327976 3278.94128076 372.57836914 3276.75463867 C367.57968377 3273.12999952 362.55112194 3269.55114133 357.5 3266 C350.86990202 3261.33810428 344.29051538 3256.61010492 337.72827148 3251.85327148 C332.7016368 3248.21464077 327.64243995 3244.62621676 322.5625 3241.0625 C315.68682485 3236.23329949 308.90957165 3231.28034756 302.15649414 3226.28149414 C296.79759336 3222.31663726 291.4108888 3218.39356217 286 3214.5 C272.75504482 3204.95896958 259.59430202 3195.31580841 246.69580078 3185.31005859 C244.12601291 3183.32481792 241.54269904 3181.35741576 238.96044922 3179.38842773 C211.74056871 3158.62545682 211.74056871 3158.62545682 199.8671875 3148.4375 C197.32515492 3146.27642598 194.74667272 3144.18795558 192.125 3142.125 C185.88027797 3137.17368318 179.91813048 3131.89846019 173.91259766 3126.66259766 C170.93346289 3124.07287239 167.93648019 3121.50419095 164.9375 3118.9375 C164.36636475 3118.44813965 163.79522949 3117.9587793 163.20678711 3117.45458984 C160.27448918 3114.94308308 157.33847266 3112.43603859 154.3984375 3109.93359375 C147.98150928 3104.4644527 141.65608173 3098.92560988 135.44140625 3093.2265625 C133.33845167 3091.30866793 131.21330844 3089.42623955 129.0625 3087.5625 C124.13800086 3083.27989077 119.35181029 3078.84645175 114.55126953 3074.42626953 C112.10192006 3072.17428659 109.64363859 3069.93207349 107.1875 3067.6875 C105.12289299 3065.79395168 103.06109544 3063.89736933 101 3062 C100.42378906 3061.47035645 99.84757812 3060.94071289 99.25390625 3060.39501953 C75.31083431 3038.35065894 75.31083431 3038.35065894 65.4609375 3026.67578125 C63.92722273 3024.91652019 62.30327942 3023.30882424 60.625 3021.6875 C56.89404542 3018.01471175 53.64841707 3014.01039999 50.375 3009.9296875 C48.82204289 3008.01403316 47.23948543 3006.12190588 45.625 3004.2578125 C18.58156744 2972.96717418 9.85473158 2936.24971698 4 2896 C3.67 2896 3.34 2896 3 2896 Z " fill="#FEFEFE" transform="translate(0,0)"/>
<path d="M0 0 C3.66922363 3.00081177 6.97457022 6.29116263 10.25927734 9.70410156 C10.97341797 10.41050781 11.68755859 11.11691406 12.42333984 11.84472656 C28.88938399 29.03239017 38.18079526 53.4201771 45.25927734 75.70410156 C45.62408203 76.83074219 45.98888672 77.95738281 46.36474609 79.11816406 C48.7494686 86.96341444 50.51721853 94.95932568 52.32177734 102.95410156 C52.56742432 104.0363501 52.81307129 105.11859863 53.06616211 106.23364258 C56.58109836 122.15395891 58.80519061 138.21757675 60.75927734 154.39160156 C61.19404762 157.94906871 61.63098708 161.50626847 62.06787109 165.06347656 C62.22508888 166.34846291 62.22508888 166.34846291 62.38548279 167.65940857 C63.03907947 172.9831035 63.73595766 178.29884791 64.47387695 183.61157227 C68.38809913 212.07689466 70.51663509 240.72810372 72.32177734 269.39160156 C72.39782196 270.59727783 72.47386658 271.8029541 72.55221558 273.04516602 C72.94390649 279.31264677 73.32134168 285.58085305 73.68469238 291.85003662 C73.98117613 296.96326572 74.28082188 302.07626755 74.58890629 307.18881226 C76.76320986 343.35440729 78.29282875 379.52112085 79.34482914 415.73580608 C79.40857006 417.9248787 79.47302497 420.11392944 79.53759336 422.3029778 C81.06613686 474.29823482 81.67646878 526.27751524 81.79833984 578.29394531 C81.80042792 579.18179295 81.802516 580.06964059 81.80466735 580.9843927 C81.85897083 604.61710646 81.87504525 628.24981624 81.88029568 651.88258479 C81.88776039 684.73176637 81.92746948 717.58093509 81.98149967 750.43007067 C81.98583111 753.10106171 81.98995797 755.772053 81.99404144 758.44304442 C82.06934602 806.98912005 82.37463864 855.52361705 83.17333984 904.06347656 C83.19341614 905.30854501 83.21349244 906.55361345 83.23417711 907.83641124 C83.97920536 953.92927539 85.32023244 1000.0054618 87.61914062 1046.04882812 C87.69347163 1047.54721411 87.69347163 1047.54721411 87.76930428 1049.07587051 C89.31797423 1079.99720246 91.11893325 1110.90623902 92.98974609 1141.80957031 C93.07607709 1143.25012598 93.07607709 1143.25012598 93.16415215 1144.71978378 C93.32645097 1147.41808293 93.4919052 1150.1161688 93.65844727 1152.81420898 C93.72779795 1153.97509269 93.72779795 1153.97509269 93.79854965 1155.1594286 C94.08496355 1159.72422892 94.51008389 1164.25569979 95.04469872 1168.7982626 C95.28833296 1170.96216699 95.42763831 1173.11404449 95.50537109 1175.29003906 C95.53824219 1176.07765625 95.57111328 1176.86527344 95.60498047 1177.67675781 C95.66468231 1179.23916758 95.72209801 1180.80166695 95.77685547 1182.36425781 C96.02271325 1188.12567968 96.5685273 1193.82618988 97.19677734 1199.55566406 C97.92005354 1206.18250397 98.53552282 1212.80500046 99.01318359 1219.45410156 C99.07573837 1220.32290451 99.13829315 1221.19170746 99.20274353 1222.08683777 C99.33704112 1223.95892802 99.47111098 1225.83103461 99.60498047 1227.70315552 C101.56414768 1254.82234293 104.00763812 1281.89925381 106.46168137 1308.97723389 C106.75533929 1312.22307376 107.04734929 1315.46905792 107.33889771 1318.71508789 C109.42374792 1341.9009145 111.65053579 1365.05183556 114.37939453 1388.17114258 C115.1560112 1394.75353185 115.86911002 1401.33990008 116.53271484 1407.93457031 C116.67021149 1409.298834 116.67021149 1409.298834 116.81048584 1410.69065857 C116.99211901 1412.49766094 117.17345569 1414.30469313 117.35449219 1416.11175537 C119.40323074 1436.46729585 121.81368888 1456.76325597 124.40429688 1477.05621338 C124.5291748 1478.03443054 124.65405273 1479.01264771 124.78271484 1480.02050781 C124.90694824 1480.99276306 125.03118164 1481.96501831 125.15917969 1482.96673584 C126.36092488 1492.4155165 127.468365 1501.87466072 128.57128906 1511.33538818 C130.10114383 1524.44088548 131.72301735 1537.51110724 133.73803711 1550.55273438 C135.49783414 1562.00423127 136.96182623 1573.49334211 138.42138672 1584.98632812 C139.698315 1594.95263938 141.23910579 1604.84990338 142.93112183 1614.75363159 C143.68387063 1619.22777223 144.33799596 1623.71719757 145.00927734 1628.20410156 C150.34246241 1663.22552847 155.94712369 1698.33560674 163.78710938 1732.89428711 C163.98159668 1733.75578369 164.17608398 1734.61728027 164.37646484 1735.50488281 C164.54774902 1736.24907471 164.7190332 1736.9932666 164.89550781 1737.76000977 C165.25927734 1739.70410156 165.25927734 1739.70410156 165.25927734 1742.70410156 C10.15927734 1742.70410156 -144.94072266 1742.70410156 -304.74072266 1742.70410156 C-304.18593804 1722.73185525 -303.62824535 1702.99073515 -302.26806641 1683.09863281 C-301.72026551 1674.84445503 -301.34661 1666.58486671 -300.97952271 1658.3210144 C-300.11997624 1639.02720439 -298.95919697 1619.7580779 -297.73683167 1600.48429871 C-296.00777915 1573.18779789 -294.5776254 1545.87999727 -293.25361443 1518.56101608 C-293.06068909 1514.58389886 -292.86616512 1510.60686174 -292.67041016 1506.62988281 C-292.63265095 1505.8623682 -292.59489174 1505.09485359 -292.55598831 1504.30408096 C-291.97043748 1492.48498403 -291.24346982 1480.68173575 -290.42892456 1468.87609863 C-289.7974019 1459.70724402 -289.27757383 1450.53871002 -288.85015869 1441.35827637 C-288.65161569 1437.10992132 -288.44168669 1432.86212022 -288.23291016 1428.61425781 C-288.17029495 1427.33613724 -288.17029495 1427.33613724 -288.10641479 1426.03219604 C-287.50665999 1413.85786451 -286.79582822 1401.68999325 -286.08105469 1389.52197266 C-285.78231478 1384.4282481 -285.48804596 1379.33427035 -285.19418907 1374.24026203 C-283.45142709 1344.03783167 -281.67381246 1313.8413595 -279.5680542 1283.66163635 C-279.48143524 1282.42001991 -279.48143524 1282.42001991 -279.39306641 1281.15332031 C-279.33677063 1280.34688583 -279.28047485 1279.54045135 -279.22247314 1278.70957947 C-278.07914282 1262.25363912 -277.10322808 1245.78663171 -276.24462891 1229.31347656 C-276.20240707 1228.50389496 -276.16018524 1227.69431335 -276.11668396 1226.86019897 C-275.91578841 1222.99340975 -275.7177841 1219.12651109 -275.52563477 1215.25927734 C-273.79558037 1180.88781039 -271.13308301 1146.56122142 -268.69702148 1112.23461914 C-268.30392781 1106.69411984 -267.91286515 1101.15348006 -267.5229969 1095.61275291 C-267.37666568 1093.53870477 -267.2295945 1091.46470867 -267.08169365 1089.39077187 C-266.29906945 1078.41438267 -265.5683811 1067.44342719 -265.10472012 1056.44820881 C-264.90011486 1051.8727287 -264.5106163 1047.35839254 -263.97563267 1042.80992222 C-263.64362765 1039.83370582 -263.45731261 1036.85588967 -263.2824707 1033.86669922 C-263.20680374 1032.60497894 -263.13113678 1031.34325867 -263.05317688 1030.04330444 C-263.01450312 1029.38440594 -262.97582935 1028.72550743 -262.93598366 1028.0466423 C-261.97311005 1011.71151989 -260.81153427 995.39413666 -259.55322266 979.07910156 C-259.44773276 977.70474249 -259.34224368 976.33038336 -259.23675537 974.95602417 C-257.20816647 948.59506985 -254.86869398 922.26484096 -252.47070312 895.93530273 C-252.16855364 892.61606896 -251.86663865 889.29681397 -251.56494141 885.97753906 C-251.48976791 885.15068666 -251.41459442 884.32383427 -251.33714294 883.47192574 C-249.61331952 864.48656337 -248.00282014 845.49188482 -246.39826965 826.49613571 C-244.1214969 799.54765441 -241.75657036 772.61021447 -239.2399292 745.68307495 C-237.51992767 727.27933077 -235.87116101 708.87141932 -234.30322266 690.45410156 C-229.81710072 637.84808164 -224.95024991 585.27795268 -219.81285095 532.73175049 C-219.01321202 524.53892343 -218.22837382 516.34481359 -217.45556641 508.14941406 C-212.75295694 458.30685613 -207.81786455 408.48710397 -202.90415955 358.66500854 C-201.70907052 346.54540441 -200.51627354 334.42558215 -199.3293457 322.30517578 C-199.15943257 320.57030411 -199.15943257 320.57030411 -198.98608685 318.80038452 C-198.45604973 313.38750292 -197.92645733 307.97457832 -197.39756775 302.56158447 C-196.48768303 293.25730364 -195.5701057 283.95388189 -194.63012695 274.65258789 C-194.54871271 273.8461062 -194.46729847 273.03962452 -194.38341713 272.20870399 C-193.55402755 264.03477871 -192.66927607 255.86733584 -191.74072266 247.70410156 C-191.59844238 246.45226074 -191.45616211 245.20041992 -191.30957031 243.91064453 C-189.50619858 228.5394427 -186.83292183 213.42227224 -183.74072266 198.26660156 C-183.57318481 197.44153107 -183.40564697 196.61646057 -183.23303223 195.76638794 C-181.39277682 186.76707096 -179.35399143 177.90753904 -176.734375 169.09667969 C-175.69671301 165.55384161 -174.76511032 161.99330135 -173.84228516 158.41894531 C-171.58990162 149.92590223 -168.90388747 141.59716297 -166.11572266 133.26660156 C-165.85405304 132.48274078 -165.59238342 131.69888 -165.32278442 130.89126587 C-160.74176193 117.21996919 -155.69688804 103.84365152 -149.74072266 90.70410156 C-149.30405273 89.73730469 -148.86738281 88.77050781 -148.41748047 87.77441406 C-130.97690926 49.50309582 -106.39540554 7.56528467 -65.74072266 -9.29589844 C-43.80570037 -17.35707893 -18.92057577 -14.08561237 0 0 Z " fill="#FEFEFE" transform="translate(583.74072265625,540.2958984375)"/>
<path d="M0 0 C335.28 0 670.56 0 1016 0 C1016 1219.02 1016 2438.04 1016 3694 C680.72 3694 345.44 3694 0 3694 C0 2474.98 0 1255.96 0 0 Z M3 3 C3 929.31 3 1855.62 3 2810 C3.33 2810 3.66 2810 4 2810 C4.10022461 2808.71351563 4.20044922 2807.42703125 4.30371094 2806.1015625 C11.50816172 2714.20710108 38.39306234 2635.42179005 82.8046875 2554.828125 C85.02675366 2550.79125682 87.21580866 2546.73856524 89.3828125 2542.671875 C96.77517603 2528.80287802 104.44790007 2515.14341432 112.45263672 2501.61865234 C113.81125642 2499.31941679 115.16067675 2497.0152781 116.50390625 2494.70703125 C127.07306357 2476.56660273 137.89869694 2458.53831628 149.40625 2440.9765625 C152.25947049 2436.62061689 155.03769218 2432.21867074 157.8125 2427.8125 C158.31894043 2427.01062256 158.82538086 2426.20874512 159.34716797 2425.38256836 C161.86073023 2421.40177247 164.36486568 2417.41560232 166.8515625 2413.41796875 C184.08960021 2385.86176219 202.58634756 2359.01838143 221.28662109 2332.43701172 C223.07748619 2329.8897881 224.86174047 2327.33803669 226.64453125 2324.78515625 C228.87109973 2321.59804926 231.09776931 2318.41102067 233.328125 2315.2265625 C233.84001153 2314.47179469 234.35189806 2313.71702688 234.8792963 2312.93938732 C236.49212197 2310.70394099 238.12742429 2308.65198424 239.91044521 2306.56149006 C249.46190425 2294.92085104 250.84867717 2285.24832467 251.08032227 2270.51049805 C251.157494 2268.34778457 251.24056426 2266.18527458 251.32913303 2264.02299786 C251.50643297 2259.55060811 251.65620392 2255.07860544 251.78450394 2250.60454941 C252.06303089 2241.40429947 252.62234458 2232.22228688 253.16837609 2223.03481567 C253.46695055 2217.93284042 253.74048451 2212.82952811 254.01557922 2207.72624207 C254.13018362 2205.61156083 254.24484718 2203.49688281 254.35956764 2201.38220787 C254.44653983 2199.77745995 254.44653983 2199.77745995 254.53526902 2198.14029288 C254.84781057 2192.38241575 255.16256104 2186.6246594 255.47721863 2180.86689758 C255.60913826 2178.4525558 255.74105523 2176.03821387 255.87296963 2173.6238718 C255.93921532 2172.41146135 256.005461 2171.19905091 256.07371414 2169.94990075 C256.27696083 2166.22872659 256.4800089 2162.50754165 256.68299198 2158.78635311 C261.88803592 2063.37181046 267.19312117 1967.96323316 287.85829449 1630.15275669 C287.99588322 1628.06254117 288.1332291 1625.97230985 288.27048492 1623.88207245 C294.10020624 1535.14753593 301.85793529 1446.58241904 309.7323637 1358.01061153 C310.00357529 1354.95978191 310.27467456 1351.90894231 310.54575348 1348.85810089 C319.62702483 1246.66437252 328.82979771 1144.48057308 353.42773485 887.66357756 C353.68494877 885.08804591 353.94190698 882.51248888 354.19878769 879.93692398 C360.51420234 816.62677387 360.51420234 816.62677387 363.78515625 787.61328125 C363.88083075 786.75696672 363.97650524 785.9006522 364.07507896 785.01838875 C370.65359452 726.43092229 385.73526569 668.78405301 410 615 C410.38091797 614.14776855 410.76183594 613.29553711 411.15429688 612.41748047 C430.8407232 568.66349717 460.36505464 524.36811485 506 505 C517.87189944 500.56289409 529.6058557 498.61903167 542.25 498.6875 C543.34755615 498.69313965 544.4451123 498.6987793 545.57592773 498.70458984 C572.48868212 499.10547299 595.31899946 510.00346378 614 529 C614.81082031 529.81210937 615.62164063 530.62421875 616.45703125 531.4609375 C631.81431351 547.65197764 642.57390532 569.14741093 650 590 C650.29438965 590.80050781 650.5887793 591.60101562 650.89208984 592.42578125 C684.25774287 683.74586556 684.2024379 789.46494817 692 987 C692.0279364 988.11852356 692.0558728 989.23704712 692.08465576 990.38946533 C692.49134732 1006.92479547 692.75967847 1023.46153537 693 1040 C693.01497721 1041.03022817 693.01497721 1041.03022817 693.03025699 1042.08126903 C693.79454479 1094.97615806 694.10457127 1147.87060072 694.23996434 1200.77022001 C694.24815507 1203.94823079 694.25658724 1207.12624091 694.26502446 1210.30425104 C694.34327336 1239.79142927 694.41441425 1269.27862453 694.47194836 1298.76585072 C694.51169268 1319.06007478 694.5588668 1339.35426893 694.62109375 1359.6484375 C694.62349051 1360.43189927 694.62588727 1361.21536105 694.62835667 1362.02256408 C694.75012206 1401.36141627 694.97582911 1440.69063711 695.953125 1480.01953125 C695.97391829 1480.85677341 695.99471159 1481.69401557 696.01613498 1482.5566287 C696.45807153 1500.13743455 697.04245797 1517.71312555 697.67285156 1535.28808594 C697.71228276 1536.38755238 697.71228276 1536.38755238 697.75251055 1537.50923026 C698.25668044 1551.46666121 698.84635459 1565.42063644 699.52734375 1579.37060547 C699.56444962 1580.13487791 699.60155548 1580.89915035 699.63978577 1581.68658257 C703.89749876 1668.91719991 709.94873704 1756.03594893 765.95996094 2219.99072266 C766.73849176 2224.46098222 767.48576525 2228.93517491 768.21257019 2233.41409302 C771.0810795 2250.985349 776.08507718 2266.68010137 783.14660645 2283.01428223 C784.70161955 2286.63256261 786.21963845 2290.26640677 787.7421875 2293.8984375 C789.76122313 2298.70965701 791.78310703 2303.51958878 793.81835938 2308.32397461 C798.43236523 2319.22009668 802.9464388 2330.15225417 807.375 2341.125 C807.83209854 2342.25736084 807.83209854 2342.25736084 808.2984314 2343.41259766 C808.92142495 2344.95610038 809.5444056 2346.49960832 810.16737366 2348.04312134 C810.47952316 2348.81650848 810.79167267 2349.58989563 811.11328125 2350.38671875 C811.4277269 2351.16598724 811.74217255 2351.94525574 812.06614685 2352.74813843 C815.49791675 2361.24580779 818.97005956 2369.72687108 822.44415283 2378.20730591 C824.35068323 2382.86167279 826.25533366 2387.51680898 828.16015625 2392.171875 C828.74709259 2393.60624657 828.74709259 2393.60624657 829.34588623 2395.06959534 C830.15226389 2397.04028443 830.95861939 2399.01098259 831.76495361 2400.98168945 C832.59472815 2403.00956246 833.42460436 2405.03739387 834.25457764 2407.06518555 C847.92168501 2440.45895444 861.41077712 2473.92093235 874.78377914 2507.43324852 C879.18919479 2518.47300274 883.60516389 2529.50849414 888.02712822 2540.54162979 C902.79517573 2577.38958597 917.54473609 2614.24228142 931.92803955 2651.24261475 C932.99143569 2653.97797017 934.0559498 2656.71288851 935.12060547 2659.44775391 C939.71906177 2671.26630009 944.28461082 2683.09727023 948.82550049 2694.93804932 C949.63404528 2697.04594656 950.44311708 2699.1536417 951.25262451 2701.26116943 C962.05533246 2729.38670979 972.67998672 2757.56384667 982.8125 2785.9375 C983.41621933 2787.62546692 983.41621933 2787.62546692 984.03213501 2789.34753418 C988.41828593 2801.63079183 992.7021616 2813.94720999 996.86328125 2826.30859375 C997.2288765 2827.38584213 997.59447174 2828.46309052 997.97114563 2829.57298279 C1005.17380975 2851.14508856 1009.21336419 2873.47742587 1012 2896 C1012.33 2896 1012.66 2896 1013 2896 C1013 1941.31 1013 986.62 1013 3 C679.7 3 346.4 3 3 3 Z M473.33105469 564.97802734 C441.04964563 604.59441704 421.7252468 654.20158906 408.78027344 703.14477539 C407.92302923 706.28165619 406.99440935 709.39390613 406.0703125 712.51171875 C403.83581709 720.30757791 402.12241706 728.18238482 400.5 736.12573242 C400.01076346 738.51004388 399.50595631 740.89067338 399 743.27148438 C393.94968172 767.50592613 391.42212253 792.13420523 389.0625 816.75 C388.71755777 820.29656828 388.37091581 823.84296732 388.02400208 827.38934326 C387.77684375 829.91633893 387.53035654 832.44340032 387.2844696 834.97052002 C386.22388164 845.84638484 385.11140071 856.71670414 383.99482727 867.58694458 C381.04426609 896.32395039 378.23672606 925.07440574 375.44366455 953.8270874 C374.43483117 964.20991331 373.4239297 974.59253819 372.41320038 984.97517967 C372.03580755 988.85268328 371.65867904 992.73021254 371.28155518 996.60774231 C369.99720485 1009.80663073 368.70618513 1023.00483224 367.40332031 1036.2019043 C367.33765967 1036.86707388 367.27199904 1037.53224347 367.20434868 1038.21756971 C367.07239752 1039.55428302 366.94044376 1040.89099608 366.80848736 1042.22770888 C364.40959058 1066.52854701 362.0350852 1090.8302206 359.82212448 1115.14873505 C359.46944093 1119.02001626 359.11451171 1122.89109199 358.76000977 1126.76220703 C358.15285 1133.39586456 357.54737832 1140.02967449 356.94287109 1146.66357422 C356.29955744 1153.72269544 355.65388854 1160.78159734 355.00634766 1167.84033203 C351.42638057 1206.86706527 347.88346178 1245.89544119 344.57684326 1284.94638062 C342.73178384 1306.7316512 340.78413835 1328.50604322 338.78388596 1350.27758789 C335.48627337 1386.17397737 332.42454088 1422.08775867 329.42552185 1458.01019859 C328.47437926 1469.40026963 327.50770617 1480.78886287 326.51953125 1492.17578125 C326.46170975 1492.84262121 326.40388824 1493.50946117 326.34431458 1494.19650841 C325.76515444 1500.87437262 325.18302107 1507.5519679 324.59716797 1514.22924805 C323.63284886 1525.27059982 322.72534986 1536.31462671 321.8984375 1547.3671875 C321.81615402 1548.45938599 321.73387054 1549.55158447 321.64909363 1550.67687988 C320.96855985 1559.93679855 320.50956101 1569.20060809 320.17358398 1578.47900391 C320.02336798 1580.66062195 319.7941259 1582.80511909 319.53662109 1584.97583008 C318.8584665 1590.93998853 318.52278935 1596.91949526 318.16796875 1602.91015625 C318.00984218 1605.50545714 317.85163554 1608.10075315 317.69335938 1610.69604492 C317.61019214 1612.07139624 317.52710415 1613.44675236 317.4440918 1614.82211304 C317.00507909 1622.08758139 316.5574017 1629.35251209 316.10546875 1636.6171875 C316.05955471 1637.35531614 316.01364067 1638.09344479 315.9663353 1638.85394096 C315.07496833 1653.1391334 314.05417991 1667.41342936 313 1681.6875 C311.27580047 1705.09119754 309.88505899 1728.50702053 308.55904007 1751.9357748 C308.35372098 1755.56138173 308.14785296 1759.18695711 307.94140625 1762.8125 C307.88131378 1763.86789569 307.88131378 1763.86789569 307.82000732 1764.9446125 C307.00077255 1779.29251144 306.06323967 1793.63112153 305.03881836 1807.96582031 C303.898321 1823.96930984 302.95175705 1839.98441192 302 1856 C301.95808281 1856.70489563 301.91616562 1857.40979126 301.87297821 1858.13604736 C301.24407272 1868.71542921 300.62092196 1879.2951469 300 1889.875 C299.95654072 1890.61537254 299.91308144 1891.35574509 299.86830521 1892.11855316 C299.39216904 1900.2306892 298.91667578 1908.34286268 298.44189453 1916.45507812 C298.18588905 1920.82882546 297.92942543 1925.20254403 297.67138672 1929.57617188 C296.3835358 1951.40728135 295.24777543 1973.24547832 294.14038086 1995.08642578 C293.46329921 2008.38962035 292.74189443 2021.6896504 291.97435188 2034.98790359 C291.20391243 2048.34050287 290.4591614 2061.69444019 289.72246933 2075.04894257 C289.52718516 2078.58881214 289.33163769 2082.12866708 289.13601685 2085.66851807 C288.59949717 2095.37873664 288.06311265 2105.08896219 287.52905273 2114.79931641 C287.19727712 2120.83087405 286.86412809 2126.86235451 286.53009224 2132.89378738 C286.40480819 2135.16054129 286.28002299 2137.42732283 286.15577507 2139.69413376 C285.60088319 2149.81471499 285.04060677 2159.92673886 284.2202301 2170.02987671 C283.78488123 2175.90118958 283.54535828 2181.78301332 283.28125 2187.6640625 C283.21805632 2189.03161725 283.15461511 2190.39916058 283.09094238 2191.76669312 C282.85812928 2196.77701026 282.62919091 2201.78750227 282.40106201 2206.79803467 C282.20708979 2211.0571567 282.01114387 2215.31617859 281.81248474 2219.57508469 C281.72141645 2221.54391587 281.63318734 2223.51287774 281.54504395 2225.48184204 C281.48828491 2226.70035858 281.43152588 2227.91887512 281.37304688 2229.17431641 C281.30096008 2230.75764267 281.30096008 2230.75764267 281.22741699 2232.37295532 C280.92123684 2237.25618367 280.4429749 2242.12727606 280 2247 C279.67 2258.88 279.34 2270.76 279 2283 C434.1 2283 589.2 2283 749 2283 C747.47568147 2273.70184426 747.47568147 2273.70184426 745.66015625 2264.4921875 C741.32334233 2243.89957475 737.75653267 2223.19436679 734.3125 2202.4375 C734.19495991 2201.73033592 734.07741982 2201.02317184 733.9563179 2200.29457855 C730.99111834 2182.45380548 728.12985306 2164.59938494 725.41439819 2146.71865845 C724.93733963 2143.58891678 724.45150468 2140.46061221 723.96308899 2137.33262634 C721.56925826 2121.99908641 719.38510493 2106.66546798 717.51513672 2091.25830078 C716.67678874 2084.362698 715.80680806 2077.47424406 714.8515625 2070.59375 C714.75231979 2069.87849655 714.65307709 2069.1632431 714.55082703 2068.42631531 C714.45018448 2067.70128311 714.34954193 2066.97625092 714.24584961 2066.22924805 C709.6473644 2033.09645612 706.05299957 1999.83383767 702.39599609 1966.58618164 C701.63224067 1959.6473876 700.85572299 1952.7105858 700.04296875 1945.77734375 C692.78514523 1883.77769861 687.31894793 1821.54837716 682.71341991 1759.29864693 C682.56393104 1757.2798333 682.41347621 1755.26109381 682.26277161 1753.24237061 C682.08012553 1750.78825342 681.89986128 1748.33395731 681.72245789 1745.87945557 C681.60110222 1744.24855988 681.60110222 1744.24855988 681.47729492 1742.5847168 C681.4087883 1741.64540817 681.34028168 1740.70609955 681.2696991 1739.73832703 C680.97986433 1736.7955572 680.50164201 1733.91336348 680 1731 C679.87663007 1729.4539013 679.78141316 1727.9052154 679.71875 1726.35546875 C679.68136719 1725.51306641 679.64398437 1724.67066406 679.60546875 1723.80273438 C679.57066406 1722.93970703 679.53585937 1722.07667969 679.5 1721.1875 C679.42989561 1719.47253898 679.35699549 1717.75768988 679.28125 1716.04296875 C679.25095703 1715.29039795 679.22066406 1714.53782715 679.18945312 1713.76245117 C679.03102097 1711.45232256 678.79652687 1709.18142146 678.52571106 1706.88296509 C678.01131446 1702.29689567 677.67432245 1697.71597544 677.39916992 1693.11010742 C677.34684834 1692.26247928 677.29452675 1691.41485113 677.24061966 1690.54153728 C677.06799367 1687.72966473 676.89899622 1684.91758975 676.73046875 1682.10546875 C676.67076464 1681.11923649 676.61106052 1680.13300423 676.5495472 1679.11688614 C674.67842241 1648.20133915 672.89442962 1617.27895949 671.35986328 1586.34472656 C671.31658842 1585.47800198 671.27331356 1584.61127739 671.22872734 1583.71828842 C668.96177752 1537.28939138 667.66347451 1490.83553387 666.9140625 1444.359375 C666.89296905 1443.07745246 666.8718756 1441.79552992 666.85014296 1440.47476125 C666.06057767 1392.34171193 665.80428505 1344.21245124 665.73068905 1296.07346079 C665.72655438 1293.39708577 665.72221368 1290.72071115 665.71781158 1288.04433656 C665.66399218 1255.17307909 665.62771051 1222.30179254 665.62040788 1189.43049067 C665.61514509 1165.81689798 665.59465693 1142.20337672 665.5390625 1118.58984375 C665.53698161 1117.70321974 665.53490072 1116.81659574 665.53275678 1115.90310434 C665.40756069 1064.11429331 664.74556969 1012.36449793 663.21671385 960.59732142 C663.15326618 958.44534881 663.0904729 956.29335797 663.02782488 954.14136195 C661.1359402 889.35698185 658.1048538 824.53710736 652 760 C651.82309279 758.09725567 651.64624625 756.1945057 651.46948242 754.29174805 C651.04138755 749.7340567 650.59100532 745.17896197 650.125 740.625 C650.0448465 739.83723175 649.96469299 739.0494635 649.8821106 738.23782349 C648.2583018 722.40740185 646.13921642 706.66172329 643.84846497 690.91560364 C643.11126143 685.83309746 642.43927746 680.74445348 641.7878418 675.65039062 C640.51279943 665.77703117 638.76412664 656.08987607 636.54150391 646.38623047 C635.99106312 643.96061808 635.46929109 641.52994285 634.94921875 639.09765625 C627.41598671 604.74120013 614.95751538 571.40720034 590 546 C589.05253906 544.99839844 589.05253906 544.99839844 588.0859375 543.9765625 C576.32968018 532.53104326 558.04112773 526.71759902 542 526.5 C514.00142884 526.87980258 490.73200834 544.35448631 473.33105469 564.97802734 Z M259.36518225 2327.68115564 C257.20547084 2331.34955567 254.69797917 2334.75416154 252.1875 2338.1875 C251.17806762 2339.61995361 250.16986223 2341.05327464 249.1640625 2342.48828125 C247.57339142 2344.75719543 245.98200087 2347.02553959 244.38574219 2349.29052734 C225.11652407 2376.64382852 206.09602507 2404.30259013 188.42236328 2432.71728516 C186.42980999 2435.91508352 184.41340541 2439.09761043 182.39794922 2442.28100586 C180.89926699 2444.64915443 179.40432036 2447.01962379 177.91015625 2449.390625 C176.00881685 2452.40588682 174.09983286 2455.41606192 172.18359375 2458.421875 C160.19338046 2477.25923921 148.56618413 2496.35285182 137.35644531 2515.66552734 C136.35825686 2517.38343195 135.35718082 2519.09965952 134.35449219 2520.81494141 C124.88033958 2537.02586937 115.78799862 2553.40746744 107 2570 C106.53223145 2570.88300781 106.06446289 2571.76601562 105.58251953 2572.67578125 C103.49474027 2576.62268919 101.41606022 2580.57415585 99.34765625 2584.53125 C97.79343535 2587.50151013 96.21706999 2590.45822686 94.62109375 2593.40625 C73.32514212 2632.91471277 53.97764347 2676.39065506 43 2720 C42.75902588 2720.8976709 42.51805176 2721.7953418 42.26977539 2722.72021484 C39.62242058 2733.17967151 38.59121522 2743.7974503 37.4375 2754.5 C37.22787545 2756.38288631 37.01759213 2758.2656994 36.80664062 2760.1484375 C33.97096367 2784.86663953 33.97096367 2784.86663953 32.4375 2809.6875 C32.37647983 2811.44150524 32.31269383 2813.19541652 32.24609375 2814.94921875 C32.21020142 2816.05269653 32.21020142 2816.05269653 32.17358398 2817.1784668 C32.02033455 2819.66947067 31.77331544 2822.12243956 31.50170898 2824.60253906 C30.92948601 2830.20745198 30.78688924 2835.77907605 30.7265625 2841.41015625 C30.71412506 2842.48375397 30.70168762 2843.55735168 30.68887329 2844.66348267 C30.4619141 2868.96124761 31.04900774 2892.17794081 36 2916 C36.34986683 2917.80972043 36.69891245 2919.61959996 37.046875 2921.4296875 C37.89440787 2925.66347592 38.897926 2929.82483504 40 2934 C40.17466797 2934.66660645 40.34933594 2935.33321289 40.52929688 2936.02001953 C46.38556156 2957.8559673 58.25800748 2975.1293634 73 2992 C73.87205078 2993.02287109 73.87205078 2993.02287109 74.76171875 2994.06640625 C85.06010348 3006.07686502 96.20658837 3017.30793517 107.375 3028.5 C107.9385318 3029.06612 108.5020636 3029.63223999 109.08267212 3030.21551514 C114.66474708 3035.81778889 120.24651342 3041.37553743 126.26513672 3046.51464844 C129.04006034 3048.89047666 131.70177476 3051.38610623 134.375 3053.875 C139.08923619 3058.24494188 143.8326862 3062.57837303 148.62109375 3066.8671875 C150.2012649 3068.28389267 151.77683685 3069.70574529 153.34765625 3071.1328125 C159.23695012 3076.47626937 165.24576211 3081.66557823 171.29296875 3086.828125 C175.04512001 3090.03319096 178.77413734 3093.26444599 182.5 3096.5 C189.64100496 3102.69680849 196.80767936 3108.86282783 204 3115 C204.56493164 3115.48243164 205.12986328 3115.96486328 205.71191406 3116.46191406 C212.71072946 3122.432791 219.77159433 3128.30749628 227 3134 C228.02222656 3134.80695312 229.04445312 3135.61390625 230.09765625 3136.4453125 C233.06633331 3138.78559932 236.04114988 3141.11795997 239.01806641 3143.44775391 C240.37280562 3144.50878272 241.72660438 3145.57101312 243.07958984 3146.63427734 C252.19694845 3153.79776841 261.39491327 3160.82690002 270.75048828 3167.67675781 C276.55552496 3171.92723338 282.31631563 3176.23287113 288.0625 3180.5625 C296.55824883 3186.95404623 305.14411767 3193.20990782 313.78222656 3199.40722656 C317.52724214 3202.09684365 321.26310983 3204.79911144 325 3207.5 C326.49995709 3208.58339274 327.99995707 3209.66672611 329.5 3210.75 C338.5 3217.25 338.5 3217.25 340.74975586 3218.875 C342.25034655 3219.95864236 343.75116054 3221.04197556 345.25219727 3222.125 C348.99504887 3224.82611897 352.73391079 3227.5324371 356.46484375 3230.25 C364.91698835 3236.3968464 373.45083609 3242.39270742 382.09863281 3248.26123047 C387.03482358 3251.62219266 391.89059266 3255.06840854 396.6875 3258.625 C417.81328061 3274.2524063 439.04454744 3288.16964178 465 3294 C465.87269531 3294.20238281 466.74539063 3294.40476562 467.64453125 3294.61328125 C484.65738925 3298.12302046 502.24293403 3298.32666526 519.53759766 3298.26074219 C522.86509505 3298.25003188 526.19205014 3298.26070542 529.51953125 3298.2734375 C586.17231195 3298.30948963 628.67076293 3281.2024145 676.92724609 3252.80029297 C682.1632869 3249.73255382 687.42676834 3246.71262973 692.6875 3243.6875 C712.00835474 3232.55778126 731.24743676 3221.29397925 750.3515625 3209.79589844 C758.73730455 3204.75019533 767.14587525 3199.74393405 775.5625 3194.75 C776.91854108 3193.94507286 778.27457949 3193.1401412 779.63061523 3192.33520508 C785.81288616 3188.66624958 791.99711067 3185.00064086 798.18571472 3181.34237671 C812.23988863 3173.03359615 826.24485646 3164.66511201 840.12329102 3156.06445312 C848.10483111 3151.13155027 856.15290246 3146.32041337 864.2293396 3141.54495239 C868.29456896 3139.13985596 872.35493311 3136.72655113 876.41551208 3134.31361389 C879.35789621 3132.56574766 882.30250721 3130.8221828 885.25292969 3129.08789062 C896.02916065 3122.74396113 905.81171827 3116.38524934 914.58984375 3107.42773438 C915.97877159 3106.02149303 917.4111665 3104.65861646 918.84375 3103.296875 C926.0032246 3096.41895277 932.08045571 3088.9380676 938 3081 C938.62519531 3080.16984375 939.25039063 3079.3396875 939.89453125 3078.484375 C953.25275711 3060.08944103 962.79273377 3039.478153 970 3018 C970.32403809 3017.03666748 970.64807617 3016.07333496 970.98193359 3015.08081055 C973.71609768 3006.60958679 975.51905255 2998.0518666 977.125 2989.3125 C977.37820839 2987.96275952 977.63211265 2986.6131494 977.88671875 2985.26367188 C978.37750915 2982.6617979 978.86270032 2980.05910323 979.34472656 2977.45556641 C979.87474093 2974.66055027 980.45186118 2971.8851679 981.0546875 2969.10546875 C983.93367208 2954.46039475 984.31805589 2939.95767263 984.26074219 2925.06933594 C984.24997202 2921.74135312 984.26072414 2918.41390457 984.2734375 2915.0859375 C984.28072965 2904.52759569 984.1645362 2894.3680118 982 2884 C981.712541 2882.38819898 981.4260292 2880.77622864 981.140625 2879.1640625 C971.39744166 2828.4906868 951.15537672 2779.78173488 932.61772156 2731.79351807 C930.38401951 2726.0077616 928.17205247 2720.2138777 925.96484375 2714.41796875 C903.13274851 2654.49219246 879.24502579 2594.98882528 855.39505005 2535.46295166 C851.43431212 2525.57732772 847.47531228 2515.69102592 843.52490234 2505.80126953 C836.20117261 2487.46779226 828.84313421 2469.15026052 821.375 2450.875 C820.449567 2448.60739764 819.52427842 2446.33973633 818.59912109 2444.07202148 C816.69093916 2439.39497416 814.78215915 2434.71817155 812.87304688 2430.04150391 C810.00000373 2423.00191311 807.13219125 2415.96019905 804.265625 2408.91796875 C794.11898914 2383.99244016 783.96306078 2359.07084231 773.71923828 2334.18505859 C772.48724377 2331.19057421 771.26323291 2328.19293195 770.04248047 2325.19384766 C769.56022255 2324.01282219 769.56022255 2324.01282219 769.06822205 2322.80793762 C768.44915059 2321.29174065 767.83201211 2319.77475261 767.21705627 2318.25688171 C766.01524222 2314.88028388 766.01524222 2314.88028388 764 2312 C761.39643518 2311.88463572 758.81865962 2311.83503276 756.21390152 2311.82667255 C754.96946054 2311.81685268 754.96946054 2311.81685268 753.69987935 2311.80683443 C750.8836098 2311.78592773 748.06735101 2311.77227872 745.2510376 2311.75862122 C743.22591042 2311.74531168 741.20078579 2311.73160984 739.17566371 2311.71754664 C733.58206741 2311.68017369 727.98845124 2311.64947224 722.39480805 2311.62007153 C717.60381618 2311.59416136 712.81284902 2311.56462288 708.02187726 2311.53526107 C663.33523229 2311.26315767 618.64791269 2311.11109187 573.96062794 2310.9911942 C567.30919964 2310.97327703 560.6577733 2310.95466486 554.00634766 2310.93579102 C553.27137296 2310.93372024 552.53639827 2310.93164946 551.77915161 2310.92951593 C527.96488117 2310.86198999 504.15143111 2310.73342872 480.33762603 2310.57211695 C455.85808881 2310.40659754 431.37899988 2310.30003392 406.89890537 2310.26843817 C403.43933432 2310.26395189 399.97976453 2310.25880794 396.52019501 2310.2532711 C395.49888973 2310.25167043 395.49888973 2310.25167043 394.45695201 2310.25003742 C383.50833077 2310.23117982 372.56099587 2310.15064665 361.61288479 2310.04706218 C350.59980415 2309.94422686 339.58785792 2309.90892957 328.57429764 2309.93746201 C322.60879579 2309.95097749 316.64714263 2309.93534297 310.68229103 2309.8408432 C305.2158947 2309.75489763 299.75596997 2309.75271461 294.28932378 2309.81603261 C292.31660718 2309.8243098 290.34347265 2309.8023391 288.37153128 2309.74642394 C272.74912868 2309.32970446 267.00098412 2314.27102863 259.36518225 2327.68115564 Z M3 2896 C3 3158.35 3 3420.7 3 3691 C336.3 3691 669.6 3691 1013 3691 C1013 3445.81 1013 3200.62 1013 2948 C1012.67 2948 1012.34 2948 1012 2948 C1011.86537354 2949.22626099 1011.86537354 2949.22626099 1011.72802734 2950.47729492 C1007.09659734 2991.85736291 998.74399433 3031.97415953 979 3069 C978.65888184 3069.64888184 978.31776367 3070.29776367 977.96630859 3070.96630859 C969.50316977 3086.97413662 959.08664141 3101.53329268 947 3115 C946.46697266 3115.59474121 945.93394531 3116.18948242 945.38476562 3116.80224609 C932.23491833 3131.39155112 917.99892602 3142.96739051 901.02246094 3152.82543945 C897.48561227 3154.87949292 893.96294364 3156.95770528 890.4375 3159.03125 C889.72335937 3159.45031616 889.00921875 3159.86938232 888.2734375 3160.30114746 C881.47190243 3164.29650631 874.73186083 3168.38867323 868 3172.5 C857.36973723 3178.98442984 846.67974281 3185.3629297 835.96401978 3191.70498657 C826.50189753 3197.3067415 817.07686065 3202.96466397 807.6875 3208.6875 C795.30198308 3216.23462097 782.84031855 3223.64809816 770.35009766 3231.02050781 C767.00572799 3232.99661547 763.66443638 3234.97782073 760.32421875 3236.9609375 C745.64784102 3245.6740329 730.94235899 3254.3358852 716.20892334 3262.95205688 C712.37507803 3265.19429152 708.54426627 3267.44162811 704.71484375 3269.69140625 C691.51189927 3277.43693381 678.20825077 3284.98425858 664.82714844 3292.41748047 C662.26094181 3293.85393568 659.70973943 3295.31271963 657.1640625 3296.78515625 C597.86484961 3330.90676088 515.08004172 3336.76707611 449.5 3319.6171875 C424.74845525 3312.71319579 404.65103665 3299.8669478 384 3285 C383.21947266 3284.43845215 382.43894531 3283.8769043 381.63476562 3283.29833984 C378.61281685 3281.12143644 375.59327976 3278.94128076 372.57836914 3276.75463867 C367.57968377 3273.12999952 362.55112194 3269.55114133 357.5 3266 C350.86990202 3261.33810428 344.29051538 3256.61010492 337.72827148 3251.85327148 C332.7016368 3248.21464077 327.64243995 3244.62621676 322.5625 3241.0625 C315.68682485 3236.23329949 308.90957165 3231.28034756 302.15649414 3226.28149414 C296.79759336 3222.31663726 291.4108888 3218.39356217 286 3214.5 C272.75504482 3204.95896958 259.59430202 3195.31580841 246.69580078 3185.31005859 C244.12601291 3183.32481792 241.54269904 3181.35741576 238.96044922 3179.38842773 C211.74056871 3158.62545682 211.74056871 3158.62545682 199.8671875 3148.4375 C197.32515492 3146.27642598 194.74667272 3144.18795558 192.125 3142.125 C185.88027797 3137.17368318 179.91813048 3131.89846019 173.91259766 3126.66259766 C170.93346289 3124.07287239 167.93648019 3121.50419095 164.9375 3118.9375 C164.36636475 3118.44813965 163.79522949 3117.9587793 163.20678711 3117.45458984 C160.27448918 3114.94308308 157.33847266 3112.43603859 154.3984375 3109.93359375 C147.98150928 3104.4644527 141.65608173 3098.92560988 135.44140625 3093.2265625 C133.33845167 3091.30866793 131.21330844 3089.42623955 129.0625 3087.5625 C124.13800086 3083.27989077 119.35181029 3078.84645175 114.55126953 3074.42626953 C112.10192006 3072.17428659 109.64363859 3069.93207349 107.1875 3067.6875 C105.12289299 3065.79395168 103.06109544 3063.89736933 101 3062 C100.42378906 3061.47035645 99.84757812 3060.94071289 99.25390625 3060.39501953 C75.31083431 3038.35065894 75.31083431 3038.35065894 65.4609375 3026.67578125 C63.92722273 3024.91652019 62.30327942 3023.30882424 60.625 3021.6875 C56.89404542 3018.01471175 53.64841707 3014.01039999 50.375 3009.9296875 C48.82204289 3008.01403316 47.23948543 3006.12190588 45.625 3004.2578125 C18.58156744 2972.96717418 9.85473158 2936.24971698 4 2896 C3.67 2896 3.34 2896 3 2896 Z " fill="#010101" transform="translate(0,0)"/>
<path d="M0 0 C335.28 0 670.56 0 1016 0 C1016 1219.02 1016 2438.04 1016 3694 C680.72 3694 345.44 3694 0 3694 C0 2474.98 0 1255.96 0 0 Z M3 3 C2.91242333 207.1638385 2.91242333 207.1638385 2.82616145 411.32767755 C2.82545536 413.01592019 2.82474927 414.70416283 2.82404317 416.39240547 C2.82368912 417.23896463 2.82333507 418.0855238 2.82297029 418.95773627 C2.82186709 421.5952638 2.82076351 424.23279132 2.81965982 426.87031884 C2.77977772 522.18110878 2.7406908 617.49189902 2.67281615 789.83922139 C2.67164519 792.8284094 2.67047394 795.81759741 2.66930261 798.80678542 C2.63604663 883.67559212 2.6030472 968.54439893 2.57038688 1053.41320586 C2.5691754 1056.56127052 2.56796391 1059.70933517 2.5667524 1062.85739983 C2.56635226 1063.89715 2.56595213 1064.93690018 2.56553987 1066.00815794 C2.55050536 1105.07347096 2.53541285 1144.13878397 2.52028555 1183.20409696 C2.51864291 1187.44625188 2.51700093 1191.6884068 2.51535956 1195.93056173 C2.47703662 1294.9755592 2.43775037 1394.02055613 2.39489746 1493.06555176 C2.39445359 1494.09149264 2.39400971 1495.11743352 2.39355239 1496.17446352 C2.38281884 1520.97827272 2.37202979 1545.78208188 2.36122659 1570.58589104 C2.3171245 1671.84647152 2.27324657 1773.1070521 2.12423656 2166.03851465 C2.12179304 2172.99009924 2.11933928 2179.94168383 2.11688077 2186.89326841 C2.08272939 2283.48794987 2.05063998 2380.0826319 2.19212053 3153.54793849 C2.19574909 3157.20907174 2.19934656 3160.87020501 2.20293225 3164.53133829 C2.20873412 3170.45513221 2.2145851 3176.37892607 2.2204743 3182.30271989 C2.22258212 3184.42621734 2.22467962 3186.54971479 2.22676306 3188.67321226 C2.39147367 3356.11560856 2.71545298 3523.55777754 3 3691 C336.3 3691 669.6 3691 1013 3691 C1013 2473.96 1013 1256.92 1013 3 C679.7 3 346.4 3 3 3 Z " fill="#FDFDFD" transform="translate(0,0)"/>
<path d="M0 0 C5.51518805 0.62009389 10.48625299 1.95682553 15.75 3.6875 C16.99499268 4.08787476 16.99499268 4.08787476 18.26513672 4.49633789 C20.84502651 5.32602304 23.42268706 6.16234854 26 7 C38.61038149 11.08899676 51.28880796 14.81045779 64.06640625 18.34375 C68.25135885 19.50369889 72.41889556 20.70676798 76.57592773 21.96264648 C103.80601332 30.18488076 131.62164426 35.98809117 159.82421875 39.59326172 C161.75771147 39.84089386 163.69031384 40.09580548 165.62109375 40.36376953 C206.96344299 46.05767683 249.12552829 40.76413361 289.86065674 33.38671875 C291.91153529 33.01599134 293.96320067 32.64997866 296.01513672 32.28515625 C316.91148197 28.53826187 337.46200801 23.65062866 358.04394531 18.48883057 C360.83974273 17.79014293 363.63849748 17.10368816 366.4375 16.41796875 C377.27476152 13.77301069 377.27476152 13.77301069 387.9296875 10.48046875 C390.64106008 9.85122568 393.22508795 9.97097175 396 10 C397.00553881 14.10283012 398.0034811 18.20747057 399 22.3125 C399.28617188 23.47974609 399.57234375 24.64699219 399.8671875 25.84960938 C400.13789062 26.96787109 400.40859375 28.08613281 400.6875 29.23828125 C400.93886719 30.26993408 401.19023438 31.30158691 401.44921875 32.36450195 C402 35 402 35 402 38 C401.45811035 38.12528076 400.9162207 38.25056152 400.35791016 38.37963867 C391.02443311 40.54644399 381.71189451 42.73320121 372.5 45.375 C359.77284532 48.9994818 346.88110585 51.97982808 334 55 C333.04593262 55.226875 332.09186523 55.45375 331.10888672 55.6875 C303.56714724 62.19782808 275.1466024 67.04872602 247 70 C246.06575195 70.10151367 245.13150391 70.20302734 244.16894531 70.30761719 C216.06922232 73.26401021 188.3616966 72.49260788 160.34716797 69.3671875 C157.53622687 69.0588246 154.7266809 68.78176238 151.91015625 68.53125 C126.34257506 66.1780924 100.67936878 59.93977191 76 53 C75.04480469 52.73348633 74.08960938 52.46697266 73.10546875 52.19238281 C45.81830459 44.56220541 18.83373893 36.0852347 -8 27 C-6.23335055 20.39329922 -4.38478056 13.82985367 -2.3125 7.3125 C-2.08755859 6.59900391 -1.86261719 5.88550781 -1.63085938 5.15039062 C-1.08913088 3.43299602 -0.54485625 1.71640486 0 0 Z " fill="#020202" transform="translate(355,3045)"/>
</svg>
