<?xml version="1.0" encoding="UTF-8"?>
<!DOCTYPE svg PUBLIC "-//W3C//DTD SVG 1.1//EN" "http://www.w3.org/Graphics/SVG/1.1/DTD/svg11.dtd">
<svg xmlns="http://www.w3.org/2000/svg" version="1.1" width="1590px" height="3694px" style="shape-rendering:geometricPrecision; text-rendering:geometricPrecision; image-rendering:optimizeQuality; fill-rule:evenodd; clip-rule:evenodd" xmlns:xlink="http://www.w3.org/1999/xlink">
<g><path style="opacity:0.777" fill="#fdfdfd" d="M -0.5,-0.5 C 529.5,-0.5 1059.5,-0.5 1589.5,-0.5C 1589.5,1230.83 1589.5,2462.17 1589.5,3693.5C 1059.5,3693.5 529.5,3693.5 -0.5,3693.5C -0.5,2462.17 -0.5,1230.83 -0.5,-0.5 Z M 1586.5,773.5 C 1581.7,722.69 1573.2,672.357 1561,622.5C 1546.17,582.017 1520.67,550.184 1484.5,527C 1454.85,511.407 1423.52,506.741 1390.5,513C 1351.85,520.197 1317.35,536.03 1287,560.5C 1254.18,527.826 1215.35,504.992 1170.5,492C 1068.51,461.902 968.174,466.569 869.5,506C 822.631,524.93 778.131,548.097 736,575.5C 682.278,532.88 622.444,501.046 556.5,480C 486.849,459.347 417.182,459.347 347.5,480C 277.708,501.393 214.041,534.059 156.5,578C 110.511,618.619 69.0107,663.119 32,711.5C 18.593,733.716 9.92638,757.716 6,783.5C 4.66904,792.965 3.50238,802.298 2.5,811.5C 2.5,541.833 2.5,272.167 2.5,2.5C 530.5,2.5 1058.5,2.5 1586.5,2.5C 1586.5,259.5 1586.5,516.5 1586.5,773.5 Z M 2.5,853.5 C 5.71851,892.484 11.8852,931.151 21,969.5C 33.2063,1022.33 48.2063,1074.33 66,1125.5C 102.038,1213.59 146.371,1296.93 199,1375.5C 200.047,1378.04 200.547,1380.71 200.5,1383.5C 183.038,1647.68 163.204,1911.68 141,2175.5C 133.245,2268.68 129.078,2362.01 128.5,2455.5C 126.868,2542.32 134.368,2628.32 151,2713.5C 176.912,2811.91 211.912,2906.91 256,2998.5C 265.826,3018.17 277.159,3036.83 290,3054.5C 327.371,3107.56 370.204,3156.06 418.5,3200C 438.939,3217.42 461.272,3232.09 485.5,3244C 544.433,3266.24 590.6,3250.74 624,3197.5C 641.475,3162.27 650.475,3124.93 651,3085.5C 652.54,3035.39 648.54,2985.72 639,2936.5C 626.509,2880.2 614.175,2823.87 602,2767.5C 593.499,2727.16 587.166,2686.5 583,2645.5C 581.126,2588.17 581.126,2530.84 583,2473.5C 587.53,2328.38 594.53,2183.38 604,2038.5C 606.395,2008.98 615.729,1981.98 632,1957.5C 656.353,1929.16 684.519,1924.66 716.5,1944C 741.7,1962.2 761.533,1985.03 776,2012.5C 793.277,2048.66 807.61,2085.99 819,2124.5C 837.489,2186.79 855.822,2249.12 874,2311.5C 890.784,2368.52 911.118,2424.19 935,2478.5C 954.948,2521.01 975.281,2563.34 996,2605.5C 1007.9,2634.33 1015.24,2664.33 1018,2695.5C 1023.46,2747.02 1025.96,2798.69 1025.5,2850.5C 1024.9,2935.11 1021.57,3019.61 1015.5,3104C 1014.98,3123.68 1017.81,3142.85 1024,3161.5C 1031.86,3182.02 1046.69,3190.85 1068.5,3188C 1080.17,3186.33 1091.17,3182.67 1101.5,3177C 1132.43,3157.41 1157.26,3131.91 1176,3100.5C 1205.8,3053.91 1232.8,3005.58 1257,2955.5C 1273.51,2915.12 1285.85,2873.45 1294,2830.5C 1311.92,2749.64 1319.42,2667.81 1316.5,2585C 1316.23,2551.16 1315.73,2517.33 1315,2483.5C 1311.16,2357.15 1306.83,2230.82 1302,2104.5C 1299.28,2029.17 1298.61,1953.84 1300,1878.5C 1304.09,1801.05 1312.42,1724.05 1325,1647.5C 1339.15,1557.77 1355.48,1468.43 1374,1379.5C 1420.28,1293.28 1465.28,1206.28 1509,1118.5C 1522.49,1090.52 1535.16,1062.19 1547,1033.5C 1566.2,976.729 1579.36,918.729 1586.5,859.5C 1586.5,1803.17 1586.5,2746.83 1586.5,3690.5C 1058.5,3690.5 530.5,3690.5 2.5,3690.5C 2.5,2744.83 2.5,1799.17 2.5,853.5 Z"/></g>
<g><path style="opacity:0.983" fill="#010101" d="M 1586.5,773.5 C 1587.82,802.166 1587.82,830.833 1586.5,859.5C 1579.36,918.729 1566.2,976.729 1547,1033.5C 1535.16,1062.19 1522.49,1090.52 1509,1118.5C 1465.28,1206.28 1420.28,1293.28 1374,1379.5C 1355.48,1468.43 1339.15,1557.77 1325,1647.5C 1312.42,1724.05 1304.09,1801.05 1300,1878.5C 1298.61,1953.84 1299.28,2029.17 1302,2104.5C 1306.83,2230.82 1311.16,2357.15 1315,2483.5C 1315.73,2517.33 1316.23,2551.16 1316.5,2585C 1319.42,2667.81 1311.92,2749.64 1294,2830.5C 1285.85,2873.45 1273.51,2915.12 1257,2955.5C 1232.8,3005.58 1205.8,3053.91 1176,3100.5C 1157.26,3131.91 1132.43,3157.41 1101.5,3177C 1091.17,3182.67 1080.17,3186.33 1068.5,3188C 1046.69,3190.85 1031.86,3182.02 1024,3161.5C 1017.81,3142.85 1014.98,3123.68 1015.5,3104C 1021.57,3019.61 1024.9,2935.11 1025.5,2850.5C 1025.96,2798.69 1023.46,2747.02 1018,2695.5C 1015.24,2664.33 1007.9,2634.33 996,2605.5C 975.281,2563.34 954.948,2521.01 935,2478.5C 911.118,2424.19 890.784,2368.52 874,2311.5C 855.822,2249.12 837.489,2186.79 819,2124.5C 807.61,2085.99 793.277,2048.66 776,2012.5C 761.533,1985.03 741.7,1962.2 716.5,1944C 684.519,1924.66 656.353,1929.16 632,1957.5C 615.729,1981.98 606.395,2008.98 604,2038.5C 594.53,2183.38 587.53,2328.38 583,2473.5C 581.126,2530.84 581.126,2588.17 583,2645.5C 587.166,2686.5 593.499,2727.16 602,2767.5C 614.175,2823.87 626.509,2880.2 639,2936.5C 648.54,2985.72 652.54,3035.39 651,3085.5C 650.475,3124.93 641.475,3162.27 624,3197.5C 590.6,3250.74 544.433,3266.24 485.5,3244C 461.272,3232.09 438.939,3217.42 418.5,3200C 370.204,3156.06 327.371,3107.56 290,3054.5C 277.159,3036.83 265.826,3018.17 256,2998.5C 211.912,2906.91 176.912,2811.91 151,2713.5C 134.368,2628.32 126.868,2542.32 128.5,2455.5C 129.078,2362.01 133.245,2268.68 141,2175.5C 163.204,1911.68 183.038,1647.68 200.5,1383.5C 200.547,1380.71 200.047,1378.04 199,1375.5C 146.371,1296.93 102.038,1213.59 66,1125.5C 48.2063,1074.33 33.2063,1022.33 21,969.5C 11.8852,931.151 5.71851,892.484 2.5,853.5C 2.5,839.5 2.5,825.5 2.5,811.5C 3.50238,802.298 4.66904,792.965 6,783.5C 9.92638,757.716 18.593,733.716 32,711.5C 69.0107,663.119 110.511,618.619 156.5,578C 214.041,534.059 277.708,501.393 347.5,480C 417.182,459.347 486.849,459.347 556.5,480C 622.444,501.046 682.278,532.88 736,575.5C 778.131,548.097 822.631,524.93 869.5,506C 968.174,466.569 1068.51,461.902 1170.5,492C 1215.35,504.992 1254.18,527.826 1287,560.5C 1317.35,536.03 1351.85,520.197 1390.5,513C 1423.52,506.741 1454.85,511.407 1484.5,527C 1520.67,550.184 1546.17,582.017 1561,622.5C 1573.2,672.357 1581.7,722.69 1586.5,773.5 Z"/></g>
<g><path style="opacity:1" fill="#fefefe" d="M 1269.5,730.5 C 1278.99,731.494 1288.65,731.827 1298.5,731.5C 1298.5,683.833 1298.5,636.167 1298.5,588.5C 1327.96,563.275 1361.96,547.442 1400.5,541C 1447.8,535.736 1484.96,552.57 1512,591.5C 1521.17,604.833 1528.5,619.166 1534,634.5C 1551.53,703.433 1559.53,773.433 1558,844.5C 1552.02,902.741 1540.02,959.741 1522,1015.5C 1510.04,1046.42 1496.71,1076.75 1482,1106.5C 1438.28,1194.83 1392.95,1282.16 1346,1368.5C 1344.89,1374.87 1343.73,1381.2 1342.5,1387.5C 1341.51,1382.02 1341.18,1376.36 1341.5,1370.5C 971.167,1370.5 600.833,1370.5 230.5,1370.5C 183.471,1300.14 142.304,1226.14 107,1148.5C 77.8244,1074.98 55.8244,999.314 41,921.5C 33.1766,881.833 30.5099,841.833 33,801.5C 35.8374,764.953 49.1707,732.953 73,705.5C 104.405,669.759 137.572,635.593 172.5,603C 234.75,554.129 304.583,520.295 382,501.5C 436.647,489.449 490.814,491.283 544.5,507C 607.4,526.86 664.567,557.027 716,597.5C 716.5,681.499 716.667,765.499 716.5,849.5C 726.167,849.5 735.833,849.5 745.5,849.5C 745.333,767.833 745.5,686.166 746,604.5C 809.888,560.145 879.722,528.645 955.5,510C 1021.64,498.239 1087.3,500.572 1152.5,517C 1192.48,527.317 1227.81,545.984 1258.5,573C 1262.35,576.549 1265.85,580.383 1269,584.5C 1269.5,633.166 1269.67,681.832 1269.5,730.5 Z"/></g>
<g><path style="opacity:1" fill="#373737" d="M 1298.5,588.5 C 1298.5,636.167 1298.5,683.833 1298.5,731.5C 1288.65,731.827 1278.99,731.494 1269.5,730.5C 1278.83,730.5 1288.17,730.5 1297.5,730.5C 1297.17,682.997 1297.5,635.664 1298.5,588.5 Z"/></g>
<g><path style="opacity:1" fill="#585858" d="M 230.5,1370.5 C 600.833,1370.5 971.167,1370.5 1341.5,1370.5C 1341.18,1376.36 1341.51,1382.02 1342.5,1387.5C 1342.11,1389.18 1341.61,1390.85 1341,1392.5C 1340.5,1385.51 1340.33,1378.51 1340.5,1371.5C 970.333,1371.83 600.333,1371.5 230.5,1370.5 Z"/></g>
<g><path style="opacity:1" fill="#fefefe" d="M 228.5,1399.5 C 598.833,1399.5 969.167,1399.5 1339.5,1399.5C 1316.44,1513.18 1297.28,1627.51 1282,1742.5C 1270.93,1828.48 1266.93,1914.82 1270,2001.5C 1275.19,2161.17 1280.53,2320.83 1286,2480.5C 1287.94,2541.83 1287.94,2603.17 1286,2664.5C 1282.45,2738.8 1270.78,2811.8 1251,2883.5C 1241.92,2917.4 1228.92,2949.73 1212,2980.5C 1191.93,3017.66 1170.59,3053.99 1148,3089.5C 1133.95,3111.55 1116.45,3130.38 1095.5,3146C 1085.24,3153.14 1073.9,3157.64 1061.5,3159.5C 1056.32,3159.33 1052.48,3156.99 1050,3152.5C 1045.1,3139.3 1043.26,3125.64 1044.5,3111.5C 1047.8,3060.53 1050.64,3009.53 1053,2958.5C 1055.89,2878.77 1054.89,2799.11 1050,2719.5C 1047.36,2686.72 1042.03,2654.39 1034,2622.5C 1030.45,2611.18 1026.12,2600.18 1021,2589.5C 989.594,2528.03 960.928,2465.36 935,2401.5C 921.33,2363.49 908.663,2325.16 897,2286.5C 879.818,2224.95 861.818,2163.62 843,2102.5C 831.742,2066.06 817.742,2030.72 801,1996.5C 787.255,1972.4 770.088,1950.9 749.5,1932C 732.165,1916.17 711.832,1906.5 688.5,1903C 649.835,1902.08 620.668,1918.25 601,1951.5C 585.979,1978.57 576.979,2007.57 574,2038.5C 564.709,2191.73 557.709,2345.06 553,2498.5C 552.333,2546.17 552.333,2593.83 553,2641.5C 557.171,2685.53 563.837,2729.19 573,2772.5C 583.822,2823.28 595.155,2873.94 607,2924.5C 617.719,2976.31 622.719,3028.64 622,3081.5C 621.377,3112.62 615.377,3142.62 604,3171.5C 593.261,3196.57 575.094,3213.74 549.5,3223C 536.056,3226.59 522.723,3226.25 509.5,3222C 492.818,3215.49 477.151,3207.16 462.5,3197C 427.142,3169.65 394.975,3138.81 366,3104.5C 341.408,3075.58 318.742,3045.25 298,3013.5C 285.691,2992.55 274.691,2970.88 265,2948.5C 234.86,2879.75 208.86,2809.42 187,2737.5C 172.034,2676.74 163.034,2615.07 160,2552.5C 156.667,2482.17 156.667,2411.83 160,2341.5C 162.092,2300.82 164.425,2260.15 167,2219.5C 189.669,1946.31 210.169,1672.98 228.5,1399.5 Z"/></g>
</svg>
