<?xml version="1.0" encoding="UTF-8"?>
<svg version="1.1" xmlns="http://www.w3.org/2000/svg" width="1553" height="3694">
<path d="M0 0 C512.49 0 1024.98 0 1553 0 C1553 1219.02 1553 2438.04 1553 3694 C1040.51 3694 528.02 3694 0 3694 C0 2474.98 0 1255.96 0 0 Z M3 3 C3 985.41 3 1967.82 3 2980 C3.33 2980 3.66 2980 4 2980 C4.36967896 2978.18133423 4.36967896 2978.18133423 4.74682617 2976.32592773 C6.927005 2965.60722757 9.11869989 2954.89097487 11.32444763 2944.17750549 C12.35598006 2939.16112398 13.37249926 2934.14258874 14.359375 2929.1171875 C26.46642757 2868.63009594 53.69688216 2810.28068133 78.90896606 2754.42034912 C80.04727873 2751.8951169 81.18120852 2749.36795183 82.31420898 2746.84033203 C86.65960982 2737.15115566 91.05550323 2727.49029171 95.5625 2717.875 C96.15215016 2716.61525803 96.74174806 2715.35549161 97.33129883 2714.09570312 C98.57367992 2711.44190023 99.81724541 2708.78865615 101.06152344 2706.13574219 C102.38205385 2703.31969557 103.70024737 2700.50257149 105.01660156 2697.68457031 C111.90063687 2682.94799634 118.78637149 2668.22401704 126.12963867 2653.70898438 C129.34458765 2647.34812092 132.44270027 2640.93800916 135.5 2634.5 C140.01487487 2624.99873973 144.66699245 2615.57285223 149.39453125 2606.17578125 C150.02875 2604.91060669 150.02875 2604.91060669 150.67578125 2603.61987305 C151.58359244 2601.82383288 152.50351248 2600.03387685 153.43359375 2598.24926758 C157.64995115 2590.0614492 161.07517261 2581.64644925 164.375 2573.0625 C164.67201813 2572.29401733 164.96903625 2571.52553467 165.27505493 2570.73376465 C186.27786155 2516.31598828 204.45324934 2460.75418325 222.0057373 2405.14489746 C223.00754517 2401.97613429 224.01330013 2398.80865225 225.02050781 2395.64160156 C225.33907179 2394.63964658 225.65763577 2393.63769159 225.9858532 2392.60537434 C226.67123519 2390.45020357 227.35717101 2388.29520878 228.04387856 2386.14046001 C229.79963467 2380.6183219 231.534411 2375.09129863 233.21902466 2369.54701233 C236.43821455 2359.00214505 239.71109908 2348.54253926 243.69532204 2338.25809574 C263.67578031 2286.38263736 264.81987619 2232.62021251 267.32622761 2177.65577414 C268.03067099 2162.2149218 268.84806341 2146.78070082 269.6770826 2131.34611012 C270.02186148 2124.91988287 270.36356053 2118.49349091 270.70513916 2112.0670929 C270.74274738 2111.36017494 270.78035559 2110.65325698 270.81910345 2109.92491727 C271.3876972 2099.22932508 271.93886479 2088.53292909 272.47894287 2077.83586121 C274.1949145 2043.8780561 276.05253683 2009.9335891 278.203125 1976 C278.26739803 1974.98568681 278.33167106 1973.97137361 278.39789176 1972.92632365 C279.15133455 1961.05462902 279.91737762 1949.18376802 280.68992621 1937.31330281 C281.31222264 1927.74652725 281.92417958 1918.17909786 282.53613842 1908.61165655 C287.85759254 1825.46337294 293.45341088 1742.33122754 323 1385 C323.169552 1383.42403046 323.169552 1383.42403046 323.3425293 1381.81622314 C332.27344755 1299.14529026 346.92842074 1216.57383379 371.38598633 1137.00030518 C372.04124703 1134.86562734 372.69165858 1132.72950489 373.34179688 1130.59326172 C389.41350643 1077.90788391 409.46465392 1026.81041047 433 977 C433.53850586 975.85982422 434.07701172 974.71964844 434.63183594 973.54492188 C446.05247272 949.45024509 457.93558021 925.56023147 471.20947266 902.42602539 C475.25276563 895.37363973 479.11505667 888.23666327 482.9375 881.0625 C489.08519512 869.55736972 495.58213121 858.28898568 502.20703125 847.05371094 C505.31421549 841.76168201 508.37510729 836.4430346 511.4375 831.125 C512.69528711 828.94139162 513.95309967 826.75779791 515.2109375 824.57421875 C515.83581055 823.48931152 516.46068359 822.4044043 517.10449219 821.28662109 C518.9954802 818.00783688 520.89150017 814.7320144 522.7890625 811.45703125 C537.47977658 786.08906516 551.72405437 760.49969913 565.39453125 734.56640625 C573.99529592 718.31723204 583.28951414 702.60182871 593 687 C593.46245117 686.25298828 593.92490234 685.50597656 594.40136719 684.73632812 C617.41342605 647.66661418 646.29478554 609.92645949 681 583 C681.78117188 582.35160156 682.56234375 581.70320312 683.3671875 581.03515625 C715.49177349 554.44021211 754.9382507 537.43779489 797 540 C815.47069165 542.01656152 833.47706551 552.44670611 845.25390625 566.65234375 C881.29891132 615.11553848 881.09271106 679.72076278 873 737 C872.88827454 737.80109192 872.77654907 738.60218384 872.66143799 739.42755127 C860.65713208 825.26099668 841.67171879 910.15255374 824.06254196 994.95881271 C804.94204226 1087.05656498 786.61181129 1178.62835264 777.375 1366.9375 C777.36395107 1367.71900547 777.35290215 1368.50051094 777.3415184 1369.30569839 C776.16034518 1453.75401255 779.31529583 1538.21870288 833.3125 1826.75 C848.49299965 1841.38833895 867.07956122 1846.44761833 887.72265625 1846.36425781 C898.39591595 1846.10226314 904.8307511 1843.01887648 912.55859375 1835.60546875 C945.5688626 1800.37690983 956.71048936 1743.21917932 969 1698 C969.22308838 1697.18162659 969.44617676 1696.36325317 969.67602539 1695.52008057 C975.01317265 1675.93243697 980.14291116 1656.2898594 985.27366257 1636.64738083 C1009.081109 1545.50993215 1033.95479513 1455.4105388 1075 1359 C1075.30705872 1358.28809509 1075.61411743 1357.57619019 1075.93048096 1356.8427124 C1083.6067961 1339.05903127 1091.40383615 1321.32906372 1099.25244141 1303.62084961 C1132.91253366 1227.667645 1165.10680593 1150.1649948 1179 1052 C1179.05639648 1051.28021973 1179.11279297 1050.56043945 1179.17089844 1049.81884766 C1181.44977553 1018.93264657 1179.74998212 987.86488751 1178 957 C1177.9514386 956.13155457 1177.9028772 955.26310913 1177.85284424 954.36834717 C1173.96389351 885.22799711 1165.56705984 816.35071527 1156.13328552 747.77327728 C1155.81858495 745.4818071 1155.50595301 743.19006272 1155.19372559 740.89825439 C1153.06878061 725.33817926 1150.78627642 709.84906266 1147.64826965 694.45298767 C1139.89390878 656.33007882 1142.17010547 613.2855823 1164 580 C1166.81009329 576.14310885 1169.80534222 572.54306844 1173 569 C1173.74765625 568.15824219 1174.4953125 567.31648437 1175.265625 566.44921875 C1190.30867147 550.43484974 1211.45149254 540.02424119 1233.5078125 538.97265625 C1267.79980492 539.24116178 1296.56314423 556.97984777 1320.42382812 580.45458984 C1321.78118631 581.78545684 1323.16191413 583.09241313 1324.546875 584.39453125 C1335.20165251 594.57702253 1343.59718463 606.93927485 1351.6875 619.1875 C1352.11109802 619.82530396 1352.53469604 620.46310791 1352.97113037 621.12023926 C1361.8188201 634.45960462 1370.03703849 648.11419377 1378 662 C1378.48645996 662.83917969 1378.97291992 663.67835938 1379.47412109 664.54296875 C1423.86889441 741.22630956 1445.19731313 829.40506556 1453 917 C1453.06165344 917.67754333 1453.12330688 918.35508667 1453.18682861 919.05316162 C1457.43510993 966.11251235 1455.87634864 1013.97603854 1452 1061 C1451.92738953 1061.89277649 1451.85477905 1062.78555298 1451.77996826 1063.7053833 C1444.08227238 1157.73108944 1424.27960934 1250.43652489 1334.74536133 1566.14257812 C1321.86710619 1605.8315237 1309.52289016 1645.61645894 1299 1686 C1298.58942352 1687.56626133 1298.17878046 1689.13250521 1297.76806641 1690.69873047 C1277.31338444 1768.94952638 1264.22099397 1849.29144651 1259 1930 C1258.94779297 1930.79098083 1258.89558594 1931.58196167 1258.84179688 1932.39691162 C1253.02724072 2021.08908242 1258.38784876 2110.28522415 1292.125 2257.8125 C1292.33096802 2258.47278198 1292.53693604 2259.13306396 1292.74914551 2259.81335449 C1294.86301144 2266.56193587 1297.0818582 2273.23769511 1299.6015625 2279.84765625 C1302.25366957 2287.19588057 1303.58812939 2294.55746408 1304.85321045 2302.23706055 C1316.96341054 2375.11807396 1342.78679248 2448.54940767 1379 2513 C1379.56138672 2514.00611328 1380.12277344 2515.01222656 1380.70117188 2516.04882812 C1395.77183769 2542.88119982 1412.63094823 2569.05213407 1432 2593 C1432.76570313 2593.96292969 1433.53140625 2594.92585938 1434.3203125 2595.91796875 C1443.03307225 2606.73865424 1452.1967021 2617.16716139 1461.75 2627.25 C1466.67263785 2632.44715285 1471.38885996 2637.71404939 1475.84375 2643.32421875 C1477.79571256 2645.74649113 1479.82055395 2648.08601758 1481.87402344 2650.42211914 C1488.78429513 2658.34637144 1494.64324546 2666.90013538 1500.44189453 2675.65820312 C1501.86799718 2677.80160278 1503.31806012 2679.92600042 1504.77734375 2682.046875 C1517.33369874 2700.54313126 1527.56629693 2720.92252844 1535 2742 C1535.30486328 2742.85835449 1535.60972656 2743.71670898 1535.92382812 2744.60107422 C1542.77709756 2764.20586011 1547.11748653 2784.32044904 1549 2805 C1549.33 2805 1549.66 2805 1550 2805 C1550 1880.34 1550 955.68 1550 3 C1039.49 3 528.98 3 3 3 Z M1549 2850 C1548.91081299 2850.86274536 1548.91081299 2850.86274536 1548.81982422 2851.74291992 C1540.59537409 2928.90583184 1508.04088227 3004.87331597 1459 3065 C1458.56365234 3065.53544434 1458.12730469 3066.07088867 1457.67773438 3066.62255859 C1444.99663561 3082.08880238 1431.23250235 3097.02128627 1416 3110 C1414.98352323 3110.89095625 1413.96797582 3111.78297339 1412.953125 3112.67578125 C1336.75443378 3179.36341223 1235.34267961 3215.837322 1090 3238 C1089.05809814 3238.1045752 1088.11619629 3238.20915039 1087.14575195 3238.31689453 C1066.2208252 3240.46294243 1044.6932179 3239.62719283 1024 3236 C1022.92250488 3235.81195801 1021.84500977 3235.62391602 1020.73486328 3235.43017578 C995.2679667 3230.81551685 970.50124839 3222.8520743 947 3212 C946.04319336 3211.55930176 945.08638672 3211.11860352 944.10058594 3210.66455078 C914.34868895 3196.86352159 886.28250988 3180.66120919 860 3161 C858.5746515 3159.94602909 857.14887087 3158.89264234 855.72265625 3157.83984375 C843.4023854 3148.71170166 831.67562395 3138.93077713 820 3129 C816.74792908 3130.41738489 814.68638933 3132.12526412 812.25 3134.6875 C808.99702767 3138.02449745 805.64382927 3141.13354386 802.109375 3144.16796875 C799.82370454 3146.15311587 797.60298622 3148.2003983 795.375 3150.25 C789.17082834 3155.8337545 782.62238181 3160.9297147 776 3166 C775.2383252 3166.58620117 774.47665039 3167.17240234 773.69189453 3167.77636719 C704.31437148 3221.04963444 620.02812702 3253.63022971 520.09710693 3266.75 C518.11481724 3266.98631242 516.13470084 3267.2406532 514.15478516 3267.49609375 C468.28291203 3273.31041524 418.86410522 3272.32823043 373 3267 C371.83736633 3266.86564545 371.83736633 3266.86564545 370.65124512 3266.72857666 C359.06735611 3265.37440538 347.52683825 3263.77244116 336 3262 C334.73720215 3261.80680176 333.4744043 3261.61360352 332.17333984 3261.41455078 C311.95089422 3258.25674858 291.96506776 3253.97461828 272.01043701 3249.45446777 C270.19150297 3249.04329005 268.37144885 3248.63707497 266.55126953 3248.23144531 C239.41200111 3242.12780017 213.10695363 3232.9474145 188 3221 C187.22398437 3220.63277832 186.44796875 3220.26555664 185.6484375 3219.88720703 C181.04451345 3217.69147354 176.50343234 3215.39472977 172 3213 C171.37432129 3212.6685498 170.74864258 3212.33709961 170.10400391 3211.99560547 C140.69056811 3196.2721912 113.67476477 3176.1716227 89.43164062 3153.33447266 C87.25933867 3151.30960866 85.03444067 3149.34507472 82.8125 3147.375 C75.02268582 3140.38187137 67.78578996 3132.96416067 61 3125 C60.10904375 3123.98352323 59.21702661 3122.96797582 58.32421875 3121.953125 C33.94194698 3094.09400251 10.81699723 3061.09881649 4 3024 C3.67 3024 3.34 3024 3 3024 C3 3244.11 3 3464.22 3 3691 C513.51 3691 1024.02 3691 1550 3691 C1550 3413.47 1550 3135.94 1550 2850 C1549.67 2850 1549.34 2850 1549 2850 Z " fill="#FEFEFE" transform="translate(0,0)"/>
<path d="M0 0 C328.68 0 657.36 0 996 0 C998.28353829 9.13415316 1000.52514215 18.17525505 1002.4375 27.375 C1004.3919604 36.55951725 1006.66988671 45.59691422 1009.30712891 54.60766602 C1009.81931887 56.37614715 1010.31983726 58.14801815 1010.81396484 59.92163086 C1031.83499833 134.9818062 1063.94109717 206.63605439 1108 271 C1108.58056152 271.85271484 1109.16112305 272.70542969 1109.75927734 273.58398438 C1116.56766435 283.55601159 1123.87643818 292.99365889 1131.58691406 302.28271484 C1133.47261151 304.574352 1135.29763657 306.91172067 1137.125 309.25 C1140.99289981 314.10736255 1145.18150436 318.63892831 1149.40234375 323.1875 C1152.0796046 326.08618844 1154.68284316 329.03703317 1157.265625 332.01953125 C1159.27264538 334.31133155 1161.32402851 336.55996752 1163.375 338.8125 C1168.10580648 344.06186031 1172.56910697 349.49688766 1177 355 C1177.93702553 356.14491973 1178.87454838 357.28943258 1179.8125 358.43359375 C1216.09830124 402.91431174 1240.56104547 455.97729061 1240.3125 514.0625 C1240.31034485 514.96995972 1240.3081897 515.87741943 1240.30596924 516.81237793 C1240.25402367 530.45214252 1239.62110043 543.58810438 1237 557 C1236.60526589 559.22262023 1236.21074935 561.44527911 1235.81640625 563.66796875 C1225.60449906 618.81076636 1201.25396235 673.83242154 1168 719 C1167.37883301 719.84425537 1167.37883301 719.84425537 1166.74511719 720.70556641 C1160.51797562 729.0998309 1153.83967683 737.10113977 1147 745 C1146.33097656 745.78246094 1145.66195313 746.56492187 1144.97265625 747.37109375 C1133.71543186 760.23330855 1121.49832917 772.50830801 1108 783 C1106.14289454 784.57988537 1104.28890671 786.1634403 1102.4375 787.75 C1068.38308512 816.07767759 1028.05783091 837.74175256 987 854 C985.96488281 854.41072754 984.92976563 854.82145508 983.86328125 855.24462891 C959.50273548 864.84237558 934.77139935 873.56227545 909.23071289 879.45605469 C906.73416438 880.06482234 904.26680523 880.75400589 901.79296875 881.44921875 C890.35289119 884.59994487 878.63528821 886.69867695 867 889 C865.26290771 889.34514648 865.26290771 889.34514648 863.49072266 889.69726562 C836.31248361 895.0252535 809.39531601 898.36857723 781.6875 898.375 C780.80221619 898.37690338 779.91693237 898.37880676 779.00482178 898.38076782 C768.46091035 898.37818733 758.41059762 897.75552255 748 896 C745.89658249 895.72340852 743.79249029 895.45185566 741.6875 895.1875 C734.29303349 894.04023732 727.28790743 891.86513482 720.15869141 889.65136719 C718.10779613 889.03252659 716.05082618 888.46378685 713.98046875 887.9140625 C663.27200778 874.26557988 615.80971086 843.36182636 575.6796875 810.2109375 C573.8808048 808.72672816 572.0733403 807.25286411 570.2578125 805.7890625 C568.46749573 804.34362262 566.69301813 802.87825725 564.93799305 801.39016533 C562.08090621 798.98087139 562.08090621 798.98087139 559.10054302 797.10716438 C554.19433762 793.55299833 550.98458556 790.67139145 550.00683022 784.62862778 C549.50053586 779.07024152 549.63788671 773.5183081 549.7512207 767.94482422 C549.75432654 765.80544699 549.75257594 763.66605805 549.74635315 761.52668762 C549.74320537 755.73923817 549.80773298 749.95431206 549.88466668 744.16744757 C549.95357513 738.11242417 549.95990393 732.05733864 549.97294617 726.00198364 C550.00709381 714.54469512 550.0973035 703.0885654 550.20779055 691.63178647 C550.33087357 678.58480851 550.3912555 665.53777431 550.44644034 652.49036002 C550.56132398 625.6595765 550.7569463 598.82990218 551 572 C541.43 572 531.86 572 522 572 C522.0199855 574.70891449 522.03997101 577.41782898 522.06056213 580.20883179 C522.24449245 605.72337544 522.37841999 631.23783167 522.46630955 656.75288963 C522.51269781 669.87084518 522.57593064 682.98831395 522.67895508 696.10595703 C522.76871869 707.5406183 522.82673798 718.97492701 522.84679645 730.40993083 C522.85852006 736.46372732 522.88603044 742.51651531 522.95157051 748.56998825 C523.01279809 754.27150279 523.03147648 759.97159643 523.01796913 765.67340851 C523.02043901 767.76238612 523.03826137 769.85141272 523.07284927 771.94010544 C523.35207876 789.67672721 523.35207876 789.67672721 517.64463806 796.10269165 C516.13099319 797.44191148 514.585219 798.7463209 513 800 C511.8706144 801.15114587 510.75443551 802.31574155 509.6640625 803.50390625 C508.65511167 804.52746544 507.64209696 805.5470351 506.625 806.5625 C506.07392578 807.11276855 505.52285156 807.66303711 504.95507812 808.22998047 C500.7719702 812.35171368 496.39209348 816.12765984 491.78515625 819.7734375 C489.30975885 821.7523667 486.91017998 823.79750662 484.52050781 825.87841797 C471.01123877 837.58339537 456.13842284 847.54128085 441 857 C440.40219727 857.37543945 439.80439453 857.75087891 439.18847656 858.13769531 C404.3555467 879.89608007 366.44029765 896.57337171 327 908 C325.9378125 908.3196875 324.875625 908.639375 323.78125 908.96875 C266.3232184 925.93254981 208.37841946 930.82283546 148.74481201 930.03387451 C146.38077717 930.00469928 144.01699227 929.98373973 141.65283203 929.96923828 C125.71630541 929.84663307 109.96475952 928.32906945 94.125 926.6875 C93.13961243 926.58676178 92.15422485 926.48602356 91.13897705 926.38223267 C78.60891411 925.08326178 66.26782773 923.29515894 53.89672852 920.91479492 C49.21909224 920.01894622 44.52645451 919.2994916 39.8125 918.625 C28.59074214 916.92784958 17.56351034 914.34861377 6.50927734 911.80273438 C3.0160476 911.00367083 -0.48136203 910.22600624 -3.98046875 909.453125 C-14.42830834 907.12632334 -24.6993802 904.73045952 -34.7890625 901.13671875 C-37.89826181 900.03601681 -41.01908 899.10131383 -44.1875 898.1875 C-88.28959614 884.67147298 -129.8237227 858.673707 -164 828 C-164.75095947 827.33363525 -164.75095947 827.33363525 -165.51708984 826.65380859 C-173.17598513 819.84061949 -180.47193117 812.65327075 -187.75 805.4375 C-188.625354 804.57519775 -189.50070801 803.71289551 -190.40258789 802.82446289 C-196.37092896 796.86402317 -201.75336048 790.59931858 -207 784 C-208.04839164 782.72199431 -209.09887376 781.44569781 -210.15234375 780.171875 C-227.03760331 759.52187821 -240.89565335 736.89857279 -248 711 C-248.35964844 709.77925781 -248.71929687 708.55851562 -249.08984375 707.30078125 C-250.33055967 702.24423331 -250.34280592 697.24654408 -250.3125 692.0625 C-250.30686035 691.0410791 -250.3012207 690.0196582 -250.29541016 688.96728516 C-250.16839521 680.95276773 -249.27170278 673.4075805 -247.56103516 665.57910156 C-246.88505204 662.47157954 -246.24506969 659.35740011 -245.60546875 656.2421875 C-244.83068334 652.47143226 -244.05234205 648.70164221 -243.26098633 644.93432617 C-241.91851572 638.53887065 -240.64392917 632.14397153 -239.51098633 625.70825195 C-237.28202239 613.18018845 -233.83263858 601.12478253 -230 589 C-229.63100586 587.83259277 -229.26201172 586.66518555 -228.88183594 585.46240234 C-223.22921211 567.74786187 -216.87014375 550.38587575 -209.87237549 533.15490723 C-208.92544713 530.81584247 -207.98534251 528.47411215 -207.04638672 526.13183594 C-196.97391619 501.01661972 -186.36985506 476.20616521 -175.10351562 451.60400391 C-173.11943684 447.26845376 -171.15802954 442.92298567 -169.203125 438.57421875 C-155.49038311 408.1041742 -141.01238482 378.00441837 -126.3125 348 C-125.77630035 346.90462921 -125.24010071 345.80925842 -124.68765259 344.68069458 C-119.6456982 334.38640649 -114.6019748 324.09607614 -109.34375 313.91015625 C-99.83610317 295.45895501 -91.98297244 276.69312258 -84.81591797 257.21386719 C-84.0278862 255.0756649 -83.23378223 252.93982914 -82.4375 250.8046875 C-72.82323714 224.98915324 -64.10634847 198.8594588 -55.30305481 172.75932312 C-52.34550213 163.99964803 -49.33750359 155.25835154 -46.30575562 146.5241394 C-42.94784808 136.84812118 -39.74814332 127.16750075 -36.96875 117.30859375 C-36.1145893 114.39135942 -35.14681412 111.58758009 -34.0625 108.75 C-32.06832258 103.48312012 -30.57559545 98.10700284 -29.0625 92.6875 C-27.39271318 86.70988243 -25.6634134 80.82243413 -23.5 75 C-21.05010628 68.38842785 -19.13578844 61.67343712 -17.23266602 54.88989258 C-15.16321959 47.5208551 -12.92960348 40.21697507 -10.60888672 32.92382812 C-9.983001 30.94629026 -9.36703159 28.96590422 -8.75390625 26.984375 C-8.54386963 26.30673096 -8.33383301 25.62908691 -8.11743164 24.9309082 C-7.54666742 23.08816805 -6.97643502 21.2452632 -6.40625 19.40234375 C-4.33380595 12.91444251 -2.15378474 6.46135421 0 0 Z " fill="#FEFEFE" transform="translate(281,2312)"/>
<path d="M0 0 C512.49 0 1024.98 0 1553 0 C1553 1219.02 1553 2438.04 1553 3694 C1040.51 3694 528.02 3694 0 3694 C0 2474.98 0 1255.96 0 0 Z M3 3 C3 985.41 3 1967.82 3 2980 C3.33 2980 3.66 2980 4 2980 C4.36967896 2978.18133423 4.36967896 2978.18133423 4.74682617 2976.32592773 C6.927005 2965.60722757 9.11869989 2954.89097487 11.32444763 2944.17750549 C12.35598006 2939.16112398 13.37249926 2934.14258874 14.359375 2929.1171875 C26.46642757 2868.63009594 53.69688216 2810.28068133 78.90896606 2754.42034912 C80.04727873 2751.8951169 81.18120852 2749.36795183 82.31420898 2746.84033203 C86.65960982 2737.15115566 91.05550323 2727.49029171 95.5625 2717.875 C96.15215016 2716.61525803 96.74174806 2715.35549161 97.33129883 2714.09570312 C98.57367992 2711.44190023 99.81724541 2708.78865615 101.06152344 2706.13574219 C102.38205385 2703.31969557 103.70024737 2700.50257149 105.01660156 2697.68457031 C111.90063687 2682.94799634 118.78637149 2668.22401704 126.12963867 2653.70898438 C129.34458765 2647.34812092 132.44270027 2640.93800916 135.5 2634.5 C140.01487487 2624.99873973 144.66699245 2615.57285223 149.39453125 2606.17578125 C150.02875 2604.91060669 150.02875 2604.91060669 150.67578125 2603.61987305 C151.58359244 2601.82383288 152.50351248 2600.03387685 153.43359375 2598.24926758 C157.64995115 2590.0614492 161.07517261 2581.64644925 164.375 2573.0625 C164.67201813 2572.29401733 164.96903625 2571.52553467 165.27505493 2570.73376465 C186.27786155 2516.31598828 204.45324934 2460.75418325 222.0057373 2405.14489746 C223.00754517 2401.97613429 224.01330013 2398.80865225 225.02050781 2395.64160156 C225.33907179 2394.63964658 225.65763577 2393.63769159 225.9858532 2392.60537434 C226.67123519 2390.45020357 227.35717101 2388.29520878 228.04387856 2386.14046001 C229.79963467 2380.6183219 231.534411 2375.09129863 233.21902466 2369.54701233 C236.43821455 2359.00214505 239.71109908 2348.54253926 243.69532204 2338.25809574 C263.67578031 2286.38263736 264.81987619 2232.62021251 267.32622761 2177.65577414 C268.03067099 2162.2149218 268.84806341 2146.78070082 269.6770826 2131.34611012 C270.02186148 2124.91988287 270.36356053 2118.49349091 270.70513916 2112.0670929 C270.74274738 2111.36017494 270.78035559 2110.65325698 270.81910345 2109.92491727 C271.3876972 2099.22932508 271.93886479 2088.53292909 272.47894287 2077.83586121 C274.1949145 2043.8780561 276.05253683 2009.9335891 278.203125 1976 C278.26739803 1974.98568681 278.33167106 1973.97137361 278.39789176 1972.92632365 C279.15133455 1961.05462902 279.91737762 1949.18376802 280.68992621 1937.31330281 C281.31222264 1927.74652725 281.92417958 1918.17909786 282.53613842 1908.61165655 C287.85759254 1825.46337294 293.45341088 1742.33122754 323 1385 C323.169552 1383.42403046 323.169552 1383.42403046 323.3425293 1381.81622314 C332.27344755 1299.14529026 346.92842074 1216.57383379 371.38598633 1137.00030518 C372.04124703 1134.86562734 372.69165858 1132.72950489 373.34179688 1130.59326172 C389.41350643 1077.90788391 409.46465392 1026.81041047 433 977 C433.53850586 975.85982422 434.07701172 974.71964844 434.63183594 973.54492188 C446.05247272 949.45024509 457.93558021 925.56023147 471.20947266 902.42602539 C475.25276563 895.37363973 479.11505667 888.23666327 482.9375 881.0625 C489.08519512 869.55736972 495.58213121 858.28898568 502.20703125 847.05371094 C505.31421549 841.76168201 508.37510729 836.4430346 511.4375 831.125 C512.69528711 828.94139162 513.95309967 826.75779791 515.2109375 824.57421875 C515.83581055 823.48931152 516.46068359 822.4044043 517.10449219 821.28662109 C518.9954802 818.00783688 520.89150017 814.7320144 522.7890625 811.45703125 C537.47977658 786.08906516 551.72405437 760.49969913 565.39453125 734.56640625 C573.99529592 718.31723204 583.28951414 702.60182871 593 687 C593.46245117 686.25298828 593.92490234 685.50597656 594.40136719 684.73632812 C617.41342605 647.66661418 646.29478554 609.92645949 681 583 C681.78117188 582.35160156 682.56234375 581.70320312 683.3671875 581.03515625 C715.49177349 554.44021211 754.9382507 537.43779489 797 540 C815.47069165 542.01656152 833.47706551 552.44670611 845.25390625 566.65234375 C881.29891132 615.11553848 881.09271106 679.72076278 873 737 C872.88827454 737.80109192 872.77654907 738.60218384 872.66143799 739.42755127 C860.65713208 825.26099668 841.67171879 910.15255374 824.06254196 994.95881271 C804.94204226 1087.05656498 786.61181129 1178.62835264 777.375 1366.9375 C777.36395107 1367.71900547 777.35290215 1368.50051094 777.3415184 1369.30569839 C776.16034518 1453.75401255 779.31529583 1538.21870288 833.3125 1826.75 C848.49299965 1841.38833895 867.07956122 1846.44761833 887.72265625 1846.36425781 C898.39591595 1846.10226314 904.8307511 1843.01887648 912.55859375 1835.60546875 C945.5688626 1800.37690983 956.71048936 1743.21917932 969 1698 C969.22308838 1697.18162659 969.44617676 1696.36325317 969.67602539 1695.52008057 C975.01317265 1675.93243697 980.14291116 1656.2898594 985.27366257 1636.64738083 C1009.081109 1545.50993215 1033.95479513 1455.4105388 1075 1359 C1075.30705872 1358.28809509 1075.61411743 1357.57619019 1075.93048096 1356.8427124 C1083.6067961 1339.05903127 1091.40383615 1321.32906372 1099.25244141 1303.62084961 C1132.91253366 1227.667645 1165.10680593 1150.1649948 1179 1052 C1179.05639648 1051.28021973 1179.11279297 1050.56043945 1179.17089844 1049.81884766 C1181.44977553 1018.93264657 1179.74998212 987.86488751 1178 957 C1177.9514386 956.13155457 1177.9028772 955.26310913 1177.85284424 954.36834717 C1173.96389351 885.22799711 1165.56705984 816.35071527 1156.13328552 747.77327728 C1155.81858495 745.4818071 1155.50595301 743.19006272 1155.19372559 740.89825439 C1153.06878061 725.33817926 1150.78627642 709.84906266 1147.64826965 694.45298767 C1139.89390878 656.33007882 1142.17010547 613.2855823 1164 580 C1166.81009329 576.14310885 1169.80534222 572.54306844 1173 569 C1173.74765625 568.15824219 1174.4953125 567.31648437 1175.265625 566.44921875 C1190.30867147 550.43484974 1211.45149254 540.02424119 1233.5078125 538.97265625 C1267.79980492 539.24116178 1296.56314423 556.97984777 1320.42382812 580.45458984 C1321.78118631 581.78545684 1323.16191413 583.09241313 1324.546875 584.39453125 C1335.20165251 594.57702253 1343.59718463 606.93927485 1351.6875 619.1875 C1352.11109802 619.82530396 1352.53469604 620.46310791 1352.97113037 621.12023926 C1361.8188201 634.45960462 1370.03703849 648.11419377 1378 662 C1378.48645996 662.83917969 1378.97291992 663.67835938 1379.47412109 664.54296875 C1423.86889441 741.22630956 1445.19731313 829.40506556 1453 917 C1453.06165344 917.67754333 1453.12330688 918.35508667 1453.18682861 919.05316162 C1457.43510993 966.11251235 1455.87634864 1013.97603854 1452 1061 C1451.92738953 1061.89277649 1451.85477905 1062.78555298 1451.77996826 1063.7053833 C1444.08227238 1157.73108944 1424.27960934 1250.43652489 1334.74536133 1566.14257812 C1321.86710619 1605.8315237 1309.52289016 1645.61645894 1299 1686 C1298.58942352 1687.56626133 1298.17878046 1689.13250521 1297.76806641 1690.69873047 C1277.31338444 1768.94952638 1264.22099397 1849.29144651 1259 1930 C1258.94779297 1930.79098083 1258.89558594 1931.58196167 1258.84179688 1932.39691162 C1253.02724072 2021.08908242 1258.38784876 2110.28522415 1292.125 2257.8125 C1292.33096802 2258.47278198 1292.53693604 2259.13306396 1292.74914551 2259.81335449 C1294.86301144 2266.56193587 1297.0818582 2273.23769511 1299.6015625 2279.84765625 C1302.25366957 2287.19588057 1303.58812939 2294.55746408 1304.85321045 2302.23706055 C1316.96341054 2375.11807396 1342.78679248 2448.54940767 1379 2513 C1379.56138672 2514.00611328 1380.12277344 2515.01222656 1380.70117188 2516.04882812 C1395.77183769 2542.88119982 1412.63094823 2569.05213407 1432 2593 C1432.76570313 2593.96292969 1433.53140625 2594.92585938 1434.3203125 2595.91796875 C1443.03307225 2606.73865424 1452.1967021 2617.16716139 1461.75 2627.25 C1466.67263785 2632.44715285 1471.38885996 2637.71404939 1475.84375 2643.32421875 C1477.79571256 2645.74649113 1479.82055395 2648.08601758 1481.87402344 2650.42211914 C1488.78429513 2658.34637144 1494.64324546 2666.90013538 1500.44189453 2675.65820312 C1501.86799718 2677.80160278 1503.31806012 2679.92600042 1504.77734375 2682.046875 C1517.33369874 2700.54313126 1527.56629693 2720.92252844 1535 2742 C1535.30486328 2742.85835449 1535.60972656 2743.71670898 1535.92382812 2744.60107422 C1542.77709756 2764.20586011 1547.11748653 2784.32044904 1549 2805 C1549.33 2805 1549.66 2805 1550 2805 C1550 1880.34 1550 955.68 1550 3 C1039.49 3 528.98 3 3 3 Z M736 581 C734.86304688 581.55558594 733.72609375 582.11117187 732.5546875 582.68359375 C715.23303033 591.55721911 700.27624684 603.91170363 686 617 C684.91045726 617.98470816 683.82059696 618.96906503 682.73046875 619.953125 C677.43031045 624.76061605 672.2545638 629.53130604 667.65625 635.03125 C665.75308506 637.29350266 663.75399979 639.45164811 661.75 641.625 C656.16315006 647.8263089 651.07815645 654.38222634 646 661 C645.29037109 661.91628174 645.29037109 661.91628174 644.56640625 662.85107422 C627.06201307 685.48463409 611.68147737 709.88374513 598 735 C597.53158691 735.85867676 597.06317383 736.71735352 596.58056641 737.60205078 C591.53022493 746.87256269 586.50989201 756.15898876 581.546875 765.4765625 C575.32957558 777.1293034 568.95678433 788.65249616 562.25024414 800.03125 C558.06806387 807.13436438 554.00635318 814.29638701 550 821.5 C544.90407127 830.65366657 539.69100238 839.72943773 534.39282227 848.76733398 C528.13475172 859.4520781 521.99060821 870.20081108 515.8679657 880.96351624 C513.81773325 884.56714908 511.7589377 888.16574208 509.6953125 891.76171875 C501.0867177 906.81276301 492.95650435 922.10598295 484.87548828 937.44433594 C483.3086371 940.41744664 481.73292377 943.38572239 480.15234375 946.3515625 C449.53188892 1003.89815305 424.67657041 1064.12499322 404.61199951 1126.11584473 C403.72097142 1128.85904182 402.81489735 1131.5972377 401.91015625 1134.3359375 C398.6116924 1144.40410572 395.69801932 1154.52243859 393.12744141 1164.80200195 C391.91173585 1169.64490182 390.57664716 1174.41182756 389.06640625 1179.171875 C386.70005195 1186.75728995 384.90328245 1194.44963021 383.125 1202.1875 C382.77597154 1203.69278646 382.42660106 1205.19799365 382.0769043 1206.703125 C381.37660491 1209.72001353 380.67891956 1212.73749019 379.98291016 1215.75537109 C379.11005556 1219.53413197 378.21996225 1223.30862358 377.32421875 1227.08203125 C374.0986992 1240.7247616 371.23789169 1254.40370205 368.70361328 1268.19140625 C368.20301744 1270.90108534 367.69676303 1273.60921322 367.18310547 1276.31640625 C362.93567545 1298.72199323 359.50323487 1321.116444 356.77149963 1343.75598145 C356.08972962 1349.37407873 355.29385208 1354.96836977 354.4375 1360.5625 C350.66749067 1385.92582804 348.69014338 1411.61589004 346.39477539 1437.14501953 C345.71013167 1444.71287608 344.99128486 1452.26288953 344.0546875 1459.8046875 C342.49540494 1472.51650918 341.52134212 1485.29285319 340.4413414 1498.05245972 C340.24634655 1500.35565295 340.05067295 1502.65878779 339.85488892 1504.96191406 C338.89131075 1516.30695087 337.94186538 1527.65314138 337 1539 C336.93867638 1539.73802605 336.87735275 1540.47605209 336.81417084 1541.23644257 C333.05176334 1586.53863763 329.74011933 1631.87353291 326.49432755 1677.21517944 C326.29043687 1680.06328122 326.08629052 1682.91136447 325.88189316 1685.75942993 C325.29435374 1693.94661155 324.70931514 1702.13396449 324.12805176 1710.32159424 C323.94932869 1712.83584276 323.76995903 1715.35004542 323.58987427 1717.86419678 C322.71727583 1730.05948621 321.85670271 1742.24894229 321.34881115 1754.46585846 C321.15000282 1758.99432059 320.7708013 1763.4642339 320.22365093 1767.96442413 C319.85257271 1771.34182063 319.75470266 1774.73179907 319.625 1778.125 C319.23667215 1786.85780311 318.58071246 1795.5615264 317.87710571 1804.27352905 C316.13492417 1825.87988906 314.82976707 1847.50888056 313.56725502 1869.14750481 C312.60824535 1885.56988704 311.50753906 1901.97288749 310.20480347 1918.37203979 C309.76987643 1923.95285809 309.41065832 1929.53814694 309.0625 1935.125 C308.94455078 1936.98886353 308.94455078 1936.98886353 308.82421875 1938.89038086 C308.64757337 1941.68353017 308.47216019 1944.47675398 308.29736328 1947.27001953 C308.0241595 1951.62793889 307.74573267 1955.98551603 307.46690369 1960.34307861 C306.21206436 1979.97404642 304.98636322 1999.6035335 304 2019.25 C303.22701439 2034.64310386 302.2309959 2050.01586814 301.140625 2065.38964844 C300.07296882 2080.49698791 299.15634649 2095.61265825 298.25482178 2110.73062134 C298.00935763 2114.84678603 297.76189623 2118.96282895 297.51416016 2123.07885742 C297.02617583 2131.19816389 296.54279323 2139.31773543 296.0625 2147.4375 C295.99881603 2148.51344484 295.99881603 2148.51344484 295.93384552 2149.61112595 C294.52161703 2173.48808647 293.21916712 2197.36858732 292.01074219 2221.25683594 C291.25737717 2236.14082566 290.45860241 2251.02086353 289.55810547 2265.89672852 C289.48350098 2267.15155029 289.40889648 2268.40637207 289.33203125 2269.69921875 C289.26733643 2270.75971436 289.2026416 2271.82020996 289.13598633 2272.9128418 C288.98800652 2276.27227579 289 2279.6373084 289 2283 C612.73 2283 936.46 2283 1270 2283 C1267.76260452 2275.48307583 1267.76260452 2275.48307583 1265.38671875 2268.01953125 C1251.42201337 2225.34074335 1242.57697421 2180.53138543 1237 2136 C1236.83935059 2134.7531543 1236.67870117 2133.50630859 1236.51318359 2132.22167969 C1227.68729064 2062.73173769 1226.98006979 1992.8650887 1231 1923 C1231.0485614 1922.15246155 1231.0971228 1921.3049231 1231.14715576 1920.43170166 C1233.4492245 1881.08382617 1238.71866047 1841.89365802 1245 1803 C1245.32948594 1800.91537389 1245.65891599 1798.83073893 1245.98828125 1796.74609375 C1249.81571998 1772.85996819 1254.56796946 1749.17970048 1260.14648438 1725.64404297 C1261.12257445 1721.4766744 1262.07157931 1717.30362737 1263.015625 1713.12890625 C1263.27733994 1711.97371994 1263.27733994 1711.97371994 1263.54434204 1710.79519653 C1264.58574001 1706.19859839 1264.58574001 1706.19859839 1265.62249756 1701.60095215 C1268.7235769 1687.82607366 1272.28386761 1674.22365729 1276.3125 1660.6875 C1279.22342891 1650.8344539 1281.93890674 1640.9388552 1284.51489258 1630.99291992 C1286.09319025 1624.996341 1287.9425486 1619.20740518 1290.1184082 1613.40112305 C1291.15658051 1610.57353383 1291.97992756 1607.72384528 1292.75 1604.8125 C1294.86112366 1597.2191303 1297.3690204 1589.77393725 1299.91894531 1582.31762695 C1301.8543034 1576.61101126 1303.64589056 1570.87694289 1305.32421875 1565.08984375 C1308.03572663 1555.74823661 1310.99012825 1546.48884322 1313.96066284 1537.22689819 C1318.83142959 1522.03454736 1323.65392348 1506.83282189 1328.23339844 1491.54980469 C1329.36491616 1487.78624701 1330.51326766 1484.02786523 1331.66040039 1480.26904297 C1342.70786382 1444.06206539 1353.09135573 1407.69219174 1363.09277344 1371.18359375 C1363.54479504 1369.53512147 1363.99694121 1367.88668333 1364.44921875 1366.23828125 C1364.66812775 1365.44011993 1364.88703674 1364.64195862 1365.11257935 1363.8196106 C1366.43301498 1359.01913906 1367.79132021 1354.23160757 1369.17578125 1349.44921875 C1370.78977471 1343.83314275 1372.19970124 1338.1957838 1373.5 1332.5 C1374.85493222 1326.68730453 1376.25204052 1320.91526479 1377.9375 1315.1875 C1383.92861932 1294.72183641 1388.45412659 1273.82465895 1393 1253 C1393.16993469 1252.22269531 1393.33986938 1251.44539063 1393.51495361 1250.64453125 C1401.94003435 1212.03646984 1409.53477278 1173.14731439 1415 1134 C1415.15774902 1132.89124512 1415.31549805 1131.78249023 1415.47802734 1130.64013672 C1422.27009904 1082.64679045 1426.56302585 1034.7422908 1426.3225708 986.25231934 C1426.30907966 982.56523141 1426.31443015 978.87826279 1426.31942368 975.19116116 C1426.34951459 945.95233132 1425.3897744 916.96780323 1421.625 887.9375 C1421.40357721 886.18262584 1421.18222429 884.42774287 1420.9609375 882.67285156 C1418.54021026 863.71136764 1415.25958532 845.14817118 1410.63671875 826.59716797 C1409.99444069 823.97732364 1409.38314266 821.35205346 1408.78125 818.72265625 C1406.00906053 806.64773522 1402.7631704 794.80323347 1399 783 C1398.67515625 781.97632324 1398.3503125 780.95264648 1398.015625 779.89794922 C1390.73294423 757.10220731 1382.10950589 734.9797295 1372.04833984 713.26855469 C1371.04780228 711.10344173 1370.06336861 708.93168035 1369.08203125 706.7578125 C1356.8817558 679.97155635 1341.55445695 653.6355942 1324.28173828 629.78466797 C1322.9624669 627.94773963 1321.68254352 626.08697396 1320.40234375 624.22265625 C1303.7655291 600.5051418 1278.35762815 575.48531431 1249 569 C1248.40960937 568.81953125 1247.81921875 568.6390625 1247.2109375 568.453125 C1234.31578352 565.81030192 1221.12095047 568.55513867 1209.88671875 575.09375 C1193.08552382 586.18844977 1182.06599103 601.13577473 1176.67578125 620.61328125 C1176.18141348 622.35928533 1175.60707994 624.08318503 1174.98828125 625.7890625 C1173.84061931 629.51782974 1173.3005359 633.19984236 1172.875 637.0625 C1172.7915332 637.81781006 1172.70806641 638.57312012 1172.62207031 639.35131836 C1170.64353104 658.41191968 1172.47064742 677.83562839 1177.04174805 696.39453125 C1179.85744591 708.08055053 1181.2313958 719.96388803 1182.73175049 731.87713623 C1183.20972824 735.65974015 1183.69739869 739.44110135 1184.18359375 743.22265625 C1184.81898717 748.16750253 1185.45238911 753.11257699 1186.07861328 758.05859375 C1187.06927388 765.86728048 1188.0779477 773.67152232 1189.18359375 781.46484375 C1200.42771638 860.96759636 1208.15485601 941.72590458 1208.3125 1022.0625 C1208.31801376 1023.3767244 1208.31801376 1023.3767244 1208.32363892 1024.71749878 C1208.37602156 1048.17624018 1205.54775683 1071.37590448 1201.375 1094.4375 C1201.24916534 1095.13544678 1201.12333069 1095.83339355 1200.99368286 1096.55249023 C1187.24063127 1172.13299537 1156.8828886 1243.63909149 1125.9375 1313.5 C1095.28748772 1382.7056821 1066.008375 1452.17611521 1045 1525 C1044.66661621 1526.15072998 1044.33323242 1527.30145996 1043.98974609 1528.48706055 C1034.3525429 1561.67554729 1034.3525429 1561.67554729 1025.72192383 1595.13476562 C1024.62883098 1599.64911047 1023.40339292 1604.10904067 1022.109375 1608.5703125 C1019.87741995 1616.31403165 1017.92391372 1624.1131458 1016 1631.9375 C1013.71754349 1641.19549133 1011.37718165 1650.43141342 1008.90185547 1659.63989258 C1008.15260311 1662.43143566 1007.41566174 1665.22533683 1006.69140625 1668.0234375 C1004.57955745 1676.17213222 1002.36118731 1684.26934716 999.93676758 1692.33056641 C998.49969613 1697.16199509 997.20951806 1702.01816546 995.97192383 1706.90429688 C970.04834194 1809.09072587 970.04834194 1809.09072587 940 1846 C939.37996094 1846.84175781 938.75992188 1847.68351562 938.12109375 1848.55078125 C928.97054921 1860.73302135 915.9016467 1870.56421227 900.72705078 1873.63598633 C894.68296238 1874.44276662 888.5871224 1874.3916034 882.5 1874.375 C881.78856842 1874.37478851 881.07713684 1874.37457703 880.34414673 1874.37435913 C864.98102294 1874.32871088 851.72313965 1872.32293432 838 1865 C836.90300781 1864.44699219 835.80601562 1863.89398437 834.67578125 1863.32421875 C825.46994711 1858.52023125 818.27372169 1852.35345485 811 1845 C809.90945313 1843.94232422 809.90945313 1843.94232422 808.796875 1842.86328125 C798.15376684 1831.85242342 790.9193347 1816.97746209 785 1803 C784.67813721 1802.24106445 784.35627441 1801.48212891 784.0246582 1800.70019531 C761.07283815 1745.19033116 761.99884257 1676.09053249 757.29492188 1616.71905518 C757.02714366 1613.34228991 756.75644357 1609.96577728 756.484375 1606.58935547 C755.58541571 1595.3975094 754.74704163 1584.20303174 754 1573 C753.95357361 1572.31021057 753.90714722 1571.62042114 753.85931396 1570.909729 C752.24728228 1546.81413471 751.44737402 1522.69108276 750.69702148 1498.55541992 C750.65786621 1497.31851913 750.61871094 1496.08161835 750.57836914 1494.80723572 C750.50573176 1492.50120381 750.43514139 1490.19510594 750.3671875 1487.88893127 C750.18437463 1482.09281541 749.89075091 1476.32314835 749.47924805 1470.53857422 C748.79635172 1460.42512415 748.85548354 1450.31168681 748.8671875 1440.1796875 C748.86651038 1438.07072946 748.865537 1435.9617715 748.86428833 1433.85281372 C748.86282084 1429.43360653 748.86492872 1425.01441965 748.86962891 1420.59521484 C748.87522152 1415.0830912 748.87200336 1409.57101692 748.86619949 1404.05889511 C748.83160182 1365.52445883 749.12749433 1326.98812143 751.30224609 1288.50634766 C751.50832946 1284.85231152 751.70202384 1281.19774344 751.89453125 1277.54296875 C752.02276002 1275.17444239 752.151637 1272.80595101 752.28125 1270.4375 C752.338573 1269.3659668 752.395896 1268.29443359 752.45495605 1267.19042969 C752.73000673 1262.38202079 753.16947188 1257.74787994 754 1253 C754.22139448 1250.20952166 754.41448537 1247.42650429 754.578125 1244.6328125 C754.68439251 1242.94680628 754.79152832 1241.26085462 754.89941406 1239.57495117 C754.98406921 1238.24540909 754.98406921 1238.24540909 755.07043457 1236.88900757 C756.50586211 1214.79381598 758.88317348 1192.91759441 762 1171 C762.1226825 1170.13475708 762.24536499 1169.26951416 762.37176514 1168.37805176 C770.18853518 1113.53057142 781.07874321 1058.99945166 792.8815918 1004.87988281 C795.04867892 994.90867017 797.03309821 984.90352305 799.01696777 974.89465332 C800.74516358 966.18254358 802.51039466 957.48324971 804.4375 948.8125 C808.0921088 932.3382208 811.27755497 915.76268579 814.56121826 899.21142578 C815.55911345 894.18211176 816.55978797 889.15335564 817.5625 884.125 C817.85108887 882.67299194 817.85108887 882.67299194 818.14550781 881.19165039 C819.24557105 875.68181966 820.3796432 870.18043135 821.54296875 864.68359375 C828.37949569 832.29064552 834.20696832 799.68179833 839.50439453 767.00292969 C839.67696777 765.93977539 839.84954102 764.87662109 840.02734375 763.78125 C840.16906006 762.89501953 840.31077637 762.00878906 840.45678711 761.09570312 C840.91625533 758.47725053 841.43071828 755.88247951 841.96655273 753.27905273 C843.0048895 748.12595016 843.79783467 742.96139548 844.5078125 737.75390625 C844.63856674 736.79721039 844.76932098 735.84051453 844.90403748 734.85482788 C849.11334971 703.55050583 851.49797357 673.32058587 846 642 C845.79184585 640.66944602 845.58472856 639.33872919 845.37890625 638.0078125 C841.44406804 615.27862281 832.56673102 589.84566261 813 576 C788.11684069 561.07699725 760.33224217 568.82183921 736 581 Z M281 2312 C277.15903066 2323.52290802 273.51926715 2334.55561521 270.3828125 2346.1875 C268.18465812 2354.05949444 265.45887353 2361.77112668 262.84375 2369.51171875 C261.1608326 2374.49593677 259.57766098 2379.50251072 258.05859375 2384.5390625 C256.58018217 2389.37254095 255.03778622 2394.18513555 253.5 2399 C251.59377117 2404.97004631 249.69827121 2410.94145768 247.875 2416.9375 C246.13811461 2422.63062433 244.25679768 2428.27051493 242.34375 2433.90625 C241.24791756 2437.18770351 240.2362488 2440.49109146 239.23071289 2443.80126953 C236.91847532 2451.3287745 234.45364635 2458.80302647 231.96484375 2466.2734375 C231.48120779 2467.7275769 230.99761197 2469.18172965 230.51405334 2470.63589478 C229.50237169 2473.67688792 228.48947546 2476.71747339 227.47583008 2479.7578125 C226.46073251 2482.80302486 225.44770355 2485.84891141 224.43676758 2488.89550781 C215.69829453 2515.22812614 206.69463177 2541.46184699 196.9375 2567.4375 C196.49857422 2568.62279297 196.05964844 2569.80808594 195.60742188 2571.02929688 C194.10690567 2575.03418094 192.56810203 2579.02118498 191 2583 C190.66888214 2583.84217072 190.33776428 2584.68434143 189.99661255 2585.55203247 C183.38628717 2602.22205736 175.6269504 2618.22307014 167.51123047 2634.19390869 C164.99441377 2639.15095599 162.49228181 2644.11545421 159.98946381 2649.07958031 C159.37584285 2650.29649224 158.76191736 2651.51325066 158.14768219 2652.72985268 C152.64724666 2663.62839803 147.34116144 2674.61156819 142.11776733 2685.64505005 C140.60738511 2688.82717431 139.07530768 2691.99824768 137.5390625 2695.16796875 C88.27085041 2796.18891201 88.27085041 2796.18891201 50.60839844 2901.8984375 C50.16916947 2903.41564575 49.72373069 2904.93106103 49.27441406 2906.4453125 C43.69385741 2925.40691013 39.97410561 2944.63918163 36.33416748 2964.04498291 C35.20321138 2970.03842589 33.95560591 2975.99620987 32.62207031 2981.94824219 C26.15372399 3013.68071042 36.93355509 3043.41317344 54.19970703 3069.8359375 C57.00719921 3073.98545398 59.97173393 3078.00969371 63 3082 C63.43038574 3082.56928223 63.86077148 3083.13856445 64.30419922 3083.72509766 C67.46186675 3087.87795147 70.70581509 3091.95482676 74 3096 C74.66829834 3096.82709473 74.66829834 3096.82709473 75.35009766 3097.67089844 C82.94362432 3106.98861198 91.32377089 3115.5071093 99.8125 3124 C100.35424866 3124.54274567 100.89599731 3125.08549133 101.4541626 3125.64468384 C107.45416074 3131.64343307 113.4996713 3137.53800448 120 3143 C121.299375 3144.10408203 121.299375 3144.10408203 122.625 3145.23046875 C135.20538055 3155.59686785 148.29342307 3165.17920459 162 3174 C162.98484375 3174.64066406 163.9696875 3175.28132813 164.984375 3175.94140625 C200.85211862 3198.66713269 238.89854254 3212.42505822 280 3222 C282.28515691 3222.53645551 284.57031316 3223.07291386 286.85546875 3223.609375 C301.28531942 3226.98254654 315.67973896 3230.30629838 330.35424805 3232.44287109 C333.51940866 3232.926558 336.67012729 3233.46457683 339.8230896 3234.02114868 C351.4539897 3236.04785544 363.13640609 3237.39538518 374.875 3238.625 C375.91533386 3238.73427826 376.95566772 3238.84355652 378.02752686 3238.95614624 C393.60912046 3240.57693618 409.04651755 3241.87291371 424.72180176 3241.97851562 C427.35223855 3242.00332176 429.98211599 3242.0460383 432.61230469 3242.08984375 C484.54350477 3242.92372494 535.62925217 3239.25401469 586 3226 C587.72748137 3225.56098932 589.45533617 3225.12344497 591.18359375 3224.6875 C618.72657986 3217.68011638 645.4695217 3208.09441143 671.29345703 3196.24023438 C673.69784501 3195.13845817 676.11017189 3194.05770598 678.52734375 3192.984375 C722.0588659 3173.4020852 761.85690119 3144.05405412 795.625 3110.5 C796.13434082 3109.99533203 796.64368164 3109.49066406 797.16845703 3108.97070312 C801.51553171 3104.60437394 803.2255777 3102.16979157 803.25816262 3095.90701705 C803.24942409 3094.64778475 803.24942409 3094.64778475 803.24050903 3093.3631134 C803.24221788 3092.47033571 803.24392673 3091.57755803 803.24568737 3090.65772647 C803.24899203 3087.65430537 803.23796248 3084.65110573 803.22705078 3081.64770508 C803.22648688 3079.49950669 803.22680282 3077.35130791 803.22793579 3075.20310974 C803.22851112 3069.36046496 803.21672766 3063.5179018 803.20278788 3057.67527604 C803.19031052 3051.57337241 803.18911239 3045.47146704 803.18673706 3039.36955261 C803.18051347 3027.80986269 803.16409077 3016.25021046 803.14403808 3004.69053715 C803.12170641 2991.53231931 803.11069253 2978.3740997 803.10064721 2965.21586764 C803.0797253 2938.14389013 803.04413081 2911.07194876 803 2884 C812.57 2884 822.14 2884 832 2884 C831.95336716 2888.03458687 831.95336716 2888.03458687 831.90579224 2892.15068054 C831.61949468 2917.50220711 831.41126319 2942.85352021 831.27462959 2968.20630169 C831.2025138 2981.24047962 831.10424094 2994.27346953 830.94384766 3007.30688477 C830.80407454 3018.67016419 830.71393121 3030.0325831 830.68276107 3041.3966983 C830.66454618 3047.41154756 830.62190932 3053.42393567 830.51977921 3059.437994 C830.4243044 3065.10640211 830.39552206 3070.77135108 830.41649246 3076.44048691 C830.41266012 3078.5138045 830.38506243 3080.58724505 830.33112335 3082.65986443 C829.83364725 3094.67915673 829.83364725 3094.67915673 835.0500145 3105.06571388 C837.92491153 3107.94285852 841.00627878 3110.43854617 844.31503844 3112.79804862 C846.61699099 3114.44012468 848.76735373 3116.2516074 850.9375 3118.0625 C852.12472656 3118.98482422 852.12472656 3118.98482422 853.3359375 3119.92578125 C855.36378677 3121.50464923 857.36277958 3123.10363763 859.3515625 3124.73046875 C868.60046172 3132.2751015 878.15573808 3139.25436817 888 3146 C888.70995117 3146.48968262 889.41990234 3146.97936523 890.15136719 3147.48388672 C917.33802403 3166.18164867 946.21397102 3182.07519945 977 3194 C978.1746582 3194.45777832 978.1746582 3194.45777832 979.37304688 3194.92480469 C993.53421548 3200.37478499 1008.20376032 3203.76024078 1023 3207 C1023.89589844 3207.19722656 1024.79179688 3207.39445312 1025.71484375 3207.59765625 C1026.44832031 3207.75105469 1027.18179688 3207.90445313 1027.9375 3208.0625 C1029.03384766 3208.29646484 1029.03384766 3208.29646484 1030.15234375 3208.53515625 C1084.9472543 3217.47973013 1148.6997753 3204.72343555 1201.01269531 3188.60302734 C1203.56619338 3187.82819439 1206.13431593 3187.10661891 1208.7019043 3186.38012695 C1276.44569239 3167.01404957 1343.13369096 3136.32935476 1396 3089 C1396.95519531 3088.15566406 1397.91039062 3087.31132812 1398.89453125 3086.44140625 C1411.79341779 3074.84828935 1424.3695377 3062.72690493 1435 3049 C1435.87530161 3047.94491582 1436.75446049 3046.89302399 1437.63671875 3045.84375 C1471.7658393 3004.91667059 1494.96259204 2954.79698878 1510 2904 C1510.24443848 2903.18337891 1510.48887695 2902.36675781 1510.74072266 2901.52539062 C1521.94066356 2863.55894805 1526.26255747 2819.84234766 1517 2781 C1516.75330566 2779.96536621 1516.50661133 2778.93073242 1516.25244141 2777.86474609 C1506.50576259 2738.30962413 1487.19727693 2703.74955956 1462 2672 C1461.53577637 2671.40977051 1461.07155273 2670.81954102 1460.59326172 2670.21142578 C1455.53770844 2663.79452895 1450.1134409 2657.76242553 1444.5625 2651.77734375 C1441.89813861 2648.8895984 1439.30619297 2645.95030616 1436.734375 2642.98046875 C1434.72735462 2640.68866845 1432.67597149 2638.44003248 1430.625 2636.1875 C1426.78193702 2631.92389983 1423.10677266 2627.55447727 1419.5 2623.08984375 C1417.67996428 2620.84039335 1415.84781118 2618.60526208 1414 2616.37890625 C1400.50307582 2600.05632706 1388.55807134 2582.73485441 1377 2565 C1376.56123535 2564.32855957 1376.1224707 2563.65711914 1375.67041016 2562.96533203 C1352.97643912 2528.03396817 1334.65600301 2490.5398373 1319 2452 C1318.74645752 2451.3764563 1318.49291504 2450.7529126 1318.23168945 2450.11047363 C1311.8657021 2434.39780077 1306.37598871 2418.42422817 1301.125 2402.3125 C1300.85355164 2401.48086334 1300.58210327 2400.64922668 1300.3024292 2399.79238892 C1296.77042368 2388.93112878 1293.52802526 2378.01823952 1290.54241943 2366.99459839 C1289.76205037 2364.12500563 1288.9580336 2361.26210935 1288.15625 2358.3984375 C1284.38108704 2344.73536238 1281.15745185 2331.04787581 1278.46142578 2317.13110352 C1278.00339019 2314.8296548 1278.00339019 2314.8296548 1277 2312 C948.32 2312 619.64 2312 281 2312 Z M1549 2850 C1548.91081299 2850.86274536 1548.91081299 2850.86274536 1548.81982422 2851.74291992 C1540.59537409 2928.90583184 1508.04088227 3004.87331597 1459 3065 C1458.56365234 3065.53544434 1458.12730469 3066.07088867 1457.67773438 3066.62255859 C1444.99663561 3082.08880238 1431.23250235 3097.02128627 1416 3110 C1414.98352323 3110.89095625 1413.96797582 3111.78297339 1412.953125 3112.67578125 C1336.75443378 3179.36341223 1235.34267961 3215.837322 1090 3238 C1089.05809814 3238.1045752 1088.11619629 3238.20915039 1087.14575195 3238.31689453 C1066.2208252 3240.46294243 1044.6932179 3239.62719283 1024 3236 C1022.92250488 3235.81195801 1021.84500977 3235.62391602 1020.73486328 3235.43017578 C995.2679667 3230.81551685 970.50124839 3222.8520743 947 3212 C946.04319336 3211.55930176 945.08638672 3211.11860352 944.10058594 3210.66455078 C914.34868895 3196.86352159 886.28250988 3180.66120919 860 3161 C858.5746515 3159.94602909 857.14887087 3158.89264234 855.72265625 3157.83984375 C843.4023854 3148.71170166 831.67562395 3138.93077713 820 3129 C816.74792908 3130.41738489 814.68638933 3132.12526412 812.25 3134.6875 C808.99702767 3138.02449745 805.64382927 3141.13354386 802.109375 3144.16796875 C799.82370454 3146.15311587 797.60298622 3148.2003983 795.375 3150.25 C789.17082834 3155.8337545 782.62238181 3160.9297147 776 3166 C775.2383252 3166.58620117 774.47665039 3167.17240234 773.69189453 3167.77636719 C704.31437148 3221.04963444 620.02812702 3253.63022971 520.09710693 3266.75 C518.11481724 3266.98631242 516.13470084 3267.2406532 514.15478516 3267.49609375 C468.28291203 3273.31041524 418.86410522 3272.32823043 373 3267 C371.83736633 3266.86564545 371.83736633 3266.86564545 370.65124512 3266.72857666 C359.06735611 3265.37440538 347.52683825 3263.77244116 336 3262 C334.73720215 3261.80680176 333.4744043 3261.61360352 332.17333984 3261.41455078 C311.95089422 3258.25674858 291.96506776 3253.97461828 272.01043701 3249.45446777 C270.19150297 3249.04329005 268.37144885 3248.63707497 266.55126953 3248.23144531 C239.41200111 3242.12780017 213.10695363 3232.9474145 188 3221 C187.22398437 3220.63277832 186.44796875 3220.26555664 185.6484375 3219.88720703 C181.04451345 3217.69147354 176.50343234 3215.39472977 172 3213 C171.37432129 3212.6685498 170.74864258 3212.33709961 170.10400391 3211.99560547 C140.69056811 3196.2721912 113.67476477 3176.1716227 89.43164062 3153.33447266 C87.25933867 3151.30960866 85.03444067 3149.34507472 82.8125 3147.375 C75.02268582 3140.38187137 67.78578996 3132.96416067 61 3125 C60.10904375 3123.98352323 59.21702661 3122.96797582 58.32421875 3121.953125 C33.94194698 3094.09400251 10.81699723 3061.09881649 4 3024 C3.67 3024 3.34 3024 3 3024 C3 3244.11 3 3464.22 3 3691 C513.51 3691 1024.02 3691 1550 3691 C1550 3413.47 1550 3135.94 1550 2850 C1549.67 2850 1549.34 2850 1549 2850 Z " fill="#010101" transform="translate(0,0)"/>
<path d="M0 0 C512.49 0 1024.98 0 1553 0 C1553 1219.02 1553 2438.04 1553 3694 C1040.51 3694 528.02 3694 0 3694 C0 2474.98 0 1255.96 0 0 Z M3 3 C2.79696482 508.87034389 2.79696482 508.87034389 2.60547061 1014.74069183 C2.6036995 1019.58967491 2.60192754 1024.438658 2.60015573 1029.28764108 C2.59979099 1030.28585973 2.59942626 1031.28407839 2.59905047 1032.31254609 C2.57331864 1102.73411158 2.54751078 1173.15567705 2.52155138 1243.57724245 C2.5190692 1250.31121566 2.51658879 1257.04518886 2.51410992 1263.77916207 C2.47610021 1367.03417191 2.43713147 1470.28918125 2.39489746 1573.54418945 C2.39445372 1574.62922775 2.39400999 1575.71426604 2.3935528 1576.83218428 C2.37880999 1612.87775162 2.36396864 1648.92331893 2.34911357 1684.96888622 C2.33568646 1717.55027122 2.32229501 1750.13165624 2.30902004 1782.71304131 C2.30858333 1783.78486125 2.30814661 1784.85668119 2.30769666 1785.96098052 C2.28003282 1853.87831958 2.25393671 1921.79565912 2.22931767 1989.71299934 C2.22893284 1990.77407454 2.22854802 1991.83514975 2.22815154 1992.92837874 C2.21118975 2039.7006473 2.19454271 2086.47291597 2.17824754 2133.24518478 C2.17167271 2152.1128924 2.16505205 2170.9806 2.15840613 2189.8483076 C2.1573053 2192.9746582 2.15620595 2196.10100881 2.15510677 2199.22735941 C2.13859294 2246.1669741 2.12116073 2293.10658815 2.10053515 2340.04620123 C2.10010196 2341.03210161 2.09966877 2342.01800199 2.09922244 2343.03377815 C2.09226309 2358.85751453 2.08521437 2374.68125088 2.07814994 2390.50498723 C2.05768461 2436.3457245 2.03800547 2482.18646165 2.02257836 2528.02720094 C2.02225383 2528.99066292 2.02192931 2529.95412491 2.02159495 2530.94678271 C2.01446523 2552.15014395 2.00767587 2573.35350529 2.00120334 2594.55686674 C1.99860184 2603.06173523 1.9959553 2611.5666037 1.99329376 2620.07147217 C1.99300487 2620.99837584 1.99271598 2621.92527951 1.99241834 2622.88027118 C1.98516201 2646.1070659 1.9763123 2669.33385874 1.96390707 2692.56065132 C1.78849737 3025.3747635 2.50620982 3358.1854217 3 3691 C513.51 3691 1024.02 3691 1550 3691 C1550 2473.96 1550 1256.92 1550 3 C1039.49 3 528.98 3 3 3 Z " fill="#FDFDFD" transform="translate(0,0)"/>
</svg>
