<?xml version="1.0" encoding="UTF-8"?>
<!DOCTYPE svg PUBLIC "-//W3C//DTD SVG 1.1//EN" "http://www.w3.org/Graphics/SVG/1.1/DTD/svg11.dtd">
<svg xmlns="http://www.w3.org/2000/svg" version="1.1" width="1553px" height="3694px" style="shape-rendering:geometricPrecision; text-rendering:geometricPrecision; image-rendering:optimizeQuality; fill-rule:evenodd; clip-rule:evenodd" xmlns:xlink="http://www.w3.org/1999/xlink">
<g><path style="opacity:0.668" fill="#fdfdfd" d="M -0.5,-0.5 C 517.167,-0.5 1034.83,-0.5 1552.5,-0.5C 1552.5,1230.83 1552.5,2462.17 1552.5,3693.5C 1034.83,3693.5 517.167,3693.5 -0.5,3693.5C -0.5,2462.17 -0.5,1230.83 -0.5,-0.5 Z M 1549.5,2797.5 C 1541.65,2745.48 1521.49,2698.81 1489,2657.5C 1472.37,2637.87 1455.37,2618.54 1438,2599.5C 1382,2527.5 1340.66,2447.5 1314,2359.5C 1304.97,2331.03 1298.3,2302.03 1294,2272.5C 1256.83,2240.67 1219.67,2208.83 1182.5,2177C 1192.6,2161.97 1200.43,2145.8 1206,2128.5C 1210.88,2108.47 1205.71,2091.64 1190.5,2078C 1172.69,2064.78 1153.02,2055.28 1131.5,2049.5C 1130.94,2012.93 1130.28,1976.43 1129.5,1940C 1163.57,1935.23 1189.74,1918.39 1208,1889.5C 1222.3,1864.54 1221.97,1839.87 1207,1815.5C 1193.62,1799.15 1176.45,1788.99 1155.5,1785C 1146.87,1783.4 1138.2,1782.23 1129.5,1781.5C 1127.85,1761.18 1127.52,1740.84 1128.5,1720.5C 1150.08,1709.75 1168.91,1695.42 1185,1677.5C 1206.96,1648.5 1204.79,1621.33 1178.5,1596C 1162.9,1584.29 1145.57,1576.13 1126.5,1571.5C 1125.33,1556.5 1125.33,1541.5 1126.5,1526.5C 1152.56,1520.9 1173.06,1507.24 1188,1485.5C 1204.72,1451.56 1198.56,1422.39 1169.5,1398C 1155.7,1387.26 1140.36,1379.43 1123.5,1374.5C 1123.33,1356.83 1123.5,1339.16 1124,1321.5C 1145.49,1311.67 1164.49,1298.34 1181,1281.5C 1202.2,1254.63 1202.87,1227.3 1183,1199.5C 1165.76,1181.04 1145.43,1167.04 1122,1157.5C 1121.17,1143.49 1121.33,1129.49 1122.5,1115.5C 1151.57,1107.23 1175.73,1091.56 1195,1068.5C 1216.01,1040.18 1216.67,1011.51 1197,982.5C 1175.74,960.126 1149.57,948.459 1118.5,947.5C 1101.31,872.919 1057.98,819.752 988.5,788C 930.068,763.246 869.068,750.246 805.5,749C 742.438,746.711 680.438,753.711 619.5,770C 573.281,781.943 531.615,802.61 494.5,832C 457.46,866.907 435.294,909.74 428,960.5C 424.114,987.415 421.281,1014.41 419.5,1041.5C 396.492,1046.67 375.492,1056.17 356.5,1070C 335.437,1087.19 325.604,1109.36 327,1136.5C 332.745,1166.58 350.245,1186.42 379.5,1196C 391.573,1199.68 403.907,1201.85 416.5,1202.5C 416.556,1225.25 416.556,1247.92 416.5,1270.5C 388.854,1275.4 366.021,1288.4 348,1309.5C 333.21,1330.71 330.544,1353.38 340,1377.5C 349.404,1396.23 363.904,1409.4 383.5,1417C 394.836,1421.25 406.503,1424.08 418.5,1425.5C 418.859,1439.86 418.859,1454.19 418.5,1468.5C 394.286,1475.61 372.286,1486.77 352.5,1502C 328.653,1526.05 326.153,1552.21 345,1580.5C 365.232,1603.21 390.399,1617.54 420.5,1623.5C 421.095,1636.5 421.262,1649.5 421,1662.5C 399.42,1667.87 379.92,1677.37 362.5,1691C 331.597,1720.91 327.097,1754.41 349,1791.5C 366.254,1813.72 388.754,1827.72 416.5,1833.5C 416.832,1843.52 416.499,1853.52 415.5,1863.5C 391.211,1872.97 369.544,1886.47 350.5,1904C 323.388,1935.72 322.555,1968.22 348,2001.5C 366.089,2022.05 387.756,2037.72 413,2048.5C 405.475,2087.61 397.142,2126.61 388,2165.5C 342.531,2211.3 296.865,2256.64 251,2301.5C 225.344,2392.13 196.677,2481.8 165,2570.5C 161.805,2577.75 158.805,2585.09 156,2592.5C 110.823,2679.06 70.4892,2767.73 35,2858.5C 27.6614,2878.18 21.3281,2898.18 16,2918.5C 11.9383,2940.39 7.43826,2962.06 2.5,2983.5C 2.5,1989.83 2.5,996.167 2.5,2.5C 518.167,2.5 1033.83,2.5 1549.5,2.5C 1549.5,934.167 1549.5,1865.83 1549.5,2797.5 Z M 1549.5,2856.5 C 1549.5,3134.5 1549.5,3412.5 1549.5,3690.5C 1033.83,3690.5 518.167,3690.5 2.5,3690.5C 2.5,3467.17 2.5,3243.83 2.5,3020.5C 8.6553,3048.46 20.4886,3073.79 38,3096.5C 107.197,3187.38 198.697,3241.21 312.5,3258C 388.193,3272.2 464.193,3274.2 540.5,3264C 648.191,3248.23 741.025,3203.07 819,3128.5C 856.793,3161.84 898.626,3189.34 944.5,3211C 996.66,3235.83 1051.33,3244.17 1108.5,3236C 1198.13,3225.34 1281.8,3197.34 1359.5,3152C 1434.21,3104.94 1488.37,3040.44 1522,2958.5C 1535.57,2925.56 1544.73,2891.56 1549.5,2856.5 Z"/></g>
<g><path style="opacity:0.982" fill="#010101" d="M 1549.5,2797.5 C 1550.81,2817.17 1550.81,2836.83 1549.5,2856.5C 1544.73,2891.56 1535.57,2925.56 1522,2958.5C 1488.37,3040.44 1434.21,3104.94 1359.5,3152C 1281.8,3197.34 1198.13,3225.34 1108.5,3236C 1051.33,3244.17 996.66,3235.83 944.5,3211C 898.626,3189.34 856.793,3161.84 819,3128.5C 741.025,3203.07 648.191,3248.23 540.5,3264C 464.193,3274.2 388.193,3272.2 312.5,3258C 198.697,3241.21 107.197,3187.38 38,3096.5C 20.4886,3073.79 8.6553,3048.46 2.5,3020.5C 1.19984,3008.17 1.19984,2995.83 2.5,2983.5C 7.43826,2962.06 11.9383,2940.39 16,2918.5C 21.3281,2898.18 27.6614,2878.18 35,2858.5C 70.4892,2767.73 110.823,2679.06 156,2592.5C 158.805,2585.09 161.805,2577.75 165,2570.5C 196.677,2481.8 225.344,2392.13 251,2301.5C 296.865,2256.64 342.531,2211.3 388,2165.5C 397.142,2126.61 405.475,2087.61 413,2048.5C 387.756,2037.72 366.089,2022.05 348,2001.5C 322.555,1968.22 323.388,1935.72 350.5,1904C 369.544,1886.47 391.211,1872.97 415.5,1863.5C 416.499,1853.52 416.832,1843.52 416.5,1833.5C 388.754,1827.72 366.254,1813.72 349,1791.5C 327.097,1754.41 331.597,1720.91 362.5,1691C 379.92,1677.37 399.42,1667.87 421,1662.5C 421.262,1649.5 421.095,1636.5 420.5,1623.5C 390.399,1617.54 365.232,1603.21 345,1580.5C 326.153,1552.21 328.653,1526.05 352.5,1502C 372.286,1486.77 394.286,1475.61 418.5,1468.5C 418.859,1454.19 418.859,1439.86 418.5,1425.5C 406.503,1424.08 394.836,1421.25 383.5,1417C 363.904,1409.4 349.404,1396.23 340,1377.5C 330.544,1353.38 333.21,1330.71 348,1309.5C 366.021,1288.4 388.854,1275.4 416.5,1270.5C 416.556,1247.92 416.556,1225.25 416.5,1202.5C 403.907,1201.85 391.573,1199.68 379.5,1196C 350.245,1186.42 332.745,1166.58 327,1136.5C 325.604,1109.36 335.437,1087.19 356.5,1070C 375.492,1056.17 396.492,1046.67 419.5,1041.5C 421.281,1014.41 424.114,987.415 428,960.5C 435.294,909.74 457.46,866.907 494.5,832C 531.615,802.61 573.281,781.943 619.5,770C 680.438,753.711 742.438,746.711 805.5,749C 869.068,750.246 930.068,763.246 988.5,788C 1057.98,819.752 1101.31,872.919 1118.5,947.5C 1149.57,948.459 1175.74,960.126 1197,982.5C 1216.67,1011.51 1216.01,1040.18 1195,1068.5C 1175.73,1091.56 1151.57,1107.23 1122.5,1115.5C 1121.33,1129.49 1121.17,1143.49 1122,1157.5C 1145.43,1167.04 1165.76,1181.04 1183,1199.5C 1202.87,1227.3 1202.2,1254.63 1181,1281.5C 1164.49,1298.34 1145.49,1311.67 1124,1321.5C 1123.5,1339.16 1123.33,1356.83 1123.5,1374.5C 1140.36,1379.43 1155.7,1387.26 1169.5,1398C 1198.56,1422.39 1204.72,1451.56 1188,1485.5C 1173.06,1507.24 1152.56,1520.9 1126.5,1526.5C 1125.33,1541.5 1125.33,1556.5 1126.5,1571.5C 1145.57,1576.13 1162.9,1584.29 1178.5,1596C 1204.79,1621.33 1206.96,1648.5 1185,1677.5C 1168.91,1695.42 1150.08,1709.75 1128.5,1720.5C 1127.52,1740.84 1127.85,1761.18 1129.5,1781.5C 1138.2,1782.23 1146.87,1783.4 1155.5,1785C 1176.45,1788.99 1193.62,1799.15 1207,1815.5C 1221.97,1839.87 1222.3,1864.54 1208,1889.5C 1189.74,1918.39 1163.57,1935.23 1129.5,1940C 1130.28,1976.43 1130.94,2012.93 1131.5,2049.5C 1153.02,2055.28 1172.69,2064.78 1190.5,2078C 1205.71,2091.64 1210.88,2108.47 1206,2128.5C 1200.43,2145.8 1192.6,2161.97 1182.5,2177C 1219.67,2208.83 1256.83,2240.67 1294,2272.5C 1298.3,2302.03 1304.97,2331.03 1314,2359.5C 1340.66,2447.5 1382,2527.5 1438,2599.5C 1455.37,2618.54 1472.37,2637.87 1489,2657.5C 1521.49,2698.81 1541.65,2745.48 1549.5,2797.5 Z"/></g>
<g><path style="opacity:1" fill="#b7b7b8" d="M 1093.5,1091.5 C 1092.17,1097.8 1091.5,1104.46 1091.5,1111.5C 1091.5,1118.34 1091.83,1125.01 1092.5,1131.5C 1092.33,1146.84 1092.5,1162.17 1093,1177.5C 1112.04,1184.44 1129.87,1193.6 1146.5,1205C 1158.07,1213.05 1165.4,1223.88 1168.5,1237.5C 1168.03,1242.66 1166.87,1247.66 1165,1252.5C 1156.84,1264.99 1146.34,1275.16 1133.5,1283C 1121.23,1289.97 1108.57,1296.13 1095.5,1301.5C 1094.17,1333.17 1094.17,1364.83 1095.5,1396.5C 1116.92,1401.02 1136.25,1409.85 1153.5,1423C 1174.15,1444.21 1173.15,1464.55 1150.5,1484C 1134.25,1494.94 1116.25,1500.44 1096.5,1500.5C 1096.33,1531.5 1096.5,1562.5 1097,1593.5C 1116.77,1597.76 1135.6,1604.59 1153.5,1614C 1160.82,1618.98 1166.32,1625.48 1170,1633.5C 1171.4,1640.72 1170.07,1647.38 1166,1653.5C 1155.97,1666.76 1143.81,1677.59 1129.5,1686C 1119.57,1691.88 1109.41,1697.38 1099,1702.5C 1098.34,1738.84 1098.5,1775.17 1099.5,1811.5C 1113.17,1811.33 1126.84,1811.5 1140.5,1812C 1157.46,1813.4 1171.62,1820.23 1183,1832.5C 1190.48,1846.88 1190.15,1861.22 1182,1875.5C 1169.88,1894.33 1152.71,1905.83 1130.5,1910C 1120.54,1911.21 1110.54,1911.71 1100.5,1911.5C 1100.63,1964.51 1101.3,2017.51 1102.5,2070.5C 1122.01,2076.39 1141.01,2083.56 1159.5,2092C 1167.31,2096.14 1173.48,2101.98 1178,2109.5C 1178.5,2118.2 1176.83,2126.54 1173,2134.5C 1164.26,2151 1154.76,2167 1144.5,2182.5C 1180.85,2213.86 1217.19,2245.19 1253.5,2276.5C 1124.33,2277.5 995.001,2277.83 865.5,2277.5C 683.165,2277.83 500.832,2277.5 318.5,2276.5C 350.793,2244.71 382.959,2212.71 415,2180.5C 426.487,2128.55 437.654,2076.55 448.5,2024.5C 439.572,2025.16 430.905,2023.99 422.5,2021C 400.461,2010.95 381.961,1996.45 367,1977.5C 357.184,1963.7 356.184,1949.36 364,1934.5C 374.388,1920.78 387.221,1909.95 402.5,1902C 416.72,1894.81 431.22,1888.31 446,1882.5C 446.5,1858.17 446.667,1833.84 446.5,1809.5C 419.571,1807.92 396.404,1797.92 377,1779.5C 357.355,1752.05 361.188,1728.22 388.5,1708C 407.49,1696.28 428.157,1689.45 450.5,1687.5C 450.5,1657.5 450.5,1627.5 450.5,1597.5C 419.09,1597.37 392.257,1586.37 370,1564.5C 357.246,1548.22 359.079,1533.72 375.5,1521C 385.731,1513.72 396.731,1507.72 408.5,1503C 421.352,1498.37 434.352,1494.2 447.5,1490.5C 448.26,1459.51 448.26,1428.51 447.5,1397.5C 424.74,1399.32 403.407,1394.82 383.5,1384C 362.726,1369.74 358.226,1351.57 370,1329.5C 379.956,1316.6 392.789,1307.76 408.5,1303C 420.876,1299.22 433.543,1297.05 446.5,1296.5C 445.991,1254.84 445.657,1213.17 445.5,1171.5C 431.852,1172.55 418.185,1172.72 404.5,1172C 387.938,1169.97 374.105,1162.8 363,1150.5C 354.05,1134.98 354.383,1119.64 364,1104.5C 375.948,1089.92 391.115,1080.08 409.5,1075C 421.952,1071.55 434.619,1069.39 447.5,1068.5C 449.252,1040.47 451.418,1012.47 454,984.5C 460.531,906.693 499.031,851.526 569.5,819C 619.966,797.217 672.633,784.217 727.5,780C 789.11,774.884 850.11,778.884 910.5,792C 950.439,801.309 987.105,817.642 1020.5,841C 1063.48,875.456 1087.15,920.289 1091.5,975.5C 1104.87,976.146 1118.21,977.313 1131.5,979C 1153.21,981.758 1169.38,992.592 1180,1011.5C 1183.21,1023.58 1181.54,1034.91 1175,1045.5C 1164.13,1061.69 1149.63,1073.53 1131.5,1081C 1119.22,1085.98 1106.55,1089.48 1093.5,1091.5 Z"/></g>
<g><path style="opacity:1" fill="#535354" d="M 1093.5,1091.5 C 1092.52,1104.75 1092.19,1118.09 1092.5,1131.5C 1091.83,1125.01 1091.5,1118.34 1091.5,1111.5C 1091.5,1104.46 1092.17,1097.8 1093.5,1091.5 Z"/></g>
<g><path style="opacity:1" fill="#737374" d="M 1253.5,2276.5 C 1254.29,2276.78 1254.96,2277.28 1255.5,2278C 1125.33,2278.83 995.333,2278.67 865.5,2277.5C 995.001,2277.83 1124.33,2277.5 1253.5,2276.5 Z"/></g>
<g><path style="opacity:1" fill="#fefefe" d="M 283.5,2305.5 C 612.402,2306.02 941.235,2306.68 1270,2307.5C 1293.08,2411.5 1335.08,2506.83 1396,2593.5C 1416.21,2619.38 1437.54,2644.38 1460,2668.5C 1487.7,2701.57 1506.7,2739.24 1517,2781.5C 1522.92,2811.83 1522.92,2842.17 1517,2872.5C 1486.01,3014.15 1403.18,3111.65 1268.5,3165C 1209.57,3188.09 1148.57,3202.75 1085.5,3209C 1045.28,3212.06 1006.61,3205.73 969.5,3190C 918.849,3167.78 873.349,3137.94 833,3100.5C 832.5,3028.17 832.333,2955.83 832.5,2883.5C 822.833,2883.5 813.167,2883.5 803.5,2883.5C 803.667,2956.17 803.5,3028.83 803,3101.5C 761.558,3145.49 712.724,3178.99 656.5,3202C 569.628,3236.23 479.628,3248.57 386.5,3239C 335.139,3233.99 284.806,3223.99 235.5,3209C 154.603,3179.09 91.4365,3127.59 46,3054.5C 33.8059,3033.29 29.1392,3010.62 32,2986.5C 37.6187,2950.4 46.2853,2915.07 58,2880.5C 93.867,2786.76 135.2,2695.43 182,2606.5C 201.444,2557.17 219.111,2507.17 235,2456.5C 250.206,2407.22 265.206,2357.88 280,2308.5C 281.145,2307.36 282.312,2306.36 283.5,2305.5 Z"/></g>
</svg>
