<?xml version="1.0" encoding="UTF-8"?>
<!DOCTYPE svg PUBLIC "-//W3C//DTD SVG 1.1//EN" "http://www.w3.org/Graphics/SVG/1.1/DTD/svg11.dtd">
<svg xmlns="http://www.w3.org/2000/svg" version="1.1" width="1453px" height="3694px" style="shape-rendering:geometricPrecision; text-rendering:geometricPrecision; image-rendering:optimizeQuality; fill-rule:evenodd; clip-rule:evenodd" xmlns:xlink="http://www.w3.org/1999/xlink">
<g><path style="opacity:0.7" fill="#fdfdfd" d="M -0.5,-0.5 C 483.833,-0.5 968.167,-0.5 1452.5,-0.5C 1452.5,1230.83 1452.5,2462.17 1452.5,3693.5C 968.167,3693.5 483.833,3693.5 -0.5,3693.5C -0.5,2462.17 -0.5,1230.83 -0.5,-0.5 Z M 1449.5,917.5 C 1443.4,877.043 1430.57,838.71 1411,802.5C 1360.36,713.197 1290.86,642.364 1202.5,590C 1154.23,562.021 1102.23,546.355 1046.5,543C 994.836,540.865 946.169,551.865 900.5,576C 864.877,595.975 830.044,617.142 796,639.5C 717.738,589.28 637.905,541.446 556.5,496C 519.902,477.689 481.568,464.356 441.5,456C 417.493,451.633 393.826,452.966 370.5,460C 339.791,470.187 310.124,482.854 281.5,498C 226.117,538.691 174.284,583.857 126,633.5C 92.2258,669.319 65.5592,709.985 46,755.5C 10.7273,831.47 -2.60605,911.136 6,994.5C 11.5381,1027.11 19.5381,1059.11 30,1090.5C 61.9422,1185.37 96.9422,1279.04 135,1371.5C 136.667,1373.83 138.333,1376.17 140,1378.5C 184.694,1422.86 229.028,1467.53 273,1512.5C 281.605,1551.42 290.438,1590.25 299.5,1629C 273.682,1639.82 251.515,1655.65 233,1676.5C 204.7,1715.76 208.867,1751.26 245.5,1783C 262.268,1796.06 280.601,1806.56 300.5,1814.5C 301.499,1824.48 301.832,1834.48 301.5,1844.5C 266.964,1851.33 241.797,1870.33 226,1901.5C 213.713,1941.31 224.88,1972.81 259.5,1996C 273.982,2005.22 289.649,2011.38 306.5,2014.5C 306.512,2027.84 306.179,2041.18 305.5,2054.5C 279.154,2060.01 256.154,2071.84 236.5,2090C 227.382,2099.47 221.215,2110.64 218,2123.5C 215.021,2144.57 221.521,2162.07 237.5,2176C 257.349,2191.09 279.349,2202.26 303.5,2209.5C 304.081,2223.82 304.081,2238.15 303.5,2252.5C 276.595,2254.71 253.761,2265.37 235,2284.5C 215.093,2311.99 214.427,2339.99 233,2368.5C 251.021,2389.6 273.854,2402.6 301.5,2407.5C 301.616,2430.12 301.616,2452.79 301.5,2475.5C 272.896,2475.86 248.396,2485.86 228,2505.5C 205.831,2535.68 206.164,2565.68 229,2595.5C 249.769,2617.64 275.269,2630.97 305.5,2635.5C 313.835,2730.74 358.168,2803.57 438.5,2854C 498.253,2889.03 562.586,2911.03 631.5,2920C 737.953,2934.76 841.62,2923.76 942.5,2887C 993.994,2867.8 1038.83,2838.63 1077,2799.5C 1095.53,2779.13 1110.03,2756.13 1120.5,2730.5C 1150.32,2729.17 1175.82,2718.17 1197,2697.5C 1211.45,2680.28 1216.11,2660.61 1211,2638.5C 1203.97,2616.13 1190.8,2598.3 1171.5,2585C 1156.42,2574.79 1140.09,2567.29 1122.5,2562.5C 1123.22,2548.52 1123.72,2534.52 1124,2520.5C 1146.44,2511.13 1166.1,2497.79 1183,2480.5C 1205.27,2451.96 1204.94,2423.62 1182,2395.5C 1165.6,2379.3 1146.94,2366.3 1126,2356.5C 1125.17,2338.82 1125.33,2321.16 1126.5,2303.5C 1148.99,2296.68 1168.15,2284.68 1184,2267.5C 1205.6,2236.59 1203.93,2206.92 1179,2178.5C 1164.71,2164.93 1147.87,2155.93 1128.5,2151.5C 1127.33,2136.84 1127.17,2122.18 1128,2107.5C 1145.87,2102.48 1162.37,2094.65 1177.5,2084C 1206.3,2058.49 1209.13,2030.32 1186,1999.5C 1169.66,1982.34 1150.99,1968.34 1130,1957.5C 1129.33,1937.83 1129.33,1918.17 1130,1898.5C 1130.5,1897.33 1131.33,1896.5 1132.5,1896C 1156.99,1895.72 1178.99,1888.39 1198.5,1874C 1220.42,1852.08 1225.59,1826.58 1214,1797.5C 1196.97,1763.32 1169.47,1743.66 1131.5,1738.5C 1132.1,1702.17 1132.6,1665.84 1133,1629.5C 1151.45,1623.36 1168.95,1615.19 1185.5,1605C 1207.47,1589.62 1214.31,1569.12 1206,1543.5C 1200.54,1528.42 1193.37,1514.25 1184.5,1501C 1216.5,1473.67 1248.5,1446.33 1280.5,1419C 1289.03,1410.8 1297.2,1402.3 1305,1393.5C 1355.54,1300.76 1395.87,1203.76 1426,1102.5C 1436.87,1062.61 1444.7,1022.27 1449.5,981.5C 1449.5,1884.5 1449.5,2787.5 1449.5,3690.5C 967.167,3690.5 484.833,3690.5 2.5,3690.5C 2.5,2460.83 2.5,1231.17 2.5,1.5C 484.833,1.5 967.167,1.5 1449.5,1.5C 1449.5,306.833 1449.5,612.167 1449.5,917.5 Z"/></g>
<g><path style="opacity:0.982" fill="#010101" d="M 1449.5,917.5 C 1450.53,938.827 1450.53,960.16 1449.5,981.5C 1444.7,1022.27 1436.87,1062.61 1426,1102.5C 1395.87,1203.76 1355.54,1300.76 1305,1393.5C 1297.2,1402.3 1289.03,1410.8 1280.5,1419C 1248.5,1446.33 1216.5,1473.67 1184.5,1501C 1193.37,1514.25 1200.54,1528.42 1206,1543.5C 1214.31,1569.12 1207.47,1589.62 1185.5,1605C 1168.95,1615.19 1151.45,1623.36 1133,1629.5C 1132.6,1665.84 1132.1,1702.17 1131.5,1738.5C 1169.47,1743.66 1196.97,1763.32 1214,1797.5C 1225.59,1826.58 1220.42,1852.08 1198.5,1874C 1178.99,1888.39 1156.99,1895.72 1132.5,1896C 1131.33,1896.5 1130.5,1897.33 1130,1898.5C 1129.33,1918.17 1129.33,1937.83 1130,1957.5C 1150.99,1968.34 1169.66,1982.34 1186,1999.5C 1209.13,2030.32 1206.3,2058.49 1177.5,2084C 1162.37,2094.65 1145.87,2102.48 1128,2107.5C 1127.17,2122.18 1127.33,2136.84 1128.5,2151.5C 1147.87,2155.93 1164.71,2164.93 1179,2178.5C 1203.93,2206.92 1205.6,2236.59 1184,2267.5C 1168.15,2284.68 1148.99,2296.68 1126.5,2303.5C 1125.33,2321.16 1125.17,2338.82 1126,2356.5C 1146.94,2366.3 1165.6,2379.3 1182,2395.5C 1204.94,2423.62 1205.27,2451.96 1183,2480.5C 1166.1,2497.79 1146.44,2511.13 1124,2520.5C 1123.72,2534.52 1123.22,2548.52 1122.5,2562.5C 1140.09,2567.29 1156.42,2574.79 1171.5,2585C 1190.8,2598.3 1203.97,2616.13 1211,2638.5C 1216.11,2660.61 1211.45,2680.28 1197,2697.5C 1175.82,2718.17 1150.32,2729.17 1120.5,2730.5C 1110.03,2756.13 1095.53,2779.13 1077,2799.5C 1038.83,2838.63 993.994,2867.8 942.5,2887C 841.62,2923.76 737.953,2934.76 631.5,2920C 562.586,2911.03 498.253,2889.03 438.5,2854C 358.168,2803.57 313.835,2730.74 305.5,2635.5C 275.269,2630.97 249.769,2617.64 229,2595.5C 206.164,2565.68 205.831,2535.68 228,2505.5C 248.396,2485.86 272.896,2475.86 301.5,2475.5C 301.616,2452.79 301.616,2430.12 301.5,2407.5C 273.854,2402.6 251.021,2389.6 233,2368.5C 214.427,2339.99 215.093,2311.99 235,2284.5C 253.761,2265.37 276.595,2254.71 303.5,2252.5C 304.081,2238.15 304.081,2223.82 303.5,2209.5C 279.349,2202.26 257.349,2191.09 237.5,2176C 221.521,2162.07 215.021,2144.57 218,2123.5C 221.215,2110.64 227.382,2099.47 236.5,2090C 256.154,2071.84 279.154,2060.01 305.5,2054.5C 306.179,2041.18 306.512,2027.84 306.5,2014.5C 289.649,2011.38 273.982,2005.22 259.5,1996C 224.88,1972.81 213.713,1941.31 226,1901.5C 241.797,1870.33 266.964,1851.33 301.5,1844.5C 301.832,1834.48 301.499,1824.48 300.5,1814.5C 280.601,1806.56 262.268,1796.06 245.5,1783C 208.867,1751.26 204.7,1715.76 233,1676.5C 251.515,1655.65 273.682,1639.82 299.5,1629C 290.438,1590.25 281.605,1551.42 273,1512.5C 229.028,1467.53 184.694,1422.86 140,1378.5C 138.333,1376.17 136.667,1373.83 135,1371.5C 96.9422,1279.04 61.9422,1185.37 30,1090.5C 19.5381,1059.11 11.5381,1027.11 6,994.5C -2.60605,911.136 10.7273,831.47 46,755.5C 65.5592,709.985 92.2258,669.319 126,633.5C 174.284,583.857 226.117,538.691 281.5,498C 310.124,482.854 339.791,470.187 370.5,460C 393.826,452.966 417.493,451.633 441.5,456C 481.568,464.356 519.902,477.689 556.5,496C 637.905,541.446 717.738,589.28 796,639.5C 830.044,617.142 864.877,595.975 900.5,576C 946.169,551.865 994.836,540.865 1046.5,543C 1102.23,546.355 1154.23,562.021 1202.5,590C 1290.86,642.364 1360.36,713.197 1411,802.5C 1430.57,838.71 1443.4,877.043 1449.5,917.5 Z"/></g>
<g><path style="opacity:1" fill="#fefefe" d="M 786.5,810.5 C 795.986,811.494 805.652,811.827 815.5,811.5C 815.5,761.833 815.5,712.167 815.5,662.5C 853.454,636.507 893.12,613.007 934.5,592C 988.163,570.475 1043.16,566.475 1099.5,580C 1153.49,594.66 1202.16,619.327 1245.5,654C 1301.15,697.63 1346.65,749.796 1382,810.5C 1401.24,844.56 1413.91,880.894 1420,919.5C 1422.5,947.282 1421.5,974.949 1417,1002.5C 1407.64,1061.25 1392.64,1118.59 1372,1174.5C 1347,1242 1317.5,1307.5 1283.5,1371C 911.166,1371.83 538.833,1371.67 166.5,1370.5C 128.888,1279.27 94.0551,1186.93 62,1093.5C 55.1212,1071.2 48.4546,1048.87 42,1026.5C 25.1941,947.647 31.5274,870.647 61,795.5C 74.1107,762.278 90.1107,730.611 109,700.5C 138.839,661.072 172.672,625.239 210.5,593C 237.921,569.575 265.921,546.909 294.5,525C 327.369,505.734 362.369,491.734 399.5,483C 408.167,482.333 416.833,482.333 425.5,483C 465.738,489.857 504.071,502.524 540.5,521C 564.156,533.493 587.489,546.493 610.5,560C 669.168,595.332 727.501,631.165 785.5,667.5C 786.5,715.162 786.833,762.829 786.5,810.5 Z"/></g>
<g><path style="opacity:1" fill="#4b4b4b" d="M 815.5,662.5 C 815.5,712.167 815.5,761.833 815.5,811.5C 805.652,811.827 795.986,811.494 786.5,810.5C 795.833,810.5 805.167,810.5 814.5,810.5C 814.168,760.997 814.501,711.664 815.5,662.5 Z"/></g>
<g><path style="opacity:1" fill="#767676" d="M 386.5,1400.5 C 677,1399.33 967.666,1399.17 1258.5,1400C 1257.96,1400.72 1257.29,1401.22 1256.5,1401.5C 966.667,1400.5 676.667,1400.17 386.5,1400.5 Z"/></g>
<g><path style="opacity:1" fill="#b7b7b8" d="M 386.5,1400.5 C 676.667,1400.17 966.667,1400.5 1256.5,1401.5C 1219.69,1432.48 1183.02,1463.65 1146.5,1495C 1157.55,1512.25 1167.71,1530.08 1177,1548.5C 1180.25,1556.89 1180.25,1565.22 1177,1573.5C 1167.39,1582.73 1156.22,1589.56 1143.5,1594C 1130.38,1598.71 1117.21,1603.21 1104,1607.5C 1103.18,1660.5 1102.68,1713.5 1102.5,1766.5C 1130.43,1763.65 1154.6,1771.65 1175,1790.5C 1184.52,1800.21 1189.68,1811.88 1190.5,1825.5C 1189.92,1841.49 1182.25,1852.65 1167.5,1859C 1159.39,1862.23 1151.06,1864.56 1142.5,1866C 1128.5,1866.5 1114.5,1866.67 1100.5,1866.5C 1100.33,1902.83 1100.5,1939.17 1101,1975.5C 1118.42,1983.45 1134.58,1993.28 1149.5,2005C 1158.56,2012.38 1165.73,2021.22 1171,2031.5C 1173.32,2043.04 1169.82,2052.54 1160.5,2060C 1141.67,2072.45 1121.01,2080.28 1098.5,2083.5C 1098.5,2114.83 1098.5,2146.17 1098.5,2177.5C 1115.48,2177.91 1131.48,2182.08 1146.5,2190C 1157.2,2196.56 1164.7,2205.73 1169,2217.5C 1171.36,2231.41 1167.53,2243.24 1157.5,2253C 1150.86,2258.99 1143.53,2263.99 1135.5,2268C 1123.23,2273.59 1110.56,2278.09 1097.5,2281.5C 1095.47,2313.15 1095.14,2344.82 1096.5,2376.5C 1115.66,2383.41 1133.33,2392.91 1149.5,2405C 1175.77,2426.73 1176.1,2448.73 1150.5,2471C 1133.42,2483.38 1114.92,2493.22 1095,2500.5C 1094.17,2529.16 1093.67,2557.83 1093.5,2586.5C 1124.73,2589.53 1150.9,2602.53 1172,2625.5C 1190.22,2650.33 1186.72,2671.5 1161.5,2689C 1150.6,2695.08 1138.93,2698.74 1126.5,2700C 1115.49,2700.94 1104.49,2701.94 1093.5,2703C 1092.08,2710.38 1091.24,2717.88 1091,2725.5C 1075.54,2758.3 1053.37,2785.8 1024.5,2808C 981.491,2840 933.824,2862.67 881.5,2876C 807.936,2895.26 733.27,2901.26 657.5,2894C 590.285,2887.7 526.952,2868.7 467.5,2837C 379.634,2787.17 334.968,2711.33 333.5,2609.5C 305.11,2609.09 279.777,2600.26 257.5,2583C 243.61,2570.33 238.777,2554.83 243,2536.5C 248.557,2525.28 257.057,2517.11 268.5,2512C 275.209,2508.99 282.209,2506.99 289.5,2506C 303.163,2505.5 316.829,2505.33 330.5,2505.5C 331.05,2464.17 331.383,2422.84 331.5,2381.5C 311.834,2380.5 293.167,2375.67 275.5,2367C 264.56,2360.73 256.394,2351.89 251,2340.5C 245.422,2319.81 251.922,2303.98 270.5,2293C 290.243,2282.82 311.243,2278.65 333.5,2280.5C 333.833,2249.49 333.5,2218.49 332.5,2187.5C 309.687,2181.84 288.02,2173.34 267.5,2162C 241.449,2145.49 239.782,2126.82 262.5,2106C 283.799,2089.07 308.133,2080.57 335.5,2080.5C 335.5,2050.5 335.5,2020.5 335.5,1990.5C 313.157,1988.55 292.49,1981.72 273.5,1970C 246.148,1949.79 242.314,1925.96 262,1898.5C 281.404,1880.08 304.571,1870.08 331.5,1868.5C 331.667,1844.16 331.5,1819.83 331,1795.5C 306.683,1786.93 284.183,1775.09 263.5,1760C 238.648,1738.66 237.148,1715.83 259,1691.5C 274.391,1675.22 292.557,1663.05 313.5,1655C 320.46,1653.91 327.46,1653.41 334.5,1653.5C 323.11,1601.5 311.61,1549.5 300,1497.5C 267.833,1465.33 235.667,1433.17 203.5,1401C 264.499,1400.5 325.499,1400.33 386.5,1400.5 Z"/></g>
</svg>
