<?xml version="1.0" encoding="UTF-8"?>
<svg version="1.1" xmlns="http://www.w3.org/2000/svg" width="1426" height="3694">
<path d="M0 0 C470.58 0 941.16 0 1426 0 C1426 1219.02 1426 2438.04 1426 3694 C955.42 3694 484.84 3694 0 3694 C0 2474.98 0 1255.96 0 0 Z M3 3 C3 896.31 3 1789.62 3 2710 C3.33 2710 3.66 2710 4 2710 C4.06469482 2709.33919434 4.12938965 2708.67838867 4.19604492 2707.99755859 C9.6621661 2653.24250778 21.94819955 2598.65788295 44.65258789 2548.31835938 C52.03128061 2531.73017235 57.43823705 2514.39251833 63.16690063 2497.18637085 C65.59203112 2489.91213631 68.03610225 2482.64422028 70.47671127 2475.37516785 C71.37371152 2472.70297526 72.26990085 2470.03051163 73.16604614 2467.35803223 C77.18738884 2455.37312843 81.28652317 2443.41883457 85.5 2431.5 C90.2347224 2418.08877655 94.83073593 2404.63297917 99.375 2391.15625 C99.80508204 2389.88095901 99.80508204 2389.88095901 100.24385262 2388.57990456 C103.23496716 2379.70852384 106.22057275 2370.83530936 109.197896 2361.9592905 C119.94772973 2329.91875726 119.94772973 2329.91875726 124.44140625 2317.70703125 C135.882117 2286.55067172 143.86881143 2254.5454595 151.90435791 2222.38043213 C152.96352145 2218.1419752 154.0306117 2213.90554239 155.09912109 2209.66943359 C169.69911046 2151.74197313 183.0173417 2093.50117985 195.35467529 2035.05084229 C196.00691643 2031.96730183 196.66330024 2028.88466908 197.32080078 2025.80224609 C205.52173831 1987.32199067 212.92857499 1948.70161944 220 1910 C220.12393631 1909.32178444 220.24787262 1908.64356888 220.37556458 1907.94480133 C236.24866314 1821.00358601 248.8200871 1733.55954705 264.984375 1467.1953125 C264.98153118 1464.9241791 264.97870849 1462.65304568 264.97590637 1460.38191223 C264.9618171 1450.11178578 264.94118285 1439.84185387 264.89093399 1429.57183456 C264.75680192 1400.65561918 265.3358764 1371.8707343 267 1343 C267.07352692 1341.7205954 267.14705383 1340.4411908 267.22280884 1339.12301636 C267.62993193 1332.30390226 268.12228282 1325.49522854 268.6875 1318.6875 C268.76859009 1317.69068207 268.84968018 1316.69386414 268.93322754 1315.6668396 C272.40552804 1273.50733799 278.14422839 1231.56278087 286 1190 C286.16888733 1189.10571289 286.33777466 1188.21142578 286.51177979 1187.29003906 C303.13719423 1099.80921251 331.17872626 1015.19906821 370.38671875 935.28955078 C371.81737888 932.37237243 373.23800351 929.45056796 374.65625 926.52734375 C387.67014297 899.88965376 402.73270376 873.41178174 419.61425781 849.01318359 C421.27640726 846.59844005 422.91547151 844.16864962 424.5546875 841.73828125 C431.81724302 830.98988375 439.19536285 820.3618897 447 810 C447.51272461 809.31599121 448.02544922 808.63198242 448.55371094 807.92724609 C454.95201121 799.40578613 461.49591937 791.06704625 468.4453125 782.98828125 C470.88679229 780.13242186 473.26306639 777.23426908 475.625 774.3125 C479.91347983 769.04728455 484.42359771 764.01490773 489 759 C490.45933594 757.37590033 491.91766132 755.75089209 493.375 754.125 C500.51777256 746.18996151 507.75623607 738.34273149 515 730.5 C525.33848984 719.38895066 525.33848984 719.38895066 535.4375 708.0625 C539.05970722 703.88168733 542.82776767 699.83991693 546.59082031 695.78637695 C549.34242112 692.81642945 552.05069917 689.82319444 554.6875 686.75 C557.80986902 683.13382566 561.16567976 679.79448979 564.59375 676.46875 C566.51204193 674.5006323 568.2939872 672.51119548 570.07836914 670.42602539 C574.24049587 665.65553124 578.67158005 661.18446107 583.15234375 656.71484375 C584.01130753 655.85492325 584.8702713 654.99500275 585.75526428 654.10902405 C587.56177015 652.30184139 589.36952462 650.49590608 591.1784668 648.69116211 C593.9293681 645.94561607 596.67489221 643.19477454 599.41992188 640.44335938 C601.18457532 638.6793668 602.94953897 636.9156845 604.71484375 635.15234375 C605.93239601 633.93175514 605.93239601 633.93175514 607.17454529 632.68650818 C611.435987 628.44234038 615.77055885 624.34877719 620.33457947 620.43074036 C622.47923789 618.58829318 624.54815303 616.66825138 626.625 614.75 C631.74617657 610.12442116 637.13117442 605.89975476 642.58203125 601.67578125 C645.49140402 599.41578626 648.31244551 597.0673538 651.125 594.6875 C678.83659102 571.96642976 712.65929484 551.69156241 748 544 C748.99128906 543.77570312 749.98257813 543.55140625 751.00390625 543.3203125 C772.7102293 539.18847004 798.47278847 540.75114733 817.25 553.25 C836.37187761 567.69970363 844.70658596 588.85132722 848 612 C848.0942627 612.65371582 848.18852539 613.30743164 848.28564453 613.98095703 C856.9563851 681.22185215 826.45695352 748.77220884 803 810 C802.67960754 810.83633972 802.35921509 811.67267944 802.02911377 812.53436279 C786.80337562 852.22597465 770.87434675 891.65267928 755.15429688 931.15039062 C717.9465147 1024.1289246 717.9465147 1024.1289246 686 1119 C685.78833191 1119.69498596 685.57666382 1120.38997192 685.35858154 1121.10601807 C674.20318179 1157.90085347 667.59519449 1196.00908337 662 1234 C661.87945251 1234.81674194 661.75890503 1235.63348389 661.63470459 1236.47497559 C650.95669746 1309.13173577 644.87680448 1382.29702824 640.859375 1455.59375 C639.59904616 1478.576532 638.20158754 1501.52836774 635.9375 1524.4375 C629.05174747 1583.12240414 629.05174747 1583.12240414 649.09765625 1636.76953125 C660.45813279 1650.13361917 674.05404034 1655.18670342 691.125 1657.2578125 C706.1300583 1658.11037263 720.35789695 1651.16970224 731.3125 1641.5 C732.88350949 1640.00891468 734.44682498 1638.50965348 736 1637 C736.60199219 1636.45988281 737.20398438 1635.91976563 737.82421875 1635.36328125 C772.99028417 1602.82032561 784.31602267 1544.64671436 796.26147461 1500.21923828 C802.88233947 1475.60329318 810.22248052 1451.27399846 818 1427 C818.45469666 1425.57723755 818.45469666 1425.57723755 818.9185791 1424.12573242 C827.235423 1398.10408371 835.95058024 1372.24251388 845.02684021 1346.47662354 C847.47061547 1339.53008062 849.88029725 1332.5721686 852.27734375 1325.609375 C860.26548802 1302.41377003 868.37645253 1279.27021389 876.69262695 1256.19006348 C884.5950615 1234.24757754 892.24023551 1212.22068056 899.83399963 1190.1697998 C902.73731661 1181.74526416 905.67626798 1173.33354155 908.62426758 1164.92456055 C923.38025981 1122.83152696 937.89949636 1080.64157486 951 1038 C951.3003717 1037.02430054 951.60074341 1036.04860107 951.91021729 1035.04333496 C959.25759559 1011.1377729 966.15229061 987.15876696 972.046875 962.8515625 C972.45233771 961.18929406 972.45233771 961.18929406 972.86599159 959.49344444 C979.60063453 931.87170128 985.96804889 904.16521416 992.28701645 876.44612581 C993.37637572 871.66991897 994.47149594 866.89505753 995.56958008 862.12084961 C1002.39095048 832.45878117 1009.0683243 802.78892771 1014.81620789 772.89533997 C1022.96619314 730.68652729 1038.80392076 687.58122049 1069 656 C1069.60972656 655.32710937 1070.21945312 654.65421875 1070.84765625 653.9609375 C1088.3857074 635.26857725 1114.26339142 624.80351522 1139.62890625 623.77734375 C1172.73771624 622.94127906 1202.62831543 634.89255593 1226.7734375 657.609375 C1228.0914161 658.95114382 1229.39018842 660.31262274 1230.65234375 661.70703125 C1231.92926472 663.23077137 1231.92926472 663.23077137 1234 663 C1234.4021875 663.89912109 1234.4021875 663.89912109 1234.8125 664.81640625 C1236.01705017 667.03135212 1237.14541655 668.25678375 1239 669.9375 C1254.83429062 685.44665118 1266.94839826 706.40494023 1277 726 C1277.49854492 726.97114746 1277.99708984 727.94229492 1278.51074219 728.94287109 C1300.96954648 773.15736209 1315.43248636 820.48120511 1319 870 C1319.07057617 870.95519531 1319.14115234 871.91039062 1319.21386719 872.89453125 C1323.99958816 942.0722545 1316.40063067 1012.42037562 1308 1081 C1307.80694275 1082.57893036 1307.80694275 1082.57893036 1307.60998535 1084.1897583 C1298.1089687 1161.57126118 1284.92595385 1238.50837912 1272.10398865 1315.39333534 C1253.32853754 1427.87971252 1253.32853754 1427.87971252 1239 1541 C1238.8613855 1542.29765289 1238.8613855 1542.29765289 1238.7199707 1543.621521 C1235.35763614 1575.28927117 1233.63379933 1606.7593183 1233.74205017 1638.58835602 C1233.75016436 1641.11365252 1233.75509218 1643.63893993 1233.75939941 1646.16424561 C1233.81502352 1674.60453715 1234.41101213 1702.98050074 1235.82287598 1731.38867188 C1236.00796892 1735.16247595 1236.18403132 1738.93662329 1236.35839844 1742.7109375 C1241.48869914 1853.24250114 1250.57685052 1963.59198755 1277.62890625 2260.93359375 C1277.74352392 2262.10789444 1277.85814159 2263.28219513 1277.97623253 2264.49208069 C1278.29796752 2267.78572589 1278.62059966 2271.07928175 1278.94360352 2274.37280273 C1279.0365312 2275.32426147 1279.12945889 2276.2757202 1279.22520256 2277.25601101 C1279.47907558 2279.83780199 1279.73917737 2282.41890348 1280 2285 C1280.08003328 2285.83644011 1280.16006657 2286.67288023 1280.2425251 2287.53466702 C1280.32279379 2288.33057279 1280.40306248 2289.12647856 1280.48576355 2289.94650269 C1280.55414523 2290.6455113 1280.62252691 2291.34451992 1280.69298077 2292.06471062 C1281.20055598 2295.26420044 1282.5039558 2297.93151984 1283.921875 2300.82421875 C1284.2177652 2301.43932312 1284.5136554 2302.05442749 1284.81851196 2302.68817139 C1285.45372377 2304.0063178 1286.09467246 2305.32171279 1286.74090576 2306.63449097 C1288.49081481 2310.19469272 1290.19131232 2313.77851586 1291.8984375 2317.359375 C1292.24762238 2318.08914047 1292.59680725 2318.81890594 1292.95657349 2319.57078552 C1298.67252939 2331.54992004 1303.84410657 2343.77180256 1309 2356 C1309.3267572 2356.7748877 1309.6535144 2357.54977539 1309.99017334 2358.34814453 C1319.09523239 2379.96440222 1328.0184314 2401.63964479 1336.32275391 2423.57763672 C1337.53136051 2426.76955574 1338.74863068 2429.95804479 1339.97021484 2433.14501953 C1357.08540794 2477.8207421 1372.97986012 2522.94747637 1386 2569 C1386.23120544 2569.81629883 1386.46241089 2570.63259766 1386.70062256 2571.47363281 C1411.08840157 2657.80026566 1434.10919874 2753.20546435 1376.63110352 2919.07885742 C1365.39283414 2938.90025287 1352.87445599 2957.93113991 1339 2976 C1338.51192871 2976.63969727 1338.02385742 2977.27939453 1337.52099609 2977.93847656 C1327.4982975 2991.04162512 1316.71200625 3003.38713675 1305.39453125 3015.3828125 C1302.73009596 3018.20911657 1300.11381927 3021.07395769 1297.51464844 3023.96020508 C1293.62812852 3028.26664941 1289.71677747 3032.32032477 1285.26953125 3036.04296875 C1282.83080524 3038.14589772 1280.50284464 3040.34174252 1278.16625977 3042.55664062 C1271.37598763 3048.9757939 1264.33936338 3054.86005108 1256.91308594 3060.52392578 C1254.86274731 3062.10589967 1252.84048348 3063.71954643 1250.8203125 3065.33984375 C1239.99482566 3073.98145235 1228.7794475 3081.71719788 1217 3089 C1215.69289063 3089.81017578 1215.69289063 3089.81017578 1214.359375 3090.63671875 C1139.6324242 3136.63093847 1051.13980358 3155.18291022 965 3135 C925.18712464 3125.33763527 888.58127713 3108.54187787 852.80981445 3088.83007812 C845.57910948 3084.84579917 838.29939171 3080.95915717 831.00527954 3077.09283447 C819.52071189 3071.00210431 808.13985734 3064.76267729 796.84765625 3058.3203125 C788.83770281 3053.75473653 780.76280926 3049.30536212 772.69262695 3044.84741211 C771.60296631 3044.24421143 770.51330566 3043.64101074 769.390625 3043.01953125 C768.42157227 3042.48432861 767.45251953 3041.94912598 766.45410156 3041.39770508 C764.59285288 3040.33765248 762.78221176 3039.18814117 761 3038 C755.87525008 3038.3258601 751.43495769 3039.7773065 746.7265625 3041.7109375 C745.67836586 3042.12989288 745.67836586 3042.12989288 744.60899353 3042.55731201 C743.08486571 3043.16727466 741.56209975 3043.78064882 740.04055786 3044.39703369 C735.78502949 3046.11993317 731.51839333 3047.81505184 727.25390625 3049.515625 C725.88989937 3050.06085312 725.88989937 3050.06085312 724.49833679 3050.61709595 C713.88066942 3054.85741077 703.22397096 3058.99630621 692.5625 3063.125 C691.03503647 3063.71666458 691.03503647 3063.71666458 689.47671509 3064.32028198 C646.70688093 3080.87994769 603.85397489 3097.20616044 560.78710938 3112.97918701 C559.01604905 3113.62785958 557.245192 3114.27708765 555.47460938 3114.92706299 C460.94328944 3149.62734567 361.23142217 3161.70991872 266.875 3118.6875 C249.89866891 3110.7860676 233.3146239 3102.10576119 217.30371094 3092.39404297 C214.71176428 3090.82558012 212.10978124 3089.27443279 209.5078125 3087.72265625 C186.28155396 3073.80635361 163.65315694 3058.55973255 143 3041 C142.47132324 3040.55479004 141.94264648 3040.10958008 141.39794922 3039.65087891 C125.35974426 3026.14333916 109.55410624 3012.0471448 96 2996 C95.13246094 2995.01 94.26492187 2994.02 93.37109375 2993 C74.5726233 2971.50619516 58.55213321 2948.1318685 45 2923 C44.52965332 2922.12794922 44.05930664 2921.25589844 43.57470703 2920.35742188 C20.56477931 2877.18104387 8.10016488 2828.5900137 4 2780 C3.67 2780 3.34 2780 3 2780 C3 3080.63 3 3381.26 3 3691 C471.6 3691 940.2 3691 1423 3691 C1423 2473.96 1423 1256.92 1423 3 C954.4 3 485.8 3 3 3 Z " fill="#FEFEFE" transform="translate(0,0)"/>
<path d="M0 0 C363.33 0 726.66 0 1101 0 C1117.34236122 35.01934547 1117.34236122 35.01934547 1123.9375 50.5625 C1124.49304565 51.86525879 1124.49304565 51.86525879 1125.05981445 53.19433594 C1130.48502884 65.91711268 1135.79782022 78.68444801 1141 91.5 C1141.28543671 92.20222687 1141.57087341 92.90445374 1141.86495972 93.62796021 C1150.98270591 116.10502931 1159.50453924 138.8214391 1167.9375 161.5625 C1168.5857373 163.3096077 1168.5857373 163.3096077 1169.24707031 165.0920105 C1177.43592081 187.19605226 1185.16911543 209.38967166 1192.06201172 231.93383789 C1192.92480021 234.75418164 1193.79839812 237.5708885 1194.67578125 240.38671875 C1198.81580052 253.75303097 1202.54916855 267.20092836 1206.125 280.72802734 C1206.97990785 283.92486746 1207.86020114 287.11349392 1208.75 290.30078125 C1213.15766588 306.16764095 1216.80959116 322.14506136 1220.20654297 338.25146484 C1220.92938773 341.66640589 1221.66684197 345.07774916 1222.41015625 348.48828125 C1225.20767835 361.42852295 1227.62335697 374.40116841 1229.49853516 387.50830078 C1229.84112209 389.89373325 1230.19550177 392.27749414 1230.56005859 394.65966797 C1236.01532963 430.95269468 1238.67448465 471.28535773 1229 507 C1228.70528809 508.1235791 1228.41057617 509.2471582 1228.10693359 510.40478516 C1215.45952864 557.8309095 1192.67601749 600.42079344 1164 640 C1163.25492188 641.03125 1162.50984375 642.0625 1161.7421875 643.125 C1151.9543313 656.41625861 1141.26565119 668.94837314 1130 681 C1129.081164 682.01888119 1128.16453995 683.03976096 1127.25 684.0625 C1110.67492718 702.50899796 1091.78017587 719.06790645 1072 734 C1071.33162109 734.50499023 1070.66324219 735.00998047 1069.97460938 735.53027344 C1043.83166529 755.14351634 1015.32139714 770.8270811 985 783 C984.33097656 783.2774707 983.66195313 783.55494141 982.97265625 783.84082031 C966.79708086 790.54756451 949.5620211 794.80898022 932.4375 798.3125 C931.7269043 798.45961426 931.01630859 798.60672852 930.28417969 798.75830078 C914.05460084 801.89064613 897.98660474 802.36855651 881.5 802.3125 C880.39127533 802.31067719 879.28255066 802.30885437 878.14022827 802.30697632 C862.23750632 802.26289264 846.67133152 801.95248472 831 799 C830.0910498 798.83902832 829.18209961 798.67805664 828.24560547 798.51220703 C816.35646994 796.36312037 804.80265608 793.2033292 793.25 789.6875 C792.11530273 789.34509277 790.98060547 789.00268555 789.81152344 788.64990234 C772.7772214 783.2935553 756.68502389 775.60573615 740.6875 767.75 C739.84070679 767.33614044 738.99391357 766.92228088 738.12145996 766.49588013 C725.67091819 760.40721439 713.41902698 754.0689324 701.32958984 747.28808594 C697.44517584 745.14030054 693.5018016 743.10726894 689.5625 741.0625 C681.52913141 736.87378682 673.64301491 732.44771439 665.77124023 727.96386719 C658.28298958 723.70416252 650.74089915 719.55368234 643.1472168 715.48486328 C641.48242006 714.58625606 639.84047135 713.64406818 638.22372437 712.66163635 C635.5735536 711.29563244 633.60988991 710.59716664 630.78648376 709.87019348 C625.32521479 708.11909709 621.18103949 705.90484034 618 701 C614.85861957 689.48924107 615.97096769 676.8636062 616.27630305 665.05232763 C616.38295241 660.23076843 616.39258958 655.40901296 616.41273499 650.5864563 C616.46546868 641.46550554 616.60481043 632.34803995 616.77567631 623.22862065 C616.96603593 612.84213979 617.05924498 602.45548778 617.14449871 592.06769538 C617.32195168 570.70980262 617.62419013 549.3552442 618 528 C608.43 528 598.86 528 589 528 C589 584.43 589 640.86 589 699 C576.62508611 704.62496086 576.62508611 704.62496086 572.34399414 706.26977539 C571.36935211 706.64611618 570.39471008 707.02245697 569.39053345 707.41020203 C568.36575897 707.80206192 567.3409845 708.19392181 566.28515625 708.59765625 C565.17804291 709.02411942 564.07092957 709.45058258 562.93026733 709.88996887 C559.30890926 711.28403789 555.68575205 712.67336175 552.0625 714.0625 C549.49659133 715.0483804 546.9310324 716.03516943 544.36547852 717.02197266 C540.42301883 718.53809711 536.48037476 720.05373675 532.53703308 721.56756592 C524.33048697 724.71807528 516.12826654 727.87958884 507.9296875 731.05078125 C465.76502118 747.34991388 423.5187311 763.50312495 380.9375 778.6875 C380.10571228 778.98419586 379.27392456 779.28089172 378.41693115 779.58657837 C344.15278779 791.78342494 309.99173009 801.30950985 273.6652832 804.69042969 C271.0470549 804.94552333 271.0470549 804.94552333 268.70996094 805.5234375 C264.83576007 806.20473841 261.01674961 806.18227248 257.08984375 806.203125 C256.2178685 806.21004868 255.34589325 806.21697235 254.44749451 806.22410583 C251.61078432 806.24145694 248.77426093 806.24770628 245.9375 806.25 C244.9713678 806.25133942 244.0052356 806.25267883 243.00982666 806.25405884 C226.82359941 806.24919125 211.03056436 805.38938714 195 803 C194.16984375 802.88253418 193.3396875 802.76506836 192.484375 802.64404297 C181.39477953 801.04619228 170.70638688 798.26754794 160 795 C159.1961084 794.75797852 158.3922168 794.51595703 157.56396484 794.26660156 C123.42928083 783.86352273 92.34540638 766.44395222 62 748 C61.20239258 747.51934082 60.40478516 747.03868164 59.58300781 746.54345703 C38.44872743 733.79433997 18.67559876 719.11081653 0 703 C-0.73992187 702.36191406 -1.47984375 701.72382813 -2.2421875 701.06640625 C-4.17163447 699.38879473 -6.08690808 697.6962232 -8 696 C-9.07894531 695.06027344 -9.07894531 695.06027344 -10.1796875 694.1015625 C-20.74378815 684.78437209 -30.97413481 674.82694486 -40 664 C-40.82628906 663.03964844 -41.65257813 662.07929688 -42.50390625 661.08984375 C-65.85468504 633.92365919 -84.53454194 603.77362739 -99 571 C-99.51554443 569.83452637 -99.51554443 569.83452637 -100.04150391 568.64550781 C-106.07558703 554.7991134 -110.213948 540.60129342 -114 526 C-114.23315918 525.13358887 -114.46631836 524.26717773 -114.70654297 523.37451172 C-117.85532922 511.66084178 -119.93800754 499.85555356 -121.75 487.875 C-121.8570929 487.16762695 -121.96418579 486.46025391 -122.07452393 485.73144531 C-123.95203693 473.20837892 -125.15282541 460.91888519 -125.23828125 448.25 C-125.24802979 447.05020004 -125.25777832 445.85040009 -125.26782227 444.61424255 C-125.29279786 440.74279136 -125.30547635 436.87152429 -125.3125 433 C-125.31379787 432.3406609 -125.31509575 431.68132179 -125.31643295 431.00200272 C-125.34866489 409.39843606 -124.57927533 388.32603596 -121 367 C-120.80212891 365.81341797 -120.60425781 364.62683594 -120.40039062 363.40429688 C-119.11068837 355.89564198 -117.60767662 348.44621184 -116 341 C-115.70440186 339.58122559 -115.70440186 339.58122559 -115.40283203 338.13378906 C-112.41942233 323.82037799 -108.47799701 309.91351695 -104 296 C-103.71366699 295.10394043 -103.42733398 294.20788086 -103.13232422 293.28466797 C-99.99077554 283.49760456 -96.6327003 273.8034194 -93 264.1875 C-92.55636108 263.00776611 -92.55636108 263.00776611 -92.10375977 261.80419922 C-90.42936093 257.44353461 -88.6302063 253.16981397 -86.69451904 248.91824341 C-81.77042585 238.01603398 -77.9127578 226.76314065 -74.01080322 215.46310425 C-72.04986821 209.78529699 -70.07170746 204.11350368 -68.09373856 198.44161415 C-67.63976809 197.13954957 -67.18603106 195.83740359 -66.73252487 194.53517723 C-61.95068623 180.80448211 -57.04960749 167.11760705 -52.125 153.4375 C-38.65781555 115.97763792 -25.64126881 78.37720526 -12.90020752 40.66418457 C-12.07463142 38.22087337 -11.24814386 35.77787269 -10.42138672 33.33496094 C-9.15094503 29.57914179 -7.88675847 25.82124626 -6.625 22.0625 C-6.28621826 21.05920654 -5.94743652 20.05591309 -5.59838867 19.0222168 C-3.49304064 12.71387453 -1.75612764 6.43913469 0 0 Z " fill="#FEFEFE" transform="translate(157,2312)"/>
<path d="M0 0 C470.58 0 941.16 0 1426 0 C1426 1219.02 1426 2438.04 1426 3694 C955.42 3694 484.84 3694 0 3694 C0 2474.98 0 1255.96 0 0 Z M3 3 C3 896.31 3 1789.62 3 2710 C3.33 2710 3.66 2710 4 2710 C4.06469482 2709.33919434 4.12938965 2708.67838867 4.19604492 2707.99755859 C9.6621661 2653.24250778 21.94819955 2598.65788295 44.65258789 2548.31835938 C52.03128061 2531.73017235 57.43823705 2514.39251833 63.16690063 2497.18637085 C65.59203112 2489.91213631 68.03610225 2482.64422028 70.47671127 2475.37516785 C71.37371152 2472.70297526 72.26990085 2470.03051163 73.16604614 2467.35803223 C77.18738884 2455.37312843 81.28652317 2443.41883457 85.5 2431.5 C90.2347224 2418.08877655 94.83073593 2404.63297917 99.375 2391.15625 C99.80508204 2389.88095901 99.80508204 2389.88095901 100.24385262 2388.57990456 C103.23496716 2379.70852384 106.22057275 2370.83530936 109.197896 2361.9592905 C119.94772973 2329.91875726 119.94772973 2329.91875726 124.44140625 2317.70703125 C135.882117 2286.55067172 143.86881143 2254.5454595 151.90435791 2222.38043213 C152.96352145 2218.1419752 154.0306117 2213.90554239 155.09912109 2209.66943359 C169.69911046 2151.74197313 183.0173417 2093.50117985 195.35467529 2035.05084229 C196.00691643 2031.96730183 196.66330024 2028.88466908 197.32080078 2025.80224609 C205.52173831 1987.32199067 212.92857499 1948.70161944 220 1910 C220.12393631 1909.32178444 220.24787262 1908.64356888 220.37556458 1907.94480133 C236.24866314 1821.00358601 248.8200871 1733.55954705 264.984375 1467.1953125 C264.98153118 1464.9241791 264.97870849 1462.65304568 264.97590637 1460.38191223 C264.9618171 1450.11178578 264.94118285 1439.84185387 264.89093399 1429.57183456 C264.75680192 1400.65561918 265.3358764 1371.8707343 267 1343 C267.07352692 1341.7205954 267.14705383 1340.4411908 267.22280884 1339.12301636 C267.62993193 1332.30390226 268.12228282 1325.49522854 268.6875 1318.6875 C268.76859009 1317.69068207 268.84968018 1316.69386414 268.93322754 1315.6668396 C272.40552804 1273.50733799 278.14422839 1231.56278087 286 1190 C286.16888733 1189.10571289 286.33777466 1188.21142578 286.51177979 1187.29003906 C303.13719423 1099.80921251 331.17872626 1015.19906821 370.38671875 935.28955078 C371.81737888 932.37237243 373.23800351 929.45056796 374.65625 926.52734375 C387.67014297 899.88965376 402.73270376 873.41178174 419.61425781 849.01318359 C421.27640726 846.59844005 422.91547151 844.16864962 424.5546875 841.73828125 C431.81724302 830.98988375 439.19536285 820.3618897 447 810 C447.51272461 809.31599121 448.02544922 808.63198242 448.55371094 807.92724609 C454.95201121 799.40578613 461.49591937 791.06704625 468.4453125 782.98828125 C470.88679229 780.13242186 473.26306639 777.23426908 475.625 774.3125 C479.91347983 769.04728455 484.42359771 764.01490773 489 759 C490.45933594 757.37590033 491.91766132 755.75089209 493.375 754.125 C500.51777256 746.18996151 507.75623607 738.34273149 515 730.5 C525.33848984 719.38895066 525.33848984 719.38895066 535.4375 708.0625 C539.05970722 703.88168733 542.82776767 699.83991693 546.59082031 695.78637695 C549.34242112 692.81642945 552.05069917 689.82319444 554.6875 686.75 C557.80986902 683.13382566 561.16567976 679.79448979 564.59375 676.46875 C566.51204193 674.5006323 568.2939872 672.51119548 570.07836914 670.42602539 C574.24049587 665.65553124 578.67158005 661.18446107 583.15234375 656.71484375 C584.01130753 655.85492325 584.8702713 654.99500275 585.75526428 654.10902405 C587.56177015 652.30184139 589.36952462 650.49590608 591.1784668 648.69116211 C593.9293681 645.94561607 596.67489221 643.19477454 599.41992188 640.44335938 C601.18457532 638.6793668 602.94953897 636.9156845 604.71484375 635.15234375 C605.93239601 633.93175514 605.93239601 633.93175514 607.17454529 632.68650818 C611.435987 628.44234038 615.77055885 624.34877719 620.33457947 620.43074036 C622.47923789 618.58829318 624.54815303 616.66825138 626.625 614.75 C631.74617657 610.12442116 637.13117442 605.89975476 642.58203125 601.67578125 C645.49140402 599.41578626 648.31244551 597.0673538 651.125 594.6875 C678.83659102 571.96642976 712.65929484 551.69156241 748 544 C748.99128906 543.77570312 749.98257813 543.55140625 751.00390625 543.3203125 C772.7102293 539.18847004 798.47278847 540.75114733 817.25 553.25 C836.37187761 567.69970363 844.70658596 588.85132722 848 612 C848.0942627 612.65371582 848.18852539 613.30743164 848.28564453 613.98095703 C856.9563851 681.22185215 826.45695352 748.77220884 803 810 C802.67960754 810.83633972 802.35921509 811.67267944 802.02911377 812.53436279 C786.80337562 852.22597465 770.87434675 891.65267928 755.15429688 931.15039062 C717.9465147 1024.1289246 717.9465147 1024.1289246 686 1119 C685.78833191 1119.69498596 685.57666382 1120.38997192 685.35858154 1121.10601807 C674.20318179 1157.90085347 667.59519449 1196.00908337 662 1234 C661.87945251 1234.81674194 661.75890503 1235.63348389 661.63470459 1236.47497559 C650.95669746 1309.13173577 644.87680448 1382.29702824 640.859375 1455.59375 C639.59904616 1478.576532 638.20158754 1501.52836774 635.9375 1524.4375 C629.05174747 1583.12240414 629.05174747 1583.12240414 649.09765625 1636.76953125 C660.45813279 1650.13361917 674.05404034 1655.18670342 691.125 1657.2578125 C706.1300583 1658.11037263 720.35789695 1651.16970224 731.3125 1641.5 C732.88350949 1640.00891468 734.44682498 1638.50965348 736 1637 C736.60199219 1636.45988281 737.20398438 1635.91976563 737.82421875 1635.36328125 C772.99028417 1602.82032561 784.31602267 1544.64671436 796.26147461 1500.21923828 C802.88233947 1475.60329318 810.22248052 1451.27399846 818 1427 C818.45469666 1425.57723755 818.45469666 1425.57723755 818.9185791 1424.12573242 C827.235423 1398.10408371 835.95058024 1372.24251388 845.02684021 1346.47662354 C847.47061547 1339.53008062 849.88029725 1332.5721686 852.27734375 1325.609375 C860.26548802 1302.41377003 868.37645253 1279.27021389 876.69262695 1256.19006348 C884.5950615 1234.24757754 892.24023551 1212.22068056 899.83399963 1190.1697998 C902.73731661 1181.74526416 905.67626798 1173.33354155 908.62426758 1164.92456055 C923.38025981 1122.83152696 937.89949636 1080.64157486 951 1038 C951.3003717 1037.02430054 951.60074341 1036.04860107 951.91021729 1035.04333496 C959.25759559 1011.1377729 966.15229061 987.15876696 972.046875 962.8515625 C972.45233771 961.18929406 972.45233771 961.18929406 972.86599159 959.49344444 C979.60063453 931.87170128 985.96804889 904.16521416 992.28701645 876.44612581 C993.37637572 871.66991897 994.47149594 866.89505753 995.56958008 862.12084961 C1002.39095048 832.45878117 1009.0683243 802.78892771 1014.81620789 772.89533997 C1022.96619314 730.68652729 1038.80392076 687.58122049 1069 656 C1069.60972656 655.32710937 1070.21945312 654.65421875 1070.84765625 653.9609375 C1088.3857074 635.26857725 1114.26339142 624.80351522 1139.62890625 623.77734375 C1172.73771624 622.94127906 1202.62831543 634.89255593 1226.7734375 657.609375 C1228.0914161 658.95114382 1229.39018842 660.31262274 1230.65234375 661.70703125 C1231.92926472 663.23077137 1231.92926472 663.23077137 1234 663 C1234.4021875 663.89912109 1234.4021875 663.89912109 1234.8125 664.81640625 C1236.01705017 667.03135212 1237.14541655 668.25678375 1239 669.9375 C1254.83429062 685.44665118 1266.94839826 706.40494023 1277 726 C1277.49854492 726.97114746 1277.99708984 727.94229492 1278.51074219 728.94287109 C1300.96954648 773.15736209 1315.43248636 820.48120511 1319 870 C1319.07057617 870.95519531 1319.14115234 871.91039062 1319.21386719 872.89453125 C1323.99958816 942.0722545 1316.40063067 1012.42037562 1308 1081 C1307.80694275 1082.57893036 1307.80694275 1082.57893036 1307.60998535 1084.1897583 C1298.1089687 1161.57126118 1284.92595385 1238.50837912 1272.10398865 1315.39333534 C1253.32853754 1427.87971252 1253.32853754 1427.87971252 1239 1541 C1238.8613855 1542.29765289 1238.8613855 1542.29765289 1238.7199707 1543.621521 C1235.35763614 1575.28927117 1233.63379933 1606.7593183 1233.74205017 1638.58835602 C1233.75016436 1641.11365252 1233.75509218 1643.63893993 1233.75939941 1646.16424561 C1233.81502352 1674.60453715 1234.41101213 1702.98050074 1235.82287598 1731.38867188 C1236.00796892 1735.16247595 1236.18403132 1738.93662329 1236.35839844 1742.7109375 C1241.48869914 1853.24250114 1250.57685052 1963.59198755 1277.62890625 2260.93359375 C1277.74352392 2262.10789444 1277.85814159 2263.28219513 1277.97623253 2264.49208069 C1278.29796752 2267.78572589 1278.62059966 2271.07928175 1278.94360352 2274.37280273 C1279.0365312 2275.32426147 1279.12945889 2276.2757202 1279.22520256 2277.25601101 C1279.47907558 2279.83780199 1279.73917737 2282.41890348 1280 2285 C1280.08003328 2285.83644011 1280.16006657 2286.67288023 1280.2425251 2287.53466702 C1280.32279379 2288.33057279 1280.40306248 2289.12647856 1280.48576355 2289.94650269 C1280.55414523 2290.6455113 1280.62252691 2291.34451992 1280.69298077 2292.06471062 C1281.20055598 2295.26420044 1282.5039558 2297.93151984 1283.921875 2300.82421875 C1284.2177652 2301.43932312 1284.5136554 2302.05442749 1284.81851196 2302.68817139 C1285.45372377 2304.0063178 1286.09467246 2305.32171279 1286.74090576 2306.63449097 C1288.49081481 2310.19469272 1290.19131232 2313.77851586 1291.8984375 2317.359375 C1292.24762238 2318.08914047 1292.59680725 2318.81890594 1292.95657349 2319.57078552 C1298.67252939 2331.54992004 1303.84410657 2343.77180256 1309 2356 C1309.3267572 2356.7748877 1309.6535144 2357.54977539 1309.99017334 2358.34814453 C1319.09523239 2379.96440222 1328.0184314 2401.63964479 1336.32275391 2423.57763672 C1337.53136051 2426.76955574 1338.74863068 2429.95804479 1339.97021484 2433.14501953 C1357.08540794 2477.8207421 1372.97986012 2522.94747637 1386 2569 C1386.23120544 2569.81629883 1386.46241089 2570.63259766 1386.70062256 2571.47363281 C1411.08840157 2657.80026566 1434.10919874 2753.20546435 1376.63110352 2919.07885742 C1365.39283414 2938.90025287 1352.87445599 2957.93113991 1339 2976 C1338.51192871 2976.63969727 1338.02385742 2977.27939453 1337.52099609 2977.93847656 C1327.4982975 2991.04162512 1316.71200625 3003.38713675 1305.39453125 3015.3828125 C1302.73009596 3018.20911657 1300.11381927 3021.07395769 1297.51464844 3023.96020508 C1293.62812852 3028.26664941 1289.71677747 3032.32032477 1285.26953125 3036.04296875 C1282.83080524 3038.14589772 1280.50284464 3040.34174252 1278.16625977 3042.55664062 C1271.37598763 3048.9757939 1264.33936338 3054.86005108 1256.91308594 3060.52392578 C1254.86274731 3062.10589967 1252.84048348 3063.71954643 1250.8203125 3065.33984375 C1239.99482566 3073.98145235 1228.7794475 3081.71719788 1217 3089 C1215.69289063 3089.81017578 1215.69289063 3089.81017578 1214.359375 3090.63671875 C1139.6324242 3136.63093847 1051.13980358 3155.18291022 965 3135 C925.18712464 3125.33763527 888.58127713 3108.54187787 852.80981445 3088.83007812 C845.57910948 3084.84579917 838.29939171 3080.95915717 831.00527954 3077.09283447 C819.52071189 3071.00210431 808.13985734 3064.76267729 796.84765625 3058.3203125 C788.83770281 3053.75473653 780.76280926 3049.30536212 772.69262695 3044.84741211 C771.60296631 3044.24421143 770.51330566 3043.64101074 769.390625 3043.01953125 C768.42157227 3042.48432861 767.45251953 3041.94912598 766.45410156 3041.39770508 C764.59285288 3040.33765248 762.78221176 3039.18814117 761 3038 C755.87525008 3038.3258601 751.43495769 3039.7773065 746.7265625 3041.7109375 C745.67836586 3042.12989288 745.67836586 3042.12989288 744.60899353 3042.55731201 C743.08486571 3043.16727466 741.56209975 3043.78064882 740.04055786 3044.39703369 C735.78502949 3046.11993317 731.51839333 3047.81505184 727.25390625 3049.515625 C725.88989937 3050.06085312 725.88989937 3050.06085312 724.49833679 3050.61709595 C713.88066942 3054.85741077 703.22397096 3058.99630621 692.5625 3063.125 C691.03503647 3063.71666458 691.03503647 3063.71666458 689.47671509 3064.32028198 C646.70688093 3080.87994769 603.85397489 3097.20616044 560.78710938 3112.97918701 C559.01604905 3113.62785958 557.245192 3114.27708765 555.47460938 3114.92706299 C460.94328944 3149.62734567 361.23142217 3161.70991872 266.875 3118.6875 C249.89866891 3110.7860676 233.3146239 3102.10576119 217.30371094 3092.39404297 C214.71176428 3090.82558012 212.10978124 3089.27443279 209.5078125 3087.72265625 C186.28155396 3073.80635361 163.65315694 3058.55973255 143 3041 C142.47132324 3040.55479004 141.94264648 3040.10958008 141.39794922 3039.65087891 C125.35974426 3026.14333916 109.55410624 3012.0471448 96 2996 C95.13246094 2995.01 94.26492187 2994.02 93.37109375 2993 C74.5726233 2971.50619516 58.55213321 2948.1318685 45 2923 C44.52965332 2922.12794922 44.05930664 2921.25589844 43.57470703 2920.35742188 C20.56477931 2877.18104387 8.10016488 2828.5900137 4 2780 C3.67 2780 3.34 2780 3 2780 C3 3080.63 3 3381.26 3 3691 C471.6 3691 940.2 3691 1423 3691 C1423 2473.96 1423 1256.92 1423 3 C954.4 3 485.8 3 3 3 Z M652.47460938 630.71630859 C651.24146326 631.78979904 650.00405613 632.85839218 648.765625 633.92578125 C642.72649734 639.15386904 636.86232632 644.57565408 631 650 C630.39623535 650.55719727 629.7924707 651.11439453 629.17041016 651.68847656 C621.29149894 658.97034724 613.53780989 666.36470631 605.9375 673.9375 C605.24760986 674.62279785 604.55771973 675.3080957 603.84692383 676.01416016 C599.90929292 679.96376537 596.17283932 684.03013912 592.52954102 688.25219727 C590.21662427 690.89516151 587.71198631 693.31256494 585.1875 695.75 C583.29961823 697.69182125 581.52352085 699.67377187 579.75 701.71875 C575.30405339 706.83775036 570.63200133 711.73186067 565.9609375 716.64453125 C562.08456591 720.73791979 558.3060876 724.89252967 554.61230469 729.15136719 C552.32876646 731.76962149 549.98061922 734.3213107 547.625 736.875 C544.24842625 740.5429268 540.88933908 744.22424041 537.5625 747.9375 C533.10602289 752.90238091 528.58051938 757.80134952 524.05078125 762.69921875 C520.21536054 766.84664064 516.39149053 771.00449901 512.58203125 775.17578125 C510.96041362 776.94950219 509.33357161 778.71847543 507.69921875 780.48046875 C502.95397825 785.64713381 498.5770914 791.0121623 494.2902832 796.55737305 C491.0524584 800.72459935 487.66834677 804.72245152 484.1875 808.6875 C476.90650608 817.04548666 470.45389804 825.99744062 464 835 C463.46310547 835.74749512 462.92621094 836.49499023 462.37304688 837.26513672 C437.40112608 872.11597413 414.96911016 908.9273971 396.22021484 947.50634766 C394.73206336 950.54755998 393.21797986 953.5755188 391.70703125 956.60546875 C370.99302107 998.3558551 352.77037561 1042.6994571 340.72070312 1087.77636719 C339.48963028 1092.3605486 338.06742233 1096.82860454 336.5 1101.3125 C334.16446771 1108.13606143 332.45574046 1115.03124155 330.875 1122.06567383 C329.76622903 1126.96099326 328.5043788 1131.77313176 327.08984375 1136.58984375 C324.75473123 1144.65595054 322.91706448 1152.80023753 321.125 1161 C320.95391724 1161.77735504 320.78283447 1162.55471008 320.60656738 1163.35562134 C315.3790644 1187.11680607 310.48940276 1210.91342814 307 1235 C306.89042969 1235.75474609 306.78085937 1236.50949219 306.66796875 1237.28710938 C299.71829806 1285.120819 299.71829806 1285.120819 296.2109375 1333.30078125 C296.03410748 1337.89140779 295.66548744 1342.45938534 295.28501034 1347.03710079 C293.29609753 1371.20255613 292.85130408 1395.33462605 292.95540047 1419.57356453 C292.97431464 1423.9940573 292.98345187 1428.41454336 292.99131775 1432.83506775 C293.01353306 1444.60091129 293.04512451 1456.36672165 293.08751291 1468.13251019 C293.2491727 1513.12137727 292.60508347 1557.77768956 288.83207035 1602.63647652 C288.2362569 1609.73368691 287.76020822 1616.81940746 287.5 1623.9375 C286.77363752 1642.87774417 284.46494961 1661.80365476 282.12109375 1680.60131836 C281.29983773 1687.25656129 280.60716919 1693.91513531 279.97680664 1700.59106445 C278.65261452 1714.59846248 276.90429251 1728.49400019 274.91333008 1742.41894531 C273.24602864 1754.09170296 271.74210725 1765.77782644 270.34399414 1777.48583984 C269.57733147 1783.8065384 268.66917235 1790.04711149 267.48022461 1796.30151367 C266.7897811 1800.18126564 266.30723828 1804.08039176 265.80908203 1807.98876953 C263.77160289 1823.88294033 261.0328583 1839.62833072 258.16943359 1855.39208984 C257.84464857 1857.1806499 257.51994325 1858.96922443 257.1953125 1860.7578125 C257.02744232 1861.68201492 256.85957214 1862.60621735 256.68661499 1863.5584259 C255.24969842 1871.51535861 253.88468445 1879.48399734 252.52790451 1887.45487404 C249.57409211 1904.80347021 246.49196963 1922.12627612 243.32275391 1939.43676758 C242.77138813 1942.44927506 242.22298903 1945.46229895 241.67724609 1948.47583008 C238.49291392 1966.05601913 235.13423563 1983.56513869 231.29150391 2001.01513672 C230.04149933 2006.71965643 228.93330514 2012.44468725 227.875 2018.1875 C226.48321963 2025.67539955 224.87270995 2033.06764643 223.02734375 2040.45703125 C222.08031136 2044.4333256 221.35129422 2048.44511263 220.6171875 2052.46484375 C219.19400974 2060.21706264 217.49132794 2067.88632937 215.69876099 2075.56048584 C214.80452564 2079.39011692 213.92106312 2083.22222261 213.0390625 2087.0546875 C212.86256668 2087.82140778 212.68607086 2088.58812805 212.50422668 2089.37808228 C210.94225148 2096.19358447 209.49338653 2103.03086183 208.0625 2109.875 C204.94692324 2124.68919815 201.31866644 2139.37283889 197.69664001 2154.06925964 C194.77618098 2165.94545111 191.97442409 2177.85038933 189.17453003 2189.75547791 C181.03409903 2224.36330802 181.03409903 2224.36330802 176.48632812 2240.87451172 C174.25171752 2248.99297471 172.16391451 2257.14321775 170.125 2265.3125 C169.6770105 2267.10373291 169.6770105 2267.10373291 169.2199707 2268.93115234 C168.05667839 2273.61349722 166.94655822 2278.26720888 166 2283 C524.05 2283 882.1 2283 1251 2283 C1249.68 2269.14 1248.36 2255.28 1247 2241 C1245.9375 2227.5625 1245.9375 2227.5625 1245.4855957 2221.67626953 C1245.01112882 2215.84838732 1244.34528909 2210.04939276 1243.66796875 2204.2421875 C1241.70895888 2186.97549352 1240.16784371 2169.67264023 1238.62486649 2152.36474991 C1238.36999889 2149.50641265 1238.11435143 2146.64814586 1237.85861206 2143.78988647 C1230.10139804 2057.00593725 1223.20574625 1970.15836489 1216.69677448 1883.27289009 C1216.18555536 1876.45455355 1215.66838457 1869.63669315 1215.14746094 1862.8190918 C1212.68740151 1830.56876788 1210.68727282 1798.29975778 1209 1766 C1208.96063324 1765.2490078 1208.92126648 1764.49801559 1208.88070679 1763.72426605 C1206.74102934 1722.77567125 1205.71659882 1681.87825383 1205.68992615 1640.87223816 C1205.68752968 1637.72646474 1205.68221135 1634.58070572 1205.67663574 1631.43493652 C1205.62423321 1591.30403726 1205.62423321 1591.30403726 1207.77044678 1571.31054688 C1208.1220845 1567.77116965 1208.30912205 1564.22697808 1208.49609375 1560.67578125 C1209.02348929 1551.80574001 1210.01916935 1543.00886634 1211.0625 1534.1875 C1211.16682343 1533.29480408 1211.27114685 1532.40210815 1211.37863159 1531.48236084 C1214.38712602 1505.81908924 1217.96000989 1480.22721246 1221.49862671 1454.63278198 C1222.02241544 1450.83758529 1222.54335014 1447.04200469 1223.0637207 1443.24633789 C1223.3281321 1441.32070511 1223.3281321 1441.32070511 1223.59788513 1439.35617065 C1223.93142669 1436.92706919 1224.26444853 1434.49789628 1224.59681702 1432.06863403 C1226.79720068 1416.0700036 1229.14938372 1400.10749976 1232.24476624 1384.25613403 C1233.11592754 1379.54431495 1233.71782706 1374.80488126 1234.33374023 1370.05419922 C1235.82189215 1358.89105551 1237.63386883 1347.79588509 1239.53134155 1336.69592094 C1240.11827364 1333.26219468 1240.7007416 1329.82773436 1241.28222656 1326.39308167 C1242.11237539 1321.49179793 1242.94416773 1316.59079781 1243.77737427 1311.69003296 C1245.93553995 1298.99183477 1248.07997208 1286.29132069 1250.21875 1273.58984375 C1250.42888292 1272.34202684 1250.63901585 1271.09420994 1250.85551643 1269.8085804 C1255.36864658 1242.98352611 1259.66628997 1216.12830754 1263.73388672 1189.23207092 C1264.62497834 1183.35345943 1265.57479982 1177.4872394 1266.56785583 1171.62495422 C1267.12238802 1168.25658385 1267.57282325 1164.88690139 1268 1161.5 C1268.71458747 1156.00660885 1269.55964599 1150.55611742 1270.5 1145.09765625 C1271.25969906 1140.39108315 1271.84686088 1135.66398028 1272.4375 1130.93359375 C1272.87101228 1127.90201826 1273.3794037 1124.92708819 1273.94970703 1121.92089844 C1274.95820559 1116.40918872 1275.70805852 1110.89497309 1276.3671875 1105.33203125 C1276.54643768 1103.85521126 1276.54643768 1103.85521126 1276.72930908 1102.34855652 C1277.11443716 1099.17025135 1277.49497415 1095.99141896 1277.875 1092.8125 C1278.41029138 1088.36053609 1278.94713605 1083.90876051 1279.484375 1079.45703125 C1279.61582916 1078.36512482 1279.74728333 1077.27321838 1279.88272095 1076.14822388 C1280.59902793 1070.22248313 1281.34107478 1064.30179088 1282.140625 1058.38671875 C1284.26928332 1042.51647985 1285.81362948 1026.64452168 1287.125 1010.6875 C1287.20558655 1009.71723877 1287.2861731 1008.74697754 1287.36920166 1007.74731445 C1287.96521704 1000.50170961 1288.4988015 993.25275179 1289 986 C1289.08933807 984.72220673 1289.17867615 983.44441345 1289.27072144 982.12789917 C1290.76354196 960.44867422 1291.34892322 938.83839503 1291.31567383 917.10961914 C1291.31101746 913.81911643 1291.31809062 910.52898128 1291.33618164 907.23852539 C1291.53804924 870.10300762 1288.32189495 835.02546893 1276.79931641 799.47558594 C1276.11159629 797.34562809 1275.44639895 795.21095656 1274.79296875 793.0703125 C1269.45580346 776.1347138 1262.27053109 759.62932053 1254.00634766 743.92285156 C1252.93815148 741.88182461 1251.89614452 739.82862027 1250.85546875 737.7734375 C1245.87915856 728.03822872 1240.33644147 718.90775106 1234 710 C1233.53722656 709.34644531 1233.07445312 708.69289063 1232.59765625 708.01953125 C1213.28897459 680.9664461 1188.82061661 658.20677433 1155.0625 652.3125 C1145.87931076 651.39609026 1136.92897498 651.62971403 1128 654 C1126.97003906 654.268125 1125.94007813 654.53625 1124.87890625 654.8125 C1113.32473499 658.07869682 1104.21949164 663.41078432 1095 671 C1094.13375 671.639375 1093.2675 672.27875 1092.375 672.9375 C1075.9220628 687.22557704 1065.09203752 708.15005279 1057 728 C1056.73977051 728.62567871 1056.47954102 729.25135742 1056.21142578 729.89599609 C1051.61812362 741.02536043 1048.57858818 752.48393687 1045.70507812 764.16113281 C1045.22710354 766.08560944 1044.73577551 768.00680961 1044.23242188 769.92480469 C1042.35212862 777.15469802 1041.04333592 784.37563637 1039.875 791.75 C1036.8745525 809.85226525 1032.69960524 827.67770558 1028.56567383 845.54840088 C1027.67717399 849.3991101 1026.79915524 853.25219053 1025.921875 857.10546875 C1024.60847179 862.87208725 1023.29090488 868.63772548 1021.96875 874.40234375 C1020.62838955 880.24711348 1019.29597087 886.09363949 1017.96875 891.94140625 C1014.03224789 909.27199062 1009.97369094 926.56532168 1005.76855469 943.83300781 C1004.6436153 948.46855855 1003.53948264 953.10894919 1002.4375 957.75 C1002.23987061 958.57757812 1002.04224121 959.40515625 1001.83862305 960.2578125 C1000.74328347 964.84763724 999.66593406 969.44104775 998.60546875 974.0390625 C995.56164942 987.13175264 992.02336585 999.95916144 987.99902344 1012.78173828 C986.05391046 1019.04774007 984.18967715 1025.33838297 982.3125 1031.625 C980.87979584 1036.41812068 979.44323228 1041.21003831 978 1046 C977.70174316 1046.9912085 977.40348633 1047.98241699 977.09619141 1049.00366211 C973.80506003 1059.82354265 970.26547228 1070.56397722 966.75 1081.3125 C966.4019632 1082.37712463 966.05392639 1083.44174927 965.69534302 1084.53863525 C953.82602246 1120.83168264 941.76090223 1157.04390197 929.08691406 1193.06445312 C926.78847911 1199.59800551 924.49976342 1206.1349515 922.2109375 1212.671875 C914.70533529 1234.10118198 907.18063881 1255.5234685 899.58795166 1276.92208862 C885.58655268 1316.38743299 871.68590216 1355.88481172 858.24617004 1395.54524994 C857.57326505 1397.53073643 856.8997638 1399.51601992 856.22619629 1401.50128174 C851.5563502 1415.27160161 846.95873171 1429.05610994 842.64498901 1442.94241333 C841.68720422 1445.99785331 840.70224485 1449.04440484 839.71859741 1452.09159851 C836.40972618 1462.34657524 833.52030118 1472.70939523 830.6484375 1483.09375 C829.34658089 1487.790528 827.97584803 1492.4608917 826.5625 1497.125 C824.3595623 1504.42505747 822.5097222 1511.80998521 820.64291382 1519.20141602 C817.53501509 1531.49456467 814.04604955 1543.54319485 809.8371582 1555.51123047 C808.86523548 1558.40063852 807.99456033 1561.31372801 807.12109375 1564.234375 C797.53568592 1595.64431522 783.33117169 1626.81691719 762 1652 C761.26394531 1652.89976563 760.52789063 1653.79953125 759.76953125 1654.7265625 C745.88409465 1671.06534583 724.98503446 1683.15272945 703.43066406 1685.25 C680.4240501 1686.61083484 653.53172988 1682.15543661 635.6875 1666.5 C634.800625 1665.675 633.91375 1664.85 633 1664 C632.34 1664 631.68 1664 631 1664 C630.72414063 1663.39929687 630.44828125 1662.79859375 630.1640625 1662.1796875 C628.97203124 1659.73179419 628.97203124 1659.73179419 626.375 1657.125 C615.44292213 1644.61592312 609.70090453 1628.13135555 607 1612 C606.82863525 1611.05825928 606.65727051 1610.11651855 606.48071289 1609.14624023 C604.75753696 1598.72091133 604.72779814 1588.4777378 604.8125 1577.9375 C604.82205805 1576.08146219 604.83149725 1574.22542377 604.84082031 1572.36938477 C604.87252563 1567.24592374 604.92976813 1562.12306483 605 1557 C605.01401855 1555.91203125 605.02803711 1554.8240625 605.04248047 1553.703125 C605.19468155 1545.21752265 605.88996564 1536.82483918 606.81640625 1528.390625 C607.15101536 1525.32319092 607.48305291 1522.2554929 607.8125 1519.1875 C607.90028717 1518.37098969 607.98807434 1517.55447937 608.07852173 1516.71322632 C609.92807246 1499.19875961 610.89439798 1481.65296428 611.81562424 1464.07143021 C615.95087342 1385.30521678 620.94150492 1305.71840632 634.49023438 1225.02392578 C635.09492674 1221.43689529 635.64335014 1217.84208493 636.19140625 1214.24609375 C638.88225209 1196.77241833 641.99401765 1179.42910925 645.625 1162.125 C645.8127298 1161.22506317 646.00045959 1160.32512634 646.19387817 1159.3979187 C648.47619243 1148.50081935 650.98864016 1137.72011011 654 1127 C654.34708008 1125.75694092 654.34708008 1125.75694092 654.70117188 1124.48876953 C655.26757584 1122.48859862 655.8474498 1120.49330896 656.4375 1118.5 C656.64431396 1117.79842773 656.85112793 1117.09685547 657.06420898 1116.37402344 C658.80791283 1110.52086581 660.71304367 1104.73076519 662.69140625 1098.953125 C663.79395786 1095.68723347 664.79903882 1092.3957832 665.80078125 1089.09765625 C668.25942357 1081.07604259 670.91601231 1073.12740776 673.625 1065.1875 C673.89911713 1064.38398102 674.17323425 1063.58046204 674.45565796 1062.75259399 C686.88296566 1026.44579426 700.90736882 990.68678447 715 955 C715.37966919 954.03846008 715.75933838 953.07692017 716.1505127 952.08624268 C724.28643464 931.48776925 732.45749002 910.90321317 740.64376831 890.32470703 C790.18476533 775.99190749 790.18476533 775.99190749 820 656 C820.1045752 655.21979492 820.20915039 654.43958984 820.31689453 653.63574219 C823.2086857 630.59452957 822.40193722 603.34157716 808 584 C802.52693963 577.9176546 796.81733399 574.32077103 789 572 C788.278125 571.77570312 787.55625 571.55140625 786.8125 571.3203125 C737.97316434 558.94089756 686.50338069 601.08851039 652.47460938 630.71630859 Z M157 2312 C155.35 2317.28 153.7 2322.56 152 2328 C150.63286234 2332.26843593 149.26062302 2336.53448378 147.875 2340.796875 C147.49552719 2341.96450378 147.11605438 2343.13213257 146.7250824 2344.33514404 C145.48606375 2348.14097301 144.24416623 2351.94585147 143 2355.75 C142.78458179 2356.40872101 142.56916359 2357.06744202 142.34721756 2357.74612427 C127.5991412 2402.81648668 111.63718814 2447.46133381 95.56556702 2492.07435608 C93.07457633 2498.99521121 90.60122926 2505.92214623 88.13943481 2512.85343933 C86.42524743 2517.67973585 84.70695495 2522.50456705 82.98858643 2527.32937622 C82.17697615 2529.61176767 81.36729372 2531.89484579 80.55975342 2534.17868042 C76.82567269 2544.7364935 73.07078518 2555.21212013 68.46722412 2565.42562866 C65.29943168 2572.46921504 62.62443987 2579.67693793 60 2586.9375 C59.74331543 2587.64356384 59.48663086 2588.34962769 59.22216797 2589.0770874 C54.81706927 2601.23440973 51.01765703 2613.4902574 47.77929688 2626.01367188 C47.21665367 2628.16976578 46.63779207 2630.3216499 46.04882812 2632.47070312 C35.98637334 2669.30199157 31.66244058 2705.93114293 31.5625 2744.0625 C31.55614532 2745.30378662 31.54979065 2746.54507324 31.54324341 2747.82397461 C31.4882787 2765.08489139 32.58583803 2781.90862057 35 2799 C35.10214813 2799.73868317 35.20429626 2800.47736633 35.30953979 2801.23843384 C35.85607487 2805.13303225 36.48777586 2809.00517287 37.1875 2812.875 C37.49179932 2814.57438721 37.49179932 2814.57438721 37.80224609 2816.30810547 C40.0926551 2828.44076732 43.49045416 2840.24220051 47.09838867 2852.0402832 C47.66873118 2853.91254484 48.22768383 2855.78834716 48.77075195 2857.66870117 C50.49218084 2863.6186686 52.57829146 2869.33655961 54.9375 2875.0625 C55.32373535 2876.00005127 55.7099707 2876.93760254 56.10791016 2877.90356445 C69.06437263 2908.8760926 85.25301356 2937.48962342 106.67578125 2963.38769531 C107.8644369 2964.83494492 109.0276929 2966.30296779 110.1875 2967.7734375 C119.29460401 2979.26080733 129.67552836 2989.73580779 140 3000.125 C140.73621582 3000.8682251 140.73621582 3000.8682251 141.48730469 3001.62646484 C168.94411766 3028.96309648 202.45852628 3050.94023949 236 3070 C237.14807129 3070.65572998 237.14807129 3070.65572998 238.31933594 3071.32470703 C242.72617728 3073.83423857 247.15805447 3076.29264409 251.6171875 3078.70800781 C253.27350828 3079.60608666 254.92695669 3080.50947506 256.578125 3081.41699219 C277.67270509 3092.97785852 299.45167972 3102.42965527 322.78662109 3108.41650391 C324.75166355 3108.93453297 326.6998455 3109.51560158 328.64453125 3110.10546875 C351.88573387 3117.03798747 376.76849173 3118.2277775 400.875 3118.25 C402.31098038 3118.25250763 402.31098038 3118.25250763 403.77597046 3118.25506592 C417.02981313 3118.25645386 429.91602368 3117.82664183 442.97607422 3115.3671875 C445.92731135 3114.83176402 448.89858615 3114.49046286 451.875 3114.125 C465.78070611 3112.11453647 479.80398643 3109.25859213 493.24707031 3105.14550781 C495.97064601 3104.31419002 498.6961301 3103.49660292 501.42773438 3102.69262695 C512.46816529 3099.43399571 523.39254688 3095.94784896 534.25 3092.125 C535.46689514 3091.69831024 535.46689514 3091.69831024 536.70837402 3091.26300049 C581.42033823 3075.55204562 625.6390504 3058.34056036 669.82775879 3041.22839355 C673.0916543 3039.96450851 676.35585892 3038.70142438 679.62011719 3037.43847656 C692.7880394 3032.34308749 705.95450518 3027.2439426 719.11236572 3022.12261963 C722.23716917 3020.90779623 725.36348709 3019.69691211 728.48974609 3018.48583984 C730.61170783 3017.66127224 732.73361685 3016.83656895 734.85546875 3016.01171875 C735.85661209 3015.62482376 736.85775543 3015.23792877 737.88923645 3014.83930969 C738.80645981 3014.48201279 739.72368317 3014.12471588 740.66870117 3013.7565918 C741.88960701 3013.28300484 741.88960701 3013.28300484 743.13517761 3012.79985046 C744.97748365 3012.14622339 744.97748365 3012.14622339 746 3011 C746.0970006 3008.79774546 746.12186709 3006.59231336 746.12025452 3004.38792419 C746.12110894 3003.68878232 746.12196337 3002.98964044 746.12284368 3002.26931244 C746.12450051 2999.90925249 746.11897384 2997.54926247 746.11352539 2995.18920898 C746.11324354 2993.50435386 746.11340122 2991.81949861 746.1139679 2990.13464355 C746.11425594 2985.54599547 746.10835811 2980.9573733 746.10139394 2976.36873126 C746.09516153 2971.57875368 746.09455669 2966.78877557 746.09336853 2961.99879456 C746.09025488 2952.92170968 746.08204104 2943.84463679 746.07201904 2934.7675572 C746.06085895 2924.43641419 746.05534772 2914.10527061 746.05032361 2903.77412307 C746.03985845 2882.51607517 746.02205798 2861.25803876 746 2840 C755.57 2840 765.14 2840 775 2840 C775 2897.09 775 2954.18 775 3013 C796.30593272 3025.22126564 796.30593272 3025.22126564 817.75 3037.1875 C818.96073912 3037.85294409 820.17143098 3038.51847417 821.38208008 3039.18408203 C824.9190021 3041.12709711 828.45912449 3043.06419871 832 3045 C833.0091748 3045.55220215 834.01834961 3046.1044043 835.05810547 3046.67333984 C842.02262159 3050.47907997 849.00741921 3054.24612036 856 3058 C857.27152765 3058.68465271 858.54301003 3059.3693895 859.81445312 3060.05419922 C901.17895317 3082.31236366 941.39878113 3102.1597427 988 3111 C988.88300781 3111.16951172 989.76601563 3111.33902344 990.67578125 3111.51367188 C1006.50968427 3114.37421957 1022.46435055 3114.28613636 1038.5 3114.3125 C1039.58109039 3114.31617584 1040.66218079 3114.31985168 1041.77603149 3114.32363892 C1058.71004673 3114.35365722 1074.96767008 3113.36885015 1091.5625 3109.8125 C1092.56498779 3109.59964355 1093.56747559 3109.38678711 1094.6003418 3109.16748047 C1118.99987614 3103.81885621 1142.41734858 3095.61728806 1165 3085 C1165.77923828 3084.63567871 1166.55847656 3084.27135742 1167.36132812 3083.89599609 C1187.76465207 3074.27030123 1206.88296401 3062.42020399 1225 3049 C1225.57363281 3048.57799316 1226.14726563 3048.15598633 1226.73828125 3047.72119141 C1235.24632691 3041.43231105 1243.24312906 3034.59991575 1251.17456055 3027.60620117 C1252.42779355 3026.50348352 1253.68467155 3025.40489879 1254.94458008 3024.30981445 C1318.11316643 2969.38898739 1371.80239186 2892.10651005 1388 2809 C1388.25749023 2807.76467529 1388.51498047 2806.52935059 1388.78027344 2805.2565918 C1391.34964499 2792.17580819 1391.5532642 2779.23468079 1391.5 2765.9375 C1391.49785492 2764.20430511 1391.49785492 2764.20430511 1391.4956665 2762.43609619 C1391.43087495 2741.12846034 1389.71494207 2720.38344086 1386.37359619 2699.35357666 C1385.9992117 2696.99503386 1385.63428897 2694.63517666 1385.27099609 2692.27490234 C1382.49522813 2674.37767595 1379.03633462 2656.70618235 1374.74560547 2639.10498047 C1373.98098266 2635.92080466 1373.2527902 2632.73023326 1372.53515625 2629.53515625 C1366.26048857 2601.62154481 1358.91945815 2573.79413266 1349.57226562 2546.73901367 C1347.77056048 2541.48642646 1346.16586434 2536.19559743 1344.62109375 2530.86328125 C1342.19998261 2522.53628337 1339.51493789 2514.32197701 1336.6875 2506.125 C1336.31324387 2505.03564651 1336.31324387 2505.03564651 1335.931427 2503.92428589 C1325.74898378 2474.34085238 1314.70555696 2445.01330909 1303 2416 C1302.71958862 2415.30380554 1302.43917725 2414.60761108 1302.15026855 2413.89031982 C1294.42455233 2394.71896185 1286.50037283 2375.6393609 1278.25 2356.6875 C1277.75799103 2355.55470108 1277.75799103 2355.55470108 1277.25604248 2354.39901733 C1271.06084016 2340.15839912 1264.51020521 2326.10544463 1258 2312 C894.67 2312 531.34 2312 157 2312 Z " fill="#010101" transform="translate(0,0)"/>
<path d="M0 0 C470.58 0 941.16 0 1426 0 C1426 1219.02 1426 2438.04 1426 3694 C955.42 3694 484.84 3694 0 3694 C0 2474.98 0 1255.96 0 0 Z M3 3 C3 1220.04 3 2437.08 3 3691 C471.6 3691 940.2 3691 1423 3691 C1423 2473.96 1423 1256.92 1423 3 C954.4 3 485.8 3 3 3 Z " fill="#FDFDFD" transform="translate(0,0)"/>
</svg>
