<?xml version="1.0" encoding="UTF-8"?>
<!DOCTYPE svg PUBLIC "-//W3C//DTD SVG 1.1//EN" "http://www.w3.org/Graphics/SVG/1.1/DTD/svg11.dtd">
<svg xmlns="http://www.w3.org/2000/svg" version="1.1" width="1426px" height="3694px" style="shape-rendering:geometricPrecision; text-rendering:geometricPrecision; image-rendering:optimizeQuality; fill-rule:evenodd; clip-rule:evenodd" xmlns:xlink="http://www.w3.org/1999/xlink">
<g><path style="opacity:0.667" fill="#fdfdfd" d="M -0.5,-0.5 C 474.833,-0.5 950.167,-0.5 1425.5,-0.5C 1425.5,1230.83 1425.5,2462.17 1425.5,3693.5C 950.167,3693.5 474.833,3693.5 -0.5,3693.5C -0.5,2462.17 -0.5,1230.83 -0.5,-0.5 Z M 2.5,2779.5 C 12.6939,2884.4 58.0272,2970.56 138.5,3038C 184.87,3075.7 235.87,3106.04 291.5,3129C 349.799,3148.88 409.133,3152.55 469.5,3140C 495.65,3134.38 521.317,3127.05 546.5,3118C 617.445,3091.85 688.112,3065.02 758.5,3037.5C 789.29,3054.06 819.957,3070.9 850.5,3088C 990.083,3168.78 1124.08,3160.78 1252.5,3064C 1319.95,3010.24 1369.79,2943.41 1402,2863.5C 1420.73,2812.46 1425.39,2760.13 1416,2706.5C 1407.17,2647.02 1393.51,2588.69 1375,2531.5C 1348.04,2449.26 1316.38,2368.93 1280,2290.5C 1275.53,2283.73 1270.7,2277.23 1265.5,2271C 1228.69,2240.35 1192.02,2209.52 1155.5,2178.5C 1154.42,2177.64 1154.25,2176.64 1155,2175.5C 1164.47,2161.22 1171.81,2145.89 1177,2129.5C 1182.73,2103.12 1173.89,2083.29 1150.5,2070C 1135.31,2061.24 1119.31,2054.4 1102.5,2049.5C 1101.88,2012.84 1101.55,1976.17 1101.5,1939.5C 1139.89,1934.25 1167.39,1914.25 1184,1879.5C 1197.63,1832.59 1181.13,1801.76 1134.5,1787C 1123.3,1784.19 1111.97,1782.36 1100.5,1781.5C 1099.8,1762.16 1099.13,1742.82 1098.5,1723.5C 1098.83,1722.5 1099.17,1721.5 1099.5,1720.5C 1119.71,1709.98 1137.88,1696.64 1154,1680.5C 1180.89,1644.34 1175.72,1613.51 1138.5,1588C 1125.66,1580.66 1112.16,1574.83 1098,1570.5C 1097.58,1555.83 1097.08,1541.16 1096.5,1526.5C 1121.96,1521.19 1142.46,1508.19 1158,1487.5C 1177,1450 1169.5,1418.83 1135.5,1394C 1123.34,1385.92 1110.34,1379.42 1096.5,1374.5C 1094.7,1356.62 1094.37,1338.79 1095.5,1321C 1121.03,1310.46 1142.2,1294.29 1159,1272.5C 1173.93,1244.93 1171.26,1219.26 1151,1195.5C 1133.86,1179.59 1114.52,1166.92 1093,1157.5C 1092.17,1143.49 1092.33,1129.49 1093.5,1115.5C 1125.89,1106.57 1151.72,1088.57 1171,1061.5C 1193.11,1016.5 1181.95,982.335 1137.5,959C 1122.41,952.811 1106.74,948.978 1090.5,947.5C 1073.69,908.846 1049.03,876.012 1016.5,849C 969.999,812.751 917.999,787.084 860.5,772C 742.625,741.502 625.958,745.502 510.5,784C 463.175,800.648 420.508,824.981 382.5,857C 329.438,907.301 300.105,969.134 294.5,1042.5C 263.756,1047.12 237.923,1060.79 217,1083.5C 195.424,1112.66 195.091,1142 216,1171.5C 230.464,1187.15 248.298,1196.65 269.5,1200C 276.483,1201.04 283.483,1201.88 290.5,1202.5C 290.667,1225.17 290.5,1247.84 290,1270.5C 269.568,1274.97 251.068,1283.47 234.5,1296C 205.349,1323.08 200.516,1353.91 220,1388.5C 238.939,1410.72 263.106,1423.05 292.5,1425.5C 292.556,1439.96 292.556,1454.3 292.5,1468.5C 268.668,1475.26 247.001,1486.09 227.5,1501C 202.191,1525.11 199.358,1551.61 219,1580.5C 239.265,1603.22 264.432,1617.56 294.5,1623.5C 294.534,1636.52 294.701,1649.52 295,1662.5C 268.459,1668.4 245.793,1681.07 227,1700.5C 207.943,1724.6 204.276,1750.93 216,1779.5C 232.623,1808.59 257.456,1826.59 290.5,1833.5C 290.5,1843.5 290.5,1853.5 290.5,1863.5C 262.362,1873.64 238.195,1889.64 218,1911.5C 200.995,1935.24 198.995,1960.24 212,1986.5C 226.881,2010.03 246.715,2028.2 271.5,2041C 276.771,2043.31 281.937,2045.81 287,2048.5C 279.447,2087.6 271.113,2126.6 262,2165.5C 219.667,2204.5 177.333,2243.5 135,2282.5C 107.333,2363.83 79.6667,2445.17 52,2526.5C 35.2122,2563.86 22.2122,2602.53 13,2642.5C 8.41011,2664.81 4.91011,2687.14 2.5,2709.5C 2.5,1807.17 2.5,904.833 2.5,2.5C 475.833,2.5 949.167,2.5 1422.5,2.5C 1422.5,1231.83 1422.5,2461.17 1422.5,3690.5C 949.167,3690.5 475.833,3690.5 2.5,3690.5C 2.5,3386.83 2.5,3083.17 2.5,2779.5 Z"/></g>
<g><path style="opacity:0.982" fill="#010101" d="M 2.5,2779.5 C 2.5,2756.17 2.5,2732.83 2.5,2709.5C 4.91011,2687.14 8.41011,2664.81 13,2642.5C 22.2122,2602.53 35.2122,2563.86 52,2526.5C 79.6667,2445.17 107.333,2363.83 135,2282.5C 177.333,2243.5 219.667,2204.5 262,2165.5C 271.113,2126.6 279.447,2087.6 287,2048.5C 281.937,2045.81 276.771,2043.31 271.5,2041C 246.715,2028.2 226.881,2010.03 212,1986.5C 198.995,1960.24 200.995,1935.24 218,1911.5C 238.195,1889.64 262.362,1873.64 290.5,1863.5C 290.5,1853.5 290.5,1843.5 290.5,1833.5C 257.456,1826.59 232.623,1808.59 216,1779.5C 204.276,1750.93 207.943,1724.6 227,1700.5C 245.793,1681.07 268.459,1668.4 295,1662.5C 294.701,1649.52 294.534,1636.52 294.5,1623.5C 264.432,1617.56 239.265,1603.22 219,1580.5C 199.358,1551.61 202.191,1525.11 227.5,1501C 247.001,1486.09 268.668,1475.26 292.5,1468.5C 292.556,1454.3 292.556,1439.96 292.5,1425.5C 263.106,1423.05 238.939,1410.72 220,1388.5C 200.516,1353.91 205.349,1323.08 234.5,1296C 251.068,1283.47 269.568,1274.97 290,1270.5C 290.5,1247.84 290.667,1225.17 290.5,1202.5C 283.483,1201.88 276.483,1201.04 269.5,1200C 248.298,1196.65 230.464,1187.15 216,1171.5C 195.091,1142 195.424,1112.66 217,1083.5C 237.923,1060.79 263.756,1047.12 294.5,1042.5C 300.105,969.134 329.438,907.301 382.5,857C 420.508,824.981 463.175,800.648 510.5,784C 625.958,745.502 742.625,741.502 860.5,772C 917.999,787.084 969.999,812.751 1016.5,849C 1049.03,876.012 1073.69,908.846 1090.5,947.5C 1106.74,948.978 1122.41,952.811 1137.5,959C 1181.95,982.335 1193.11,1016.5 1171,1061.5C 1151.72,1088.57 1125.89,1106.57 1093.5,1115.5C 1092.33,1129.49 1092.17,1143.49 1093,1157.5C 1114.52,1166.92 1133.86,1179.59 1151,1195.5C 1171.26,1219.26 1173.93,1244.93 1159,1272.5C 1142.2,1294.29 1121.03,1310.46 1095.5,1321C 1094.37,1338.79 1094.7,1356.62 1096.5,1374.5C 1110.34,1379.42 1123.34,1385.92 1135.5,1394C 1169.5,1418.83 1177,1450 1158,1487.5C 1142.46,1508.19 1121.96,1521.19 1096.5,1526.5C 1097.08,1541.16 1097.58,1555.83 1098,1570.5C 1112.16,1574.83 1125.66,1580.66 1138.5,1588C 1175.72,1613.51 1180.89,1644.34 1154,1680.5C 1137.88,1696.64 1119.71,1709.98 1099.5,1720.5C 1099.17,1721.5 1098.83,1722.5 1098.5,1723.5C 1099.13,1742.82 1099.8,1762.16 1100.5,1781.5C 1111.97,1782.36 1123.3,1784.19 1134.5,1787C 1181.13,1801.76 1197.63,1832.59 1184,1879.5C 1167.39,1914.25 1139.89,1934.25 1101.5,1939.5C 1101.55,1976.17 1101.88,2012.84 1102.5,2049.5C 1119.31,2054.4 1135.31,2061.24 1150.5,2070C 1173.89,2083.29 1182.73,2103.12 1177,2129.5C 1171.81,2145.89 1164.47,2161.22 1155,2175.5C 1154.25,2176.64 1154.42,2177.64 1155.5,2178.5C 1192.02,2209.52 1228.69,2240.35 1265.5,2271C 1270.7,2277.23 1275.53,2283.73 1280,2290.5C 1316.38,2368.93 1348.04,2449.26 1375,2531.5C 1393.51,2588.69 1407.17,2647.02 1416,2706.5C 1425.39,2760.13 1420.73,2812.46 1402,2863.5C 1369.79,2943.41 1319.95,3010.24 1252.5,3064C 1124.08,3160.78 990.083,3168.78 850.5,3088C 819.957,3070.9 789.29,3054.06 758.5,3037.5C 688.112,3065.02 617.445,3091.85 546.5,3118C 521.317,3127.05 495.65,3134.38 469.5,3140C 409.133,3152.55 349.799,3148.88 291.5,3129C 235.87,3106.04 184.87,3075.7 138.5,3038C 58.0272,2970.56 12.6939,2884.4 2.5,2779.5 Z"/></g>
<g><path style="opacity:1" fill="#b7b7b8" d="M 1081.5,1911.5 C 1078.17,1911.5 1074.83,1911.5 1071.5,1911.5C 1071.17,1922.68 1071.51,1933.68 1072.5,1944.5C 1072.17,1986.51 1072.67,2028.51 1074,2070.5C 1094.02,2076.62 1113.52,2084.12 1132.5,2093C 1139.9,2096.61 1145.4,2102.11 1149,2109.5C 1149.67,2113.5 1149.67,2117.5 1149,2121.5C 1145.08,2132.67 1140.08,2143.34 1134,2153.5C 1127.71,2163.25 1121.54,2173.08 1115.5,2183C 1152.06,2214.41 1188.73,2245.57 1225.5,2276.5C 950.001,2277.5 674.334,2277.83 398.5,2277.5C 327.166,2277.67 255.833,2277.5 184.5,2277C 219.333,2244.83 254.167,2212.67 289,2180.5C 300.234,2128.5 311.4,2076.5 322.5,2024.5C 313.618,2024.81 304.951,2023.64 296.5,2021C 272.843,2011.01 253.676,1995.51 239,1974.5C 230.974,1961.27 230.641,1947.94 238,1934.5C 247.673,1921.08 259.84,1910.58 274.5,1903C 289.181,1895 304.348,1888.17 320,1882.5C 320.5,1858.17 320.667,1833.84 320.5,1809.5C 293.008,1807.96 269.508,1797.62 250,1778.5C 231.23,1751.06 235.397,1727.56 262.5,1708C 281.49,1696.28 302.157,1689.45 324.5,1687.5C 324.223,1657.5 323.89,1627.5 323.5,1597.5C 291.912,1597.15 265.079,1585.81 243,1563.5C 234.003,1552.56 233.336,1541.23 241,1529.5C 252.917,1517.78 266.75,1508.95 282.5,1503C 295.352,1498.37 308.352,1494.2 321.5,1490.5C 322.209,1459.51 322.209,1428.51 321.5,1397.5C 297.364,1399.6 275.031,1394.43 254.5,1382C 235.212,1365.95 232.379,1347.45 246,1326.5C 261.951,1309.94 281.451,1300.44 304.5,1298C 309.844,1297.53 315.178,1297.03 320.5,1296.5C 320.135,1254.83 319.802,1213.17 319.5,1171.5C 305.852,1172.55 292.185,1172.72 278.5,1172C 261.938,1169.97 248.105,1162.8 237,1150.5C 226.861,1134.99 227.195,1119.66 238,1104.5C 251.935,1088.27 269.435,1077.77 290.5,1073C 300.685,1070.45 311.018,1068.95 321.5,1068.5C 323.381,967.507 367.714,892.007 454.5,842C 521.253,805.846 592.586,785.846 668.5,782C 755.504,776.57 839.171,790.57 919.5,824C 967.601,844.619 1007.77,875.452 1040,916.5C 1048.28,928.053 1055.28,940.387 1061,953.5C 1061.94,960.806 1062.44,968.14 1062.5,975.5C 1079.28,976.283 1095.95,978.116 1112.5,981C 1130.46,985.641 1143.63,996.141 1152,1012.5C 1154.64,1028.93 1150.31,1043.26 1139,1055.5C 1118.1,1076.2 1092.93,1088.2 1063.5,1091.5C 1063.33,1120.17 1063.5,1148.84 1064,1177.5C 1084.7,1184.93 1103.87,1195.1 1121.5,1208C 1145.14,1228.28 1145.47,1248.95 1122.5,1270C 1105.52,1283.33 1086.85,1293.83 1066.5,1301.5C 1065.13,1333.19 1065.46,1364.85 1067.5,1396.5C 1087.39,1401.29 1105.73,1409.46 1122.5,1421C 1145.3,1442.28 1144.96,1463.28 1121.5,1484C 1105.34,1495.22 1087.34,1500.72 1067.5,1500.5C 1067.73,1531.83 1068.06,1563.17 1068.5,1594.5C 1087.09,1597.46 1104.75,1603.29 1121.5,1612C 1129.82,1617.21 1136.32,1624.05 1141,1632.5C 1142.55,1640.08 1141.22,1647.08 1137,1653.5C 1132.58,1659.93 1127.41,1665.76 1121.5,1671C 1105.84,1683.51 1088.84,1694.01 1070.5,1702.5C 1069.58,1738.83 1069.58,1775.16 1070.5,1811.5C 1084.17,1811.33 1097.84,1811.5 1111.5,1812C 1127.05,1813.36 1140.55,1819.2 1152,1829.5C 1162.14,1843.11 1163.14,1857.44 1155,1872.5C 1138.03,1899.24 1113.53,1912.24 1081.5,1911.5 Z"/></g>
<g><path style="opacity:1" fill="#424242" d="M 1081.5,1911.5 C 1078.71,1912.48 1075.71,1912.81 1072.5,1912.5C 1072.5,1923.17 1072.5,1933.83 1072.5,1944.5C 1071.51,1933.68 1071.17,1922.68 1071.5,1911.5C 1074.83,1911.5 1078.17,1911.5 1081.5,1911.5 Z"/></g>
<g><path style="opacity:1" fill="#757576" d="M 1225.5,2276.5 C 1226.29,2276.78 1226.96,2277.28 1227.5,2278C 951,2278.83 674.666,2278.67 398.5,2277.5C 674.334,2277.83 950.001,2277.5 1225.5,2276.5 Z"/></g>
<g><path style="opacity:1" fill="#fefefe" d="M 1252.5,2303.5 C 1301.26,2403.94 1340.1,2508.27 1369,2616.5C 1378.96,2655.98 1385.96,2695.98 1390,2736.5C 1394.12,2779.02 1388.12,2820.02 1372,2859.5C 1332.59,2951.24 1270.09,3022.74 1184.5,3074C 1102.84,3119.03 1018.17,3125.7 930.5,3094C 877.349,3069.43 825.682,3042.26 775.5,3012.5C 774.5,2954.84 774.167,2897.17 774.5,2839.5C 764.833,2839.5 755.167,2839.5 745.5,2839.5C 745.667,2896.5 745.5,2953.5 745,3010.5C 671.344,3039.91 597.178,3068.07 522.5,3095C 483.077,3109.23 442.41,3116.73 400.5,3117.5C 356.355,3118.09 314.355,3108.92 274.5,3090C 226.538,3067.21 182.871,3038.21 143.5,3003C 61.0962,2923.95 23.9296,2827.12 32,2712.5C 36.6081,2656.68 50.6081,2603.35 74,2552.5C 102.141,2470.58 129.974,2388.58 157.5,2306.5C 522.5,2306.5 887.5,2306.5 1252.5,2306.5C 1252.5,2305.5 1252.5,2304.5 1252.5,2303.5 Z"/></g>
</svg>
