<?xml version="1.0" encoding="UTF-8"?>
<!DOCTYPE svg PUBLIC "-//W3C//DTD SVG 1.1//EN" "http://www.w3.org/Graphics/SVG/1.1/DTD/svg11.dtd">
<svg xmlns="http://www.w3.org/2000/svg" version="1.1" width="1453px" height="3694px" style="shape-rendering:geometricPrecision; text-rendering:geometricPrecision; image-rendering:optimizeQuality; fill-rule:evenodd; clip-rule:evenodd" xmlns:xlink="http://www.w3.org/1999/xlink">
<g><path style="opacity:0.695" fill="#fdfdfd" d="M -0.5,-0.5 C 483.833,-0.5 968.167,-0.5 1452.5,-0.5C 1452.5,1230.83 1452.5,2462.17 1452.5,3693.5C 968.167,3693.5 483.833,3693.5 -0.5,3693.5C -0.5,2462.17 -0.5,1230.83 -0.5,-0.5 Z M 1449.5,917.5 C 1441.75,868.081 1424.58,822.081 1398,779.5C 1341.44,688.935 1265.27,620.102 1169.5,573C 1110.13,545.438 1048.13,536.771 983.5,547C 958.525,551.658 934.525,559.325 911.5,570C 871.756,591.281 833.256,614.447 796,639.5C 722.552,592.744 648.052,547.578 572.5,504C 531.899,481.532 488.899,465.532 443.5,456C 422.381,451.548 401.381,451.881 380.5,457C 344.846,467.496 310.846,481.829 278.5,500C 223.74,541.07 172.24,586.236 124,635.5C 88.371,673.862 60.7044,717.529 41,766.5C 6.5522,845.416 -4.11446,927.416 9,1012.5C 23.8419,1073.36 42.5086,1133.03 65,1191.5C 91.5506,1259.82 118.884,1327.82 147,1395.5C 190.033,1554.63 224.366,1715.63 250,1878.5C 263.062,1962.72 271.728,2047.39 276,2132.5C 276.444,2193.83 277.111,2255.17 278,2316.5C 282.642,2445.38 308.642,2569.71 356,2689.5C 391.83,2776.54 440.497,2855.21 502,2925.5C 528.035,2953.2 553.702,2981.2 579,3009.5C 606.36,3038.87 635.527,3066.04 666.5,3091C 688.596,3108.06 712.596,3122.06 738.5,3133C 764.878,3143 791.545,3144 818.5,3136C 835.395,3128.77 847.228,3116.61 854,3099.5C 860.295,3082.4 863.128,3064.73 862.5,3046.5C 862.369,3023.09 859.203,3000.09 853,2977.5C 840.717,2938.32 827.05,2899.65 812,2861.5C 782.745,2788.74 754.079,2715.74 726,2642.5C 701.024,2579.6 684.024,2514.6 675,2447.5C 669.183,2407.63 664.517,2367.63 661,2327.5C 656.241,2254.95 651.074,2182.45 645.5,2110C 645.743,2095.97 647.576,2082.13 651,2068.5C 661.223,2037.46 682.723,2023.62 715.5,2027C 723.408,2028.63 730.741,2031.63 737.5,2036C 756.245,2052.09 770.412,2071.59 780,2094.5C 784.944,2106.72 789.611,2119.06 794,2131.5C 804.712,2171.01 816.045,2210.35 828,2249.5C 861.211,2347.8 895.211,2445.8 930,2543.5C 951.636,2605.05 970.636,2667.38 987,2730.5C 1003.18,2800.07 1018.85,2869.73 1034,2939.5C 1041.61,2965.38 1052.94,2989.38 1068,3011.5C 1102.77,3056.99 1147.27,3070.16 1201.5,3051C 1220.4,3042.13 1236.9,3029.96 1251,3014.5C 1276.8,2984.27 1296.46,2950.27 1310,2912.5C 1328.07,2866.03 1335.9,2817.87 1333.5,2768C 1332.82,2716.98 1329.32,2666.14 1323,2615.5C 1317.99,2574.74 1312.32,2534.08 1306,2493.5C 1292.12,2409.53 1278.45,2325.53 1265,2241.5C 1257.28,2192.06 1251.61,2142.4 1248,2092.5C 1245.95,2032.13 1246.95,1971.79 1251,1911.5C 1261.64,1737.53 1275.97,1563.86 1294,1390.5C 1344.17,1306.15 1385.17,1217.49 1417,1124.5C 1432.64,1077.44 1443.47,1029.44 1449.5,980.5C 1449.5,1883.83 1449.5,2787.17 1449.5,3690.5C 967.167,3690.5 484.833,3690.5 2.5,3690.5C 2.5,2461.17 2.5,1231.83 2.5,2.5C 484.833,2.5 967.167,2.5 1449.5,2.5C 1449.5,307.5 1449.5,612.5 1449.5,917.5 Z"/></g>
<g><path style="opacity:0.982" fill="#010101" d="M 1449.5,917.5 C 1450.56,938.494 1450.56,959.494 1449.5,980.5C 1443.47,1029.44 1432.64,1077.44 1417,1124.5C 1385.17,1217.49 1344.17,1306.15 1294,1390.5C 1275.97,1563.86 1261.64,1737.53 1251,1911.5C 1246.95,1971.79 1245.95,2032.13 1248,2092.5C 1251.61,2142.4 1257.28,2192.06 1265,2241.5C 1278.45,2325.53 1292.12,2409.53 1306,2493.5C 1312.32,2534.08 1317.99,2574.74 1323,2615.5C 1329.32,2666.14 1332.82,2716.98 1333.5,2768C 1335.9,2817.87 1328.07,2866.03 1310,2912.5C 1296.46,2950.27 1276.8,2984.27 1251,3014.5C 1236.9,3029.96 1220.4,3042.13 1201.5,3051C 1147.27,3070.16 1102.77,3056.99 1068,3011.5C 1052.94,2989.38 1041.61,2965.38 1034,2939.5C 1018.85,2869.73 1003.18,2800.07 987,2730.5C 970.636,2667.38 951.636,2605.05 930,2543.5C 895.211,2445.8 861.211,2347.8 828,2249.5C 816.045,2210.35 804.712,2171.01 794,2131.5C 789.611,2119.06 784.944,2106.72 780,2094.5C 770.412,2071.59 756.245,2052.09 737.5,2036C 730.741,2031.63 723.408,2028.63 715.5,2027C 682.723,2023.62 661.223,2037.46 651,2068.5C 647.576,2082.13 645.743,2095.97 645.5,2110C 651.074,2182.45 656.241,2254.95 661,2327.5C 664.517,2367.63 669.183,2407.63 675,2447.5C 684.024,2514.6 701.024,2579.6 726,2642.5C 754.079,2715.74 782.745,2788.74 812,2861.5C 827.05,2899.65 840.717,2938.32 853,2977.5C 859.203,3000.09 862.369,3023.09 862.5,3046.5C 863.128,3064.73 860.295,3082.4 854,3099.5C 847.228,3116.61 835.395,3128.77 818.5,3136C 791.545,3144 764.878,3143 738.5,3133C 712.596,3122.06 688.596,3108.06 666.5,3091C 635.527,3066.04 606.36,3038.87 579,3009.5C 553.702,2981.2 528.035,2953.2 502,2925.5C 440.497,2855.21 391.83,2776.54 356,2689.5C 308.642,2569.71 282.642,2445.38 278,2316.5C 277.111,2255.17 276.444,2193.83 276,2132.5C 271.728,2047.39 263.062,1962.72 250,1878.5C 224.366,1715.63 190.033,1554.63 147,1395.5C 118.884,1327.82 91.5506,1259.82 65,1191.5C 42.5086,1133.03 23.8419,1073.36 9,1012.5C -4.11446,927.416 6.5522,845.416 41,766.5C 60.7044,717.529 88.371,673.862 124,635.5C 172.24,586.236 223.74,541.07 278.5,500C 310.846,481.829 344.846,467.496 380.5,457C 401.381,451.881 422.381,451.548 443.5,456C 488.899,465.532 531.899,481.532 572.5,504C 648.052,547.578 722.552,592.744 796,639.5C 833.256,614.447 871.756,591.281 911.5,570C 934.525,559.325 958.525,551.658 983.5,547C 1048.13,536.771 1110.13,545.438 1169.5,573C 1265.27,620.102 1341.44,688.935 1398,779.5C 1424.58,822.081 1441.75,868.081 1449.5,917.5 Z"/></g>
<g><path style="opacity:1" fill="#fefefe" d="M 397.5,482.5 C 416.46,481.382 435.126,483.216 453.5,488C 491.5,498.499 527.834,513.166 562.5,532C 637.665,575.744 711.998,620.744 785.5,667C 786.497,714.761 786.83,762.595 786.5,810.5C 796.167,810.5 805.833,810.5 815.5,810.5C 815.333,760.832 815.5,711.166 816,661.5C 851.926,637.445 889.093,615.279 927.5,595C 988.76,568.006 1051.43,564.339 1115.5,584C 1164.47,599.974 1208.8,623.974 1248.5,656C 1308.14,703.289 1355.64,760.455 1391,827.5C 1409.53,864.166 1419.7,903 1421.5,944C 1420.3,990.103 1413.14,1035.27 1400,1079.5C 1368.96,1181.63 1326.13,1278.46 1271.5,1370C 903.833,1370.67 536.167,1370.67 168.5,1370C 130.729,1281.03 95.8954,1190.86 64,1099.5C 55.1841,1072.39 47.1841,1045.05 40,1017.5C 25.3744,941.463 32.3744,867.463 61,795.5C 75.9313,756.628 95.2646,720.294 119,686.5C 147.431,652.068 178.598,620.235 212.5,591C 239.588,567.908 267.255,545.575 295.5,524C 327.902,505.929 361.902,492.096 397.5,482.5 Z"/></g>
<g><path style="opacity:1" fill="#bebebe" d="M 1263.5,1400.5 C 902,1400.17 540.666,1400.5 179.5,1401.5C 178.957,1401.44 178.624,1401.11 178.5,1400.5C 359.333,1400.17 540.167,1399.83 721,1399.5C 902,1399.5 1082.83,1399.83 1263.5,1400.5 Z"/></g>
<g><path style="opacity:1" fill="#fefefe" d="M 1263.5,1400.5 C 1243.75,1588.44 1228.92,1776.78 1219,1965.5C 1215.63,2028.98 1217.3,2092.31 1224,2155.5C 1229.77,2200.58 1236.11,2245.58 1243,2290.5C 1261.63,2396.89 1278.3,2503.55 1293,2610.5C 1300.91,2671.25 1304.58,2732.25 1304,2793.5C 1301.09,2860.17 1281.09,2921.17 1244,2976.5C 1233.54,2990.63 1221.37,3003.13 1207.5,3014C 1158.37,3042.76 1117.87,3033.59 1086,2986.5C 1067.86,2954.08 1056.53,2919.41 1052,2882.5C 1039.67,2828.51 1027.33,2774.51 1015,2720.5C 997.377,2652.63 976.711,2585.63 953,2519.5C 915.744,2416.4 880.077,2312.73 846,2208.5C 837.427,2175.65 828.094,2142.98 818,2110.5C 807.747,2078.98 792.08,2050.64 771,2025.5C 734.418,1991.71 694.584,1987.54 651.5,2013C 631.655,2029.78 620.489,2051.28 618,2077.5C 617.146,2087.82 616.646,2098.15 616.5,2108.5C 621.523,2170.76 625.689,2233.1 629,2295.5C 634.593,2377.58 645.593,2458.91 662,2539.5C 672.057,2576.34 683.724,2612.67 697,2648.5C 732.333,2739.17 767.667,2829.83 803,2920.5C 814.23,2949.19 823.23,2978.52 830,3008.5C 834.07,3030.13 834.404,3051.8 831,3073.5C 826.117,3100.79 809.783,3113.79 782,3112.5C 768.598,3112.27 755.765,3109.44 743.5,3104C 718.625,3092.1 695.625,3077.43 674.5,3060C 653.064,3041.23 632.23,3021.73 612,3001.5C 581,2967.83 550,2934.17 519,2900.5C 437.017,2803.56 379.351,2693.23 346,2569.5C 322.459,2481.04 309.459,2391.04 307,2299.5C 309.856,2186.43 304.522,2073.76 291,1961.5C 271.109,1809.61 243.109,1659.28 207,1510.5C 197.663,1474.15 188.496,1437.82 179.5,1401.5C 540.666,1400.5 902,1400.17 1263.5,1400.5 Z"/></g>
</svg>
