<?xml version="1.0" encoding="UTF-8"?>
<!DOCTYPE svg PUBLIC "-//W3C//DTD SVG 1.1//EN" "http://www.w3.org/Graphics/SVG/1.1/DTD/svg11.dtd">
<svg xmlns="http://www.w3.org/2000/svg" version="1.1" width="1440px" height="3694px" style="shape-rendering:geometricPrecision; text-rendering:geometricPrecision; image-rendering:optimizeQuality; fill-rule:evenodd; clip-rule:evenodd" xmlns:xlink="http://www.w3.org/1999/xlink">
<g><path style="opacity:0.792" fill="#f8f8f8" d="M -0.5,-0.5 C 479.5,-0.5 959.5,-0.5 1439.5,-0.5C 1439.5,1230.83 1439.5,2462.17 1439.5,3693.5C 959.5,3693.5 479.5,3693.5 -0.5,3693.5C -0.5,2462.17 -0.5,1230.83 -0.5,-0.5 Z M 1436.5,953.5 C 1431.88,858.622 1398.71,775.289 1337,703.5C 1317.83,683.667 1298.67,663.833 1279.5,644C 1261.62,626.439 1242.28,610.772 1221.5,597C 1205.41,587.303 1188.08,580.969 1169.5,578C 1115.13,571.241 1060.8,571.908 1006.5,580C 914.924,594.268 826.091,618.435 740,652.5C 658.715,598.448 570.882,558.281 476.5,532C 449.238,523.724 421.405,518.891 393,517.5C 360.996,518.96 331.162,527.793 303.5,544C 261.464,569.711 220.797,597.378 181.5,627C 134.6,667.9 91.0995,712.067 51,759.5C 28.8934,790.459 14.5601,824.793 8,862.5C 5.67849,876.587 3.84516,890.587 2.5,904.5C 2.5,603.833 2.5,303.167 2.5,2.5C 480.5,2.5 958.5,2.5 1436.5,2.5C 1436.5,319.5 1436.5,636.5 1436.5,953.5 Z M 2.5,947.5 C 9.7213,995.702 22.888,1042.37 42,1087.5C 54.1109,1118.72 69.1109,1148.39 87,1176.5C 136.086,1248.34 185.42,1320.01 235,1391.5C 235.433,1507.06 240.767,1622.4 251,1737.5C 258.912,1833.89 274.912,1928.89 299,2022.5C 308.66,2053.15 319.994,2083.15 333,2112.5C 370.717,2193.27 411.05,2272.6 454,2350.5C 540.721,2506.3 630.721,2659.97 724,2811.5C 741.806,2840.64 765.972,2862.81 796.5,2878C 837.178,2893.28 874.845,2887.95 909.5,2862C 932.665,2839.83 945.832,2812.67 949,2780.5C 950.494,2765.86 950.828,2751.2 950,2736.5C 943.858,2688.12 935.524,2640.12 925,2592.5C 895.076,2468.73 864.743,2345.06 834,2221.5C 826.904,2188.92 820.237,2156.26 814,2123.5C 811.748,2109.74 810.248,2095.91 809.5,2082C 809.145,2042.64 826.479,2032.31 861.5,2051C 877.421,2062.25 890.588,2076.09 901,2092.5C 920.742,2124.66 936.742,2158.66 949,2194.5C 981.755,2290.61 1002.09,2389.28 1010,2490.5C 1016.74,2598.06 1020.41,2705.73 1021,2813.5C 1024.14,2851.06 1035.14,2886.06 1054,2918.5C 1087.88,2965.07 1128.05,2971.24 1174.5,2937C 1188.98,2924.19 1202.48,2910.35 1215,2895.5C 1239.25,2864.7 1260.25,2831.7 1278,2796.5C 1298.26,2754.98 1316.59,2712.65 1333,2669.5C 1380.25,2531.21 1392.25,2389.87 1369,2245.5C 1359.19,2185.94 1344.53,2127.6 1325,2070.5C 1308.02,2026.55 1292.02,1982.21 1277,1937.5C 1248.1,1849.12 1232.94,1758.46 1231.5,1665.5C 1231.63,1600.37 1243.13,1537.37 1266,1476.5C 1278.59,1445.31 1295.25,1416.64 1316,1390.5C 1386.66,1279.35 1426.83,1158.02 1436.5,1026.5C 1436.5,1914.5 1436.5,2802.5 1436.5,3690.5C 958.5,3690.5 480.5,3690.5 2.5,3690.5C 2.5,2776.17 2.5,1861.83 2.5,947.5 Z"/></g>
<g><path style="opacity:0.982" fill="#010101" d="M 1436.5,953.5 C 1436.5,977.833 1436.5,1002.17 1436.5,1026.5C 1426.83,1158.02 1386.66,1279.35 1316,1390.5C 1295.25,1416.64 1278.59,1445.31 1266,1476.5C 1243.13,1537.37 1231.63,1600.37 1231.5,1665.5C 1232.94,1758.46 1248.1,1849.12 1277,1937.5C 1292.02,1982.21 1308.02,2026.55 1325,2070.5C 1344.53,2127.6 1359.19,2185.94 1369,2245.5C 1392.25,2389.87 1380.25,2531.21 1333,2669.5C 1316.59,2712.65 1298.26,2754.98 1278,2796.5C 1260.25,2831.7 1239.25,2864.7 1215,2895.5C 1202.48,2910.35 1188.98,2924.19 1174.5,2937C 1128.05,2971.24 1087.88,2965.07 1054,2918.5C 1035.14,2886.06 1024.14,2851.06 1021,2813.5C 1020.41,2705.73 1016.74,2598.06 1010,2490.5C 1002.09,2389.28 981.755,2290.61 949,2194.5C 936.742,2158.66 920.742,2124.66 901,2092.5C 890.588,2076.09 877.421,2062.25 861.5,2051C 826.479,2032.31 809.145,2042.64 809.5,2082C 810.248,2095.91 811.748,2109.74 814,2123.5C 820.237,2156.26 826.904,2188.92 834,2221.5C 864.743,2345.06 895.076,2468.73 925,2592.5C 935.524,2640.12 943.858,2688.12 950,2736.5C 950.828,2751.2 950.494,2765.86 949,2780.5C 945.832,2812.67 932.665,2839.83 909.5,2862C 874.845,2887.95 837.178,2893.28 796.5,2878C 765.972,2862.81 741.806,2840.64 724,2811.5C 630.721,2659.97 540.721,2506.3 454,2350.5C 411.05,2272.6 370.717,2193.27 333,2112.5C 319.994,2083.15 308.66,2053.15 299,2022.5C 274.912,1928.89 258.912,1833.89 251,1737.5C 240.767,1622.4 235.433,1507.06 235,1391.5C 185.42,1320.01 136.086,1248.34 87,1176.5C 69.1109,1148.39 54.1109,1118.72 42,1087.5C 22.888,1042.37 9.7213,995.702 2.5,947.5C 2.5,933.167 2.5,918.833 2.5,904.5C 3.84516,890.587 5.67849,876.587 8,862.5C 14.5601,824.793 28.8934,790.459 51,759.5C 91.0995,712.067 134.6,667.9 181.5,627C 220.797,597.378 261.464,569.711 303.5,544C 331.162,527.793 360.996,518.96 393,517.5C 421.405,518.891 449.238,523.724 476.5,532C 570.882,558.281 658.715,598.448 740,652.5C 826.091,618.435 914.924,594.268 1006.5,580C 1060.8,571.908 1115.13,571.241 1169.5,578C 1188.08,580.969 1205.41,587.303 1221.5,597C 1242.28,610.772 1261.62,626.439 1279.5,644C 1298.67,663.833 1317.83,683.667 1337,703.5C 1398.71,775.289 1431.88,858.622 1436.5,953.5 Z"/></g>
<g><path style="opacity:1" fill="#fefefe" d="M 381.5,547.5 C 404.197,546.795 426.53,549.295 448.5,555C 546.387,579.952 637.387,620.118 721.5,675.5C 722.5,746.164 722.833,816.83 722.5,887.5C 731.833,887.5 741.167,887.5 750.5,887.5C 750.167,818.163 750.5,748.83 751.5,679.5C 848.408,640.715 948.742,615.548 1052.5,604C 1085.87,601.734 1119.2,602.067 1152.5,605C 1171.45,606.818 1189.12,612.485 1205.5,622C 1218.22,630.027 1230.22,639.027 1241.5,649C 1268.03,673.863 1293.53,699.697 1318,726.5C 1387.84,810.714 1417.5,907.714 1407,1017.5C 1399.48,1144.56 1361.98,1261.9 1294.5,1369.5C 948.598,1370.17 602.765,1370.83 257,1371.5C 207.42,1300.01 158.086,1228.34 109,1156.5C 76.9323,1101.31 53.2656,1042.65 38,980.5C 25.8076,922.796 31.1409,866.796 54,812.5C 63.5193,792.78 75.5193,774.78 90,758.5C 127.793,715.719 168.626,676.219 212.5,640C 247.976,614.758 284.309,590.758 321.5,568C 340.36,557.437 360.36,550.603 381.5,547.5 Z"/></g>
<g><path style="opacity:1" fill="#bebebe" d="M 1271.5,1401.5 C 936.334,1400.5 601,1400.17 265.5,1400.5C 265.5,1413.83 265.5,1427.17 265.5,1440.5C 264.504,1427.01 264.171,1413.34 264.5,1399.5C 600.501,1399.17 936.501,1399.5 1272.5,1400.5C 1272.38,1401.11 1272.04,1401.44 1271.5,1401.5 Z"/></g>
<g><path style="opacity:1" fill="#fefefe" d="M 1271.5,1401.5 C 1239.48,1454.57 1218.98,1511.9 1210,1573.5C 1199.44,1655.53 1201.77,1737.2 1217,1818.5C 1233.27,1901.31 1257.6,1981.65 1290,2059.5C 1323.92,2150.53 1343.92,2244.53 1350,2341.5C 1356.62,2468.86 1335.29,2591.19 1286,2708.5C 1269.6,2746.63 1251.6,2783.96 1232,2820.5C 1212.27,2852.58 1189.1,2882.08 1162.5,2909C 1152.87,2917.65 1141.87,2923.98 1129.5,2928C 1119.25,2930.88 1109.58,2929.54 1100.5,2924C 1082.88,2911.31 1070.71,2894.47 1064,2873.5C 1058.09,2855.87 1053.76,2837.87 1051,2819.5C 1049.29,2741.16 1047.29,2662.82 1045,2584.5C 1043.08,2541.79 1040.41,2499.12 1037,2456.5C 1025.82,2349.77 1000.82,2246.43 962,2146.5C 947.66,2110.12 927.993,2077.12 903,2047.5C 888.572,2031.74 871.072,2020.91 850.5,2015C 813.085,2007.45 790.585,2022.28 783,2059.5C 779.774,2087.16 781.44,2114.5 788,2141.5C 832.333,2340.83 876.667,2540.17 921,2739.5C 922.971,2763.96 919.638,2787.63 911,2810.5C 892.909,2846.52 863.742,2861.69 823.5,2856C 804.346,2851.01 787.846,2841.51 774,2827.5C 764.19,2817.36 755.523,2806.36 748,2794.5C 656.307,2645.14 567.64,2493.81 482,2340.5C 437.872,2261.58 396.872,2180.91 359,2098.5C 347.272,2072.04 336.939,2045.04 328,2017.5C 305.724,1930.78 290.391,1842.78 282,1753.5C 272.061,1649.4 266.561,1545.07 265.5,1440.5C 265.5,1427.17 265.5,1413.83 265.5,1400.5C 601,1400.17 936.334,1400.5 1271.5,1401.5 Z"/></g>
</svg>
