<?xml version="1.0" encoding="UTF-8"?>
<svg version="1.1" xmlns="http://www.w3.org/2000/svg" width="1543" height="3694">
<path d="M0 0 C509.19 0 1018.38 0 1543 0 C1543 1219.02 1543 2438.04 1543 3694 C1033.81 3694 524.62 3694 0 3694 C0 2474.98 0 1255.96 0 0 Z M3 3 C3 914.46 3 1825.92 3 2765 C3.33 2765 3.66 2765 4 2765 C4.11891602 2764.19054932 4.11891602 2764.19054932 4.24023438 2763.36474609 C15.94226976 2685.86300621 51.33396819 2607.65600694 90 2540 C90.78238037 2538.62279785 90.78238037 2538.62279785 91.58056641 2537.21777344 C98.31912186 2525.40760029 105.44418001 2514.05374343 113.47753906 2503.08300781 C115.04661109 2500.93622742 116.59928274 2498.77837756 118.1484375 2496.6171875 C124.28639126 2488.06362785 130.5115751 2479.57615016 136.7668457 2471.1081543 C142.90916396 2462.78523214 148.95784112 2454.39576915 155 2446 C162.20122344 2435.9936743 169.44255899 2426.02060494 176.76928711 2416.10571289 C180.71407041 2410.76164384 184.61962408 2405.39098455 188.5 2400 C193.54007819 2392.99784758 198.64213385 2386.04386744 203.76953125 2379.10546875 C207.71415404 2373.76142324 211.61969056 2368.39089219 215.5 2363 C220.54007819 2355.99784758 225.64213385 2349.04386744 230.76953125 2342.10546875 C235.25231684 2336.03233794 239.67854715 2329.92027513 244.08789062 2323.79370117 C248.75912707 2317.31228931 253.49239848 2310.87764562 258.24414062 2304.45507812 C258.79263672 2303.71322266 259.34113281 2302.97136719 259.90625 2302.20703125 C260.38384766 2301.5622583 260.86144531 2300.91748535 261.35351562 2300.25317383 C261.89685547 2299.50962646 262.44019531 2298.7660791 263 2298 C263.40565091 2297.5249855 263.81130182 2297.04997101 264.22924519 2296.56056213 C268.07800348 2291.78981292 268.73765258 2288.16041744 268.71948242 2282.12963867 C268.74510018 2280.83213637 268.74510018 2280.83213637 268.77123547 2279.5084219 C268.82220577 2276.6447772 268.83878323 2273.78200152 268.85546875 2270.91796875 C268.88525724 2268.89062129 268.91733772 2266.86330637 268.9515686 2264.83602905 C269.02012671 2260.52852991 269.07415397 2256.22119537 269.11660767 2251.9133606 C269.18420511 2245.13763651 269.28789218 2238.36277726 269.39916992 2231.58764648 C269.43593179 2229.32679853 269.47262936 2227.06594953 269.50926208 2224.80509949 C269.53631635 2223.13608613 269.53631635 2223.13608613 269.56391716 2221.43335533 C269.61711757 2218.07472741 269.66724045 2214.71606832 269.71620178 2211.3573761 C271.19152862 2110.27205529 278.05161231 2009.09524436 300 1829 C300.13472717 1828.09544067 300.26945435 1827.19088135 300.40826416 1826.25891113 C309.14871018 1767.64619058 320.14208922 1708.29286983 339 1652 C339.45439453 1650.6087793 339.45439453 1650.6087793 339.91796875 1649.18945312 C351.83560804 1612.75768239 368.33979169 1577.75527956 385.65869141 1543.61694336 C386.3755065 1542.20305398 387.09214296 1540.78907402 387.80859375 1539.375 C388.15758728 1538.68647446 388.50658081 1537.99794891 388.8661499 1537.28855896 C391.40161809 1532.25806649 393.81502284 1527.17760858 396.19140625 1522.0703125 C399.07873682 1515.87270025 402.14216539 1509.83370778 405.5 1503.875 C410.13565596 1495.52057306 414.56300661 1487.07707103 418.91073608 1478.57089233 C424.48015453 1467.67688142 430.19109968 1456.90685744 436.27709961 1446.28930664 C440.12210511 1439.58002481 443.83800586 1432.8107833 447.5 1426 C453.83614643 1414.23842157 460.38084361 1402.60420281 467 1391 C467.62277832 1389.90671387 468.24555664 1388.81342773 468.88720703 1387.68701172 C487.75157481 1354.57687479 506.89585827 1321.63541885 526.31494141 1288.84765625 C528.1331531 1285.77497859 529.94752902 1282.70005389 531.76171875 1279.625 C538.88445311 1267.56375425 546.07176139 1255.54668853 553.36447144 1243.58737183 C558.83988086 1234.60584156 564.22922179 1225.57628881 569.58120728 1216.52072144 C575.43073092 1206.62392532 581.31133345 1196.7671166 587.51171875 1187.08447266 C591.89159987 1180.22880928 596.10455563 1173.27438481 600.3125 1166.3125 C606.26167632 1156.47382719 612.28567182 1146.68767686 618.39892578 1136.94970703 C623.03820545 1129.55512538 627.62188588 1122.12776005 632.1875 1114.6875 C637.23654543 1106.46407864 642.32421578 1098.26858787 647.49291992 1090.11987305 C651.52371166 1083.76422553 655.51558776 1077.384812 659.5 1071 C665.48837981 1061.40751675 671.50946181 1051.8364413 677.55712891 1042.28125 C679.01248433 1039.98026167 680.46559118 1037.67786895 681.91796875 1035.375 C688.9918802 1024.15989067 696.10274309 1012.96861947 703.2265625 1001.78515625 C704.96470718 999.05542684 706.70138106 996.32476815 708.4375 993.59375 C721.04096087 973.76935082 733.68426514 953.97247677 746.50927734 934.29052734 C748.88798935 930.63558531 751.25696933 926.97436833 753.625 923.3125 C754.07431885 922.61785645 754.5236377 921.92321289 754.98657227 921.20751953 C757.19257016 917.79654468 759.39743096 914.38483735 761.6015625 910.97265625 C763.87686453 907.45121478 766.15510314 903.93168812 768.43554688 900.41357422 C769.54668549 898.69935506 770.65730928 896.98480215 771.76757812 895.27001953 C800.37545182 851.11276714 831.6339088 810.26791027 886.04296875 798.5078125 C917.28312593 793.14292421 950.32077628 799.36427222 976.73486328 817.16943359 C980.03436561 819.56066347 983.03406349 822.21192354 986 825 C986.84691406 825.76828125 987.69382812 826.5365625 988.56640625 827.328125 C1014.68226487 852.04847973 1023.75485634 889.53182395 1025.12890625 924.2578125 C1025.44587963 942.13511124 1022.64716118 960.02181189 1019.8125 977.625 C1019.64560669 978.66510223 1019.47871338 979.70520447 1019.3067627 980.77682495 C1004.78072395 1070.47869495 983.02844785 1159.14907334 892.8515625 1510.69921875 C892.36300529 1512.42625031 892.36300529 1512.42625031 891.86457825 1514.18817139 C890.37664843 1519.44431977 888.87997139 1524.69753638 887.36108398 1529.94482422 C884.07432526 1541.40911755 881.4686011 1552.86043651 879.41894531 1564.60968018 C878.9800892 1567.11360236 878.52173737 1569.61349265 878.0612793 1572.11352539 C876.31004905 1581.74532228 875.69733725 1591.20901989 875.625 1601 C875.61114258 1602.10939941 875.59728516 1603.21879883 875.58300781 1604.36181641 C875.64715202 1615.64275756 877.37277557 1626.28317208 885 1635 C892.15132151 1641.35673023 901.00367174 1640.47255243 910 1640 C923.08567076 1638.2369121 935.1670884 1631.61720616 945 1623 C945.83273437 1622.27554687 946.66546875 1621.55109375 947.5234375 1620.8046875 C955.12046886 1614.07458464 962.12638374 1607.23213544 968.25 1599.125 C968.81009766 1598.38523926 969.37019531 1597.64547852 969.94726562 1596.88330078 C998.14544947 1559.19257996 1016.76715562 1515.24778605 1032 1471 C1032.22494141 1470.34708984 1032.44988281 1469.69417969 1032.68164062 1469.02148438 C1058.82736816 1393.01979419 1078.27668051 1313.98484371 1087 1234 C1087.08036499 1233.27258606 1087.16072998 1232.54517212 1087.24353027 1231.79571533 C1095.1005565 1160.47258202 1097.30114595 1088.42867988 1099.5625 1016.75 C1099.59450752 1015.73867256 1099.62651505 1014.72734512 1099.65949249 1013.6853714 C1100.41598247 989.68014316 1101.04451609 965.67617254 1101.43523598 941.6620369 C1101.49189505 938.18591104 1101.55044813 934.70982144 1101.60942078 931.23373413 C1101.8359726 917.83260537 1101.8359726 917.83260537 1102.01541138 904.43078613 C1102.52582063 860.17048168 1102.52582063 860.17048168 1107 841 C1107.29088129 839.65819403 1107.58074923 838.3161678 1107.86938477 836.97387695 C1108.61452125 833.68810256 1109.4343029 830.43990929 1110.3125 827.1875 C1110.61099854 826.06424316 1110.90949707 824.94098633 1111.21704102 823.78369141 C1113.89488078 813.94973725 1117.06262828 804.40039531 1121 795 C1121.29986816 794.28199219 1121.59973633 793.56398438 1121.90869141 792.82421875 C1129.15467391 775.81091239 1138.8290097 760.9888819 1152 748 C1152.82113281 747.16855469 1153.64226562 746.33710937 1154.48828125 745.48046875 C1169.68010303 730.88537974 1189.13985046 724.41379829 1209.9296875 724.71875 C1243.47942083 725.98813075 1272.40151753 751.25513802 1294.45605469 774.33349609 C1297.41512587 777.52745876 1300.15549017 780.87621126 1302.83984375 784.3046875 C1304.63423562 786.5436213 1306.47712982 788.68959481 1308.37890625 790.8359375 C1311.76392909 794.68277964 1314.91304244 798.66205396 1318 802.75 C1318.82467773 803.83692139 1318.82467773 803.83692139 1319.66601562 804.94580078 C1320.84000821 806.49498348 1322.0125011 808.04530365 1323.18359375 809.59667969 C1325.02266542 812.02998903 1326.87036831 814.45657035 1328.71875 816.8828125 C1366.20970978 866.25747933 1393.92952104 924.02955984 1418 981 C1418.40454407 981.95737061 1418.40454407 981.95737061 1418.81726074 982.93408203 C1433.89182621 1018.70925227 1446.39887558 1055.3823397 1456 1093 C1456.17984436 1093.70324402 1456.35968872 1094.40648804 1456.54498291 1095.13104248 C1476.70918711 1174.31187328 1484.19721067 1256.32810429 1436.6875 1570.5 C1436.44898315 1571.26664978 1436.21046631 1572.03329956 1435.96472168 1572.82318115 C1426.78883761 1602.19819405 1415.63034387 1630.87419644 1404.05389404 1659.37002563 C1392.69736847 1687.33917062 1381.49208297 1715.33187693 1372 1744 C1371.73630615 1744.79617737 1371.4726123 1745.59235474 1371.20092773 1746.41265869 C1367.30212072 1758.22480178 1363.5742759 1770.08574699 1360 1782 C1359.7924408 1782.69186401 1359.58488159 1783.38372803 1359.37103271 1784.09655762 C1341.19799277 1844.90543857 1329.47377771 1907.68486098 1325 1971 C1324.94070313 1971.81549316 1324.88140625 1972.63098633 1324.8203125 1973.47119141 C1319.38106897 2051.74125824 1328.99144254 2134.3317141 1402 2278 C1409.14991984 2287.0560393 1415.73577961 2296.31290697 1422 2306 C1422.53141602 2306.81645996 1423.06283203 2307.63291992 1423.61035156 2308.47412109 C1432.22102227 2321.72452214 1440.35316819 2335.17159757 1448 2349 C1448.54092285 2349.97356445 1449.0818457 2350.94712891 1449.63916016 2351.95019531 C1485.33463726 2416.42238384 1511.9098667 2485.80521496 1527 2558 C1527.25974609 2559.24233398 1527.51949219 2560.48466797 1527.78710938 2561.76464844 C1532.95373497 2586.92802866 1536.61644821 2612.42166999 1539 2638 C1539.33 2638 1539.66 2638 1540 2638 C1540 1768.45 1540 898.9 1540 3 C1032.79 3 525.58 3 3 3 Z M1539 2746 C1538.94577881 2746.62302002 1538.89155762 2747.24604004 1538.83569336 2747.88793945 C1535.89179247 2780.52226483 1530.59827918 2813.12699932 1523 2845 C1522.7210791 2846.18787109 1522.4421582 2847.37574219 1522.15478516 2848.59960938 C1507.3841799 2910.81049835 1483.20785724 2972.91544153 1440 3021 C1439.5064502 3021.55526367 1439.01290039 3022.11052734 1438.50439453 3022.68261719 C1374.27321542 3094.79376848 1273.40475003 3111.49274846 1178.23046875 3117.6640625 C1176.15372862 3117.77756659 1174.07690709 3117.88959303 1172 3118 C1171.02240723 3118.05639648 1170.04481445 3118.11279297 1169.03759766 3118.17089844 C1088.65022001 3122.70770486 1007.0746292 3114.15244818 811.94165039 3040.83569336 C809.21988506 3039.66423571 807.81803397 3040.14597958 805 3041 C802.90126747 3041.85152274 800.82623502 3042.76239187 798.76953125 3043.7109375 C797.85410301 3044.13016479 797.85410301 3044.13016479 796.92018127 3044.55786133 C795.58730609 3045.16897259 794.25553504 3045.78249645 792.92474365 3046.39813232 C790.76086588 3047.39887968 788.59401787 3048.39292065 786.42626953 3049.38525391 C783.2753575 3050.8279148 780.12540598 3052.27264275 776.97607422 3053.71875 C749.21278137 3066.45685571 721.32903886 3078.90425157 693.28540039 3091.01226807 C691.05984555 3091.97413523 688.83538409 3092.93848137 686.61132812 3093.90380859 C552.57282993 3152.06663003 552.57282993 3152.06663003 487 3168 C485.83791016 3168.28472168 485.83791016 3168.28472168 484.65234375 3168.57519531 C415.52360839 3184.95289103 334.91282278 3163.73721665 272 3135 C271.22333984 3134.6508252 270.44667969 3134.30165039 269.64648438 3133.94189453 C229.22363182 3115.76225781 192.70925928 3088.79041396 160.11328125 3058.93359375 C158.14330794 3057.13112279 156.14377944 3055.37241601 154.125 3053.625 C149.19296907 3049.32680437 144.39395839 3044.88396789 139.58203125 3040.45263672 C138.00703135 3039.00645626 136.4263829 3037.56672628 134.84375 3036.12890625 C129.76176203 3031.50601883 124.77334892 3026.82812421 119.95776367 3021.92529297 C118.25033122 3020.24617933 116.50925802 3018.70527851 114.67578125 3017.16796875 C108.63281015 3011.91436336 103.04068337 3006.18954813 97.39086914 3000.52124023 C95.4420313 2998.56704376 93.48790728 2996.61824853 91.53320312 2994.66992188 C85.94913513 2989.08848182 80.40699944 2983.52779103 75.29223633 2977.50610352 C73.6731021 2975.61899997 71.92793487 2973.89828486 70.125 2972.1875 C65.33414297 2967.45192209 61.17675692 2962.27663624 57 2957 C56.2059375 2956.02289062 55.411875 2955.04578125 54.59375 2954.0390625 C47.54783005 2945.18706813 41.66202076 2935.7852641 36 2926 C35.60425781 2925.32517578 35.20851562 2924.65035156 34.80078125 2923.95507812 C15.6578849 2890.99401598 7.26729643 2852.65697578 4 2815 C3.67 2815 3.34 2815 3 2815 C3 3104.08 3 3393.16 3 3691 C510.21 3691 1017.42 3691 1540 3691 C1540 3379.15 1540 3067.3 1540 2746 C1539.67 2746 1539.34 2746 1539 2746 Z " fill="#FEFEFE" transform="translate(0,0)"/>
<path d="M0 0 C0.33 0.66 0.66 1.32 1 2 C1.95424545 1.99750431 2.9084909 1.99500862 3.89165287 1.9924373 C172.04927486 1.55327395 172.04927486 1.55327395 315.47439575 1.32250977 C317.04080026 1.32027856 318.60720477 1.31804733 320.17360928 1.31581609 C353.05240175 1.26905375 385.93119792 1.22558623 418.80999972 1.18592515 C435.32595763 1.16599874 451.8419147 1.14543916 468.35787107 1.12428094 C470.84925044 1.12109296 473.34062983 1.11792306 475.83200922 1.11475392 C514.19859328 1.06579057 552.56509615 1.00324291 590.93157959 0.90136719 C591.75657718 0.89917681 592.58157478 0.89698643 593.4315723 0.89472967 C606.73309045 0.85933145 620.03460547 0.82279381 633.33612011 0.78610495 C671.64570394 0.68045505 709.95522534 0.58322203 748.26494026 0.54176331 C749.05264786 0.54090674 749.84035546 0.54005018 750.65193299 0.53916767 C767.94349098 0.520516 785.23504974 0.50619808 802.52661469 0.49598427 C809.48402281 0.49179829 816.44143048 0.48698837 823.39883804 0.48196411 C824.54102918 0.48116186 824.54102918 0.48116186 825.70629489 0.4803434 C850.24604452 0.46279673 874.78533046 0.39444833 899.32489291 0.29948466 C924.04207809 0.20406598 948.75881324 0.15840692 973.47618729 0.18201619 C976.89110251 0.18526552 980.30601795 0.18794363 983.72093391 0.1902771 C984.72507337 0.19099423 984.72507337 0.19099423 985.74949846 0.19172585 C996.99879747 0.19818927 1008.24724382 0.14111703 1019.49629921 0.06723931 C1029.27654463 0.00738015 1039.05568616 0.00528001 1048.83600687 0.05069098 C1054.41481322 0.07492396 1059.99043689 0.07352763 1065.56890593 0.00186908 C1070.64356308 -0.06282416 1075.71255287 -0.05401569 1080.7871213 0.01376039 C1082.61226187 0.02520116 1084.43781704 0.00972091 1086.26242663 -0.03576392 C1099.47898271 -0.34437865 1099.47898271 -0.34437865 1103.67865097 3.56103392 C1106.7487155 7.39449939 1108.94361995 11.58029536 1111.01854538 16.0129006 C1112.48889341 18.98983669 1114.30987356 21.63918943 1116.1875 24.375 C1127.98825647 42.53056189 1138.19288526 61.71469071 1148 81 C1148.71066921 82.38164845 1149.42158345 83.76317091 1150.1328125 85.14453125 C1172.6575593 129.20078116 1189.91196491 176.05049588 1202 224 C1202.36306994 225.42583507 1202.72633068 226.85162159 1203.08984375 228.27734375 C1203.90524021 231.50290805 1204.70369398 234.73200105 1205.49365234 237.96386719 C1206.02690713 240.10819934 1206.58523854 242.24513346 1207.14453125 244.3828125 C1213.1648445 267.88090813 1216.63136766 292.04098557 1219.3125 316.125 C1219.39372101 316.8472879 1219.47494202 317.56957581 1219.55862427 318.31375122 C1221.82795036 338.76579279 1222.21443137 359.14941096 1222.24023438 379.70776367 C1222.24458785 382.67110718 1222.25838548 385.63415442 1222.28125 388.59741211 C1222.43745268 409.27625678 1221.40007341 429.451312 1219 450 C1218.77438408 452.01062095 1218.54909825 454.02127898 1218.32421875 456.03198242 C1214.10751863 492.97516234 1206.6189528 530.46319894 1195.05029297 565.78320312 C1193.97269971 569.08361429 1192.92482826 572.39255447 1191.87890625 575.703125 C1180.44577165 611.44162868 1164.82238085 647.63857786 1141 677 C1140.28714844 677.90234375 1139.57429688 678.8046875 1138.83984375 679.734375 C1109.58129671 716.26885702 1071.81656019 742.18760469 1027 756 C1025.48043701 756.47880615 1025.48043701 756.47880615 1023.93017578 756.96728516 C1006.28445428 762.47679743 988.57854145 766.29520381 970.39257812 769.41552734 C967.64785261 769.88838809 964.90925134 770.38142392 962.171875 770.89453125 C947.32580958 773.62203972 932.26931844 775.18088661 917.26544189 776.75854492 C915.11460373 776.98778532 912.96525113 777.22781188 910.81591797 777.47070312 C886.49630007 780.16993626 862.1184852 780.31795897 837.67827988 780.36836243 C835.10854047 780.37488317 832.53886342 780.38633269 829.96914673 780.39880371 C807.46088581 780.49344309 785.37393227 779.48352788 763 777 C761.05433001 776.7934793 759.10861526 776.58737944 757.1628418 776.38183594 C752.37317632 775.86406299 747.59195334 775.2918652 742.8125 774.6875 C741.98623108 774.58395203 741.15996216 774.48040405 740.30865479 774.37371826 C724.35353593 772.35360809 708.69997334 769.51136469 693 766 C691.71851074 765.71866211 690.43702148 765.43732422 689.11669922 765.14746094 C674.55820154 761.94614764 660.2289395 758.41238571 646.08984375 753.67773438 C643.33521824 752.78441189 640.55572099 751.99731577 637.76855469 751.21264648 C613.43151661 744.340374 589.50852536 734.73297685 567.08251953 723.06689453 C564.72347496 721.8583336 562.34634761 720.6910077 559.96484375 719.52734375 C537.54858921 708.54858921 537.54858921 708.54858921 533 704 C532.90227688 701.5084728 532.87004182 699.04469492 532.87974548 696.55271912 C532.87889106 695.76373909 532.87803663 694.97475906 532.87715632 694.16187054 C532.87549911 691.49778373 532.88102679 688.83375882 532.88647461 686.16967773 C532.88675646 684.26807659 532.8865988 682.36647534 532.8860321 680.46487427 C532.88574403 675.28533716 532.89164237 670.10582299 532.89860606 664.92629123 C532.90483794 659.51971473 532.90544327 654.11313776 532.90663147 648.70655823 C532.90974528 638.46074709 532.91795933 628.21494657 532.92798096 617.96914011 C532.93914057 606.30791337 532.94465216 594.64668614 532.94967639 582.98545539 C532.9601419 558.9902975 532.97794265 534.99514979 533 511 C523.43 511 513.86 511 504 511 C504 575.02 504 639.04 504 705 C500.7 706.32 497.4 707.64 494 709 C491.38575253 710.16224588 488.78676472 711.33691538 486.1953125 712.546875 C484.72894349 713.22546847 483.26255255 713.90401457 481.79614258 714.58251953 C481.03621002 714.9352594 480.27627747 715.28799927 479.49331665 715.65142822 C462.26129147 723.64470756 444.9412286 731.42754438 427.56394958 739.0990448 C423.30649547 740.97868033 419.05231009 742.86539061 414.80166626 744.76037598 C345.76284999 775.53535681 275.21942358 806.56149396 202.375 827.1875 C201.72395294 827.37281281 201.07290588 827.55812561 200.40213013 827.74905396 C183.65076235 832.48055288 167.44307432 834.17871904 150.09545898 834.13037109 C147.83375212 834.12505 145.57224743 834.13032629 143.31054688 834.13671875 C130.07403613 834.14383351 116.87671277 833.62968177 103.75 831.8125 C102.84797852 831.68794434 101.94595703 831.56338867 101.01660156 831.43505859 C82.4523751 828.71719565 63.92190259 824.56749908 46 819 C44.66437012 818.58693604 44.66437012 818.58693604 43.30175781 818.16552734 C-21.66220169 797.83270877 -75.60064269 760.79124731 -125.03125 714.75390625 C-127.59668376 712.36599135 -130.19652273 710.02007973 -132.8125 707.6875 C-146.40172986 695.47448589 -159.43717686 682.7235172 -172.33959961 669.79077148 C-175.08657845 667.03837405 -177.83894203 664.29144104 -180.59179688 661.54492188 C-182.36490448 659.7711543 -184.13770231 657.997077 -185.91015625 656.22265625 C-186.72065933 655.4141774 -187.53116241 654.60569855 -188.3662262 653.77272034 C-192.59573342 649.52586896 -196.67144964 645.20401681 -200.57392883 640.65388489 C-202.3602052 638.5822523 -204.24502684 636.61153035 -206.125 634.625 C-236.44461266 600.84471605 -251.68464171 556.49714223 -257 512 C-257.09498779 511.24871826 -257.18997559 510.49743652 -257.2878418 509.72338867 C-258.28035421 500.67085206 -258.25763113 491.56643452 -258.29516602 482.4699707 C-258.30662639 480.54769495 -258.32698264 478.6254495 -258.35668945 476.70336914 C-258.56825195 462.94471564 -257.22048251 450.37340687 -254 437 C-253.76337646 435.95078369 -253.52675293 434.90156738 -253.28295898 433.82055664 C-252.74163372 431.4539621 -252.16566031 429.10148895 -251.5625 426.75 C-251.24684082 425.50984131 -251.24684082 425.50984131 -250.92480469 424.24462891 C-247.77535527 412.06691426 -243.76824832 400.20451849 -239.6875 388.3125 C-239.17364746 386.80985596 -239.17364746 386.80985596 -238.64941406 385.27685547 C-232.65425844 367.98565049 -225.91527663 350.99736683 -218.6875 334.1875 C-218.30759918 333.30168243 -217.92769836 332.41586487 -217.5362854 331.50320435 C-181.67821558 248.07394103 -181.67821558 248.07394103 -155.33056641 212.79296875 C-153.30420446 210.06239955 -151.32259874 207.29998088 -149.33618164 204.5402832 C-147.67792822 202.23670326 -146.0152995 199.93634064 -144.3515625 197.63671875 C-142.15548737 194.60006814 -139.96278675 191.5610344 -137.7734375 188.51953125 C-131.64502803 180.01007941 -125.46380502 171.54260315 -119.23291016 163.10791016 C-113.09080366 154.78497251 -107.04209317 146.39567785 -101 138 C-93.79877656 127.9936743 -86.55744101 118.02060494 -79.23071289 108.10571289 C-75.28592959 102.76164384 -71.38037592 97.39098455 -67.5 92 C-62.45992181 84.99784758 -57.35786615 78.04386744 -52.23046875 71.10546875 C-48.28584489 65.76142179 -44.38041885 60.39081451 -40.5 55 C-34.33079901 46.43244601 -28.07560479 37.93019948 -21.80126953 29.43945312 C-19.93682835 26.91444686 -18.0753988 24.38724594 -16.21484375 21.859375 C-15.59279053 21.01431396 -14.9707373 20.16925293 -14.32983398 19.29858398 C-13.15077558 17.69666914 -11.97188861 16.09462809 -10.79321289 14.49243164 C-7.22132532 9.64201609 -3.62243631 4.81278194 0 0 Z " fill="#FEFEFE" transform="translate(290,2310)"/>
<path d="M0 0 C509.19 0 1018.38 0 1543 0 C1543 1219.02 1543 2438.04 1543 3694 C1033.81 3694 524.62 3694 0 3694 C0 2474.98 0 1255.96 0 0 Z M3 3 C3 914.46 3 1825.92 3 2765 C3.33 2765 3.66 2765 4 2765 C4.11891602 2764.19054932 4.11891602 2764.19054932 4.24023438 2763.36474609 C15.94226976 2685.86300621 51.33396819 2607.65600694 90 2540 C90.78238037 2538.62279785 90.78238037 2538.62279785 91.58056641 2537.21777344 C98.31912186 2525.40760029 105.44418001 2514.05374343 113.47753906 2503.08300781 C115.04661109 2500.93622742 116.59928274 2498.77837756 118.1484375 2496.6171875 C124.28639126 2488.06362785 130.5115751 2479.57615016 136.7668457 2471.1081543 C142.90916396 2462.78523214 148.95784112 2454.39576915 155 2446 C162.20122344 2435.9936743 169.44255899 2426.02060494 176.76928711 2416.10571289 C180.71407041 2410.76164384 184.61962408 2405.39098455 188.5 2400 C193.54007819 2392.99784758 198.64213385 2386.04386744 203.76953125 2379.10546875 C207.71415404 2373.76142324 211.61969056 2368.39089219 215.5 2363 C220.54007819 2355.99784758 225.64213385 2349.04386744 230.76953125 2342.10546875 C235.25231684 2336.03233794 239.67854715 2329.92027513 244.08789062 2323.79370117 C248.75912707 2317.31228931 253.49239848 2310.87764562 258.24414062 2304.45507812 C258.79263672 2303.71322266 259.34113281 2302.97136719 259.90625 2302.20703125 C260.38384766 2301.5622583 260.86144531 2300.91748535 261.35351562 2300.25317383 C261.89685547 2299.50962646 262.44019531 2298.7660791 263 2298 C263.40565091 2297.5249855 263.81130182 2297.04997101 264.22924519 2296.56056213 C268.07800348 2291.78981292 268.73765258 2288.16041744 268.71948242 2282.12963867 C268.74510018 2280.83213637 268.74510018 2280.83213637 268.77123547 2279.5084219 C268.82220577 2276.6447772 268.83878323 2273.78200152 268.85546875 2270.91796875 C268.88525724 2268.89062129 268.91733772 2266.86330637 268.9515686 2264.83602905 C269.02012671 2260.52852991 269.07415397 2256.22119537 269.11660767 2251.9133606 C269.18420511 2245.13763651 269.28789218 2238.36277726 269.39916992 2231.58764648 C269.43593179 2229.32679853 269.47262936 2227.06594953 269.50926208 2224.80509949 C269.53631635 2223.13608613 269.53631635 2223.13608613 269.56391716 2221.43335533 C269.61711757 2218.07472741 269.66724045 2214.71606832 269.71620178 2211.3573761 C271.19152862 2110.27205529 278.05161231 2009.09524436 300 1829 C300.13472717 1828.09544067 300.26945435 1827.19088135 300.40826416 1826.25891113 C309.14871018 1767.64619058 320.14208922 1708.29286983 339 1652 C339.45439453 1650.6087793 339.45439453 1650.6087793 339.91796875 1649.18945312 C351.83560804 1612.75768239 368.33979169 1577.75527956 385.65869141 1543.61694336 C386.3755065 1542.20305398 387.09214296 1540.78907402 387.80859375 1539.375 C388.15758728 1538.68647446 388.50658081 1537.99794891 388.8661499 1537.28855896 C391.40161809 1532.25806649 393.81502284 1527.17760858 396.19140625 1522.0703125 C399.07873682 1515.87270025 402.14216539 1509.83370778 405.5 1503.875 C410.13565596 1495.52057306 414.56300661 1487.07707103 418.91073608 1478.57089233 C424.48015453 1467.67688142 430.19109968 1456.90685744 436.27709961 1446.28930664 C440.12210511 1439.58002481 443.83800586 1432.8107833 447.5 1426 C453.83614643 1414.23842157 460.38084361 1402.60420281 467 1391 C467.62277832 1389.90671387 468.24555664 1388.81342773 468.88720703 1387.68701172 C487.75157481 1354.57687479 506.89585827 1321.63541885 526.31494141 1288.84765625 C528.1331531 1285.77497859 529.94752902 1282.70005389 531.76171875 1279.625 C538.88445311 1267.56375425 546.07176139 1255.54668853 553.36447144 1243.58737183 C558.83988086 1234.60584156 564.22922179 1225.57628881 569.58120728 1216.52072144 C575.43073092 1206.62392532 581.31133345 1196.7671166 587.51171875 1187.08447266 C591.89159987 1180.22880928 596.10455563 1173.27438481 600.3125 1166.3125 C606.26167632 1156.47382719 612.28567182 1146.68767686 618.39892578 1136.94970703 C623.03820545 1129.55512538 627.62188588 1122.12776005 632.1875 1114.6875 C637.23654543 1106.46407864 642.32421578 1098.26858787 647.49291992 1090.11987305 C651.52371166 1083.76422553 655.51558776 1077.384812 659.5 1071 C665.48837981 1061.40751675 671.50946181 1051.8364413 677.55712891 1042.28125 C679.01248433 1039.98026167 680.46559118 1037.67786895 681.91796875 1035.375 C688.9918802 1024.15989067 696.10274309 1012.96861947 703.2265625 1001.78515625 C704.96470718 999.05542684 706.70138106 996.32476815 708.4375 993.59375 C721.04096087 973.76935082 733.68426514 953.97247677 746.50927734 934.29052734 C748.88798935 930.63558531 751.25696933 926.97436833 753.625 923.3125 C754.07431885 922.61785645 754.5236377 921.92321289 754.98657227 921.20751953 C757.19257016 917.79654468 759.39743096 914.38483735 761.6015625 910.97265625 C763.87686453 907.45121478 766.15510314 903.93168812 768.43554688 900.41357422 C769.54668549 898.69935506 770.65730928 896.98480215 771.76757812 895.27001953 C800.37545182 851.11276714 831.6339088 810.26791027 886.04296875 798.5078125 C917.28312593 793.14292421 950.32077628 799.36427222 976.73486328 817.16943359 C980.03436561 819.56066347 983.03406349 822.21192354 986 825 C986.84691406 825.76828125 987.69382812 826.5365625 988.56640625 827.328125 C1014.68226487 852.04847973 1023.75485634 889.53182395 1025.12890625 924.2578125 C1025.44587963 942.13511124 1022.64716118 960.02181189 1019.8125 977.625 C1019.64560669 978.66510223 1019.47871338 979.70520447 1019.3067627 980.77682495 C1004.78072395 1070.47869495 983.02844785 1159.14907334 892.8515625 1510.69921875 C892.36300529 1512.42625031 892.36300529 1512.42625031 891.86457825 1514.18817139 C890.37664843 1519.44431977 888.87997139 1524.69753638 887.36108398 1529.94482422 C884.07432526 1541.40911755 881.4686011 1552.86043651 879.41894531 1564.60968018 C878.9800892 1567.11360236 878.52173737 1569.61349265 878.0612793 1572.11352539 C876.31004905 1581.74532228 875.69733725 1591.20901989 875.625 1601 C875.61114258 1602.10939941 875.59728516 1603.21879883 875.58300781 1604.36181641 C875.64715202 1615.64275756 877.37277557 1626.28317208 885 1635 C892.15132151 1641.35673023 901.00367174 1640.47255243 910 1640 C923.08567076 1638.2369121 935.1670884 1631.61720616 945 1623 C945.83273437 1622.27554687 946.66546875 1621.55109375 947.5234375 1620.8046875 C955.12046886 1614.07458464 962.12638374 1607.23213544 968.25 1599.125 C968.81009766 1598.38523926 969.37019531 1597.64547852 969.94726562 1596.88330078 C998.14544947 1559.19257996 1016.76715562 1515.24778605 1032 1471 C1032.22494141 1470.34708984 1032.44988281 1469.69417969 1032.68164062 1469.02148438 C1058.82736816 1393.01979419 1078.27668051 1313.98484371 1087 1234 C1087.08036499 1233.27258606 1087.16072998 1232.54517212 1087.24353027 1231.79571533 C1095.1005565 1160.47258202 1097.30114595 1088.42867988 1099.5625 1016.75 C1099.59450752 1015.73867256 1099.62651505 1014.72734512 1099.65949249 1013.6853714 C1100.41598247 989.68014316 1101.04451609 965.67617254 1101.43523598 941.6620369 C1101.49189505 938.18591104 1101.55044813 934.70982144 1101.60942078 931.23373413 C1101.8359726 917.83260537 1101.8359726 917.83260537 1102.01541138 904.43078613 C1102.52582063 860.17048168 1102.52582063 860.17048168 1107 841 C1107.29088129 839.65819403 1107.58074923 838.3161678 1107.86938477 836.97387695 C1108.61452125 833.68810256 1109.4343029 830.43990929 1110.3125 827.1875 C1110.61099854 826.06424316 1110.90949707 824.94098633 1111.21704102 823.78369141 C1113.89488078 813.94973725 1117.06262828 804.40039531 1121 795 C1121.29986816 794.28199219 1121.59973633 793.56398438 1121.90869141 792.82421875 C1129.15467391 775.81091239 1138.8290097 760.9888819 1152 748 C1152.82113281 747.16855469 1153.64226562 746.33710937 1154.48828125 745.48046875 C1169.68010303 730.88537974 1189.13985046 724.41379829 1209.9296875 724.71875 C1243.47942083 725.98813075 1272.40151753 751.25513802 1294.45605469 774.33349609 C1297.41512587 777.52745876 1300.15549017 780.87621126 1302.83984375 784.3046875 C1304.63423562 786.5436213 1306.47712982 788.68959481 1308.37890625 790.8359375 C1311.76392909 794.68277964 1314.91304244 798.66205396 1318 802.75 C1318.82467773 803.83692139 1318.82467773 803.83692139 1319.66601562 804.94580078 C1320.84000821 806.49498348 1322.0125011 808.04530365 1323.18359375 809.59667969 C1325.02266542 812.02998903 1326.87036831 814.45657035 1328.71875 816.8828125 C1366.20970978 866.25747933 1393.92952104 924.02955984 1418 981 C1418.40454407 981.95737061 1418.40454407 981.95737061 1418.81726074 982.93408203 C1433.89182621 1018.70925227 1446.39887558 1055.3823397 1456 1093 C1456.17984436 1093.70324402 1456.35968872 1094.40648804 1456.54498291 1095.13104248 C1476.70918711 1174.31187328 1484.19721067 1256.32810429 1436.6875 1570.5 C1436.44898315 1571.26664978 1436.21046631 1572.03329956 1435.96472168 1572.82318115 C1426.78883761 1602.19819405 1415.63034387 1630.87419644 1404.05389404 1659.37002563 C1392.69736847 1687.33917062 1381.49208297 1715.33187693 1372 1744 C1371.73630615 1744.79617737 1371.4726123 1745.59235474 1371.20092773 1746.41265869 C1367.30212072 1758.22480178 1363.5742759 1770.08574699 1360 1782 C1359.7924408 1782.69186401 1359.58488159 1783.38372803 1359.37103271 1784.09655762 C1341.19799277 1844.90543857 1329.47377771 1907.68486098 1325 1971 C1324.94070313 1971.81549316 1324.88140625 1972.63098633 1324.8203125 1973.47119141 C1319.38106897 2051.74125824 1328.99144254 2134.3317141 1402 2278 C1409.14991984 2287.0560393 1415.73577961 2296.31290697 1422 2306 C1422.53141602 2306.81645996 1423.06283203 2307.63291992 1423.61035156 2308.47412109 C1432.22102227 2321.72452214 1440.35316819 2335.17159757 1448 2349 C1448.54092285 2349.97356445 1449.0818457 2350.94712891 1449.63916016 2351.95019531 C1485.33463726 2416.42238384 1511.9098667 2485.80521496 1527 2558 C1527.25974609 2559.24233398 1527.51949219 2560.48466797 1527.78710938 2561.76464844 C1532.95373497 2586.92802866 1536.61644821 2612.42166999 1539 2638 C1539.33 2638 1539.66 2638 1540 2638 C1540 1768.45 1540 898.9 1540 3 C1032.79 3 525.58 3 3 3 Z M1168 772 C1167.38382813 772.60328125 1166.76765625 773.2065625 1166.1328125 773.828125 C1150.90558589 789.96758177 1142.63732727 813.49443579 1137.4375 834.5625 C1137.14681641 835.69751953 1136.85613281 836.83253906 1136.55664062 838.00195312 C1132.17652237 855.57142074 1130.52707135 872.3519529 1130.33984375 890.4296875 C1130.30619459 892.68354723 1130.27122457 894.93738758 1130.23503113 897.19120789 C1130.16072045 901.95309422 1130.094177 906.71499566 1130.03399658 911.4770813 C1129.93862147 918.96537749 1129.82217362 926.45324902 1129.70068359 933.94116211 C1129.68052689 935.18534125 1129.66037018 936.4295204 1129.63960266 937.71140194 C1129.59897724 940.21426271 1129.55826964 942.71712215 1129.51747894 945.21998024 C1129.45716742 948.94861313 1129.39835289 952.67726704 1129.33990479 956.40592957 C1127.86228744 1050.06751347 1124.58138379 1144.33880655 1110 1277 C1109.86722656 1277.77160461 1109.73445313 1278.54320923 1109.59765625 1279.3381958 C1105.28616102 1304.34282307 1100.52696172 1329.2350229 1095 1354 C1094.72913574 1355.21429687 1094.45827148 1356.42859375 1094.17919922 1357.6796875 C1091.66762713 1368.87325591 1089.10525742 1380.04393052 1086.05859375 1391.10546875 C1085.20008262 1394.2237487 1084.39422639 1397.35361546 1083.59765625 1400.48828125 C1081.12708839 1410.18516065 1078.57678722 1419.74984032 1075.27587891 1429.20092773 C1074.00499594 1432.91474287 1072.91824789 1436.67482619 1071.84375 1440.44921875 C1068.57371984 1451.71783194 1064.83181229 1462.82779319 1061.0625 1473.9375 C1060.69172333 1475.03139038 1060.32094666 1476.12528076 1059.93893433 1477.25231934 C1053.38512088 1496.51790353 1046.15472554 1515.36062735 1038 1534 C1037.3186499 1535.58167969 1037.3186499 1535.58167969 1036.62353516 1537.1953125 C1030.55528001 1551.25439285 1023.55826285 1564.68793596 1016 1578 C1015.56155762 1578.77746582 1015.12311523 1579.55493164 1014.67138672 1580.35595703 C999.79255575 1606.63864767 981.81668737 1632.27701866 957 1650 C956.09894531 1650.64453125 955.19789063 1651.2890625 954.26953125 1651.953125 C934.17183369 1665.45294 911.70169392 1671.22466439 887.50585938 1667.62939453 C877.50038318 1665.59455893 867.49101164 1660.18761603 861.41796875 1651.8203125 C841.07576155 1619.58177653 847.24101744 1574.44483258 855.2288208 1539.02963257 C858.13079082 1526.33644494 861.28669993 1513.70323336 864.49291992 1501.08398438 C866.77756348 1492.04721087 868.81593317 1482.96789413 870.80126953 1473.86132812 C872.62514822 1465.54647995 874.64949313 1457.29686148 876.75244141 1449.04882812 C878.62523489 1441.64527025 880.31100592 1434.21121888 881.9375 1426.75 C883.96494301 1417.45577442 886.15663361 1408.21959199 888.5 1399 C890.82219408 1389.86337401 892.99472663 1380.71138945 895 1371.5 C897.26238647 1361.10754021 899.77242258 1350.79687095 902.39233398 1340.48925781 C904.7083641 1331.31713964 906.78602068 1322.10559562 908.80078125 1312.86328125 C910.62494563 1304.54780853 912.64932679 1296.29751386 914.75244141 1288.04882812 C916.62523489 1280.64527025 918.31100592 1273.21121888 919.9375 1265.75 C922.22249651 1255.27509496 924.75114543 1244.88055099 927.39208984 1234.49023438 C929.70819629 1225.31778854 931.785949 1216.10592443 933.80078125 1206.86328125 C935.62494563 1198.54780853 937.64932679 1190.29751386 939.75244141 1182.04882812 C941.62523489 1174.64527025 943.31100592 1167.21121888 944.9375 1159.75 C946.96494301 1150.45577442 949.15663361 1141.21959199 951.5 1132 C953.82219408 1122.86337401 955.99472663 1113.71138945 958 1104.5 C960.26238647 1094.10754021 962.77242258 1083.79687095 965.39233398 1073.48925781 C967.7083641 1064.31713964 969.78602068 1055.10559562 971.80078125 1045.86328125 C973.62494563 1037.54780853 975.64932679 1029.29751386 977.75244141 1021.04882812 C979.6252342 1013.64527298 981.31109145 1006.21123672 982.9375 998.75 C985.27053533 988.04962985 987.83277771 977.42212095 990.55249023 966.81347656 C991.38584225 963.54640499 992.19663053 960.27456412 993 957 C993.28464111 955.88052979 993.56928223 954.76105957 993.86254883 953.60766602 C995.94901795 944.83881488 996.42453652 936.55679189 996.3125 927.5625 C996.31572266 926.27279297 996.31894531 924.98308594 996.32226562 923.65429688 C996.16699121 895.46493338 988.42005537 868.94957459 968.625 848.25 C950.32689898 830.70387574 927.09146636 825.52527761 902.5390625 825.796875 C877.24871133 826.38619265 855.21568513 839.14929406 837.49462891 856.54492188 C835.95970977 858.03922407 834.39489064 859.49651892 832.82421875 860.953125 C819.52138329 873.49591273 810.02687552 888.74589754 800.3046875 904.1105957 C795.22182283 912.13926661 789.9881624 920.05224578 784.6875 927.9375 C779.16559921 936.15798349 773.79140822 944.4382956 768.69140625 952.9284668 C765.96939396 957.45097679 763.14137604 961.87560295 760.1875 966.25 C754.24612952 975.04930498 748.59391888 984.02877371 742.90917969 992.99511719 C739.61986735 998.17220878 736.30915561 1003.33557871 733 1008.5 C722.09438204 1025.52903714 711.24190672 1042.59109835 700.45458984 1059.6953125 C699.00918211 1061.98545164 697.56159316 1064.27419657 696.11328125 1066.5625 C688.6759278 1078.31658669 681.29741391 1090.10689582 673.93212891 1101.90625 C672.01237228 1104.98018935 670.09053742 1108.05281876 668.16796875 1111.125 C656.06013864 1130.47482405 644.05746663 1149.88801557 632.1015625 1169.33203125 C629.41179856 1173.70624868 626.71907364 1178.07861778 624.0234375 1182.44921875 C615.35827106 1196.50312243 606.75919661 1210.59579299 598.2040863 1224.71682739 C595.74743864 1228.7705636 593.28364133 1232.81988814 590.81640625 1236.8671875 C582.43718976 1250.61902303 574.15608791 1264.42551034 565.95019531 1278.28149414 C561.12115234 1286.43472782 556.26328116 1294.56957844 551.375 1302.6875 C538.61301658 1323.90820715 526.19440507 1345.32991016 513.84716797 1366.79394531 C511.97703772 1370.0398547 510.1007547 1373.28213282 508.22265625 1376.5234375 C498.38749902 1393.50613488 488.76964161 1410.60263754 479.24609375 1427.76171875 C478.61823975 1428.89295166 477.99038574 1430.02418457 477.34350586 1431.18969727 C476.07412354 1433.4775772 474.80540463 1435.76582534 473.53735352 1438.05444336 C470.6043983 1443.34137587 467.65745157 1448.61864912 464.65625 1453.8671875 C458.29390912 1464.99456866 452.19148358 1476.21496046 446.37084961 1487.63671875 C443.33525819 1493.57488809 440.21429724 1499.44826675 436.99186707 1505.28671265 C428.98441453 1519.81198829 421.52363853 1534.5967095 414.125 1549.4375 C413.4562458 1550.77723075 412.78747326 1552.11695235 412.11868286 1553.45666504 C402.64497531 1572.44594438 393.24629814 1591.43659505 385 1611 C384.72879333 1611.64187256 384.45758667 1612.28374512 384.17816162 1612.94506836 C374.43834941 1636.02740289 365.42722134 1659.13923256 359.421875 1683.5078125 C358.42543809 1687.49573418 357.2730764 1691.40730746 356.0390625 1695.328125 C353.94574262 1702.03168568 352.24290149 1708.793024 350.625 1715.625 C350.32537354 1716.88135254 350.02574707 1718.13770508 349.71704102 1719.43212891 C342.73408236 1748.81081429 336.5299833 1778.29885745 331.92578125 1808.1484375 C331.34780989 1811.87259929 330.7267078 1815.58287816 330.04296875 1819.2890625 C327.01330528 1835.71717764 324.98238749 1852.24419681 322.91261292 1868.81416321 C321.96970577 1876.32377993 320.93223765 1883.81809881 319.875 1891.3125 C316.47639067 1915.68982824 314.04759749 1940.14150802 311.78019714 1964.64520264 C311.27512712 1970.09208863 310.75490592 1975.53719833 310.21983337 1980.98121643 C307.60898842 2007.60315621 305.88358324 2034.22609815 304.48178101 2060.93759155 C304.01303196 2069.85727776 303.48888132 2078.77259209 302.9375 2087.6875 C302.85870605 2088.9863916 302.77991211 2090.2852832 302.69873047 2091.62353516 C302.31498268 2097.94535931 301.91818012 2104.26604026 301.50390625 2110.5859375 C300.93781858 2119.38742259 300.44871223 2128.19178313 300 2137 C299.9310553 2138.33741241 299.9310553 2138.33741241 299.86071777 2139.70184326 C297.4288311 2187.49745026 298 2235.08342275 298 2283 C651.43 2283 1004.86 2283 1369 2283 C1364.98935853 2275.76793548 1364.98935853 2275.76793548 1360.66650391 2268.79418945 C1343.5844332 2242.52040594 1331.70067332 2213.27988425 1321.8737793 2183.63452148 C1321.25963135 2181.78281136 1320.6380287 2179.93356518 1320.01098633 2178.08618164 C1306.57445774 2138.36037439 1299.79487023 2095.75551348 1297 2054 C1296.91322998 2052.77337646 1296.91322998 2052.77337646 1296.82470703 2051.52197266 C1290.77693888 1961.84631255 1304.95467189 1871.49007467 1335.4375 1764.9375 C1335.69055908 1764.11483643 1335.94361816 1763.29217285 1336.2043457 1762.44458008 C1347.01647185 1727.40125933 1359.48957852 1693.13159287 1373.18359375 1659.12109375 C1383.60063758 1633.23861964 1393.91697552 1607.38413065 1403 1581 C1403.52798267 1579.4741169 1404.05597776 1577.9482381 1404.58398438 1576.42236328 C1410.80705666 1558.39121451 1416.54614803 1540.34963058 1421.25732422 1521.85546875 C1421.96031801 1519.15257087 1422.70482454 1516.4663621 1423.47265625 1513.78125 C1431.28126938 1486.42249155 1436.72408268 1458.49561991 1441.41552734 1430.45556641 C1441.88711284 1427.66742056 1442.37873907 1424.88565526 1442.89453125 1422.10546875 C1445.66380201 1406.99290822 1447.21784648 1391.66792427 1448.75854492 1376.3895874 C1448.91611575 1374.83016997 1449.07569155 1373.27095345 1449.23754883 1371.7119751 C1451.88483815 1346.13652681 1452.26916526 1320.62448053 1452.25 1294.9375 C1452.24973312 1294.16101231 1452.24946625 1293.38452461 1452.24919128 1292.58450699 C1452.23512739 1266.75433674 1451.93817694 1241.01434919 1449.125 1215.3125 C1448.94585317 1213.62462207 1448.76698337 1211.93671471 1448.58837891 1210.2487793 C1446.42032647 1189.97781896 1443.65904921 1169.86553461 1439.625 1149.875 C1439.40658447 1148.78823975 1439.18816895 1147.70147949 1438.96313477 1146.58178711 C1437.24195954 1138.07498045 1435.4043428 1129.59991231 1433.47949219 1121.13720703 C1432.98578899 1118.93665826 1432.51026377 1116.73281419 1432.0390625 1114.52734375 C1423.13319421 1073.0294056 1408.98432554 1031.85891458 1392 993 C1391.73354675 992.38908508 1391.46709351 991.77817017 1391.19256592 991.14874268 C1380.05889394 965.67042068 1367.74767162 940.74430808 1355.40420532 915.83569336 C1354.45289976 913.91459905 1353.50322132 911.99269831 1352.55502319 910.07006836 C1347.25680616 899.32916682 1341.9479091 888.66788437 1335.8125 878.375 C1335.21791992 877.36775879 1334.62333984 876.36051758 1334.01074219 875.32275391 C1329.89106958 868.3872592 1325.65769032 861.58962757 1321 855 C1320.25878906 853.93652344 1319.51757812 852.87304688 1318.75390625 851.77734375 C1312.10947887 842.31075556 1305.07842827 833.14414274 1298 824 C1297.50290527 823.35434082 1297.00581055 822.70868164 1296.49365234 822.04345703 C1291.30375026 815.30584264 1286.04119878 808.72964434 1280.265625 802.4765625 C1278.3754653 800.41042242 1276.53558276 798.31606778 1274.703125 796.19921875 C1264.27953392 784.26746259 1253.13021322 773.86920653 1240 765 C1239.278125 764.48179687 1238.55625 763.96359375 1237.8125 763.4296875 C1233.6269945 760.56117295 1229.05853547 758.66059766 1224.375 756.75 C1223.74078125 756.49114014 1223.1065625 756.23228027 1222.453125 755.96557617 C1201.28637059 747.67655559 1183.16362417 757.09338641 1168 772 Z M290 2310 C283.85593698 2317.84997668 277.91562902 2325.82456972 272.10083008 2333.92138672 C268.10777603 2339.47810146 264.0680997 2344.9980249 260 2350.5 C255.46231614 2356.64002998 250.9602068 2362.80345965 246.5 2369 C241.45992181 2376.00215242 236.35786615 2382.95613256 231.23046875 2389.89453125 C227.28584596 2395.23857676 223.38030944 2400.60910781 219.5 2406 C215.03979047 2412.19654414 210.53740365 2418.35976023 206 2424.5 C199.26446941 2433.61748366 192.62136363 2442.79940769 186 2452 C178.79936792 2462.00550398 171.55749214 2471.97688478 164.23291016 2481.89208984 C159.18299398 2488.73504144 154.19413082 2495.62055113 149.2265625 2502.5234375 C147.04362713 2505.55669462 144.8502099 2508.58195241 142.6484375 2511.6015625 C113.10302715 2552.15915716 91.48547584 2597.20797557 71.77087402 2643.20623779 C71.05871141 2644.86338325 70.34065366 2646.51799192 69.62207031 2648.17236328 C56.60138009 2678.1519771 45.54744716 2709.23254502 37.52734375 2740.92578125 C37.05958801 2742.76562049 36.57769349 2744.60185228 36.09375 2746.4375 C32.43303514 2760.49464505 31.63351693 2773.78860174 31.6875 2788.25 C31.68899048 2789.22976807 31.69048096 2790.20953613 31.6920166 2791.21899414 C31.73258391 2806.03029906 32.32946536 2820.39898724 35 2835 C35.14453613 2835.84739746 35.28907227 2836.69479492 35.43798828 2837.56787109 C42.99718161 2881.6087527 60.94777877 2919.57009428 91.40405273 2952.26127625 C93.31459041 2954.34273427 95.18541798 2956.45790273 97.0625 2958.56958008 C101.88142075 2963.92627268 106.90397403 2969.04866588 112.00390625 2974.13671875 C113.38798927 2975.52223686 113.38798927 2975.52223686 114.80003357 2976.93574524 C116.73543517 2978.87260576 118.6725938 2980.8076859 120.61108398 2982.74145508 C123.07409929 2985.19875809 125.5325737 2987.66054759 127.98974705 2990.12369061 C130.36702318 2992.5054811 132.74813663 2994.8834202 135.12890625 2997.26171875 C136.43547935 2998.5713282 136.43547935 2998.5713282 137.76844788 2999.90739441 C142.15541842 3004.27772902 146.60643501 3008.50111028 151.30235291 3012.53816223 C153.32863901 3014.28298986 155.28130967 3016.09481482 157.21875 3017.9375 C157.92386719 3018.60523437 158.62898438 3019.27296875 159.35546875 3019.9609375 C160.78515625 3021.3203125 162.21484375 3022.6796875 163.64453125 3024.0390625 C168.33234507 3028.47834506 173.11169973 3032.78289122 178 3037 C178.83241211 3037.72364746 178.83241211 3037.72364746 179.68164062 3038.46191406 C205.33790806 3060.7506006 232.05934637 3081.77786593 262.06103516 3097.94824219 C264.00330955 3099.00179521 265.92957817 3100.08090084 267.85546875 3101.1640625 C318.25591279 3129.12365922 377.76531188 3144.19164133 435.28173828 3144.18530273 C437.49921623 3144.18749922 439.71620218 3144.20579307 441.93359375 3144.22460938 C533.35478519 3144.59967974 633.52571322 3086.28661722 769.21875 3025.6015625 C769.88431412 3025.29423187 770.54987823 3024.98690125 771.23561096 3024.67025757 C774.41805584 3023.19935952 777.59688454 3021.72141623 780.76953125 3020.22949219 C781.92839844 3019.68711914 783.08726562 3019.14474609 784.28125 3018.5859375 C785.7981543 3017.87123291 785.7981543 3017.87123291 787.34570312 3017.14208984 C790 3016 790 3016 794 3015 C794 2950.98 794 2886.96 794 2821 C803.57 2821 813.14 2821 823 2821 C822.9800145 2823.40459503 822.96002899 2825.80919006 822.93943787 2828.28665161 C822.75563317 2850.9180585 822.6216387 2873.54936711 822.53369045 2896.18135262 C822.48727096 2907.81749042 822.42397912 2919.45308077 822.32104492 2931.08886719 C822.2313761 2941.22995136 822.17328472 2951.3706391 822.15320355 2961.51210868 C822.14146363 2966.88284047 822.11385168 2972.2524381 822.04842949 2977.62280655 C821.98735058 2982.67758527 821.96849283 2987.73076263 821.98203087 2992.78587532 C821.97955427 2994.64110963 821.96164169 2996.49639731 821.92715073 2998.35131264 C821.36750911 3007.96059634 821.36750911 3007.96059634 824.97109318 3016.40412712 C827.27964652 3017.97542008 829.39230717 3019.02547935 832 3020 C833.42517944 3020.81960205 833.42517944 3020.81960205 834.87915039 3021.65576172 C836.10106079 3022.28635498 836.10106079 3022.28635498 837.34765625 3022.9296875 C838.27416992 3023.41083008 839.20068359 3023.89197266 840.15527344 3024.38769531 C841.1146582 3024.87850586 842.07404297 3025.36931641 843.0625 3025.875 C844.58085449 3026.65762207 844.58085449 3026.65762207 846.12988281 3027.45605469 C848.15629944 3028.49852418 850.18409998 3029.5383086 852.21337891 3030.57519531 C854.60875712 3031.79995677 856.99858359 3033.03464513 859.38671875 3034.2734375 C887.45849266 3048.7188134 917.65564954 3059.10203877 948.1003418 3067.20532227 C951.23364158 3068.0640316 954.34507427 3068.98637175 957.4609375 3069.90625 C966.40842081 3072.46866339 975.46572383 3074.48149675 984.5625 3076.4375 C985.47163147 3076.63353821 986.38076294 3076.82957642 987.31744385 3077.03155518 C1006.09974304 3081.04900406 1024.92691605 3083.81694622 1044 3086 C1045.36345638 3086.15842226 1046.7269006 3086.31694911 1048.09033203 3086.47558594 C1066.4894191 3088.59356477 1084.71945518 3090.15440277 1103.2421875 3090.203125 C1104.88496427 3090.21009823 1106.52774076 3090.21713924 1108.17051697 3090.22424316 C1113.40534789 3090.24357469 1118.64013728 3090.24842 1123.875 3090.25 C1125.2094195 3090.25088371 1125.2094195 3090.25088371 1126.57079697 3090.25178528 C1152.12097869 3090.26374709 1177.514258 3090.08491705 1202.93408203 3087.22784424 C1205.06169438 3086.9931959 1207.19045986 3086.77531954 1209.3203125 3086.56201172 C1231.0497576 3084.37940522 1252.54060784 3081.03414869 1274 3077 C1275.65660645 3076.68893311 1275.65660645 3076.68893311 1277.34667969 3076.37158203 C1335.52999278 3065.19107659 1391.18946617 3038.68948342 1428 2991 C1429.07121094 2989.63681641 1429.07121094 2989.63681641 1430.1640625 2988.24609375 C1458.51708384 2951.42724095 1475.69727002 2908.16592222 1489 2864 C1489.24411621 2863.19111328 1489.48823242 2862.38222656 1489.73974609 2861.54882812 C1501.15736464 2822.90988353 1507.3519192 2782.03756063 1511 2742 C1511.08776199 2741.05407486 1511.17552399 2740.10814972 1511.26594543 2739.13356018 C1511.98812696 2730.69582746 1512.16338877 2722.30478252 1512.16796875 2713.83984375 C1512.17119957 2712.40092438 1512.17456484 2710.96200531 1512.17805481 2709.52308655 C1512.18399976 2706.51692957 1512.18589998 2703.5108011 1512.18530273 2700.50463867 C1512.18522221 2697.48667308 1512.1920541 2694.46886166 1512.20581055 2691.45092773 C1512.31830617 2666.35699875 1511.33537609 2641.48700329 1508.1875 2616.5625 C1508.10318726 2615.88620544 1508.01887451 2615.20991089 1507.93200684 2614.51312256 C1505.31755495 2593.6462801 1501.60859974 2573.06380096 1496.9375 2552.5625 C1496.77173462 2551.8335553 1496.60596924 2551.1046106 1496.43518066 2550.35357666 C1494.2512458 2540.80826117 1491.75638357 2531.39861664 1489 2522 C1488.4858295 2520.16995791 1487.97396277 2518.33926634 1487.46484375 2516.5078125 C1477.03750465 2479.51330798 1463.04842802 2443.8900259 1447 2409 C1446.60683594 2408.13777832 1446.21367188 2407.27555664 1445.80859375 2406.38720703 C1431.58154542 2375.19663475 1414.12421385 2345.20880491 1394.8984375 2316.84375 C1393 2314 1393 2314 1392 2312 C1028.67 2312 665.34 2312 291 2312 C290.67 2311.34 290.34 2310.68 290 2310 Z M1539 2746 C1538.94577881 2746.62302002 1538.89155762 2747.24604004 1538.83569336 2747.88793945 C1535.89179247 2780.52226483 1530.59827918 2813.12699932 1523 2845 C1522.7210791 2846.18787109 1522.4421582 2847.37574219 1522.15478516 2848.59960938 C1507.3841799 2910.81049835 1483.20785724 2972.91544153 1440 3021 C1439.5064502 3021.55526367 1439.01290039 3022.11052734 1438.50439453 3022.68261719 C1374.27321542 3094.79376848 1273.40475003 3111.49274846 1178.23046875 3117.6640625 C1176.15372862 3117.77756659 1174.07690709 3117.88959303 1172 3118 C1171.02240723 3118.05639648 1170.04481445 3118.11279297 1169.03759766 3118.17089844 C1088.65022001 3122.70770486 1007.0746292 3114.15244818 811.94165039 3040.83569336 C809.21988506 3039.66423571 807.81803397 3040.14597958 805 3041 C802.90126747 3041.85152274 800.82623502 3042.76239187 798.76953125 3043.7109375 C797.85410301 3044.13016479 797.85410301 3044.13016479 796.92018127 3044.55786133 C795.58730609 3045.16897259 794.25553504 3045.78249645 792.92474365 3046.39813232 C790.76086588 3047.39887968 788.59401787 3048.39292065 786.42626953 3049.38525391 C783.2753575 3050.8279148 780.12540598 3052.27264275 776.97607422 3053.71875 C749.21278137 3066.45685571 721.32903886 3078.90425157 693.28540039 3091.01226807 C691.05984555 3091.97413523 688.83538409 3092.93848137 686.61132812 3093.90380859 C552.57282993 3152.06663003 552.57282993 3152.06663003 487 3168 C485.83791016 3168.28472168 485.83791016 3168.28472168 484.65234375 3168.57519531 C415.52360839 3184.95289103 334.91282278 3163.73721665 272 3135 C271.22333984 3134.6508252 270.44667969 3134.30165039 269.64648438 3133.94189453 C229.22363182 3115.76225781 192.70925928 3088.79041396 160.11328125 3058.93359375 C158.14330794 3057.13112279 156.14377944 3055.37241601 154.125 3053.625 C149.19296907 3049.32680437 144.39395839 3044.88396789 139.58203125 3040.45263672 C138.00703135 3039.00645626 136.4263829 3037.56672628 134.84375 3036.12890625 C129.76176203 3031.50601883 124.77334892 3026.82812421 119.95776367 3021.92529297 C118.25033122 3020.24617933 116.50925802 3018.70527851 114.67578125 3017.16796875 C108.63281015 3011.91436336 103.04068337 3006.18954813 97.39086914 3000.52124023 C95.4420313 2998.56704376 93.48790728 2996.61824853 91.53320312 2994.66992188 C85.94913513 2989.08848182 80.40699944 2983.52779103 75.29223633 2977.50610352 C73.6731021 2975.61899997 71.92793487 2973.89828486 70.125 2972.1875 C65.33414297 2967.45192209 61.17675692 2962.27663624 57 2957 C56.2059375 2956.02289062 55.411875 2955.04578125 54.59375 2954.0390625 C47.54783005 2945.18706813 41.66202076 2935.7852641 36 2926 C35.60425781 2925.32517578 35.20851562 2924.65035156 34.80078125 2923.95507812 C15.6578849 2890.99401598 7.26729643 2852.65697578 4 2815 C3.67 2815 3.34 2815 3 2815 C3 3104.08 3 3393.16 3 3691 C510.21 3691 1017.42 3691 1540 3691 C1540 3379.15 1540 3067.3 1540 2746 C1539.67 2746 1539.34 2746 1539 2746 Z " fill="#010101" transform="translate(0,0)"/>
<path d="M0 0 C509.19 0 1018.38 0 1543 0 C1543 1219.02 1543 2438.04 1543 3694 C1033.81 3694 524.62 3694 0 3694 C0 2474.98 0 1255.96 0 0 Z M3 3 C3 1220.04 3 2437.08 3 3691 C510.21 3691 1017.42 3691 1540 3691 C1540.43980351 3380.11078578 1540.43980351 3380.11078578 1540.77620149 3069.22144198 C1540.77788412 3067.27389442 1540.77956681 3065.32634686 1540.78125191 3063.37879931 C1540.78715568 3056.55406111 1540.79300596 3049.72932288 1540.7988319 3042.90458462 C1540.80306157 3037.95315842 1540.80732871 3033.00173226 1540.81161214 3028.05030612 C1540.87853338 2950.64966286 1540.93709116 2873.2490131 1540.88206516 2051.60302985 C1540.87960701 2045.01981143 1540.8771592 2038.43659301 1540.87471711 2031.85337458 C1540.83994894 1938.14607828 1540.80311539 1844.43878284 1540.6374263 1471.8790281 C1540.62661882 1448.68607571 1540.61583339 1425.49312332 1540.60510254 1402.3001709 C1540.60443664 1400.86096808 1540.60443664 1400.86096808 1540.60375728 1399.39269046 C1540.5611821 1307.34973031 1540.52247643 1215.30676865 1540.48465384 1123.26380644 C1540.48217269 1117.22632775 1540.47968848 1111.18884906 1540.47720367 1105.15137037 C1540.4512739 1042.14481749 1540.42552108 979.13826454 1540.39984427 916.13171156 C1540.3994756 915.22709032 1540.39910693 914.32246908 1540.39872709 913.39043507 C1540.39702114 909.20444871 1540.39531541 905.01846236 1540.39361025 900.832476 C1540.27166183 601.5549795 1540.1347882 302.27749152 1540 3 C1032.79 3 525.58 3 3 3 Z " fill="#FCFCFC" transform="translate(0,0)"/>
</svg>
