<?xml version="1.0" encoding="UTF-8"?>
<!DOCTYPE svg PUBLIC "-//W3C//DTD SVG 1.1//EN" "http://www.w3.org/Graphics/SVG/1.1/DTD/svg11.dtd">
<svg xmlns="http://www.w3.org/2000/svg" version="1.1" width="1440px" height="3694px" style="shape-rendering:geometricPrecision; text-rendering:geometricPrecision; image-rendering:optimizeQuality; fill-rule:evenodd; clip-rule:evenodd" xmlns:xlink="http://www.w3.org/1999/xlink">
<g><path style="opacity:0.797" fill="#f8f8f8" d="M -0.5,-0.5 C 479.5,-0.5 959.5,-0.5 1439.5,-0.5C 1439.5,1230.83 1439.5,2462.17 1439.5,3693.5C 959.5,3693.5 479.5,3693.5 -0.5,3693.5C -0.5,2462.17 -0.5,1230.83 -0.5,-0.5 Z M 1436.5,953.5 C 1431.95,856.968 1397.78,772.635 1334,700.5C 1312.2,677.695 1290.03,655.195 1267.5,633C 1255.46,622.621 1243.12,612.621 1230.5,603C 1199.94,583.011 1166.28,573.344 1129.5,574C 1065.74,571.876 1002.74,577.876 940.5,592C 872.257,607.026 805.59,627.193 740.5,652.5C 672.982,608.576 600.982,573.409 524.5,547C 487.414,533.895 449.414,524.562 410.5,519C 375.375,516.032 342.375,523.032 311.5,540C 265.773,567.19 221.773,596.857 179.5,629C 133.599,668.9 91.0992,712.067 52,758.5C 28.2358,791.43 13.2358,828.097 7,868.5C 5.22479,880.951 3.72479,893.284 2.5,905.5C 2.5,604.167 2.5,302.833 2.5,1.5C 480.5,1.5 958.5,1.5 1436.5,1.5C 1436.5,318.833 1436.5,636.167 1436.5,953.5 Z M 2.5,947.5 C 15.4387,1025.48 41.6053,1098.81 81,1167.5C 127.419,1236.01 174.086,1304.34 221,1372.5C 266.276,1419.78 312.276,1466.44 359,1512.5C 367.422,1551.02 375.922,1589.52 384.5,1628C 384.355,1628.77 384.022,1629.44 383.5,1630C 353.691,1642.15 329.524,1661.32 311,1687.5C 292.084,1722.67 297.584,1753.5 327.5,1780C 345.629,1794.49 365.462,1806.32 387,1815.5C 387.667,1824.83 387.667,1834.17 387,1843.5C 359.15,1850.41 336.483,1865.08 319,1887.5C 297.502,1925.65 303.002,1959.48 335.5,1989C 352.208,2001.63 370.875,2010.13 391.5,2014.5C 391.5,2027.83 391.5,2041.17 391.5,2054.5C 357.949,2060.68 331.115,2077.34 311,2104.5C 296.599,2132.8 301.433,2157.3 325.5,2178C 344.674,2192.34 365.841,2202.84 389,2209.5C 389.5,2223.83 389.667,2238.16 389.5,2252.5C 362.082,2254.79 338.916,2265.79 320,2285.5C 300.135,2312.31 299.469,2339.65 318,2367.5C 336.074,2389.05 359.074,2402.38 387,2407.5C 387.5,2430.16 387.667,2452.83 387.5,2475.5C 363.465,2475.79 341.798,2482.96 322.5,2497C 293.91,2524.44 289.743,2555.27 310,2589.5C 323.093,2606.91 339.927,2619.41 360.5,2627C 370.474,2630.49 380.474,2633.66 390.5,2636.5C 399.48,2729.53 442.814,2801.36 520.5,2852C 622.031,2914.51 732.031,2937.51 850.5,2921C 926.452,2910.18 993.452,2880.18 1051.5,2831C 1082.45,2802.6 1106.11,2769.1 1122.5,2730.5C 1150.5,2729.34 1174.83,2719.51 1195.5,2701C 1216.36,2677.81 1220.2,2651.98 1207,2623.5C 1192.84,2599.01 1172.67,2581.18 1146.5,2570C 1139.68,2567 1132.68,2564.5 1125.5,2562.5C 1124.33,2549.51 1124.17,2536.51 1125,2523.5C 1125.22,2522.06 1125.72,2520.73 1126.5,2519.5C 1144.26,2511.89 1160.59,2502.05 1175.5,2490C 1205.71,2461.8 1208.88,2430.96 1185,2397.5C 1168.88,2379.72 1149.72,2366.22 1127.5,2357C 1126.85,2353.58 1126.52,2350.08 1126.5,2346.5C 1126.96,2332.16 1127.63,2317.82 1128.5,2303.5C 1149.66,2296.35 1168.16,2285.01 1184,2269.5C 1202.91,2245.96 1205.58,2220.62 1192,2193.5C 1182.63,2178.8 1170.13,2167.63 1154.5,2160C 1145.93,2156.53 1137.26,2153.37 1128.5,2150.5C 1129.32,2136.21 1129.82,2121.88 1130,2107.5C 1148.38,2102.39 1165.21,2094.23 1180.5,2083C 1208.58,2056.85 1210.75,2028.68 1187,1998.5C 1170.93,1981.75 1152.59,1968.09 1132,1957.5C 1131.17,1937.16 1131.33,1916.83 1132.5,1896.5C 1154.35,1895.79 1174.68,1889.96 1193.5,1879C 1217.67,1860.84 1226.17,1837.01 1219,1807.5C 1207.12,1772.62 1183.29,1750.46 1147.5,1741C 1142.86,1739.97 1138.19,1739.14 1133.5,1738.5C 1133.72,1701.83 1134.06,1665.17 1134.5,1628.5C 1155.53,1622.82 1174.86,1613.65 1192.5,1601C 1210.06,1585.6 1215.23,1566.76 1208,1544.5C 1206.86,1540.76 1205.53,1537.09 1204,1533.5C 1198.5,1522.17 1192.84,1511.17 1187,1500.5C 1228.27,1466.4 1269.11,1431.73 1309.5,1396.5C 1316.29,1389.54 1322.13,1381.88 1327,1373.5C 1390.95,1266.48 1427.45,1150.81 1436.5,1026.5C 1436.5,1914.5 1436.5,2802.5 1436.5,3690.5C 958.5,3690.5 480.5,3690.5 2.5,3690.5C 2.5,2776.17 2.5,1861.83 2.5,947.5 Z"/></g>
<g><path style="opacity:0.982" fill="#010101" d="M 1436.5,953.5 C 1436.5,977.833 1436.5,1002.17 1436.5,1026.5C 1427.45,1150.81 1390.95,1266.48 1327,1373.5C 1322.13,1381.88 1316.29,1389.54 1309.5,1396.5C 1269.11,1431.73 1228.27,1466.4 1187,1500.5C 1192.84,1511.17 1198.5,1522.17 1204,1533.5C 1205.53,1537.09 1206.86,1540.76 1208,1544.5C 1215.23,1566.76 1210.06,1585.6 1192.5,1601C 1174.86,1613.65 1155.53,1622.82 1134.5,1628.5C 1134.06,1665.17 1133.72,1701.83 1133.5,1738.5C 1138.19,1739.14 1142.86,1739.97 1147.5,1741C 1183.29,1750.46 1207.12,1772.62 1219,1807.5C 1226.17,1837.01 1217.67,1860.84 1193.5,1879C 1174.68,1889.96 1154.35,1895.79 1132.5,1896.5C 1131.33,1916.83 1131.17,1937.16 1132,1957.5C 1152.59,1968.09 1170.93,1981.75 1187,1998.5C 1210.75,2028.68 1208.58,2056.85 1180.5,2083C 1165.21,2094.23 1148.38,2102.39 1130,2107.5C 1129.82,2121.88 1129.32,2136.21 1128.5,2150.5C 1137.26,2153.37 1145.93,2156.53 1154.5,2160C 1170.13,2167.63 1182.63,2178.8 1192,2193.5C 1205.58,2220.62 1202.91,2245.96 1184,2269.5C 1168.16,2285.01 1149.66,2296.35 1128.5,2303.5C 1127.63,2317.82 1126.96,2332.16 1126.5,2346.5C 1126.52,2350.08 1126.85,2353.58 1127.5,2357C 1149.72,2366.22 1168.88,2379.72 1185,2397.5C 1208.88,2430.96 1205.71,2461.8 1175.5,2490C 1160.59,2502.05 1144.26,2511.89 1126.5,2519.5C 1125.72,2520.73 1125.22,2522.06 1125,2523.5C 1124.17,2536.51 1124.33,2549.51 1125.5,2562.5C 1132.68,2564.5 1139.68,2567 1146.5,2570C 1172.67,2581.18 1192.84,2599.01 1207,2623.5C 1220.2,2651.98 1216.36,2677.81 1195.5,2701C 1174.83,2719.51 1150.5,2729.34 1122.5,2730.5C 1106.11,2769.1 1082.45,2802.6 1051.5,2831C 993.452,2880.18 926.452,2910.18 850.5,2921C 732.031,2937.51 622.031,2914.51 520.5,2852C 442.814,2801.36 399.48,2729.53 390.5,2636.5C 380.474,2633.66 370.474,2630.49 360.5,2627C 339.927,2619.41 323.093,2606.91 310,2589.5C 289.743,2555.27 293.91,2524.44 322.5,2497C 341.798,2482.96 363.465,2475.79 387.5,2475.5C 387.667,2452.83 387.5,2430.16 387,2407.5C 359.074,2402.38 336.074,2389.05 318,2367.5C 299.469,2339.65 300.135,2312.31 320,2285.5C 338.916,2265.79 362.082,2254.79 389.5,2252.5C 389.667,2238.16 389.5,2223.83 389,2209.5C 365.841,2202.84 344.674,2192.34 325.5,2178C 301.433,2157.3 296.599,2132.8 311,2104.5C 331.115,2077.34 357.949,2060.68 391.5,2054.5C 391.5,2041.17 391.5,2027.83 391.5,2014.5C 370.875,2010.13 352.208,2001.63 335.5,1989C 303.002,1959.48 297.502,1925.65 319,1887.5C 336.483,1865.08 359.15,1850.41 387,1843.5C 387.667,1834.17 387.667,1824.83 387,1815.5C 365.462,1806.32 345.629,1794.49 327.5,1780C 297.584,1753.5 292.084,1722.67 311,1687.5C 329.524,1661.32 353.691,1642.15 383.5,1630C 384.022,1629.44 384.355,1628.77 384.5,1628C 375.922,1589.52 367.422,1551.02 359,1512.5C 312.276,1466.44 266.276,1419.78 221,1372.5C 174.086,1304.34 127.419,1236.01 81,1167.5C 41.6053,1098.81 15.4387,1025.48 2.5,947.5C 2.5,933.5 2.5,919.5 2.5,905.5C 3.72479,893.284 5.22479,880.951 7,868.5C 13.2358,828.097 28.2358,791.43 52,758.5C 91.0992,712.067 133.599,668.9 179.5,629C 221.773,596.857 265.773,567.19 311.5,540C 342.375,523.032 375.375,516.032 410.5,519C 449.414,524.562 487.414,533.895 524.5,547C 600.982,573.409 672.982,608.576 740.5,652.5C 805.59,627.193 872.257,607.026 940.5,592C 1002.74,577.876 1065.74,571.876 1129.5,574C 1166.28,573.344 1199.94,583.011 1230.5,603C 1243.12,612.621 1255.46,622.621 1267.5,633C 1290.03,655.195 1312.2,677.695 1334,700.5C 1397.78,772.635 1431.95,856.968 1436.5,953.5 Z"/></g>
<g><path style="opacity:1" fill="#fefefe" d="M 383.5,547.5 C 405.127,547.477 426.46,549.977 447.5,555C 545.608,580.186 636.941,620.353 721.5,675.5C 722.5,746.164 722.833,816.83 722.5,887.5C 731.833,887.5 741.167,887.5 750.5,887.5C 749.839,817.786 750.505,748.286 752.5,679C 833.727,647.11 917.394,624.11 1003.5,610C 1025.4,606.786 1047.4,604.453 1069.5,603C 1106.14,600.894 1142.47,603.227 1178.5,610C 1189.01,613.59 1199.01,618.256 1208.5,624C 1236.08,643.896 1261.58,666.396 1285,691.5C 1325.65,730.498 1357.32,775.831 1380,827.5C 1388.49,848.636 1395.16,870.303 1400,892.5C 1416.91,1010.56 1403.91,1125.23 1361,1236.5C 1343.04,1283.77 1320.54,1328.61 1293.5,1371C 947.5,1371.83 601.5,1371.67 255.5,1370.5C 205.138,1297.3 154.971,1223.97 105,1150.5C 68.7464,1086.41 44.4131,1018.07 32,945.5C 28.2105,895.335 37.2105,847.668 59,802.5C 63.6042,794.234 68.6042,786.234 74,778.5C 117.903,725.929 166.403,678.096 219.5,635C 247.661,615.752 275.994,596.752 304.5,578C 322.376,566.896 341.376,558.229 361.5,552C 368.947,550.375 376.28,548.875 383.5,547.5 Z"/></g>
<g><path style="opacity:1" fill="#787879" d="M 457.5,1400.5 C 724.666,1399.33 992,1399.17 1259.5,1400C 1258.96,1400.72 1258.29,1401.22 1257.5,1401.5C 991.001,1400.5 724.334,1400.17 457.5,1400.5 Z"/></g>
<g><path style="opacity:1" fill="#b7b7b8" d="M 457.5,1400.5 C 724.334,1400.17 991.001,1400.5 1257.5,1401.5C 1220.73,1432.43 1184.06,1463.59 1147.5,1495C 1160.87,1513.89 1172.03,1534.06 1181,1555.5C 1182.6,1562.83 1181.27,1569.5 1177,1575.5C 1166.82,1584.18 1155.32,1590.68 1142.5,1595C 1130.25,1598.97 1118.09,1603.14 1106,1607.5C 1104.99,1648.49 1104.49,1689.49 1104.5,1730.5C 1103.5,1742.32 1103.17,1754.32 1103.5,1766.5C 1108.5,1766.5 1113.5,1766.5 1118.5,1766.5C 1150.52,1767.24 1174.02,1781.58 1189,1809.5C 1196.85,1834.29 1188.69,1851.46 1164.5,1861C 1157.68,1863.41 1150.68,1865.08 1143.5,1866C 1129.84,1866.5 1116.17,1866.67 1102.5,1866.5C 1102.14,1902.84 1102.14,1939.18 1102.5,1975.5C 1120.33,1983.91 1137,1994.08 1152.5,2006C 1161.66,2013.14 1168.49,2021.98 1173,2032.5C 1174.99,2043.2 1171.82,2052.03 1163.5,2059C 1144.36,2071.77 1123.36,2079.94 1100.5,2083.5C 1100.14,2114.83 1099.81,2146.17 1099.5,2177.5C 1122.01,2177.28 1141.85,2184.28 1159,2198.5C 1177.14,2220.05 1175.3,2239.88 1153.5,2258C 1136.37,2269.4 1117.7,2277.23 1097.5,2281.5C 1097.17,2313.17 1097.5,2344.84 1098.5,2376.5C 1118.35,2384.09 1136.68,2394.25 1153.5,2407C 1177.5,2428 1177.5,2449 1153.5,2470C 1135.87,2482.9 1116.7,2493.07 1096,2500.5C 1095.5,2529.16 1095.33,2557.83 1095.5,2586.5C 1125.44,2589.89 1150.94,2602.22 1172,2623.5C 1193.32,2650.83 1189.16,2673.33 1159.5,2691C 1153.03,2693.93 1146.37,2696.27 1139.5,2698C 1124.56,2700.19 1109.56,2701.69 1094.5,2702.5C 1094.83,2713.28 1093,2723.61 1089,2733.5C 1062.99,2782.51 1025.82,2820.68 977.5,2848C 914.986,2881.13 848.319,2897.3 777.5,2896.5C 679.928,2896.7 591.928,2868.2 513.5,2811C 459.95,2768.09 429.116,2712.26 421,2643.5C 420.308,2632.15 419.475,2620.81 418.5,2609.5C 392.106,2608.73 368.106,2600.9 346.5,2586C 334.566,2576.46 327.899,2564.13 326.5,2549C 327.545,2534.57 334.212,2523.57 346.5,2516C 355.171,2510.83 364.505,2507.5 374.5,2506C 386.495,2505.5 398.495,2505.33 410.5,2505.5C 412.265,2506.46 414.265,2506.79 416.5,2506.5C 416.5,2493.83 416.5,2481.17 416.5,2468.5C 416.5,2439.5 416.5,2410.5 416.5,2381.5C 390.98,2381.22 368.313,2373.22 348.5,2357.5C 333.574,2343.82 330.408,2327.82 339,2309.5C 349.685,2294.73 364.185,2285.89 382.5,2283C 394.41,2280.93 406.41,2280.09 418.5,2280.5C 419.099,2249.49 419.099,2218.49 418.5,2187.5C 393.105,2181.65 369.438,2171.82 347.5,2158C 340.711,2152.89 335.877,2146.39 333,2138.5C 331.523,2129.93 333.523,2122.26 339,2115.5C 361.078,2092.22 388.245,2080.55 420.5,2080.5C 421.035,2050.5 421.368,2020.5 421.5,1990.5C 395.421,1988.62 372.088,1979.78 351.5,1964C 333.531,1946.34 330.698,1926.51 343,1904.5C 353.75,1890.37 367.583,1880.54 384.5,1875C 394.929,1871.61 405.596,1869.45 416.5,1868.5C 416.5,1843.83 416.5,1819.17 416.5,1794.5C 392.694,1786.76 370.694,1775.6 350.5,1761C 344.258,1755.43 338.758,1749.26 334,1742.5C 326.771,1726.81 328.437,1712.14 339,1698.5C 355.012,1678.75 374.845,1664.25 398.5,1655C 405.437,1653.71 412.437,1653.21 419.5,1653.5C 408.644,1601.04 397.144,1548.7 385,1496.5C 353.167,1464.67 321.333,1432.83 289.5,1401C 345.499,1400.5 401.499,1400.33 457.5,1400.5 Z"/></g>
<g><path style="opacity:1" fill="#3a3a3a" d="M 1104.5,1730.5 C 1104.5,1742.17 1104.5,1753.83 1104.5,1765.5C 1109.36,1765.18 1114.03,1765.51 1118.5,1766.5C 1113.5,1766.5 1108.5,1766.5 1103.5,1766.5C 1103.17,1754.32 1103.5,1742.32 1104.5,1730.5 Z"/></g>
<g><path style="opacity:1" fill="#4b4b4c" d="M 416.5,2468.5 C 416.5,2481.17 416.5,2493.83 416.5,2506.5C 414.265,2506.79 412.265,2506.46 410.5,2505.5C 412.167,2505.5 413.833,2505.5 415.5,2505.5C 415.171,2492.99 415.505,2480.66 416.5,2468.5 Z"/></g>
</svg>
