<?xml version="1.0" encoding="UTF-8"?>
<!DOCTYPE svg PUBLIC "-//W3C//DTD SVG 1.1//EN" "http://www.w3.org/Graphics/SVG/1.1/DTD/svg11.dtd">
<svg xmlns="http://www.w3.org/2000/svg" version="1.1" width="1543px" height="3694px" style="shape-rendering:geometricPrecision; text-rendering:geometricPrecision; image-rendering:optimizeQuality; fill-rule:evenodd; clip-rule:evenodd" xmlns:xlink="http://www.w3.org/1999/xlink">
<g><path style="opacity:0.743" fill="#fcfcfc" d="M -0.5,-0.5 C 513.833,-0.5 1028.17,-0.5 1542.5,-0.5C 1542.5,1230.83 1542.5,2462.17 1542.5,3693.5C 1028.17,3693.5 513.833,3693.5 -0.5,3693.5C -0.5,2462.17 -0.5,1230.83 -0.5,-0.5 Z M 1539.5,2638.5 C 1527.09,2517.44 1487.59,2406.11 1421,2304.5C 1404.95,2283.45 1387.12,2263.95 1367.5,2246C 1340.48,2222.98 1313.48,2199.98 1286.5,2177C 1292.12,2166.93 1297.62,2156.76 1303,2146.5C 1319.51,2111.74 1311.01,2085.24 1277.5,2067C 1263.81,2059.5 1249.48,2053.66 1234.5,2049.5C 1233.9,2012.84 1233.56,1976.17 1233.5,1939.5C 1271.89,1934.25 1299.39,1914.25 1316,1879.5C 1329.48,1836.3 1315.32,1806.13 1273.5,1789C 1260.09,1784.99 1246.42,1782.49 1232.5,1781.5C 1231.8,1761.99 1231.14,1742.49 1230.5,1723C 1230.83,1722.17 1231.17,1721.33 1231.5,1720.5C 1251.71,1709.98 1269.88,1696.64 1286,1680.5C 1310.76,1650.23 1308.92,1621.73 1280.5,1595C 1265.21,1583.77 1248.38,1575.61 1230,1570.5C 1229.61,1555.83 1229.11,1541.16 1228.5,1526.5C 1254.3,1521.69 1274.8,1508.69 1290,1487.5C 1309,1450 1301.5,1418.83 1267.5,1394C 1255.34,1385.92 1242.34,1379.42 1228.5,1374.5C 1226.75,1356.62 1226.41,1338.79 1227.5,1321C 1253.03,1310.46 1274.2,1294.29 1291,1272.5C 1306.17,1245.1 1303.51,1219.43 1283,1195.5C 1265.86,1179.59 1246.52,1166.92 1225,1157.5C 1224.17,1143.49 1224.33,1129.49 1225.5,1115.5C 1257.89,1106.57 1283.72,1088.57 1303,1061.5C 1323.1,1025 1316.93,993.837 1284.5,968C 1265.75,955.639 1245.08,948.806 1222.5,947.5C 1205.69,908.846 1181.03,876.012 1148.5,849C 1102,812.751 1050,787.084 992.5,772C 874.625,741.502 757.958,745.502 642.5,784C 595.175,800.648 552.508,824.981 514.5,857C 461.438,907.301 432.105,969.134 426.5,1042.5C 395.756,1047.12 369.923,1060.79 349,1083.5C 327.474,1112.67 327.141,1142 348,1171.5C 362.464,1187.15 380.298,1196.65 401.5,1200C 408.483,1201.04 415.483,1201.88 422.5,1202.5C 422.667,1225.17 422.5,1247.84 422,1270.5C 401.568,1274.97 383.068,1283.47 366.5,1296C 337.349,1323.08 332.516,1353.91 352,1388.5C 370.939,1410.72 395.106,1423.05 424.5,1425.5C 424.574,1439.93 424.574,1454.27 424.5,1468.5C 400.668,1475.26 379.001,1486.09 359.5,1501C 334.191,1525.11 331.358,1551.61 351,1580.5C 371.265,1603.22 396.432,1617.56 426.5,1623.5C 426.564,1636.52 426.731,1649.52 427,1662.5C 400.459,1668.4 377.793,1681.07 359,1700.5C 339.543,1725.42 336.21,1752.42 349,1781.5C 365.815,1809.45 390.315,1826.78 422.5,1833.5C 422.5,1843.5 422.5,1853.5 422.5,1863.5C 394.362,1873.64 370.195,1889.64 350,1911.5C 332.979,1935.23 330.979,1960.23 344,1986.5C 358.881,2010.03 378.715,2028.2 403.5,2041C 408.771,2043.31 413.937,2045.81 419,2048.5C 411.447,2087.6 403.113,2126.6 394,2165.5C 348.61,2210.22 303.943,2255.56 260,2301.5C 205.933,2373.97 152.6,2446.97 100,2520.5C 62.7678,2583.97 33.4345,2650.97 12,2721.5C 8.10662,2735.81 4.93995,2750.15 2.5,2764.5C 2.5,1843.83 2.5,923.167 2.5,2.5C 514.833,2.5 1027.17,2.5 1539.5,2.5C 1539.5,881.167 1539.5,1759.83 1539.5,2638.5 Z M 1539.5,2747.5 C 1539.5,3061.83 1539.5,3376.17 1539.5,3690.5C 1027.17,3690.5 514.833,3690.5 2.5,3690.5C 2.5,3398.5 2.5,3106.5 2.5,2814.5C 5.86073,2859.94 19.6941,2901.94 44,2940.5C 55.5398,2956.38 68.2064,2971.38 82,2985.5C 121.151,3026.33 162.984,3063.83 207.5,3098C 277.082,3146.25 354.415,3171.41 439.5,3173.5C 466.576,3172.76 492.91,3167.93 518.5,3159C 567.203,3142.43 615.203,3124.1 662.5,3104C 711.074,3083.05 759.408,3061.55 807.5,3039.5C 868.866,3074.46 934.533,3097.62 1004.5,3109C 1109.39,3125.73 1213.39,3121.4 1316.5,3096C 1384.2,3077.09 1436.04,3037.59 1472,2977.5C 1500.86,2925.6 1520.19,2870.26 1530,2811.5C 1533.84,2790.12 1537,2768.78 1539.5,2747.5 Z"/></g>
<g><path style="opacity:0.982" fill="#010101" d="M 1539.5,2638.5 C 1540.83,2674.83 1540.83,2711.17 1539.5,2747.5C 1537,2768.78 1533.84,2790.12 1530,2811.5C 1520.19,2870.26 1500.86,2925.6 1472,2977.5C 1436.04,3037.59 1384.2,3077.09 1316.5,3096C 1213.39,3121.4 1109.39,3125.73 1004.5,3109C 934.533,3097.62 868.866,3074.46 807.5,3039.5C 759.408,3061.55 711.074,3083.05 662.5,3104C 615.203,3124.1 567.203,3142.43 518.5,3159C 492.91,3167.93 466.576,3172.76 439.5,3173.5C 354.415,3171.41 277.082,3146.25 207.5,3098C 162.984,3063.83 121.151,3026.33 82,2985.5C 68.2064,2971.38 55.5398,2956.38 44,2940.5C 19.6941,2901.94 5.86073,2859.94 2.5,2814.5C 2.5,2797.83 2.5,2781.17 2.5,2764.5C 4.93995,2750.15 8.10662,2735.81 12,2721.5C 33.4345,2650.97 62.7678,2583.97 100,2520.5C 152.6,2446.97 205.933,2373.97 260,2301.5C 303.943,2255.56 348.61,2210.22 394,2165.5C 403.113,2126.6 411.447,2087.6 419,2048.5C 413.937,2045.81 408.771,2043.31 403.5,2041C 378.715,2028.2 358.881,2010.03 344,1986.5C 330.979,1960.23 332.979,1935.23 350,1911.5C 370.195,1889.64 394.362,1873.64 422.5,1863.5C 422.5,1853.5 422.5,1843.5 422.5,1833.5C 390.315,1826.78 365.815,1809.45 349,1781.5C 336.21,1752.42 339.543,1725.42 359,1700.5C 377.793,1681.07 400.459,1668.4 427,1662.5C 426.731,1649.52 426.564,1636.52 426.5,1623.5C 396.432,1617.56 371.265,1603.22 351,1580.5C 331.358,1551.61 334.191,1525.11 359.5,1501C 379.001,1486.09 400.668,1475.26 424.5,1468.5C 424.574,1454.27 424.574,1439.93 424.5,1425.5C 395.106,1423.05 370.939,1410.72 352,1388.5C 332.516,1353.91 337.349,1323.08 366.5,1296C 383.068,1283.47 401.568,1274.97 422,1270.5C 422.5,1247.84 422.667,1225.17 422.5,1202.5C 415.483,1201.88 408.483,1201.04 401.5,1200C 380.298,1196.65 362.464,1187.15 348,1171.5C 327.141,1142 327.474,1112.67 349,1083.5C 369.923,1060.79 395.756,1047.12 426.5,1042.5C 432.105,969.134 461.438,907.301 514.5,857C 552.508,824.981 595.175,800.648 642.5,784C 757.958,745.502 874.625,741.502 992.5,772C 1050,787.084 1102,812.751 1148.5,849C 1181.03,876.012 1205.69,908.846 1222.5,947.5C 1245.08,948.806 1265.75,955.639 1284.5,968C 1316.93,993.837 1323.1,1025 1303,1061.5C 1283.72,1088.57 1257.89,1106.57 1225.5,1115.5C 1224.33,1129.49 1224.17,1143.49 1225,1157.5C 1246.52,1166.92 1265.86,1179.59 1283,1195.5C 1303.51,1219.43 1306.17,1245.1 1291,1272.5C 1274.2,1294.29 1253.03,1310.46 1227.5,1321C 1226.41,1338.79 1226.75,1356.62 1228.5,1374.5C 1242.34,1379.42 1255.34,1385.92 1267.5,1394C 1301.5,1418.83 1309,1450 1290,1487.5C 1274.8,1508.69 1254.3,1521.69 1228.5,1526.5C 1229.11,1541.16 1229.61,1555.83 1230,1570.5C 1248.38,1575.61 1265.21,1583.77 1280.5,1595C 1308.92,1621.73 1310.76,1650.23 1286,1680.5C 1269.88,1696.64 1251.71,1709.98 1231.5,1720.5C 1231.17,1721.33 1230.83,1722.17 1230.5,1723C 1231.14,1742.49 1231.8,1761.99 1232.5,1781.5C 1246.42,1782.49 1260.09,1784.99 1273.5,1789C 1315.32,1806.13 1329.48,1836.3 1316,1879.5C 1299.39,1914.25 1271.89,1934.25 1233.5,1939.5C 1233.56,1976.17 1233.9,2012.84 1234.5,2049.5C 1249.48,2053.66 1263.81,2059.5 1277.5,2067C 1311.01,2085.24 1319.51,2111.74 1303,2146.5C 1297.62,2156.76 1292.12,2166.93 1286.5,2177C 1313.48,2199.98 1340.48,2222.98 1367.5,2246C 1387.12,2263.95 1404.95,2283.45 1421,2304.5C 1487.59,2406.11 1527.09,2517.44 1539.5,2638.5 Z"/></g>
<g><path style="opacity:1" fill="#b7b7b8" d="M 1213.5,1911.5 C 1210.17,1911.5 1206.83,1911.5 1203.5,1911.5C 1203.18,1919.02 1203.51,1926.35 1204.5,1933.5C 1204.37,1979.17 1204.87,2024.84 1206,2070.5C 1226.02,2076.62 1245.52,2084.12 1264.5,2093C 1271.9,2096.61 1277.4,2102.11 1281,2109.5C 1282.14,2116.82 1281.14,2123.82 1278,2130.5C 1268.97,2148.74 1258.8,2166.24 1247.5,2183C 1284.06,2214.41 1320.73,2245.57 1357.5,2276.5C 1079.33,2277.5 801,2277.83 522.5,2277.5C 456.499,2277.67 390.499,2277.5 324.5,2277C 356.667,2244.83 388.833,2212.67 421,2180.5C 432.232,2128.5 443.399,2076.5 454.5,2024.5C 445.618,2024.81 436.951,2023.64 428.5,2021C 404.843,2011.01 385.676,1995.51 371,1974.5C 362.974,1961.27 362.641,1947.94 370,1934.5C 379.673,1921.08 391.84,1910.58 406.5,1903C 421.181,1895 436.348,1888.17 452,1882.5C 452.5,1858.17 452.667,1833.84 452.5,1809.5C 425.008,1807.96 401.508,1797.62 382,1778.5C 363.23,1751.06 367.397,1727.56 394.5,1708C 413.49,1696.28 434.157,1689.45 456.5,1687.5C 456.25,1657.5 455.917,1627.5 455.5,1597.5C 424.476,1597.11 397.976,1586.11 376,1564.5C 366.196,1553.48 365.196,1541.81 373,1529.5C 384.917,1517.78 398.75,1508.95 414.5,1503C 427.352,1498.37 440.352,1494.2 453.5,1490.5C 454.235,1459.51 454.235,1428.51 453.5,1397.5C 429.364,1399.6 407.031,1394.43 386.5,1382C 367.212,1365.95 364.379,1347.45 378,1326.5C 393.951,1309.94 413.451,1300.44 436.5,1298C 441.844,1297.53 447.178,1297.03 452.5,1296.5C 451.837,1254.84 451.504,1213.17 451.5,1171.5C 437.852,1172.55 424.185,1172.72 410.5,1172C 393.938,1169.97 380.105,1162.8 369,1150.5C 357.543,1129.11 361.043,1110.27 379.5,1094C 401.325,1077.67 425.991,1069.17 453.5,1068.5C 455.38,967.509 499.714,892.009 586.5,842C 653.253,805.846 724.586,785.846 800.5,782C 887.504,776.57 971.171,790.57 1051.5,824C 1090.24,840.945 1124.41,864.445 1154,894.5C 1170.17,912.018 1183.17,931.684 1193,953.5C 1193.83,960.815 1194.33,968.148 1194.5,975.5C 1209.56,976.309 1224.56,977.809 1239.5,980C 1254.14,982.993 1266.64,989.827 1277,1000.5C 1287.67,1014.59 1288.34,1029.26 1279,1044.5C 1266.92,1062.91 1250.42,1075.74 1229.5,1083C 1218.54,1087.41 1207.21,1090.24 1195.5,1091.5C 1195.33,1120.17 1195.5,1148.84 1196,1177.5C 1216.7,1184.93 1235.87,1195.1 1253.5,1208C 1277.14,1228.28 1277.47,1248.95 1254.5,1270C 1237.52,1283.33 1218.85,1293.83 1198.5,1301.5C 1197.14,1333.18 1197.47,1364.85 1199.5,1396.5C 1219.39,1401.29 1237.73,1409.46 1254.5,1421C 1277.3,1442.28 1276.96,1463.28 1253.5,1484C 1237.34,1495.22 1219.34,1500.72 1199.5,1500.5C 1199.34,1531.84 1199.67,1563.17 1200.5,1594.5C 1219.09,1597.46 1236.75,1603.29 1253.5,1612C 1262.21,1616.76 1268.71,1623.6 1273,1632.5C 1274.55,1640.08 1273.22,1647.08 1269,1653.5C 1264.58,1659.93 1259.41,1665.76 1253.5,1671C 1237.84,1683.51 1220.84,1694.01 1202.5,1702.5C 1201.67,1738.83 1201.67,1775.16 1202.5,1811.5C 1216.17,1811.33 1229.84,1811.5 1243.5,1812C 1259.05,1813.36 1272.55,1819.2 1284,1829.5C 1294.14,1843.11 1295.14,1857.44 1287,1872.5C 1270.03,1899.24 1245.53,1912.24 1213.5,1911.5 Z"/></g>
<g><path style="opacity:1" fill="#303030" d="M 1213.5,1911.5 C 1210.71,1912.48 1207.71,1912.81 1204.5,1912.5C 1204.5,1919.5 1204.5,1926.5 1204.5,1933.5C 1203.51,1926.35 1203.18,1919.02 1203.5,1911.5C 1206.83,1911.5 1210.17,1911.5 1213.5,1911.5 Z"/></g>
<g><path style="opacity:1" fill="#757576" d="M 1357.5,2276.5 C 1358.29,2276.78 1358.96,2277.28 1359.5,2278C 1080.33,2278.83 801.333,2278.67 522.5,2277.5C 801,2277.83 1079.33,2277.5 1357.5,2276.5 Z"/></g>
<g><path style="opacity:1" fill="#fefefe" d="M 292.5,2306.5 C 657.5,2306.33 1022.5,2306.5 1387.5,2307C 1460.62,2412.67 1501.78,2529.84 1511,2658.5C 1515.03,2743.34 1502.69,2825.67 1474,2905.5C 1458.57,2948.22 1434.74,2985.39 1402.5,3017C 1371.66,3043.42 1336.33,3061.42 1296.5,3071C 1191.77,3094.14 1086.77,3095.47 981.5,3075C 924.996,3063.41 871.996,3042.91 822.5,3013.5C 821.5,2949.17 821.167,2884.84 821.5,2820.5C 812.167,2820.5 802.833,2820.5 793.5,2820.5C 793.833,2884.84 793.5,2949.17 792.5,3013.5C 707.758,3053.8 621.424,3090.3 533.5,3123C 508.783,3132.13 483.45,3138.8 457.5,3143C 359.256,3145.59 272.589,3115.59 197.5,3053C 155.463,3017.63 115.963,2979.47 79,2938.5C 50.523,2900.75 34.8563,2858.09 32,2810.5C 29.2371,2782.92 31.9038,2755.92 40,2729.5C 62.4288,2656.32 93.7622,2587.32 134,2522.5C 186.665,2450.34 239.498,2378.34 292.5,2306.5 Z"/></g>
</svg>
