<?xml version="1.0" encoding="UTF-8"?>
<!DOCTYPE svg PUBLIC "-//W3C//DTD SVG 1.1//EN" "http://www.w3.org/Graphics/SVG/1.1/DTD/svg11.dtd">
<svg xmlns="http://www.w3.org/2000/svg" version="1.1" width="1543px" height="3694px" style="shape-rendering:geometricPrecision; text-rendering:geometricPrecision; image-rendering:optimizeQuality; fill-rule:evenodd; clip-rule:evenodd" xmlns:xlink="http://www.w3.org/1999/xlink">
<g><path style="opacity:0.743" fill="#fdfdfd" d="M -0.5,-0.5 C 513.833,-0.5 1028.17,-0.5 1542.5,-0.5C 1542.5,1230.83 1542.5,2462.17 1542.5,3693.5C 1028.17,3693.5 513.833,3693.5 -0.5,3693.5C -0.5,2462.17 -0.5,1230.83 -0.5,-0.5 Z M 1539.5,2637.5 C 1526.6,2515.31 1486.44,2402.97 1419,2300.5C 1411.82,2290.14 1404.15,2280.14 1396,2270.5C 1359.5,2216.37 1337.17,2156.71 1329,2091.5C 1321.09,2029.37 1322.09,1967.37 1332,1905.5C 1341.59,1846.21 1356.26,1788.21 1376,1731.5C 1391.27,1691.01 1406.94,1650.68 1423,1610.5C 1460.56,1508.86 1480.06,1403.86 1481.5,1295.5C 1481.56,1175.07 1456.06,1060.4 1405,951.5C 1388.63,916.415 1370.96,882.081 1352,848.5C 1334.48,823.312 1315.82,798.979 1296,775.5C 1282.3,760.789 1267.13,747.956 1250.5,737C 1209.64,714.174 1173.8,720.34 1143,755.5C 1126.7,777.02 1115.37,801.02 1109,827.5C 1105.9,839.688 1103.56,852.021 1102,864.5C 1101.01,973.614 1097.01,1082.61 1090,1191.5C 1080.71,1303.31 1055.38,1411.31 1014,1515.5C 1000.39,1548.39 982.722,1578.72 961,1606.5C 949.578,1620.6 935.412,1630.77 918.5,1637C 909.239,1639.77 899.906,1640.11 890.5,1638C 884.939,1635.44 881.106,1631.27 879,1625.5C 875.636,1612.72 874.636,1599.72 876,1586.5C 877.721,1574.12 879.721,1561.79 882,1549.5C 930.628,1378.32 973.294,1205.66 1010,1031.5C 1017.23,997.129 1022.4,962.463 1025.5,927.5C 1025.76,893.119 1015.93,862.119 996,834.5C 972.312,808.578 942.812,795.578 907.5,795.5C 874.617,796.734 845.95,808.234 821.5,830C 807.321,842.583 795.155,856.75 785,872.5C 687.411,1021.98 593.077,1173.65 502,1327.5C 455.152,1407.42 411.152,1489.09 370,1572.5C 348.84,1615.98 332.84,1661.31 322,1708.5C 302.602,1794.22 289.269,1880.89 282,1968.5C 272.677,2075.63 267.677,2182.96 267,2290.5C 215.422,2360.66 164.089,2430.99 113,2501.5C 91.8627,2532.76 73.5294,2565.76 58,2600.5C 39.7148,2639.69 24.3814,2680.02 12,2721.5C 8.10662,2735.81 4.93995,2750.15 2.5,2764.5C 2.5,1843.83 2.5,923.167 2.5,2.5C 514.833,2.5 1027.17,2.5 1539.5,2.5C 1539.5,880.833 1539.5,1759.17 1539.5,2637.5 Z M 1539.5,2745.5 C 1539.5,3060.5 1539.5,3375.5 1539.5,3690.5C 1027.17,3690.5 514.833,3690.5 2.5,3690.5C 2.5,3398.5 2.5,3106.5 2.5,2814.5C 7.06496,2880.74 32.8983,2937.07 80,2983.5C 115.364,3019.88 152.53,3054.05 191.5,3086C 277.293,3152.37 374.293,3180.04 482.5,3169C 505.861,3163.21 528.861,3156.21 551.5,3148C 638.387,3115.15 723.887,3078.98 808,3039.5C 867.319,3073.61 930.819,3096.44 998.5,3108C 1104.25,3125.8 1209.25,3122.13 1313.5,3097C 1387.64,3076.85 1442.8,3033.01 1479,2965.5C 1503.79,2916.79 1520.79,2865.46 1530,2811.5C 1533.89,2789.45 1537.05,2767.45 1539.5,2745.5 Z"/></g>
<g><path style="opacity:0.982" fill="#010101" d="M 1539.5,2637.5 C 1540.81,2673.5 1540.81,2709.5 1539.5,2745.5C 1537.05,2767.45 1533.89,2789.45 1530,2811.5C 1520.79,2865.46 1503.79,2916.79 1479,2965.5C 1442.8,3033.01 1387.64,3076.85 1313.5,3097C 1209.25,3122.13 1104.25,3125.8 998.5,3108C 930.819,3096.44 867.319,3073.61 808,3039.5C 723.887,3078.98 638.387,3115.15 551.5,3148C 528.861,3156.21 505.861,3163.21 482.5,3169C 374.293,3180.04 277.293,3152.37 191.5,3086C 152.53,3054.05 115.364,3019.88 80,2983.5C 32.8983,2937.07 7.06496,2880.74 2.5,2814.5C 2.5,2797.83 2.5,2781.17 2.5,2764.5C 4.93995,2750.15 8.10662,2735.81 12,2721.5C 24.3814,2680.02 39.7148,2639.69 58,2600.5C 73.5294,2565.76 91.8627,2532.76 113,2501.5C 164.089,2430.99 215.422,2360.66 267,2290.5C 267.677,2182.96 272.677,2075.63 282,1968.5C 289.269,1880.89 302.602,1794.22 322,1708.5C 332.84,1661.31 348.84,1615.98 370,1572.5C 411.152,1489.09 455.152,1407.42 502,1327.5C 593.077,1173.65 687.411,1021.98 785,872.5C 795.155,856.75 807.321,842.583 821.5,830C 845.95,808.234 874.617,796.734 907.5,795.5C 942.812,795.578 972.312,808.578 996,834.5C 1015.93,862.119 1025.76,893.119 1025.5,927.5C 1022.4,962.463 1017.23,997.129 1010,1031.5C 973.294,1205.66 930.628,1378.32 882,1549.5C 879.721,1561.79 877.721,1574.12 876,1586.5C 874.636,1599.72 875.636,1612.72 879,1625.5C 881.106,1631.27 884.939,1635.44 890.5,1638C 899.906,1640.11 909.239,1639.77 918.5,1637C 935.412,1630.77 949.578,1620.6 961,1606.5C 982.722,1578.72 1000.39,1548.39 1014,1515.5C 1055.38,1411.31 1080.71,1303.31 1090,1191.5C 1097.01,1082.61 1101.01,973.614 1102,864.5C 1103.56,852.021 1105.9,839.688 1109,827.5C 1115.37,801.02 1126.7,777.02 1143,755.5C 1173.8,720.34 1209.64,714.174 1250.5,737C 1267.13,747.956 1282.3,760.789 1296,775.5C 1315.82,798.979 1334.48,823.312 1352,848.5C 1370.96,882.081 1388.63,916.415 1405,951.5C 1456.06,1060.4 1481.56,1175.07 1481.5,1295.5C 1480.06,1403.86 1460.56,1508.86 1423,1610.5C 1406.94,1650.68 1391.27,1691.01 1376,1731.5C 1356.26,1788.21 1341.59,1846.21 1332,1905.5C 1322.09,1967.37 1321.09,2029.37 1329,2091.5C 1337.17,2156.71 1359.5,2216.37 1396,2270.5C 1404.15,2280.14 1411.82,2290.14 1419,2300.5C 1486.44,2402.97 1526.6,2515.31 1539.5,2637.5 Z"/></g>
<g><path style="opacity:1" fill="#fefefe" d="M 1198.5,752.5 C 1209.43,751.877 1219.76,754.043 1229.5,759C 1238.38,763.884 1246.71,769.551 1254.5,776C 1287.97,809.12 1316.47,845.953 1340,886.5C 1357.48,920.466 1374.15,954.8 1390,989.5C 1446.62,1124.06 1464.62,1263.72 1444,1408.5C 1434.31,1475.3 1417.64,1540.3 1394,1603.5C 1379.47,1640.09 1365.14,1676.75 1351,1713.5C 1322.93,1791.23 1304.93,1871.23 1297,1953.5C 1288.24,2044.1 1300.24,2131.77 1333,2216.5C 1342.9,2239.47 1354.73,2261.3 1368.5,2282C 1011.5,2282.5 654.5,2282.67 297.5,2282.5C 296.443,2126.63 307.276,1971.63 330,1817.5C 339.158,1758.71 352.825,1701.04 371,1644.5C 379.221,1623.17 388.221,1602.17 398,1581.5C 441.697,1493.09 488.697,1406.75 539,1322.5C 629.712,1169.17 724.378,1018.5 823,870.5C 833.998,857.828 846.498,846.995 860.5,838C 896.152,818.374 930.485,820.374 963.5,844C 982.629,862.35 993.129,884.85 995,911.5C 995.667,921.833 995.667,932.167 995,942.5C 947.987,1142.91 900.654,1343.24 853,1543.5C 847.389,1568.94 846.056,1594.61 849,1620.5C 850.846,1634.39 856.346,1646.56 865.5,1657C 875.665,1665.83 887.499,1669.67 901,1668.5C 924.682,1668.16 945.516,1660.33 963.5,1645C 985.636,1624.56 1003.8,1601.06 1018,1574.5C 1034.14,1543.88 1047.81,1512.21 1059,1479.5C 1099.51,1362.26 1121.18,1241.6 1124,1117.5C 1127.67,1033.87 1130,950.205 1131,866.5C 1134.4,839.051 1142.4,813.051 1155,788.5C 1164.91,770.745 1179.41,758.745 1198.5,752.5 Z"/></g>
<g><path style="opacity:1" fill="#fefefe" d="M 289.5,2309.5 C 656.626,2311.17 1023.96,2312.17 1391.5,2312.5C 1457.78,2411.17 1497.28,2519.83 1510,2638.5C 1516.58,2726.06 1505.91,2811.4 1478,2894.5C 1462.49,2942.06 1436.99,2983.23 1401.5,3018C 1368.57,3045.63 1330.9,3063.96 1288.5,3073C 1206.17,3090.37 1123.17,3094.37 1039.5,3085C 979.05,3077.72 921.05,3061.72 865.5,3037C 850.846,3029.67 836.513,3021.84 822.5,3013.5C 821.5,2949.17 821.167,2884.84 821.5,2820.5C 812.167,2820.5 802.833,2820.5 793.5,2820.5C 793.667,2884.83 793.5,2949.17 793,3013.5C 709.906,3052.64 625.406,3088.48 539.5,3121C 518.822,3128.42 497.822,3134.75 476.5,3140C 376.664,3149.71 287.331,3123.71 208.5,3062C 160.502,3023.01 116.002,2980.17 75,2933.5C 49.1725,2896.69 34.8392,2855.69 32,2810.5C 29.238,2782.93 31.9046,2755.93 40,2729.5C 59.9698,2666.23 85.9698,2605.56 118,2547.5C 124.085,2537.66 130.418,2528 137,2518.5C 188.051,2448.96 238.885,2379.29 289.5,2309.5 Z"/></g>
</svg>
