<?xml version="1.0" encoding="UTF-8"?>
<!DOCTYPE svg PUBLIC "-//W3C//DTD SVG 1.1//EN" "http://www.w3.org/Graphics/SVG/1.1/DTD/svg11.dtd">
<svg xmlns="http://www.w3.org/2000/svg" version="1.1" width="810px" height="3694px" style="shape-rendering:geometricPrecision; text-rendering:geometricPrecision; image-rendering:optimizeQuality; fill-rule:evenodd; clip-rule:evenodd" xmlns:xlink="http://www.w3.org/1999/xlink">
<g><path style="opacity:0.894" fill="#fafafa" d="M -0.5,-0.5 C 269.5,-0.5 539.5,-0.5 809.5,-0.5C 809.5,1230.83 809.5,2462.17 809.5,3693.5C 539.5,3693.5 269.5,3693.5 -0.5,3693.5C -0.5,2462.17 -0.5,1230.83 -0.5,-0.5 Z M 2.5,3222.5 C 5.05332,3253.69 14.5533,3282.69 31,3309.5C 37.9358,3321.1 47.4358,3329.94 59.5,3336C 89.5876,3349.89 121.254,3356.89 154.5,3357C 178.186,3357.55 201.852,3357.05 225.5,3355.5C 359.508,3357.1 493.508,3356.6 627.5,3354C 657.925,3354.66 687.592,3350.32 716.5,3341C 744.979,3330.5 767.479,3312.67 784,3287.5C 795.975,3263.6 802.642,3238.27 804,3211.5C 805.904,3187.48 805.571,3163.48 803,3139.5C 792.56,2997.64 771.893,2857.31 741,2718.5C 723.593,2639.61 698.593,2563.28 666,2489.5C 644.947,2434.34 627.114,2378.18 612.5,2321C 613.516,2320.48 614.182,2319.65 614.5,2318.5C 607,2288.5 599.5,2258.5 592,2228.5C 586.38,2191.45 580.547,2154.45 574.5,2117.5C 591.568,2105.75 605.734,2091.09 617,2073.5C 638.854,2030.44 631.354,1993.27 594.5,1962C 587.93,1956.8 581.097,1951.96 574,1947.5C 573.168,1938.15 573.335,1928.82 574.5,1919.5C 607.826,1903.88 624.826,1877.54 625.5,1840.5C 623.874,1803.23 605.874,1777.56 571.5,1763.5C 570.501,1751.18 570.168,1738.85 570.5,1726.5C 596.186,1717.85 614.019,1700.85 624,1675.5C 632.487,1643.64 623.321,1618.14 596.5,1599C 588.581,1593.79 580.414,1588.96 572,1584.5C 571.167,1571.49 571.334,1558.49 572.5,1545.5C 606.854,1535.46 624.854,1512.46 626.5,1476.5C 625.035,1439.89 607.202,1415.22 573,1402.5C 573.107,1381.84 573.273,1361.17 573.5,1340.5C 599.957,1337.55 617.791,1323.55 627,1298.5C 637.695,1257.91 625.862,1225.74 591.5,1202C 584.904,1198.08 577.904,1195.25 570.5,1193.5C 570.367,1156.51 566.867,1119.84 560,1083.5C 545.255,1019.13 508.755,971.63 450.5,941C 385.4,911.283 323.733,916.95 265.5,958C 220.604,996.934 193.771,1046.1 185,1105.5C 147.323,1113.34 127.49,1136.5 125.5,1175C 127.952,1214.78 147.119,1243.28 183,1260.5C 183.667,1273.5 183.667,1286.5 183,1299.5C 167.047,1309.12 154.047,1321.79 144,1337.5C 128.793,1368.11 131.793,1396.77 153,1423.5C 161.44,1432.95 170.773,1441.28 181,1448.5C 181.667,1465.17 181.667,1481.83 181,1498.5C 144.078,1518.01 129.411,1548.35 137,1589.5C 144.017,1612.18 158.351,1628.18 180,1637.5C 180.667,1651.17 180.667,1664.83 180,1678.5C 156.748,1687.42 141.414,1703.75 134,1727.5C 130.556,1745.84 133.889,1762.84 144,1778.5C 153.584,1792.75 165.251,1805.09 179,1815.5C 179.167,1834.17 179,1852.83 178.5,1871.5C 141.2,1876.64 121.867,1898.14 120.5,1936C 121.678,1968.04 135.345,1993.04 161.5,2011C 166.521,2013.56 171.688,2015.73 177,2017.5C 177.667,2049.5 177.667,2081.5 177,2113.5C 176.798,2115.26 176.298,2116.92 175.5,2118.5C 159.043,2125.63 145.876,2136.63 136,2151.5C 131.282,2163.84 130.282,2176.5 133,2189.5C 137.952,2206.69 144.286,2223.36 152,2239.5C 151.517,2264.52 150.35,2289.52 148.5,2314.5C 148.751,2316.85 149.085,2319.18 149.5,2321.5C 137.823,2438.76 123.99,2555.76 108,2672.5C 79.3783,2829.28 47.045,2985.28 11,3140.5C 6.67807,3159.77 3.84474,3179.1 2.5,3198.5C 2.5,2133.17 2.5,1067.83 2.5,2.5C 270.5,2.5 538.5,2.5 806.5,2.5C 806.5,1231.83 806.5,2461.17 806.5,3690.5C 538.5,3690.5 270.5,3690.5 2.5,3690.5C 2.5,3534.5 2.5,3378.5 2.5,3222.5 Z"/></g>
<g><path style="opacity:0.981" fill="#010101" d="M 2.5,3222.5 C 2.5,3214.5 2.5,3206.5 2.5,3198.5C 3.84474,3179.1 6.67807,3159.77 11,3140.5C 47.045,2985.28 79.3783,2829.28 108,2672.5C 123.99,2555.76 137.823,2438.76 149.5,2321.5C 149.085,2319.18 148.751,2316.85 148.5,2314.5C 150.35,2289.52 151.517,2264.52 152,2239.5C 144.286,2223.36 137.952,2206.69 133,2189.5C 130.282,2176.5 131.282,2163.84 136,2151.5C 145.876,2136.63 159.043,2125.63 175.5,2118.5C 176.298,2116.92 176.798,2115.26 177,2113.5C 177.667,2081.5 177.667,2049.5 177,2017.5C 171.688,2015.73 166.521,2013.56 161.5,2011C 135.345,1993.04 121.678,1968.04 120.5,1936C 121.867,1898.14 141.2,1876.64 178.5,1871.5C 179,1852.83 179.167,1834.17 179,1815.5C 165.251,1805.09 153.584,1792.75 144,1778.5C 133.889,1762.84 130.556,1745.84 134,1727.5C 141.414,1703.75 156.748,1687.42 180,1678.5C 180.667,1664.83 180.667,1651.17 180,1637.5C 158.351,1628.18 144.017,1612.18 137,1589.5C 129.411,1548.35 144.078,1518.01 181,1498.5C 181.667,1481.83 181.667,1465.17 181,1448.5C 170.773,1441.28 161.44,1432.95 153,1423.5C 131.793,1396.77 128.793,1368.11 144,1337.5C 154.047,1321.79 167.047,1309.12 183,1299.5C 183.667,1286.5 183.667,1273.5 183,1260.5C 147.119,1243.28 127.952,1214.78 125.5,1175C 127.49,1136.5 147.323,1113.34 185,1105.5C 193.771,1046.1 220.604,996.934 265.5,958C 323.733,916.95 385.4,911.283 450.5,941C 508.755,971.63 545.255,1019.13 560,1083.5C 566.867,1119.84 570.367,1156.51 570.5,1193.5C 577.904,1195.25 584.904,1198.08 591.5,1202C 625.862,1225.74 637.695,1257.91 627,1298.5C 617.791,1323.55 599.957,1337.55 573.5,1340.5C 573.273,1361.17 573.107,1381.84 573,1402.5C 607.202,1415.22 625.035,1439.89 626.5,1476.5C 624.854,1512.46 606.854,1535.46 572.5,1545.5C 571.334,1558.49 571.167,1571.49 572,1584.5C 580.414,1588.96 588.581,1593.79 596.5,1599C 623.321,1618.14 632.487,1643.64 624,1675.5C 614.019,1700.85 596.186,1717.85 570.5,1726.5C 570.168,1738.85 570.501,1751.18 571.5,1763.5C 605.874,1777.56 623.874,1803.23 625.5,1840.5C 624.826,1877.54 607.826,1903.88 574.5,1919.5C 573.335,1928.82 573.168,1938.15 574,1947.5C 581.097,1951.96 587.93,1956.8 594.5,1962C 631.354,1993.27 638.854,2030.44 617,2073.5C 605.734,2091.09 591.568,2105.75 574.5,2117.5C 580.547,2154.45 586.38,2191.45 592,2228.5C 599.5,2258.5 607,2288.5 614.5,2318.5C 614.182,2319.65 613.516,2320.48 612.5,2321C 627.114,2378.18 644.947,2434.34 666,2489.5C 698.593,2563.28 723.593,2639.61 741,2718.5C 771.893,2857.31 792.56,2997.64 803,3139.5C 805.571,3163.48 805.904,3187.48 804,3211.5C 802.642,3238.27 795.975,3263.6 784,3287.5C 767.479,3312.67 744.979,3330.5 716.5,3341C 687.592,3350.32 657.925,3354.66 627.5,3354C 493.508,3356.6 359.508,3357.1 225.5,3355.5C 201.852,3357.05 178.186,3357.55 154.5,3357C 121.254,3356.89 89.5876,3349.89 59.5,3336C 47.4358,3329.94 37.9358,3321.1 31,3309.5C 14.5533,3282.69 5.05332,3253.69 2.5,3222.5 Z"/></g>
<g><path style="opacity:1" fill="#b7b7b8" d="M 206.5,2028.5 C 207.495,2015.68 207.829,2002.68 207.5,1989.5C 201.833,1989.5 196.167,1989.5 190.5,1989.5C 182.104,1988.8 174.77,1985.64 168.5,1980C 154.426,1964.55 148.592,1946.39 151,1925.5C 153.973,1913.86 161.14,1906.03 172.5,1902C 184.438,1900.59 196.438,1900.09 208.5,1900.5C 208.833,1866.83 208.5,1833.16 207.5,1799.5C 195.79,1792.04 185.29,1783.04 176,1772.5C 153.637,1744.19 158.47,1722.02 190.5,1706C 196.462,1703.73 202.462,1701.57 208.5,1699.5C 209.667,1670.84 209.833,1642.17 209,1613.5C 177.27,1610.73 162.27,1593.4 164,1561.5C 167.401,1546.87 175.568,1535.7 188.5,1528C 195.516,1523.99 202.85,1520.82 210.5,1518.5C 210.667,1489.5 210.5,1460.5 210,1431.5C 196.275,1423.97 184.275,1414.3 174,1402.5C 159.687,1382.86 160.02,1363.52 175,1344.5C 185.915,1333.25 198.248,1323.91 212,1316.5C 212.5,1290.5 212.667,1264.5 212.5,1238.5C 184.888,1233.06 166.388,1217.06 157,1190.5C 150.369,1167.61 157.203,1150.11 177.5,1138C 189.253,1135.28 201.087,1133.11 213,1131.5C 214.515,1080.83 231.849,1036.5 265,998.5C 315.625,948.579 373.459,938.412 438.5,968C 490.315,996.175 521.815,1039.34 533,1097.5C 539.239,1137.24 542.405,1177.24 542.5,1217.5C 567.934,1218.48 586.434,1230.14 598,1252.5C 605.932,1273.02 602.099,1290.85 586.5,1306C 582.186,1308.66 577.519,1310.33 572.5,1311C 562.817,1311.62 553.15,1311.45 543.5,1310.5C 543.5,1349.5 543.5,1388.5 543.5,1427.5C 566.895,1427.44 583.728,1437.77 594,1458.5C 602.028,1499.98 584.861,1519.65 542.5,1517.5C 542.333,1546.5 542.5,1575.5 543,1604.5C 557.594,1609.71 571.094,1616.88 583.5,1626C 599.986,1639.78 602.819,1655.94 592,1674.5C 579.861,1692.82 562.694,1702.16 540.5,1702.5C 540.5,1730.17 540.5,1757.83 540.5,1785.5C 585.572,1793.35 602.739,1819.35 592,1863.5C 582.399,1883.24 566.565,1894.58 544.5,1897.5C 543.167,1919.83 543.167,1942.17 544.5,1964.5C 563.173,1973.68 579.006,1986.35 592,2002.5C 602.205,2021.59 601.871,2040.59 591,2059.5C 582.451,2073.72 570.951,2084.88 556.5,2093C 551.47,2093.45 546.47,2094.11 541.5,2095C 550.252,2158.1 561.585,2220.76 575.5,2283C 574.468,2285.22 574.468,2287.38 575.5,2289.5C 443.502,2290.5 311.502,2290.83 179.5,2290.5C 180.544,2270.84 181.044,2251.17 181,2231.5C 171.174,2213.02 164.341,2193.52 160.5,2173C 161.353,2165.3 165.02,2159.3 171.5,2155C 182.475,2147.93 193.975,2141.76 206,2136.5C 206.5,2100.5 206.667,2064.5 206.5,2028.5 Z"/></g>
<g><path style="opacity:1" fill="#565657" d="M 190.5,1989.5 C 196.167,1989.5 201.833,1989.5 207.5,1989.5C 207.829,2002.68 207.495,2015.68 206.5,2028.5C 206.5,2015.83 206.5,2003.17 206.5,1990.5C 200.974,1990.82 195.64,1990.49 190.5,1989.5 Z"/></g>
<g><path style="opacity:1" fill="#fefefe" d="M 178.5,2318.5 C 313.166,2319.2 447.832,2319.53 582.5,2319.5C 603.053,2404.33 630.886,2486.66 666,2566.5C 695.704,2651.65 718.37,2738.65 734,2827.5C 755.122,2944.13 768.956,3061.63 775.5,3180C 776.828,3209.04 772.661,3237.21 763,3264.5C 756.421,3278.75 746.588,3290.25 733.5,3299C 714.561,3311.2 693.894,3318.87 671.5,3322C 639.2,3324.08 606.867,3325.41 574.5,3326C 450.167,3326.33 325.833,3326.67 201.5,3327C 169.647,3329.44 137.98,3328.1 106.5,3323C 92.4347,3320.2 79.4347,3314.87 67.5,3307C 55.7647,3295.24 47.2647,3281.41 42,3265.5C 33.0889,3239.54 30.0889,3212.87 33,3185.5C 34.5935,3174.83 36.2602,3164.16 38,3153.5C 60.7711,3052.98 82.7711,2952.31 104,2851.5C 116.234,2791.33 127.567,2731 138,2670.5C 153.81,2553.43 167.31,2436.09 178.5,2318.5 Z"/></g>
</svg>
