<?xml version="1.0" encoding="UTF-8"?>
<!DOCTYPE svg PUBLIC "-//W3C//DTD SVG 1.1//EN" "http://www.w3.org/Graphics/SVG/1.1/DTD/svg11.dtd">
<svg xmlns="http://www.w3.org/2000/svg" version="1.1" width="823px" height="3694px" style="shape-rendering:geometricPrecision; text-rendering:geometricPrecision; image-rendering:optimizeQuality; fill-rule:evenodd; clip-rule:evenodd" xmlns:xlink="http://www.w3.org/1999/xlink">
<g><path style="opacity:0.797" fill="#f6f6f6" d="M -0.5,-0.5 C 273.833,-0.5 548.167,-0.5 822.5,-0.5C 822.5,1230.83 822.5,2462.17 822.5,3693.5C 548.167,3693.5 273.833,3693.5 -0.5,3693.5C -0.5,2462.17 -0.5,1230.83 -0.5,-0.5 Z M 819.5,485.5 C 817.907,461.055 812.407,437.388 803,414.5C 792.659,393.159 777.159,376.659 756.5,365C 730.825,350.333 703.158,342.333 673.5,341C 529.342,336.112 385.342,339.112 241.5,350C 183.956,350.401 132.622,368.068 87.5,403C 64.1351,422.026 43.9684,443.859 27,468.5C 13.0921,493.153 4.92545,519.486 2.5,547.5C 2.5,365.5 2.5,183.5 2.5,1.5C 274.833,1.5 547.167,1.5 819.5,1.5C 819.5,162.833 819.5,324.167 819.5,485.5 Z M 819.5,533.5 C 819.5,1585.83 819.5,2638.17 819.5,3690.5C 547.167,3690.5 274.833,3690.5 2.5,3690.5C 2.5,2661.17 2.5,1631.83 2.5,602.5C 14.7333,746.92 35.5667,890.254 65,1032.5C 76.7709,1083.58 90.1043,1134.25 105,1184.5C 125.192,1253.08 146.192,1321.41 168,1389.5C 169.561,1409.83 170.561,1430.16 171,1450.5C 163.818,1466.05 157.818,1482.05 153,1498.5C 146.032,1525.27 153.866,1546.44 176.5,1562C 182.336,1565.75 188.336,1569.25 194.5,1572.5C 195.833,1606.17 195.833,1639.83 194.5,1673.5C 168.275,1683.56 151.442,1702.23 144,1729.5C 136.754,1754.35 140.42,1777.35 155,1798.5C 166.083,1810.42 179.75,1817.42 196,1819.5C 196.871,1838.16 197.204,1856.83 197,1875.5C 177.718,1889.44 163.718,1907.44 155,1929.5C 147.141,1968.11 161.307,1995.45 197.5,2011.5C 198.499,2025.48 198.833,2039.48 198.5,2053.5C 179.942,2060.89 166.776,2073.89 159,2092.5C 146.078,2135.98 159.244,2168.98 198.5,2191.5C 199.666,2208.49 199.833,2225.49 199,2242.5C 178.185,2255.81 163.851,2274.15 156,2297.5C 149.637,2327.24 157.47,2352.58 179.5,2373.5C 185.802,2379.31 192.468,2384.65 199.5,2389.5C 201.616,2403.11 201.95,2416.78 200.5,2430.5C 157.33,2453.51 139.83,2489.17 148,2537.5C 157.326,2564.07 175.826,2579.74 203.5,2584.5C 210.749,2639.83 234.082,2687 273.5,2726C 320.953,2766.09 374.62,2777.43 434.5,2760C 499.548,2735.95 542.382,2690.78 563,2624.5C 569.326,2600.55 573.326,2576.22 575,2551.5C 576.23,2533.65 577.397,2515.82 578.5,2498C 618.632,2481.83 637.799,2452 636,2408.5C 631.498,2375.4 612.998,2355.73 580.5,2349.5C 580.226,2328.81 580.226,2308.14 580.5,2287.5C 613.536,2274.44 630.536,2250.11 631.5,2214.5C 631.516,2184.34 618.183,2162.51 591.5,2149C 587.284,2147.32 582.951,2146.15 578.5,2145.5C 578.333,2132.16 578.5,2118.83 579,2105.5C 594.983,2098.18 608.65,2087.84 620,2074.5C 638.668,2045.12 637.001,2016.79 615,1989.5C 604.699,1977.86 592.366,1969.19 578,1963.5C 577.5,1951.17 577.333,1938.84 577.5,1926.5C 603.403,1917.09 620.236,1899.09 628,1872.5C 636.121,1838.2 627.621,1808.7 602.5,1784C 595.754,1778.87 588.588,1774.37 581,1770.5C 580.168,1761.15 580.335,1751.82 581.5,1742.5C 601.627,1730.54 617.127,1714.21 628,1693.5C 637.698,1668.25 636.365,1643.59 624,1619.5C 613.281,1600.78 599.115,1585.28 581.5,1573C 587.426,1535.19 593.259,1497.36 599,1459.5C 615.676,1385.47 636.009,1312.47 660,1240.5C 703.139,1121.41 737.139,999.746 762,875.5C 784.973,761.997 804.139,647.997 819.5,533.5 Z"/></g>
<g><path style="opacity:0.981" fill="#010101" d="M 819.5,485.5 C 819.5,501.5 819.5,517.5 819.5,533.5C 804.139,647.997 784.973,761.997 762,875.5C 737.139,999.746 703.139,1121.41 660,1240.5C 636.009,1312.47 615.676,1385.47 599,1459.5C 593.259,1497.36 587.426,1535.19 581.5,1573C 599.115,1585.28 613.281,1600.78 624,1619.5C 636.365,1643.59 637.698,1668.25 628,1693.5C 617.127,1714.21 601.627,1730.54 581.5,1742.5C 580.335,1751.82 580.168,1761.15 581,1770.5C 588.588,1774.37 595.754,1778.87 602.5,1784C 627.621,1808.7 636.121,1838.2 628,1872.5C 620.236,1899.09 603.403,1917.09 577.5,1926.5C 577.333,1938.84 577.5,1951.17 578,1963.5C 592.366,1969.19 604.699,1977.86 615,1989.5C 637.001,2016.79 638.668,2045.12 620,2074.5C 608.65,2087.84 594.983,2098.18 579,2105.5C 578.5,2118.83 578.333,2132.16 578.5,2145.5C 582.951,2146.15 587.284,2147.32 591.5,2149C 618.183,2162.51 631.516,2184.34 631.5,2214.5C 630.536,2250.11 613.536,2274.44 580.5,2287.5C 580.226,2308.14 580.226,2328.81 580.5,2349.5C 612.998,2355.73 631.498,2375.4 636,2408.5C 637.799,2452 618.632,2481.83 578.5,2498C 577.397,2515.82 576.23,2533.65 575,2551.5C 573.326,2576.22 569.326,2600.55 563,2624.5C 542.382,2690.78 499.548,2735.95 434.5,2760C 374.62,2777.43 320.953,2766.09 273.5,2726C 234.082,2687 210.749,2639.83 203.5,2584.5C 175.826,2579.74 157.326,2564.07 148,2537.5C 139.83,2489.17 157.33,2453.51 200.5,2430.5C 201.95,2416.78 201.616,2403.11 199.5,2389.5C 192.468,2384.65 185.802,2379.31 179.5,2373.5C 157.47,2352.58 149.637,2327.24 156,2297.5C 163.851,2274.15 178.185,2255.81 199,2242.5C 199.833,2225.49 199.666,2208.49 198.5,2191.5C 159.244,2168.98 146.078,2135.98 159,2092.5C 166.776,2073.89 179.942,2060.89 198.5,2053.5C 198.833,2039.48 198.499,2025.48 197.5,2011.5C 161.307,1995.45 147.141,1968.11 155,1929.5C 163.718,1907.44 177.718,1889.44 197,1875.5C 197.204,1856.83 196.871,1838.16 196,1819.5C 179.75,1817.42 166.083,1810.42 155,1798.5C 140.42,1777.35 136.754,1754.35 144,1729.5C 151.442,1702.23 168.275,1683.56 194.5,1673.5C 195.833,1639.83 195.833,1606.17 194.5,1572.5C 188.336,1569.25 182.336,1565.75 176.5,1562C 153.866,1546.44 146.032,1525.27 153,1498.5C 157.818,1482.05 163.818,1466.05 171,1450.5C 170.561,1430.16 169.561,1409.83 168,1389.5C 146.192,1321.41 125.192,1253.08 105,1184.5C 90.1043,1134.25 76.7709,1083.58 65,1032.5C 35.5667,890.254 14.7333,746.92 2.5,602.5C 2.5,584.167 2.5,565.833 2.5,547.5C 4.92545,519.486 13.0921,493.153 27,468.5C 43.9684,443.859 64.1351,422.026 87.5,403C 132.622,368.068 183.956,350.401 241.5,350C 385.342,339.112 529.342,336.112 673.5,341C 703.158,342.333 730.825,350.333 756.5,365C 777.159,376.659 792.659,393.159 803,414.5C 812.407,437.388 817.907,461.055 819.5,485.5 Z"/></g>
<g><path style="opacity:1" fill="#fefefe" d="M 496.5,367.5 C 553.526,366.905 610.526,367.738 667.5,370C 700.625,370.818 730.292,381.151 756.5,401C 772.213,415.922 782.046,434.089 786,455.5C 789.866,480.012 791.199,504.679 790,529.5C 769.03,693.973 738.697,856.64 699,1017.5C 677.695,1095.75 653.362,1173.08 626,1249.5C 613.413,1289.92 601.246,1330.42 589.5,1371C 457.167,1371.5 324.834,1371.67 192.5,1371.5C 165.887,1285.38 140.054,1199.04 115,1112.5C 99.2751,1055.21 86.6084,997.213 77,938.5C 60.8878,848.934 47.8878,758.934 38,668.5C 35.0055,637.565 32.8389,606.565 31.5,575.5C 28.4313,527.518 43.598,486.518 77,452.5C 103.884,423.636 136.05,402.803 173.5,390C 183.658,386.902 193.992,384.568 204.5,383C 263.392,377.629 322.392,373.629 381.5,371C 419.991,369.663 458.324,368.496 496.5,367.5 Z"/></g>
<g><path style="opacity:1" fill="#b7b7b8" d="M 549.5,1904.5 C 548.171,1909.79 547.504,1915.46 547.5,1921.5C 547.501,1927.34 547.834,1933.01 548.5,1938.5C 548.5,1955.17 548.5,1971.83 548.5,1988.5C 575.517,1989.76 593.684,2003.09 603,2028.5C 605.058,2043.99 599.891,2056.49 587.5,2066C 576.052,2074.06 563.719,2080.56 550.5,2085.5C 549.5,2114.49 549.167,2143.49 549.5,2172.5C 586.055,2169.48 603.555,2186.15 602,2222.5C 595.146,2248.83 577.98,2262.5 550.5,2263.5C 550.672,2302.17 551.005,2340.84 551.5,2379.5C 560.825,2378.7 570.158,2378.54 579.5,2379C 597.794,2384.88 607.128,2397.54 607.5,2417C 604.042,2451.92 584.709,2470.42 549.5,2472.5C 549.248,2511.03 546.415,2549.36 541,2587.5C 531.696,2650.09 499.196,2695.92 443.5,2725C 372.911,2752.98 314.745,2736.81 269,2676.5C 244.558,2641 232.058,2601.67 231.5,2558.5C 222.453,2557.74 213.453,2556.57 204.5,2555C 184.421,2549.02 174.421,2535.52 174.5,2514.5C 178.269,2480.39 196.936,2459.39 230.5,2451.5C 230.833,2425.49 230.5,2399.49 229.5,2373.5C 213.749,2365.58 200.582,2354.58 190,2340.5C 178.995,2321.57 180.328,2303.57 194,2286.5C 203.567,2274.76 215.067,2265.43 228.5,2258.5C 229.5,2229.84 229.833,2201.17 229.5,2172.5C 210.956,2167.5 196.789,2156.83 187,2140.5C 178.146,2118.09 182.98,2099.25 201.5,2084C 208.902,2079.65 216.902,2077.48 225.5,2077.5C 226.5,2077.5 227.5,2077.5 228.5,2077.5C 228.828,2065.65 228.495,2053.99 227.5,2042.5C 227.667,2025.5 227.5,2008.5 227,1991.5C 214.456,1987.64 202.956,1981.81 192.5,1974C 181.299,1963.04 178.466,1950.21 184,1935.5C 194.188,1916.98 208.188,1901.98 226,1890.5C 226.5,1856.83 226.667,1823.17 226.5,1789.5C 217.178,1790.35 207.845,1790.52 198.5,1790C 176.92,1784.71 167.42,1770.88 170,1748.5C 172.066,1728.51 181.566,1713.34 198.5,1703C 203.965,1700.88 209.631,1700.05 215.5,1700.5C 218.833,1700.5 222.167,1700.5 225.5,1700.5C 225.83,1683.66 225.497,1666.99 224.5,1650.5C 224.833,1618.16 224.5,1585.83 223.5,1553.5C 209.458,1547.73 196.624,1540.07 185,1530.5C 183.414,1528.33 182.08,1526 181,1523.5C 180.161,1516.43 180.494,1509.43 182,1502.5C 187.17,1487.16 193.17,1472.16 200,1457.5C 200.206,1438.48 199.706,1419.48 198.5,1400.5C 326.169,1400.06 453.836,1400.06 581.5,1400.5C 578.503,1407.62 577.336,1414.95 578,1422.5C 574.685,1434.43 571.685,1446.43 569,1458.5C 562.229,1504.52 555.395,1550.52 548.5,1596.5C 556.83,1595.9 564.497,1597.73 571.5,1602C 584.322,1612.15 594.155,1624.65 601,1639.5C 608.616,1659.92 605.616,1678.59 592,1695.5C 580.035,1708.14 566.368,1718.47 551,1726.5C 550.333,1748.5 550.333,1770.5 551,1792.5C 589.361,1800.87 605.694,1824.54 600,1863.5C 595.15,1880.35 584.65,1892.18 568.5,1899C 562.295,1901.35 555.962,1903.18 549.5,1904.5 Z"/></g>
<g><path style="opacity:1" fill="#4e4e4f" d="M 224.5,1650.5 C 225.497,1666.99 225.83,1683.66 225.5,1700.5C 222.167,1700.5 218.833,1700.5 215.5,1700.5C 218.287,1699.52 221.287,1699.19 224.5,1699.5C 224.5,1683.17 224.5,1666.83 224.5,1650.5 Z"/></g>
<g><path style="opacity:1" fill="#525253" d="M 549.5,1904.5 C 548.523,1915.75 548.189,1927.09 548.5,1938.5C 547.834,1933.01 547.501,1927.34 547.5,1921.5C 547.504,1915.46 548.171,1909.79 549.5,1904.5 Z"/></g>
<g><path style="opacity:1" fill="#737374" d="M 227.5,2042.5 C 228.495,2053.99 228.828,2065.65 228.5,2077.5C 227.5,2077.5 226.5,2077.5 225.5,2077.5C 227.446,2066.09 228.112,2054.42 227.5,2042.5 Z"/></g>
</svg>
