<?xml version="1.0" encoding="UTF-8"?>
<!DOCTYPE svg PUBLIC "-//W3C//DTD SVG 1.1//EN" "http://www.w3.org/Graphics/SVG/1.1/DTD/svg11.dtd">
<svg xmlns="http://www.w3.org/2000/svg" version="1.1" width="810px" height="3694px" style="shape-rendering:geometricPrecision; text-rendering:geometricPrecision; image-rendering:optimizeQuality; fill-rule:evenodd; clip-rule:evenodd" xmlns:xlink="http://www.w3.org/1999/xlink">
<g><path style="opacity:0.894" fill="#fafafa" d="M -0.5,-0.5 C 269.5,-0.5 539.5,-0.5 809.5,-0.5C 809.5,1230.83 809.5,2462.17 809.5,3693.5C 539.5,3693.5 269.5,3693.5 -0.5,3693.5C -0.5,2462.17 -0.5,1230.83 -0.5,-0.5 Z M 2.5,3233.5 C 7.12652,3265.42 18.9599,3294.42 38,3320.5C 57.8815,3337.85 81.0481,3348.35 107.5,3352C 128.859,3355.41 150.359,3357.25 172,3357.5C 193.65,3356.31 215.317,3355.64 237,3355.5C 374.518,3357.28 512.018,3356.44 649.5,3353C 694.979,3352.74 734.479,3337.57 768,3307.5C 780.818,3292.98 789.818,3276.32 795,3257.5C 804.529,3218.62 806.862,3179.28 802,3139.5C 791.56,2997.64 770.893,2857.31 740,2718.5C 728.563,2669.86 714.897,2621.86 699,2574.5C 680.944,2528.05 662.61,2481.72 644,2435.5C 624.531,2382.09 606.864,2328.09 591,2273.5C 559.926,2115.24 539.926,1955.57 531,1794.5C 525.494,1707.88 520.827,1621.21 517,1534.5C 510.154,1363.83 503.154,1193.16 496,1022.5C 494.469,991.137 492.469,959.803 490,928.5C 483.889,874.388 472.555,821.388 456,769.5C 445.551,736.915 428.718,708.248 405.5,683.5C 376.859,657.686 343.525,648.853 305.5,657C 279.881,663.946 260.715,679.112 248,702.5C 237.166,722.165 230.5,743.165 228,765.5C 211.619,1061.31 199.952,1357.31 193,1653.5C 185.024,1866.78 172.358,2079.78 155,2292.5C 140.635,2421.42 124.302,2550.09 106,2678.5C 77.5827,2833.25 45.5827,2987.25 10,3140.5C 7.147,3154.58 4.647,3168.58 2.5,3182.5C 2.5,2122.5 2.5,1062.5 2.5,2.5C 270.5,2.5 538.5,2.5 806.5,2.5C 806.5,1231.83 806.5,2461.17 806.5,3690.5C 538.5,3690.5 270.5,3690.5 2.5,3690.5C 2.5,3538.17 2.5,3385.83 2.5,3233.5 Z"/></g>
<g><path style="opacity:0.982" fill="#010101" d="M 2.5,3233.5 C 1.24981,3216.5 1.24981,3199.5 2.5,3182.5C 4.647,3168.58 7.147,3154.58 10,3140.5C 45.5827,2987.25 77.5827,2833.25 106,2678.5C 124.302,2550.09 140.635,2421.42 155,2292.5C 172.358,2079.78 185.024,1866.78 193,1653.5C 199.952,1357.31 211.619,1061.31 228,765.5C 230.5,743.165 237.166,722.165 248,702.5C 260.715,679.112 279.881,663.946 305.5,657C 343.525,648.853 376.859,657.686 405.5,683.5C 428.718,708.248 445.551,736.915 456,769.5C 472.555,821.388 483.889,874.388 490,928.5C 492.469,959.803 494.469,991.137 496,1022.5C 503.154,1193.16 510.154,1363.83 517,1534.5C 520.827,1621.21 525.494,1707.88 531,1794.5C 539.926,1955.57 559.926,2115.24 591,2273.5C 606.864,2328.09 624.531,2382.09 644,2435.5C 662.61,2481.72 680.944,2528.05 699,2574.5C 714.897,2621.86 728.563,2669.86 740,2718.5C 770.893,2857.31 791.56,2997.64 802,3139.5C 806.862,3179.28 804.529,3218.62 795,3257.5C 789.818,3276.32 780.818,3292.98 768,3307.5C 734.479,3337.57 694.979,3352.74 649.5,3353C 512.018,3356.44 374.518,3357.28 237,3355.5C 215.317,3355.64 193.65,3356.31 172,3357.5C 150.359,3357.25 128.859,3355.41 107.5,3352C 81.0481,3348.35 57.8815,3337.85 38,3320.5C 18.9599,3294.42 7.12652,3265.42 2.5,3233.5 Z"/></g>
<g><path style="opacity:1" fill="#fefefe" d="M 322.5,683.5 C 349.735,681.541 372.569,690.541 391,710.5C 411.749,736.999 426.415,766.665 435,799.5C 444.194,833.469 451.861,867.802 458,902.5C 460.661,924.44 462.661,946.44 464,968.5C 466.27,1015.5 468.603,1062.5 471,1109.5C 477.552,1288.53 484.886,1467.53 493,1646.5C 497.864,1752.34 505.198,1858.01 515,1963.5C 526.188,2069.15 541.855,2174.15 562,2278.5C 563.501,2283.17 565.001,2287.84 566.5,2292.5C 439.168,2293.5 311.835,2293.83 184.5,2293.5C 202.287,2073.81 215.12,1853.81 223,1633.5C 224.889,1532.81 227.556,1432.15 231,1331.5C 238.699,1143.45 247.366,955.453 257,767.5C 259.928,739.668 271.428,716.168 291.5,697C 300.874,690.051 311.208,685.551 322.5,683.5 Z"/></g>
<g><path style="opacity:1" fill="#fefefe" d="M 180.5,2322.5 C 312.168,2322.17 443.835,2322.5 575.5,2323.5C 600.901,2406.21 630.734,2487.21 665,2566.5C 694.702,2651.64 717.368,2738.64 733,2827.5C 752.643,2937.06 766.31,3047.39 774,3158.5C 776.355,3189.56 774.022,3220.23 767,3250.5C 762.516,3266.31 754.35,3279.81 742.5,3291C 723.049,3306.39 701.049,3316.39 676.5,3321C 642.581,3324.18 608.581,3325.84 574.5,3326C 431.483,3326.1 288.483,3326.77 145.5,3328C 123.095,3327.25 101.429,3322.92 80.5,3315C 66.7242,3308.89 56.5575,3299.06 50,3285.5C 36.6134,3260.34 30.4468,3233.5 31.5,3205C 31.3082,3193.09 32.1416,3181.26 34,3169.5C 54.1281,3077.86 74.1281,2986.19 94,2894.5C 107.439,2829.97 120.105,2765.31 132,2700.5C 150.997,2574.86 167.164,2448.86 180.5,2322.5 Z"/></g>
</svg>
