<?xml version="1.0" encoding="UTF-8"?>
<svg version="1.1" xmlns="http://www.w3.org/2000/svg" width="810" height="3694">
<path d="M0 0 C267.3 0 534.6 0 810 0 C810 1219.02 810 2438.04 810 3694 C542.7 3694 275.4 3694 0 3694 C0 2474.98 0 1255.96 0 0 Z M3 3 C3 1052.4 3 2101.8 3 3183 C3.33 3183 3.66 3183 4 3183 C4.13806313 3181.98031631 4.13806313 3181.98031631 4.27891541 3180.94003296 C6.65198219 3163.64518662 9.77247267 3146.66062126 13.5625 3129.625 C13.98333322 3127.70827353 14.40414602 3125.7915424 14.82400513 3123.87460232 C18.2523798 3108.22352181 21.75998464 3092.59006956 25.26953125 3076.95703125 C25.64338191 3075.29165653 26.01723241 3073.62628177 26.39108276 3071.96090698 C26.67251035 3070.70725751 26.67251035 3070.70725751 26.95962334 3069.42828178 C27.93163633 3065.09807072 28.90336304 3060.76779545 29.875 3056.4375 C30.07150146 3055.56194458 30.26800293 3054.68638916 30.47045898 3053.78430176 C51.57558996 2959.72639822 71.68401027 2865.40826767 104.49267578 2692.96850586 C104.81801902 2691.06482518 105.14442146 2689.16132504 105.47216797 2687.25805664 C119.62708376 2605.05657227 128.58582641 2521.8626089 140.17868024 2427.67473823 C140.80330195 2422.59623495 141.42940539 2417.51791606 142.05633545 2412.43969727 C144.01378526 2396.58042904 145.95383445 2380.71917624 147.86776733 2364.85458374 C148.43715182 2360.13756155 149.01224412 2355.42130321 149.59341431 2350.70571899 C154.53314576 2310.55561604 157.92963554 2270.32782801 161 2230 C161.05738059 2229.24698152 161.11476118 2228.49396304 161.17388058 2227.71812582 C162.8961178 2205.09795637 164.53535844 2182.47202771 166.14160728 2159.84335661 C166.31509163 2157.40101456 166.48894871 2154.9586993 166.66291809 2152.51639175 C172.15879346 2075.35174472 177.27830355 1998.16082771 197.26626301 1525.2688055 C199.20577696 1431.93274769 202.66670547 1338.65900844 219.22537231 958.23091125 C219.42814528 953.87822772 219.63085537 949.52554126 219.83349609 945.17285156 C219.90775216 943.57788426 219.90775216 943.57788426 219.98350835 941.9506954 C220.7748358 924.9432707 221.54916251 907.93512241 222.31415462 890.9264946 C222.94112434 876.98890128 223.57685051 863.0517299 224.22095585 849.11491776 C224.61506445 840.58046439 225.00167977 832.04575207 225.37713593 823.5104574 C225.62674445 817.85438836 225.88684899 812.19886256 226.15524417 806.54365408 C226.30562921 803.36901181 226.45027637 800.19431438 226.58497047 797.01896286 C228.27746336 757.30157522 235.14436586 714.44795204 263 684 C263.79277344 683.12601563 264.58554687 682.25203125 265.40234375 681.3515625 C271.02726454 675.43339939 276.88835294 670.98683244 284 667 C284.93585938 666.46503906 285.87171875 665.93007813 286.8359375 665.37890625 C308.66977334 653.64248779 337.350753 652.50237596 361 659 C362.84658203 659.49306641 362.84658203 659.49306641 364.73046875 659.99609375 C378.26566894 664.04964075 390.17583395 670.82872337 400.765625 680.15234375 C402.86868255 682.05137728 402.86868255 682.05137728 405.171875 683.00390625 C407.52856676 684.28800112 407.88874798 685.60132186 409 688 C410.08720488 689.1011434 411.2180345 690.15989984 412.375 691.1875 C423.23562258 701.81159359 430.98191585 715.65005911 438 729 C438.3398291 729.63728027 438.6796582 730.27456055 439.02978516 730.93115234 C453.67496694 758.53357291 462.67912687 788.74863435 470 819 C470.28053223 820.14710449 470.56106445 821.29420898 470.85009766 822.47607422 C477.85608558 851.25451691 484.91600863 880.50478956 488 910 C488.11118164 910.99402832 488.22236328 911.98805664 488.33691406 913.01220703 C492.96680755 954.88940437 494.75640571 997.13830042 496.77117062 1039.20928621 C496.89766891 1041.85067321 497.02477402 1044.49203063 497.15187836 1047.13338852 C499.13654592 1088.47629046 500.77797185 1129.83188675 502.3830483 1171.19097126 C502.80313142 1182.00819046 503.22874638 1192.82519058 503.65469706 1203.64218009 C505.08010592 1239.84247023 506.4955576 1276.04314899 507.90572548 1312.24403584 C513.36871138 1452.63297193 513.36871138 1452.63297193 582.43670654 2231.8394165 C582.944326 2234.68761873 583.44218039 2237.53723204 583.93408203 2240.38818359 C588.29100667 2265.57199478 595.48324125 2289.75481287 603.1036377 2314.12915039 C603.96771591 2316.89660123 604.82620125 2319.66571645 605.68261719 2322.43554688 C613.63285271 2348.1241136 622.13827177 2373.61234616 631 2399 C631.29735046 2399.85315796 631.59470093 2400.70631592 631.90106201 2401.58532715 C644.29834638 2437.13085573 657.55085245 2472.31299036 672.1875 2507 C709.17664511 2594.69285741 734.03300067 2685.83083741 753 2779 C753.20800232 2780.0204541 753.41600464 2781.0409082 753.63031006 2782.09228516 C770.83514927 2866.75912708 783.05998621 2952.40028119 778.9609375 3294.1484375 C777.05161265 3296.83918488 775.06741665 3299.42946968 773 3302 C772.48308594 3302.680625 771.96617187 3303.36125 771.43359375 3304.0625 C765.99325265 3310.82543029 758.95302953 3315.90075207 752 3321 C751.40654785 3321.43634766 750.8130957 3321.87269531 750.20166016 3322.32226562 C692.54318116 3364.11158392 610.19938255 3354.8224609 542.69921875 3355.5625 C541.76540225 3355.57298748 540.83158576 3355.58347496 539.86947179 3355.59428024 C499.83906634 3356.04126813 459.8096422 3356.0795406 419.77734375 3356.0625 C419.01013059 3356.06218308 418.24291744 3356.06186617 417.4524554 3356.06153965 C393.75666143 3356.0514997 370.06088241 3356.02807627 346.36510086 3356.00260353 C339.0068285 3355.994712 331.64855597 3355.98699868 324.2902832 3355.97949219 C323.47987668 3355.97866406 322.66947015 3355.97783593 321.83450585 3355.97698271 C308.28378461 3355.96326285 294.73306322 3355.95353373 281.18233687 3355.94658184 C272.92617616 3355.94215363 264.67003392 3355.93422789 256.41388185 3355.92143703 C250.80100886 3355.91296366 245.18814007 3355.9081097 239.57526111 3355.90601182 C236.35815777 3355.90468136 233.14108319 3355.90119109 229.92398643 3355.89425278 C217.24291467 3355.86777149 204.62063195 3355.96282061 191.96230412 3356.76828003 C154.23566391 3358.97457609 113.77030632 3356.87668176 78 3344 C77.25476074 3343.73461426 76.50952148 3343.46922852 75.74169922 3343.19580078 C65.27309435 3339.38758683 56.03655376 3334.50819156 47 3328 C46.23171875 3327.44828125 45.4634375 3326.8965625 44.671875 3326.328125 C18.86910387 3305.80781095 9.04570642 3264.67224592 4 3234 C3.67 3234 3.34 3234 3 3234 C3 3384.81 3 3535.62 3 3691 C268.32 3691 533.64 3691 807 3691 C807 2473.96 807 1256.92 807 3 C541.68 3 276.36 3 3 3 Z " fill="#FEFEFE" transform="translate(0,0)"/>
<path d="M0 0 C130.02 0 260.04 0 394 0 C401.29089096 21.87267287 401.29089096 21.87267287 403.83691406 30.27050781 C421.68813957 87.51133922 442.3087812 143.97639816 465.76513672 199.15527344 C481.53776853 236.26002216 496.15254951 274.28576063 506.83972168 313.21037292 C508.29581669 318.51313478 509.81566379 323.79263937 511.38082886 329.06417847 C515.53399212 343.08781797 519.27775899 357.19972849 522.875 371.375 C523.17647949 372.55856079 523.47795898 373.74212158 523.78857422 374.96154785 C528.88314044 395.00881362 533.45157899 415.12656391 537.61965942 435.38465881 C538.76633443 440.94061145 540.00637191 446.47017741 541.29052734 451.99609375 C548.26671594 482.14782422 553.1714434 512.81623092 558.375 543.3125 C558.53812683 544.26684937 558.70125366 545.22119873 558.86932373 546.20446777 C560.94070952 558.35347088 562.86165079 570.51764259 564.65979004 582.70993042 C565.17545946 586.18107765 565.71071212 589.64902313 566.24609375 593.1171875 C568.94064266 610.62675107 571.45207543 628.14928223 573.70635986 645.72174072 C574.02134532 648.16561147 574.34021694 650.60895517 574.65966797 653.05224609 C580.58788228 698.47024585 585.15033952 744.01577587 589.3125 789.625 C589.37747681 790.33522057 589.44245361 791.04544113 589.50939941 791.77718353 C591.42358572 812.70563545 593.20017679 833.47167537 593.125 854.5 C593.12278442 855.32838379 593.12056885 856.15676758 593.11828613 857.01025391 C593.10059788 862.67376042 593.05921615 868.33678261 593 874 C592.98743164 875.23105469 592.97486328 876.46210938 592.96191406 877.73046875 C592.53196337 907.3882919 587.16240771 941.86002464 565.9375 964.4375 C552.63556244 977.01334927 537.23823179 985.97781253 520 992 C519.08992187 992.35707031 518.17984375 992.71414063 517.2421875 993.08203125 C504.81299474 997.91963251 491.92710782 999.5719883 478.71284485 1000.61489868 C477.95980339 1000.67684223 477.20676193 1000.73878579 476.43090103 1000.80260642 C460.57556781 1002.10021829 444.72546556 1002.7366621 428.8245634 1003.10867456 C426.52817791 1003.16319529 424.2319122 1003.221483 421.93564069 1003.28060031 C384.96875868 1004.22454925 347.99874783 1004.3483073 311.02170603 1004.40062175 C301.27242094 1004.41476781 291.5231701 1004.43977601 281.7739084 1004.46498732 C264.31372096 1004.50985896 246.85352695 1004.54667746 229.39331055 1004.578125 C212.66738648 1004.60826628 195.94147983 1004.64268268 179.21557617 1004.68261719 C178.18407982 1004.68507874 177.15258347 1004.68754028 176.08982966 1004.69007643 C171.93621246 1004.70000437 167.78259532 1004.70995861 163.62897827 1004.71994839 C137.90240295 1004.78176282 112.17581821 1004.84024104 86.44922303 1004.893185 C84.62603528 1004.89694275 82.80284759 1004.90073541 80.97965998 1004.90456344 C71.30540733 1004.92479079 61.63116983 1004.9417489 51.95689869 1004.94964027 C48.57759901 1004.95267146 45.1982996 1004.9559219 41.81900024 1004.95928955 C40.99362874 1004.9600554 40.16825724 1004.96082125 39.31787448 1004.9616103 C28.56523779 1004.97287417 17.81359759 1005.0227934 7.06132036 1005.11096966 C1.45592397 1005.15660424 -4.14952726 1005.18861825 -9.75503445 1005.21715628 C-13.45988518 1005.23696786 -17.1643338 1005.2638039 -20.86895311 1005.31030011 C-47.69871677 1005.64102495 -77.62373029 1004.74214098 -102 992 C-102.86625 991.58234375 -103.7325 991.1646875 -104.625 990.734375 C-126.32230986 979.76517946 -136.03925861 957.79749033 -143.77392578 935.79882812 C-149.03918476 919.48986018 -150.59203362 902.46978719 -150.5 885.4375 C-150.49823761 884.55492523 -150.49647522 883.67235046 -150.49465942 882.76303101 C-150.37645675 855.92380553 -145.28278971 830.6636123 -138.88525391 804.64355469 C-137.46002519 798.7775554 -136.13449749 792.88998161 -134.8125 787 C-134.53607666 785.77289307 -134.25965332 784.54578613 -133.97485352 783.28149414 C-129.66594046 764.13081926 -125.42797461 744.96413146 -121.17610168 725.80073547 C-119.65109513 718.92881843 -118.12249566 712.05771573 -116.58984375 705.1875 C-112.90692061 688.67485806 -109.26996045 672.15845556 -105.89649963 655.57939148 C-105.18274154 652.07340466 -104.46680337 648.56786537 -103.75 645.0625 C-103.60182831 644.33737213 -103.45365662 643.61224426 -103.30099487 642.86514282 C-100.83468378 630.81866589 -98.19766383 618.81602735 -95.49487305 606.82067871 C-92.60113746 593.95566508 -89.94417898 581.05277577 -87.43359375 568.10766602 C-86.12285253 561.38317091 -84.71960183 554.70250527 -83.109375 548.04296875 C-80.66517481 537.89180773 -78.69090223 527.65026395 -76.67437744 517.4072876 C-75.52392689 511.59464375 -74.34395854 505.78798848 -73.16796875 499.98046875 C-67.63185516 472.55966487 -62.25805 445.12355759 -57.3558197 417.5811615 C-55.83994622 409.07155809 -54.27416967 400.5713584 -52.70239258 392.07192993 C-51.97846527 388.15630558 -51.25697057 384.24023306 -50.53515625 380.32421875 C-49.80495977 376.36401457 -49.07458069 372.40384473 -48.34326172 368.44384766 C-47.78945736 365.44207408 -47.23803302 362.43987497 -46.6875 359.4375 C-46.54022461 358.64230957 -46.39294922 357.84711914 -46.24121094 357.02783203 C-43.85642231 343.97851438 -42.08887442 330.82248698 -40.25 317.6875 C-40.12127502 316.76892212 -39.99255005 315.85034424 -39.85992432 314.90393066 C-37.34426916 296.89863652 -35.05696591 278.86776208 -32.83773804 260.82382202 C-30.95714702 245.54076057 -28.98090299 230.27031909 -27 215 C-25.37058537 202.43806884 -23.74358466 189.87583183 -22.125 177.3125 C-21.96200031 176.04740664 -21.96200031 176.04740664 -21.7957077 174.75675583 C-18.66352583 150.4325428 -15.6632452 126.10056325 -12.90893555 101.73022461 C-12.68286042 99.73029689 -12.45670731 97.73037799 -12.23046875 95.73046875 C-12.12393478 94.78852158 -12.01740082 93.8465744 -11.90763855 92.87608337 C-10.86251362 83.69108137 -9.68692615 74.52633307 -8.47167969 65.36230469 C-7.49854227 57.98555739 -6.58579011 50.60430221 -5.71484375 43.21484375 C-5.60375778 42.27308289 -5.49267181 41.33132202 -5.3782196 40.36102295 C-4.83077359 35.71044638 -4.28770823 31.05939872 -3.74975586 26.40771484 C-3.54937305 24.69498035 -3.34893602 22.9822522 -3.1484375 21.26953125 C-3.06210556 20.51131577 -2.97577362 19.75310028 -2.88682556 18.97190857 C-2.13593245 12.58985909 -1.06070149 6.36420893 0 0 Z " fill="#FEFEFE" transform="translate(182,2323)"/>
<path d="M0 0 C267.3 0 534.6 0 810 0 C810 1219.02 810 2438.04 810 3694 C542.7 3694 275.4 3694 0 3694 C0 2474.98 0 1255.96 0 0 Z M3 3 C3 1052.4 3 2101.8 3 3183 C3.33 3183 3.66 3183 4 3183 C4.13806313 3181.98031631 4.13806313 3181.98031631 4.27891541 3180.94003296 C6.65198219 3163.64518662 9.77247267 3146.66062126 13.5625 3129.625 C13.98333322 3127.70827353 14.40414602 3125.7915424 14.82400513 3123.87460232 C18.2523798 3108.22352181 21.75998464 3092.59006956 25.26953125 3076.95703125 C25.64338191 3075.29165653 26.01723241 3073.62628177 26.39108276 3071.96090698 C26.67251035 3070.70725751 26.67251035 3070.70725751 26.95962334 3069.42828178 C27.93163633 3065.09807072 28.90336304 3060.76779545 29.875 3056.4375 C30.07150146 3055.56194458 30.26800293 3054.68638916 30.47045898 3053.78430176 C51.57558996 2959.72639822 71.68401027 2865.40826767 104.49267578 2692.96850586 C104.81801902 2691.06482518 105.14442146 2689.16132504 105.47216797 2687.25805664 C119.62708376 2605.05657227 128.58582641 2521.8626089 140.17868024 2427.67473823 C140.80330195 2422.59623495 141.42940539 2417.51791606 142.05633545 2412.43969727 C144.01378526 2396.58042904 145.95383445 2380.71917624 147.86776733 2364.85458374 C148.43715182 2360.13756155 149.01224412 2355.42130321 149.59341431 2350.70571899 C154.53314576 2310.55561604 157.92963554 2270.32782801 161 2230 C161.05738059 2229.24698152 161.11476118 2228.49396304 161.17388058 2227.71812582 C162.8961178 2205.09795637 164.53535844 2182.47202771 166.14160728 2159.84335661 C166.31509163 2157.40101456 166.48894871 2154.9586993 166.66291809 2152.51639175 C172.15879346 2075.35174472 177.27830355 1998.16082771 197.26626301 1525.2688055 C199.20577696 1431.93274769 202.66670547 1338.65900844 219.22537231 958.23091125 C219.42814528 953.87822772 219.63085537 949.52554126 219.83349609 945.17285156 C219.90775216 943.57788426 219.90775216 943.57788426 219.98350835 941.9506954 C220.7748358 924.9432707 221.54916251 907.93512241 222.31415462 890.9264946 C222.94112434 876.98890128 223.57685051 863.0517299 224.22095585 849.11491776 C224.61506445 840.58046439 225.00167977 832.04575207 225.37713593 823.5104574 C225.62674445 817.85438836 225.88684899 812.19886256 226.15524417 806.54365408 C226.30562921 803.36901181 226.45027637 800.19431438 226.58497047 797.01896286 C228.27746336 757.30157522 235.14436586 714.44795204 263 684 C263.79277344 683.12601563 264.58554687 682.25203125 265.40234375 681.3515625 C271.02726454 675.43339939 276.88835294 670.98683244 284 667 C284.93585938 666.46503906 285.87171875 665.93007813 286.8359375 665.37890625 C308.66977334 653.64248779 337.350753 652.50237596 361 659 C362.84658203 659.49306641 362.84658203 659.49306641 364.73046875 659.99609375 C378.26566894 664.04964075 390.17583395 670.82872337 400.765625 680.15234375 C402.86868255 682.05137728 402.86868255 682.05137728 405.171875 683.00390625 C407.52856676 684.28800112 407.88874798 685.60132186 409 688 C410.08720488 689.1011434 411.2180345 690.15989984 412.375 691.1875 C423.23562258 701.81159359 430.98191585 715.65005911 438 729 C438.3398291 729.63728027 438.6796582 730.27456055 439.02978516 730.93115234 C453.67496694 758.53357291 462.67912687 788.74863435 470 819 C470.28053223 820.14710449 470.56106445 821.29420898 470.85009766 822.47607422 C477.85608558 851.25451691 484.91600863 880.50478956 488 910 C488.11118164 910.99402832 488.22236328 911.98805664 488.33691406 913.01220703 C492.96680755 954.88940437 494.75640571 997.13830042 496.77117062 1039.20928621 C496.89766891 1041.85067321 497.02477402 1044.49203063 497.15187836 1047.13338852 C499.13654592 1088.47629046 500.77797185 1129.83188675 502.3830483 1171.19097126 C502.80313142 1182.00819046 503.22874638 1192.82519058 503.65469706 1203.64218009 C505.08010592 1239.84247023 506.4955576 1276.04314899 507.90572548 1312.24403584 C513.36871138 1452.63297193 513.36871138 1452.63297193 582.43670654 2231.8394165 C582.944326 2234.68761873 583.44218039 2237.53723204 583.93408203 2240.38818359 C588.29100667 2265.57199478 595.48324125 2289.75481287 603.1036377 2314.12915039 C603.96771591 2316.89660123 604.82620125 2319.66571645 605.68261719 2322.43554688 C613.63285271 2348.1241136 622.13827177 2373.61234616 631 2399 C631.29735046 2399.85315796 631.59470093 2400.70631592 631.90106201 2401.58532715 C644.29834638 2437.13085573 657.55085245 2472.31299036 672.1875 2507 C709.17664511 2594.69285741 734.03300067 2685.83083741 753 2779 C753.20800232 2780.0204541 753.41600464 2781.0409082 753.63031006 2782.09228516 C770.83514927 2866.75912708 783.05998621 2952.40028119 778.9609375 3294.1484375 C777.05161265 3296.83918488 775.06741665 3299.42946968 773 3302 C772.48308594 3302.680625 771.96617187 3303.36125 771.43359375 3304.0625 C765.99325265 3310.82543029 758.95302953 3315.90075207 752 3321 C751.40654785 3321.43634766 750.8130957 3321.87269531 750.20166016 3322.32226562 C692.54318116 3364.11158392 610.19938255 3354.8224609 542.69921875 3355.5625 C541.76540225 3355.57298748 540.83158576 3355.58347496 539.86947179 3355.59428024 C499.83906634 3356.04126813 459.8096422 3356.0795406 419.77734375 3356.0625 C419.01013059 3356.06218308 418.24291744 3356.06186617 417.4524554 3356.06153965 C393.75666143 3356.0514997 370.06088241 3356.02807627 346.36510086 3356.00260353 C339.0068285 3355.994712 331.64855597 3355.98699868 324.2902832 3355.97949219 C323.47987668 3355.97866406 322.66947015 3355.97783593 321.83450585 3355.97698271 C308.28378461 3355.96326285 294.73306322 3355.95353373 281.18233687 3355.94658184 C272.92617616 3355.94215363 264.67003392 3355.93422789 256.41388185 3355.92143703 C250.80100886 3355.91296366 245.18814007 3355.9081097 239.57526111 3355.90601182 C236.35815777 3355.90468136 233.14108319 3355.90119109 229.92398643 3355.89425278 C217.24291467 3355.86777149 204.62063195 3355.96282061 191.96230412 3356.76828003 C154.23566391 3358.97457609 113.77030632 3356.87668176 78 3344 C77.25476074 3343.73461426 76.50952148 3343.46922852 75.74169922 3343.19580078 C65.27309435 3339.38758683 56.03655376 3334.50819156 47 3328 C46.23171875 3327.44828125 45.4634375 3326.8965625 44.671875 3326.328125 C18.86910387 3305.80781095 9.04570642 3264.67224592 4 3234 C3.67 3234 3.34 3234 3 3234 C3 3384.81 3 3535.62 3 3691 C268.32 3691 533.64 3691 807 3691 C807 2473.96 807 1256.92 807 3 C541.68 3 276.36 3 3 3 Z M284 705 C283.40703125 705.59554687 282.8140625 706.19109375 282.203125 706.8046875 C270.65497937 719.2841352 264.21397584 736.0668623 260.1875 752.3125 C259.99260986 753.08013672 259.79771973 753.84777344 259.59692383 754.63867188 C255.46561813 772.62778616 255.44226901 791.69132037 254.61856914 810.04283404 C254.46300881 813.4801693 254.30093724 816.91719797 254.13954163 820.35426331 C253.83568825 826.84383921 253.53684804 833.33363434 253.24020821 839.82354361 C252.70879899 851.44669056 252.16916845 863.06945688 251.62694556 874.69210392 C251.46834788 878.09537639 251.31083034 881.49869238 251.15577507 884.90212822 C250.98300044 888.6932111 250.80794454 892.4841832 250.63256836 896.27514648 C250.58320129 897.37518005 250.53383423 898.47521362 250.48297119 899.60858154 C250.17910659 906.11878295 249.74084906 912.60751036 249.22286129 919.1040926 C248.96350704 922.47419735 248.78301829 925.84215184 248.64282227 929.21923828 C248.58921036 930.48260513 248.53559845 931.74597198 248.48036194 933.04762268 C248.42568236 934.38851816 248.37103126 935.7294148 248.31640625 937.0703125 C248.25631627 938.50281169 248.19600277 939.93530151 248.13548279 941.36778259 C248.00815554 944.38976273 247.88209449 947.41179172 247.75708008 950.43386841 C247.46114202 957.58270987 247.1574325 964.73122358 246.85447311 971.87977028 C246.75419002 974.24720721 246.6541361 976.61465374 246.55410767 978.98210144 C245.58239459 1001.95455563 244.51268395 1024.92207727 243.3515625 1047.88574219 C241.46416506 1085.31946708 239.82304506 1122.76019415 238.28651279 1160.20979613 C238.05977947 1165.7354588 237.83210873 1171.26108221 237.60385132 1176.78668213 C237.57086404 1177.58524856 237.53787675 1178.38381499 237.50388986 1179.2065804 C237.4371826 1180.82133559 237.37047255 1182.43609066 237.30375969 1184.05084562 C236.88028919 1194.30204344 236.45740743 1204.5532652 236.03642273 1214.80456543 C236.00565016 1215.55388029 235.97487759 1216.30319516 235.94317251 1217.07521653 C235.91272437 1217.81664832 235.88227623 1218.55808011 235.85090542 1219.32197952 C235.29126917 1232.94935408 234.72677659 1246.57650743 234.15312576 1260.20330048 C232.61776862 1296.70907896 231.3125584 1333.21963765 230.12866211 1369.73852539 C230.00516474 1373.54443747 229.88154961 1377.3503457 229.7578125 1381.15625 C229.72713495 1382.1004524 229.69645741 1383.04465481 229.66485023 1384.01746941 C229.20390555 1398.16922078 228.70474086 1412.31924004 228.1796875 1426.46875 C226.43578478 1473.56523499 226.43578478 1473.56523499 225.4574585 1520.68273926 C225.09563509 1549.10424469 224.36923576 1577.51706554 223.65410662 1605.93140513 C223.53530685 1610.65205567 223.41746224 1615.37272906 223.30004883 1620.09341431 C223.13909888 1626.55744056 222.97628827 1633.02141742 222.8119812 1639.48535919 C222.75119904 1641.88114634 222.69081594 1644.27694366 222.63088989 1646.67275238 C222.07195736 1668.95071063 221.50182325 1691.23542626 220.14851761 1713.48161888 C219.386938 1726.0801998 218.76407768 1738.68044863 218.2890625 1751.29296875 C218.26201925 1752.01033895 218.23497601 1752.72770916 218.20711327 1753.46681786 C218.0682498 1757.16866343 217.93151865 1760.87058467 217.79562378 1764.57254028 C216.73542421 1793.37109899 215.48331454 1822.15881999 214.06615448 1850.94195938 C213.93943249 1853.52313753 213.8140515 1856.1043776 213.68902588 1858.68563843 C212.88465673 1875.25169506 212.00843026 1891.79735844 210.71910095 1908.33409119 C209.84074453 1919.7154581 209.25303393 1931.10846141 208.68164062 1942.50875854 C208.36816291 1948.74971439 208.0428466 1954.99005686 207.71875 1961.23046875 C207.6559082 1962.44414627 207.59306641 1963.65782379 207.52832031 1964.90827942 C206.39184374 1986.79250005 204.97265001 2008.64988044 203.36962891 2030.50448608 C202.1876997 2046.66539557 201.23301206 2062.83538796 200.31478882 2079.01315308 C199.4088834 2094.89703319 198.30129317 2110.75129404 196.98876953 2126.60644531 C196.25535712 2135.49823912 195.6179717 2144.38288343 195.29052734 2153.30053711 C195.18201142 2156.12894132 195.02364476 2158.86578426 194.53208923 2161.65602112 C193.87171111 2165.80624698 193.56853225 2169.93872852 193.27563477 2174.12866211 C193.21042633 2175.02893631 193.1452179 2175.92921051 193.07803345 2176.85676575 C192.86326198 2179.83011347 192.65239229 2182.80372524 192.44140625 2185.77734375 C192.29097858 2187.86603374 192.14025229 2189.95470224 191.98924255 2192.04335022 C191.59146255 2197.553167 191.19674996 2203.06319866 190.80297852 2208.57330322 C190.17705289 2217.32974861 189.54796082 2226.0859636 188.91609001 2234.84198189 C188.69858976 2237.86500076 188.48328666 2240.88817002 188.26820374 2243.91136169 C188.1304662 2245.8314809 187.99232393 2247.75157113 187.85375977 2249.67163086 C187.78669106 2250.60115035 187.71962236 2251.53066984 187.65052128 2252.48835659 C187.2891725 2257.39536059 186.89215888 2262.29715108 186.44967651 2267.19754028 C186.31116351 2268.73350908 186.31116351 2268.73350908 186.16985226 2270.30050755 C185.99259894 2272.23934176 185.81133424 2274.17781564 185.62507725 2276.11580563 C185.50279208 2277.44548036 185.50279208 2277.44548036 185.3780365 2278.80201721 C185.26850096 2279.94890691 185.26850096 2279.94890691 185.15675259 2281.1189661 C184.92346797 2285.40662035 185 2289.70600412 185 2294 C310.73 2294 436.46 2294 566 2294 C565.3159505 2288.52760398 564.59936837 2284.10208005 563.11669922 2278.92041016 C561.04303582 2271.43984334 559.51663876 2263.91287672 558.1328125 2256.2734375 C557.87829365 2254.89027984 557.62349456 2253.50717373 557.36843872 2252.12411499 C554.5423281 2236.72740968 551.89027308 2221.29977021 549.25842285 2205.86889648 C548.74495082 2202.86391624 548.22793569 2199.85954967 547.71103382 2196.85515785 C544.94191349 2180.75014981 542.2798641 2164.63720963 539.8359375 2148.47900391 C538.98869102 2142.8850078 538.06598546 2137.30677244 537.125 2131.7277832 C534.67650666 2117.13353015 532.71148042 2102.50568782 530.96313477 2087.81201172 C530.01516218 2079.89663132 529.01137685 2071.99353572 527.88647461 2064.10107422 C524.80707858 2042.47482345 522.1672485 2020.83103296 519.84243774 1999.11087418 C519.55759116 1996.45421713 519.27049366 1993.79781104 518.98291016 1991.14144897 C515.90586889 1962.67876232 513.18222756 1934.19390116 510.76391602 1905.66796875 C510.70618987 1904.98759646 510.64846373 1904.30722418 510.5889883 1903.60623455 C510.3221755 1900.45599591 510.0580774 1897.30556876 509.79832458 1894.15473938 C509.2439621 1887.47646463 509.2439621 1887.47646463 508.47216797 1880.82104492 C507.90851058 1876.25961692 507.61655983 1871.71191139 507.3515625 1867.125 C507.23377655 1865.17236011 507.11593566 1863.21972353 506.99804688 1861.26708984 C506.93738037 1860.2468573 506.87671387 1859.22662476 506.81420898 1858.17547607 C505.89105721 1842.68230914 504.90433039 1827.19883057 503.68521118 1811.7260437 C502.18029925 1792.62291134 501.08639431 1773.50574982 500.05688477 1754.37158203 C499.93381453 1752.08495781 499.81068733 1749.79833666 499.6875 1747.51171875 C499.62807724 1746.40822083 499.56865448 1745.3047229 499.50743103 1744.16778564 C499.04690932 1735.69034009 498.51467695 1727.22025915 497.9375 1718.75 C497.07108002 1705.94968677 496.46169339 1693.14293687 495.87472534 1680.32730103 C495.348177 1668.85600509 494.75011054 1657.39646402 494 1645.9375 C492.16902796 1617.69511394 490.98946646 1589.42598645 489.94036865 1561.14517212 C489.32746835 1544.69019681 488.6060032 1528.24307961 487.8112793 1511.79592896 C485.59432169 1465.87577802 483.8034205 1419.93794016 482 1374 C481.95597298 1372.87870445 481.91194595 1371.75740891 481.86658478 1370.6021347 C478.24043052 1278.20833476 478.24043052 1278.20833476 476.8949585 1237.57797241 C476.08414783 1213.23155626 475.10652189 1188.89172711 474.13214111 1164.55140686 C474.0031098 1161.32769499 473.87434328 1158.10397263 473.74560547 1154.88024902 C473.2144543 1141.59436155 472.67461689 1128.30884872 472.125 1115.02371216 C472.04146516 1113.00302956 471.95813279 1110.98233858 471.875 1108.9616394 C470.90220953 1085.31850852 469.84285731 1061.68922187 468.375 1038.07125759 C467.94076837 1031.08401176 467.53244227 1024.09530778 467.125 1017.10645676 C466.91769004 1013.55463503 466.70877479 1010.00290775 466.5 1006.45117188 C466.24980876 1002.19231264 465.99972656 997.93344706 465.75 993.67456055 C465.66667221 992.25374316 465.58333888 990.83292611 465.5 989.41210938 C465.4587415 988.70867968 465.41748301 988.00524998 465.37497425 987.28050423 C465.04425799 981.64642795 464.71036678 976.01254245 464.37584972 970.37869072 C464.11889039 966.04070184 463.86779542 961.70241121 463.6201849 957.3638792 C462.38866902 935.39179516 462.38866902 935.39179516 460.1875 913.5 C460.1045166 912.81205353 460.0215332 912.12410706 459.93603516 911.41531372 C457.79577173 893.77093989 454.21691096 876.46110096 449.9921875 859.20703125 C448.83209407 854.40136719 447.82918542 849.56207311 446.79882812 844.72729492 C442.46410067 824.50165797 437.54528806 804.63905078 431 785 C430.52675293 783.57034912 430.52675293 783.57034912 430.04394531 782.11181641 C421.62705697 757.00506708 410.4039303 733.12861606 393 713 C392.30583984 712.08927734 392.30583984 712.08927734 391.59765625 711.16015625 C380.2840156 696.54527092 361.76491758 686.95273911 343.76171875 684.38671875 C320.08120931 681.95227385 300.72232199 687.81601882 284 705 Z M182 2323 C179.51795763 2337.68772519 179.51795763 2337.68772519 177.640625 2352.41796875 C177.41328322 2354.48991264 177.18590533 2356.56185257 176.95849609 2358.63378906 C176.84334656 2359.7002063 176.72819702 2360.76662354 176.60955811 2361.86535645 C174.17552854 2384.35461621 171.44166551 2406.79842742 168.53613281 2429.23120117 C166.45856614 2445.27977352 164.48645821 2461.33986098 162.55303955 2477.40631104 C161.03154313 2490.04845184 159.50154691 2502.68956912 157.96767235 2515.33021355 C157.42836291 2519.77537276 156.89018921 2524.22066365 156.35449219 2528.66625977 C154.19157074 2546.60966104 152.000179 2564.53816432 149.38539124 2582.42233276 C147.75486195 2593.57588285 146.33477527 2604.75270248 144.9375 2615.9375 C142.55804172 2634.94945068 140.17836018 2653.94680351 136.75488281 2672.80371094 C135.95945478 2677.18794578 135.22281313 2681.581132 134.4921875 2685.9765625 C130.56327414 2709.49472752 126.22470966 2732.91661644 121.67913818 2756.32290649 C120.42430676 2762.78898139 119.18716939 2769.25817339 117.96484375 2775.73046875 C111.85964821 2808.04842605 105.66968193 2840.35471607 98.52099609 2872.46044922 C96.39921718 2882.03235651 94.45508828 2891.63064083 92.5625 2901.25 C90.03364386 2914.09696778 87.29703932 2926.88529368 84.42364502 2939.65942383 C82.17160553 2949.67243305 79.99209973 2959.69407548 77.9375 2969.75 C75.08208701 2983.71001037 72.04899912 2997.62846365 68.98144531 3011.54296875 C67.92890997 3016.31943 66.8822432 3021.09717088 65.8359375 3025.875 C61.42008771 3046.03401682 56.97183962 3066.1855651 52.48338318 3086.32853699 C51.46815642 3090.88776032 50.45862797 3095.44820865 49.45324707 3100.00961304 C48.76515403 3103.13136846 48.07569829 3106.25282194 47.38592529 3109.37420654 C47.04615733 3110.91255867 46.70684025 3112.45101045 46.36798096 3113.98956299 C44.54432277 3122.2626197 42.65141452 3130.50335666 40.56152344 3138.71411133 C31.71037542 3173.85039938 26.23016921 3213.49972376 36 3249 C36.27714844 3250.19238281 36.55429687 3251.38476562 36.83984375 3252.61328125 C41.98066514 3273.15287637 52.23571384 3298.60207083 70.9375 3310.1875 C72.61759255 3311.13821106 74.30466485 3312.07674423 76 3313 C76.62390625 3313.35835937 77.2478125 3313.71671875 77.890625 3314.0859375 C103.42005706 3327.96062884 134.70441552 3328.47503276 162.91536893 3328.21493176 C166.7232423 3328.18354556 170.53118347 3328.170857 174.33915234 3328.15642357 C180.03499766 3328.13335994 185.73077027 3328.10494107 191.42655397 3328.06978954 C202.23056062 3328.00331841 213.03433764 3327.97481955 223.83853149 3327.9631958 C224.66822484 3327.96225194 225.49791819 3327.96130809 226.35275377 3327.96033563 C229.74475622 3327.95648364 233.13675873 3327.95270849 236.52876151 3327.94915397 C246.25529606 3327.9386345 255.98180973 3327.9190297 265.70832825 3327.89883423 C266.61285185 3327.89697565 267.51737545 3327.89511707 268.44930886 3327.89320217 C295.21194349 3327.83810738 321.97456594 3327.77683914 348.73717976 3327.71247292 C352.89664517 3327.70249492 357.05611064 3327.69254328 361.21557617 3327.68261719 C362.2484168 3327.68015119 363.28125742 3327.6776852 364.34539624 3327.67514448 C381.06902387 3327.63541299 397.79265802 3327.60262109 414.51630542 3327.57250018 C431.9380338 3327.54097932 449.35973604 3327.50226196 466.78143471 3327.45720994 C476.46254139 3327.43235646 486.1436329 3327.41035272 495.82476234 3327.39665604 C532.65357467 3327.34275681 569.47163872 3327.167873 606.28989564 3326.21999022 C608.52842033 3326.16329427 610.76700158 3326.11002125 613.00563109 3326.05764699 C628.13672928 3325.69651346 643.23124364 3325.05932773 658.32103775 3323.85753806 C659.79672541 3323.74026762 661.27272177 3323.62679932 662.74903806 3323.51772766 C695.99160195 3321.01409738 728.56804433 3307.5534286 751.8125 3283.25 C763.0024799 3269.67208395 768.25267285 3251.94844768 771.59765625 3235.02001953 C771.92997491 3233.35157012 772.28951467 3231.68856749 772.65625 3230.02734375 C774.82571386 3219.19597641 774.75449091 3208.00340136 775 3197 C775.02510651 3196.02353516 775.02510651 3196.02353516 775.05072021 3195.02734375 C775.76214545 3167.34734017 773.86435728 3140.07742768 771.32287598 3112.52459717 C770.99273778 3108.9207237 770.67062036 3105.31620979 770.35058594 3101.71142578 C767.68367496 3071.73979041 764.64020035 3041.82693088 761.13230896 3011.94261932 C760.88012159 3009.79364284 760.62906058 3007.64453678 760.37805176 3005.49542236 C758.48519752 2989.3324776 756.3551031 2973.22146981 753.91503906 2957.13134766 C753.08490247 2951.63310835 752.32820398 2946.12858961 751.62109375 2940.61328125 C751.52020447 2939.82760773 751.41931519 2939.0419342 751.31536865 2938.23245239 C750.92071703 2935.14185049 750.52994802 2932.05078208 750.14282227 2928.95922852 C749.03814466 2920.17173144 747.78372854 2911.46700628 746.08789062 2902.77304077 C745.02866321 2897.30249173 744.2231943 2891.81933738 743.46704102 2886.30004883 C739.86854793 2860.05211933 734.86387065 2834.03654136 730 2808 C729.67994831 2806.28012272 729.35995576 2804.56023443 729.04003906 2802.84033203 C726.42424605 2788.8078516 723.62040995 2774.85809038 720.20703125 2760.99609375 C718.91088908 2755.70620699 717.76317794 2750.38825302 716.625 2745.0625 C710.04219152 2714.43608169 702.84748153 2683.91601631 693.86181641 2653.90039062 C693.01092989 2651.03678389 692.17959757 2648.16828741 691.35546875 2645.296875 C689.6017729 2639.18847875 687.81035554 2633.0918329 686 2627 C685.48493896 2625.26194092 685.48493896 2625.26194092 684.95947266 2623.48876953 C674.29641086 2587.76632508 660.89307915 2553.26002325 646.35079956 2518.95751953 C624.1274557 2466.42121043 605.34513717 2412.56136798 587.45718384 2358.42062378 C586.01537656 2354.05782236 584.56562228 2349.69784446 583.10498047 2345.34130859 C582.78947739 2344.39922043 582.4739743 2343.45713226 582.14891052 2342.48649597 C581.54412295 2340.68179563 580.93813196 2338.87749795 580.33070374 2337.07368469 C579.91745094 2335.83971199 579.91745094 2335.83971199 579.49584961 2334.58081055 C579.25483017 2333.86378464 579.01381073 2333.14675873 578.76548767 2332.40800476 C577.77522889 2329.29293452 576.89797571 2326.142915 576 2323 C445.98 2323 315.96 2323 182 2323 Z " fill="#010101" transform="translate(0,0)"/>
<path d="M0 0 C267.3 0 534.6 0 810 0 C810 1219.02 810 2438.04 810 3694 C542.7 3694 275.4 3694 0 3694 C0 2474.98 0 1255.96 0 0 Z M3 3 C2.91250531 236.62947298 2.91250531 236.62947298 2.82616145 470.25894639 C2.82545536 472.18655473 2.82474927 474.11416307 2.82404317 476.0417714 C2.82368912 477.00835344 2.82333507 477.97493547 2.82297029 478.97080787 C2.82186705 481.98241862 2.82076348 484.99402937 2.81965982 488.00564012 C2.77990461 596.49018969 2.74083803 704.97473948 2.67281615 900.75454549 C2.67164516 904.14076417 2.67047393 907.52698286 2.66930261 910.91320154 C2.63607994 1006.9594853 2.60308316 1103.00576913 2.57038688 1199.05205307 C2.5691754 1202.61081409 2.56796391 1206.16957512 2.5667524 1209.72833614 C2.56635226 1210.90373225 2.56595213 1212.07912836 2.56553987 1213.29014254 C2.55049956 1257.46919397 2.53540791 1301.64824539 2.52028555 1345.8272968 C2.51864298 1350.62608788 2.51700101 1355.42487896 2.51535956 1360.22367005 C2.47682429 1472.88088481 2.43739629 1585.53809915 2.39489746 1698.1953125 C2.39445372 1699.37176075 2.39400999 1700.548209 2.3935528 1701.7603072 C2.37880453 1740.8573683 2.36396536 1779.95442937 2.34911357 1819.05149043 C2.33569136 1854.38596445 2.32230195 1889.72043849 2.30902004 1925.05491257 C2.30858333 1926.21669625 2.30814661 1927.37847994 2.30769666 1928.5754692 C2.28015184 2001.87483244 2.25404144 2075.17419609 2.22931767 2148.47356033 C2.22893284 2149.61390887 2.22854802 2150.75425741 2.22815154 2151.92916197 C2.21121249 2202.12817182 2.19456544 2252.32718176 2.17824754 2302.52619181 C2.1716701 2322.75634272 2.16504988 2342.98649362 2.15840613 2363.21664451 C2.15730537 2366.5695515 2.15620599 2369.9224585 2.15510677 2373.2753655 C2.13386807 2438.02031134 2.10982379 2502.76525557 2.08341022 2567.51019949 C2.04210527 2668.78365814 2.00552584 2770.05711733 1.97904582 2871.33058104 C1.97827241 2874.28065881 1.97749261 2877.23073658 1.97671095 2880.18081435 C1.95250947 2971.63095314 1.93443309 3063.08110376 2.21204633 3371.42313886 C2.21579472 3373.50845614 2.21951983 3375.59377346 2.22323606 3377.6790908 C2.23038499 3381.6906125 2.23759572 3385.70213408 2.24481831 3389.71365565 C2.24681541 3390.83209597 2.2488125 3391.9505363 2.25087011 3393.10286875 C2.4311101 3492.4020798 2.73064879 3591.7010011 3 3691 C268.32 3691 533.64 3691 807 3691 C807 2473.96 807 1256.92 807 3 C541.68 3 276.36 3 3 3 Z " fill="#FAFAFA" transform="translate(0,0)"/>
</svg>
