<?xml version="1.0" encoding="UTF-8"?>
<!DOCTYPE svg PUBLIC "-//W3C//DTD SVG 1.1//EN" "http://www.w3.org/Graphics/SVG/1.1/DTD/svg11.dtd">
<svg xmlns="http://www.w3.org/2000/svg" version="1.1" width="823px" height="3694px" style="shape-rendering:geometricPrecision; text-rendering:geometricPrecision; image-rendering:optimizeQuality; fill-rule:evenodd; clip-rule:evenodd" xmlns:xlink="http://www.w3.org/1999/xlink">
<g><path style="opacity:0.794" fill="#f6f6f6" d="M -0.5,-0.5 C 273.833,-0.5 548.167,-0.5 822.5,-0.5C 822.5,1230.83 822.5,2462.17 822.5,3693.5C 548.167,3693.5 273.833,3693.5 -0.5,3693.5C -0.5,2462.17 -0.5,1230.83 -0.5,-0.5 Z M 819.5,485.5 C 817.866,461.844 812.699,438.844 804,416.5C 792.996,393.163 776.163,375.33 753.5,363C 729.494,349.915 703.827,342.581 676.5,341C 534.694,335.858 393.027,338.525 251.5,349C 217.284,349.652 183.95,355.319 151.5,366C 100.461,387.372 59.2946,420.872 28,466.5C 13.3316,491.667 4.83156,518.667 2.5,547.5C 2.5,365.833 2.5,184.167 2.5,2.5C 274.833,2.5 547.167,2.5 819.5,2.5C 819.5,163.5 819.5,324.5 819.5,485.5 Z M 819.5,533.5 C 819.5,1585.83 819.5,2638.17 819.5,3690.5C 547.167,3690.5 274.833,3690.5 2.5,3690.5C 2.5,2661.17 2.5,1631.83 2.5,602.5C 14.7198,745.203 35.2198,886.87 64,1027.5C 81.5257,1102.94 101.859,1177.6 125,1251.5C 139.798,1299.56 154.798,1347.56 170,1395.5C 188.106,1612.19 201.106,1829.19 209,2046.5C 212.618,2232.63 219.618,2418.63 230,2604.5C 234.58,2694.19 239.58,2783.86 245,2873.5C 249.948,2898.9 261.781,2920.4 280.5,2938C 296.435,2950.15 314.435,2955.49 334.5,2954C 368.569,2951.72 396.069,2937.22 417,2910.5C 436.341,2883.14 450.341,2853.14 459,2820.5C 461.98,2809.91 464.647,2799.25 467,2788.5C 475.985,2737.94 484.318,2687.27 492,2636.5C 500.428,2567.36 506.761,2498.03 511,2428.5C 523.87,2226.78 537.537,2025.11 552,1823.5C 561.78,1695.26 578.446,1567.93 602,1441.5C 616.13,1384.31 632.13,1327.65 650,1271.5C 671.136,1209.43 691.469,1147.09 711,1084.5C 748.719,946.904 778.386,807.571 800,666.5C 806.94,622.086 813.44,577.753 819.5,533.5 Z"/></g>
<g><path style="opacity:0.982" fill="#010101" d="M 819.5,485.5 C 819.5,501.5 819.5,517.5 819.5,533.5C 813.44,577.753 806.94,622.086 800,666.5C 778.386,807.571 748.719,946.904 711,1084.5C 691.469,1147.09 671.136,1209.43 650,1271.5C 632.13,1327.65 616.13,1384.31 602,1441.5C 578.446,1567.93 561.78,1695.26 552,1823.5C 537.537,2025.11 523.87,2226.78 511,2428.5C 506.761,2498.03 500.428,2567.36 492,2636.5C 484.318,2687.27 475.985,2737.94 467,2788.5C 464.647,2799.25 461.98,2809.91 459,2820.5C 450.341,2853.14 436.341,2883.14 417,2910.5C 396.069,2937.22 368.569,2951.72 334.5,2954C 314.435,2955.49 296.435,2950.15 280.5,2938C 261.781,2920.4 249.948,2898.9 245,2873.5C 239.58,2783.86 234.58,2694.19 230,2604.5C 219.618,2418.63 212.618,2232.63 209,2046.5C 201.106,1829.19 188.106,1612.19 170,1395.5C 154.798,1347.56 139.798,1299.56 125,1251.5C 101.859,1177.6 81.5257,1102.94 64,1027.5C 35.2198,886.87 14.7198,745.203 2.5,602.5C 2.5,584.167 2.5,565.833 2.5,547.5C 4.83156,518.667 13.3316,491.667 28,466.5C 59.2946,420.872 100.461,387.372 151.5,366C 183.95,355.319 217.284,349.652 251.5,349C 393.027,338.525 534.694,335.858 676.5,341C 703.827,342.581 729.494,349.915 753.5,363C 776.163,375.33 792.996,393.163 804,416.5C 812.699,438.844 817.866,461.844 819.5,485.5 Z"/></g>
<g><path style="opacity:1" fill="#fefefe" d="M 590.5,1369.5 C 457.903,1370.5 325.237,1370.83 192.5,1370.5C 162.102,1273.57 133.269,1176.23 106,1078.5C 92.9488,1024.58 81.9488,970.244 73,915.5C 60.4649,843.754 49.7983,771.754 41,699.5C 38.4752,669.152 35.8085,638.819 33,608.5C 31.6171,589.517 31.2838,570.517 32,551.5C 33.7746,519.159 44.7746,490.493 65,465.5C 91.3688,433.743 123.536,409.91 161.5,394C 182.515,386.441 204.182,381.774 226.5,380C 369.642,369.064 512.975,365.397 656.5,369C 686.566,369.145 714.899,376.145 741.5,390C 763.517,402.841 777.683,421.674 784,446.5C 788.044,462.232 790.044,478.232 790,494.5C 790.823,508.864 790.489,523.197 789,537.5C 771.775,666.415 749.441,794.415 722,921.5C 710.106,972.077 697.439,1022.41 684,1072.5C 665.009,1133.81 645.009,1194.81 624,1255.5C 612.11,1293.33 600.943,1331.33 590.5,1369.5 Z"/></g>
<g><path style="opacity:1" fill="#575757" d="M 590.5,1369.5 C 524.503,1370.83 458.17,1371.5 391.5,1371.5C 324.999,1371.5 258.666,1371.17 192.5,1370.5C 325.237,1370.83 457.903,1370.5 590.5,1369.5 Z"/></g>
<g><path style="opacity:1" fill="#bebebe" d="M 200.5,1400.5 C 327.332,1399.5 454.332,1399.17 581.5,1399.5C 581.737,1400.79 581.404,1401.79 580.5,1402.5C 454.171,1400.5 327.504,1399.84 200.5,1400.5 Z"/></g>
<g><path style="opacity:1" fill="#fefefe" d="M 200.5,1400.5 C 327.504,1399.84 454.171,1400.5 580.5,1402.5C 562.993,1486.21 549.16,1570.54 539,1655.5C 528.956,1743.98 520.956,1832.65 515,1921.5C 504.803,2069.8 495.136,2218.13 486,2366.5C 481.624,2428.19 476.957,2489.85 472,2551.5C 469.21,2588.82 464.21,2625.82 457,2662.5C 451.883,2704.75 445.217,2746.75 437,2788.5C 430.429,2818.55 420.095,2847.22 406,2874.5C 397.293,2889.87 385.793,2902.71 371.5,2913C 350.959,2924.84 329.625,2926.84 307.5,2919C 289.248,2907.03 278.081,2890.2 274,2868.5C 261.14,2657.97 250.807,2447.3 243,2236.5C 237.844,1957.36 223.677,1678.7 200.5,1400.5 Z"/></g>
</svg>
