<?xml version="1.0" encoding="UTF-8"?>
<svg version="1.1" xmlns="http://www.w3.org/2000/svg" width="844" height="3694">
<path d="M0 0 C278.52 0 557.04 0 844 0 C844 1219.02 844 2438.04 844 3694 C565.48 3694 286.96 3694 0 3694 C0 2474.98 0 1255.96 0 0 Z M3 3 C3 1051.41 3 2099.82 3 3180 C3.33 3180 3.66 3180 4 3180 C4.10489746 3178.73446289 4.10489746 3178.73446289 4.21191406 3177.44335938 C4.48750903 3174.17698302 4.77212408 3170.91161265 5.06201172 3167.64648438 C5.18354854 3166.2587548 5.3019304 3164.8707437 5.41650391 3163.48242188 C7.16311908 3142.39938566 11.30513689 3121.73122419 15.9375 3101.1171875 C16.41545826 3098.96693461 16.89275388 3096.81653434 17.3694458 3094.66600037 C18.38121907 3090.10553651 19.39634129 3085.54583773 20.41418457 3080.98672485 C23.14340131 3068.75693225 25.84387905 3056.52076521 28.546875 3044.28515625 C28.95818287 3042.42441121 28.95818287 3042.42441121 29.37779999 3040.52607536 C50.73747443 2943.87578279 71.00889142 2846.92115819 125.6875 2490.5625 C125.81020767 2489.45324913 125.93291534 2488.34399826 126.05934143 2487.20113373 C129.33430587 2457.55290194 132.44128831 2427.8900821 135.40659237 2398.20953345 C135.79738722 2394.29821244 136.18866639 2390.38693987 136.57989502 2386.47566223 C136.65776284 2385.69712153 136.73563067 2384.91858083 136.81585813 2384.11644799 C147.09246795 2281.37347896 147.09246795 2281.37347896 153.4375 2234.125 C153.56736298 2233.15780155 153.69722595 2232.1906031 153.83102417 2231.19409561 C154.49210703 2226.27487756 155.15472202 2221.35586602 155.81726074 2216.43684387 C155.95023056 2215.4491633 156.08320038 2214.46148273 156.22019958 2213.44387245 C156.49021902 2211.43849164 156.76045242 2209.43313963 157.03089905 2207.42781639 C160.94482045 2178.3618937 164.44249499 2149.24367269 167.9375 2120.125 C168.02183525 2119.42266393 168.10617049 2118.72032785 168.19306135 2117.99670887 C179.82948987 2021.07666013 190.61400333 1924.05117243 218 1625 C218.08187939 1623.92892879 218.08187939 1623.92892879 218.1654129 1622.83621979 C222.36868634 1567.84542854 226.01719745 1512.82335414 228.5918808 1457.73072815 C228.68454375 1455.75067032 228.77819913 1453.77065901 228.87188721 1451.79064941 C230.700434 1412.77536092 231.2435244 1373.80549881 231.25 1334.75 C231.25044186 1333.5191291 231.25088371 1332.28825821 231.25133896 1331.0200882 C231.26002077 1284.58383389 230.26353053 1238.26812516 228.25323486 1191.87854004 C227.9886128 1185.762734 227.73409666 1179.64652351 227.47998047 1173.53027344 C223.63552078 1081.31975058 218.79098643 989.15253781 211.25 860.3125 C211.19846693 859.44401853 211.14693385 858.57553706 211.09383917 857.68073797 C208.55524126 814.91440739 205.90815004 772.15597478 203.10912895 729.40587306 C202.91487962 726.43826463 202.72089757 723.47063885 202.5269928 720.50300789 C201.34556314 702.42479769 200.16153453 684.34678784 198.94553483 666.27086562 C198.4736846 659.25363141 198.00738548 652.23604218 197.54503524 645.21817571 C197.27898654 641.18503652 197.00999467 637.1521507 196.73280716 633.11976051 C190.88602608 547.95590036 190.88602608 547.95590036 217.97265625 516.2421875 C218.64167969 515.50226562 219.31070313 514.76234375 220 514 C220.63808594 513.28070312 221.27617187 512.56140625 221.93359375 511.8203125 C233.998792 498.95400451 249.91967822 494.88866591 267 494 C297.99582041 493.37028807 320.89350218 508.82482628 342.37890625 529.359375 C346.13766586 533.05733927 349.57995154 536.99032199 353 541 C353.52907959 541.60682617 354.05815918 542.21365234 354.60327148 542.83886719 C365.26761814 555.10294822 374.26203071 568.31572926 383 582 C383.45745605 582.71397949 383.91491211 583.42795898 384.38623047 584.16357422 C398.65243802 606.62489328 410.12359526 631.02146161 418.6875 656.1875 C419.01967529 657.15139648 419.35185059 658.11529297 419.6940918 659.10839844 C427.00135462 681.35144379 431.57236008 704.53217436 436.25 727.4375 C436.52998152 728.80314299 436.81002204 730.16877388 437.09011841 731.53439331 C454.78815214 817.94561655 468.3133393 905.29396815 497.77423096 1134.80465698 C498.00557038 1137.05416552 498.23783412 1139.30357732 498.47021484 1141.55297852 C507.22642757 1226.4168314 514.52218155 1311.43274623 564.875 1940.5 C564.93058333 1941.23321331 564.98616665 1941.96642661 565.04343432 1942.7218585 C569.72778482 2004.51574919 574.38700438 2066.31141141 578.90418625 2128.1177845 C579.14223936 2131.37489177 579.38043413 2134.63198866 579.61865234 2137.88908386 C580.98587465 2156.58649185 582.35076565 2175.28405817 583.69330412 2193.98325682 C584.18802906 2200.87318176 584.68580018 2207.76288173 585.18592638 2214.65241671 C585.51985825 2219.25641225 585.84932797 2223.86069388 586.17483377 2228.46529245 C586.41668147 2231.86779002 586.66529623 2235.26978738 586.9128418 2238.671875 C586.99427366 2239.84575523 587.07570553 2241.01963547 587.15960503 2242.22908783 C587.89545866 2252.18824216 588.95995617 2262.14968576 591.7331543 2271.77270508 C592.06556122 2272.93998138 592.39796814 2274.10725769 592.740448 2275.30990601 C593.27691452 2277.1461705 593.27691452 2277.1461705 593.82421875 2279.01953125 C594.20672641 2280.34900517 594.58863784 2281.67865076 594.97000122 2283.00845337 C595.98749663 2286.5470449 597.01586796 2290.08237998 598.04742813 2293.61689377 C598.69262307 2295.83007342 599.33494639 2298.04406747 599.97640991 2300.2583313 C607.34697425 2325.69222363 615.01942614 2351.02215471 623.11322021 2376.23608398 C624.00827786 2379.02580045 624.90016328 2381.81651579 625.79150391 2384.60742188 C637.93941495 2422.60224701 651.30804449 2460.04085623 665.3730011 2497.36468506 C678.74670387 2532.86540891 691.79188501 2568.45051024 704.06542969 2604.34765625 C705.60228651 2608.84233512 707.14858126 2613.3336686 708.69970703 2617.82344055 C735.95152919 2696.7145426 760.04832722 2776.54973384 810.69732666 2959.73408508 C812.93990317 2968.08154936 815.20336587 2976.42288245 817.4921875 2984.7578125 C822.69049687 3003.72192727 827.5265017 3022.62743759 831 3042 C831.22381348 3043.23878906 831.44762695 3044.47757813 831.67822266 3045.75390625 C842.90330643 3109.18403039 849.14975423 3187.12096048 811.88671875 3243.30859375 C778.80142838 3290.50479471 728.91111904 3318.59700778 673 3330 C672.14776855 3330.1762793 671.29553711 3330.35255859 670.41748047 3330.53417969 C655.78054393 3333.4544444 641.00191917 3334.71114918 626.1484375 3335.921875 C625.10456942 3336.00787271 624.06070133 3336.09387043 622.98520088 3336.18247414 C600.27059039 3338.04835201 577.53893908 3339.57904583 554.79148102 3340.98064041 C551.34681382 3341.19309315 547.90225351 3341.4072215 544.45770264 3341.62155151 C459.05028869 3346.92342341 373.58556174 3351.41358459 235.11962891 3358.23657227 C232.72877493 3358.35160624 230.33792104 3358.4666422 227.94706726 3358.5816803 C223.60602968 3358.79046754 219.26489143 3358.99692602 214.92366028 3359.2016449 C205.9103563 3359.63099233 196.91637388 3360.12737457 187.91810608 3360.80471802 C183.82842283 3361.07840288 179.75400925 3361.16121188 175.65625 3361.16796875 C174.84737335 3361.1721582 174.0384967 3361.17634766 173.20510864 3361.18066406 C170.63668722 3361.19028258 168.06843614 3361.19047907 165.5 3361.1875 C164.61737488 3361.18722809 163.73474976 3361.18695618 162.82537842 3361.18667603 C149.45814997 3361.16775514 136.26109593 3360.81881097 123 3359 C122.24283691 3358.90348145 121.48567383 3358.80696289 120.70556641 3358.70751953 C92.19242438 3354.98841405 58.8856777 3344.9949222 40.4375 3321.5625 C16.67618752 3288.10963252 6.37013373 3247.4793893 4 3207 C3.67 3207 3.34 3207 3 3207 C3 3366.72 3 3526.44 3 3691 C279.54 3691 556.08 3691 841 3691 C841 2473.96 841 1256.92 841 3 C564.46 3 287.92 3 3 3 Z " fill="#FEFEFE" transform="translate(0,0)"/>
<path d="M0 0 C132.33 0 264.66 0 401 0 C402.32 4.62 403.64 9.24 405 14 C406.40730615 18.64694378 407.82900305 23.28849217 409.26757812 27.92578125 C410.84845329 33.06995627 412.34578751 38.22838279 413.76107788 43.4201355 C416.31255555 52.76780275 419.1970935 61.95171275 422.3125 71.125 C423.10242317 73.46605478 423.89093615 75.80758152 424.67932129 78.14915466 C425.23890607 79.8109323 425.79905526 81.47251997 426.35974121 83.13392639 C428.50765764 89.50726399 430.61305184 95.89392143 432.70703125 102.28515625 C442.16721614 131.10322737 452.36263625 159.59700389 463 188 C463.38988098 189.04186462 463.77976196 190.08372925 464.18145752 191.15716553 C468.07045986 201.54931215 471.96800816 211.93824686 475.8681488 222.32621765 C477.27204337 226.06567395 478.67542037 229.80532431 480.07861328 233.54504395 C480.65479714 235.08023653 481.2312502 236.61532813 481.80810547 238.15026855 C496.24066719 276.55681291 509.36421947 315.48424633 522.16607666 354.46179199 C523.09580916 357.29161383 524.02714729 360.12090503 524.95849609 362.95019531 C526.74657192 368.38434027 528.53058285 373.81980709 530.31192017 379.25616455 C531.00657351 381.37579947 531.70183932 383.49523379 532.39779663 385.61444092 C536.33008425 397.59645876 540.12657682 409.60435386 543.71337891 421.69433594 C545.22542469 426.78222335 546.85101974 431.8301 548.5 436.875 C551.1580305 445.10783784 553.50942478 453.38941908 555.73046875 461.74951172 C557.47029627 468.23128976 559.42435742 474.61841878 561.5 481 C564.15616284 489.17219534 566.51975159 497.3839789 568.73266602 505.6862793 C570.4992633 512.27298859 572.4249008 518.79702326 574.4375 525.3125 C579.69981243 542.39213895 584.42022067 559.60979373 588.87573242 576.91601562 C590.27272044 582.3124339 591.75577903 587.66641285 593.375 593 C596.03732475 601.78192814 598.26062799 610.67773491 600.52719116 619.56777954 C602.62986874 627.80703003 604.80617445 636.00478715 607.28173828 644.14038086 C608.81905316 649.24217519 610.11602009 654.38562714 611.375 659.5625 C613.19153933 667.02494207 615.24777828 674.38879517 617.4375 681.75 C630.20827353 725.0381259 638.20898615 769.95645874 638.25 815.1875 C638.25100708 815.96802734 638.25201416 816.74855469 638.25305176 817.55273438 C638.24040205 832.18472911 637.2357384 846.52552122 635 861 C634.86078125 861.91652344 634.7215625 862.83304688 634.578125 863.77734375 C630.83086864 887.40587689 622.04632868 909.05601853 606 927 C605.26910156 927.83917969 604.53820312 928.67835938 603.78515625 929.54296875 C582.49806857 953.67332297 556.995095 969.76642843 527 981 C526.18789063 981.31517578 525.37578125 981.63035156 524.5390625 981.95507812 C517.67043074 984.55922844 510.79688973 986.43149923 503.625 988 C502.46524658 988.25491211 501.30549316 988.50982422 500.1105957 988.77246094 C469.61971359 995.24919556 438.50882475 997.07630017 407.46807861 998.875 C401.07871484 999.24551327 394.68966249 999.62126449 388.30078125 1000 C387.60536791 1000.04106306 386.90995457 1000.08212612 386.19346809 1000.12443352 C376.83579366 1000.67898449 367.48725597 1001.31577971 358.140625 1002.03515625 C345.77916287 1002.98289079 333.41245817 1003.65704703 321.02996826 1004.26177979 C298.65794174 1005.35607402 276.29766065 1006.59140871 253.94311523 1007.99780273 C244.50842113 1008.58607545 235.07900918 1009.0978675 225.6328125 1009.4609375 C216.40377919 1009.81866144 207.19025879 1010.33125621 197.97265625 1010.91015625 C177.21037264 1012.20941127 156.43468967 1013.23725504 135.65802765 1014.27622986 C132.39989789 1014.43938295 129.14180727 1014.60329744 125.88372803 1014.76745605 C104.17783667 1015.86096084 82.47156764 1016.94471882 60.76171875 1017.95703125 C60.00564016 1017.9923036 59.24956158 1018.02757595 58.47057152 1018.06391716 C50.93823691 1018.41483193 43.40568716 1018.76043589 35.87280273 1019.09936523 C34.06565544 1019.18168648 34.06565544 1019.18168648 32.22200012 1019.26567078 C30.0490557 1019.36454327 27.8760385 1019.4618398 25.70292664 1019.55696106 C20.54053415 1019.79267235 15.3962278 1020.11338306 10.24487305 1020.52783203 C5.57646004 1020.8987651 0.97514255 1021.12830142 -3.70703125 1021.1328125 C-4.35579727 1021.13426773 -5.00456329 1021.13572296 -5.67298889 1021.13722229 C-7.71955702 1021.13941615 -9.76594928 1021.13329675 -11.8125 1021.125 C-12.51787903 1021.12311676 -13.22325806 1021.12123352 -13.95001221 1021.11929321 C-46.70625693 1021.01672981 -83.45909179 1018.45268548 -107.99609375 994.01171875 C-127.17197908 972.28933758 -135.7113748 939.07174456 -139 911 C-139.08449402 910.35720093 -139.16898804 909.71440186 -139.25604248 909.05212402 C-139.9871929 903.16617617 -140.14577974 897.37237568 -140.1328125 891.4453125 C-140.13376923 890.46311737 -140.13472595 889.48092224 -140.13571167 888.46896362 C-140.13638831 886.40329931 -140.13457025 884.33763281 -140.13037109 882.27197266 C-140.12502714 879.14090097 -140.13032781 876.00997347 -140.13671875 872.87890625 C-140.13605765 870.85937469 -140.13477584 868.83984322 -140.1328125 866.8203125 C-140.13584885 865.43853317 -140.13584885 865.43853317 -140.13894653 864.02883911 C-140.10775707 855.21198645 -139.44528462 846.63544029 -137.58959961 838.01196289 C-136.98357986 834.91611791 -136.50884965 831.8193121 -136.04780579 828.69935608 C-134.60183188 818.99962423 -132.66416259 809.49581189 -130.38522339 799.96069336 C-129.58231192 796.59862192 -128.79650077 793.23261033 -128.00947571 789.86679077 C-127.60236433 788.12592578 -127.19455871 786.38522299 -126.78605652 784.64468384 C-124.7838907 776.10815263 -122.84259819 767.55868213 -120.9375 759 C-120.77572266 758.27417725 -120.61394531 757.54835449 -120.44726562 756.80053711 C-117.58123303 743.91052695 -114.92188482 730.98102895 -112.30160522 718.03912354 C-110.26191074 707.9707025 -108.12649176 697.95038104 -105.65600586 687.97705078 C-103.97297032 681.11372557 -102.66004952 674.19930803 -101.38012695 667.25097656 C-100.35246596 661.7120046 -99.13047039 656.27155713 -97.703125 650.8203125 C-96.61878119 646.47088898 -95.79959524 642.07456144 -94.94140625 637.67578125 C-93.74954218 631.66271279 -92.42423305 625.67806845 -91.125 619.6875 C-89.13381421 610.4783424 -87.24657533 601.25862065 -85.5 592 C-83.850319 583.26294699 -82.0775745 574.56318487 -80.1875 565.875 C-76.22618616 547.63040172 -72.61014594 529.31677135 -69 511 C-68.86678345 510.32424927 -68.73356689 509.64849854 -68.59631348 508.95227051 C-66.85562534 500.11341164 -65.15142495 491.26771544 -63.46228027 482.41888428 C-62.95294727 479.75379629 -62.44184216 477.08905109 -61.93066406 474.42431641 C-56.97832637 448.58597577 -52.18067013 422.72389863 -47.625 396.8125 C-47.42007935 395.65131653 -47.21515869 394.49013306 -47.00402832 393.29376221 C-44.11486471 376.89412759 -41.46904956 360.46791399 -39 344 C-38.74081374 342.28652593 -38.48154228 340.57306475 -38.22216797 338.85961914 C-33.92761283 310.35502191 -30.54889485 281.76703592 -27.34960938 253.121521 C-26.49207955 245.46498331 -25.61765081 237.81035074 -24.74639893 230.15536499 C-24.43726899 227.43546747 -24.12935973 224.71543425 -23.82177734 221.99536133 C-22.82987205 213.23158574 -21.82507779 204.46961615 -20.7890625 195.7109375 C-16.43389249 158.8477597 -12.46580377 121.93791239 -8.96777344 84.9831543 C-8.25579577 77.50056308 -7.46627807 70.03174787 -6.625 62.5625 C-4.29934915 41.72109046 -2.17269889 20.85790936 0 0 Z " fill="#FEFEFE" transform="translate(173,2312)"/>
<path d="M0 0 C278.52 0 557.04 0 844 0 C844 1219.02 844 2438.04 844 3694 C565.48 3694 286.96 3694 0 3694 C0 2474.98 0 1255.96 0 0 Z M3 3 C3 1051.41 3 2099.82 3 3180 C3.33 3180 3.66 3180 4 3180 C4.10489746 3178.73446289 4.10489746 3178.73446289 4.21191406 3177.44335938 C4.48750903 3174.17698302 4.77212408 3170.91161265 5.06201172 3167.64648438 C5.18354854 3166.2587548 5.3019304 3164.8707437 5.41650391 3163.48242188 C7.16311908 3142.39938566 11.30513689 3121.73122419 15.9375 3101.1171875 C16.41545826 3098.96693461 16.89275388 3096.81653434 17.3694458 3094.66600037 C18.38121907 3090.10553651 19.39634129 3085.54583773 20.41418457 3080.98672485 C23.14340131 3068.75693225 25.84387905 3056.52076521 28.546875 3044.28515625 C28.95818287 3042.42441121 28.95818287 3042.42441121 29.37779999 3040.52607536 C50.73747443 2943.87578279 71.00889142 2846.92115819 125.6875 2490.5625 C125.81020767 2489.45324913 125.93291534 2488.34399826 126.05934143 2487.20113373 C129.33430587 2457.55290194 132.44128831 2427.8900821 135.40659237 2398.20953345 C135.79738722 2394.29821244 136.18866639 2390.38693987 136.57989502 2386.47566223 C136.65776284 2385.69712153 136.73563067 2384.91858083 136.81585813 2384.11644799 C147.09246795 2281.37347896 147.09246795 2281.37347896 153.4375 2234.125 C153.56736298 2233.15780155 153.69722595 2232.1906031 153.83102417 2231.19409561 C154.49210703 2226.27487756 155.15472202 2221.35586602 155.81726074 2216.43684387 C155.95023056 2215.4491633 156.08320038 2214.46148273 156.22019958 2213.44387245 C156.49021902 2211.43849164 156.76045242 2209.43313963 157.03089905 2207.42781639 C160.94482045 2178.3618937 164.44249499 2149.24367269 167.9375 2120.125 C168.02183525 2119.42266393 168.10617049 2118.72032785 168.19306135 2117.99670887 C179.82948987 2021.07666013 190.61400333 1924.05117243 218 1625 C218.08187939 1623.92892879 218.08187939 1623.92892879 218.1654129 1622.83621979 C222.36868634 1567.84542854 226.01719745 1512.82335414 228.5918808 1457.73072815 C228.68454375 1455.75067032 228.77819913 1453.77065901 228.87188721 1451.79064941 C230.700434 1412.77536092 231.2435244 1373.80549881 231.25 1334.75 C231.25044186 1333.5191291 231.25088371 1332.28825821 231.25133896 1331.0200882 C231.26002077 1284.58383389 230.26353053 1238.26812516 228.25323486 1191.87854004 C227.9886128 1185.762734 227.73409666 1179.64652351 227.47998047 1173.53027344 C223.63552078 1081.31975058 218.79098643 989.15253781 211.25 860.3125 C211.19846693 859.44401853 211.14693385 858.57553706 211.09383917 857.68073797 C208.55524126 814.91440739 205.90815004 772.15597478 203.10912895 729.40587306 C202.91487962 726.43826463 202.72089757 723.47063885 202.5269928 720.50300789 C201.34556314 702.42479769 200.16153453 684.34678784 198.94553483 666.27086562 C198.4736846 659.25363141 198.00738548 652.23604218 197.54503524 645.21817571 C197.27898654 641.18503652 197.00999467 637.1521507 196.73280716 633.11976051 C190.88602608 547.95590036 190.88602608 547.95590036 217.97265625 516.2421875 C218.64167969 515.50226562 219.31070313 514.76234375 220 514 C220.63808594 513.28070312 221.27617187 512.56140625 221.93359375 511.8203125 C233.998792 498.95400451 249.91967822 494.88866591 267 494 C297.99582041 493.37028807 320.89350218 508.82482628 342.37890625 529.359375 C346.13766586 533.05733927 349.57995154 536.99032199 353 541 C353.52907959 541.60682617 354.05815918 542.21365234 354.60327148 542.83886719 C365.26761814 555.10294822 374.26203071 568.31572926 383 582 C383.45745605 582.71397949 383.91491211 583.42795898 384.38623047 584.16357422 C398.65243802 606.62489328 410.12359526 631.02146161 418.6875 656.1875 C419.01967529 657.15139648 419.35185059 658.11529297 419.6940918 659.10839844 C427.00135462 681.35144379 431.57236008 704.53217436 436.25 727.4375 C436.52998152 728.80314299 436.81002204 730.16877388 437.09011841 731.53439331 C454.78815214 817.94561655 468.3133393 905.29396815 497.77423096 1134.80465698 C498.00557038 1137.05416552 498.23783412 1139.30357732 498.47021484 1141.55297852 C507.22642757 1226.4168314 514.52218155 1311.43274623 564.875 1940.5 C564.93058333 1941.23321331 564.98616665 1941.96642661 565.04343432 1942.7218585 C569.72778482 2004.51574919 574.38700438 2066.31141141 578.90418625 2128.1177845 C579.14223936 2131.37489177 579.38043413 2134.63198866 579.61865234 2137.88908386 C580.98587465 2156.58649185 582.35076565 2175.28405817 583.69330412 2193.98325682 C584.18802906 2200.87318176 584.68580018 2207.76288173 585.18592638 2214.65241671 C585.51985825 2219.25641225 585.84932797 2223.86069388 586.17483377 2228.46529245 C586.41668147 2231.86779002 586.66529623 2235.26978738 586.9128418 2238.671875 C586.99427366 2239.84575523 587.07570553 2241.01963547 587.15960503 2242.22908783 C587.89545866 2252.18824216 588.95995617 2262.14968576 591.7331543 2271.77270508 C592.06556122 2272.93998138 592.39796814 2274.10725769 592.740448 2275.30990601 C593.27691452 2277.1461705 593.27691452 2277.1461705 593.82421875 2279.01953125 C594.20672641 2280.34900517 594.58863784 2281.67865076 594.97000122 2283.00845337 C595.98749663 2286.5470449 597.01586796 2290.08237998 598.04742813 2293.61689377 C598.69262307 2295.83007342 599.33494639 2298.04406747 599.97640991 2300.2583313 C607.34697425 2325.69222363 615.01942614 2351.02215471 623.11322021 2376.23608398 C624.00827786 2379.02580045 624.90016328 2381.81651579 625.79150391 2384.60742188 C637.93941495 2422.60224701 651.30804449 2460.04085623 665.3730011 2497.36468506 C678.74670387 2532.86540891 691.79188501 2568.45051024 704.06542969 2604.34765625 C705.60228651 2608.84233512 707.14858126 2613.3336686 708.69970703 2617.82344055 C735.95152919 2696.7145426 760.04832722 2776.54973384 810.69732666 2959.73408508 C812.93990317 2968.08154936 815.20336587 2976.42288245 817.4921875 2984.7578125 C822.69049687 3003.72192727 827.5265017 3022.62743759 831 3042 C831.22381348 3043.23878906 831.44762695 3044.47757813 831.67822266 3045.75390625 C842.90330643 3109.18403039 849.14975423 3187.12096048 811.88671875 3243.30859375 C778.80142838 3290.50479471 728.91111904 3318.59700778 673 3330 C672.14776855 3330.1762793 671.29553711 3330.35255859 670.41748047 3330.53417969 C655.78054393 3333.4544444 641.00191917 3334.71114918 626.1484375 3335.921875 C625.10456942 3336.00787271 624.06070133 3336.09387043 622.98520088 3336.18247414 C600.27059039 3338.04835201 577.53893908 3339.57904583 554.79148102 3340.98064041 C551.34681382 3341.19309315 547.90225351 3341.4072215 544.45770264 3341.62155151 C459.05028869 3346.92342341 373.58556174 3351.41358459 235.11962891 3358.23657227 C232.72877493 3358.35160624 230.33792104 3358.4666422 227.94706726 3358.5816803 C223.60602968 3358.79046754 219.26489143 3358.99692602 214.92366028 3359.2016449 C205.9103563 3359.63099233 196.91637388 3360.12737457 187.91810608 3360.80471802 C183.82842283 3361.07840288 179.75400925 3361.16121188 175.65625 3361.16796875 C174.84737335 3361.1721582 174.0384967 3361.17634766 173.20510864 3361.18066406 C170.63668722 3361.19028258 168.06843614 3361.19047907 165.5 3361.1875 C164.61737488 3361.18722809 163.73474976 3361.18695618 162.82537842 3361.18667603 C149.45814997 3361.16775514 136.26109593 3360.81881097 123 3359 C122.24283691 3358.90348145 121.48567383 3358.80696289 120.70556641 3358.70751953 C92.19242438 3354.98841405 58.8856777 3344.9949222 40.4375 3321.5625 C16.67618752 3288.10963252 6.37013373 3247.4793893 4 3207 C3.67 3207 3.34 3207 3 3207 C3 3366.72 3 3526.44 3 3691 C279.54 3691 556.08 3691 841 3691 C841 2473.96 841 1256.92 841 3 C564.46 3 287.92 3 3 3 Z M239.375 537.4375 C232.02305445 546.52339497 227.8023683 557.27096582 225 568.5 C224.7922998 569.3046167 224.58459961 570.1092334 224.37060547 570.93823242 C221.06875506 585.53945979 223.24376175 601.40535552 224.171875 616.19604492 C224.37268572 619.40056895 224.56587761 622.60548029 224.7578125 625.81054688 C225.39131739 636.23022069 226.11389231 646.63616211 226.98046875 657.0390625 C228.12470528 670.85950523 228.90699009 684.69841962 229.68875122 698.5428772 C230.11480127 706.08375883 230.55165601 713.62401423 230.9921875 721.1640625 C231.03554041 721.9064876 231.07889332 722.6489127 231.12355995 723.41383553 C231.8347972 735.55467066 232.64948431 747.68515627 233.5625 759.8125 C235.21057193 781.75805456 236.33546635 803.73015811 237.50161743 825.70565796 C238.42418762 843.04351523 239.50596651 860.37140502 240.62528992 877.69754696 C243.11648386 916.31040346 245.26103519 954.93136969 247.17260057 993.57693964 C247.77295558 1005.71150457 248.38168881 1017.84565361 248.98916698 1029.97986364 C249.17684505 1033.72898572 249.3643258 1037.47811745 249.55135345 1041.22727203 C250.41179717 1058.47500953 251.28994997 1075.7214606 252.234375 1092.96484375 C254.67688349 1137.6747532 256.38774994 1182.38828575 257.75722408 1227.14388847 C257.93876568 1233.06179684 258.12742369 1238.97943992 258.32080078 1244.89697266 C260.82765971 1321.78262362 259.61296908 1398.2894588 256 1475.125 C255.95794937 1476.02355965 255.91589874 1476.92211929 255.87257385 1477.84790802 C254.94689724 1497.60923537 253.91338783 1517.34404039 252.43310547 1537.07275391 C251.89971338 1544.21867463 251.51529866 1551.36851285 251.16601562 1558.52539062 C250.4509468 1573.02914514 249.53114706 1587.51551666 248.5 1602 C248.44014923 1602.85184875 248.38029846 1603.70369751 248.31863403 1604.58135986 C247.67956827 1613.63623602 246.95594061 1622.67640096 246.07104492 1631.71069336 C245.08024867 1641.97998247 244.19266279 1652.25627594 243.33485794 1662.53742599 C242.97958405 1666.79377094 242.62128112 1671.04985974 242.26324463 1675.30597305 C242.07287485 1677.56925564 241.8826296 1679.83254871 241.69250488 1682.0958519 C231.76231164 1800.30759382 231.76231164 1800.30759382 225.78775024 1856.52633667 C225.04072057 1863.5690835 224.32069494 1870.6145129 223.6015625 1877.66015625 C221.08487879 1902.27525066 218.52475272 1926.8816963 215.64868164 1951.45776367 C214.66501405 1959.89720926 213.75835546 1968.33648719 212.97265625 1976.796875 C212.19210945 1985.20012321 211.24911174 1993.56452788 210.1875 2001.9375 C208.50049417 2015.46433812 207.0093652 2029.00809378 205.5625 2042.5625 C203.91941259 2057.9297719 202.14142711 2073.27124612 200.18374634 2088.60153198 C198.70072495 2100.22164716 197.32744555 2111.84824415 196.04129028 2123.49172974 C193.52976236 2146.19599475 190.61892883 2168.84440057 187.67902946 2191.49619007 C187.19321663 2195.23960155 186.70777785 2198.98306138 186.22265625 2202.7265625 C186.12747082 2203.4608869 186.03228539 2204.1952113 185.93421555 2204.95178795 C183.78813999 2221.52233733 181.75381794 2238.10601753 179.76391602 2254.69604492 C179.5929818 2256.11314255 179.5929818 2256.11314255 179.41859436 2257.55886841 C179.21006138 2259.28894086 179.00316226 2261.01921148 178.79832458 2262.74972534 C178.44345208 2265.69217643 178.0931618 2268.5928173 177.43164062 2271.48413086 C176.78208692 2275.2701325 177 2279.15868142 177 2283 C305.04 2283 433.08 2283 565 2283 C563.35 2276.07 561.7 2269.14 560 2262 C559.42437582 2256.19074014 558.9558922 2250.50258214 558.75 2244.6875 C558.65561591 2242.55680357 558.55556001 2240.42644672 558.45367432 2238.2960968 C558.36574866 2236.39922179 558.29123611 2234.50173822 558.21777344 2232.60424805 C558.02222369 2229.36781202 557.6655392 2226.21471382 557.24127197 2223.00422668 C556.85207292 2219.77118172 556.68193375 2216.53169139 556.5 2213.28125 C556.45939453 2212.57907349 556.41878906 2211.87689697 556.37695312 2211.15344238 C556.2056794 2208.19024227 556.04061044 2205.22670472 555.875 2202.26318359 C555.75217361 2200.08157576 555.62614705 2197.90016795 555.5 2195.71875 C555.4278125 2194.42904297 555.355625 2193.13933594 555.28125 2191.81054688 C555.08235745 2189.11582905 554.83054899 2186.48366826 554.48632812 2183.80859375 C554.12321274 2180.96491908 553.84189935 2178.20238707 553.71875 2175.34375 C553.68136719 2174.54839844 553.64398437 2173.75304688 553.60546875 2172.93359375 C553.53515625 2171.31119792 553.46484375 2169.68880208 553.39453125 2168.06640625 C553.21997197 2164.35250701 552.99611818 2160.6859743 552.5 2157 C551.78782101 2151.70877386 551.62551252 2146.39608525 551.39453125 2141.06640625 C551.21997197 2137.35250701 550.99611818 2133.6859743 550.5 2130 C549.78782101 2124.70877386 549.62551252 2119.39608525 549.39453125 2114.06640625 C549.21997197 2110.35250701 548.99611818 2106.6859743 548.5 2103 C547.78782101 2097.70877386 547.62551252 2092.39608525 547.39453125 2087.06640625 C547.194827 2082.81752618 546.835381 2078.66583066 546.26757812 2074.44726562 C545.51977805 2067.60789704 545.27168234 2060.70350045 544.875 2053.8359375 C544.42878522 2044.89588594 544.42878522 2044.89588594 543.5 2036 C542.47222605 2028.67711062 542.30119767 2021.21448461 541.875 2013.8359375 C541.75211363 2011.72382795 541.62611459 2009.61191887 541.5 2007.5 C541.4278125 2006.2521875 541.355625 2005.004375 541.28125 2003.71875 C541.10430479 2001.37914107 540.86519419 1999.04259553 540.53805542 1996.71922302 C539.78930664 1990.82104591 539.54737464 1984.88429209 539.22799468 1978.95092666 C538.2343566 1960.63747581 536.87260151 1942.3596352 535.43484092 1924.07660317 C535.10143285 1919.82707226 534.77193386 1915.5772379 534.44197083 1911.32743835 C533.88013039 1904.09714665 533.31616902 1896.86702332 532.75057983 1889.63702393 C531.86296346 1878.28999233 530.97945216 1866.94264318 530.09692383 1855.59521484 C530.0234676 1854.65075752 529.95001138 1853.7063002 529.87432921 1852.73322296 C529.5783935 1848.92814641 529.28247059 1845.12306887 528.9866038 1841.31798697 C528.54562906 1835.64684445 528.10432301 1829.97572785 527.66277677 1824.3046298 C525.96933437 1802.55228589 524.28873084 1780.79909711 522.64453125 1759.04296875 C522.55906036 1757.91224379 522.47358948 1756.78151882 522.38552856 1755.61652946 C521.97567564 1750.19267301 521.5662704 1744.76878286 521.15704346 1739.34487915 C518.24424081 1700.7489448 515.1768762 1662.16774227 511.9987793 1623.59277344 C511.66570737 1619.54884009 511.33278077 1615.50489482 511 1611.4609375 C510.87629249 1609.95787048 510.87629249 1609.95787048 510.75008583 1608.42443848 C508.94953652 1586.5294336 507.22196271 1564.62881916 505.49972534 1542.72753906 C501.49473687 1491.80463973 497.31372367 1440.89765393 493 1390 C492.92216026 1389.08106964 492.84432053 1388.16213928 492.76412201 1387.21536255 C489.3863087 1347.34371628 485.92192934 1307.48275713 482.13500977 1267.64770508 C480.92855402 1254.9503812 479.74319058 1242.25196696 478.62109375 1229.546875 C478.50973083 1228.28718399 478.39836792 1227.02749298 478.28363037 1225.72962952 C477.76292449 1219.82788929 477.24638668 1213.92582076 476.73583984 1208.02319336 C475.69285704 1196.07057191 474.49511617 1184.14670792 473.14186096 1172.22517395 C472.24609854 1164.30933604 471.41979541 1156.38907177 470.640625 1148.4609375 C466.28558059 1104.26217472 461.19887369 1060.18586306 454.76785278 1016.23849487 C453.20135341 1005.52577561 451.76470469 994.79947045 450.375 984.0625 C448.66873593 970.89215327 446.82372402 957.75302847 444.83984375 944.62109375 C444.13706273 939.96099553 443.48698008 935.29787116 442.875 930.625 C441.79611642 922.39386236 440.60036279 914.19933494 439.08984375 906.03515625 C438.83726807 904.66919312 438.83726807 904.66919312 438.57958984 903.27563477 C438.25229565 901.51878505 437.9210838 899.76265678 437.58447266 898.00756836 C436.41551126 891.7611874 435.48093533 885.49480375 434.59765625 879.203125 C433.00376221 867.86079836 431.22279671 856.55351121 429.375 845.25 C429.20492432 844.20829651 429.03484863 843.16659302 428.85961914 842.09332275 C422.89782266 805.68966988 416.13092462 769.44347162 408.49609375 733.35412598 C407.98948826 730.95011836 407.48813381 728.54506871 406.98828125 726.13964844 C393.60385561 661.77533467 370.57093872 605.03586935 327 555 C326.27941406 554.15566406 325.55882812 553.31132813 324.81640625 552.44140625 C312.29165389 537.96347613 296.77470862 525.18074166 277.0859375 523.70703125 C261.92445297 523.21865651 250.18664132 526.40620908 239.375 537.4375 Z M173 2312 C169.535 2346.155 169.535 2346.155 166 2381 C164 2399 164 2399 163 2407.89453125 C162.74977455 2410.1247307 162.49983795 2412.3549622 162.25 2414.58520508 C162.08392869 2416.06476421 161.91726628 2417.54425712 161.75 2419.02368164 C160.89112991 2426.62518522 160.0602294 2434.22616876 159.36177063 2441.8442688 C157.86133229 2458.19598458 155.96019489 2474.50470906 154.1093483 2490.81961823 C153.60536163 2495.26423697 153.10291653 2499.70903001 152.6003418 2504.15380859 C151.98770361 2509.57159591 151.37493308 2514.98936795 150.76130676 2520.40704346 C149.59295542 2530.72636648 148.43478345 2541.04674869 147.28985596 2551.36869621 C138.2334673 2632.99844015 138.2334673 2632.99844015 132.859375 2663 C132.1903024 2666.76253601 131.63598157 2670.53078879 131.11328125 2674.31640625 C129.76555833 2683.89233229 128.09870852 2693.41174618 126.4375 2702.9375 C126.26525909 2703.92788269 126.09301819 2704.91826538 125.91555786 2705.93865967 C122.04839953 2728.12850385 117.82388055 2750.24624765 113.515625 2772.35406494 C113.02675254 2774.86271907 112.53860244 2777.37151235 112.05078125 2779.88037109 C109.66518823 2792.14830737 109.66518823 2792.14830737 108.59570312 2797.62158203 C107.0381944 2805.60105469 105.50613691 2813.58488166 104 2821.57421875 C100.86218266 2838.20688596 97.70238596 2854.81639597 94.07788086 2871.35131836 C92.42799129 2878.90067639 90.92674814 2886.46798515 89.5 2894.0625 C87.57648843 2904.29261631 85.38516224 2914.44525564 83.08984375 2924.59790039 C81.78647789 2930.384963 80.54918897 2936.16157195 79.5 2942 C78.26747208 2948.83623045 76.77759997 2955.59893657 75.25 2962.375 C72.89755376 2972.8103425 70.69260793 2983.26773221 68.5625 2993.75 C66.05111696 3006.09860413 63.36432286 3018.39434704 60.55273438 3030.67797852 C58.61882297 3039.16155463 56.80001967 3047.66165449 55.0625 3056.1875 C52.83355106 3067.10784883 50.48591396 3077.99640688 48.0625 3088.875 C47.89442841 3089.63086395 47.72635681 3090.38672791 47.55319214 3091.16549683 C45.73786203 3099.32418715 43.89648013 3107.47605695 42.00390625 3115.6171875 C37.84850052 3133.31626685 37.84850052 3133.31626685 35.2890625 3151.296875 C35 3154 35 3154 34 3157 C28.61460957 3191.03428996 31.58461085 3230.60537076 43 3263 C43.45631795 3264.36959564 43.91206441 3265.73938184 44.3671875 3267.109375 C52.24620621 3290.0739006 63.92483149 3310.01899755 86.26708984 3321.12792969 C99.51350669 3327.27270187 114.49704873 3330.6705628 129 3332 C130.0828125 3332.10957031 131.165625 3332.21914062 132.28125 3332.33203125 C151.46969752 3333.89630686 171.03705581 3333.48365528 190.23692894 3332.30302429 C194.1011673 3332.06657187 197.96638579 3331.84705669 201.83154297 3331.6262207 C202.6929058 3331.57683413 203.55426863 3331.52744755 204.44173336 3331.47656441 C216.80546695 3330.77467692 229.1745062 3330.174067 241.54296875 3329.5625 C242.81593182 3329.49943979 244.08889488 3329.43637959 245.40043259 3329.37140846 C252.65556749 3329.01210315 259.91076307 3328.65403856 267.16599691 3328.29673749 C273.16829632 3328.00108866 279.17053868 3327.70429317 285.17277336 3327.40733337 C290.4223025 3327.14762643 295.67184533 3326.88819678 300.92139053 3326.6288147 C303.49321861 3326.50172737 306.0650443 3326.3745915 308.63686752 3326.24740601 C321.27259782 3325.6227054 333.90844495 3325.00159631 346.54541016 3324.40234375 C348.45388463 3324.3113165 350.36235738 3324.22025327 352.27082825 3324.12915039 C355.69770439 3323.96557647 359.12469861 3323.8049381 362.55180359 3323.64624023 C369.51083702 3323.31786973 376.44180771 3322.91255633 383.37702942 3322.2321167 C388.48528768 3321.78006739 393.60834982 3321.5834358 398.73046875 3321.3515625 C401.22632446 3321.23377183 403.72217381 3321.11584631 406.21801758 3320.99780273 C407.51736237 3320.93712616 408.81670715 3320.87644958 410.15542603 3320.81393433 C431.87073547 3319.79882896 453.57168285 3318.65493168 475.26553345 3317.2456665 C488.63141333 3316.37815112 501.99574438 3315.62707769 515.375 3315 C530.83843428 3314.27314164 546.26839966 3313.25331667 561.70581055 3312.10327148 C571.15017204 3311.40214304 580.59111154 3310.77929885 590.04833984 3310.28173828 C616.65563413 3308.88160124 643.67826498 3307.09944966 669.76953125 3301.47802734 C671.92511165 3301.01604985 674.08547047 3300.59347096 676.25 3300.17578125 C694.71372063 3296.4269349 712.50213129 3288.98942532 729 3280 C729.5995752 3279.68208496 730.19915039 3279.36416992 730.81689453 3279.03662109 C744.87222434 3271.57150251 756.53120156 3261.91725792 768 3251 C768.75667969 3250.30777344 769.51335938 3249.61554687 770.29296875 3248.90234375 C794.56747612 3225.95431219 804.02430378 3198.22024268 809 3166 C809.13422363 3165.14631836 809.26844727 3164.29263672 809.40673828 3163.41308594 C812.93008784 3139.79524626 812.15958256 3114.29576649 809.30761719 3090.65234375 C808.97949596 3087.82320963 808.70943075 3084.99204596 808.4453125 3082.15625 C805.55433325 3052.56224346 798.85627457 3023.62583647 791 2995 C790.64059326 2993.68443115 790.64059326 2993.68443115 790.27392578 2992.34228516 C789.28645288 2988.73849495 788.2840552 2985.13922902 787.26953125 2981.54296875 C785.67575179 2975.87434528 784.15271174 2970.18671472 782.625 2964.5 C782.32916016 2963.39906006 782.03332031 2962.29812012 781.72851562 2961.16381836 C781.12267191 2958.90809735 780.51704247 2956.65231878 779.91162109 2954.39648438 C776.25137991 2940.75929228 772.58679329 2927.12326487 768.875 2913.5 C768.6577124 2912.70174805 768.4404248 2911.90349609 768.21655273 2911.08105469 C766.48893865 2904.75178021 764.73240392 2898.43064278 762.9743042 2892.10978699 C761.70050378 2887.52817355 760.43240753 2882.94505004 759.17114258 2878.35997009 C755.035232 2863.32475453 750.88366876 2848.30800717 746.2644043 2833.41235352 C744.70790597 2828.38112069 743.25922483 2823.34808151 741.9375 2818.25 C740.52656421 2812.80952725 738.9114994 2807.47162266 737.1875 2802.125 C734.83984867 2794.83718983 732.71689283 2787.50746079 730.6875 2780.125 C727.11925192 2767.19246593 723.14918348 2754.39882564 719.12646484 2741.6015625 C718.0679388 2738.21721567 717.02454431 2734.82872064 715.98828125 2731.4375 C708.95395268 2708.46005166 701.43682327 2685.63891072 693.92578125 2662.81378174 C693.08642517 2660.26267713 692.24813821 2657.71122418 691.41015625 2655.15966797 C687.99046975 2644.75601735 684.51562048 2634.37161543 681 2624 C680.6686908 2623.02220581 680.33738159 2622.04441162 679.99603271 2621.0369873 C669.64284742 2590.51132019 658.87522735 2560.18240838 647.4315033 2530.04881287 C630.21500239 2484.71146058 613.91895846 2439.16631883 598.69210815 2393.12440491 C597.23698887 2388.72501413 595.77666622 2384.32760626 594.2980957 2379.93603516 C591.71183033 2372.2493996 589.19671999 2364.57712198 587.0625 2356.75 C584.7264155 2348.36767184 582.16813145 2340.07510004 579.44750977 2331.80957031 C577.30639814 2325.23021062 575.69034814 2318.76139255 574 2312 C441.67 2312 309.34 2312 173 2312 Z " fill="#010101" transform="translate(0,0)"/>
<path d="M0 0 C278.52 0 557.04 0 844 0 C844 1219.02 844 2438.04 844 3694 C565.48 3694 286.96 3694 0 3694 C0 2474.98 0 1255.96 0 0 Z M3 3 C3 1220.04 3 2437.08 3 3691 C279.54 3691 556.08 3691 841 3691 C841 2473.96 841 1256.92 841 3 C564.46 3 287.92 3 3 3 Z " fill="#FCFCFC" transform="translate(0,0)"/>
</svg>
