<?xml version="1.0" encoding="UTF-8"?>
<!DOCTYPE svg PUBLIC "-//W3C//DTD SVG 1.1//EN" "http://www.w3.org/Graphics/SVG/1.1/DTD/svg11.dtd">
<svg xmlns="http://www.w3.org/2000/svg" version="1.1" width="844px" height="3694px" style="shape-rendering:geometricPrecision; text-rendering:geometricPrecision; image-rendering:optimizeQuality; fill-rule:evenodd; clip-rule:evenodd" xmlns:xlink="http://www.w3.org/1999/xlink">
<g><path style="opacity:0.757" fill="#fcfcfc" d="M -0.5,-0.5 C 280.833,-0.5 562.167,-0.5 843.5,-0.5C 843.5,1230.83 843.5,2462.17 843.5,3693.5C 562.167,3693.5 280.833,3693.5 -0.5,3693.5C -0.5,2462.17 -0.5,1230.83 -0.5,-0.5 Z M 2.5,3207.5 C 4.47487,3249.26 16.9749,3287.59 40,3322.5C 55.017,3338.26 73.1837,3348.76 94.5,3354C 117.158,3359.5 140.158,3362.33 163.5,3362.5C 320.256,3355.22 476.922,3346.39 633.5,3336C 684.974,3332.96 731.308,3316.29 772.5,3286C 790.252,3271.59 805.086,3254.76 817,3235.5C 827.683,3215.45 834.349,3194.12 837,3171.5C 841.699,3122.38 838.699,3073.71 828,3025.5C 788.465,2867.36 741.798,2711.36 688,2557.5C 655.786,2476.86 627.952,2394.69 604.5,2311C 605.459,2308.88 605.626,2306.71 605,2304.5C 596.703,2272.64 589.036,2240.64 582,2208.5C 576.433,2174.2 571.433,2139.87 567,2105.5C 593.521,2088.98 610.855,2065.65 619,2035.5C 623.981,2010.09 618.314,1987.42 602,1967.5C 591.227,1955.28 578.893,1944.95 565,1936.5C 564.333,1927.5 564.333,1918.5 565,1909.5C 598.134,1894.17 615.634,1868.17 617.5,1831.5C 615.951,1793.31 597.618,1766.98 562.5,1752.5C 561.167,1740.5 561.167,1728.5 562.5,1716.5C 595.706,1703.64 614.706,1679.64 619.5,1644.5C 618.018,1620.36 607.351,1601.53 587.5,1588C 579.986,1582.74 571.986,1578.24 563.5,1574.5C 563.275,1561.21 563.275,1547.88 563.5,1534.5C 591.74,1528.09 609.24,1510.76 616,1482.5C 622.254,1439.33 605.421,1409.33 565.5,1392.5C 564.167,1371.83 564.167,1351.17 565.5,1330.5C 595.421,1325.41 613.921,1308.08 621,1278.5C 626.489,1231.36 607.155,1199.36 563,1182.5C 561.702,1146.58 558.035,1110.92 552,1075.5C 534.129,995.631 486.295,943.131 408.5,918C 316.488,899.762 247.988,931.595 203,1013.5C 189.361,1039.25 180.861,1066.58 177.5,1095.5C 148.633,1099.2 129.467,1114.86 120,1142.5C 111.645,1191.46 129.645,1227.12 174,1249.5C 174.667,1262.83 174.667,1276.17 174,1289.5C 152.324,1302.51 136.99,1320.85 128,1344.5C 122.209,1370.34 127.876,1393.34 145,1413.5C 153.131,1422.81 162.298,1430.81 172.5,1437.5C 173.666,1454.16 173.833,1470.82 173,1487.5C 132.336,1509.16 118.336,1542.16 131,1586.5C 135.962,1598.61 143.462,1608.78 153.5,1617C 159.389,1621.41 165.722,1625.08 172.5,1628C 171.842,1641.44 171.175,1654.94 170.5,1668.5C 126.324,1688.84 114.158,1721.18 134,1765.5C 143.537,1780.71 155.537,1793.71 170,1804.5C 170.5,1823.16 170.667,1841.83 170.5,1860.5C 132.875,1865.79 113.542,1887.46 112.5,1925.5C 112.905,1952.9 123.238,1975.73 143.5,1994C 151.254,2000.04 159.92,2004.21 169.5,2006.5C 169.03,2040.17 168.363,2073.84 167.5,2107.5C 153.803,2113.6 141.969,2122.27 132,2133.5C 121.275,2150.91 119.608,2169.25 127,2188.5C 132.143,2202.95 137.976,2217.12 144.5,2231C 142.888,2253.63 141.554,2276.3 140.5,2299C 132.354,2411.96 121.187,2524.8 107,2637.5C 91.9207,2732.64 74.254,2827.31 54,2921.5C 38.8246,2992.53 23.4913,3063.53 8,3134.5C 5.55498,3149.58 3.72165,3164.58 2.5,3179.5C 2.5,2120.5 2.5,1061.5 2.5,2.5C 281.833,2.5 561.167,2.5 840.5,2.5C 840.5,1231.83 840.5,2461.17 840.5,3690.5C 561.167,3690.5 281.833,3690.5 2.5,3690.5C 2.5,3529.5 2.5,3368.5 2.5,3207.5 Z"/></g>
<g><path style="opacity:0.981" fill="#010101" d="M 2.5,3207.5 C 2.5,3198.17 2.5,3188.83 2.5,3179.5C 3.72165,3164.58 5.55498,3149.58 8,3134.5C 23.4913,3063.53 38.8246,2992.53 54,2921.5C 74.254,2827.31 91.9207,2732.64 107,2637.5C 121.187,2524.8 132.354,2411.96 140.5,2299C 141.554,2276.3 142.888,2253.63 144.5,2231C 137.976,2217.12 132.143,2202.95 127,2188.5C 119.608,2169.25 121.275,2150.91 132,2133.5C 141.969,2122.27 153.803,2113.6 167.5,2107.5C 168.363,2073.84 169.03,2040.17 169.5,2006.5C 159.92,2004.21 151.254,2000.04 143.5,1994C 123.238,1975.73 112.905,1952.9 112.5,1925.5C 113.542,1887.46 132.875,1865.79 170.5,1860.5C 170.667,1841.83 170.5,1823.16 170,1804.5C 155.537,1793.71 143.537,1780.71 134,1765.5C 114.158,1721.18 126.324,1688.84 170.5,1668.5C 171.175,1654.94 171.842,1641.44 172.5,1628C 165.722,1625.08 159.389,1621.41 153.5,1617C 143.462,1608.78 135.962,1598.61 131,1586.5C 118.336,1542.16 132.336,1509.16 173,1487.5C 173.833,1470.82 173.666,1454.16 172.5,1437.5C 162.298,1430.81 153.131,1422.81 145,1413.5C 127.876,1393.34 122.209,1370.34 128,1344.5C 136.99,1320.85 152.324,1302.51 174,1289.5C 174.667,1276.17 174.667,1262.83 174,1249.5C 129.645,1227.12 111.645,1191.46 120,1142.5C 129.467,1114.86 148.633,1099.2 177.5,1095.5C 180.861,1066.58 189.361,1039.25 203,1013.5C 247.988,931.595 316.488,899.762 408.5,918C 486.295,943.131 534.129,995.631 552,1075.5C 558.035,1110.92 561.702,1146.58 563,1182.5C 607.155,1199.36 626.489,1231.36 621,1278.5C 613.921,1308.08 595.421,1325.41 565.5,1330.5C 564.167,1351.17 564.167,1371.83 565.5,1392.5C 605.421,1409.33 622.254,1439.33 616,1482.5C 609.24,1510.76 591.74,1528.09 563.5,1534.5C 563.275,1547.88 563.275,1561.21 563.5,1574.5C 571.986,1578.24 579.986,1582.74 587.5,1588C 607.351,1601.53 618.018,1620.36 619.5,1644.5C 614.706,1679.64 595.706,1703.64 562.5,1716.5C 561.167,1728.5 561.167,1740.5 562.5,1752.5C 597.618,1766.98 615.951,1793.31 617.5,1831.5C 615.634,1868.17 598.134,1894.17 565,1909.5C 564.333,1918.5 564.333,1927.5 565,1936.5C 578.893,1944.95 591.227,1955.28 602,1967.5C 618.314,1987.42 623.981,2010.09 619,2035.5C 610.855,2065.65 593.521,2088.98 567,2105.5C 571.433,2139.87 576.433,2174.2 582,2208.5C 589.036,2240.64 596.703,2272.64 605,2304.5C 605.626,2306.71 605.459,2308.88 604.5,2311C 627.952,2394.69 655.786,2476.86 688,2557.5C 741.798,2711.36 788.465,2867.36 828,3025.5C 838.699,3073.71 841.699,3122.38 837,3171.5C 834.349,3194.12 827.683,3215.45 817,3235.5C 805.086,3254.76 790.252,3271.59 772.5,3286C 731.308,3316.29 684.974,3332.96 633.5,3336C 476.922,3346.39 320.256,3355.22 163.5,3362.5C 140.158,3362.33 117.158,3359.5 94.5,3354C 73.1837,3348.76 55.017,3338.26 40,3322.5C 16.9749,3287.59 4.47487,3249.26 2.5,3207.5 Z"/></g>
<g><path style="opacity:1" fill="#b7b7b8" d="M 535.5,1370.5 C 534.834,1377.99 534.5,1385.66 534.5,1393.5C 534.502,1401.53 535.169,1409.2 536.5,1416.5C 577.247,1421.39 593.414,1443.73 585,1483.5C 580.275,1494.56 572.108,1501.72 560.5,1505C 551.605,1506.96 542.605,1507.79 533.5,1507.5C 533.5,1536.5 533.5,1565.5 533.5,1594.5C 548.528,1598.68 562.195,1605.51 574.5,1615C 590.187,1627.73 593.687,1643.23 585,1661.5C 573.142,1681.18 555.642,1691.18 532.5,1691.5C 532.5,1719.5 532.5,1747.5 532.5,1775.5C 556.32,1777.64 573.487,1789.31 584,1810.5C 592.239,1837.39 585.406,1859.56 563.5,1877C 554.691,1881.7 545.357,1884.87 535.5,1886.5C 535.167,1909.18 535.5,1931.84 536.5,1954.5C 551.674,1961.84 565.174,1971.5 577,1983.5C 595.905,2007.08 596.238,2031.08 578,2055.5C 570.79,2065.71 561.957,2074.21 551.5,2081C 545.584,2082.38 539.584,2083.21 533.5,2083.5C 541.859,2146.49 552.859,2208.99 566.5,2271C 566.252,2272.72 565.585,2274.22 564.5,2275.5C 565.246,2276.74 565.579,2278.07 565.5,2279.5C 460.167,2279.5 354.833,2279.5 249.5,2279.5C 223.672,2278.5 197.672,2278.17 171.5,2278.5C 171.5,2275.83 171.5,2273.17 171.5,2270.5C 172.299,2254.5 172.799,2238.5 173,2222.5C 166.081,2207.41 159.747,2192.08 154,2176.5C 152.559,2169.89 152.226,2163.22 153,2156.5C 155.055,2151.11 158.555,2146.95 163.5,2144C 173.898,2137.13 184.898,2131.3 196.5,2126.5C 197.824,2077.51 198.491,2028.51 198.5,1979.5C 174.192,1982.43 157.025,1972.76 147,1950.5C 140.777,1936.39 140.11,1922.06 145,1907.5C 151.241,1896.46 160.741,1890.63 173.5,1890C 182.186,1889.37 190.852,1889.53 199.5,1890.5C 199.833,1856.49 199.5,1822.49 198.5,1788.5C 181.095,1777.6 167.261,1763.26 157,1745.5C 149.83,1729 153.33,1715.17 167.5,1704C 177.306,1697.26 187.973,1692.43 199.5,1689.5C 201.491,1664.86 202.157,1639.86 201.5,1614.5C 201.5,1610.5 201.5,1606.5 201.5,1602.5C 177.881,1602.37 162.714,1591.04 156,1568.5C 152.862,1545.97 161.029,1528.8 180.5,1517C 187.263,1513.29 194.263,1510.12 201.5,1507.5C 202.667,1478.84 202.833,1450.17 202,1421.5C 188.505,1413.67 176.505,1404 166,1392.5C 150.675,1373.11 150.675,1353.78 166,1334.5C 176.898,1323.22 189.232,1313.89 203,1306.5C 203.667,1280.5 203.667,1254.5 203,1228.5C 174.272,1221.44 155.605,1203.77 147,1175.5C 142.863,1150.25 152.696,1133.42 176.5,1125C 185.797,1123.5 195.13,1122.34 204.5,1121.5C 206.23,1064.77 227.23,1016.61 267.5,977C 312.446,939.693 362.446,931.359 417.5,952C 462.727,971.56 494.894,1004.06 514,1049.5C 520.83,1068.65 525.497,1088.32 528,1108.5C 531.326,1141.08 533.326,1173.75 534,1206.5C 555.266,1207.63 572.266,1216.63 585,1233.5C 595.424,1250.5 596.09,1267.84 587,1285.5C 581.312,1293.84 573.479,1299.01 563.5,1301C 554.158,1301.46 544.825,1301.3 535.5,1300.5C 535.5,1323.83 535.5,1347.17 535.5,1370.5 Z"/></g>
<g><path style="opacity:1" fill="#515151" d="M 535.5,1370.5 C 535.183,1385.91 535.517,1401.24 536.5,1416.5C 535.169,1409.2 534.502,1401.53 534.5,1393.5C 534.5,1385.66 534.834,1377.99 535.5,1370.5 Z"/></g>
<g><path style="opacity:1" fill="#525253" d="M 201.5,1614.5 C 202.157,1639.86 201.491,1664.86 199.5,1689.5C 200.158,1664.4 200.824,1639.4 201.5,1614.5 Z"/></g>
<g><path style="opacity:1" fill="#717172" d="M 171.5,2270.5 C 171.5,2273.17 171.5,2275.83 171.5,2278.5C 197.672,2278.17 223.672,2278.5 249.5,2279.5C 223.167,2279.5 196.833,2279.5 170.5,2279.5C 170.19,2276.29 170.523,2273.29 171.5,2270.5 Z"/></g>
<g><path style="opacity:1" fill="#fefefe" d="M 170.5,2308.5 C 304.835,2308.17 439.168,2308.5 573.5,2309.5C 586.685,2356.89 601.185,2403.89 617,2450.5C 693.999,2649.83 756.666,2853.49 805,3061.5C 810.767,3097.04 811.767,3132.71 808,3168.5C 805.129,3194.81 795.463,3218.14 779,3238.5C 752.439,3269.21 719.272,3289.38 679.5,3299C 664.948,3301.98 650.281,3304.32 635.5,3306C 564.564,3311.7 493.564,3316.37 422.5,3320C 334.526,3324.74 246.526,3328.91 158.5,3332.5C 136.302,3333.61 114.636,3330.78 93.5,3324C 75.6358,3317.8 62.4691,3306.3 54,3289.5C 35.2365,3250.59 28.2365,3209.59 33,3166.5C 34.6818,3151.73 37.0151,3137.06 40,3122.5C 73.9118,2974.27 104.245,2825.27 131,2675.5C 137.896,2631.33 143.563,2587 148,2542.5C 155.699,2464.51 163.199,2386.51 170.5,2308.5 Z"/></g>
</svg>
