<?xml version="1.0" encoding="UTF-8"?>
<!DOCTYPE svg PUBLIC "-//W3C//DTD SVG 1.1//EN" "http://www.w3.org/Graphics/SVG/1.1/DTD/svg11.dtd">
<svg xmlns="http://www.w3.org/2000/svg" version="1.1" width="894px" height="3694px" style="shape-rendering:geometricPrecision; text-rendering:geometricPrecision; image-rendering:optimizeQuality; fill-rule:evenodd; clip-rule:evenodd" xmlns:xlink="http://www.w3.org/1999/xlink">
<g><path style="opacity:0.69" fill="#fdfdfd" d="M -0.5,-0.5 C 297.5,-0.5 595.5,-0.5 893.5,-0.5C 893.5,1230.83 893.5,2462.17 893.5,3693.5C 595.5,3693.5 297.5,3693.5 -0.5,3693.5C -0.5,2462.17 -0.5,1230.83 -0.5,-0.5 Z M 2.5,710.5 C 6.29718,784.93 20.1305,857.596 44,928.5C 59.7409,976.723 76.0743,1024.72 93,1072.5C 130.807,1176.92 168.807,1281.25 207,1385.5C 217.404,1407.54 227.904,1429.54 238.5,1451.5C 230.852,1467.61 224.685,1484.28 220,1501.5C 215.235,1522.87 221.069,1540.71 237.5,1555C 245.745,1561.38 254.579,1566.88 264,1571.5C 264.392,1604.85 264.725,1638.19 265,1671.5C 240.941,1679.22 224.274,1694.89 215,1718.5C 205.443,1743.02 206.443,1767.02 218,1790.5C 229.531,1807.27 245.531,1816.61 266,1818.5C 266.667,1837.17 266.667,1855.83 266,1874.5C 246.398,1888.41 232.065,1906.41 223,1928.5C 215.648,1957.11 223.481,1980.61 246.5,1999C 253.123,2003.23 259.956,2007.06 267,2010.5C 267.667,2024.17 267.667,2037.83 267,2051.5C 238.145,2064.88 222.978,2087.55 221.5,2119.5C 223.154,2152.31 238.654,2175.97 268,2190.5C 269.52,2207.14 269.853,2223.8 269,2240.5C 254,2250.17 241.667,2262.5 232,2277.5C 214.169,2313.35 219.669,2345.18 248.5,2373C 255.382,2378.88 262.548,2384.38 270,2389.5C 270.833,2402.85 270.666,2416.18 269.5,2429.5C 234.586,2446.65 215.586,2474.65 212.5,2513.5C 213.498,2545.3 228.498,2567.47 257.5,2580C 262.777,2581.49 268.111,2582.65 273.5,2583.5C 280.142,2636.61 302.142,2682.11 339.5,2720C 392.409,2766.43 451.409,2775.76 516.5,2748C 570.244,2721.58 606.077,2679.75 624,2622.5C 630.232,2598.88 634.232,2574.88 636,2550.5C 637.274,2532.52 638.274,2514.52 639,2496.5C 686.412,2478.02 705.412,2443.68 696,2393.5C 687.308,2366.97 669.142,2351.97 641.5,2348.5C 641.472,2327.82 641.305,2307.15 641,2286.5C 674.982,2273.84 692.815,2249.34 694.5,2213C 693.025,2176.55 674.859,2153.38 640,2143.5C 639.333,2130.5 639.333,2117.5 640,2104.5C 659.2,2096.08 674.867,2083.42 687,2066.5C 700.388,2039.48 697.721,2014.14 679,1990.5C 668.346,1977.59 655.179,1968.26 639.5,1962.5C 638.501,1950.18 638.168,1937.85 638.5,1925.5C 665.768,1916.06 683.268,1897.4 691,1869.5C 698.625,1831.36 687.125,1800.53 656.5,1777C 651.871,1774.1 647.037,1771.6 642,1769.5C 641.168,1760.15 641.335,1750.82 642.5,1741.5C 662.859,1729.97 678.692,1713.97 690,1693.5C 701.239,1666.73 699.573,1640.73 685,1615.5C 673.856,1598.02 659.689,1583.52 642.5,1572C 648.519,1535.2 654.352,1498.37 660,1461.5C 670.667,1434.17 681.333,1406.83 692,1379.5C 694.694,1345.28 699.027,1311.28 705,1277.5C 712.46,1249.79 721.126,1222.45 731,1195.5C 747.333,1150.83 763.667,1106.17 780,1061.5C 794.303,1021.59 805.97,980.924 815,939.5C 833.878,852.988 853.545,766.655 874,680.5C 881.383,648.871 886.383,616.871 889,584.5C 893.822,528.578 885.155,474.912 863,423.5C 830.203,358.813 777.37,323.646 704.5,318C 546.112,313.399 389.112,326.065 233.5,356C 203.269,361.974 173.602,369.974 144.5,380C 91.5752,404.259 53.4085,443.092 30,496.5C 19.0075,522.146 11.6742,548.813 8,576.5C 5.6849,597.612 3.85156,618.612 2.5,639.5C 2.5,426.833 2.5,214.167 2.5,1.5C 298.5,1.5 594.5,1.5 890.5,1.5C 890.5,1231.17 890.5,2460.83 890.5,3690.5C 594.5,3690.5 298.5,3690.5 2.5,3690.5C 2.5,2697.17 2.5,1703.83 2.5,710.5 Z"/></g>
<g><path style="opacity:0.981" fill="#010101" d="M 2.5,710.5 C 2.5,686.833 2.5,663.167 2.5,639.5C 3.85156,618.612 5.6849,597.612 8,576.5C 11.6742,548.813 19.0075,522.146 30,496.5C 53.4085,443.092 91.5752,404.259 144.5,380C 173.602,369.974 203.269,361.974 233.5,356C 389.112,326.065 546.112,313.399 704.5,318C 777.37,323.646 830.203,358.813 863,423.5C 885.155,474.912 893.822,528.578 889,584.5C 886.383,616.871 881.383,648.871 874,680.5C 853.545,766.655 833.878,852.988 815,939.5C 805.97,980.924 794.303,1021.59 780,1061.5C 763.667,1106.17 747.333,1150.83 731,1195.5C 721.126,1222.45 712.46,1249.79 705,1277.5C 699.027,1311.28 694.694,1345.28 692,1379.5C 681.333,1406.83 670.667,1434.17 660,1461.5C 654.352,1498.37 648.519,1535.2 642.5,1572C 659.689,1583.52 673.856,1598.02 685,1615.5C 699.573,1640.73 701.239,1666.73 690,1693.5C 678.692,1713.97 662.859,1729.97 642.5,1741.5C 641.335,1750.82 641.168,1760.15 642,1769.5C 647.037,1771.6 651.871,1774.1 656.5,1777C 687.125,1800.53 698.625,1831.36 691,1869.5C 683.268,1897.4 665.768,1916.06 638.5,1925.5C 638.168,1937.85 638.501,1950.18 639.5,1962.5C 655.179,1968.26 668.346,1977.59 679,1990.5C 697.721,2014.14 700.388,2039.48 687,2066.5C 674.867,2083.42 659.2,2096.08 640,2104.5C 639.333,2117.5 639.333,2130.5 640,2143.5C 674.859,2153.38 693.025,2176.55 694.5,2213C 692.815,2249.34 674.982,2273.84 641,2286.5C 641.305,2307.15 641.472,2327.82 641.5,2348.5C 669.142,2351.97 687.308,2366.97 696,2393.5C 705.412,2443.68 686.412,2478.02 639,2496.5C 638.274,2514.52 637.274,2532.52 636,2550.5C 634.232,2574.88 630.232,2598.88 624,2622.5C 606.077,2679.75 570.244,2721.58 516.5,2748C 451.409,2775.76 392.409,2766.43 339.5,2720C 302.142,2682.11 280.142,2636.61 273.5,2583.5C 268.111,2582.65 262.777,2581.49 257.5,2580C 228.498,2567.47 213.498,2545.3 212.5,2513.5C 215.586,2474.65 234.586,2446.65 269.5,2429.5C 270.666,2416.18 270.833,2402.85 270,2389.5C 262.548,2384.38 255.382,2378.88 248.5,2373C 219.669,2345.18 214.169,2313.35 232,2277.5C 241.667,2262.5 254,2250.17 269,2240.5C 269.853,2223.8 269.52,2207.14 268,2190.5C 238.654,2175.97 223.154,2152.31 221.5,2119.5C 222.978,2087.55 238.145,2064.88 267,2051.5C 267.667,2037.83 267.667,2024.17 267,2010.5C 259.956,2007.06 253.123,2003.23 246.5,1999C 223.481,1980.61 215.648,1957.11 223,1928.5C 232.065,1906.41 246.398,1888.41 266,1874.5C 266.667,1855.83 266.667,1837.17 266,1818.5C 245.531,1816.61 229.531,1807.27 218,1790.5C 206.443,1767.02 205.443,1743.02 215,1718.5C 224.274,1694.89 240.941,1679.22 265,1671.5C 264.725,1638.19 264.392,1604.85 264,1571.5C 254.579,1566.88 245.745,1561.38 237.5,1555C 221.069,1540.71 215.235,1522.87 220,1501.5C 224.685,1484.28 230.852,1467.61 238.5,1451.5C 227.904,1429.54 217.404,1407.54 207,1385.5C 168.807,1281.25 130.807,1176.92 93,1072.5C 76.0743,1024.72 59.7409,976.723 44,928.5C 20.1305,857.596 6.29718,784.93 2.5,710.5 Z"/></g>
<g><path style="opacity:1" fill="#fefefe" d="M 592.5,345.5 C 619.835,345.333 647.169,345.5 674.5,346C 770.563,344.593 830.063,390.426 853,483.5C 860.082,516.141 862.416,549.141 860,582.5C 857.657,603.925 854.657,625.258 851,646.5C 828.842,740.976 807.509,835.642 787,930.5C 780.623,957.343 773.623,984.01 766,1010.5C 744.788,1072.14 722.788,1133.47 700,1194.5C 686.854,1228.93 677.187,1264.26 671,1300.5C 668.169,1323.81 665.669,1347.14 663.5,1370.5C 520.167,1370.5 376.833,1370.5 233.5,1370.5C 186.928,1245.62 141.428,1120.29 97,994.5C 78.1839,941.232 61.8505,887.232 48,832.5C 28.8479,741.235 26.5146,649.568 41,557.5C 52.9199,498.766 83.4199,452.6 132.5,419C 145.315,411.093 158.982,405.093 173.5,401C 231.32,385.103 289.987,373.436 349.5,366C 430.365,355.75 511.365,348.916 592.5,345.5 Z"/></g>
<g><path style="opacity:1" fill="#929292" d="M 651.5,1401.5 C 516.833,1400.17 382.167,1400.17 247.5,1401.5C 246.957,1401.44 246.624,1401.11 246.5,1400.5C 381.833,1399.17 517.167,1399.17 652.5,1400.5C 652.376,1401.11 652.043,1401.44 651.5,1401.5 Z"/></g>
<g><path style="opacity:1" fill="#b7b7b8" d="M 651.5,1401.5 C 644.572,1419.78 637.739,1438.12 631,1456.5C 623.839,1501.13 617.005,1545.79 610.5,1590.5C 609.549,1591.92 609.216,1593.59 609.5,1595.5C 610.833,1595.5 612.167,1595.5 613.5,1595.5C 619.533,1594.97 625.199,1596.13 630.5,1599C 644.943,1609.78 656.11,1623.28 664,1639.5C 671.806,1659.33 668.806,1677.33 655,1693.5C 642.872,1706.65 628.706,1716.98 612.5,1724.5C 611.334,1746.83 611.167,1769.16 612,1791.5C 647.793,1797.95 665.127,1819.28 664,1855.5C 660.599,1876.24 649.099,1890.4 629.5,1898C 622.901,1900.15 616.235,1901.98 609.5,1903.5C 609.5,1931.5 609.5,1959.5 609.5,1987.5C 637.541,1988.59 656.374,2002.26 666,2028.5C 667.293,2043.09 662.126,2054.92 650.5,2064C 638.261,2072.54 625.094,2079.37 611,2084.5C 610.5,2113.5 610.333,2142.5 610.5,2171.5C 648.733,2168.24 666.566,2185.57 664,2223.5C 659.881,2239.28 650.381,2250.45 635.5,2257C 627.741,2259.32 619.908,2261.15 612,2262.5C 611.768,2301.17 611.934,2339.83 612.5,2378.5C 621.811,2377.48 631.144,2377.31 640.5,2378C 660.18,2383.16 669.846,2395.99 669.5,2416.5C 668.113,2442.4 655.113,2459.56 630.5,2468C 623.941,2469.82 617.274,2470.99 610.5,2471.5C 610.241,2512.09 607.074,2552.42 601,2592.5C 588.66,2656.49 552.493,2700.99 492.5,2726C 437.39,2744.26 390.223,2732.1 351,2689.5C 319.288,2651.39 302.288,2607.39 300,2557.5C 288.757,2556.4 277.591,2554.56 266.5,2552C 248.31,2542.79 240.143,2527.96 242,2507.5C 249.13,2475.87 268.63,2456.87 300.5,2450.5C 300.457,2424.49 299.957,2398.49 299,2372.5C 285.586,2365.42 273.586,2356.42 263,2345.5C 246.339,2325.21 246.339,2304.87 263,2284.5C 272.955,2273.2 284.621,2264.2 298,2257.5C 298.833,2228.83 298.667,2200.16 297.5,2171.5C 283.459,2166.73 271.292,2159.07 261,2148.5C 245.307,2125.52 247.473,2104.35 267.5,2085C 276.359,2079.53 286.026,2076.36 296.5,2075.5C 297.5,2046.84 297.833,2018.17 297.5,1989.5C 279.857,1986.43 265.357,1978.1 254,1964.5C 248.822,1954.83 248.155,1944.83 252,1934.5C 256.913,1924.51 263.413,1915.68 271.5,1908C 279.046,1901.45 286.879,1895.29 295,1889.5C 295.5,1855.83 295.667,1822.17 295.5,1788.5C 246.376,1794.89 228.876,1774.56 243,1727.5C 253.194,1705.48 270.36,1696.15 294.5,1699.5C 294.624,1650.49 294.124,1601.49 293,1552.5C 280.975,1547.24 269.475,1541.07 258.5,1534C 247.317,1525.42 244.484,1514.59 250,1501.5C 256.151,1484.55 262.984,1467.88 270.5,1451.5C 262.824,1434.82 255.158,1418.15 247.5,1401.5C 382.167,1400.17 516.833,1400.17 651.5,1401.5 Z"/></g>
<g><path style="opacity:1" fill="#5d5d5d" d="M 610.5,1590.5 C 610.5,1591.83 610.5,1593.17 610.5,1594.5C 611.791,1594.26 612.791,1594.6 613.5,1595.5C 612.167,1595.5 610.833,1595.5 609.5,1595.5C 609.216,1593.59 609.549,1591.92 610.5,1590.5 Z"/></g>
</svg>
