<?xml version="1.0" encoding="UTF-8"?>
<!DOCTYPE svg PUBLIC "-//W3C//DTD SVG 1.1//EN" "http://www.w3.org/Graphics/SVG/1.1/DTD/svg11.dtd">
<svg xmlns="http://www.w3.org/2000/svg" version="1.1" width="894px" height="3694px" style="shape-rendering:geometricPrecision; text-rendering:geometricPrecision; image-rendering:optimizeQuality; fill-rule:evenodd; clip-rule:evenodd" xmlns:xlink="http://www.w3.org/1999/xlink">
<g><path style="opacity:0.686" fill="#fdfdfd" d="M -0.5,-0.5 C 297.5,-0.5 595.5,-0.5 893.5,-0.5C 893.5,1230.83 893.5,2462.17 893.5,3693.5C 595.5,3693.5 297.5,3693.5 -0.5,3693.5C -0.5,2462.17 -0.5,1230.83 -0.5,-0.5 Z M 2.5,710.5 C 5.99168,776.775 17.4917,841.775 37,905.5C 56.8129,966.273 77.8129,1026.61 100,1086.5C 137.019,1185.89 175.019,1284.89 214,1383.5C 243.612,1690.45 290.279,1994.79 354,2296.5C 364.229,2357.79 371.229,2419.46 375,2481.5C 383.057,2621.72 385.724,2762.06 383,2902.5C 382.5,2937.17 381.666,2971.84 380.5,3006.5C 380.212,3040.11 386.379,3072.44 399,3103.5C 404.474,3114.62 411.974,3124.12 421.5,3132C 432.078,3138.97 443.745,3142.97 456.5,3144C 485.856,3147.43 511.523,3139.43 533.5,3120C 550.036,3103.13 563.87,3084.3 575,3063.5C 600.13,3019.24 621.463,2973.24 639,2925.5C 668.34,2839.81 689.674,2752.14 703,2662.5C 728.655,2492.04 737.322,2320.71 729,2148.5C 727.061,2082.82 724.728,2017.15 722,1951.5C 713.331,1754.79 703.998,1558.12 694,1361.5C 695.957,1325.55 701.623,1290.21 711,1255.5C 733.545,1188.41 757.212,1121.75 782,1055.5C 791.73,1028.25 800.063,1000.58 807,972.5C 830.685,867.095 854.685,761.762 879,656.5C 890.538,602.835 892.538,548.835 885,494.5C 878.29,451.101 861.29,412.434 834,378.5C 807.054,348.938 773.888,330.104 734.5,322C 720.304,319.163 705.971,317.497 691.5,317C 561.423,314.482 432.089,323.148 303.5,343C 250.17,350.798 197.837,362.798 146.5,379C 91.8817,403.618 52.715,443.452 29,498.5C 16.4672,528.965 8.80057,560.632 6,593.5C 4.82323,608.655 3.65656,623.655 2.5,638.5C 2.5,426.5 2.5,214.5 2.5,2.5C 298.5,2.5 594.5,2.5 890.5,2.5C 890.5,1231.83 890.5,2461.17 890.5,3690.5C 594.5,3690.5 298.5,3690.5 2.5,3690.5C 2.5,2697.17 2.5,1703.83 2.5,710.5 Z"/></g>
<g><path style="opacity:0.982" fill="#010101" d="M 2.5,710.5 C 2.5,686.5 2.5,662.5 2.5,638.5C 3.65656,623.655 4.82323,608.655 6,593.5C 8.80057,560.632 16.4672,528.965 29,498.5C 52.715,443.452 91.8817,403.618 146.5,379C 197.837,362.798 250.17,350.798 303.5,343C 432.089,323.148 561.423,314.482 691.5,317C 705.971,317.497 720.304,319.163 734.5,322C 773.888,330.104 807.054,348.938 834,378.5C 861.29,412.434 878.29,451.101 885,494.5C 892.538,548.835 890.538,602.835 879,656.5C 854.685,761.762 830.685,867.095 807,972.5C 800.063,1000.58 791.73,1028.25 782,1055.5C 757.212,1121.75 733.545,1188.41 711,1255.5C 701.623,1290.21 695.957,1325.55 694,1361.5C 703.998,1558.12 713.331,1754.79 722,1951.5C 724.728,2017.15 727.061,2082.82 729,2148.5C 737.322,2320.71 728.655,2492.04 703,2662.5C 689.674,2752.14 668.34,2839.81 639,2925.5C 621.463,2973.24 600.13,3019.24 575,3063.5C 563.87,3084.3 550.036,3103.13 533.5,3120C 511.523,3139.43 485.856,3147.43 456.5,3144C 443.745,3142.97 432.078,3138.97 421.5,3132C 411.974,3124.12 404.474,3114.62 399,3103.5C 386.379,3072.44 380.212,3040.11 380.5,3006.5C 381.666,2971.84 382.5,2937.17 383,2902.5C 385.724,2762.06 383.057,2621.72 375,2481.5C 371.229,2419.46 364.229,2357.79 354,2296.5C 290.279,1994.79 243.612,1690.45 214,1383.5C 175.019,1284.89 137.019,1185.89 100,1086.5C 77.8129,1026.61 56.8129,966.273 37,905.5C 17.4917,841.775 5.99168,776.775 2.5,710.5 Z"/></g>
<g><path style="opacity:1" fill="#fefefe" d="M 664.5,1363.5 C 663.532,1365.61 663.198,1367.94 663.5,1370.5C 522.5,1370.5 381.5,1370.5 240.5,1370.5C 191.142,1245.94 143.642,1120.6 98,994.5C 80.3093,945.43 64.6426,895.763 51,845.5C 29.5105,751.531 25.8438,656.864 40,561.5C 50.4935,505.965 77.6602,460.799 121.5,426C 141.263,412.29 162.929,402.623 186.5,397C 239.519,383.33 293.186,372.996 347.5,366C 459.635,350.751 572.301,344.084 685.5,346C 772.912,348.09 828.079,391.256 851,475.5C 859.425,509.334 862.425,543.667 860,578.5C 858.146,597.568 855.812,616.568 853,635.5C 830.406,735.138 808.073,834.804 786,934.5C 779.735,963.226 772.069,991.559 763,1019.5C 742.727,1076.99 722.061,1134.32 701,1191.5C 693.733,1211.64 687.066,1231.97 681,1252.5C 671.824,1288.91 666.324,1325.91 664.5,1363.5 Z"/></g>
<g><path style="opacity:1" fill="#585858" d="M 664.5,1363.5 C 664.5,1366.17 664.5,1368.83 664.5,1371.5C 522.999,1371.83 381.666,1371.5 240.5,1370.5C 381.5,1370.5 522.5,1370.5 663.5,1370.5C 663.198,1367.94 663.532,1365.61 664.5,1363.5 Z"/></g>
<g><path style="opacity:1" fill="#bdbdbd" d="M 245.5,1400.5 C 385.666,1399.5 525.999,1399.17 666.5,1399.5C 666.5,1402.17 666.5,1404.83 666.5,1407.5C 665.532,1405.39 665.198,1403.06 665.5,1400.5C 525.5,1400.5 385.5,1400.5 245.5,1400.5 Z"/></g>
<g><path style="opacity:1" fill="#fefefe" d="M 245.5,1400.5 C 385.5,1400.5 525.5,1400.5 665.5,1400.5C 665.198,1403.06 665.532,1405.39 666.5,1407.5C 675.248,1573.47 683.415,1739.47 691,1905.5C 698.03,2049.42 701.697,2193.42 702,2337.5C 699.428,2481.72 683.428,2624.38 654,2765.5C 638.56,2838.49 615.894,2909.15 586,2977.5C 571.098,3007.64 555.431,3037.31 539,3066.5C 529.59,3081.91 517.424,3094.74 502.5,3105C 483.707,3115.31 464.04,3117.31 443.5,3111C 434.232,3105.39 427.398,3097.56 423,3087.5C 416.92,3072.77 413.253,3057.44 412,3041.5C 410.197,3002.18 410.197,2962.84 412,2923.5C 412.667,2832.83 412.667,2742.17 412,2651.5C 409.843,2565 404.843,2478.67 397,2392.5C 393.654,2360.04 389.32,2327.7 384,2295.5C 321.217,1999.75 275.051,1701.42 245.5,1400.5 Z"/></g>
</svg>
