<?xml version="1.0" encoding="UTF-8"?>
<!DOCTYPE svg PUBLIC "-//W3C//DTD SVG 1.1//EN" "http://www.w3.org/Graphics/SVG/1.1/DTD/svg11.dtd">
<svg xmlns="http://www.w3.org/2000/svg" version="1.1" width="844px" height="3694px" style="shape-rendering:geometricPrecision; text-rendering:geometricPrecision; image-rendering:optimizeQuality; fill-rule:evenodd; clip-rule:evenodd" xmlns:xlink="http://www.w3.org/1999/xlink">
<g><path style="opacity:0.757" fill="#fcfcfc" d="M -0.5,-0.5 C 280.833,-0.5 562.167,-0.5 843.5,-0.5C 843.5,1230.83 843.5,2462.17 843.5,3693.5C 562.167,3693.5 280.833,3693.5 -0.5,3693.5C -0.5,2462.17 -0.5,1230.83 -0.5,-0.5 Z M 2.5,3206.5 C 4.3605,3245.93 15.5272,3282.59 36,3316.5C 47.4328,3331.82 62.2661,3342.65 80.5,3349C 114.34,3359.8 149.007,3363.8 184.5,3361C 335.928,3353.96 487.261,3345.29 638.5,3335C 692.488,3331.15 740.154,3312.15 781.5,3278C 795.935,3264.91 808.102,3250.08 818,3233.5C 828.205,3213.69 834.538,3192.69 837,3170.5C 841.801,3119.98 838.467,3069.98 827,3020.5C 792.125,2882.67 752.125,2746.34 707,2611.5C 687.787,2556.53 667.787,2501.86 647,2447.5C 625.448,2385.85 606.115,2323.51 589,2260.5C 572.51,2038.13 555.51,1815.8 538,1593.5C 526.547,1447.39 513.88,1301.39 500,1155.5C 484.51,1004.74 461.844,855.072 432,706.5C 418.418,635.492 386.584,574.325 336.5,523C 325.479,512.157 312.812,503.823 298.5,498C 244.047,483.317 210.213,503.484 197,558.5C 193.826,573.351 192.826,588.351 194,603.5C 208.842,815.995 220.509,1028.66 229,1241.5C 232.267,1346.29 229.934,1450.95 222,1555.5C 203.991,1799.26 178.657,2042.26 146,2284.5C 134.382,2407.07 120.715,2529.4 105,2651.5C 92.8768,2725.45 79.2101,2799.12 64,2872.5C 45.972,2959.64 27.3053,3046.64 8,3133.5C 5.58764,3148.92 3.75431,3164.25 2.5,3179.5C 2.5,2120.5 2.5,1061.5 2.5,2.5C 281.833,2.5 561.167,2.5 840.5,2.5C 840.5,1231.83 840.5,2461.17 840.5,3690.5C 561.167,3690.5 281.833,3690.5 2.5,3690.5C 2.5,3529.17 2.5,3367.83 2.5,3206.5 Z"/></g>
<g><path style="opacity:0.982" fill="#010101" d="M 2.5,3206.5 C 2.5,3197.5 2.5,3188.5 2.5,3179.5C 3.75431,3164.25 5.58764,3148.92 8,3133.5C 27.3053,3046.64 45.972,2959.64 64,2872.5C 79.2101,2799.12 92.8768,2725.45 105,2651.5C 120.715,2529.4 134.382,2407.07 146,2284.5C 178.657,2042.26 203.991,1799.26 222,1555.5C 229.934,1450.95 232.267,1346.29 229,1241.5C 220.509,1028.66 208.842,815.995 194,603.5C 192.826,588.351 193.826,573.351 197,558.5C 210.213,503.484 244.047,483.317 298.5,498C 312.812,503.823 325.479,512.157 336.5,523C 386.584,574.325 418.418,635.492 432,706.5C 461.844,855.072 484.51,1004.74 500,1155.5C 513.88,1301.39 526.547,1447.39 538,1593.5C 555.51,1815.8 572.51,2038.13 589,2260.5C 606.115,2323.51 625.448,2385.85 647,2447.5C 667.787,2501.86 687.787,2556.53 707,2611.5C 752.125,2746.34 792.125,2882.67 827,3020.5C 838.467,3069.98 841.801,3119.98 837,3170.5C 834.538,3192.69 828.205,3213.69 818,3233.5C 808.102,3250.08 795.935,3264.91 781.5,3278C 740.154,3312.15 692.488,3331.15 638.5,3335C 487.261,3345.29 335.928,3353.96 184.5,3361C 149.007,3363.8 114.34,3359.8 80.5,3349C 62.2661,3342.65 47.4328,3331.82 36,3316.5C 15.5272,3282.59 4.3605,3245.93 2.5,3206.5 Z"/></g>
<g><path style="opacity:1" fill="#fefefe" d="M 260.5,523.5 C 278.37,521.797 294.37,526.297 308.5,537C 349.608,576.005 378.441,622.839 395,677.5C 405.995,722.139 415.328,767.139 423,812.5C 444.671,936.861 461.671,1061.86 474,1187.5C 505.312,1538.89 533.312,1890.56 558,2242.5C 558.856,2250.48 559.523,2258.48 560,2266.5C 561.813,2271.75 563.313,2277.09 564.5,2282.5C 435.167,2282.5 305.833,2282.5 176.5,2282.5C 203.623,2073.7 226.123,1864.37 244,1654.5C 253.428,1545.87 258.928,1437.03 260.5,1328C 257.132,1189.73 251.298,1051.56 243,913.5C 236.706,804.459 229.872,695.459 222.5,586.5C 222.712,565.345 230.045,547.179 244.5,532C 249.483,528.344 254.816,525.511 260.5,523.5 Z"/></g>
<g><path style="opacity:1" fill="#fefefe" d="M 172.5,2311.5 C 306.167,2311.5 439.833,2311.5 573.5,2311.5C 598.187,2398.73 627.354,2484.4 661,2568.5C 713.99,2720.14 759.99,2873.8 799,3029.5C 805.531,3061 809.364,3092.84 810.5,3125C 811.208,3154.05 806.708,3182.22 797,3209.5C 777.683,3246.15 748.85,3272.32 710.5,3288C 685.086,3297.94 658.752,3303.94 631.5,3306C 473.939,3316.71 316.273,3325.54 158.5,3332.5C 130.849,3333.78 104.516,3328.62 79.5,3317C 74.044,3313.21 68.8774,3309.05 64,3304.5C 41.3683,3269.99 30.8683,3231.99 32.5,3190.5C 32.1316,3174.39 33.2982,3158.39 36,3142.5C 64.786,3013.24 91.786,2883.57 117,2753.5C 130.102,2684.92 140.435,2615.92 148,2546.5C 156.6,2468.2 164.766,2389.87 172.5,2311.5 Z"/></g>
</svg>
