<?xml version="1.0" encoding="UTF-8"?>
<svg version="1.1" xmlns="http://www.w3.org/2000/svg" width="973" height="3694">
<path d="M0 0 C321.09 0 642.18 0 973 0 C973 1219.02 973 2438.04 973 3694 C651.91 3694 330.82 3694 0 3694 C0 2474.98 0 1255.96 0 0 Z M3 3 C3 990.69 3 1978.38 3 2996 C3.33 2996 3.66 2996 4 2996 C4.09385986 2995.44280273 4.18771973 2994.88560547 4.28442383 2994.31152344 C9.72632741 2962.73527873 17.92756317 2931.52795909 27.27563477 2900.89575195 C27.4929894 2900.18316695 27.71034403 2899.47058195 27.93428516 2898.73640347 C36.18678272 2871.73718728 44.95508858 2844.92530305 54.06054688 2818.20288086 C56.5013069 2811.03936725 58.93706194 2803.87415943 61.3671875 2796.70703125 C61.77357075 2795.50876394 61.77357075 2795.50876394 62.18816376 2794.28628922 C66.77339138 2780.75283922 71.22043162 2767.17703904 75.62557602 2753.58405495 C80.4509207 2738.6989959 85.35710942 2723.84226106 90.3125 2709 C90.66709415 2707.93770864 91.02168831 2706.87541729 91.38702774 2705.78093529 C94.28654035 2697.09622226 97.18999921 2688.4128297 100.09362793 2679.72949219 C102.62675114 2672.15360622 105.15834212 2664.57721075 107.6875 2657 C108.0425209 2655.93645798 108.39754181 2654.87291595 108.76332092 2653.77714539 C113.87101279 2638.4681901 118.90356576 2623.13636994 123.88127136 2607.78471375 C128.55173384 2593.3859972 133.30058475 2579.01457428 138.09375 2564.65625 C138.43770813 2563.62581573 138.78166626 2562.59538147 139.13604736 2561.53372192 C141.9404002 2553.13451552 144.74872457 2544.7366381 147.55718994 2536.33880615 C150.00871655 2529.00773468 152.45870025 2521.6761502 154.90625 2514.34375 C155.25036423 2513.31292801 155.59447845 2512.28210602 155.94902039 2511.220047 C160.69368884 2496.99956416 165.37585013 2482.76009893 170 2468.5 C174.96277705 2453.19563192 179.99923483 2437.91728211 185.09375 2422.65625 C185.60961922 2421.11080254 185.60961922 2421.11080254 186.13591003 2419.53413391 C188.94030865 2411.13479018 191.74867865 2402.73677539 194.55718994 2394.33880615 C197.00871655 2387.00773468 199.45869253 2379.67614762 201.90625 2372.34375 C202.24720703 2371.3223996 202.58816406 2370.30104919 202.93945312 2369.24874878 C208.45133926 2352.72897242 213.88195679 2336.18373274 219.2467041 2319.61560059 C219.51065727 2318.8021946 219.77461044 2317.9887886 220.04656219 2317.15073395 C220.57076051 2315.53042689 221.09163105 2313.90903939 221.60913849 2312.28658295 C222.93025729 2308.16950718 224.32006599 2304.09985172 225.84887695 2300.05493164 C230.65755994 2287.09193845 232.50141589 2274.65842758 233.66154861 2260.91651535 C234.02086142 2256.75859435 234.42426104 2252.60683763 234.84103394 2248.45437622 C235.7460895 2239.405673 236.6178702 2230.35396912 237.48417449 2221.30148244 C237.75141089 2218.51088236 238.01934743 2215.72035033 238.28750038 2212.92983818 C239.57203378 2199.56199783 240.85052924 2186.1935857 242.1261692 2172.82489395 C242.43849593 2169.55206382 242.7509931 2166.27925 243.06352234 2163.00643921 C253.89916771 2049.51754821 264.37761683 1935.99408645 298 1537 C298.08479866 1535.88599068 298.16959732 1534.77198135 298.25696564 1533.62421417 C303.91367769 1459.25129727 309.50107778 1384.75814318 311.89642334 1310.19537354 C312.00627579 1306.80638975 312.12142417 1303.41760804 312.23681641 1300.02880859 C313.63519945 1258.337844 314.33609469 1216.63152221 314.96680009 1174.92306066 C315.037729 1170.23538404 315.11057395 1165.54774067 315.18432617 1160.86010742 C315.81997029 1120.08221291 316.20420165 1079.30092848 316.53173828 1038.51953125 C316.53734598 1037.82183263 316.54295367 1037.12413402 316.5487313 1036.40529302 C317.10246217 967.22825719 317.07762817 898.05399089 316.98695374 828.8752758 C316.98580378 827.99777004 316.98465382 827.12026429 316.98346901 826.21616745 C316.9823149 825.33629664 316.98116079 824.45642584 316.97997171 823.54989228 C316.95355545 803.25275624 316.939016 782.9556158 316.92585467 762.65846747 C316.92274672 757.89260152 316.91952979 753.12673564 316.91631252 748.36086977 C316.9156725 747.41267174 316.91503248 746.46447372 316.91437306 745.48754243 C316.91307603 743.56764844 316.91177784 741.64775446 316.91047852 739.72786048 C316.90917611 737.80220184 316.90787664 735.87654319 316.9065801 733.95088454 C316.89149196 711.56230693 316.87435578 689.17373118 316.85571289 666.78515625 C316.85490697 665.8128424 316.85410105 664.84052855 316.8532707 663.83875065 C316.82681244 632.01099244 316.79001403 600.18325386 316.74934419 568.35551101 C316.70721615 535.32567327 316.67847568 502.29584717 316.66543205 469.26598466 C316.66358011 464.60903106 316.66156023 459.95207754 316.65942955 455.29512405 C316.65901336 454.37928284 316.65859717 453.46344163 316.65816836 452.51984765 C316.65108363 437.85786389 316.62972749 423.19593487 316.60263307 408.53397586 C316.57578413 393.86608867 316.56328543 379.19824623 316.56550769 364.5303341 C316.56637288 355.84174658 316.5561208 347.15334051 316.52967303 338.46479231 C316.51309325 332.65494491 316.51122885 326.84520947 316.52099691 321.03534704 C316.52613396 317.73393322 316.52294 314.43312928 316.50614605 311.13171475 C316.39240754 287.47322559 318.84212241 265.8146368 333 246 C333.43699219 245.36578125 333.87398438 244.7315625 334.32421875 244.078125 C343.58762716 231.94945814 359.30868461 225.49787211 373.953125 223.24316406 C397.68124951 220.42431721 418.79909203 227.14917465 438 241 C441.88570339 244.0984789 445.42443589 247.554028 449 251 C450.30677214 252.09023572 451.61890618 253.17409216 452.9375 254.25 C476.04558204 274.49886702 492.58769599 304.29178584 506.92089844 331.00195312 C507.95293177 332.91284923 509.00761603 334.80915021 510.0703125 336.703125 C520.0820296 354.7119394 526.91175755 373.83301701 533.0625 393.4375 C533.80088233 395.76925104 534.53941129 398.10095564 535.27807617 400.43261719 C563.06278744 488.4611822 586.62567631 577.8155434 669.84374928 1264.79290417 C669.90707807 1266.97382958 669.97063847 1269.15474812 670.03427696 1271.33566451 C671.40737591 1318.3940189 672.64980467 1365.45476703 673.78125 1412.51953125 C673.79905628 1413.25979334 673.81686255 1414.00005543 673.83520842 1414.7627497 C674.45127842 1440.37908501 675.05685423 1465.99566826 675.66016465 1491.61230682 C676.17463951 1513.45650318 676.69219105 1535.30062245 677.21875 1557.14453125 C677.23649675 1557.88104931 677.25424349 1558.61756737 677.27252802 1559.37640417 C678.38407643 1605.4822482 679.63516996 1651.58276311 681.03387618 1697.68080065 C681.0968477 1699.75847904 681.15960432 1701.83616381 681.22228432 1703.91385102 C683.7494935 1787.66062061 687.42573606 1871.34062796 692 1955 C692.04903976 1955.89728065 692.09807953 1956.79456131 692.14860535 1957.71903229 C697.04705198 2047.18352493 703.03450954 2136.63256166 710.66482735 2225.90658569 C711.44894699 2235.0830803 712.17498995 2244.25605672 712.76098633 2253.44760132 C714.91225178 2287.13106951 722.10928212 2318.62033108 731.29170418 2350.95809841 C732.63497824 2355.69297126 733.95504232 2360.43383321 735.26074219 2365.17919922 C735.44730031 2365.8572014 735.63385843 2366.53520359 735.82606983 2367.2337513 C736.20321383 2368.60468834 736.58033129 2369.97563269 736.95742226 2371.34658432 C750.61302267 2420.94353359 765.52776388 2470.15464863 781.10412598 2519.18023682 C781.68105304 2520.99611457 782.25750643 2522.81214292 782.83337402 2524.62835693 C790.17530831 2547.78381831 798.00775845 2570.7462032 806.07354736 2593.65896606 C808.34059868 2600.10496894 810.58157311 2606.55959828 812.80859375 2613.01953125 C822.33872567 2640.64237708 832.24084866 2668.12002061 842.28027344 2695.56152344 C844.87688601 2702.66021888 847.46593263 2709.76165653 850.05340576 2716.86368752 C859.93343653 2743.98097732 869.85467196 2771.08232908 879.87527466 2798.14805603 C887.62583669 2819.08314617 895.32344533 2840.037669 903 2861 C903.34546875 2861.94317078 903.6909375 2862.88634155 904.046875 2863.85809326 C914.56977296 2892.59413203 924.90667151 2921.39375138 935.0411377 2950.26916504 C935.95928464 2952.88404287 936.87938016 2955.49822785 937.79980469 2958.11230469 C966.1324054 3038.68216207 985.86974 3141.94359351 955 3225 C954.75556152 3225.6604834 954.51112305 3226.3209668 954.25927734 3227.00146484 C946.5705012 3247.46469664 935.97066091 3266.18237668 922 3283 C921.51015625 3283.62519531 921.0203125 3284.25039062 920.515625 3284.89453125 C912.39470501 3295.00005809 900.64523511 3301.83538604 890 3309 C889.09878418 3309.6094043 888.19756836 3310.21880859 887.26904297 3310.84667969 C848.66086021 3336.93241058 808.40047278 3359.96254669 766.87493896 3381.04626465 C764.10733136 3382.45407859 761.34522214 3383.87260375 758.58203125 3385.2890625 C694.65660037 3417.87218251 625.83789184 3443.37008236 556.875 3463 C555.61389404 3463.3619043 554.35278809 3463.72380859 553.0534668 3464.09667969 C493.72609994 3480.64657499 436.49197959 3465.69913709 383.9453125 3436.4453125 C374.62603358 3431.1299166 365.80180769 3425.12236504 357 3419 C355.12898852 3417.70691221 353.25789298 3416.41394602 351.38671875 3415.12109375 C346.55940785 3411.77765642 341.74495327 3408.4161418 336.93359375 3405.04980469 C332.98276752 3402.28922404 329.02366132 3399.54063947 325.06469727 3396.79174805 C310.86659977 3386.9305497 296.72785145 3376.9973649 282.72924805 3366.85473633 C277.67849602 3363.19936433 272.59992608 3359.58638438 267.5 3356 C252.98624858 3345.78562415 238.66432271 3335.31309223 224.39111328 3324.76611328 C221.22020725 3322.42403301 218.04655382 3320.08569409 214.87255859 3317.74780273 C213.29054192 3316.58237185 211.7088362 3315.41651873 210.12744141 3314.25024414 C206.16194479 3311.32608808 202.19250348 3308.40759382 198.21484375 3305.5 C188.82795742 3298.62899856 179.57308865 3291.61705023 170.4140625 3284.4453125 C166.0528269 3281.03225539 161.65525768 3277.66843558 157.25 3274.3125 C144.92747794 3264.90961953 132.80789302 3255.27855499 120.80419922 3245.47216797 C119.21726954 3244.17728489 117.62651263 3242.88709522 116.03515625 3241.59765625 C105.8064407 3233.29151866 95.793251 3224.74990805 86.12402344 3215.79785156 C83.39515653 3213.27139555 80.6347718 3210.7964758 77.8125 3208.375 C57.3682264 3190.54962095 42.55487899 3167.38945335 30.97949219 3143.05810547 C30.33305807 3141.69982041 29.6801819 3140.34458016 29.02050781 3138.99267578 C15.9110581 3112.01068899 8.16128928 3081.64033066 4 3052 C3.67 3052 3.34 3052 3 3052 C3 3262.87 3 3473.74 3 3691 C322.11 3691 641.22 3691 970 3691 C970 2473.96 970 1256.92 970 3 C650.89 3 331.78 3 3 3 Z " fill="#FEFEFE" transform="translate(0,0)"/>
<path d="M0 0 C0.84498047 0.00563965 1.68996094 0.0112793 2.56054688 0.01708984 C23.52814079 0.42340738 38.48881722 13.19257901 52.48046875 27.6640625 C72.12504479 48.68831931 86.54025796 74.91115176 99.75 100.25 C100.06101654 100.84194153 100.37203308 101.43388306 100.69247437 102.04376221 C109.37836765 118.62573867 115.0728962 135.81112031 120.73583984 153.60083008 C121.93650123 157.37186307 123.14530016 161.14021162 124.35546875 164.90820312 C125.13589338 167.34620162 125.91585688 169.78434778 126.6953125 172.22265625 C127.04957306 173.32827408 127.40383362 174.43389191 127.76882935 175.57301331 C131.92040103 188.63179304 135.54199543 201.84223676 139.16796875 215.0546875 C140.58954494 220.17493476 142.09641894 225.23326824 143.81640625 230.26171875 C145.96331379 236.59597461 147.62510151 243.01531338 149.25 249.5 C151.15335272 256.97572152 153.06723168 264.43156774 155.3125 271.8125 C157.83919102 280.14141729 159.99214907 288.56223818 162.13867188 296.99609375 C163.75778751 303.33540767 165.45394472 309.64653586 167.22265625 315.9453125 C169.90014851 325.5054515 172.35147206 335.11657 174.75 344.75 C174.96627045 345.61590759 175.18254089 346.48181519 175.40536499 347.3739624 C178.88674461 361.32989433 182.13768175 375.31939114 185.17431641 389.37939453 C186.19083734 394.05134651 187.25112097 398.71307665 188.3125 403.375 C188.50124191 404.20535767 188.68998383 405.03571533 188.88444519 405.89123535 C189.94888568 410.56310217 191.02581263 415.23152941 192.12744141 419.89477539 C196.3314241 437.75671509 200.0593644 455.7021554 203.6875 473.6875 C203.99716917 475.21994282 204.30685153 476.75238298 204.61654663 478.28482056 C215.32782879 531.33010768 224.79798275 584.59846281 231.31713867 638.34106445 C231.45076813 639.43843178 231.45076813 639.43843178 231.58709717 640.55796814 C231.81807544 642.46839158 232.04394731 644.37943063 232.26928711 646.29052734 C232.67198757 649.48125286 233.20837614 652.6385189 233.76049805 655.80664062 C235.0084365 663.19494585 235.81938449 670.62329499 236.6171875 678.0703125 C236.7828138 679.59746934 236.94850039 681.12461964 237.11424255 682.65176392 C237.64658694 687.57951119 238.16832562 692.50834979 238.6875 697.4375 C238.77675625 698.28327103 238.8660125 699.12904205 238.95797348 700.0004425 C243.84415088 746.37651562 246.83252319 792.78612754 248.86254883 839.36816406 C248.94818588 841.32199257 248.94818588 841.32199257 249.03555298 843.31529236 C249.14050991 845.73085761 249.24345367 848.14651167 249.34384155 850.56227112 C249.57534475 855.92850329 249.87187044 861.27562334 250.31030273 866.62915039 C250.91900172 874.23669499 251.19461466 881.85125678 251.4609375 889.4765625 C251.51835856 891.0674551 251.57595581 892.65834136 251.63371277 894.2492218 C251.78961659 898.56998847 251.94161155 902.89088374 252.09233475 907.21183395 C252.18851638 909.96661057 252.28545287 912.72135982 252.38253784 915.47610474 C253.41226636 944.74552966 254.37602256 974.0170959 255.28278351 1003.29058075 C255.37090506 1006.11858473 255.46053817 1008.94653616 255.55072021 1011.7744751 C256.51316648 1042.06304871 257.17541285 1072.35646149 257.81298685 1102.65321612 C258.79979231 1149.54260967 259.92298067 1196.42814307 261.08852768 1243.31340408 C261.22526561 1248.81426249 261.36152352 1254.31513268 261.49765486 1259.81600612 C262.94402823 1318.25285242 264.44537307 1376.68596298 266.28933907 1435.11182022 C266.66254606 1446.95771638 266.98435347 1458.80383232 267.26171875 1470.65234375 C268.50636304 1523.21791821 270.97877837 1575.71908955 273.51928711 1628.23635864 C273.75778285 1633.16972614 273.99339443 1638.10322556 274.2278595 1643.03678608 C275.08447423 1661.05058865 275.96883436 1679.05847304 277.13085938 1697.05569458 C278.14674489 1712.82359631 279.0599339 1728.592426 279.8125 1744.375 C281.58149967 1781.145318 284.14482096 1817.85973323 286.92672729 1854.56567383 C287.63258387 1863.88963143 288.32371343 1873.21461189 289.01063728 1882.53997993 C289.56715172 1890.08933391 290.12689842 1897.63844856 290.6875 1905.1875 C290.75000317 1906.02960148 290.81250633 1906.87170296 290.87690353 1907.73932266 C292.34453342 1927.4961697 293.86433449 1947.24715991 295.53125 1966.98828125 C295.60134403 1967.81982727 295.67143806 1968.65137329 295.74365616 1969.50811768 C296.41562329 1977.47396751 297.09325798 1985.43927099 297.78949356 1993.40303898 C298.04135024 1996.29384183 298.28901878 1999.18499475 298.53593445 2002.07622337 C298.70351294 2004.01937733 298.87706987 2005.96201292 299.05090332 2007.90461731 C299.15189331 2009.09004623 299.2528833 2010.27547516 299.35693359 2011.49682617 C299.44542572 2012.5057341 299.53391785 2013.51464203 299.62509155 2014.55412292 C299.90331096 2020.13366562 299.8125 2025.72602502 299.8125 2031.3125 C159.5625 2031.3125 19.3125 2031.3125 -125.1875 2031.3125 C-124.03868258 2007.18733423 -124.03868258 2007.18733423 -123.20361328 1998.85766602 C-123.11075043 1997.8884169 -123.01788757 1996.91916779 -122.92221069 1995.92054749 C-122.62223241 1992.8020116 -122.315146 1989.68422503 -122.0078125 1986.56640625 C-121.791794 1984.33662528 -121.57621776 1982.10680143 -121.36105347 1979.87693787 C-120.79793049 1974.05376145 -120.22867079 1968.2312013 -119.65808105 1962.40875244 C-119.08712406 1956.5704096 -118.52244288 1950.73146011 -117.95703125 1944.89257812 C-116.15120148 1926.26778643 -114.32931151 1907.64479089 -112.44921875 1889.02734375 C-111.48454752 1879.46168355 -110.61609755 1869.89832633 -109.875 1860.3125 C-108.55290956 1843.73074295 -106.93643679 1827.17949031 -105.3125 1810.625 C-103.16428976 1788.72388827 -101.14319961 1766.8160431 -99.2510376 1744.89099121 C-97.98305615 1730.20944328 -96.65484762 1715.53795425 -95.1875 1700.875 C-93.48970629 1683.88024043 -92.00552414 1666.87054368 -90.55984497 1649.85263062 C-89.33202892 1635.41002013 -88.07787792 1620.97142023 -86.734375 1606.5390625 C-81.21434233 1547.14112188 -76.32725364 1487.69071603 -71.41740417 1428.23985291 C-70.22437475 1413.79754572 -69.02571081 1399.35575544 -67.81068122 1384.91528058 C-64.92914077 1350.66604275 -62.13631613 1316.41495081 -59.64715576 1282.13446045 C-59.07316347 1274.23742943 -58.49374664 1266.34079399 -57.91296577 1258.44425964 C-57.77406342 1256.55480284 -57.63541204 1254.66532757 -57.49702263 1252.77583313 C-56.77484388 1242.92513705 -56.0218346 1233.08168088 -55.11328125 1223.24609375 C-53.78654988 1208.77033623 -53.06993753 1194.24721964 -52.25421143 1179.7355957 C-51.91091674 1173.62991247 -51.56430721 1167.52442621 -51.21322823 1161.41918564 C-51.09317689 1159.31620032 -50.97614099 1157.21306285 -50.85935974 1155.1098938 C-50.25315098 1144.50673935 -50.25315098 1144.50673935 -49.67382812 1139.81103516 C-48.89846012 1133.36552256 -48.75771465 1126.87315467 -48.50390625 1120.390625 C-48.44307483 1118.89051479 -48.38202874 1117.39041328 -48.32078552 1115.89031982 C-48.19190616 1112.71634501 -48.06522759 1109.54229232 -47.94018555 1106.36816406 C-47.78809033 1102.50976912 -47.63146669 1098.65157793 -47.47316837 1094.79343319 C-47.05776626 1084.6484813 -46.67362467 1074.50248376 -46.30018997 1064.35590744 C-46.18196138 1061.16291912 -46.0613589 1057.97002533 -45.94064331 1054.77713013 C-44.41108398 1014.02203576 -43.67915404 973.28286772 -43.20922285 932.50402868 C-43.08830859 922.02416274 -42.95854661 911.54440533 -42.82824802 901.06465244 C-42.80823312 899.45419884 -42.78821836 897.84374523 -42.76820374 896.23329163 C-42.75834004 895.44082002 -42.74847633 894.64834841 -42.73831373 893.83186251 C-42.68365464 889.42439923 -42.63068276 885.01692167 -42.57987799 880.6094123 C-42.53856582 877.04810832 -42.49573071 873.48682283 -42.45288086 869.92553711 C-42.4446923 869.23398738 -42.43650374 868.54243765 -42.42806704 867.82993187 C-42.30818019 857.85701611 -42.14534939 847.88563612 -41.94515133 837.91400719 C-41.19066016 799.60643977 -41.06135144 761.31425773 -41.11206052 723.00031796 C-41.12374361 713.98617289 -41.12902489 704.97202631 -41.13412625 695.95787551 C-41.14306389 680.34295754 -41.15550291 664.72804498 -41.17055158 649.11313178 C-41.1943777 624.36179419 -41.20851818 599.61045796 -41.21971822 574.85911176 C-41.22408263 565.28847145 -41.22872051 555.71783125 -41.23332024 546.14719105 C-41.23382876 545.08478104 -41.23433729 544.02237103 -41.23486123 542.92776678 C-41.24693383 517.77093516 -41.26131698 492.61410509 -41.27685547 467.45727539 C-41.27753063 466.35956246 -41.2782058 465.26184953 -41.27890142 464.13087258 C-41.29472823 438.46257128 -41.31270054 412.79427293 -41.33520508 387.12597656 C-41.33617635 386.01782758 -41.33714762 384.90967861 -41.33814832 383.76794936 C-41.34599838 374.83056834 -41.35391868 365.8931874 -41.36185859 356.95580646 C-41.39454269 320.098486 -41.41714639 283.24117085 -41.42815296 246.38383732 C-41.42971741 241.18232697 -41.43141176 235.98081668 -41.43319321 230.77930641 C-41.43354198 229.75589437 -41.43389075 228.73248233 -41.43425008 227.6780578 C-41.44017821 211.23741555 -41.45695666 194.79680154 -41.4780349 178.35617246 C-41.49899374 161.86257718 -41.50924714 145.36900364 -41.50849093 128.87539478 C-41.50838401 119.08679798 -41.5166729 109.29829214 -41.53702942 99.50971606 C-41.54981007 92.9679028 -41.5516352 86.42614491 -41.54467127 79.88432306 C-41.54102092 76.16124321 -41.54202927 72.4383325 -41.55647077 68.71527513 C-41.7159945 25.22050687 -41.7159945 25.22050687 -27.8125 10.25 C-19.71628173 3.04527543 -10.69625531 -0.07422065 0 0 Z " fill="#FEFEFE" transform="translate(386.1875,251.6875)"/>
<path d="M0 0 C321.09 0 642.18 0 973 0 C973 1219.02 973 2438.04 973 3694 C651.91 3694 330.82 3694 0 3694 C0 2474.98 0 1255.96 0 0 Z M3 3 C3 990.69 3 1978.38 3 2996 C3.33 2996 3.66 2996 4 2996 C4.09385986 2995.44280273 4.18771973 2994.88560547 4.28442383 2994.31152344 C9.72632741 2962.73527873 17.92756317 2931.52795909 27.27563477 2900.89575195 C27.4929894 2900.18316695 27.71034403 2899.47058195 27.93428516 2898.73640347 C36.18678272 2871.73718728 44.95508858 2844.92530305 54.06054688 2818.20288086 C56.5013069 2811.03936725 58.93706194 2803.87415943 61.3671875 2796.70703125 C61.77357075 2795.50876394 61.77357075 2795.50876394 62.18816376 2794.28628922 C66.77339138 2780.75283922 71.22043162 2767.17703904 75.62557602 2753.58405495 C80.4509207 2738.6989959 85.35710942 2723.84226106 90.3125 2709 C90.66709415 2707.93770864 91.02168831 2706.87541729 91.38702774 2705.78093529 C94.28654035 2697.09622226 97.18999921 2688.4128297 100.09362793 2679.72949219 C102.62675114 2672.15360622 105.15834212 2664.57721075 107.6875 2657 C108.0425209 2655.93645798 108.39754181 2654.87291595 108.76332092 2653.77714539 C113.87101279 2638.4681901 118.90356576 2623.13636994 123.88127136 2607.78471375 C128.55173384 2593.3859972 133.30058475 2579.01457428 138.09375 2564.65625 C138.43770813 2563.62581573 138.78166626 2562.59538147 139.13604736 2561.53372192 C141.9404002 2553.13451552 144.74872457 2544.7366381 147.55718994 2536.33880615 C150.00871655 2529.00773468 152.45870025 2521.6761502 154.90625 2514.34375 C155.25036423 2513.31292801 155.59447845 2512.28210602 155.94902039 2511.220047 C160.69368884 2496.99956416 165.37585013 2482.76009893 170 2468.5 C174.96277705 2453.19563192 179.99923483 2437.91728211 185.09375 2422.65625 C185.60961922 2421.11080254 185.60961922 2421.11080254 186.13591003 2419.53413391 C188.94030865 2411.13479018 191.74867865 2402.73677539 194.55718994 2394.33880615 C197.00871655 2387.00773468 199.45869253 2379.67614762 201.90625 2372.34375 C202.24720703 2371.3223996 202.58816406 2370.30104919 202.93945312 2369.24874878 C208.45133926 2352.72897242 213.88195679 2336.18373274 219.2467041 2319.61560059 C219.51065727 2318.8021946 219.77461044 2317.9887886 220.04656219 2317.15073395 C220.57076051 2315.53042689 221.09163105 2313.90903939 221.60913849 2312.28658295 C222.93025729 2308.16950718 224.32006599 2304.09985172 225.84887695 2300.05493164 C230.65755994 2287.09193845 232.50141589 2274.65842758 233.66154861 2260.91651535 C234.02086142 2256.75859435 234.42426104 2252.60683763 234.84103394 2248.45437622 C235.7460895 2239.405673 236.6178702 2230.35396912 237.48417449 2221.30148244 C237.75141089 2218.51088236 238.01934743 2215.72035033 238.28750038 2212.92983818 C239.57203378 2199.56199783 240.85052924 2186.1935857 242.1261692 2172.82489395 C242.43849593 2169.55206382 242.7509931 2166.27925 243.06352234 2163.00643921 C253.89916771 2049.51754821 264.37761683 1935.99408645 298 1537 C298.08479866 1535.88599068 298.16959732 1534.77198135 298.25696564 1533.62421417 C303.91367769 1459.25129727 309.50107778 1384.75814318 311.89642334 1310.19537354 C312.00627579 1306.80638975 312.12142417 1303.41760804 312.23681641 1300.02880859 C313.63519945 1258.337844 314.33609469 1216.63152221 314.96680009 1174.92306066 C315.037729 1170.23538404 315.11057395 1165.54774067 315.18432617 1160.86010742 C315.81997029 1120.08221291 316.20420165 1079.30092848 316.53173828 1038.51953125 C316.53734598 1037.82183263 316.54295367 1037.12413402 316.5487313 1036.40529302 C317.10246217 967.22825719 317.07762817 898.05399089 316.98695374 828.8752758 C316.98580378 827.99777004 316.98465382 827.12026429 316.98346901 826.21616745 C316.9823149 825.33629664 316.98116079 824.45642584 316.97997171 823.54989228 C316.95355545 803.25275624 316.939016 782.9556158 316.92585467 762.65846747 C316.92274672 757.89260152 316.91952979 753.12673564 316.91631252 748.36086977 C316.9156725 747.41267174 316.91503248 746.46447372 316.91437306 745.48754243 C316.91307603 743.56764844 316.91177784 741.64775446 316.91047852 739.72786048 C316.90917611 737.80220184 316.90787664 735.87654319 316.9065801 733.95088454 C316.89149196 711.56230693 316.87435578 689.17373118 316.85571289 666.78515625 C316.85490697 665.8128424 316.85410105 664.84052855 316.8532707 663.83875065 C316.82681244 632.01099244 316.79001403 600.18325386 316.74934419 568.35551101 C316.70721615 535.32567327 316.67847568 502.29584717 316.66543205 469.26598466 C316.66358011 464.60903106 316.66156023 459.95207754 316.65942955 455.29512405 C316.65901336 454.37928284 316.65859717 453.46344163 316.65816836 452.51984765 C316.65108363 437.85786389 316.62972749 423.19593487 316.60263307 408.53397586 C316.57578413 393.86608867 316.56328543 379.19824623 316.56550769 364.5303341 C316.56637288 355.84174658 316.5561208 347.15334051 316.52967303 338.46479231 C316.51309325 332.65494491 316.51122885 326.84520947 316.52099691 321.03534704 C316.52613396 317.73393322 316.52294 314.43312928 316.50614605 311.13171475 C316.39240754 287.47322559 318.84212241 265.8146368 333 246 C333.43699219 245.36578125 333.87398438 244.7315625 334.32421875 244.078125 C343.58762716 231.94945814 359.30868461 225.49787211 373.953125 223.24316406 C397.68124951 220.42431721 418.79909203 227.14917465 438 241 C441.88570339 244.0984789 445.42443589 247.554028 449 251 C450.30677214 252.09023572 451.61890618 253.17409216 452.9375 254.25 C476.04558204 274.49886702 492.58769599 304.29178584 506.92089844 331.00195312 C507.95293177 332.91284923 509.00761603 334.80915021 510.0703125 336.703125 C520.0820296 354.7119394 526.91175755 373.83301701 533.0625 393.4375 C533.80088233 395.76925104 534.53941129 398.10095564 535.27807617 400.43261719 C563.06278744 488.4611822 586.62567631 577.8155434 669.84374928 1264.79290417 C669.90707807 1266.97382958 669.97063847 1269.15474812 670.03427696 1271.33566451 C671.40737591 1318.3940189 672.64980467 1365.45476703 673.78125 1412.51953125 C673.79905628 1413.25979334 673.81686255 1414.00005543 673.83520842 1414.7627497 C674.45127842 1440.37908501 675.05685423 1465.99566826 675.66016465 1491.61230682 C676.17463951 1513.45650318 676.69219105 1535.30062245 677.21875 1557.14453125 C677.23649675 1557.88104931 677.25424349 1558.61756737 677.27252802 1559.37640417 C678.38407643 1605.4822482 679.63516996 1651.58276311 681.03387618 1697.68080065 C681.0968477 1699.75847904 681.15960432 1701.83616381 681.22228432 1703.91385102 C683.7494935 1787.66062061 687.42573606 1871.34062796 692 1955 C692.04903976 1955.89728065 692.09807953 1956.79456131 692.14860535 1957.71903229 C697.04705198 2047.18352493 703.03450954 2136.63256166 710.66482735 2225.90658569 C711.44894699 2235.0830803 712.17498995 2244.25605672 712.76098633 2253.44760132 C714.91225178 2287.13106951 722.10928212 2318.62033108 731.29170418 2350.95809841 C732.63497824 2355.69297126 733.95504232 2360.43383321 735.26074219 2365.17919922 C735.44730031 2365.8572014 735.63385843 2366.53520359 735.82606983 2367.2337513 C736.20321383 2368.60468834 736.58033129 2369.97563269 736.95742226 2371.34658432 C750.61302267 2420.94353359 765.52776388 2470.15464863 781.10412598 2519.18023682 C781.68105304 2520.99611457 782.25750643 2522.81214292 782.83337402 2524.62835693 C790.17530831 2547.78381831 798.00775845 2570.7462032 806.07354736 2593.65896606 C808.34059868 2600.10496894 810.58157311 2606.55959828 812.80859375 2613.01953125 C822.33872567 2640.64237708 832.24084866 2668.12002061 842.28027344 2695.56152344 C844.87688601 2702.66021888 847.46593263 2709.76165653 850.05340576 2716.86368752 C859.93343653 2743.98097732 869.85467196 2771.08232908 879.87527466 2798.14805603 C887.62583669 2819.08314617 895.32344533 2840.037669 903 2861 C903.34546875 2861.94317078 903.6909375 2862.88634155 904.046875 2863.85809326 C914.56977296 2892.59413203 924.90667151 2921.39375138 935.0411377 2950.26916504 C935.95928464 2952.88404287 936.87938016 2955.49822785 937.79980469 2958.11230469 C966.1324054 3038.68216207 985.86974 3141.94359351 955 3225 C954.75556152 3225.6604834 954.51112305 3226.3209668 954.25927734 3227.00146484 C946.5705012 3247.46469664 935.97066091 3266.18237668 922 3283 C921.51015625 3283.62519531 921.0203125 3284.25039062 920.515625 3284.89453125 C912.39470501 3295.00005809 900.64523511 3301.83538604 890 3309 C889.09878418 3309.6094043 888.19756836 3310.21880859 887.26904297 3310.84667969 C848.66086021 3336.93241058 808.40047278 3359.96254669 766.87493896 3381.04626465 C764.10733136 3382.45407859 761.34522214 3383.87260375 758.58203125 3385.2890625 C694.65660037 3417.87218251 625.83789184 3443.37008236 556.875 3463 C555.61389404 3463.3619043 554.35278809 3463.72380859 553.0534668 3464.09667969 C493.72609994 3480.64657499 436.49197959 3465.69913709 383.9453125 3436.4453125 C374.62603358 3431.1299166 365.80180769 3425.12236504 357 3419 C355.12898852 3417.70691221 353.25789298 3416.41394602 351.38671875 3415.12109375 C346.55940785 3411.77765642 341.74495327 3408.4161418 336.93359375 3405.04980469 C332.98276752 3402.28922404 329.02366132 3399.54063947 325.06469727 3396.79174805 C310.86659977 3386.9305497 296.72785145 3376.9973649 282.72924805 3366.85473633 C277.67849602 3363.19936433 272.59992608 3359.58638438 267.5 3356 C252.98624858 3345.78562415 238.66432271 3335.31309223 224.39111328 3324.76611328 C221.22020725 3322.42403301 218.04655382 3320.08569409 214.87255859 3317.74780273 C213.29054192 3316.58237185 211.7088362 3315.41651873 210.12744141 3314.25024414 C206.16194479 3311.32608808 202.19250348 3308.40759382 198.21484375 3305.5 C188.82795742 3298.62899856 179.57308865 3291.61705023 170.4140625 3284.4453125 C166.0528269 3281.03225539 161.65525768 3277.66843558 157.25 3274.3125 C144.92747794 3264.90961953 132.80789302 3255.27855499 120.80419922 3245.47216797 C119.21726954 3244.17728489 117.62651263 3242.88709522 116.03515625 3241.59765625 C105.8064407 3233.29151866 95.793251 3224.74990805 86.12402344 3215.79785156 C83.39515653 3213.27139555 80.6347718 3210.7964758 77.8125 3208.375 C57.3682264 3190.54962095 42.55487899 3167.38945335 30.97949219 3143.05810547 C30.33305807 3141.69982041 29.6801819 3140.34458016 29.02050781 3138.99267578 C15.9110581 3112.01068899 8.16128928 3081.64033066 4 3052 C3.67 3052 3.34 3052 3 3052 C3 3262.87 3 3473.74 3 3691 C322.11 3691 641.22 3691 970 3691 C970 2473.96 970 1256.92 970 3 C650.89 3 331.78 3 3 3 Z M355 266 C343.73213664 283.24195695 344.56208062 302.18500675 344.64560414 322.0405846 C344.6578187 325.74987906 344.65235311 329.45915678 344.64920336 333.16846424 C344.64607538 339.66218715 344.65400354 346.15582203 344.66930008 352.6495266 C344.69199703 362.3129976 344.69728303 371.9764243 344.69900675 381.63991904 C344.7023617 397.93526885 344.7194127 414.23057702 344.74394035 430.52590752 C344.77750384 452.92509788 344.79200928 475.32427249 344.80179507 497.7234844 C344.80641131 508.20723565 344.81200045 518.69098637 344.81788731 529.17473698 C344.81877123 530.74970973 344.81877123 530.74970973 344.81967301 532.35650012 C344.8339527 557.3624293 344.85809584 582.36834765 344.88354492 607.37426758 C344.8846551 608.46784247 344.88576528 609.56141736 344.88690909 610.68813089 C344.89589481 619.53804572 344.90491465 628.38796052 344.91398796 637.23787526 C344.93981203 662.427869 344.96361249 687.61786438 344.98608398 712.80786133 C344.98752504 714.41784996 344.98752504 714.41784996 344.98899521 716.06036362 C345.01106795 740.76655666 345.03087711 765.47274964 345.04531956 790.1789484 C345.04624414 791.7566102 345.04624414 791.7566102 345.0471874 793.36614395 C345.05332557 803.89892531 345.05917355 814.43170678 345.06455395 824.96448856 C345.07553152 846.27367089 345.09090713 867.58283012 345.11976433 888.89199638 C345.23414795 974.00315485 345.05925513 1059.08815858 343.19937376 1173.91759622 C343.03158333 1183.89013065 342.88031911 1193.86285395 342.73487663 1203.83573723 C342.71287874 1205.33547955 342.69086817 1206.83522168 342.6688448 1208.33496363 C342.54182391 1216.99306394 342.54182391 1216.99306394 342.41845299 1225.65121681 C342.08827596 1249.16151313 341.48495631 1272.65362526 340.65722656 1296.15130615 C340.52895821 1299.83943457 340.40734645 1303.52777134 340.28565407 1307.21612167 C337.95065902 1377.84406409 337.95065902 1377.84406409 335.74104309 1403.16288757 C335.04523471 1411.14205412 334.53513999 1419.12528028 334.0703125 1427.12109375 C333.99404129 1428.43120926 333.91777008 1429.74132477 333.83918762 1431.09114075 C333.72174641 1433.11506611 333.60461017 1435.1390082 333.48797321 1437.16298008 C331.9262009 1464.26202998 330.06935166 1491.31996495 327.80050659 1518.36997986 C326.8046638 1530.26074655 325.87313716 1542.15653134 324.9362793 1554.05206299 C322.76401777 1581.60272817 320.54134059 1609.14928879 318.29907227 1636.69433594 C318.04310838 1639.83919083 317.78717474 1642.98404818 317.53125 1646.12890625 C317.46770262 1646.90958843 317.40415524 1647.69027061 317.33868217 1648.49460983 C316.4539855 1659.36645921 315.57973269 1670.239099 314.71371651 1681.11245155 C311.47765292 1721.72394169 307.96405134 1762.30439842 304.27854919 1802.87747192 C302.88871418 1818.18538279 301.53037796 1833.49600323 300.18210983 1848.80762482 C300.00033689 1850.87117549 299.81833708 1852.93470603 299.63626099 1854.99822998 C298.23640181 1870.86434676 296.8479581 1886.73142386 295.47132683 1902.59957314 C294.79449776 1910.39981221 294.11643195 1918.19994369 293.4375 1926 C293.3255876 1927.28578886 293.3255876 1927.28578886 293.21141434 1928.59755325 C291.20103162 1951.68327532 289.11125041 1974.75803095 286.84790039 1997.82055664 C285.66661394 2009.88884596 284.54158664 2021.96106374 283.46484375 2034.0390625 C283.39886175 2034.77885283 283.33287975 2035.51864315 283.2648983 2036.28085136 C282.61283653 2043.59690577 281.96444466 2050.91327509 281.32227612 2058.23020458 C280.02089661 2073.04437588 278.62536562 2087.84308481 277.06169128 2102.63215637 C276.17749369 2111.07124305 275.42512412 2119.51394573 274.74446106 2127.97160339 C273.83897567 2139.1634121 272.75989361 2150.33784134 271.68389893 2161.51434326 C271.30099602 2165.49458277 270.92039751 2169.47503663 270.54052734 2173.45556641 C269.2963487 2186.48750777 268.04683092 2199.51892837 266.79160595 2212.54981041 C266.13790071 2219.33874588 265.48739397 2226.12798412 264.83884144 2232.91741371 C264.3676533 2237.84806849 263.89271979 2242.77834348 263.41500759 2247.70837021 C263.11692426 2250.79410167 262.82244426 2253.88016941 262.52893639 2256.96633911 C262.39203215 2258.39828688 262.25367444 2259.83009659 262.11371803 2261.26174927 C261.92095778 2263.23580157 261.7340509 2265.21042274 261.54736328 2267.18505859 C261.44110626 2268.28965424 261.33484924 2269.39424988 261.22537231 2270.53231812 C260.95579619 2274.68014007 261 2278.8434271 261 2283 C401.25 2283 541.5 2283 686 2283 C686.07218611 2273.14910233 686.07218611 2273.14910233 685.56030273 2263.42236328 C685.46251526 2262.28497208 685.36472778 2261.14758087 685.26397705 2259.97572327 C685.15495056 2258.76943771 685.04592407 2257.56315216 684.93359375 2256.3203125 C684.81754831 2254.98418016 684.70215322 2253.64799122 684.58734131 2252.31175232 C684.33912374 2249.43011042 684.08818628 2246.54872516 683.83505249 2243.66751099 C683.13869768 2235.72900713 682.46527798 2227.78855683 681.796875 2219.84765625 C681.72542456 2218.99964132 681.65397411 2218.1516264 681.58035851 2217.27791405 C679.33522626 2190.54492162 677.43202811 2163.78508486 675.49770546 2137.02817059 C675.20712323 2133.01090438 674.91551668 2128.99371273 674.62393951 2124.97651863 C674.42354534 2122.20600438 674.22530125 2119.4353425 674.02728271 2116.66465759 C673.90522773 2114.97638404 673.78310052 2113.28811572 673.66088867 2111.59985352 C673.60844214 2110.85685061 673.55599562 2110.11384769 673.5019598 2109.34832954 C673.17881805 2104.91672594 672.73405426 2100.51124138 672.22858334 2096.09688854 C671.92090449 2093.27442451 671.71725106 2090.45068127 671.53295898 2087.61767578 C671.45594254 2086.44880829 671.37892609 2085.2799408 671.29957581 2084.07565308 C671.22005173 2082.83639069 671.14052765 2081.5971283 671.05859375 2080.3203125 C670.97266464 2079.00491486 670.88673553 2077.68951721 670.79820251 2076.33425903 C670.57364766 2072.89496095 670.3516254 2069.45550402 670.13014984 2066.01600647 C669.92593093 2062.8526784 669.71887913 2059.68953579 669.51220703 2056.52636719 C669.02063288 2048.97643483 668.5390217 2041.42589656 668.0625 2033.875 C668.02004402 2033.20304974 667.97758804 2032.53109947 667.93384552 2031.83878708 C666.44386973 2008.22959693 665.15681531 1984.61570422 664.03930664 1960.98583984 C663.49028971 1949.43647552 662.88583695 1937.89467817 662.16318321 1926.35473442 C660.9050194 1906.24662508 659.96967824 1886.12659479 659.0625 1866 C658.97578353 1864.08280325 658.88904204 1862.16560762 658.80227661 1860.24841309 C658.31805604 1849.53838532 657.83905963 1838.82813209 657.36295795 1828.11774063 C657.1045854 1822.3158941 656.84119525 1816.51430209 656.57324219 1810.71289062 C654.22442787 1759.78447892 652.91292436 1708.83642406 651.65859795 1657.87065315 C651.21461979 1639.87932365 650.71647494 1621.88991533 650.19116402 1603.90081406 C648.91242875 1560.09330075 647.824758 1516.28123139 646.74211842 1472.4684971 C646.55485192 1464.89409281 646.36639902 1457.31971873 646.17724609 1449.74536133 C645.08899046 1406.16444713 644.02223414 1362.58341632 643.06311035 1318.99944878 C642.36925718 1287.47155788 641.62530108 1255.94854711 640.5915947 1224.42957306 C640.49575355 1221.49497645 640.40150025 1218.56033224 640.30764771 1215.62567139 C638.60484882 1159.54840156 638.60484882 1159.54840156 635.74975586 1103.52197266 C635.08885275 1092.96173582 634.59162472 1082.39827472 634.125 1071.82778931 C633.53279097 1058.43065036 632.92032991 1045.05172176 631.77507019 1031.68782043 C631.20769638 1024.9516027 630.77056011 1018.21713087 630.39530945 1011.46768188 C629.36171641 993.24664436 627.64980628 975.12725781 625.70581055 956.98291016 C625.27299553 952.94228807 624.85271103 948.90047541 624.43566895 944.85819912 C622.44889184 925.66105771 620.05621418 906.5716719 617.12963867 887.49487305 C616.0180901 880.23901173 615.05331294 872.96877434 614.125 865.6875 C609.50969984 830.34289908 603.42298146 795.27874367 596.63726807 760.29248047 C595.97283926 756.85967254 595.31285156 753.42603329 594.65380859 749.9921875 C589.47641286 723.0356018 584.16014849 696.14635367 577.81396484 669.43847656 C576.65662095 664.54944497 575.54503622 659.65050593 574.4375 654.75 C574.24172363 653.89148438 574.04594727 653.03296875 573.84423828 652.1484375 C572.74037554 647.30405702 571.65946492 642.45534016 570.59765625 637.6015625 C566.80720273 620.39120933 562.64617413 603.28454269 558.375 586.1875 C558.09736816 585.07356873 557.81973633 583.95963745 557.53369141 582.81195068 C554.20788977 569.48541639 550.73710237 556.21685135 547 543 C546.01243303 539.41893981 545.03687647 535.83466852 544.0625 532.25 C543.81435547 531.33935791 543.56621094 530.42871582 543.31054688 529.49047852 C542.03560073 524.81099261 540.76411859 520.13058472 539.49609375 515.44921875 C536.10231749 502.93522261 532.60382073 490.45511878 529 478 C528.56421631 476.49324707 528.56421631 476.49324707 528.11962891 474.95605469 C527.20667966 471.80347338 526.2913978 468.6515805 525.375 465.5 C525.09793213 464.54561035 524.82086426 463.5912207 524.53540039 462.60791016 C522.62589778 456.06120562 520.64307672 449.53933629 518.6260376 443.02502441 C517.91508765 440.72533664 517.20719244 438.42471933 516.49951172 436.12402344 C512.63276688 423.55978269 508.72900117 411.00746202 504.77789307 398.46948242 C504.30123607 396.95629749 503.82541035 395.44285001 503.35101318 393.92895508 C496.08018294 370.73364939 485.3603177 348.90240766 473 328 C472.27393555 326.76805908 472.27393555 326.76805908 471.53320312 325.51123047 C460.70678217 307.27492304 448.8432111 290.19195028 434 275 C432.97712891 273.88431641 432.97712891 273.88431641 431.93359375 272.74609375 C421.24742081 261.34602199 407.21111185 252.53531941 391.38671875 251.62890625 C376.54526486 251.24076194 364.94569698 254.10990205 355 266 Z M254 2306 C244.18418264 2336.07248499 244.18418264 2336.07248499 234.95703125 2366.32788086 C231.41402545 2378.47353871 227.67914429 2390.56302787 223.94921875 2402.65234375 C223.6035083 2403.77326416 223.25779785 2404.89418457 222.90161133 2406.04907227 C222.24502875 2408.17621246 221.58741391 2410.30303447 220.9284668 2412.42944336 C219.13883306 2418.22393673 217.39739682 2424.03079751 215.6953125 2429.8515625 C212.25809353 2441.59722106 208.6599848 2453.2940796 205.08398438 2464.99804688 C201.92105138 2475.35377396 198.77476917 2485.71222726 195.7388916 2496.10597229 C193.74563905 2502.91025943 191.62582673 2509.67359052 189.5 2516.4375 C187.00054793 2524.42753488 184.5439393 2532.41357804 182.375 2540.5 C180.41946281 2547.77852128 178.0835377 2554.89666335 175.66015625 2562.03173828 C173.60345113 2568.11131391 171.69210353 2574.21976108 169.875 2580.375 C167.77294111 2587.49514483 165.52374763 2594.54231257 163.14453125 2601.57421875 C161.71095526 2605.86516123 160.38769071 2610.18515984 159.06640625 2614.51171875 C154.67608968 2628.87271764 149.99329108 2643.13107498 145.22412109 2657.36987305 C144.68324125 2658.98485424 144.14238922 2660.59984476 143.6015625 2662.21484375 C143.18123245 2663.4698896 143.18123245 2663.4698896 142.75241089 2664.75028992 C140.76164821 2670.7022542 138.78980094 2676.66028161 136.82565308 2682.62107849 C121.30455742 2729.72295303 105.52440285 2777.3532199 84.0234375 2822.15234375 C77.44496217 2836.02412618 72.94053879 2850.64578087 68.20802307 2865.22286987 C66.17856346 2871.4732039 64.10558951 2877.70846514 62.01571655 2883.93884277 C58.29404414 2895.05431467 54.99241832 2906.29722156 51.71525574 2917.5500946 C51.25132362 2919.1391623 50.78546667 2920.72766978 50.31733704 2922.31550598 C46.48757848 2935.31205771 43.08640346 2948.37068588 40.01245117 2961.56616211 C39.31153139 2964.5666464 38.59658926 2967.56356533 37.88085938 2970.56054688 C33.8668576 2987.56155206 30.40909995 3004.39180078 30.75 3021.9375 C30.75515625 3023.02611328 30.7603125 3024.11472656 30.765625 3025.23632812 C30.8613741 3035.31990526 31.21664482 3045.43744486 33.375 3055.3125 C34.17437249 3059.03410681 34.95725715 3062.72736166 35.546875 3066.48828125 C41.11422314 3101.50991044 56.00753019 3138.02973983 78 3166 C78.41685059 3166.53109375 78.83370117 3167.0621875 79.26318359 3167.609375 C88.95156147 3179.7928521 100.06797386 3191.01293783 112 3201 C113.04540445 3201.89581419 114.08955289 3202.7930951 115.1328125 3203.69140625 C118.14950236 3206.28872427 121.17346304 3208.87736907 124.20068359 3211.46240234 C125.3608226 3212.45379386 126.52007095 3213.44622904 127.67822266 3214.43994141 C135.37862987 3221.04658027 143.23610145 3227.40794509 151.24707031 3233.63378906 C152.96929777 3234.97607108 154.68503274 3236.32616694 156.3984375 3237.6796875 C164.87588954 3244.37529345 173.44374325 3250.94763934 182.03369141 3257.49804688 C184.77871229 3259.59481475 187.51447751 3261.703352 190.25 3263.8125 C192.49933489 3265.54254051 194.74927271 3267.27177311 197 3269 C197.7842334 3269.60247559 198.5684668 3270.20495117 199.37646484 3270.82568359 C212.93290003 3281.23730061 212.93290003 3281.23730061 226.76245117 3291.2800293 C231.64135219 3294.72433766 236.44842224 3298.26136829 241.25 3301.8125 C249.71051139 3308.06496439 258.22347837 3314.24098005 266.76171875 3320.38671875 C269.02066207 3322.01489256 271.27642661 3323.64737625 273.53125 3325.28125 C282.93711258 3332.09462677 292.39073316 3338.83522923 301.89111328 3345.51611328 C305.43041181 3348.00648796 308.96490644 3350.503662 312.5 3353 C313.92447454 3354.00521488 315.3489537 3355.01042323 316.7734375 3356.015625 C319.5301659 3357.96140209 322.28529847 3359.90940513 325.0390625 3361.859375 C341.66410337 3373.62537256 358.36403293 3385.2923025 375.1953125 3396.76171875 C376.96241043 3397.97420803 378.71607633 3399.20428391 380.46875 3400.4375 C419.62466685 3427.66216033 471.52776811 3449.90342212 520.25 3442.25 C522.16997472 3441.84885254 524.0863798 3441.43044156 526 3441 C527.3873395 3440.73726188 528.77543304 3440.47848906 530.1640625 3440.22265625 C541.63496861 3438.0478522 552.55188062 3434.75224505 563.62548828 3431.09521484 C567.43668415 3429.85827195 571.26091671 3428.66892294 575.08984375 3427.48828125 C621.47944813 3413.16606915 666.68066827 3395.81306515 711 3376 C711.93761169 3375.58131653 711.93761169 3375.58131653 712.89416504 3375.1541748 C741.74090119 3362.2499245 770.29548242 3348.30261176 797.60351562 3332.38183594 C800.64439296 3330.62843682 803.72033181 3328.94444969 806.80175781 3327.26367188 C832.53800472 3313.20077374 857.37670763 3297.10361854 881.32421875 3280.18359375 C882.97088419 3279.02056431 884.62600656 3277.8695383 886.28125 3276.71875 C915.10076212 3256.050211 929.80230928 3219.54024184 935.66479492 3185.61279297 C936.13021204 3182.74458837 936.5707203 3179.873829 937 3177 C937.15098145 3176.00790527 937.30196289 3175.01581055 937.45751953 3173.99365234 C940.10982095 3155.97116408 940.42163243 3138.1894125 940 3120 C939.96084473 3118.25807373 939.96084473 3118.25807373 939.92089844 3116.48095703 C939.19260005 3087.24118749 939.19260005 3087.24118749 934.7109375 3058.40625 C933.98307869 3054.91892647 933.53265956 3051.47567728 933.125 3047.9375 C931.33493629 3033.93716428 927.76563686 3020.24630457 923.8046875 3006.71875 C923.50165207 3005.68355728 923.19861664 3004.64836456 922.88639832 3003.58180237 C919.63759746 2992.60555275 916.02366606 2981.76466658 912.3125 2970.9375 C911.95306305 2969.88396332 911.5936261 2968.83042664 911.22329712 2967.7449646 C903.40968335 2944.86240547 895.15571864 2922.14395104 886.82679749 2899.44488525 C883.86368595 2891.36779367 880.91975115 2883.28393891 877.98828125 2875.1953125 C868.46178254 2848.91523975 858.83085234 2822.67619308 849.10676575 2796.46861267 C848.69641586 2795.36264236 848.28606598 2794.25667206 847.86328125 2793.1171875 C847.45506638 2792.01697769 847.0468515 2790.91676788 846.62626648 2789.78321838 C820.67874891 2719.82698952 795.34616239 2649.65136197 771.0668335 2579.09832764 C770.0206734 2576.06004026 768.97278126 2573.02235601 767.92431641 2569.98486328 C766.30640795 2565.29687273 764.69263897 2560.60747858 763.08233643 2555.91687012 C762.4993392 2554.22009013 761.91520778 2552.52369928 761.32977295 2550.82775879 C758.0205576 2541.2353991 754.91922125 2531.61654321 752.12036133 2521.86230469 C750.39748003 2515.86613851 748.49812092 2509.92422742 746.62060547 2503.97509766 C746.00309734 2502.00985738 745.39292574 2500.04249076 744.78515625 2498.07421875 C742.85039272 2491.81956854 740.87290435 2485.58731277 738.76757812 2479.38769531 C736.01739074 2471.28059078 733.58566291 2463.13860858 731.33984375 2454.87890625 C729.82993879 2449.33877804 728.23281926 2443.82489685 726.625 2438.3125 C726.33077148 2437.30300293 726.03654297 2436.29350586 725.73339844 2435.25341797 C723.94095953 2429.13329747 722.0964313 2423.03117019 720.21777344 2416.93701172 C717.55128242 2408.28601738 715.07291174 2399.65099927 712.94921875 2390.8515625 C711.93411964 2386.732683 710.82957575 2382.64756475 709.6875 2378.5625 C709.48020264 2377.8197583 709.27290527 2377.0770166 709.05932617 2376.31176758 C707.8549777 2372.01258119 706.6341513 2367.71829505 705.40625 2363.42578125 C700.55495652 2346.34702306 696.31383762 2329.2553505 692 2312 C547.79 2312 403.58 2312 255 2312 C255 2310.02 255 2308.04 255 2306 C254.67 2306 254.34 2306 254 2306 Z " fill="#000000" transform="translate(0,0)"/>
<path d="M0 0 C321.09 0 642.18 0 973 0 C973 1219.02 973 2438.04 973 3694 C651.91 3694 330.82 3694 0 3694 C0 2474.98 0 1255.96 0 0 Z M3 3 C2.9124628 220.37556842 2.9124628 220.37556842 2.82616145 437.75113733 C2.82545536 439.54670618 2.82474927 441.34227503 2.82404317 443.13784388 C2.82368912 444.03821861 2.82333507 444.93859334 2.82297029 445.86625215 C2.82186707 448.67151021 2.8207635 451.47676826 2.81965982 454.28202631 C2.7798388 555.49963474 2.74076141 656.71724342 2.67281615 839.57116612 C2.67164518 842.73837378 2.67047393 845.90558144 2.66930261 849.07278911 C2.6360626 938.95332594 2.60306442 1028.83386285 2.57038688 1118.71439989 C2.5691754 1122.04661159 2.56796391 1125.37882329 2.5667524 1128.71103499 C2.56635226 1129.81160576 2.56595213 1130.91217653 2.56553987 1132.04609794 C2.55050258 1173.40429662 2.53541048 1214.76249528 2.52028555 1256.12069394 C2.51864294 1260.61243203 2.51700097 1265.10417013 2.51535956 1269.59590823 C2.47693491 1374.74431876 2.43757426 1479.8927288 2.39489746 1585.0411377 C2.39423185 1586.68134166 2.39423185 1586.68134166 2.3935528 1588.35468106 C2.37880945 1624.68169685 2.36396832 1661.00871261 2.34911357 1697.33572836 C2.33568694 1730.17103905 2.3222957 1763.00634975 2.30902004 1795.8416605 C2.30858333 1796.92177807 2.30814661 1798.00189564 2.30769666 1799.11474404 C2.28004463 1867.52848339 2.25394702 1935.94222321 2.22931767 2004.35596371 C2.22893284 2005.42435053 2.22854802 2006.49273735 2.22815154 2007.59349952 C2.21119199 2054.68182675 2.19454494 2101.77015408 2.17824754 2148.85848154 C2.17167246 2167.85185141 2.16505184 2186.84522126 2.15840613 2205.8385911 C2.1573053 2208.98583768 2.15620596 2212.13308426 2.15510677 2215.28033085 C2.13404192 2275.55619189 2.11003148 2335.83205106 2.08341022 2396.1079099 C2.0415672 2490.87598731 2.00509874 2585.64406532 1.97904582 2680.41214849 C1.97827266 2683.21668632 1.97749278 2686.02122414 1.97671095 2688.82576197 C1.95148365 2779.43465153 1.93628291 2870.04354897 2.21204633 3224.07580323 C2.21579007 3226.85861339 2.21951641 3229.64142357 2.22323606 3232.42423376 C2.22445423 3233.33489798 2.22567239 3234.2455622 2.22692747 3235.18382231 C2.22914358 3236.84092331 2.23135736 3238.49802431 2.23356758 3240.15512531 C2.43476418 3390.43683719 2.72954394 3540.71840298 3 3691 C322.11 3691 641.22 3691 970 3691 C970 2473.96 970 1256.92 970 3 C650.89 3 331.78 3 3 3 Z " fill="#FDFDFD" transform="translate(0,0)"/>
<path d="M0 0 C1.18335938 0.26554687 2.36671875 0.53109375 3.5859375 0.8046875 C11.70854445 2.62192543 19.82750817 4.41822739 28 6 C26.71398626 15.10282578 25.03404792 24.09106218 23.14294434 33.08325195 C22.51641691 36.06391713 21.89821234 39.04629211 21.27938843 42.02856445 C20.81312285 44.27505357 20.34579056 46.52131909 19.87841797 48.76757812 C15.21837735 70.98441095 15.21837735 70.98441095 11.40332031 93.35693359 C11.11127378 95.27079303 10.80396938 97.18234469 10.48730469 99.09228516 C7.72384518 115.92228593 6.61671015 132.33272505 6.625 149.375 C6.62327789 150.27757538 6.62155579 151.18015076 6.61978149 152.1100769 C6.62320651 167.93311691 7.99333047 183.30755514 11.15234375 198.8359375 C11.28882324 199.50850586 11.42530273 200.18107422 11.56591797 200.87402344 C11.70916504 201.5755957 11.85241211 202.27716797 12 203 C12.15227051 203.75571289 12.30454102 204.51142578 12.46142578 205.29003906 C13.43856923 210.12307206 14.45389848 214.94634702 15.51025391 219.76269531 C15.94616214 221.75405276 16.37039204 223.74795848 16.79296875 225.7421875 C21.24001016 245.15884717 28.48233041 264.1066924 36.30737305 282.38720703 C36.83971558 283.63800049 36.83971558 283.63800049 37.3828125 284.9140625 C37.69621582 285.6354541 38.00961914 286.3568457 38.33251953 287.10009766 C39 289 39 289 39 292 C35.04490505 294.00645249 31.08540979 296.00406136 27.125 298 C25.99707031 298.57234375 24.86914062 299.1446875 23.70703125 299.734375 C22.63066406 300.27578125 21.55429687 300.8171875 20.4453125 301.375 C18.95281982 302.12910156 18.95281982 302.12910156 17.43017578 302.8984375 C15 304 15 304 13 304 C-5.86838479 258.69143421 -5.86838479 258.69143421 -10.09985352 239.87353516 C-10.95005698 236.21491619 -11.90902024 232.60807986 -12.91015625 228.98828125 C-14.98513747 221.32636483 -16.620992 213.60708114 -18.125 205.8125 C-18.37636719 204.56919922 -18.62773437 203.32589844 -18.88671875 202.04492188 C-22.22330217 184.88160664 -23.4420368 167.65481701 -23.4375 150.1875 C-23.4385675 149.29491486 -23.43963501 148.40232971 -23.44073486 147.48269653 C-23.40718225 127.72391287 -21.19487998 108.47469234 -18 89 C-17.82600677 87.93673492 -17.82600677 87.93673492 -17.64849854 86.85198975 C-16.07348677 77.30586488 -14.29240341 67.80368834 -12.44586182 58.30688477 C-11.78955994 54.91118515 -11.14718135 51.51287478 -10.50343323 48.11477661 C-9.80521748 44.43600897 -9.10076288 40.75845664 -8.3944397 37.08123779 C-8.05428506 35.30906029 -7.71535077 33.53664801 -7.3777771 31.76397705 C-5.32975939 21.04140487 -2.98461458 10.5043441 0 0 Z " fill="#020202" transform="translate(279,2781)"/>
<path d="M0 0 C4.43012621 12.37168887 7.79515569 24.99456424 11.13134766 37.69726562 C11.94880958 40.80536707 12.77575968 43.91077444 13.60546875 47.015625 C20.77708344 73.98098741 26.69461024 101.2758534 30.69140625 128.90185547 C30.98483612 130.89689998 31.30422172 132.88807602 31.625 134.87890625 C34.64809372 155.34776996 33.01776979 175.63896468 30 196 C29.83371094 197.15741699 29.66742187 198.31483398 29.49609375 199.50732422 C27.35400044 214.18661366 24.58021852 228.61183895 21 243 C20.83859528 243.65469269 20.67719055 244.30938538 20.51089478 244.98391724 C18.21409841 254.22290137 15.34654184 263.09874733 12 272 C7.79306237 271.47385053 3.93188693 270.80558027 -0.05859375 269.37109375 C-0.93837891 269.05849609 -1.81816406 268.74589844 -2.72460938 268.42382812 C-3.61986328 268.09833984 -4.51511719 267.77285156 -5.4375 267.4375 C-6.82098633 266.9434668 -6.82098633 266.9434668 -8.23242188 266.43945312 C-10.4904648 265.63217353 -12.74615565 264.81891273 -15 264 C-14.22102781 258.67159123 -12.93314121 253.52647122 -11.6015625 248.31640625 C-11.11712542 246.39910423 -10.63275255 244.48178598 -10.1484375 242.56445312 C-9.39059766 239.5762526 -8.63158218 236.58835765 -7.87109375 233.60083008 C7.14619967 174.52920568 1.04210949 124.17928454 -12.5 65.6875 C-12.72107422 64.72328125 -12.94214844 63.7590625 -13.16992188 62.765625 C-15.87344385 51.02094793 -18.9153321 39.46452797 -22.61486816 27.99015808 C-24.60604972 21.7209248 -25.96797169 15.49578526 -27 9 C-21.22954289 6.63417961 -15.42474981 4.37901879 -9.5625 2.25 C-8.38816406 1.82203125 -7.21382812 1.3940625 -6.00390625 0.953125 C-3 0 -3 0 0 0 Z " fill="#030303" transform="translate(650,2786)"/>
</svg>
