<?xml version="1.0" encoding="UTF-8"?>
<!DOCTYPE svg PUBLIC "-//W3C//DTD SVG 1.1//EN" "http://www.w3.org/Graphics/SVG/1.1/DTD/svg11.dtd">
<svg xmlns="http://www.w3.org/2000/svg" version="1.1" width="938px" height="3694px" style="shape-rendering:geometricPrecision; text-rendering:geometricPrecision; image-rendering:optimizeQuality; fill-rule:evenodd; clip-rule:evenodd" xmlns:xlink="http://www.w3.org/1999/xlink">
<g><path style="opacity:0.77" fill="#fdfdfd" d="M -0.5,-0.5 C 312.167,-0.5 624.833,-0.5 937.5,-0.5C 937.5,1230.83 937.5,2462.17 937.5,3693.5C 624.833,3693.5 312.167,3693.5 -0.5,3693.5C -0.5,2462.17 -0.5,1230.83 -0.5,-0.5 Z M 934.5,570.5 C 924.999,520.17 904.166,475.17 872,435.5C 824.286,388.092 772.786,345.592 717.5,308C 688.345,287.92 658.679,268.587 628.5,250C 605.342,237.061 581.009,227.061 555.5,220C 519.48,215.004 486.813,223.337 457.5,245C 347.363,331.773 241.363,423.773 139.5,521C 113.907,545.59 89.4074,571.09 66,597.5C 35.6413,634.567 16.308,676.9 8,724.5C 5.27617,741.893 3.44283,759.227 2.5,776.5C 2.5,518.5 2.5,260.5 2.5,2.5C 313.167,2.5 623.833,2.5 934.5,2.5C 934.5,191.833 934.5,381.167 934.5,570.5 Z M 934.5,610.5 C 934.5,1637.17 934.5,2663.83 934.5,3690.5C 623.833,3690.5 313.167,3690.5 2.5,3690.5C 2.5,2730.5 2.5,1770.5 2.5,810.5C 11.641,903.334 28.141,995.001 52,1085.5C 60.703,1113.61 71.3697,1140.94 84,1167.5C 122.709,1245.3 166.709,1319.63 216,1390.5C 226.055,1635.65 243.055,1880.32 267,2124.5C 273.025,2180.67 280.358,2236.67 289,2292.5C 303.225,2380.85 317.558,2469.18 332,2557.5C 342.681,2629.76 347.681,2702.43 347,2775.5C 346.872,2866.5 346.872,2957.5 347,3048.5C 349.275,3149.52 352.275,3250.52 356,3351.5C 358.607,3378.27 366.607,3403.27 380,3426.5C 399.013,3457.59 426.513,3470.09 462.5,3464C 480.067,3457.79 494.567,3447.29 506,3432.5C 525.996,3404.19 542.662,3373.86 556,3341.5C 575.448,3293.82 592.115,3245.16 606,3195.5C 643.083,3056.08 672.75,2915.08 695,2772.5C 725.425,2576.58 745.092,2379.58 754,2181.5C 755.295,2104.5 754.628,2027.5 752,1950.5C 745.704,1760.11 738.371,1569.78 730,1379.5C 788.333,1186.17 846.667,992.833 905,799.5C 918.326,736.89 928.159,673.89 934.5,610.5 Z"/></g>
<g><path style="opacity:0.981" fill="#010101" d="M 934.5,570.5 C 934.5,583.833 934.5,597.167 934.5,610.5C 928.159,673.89 918.326,736.89 905,799.5C 846.667,992.833 788.333,1186.17 730,1379.5C 738.371,1569.78 745.704,1760.11 752,1950.5C 754.628,2027.5 755.295,2104.5 754,2181.5C 745.092,2379.58 725.425,2576.58 695,2772.5C 672.75,2915.08 643.083,3056.08 606,3195.5C 592.115,3245.16 575.448,3293.82 556,3341.5C 542.662,3373.86 525.996,3404.19 506,3432.5C 494.567,3447.29 480.067,3457.79 462.5,3464C 426.513,3470.09 399.013,3457.59 380,3426.5C 366.607,3403.27 358.607,3378.27 356,3351.5C 352.275,3250.52 349.275,3149.52 347,3048.5C 346.872,2957.5 346.872,2866.5 347,2775.5C 347.681,2702.43 342.681,2629.76 332,2557.5C 317.558,2469.18 303.225,2380.85 289,2292.5C 280.358,2236.67 273.025,2180.67 267,2124.5C 243.055,1880.32 226.055,1635.65 216,1390.5C 166.709,1319.63 122.709,1245.3 84,1167.5C 71.3697,1140.94 60.703,1113.61 52,1085.5C 28.141,995.001 11.641,903.334 2.5,810.5C 2.5,799.167 2.5,787.833 2.5,776.5C 3.44283,759.227 5.27617,741.893 8,724.5C 16.308,676.9 35.6413,634.567 66,597.5C 89.4074,571.09 113.907,545.59 139.5,521C 241.363,423.773 347.363,331.773 457.5,245C 486.813,223.337 519.48,215.004 555.5,220C 581.009,227.061 605.342,237.061 628.5,250C 658.679,268.587 688.345,287.92 717.5,308C 772.786,345.592 824.286,388.092 872,435.5C 904.166,475.17 924.999,520.17 934.5,570.5 Z"/></g>
<g><path style="opacity:1" fill="#fefefe" d="M 529.5,246.5 C 543.345,246.643 556.678,249.477 569.5,255C 588.686,262.926 607.352,271.926 625.5,282C 684.397,319.565 741.064,360.232 795.5,404C 812.6,418.43 829.1,433.597 845,449.5C 876.064,485.295 896.064,526.628 905,573.5C 905.935,598.615 904.602,623.615 901,648.5C 894.337,697.143 886.004,745.476 876,793.5C 817.652,985.708 759.819,1178.04 702.5,1370.5C 547.499,1370.83 392.499,1370.5 237.5,1369.5C 192.805,1305.48 152.638,1238.48 117,1168.5C 96.1812,1126.71 80.5145,1083.05 70,1037.5C 52.801,963.972 40.4676,889.639 33,814.5C 28.3225,764.236 35.6558,715.903 55,669.5C 62.9118,652.661 72.5785,636.995 84,622.5C 117.74,584.425 153.24,547.925 190.5,513C 282.185,427.88 376.852,346.547 474.5,269C 491.116,257.016 509.449,249.516 529.5,246.5 Z"/></g>
<g><path style="opacity:1" fill="#bdbdbd" d="M 246.5,1400.5 C 397.999,1399.5 549.666,1399.17 701.5,1399.5C 701.5,1404.83 701.5,1410.17 701.5,1415.5C 700.513,1410.69 700.179,1405.69 700.5,1400.5C 549.167,1400.5 397.833,1400.5 246.5,1400.5 Z"/></g>
<g><path style="opacity:1" fill="#fefefe" d="M 246.5,1400.5 C 397.833,1400.5 549.167,1400.5 700.5,1400.5C 700.179,1405.69 700.513,1410.69 701.5,1415.5C 712.409,1627.38 720.242,1839.38 725,2051.5C 726.44,2120.23 725.107,2188.89 721,2257.5C 712.54,2385.51 700.54,2513.18 685,2640.5C 665.029,2785.98 639.029,2930.31 607,3073.5C 589.745,3149.44 568.078,3224.11 542,3297.5C 527.299,3337.24 508.632,3374.9 486,3410.5C 478.704,3420.13 469.87,3427.97 459.5,3434C 437.519,3439.78 420.019,3433.28 407,3414.5C 394.885,3394.15 387.551,3372.15 385,3348.5C 381.471,3248.18 378.471,3147.85 376,3047.5C 376.025,2942.83 376.025,2838.17 376,2733.5C 375.205,2699.12 373.539,2664.79 371,2630.5C 367.041,2597.45 362.708,2564.45 358,2531.5C 341.515,2434.95 325.848,2338.28 311,2241.5C 295.965,2127.52 284.298,2013.18 276,1898.5C 263.177,1732.67 253.343,1566.67 246.5,1400.5 Z"/></g>
</svg>
