<?xml version="1.0" encoding="UTF-8"?>
<!DOCTYPE svg PUBLIC "-//W3C//DTD SVG 1.1//EN" "http://www.w3.org/Graphics/SVG/1.1/DTD/svg11.dtd">
<svg xmlns="http://www.w3.org/2000/svg" version="1.1" width="938px" height="3694px" style="shape-rendering:geometricPrecision; text-rendering:geometricPrecision; image-rendering:optimizeQuality; fill-rule:evenodd; clip-rule:evenodd" xmlns:xlink="http://www.w3.org/1999/xlink">
<g><path style="opacity:0.774" fill="#fdfdfd" d="M -0.5,-0.5 C 312.167,-0.5 624.833,-0.5 937.5,-0.5C 937.5,1230.83 937.5,2462.17 937.5,3693.5C 624.833,3693.5 312.167,3693.5 -0.5,3693.5C -0.5,2462.17 -0.5,1230.83 -0.5,-0.5 Z M 934.5,571.5 C 925.004,519.824 903.504,473.824 870,433.5C 823.995,388.136 774.495,347.303 721.5,311C 689.706,289.213 657.372,268.213 624.5,248C 602.249,235.917 578.915,226.584 554.5,220C 520.245,215.526 488.911,223.192 460.5,243C 345.397,333.737 234.731,430.071 128.5,532C 100.449,558.706 74.616,587.206 51,617.5C 19.5032,665.82 3.33653,718.82 2.5,776.5C 2.5,518.167 2.5,259.833 2.5,1.5C 313.167,1.5 623.833,1.5 934.5,1.5C 934.5,191.5 934.5,381.5 934.5,571.5 Z M 934.5,610.5 C 934.5,1637.17 934.5,2663.83 934.5,3690.5C 623.833,3690.5 313.167,3690.5 2.5,3690.5C 2.5,2730.5 2.5,1770.5 2.5,810.5C 11.6284,902.259 27.795,992.926 51,1082.5C 65.9999,1130.16 85.6666,1175.83 110,1219.5C 140.621,1274.75 173.621,1328.42 209,1380.5C 219.727,1403.62 230.727,1426.62 242,1449.5C 242.484,1451.91 242.15,1454.25 241,1456.5C 231.412,1474.93 225.246,1494.43 222.5,1515C 223.438,1534.55 232.105,1549.55 248.5,1560C 254.918,1563.96 261.418,1567.79 268,1571.5C 269.222,1604.83 269.555,1638.16 269,1671.5C 241.674,1681.49 224.007,1700.49 216,1728.5C 208.834,1752.49 212.167,1774.83 226,1795.5C 237.739,1808.7 252.406,1816.37 270,1818.5C 270.667,1837.17 270.667,1855.83 270,1874.5C 255.537,1885.29 243.537,1898.29 234,1913.5C 214.755,1957.76 227.089,1990.09 271,2010.5C 272.593,2024.11 272.926,2037.78 272,2051.5C 242.614,2064.89 227.114,2087.89 225.5,2120.5C 227.704,2152.92 243.37,2176.25 272.5,2190.5C 273.666,2207.16 273.833,2223.82 273,2240.5C 257.896,2250.54 245.562,2263.2 236,2278.5C 220.468,2308.57 223.135,2336.91 244,2363.5C 252.627,2373.38 262.46,2381.71 273.5,2388.5C 274.654,2401.82 275.154,2415.16 275,2428.5C 232.408,2450.03 213.741,2484.36 219,2531.5C 227.587,2560.59 246.753,2577.92 276.5,2583.5C 283.02,2626.6 299.52,2665.27 326,2699.5C 359.593,2738.05 402.093,2759.21 453.5,2763C 515.096,2766.36 569.096,2748.02 615.5,2708C 644.267,2679.98 662.767,2646.15 671,2606.5C 677.934,2569.83 681.434,2532.83 681.5,2495.5C 719.834,2483.2 740.167,2456.87 742.5,2416.5C 742.289,2390.23 731.289,2370.06 709.5,2356C 701.675,2351.79 693.341,2349.29 684.5,2348.5C 684.245,2327.83 684.079,2307.16 684,2286.5C 723.812,2270.64 741.146,2241.31 736,2198.5C 729.857,2169.02 712.19,2150.69 683,2143.5C 682.333,2130.5 682.333,2117.5 683,2104.5C 699.909,2097.22 714.242,2086.55 726,2072.5C 743.597,2044.31 742.264,2016.98 722,1990.5C 711.346,1977.59 698.179,1968.26 682.5,1962.5C 681.501,1950.18 681.168,1937.85 681.5,1925.5C 708.744,1916.04 726.244,1897.38 734,1869.5C 741.066,1835.7 732.233,1806.87 707.5,1783C 700.548,1777.61 693.048,1773.11 685,1769.5C 684.333,1760.17 684.333,1750.83 685,1741.5C 709.217,1728.62 726.384,1709.45 736.5,1684C 743.824,1658.6 740.324,1634.77 726,1612.5C 715.145,1596.31 701.645,1582.81 685.5,1572C 691.386,1535.18 697.22,1498.35 703,1461.5C 712.004,1430.82 722.004,1400.49 733,1370.5C 789.845,1181.45 846.845,992.454 904,803.5C 918.051,739.629 928.217,675.296 934.5,610.5 Z"/></g>
<g><path style="opacity:0.98" fill="#010101" d="M 934.5,571.5 C 934.5,584.5 934.5,597.5 934.5,610.5C 928.217,675.296 918.051,739.629 904,803.5C 846.845,992.454 789.845,1181.45 733,1370.5C 722.004,1400.49 712.004,1430.82 703,1461.5C 697.22,1498.35 691.386,1535.18 685.5,1572C 701.645,1582.81 715.145,1596.31 726,1612.5C 740.324,1634.77 743.824,1658.6 736.5,1684C 726.384,1709.45 709.217,1728.62 685,1741.5C 684.333,1750.83 684.333,1760.17 685,1769.5C 693.048,1773.11 700.548,1777.61 707.5,1783C 732.233,1806.87 741.066,1835.7 734,1869.5C 726.244,1897.38 708.744,1916.04 681.5,1925.5C 681.168,1937.85 681.501,1950.18 682.5,1962.5C 698.179,1968.26 711.346,1977.59 722,1990.5C 742.264,2016.98 743.597,2044.31 726,2072.5C 714.242,2086.55 699.909,2097.22 683,2104.5C 682.333,2117.5 682.333,2130.5 683,2143.5C 712.19,2150.69 729.857,2169.02 736,2198.5C 741.146,2241.31 723.812,2270.64 684,2286.5C 684.079,2307.16 684.245,2327.83 684.5,2348.5C 693.341,2349.29 701.675,2351.79 709.5,2356C 731.289,2370.06 742.289,2390.23 742.5,2416.5C 740.167,2456.87 719.834,2483.2 681.5,2495.5C 681.434,2532.83 677.934,2569.83 671,2606.5C 662.767,2646.15 644.267,2679.98 615.5,2708C 569.096,2748.02 515.096,2766.36 453.5,2763C 402.093,2759.21 359.593,2738.05 326,2699.5C 299.52,2665.27 283.02,2626.6 276.5,2583.5C 246.753,2577.92 227.587,2560.59 219,2531.5C 213.741,2484.36 232.408,2450.03 275,2428.5C 275.154,2415.16 274.654,2401.82 273.5,2388.5C 262.46,2381.71 252.627,2373.38 244,2363.5C 223.135,2336.91 220.468,2308.57 236,2278.5C 245.562,2263.2 257.896,2250.54 273,2240.5C 273.833,2223.82 273.666,2207.16 272.5,2190.5C 243.37,2176.25 227.704,2152.92 225.5,2120.5C 227.114,2087.89 242.614,2064.89 272,2051.5C 272.926,2037.78 272.593,2024.11 271,2010.5C 227.089,1990.09 214.755,1957.76 234,1913.5C 243.537,1898.29 255.537,1885.29 270,1874.5C 270.667,1855.83 270.667,1837.17 270,1818.5C 252.406,1816.37 237.739,1808.7 226,1795.5C 212.167,1774.83 208.834,1752.49 216,1728.5C 224.007,1700.49 241.674,1681.49 269,1671.5C 269.555,1638.16 269.222,1604.83 268,1571.5C 261.418,1567.79 254.918,1563.96 248.5,1560C 232.105,1549.55 223.438,1534.55 222.5,1515C 225.246,1494.43 231.412,1474.93 241,1456.5C 242.15,1454.25 242.484,1451.91 242,1449.5C 230.727,1426.62 219.727,1403.62 209,1380.5C 173.621,1328.42 140.621,1274.75 110,1219.5C 85.6666,1175.83 65.9999,1130.16 51,1082.5C 27.795,992.926 11.6284,902.259 2.5,810.5C 2.5,799.167 2.5,787.833 2.5,776.5C 3.33653,718.82 19.5032,665.82 51,617.5C 74.616,587.206 100.449,558.706 128.5,532C 234.731,430.071 345.397,333.737 460.5,243C 488.911,223.192 520.245,215.526 554.5,220C 578.915,226.584 602.249,235.917 624.5,248C 657.372,268.213 689.706,289.213 721.5,311C 774.495,347.303 823.995,388.136 870,433.5C 903.504,473.824 925.004,519.824 934.5,571.5 Z"/></g>
<g><path style="opacity:1" fill="#fefefe" d="M 523.5,247.5 C 537.281,246.231 550.614,248.064 563.5,253C 584.253,260.71 604.253,270.043 623.5,281C 683.675,318.843 741.342,360.177 796.5,405C 815.907,421.403 834.407,438.903 852,457.5C 878.832,491.84 896.498,530.507 905,573.5C 905.622,601.632 903.956,629.632 900,657.5C 893.305,702.002 885.638,746.336 877,790.5C 818.319,983.708 760.152,1177.04 702.5,1370.5C 547.5,1370.67 392.5,1370.5 237.5,1370C 190.755,1302.72 148.922,1232.22 112,1158.5C 92.8908,1118.51 78.5575,1076.84 69,1033.5C 52.6775,962.232 40.6775,890.232 33,817.5C 28.5885,768.982 34.9218,721.982 52,676.5C 61.2256,655.031 73.2256,635.365 88,617.5C 124.136,577.697 161.969,539.531 201.5,503C 289.517,421.963 380.184,344.297 473.5,270C 488.647,258.923 505.313,251.423 523.5,247.5 Z"/></g>
<g><path style="opacity:1" fill="#929292" d="M 251.5,1400.5 C 397.666,1399.5 543.999,1399.17 690.5,1399.5C 690.737,1400.79 690.404,1401.79 689.5,1402.5C 543.837,1400.5 397.837,1399.83 251.5,1400.5 Z"/></g>
<g><path style="opacity:1" fill="#b7b7b8" d="M 251.5,1400.5 C 397.837,1399.83 543.837,1400.5 689.5,1402.5C 684.643,1419.91 679.477,1437.24 674,1454.5C 666.723,1501.16 659.556,1547.83 652.5,1594.5C 658.211,1595.01 663.878,1595.84 669.5,1597C 692.803,1611.14 706.803,1631.64 711.5,1658.5C 710.628,1671.62 706.128,1683.29 698,1693.5C 685.872,1706.65 671.706,1716.98 655.5,1724.5C 654.334,1746.83 654.167,1769.16 655,1791.5C 690.789,1797.95 708.122,1819.28 707,1855.5C 703.201,1875.94 691.701,1890.11 672.5,1898C 665.901,1900.15 659.235,1901.98 652.5,1903.5C 652.5,1931.5 652.5,1959.5 652.5,1987.5C 680.5,1988.58 699.333,2002.25 709,2028.5C 710.293,2043.09 705.126,2054.92 693.5,2064C 681.261,2072.54 668.094,2079.37 654,2084.5C 653.5,2113.5 653.333,2142.5 653.5,2171.5C 691.702,2168.2 709.535,2185.54 707,2223.5C 702.67,2239.83 692.67,2251.16 677,2257.5C 669.701,2259.49 662.368,2261.16 655,2262.5C 654.589,2301.17 654.756,2339.83 655.5,2378.5C 664.811,2377.48 674.144,2377.31 683.5,2378C 703.022,2383.01 712.689,2395.68 712.5,2416C 711.385,2442.13 698.385,2459.46 673.5,2468C 666.941,2469.82 660.274,2470.99 653.5,2471.5C 652.743,2512.02 649.576,2552.36 644,2592.5C 628.53,2666.97 583.697,2712.8 509.5,2730C 404.779,2745.56 338.279,2702.4 310,2600.5C 306.874,2586.33 305.208,2572 305,2557.5C 296.2,2556.43 287.367,2555.26 278.5,2554C 253.883,2546.32 243.383,2529.48 247,2503.5C 255.776,2474.56 274.942,2456.89 304.5,2450.5C 304.667,2424.5 304.5,2398.5 304,2372.5C 288.956,2365.12 275.956,2355.12 265,2342.5C 252.016,2323.59 252.349,2304.92 266,2286.5C 276.358,2274.57 288.525,2264.9 302.5,2257.5C 302.833,2251.67 303.167,2245.83 303.5,2240C 302.895,2217.17 302.395,2194.34 302,2171.5C 286.891,2166.7 274.224,2158.36 264,2146.5C 252.385,2127.92 252.718,2109.58 265,2091.5C 274.679,2080.58 286.846,2075.58 301.5,2076.5C 301.5,2047.5 301.5,2018.5 301.5,1989.5C 287.866,1986.35 275.532,1980.52 264.5,1972C 254.28,1961.57 251.447,1949.4 256,1935.5C 262.167,1922.32 271,1911.15 282.5,1902C 288.167,1897.83 293.833,1893.67 299.5,1889.5C 300.431,1855.84 300.431,1822.17 299.5,1788.5C 290.841,1789.25 282.174,1789.42 273.5,1789C 253.001,1785.83 242.334,1773.83 241.5,1753C 242.332,1732.33 250.999,1715.99 267.5,1704C 270.674,1702.28 274.007,1700.94 277.5,1700C 284.492,1699.5 291.492,1699.33 298.5,1699.5C 298.833,1650.5 298.5,1601.5 297.5,1552.5C 284.733,1547.29 272.733,1540.79 261.5,1533C 252.957,1526.08 250.123,1517.24 253,1506.5C 259.227,1487.65 266.727,1469.32 275.5,1451.5C 267.215,1434.6 259.215,1417.6 251.5,1400.5 Z"/></g>
</svg>
