<?xml version="1.0" encoding="UTF-8"?>
<!DOCTYPE svg PUBLIC "-//W3C//DTD SVG 1.1//EN" "http://www.w3.org/Graphics/SVG/1.1/DTD/svg11.dtd">
<svg xmlns="http://www.w3.org/2000/svg" version="1.1" width="973px" height="3694px" style="shape-rendering:geometricPrecision; text-rendering:geometricPrecision; image-rendering:optimizeQuality; fill-rule:evenodd; clip-rule:evenodd" xmlns:xlink="http://www.w3.org/1999/xlink">
<g><path style="opacity:0.666" fill="#fdfdfd" d="M -0.5,-0.5 C 323.833,-0.5 648.167,-0.5 972.5,-0.5C 972.5,1230.83 972.5,2462.17 972.5,3693.5C 648.167,3693.5 323.833,3693.5 -0.5,3693.5C -0.5,2462.17 -0.5,1230.83 -0.5,-0.5 Z M 2.5,3051.5 C 9.00618,3096.52 24.5062,3138.19 49,3176.5C 63.0916,3195.26 79.2582,3212.09 97.5,3227C 186.352,3298.52 278.019,3366.19 372.5,3430C 398.095,3445.87 425.428,3457.87 454.5,3466C 486.262,3473.62 517.929,3473.28 549.5,3465C 679.048,3428.72 798.714,3372.38 908.5,3296C 931.921,3274.03 948.421,3247.53 958,3216.5C 967.123,3178.69 970.457,3140.36 968,3101.5C 965.865,3062.69 959.199,3024.69 948,2987.5C 896.47,2844.58 845.136,2701.58 794,2558.5C 764.916,2471.5 739.249,2383.5 717,2294.5C 697.911,2084.57 685.578,1874.23 680,1663.5C 676.54,1520.49 672.873,1377.49 669,1234.5C 668.814,1032.83 645.814,833.827 600,637.5C 578.259,543.946 552.259,451.612 522,360.5C 505.182,323.501 483.849,289.501 458,258.5C 443.767,242.597 426.601,231.097 406.5,224C 354.994,214.988 324.827,236.155 316,287.5C 316.397,513.166 316.397,738.833 316,964.5C 315.763,1088.2 313.763,1211.86 310,1335.5C 302.758,1464.65 293.424,1593.65 282,1722.5C 266.082,1907.6 249.082,2092.6 231,2277.5C 166.473,2475.75 101.139,2673.75 35,2871.5C 21.6349,2912.3 10.8016,2953.63 2.5,2995.5C 2.5,1997.83 2.5,1000.17 2.5,2.5C 324.833,2.5 647.167,2.5 969.5,2.5C 969.5,1231.83 969.5,2461.17 969.5,3690.5C 647.167,3690.5 324.833,3690.5 2.5,3690.5C 2.5,3477.5 2.5,3264.5 2.5,3051.5 Z"/></g>
<g><path style="opacity:0.982" fill="#000000" d="M 2.5,3051.5 C 1.34406,3032.83 1.34406,3014.16 2.5,2995.5C 10.8016,2953.63 21.6349,2912.3 35,2871.5C 101.139,2673.75 166.473,2475.75 231,2277.5C 249.082,2092.6 266.082,1907.6 282,1722.5C 293.424,1593.65 302.758,1464.65 310,1335.5C 313.763,1211.86 315.763,1088.2 316,964.5C 316.397,738.833 316.397,513.166 316,287.5C 324.827,236.155 354.994,214.988 406.5,224C 426.601,231.097 443.767,242.597 458,258.5C 483.849,289.501 505.182,323.501 522,360.5C 552.259,451.612 578.259,543.946 600,637.5C 645.814,833.827 668.814,1032.83 669,1234.5C 672.873,1377.49 676.54,1520.49 680,1663.5C 685.578,1874.23 697.911,2084.57 717,2294.5C 739.249,2383.5 764.916,2471.5 794,2558.5C 845.136,2701.58 896.47,2844.58 948,2987.5C 959.199,3024.69 965.865,3062.69 968,3101.5C 970.457,3140.36 967.123,3178.69 958,3216.5C 948.421,3247.53 931.921,3274.03 908.5,3296C 798.714,3372.38 679.048,3428.72 549.5,3465C 517.929,3473.28 486.262,3473.62 454.5,3466C 425.428,3457.87 398.095,3445.87 372.5,3430C 278.019,3366.19 186.352,3298.52 97.5,3227C 79.2582,3212.09 63.0916,3195.26 49,3176.5C 24.5062,3138.19 9.00618,3096.52 2.5,3051.5 Z"/></g>
<g><path style="opacity:1" fill="#fefefe" d="M 376.5,251.5 C 392.781,249.452 407.447,253.285 420.5,263C 433.785,273.948 445.285,286.448 455,300.5C 470.71,323.91 484.377,348.577 496,374.5C 560.152,566.93 603.486,763.93 626,965.5C 633.911,1067.35 638.911,1169.35 641,1271.5C 644.922,1461.88 650.255,1652.21 657,1842.5C 663.868,1989.36 673.368,2136.03 685.5,2282.5C 543.833,2282.5 402.167,2282.5 260.5,2282.5C 280.416,2069.26 299.582,1855.93 318,1642.5C 326.374,1542.93 333.374,1443.26 339,1343.5C 342.644,1225.53 344.644,1107.53 345,989.5C 345.59,756.498 345.59,523.498 345,290.5C 347.493,270.763 357.993,257.763 376.5,251.5 Z"/></g>
<g><path style="opacity:1" fill="#fefefe" d="M 253.5,2305.5 C 254.461,2307.26 254.795,2309.26 254.5,2311.5C 399.833,2311.5 545.167,2311.5 690.5,2311.5C 715.275,2406.34 743.442,2500.34 775,2593.5C 814.546,2704.81 854.879,2815.81 896,2926.5C 906.464,2955.23 916.131,2984.23 925,3013.5C 941.083,3073.94 943.75,3134.94 933,3196.5C 925.866,3224.95 912.366,3249.78 892.5,3271C 784.714,3346.42 667.047,3401.75 539.5,3437C 500.121,3446.71 462.121,3442.71 425.5,3425C 413.184,3419.18 401.184,3412.84 389.5,3406C 303.591,3348.09 219.924,3287.09 138.5,3223C 126.647,3213.24 114.98,3203.24 103.5,3193C 78.2503,3170.08 59.7503,3142.58 48,3110.5C 35.2978,3075.95 29.6311,3040.29 31,3003.5C 42.4751,2945.27 58.4751,2888.27 79,2832.5C 89.6408,2810.24 99.3075,2787.58 108,2764.5C 121.258,2728.39 133.925,2692.06 146,2655.5C 182.457,2539 218.29,2422.33 253.5,2305.5 Z"/></g>
<g><path style="opacity:1" fill="#141414" d="M 690.5,2311.5 C 545.167,2311.5 399.833,2311.5 254.5,2311.5C 254.795,2309.26 254.461,2307.26 253.5,2305.5C 253.783,2304.71 254.283,2304.04 255,2303.5C 255.497,2305.81 255.663,2308.14 255.5,2310.5C 400.668,2310.17 545.668,2310.5 690.5,2311.5 Z"/></g>
<g><path style="opacity:1" fill="#020202" d="M 278.5,2781.5 C 287.791,2783.42 297.124,2785.09 306.5,2786.5C 297.944,2823.17 291.111,2860.17 286,2897.5C 283.27,2925.32 284.27,2952.98 289,2980.5C 295.078,3011.73 304.578,3041.9 317.5,3071C 309.514,3076 301.18,3080.5 292.5,3084.5C 266.704,3029.35 254.538,2971.35 256,2910.5C 260.853,2867.03 268.353,2824.03 278.5,2781.5 Z"/></g>
<g><path style="opacity:1" fill="#030303" d="M 646.5,2785.5 C 648.124,2785.36 649.29,2786.03 650,2787.5C 664.281,2834.3 674.947,2881.96 682,2930.5C 681.955,2973.56 675.122,3015.56 661.5,3056.5C 660.277,3057.61 658.944,3057.78 657.5,3057C 649.981,3053.99 642.314,3051.49 634.5,3049.5C 639.643,3029.59 644.476,3009.59 649,2989.5C 652.52,2969.97 653.853,2950.31 653,2930.5C 646.539,2884.82 636.372,2839.99 622.5,2796C 622.645,2795.23 622.978,2794.56 623.5,2794C 631.458,2791.63 639.125,2788.8 646.5,2785.5 Z"/></g>
</svg>
