<?xml version="1.0" encoding="UTF-8"?>
<!DOCTYPE svg PUBLIC "-//W3C//DTD SVG 1.1//EN" "http://www.w3.org/Graphics/SVG/1.1/DTD/svg11.dtd">
<svg xmlns="http://www.w3.org/2000/svg" version="1.1" width="973px" height="3694px" style="shape-rendering:geometricPrecision; text-rendering:geometricPrecision; image-rendering:optimizeQuality; fill-rule:evenodd; clip-rule:evenodd" xmlns:xlink="http://www.w3.org/1999/xlink">
<g><path style="opacity:0.666" fill="#fdfdfd" d="M -0.5,-0.5 C 323.833,-0.5 648.167,-0.5 972.5,-0.5C 972.5,1230.83 972.5,2462.17 972.5,3693.5C 648.167,3693.5 323.833,3693.5 -0.5,3693.5C -0.5,2462.17 -0.5,1230.83 -0.5,-0.5 Z M 2.5,3052.5 C 9.31403,3103.79 28.1474,3150.12 59,3191.5C 84.6793,3217.52 111.846,3241.69 140.5,3264C 215.909,3321.87 292.909,3377.54 371.5,3431C 400.762,3449.8 432.429,3462.8 466.5,3470C 495.153,3475.49 523.486,3474.16 551.5,3466C 679.642,3430.22 797.975,3374.56 906.5,3299C 927.185,3281.49 942.352,3259.99 952,3234.5C 961.524,3208.36 966.858,3181.36 968,3153.5C 970.241,3105.15 965.574,3057.49 954,3010.5C 946.469,2984.57 938.136,2958.91 929,2933.5C 886.743,2819.06 845.076,2704.4 804,2589.5C 772.376,2497.96 745.209,2405.13 722.5,2311C 722.645,2310.23 722.978,2309.56 723.5,2309C 711.362,2278.61 699.196,2248.11 687,2217.5C 681.43,2180.58 675.596,2143.75 669.5,2107C 696.798,2090.7 714.631,2067.2 723,2036.5C 727.783,2010.63 721.783,1987.63 705,1967.5C 694.168,1955.99 682.168,1945.99 669,1937.5C 668.333,1928.5 668.333,1919.5 669,1910.5C 707.006,1892.17 724.006,1861.84 720,1819.5C 714.46,1787.29 696.46,1765.29 666,1753.5C 665.167,1741.49 665.334,1729.49 666.5,1717.5C 695.425,1706.08 713.925,1685.41 722,1655.5C 724.718,1627.98 714.884,1606.14 692.5,1590C 684.494,1584.66 676.161,1579.83 667.5,1575.5C 666.241,1562.15 666.241,1548.82 667.5,1535.5C 692.843,1530.07 709.676,1515.07 718,1490.5C 726.836,1456.35 718.003,1427.85 691.5,1405C 684.484,1400.24 676.984,1396.41 669,1393.5C 668.5,1372.84 668.333,1352.17 668.5,1331.5C 706.003,1324.57 725.336,1301.9 726.5,1263.5C 724.574,1223.27 704.574,1196.94 666.5,1184.5C 665.57,1148.58 662.07,1112.91 656,1077.5C 640.901,1007.09 600.734,956.92 535.5,927C 470.986,902.02 411.319,910.353 356.5,952C 314.156,990.511 288.989,1038.34 281,1095.5C 246.322,1102.51 226.322,1123.51 221,1158.5C 220.715,1200.93 239.548,1231.6 277.5,1250.5C 278.666,1263.82 278.833,1277.15 278,1290.5C 259.179,1301.65 244.845,1316.99 235,1336.5C 224.789,1364.11 228.789,1389.44 247,1412.5C 256.053,1422.55 266.053,1431.55 277,1439.5C 277.757,1456.2 277.257,1472.87 275.5,1489.5C 235.456,1511.59 221.956,1544.59 235,1588.5C 242.723,1607.06 255.89,1620.06 274.5,1627.5C 275.833,1641.5 275.833,1655.5 274.5,1669.5C 229.371,1690.73 217.537,1723.73 239,1768.5C 248.584,1782.75 260.251,1795.09 274,1805.5C 274.5,1824.16 274.667,1842.83 274.5,1861.5C 242.349,1865.15 223.182,1882.82 217,1914.5C 213.568,1947.22 224.068,1974.39 248.5,1996C 255.609,2000.89 263.276,2004.72 271.5,2007.5C 272.833,2041.17 272.833,2074.83 271.5,2108.5C 254.52,2115.73 241.02,2127.07 231,2142.5C 225.113,2158.46 225.113,2174.46 231,2190.5C 235.114,2202.06 239.781,2213.39 245,2224.5C 246.25,2227.08 246.584,2229.74 246,2232.5C 176.213,2448.53 105.213,2664.2 33,2879.5C 20.6108,2918.39 10.4442,2957.73 2.5,2997.5C 2.5,1999.17 2.5,1000.83 2.5,2.5C 324.833,2.5 647.167,2.5 969.5,2.5C 969.5,1231.83 969.5,2461.17 969.5,3690.5C 647.167,3690.5 324.833,3690.5 2.5,3690.5C 2.5,3477.83 2.5,3265.17 2.5,3052.5 Z"/></g>
<g><path style="opacity:0.981" fill="#000000" d="M 2.5,3052.5 C 1.26524,3034.16 1.26524,3015.83 2.5,2997.5C 10.4442,2957.73 20.6108,2918.39 33,2879.5C 105.213,2664.2 176.213,2448.53 246,2232.5C 246.584,2229.74 246.25,2227.08 245,2224.5C 239.781,2213.39 235.114,2202.06 231,2190.5C 225.113,2174.46 225.113,2158.46 231,2142.5C 241.02,2127.07 254.52,2115.73 271.5,2108.5C 272.833,2074.83 272.833,2041.17 271.5,2007.5C 263.276,2004.72 255.609,2000.89 248.5,1996C 224.068,1974.39 213.568,1947.22 217,1914.5C 223.182,1882.82 242.349,1865.15 274.5,1861.5C 274.667,1842.83 274.5,1824.16 274,1805.5C 260.251,1795.09 248.584,1782.75 239,1768.5C 217.537,1723.73 229.371,1690.73 274.5,1669.5C 275.833,1655.5 275.833,1641.5 274.5,1627.5C 255.89,1620.06 242.723,1607.06 235,1588.5C 221.956,1544.59 235.456,1511.59 275.5,1489.5C 277.257,1472.87 277.757,1456.2 277,1439.5C 266.053,1431.55 256.053,1422.55 247,1412.5C 228.789,1389.44 224.789,1364.11 235,1336.5C 244.845,1316.99 259.179,1301.65 278,1290.5C 278.833,1277.15 278.666,1263.82 277.5,1250.5C 239.548,1231.6 220.715,1200.93 221,1158.5C 226.322,1123.51 246.322,1102.51 281,1095.5C 288.989,1038.34 314.156,990.511 356.5,952C 411.319,910.353 470.986,902.02 535.5,927C 600.734,956.92 640.901,1007.09 656,1077.5C 662.07,1112.91 665.57,1148.58 666.5,1184.5C 704.574,1196.94 724.574,1223.27 726.5,1263.5C 725.336,1301.9 706.003,1324.57 668.5,1331.5C 668.333,1352.17 668.5,1372.84 669,1393.5C 676.984,1396.41 684.484,1400.24 691.5,1405C 718.003,1427.85 726.836,1456.35 718,1490.5C 709.676,1515.07 692.843,1530.07 667.5,1535.5C 666.241,1548.82 666.241,1562.15 667.5,1575.5C 676.161,1579.83 684.494,1584.66 692.5,1590C 714.884,1606.14 724.718,1627.98 722,1655.5C 713.925,1685.41 695.425,1706.08 666.5,1717.5C 665.334,1729.49 665.167,1741.49 666,1753.5C 696.46,1765.29 714.46,1787.29 720,1819.5C 724.006,1861.84 707.006,1892.17 669,1910.5C 668.333,1919.5 668.333,1928.5 669,1937.5C 682.168,1945.99 694.168,1955.99 705,1967.5C 721.783,1987.63 727.783,2010.63 723,2036.5C 714.631,2067.2 696.798,2090.7 669.5,2107C 675.596,2143.75 681.43,2180.58 687,2217.5C 699.196,2248.11 711.362,2278.61 723.5,2309C 722.978,2309.56 722.645,2310.23 722.5,2311C 745.209,2405.13 772.376,2497.96 804,2589.5C 845.076,2704.4 886.743,2819.06 929,2933.5C 938.136,2958.91 946.469,2984.57 954,3010.5C 965.574,3057.49 970.241,3105.15 968,3153.5C 966.858,3181.36 961.524,3208.36 952,3234.5C 942.352,3259.99 927.185,3281.49 906.5,3299C 797.975,3374.56 679.642,3430.22 551.5,3466C 523.486,3474.16 495.153,3475.49 466.5,3470C 432.429,3462.8 400.762,3449.8 371.5,3431C 292.909,3377.54 215.909,3321.87 140.5,3264C 111.846,3241.69 84.6793,3217.52 59,3191.5C 28.1474,3150.12 9.31403,3103.79 2.5,3052.5 Z"/></g>
<g><path style="opacity:1" fill="#b7b7b8" d="M 679.5,2279.5 C 540.163,2280.17 401.163,2279.5 262.5,2277.5C 267.627,2260.78 272.96,2244.12 278.5,2227.5C 271.115,2211.4 264.281,2195.06 258,2178.5C 252.48,2164.74 255.646,2153.57 267.5,2145C 277.898,2138.13 288.898,2132.3 300.5,2127.5C 301.48,2078.5 302.147,2029.5 302.5,1980.5C 271.921,1982.61 253.421,1968.61 247,1938.5C 242.041,1921.13 246.541,1906.96 260.5,1896C 264.95,1893.74 269.617,1892.07 274.5,1891C 284.178,1890.47 293.845,1890.63 303.5,1891.5C 303.667,1857.83 303.5,1824.17 303,1790.5C 290.428,1781.93 279.095,1771.93 269,1760.5C 248.801,1730.42 255.634,1708.59 289.5,1695C 294.429,1693.19 299.429,1691.69 304.5,1690.5C 304.5,1661.5 304.5,1632.5 304.5,1603.5C 279.631,1603.13 264.465,1590.8 259,1566.5C 257.833,1544.34 267,1527.84 286.5,1517C 292.708,1513.88 299.041,1511.04 305.5,1508.5C 306.667,1479.84 306.833,1451.17 306,1422.5C 292.89,1415.44 281.223,1406.44 271,1395.5C 254.829,1375.67 254.496,1355.67 270,1335.5C 280.898,1324.22 293.232,1314.89 307,1307.5C 307.833,1281.49 307.667,1255.49 306.5,1229.5C 281.892,1223.71 264.392,1209.38 254,1186.5C 244.135,1161.43 250.635,1141.93 273.5,1128C 285.001,1125.1 296.667,1123.27 308.5,1122.5C 310.231,1065.77 331.231,1017.6 371.5,978C 414.276,942.18 462.276,933.18 515.5,951C 581.189,978.054 619.356,1026.89 630,1097.5C 634.386,1134.03 637.053,1170.7 638,1207.5C 651.052,1209.07 663.219,1213.24 674.5,1220C 697.192,1237.93 702.692,1260.1 691,1286.5C 685.312,1294.84 677.479,1300.01 667.5,1302C 658.153,1302.57 648.82,1302.4 639.5,1301.5C 638.665,1340.16 638.332,1378.83 638.5,1417.5C 652.167,1417.88 664.5,1422.05 675.5,1430C 692.358,1445.96 696.525,1464.8 688,1486.5C 681.23,1498.98 670.73,1506.15 656.5,1508C 650.175,1508.5 643.842,1508.67 637.5,1508.5C 637.167,1537.51 637.5,1566.51 638.5,1595.5C 653.837,1600.67 667.837,1608.17 680.5,1618C 695.2,1632.08 697.367,1647.92 687,1665.5C 674.959,1683.27 658.125,1692.27 636.5,1692.5C 636.5,1720.5 636.5,1748.5 636.5,1776.5C 657.306,1778.64 673.473,1788.31 685,1805.5C 694.947,1826.79 693.28,1847.13 680,1866.5C 669.122,1878.91 655.455,1886.25 639,1888.5C 638.333,1910.5 638.333,1932.5 639,1954.5C 656.009,1963.18 671.009,1974.51 684,1988.5C 698.621,2008.59 699.288,2029.25 686,2050.5C 678.213,2063.29 668.046,2073.79 655.5,2082C 649.968,2083.73 644.301,2084.73 638.5,2085C 637.919,2085.89 637.585,2086.89 637.5,2088C 644.537,2134.18 651.703,2180.35 659,2226.5C 666.134,2244.07 672.968,2261.74 679.5,2279.5 Z"/></g>
<g><path style="opacity:1" fill="#676768" d="M 262.5,2277.5 C 401.163,2279.5 540.163,2280.17 679.5,2279.5C 540.334,2280.5 401.001,2280.83 261.5,2280.5C 261.263,2279.21 261.596,2278.21 262.5,2277.5 Z"/></g>
<g><path style="opacity:1" fill="#fefefe" d="M 253.5,2308.5 C 399.737,2308.17 545.903,2308.5 692,2309.5C 722.059,2434.35 759.392,2557.01 804,2677.5C 836,2764.83 868,2852.17 900,2939.5C 909.802,2966.91 918.802,2994.57 927,3022.5C 941.109,3080.1 943.109,3138.1 933,3196.5C 926.907,3223.02 915.24,3246.68 898,3267.5C 877.995,3283.17 857.161,3297.67 835.5,3311C 736.688,3371.23 631.022,3415.23 518.5,3443C 493.897,3445.59 469.897,3442.92 446.5,3435C 420.593,3425.21 396.26,3412.55 373.5,3397C 292.546,3341.69 213.546,3283.69 136.5,3223C 119.195,3208.42 102.361,3193.25 86,3177.5C 52.9456,3135.37 34.6122,3087.37 31,3033.5C 29.5342,3014.56 31.2008,2995.89 36,2977.5C 43.5775,2946.19 52.2442,2915.19 62,2884.5C 125.74,2692.45 189.574,2500.45 253.5,2308.5 Z"/></g>
<g><path style="opacity:1" fill="#020202" d="M 278.5,2782.5 C 287.896,2784.58 297.229,2786.91 306.5,2789.5C 297.057,2829.77 289.891,2870.43 285,2911.5C 282.759,2967.63 293.592,3021.13 317.5,3072C 309.966,3077.36 301.799,3081.86 293,3085.5C 271.788,3041.66 259.455,2995.33 256,2946.5C 255.275,2930.48 255.608,2914.48 257,2898.5C 262.696,2859.52 269.862,2820.86 278.5,2782.5 Z"/></g>
<g><path style="opacity:1" fill="#030303" d="M 645.5,2787.5 C 647.451,2787.23 648.951,2787.89 650,2789.5C 664.415,2836.32 675.082,2883.99 682,2932.5C 682.298,2959.45 679.631,2986.12 674,3012.5C 670.156,3027.54 666.156,3042.54 662,3057.5C 661.612,3058.43 660.945,3059.09 660,3059.5C 651.908,3056.47 643.742,3053.64 635.5,3051C 634.941,3050.28 634.608,3049.44 634.5,3048.5C 647.194,3010.87 653.361,2972.2 653,2932.5C 645.831,2886.15 635.664,2840.48 622.5,2795.5C 630.53,2793.6 638.197,2790.94 645.5,2787.5 Z"/></g>
</svg>
