<?xml version="1.0" encoding="UTF-8"?>
<!DOCTYPE svg PUBLIC "-//W3C//DTD SVG 1.1//EN" "http://www.w3.org/Graphics/SVG/1.1/DTD/svg11.dtd">
<svg xmlns="http://www.w3.org/2000/svg" version="1.1" width="992px" height="3694px" style="shape-rendering:geometricPrecision; text-rendering:geometricPrecision; image-rendering:optimizeQuality; fill-rule:evenodd; clip-rule:evenodd" xmlns:xlink="http://www.w3.org/1999/xlink">
<g><path style="opacity:0.753" fill="#fcfcfc" d="M -0.5,-0.5 C 330.167,-0.5 660.833,-0.5 991.5,-0.5C 991.5,1230.83 991.5,2462.17 991.5,3693.5C 660.833,3693.5 330.167,3693.5 -0.5,3693.5C -0.5,2462.17 -0.5,1230.83 -0.5,-0.5 Z M 2.5,2887.5 C 8.2592,2920.28 18.7592,2951.61 34,2981.5C 58.0528,3027.63 87.0528,3070.3 121,3109.5C 172.383,3158.9 225.55,3206.06 280.5,3251C 334.704,3293.93 395.704,3323.27 463.5,3339C 502.319,3345.64 540.652,3343.31 578.5,3332C 622.072,3318.93 662.739,3299.93 700.5,3275C 757.452,3233.73 811.785,3189.07 863.5,3141C 891.376,3114.81 915.876,3085.98 937,3054.5C 977.206,2988.5 993.873,2916.83 987,2839.5C 979.173,2713.7 944.84,2595.7 884,2485.5C 845.673,2415.85 800.339,2351.19 748,2291.5C 734.579,2027.34 718.579,1763.34 700,1499.5C 677.176,1235.92 651.842,972.591 624,709.5C 621.069,667.839 611.402,627.839 595,589.5C 583.108,562.611 565.608,540.111 542.5,522C 509.679,499.465 473.679,492.131 434.5,500C 401.089,509.416 375.922,529.249 359,559.5C 344.264,586.042 334.931,614.375 331,644.5C 319.686,746.876 312.353,849.542 309,952.5C 302.862,1133.79 298.529,1315.12 296,1496.5C 288.987,1716.32 271.654,1935.32 244,2153.5C 238.878,2194.36 232.544,2235.02 225,2275.5C 164.346,2413.13 107.013,2552.13 53,2692.5C 41.7418,2722.61 31.0751,2752.94 21,2783.5C 13.8702,2805.37 7.70353,2827.37 2.5,2849.5C 2.5,1900.5 2.5,951.5 2.5,2.5C 331.167,2.5 659.833,2.5 988.5,2.5C 988.5,1231.83 988.5,2461.17 988.5,3690.5C 659.833,3690.5 331.167,3690.5 2.5,3690.5C 2.5,3422.83 2.5,3155.17 2.5,2887.5 Z"/></g>
<g><path style="opacity:0.981" fill="#010101" d="M 2.5,2887.5 C 2.5,2874.83 2.5,2862.17 2.5,2849.5C 7.70353,2827.37 13.8702,2805.37 21,2783.5C 31.0751,2752.94 41.7418,2722.61 53,2692.5C 107.013,2552.13 164.346,2413.13 225,2275.5C 232.544,2235.02 238.878,2194.36 244,2153.5C 271.654,1935.32 288.987,1716.32 296,1496.5C 298.529,1315.12 302.862,1133.79 309,952.5C 312.353,849.542 319.686,746.876 331,644.5C 334.931,614.375 344.264,586.042 359,559.5C 375.922,529.249 401.089,509.416 434.5,500C 473.679,492.131 509.679,499.465 542.5,522C 565.608,540.111 583.108,562.611 595,589.5C 611.402,627.839 621.069,667.839 624,709.5C 651.842,972.591 677.176,1235.92 700,1499.5C 718.579,1763.34 734.579,2027.34 748,2291.5C 800.339,2351.19 845.673,2415.85 884,2485.5C 944.84,2595.7 979.173,2713.7 987,2839.5C 993.873,2916.83 977.206,2988.5 937,3054.5C 915.876,3085.98 891.376,3114.81 863.5,3141C 811.785,3189.07 757.452,3233.73 700.5,3275C 662.739,3299.93 622.072,3318.93 578.5,3332C 540.652,3343.31 502.319,3345.64 463.5,3339C 395.704,3323.27 334.704,3293.93 280.5,3251C 225.55,3206.06 172.383,3158.9 121,3109.5C 87.0528,3070.3 58.0528,3027.63 34,2981.5C 18.7592,2951.61 8.2592,2920.28 2.5,2887.5 Z"/></g>
<g><path style="opacity:1" fill="#fefefe" d="M 447.5,526.5 C 497.014,522.504 534.181,541.838 559,584.5C 575.446,614.172 586.113,645.838 591,679.5C 622.11,965.824 649.777,1252.49 674,1539.5C 690.669,1787.03 705.169,2034.7 717.5,2282.5C 562.833,2282.67 408.166,2282.5 253.5,2282C 267.657,2199.25 279.157,2116.08 288,2032.5C 306.717,1855.27 319.051,1677.61 325,1499.5C 327.623,1316.79 331.956,1134.13 338,951.5C 341.456,849.531 348.789,747.864 360,646.5C 364.704,612.688 377.371,582.355 398,555.5C 411.443,540.531 427.943,530.865 447.5,526.5 Z"/></g>
<g><path style="opacity:1" fill="#fefefe" d="M 243.5,2311.5 C 404.5,2311.33 565.5,2311.5 726.5,2312C 816.997,2413.42 883.497,2529.26 926,2659.5C 948.401,2735.92 959.067,2813.92 958,2893.5C 953.064,2965.69 926.731,3028.69 879,3082.5C 839.248,3124.6 796.748,3163.43 751.5,3199C 728.833,3216.33 706.167,3233.67 683.5,3251C 637.147,3281.83 586.48,3302.17 531.5,3312C 506.584,3314.97 481.917,3313.64 457.5,3308C 402.164,3293.16 351.831,3268.5 306.5,3234C 248.92,3187.43 193.42,3138.27 140,3086.5C 105.87,3046.94 77.2029,3003.61 54,2956.5C 43.448,2934.18 36.1146,2910.84 32,2886.5C 31.3333,2874.83 31.3333,2863.17 32,2851.5C 44.9131,2803.43 60.2465,2756.09 78,2709.5C 128.293,2577.91 181.626,2447.58 238,2318.5C 240.793,2316.91 242.627,2314.58 243.5,2311.5 Z"/></g>
<g><path style="opacity:1" fill="#020202" d="M 703.5,2940.5 C 708.519,2948.7 713.186,2957.2 717.5,2966C 678.668,2985.61 639.001,3003.27 598.5,3019C 569.882,3029.21 540.549,3036.54 510.5,3041C 479.082,3044.24 448.082,3041.91 417.5,3034C 383.507,3025.28 350.841,3013.11 319.5,2997.5C 323.169,2988.83 327.335,2980.5 332,2972.5C 365.591,2988.21 400.424,3000.38 436.5,3009C 474.889,3016.24 512.889,3014.57 550.5,3004C 603.605,2987.78 654.605,2966.61 703.5,2940.5 Z"/></g>
</svg>
