<?xml version="1.0" encoding="UTF-8"?>
<!DOCTYPE svg PUBLIC "-//W3C//DTD SVG 1.1//EN" "http://www.w3.org/Graphics/SVG/1.1/DTD/svg11.dtd">
<svg xmlns="http://www.w3.org/2000/svg" version="1.1" width="955px" height="3694px" style="shape-rendering:geometricPrecision; text-rendering:geometricPrecision; image-rendering:optimizeQuality; fill-rule:evenodd; clip-rule:evenodd" xmlns:xlink="http://www.w3.org/1999/xlink">
<g><path style="opacity:0.688" fill="#fdfdfd" d="M -0.5,-0.5 C 317.833,-0.5 636.167,-0.5 954.5,-0.5C 954.5,1230.83 954.5,2462.17 954.5,3693.5C 636.167,3693.5 317.833,3693.5 -0.5,3693.5C -0.5,2462.17 -0.5,1230.83 -0.5,-0.5 Z M 951.5,652.5 C 942.747,590.053 918.58,534.386 879,485.5C 832.025,431.186 782.191,379.353 729.5,330C 701.431,303.261 672.765,277.261 643.5,252C 600.226,220.182 552.226,209.515 499.5,220C 474.475,227.726 451.808,239.726 431.5,256C 356.463,318.525 281.796,381.525 207.5,445C 159.73,486.769 114.564,531.269 72,578.5C 44.3623,609.095 25.029,644.428 14,684.5C 8.14465,709 4.31132,733.667 2.5,758.5C 2.5,506.5 2.5,254.5 2.5,2.5C 318.833,2.5 635.167,2.5 951.5,2.5C 951.5,219.167 951.5,435.833 951.5,652.5 Z M 951.5,716.5 C 951.5,1707.83 951.5,2699.17 951.5,3690.5C 635.167,3690.5 318.833,3690.5 2.5,3690.5C 2.5,2723.17 2.5,1755.83 2.5,788.5C 6.88953,825.038 17.0562,860.038 33,893.5C 39.157,906.483 45.8236,919.149 53,931.5C 100.598,1005.68 145.931,1081.34 189,1158.5C 203.929,1185.95 216.929,1214.29 228,1243.5C 230.537,1253.05 232.537,1262.72 234,1272.5C 237.858,1300.74 240.858,1329.08 243,1357.5C 263.9,1643 282.234,1928.67 298,2214.5C 298.968,2239.66 299.801,2264.83 300.5,2290C 298.581,2378.17 296.414,2466.34 294,2554.5C 290.378,2667.65 300.044,2779.65 323,2890.5C 330.213,2924.69 340.213,2958.02 353,2990.5C 364.193,3016.56 378.193,3040.9 395,3063.5C 414.894,3086.53 440.06,3099.7 470.5,3103C 505.759,3110.74 534.926,3100.9 558,3073.5C 575.585,3051.01 589.585,3026.34 600,2999.5C 611.642,2968.6 620.642,2936.94 627,2904.5C 650.899,2786.21 667.233,2666.87 676,2546.5C 685.429,2305.69 697.762,2065.02 713,1824.5C 724.493,1634.44 736.826,1444.44 750,1254.5C 752.526,1224.48 757.193,1194.82 764,1165.5C 771.02,1144.77 779.02,1124.44 788,1104.5C 819.041,1040.75 851.375,977.749 885,915.5C 897.213,891.075 908.879,866.409 920,841.5C 935.386,800.957 945.886,759.29 951.5,716.5 Z"/></g>
<g><path style="opacity:0.981" fill="#010101" d="M 951.5,652.5 C 952.782,673.831 952.782,695.165 951.5,716.5C 945.886,759.29 935.386,800.957 920,841.5C 908.879,866.409 897.213,891.075 885,915.5C 851.375,977.749 819.041,1040.75 788,1104.5C 779.02,1124.44 771.02,1144.77 764,1165.5C 757.193,1194.82 752.526,1224.48 750,1254.5C 736.826,1444.44 724.493,1634.44 713,1824.5C 697.762,2065.02 685.429,2305.69 676,2546.5C 667.233,2666.87 650.899,2786.21 627,2904.5C 620.642,2936.94 611.642,2968.6 600,2999.5C 589.585,3026.34 575.585,3051.01 558,3073.5C 534.926,3100.9 505.759,3110.74 470.5,3103C 440.06,3099.7 414.894,3086.53 395,3063.5C 378.193,3040.9 364.193,3016.56 353,2990.5C 340.213,2958.02 330.213,2924.69 323,2890.5C 300.044,2779.65 290.378,2667.65 294,2554.5C 296.414,2466.34 298.581,2378.17 300.5,2290C 299.801,2264.83 298.968,2239.66 298,2214.5C 282.234,1928.67 263.9,1643 243,1357.5C 240.858,1329.08 237.858,1300.74 234,1272.5C 232.537,1262.72 230.537,1253.05 228,1243.5C 216.929,1214.29 203.929,1185.95 189,1158.5C 145.931,1081.34 100.598,1005.68 53,931.5C 45.8236,919.149 39.157,906.483 33,893.5C 17.0562,860.038 6.88953,825.038 2.5,788.5C 2.5,778.5 2.5,768.5 2.5,758.5C 4.31132,733.667 8.14465,709 14,684.5C 25.029,644.428 44.3623,609.095 72,578.5C 114.564,531.269 159.73,486.769 207.5,445C 281.796,381.525 356.463,318.525 431.5,256C 451.808,239.726 474.475,227.726 499.5,220C 552.226,209.515 600.226,220.182 643.5,252C 672.765,277.261 701.431,303.261 729.5,330C 782.191,379.353 832.025,431.186 879,485.5C 918.58,534.386 942.747,590.053 951.5,652.5 Z"/></g>
<g><path style="opacity:1" fill="#fefefe" d="M 712.5,1370.5 C 566.167,1370.5 419.833,1370.5 273.5,1370.5C 273.802,1367.94 273.468,1365.61 272.5,1363.5C 270.639,1325.25 266.472,1287.25 260,1249.5C 256.931,1234.96 252.264,1220.96 246,1207.5C 228.894,1170.62 210.228,1134.62 190,1099.5C 151.671,1034.17 112.338,969.5 72,905.5C 58.2652,880.292 47.2652,853.958 39,826.5C 26.7402,769.024 31.7402,713.024 54,658.5C 64.1797,637.457 76.8464,618.123 92,600.5C 123.493,565.673 156.327,532.173 190.5,500C 223.312,470.765 256.312,441.765 289.5,413C 344.126,368.043 398.459,322.71 452.5,277C 470.568,263.299 490.568,253.299 512.5,247C 547.705,241.812 580.705,248.145 611.5,266C 619.5,271.667 627.5,277.333 635.5,283C 692.548,335.378 748.381,389.211 803,444.5C 821.074,463.237 838.408,482.57 855,502.5C 919.473,581.517 938.473,670.517 912,769.5C 903.286,804.975 890.62,838.975 874,871.5C 839.333,938.833 804.667,1006.17 770,1073.5C 756.732,1100.37 745.399,1128.04 736,1156.5C 729.548,1180.78 725.215,1205.44 723,1230.5C 717.995,1277.06 714.495,1323.73 712.5,1370.5 Z"/></g>
<g><path style="opacity:1" fill="#575757" d="M 272.5,1363.5 C 273.468,1365.61 273.802,1367.94 273.5,1370.5C 419.833,1370.5 566.167,1370.5 712.5,1370.5C 566.001,1371.5 419.334,1371.83 272.5,1371.5C 272.5,1368.83 272.5,1366.17 272.5,1363.5 Z"/></g>
<g><path style="opacity:1" fill="#fefefe" d="M 275.5,1399.5 C 420.5,1399.5 565.5,1399.5 710.5,1399.5C 687.326,1743.96 667.493,2088.63 651,2433.5C 647.464,2589.06 630.131,2743.06 599,2895.5C 592.436,2927.86 583.436,2959.53 572,2990.5C 562.051,3016.42 548.051,3039.75 530,3060.5C 522.841,3067 514.674,3071.83 505.5,3075C 468.612,3079.05 438.112,3067.21 414,3039.5C 390.573,3005.97 373.573,2969.3 363,2929.5C 339.271,2835.35 325.938,2739.68 323,2642.5C 322.333,2611.83 322.333,2581.17 323,2550.5C 326.862,2450.2 328.862,2349.86 329,2249.5C 314.063,1965.99 296.23,1682.66 275.5,1399.5 Z"/></g>
</svg>
