<?xml version="1.0" encoding="UTF-8"?>
<!DOCTYPE svg PUBLIC "-//W3C//DTD SVG 1.1//EN" "http://www.w3.org/Graphics/SVG/1.1/DTD/svg11.dtd">
<svg xmlns="http://www.w3.org/2000/svg" version="1.1" width="955px" height="3694px" style="shape-rendering:geometricPrecision; text-rendering:geometricPrecision; image-rendering:optimizeQuality; fill-rule:evenodd; clip-rule:evenodd" xmlns:xlink="http://www.w3.org/1999/xlink">
<g><path style="opacity:0.692" fill="#fdfdfd" d="M -0.5,-0.5 C 317.833,-0.5 636.167,-0.5 954.5,-0.5C 954.5,1230.83 954.5,2462.17 954.5,3693.5C 636.167,3693.5 317.833,3693.5 -0.5,3693.5C -0.5,2462.17 -0.5,1230.83 -0.5,-0.5 Z M 951.5,652.5 C 943.147,591.799 919.98,537.466 882,489.5C 844.366,445.191 804.532,402.691 762.5,362C 726.801,327.967 690.801,294.3 654.5,261C 614.464,226.879 568.13,212.212 515.5,217C 485.329,222.589 458.329,234.922 434.5,254C 357.581,317.582 281.247,381.915 205.5,447C 169.425,479.405 134.258,512.905 100,547.5C 79.8227,569.002 61.156,591.669 44,615.5C 28.1208,640.79 17.1208,668.124 11,697.5C 6.95071,717.814 4.11737,738.148 2.5,758.5C 2.5,506.167 2.5,253.833 2.5,1.5C 318.833,1.5 635.167,1.5 951.5,1.5C 951.5,218.5 951.5,435.5 951.5,652.5 Z M 951.5,717.5 C 951.5,1708.5 951.5,2699.5 951.5,3690.5C 635.167,3690.5 318.833,3690.5 2.5,3690.5C 2.5,2723.5 2.5,1756.5 2.5,789.5C 6.71231,824.987 16.5456,858.987 32,891.5C 38.8234,905.815 46.1568,919.815 54,933.5C 106.861,1014.52 156.194,1097.86 202,1183.5C 210.489,1200.14 218.156,1217.14 225,1234.5C 229.831,1248.82 233.165,1263.49 235,1278.5C 239.074,1311.5 243.074,1344.5 247,1377.5C 258.561,1402.29 270.394,1426.96 282.5,1451.5C 274.657,1467.19 268.49,1483.53 264,1500.5C 258.926,1522.83 265.093,1541.33 282.5,1556C 290.584,1561.79 299.084,1566.96 308,1571.5C 308.5,1605.17 308.667,1638.83 308.5,1672.5C 283.773,1680.06 266.94,1696.06 258,1720.5C 247.947,1747.26 250.614,1772.6 266,1796.5C 277.555,1809.53 292.055,1816.53 309.5,1817.5C 310.755,1836.49 310.755,1855.49 309.5,1874.5C 295.733,1885.43 283.9,1898.1 274,1912.5C 253.776,1957.39 266.109,1990.06 311,2010.5C 311.667,2024.17 311.667,2037.83 311,2051.5C 278.182,2067.45 263.182,2093.78 266,2130.5C 271.54,2158.04 286.873,2178.04 312,2190.5C 312.619,2207.17 312.953,2223.84 313,2240.5C 292.086,2253.99 277.086,2272.33 268,2295.5C 261.268,2326.64 269.768,2352.8 293.5,2374C 300.05,2379.55 306.883,2384.72 314,2389.5C 314.833,2402.85 314.666,2416.18 313.5,2429.5C 272.125,2450.06 253.625,2483.4 258,2529.5C 266.046,2560.05 285.546,2578.38 316.5,2584.5C 324.622,2638.58 347.955,2684.75 386.5,2723C 436.473,2765.05 492.139,2774.38 553.5,2751C 618.454,2721.37 658.287,2671.53 673,2601.5C 679.14,2566.44 682.306,2531.1 682.5,2495.5C 710.183,2487.32 729.016,2469.65 739,2442.5C 748.374,2411.68 741.874,2384.84 719.5,2362C 709.411,2354.46 698.078,2349.96 685.5,2348.5C 684.727,2327.84 684.56,2307.17 685,2286.5C 718.959,2273.86 736.793,2249.36 738.5,2213C 737.047,2176.56 718.88,2153.4 684,2143.5C 683.333,2130.5 683.333,2117.5 684,2104.5C 700.391,2097.31 714.391,2086.98 726,2073.5C 744.607,2045.24 743.607,2017.57 723,1990.5C 712.346,1977.59 699.179,1968.26 683.5,1962.5C 682.167,1950.17 682.167,1937.83 683.5,1925.5C 717.832,1911.47 735.832,1885.8 737.5,1848.5C 736.396,1811.25 719.063,1784.91 685.5,1769.5C 684.335,1760.52 684.168,1751.52 685,1742.5C 700.843,1732.99 714.51,1720.99 726,1706.5C 746.822,1674.08 746.489,1641.74 725,1609.5C 714.259,1594.59 701.425,1581.92 686.5,1571.5C 692.216,1536.54 697.716,1501.54 703,1466.5C 715.101,1436.29 727.768,1406.29 741,1376.5C 743.889,1316.94 749.222,1257.61 757,1198.5C 760.767,1173.87 767.767,1150.2 778,1127.5C 784.667,1112.83 791.333,1098.17 798,1083.5C 824.823,1030.52 852.156,977.852 880,925.5C 896.701,893.101 912.034,860.101 926,826.5C 937.84,790.816 946.34,754.483 951.5,717.5 Z"/></g>
<g><path style="opacity:0.98" fill="#010101" d="M 951.5,652.5 C 952.765,674.164 952.765,695.831 951.5,717.5C 946.34,754.483 937.84,790.816 926,826.5C 912.034,860.101 896.701,893.101 880,925.5C 852.156,977.852 824.823,1030.52 798,1083.5C 791.333,1098.17 784.667,1112.83 778,1127.5C 767.767,1150.2 760.767,1173.87 757,1198.5C 749.222,1257.61 743.889,1316.94 741,1376.5C 727.768,1406.29 715.101,1436.29 703,1466.5C 697.716,1501.54 692.216,1536.54 686.5,1571.5C 701.425,1581.92 714.259,1594.59 725,1609.5C 746.489,1641.74 746.822,1674.08 726,1706.5C 714.51,1720.99 700.843,1732.99 685,1742.5C 684.168,1751.52 684.335,1760.52 685.5,1769.5C 719.063,1784.91 736.396,1811.25 737.5,1848.5C 735.832,1885.8 717.832,1911.47 683.5,1925.5C 682.167,1937.83 682.167,1950.17 683.5,1962.5C 699.179,1968.26 712.346,1977.59 723,1990.5C 743.607,2017.57 744.607,2045.24 726,2073.5C 714.391,2086.98 700.391,2097.31 684,2104.5C 683.333,2117.5 683.333,2130.5 684,2143.5C 718.88,2153.4 737.047,2176.56 738.5,2213C 736.793,2249.36 718.959,2273.86 685,2286.5C 684.56,2307.17 684.727,2327.84 685.5,2348.5C 698.078,2349.96 709.411,2354.46 719.5,2362C 741.874,2384.84 748.374,2411.68 739,2442.5C 729.016,2469.65 710.183,2487.32 682.5,2495.5C 682.306,2531.1 679.14,2566.44 673,2601.5C 658.287,2671.53 618.454,2721.37 553.5,2751C 492.139,2774.38 436.473,2765.05 386.5,2723C 347.955,2684.75 324.622,2638.58 316.5,2584.5C 285.546,2578.38 266.046,2560.05 258,2529.5C 253.625,2483.4 272.125,2450.06 313.5,2429.5C 314.666,2416.18 314.833,2402.85 314,2389.5C 306.883,2384.72 300.05,2379.55 293.5,2374C 269.768,2352.8 261.268,2326.64 268,2295.5C 277.086,2272.33 292.086,2253.99 313,2240.5C 312.953,2223.84 312.619,2207.17 312,2190.5C 286.873,2178.04 271.54,2158.04 266,2130.5C 263.182,2093.78 278.182,2067.45 311,2051.5C 311.667,2037.83 311.667,2024.17 311,2010.5C 266.109,1990.06 253.776,1957.39 274,1912.5C 283.9,1898.1 295.733,1885.43 309.5,1874.5C 310.755,1855.49 310.755,1836.49 309.5,1817.5C 292.055,1816.53 277.555,1809.53 266,1796.5C 250.614,1772.6 247.947,1747.26 258,1720.5C 266.94,1696.06 283.773,1680.06 308.5,1672.5C 308.667,1638.83 308.5,1605.17 308,1571.5C 299.084,1566.96 290.584,1561.79 282.5,1556C 265.093,1541.33 258.926,1522.83 264,1500.5C 268.49,1483.53 274.657,1467.19 282.5,1451.5C 270.394,1426.96 258.561,1402.29 247,1377.5C 243.074,1344.5 239.074,1311.5 235,1278.5C 233.165,1263.49 229.831,1248.82 225,1234.5C 218.156,1217.14 210.489,1200.14 202,1183.5C 156.194,1097.86 106.861,1014.52 54,933.5C 46.1568,919.815 38.8234,905.815 32,891.5C 16.5456,858.987 6.71231,824.987 2.5,789.5C 2.5,779.167 2.5,768.833 2.5,758.5C 4.11737,738.148 6.95071,717.814 11,697.5C 17.1208,668.124 28.1208,640.79 44,615.5C 61.156,591.669 79.8227,569.002 100,547.5C 134.258,512.905 169.425,479.405 205.5,447C 281.247,381.915 357.581,317.582 434.5,254C 458.329,234.922 485.329,222.589 515.5,217C 568.13,212.212 614.464,226.879 654.5,261C 690.801,294.3 726.801,327.967 762.5,362C 804.532,402.691 844.366,445.191 882,489.5C 919.98,537.466 943.147,591.799 951.5,652.5 Z"/></g>
<g><path style="opacity:1" fill="#fefefe" d="M 518.5,245.5 C 565.458,242.095 606.125,256.262 640.5,288C 705.878,346.71 768.712,408.21 829,472.5C 848.576,493.735 866.243,516.402 882,540.5C 899.33,569.833 911.663,601.166 919,634.5C 923.644,660.022 924.644,685.688 922,711.5C 915.996,765.527 900.996,816.86 877,865.5C 842,933.5 807,1001.5 772,1069.5C 757.518,1098.61 745.184,1128.61 735,1159.5C 728.139,1188.81 723.473,1218.47 721,1248.5C 717.083,1289.09 714.249,1329.76 712.5,1370.5C 566.5,1370.5 420.5,1370.5 274.5,1370.5C 271.77,1324.36 265.604,1278.69 256,1233.5C 245.25,1205 232.584,1177.33 218,1150.5C 172.055,1067.93 123.721,986.931 73,907.5C 53.513,873.367 40.1797,837.034 33,798.5C 29.1307,751.251 35.7974,705.584 53,661.5C 63.3426,638.792 76.6759,618.125 93,599.5C 117.074,572.423 142.241,546.256 168.5,521C 198.868,492.963 229.535,465.297 260.5,438C 322.5,386 384.5,334 446.5,282C 467.679,264.244 491.679,252.077 518.5,245.5 Z"/></g>
<g><path style="opacity:1" fill="#929292" d="M 697.5,1401.5 C 562.167,1400.17 426.833,1400.17 291.5,1401.5C 290.957,1401.44 290.624,1401.11 290.5,1400.5C 426.5,1399.17 562.5,1399.17 698.5,1400.5C 698.376,1401.11 698.043,1401.44 697.5,1401.5 Z"/></g>
<g><path style="opacity:1" fill="#b7b7b8" d="M 697.5,1401.5 C 690.104,1419.52 682.604,1437.52 675,1455.5C 667.751,1501.83 660.584,1548.16 653.5,1594.5C 659.911,1595.24 666.244,1596.4 672.5,1598C 691.042,1610.88 703.876,1628.05 711,1649.5C 713.54,1666.54 709.206,1681.54 698,1694.5C 685.704,1706.63 671.871,1716.63 656.5,1724.5C 655.334,1746.83 655.167,1769.16 656,1791.5C 691.751,1797.91 709.085,1819.25 708,1855.5C 704.202,1875.93 692.702,1890.1 673.5,1898C 666.616,1900.35 659.616,1902.18 652.5,1903.5C 652.333,1931.17 652.5,1958.84 653,1986.5C 679.622,1988.13 698.289,2001.13 709,2025.5C 712.235,2040.7 707.735,2053.2 695.5,2063C 683.094,2072.12 669.594,2079.29 655,2084.5C 654.5,2113.5 654.333,2142.5 654.5,2171.5C 670.109,2169.07 684.109,2172.57 696.5,2182C 709.24,2197.02 712.074,2213.85 705,2232.5C 698.959,2244.87 689.459,2253.37 676.5,2258C 669.663,2259.67 662.829,2261.17 656,2262.5C 655.5,2301.17 655.333,2339.83 655.5,2378.5C 665.148,2377.51 674.814,2377.34 684.5,2378C 699.987,2381.49 709.487,2390.99 713,2406.5C 715.799,2435.74 703.632,2455.91 676.5,2467C 669.407,2469.64 662.074,2471.14 654.5,2471.5C 654.007,2511.74 650.841,2551.74 645,2591.5C 633.224,2653.59 598.724,2697.76 541.5,2724C 484.287,2745.24 435.121,2733.4 394,2688.5C 362.593,2650.63 345.927,2606.97 344,2557.5C 332.768,2556.32 321.601,2554.49 310.5,2552C 291.99,2542.48 283.824,2527.32 286,2506.5C 293.482,2475.85 312.649,2457.18 343.5,2450.5C 343.667,2424.5 343.5,2398.5 343,2372.5C 329.232,2365.11 316.898,2355.78 306,2344.5C 290.715,2324.84 290.715,2305.17 306,2285.5C 316.253,2274.07 328.087,2264.74 341.5,2257.5C 342.833,2228.83 342.833,2200.17 341.5,2171.5C 326.946,2166.64 314.446,2158.64 304,2147.5C 289.037,2123.94 291.87,2102.77 312.5,2084C 320.96,2078.41 330.293,2075.91 340.5,2076.5C 340.5,2047.5 340.5,2018.5 340.5,1989.5C 328.533,1986.85 317.533,1982.02 307.5,1975C 293.919,1964.26 290.086,1950.76 296,1934.5C 301.245,1923.58 308.412,1914.08 317.5,1906C 324.382,1900.12 331.548,1894.62 339,1889.5C 339.5,1855.83 339.667,1822.17 339.5,1788.5C 328.828,1788.67 318.161,1788.5 307.5,1788C 293.667,1784.83 285.167,1776.33 282,1762.5C 279.104,1738.84 286.937,1719.67 305.5,1705C 310.937,1701.24 316.937,1699.41 323.5,1699.5C 328.5,1699.5 333.5,1699.5 338.5,1699.5C 338.831,1676.33 338.498,1653.33 337.5,1630.5C 337.833,1604.49 337.5,1578.49 336.5,1552.5C 324.687,1547.1 313.354,1540.93 302.5,1534C 291.239,1525.17 288.405,1514 294,1500.5C 300.419,1483.83 307.252,1467.33 314.5,1451C 306.685,1434.54 299.018,1418.04 291.5,1401.5C 426.833,1400.17 562.167,1400.17 697.5,1401.5 Z"/></g>
<g><path style="opacity:1" fill="#3f3f40" d="M 337.5,1630.5 C 338.498,1653.33 338.831,1676.33 338.5,1699.5C 333.5,1699.5 328.5,1699.5 323.5,1699.5C 327.97,1698.51 332.637,1698.18 337.5,1698.5C 337.5,1675.83 337.5,1653.17 337.5,1630.5 Z"/></g>
</svg>
