<?xml version="1.0" encoding="UTF-8"?>
<!DOCTYPE svg PUBLIC "-//W3C//DTD SVG 1.1//EN" "http://www.w3.org/Graphics/SVG/1.1/DTD/svg11.dtd">
<svg xmlns="http://www.w3.org/2000/svg" version="1.1" width="992px" height="3694px" style="shape-rendering:geometricPrecision; text-rendering:geometricPrecision; image-rendering:optimizeQuality; fill-rule:evenodd; clip-rule:evenodd" xmlns:xlink="http://www.w3.org/1999/xlink">
<g><path style="opacity:0.753" fill="#fcfcfc" d="M -0.5,-0.5 C 330.167,-0.5 660.833,-0.5 991.5,-0.5C 991.5,1230.83 991.5,2462.17 991.5,3693.5C 660.833,3693.5 330.167,3693.5 -0.5,3693.5C -0.5,2462.17 -0.5,1230.83 -0.5,-0.5 Z M 988.5,2849.5 C 981.579,2721.49 947.412,2601.15 886,2488.5C 847.811,2418.43 802.478,2353.43 750,2293.5C 732.636,2266.81 715.303,2240.15 698,2213.5C 692.662,2178.31 687.162,2143.14 681.5,2108C 681.585,2106.89 681.919,2105.89 682.5,2105C 714.715,2084.92 732.715,2055.92 736.5,2018C 734.706,1992.75 724.373,1971.75 705.5,1955C 697.442,1948.22 688.942,1942.05 680,1936.5C 679.333,1927.5 679.333,1918.5 680,1909.5C 713.452,1893.97 730.952,1867.64 732.5,1830.5C 730.462,1792.83 712.129,1766.83 677.5,1752.5C 676.476,1740.5 676.642,1728.5 678,1716.5C 704.548,1706.07 722.548,1687.4 732,1660.5C 737.889,1631.45 729.056,1607.95 705.5,1590C 697.329,1584.08 688.663,1578.91 679.5,1574.5C 678.501,1561.18 678.167,1547.85 678.5,1534.5C 704.694,1528.81 721.861,1513.14 730,1487.5C 738.623,1449.95 727.123,1420.45 695.5,1399C 690.624,1396.54 685.624,1394.37 680.5,1392.5C 679.5,1371.84 679.167,1351.18 679.5,1330.5C 712.069,1325.1 731.236,1306.1 737,1273.5C 739.855,1228.39 720.188,1198.06 678,1182.5C 676.874,1149.66 673.874,1116.99 669,1084.5C 655.936,1010.46 615.436,957.626 547.5,926C 482.044,900.553 421.71,909.22 366.5,952C 324.809,990.879 300.142,1038.71 292.5,1095.5C 262.362,1099.64 243.028,1116.31 234.5,1145.5C 228.029,1193.22 246.363,1227.89 289.5,1249.5C 289.833,1251.17 290.167,1252.83 290.5,1254.5C 289.778,1266.15 289.278,1277.82 289,1289.5C 273.492,1298.92 260.825,1311.25 251,1326.5C 234.889,1358.61 238.556,1388.28 262,1415.5C 270.08,1423.58 278.747,1430.92 288,1437.5C 288.667,1454.17 288.667,1470.83 288,1487.5C 246.91,1510.01 233.244,1543.68 247,1588.5C 255.231,1606.9 268.731,1619.57 287.5,1626.5C 287.667,1638.5 287.5,1650.5 287,1662.5C 286.808,1664.58 286.308,1666.58 285.5,1668.5C 241.18,1689.46 229.347,1722.13 250,1766.5C 259.236,1780.88 270.736,1793.22 284.5,1803.5C 285.5,1822.49 285.833,1841.49 285.5,1860.5C 252.02,1864.48 232.853,1883.15 228,1916.5C 225.753,1948.79 236.92,1975.29 261.5,1996C 268.164,2000.83 275.497,2004.33 283.5,2006.5C 284.652,2040.18 284.319,2073.84 282.5,2107.5C 269.461,2113.7 257.961,2122.04 248,2132.5C 236.886,2149.75 234.886,2168.08 242,2187.5C 246.337,2200.51 251.504,2213.17 257.5,2225.5C 239.142,2252.9 220.808,2280.24 202.5,2307.5C 203.428,2308.77 203.595,2310.1 203,2311.5C 151.12,2435.47 101.786,2560.47 55,2686.5C 36.465,2735.77 20.1317,2785.77 6,2836.5C 4.74077,2842.63 3.5741,2848.63 2.5,2854.5C 2.5,1903.83 2.5,953.167 2.5,2.5C 331.167,2.5 659.833,2.5 988.5,2.5C 988.5,951.5 988.5,1900.5 988.5,2849.5 Z M 2.5,2882.5 C 6.74306,2913.07 15.5764,2942.41 29,2970.5C 63.9575,3042.8 111.791,3105.3 172.5,3158C 215.018,3196.9 259.018,3233.9 304.5,3269C 353.592,3303.54 407.592,3327.21 466.5,3340C 505.105,3346.25 543.105,3343.58 580.5,3332C 625.013,3318.74 666.346,3299.07 704.5,3273C 759.161,3233.02 811.494,3190.02 861.5,3144C 893.174,3114.06 920.674,3080.89 944,3044.5C 972.402,2994.81 987.235,2941.48 988.5,2884.5C 988.5,3153.17 988.5,3421.83 988.5,3690.5C 659.833,3690.5 331.167,3690.5 2.5,3690.5C 2.5,3421.17 2.5,3151.83 2.5,2882.5 Z"/></g>
<g><path style="opacity:0.981" fill="#010101" d="M 988.5,2849.5 C 988.5,2861.17 988.5,2872.83 988.5,2884.5C 987.235,2941.48 972.402,2994.81 944,3044.5C 920.674,3080.89 893.174,3114.06 861.5,3144C 811.494,3190.02 759.161,3233.02 704.5,3273C 666.346,3299.07 625.013,3318.74 580.5,3332C 543.105,3343.58 505.105,3346.25 466.5,3340C 407.592,3327.21 353.592,3303.54 304.5,3269C 259.018,3233.9 215.018,3196.9 172.5,3158C 111.791,3105.3 63.9575,3042.8 29,2970.5C 15.5764,2942.41 6.74306,2913.07 2.5,2882.5C 2.5,2873.17 2.5,2863.83 2.5,2854.5C 3.5741,2848.63 4.74077,2842.63 6,2836.5C 20.1317,2785.77 36.465,2735.77 55,2686.5C 101.786,2560.47 151.12,2435.47 203,2311.5C 203.595,2310.1 203.428,2308.77 202.5,2307.5C 220.808,2280.24 239.142,2252.9 257.5,2225.5C 251.504,2213.17 246.337,2200.51 242,2187.5C 234.886,2168.08 236.886,2149.75 248,2132.5C 257.961,2122.04 269.461,2113.7 282.5,2107.5C 284.319,2073.84 284.652,2040.18 283.5,2006.5C 275.497,2004.33 268.164,2000.83 261.5,1996C 236.92,1975.29 225.753,1948.79 228,1916.5C 232.853,1883.15 252.02,1864.48 285.5,1860.5C 285.833,1841.49 285.5,1822.49 284.5,1803.5C 270.736,1793.22 259.236,1780.88 250,1766.5C 229.347,1722.13 241.18,1689.46 285.5,1668.5C 286.308,1666.58 286.808,1664.58 287,1662.5C 287.5,1650.5 287.667,1638.5 287.5,1626.5C 268.731,1619.57 255.231,1606.9 247,1588.5C 233.244,1543.68 246.91,1510.01 288,1487.5C 288.667,1470.83 288.667,1454.17 288,1437.5C 278.747,1430.92 270.08,1423.58 262,1415.5C 238.556,1388.28 234.889,1358.61 251,1326.5C 260.825,1311.25 273.492,1298.92 289,1289.5C 289.278,1277.82 289.778,1266.15 290.5,1254.5C 290.167,1252.83 289.833,1251.17 289.5,1249.5C 246.363,1227.89 228.029,1193.22 234.5,1145.5C 243.028,1116.31 262.362,1099.64 292.5,1095.5C 300.142,1038.71 324.809,990.879 366.5,952C 421.71,909.22 482.044,900.553 547.5,926C 615.436,957.626 655.936,1010.46 669,1084.5C 673.874,1116.99 676.874,1149.66 678,1182.5C 720.188,1198.06 739.855,1228.39 737,1273.5C 731.236,1306.1 712.069,1325.1 679.5,1330.5C 679.167,1351.18 679.5,1371.84 680.5,1392.5C 685.624,1394.37 690.624,1396.54 695.5,1399C 727.123,1420.45 738.623,1449.95 730,1487.5C 721.861,1513.14 704.694,1528.81 678.5,1534.5C 678.167,1547.85 678.501,1561.18 679.5,1574.5C 688.663,1578.91 697.329,1584.08 705.5,1590C 729.056,1607.95 737.889,1631.45 732,1660.5C 722.548,1687.4 704.548,1706.07 678,1716.5C 676.642,1728.5 676.476,1740.5 677.5,1752.5C 712.129,1766.83 730.462,1792.83 732.5,1830.5C 730.952,1867.64 713.452,1893.97 680,1909.5C 679.333,1918.5 679.333,1927.5 680,1936.5C 688.942,1942.05 697.442,1948.22 705.5,1955C 724.373,1971.75 734.706,1992.75 736.5,2018C 732.715,2055.92 714.715,2084.92 682.5,2105C 681.919,2105.89 681.585,2106.89 681.5,2108C 687.162,2143.14 692.662,2178.31 698,2213.5C 715.303,2240.15 732.636,2266.81 750,2293.5C 802.478,2353.43 847.811,2418.43 886,2488.5C 947.412,2601.15 981.579,2721.49 988.5,2849.5 Z"/></g>
<g><path style="opacity:1" fill="#b7b7b8" d="M 653.5,1300.5 C 652.791,1299.6 651.791,1299.26 650.5,1299.5C 650.5,1311.83 650.5,1324.17 650.5,1336.5C 650.5,1363.17 650.5,1389.83 650.5,1416.5C 675.484,1417.03 692.651,1428.7 702,1451.5C 706.823,1490.85 689.323,1509.52 649.5,1507.5C 648.949,1536.5 648.615,1565.5 648.5,1594.5C 669.172,1599.7 686.339,1610.37 700,1626.5C 706.149,1638.96 705.816,1651.29 699,1663.5C 686.82,1681.84 669.653,1691.18 647.5,1691.5C 647.5,1719.5 647.5,1747.5 647.5,1775.5C 691.599,1782.74 708.766,1808.08 699,1851.5C 689.58,1872.31 673.414,1883.98 650.5,1886.5C 650.333,1908.84 650.5,1931.17 651,1953.5C 667.118,1961.73 681.451,1972.4 694,1985.5C 709.212,2005.51 710.546,2026.51 698,2048.5C 689.426,2062.74 677.926,2073.91 663.5,2082C 658.552,2083.05 653.552,2083.55 648.5,2083.5C 655.89,2131.51 663.39,2179.51 671,2227.5C 682.539,2244.08 693.706,2260.91 704.5,2278C 555.5,2278.67 406.5,2278.67 257.5,2278C 268.908,2261.59 279.908,2244.93 290.5,2228C 282.636,2210.77 275.47,2193.27 269,2175.5C 264.356,2162.52 267.522,2152.02 278.5,2144C 289.363,2136.57 301.03,2130.74 313.5,2126.5C 313.5,2077.5 313.5,2028.5 313.5,1979.5C 287.803,1982.31 270.303,1971.64 261,1947.5C 256.433,1935.33 255.766,1922.99 259,1910.5C 264.735,1897.87 274.568,1891.04 288.5,1890C 297.174,1889.58 305.841,1889.75 314.5,1890.5C 314.833,1856.49 314.5,1822.49 313.5,1788.5C 301.239,1779.74 290.072,1769.74 280,1758.5C 260.426,1728.88 267.259,1707.38 300.5,1694C 305.77,1692.36 310.937,1690.52 316,1688.5C 316.5,1659.84 316.667,1631.17 316.5,1602.5C 291.578,1602.07 276.411,1589.74 271,1565.5C 268.842,1552.47 271.842,1540.8 280,1530.5C 290.207,1519.81 302.374,1512.14 316.5,1507.5C 317.833,1478.5 317.833,1449.5 316.5,1420.5C 298.297,1411.46 284.131,1398.13 274,1380.5C 267.305,1363.19 269.972,1347.53 282,1333.5C 292.618,1322.38 304.785,1313.38 318.5,1306.5C 319.833,1280.5 319.833,1254.5 318.5,1228.5C 292.313,1222.01 274.146,1206.34 264,1181.5C 257.035,1160.5 262.202,1143.33 279.5,1130C 283.095,1127.43 287.095,1125.76 291.5,1125C 300.776,1123.34 310.11,1122.17 319.5,1121.5C 321.333,1066.46 341.333,1019.3 379.5,980C 429.325,937.227 484.325,929.56 544.5,957C 599.177,986.379 631.343,1031.88 641,1093.5C 642.406,1103.82 643.74,1114.16 645,1124.5C 646.723,1151.84 648.557,1179.18 650.5,1206.5C 663.933,1208.14 676.267,1212.64 687.5,1220C 709.852,1238.91 714.352,1261.41 701,1287.5C 695.132,1294.69 687.632,1299.19 678.5,1301C 670.151,1301.57 661.818,1301.41 653.5,1300.5 Z"/></g>
<g><path style="opacity:1" fill="#2b2b2b" d="M 653.5,1300.5 C 651.84,1312.3 650.84,1324.3 650.5,1336.5C 650.5,1324.17 650.5,1311.83 650.5,1299.5C 651.791,1299.26 652.791,1299.6 653.5,1300.5 Z"/></g>
<g><path style="opacity:1" fill="#fefefe" d="M 236.5,2307.5 C 398.834,2307.33 561.167,2307.5 723.5,2308C 804.066,2398.21 866.566,2500.04 911,2613.5C 942.427,2699.73 958.427,2788.73 959,2880.5C 957.175,2957.68 930.841,3025.01 880,3082.5C 839.915,3124.93 797.082,3164.1 751.5,3200C 730.167,3216.33 708.833,3232.67 687.5,3249C 639.437,3282.18 586.437,3303.52 528.5,3313C 496.376,3315.92 465.042,3312.25 434.5,3302C 384.47,3284.49 338.803,3259.49 297.5,3227C 243.25,3183.1 191.083,3136.6 141,3087.5C 113.217,3054.38 88.5508,3019.04 67,2981.5C 52.9933,2956.16 42.3267,2929.49 35,2901.5C 30.8552,2882.89 30.5219,2864.22 34,2845.5C 43.2723,2810.75 53.939,2776.41 66,2742.5C 118.968,2595.91 175.802,2450.91 236.5,2307.5 Z"/></g>
<g><path style="opacity:1" fill="#020202" d="M 702.5,2941.5 C 703.822,2941.33 704.989,2941.66 706,2942.5C 710.106,2950.38 713.939,2958.38 717.5,2966.5C 679.477,2986.18 640.477,3003.68 600.5,3019C 570.005,3030.12 538.672,3037.79 506.5,3042C 477.108,3044.34 448.108,3042.01 419.5,3035C 385.664,3026.17 352.997,3014.17 321.5,2999C 320.978,2998.44 320.645,2997.77 320.5,2997C 323.869,2988.43 327.869,2980.26 332.5,2972.5C 372.457,2992.32 414.457,3005.82 458.5,3013C 487.91,3015.81 516.91,3013.47 545.5,3006C 600.148,2990.01 652.481,2968.51 702.5,2941.5 Z"/></g>
</svg>
