<?xml version="1.0" encoding="UTF-8"?>
<svg version="1.1" xmlns="http://www.w3.org/2000/svg" width="992" height="3694">
<path d="M0 0 C327.36 0 654.72 0 992 0 C992 1219.02 992 2438.04 992 3694 C664.64 3694 337.28 3694 0 3694 C0 2474.98 0 1255.96 0 0 Z M3 3 C3 942.51 3 1882.02 3 2850 C3.33 2850 3.66 2850 4 2850 C4.18433594 2848.98808594 4.36867188 2847.97617188 4.55859375 2846.93359375 C18.46590158 2774.37190001 49.78420941 2703.53604191 76.50009155 2634.98693848 C78.73439749 2629.2537506 80.96287436 2623.51837436 83.18334961 2617.77981567 C90.88981612 2597.86490956 98.7848593 2578.04120531 106.93353271 2558.30307007 C107.26484192 2557.50051788 107.59615112 2556.6979657 107.9375 2555.87109375 C108.26993713 2555.06588287 108.60237427 2554.260672 108.94488525 2553.43106079 C112.46419345 2544.89488677 115.91758471 2536.33233835 119.37084961 2527.76928711 C127.75662186 2506.98047978 136.29994228 2486.25975163 144.92828369 2465.57055664 C145.99517402 2463.01157531 147.0609612 2460.45213711 148.12646484 2457.89257812 C160.5022993 2428.17032786 173.09705945 2398.54242395 185.74609375 2368.93554688 C186.8847545 2366.26980372 188.02267223 2363.60374544 189.16015625 2360.9375 C196.93301619 2342.71967928 204.79042369 2324.5393252 212.6875 2306.375 C213.34267105 2304.86800537 213.34267105 2304.86800537 214.01107788 2303.33056641 C215.26071136 2300.45710389 216.51103343 2297.58394234 217.76171875 2294.7109375 C218.13087402 2293.86244232 218.5000293 2293.01394714 218.88037109 2292.13973999 C219.23268799 2291.33098419 219.58500488 2290.52222839 219.94799805 2289.68896484 C220.28707184 2288.90735489 220.62614563 2288.12574493 220.97549438 2287.32044983 C221.66465061 2285.75954824 222.37140087 2284.20630887 223.09457397 2282.66087341 C225.27728174 2277.96273983 226.7255818 2273.62590919 227.640625 2268.48828125 C227.76837311 2267.78437759 227.89612122 2267.08047394 228.02774048 2266.35523987 C228.44842813 2264.00978665 228.85022406 2261.66160246 229.25 2259.3125 C229.54963682 2257.59326083 229.84927891 2255.87402258 230.14892578 2254.15478516 C246.71395339 2158.05089146 257.04636411 2060.61379281 295 1556 C295.02915245 1555.31244125 295.0583049 1554.62488251 295.08834076 1553.91648865 C297.80499325 1489.62508726 298.56559279 1425.25227468 299.6875 1360.91796875 C299.71786895 1359.17700766 299.74823904 1357.43604658 299.77861023 1355.69508553 C299.79373673 1354.82798468 299.80886323 1353.96088384 299.82444811 1353.06750721 C303.01333287 1170.27798621 303.01333287 1170.27798621 313 887 C313.04019005 886.17778206 313.0803801 885.35556412 313.12178802 884.50843048 C316.89541494 807.48235354 321.42754437 730.21022102 371 544 C371.47260254 543.39414062 371.94520508 542.78828125 372.43212891 542.1640625 C391.38217674 518.17121395 417.14364653 503.37887672 447.375 498.75 C482.54176158 494.70071521 518.08540574 504.09020334 546.22705078 525.59082031 C599.36707239 567.82769785 616.02984931 639.62271971 623.40771484 703.80908203 C624.90641616 717.04110401 626.30254607 730.28434673 627.69396591 743.52799988 C628.13286657 747.70369918 628.57522668 751.87902845 629.01797485 756.05432129 C638.86205443 848.93872222 648.10291379 941.88869249 737.5625 2101.0625 C737.60652759 2101.8567255 737.65055519 2102.650951 737.69591695 2103.46924394 C738.97090462 2126.47013721 740.24279598 2149.47120073 741.51165891 2172.47243267 C741.62741796 2174.57067958 741.74320795 2176.66892477 741.85900688 2178.76716948 C741.8964366 2179.44547623 741.93386633 2180.12378299 741.97243028 2180.8226445 C742.04716691 2182.17694951 742.1219207 2183.53125357 742.196692 2184.88555667 C742.37953313 2188.19847666 742.56175684 2191.51142903 742.743204 2194.8244257 C743.09101608 2201.17127601 743.44450154 2207.51768196 743.81204414 2213.86342239 C744.46173349 2225.20579132 745.04672278 2236.54009246 745.39890701 2247.89611226 C745.56245676 2253.0787694 745.75950265 2258.25993487 745.9585017 2263.44133651 C746.04211274 2265.87936949 746.10870042 2268.31805663 746.15674698 2270.75704968 C745.99277395 2285.90255906 745.99277395 2285.90255906 752.85401917 2298.73280334 C754.54709491 2300.18161653 756.26159388 2301.60590199 758 2303 C759.45521925 2304.67561456 760.87744195 2306.38102992 762.25 2308.125 C762.97960937 2309.02863281 763.70921875 2309.93226563 764.4609375 2310.86328125 C765.05600098 2311.60118896 765.05600098 2311.60118896 765.66308594 2312.35400391 C767.77717595 2314.95685176 769.92046698 2317.53541927 772.05932617 2320.11791992 C784.16109724 2334.7451648 795.6997912 2349.74516785 807 2365 C807.83168701 2366.12148438 807.83168701 2366.12148438 808.68017578 2367.265625 C817.52384289 2379.23296035 825.82316328 2391.54015262 834.00341797 2403.96826172 C835.91415331 2406.86964487 837.83351334 2409.76516015 839.75390625 2412.66015625 C854.85373047 2435.51475452 868.86207231 2458.96540726 882 2483 C882.59490234 2484.08152344 883.18980469 2485.16304687 883.80273438 2486.27734375 C898.21189803 2512.523153 911.47705689 2539.35726525 923 2567 C923.47969238 2568.1353418 923.95938477 2569.27068359 924.45361328 2570.44042969 C955.48853086 2644.04450192 975.64655463 2722.70505112 985.82537842 2823.9838562 C985.97986257 2825.76749754 986.14740251 2827.54999757 986.31689453 2829.33227539 C987.37857241 2841.66882036 987.24295649 2854.06484312 987.25 2866.4375 C987.25100708 2867.66276398 987.25201416 2868.88802795 987.25305176 2870.15042114 C987.24260122 2888.95754933 986.69974101 2907.36754657 984 2926 C983.76724365 2927.63751221 983.76724365 2927.63751221 983.52978516 2929.30810547 C975.32333524 2985.5319076 951.79621197 3039.78266478 916 3084 C915.48501953 3084.64356445 914.97003906 3085.28712891 914.43945312 3085.95019531 C906.57013918 3095.77076855 898.33901886 3105.12560904 889.6640625 3114.23876953 C887.53791935 3116.48906247 885.4498287 3118.77257502 883.36279297 3121.05908203 C875.29583634 3129.88852094 867.04269681 3138.5350965 857.92578125 3146.29296875 C855.68863389 3148.27599795 853.59945348 3150.37193386 851.5 3152.5 C848.16879193 3155.87100065 844.74888372 3159.0451403 841.15234375 3162.12890625 C838.61947838 3164.33079829 836.15667478 3166.60195826 833.6875 3168.875 C829.1482504 3173.01925965 824.46541704 3176.92578398 819.68359375 3180.78515625 C817.05291443 3182.95632827 814.52057576 3185.20241357 812 3187.5 C806.82812206 3192.20616382 801.4379003 3196.60666812 796 3201 C794.26990474 3202.41553248 792.54074945 3203.83221453 790.8125 3205.25 C788.8751893 3206.83356495 786.93766862 3208.41687303 785 3210 C784.39494629 3210.4954834 783.78989258 3210.9909668 783.16650391 3211.50146484 C775.25867757 3217.97472912 767.30522051 3224.36457508 759.1796875 3230.5625 C755.92492925 3233.04802441 752.71244027 3235.58518044 749.5 3238.125 C674.28708922 3297.41700766 583.2224894 3350.89334454 477 3341 C393.5475535 3331.10500384 317.58033784 3282.60271324 255.04663086 3229.22436523 C251.11481277 3225.88934612 247.08282283 3222.70974664 243 3219.5625 C237.62928071 3215.41057237 232.61776918 3210.99005563 227.67919922 3206.33569336 C224.43080371 3203.2844548 221.11212865 3200.40646156 217.625 3197.625 C211.6039391 3192.79404631 206.04657138 3187.50983644 200.43359375 3182.21875 C197.38228281 3179.34538437 194.26317053 3176.56919037 191.0859375 3173.8359375 C187.635511 3170.79904526 184.27968659 3167.65888096 180.91748047 3164.52490234 C178.01915477 3161.83160869 175.0856327 3159.19137313 172.09765625 3156.59765625 C167.9445587 3152.98018628 163.93333671 3149.22706057 159.9375 3145.4375 C158.44691984 3144.02832288 156.95602814 3142.61947522 155.46484375 3141.2109375 C154.72089355 3140.50807617 153.97694336 3139.80521484 153.21044922 3139.08105469 C149.82251865 3135.89144565 146.40991091 3132.72856592 143 3129.5625 C138.1988018 3125.10143096 133.49143749 3120.57549973 128.9296875 3115.8671875 C126.97339262 3113.9084002 126.97339262 3113.9084002 124.50390625 3112.05078125 C121.96793578 3109.97373835 120.09601691 3107.87755005 118.0625 3105.3125 C116.89460938 3103.85263672 116.89460938 3103.85263672 115.703125 3102.36328125 C115.27451172 3101.82654785 114.84589844 3101.28981445 114.40429688 3100.73681641 C112.88898984 3098.86270405 111.34628938 3097.01397222 109.796875 3095.16796875 C101.07803549 3084.75997044 92.90912883 3074.03394089 85 3063 C84.4225 3062.19691406 83.845 3061.39382812 83.25 3060.56640625 C46.35516768 3009.09482099 13.32781608 2951.4746509 4 2888 C3.67 2888 3.34 2888 3 2888 C3 3152.99 3 3417.98 3 3691 C328.38 3691 653.76 3691 989 3691 C989 2473.96 989 1256.92 989 3 C663.62 3 338.24 3 3 3 Z " fill="#FEFEFE" transform="translate(0,0)"/>
<path d="M0 0 C14.59779176 11.36587229 25.19904789 25.33115323 34.4375 41.25 C35.08460938 42.35472656 35.73171875 43.45945312 36.3984375 44.59765625 C46.7502562 62.8055829 53.27262258 83.03823916 58.4375 103.25 C58.82566895 104.75675293 58.82566895 104.75675293 59.22167969 106.29394531 C66.59676752 135.85972833 68.83405672 166.71230243 71.64363956 196.98306656 C72.29059571 203.88075248 73.01962711 210.76786858 73.76733398 217.65527344 C75.53603686 234.06457721 77.22983155 250.48137099 78.9166019 266.89926863 C79.18099775 269.47264751 79.44553837 272.04601149 79.71010017 274.61937332 C80.95922107 286.77125145 82.20554917 298.92341494 83.45042706 311.07572842 C83.75045413 314.004433 84.05056696 316.93312879 84.35068512 319.86182404 C90.14725218 376.43583089 95.83218408 433.01945407 101.3125 489.625 C101.38476193 490.37120039 101.45702386 491.11740078 101.53147554 491.8862133 C103.92237247 516.57676962 106.30074733 541.26853345 108.64697266 565.96337891 C108.74004637 566.94266043 108.83312008 567.92194195 108.92901421 568.93089867 C109.34882827 573.34960024 109.76782133 577.76837583 110.18478394 582.18734741 C111.19451562 592.86348679 112.2712757 603.53083623 113.41996765 614.19302368 C114.17885137 621.23754032 114.78012483 628.29026104 115.35546875 635.3515625 C116.36089615 647.64855081 117.54240892 659.92522209 118.75167847 672.20361328 C119.41844747 678.9841302 120.07737187 685.76540593 120.734375 692.546875 C120.83816121 693.61809349 120.83816121 693.61809349 120.94404411 694.71095276 C126.33522128 750.41395078 131.26466673 806.16304517 136.22868347 861.90541077 C136.43643247 864.2380138 136.64429056 866.57060709 136.85217285 868.90319824 C139.44346706 897.98348455 142.02983007 927.06459145 144.49282837 956.15606689 C144.65953522 958.12113844 144.82741101 960.0861113 144.99667358 962.05096436 C145.91596924 972.74630319 146.66670709 983.42488432 147.08015442 994.15306091 C147.25824976 998.52689925 147.59930405 1002.80212206 148.18623352 1007.14515686 C148.69570326 1011.41295208 148.89975606 1015.70705267 149.15625 1019.99609375 C149.21905151 1021.00664322 149.28185303 1022.01719269 149.34655762 1023.05836487 C149.54590236 1026.26793595 149.74205935 1029.47768898 149.9375 1032.6875 C150.13304618 1035.89373313 150.32938178 1039.09990649 150.52844238 1042.30592346 C150.65185774 1044.29370043 150.77331549 1046.28160029 150.89245605 1048.26963806 C151.14730009 1052.37556163 151.43758665 1056.45828213 151.92602539 1060.54345703 C152.65920382 1066.82044708 152.9690775 1073.12683657 153.33984375 1079.43359375 C153.42304485 1080.81577593 153.50651117 1082.19794217 153.59022522 1083.58009338 C153.85433689 1087.94907954 154.11491828 1092.31827234 154.375 1096.6875 C154.71478649 1102.39469326 155.05625803 1108.10177865 155.40234375 1113.80859375 C155.4447349 1114.50796177 155.48712605 1115.20732979 155.53080177 1115.92789078 C156.29779129 1128.51736869 157.23481349 1141.09058293 158.23471069 1153.66360474 C158.66142934 1159.10601733 159.02774929 1164.55195743 159.375 1170 C159.45435791 1171.23145752 159.53371582 1172.46291504 159.61547852 1173.73168945 C160.53069301 1188.14754563 161.28395261 1202.57290496 162.06860352 1216.99630737 C162.88908058 1232.0279041 163.80126093 1247.0469782 164.875 1262.0625 C166.34953982 1282.70877205 167.45884545 1303.37259398 168.56703949 1324.04097748 C169.60677267 1343.43100538 170.6780771 1362.81419443 172 1382.1875 C173.34438698 1401.89233965 174.38129711 1421.60889563 175.34790039 1441.33569336 C175.93059149 1453.12169026 176.59361826 1464.89544323 177.40625 1476.66796875 C178.50506729 1492.6413811 179.32377893 1508.62514746 180.12625122 1524.61566162 C180.55365111 1533.12825095 180.98999931 1541.64038101 181.4296875 1550.15234375 C181.49471686 1551.41175907 181.49471686 1551.41175907 181.56105995 1552.69661713 C182.28508825 1566.6786784 183.10413443 1580.65284421 184 1594.625 C185.36471331 1615.95399978 186.39120526 1637.29541641 187.37646484 1658.64453125 C188.16585039 1675.7665708 188.16585039 1675.7665708 189.0703125 1692.8828125 C189.1425428 1694.16980042 189.1425428 1694.16980042 189.2162323 1695.48278809 C189.42966254 1699.2575712 189.64930206 1703.0318463 189.87915039 1706.80566406 C190.4316529 1716.33946148 190.4375 1725.65364159 190.4375 1735.25 C37.3175 1735.25 -115.8025 1735.25 -273.5625 1735.25 C-272.2425 1727.66 -270.9225 1720.07 -269.5625 1712.25 C-268.662001 1706.84936665 -267.76727447 1701.44866322 -266.8984375 1696.04296875 C-266.7837336 1695.32996738 -266.66902969 1694.61696602 -266.55084991 1693.88235855 C-265.6708493 1688.40213624 -264.80156143 1682.92025636 -263.9375 1677.4375 C-263.74356281 1676.20786844 -263.74356281 1676.20786844 -263.5457077 1674.95339584 C-257.76864737 1638.25461421 -253.18388486 1601.44250472 -248.88462257 1564.54535675 C-247.89109327 1556.01890073 -246.87063199 1547.49624608 -245.8203125 1538.9765625 C-242.32102771 1510.53792839 -239.23006554 1482.06352097 -236.3125 1453.55957031 C-235.81756026 1448.72504667 -235.31756611 1443.89109332 -234.8125 1439.05761719 C-231.33891694 1405.79919726 -228.35352561 1372.52549681 -225.68066406 1339.19506836 C-225.43594231 1336.14694074 -225.19082964 1333.09884491 -224.9453125 1330.05078125 C-224.88581421 1329.31190863 -224.82631592 1328.573036 -224.76501465 1327.8117733 C-223.67469686 1314.30862204 -222.41352427 1300.82601351 -221.06594849 1287.34625244 C-219.75376042 1274.15348784 -218.82366083 1260.96199458 -218.15722656 1247.72094727 C-218.05812988 1245.77853149 -218.05812988 1245.77853149 -217.95703125 1243.796875 C-217.87739136 1242.10836426 -217.87739136 1242.10836426 -217.79614258 1240.38574219 C-217.56538156 1237.28867374 -217.08588374 1234.30916368 -216.5625 1231.25 C-216.43913007 1229.7039013 -216.34391316 1228.1552154 -216.28125 1226.60546875 C-216.24386719 1225.76306641 -216.20648438 1224.92066406 -216.16796875 1224.05273438 C-216.13316406 1223.18970703 -216.09835937 1222.32667969 -216.0625 1221.4375 C-215.99239561 1219.72253898 -215.91949549 1218.00768988 -215.84375 1216.29296875 C-215.81345703 1215.54039795 -215.78316406 1214.78782715 -215.75195312 1214.01245117 C-215.59311703 1211.69643262 -215.35727471 1209.41977446 -215.08544922 1207.11547852 C-214.48768062 1201.87236675 -214.19073418 1196.62784618 -213.9140625 1191.359375 C-213.79633257 1189.21069187 -213.67857418 1187.06201029 -213.56079102 1184.91333008 C-213.50013458 1183.78955963 -213.43947815 1182.66578918 -213.37698364 1181.50796509 C-211.74315509 1151.26042783 -211.74315509 1151.26042783 -210.83984375 1138.91015625 C-209.03707133 1114.19586124 -207.79737696 1089.46669129 -206.68738937 1064.71306992 C-206.56840416 1062.06871533 -206.4477904 1059.42444036 -206.32669067 1056.78018188 C-205.68045347 1042.60573025 -205.1060561 1028.42873938 -204.5625 1014.25 C-204.52069666 1013.1615392 -204.52069666 1013.1615392 -204.4780488 1012.05108929 C-202.36210958 956.86531878 -200.9442166 901.69372456 -200.12686276 846.47409922 C-199.96862567 835.81626079 -199.79801112 825.1586235 -199.62744141 814.50097656 C-199.56476606 810.57757653 -199.50215823 806.65417543 -199.4395752 802.73077393 C-199.42414539 801.7639883 -199.40871559 800.79720268 -199.39281821 799.80112052 C-199.28535628 793.0595509 -199.17935184 786.31795939 -199.07409668 779.57635498 C-198.59365 748.82720002 -198.06876533 718.07913122 -197.49882889 687.33149719 C-197.43856564 684.05788726 -197.37944544 680.78425887 -197.32077026 677.51062012 C-196.97555229 658.2668343 -196.60461286 639.02925857 -195.93928528 619.79345703 C-195.58680781 609.48341691 -195.33067438 599.17272001 -195.09765625 588.859375 C-195.0786174 588.02103434 -195.05957855 587.18269367 -195.03996277 586.31894875 C-194.96183582 582.87795352 -194.88393385 579.43695329 -194.80634308 575.99594593 C-194.18079949 548.28498025 -193.49792828 520.58645793 -192.30834961 492.89306641 C-191.82397298 481.51495753 -191.42949685 470.13855624 -191.1328125 458.75390625 C-191.09668687 457.37774586 -191.06053348 456.0015862 -191.02435303 454.62542725 C-191.0062344 453.93578888 -190.98811577 453.24615051 -190.96944809 452.53561401 C-190.02035881 416.44002108 -188.35356411 380.41437591 -186.37563896 344.3611908 C-185.71204381 332.26318289 -185.12910863 320.16365153 -184.61013794 308.0585022 C-183.93277198 292.32330416 -182.94340408 276.63098281 -181.73583984 260.92773438 C-180.81615819 248.94734993 -180.03461252 236.96339644 -179.30639648 224.96994019 C-177.22284498 190.85669176 -174.2367575 156.8600972 -170.01074219 122.94482422 C-169.58503486 119.43575307 -169.1949424 115.92500584 -168.8203125 112.41015625 C-165.77433033 84.18462441 -159.31874793 57.2740689 -145.5625 32.25 C-145.01078125 31.20972656 -144.4590625 30.16945313 -143.890625 29.09765625 C-131.97642723 7.51026457 -113.85709919 -10.1445749 -90.08203125 -17.8828125 C-87.2470023 -18.60829817 -84.44261752 -19.23599673 -81.5625 -19.75 C-80.68851563 -19.93304687 -79.81453125 -20.11609375 -78.9140625 -20.3046875 C-50.39534695 -24.09388747 -22.92826325 -17.23221656 0 0 Z " fill="#FEFEFE" transform="translate(527.5625,547.75)"/>
<path d="M0 0 C327.36 0 654.72 0 992 0 C992 1219.02 992 2438.04 992 3694 C664.64 3694 337.28 3694 0 3694 C0 2474.98 0 1255.96 0 0 Z M3 3 C3 942.51 3 1882.02 3 2850 C3.33 2850 3.66 2850 4 2850 C4.18433594 2848.98808594 4.36867188 2847.97617188 4.55859375 2846.93359375 C18.46590158 2774.37190001 49.78420941 2703.53604191 76.50009155 2634.98693848 C78.73439749 2629.2537506 80.96287436 2623.51837436 83.18334961 2617.77981567 C90.88981612 2597.86490956 98.7848593 2578.04120531 106.93353271 2558.30307007 C107.26484192 2557.50051788 107.59615112 2556.6979657 107.9375 2555.87109375 C108.26993713 2555.06588287 108.60237427 2554.260672 108.94488525 2553.43106079 C112.46419345 2544.89488677 115.91758471 2536.33233835 119.37084961 2527.76928711 C127.75662186 2506.98047978 136.29994228 2486.25975163 144.92828369 2465.57055664 C145.99517402 2463.01157531 147.0609612 2460.45213711 148.12646484 2457.89257812 C160.5022993 2428.17032786 173.09705945 2398.54242395 185.74609375 2368.93554688 C186.8847545 2366.26980372 188.02267223 2363.60374544 189.16015625 2360.9375 C196.93301619 2342.71967928 204.79042369 2324.5393252 212.6875 2306.375 C213.34267105 2304.86800537 213.34267105 2304.86800537 214.01107788 2303.33056641 C215.26071136 2300.45710389 216.51103343 2297.58394234 217.76171875 2294.7109375 C218.13087402 2293.86244232 218.5000293 2293.01394714 218.88037109 2292.13973999 C219.23268799 2291.33098419 219.58500488 2290.52222839 219.94799805 2289.68896484 C220.28707184 2288.90735489 220.62614563 2288.12574493 220.97549438 2287.32044983 C221.66465061 2285.75954824 222.37140087 2284.20630887 223.09457397 2282.66087341 C225.27728174 2277.96273983 226.7255818 2273.62590919 227.640625 2268.48828125 C227.76837311 2267.78437759 227.89612122 2267.08047394 228.02774048 2266.35523987 C228.44842813 2264.00978665 228.85022406 2261.66160246 229.25 2259.3125 C229.54963682 2257.59326083 229.84927891 2255.87402258 230.14892578 2254.15478516 C246.71395339 2158.05089146 257.04636411 2060.61379281 295 1556 C295.02915245 1555.31244125 295.0583049 1554.62488251 295.08834076 1553.91648865 C297.80499325 1489.62508726 298.56559279 1425.25227468 299.6875 1360.91796875 C299.71786895 1359.17700766 299.74823904 1357.43604658 299.77861023 1355.69508553 C299.79373673 1354.82798468 299.80886323 1353.96088384 299.82444811 1353.06750721 C303.01333287 1170.27798621 303.01333287 1170.27798621 313 887 C313.04019005 886.17778206 313.0803801 885.35556412 313.12178802 884.50843048 C316.89541494 807.48235354 321.42754437 730.21022102 371 544 C371.47260254 543.39414062 371.94520508 542.78828125 372.43212891 542.1640625 C391.38217674 518.17121395 417.14364653 503.37887672 447.375 498.75 C482.54176158 494.70071521 518.08540574 504.09020334 546.22705078 525.59082031 C599.36707239 567.82769785 616.02984931 639.62271971 623.40771484 703.80908203 C624.90641616 717.04110401 626.30254607 730.28434673 627.69396591 743.52799988 C628.13286657 747.70369918 628.57522668 751.87902845 629.01797485 756.05432129 C638.86205443 848.93872222 648.10291379 941.88869249 737.5625 2101.0625 C737.60652759 2101.8567255 737.65055519 2102.650951 737.69591695 2103.46924394 C738.97090462 2126.47013721 740.24279598 2149.47120073 741.51165891 2172.47243267 C741.62741796 2174.57067958 741.74320795 2176.66892477 741.85900688 2178.76716948 C741.8964366 2179.44547623 741.93386633 2180.12378299 741.97243028 2180.8226445 C742.04716691 2182.17694951 742.1219207 2183.53125357 742.196692 2184.88555667 C742.37953313 2188.19847666 742.56175684 2191.51142903 742.743204 2194.8244257 C743.09101608 2201.17127601 743.44450154 2207.51768196 743.81204414 2213.86342239 C744.46173349 2225.20579132 745.04672278 2236.54009246 745.39890701 2247.89611226 C745.56245676 2253.0787694 745.75950265 2258.25993487 745.9585017 2263.44133651 C746.04211274 2265.87936949 746.10870042 2268.31805663 746.15674698 2270.75704968 C745.99277395 2285.90255906 745.99277395 2285.90255906 752.85401917 2298.73280334 C754.54709491 2300.18161653 756.26159388 2301.60590199 758 2303 C759.45521925 2304.67561456 760.87744195 2306.38102992 762.25 2308.125 C762.97960937 2309.02863281 763.70921875 2309.93226563 764.4609375 2310.86328125 C765.05600098 2311.60118896 765.05600098 2311.60118896 765.66308594 2312.35400391 C767.77717595 2314.95685176 769.92046698 2317.53541927 772.05932617 2320.11791992 C784.16109724 2334.7451648 795.6997912 2349.74516785 807 2365 C807.83168701 2366.12148438 807.83168701 2366.12148438 808.68017578 2367.265625 C817.52384289 2379.23296035 825.82316328 2391.54015262 834.00341797 2403.96826172 C835.91415331 2406.86964487 837.83351334 2409.76516015 839.75390625 2412.66015625 C854.85373047 2435.51475452 868.86207231 2458.96540726 882 2483 C882.59490234 2484.08152344 883.18980469 2485.16304687 883.80273438 2486.27734375 C898.21189803 2512.523153 911.47705689 2539.35726525 923 2567 C923.47969238 2568.1353418 923.95938477 2569.27068359 924.45361328 2570.44042969 C955.48853086 2644.04450192 975.64655463 2722.70505112 985.82537842 2823.9838562 C985.97986257 2825.76749754 986.14740251 2827.54999757 986.31689453 2829.33227539 C987.37857241 2841.66882036 987.24295649 2854.06484312 987.25 2866.4375 C987.25100708 2867.66276398 987.25201416 2868.88802795 987.25305176 2870.15042114 C987.24260122 2888.95754933 986.69974101 2907.36754657 984 2926 C983.76724365 2927.63751221 983.76724365 2927.63751221 983.52978516 2929.30810547 C975.32333524 2985.5319076 951.79621197 3039.78266478 916 3084 C915.48501953 3084.64356445 914.97003906 3085.28712891 914.43945312 3085.95019531 C906.57013918 3095.77076855 898.33901886 3105.12560904 889.6640625 3114.23876953 C887.53791935 3116.48906247 885.4498287 3118.77257502 883.36279297 3121.05908203 C875.29583634 3129.88852094 867.04269681 3138.5350965 857.92578125 3146.29296875 C855.68863389 3148.27599795 853.59945348 3150.37193386 851.5 3152.5 C848.16879193 3155.87100065 844.74888372 3159.0451403 841.15234375 3162.12890625 C838.61947838 3164.33079829 836.15667478 3166.60195826 833.6875 3168.875 C829.1482504 3173.01925965 824.46541704 3176.92578398 819.68359375 3180.78515625 C817.05291443 3182.95632827 814.52057576 3185.20241357 812 3187.5 C806.82812206 3192.20616382 801.4379003 3196.60666812 796 3201 C794.26990474 3202.41553248 792.54074945 3203.83221453 790.8125 3205.25 C788.8751893 3206.83356495 786.93766862 3208.41687303 785 3210 C784.39494629 3210.4954834 783.78989258 3210.9909668 783.16650391 3211.50146484 C775.25867757 3217.97472912 767.30522051 3224.36457508 759.1796875 3230.5625 C755.92492925 3233.04802441 752.71244027 3235.58518044 749.5 3238.125 C674.28708922 3297.41700766 583.2224894 3350.89334454 477 3341 C393.5475535 3331.10500384 317.58033784 3282.60271324 255.04663086 3229.22436523 C251.11481277 3225.88934612 247.08282283 3222.70974664 243 3219.5625 C237.62928071 3215.41057237 232.61776918 3210.99005563 227.67919922 3206.33569336 C224.43080371 3203.2844548 221.11212865 3200.40646156 217.625 3197.625 C211.6039391 3192.79404631 206.04657138 3187.50983644 200.43359375 3182.21875 C197.38228281 3179.34538437 194.26317053 3176.56919037 191.0859375 3173.8359375 C187.635511 3170.79904526 184.27968659 3167.65888096 180.91748047 3164.52490234 C178.01915477 3161.83160869 175.0856327 3159.19137313 172.09765625 3156.59765625 C167.9445587 3152.98018628 163.93333671 3149.22706057 159.9375 3145.4375 C158.44691984 3144.02832288 156.95602814 3142.61947522 155.46484375 3141.2109375 C154.72089355 3140.50807617 153.97694336 3139.80521484 153.21044922 3139.08105469 C149.82251865 3135.89144565 146.40991091 3132.72856592 143 3129.5625 C138.1988018 3125.10143096 133.49143749 3120.57549973 128.9296875 3115.8671875 C126.97339262 3113.9084002 126.97339262 3113.9084002 124.50390625 3112.05078125 C121.96793578 3109.97373835 120.09601691 3107.87755005 118.0625 3105.3125 C116.89460938 3103.85263672 116.89460938 3103.85263672 115.703125 3102.36328125 C115.27451172 3101.82654785 114.84589844 3101.28981445 114.40429688 3100.73681641 C112.88898984 3098.86270405 111.34628938 3097.01397222 109.796875 3095.16796875 C101.07803549 3084.75997044 92.90912883 3074.03394089 85 3063 C84.4225 3062.19691406 83.845 3061.39382812 83.25 3060.56640625 C46.35516768 3009.09482099 13.32781608 2951.4746509 4 2888 C3.67 2888 3.34 2888 3 2888 C3 3152.99 3 3417.98 3 3691 C328.38 3691 653.76 3691 989 3691 C989 2473.96 989 1256.92 989 3 C663.62 3 338.24 3 3 3 Z M397.62109375 556.53515625 C345.73961381 617.0893612 350.4599472 721.08327858 346.68286133 795.86669922 C346.32842461 802.80204103 345.87596871 809.71715861 345.31869507 816.63891411 C344.14941772 831.21509811 343.29682032 845.79470249 342.5625 860.3984375 C342.43635274 862.86551057 342.31007262 865.33257684 342.18367004 867.79963684 C341.81722897 874.98467489 341.45793243 882.17005746 341.10057116 889.3555522 C340.99946546 891.38573336 340.89795995 893.41589416 340.79632187 895.44604874 C338.89390867 933.45291429 337.25500252 971.44123272 336.33647156 1009.48591614 C336.05479204 1020.74351841 335.66673324 1031.99636496 335.2578125 1043.25 C335.20769485 1044.62999207 335.20769485 1044.62999207 335.15656471 1046.03786278 C334.98625845 1050.71801198 334.81491229 1055.39812253 334.64309692 1060.07821655 C333.66358337 1086.77515112 332.70577817 1113.46543994 332.29077148 1140.1784668 C332.26441329 1141.86637767 332.2377749 1143.55428418 332.2109375 1145.2421875 C332.19841163 1146.03026354 332.18588575 1146.81833958 332.17298031 1147.63029671 C332.0678099 1153.57015532 331.88615558 1159.50443917 331.6736145 1165.44134426 C330.87850029 1187.97671539 330.51791582 1210.52054064 330.12382126 1233.06577945 C330.01907295 1239.03216695 329.91183375 1244.99850978 329.80493164 1250.96485901 C329.62530188 1261.00950565 329.4473233 1271.0541804 329.27050781 1281.09887695 C329.04734823 1293.77592681 328.82152672 1306.45292768 328.59480572 1319.12991428 C328.39636862 1330.22634506 328.19906544 1341.32279595 328.00210977 1352.41925311 C327.95900236 1354.84740846 327.91586301 1357.27556325 327.87269187 1359.70371747 C327.24965594 1394.57171536 327.24965594 1394.57171536 326.71606445 1429.44116211 C326.69606612 1430.87179503 326.67606726 1432.30242794 326.65606785 1433.73306084 C326.64166653 1434.76438356 326.64166653 1434.76438356 326.62697428 1435.81654108 C326.21035629 1465.64003576 325.43448637 1495.43341097 324.31630707 1525.23885345 C324.18420171 1528.77580751 324.05457728 1532.31284518 323.92559814 1535.84991455 C322.76483371 1567.6354668 321.48615767 1599.41506713 320.00061417 1631.18716812 C319.87710979 1633.82985577 319.7546257 1636.47258944 319.63217163 1639.11532593 C318.87691792 1655.33171598 318.04610709 1671.52687291 316.72679138 1687.70918274 C315.7324586 1699.98004663 315.09574035 1712.26983966 314.4375 1724.5625 C314.24889552 1728.07577285 314.05936554 1731.58898211 313.86671448 1735.10203552 C313.74855705 1737.25674214 313.63261964 1739.41157218 313.51939392 1741.56654358 C313.2338634 1746.77509183 312.82808725 1751.93648387 312.21421814 1757.11662292 C311.96895565 1759.27293772 311.83137536 1761.41732419 311.75390625 1763.5859375 C311.72232422 1764.36122803 311.69074219 1765.13651855 311.65820312 1765.93530273 C311.62662109 1766.74040283 311.59503906 1767.54550293 311.5625 1768.375 C311.23438191 1775.83899136 310.60504091 1783.21267496 309.74581909 1790.63247681 C309.10331512 1796.41720672 308.76717183 1802.17403262 308.54296875 1807.98828125 C308.15919024 1816.81523557 307.46667792 1825.56661255 306.55889893 1834.35321045 C305.06982643 1848.83782468 303.78208 1863.33798053 302.61328125 1877.8515625 C302.55347706 1878.59402662 302.49367287 1879.33649075 302.43205643 1880.10145378 C302.18531196 1883.16775255 301.93901739 1886.23408718 301.69309807 1889.30045223 C298.99217989 1922.97551873 295.91486451 1956.58932363 292.39715576 1990.19049072 C291.98905687 1994.10496624 291.58569206 1998.01991349 291.18408203 2001.93505859 C287.29501378 2039.82789769 282.96476121 2077.65132002 278.29176331 2115.45527649 C277.44870071 2122.2912233 276.62399823 2129.12836109 275.8515625 2135.97265625 C275.77189743 2136.67844315 275.69223236 2137.38423004 275.6101532 2138.11140442 C275.53376114 2138.78870102 275.45736908 2139.46599762 275.37866211 2140.16381836 C271.74623312 2172.26468083 266.80898908 2204.21285064 261.8125 2236.125 C261.65027954 2237.16284637 261.48805908 2238.20069275 261.32092285 2239.26998901 C260.84811507 2242.28718907 260.37201621 2245.30384938 259.89453125 2248.3203125 C259.69634544 2249.58218636 259.69634544 2249.58218636 259.49415588 2250.86955261 C257.78391591 2261.60180471 255.86254376 2272.2903734 254 2283 C407.12 2283 560.24 2283 718 2283 C718 2273.0861069 717.99880093 2263.33174033 717.41578674 2253.45838928 C717.37420504 2252.74374071 717.33262333 2252.02909214 717.28978157 2251.29278755 C717.24700521 2250.55808172 717.20422886 2249.82337589 717.16015625 2249.06640625 C717.07239667 2247.49391779 716.98512335 2245.92140213 716.89830017 2244.34886169 C716.67085597 2240.24721566 716.43825172 2236.14588128 716.20404053 2232.0446167 C715.78748532 2224.73972205 715.37899805 2217.4343752 714.97265625 2210.12890625 C714.9063523 2208.94228866 714.9063523 2208.94228866 714.83870888 2207.73169899 C714.29707171 2198.00564585 713.82454292 2188.28246373 713.484375 2178.546875 C713.03064883 2165.61891722 712.24952282 2152.71667008 711.44381714 2139.80651855 C710.989241 2132.51613784 710.54728517 2125.22499275 710.109375 2117.93359375 C710.06358244 2117.17133106 710.01778988 2116.40906837 709.97060966 2115.62370682 C708.89553844 2097.66421502 707.97559921 2079.69712606 707.06335068 2061.72875595 C705.86361147 2038.09868282 704.62987407 2014.47593499 703.03881836 1990.86816406 C702.21745849 1978.67126844 701.50167313 1966.46957844 700.81135559 1954.26467896 C700.1634704 1942.81604065 699.49528418 1931.36871558 698.81640625 1919.921875 C698.71407916 1918.19429625 698.61176908 1916.46671649 698.50947571 1914.73913574 C698.35353765 1912.10587556 698.19758725 1909.47261611 698.0415926 1906.83935928 C696.27991381 1877.10101526 694.52536292 1847.36330448 692.98852539 1817.61230469 C692.37896642 1805.96806359 691.60261291 1794.34618047 690.71687317 1782.71963501 C690.00018342 1773.23499071 689.45523084 1763.75028466 689 1754.25 C687.5288114 1723.85001873 685.28340683 1693.49583446 683.10180664 1663.14038086 C682.77275058 1658.55858303 682.44579606 1653.97663969 682.12109375 1649.39453125 C682.06907681 1648.66083879 682.01705986 1647.92714634 681.96346664 1647.17122078 C681.31616793 1638.00024028 680.7509983 1628.83096585 680.3356781 1619.64620972 C679.98004017 1612.00146766 679.35477545 1604.38467413 678.69940186 1596.7605896 C677.72222288 1585.37617036 676.74563734 1573.99760841 676.29101562 1562.57788086 C676.13500813 1558.79612604 675.76010923 1555.09837647 675.26318359 1551.34790039 C674.8168444 1547.36604134 674.60611243 1543.3702814 674.36625671 1539.37149048 C673.58765829 1526.41885562 672.69312014 1513.47834779 671.66796875 1500.54296875 C671.60450068 1499.73916842 671.5410326 1498.93536808 671.47564125 1498.10721016 C670.03145781 1479.88165979 668.3784972 1461.67625062 666.69793701 1443.47122192 C665.80919799 1433.84337641 664.92985406 1424.21466963 664.05078125 1414.5859375 C663.96258118 1413.62049326 663.8743811 1412.65504902 663.7835083 1411.66034889 C662.15564287 1393.83127474 660.59062717 1375.99721291 659.0555687 1358.15993881 C657.05963164 1334.97565512 655.01215887 1311.79672659 652.875 1288.625 C652.81186867 1287.94050655 652.74873734 1287.25601311 652.68369293 1286.55077744 C650.99091742 1268.21545784 649.24655735 1249.88621681 647.29248047 1231.57666016 C646.47249919 1223.86550572 645.74118546 1216.15246338 645.08227539 1208.42602539 C644.05494646 1196.50878334 642.9521159 1184.59950146 641.82421875 1172.69140625 C641.71981665 1171.58677095 641.61541454 1170.48213566 641.50784874 1169.34402657 C638.42168958 1136.70750203 635.23845519 1104.08029726 632.05768681 1071.4528861 C631.72675262 1068.0578125 631.39598805 1064.66272239 631.0652144 1061.26763314 C625.56365493 1004.80141449 619.99349355 948.34252169 614.29248047 891.8960495 C613.99242875 888.9250319 613.69249073 885.95400284 613.39257812 882.98297119 C611.61163196 865.34115307 609.82982719 847.69942164 608.04150391 830.05834961 C607.86754292 828.34171047 607.69358255 826.62507127 607.5196228 824.90843201 C607.18162501 821.57324107 606.84319948 818.23809389 606.50454712 814.90296936 C605.63232114 806.30433906 604.77143115 797.70470583 603.92480469 789.10351562 C603.65790297 786.40119729 603.3908596 783.69889299 603.123806 780.99658966 C602.87662811 778.48649451 602.6322342 775.97613934 602.38796997 773.46575928 C601.56110809 765.05232074 600.61269576 756.67500333 599.43785095 748.30265808 C598.67825123 742.57308699 598.20275456 736.81817606 597.6875 731.0625 C591.54152721 666.04605635 581.52970767 594.46740229 529.5234375 549.0234375 C490.19582998 517.4882971 431.87181651 518.40333176 397.62109375 556.53515625 Z M239.43571854 2316.81685352 C238.04382511 2319.40210412 238.04382511 2319.40210412 237 2322 C236.2924683 2323.38556016 235.58307274 2324.77017325 234.87036133 2326.15307617 C234.26295659 2327.52810629 233.6671471 2328.90830714 233.08203125 2330.29296875 C232.74709152 2331.06025803 232.41215179 2331.8275473 232.06706238 2332.61808777 C230.97119167 2335.13661384 229.89164674 2337.66176807 228.8125 2340.1875 C228.03010008 2341.99660409 227.24687698 2343.80535237 226.46289062 2345.61376953 C224.38327765 2350.42092142 222.31929431 2355.2346127 220.26080322 2360.05084229 C219.01107941 2362.97408403 217.75858381 2365.89612358 216.50537109 2368.81787109 C205.64088216 2394.16027612 194.95264296 2419.57634843 184.33273315 2445.02206421 C181.70808337 2451.30936292 179.07477864 2457.59298921 176.4375 2463.875 C167.54284824 2485.06768628 158.73169932 2506.29210165 150.04071045 2527.56913757 C147.98507492 2532.59928734 145.91972669 2537.62532322 143.84692383 2542.64842224 C131.61892707 2572.28278605 119.84650645 2602.08763544 108.19073486 2631.95123291 C106.79423394 2635.52684507 105.3940507 2639.10100456 103.99327087 2642.67494202 C68.1515732 2733.60481663 68.1515732 2733.60481663 38.64208984 2826.71533203 C38.04257463 2828.84851202 37.41425863 2830.96995494 36.76953125 2833.08984375 C22.63798909 2880.07594601 38.89545646 2927.00662041 60 2969 C60.63832764 2970.27496338 60.63832764 2970.27496338 61.28955078 2971.57568359 C63.75003141 2976.44688688 66.31952736 2981.24649996 69 2986 C69.556875 2986.98806641 69.556875 2986.98806641 70.125 2987.99609375 C80.49508387 3006.24884272 91.84610454 3023.90052663 104.34814453 3040.76269531 C106.05812311 3043.07872306 107.74747976 3045.40873891 109.43359375 3047.7421875 C116.76558896 3057.85249359 124.43682898 3067.59095581 132.46484375 3077.15625 C133.84954966 3078.81930646 135.21224168 3080.49644165 136.5625 3082.1875 C143.00788661 3090.24423327 150.00652081 3097.34821504 157.8359375 3104.0546875 C161.40901629 3107.26658865 164.73846033 3110.72010997 168.09375 3114.15625 C170.9031961 3116.96968396 173.89406618 3119.55044482 176.8984375 3122.15234375 C180.43415817 3125.26088627 183.83570214 3128.50939749 187.25 3131.75 C196.57923806 3140.56643012 206.01549377 3149.25252392 215.57421875 3157.8203125 C217.2075393 3159.28793386 218.83505543 3160.76203787 220.45703125 3162.2421875 C224.65079008 3166.05949869 228.89316104 3169.75781432 233.3125 3173.3125 C237.53399143 3176.7242272 241.54069351 3180.29321667 245.5 3184 C250.24872256 3188.44134158 255.11707949 3192.64715837 260.1875 3196.72265625 C263.33234781 3199.26910941 266.41843683 3201.87771044 269.5 3204.5 C279.24555036 3212.77193747 289.17998494 3220.78782557 299.26220703 3228.64453125 C300.90541648 3229.92622538 302.54460519 3231.21291643 304.18359375 3232.5 C325.61347501 3249.19443934 348.19214999 3263.45931191 372.44628906 3275.70556641 C374.64831355 3276.82173599 376.83820985 3277.95690952 379.0234375 3279.10546875 C399.78599147 3289.92055736 421.52471723 3298.50852262 444 3305 C444.86979492 3305.25362305 445.73958984 3305.50724609 446.63574219 3305.76855469 C457.96629509 3309.03164824 469.33060599 3311.33767266 481 3313 C482.74603516 3313.27650391 482.74603516 3313.27650391 484.52734375 3313.55859375 C505.81137788 3316.12005569 528.12074953 3314.27638768 549 3310 C549.89364258 3309.82339844 550.78728516 3309.64679687 551.70800781 3309.46484375 C599.66767953 3299.78326516 650.09609017 3277.73192802 689 3248 C690.6496504 3246.7498823 692.29939782 3245.49989263 693.94921875 3244.25 C697.57696671 3241.49559266 701.19692537 3238.73130015 704.8125 3235.9609375 C709.30679065 3232.52092428 713.83429645 3229.12834204 718.375 3225.75 C724.2052584 3221.40240819 729.91275522 3216.92119948 735.57226562 3212.35400391 C739.46321964 3209.21643535 743.39589726 3206.15010668 747.375 3203.125 C754.76713455 3197.47165572 761.91540045 3191.53154897 769.07714844 3185.59082031 C771.62350345 3183.48416094 774.18622388 3181.3979039 776.75 3179.3125 C782.31997095 3174.75906975 787.81394926 3170.11900205 793.29101562 3165.45458984 C794.44238858 3164.47460698 795.59475354 3163.49578855 796.74804688 3162.51806641 C804.08440569 3156.29837437 811.28759093 3149.9691244 818.34765625 3143.4375 C820.47490534 3141.48256122 822.62272252 3139.57117955 824.8125 3137.6875 C836.15049575 3127.79252189 846.85254753 3117.24995025 857.5 3106.625 C858.06612 3106.0614682 858.63223999 3105.4979364 859.21551514 3104.91732788 C865.36360411 3098.79140562 871.37609349 3092.61711936 877 3086 C877.99717559 3084.87769246 878.9971437 3083.75785936 880 3082.640625 C888.96306884 3072.55476233 897.0930232 3061.92785335 905 3051 C905.45971191 3050.37222656 905.91942383 3049.74445312 906.39306641 3049.09765625 C925.39927149 3022.93538878 938.63785134 2991.75941703 948 2961 C948.37511719 2959.80761719 948.75023437 2958.61523438 949.13671875 2957.38671875 C963.09204467 2909.56352675 960.8407788 2857.07034859 956 2808 C955.88253418 2806.80890625 955.76506836 2805.6178125 955.64404297 2804.390625 C954.90937792 2797.23860192 954.00986004 2790.11809557 953 2783 C952.83274414 2781.8155127 952.66548828 2780.63102539 952.49316406 2779.41064453 C946.10534688 2734.95212014 936.66395618 2690.80235914 923 2648 C922.56421631 2646.61433838 922.56421631 2646.61433838 922.11962891 2645.20068359 C909.44964818 2605.04507979 892.60864117 2566.48383253 873.89501953 2528.82080078 C872.21490642 2525.4389874 870.55569473 2522.0473341 868.90234375 2518.65234375 C863.28359614 2507.1697818 857.20715022 2496.02280675 850.74853516 2484.9921875 C849.15099568 2482.25839194 847.56413578 2479.51863559 845.98066711 2476.77667236 C837.90374496 2462.79824489 829.66939811 2448.97389952 820.69824219 2435.54443359 C818.83359463 2432.75067902 816.98290836 2429.94794166 815.1328125 2427.14453125 C795.60035461 2397.61351172 774.86783531 2369.2180401 752.47216797 2341.80419922 C751.17728489 2340.21726954 749.88709522 2338.62651263 748.59765625 2337.03515625 C744.34331406 2331.79608386 740.01055362 2326.62932559 735.625 2321.5 C734.85627563 2320.59967041 734.85627563 2320.59967041 734.07202148 2319.68115234 C732.72468076 2318.11212564 731.3630335 2316.5554136 730 2315 C729.42119705 2314.17793885 729.42119705 2314.17793885 728.83070111 2313.33927041 C725.88054797 2311.18105201 722.62562528 2311.579824 719.1072197 2311.60292339 C718.29037085 2311.5964659 717.473522 2311.5900084 716.63192016 2311.58335522 C713.87108217 2311.56526567 711.11068207 2311.56870381 708.34979248 2311.57194519 C706.35990786 2311.56348271 704.37002837 2311.55373174 702.3801558 2311.54279691 C696.89346932 2311.51658172 691.40689407 2311.50933617 685.92015243 2311.50521266 C680.00995981 2311.49762017 674.09983434 2311.47295024 668.18968201 2311.45072937 C654.58339893 2311.40327327 640.97711734 2311.38148404 627.37077002 2311.3638848 C620.64875437 2311.35500947 613.92674664 2311.34258226 607.20473745 2311.32980952 C584.19988735 2311.28624691 561.19503967 2311.24981166 538.19015121 2311.23548412 C536.74571693 2311.2345661 535.30128265 2311.23364664 533.85684837 2311.23272576 C532.78237288 2311.23204373 532.78237288 2311.23204373 531.6861908 2311.23134793 C528.05690713 2311.22904223 524.42762348 2311.22671501 520.79833984 2311.22436523 C520.0780948 2311.2239063 519.35784975 2311.22344737 518.61577909 2311.22297453 C495.25822659 2311.2078174 471.90100767 2311.15253835 448.54359004 2311.07342856 C423.85555264 2310.98996468 399.16770775 2310.94278935 374.4795258 2310.93710405 C371.77009529 2310.93634358 369.06066487 2310.93543316 366.35123444 2310.934412 C365.68408422 2310.93417727 365.016934 2310.93394254 364.3295671 2310.9337007 C354.25224761 2310.92935187 344.17525201 2310.8974161 334.09804535 2310.85100365 C322.63718882 2310.79858803 311.17691848 2310.78015151 299.71596089 2310.80644663 C293.86565473 2310.81883553 288.01654144 2310.81489144 282.16638756 2310.7675705 C276.81279076 2310.72465217 271.46127933 2310.72768204 266.10767785 2310.76764921 C264.16887214 2310.77397153 262.22992295 2310.76330098 260.29132637 2310.73413184 C248.42933889 2310.14124222 248.42933889 2310.14124222 239.43571854 2316.81685352 Z " fill="#010101" transform="translate(0,0)"/>
<path d="M0 0 C327.36 0 654.72 0 992 0 C992 1219.02 992 2438.04 992 3694 C664.64 3694 337.28 3694 0 3694 C0 2474.98 0 1255.96 0 0 Z M3 3 C3 1220.04 3 2437.08 3 3691 C328.38 3691 653.76 3691 989 3691 C989 2473.96 989 1256.92 989 3 C663.62 3 338.24 3 3 3 Z " fill="#FCFCFC" transform="translate(0,0)"/>
<path d="M0 0 C2.70148131 2.39630756 4.11316123 4.8773752 5.69921875 8.10546875 C6.42915039 9.57983398 6.42915039 9.57983398 7.17382812 11.08398438 C7.67333984 12.10814453 8.17285156 13.13230469 8.6875 14.1875 C9.19861328 15.22326172 9.70972656 16.25902344 10.23632812 17.32617188 C11.49632806 19.88149886 12.75063868 22.43945919 14 25 C10.25254914 28.13432162 6.02441686 30.09183761 1.66015625 32.2109375 C0.83430023 32.61552185 0.00844421 33.0201062 -0.84243774 33.43695068 C-3.53825065 34.75492044 -6.23750912 36.06561252 -8.9375 37.375 C-9.85949188 37.82341248 -10.78148376 38.27182495 -11.73141479 38.73382568 C-27.68200781 46.48582946 -43.7195388 53.96357171 -60 61 C-61.0115918 61.43957031 -62.02318359 61.87914063 -63.06542969 62.33203125 C-79.79535629 69.5683667 -96.83183593 75.89738735 -114 82 C-114.98129883 82.35223633 -115.96259766 82.70447266 -116.97363281 83.06738281 C-135.29578754 89.60866159 -154.08269558 93.87015224 -173.125 97.75 C-174.09469727 97.94867676 -175.06439453 98.14735352 -176.06347656 98.35205078 C-189.85821855 101.07967936 -203.22459869 102.38278581 -217.25 102.3125 C-218.42053421 102.30926727 -218.42053421 102.30926727 -219.61471558 102.30596924 C-277.22959823 102.05276204 -332.35547866 82.22684714 -384 58 C-381.34810503 48.88411104 -377.1194169 40.5225941 -373 32 C-368.61454372 32.6710617 -364.7674913 34.23712959 -360.7265625 35.9921875 C-359.2637131 36.61620106 -357.80065031 37.23971458 -356.33740234 37.86279297 C-355.57014832 38.19100037 -354.80289429 38.51920776 -354.01239014 38.85736084 C-322.62249985 52.23748715 -289.91906004 64.84650414 -256 70 C-254.80810059 70.18353027 -253.61620117 70.36706055 -252.38818359 70.55615234 C-243.10687037 71.89619547 -233.97870498 72.2848892 -224.60839844 72.20581055 C-222.36902465 72.18745101 -220.13006673 72.18530282 -217.890625 72.18554688 C-203.93143849 72.15470821 -190.5562316 71.22026739 -176.875 68.25 C-175.72257813 68.01023437 -174.57015625 67.77046875 -173.3828125 67.5234375 C-169.57998534 66.71803524 -165.78776238 65.87296108 -162 65 C-161.24359222 64.82614777 -160.48718445 64.65229553 -159.70785522 64.47317505 C-147.042281 61.52612257 -134.80588649 57.8056109 -122.5625 53.4375 C-121.70115448 53.13286835 -120.83980896 52.82823669 -119.95236206 52.51437378 C-84.85593614 40.08666657 -51.07601405 24.56926782 -17.67089844 8.19042969 C-16.6749617 7.70274109 -16.6749617 7.70274109 -15.65890503 7.2052002 C-13.87176214 6.32914251 -12.08597369 5.45032327 -10.30029297 4.57128906 C-6.89918839 2.952003 -3.4713332 1.4612083 0 0 Z " fill="#020202" transform="translate(704,2941)"/>
</svg>
