<?xml version="1.0" encoding="UTF-8"?>
<!DOCTYPE svg PUBLIC "-//W3C//DTD SVG 1.1//EN" "http://www.w3.org/Graphics/SVG/1.1/DTD/svg11.dtd">
<svg xmlns="http://www.w3.org/2000/svg" version="1.1" width="1057px" height="3694px" style="shape-rendering:geometricPrecision; text-rendering:geometricPrecision; image-rendering:optimizeQuality; fill-rule:evenodd; clip-rule:evenodd" xmlns:xlink="http://www.w3.org/1999/xlink">
<g><path style="opacity:0.779" fill="#fdfdfd" d="M -0.5,-0.5 C 351.833,-0.5 704.167,-0.5 1056.5,-0.5C 1056.5,1230.83 1056.5,2462.17 1056.5,3693.5C 704.167,3693.5 351.833,3693.5 -0.5,3693.5C -0.5,2462.17 -0.5,1230.83 -0.5,-0.5 Z M 1053.5,789.5 C 1050.24,765.771 1044.74,742.438 1037,719.5C 1030.94,706.373 1023.61,694.04 1015,682.5C 993.315,655.474 970.149,629.641 945.5,605C 913.36,573.519 880.027,543.519 845.5,515C 791.973,471.468 737.307,429.468 681.5,389C 657.118,374.651 630.785,366.318 602.5,364C 567.458,360.407 532.458,360.74 497.5,365C 463.139,370.019 431.473,382.019 402.5,401C 361.613,428.555 321.28,456.888 281.5,486C 216.265,534.566 151.598,583.9 87.5,634C 42.0312,677.101 15.1979,729.934 7,792.5C 5.22479,804.951 3.72479,817.284 2.5,829.5C 2.5,553.833 2.5,278.167 2.5,2.5C 352.833,2.5 703.167,2.5 1053.5,2.5C 1053.5,264.833 1053.5,527.167 1053.5,789.5 Z M 2.5,863.5 C 6.09609,904.543 16.5961,943.876 34,981.5C 59.148,1031.26 87.4813,1078.92 119,1124.5C 185.117,1219.63 255.45,1311.63 330,1400.5C 336.256,1487.62 340.923,1574.95 344,1662.5C 357.864,2012.36 364.531,2362.36 364,2712.5C 365.339,2811.25 372.339,2909.58 385,3007.5C 389.967,3049.39 401.967,3089.06 421,3126.5C 449.104,3175.43 490.604,3193.26 545.5,3180C 569.606,3170.57 589.773,3155.73 606,3135.5C 628.565,3106.05 646.231,3073.72 659,3038.5C 681.346,2976.44 694.346,2912.44 698,2846.5C 721.377,2612.69 742.71,2378.69 762,2144.5C 767.945,2053.89 772.945,1963.22 777,1872.5C 783.972,1714.16 790.639,1555.83 797,1397.5C 829.079,1323.66 867.079,1253.32 911,1186.5C 939.39,1146.44 967.39,1106.11 995,1065.5C 1013.71,1036.74 1028.71,1006.07 1040,973.5C 1041.71,967.926 1043.05,962.26 1044,956.5C 1048.23,926.461 1051.4,896.461 1053.5,866.5C 1053.5,1807.83 1053.5,2749.17 1053.5,3690.5C 703.167,3690.5 352.833,3690.5 2.5,3690.5C 2.5,2748.17 2.5,1805.83 2.5,863.5 Z"/></g>
<g><path style="opacity:0.982" fill="#010101" d="M 1053.5,789.5 C 1054.66,815.161 1054.66,840.828 1053.5,866.5C 1051.4,896.461 1048.23,926.461 1044,956.5C 1043.05,962.26 1041.71,967.926 1040,973.5C 1028.71,1006.07 1013.71,1036.74 995,1065.5C 967.39,1106.11 939.39,1146.44 911,1186.5C 867.079,1253.32 829.079,1323.66 797,1397.5C 790.639,1555.83 783.972,1714.16 777,1872.5C 772.945,1963.22 767.945,2053.89 762,2144.5C 742.71,2378.69 721.377,2612.69 698,2846.5C 694.346,2912.44 681.346,2976.44 659,3038.5C 646.231,3073.72 628.565,3106.05 606,3135.5C 589.773,3155.73 569.606,3170.57 545.5,3180C 490.604,3193.26 449.104,3175.43 421,3126.5C 401.967,3089.06 389.967,3049.39 385,3007.5C 372.339,2909.58 365.339,2811.25 364,2712.5C 364.531,2362.36 357.864,2012.36 344,1662.5C 340.923,1574.95 336.256,1487.62 330,1400.5C 255.45,1311.63 185.117,1219.63 119,1124.5C 87.4813,1078.92 59.148,1031.26 34,981.5C 16.5961,943.876 6.09609,904.543 2.5,863.5C 2.5,852.167 2.5,840.833 2.5,829.5C 3.72479,817.284 5.22479,804.951 7,792.5C 15.1979,729.934 42.0312,677.101 87.5,634C 151.598,583.9 216.265,534.566 281.5,486C 321.28,456.888 361.613,428.555 402.5,401C 431.473,382.019 463.139,370.019 497.5,365C 532.458,360.74 567.458,360.407 602.5,364C 630.785,366.318 657.118,374.651 681.5,389C 737.307,429.468 791.973,471.468 845.5,515C 880.027,543.519 913.36,573.519 945.5,605C 970.149,629.641 993.315,655.474 1015,682.5C 1023.61,694.04 1030.94,706.373 1037,719.5C 1044.74,742.438 1050.24,765.771 1053.5,789.5 Z"/></g>
<g><path style="opacity:1" fill="#fefefe" d="M 521.5,391.5 C 541.503,391.333 561.503,391.5 581.5,392C 616.866,391.707 648.866,401.707 677.5,422C 743.56,470.716 807.893,521.716 870.5,575C 911.066,610.899 948.899,649.399 984,690.5C 991.157,699.481 997.824,708.815 1004,718.5C 1008.11,726.176 1011.45,734.176 1014,742.5C 1025.45,782.133 1028.78,822.466 1024,863.5C 1022.24,895.005 1018.91,926.338 1014,957.5C 1003.28,990.944 988.277,1022.28 969,1051.5C 942.723,1090.11 916.056,1128.44 889,1166.5C 845.652,1231.46 807.819,1299.79 775.5,1371.5C 634.207,1370.67 492.873,1370.17 351.5,1370C 348.616,1365.64 344.783,1364.47 340,1366.5C 261.223,1271.92 187.556,1173.59 119,1071.5C 93.9106,1033.33 71.9106,993.331 53,951.5C 23.9363,876.605 24.603,801.938 55,727.5C 68.0424,698.573 86.5424,673.74 110.5,653C 188.45,592.694 267.116,533.361 346.5,475C 376.749,452.762 408.083,432.095 440.5,413C 466.158,400.309 493.158,393.143 521.5,391.5 Z"/></g>
<g><path style="opacity:1" fill="#fefefe" d="M 359.5,1399.5 C 495.167,1399.5 630.833,1399.5 766.5,1399.5C 759.413,1615.26 750.246,1830.92 739,2046.5C 736.55,2081.15 734.216,2115.82 732,2150.5C 711.277,2405.45 687.61,2660.12 661,2914.5C 651.811,2975.94 632.478,3033.94 603,3088.5C 591.078,3108.76 575.911,3126.26 557.5,3141C 516.111,3165.74 480.945,3158.91 452,3120.5C 433.784,3089.52 422.118,3056.19 417,3020.5C 406.219,2951.91 399.553,2882.91 397,2813.5C 393.1,2727.55 391.1,2641.55 391,2555.5C 391.295,2208.64 383.295,1861.97 367,1515.5C 364.861,1476.81 362.361,1438.14 359.5,1399.5 Z"/></g>
</svg>
