<?xml version="1.0" encoding="UTF-8"?>
<!DOCTYPE svg PUBLIC "-//W3C//DTD SVG 1.1//EN" "http://www.w3.org/Graphics/SVG/1.1/DTD/svg11.dtd">
<svg xmlns="http://www.w3.org/2000/svg" version="1.1" width="1015px" height="3694px" style="shape-rendering:geometricPrecision; text-rendering:geometricPrecision; image-rendering:optimizeQuality; fill-rule:evenodd; clip-rule:evenodd" xmlns:xlink="http://www.w3.org/1999/xlink">
<g><path style="opacity:0.763" fill="#f9f9f9" d="M -0.5,-0.5 C 337.833,-0.5 676.167,-0.5 1014.5,-0.5C 1014.5,1230.83 1014.5,2462.17 1014.5,3693.5C 676.167,3693.5 337.833,3693.5 -0.5,3693.5C -0.5,2462.17 -0.5,1230.83 -0.5,-0.5 Z M 1011.5,2800.5 C 1009.41,2777.61 1006.91,2754.61 1004,2731.5C 999.022,2707.23 992.022,2683.57 983,2660.5C 953.541,2590.91 918.874,2524.24 879,2460.5C 843.626,2403.47 806.293,2347.8 767,2293.5C 757.707,2131.85 748.373,1970.18 739,1808.5C 733.174,1708.78 726.507,1609.11 719,1509.5C 698.464,1263.27 675.464,1017.27 650,771.5C 641.222,705.169 621.222,642.503 590,583.5C 577.208,561.36 561.374,541.526 542.5,524C 511.705,498.174 477.038,491.174 438.5,503C 420.836,510.003 406.003,520.836 394,535.5C 376,559.505 363.334,586.171 356,615.5C 347.959,647.748 342.292,680.414 339,713.5C 329.902,798.591 324.569,883.925 323,969.5C 322.124,1008.83 321.457,1048.16 321,1087.5C 320.822,1212.5 320.155,1337.5 319,1462.5C 313.051,1688.27 294.051,1912.94 262,2136.5C 256.245,2178.46 248.911,2220.12 240,2261.5C 171.509,2425.49 105.509,2590.49 42,2756.5C 33,2782.17 24,2807.83 15,2833.5C 9.37058,2853 5.20391,2872.66 2.5,2892.5C 2.5,1929.17 2.5,965.833 2.5,2.5C 338.833,2.5 675.167,2.5 1011.5,2.5C 1011.5,935.167 1011.5,1867.83 1011.5,2800.5 Z M 1011.5,2899.5 C 1011.5,3163.17 1011.5,3426.83 1011.5,3690.5C 675.167,3690.5 338.833,3690.5 2.5,3690.5C 2.5,3444.17 2.5,3197.83 2.5,2951.5C 6.20878,2997.32 19.3754,3040.32 42,3080.5C 56.9378,3103.78 75.1045,3124.28 96.5,3142C 182.978,3194.46 269.978,3246.13 357.5,3297C 398.836,3319.14 443.002,3329.3 490,3327.5C 518.678,3327.92 546.845,3324.42 574.5,3317C 585.68,3313.08 596.346,3308.08 606.5,3302C 667.207,3259.65 727.207,3216.31 786.5,3172C 844.977,3126.21 900.477,3076.71 953,3023.5C 965.808,3009.7 977.474,2995.03 988,2979.5C 995.299,2965.9 1000.63,2951.57 1004,2936.5C 1006.72,2924.07 1009.22,2911.74 1011.5,2899.5 Z"/></g>
<g><path style="opacity:0.982" fill="#010101" d="M 1011.5,2800.5 C 1011.96,2820.84 1012.63,2841.17 1013.5,2861.5C 1013.53,2874.21 1012.87,2886.88 1011.5,2899.5C 1009.22,2911.74 1006.72,2924.07 1004,2936.5C 1000.63,2951.57 995.299,2965.9 988,2979.5C 977.474,2995.03 965.808,3009.7 953,3023.5C 900.477,3076.71 844.977,3126.21 786.5,3172C 727.207,3216.31 667.207,3259.65 606.5,3302C 596.346,3308.08 585.68,3313.08 574.5,3317C 546.845,3324.42 518.678,3327.92 490,3327.5C 443.002,3329.3 398.836,3319.14 357.5,3297C 269.978,3246.13 182.978,3194.46 96.5,3142C 75.1045,3124.28 56.9378,3103.78 42,3080.5C 19.3754,3040.32 6.20878,2997.32 2.5,2951.5C 1.20699,2931.83 1.20699,2912.17 2.5,2892.5C 5.20391,2872.66 9.37058,2853 15,2833.5C 24,2807.83 33,2782.17 42,2756.5C 105.509,2590.49 171.509,2425.49 240,2261.5C 248.911,2220.12 256.245,2178.46 262,2136.5C 294.051,1912.94 313.051,1688.27 319,1462.5C 320.155,1337.5 320.822,1212.5 321,1087.5C 321.457,1048.16 322.124,1008.83 323,969.5C 324.569,883.925 329.902,798.591 339,713.5C 342.292,680.414 347.959,647.748 356,615.5C 363.334,586.171 376,559.505 394,535.5C 406.003,520.836 420.836,510.003 438.5,503C 477.038,491.174 511.705,498.174 542.5,524C 561.374,541.526 577.208,561.36 590,583.5C 621.222,642.503 641.222,705.169 650,771.5C 675.464,1017.27 698.464,1263.27 719,1509.5C 726.507,1609.11 733.174,1708.78 739,1808.5C 748.373,1970.18 757.707,2131.85 767,2293.5C 806.293,2347.8 843.626,2403.47 879,2460.5C 918.874,2524.24 953.541,2590.91 983,2660.5C 992.022,2683.57 999.022,2707.23 1004,2731.5C 1006.91,2754.61 1009.41,2777.61 1011.5,2800.5 Z"/></g>
<g><path style="opacity:1" fill="#fefefe" d="M 462.5,526.5 C 487.532,525.121 509.199,532.954 527.5,550C 549.249,572.306 566.416,597.806 579,626.5C 598.874,671.325 612.541,717.992 620,766.5C 647.001,1022.85 671.001,1279.51 692,1536.5C 709.003,1785.04 723.836,2033.71 736.5,2282.5C 579.499,2282.83 422.499,2282.5 265.5,2281.5C 271.496,2256.02 276.662,2230.36 281,2204.5C 320.498,1950.37 343.165,1694.71 349,1437.5C 348.907,1281.49 349.907,1125.49 352,969.5C 353.415,874.104 360.082,779.104 372,684.5C 376.271,651.856 384.271,620.19 396,589.5C 403.316,572.351 413.483,557.184 426.5,544C 437.126,535.186 449.126,529.353 462.5,526.5 Z"/></g>
<g><path style="opacity:1" fill="#fefefe" d="M 250.5,2311.5 C 415.168,2311.17 579.835,2311.5 744.5,2312.5C 792.317,2378.78 837.151,2447.11 879,2517.5C 907.417,2565.33 932.417,2615 954,2666.5C 963.165,2688.49 970.165,2711.16 975,2734.5C 981.165,2782.96 984.165,2831.63 984,2880.5C 981.149,2908.04 974.816,2934.71 965,2960.5C 956.973,2973.22 947.973,2985.22 938,2996.5C 871.945,3063.91 801.112,3125.41 725.5,3181C 680.056,3214.44 634.056,3247.11 587.5,3279C 568.951,3288.55 549.284,3294.22 528.5,3296C 495.031,3298.8 461.697,3297.8 428.5,3293C 411.712,3289.52 395.712,3283.85 380.5,3276C 289.122,3223.93 198.789,3170.26 109.5,3115C 71.5809,3081.02 47.7476,3038.85 38,2988.5C 30.4549,2952.03 29.1215,2915.36 34,2878.5C 36.1955,2867.38 38.8622,2856.38 42,2845.5C 67.2271,2772.15 94.2271,2699.48 123,2627.5C 165.236,2522.03 207.736,2416.7 250.5,2311.5 Z"/></g>
<g><path style="opacity:1" fill="#030303" d="M 655.5,3044.5 C 657.144,3044.29 658.644,3044.62 660,3045.5C 662.399,3053.53 664.899,3061.53 667.5,3069.5C 667.182,3070.65 666.516,3071.48 665.5,3072C 624.765,3085.85 583.432,3097.52 541.5,3107C 498.528,3116.14 455.194,3118.48 411.5,3114C 359.145,3107.41 307.812,3096.41 257.5,3081C 260.257,3072.31 262.59,3063.47 264.5,3054.5C 305.459,3065.24 346.793,3074.41 388.5,3082C 443.991,3091.13 498.991,3088.8 553.5,3075C 588.151,3066.65 622.151,3056.48 655.5,3044.5 Z"/></g>
</svg>
