<?xml version="1.0" encoding="UTF-8"?>
<!DOCTYPE svg PUBLIC "-//W3C//DTD SVG 1.1//EN" "http://www.w3.org/Graphics/SVG/1.1/DTD/svg11.dtd">
<svg xmlns="http://www.w3.org/2000/svg" version="1.1" width="1057px" height="3694px" style="shape-rendering:geometricPrecision; text-rendering:geometricPrecision; image-rendering:optimizeQuality; fill-rule:evenodd; clip-rule:evenodd" xmlns:xlink="http://www.w3.org/1999/xlink">
<g><path style="opacity:0.783" fill="#fdfdfd" d="M -0.5,-0.5 C 351.833,-0.5 704.167,-0.5 1056.5,-0.5C 1056.5,1230.83 1056.5,2462.17 1056.5,3693.5C 704.167,3693.5 351.833,3693.5 -0.5,3693.5C -0.5,2462.17 -0.5,1230.83 -0.5,-0.5 Z M 1053.5,789.5 C 1050.1,766.893 1044.93,744.56 1038,722.5C 1033.3,710.763 1027.3,699.763 1020,689.5C 990.515,652.154 958.349,616.987 923.5,584C 849.643,516.786 772.31,454.119 691.5,396C 663.865,377.009 633.198,366.342 599.5,364C 566.127,360.469 532.794,360.803 499.5,365C 469.094,368.691 440.761,378.357 414.5,394C 373.963,420.099 334.297,447.432 295.5,476C 227.549,526.949 159.883,578.283 92.5,630C 43.9392,673.275 15.4392,727.442 7,792.5C 5.22479,804.951 3.72479,817.284 2.5,829.5C 2.5,553.5 2.5,277.5 2.5,1.5C 352.833,1.5 703.167,1.5 1053.5,1.5C 1053.5,264.167 1053.5,526.833 1053.5,789.5 Z M 2.5,863.5 C 7.24896,915.256 22.4156,963.923 48,1009.5C 80.0059,1066.2 115.006,1120.87 153,1173.5C 201.753,1240.59 252.42,1306.26 305,1370.5C 322.418,1397.67 340.085,1424.67 358,1451.5C 356.236,1458.72 353.569,1465.72 350,1472.5C 346.601,1481.36 343.601,1490.36 341,1499.5C 335.083,1525.09 342.917,1545.26 364.5,1560C 370.918,1563.96 377.418,1567.79 384,1571.5C 385.442,1605.14 385.942,1638.8 385.5,1672.5C 367.908,1677.25 354.075,1687.25 344,1702.5C 326.33,1730.5 324.33,1759.5 338,1789.5C 349.392,1806.95 365.558,1816.28 386.5,1817.5C 387.022,1836.52 387.022,1855.52 386.5,1874.5C 366.174,1888.66 351.674,1907.32 343,1930.5C 336.452,1959.23 344.952,1982.4 368.5,2000C 374.512,2004.01 380.845,2007.51 387.5,2010.5C 388.666,2024.15 388.833,2037.82 388,2051.5C 350.939,2069.96 336.606,2099.63 345,2140.5C 352.522,2163.19 367.022,2179.86 388.5,2190.5C 389.833,2207.5 389.833,2224.5 388.5,2241.5C 367.566,2254.39 353.066,2272.39 345,2295.5C 338.381,2321.7 344.048,2345.03 362,2365.5C 370.792,2374.63 380.459,2382.63 391,2389.5C 391.833,2402.85 391.666,2416.18 390.5,2429.5C 348.503,2450.15 330.003,2483.82 335,2530.5C 343.124,2560.12 362.29,2577.79 392.5,2583.5C 398.502,2623.02 413.002,2659.02 436,2691.5C 456.626,2720.46 483.793,2740.62 517.5,2752C 564.002,2764.03 606.668,2756.03 645.5,2728C 688.373,2694.46 714.54,2650.63 724,2596.5C 729.381,2563.04 732.548,2529.38 733.5,2495.5C 771.577,2483.05 791.577,2456.72 793.5,2416.5C 793.016,2383 777.016,2360.83 745.5,2350C 742.207,2349.17 738.874,2348.67 735.5,2348.5C 735.333,2327.83 735.5,2307.16 736,2286.5C 777.674,2268.75 794.341,2237.42 786,2192.5C 778.276,2166.27 761.109,2150.27 734.5,2144.5C 734.063,2131.16 733.896,2117.83 734,2104.5C 753.895,2096.27 769.895,2083.27 782,2065.5C 794.337,2039.85 792.003,2015.52 775,1992.5C 763.826,1978.83 749.993,1968.83 733.5,1962.5C 732.334,1950.51 732.167,1938.51 733,1926.5C 773.084,1909.02 791.084,1878.36 787,1834.5C 781.68,1803.85 764.846,1782.18 736.5,1769.5C 735.167,1760.17 735.167,1750.83 736.5,1741.5C 758.298,1729.2 774.798,1711.87 786,1689.5C 795.446,1662.94 792.78,1637.6 778,1613.5C 768,1596.83 754.667,1583.5 738,1573.5C 742.674,1536.79 748.007,1500.12 754,1463.5C 771.333,1436.17 788.667,1408.83 806,1381.5C 836.388,1309.03 873.722,1240.7 918,1176.5C 943.159,1141.52 967.826,1106.18 992,1070.5C 1005.95,1048.27 1018.62,1025.27 1030,1001.5C 1040.32,977.902 1046.32,953.235 1048,927.5C 1049.92,907.021 1051.75,886.687 1053.5,866.5C 1053.5,1807.83 1053.5,2749.17 1053.5,3690.5C 703.167,3690.5 352.833,3690.5 2.5,3690.5C 2.5,2748.17 2.5,1805.83 2.5,863.5 Z"/></g>
<g><path style="opacity:0.98" fill="#010101" d="M 1053.5,789.5 C 1054.66,815.16 1054.66,840.827 1053.5,866.5C 1051.75,886.687 1049.92,907.021 1048,927.5C 1046.32,953.235 1040.32,977.902 1030,1001.5C 1018.62,1025.27 1005.95,1048.27 992,1070.5C 967.826,1106.18 943.159,1141.52 918,1176.5C 873.722,1240.7 836.388,1309.03 806,1381.5C 788.667,1408.83 771.333,1436.17 754,1463.5C 748.007,1500.12 742.674,1536.79 738,1573.5C 754.667,1583.5 768,1596.83 778,1613.5C 792.78,1637.6 795.446,1662.94 786,1689.5C 774.798,1711.87 758.298,1729.2 736.5,1741.5C 735.167,1750.83 735.167,1760.17 736.5,1769.5C 764.846,1782.18 781.68,1803.85 787,1834.5C 791.084,1878.36 773.084,1909.02 733,1926.5C 732.167,1938.51 732.334,1950.51 733.5,1962.5C 749.993,1968.83 763.826,1978.83 775,1992.5C 792.003,2015.52 794.337,2039.85 782,2065.5C 769.895,2083.27 753.895,2096.27 734,2104.5C 733.896,2117.83 734.063,2131.16 734.5,2144.5C 761.109,2150.27 778.276,2166.27 786,2192.5C 794.341,2237.42 777.674,2268.75 736,2286.5C 735.5,2307.16 735.333,2327.83 735.5,2348.5C 738.874,2348.67 742.207,2349.17 745.5,2350C 777.016,2360.83 793.016,2383 793.5,2416.5C 791.577,2456.72 771.577,2483.05 733.5,2495.5C 732.548,2529.38 729.381,2563.04 724,2596.5C 714.54,2650.63 688.373,2694.46 645.5,2728C 606.668,2756.03 564.002,2764.03 517.5,2752C 483.793,2740.62 456.626,2720.46 436,2691.5C 413.002,2659.02 398.502,2623.02 392.5,2583.5C 362.29,2577.79 343.124,2560.12 335,2530.5C 330.003,2483.82 348.503,2450.15 390.5,2429.5C 391.666,2416.18 391.833,2402.85 391,2389.5C 380.459,2382.63 370.792,2374.63 362,2365.5C 344.048,2345.03 338.381,2321.7 345,2295.5C 353.066,2272.39 367.566,2254.39 388.5,2241.5C 389.833,2224.5 389.833,2207.5 388.5,2190.5C 367.022,2179.86 352.522,2163.19 345,2140.5C 336.606,2099.63 350.939,2069.96 388,2051.5C 388.833,2037.82 388.666,2024.15 387.5,2010.5C 380.845,2007.51 374.512,2004.01 368.5,2000C 344.952,1982.4 336.452,1959.23 343,1930.5C 351.674,1907.32 366.174,1888.66 386.5,1874.5C 387.022,1855.52 387.022,1836.52 386.5,1817.5C 365.558,1816.28 349.392,1806.95 338,1789.5C 324.33,1759.5 326.33,1730.5 344,1702.5C 354.075,1687.25 367.908,1677.25 385.5,1672.5C 385.942,1638.8 385.442,1605.14 384,1571.5C 377.418,1567.79 370.918,1563.96 364.5,1560C 342.917,1545.26 335.083,1525.09 341,1499.5C 343.601,1490.36 346.601,1481.36 350,1472.5C 353.569,1465.72 356.236,1458.72 358,1451.5C 340.085,1424.67 322.418,1397.67 305,1370.5C 252.42,1306.26 201.753,1240.59 153,1173.5C 115.006,1120.87 80.0059,1066.2 48,1009.5C 22.4156,963.923 7.24896,915.256 2.5,863.5C 2.5,852.167 2.5,840.833 2.5,829.5C 3.72479,817.284 5.22479,804.951 7,792.5C 15.4392,727.442 43.9392,673.275 92.5,630C 159.883,578.283 227.549,526.949 295.5,476C 334.297,447.432 373.963,420.099 414.5,394C 440.761,378.357 469.094,368.691 499.5,365C 532.794,360.803 566.127,360.469 599.5,364C 633.198,366.342 663.865,377.009 691.5,396C 772.31,454.119 849.643,516.786 923.5,584C 958.349,616.987 990.515,652.154 1020,689.5C 1027.3,699.763 1033.3,710.763 1038,722.5C 1044.93,744.56 1050.1,766.893 1053.5,789.5 Z"/></g>
<g><path style="opacity:1" fill="#fefefe" d="M 520.5,391.5 C 552.646,390.402 584.646,391.902 616.5,396C 637.709,399.608 657.042,407.608 674.5,420C 751.427,475.828 825.427,535.495 896.5,599C 926.737,627.902 955.57,658.068 983,689.5C 990.722,699.556 998.055,709.889 1005,720.5C 1013.46,738.982 1019.12,758.315 1022,778.5C 1025.26,797.704 1026.26,817.038 1025,836.5C 1023.63,877.056 1019.96,917.389 1014,957.5C 1005.8,985.907 993.795,1012.57 978,1037.5C 950.987,1078.86 922.987,1119.53 894,1159.5C 848.369,1225.25 810.202,1295.42 779.5,1370C 633.833,1370.67 488.167,1370.67 342.5,1370C 264,1275.85 190.5,1178.01 122,1076.5C 96.5964,1038.37 74.2631,998.374 55,956.5C 21.898,874.504 24.2314,793.504 62,713.5C 71.7334,696.098 83.4001,680.098 97,665.5C 199.675,582.817 305.175,503.984 413.5,429C 445.848,406.829 481.515,394.329 520.5,391.5 Z"/></g>
<g><path style="opacity:1" fill="#929292" d="M 759.5,1401.5 C 626.334,1400.5 493.001,1400.17 359.5,1400.5C 425.43,1399.83 492.097,1399.5 559.5,1399.5C 626.5,1399.83 693.5,1400.17 760.5,1400.5C 760.376,1401.11 760.043,1401.44 759.5,1401.5 Z"/></g>
<g><path style="opacity:1" fill="#b7b7b8" d="M 359.5,1400.5 C 493.001,1400.17 626.334,1400.5 759.5,1401.5C 748.344,1418.47 737.177,1435.47 726,1452.5C 718.178,1499.75 711.011,1547.08 704.5,1594.5C 711.411,1595.04 718.077,1596.54 724.5,1599C 739.302,1609.13 750.469,1622.3 758,1638.5C 765.257,1657.45 762.923,1675.11 751,1691.5C 738.313,1705.19 723.647,1716.19 707,1724.5C 706.5,1747.16 706.333,1769.83 706.5,1792.5C 738.444,1796.44 755.777,1814.44 758.5,1846.5C 758.842,1867.32 750.176,1883.15 732.5,1894C 723.543,1898.26 714.209,1901.43 704.5,1903.5C 703.5,1931.49 703.167,1959.49 703.5,1987.5C 731.339,1988.18 750.172,2001.51 760,2027.5C 761.401,2035.97 760.068,2043.97 756,2051.5C 749.366,2060.47 741.199,2067.64 731.5,2073C 722.951,2077.11 714.284,2080.94 705.5,2084.5C 704.333,2113.16 704.167,2141.83 705,2170.5C 719.21,2169.35 732.376,2172.51 744.5,2180C 760.378,2195.27 763.878,2213.11 755,2233.5C 750.167,2243.67 742.667,2251.17 732.5,2256C 724.441,2259.23 716.108,2261.4 707.5,2262.5C 706.5,2301.16 706.167,2339.83 706.5,2378.5C 715.822,2377.65 725.155,2377.48 734.5,2378C 754.125,2382.97 764.125,2395.63 764.5,2416C 761.977,2445.86 745.977,2463.86 716.5,2470C 712.534,2470.83 708.534,2471.33 704.5,2471.5C 704.768,2518.01 700.268,2564.01 691,2609.5C 678.785,2654.02 653.285,2688.52 614.5,2713C 559.074,2740.31 510.574,2731.15 469,2685.5C 438.273,2648.5 422.44,2605.83 421.5,2557.5C 411.16,2556.13 400.827,2554.63 390.5,2553C 372.186,2546.21 362.853,2533.04 362.5,2513.5C 365.414,2486.08 379.414,2466.58 404.5,2455C 409.763,2453.18 415.097,2451.68 420.5,2450.5C 420.667,2424.5 420.5,2398.5 420,2372.5C 413.167,2368.33 406.333,2364.17 399.5,2360C 388.424,2351.93 379.924,2341.76 374,2329.5C 368.757,2313.14 371.757,2298.47 383,2285.5C 393.204,2274.13 405.038,2264.8 418.5,2257.5C 419.499,2241.18 419.833,2224.85 419.5,2208.5C 420.147,2195.46 419.48,2182.79 417.5,2170.5C 397.364,2165.2 382.864,2153.2 374,2134.5C 367.6,2109.47 375.767,2090.97 398.5,2079C 404.697,2077.11 411.03,2076.28 417.5,2076.5C 417.5,2047.5 417.5,2018.5 417.5,1989.5C 399.762,1986.06 385.262,1977.39 374,1963.5C 370.223,1954.74 369.557,1945.74 372,1936.5C 382.18,1916.65 396.847,1900.99 416,1889.5C 416.5,1855.83 416.667,1822.17 416.5,1788.5C 407.499,1789.05 398.499,1789.21 389.5,1789C 373.544,1787.37 363.377,1778.87 359,1763.5C 355.639,1739.4 363.472,1719.9 382.5,1705C 387.606,1701.46 393.273,1699.63 399.5,1699.5C 404.833,1699.5 410.167,1699.5 415.5,1699.5C 415.831,1676.99 415.497,1654.66 414.5,1632.5C 414.833,1605.83 414.5,1579.16 413.5,1552.5C 400.733,1547.29 388.733,1540.79 377.5,1533C 368.146,1523.75 365.979,1512.92 371,1500.5C 377.151,1483.55 383.984,1466.88 391.5,1450.5C 381.211,1433.55 370.544,1416.89 359.5,1400.5 Z"/></g>
<g><path style="opacity:1" fill="#585858" d="M 414.5,1632.5 C 415.497,1654.66 415.831,1676.99 415.5,1699.5C 410.167,1699.5 404.833,1699.5 399.5,1699.5C 404.305,1698.51 409.305,1698.18 414.5,1698.5C 414.5,1676.5 414.5,1654.5 414.5,1632.5 Z"/></g>
<g><path style="opacity:1" fill="#6f6f70" d="M 417.5,2170.5 C 419.48,2182.79 420.147,2195.46 419.5,2208.5C 418.815,2195.93 418.149,2183.26 417.5,2170.5 Z"/></g>
</svg>
