<?xml version="1.0" encoding="UTF-8"?>
<svg version="1.1" xmlns="http://www.w3.org/2000/svg" width="1015" height="3694">
<path d="M0 0 C334.95 0 669.9 0 1015 0 C1015 1219.02 1015 2438.04 1015 3694 C680.05 3694 345.1 3694 0 3694 C0 2474.98 0 1255.96 0 0 Z M3 3 C3 956.7 3 1910.4 3 2893 C3.33 2893 3.66 2893 4 2893 C4.08975098 2892.31301025 4.17950195 2891.62602051 4.27197266 2890.91821289 C8.2500351 2861.03320454 16.06394612 2833.35605566 26 2805 C26.33962769 2804.03050415 26.67925537 2803.0610083 27.0291748 2802.06213379 C38.47884357 2769.43246935 50.52896632 2737.04538996 62.93670654 2704.76928711 C64.24650247 2701.35799839 65.5504539 2697.94449938 66.85353088 2694.53063965 C70.87020188 2684.00793778 74.9232708 2673.49957418 79 2663 C79.34369629 2662.11465576 79.68739258 2661.22931152 80.04150391 2660.31713867 C98.08161354 2613.88056017 116.69223748 2567.66815502 135.22019958 2521.42481995 C139.61977535 2510.44363829 144.01597436 2499.46112396 148.40527344 2488.47583008 C149.29897621 2486.23961205 150.19268344 2484.0033958 151.08639526 2481.7671814 C152.7491266 2477.60665021 154.4108838 2473.44573191 156.072052 2469.28457642 C164.09740581 2449.19520109 172.28444547 2429.17224653 180.48242188 2409.15283203 C183.03997867 2402.90463467 185.59105569 2396.65380397 188.140625 2390.40234375 C188.77595406 2388.84455452 188.77595406 2388.84455452 189.42411804 2387.2552948 C190.05758904 2385.70205254 190.05758904 2385.70205254 190.70385742 2384.11743164 C204.13150706 2351.19358651 217.60028972 2318.28796824 231.26237488 2285.46060181 C232.24071175 2283.10369729 233.21262056 2280.74422338 234.18359375 2278.38427734 C235.32544267 2275.61144223 236.49333095 2272.85297006 237.69140625 2270.10400391 C241.73176922 2260.69193689 243.91864519 2251.39617453 245.75 2241.375 C246.08322625 2239.60566205 246.41673297 2237.8363769 246.75048828 2236.06713867 C262.41411948 2152.09991676 273.14444039 2067.18101353 319 1503 C319.05447296 1501.43212738 319.05447296 1501.43212738 319.11004639 1499.83258057 C319.40105865 1491.37997209 319.64445308 1482.92795921 319.79760742 1474.47167969 C319.81317499 1473.6133532 319.82874256 1472.75502672 319.84478188 1471.87069035 C319.89754313 1468.91381062 319.94890633 1465.95690899 320 1463 C320.01873358 1461.93178701 320.03746716 1460.86357403 320.05676842 1459.76299095 C320.89783094 1411.17663795 321.13434049 1362.58850148 321.28125 1313.99609375 C321.28609045 1312.4077905 321.29093242 1310.81948725 321.29577589 1309.23118401 C321.37559799 1282.96320176 321.44474584 1256.69519174 321.51302338 1230.42717743 C321.52604399 1225.4201201 321.53911833 1220.41306291 321.55224609 1215.40600586 C321.55440496 1214.58218855 321.55656383 1213.75837123 321.55878812 1212.90958976 C321.59549061 1198.94204872 321.63545072 1184.97451866 321.67754889 1171.00699288 C321.70072826 1163.27281342 321.72238459 1155.53863659 321.73963928 1147.80444145 C321.81280244 1115.22991013 322.01183424 1082.66172754 322.48852539 1050.09033203 C322.50470443 1048.98315101 322.50470443 1048.98315101 322.52121031 1047.85360269 C322.8547295 1025.1483643 323.26496373 1002.44568932 323.8755722 979.74608994 C323.94051065 977.32526668 324.00420312 974.90441282 324.06768799 972.48355103 C326.46940231 881.17735686 330.30373324 789.74469481 398 533 C398.62132812 532.23429688 399.24265625 531.46859375 399.8828125 530.6796875 C415.11252943 512.39128265 437.74456188 502.15373998 461 499 C491.95413775 496.66413053 519.241921 505.26790997 543.12207031 525.35351562 C605.80908896 580.31467706 633.76555997 673.28063854 646.96875 752.8359375 C647.16238317 753.99919713 647.16238317 753.99919713 647.35992813 755.18595695 C650.01907575 771.27814025 651.95878929 787.40029328 653.62352753 803.62178802 C653.8848008 806.15762349 654.15005395 808.69301672 654.4163208 811.22833252 C655.98229118 826.14838546 657.49543011 841.07364711 659 856 C659.20109609 857.99210427 659.4021923 859.98420853 659.60329592 861.97631204 C668.86441753 953.7396031 677.59041487 1045.55347297 704.04350281 1337.4902153 C704.57088793 1343.4367516 705.0990814 1349.38321577 705.62751162 1355.32965928 C720.4100418 1521.69983938 720.4100418 1521.69983938 726.00149155 1604.69092178 C726.21723901 1607.88932617 726.43427564 1611.08763983 726.65201551 1614.28590912 C733.09832701 1708.98017712 738.80105112 1803.72666642 750.1875 2000.8125 C750.26170717 2002.11583676 750.33591434 2003.41917352 750.4123702 2004.76200533 C753.57519107 2060.3211443 756.70219209 2115.88194936 759.65229821 2171.45283294 C759.81489645 2174.51453931 759.97776463 2177.57623121 760.14072227 2180.63791847 C761.08538351 2198.38869787 762.02881146 2216.13951526 762.93963116 2233.89206797 C763.27878828 2240.49903108 763.62307683 2247.1057126 763.97144729 2253.71219629 C764.20556508 2258.15946797 764.43262111 2262.60701705 764.65369684 2267.05495518 C764.81880545 2270.33451916 764.99467874 2273.61348836 765.16894531 2276.89257812 C765.22395297 2278.04673123 765.27896063 2279.20088434 765.33563519 2280.39001179 C765.70622597 2287.1212867 766.24904402 2293.00138537 770.328125 2298.6015625 C771.02204346 2299.56799683 771.02204346 2299.56799683 771.72998047 2300.55395508 C772.23158691 2301.2373999 772.73319336 2301.92084473 773.25 2302.625 C774.34174432 2304.14149641 775.43286486 2305.65844202 776.5234375 2307.17578125 C777.09416992 2307.96549316 777.66490234 2308.75520508 778.25292969 2309.56884766 C781.16608185 2313.62267231 784.01868439 2317.71852783 786.875 2321.8125 C788.05706772 2323.50406277 789.23936117 2325.19546782 790.421875 2326.88671875 C791.01162109 2327.73024902 791.60136719 2328.5737793 792.20898438 2329.44287109 C793.99454173 2331.99220693 795.78553769 2334.53763478 797.578125 2337.08203125 C804.55375538 2346.99214458 811.38169341 2356.98184099 818.06738281 2367.08935547 C820.41817854 2370.6298035 822.78304113 2374.16070354 825.1484375 2377.69140625 C835.06178519 2392.49659793 844.88928432 2407.33812123 854.37451172 2422.42285156 C856.66259855 2426.05052423 858.97406355 2429.66311813 861.28369141 2433.27709961 C887.84804125 2474.87367762 912.81139072 2517.43040168 936 2561 C936.48758789 2561.91056152 936.97517578 2562.82112305 937.47753906 2563.75927734 C978.27723557 2640.0425181 1004.96642941 2714.42071468 1011 2801 C1011.33 2801 1011.66 2801 1012 2801 C1012 1877.66 1012 954.32 1012 3 C679.03 3 346.06 3 3 3 Z M1011 2900 C1010.87995605 2900.72775635 1010.75991211 2901.4555127 1010.63623047 2902.20532227 C1004.75768513 2937.44064836 997.29729936 2969.49125157 975 2998 C973.85337891 2999.46759766 973.85337891 2999.46759766 972.68359375 3000.96484375 C967.57843584 3007.33030898 962.122513 3013.32856728 956.56225586 3019.29418945 C955.4447979 3020.5143299 954.34312257 3021.74899992 953.25219727 3022.99291992 C946.24135187 3030.95170111 938.74180131 3038.40947579 931.23413086 3045.89624023 C928.9355279 3048.18946748 926.6423397 3050.4880124 924.34960938 3052.78710938 C922.86750813 3054.26855 921.3850968 3055.7496805 919.90234375 3057.23046875 C919.22815903 3057.9066777 918.5539743 3058.58288666 917.85935974 3059.27958679 C913.97764066 3063.14251198 909.99549178 3066.83110168 905.84144592 3070.40010071 C902.64497448 3073.17728376 899.58092793 3076.09606754 896.5 3079 C892.02163932 3083.20076952 887.53138871 3087.36700087 882.875 3091.37109375 C880.61248819 3093.33665089 878.40309317 3095.35673309 876.1875 3097.375 C872.72469918 3100.50422827 869.19320997 3103.50500349 865.5625 3106.4375 C861.75912497 3109.51336588 858.09917348 3112.68753166 854.5 3116 C850.13230508 3120.01605847 845.63150764 3123.79385454 841.015625 3127.51953125 C837.4532876 3130.44969219 833.97551419 3133.46787135 830.5 3136.5 C824.42785781 3141.788444 818.27579991 3146.95356912 812 3152 C810.86197616 3152.9205692 809.72395551 3153.84114234 808.5859375 3154.76171875 C799.94763378 3161.72939624 791.17520489 3168.50845378 782.33789062 3175.22119141 C779.86216446 3177.10487362 777.39162262 3178.99520569 774.921875 3180.88671875 C764.14632882 3189.13237148 753.29310199 3197.25996396 742.34716797 3205.27783203 C739.96878089 3207.02290613 737.59500866 3208.77407617 735.22265625 3210.52734375 C725.27414318 3217.87891652 715.27798101 3225.16024484 705.23828125 3232.38671875 C702.97933793 3234.01489256 700.72357339 3235.64737625 698.46875 3237.28125 C690.47835498 3243.06905955 682.45887398 3248.81046805 674.38769531 3254.48510742 C669.2907215 3258.07402086 664.2331664 3261.71439687 659.1875 3265.375 C651.97781077 3270.60165208 644.70931511 3275.73868079 637.40234375 3280.82836914 C633.41284774 3283.6075991 629.4328921 3286.397138 625.484375 3289.234375 C594.75426374 3311.29063666 563.01889755 3323.3016762 525 3326 C524.24428711 3326.05639648 523.48857422 3326.11279297 522.70996094 3326.17089844 C455.85861433 3330.94397726 397.63189814 3320.38027849 339.81933594 3286.640625 C336.83668727 3284.90496523 333.84525112 3283.18529318 330.8515625 3281.46875 C318.61277313 3274.44614253 306.43619438 3267.32544078 294.30688477 3260.11547852 C286.7587967 3255.62966183 279.19366773 3251.17466355 271.61453247 3246.74157715 C250.16833633 3234.19688351 228.80676133 3221.51011092 207.51513672 3208.70483398 C199.68002162 3203.9965883 191.8206516 3199.33018964 183.9564209 3194.6708374 C171.24773278 3187.14035647 158.59072894 3179.53287253 145.98876953 3171.82470703 C141.44768045 3169.05227607 136.89846091 3166.29328346 132.34912109 3163.53442383 C129.92477242 3162.06405156 127.50198248 3160.59116328 125.08056641 3159.1159668 C119.97838786 3156.00908628 114.87294399 3152.91191184 109.71484375 3149.8984375 C99.90979463 3144.13726151 91.27281865 3137.81294726 83 3130 C82.43410156 3129.46584473 81.86820312 3128.93168945 81.28515625 3128.38134766 C73.9331776 3121.36904376 67.24272237 3114.02796133 61 3106 C60.20078125 3105.00613281 59.4015625 3104.01226563 58.578125 3102.98828125 C23.82699365 3059.42557082 10.43646614 3006.28240519 4 2952 C3.67 2952 3.34 2952 3 2952 C3 3195.87 3 3439.74 3 3691 C335.97 3691 668.94 3691 1012 3691 C1012 3429.97 1012 3168.94 1012 2900 C1011.67 2900 1011.34 2900 1011 2900 Z " fill="#FEFEFE" transform="translate(0,0)"/>
<path d="M0 0 C2.47674749 1.9336349 4.8455355 3.94224443 7.19921875 6.0234375 C8.029375 6.73371094 8.85953125 7.44398438 9.71484375 8.17578125 C52.04979644 45.12146849 74.7101279 106.49967763 88.52880859 159.50537109 C89.14500383 161.8198058 89.79535979 164.11962447 90.46875 166.41796875 C103.3412099 210.44543913 107.10208626 256.37329444 111.36108398 301.84912109 C112.37260957 312.62308323 113.4401981 323.38731985 114.61279297 334.14501953 C116.11688342 348.07325661 117.4916439 362.01185768 118.828125 375.95703125 C119.06554105 378.42262481 119.30308782 380.88820578 119.54075623 383.35377502 C120.15777229 389.75840746 120.77299594 396.16321077 121.38781738 402.5680542 C122.01064527 409.05264211 122.63531425 415.53705264 123.25976562 422.02148438 C124.17741558 431.55386845 125.09453421 441.08630332 126.01000977 450.61889648 C126.11148095 451.67525425 126.21295214 452.73161201 126.31749821 453.81998062 C126.80221582 458.87040313 127.28498073 463.92099973 127.76364136 468.97200012 C127.85311255 469.91542298 127.94258375 470.85884584 128.0347662 471.83085728 C128.19941425 473.56878298 128.36365871 475.306747 128.52737522 477.0447607 C129.41501436 486.41582719 130.42995331 495.77356996 131.44921875 505.13110352 C132.59164669 515.643895 133.56969098 526.16055447 134.42875671 536.70033264 C135.37089896 548.23267547 136.43866646 559.75265457 137.51171875 571.2734375 C137.73047272 573.63167281 137.94922262 575.98990849 138.16796875 578.34814453 C139.54245535 593.13444699 140.9553566 607.91677124 142.38891602 622.69744873 C144.73921552 646.94242462 146.94570639 671.19813449 149.08744812 695.46235657 C149.99518426 705.73965019 150.91267992 716.01605452 151.83239937 726.2922821 C155.15649863 763.44059431 158.4527005 800.59019075 161.5524292 837.75796509 C163.03537699 855.53403447 164.57053232 873.3044877 166.171875 891.0703125 C166.34466804 892.98855568 166.51745855 894.90679909 166.69024658 896.82504272 C166.95176205 899.72772475 167.21328537 902.63040606 167.47481537 905.53308678 C170.98673412 944.52082692 174.19651402 983.51333591 176.95297241 1022.5619812 C177.19385114 1025.94798566 177.44032193 1029.33353377 177.6887207 1032.71899414 C179.02406033 1050.98986983 180.17790549 1069.27042702 181.31549072 1087.55441284 C183.41633463 1121.51806483 183.41633463 1121.51806483 185.82421875 1155.4609375 C188.12458367 1185.84335721 189.94094702 1216.25758903 191.50463867 1246.6862793 C192.53688224 1266.757477 193.78709309 1286.81325212 195.109375 1306.8671875 C195.45266629 1312.08588235 195.79513502 1317.30463063 196.13671875 1322.5234375 C196.20202475 1323.52044111 196.20202475 1323.52044111 196.26865005 1324.53758621 C197.65276783 1345.68974603 198.86582532 1366.84633625 199.94256592 1388.0166626 C200.86174944 1406.06713282 201.90974466 1424.10441044 203.10961914 1442.13842773 C205.22253364 1473.97635727 206.83577306 1505.84313246 208.44921875 1537.70947266 C208.69710346 1542.60069536 208.94704767 1547.49180889 209.19921875 1552.3828125 C209.24011564 1553.17609262 209.28101254 1553.96937275 209.32314873 1554.78669167 C209.95855091 1567.04354907 210.70890648 1579.28946471 211.52186584 1591.53575134 C212.13572613 1600.83753525 212.63186188 1610.13821568 213.03320312 1619.45132446 C213.75548206 1636.08993103 214.68265765 1652.71294677 215.69921875 1669.3359375 C215.95584074 1673.54035778 216.21239122 1677.74478241 216.46875 1681.94921875 C216.56197037 1683.47764153 216.56197037 1683.47764153 216.65707397 1685.03694153 C217.21629835 1694.2386198 217.75040233 1703.44154231 218.25585938 1712.64633179 C218.34160125 1714.20386246 218.42831669 1715.76133991 218.51611328 1717.3187561 C218.63594925 1719.44933971 218.75212045 1721.58009167 218.8671875 1723.7109375 C218.96422974 1725.48017578 218.96422974 1725.48017578 219.06323242 1727.28515625 C219.2297149 1731.86178063 219.19921875 1736.44378608 219.19921875 1741.0234375 C63.76921875 1741.0234375 -91.66078125 1741.0234375 -251.80078125 1741.0234375 C-246.80078125 1716.0234375 -246.80078125 1716.0234375 -244.42578125 1705.0234375 C-237.90555487 1674.2898731 -233.46342157 1643.08139712 -228.80078125 1612.0234375 C-228.64125977 1610.96382812 -228.48173828 1609.90421875 -228.31738281 1608.8125 C-227.82263148 1605.5250229 -227.32791849 1602.23755915 -226.84057617 1598.94897461 C-226.20842859 1594.68997882 -225.55180507 1590.43573989 -224.875 1586.18359375 C-222.80462869 1573.11140093 -220.99490994 1560.02579556 -219.39880371 1546.88764954 C-218.36845997 1538.44335734 -217.26554885 1530.01280774 -216.09922791 1521.58631897 C-213.11641599 1500.03557895 -210.54195773 1478.44428956 -208.05499268 1456.83148193 C-207.63315822 1453.17463492 -207.20721116 1449.51827177 -206.78129387 1445.86189842 C-204.04336299 1422.34426374 -201.45539291 1398.81424335 -199.03139114 1375.26221848 C-198.80357566 1373.05056586 -198.57488653 1370.83900531 -198.34591675 1368.62747192 C-197.31625291 1358.67759388 -196.30153391 1348.72626466 -195.30078125 1338.7734375 C-195.22603451 1338.03057243 -195.15128777 1337.28770737 -195.07427597 1336.52233124 C-192.57601914 1311.66675013 -190.37218454 1286.80265497 -188.48284912 1261.89263916 C-187.68335181 1251.38335598 -186.81322718 1240.88010684 -185.93515015 1230.37713623 C-185.68718353 1227.40988117 -185.44076872 1224.44250068 -185.19458008 1221.47509766 C-184.57377786 1214.02380857 -183.94863445 1206.57346485 -183.2590332 1199.12817383 C-183.16884918 1198.15358215 -183.07866516 1197.17899048 -182.98574829 1196.17486572 C-182.81459144 1194.33746793 -182.64148909 1192.50024971 -182.46591187 1190.66326904 C-181.81749993 1183.72404231 -181.42023883 1176.78481948 -181.14321899 1169.8213501 C-180.99469969 1166.24888935 -180.76881622 1162.7574136 -180.34179688 1159.20361328 C-179.56663899 1152.37760844 -179.26668272 1145.51735048 -178.8984375 1138.66015625 C-178.81519911 1137.14499205 -178.73173344 1135.62984033 -178.64805603 1134.11470032 C-178.42797728 1130.11904544 -178.21087411 1126.12323442 -177.9944458 1122.12738037 C-177.7812002 1118.19875928 -177.56535753 1114.2702812 -177.34960938 1110.34179688 C-177.09108553 1105.63348796 -176.83310972 1100.92515202 -176.57766724 1096.2166748 C-176.15653703 1088.46144228 -175.72781905 1080.70679706 -175.27880859 1072.953125 C-174.13397272 1053.10872096 -173.21496972 1033.26409931 -172.47802734 1013.40039062 C-172.33611196 1009.57570749 -172.18877424 1005.75125999 -172.0395655 1001.92685539 C-171.63202566 991.4333938 -171.26855824 980.93865487 -170.91587329 970.44322038 C-170.83788708 968.1259801 -170.75940426 965.8087565 -170.68047071 963.4915483 C-169.15389833 918.545438 -168.48178088 873.6434979 -168.4319233 828.67270732 C-168.42177433 819.95688531 -168.39974455 811.24110162 -168.37730456 802.525304 C-168.33727333 786.89293816 -168.30460892 771.26056727 -168.27758789 755.62817383 C-168.25176138 740.70303871 -168.22444368 725.7779089 -168.19360352 710.8527832 C-168.19170737 709.93424996 -168.18981122 709.01571672 -168.18785762 708.06934913 C-168.16682337 697.92640673 -168.14473038 687.78346722 -168.12107182 677.64053059 C-168.11790551 676.28302945 -168.11790551 676.28302945 -168.11467524 674.89810405 C-168.10618538 671.26851943 -168.09766792 667.6389349 -168.08900524 664.00935069 C-168.06622832 654.46539171 -168.04502812 644.921438 -168.03057671 635.37746239 C-167.77840855 469.30892815 -167.77840855 469.30892815 -165.33203125 423.6953125 C-164.96904348 416.9226212 -164.74399315 410.15486444 -164.61474609 403.37426758 C-164.08194491 375.67783016 -162.82667383 348.04917786 -161.32666016 320.38891602 C-160.98992441 314.17780781 -160.66451366 307.9661637 -160.34192562 301.75430679 C-159.04413696 276.8480379 -157.65919323 251.98944367 -155.12109375 227.17495728 C-154.74429469 223.46767235 -154.40004965 219.75796445 -154.05982971 216.04718018 C-152.30187175 196.9766695 -150.13903931 177.96065023 -147.73828125 158.9609375 C-147.55245987 157.47264435 -147.55245987 157.47264435 -147.36288452 155.95428467 C-146.06444149 145.60485712 -144.60686558 135.37099531 -142.45043945 125.16381836 C-141.6043021 121.0736775 -141.00808089 116.96974463 -140.42578125 112.8359375 C-135.49217271 80.61891866 -124.80070899 44.21096764 -104.80078125 18.0234375 C-104.08277344 17.0746875 -103.36476563 16.1259375 -102.625 15.1484375 C-76.3713583 -18.22406731 -34.49174502 -24.34145464 0 0 Z " fill="#FEFEFE" transform="translate(517.80078125,541.9765625)"/>
<path d="M0 0 C334.95 0 669.9 0 1015 0 C1015 1219.02 1015 2438.04 1015 3694 C680.05 3694 345.1 3694 0 3694 C0 2474.98 0 1255.96 0 0 Z M3 3 C3 956.7 3 1910.4 3 2893 C3.33 2893 3.66 2893 4 2893 C4.08975098 2892.31301025 4.17950195 2891.62602051 4.27197266 2890.91821289 C8.2500351 2861.03320454 16.06394612 2833.35605566 26 2805 C26.33962769 2804.03050415 26.67925537 2803.0610083 27.0291748 2802.06213379 C38.47884357 2769.43246935 50.52896632 2737.04538996 62.93670654 2704.76928711 C64.24650247 2701.35799839 65.5504539 2697.94449938 66.85353088 2694.53063965 C70.87020188 2684.00793778 74.9232708 2673.49957418 79 2663 C79.34369629 2662.11465576 79.68739258 2661.22931152 80.04150391 2660.31713867 C98.08161354 2613.88056017 116.69223748 2567.66815502 135.22019958 2521.42481995 C139.61977535 2510.44363829 144.01597436 2499.46112396 148.40527344 2488.47583008 C149.29897621 2486.23961205 150.19268344 2484.0033958 151.08639526 2481.7671814 C152.7491266 2477.60665021 154.4108838 2473.44573191 156.072052 2469.28457642 C164.09740581 2449.19520109 172.28444547 2429.17224653 180.48242188 2409.15283203 C183.03997867 2402.90463467 185.59105569 2396.65380397 188.140625 2390.40234375 C188.77595406 2388.84455452 188.77595406 2388.84455452 189.42411804 2387.2552948 C190.05758904 2385.70205254 190.05758904 2385.70205254 190.70385742 2384.11743164 C204.13150706 2351.19358651 217.60028972 2318.28796824 231.26237488 2285.46060181 C232.24071175 2283.10369729 233.21262056 2280.74422338 234.18359375 2278.38427734 C235.32544267 2275.61144223 236.49333095 2272.85297006 237.69140625 2270.10400391 C241.73176922 2260.69193689 243.91864519 2251.39617453 245.75 2241.375 C246.08322625 2239.60566205 246.41673297 2237.8363769 246.75048828 2236.06713867 C262.41411948 2152.09991676 273.14444039 2067.18101353 319 1503 C319.05447296 1501.43212738 319.05447296 1501.43212738 319.11004639 1499.83258057 C319.40105865 1491.37997209 319.64445308 1482.92795921 319.79760742 1474.47167969 C319.81317499 1473.6133532 319.82874256 1472.75502672 319.84478188 1471.87069035 C319.89754313 1468.91381062 319.94890633 1465.95690899 320 1463 C320.01873358 1461.93178701 320.03746716 1460.86357403 320.05676842 1459.76299095 C320.89783094 1411.17663795 321.13434049 1362.58850148 321.28125 1313.99609375 C321.28609045 1312.4077905 321.29093242 1310.81948725 321.29577589 1309.23118401 C321.37559799 1282.96320176 321.44474584 1256.69519174 321.51302338 1230.42717743 C321.52604399 1225.4201201 321.53911833 1220.41306291 321.55224609 1215.40600586 C321.55440496 1214.58218855 321.55656383 1213.75837123 321.55878812 1212.90958976 C321.59549061 1198.94204872 321.63545072 1184.97451866 321.67754889 1171.00699288 C321.70072826 1163.27281342 321.72238459 1155.53863659 321.73963928 1147.80444145 C321.81280244 1115.22991013 322.01183424 1082.66172754 322.48852539 1050.09033203 C322.50470443 1048.98315101 322.50470443 1048.98315101 322.52121031 1047.85360269 C322.8547295 1025.1483643 323.26496373 1002.44568932 323.8755722 979.74608994 C323.94051065 977.32526668 324.00420312 974.90441282 324.06768799 972.48355103 C326.46940231 881.17735686 330.30373324 789.74469481 398 533 C398.62132812 532.23429688 399.24265625 531.46859375 399.8828125 530.6796875 C415.11252943 512.39128265 437.74456188 502.15373998 461 499 C491.95413775 496.66413053 519.241921 505.26790997 543.12207031 525.35351562 C605.80908896 580.31467706 633.76555997 673.28063854 646.96875 752.8359375 C647.16238317 753.99919713 647.16238317 753.99919713 647.35992813 755.18595695 C650.01907575 771.27814025 651.95878929 787.40029328 653.62352753 803.62178802 C653.8848008 806.15762349 654.15005395 808.69301672 654.4163208 811.22833252 C655.98229118 826.14838546 657.49543011 841.07364711 659 856 C659.20109609 857.99210427 659.4021923 859.98420853 659.60329592 861.97631204 C668.86441753 953.7396031 677.59041487 1045.55347297 704.04350281 1337.4902153 C704.57088793 1343.4367516 705.0990814 1349.38321577 705.62751162 1355.32965928 C720.4100418 1521.69983938 720.4100418 1521.69983938 726.00149155 1604.69092178 C726.21723901 1607.88932617 726.43427564 1611.08763983 726.65201551 1614.28590912 C733.09832701 1708.98017712 738.80105112 1803.72666642 750.1875 2000.8125 C750.26170717 2002.11583676 750.33591434 2003.41917352 750.4123702 2004.76200533 C753.57519107 2060.3211443 756.70219209 2115.88194936 759.65229821 2171.45283294 C759.81489645 2174.51453931 759.97776463 2177.57623121 760.14072227 2180.63791847 C761.08538351 2198.38869787 762.02881146 2216.13951526 762.93963116 2233.89206797 C763.27878828 2240.49903108 763.62307683 2247.1057126 763.97144729 2253.71219629 C764.20556508 2258.15946797 764.43262111 2262.60701705 764.65369684 2267.05495518 C764.81880545 2270.33451916 764.99467874 2273.61348836 765.16894531 2276.89257812 C765.22395297 2278.04673123 765.27896063 2279.20088434 765.33563519 2280.39001179 C765.70622597 2287.1212867 766.24904402 2293.00138537 770.328125 2298.6015625 C771.02204346 2299.56799683 771.02204346 2299.56799683 771.72998047 2300.55395508 C772.23158691 2301.2373999 772.73319336 2301.92084473 773.25 2302.625 C774.34174432 2304.14149641 775.43286486 2305.65844202 776.5234375 2307.17578125 C777.09416992 2307.96549316 777.66490234 2308.75520508 778.25292969 2309.56884766 C781.16608185 2313.62267231 784.01868439 2317.71852783 786.875 2321.8125 C788.05706772 2323.50406277 789.23936117 2325.19546782 790.421875 2326.88671875 C791.01162109 2327.73024902 791.60136719 2328.5737793 792.20898438 2329.44287109 C793.99454173 2331.99220693 795.78553769 2334.53763478 797.578125 2337.08203125 C804.55375538 2346.99214458 811.38169341 2356.98184099 818.06738281 2367.08935547 C820.41817854 2370.6298035 822.78304113 2374.16070354 825.1484375 2377.69140625 C835.06178519 2392.49659793 844.88928432 2407.33812123 854.37451172 2422.42285156 C856.66259855 2426.05052423 858.97406355 2429.66311813 861.28369141 2433.27709961 C887.84804125 2474.87367762 912.81139072 2517.43040168 936 2561 C936.48758789 2561.91056152 936.97517578 2562.82112305 937.47753906 2563.75927734 C978.27723557 2640.0425181 1004.96642941 2714.42071468 1011 2801 C1011.33 2801 1011.66 2801 1012 2801 C1012 1877.66 1012 954.32 1012 3 C679.03 3 346.06 3 3 3 Z M416.75 554.75 C390.38154561 587.93420997 379.75499534 632.83113762 374 674 C373.84080078 675.12486816 373.68160156 676.24973633 373.51757812 677.40869141 C372.27586147 686.26377393 371.12065782 695.12885516 370 704 C369.835 705.30614258 369.67 706.61228516 369.5 707.95800781 C368.37491237 716.90946957 367.2975987 725.86622814 366.25323486 734.82745361 C366.08364547 736.28239086 365.9135153 737.73726516 365.74285889 739.19207764 C363.65726419 756.98820208 361.83292418 774.78761922 360.54296875 792.66015625 C360.48021885 793.52152758 360.41746895 794.3828989 360.35281754 795.27037239 C358.85844982 815.90798596 357.74303443 836.56447639 356.69238281 857.22875977 C356.481897 861.36638848 356.26668977 865.50372558 356.046875 869.64086914 C354.80071441 893.09805294 353.7816952 916.53391064 353.30587769 940.02018738 C353.11621106 949.37741362 352.84185204 958.71466383 352.34060669 968.06135559 C348.69674403 1037.30432799 349.87307657 1107.14402286 349.80076981 1176.46763229 C349.78994679 1186.80124138 349.76933241 1197.13482313 349.74765015 1207.46841431 C349.74018422 1211.07665817 349.73276847 1214.68490214 349.72536278 1218.29314613 C349.72351221 1219.1931708 349.72166165 1220.09319547 349.719755 1221.02049362 C349.69914707 1231.09243591 349.68017006 1241.16438096 349.66210938 1251.23632812 C349.66047119 1252.14846603 349.65883301 1253.06060393 349.65714519 1254.00038238 C349.63421561 1266.88983828 349.61648065 1279.77929438 349.6017861 1292.6687621 C349.57595369 1315.18286008 349.53803016 1337.69690644 349.4765625 1360.2109375 C349.47419603 1361.08294661 349.47182956 1361.95495572 349.46939138 1362.85338935 C349.31479167 1418.83061087 348.53119968 1474.73603747 346.2902922 1530.67490214 C346.05210924 1536.62929243 345.82702313 1542.58408488 345.60856628 1548.53923035 C345.57660323 1549.40970983 345.54464018 1550.28018931 345.51170856 1551.17704695 C345.38884361 1554.52727106 345.26623772 1557.8775046 345.14376414 1561.22774303 C343.87414905 1595.87409063 341.94231668 1630.4602481 339.63090515 1665.05171204 C339.10099417 1673.09978655 338.66540264 1681.14823499 338.34786987 1689.20758057 C338.15780811 1693.75607845 337.76869514 1698.23166116 337.23495483 1702.75204468 C336.83645398 1706.56474389 336.70399864 1710.3859364 336.546875 1714.21484375 C336.05084731 1725.02288329 335.17894728 1735.78434694 334.25 1746.5625 C334.0731142 1748.6426348 333.89652838 1750.72279513 333.72021484 1752.80297852 C333.34404788 1757.23630337 332.96597911 1761.66946113 332.58691406 1766.10253906 C331.99369365 1773.05454911 331.41422969 1780.00767243 330.8359375 1786.9609375 C328.68455849 1812.76624498 326.43988924 1838.56176644 324.06713104 1864.34758377 C323.87913204 1866.39255354 323.69183559 1868.43758658 323.50469971 1870.4826355 C321.94523327 1887.48555724 320.24731221 1904.46778105 318.38879395 1921.44058228 C317.990332 1925.08851081 317.5965588 1928.73691886 317.20410156 1932.38549805 C312.46497265 1976.42846249 307.63961572 2020.46101756 301.59199524 2064.34698486 C300.11433799 2075.07276748 298.71666532 2085.80822052 297.328125 2096.54586792 C293.79083693 2123.86285142 289.90710478 2151.05700074 285.17633057 2178.19354248 C283.8670216 2185.7247558 282.61845678 2193.26569375 281.37298584 2200.80767822 C280.25930759 2207.54022866 279.1305469 2214.27026504 278 2221 C277.87625 2221.73792786 277.7525 2222.47585571 277.625 2223.23614502 C274.48075118 2241.9598806 271.01456261 2260.48303923 266.45556641 2278.92578125 C265.92849345 2280.97163019 265.92849345 2280.97163019 266 2283 C421.43 2283 576.86 2283 737 2283 C737.03698672 2275.40656091 737.03698672 2275.40656091 736.75634766 2267.86206055 C736.6758165 2266.53846275 736.6758165 2266.53846275 736.59365845 2265.18812561 C736.53439178 2264.26366135 736.47512512 2263.33919708 736.4140625 2262.38671875 C736.32238297 2260.89566872 736.32238297 2260.89566872 736.22885132 2259.37449646 C736.09799855 2257.24952544 735.96585522 2255.12463356 735.83251953 2252.99981689 C735.47761056 2247.3349478 735.13404245 2241.66938717 734.7890625 2236.00390625 C734.6855246 2234.30920197 734.6855246 2234.30920197 734.57989502 2232.58026123 C734.02214928 2223.43012601 733.49186209 2214.27890773 733 2205.125 C732.96231506 2204.42475708 732.92463013 2203.72451416 732.88580322 2203.00305176 C731.97477415 2185.98981192 731.14733817 2168.97217357 730.30224609 2151.95556641 C729.3942767 2133.6857803 728.44791288 2115.41952463 727.40440369 2097.15701294 C727.03074276 2090.59615464 726.6732484 2084.034448 726.31640625 2077.47265625 C725.01774074 2053.65546038 723.66211184 2029.8445971 722.09008789 2006.04370117 C720.45909499 1981.26085916 719.12776568 1956.45976008 717.78125 1931.66015625 C717.67558952 1929.71615056 717.56992238 1927.77214523 717.46424866 1925.82814026 C717.3576646 1923.86654726 717.25109217 1921.90495363 717.14453125 1919.94335938 C717.09150062 1918.96719131 717.03846998 1917.99102324 716.98383236 1916.98527431 C716.71389895 1912.0132707 716.44482514 1907.0412227 716.17724609 1902.0690918 C714.64494204 1873.49686401 714.64494204 1873.49686401 712.723526 1844.9488678 C711.15373129 1823.78667772 710.02896617 1802.59135446 708.81640625 1781.40625 C708.71309274 1779.6031896 708.60977034 1777.8001297 708.50643921 1775.99707031 C708.40207233 1774.17513061 708.29771242 1772.3531905 708.19335938 1770.53125 C708.14131662 1769.62292419 708.08927387 1768.71459839 708.03565407 1767.77874756 C707.7731561 1763.1937285 707.51180872 1758.6086486 707.25268555 1754.0234375 C706.09662726 1733.58591857 704.83953237 1713.1633902 703.30873489 1692.75026894 C702.35794071 1680.07088841 701.48044513 1667.38922963 700.68359375 1654.69921875 C700.60545787 1653.4556555 700.60545787 1653.4556555 700.52574348 1652.18696976 C700.21242678 1647.18993496 699.90203509 1642.1927218 699.59277344 1637.19543457 C698.23987546 1615.34379235 696.88002607 1593.49470705 695.26974487 1571.66018677 C695.02875231 1568.39014213 694.78996702 1565.11994767 694.55196476 1561.84968472 C693.81821444 1551.77383372 693.07001973 1541.69909087 692.3125 1531.625 C692.24912445 1530.78192291 692.1857489 1529.93884583 692.12045288 1529.07022095 C689.8736419 1499.22997123 687.3220072 1469.4248418 684.59790039 1439.62475586 C684.29955126 1436.3605226 684.0013057 1433.0962799 683.703125 1429.83203125 C683.62982908 1429.03030676 683.55653316 1428.22858227 683.48101616 1427.4025631 C682.48193669 1416.46314083 681.51981054 1405.52137621 680.609375 1394.57421875 C680.55376781 1393.90589649 680.49816063 1393.23757423 680.44086838 1392.54899979 C680.15752002 1389.14062878 679.87496139 1385.73219268 679.5927124 1382.32373047 C676.38915253 1343.64799469 672.85265148 1305.00253208 669.30741024 1266.35690117 C668.73278642 1260.09217391 668.15913486 1253.82735792 667.5859375 1247.5625 C667.47443296 1246.34452225 667.36292843 1245.12654449 667.24804497 1243.87165833 C665.62085995 1226.0761057 664.07188697 1208.27513891 662.5757122 1190.46813393 C661.41274963 1176.64196295 660.16868281 1162.83046088 658.73284912 1149.02947998 C658.19891563 1143.89173562 657.67969024 1138.75249862 657.16015625 1133.61328125 C657.05864258 1132.61039063 656.95712891 1131.6075 656.85253906 1130.57421875 C655.95741936 1121.68034463 655.14412749 1112.78056921 654.375 1103.875 C654.31657928 1103.19903778 654.25815857 1102.52307556 654.19796753 1101.82662964 C654.02509668 1099.82453349 653.85239117 1097.82242307 653.6796875 1095.8203125 C651.98352142 1076.15953529 650.08053818 1056.51673326 648.08984375 1036.88378906 C647.40504203 1030.11942658 646.74445604 1023.35328889 646.1027832 1016.5847168 C644.94871684 1004.44089011 643.77979818 992.29850955 642.609375 980.15625 C642.44259971 978.42561184 642.44259971 978.42561184 642.27245522 976.66001129 C635.50824532 906.2043034 635.50824532 906.2043034 628.57470703 835.76513672 C628.20139366 832.03021233 627.83239908 828.29491203 627.46826172 824.55908203 C623.00035524 778.77415813 617.08910795 732.97056701 603 689 C602.61618164 687.78860352 602.23236328 686.57720703 601.83691406 685.32910156 C588.20742202 642.46800892 570.98905594 598.2575712 541 564 C540.27296875 563.15179687 539.5459375 562.30359375 538.796875 561.4296875 C523.61517488 544.07158981 503.3432993 529.15108576 479.69873047 526.76806641 C454.28180381 525.12206727 433.18670443 535.90359353 416.75 554.75 Z M251 2312 C248.40168983 2318.28717573 245.80377631 2324.57451525 243.20612049 2330.86196136 C242.32495399 2332.99463743 241.44370131 2335.12727789 240.562356 2337.25988007 C234.06178843 2352.98961077 227.59344477 2368.73147208 221.1875 2384.5 C219.78586936 2387.94701124 218.38392585 2391.39389511 216.98193359 2394.84075928 C216.03321865 2397.17325962 215.08464925 2399.50581916 214.13623047 2401.83843994 C211.09416465 2409.31822277 208.04078399 2416.79329284 204.98046875 2424.265625 C189.29655604 2462.58560219 173.94870573 2501.03918785 158.59466553 2539.49221802 C153.91749168 2551.20506904 149.23242177 2562.91471946 144.5390625 2574.62109375 C133.2645551 2602.74652314 122.05007422 2630.89294467 111.06434631 2659.13278198 C108.67746347 2665.26729229 106.27734625 2671.39650177 103.87109375 2677.5234375 C95.65490751 2698.4585197 87.63592411 2719.45921646 79.78688049 2740.53463745 C77.62445629 2746.33748787 75.44367968 2752.13320164 73.25390625 2757.92578125 C66.62985798 2775.46227898 60.12937809 2793.03778976 53.8125 2810.6875 C53.49603516 2811.56927917 53.17957031 2812.45105835 52.85351562 2813.35955811 C46.17833379 2831.98088395 40.54246842 2850.73753019 36 2870 C35.65026123 2871.4530957 35.65026123 2871.4530957 35.29345703 2872.93554688 C31.5521476 2889.28538638 31.63770296 2905.7526796 31.625 2922.4375 C31.62291534 2923.55647675 31.62083069 2924.67545349 31.61868286 2925.82833862 C31.62258348 2944.34251897 32.67042941 2962.41174201 36.48876953 2980.55810547 C36.86495308 2982.35494779 37.2317444 2984.15376284 37.59326172 2985.95361328 C45.69795646 3026.14974702 61.17887964 3063.57757664 88.63378906 3094.46191406 C89.99412366 3095.99338439 91.3368747 3097.53910347 92.6796875 3099.0859375 C103.03874215 3110.8572336 114.5455232 3119.82317037 128.0625 3127.625 C129.37793519 3128.39712475 130.69253311 3129.17067747 132.00634766 3129.94555664 C134.02578807 3131.1362107 136.04575808 3132.32585276 138.06854248 3133.51081848 C144.71951504 3137.40720564 151.29789264 3141.41813041 157.875 3145.4375 C168.54508425 3151.94124632 179.27680451 3158.33717206 190.03039551 3164.70169067 C199.59899983 3170.36623407 209.12947079 3176.08882888 218.625 3181.875 C229.40832498 3188.44442329 240.24764824 3194.90991345 251.13183594 3201.31054688 C256.49024525 3204.46684518 261.83820988 3207.64078009 267.1875 3210.8125 C268.90367526 3211.82951539 270.61985053 3212.84653076 272.33602905 3213.86354065 C277.51707177 3216.93404088 282.69663885 3220.0070107 287.875 3223.08203125 C308.58915812 3235.37842467 329.36109615 3247.56855031 350.30664062 3259.46728516 C353.16059957 3261.09139269 356.01001167 3262.72331372 358.859375 3264.35546875 C400.17911923 3287.96675117 438.59238083 3298.64644108 486.53198242 3298.33618164 C490.45837704 3298.31237341 494.3840971 3298.31567967 498.31054688 3298.32226562 C511.68120757 3298.30721438 524.76016608 3297.94813089 538 3296 C538.73073227 3295.89527878 539.46146454 3295.79055756 540.21434021 3295.68266296 C575.8548723 3290.54411223 602.63120882 3270.60899844 631.05761719 3249.99707031 C636.66522729 3245.94004025 642.3220114 3241.95778417 648 3238 C656.66135764 3231.96066622 665.2379552 3225.81244268 673.78222656 3219.60888672 C677.51689314 3216.89956783 681.25888738 3214.20040679 685 3211.5 C686.50131501 3210.41538248 688.0026171 3209.33074707 689.50390625 3208.24609375 C692.48909108 3206.08994701 695.47621388 3203.93652496 698.46484375 3201.78515625 C714.90160102 3189.94760092 731.17567405 3177.91868598 747.265625 3165.61328125 C750.88899788 3162.84317716 754.52908713 3160.09859743 758.1875 3157.375 C775.7185324 3144.25789752 792.77386389 3130.53991221 809.43212891 3116.33398438 C811.00692373 3114.99410911 812.58653997 3113.66016154 814.16796875 3112.328125 C820.60243007 3106.90678671 826.98736114 3101.43198698 833.33666992 3095.91113281 C837.01628694 3092.71294774 840.71226375 3089.53557749 844.42504883 3086.37597656 C850.4638581 3081.23307597 856.37287883 3075.97610718 862.1953125 3070.58984375 C867.22180445 3065.94838948 872.32842707 3061.39579766 877.421875 3056.828125 C904.50091241 3032.98099833 904.50091241 3032.98099833 929.33203125 3006.8828125 C931.09918128 3004.88804361 932.96286412 3003.04328609 934.875 3001.1875 C939.15075528 2996.95262192 942.94274664 2992.41507723 946.66503906 2987.68994141 C947.61714076 2986.48466563 948.5755238 2985.28434072 949.53808594 2984.08740234 C968.11386631 2960.95331775 975.59897522 2936.94904442 981.1875 2908.125 C981.34226807 2907.33085693 981.49703613 2906.53671387 981.65649414 2905.71850586 C982.13731296 2903.15021698 982.57647962 2900.57837219 983 2898 C983.17950195 2896.92709717 983.35900391 2895.85419434 983.54394531 2894.7487793 C985.17119657 2884.00499117 985.39591268 2873.41106718 985.375 2862.5625 C985.37518127 2861.10142822 985.37518127 2861.10142822 985.37536621 2859.61083984 C985.28107132 2805.06015165 982.19361486 2747.05749924 965 2695 C964.48435301 2693.39063204 963.96872604 2691.78125768 963.453125 2690.171875 C943.27486627 2628.70579455 910.58514553 2570.59702882 878 2515 C877.63092529 2514.36991028 877.26185059 2513.73982056 876.8815918 2513.09063721 C867.07346198 2496.35545124 857.11109271 2479.75562424 846.58349609 2463.45996094 C843.98770479 2459.42739954 841.43197575 2455.36974001 838.875 2451.3125 C838.38136963 2450.53132813 837.88773926 2449.75015625 837.37915039 2448.9453125 C835.00451222 2445.1866107 832.63823871 2441.42310949 830.2890625 2437.6484375 C820.86289612 2422.543495 810.93705875 2407.77135216 801 2393 C800.33239655 2392.00761322 800.33239655 2392.00761322 799.65130615 2390.99517822 C778.52585975 2359.39821619 778.52585975 2359.39821619 756.41671556 2328.49232167 C754.77306184 2326.21263977 753.56298442 2324.13169965 752.28306824 2321.58865148 C748.89814945 2315.19587575 748.89814945 2315.19587575 743.07447509 2311.25745271 C737.17477663 2310.02413991 731.15622221 2310.31348732 725.16355896 2310.43669128 C723.11811717 2310.43101975 721.07268461 2310.41963243 719.02730232 2310.40303212 C713.4140456 2310.37398323 707.80401771 2310.42592157 702.19117248 2310.49114692 C696.13606144 2310.54730609 690.08113135 2310.52828793 684.02583313 2310.51841736 C673.53735227 2310.51160179 663.04980213 2310.55192196 652.5616436 2310.62550926 C641.56377615 2310.70247472 630.56632824 2310.75247502 619.56819344 2310.76659584 C618.88395678 2310.76748946 618.19972013 2310.76838307 617.49474903 2310.76930377 C614.01974785 2310.7737022 610.54474631 2310.77762015 607.06974436 2310.78135315 C582.46670245 2310.80864671 557.86420813 2310.89619842 533.26147461 2311.01928711 C509.36274118 2311.13871551 485.46415768 2311.23078702 461.56518555 2311.28588867 C460.45986572 2311.28845343 460.45986572 2311.28845343 459.3322162 2311.29107001 C451.93205432 2311.30821101 444.53189129 2311.32479655 437.13172725 2311.34097518 C422.05721629 2311.37394449 406.98271511 2311.41062077 391.90821838 2311.44953918 C391.21514247 2311.45132395 390.52206655 2311.45310872 389.80798833 2311.45494758 C343.53842673 2311.57452318 297.26918553 2311.78077762 251 2312 Z M1011 2900 C1010.87995605 2900.72775635 1010.75991211 2901.4555127 1010.63623047 2902.20532227 C1004.75768513 2937.44064836 997.29729936 2969.49125157 975 2998 C973.85337891 2999.46759766 973.85337891 2999.46759766 972.68359375 3000.96484375 C967.57843584 3007.33030898 962.122513 3013.32856728 956.56225586 3019.29418945 C955.4447979 3020.5143299 954.34312257 3021.74899992 953.25219727 3022.99291992 C946.24135187 3030.95170111 938.74180131 3038.40947579 931.23413086 3045.89624023 C928.9355279 3048.18946748 926.6423397 3050.4880124 924.34960938 3052.78710938 C922.86750813 3054.26855 921.3850968 3055.7496805 919.90234375 3057.23046875 C919.22815903 3057.9066777 918.5539743 3058.58288666 917.85935974 3059.27958679 C913.97764066 3063.14251198 909.99549178 3066.83110168 905.84144592 3070.40010071 C902.64497448 3073.17728376 899.58092793 3076.09606754 896.5 3079 C892.02163932 3083.20076952 887.53138871 3087.36700087 882.875 3091.37109375 C880.61248819 3093.33665089 878.40309317 3095.35673309 876.1875 3097.375 C872.72469918 3100.50422827 869.19320997 3103.50500349 865.5625 3106.4375 C861.75912497 3109.51336588 858.09917348 3112.68753166 854.5 3116 C850.13230508 3120.01605847 845.63150764 3123.79385454 841.015625 3127.51953125 C837.4532876 3130.44969219 833.97551419 3133.46787135 830.5 3136.5 C824.42785781 3141.788444 818.27579991 3146.95356912 812 3152 C810.86197616 3152.9205692 809.72395551 3153.84114234 808.5859375 3154.76171875 C799.94763378 3161.72939624 791.17520489 3168.50845378 782.33789062 3175.22119141 C779.86216446 3177.10487362 777.39162262 3178.99520569 774.921875 3180.88671875 C764.14632882 3189.13237148 753.29310199 3197.25996396 742.34716797 3205.27783203 C739.96878089 3207.02290613 737.59500866 3208.77407617 735.22265625 3210.52734375 C725.27414318 3217.87891652 715.27798101 3225.16024484 705.23828125 3232.38671875 C702.97933793 3234.01489256 700.72357339 3235.64737625 698.46875 3237.28125 C690.47835498 3243.06905955 682.45887398 3248.81046805 674.38769531 3254.48510742 C669.2907215 3258.07402086 664.2331664 3261.71439687 659.1875 3265.375 C651.97781077 3270.60165208 644.70931511 3275.73868079 637.40234375 3280.82836914 C633.41284774 3283.6075991 629.4328921 3286.397138 625.484375 3289.234375 C594.75426374 3311.29063666 563.01889755 3323.3016762 525 3326 C524.24428711 3326.05639648 523.48857422 3326.11279297 522.70996094 3326.17089844 C455.85861433 3330.94397726 397.63189814 3320.38027849 339.81933594 3286.640625 C336.83668727 3284.90496523 333.84525112 3283.18529318 330.8515625 3281.46875 C318.61277313 3274.44614253 306.43619438 3267.32544078 294.30688477 3260.11547852 C286.7587967 3255.62966183 279.19366773 3251.17466355 271.61453247 3246.74157715 C250.16833633 3234.19688351 228.80676133 3221.51011092 207.51513672 3208.70483398 C199.68002162 3203.9965883 191.8206516 3199.33018964 183.9564209 3194.6708374 C171.24773278 3187.14035647 158.59072894 3179.53287253 145.98876953 3171.82470703 C141.44768045 3169.05227607 136.89846091 3166.29328346 132.34912109 3163.53442383 C129.92477242 3162.06405156 127.50198248 3160.59116328 125.08056641 3159.1159668 C119.97838786 3156.00908628 114.87294399 3152.91191184 109.71484375 3149.8984375 C99.90979463 3144.13726151 91.27281865 3137.81294726 83 3130 C82.43410156 3129.46584473 81.86820312 3128.93168945 81.28515625 3128.38134766 C73.9331776 3121.36904376 67.24272237 3114.02796133 61 3106 C60.20078125 3105.00613281 59.4015625 3104.01226563 58.578125 3102.98828125 C23.82699365 3059.42557082 10.43646614 3006.28240519 4 2952 C3.67 2952 3.34 2952 3 2952 C3 3195.87 3 3439.74 3 3691 C335.97 3691 668.94 3691 1012 3691 C1012 3429.97 1012 3168.94 1012 2900 C1011.67 2900 1011.34 2900 1011 2900 Z " fill="#000000" transform="translate(0,0)"/>
<path d="M0 0 C334.95 0 669.9 0 1015 0 C1015 1219.02 1015 2438.04 1015 3694 C680.05 3694 345.1 3694 0 3694 C0 2474.98 0 1255.96 0 0 Z M3 3 C2.91243792 211.85747939 2.91243792 211.85747939 2.82616145 420.71495931 C2.82545536 422.441331 2.82474927 424.16770269 2.82404317 425.89407438 C2.82368912 426.75975223 2.82333507 427.62543008 2.82297029 428.5173406 C2.82186708 431.2144566 2.8207635 433.9115726 2.81965982 436.6086886 C2.77980029 534.01795353 2.74071684 631.42721874 2.67281615 807.50714913 C2.67164518 810.55958096 2.67047394 813.61201279 2.66930261 816.66444462 C2.63605251 903.3137344 2.60305354 989.96302427 2.57038688 1076.61231427 C2.5691754 1079.82579958 2.56796391 1083.0392849 2.5667524 1086.25277021 C2.56635226 1087.31412771 2.56595213 1088.3754852 2.56553987 1089.46900504 C2.55050434 1129.34889587 2.53541197 1169.22878667 2.52028555 1209.10867746 C2.51864292 1213.43950009 2.51700095 1217.77032272 2.51535956 1222.10114535 C2.47699914 1323.31446062 2.43767876 1424.52777536 2.39489746 1525.74108887 C2.39445372 1526.79107189 2.39400999 1527.84105491 2.3935528 1528.92285559 C2.37881233 1563.79818989 2.36397006 1598.67352415 2.34911357 1633.54885839 C2.33568435 1665.07444712 2.32229204 1696.60003586 2.30902004 1728.12562466 C2.30858333 1729.16294394 2.30814661 1730.20026322 2.30769666 1731.26901642 C2.2799817 1797.12237533 2.25389227 1862.97573474 2.22931767 1928.82909489 C2.22893284 1929.85976915 2.22854802 1930.89044341 2.22815154 1931.95235022 C2.2111801 1977.41048014 2.1945331 2022.86861016 2.17824754 2068.32674033 C2.17167382 2086.67195756 2.16505297 2105.01717478 2.15840613 2123.36239198 C2.15730527 2126.40185931 2.15620593 2129.44132664 2.15510677 2132.48079397 C2.13414242 2190.41456782 2.11015464 2248.34833962 2.08341022 2306.28211108 C2.04124813 2397.64095123 2.00485688 2488.99979203 1.97904582 2580.35863838 C1.9782728 2583.08690394 1.97749288 2585.81516949 1.97671095 2588.54343505 C1.9509022 2678.71145589 1.93717254 2768.87948296 2.21204633 3146.85634391 C2.21578846 3150.00468509 2.21951522 3153.15302629 2.22323606 3156.3013675 C2.22445423 3157.33141213 2.22567239 3158.36145676 2.22692747 3159.42271486 C2.22914327 3161.2967258 2.23135699 3163.17073675 2.23356758 3165.0447477 C2.4410599 3340.36322991 2.7317896 3515.68160613 3 3691 C335.97 3691 668.94 3691 1012 3691 C1012.28942379 3428.12415122 1012.28942379 3428.12415122 1012.56811523 3165.24829102 C1012.6270752 3114.50769043 1012.6270752 3114.50769043 1012.65589905 3090.78477478 C1012.67708072 3073.05108304 1012.694977 3055.31739089 1012.71129703 3037.58369411 C1012.72800924 3019.51114188 1012.74840529 3001.43859659 1012.77237374 2983.3660525 C1012.78652551 2972.61326722 1012.79798503 2961.8604873 1012.80541687 2951.10769523 C1012.81058856 2944.01289837 1012.81932721 2936.91811179 1012.83100615 2929.82332268 C1012.83756045 2925.7791478 1012.84253153 2921.73498773 1012.84315884 2917.69080722 C1012.84376236 2914.00367831 1012.84893302 2910.31658488 1012.8577199 2906.62946664 C1012.86119313 2904.68080881 1012.85981765 2902.73214418 1012.85823598 2900.7834839 C1012.87827433 2894.43057805 1013.19716481 2888.30066798 1014 2882 C1014.12332724 2879.06999783 1014.14069311 2876.1471963 1014.1328125 2873.21484375 C1014.13376923 2872.39665665 1014.13472595 2871.57846954 1014.13571167 2870.73548889 C1014.13638817 2869.00684533 1014.13457113 2867.27819914 1014.13037109 2865.54956055 C1014.12512002 2862.99586743 1014.13027943 2860.44235884 1014.13671875 2857.88867188 C1014.13882518 2850.21876081 1014.05983541 2842.57278574 1013.6396605 2834.91346001 C1012.58514448 2814.81564142 1012.85390318 2794.6730402 1012.86079345 2774.55489686 C1012.86172702 2768.56916221 1012.85683785 2762.58343166 1012.85272202 2756.59769875 C1012.84628317 2746.08178906 1012.84348163 2735.56588273 1012.84316199 2725.04997146 C1012.84279696 2713.71583586 1012.84021855 2702.38170384 1012.8350333 2691.04756939 C1012.83470492 2690.32687493 1012.83437654 2689.60618047 1012.8340382 2688.86364678 C1012.83235155 2685.18338556 1012.83063014 2681.50312436 1012.82889687 2677.82286317 C1012.81633444 2650.99100408 1012.80864048 2624.15914529 1012.80341911 2597.32728386 C1012.79811241 2570.13997225 1012.7906284 2542.9526625 1012.78049088 2515.76535225 C1012.78017188 2514.90725519 1012.77985288 2514.04915814 1012.77952421 2513.16505814 C1012.77659993 2505.30095072 1012.77365151 2497.4368433 1012.77067431 2489.5727359 C1012.76321064 2469.85482711 1012.75607458 2450.1369182 1012.74915612 2430.41900921 C1012.74883889 2429.51556446 1012.74852167 2428.6121197 1012.74819483 2427.68129784 C1012.73259354 2383.16618452 1012.72071305 2338.6510703 1012.70907402 2294.13595581 C1012.70497522 2278.46935398 1012.70085872 2262.80275216 1012.69667697 2247.13615036 C1012.69641702 2246.16223337 1012.69615708 2245.18831639 1012.69588925 2244.18488677 C1012.68382075 2199.05036549 1012.66920491 2153.91584515 1012.65393867 2108.78132486 C1012.65294009 2105.8286322 1012.6519427 2102.87593954 1012.65094561 2099.92324688 C1012.64493198 2082.11821886 1012.63889185 2064.31319084 1012.63282111 2046.50816284 C1012.61773117 2002.24707508 1012.60295912 1957.98598723 1012.58840275 1913.72489929 C1012.58807123 1912.71733019 1012.5877397 1911.70976109 1012.58739814 1910.67165959 C1012.56593312 1845.42696552 1012.54577666 1780.18227112 1012.52671719 1714.93757629 C1012.52626081 1713.37535357 1012.52626081 1713.37535357 1012.52579521 1711.7815708 C1012.51653656 1680.07886794 1012.50737484 1648.37616506 1012.49823208 1616.67346216 C1012.4881141 1581.59063736 1012.47797959 1546.50781257 1012.46777344 1511.42498779 C1012.46746659 1510.37001714 1012.46715973 1509.31504648 1012.46684358 1508.22810702 C1012.43768744 1408.00681064 1012.40586203 1307.78551517 1012.37334755 1207.56421984 C1012.37197034 1203.31855304 1012.37059389 1199.07288623 1012.36921749 1194.82721943 C1012.35655129 1155.75732059 1012.34385378 1116.68742177 1012.33111694 1077.61752295 C1012.33077826 1076.57860805 1012.33043957 1075.53969315 1012.33009062 1074.46929598 C1012.32906517 1071.32374087 1012.3280397 1068.17818577 1012.32701423 1065.03263067 C1012.29931179 980.05663468 1012.27188242 895.08063861 1012.24463 810.10464249 C1012.24366841 807.10651232 1012.24270661 804.10838215 1012.24174474 801.11025199 C1012.21049269 703.6948942 1012.17972398 606.27953628 1012.12762691 434.26974175 C1012.12682834 431.61734539 1012.12602951 428.96494903 1012.12523057 426.31255266 C1012.12496906 425.44433008 1012.12470756 424.5761075 1012.12443813 423.68157514 C1012.12396218 422.10140125 1012.1234862 420.52122735 1012.12301016 418.94105345 C1012.08125299 280.29403586 1012.0407986 141.64701788 1012 3 C679.03 3 346.06 3 3 3 Z " fill="#F9F9F9" transform="translate(0,0)"/>
<path d="M0 0 C0.25394531 0.83402344 0.50789063 1.66804688 0.76953125 2.52734375 C2.57299729 8.42406978 4.39107977 14.29655618 6.484375 20.09765625 C7 22 7 22 7 26 C-2.00878906 29.00292969 -2.00878906 29.00292969 -11.01757812 32.00585938 C-11.66873596 32.22296066 -12.3198938 32.44006195 -12.99078369 32.66374207 C-14.32102892 33.10705814 -15.65139355 33.55001607 -16.98187256 33.99263 C-20.29643589 35.09578619 -23.60884496 36.20464164 -26.91699219 37.3269043 C-34.59726581 39.92541932 -42.3024455 42.30517976 -50.125 44.4375 C-52.31792228 45.04088966 -54.51062787 45.64506732 -56.703125 46.25 C-58.30897461 46.69279297 -58.30897461 46.69279297 -59.94726562 47.14453125 C-62.65592461 47.90357964 -65.35288584 48.69072133 -68.046875 49.5 C-90.99514245 56.37075269 -114.44360559 61.44359086 -138.0625 65.375 C-138.78656036 65.49633301 -139.51062073 65.61766602 -140.25662231 65.74267578 C-203.68647185 76.27342682 -267.74051296 69.93720828 -330 55 C-331.32022156 54.68455231 -331.32022156 54.68455231 -332.66711426 54.36273193 C-340.07379303 52.59175836 -347.47577241 50.80184098 -354.875 49 C-355.90749878 48.7486026 -356.93999756 48.4972052 -358.00378418 48.2381897 C-369.15752773 45.51415443 -380.28959173 42.71162677 -391.3828125 39.75 C-392.32228729 39.50378906 -393.26176208 39.25757812 -394.22970581 39.00390625 C-395.09121246 38.77058594 -395.95271912 38.53726563 -396.84033203 38.296875 C-397.59798859 38.09416992 -398.35564514 37.89146484 -399.13626099 37.68261719 C-401 37 -401 37 -403 35 C-400.69 26.42 -398.38 17.84 -396 9 C-391.01598042 9 -388.35324787 9.29140702 -383.7890625 10.703125 C-375.04605108 13.30840046 -366.22619656 15.54391503 -357.375 17.75 C-356.07592712 18.07381653 -356.07592712 18.07381653 -354.75061035 18.4041748 C-291.49754448 34.13013894 -228.38543973 45.75682245 -163 39 C-162.26201172 38.93055176 -161.52402344 38.86110352 -160.76367188 38.78955078 C-135.34455447 36.3858662 -110.10999351 29.53770073 -85.375 23.4375 C-84.22539795 23.15664551 -83.0757959 22.87579102 -81.89135742 22.58642578 C-75.3691013 20.95905314 -69.00839246 19.07870018 -62.64941406 16.8996582 C-59.35751522 15.78183225 -56.03272926 14.8201482 -52.6875 13.875 C-42.64100565 10.986784 -32.71436332 7.71465048 -22.77612305 4.47802734 C-22.11872635 4.26432999 -21.46132965 4.05063263 -20.78401184 3.83045959 C-18.97913787 3.24344201 -17.17485185 2.65461754 -15.37060547 2.06567383 C-4.51229861 -1.36736322 -4.51229861 -1.36736322 0 0 Z " fill="#020202" transform="translate(661,3046)"/>
</svg>
