<?xml version="1.0" encoding="UTF-8"?>
<!DOCTYPE svg PUBLIC "-//W3C//DTD SVG 1.1//EN" "http://www.w3.org/Graphics/SVG/1.1/DTD/svg11.dtd">
<svg xmlns="http://www.w3.org/2000/svg" version="1.1" width="1553px" height="3694px" style="shape-rendering:geometricPrecision; text-rendering:geometricPrecision; image-rendering:optimizeQuality; fill-rule:evenodd; clip-rule:evenodd" xmlns:xlink="http://www.w3.org/1999/xlink">
<g><path style="opacity:0.749" fill="#fbfbfb" d="M -0.5,-0.5 C 517.167,-0.5 1034.83,-0.5 1552.5,-0.5C 1552.5,1230.83 1552.5,2462.17 1552.5,3693.5C 1034.83,3693.5 517.167,3693.5 -0.5,3693.5C -0.5,2462.17 -0.5,1230.83 -0.5,-0.5 Z M 1549.5,2980.5 C 1544.29,2956.98 1539.13,2933.31 1534,2909.5C 1528.46,2890.23 1522.13,2871.23 1515,2852.5C 1480.05,2764.59 1440.72,2678.59 1397,2594.5C 1371.75,2529.09 1349.09,2462.76 1329,2395.5C 1319.51,2363.31 1310.01,2331.47 1300.5,2300C 1299.5,2299.67 1298.5,2299.33 1297.5,2299C 1253.03,2255.53 1208.86,2211.69 1165,2167.5C 1156.16,2128.64 1147.33,2089.8 1138.5,2051C 1163.21,2040.39 1184.71,2025.23 1203,2005.5C 1231.7,1969.59 1230.2,1935.09 1198.5,1902C 1180.05,1886.35 1159.55,1873.85 1137,1864.5C 1136.5,1854.84 1136.33,1845.17 1136.5,1835.5C 1164.86,1829.25 1187.69,1814.58 1205,1791.5C 1226.51,1751.39 1219.68,1716.89 1184.5,1688C 1168.45,1677.06 1150.95,1669.23 1132,1664.5C 1131.33,1652.5 1131.33,1640.5 1132,1628.5C 1132.32,1626.94 1133.15,1625.77 1134.5,1625C 1167.4,1618.32 1193.57,1601.48 1213,1574.5C 1226.48,1547.23 1221.98,1523.4 1199.5,1503C 1180.06,1487.95 1158.4,1477.12 1134.5,1470.5C 1133.32,1456.16 1133.49,1441.83 1135,1427.5C 1160.14,1424.84 1181.98,1415.01 1200.5,1398C 1222.77,1370.31 1224.27,1341.48 1205,1311.5C 1186.72,1290.1 1163.55,1277.1 1135.5,1272.5C 1136.07,1249.84 1136.57,1227.17 1137,1204.5C 1164.25,1203.98 1187.91,1194.64 1208,1176.5C 1232.3,1146.14 1232.64,1115.48 1209,1084.5C 1188.21,1062.36 1162.71,1049.02 1132.5,1044.5C 1131.7,1010.48 1127.86,976.818 1121,943.5C 1104.61,874.448 1064.11,825.281 999.5,796C 941.161,770.499 880.161,755.832 816.5,752C 749.455,746.798 683.455,752.798 618.5,770C 574.088,782.035 534.421,802.702 499.5,832C 465.915,863.992 444.415,902.826 435,948.5C 422.762,950.403 410.595,952.903 398.5,956C 375.86,963.71 358.694,977.877 347,998.5C 338.584,1020.25 340.251,1041.25 352,1061.5C 366.634,1083.46 386.134,1099.63 410.5,1110C 417.208,1112.9 424.041,1115.4 431,1117.5C 431.833,1131.51 431.666,1145.51 430.5,1159.5C 408.415,1168.77 388.915,1181.77 372,1198.5C 350.031,1226.81 350.031,1255.14 372,1283.5C 388.509,1300.34 407.509,1313.67 429,1323.5C 429.949,1341.22 429.449,1358.88 427.5,1376.5C 406.024,1383.18 387.524,1394.51 372,1410.5C 349.439,1440.64 350.105,1470.31 374,1499.5C 388.735,1514.37 406.402,1524.04 427,1528.5C 427.333,1543.17 427,1557.84 426,1572.5C 402.313,1578.5 381.98,1590.17 365,1607.5C 348.07,1632.12 349.07,1656.12 368,1679.5C 384.491,1697.24 403.491,1711.57 425,1722.5C 424.718,1742.82 424.551,1763.15 424.5,1783.5C 400.351,1783.83 378.351,1790.66 358.5,1804C 334.305,1826.3 328.472,1852.8 341,1883.5C 358.279,1916.6 385.446,1935.93 422.5,1941.5C 422.758,1977.84 422.258,2014.18 421,2050.5C 402.551,2056.64 385.051,2064.81 368.5,2075C 347.636,2089.91 340.803,2109.75 348,2134.5C 353.792,2150.25 361.292,2165.08 370.5,2179C 333.055,2210.14 295.888,2241.64 259,2273.5C 241.115,2376.85 203.448,2472.19 146,2559.5C 135.385,2574.45 124.385,2589.12 113,2603.5C 95.9609,2622.2 79.2943,2641.2 63,2660.5C 28.7233,2704.05 8.55666,2753.39 2.5,2808.5C 2.5,1873.17 2.5,937.833 2.5,2.5C 518.167,2.5 1033.83,2.5 1549.5,2.5C 1549.5,995.167 1549.5,1987.83 1549.5,2980.5 Z M 2.5,2848.5 C 26.4998,3014.31 115.833,3129.15 270.5,3193C 340.486,3221.1 413.152,3237.26 488.5,3241.5C 539.642,3239.21 587.642,3225.71 632.5,3201C 669.105,3181.06 702.938,3157.22 734,3129.5C 795.935,3190.74 869.435,3232.24 954.5,3254C 1038.41,3274.4 1123.08,3278.06 1208.5,3265C 1255.72,3258.49 1301.72,3247.16 1346.5,3231C 1413.89,3201.89 1469.72,3158.05 1514,3099.5C 1530.67,3077.49 1542.5,3053.16 1549.5,3026.5C 1549.5,3247.83 1549.5,3469.17 1549.5,3690.5C 1033.83,3690.5 518.167,3690.5 2.5,3690.5C 2.5,3409.83 2.5,3129.17 2.5,2848.5 Z"/></g>
<g><path style="opacity:0.982" fill="#010101" d="M 1549.5,2980.5 C 1550.83,2995.83 1550.83,3011.17 1549.5,3026.5C 1542.5,3053.16 1530.67,3077.49 1514,3099.5C 1469.72,3158.05 1413.89,3201.89 1346.5,3231C 1301.72,3247.16 1255.72,3258.49 1208.5,3265C 1123.08,3278.06 1038.41,3274.4 954.5,3254C 869.435,3232.24 795.935,3190.74 734,3129.5C 702.938,3157.22 669.105,3181.06 632.5,3201C 587.642,3225.71 539.642,3239.21 488.5,3241.5C 413.152,3237.26 340.486,3221.1 270.5,3193C 115.833,3129.15 26.4998,3014.31 2.5,2848.5C 2.5,2835.17 2.5,2821.83 2.5,2808.5C 8.55666,2753.39 28.7233,2704.05 63,2660.5C 79.2943,2641.2 95.9609,2622.2 113,2603.5C 124.385,2589.12 135.385,2574.45 146,2559.5C 203.448,2472.19 241.115,2376.85 259,2273.5C 295.888,2241.64 333.055,2210.14 370.5,2179C 361.292,2165.08 353.792,2150.25 348,2134.5C 340.803,2109.75 347.636,2089.91 368.5,2075C 385.051,2064.81 402.551,2056.64 421,2050.5C 422.258,2014.18 422.758,1977.84 422.5,1941.5C 385.446,1935.93 358.279,1916.6 341,1883.5C 328.472,1852.8 334.305,1826.3 358.5,1804C 378.351,1790.66 400.351,1783.83 424.5,1783.5C 424.551,1763.15 424.718,1742.82 425,1722.5C 403.491,1711.57 384.491,1697.24 368,1679.5C 349.07,1656.12 348.07,1632.12 365,1607.5C 381.98,1590.17 402.313,1578.5 426,1572.5C 427,1557.84 427.333,1543.17 427,1528.5C 406.402,1524.04 388.735,1514.37 374,1499.5C 350.105,1470.31 349.439,1440.64 372,1410.5C 387.524,1394.51 406.024,1383.18 427.5,1376.5C 429.449,1358.88 429.949,1341.22 429,1323.5C 407.509,1313.67 388.509,1300.34 372,1283.5C 350.031,1255.14 350.031,1226.81 372,1198.5C 388.915,1181.77 408.415,1168.77 430.5,1159.5C 431.666,1145.51 431.833,1131.51 431,1117.5C 424.041,1115.4 417.208,1112.9 410.5,1110C 386.134,1099.63 366.634,1083.46 352,1061.5C 340.251,1041.25 338.584,1020.25 347,998.5C 358.694,977.877 375.86,963.71 398.5,956C 410.595,952.903 422.762,950.403 435,948.5C 444.415,902.826 465.915,863.992 499.5,832C 534.421,802.702 574.088,782.035 618.5,770C 683.455,752.798 749.455,746.798 816.5,752C 880.161,755.832 941.161,770.499 999.5,796C 1064.11,825.281 1104.61,874.448 1121,943.5C 1127.86,976.818 1131.7,1010.48 1132.5,1044.5C 1162.71,1049.02 1188.21,1062.36 1209,1084.5C 1232.64,1115.48 1232.3,1146.14 1208,1176.5C 1187.91,1194.64 1164.25,1203.98 1137,1204.5C 1136.57,1227.17 1136.07,1249.84 1135.5,1272.5C 1163.55,1277.1 1186.72,1290.1 1205,1311.5C 1224.27,1341.48 1222.77,1370.31 1200.5,1398C 1181.98,1415.01 1160.14,1424.84 1135,1427.5C 1133.49,1441.83 1133.32,1456.16 1134.5,1470.5C 1158.4,1477.12 1180.06,1487.95 1199.5,1503C 1221.98,1523.4 1226.48,1547.23 1213,1574.5C 1193.57,1601.48 1167.4,1618.32 1134.5,1625C 1133.15,1625.77 1132.32,1626.94 1132,1628.5C 1131.33,1640.5 1131.33,1652.5 1132,1664.5C 1150.95,1669.23 1168.45,1677.06 1184.5,1688C 1219.68,1716.89 1226.51,1751.39 1205,1791.5C 1187.69,1814.58 1164.86,1829.25 1136.5,1835.5C 1136.33,1845.17 1136.5,1854.84 1137,1864.5C 1159.55,1873.85 1180.05,1886.35 1198.5,1902C 1230.2,1935.09 1231.7,1969.59 1203,2005.5C 1184.71,2025.23 1163.21,2040.39 1138.5,2051C 1147.33,2089.8 1156.16,2128.64 1165,2167.5C 1208.86,2211.69 1253.03,2255.53 1297.5,2299C 1298.5,2299.33 1299.5,2299.67 1300.5,2300C 1310.01,2331.47 1319.51,2363.31 1329,2395.5C 1349.09,2462.76 1371.75,2529.09 1397,2594.5C 1440.72,2678.59 1480.05,2764.59 1515,2852.5C 1522.13,2871.23 1528.46,2890.23 1534,2909.5C 1539.13,2933.31 1544.29,2956.98 1549.5,2980.5 Z"/></g>
<g><path style="opacity:1" fill="#b7b7b8" d="M 448.5,2279.5 C 398.331,2279.83 348.331,2279.5 298.5,2278.5C 335.467,2247.53 372.133,2216.2 408.5,2184.5C 396.469,2167.11 385.969,2148.78 377,2129.5C 371.196,2114.61 375.363,2103.44 389.5,2096C 408.978,2085.93 429.311,2078.09 450.5,2072.5C 451.025,2019.49 451.692,1966.49 452.5,1913.5C 424.018,1916.4 399.518,1908.06 379,1888.5C 367.515,1876.04 362.849,1861.38 365,1844.5C 369.076,1832.76 376.909,1824.59 388.5,1820C 397.153,1816.42 406.153,1814.25 415.5,1813.5C 428.163,1812.39 440.829,1812.39 453.5,1813.5C 454.324,1777.17 454.491,1740.84 454,1704.5C 435.243,1695.55 417.743,1684.71 401.5,1672C 392.937,1664.78 386.77,1655.95 383,1645.5C 381.633,1635.06 385.133,1626.56 393.5,1620C 412.042,1607.65 432.375,1599.48 454.5,1595.5C 456.182,1564.52 456.849,1533.52 456.5,1502.5C 438.087,1502.48 421.087,1497.65 405.5,1488C 378.832,1467.02 377.832,1445.02 402.5,1422C 419.396,1410.06 438.062,1402.22 458.5,1398.5C 458.833,1366.83 458.5,1335.16 457.5,1303.5C 438.787,1296.31 421.453,1286.81 405.5,1275C 378.662,1253.56 377.995,1231.56 403.5,1209C 420.622,1196.41 439.288,1186.58 459.5,1179.5C 460.5,1150.84 460.833,1122.17 460.5,1093.5C 432.079,1090.37 407.579,1079.04 387,1059.5C 377.596,1049.52 372.096,1037.69 370.5,1024C 372.611,1009.55 379.944,998.549 392.5,991C 399.442,987.02 406.776,984.02 414.5,982C 430.054,979.177 445.721,977.344 461.5,976.5C 466.379,919.233 491.712,873.399 537.5,839C 577.798,812.783 621.798,795.783 669.5,788C 759.311,773.238 847.978,778.238 935.5,803C 972.181,813.34 1005.51,830.007 1035.5,853C 1069.16,883.476 1089.33,921.309 1096,966.5C 1100.93,1000.65 1103.93,1034.98 1105,1069.5C 1123.08,1071.15 1140.58,1075.32 1157.5,1082C 1173.59,1088.95 1185.76,1100.12 1194,1115.5C 1200.68,1140.31 1192.18,1157.81 1168.5,1168C 1148.64,1174.48 1128.31,1176.31 1107.5,1173.5C 1107.24,1215.17 1106.9,1256.83 1106.5,1298.5C 1130.24,1299.03 1151.91,1305.86 1171.5,1319C 1188.7,1332.59 1193.2,1349.42 1185,1369.5C 1173.45,1385.71 1157.61,1394.87 1137.5,1397C 1126.56,1398.66 1115.56,1399.49 1104.5,1399.5C 1104.33,1430.5 1104.5,1461.5 1105,1492.5C 1126.69,1497.95 1147.52,1505.79 1167.5,1516C 1197.58,1533.7 1199.24,1553.7 1172.5,1576C 1151.73,1590.82 1128.57,1598.65 1103,1599.5C 1102.5,1629.5 1102.33,1659.5 1102.5,1689.5C 1126.1,1691.64 1147.77,1699.14 1167.5,1712C 1195.72,1738.23 1195.38,1764.23 1166.5,1790C 1148.74,1802.2 1129.07,1809.36 1107.5,1811.5C 1106.33,1835.83 1106.17,1860.16 1107,1884.5C 1130.82,1892.99 1152.98,1904.49 1173.5,1919C 1182.57,1926 1189.07,1934.84 1193,1945.5C 1195.53,1956.97 1193.53,1967.64 1187,1977.5C 1170.34,1999.82 1148.84,2015.65 1122.5,2025C 1116.04,2025.08 1109.71,2025.91 1103.5,2027.5C 1115.44,2079.06 1126.94,2130.72 1138,2182.5C 1169.86,2214.69 1202.03,2246.53 1234.5,2278C 972.5,2278.81 710.5,2279.31 448.5,2279.5 Z"/></g>
<g><path style="opacity:1" fill="#484849" d="M 298.5,2278.5 C 348.331,2279.5 398.331,2279.83 448.5,2279.5C 398.332,2280.83 347.998,2280.83 297.5,2279.5C 297.624,2278.89 297.957,2278.56 298.5,2278.5 Z"/></g>
<g><path style="opacity:1" fill="#313131" d="M 1137.5,2307.5 C 1182.66,2306.5 1228,2306.17 1273.5,2306.5C 1273.5,2307.5 1273.5,2308.5 1273.5,2309.5C 1228.38,2307.51 1183.05,2306.85 1137.5,2307.5 Z"/></g>
<g><path style="opacity:1" fill="#fefefe" d="M 1137.5,2307.5 C 1183.05,2306.85 1228.38,2307.51 1273.5,2309.5C 1298.24,2398.46 1326.07,2486.46 1357,2573.5C 1361.86,2585.09 1366.53,2596.75 1371,2608.5C 1417.8,2697.43 1459.13,2788.76 1495,2882.5C 1500.82,2899.28 1505.82,2916.28 1510,2933.5C 1513.19,2951.93 1516.86,2970.26 1521,2988.5C 1523.52,3008.38 1520.52,3027.38 1512,3045.5C 1500.3,3068.92 1485.63,3090.25 1468,3109.5C 1411.59,3171.3 1342.09,3210.13 1259.5,3226C 1186.21,3242.04 1112.21,3246.71 1037.5,3240C 947.65,3230.21 866.65,3198.55 794.5,3145C 778.711,3132.21 763.878,3118.38 750,3103.5C 749.5,3030.83 749.333,2958.17 749.5,2885.5C 739.833,2885.5 730.167,2885.5 720.5,2885.5C 720.667,2957.83 720.5,3030.17 720,3102.5C 682.569,3136.98 640.735,3165.15 594.5,3187C 554.146,3205.45 511.812,3213.45 467.5,3211C 378.545,3203.23 295.211,3177.57 217.5,3134C 139.469,3087.28 84.6359,3021.11 53,2935.5C 37.1954,2894.62 30.1954,2852.28 32,2808.5C 36.1474,2770.55 48.4807,2735.55 69,2703.5C 88.0655,2675.76 109.399,2649.76 133,2625.5C 193.762,2550.33 238.095,2466 266,2372.5C 272.135,2351.63 277.802,2330.63 283,2309.5C 567.763,2307.95 852.596,2307.28 1137.5,2307.5 Z"/></g>
</svg>
