<?xml version="1.0" encoding="UTF-8"?>
<!DOCTYPE svg PUBLIC "-//W3C//DTD SVG 1.1//EN" "http://www.w3.org/Graphics/SVG/1.1/DTD/svg11.dtd">
<svg xmlns="http://www.w3.org/2000/svg" version="1.1" width="1592px" height="3694px" style="shape-rendering:geometricPrecision; text-rendering:geometricPrecision; image-rendering:optimizeQuality; fill-rule:evenodd; clip-rule:evenodd" xmlns:xlink="http://www.w3.org/1999/xlink">
<g><path style="opacity:0.79" fill="#fcfcfc" d="M -0.5,-0.5 C 530.167,-0.5 1060.83,-0.5 1591.5,-0.5C 1591.5,1230.83 1591.5,2462.17 1591.5,3693.5C 1060.83,3693.5 530.167,3693.5 -0.5,3693.5C -0.5,2462.17 -0.5,1230.83 -0.5,-0.5 Z M 1588.5,809.5 C 1586.48,783.415 1580.65,758.081 1571,733.5C 1562.57,717.087 1552.57,701.754 1541,687.5C 1507.93,648.763 1472.43,612.263 1434.5,578C 1368.87,527.526 1295.54,492.526 1214.5,473C 1153.12,459.514 1092.46,462.181 1032.5,481C 967.62,502.098 908.62,533.598 855.5,575.5C 800.907,540.207 742.574,512.374 680.5,492C 594.232,466.829 507.899,466.829 421.5,492C 376.578,505.113 337.578,527.947 304.5,560.5C 265.79,529.742 221.623,513.076 172,510.5C 148.311,510.63 126.145,516.464 105.5,528C 74.1459,547.693 50.9792,574.526 36,608.5C 33.4706,614.421 31.1372,620.421 29,626.5C 13.8415,689.452 5.00812,753.119 2.5,817.5C 2.5,545.5 2.5,273.5 2.5,1.5C 531.167,1.5 1059.83,1.5 1588.5,1.5C 1588.5,270.833 1588.5,540.167 1588.5,809.5 Z M 2.5,827.5 C 7.26762,897.837 21.1009,966.504 44,1033.5C 72.731,1101.01 103.398,1167.68 136,1233.5C 164.667,1290.83 193.333,1348.17 222,1405.5C 259.407,1437.45 296.907,1469.29 334.5,1501C 325.017,1515.13 317.517,1530.3 312,1546.5C 305.344,1571.21 312.51,1590.71 333.5,1605C 350.051,1615.19 367.551,1623.36 386,1629.5C 386.299,1665.84 386.799,1702.17 387.5,1738.5C 345.902,1744.28 317.402,1766.61 302,1805.5C 293.199,1846.4 308.365,1874.23 347.5,1889C 360.55,1893.11 373.883,1895.61 387.5,1896.5C 389.485,1916.78 389.985,1937.12 389,1957.5C 364.7,1969.65 344.033,1986.32 327,2007.5C 311.337,2034.79 314.837,2059.29 337.5,2081C 353.63,2093.15 371.464,2101.98 391,2107.5C 391.833,2122.18 391.666,2136.84 390.5,2151.5C 361.003,2157.86 339.17,2174.19 325,2200.5C 314.232,2231.54 321.399,2257.7 346.5,2279C 360.531,2289.52 375.865,2297.68 392.5,2303.5C 393.666,2321.16 393.833,2338.82 393,2356.5C 371.848,2365.99 353.182,2378.99 337,2395.5C 314.497,2423.02 313.831,2451.02 335,2479.5C 352.05,2497.37 372.05,2511.03 395,2520.5C 395.833,2534.51 395.666,2548.51 394.5,2562.5C 361.452,2571.74 335.286,2590.41 316,2618.5C 295.828,2664.31 308.328,2698.15 353.5,2720C 367.57,2725.85 382.237,2729.18 397.5,2730C 414.621,2769.21 439.954,2802.21 473.5,2829C 526.677,2868.91 586.011,2895.91 651.5,2910C 758.851,2934.02 865.518,2931.35 971.5,2902C 1029.66,2885.26 1081.66,2857.6 1127.5,2819C 1179.41,2769 1208.08,2707.83 1213.5,2635.5C 1243.15,2630.91 1268.32,2617.91 1289,2596.5C 1314.89,2562.67 1313.39,2530.17 1284.5,2499C 1264.93,2483.68 1242.6,2475.85 1217.5,2475.5C 1217.22,2452.81 1217.22,2430.15 1217.5,2407.5C 1244.31,2402.19 1266.81,2389.52 1285,2369.5C 1303.53,2342.92 1304.2,2315.92 1287,2288.5C 1268.21,2266.86 1244.38,2254.86 1215.5,2252.5C 1214.46,2238.16 1214.46,2223.83 1215.5,2209.5C 1237.45,2202.86 1257.79,2193.02 1276.5,2180C 1305.46,2155.65 1309.29,2127.82 1288,2096.5C 1267.85,2074.34 1243.02,2060.34 1213.5,2054.5C 1212.56,2041.2 1212.22,2027.87 1212.5,2014.5C 1242.77,2009.13 1267.27,1994.46 1286,1970.5C 1306.87,1931.54 1300.7,1897.38 1267.5,1868C 1252.77,1856.14 1236.1,1848.3 1217.5,1844.5C 1217.17,1834.48 1217.5,1824.48 1218.5,1814.5C 1245.15,1804.27 1268.32,1788.94 1288,1768.5C 1308.09,1742.43 1309.76,1715.1 1293,1686.5C 1274.13,1660.29 1249.63,1641.13 1219.5,1629C 1228.45,1589.9 1237.29,1550.73 1246,1511.5C 1292.4,1465.44 1338.4,1419.11 1384,1372.5C 1435.18,1300.87 1479.51,1224.87 1517,1144.5C 1534.05,1103.63 1547.72,1061.63 1558,1018.5C 1572.76,965.888 1582.92,912.555 1588.5,858.5C 1588.5,1802.5 1588.5,2746.5 1588.5,3690.5C 1059.83,3690.5 531.167,3690.5 2.5,3690.5C 2.5,2736.17 2.5,1781.83 2.5,827.5 Z"/></g>
<g><path style="opacity:0.983" fill="#010101" d="M 1588.5,809.5 C 1588.5,825.833 1588.5,842.167 1588.5,858.5C 1582.92,912.555 1572.76,965.888 1558,1018.5C 1547.72,1061.63 1534.05,1103.63 1517,1144.5C 1479.51,1224.87 1435.18,1300.87 1384,1372.5C 1338.4,1419.11 1292.4,1465.44 1246,1511.5C 1237.29,1550.73 1228.45,1589.9 1219.5,1629C 1249.63,1641.13 1274.13,1660.29 1293,1686.5C 1309.76,1715.1 1308.09,1742.43 1288,1768.5C 1268.32,1788.94 1245.15,1804.27 1218.5,1814.5C 1217.5,1824.48 1217.17,1834.48 1217.5,1844.5C 1236.1,1848.3 1252.77,1856.14 1267.5,1868C 1300.7,1897.38 1306.87,1931.54 1286,1970.5C 1267.27,1994.46 1242.77,2009.13 1212.5,2014.5C 1212.22,2027.87 1212.56,2041.2 1213.5,2054.5C 1243.02,2060.34 1267.85,2074.34 1288,2096.5C 1309.29,2127.82 1305.46,2155.65 1276.5,2180C 1257.79,2193.02 1237.45,2202.86 1215.5,2209.5C 1214.46,2223.83 1214.46,2238.16 1215.5,2252.5C 1244.38,2254.86 1268.21,2266.86 1287,2288.5C 1304.2,2315.92 1303.53,2342.92 1285,2369.5C 1266.81,2389.52 1244.31,2402.19 1217.5,2407.5C 1217.22,2430.15 1217.22,2452.81 1217.5,2475.5C 1242.6,2475.85 1264.93,2483.68 1284.5,2499C 1313.39,2530.17 1314.89,2562.67 1289,2596.5C 1268.32,2617.91 1243.15,2630.91 1213.5,2635.5C 1208.08,2707.83 1179.41,2769 1127.5,2819C 1081.66,2857.6 1029.66,2885.26 971.5,2902C 865.518,2931.35 758.851,2934.02 651.5,2910C 586.011,2895.91 526.677,2868.91 473.5,2829C 439.954,2802.21 414.621,2769.21 397.5,2730C 382.237,2729.18 367.57,2725.85 353.5,2720C 308.328,2698.15 295.828,2664.31 316,2618.5C 335.286,2590.41 361.452,2571.74 394.5,2562.5C 395.666,2548.51 395.833,2534.51 395,2520.5C 372.05,2511.03 352.05,2497.37 335,2479.5C 313.831,2451.02 314.497,2423.02 337,2395.5C 353.182,2378.99 371.848,2365.99 393,2356.5C 393.833,2338.82 393.666,2321.16 392.5,2303.5C 375.865,2297.68 360.531,2289.52 346.5,2279C 321.399,2257.7 314.232,2231.54 325,2200.5C 339.17,2174.19 361.003,2157.86 390.5,2151.5C 391.666,2136.84 391.833,2122.18 391,2107.5C 371.464,2101.98 353.63,2093.15 337.5,2081C 314.837,2059.29 311.337,2034.79 327,2007.5C 344.033,1986.32 364.7,1969.65 389,1957.5C 389.985,1937.12 389.485,1916.78 387.5,1896.5C 373.883,1895.61 360.55,1893.11 347.5,1889C 308.365,1874.23 293.199,1846.4 302,1805.5C 317.402,1766.61 345.902,1744.28 387.5,1738.5C 386.799,1702.17 386.299,1665.84 386,1629.5C 367.551,1623.36 350.051,1615.19 333.5,1605C 312.51,1590.71 305.344,1571.21 312,1546.5C 317.517,1530.3 325.017,1515.13 334.5,1501C 296.907,1469.29 259.407,1437.45 222,1405.5C 193.333,1348.17 164.667,1290.83 136,1233.5C 103.398,1167.68 72.731,1101.01 44,1033.5C 21.1009,966.504 7.26762,897.837 2.5,827.5C 2.5,824.167 2.5,820.833 2.5,817.5C 5.00812,753.119 13.8415,689.452 29,626.5C 31.1372,620.421 33.4706,614.421 36,608.5C 50.9792,574.526 74.1459,547.693 105.5,528C 126.145,516.464 148.311,510.63 172,510.5C 221.623,513.076 265.79,529.742 304.5,560.5C 337.578,527.947 376.578,505.113 421.5,492C 507.899,466.829 594.232,466.829 680.5,492C 742.574,512.374 800.907,540.207 855.5,575.5C 908.62,533.598 967.62,502.098 1032.5,481C 1092.46,462.181 1153.12,459.514 1214.5,473C 1295.54,492.526 1368.87,527.526 1434.5,578C 1472.43,612.263 1507.93,648.763 1541,687.5C 1552.57,701.754 1562.57,717.087 1571,733.5C 1580.65,758.081 1586.48,783.415 1588.5,809.5 Z"/></g>
<g><path style="opacity:1" fill="#fefefe" d="M 1118.5,493.5 C 1174.54,492.845 1228.54,503.011 1280.5,524C 1330.28,544.21 1376.28,570.543 1418.5,603C 1455.13,636.959 1489.63,672.792 1522,710.5C 1542.97,736.714 1554.97,766.714 1558,800.5C 1560.53,831.28 1559.53,861.947 1555,892.5C 1543.48,962.237 1526.48,1030.57 1504,1097.5C 1487.62,1139.92 1468.29,1180.92 1446,1220.5C 1416.12,1272.46 1383.62,1322.62 1348.5,1371C 978.166,1371.83 607.833,1371.67 237.5,1370.5C 185.565,1269.63 136.065,1167.63 89,1064.5C 50.3466,976.566 31.6799,884.566 33,788.5C 37.0502,735.481 45.3836,683.148 58,631.5C 70.7186,596.788 92.8853,569.955 124.5,551C 144.748,540.988 166.081,537.654 188.5,541C 227.527,547.268 262.027,563.101 292,588.5C 292.5,636.166 292.667,683.832 292.5,731.5C 302.167,731.5 311.833,731.5 321.5,731.5C 321.167,682.495 321.5,633.495 322.5,584.5C 345.015,559.566 372.015,541.066 403.5,529C 478.077,501.776 554.41,495.443 632.5,510C 709.352,528.35 780.185,559.85 845,604.5C 845.5,686.166 845.667,767.833 845.5,849.5C 855.167,849.5 864.833,849.5 874.5,849.5C 874.333,765.499 874.5,681.499 875,597.5C 929.78,554.358 990.947,523.191 1058.5,504C 1078.43,499.251 1098.43,495.751 1118.5,493.5 Z"/></g>
<g><path style="opacity:1" fill="#838384" d="M 577.5,1400.5 C 472.332,1400.17 367.332,1400.5 262.5,1401.5C 261.711,1401.22 261.044,1400.72 260.5,1400C 366.334,1399.17 472.001,1399.33 577.5,1400.5 Z"/></g>
<g><path style="opacity:1" fill="#b7b7b8" d="M 262.5,1401.5 C 367.332,1400.5 472.332,1400.17 577.5,1400.5C 823.5,1400.33 1069.5,1400.5 1315.5,1401C 1283.33,1433.17 1251.17,1465.33 1219,1497.5C 1207.39,1549.49 1195.89,1601.49 1184.5,1653.5C 1191.52,1653.61 1198.52,1654.11 1205.5,1655C 1230.27,1664.46 1250.77,1679.63 1267,1700.5C 1271.81,1707.79 1274.64,1715.79 1275.5,1724.5C 1274.76,1731.15 1272.92,1737.48 1270,1743.5C 1259.22,1757.94 1245.72,1769.11 1229.5,1777C 1215.82,1783.56 1201.98,1789.73 1188,1795.5C 1187.5,1819.83 1187.33,1844.16 1187.5,1868.5C 1208.43,1870.4 1227.77,1876.9 1245.5,1888C 1262.07,1899.98 1269.9,1916.14 1269,1936.5C 1265.09,1950.41 1257.26,1961.58 1245.5,1970C 1226.59,1980.98 1206.26,1987.81 1184.5,1990.5C 1183.5,2020.49 1183.17,2050.49 1183.5,2080.5C 1214.35,2080.72 1240.85,2091.39 1263,2112.5C 1268.34,2118.52 1271.51,2125.52 1272.5,2133.5C 1271.99,2139.52 1269.83,2144.85 1266,2149.5C 1254.02,2160.91 1240.19,2169.41 1224.5,2175C 1211.74,2179.76 1198.74,2183.59 1185.5,2186.5C 1185.5,2217.83 1185.5,2249.17 1185.5,2280.5C 1207.63,2279.22 1228.63,2283.39 1248.5,2293C 1272.63,2308.71 1276.8,2328.54 1261,2352.5C 1248,2366.09 1232.16,2374.59 1213.5,2378C 1204.87,2379.49 1196.2,2380.66 1187.5,2381.5C 1187.81,2422.83 1188.15,2464.17 1188.5,2505.5C 1201.5,2505.33 1214.5,2505.5 1227.5,2506C 1244.26,2507.69 1258.43,2514.52 1270,2526.5C 1281.97,2546.81 1279.47,2565.31 1262.5,2582C 1250.23,2592.47 1236.23,2599.81 1220.5,2604C 1208.93,2606.48 1197.26,2608.32 1185.5,2609.5C 1184.12,2708.81 1141.12,2783.65 1056.5,2834C 1000.14,2864.56 940.142,2883.9 876.5,2892C 791.472,2902.94 707.806,2896.61 625.5,2873C 572.97,2857.74 525.636,2833.07 483.5,2799C 459.623,2778.47 441.123,2753.97 428,2725.5C 427.266,2717.94 426.433,2710.44 425.5,2703C 411.768,2702.33 398.101,2700.99 384.5,2699C 364.205,2695.95 348.705,2685.78 338,2668.5C 333.706,2655.88 335.039,2643.88 342,2632.5C 356.318,2612.87 375.152,2599.37 398.5,2592C 407.098,2589.52 415.764,2587.35 424.5,2585.5C 425.781,2557.16 425.614,2528.83 424,2500.5C 404.462,2493.48 386.295,2483.98 369.5,2472C 363.995,2466.83 358.828,2461.33 354,2455.5C 346.558,2443.6 346.892,2431.93 355,2420.5C 365.421,2407.74 377.921,2397.58 392.5,2390C 402.498,2384.62 412.831,2380.12 423.5,2376.5C 423.389,2344.83 423.056,2313.16 422.5,2281.5C 398.807,2277.24 377.974,2267.24 360,2251.5C 343.344,2228.64 346.51,2208.81 369.5,2192C 385.014,2182.04 402.014,2177.2 420.5,2177.5C 420.5,2146.17 420.5,2114.83 420.5,2083.5C 400.974,2080.82 382.641,2074.66 365.5,2065C 354.64,2059.32 348.307,2050.49 346.5,2038.5C 349.384,2026.24 355.718,2016.07 365.5,2008C 381.743,1995.29 399.243,1984.45 418,1975.5C 418.5,1939.17 418.667,1902.83 418.5,1866.5C 404.163,1866.67 389.829,1866.5 375.5,1866C 359.54,1864.44 346.04,1857.94 335,1846.5C 326.406,1831.93 326.406,1817.26 335,1802.5C 348.218,1782.65 366.718,1770.82 390.5,1767C 399.16,1766.5 407.827,1766.33 416.5,1766.5C 416.331,1713.49 415.665,1660.49 414.5,1607.5C 395.006,1601.61 376.006,1594.45 357.5,1586C 351.693,1582.67 346.526,1578.51 342,1573.5C 338.896,1568.56 337.896,1563.23 339,1557.5C 340.47,1552.76 342.136,1548.09 344,1543.5C 352.876,1526.91 362.376,1510.74 372.5,1495C 335.981,1463.65 299.314,1432.48 262.5,1401.5 Z"/></g>
</svg>
