<?xml version="1.0" encoding="UTF-8"?>
<!DOCTYPE svg PUBLIC "-//W3C//DTD SVG 1.1//EN" "http://www.w3.org/Graphics/SVG/1.1/DTD/svg11.dtd">
<svg xmlns="http://www.w3.org/2000/svg" version="1.1" width="1592px" height="3694px" style="shape-rendering:geometricPrecision; text-rendering:geometricPrecision; image-rendering:optimizeQuality; fill-rule:evenodd; clip-rule:evenodd" xmlns:xlink="http://www.w3.org/1999/xlink">
<g><path style="opacity:0.784" fill="#fcfcfc" d="M -0.5,-0.5 C 530.167,-0.5 1060.83,-0.5 1591.5,-0.5C 1591.5,1230.83 1591.5,2462.17 1591.5,3693.5C 1060.83,3693.5 530.167,3693.5 -0.5,3693.5C -0.5,2462.17 -0.5,1230.83 -0.5,-0.5 Z M 1588.5,809.5 C 1586.53,784.18 1581.03,759.513 1572,735.5C 1564.95,720.46 1556.28,706.46 1546,693.5C 1511.3,652.13 1473.8,613.297 1433.5,577C 1368.26,527.388 1295.6,492.721 1215.5,473C 1140.77,456.939 1068.11,463.606 997.5,493C 945.941,513.982 898.441,541.482 855,575.5C 787.385,530.451 713.885,498.618 634.5,480C 564.785,468.161 495.785,471.494 427.5,490C 380.345,502.982 339.178,526.149 304,559.5C 265.06,528.96 220.727,512.626 171,510.5C 129.549,511.394 95.2157,527.394 68,558.5C 45.3523,584.464 30.6857,614.464 24,648.5C 11.8097,704.358 4.64308,760.691 2.5,817.5C 2.5,545.833 2.5,274.167 2.5,2.5C 531.167,2.5 1059.83,2.5 1588.5,2.5C 1588.5,271.5 1588.5,540.5 1588.5,809.5 Z M 2.5,827.5 C 7.42927,898.576 21.5959,967.909 45,1035.5C 74.957,1104.75 107.624,1172.75 143,1239.5C 167.667,1286.17 192.333,1332.83 217,1379.5C 247.8,1522.63 271.133,1666.96 287,1812.5C 290.723,1856.59 292.556,1900.75 292.5,1945C 291.932,2000.18 290.765,2055.35 289,2110.5C 284.052,2237.15 279.719,2363.81 276,2490.5C 273.762,2557.18 274.095,2623.85 277,2690.5C 283.028,2767.31 297.028,2842.64 319,2916.5C 332.693,2953.55 349.359,2989.22 369,3023.5C 389.666,3060.85 412.333,3096.85 437,3131.5C 452.762,3149.94 470.928,3165.44 491.5,3178C 508.532,3187.62 526.532,3190.28 545.5,3186C 557.485,3179.56 565.318,3169.72 569,3156.5C 573.861,3139.18 576.027,3121.51 575.5,3103.5C 569.679,3019.77 566.346,2935.93 565.5,2852C 564.668,2788.82 568.834,2725.98 578,2663.5C 581.454,2641.14 588.12,2619.81 598,2599.5C 631.564,2534.71 661.564,2468.38 688,2400.5C 699.136,2369.09 709.469,2337.43 719,2305.5C 737.262,2242.05 755.928,2178.71 775,2115.5C 785.095,2083.88 796.761,2052.88 810,2022.5C 823.947,1993.89 843.113,1969.39 867.5,1949C 906.667,1921.5 939.5,1927.67 966,1967.5C 977.428,1989.12 984.428,2012.12 987,2036.5C 997.342,2192.69 1004.68,2349.02 1009,2505.5C 1014.9,2590.72 1008.9,2675.05 991,2758.5C 979.638,2812.98 967.638,2867.31 955,2921.5C 941.636,2983.57 937.302,3046.24 942,3109.5C 944.682,3138.9 952.348,3166.9 965,3193.5C 990.64,3240.07 1029.81,3259.57 1082.5,3252C 1100.62,3246.77 1117.62,3239.11 1133.5,3229C 1168.65,3204.86 1200.48,3176.7 1229,3144.5C 1255.9,3114.61 1280.9,3083.28 1304,3050.5C 1321.3,3024.92 1336.3,2997.92 1349,2969.5C 1380.46,2899.23 1407.46,2827.23 1430,2753.5C 1446.71,2690.56 1456.71,2626.56 1460,2561.5C 1462.94,2493.85 1463.27,2426.18 1461,2358.5C 1458.66,2301.11 1455.33,2243.78 1451,2186.5C 1428.09,1917.02 1408.09,1647.36 1391,1377.5C 1443.36,1299.14 1487.69,1216.14 1524,1128.5C 1548.46,1058.99 1567.46,987.987 1581,915.5C 1584.17,896.103 1586.67,876.77 1588.5,857.5C 1588.5,1801.83 1588.5,2746.17 1588.5,3690.5C 1059.83,3690.5 531.167,3690.5 2.5,3690.5C 2.5,2736.17 2.5,1781.83 2.5,827.5 Z"/></g>
<g><path style="opacity:0.983" fill="#010101" d="M 1588.5,809.5 C 1588.5,825.5 1588.5,841.5 1588.5,857.5C 1586.67,876.77 1584.17,896.103 1581,915.5C 1567.46,987.987 1548.46,1058.99 1524,1128.5C 1487.69,1216.14 1443.36,1299.14 1391,1377.5C 1408.09,1647.36 1428.09,1917.02 1451,2186.5C 1455.33,2243.78 1458.66,2301.11 1461,2358.5C 1463.27,2426.18 1462.94,2493.85 1460,2561.5C 1456.71,2626.56 1446.71,2690.56 1430,2753.5C 1407.46,2827.23 1380.46,2899.23 1349,2969.5C 1336.3,2997.92 1321.3,3024.92 1304,3050.5C 1280.9,3083.28 1255.9,3114.61 1229,3144.5C 1200.48,3176.7 1168.65,3204.86 1133.5,3229C 1117.62,3239.11 1100.62,3246.77 1082.5,3252C 1029.81,3259.57 990.64,3240.07 965,3193.5C 952.348,3166.9 944.682,3138.9 942,3109.5C 937.302,3046.24 941.636,2983.57 955,2921.5C 967.638,2867.31 979.638,2812.98 991,2758.5C 1008.9,2675.05 1014.9,2590.72 1009,2505.5C 1004.68,2349.02 997.342,2192.69 987,2036.5C 984.428,2012.12 977.428,1989.12 966,1967.5C 939.5,1927.67 906.667,1921.5 867.5,1949C 843.113,1969.39 823.947,1993.89 810,2022.5C 796.761,2052.88 785.095,2083.88 775,2115.5C 755.928,2178.71 737.262,2242.05 719,2305.5C 709.469,2337.43 699.136,2369.09 688,2400.5C 661.564,2468.38 631.564,2534.71 598,2599.5C 588.12,2619.81 581.454,2641.14 578,2663.5C 568.834,2725.98 564.668,2788.82 565.5,2852C 566.346,2935.93 569.679,3019.77 575.5,3103.5C 576.027,3121.51 573.861,3139.18 569,3156.5C 565.318,3169.72 557.485,3179.56 545.5,3186C 526.532,3190.28 508.532,3187.62 491.5,3178C 470.928,3165.44 452.762,3149.94 437,3131.5C 412.333,3096.85 389.666,3060.85 369,3023.5C 349.359,2989.22 332.693,2953.55 319,2916.5C 297.028,2842.64 283.028,2767.31 277,2690.5C 274.095,2623.85 273.762,2557.18 276,2490.5C 279.719,2363.81 284.052,2237.15 289,2110.5C 290.765,2055.35 291.932,2000.18 292.5,1945C 292.556,1900.75 290.723,1856.59 287,1812.5C 271.133,1666.96 247.8,1522.63 217,1379.5C 192.333,1332.83 167.667,1286.17 143,1239.5C 107.624,1172.75 74.957,1104.75 45,1035.5C 21.5959,967.909 7.42927,898.576 2.5,827.5C 2.5,824.167 2.5,820.833 2.5,817.5C 4.64308,760.691 11.8097,704.358 24,648.5C 30.6857,614.464 45.3523,584.464 68,558.5C 95.2157,527.394 129.549,511.394 171,510.5C 220.727,512.626 265.06,528.96 304,559.5C 339.178,526.149 380.345,502.982 427.5,490C 495.785,471.494 564.785,468.161 634.5,480C 713.885,498.618 787.385,530.451 855,575.5C 898.441,541.482 945.941,513.982 997.5,493C 1068.11,463.606 1140.77,456.939 1215.5,473C 1295.6,492.721 1368.26,527.388 1433.5,577C 1473.8,613.297 1511.3,652.13 1546,693.5C 1556.28,706.46 1564.95,720.46 1572,735.5C 1581.03,759.513 1586.53,784.18 1588.5,809.5 Z"/></g>
<g><path style="opacity:1" fill="#fefefe" d="M 1116.5,493.5 C 1166.68,492.047 1215.35,499.88 1262.5,517C 1318.55,537.809 1370.22,566.142 1417.5,602C 1453.09,635.259 1486.93,670.092 1519,706.5C 1544.72,737.3 1558.05,772.966 1559,813.5C 1560.07,850.17 1557.07,886.503 1550,922.5C 1538,982.816 1522.34,1042.15 1503,1100.5C 1486.68,1144.8 1467.35,1187.8 1445,1229.5C 1418.97,1277.74 1390.8,1324.58 1360.5,1370C 988.833,1370.83 617.166,1370.67 245.5,1369.5C 199.469,1284.78 154.969,1199.11 112,1112.5C 97.8437,1083.19 84.5104,1053.52 72,1023.5C 44.8555,947.484 31.8555,869.15 33,788.5C 36.8964,735.455 45.2298,683.122 58,631.5C 93.2461,546.411 153.746,520.911 239.5,555C 258.779,563.546 276.279,574.713 292,588.5C 292.5,636.166 292.667,683.832 292.5,731.5C 302.167,731.5 311.833,731.5 321.5,731.5C 321.333,682.499 321.5,633.499 322,584.5C 345.18,559.02 373.014,540.187 405.5,528C 454.331,509.738 504.831,501.238 557,502.5C 602.924,502.352 647.424,510.185 690.5,526C 745.064,545.782 796.397,571.615 844.5,603.5C 845.5,685.497 845.833,767.497 845.5,849.5C 855.167,849.5 864.833,849.5 874.5,849.5C 874.333,765.499 874.5,681.499 875,597.5C 936.762,547.874 1006.6,514.708 1084.5,498C 1095.31,496.525 1105.97,495.025 1116.5,493.5 Z"/></g>
<g><path style="opacity:1" fill="#bebebe" d="M 1362.5,1400.5 C 992.165,1399.83 622.165,1400.5 252.5,1402.5C 251.596,1401.79 251.263,1400.79 251.5,1399.5C 622,1399.17 992.334,1399.5 1362.5,1400.5 Z"/></g>
<g><path style="opacity:1" fill="#fefefe" d="M 1362.5,1400.5 C 1381.32,1677.29 1402.15,1953.95 1425,2230.5C 1431.95,2323.04 1434.62,2415.7 1433,2508.5C 1431.56,2574.78 1424.56,2640.45 1412,2705.5C 1385.14,2806.1 1348.8,2903.1 1303,2996.5C 1280.43,3034.4 1254.77,3070.07 1226,3103.5C 1196.69,3138.14 1164.19,3169.31 1128.5,3197C 1113.85,3207.16 1098.18,3215.49 1081.5,3222C 1046.04,3230.29 1017.88,3219.46 997,3189.5C 981.991,3163.14 973.324,3134.8 971,3104.5C 966.8,3042.5 971.467,2981.16 985,2920.5C 1005.98,2836.98 1022.98,2752.65 1036,2667.5C 1039.34,2618.56 1040.34,2569.56 1039,2520.5C 1034.33,2364.06 1027.33,2207.73 1018,2051.5C 1016.41,2015.15 1006.75,1981.15 989,1949.5C 964.81,1911.65 930.643,1897.15 886.5,1906C 861.158,1915.6 839.658,1930.77 822,1951.5C 797.762,1980.29 779.429,2012.62 767,2048.5C 759.272,2069.68 751.939,2091.02 745,2112.5C 725.131,2179.11 705.464,2245.77 686,2312.5C 670.017,2366.12 650.684,2418.45 628,2469.5C 607.606,2512.62 586.939,2555.62 566,2598.5C 554.083,2629.41 546.749,2661.41 544,2694.5C 541.117,2719.76 539.117,2745.1 538,2770.5C 535.516,2852.21 536.516,2933.87 541,3015.5C 543.21,3047.15 545.044,3078.82 546.5,3110.5C 548.051,3125.78 545.884,3140.45 540,3154.5C 536.601,3157.95 532.434,3159.28 527.5,3158.5C 517.054,3157.29 507.388,3153.79 498.5,3148C 473.391,3130.23 453.224,3108.06 438,3081.5C 410.118,3037.75 384.784,2992.42 362,2945.5C 349.381,2915.36 339.381,2884.36 332,2852.5C 320.205,2802.39 311.871,2751.73 307,2700.5C 306.103,2686.18 305.436,2671.84 305,2657.5C 304.333,2603.17 304.333,2548.83 305,2494.5C 309.639,2344.16 314.639,2193.82 320,2043.5C 321.938,1982.5 321.938,1921.5 320,1860.5C 315.853,1795.51 308.853,1730.85 299,1666.5C 285.495,1578.12 269.995,1490.12 252.5,1402.5C 622.165,1400.5 992.165,1399.83 1362.5,1400.5 Z"/></g>
</svg>
