<?xml version="1.0" encoding="UTF-8"?>
<svg version="1.1" xmlns="http://www.w3.org/2000/svg" width="1553" height="3694">
<path d="M0 0 C512.49 0 1024.98 0 1553 0 C1553 1219.02 1553 2438.04 1553 3694 C1040.51 3694 528.02 3694 0 3694 C0 2474.98 0 1255.96 0 0 Z M3 3 C3 928.32 3 1853.64 3 2807 C3.33 2807 3.66 2807 4 2807 C4.08918701 2806.10583374 4.08918701 2806.10583374 4.18017578 2805.19360352 C10.77898617 2741.36256935 39.98622563 2684.43821093 82.89453125 2637.3203125 C84.72917685 2635.29845816 86.52768786 2633.25321478 88.3125 2631.1875 C90.88667206 2628.22690488 93.53133823 2625.3402364 96.20605469 2622.47021484 C106.7575284 2611.14122899 116.59414557 2599.29424201 126 2587 C126.50837402 2586.33887207 127.01674805 2585.67774414 127.54052734 2584.99658203 C165.01420746 2536.0137019 193.28667781 2480.55511796 215 2423 C215.3913916 2421.9702002 215.7827832 2420.94040039 216.18603516 2419.87939453 C230.85859676 2381.06306091 241.75362561 2340.60523512 248.82992554 2299.73339844 C251.6094394 2283.94731372 256.59895055 2269.15932713 261.90156555 2254.06884766 C271.92785639 2225.42313262 278.0948604 2194.91688785 283 2165 C283.19158691 2163.85273438 283.38317383 2162.70546875 283.58056641 2161.5234375 C288.19114195 2133.75217655 291.62212841 2105.95328634 293.6875 2077.875 C293.74834778 2077.05419952 293.80919556 2076.23339905 293.87188721 2075.38772583 C295.65697871 2050.95493832 296.20786683 2026.55322268 296.1875 2002.0625 C296.18723312 2001.34013027 296.18696625 2000.61776054 296.18669128 1999.87350082 C296.17544093 1975.53381937 295.772943 1951.28370082 294 1927 C293.93447937 1926.09109009 293.86895874 1925.18218018 293.80145264 1924.24572754 C287.16388253 1832.87649068 270.72033623 1742.5762297 219.9140625 1571.13671875 C196.17595669 1497.20085623 173.61731868 1422.8954677 99 1028 C98.94215332 1026.95618164 98.88430664 1025.91236328 98.82470703 1024.83691406 C94.44005748 943.62331622 101.5205902 860.95152724 203.71484375 616.1171875 C206.02510062 612.96576018 208.19960591 609.74557902 210.375 606.5 C222.02861058 589.64425042 236.46725711 575.05734716 253 563 C253.59683594 562.56413574 254.19367188 562.12827148 254.80859375 561.67919922 C275.89260226 546.49531245 300.49686115 536.65314645 326.875 539.5625 C350.82898441 543.73294342 372.54982182 556.58208162 386.6875 576.51953125 C410.03117897 610.99102329 413.13811764 652.79680872 406 693 C405.5645894 695.14567803 405.11448943 697.28805285 404.66503906 699.43083191 C401.82569756 713.0489248 399.90377104 726.77262963 398.0319252 740.55203629 C397.74523982 742.66000107 397.45662144 744.76769386 397.16757202 746.87533569 C388.43708149 810.60650835 380.52490921 874.59598491 376.34838867 938.80444336 C376.0889272 942.77626049 375.7925403 946.74441363 375.48950195 950.71313477 C374.09155766 969.66697954 373.65432695 988.52578258 373.68432617 1007.52661133 C373.68898365 1010.7262976 373.68191008 1013.92560602 373.66381836 1017.12524414 C373.52133644 1042.62916427 374.97869036 1067.34240346 380.25 1092.375 C380.5568911 1093.86611151 380.86369225 1095.35724153 381.17041016 1096.84838867 C396.75125214 1171.84915754 426.57567 1241.7772999 457.5 1311.5 C473.40618963 1347.36245812 489.03433852 1383.3305609 503 1420 C503.25162903 1420.65989929 503.50325806 1421.31979858 503.76251221 1421.99969482 C531.39745027 1494.6008036 550.43001914 1569.95218319 570.03258514 1645.00708389 C590.33518545 1727.27095515 590.33518545 1727.27095515 621 1806 C621.33354492 1806.69303223 621.66708984 1807.38606445 622.01074219 1808.10009766 C628.80215133 1822.03093343 638.18122294 1837.95685428 652.875 1844.5 C668.98151638 1849.62686296 687.98262027 1845.48244524 703 1839 C721.16570456 1829.26671329 731.74401211 1814.36340164 740 1796 C740.53367187 1794.85402344 741.06734375 1793.70804688 741.6171875 1792.52734375 C771.72312752 1723.34607744 767.51771494 1628.07515395 771.81506348 1553.20324707 C771.9818364 1550.31460788 772.15328245 1547.4263053 772.32714844 1544.53808594 C777.61686696 1456.02068001 777.75066909 1366.87288662 717.18890381 936.41970825 C686.75332631 789.68143795 686.75332631 789.68143795 678 720 C677.78174561 718.29142822 677.78174561 718.29142822 677.55908203 716.54833984 C674.37965485 690.83002518 675.14225401 664.58537741 679 639 C679.13390137 638.1042627 679.26780273 637.20852539 679.40576172 636.28564453 C683.33848651 611.26398101 692.04600132 586.88469401 708 567 C708.55042969 566.28585937 709.10085938 565.57171875 709.66796875 564.8359375 C720.65970824 551.31165946 738.75450993 542.05729744 756 540 C771.41767807 538.83055952 786.12675965 539.80880533 801 544 C802.79244141 544.47373047 802.79244141 544.47373047 804.62109375 544.95703125 C813.02672166 547.4590409 820.84118182 551.12048412 828.75 554.875 C829.79172363 555.36871094 830.83344727 555.86242187 831.90673828 556.37109375 C854.83869406 567.51872385 875.5764876 584.08872098 893.26171875 602.36328125 C895.60655018 605.23120731 895.60655018 605.23120731 898 605 C898.24621094 605.57621094 898.49242187 606.15242187 898.74609375 606.74609375 C900.20162099 609.3624153 901.88608731 611.00891836 904.0625 613.0625 C908.26241636 617.16863832 911.97084772 621.49420336 915.63671875 626.078125 C917.65644768 628.5752444 919.72874278 631.01193265 921.83520508 633.43579102 C948.7952849 664.62070371 970.04946841 701.0940951 989.15283203 737.48242188 C992.26868851 743.41597464 995.40803865 749.33688773 998.5625 755.25 C998.8736676 755.83361298 999.18483521 756.41722595 999.50543213 757.01852417 C1004.37248985 766.1304763 1009.46872207 775.08391078 1014.72192383 783.9777832 C1019.19336814 791.56177147 1023.49715248 799.2298834 1027.75 806.9375 C1032.50397967 815.54384251 1037.33895747 824.08214084 1042.359375 832.53515625 C1057.17349591 857.50076328 1071.30663284 882.86363598 1085.0612793 908.42553711 C1086.58175775 911.23929964 1088.12279021 914.04136778 1089.66723633 916.84204102 C1096.87962606 929.94327678 1103.77054708 943.17597217 1110.4375 956.5625 C1110.93612549 957.56190613 1111.43475098 958.56131226 1111.94848633 959.59100342 C1120.06749143 975.88504473 1127.85970148 992.24982603 1135 1009 C1135.59226492 1010.38028687 1136.1847208 1011.76049181 1136.77734375 1013.140625 C1146.21902477 1035.17307109 1154.9237766 1057.43224625 1163 1080 C1163.34034271 1080.94978729 1163.34034271 1080.94978729 1163.68756104 1081.91876221 C1185.11404666 1141.81441389 1201.48367269 1203.44260194 1213 1266 C1213.15577515 1266.84614868 1213.31155029 1267.69229736 1213.4720459 1268.56408691 C1231.94612238 1369.4111909 1239.20367635 1472.24398146 1282.4375 2100.25 C1282.49976524 2101.28850129 1282.56203049 2102.32700258 1282.62618256 2103.39697361 C1283.34921189 2115.45826738 1284.06984832 2127.51970039 1284.78699327 2139.5813455 C1285.13158927 2145.37220224 1285.47931634 2151.16286046 1285.82949471 2156.95338219 C1287.00105613 2176.34619926 1288.10679834 2195.73889247 1289.04991901 2215.14427543 C1289.34201958 2221.09178048 1289.64905218 2227.03853754 1289.95612437 2232.98528612 C1290.19576154 2237.65882458 1290.42457381 2242.33231176 1290.62557793 2247.0076828 C1291.8742956 2275.91063851 1296.69158313 2300.95480998 1306.88769531 2328.20361328 C1310.08328762 2336.82815742 1312.68297752 2345.63683484 1315.35211182 2354.43493652 C1316.86451041 2359.38716549 1318.42517597 2364.3240641 1319.984375 2369.26171875 C1320.63613751 2371.32859127 1321.28782874 2373.39548627 1321.93945312 2375.46240234 C1322.27372314 2376.52231384 1322.60799316 2377.58222534 1322.95239258 2378.67425537 C1324.04810139 2382.15270314 1325.14059954 2385.63214688 1326.23242188 2389.11181641 C1344.07499305 2445.95658508 1362.0575445 2502.88890468 1383.11151123 2558.64025879 C1383.94140488 2560.84437698 1384.76149759 2563.05186172 1385.57861328 2565.26074219 C1395.73563532 2592.57514244 1409.44176436 2618.34256429 1422.6036377 2644.29314232 C1428.17305998 2655.28096894 1433.55767182 2666.34927696 1438.81484985 2677.49002075 C1439.93855358 2679.86986523 1441.06790654 2682.24691648 1442.19995117 2684.62280273 C1451.67777143 2704.51874872 1460.99165887 2724.48453257 1470.01611328 2744.59033203 C1471.36327939 2747.58977622 1472.71912462 2750.58509039 1474.08154297 2753.57763672 C1503.25351493 2817.69551155 1530.65351927 2883.34837764 1543.64453125 2952.8203125 C1545.28281778 2961.57871053 1547.11420687 2970.29207288 1549 2979 C1549.33 2979 1549.66 2979 1550 2979 C1550 1996.92 1550 1014.84 1550 3 C1039.49 3 528.98 3 3 3 Z M3 2848 C3 3126.19 3 3404.38 3 3691 C513.51 3691 1024.02 3691 1550 3691 C1550 3471.22 1550 3251.44 1550 3025 C1549.67 3025 1549.34 3025 1549 3025 C1548.78085938 3025.8971875 1548.56171875 3026.794375 1548.3359375 3027.71875 C1541.59248885 3054.2539463 1529.26245458 3077.0506748 1513 3099 C1512.59523438 3099.5465625 1512.19046875 3100.093125 1511.7734375 3100.65625 C1495.81172002 3122.07584507 1477.44350173 3142.76478504 1457 3160 C1455.56914062 3161.26457031 1455.56914062 3161.26457031 1454.109375 3162.5546875 C1434.41315288 3179.89938579 1412.72959808 3194.91509356 1390 3208 C1389.27683594 3208.42104004 1388.55367187 3208.84208008 1387.80859375 3209.27587891 C1339.1826833 3237.44558464 1283.99510427 3250.84206453 1229 3260 C1227.77990234 3260.2057666 1226.55980469 3260.4115332 1225.30273438 3260.62353516 C1208.59054507 3263.40539556 1191.858851 3265.56855482 1175 3267.25 C1174.17190826 3267.33299347 1173.34381653 3267.41598694 1172.4906311 3267.50149536 C1166.9973096 3268.04601787 1161.50121686 3268.54234646 1156 3269 C1154.12320557 3269.15903809 1154.12320557 3269.15903809 1152.20849609 3269.32128906 C1136.71630145 3270.42915073 1121.14913683 3270.24592693 1105.625 3270.25 C1104.85390144 3270.25044186 1104.08280289 3270.25088371 1103.28833771 3270.25133896 C1080.38380409 3270.25821863 1057.74882396 3269.97152346 1035 3267 C1033.58622914 3266.82561216 1032.17232436 3266.65230721 1030.75830078 3266.47998047 C978.64747479 3260.07035794 927.03755429 3247.43018803 879 3226 C877.9476416 3225.53480957 876.8952832 3225.06961914 875.81103516 3224.59033203 C860.45498543 3217.77225506 845.60716287 3210.29632967 831 3202 C830.27619141 3201.5963623 829.55238281 3201.19272461 828.80664062 3200.77685547 C803.99270078 3186.93741258 780.7895512 3170.00995485 759.45703125 3151.27783203 C758.15440369 3150.13541369 756.84337358 3149.00259273 755.53125 3147.87109375 C752.61975045 3145.35612306 749.79559162 3142.8331426 747.125 3140.0625 C745.25436301 3137.76784154 745.25436301 3137.76784154 743 3138 C742.773125 3137.443125 742.54625 3136.88625 742.3125 3136.3125 C740.59377841 3133.28427625 738.67211603 3131.22676336 736 3129 C732.26095922 3129.25336416 730.42101672 3131.21996963 727.8125 3133.75 C721.31616452 3139.77006455 714.27714761 3145.00130047 707.20703125 3150.32373047 C705.11091649 3151.91575746 703.03655901 3153.53160431 700.96875 3155.16015625 C684.56290649 3168.03061942 667.11198534 3179.66401685 649 3190 C648.33436035 3190.38285156 647.6687207 3190.76570313 646.98291016 3191.16015625 C610.16504713 3212.26193999 571.0411993 3228.90075083 529 3236 C528.05447266 3236.16226074 527.10894531 3236.32452148 526.13476562 3236.49169922 C453.98969427 3248.38900591 373.03752062 3226.89832567 305 3204 C304.35927551 3203.78512939 303.71855103 3203.57025879 303.05841064 3203.34887695 C270.40320753 3192.36010846 238.95203475 3177.99937291 209 3161 C208.24332031 3160.57315918 207.48664063 3160.14631836 206.70703125 3159.70654297 C183.41838252 3146.46872547 161.02900696 3130.78004316 141 3113 C139.68784247 3111.87460057 138.37539681 3110.74953689 137.0625 3109.625 C102.43103569 3079.04615385 75.76897698 3043.59625299 53.31054688 3003.34667969 C52.50947927 3001.91227919 51.70445856 3000.48006599 50.89257812 2999.05175781 C25.24408235 2953.92940413 7.8562527 2899.85697473 4 2848 C3.67 2848 3.34 2848 3 2848 Z " fill="#FEFEFE" transform="translate(0,0)"/>
<path d="M0 0 C328.68 0 657.36 0 996 0 C996.99 2.97 997.98 5.94 999 9 C999.72509766 11.15789063 999.72509766 11.15789063 1000.46484375 13.359375 C1003.43502341 22.20419763 1006.30414861 31.06705688 1009 40 C1009.82516349 42.72469734 1010.65147776 45.44904079 1011.47875977 48.1730957 C1012.04945796 50.05277751 1012.61907511 51.93278812 1013.18725586 53.81323242 C1019.2871663 73.92601741 1025.81775761 93.90670086 1032.26196289 113.91088867 C1033.43693302 117.55889804 1034.6110737 121.20717365 1035.78515625 124.85546875 C1036.13425552 125.93821579 1036.4833548 127.02096283 1036.84303284 128.13652039 C1038.52731981 133.37103842 1040.19353365 138.61029469 1041.82416821 143.86173916 C1044.41938101 152.21682954 1047.13219633 160.52788894 1049.921875 168.8203125 C1050.14722364 169.49160501 1050.37257229 170.16289753 1050.60474968 170.85453224 C1052.31417191 175.94660351 1054.03053663 181.03631147 1055.75 186.125 C1056.13016455 187.25046675 1056.13016455 187.25046675 1056.51800919 188.3986702 C1063.19472628 208.15607927 1069.95895884 227.87362481 1077.1875 247.4375 C1077.50255493 248.29482727 1077.81760986 249.15215454 1078.14221191 250.03546143 C1080.35957064 256.05105997 1082.65738287 262.0321482 1085 268 C1085.40205658 269.03198517 1085.80411316 270.06397034 1086.21835327 271.12722778 C1094.2523311 291.60317842 1103.78824051 311.14532817 1113.75445557 330.73565674 C1117.2759406 337.66180718 1120.77823461 344.59768109 1124.27734375 351.53515625 C1124.65397345 352.28101612 1125.03060314 353.02687599 1125.41864586 353.79533768 C1132.15255062 367.14412279 1138.50150945 380.63940136 1144.72409058 394.2338562 C1147.32370898 399.8697722 1150.07166979 405.43170287 1152.8125 411 C1159.91464151 425.58570737 1166.50092897 440.38657123 1173.02191162 455.23951721 C1175.2169788 460.23586099 1177.43960013 465.21901357 1179.6796875 470.1953125 C1194.80585233 503.87751407 1208.79896114 538.14617573 1221 573 C1221.51675293 574.46179687 1221.51675293 574.46179687 1222.04394531 575.953125 C1226.21117085 587.79638815 1229.62192288 599.68867185 1232.49755859 611.90820312 C1233.13387392 614.55735265 1233.8517827 617.18246593 1234.5625 619.8125 C1236.2653825 626.55706273 1237.29722963 633.42593207 1238.44506836 640.28149414 C1239.65583587 647.37577186 1241.18652992 654.29084582 1243.0703125 661.234375 C1250.68841628 692.09089619 1244.9043236 720.94382752 1229.1015625 748.125 C1218.01655276 766.3950433 1204.47784156 782.8941001 1190.1171875 798.66015625 C1188.70984475 800.21550368 1187.31896313 801.78591137 1185.9453125 803.37109375 C1182.21779084 807.67152244 1178.40178377 811.52480709 1174.0546875 815.1953125 C1171.81871624 817.15922642 1169.76190269 819.24153958 1167.6875 821.375 C1162.77440261 826.33831644 1157.45898904 830.65509036 1152 835 C1150.85309789 835.93619219 1149.70731253 836.87375373 1148.5625 837.8125 C1101.44856245 876.27337391 1046.74649624 899.92826814 987.41699219 912.28222656 C984.01500464 912.99684812 980.62075616 913.74150158 977.2265625 914.4921875 C957.65271791 918.7604076 937.94026545 921.86974356 918.11462402 924.69793701 C916.21694229 924.96901093 914.31985618 925.24424695 912.42285156 925.52001953 C847.223139 934.84432276 775.25296969 933.99976478 711.04980469 918.71972656 C708.17038547 918.04020944 705.28559612 917.38893398 702.3977356 916.74635315 C689.03620623 913.77140301 675.90035901 910.64018015 663 906 C660.98236082 905.38525056 658.96141797 904.78125144 656.9375 904.1875 C633.51067745 896.9968066 610.81758214 887.38952321 589.08740234 876.08056641 C586.71848257 874.85426946 584.33781412 873.65231423 581.95703125 872.44921875 C571.20984095 866.97366157 560.96777268 861.06922608 550.97021484 854.32324219 C549.04986709 853.0334919 547.11604193 851.76735882 545.17578125 850.5078125 C523.5074172 836.38448104 503.53307594 820.02192338 485 802 C484.38157227 801.39913574 483.76314453 800.79827148 483.12597656 800.17919922 C482.2167041 799.28418701 482.2167041 799.28418701 481.2890625 798.37109375 C480.7523291 797.84314209 480.2155957 797.31519043 479.66259766 796.77124023 C479.11394043 796.18673096 478.5652832 795.60222168 478 795 C477.31562992 794.32156446 476.63125984 793.64312891 475.92615128 792.94413471 C473.29016239 788.91500861 473.45309648 785.83675003 473.51898193 781.12260437 C473.51385538 779.78087456 473.51385538 779.78087456 473.50862527 778.4120391 C473.50203632 775.41458489 473.52403942 772.41802602 473.54589844 769.4206543 C473.54702669 767.27216106 473.54639348 765.12366629 473.54412842 762.97517395 C473.5429795 757.14081054 473.56651789 751.30677524 473.59442425 745.47248816 C473.61940811 739.37594749 473.62177753 733.27939952 473.62652588 727.18281555 C473.63896449 715.63730408 473.67179822 704.09194389 473.71192384 692.54649907 C473.75661389 679.40276093 473.77862165 666.25901562 473.79870558 653.11522043 C473.84052996 626.07672687 473.9117039 599.03837828 474 572 C464.43 572 454.86 572 445 572 C445.01554428 574.70304825 445.03108856 577.4060965 445.04710388 580.1910553 C445.19007131 605.63300893 445.29428526 631.07490967 445.3626852 656.51717472 C445.39878687 669.59811824 445.44801052 682.67876709 445.52807617 695.75952148 C445.5978244 707.16009273 445.64300247 718.56045059 445.65861946 729.96122926 C445.66774908 735.99854631 445.68921989 742.03525287 445.7401104 748.07237434 C445.78762333 753.75485462 445.80228067 759.43647295 445.79175377 765.119133 C445.79367955 767.20450207 445.80760441 769.28989996 445.83443832 771.37509727 C445.86930768 774.22447492 445.86088517 777.07060534 445.84178162 779.9200592 C445.86217151 780.74400509 445.8825614 781.56795098 445.90356916 782.41686493 C445.81763372 787.16354164 444.98874561 789.50657523 441.61193943 792.92589474 C440.42823859 793.97395647 439.22557752 795.00123035 438 796 C437.13117187 796.74765625 436.26234375 797.4953125 435.3671875 798.265625 C434.54476562 798.92046875 433.72234375 799.5753125 432.875 800.25 C429.27151991 803.14855854 425.71242238 806.08283639 422.20336914 809.09399414 C415.67547495 814.68752823 408.98404579 819.98161315 402 825 C401.28457031 825.51433594 400.56914063 826.02867187 399.83203125 826.55859375 C383.53848676 838.21992394 366.86922073 849.25102234 349.23486328 858.79003906 C347.65458275 859.64560716 346.07775548 860.50756817 344.50341797 861.37402344 C316.19713746 876.91004614 285.81762849 889.05320845 254 895 C253.33248718 895.12535126 252.66497437 895.25070251 251.97723389 895.37985229 C239.90317147 897.59944941 228.14499029 898.6009473 215.875 898.5625 C214.99868927 898.56301361 214.12237854 898.56352722 213.21951294 898.5640564 C181.71529337 898.4870685 149.66548445 894.16458203 119 887 C116.86230057 886.52069968 114.72426458 886.0428986 112.5859375 885.56640625 C107.0975035 884.33292314 101.62130965 883.05329552 96.14941406 881.74853516 C94.10841924 881.2634429 92.06616299 880.78361566 90.02246094 880.31005859 C72.34935852 876.21405721 55.15826235 870.8440992 38 865 C36.76475586 864.58121582 35.52951172 864.16243164 34.25683594 863.73095703 C5.8614701 853.99766922 -21.79059228 841.65032784 -48 827 C-49.09852295 826.38680908 -49.09852295 826.38680908 -50.21923828 825.76123047 C-72.8168936 813.03462583 -94.51999327 798.13135344 -114 781 C-114.73347656 780.36578125 -115.46695313 779.7315625 -116.22265625 779.078125 C-118.16039524 777.39849438 -120.08145382 775.70149853 -122 774 C-123.09634766 773.04287109 -123.09634766 773.04287109 -124.21484375 772.06640625 C-129.36763853 767.51491005 -134.31676871 762.78686275 -139.1875 757.9375 C-139.75742676 757.37216553 -140.32735352 756.80683105 -140.91455078 756.22436523 C-145.14222771 751.98142814 -149.10542099 747.54909307 -153 743 C-153.54052002 742.37150146 -154.08104004 741.74300293 -154.63793945 741.09545898 C-169.81587031 723.3217557 -182.47835601 704.30927767 -194 684 C-194.76159424 682.67427979 -194.76159424 682.67427979 -195.53857422 681.32177734 C-233.10376307 615.73655363 -256.95809064 534.94603455 -237.53125 459.85522461 C-228.80284181 427.86759232 -213.80903327 398.50108425 -194 372 C-193.49178711 371.31518555 -192.98357422 370.63037109 -192.45996094 369.92480469 C-185.7068189 360.84887416 -178.74410213 352.25303957 -171 344 C-169.8054518 342.65204666 -168.6173969 341.29829643 -167.4375 339.9375 C-164.82298058 336.92926472 -162.17048344 333.95869751 -159.5 331 C-155.62526067 326.7012572 -151.77953917 322.38273835 -148 318 C-147.16597656 317.03320312 -146.33195312 316.06640625 -145.47265625 315.0703125 C-139.04950135 307.57872899 -132.91589674 299.89868614 -127 292 C-126.45939941 291.28005859 -125.91879883 290.56011719 -125.36181641 289.81835938 C-117.5728085 279.42141501 -110.03959478 268.91861092 -103 258 C-102.33266846 256.97398682 -102.33266846 256.97398682 -101.65185547 255.92724609 C-68.03203061 204.13706782 -43.43251194 148.3358701 -23.68405151 90.01626587 C-23.00743384 88.0219115 -22.32440251 86.02983478 -21.64086914 84.0378418 C-18.99705574 76.28473393 -16.68416291 68.50657757 -14.6875 60.5625 C-14.3997168 59.43432861 -14.11193359 58.30615723 -13.81542969 57.14379883 C-12.87080785 53.4307278 -11.93520448 49.71545327 -11 46 C-10.65148109 44.62395334 -10.30267923 43.24797831 -9.95361328 41.87207031 C-9.05659528 38.3357508 -8.16297209 34.79859079 -7.27212524 31.26071167 C-6.93038015 29.90373854 -6.58809576 28.54690109 -6.24520874 27.19021606 C-5.75981857 25.26679096 -5.27831744 23.34238578 -4.796875 21.41796875 C-4.52198242 20.32250732 -4.24708984 19.2270459 -3.96386719 18.09838867 C-2.55000613 12.08661423 -1.29400855 6.03870656 0 0 Z " fill="#FEFEFE" transform="translate(276,2312)"/>
<path d="M0 0 C512.49 0 1024.98 0 1553 0 C1553 1219.02 1553 2438.04 1553 3694 C1040.51 3694 528.02 3694 0 3694 C0 2474.98 0 1255.96 0 0 Z M3 3 C3 928.32 3 1853.64 3 2807 C3.33 2807 3.66 2807 4 2807 C4.08918701 2806.10583374 4.08918701 2806.10583374 4.18017578 2805.19360352 C10.77898617 2741.36256935 39.98622563 2684.43821093 82.89453125 2637.3203125 C84.72917685 2635.29845816 86.52768786 2633.25321478 88.3125 2631.1875 C90.88667206 2628.22690488 93.53133823 2625.3402364 96.20605469 2622.47021484 C106.7575284 2611.14122899 116.59414557 2599.29424201 126 2587 C126.50837402 2586.33887207 127.01674805 2585.67774414 127.54052734 2584.99658203 C165.01420746 2536.0137019 193.28667781 2480.55511796 215 2423 C215.3913916 2421.9702002 215.7827832 2420.94040039 216.18603516 2419.87939453 C230.85859676 2381.06306091 241.75362561 2340.60523512 248.82992554 2299.73339844 C251.6094394 2283.94731372 256.59895055 2269.15932713 261.90156555 2254.06884766 C271.92785639 2225.42313262 278.0948604 2194.91688785 283 2165 C283.19158691 2163.85273438 283.38317383 2162.70546875 283.58056641 2161.5234375 C288.19114195 2133.75217655 291.62212841 2105.95328634 293.6875 2077.875 C293.74834778 2077.05419952 293.80919556 2076.23339905 293.87188721 2075.38772583 C295.65697871 2050.95493832 296.20786683 2026.55322268 296.1875 2002.0625 C296.18723312 2001.34013027 296.18696625 2000.61776054 296.18669128 1999.87350082 C296.17544093 1975.53381937 295.772943 1951.28370082 294 1927 C293.93447937 1926.09109009 293.86895874 1925.18218018 293.80145264 1924.24572754 C287.16388253 1832.87649068 270.72033623 1742.5762297 219.9140625 1571.13671875 C196.17595669 1497.20085623 173.61731868 1422.8954677 99 1028 C98.94215332 1026.95618164 98.88430664 1025.91236328 98.82470703 1024.83691406 C94.44005748 943.62331622 101.5205902 860.95152724 203.71484375 616.1171875 C206.02510062 612.96576018 208.19960591 609.74557902 210.375 606.5 C222.02861058 589.64425042 236.46725711 575.05734716 253 563 C253.59683594 562.56413574 254.19367188 562.12827148 254.80859375 561.67919922 C275.89260226 546.49531245 300.49686115 536.65314645 326.875 539.5625 C350.82898441 543.73294342 372.54982182 556.58208162 386.6875 576.51953125 C410.03117897 610.99102329 413.13811764 652.79680872 406 693 C405.5645894 695.14567803 405.11448943 697.28805285 404.66503906 699.43083191 C401.82569756 713.0489248 399.90377104 726.77262963 398.0319252 740.55203629 C397.74523982 742.66000107 397.45662144 744.76769386 397.16757202 746.87533569 C388.43708149 810.60650835 380.52490921 874.59598491 376.34838867 938.80444336 C376.0889272 942.77626049 375.7925403 946.74441363 375.48950195 950.71313477 C374.09155766 969.66697954 373.65432695 988.52578258 373.68432617 1007.52661133 C373.68898365 1010.7262976 373.68191008 1013.92560602 373.66381836 1017.12524414 C373.52133644 1042.62916427 374.97869036 1067.34240346 380.25 1092.375 C380.5568911 1093.86611151 380.86369225 1095.35724153 381.17041016 1096.84838867 C396.75125214 1171.84915754 426.57567 1241.7772999 457.5 1311.5 C473.40618963 1347.36245812 489.03433852 1383.3305609 503 1420 C503.25162903 1420.65989929 503.50325806 1421.31979858 503.76251221 1421.99969482 C531.39745027 1494.6008036 550.43001914 1569.95218319 570.03258514 1645.00708389 C590.33518545 1727.27095515 590.33518545 1727.27095515 621 1806 C621.33354492 1806.69303223 621.66708984 1807.38606445 622.01074219 1808.10009766 C628.80215133 1822.03093343 638.18122294 1837.95685428 652.875 1844.5 C668.98151638 1849.62686296 687.98262027 1845.48244524 703 1839 C721.16570456 1829.26671329 731.74401211 1814.36340164 740 1796 C740.53367187 1794.85402344 741.06734375 1793.70804688 741.6171875 1792.52734375 C771.72312752 1723.34607744 767.51771494 1628.07515395 771.81506348 1553.20324707 C771.9818364 1550.31460788 772.15328245 1547.4263053 772.32714844 1544.53808594 C777.61686696 1456.02068001 777.75066909 1366.87288662 717.18890381 936.41970825 C686.75332631 789.68143795 686.75332631 789.68143795 678 720 C677.78174561 718.29142822 677.78174561 718.29142822 677.55908203 716.54833984 C674.37965485 690.83002518 675.14225401 664.58537741 679 639 C679.13390137 638.1042627 679.26780273 637.20852539 679.40576172 636.28564453 C683.33848651 611.26398101 692.04600132 586.88469401 708 567 C708.55042969 566.28585937 709.10085938 565.57171875 709.66796875 564.8359375 C720.65970824 551.31165946 738.75450993 542.05729744 756 540 C771.41767807 538.83055952 786.12675965 539.80880533 801 544 C802.79244141 544.47373047 802.79244141 544.47373047 804.62109375 544.95703125 C813.02672166 547.4590409 820.84118182 551.12048412 828.75 554.875 C829.79172363 555.36871094 830.83344727 555.86242187 831.90673828 556.37109375 C854.83869406 567.51872385 875.5764876 584.08872098 893.26171875 602.36328125 C895.60655018 605.23120731 895.60655018 605.23120731 898 605 C898.24621094 605.57621094 898.49242187 606.15242187 898.74609375 606.74609375 C900.20162099 609.3624153 901.88608731 611.00891836 904.0625 613.0625 C908.26241636 617.16863832 911.97084772 621.49420336 915.63671875 626.078125 C917.65644768 628.5752444 919.72874278 631.01193265 921.83520508 633.43579102 C948.7952849 664.62070371 970.04946841 701.0940951 989.15283203 737.48242188 C992.26868851 743.41597464 995.40803865 749.33688773 998.5625 755.25 C998.8736676 755.83361298 999.18483521 756.41722595 999.50543213 757.01852417 C1004.37248985 766.1304763 1009.46872207 775.08391078 1014.72192383 783.9777832 C1019.19336814 791.56177147 1023.49715248 799.2298834 1027.75 806.9375 C1032.50397967 815.54384251 1037.33895747 824.08214084 1042.359375 832.53515625 C1057.17349591 857.50076328 1071.30663284 882.86363598 1085.0612793 908.42553711 C1086.58175775 911.23929964 1088.12279021 914.04136778 1089.66723633 916.84204102 C1096.87962606 929.94327678 1103.77054708 943.17597217 1110.4375 956.5625 C1110.93612549 957.56190613 1111.43475098 958.56131226 1111.94848633 959.59100342 C1120.06749143 975.88504473 1127.85970148 992.24982603 1135 1009 C1135.59226492 1010.38028687 1136.1847208 1011.76049181 1136.77734375 1013.140625 C1146.21902477 1035.17307109 1154.9237766 1057.43224625 1163 1080 C1163.34034271 1080.94978729 1163.34034271 1080.94978729 1163.68756104 1081.91876221 C1185.11404666 1141.81441389 1201.48367269 1203.44260194 1213 1266 C1213.15577515 1266.84614868 1213.31155029 1267.69229736 1213.4720459 1268.56408691 C1231.94612238 1369.4111909 1239.20367635 1472.24398146 1282.4375 2100.25 C1282.49976524 2101.28850129 1282.56203049 2102.32700258 1282.62618256 2103.39697361 C1283.34921189 2115.45826738 1284.06984832 2127.51970039 1284.78699327 2139.5813455 C1285.13158927 2145.37220224 1285.47931634 2151.16286046 1285.82949471 2156.95338219 C1287.00105613 2176.34619926 1288.10679834 2195.73889247 1289.04991901 2215.14427543 C1289.34201958 2221.09178048 1289.64905218 2227.03853754 1289.95612437 2232.98528612 C1290.19576154 2237.65882458 1290.42457381 2242.33231176 1290.62557793 2247.0076828 C1291.8742956 2275.91063851 1296.69158313 2300.95480998 1306.88769531 2328.20361328 C1310.08328762 2336.82815742 1312.68297752 2345.63683484 1315.35211182 2354.43493652 C1316.86451041 2359.38716549 1318.42517597 2364.3240641 1319.984375 2369.26171875 C1320.63613751 2371.32859127 1321.28782874 2373.39548627 1321.93945312 2375.46240234 C1322.27372314 2376.52231384 1322.60799316 2377.58222534 1322.95239258 2378.67425537 C1324.04810139 2382.15270314 1325.14059954 2385.63214688 1326.23242188 2389.11181641 C1344.07499305 2445.95658508 1362.0575445 2502.88890468 1383.11151123 2558.64025879 C1383.94140488 2560.84437698 1384.76149759 2563.05186172 1385.57861328 2565.26074219 C1395.73563532 2592.57514244 1409.44176436 2618.34256429 1422.6036377 2644.29314232 C1428.17305998 2655.28096894 1433.55767182 2666.34927696 1438.81484985 2677.49002075 C1439.93855358 2679.86986523 1441.06790654 2682.24691648 1442.19995117 2684.62280273 C1451.67777143 2704.51874872 1460.99165887 2724.48453257 1470.01611328 2744.59033203 C1471.36327939 2747.58977622 1472.71912462 2750.58509039 1474.08154297 2753.57763672 C1503.25351493 2817.69551155 1530.65351927 2883.34837764 1543.64453125 2952.8203125 C1545.28281778 2961.57871053 1547.11420687 2970.29207288 1549 2979 C1549.33 2979 1549.66 2979 1550 2979 C1550 1996.92 1550 1014.84 1550 3 C1039.49 3 528.98 3 3 3 Z M255.46777344 598.58349609 C253.99507276 600.00475513 252.50257502 601.40278442 251.0078125 602.80078125 C207.04749746 644.56129498 177.57497399 712.48448087 158.71582031 768.88037109 C158.06808044 770.79840572 157.39118292 772.70653272 156.7109375 774.61328125 C152.64503927 786.19453329 149.78694269 798.09821914 146.77392578 809.98681641 C145.85412667 813.56793962 144.86891093 817.12632115 143.875 820.6875 C141.10614504 831.01425947 139.07524309 841.51609823 137 852 C136.84644043 852.76570313 136.69288086 853.53140625 136.53466797 854.3203125 C134.06214308 866.79094572 132.72714398 879.38336717 131.33642578 892.01269531 C130.76018039 897.12948678 130.09790994 902.23438985 129.4296875 907.33984375 C126.62892155 931.19727736 126.83576934 955.25451052 126.86962891 979.23876953 C126.87419557 982.49985578 126.87418281 985.76088639 126.86962891 989.02197266 C126.83157724 1016.27466212 127.69368034 1043.12053231 130.41918945 1070.2590332 C130.81021504 1074.16467732 131.18799492 1078.07144358 131.56445312 1081.97851562 C133.69039176 1103.65995585 136.54304516 1125.21721168 140.2890625 1146.6796875 C140.87984236 1150.13412024 141.3564789 1153.59770756 141.828125 1157.0703125 C143.2952886 1167.43138054 145.22751968 1177.71063586 147.125 1188 C147.42179153 1189.6133725 147.42179153 1189.6133725 147.72457886 1191.25933838 C151.47214728 1211.58343397 155.5499798 1231.81862998 160 1252 C160.15686279 1252.71406006 160.31372559 1253.42812012 160.4753418 1254.16381836 C164.58735285 1272.86889501 169.05248327 1291.48041258 173.6875 1310.0625 C173.91579498 1310.97944641 174.14408997 1311.89639282 174.37930298 1312.84112549 C176.89267156 1322.91568533 179.48023821 1332.9604859 182.32780457 1342.94642639 C183.66616933 1347.66569792 184.8098456 1352.39871422 185.875 1357.1875 C187.6313509 1364.93958567 189.92839794 1372.48301643 192.29248047 1380.0690918 C194.38547161 1386.83709745 196.25769173 1393.63391064 198 1400.5 C200.73287817 1411.24082542 203.91780071 1421.81192455 207.19921875 1432.39599609 C208.35370286 1436.1501813 209.4624028 1439.91708139 210.5625 1443.6875 C212.35595177 1449.8182597 214.16832906 1455.94304055 216 1462.0625 C216.33753296 1463.19401489 216.33753296 1463.19401489 216.68188477 1464.34838867 C218.39059037 1470.0474846 220.15996296 1475.72702894 221.93890381 1481.40449524 C223.64517753 1486.8539079 225.33358918 1492.30868619 227.015625 1497.765625 C232.29455909 1514.88301388 237.57714438 1531.99626452 243.10839844 1549.03417969 C244.76581442 1554.14059163 246.3935418 1559.25307625 247.96484375 1564.38671875 C250.07508547 1571.28010646 252.28171847 1578.14074037 254.5 1585 C257.40392624 1593.97937601 260.2506252 1602.97207506 263 1612 C263.21309814 1612.69595276 263.42619629 1613.39190552 263.64575195 1614.10894775 C271.89162689 1641.04183679 279.27371779 1668.1042839 285.91929626 1695.47589111 C287.1345961 1700.47992171 288.36726679 1705.47892166 289.62524414 1710.47241211 C289.89631485 1711.54888 290.16738556 1712.6253479 290.44667053 1713.73443604 C290.96671579 1715.79533527 291.4885227 1717.85579111 292.01243591 1719.91571045 C293.68423517 1726.54379037 295.05071072 1733.15282471 296.23510742 1739.88647461 C296.93875851 1743.80259471 297.7977499 1747.67686356 298.66897583 1751.5586853 C301.49481198 1764.17250918 303.87059937 1776.83989552 306.05761719 1789.57861328 C306.62374963 1792.86773559 307.20205323 1796.15456243 307.78125 1799.44140625 C310.192508 1813.29132226 312.10295545 1827.14581846 313.66838074 1841.11555481 C314.23699978 1846.06143902 314.87111639 1850.99898329 315.5 1855.9375 C315.87492707 1858.9436779 316.24813375 1861.95006004 316.62060547 1864.95654297 C316.87439438 1866.9924069 317.13125145 1869.0278906 317.39111328 1871.06298828 C319.25866959 1885.74193456 320.53465521 1900.38302514 321.35375977 1915.15234375 C321.42522217 1916.43367188 321.49668457 1917.715 321.5703125 1919.03515625 C321.62977051 1920.1631665 321.68922852 1921.29117676 321.75048828 1922.45336914 C321.93006836 1925.00597176 322.1760287 1927.48939835 322.49243164 1930.0234375 C323.23536853 1936.52439173 323.36645612 1943.05381933 323.55078125 1949.58984375 C323.57159571 1950.29804701 323.59241016 1951.00625027 323.61385536 1951.73591423 C324.10246816 1968.65012614 324.18742932 1985.56380086 324.18530273 2002.48413086 C324.18522127 2005.87155471 324.19222452 2009.25884387 324.20581055 2012.64624023 C324.27486697 2030.15755177 324.17426115 2047.60890339 323.05078125 2065.08984375 C323.0075643 2065.7632889 322.96434734 2066.43673405 322.91982079 2067.13058662 C322.52288721 2073.15146907 322.03715277 2079.05292504 321 2085 C320.83459251 2086.63853756 320.69108908 2088.27944448 320.5703125 2089.921875 C320.46360229 2091.3133374 320.46360229 2091.3133374 320.35473633 2092.73291016 C320.27892334 2093.7285498 320.20311035 2094.72418945 320.125 2095.75 C317.09407393 2133.00478118 311.85923288 2170.44514576 304 2207 C303.77489746 2208.05413086 303.54979492 2209.10826172 303.31787109 2210.19433594 C298.98747944 2230.24057665 293.34697333 2249.83030225 287.140625 2269.3671875 C285.71794061 2273.89833984 284.36468685 2278.45104383 283 2283 C606.73 2283 930.46 2283 1264 2283 C1263.23716771 2260.79564271 1263.23716771 2260.79564271 1262.09375 2238.62109375 C1261.9163759 2235.64185793 1261.74151976 2232.6624749 1261.56640625 2229.68310547 C1261.52075783 2228.91153768 1261.47510941 2228.13996988 1261.4280777 2227.34502125 C1260.90205494 2218.42041431 1260.4203515 2209.49343534 1259.93829346 2200.56636429 C1259.7808703 2197.65312964 1259.62273522 2194.7399345 1259.46435547 2191.82675171 C1259.03385022 2183.90761066 1258.60343333 2175.9884666 1258.17724609 2168.0690918 C1256.63054067 2139.28569387 1256.63054067 2139.28569387 1254.68589783 2110.52713013 C1253.87843105 2099.63975115 1253.30027258 2088.74344202 1252.73849487 2077.84103394 C1251.80011459 2059.69386257 1250.7540884 2041.56124734 1249.4375 2023.4375 C1248.46496955 2010.04680251 1247.61366918 1996.65907036 1246.9375 1983.25 C1245.84098411 1961.531506 1244.48506546 1939.84347173 1242.74780273 1918.16552734 C1242.03987823 1909.0758042 1241.54207217 1899.97881536 1241.0625 1890.875 C1240.3502799 1877.36901726 1239.42262898 1863.89162902 1238.36990356 1850.40820312 C1237.24259497 1835.90597167 1236.34098816 1821.39641897 1235.5 1806.875 C1234.67289148 1792.65449563 1233.79324644 1778.44680424 1232.625 1764.25 C1231.1426888 1746.23392067 1229.8339122 1728.20634812 1228.54430389 1710.17564392 C1228.3771211 1707.84210631 1228.20911147 1705.5086297 1228.04083252 1703.1751709 C1225.81524379 1672.29632246 1225.81524379 1672.29632246 1225.32235718 1660.73579407 C1225.15031403 1656.91395319 1224.76474723 1653.17187617 1224.26318359 1649.38121033 C1223.72701114 1644.53007441 1223.50603299 1639.65176646 1223.22396278 1634.78044319 C1222.18833023 1617.00032017 1220.87375977 1599.24388506 1219.50003433 1581.48717499 C1219.30896047 1579.01673657 1219.11861143 1576.54624298 1218.92831421 1574.07574463 C1216.91932883 1548.03496289 1214.77921207 1522.00607815 1212.53713608 1495.98435593 C1212.31595867 1493.41517569 1212.09571885 1490.84591647 1211.87564087 1488.27664185 C1210.44452509 1471.59647472 1208.95040762 1454.93265951 1207.10690308 1438.29202271 C1206.22628989 1430.29865883 1205.46405844 1422.29808899 1204.74166489 1414.28915787 C1203.27420965 1398.06899357 1201.37887243 1381.92138278 1199.31866455 1365.7668457 C1198.97601577 1363.06908869 1198.63893137 1360.37064833 1198.30182934 1357.67219353 C1193.9067044 1322.41413496 1193.9067044 1322.41413496 1188.0625 1287.375 C1187.80362467 1285.98272741 1187.54508891 1284.59039165 1187.28686523 1283.19799805 C1186.77173643 1280.42703262 1186.25277643 1277.65682791 1185.73046875 1274.88720703 C1185.06033659 1271.32108261 1184.40326401 1267.75283864 1183.75 1264.18359375 C1180.93431793 1248.97036772 1177.51279853 1233.93161998 1173.92041016 1218.88476562 C1172.97646866 1214.90068152 1172.05299123 1210.91238471 1171.13671875 1206.921875 C1170.828028 1205.58169058 1170.51927211 1204.24152116 1170.21044922 1202.90136719 C1169.63228817 1200.39225525 1169.05755316 1197.88244543 1168.48486328 1195.37207031 C1166.82959127 1188.21753917 1164.95714373 1181.15906123 1162.90405273 1174.10839844 C1162.19904983 1171.68439168 1161.51693635 1169.25944656 1160.8671875 1166.8203125 C1156.90293644 1152.05581839 1152.26167842 1137.49223474 1147.61590576 1122.93096924 C1147.0447999 1121.1404553 1146.47568423 1119.3493069 1145.90673828 1117.55810547 C1131.39590584 1072.1230002 1112.98221015 1028.11083025 1092.46630859 985.08398438 C1091.12619767 982.26542273 1089.8029064 979.43989233 1088.48828125 976.609375 C1083.80252494 966.54300878 1078.79035867 956.68875198 1073.55029297 946.90039062 C1072.08581068 944.16054029 1070.62781727 941.41731069 1069.17193604 938.67288208 C1061.99234677 925.13898602 1054.80138517 911.61394075 1047.27783203 898.26708984 C1045.84686648 895.72831526 1044.42167563 893.18633252 1042.99609375 890.64453125 C1036.30923158 878.74613472 1029.48649544 866.93243085 1022.59375 855.15234375 C1016.34349448 844.46515739 1010.1711856 833.73297087 1004 823 C1003.35272949 821.87577637 1002.70545898 820.75155273 1002.03857422 819.59326172 C987.89310263 795.01049025 974.13135724 770.23962619 960.93383789 745.13378906 C954.74414138 733.3796369 948.3057655 721.80899267 941.125 710.625 C940.08536086 708.99646173 939.04630746 707.36754939 938.0078125 705.73828125 C937.50024414 704.94244629 936.99267578 704.14661133 936.46972656 703.32666016 C935.10168656 701.16097557 933.75957189 698.98223504 932.4296875 696.79296875 C926.90960278 687.72685475 920.8698779 679.23185704 914.39453125 670.82373047 C912.37286351 668.17984776 910.41008899 665.49310753 908.4375 662.8125 C903.56080499 656.30728978 898.31070849 650.15095883 893 644 C892.41863281 643.31679688 891.83726562 642.63359375 891.23828125 641.9296875 C877.31456997 625.72627538 862.40413803 610.46916556 845 598 C844.4323291 597.59185059 843.8646582 597.18370117 843.27978516 596.76318359 C824.2692174 583.24748729 799.80536136 569.01041432 776 568 C774.81792969 567.93683594 773.63585937 567.87367188 772.41796875 567.80859375 C756.91362451 567.23143434 743.95585395 571.53296469 732.3125 582.125 C718.68793836 596.72740099 711.95801357 617.54951376 708.3125 636.75 C707.99442383 638.35681641 707.99442383 638.35681641 707.66992188 639.99609375 C705.86482044 649.2550683 704.83321805 658.14162055 704.7265625 667.56640625 C704.71403442 668.58117538 704.70150635 669.59594452 704.68859863 670.64146423 C704.43972305 695.74750402 705.52556652 719.98826203 709.62963867 744.75946045 C709.99787523 746.98714596 710.35662156 749.21617274 710.71289062 751.44580078 C712.23102671 760.90328545 713.87763306 770.33477914 715.59246826 779.75842285 C716.00918025 782.05049482 716.42307701 784.34306148 716.83642578 786.63574219 C722.37880709 817.33705276 728.36471806 847.94977019 734.51123047 878.53515625 C736.25981744 887.24448096 737.96396653 895.96096512 739.625 904.6875 C741.73574904 915.75805892 744.00892888 926.78968624 746.33203125 937.81738281 C747.54668785 943.6047598 748.74108574 949.39632943 749.9375 955.1875 C750.44789422 957.65625464 750.958311 960.12500462 751.46875 962.59375 C751.72269531 963.82222656 751.97664062 965.05070312 752.23828125 966.31640625 C752.98117769 969.90897724 753.72481789 973.50139335 754.46875 977.09375 C757.82129218 993.28372098 761.16871312 1009.47473554 764.49211121 1025.67071533 C765.37071589 1029.9489115 766.25361092 1034.22618296 767.14160156 1038.50244141 C775.56866361 1079.08648967 783.83806319 1119.77457059 789.68743896 1160.82415771 C790.0208168 1163.14491274 790.36277461 1165.464309 790.70556641 1167.78369141 C797.58030311 1214.58177801 801.15426777 1262.05740945 802.8999939 1309.31872559 C802.97214446 1311.25316219 803.04760724 1313.18747625 803.12515259 1315.1217041 C804.0792035 1339.26813028 804.19860327 1363.40340071 804.18867874 1387.56628036 C804.1874851 1390.79025118 804.1880372 1394.01421878 804.18869019 1397.2381897 C804.18716316 1432.43387955 803.59342132 1467.56857148 802.26416016 1502.73852539 C802.07505994 1507.79190414 801.91075716 1512.84538508 801.76318359 1517.90014648 C801.30641476 1533.5242672 800.60346257 1549.09598262 799.5 1564.6875 C799.23694962 1568.48289482 798.9772004 1572.27850814 798.71875 1576.07421875 C798.62474411 1577.44288589 798.62474411 1577.44288589 798.52883911 1578.83920288 C798.04866543 1585.95210789 797.66870926 1593.06741287 797.3560791 1600.18962097 C797.10706414 1605.64546765 796.66786346 1611.06578133 796.125 1616.5 C796.03009277 1617.45285889 795.93518555 1618.40571777 795.83740234 1619.38745117 C795.71292725 1620.60911987 795.71292725 1620.60911987 795.5859375 1621.85546875 C795.14309371 1626.35473178 794.76498596 1630.85592831 794.4140625 1635.36328125 C792.20930589 1663.63746293 789.18368357 1691.82071162 786 1720 C785.89989624 1720.88669373 785.79979248 1721.77338745 785.69665527 1722.68695068 C780.87519706 1765.14882393 773.07200655 1812.10173191 742.43359375 1844.29296875 C740.78563004 1845.88373158 740.78563004 1845.88373158 741 1848 C740.11248047 1848.40025391 740.11248047 1848.40025391 739.20703125 1848.80859375 C736.96195625 1850.02053689 735.50944147 1851.29081898 733.6875 1853.0625 C725.40322444 1860.3991278 715.749012 1865.70049123 705.375 1869.4375 C704.73183838 1869.67218994 704.08867676 1869.90687988 703.42602539 1870.14868164 C692.5149487 1873.81281884 681.22852917 1874.32473669 669.8125 1874.25 C668.61947266 1874.25773437 667.42644531 1874.26546875 666.19726562 1874.2734375 C648.64695356 1874.23484418 635.10910065 1869.09175454 622.671875 1856.73828125 C621.79015625 1855.83464844 620.9084375 1854.93101563 620 1854 C619.28328125 1853.29230469 618.5665625 1852.58460937 617.828125 1851.85546875 C611.35632014 1845.08596086 606.7011884 1837.04200095 602 1829 C601.44940918 1828.07380859 601.44940918 1828.07380859 600.88769531 1827.12890625 C586.16346699 1802.07212246 577.41953796 1773.38795786 568.59698486 1745.85662842 C567.76095621 1743.25657163 566.90958877 1740.66159699 566.05859375 1738.06640625 C563.58512616 1730.46335877 561.3849442 1722.85629024 559.52612305 1715.08007812 C558.31442216 1710.06918371 556.8472105 1705.17031268 555.3125 1700.25 C551.82931251 1688.98837811 549.06035221 1677.54732638 546.24731445 1666.10449219 C545.88111905 1664.61521054 545.51482782 1663.12595245 545.1484375 1661.63671875 C544.96950455 1660.90941559 544.79057159 1660.18211243 544.60621643 1659.43276978 C542.83334678 1652.2621977 540.92454005 1645.13121261 539 1638 C538.20355089 1635.00125272 537.41381032 1632.00076445 536.625 1629 C536.31647095 1627.82896729 536.31647095 1627.82896729 536.00170898 1626.63427734 C534.84298173 1622.23033522 533.69486381 1617.82385441 532.55859375 1613.4140625 C529.8817417 1603.04521805 527.09601918 1592.72312791 524.11401367 1582.43774414 C522.59472254 1577.16916171 521.1774815 1571.88870737 519.875 1566.5625 C518.27988108 1560.0443336 516.51553088 1553.59177608 514.62890625 1547.15185547 C513.89339335 1544.63523641 513.16549327 1542.1164607 512.4375 1539.59765625 C510.64137351 1533.39359995 508.82444013 1527.19578286 507 1521 C506.73348633 1520.09169434 506.46697266 1519.18338867 506.19238281 1518.24755859 C500.62210213 1499.33865724 494.35420168 1480.65716763 488 1462 C487.58379395 1460.77651855 487.16758789 1459.55303711 486.73876953 1458.29248047 C470.69117452 1411.4597032 450.40431662 1366.10482708 430.34188843 1320.88995361 C401.84174882 1256.63768466 401.84174882 1256.63768466 390 1225 C389.5447998 1223.7840918 389.08959961 1222.56818359 388.62060547 1221.31542969 C385.35417643 1212.56496778 382.15863199 1203.78997974 379 1195 C378.60619141 1193.90655273 378.21238281 1192.81310547 377.80664062 1191.68652344 C374.09307422 1181.33519677 370.53956289 1171.04128662 367.8515625 1160.37109375 C367.01412471 1157.05591571 366.08489999 1153.78160931 365.125 1150.5 C358.03342238 1125.67947832 352.54488854 1100.62852525 348.51541138 1075.13275146 C348.20364481 1073.16442943 347.88223553 1071.19764188 347.56030273 1069.23095703 C344.70236715 1050.39866568 344.76566855 1031.19996099 344.75 1012.1875 C344.74866058 1011.19942352 344.74732117 1010.21134705 344.74594116 1009.19332886 C344.75260967 985.99820069 346.15582681 962.9298205 347.80401611 939.80194092 C348.04055156 936.42024274 348.25826464 933.03754607 348.47344971 929.6544342 C351.82684681 877.26124347 357.71870374 824.74132093 365.0703125 772.76953125 C366.5447467 762.34439914 367.94507316 751.91144506 369.30331421 741.47055054 C374.171639 704.08176068 374.171639 704.08176068 377.23828125 691.21484375 C384.32517508 661.30451746 383.85199639 627.55832266 368.1015625 600.375 C358.99241863 585.74618902 344.88122662 572.73759687 327.75 568.3984375 C299.27636042 564.2729954 275.1229652 579.55196606 255.46777344 598.58349609 Z M276 2312 C274.68 2317.94 273.36 2323.88 272 2330 C271.22161374 2333.35628844 270.43949038 2336.70932394 269.6328125 2340.05859375 C269.43074188 2340.89810074 269.22867126 2341.73760773 269.02047729 2342.60255432 C268.59977776 2344.34571142 268.17808419 2346.08862892 267.75537109 2347.83129883 C267.33573009 2349.5662592 266.9190536 2351.30193933 266.50537109 2353.03833008 C263.5240394 2365.55074626 260.01739434 2377.78274777 256 2390 C255.52500295 2391.46485682 255.05070759 2392.92994138 254.57714844 2394.39526367 C239.14226744 2442.02607159 220.72159239 2488.35749759 196 2532 C195.45617676 2532.96260742 194.91235352 2533.92521484 194.35205078 2534.91699219 C178.58571802 2562.70031913 160.87775249 2589.00532528 141 2614 C140.56026855 2614.55445801 140.12053711 2615.10891602 139.66748047 2615.68017578 C134.78384458 2621.81694114 129.64686031 2627.67219433 124.33984375 2633.4453125 C121.7720803 2636.24884722 119.27103125 2639.10344875 116.77734375 2641.97265625 C114.70640513 2644.33489173 112.60487152 2646.66795853 110.5 2649 C108.99986071 2650.6665413 107.49985122 2652.33319945 106 2654 C105.43667969 2654.62261719 104.87335938 2655.24523438 104.29296875 2655.88671875 C73.27900015 2690.67367623 48.22107309 2731.31277885 37.47900391 2776.98974609 C37.0481367 2778.79798288 36.57914746 2780.5970343 36.10546875 2782.39453125 C17.27625324 2856.13456243 48.64107169 2939.68247014 85.58203125 3002.69873047 C105.01423433 3035.42260774 129.61905906 3066.57216788 159 3091 C159.81726563 3091.68320313 160.63453125 3092.36640625 161.4765625 3093.0703125 C193.2681318 3119.36478048 228.42136103 3140.98477935 266 3158 C266.85980469 3158.38994141 267.71960938 3158.77988281 268.60546875 3159.18164062 C283.45593403 3165.85639033 298.66835398 3171.53684381 314 3177 C315.00401855 3177.35980957 316.00803711 3177.71961914 317.04248047 3178.09033203 C333.44957067 3183.92122273 350.15093696 3188.35673148 367.04064941 3192.51568604 C370.2453956 3193.30783796 373.44643974 3194.11479068 376.6484375 3194.91796875 C379.1194723 3195.52993684 381.59081487 3196.14066384 384.0625 3196.75 C385.68031372 3197.15424194 385.68031372 3197.15424194 387.33081055 3197.56665039 C434.47254224 3209.00594512 488.12083159 3216.80277091 536 3206 C536.8446582 3205.82339844 537.68931641 3205.64679687 538.55957031 3205.46484375 C585.24905991 3195.65841653 629.43274296 3171.40685009 668 3144 C668.98097656 3143.30390625 669.96195313 3142.6078125 670.97265625 3141.890625 C681.09431254 3134.60885789 690.91308497 3126.95550951 700.5625 3119.0625 C701.2220166 3118.52608887 701.8815332 3117.98967773 702.56103516 3117.43701172 C703.89929245 3116.3346683 705.21976763 3115.21038054 706.5215416 3114.06518269 C709 3112 709 3112 712.01007462 3109.96831799 C717.0565854 3106.19067392 720.97104181 3102.97375671 722.08957672 3096.53334999 C722.63240288 3090.96918321 722.48634773 3085.41274654 722.36230469 3079.83129883 C722.35891582 3077.69177441 722.36082758 3075.55223606 722.36761475 3073.41271973 C722.37104615 3067.62926182 722.30069689 3061.84881418 722.21672726 3056.06605363 C722.14151012 3050.01373107 722.13464685 3043.96133295 722.12042236 3037.90861511 C722.08318309 3026.45833637 721.98479074 3015.00943896 721.86422849 3003.55976743 C721.72991567 2990.52005286 721.66407492 2977.48027095 721.60388327 2964.44003642 C721.47858464 2937.62590025 721.26520171 2910.81308599 721 2884 C730.57 2884 740.14 2884 750 2884 C749.97335266 2886.70225266 749.94670532 2889.40450531 749.91925049 2892.18864441 C749.6738548 2917.65799345 749.49536876 2943.12718638 749.37825394 2968.59745312 C749.31644047 2981.69199048 749.23220459 2994.78565905 749.09472656 3007.87963867 C748.97492343 3019.29565361 748.89765534 3030.71103922 748.87093806 3042.12766534 C748.85532566 3048.17016902 748.81877529 3054.21087276 748.73123932 3060.25279808 C748.6494111 3065.94722659 748.62473386 3071.63912483 748.64270782 3077.33408546 C748.63942288 3079.41702687 748.61576845 3081.5000582 748.5695343 3083.58248901 C748.17717612 3096.68455359 748.17717612 3096.68455359 754.18067813 3107.88652068 C756.66143728 3110.43414529 759.27685294 3112.71057955 762 3115 C763.43237831 3116.44290434 764.85329015 3117.897542 766.25 3119.375 C770.02550663 3123.08873965 773.97249792 3126.56356478 778 3130 C778.89976562 3130.78890625 779.79953125 3131.5778125 780.7265625 3132.390625 C793.9807023 3143.92420303 808.29426858 3154.21286398 823.04833984 3163.73730469 C824.39335178 3164.60750756 825.73461926 3165.48351619 827.07275391 3166.36425781 C856.19774031 3185.52698844 887.56298352 3200.3033218 920.33959961 3212.04492188 C923.13185627 3213.04733612 925.91511226 3214.07284934 928.69921875 3215.09765625 C943.77358695 3220.57451667 959.42917881 3224.24100396 975 3228 C976.39508789 3228.3407959 976.39508789 3228.3407959 977.81835938 3228.68847656 C998.807248 3233.7892122 1019.91573583 3236.89760089 1041.375 3239.1875 C1042.16044189 3239.27226593 1042.94588379 3239.35703186 1043.75512695 3239.44436646 C1063.63038761 3241.56787841 1083.39173953 3242.20770098 1103.375 3242.1875 C1104.48572876 3242.18689575 1105.59645752 3242.1862915 1106.74084473 3242.18566895 C1136.74386933 3242.14166522 1166.22420375 3240.76076229 1195.9276123 3236.30859375 C1198.09187214 3235.98631956 1200.25719743 3235.67213545 1202.42285156 3235.359375 C1225.15404361 3232.06316579 1247.6127627 3227.86178101 1270.03320312 3222.87695312 C1273.3139559 3222.14794011 1276.60044312 3221.45098143 1279.890625 3220.765625 C1302.82427934 3215.84164101 1325.68696771 3207.7307472 1347 3198 C1348.39305773 3197.38372692 1349.78628776 3196.76784317 1351.1796875 3196.15234375 C1374.99630853 3185.46148743 1397.53674042 3171.17520253 1418 3155 C1418.60618164 3154.52240234 1419.21236328 3154.04480469 1419.83691406 3153.55273438 C1431.3563526 3144.4438135 1442.31770474 3134.87381648 1452.59375 3124.37109375 C1454 3123 1454 3123 1456.5 3121.0625 C1459.32745592 3118.72984887 1461.55640236 3116.1670561 1463.9296875 3113.3828125 C1465.85816449 3111.16324465 1467.84546336 3109.01091352 1469.85668945 3106.86645508 C1498.87049461 3075.80892298 1523.63863364 3038.47469241 1522.45703125 2994.67578125 C1521.96536289 2985.14295508 1519.92831539 2976.00885908 1517.66699219 2966.76171875 C1516.64901767 2962.54673787 1515.76054382 2958.30691282 1514.875 2954.0625 C1514.71088623 2953.29381592 1514.54677246 2952.52513184 1514.37768555 2951.7331543 C1513.44747748 2947.33593527 1512.6361427 2942.93514017 1511.91113281 2938.49975586 C1510.4813662 2929.78598917 1508.27033698 2921.50867442 1505.63964844 2913.08544922 C1505.02633452 2911.08585857 1504.44754014 2909.08019885 1503.8828125 2907.06640625 C1497.64475435 2884.89726527 1489.43364127 2863.37941282 1480.82226562 2842.04034424 C1479.95821198 2839.89630852 1479.09801758 2837.75075077 1478.23828125 2835.60498047 C1469.07857816 2812.77130751 1459.33393433 2790.25246169 1449.12368774 2767.86987305 C1446.40554811 2761.90784825 1443.73857466 2755.92496517 1441.08569336 2749.93359375 C1432.4392958 2730.44282035 1423.22669521 2711.22093555 1414 2692 C1413.64742126 2691.26454956 1413.29484253 2690.52909912 1412.93157959 2689.7713623 C1410.60892929 2684.92668069 1408.277144 2680.08649699 1405.9375 2675.25 C1405.43967514 2674.21939453 1405.43967514 2674.21939453 1404.93179321 2673.16796875 C1400.31080697 2663.61619252 1395.55449632 2654.14015043 1390.71875 2644.6953125 C1377.6248668 2619.06343542 1365.64316011 2593.52972028 1355.88378906 2566.44464111 C1355.00521546 2564.01442644 1354.11585938 2561.58844667 1353.22265625 2559.16357422 C1344.82468328 2536.34842409 1336.99704931 2513.33408521 1329.1875 2490.3125 C1328.96850163 2489.66739597 1328.74950325 2489.02229195 1328.52386856 2488.35763931 C1319.34369349 2461.31199444 1310.56953326 2434.14475524 1302.03027344 2406.89038086 C1299.37137284 2398.40999097 1296.66573386 2389.95112328 1293.83203125 2381.52734375 C1291.70068234 2375.18462425 1289.70956726 2368.82883334 1287.9375 2362.375 C1284.02853869 2348.44539649 1279.61480987 2334.71045125 1275 2321 C1274.01 2318.03 1273.02 2315.06 1272 2312 C943.32 2312 614.64 2312 276 2312 Z M3 2848 C3 3126.19 3 3404.38 3 3691 C513.51 3691 1024.02 3691 1550 3691 C1550 3471.22 1550 3251.44 1550 3025 C1549.67 3025 1549.34 3025 1549 3025 C1548.78085938 3025.8971875 1548.56171875 3026.794375 1548.3359375 3027.71875 C1541.59248885 3054.2539463 1529.26245458 3077.0506748 1513 3099 C1512.59523438 3099.5465625 1512.19046875 3100.093125 1511.7734375 3100.65625 C1495.81172002 3122.07584507 1477.44350173 3142.76478504 1457 3160 C1455.56914062 3161.26457031 1455.56914062 3161.26457031 1454.109375 3162.5546875 C1434.41315288 3179.89938579 1412.72959808 3194.91509356 1390 3208 C1389.27683594 3208.42104004 1388.55367187 3208.84208008 1387.80859375 3209.27587891 C1339.1826833 3237.44558464 1283.99510427 3250.84206453 1229 3260 C1227.77990234 3260.2057666 1226.55980469 3260.4115332 1225.30273438 3260.62353516 C1208.59054507 3263.40539556 1191.858851 3265.56855482 1175 3267.25 C1174.17190826 3267.33299347 1173.34381653 3267.41598694 1172.4906311 3267.50149536 C1166.9973096 3268.04601787 1161.50121686 3268.54234646 1156 3269 C1154.12320557 3269.15903809 1154.12320557 3269.15903809 1152.20849609 3269.32128906 C1136.71630145 3270.42915073 1121.14913683 3270.24592693 1105.625 3270.25 C1104.85390144 3270.25044186 1104.08280289 3270.25088371 1103.28833771 3270.25133896 C1080.38380409 3270.25821863 1057.74882396 3269.97152346 1035 3267 C1033.58622914 3266.82561216 1032.17232436 3266.65230721 1030.75830078 3266.47998047 C978.64747479 3260.07035794 927.03755429 3247.43018803 879 3226 C877.9476416 3225.53480957 876.8952832 3225.06961914 875.81103516 3224.59033203 C860.45498543 3217.77225506 845.60716287 3210.29632967 831 3202 C830.27619141 3201.5963623 829.55238281 3201.19272461 828.80664062 3200.77685547 C803.99270078 3186.93741258 780.7895512 3170.00995485 759.45703125 3151.27783203 C758.15440369 3150.13541369 756.84337358 3149.00259273 755.53125 3147.87109375 C752.61975045 3145.35612306 749.79559162 3142.8331426 747.125 3140.0625 C745.25436301 3137.76784154 745.25436301 3137.76784154 743 3138 C742.773125 3137.443125 742.54625 3136.88625 742.3125 3136.3125 C740.59377841 3133.28427625 738.67211603 3131.22676336 736 3129 C732.26095922 3129.25336416 730.42101672 3131.21996963 727.8125 3133.75 C721.31616452 3139.77006455 714.27714761 3145.00130047 707.20703125 3150.32373047 C705.11091649 3151.91575746 703.03655901 3153.53160431 700.96875 3155.16015625 C684.56290649 3168.03061942 667.11198534 3179.66401685 649 3190 C648.33436035 3190.38285156 647.6687207 3190.76570313 646.98291016 3191.16015625 C610.16504713 3212.26193999 571.0411993 3228.90075083 529 3236 C528.05447266 3236.16226074 527.10894531 3236.32452148 526.13476562 3236.49169922 C453.98969427 3248.38900591 373.03752062 3226.89832567 305 3204 C304.35927551 3203.78512939 303.71855103 3203.57025879 303.05841064 3203.34887695 C270.40320753 3192.36010846 238.95203475 3177.99937291 209 3161 C208.24332031 3160.57315918 207.48664063 3160.14631836 206.70703125 3159.70654297 C183.41838252 3146.46872547 161.02900696 3130.78004316 141 3113 C139.68784247 3111.87460057 138.37539681 3110.74953689 137.0625 3109.625 C102.43103569 3079.04615385 75.76897698 3043.59625299 53.31054688 3003.34667969 C52.50947927 3001.91227919 51.70445856 3000.48006599 50.89257812 2999.05175781 C25.24408235 2953.92940413 7.8562527 2899.85697473 4 2848 C3.67 2848 3.34 2848 3 2848 Z " fill="#010101" transform="translate(0,0)"/>
<path d="M0 0 C512.49 0 1024.98 0 1553 0 C1553 1219.02 1553 2438.04 1553 3694 C1040.51 3694 528.02 3694 0 3694 C0 2474.98 0 1255.96 0 0 Z M3 3 C3 1220.04 3 2437.08 3 3691 C513.51 3691 1024.02 3691 1550 3691 C1550.85523748 3173.06036344 1550.85523748 3173.06036344 1551.03376473 2655.12100425 C1551.02165001 2632.69962802 1551.01376475 2610.27825088 1551.00670624 2587.85687256 C1551.00641582 2586.93814304 1551.0061254 2586.01941352 1551.00582618 2585.07284372 C1551.00315985 2576.63489318 1551.00052346 2568.19694263 1550.99792229 2559.75899207 C1550.99144626 2538.7558974 1550.98457326 2517.75280287 1550.97742164 2496.74970841 C1550.97709692 2495.79521705 1550.9767722 2494.84072569 1550.97643765 2493.85731034 C1550.96100763 2448.60498479 1550.94102962 2403.35266147 1550.92053413 2358.10033798 C1550.91346648 2342.48800073 1550.90642258 2326.87566347 1550.89946485 2311.26332617 C1550.89903136 2310.29068311 1550.89859788 2309.31804005 1550.89815127 2308.31592295 C1550.87749941 2261.91100926 1550.86029563 2215.50609444 1550.84379461 2169.10117911 C1550.84269472 2166.00848193 1550.84159333 2162.91578475 1550.84049154 2159.82308757 C1550.83384289 2141.15641451 1550.82722776 2122.48974145 1550.82065109 2103.82306837 C1550.80435219 2057.56576699 1550.78765554 2011.30846576 1550.77068233 1965.05116463 C1550.77029755 1964.00194759 1550.76991276 1962.95273055 1550.76951631 1961.87171905 C1550.74490856 1894.78170627 1550.71867718 1827.69169424 1550.69097996 1760.60168266 C1550.69054313 1759.5435295 1550.6901063 1758.48537633 1550.68965623 1757.39515792 C1550.67637641 1725.23558518 1550.66297067 1693.0760125 1550.64953997 1660.91643982 C1550.63468198 1625.3379293 1550.61984568 1589.75941877 1550.60510254 1554.1809082 C1550.60465869 1553.10997055 1550.60421484 1552.03903289 1550.60375754 1550.93564258 C1550.5614874 1448.92773586 1550.52265206 1346.91982792 1550.48465384 1244.91191954 C1550.48217248 1238.25111059 1550.47968835 1231.59030164 1550.47720367 1224.9294927 C1550.45128732 1155.45053662 1550.42553125 1085.97158048 1550.39984427 1016.49262431 C1550.3994756 1015.49546643 1550.39910693 1014.49830856 1550.39872709 1013.47093377 C1550.39702118 1008.85683913 1550.39531545 1004.24274449 1550.39361025 999.62864985 C1550.27080309 667.41909626 1550.13442411 335.20954948 1550 3 C1039.49 3 528.98 3 3 3 Z " fill="#FBFBFB" transform="translate(0,0)"/>
</svg>
