<?xml version="1.0" encoding="UTF-8"?>
<!DOCTYPE svg PUBLIC "-//W3C//DTD SVG 1.1//EN" "http://www.w3.org/Graphics/SVG/1.1/DTD/svg11.dtd">
<svg xmlns="http://www.w3.org/2000/svg" version="1.1" width="1553px" height="3694px" style="shape-rendering:geometricPrecision; text-rendering:geometricPrecision; image-rendering:optimizeQuality; fill-rule:evenodd; clip-rule:evenodd" xmlns:xlink="http://www.w3.org/1999/xlink">
<g><path style="opacity:0.749" fill="#fbfbfb" d="M -0.5,-0.5 C 517.167,-0.5 1034.83,-0.5 1552.5,-0.5C 1552.5,1230.83 1552.5,2462.17 1552.5,3693.5C 1034.83,3693.5 517.167,3693.5 -0.5,3693.5C -0.5,2462.17 -0.5,1230.83 -0.5,-0.5 Z M 1549.5,2978.5 C 1544,2952.55 1538.17,2926.55 1532,2900.5C 1513.74,2846.39 1492.74,2793.39 1469,2741.5C 1445.48,2690.8 1421.15,2640.47 1396,2590.5C 1375.36,2538.59 1356.7,2485.92 1340,2432.5C 1323.73,2382.02 1308.06,2331.35 1293,2280.5C 1279.41,2031.32 1263.08,1782.32 1244,1533.5C 1238.51,1459.6 1230.84,1385.94 1221,1312.5C 1201.09,1175.43 1158.75,1045.76 1094,923.5C 1066.84,874.508 1039.17,825.842 1011,777.5C 992.023,739.53 971.023,702.863 948,667.5C 924.651,633.018 896.818,602.518 864.5,576C 839.932,556.886 812.266,544.553 781.5,539C 745.139,534.601 717.305,547.768 698,578.5C 683.619,605.688 675.952,634.688 675,665.5C 674.272,680.522 674.605,695.522 676,710.5C 679.132,737.959 683.132,765.293 688,792.5C 707.231,892.653 727.231,992.653 748,1092.5C 759.779,1149.62 767.446,1207.29 771,1265.5C 780.002,1427.77 773.669,1589.43 752,1750.5C 748.455,1778.17 738.121,1802.84 721,1824.5C 699.727,1844.48 675.227,1849.98 647.5,1841C 639.91,1835.41 633.744,1828.58 629,1820.5C 623.473,1810.78 618.473,1800.78 614,1790.5C 604.47,1765.91 596.137,1740.91 589,1715.5C 575.177,1663.88 561.511,1612.21 548,1560.5C 531.715,1497.65 511.049,1436.31 486,1376.5C 462.783,1324.07 440.116,1271.4 418,1218.5C 399.667,1171.84 386,1123.84 377,1074.5C 375.671,1065.87 374.671,1057.2 374,1048.5C 372.742,984.458 375.909,920.624 383.5,857C 389.579,797.532 397.746,738.366 408,679.5C 412.645,647.344 407.978,616.677 394,587.5C 372.445,550.139 340.279,534.306 297.5,540C 278.164,545.333 260.831,554.333 245.5,567C 224.572,585.069 207.072,605.902 193,629.5C 130.284,730.331 98.2837,840.331 97,959.5C 96.2213,1045.05 104.555,1129.71 122,1213.5C 138.724,1293.67 158.724,1373 182,1451.5C 204.869,1525.11 227.535,1598.77 250,1672.5C 279.316,1779.88 294.483,1889.21 295.5,2000.5C 295.988,2083.28 285.488,2164.61 264,2244.5C 260.066,2257.64 255.732,2270.64 251,2283.5C 236.066,2375.31 204.733,2460.98 157,2540.5C 145.111,2559.05 132.445,2577.05 119,2594.5C 100.667,2615.5 82.3333,2636.5 64,2657.5C 29.3426,2701.3 8.84258,2750.97 2.5,2806.5C 2.5,1871.83 2.5,937.167 2.5,2.5C 518.167,2.5 1033.83,2.5 1549.5,2.5C 1549.5,994.5 1549.5,1986.5 1549.5,2978.5 Z M 2.5,2847.5 C 26.5963,3012.56 115.596,3127.06 269.5,3191C 339.951,3219.4 413.118,3235.57 489,3239.5C 530.808,3238.27 570.642,3228.77 608.5,3211C 654.374,3189.34 696.207,3161.84 734,3128.5C 811.458,3203.31 903.958,3248.47 1011.5,3264C 1086.41,3273.95 1161.08,3272.29 1235.5,3259C 1357.45,3241.9 1453.61,3183.4 1524,3083.5C 1535.82,3065.2 1544.32,3045.53 1549.5,3024.5C 1549.5,3246.5 1549.5,3468.5 1549.5,3690.5C 1033.83,3690.5 518.167,3690.5 2.5,3690.5C 2.5,3409.5 2.5,3128.5 2.5,2847.5 Z"/></g>
<g><path style="opacity:0.982" fill="#010101" d="M 1549.5,2978.5 C 1550.81,2993.84 1550.81,3009.17 1549.5,3024.5C 1544.32,3045.53 1535.82,3065.2 1524,3083.5C 1453.61,3183.4 1357.45,3241.9 1235.5,3259C 1161.08,3272.29 1086.41,3273.95 1011.5,3264C 903.958,3248.47 811.458,3203.31 734,3128.5C 696.207,3161.84 654.374,3189.34 608.5,3211C 570.642,3228.77 530.808,3238.27 489,3239.5C 413.118,3235.57 339.951,3219.4 269.5,3191C 115.596,3127.06 26.5963,3012.56 2.5,2847.5C 2.5,2833.83 2.5,2820.17 2.5,2806.5C 8.84258,2750.97 29.3426,2701.3 64,2657.5C 82.3333,2636.5 100.667,2615.5 119,2594.5C 132.445,2577.05 145.111,2559.05 157,2540.5C 204.733,2460.98 236.066,2375.31 251,2283.5C 255.732,2270.64 260.066,2257.64 264,2244.5C 285.488,2164.61 295.988,2083.28 295.5,2000.5C 294.483,1889.21 279.316,1779.88 250,1672.5C 227.535,1598.77 204.869,1525.11 182,1451.5C 158.724,1373 138.724,1293.67 122,1213.5C 104.555,1129.71 96.2213,1045.05 97,959.5C 98.2837,840.331 130.284,730.331 193,629.5C 207.072,605.902 224.572,585.069 245.5,567C 260.831,554.333 278.164,545.333 297.5,540C 340.279,534.306 372.445,550.139 394,587.5C 407.978,616.677 412.645,647.344 408,679.5C 397.746,738.366 389.579,797.532 383.5,857C 375.909,920.624 372.742,984.458 374,1048.5C 374.671,1057.2 375.671,1065.87 377,1074.5C 386,1123.84 399.667,1171.84 418,1218.5C 440.116,1271.4 462.783,1324.07 486,1376.5C 511.049,1436.31 531.715,1497.65 548,1560.5C 561.511,1612.21 575.177,1663.88 589,1715.5C 596.137,1740.91 604.47,1765.91 614,1790.5C 618.473,1800.78 623.473,1810.78 629,1820.5C 633.744,1828.58 639.91,1835.41 647.5,1841C 675.227,1849.98 699.727,1844.48 721,1824.5C 738.121,1802.84 748.455,1778.17 752,1750.5C 773.669,1589.43 780.002,1427.77 771,1265.5C 767.446,1207.29 759.779,1149.62 748,1092.5C 727.231,992.653 707.231,892.653 688,792.5C 683.132,765.293 679.132,737.959 676,710.5C 674.605,695.522 674.272,680.522 675,665.5C 675.952,634.688 683.619,605.688 698,578.5C 717.305,547.768 745.139,534.601 781.5,539C 812.266,544.553 839.932,556.886 864.5,576C 896.818,602.518 924.651,633.018 948,667.5C 971.023,702.863 992.023,739.53 1011,777.5C 1039.17,825.842 1066.84,874.508 1094,923.5C 1158.75,1045.76 1201.09,1175.43 1221,1312.5C 1230.84,1385.94 1238.51,1459.6 1244,1533.5C 1263.08,1782.32 1279.41,2031.32 1293,2280.5C 1308.06,2331.35 1323.73,2382.02 1340,2432.5C 1356.7,2485.92 1375.36,2538.59 1396,2590.5C 1421.15,2640.47 1445.48,2690.8 1469,2741.5C 1492.74,2793.39 1513.74,2846.39 1532,2900.5C 1538.17,2926.55 1544,2952.55 1549.5,2978.5 Z"/></g>
<g><path style="opacity:1" fill="#fefefe" d="M 306.5,567.5 C 338.441,567.23 360.607,581.897 373,611.5C 380.049,630.562 382.382,650.229 380,670.5C 366.786,745.373 356.786,820.706 350,896.5C 346.994,935.458 344.827,974.458 343.5,1013.5C 342.98,1040.79 345.48,1067.79 351,1094.5C 360.353,1139.89 373.353,1184.23 390,1227.5C 412.507,1282.18 435.841,1336.52 460,1390.5C 482.245,1443.9 500.912,1498.57 516,1554.5C 530.157,1607.46 544.157,1660.46 558,1713.5C 567.961,1751.42 581.294,1788.08 598,1823.5C 605.288,1838.22 615.122,1851.06 627.5,1862C 634.663,1867.58 642.663,1871.58 651.5,1874C 701.553,1879.73 738.387,1860.56 762,1816.5C 772.311,1794.23 778.977,1770.9 782,1746.5C 804.819,1571.34 809.819,1395.67 797,1219.5C 793.525,1187.73 789.192,1156.07 784,1124.5C 764.59,1026.78 744.924,929.118 725,831.5C 717.586,793.017 711.253,754.351 706,715.5C 700.503,678.962 703.837,643.295 716,608.5C 728.882,574.475 753.049,561.642 788.5,570C 814.352,577.754 837.352,590.42 857.5,608C 885.325,633.542 909.492,662.042 930,693.5C 950.933,727.691 970.6,762.691 989,798.5C 1027.47,861.767 1063.14,926.767 1096,993.5C 1149.28,1109.69 1183.28,1231.36 1198,1358.5C 1208.12,1451.33 1216.45,1544.33 1223,1637.5C 1238.28,1852.38 1251.78,2067.38 1263.5,2282.5C 936.5,2282.67 609.5,2282.5 282.5,2282C 293.903,2248.89 302.736,2215.06 309,2180.5C 328.908,2059.96 329.574,1939.29 311,1818.5C 300.924,1753.86 286.59,1690.2 268,1627.5C 235.683,1529.22 206.017,1430.22 179,1330.5C 156.576,1247.05 140.576,1162.38 131,1076.5C 125,1014.49 125,952.495 131,890.5C 142.965,787.219 179.965,694.219 242,611.5C 256.319,594.502 273.485,581.335 293.5,572C 297.893,570.329 302.226,568.829 306.5,567.5 Z"/></g>
<g><path style="opacity:1" fill="#fefefe" d="M 275.5,2311.5 C 607.736,2311.17 939.903,2311.5 1272,2312.5C 1298.27,2400.64 1326.93,2487.97 1358,2574.5C 1373.7,2611.89 1391.03,2648.56 1410,2684.5C 1440.39,2747.01 1468.06,2810.68 1493,2875.5C 1505.89,2911.94 1515.22,2949.27 1521,2987.5C 1523.38,3011.28 1518.71,3033.61 1507,3054.5C 1450.52,3144.54 1370.02,3200.7 1265.5,3223C 1182.19,3241.97 1098.19,3245.97 1013.5,3235C 920.793,3220.97 839.46,3183.3 769.5,3122C 762.635,3115.47 756.135,3108.64 750,3101.5C 749.5,3028.83 749.333,2956.17 749.5,2883.5C 739.833,2883.5 730.167,2883.5 720.5,2883.5C 720.667,2955.83 720.5,3028.17 720,3100.5C 678.437,3139.38 631.27,3169.88 578.5,3192C 549.153,3203.72 518.653,3209.88 487,3210.5C 389.44,3204.99 298.274,3178.16 213.5,3130C 137.817,3084.18 84.6508,3019.68 54,2936.5C 37.155,2894.76 29.8216,2851.43 32,2806.5C 36.4837,2767.38 49.4837,2731.38 71,2698.5C 88.0702,2673.42 107.404,2650.08 129,2628.5C 182.066,2565.07 221.732,2493.74 248,2414.5C 259.636,2380.82 268.802,2346.49 275.5,2311.5 Z"/></g>
</svg>
