<?xml version="1.0" encoding="UTF-8"?>
<svg version="1.1" xmlns="http://www.w3.org/2000/svg" width="1421" height="3694">
<path d="M0 0 C468.6 0 937.2 0 1420 0 C1420.29180469 654.96235334 1420.29180469 654.96235334 1420.39452939 909.66354394 C1420.39630044 914.05464899 1420.39807244 918.44575403 1420.39984427 922.83685908 C1420.40020901 923.7408116 1420.40057374 924.64476413 1420.40094953 925.57610916 C1420.42667062 989.32065038 1420.45247568 1053.06519156 1420.47844862 1116.80973267 C1420.48093098 1122.90253236 1420.48341138 1128.99533205 1420.48589008 1135.08813174 C1420.523715 1228.0640044 1420.56255749 1321.03987644 1420.60510254 1414.01574707 C1420.60554641 1414.98579231 1420.60599029 1415.95583755 1420.60644761 1416.9552781 C1420.61717868 1440.40202765 1420.62796854 1463.84877716 1420.63877341 1487.29552668 C1420.6829564 1583.17692459 1420.72688821 1679.05832262 1420.87576344 2052.98234321 C1420.87820656 2059.6272534 1420.88066041 2066.27216359 1420.88311923 2072.91707377 C1420.91747307 2165.78723831 1420.94956796 2258.65740349 1420.8097406 3048.78446981 C1420.80548641 3053.62478911 1420.80126654 3058.46510843 1420.79706775 3063.30542778 C1420.79126229 3069.99718509 1420.78541013 3076.68894235 1420.7795257 3083.38069958 C1420.7774192 3085.7795086 1420.77532182 3088.17831764 1420.77323694 3090.57712668 C1420.59801572 3291.71817504 1420.27971346 3492.8590878 1420 3694 C951.4 3694 482.8 3694 0 3694 C0 2474.98 0 1255.96 0 0 Z M3 3 C3 904.23 3 1805.46 3 2734 C3.33 2734 3.66 2734 4 2734 C4.12677124 2732.73168335 4.12677124 2732.73168335 4.25610352 2731.43774414 C12.45833017 2651.07526023 33.70240789 2573.39630197 59.61230469 2497.09375 C60.89125825 2493.32680279 62.15323337 2489.55430476 63.4140625 2485.78125 C70.38777333 2465.07016024 78.22955213 2444.69426767 86.10675049 2424.31384277 C86.90817548 2422.23785908 87.70672215 2420.16080998 88.50341797 2418.08300781 C100.19665256 2387.62164038 112.9956129 2357.58874562 126.1875 2327.75 C126.58114746 2326.85924774 126.97479492 2325.96849548 127.38037109 2325.05075073 C128.51541597 2322.48584607 129.65339917 2319.92227224 130.79296875 2317.359375 C131.11528976 2316.63277176 131.43761078 2315.90616852 131.7696991 2315.157547 C132.09215103 2314.43492172 132.41460297 2313.71229645 132.74682617 2312.96777344 C133.25459091 2311.80094025 133.25459091 2311.80094025 133.77261353 2310.61053467 C135 2308 135 2308 136.70956421 2305.01690674 C143.34336057 2292.74700525 143.96663345 2280.03827172 145.140625 2266.328125 C145.38947772 2263.66187123 145.64051864 2260.99590715 145.89427185 2258.3301239 C146.50265383 2251.88603061 147.08176859 2245.43963751 147.6508525 2238.99196821 C148.32164732 2231.4063578 149.02331225 2223.82368857 149.72609508 2216.24098623 C151.03192604 2202.1412768 152.30811089 2188.03903126 153.56955612 2173.93528879 C154.88109574 2159.2749326 156.22735694 2144.61797938 157.58085251 2129.96143723 C167.17755551 2025.90587766 175.71997027 1921.72495688 186.90848541 1731.99800873 C186.99819435 1730.03942217 187.08926266 1728.08089802 187.18035889 1726.12237549 C190.44755369 1655.6521469 189.48465554 1586.06160996 181 1516 C180.87967407 1515.00641479 180.75934814 1514.01282959 180.63537598 1512.98913574 C177.27316729 1485.40700468 173.32531814 1457.90602146 169.1953125 1430.4296875 C169.08067909 1429.66623016 168.96604568 1428.90277283 168.84793854 1428.11618042 C164.71057165 1400.5811215 160.29848707 1373.09492653 155.75 1345.625 C155.59321982 1344.67800027 155.43643964 1343.73100055 155.27490854 1342.75530386 C152.85919725 1328.16866112 150.43066753 1313.58415667 148 1299 C145.40993493 1283.45944814 142.82306943 1267.91837624 140.25 1252.375 C140.09365577 1251.43061231 139.93731155 1250.48622462 139.77622962 1249.51321912 C135.28509996 1222.36857356 130.95287475 1195.20422146 126.86328125 1167.99609375 C126.75337482 1167.26607273 126.6434684 1166.53605171 126.53023148 1165.78390884 C124.06105089 1149.37638341 121.69094251 1132.95656045 119.42626953 1116.51953125 C119.32855117 1115.81052229 119.23083282 1115.10151333 119.1301533 1114.37101924 C112.30763873 1064.77258128 106.65066309 1015.01155349 104 965 C103.92901596 963.68509583 103.92901596 963.68509583 103.8565979 962.34362793 C103.02715614 946.60298578 102.79773683 930.88591656 102.8125 915.125 C102.81310425 913.92477203 102.8137085 912.72454407 102.81433105 911.48794556 C102.89503017 852.21296636 112.90241687 798.30512155 137 744 C137.35739258 743.18354004 137.71478516 742.36708008 138.08300781 741.52587891 C146.57699341 722.25835901 157.17065557 703.71326835 170 687 C170.65863037 686.13157471 170.65863037 686.13157471 171.33056641 685.24560547 C194.14782129 655.2084175 224.00695537 630.16134233 262.41796875 624.50390625 C289.72166802 621.12889045 317.48858587 626.89896953 339.83447266 643.35058594 C343.72227231 646.39209815 347.37796384 649.64848936 351 653 C351.73605469 653.66644531 352.47210938 654.33289063 353.23046875 655.01953125 C387.21985994 687.24500194 401.65812594 738.18922506 410.00841331 782.65828323 C414.66382023 807.32027436 420.25080754 831.75805397 425.89885712 856.20817566 C426.97051147 860.85115764 428.03768113 865.49516636 429.10500717 870.1391449 C432.17298743 883.48665239 435.25607259 896.83063284 438.34571075 910.17314148 C439.13234818 913.57181067 439.91746948 916.97082867 440.70242596 920.3698864 C457.14441223 991.55499524 478.10736587 1061.15691801 501.99511719 1130.19726562 C504.24972544 1136.71634951 506.48754984 1143.2411721 508.7265625 1149.765625 C518.2610283 1177.52982826 527.93421756 1205.24051309 537.77033997 1232.89915466 C542.45300677 1246.07537086 547.083274 1259.27008469 551.71633911 1272.46380615 C555.79437348 1284.076749 559.87772233 1295.68724738 564.03125 1307.2734375 C587.5663852 1372.99684068 610.02819677 1439.10492363 628.22070312 1506.52197266 C636.26738171 1536.32085553 644.5960546 1566.08625798 658 1594 C658.43280273 1594.90669434 658.86560547 1595.81338867 659.31152344 1596.74755859 C665.32879326 1609.18867053 672.24260964 1620.30975797 681 1631 C681.44037598 1631.54422607 681.88075195 1632.08845215 682.33447266 1632.64916992 C692.94358638 1645.61653348 708.18582799 1655.09272079 725 1657 C741.20513655 1657.47953975 755.89918023 1653.30261302 768.4375 1642.75 C786.22544737 1625.48694288 789.51269995 1599.15815797 789.99511719 1575.51611328 C790.02145516 1556.55013771 788.32849806 1537.56664356 786.38000488 1518.71780396 C786.25377747 1517.496241 786.25377747 1517.496241 786.125 1516.25 C786.03907593 1515.41943085 785.95315186 1514.58886169 785.86462402 1513.73312378 C784.05195422 1495.9334689 783.10364212 1478.10374916 782.18441772 1460.24131393 C776.99056393 1359.43325962 768.60842625 1257.83389986 736 1117 C735.73336548 1116.14462646 735.46673096 1115.28925293 735.1920166 1114.40795898 C713.29033513 1044.29892432 685.56854156 976.26094669 658.43249512 908.06036377 C618.67524289 808.1388743 618.67524289 808.1388743 602.79821777 764.20458984 C601.99802567 761.99454711 601.1934409 759.7861485 600.38769531 757.578125 C590.80823578 731.29789663 581.49803469 704.69278754 577 677 C576.78005371 675.76032471 576.78005371 675.76032471 576.55566406 674.49560547 C572.36514716 650.5645998 571.45609676 623.7595853 577 600 C577.26683594 598.78570313 577.53367187 597.57140625 577.80859375 596.3203125 C582.31686974 578.32728209 591.69037593 561.97247131 607.6171875 551.9375 C629.03066958 539.67296523 655.48798476 539.22432121 679 545 C680.02287109 545.24943359 680.02287109 545.24943359 681.06640625 545.50390625 C707.27631624 552.11762186 731.04524654 565.49887033 753 581 C754.07241943 581.74999268 754.07241943 581.74999268 755.16650391 582.51513672 C764.13087549 588.80032498 772.80472867 595.27838767 781.06640625 602.46484375 C783.78768602 604.81652228 786.56326291 607.07054223 789.375 609.3125 C795.21691833 614.0627898 800.66366983 619.20257085 806.12890625 624.375 C808.86622272 626.96287244 811.660745 629.47164167 814.484375 631.96484375 C821.09694515 637.89673588 827.34425447 644.19454224 833.61450195 650.48413086 C835.69044426 652.56545189 837.77170422 654.64134813 839.85351562 656.71679688 C841.19823752 658.06217938 842.54264929 659.40787194 843.88671875 660.75390625 C844.49730637 661.36246964 845.10789398 661.97103302 845.73698425 662.59803772 C849.47082071 666.35189612 853.01167604 670.22642275 856.46247864 674.24229431 C858.53330857 676.60968227 860.74717126 678.80645622 863 681 C866.50512932 684.46828862 869.82506695 688.00302627 873.03125 691.74609375 C875.58978647 694.67521189 878.23051997 697.5235535 880.875 700.375 C885.96801166 705.87144197 891.00182216 711.41702622 896 717 C904.12093984 726.05740857 912.32822486 735.03277768 920.58837891 743.96313477 C932.73155986 757.09606021 944.8696812 770.31226169 955.93359375 784.37890625 C957.49441697 786.35870281 959.06914489 788.3220642 960.66015625 790.27734375 C968.77594091 800.27595776 976.47063189 810.55383097 984 821 C984.56976562 821.79003418 985.13953125 822.58006836 985.7265625 823.39404297 C1006.64090351 852.52729025 1025.21304644 883.32283473 1042 915 C1042.56509277 916.05783691 1043.13018555 917.11567383 1043.71240234 918.20556641 C1069.17717076 965.9908781 1089.72752375 1016.3680614 1106 1068 C1106.20113403 1068.63544739 1106.40226807 1069.27089478 1106.60949707 1069.92559814 C1132.37788924 1151.46889845 1147.18825798 1235.86711252 1154.25 1321 C1154.36569839 1322.34665741 1154.36569839 1322.34665741 1154.48373413 1323.72052002 C1158.30225815 1368.87387737 1158.22540263 1414.16815229 1157.97924805 1459.44177246 C1157.72864151 1506.56938896 1158.27962036 1553.66632539 1161.75 1600.6875 C1161.83236908 1601.8411908 1161.91473816 1602.99488159 1161.99960327 1604.18353271 C1165.42354464 1651.95690667 1170.68254669 1699.5292606 1177 1747 C1177.14826233 1748.12184692 1177.29652466 1749.24369385 1177.44927979 1750.39953613 C1188.12062544 1831.12350137 1202.22579395 1911.3285025 1257.4754715 2167.82794952 C1257.998556 2169.99402044 1258.52084812 2172.16028097 1259.04290771 2174.32659912 C1263.63176641 2193.36426991 1268.30281668 2212.37977145 1273.08703613 2231.36932373 C1273.95850955 2234.83500072 1274.82320488 2238.30230364 1275.68652344 2241.77001953 C1285.30530418 2280.25615335 1297.93977891 2317.57833166 1311 2355 C1311.35773499 2356.02623474 1311.71546997 2357.05246948 1312.08404541 2358.10980225 C1314.69243645 2365.59153963 1317.3072579 2373.0709955 1319.93725586 2380.54516602 C1326.63830502 2399.63516335 1333.04620404 2418.82542109 1339.5 2438 C1348.1539594 2463.71036118 1356.85118216 2489.39957832 1365.88549805 2514.97943115 C1367.40434445 2519.28538332 1368.89249088 2523.60042773 1370.35546875 2527.92578125 C1373.3778373 2536.84654062 1376.58032911 2545.56391638 1380.375 2554.1875 C1398.64912757 2595.74225709 1409.54826447 2640.18890159 1416 2685 C1416.33 2685 1416.66 2685 1417 2685 C1417 1799.94 1417 914.88 1417 3 C950.38 3 483.76 3 3 3 Z M3 2795 C3 3090.68 3 3386.36 3 3691 C469.62 3691 936.24 3691 1417 3691 C1417 3398.62 1417 3106.24 1417 2805 C1416.67 2805 1416.34 2805 1416 2805 C1415.78234985 2806.25768188 1415.78234985 2806.25768188 1415.56030273 2807.54077148 C1412.32679311 2826.01347061 1408.57215843 2844.06239867 1403 2862 C1402.72043457 2862.91281738 1402.44086914 2863.82563477 1402.15283203 2864.76611328 C1397.98732524 2878.24504155 1392.81816183 2891.15504955 1387 2904 C1386.61473145 2904.86093262 1386.22946289 2905.72186523 1385.83251953 2906.60888672 C1374.2099207 2932.44387629 1359.12065816 2956.49264956 1341.24804688 2978.46386719 C1340.05728832 2979.92948785 1338.87985085 2981.40590149 1337.703125 2982.8828125 C1332.5322629 2989.31888554 1327.04518785 2995.42146074 1321.42480469 3001.46191406 C1319.97512681 3003.02685077 1318.53675341 3004.60146073 1317.1015625 3006.1796875 C1310.41525154 3013.53155774 1303.68466666 3020.64512429 1296.14453125 3027.1328125 C1293.84892571 3029.13153645 1291.615204 3031.18945229 1289.375 3033.25 C1283.7186027 3038.35201839 1277.75679009 3043.01422314 1271.72753906 3047.66210938 C1270.15072202 3048.88327351 1268.58638219 3050.12050546 1267.0234375 3051.359375 C1250.95234579 3063.9957479 1234.00004213 3075.38326491 1216.32714844 3085.64599609 C1214.05708792 3086.96678456 1211.7967062 3088.30264865 1209.5390625 3089.64453125 C1187.40516786 3102.78637495 1165.04774908 3115.67406598 1141 3125 C1140.07268066 3125.36335449 1139.14536133 3125.72670898 1138.18994141 3126.10107422 C1111.45325987 3136.4728721 1083.55151403 3143.26190227 1055 3146 C1053.82050781 3146.1134375 1052.64101562 3146.226875 1051.42578125 3146.34375 C955.65452484 3153.79837753 866.48580383 3115.62811373 779 3082 C777.86244263 3081.56302795 776.72488525 3081.12605591 775.55285645 3080.67584229 C745.34096201 3069.0695761 715.16557891 3057.37087168 685.03515625 3045.5546875 C684.26170364 3045.25151108 683.48825104 3044.94833466 682.69136047 3044.63597107 C681.95282333 3044.34601761 681.21428619 3044.05606415 680.45336914 3043.75732422 C679.73110138 3043.47741638 679.00883362 3043.19750854 678.26467896 3042.90911865 C676.63901694 3042.25652299 675.02786562 3041.56733291 673.42745972 3040.8550415 C666.91281796 3037.98083025 666.91281796 3037.98083025 660 3039 C657.34346543 3040.16471517 657.34346543 3040.16471517 654.75390625 3041.703125 C653.76398682 3042.26451172 652.77406738 3042.82589844 651.75415039 3043.40429688 C650.70090576 3044.01337891 649.64766113 3044.62246094 648.5625 3045.25 C647.45575928 3045.87970703 646.34901855 3046.50941406 645.20874023 3047.15820312 C641.80143305 3049.09788537 638.40057968 3051.04855363 635 3053 C631.19091828 3055.17271611 627.37783631 3057.33828808 623.5625 3059.5 C622.63131348 3060.02811279 621.70012695 3060.55622559 620.74072266 3061.1003418 C611.33511559 3066.41379469 601.82082228 3071.51985368 592.296875 3076.6171875 C588.44008481 3078.68290947 584.59428757 3080.76542379 580.765625 3082.8828125 C493.71569723 3131.0220266 403.82447285 3158.05875788 298 3131 C275.06060993 3124.24527194 253.14273755 3115.14182647 232 3104 C231.16645996 3103.56461914 230.33291992 3103.12923828 229.47412109 3102.68066406 C216.44267072 3095.84472412 204.05364297 3088.43813464 192 3080 C191.37158203 3079.56445801 190.74316406 3079.12891602 190.09570312 3078.68017578 C172.77082911 3066.65723093 156.54383952 3053.23880952 141 3039 C140.47873535 3038.52385254 139.9574707 3038.04770508 139.42041016 3037.55712891 C131.28161891 3030.11763584 123.2633451 3022.71602785 116.06640625 3014.34375 C114.01953158 3012.02215302 111.91102744 3009.76651917 109.7890625 3007.51367188 C104.02049237 3001.3717552 98.71420769 2995.00103365 93.578125 2988.32421875 C91.31324022 2985.38070739 88.95345415 2982.52998327 86.5625 2979.6875 C76.33647465 2967.23763312 67.60004365 2953.59982912 59 2940 C57.95392578 2938.35451172 57.95392578 2938.35451172 56.88671875 2936.67578125 C51.23463529 2927.64830527 46.0245733 2918.38821341 41 2909 C40.5575293 2908.17387207 40.11505859 2907.34774414 39.65917969 2906.49658203 C21.31239527 2871.88637191 8.59669308 2833.96898015 4 2795 C3.67 2795 3.34 2795 3 2795 Z " fill="#FEFEFE" transform="translate(0,0)"/>
<path d="M0 0 C0.72266973 0.00250888 1.44533946 0.00501775 2.18990828 0.00760266 C2.95505642 0.00632457 3.72020456 0.00504649 4.50853901 0.00372967 C7.11059067 0.00063094 9.71258331 0.00475167 12.31463308 0.00875333 C14.19176956 0.00801463 16.06890591 0.00683707 17.94604186 0.00525683 C23.15332536 0.00216641 28.36058956 0.00538052 33.56787163 0.00953496 C39.21438711 0.01295107 44.86090051 0.01060184 50.50741638 0.00895747 C60.41982523 0.0068774 70.33222809 0.00853826 80.24463625 0.01259568 C90.88548247 0.01693922 101.52632617 0.01916906 112.1671731 0.01869347 C113.17361852 0.01865044 113.17361852 0.01865044 114.20039618 0.01860653 C117.62137071 0.01845016 121.04234524 0.01825821 124.46331978 0.01805369 C149.25345522 0.01664451 174.04358812 0.02008285 198.83372278 0.0260711 C223.39166943 0.03198911 247.94961499 0.03584529 272.50756235 0.03692391 C273.26961552 0.03695832 274.03166869 0.03699274 274.81681438 0.03702819 C281.7767703 0.03734138 288.73672622 0.03762907 295.69668215 0.03788616 C313.00006203 0.03852565 330.30344188 0.03948502 347.60682173 0.04066136 C348.39486879 0.04071468 349.18291586 0.040768 349.99484314 0.04082293 C388.34943589 0.04344585 426.70402793 0.04975398 465.05862017 0.0563617 C478.37219845 0.05865332 491.68577673 0.06092866 504.99935503 0.0631366 C505.82503965 0.06327355 506.65072427 0.0634105 507.50142963 0.0635516 C545.86957201 0.06989309 584.2377145 0.07362044 622.60585726 0.0766714 C625.09606948 0.07686946 627.5862817 0.07706866 630.07649391 0.07726808 C646.57895421 0.07858783 663.0814145 0.07986249 679.5838748 0.08110694 C712.42101148 0.08358358 745.25814814 0.08632527 778.09528479 0.08924898 C779.65915292 0.08938822 781.22302106 0.08952728 782.78688919 0.08966615 C859.79241105 0.09650578 936.79793227 0.10715998 1095.01247759 0.13180115 C1095.65356915 1.71638137 1096.29285004 3.30169423 1096.93137712 4.88730958 C1097.46567071 6.21142145 1097.46567071 6.21142145 1098.01075811 7.56228307 C1099.32114077 10.92355537 1100.38705176 14.29848353 1101.43044634 17.7528949 C1101.85691948 19.14629799 1102.28452362 20.53935533 1102.71316118 21.93209412 C1102.92793108 22.63082642 1103.14270098 23.32955872 1103.36397905 24.04946473 C1105.25693607 30.12777197 1107.30463344 36.15744303 1109.32497759 42.19430115 C1109.57714037 42.94857392 1109.82930315 43.70284669 1110.08910723 44.4799762 C1111.76176638 49.48120196 1113.43977766 54.4806142 1115.12063188 59.47909119 C1115.71821331 61.25654013 1116.31537716 63.03412951 1116.91213579 64.81185487 C1126.73871948 94.08485523 1136.98491696 123.19068186 1147.45603533 152.23887208 C1151.31844296 162.96262106 1155.1310299 173.70378956 1158.93127031 184.44970277 C1159.99955437 187.47026094 1161.06900215 190.49040491 1162.13869829 193.51046326 C1164.93776143 201.41620878 1167.73429241 209.32270106 1170.49813433 217.24084046 C1171.48424209 220.06482207 1172.47448134 222.88734619 1173.46511431 225.70974305 C1174.09878406 227.52118951 1174.72577174 229.33496949 1175.35232134 231.148891 C1177.46176773 237.15710935 1179.78433062 243.00350871 1182.37575884 248.8153949 C1186.30940167 257.64117263 1189.73998802 266.62764731 1193.07497759 275.69430115 C1193.38062639 276.52196992 1193.6862752 277.34963868 1194.00118608 278.20238831 C1198.56750284 290.6141578 1202.52702711 303.00103454 1205.4861104 315.90377381 C1206.22936926 319.04986861 1207.12637091 322.14833894 1208.01247759 325.25680115 C1213.92606003 347.58057488 1217.53768539 370.20308613 1220.01247759 393.13180115 C1220.11850298 394.03954285 1220.22452837 394.94728455 1220.33376665 395.88253358 C1221.32942212 405.61832015 1221.16273366 415.4088084 1221.14284868 425.18380311 C1221.1375196 428.29477461 1221.14280276 431.40559984 1221.14919634 434.51656678 C1221.15649981 450.98770994 1220.54690594 467.11759715 1218.19997759 483.44430115 C1218.02184526 484.69557801 1217.84371294 485.94685487 1217.66018267 487.2360492 C1215.04577589 505.17970574 1211.0864151 522.23598426 1205.78493853 539.57955506 C1205.16267585 541.63553927 1204.57094699 543.70075148 1203.98904009 545.7685199 C1192.92438858 584.59631075 1171.02208921 621.67939131 1145.34402056 652.523891 C1144.0518424 654.08426601 1142.78368033 655.66443248 1141.51638384 657.2450824 C1137.77483446 661.90782269 1133.97658489 666.31886191 1129.67654009 670.4716449 C1127.93959946 672.20450821 1126.3540243 674.01493949 1124.76247759 675.88180115 C1117.81003088 683.92789116 1110.109794 691.25328496 1102.01247759 698.13180115 C1101.01989946 699.00191834 1100.02732134 699.87203553 1099.00466509 700.7685199 C1089.98776495 708.65025085 1080.61695921 715.9818687 1071.01247759 723.13180115 C1070.27980669 723.68013612 1069.54713579 724.22847108 1068.79226274 724.79342225 C1058.64055312 732.36550796 1048.25174471 739.28331246 1037.35720415 745.7372699 C1034.91829441 747.1878168 1032.49178765 748.65750936 1030.06716509 750.13180115 C1019.89569248 756.30462899 1009.63296367 762.27153284 999.17849321 767.95260194 C997.04005618 769.11678711 994.9091656 770.29403015 992.77810259 771.4716449 C983.14179571 776.74153517 973.28711495 781.15275627 963.11013384 785.27242615 C960.28646402 786.42923688 957.4968543 787.66188685 954.69997759 788.88180115 C948.29025196 791.54143835 941.70118053 793.31884676 935.01247759 795.13180115 C933.63917426 795.53497277 932.26680434 795.94133478 930.89529009 796.35055115 C919.08540661 799.83204667 907.17154538 802.22250081 895.01247759 804.13180115 C893.96551714 804.31130311 892.91855669 804.49080506 891.83987017 804.67574647 C879.94588212 806.52711836 868.08798842 806.52802556 856.07497759 806.50680115 C854.42081835 806.50648392 854.42081835 806.50648392 852.73324175 806.50616029 C834.18376732 806.47074451 816.29713137 805.39197939 798.01247759 802.13180115 C796.94577837 801.94456483 795.87907915 801.7573285 794.78005571 801.56441834 C787.80297769 800.3027918 780.90304926 798.79958283 774.01247759 797.13180115 C772.54342974 796.7789203 772.54342974 796.7789203 771.04470415 796.41891053 C688.35359558 776.18001473 608.18886357 739.6956652 529.17165728 708.67647889 C527.81908579 708.14572251 527.81908579 708.14572251 526.43918962 707.60424378 C524.78497228 706.95492154 523.13096955 706.3050521 521.47724504 705.65447572 C520.73855684 705.36444672 519.99986864 705.07441773 519.23879595 704.77559998 C518.61129946 704.52885026 517.98380297 704.28210053 517.33729143 704.02787354 C513.90494241 702.70491463 510.45674892 701.4234029 507.01247759 700.13180115 C507.01247759 643.37180115 507.01247759 586.61180115 507.01247759 528.13180115 C497.44247759 528.13180115 487.87247759 528.13180115 478.01247759 528.13180115 C478.01247759 585.22180115 478.01247759 642.31180115 478.01247759 701.13180115 C469.10247759 706.08180115 460.19247759 711.03180115 451.01247759 716.13180115 C447.15560259 718.31805115 443.29872759 720.50430115 439.32497759 722.75680115 C429.58415074 728.27570236 419.76743231 733.63925241 409.91091509 738.9482074 C405.18732762 741.49257019 400.4799939 744.06515119 395.77785845 746.648891 C361.94223185 765.21248923 327.59930078 783.44826063 290.01247759 793.13180115 C288.8639229 793.45535584 287.71536821 793.77891053 286.53200884 794.1122699 C273.89984471 797.52884487 260.97407098 799.41743206 248.01247759 801.13180115 C247.35292574 801.21907471 246.69337389 801.30634827 246.01383562 801.39626649 C240.0881992 802.12338676 234.21734872 802.33789729 228.25075884 802.40523865 C227.2342676 802.41767609 226.21777635 802.43011353 225.17048235 802.44292786 C202.496991 802.66668191 181.18640804 802.11428595 159.01247759 797.13180115 C157.3482014 796.8007607 155.68290767 796.47477162 154.01638384 796.15523865 C133.15134373 792.0342475 113.40943755 784.71901532 94.01247759 776.13180115 C93.24242388 775.79567811 92.47237017 775.45955506 91.67898149 775.11324647 C74.32396975 767.49551331 57.4836987 758.08035049 42.01247759 747.13180115 C40.63273363 746.17410054 39.25248425 745.21712785 37.87185259 744.2607074 C24.93649725 735.26115065 12.91876903 725.43648486 1.01247759 715.13180115 C0.26997759 714.49242615 -0.47252241 713.85305115 -1.23752241 713.19430115 C-14.24023645 701.92528232 -27.21902298 690.19604671 -38.35470991 677.04586365 C-40.32668576 674.73421733 -42.3759665 672.50034373 -44.42502241 670.25680115 C-48.82649916 665.37205415 -52.94694095 660.31708768 -56.98752241 655.13180115 C-58.12640913 653.68547303 -58.12640913 653.68547303 -59.28830366 652.20992615 C-91.06050073 611.46854427 -117.53851656 565.27500817 -130.98752241 515.13180115 C-131.2698271 514.17016053 -131.55213179 513.2085199 -131.84299116 512.21773865 C-134.14248417 504.30374749 -135.65345784 496.25468714 -136.98752241 488.13180115 C-137.19635054 486.87109803 -137.40517866 485.6103949 -137.62033491 484.31148865 C-139.55035937 470.63821678 -139.24761143 456.91037514 -138.98752241 443.13180115 C-138.97350386 442.23590272 -138.9594853 441.34000428 -138.94504194 440.4169574 C-138.65699706 425.56928274 -136.61951732 410.89956075 -134.55685835 396.21285584 C-134.18454895 393.56103686 -133.82518021 390.9085357 -133.47287397 388.25387147 C-126.12918595 332.92954232 -111.46636092 278.13519981 -93.99533491 225.1903949 C-93.03400168 222.27286033 -92.08326168 219.35199227 -91.13364058 216.43062928 C-76.01121852 169.99233918 -58.95535108 124.13593333 -39.98752241 79.13180115 C-39.07469369 76.95604856 -38.16193205 74.78026782 -37.24924116 72.6044574 C-28.47875764 51.74544293 -19.57639922 30.93088853 -10.23752241 10.31930115 C-9.81914106 9.39407655 -9.40075972 8.46885194 -8.96970015 7.51559022 C-8.58886274 6.68124451 -8.20802534 5.84689881 -7.81564741 4.9872699 C-7.31919722 3.89901917 -7.31919722 3.89901917 -6.81271772 2.78878358 C-5.16995799 -0.50985852 -3.51192391 0.01271644 0 0 Z " fill="#FEFEFE" transform="translate(169.98752241232432,2311.8681988453027)"/>
<path d="M0 0 C468.6 0 937.2 0 1420 0 C1420.29180469 654.96235334 1420.29180469 654.96235334 1420.39452939 909.66354394 C1420.39630044 914.05464899 1420.39807244 918.44575403 1420.39984427 922.83685908 C1420.40020901 923.7408116 1420.40057374 924.64476413 1420.40094953 925.57610916 C1420.42667062 989.32065038 1420.45247568 1053.06519156 1420.47844862 1116.80973267 C1420.48093098 1122.90253236 1420.48341138 1128.99533205 1420.48589008 1135.08813174 C1420.523715 1228.0640044 1420.56255749 1321.03987644 1420.60510254 1414.01574707 C1420.60554641 1414.98579231 1420.60599029 1415.95583755 1420.60644761 1416.9552781 C1420.61717868 1440.40202765 1420.62796854 1463.84877716 1420.63877341 1487.29552668 C1420.6829564 1583.17692459 1420.72688821 1679.05832262 1420.87576344 2052.98234321 C1420.87820656 2059.6272534 1420.88066041 2066.27216359 1420.88311923 2072.91707377 C1420.91747307 2165.78723831 1420.94956796 2258.65740349 1420.8097406 3048.78446981 C1420.80548641 3053.62478911 1420.80126654 3058.46510843 1420.79706775 3063.30542778 C1420.79126229 3069.99718509 1420.78541013 3076.68894235 1420.7795257 3083.38069958 C1420.7774192 3085.7795086 1420.77532182 3088.17831764 1420.77323694 3090.57712668 C1420.59801572 3291.71817504 1420.27971346 3492.8590878 1420 3694 C951.4 3694 482.8 3694 0 3694 C0 2474.98 0 1255.96 0 0 Z M3 3 C3 904.23 3 1805.46 3 2734 C3.33 2734 3.66 2734 4 2734 C4.12677124 2732.73168335 4.12677124 2732.73168335 4.25610352 2731.43774414 C12.45833017 2651.07526023 33.70240789 2573.39630197 59.61230469 2497.09375 C60.89125825 2493.32680279 62.15323337 2489.55430476 63.4140625 2485.78125 C70.38777333 2465.07016024 78.22955213 2444.69426767 86.10675049 2424.31384277 C86.90817548 2422.23785908 87.70672215 2420.16080998 88.50341797 2418.08300781 C100.19665256 2387.62164038 112.9956129 2357.58874562 126.1875 2327.75 C126.58114746 2326.85924774 126.97479492 2325.96849548 127.38037109 2325.05075073 C128.51541597 2322.48584607 129.65339917 2319.92227224 130.79296875 2317.359375 C131.11528976 2316.63277176 131.43761078 2315.90616852 131.7696991 2315.157547 C132.09215103 2314.43492172 132.41460297 2313.71229645 132.74682617 2312.96777344 C133.25459091 2311.80094025 133.25459091 2311.80094025 133.77261353 2310.61053467 C135 2308 135 2308 136.70956421 2305.01690674 C143.34336057 2292.74700525 143.96663345 2280.03827172 145.140625 2266.328125 C145.38947772 2263.66187123 145.64051864 2260.99590715 145.89427185 2258.3301239 C146.50265383 2251.88603061 147.08176859 2245.43963751 147.6508525 2238.99196821 C148.32164732 2231.4063578 149.02331225 2223.82368857 149.72609508 2216.24098623 C151.03192604 2202.1412768 152.30811089 2188.03903126 153.56955612 2173.93528879 C154.88109574 2159.2749326 156.22735694 2144.61797938 157.58085251 2129.96143723 C167.17755551 2025.90587766 175.71997027 1921.72495688 186.90848541 1731.99800873 C186.99819435 1730.03942217 187.08926266 1728.08089802 187.18035889 1726.12237549 C190.44755369 1655.6521469 189.48465554 1586.06160996 181 1516 C180.87967407 1515.00641479 180.75934814 1514.01282959 180.63537598 1512.98913574 C177.27316729 1485.40700468 173.32531814 1457.90602146 169.1953125 1430.4296875 C169.08067909 1429.66623016 168.96604568 1428.90277283 168.84793854 1428.11618042 C164.71057165 1400.5811215 160.29848707 1373.09492653 155.75 1345.625 C155.59321982 1344.67800027 155.43643964 1343.73100055 155.27490854 1342.75530386 C152.85919725 1328.16866112 150.43066753 1313.58415667 148 1299 C145.40993493 1283.45944814 142.82306943 1267.91837624 140.25 1252.375 C140.09365577 1251.43061231 139.93731155 1250.48622462 139.77622962 1249.51321912 C135.28509996 1222.36857356 130.95287475 1195.20422146 126.86328125 1167.99609375 C126.75337482 1167.26607273 126.6434684 1166.53605171 126.53023148 1165.78390884 C124.06105089 1149.37638341 121.69094251 1132.95656045 119.42626953 1116.51953125 C119.32855117 1115.81052229 119.23083282 1115.10151333 119.1301533 1114.37101924 C112.30763873 1064.77258128 106.65066309 1015.01155349 104 965 C103.92901596 963.68509583 103.92901596 963.68509583 103.8565979 962.34362793 C103.02715614 946.60298578 102.79773683 930.88591656 102.8125 915.125 C102.81310425 913.92477203 102.8137085 912.72454407 102.81433105 911.48794556 C102.89503017 852.21296636 112.90241687 798.30512155 137 744 C137.35739258 743.18354004 137.71478516 742.36708008 138.08300781 741.52587891 C146.57699341 722.25835901 157.17065557 703.71326835 170 687 C170.65863037 686.13157471 170.65863037 686.13157471 171.33056641 685.24560547 C194.14782129 655.2084175 224.00695537 630.16134233 262.41796875 624.50390625 C289.72166802 621.12889045 317.48858587 626.89896953 339.83447266 643.35058594 C343.72227231 646.39209815 347.37796384 649.64848936 351 653 C351.73605469 653.66644531 352.47210938 654.33289063 353.23046875 655.01953125 C387.21985994 687.24500194 401.65812594 738.18922506 410.00841331 782.65828323 C414.66382023 807.32027436 420.25080754 831.75805397 425.89885712 856.20817566 C426.97051147 860.85115764 428.03768113 865.49516636 429.10500717 870.1391449 C432.17298743 883.48665239 435.25607259 896.83063284 438.34571075 910.17314148 C439.13234818 913.57181067 439.91746948 916.97082867 440.70242596 920.3698864 C457.14441223 991.55499524 478.10736587 1061.15691801 501.99511719 1130.19726562 C504.24972544 1136.71634951 506.48754984 1143.2411721 508.7265625 1149.765625 C518.2610283 1177.52982826 527.93421756 1205.24051309 537.77033997 1232.89915466 C542.45300677 1246.07537086 547.083274 1259.27008469 551.71633911 1272.46380615 C555.79437348 1284.076749 559.87772233 1295.68724738 564.03125 1307.2734375 C587.5663852 1372.99684068 610.02819677 1439.10492363 628.22070312 1506.52197266 C636.26738171 1536.32085553 644.5960546 1566.08625798 658 1594 C658.43280273 1594.90669434 658.86560547 1595.81338867 659.31152344 1596.74755859 C665.32879326 1609.18867053 672.24260964 1620.30975797 681 1631 C681.44037598 1631.54422607 681.88075195 1632.08845215 682.33447266 1632.64916992 C692.94358638 1645.61653348 708.18582799 1655.09272079 725 1657 C741.20513655 1657.47953975 755.89918023 1653.30261302 768.4375 1642.75 C786.22544737 1625.48694288 789.51269995 1599.15815797 789.99511719 1575.51611328 C790.02145516 1556.55013771 788.32849806 1537.56664356 786.38000488 1518.71780396 C786.25377747 1517.496241 786.25377747 1517.496241 786.125 1516.25 C786.03907593 1515.41943085 785.95315186 1514.58886169 785.86462402 1513.73312378 C784.05195422 1495.9334689 783.10364212 1478.10374916 782.18441772 1460.24131393 C776.99056393 1359.43325962 768.60842625 1257.83389986 736 1117 C735.73336548 1116.14462646 735.46673096 1115.28925293 735.1920166 1114.40795898 C713.29033513 1044.29892432 685.56854156 976.26094669 658.43249512 908.06036377 C618.67524289 808.1388743 618.67524289 808.1388743 602.79821777 764.20458984 C601.99802567 761.99454711 601.1934409 759.7861485 600.38769531 757.578125 C590.80823578 731.29789663 581.49803469 704.69278754 577 677 C576.78005371 675.76032471 576.78005371 675.76032471 576.55566406 674.49560547 C572.36514716 650.5645998 571.45609676 623.7595853 577 600 C577.26683594 598.78570313 577.53367187 597.57140625 577.80859375 596.3203125 C582.31686974 578.32728209 591.69037593 561.97247131 607.6171875 551.9375 C629.03066958 539.67296523 655.48798476 539.22432121 679 545 C680.02287109 545.24943359 680.02287109 545.24943359 681.06640625 545.50390625 C707.27631624 552.11762186 731.04524654 565.49887033 753 581 C754.07241943 581.74999268 754.07241943 581.74999268 755.16650391 582.51513672 C764.13087549 588.80032498 772.80472867 595.27838767 781.06640625 602.46484375 C783.78768602 604.81652228 786.56326291 607.07054223 789.375 609.3125 C795.21691833 614.0627898 800.66366983 619.20257085 806.12890625 624.375 C808.86622272 626.96287244 811.660745 629.47164167 814.484375 631.96484375 C821.09694515 637.89673588 827.34425447 644.19454224 833.61450195 650.48413086 C835.69044426 652.56545189 837.77170422 654.64134813 839.85351562 656.71679688 C841.19823752 658.06217938 842.54264929 659.40787194 843.88671875 660.75390625 C844.49730637 661.36246964 845.10789398 661.97103302 845.73698425 662.59803772 C849.47082071 666.35189612 853.01167604 670.22642275 856.46247864 674.24229431 C858.53330857 676.60968227 860.74717126 678.80645622 863 681 C866.50512932 684.46828862 869.82506695 688.00302627 873.03125 691.74609375 C875.58978647 694.67521189 878.23051997 697.5235535 880.875 700.375 C885.96801166 705.87144197 891.00182216 711.41702622 896 717 C904.12093984 726.05740857 912.32822486 735.03277768 920.58837891 743.96313477 C932.73155986 757.09606021 944.8696812 770.31226169 955.93359375 784.37890625 C957.49441697 786.35870281 959.06914489 788.3220642 960.66015625 790.27734375 C968.77594091 800.27595776 976.47063189 810.55383097 984 821 C984.56976562 821.79003418 985.13953125 822.58006836 985.7265625 823.39404297 C1006.64090351 852.52729025 1025.21304644 883.32283473 1042 915 C1042.56509277 916.05783691 1043.13018555 917.11567383 1043.71240234 918.20556641 C1069.17717076 965.9908781 1089.72752375 1016.3680614 1106 1068 C1106.20113403 1068.63544739 1106.40226807 1069.27089478 1106.60949707 1069.92559814 C1132.37788924 1151.46889845 1147.18825798 1235.86711252 1154.25 1321 C1154.36569839 1322.34665741 1154.36569839 1322.34665741 1154.48373413 1323.72052002 C1158.30225815 1368.87387737 1158.22540263 1414.16815229 1157.97924805 1459.44177246 C1157.72864151 1506.56938896 1158.27962036 1553.66632539 1161.75 1600.6875 C1161.83236908 1601.8411908 1161.91473816 1602.99488159 1161.99960327 1604.18353271 C1165.42354464 1651.95690667 1170.68254669 1699.5292606 1177 1747 C1177.14826233 1748.12184692 1177.29652466 1749.24369385 1177.44927979 1750.39953613 C1188.12062544 1831.12350137 1202.22579395 1911.3285025 1257.4754715 2167.82794952 C1257.998556 2169.99402044 1258.52084812 2172.16028097 1259.04290771 2174.32659912 C1263.63176641 2193.36426991 1268.30281668 2212.37977145 1273.08703613 2231.36932373 C1273.95850955 2234.83500072 1274.82320488 2238.30230364 1275.68652344 2241.77001953 C1285.30530418 2280.25615335 1297.93977891 2317.57833166 1311 2355 C1311.35773499 2356.02623474 1311.71546997 2357.05246948 1312.08404541 2358.10980225 C1314.69243645 2365.59153963 1317.3072579 2373.0709955 1319.93725586 2380.54516602 C1326.63830502 2399.63516335 1333.04620404 2418.82542109 1339.5 2438 C1348.1539594 2463.71036118 1356.85118216 2489.39957832 1365.88549805 2514.97943115 C1367.40434445 2519.28538332 1368.89249088 2523.60042773 1370.35546875 2527.92578125 C1373.3778373 2536.84654062 1376.58032911 2545.56391638 1380.375 2554.1875 C1398.64912757 2595.74225709 1409.54826447 2640.18890159 1416 2685 C1416.33 2685 1416.66 2685 1417 2685 C1417 1799.94 1417 914.88 1417 3 C950.38 3 483.76 3 3 3 Z M630 573 C628.88431641 573.45246094 628.88431641 573.45246094 627.74609375 573.9140625 C623.31642336 575.9208745 620.24496681 578.31652417 617 582 C616.175 582.886875 615.35 583.77375 614.5 584.6875 C598.94012831 604.00320279 600.4993984 633.83970126 602.6875 657.0625 C611.6014199 739.35249175 655.145104 822.44923171 685.40032005 898.59284401 C746.13556546 1051.44660021 746.13556546 1051.44660021 762 1104 C762.29068359 1104.95583984 762.58136719 1105.91167969 762.88085938 1106.89648438 C767.09780775 1120.8241028 770.84234008 1134.79538084 774 1149 C774.23041992 1150.03012207 774.46083984 1151.06024414 774.69824219 1152.12158203 C777.75172421 1165.85002089 780.56608326 1179.62077518 783.1875 1193.4375 C783.42525146 1194.67862549 783.66300293 1195.91975098 783.90795898 1197.19848633 C785.76999084 1207.16951376 787.22274349 1217.17871318 788.61343384 1227.22457886 C788.99552462 1229.9678682 789.38631542 1232.70977256 789.7800293 1235.45141602 C796.89287807 1285.0812629 802.15357239 1335.01047918 806 1385 C806.09087891 1386.15274414 806.18175781 1387.30548828 806.27539062 1388.49316406 C808.21869128 1413.20383964 809.74748137 1437.93297223 810.875 1462.6932373 C811.72764416 1481.41227371 812.91697598 1500.04900872 814.75048828 1518.70043945 C824.77675407 1621.15082458 824.77675407 1621.15082458 798 1655.4375 C796.68436061 1656.97366561 795.35226639 1658.49597626 794 1660 C793.47019531 1660.62261719 792.94039062 1661.24523438 792.39453125 1661.88671875 C782.21013268 1673.07698385 766.51515726 1679.71973847 752 1683 C750.75476563 1683.309375 750.75476563 1683.309375 749.484375 1683.625 C725.15164028 1688.74768099 703.15201345 1683.90635579 682.19140625 1671.3125 C649.10915542 1649.29295385 631.76220926 1609.80233841 618.95214844 1573.67871094 C618.08160917 1571.2295938 617.19017645 1568.78955866 616.2890625 1566.3515625 C612.8994486 1557.10076312 610.14106298 1547.74680062 607.60009766 1538.23095703 C606.82974769 1535.36706039 606.03014871 1532.51179347 605.22949219 1529.65625 C603.58557476 1523.79232482 601.97392197 1517.92100966 600.41015625 1512.03515625 C590.78430372 1475.82453993 579.50356467 1440.11965179 567.61787415 1404.59587479 C566.86017468 1402.33067867 566.10350263 1400.06514143 565.3470459 1397.79953003 C557.71757579 1374.95512037 549.95533347 1352.16271173 541.92675781 1329.45507812 C539.76251255 1323.33257553 537.61182865 1317.20532917 535.4609375 1311.078125 C528.2232994 1290.46779864 520.95874017 1269.86717106 513.65533447 1249.28005981 C491.76766532 1187.56710176 470.14840306 1125.76611134 450.08509827 1063.43144226 C448.5162023 1058.56589251 446.90437598 1053.71615083 445.2734375 1048.87109375 C443.56946465 1043.77923394 441.99133416 1038.69142225 440.625 1033.5 C439.33659893 1028.72367652 438.0116548 1023.96986139 436.515625 1019.25390625 C427.81403601 991.80268566 421.10683559 963.65727587 414.80712891 935.56982422 C413.84757286 931.32583496 412.86864538 927.08651624 411.88671875 922.84765625 C411.69869186 922.03585907 411.51066498 921.22406189 411.31694031 920.38766479 C410.92868793 918.7115641 410.54041763 917.03546756 410.15213013 915.359375 C406.92460437 901.41825449 403.73495187 887.46919395 400.59619141 873.5078125 C399.07904932 866.76340243 397.54981812 860.02212261 396 853.28515625 C384.83037231 804.72831633 384.83037231 804.72831633 381.9375 786.5 C375.12502305 743.97415534 358.90775017 692.992718 322.515625 666.359375 C304.39467106 653.85190895 283.76777265 649.53962514 262.15234375 653.3125 C248.36186428 656.32008908 236.20565285 662.51907111 225 671 C224.18917969 671.60585938 223.37835938 672.21171875 222.54296875 672.8359375 C180.07120816 705.60942205 155.07126258 763.09714263 141.61669922 813.68212891 C141.17409713 815.34565393 140.72140813 817.00650761 140.26220703 818.66552734 C135.51448554 835.96813881 133.30801362 853.12781026 132 871 C131.85751831 872.80440552 131.85751831 872.80440552 131.7121582 874.64526367 C130.85792436 886.48836165 130.80114233 898.31747067 130.8125 910.1875 C130.81277191 911.26235657 130.81304382 912.33721313 130.81332397 913.44464111 C130.83539112 932.55691045 131.52690506 951.54169323 132.83856201 970.60467529 C133.06769061 974.0043546 133.27850913 977.4051149 133.49084473 980.80587769 C135.02672376 1005.28055857 137.19187466 1029.63951268 140 1054 C140.08121094 1054.7101123 140.16242188 1055.42022461 140.24609375 1056.15185547 C142.32107359 1074.2953788 144.68445659 1092.39251554 147.24975586 1110.47314453 C147.45046941 1111.88963267 147.65107345 1113.30613632 147.8515625 1114.72265625 C147.94850906 1115.40718872 148.04545563 1116.09172119 148.14533997 1116.79699707 C149.02174214 1123.04180755 149.79512526 1129.29760133 150.54833984 1135.55834961 C150.94289106 1138.56482991 151.42559291 1141.52355378 152 1144.5 C153.10590371 1150.23687551 153.7718492 1156.01182878 154.4375 1161.8125 C154.80747532 1164.77234676 155.29725061 1167.68778695 155.85083008 1170.61865234 C157.19650421 1177.952512 158.35943902 1185.31414921 159.5328083 1192.67710114 C160.11404301 1196.32293329 160.69844285 1199.96825628 161.28262615 1203.61361694 C161.59626136 1205.57077263 161.90978219 1207.52794664 162.22319508 1209.48513794 C168.62607656 1249.4694524 175.20602714 1289.42037461 181.98706055 1329.34228516 C184.64335914 1344.98323251 187.29312222 1360.62464965 189.83203125 1376.28515625 C190.03108063 1377.50693573 190.23013 1378.72871521 190.43521118 1379.98751831 C191.61668891 1387.33070333 192.65032061 1394.68119684 193.5625 1402.0625 C194.43032388 1409.01376893 195.48516025 1415.8719063 196.8125 1422.75 C203.53860423 1458.32325515 207.22654826 1494.57850035 211.17285156 1530.53857422 C211.69310073 1535.27204992 212.23230499 1540.0024517 212.79589844 1544.73095703 C220.29398116 1608.01444192 218.14078396 1672.53364084 215.13604736 1736.07806396 C214.96150151 1739.82684532 214.80149219 1743.57617802 214.6415863 1747.3256073 C213.77834533 1767.44533648 212.55634909 1787.53413797 211.16503906 1807.6237793 C210.52019984 1816.96917033 209.90931689 1826.31292641 209.421875 1835.66796875 C207.26599215 1876.53975388 203.78382404 1917.30941053 200.45397949 1958.09877014 C199.48522533 1969.97306 198.53231451 1981.84832061 197.61328125 1993.7265625 C194.42583927 2034.85031133 190.75458178 2075.92484755 187 2117 C186.8878717 2118.22724792 186.77574341 2119.45449585 186.66021729 2120.71893311 C186.45699853 2122.94304292 186.25373891 2125.16714901 186.0504303 2127.39125061 C185.86560846 2129.41356841 185.6809027 2131.43589682 185.49632263 2133.45823669 C185.10982499 2137.69267433 184.72237124 2141.92700642 184.32983398 2146.16088867 C183.63753174 2153.67559227 182.97996156 2161.19208012 182.37182617 2168.71411133 C180.45840816 2192.31772996 178.18742142 2215.87624068 175.8125 2239.4375 C175.17257772 2245.79162436 174.53468571 2252.14594441 173.90064049 2258.50065804 C173.65009267 2261.00304813 173.39653576 2263.50512073 173.14277649 2266.00718689 C172.9906349 2267.52748247 172.83862451 2269.04779119 172.68676758 2270.56811523 C172.6166748 2271.25099106 172.54658203 2271.93386688 172.47436523 2272.63743591 C172.12845385 2276.1328916 172 2279.47309493 172 2283 C530.05 2283 888.1 2283 1257 2283 C1253.92473104 2269.80151634 1253.92473104 2269.80151634 1250.5625 2256.6875 C1248.80869028 2250.1195643 1247.12789141 2243.53773214 1245.5 2236.9375 C1243.9639445 2230.71492003 1242.32534284 2224.53688922 1240.5625 2218.375 C1238.23179084 2210.17327553 1236.32349797 2201.89421461 1234.44165039 2193.57958984 C1232.574489 2185.37444959 1230.57811481 2177.20693165 1228.51748657 2169.04879761 C1223.12185009 2147.68676097 1218.23654393 2126.23235777 1213.61627197 2104.69058228 C1210.85163342 2091.80331936 1207.96917929 2078.94719274 1204.96533203 2066.11352539 C1199.25428875 2041.58239735 1194.51000505 2016.81974793 1189.5625 1992.125 C1189.42169006 1991.42254276 1189.28088013 1990.72008553 1189.13580322 1989.99634171 C1184.72816174 1968.00018269 1180.50252724 1945.98334373 1176.67480469 1923.87792969 C1175.87065583 1919.25669218 1175.0390793 1914.64073751 1174.20458984 1910.02490234 C1171.7413299 1896.37217518 1169.36066945 1882.70439514 1166.98065186 1869.03695679 C1166.58364653 1866.75944731 1166.1856121 1864.48211693 1165.78643799 1862.20498657 C1163.53118546 1849.33086568 1161.43520442 1836.45646148 1159.63671875 1823.51049805 C1158.86686055 1817.98769216 1157.94164892 1812.49570542 1157 1807 C1145.33224946 1736.76053003 1138.08877134 1665.70816678 1133.18817139 1594.70458984 C1133.01499438 1592.21551437 1132.83727581 1589.72683227 1132.65673828 1587.23828125 C1132.57758934 1586.14356506 1132.57758934 1586.14356506 1132.49684143 1585.0267334 C1132.36173543 1583.16296981 1132.22595111 1581.29925542 1132.09008789 1579.43554688 C1131.32677906 1568.25944226 1130.80312967 1557.08016364 1130.46240234 1545.88354492 C1130.44104052 1545.18238505 1130.4196787 1544.48122517 1130.39766955 1543.75881803 C1129.92754757 1527.99699583 1129.83452758 1512.23862401 1129.80076981 1496.47075844 C1129.78971296 1491.44411221 1129.76938979 1486.41752485 1129.74765015 1481.39091492 C1129.68693801 1467.12383739 1129.63219733 1452.85676917 1129.59863281 1438.58959961 C1129.53298072 1381.80832004 1129.53298072 1381.80832004 1126.18977356 1325.14331436 C1126.00735402 1323.08305676 1125.83321496 1321.02230438 1125.66271973 1318.96102905 C1125.03828466 1311.44466975 1124.33299292 1303.94016999 1123.5625 1296.4375 C1123.45672638 1295.38330872 1123.35095276 1294.32911743 1123.24197388 1293.24298096 C1121.55427567 1276.43138796 1119.58975457 1259.69899299 1117 1243 C1116.84708496 1241.98647461 1116.69416992 1240.97294922 1116.53662109 1239.92871094 C1112.17218333 1211.03216948 1106.71534346 1182.43785335 1100 1154 C1099.72623535 1152.83339844 1099.4524707 1151.66679688 1099.17041016 1150.46484375 C1094.42090453 1130.26005031 1089.01653046 1110.35888643 1083.04248047 1090.48144531 C1082.07126617 1087.23799898 1081.11446018 1083.99064016 1080.16015625 1080.7421875 C1067.22193977 1037.15572727 1049.82712256 994.87989928 1030 954 C1029.27804443 952.50049805 1029.27804443 952.50049805 1028.54150391 950.97070312 C1022.04780321 937.52481605 1014.90963254 924.51032481 1007.46777344 911.56835938 C1006.17130749 909.29975962 1004.89494505 907.0221955 1003.6328125 904.734375 C993.99668371 887.26875553 983.25495586 870.46173712 972 854 C971.46294434 853.21302734 970.92588867 852.42605469 970.37255859 851.61523438 C958.82678609 834.75645246 946.75481234 818.24557153 933.3828125 802.78125 C931.14677198 800.17131418 929.00029824 797.51287894 926.875 794.8125 C922.79856534 789.67336954 918.42329738 784.84058958 914 780 C912.54051752 778.37603202 911.08218936 776.75102592 909.625 775.125 C902.48222744 767.18996151 895.24376393 759.34273149 888 751.5 C871.82681564 733.98603352 871.82681564 733.98603352 867.5625 729.0625 C863.97725178 724.92699785 860.25515727 720.9225618 856.53442383 716.90942383 C853.57578263 713.71574395 850.64589529 710.50094759 847.75 707.25 C838.23937707 696.65392554 828.43798205 686.32618375 818.30395508 676.32543945 C815.55515844 673.60082705 812.92731517 670.83764065 810.4375 667.875 C807.11728302 663.96159289 803.35659874 660.57284325 799.55151367 657.14501953 C796.35774167 654.26377414 793.26939211 651.31640686 790.25 648.25 C787.07251043 645.03858705 783.82596441 641.99204843 780.39453125 639.0546875 C778.50104069 637.42993051 776.62795011 635.78846995 774.76171875 634.1328125 C766.14932638 626.52624698 757.25838058 619.40498932 748.04931641 612.53466797 C746.11993578 611.08981609 744.20519949 609.62758661 742.29296875 608.16015625 C716.84465187 588.81199117 684.45707842 569.48135943 651.5625 569.6875 C650.64380127 569.69168945 649.72510254 569.69587891 648.77856445 569.70019531 C642.15016142 569.81061975 636.18234457 570.45752438 630 573 Z M165 2312 C163.87322716 2314.24575037 162.74729518 2316.49191571 161.62184143 2318.73832703 C161.30430861 2319.37098087 160.98677579 2320.00363471 160.65962076 2320.65545988 C158.51083723 2324.94658752 156.46171763 2329.25335681 154.52734375 2333.64453125 C154.24272278 2334.28865967 153.95810181 2334.93278809 153.66485596 2335.59643555 C152.75171235 2337.66671464 151.84413048 2339.73936119 150.9375 2341.8125 C150.61641266 2342.54431488 150.29532532 2343.27612976 149.96450806 2344.03012085 C147.63132631 2349.3483576 145.31196367 2354.67250853 143 2360 C142.70375732 2360.6820752 142.40751465 2361.36415039 142.10229492 2362.06689453 C115.54670626 2423.26378816 90.72141662 2485.94948701 71.89355469 2549.99121094 C70.87847476 2553.40920138 69.83494095 2556.81787254 68.7890625 2560.2265625 C64.59212494 2573.94118799 60.70057524 2587.68169107 57.328125 2601.625 C56.17459752 2606.37285222 54.86319166 2611.05901692 53.5 2615.75 C50.31396727 2626.8754621 48.07050876 2638.22043948 45.72314453 2649.54589844 C45.0619049 2652.7043111 44.37840969 2655.85664575 43.68359375 2659.0078125 C36.8215483 2690.40606236 31.7303685 2722.84113882 31 2755 C30.97276855 2756.06476562 30.94553711 2757.12953125 30.91748047 2758.2265625 C29.33379642 2828.82500633 59.90754578 2894.97419776 101 2951 C102.05574219 2952.4540625 102.05574219 2952.4540625 103.1328125 2953.9375 C112.38771006 2966.50503617 122.40553213 2978.54255121 133 2990 C133.90817702 2990.99943248 134.81568914 2991.99946942 135.72265625 2993 C145.60321006 3003.85771517 155.75323491 3014.54295521 167 3024 C168.02326988 3024.88540934 169.0452874 3025.77226704 170.06640625 3026.66015625 C183.47761538 3038.29685912 197.16460351 3049.22508402 212 3059 C212.70543945 3059.46873535 213.41087891 3059.9374707 214.13769531 3060.42041016 C239.84003484 3077.41155407 267.60789784 3091.58237554 297 3101 C297.97710937 3101.3196875 298.95421875 3101.639375 299.9609375 3101.96875 C308.07459183 3104.45293058 316.3391301 3106.25466372 324.625 3108.0625 C325.73762207 3108.30798584 326.85024414 3108.55347168 327.99658203 3108.80639648 C331.65582896 3109.58671168 335.32240817 3110.31260793 339 3111 C339.72106934 3111.13664062 340.44213867 3111.27328125 341.18505859 3111.4140625 C354.33144092 3113.83730732 367.19925662 3114.47074411 380.55273438 3114.39111328 C383.73351368 3114.37508309 386.91300966 3114.39103651 390.09375 3114.41015625 C418.81281504 3114.43906161 446.63999415 3109.56262056 474 3101 C474.81936035 3100.74379883 475.6387207 3100.48759766 476.48291016 3100.22363281 C489.82371606 3095.97313419 502.43117477 3090.38655185 515.06884766 3084.38769531 C517.84487726 3083.07343975 520.62950283 3081.77980114 523.41796875 3080.4921875 C533.35763226 3075.87307474 543.04166178 3070.90630344 552.6315918 3065.59960938 C559.17925625 3061.97644145 565.786489 3058.49176894 572.4375 3055.0625 C582.07285921 3050.07580752 591.52606322 3044.81233094 600.94921875 3039.4375 C608.70766072 3035.0151238 616.52396482 3030.69722203 624.33886719 3026.37573242 C632.26759471 3021.98440923 640.12854208 3017.49797596 648 3013 C648 2955.91 648 2898.82 648 2840 C657.57 2840 667.14 2840 677 2840 C677 2896.76 677 2953.52 677 3012 C808.42390967 3066.41751353 808.42390967 3066.41751353 944 3109 C945.44197754 3109.34901367 945.44197754 3109.34901367 946.91308594 3109.70507812 C953.90459548 3111.36263966 960.92339052 3112.75785193 968 3114 C969.10794922 3114.19754883 970.21589844 3114.39509766 971.35742188 3114.59863281 C1003.83145593 3120.13171558 1040.43545283 3121.84493623 1072.70751953 3114.51708984 C1074.8909025 3114.02460793 1077.07450568 3113.60214757 1079.27734375 3113.20703125 C1087.97921036 3111.60800805 1096.4946467 3109.42508007 1105 3107 C1106.2065625 3106.66484375 1107.413125 3106.3296875 1108.65625 3105.984375 C1126.07324915 3100.87442897 1142.8894792 3093.50228523 1158.94482422 3085.0703125 C1161.17253311 3083.91014669 1163.41518261 3082.78262244 1165.66015625 3081.65625 C1204.89709412 3061.7755379 1242.05814715 3036.77859557 1274.60546875 3007.17578125 C1276.22415471 3005.70496873 1277.85205971 3004.24424845 1279.48828125 3002.79296875 C1287.53563242 2995.64672067 1295.25178726 2988.22464935 1302.2421875 2980.03125 C1303.4705868 2978.61176636 1304.72855828 2977.21757943 1306.0078125 2975.84375 C1312.44918192 2968.91754632 1318.05239661 2961.47313246 1323.63671875 2953.85546875 C1324.80041759 2952.27163795 1325.97702254 2950.69730327 1327.15625 2949.125 C1342.5401248 2928.44503715 1355.17782305 2905.81717417 1365 2882 C1365.3604541 2881.14680176 1365.7209082 2880.29360352 1366.09228516 2879.41455078 C1372.07466348 2865.19907405 1376.52252183 2850.86616323 1380.25146484 2835.90722656 C1380.95171876 2833.18751894 1381.73613504 2830.50561492 1382.53125 2827.8125 C1384.60689035 2820.25754971 1385.54605822 2812.49514209 1386.625 2804.75 C1386.84311278 2803.22126312 1387.06185908 2801.69261648 1387.28125 2800.1640625 C1387.68308275 2797.35697754 1388.081545 2794.54946863 1388.47509766 2791.74121094 C1388.81457034 2789.32163909 1389.16667194 2786.90379094 1389.53393555 2784.48828125 C1395.26718176 2741.5775312 1391.22647189 2696.09931574 1382 2654 C1381.69642578 2652.56962402 1381.69642578 2652.56962402 1381.38671875 2651.11035156 C1377.02955089 2630.58246877 1371.18715444 2610.70693292 1364 2591 C1363.61263672 2589.9284668 1363.22527344 2588.85693359 1362.82617188 2587.75292969 C1361.55806197 2584.24925515 1360.28062734 2580.74911731 1359 2577.25 C1358.4136377 2575.63617432 1358.4136377 2575.63617432 1357.81542969 2573.98974609 C1355.89893327 2568.79916945 1353.89096807 2563.69676903 1351.60089111 2558.65834045 C1346.82880705 2548.12720101 1343.14656015 2537.26338445 1339.43914795 2526.32034302 C1337.3688537 2520.21322469 1335.2740428 2514.11452585 1333.1796875 2508.015625 C1332.85795752 2507.07780276 1332.85795752 2507.07780276 1332.52972794 2506.12103462 C1327.93223473 2492.72462124 1323.17477277 2479.38757463 1318.375 2466.0625 C1317.58415409 2463.86444735 1316.79338252 2461.66636795 1316.00268555 2459.46826172 C1314.82696445 2456.20030643 1313.65112948 2452.93239245 1312.47483826 2449.66464233 C1302.48302259 2421.89936595 1292.58068823 2394.1128422 1283.34390259 2366.08618164 C1283.11568817 2365.39387451 1282.88747375 2364.70156738 1282.65234375 2363.98828125 C1282.31691055 2362.97060669 1282.31691055 2362.97060669 1281.97470093 2361.93237305 C1279.74805134 2355.19870254 1277.40936721 2348.50510768 1275.0625 2341.8125 C1272.27839888 2333.87031048 1269.66427114 2325.91477325 1267.40649414 2317.8059082 C1266.70671143 2314.64005183 1266.70671143 2314.64005183 1265 2312 C1262.59812248 2311.90079417 1260.2249926 2311.86746106 1257.82256931 2311.8758015 C1256.6748471 2311.87388437 1256.6748471 2311.87388437 1255.50393858 2311.87192852 C1252.90188692 2311.86882978 1250.29989428 2311.87295051 1247.69784451 2311.87695217 C1245.82070803 2311.87621348 1243.94357168 2311.87503591 1242.06643572 2311.87345567 C1236.85915223 2311.87036525 1231.65188803 2311.87357937 1226.44460596 2311.87773381 C1220.79809048 2311.88114992 1215.15157707 2311.87880068 1209.50506121 2311.87715632 C1199.59265236 2311.87507624 1189.6802495 2311.8767371 1179.76784134 2311.88079453 C1169.12699512 2311.88513807 1158.48615142 2311.88736791 1147.84530449 2311.88689232 C1147.17434087 2311.88686363 1146.50337726 2311.88683493 1145.81208141 2311.88680537 C1142.39110688 2311.88664901 1138.97013234 2311.88645706 1135.54915781 2311.88625254 C1110.75902236 2311.88484336 1085.96888947 2311.88828169 1061.17875481 2311.89426994 C1036.62080816 2311.90018796 1012.0628626 2311.90404414 987.50491524 2311.90512276 C986.74286207 2311.90515717 985.9808089 2311.90519158 985.19566321 2311.90522704 C978.23570729 2311.90554023 971.27575136 2311.90582792 964.31579544 2311.90608501 C947.01241556 2311.90672449 929.70903571 2311.90768387 912.40565586 2311.90886021 C911.61760879 2311.90891352 910.82956173 2311.90896684 910.01763445 2311.90902177 C871.66304169 2311.91164469 833.30844966 2311.91795282 794.95385742 2311.92456055 C781.64027914 2311.92685216 768.32670085 2311.9291275 755.01312256 2311.93133545 C754.18743794 2311.9314724 753.36175332 2311.93160935 752.51104795 2311.93175045 C714.14290558 2311.93809194 675.77476308 2311.94181928 637.40662032 2311.94487024 C634.91640811 2311.94506831 632.42619589 2311.9452675 629.93598368 2311.94546692 C613.43352338 2311.94678668 596.93106309 2311.94806133 580.42860279 2311.94930578 C547.59146611 2311.95178243 514.75432945 2311.95452412 481.9171928 2311.95744783 C480.35332467 2311.95758707 478.78945653 2311.95772612 477.22558839 2311.95786499 C400.22006654 2311.96470462 323.21454532 2311.97535883 165 2312 Z M3 2795 C3 3090.68 3 3386.36 3 3691 C469.62 3691 936.24 3691 1417 3691 C1417 3398.62 1417 3106.24 1417 2805 C1416.67 2805 1416.34 2805 1416 2805 C1415.78234985 2806.25768188 1415.78234985 2806.25768188 1415.56030273 2807.54077148 C1412.32679311 2826.01347061 1408.57215843 2844.06239867 1403 2862 C1402.72043457 2862.91281738 1402.44086914 2863.82563477 1402.15283203 2864.76611328 C1397.98732524 2878.24504155 1392.81816183 2891.15504955 1387 2904 C1386.61473145 2904.86093262 1386.22946289 2905.72186523 1385.83251953 2906.60888672 C1374.2099207 2932.44387629 1359.12065816 2956.49264956 1341.24804688 2978.46386719 C1340.05728832 2979.92948785 1338.87985085 2981.40590149 1337.703125 2982.8828125 C1332.5322629 2989.31888554 1327.04518785 2995.42146074 1321.42480469 3001.46191406 C1319.97512681 3003.02685077 1318.53675341 3004.60146073 1317.1015625 3006.1796875 C1310.41525154 3013.53155774 1303.68466666 3020.64512429 1296.14453125 3027.1328125 C1293.84892571 3029.13153645 1291.615204 3031.18945229 1289.375 3033.25 C1283.7186027 3038.35201839 1277.75679009 3043.01422314 1271.72753906 3047.66210938 C1270.15072202 3048.88327351 1268.58638219 3050.12050546 1267.0234375 3051.359375 C1250.95234579 3063.9957479 1234.00004213 3075.38326491 1216.32714844 3085.64599609 C1214.05708792 3086.96678456 1211.7967062 3088.30264865 1209.5390625 3089.64453125 C1187.40516786 3102.78637495 1165.04774908 3115.67406598 1141 3125 C1140.07268066 3125.36335449 1139.14536133 3125.72670898 1138.18994141 3126.10107422 C1111.45325987 3136.4728721 1083.55151403 3143.26190227 1055 3146 C1053.82050781 3146.1134375 1052.64101562 3146.226875 1051.42578125 3146.34375 C955.65452484 3153.79837753 866.48580383 3115.62811373 779 3082 C777.86244263 3081.56302795 776.72488525 3081.12605591 775.55285645 3080.67584229 C745.34096201 3069.0695761 715.16557891 3057.37087168 685.03515625 3045.5546875 C684.26170364 3045.25151108 683.48825104 3044.94833466 682.69136047 3044.63597107 C681.95282333 3044.34601761 681.21428619 3044.05606415 680.45336914 3043.75732422 C679.73110138 3043.47741638 679.00883362 3043.19750854 678.26467896 3042.90911865 C676.63901694 3042.25652299 675.02786562 3041.56733291 673.42745972 3040.8550415 C666.91281796 3037.98083025 666.91281796 3037.98083025 660 3039 C657.34346543 3040.16471517 657.34346543 3040.16471517 654.75390625 3041.703125 C653.76398682 3042.26451172 652.77406738 3042.82589844 651.75415039 3043.40429688 C650.70090576 3044.01337891 649.64766113 3044.62246094 648.5625 3045.25 C647.45575928 3045.87970703 646.34901855 3046.50941406 645.20874023 3047.15820312 C641.80143305 3049.09788537 638.40057968 3051.04855363 635 3053 C631.19091828 3055.17271611 627.37783631 3057.33828808 623.5625 3059.5 C622.63131348 3060.02811279 621.70012695 3060.55622559 620.74072266 3061.1003418 C611.33511559 3066.41379469 601.82082228 3071.51985368 592.296875 3076.6171875 C588.44008481 3078.68290947 584.59428757 3080.76542379 580.765625 3082.8828125 C493.71569723 3131.0220266 403.82447285 3158.05875788 298 3131 C275.06060993 3124.24527194 253.14273755 3115.14182647 232 3104 C231.16645996 3103.56461914 230.33291992 3103.12923828 229.47412109 3102.68066406 C216.44267072 3095.84472412 204.05364297 3088.43813464 192 3080 C191.37158203 3079.56445801 190.74316406 3079.12891602 190.09570312 3078.68017578 C172.77082911 3066.65723093 156.54383952 3053.23880952 141 3039 C140.47873535 3038.52385254 139.9574707 3038.04770508 139.42041016 3037.55712891 C131.28161891 3030.11763584 123.2633451 3022.71602785 116.06640625 3014.34375 C114.01953158 3012.02215302 111.91102744 3009.76651917 109.7890625 3007.51367188 C104.02049237 3001.3717552 98.71420769 2995.00103365 93.578125 2988.32421875 C91.31324022 2985.38070739 88.95345415 2982.52998327 86.5625 2979.6875 C76.33647465 2967.23763312 67.60004365 2953.59982912 59 2940 C57.95392578 2938.35451172 57.95392578 2938.35451172 56.88671875 2936.67578125 C51.23463529 2927.64830527 46.0245733 2918.38821341 41 2909 C40.5575293 2908.17387207 40.11505859 2907.34774414 39.65917969 2906.49658203 C21.31239527 2871.88637191 8.59669308 2833.96898015 4 2795 C3.67 2795 3.34 2795 3 2795 Z " fill="#010101" transform="translate(0,0)"/>
<path d="M0 0 C468.6 0 937.2 0 1420 0 C1420 895.95 1420 1791.9 1420 2715 C1419.67 2715 1419.34 2715 1419 2715 C1417.49561333 2701.33232186 1416.7101779 2687.88266971 1416.75160301 2674.13706082 C1416.74986638 2672.22236923 1416.74725292 2670.30767827 1416.74385703 2668.3929889 C1416.73709026 2663.16569123 1416.74263987 2657.93847073 1416.7503251 2652.71117707 C1416.75648995 2646.99021686 1416.75092644 2641.26926537 1416.74691135 2635.54830489 C1416.74145504 2625.49453507 1416.74341142 2615.44078797 1416.75023364 2605.3870193 C1416.75755877 2594.54956721 1416.760541 2583.71212771 1416.75820221 2572.87467328 C1416.75798325 2571.84146388 1416.75798325 2571.84146388 1416.75775987 2570.78738157 C1416.7569948 2567.27003123 1416.7561596 2563.75268091 1416.75530048 2560.23533059 C1416.74918509 2534.58336758 1416.75289633 2508.93141323 1416.76158905 2483.27945137 C1416.77036497 2457.28578463 1416.77475208 2431.29212255 1416.77378464 2405.29845428 C1416.77375606 2404.47818394 1416.77372748 2403.65791359 1416.77369803 2402.81278657 C1416.77343451 2395.29539731 1416.77312229 2387.77800805 1416.77275202 2380.26061879 C1416.77182593 2361.41160801 1416.77156076 2342.56259725 1416.77173448 2323.71358645 C1416.77174197 2322.84993092 1416.77174947 2321.98627538 1416.77175719 2321.09644847 C1416.77218538 2278.53677821 1416.78011961 2235.97710971 1416.78853989 2193.41744041 C1416.7914983 2178.43814017 1416.79442101 2163.45883991 1416.79721212 2148.47953963 C1416.79738566 2147.54835486 1416.79755919 2146.61717009 1416.79773798 2145.65776759 C1416.80573563 2102.50739364 1416.8085961 2059.35701981 1416.81014406 2016.2066452 C1416.81024558 2013.38391749 1416.81034952 2010.56118978 1416.81045407 2007.73846206 C1416.81108227 1990.71718516 1416.81165701 1973.69590826 1416.81217002 1956.67463136 C1416.81344764 1914.36143539 1416.81536652 1872.04823945 1416.81772041 1829.73504353 C1416.81777368 1828.77180583 1416.81782695 1827.80856814 1416.81788183 1826.81614142 C1416.8213364 1764.43967645 1416.82743064 1702.06321207 1416.83573723 1639.68674755 C1416.83586981 1638.69101395 1416.83600238 1637.69528034 1416.83613898 1636.669373 C1416.84018028 1606.35910099 1416.84441707 1576.04882902 1416.84869212 1545.73855705 C1416.85342211 1512.19659501 1416.85811874 1478.65463296 1416.8626709 1445.1126709 C1416.8628079 1444.10403834 1416.8629449 1443.09540578 1416.86308605 1442.05620859 C1416.87595014 1347.26621335 1416.88355169 1252.47621793 1416.88973654 1157.68622204 C1416.89013714 1151.55101246 1416.89054215 1145.41580288 1416.89094801 1139.2805933 C1416.89517563 1075.34283711 1416.8991496 1011.4050809 1416.90301356 947.46732469 C1416.90306899 946.55039818 1416.90312443 945.63347167 1416.90318154 944.68875951 C1416.903438 940.44607688 1416.90369417 936.20339425 1416.9039495 931.96071161 C1416.92264092 622.30713885 1416.96296674 312.65357213 1417 3 C950.38 3 483.76 3 3 3 C3 1220.04 3 2437.08 3 3691 C469.62 3691 936.24 3691 1417 3691 C1416.9207882 3397.40002076 1416.9207882 3397.40002076 1416.81982422 3103.80004883 C1416.81079102 3047.08337402 1416.81079102 3047.08337402 1416.80911255 3020.55253601 C1416.80712227 3000.75387875 1416.79849458 2980.95523513 1416.78665315 2961.15658169 C1416.77473862 2940.9625915 1416.77032871 2920.76860992 1416.7731101 2900.57461635 C1416.77454372 2888.57175226 1416.77058009 2876.56892022 1416.75838481 2864.56606206 C1416.75087192 2856.63250305 1416.75066927 2848.69896529 1416.75632932 2840.76540481 C1416.75934313 2836.25206827 1416.75926719 2831.73879315 1416.75023484 2827.22546327 C1416.71715065 2809.7226656 1416.74562057 2792.39443976 1419 2775 C1419.33 2775 1419.66 2775 1420 2775 C1420 3078.27 1420 3381.54 1420 3694 C951.4 3694 482.8 3694 0 3694 C0 2474.98 0 1255.96 0 0 Z " fill="#FDFDFD" transform="translate(0,0)"/>
</svg>
