<?xml version="1.0" encoding="UTF-8"?>
<!DOCTYPE svg PUBLIC "-//W3C//DTD SVG 1.1//EN" "http://www.w3.org/Graphics/SVG/1.1/DTD/svg11.dtd">
<svg xmlns="http://www.w3.org/2000/svg" version="1.1" width="1421px" height="3694px" style="shape-rendering:geometricPrecision; text-rendering:geometricPrecision; image-rendering:optimizeQuality; fill-rule:evenodd; clip-rule:evenodd" xmlns:xlink="http://www.w3.org/1999/xlink">
<g><path style="opacity:0.667" fill="#fdfdfd" d="M -0.5,-0.5 C 472.833,-0.5 946.167,-0.5 1419.5,-0.5C 1419.5,904.833 1419.5,1810.17 1419.5,2715.5C 1417.52,2705.4 1416.52,2695.07 1416.5,2684.5C 1416.5,1790.5 1416.5,896.5 1416.5,2.5C 945.167,2.5 473.833,2.5 2.5,2.5C 2.5,912.833 2.5,1823.17 2.5,2733.5C 1.16667,2754.17 1.16667,2774.83 2.5,2795.5C 2.5,3093.83 2.5,3392.17 2.5,3690.5C 473.833,3690.5 945.167,3690.5 1416.5,3690.5C 1416.5,3395.17 1416.5,3099.83 1416.5,2804.5C 1416.52,2793.6 1417.52,2782.93 1419.5,2772.5C 1419.5,3079.5 1419.5,3386.5 1419.5,3693.5C 946.167,3693.5 472.833,3693.5 -0.5,3693.5C -0.5,2462.17 -0.5,1230.83 -0.5,-0.5 Z M 2.5,2795.5 C 9.29864,2839.72 23.7986,2881.39 46,2920.5C 89.0191,2995.85 147.852,3055.69 222.5,3100C 313.282,3150.28 407.282,3157.28 504.5,3121C 527.02,3111.41 549.02,3100.74 570.5,3089C 601.5,3071.83 632.5,3054.67 663.5,3037.5C 733.168,3065.17 803.168,3092 873.5,3118C 914.514,3133.5 956.847,3143.17 1000.5,3147C 1053.02,3150.83 1103.35,3142.16 1151.5,3121C 1197.69,3099.09 1240.69,3072.43 1280.5,3041C 1355.17,2979.17 1400.5,2900.34 1416.5,2804.5C 1416.5,3099.83 1416.5,3395.17 1416.5,3690.5C 945.167,3690.5 473.833,3690.5 2.5,3690.5C 2.5,3392.17 2.5,3093.83 2.5,2795.5 Z"/></g>
<g><path style="opacity:0.982" fill="#000000" d="M 1416.5,2684.5 C 1416.52,2695.07 1417.52,2705.4 1419.5,2715.5C 1419.18,2722.35 1419.51,2729.02 1420.5,2735.5C 1420.5,2742.5 1420.5,2749.5 1420.5,2756.5C 1419.51,2761.64 1419.18,2766.97 1419.5,2772.5C 1417.52,2782.93 1416.52,2793.6 1416.5,2804.5C 1400.5,2900.34 1355.17,2979.17 1280.5,3041C 1240.69,3072.43 1197.69,3099.09 1151.5,3121C 1103.35,3142.16 1053.02,3150.83 1000.5,3147C 956.847,3143.17 914.514,3133.5 873.5,3118C 803.168,3092 733.168,3065.17 663.5,3037.5C 632.5,3054.67 601.5,3071.83 570.5,3089C 549.02,3100.74 527.02,3111.41 504.5,3121C 407.282,3157.28 313.282,3150.28 222.5,3100C 147.852,3055.69 89.0191,2995.85 46,2920.5C 23.7986,2881.39 9.29864,2839.72 2.5,2795.5C 1.16667,2774.83 1.16667,2754.17 2.5,2733.5C 9.92832,2670.43 23.095,2608.43 42,2547.5C 70.8641,2455.12 106.364,2365.45 148.5,2278.5C 188.147,2245.35 227.647,2212.02 267,2178.5C 261.526,2167.61 255.86,2156.61 250,2145.5C 235.911,2116.23 241.744,2092.07 267.5,2073C 283.542,2063.15 300.542,2055.32 318.5,2049.5C 320.005,2013.17 320.339,1976.84 319.5,1940.5C 281.758,1934.73 254.592,1914.73 238,1880.5C 224.046,1835.91 238.88,1805.41 282.5,1789C 295.535,1784.99 308.868,1782.83 322.5,1782.5C 322.833,1761.82 322.5,1741.16 321.5,1720.5C 299.919,1709.75 281.086,1695.42 265,1677.5C 241.515,1642.25 247.349,1612.75 282.5,1589C 295.447,1581.52 309.114,1575.68 323.5,1571.5C 324.499,1556.51 324.833,1541.51 324.5,1526.5C 292.897,1520.8 270.397,1503.47 257,1474.5C 248.051,1444.33 255.885,1419.17 280.5,1399C 294.304,1388.26 309.637,1380.43 326.5,1375.5C 326.436,1357.81 326.602,1340.14 327,1322.5C 305.034,1312.52 285.701,1298.85 269,1281.5C 247.482,1254.36 247.149,1227.03 268,1199.5C 285.084,1181.62 305.084,1167.95 328,1158.5C 329.256,1144.52 329.589,1130.52 329,1116.5C 295.323,1107.13 268.657,1088.13 249,1059.5C 229.436,1015.52 240.936,982.357 283.5,960C 299.057,952.961 315.391,949.128 332.5,948.5C 337.949,931.935 345.782,916.602 356,902.5C 384.524,864.503 419.691,834.336 461.5,812C 527.698,777.866 598.031,758.532 672.5,754C 766.018,746.698 856.018,761.031 942.5,797C 974.125,811.133 1003.46,828.8 1030.5,850C 1089.15,900.989 1121.48,965.489 1127.5,1043.5C 1160.56,1047.8 1187.39,1062.8 1208,1088.5C 1225.95,1115.5 1225.95,1142.5 1208,1169.5C 1187.53,1191.81 1162.03,1202.81 1131.5,1202.5C 1131.63,1225.51 1131.3,1248.51 1130.5,1271.5C 1158.54,1276.1 1181.71,1289.1 1200,1310.5C 1221.55,1345.14 1217.38,1376.31 1187.5,1404C 1170.23,1416.59 1150.9,1423.76 1129.5,1425.5C 1128.96,1440.16 1128.63,1454.83 1128.5,1469.5C 1152.31,1475.74 1173.97,1486.24 1193.5,1501C 1216.16,1520.65 1221.33,1544.15 1209,1571.5C 1197.83,1589.5 1182.66,1603 1163.5,1612C 1152.23,1617.26 1140.56,1621.42 1128.5,1624.5C 1127.69,1626.77 1127.19,1629.1 1127,1631.5C 1126.17,1642.18 1126.33,1652.85 1127.5,1663.5C 1147.65,1668.24 1165.98,1676.74 1182.5,1689C 1212.75,1715.24 1219.91,1746.74 1204,1783.5C 1191.03,1804.8 1172.86,1819.96 1149.5,1829C 1143.86,1830.94 1138.19,1832.77 1132.5,1834.5C 1131.33,1844.15 1131.17,1853.82 1132,1863.5C 1153.04,1872.58 1172.54,1884.08 1190.5,1898C 1223.85,1929.12 1227.35,1963.29 1201,2000.5C 1182.98,2021.68 1161.15,2037.68 1135.5,2048.5C 1135.17,2049.5 1134.83,2050.5 1134.5,2051.5C 1142.81,2089.88 1151.31,2128.21 1160,2166.5C 1198.67,2205.17 1237.33,2243.83 1276,2282.5C 1282,2289.83 1288,2297.17 1294,2304.5C 1320.86,2382.76 1347.53,2461.09 1374,2539.5C 1395.17,2585.88 1409.34,2634.21 1416.5,2684.5 Z"/></g>
<g><path style="opacity:1" fill="#b7b7b8" d="M 522.5,2278.5 C 413.332,2278.83 304.332,2278.5 195.5,2277.5C 232.456,2246.22 269.456,2214.89 306.5,2183.5C 295.072,2166.99 284.906,2149.66 276,2131.5C 272.001,2122.89 271.667,2114.22 275,2105.5C 282.802,2097.37 291.969,2091.21 302.5,2087C 317.478,2080.73 332.811,2075.56 348.5,2071.5C 348.962,2018.5 349.295,1965.5 349.5,1912.5C 320.236,1915.25 295.403,1906.25 275,1885.5C 265.251,1873.92 260.918,1860.59 262,1845.5C 267.307,1830.19 277.807,1820.36 293.5,1816C 307.912,1812.12 322.579,1810.62 337.5,1811.5C 341.97,1812.49 346.637,1812.82 351.5,1812.5C 351.5,1804.83 351.5,1797.17 351.5,1789.5C 351.833,1760.49 351.5,1731.49 350.5,1702.5C 332.16,1694.01 315.16,1683.51 299.5,1671C 291.369,1663.88 285.202,1655.38 281,1645.5C 279.402,1638.17 280.735,1631.5 285,1625.5C 294.247,1615.45 305.413,1608.29 318.5,1604C 329.979,1600.05 341.646,1596.88 353.5,1594.5C 353.454,1563.49 353.787,1532.49 354.5,1501.5C 334.74,1501.56 316.74,1496.06 300.5,1485C 275.053,1460.36 276.72,1437.7 305.5,1417C 320.996,1407.45 337.662,1400.95 355.5,1397.5C 356.526,1365.83 356.526,1334.16 355.5,1302.5C 334.433,1294.14 315.099,1282.97 297.5,1269C 286.384,1259.28 281.551,1247.11 283,1232.5C 287.572,1221.93 294.405,1213.09 303.5,1206C 320.214,1193.7 338.547,1184.53 358.5,1178.5C 358.5,1149.83 358.5,1121.17 358.5,1092.5C 329.066,1089.2 303.9,1077.2 283,1056.5C 260.534,1029.5 264.034,1006.67 293.5,988C 302.243,983.197 311.577,980.197 321.5,979C 334.158,977.691 346.825,976.525 359.5,975.5C 359.384,968.126 359.884,960.792 361,953.5C 378.705,915.965 404.538,885.131 438.5,861C 498.378,820.588 564.378,795.921 636.5,787C 731.396,773.899 823.729,783.899 913.5,817C 957.499,834.067 996.666,858.567 1031,890.5C 1076.7,940.744 1099.54,1000.08 1099.5,1068.5C 1121.77,1069.85 1142.77,1075.69 1162.5,1086C 1174.83,1093.33 1183.99,1103.49 1190,1116.5C 1195.05,1139.57 1186.88,1156.07 1165.5,1166C 1156.01,1170.44 1146.01,1172.77 1135.5,1173C 1124.48,1173.65 1113.48,1173.49 1102.5,1172.5C 1101.79,1214.16 1101.46,1255.83 1101.5,1297.5C 1127.58,1297.48 1150.75,1305.48 1171,1321.5C 1191.14,1345.39 1188.64,1366.55 1163.5,1385C 1143.51,1394.95 1122.34,1399.45 1100,1398.5C 1099.17,1429.51 1099.33,1460.51 1100.5,1491.5C 1122.95,1496.82 1144.28,1504.98 1164.5,1516C 1192.3,1533.52 1193.63,1552.85 1168.5,1574C 1147.6,1589.52 1124.1,1597.69 1098,1598.5C 1097.5,1628.5 1097.33,1658.5 1097.5,1688.5C 1123.06,1690.29 1146.06,1698.79 1166.5,1714C 1190.46,1740.5 1188.8,1765.5 1161.5,1789C 1143.44,1800.98 1123.6,1808.14 1102,1810.5C 1101.17,1834.84 1101.33,1859.17 1102.5,1883.5C 1125.88,1891.56 1147.55,1902.72 1167.5,1917C 1175.9,1923.73 1182.4,1931.89 1187,1941.5C 1190.79,1953.08 1189.46,1964.08 1183,1974.5C 1166.16,1998.67 1143.66,2015.17 1115.5,2024C 1109.75,2024.15 1104.08,2024.81 1098.5,2026C 1110.37,2077.71 1121.87,2129.54 1133,2181.5C 1165.17,2213.67 1197.33,2245.83 1229.5,2278C 993.834,2278.5 758.167,2278.67 522.5,2278.5 Z"/></g>
<g><path style="opacity:1" fill="#383838" d="M 351.5,1789.5 C 351.5,1797.17 351.5,1804.83 351.5,1812.5C 346.637,1812.82 341.97,1812.49 337.5,1811.5C 341.833,1811.5 346.167,1811.5 350.5,1811.5C 350.175,1803.98 350.508,1796.65 351.5,1789.5 Z"/></g>
<g><path style="opacity:1" fill="#323232" d="M 195.5,2277.5 C 304.332,2278.5 413.332,2278.83 522.5,2278.5C 413.333,2279.83 303.999,2279.83 194.5,2278.5C 194.624,2277.89 194.957,2277.56 195.5,2277.5 Z"/></g>
<g><path style="opacity:1" fill="#fefefe" d="M 565.5,2306.5 C 798.168,2306.17 1030.83,2306.5 1263.5,2307.5C 1291.43,2388.8 1319.27,2470.13 1347,2551.5C 1389.63,2642.18 1400.63,2736.52 1380,2834.5C 1361.67,2903.03 1326.17,2960.86 1273.5,3008C 1222.47,3052.36 1164.8,3085.7 1100.5,3108C 1041.84,3122.98 983.504,3121.65 925.5,3104C 841.966,3075.43 759.299,3044.6 677.5,3011.5C 676.5,2954.5 676.167,2897.5 676.5,2840.5C 666.833,2840.5 657.167,2840.5 647.5,2840.5C 647.831,2898.07 647.498,2955.57 646.5,3013C 596.652,3042.59 545.318,3069.59 492.5,3094C 407.921,3125.43 325.588,3120.43 245.5,3079C 159.111,3030.28 95.278,2960.78 54,2870.5C 31.1672,2818.17 24.8339,2763.83 35,2707.5C 45.4541,2642.9 61.1207,2579.57 82,2517.5C 106.441,2446.12 134.607,2376.29 166.5,2308C 299.667,2307.83 432.667,2307.33 565.5,2306.5 Z"/></g>
</svg>
