<?xml version="1.0" encoding="UTF-8"?>
<!DOCTYPE svg PUBLIC "-//W3C//DTD SVG 1.1//EN" "http://www.w3.org/Graphics/SVG/1.1/DTD/svg11.dtd">
<svg xmlns="http://www.w3.org/2000/svg" version="1.1" width="1452px" height="3694px" style="shape-rendering:geometricPrecision; text-rendering:geometricPrecision; image-rendering:optimizeQuality; fill-rule:evenodd; clip-rule:evenodd" xmlns:xlink="http://www.w3.org/1999/xlink">
<g><path style="opacity:0.781" fill="#fcfcfc" d="M -0.5,-0.5 C 483.5,-0.5 967.5,-0.5 1451.5,-0.5C 1451.5,1230.83 1451.5,2462.17 1451.5,3693.5C 967.5,3693.5 483.5,3693.5 -0.5,3693.5C -0.5,2462.17 -0.5,1230.83 -0.5,-0.5 Z M 1448.5,923.5 C 1440.95,830.004 1410.11,745.004 1356,668.5C 1325.57,632.067 1292.4,598.234 1256.5,567C 1228.56,543.039 1199.9,520.039 1170.5,498C 1138.98,480.824 1105.98,467.158 1071.5,457C 1050.62,451.882 1029.62,451.548 1008.5,456C 961.734,466.145 917.4,482.812 875.5,506C 801.631,549.428 728.298,593.594 655.5,638.5C 632.058,624.235 608.724,609.735 585.5,595C 488.569,533.173 387.569,525.84 282.5,573C 173.35,626.816 90.5168,707.649 34,815.5C 18.3324,847.33 7.83241,880.663 2.5,915.5C 2.5,611.167 2.5,306.833 2.5,2.5C 484.5,2.5 966.5,2.5 1448.5,2.5C 1448.5,309.5 1448.5,616.5 1448.5,923.5 Z M 1448.5,965.5 C 1448.5,1873.83 1448.5,2782.17 1448.5,3690.5C 966.5,3690.5 484.5,3690.5 2.5,3690.5C 2.5,2787.83 2.5,1885.17 2.5,982.5C 10.7337,1044.1 25.9004,1104.1 48,1162.5C 77.9223,1241.01 114.256,1316.34 157,1388.5C 175.803,1563.81 190.47,1739.47 201,1915.5C 204.613,1973.13 205.613,2030.8 204,2088.5C 200.301,2141.42 194.301,2194.09 186,2246.5C 172.333,2330.5 158.667,2414.5 145,2498.5C 135.282,2559.91 127.615,2621.58 122,2683.5C 117.857,2732.81 117.524,2782.15 121,2831.5C 129.717,2889.91 150.383,2943.57 183,2992.5C 197.586,3013.09 215.419,3030.25 236.5,3044C 273.685,3064.28 311.018,3064.61 348.5,3045C 369.402,3031.02 385.568,3012.85 397,2990.5C 414.185,2956.44 425.185,2920.44 430,2882.5C 441.842,2830.13 453.842,2777.8 466,2725.5C 481.109,2667.84 498.442,2610.84 518,2554.5C 550.946,2460.94 583.612,2367.27 616,2273.5C 630.548,2228.52 643.882,2183.19 656,2137.5C 663.281,2112.95 673.281,2089.61 686,2067.5C 693.765,2055.4 703.265,2044.9 714.5,2036C 733.901,2024.47 753.901,2023.47 774.5,2033C 788.308,2041.41 797.141,2053.58 801,2069.5C 803.089,2077.03 804.422,2084.7 805,2092.5C 805.667,2105.17 805.667,2117.83 805,2130.5C 800.097,2191.46 795.764,2252.46 792,2313.5C 786.503,2385.81 776.503,2457.47 762,2528.5C 752.678,2565.13 741.344,2601.13 728,2636.5C 699.117,2712.48 669.451,2788.15 639,2863.5C 624.678,2900.8 611.344,2938.47 599,2976.5C 589.713,3008.73 587.046,3041.39 591,3074.5C 597.395,3118.57 622.729,3140.91 667,3141.5C 689.007,3141.12 709.84,3135.96 729.5,3126C 765.865,3106.65 798.865,3082.65 828.5,3054C 841.667,3040.83 854.833,3027.67 868,3014.5C 894.298,2985.2 920.965,2956.2 948,2927.5C 1033.59,2829.7 1094.25,2717.7 1130,2591.5C 1160.96,2480.48 1176.12,2367.31 1175.5,2252C 1172.99,2177.33 1175.49,2102.83 1183,2028.5C 1200.97,1864.03 1229.3,1701.36 1268,1540.5C 1279.2,1494.05 1290.86,1447.72 1303,1401.5C 1325.47,1345.09 1348.14,1288.75 1371,1232.5C 1395.85,1169.96 1417.51,1106.29 1436,1041.5C 1442.9,1016.46 1447.06,991.129 1448.5,965.5 Z"/></g>
<g><path style="opacity:0.982" fill="#010101" d="M 1448.5,923.5 C 1448.5,937.5 1448.5,951.5 1448.5,965.5C 1447.06,991.129 1442.9,1016.46 1436,1041.5C 1417.51,1106.29 1395.85,1169.96 1371,1232.5C 1348.14,1288.75 1325.47,1345.09 1303,1401.5C 1290.86,1447.72 1279.2,1494.05 1268,1540.5C 1229.3,1701.36 1200.97,1864.03 1183,2028.5C 1175.49,2102.83 1172.99,2177.33 1175.5,2252C 1176.12,2367.31 1160.96,2480.48 1130,2591.5C 1094.25,2717.7 1033.59,2829.7 948,2927.5C 920.965,2956.2 894.298,2985.2 868,3014.5C 854.833,3027.67 841.667,3040.83 828.5,3054C 798.865,3082.65 765.865,3106.65 729.5,3126C 709.84,3135.96 689.007,3141.12 667,3141.5C 622.729,3140.91 597.395,3118.57 591,3074.5C 587.046,3041.39 589.713,3008.73 599,2976.5C 611.344,2938.47 624.678,2900.8 639,2863.5C 669.451,2788.15 699.117,2712.48 728,2636.5C 741.344,2601.13 752.678,2565.13 762,2528.5C 776.503,2457.47 786.503,2385.81 792,2313.5C 795.764,2252.46 800.097,2191.46 805,2130.5C 805.667,2117.83 805.667,2105.17 805,2092.5C 804.422,2084.7 803.089,2077.03 801,2069.5C 797.141,2053.58 788.308,2041.41 774.5,2033C 753.901,2023.47 733.901,2024.47 714.5,2036C 703.265,2044.9 693.765,2055.4 686,2067.5C 673.281,2089.61 663.281,2112.95 656,2137.5C 643.882,2183.19 630.548,2228.52 616,2273.5C 583.612,2367.27 550.946,2460.94 518,2554.5C 498.442,2610.84 481.109,2667.84 466,2725.5C 453.842,2777.8 441.842,2830.13 430,2882.5C 425.185,2920.44 414.185,2956.44 397,2990.5C 385.568,3012.85 369.402,3031.02 348.5,3045C 311.018,3064.61 273.685,3064.28 236.5,3044C 215.419,3030.25 197.586,3013.09 183,2992.5C 150.383,2943.57 129.717,2889.91 121,2831.5C 117.524,2782.15 117.857,2732.81 122,2683.5C 127.615,2621.58 135.282,2559.91 145,2498.5C 158.667,2414.5 172.333,2330.5 186,2246.5C 194.301,2194.09 200.301,2141.42 204,2088.5C 205.613,2030.8 204.613,1973.13 201,1915.5C 190.47,1739.47 175.803,1563.81 157,1388.5C 114.256,1316.34 77.9223,1241.01 48,1162.5C 25.9004,1104.1 10.7337,1044.1 2.5,982.5C 1.21202,960.164 1.21202,937.831 2.5,915.5C 7.83241,880.663 18.3324,847.33 34,815.5C 90.5168,707.649 173.35,626.816 282.5,573C 387.569,525.84 488.569,533.173 585.5,595C 608.724,609.735 632.058,624.235 655.5,638.5C 728.298,593.594 801.631,549.428 875.5,506C 917.4,482.812 961.734,466.145 1008.5,456C 1029.62,451.548 1050.62,451.882 1071.5,457C 1105.98,467.158 1138.98,480.824 1170.5,498C 1199.9,520.039 1228.56,543.039 1256.5,567C 1292.4,598.234 1325.57,632.067 1356,668.5C 1410.11,745.004 1440.95,830.004 1448.5,923.5 Z"/></g>
<g><path style="opacity:1" fill="#fefefe" d="M 1025.5,482.5 C 1039.68,481.75 1053.68,482.916 1067.5,486C 1096.41,495.453 1124.41,507.119 1151.5,521C 1208.53,562.006 1261.36,608.173 1310,659.5C 1336.89,688.906 1358.55,721.906 1375,758.5C 1398.52,806.896 1412.85,857.896 1418,911.5C 1420.74,943.669 1419.41,975.669 1414,1007.5C 1400.62,1059.97 1384.62,1111.64 1366,1162.5C 1339.77,1232.02 1312.27,1301.02 1283.5,1369.5C 915.834,1370.67 548.167,1370.83 180.5,1370C 125.232,1277.96 82.0656,1180.46 51,1077.5C 42.4869,1045.93 36.1536,1013.93 32,981.5C 26.8092,942.509 30.8092,904.509 44,867.5C 62.9074,817.663 89.574,772.663 124,732.5C 160.334,690.813 201.501,654.98 247.5,625C 288.589,598.746 333.255,581.746 381.5,574C 432.709,567.696 481.709,575.363 528.5,597C 565.245,617.116 601.078,638.616 636,661.5C 636.5,711.166 636.667,760.832 636.5,810.5C 646.167,810.5 655.833,810.5 665.5,810.5C 665.17,762.595 665.503,714.761 666.5,667C 744.522,617.345 823.856,569.678 904.5,524C 942.894,504.037 983.227,490.203 1025.5,482.5 Z"/></g>
<g><path style="opacity:1" fill="#fefefe" d="M 188.5,1399.5 C 549.833,1399.5 911.167,1399.5 1272.5,1399.5C 1233.64,1548.63 1201.47,1699.3 1176,1851.5C 1160.77,1947.28 1150.77,2043.62 1146,2140.5C 1145.67,2191.5 1145.33,2242.5 1145,2293.5C 1142.49,2409.58 1122.82,2522.58 1086,2632.5C 1050.9,2733.1 998.9,2823.43 930,2903.5C 898.667,2937.5 867.333,2971.5 836,3005.5C 807.819,3035.37 776.985,3061.87 743.5,3085C 723.563,3098.13 701.896,3107.13 678.5,3112C 665.31,3113.88 652.643,3112.21 640.5,3107C 633.112,3102.28 627.945,3095.78 625,3087.5C 618.838,3067.62 616.838,3047.29 619,3026.5C 621.052,3010.24 624.386,2994.24 629,2978.5C 633.667,2964.5 638.333,2950.5 643,2936.5C 679.804,2841.09 716.804,2745.75 754,2650.5C 768.351,2612.11 780.684,2573.11 791,2533.5C 804.492,2466.05 814.159,2398.05 820,2329.5C 824.816,2255.3 829.982,2181.13 835.5,2107C 836.676,2082.21 831.843,2058.71 821,2036.5C 808.529,2015.99 790.362,2003.49 766.5,1999C 731.223,1991.65 701.723,2001.48 678,2028.5C 657.199,2054.43 641.865,2083.43 632,2115.5C 619.651,2158.89 606.984,2202.22 594,2245.5C 550.939,2369.35 508.272,2493.35 466,2617.5C 455.314,2651.22 445.647,2685.22 437,2719.5C 421.108,2787.29 406.108,2855.29 392,2923.5C 385.374,2949.08 374.707,2972.74 360,2994.5C 336.355,3026.16 305.522,3036.66 267.5,3026C 251.212,3019.61 237.045,3010.11 225,2997.5C 203.209,2972.94 186.209,2945.28 174,2914.5C 162.592,2887.12 154.592,2858.79 150,2829.5C 145.729,2758.24 148.395,2687.24 158,2616.5C 162.677,2578.1 168.01,2539.76 174,2501.5C 190.433,2402.24 206.433,2302.9 222,2203.5C 233.485,2124.53 237.151,2045.2 233,1965.5C 222.755,1776.47 207.922,1587.8 188.5,1399.5 Z"/></g>
</svg>
