<?xml version="1.0" encoding="UTF-8"?>
<!DOCTYPE svg PUBLIC "-//W3C//DTD SVG 1.1//EN" "http://www.w3.org/Graphics/SVG/1.1/DTD/svg11.dtd">
<svg xmlns="http://www.w3.org/2000/svg" version="1.1" width="1421px" height="3694px" style="shape-rendering:geometricPrecision; text-rendering:geometricPrecision; image-rendering:optimizeQuality; fill-rule:evenodd; clip-rule:evenodd" xmlns:xlink="http://www.w3.org/1999/xlink">
<g><path style="opacity:0.667" fill="#fdfdfd" d="M -0.5,-0.5 C 472.833,-0.5 946.167,-0.5 1419.5,-0.5C 1419.5,904.5 1419.5,1809.5 1419.5,2714.5C 1417.91,2704.7 1416.91,2694.7 1416.5,2684.5C 1416.5,1790.5 1416.5,896.5 1416.5,2.5C 945.167,2.5 473.833,2.5 2.5,2.5C 2.5,912.833 2.5,1823.17 2.5,2733.5C 1.18747,2753.83 1.18747,2774.17 2.5,2794.5C 2.5,3093.17 2.5,3391.83 2.5,3690.5C 473.833,3690.5 945.167,3690.5 1416.5,3690.5C 1416.5,3395.17 1416.5,3099.83 1416.5,2804.5C 1416.61,2793.94 1417.61,2783.6 1419.5,2773.5C 1419.5,3080.17 1419.5,3386.83 1419.5,3693.5C 946.167,3693.5 472.833,3693.5 -0.5,3693.5C -0.5,2462.17 -0.5,1230.83 -0.5,-0.5 Z M 2.5,2794.5 C 9.95056,2843.01 26.4506,2888.34 52,2930.5C 97.2343,3006.4 158.734,3065.24 236.5,3107C 325.37,3151.07 416.037,3155.07 508.5,3119C 529.9,3109.47 550.9,3099.13 571.5,3088C 602.043,3070.9 632.71,3054.06 663.5,3037.5C 730.941,3063.89 798.607,3089.72 866.5,3115C 907.785,3131.06 950.451,3141.39 994.5,3146C 1052.15,3151.27 1107.15,3141.6 1159.5,3117C 1211.46,3092 1258.8,3060.33 1301.5,3022C 1350.82,2975.88 1385.32,2920.38 1405,2855.5C 1409.81,2838.58 1413.65,2821.58 1416.5,2804.5C 1416.5,3099.83 1416.5,3395.17 1416.5,3690.5C 945.167,3690.5 473.833,3690.5 2.5,3690.5C 2.5,3391.83 2.5,3093.17 2.5,2794.5 Z"/></g>
<g><path style="opacity:0.982" fill="#010101" d="M 1416.5,2684.5 C 1416.91,2694.7 1417.91,2704.7 1419.5,2714.5C 1419.18,2721.35 1419.51,2728.02 1420.5,2734.5C 1420.5,2741.5 1420.5,2748.5 1420.5,2755.5C 1419.51,2761.31 1419.18,2767.31 1419.5,2773.5C 1417.61,2783.6 1416.61,2793.94 1416.5,2804.5C 1413.65,2821.58 1409.81,2838.58 1405,2855.5C 1385.32,2920.38 1350.82,2975.88 1301.5,3022C 1258.8,3060.33 1211.46,3092 1159.5,3117C 1107.15,3141.6 1052.15,3151.27 994.5,3146C 950.451,3141.39 907.785,3131.06 866.5,3115C 798.607,3089.72 730.941,3063.89 663.5,3037.5C 632.71,3054.06 602.043,3070.9 571.5,3088C 550.9,3099.13 529.9,3109.47 508.5,3119C 416.037,3155.07 325.37,3151.07 236.5,3107C 158.734,3065.24 97.2343,3006.4 52,2930.5C 26.4506,2888.34 9.95056,2843.01 2.5,2794.5C 1.18747,2774.17 1.18747,2753.83 2.5,2733.5C 10.1253,2667.98 23.9586,2603.65 44,2540.5C 71.0375,2455.71 103.371,2373.05 141,2292.5C 158.248,2124.77 172.248,1956.77 183,1788.5C 185.912,1739.87 187.745,1691.21 188.5,1642.5C 188.426,1615.79 187.26,1589.12 185,1562.5C 180.815,1519.69 175.482,1477.02 169,1434.5C 151.242,1327.62 134.242,1220.62 118,1113.5C 108.234,1047.35 102.734,980.846 101.5,914C 99.2768,831.687 121.11,756.521 167,688.5C 177.118,675.382 188.285,663.215 200.5,652C 236.114,622.231 275.78,615.231 319.5,631C 345.613,644.113 365.446,663.613 379,689.5C 387.655,705.476 394.655,722.143 400,739.5C 415.347,808.89 431.014,878.223 447,947.5C 464.305,1015.08 484.638,1081.75 508,1147.5C 540.789,1239.2 572.789,1331.2 604,1423.5C 615.216,1457.81 625.216,1492.48 634,1527.5C 642.076,1557.98 653.742,1586.98 669,1614.5C 676.064,1625.56 684.564,1635.4 694.5,1644C 718.131,1660.42 741.797,1660.42 765.5,1644C 776.647,1633.54 783.48,1620.71 786,1605.5C 787.742,1594.54 788.909,1583.54 789.5,1572.5C 783.895,1492.85 778.062,1413.18 772,1333.5C 767.382,1284.22 760.715,1235.22 752,1186.5C 744.275,1145.93 733.275,1106.27 719,1067.5C 685.499,978.833 651.165,890.499 616,802.5C 601.335,765.172 588.668,727.172 578,688.5C 572.052,660.328 571.052,631.995 575,603.5C 582.94,562.229 607.94,541.229 650,540.5C 672.717,541.221 694.217,546.721 714.5,557C 750.365,576.604 783.032,600.604 812.5,629C 825.333,641.833 838.167,654.667 851,667.5C 880.667,699.833 910.333,732.167 940,764.5C 1021.22,861.243 1079.22,970.909 1114,1093.5C 1141.54,1192.27 1156.21,1292.94 1158,1395.5C 1155.53,1484.69 1158.53,1573.69 1167,1662.5C 1184.95,1822.2 1212.62,1980.2 1250,2136.5C 1261.55,2185.7 1273.88,2234.7 1287,2283.5C 1316.33,2369.5 1345.67,2455.5 1375,2541.5C 1395.54,2587.32 1409.37,2634.99 1416.5,2684.5 Z"/></g>
<g><path style="opacity:1" fill="#fefefe" d="M 640.5,569.5 C 656.698,568.632 672.365,571.132 687.5,577C 709.076,586.116 729.076,597.783 747.5,612C 771.562,631.723 794.728,652.556 817,674.5C 848.667,708.833 880.333,743.167 912,777.5C 994.804,873.071 1053.14,982.404 1087,1105.5C 1110.72,1190.88 1124.38,1277.88 1128,1366.5C 1123.82,1527.31 1135.15,1686.97 1162,1845.5C 1186.55,1992.4 1218.05,2137.73 1256.5,2281.5C 894.834,2282.5 533.167,2282.83 171.5,2282.5C 184.989,2146.65 196.823,2010.65 207,1874.5C 211.109,1812.87 214.442,1751.21 217,1689.5C 219.183,1635.33 217.183,1581.33 211,1527.5C 207.461,1496.44 203.461,1465.44 199,1434.5C 185.659,1350.79 171.992,1267.12 158,1183.5C 147.956,1120.95 140.123,1058.11 134.5,995C 129.702,945.836 129.536,896.669 134,847.5C 143.794,788.601 167.127,735.934 204,689.5C 221.491,669.328 243.324,656.828 269.5,652C 298.422,650.378 321.922,660.878 340,683.5C 357.376,706.924 369.376,732.924 376,761.5C 390.975,833.704 406.975,905.704 424,977.5C 439.845,1034.7 457.512,1091.37 477,1147.5C 512.456,1247.2 547.123,1347.2 581,1447.5C 590.777,1478.94 599.777,1510.61 608,1542.5C 617.166,1577.02 631.166,1609.35 650,1639.5C 687.052,1690.04 732.552,1699.21 786.5,1667C 800.413,1654.35 809.58,1638.85 814,1620.5C 818.185,1600.7 819.518,1580.7 818,1560.5C 812.828,1496.91 808.495,1433.24 805,1369.5C 800.127,1309.85 792.794,1250.52 783,1191.5C 773.117,1136.3 757.783,1082.64 737,1030.5C 708.921,957.263 680.255,884.263 651,811.5C 636.283,774.352 622.95,736.685 611,698.5C 603.611,672.668 600.611,646.335 602,619.5C 602.937,604.168 608.437,590.835 618.5,579.5C 625.115,574.414 632.448,571.08 640.5,569.5 Z"/></g>
<g><path style="opacity:1" fill="#fefefe" d="M 676.5,3010.5 C 676.5,2953.5 676.5,2896.5 676.5,2839.5C 666.652,2839.17 656.986,2839.51 647.5,2840.5C 647.833,2897.84 647.5,2955.17 646.5,3012.5C 597.862,3041.32 547.862,3067.82 496.5,3092C 410.378,3124.95 326.378,3120.28 244.5,3078C 174.911,3038.75 119.411,2984.91 78,2916.5C 56.6553,2881.8 41.9887,2844.47 34,2804.5C 30.8784,2785.28 29.8784,2765.94 31,2746.5C 37.0755,2683.6 49.4089,2621.93 68,2561.5C 94.2802,2475.98 126.447,2392.82 164.5,2312C 531.5,2311.5 898.5,2311.33 1265.5,2311.5C 1274.29,2341.36 1283.79,2371.02 1294,2400.5C 1318.02,2469.55 1343.02,2538.22 1369,2606.5C 1391.96,2676.98 1396.62,2748.65 1383,2821.5C 1362.96,2905.16 1319.12,2973.33 1251.5,3026C 1206.43,3061.04 1156.76,3088.04 1102.5,3107C 1045.05,3121.47 987.716,3120.8 930.5,3105C 904.484,3097.33 878.818,3088.66 853.5,3079C 794.189,3056.67 735.189,3033.83 676.5,3010.5 Z"/></g>
<g><path style="opacity:1" fill="#4f4f4f" d="M 647.5,2840.5 C 656.986,2839.51 666.652,2839.17 676.5,2839.5C 676.5,2896.5 676.5,2953.5 676.5,3010.5C 675.501,2954 675.168,2897.34 675.5,2840.5C 666.167,2840.5 656.833,2840.5 647.5,2840.5 Z"/></g>
</svg>
