<?xml version="1.0" encoding="UTF-8"?>
<!DOCTYPE svg PUBLIC "-//W3C//DTD SVG 1.1//EN" "http://www.w3.org/Graphics/SVG/1.1/DTD/svg11.dtd">
<svg xmlns="http://www.w3.org/2000/svg" version="1.1" width="1452px" height="3694px" style="shape-rendering:geometricPrecision; text-rendering:geometricPrecision; image-rendering:optimizeQuality; fill-rule:evenodd; clip-rule:evenodd" xmlns:xlink="http://www.w3.org/1999/xlink">
<g><path style="opacity:0.786" fill="#fcfcfc" d="M -0.5,-0.5 C 483.5,-0.5 967.5,-0.5 1451.5,-0.5C 1451.5,1230.83 1451.5,2462.17 1451.5,3693.5C 967.5,3693.5 483.5,3693.5 -0.5,3693.5C -0.5,2462.17 -0.5,1230.83 -0.5,-0.5 Z M 1448.5,922.5 C 1441.09,829.753 1410.59,745.42 1357,669.5C 1327.88,634.712 1296.38,602.212 1262.5,572C 1232.08,546.241 1201.08,521.241 1169.5,497C 1137.29,479.726 1103.62,466.06 1068.5,456C 1041.24,451.076 1014.24,452.409 987.5,460C 958.179,468.106 929.846,478.773 902.5,492C 878.352,504.238 854.685,517.238 831.5,531C 772.667,566.582 714,602.416 655.5,638.5C 617.153,612.985 577.486,589.485 536.5,568C 468.031,538.437 398.031,534.437 326.5,556C 274.403,573.373 227.069,599.04 184.5,633C 119.433,684.705 68.2661,747.539 31,821.5C 16.9176,851.57 7.41762,882.903 2.5,915.5C 2.5,610.833 2.5,306.167 2.5,1.5C 484.5,1.5 966.5,1.5 1448.5,1.5C 1448.5,308.5 1448.5,615.5 1448.5,922.5 Z M 1448.5,965.5 C 1448.5,1873.83 1448.5,2782.17 1448.5,3690.5C 966.5,3690.5 484.5,3690.5 2.5,3690.5C 2.5,2788.17 2.5,1885.83 2.5,983.5C 12.583,1060.49 32.083,1135.16 61,1207.5C 87.0594,1275.02 117.726,1340.35 153,1403.5C 191.167,1435.67 229.333,1467.83 267.5,1500C 258.017,1514.13 250.517,1529.3 245,1545.5C 238.13,1569.89 244.963,1589.39 265.5,1604C 282.051,1614.19 299.551,1622.36 318,1628.5C 319.152,1664.82 319.986,1701.16 320.5,1737.5C 281.755,1743.1 253.922,1763.43 237,1798.5C 223.958,1844.46 240.125,1874.96 285.5,1890C 297.281,1893.24 309.281,1895.07 321.5,1895.5C 322.234,1915.83 322.401,1936.16 322,1956.5C 301.071,1967.42 282.404,1981.42 266,1998.5C 240.25,2036.01 246.75,2066.84 285.5,2091C 296.932,2097.37 308.932,2102.37 321.5,2106C 322.667,2106.5 323.5,2107.33 324,2108.5C 324.667,2122.5 324.667,2136.5 324,2150.5C 294.493,2156.9 272.493,2173.23 258,2199.5C 246.766,2232.47 254.933,2259.63 282.5,2281C 295.791,2290.73 310.291,2298.23 326,2303.5C 326.833,2321.18 326.666,2338.84 325.5,2356.5C 300.098,2367.41 278.931,2383.74 262,2405.5C 247.207,2432.71 249.874,2458.04 270,2481.5C 286.679,2497.77 305.846,2510.43 327.5,2519.5C 328.499,2533.82 328.833,2548.15 328.5,2562.5C 295.489,2570.74 269.322,2588.74 250,2616.5C 229.755,2655.01 237.255,2686.85 272.5,2712C 283.015,2718.62 294.348,2723.28 306.5,2726C 314.899,2727.26 323.232,2728.76 331.5,2730.5C 346.353,2765.86 368.353,2796.02 397.5,2821C 446.214,2860.52 501.214,2888.19 562.5,2904C 677.123,2933.58 791.456,2932.58 905.5,2901C 962.479,2884.68 1013.48,2857.68 1058.5,2820C 1111.56,2769.69 1140.9,2707.86 1146.5,2634.5C 1176.71,2629.98 1202.21,2616.64 1223,2594.5C 1244.94,2566.14 1245.94,2537.14 1226,2507.5C 1205.55,2486.06 1180.38,2475.4 1150.5,2475.5C 1150.26,2452.5 1149.92,2429.5 1149.5,2406.5C 1177.55,2401.9 1200.72,2388.9 1219,2367.5C 1240.43,2332.89 1236.26,2301.72 1206.5,2274C 1189.11,2261.7 1169.78,2254.2 1148.5,2251.5C 1147.52,2237.22 1147.18,2222.88 1147.5,2208.5C 1175.6,2201.54 1200.1,2188.2 1221,2168.5C 1236.99,2148.02 1238.66,2126.35 1226,2103.5C 1205.9,2076.35 1179.07,2059.68 1145.5,2053.5C 1145.17,2040.48 1145.5,2027.48 1146.5,2014.5C 1172.98,2008.68 1195.48,1996.01 1214,1976.5C 1237.81,1943.32 1237.14,1910.66 1212,1878.5C 1194.92,1860.28 1174.09,1848.62 1149.5,1843.5C 1149.17,1833.81 1149.5,1824.14 1150.5,1814.5C 1172.28,1805.45 1192.28,1793.62 1210.5,1779C 1244.84,1744.63 1246.34,1708.8 1215,1671.5C 1197.01,1652.92 1176.18,1638.42 1152.5,1628C 1161.25,1589.18 1170.08,1550.35 1179,1511.5C 1222.33,1468.17 1265.67,1424.83 1309,1381.5C 1311.91,1378.01 1314.58,1374.34 1317,1370.5C 1354.08,1279.92 1388.42,1188.25 1420,1095.5C 1428.91,1067.84 1436.58,1039.84 1443,1011.5C 1445.61,996.109 1447.44,980.775 1448.5,965.5 Z"/></g>
<g><path style="opacity:0.982" fill="#010101" d="M 1448.5,922.5 C 1448.5,936.833 1448.5,951.167 1448.5,965.5C 1447.44,980.775 1445.61,996.109 1443,1011.5C 1436.58,1039.84 1428.91,1067.84 1420,1095.5C 1388.42,1188.25 1354.08,1279.92 1317,1370.5C 1314.58,1374.34 1311.91,1378.01 1309,1381.5C 1265.67,1424.83 1222.33,1468.17 1179,1511.5C 1170.08,1550.35 1161.25,1589.18 1152.5,1628C 1176.18,1638.42 1197.01,1652.92 1215,1671.5C 1246.34,1708.8 1244.84,1744.63 1210.5,1779C 1192.28,1793.62 1172.28,1805.45 1150.5,1814.5C 1149.5,1824.14 1149.17,1833.81 1149.5,1843.5C 1174.09,1848.62 1194.92,1860.28 1212,1878.5C 1237.14,1910.66 1237.81,1943.32 1214,1976.5C 1195.48,1996.01 1172.98,2008.68 1146.5,2014.5C 1145.5,2027.48 1145.17,2040.48 1145.5,2053.5C 1179.07,2059.68 1205.9,2076.35 1226,2103.5C 1238.66,2126.35 1236.99,2148.02 1221,2168.5C 1200.1,2188.2 1175.6,2201.54 1147.5,2208.5C 1147.18,2222.88 1147.52,2237.22 1148.5,2251.5C 1169.78,2254.2 1189.11,2261.7 1206.5,2274C 1236.26,2301.72 1240.43,2332.89 1219,2367.5C 1200.72,2388.9 1177.55,2401.9 1149.5,2406.5C 1149.92,2429.5 1150.26,2452.5 1150.5,2475.5C 1180.38,2475.4 1205.55,2486.06 1226,2507.5C 1245.94,2537.14 1244.94,2566.14 1223,2594.5C 1202.21,2616.64 1176.71,2629.98 1146.5,2634.5C 1140.9,2707.86 1111.56,2769.69 1058.5,2820C 1013.48,2857.68 962.479,2884.68 905.5,2901C 791.456,2932.58 677.123,2933.58 562.5,2904C 501.214,2888.19 446.214,2860.52 397.5,2821C 368.353,2796.02 346.353,2765.86 331.5,2730.5C 323.232,2728.76 314.899,2727.26 306.5,2726C 294.348,2723.28 283.015,2718.62 272.5,2712C 237.255,2686.85 229.755,2655.01 250,2616.5C 269.322,2588.74 295.489,2570.74 328.5,2562.5C 328.833,2548.15 328.499,2533.82 327.5,2519.5C 305.846,2510.43 286.679,2497.77 270,2481.5C 249.874,2458.04 247.207,2432.71 262,2405.5C 278.931,2383.74 300.098,2367.41 325.5,2356.5C 326.666,2338.84 326.833,2321.18 326,2303.5C 310.291,2298.23 295.791,2290.73 282.5,2281C 254.933,2259.63 246.766,2232.47 258,2199.5C 272.493,2173.23 294.493,2156.9 324,2150.5C 324.667,2136.5 324.667,2122.5 324,2108.5C 323.5,2107.33 322.667,2106.5 321.5,2106C 308.932,2102.37 296.932,2097.37 285.5,2091C 246.75,2066.84 240.25,2036.01 266,1998.5C 282.404,1981.42 301.071,1967.42 322,1956.5C 322.401,1936.16 322.234,1915.83 321.5,1895.5C 309.281,1895.07 297.281,1893.24 285.5,1890C 240.125,1874.96 223.958,1844.46 237,1798.5C 253.922,1763.43 281.755,1743.1 320.5,1737.5C 319.986,1701.16 319.152,1664.82 318,1628.5C 299.551,1622.36 282.051,1614.19 265.5,1604C 244.963,1589.39 238.13,1569.89 245,1545.5C 250.517,1529.3 258.017,1514.13 267.5,1500C 229.333,1467.83 191.167,1435.67 153,1403.5C 117.726,1340.35 87.0594,1275.02 61,1207.5C 32.083,1135.16 12.583,1060.49 2.5,983.5C 1.24058,960.83 1.24058,938.163 2.5,915.5C 7.41762,882.903 16.9176,851.57 31,821.5C 68.2661,747.539 119.433,684.705 184.5,633C 227.069,599.04 274.403,573.373 326.5,556C 398.031,534.437 468.031,538.437 536.5,568C 577.486,589.485 617.153,612.985 655.5,638.5C 714,602.416 772.667,566.582 831.5,531C 854.685,517.238 878.352,504.238 902.5,492C 929.846,478.773 958.179,468.106 987.5,460C 1014.24,452.409 1041.24,451.076 1068.5,456C 1103.62,466.06 1137.29,479.726 1169.5,497C 1201.08,521.241 1232.08,546.241 1262.5,572C 1296.38,602.212 1327.88,634.712 1357,669.5C 1410.59,745.42 1441.09,829.753 1448.5,922.5 Z"/></g>
<g><path style="opacity:1" fill="#fefefe" d="M 1033.5,481.5 C 1050.72,481.758 1067.38,484.925 1083.5,491C 1107.54,499.685 1130.87,510.019 1153.5,522C 1213.87,565.679 1269.37,615.179 1320,670.5C 1346.9,702.934 1368.23,738.934 1384,778.5C 1413.13,844.96 1424.13,914.293 1417,986.5C 1412.36,1016.07 1405.36,1045.07 1396,1073.5C 1362.57,1174.14 1325.4,1273.31 1284.5,1371C 912.165,1371.76 539.832,1371.26 167.5,1369.5C 122.73,1285.96 86.2295,1198.96 58,1108.5C 44.3661,1061.74 35.3661,1014.07 31,965.5C 28.1654,927.839 33.8321,891.506 48,856.5C 66.6845,811.43 91.6845,770.43 123,733.5C 159.525,690.554 201.359,654.054 248.5,624C 288.766,598.466 332.432,581.8 379.5,574C 437.121,566.326 491.454,576.326 542.5,604C 574.252,622.289 605.419,641.455 636,661.5C 636.5,711.166 636.667,760.832 636.5,810.5C 646.167,810.5 655.833,810.5 665.5,810.5C 665.333,762.832 665.5,715.166 666,667.5C 739.78,620.412 814.613,574.912 890.5,531C 925.404,511.88 962.07,497.213 1000.5,487C 1011.56,484.683 1022.56,482.85 1033.5,481.5 Z"/></g>
<g><path style="opacity:1" fill="#b7b7b8" d="M 194.5,1400.5 C 545.666,1399.33 897,1399.17 1248.5,1400C 1216.33,1432.17 1184.17,1464.33 1152,1496.5C 1140.65,1548.21 1129.15,1599.88 1117.5,1651.5C 1118.38,1652.25 1119.38,1652.75 1120.5,1653C 1135.93,1652.72 1149.93,1657.05 1162.5,1666C 1178.95,1676.12 1192.45,1689.29 1203,1705.5C 1209.97,1720.61 1208.64,1734.94 1199,1748.5C 1187.13,1761.37 1173.3,1771.54 1157.5,1779C 1145.62,1784.44 1133.62,1789.61 1121.5,1794.5C 1120.33,1818.83 1120.17,1843.16 1121,1867.5C 1143.17,1869.75 1163.34,1877.25 1181.5,1890C 1203.79,1908.62 1207.63,1930.46 1193,1955.5C 1181,1969.15 1166.17,1978.32 1148.5,1983C 1138.08,1986.38 1127.41,1988.55 1116.5,1989.5C 1116.33,2019.5 1116.5,2049.5 1117,2079.5C 1148.83,2080.25 1175.83,2091.92 1198,2114.5C 1203.54,2121.24 1205.88,2128.9 1205,2137.5C 1199.97,2148.53 1192.13,2157.03 1181.5,2163C 1161.82,2173.33 1141.16,2181.17 1119.5,2186.5C 1118.33,2217.49 1118.17,2248.49 1119,2279.5C 1141.3,2278.63 1162.47,2283.13 1182.5,2293C 1209.83,2314.62 1210.49,2337.29 1184.5,2361C 1165.03,2373.37 1143.69,2379.87 1120.5,2380.5C 1120.4,2422.17 1120.73,2463.84 1121.5,2505.5C 1141.23,2502.96 1160.56,2504.46 1179.5,2510C 1209.96,2522.41 1217.79,2543.24 1203,2572.5C 1188.48,2589.85 1169.98,2600.68 1147.5,2605C 1137.99,2606.77 1128.49,2608.27 1119,2609.5C 1115.19,2722.57 1062.02,2802.4 959.5,2849C 900.866,2874.99 839.533,2890.33 775.5,2895C 680.186,2902.39 588.519,2887.72 500.5,2851C 457.758,2832.57 420.925,2806.07 390,2771.5C 378.357,2757.5 368.69,2742.17 361,2725.5C 360.076,2717.83 359.243,2710.17 358.5,2702.5C 339.122,2702.16 320.122,2699.33 301.5,2694C 289.262,2689.09 279.429,2681.25 272,2670.5C 266.842,2657.85 267.509,2645.52 274,2633.5C 289.463,2611.5 310.296,2597 336.5,2590C 343.712,2587.86 351.045,2586.36 358.5,2585.5C 357.773,2556.84 357.44,2528.17 357.5,2499.5C 336.806,2492.82 317.806,2482.99 300.5,2470C 275.066,2447.95 275.399,2426.29 301.5,2405C 318.063,2392.97 335.896,2383.13 355,2375.5C 355.667,2344.17 355.667,2312.83 355,2281.5C 334.944,2276.72 316.444,2268.55 299.5,2257C 278.704,2239.73 276.537,2220.56 293,2199.5C 309.997,2183.78 330.164,2176.44 353.5,2177.5C 353.5,2146.17 353.5,2114.83 353.5,2083.5C 333.748,2080.08 315.081,2073.58 297.5,2064C 287.287,2058.24 281.287,2049.57 279.5,2038C 280.047,2032.4 281.881,2027.23 285,2022.5C 296.323,2009.1 309.489,1997.93 324.5,1989C 333.413,1984.29 342.247,1979.46 351,1974.5C 351.518,1938.16 351.351,1901.83 350.5,1865.5C 333.778,1867.1 317.112,1866.6 300.5,1864C 261.11,1853.48 251.61,1830.65 272,1795.5C 292.731,1772.64 318.564,1762.64 349.5,1765.5C 349.11,1712.5 348.777,1659.5 348.5,1606.5C 326.889,1601.2 306.223,1593.36 286.5,1583C 279.945,1579.45 275.112,1574.28 272,1567.5C 270.907,1560.53 271.907,1553.86 275,1547.5C 284.156,1529.18 294.322,1511.51 305.5,1494.5C 268.695,1462.93 231.695,1431.6 194.5,1400.5 Z"/></g>
</svg>
