<?xml version="1.0" encoding="UTF-8"?>
<svg version="1.1" xmlns="http://www.w3.org/2000/svg" width="1544" height="3694">
<path d="M0 0 C509.52 0 1019.04 0 1544 0 C1544 1219.02 1544 2438.04 1544 3694 C1034.48 3694 524.96 3694 0 3694 C0 2474.98 0 1255.96 0 0 Z M3 3 C3 879.15 3 1755.3 3 2658 C3.33 2658 3.66 2658 4 2658 C4.09704224 2656.64696777 4.09704224 2656.64696777 4.19604492 2655.26660156 C10.13100199 2574.38816509 28.60788093 2495.49216593 61 2421 C61.47228027 2419.8975293 61.94456055 2418.79505859 62.43115234 2417.65917969 C73.63545687 2391.51708281 86.23194468 2366.01204089 100.57421875 2341.44580078 C101.89611375 2339.17820761 103.20068869 2336.90167755 104.5 2334.62109375 C116.03469317 2314.51325403 128.5885542 2293.81113064 143.875 2276.3125 C193.92000776 2217.92665762 213.60524578 2131.81470273 219 2057 C219.08612549 2055.95585937 219.17225098 2054.91171875 219.26098633 2053.8359375 C220.26165472 2040.36300245 220.19929599 2026.87868036 220.1875 2013.375 C220.18659363 2011.4651683 220.18659363 2011.4651683 220.18566895 2009.51675415 C220.16168029 1990.91604195 219.85595128 1972.51866655 218 1954 C217.87434114 1952.66316291 217.74953987 1951.326245 217.62548828 1949.98925781 C212.93128574 1899.90797083 203.2626621 1850.49065408 190 1802 C189.82273376 1801.351521 189.64546753 1800.70304199 189.46282959 1800.03491211 C175.73461376 1749.99924077 157.66604113 1701.64523261 138.23672199 1653.59142494 C128.87299506 1630.43214096 119.83287765 1607.16731704 112 1583.4375 C111.75331573 1582.69274414 111.50663147 1581.94798828 111.25247192 1581.18066406 C89.85459269 1516.43988536 74.8016682 1449.72667311 67.75 1381.875 C67.67268646 1381.13711243 67.59537292 1380.39922485 67.51571655 1379.63897705 C66.94425441 1374.09784217 66.45717191 1368.55164284 66 1363 C65.8686969 1361.44640274 65.8686969 1361.44640274 65.73474121 1359.86141968 C64.0879458 1339.87572154 63.68297387 1320.01076156 63.73925781 1299.96899414 C63.75064179 1295.88448267 63.74386677 1291.80023228 63.73237991 1287.71572971 C63.68313501 1267.05804838 64.30488137 1246.59592534 66 1226 C66.07561157 1225.07283173 66.15122314 1224.14566345 66.22912598 1223.19039917 C66.66890913 1217.93169273 67.1823033 1212.6838338 67.75 1207.4375 C67.83203674 1206.66614716 67.91407349 1205.89479431 67.99859619 1205.10006714 C69.98230198 1186.62549575 72.82294616 1168.30335445 76 1150 C76.11645874 1149.32318176 76.23291748 1148.64636353 76.35290527 1147.94903564 C82.37872386 1113.00812084 91.4540917 1078.73185416 102.35015869 1045.01135254 C102.97000278 1043.09284572 103.58545549 1041.17292175 104.20068359 1039.25292969 C114.44622729 1007.55022829 127.62505749 976.85472485 142.09820557 946.87072754 C143.02090136 944.95664117 143.93945649 943.0406163 144.85693359 941.12402344 C149.15679461 932.14560708 153.50766376 923.19294253 157.89337158 914.25616455 C159.04237652 911.91360388 160.18892985 909.56985228 161.33544922 907.22607422 C174.54482523 880.25600707 188.24995114 854.323776 206 830 C206.58813477 829.18660156 207.17626953 828.37320313 207.78222656 827.53515625 C215.16121306 817.33111812 222.76900264 807.35346777 230.71728516 797.58691406 C232.52568276 795.34965019 234.28966482 793.07798917 236.0625 790.8125 C239.93283394 785.96854775 244.11207072 781.4274126 248.33203125 776.890625 C250.66687021 774.36093125 252.93472753 771.78991692 255.1875 769.1875 C258.84339704 765.06724507 262.7886048 761.53814495 267 758 C267.92296875 757.17757812 268.8459375 756.35515625 269.796875 755.5078125 C290.41400489 737.26680519 315.14580958 723.54435779 343.32421875 724.62109375 C359.71739999 725.69732853 374.62410237 732.23342239 387 743 C387.78632813 743.64324219 388.57265625 744.28648437 389.3828125 744.94921875 C400.29061288 754.19862315 408.4233161 765.60103792 415.04833984 778.19921875 C416.00563695 780.01066652 416.99580287 781.80138534 417.98828125 783.59375 C429.03015029 804.04532832 435.04566085 827.62199273 439.25 850.375 C439.41338867 851.22263916 439.57677734 852.07027832 439.74511719 852.94360352 C442.83374374 870.76247622 442.16845987 889.33687328 442.38787842 907.35464478 C442.47612015 914.39287242 442.58212121 921.43082098 442.69140625 928.46875 C442.70295242 929.21236597 442.7144986 929.95598194 442.72639465 930.72213173 C443.9489099 1008.58228031 446.53312653 1086.4336665 461 1263 C461.10701233 1263.76346741 461.21402466 1264.52693481 461.32427979 1265.3135376 C466.78703936 1303.95581968 475.26830359 1342.22075664 485 1380 C485.18264404 1380.70995117 485.36528809 1381.41990234 485.5534668 1382.15136719 C504.75349228 1456.58129879 528.14946013 1541.85230654 594 1618 C595.19109375 1619.2375 595.19109375 1619.2375 596.40625 1620.5 C603.94098153 1627.76239183 613.22679494 1633.34042982 623 1637 C624.27037109 1637.47759766 624.27037109 1637.47759766 625.56640625 1637.96484375 C634.33401772 1640.80027101 644.99431564 1641.75016644 653.75390625 1638.6875 C660.72773013 1635.06211863 663.9795474 1629.95640605 666.375 1622.5625 C670.3884564 1607.64067491 669.08991718 1592.78252068 667.125 1577.625 C667.01874298 1576.80220551 666.91248596 1575.97941101 666.80300903 1575.13168335 C664.3673776 1556.75985603 659.78875116 1539.19718463 654.68884277 1521.41137695 C653.56037218 1517.46102994 652.45608222 1513.50397328 651.3515625 1509.546875 C650.89535384 1507.91349038 650.43913624 1506.28010826 649.98291016 1504.64672852 C649.75097961 1503.81601837 649.51904907 1502.98530823 649.28009033 1502.12942505 C648.54713988 1499.50755461 647.81152354 1496.88644168 647.07568359 1494.26538086 C623.24338951 1409.22723071 601.43380515 1323.55906204 541 1065 C540.85845741 1064.32805855 540.71691483 1063.6561171 540.57108307 1062.96381378 C533.61297415 1029.90681584 527.38828032 996.76744619 522.35720825 963.35903931 C522.13110754 961.86584741 521.90118195 960.37322539 521.66598511 958.88143921 C520.07964274 948.81237912 519.63817807 938.9789138 519.6875 928.8125 C519.68899048 928.04852905 519.69048096 927.28455811 519.6920166 926.49743652 C519.73412991 914.45743019 520.35537655 902.78649682 523 891 C523.2168042 890.00613281 523.2168042 890.00613281 523.43798828 888.9921875 C529.86787742 860.39591419 544.37086947 832.55031761 569.4296875 816.1953125 C596.23615954 799.37993819 629.51426564 792.08969533 660.7265625 798.90234375 C706.99850713 810.23756275 739.72728699 843.03754283 764.12890625 882.40234375 C766.69243027 886.5332747 769.3476016 890.59234706 772.0625 894.625 C777.00950377 901.984694 781.82730696 909.42402562 786.63085938 916.87792969 C787.94368839 918.91272102 789.26007245 920.94515174 790.578125 922.9765625 C796.78856326 932.55035403 802.94571538 942.15763971 809.09204102 951.77270508 C812.91846234 957.75605962 816.75815756 963.73019801 820.625 969.6875 C826.54052532 978.80583276 832.3656136 987.98135202 838.19287109 997.15625 C839.98748199 999.98030129 841.78432842 1002.80291608 843.58203125 1005.625 C850.59415411 1016.63317528 857.58291787 1027.65568509 864.54541016 1038.6953125 C865.99081789 1040.98545164 867.43840684 1043.27419657 868.88671875 1045.5625 C876.3240722 1057.31658669 883.70258609 1069.10689582 891.06787109 1080.90625 C892.98762772 1083.98018935 894.90946258 1087.05281876 896.83203125 1090.125 C904.391947 1102.20688872 911.91961066 1114.30802343 919.41162109 1126.43212891 C921.00760397 1129.01229305 922.60682328 1131.59042318 924.20703125 1134.16796875 C930.44709158 1144.22328849 936.63355766 1154.30923663 942.77587891 1164.42456055 C946.58938329 1170.69908717 950.43782984 1176.95059307 954.3125 1183.1875 C965.98936461 1202.00737469 977.42160183 1220.97002893 988.70132446 1240.02993774 C994.34161156 1249.5593857 1000.0456281 1259.04666825 1005.8125 1268.5 C1012.22882088 1279.02098209 1018.49412723 1289.62096011 1024.67578125 1300.28125 C1027.89573317 1305.83282647 1031.16269807 1311.3556597 1034.4375 1316.875 C1045.91818759 1336.25684521 1057.06835904 1355.83198027 1068.23046875 1375.3984375 C1070.51789995 1379.40762201 1072.81053783 1383.41365426 1075.11328125 1387.4140625 C1081.48380304 1398.49151421 1087.70289964 1409.64804151 1093.85839844 1420.84594727 C1094.5422914 1422.09002097 1095.2262107 1423.3340802 1095.91015625 1424.578125 C1096.24961273 1425.1955809 1096.58906921 1425.8130368 1096.93881226 1426.44920349 C1099.25470516 1430.65732349 1101.58910012 1434.85461743 1103.93359375 1439.046875 C1110.26560077 1450.37127129 1116.52836571 1461.71359144 1122.44238281 1473.26318359 C1124.7201241 1477.69519498 1127.04397362 1482.09555481 1129.45800781 1486.45483398 C1137.77813578 1501.49606888 1145.56044402 1516.77806593 1153.23535156 1532.1550293 C1154.65363736 1534.99621177 1156.07647172 1537.83503387 1157.50390625 1540.67163086 C1165.16977814 1555.90630403 1172.67355071 1571.19115341 1179.6796875 1586.7421875 C1179.96200603 1587.36865614 1180.24432457 1587.99512478 1180.53519821 1588.64057732 C1195.63789788 1622.24377607 1207.71180935 1656.38603005 1217 1692 C1217.18929077 1692.72086792 1217.37858154 1693.44173584 1217.5736084 1694.18444824 C1242.25539269 1788.26465666 1253.9425531 1885.62338242 1273.75 2173.5 C1273.79825298 2174.95230263 1273.79825298 2174.95230263 1273.84748077 2176.4339447 C1274.52613295 2196.89437561 1275.07966827 2217.34018281 1275.05294418 2237.81315613 C1275.05080784 2240.37436598 1275.05443873 2242.9355005 1275.06008911 2245.4967041 C1275.0632591 2247.15209944 1275.06634251 2248.80749495 1275.06933594 2250.46289062 C1275.07091391 2251.26615028 1275.07249187 2252.06940994 1275.07411766 2252.8970108 C1275.07725084 2256.79063185 1275.05855698 2260.681876 1274.99084473 2264.57495117 C1273.79496805 2282.81213065 1273.79496805 2282.81213065 1280.66796875 2298.8984375 C1282.40385401 2300.64125828 1284.17752675 2302.3479367 1286 2304 C1287.15189932 2305.48090272 1288.26677202 2306.9919766 1289.328125 2308.5390625 C1290.05128906 2309.54743164 1290.05128906 2309.54743164 1290.7890625 2310.57617188 C1291.27117187 2311.25228516 1291.75328125 2311.92839844 1292.25 2312.625 C1296.78892169 2318.95017197 1301.37149084 2325.24008897 1306 2331.5 C1311.08224693 2338.37688907 1316.11002979 2345.29033336 1321.10546875 2352.23046875 C1325.03392016 2357.68083838 1329.00705268 2363.09674016 1333 2368.5 C1338.08205078 2375.3770356 1343.11002797 2382.29033083 1348.10546875 2389.23046875 C1352.03392105 2394.68083962 1356.00714521 2400.09667078 1360 2405.5 C1367.27959514 2415.3539512 1374.44830513 2425.28574596 1381.60449219 2435.22949219 C1387.6923875 2443.68593036 1393.80868741 2452.11888909 1400 2460.5 C1405.64519092 2468.14183209 1411.23235544 2475.82316187 1416.78125 2483.53515625 C1418.93674163 2486.53042427 1421.10400474 2489.51660343 1423.28125 2492.49609375 C1440.81294647 2516.52139717 1455.47770982 2541.51653149 1469 2568 C1469.36013184 2568.70366699 1469.72026367 2569.40733398 1470.09130859 2570.13232422 C1472.04504382 2573.96117939 1473.96173198 2577.80692012 1475.85400391 2581.66650391 C1476.69114928 2583.37111309 1477.53256324 2585.07362784 1478.37646484 2586.77490234 C1505.60940281 2641.7602556 1530.81457331 2702.07321362 1540 2763 C1540.33 2763 1540.66 2763 1541 2763 C1541 1852.2 1541 941.4 1541 3 C1033.46 3 525.92 3 3 3 Z M3 2727 C3 3045.12 3 3363.24 3 3691 C510.54 3691 1018.08 3691 1541 3691 C1541 3403.24 1541 3115.48 1541 2819 C1540.67 2819 1540.34 2819 1540 2819 C1539.91081299 2819.87060059 1539.91081299 2819.87060059 1539.81982422 2820.75878906 C1531.6076488 2898.40392457 1496.6655799 2950.59422585 1442.9362793 3004.1940918 C1440.5204938 3006.60411563 1438.10931844 3009.01869472 1435.69937992 3011.43456364 C1433.35541157 3013.78303831 1431.00761589 3016.12767131 1428.66015625 3018.47265625 C1427.80792984 3019.32690689 1426.95570343 3020.18115753 1426.07765198 3021.06129456 C1421.76980696 3025.35241402 1417.40299324 3029.50622556 1412.78041077 3033.45770264 C1409.54577857 3036.25973282 1406.47584083 3039.23932553 1403.375 3042.1875 C1397.12745724 3048.08901599 1390.72629083 3053.75362118 1384.1640625 3059.30078125 C1381.38149875 3061.65723897 1378.68339509 3064.09325207 1376 3066.5625 C1370.5465782 3071.50245026 1364.76630337 3075.98839605 1358.94677734 3080.48144531 C1356.96466147 3082.0275653 1355.00633775 3083.60014443 1353.05078125 3085.1796875 C1283.06227573 3141.31347654 1188.36130277 3176.82462058 1098 3173 C1096.64769287 3172.94634277 1096.64769287 3172.94634277 1095.26806641 3172.89160156 C1064.50157239 3171.48963593 1035.97445493 3162.72055521 1007 3153 C1006.33371582 3152.7771936 1005.66743164 3152.55438721 1004.98095703 3152.3248291 C967.8436475 3139.88008156 931.4055646 3125.14302272 895.41177368 3109.73506165 C890.68752465 3107.71386844 885.95294344 3105.71976416 881.20703125 3103.75 C843.67453805 3088.16332 806.58733528 3071.51283655 769.625 3054.625 C768.89960022 3054.29361023 768.17420044 3053.96222046 767.42681885 3053.62078857 C766.00989027 3052.97313173 764.59318944 3052.32497637 763.17672729 3051.67630005 C761.80432299 3051.04819383 760.43122472 3050.42160149 759.05740356 3049.79660034 C755.61341755 3048.22435827 752.19589376 3046.6140046 748.80371094 3044.93261719 C748.12617767 3044.6016806 747.44864441 3044.27074402 746.75057983 3043.92977905 C745.47014301 3043.30233793 744.19496426 3042.66400199 742.92642212 3042.0128479 C740.20315534 3040.68774841 738.3356781 3039.97462248 735.28735352 3040.20507812 C731.80592953 3041.41497422 728.72916571 3043.27083629 725.5625 3045.125 C683.40336487 3069.06563554 637.9787135 3086.19479048 591 3098 C589.81100098 3098.30099609 588.62200195 3098.60199219 587.39697266 3098.91210938 C504.20576957 3119.74044209 417.16265344 3123.66646165 160.99609375 3068.0546875 C151.53543707 3062.26542756 142.59124777 3056.01303667 134 3049 C132.99324219 3048.19691406 131.98648438 3047.39382813 130.94921875 3046.56640625 C117.38665153 3035.56886859 104.49199672 3022.96508403 94 3009 C93.49581543 3008.34515625 92.99163086 3007.6903125 92.47216797 3007.015625 C38.26958312 2936.55694945 14.39012822 2842.81611788 4 2727 C3.67 2727 3.34 2727 3 2727 Z " fill="#FEFEFE" transform="translate(0,0)"/>
<path d="M0 0 C0.54342041 0.7432251 1.08684082 1.4864502 1.64672852 2.25219727 C2.21834717 3.04295654 2.78996582 3.83371582 3.37890625 4.6484375 C4.62615472 6.35818043 5.87355481 8.06781276 7.12109375 9.77734375 C7.75499023 10.64891113 8.38888672 11.52047852 9.04199219 12.41845703 C11.43440416 15.69956703 13.84748323 18.96509474 16.26196289 22.22998047 C21.90910522 29.86767122 27.49795371 37.54505437 33.04711914 45.25415039 C36.97539505 50.70450687 40.94852661 56.12026924 44.94140625 61.5234375 C50.02345703 68.4004731 55.05143422 75.31376833 60.046875 82.25390625 C63.9753273 87.70427712 67.94855146 93.12010828 71.94140625 98.5234375 C79.22100139 108.3773887 86.38971138 118.30918346 93.54589844 128.25292969 C99.63379375 136.70936786 105.75009366 145.14232659 111.94140625 153.5234375 C118.13031615 161.90129591 124.24327995 170.33151507 130.328125 178.78515625 C132.50187477 181.80103668 134.68372762 184.81101725 136.86523438 187.82128906 C139.0359435 190.82121424 141.19741283 193.82775231 143.359375 196.83398438 C144.89717429 198.96222265 146.44935922 201.07929026 148.00390625 203.1953125 C155.8778865 214.00223542 162.51655068 225.30763861 168.94140625 237.0234375 C169.50166504 238.03180664 170.06192383 239.04017578 170.63916016 240.07910156 C195.02702614 284.03547173 215.50549575 330.52900305 231.94140625 378.0234375 C232.40957764 379.35979248 232.40957764 379.35979248 232.88720703 380.72314453 C236.72046734 391.69405162 239.98031657 402.78752188 242.94140625 414.0234375 C243.21597656 415.05597656 243.21597656 415.05597656 243.49609375 416.109375 C243.67398437 416.78226563 243.851875 417.45515625 244.03515625 418.1484375 C244.2662207 419.02242187 244.2662207 419.02242187 244.50195312 419.9140625 C245.35109168 423.27535836 246.14732973 426.64882605 246.94140625 430.0234375 C247.21476807 431.16901123 247.48812988 432.31458496 247.76977539 433.49487305 C250.0710402 444.27232932 250.37056844 454.73234132 250.27758789 465.73022461 C250.254076 468.68957142 250.25704247 471.64800547 250.26367188 474.60742188 C250.23929712 492.38151098 249.04757089 509.92929262 245.31640625 527.3359375 C245.05770752 528.55595459 244.79900879 529.77597168 244.5324707 531.03295898 C237.36852745 563.47843057 223.75575644 593.1329008 202.94140625 619.0234375 C202.46429199 619.61769531 201.98717773 620.21195313 201.49560547 620.82421875 C193.55030862 630.59138434 184.68667248 639.44353288 175.71923828 648.26025391 C171.10832809 652.80046731 166.62217194 657.36053258 162.43481445 662.296875 C158.75916845 666.54637124 154.72095172 670.39090754 150.44140625 674.0234375 C146.22603181 677.64602491 142.34977521 681.57726723 138.44140625 685.5234375 C134.12916489 689.87287141 129.83390619 694.14716304 125.1484375 698.09765625 C122.5714797 700.34622297 120.09250038 702.68603523 117.60546875 705.03320312 C111.82986149 710.48350444 106.00426945 715.74300388 99.79296875 720.69921875 C97.03663237 722.94582169 94.36604003 725.26455874 91.69921875 727.61547852 C83.74080861 734.6234613 75.49254935 741.14789744 66.99511719 747.48876953 C65.05602836 748.93778432 63.12698868 750.39926246 61.19921875 751.86328125 C31.63172038 774.1430998 -1.40343345 790.35533066 -36.05859375 803.0234375 C-37.02861328 803.38324707 -37.99863281 803.74305664 -38.99804688 804.11376953 C-75.23973773 817.43202738 -114.2930125 824.21247322 -152.84350586 824.20874023 C-155.35743188 824.21092562 -157.87091665 824.22916051 -160.38476562 824.24804688 C-175.07267227 824.30107148 -189.2830465 823.228485 -203.49609375 819.2734375 C-204.46345459 819.01320801 -205.43081543 818.75297852 -206.42749023 818.48486328 C-213.2281934 816.62142697 -219.94456749 814.54143202 -226.59741211 812.20410156 C-230.95413741 810.67770507 -235.33731426 809.36835804 -239.78515625 808.12890625 C-246.60317118 806.19995559 -253.2314463 803.9289268 -259.87109375 801.4609375 C-260.48009521 801.23578461 -261.08909668 801.01063171 -261.71655273 800.77865601 C-294.55262835 788.63094548 -327.14701873 775.87034515 -359.31835938 762.05664062 C-363.42112579 760.2950177 -367.52872967 758.54497395 -371.63769531 756.79786682 C-408.01660082 741.32805411 -444.18767851 725.39948601 -480.08935547 708.8515625 C-483.40232939 707.32470568 -486.71788531 705.80355743 -490.0344696 704.28456116 C-493.08509748 702.88702152 -496.13428019 701.48634255 -499.18359375 700.0859375 C-500.83016968 699.33195679 -500.83016968 699.33195679 -502.51000977 698.56274414 C-503.49799561 698.10762451 -504.48598145 697.65250488 -505.50390625 697.18359375 C-506.36516113 696.78793213 -507.22641602 696.39227051 -508.11376953 695.98461914 C-510.05859375 695.0234375 -510.05859375 695.0234375 -511.05859375 694.0234375 C-511.15631687 691.5319103 -511.18855193 689.06813242 -511.17884827 686.57615662 C-511.17970269 685.78717659 -511.18055712 684.99819656 -511.18143743 684.18530804 C-511.18309464 681.52122123 -511.17756696 678.85719632 -511.17211914 676.19311523 C-511.17183729 674.29151409 -511.17199495 672.38991284 -511.17256165 670.48831177 C-511.17284972 665.30877466 -511.16695138 660.12926049 -511.15998769 654.94972873 C-511.15375581 649.54315223 -511.15315048 644.13657526 -511.15196228 638.72999573 C-511.14884847 628.48418459 -511.14063442 618.23838407 -511.13061279 607.99257761 C-511.11945318 596.33135087 -511.11394159 584.67012364 -511.10891736 573.00889289 C-511.09845185 549.013735 -511.0806511 525.01858729 -511.05859375 501.0234375 C-520.62859375 501.0234375 -530.19859375 501.0234375 -540.05859375 501.0234375 C-540.02528458 503.4213707 -539.9919754 505.81930389 -539.95765686 508.28990173 C-539.65109991 530.87593915 -539.42789419 553.46170228 -539.28141117 576.0493536 C-539.20409606 587.66240048 -539.09871557 599.27391996 -538.92700195 610.88598633 C-538.77738767 621.00842815 -538.68069776 631.12976393 -538.64726633 641.2532807 C-538.62772471 646.61326483 -538.58189205 651.97008522 -538.4726429 657.32905388 C-538.37056702 662.37720604 -538.33946213 667.42090362 -538.36197853 672.46998978 C-538.35786225 674.31928452 -538.32815193 676.16873289 -538.27051163 678.01713371 C-537.86803925 691.59313241 -537.86803925 691.59313241 -541.50558543 695.62879872 C-545.06472023 698.47884112 -548.96471318 700.41562203 -553.14501464 702.18908226 C-556.10737292 703.48072426 -558.87226409 705.0704685 -561.69140625 706.6484375 C-563.85157706 707.78089217 -566.01571901 708.90580134 -568.18359375 710.0234375 C-569.34737549 710.62373779 -570.51115723 711.22403809 -571.71020508 711.8425293 C-588.75164869 720.56635968 -606.39745479 727.42400901 -624.34960938 734.01855469 C-626.7768669 734.91893248 -629.19316744 735.8416879 -631.60546875 736.78125 C-638.95510674 739.63672499 -646.29552086 742.02329246 -653.94921875 743.9609375 C-659.65585175 745.40880474 -665.29892675 747.08622156 -670.94799805 748.7421875 C-685.05753926 752.82861045 -699.23689979 755.9713401 -713.68359375 758.5859375 C-714.5088858 758.73718079 -715.33417786 758.88842407 -716.18447876 759.04425049 C-727.84992399 761.18016715 -739.51393469 763.08077978 -751.2890625 764.515625 C-754.97952251 764.89333653 -754.97952251 764.89333653 -758.05859375 766.0234375 C-785.75722145 769.88403055 -813.66014754 770.42088074 -841.57435989 770.39994431 C-844.02100663 770.3984603 -846.46763067 770.40055899 -848.91427612 770.40310669 C-930.55726609 770.43480138 -1030.7788146 765.08849166 -1099.05859375 715.0234375 C-1100.05761719 714.30671875 -1101.05664062 713.59 -1102.0859375 712.8515625 C-1107.94112173 708.56908223 -1113.44192188 704.04669628 -1118.76953125 699.125 C-1120.78107355 697.27822567 -1122.83861573 695.52356317 -1124.93359375 693.7734375 C-1165.93594458 657.7833981 -1191.91408565 599.35427809 -1205.38720703 547.55712891 C-1206.14482523 544.69801555 -1206.94183312 541.85134661 -1207.7421875 539.00390625 C-1211.6020544 525.17262932 -1214.82946132 511.33356819 -1217.46142578 497.21826172 C-1218.07349254 493.94372961 -1218.70362861 490.67302254 -1219.3359375 487.40234375 C-1220.63623929 480.61959528 -1221.86626823 473.82594747 -1223.05859375 467.0234375 C-1223.24309082 465.98123047 -1223.42758789 464.93902344 -1223.61767578 463.86523438 C-1230.37066587 424.9023795 -1230.84671993 385.45807793 -1230.05859375 346.0234375 C-1230.04268188 345.21944519 -1230.02677002 344.41545288 -1230.01037598 343.58709717 C-1229.21014835 307.05176754 -1223.54358774 269.54647947 -1215.05859375 234.0234375 C-1214.83961426 233.09208984 -1214.62063477 232.16074219 -1214.39501953 231.20117188 C-1213.03397245 225.45201008 -1211.58084292 219.73187188 -1210.05859375 214.0234375 C-1209.86974609 213.30816895 -1209.68089844 212.59290039 -1209.48632812 211.85595703 C-1198.35403012 169.91856291 -1183.40328552 129.32818414 -1165.05859375 90.0234375 C-1164.6104834 89.06018555 -1164.16237305 88.09693359 -1163.70068359 87.10449219 C-1156.69096124 72.09823039 -1149.20884929 57.44116851 -1141.05859375 43.0234375 C-1140.53072266 42.08209961 -1140.00285156 41.14076172 -1139.45898438 40.17089844 C-1136.70971419 35.28494933 -1133.89860404 30.45882686 -1130.95389003 25.68796492 C-1128.25631407 21.24126068 -1126.02617041 16.79477571 -1123.94526321 12.03146029 C-1120.11910871 4.06050652 -1115.5725791 -5.12765093 -1107.04536907 -8.85705252 C-1094.79527587 -12.65332071 -1081.07528586 -11.598115 -1068.42074203 -11.34369572 C-1062.76973991 -11.26016303 -1057.12037165 -11.33430357 -1051.4693101 -11.38801622 C-1041.57467494 -11.46051535 -1031.68426048 -11.43319766 -1021.78985786 -11.33977699 C-1011.18139978 -11.23991947 -1000.57489396 -11.19796006 -989.96613312 -11.22833824 C-989.2945742 -11.23022527 -988.62301527 -11.23211231 -987.93110608 -11.23405652 C-984.50643097 -11.24394578 -981.08175952 -11.25478286 -977.65708836 -11.26594605 C-952.90660713 -11.34461623 -928.1577949 -11.29235941 -903.40756798 -11.16929626 C-878.90257145 -11.04777202 -854.39841734 -10.9801439 -829.89310646 -10.98512268 C-829.13130921 -10.98525009 -828.36951195 -10.98537749 -827.58462993 -10.98550876 C-820.62642991 -10.98668209 -813.66823016 -10.98846089 -806.7100305 -10.99099118 C-789.41424504 -10.99723758 -772.1184667 -10.99471876 -754.82268238 -10.9860611 C-754.03516007 -10.9856728 -753.24763777 -10.98528449 -752.43625115 -10.98488443 C-714.14975045 -10.9651978 -675.86365655 -10.84360736 -637.57739258 -10.71533203 C-584.33317088 -10.53704264 -531.08949407 -10.42980941 -477.8449707 -10.40966797 C-476.18722043 -10.40902183 -474.52947015 -10.40837352 -472.87171988 -10.40772302 C-459.6691266 -10.40256998 -446.46653318 -10.39770277 -433.2639396 -10.39336773 C-376.34776797 -10.37458606 -319.43165242 -10.30203791 -262.51554738 -10.21572757 C-253.31395411 -10.201821 -244.11236001 -10.18893907 -234.91076419 -10.17684331 C-201.14104731 -10.13242702 -167.3714823 -10.07196489 -133.60192295 -9.9570955 C-130.88222897 -9.94789451 -128.16253483 -9.93874144 -125.44284058 -9.92962074 C-124.77536955 -9.92737028 -124.10789853 -9.92511981 -123.42020111 -9.92280114 C-113.48104177 -9.88964756 -103.54190885 -9.87024018 -93.60270119 -9.85858727 C-82.55622247 -9.84556676 -71.50995684 -9.81599081 -60.46359282 -9.76329361 C-54.89667646 -9.73718709 -49.33003715 -9.71900764 -43.76305386 -9.72235066 C-38.70591655 -9.72517138 -33.64941464 -9.70526179 -28.5924287 -9.6666388 C-26.76753054 -9.65674837 -24.94256338 -9.65533295 -23.11765498 -9.66310435 C-20.65051052 -9.67239342 -18.18546532 -9.6512547 -15.71851844 -9.62221098 C-14.65176787 -9.63723197 -14.65176787 -9.63723197 -13.56346679 -9.65255641 C-6.64551275 -9.50505804 -3.78578252 -5.21297527 0 0 Z " fill="#FEFEFE" transform="translate(1262.05859375,2319.9765625)"/>
<path d="M0 0 C509.52 0 1019.04 0 1544 0 C1544 1219.02 1544 2438.04 1544 3694 C1034.48 3694 524.96 3694 0 3694 C0 2474.98 0 1255.96 0 0 Z M3 3 C3 879.15 3 1755.3 3 2658 C3.33 2658 3.66 2658 4 2658 C4.09704224 2656.64696777 4.09704224 2656.64696777 4.19604492 2655.26660156 C10.13100199 2574.38816509 28.60788093 2495.49216593 61 2421 C61.47228027 2419.8975293 61.94456055 2418.79505859 62.43115234 2417.65917969 C73.63545687 2391.51708281 86.23194468 2366.01204089 100.57421875 2341.44580078 C101.89611375 2339.17820761 103.20068869 2336.90167755 104.5 2334.62109375 C116.03469317 2314.51325403 128.5885542 2293.81113064 143.875 2276.3125 C193.92000776 2217.92665762 213.60524578 2131.81470273 219 2057 C219.08612549 2055.95585937 219.17225098 2054.91171875 219.26098633 2053.8359375 C220.26165472 2040.36300245 220.19929599 2026.87868036 220.1875 2013.375 C220.18659363 2011.4651683 220.18659363 2011.4651683 220.18566895 2009.51675415 C220.16168029 1990.91604195 219.85595128 1972.51866655 218 1954 C217.87434114 1952.66316291 217.74953987 1951.326245 217.62548828 1949.98925781 C212.93128574 1899.90797083 203.2626621 1850.49065408 190 1802 C189.82273376 1801.351521 189.64546753 1800.70304199 189.46282959 1800.03491211 C175.73461376 1749.99924077 157.66604113 1701.64523261 138.23672199 1653.59142494 C128.87299506 1630.43214096 119.83287765 1607.16731704 112 1583.4375 C111.75331573 1582.69274414 111.50663147 1581.94798828 111.25247192 1581.18066406 C89.85459269 1516.43988536 74.8016682 1449.72667311 67.75 1381.875 C67.67268646 1381.13711243 67.59537292 1380.39922485 67.51571655 1379.63897705 C66.94425441 1374.09784217 66.45717191 1368.55164284 66 1363 C65.8686969 1361.44640274 65.8686969 1361.44640274 65.73474121 1359.86141968 C64.0879458 1339.87572154 63.68297387 1320.01076156 63.73925781 1299.96899414 C63.75064179 1295.88448267 63.74386677 1291.80023228 63.73237991 1287.71572971 C63.68313501 1267.05804838 64.30488137 1246.59592534 66 1226 C66.07561157 1225.07283173 66.15122314 1224.14566345 66.22912598 1223.19039917 C66.66890913 1217.93169273 67.1823033 1212.6838338 67.75 1207.4375 C67.83203674 1206.66614716 67.91407349 1205.89479431 67.99859619 1205.10006714 C69.98230198 1186.62549575 72.82294616 1168.30335445 76 1150 C76.11645874 1149.32318176 76.23291748 1148.64636353 76.35290527 1147.94903564 C82.37872386 1113.00812084 91.4540917 1078.73185416 102.35015869 1045.01135254 C102.97000278 1043.09284572 103.58545549 1041.17292175 104.20068359 1039.25292969 C114.44622729 1007.55022829 127.62505749 976.85472485 142.09820557 946.87072754 C143.02090136 944.95664117 143.93945649 943.0406163 144.85693359 941.12402344 C149.15679461 932.14560708 153.50766376 923.19294253 157.89337158 914.25616455 C159.04237652 911.91360388 160.18892985 909.56985228 161.33544922 907.22607422 C174.54482523 880.25600707 188.24995114 854.323776 206 830 C206.58813477 829.18660156 207.17626953 828.37320313 207.78222656 827.53515625 C215.16121306 817.33111812 222.76900264 807.35346777 230.71728516 797.58691406 C232.52568276 795.34965019 234.28966482 793.07798917 236.0625 790.8125 C239.93283394 785.96854775 244.11207072 781.4274126 248.33203125 776.890625 C250.66687021 774.36093125 252.93472753 771.78991692 255.1875 769.1875 C258.84339704 765.06724507 262.7886048 761.53814495 267 758 C267.92296875 757.17757812 268.8459375 756.35515625 269.796875 755.5078125 C290.41400489 737.26680519 315.14580958 723.54435779 343.32421875 724.62109375 C359.71739999 725.69732853 374.62410237 732.23342239 387 743 C387.78632813 743.64324219 388.57265625 744.28648437 389.3828125 744.94921875 C400.29061288 754.19862315 408.4233161 765.60103792 415.04833984 778.19921875 C416.00563695 780.01066652 416.99580287 781.80138534 417.98828125 783.59375 C429.03015029 804.04532832 435.04566085 827.62199273 439.25 850.375 C439.41338867 851.22263916 439.57677734 852.07027832 439.74511719 852.94360352 C442.83374374 870.76247622 442.16845987 889.33687328 442.38787842 907.35464478 C442.47612015 914.39287242 442.58212121 921.43082098 442.69140625 928.46875 C442.70295242 929.21236597 442.7144986 929.95598194 442.72639465 930.72213173 C443.9489099 1008.58228031 446.53312653 1086.4336665 461 1263 C461.10701233 1263.76346741 461.21402466 1264.52693481 461.32427979 1265.3135376 C466.78703936 1303.95581968 475.26830359 1342.22075664 485 1380 C485.18264404 1380.70995117 485.36528809 1381.41990234 485.5534668 1382.15136719 C504.75349228 1456.58129879 528.14946013 1541.85230654 594 1618 C595.19109375 1619.2375 595.19109375 1619.2375 596.40625 1620.5 C603.94098153 1627.76239183 613.22679494 1633.34042982 623 1637 C624.27037109 1637.47759766 624.27037109 1637.47759766 625.56640625 1637.96484375 C634.33401772 1640.80027101 644.99431564 1641.75016644 653.75390625 1638.6875 C660.72773013 1635.06211863 663.9795474 1629.95640605 666.375 1622.5625 C670.3884564 1607.64067491 669.08991718 1592.78252068 667.125 1577.625 C667.01874298 1576.80220551 666.91248596 1575.97941101 666.80300903 1575.13168335 C664.3673776 1556.75985603 659.78875116 1539.19718463 654.68884277 1521.41137695 C653.56037218 1517.46102994 652.45608222 1513.50397328 651.3515625 1509.546875 C650.89535384 1507.91349038 650.43913624 1506.28010826 649.98291016 1504.64672852 C649.75097961 1503.81601837 649.51904907 1502.98530823 649.28009033 1502.12942505 C648.54713988 1499.50755461 647.81152354 1496.88644168 647.07568359 1494.26538086 C623.24338951 1409.22723071 601.43380515 1323.55906204 541 1065 C540.85845741 1064.32805855 540.71691483 1063.6561171 540.57108307 1062.96381378 C533.61297415 1029.90681584 527.38828032 996.76744619 522.35720825 963.35903931 C522.13110754 961.86584741 521.90118195 960.37322539 521.66598511 958.88143921 C520.07964274 948.81237912 519.63817807 938.9789138 519.6875 928.8125 C519.68899048 928.04852905 519.69048096 927.28455811 519.6920166 926.49743652 C519.73412991 914.45743019 520.35537655 902.78649682 523 891 C523.2168042 890.00613281 523.2168042 890.00613281 523.43798828 888.9921875 C529.86787742 860.39591419 544.37086947 832.55031761 569.4296875 816.1953125 C596.23615954 799.37993819 629.51426564 792.08969533 660.7265625 798.90234375 C706.99850713 810.23756275 739.72728699 843.03754283 764.12890625 882.40234375 C766.69243027 886.5332747 769.3476016 890.59234706 772.0625 894.625 C777.00950377 901.984694 781.82730696 909.42402562 786.63085938 916.87792969 C787.94368839 918.91272102 789.26007245 920.94515174 790.578125 922.9765625 C796.78856326 932.55035403 802.94571538 942.15763971 809.09204102 951.77270508 C812.91846234 957.75605962 816.75815756 963.73019801 820.625 969.6875 C826.54052532 978.80583276 832.3656136 987.98135202 838.19287109 997.15625 C839.98748199 999.98030129 841.78432842 1002.80291608 843.58203125 1005.625 C850.59415411 1016.63317528 857.58291787 1027.65568509 864.54541016 1038.6953125 C865.99081789 1040.98545164 867.43840684 1043.27419657 868.88671875 1045.5625 C876.3240722 1057.31658669 883.70258609 1069.10689582 891.06787109 1080.90625 C892.98762772 1083.98018935 894.90946258 1087.05281876 896.83203125 1090.125 C904.391947 1102.20688872 911.91961066 1114.30802343 919.41162109 1126.43212891 C921.00760397 1129.01229305 922.60682328 1131.59042318 924.20703125 1134.16796875 C930.44709158 1144.22328849 936.63355766 1154.30923663 942.77587891 1164.42456055 C946.58938329 1170.69908717 950.43782984 1176.95059307 954.3125 1183.1875 C965.98936461 1202.00737469 977.42160183 1220.97002893 988.70132446 1240.02993774 C994.34161156 1249.5593857 1000.0456281 1259.04666825 1005.8125 1268.5 C1012.22882088 1279.02098209 1018.49412723 1289.62096011 1024.67578125 1300.28125 C1027.89573317 1305.83282647 1031.16269807 1311.3556597 1034.4375 1316.875 C1045.91818759 1336.25684521 1057.06835904 1355.83198027 1068.23046875 1375.3984375 C1070.51789995 1379.40762201 1072.81053783 1383.41365426 1075.11328125 1387.4140625 C1081.48380304 1398.49151421 1087.70289964 1409.64804151 1093.85839844 1420.84594727 C1094.5422914 1422.09002097 1095.2262107 1423.3340802 1095.91015625 1424.578125 C1096.24961273 1425.1955809 1096.58906921 1425.8130368 1096.93881226 1426.44920349 C1099.25470516 1430.65732349 1101.58910012 1434.85461743 1103.93359375 1439.046875 C1110.26560077 1450.37127129 1116.52836571 1461.71359144 1122.44238281 1473.26318359 C1124.7201241 1477.69519498 1127.04397362 1482.09555481 1129.45800781 1486.45483398 C1137.77813578 1501.49606888 1145.56044402 1516.77806593 1153.23535156 1532.1550293 C1154.65363736 1534.99621177 1156.07647172 1537.83503387 1157.50390625 1540.67163086 C1165.16977814 1555.90630403 1172.67355071 1571.19115341 1179.6796875 1586.7421875 C1179.96200603 1587.36865614 1180.24432457 1587.99512478 1180.53519821 1588.64057732 C1195.63789788 1622.24377607 1207.71180935 1656.38603005 1217 1692 C1217.18929077 1692.72086792 1217.37858154 1693.44173584 1217.5736084 1694.18444824 C1242.25539269 1788.26465666 1253.9425531 1885.62338242 1273.75 2173.5 C1273.79825298 2174.95230263 1273.79825298 2174.95230263 1273.84748077 2176.4339447 C1274.52613295 2196.89437561 1275.07966827 2217.34018281 1275.05294418 2237.81315613 C1275.05080784 2240.37436598 1275.05443873 2242.9355005 1275.06008911 2245.4967041 C1275.0632591 2247.15209944 1275.06634251 2248.80749495 1275.06933594 2250.46289062 C1275.07091391 2251.26615028 1275.07249187 2252.06940994 1275.07411766 2252.8970108 C1275.07725084 2256.79063185 1275.05855698 2260.681876 1274.99084473 2264.57495117 C1273.79496805 2282.81213065 1273.79496805 2282.81213065 1280.66796875 2298.8984375 C1282.40385401 2300.64125828 1284.17752675 2302.3479367 1286 2304 C1287.15189932 2305.48090272 1288.26677202 2306.9919766 1289.328125 2308.5390625 C1290.05128906 2309.54743164 1290.05128906 2309.54743164 1290.7890625 2310.57617188 C1291.27117187 2311.25228516 1291.75328125 2311.92839844 1292.25 2312.625 C1296.78892169 2318.95017197 1301.37149084 2325.24008897 1306 2331.5 C1311.08224693 2338.37688907 1316.11002979 2345.29033336 1321.10546875 2352.23046875 C1325.03392016 2357.68083838 1329.00705268 2363.09674016 1333 2368.5 C1338.08205078 2375.3770356 1343.11002797 2382.29033083 1348.10546875 2389.23046875 C1352.03392105 2394.68083962 1356.00714521 2400.09667078 1360 2405.5 C1367.27959514 2415.3539512 1374.44830513 2425.28574596 1381.60449219 2435.22949219 C1387.6923875 2443.68593036 1393.80868741 2452.11888909 1400 2460.5 C1405.64519092 2468.14183209 1411.23235544 2475.82316187 1416.78125 2483.53515625 C1418.93674163 2486.53042427 1421.10400474 2489.51660343 1423.28125 2492.49609375 C1440.81294647 2516.52139717 1455.47770982 2541.51653149 1469 2568 C1469.36013184 2568.70366699 1469.72026367 2569.40733398 1470.09130859 2570.13232422 C1472.04504382 2573.96117939 1473.96173198 2577.80692012 1475.85400391 2581.66650391 C1476.69114928 2583.37111309 1477.53256324 2585.07362784 1478.37646484 2586.77490234 C1505.60940281 2641.7602556 1530.81457331 2702.07321362 1540 2763 C1540.33 2763 1540.66 2763 1541 2763 C1541 1852.2 1541 941.4 1541 3 C1033.46 3 525.92 3 3 3 Z M331.69140625 753.18359375 C310.99254339 756.01092578 293.40224457 772.07029698 279 786 C278.12730469 786.83273437 277.25460937 787.66546875 276.35546875 788.5234375 C271.29923968 793.44762987 266.72820841 798.59779208 262.328125 804.11328125 C260.32225696 806.600423 258.26099557 809.02401391 256.16577148 811.43579102 C249.18615245 819.50333912 242.93210096 828.06797429 236.67382812 836.70019531 C235.13306985 838.81716483 233.57867214 840.92289569 232.015625 843.0234375 C214.26692405 866.89440496 200.45070207 892.55344993 187.23719406 919.13868713 C186.17301454 921.27913547 185.10697558 923.4186494 184.04055786 925.5579834 C174.23889605 945.23009087 164.49154015 964.90771272 155.81610107 985.10858154 C154.95198189 987.11128811 154.07686036 989.10892676 153.19970703 991.10595703 C145.30507661 1009.11359383 138.27798218 1027.32407081 131.9375 1045.9375 C131.6295752 1046.83941071 131.32165039 1047.74132141 131.00439453 1048.67056274 C126.58810353 1061.66779397 122.64525493 1074.7667712 119 1088 C118.66621338 1089.20986572 118.33242676 1090.41973145 117.98852539 1091.66625977 C110.59084426 1118.91014822 104.66911619 1146.34871142 100.54980469 1174.27636719 C100.19654814 1176.66884894 99.83584586 1179.06024966 99.46582031 1181.45019531 C90.80962128 1237.49624195 89.84736968 1294.59126142 93.3125 1351.125 C93.37108185 1352.08819153 93.4296637 1353.05138306 93.49002075 1354.04376221 C94.37986578 1368.1163893 96.03629633 1382.04001035 98 1396 C98.19990036 1397.42976418 98.19990036 1397.42976418 98.40383911 1398.88841248 C99.10108861 1403.86960203 99.80157795 1408.8501784 100.53344727 1413.82641602 C100.7915909 1415.58236006 101.04870219 1417.33846027 101.30148315 1419.09518433 C103.09084004 1431.52189867 105.15038837 1443.86648614 107.5625 1456.1875 C107.73063202 1457.04986267 107.89876404 1457.91222534 108.07199097 1458.80072021 C113.20998985 1485.0007245 119.10860388 1511.23156373 127.33203125 1536.65234375 C128.5513949 1540.44133753 129.62174144 1544.25512886 130.65734863 1548.09707642 C133.5847616 1558.92087701 137.09187506 1569.48806689 140.8125 1580.0625 C141.2967897 1581.44553314 141.2967897 1581.44553314 141.79086304 1582.85650635 C150.35764619 1607.27813417 159.87783888 1631.30968758 169.5546875 1655.30859375 C182.0017609 1686.18567956 193.53418273 1717.18565517 203.9375 1748.8125 C204.24924164 1749.75479462 204.56098328 1750.69708923 204.88217163 1751.66793823 C208.92154957 1763.91291858 212.48268248 1776.20841673 215.63671875 1788.71118164 C216.99085183 1794.05221272 218.51234382 1799.33812633 220.0625 1804.625 C231.79436939 1845.28731069 238.98656946 1887.23617816 243.80126953 1929.22842407 C243.96922794 1930.68893627 244.13915013 1932.14922469 244.31152344 1933.60922241 C247.4016768 1959.93020868 248.38430086 1986.21528396 248.3125 2012.6875 C248.31027468 2014.1463724 248.30809831 2015.60524488 248.30596924 2017.06411743 C248.26267331 2038.49764444 247.89379307 2059.72841564 245 2081 C244.89582764 2081.7754718 244.79165527 2082.5509436 244.68432617 2083.34991455 C242.08166085 2102.59321707 239.08006795 2121.75307853 234.55712891 2140.64941406 C234.01762462 2142.92563988 233.50971263 2145.20656209 233.01171875 2147.4921875 C230.6460108 2158.20395788 227.44633111 2168.59072041 224 2179 C223.76482666 2179.71365723 223.52965332 2180.42731445 223.28735352 2181.16259766 C212.303784 2214.33157182 198.81134143 2245.86995657 179.65625 2275.18945312 C179.17671875 2275.92615234 178.6971875 2276.66285156 178.203125 2277.421875 C177.56358887 2278.39012207 177.56358887 2278.39012207 176.91113281 2279.37792969 C175.83675407 2280.98054821 175.83675407 2280.98054821 176 2283 C529.43 2283 882.86 2283 1247 2283 C1247.03826741 2240.33583444 1247.03826741 2240.33583444 1246.19289017 2197.70742416 C1246.0983606 2194.63382942 1246.00891838 2191.56009175 1245.91905308 2188.48635769 C1245.65109066 2179.34361104 1245.36441299 2170.2015303 1245.06693268 2161.05970001 C1245.0027318 2159.08406498 1244.93918701 2157.10840865 1244.87567139 2155.13275146 C1244.06285981 2129.97835002 1242.92805229 2104.87938321 1241.10351562 2079.77709961 C1240.31444517 2068.89621072 1239.67275155 2058.0213715 1239.17214966 2047.12353516 C1237.76883261 2016.74658374 1235.2617502 1986.39598778 1231.703125 1956.1953125 C1231.05655297 1950.65705211 1230.53503577 1945.11208628 1230.03027344 1939.55932617 C1226.67617098 1902.89592849 1221.63237858 1866.37692314 1216 1830 C1215.86400391 1829.12085938 1215.72800781 1828.24171875 1215.58789062 1827.3359375 C1210.06586821 1791.73815579 1203.64679116 1756.52348983 1194.88720703 1721.57421875 C1193.862266 1717.44512226 1192.88494228 1713.30634627 1191.91918945 1709.16308594 C1189.55405128 1699.02487597 1186.92268215 1688.99144998 1184 1679 C1183.72849121 1678.06124023 1183.45698242 1677.12248047 1183.17724609 1676.15527344 C1175.2446571 1648.90150828 1164.94369662 1622.73268149 1153 1597 C1152.6803125 1596.31055298 1152.360625 1595.62110596 1152.03125 1594.9107666 C1138.23457946 1565.19165956 1124.20573954 1535.43222215 1108.28149414 1506.78295898 C1104.39273082 1499.78399954 1100.71793536 1492.68570773 1097.0625 1485.5625 C1092.18604162 1476.08242952 1087.11728716 1466.74586181 1081.82446289 1457.49243164 C1077.95032599 1450.71313277 1074.19823381 1443.87670685 1070.5 1437 C1060.01705646 1417.54334269 1048.96477549 1398.41411193 1037.8984375 1379.28515625 C1036.03280908 1376.05677456 1034.17180547 1372.82577673 1032.3125 1369.59375 C1018.43943367 1345.48476463 1004.33788499 1321.51301494 990.13476562 1297.59716797 C988.2470014 1294.41741158 986.36264765 1291.23564456 984.47894287 1288.05348206 C975.34752746 1272.6283997 966.15641352 1257.24533218 956.80273438 1241.95361328 C954.8363502 1238.73187496 952.87791526 1235.50536723 950.921875 1232.27734375 C942.00008231 1217.55504562 933.02063946 1202.86992023 923.98388672 1188.21777344 C921.32037992 1183.89768733 918.66065505 1179.57527949 916.0012207 1175.25268555 C914.6705825 1173.08993176 913.3396919 1170.92733325 912.00854492 1168.76489258 C908.62200002 1163.26336472 905.23828326 1157.7601281 901.859375 1152.25390625 C895.46539039 1141.8391807 889.05257496 1131.43953542 882.50683594 1121.11938477 C878.47601102 1114.76397252 874.48431623 1108.38465814 870.5 1102 C864.51441899 1092.41200002 858.49635337 1082.84525343 852.45166016 1073.29443359 C849.96526464 1069.36454038 847.48290266 1065.43210051 845 1061.5 C843.99740203 1059.9127565 842.99479788 1058.32551691 841.9921875 1056.73828125 C840.01720022 1053.61132514 838.04331714 1050.48367617 836.0703125 1047.35546875 C828.99954619 1036.14735182 821.89317877 1024.96221733 814.7734375 1013.78515625 C813.03529282 1011.05542684 811.29861894 1008.32476815 809.5625 1005.59375 C796.95620357 985.76489067 784.30996072 965.96363626 771.48193359 946.27734375 C769.14730221 942.68962686 766.82348708 939.09494031 764.5 935.5 C759.959703 928.47692237 755.40592331 921.46268323 750.8425293 914.45458984 C748.24254406 910.45978264 745.65010689 906.46072159 743.08203125 902.4453125 C721.78607477 869.17781624 697.42216492 839.23858403 658 828 C656.79859375 827.63132812 655.5971875 827.26265625 654.359375 826.8828125 C648.70667125 825.50350649 642.97175626 825.71017724 637.1875 825.75 C636.07568359 825.74226562 634.96386719 825.73453125 633.81835938 825.7265625 C610.91661642 825.78016518 590.39223442 834.05918252 573.8828125 850.05078125 C554.55306825 870.62154021 547.59168876 899.11868007 547.625 926.625 C547.62454681 927.28831329 547.62409363 927.95162659 547.62362671 928.63504028 C547.6538744 943.90330378 549.84198333 958.67268247 552.69628906 973.65478516 C554.5446683 983.35817053 556.16178703 993.08205117 557.70288086 1002.83862305 C561.63874995 1027.6534923 566.22751538 1052.3340407 571 1077 C571.16326782 1077.84556458 571.32653564 1078.69112915 571.49475098 1079.56231689 C575.11989187 1098.32016171 579.04957756 1116.98420379 583.3203125 1135.60546875 C584.92946474 1142.63931721 586.44454982 1149.69071675 587.9375 1156.75 C592.53366215 1178.3865769 597.39621774 1199.97250463 602.84936523 1221.41015625 C604.68943062 1228.66766986 606.3956639 1235.9508838 608.0625 1243.25 C611.40988476 1257.88143285 614.95401102 1272.42940699 619.05712891 1286.86791992 C620.86219429 1293.30868964 622.40729156 1299.80170035 623.9375 1306.3125 C625.9647879 1314.9174557 628.19234886 1323.42288036 630.67944336 1331.90551758 C632.76748126 1339.06730506 634.65079867 1346.27318966 636.5 1353.5 C639.23278393 1364.15658905 642.16080515 1374.73843101 645.22314453 1385.30419922 C646.65092967 1390.25882006 648.04539992 1395.2227537 649.4375 1400.1875 C649.73011719 1401.23035156 650.02273438 1402.27320313 650.32421875 1403.34765625 C652.13673787 1409.83456677 653.89648209 1416.33384474 655.62719727 1422.84301758 C658.34595022 1433.06628916 661.23300817 1443.2063105 664.37280273 1453.30810547 C666.61408466 1460.57770372 668.61895538 1467.89569998 670.5625 1475.25 C673.0197314 1484.54215508 675.72178178 1493.70938834 678.671875 1502.85546875 C680.37233451 1508.12809073 681.91648992 1513.43818158 683.38574219 1518.77978516 C683.85289907 1520.4683085 684.32597221 1522.15519629 684.80175781 1523.84130859 C688.64255232 1537.4687833 692.24842277 1550.93477296 694 1565 C694.10151367 1565.7748877 694.20302734 1566.54977539 694.30761719 1567.34814453 C697.01383554 1588.65214424 698.59948194 1611.29846719 692 1632 C691.61457031 1633.20914063 691.22914063 1634.41828125 690.83203125 1635.6640625 C686.64273281 1647.4591746 680.3860165 1657.28433027 669.0625 1663.25 C667.71324451 1663.84460472 666.35846606 1664.42675041 665 1665 C664.3709375 1665.2678833 663.741875 1665.5357666 663.09375 1665.81176758 C656.39991063 1668.35011652 650.04078481 1668.50121552 642.9375 1668.4375 C641.73883301 1668.42847656 640.54016602 1668.41945313 639.30517578 1668.41015625 C611.31830458 1667.86562045 589.57207621 1653.9010336 570 1635 C569.22140625 1634.27296875 568.4428125 1633.5459375 567.640625 1632.796875 C524.23535306 1591.23863591 502.21366145 1527.59017851 482.68273926 1472.265625 C482.07208051 1470.53682379 481.45975815 1468.8086091 480.84558105 1467.08105469 C476.97351327 1456.1720174 473.54594879 1445.23503537 470.56137085 1434.05093384 C469.59967362 1430.53743222 468.54857565 1427.05086473 467.5 1423.5625 C465.54160112 1416.96692614 463.73228586 1410.34242536 462.0090332 1403.68164062 C460.84897719 1399.20301643 459.65585928 1394.73689074 458.41015625 1390.28125 C447.62515669 1351.51547871 439.16940502 1311.42402146 433.5625 1271.5625 C433.44398682 1270.72235352 433.32547363 1269.88220703 433.20336914 1269.01660156 C430.44046942 1248.97721415 428.0261432 1228.86933156 426.59545898 1208.68847656 C426.52915283 1207.75487305 426.46284668 1206.82126953 426.39453125 1205.859375 C426.31489136 1204.66006348 426.31489136 1204.66006348 426.23364258 1203.43652344 C426.02564303 1200.93445921 426.02564303 1200.93445921 425.51345825 1198.22531128 C425.01929266 1195.12118774 424.74292064 1192.09463648 424.55102539 1188.95849609 C424.4774733 1187.77959808 424.4039212 1186.60070007 424.32814026 1185.38607788 C424.25208054 1184.11140656 424.17602081 1182.83673523 424.09765625 1181.5234375 C424.01437437 1180.15767342 423.93090954 1178.79192049 423.84727478 1177.42617798 C423.67125488 1174.53961092 423.49754443 1171.65291633 423.32543945 1168.76611328 C423.1135498 1165.21492508 422.89608497 1161.66410833 422.6768198 1158.11336899 C420.29260192 1119.40060178 418.76664791 1080.65760847 417.53027344 1041.89300537 C417.40600268 1038.01780157 417.2789463 1034.1426912 417.15185356 1030.26757908 C415.97014912 994.22182981 414.92646981 958.18922842 414.44775391 922.12670898 C414.2550424 907.85633337 414.01211943 893.58933006 413.5703125 879.32421875 C413.53820679 878.16358414 413.50610107 877.00294952 413.47302246 875.80714417 C412.1522144 836.59877151 399.18056402 794.09171295 370.55859375 766.25390625 C361.46181561 758.24040856 348.89536008 751.99880235 336.58984375 752.72265625 C334.95914206 752.89728645 333.32627013 753.05357919 331.69140625 753.18359375 Z M1246.7126708 2310.85114551 C1245.9477863 2310.84720761 1245.1829018 2310.84326972 1244.39483899 2310.8392125 C1241.79970846 2310.82710452 1239.20461218 2310.82217078 1236.60945892 2310.81715012 C1234.7348973 2310.80993397 1232.86033728 2310.80229117 1230.98577899 2310.79425746 C1225.79020292 2310.7733241 1220.59462504 2310.75875004 1215.39902506 2310.74523626 C1209.76316788 2310.72958033 1204.12733081 2310.70841401 1198.49148893 2310.68808007 C1187.29319899 2310.64870654 1176.09489809 2310.61523916 1164.89658334 2310.58380062 C1155.58274125 2310.55756419 1146.26890766 2310.5291115 1136.95507622 2310.49937248 C1071.19603215 2310.290084 1005.43691811 2310.14450606 939.6776123 2310.04937744 C938.90340549 2310.04825553 938.12919867 2310.04713363 937.33153104 2310.04597772 C902.05676719 2309.994953 866.78199861 2309.95151869 831.50721446 2309.91731379 C816.64755924 2309.90287962 801.78790511 2309.88741117 786.92825158 2309.87133765 C784.43931753 2309.86865167 781.95038346 2309.86599581 779.46144938 2309.86334093 C727.0277424 2309.80703672 674.59473372 2309.66428441 622.16136253 2309.47183765 C583.8985564 2309.33143413 545.63594452 2309.20498696 507.3728714 2309.17311478 C506.19215378 2309.17212119 506.19215378 2309.17212119 504.98758328 2309.17110752 C487.70626567 2309.15682527 470.42495313 2309.14990743 453.14362987 2309.14994433 C446.18985406 2309.14983378 439.23607849 2309.14868657 432.28230286 2309.14719391 C431.52125559 2309.14705633 430.76020833 2309.14691875 429.97609903 2309.146777 C405.47180422 2309.14183971 380.96873471 2309.05176681 356.46483743 2308.91699928 C331.77393263 2308.7816113 307.0844003 2308.73078209 282.39316705 2308.79663184 C278.97789342 2308.80572037 275.56261813 2308.8138485 272.14734077 2308.82139778 C271.47787608 2308.82291263 270.80841139 2308.82442747 270.11865989 2308.82598822 C258.8929323 2308.84875065 247.6695307 2308.76461486 236.44435473 2308.65176505 C226.66916562 2308.56091465 216.89721664 2308.56824475 207.12199931 2308.65503642 C201.5509988 2308.70170219 195.98900113 2308.70605124 190.41880196 2308.59052047 C168.87458928 2307.15473673 168.87458928 2307.15473673 149.54359281 2314.58174449 C143.60770903 2320.49638318 139.96945327 2327.78278704 136.63956445 2335.39915302 C134.3638295 2340.39717143 131.58157568 2345.00049834 128.75059059 2349.69964622 C125.69149069 2354.81030422 122.83252133 2360.03021995 119.96356201 2365.24932861 C119.0042479 2366.99228211 118.03948798 2368.73223459 117.07470703 2370.47216797 C96.95743957 2406.84332558 80.86286314 2444.84069059 67 2484 C66.65598145 2484.96341309 66.31196289 2485.92682617 65.95751953 2486.91943359 C61.04617462 2500.75318082 57.31549568 2514.81556311 53.74609375 2529.04833984 C52.80487047 2532.77196205 51.81477662 2536.47985955 50.8125 2540.1875 C50.20767462 2542.45815798 49.6034863 2544.72898576 49 2547 C48.68546875 2548.16789062 48.3709375 2549.33578125 48.046875 2550.5390625 C27.26345894 2630.20882405 26.66106404 2716.0995536 40.63867188 2796.90087891 C40.97611996 2798.86126987 41.30480145 2800.82316423 41.6328125 2802.78515625 C43.91073383 2816.37675349 46.78020954 2829.79251884 50 2843.1875 C50.24251495 2844.20248566 50.24251495 2844.20248566 50.4899292 2845.23797607 C52.60991283 2854.0565584 55.06585466 2862.71859356 57.83935547 2871.35400391 C58.98464636 2874.95176878 60.06059236 2878.56511003 61.125 2882.1875 C79.01589315 2940.1763986 110.23774139 2996.72040996 160 3033 C161.58941406 3034.16789062 161.58941406 3034.16789062 163.2109375 3035.359375 C196.60020684 3059.09732551 236.16699262 3070.79754677 276 3078 C277.0921582 3078.20334961 278.18431641 3078.40669922 279.30957031 3078.61621094 C295.45023515 3081.60039501 311.63741381 3083.800703 327.9375 3085.6875 C328.80662018 3085.7901416 329.67574036 3085.8927832 330.57119751 3085.99853516 C358.8661957 3089.31024603 387.0962841 3090.40784071 415.55687332 3090.37735748 C418.03782936 3090.3749635 420.51876876 3090.37607676 422.99972534 3090.37738037 C452.78995612 3090.37402485 483.20688751 3090.2604186 512.54077148 3084.47802734 C515.1708167 3083.96679648 517.80465362 3083.54528814 520.453125 3083.140625 C543.07732052 3079.67562289 565.52340541 3075.59985387 587.6875 3069.875 C588.9451416 3069.55047852 590.2027832 3069.22595703 591.49853516 3068.89160156 C598.15708365 3067.13112102 604.69696499 3065.16837189 611.21264648 3062.93774414 C613.8026529 3062.06639312 616.40084504 3061.27055017 619.0234375 3060.50390625 C652.45353504 3050.60534889 686.21429082 3036.17254916 716 3018 C717.01506433 3017.47666958 718.03012867 3016.95333916 719.07595253 3016.41415024 C722.33031537 3014.23819571 722.33031537 3014.23819571 722.73828697 3010.49365616 C722.76346454 3009.05996614 722.75541521 3007.62546615 722.7215271 3006.19195557 C722.72665365 3005.40041226 722.7317802 3004.60886896 722.7370621 3003.79333949 C722.74695508 3001.13776759 722.7139334 2998.48446423 722.68115234 2995.82910156 C722.67946012 2993.92705845 722.68040946 2992.02501141 722.68380737 2990.12297058 C722.68553146 2984.95567465 722.65021432 2979.7892115 722.60836363 2974.62210941 C722.5708986 2969.22359991 722.5673346 2963.82507208 722.56021118 2958.42645264 C722.54154992 2948.20181161 722.49229541 2937.97755473 722.43211424 2927.75308299 C722.36508906 2916.11360454 722.33207012 2904.47410791 722.30194163 2892.83448458 C722.23919761 2868.88943605 722.13243139 2844.94475573 722 2821 C731.57 2821 741.14 2821 751 2821 C751 2884.69 751 2948.38 751 3014 C763.48864456 3020.27790344 763.48864456 3020.27790344 776.08984375 3026.3046875 C776.86468613 3026.66574081 777.6395285 3027.02679413 778.43785095 3027.39878845 C780.93617324 3028.56092541 783.43651722 3029.7186005 785.9375 3030.875 C787.25998749 3031.48726944 787.25998749 3031.48726944 788.60919189 3032.11190796 C807.67982825 3040.9314872 826.89087372 3049.41265916 846.16741943 3057.77087402 C849.12113188 3059.05256208 852.07362148 3060.33703452 855.02587891 3061.62207031 C976.18577096 3119.60457889 976.18577096 3119.60457889 1105.9375 3144.1875 C1106.80982269 3144.18689575 1107.68214539 3144.1862915 1108.5809021 3144.18566895 C1121.1774652 3144.16195123 1133.52025075 3143.82001559 1146 3142 C1147.97001461 3141.74060065 1149.94006944 3141.48150664 1151.91015625 3141.22265625 C1230.5512533 3130.44131278 1298.48191158 3094.39726855 1358.30859375 3043.43701172 C1359.99292607 3042.00600998 1361.6834628 3040.58262965 1363.375 3039.16015625 C1371.25954909 3032.50099234 1378.82529216 3025.5544226 1386.3203125 3018.4609375 C1389.20857038 3015.73110108 1392.14420126 3013.06646675 1395.125 3010.4375 C1399.93111053 3006.15908742 1404.42994961 3001.59847236 1408.95385742 2997.02685547 C1412.60199986 2993.35414811 1416.32968629 2989.85638401 1420.2734375 2986.5 C1424.55365605 2982.78143908 1428.42878208 2978.70721469 1432.09765625 2974.390625 C1436.44131608 2969.40210007 1441.15699959 2964.81839206 1445.875 2960.1875 C1452.71527794 2953.40468781 1459.18386512 2946.68812971 1465 2939 C1466.20269531 2937.50533203 1466.20269531 2937.50533203 1467.4296875 2935.98046875 C1480.84142613 2919.2362714 1490.57404717 2900.06522763 1498 2880 C1498.24459961 2879.35998047 1498.48919922 2878.71996094 1498.74121094 2878.06054688 C1502.49867213 2868.14163112 1505.04709161 2858.05771836 1507.25 2847.6875 C1507.49621094 2846.55103027 1507.74242187 2845.41456055 1507.99609375 2844.24365234 C1511.52443419 2826.86755035 1512.35530641 2809.33363691 1512.31567383 2791.64135742 C1512.31248265 2788.67134847 1512.33621948 2785.70231126 1512.36132812 2782.73242188 C1512.39909031 2771.42311555 1511.5916277 2761.02169318 1509 2750 C1508.68591187 2748.54339966 1508.68591187 2748.54339966 1508.36547852 2747.05737305 C1505.855147 2735.51154929 1502.76787699 2724.19572566 1499 2713 C1498.49557373 2711.4850293 1498.49557373 2711.4850293 1497.98095703 2709.93945312 C1484.81462313 2670.52554189 1468.82094471 2632.25389655 1450.45849609 2594.99072266 C1448.85683707 2591.70643692 1447.31806931 2588.39784537 1445.79760742 2585.07543945 C1434.83966613 2561.16746751 1421.31931698 2538.31140658 1405.64111328 2517.21777344 C1402.89269053 2513.50360024 1400.19941009 2509.74985743 1397.5 2506 C1396.41559633 2504.49853051 1395.33096099 2502.99722832 1394.24609375 2501.49609375 C1392.08994701 2498.51090892 1389.93652496 2495.52378612 1387.78515625 2492.53515625 C1382.23195376 2484.82537027 1376.64562795 2477.14242369 1371 2469.5 C1363.72057378 2459.64592179 1356.55169676 2449.71425666 1349.39550781 2439.77050781 C1342.72765706 2430.50847805 1336.01322961 2421.28415107 1329.23071289 2412.10571289 C1324.74183637 2406.02455095 1320.31009187 2399.90404491 1315.89453125 2393.76953125 C1311.96607984 2388.31916162 1307.99294732 2382.90325984 1304 2377.5 C1299.46248989 2371.35983731 1294.96033424 2365.19645339 1290.5 2359 C1284.91541137 2351.24433364 1279.26448649 2343.53966187 1273.58203125 2335.85546875 C1271.06566183 2332.45129688 1268.56560123 2329.03578026 1266.07421875 2325.61328125 C1265.43411865 2324.73663818 1264.79401855 2323.85999512 1264.13452148 2322.95678711 C1262.90032862 2321.26594768 1261.66924856 2319.5728307 1260.44165039 2317.87719727 C1259.88856201 2317.12108154 1259.33547363 2316.36496582 1258.765625 2315.5859375 C1258.27868164 2314.9161084 1257.79173828 2314.2462793 1257.29003906 2313.55615234 C1254.45990432 2310.14220858 1250.7926755 2310.85126766 1246.7126708 2310.85114551 Z M3 2727 C3 3045.12 3 3363.24 3 3691 C510.54 3691 1018.08 3691 1541 3691 C1541 3403.24 1541 3115.48 1541 2819 C1540.67 2819 1540.34 2819 1540 2819 C1539.91081299 2819.87060059 1539.91081299 2819.87060059 1539.81982422 2820.75878906 C1531.6076488 2898.40392457 1496.6655799 2950.59422585 1442.9362793 3004.1940918 C1440.5204938 3006.60411563 1438.10931844 3009.01869472 1435.69937992 3011.43456364 C1433.35541157 3013.78303831 1431.00761589 3016.12767131 1428.66015625 3018.47265625 C1427.80792984 3019.32690689 1426.95570343 3020.18115753 1426.07765198 3021.06129456 C1421.76980696 3025.35241402 1417.40299324 3029.50622556 1412.78041077 3033.45770264 C1409.54577857 3036.25973282 1406.47584083 3039.23932553 1403.375 3042.1875 C1397.12745724 3048.08901599 1390.72629083 3053.75362118 1384.1640625 3059.30078125 C1381.38149875 3061.65723897 1378.68339509 3064.09325207 1376 3066.5625 C1370.5465782 3071.50245026 1364.76630337 3075.98839605 1358.94677734 3080.48144531 C1356.96466147 3082.0275653 1355.00633775 3083.60014443 1353.05078125 3085.1796875 C1283.06227573 3141.31347654 1188.36130277 3176.82462058 1098 3173 C1096.64769287 3172.94634277 1096.64769287 3172.94634277 1095.26806641 3172.89160156 C1064.50157239 3171.48963593 1035.97445493 3162.72055521 1007 3153 C1006.33371582 3152.7771936 1005.66743164 3152.55438721 1004.98095703 3152.3248291 C967.8436475 3139.88008156 931.4055646 3125.14302272 895.41177368 3109.73506165 C890.68752465 3107.71386844 885.95294344 3105.71976416 881.20703125 3103.75 C843.67453805 3088.16332 806.58733528 3071.51283655 769.625 3054.625 C768.89960022 3054.29361023 768.17420044 3053.96222046 767.42681885 3053.62078857 C766.00989027 3052.97313173 764.59318944 3052.32497637 763.17672729 3051.67630005 C761.80432299 3051.04819383 760.43122472 3050.42160149 759.05740356 3049.79660034 C755.61341755 3048.22435827 752.19589376 3046.6140046 748.80371094 3044.93261719 C748.12617767 3044.6016806 747.44864441 3044.27074402 746.75057983 3043.92977905 C745.47014301 3043.30233793 744.19496426 3042.66400199 742.92642212 3042.0128479 C740.20315534 3040.68774841 738.3356781 3039.97462248 735.28735352 3040.20507812 C731.80592953 3041.41497422 728.72916571 3043.27083629 725.5625 3045.125 C683.40336487 3069.06563554 637.9787135 3086.19479048 591 3098 C589.81100098 3098.30099609 588.62200195 3098.60199219 587.39697266 3098.91210938 C504.20576957 3119.74044209 417.16265344 3123.66646165 160.99609375 3068.0546875 C151.53543707 3062.26542756 142.59124777 3056.01303667 134 3049 C132.99324219 3048.19691406 131.98648438 3047.39382813 130.94921875 3046.56640625 C117.38665153 3035.56886859 104.49199672 3022.96508403 94 3009 C93.49581543 3008.34515625 92.99163086 3007.6903125 92.47216797 3007.015625 C38.26958312 2936.55694945 14.39012822 2842.81611788 4 2727 C3.67 2727 3.34 2727 3 2727 Z " fill="#010101" transform="translate(0,0)"/>
<path d="M0 0 C509.52 0 1019.04 0 1544 0 C1544 1219.02 1544 2438.04 1544 3694 C1034.48 3694 524.96 3694 0 3694 C0 2474.98 0 1255.96 0 0 Z M3 3 C3 1220.04 3 2437.08 3 3691 C510.54 3691 1018.08 3691 1541 3691 C1541 2473.96 1541 1256.92 1541 3 C1033.46 3 525.92 3 3 3 Z " fill="#FDFDFD" transform="translate(0,0)"/>
</svg>
