<?xml version="1.0" encoding="UTF-8"?>
<!DOCTYPE svg PUBLIC "-//W3C//DTD SVG 1.1//EN" "http://www.w3.org/Graphics/SVG/1.1/DTD/svg11.dtd">
<svg xmlns="http://www.w3.org/2000/svg" version="1.1" width="1439px" height="3694px" style="shape-rendering:geometricPrecision; text-rendering:geometricPrecision; image-rendering:optimizeQuality; fill-rule:evenodd; clip-rule:evenodd" xmlns:xlink="http://www.w3.org/1999/xlink">
<g><path style="opacity:0.7" fill="#fdfdfd" d="M -0.5,-0.5 C 479.167,-0.5 958.833,-0.5 1438.5,-0.5C 1438.5,1230.83 1438.5,2462.17 1438.5,3693.5C 958.833,3693.5 479.167,3693.5 -0.5,3693.5C -0.5,2462.17 -0.5,1230.83 -0.5,-0.5 Z M 1435.5,897.5 C 1432.11,847.48 1416.27,801.814 1388,760.5C 1343.92,707.143 1295.09,658.643 1241.5,615C 1205.98,589.822 1169.65,565.822 1132.5,543C 1092.81,520.108 1050.48,513.108 1005.5,522C 925.548,539.317 849.548,567.317 777.5,606C 750.409,620.624 723.909,636.124 698,652.5C 611.294,618.115 521.794,593.948 429.5,580C 374.523,571.862 319.523,571.529 264.5,579C 240.387,583.892 218.721,593.892 199.5,609C 163.765,639.067 130.265,671.567 99,706.5C 54.782,758.604 25.1153,818.271 10,885.5C 6.90764,905.241 4.40764,924.908 2.5,944.5C 2.5,630.167 2.5,315.833 2.5,1.5C 480.167,1.5 957.833,1.5 1435.5,1.5C 1435.5,300.167 1435.5,598.833 1435.5,897.5 Z M 1435.5,951.5 C 1435.5,1864.5 1435.5,2777.5 1435.5,3690.5C 957.833,3690.5 480.167,3690.5 2.5,3690.5C 2.5,2806.83 2.5,1923.17 2.5,1039.5C 13.0867,1167.1 53.2534,1284.43 123,1391.5C 166.167,1428 209.333,1464.5 252.5,1501C 243.9,1514.03 236.733,1527.87 231,1542.5C 222.434,1569.14 229.601,1590.31 252.5,1606C 268.531,1615.68 285.531,1623.18 303.5,1628.5C 304.181,1665.16 304.848,1701.83 305.5,1738.5C 270.626,1743.18 244.126,1760.51 226,1790.5C 212.904,1814.96 213.571,1838.96 228,1862.5C 241.497,1878.67 258.664,1888.84 279.5,1893C 288.133,1894.6 296.8,1895.77 305.5,1896.5C 307.457,1916.81 307.79,1937.14 306.5,1957.5C 282.043,1969.31 261.543,1985.98 245,2007.5C 229.345,2034.78 232.845,2059.28 255.5,2081C 271.599,2093.13 289.432,2101.97 309,2107.5C 309.833,2122.18 309.666,2136.84 308.5,2151.5C 279.003,2157.86 257.17,2174.19 243,2200.5C 232.04,2232.15 239.54,2258.65 265.5,2280C 279.05,2290.44 294.05,2298.28 310.5,2303.5C 311.666,2321.16 311.833,2338.82 311,2356.5C 289.509,2366.33 270.509,2379.66 254,2396.5C 228.508,2432.34 232.675,2464.5 266.5,2493C 281.093,2503.55 296.593,2512.72 313,2520.5C 313.833,2534.51 313.666,2548.51 312.5,2562.5C 283.432,2570.77 259.266,2586.44 240,2609.5C 218.989,2637.82 218.322,2666.49 238,2695.5C 258.927,2717.71 284.76,2729.21 315.5,2730C 339.791,2786.63 378.124,2831.3 430.5,2864C 490.076,2900.07 554.743,2920.4 624.5,2925C 730.99,2932.13 829.323,2907.46 919.5,2851C 996.699,2800.17 1039.37,2728.34 1047.5,2635.5C 1077.15,2630.91 1102.32,2617.91 1123,2596.5C 1148.64,2563.27 1147.48,2531.11 1119.5,2500C 1099.84,2483.9 1077.17,2475.74 1051.5,2475.5C 1051.11,2452.82 1051.11,2430.15 1051.5,2407.5C 1074.62,2402.6 1094.96,2392.44 1112.5,2377C 1137.16,2349.58 1139.99,2320.08 1121,2288.5C 1102.21,2266.86 1078.38,2254.86 1049.5,2252.5C 1048.32,2238.17 1048.32,2223.84 1049.5,2209.5C 1071.45,2202.86 1091.79,2193.02 1110.5,2180C 1139.78,2154.96 1143.28,2126.79 1121,2095.5C 1100.77,2073.63 1075.94,2059.96 1046.5,2054.5C 1046.5,2041.17 1046.5,2027.83 1046.5,2014.5C 1076.77,2009.13 1101.27,1994.46 1120,1970.5C 1140.86,1931.54 1134.69,1897.37 1101.5,1868C 1086.65,1856.43 1069.98,1848.6 1051.5,1844.5C 1051.17,1834.48 1051.5,1824.48 1052.5,1814.5C 1079.15,1804.27 1102.32,1788.94 1122,1768.5C 1141.64,1743.22 1143.64,1716.55 1128,1688.5C 1109.05,1661.42 1084.22,1641.59 1053.5,1629C 1062.4,1589.88 1071.24,1550.71 1080,1511.5C 1125.69,1466.14 1171.03,1420.47 1216,1374.5C 1264.25,1304.34 1312.25,1234.01 1360,1163.5C 1397.02,1096.95 1422.18,1026.28 1435.5,951.5 Z"/></g>
<g><path style="opacity:0.982" fill="#010101" d="M 1435.5,897.5 C 1435.5,915.5 1435.5,933.5 1435.5,951.5C 1422.18,1026.28 1397.02,1096.95 1360,1163.5C 1312.25,1234.01 1264.25,1304.34 1216,1374.5C 1171.03,1420.47 1125.69,1466.14 1080,1511.5C 1071.24,1550.71 1062.4,1589.88 1053.5,1629C 1084.22,1641.59 1109.05,1661.42 1128,1688.5C 1143.64,1716.55 1141.64,1743.22 1122,1768.5C 1102.32,1788.94 1079.15,1804.27 1052.5,1814.5C 1051.5,1824.48 1051.17,1834.48 1051.5,1844.5C 1069.98,1848.6 1086.65,1856.43 1101.5,1868C 1134.69,1897.37 1140.86,1931.54 1120,1970.5C 1101.27,1994.46 1076.77,2009.13 1046.5,2014.5C 1046.5,2027.83 1046.5,2041.17 1046.5,2054.5C 1075.94,2059.96 1100.77,2073.63 1121,2095.5C 1143.28,2126.79 1139.78,2154.96 1110.5,2180C 1091.79,2193.02 1071.45,2202.86 1049.5,2209.5C 1048.32,2223.84 1048.32,2238.17 1049.5,2252.5C 1078.38,2254.86 1102.21,2266.86 1121,2288.5C 1139.99,2320.08 1137.16,2349.58 1112.5,2377C 1094.96,2392.44 1074.62,2402.6 1051.5,2407.5C 1051.11,2430.15 1051.11,2452.82 1051.5,2475.5C 1077.17,2475.74 1099.84,2483.9 1119.5,2500C 1147.48,2531.11 1148.64,2563.27 1123,2596.5C 1102.32,2617.91 1077.15,2630.91 1047.5,2635.5C 1039.37,2728.34 996.699,2800.17 919.5,2851C 829.323,2907.46 730.99,2932.13 624.5,2925C 554.743,2920.4 490.076,2900.07 430.5,2864C 378.124,2831.3 339.791,2786.63 315.5,2730C 284.76,2729.21 258.927,2717.71 238,2695.5C 218.322,2666.49 218.989,2637.82 240,2609.5C 259.266,2586.44 283.432,2570.77 312.5,2562.5C 313.666,2548.51 313.833,2534.51 313,2520.5C 296.593,2512.72 281.093,2503.55 266.5,2493C 232.675,2464.5 228.508,2432.34 254,2396.5C 270.509,2379.66 289.509,2366.33 311,2356.5C 311.833,2338.82 311.666,2321.16 310.5,2303.5C 294.05,2298.28 279.05,2290.44 265.5,2280C 239.54,2258.65 232.04,2232.15 243,2200.5C 257.17,2174.19 279.003,2157.86 308.5,2151.5C 309.666,2136.84 309.833,2122.18 309,2107.5C 289.432,2101.97 271.599,2093.13 255.5,2081C 232.845,2059.28 229.345,2034.78 245,2007.5C 261.543,1985.98 282.043,1969.31 306.5,1957.5C 307.79,1937.14 307.457,1916.81 305.5,1896.5C 296.8,1895.77 288.133,1894.6 279.5,1893C 258.664,1888.84 241.497,1878.67 228,1862.5C 213.571,1838.96 212.904,1814.96 226,1790.5C 244.126,1760.51 270.626,1743.18 305.5,1738.5C 304.848,1701.83 304.181,1665.16 303.5,1628.5C 285.531,1623.18 268.531,1615.68 252.5,1606C 229.601,1590.31 222.434,1569.14 231,1542.5C 236.733,1527.87 243.9,1514.03 252.5,1501C 209.333,1464.5 166.167,1428 123,1391.5C 53.2534,1284.43 13.0867,1167.1 2.5,1039.5C 1.26805,1007.83 1.26805,976.165 2.5,944.5C 4.40764,924.908 6.90764,905.241 10,885.5C 25.1153,818.271 54.782,758.604 99,706.5C 130.265,671.567 163.765,639.067 199.5,609C 218.721,593.892 240.387,583.892 264.5,579C 319.523,571.529 374.523,571.862 429.5,580C 521.794,593.948 611.294,618.115 698,652.5C 723.909,636.124 750.409,620.624 777.5,606C 849.548,567.317 925.548,539.317 1005.5,522C 1050.48,513.108 1092.81,520.108 1132.5,543C 1169.65,565.822 1205.98,589.822 1241.5,615C 1295.09,658.643 1343.92,707.143 1388,760.5C 1416.27,801.814 1432.11,847.48 1435.5,897.5 Z"/></g>
<g><path style="opacity:1" fill="#fefefe" d="M 1030.5,547.5 C 1052.61,546.423 1073.94,549.923 1094.5,558C 1112.73,565.778 1130.06,575.111 1146.5,586C 1167.83,600.333 1189.17,614.667 1210.5,629C 1267.15,672.649 1318.32,722.149 1364,777.5C 1393.43,821.017 1407.59,869.184 1406.5,922C 1406.64,947.995 1403.14,973.495 1396,998.5C 1380.51,1054.47 1358.17,1107.47 1329,1157.5C 1280.54,1228.93 1231.7,1300.09 1182.5,1371C 836.5,1371.83 490.5,1371.67 144.5,1370.5C 58.564,1233.75 21.7307,1084.75 34,923.5C 39.6653,873.171 55.332,826.171 81,782.5C 89.2744,769.228 97.9411,756.228 107,743.5C 140.133,704.034 176.299,667.534 215.5,634C 239.099,615.13 266.099,605.13 296.5,604C 352.601,600.918 408.268,604.585 463.5,615C 540.09,629.883 614.757,651.383 687.5,679.5C 687.5,748.833 687.5,818.167 687.5,887.5C 697.167,887.5 706.833,887.5 716.5,887.5C 716.333,816.833 716.5,746.166 717,675.5C 790.552,627.813 869.385,590.98 953.5,565C 978.843,557.168 1004.51,551.335 1030.5,547.5 Z"/></g>
<g><path style="opacity:1" fill="#838384" d="M 470.5,1400.5 C 373.665,1400.17 276.999,1400.5 180.5,1401.5C 179.711,1401.22 179.044,1400.72 178.5,1400C 276.001,1399.17 373.334,1399.33 470.5,1400.5 Z"/></g>
<g><path style="opacity:1" fill="#b7b7b8" d="M 180.5,1401.5 C 276.999,1400.5 373.665,1400.17 470.5,1400.5C 696.834,1400.33 923.167,1400.5 1149.5,1401C 1117.33,1433.17 1085.17,1465.33 1053,1497.5C 1041.18,1549.45 1029.68,1601.45 1018.5,1653.5C 1025.52,1653.61 1032.52,1654.11 1039.5,1655C 1065.26,1664.45 1086.09,1680.28 1102,1702.5C 1112.93,1719.78 1111.6,1736.12 1098,1751.5C 1087.34,1762.41 1075.17,1771.25 1061.5,1778C 1048.4,1784.03 1035.23,1789.86 1022,1795.5C 1021.5,1819.83 1021.33,1844.16 1021.5,1868.5C 1047.89,1870.12 1070.72,1879.79 1090,1897.5C 1110.6,1924.99 1107.1,1949.15 1079.5,1970C 1060.59,1980.98 1040.26,1987.81 1018.5,1990.5C 1017.5,2020.49 1017.17,2050.49 1017.5,2080.5C 1047.79,2080.76 1073.96,2091.09 1096,2111.5C 1101.92,2117.68 1105.42,2125.01 1106.5,2133.5C 1105.65,2139.87 1103.15,2145.54 1099,2150.5C 1087.18,2161.33 1073.68,2169.5 1058.5,2175C 1045.74,2179.76 1032.74,2183.59 1019.5,2186.5C 1019.5,2217.83 1019.5,2249.17 1019.5,2280.5C 1041.63,2279.22 1062.63,2283.39 1082.5,2293C 1106.63,2308.71 1110.8,2328.54 1095,2352.5C 1082,2366.09 1066.16,2374.59 1047.5,2378C 1038.87,2379.49 1030.2,2380.66 1021.5,2381.5C 1021.42,2422.84 1021.75,2464.17 1022.5,2505.5C 1035.5,2505.33 1048.5,2505.5 1061.5,2506C 1078.26,2507.69 1092.43,2514.52 1104,2526.5C 1114.21,2542.63 1113.88,2558.63 1103,2574.5C 1090.15,2589.52 1073.98,2599.35 1054.5,2604C 1042.93,2606.48 1031.26,2608.32 1019.5,2609.5C 1017.33,2717.08 968.661,2795.25 873.5,2844C 766.188,2899 654.188,2911 537.5,2880C 479.555,2863.32 429.722,2833.49 388,2790.5C 370.748,2771.01 356.748,2749.35 346,2725.5C 344.891,2717.86 344.058,2710.19 343.5,2702.5C 329.752,2702.33 316.086,2701.16 302.5,2699C 285.655,2695.99 271.488,2688.16 260,2675.5C 251.339,2661.22 251.339,2646.88 260,2632.5C 275.982,2610.9 297.149,2596.73 323.5,2590C 329.086,2588.38 334.753,2587.22 340.5,2586.5C 341.5,2586.5 342.5,2586.5 343.5,2586.5C 343.831,2560.33 343.498,2534.33 342.5,2508.5C 342.777,2505.55 342.444,2502.72 341.5,2500C 319.379,2492.61 299.379,2481.61 281.5,2467C 272.51,2459.02 267.51,2449.02 266.5,2437C 267.563,2429.71 270.397,2423.21 275,2417.5C 284.729,2406.76 295.896,2397.93 308.5,2391C 318.592,2385.62 328.926,2380.79 339.5,2376.5C 340.5,2344.84 340.833,2313.17 340.5,2281.5C 316.307,2277.15 295.14,2266.82 277,2250.5C 262.246,2229.48 264.746,2210.65 284.5,2194C 300.672,2182.78 318.672,2177.28 338.5,2177.5C 338.5,2146.17 338.5,2114.83 338.5,2083.5C 318.974,2080.82 300.641,2074.66 283.5,2065C 275.95,2060.45 270.116,2054.28 266,2046.5C 263.447,2038.7 264.447,2031.37 269,2024.5C 279.279,2011.55 291.446,2000.72 305.5,1992C 315.427,1986.12 325.594,1980.62 336,1975.5C 336.5,1939.17 336.667,1902.83 336.5,1866.5C 322.163,1866.67 307.829,1866.5 293.5,1866C 277.027,1864.35 263.194,1857.51 252,1845.5C 244.496,1831.04 244.829,1816.71 253,1802.5C 266.218,1782.65 284.718,1770.82 308.5,1767C 317.16,1766.5 325.827,1766.33 334.5,1766.5C 333.893,1713.5 333.56,1660.5 333.5,1607.5C 310.311,1601.5 288.311,1592.66 267.5,1581C 257.091,1572.96 254.258,1562.79 259,1550.5C 267.969,1531.22 278.469,1512.89 290.5,1495.5C 254.133,1463.8 217.467,1432.47 180.5,1401.5 Z"/></g>
<g><path style="opacity:1" fill="#444445" d="M 342.5,2508.5 C 343.498,2534.33 343.831,2560.33 343.5,2586.5C 342.5,2586.5 341.5,2586.5 340.5,2586.5C 342.477,2560.73 343.143,2534.73 342.5,2508.5 Z"/></g>
</svg>
