<?xml version="1.0" encoding="UTF-8"?>
<!DOCTYPE svg PUBLIC "-//W3C//DTD SVG 1.1//EN" "http://www.w3.org/Graphics/SVG/1.1/DTD/svg11.dtd">
<svg xmlns="http://www.w3.org/2000/svg" version="1.1" width="1544px" height="3694px" style="shape-rendering:geometricPrecision; text-rendering:geometricPrecision; image-rendering:optimizeQuality; fill-rule:evenodd; clip-rule:evenodd" xmlns:xlink="http://www.w3.org/1999/xlink">
<g><path style="opacity:0.667" fill="#fdfdfd" d="M -0.5,-0.5 C 514.167,-0.5 1028.83,-0.5 1543.5,-0.5C 1543.5,1230.83 1543.5,2462.17 1543.5,3693.5C 1028.83,3693.5 514.167,3693.5 -0.5,3693.5C -0.5,2462.17 -0.5,1230.83 -0.5,-0.5 Z M 1540.5,2763.5 C 1532.17,2722 1519.67,2681.67 1503,2642.5C 1485.91,2600.65 1465.91,2560.32 1443,2521.5C 1387.31,2444.13 1331.64,2367.8 1276,2292.5C 1274.83,2291.11 1273.33,2290.27 1271.5,2290C 1230.31,2249.14 1189.47,2207.97 1149,2166.5C 1140.65,2128.12 1132.15,2089.79 1123.5,2051.5C 1141.79,2042.69 1158.79,2031.86 1174.5,2019C 1192.4,2003.77 1203.56,1984.6 1208,1961.5C 1209.45,1942.63 1204.12,1925.97 1192,1911.5C 1171.7,1890.84 1148.03,1875.18 1121,1864.5C 1120.5,1854.84 1120.33,1845.17 1120.5,1835.5C 1154.57,1828.58 1179.74,1809.91 1196,1779.5C 1209.41,1736.82 1196.91,1703.99 1158.5,1681C 1145.26,1673.92 1131.43,1668.42 1117,1664.5C 1116.5,1651.5 1116.33,1638.5 1116.5,1625.5C 1147.1,1619.46 1172.6,1604.79 1193,1581.5C 1212.51,1550.76 1208.35,1523.59 1180.5,1500C 1161.82,1486.99 1141.49,1477.16 1119.5,1470.5C 1118.17,1456.17 1118.17,1441.83 1119.5,1427.5C 1140.93,1425.19 1160.26,1417.69 1177.5,1405C 1205.33,1379.52 1210.5,1350.02 1193,1316.5C 1175.06,1292.6 1151.23,1277.93 1121.5,1272.5C 1120.37,1249.5 1120.37,1226.5 1121.5,1203.5C 1145.12,1203.57 1166.46,1196.74 1185.5,1183C 1211.05,1159.91 1217.22,1132.41 1204,1100.5C 1192.94,1080.11 1176.78,1065.28 1155.5,1056C 1143.28,1050.65 1130.61,1046.82 1117.5,1044.5C 1107.89,942.349 1058.55,866.515 969.5,817C 904.829,782.246 835.829,761.912 762.5,756C 669.103,747.299 578.769,759.965 491.5,794C 435.254,816.268 388.088,850.768 350,897.5C 338.444,913.272 328.944,930.272 321.5,948.5C 309.464,950.674 297.464,953.174 285.5,956C 266.098,963.112 250.265,974.945 238,991.5C 227.571,1010.55 226.238,1030.22 234,1050.5C 247.405,1078.57 268.571,1098.4 297.5,1110C 304.35,1112.51 311.183,1115.01 318,1117.5C 318.667,1131.5 318.667,1145.5 318,1159.5C 297.158,1168.25 278.491,1180.25 262,1195.5C 236.781,1224.58 236.114,1254.24 260,1284.5C 275.982,1300.75 294.482,1313.42 315.5,1322.5C 316.5,1340.49 316.833,1358.49 316.5,1376.5C 289.864,1383.88 268.364,1398.55 252,1420.5C 235.088,1456.69 242.588,1486.85 274.5,1511C 286.61,1519.14 299.777,1524.97 314,1528.5C 314.833,1543.18 314.666,1557.84 313.5,1572.5C 290.076,1578.29 269.909,1589.62 253,1606.5C 235.542,1631.82 236.542,1656.49 256,1680.5C 272.341,1697.66 291.008,1711.66 312,1722.5C 312.483,1742.84 312.317,1763.17 311.5,1783.5C 287.38,1783.82 265.38,1790.65 245.5,1804C 223.907,1823.12 217.074,1846.62 225,1874.5C 240.388,1913.37 268.888,1935.7 310.5,1941.5C 309.862,1978.17 309.195,2014.84 308.5,2051.5C 289.133,2056.68 271.133,2064.85 254.5,2076C 237.882,2087.51 230.715,2103.34 233,2123.5C 237.488,2143.64 245.655,2162.14 257.5,2179C 217.759,2212.62 177.926,2246.12 138,2279.5C 137.667,2281.17 137.333,2282.83 137,2284.5C 57.9898,2396.68 13.1564,2521.35 2.5,2658.5C 2.5,1773.17 2.5,887.833 2.5,2.5C 515.167,2.5 1027.83,2.5 1540.5,2.5C 1540.5,922.833 1540.5,1843.17 1540.5,2763.5 Z M 2.5,2728.5 C 6.79385,2792.47 19.6272,2854.8 41,2915.5C 57.8291,2963.36 84.3291,3004.86 120.5,3040C 158.218,3072.94 201.884,3094.27 251.5,3104C 357.122,3125.56 462.789,3125.89 568.5,3105C 627.538,3092.38 683.205,3071.21 735.5,3041.5C 814.805,3078.1 895.139,3112.27 976.5,3144C 1004.6,3154.81 1033.26,3163.81 1062.5,3171C 1169.93,3181.4 1266.26,3153.73 1351.5,3088C 1396.13,3051.38 1438.3,3011.88 1478,2969.5C 1515.29,2926.48 1536.13,2876.48 1540.5,2819.5C 1540.5,3109.83 1540.5,3400.17 1540.5,3690.5C 1027.83,3690.5 515.167,3690.5 2.5,3690.5C 2.5,3369.83 2.5,3049.17 2.5,2728.5 Z"/></g>
<g><path style="opacity:0.982" fill="#010101" d="M 1540.5,2763.5 C 1540.5,2782.17 1540.5,2800.83 1540.5,2819.5C 1536.13,2876.48 1515.29,2926.48 1478,2969.5C 1438.3,3011.88 1396.13,3051.38 1351.5,3088C 1266.26,3153.73 1169.93,3181.4 1062.5,3171C 1033.26,3163.81 1004.6,3154.81 976.5,3144C 895.139,3112.27 814.805,3078.1 735.5,3041.5C 683.205,3071.21 627.538,3092.38 568.5,3105C 462.789,3125.89 357.122,3125.56 251.5,3104C 201.884,3094.27 158.218,3072.94 120.5,3040C 84.3291,3004.86 57.8291,2963.36 41,2915.5C 19.6272,2854.8 6.79385,2792.47 2.5,2728.5C 2.5,2705.17 2.5,2681.83 2.5,2658.5C 13.1564,2521.35 57.9898,2396.68 137,2284.5C 137.333,2282.83 137.667,2281.17 138,2279.5C 177.926,2246.12 217.759,2212.62 257.5,2179C 245.655,2162.14 237.488,2143.64 233,2123.5C 230.715,2103.34 237.882,2087.51 254.5,2076C 271.133,2064.85 289.133,2056.68 308.5,2051.5C 309.195,2014.84 309.862,1978.17 310.5,1941.5C 268.888,1935.7 240.388,1913.37 225,1874.5C 217.074,1846.62 223.907,1823.12 245.5,1804C 265.38,1790.65 287.38,1783.82 311.5,1783.5C 312.317,1763.17 312.483,1742.84 312,1722.5C 291.008,1711.66 272.341,1697.66 256,1680.5C 236.542,1656.49 235.542,1631.82 253,1606.5C 269.909,1589.62 290.076,1578.29 313.5,1572.5C 314.666,1557.84 314.833,1543.18 314,1528.5C 299.777,1524.97 286.61,1519.14 274.5,1511C 242.588,1486.85 235.088,1456.69 252,1420.5C 268.364,1398.55 289.864,1383.88 316.5,1376.5C 316.833,1358.49 316.5,1340.49 315.5,1322.5C 294.482,1313.42 275.982,1300.75 260,1284.5C 236.114,1254.24 236.781,1224.58 262,1195.5C 278.491,1180.25 297.158,1168.25 318,1159.5C 318.667,1145.5 318.667,1131.5 318,1117.5C 311.183,1115.01 304.35,1112.51 297.5,1110C 268.571,1098.4 247.405,1078.57 234,1050.5C 226.238,1030.22 227.571,1010.55 238,991.5C 250.265,974.945 266.098,963.112 285.5,956C 297.464,953.174 309.464,950.674 321.5,948.5C 328.944,930.272 338.444,913.272 350,897.5C 388.088,850.768 435.254,816.268 491.5,794C 578.769,759.965 669.103,747.299 762.5,756C 835.829,761.912 904.829,782.246 969.5,817C 1058.55,866.515 1107.89,942.349 1117.5,1044.5C 1130.61,1046.82 1143.28,1050.65 1155.5,1056C 1176.78,1065.28 1192.94,1080.11 1204,1100.5C 1217.22,1132.41 1211.05,1159.91 1185.5,1183C 1166.46,1196.74 1145.12,1203.57 1121.5,1203.5C 1120.37,1226.5 1120.37,1249.5 1121.5,1272.5C 1151.23,1277.93 1175.06,1292.6 1193,1316.5C 1210.5,1350.02 1205.33,1379.52 1177.5,1405C 1160.26,1417.69 1140.93,1425.19 1119.5,1427.5C 1118.17,1441.83 1118.17,1456.17 1119.5,1470.5C 1141.49,1477.16 1161.82,1486.99 1180.5,1500C 1208.35,1523.59 1212.51,1550.76 1193,1581.5C 1172.6,1604.79 1147.1,1619.46 1116.5,1625.5C 1116.33,1638.5 1116.5,1651.5 1117,1664.5C 1131.43,1668.42 1145.26,1673.92 1158.5,1681C 1196.91,1703.99 1209.41,1736.82 1196,1779.5C 1179.74,1809.91 1154.57,1828.58 1120.5,1835.5C 1120.33,1845.17 1120.5,1854.84 1121,1864.5C 1148.03,1875.18 1171.7,1890.84 1192,1911.5C 1204.12,1925.97 1209.45,1942.63 1208,1961.5C 1203.56,1984.6 1192.4,2003.77 1174.5,2019C 1158.79,2031.86 1141.79,2042.69 1123.5,2051.5C 1132.15,2089.79 1140.65,2128.12 1149,2166.5C 1189.47,2207.97 1230.31,2249.14 1271.5,2290C 1273.33,2290.27 1274.83,2291.11 1276,2292.5C 1331.64,2367.8 1387.31,2444.13 1443,2521.5C 1465.91,2560.32 1485.91,2600.65 1503,2642.5C 1519.67,2681.67 1532.17,2722 1540.5,2763.5 Z"/></g>
<g><path style="opacity:1" fill="#b7b7b8" d="M 1091.5,1255.5 C 1090.83,1262.49 1090.5,1269.66 1090.5,1277C 1090.5,1284.53 1091.17,1291.7 1092.5,1298.5C 1111.97,1299.12 1130.3,1303.95 1147.5,1313C 1160.02,1319.85 1168.52,1330.01 1173,1343.5C 1175.81,1362.04 1169.31,1376.21 1153.5,1386C 1141.73,1392.81 1129.06,1396.81 1115.5,1398C 1106.86,1399.01 1098.19,1399.51 1089.5,1399.5C 1089.33,1430.5 1089.5,1461.5 1090,1492.5C 1112.98,1498.05 1134.82,1506.55 1155.5,1518C 1181.15,1535.53 1182.15,1554.53 1158.5,1575C 1137.48,1590.62 1113.81,1598.79 1087.5,1599.5C 1087.6,1629.51 1087.27,1659.51 1086.5,1689.5C 1109.12,1691.57 1130.12,1698.4 1149.5,1710C 1169.4,1723.7 1176.23,1742.2 1170,1765.5C 1161.16,1784 1147,1796.5 1127.5,1803C 1115.84,1807.3 1103.84,1810.13 1091.5,1811.5C 1091.33,1835.84 1091.5,1860.17 1092,1884.5C 1114.65,1892.58 1135.82,1903.41 1155.5,1917C 1164.68,1924.2 1171.85,1933.03 1177,1943.5C 1180.03,1956.02 1178.03,1967.68 1171,1978.5C 1154.3,2001.26 1132.47,2016.76 1105.5,2025C 1099.82,2025.45 1094.15,2025.95 1088.5,2026.5C 1099.49,2078.62 1110.99,2130.62 1123,2182.5C 1154.7,2214.03 1186.2,2245.7 1217.5,2277.5C 1145.83,2278.17 1074.17,2278.83 1002.5,2279.5C 729.833,2279.67 457.166,2279.5 184.5,2279C 221.966,2248.03 258.966,2216.53 295.5,2184.5C 284.668,2168.15 274.835,2151.15 266,2133.5C 263.486,2127.58 261.986,2121.41 261.5,2115C 261.615,2112.27 262.448,2109.77 264,2107.5C 271.272,2099.27 280.105,2093.1 290.5,2089C 306.06,2082.2 322.06,2076.7 338.5,2072.5C 338.777,2019.5 339.11,1966.5 339.5,1913.5C 311.554,1916.35 287.387,1908.35 267,1889.5C 254.879,1876.91 249.879,1861.91 252,1844.5C 255.68,1833.49 262.847,1825.65 273.5,1821C 288.022,1814.88 303.189,1812.05 319,1812.5C 326.176,1812.74 333.342,1813.07 340.5,1813.5C 341.351,1777.17 341.518,1740.84 341,1704.5C 323.917,1696.05 307.751,1686.21 292.5,1675C 283.439,1667.62 276.272,1658.78 271,1648.5C 268.384,1640.99 269.384,1633.99 274,1627.5C 283.399,1616.88 294.899,1609.38 308.5,1605C 319.967,1601.05 331.633,1597.88 343.5,1595.5C 343.5,1564.5 343.5,1533.5 343.5,1502.5C 319.574,1502.94 299.074,1494.94 282,1478.5C 269.944,1464.73 268.61,1450.07 278,1434.5C 287.901,1422.61 300.068,1413.77 314.5,1408C 324.564,1403.92 334.898,1400.76 345.5,1398.5C 345.667,1366.83 345.5,1335.16 345,1303.5C 325.702,1296.17 307.868,1286.34 291.5,1274C 264.307,1250.72 264.973,1228.39 293.5,1207C 309.879,1195.48 327.546,1186.31 346.5,1179.5C 347.382,1150.84 348.049,1122.17 348.5,1093.5C 313.8,1090.24 285.967,1074.91 265,1047.5C 252.094,1021.89 258.26,1002.39 283.5,989C 290.679,984.94 298.345,982.274 306.5,981C 320.393,978.54 334.393,977.373 348.5,977.5C 349.124,970.518 349.624,963.518 350,956.5C 365.556,922.904 387.722,894.404 416.5,871C 464.832,834.51 518.832,809.843 578.5,797C 686.727,772.621 793.06,778.954 897.5,816C 938.617,831.517 975.951,853.184 1009.5,881C 1055.52,924.534 1081.68,978.034 1088,1041.5C 1089.03,1051.14 1089.53,1060.81 1089.5,1070.5C 1118.4,1070.96 1144.06,1080.13 1166.5,1098C 1175.11,1106.39 1180.11,1116.55 1181.5,1128.5C 1181.21,1144.92 1173.87,1157.09 1159.5,1165C 1150.56,1169.24 1141.22,1172.24 1131.5,1174C 1118.15,1174.74 1104.81,1174.57 1091.5,1173.5C 1091.5,1200.83 1091.5,1228.17 1091.5,1255.5 Z"/></g>
<g><path style="opacity:1" fill="#5d5d5e" d="M 1091.5,1255.5 C 1091.18,1269.91 1091.52,1284.25 1092.5,1298.5C 1091.17,1291.7 1090.5,1284.53 1090.5,1277C 1090.5,1269.66 1090.83,1262.49 1091.5,1255.5 Z"/></g>
<g><path style="opacity:1" fill="#959596" d="M 1217.5,2277.5 C 1218.04,2277.56 1218.38,2277.89 1218.5,2278.5C 1146.5,2279.5 1074.5,2279.83 1002.5,2279.5C 1074.17,2278.83 1145.83,2278.17 1217.5,2277.5 Z"/></g>
<g><path style="opacity:1" fill="#fefefe" d="M 750.5,3015.5 C 750.5,2950.83 750.5,2886.17 750.5,2821.5C 740.652,2821.17 730.986,2821.51 721.5,2822.5C 721.833,2886.84 721.5,2951.17 720.5,3015.5C 671.977,3043.62 620.31,3063.79 565.5,3076C 470.798,3095.18 375.798,3096.51 280.5,3080C 237.907,3073.69 198.574,3059.02 162.5,3036C 125.243,3008.33 97.4093,2973.17 79,2930.5C 34.677,2822.65 21.3437,2710.98 39,2595.5C 57.3225,2491.4 96.1558,2395.9 155.5,2309C 520.833,2308.33 886.167,2308.33 1251.5,2309C 1302.12,2377.74 1352.62,2446.58 1403,2515.5C 1421.27,2541.69 1437.27,2569.36 1451,2598.5C 1467.93,2634.03 1482.93,2670.37 1496,2707.5C 1519.79,2774.7 1516.79,2840.7 1487,2905.5C 1476.65,2924.52 1463.99,2941.85 1449,2957.5C 1408.49,3000.69 1364.99,3040.19 1318.5,3076C 1242.56,3128.65 1158.56,3150.65 1066.5,3142C 1048.25,3137.47 1030.25,3132.14 1012.5,3126C 923.642,3092.74 836.309,3055.9 750.5,3015.5 Z"/></g>
<g><path style="opacity:1" fill="#414141" d="M 721.5,2822.5 C 730.986,2821.51 740.652,2821.17 750.5,2821.5C 750.5,2886.17 750.5,2950.83 750.5,3015.5C 749.501,2951.34 749.168,2887 749.5,2822.5C 740.167,2822.5 730.833,2822.5 721.5,2822.5 Z"/></g>
</svg>
