<?xml version="1.0" encoding="UTF-8"?>
<!DOCTYPE svg PUBLIC "-//W3C//DTD SVG 1.1//EN" "http://www.w3.org/Graphics/SVG/1.1/DTD/svg11.dtd">
<svg xmlns="http://www.w3.org/2000/svg" version="1.1" width="1544px" height="3694px" style="shape-rendering:geometricPrecision; text-rendering:geometricPrecision; image-rendering:optimizeQuality; fill-rule:evenodd; clip-rule:evenodd" xmlns:xlink="http://www.w3.org/1999/xlink">
<g><path style="opacity:0.667" fill="#fdfdfd" d="M -0.5,-0.5 C 514.167,-0.5 1028.83,-0.5 1543.5,-0.5C 1543.5,1230.83 1543.5,2462.17 1543.5,3693.5C 1028.83,3693.5 514.167,3693.5 -0.5,3693.5C -0.5,2462.17 -0.5,1230.83 -0.5,-0.5 Z M 1540.5,2762.5 C 1533.72,2726.98 1523.55,2692.31 1510,2658.5C 1489.4,2605.29 1464.06,2554.63 1434,2506.5C 1381.33,2434.5 1328.67,2362.5 1276,2290.5C 1275.98,2141.19 1266.32,1992.53 1247,1844.5C 1237.74,1775.21 1222.74,1707.21 1202,1640.5C 1192.83,1616.49 1182.83,1592.82 1172,1569.5C 1130.72,1485.59 1086.38,1403.59 1039,1323.5C 948.835,1171.38 855.501,1021.38 759,873.5C 737.986,839.486 708.82,815.319 671.5,801C 633.189,790.33 597.523,795.997 564.5,818C 544.089,834.632 530.589,855.799 524,881.5C 518.407,905.254 517.073,929.254 520,953.5C 530.458,1020 543.458,1086 559,1151.5C 591.01,1287.21 625.677,1422.21 663,1556.5C 665.348,1571.1 667.182,1585.77 668.5,1600.5C 668.442,1610.21 666.609,1619.54 663,1628.5C 659.934,1633.91 655.434,1637.41 649.5,1639C 630.644,1640.49 613.977,1635.16 599.5,1623C 578.673,1603.84 561.839,1581.67 549,1556.5C 523.279,1505.01 503.279,1451.34 489,1395.5C 470.966,1330.96 459.299,1265.3 454,1198.5C 446.518,1086.29 442.184,973.957 441,861.5C 436.798,823.878 424.131,789.545 403,758.5C 373.069,721.315 336.903,713.815 294.5,736C 272.512,750.651 253.012,768.151 236,788.5C 213.994,815.179 194.328,843.512 177,873.5C 153.145,919.206 131.479,965.873 112,1013.5C 64.4995,1144.34 50.8328,1278.68 71,1416.5C 80.9112,1482.48 97.2445,1546.81 120,1609.5C 136.059,1649.68 151.726,1690.01 167,1730.5C 196.502,1812.34 213.835,1896.68 219,1983.5C 223.245,2057.12 212.579,2128.45 187,2197.5C 172.733,2232.73 153.399,2264.73 129,2293.5C 54.9045,2403.62 12.7378,2524.95 2.5,2657.5C 2.5,1772.5 2.5,887.5 2.5,2.5C 515.167,2.5 1027.83,2.5 1540.5,2.5C 1540.5,922.5 1540.5,1842.5 1540.5,2762.5 Z M 2.5,2726.5 C 6.87433,2791.53 20.041,2854.87 42,2916.5C 59.6329,2964.96 87.1329,3006.8 124.5,3042C 162.328,3073.58 205.661,3093.91 254.5,3103C 349.151,3122.29 444.151,3124.29 539.5,3109C 609.164,3097.34 674.664,3074.17 736,3039.5C 817.168,3077.84 899.668,3113 983.5,3145C 1012.5,3156 1042.16,3164.67 1072.5,3171C 1177.79,3177.86 1271.79,3148.86 1354.5,3084C 1395.14,3050.04 1433.97,3013.87 1471,2975.5C 1512.66,2931.51 1535.82,2879.17 1540.5,2818.5C 1540.5,3109.17 1540.5,3399.83 1540.5,3690.5C 1027.83,3690.5 515.167,3690.5 2.5,3690.5C 2.5,3369.17 2.5,3047.83 2.5,2726.5 Z"/></g>
<g><path style="opacity:0.982" fill="#010101" d="M 1540.5,2762.5 C 1540.5,2781.17 1540.5,2799.83 1540.5,2818.5C 1535.82,2879.17 1512.66,2931.51 1471,2975.5C 1433.97,3013.87 1395.14,3050.04 1354.5,3084C 1271.79,3148.86 1177.79,3177.86 1072.5,3171C 1042.16,3164.67 1012.5,3156 983.5,3145C 899.668,3113 817.168,3077.84 736,3039.5C 674.664,3074.17 609.164,3097.34 539.5,3109C 444.151,3124.29 349.151,3122.29 254.5,3103C 205.661,3093.91 162.328,3073.58 124.5,3042C 87.1329,3006.8 59.6329,2964.96 42,2916.5C 20.041,2854.87 6.87433,2791.53 2.5,2726.5C 2.5,2703.5 2.5,2680.5 2.5,2657.5C 12.7378,2524.95 54.9045,2403.62 129,2293.5C 153.399,2264.73 172.733,2232.73 187,2197.5C 212.579,2128.45 223.245,2057.12 219,1983.5C 213.835,1896.68 196.502,1812.34 167,1730.5C 151.726,1690.01 136.059,1649.68 120,1609.5C 97.2445,1546.81 80.9112,1482.48 71,1416.5C 50.8328,1278.68 64.4995,1144.34 112,1013.5C 131.479,965.873 153.145,919.206 177,873.5C 194.328,843.512 213.994,815.179 236,788.5C 253.012,768.151 272.512,750.651 294.5,736C 336.903,713.815 373.069,721.315 403,758.5C 424.131,789.545 436.798,823.878 441,861.5C 442.184,973.957 446.518,1086.29 454,1198.5C 459.299,1265.3 470.966,1330.96 489,1395.5C 503.279,1451.34 523.279,1505.01 549,1556.5C 561.839,1581.67 578.673,1603.84 599.5,1623C 613.977,1635.16 630.644,1640.49 649.5,1639C 655.434,1637.41 659.934,1633.91 663,1628.5C 666.609,1619.54 668.442,1610.21 668.5,1600.5C 667.182,1585.77 665.348,1571.1 663,1556.5C 625.677,1422.21 591.01,1287.21 559,1151.5C 543.458,1086 530.458,1020 520,953.5C 517.073,929.254 518.407,905.254 524,881.5C 530.589,855.799 544.089,834.632 564.5,818C 597.523,795.997 633.189,790.33 671.5,801C 708.82,815.319 737.986,839.486 759,873.5C 855.501,1021.38 948.835,1171.38 1039,1323.5C 1086.38,1403.59 1130.72,1485.59 1172,1569.5C 1182.83,1592.82 1192.83,1616.49 1202,1640.5C 1222.74,1707.21 1237.74,1775.21 1247,1844.5C 1266.32,1992.53 1275.98,2141.19 1276,2290.5C 1328.67,2362.5 1381.33,2434.5 1434,2506.5C 1464.06,2554.63 1489.4,2605.29 1510,2658.5C 1523.55,2692.31 1533.72,2726.98 1540.5,2762.5 Z"/></g>
<g><path style="opacity:1" fill="#fefefe" d="M 332.5,752.5 C 345.499,752.222 357.166,756.055 367.5,764C 384.655,780.18 396.488,799.68 403,822.5C 407.019,835.925 410.019,849.592 412,863.5C 413.42,945.863 415.753,1028.2 419,1110.5C 421.658,1242.79 445.324,1371.12 490,1495.5C 506.081,1543.01 529.414,1586.34 560,1625.5C 570.36,1637.54 582.194,1647.7 595.5,1656C 615.387,1667.87 636.72,1671.54 659.5,1667C 671.038,1663.65 679.871,1656.82 686,1646.5C 693.558,1630.74 697.058,1614.07 696.5,1596.5C 696.144,1579.66 694.311,1562.99 691,1546.5C 669.065,1470.64 647.732,1394.64 627,1318.5C 594.013,1194.59 567.68,1069.25 548,942.5C 545.018,915.39 549.684,889.723 562,865.5C 578.58,839.2 602.58,825.533 634,824.5C 660.021,825.838 682.855,835.005 702.5,852C 713.968,862.808 724.135,874.642 733,887.5C 821.086,1021.98 906.419,1158.32 989,1296.5C 1044.22,1388.25 1095.89,1482.25 1144,1578.5C 1163.22,1617.27 1178.22,1657.61 1189,1699.5C 1209.38,1783.43 1223.38,1868.43 1231,1954.5C 1241.22,2063.59 1246.39,2172.92 1246.5,2282.5C 889.167,2282.67 531.833,2282.5 174.5,2282C 195.229,2252.37 211.062,2220.21 222,2185.5C 245.968,2107.15 253.968,2027.15 246,1945.5C 236.974,1865.73 218.974,1788.06 192,1712.5C 181.221,1683.61 169.887,1654.94 158,1626.5C 130.054,1555.05 110.388,1481.39 99,1405.5C 78.5128,1259.39 97.5128,1118.72 156,983.5C 171.789,949.921 188.123,916.588 205,883.5C 227.576,844.907 254.742,809.741 286.5,778C 299.715,765.562 315.049,757.062 332.5,752.5 Z"/></g>
<g><path style="opacity:1" fill="#141414" d="M 1254.5,2310.5 C 887.236,2311.5 519.903,2311.83 152.5,2311.5C 519.373,2310.83 886.373,2310.17 1253.5,2309.5C 1254.11,2309.62 1254.44,2309.96 1254.5,2310.5 Z"/></g>
<g><path style="opacity:1" fill="#fefefe" d="M 1254.5,2310.5 C 1311.22,2387.73 1367.39,2465.4 1423,2543.5C 1457.33,2604.5 1484.67,2668.5 1505,2735.5C 1513.65,2767.49 1514.99,2799.82 1509,2832.5C 1503.09,2877.3 1485.09,2916.3 1455,2949.5C 1416.96,2990.21 1376.46,3028.05 1333.5,3063C 1255.65,3122.8 1167.65,3148.8 1069.5,3141C 1049.87,3136.35 1030.54,3130.68 1011.5,3124C 922.976,3091.15 836.143,3054.32 751,3013.5C 750.5,2949.17 750.333,2884.83 750.5,2820.5C 740.833,2820.5 731.167,2820.5 721.5,2820.5C 721.667,2884.83 721.5,2949.17 721,3013.5C 691.144,3031.46 659.644,3045.96 626.5,3057C 534.916,3085.97 441.249,3095.97 345.5,3087C 309.359,3083.88 273.693,3077.88 238.5,3069C 173.297,3051.51 124.463,3013.35 92,2954.5C 67.3395,2907.19 50.6729,2857.19 42,2804.5C 21.331,2690.86 30.9977,2579.86 71,2471.5C 91.624,2414.58 118.791,2361.25 152.5,2311.5C 519.903,2311.83 887.236,2311.5 1254.5,2310.5 Z"/></g>
</svg>
