<?xml version="1.0" encoding="UTF-8"?>
<!DOCTYPE svg PUBLIC "-//W3C//DTD SVG 1.1//EN" "http://www.w3.org/Graphics/SVG/1.1/DTD/svg11.dtd">
<svg xmlns="http://www.w3.org/2000/svg" version="1.1" width="1439px" height="3694px" style="shape-rendering:geometricPrecision; text-rendering:geometricPrecision; image-rendering:optimizeQuality; fill-rule:evenodd; clip-rule:evenodd" xmlns:xlink="http://www.w3.org/1999/xlink">
<g><path style="opacity:0.695" fill="#fdfdfd" d="M -0.5,-0.5 C 479.167,-0.5 958.833,-0.5 1438.5,-0.5C 1438.5,1230.83 1438.5,2462.17 1438.5,3693.5C 958.833,3693.5 479.167,3693.5 -0.5,3693.5C -0.5,2462.17 -0.5,1230.83 -0.5,-0.5 Z M 1435.5,898.5 C 1432.21,841.454 1412.71,790.787 1377,746.5C 1335.36,698.194 1289.86,654.027 1240.5,614C 1208.68,591.59 1176.35,569.923 1143.5,549C 1120.91,535.023 1096.57,525.356 1070.5,520C 1048.45,517.112 1026.45,517.779 1004.5,522C 909.579,542.636 820.579,577.969 737.5,628C 724.082,635.791 710.915,643.958 698,652.5C 601.588,613.772 501.755,588.272 398.5,576C 355.051,571.086 311.717,571.753 268.5,578C 246.209,581.65 225.876,589.983 207.5,603C 194.543,612.955 181.876,623.288 169.5,634C 144.607,658.225 120.441,683.058 97,708.5C 40.0331,776.456 8.53315,854.789 2.5,943.5C 2.5,629.833 2.5,316.167 2.5,2.5C 480.167,2.5 957.833,2.5 1435.5,2.5C 1435.5,301.167 1435.5,599.833 1435.5,898.5 Z M 1435.5,950.5 C 1435.5,1863.83 1435.5,2777.17 1435.5,3690.5C 957.833,3690.5 480.167,3690.5 2.5,3690.5C 2.5,2805.5 2.5,1920.5 2.5,1035.5C 13.4377,1164.15 53.6044,1282.81 123,1391.5C 151.27,1427.7 171.937,1468.04 185,1512.5C 205.345,1587 211.345,1662.66 203,1739.5C 193.809,1823.12 174.809,1904.45 146,1983.5C 117.855,2051.6 95.5212,2121.6 79,2193.5C 48.6925,2333.12 51.3591,2472.12 87,2610.5C 98.8353,2653.34 113.835,2695.01 132,2735.5C 147.001,2769.51 163.334,2802.84 181,2835.5C 197.788,2861.62 216.122,2886.62 236,2910.5C 252.063,2929.26 271.23,2943.76 293.5,2954C 319.145,2963.14 342.478,2959.14 363.5,2942C 377.426,2929.41 388.259,2914.58 396,2897.5C 406.751,2871.83 413.751,2845.16 417,2817.5C 417.961,2710.07 421.628,2602.74 428,2495.5C 435.964,2386.01 458.631,2279.68 496,2176.5C 508.993,2140.5 526.66,2107.17 549,2076.5C 557.291,2065.87 567.124,2057.04 578.5,2050C 591.331,2042.36 604.664,2041.02 618.5,2046C 623.947,2051.73 627.114,2058.56 628,2066.5C 629.349,2086.34 628.016,2106.01 624,2125.5C 616.434,2165.33 608.101,2205 599,2244.5C 576.313,2335.91 553.313,2427.25 530,2518.5C 512.224,2588.72 498.557,2659.72 489,2731.5C 484.424,2768.05 490.424,2802.71 507,2835.5C 528.459,2868.99 559.293,2885.99 599.5,2886.5C 628.349,2885.61 653.682,2875.77 675.5,2857C 691.138,2843.53 704.304,2828.03 715,2810.5C 808.613,2658.3 898.946,2503.97 986,2347.5C 1027.6,2272.3 1066.6,2195.63 1103,2117.5C 1123.64,2073.93 1139.3,2028.6 1150,1981.5C 1167.98,1898.65 1180.65,1814.98 1188,1730.5C 1197.88,1618.05 1202.88,1505.38 1203,1392.5C 1252,1321.17 1301,1249.83 1350,1178.5C 1383.34,1123.51 1408.34,1064.85 1425,1002.5C 1429.49,985.221 1432.99,967.888 1435.5,950.5 Z"/></g>
<g><path style="opacity:0.982" fill="#010101" d="M 1435.5,898.5 C 1435.5,915.833 1435.5,933.167 1435.5,950.5C 1432.99,967.888 1429.49,985.221 1425,1002.5C 1408.34,1064.85 1383.34,1123.51 1350,1178.5C 1301,1249.83 1252,1321.17 1203,1392.5C 1202.88,1505.38 1197.88,1618.05 1188,1730.5C 1180.65,1814.98 1167.98,1898.65 1150,1981.5C 1139.3,2028.6 1123.64,2073.93 1103,2117.5C 1066.6,2195.63 1027.6,2272.3 986,2347.5C 898.946,2503.97 808.613,2658.3 715,2810.5C 704.304,2828.03 691.138,2843.53 675.5,2857C 653.682,2875.77 628.349,2885.61 599.5,2886.5C 559.293,2885.99 528.459,2868.99 507,2835.5C 490.424,2802.71 484.424,2768.05 489,2731.5C 498.557,2659.72 512.224,2588.72 530,2518.5C 553.313,2427.25 576.313,2335.91 599,2244.5C 608.101,2205 616.434,2165.33 624,2125.5C 628.016,2106.01 629.349,2086.34 628,2066.5C 627.114,2058.56 623.947,2051.73 618.5,2046C 604.664,2041.02 591.331,2042.36 578.5,2050C 567.124,2057.04 557.291,2065.87 549,2076.5C 526.66,2107.17 508.993,2140.5 496,2176.5C 458.631,2279.68 435.964,2386.01 428,2495.5C 421.628,2602.74 417.961,2710.07 417,2817.5C 413.751,2845.16 406.751,2871.83 396,2897.5C 388.259,2914.58 377.426,2929.41 363.5,2942C 342.478,2959.14 319.145,2963.14 293.5,2954C 271.23,2943.76 252.063,2929.26 236,2910.5C 216.122,2886.62 197.788,2861.62 181,2835.5C 163.334,2802.84 147.001,2769.51 132,2735.5C 113.835,2695.01 98.8353,2653.34 87,2610.5C 51.3591,2472.12 48.6925,2333.12 79,2193.5C 95.5212,2121.6 117.855,2051.6 146,1983.5C 174.809,1904.45 193.809,1823.12 203,1739.5C 211.345,1662.66 205.345,1587 185,1512.5C 171.937,1468.04 151.27,1427.7 123,1391.5C 53.6044,1282.81 13.4377,1164.15 2.5,1035.5C 1.19563,1004.83 1.19563,974.166 2.5,943.5C 8.53315,854.789 40.0331,776.456 97,708.5C 120.441,683.058 144.607,658.225 169.5,634C 181.876,623.288 194.543,612.955 207.5,603C 225.876,589.983 246.209,581.65 268.5,578C 311.717,571.753 355.051,571.086 398.5,576C 501.755,588.272 601.588,613.772 698,652.5C 710.915,643.958 724.082,635.791 737.5,628C 820.579,577.969 909.579,542.636 1004.5,522C 1026.45,517.779 1048.45,517.112 1070.5,520C 1096.57,525.356 1120.91,535.023 1143.5,549C 1176.35,569.923 1208.68,591.59 1240.5,614C 1289.86,654.027 1335.36,698.194 1377,746.5C 1412.71,790.787 1432.21,841.454 1435.5,898.5 Z"/></g>
<g><path style="opacity:1" fill="#fefefe" d="M 1028.5,547.5 C 1056.72,545.644 1083.39,551.144 1108.5,564C 1123.32,571.576 1137.66,579.909 1151.5,589C 1181.53,608.683 1210.87,629.349 1239.5,651C 1284.4,689.9 1325.9,732.067 1364,777.5C 1393.59,821.338 1407.76,869.838 1406.5,923C 1406.18,951.082 1402.01,978.582 1394,1005.5C 1378.67,1058.15 1357.34,1108.15 1330,1155.5C 1280.72,1227.78 1231.06,1299.78 1181,1371.5C 835.569,1370.67 490.069,1370.17 144.5,1370C 58.3262,1233.14 21.4929,1083.97 34,922.5C 41.2687,862.653 61.9354,807.986 96,758.5C 104.758,746.653 113.758,734.986 123,723.5C 145.803,698.364 169.636,674.197 194.5,651C 208.929,637.953 224.596,626.619 241.5,617C 255.093,610.358 269.427,606.358 284.5,605C 333.328,600.722 381.995,602.055 430.5,609C 517.925,623.44 602.925,646.773 685.5,679C 687.495,748.286 688.161,817.786 687.5,887.5C 697.167,887.5 706.833,887.5 716.5,887.5C 716.333,816.833 716.5,746.166 717,675.5C 802.02,619.144 894.187,578.644 993.5,554C 1005.2,551.225 1016.87,549.058 1028.5,547.5 Z"/></g>
<g><path style="opacity:1" fill="#fefefe" d="M 165.5,1400.5 C 501.333,1399.5 837.333,1399.17 1173.5,1399.5C 1173.21,1539.31 1165.04,1678.64 1149,1817.5C 1141.51,1873.63 1131.51,1929.3 1119,1984.5C 1108.92,2024.75 1095.25,2063.75 1078,2101.5C 1050.19,2162.12 1020.52,2221.79 989,2280.5C 893.544,2455.45 793.544,2627.45 689,2796.5C 674.16,2821.34 653.66,2839.84 627.5,2852C 588.495,2864.44 556.995,2854.27 533,2821.5C 525.399,2807.03 520.399,2791.7 518,2775.5C 516.825,2764.52 516.492,2753.52 517,2742.5C 560.249,2545.86 603.916,2349.53 648,2153.5C 653.223,2130.27 656.39,2106.77 657.5,2083C 657.356,2067.95 654.523,2053.45 649,2039.5C 642.457,2024.96 631.29,2016.46 615.5,2014C 598.156,2011.6 581.823,2014.6 566.5,2023C 547.796,2034.7 531.963,2049.54 519,2067.5C 495.248,2103.67 476.248,2142.34 462,2183.5C 431.162,2273.86 410.828,2366.53 401,2461.5C 392.936,2578.02 388.603,2694.69 388,2811.5C 385.304,2840.56 377.637,2868.22 365,2894.5C 356.472,2911.36 343.306,2922.86 325.5,2929C 312.681,2930.51 301.014,2927.51 290.5,2920C 283.985,2915.24 277.652,2910.24 271.5,2905C 247.322,2879.17 225.822,2851.33 207,2821.5C 172.636,2758.77 144.303,2693.44 122,2625.5C 83.8252,2494.48 77.1585,2361.81 102,2227.5C 112.809,2170.6 128.142,2114.93 148,2060.5C 185.061,1971.92 211.395,1880.26 227,1785.5C 234.045,1736.42 236.712,1687.09 235,1637.5C 231.96,1562.95 213.96,1492.28 181,1425.5C 176.309,1416.77 171.143,1408.43 165.5,1400.5 Z"/></g>
</svg>
