<?xml version="1.0" encoding="UTF-8"?>
<!DOCTYPE svg PUBLIC "-//W3C//DTD SVG 1.1//EN" "http://www.w3.org/Graphics/SVG/1.1/DTD/svg11.dtd">
<svg xmlns="http://www.w3.org/2000/svg" version="1.1" width="1055px" height="3975px" style="shape-rendering:geometricPrecision; text-rendering:geometricPrecision; image-rendering:optimizeQuality; fill-rule:evenodd; clip-rule:evenodd" xmlns:xlink="http://www.w3.org/1999/xlink">
<g><path style="opacity:0.768" fill="#fdfdfd" d="M -0.5,-0.5 C 351.167,-0.5 702.833,-0.5 1054.5,-0.5C 1054.5,1324.5 1054.5,2649.5 1054.5,3974.5C 702.833,3974.5 351.167,3974.5 -0.5,3974.5C -0.5,2649.5 -0.5,1324.5 -0.5,-0.5 Z M 1050.5,796.5 C 1032.93,658.75 957.6,569.583 824.5,529C 734.578,498.352 643.244,472.686 550.5,452C 469.305,433.913 387.139,423.746 304,421.5C 264.417,421.208 225.25,425.042 186.5,433C 75.9908,459.193 15.8241,529.026 6,642.5C 5.11774,655.987 4.2844,669.321 3.5,682.5C 3.5,456.167 3.5,229.833 3.5,3.5C 352.5,3.5 701.5,3.5 1050.5,3.5C 1050.5,267.833 1050.5,532.167 1050.5,796.5 Z M 3.5,695.5 C 6.99197,762.449 16.1586,828.783 31,894.5C 51.5981,964.961 74.5981,1034.63 100,1103.5C 130.536,1188.44 164.203,1272.11 201,1354.5C 211.315,1376.47 222.648,1397.8 235,1418.5C 244.056,1442.94 253.389,1467.28 263,1491.5C 283.382,1514.61 303.049,1538.28 322,1562.5C 328.392,1601.85 334.892,1641.19 341.5,1680.5C 341.392,1681.44 341.059,1682.28 340.5,1683C 306.978,1702.19 286.144,1730.69 278,1768.5C 276.096,1791.23 282.096,1811.56 296,1829.5C 309.309,1844.9 324.809,1857.56 342.5,1867.5C 343.833,1878.17 343.833,1888.83 342.5,1899.5C 299.476,1917.85 279.643,1950.52 283,1997.5C 289.619,2033.96 310.452,2058.29 345.5,2070.5C 346.833,2084.5 346.833,2098.5 345.5,2112.5C 316.897,2122.27 296.397,2140.94 284,2168.5C 276.003,2192.21 279.67,2213.88 295,2233.5C 308.91,2248.57 325.41,2259.91 344.5,2267.5C 345.671,2282.83 345.671,2298.17 344.5,2313.5C 304.57,2322.27 283.57,2347.1 281.5,2388C 283.446,2428.78 303.779,2455.61 342.5,2468.5C 343.666,2491.83 343.833,2515.16 343,2538.5C 300.626,2545.21 278.126,2570.05 275.5,2613C 278.781,2658.06 302.115,2686.9 345.5,2699.5C 346.686,2736.38 350.186,2773.05 356,2809.5C 372.755,2895.17 422.255,2952.67 504.5,2982C 574.461,3006 643.461,3003.67 711.5,2975C 762.106,2950.73 797.939,2912.56 819,2860.5C 827.133,2839.46 833.299,2817.96 837.5,2796C 876.131,2790.03 898.964,2767.87 906,2729.5C 906.751,2688.17 889.585,2656.67 854.5,2635C 849.379,2632.36 844.212,2629.86 839,2627.5C 838.333,2613.17 838.333,2598.83 839,2584.5C 839.465,2583.07 840.299,2581.9 841.5,2581C 867.288,2567.55 884.788,2547.05 894,2519.5C 899.019,2496.26 894.686,2474.93 881,2455.5C 869.907,2440.96 856.573,2428.96 841,2419.5C 840.333,2400.83 840.333,2382.17 841,2363.5C 865.988,2351.85 883.321,2333.18 893,2307.5C 900.907,2272.22 890.74,2243.38 862.5,2221C 856.151,2216.58 849.318,2213.08 842,2210.5C 842.436,2194.88 842.603,2179.21 842.5,2163.5C 865.271,2156.24 882.104,2141.9 893,2120.5C 901.096,2097.5 898.429,2075.83 885,2055.5C 873.333,2039.83 859.667,2026.17 844,2014.5C 843.167,1993.49 843.334,1972.49 844.5,1951.5C 887.123,1946.88 909.457,1923.21 911.5,1880.5C 910.937,1847.92 897.604,1822.08 871.5,1803C 863.608,1797.55 854.941,1794.05 845.5,1792.5C 845.126,1754.82 845.626,1717.15 847,1679.5C 859.078,1673.55 870.578,1666.71 881.5,1659C 901.913,1641.42 908.413,1619.59 901,1593.5C 896.148,1577.94 890.314,1562.77 883.5,1548C 892.198,1530.77 901.031,1513.6 910,1496.5C 908.883,1468.51 907.883,1440.51 907,1412.5C 943.503,1318.33 976.836,1222.99 1007,1126.5C 1027.35,1057.9 1041.85,988.235 1050.5,917.5C 1050.5,1935.17 1050.5,2952.83 1050.5,3970.5C 701.5,3970.5 352.5,3970.5 3.5,3970.5C 3.5,2878.83 3.5,1787.17 3.5,695.5 Z"/></g>
<g><path style="opacity:0.982" fill="#010101" d="M 1050.5,796.5 C 1050.5,836.833 1050.5,877.167 1050.5,917.5C 1041.85,988.235 1027.35,1057.9 1007,1126.5C 976.836,1222.99 943.503,1318.33 907,1412.5C 907.883,1440.51 908.883,1468.51 910,1496.5C 901.031,1513.6 892.198,1530.77 883.5,1548C 890.314,1562.77 896.148,1577.94 901,1593.5C 908.413,1619.59 901.913,1641.42 881.5,1659C 870.578,1666.71 859.078,1673.55 847,1679.5C 845.626,1717.15 845.126,1754.82 845.5,1792.5C 854.941,1794.05 863.608,1797.55 871.5,1803C 897.604,1822.08 910.937,1847.92 911.5,1880.5C 909.457,1923.21 887.123,1946.88 844.5,1951.5C 843.334,1972.49 843.167,1993.49 844,2014.5C 859.667,2026.17 873.333,2039.83 885,2055.5C 898.429,2075.83 901.096,2097.5 893,2120.5C 882.104,2141.9 865.271,2156.24 842.5,2163.5C 842.603,2179.21 842.436,2194.88 842,2210.5C 849.318,2213.08 856.151,2216.58 862.5,2221C 890.74,2243.38 900.907,2272.22 893,2307.5C 883.321,2333.18 865.988,2351.85 841,2363.5C 840.333,2382.17 840.333,2400.83 841,2419.5C 856.573,2428.96 869.907,2440.96 881,2455.5C 894.686,2474.93 899.019,2496.26 894,2519.5C 884.788,2547.05 867.288,2567.55 841.5,2581C 840.299,2581.9 839.465,2583.07 839,2584.5C 838.333,2598.83 838.333,2613.17 839,2627.5C 844.212,2629.86 849.379,2632.36 854.5,2635C 889.585,2656.67 906.751,2688.17 906,2729.5C 898.964,2767.87 876.131,2790.03 837.5,2796C 833.299,2817.96 827.133,2839.46 819,2860.5C 797.939,2912.56 762.106,2950.73 711.5,2975C 643.461,3003.67 574.461,3006 504.5,2982C 422.255,2952.67 372.755,2895.17 356,2809.5C 350.186,2773.05 346.686,2736.38 345.5,2699.5C 302.115,2686.9 278.781,2658.06 275.5,2613C 278.126,2570.05 300.626,2545.21 343,2538.5C 343.833,2515.16 343.666,2491.83 342.5,2468.5C 303.779,2455.61 283.446,2428.78 281.5,2388C 283.57,2347.1 304.57,2322.27 344.5,2313.5C 345.671,2298.17 345.671,2282.83 344.5,2267.5C 325.41,2259.91 308.91,2248.57 295,2233.5C 279.67,2213.88 276.003,2192.21 284,2168.5C 296.397,2140.94 316.897,2122.27 345.5,2112.5C 346.833,2098.5 346.833,2084.5 345.5,2070.5C 310.452,2058.29 289.619,2033.96 283,1997.5C 279.643,1950.52 299.476,1917.85 342.5,1899.5C 343.833,1888.83 343.833,1878.17 342.5,1867.5C 324.809,1857.56 309.309,1844.9 296,1829.5C 282.096,1811.56 276.096,1791.23 278,1768.5C 286.144,1730.69 306.978,1702.19 340.5,1683C 341.059,1682.28 341.392,1681.44 341.5,1680.5C 334.892,1641.19 328.392,1601.85 322,1562.5C 303.049,1538.28 283.382,1514.61 263,1491.5C 253.389,1467.28 244.056,1442.94 235,1418.5C 222.648,1397.8 211.315,1376.47 201,1354.5C 164.203,1272.11 130.536,1188.44 100,1103.5C 74.5981,1034.63 51.5981,964.961 31,894.5C 16.1586,828.783 6.99197,762.449 3.5,695.5C 3.5,691.167 3.5,686.833 3.5,682.5C 4.2844,669.321 5.11774,655.987 6,642.5C 15.8241,529.026 75.9908,459.193 186.5,433C 225.25,425.042 264.417,421.208 304,421.5C 387.139,423.746 469.305,433.913 550.5,452C 643.244,472.686 734.578,498.352 824.5,529C 957.6,569.583 1032.93,658.75 1050.5,796.5 Z"/></g>
<g><path style="opacity:1" fill="#fdfdfd" d="M 271.5,451.5 C 349.567,450.826 426.9,457.993 503.5,473C 580.936,488.109 657.269,507.442 732.5,531C 769.189,543.007 805.855,555.007 842.5,567C 944.66,608.519 1003.49,684.019 1019,793.5C 1024.13,843.56 1023.46,893.56 1017,943.5C 1006.82,1013.2 990.825,1081.53 969,1148.5C 958.399,1181.64 947.399,1214.64 936,1247.5C 915.018,1304.63 894.185,1361.79 873.5,1419C 670.833,1419.83 468.166,1419.67 265.5,1418.5C 250.752,1393 237.585,1366.67 226,1339.5C 170.166,1209.48 120.166,1077.14 76,942.5C 61.9694,898.395 51.6361,853.395 45,807.5C 36.3365,758.892 32.6699,709.892 34,660.5C 38.8706,547.982 96.3706,480.815 206.5,459C 228.213,455.605 249.879,453.105 271.5,451.5 Z"/></g>
<g><path style="opacity:1" fill="#020202" d="M 300.5,869.5 C 302.411,869.574 303.578,870.574 304,872.5C 339.952,955.739 378.619,1037.74 420,1118.5C 442.348,1161.89 468.681,1202.56 499,1240.5C 510.791,1254.64 524.624,1266.14 540.5,1275C 558.616,1282.99 576.283,1281.99 593.5,1272C 597.833,1269 602.167,1266 606.5,1263C 627.963,1242.88 646.463,1220.38 662,1195.5C 686.972,1154.57 709.638,1112.23 730,1068.5C 745.773,1035.29 761.273,1001.95 776.5,968.5C 777.365,967.417 778.365,967.251 779.5,968C 787.653,971.577 795.653,975.41 803.5,979.5C 772.5,1050.17 738.333,1119.17 701,1186.5C 683.375,1216.46 663.042,1244.46 640,1270.5C 627.348,1283.07 613.181,1293.57 597.5,1302C 571.01,1313.37 545.343,1311.7 520.5,1297C 497.416,1281.25 477.582,1262.08 461,1239.5C 433.556,1201.01 408.889,1160.68 387,1118.5C 347.654,1040.77 310.821,961.94 276.5,882C 276.645,881.228 276.978,880.561 277.5,880C 285.311,876.574 292.977,873.074 300.5,869.5 Z"/></g>
<g><path style="opacity:1" fill="#b7b7b8" d="M 278.5,1452.5 C 478.5,1453.07 678.5,1453.73 878.5,1454.5C 879.538,1466.15 880.038,1477.82 880,1489.5C 869.893,1508.71 860.06,1528.05 850.5,1547.5C 858.492,1564.49 865.659,1581.82 872,1599.5C 877.628,1616.29 873.128,1629.45 858.5,1639C 845.391,1646.89 831.724,1653.72 817.5,1659.5C 815.821,1712.82 815.154,1766.15 815.5,1819.5C 850.582,1818.08 872.416,1834.41 881,1868.5C 883.237,1881.61 881.237,1893.94 875,1905.5C 868.659,1912.75 860.825,1917.59 851.5,1920C 839.205,1921.31 826.872,1921.81 814.5,1921.5C 813.785,1957.83 813.618,1994.17 814,2030.5C 828.789,2039.61 842.123,2050.61 854,2063.5C 876.253,2092.43 871.42,2115.59 839.5,2133C 830.948,2136.46 822.282,2139.63 813.5,2142.5C 812.5,2173.83 812.167,2205.16 812.5,2236.5C 838.724,2236.57 856.224,2248.9 865,2273.5C 868.886,2294.24 862.72,2311.4 846.5,2325C 835.596,2332.87 823.762,2339.04 811,2343.5C 810.333,2374.5 810.333,2405.5 811,2436.5C 830.071,2446.25 846.071,2459.58 859,2476.5C 869.937,2495.72 868.604,2514.05 855,2531.5C 842.28,2545.39 827.447,2556.39 810.5,2564.5C 808.8,2592.81 808.3,2621.15 809,2649.5C 841.858,2656.03 863.858,2675.03 875,2706.5C 879.939,2729.04 873.105,2746.87 854.5,2760C 850.167,2762.58 845.5,2764.25 840.5,2765C 830.175,2766.72 819.841,2768.22 809.5,2769.5C 806.579,2819.3 789.746,2863.64 759,2902.5C 726.556,2937.98 686.389,2959.14 638.5,2966C 573.097,2975.31 513.097,2961.65 458.5,2925C 423.048,2898.51 399.881,2863.68 389,2820.5C 379.484,2772.34 374.651,2723.67 374.5,2674.5C 346.494,2673.59 325.327,2661.26 311,2637.5C 302.453,2618.63 303.787,2600.63 315,2583.5C 322.335,2575.92 331.169,2571.08 341.5,2569C 351.832,2568.79 362.165,2568.96 372.5,2569.5C 372.931,2527.5 373.265,2485.5 373.5,2443.5C 346.847,2443.44 327.347,2431.77 315,2408.5C 306.219,2385.12 311.386,2365.62 330.5,2350C 344.112,2342.14 358.778,2339.31 374.5,2341.5C 374.667,2310.16 374.5,2278.83 374,2247.5C 356.959,2241.56 341.126,2233.4 326.5,2223C 308.595,2208.31 305.095,2190.81 316,2170.5C 330.446,2149.19 350.613,2138.19 376.5,2137.5C 376.5,2107.5 376.5,2077.5 376.5,2047.5C 354.373,2045.02 336.207,2035.36 322,2018.5C 303.85,1984.27 310.35,1955.77 341.5,1933C 351.494,1927.39 362.161,1923.89 373.5,1922.5C 373.667,1898.5 373.5,1874.5 373,1850.5C 354.923,1841.63 338.589,1830.3 324,1816.5C 307.044,1797.86 303.377,1776.86 313,1753.5C 323.525,1732.31 339.359,1716.47 360.5,1706C 364.833,1705.67 369.167,1705.33 373.5,1705C 374.578,1704.33 375.245,1703.33 375.5,1702C 367,1650.83 358.5,1599.67 350,1548.5C 329,1523.5 308,1498.5 287,1473.5C 284.154,1466.48 281.321,1459.48 278.5,1452.5 Z"/></g>
</svg>
