<?xml version="1.0" encoding="UTF-8"?>
<!DOCTYPE svg PUBLIC "-//W3C//DTD SVG 1.1//EN" "http://www.w3.org/Graphics/SVG/1.1/DTD/svg11.dtd">
<svg xmlns="http://www.w3.org/2000/svg" version="1.1" width="1007px" height="3975px" style="shape-rendering:geometricPrecision; text-rendering:geometricPrecision; image-rendering:optimizeQuality; fill-rule:evenodd; clip-rule:evenodd" xmlns:xlink="http://www.w3.org/1999/xlink">
<g><path style="opacity:0.844" fill="#fdfdfd" d="M 0.5,-0.5 C 335.833,-0.5 671.167,-0.5 1006.5,-0.5C 1006.5,1324.5 1006.5,2649.5 1006.5,3974.5C 671.167,3974.5 335.833,3974.5 0.5,3974.5C 0.83328,2935.67 0.499946,1897 -0.5,858.5C -0.5,854.167 -0.5,849.833 -0.5,845.5C 0.499802,563.667 0.833136,281.667 0.5,-0.5 Z M 1002.5,873.5 C 1000.59,856.513 996.756,839.846 991,823.5C 958.454,758.707 921.121,697.04 879,638.5C 871.531,630.03 863.698,621.863 855.5,614C 771.909,538.398 681.576,472.065 584.5,415C 563.727,403.522 542.06,394.189 519.5,387C 463.4,376.737 411.067,386.404 362.5,416C 343.793,428.02 325.793,441.02 308.5,455C 252.574,503.618 195.908,551.284 138.5,598C 115.705,617.794 93.8718,638.628 73,660.5C 47.5986,687.946 28.2652,719.279 15,754.5C 10.69,767.416 7.19002,780.416 4.5,793.5C 4.5,530.167 4.5,266.833 4.5,3.5C 337.167,3.5 669.833,3.5 1002.5,3.5C 1002.5,293.5 1002.5,583.5 1002.5,873.5 Z M 4.5,923.5 C 8.66701,949.151 13.5003,974.818 19,1000.5C 28.1396,1037.39 36.8062,1074.39 45,1111.5C 75.1954,1206.43 109.529,1299.76 148,1391.5C 155.853,1410.88 165.52,1429.21 177,1446.5C 180.333,1449.17 183.667,1451.83 187,1454.5C 211.757,1491.58 236.091,1528.92 260,1566.5C 265.994,1606.79 271.328,1647.12 276,1687.5C 242.86,1710.43 224.693,1742.1 221.5,1782.5C 223.391,1810.37 234.391,1833.87 254.5,1853C 262.046,1859.55 269.879,1865.71 278,1871.5C 278.5,1882.49 278.667,1893.49 278.5,1904.5C 253.684,1915.5 237.517,1934.16 230,1960.5C 219.739,1998.9 228.572,2032.07 256.5,2060C 264.001,2065.59 272.001,2070.42 280.5,2074.5C 281.844,2088.87 281.51,2103.2 279.5,2117.5C 245.973,2132.54 227.307,2158.37 223.5,2195C 224.872,2221.41 236.205,2242.41 257.5,2258C 264.169,2262.67 271.169,2266.84 278.5,2270.5C 279.833,2286.17 279.833,2301.83 278.5,2317.5C 252.032,2325.47 235.199,2342.8 228,2369.5C 220.03,2404.48 228.864,2434.31 254.5,2459C 261.841,2464.5 269.841,2468.67 278.5,2471.5C 278.5,2495.5 278.5,2519.5 278.5,2543.5C 251.864,2547.29 234.031,2561.96 225,2587.5C 215.136,2621.36 221.136,2652.03 243,2679.5C 253.231,2690.37 265.397,2698.37 279.5,2703.5C 280.96,2742.02 284.46,2780.36 290,2818.5C 309.138,2922.31 370.638,2983.14 474.5,3001C 573.712,3009 643.546,2967.83 684,2877.5C 694.581,2852.51 701.081,2826.51 703.5,2799.5C 721.239,2797.38 735.739,2789.38 747,2775.5C 763.348,2752.76 768.014,2727.76 761,2700.5C 752.613,2670.12 734.613,2647.46 707,2632.5C 706.333,2616.83 706.333,2601.17 707,2585.5C 728.758,2571.75 743.758,2552.75 752,2528.5C 757.884,2505.79 755.217,2484.12 744,2463.5C 734.969,2447.78 722.969,2434.78 708,2424.5C 707.167,2405.16 707.334,2385.82 708.5,2366.5C 746.741,2343.64 761.241,2310.31 752,2266.5C 745.538,2242.72 731.204,2225.72 709,2215.5C 708.857,2199.5 709.19,2183.5 710,2167.5C 755.327,2143.19 767.327,2107.52 746,2060.5C 736.523,2045.02 724.856,2031.35 711,2019.5C 710.333,1998.17 710.333,1976.83 711,1955.5C 738.827,1951.67 756.827,1936.34 765,1909.5C 772.359,1878.96 767.359,1850.63 750,1824.5C 740.454,1811.15 727.954,1801.82 712.5,1796.5C 711.748,1758.5 712.081,1720.5 713.5,1682.5C 732.311,1673.86 746.811,1660.52 757,1642.5C 761.207,1631.19 762.54,1619.52 761,1607.5C 757.481,1589.28 752.148,1571.61 745,1554.5C 744.333,1552.83 744.333,1551.17 745,1549.5C 763.833,1506.5 782.667,1463.5 801.5,1420.5C 800.833,1419.83 800.167,1419.17 799.5,1418.5C 841.46,1348.93 880.626,1277.6 917,1204.5C 944.582,1147.42 967.249,1088.42 985,1027.5C 993.37,996.827 999.203,965.827 1002.5,934.5C 1002.5,1946.5 1002.5,2958.5 1002.5,3970.5C 669.833,3970.5 337.167,3970.5 4.5,3970.5C 4.5,2954.83 4.5,1939.17 4.5,923.5 Z"/></g>
<g><path style="opacity:0.982" fill="#010101" d="M 1002.5,873.5 C 1002.5,893.833 1002.5,914.167 1002.5,934.5C 999.203,965.827 993.37,996.827 985,1027.5C 967.249,1088.42 944.582,1147.42 917,1204.5C 880.626,1277.6 841.46,1348.93 799.5,1418.5C 800.167,1419.17 800.833,1419.83 801.5,1420.5C 782.667,1463.5 763.833,1506.5 745,1549.5C 744.333,1551.17 744.333,1552.83 745,1554.5C 752.148,1571.61 757.481,1589.28 761,1607.5C 762.54,1619.52 761.207,1631.19 757,1642.5C 746.811,1660.52 732.311,1673.86 713.5,1682.5C 712.081,1720.5 711.748,1758.5 712.5,1796.5C 727.954,1801.82 740.454,1811.15 750,1824.5C 767.359,1850.63 772.359,1878.96 765,1909.5C 756.827,1936.34 738.827,1951.67 711,1955.5C 710.333,1976.83 710.333,1998.17 711,2019.5C 724.856,2031.35 736.523,2045.02 746,2060.5C 767.327,2107.52 755.327,2143.19 710,2167.5C 709.19,2183.5 708.857,2199.5 709,2215.5C 731.204,2225.72 745.538,2242.72 752,2266.5C 761.241,2310.31 746.741,2343.64 708.5,2366.5C 707.334,2385.82 707.167,2405.16 708,2424.5C 722.969,2434.78 734.969,2447.78 744,2463.5C 755.217,2484.12 757.884,2505.79 752,2528.5C 743.758,2552.75 728.758,2571.75 707,2585.5C 706.333,2601.17 706.333,2616.83 707,2632.5C 734.613,2647.46 752.613,2670.12 761,2700.5C 768.014,2727.76 763.348,2752.76 747,2775.5C 735.739,2789.38 721.239,2797.38 703.5,2799.5C 701.081,2826.51 694.581,2852.51 684,2877.5C 643.546,2967.83 573.712,3009 474.5,3001C 370.638,2983.14 309.138,2922.31 290,2818.5C 284.46,2780.36 280.96,2742.02 279.5,2703.5C 265.397,2698.37 253.231,2690.37 243,2679.5C 221.136,2652.03 215.136,2621.36 225,2587.5C 234.031,2561.96 251.864,2547.29 278.5,2543.5C 278.5,2519.5 278.5,2495.5 278.5,2471.5C 269.841,2468.67 261.841,2464.5 254.5,2459C 228.864,2434.31 220.03,2404.48 228,2369.5C 235.199,2342.8 252.032,2325.47 278.5,2317.5C 279.833,2301.83 279.833,2286.17 278.5,2270.5C 271.169,2266.84 264.169,2262.67 257.5,2258C 236.205,2242.41 224.872,2221.41 223.5,2195C 227.307,2158.37 245.973,2132.54 279.5,2117.5C 281.51,2103.2 281.844,2088.87 280.5,2074.5C 272.001,2070.42 264.001,2065.59 256.5,2060C 228.572,2032.07 219.739,1998.9 230,1960.5C 237.517,1934.16 253.684,1915.5 278.5,1904.5C 278.667,1893.49 278.5,1882.49 278,1871.5C 269.879,1865.71 262.046,1859.55 254.5,1853C 234.391,1833.87 223.391,1810.37 221.5,1782.5C 224.693,1742.1 242.86,1710.43 276,1687.5C 271.328,1647.12 265.994,1606.79 260,1566.5C 236.091,1528.92 211.757,1491.58 187,1454.5C 183.667,1451.83 180.333,1449.17 177,1446.5C 165.52,1429.21 155.853,1410.88 148,1391.5C 109.529,1299.76 75.1954,1206.43 45,1111.5C 36.8062,1074.39 28.1396,1037.39 19,1000.5C 13.5003,974.818 8.66701,949.151 4.5,923.5C 3.18398,880.162 3.18398,836.829 4.5,793.5C 7.19002,780.416 10.69,767.416 15,754.5C 28.2652,719.279 47.5986,687.946 73,660.5C 93.8718,638.628 115.705,617.794 138.5,598C 195.908,551.284 252.574,503.618 308.5,455C 325.793,441.02 343.793,428.02 362.5,416C 411.067,386.404 463.4,376.737 519.5,387C 542.06,394.189 563.727,403.522 584.5,415C 681.576,472.065 771.909,538.398 855.5,614C 863.698,621.863 871.531,630.03 879,638.5C 921.121,697.04 958.454,758.707 991,823.5C 996.756,839.846 1000.59,856.513 1002.5,873.5 Z"/></g>
<g><path style="opacity:1" fill="#fdfdfd" d="M 453.5,413.5 C 467.837,413.333 482.171,413.5 496.5,414C 512.689,415.285 528.023,419.618 542.5,427C 585.828,448.984 627.161,473.984 666.5,502C 726.75,543.818 784.083,589.485 838.5,639C 849.125,649.285 858.625,660.452 867,672.5C 896.422,716.33 924.089,761.33 950,807.5C 956.488,819.475 962.155,831.808 967,844.5C 973.677,875.191 975.343,906.191 972,937.5C 967.252,980.667 957.585,1022.67 943,1063.5C 912.284,1148.6 874.284,1230.26 829,1308.5C 807.964,1346.19 786.131,1383.35 763.5,1420C 573.167,1420.67 382.833,1420.67 192.5,1420C 150.08,1321.42 111.58,1221.25 77,1119.5C 65.668,1069.5 54.3347,1019.5 43,969.5C 33.6057,924.647 29.6057,879.314 31,833.5C 33.8554,785.926 49.1887,742.926 77,704.5C 95.3837,681.112 115.55,659.279 137.5,639C 201.127,585.709 264.46,532.042 327.5,478C 346.788,461.717 367.455,447.384 389.5,435C 409.775,424.298 431.108,417.131 453.5,413.5 Z"/></g>
<g><path style="opacity:1" fill="#020202" d="M 488.5,717.5 C 523.099,716.559 557.432,719.059 591.5,725C 632.219,733.346 672.219,744.179 711.5,757.5C 708.846,765.782 706.346,774.115 704,782.5C 703.612,783.428 702.945,784.095 702,784.5C 664.317,772.494 626.151,762.328 587.5,754C 539.907,744.648 492.24,744.315 444.5,753C 404.857,761.244 365.524,770.744 326.5,781.5C 324.476,772.071 322.143,762.738 319.5,753.5C 359.358,741.952 399.692,732.119 440.5,724C 456.687,722.139 472.687,719.972 488.5,717.5 Z"/></g>
<g><path style="opacity:1" fill="#585858" d="M 479.5,1451.5 C 393.833,1452.17 308.167,1452.83 222.5,1453.5C 221.957,1453.44 221.624,1453.11 221.5,1452.5C 307.497,1451.5 393.497,1451.17 479.5,1451.5 Z"/></g>
<g><path style="opacity:1" fill="#b7b7b8" d="M 479.5,1451.5 C 571.167,1451.5 662.833,1451.5 754.5,1451.5C 740.565,1484.96 726.232,1518.29 711.5,1551.5C 719.485,1569.29 725.985,1587.62 731,1606.5C 735.004,1623.98 729.504,1637.48 714.5,1647C 704.403,1653.47 693.903,1659.3 683,1664.5C 682.5,1699.5 682.333,1734.5 682.5,1769.5C 681.503,1787.66 681.17,1805.99 681.5,1824.5C 686.833,1824.5 692.167,1824.5 697.5,1824.5C 704.088,1824.97 710.088,1827.14 715.5,1831C 733.287,1848.08 740.787,1868.92 738,1893.5C 735.924,1910.24 726.757,1920.74 710.5,1925C 703.508,1925.5 696.508,1925.67 689.5,1925.5C 686.713,1924.52 683.713,1924.19 680.5,1924.5C 680.5,1935.17 680.5,1945.83 680.5,1956.5C 680.167,1982.51 680.5,2008.51 681.5,2034.5C 694.148,2043.98 705.314,2054.98 715,2067.5C 721.949,2077.06 725.782,2087.73 726.5,2099.5C 726.1,2115.47 719.1,2127.63 705.5,2136C 697.234,2140.42 688.734,2144.25 680,2147.5C 679.5,2178.5 679.333,2209.5 679.5,2240.5C 705.445,2241.93 720.611,2255.6 725,2281.5C 727.196,2304.94 718.696,2323.44 699.5,2337C 692.779,2341.03 685.779,2344.53 678.5,2347.5C 677.167,2378.5 677.167,2409.5 678.5,2440.5C 697.631,2451.46 712.131,2466.8 722,2486.5C 728.565,2507.15 724.898,2525.82 711,2542.5C 701.106,2553.4 689.773,2562.4 677,2569.5C 676.167,2597.51 676.333,2625.51 677.5,2653.5C 706.979,2661.81 725.479,2680.81 733,2710.5C 737.847,2753.16 718.68,2774.16 675.5,2773.5C 674.583,2821.41 661.083,2865.41 635,2905.5C 601.206,2950.31 556.039,2972.65 499.5,2972.5C 443.865,2971.93 397.698,2950.93 361,2909.5C 345.838,2891.18 334.838,2870.52 328,2847.5C 319.131,2817.82 314.131,2787.49 313,2756.5C 311.23,2730.86 310.063,2705.19 309.5,2679.5C 266.548,2672.97 247.048,2647.97 251,2604.5C 254.219,2588.18 263.719,2577.68 279.5,2573C 288.84,2572.6 298.173,2572.76 307.5,2573.5C 307.492,2531.83 307.825,2490.16 308.5,2448.5C 277.333,2446.01 259.499,2429.35 255,2398.5C 252.813,2377.05 260.647,2360.55 278.5,2349C 283.558,2346.57 288.891,2345.4 294.5,2345.5C 299.5,2345.5 304.5,2345.5 309.5,2345.5C 309.5,2330.83 309.5,2316.17 309.5,2301.5C 309.5,2284.83 309.5,2268.17 309.5,2251.5C 292.041,2245.86 276.874,2236.52 264,2223.5C 249.515,2203.09 250.182,2183.09 266,2163.5C 277.475,2149.35 292.308,2142.01 310.5,2141.5C 310.667,2111.83 310.5,2082.16 310,2052.5C 271.009,2043.83 253.009,2019.49 256,1979.5C 261.024,1949.31 278.524,1931.64 308.5,1926.5C 308.833,1902.49 308.5,1878.49 307.5,1854.5C 285.962,1843.46 269.129,1827.46 257,1806.5C 249.466,1788.7 249.8,1771.03 258,1753.5C 266.193,1737.3 277.36,1723.47 291.5,1712C 296.688,1710.36 302.022,1709.36 307.5,1709C 308.684,1707.82 309.351,1706.32 309.5,1704.5C 302.303,1653.83 295.136,1603.16 288,1552.5C 265.66,1519.81 243.826,1486.81 222.5,1453.5C 308.167,1452.83 393.833,1452.17 479.5,1451.5 Z"/></g>
<g><path style="opacity:1" fill="#585858" d="M 682.5,1769.5 C 682.5,1787.5 682.5,1805.5 682.5,1823.5C 687.695,1823.18 692.695,1823.51 697.5,1824.5C 692.167,1824.5 686.833,1824.5 681.5,1824.5C 681.17,1805.99 681.503,1787.66 682.5,1769.5 Z"/></g>
<g><path style="opacity:1" fill="#555555" d="M 689.5,1925.5 C 686.833,1925.5 684.167,1925.5 681.5,1925.5C 681.828,1936.01 681.494,1946.35 680.5,1956.5C 680.5,1945.83 680.5,1935.17 680.5,1924.5C 683.713,1924.19 686.713,1924.52 689.5,1925.5 Z"/></g>
<g><path style="opacity:1" fill="#303030" d="M 309.5,2301.5 C 309.5,2316.17 309.5,2330.83 309.5,2345.5C 304.5,2345.5 299.5,2345.5 294.5,2345.5C 298.97,2344.51 303.637,2344.18 308.5,2344.5C 308.171,2329.99 308.504,2315.66 309.5,2301.5 Z"/></g>
</svg>
