<?xml version="1.0" encoding="UTF-8"?>
<!DOCTYPE svg PUBLIC "-//W3C//DTD SVG 1.1//EN" "http://www.w3.org/Graphics/SVG/1.1/DTD/svg11.dtd">
<svg xmlns="http://www.w3.org/2000/svg" version="1.1" width="1018px" height="3975px" style="shape-rendering:geometricPrecision; text-rendering:geometricPrecision; image-rendering:optimizeQuality; fill-rule:evenodd; clip-rule:evenodd" xmlns:xlink="http://www.w3.org/1999/xlink">
<g><path style="opacity:0.853" fill="#fefefe" d="M -0.5,-0.5 C 338.833,-0.5 678.167,-0.5 1017.5,-0.5C 1017.5,1324.5 1017.5,2649.5 1017.5,3974.5C 678.167,3974.5 338.833,3974.5 -0.5,3974.5C -0.5,2649.5 -0.5,1324.5 -0.5,-0.5 Z M 2.5,917.5 C 7.10936,938.172 13.276,958.506 21,978.5C 45.392,1034.28 70.0587,1089.95 95,1145.5C 133.348,1239.54 168.348,1334.87 200,1431.5C 201.415,1441.15 202.748,1450.82 204,1460.5C 230.906,1493.32 257.573,1526.32 284,1559.5C 290.561,1600.03 297.061,1640.53 303.5,1681C 267.401,1702.68 247.068,1734.52 242.5,1776.5C 244.081,1804.49 255.415,1827.66 276.5,1846C 285.081,1853.08 294.081,1859.58 303.5,1865.5C 304.833,1876.5 304.833,1887.5 303.5,1898.5C 262.22,1918.37 243.72,1951.37 248,1997.5C 253.949,2032.94 273.782,2056.6 307.5,2068.5C 307.833,2082.85 307.499,2097.18 306.5,2111.5C 279.35,2121.48 260.183,2139.82 249,2166.5C 239.364,2200.26 248.531,2227.76 276.5,2249C 285.921,2255.46 295.754,2261.3 306,2266.5C 306.833,2281.51 306.666,2296.51 305.5,2311.5C 267.596,2322.08 247.929,2347.08 246.5,2386.5C 247.642,2425.96 266.642,2452.63 303.5,2466.5C 304.5,2490.16 304.833,2513.82 304.5,2537.5C 275.872,2540.63 256.372,2555.63 246,2582.5C 233.723,2626.68 246.223,2661.85 283.5,2688C 290.815,2692.66 298.648,2696.16 307,2698.5C 307.697,2739.17 311.697,2779.51 319,2819.5C 339.422,2907.18 392.922,2963.34 479.5,2988C 536.902,3003.18 592.902,2999.18 647.5,2976C 696.831,2952 731.664,2914.5 752,2863.5C 761.124,2841.67 767.124,2819 770,2795.5C 801.369,2790.13 822.369,2772.46 833,2742.5C 840.926,2701.83 829.092,2668 797.5,2641C 789.999,2635.41 781.999,2630.58 773.5,2626.5C 772.167,2611.17 772.167,2595.83 773.5,2580.5C 790.43,2570.4 804.264,2557.07 815,2540.5C 833.432,2505.09 829.432,2472.42 803,2442.5C 794.256,2433.75 784.922,2425.75 775,2418.5C 774.333,2399.5 774.333,2380.5 775,2361.5C 816.552,2340.06 832.552,2306.39 823,2260.5C 814.889,2236.39 799.222,2219.39 776,2209.5C 775.167,2193.82 775.334,2178.16 776.5,2162.5C 797.238,2154.26 812.738,2140.26 823,2120.5C 831.321,2098.74 829.655,2077.74 818,2057.5C 807.823,2040.49 794.657,2026.15 778.5,2014.5C 777.5,1992.84 777.167,1971.18 777.5,1949.5C 818.471,1944.28 839.804,1920.94 841.5,1879.5C 840.61,1846.21 826.943,1819.71 800.5,1800C 794.006,1795.75 787.006,1792.59 779.5,1790.5C 778.725,1752.83 779.059,1715.17 780.5,1677.5C 796.817,1670 810.984,1659.67 823,1646.5C 833.104,1631.22 836.104,1614.55 832,1596.5C 827.72,1579.99 822.053,1563.99 815,1548.5C 814.333,1547.17 814.333,1545.83 815,1544.5C 834.167,1501.5 853.333,1458.5 872.5,1415.5C 871.975,1414.81 871.308,1414.31 870.5,1414C 932.885,1315.54 975.718,1209.04 999,1094.5C 1014.26,1014.48 1014.26,934.48 999,854.5C 993.847,833.86 986.181,814.193 976,795.5C 952.239,754.731 924.239,717.064 892,682.5C 824.523,610.645 749.69,548.145 667.5,495C 639.374,477.268 610.041,461.601 579.5,448C 497.972,413.488 420.305,420.488 346.5,469C 260.014,532.781 178.847,603.281 103,680.5C 74.5505,710.605 49.5505,743.271 28,778.5C 16.3552,799.428 7.85524,821.428 2.5,844.5C 2.5,564.167 2.5,283.833 2.5,3.5C 339.5,3.5 676.5,3.5 1013.5,3.5C 1013.5,1325.83 1013.5,2648.17 1013.5,3970.5C 676.5,3970.5 339.5,3970.5 2.5,3970.5C 2.5,2952.83 2.5,1935.17 2.5,917.5 Z"/></g>
<g><path style="opacity:0.981" fill="#010101" d="M 2.5,917.5 C 2.5,893.167 2.5,868.833 2.5,844.5C 7.85524,821.428 16.3552,799.428 28,778.5C 49.5505,743.271 74.5505,710.605 103,680.5C 178.847,603.281 260.014,532.781 346.5,469C 420.305,420.488 497.972,413.488 579.5,448C 610.041,461.601 639.374,477.268 667.5,495C 749.69,548.145 824.523,610.645 892,682.5C 924.239,717.064 952.239,754.731 976,795.5C 986.181,814.193 993.847,833.86 999,854.5C 1014.26,934.48 1014.26,1014.48 999,1094.5C 975.718,1209.04 932.885,1315.54 870.5,1414C 871.308,1414.31 871.975,1414.81 872.5,1415.5C 853.333,1458.5 834.167,1501.5 815,1544.5C 814.333,1545.83 814.333,1547.17 815,1548.5C 822.053,1563.99 827.72,1579.99 832,1596.5C 836.104,1614.55 833.104,1631.22 823,1646.5C 810.984,1659.67 796.817,1670 780.5,1677.5C 779.059,1715.17 778.725,1752.83 779.5,1790.5C 787.006,1792.59 794.006,1795.75 800.5,1800C 826.943,1819.71 840.61,1846.21 841.5,1879.5C 839.804,1920.94 818.471,1944.28 777.5,1949.5C 777.167,1971.18 777.5,1992.84 778.5,2014.5C 794.657,2026.15 807.823,2040.49 818,2057.5C 829.655,2077.74 831.321,2098.74 823,2120.5C 812.738,2140.26 797.238,2154.26 776.5,2162.5C 775.334,2178.16 775.167,2193.82 776,2209.5C 799.222,2219.39 814.889,2236.39 823,2260.5C 832.552,2306.39 816.552,2340.06 775,2361.5C 774.333,2380.5 774.333,2399.5 775,2418.5C 784.922,2425.75 794.256,2433.75 803,2442.5C 829.432,2472.42 833.432,2505.09 815,2540.5C 804.264,2557.07 790.43,2570.4 773.5,2580.5C 772.167,2595.83 772.167,2611.17 773.5,2626.5C 781.999,2630.58 789.999,2635.41 797.5,2641C 829.092,2668 840.926,2701.83 833,2742.5C 822.369,2772.46 801.369,2790.13 770,2795.5C 767.124,2819 761.124,2841.67 752,2863.5C 731.664,2914.5 696.831,2952 647.5,2976C 592.902,2999.18 536.902,3003.18 479.5,2988C 392.922,2963.34 339.422,2907.18 319,2819.5C 311.697,2779.51 307.697,2739.17 307,2698.5C 298.648,2696.16 290.815,2692.66 283.5,2688C 246.223,2661.85 233.723,2626.68 246,2582.5C 256.372,2555.63 275.872,2540.63 304.5,2537.5C 304.833,2513.82 304.5,2490.16 303.5,2466.5C 266.642,2452.63 247.642,2425.96 246.5,2386.5C 247.929,2347.08 267.596,2322.08 305.5,2311.5C 306.666,2296.51 306.833,2281.51 306,2266.5C 295.754,2261.3 285.921,2255.46 276.5,2249C 248.531,2227.76 239.364,2200.26 249,2166.5C 260.183,2139.82 279.35,2121.48 306.5,2111.5C 307.499,2097.18 307.833,2082.85 307.5,2068.5C 273.782,2056.6 253.949,2032.94 248,1997.5C 243.72,1951.37 262.22,1918.37 303.5,1898.5C 304.833,1887.5 304.833,1876.5 303.5,1865.5C 294.081,1859.58 285.081,1853.08 276.5,1846C 255.415,1827.66 244.081,1804.49 242.5,1776.5C 247.068,1734.52 267.401,1702.68 303.5,1681C 297.061,1640.53 290.561,1600.03 284,1559.5C 257.573,1526.32 230.906,1493.32 204,1460.5C 202.748,1450.82 201.415,1441.15 200,1431.5C 168.348,1334.87 133.348,1239.54 95,1145.5C 70.0587,1089.95 45.392,1034.28 21,978.5C 13.276,958.506 7.10936,938.172 2.5,917.5 Z"/></g>
<g><path style="opacity:1" fill="#fdfdfd" d="M 460.5,456.5 C 492.898,453.802 524.231,458.302 554.5,470C 594.683,486.578 632.683,506.911 668.5,531C 741.259,580.391 808.092,637.224 869,701.5C 896.729,731.218 921.395,763.218 943,797.5C 961.78,827.507 972.78,860.174 976,895.5C 982.245,948.875 981.912,1002.21 975,1055.5C 964.585,1128.25 944.585,1198.25 915,1265.5C 892.743,1317.53 866.243,1367.03 835.5,1414C 632.167,1414.5 428.834,1414.67 225.5,1414.5C 192.851,1314.38 156.351,1215.72 116,1118.5C 93.176,1069.19 71.176,1019.52 50,969.5C 40.8534,945.581 34.8534,920.914 32,895.5C 29.8334,864.666 35.5001,835.332 49,807.5C 64.8662,776.415 84.1995,747.749 107,721.5C 135.802,689.031 166.302,658.198 198.5,629C 242.953,589.54 288.287,551.207 334.5,514C 358.457,495.414 384.457,480.081 412.5,468C 428.187,462.244 444.187,458.41 460.5,456.5 Z"/></g>
<g><path style="opacity:1" fill="#020202" d="M 481.5,712.5 C 529.54,710.451 576.873,715.285 623.5,727C 651.879,734.678 680.213,742.511 708.5,750.5C 705.635,759.764 702.968,769.097 700.5,778.5C 679.646,773.287 658.979,767.453 638.5,761C 596.611,749.185 553.945,742.685 510.5,741.5C 473.245,741.798 436.578,746.632 400.5,756C 375.002,762.208 349.669,769.041 324.5,776.5C 321.529,767.953 318.862,759.286 316.5,750.5C 316.608,749.558 316.941,748.725 317.5,748C 358.341,736.123 399.674,726.123 441.5,718C 454.901,715.698 468.234,713.865 481.5,712.5 Z"/></g>
<g><path style="opacity:1" fill="#b7b7b8" d="M 749.5,1737.5 C 748.502,1764.33 748.169,1791.33 748.5,1818.5C 750.167,1818.5 751.833,1818.5 753.5,1818.5C 770.679,1816.83 784.846,1822.5 796,1835.5C 811.384,1855.19 815.05,1876.85 807,1900.5C 799.72,1912.73 788.887,1919.23 774.5,1920C 765.484,1920.6 756.484,1920.43 747.5,1919.5C 747.167,1956.17 747.5,1992.84 748.5,2029.5C 761.665,2038.16 773.498,2048.49 784,2060.5C 807.781,2093.21 801.281,2118.04 764.5,2135C 758.538,2137.27 752.538,2139.43 746.5,2141.5C 745.5,2172.49 745.167,2203.49 745.5,2234.5C 772.499,2235.07 789.332,2248.41 796,2274.5C 798.753,2299.16 789.587,2317.99 768.5,2331C 761.072,2335.05 753.405,2338.55 745.5,2341.5C 744.167,2372.83 744.167,2404.17 745.5,2435.5C 762.965,2444.8 777.465,2457.47 789,2473.5C 800.062,2493.73 798.728,2513.06 785,2531.5C 773.355,2544.98 759.522,2555.64 743.5,2563.5C 742.5,2591.83 742.167,2620.16 742.5,2648.5C 777.136,2655.97 798.302,2676.97 806,2711.5C 808.86,2733.59 800.693,2750.09 781.5,2761C 768.552,2764.85 755.385,2767.35 742,2768.5C 740.435,2827.44 719.268,2877.94 678.5,2920C 635.763,2955.66 586.429,2971.33 530.5,2967C 471.487,2962.24 422.654,2937.74 384,2893.5C 366.229,2869.55 354.229,2842.89 348,2813.5C 340.428,2767.16 336.594,2720.49 336.5,2673.5C 315.711,2672.52 298.211,2664.52 284,2649.5C 267.786,2627.64 266.453,2604.97 280,2581.5C 285.868,2574.31 293.368,2569.81 302.5,2568C 313.181,2567.39 323.847,2567.56 334.5,2568.5C 334.5,2526.5 334.5,2484.5 334.5,2442.5C 293.518,2438.7 274.351,2416.36 277,2375.5C 281.833,2357.33 293.333,2345.83 311.5,2341C 319.439,2339.68 327.439,2339.18 335.5,2339.5C 335.774,2308.5 335.941,2277.5 336,2246.5C 319.071,2240.46 303.571,2231.96 289.5,2221C 272.991,2205.71 270.157,2188.21 281,2168.5C 293.943,2147.61 312.777,2136.94 337.5,2136.5C 337.5,2106.5 337.5,2076.5 337.5,2046.5C 289.298,2037.09 270.465,2008.42 281,1960.5C 291.17,1937.65 308.67,1924.32 333.5,1920.5C 334.833,1896.5 334.833,1872.5 333.5,1848.5C 312.534,1838.36 295.034,1824.03 281,1805.5C 269.343,1784.68 269.677,1764.02 282,1743.5C 291.5,1727.33 304.333,1714.5 320.5,1705C 325.834,1704.43 331.167,1703.93 336.5,1703.5C 328.831,1651.49 320.998,1599.49 313,1547.5C 285.927,1514.35 259.093,1481.02 232.5,1447.5C 430.167,1446.17 627.833,1446.17 825.5,1447.5C 810.696,1480.27 796.029,1513.11 781.5,1546C 789.303,1562.77 796.136,1579.94 802,1597.5C 803.919,1606.18 803.919,1614.85 802,1623.5C 797.876,1629.96 792.71,1635.46 786.5,1640C 774.938,1646.95 762.938,1653.11 750.5,1658.5C 749.5,1684.82 749.167,1711.16 749.5,1737.5 Z"/></g>
<g><path style="opacity:1" fill="#4f4f50" d="M 749.5,1737.5 C 749.5,1764.17 749.5,1790.83 749.5,1817.5C 751.099,1817.23 752.432,1817.57 753.5,1818.5C 751.833,1818.5 750.167,1818.5 748.5,1818.5C 748.169,1791.33 748.502,1764.33 749.5,1737.5 Z"/></g>
</svg>
