<svg xmlns="http://www.w3.org/2000/svg" viewBox="0 0 42.97 86.17"><defs><style>.cls-1,.cls-2{fill:#fff;}.cls-2{fill-rule:evenodd;}</style></defs><title>Ativo 4</title><g id="Camada_2" data-name="Camada 2"><g id="Layer_1" data-name="Layer 1"><path class="cls-1" d="M22.43,25.43a14,14,0,0,1,5.68-5.69,10.52,10.52,0,0,1,4.74-1.21,9.66,9.66,0,0,1,4.84,1.25A13.47,13.47,0,0,1,43,25.56L40.36,26.9a10.64,10.64,0,0,0-4.09-4.56,6.81,6.81,0,0,0-3.39-.88,7.62,7.62,0,0,0-3.43.89A11.1,11.1,0,0,0,25,26.85Z"></path><polygon class="cls-2" points="13.16 68.69 17.59 64.93 14.36 69.67 17.72 70.78 14.28 70.8 16.18 75.14 13 72.21 10.98 77.71 11.6 71.76 6.6 73.24 11.23 70.45 7.52 66.64 11.88 69.07 12.08 65.94 13.16 68.69"></polygon><path class="cls-1" d="M28.94,2.29c-8.19,6.62-14.68,13.94-19.12,22A54.26,54.26,0,0,0,3,47.88l9.56.41,1.46.07L14,49.82l-.45,10.9a27.09,27.09,0,0,0,11.6-3.89A31.91,31.91,0,0,0,35.3,46.31l3-4.71L38,47.14A64.64,64.64,0,0,1,36.33,59.9a36.89,36.89,0,0,1-4.5,10.89A44,44,0,0,1,21.72,82.38c-3.22,2.41-6.86,4-10.8,3.77l.15-2.93c3.17.17,6.18-1.16,8.9-3.19a41,41,0,0,0,9.38-10.8,34.07,34.07,0,0,0,4.13-10,53.57,53.57,0,0,0,1.22-7,32.7,32.7,0,0,1-8,7.13,30.19,30.19,0,0,1-14.6,4.45l-1.6.09.06-1.61L11,51.16l-9.56-.42L0,50.68l0-1.44A57.2,57.2,0,0,1,7.25,22.88C11.88,14.48,18.62,6.86,27.1,0Z"></path></g></g></svg>